<svg width="128" height="128" viewBox="0 0 512 512" fill="none" xmlns="http://www.w3.org/2000/svg">
<path d="M256 503.603C189.85 503.603 127.693 477.798 80.8959 431.104C34.0991 384.307 8.39673 322.15 8.39673 256C8.39673 189.85 34.2015 127.693 80.8959 80.8959C127.59 34.0991 189.85 8.39673 256 8.39673C322.15 8.39673 384.307 34.2015 431.104 80.8959C477.901 127.693 503.603 189.85 503.603 256C503.603 322.15 477.798 384.307 431.104 431.104C384.307 477.901 322.15 503.603 256 503.603Z" fill="#141D2B"/>
<path d="M256 12.6975C390.349 12.6975 499.302 121.651 499.302 256C499.302 390.349 390.349 499.302 256 499.302C121.651 499.302 12.6975 390.349 12.6975 256C12.6975 121.651 121.651 12.6975 256 12.6975ZM256 4.09595C222.003 4.09595 189.03 10.7519 157.901 23.8591C127.898 36.5567 100.966 54.6815 77.824 77.824C54.6815 100.966 36.5567 127.898 23.8591 157.901C10.7519 189.03 4.09595 222.003 4.09595 256C4.09595 289.997 10.7519 322.97 23.8591 354.099C36.5567 384.102 54.6815 411.034 77.824 434.176C100.966 457.318 127.898 475.443 157.901 488.141C188.928 501.248 222.003 507.904 256 507.904C289.997 507.904 322.97 501.248 354.099 488.141C384.102 475.443 411.034 457.318 434.176 434.176C457.318 411.034 475.443 384.102 488.141 354.099C501.248 323.072 507.904 289.997 507.904 256C507.904 222.003 501.248 189.03 488.141 157.901C475.443 127.898 457.318 100.966 434.176 77.824C411.034 54.6815 384.102 36.5567 354.099 23.8591C322.97 10.7519 289.997 4.09595 256 4.09595Z" fill="#A4B1CD"/>
<path d="M256 66.0479C151.04 66.0479 66.0479 151.04 66.0479 256C66.0479 360.96 151.04 445.952 256 445.952C360.96 445.952 445.952 360.96 445.952 256C445.952 151.04 360.96 66.0479 256 66.0479ZM214.835 103.117C194.969 121.856 176.64 138.342 168.243 153.293L148.07 139.366C161.689 128.307 185.241 116.019 214.835 103.117ZM128.409 163.123L151.654 184.32C144.281 211.456 141.517 227.533 139.981 238.694H98.9182C100.147 213.504 109.977 188.313 128.409 163.123ZM98.9182 270.848C113.357 271.155 126.771 270.541 139.264 270.848C141.721 292.045 146.125 311.398 151.654 328.806L125.235 344.883C112.025 323.277 103.219 298.598 98.9182 270.848ZM151.654 371.814C153.805 364.953 160.461 360.55 170.803 358.093C178.893 378.88 194.867 394.445 214.835 407.552C193.024 401.408 171.929 390.041 151.654 371.814ZM240.742 385.741C219.648 371.2 200.397 356.557 195.686 341.197C210.739 333.824 225.689 330.137 240.742 330.342V385.741ZM240.742 297.267C216.371 300.851 195.789 307.405 181.453 313.344C172.953 299.213 170.086 285.081 172.953 270.848C194.457 270.848 217.19 270.848 240.742 270.848V297.267ZM240.742 238.694H170.905C170.086 224.87 173.67 211.046 181.555 197.325C194.355 207.974 215.961 210.125 240.845 213.401V238.694H240.742ZM240.742 178.688C224.358 178.381 209.101 175.616 195.686 168.345C204.493 151.552 221.184 137.011 240.742 123.289V178.688ZM413.081 239.411H371.917C370.381 228.249 367.616 212.173 360.243 185.037L383.488 163.84C402.022 189.03 411.853 214.221 413.081 239.411ZM363.929 140.083L343.757 154.009C335.36 139.059 317.03 122.573 297.165 103.833C326.758 116.736 350.31 128.921 363.929 140.083ZM271.257 124.006C290.816 137.728 307.507 152.269 316.313 169.062C302.899 176.333 287.641 179.097 271.257 179.405V124.006ZM271.257 214.118C296.141 210.841 317.747 208.793 330.547 198.041C338.432 211.865 341.913 225.689 341.197 239.411H271.36V214.118H271.257ZM271.257 271.565C294.809 271.565 317.542 271.565 339.046 271.565C341.913 285.696 339.046 299.827 330.547 314.061C316.313 308.224 295.629 301.568 271.257 297.984V271.565ZM271.257 331.059C286.31 330.854 301.261 334.541 316.313 341.913C311.705 357.171 292.454 371.814 271.257 386.457V331.059ZM297.165 408.166C317.03 395.059 333.107 379.494 341.197 358.707C351.539 361.165 358.195 365.568 360.345 372.429C340.07 390.656 318.976 402.125 297.165 408.166ZM386.662 345.6L360.243 329.523C365.875 312.115 370.176 292.761 372.633 271.565C385.126 271.257 398.643 271.872 412.979 271.565C408.781 299.315 399.974 323.993 386.662 345.6Z" fill="#1793D1"/>
</svg>
