<svg width="128" height="128" viewBox="0 0 512 512" fill="none" xmlns="http://www.w3.org/2000/svg">
<path d="M256.013 429.236C350.473 429.236 427.048 352.66 427.048 258.2C427.048 163.74 350.473 87.1646 256.013 87.1646C161.552 87.1646 84.9771 163.74 84.9771 258.2C84.9771 352.66 161.552 429.236 256.013 429.236Z" fill="#141D2B" stroke="#141D2B" stroke-width="80.0001" stroke-linecap="round" stroke-linejoin="round"/>
<path d="M255.148 477.35C377.395 477.35 476.496 378.249 476.496 256.002C476.496 133.754 377.395 34.6533 255.148 34.6533C132.901 34.6533 33.7998 133.754 33.7998 256.002C33.7998 378.249 132.901 477.35 255.148 477.35Z" fill="url(#paint0_radial_15_32)" stroke="#1793D1" stroke-width="0.79748"/>
<path d="M256.001 428.907C350.462 428.907 427.037 352.332 427.037 257.871C427.037 163.411 350.462 86.8359 256.001 86.8359C161.541 86.8359 84.9658 163.411 84.9658 257.871C84.9658 352.332 161.541 428.907 256.001 428.907Z" stroke="#1793D1" stroke-width="44.6612" stroke-linecap="round" stroke-linejoin="round"/>
<path d="M416.255 224.097C399.261 224.098 385.486 237.874 385.484 254.868V257.116C385.486 274.11 399.261 287.885 416.255 287.886H471.998C488.992 287.885 502.767 274.11 502.769 257.116V254.868C502.767 237.874 488.992 224.098 471.998 224.097H416.255Z" fill="#1793D1" stroke="#141D2B" stroke-width="15" stroke-linecap="round" stroke-linejoin="round"/>
<path d="M40.0016 224.097C23.0076 224.098 9.23217 237.874 9.23096 254.868V257.116C9.23268 274.11 23.0076 287.885 40.0016 287.886H95.7444C112.738 287.885 126.514 274.11 126.515 257.116V254.868C126.514 237.874 112.738 224.098 95.7444 224.097H40.0016Z" fill="#1793D1" stroke="#141D2B" stroke-width="15" stroke-linecap="round" stroke-linejoin="round"/>
<path d="M224.111 95.7469C224.112 112.741 237.887 126.516 254.881 126.518H257.132C274.126 126.516 287.901 112.741 287.902 95.7469V40.0016C287.901 23.0076 274.126 9.23219 257.132 9.23096H254.881C237.887 9.23268 224.112 23.0076 224.111 40.0016V95.7469Z" fill="#1793D1" stroke="#141D2B" stroke-width="15" stroke-linecap="round" stroke-linejoin="round"/>
<path d="M224.111 471.998C224.112 488.992 237.887 502.767 254.881 502.769H257.132C274.126 502.767 287.901 488.992 287.902 471.998V416.255C287.901 399.261 274.126 385.486 257.132 385.484H254.881C237.887 385.486 224.112 399.261 224.111 416.255V471.998Z" fill="#1793D1" stroke="#141D2B" stroke-width="15" stroke-linecap="round" stroke-linejoin="round"/>
<defs>
<radialGradient id="paint0_radial_15_32" cx="0" cy="0" r="1" gradientUnits="userSpaceOnUse" gradientTransform="translate(255.148 256.002) scale(221.84)">
<stop offset="0.226666" stop-color="#141D2B"/>
</radialGradient>
</defs>
</svg>
