<svg width="128" height="128" viewBox="0 0 512 512" fill="none" xmlns="http://www.w3.org/2000/svg">
<path d="M236.134 502.477C205.517 502.477 180.633 477.594 180.633 446.976V420.864C178.893 421.069 177.049 421.069 175.206 421.069C148.173 421.069 114.278 403.354 86.6303 374.886C62.4639 350.003 22.2207 295.117 24.8831 207.872C25.1903 196.198 27.1359 172.339 35.7375 144.384C41.1647 126.669 52.6335 89.7025 85.4015 56.1153C103.936 37.0689 120.729 27.9553 131.891 21.9137C152.371 10.8545 163.43 9.4209 170.803 9.4209C171.622 9.4209 172.441 9.4209 173.261 9.5233C181.76 9.9329 190.259 12.1857 198.246 16.1793L198.349 16.2817L198.451 16.3841C205.005 20.2753 211.046 24.9857 216.166 30.5153C223.334 38.0929 227.123 45.1585 229.273 48.9473C239.104 66.9697 249.446 87.4497 255.385 99.2257C261.325 87.4497 271.565 66.9697 281.497 48.9473C283.545 45.1585 287.437 38.0929 294.605 30.5153C299.827 25.0881 305.766 20.2753 312.32 16.3841L312.422 16.2817L312.525 16.1793C320.614 12.1857 329.011 9.9329 337.51 9.5233C338.329 9.5233 339.149 9.4209 339.968 9.4209C347.341 9.4209 358.4 10.8545 378.88 21.9137C390.041 27.9553 406.835 37.0689 425.369 56.1153C458.137 89.7025 469.504 126.669 475.033 144.384C483.635 172.442 485.581 196.198 485.888 207.872C488.55 295.117 448.307 350.106 424.141 375.091C396.493 403.558 362.598 421.274 335.565 421.274C333.721 421.274 331.981 421.171 330.137 421.069V447.181C330.137 477.798 305.254 502.682 274.637 502.682H236.134V502.477Z" fill="#141D2B"/>
<path d="M170.803 13.6192C171.622 13.6192 172.339 13.6192 173.056 13.7216C183.194 14.2336 191.283 17.408 196.301 19.968C200.499 22.4256 206.848 26.7264 213.094 33.28C219.75 40.2432 223.334 46.7968 225.485 50.7904C238.899 75.264 252.826 103.629 255.386 108.749C257.843 103.731 271.872 75.264 285.286 50.7904C287.437 46.7968 291.123 40.2432 297.677 33.28C303.923 26.624 310.272 22.4256 314.47 19.968C319.59 17.408 327.578 14.2336 337.715 13.7216C338.432 13.7216 339.251 13.6192 339.968 13.6192C347.75 13.6192 358.298 15.5648 376.832 25.6C388.403 31.9488 404.582 40.8576 422.298 58.9824C453.734 91.2384 465.101 126.874 470.835 145.51C480.051 175.514 481.28 199.987 481.485 207.872C485.478 338.637 390.144 416.768 335.462 416.768C332.083 416.768 328.806 416.461 325.734 415.846V446.874C325.734 475.136 302.797 498.074 274.534 498.074H255.181H235.827C207.565 498.074 184.627 475.136 184.627 446.874V415.846C181.555 416.461 178.381 416.768 174.899 416.768C120.218 416.768 24.8831 338.637 28.8767 207.872C29.0815 199.987 30.3103 175.514 39.5263 145.51C45.2607 126.874 56.7295 91.136 88.0639 58.9824C105.779 40.7552 121.958 31.8464 133.53 25.6C152.474 15.5648 163.021 13.6192 170.803 13.6192ZM340.07 5.01758C339.149 5.01758 338.33 5.01758 337.408 5.11998C328.294 5.52958 319.283 7.88478 310.682 12.1856L310.374 12.288L310.17 12.3904C303.206 16.4864 296.96 21.504 291.43 27.2384C283.853 35.2256 279.859 42.5984 277.709 46.4896C269.722 61.1328 261.427 77.312 255.386 89.1904C249.344 77.312 241.05 61.1328 233.062 46.4896C230.912 42.496 226.918 35.1232 219.341 27.2384C213.914 21.504 207.565 16.4864 200.602 12.3904L200.397 12.288L200.09 12.1856C191.488 7.88478 182.477 5.52958 173.363 5.11998C172.442 5.11998 171.52 5.01758 170.701 5.01758C162.816 5.01758 151.04 6.45118 129.741 18.0224C118.374 24.1664 101.171 33.4848 82.2271 53.0432C48.7423 87.4496 37.1711 125.03 31.5391 143.053C22.7327 171.52 20.7871 195.789 20.4799 207.667C19.4559 242.688 25.1903 275.968 37.5807 306.79C48.3327 333.414 64.2047 358.093 83.5583 377.958C97.6895 392.602 113.766 404.685 129.946 412.979C145.818 421.171 161.485 425.472 175.206 425.472C175.616 425.472 175.923 425.472 176.23 425.472V446.976C176.23 479.949 203.059 506.778 236.032 506.778H255.386H274.739C307.712 506.778 334.541 479.949 334.541 446.976V425.472C334.848 425.472 335.258 425.472 335.565 425.472C349.286 425.472 364.954 421.171 380.826 412.979C397.005 404.685 412.979 392.602 427.213 377.958C446.566 357.99 462.438 333.414 473.19 306.79C485.581 276.07 491.315 242.688 490.291 207.667C489.882 195.789 488.038 171.52 479.232 143.053C473.702 125.03 462.029 87.3472 428.544 53.0432C409.6 33.5872 392.397 24.2688 381.03 18.0224C359.731 6.45118 347.955 5.01758 340.07 5.01758Z" fill="#A4B1CD"/>
<path d="M218.009 158.106L202.957 124.518C194.867 128.41 175.821 138.957 162.099 161.28C147.661 184.627 147.558 206.95 147.661 215.45C147.763 224.768 148.377 252.928 168.857 278.221C180.838 293.069 194.765 300.749 202.957 304.64L218.009 273.613C171.929 233.779 170.291 195.277 218.009 158.106Z" fill="#1793D1"/>
<path d="M118.681 220.16C116.941 169.984 144.282 122.778 189.03 98.6112L174.08 67.072C160.153 74.4448 137.216 88.8832 117.145 114.688C108.134 126.259 83.8655 158.31 80.8959 206.234C77.2095 266.854 110.285 309.35 120.217 321.126C139.366 343.757 160.665 356.454 173.977 363.008L189.03 332.493C186.163 330.854 121.241 294.502 118.681 220.16Z" fill="#1793D1"/>
<path d="M291.43 193.638C281.702 175.002 257.946 171.827 255.386 171.52C252.826 171.827 229.171 175.002 219.341 193.638C214.938 202.035 214.528 211.251 214.63 214.938C214.63 218.419 214.733 225.28 218.112 232.755C223.744 245.248 234.701 251.085 238.694 253.03L238.182 444.723H255.386H272.589L272.077 253.03C276.07 251.187 287.027 245.35 292.659 232.755C296.038 225.28 296.141 218.522 296.141 214.938C296.243 211.251 295.834 202.035 291.43 193.638Z" fill="#1793D1"/>
<path d="M342.016 278.118C362.598 252.826 363.11 224.666 363.213 215.347C363.315 206.848 363.11 184.525 348.774 161.178C334.95 138.854 316.006 128.307 307.917 124.416L292.864 158.106C340.582 195.277 338.944 233.779 292.864 273.51L307.917 304.538C316.109 300.749 330.035 292.966 342.016 278.118Z" fill="#1793D1"/>
<path d="M429.978 206.234C427.008 158.31 402.739 126.259 393.728 114.688C373.658 88.8832 350.72 74.4448 336.794 67.072L321.741 98.6112C366.592 122.778 393.933 169.984 392.192 220.16C389.632 294.4 324.71 330.854 321.843 332.39L336.896 362.906C350.208 356.352 371.507 343.654 390.656 321.024C400.589 309.248 433.664 266.854 429.978 206.234Z" fill="#1793D1"/>
</svg>
