<svg width="32" height="32" viewBox="0 0 32 32" fill="none" xmlns="http://www.w3.org/2000/svg">
<path d="M31.996 15.9967C31.996 14.2977 30.6131 12.9134 28.9142 12.9148C26.9787 12.9148 25.1939 13.5692 23.77 14.6693C23.77 14.6693 23.7691 14.6693 23.7673 14.6693C23.0322 13.7332 22.5735 12.6239 22.432 11.4419C22.432 11.4419 22.4346 11.4419 22.436 11.4419C24.2208 11.2118 25.9448 10.4146 27.3118 9.04615C28.5123 7.84564 28.5136 5.89415 27.3171 4.69099L27.3118 4.6857C26.1101 3.48387 24.1547 3.48387 22.9516 4.6857C21.5845 6.0528 20.786 7.77689 20.5546 9.56047C20.5546 9.56047 20.5546 9.56179 20.5546 9.56311C19.3727 9.42164 18.2621 8.96286 17.3247 8.22774C17.1026 8.51465 16.862 8.78701 16.6055 9.04351H16.6068C16.4112 9.24051 16.2076 9.42429 15.9987 9.59749C16.5804 10.0761 17.2269 10.4767 17.9223 10.7874C17.9673 10.8073 18.0149 10.8284 18.0611 10.8482C18.1061 10.8681 18.151 10.8866 18.1973 10.9038C18.2198 10.9143 18.2449 10.9223 18.2687 10.9315C18.3004 10.9448 18.3322 10.958 18.3652 10.9686C18.4089 10.9844 18.4512 11.0016 18.4961 11.0175C18.5477 11.036 18.5979 11.0532 18.6495 11.0704C19.2576 11.2753 19.8856 11.4088 20.5189 11.4697C20.5189 11.4697 20.5189 11.4723 20.5189 11.4736C20.6088 12.3952 20.8481 13.2731 21.2117 14.0849C21.2567 14.1893 21.3056 14.2911 21.3558 14.3916C21.3743 14.4273 21.3928 14.463 21.41 14.4987C21.4272 14.5318 21.4444 14.5648 21.4629 14.5992C21.4946 14.66 21.5277 14.7208 21.5621 14.7816L21.5634 14.783C21.8053 15.2113 22.0843 15.6159 22.3937 15.994L22.3963 15.9967C22.5708 16.2082 22.7559 16.4132 22.9503 16.6075H22.9489C22.7519 16.4132 22.5682 16.2096 22.395 15.998C22.3685 16.0297 22.3447 16.0615 22.3183 16.0932C22.2958 16.121 22.2733 16.1501 22.2522 16.1778C22.2297 16.2082 22.2046 16.2373 22.1834 16.2691C22.1596 16.2981 22.1358 16.3286 22.1147 16.3603C22.0975 16.3828 22.083 16.4039 22.0658 16.4277C22.034 16.4713 22.0023 16.515 21.9706 16.5613C21.956 16.5837 21.9389 16.6075 21.923 16.63C21.919 16.6353 21.9151 16.6406 21.9124 16.6472L21.8542 16.7371C21.7947 16.8257 21.7392 16.9143 21.685 17.0042C21.6652 17.0372 21.6453 17.0703 21.6282 17.102C21.6057 17.1377 21.5872 17.1721 21.5673 17.2078C21.5462 17.2435 21.5264 17.2792 21.5078 17.3162C21.488 17.3519 21.4682 17.3876 21.4484 17.4246C21.4285 17.4603 21.4113 17.496 21.3915 17.533C21.373 17.5701 21.3545 17.6071 21.336 17.6441C21.3135 17.6904 21.291 17.738 21.2686 17.7829C21.2236 17.8768 21.1826 17.972 21.143 18.0672C21.1297 18.0989 21.1165 18.1306 21.1033 18.1624C21.0954 18.1835 21.0861 18.206 21.0768 18.2258C21.0729 18.2417 21.0663 18.2549 21.0597 18.2695C21.024 18.3594 20.9909 18.4519 20.9579 18.5432C20.9552 18.5498 20.9539 18.5564 20.9512 18.563C20.7318 19.1857 20.585 19.8415 20.5189 20.5224C20.5189 20.5224 20.5189 20.5237 20.5189 20.5251C20.5123 20.5898 20.5097 20.6546 20.5044 20.7207C20.5083 20.648 20.5136 20.5806 20.5189 20.5251C19.727 20.6017 18.943 20.7908 18.1947 21.0923C18.1497 21.1094 18.1048 21.1293 18.0585 21.1478C18.0122 21.1676 17.9646 21.1875 17.9184 21.2086C17.2229 21.5193 16.5778 21.9199 15.9974 22.3972C15.9974 22.3972 15.9974 22.3972 15.996 22.3972C15.7832 22.5717 15.5796 22.7568 15.3852 22.9512H15.3839C15.5809 22.7529 15.7845 22.5678 15.9947 22.3959C14.6713 21.3064 13.0914 20.6824 11.4718 20.5251C11.4705 20.5251 11.4679 20.5251 11.4665 20.5251C11.1942 20.4986 10.9192 20.4841 10.6468 20.4841V20.4814C10.9232 20.4814 11.1968 20.4946 11.4665 20.5211C11.3079 18.9041 10.6852 17.3228 9.59709 15.9993H9.59577C9.59577 15.9993 9.59577 15.9967 9.59577 15.9954C10.0638 15.4268 10.4578 14.7962 10.7658 14.1166C10.783 14.0783 10.8002 14.0399 10.8161 14.0002C10.8425 13.9408 10.8676 13.8813 10.8914 13.8204C10.9099 13.7728 10.9284 13.7266 10.947 13.6776C10.9641 13.6327 10.9813 13.5891 10.9972 13.5441C11.0117 13.5018 11.0276 13.4595 11.0421 13.4172C11.2603 12.7852 11.4031 12.132 11.4665 11.4723C11.4665 11.4723 11.4665 11.4697 11.4665 11.4683C11.493 11.196 11.5075 10.921 11.5075 10.6486H11.5102C11.5102 10.9249 11.4969 11.1986 11.4705 11.4683C11.5538 11.4604 11.6371 11.4511 11.7204 11.4392C11.768 11.4326 11.8156 11.4273 11.8632 11.4194C11.9081 11.4128 11.9517 11.4062 11.9967 11.3996C12.0311 11.3943 12.0641 11.389 12.0985 11.3824C12.1038 11.3824 12.1091 11.3811 12.1144 11.3797C12.121 11.3797 12.1276 11.3771 12.1342 11.3758C12.162 11.3705 12.1897 11.3652 12.2175 11.3599C12.2505 11.3533 12.2849 11.3467 12.3193 11.3401C12.3563 11.3321 12.392 11.3255 12.4277 11.3176C12.4396 11.315 12.4528 11.3123 12.4647 11.3097C12.4991 11.3017 12.5321 11.2938 12.5665 11.2859C12.5758 11.2832 12.585 11.2819 12.5943 11.2793C12.6379 11.2687 12.6815 11.2581 12.7252 11.2475C12.7701 11.2356 12.8164 11.2237 12.8627 11.2118C12.9089 11.1986 12.9539 11.1867 13.0002 11.1735C13.0425 11.1616 13.0861 11.1484 13.1284 11.1351C13.1628 11.1246 13.1985 11.114 13.2329 11.1021C13.2633 11.0928 13.2937 11.0823 13.3241 11.073C13.3545 11.0638 13.3849 11.0532 13.4153 11.0426C13.4589 11.0281 13.5012 11.0122 13.5435 10.9976C13.5885 10.9818 13.6321 10.9646 13.6771 10.9474C13.7247 10.9289 13.7723 10.9104 13.8199 10.8919C13.8886 10.8641 13.956 10.835 14.0248 10.8059C14.0552 10.7927 14.0856 10.7795 14.116 10.7649C14.7942 10.4582 15.4262 10.0629 15.9947 9.59484L15.9974 9.5922C16.2089 9.41768 16.4125 9.2339 16.6055 9.04086C16.862 8.78436 17.1013 8.512 17.3234 8.2251C17.3234 8.2251 17.3234 8.2251 17.3234 8.22377C18.4234 6.79982 19.0778 5.01492 19.0778 3.07929C19.0831 1.38429 17.7029 0.0026443 16.004 0C16.0026 0 16 0 15.9987 0C14.2985 0 12.9156 1.38297 12.9156 3.08325C12.9156 5.01756 13.57 6.80246 14.67 8.22642C14.3738 8.46044 14.0605 8.66405 13.7366 8.83725C13.6929 8.86105 13.6493 8.88353 13.6057 8.906C13.5726 8.92319 13.5396 8.93906 13.5065 8.95492C13.4788 8.96814 13.4523 8.98137 13.4246 8.99459C13.4087 9.00252 13.3915 9.01045 13.3756 9.01706C13.3466 9.03028 13.3188 9.04351 13.2897 9.05541C13.2699 9.06466 13.2514 9.07259 13.2315 9.08053C13.1958 9.09639 13.1615 9.11094 13.1244 9.12416C13.1125 9.12945 13.1006 9.13474 13.0887 9.1387C13.0544 9.15325 13.0187 9.16779 12.983 9.18101C12.9698 9.1863 12.9579 9.19027 12.9446 9.19555C12.9142 9.20613 12.8838 9.21803 12.8534 9.22993C12.4039 9.39255 11.9319 9.50626 11.4427 9.56443C11.4427 9.56443 11.4427 9.56311 11.4427 9.56179C11.214 7.77689 10.4141 6.0528 9.0471 4.6857C7.84531 3.48387 5.88861 3.48387 4.68683 4.6857C3.48504 5.88753 3.48504 7.84432 4.68683 9.04615C6.05388 10.4133 7.77789 11.2118 9.56272 11.4419C9.56272 11.4419 9.56404 11.4419 9.56536 11.4419C9.4239 12.6226 8.96513 13.7319 8.23137 14.6679C8.23137 14.6679 8.23137 14.6679 8.23004 14.6679C6.76252 13.5322 4.96976 12.9161 3.08313 12.9161C2.25946 12.9161 1.48471 13.2374 0.902991 13.8191C0.321269 14.4022 0 15.177 0 16.0007C0 16.002 0 16.0046 0 16.0059C0.0013221 16.827 0.322591 17.5991 0.902991 18.1809C1.48604 18.764 2.25946 19.0839 3.08313 19.0852C5.01867 19.0852 6.80218 18.4308 8.2274 17.3294C8.2274 17.3294 8.2274 17.3294 8.22872 17.3294C8.96381 18.2655 9.42257 19.3748 9.56404 20.5568C9.56404 20.5568 9.56139 20.5568 9.56007 20.5568C7.77524 20.7868 6.05123 21.5854 4.68418 22.9525C3.4824 24.1544 3.4824 26.1111 4.68418 27.313C4.68683 27.3156 4.68947 27.3183 4.69212 27.3196C5.89522 28.5148 7.84532 28.5122 9.04446 27.313C10.4128 25.9446 11.21 24.2205 11.4401 22.4369C11.4401 22.4369 11.4401 22.4356 11.4401 22.4342C12.6234 22.5757 13.7326 23.0358 14.67 23.7709V23.7723C13.57 25.1962 12.9142 26.9811 12.9156 28.9167C12.9156 29.7669 13.2619 30.5377 13.8199 31.0956C14.3778 31.6536 15.1486 32 15.9987 32C16.0013 32 16.004 32 16.0066 32C16.8276 31.9987 17.5984 31.6774 18.1801 31.097C18.7619 30.5152 19.0831 29.7404 19.0831 28.9167C19.0831 27.03 18.467 25.2372 17.3313 23.7696C17.3313 23.7696 17.3313 23.7696 17.3313 23.7683C18.2674 23.0345 19.3766 22.5757 20.5573 22.4342C20.511 22.0746 20.4872 21.711 20.4885 21.3488C20.4885 21.3488 20.4885 21.3461 20.4885 21.3408V21.3474C20.4885 21.711 20.511 22.0733 20.5573 22.4342C20.5573 22.4342 20.5573 22.4369 20.5573 22.4382C20.7873 24.2218 21.5859 25.9459 22.9529 27.313C24.0317 28.3919 25.7187 28.5029 26.9218 27.6435C27.0593 27.547 27.1889 27.4373 27.3132 27.313C27.4216 27.2046 27.5207 27.0882 27.6093 26.9692C28.5057 25.7634 28.4052 24.0459 27.3132 22.9538C25.9448 21.5854 24.2221 20.7882 22.4386 20.5581H22.4373C22.4862 20.1403 22.5787 19.7318 22.7043 19.3417C22.7202 19.2928 22.7361 19.2439 22.7519 19.1963C22.7546 19.1923 22.7559 19.187 22.7586 19.1831C22.7691 19.1487 22.781 19.1156 22.7942 19.0826C22.8075 19.0443 22.8233 19.0072 22.8379 18.9689C22.8392 18.9636 22.8418 18.9583 22.8458 18.9517C22.8604 18.9107 22.8749 18.8724 22.8921 18.834C22.8974 18.8208 22.9027 18.8102 22.908 18.7983C22.9265 18.7534 22.9463 18.7111 22.9661 18.6661C22.986 18.6212 23.0071 18.5762 23.0296 18.5299C23.0296 18.526 23.0335 18.522 23.0349 18.5194C23.0468 18.4929 23.0613 18.4665 23.0732 18.4413C23.0983 18.3924 23.1235 18.3435 23.1486 18.2959C23.3244 17.9588 23.5333 17.6388 23.7739 17.3307H23.7752C25.1991 18.4321 26.984 19.0866 28.9169 19.0852C30.6144 19.0852 31.996 17.7062 32 16.0099C32 16.0073 32 16.0046 32 16.002L31.996 15.9967ZM24.2975 6.03165C24.7589 5.57022 25.5072 5.57154 25.9673 6.03165L25.9726 6.03694C26.4274 6.49705 26.426 7.24274 25.9673 7.70152C24.9836 8.6852 23.762 9.2881 22.4862 9.51287C22.711 8.23699 23.3138 7.01533 24.2975 6.03165ZM16 1.90257C16 1.90257 16.0026 1.90257 16.0053 1.90257C16.6544 1.90522 17.182 2.43408 17.182 3.08325C17.182 4.47548 16.7443 5.76722 15.9987 6.82891C15.2332 5.73945 14.8194 4.44242 14.8194 3.08325C14.8194 2.43276 15.3495 1.90257 16 1.90257ZM6.0314 7.70152C5.57131 7.24142 5.57131 6.49176 6.0314 6.03033C6.49149 5.57022 7.24112 5.57022 7.70253 6.03033C8.68617 7.01401 9.28904 8.23567 9.51248 9.51155C8.23665 9.2881 7.01504 8.6852 6.0314 7.70152ZM3.08313 17.1813C2.76715 17.1813 2.471 17.0584 2.24756 16.8349C2.02545 16.6128 1.90382 16.318 1.90117 16.0046C1.90117 16.0033 1.90117 16.0007 1.90117 15.9993C1.90117 15.6833 2.02413 15.3872 2.24756 15.1637C2.471 14.9403 2.76715 14.8187 3.08313 14.8173C4.44356 14.8173 5.74054 15.2312 6.83127 15.998C5.74186 16.7662 4.44356 17.18 3.08313 17.18V17.1813ZM7.69856 25.967C7.2398 26.4258 6.49678 26.4271 6.03537 25.9736C6.03272 25.971 6.03008 25.9697 6.02743 25.967C5.56734 25.5069 5.56734 24.7573 6.02743 24.2958C7.01107 23.3121 8.23269 22.7079 9.50851 22.4858C9.28508 23.7617 8.68088 24.9833 7.69856 25.967ZM16.8316 29.7497C16.6095 29.9718 16.316 30.0935 16.0026 30.0961C16 30.0961 15.9974 30.0961 15.9947 30.0961C15.3429 30.0961 14.8141 29.5659 14.8141 28.9154C14.8141 27.5549 15.2279 26.2566 15.996 25.1658C16.7628 26.2553 17.1767 27.5536 17.1767 28.9141C17.1767 29.2301 17.0537 29.5263 16.8303 29.7497H16.8316ZM20.5348 20.4391C20.5943 19.8865 20.7093 19.3378 20.8785 18.8036C20.7106 19.3378 20.5943 19.8865 20.5348 20.4391ZM25.9646 24.2958C26.311 24.6422 26.397 25.1539 26.2198 25.581C26.1629 25.7211 26.077 25.852 25.9646 25.9657C25.8351 26.0953 25.6817 26.1878 25.5204 26.2434C25.1053 26.3888 24.6254 26.2962 24.2935 25.9657C23.3099 24.982 22.7057 23.7604 22.4822 22.4845C23.7581 22.7092 24.9797 23.3108 25.9633 24.2958H25.9646ZM21.1416 11.5067C20.946 11.5027 20.7516 11.4921 20.5559 11.4736C20.7516 11.4921 20.946 11.5014 21.1416 11.5067ZM30.0922 16.0046C30.0896 16.6525 29.5607 17.18 28.9116 17.1787C27.5525 17.1787 26.2568 16.7662 25.1661 16.0007C26.2277 15.255 27.5181 14.816 28.9116 14.8173C29.5634 14.8173 30.0935 15.3462 30.0922 15.998C30.0922 16.0007 30.0922 16.0033 30.0922 16.0046Z" fill="#8AAC2E"/>
</svg>

