<svg width="32" height="32" viewBox="0 0 32 32" fill="none" xmlns="http://www.w3.org/2000/svg">
    <g clip-path="url(#clip0_466_45)">
        <path
            d="M15.4913 29.889C15.4913 31.0555 13.951 32 12.0501 32C10.1493 32 8.59702 31.0555 8.59702 29.889C8.59702 28.7226 10.1421 27.7832 12.0406 27.7832C13.9391 27.7832 15.4913 28.7277 15.4913 29.889Z"
            fill="#F2A591" />
        <path
            d="M6.59105 5.67749L0 25.9304H2.36657L3.18806 23.2259H6.56716L6.49552 25.9356H8.76896L8.87403 5.67749H6.59105ZM4.25313 19.7007L6.8609 11.0968H6.88955L6.65075 19.7007H4.25313Z"
            fill="#D00000" />
        <path d="M16.5278 25.987H15.5725L15.7707 24.0515H16.726L16.5278 25.987Z" fill="#D00000" />
        <path
            d="M18.111 18.1265H19.6322L19.5152 19.1278H19.5319C19.6967 18.7515 19.8951 18.4513 20.1151 18.2455C20.3352 18.0397 20.5722 17.9325 20.8119 17.9304C21.5284 17.9304 22.1612 18.5085 22.1612 20.0569C22.1472 20.5627 22.1096 21.0641 22.049 21.5536L21.5475 25.9872H19.9713L20.3797 22.3743C20.4368 21.9467 20.4783 21.5101 20.5039 21.0685C20.5039 20.5524 20.3128 20.3149 20.0573 20.3149C19.5558 20.3149 19.3863 20.9962 19.2931 21.8117L18.8299 25.9769H17.2513L18.111 18.1265Z"
            fill="#D00000" />
        <path
            d="M23.9307 21.1613C23.975 20.7687 24.0813 20.4219 24.2313 20.1806C24.3813 19.9394 24.5655 19.8189 24.7522 19.84C25.1487 19.84 25.3492 20.3097 25.3492 20.8981C25.3479 20.9865 25.3431 21.0746 25.3349 21.1613H23.9307ZM25.0603 23.6852C24.9879 23.8857 24.8933 24.0434 24.7851 24.1436C24.677 24.2437 24.5589 24.2831 24.4418 24.2581C23.9475 24.2581 23.7946 23.5613 23.7946 22.7097H26.7463C26.8066 22.2677 26.834 21.8078 26.8275 21.3471C26.8275 18.88 25.717 17.9045 24.8024 17.9045C23.7731 17.9045 22.3236 19.0916 22.3236 22.6891C22.3236 24.5987 22.9134 26.1626 24.3773 26.1626C26.1636 26.1626 26.474 24.2065 26.5767 23.6749L25.0603 23.6852Z"
            fill="#D00000" />
        <path
            d="M29.6358 18.1265H30.4884L30.2663 19.9794H29.4305L29.1487 22.5085C29.1111 22.7632 29.087 23.0264 29.077 23.293C29.077 23.5562 29.1487 23.7627 29.397 23.7627C29.6454 23.7627 29.791 23.7317 29.9152 23.7162L29.6764 25.8839C29.3994 25.9717 29.1128 26.0491 28.8263 26.0801C28.4874 26.1367 28.147 26.0273 27.8305 25.7601C27.7011 25.6204 27.592 25.4063 27.5153 25.1413C27.4386 24.8763 27.3973 24.5707 27.3958 24.2581C27.4032 23.8917 27.4329 23.529 27.4842 23.1794L27.8519 19.9588H27.1499L27.3743 18.1059H28.0573L28.3367 15.7317H29.9152L29.6358 18.1265Z"
            fill="#D00000" />
        <path
            d="M16.8621 6.63226C17.2084 2.96774 16.2173 0 14.6531 0C13.089 0 11.5343 2.96774 11.1881 6.63226C10.9731 8.91355 11.2764 10.9213 11.9045 12.1135C11.3267 12.8027 10.8238 13.7511 10.4296 14.895C10.0355 16.039 9.75909 17.3519 9.6191 18.7458C9.2203 22.9419 10.3594 26.3484 12.1552 26.3484C13.951 26.3484 15.7373 22.9419 16.1266 18.7458C16.394 15.8968 15.9594 13.4194 15.0925 12.1135C15.5402 11.4973 15.927 10.6957 16.2307 9.75497C16.5344 8.81425 16.749 7.75298 16.8621 6.63226ZM14.4907 18.7458C14.2925 20.8103 13.4161 22.4981 12.5301 22.4981C11.6442 22.4981 11.0806 20.8155 11.2764 18.7458C11.4722 16.6761 12.3463 14.9677 13.237 14.9677C14.1278 14.9677 14.6866 16.671 14.4907 18.7458ZM15.2382 6.63226C15.0878 8.18065 14.4287 9.46581 13.7576 9.46581C13.0866 9.46581 12.6615 8.20129 12.8024 6.63226C12.9433 5.06323 13.6119 3.79871 14.2925 3.79871C14.9731 3.79871 15.3863 5.06323 15.2382 6.63226Z"
            fill="#D00000" />
        <path
            d="M31.5224 15.7471C31.3901 15.7664 31.2662 15.8937 31.1756 16.103C31.0851 16.3124 31.0347 16.5882 31.0347 16.8748C31.0347 17.1614 31.0851 17.4372 31.1756 17.6466C31.2662 17.856 31.3901 17.9832 31.5224 18.0026C31.6547 17.9832 31.7786 17.856 31.8692 17.6466C31.9597 17.4372 32.0101 17.1614 32.0101 16.8748C32.0101 16.5882 31.9597 16.3124 31.8692 16.103C31.7786 15.8937 31.6547 15.7664 31.5224 15.7471ZM31.2836 17.5845H31.403V17.0322H31.5367C31.6298 17.0322 31.6346 17.1097 31.6346 17.3006C31.6333 17.3942 31.6373 17.4878 31.6466 17.5793H31.7612C31.6945 17.7014 31.6097 17.7673 31.5224 17.7651C31.4352 17.7702 31.3503 17.7059 31.2836 17.5845ZM31.403 16.8V16.4335H31.5606C31.6394 16.4335 31.6513 16.5419 31.6513 16.6142C31.6513 16.6864 31.6179 16.8 31.5534 16.8H31.403ZM31.7779 17.5484C31.7779 17.5174 31.7779 17.4503 31.7779 17.28C31.7779 17.0271 31.7469 16.9858 31.7015 16.9342C31.7311 16.9057 31.7559 16.8582 31.7726 16.7982C31.7892 16.7382 31.7969 16.6685 31.7946 16.5987C31.795 16.5454 31.7903 16.4925 31.7807 16.4434C31.7711 16.3943 31.7568 16.3501 31.7388 16.3136C31.7208 16.2772 31.6995 16.2492 31.6762 16.2317C31.6529 16.2141 31.6282 16.2073 31.6036 16.2116H31.2836V17.5897C31.2368 17.502 31.1996 17.3933 31.1744 17.2711C31.1492 17.1489 31.1368 17.0163 31.1379 16.8826C31.1337 16.7683 31.1405 16.6534 31.1579 16.545C31.1753 16.4367 31.2028 16.3373 31.2388 16.2531C31.2748 16.169 31.3185 16.1018 31.3671 16.0558C31.4157 16.0099 31.4681 15.9861 31.5212 15.9861C31.5742 15.9861 31.6267 16.0099 31.6753 16.0558C31.7239 16.1018 31.7676 16.169 31.8036 16.2531C31.8396 16.3373 31.8671 16.4367 31.8845 16.545C31.9018 16.6534 31.9087 16.7683 31.9045 16.8826C31.9049 17.0061 31.894 17.1287 31.8722 17.243C31.8505 17.3574 31.8184 17.4612 31.7779 17.5484Z"
            fill="#D00000" />
    </g>
    <defs>
        <clipPath id="clip0_466_45">
            <rect width="32" height="32" fill="white" />
        </clipPath>
    </defs>
</svg>