<svg width="32" height="32" viewBox="0 0 32 32" fill="none" xmlns="http://www.w3.org/2000/svg">
<path fill-rule="evenodd" clip-rule="evenodd" d="M27.7857 13.5C27.4429 13.1286 27.2429 12.6286 27.2429 11.9715C27.2429 11.3143 27.4714 10.7715 27.9429 10.3143C28.4143 9.85717 29.0143 9.65717 29.7143 9.65717C30.3429 9.65717 30.8571 9.82859 31.2571 10.1572C31.6571 10.4857 31.8571 10.9857 31.8571 11.5857C31.8571 12.3429 31.6286 12.9429 31.1857 13.3715C30.7429 13.8286 30.1429 14.0286 29.4143 14.0286C28.7 14.0572 28.1571 13.8572 27.7857 13.5Z" fill="#FD9733"/>
<path d="M29.4 15.7572C28.6 15.7572 28.0286 15.8572 27.6714 16.1143C27.3286 16.3429 27.2286 16.7715 27.0714 17.3715C26.8571 18.2572 26.6428 19.5286 26.4571 20.8857C26.0714 21.0857 25.6143 21.2715 25.0143 21.3572C25 21.2286 25 21.1 24.9857 20.9572C24.8428 19.5286 24.3571 18.3286 23.5428 17.3429C22.7428 16.3715 21.7 15.8429 20.4 15.7429C21.8 14.0143 22.7714 12.3857 23.3714 10.8C23.9714 9.24288 24.1428 8.14288 24.1428 6.54288C24.1428 5.31431 23.8714 4.34288 23.3428 3.55717C22.8 2.80002 22.1 2.40002 21.2 2.40002C19.5571 2.40002 18.1571 3.4286 16.9857 5.48574C15.8143 7.54288 15.0143 9.57145 14.4143 12.4857C13.7857 15.4143 13.4857 18.1286 13.4857 20.6143C13.4857 22.3286 13.6571 23.7857 13.9714 25.0143C13.4 25.8286 12.7571 26.4857 12.0286 26.3429C11.5857 26.2715 11.3 25.5715 11.3 25.2715C11.3 24.4 11.5286 22.8715 11.9714 20.6286C12.2428 19.1 12.4 18.1286 12.4 17.7143C12.4 17.0429 11.8 16.9572 10.8571 16.9572C10.4143 16.9572 9.7857 15.6 8.4857 15.6857C7.15713 15.7572 5.8857 16.0857 4.71427 16.9429C3.51427 17.8 2.5857 18.9 1.87142 20.2715C1.14284 21.6572 0.799988 23.1 0.799988 24.6572C0.799988 26.0857 1.14284 27.2143 1.87142 28.0857C2.57142 28.9429 3.51427 29.3857 4.77142 29.3857C6.27142 29.3857 7.54284 28.5857 8.54284 26.9572C8.81427 27.7143 9.21427 28.3143 9.74284 28.7429C10.2714 29.1715 10.8714 29.4143 11.4857 29.4C12.9857 29.3286 14.1571 28.5286 14.9857 27.3715C15.8714 28.6715 17.2286 29.3286 19.0571 29.3286C20.3571 29.3286 21.5286 28.8286 22.6 27.8429C23.5714 26.9572 24.2428 25.7572 24.6428 24.3572C25.1571 24.3715 25.6428 24.3 26.0714 24.1715C25.8714 26.0572 25.7428 27.5857 25.7428 27.7143C25.7428 28.2429 25.8428 28.6429 26.0714 28.8857C26.3 29.1429 26.7143 29.2572 27.3714 29.2857C28.0428 29.2857 28.5714 29.1572 28.9 28.9143C29.2286 28.6715 29.4 28.2429 29.4428 27.6143C29.6143 24.8 29.9857 21.7286 30.6143 17.3286C30.6428 17.0572 30.6571 16.8715 30.6571 16.7715C30.6571 16.0857 30.2286 15.7572 29.4 15.7572ZM7.79999 23.6857C7.62856 24.5143 7.32856 25.1857 6.95713 25.6857C6.5857 26.1857 6.1857 26.4429 5.75713 26.4143C5.32856 26.4143 5.01427 26.2857 4.75713 25.9857C4.52856 25.7143 4.41427 25.2572 4.41427 24.6572C4.41427 23.5572 4.61427 22.5572 5.01427 21.5715C5.41427 20.6143 5.95713 19.8429 6.64284 19.2429C7.34284 18.6715 8.0857 18.3715 8.8857 18.3429L7.79999 23.6857ZM17.9 11.4C18.2714 9.41431 19.4 5.25717 20.5714 5.31431C20.8143 5.31431 21.4714 6.01431 21.4714 7.31431C21.4714 9.07145 21.1286 9.74288 20.3428 11.5286C19.6 13.3143 18.3428 15.1572 17.1 17.5C17.2714 15.1572 17.5 13.3857 17.9 11.4ZM20.7714 25.5429C20.3 26.0429 19.7714 26.3 19.1714 26.3C18.6286 26.3 18.1286 26 17.7286 25.4286C17.3 24.8572 17.1 24 17.1 22.9C17.1 21.6 17.3714 20.5429 17.9 19.7715C17.9286 19.7429 17.9428 19.7143 17.9714 19.6715C18.0428 19.5429 18.1714 19.4 18.3143 19.2715L18.3428 19.2429C18.3857 19.2143 18.4143 19.1715 18.4714 19.1429C18.5143 19.0857 18.5714 19.0715 18.6143 19.0143C19.1143 18.6429 19.7857 18.3143 20.4143 18.3C20.1143 20.2 20.8428 21.8715 21.8 22.9429C21.7571 23.1715 21.7 23.4 21.6428 23.6572C21.4714 24.4572 21.1714 25.0857 20.7714 25.5429Z" fill="#FD9733"/>
</svg>
