<svg width="32" height="32" viewBox="0 0 32 32" fill="none" xmlns="http://www.w3.org/2000/svg">
<path d="M16.4761 14.1195L9.46649 27.6981C9.21582 28.1851 8.70862 28.4923 8.15396 28.4907H3.38009C2.44889 28.4944 1.84516 27.5216 2.27396 26.7067L9.28409 13.1285C9.53422 12.6405 10.042 12.3339 10.5966 12.3355H15.37C16.3012 12.3328 16.9038 13.3045 16.4761 14.1195Z" fill="#115EF8"/>
<path d="M29.2174 18.3749L21.9166 4.27889C21.5753 3.61542 20.883 3.19836 20.1289 3.19996H15.5038C14.6483 3.20156 14.0942 4.09169 14.4814 4.84476L18.3422 12.3376L22.3006 20.016C22.7171 20.8234 22.1209 21.7797 21.2019 21.7797H15.5587C14.8137 21.7797 14.2105 22.3749 14.2105 23.1082C14.2094 23.2986 14.251 23.4864 14.3315 23.6586L16.1955 27.7013C16.4158 28.1765 16.8963 28.481 17.4259 28.4816H22.9379C28.2051 28.4816 31.6126 22.9973 29.2195 18.3733L29.2174 18.3749Z" fill="#115EF8"/>
</svg>
