<svg width="32" height="32" viewBox="0 0 32 32" fill="none" xmlns="http://www.w3.org/2000/svg">
    <g clip-path="url(#clip0_770_229)">
        <path opacity="0.975" fill-rule="evenodd" clip-rule="evenodd"
            d="M13.7501 -0.083252C15.1945 -0.083252 16.639 -0.083252 18.0834 -0.083252C25.9026 1.51367 30.5137 6.2359 31.9167 14.0834C31.9167 15.3056 31.9167 16.5279 31.9167 17.7501C30.5022 25.6646 25.8356 30.3869 17.9167 31.9167C16.5279 31.9167 15.139 31.9167 13.7501 31.9167C6.23228 30.3989 1.62116 25.8989 -0.083252 18.4167C-0.083252 16.7501 -0.083252 15.0834 -0.083252 13.4167C1.62116 5.93452 6.23228 1.43452 13.7501 -0.083252Z"
            fill="#FF6601" />
        <path fill-rule="evenodd" clip-rule="evenodd"
            d="M9.58339 4.58341C9.4172 7.83223 9.36165 11.11 9.41672 14.4167C9.1954 11.1105 9.1954 7.7772 9.41672 4.41675C9.51784 4.43735 9.57339 4.4929 9.58339 4.58341Z"
            fill="#FFA467" />
        <path fill-rule="evenodd" clip-rule="evenodd"
            d="M9.58322 4.58325C12.1598 6.63115 14.7153 8.71449 17.2499 10.8333C17.5056 10.9871 17.7834 11.0704 18.0832 11.0833C18.9704 10.7399 19.8592 10.7122 20.7499 10.9999C23.5059 12.672 26.2837 14.3109 29.0832 15.9166C25.8432 17.1199 22.6211 18.3699 19.4166 19.6666C18.7759 20.1424 18.4704 20.7813 18.4999 21.5833C18.3527 22.0169 18.1027 22.3781 17.7499 22.6666C15.0277 24.2499 12.3054 25.8333 9.58322 27.4166C9.52767 27.3054 9.47211 27.1944 9.41656 27.0833C9.99921 23.8929 10.5548 20.6984 11.0832 17.4999C11.0554 17.1944 11.0277 16.8888 10.9999 16.5833C10.3101 15.9822 9.78227 15.2599 9.41656 14.4166C9.36149 11.1099 9.41704 7.83207 9.58322 4.58325Z"
            fill="#FFFDFC" />
    </g>
    <defs>
        <clipPath id="clip0_770_229">
            <rect width="32" height="32" fill="white" />
        </clipPath>
    </defs>
</svg>