<svg width="32" height="32" viewBox="0 0 32 32" fill="none" xmlns="http://www.w3.org/2000/svg">
    <g clip-path="url(#clip0_1372_464)">
        <path fill-rule="evenodd" clip-rule="evenodd"
            d="M14 -0.0799561C15.0133 -0.0799561 16.0267 -0.0799561 17.04 -0.0799561C17.04 -0.0266228 17.04 0.0267107 17.04 0.0800439C15.4315 0.0815939 13.8315 0.18826 12.24 0.400044C12.8305 0.257098 13.4172 0.097099 14 -0.0799561Z"
            fill="#44438D" />
        <path fill-rule="evenodd" clip-rule="evenodd"
            d="M17.0399 0.0799561C21.1066 0.239428 24.5199 1.7861 27.2799 4.71996C26.2666 4.82663 25.2532 4.93328 24.2399 5.03996C24.2665 6.05469 24.2399 7.06802 24.1599 8.07996C22.6044 6.39157 20.7111 5.27157 18.4799 4.71996C18.413 4.6045 18.3065 4.5245 18.1599 4.47996C16.9047 4.34839 15.6781 4.37504 14.4799 4.55996C9.46187 5.49701 6.23522 8.43034 4.79992 13.36C4.57621 14.8475 4.52288 16.3408 4.63992 17.84C4.95807 19.275 5.41139 20.6616 5.99992 22C5.97429 22.2718 6.00096 22.5385 6.07992 22.8C6.35407 23.0204 6.56739 23.2872 6.71992 23.6C6.79984 24.5585 6.82651 25.5185 6.79992 26.48C5.78659 26.48 4.77325 26.48 3.75992 26.48C1.61634 23.9886 0.336331 21.1086 -0.0800781 17.84C-0.0800781 16.72 -0.0800781 15.6 -0.0800781 14.48C0.214295 11.6776 1.17429 9.1176 2.79992 6.79996C2.91815 6.82092 3.02482 6.79424 3.11992 6.71996C3.71567 6.05176 4.30232 5.38509 4.87992 4.71996C4.97368 4.75344 5.05368 4.80677 5.11992 4.87996C5.30171 4.52108 5.43504 4.14775 5.51992 3.75996C7.39869 1.96722 9.63869 0.847226 12.2399 0.399956C13.8315 0.188172 15.4315 0.081506 17.0399 0.0799561Z"
            fill="#2F3192" />
        <path fill-rule="evenodd" clip-rule="evenodd"
            d="M14.48 4.56C15.6782 4.37509 16.9048 4.34843 18.16 4.48C18.3065 4.52454 18.4131 4.60454 18.48 4.72C17.152 4.58059 15.8187 4.52725 14.48 4.56Z"
            fill="#7D7EAF" />
        <path fill-rule="evenodd" clip-rule="evenodd"
            d="M27.28 4.71997C27.4062 4.76522 27.513 4.84522 27.6 4.95997C26.4813 5.03991 25.3613 5.06658 24.24 5.03997C25.2533 4.9333 26.2667 4.82664 27.28 4.71997Z"
            fill="#7477B4" />
        <path fill-rule="evenodd" clip-rule="evenodd"
            d="M5.52005 3.76001C5.43517 4.1478 5.30184 4.52113 5.12005 4.88001C5.05381 4.80683 4.97381 4.7535 4.88005 4.72001C4.30245 5.38515 3.71579 6.05182 3.12005 6.72001C3.02494 6.7943 2.91827 6.82097 2.80005 6.80001C3.53334 5.63958 4.44 4.62625 5.52005 3.76001Z"
            fill="#3E3A86" />
        <path fill-rule="evenodd" clip-rule="evenodd"
            d="M31.92 14.48C31.92 15.6 31.92 16.72 31.92 17.84C30.9024 24.113 27.4892 28.5664 21.68 31.2C20.793 31.3919 19.9397 31.6319 19.12 31.92C16.9868 31.92 14.8534 31.92 12.72 31.92C11.3043 31.608 9.91767 31.1547 8.56004 30.56C7.30052 29.8351 6.12719 28.9818 5.04004 28C6.10537 27.92 7.17204 27.8935 8.24004 27.92C8.24004 26.96 8.24004 26 8.24004 25.04C8.71847 25.2195 9.14514 25.513 9.52004 25.92C13.1198 28.0338 16.8532 28.3005 20.72 26.72C23.4655 25.3603 25.3855 23.2538 26.48 20.4C27.7157 16.8475 27.4224 13.4343 25.6 10.16C25.52 8.88112 25.4935 7.60113 25.52 6.32002C26.6452 6.26717 27.7652 6.3205 28.88 6.48002C30.4408 8.95761 31.4541 11.6243 31.92 14.48Z"
            fill="#2DAAE1" />
        <path fill-rule="evenodd" clip-rule="evenodd"
            d="M6.00001 22C6.37766 22.3541 6.671 22.7806 6.88001 23.28C6.95995 24.3987 6.98662 25.5187 6.96001 26.64C5.86332 26.6918 4.79665 26.6386 3.76001 26.48C4.77334 26.48 5.78668 26.48 6.80001 26.48C6.8266 25.5186 6.79993 24.5586 6.72001 23.6C6.56748 23.2872 6.35415 23.0205 6.08001 22.8C6.00105 22.5386 5.97438 22.2718 6.00001 22Z"
            fill="#48458B" />
    </g>
    <defs>
        <clipPath id="clip0_1372_464">
            <rect width="32" height="32" fill="white" />
        </clipPath>
    </defs>
</svg>