<svg width="32" height="32" viewBox="0 0 33 33" fill="none" xmlns="http://www.w3.org/2000/svg">
    <path fill-rule="evenodd" clip-rule="evenodd"
        d="M0.5 0.5C11.1667 0.5 21.8333 0.5 32.5 0.5C32.5 11.1667 32.5 21.8333 32.5 32.5C21.8333 32.5 11.1667 32.5 0.5 32.5C0.5 21.8333 0.5 11.1667 0.5 0.5Z"
        fill="#FDFDFD" />
    <path fill-rule="evenodd" clip-rule="evenodd"
        d="M14.8645 2.35716C19.3543 1.99647 23.2416 3.3298 26.5267 6.35716C23.8818 5.64923 21.9618 6.554 20.7667 9.07144C20.7193 15.881 20.6718 22.6904 20.6245 29.5C20.0328 30.6936 19.1795 30.9317 18.0645 30.2143C17.9419 29.9876 17.847 29.7494 17.78 29.5C17.7326 26.4047 17.6851 23.3096 17.6378 20.2143C16.3689 15.3239 13.2163 13.1095 8.18001 13.5714C5.78838 14.1648 3.9632 15.5219 2.70445 17.6429C2.51653 10.881 5.47949 6.0953 11.5933 3.28573C12.6898 2.92886 13.7801 2.61933 14.8645 2.35716Z"
        fill="#484846" />
    <path fill-rule="evenodd" clip-rule="evenodd"
        d="M23.1134 29.2143C22.9716 26.6201 22.9242 24.0011 22.9711 21.3571C24.1824 21.4037 25.3676 21.3561 26.5267 21.2143C27.4309 20.9217 27.7391 20.3027 27.4511 19.3571C27.385 19.1527 27.2664 18.9861 27.0956 18.8571C25.6883 18.6501 24.2661 18.5787 22.8289 18.6429C22.8052 15.7377 22.8289 12.8329 22.9 9.92858C23.7585 8.52343 24.754 8.42819 25.8867 9.64286C25.9561 10.5746 26.3117 11.3604 26.9534 12C28.4283 12.2329 29.0683 11.59 28.8734 10.0714C30.0117 12.0236 30.557 14.1426 30.5089 16.4286C30.4394 22.1301 27.9742 26.392 23.1134 29.2143Z"
        fill="#484846" />
    <path fill-rule="evenodd" clip-rule="evenodd"
        d="M9.03333 16.0714C13.284 16.221 15.2514 18.4116 14.9355 22.6428C14.2991 24.9487 12.8058 26.3058 10.4556 26.7143C7.19007 26.9206 5.22267 25.4206 4.55333 22.2143C4.26745 19.9554 5.04967 18.1697 6.9 16.8571C7.58255 16.4626 8.29366 16.2006 9.03333 16.0714Z"
        fill="#474745" />
    <path fill-rule="evenodd" clip-rule="evenodd"
        d="M26.5267 21.2142C25.3676 21.3561 24.1824 21.4037 22.9711 21.3571C22.9242 24.0011 22.9716 26.6201 23.1134 29.2142C23.1048 29.2918 23.0575 29.3394 22.9711 29.3571C22.8289 26.6445 22.7816 23.9302 22.8289 21.2142C24.0616 21.2142 25.2941 21.2142 26.5267 21.2142Z"
        fill="#C0C0C0" />
    <path fill-rule="evenodd" clip-rule="evenodd"
        d="M14.8644 27.5C14.9785 27.7074 15.0496 27.9454 15.0778 28.2143C15.1487 29.0701 15.1725 29.9273 15.1489 30.7857C13.5097 30.7207 11.9927 30.2684 10.5978 29.4286C12.2167 29.182 13.6389 28.5391 14.8644 27.5Z"
        fill="#4B4B49" />
</svg>