<svg width="32" height="32" viewBox="0 0 33 32" fill="none" xmlns="http://www.w3.org/2000/svg">
    <path fill-rule="evenodd" clip-rule="evenodd"
        d="M9.77973 25.314C8.44068 25.314 7.35132 26.8135 7.35132 28.657C7.35132 30.5002 8.44068 32 9.77973 32C11.1188 32 12.208 30.5002 12.208 28.657C12.208 26.8135 11.1188 25.314 9.77973 25.314Z"
        fill="#FCB716" />
    <path fill-rule="evenodd" clip-rule="evenodd"
        d="M2.99369 25.314C1.65464 25.314 0.56543 26.8135 0.56543 28.657C0.56543 30.5002 1.65464 32 2.99369 32C4.33259 32 5.42211 30.5002 5.42211 28.657C5.42211 26.8135 4.33259 25.314 2.99369 25.314Z"
        fill="#EE363F" />
    <path fill-rule="evenodd" clip-rule="evenodd"
        d="M16.5656 25.314C15.2264 25.314 14.1372 26.8135 14.1372 28.657C14.1372 30.5002 15.2264 32 16.5656 32C17.9045 32 18.9939 30.5002 18.9939 28.657C18.9939 26.8135 17.9045 25.314 16.5656 25.314Z"
        fill="#07AF56" />
    <path fill-rule="evenodd" clip-rule="evenodd"
        d="M30.1371 25.314C28.7981 25.314 27.7089 26.8135 27.7089 28.657C27.7089 30.5002 28.7981 32 30.1371 32C31.4762 32 32.5654 30.5002 32.5654 28.657C32.5654 26.8135 31.4762 25.314 30.1371 25.314Z"
        fill="#04A9DF" />
    <path fill-rule="evenodd" clip-rule="evenodd"
        d="M23.3515 25.314C22.0125 25.314 20.923 26.8135 20.923 28.6568C20.923 30.5002 22.0123 31.9996 23.3514 31.9996C24.6904 31.9996 25.7796 30.5002 25.7796 28.6568C25.7796 26.8135 24.6906 25.314 23.3515 25.314Z"
        fill="#A1479A" />
    <path fill-rule="evenodd" clip-rule="evenodd"
        d="M7.23657 12.4523C7.23657 5.35663 11.379 0 16.5041 0C21.6638 0 25.771 5.30893 25.771 12.4039V23.3114C25.771 24.4212 25.2098 25.1936 24.3669 25.1936C23.4894 25.1936 22.9628 24.4212 22.9628 23.3114V20.126H22.8225C21.7342 22.6836 19.5577 24.9039 16.328 24.9039C11.3438 24.9039 7.23657 19.5949 7.23657 12.4523ZM23.0332 12.4523C23.0332 7.33626 20.2245 3.47522 16.5041 3.47522C12.7826 3.47522 9.97437 7.33626 9.97437 12.4523C9.97437 17.5676 12.7826 21.4293 16.5041 21.4293C20.2245 21.4293 23.0332 17.5676 23.0332 12.4523Z"
        fill="#5A5B5B" />
</svg>