<svg width="32" height="32" viewBox="0 0 32 32" fill="none" xmlns="http://www.w3.org/2000/svg">
    <g clip-path="url(#clip0_406_45)">
        <path
            d="M27.3198 3.04639H6.54736C4.54938 3.04639 2.92969 4.66608 2.92969 6.66406V27.3198C2.92969 29.3178 4.54938 30.9375 6.54736 30.9375H27.3198C29.3178 30.9375 30.9375 29.3178 30.9375 27.3198V6.66406C30.9375 4.66608 29.3178 3.04639 27.3198 3.04639Z"
            fill="#151D33" />
        <path fill-rule="evenodd" clip-rule="evenodd"
            d="M2.87314 0.157227C1.37318 0.157227 0.157227 1.37318 0.157227 2.87314V26.411C0.157227 26.991 0.338994 27.5285 0.648667 27.9696C0.689667 28.0462 0.742486 28.1182 0.807123 28.1828L0.877636 28.2533C0.926642 28.3064 0.977742 28.3575 1.0308 28.4065L3.74936 31.1251C3.83705 31.2128 3.93826 31.2787 4.04627 31.3229C4.4947 31.6496 5.04695 31.8423 5.64422 31.8423H29.1813C30.6817 31.8423 31.8981 30.626 31.8981 29.1255V5.5885C31.8981 4.6504 31.4226 3.82336 30.6995 3.3352L28.4913 1.127C28.3898 1.00621 28.2779 0.894374 28.1572 0.792874L28.1149 0.750599C28.0317 0.667424 27.9364 0.603817 27.8346 0.559778C27.4207 0.304505 26.9331 0.157227 26.411 0.157227H2.87314ZM29.5778 4.77411L29.7768 4.97313C29.8299 5.02616 29.8878 5.07122 29.9492 5.10834C30.0364 5.24754 30.0869 5.41213 30.0869 5.5885V29.1255C30.0869 29.6257 29.6814 30.0312 29.1813 30.0312H5.64422C5.14408 30.0312 4.73864 29.6257 4.73864 29.1255V5.5885C4.73864 5.10122 5.12349 4.70384 5.60581 4.68371H29.1269V4.68291H29.1813C29.3235 4.68291 29.4581 4.71569 29.5778 4.77411Z"
            fill="url(#paint0_linear_406_45)" />
        <path fill-rule="evenodd" clip-rule="evenodd"
            d="M8.41711 25.2946C8.46586 25.3228 8.51455 25.3475 8.56317 25.3688C8.70942 25.4376 8.87955 25.472 9.07367 25.472H17.1567C17.4772 25.4717 17.7417 25.3677 17.9501 25.1604C18.1589 24.9526 18.2633 24.6809 18.2633 24.3452C18.2633 24.0256 18.2457 23.7619 18.037 23.5541C17.8282 23.3463 17.5632 23.2424 17.2419 23.2424H17.1805H10.903L17.0957 12.5165L24.1569 24.7469C24.1812 24.7981 24.2095 24.8471 24.2417 24.8939L24.2443 24.8983C24.4049 25.1765 24.6274 25.3541 24.9117 25.431C25.196 25.5079 25.4835 25.4624 25.7742 25.2946C26.0369 25.143 26.2089 24.9352 26.2904 24.6711C26.3425 24.5351 26.3686 24.3849 26.3686 24.2206V18.5113V15.8271C26.3686 15.4757 26.2604 15.1997 26.044 14.9989C25.8275 14.7814 25.5529 14.6727 25.2199 14.6727C24.8702 14.6727 24.5872 14.7814 24.3708 14.9989C24.1544 15.1997 24.0461 15.4757 24.0461 15.8271V18.5113V20.0959L18.0683 9.74193C17.8997 9.44986 17.6772 9.2723 17.4009 9.2093C17.2987 9.18161 17.1969 9.16924 17.0957 9.17218C16.9944 9.16924 16.8927 9.18161 16.7904 9.2093C16.5141 9.2723 16.2917 9.44986 16.123 9.74193L8.01617 23.7835C7.85555 24.0617 7.81299 24.3431 7.88855 24.6278C7.96411 24.9126 8.1403 25.1348 8.41711 25.2946ZM24.121 11.8369C24.4207 12.1381 24.7787 12.2886 25.1949 12.2886C25.6278 12.2886 25.994 12.1381 26.2937 11.8369C26.5934 11.5357 26.7432 11.1677 26.7432 10.7327C26.7432 10.2977 26.5851 9.93799 26.2687 9.65355C25.9691 9.35243 25.6194 9.20186 25.2199 9.20186C24.8037 9.20186 24.4374 9.35243 24.121 9.65355C23.8214 9.93799 23.6715 10.2977 23.6715 10.7327C23.6715 11.1677 23.8214 11.5357 24.121 11.8369Z"
            fill="url(#paint1_linear_406_45)" />
    </g>
    <defs>
        <linearGradient id="paint0_linear_406_45" x1="0.157227" y1="0.157227" x2="34.8251"
            y2="35.3452" gradientUnits="userSpaceOnUse">
            <stop stop-color="#327DFF" />
            <stop offset="1" stop-color="#57C3FF" />
        </linearGradient>
        <linearGradient id="paint1_linear_406_45" x1="7.8523" y1="9.1718" x2="25.4612" y2="29.8493"
            gradientUnits="userSpaceOnUse">
            <stop stop-color="#327DFF" />
            <stop offset="1" stop-color="#57C3FF" />
        </linearGradient>
        <clipPath id="clip0_406_45">
            <rect width="32" height="32" fill="white" />
        </clipPath>
    </defs>
</svg>