<svg width="32" height="32" viewBox="0 0 32 32" fill="none" xmlns="http://www.w3.org/2000/svg">
<g clip-path="url(#clip0_20_4709)">
<mask id="mask0_20_4709" style="mask-type:luminance" maskUnits="userSpaceOnUse" x="0" y="1" width="33" height="30">
<path d="M0.168457 8.85621L26.3061 1.85266L32.0164 23.164L5.87884 30.1676L0.168457 8.85621Z" fill="white"/>
</mask>
<g mask="url(#mask0_20_4709)">
<path d="M22.6654 16.6029C23.6675 16.3581 25.9111 15.4176 27.2868 15.1483C28.3288 14.9441 29.4173 15.2668 29.8216 16.0082C30.1702 16.6471 29.8009 17.5208 28.4209 18.2532C26.8872 19.067 27.5204 21.0762 24.1547 21.4887C20.789 21.9012 16.812 16.5485 16.812 16.5485C16.812 16.5485 19.9256 17.269 22.6654 16.6029Z" fill="#981E1F"/>
<path d="M26.2057 21.0414C26.863 20.627 27.1785 20.0909 27.4712 19.5934C27.7535 19.1109 27.9981 18.6966 28.5128 18.4245C29.3697 17.9699 29.9127 17.428 30.0841 16.8573C30.1844 16.5429 30.1519 16.2011 29.994 15.9114C29.7746 15.5093 29.3801 15.204 28.8538 15.0335C28.3339 14.8725 27.7818 14.8445 27.2483 14.9523C26.4295 15.1135 25.3175 15.5034 24.3365 15.8487C23.6624 16.0875 23.0241 16.3103 22.6176 16.4093C19.9551 17.0599 16.8875 16.3638 16.8566 16.3569L16.3342 16.2359L16.6541 16.6664C17.3881 17.6177 18.2022 18.5044 19.0876 19.3168C19.9216 20.0738 20.731 20.6607 21.4945 21.0612C22.4661 21.5703 23.369 21.7794 24.1767 21.6792C25.101 21.567 25.7391 21.3349 26.2057 21.0414ZM28.1803 18.1619C27.6657 18.4863 27.3944 18.9467 27.1316 19.3932C26.6553 20.2032 26.1625 21.0408 24.1295 21.2885C21.455 21.6146 18.3051 18.0757 17.2964 16.8424C18.3101 17.0183 20.6014 17.3053 22.7109 16.79C23.1358 16.686 23.7526 16.4696 24.4669 16.2183C25.4354 15.8781 26.5323 15.4906 27.3234 15.3367C28.3229 15.1409 29.3002 15.4609 29.6475 16.0978C29.7549 16.2955 29.7753 16.5289 29.704 16.7423C29.5659 17.203 29.0761 17.6766 28.3255 18.0748C28.2774 18.1033 28.2277 18.1347 28.1803 18.1619Z" fill="#221F1F"/>
<path d="M16.6414 16.7722C16.6414 16.7722 19.3182 17.3917 22.4942 16.8243C23.5096 16.6423 25.7482 15.6786 27.1156 15.3698C28.2051 15.1238 29.573 15.4047 29.7442 16.3887C29.7442 16.3887 29.3688 14.8683 25.7977 16.3123C25.2146 16.5481 23.2099 17.3462 21.8129 17.5485C19.9606 17.8176 17.6277 17.6726 16.6414 16.7722Z" fill="#C32727"/>
<path d="M17.1123 25.1676L15.5213 24.8522L14.1632 24.2845L13.3055 23.6367L12.3911 22.6966L11.7272 21.5726L11.4211 20.7467L11.3711 20.3498L12.1746 20.3095L13.1064 20.1888L14.0617 19.9753L15.113 19.6146L16.3333 18.9743L17.0301 18.3383L17.8156 17.6106L18.4468 17.6018L20.3134 17.7573L21.3449 18.0191L22.0962 18.3502L22.8318 18.9307L23.2152 19.5394L23.2195 20.2258L22.8867 20.6149L22.5161 21.0321L22.5166 21.7631L22.5298 22.4692L20.4846 24.8492L19.619 25.0782L18.3743 25.2136L17.1123 25.1676Z" fill="#9B612F"/>
<path d="M11.3104 19.8547C9.61425 19.8954 7.00468 19.4205 5.29649 19.4226C4.75013 19.4225 4.033 19.4554 3.69082 19.9568C3.38357 20.4088 3.55637 20.9931 3.94351 21.3794C4.16639 21.6033 4.47263 21.7241 4.78837 21.7127C6.76715 21.6422 12.3476 22.5933 12.3476 22.5933" fill="#9B612F"/>
<path d="M11.4653 20.4322C9.23579 20.4583 7.19245 20.1468 5.57275 20.1321C5.05423 20.1275 4.37308 20.1513 4.0441 20.6242C3.90111 20.8329 3.85401 21.0927 3.91464 21.3383C3.55383 20.9526 3.39854 20.3927 3.69637 19.9554C4.0386 19.4539 4.75574 19.421 5.30209 19.4212C7.01028 19.4191 8.65558 19.8158 11.316 19.8533" fill="#824E20"/>
<path d="M5.16073 21.7089C5.19419 21.6854 5.22619 21.66 5.25651 21.6326C5.83666 21.0517 5.8174 20.0903 5.24207 19.4227L5.18858 19.4225C5.14692 19.4232 5.10459 19.4235 5.06142 19.4252L4.96334 19.43C4.9232 19.432 4.88356 19.4339 4.84376 19.437C4.8039 19.4401 4.77196 19.4446 4.73687 19.4482C4.70184 19.4518 4.66063 19.4564 4.6242 19.4616C4.58782 19.4667 4.54958 19.4757 4.51371 19.483C4.47789 19.4903 4.44326 19.4955 4.40856 19.5048C4.37387 19.5141 4.3321 19.5253 4.29516 19.5393C4.25822 19.5532 4.23116 19.5564 4.20062 19.5704C4.17008 19.5844 4.1259 19.6061 4.08851 19.6248C4.06156 19.6367 4.03523 19.65 4.00963 19.6646C3.97061 19.6896 3.93311 19.7169 3.89729 19.7464C3.87837 19.7625 3.85703 19.774 3.83884 19.7905C3.78523 19.8399 3.73746 19.8952 3.69642 19.9554C3.38917 20.4074 3.56202 20.9917 3.94916 21.3779C4.18169 21.6103 4.48952 21.7027 4.79402 21.7112C4.91736 21.7072 5.04059 21.7073 5.16073 21.7089Z" fill="#D9AD81"/>
<path d="M3.85749 19.7756C3.89606 19.7423 3.9371 19.7118 3.98016 19.6846C3.98959 19.6786 3.99739 19.6707 4.00694 19.6652C4.03254 19.6506 4.05887 19.6374 4.08581 19.6255L4.09502 19.623C4.12988 19.6056 4.16318 19.5867 4.19781 19.5728C4.22257 19.5633 4.24845 19.5558 4.27422 19.5477C4.31739 19.5332 4.36046 19.5182 4.40576 19.5072C4.4399 19.498 4.47442 19.4923 4.50928 19.4859L4.53208 19.4797C4.56245 19.4716 4.59405 19.466 4.62544 19.4617L4.72682 19.4497C4.76517 19.4452 4.80351 19.4407 4.83995 19.438C4.87638 19.4352 4.91529 19.4329 4.95436 19.4311L5.04621 19.4269L5.05704 19.4239L5.14894 19.422L5.2249 19.4214C5.22917 19.4209 5.2335 19.4209 5.23771 19.4215C5.41438 19.6282 5.54226 19.872 5.61199 20.1348C5.59672 20.1343 5.58117 20.1327 5.56601 20.1327C5.0475 20.1281 4.36635 20.1519 4.03737 20.6248C3.89438 20.8335 3.84727 21.0933 3.90791 21.3389C3.81842 21.2437 3.74184 21.1373 3.68009 21.0221L3.67874 21.0173C3.64994 20.9634 3.62508 20.9076 3.6043 20.8501C3.60211 20.8419 3.59998 20.8338 3.59779 20.8257C3.58049 20.7752 3.56663 20.7235 3.55635 20.6712C3.55203 20.6549 3.55265 20.6379 3.55046 20.621C3.54299 20.5774 3.53839 20.5334 3.53671 20.4893C3.53598 20.4627 3.54019 20.4372 3.54176 20.4106C3.54339 20.384 3.54468 20.3412 3.54995 20.3067C3.55759 20.2704 3.56741 20.2346 3.57932 20.1994C3.58684 20.1753 3.59077 20.151 3.60021 20.1276C3.62463 20.0671 3.65533 20.0094 3.69182 19.9554C3.7332 19.8948 3.78148 19.8391 3.83571 19.7896C3.84239 19.7841 3.84974 19.7794 3.85749 19.7756Z" fill="#F7D4B0"/>
<path d="M5.62784 19.7348C5.55413 19.5871 5.46279 19.4488 5.3559 19.323C5.32772 19.2905 5.2869 19.2718 5.2439 19.2716L5.18591 19.272L4.98296 19.2782L4.8325 19.2871L4.75733 19.295L4.71994 19.2987L4.60278 19.3126C4.56555 19.3191 4.53136 19.326 4.49785 19.3331C4.43419 19.345 4.40219 19.3513 4.37058 19.3591C4.33897 19.367 4.2995 19.3782 4.26296 19.3915L4.25706 19.5494L4.21327 19.4077C4.18885 19.4145 4.16488 19.4227 4.14136 19.4322C4.10717 19.4454 4.075 19.4621 4.04272 19.4784L4.05726 19.6366L3.99506 19.5022C3.97097 19.5127 3.94762 19.5247 3.92516 19.5383C3.88721 19.5624 3.85078 19.5886 3.81602 19.617L3.86487 19.7667L3.77948 19.6454C3.76387 19.6556 3.74905 19.6669 3.73507 19.6794C3.67219 19.7366 3.61633 19.8011 3.56867 19.8716C3.33715 20.2115 3.32412 20.6444 3.53184 21.0596C3.61089 21.2161 3.71469 21.3588 3.83921 21.4822C4.07657 21.7174 4.40224 21.8481 4.78478 21.8595C4.91845 21.8551 5.03854 21.8543 5.15581 21.856C5.18877 21.8565 5.22094 21.846 5.24727 21.8263C5.28656 21.7998 5.32373 21.7705 5.35854 21.7383C5.86722 21.2312 5.97462 20.426 5.62784 19.7348ZM5.16182 19.5575C5.23901 19.6536 5.30588 19.7577 5.36123 19.8679C5.65069 20.4447 5.56564 21.1121 5.14992 21.5281C5.13774 21.5394 5.12482 21.55 5.11135 21.5599C5.00485 21.5593 4.89616 21.5594 4.78473 21.5643C4.58133 21.5578 4.27873 21.5022 4.04951 21.2736C3.94812 21.1725 3.86335 21.0559 3.79834 20.9283C3.6398 20.6122 3.64609 20.2885 3.81535 20.0397C3.84993 19.9886 3.89047 19.9419 3.93611 19.9004C3.93993 19.8994 3.98456 19.8642 3.98882 19.8607C4.01858 19.8362 4.04974 19.8134 4.08219 19.7927C4.09448 19.7852 4.10728 19.7787 4.12053 19.7731L4.17959 19.7439C4.20362 19.7317 4.22708 19.7196 4.25223 19.7093C4.26829 19.703 4.28468 19.6974 4.3013 19.6927L4.33869 19.6827C4.38512 19.6673 4.41291 19.6581 4.44126 19.6511C4.46961 19.6442 4.49274 19.6374 4.51941 19.6348C4.51941 19.6348 4.55522 19.6252 4.55629 19.625L4.64533 19.6081L5.15391 19.5712L5.16182 19.5575Z" fill="#221F1F"/>
<path d="M12.4576 22.7602C12.5266 22.7166 12.5615 22.635 12.5454 22.555C12.5294 22.475 12.4658 22.4132 12.3854 22.3995C12.3719 22.3972 10.9683 22.1585 9.3411 21.9313C7.14943 21.6258 5.61804 21.4852 4.7839 21.5152C4.52257 21.5235 4.26949 21.4229 4.08524 21.2374C3.79078 20.9431 3.59322 20.4509 3.85596 20.0649C4.1187 19.6789 4.70811 19.6163 5.29927 19.6165C6.06497 19.6154 6.88047 19.7067 7.74441 19.803C8.788 19.9191 9.97127 20.0514 11.3126 20.0488C11.3843 20.0507 11.4512 20.0135 11.4876 19.9518C11.5239 19.89 11.5239 19.8133 11.4874 19.7516C11.451 19.6899 11.3839 19.6529 11.3122 19.6548C9.99356 19.6595 8.82169 19.5266 7.7882 19.4111C6.91297 19.3138 6.0867 19.2213 5.29675 19.2232C4.82651 19.2231 3.95073 19.2235 3.5281 19.8435C3.1944 20.3334 3.30842 21.0212 3.80223 21.5172C4.06418 21.7791 4.42303 21.9205 4.79322 21.9079C6.72883 21.8391 12.2588 22.7775 12.3142 22.787C12.3637 22.797 12.4151 22.7874 12.4576 22.7602Z" fill="#221F1F"/>
<path d="M22.3193 22.1351C23.5195 23.3346 24.0088 23.6684 25.7153 23.6663C26.2611 23.6665 26.9787 23.6334 27.3209 23.132C27.6282 22.68 27.4553 22.0957 27.0682 21.7095C26.8453 21.4854 26.5391 21.3644 26.2232 21.3757C24.9984 21.4148 23.7728 21.3268 22.5662 21.1129" fill="#824E20"/>
<path d="M22.3192 22.1351C23.4476 23.2858 23.8233 22.9416 25.4452 22.9557C25.9637 22.9603 26.6448 22.9365 26.9738 22.4636C27.117 22.2547 27.1643 21.9947 27.1037 21.7488C27.4645 22.1345 27.6193 22.6946 27.3219 23.1317C26.9797 23.6331 26.2621 23.6661 25.7163 23.666C24.008 23.668 23.3513 23.8503 22.1511 22.6509" fill="#824E20"/>
<path d="M25.8541 21.3798C25.8206 21.4032 25.7886 21.4287 25.7583 21.4561C25.1779 22.0364 25.1974 22.9983 25.7727 23.666L25.8262 23.6662C25.8679 23.6655 25.9102 23.6652 25.9527 23.6631C25.9856 23.6624 26.0188 23.6605 26.0515 23.6587C26.0841 23.657 26.1312 23.6548 26.1711 23.6517C26.2109 23.6486 26.2427 23.6436 26.2778 23.64L26.3906 23.6272C26.429 23.6209 26.4657 23.6128 26.5011 23.6057C26.5364 23.5985 26.5714 23.5926 26.6062 23.5839C26.6411 23.5751 26.6827 23.5634 26.7189 23.549C26.7552 23.5347 26.7835 23.5317 26.814 23.5178C26.8446 23.5038 26.8889 23.4826 26.9263 23.4639C26.9518 23.4506 26.978 23.4401 27.0051 23.4241C27.0442 23.3991 27.0817 23.3718 27.1175 23.3423C27.1364 23.3262 27.1576 23.3141 27.1758 23.2976C27.2295 23.2485 27.2774 23.1934 27.3183 23.1333C27.6256 22.6813 27.4527 22.097 27.0657 21.7108C26.833 21.4779 26.5252 21.386 26.2206 21.377C26.0963 21.3794 25.9742 21.3813 25.8541 21.3798Z" fill="#D9AD81"/>
<path d="M27.1574 23.313C27.1188 23.3463 27.0779 23.3767 27.0347 23.404C27.0253 23.41 27.0176 23.4179 27.008 23.4233C26.9836 23.4386 26.9568 23.4493 26.9291 23.4631L26.9199 23.4656C26.8849 23.4825 26.8516 23.5013 26.8171 23.5157C26.7923 23.5253 26.7637 23.5335 26.7406 23.5403C26.6975 23.5554 26.6543 23.5699 26.6092 23.5814C26.575 23.5905 26.5405 23.5962 26.5056 23.6027L26.4828 23.6088C26.4525 23.617 26.4207 23.622 26.3893 23.6263C26.3579 23.6307 26.3223 23.6344 26.288 23.6384C26.2535 23.6423 26.2114 23.6478 26.1748 23.6501C26.1382 23.6523 26.0995 23.6551 26.0605 23.6574L25.9687 23.6617L25.9566 23.662L25.8654 23.6644L25.7894 23.665C25.7852 23.6652 25.7809 23.6652 25.7766 23.665C25.6 23.4582 25.4721 23.2144 25.4023 22.9515C25.4176 22.9521 25.4332 22.9537 25.4483 22.9538C25.9668 22.9584 26.648 22.9345 26.977 22.4616C27.1186 22.2528 27.1648 21.9936 27.1038 21.7488C27.1934 21.8438 27.27 21.9503 27.3317 22.0655L27.333 22.0704C27.3619 22.1242 27.3868 22.1801 27.4075 22.2376C27.4096 22.2457 27.4118 22.2539 27.4139 22.2615C27.4311 22.312 27.445 22.3636 27.4553 22.416C27.4598 22.4328 27.4585 22.45 27.4613 22.4667C27.4687 22.51 27.4733 22.5539 27.4749 22.5978C27.4757 22.6244 27.4716 22.6505 27.47 22.6771C27.4689 22.7119 27.466 22.7466 27.4613 22.7811C27.4535 22.8174 27.4437 22.8532 27.4319 22.8884C27.4244 22.9125 27.4204 22.9368 27.411 22.9602C27.3864 23.0206 27.3557 23.0782 27.3194 23.1324C27.2778 23.1929 27.2296 23.2485 27.1755 23.2983L27.1574 23.313Z" fill="#F7D4B0"/>
<path d="M25.3868 23.3538C25.4608 23.5009 25.5524 23.6383 25.6597 23.7631C25.6879 23.7957 25.7288 23.8146 25.7718 23.815L25.8299 23.8146L26.0328 23.8084L26.1833 23.7995L26.2585 23.7915L26.2957 23.7874L26.413 23.774C26.4502 23.7675 26.4844 23.7607 26.5179 23.7534C26.5816 23.7416 26.6136 23.7353 26.6452 23.7274C26.6768 23.7196 26.7162 23.7084 26.7501 23.6959L26.7559 23.5374L26.7998 23.6797C26.8248 23.673 26.8486 23.6666 26.8717 23.6551C26.9054 23.6414 26.9383 23.6258 26.9702 23.6084L26.9557 23.4502L27.018 23.5851C27.042 23.5744 27.0653 23.5623 27.0879 23.549C27.1258 23.5248 27.1622 23.4983 27.1969 23.4698L27.1482 23.3206L27.2336 23.4419C27.2492 23.4315 27.2639 23.42 27.2778 23.4074C27.3406 23.3501 27.3965 23.2856 27.4443 23.2152C27.676 22.8759 27.6888 22.4423 27.4805 22.0273C27.4015 21.8709 27.2979 21.7282 27.1737 21.6045C26.9365 21.3699 26.6107 21.2387 26.2283 21.2278C26.0946 21.2322 25.9745 21.233 25.8571 21.2308C25.8242 21.2303 25.792 21.2407 25.7657 21.2605C25.7265 21.2871 25.6893 21.3165 25.6544 21.3484C25.1468 21.8576 25.0398 22.6622 25.3868 23.3538ZM25.8527 23.5312C25.7753 23.435 25.7084 23.3307 25.6532 23.2203C25.3639 22.6439 25.449 21.9766 25.8647 21.5606C25.8767 21.5489 25.8895 21.5381 25.9031 21.5282C26.0097 21.5293 26.1182 21.5287 26.2298 21.5244C26.4326 21.5282 26.7357 21.5858 26.9649 21.8145C27.0663 21.9158 27.151 22.0326 27.2157 22.1605C27.3748 22.4765 27.368 22.8003 27.199 23.0484C27.1645 23.0996 27.124 23.1465 27.0785 23.1883L27.0256 23.2274C26.9959 23.2521 26.9648 23.275 26.9324 23.296C26.92 23.3032 26.9072 23.3097 26.894 23.3155L26.8349 23.3442C26.8113 23.3572 26.7871 23.3689 26.7623 23.3793C26.746 23.3837 26.7293 23.3882 26.7133 23.3959C26.7133 23.3959 26.677 23.4057 26.6759 23.406C26.6287 23.4186 26.6017 23.4305 26.5734 23.4375C26.545 23.4445 26.5184 23.4493 26.495 23.4532C26.495 23.4532 26.4592 23.4628 26.4582 23.4631L26.3686 23.4802L25.8604 23.5163L25.8527 23.5312Z" fill="#221F1F"/>
<path d="M27.1296 23.5802C27.2687 23.4935 27.3884 23.3792 27.4813 23.2442C27.8148 22.7538 27.701 22.0665 27.2072 21.5705C26.945 21.3087 26.5863 21.1671 26.216 21.1793C25.0067 21.2169 23.7968 21.13 22.6052 20.9199C22.5361 20.9062 22.465 20.9305 22.4186 20.9834C22.3722 21.0364 22.3576 21.1101 22.3804 21.1767C22.4031 21.2434 22.4596 21.2929 22.5287 21.3066C23.7502 21.5257 24.9912 21.6158 26.2316 21.5756C26.4928 21.5674 26.7459 21.668 26.9302 21.8534C27.2247 22.1476 27.4217 22.64 27.1589 23.026C26.8962 23.412 26.3072 23.4739 25.7162 23.4742C25.2182 23.4745 24.8129 23.5587 24.4557 23.6329C23.58 23.8141 23.0972 23.9144 22.2334 22.5429C22.1736 22.4553 22.0552 22.4307 21.9655 22.4873C21.8758 22.5439 21.8469 22.6613 21.9003 22.7531C22.911 24.356 23.627 24.2083 24.5358 24.0189C24.8751 23.9489 25.2589 23.8693 25.7161 23.8688C26.078 23.8637 26.6824 23.8633 27.1296 23.5802Z" fill="#221F1F"/>
<path d="M6.49138 14.6672C6.50362 15.4774 6.02654 16.2151 5.28268 16.5364C4.53882 16.8576 3.67471 16.6991 3.09332 16.1347C2.51193 15.5703 2.32779 14.7113 2.62679 13.9582C2.92579 13.2052 3.64905 12.7064 4.45921 12.6946C4.99041 12.6863 5.50303 12.8896 5.88422 13.2597C6.26542 13.6297 6.4838 14.1361 6.49138 14.6672Z" fill="#F7D4B0"/>
<path d="M6.54179 14.8722C6.55212 15.5778 6.13629 16.2202 5.48831 16.4998C4.84034 16.7793 4.08773 16.641 3.58151 16.1493C3.07523 15.6576 2.91502 14.9094 3.17556 14.2535C3.43605 13.5977 4.066 13.1633 4.77168 13.153C5.23445 13.1461 5.68093 13.3234 6.01295 13.6458C6.34496 13.9682 6.53516 14.4094 6.54179 14.8722Z" fill="#D9AD81"/>
<path d="M6.68838 14.665C6.67564 13.7755 6.12827 12.9813 5.30149 12.6529C4.47477 12.3244 3.53161 12.5264 2.91193 13.1647C2.2922 13.8029 2.11811 14.7517 2.47078 15.5683C2.82346 16.385 3.63345 16.9088 4.52294 16.8953C4.62006 16.8939 4.71702 16.8862 4.81318 16.8721C5.90197 16.7084 6.70276 15.766 6.68838 14.665ZM4.46399 12.8903C5.19539 12.8793 5.86132 13.3101 6.15123 13.9816C6.4412 14.6531 6.29798 15.4332 5.78845 15.958C5.27892 16.4828 4.5034 16.6489 3.8236 16.379C3.14379 16.109 2.6936 15.456 2.68299 14.7246C2.67064 13.8188 3.32956 13.0432 4.22545 12.9089C4.30438 12.8972 4.38399 12.8906 4.46371 12.8892L4.46399 12.8903Z" fill="#221F1F"/>
<path d="M20.7451 14.8629C20.7612 15.9686 19.8781 16.8781 18.7725 16.8945C17.6668 16.9108 16.7571 16.0279 16.7405 14.9223C16.7238 13.8166 17.6066 12.9067 18.7122 12.8899C19.2435 12.8819 19.7561 13.0853 20.1374 13.4553C20.5186 13.8254 20.7372 14.3317 20.7451 14.8629Z" fill="#D9AD81"/>
<path d="M20.9403 14.8601C20.9222 13.6464 19.9238 12.6771 18.7101 12.6951C17.4964 12.713 16.5271 13.7114 16.5449 14.925C16.5628 16.1387 17.5611 17.1082 18.7748 17.0904C18.8719 17.0888 18.9688 17.0809 19.0648 17.0667C20.1537 16.9033 20.9546 15.961 20.9403 14.8601ZM18.7157 13.0848C19.6897 13.0711 20.4991 13.8323 20.5451 14.8053C20.5912 15.7784 19.8573 16.6125 18.8863 16.6909C17.9154 16.7692 17.0573 16.0634 16.9467 15.0956C16.8362 14.1277 17.5132 13.2466 18.4768 13.1041C18.5559 13.0922 18.6357 13.0858 18.7157 13.0848Z" fill="#221F1F"/>
<path d="M18.2192 11.1104C17.9025 8.43856 14.8576 6.37341 11.1647 6.42832C7.47193 6.48322 4.49183 8.6383 4.25256 11.3178C4.18042 12.111 4.1492 12.9074 4.15897 13.7038C4.16739 14.2775 4.19709 14.8525 4.24728 15.4237C4.32212 16.2714 4.43299 17.0909 4.93231 17.8068C5.06497 17.9976 5.21351 18.1769 5.37643 18.3428C5.96175 18.9352 6.70078 19.3637 7.4694 19.6727C8.39179 20.0355 9.36447 20.2544 10.3534 20.3215C10.6923 20.347 11.0317 20.3572 11.3717 20.352C11.7117 20.3476 12.0514 20.3269 12.3888 20.2911C13.3752 20.1946 14.341 19.9472 15.2523 19.5575C16.0114 19.2257 16.7375 18.7754 17.3047 18.1654C17.4628 17.9947 17.6062 17.8108 17.7334 17.6158C18.2102 16.8859 18.2968 16.0636 18.3469 15.2138C18.3804 14.6406 18.3929 14.0666 18.3841 13.4916C18.3702 12.6955 18.3151 11.9007 18.2192 11.1104Z" fill="#9B612F"/>
<path d="M4.54979 15.9151C4.4996 15.3438 4.4699 14.7688 4.46148 14.1951C4.45165 13.3982 4.48292 12.6012 4.55518 11.8074C4.79282 9.12829 8.15827 6.71945 11.8488 6.66458C14.5921 6.62347 16.5968 8.00778 17.774 9.68997C16.7489 7.74033 14.1707 6.37835 11.1657 6.42332C7.47577 6.47804 4.49281 8.6333 4.25354 11.3128C4.1814 12.106 4.15018 12.9024 4.15995 13.6988C4.16837 14.2725 4.19807 14.8475 4.24826 15.4188C4.32309 16.2664 4.43397 17.0858 4.93328 17.8018C4.95602 17.8346 4.98297 17.8658 5.00677 17.8984C4.70069 17.2853 4.61171 16.6104 4.54979 15.9151Z" fill="#C1855E"/>
<path d="M11.164 6.42562C10.7449 6.43159 11.1376 6.4548 10.74 6.5131C14.17 6.48155 16.1958 8.42223 16.4899 10.9077C16.5798 11.6477 16.6312 12.3919 16.6438 13.1372C16.6525 13.6743 16.6414 14.2115 16.6107 14.7491C16.5641 15.5445 16.4831 16.3136 16.0357 16.9955C15.9169 17.1778 15.7829 17.3498 15.6353 17.5097C15.1036 18.0804 14.425 18.5023 13.7142 18.8125C12.8612 19.177 11.9574 19.4088 11.0342 19.4998C10.7183 19.5329 10.4008 19.5517 10.0816 19.5563C9.76239 19.5609 9.44474 19.5512 9.12879 19.5274C8.2032 19.4647 7.29277 19.2602 6.42933 18.9209C6.12219 18.7972 5.82437 18.6516 5.53833 18.4849C6.09659 19.0002 6.76837 19.388 7.46883 19.6705C8.39127 20.0333 9.36396 20.2522 10.3529 20.3194C10.6918 20.3448 11.0312 20.355 11.3712 20.3499C11.7112 20.3454 12.0509 20.3247 12.3882 20.289C13.3747 20.1924 14.3405 19.945 15.2518 19.5554C16.0108 19.2235 16.737 18.7732 17.3041 18.1633C17.4623 17.9925 17.6057 17.8086 17.7329 17.6137C18.2097 16.8838 18.2962 16.0614 18.3464 15.2116C18.3799 14.6385 18.3923 14.0644 18.3836 13.4894C18.3696 12.6932 18.3145 11.8982 18.2185 11.1077C17.8991 8.4366 14.854 6.3709 11.164 6.42562Z" fill="#824E20"/>
<path d="M15.3297 19.7343C16.2007 19.3539 16.9133 18.87 17.4473 18.2951C17.6124 18.1159 17.7622 17.9234 17.8952 17.7194C18.4002 16.9448 18.4892 16.0968 18.5407 15.2216C18.5733 14.6538 18.5865 14.0696 18.578 13.4849C18.5645 12.6817 18.5091 11.8798 18.4121 11.0825C18.0823 8.30542 14.8968 6.17334 11.1606 6.22884C10.7387 6.23502 10.3176 6.26862 9.90011 6.32944C6.67748 6.80295 4.2745 8.84521 4.05657 11.2964C3.98398 12.097 3.95282 12.9007 3.96309 13.7044C3.97174 14.2834 4.00172 14.8658 4.05191 15.4394C4.12938 16.3119 4.24206 17.1576 4.77354 17.9155C4.91271 18.1158 5.06856 18.3041 5.23934 18.4783C5.79019 19.0351 6.5167 19.4972 7.3976 19.8523C8.33913 20.2226 9.33174 20.4466 10.341 20.5166C10.6819 20.5415 11.0312 20.5525 11.3768 20.5471C11.7223 20.5417 12.0676 20.5224 12.4123 20.4858C12.5625 20.4694 12.7143 20.4502 12.8621 20.4292C13.7118 20.308 14.5416 20.0743 15.3297 19.7343ZM11.1667 6.62066C14.7061 6.56793 17.7181 8.54895 18.0249 11.1298C18.1201 11.9141 18.1747 12.7028 18.1884 13.4928C18.1959 14.0673 18.1836 14.6419 18.1513 15.2004C18.1027 16.0208 18.0216 16.8137 17.5692 17.5069C17.4483 17.6928 17.3119 17.8681 17.1616 18.0311C16.6653 18.5651 15.995 19.0178 15.1737 19.3774C14.2807 19.7588 13.3346 20.001 12.3682 20.0955C12.0381 20.1304 11.7014 20.1515 11.3684 20.1559C11.0354 20.1602 10.6976 20.1513 10.3676 20.1258C9.39866 20.0601 8.44551 19.8461 7.54148 19.4911C6.71005 19.1559 6.028 18.7232 5.51487 18.2051C5.36003 18.0466 5.21856 17.8754 5.09185 17.6936C4.61892 17.0131 4.51259 16.2215 4.44096 15.4054C4.39161 14.8416 4.3608 14.2645 4.35344 13.6992C4.34379 12.9095 4.37489 12.1198 4.44658 11.3332C4.64807 9.06365 6.91428 7.16611 9.95771 6.71794C10.3582 6.65943 10.762 6.62694 11.1667 6.62066Z" fill="#221F1F"/>
<path d="M13.6982 9.51684C11.3044 9.30272 10.4342 11.3608 10.4342 11.3608C10.4342 11.3608 9.59922 9.45273 7.70179 9.60543C6.03037 9.69059 5.14279 11.3344 5.09692 13.2565C5.1095 13.7524 5.15273 15.059 5.19798 15.5467C5.35939 17.2965 6.64309 18.4846 8.2386 18.9707C9.95262 19.4748 11.7763 19.4691 13.4871 18.9541C15.0917 18.4526 16.3647 17.2386 16.467 15.4623C16.4954 14.9671 16.4943 13.6422 16.489 13.1386C16.3746 11.1913 15.403 9.55176 13.6982 9.51684Z" fill="#F7D4B0"/>
<path d="M16.4062 12.4267C16.3876 12.3229 16.366 12.2206 16.3426 12.1199L16.3337 12.0868C15.9864 10.6455 15.0949 9.56333 13.7277 9.51932L13.6974 9.51696C11.3036 9.30284 10.4335 11.361 10.4335 11.361C10.4335 11.361 9.59847 9.45285 7.70103 9.60561C6.50558 9.66669 5.71254 10.5266 5.34033 11.7144C5.76464 10.7992 6.48891 10.1704 7.50393 10.1193C8.18625 10.0679 8.8605 10.2934 9.37452 10.745C9.57809 10.9239 9.76082 11.125 9.91942 11.3447C10.01 11.4658 10.1219 11.5927 10.2869 11.5839C10.482 11.5747 10.4783 11.4437 10.584 11.3044C10.7597 11.071 10.9646 10.861 11.1936 10.6796C11.8497 10.1632 12.6744 9.95677 13.5009 10.0305C14.017 10.0416 14.6884 10.3714 15.0373 10.7627C15.4981 11.2785 15.6106 12.2364 15.6492 12.8945C15.6543 13.3842 15.6556 14.673 15.6283 15.1546C15.5282 16.8832 14.2903 18.0634 12.7289 18.5522C11.0645 19.0526 9.29042 19.058 7.62305 18.5678C7.27044 18.4601 6.93107 18.3131 6.61118 18.1298C7.0955 18.511 7.64759 18.7969 8.2383 18.9725C9.95232 19.4766 11.776 19.4708 13.4868 18.9558C14.6372 18.5965 15.6086 17.8642 16.1096 16.8274C16.1535 16.7354 16.1937 16.6421 16.2302 16.5463C16.2782 16.4227 16.3195 16.2966 16.3539 16.1685C16.3678 16.1142 16.3783 16.0579 16.3896 16.0026C16.4295 15.8254 16.4552 15.6453 16.4667 15.4641C16.4951 14.9689 16.494 13.644 16.4887 13.1403C16.4816 13.0184 16.471 12.8986 16.4571 12.7797C16.4433 12.6608 16.4272 12.5552 16.4091 12.4485C16.408 12.4401 16.4073 12.4333 16.4062 12.4267Z" fill="#D9AD81"/>
<path d="M13.5451 19.1403C15.3976 18.562 16.5628 17.1908 16.6618 15.4735C16.6916 14.9599 16.6883 13.581 16.6841 13.127C16.5504 10.8496 15.3795 9.35586 13.7159 9.32268C13.419 9.29478 13.12 9.30197 12.8248 9.34407C11.476 9.54219 10.739 10.4528 10.4314 10.9537C10.0766 10.3844 9.19224 9.28984 7.69306 9.41026C6.04484 9.49969 4.95358 11.0341 4.90283 13.261C4.91574 13.7777 4.9592 15.0743 5.00501 15.5642C5.15995 17.2553 6.34867 18.5984 8.18289 19.1578C9.05205 19.4173 9.95507 19.5457 10.8621 19.5389C11.3188 19.5382 11.7748 19.5048 12.2267 19.4389C12.6733 19.3742 13.1141 19.2743 13.5451 19.1403ZM7.7167 9.79797C9.44958 9.65795 10.2225 11.3648 10.2547 11.4375C10.2862 11.5088 10.3569 11.5547 10.4348 11.5543C10.5126 11.553 10.5824 11.5063 10.6133 11.435C10.6192 11.4201 11.2512 9.96796 12.8812 9.72824C13.1504 9.69034 13.423 9.68417 13.6935 9.70994C15.4661 9.74643 16.2016 11.5847 16.2934 13.1399C16.2988 13.715 16.2987 14.9838 16.2729 15.4493C16.1833 16.9978 15.1208 18.238 13.4303 18.7683C11.7569 19.2714 9.97326 19.277 8.29674 18.7844C6.61966 18.2736 5.53441 17.0561 5.39361 15.5287C5.34932 15.0488 5.3062 13.7643 5.29334 13.2609C5.33674 11.3621 6.19962 10.0121 7.49231 9.82379C7.56226 9.81144 7.63647 9.80437 7.7167 9.79797Z" fill="#221F1F"/>
<path d="M6.99868 12.7324C6.65785 12.7382 6.38613 13.0191 6.39169 13.3599C6.39724 13.7008 6.67795 13.9726 7.01877 13.9674C7.35966 13.962 7.63171 13.6815 7.6266 13.3407C7.62419 13.1767 7.5566 13.0204 7.43882 12.9063C7.32103 12.7922 7.16266 12.7296 6.99868 12.7324Z" fill="#221F1F"/>
<path d="M13.8351 12.7918C13.4942 12.7976 13.2226 13.0785 13.2281 13.4194C13.2336 13.7602 13.5143 14.0321 13.8552 14.0268C14.196 14.0214 14.4681 13.7409 14.463 13.4001C14.4606 13.2361 14.393 13.0798 14.2752 12.9657C14.1574 12.8516 13.999 12.7891 13.8351 12.7918Z" fill="#221F1F"/>
<path d="M18.6175 23.5577C18.2288 22.7232 17.0306 22.1905 15.8104 22.1309C14.5628 22.0712 13.7505 22.5277 14.1267 23.3958C14.507 24.2726 15.9296 25.1701 17.1899 25.1968C18.4234 25.2238 19.0121 24.4034 18.6175 23.5577Z" fill="#F7D4B0"/>
<path d="M17.6816 25.1952C18.2708 24.9148 18.4883 24.3293 18.2085 23.7301C17.82 22.8961 16.6217 22.3628 15.4017 22.3044C15.091 22.2853 14.7792 22.3088 14.4749 22.3743C14.7894 22.2249 15.2348 22.1585 15.7603 22.1827C16.9815 22.2415 18.1793 22.7749 18.5673 23.609C18.8938 24.3178 18.5321 25.0069 17.6816 25.1952Z" fill="#D9AD81"/>
<path d="M21.5626 19.2678C21.5626 19.2678 21.2914 20.1903 19.6791 20.366C19.1635 20.4222 18.4898 20.526 18.2186 21.0345C18.101 21.2584 18.0846 21.5219 18.1738 21.7586C17.7703 21.4174 17.5505 20.8793 17.7951 20.4105C18.0753 19.8704 18.7823 19.7565 19.327 19.692C21.0229 19.4898 18.9161 19.5423 21.5625 19.2673" fill="#824E20"/>
<path d="M19.457 21.9797C19.4877 21.9525 19.5165 21.9234 19.5435 21.8926C20.0514 21.248 19.9194 20.2953 19.2702 19.6991L19.2141 19.7066C19.1725 19.7119 19.1309 19.7172 19.0886 19.7239C19.0566 19.7284 19.0235 19.735 18.9917 19.74L18.8736 19.7612C18.8382 19.7678 18.8035 19.7771 18.7685 19.7853L18.6592 19.8111C18.6217 19.8211 18.5868 19.8339 18.5522 19.8456C18.5175 19.8572 18.4833 19.864 18.4502 19.8793C18.4171 19.8946 18.3778 19.9109 18.3422 19.9274C18.3065 19.9439 18.2812 19.9536 18.2516 19.9691C18.2221 19.9846 18.1821 20.0133 18.1464 20.0362C18.1229 20.0524 18.0964 20.0665 18.0729 20.085C18.037 20.1144 18.0029 20.1458 17.9708 20.1792C17.9543 20.1976 17.9342 20.2117 17.9182 20.2299C17.8708 20.2852 17.8299 20.3457 17.7962 20.4102C17.5437 20.8952 17.7856 21.4552 18.2134 21.7939C18.4719 21.9972 18.7885 22.053 19.0889 22.0243C19.2151 22.0067 19.3378 21.9919 19.457 21.9797Z" fill="#D9AD81"/>
<path d="M17.9363 20.2124C17.9709 20.1748 18.0081 20.1398 18.0477 20.1075C18.0563 20.1005 18.0633 20.0917 18.072 20.0853C18.0944 20.0671 18.1214 20.0529 18.1455 20.0365L18.154 20.0314C18.1868 20.0104 18.2178 19.9875 18.2535 19.9687C18.2768 19.956 18.302 19.9458 18.3263 19.9346C18.3675 19.9149 18.4087 19.8951 18.452 19.8789C18.4852 19.8659 18.5186 19.8564 18.5524 19.8456L18.5751 19.8395C18.6055 19.8313 18.6352 19.8187 18.6663 19.811C18.6974 19.8033 18.7314 19.7936 18.765 19.7845C18.7986 19.7755 18.8393 19.7646 18.8779 19.759L18.9888 19.7391L19.0795 19.7241L19.0909 19.721L19.1816 19.7083L19.2569 19.6986L19.2694 19.6953C19.4686 19.8799 19.624 20.1068 19.7239 20.3593C19.7086 20.3605 19.6935 20.3605 19.6782 20.3623C19.1627 20.4185 18.489 20.5223 18.2178 21.0308C18.1001 21.2547 18.0838 21.5181 18.173 21.7548C18.0726 21.6709 17.984 21.5741 17.9092 21.4669L17.9079 21.462C17.8733 21.4119 17.8421 21.3594 17.8147 21.305C17.8125 21.2969 17.8103 21.2888 17.8045 21.2822C17.7815 21.234 17.7613 21.1845 17.7439 21.134C17.7394 21.1172 17.7352 21.1015 17.7306 21.0846C17.7182 21.0424 17.7084 20.9994 17.7014 20.9559C17.6978 20.9295 17.699 20.9036 17.6972 20.8774C17.6954 20.8511 17.6919 20.8079 17.6935 20.7726C17.6972 20.7354 17.7031 20.6986 17.711 20.6621C17.7155 20.6377 17.717 20.6129 17.7233 20.5885C17.7404 20.5256 17.7643 20.4647 17.7943 20.4067C17.8289 20.3414 17.8711 20.2804 17.9199 20.2249C17.9251 20.2203 17.9306 20.2161 17.9363 20.2124Z" fill="#F7D4B0"/>
<path d="M19.69 19.9644C19.5991 19.827 19.4918 19.7012 19.3705 19.5897C19.3387 19.5608 19.2961 19.5468 19.2533 19.5514L19.197 19.5583L18.9964 19.5883C18.9292 19.5999 18.8891 19.6065 18.8477 19.6147L18.7738 19.6316L18.738 19.6412L18.6234 19.669C18.5865 19.6789 18.5534 19.6877 18.521 19.7011C18.4593 19.7205 18.4283 19.7306 18.3978 19.7423C18.3672 19.7539 18.3303 19.7702 18.2972 19.7855L18.3099 19.9436L18.2501 19.8074C18.2262 19.8179 18.2039 19.8279 18.1811 19.8404C18.1491 19.8577 18.1191 19.878 18.089 19.8982L18.1219 20.0533L18.0445 19.927C18.0216 19.9402 17.9998 19.955 17.979 19.9713C17.9443 19.9996 17.9112 20.03 17.8802 20.0623L17.9463 20.205L17.847 20.0944C17.8327 20.1066 17.8193 20.1196 17.8069 20.1336C17.7513 20.1987 17.7035 20.27 17.6645 20.3462C17.4751 20.7107 17.5123 21.1425 17.7679 21.5303C17.8644 21.6767 17.9842 21.8064 18.1224 21.9142C18.3839 22.1202 18.7251 22.2113 19.1051 22.1781C19.2379 22.1576 19.3566 22.1432 19.4737 22.131C19.5065 22.1274 19.5372 22.1133 19.5612 22.0907C19.5967 22.0593 19.63 22.0254 19.6606 21.9891C20.1033 21.4224 20.1149 20.6108 19.69 19.9644ZM19.2065 19.8429C19.2948 19.9296 19.3738 20.0253 19.4422 20.1284C19.797 20.6675 19.7907 21.3399 19.4257 21.8021C19.415 21.815 19.4035 21.8271 19.3913 21.8387C19.2852 21.8502 19.1778 21.8639 19.0672 21.8807C18.8645 21.8984 18.5576 21.879 18.3034 21.6785C18.1905 21.5901 18.0926 21.4841 18.0135 21.3645C17.8179 21.0682 17.7897 20.7462 17.9261 20.4807C17.9546 20.4261 17.9892 20.3749 18.0293 20.328L18.0754 20.2831C18.1018 20.2545 18.1299 20.2276 18.1596 20.2024C18.1709 20.194 18.1828 20.1862 18.1951 20.179L18.2506 20.1432C18.2727 20.128 18.2949 20.1133 18.3187 20.1C18.3334 20.092 18.3496 20.0853 18.3656 20.0781L18.4004 20.0624C18.4449 20.0418 18.4711 20.0289 18.4985 20.0186C18.526 20.0084 18.5491 20.0011 18.5749 19.9935L18.6118 19.9837L18.6979 19.9559L19.1988 19.86L19.2065 19.8429Z" fill="#221F1F"/>
<path d="M22.5294 21.2925C22.7865 21.138 23.0121 20.9364 23.1943 20.6982C23.4453 20.3731 23.5302 19.9494 23.4238 19.5527C23.3571 19.2905 23.0877 18.6234 22.0272 18.0909C20.9964 17.5732 19.5489 17.3467 17.7253 17.4169C17.6532 17.417 17.587 17.4565 17.5526 17.5198C17.5182 17.5832 17.5211 17.6602 17.5602 17.7208C17.5992 17.7813 17.6682 17.8157 17.7401 17.8105C19.4971 17.7431 20.8801 17.9572 21.8509 18.4433C22.7911 18.9155 23.002 19.4856 23.0419 19.6499C23.1189 19.9332 23.0572 20.2362 22.8755 20.4669C22.363 21.1703 20.8371 21.7181 19.078 21.8296C18.7654 21.8494 18.5221 21.7874 18.3348 21.6394C18.0077 21.3818 17.7545 20.916 17.9717 20.501C18.1888 20.086 18.765 19.9566 19.352 19.8871C21.0552 19.6841 21.6161 19.4588 21.639 19.4486C21.7044 19.4218 21.7506 19.362 21.7601 19.2918C21.7695 19.2217 21.7408 19.1518 21.6848 19.1086C21.6288 19.0653 21.5539 19.0552 21.4885 19.0821C21.4836 19.0834 20.9373 19.2984 19.3045 19.4929C18.8375 19.5483 17.9682 19.651 17.6212 20.3165C17.3476 20.842 17.5411 21.512 18.0914 21.9458C18.3552 22.1535 18.6949 22.2456 19.104 22.2196C20.2136 22.1525 21.6174 21.867 22.5294 21.2925Z" fill="#221F1F"/>
<path d="M21.3271 24.6596C22.0041 24.2428 22.4949 23.5817 22.698 22.8131C22.8487 22.2437 22.8696 21.6478 22.7591 21.0693C22.7475 20.9968 22.6964 20.9367 22.6266 20.9136C22.5569 20.8904 22.4801 20.9079 22.4273 20.9591C22.3746 21.0103 22.3546 21.0865 22.3757 21.157C22.4707 21.6773 22.4497 22.2122 22.3142 22.7235C22.0164 23.8007 21.208 24.5037 19.9104 24.8148C18.1867 25.2273 16.0725 25.0092 14.5249 24.2591C13.5068 23.7653 11.912 22.1863 11.5657 20.5058C11.5396 20.4039 11.438 20.3405 11.335 20.3618C11.2321 20.383 11.1639 20.4814 11.1801 20.5853C11.5695 22.4722 13.3036 24.1045 14.352 24.614C15.976 25.3995 18.1936 25.6305 20.0009 25.198C20.4696 25.0926 20.9176 24.9108 21.3271 24.6596Z" fill="#221F1F"/>
<path d="M19.1858 23.2032C20.386 24.4026 22.054 24.9861 23.7618 24.9848C24.308 24.9843 25.0258 24.9518 25.3673 24.45C25.6748 23.9985 25.5018 23.4137 25.1147 23.0274C24.8918 22.8034 24.5856 22.6826 24.2698 22.6941C22.291 22.7646 21.5052 22.5562 21.5052 22.5562" fill="#9B612F"/>
<path d="M19.3111 23.051C20.4389 24.2018 21.8695 24.2591 23.491 24.2739C24.0095 24.2785 24.6911 24.2539 25.02 23.781C25.1626 23.5725 25.2096 23.3129 25.1491 23.0676C25.5099 23.4533 25.665 24.0127 25.3672 24.45C25.0257 24.9518 24.3079 24.9843 23.7617 24.9848C22.0539 24.9861 20.5108 24.8951 19.3101 23.6959" fill="#824E20"/>
<path d="M23.9008 22.697C23.8672 22.7203 23.8352 22.746 23.8052 22.7738C23.2248 23.3542 23.2449 24.316 23.8196 24.9838L23.873 24.9834C23.9153 24.9831 23.957 24.9824 24.0001 24.9807C24.0325 24.9802 24.0656 24.9778 24.0982 24.976C24.1309 24.9742 24.178 24.972 24.218 24.9694C24.2579 24.9669 24.2896 24.9613 24.3252 24.9576C24.3608 24.9538 24.4015 24.9493 24.4379 24.9442C24.4743 24.9391 24.5127 24.9306 24.5484 24.9228C24.5841 24.915 24.6194 24.9102 24.6537 24.9015C24.688 24.8929 24.7301 24.881 24.767 24.8665C24.8037 24.8521 24.8309 24.8494 24.8615 24.8354C24.892 24.8214 24.9362 24.7997 24.9736 24.7809C24.9998 24.7681 25.0255 24.7577 25.0531 24.7416C25.092 24.7166 25.1294 24.6891 25.1648 24.6594C25.1839 24.6438 25.2056 24.6316 25.2233 24.6153C25.2772 24.5662 25.3251 24.5109 25.3656 24.4504C25.6731 23.9989 25.5001 23.4141 25.113 23.0279C24.8804 22.7955 24.5727 22.7036 24.2681 22.6946C24.1429 22.6987 24.0205 22.6995 23.9008 22.697Z" fill="#D9AD81"/>
<path d="M25.2025 24.6313C25.1637 24.6647 25.1226 24.6952 25.0793 24.7224C25.07 24.729 25.062 24.7364 25.0532 24.7422C25.0283 24.7576 25.002 24.7681 24.9736 24.7815L24.9644 24.784C24.9294 24.801 24.8961 24.8198 24.8615 24.8337C24.8369 24.8437 24.8081 24.8515 24.7856 24.8587C24.742 24.8738 24.6988 24.8883 24.6537 24.8998C24.6201 24.9088 24.5849 24.9142 24.55 24.9207L24.5278 24.9266C24.4969 24.9349 24.465 24.9399 24.4337 24.9442C24.4023 24.9486 24.3667 24.9523 24.3323 24.9563C24.2979 24.9603 24.2558 24.9657 24.2192 24.968C24.1826 24.9702 24.1439 24.9731 24.1048 24.9748C24.0657 24.9766 24.043 24.9786 24.0124 24.9793L24.0016 24.9821L23.9098 24.9847L23.8344 24.9851L23.821 24.9852C23.6444 24.7784 23.5165 24.5346 23.4468 24.2718L23.4927 24.274C24.0112 24.2786 24.6928 24.2541 25.0217 23.7812C25.1644 23.5726 25.2113 23.3131 25.1509 23.0677C25.2405 23.1625 25.3171 23.2688 25.3786 23.3839L25.38 23.3894C25.4089 23.4432 25.4338 23.4991 25.4544 23.5566C25.4566 23.5647 25.4587 23.5723 25.4608 23.5804C25.4779 23.631 25.4917 23.6827 25.5022 23.735C25.5066 23.7513 25.5059 23.7683 25.5083 23.7857C25.5155 23.829 25.5203 23.8728 25.5225 23.9167C25.5226 23.9434 25.5186 23.9695 25.5174 23.9954C25.5146 24.0304 25.5146 24.0652 25.5088 24.0999C25.5011 24.1363 25.4913 24.1721 25.4794 24.2072C25.4719 24.2313 25.4679 24.2556 25.4586 24.2791C25.4343 24.3394 25.4035 24.397 25.3668 24.4507C25.3255 24.5115 25.2772 24.5671 25.2229 24.6165C25.2164 24.6219 25.2096 24.6268 25.2025 24.6313Z" fill="#F7D4B0"/>
<path d="M23.4332 24.6718C23.5075 24.8187 23.5994 24.9561 23.7068 25.0809C23.7348 25.1135 23.7754 25.1324 23.8184 25.1329L23.8762 25.1319L24.0792 25.1258C24.1469 25.1227 24.1882 25.1204 24.2296 25.1169L24.3049 25.1095L24.3422 25.1053L24.4593 25.0914C24.4967 25.0854 24.5309 25.0786 24.5644 25.0713C24.6279 25.059 24.66 25.0527 24.6917 25.0454C24.7235 25.038 24.7628 25.0263 24.7993 25.013L24.8045 24.8547L24.8483 24.9964C24.8732 24.9897 24.8971 24.9833 24.9203 24.9724C24.9544 24.9587 24.9867 24.9425 25.0189 24.9257L25.0043 24.7675L25.0666 24.9024C25.0907 24.8919 25.1141 24.8796 25.1364 24.8657C25.1744 24.8418 25.2108 24.8155 25.2456 24.7871L25.1969 24.638L25.2823 24.7593C25.2979 24.7487 25.3129 24.7371 25.327 24.7246C25.3897 24.6673 25.4454 24.6028 25.4929 24.5325C25.7246 24.1932 25.738 23.7595 25.5297 23.3445C25.4506 23.1881 25.3468 23.0453 25.2224 22.9219C24.985 22.6867 24.6593 22.556 24.2773 22.5444C24.1432 22.5495 24.0236 22.5497 23.9058 22.5481C23.8728 22.5476 23.8406 22.5581 23.8143 22.5778C23.7751 22.6043 23.7379 22.6338 23.703 22.6658C23.1933 23.1755 23.0863 23.9801 23.4332 24.6718ZM23.8996 24.8484C23.8224 24.7523 23.7555 24.6482 23.7002 24.538C23.4113 23.961 23.496 23.2943 23.9117 22.8784C23.9238 22.8665 23.9368 22.8556 23.9507 22.8459C24.0568 22.8471 24.1653 22.8465 24.2769 22.8421C24.4796 22.846 24.7827 22.9036 25.012 23.1322C25.1134 23.2336 25.1982 23.3503 25.2633 23.4781C25.4217 23.7937 25.4156 24.1179 25.2461 24.3662C25.2116 24.4174 25.1711 24.4644 25.1255 24.506L25.0726 24.5452C25.0429 24.5699 25.0118 24.5928 24.9794 24.6137C24.9672 24.6209 24.9546 24.6274 24.9416 24.6332L24.8819 24.6619C24.8583 24.6748 24.834 24.6864 24.8092 24.6965C24.7932 24.7029 24.7768 24.7085 24.7602 24.7131L24.7228 24.7232C24.6761 24.7357 24.6491 24.7475 24.6202 24.7547C24.5914 24.7619 24.566 24.7693 24.5421 24.771C24.5421 24.771 24.5062 24.7806 24.5052 24.7809C24.4764 24.7886 24.4463 24.7932 24.4163 24.7984L23.9076 24.8347L23.8996 24.8484Z" fill="#221F1F"/>
<path d="M25.1787 24.8975C25.3179 24.8109 25.4376 24.6963 25.5302 24.561C25.8639 24.0711 25.7499 23.3833 25.2563 22.8879C24.9942 22.6259 24.6354 22.4843 24.2651 22.4967C22.3521 22.5652 21.5655 22.3668 21.5563 22.3652C21.4518 22.3393 21.346 22.402 21.3185 22.5061C21.2909 22.6101 21.352 22.717 21.4555 22.7462C21.4888 22.7553 22.2927 22.9618 24.2777 22.8908C24.5392 22.8825 24.7924 22.9831 24.9769 23.1685C25.2712 23.4621 25.4682 23.9545 25.2057 24.3411C24.9431 24.7276 24.3533 24.7891 23.7629 24.7892C23.5769 24.7891 23.3913 24.7929 23.212 24.7962C21.7328 24.8241 20.4548 24.8486 19.353 23.0986C19.2932 23.0109 19.1748 22.9864 19.0851 23.043C18.9954 23.0996 18.9666 23.217 19.0199 23.3087C19.5754 24.1909 20.2094 24.7243 21.0145 24.9869C21.7213 25.2171 22.4488 25.2035 23.219 25.1889C23.3965 25.1856 23.5805 25.1822 23.7624 25.1823C24.1244 25.1818 24.7275 25.1811 25.1787 24.8975Z" fill="#221F1F"/>
<path d="M18.324 25.0713C18.49 24.9691 18.6317 24.8319 18.7394 24.6694C18.9693 24.3172 18.989 23.894 18.7951 23.4781C18.397 22.6235 17.2007 22.0048 15.8187 21.938C14.9355 21.8957 14.2669 22.1051 13.9855 22.5124C13.8569 22.6985 13.7451 23.0167 13.9443 23.476C14.1577 23.9686 14.5453 24.4024 15.0652 24.7309C15.6244 25.0827 16.3229 25.3035 17.0953 25.3663L17.107 25.3666C17.5876 25.375 18.0068 25.2714 18.324 25.0713ZM14.5027 22.5579C14.7757 22.386 15.2365 22.3032 15.8016 22.3297C17.0222 22.3885 18.1071 22.9278 18.4397 23.6419C18.5748 23.9295 18.5636 24.2172 18.4113 24.4516C18.1916 24.7877 17.7101 24.9818 17.1226 24.9713C16.4182 24.913 15.7802 24.7137 15.2772 24.3963C14.8252 24.1106 14.4893 23.7356 14.308 23.3192C14.206 23.0839 14.2069 22.8877 14.3118 22.737C14.3626 22.6649 14.4275 22.6039 14.5027 22.5579Z" fill="#221F1F"/>
</g>
</g>
<defs>
<clipPath id="clip0_20_4709">
<rect width="32" height="32" fill="white"/>
</clipPath>
</defs>
</svg>
