<svg width="32" height="32" viewBox="0 0 32 32" fill="none" xmlns="http://www.w3.org/2000/svg">
<rect width="32" height="32" fill="black"/>
<path d="M29.8126 2.8117V29.7073H26.3457V23.9288C24.1396 27.4488 20.4099 29.7073 15.7347 29.7073C8.32782 29.7073 2.18164 23.7188 2.18164 15.9442C2.18164 8.16967 8.32782 2.18188 15.7347 2.18188C20.4099 2.18188 24.1396 4.44065 26.3457 7.96021V2.8117H29.8126ZM26.3457 15.9442C26.3457 10.1134 21.8282 5.54319 15.9972 5.54319C10.1662 5.54319 5.64884 10.1134 5.64884 15.9442C5.64884 21.775 10.1664 26.3452 15.9972 26.3452C21.828 26.3452 26.3457 21.7746 26.3457 15.9442Z" fill="white"/>
</svg>
