<svg width="32" height="32" viewBox="0 0 33 33" fill="none" xmlns="http://www.w3.org/2000/svg">
    <path opacity="0.573" fill-rule="evenodd" clip-rule="evenodd"
        d="M11.1667 0.5C12.6638 0.5 14.1608 0.5 15.6579 0.5C17.1659 2.55155 18.4758 2.55155 19.5877 0.5C21.459 0.5 23.3304 0.5 25.2018 0.5C25.4613 1.36581 26.0227 1.78412 26.886 1.7549C27.8037 1.41215 28.7394 1.203 29.693 1.12745C29.7769 1.78752 29.6833 2.41497 29.4123 3.0098C28.0397 3.9366 26.8233 5.08692 25.7632 6.46078C26.979 9.7598 29.2247 11.3284 32.5 11.1667C31.3011 13.1987 29.6169 14.4536 27.4474 14.9314C27.0694 19.0249 25.7595 22.685 23.5175 25.9118C24.843 26.0352 25.7787 26.7673 26.3246 28.1078C24.2877 28.1503 22.2292 28.3595 20.1491 28.7353C19.1863 30.2298 18.0635 31.4847 16.7807 32.5C14.5351 32.5 12.2895 32.5 10.0439 32.5C4.85722 28.0197 1.67594 22.1634 0.5 14.9314C0.5 11.7941 0.5 8.65686 0.5 5.51961C4.15588 3.99621 7.71145 2.32301 11.1667 0.5ZM9.48246 28.1078C4.56166 22.5966 2.22248 15.9038 2.46491 8.02941C6.32722 5.19616 10.5377 3.62754 15.0965 3.32353C15.7545 3.58619 16.3159 4.0045 16.7807 4.57843C13.2865 8.91035 8.98241 10.479 3.86842 9.28431C6.06928 12.5555 8.96984 14.6469 12.5702 15.5588C12.6111 17.2263 12.424 18.8996 12.0088 20.5784C10.9993 23.0393 10.1572 25.5491 9.48246 28.1078ZM9.48246 28.1078C10.0731 28.2016 10.6345 28.0971 11.1667 27.7941C12.582 26.4013 13.7984 24.8327 14.8158 23.0882C16.3366 18.5649 17.6466 13.9635 18.7456 9.28431C19.1199 8.44773 19.4941 8.44773 19.8684 9.28431C20.4745 11.2385 20.5681 13.1209 20.1491 14.9314C20.8976 14.9314 21.6462 14.9314 22.3947 14.9314C22.2165 13.0039 22.4037 11.1216 22.9561 9.28431C23.5175 9.49344 23.8918 9.91177 24.0789 10.5392C22.6313 17.2234 20.1985 23.3933 16.7807 29.049C14.0516 31.2632 11.6188 30.9495 9.48246 28.1078Z"
        fill="#4F646F" />
</svg>