<svg width="32" height="32" viewBox="0 0 32 32" fill="none" xmlns="http://www.w3.org/2000/svg">
<path d="M23.9693 3.96802H19.8445L13.3664 25.6154H13.1782V17.856C13.1782 17.0835 13.0438 16.3917 12.7763 15.7811C12.5081 15.1712 12.1197 14.6554 11.6102 14.2336C11.1008 13.8119 10.471 13.4893 9.7203 13.2653C8.96958 13.0413 8.11518 12.9293 7.15838 12.9293C6.20158 12.9293 5.4131 13.0304 4.66174 13.232C3.91102 13.4343 3.25886 13.7261 2.7059 14.1082C2.15294 14.4903 1.71134 14.9517 1.38238 15.4912C1.05342 16.0314 0.857581 16.6349 0.796141 17.3024H4.32638C4.48446 16.8634 4.78718 16.5299 5.23518 16.3015C5.68318 16.073 6.25406 15.9591 6.94782 15.9591C7.74654 15.9591 8.35518 16.1235 8.77246 16.4531C9.1891 16.7821 9.39774 17.2499 9.39774 17.856V19.0413L5.88094 19.2519C4.0627 19.3575 2.6707 19.7811 1.70494 20.5229C0.738541 21.2653 0.255981 22.2989 0.255981 23.6256C0.255981 24.2931 0.371821 24.8947 0.604781 25.4304C0.837101 25.9661 1.16414 26.425 1.5859 26.8071C2.00766 27.1891 2.50814 27.4835 3.08798 27.6896C3.66718 27.8957 4.30846 27.9994 5.01118 27.9994C5.95966 27.9994 6.8051 27.8125 7.54686 27.4394C8.28926 27.0663 8.84862 26.5459 9.22686 25.8784H9.46366V27.7754H16.8454L23.9693 3.96802ZM9.39774 22.5063C9.39774 22.8749 9.31902 23.2173 9.16094 23.5341C9.00286 23.8503 8.78334 24.1267 8.50238 24.3642C8.22142 24.601 7.89182 24.7859 7.51422 24.9171C7.13662 25.049 6.72446 25.1149 6.27582 25.1149C5.6083 25.1149 5.0643 24.9613 4.64254 24.6535C4.22078 24.3463 4.01022 23.9207 4.01022 23.376C4.01022 22.3219 4.82686 21.7383 6.46014 21.6243L9.39774 21.44V22.5069V22.5063Z" fill="#6126EB"/>
<path d="M27.6147 3.96802L20.4908 27.7754H24.6156L31.7401 3.96802H27.6147Z" fill="#6126EB"/>
</svg>
