<svg width="32" height="32" viewBox="0 0 32 32" fill="none" xmlns="http://www.w3.org/2000/svg">
<mask id="mask0_24_541" style="mask-type:luminance" maskUnits="userSpaceOnUse" x="0" y="0" width="32" height="32">
<path d="M32 0H0V32H32V0Z" fill="white"/>
</mask>
<g mask="url(#mask0_24_541)">
<path fill-rule="evenodd" clip-rule="evenodd" d="M-0.0799561 -0.0800171C10.5867 -0.0800171 21.2533 -0.0800171 31.92 -0.0800171C31.92 10.5867 31.92 21.2533 31.92 31.92C21.2533 31.92 10.5867 31.92 -0.0799561 31.92C-0.0799561 21.2533 -0.0799561 10.5867 -0.0799561 -0.0800171Z" fill="#D7D7D7"/>
<path fill-rule="evenodd" clip-rule="evenodd" d="M28.88 22.16C28.9144 21.8914 28.8077 21.7314 28.56 21.68C28.4533 21.68 28.3467 21.68 28.24 21.68C28.2445 20.9992 28.0312 20.4126 27.6 19.92C27.0421 18.488 26.5088 17.048 26 15.6C26.0002 14.9616 25.8402 14.3749 25.52 13.84C25.9467 13.84 26.3733 13.84 26.8 13.84C26.8264 14.4291 26.7998 15.0157 26.72 15.6C26.6064 15.3643 26.4198 15.2576 26.16 15.28C26.3538 15.8052 26.5405 16.3386 26.72 16.88C27.0526 16.4027 27.1861 15.8693 27.12 15.28C27.28 15.28 27.44 15.28 27.6 15.28C27.265 14.042 27.0515 12.762 26.96 11.44C26.5134 11.0738 26.0867 10.6738 25.68 10.24C26.4331 10.1416 26.4331 9.90165 25.68 9.52C25.5733 9.2 25.4667 8.88 25.36 8.56C24.5365 7.99362 23.7365 7.40696 22.96 6.8C22.9067 6.37333 22.8533 5.94667 22.8 5.52C22.5566 5.58075 22.2901 5.60742 22 5.6C22.1477 5.92653 22.201 6.2732 22.16 6.64C21.8781 6.51803 21.7181 6.3047 21.68 6C21.5733 5.84 21.4667 5.68 21.36 5.52C21.1859 5.1868 21.0259 4.84013 20.88 4.48C20.3811 4.31061 19.9011 4.09726 19.44 3.84C19.7723 3.80925 20.0923 3.72925 20.4 3.6C19.8946 3.40637 19.3878 3.40637 18.88 3.6C18.684 3.54203 18.4974 3.46203 18.32 3.36C18.5694 3.20322 18.8362 3.06987 19.12 2.96C17.8181 2.58317 16.5381 2.58317 15.28 2.96C15.1612 3.06909 15.0545 3.17576 14.96 3.28C14.5919 3.36966 14.2185 3.44966 13.84 3.52C13.6092 3.58029 13.4492 3.71362 13.36 3.92C12.7171 4.29458 12.0771 4.6679 11.44 5.04C11.0443 5.07776 10.7776 5.29109 10.64 5.68C10.4508 5.05563 10.2908 5.0823 10.16 5.76C10.3746 6.15202 10.2412 6.39202 9.76 6.48C9.56765 6.8284 9.48765 7.20173 9.52 7.6C9.24816 7.43819 9.00816 7.22486 8.8 6.96C8.59435 7.03206 8.40768 7.13874 8.24 7.28C8.04221 7.16067 7.82888 7.10733 7.6 7.12C7.87931 7.79014 7.66598 8.27014 6.96 8.56C6.77752 8.70808 6.77752 8.84141 6.96 8.96C6.44483 9.29646 5.96483 9.66979 5.52 10.08C5.73333 10.1333 5.94667 10.1867 6.16 10.24C5.86026 10.5934 5.5136 10.8868 5.12 11.12C4.97557 12.0813 4.84224 13.0413 4.72 14C4.56 14 4.4 14 4.24 14C4.21338 15.3344 4.24005 16.6677 4.32 18C4.48918 18.4435 4.72918 18.8168 5.04 19.12C4.72893 19.7957 4.46227 20.489 4.24 21.2C4.11789 21.4989 3.95789 21.7656 3.76 22C3.61978 21.979 3.5131 22.0323 3.44 22.16C3.35558 22.4538 3.24893 22.7205 3.12 22.96C2.85638 21.74 2.69638 20.46 2.64 19.12C2.4832 19.5338 2.42986 19.9605 2.48 20.4C2.32 20.4 2.16 20.4 2 20.4C2 17.4133 2 14.4267 2 11.44C2.26667 11.44 2.53333 11.44 2.8 11.44C2.8 11.0133 2.8 10.5867 2.8 10.16C2.96 10.16 3.12 10.16 3.28 10.16C3.28 9.73333 3.28 9.30667 3.28 8.88C3.44 8.88 3.6 8.88 3.76 8.88C3.97338 8.42317 4.29338 8.02317 4.72 7.68C4.50667 7.62667 4.29333 7.57333 4.08 7.52C4.3228 7.25038 4.58946 7.01038 4.88 6.8C5.0012 7.00982 5.1612 7.08982 5.36 7.04C5.57333 6.82667 5.78667 6.61333 6 6.4C5.78667 6.34667 5.57333 6.29333 5.36 6.24C5.6028 5.97038 5.86946 5.73038 6.16 5.52C6.2812 5.72982 6.4412 5.80982 6.64 5.76C6.85333 5.54667 7.06667 5.33333 7.28 5.12C7.06667 5.06667 6.85333 5.01333 6.64 4.96C6.8828 4.69038 7.14946 4.45038 7.44 4.24C7.5612 4.44982 7.7212 4.52982 7.92 4.48C8.34662 4.13683 8.66662 3.73683 8.88 3.28C9.30667 3.28 9.73333 3.28 10.16 3.28C10.16 3.01333 10.16 2.74667 10.16 2.48C10.5867 2.48 11.0133 2.48 11.44 2.48C11.44 2.32 11.44 2.16 11.44 2C14.4267 2 17.4133 2 20.4 2C20.4 2.32 20.4 2.64 20.4 2.96C21.2533 3.06667 22.1067 3.17333 22.96 3.28C23.1734 3.73683 23.4934 4.13683 23.92 4.48C24.1187 4.52982 24.2787 4.44982 24.4 4.24C24.6906 4.45038 24.9573 4.69038 25.2 4.96C24.9867 5.01333 24.7733 5.06667 24.56 5.12C24.7733 5.33333 24.9867 5.54667 25.2 5.76C25.3987 5.80982 25.5587 5.72982 25.68 5.52C25.9706 5.73038 26.2373 5.97038 26.48 6.24C26.2667 6.29333 26.0533 6.34667 25.84 6.4C26.0533 6.61333 26.2667 6.82667 26.48 7.04C26.6787 7.08982 26.8387 7.00982 26.96 6.8C27.2506 7.01038 27.5173 7.25038 27.76 7.52C27.5467 7.57333 27.3333 7.62667 27.12 7.68C27.5466 8.02317 27.8666 8.42317 28.08 8.88C28.24 8.88 28.4 8.88 28.56 8.88C28.56 9.30667 28.56 9.73333 28.56 10.16C28.72 10.16 28.88 10.16 29.04 10.16C29.04 10.5867 29.04 11.0133 29.04 11.44C29.3067 11.44 29.5733 11.44 29.84 11.44C29.9027 14.9114 29.8227 18.3781 29.6 21.84C29.44 22.2667 29.28 22.2667 29.12 21.84C29.0755 21.9866 28.9955 22.0931 28.88 22.16Z" fill="#DCDDDD"/>
<path fill-rule="evenodd" clip-rule="evenodd" d="M21.36 5.51999C20.3259 4.6295 19.1524 3.9895 17.84 3.59999C17.7265 3.45535 17.5665 3.40202 17.36 3.43999C17.3067 3.43999 17.2532 3.43999 17.2 3.43999C16.4848 3.28222 15.7381 3.22887 14.96 3.27999C15.0545 3.17575 15.1611 3.06908 15.28 2.95999C16.538 2.58316 17.818 2.58316 19.12 2.95999C18.8361 3.06986 18.5694 3.20321 18.32 3.35999C18.4974 3.46202 18.684 3.54202 18.88 3.59999C19.3878 3.40636 19.8945 3.40636 20.4 3.59999C20.0923 3.72924 19.7723 3.80924 19.44 3.83999C19.9011 4.09726 20.3811 4.3106 20.88 4.47999C21.0259 4.84012 21.1859 5.18679 21.36 5.51999Z" fill="#D4DFE5"/>
<path fill-rule="evenodd" clip-rule="evenodd" d="M14.96 3.27999C15.7381 3.22887 16.4848 3.28222 17.2 3.43999C15.88 3.34618 14.6 3.50618 13.36 3.91999C13.4492 3.71361 13.6092 3.58028 13.84 3.51999C14.2185 3.44966 14.5919 3.36966 14.96 3.27999Z" fill="#B1DCE4"/>
<path fill-rule="evenodd" clip-rule="evenodd" d="M17.2 3.44001C17.2533 3.44001 17.3067 3.44001 17.36 3.44001C16.6986 3.59759 16.0051 3.65092 15.28 3.60001C15.28 3.76001 15.28 3.92001 15.28 4.08001C14.5124 4.01938 13.7658 4.09938 13.04 4.32001C13.7475 4.65658 14.4941 4.78991 15.28 4.72001C15.28 4.88001 15.28 5.04001 15.28 5.20001C14.8394 5.24553 14.4127 5.3522 14 5.52001C14.733 5.71196 15.453 5.65863 16.16 5.36001C16.8318 5.73412 17.5518 5.89412 18.32 5.84001C18.32 5.68001 18.32 5.52001 18.32 5.36001C18.5829 5.36317 18.7962 5.25652 18.96 5.04001C19.1053 5.48761 18.9986 5.88761 18.64 6.24001C18.6933 6.29333 18.7467 6.34668 18.8 6.40001C19.1602 6.36692 19.5336 6.34025 19.92 6.32001C19.92 6.48001 19.92 6.64001 19.92 6.80001C20.08 6.80001 20.24 6.80001 20.4 6.80001C20.4211 6.25769 20.4478 5.72436 20.48 5.20001C19.8509 4.65074 19.1309 4.27741 18.32 4.08001C18.16 4.13333 18 4.18668 17.84 4.24001C18.1346 4.35687 18.428 4.46354 18.72 4.56001C18.8162 4.79445 18.7362 4.95445 18.48 5.04001C17.8968 4.9942 17.4435 4.72753 17.12 4.24001C16.9582 4.37386 16.7715 4.42721 16.56 4.40001C16.5362 4.23169 16.5627 4.07169 16.64 3.92001C16.6933 3.97333 16.7467 4.02668 16.8 4.08001C17.1186 3.84132 17.4653 3.68132 17.84 3.60001C19.1525 3.98951 20.3259 4.62951 21.36 5.52001C21.4667 5.68001 21.5733 5.84001 21.68 6.00001C21.3434 5.95218 21.0234 6.00551 20.72 6.16001C20.4794 6.63474 20.4259 7.11474 20.56 7.60001C20.7086 7.4098 20.7619 7.19645 20.72 6.96001C20.9333 6.96001 21.1467 6.96001 21.36 6.96001C21.36 7.17333 21.36 7.38668 21.36 7.60001C21.1917 7.57609 21.0317 7.60276 20.88 7.68001C20.9963 8.01985 21.103 8.3665 21.2 8.72001C21.068 8.86172 20.908 8.91505 20.72 8.88001C20.72 9.09333 20.72 9.30668 20.72 9.52001C20.4533 9.09333 20.1867 8.66668 19.92 8.24001C19.5168 7.28821 18.8235 6.62156 17.84 6.24001C16.7214 5.92865 15.6015 5.92865 14.48 6.24001C14.2492 6.30029 14.0892 6.43362 14 6.64001C12.963 7.26945 12.2697 8.17612 11.92 9.36001C11.7979 9.65895 11.6379 9.92562 11.44 10.16C11.6215 9.33498 11.8349 8.50831 12.08 7.68001C11.8205 7.47279 11.6072 7.23279 11.44 6.96001C11.4933 6.85333 11.5467 6.74668 11.6 6.64001C11.8885 6.74189 12.1018 6.92857 12.24 7.20001C12.9278 7.27175 13.1412 6.97842 12.88 6.32001C12.753 6.389 12.6197 6.44233 12.48 6.48001C12.1611 6.18674 11.7877 5.97341 11.36 5.84001C10.9194 6.46633 10.4661 7.053 10 7.60001C10.0408 7.1974 10.1742 6.82407 10.4 6.48001C10.7856 6.01652 11.1323 5.53652 11.44 5.04001C12.0771 4.66791 12.7171 4.29458 13.36 3.92001C14.6001 3.5062 15.8801 3.3462 17.2 3.44001Z" fill="#ED0013"/>
<path fill-rule="evenodd" clip-rule="evenodd" d="M17.36 3.44C17.5666 3.40204 17.7266 3.45536 17.84 3.6C17.4653 3.68132 17.1186 3.84132 16.8 4.08C16.7468 4.02668 16.6933 3.97333 16.64 3.92C16.5628 4.07168 16.5362 4.23168 16.56 4.4C16.7716 4.4272 16.9583 4.37386 17.12 4.24C17.4436 4.72752 17.8968 4.9942 18.48 5.04C18.7362 4.95445 18.8162 4.79445 18.72 4.56C18.428 4.46354 18.1346 4.35687 17.84 4.24C18 4.18668 18.16 4.13333 18.32 4.08C19.1309 4.27741 19.8509 4.65074 20.48 5.2C20.4479 5.72436 20.4212 6.25768 20.4 6.8C20.24 6.8 20.08 6.8 19.92 6.8C19.92 6.64 19.92 6.48 19.92 6.32C19.5336 6.34024 19.1602 6.36692 18.8 6.4C18.7468 6.34668 18.6933 6.29333 18.64 6.24C18.9986 5.8876 19.1053 5.4876 18.96 5.04C18.7962 5.25652 18.5829 5.36317 18.32 5.36C18.32 5.52 18.32 5.68 18.32 5.84C17.5519 5.89412 16.8319 5.73412 16.16 5.36C15.453 5.65863 14.733 5.71196 14 5.52C14.4128 5.3522 14.8394 5.24552 15.28 5.2C15.28 5.04 15.28 4.88 15.28 4.72C14.4942 4.78991 13.7475 4.65658 13.04 4.32C13.7658 4.09938 14.5125 4.01938 15.28 4.08C15.28 3.92 15.28 3.76 15.28 3.6C16.0052 3.65092 16.6986 3.59759 17.36 3.44Z" fill="#ED0013"/>
<path fill-rule="evenodd" clip-rule="evenodd" d="M19.92 8.23999C19.7224 8.20457 19.5624 8.09789 19.44 7.91999C19.3285 8.22151 19.1685 8.27484 18.96 8.07999C18.8024 7.71647 18.669 7.34314 18.56 6.95999C18.4702 6.87649 18.3635 6.82316 18.24 6.79999C17.9267 6.88818 17.6067 6.94151 17.28 6.95999C16.5658 6.73468 15.8458 6.52135 15.12 6.31999C14.7877 6.54993 14.4143 6.6566 14 6.63999C14.0892 6.43361 14.2492 6.30028 14.48 6.23999C15.6015 5.92863 16.7214 5.92863 17.84 6.23999C18.8235 6.62154 19.5168 7.2882 19.92 8.23999Z" fill="#DAE9EB"/>
<path fill-rule="evenodd" clip-rule="evenodd" d="M11.4399 5.03998C11.1322 5.53649 10.7855 6.01649 10.3999 6.47998C10.1741 6.82404 10.0408 7.19737 9.99995 7.59998C9.63699 8.16611 9.31699 8.75278 9.03995 9.35998C8.9146 8.77665 8.88793 8.18998 8.95995 7.59998C9.22233 8.20443 9.409 8.20443 9.51995 7.59998C9.4876 7.20171 9.5676 6.82838 9.75995 6.47998C10.2412 6.39199 10.3745 6.15199 10.1599 5.75998C10.2907 5.08228 10.4507 5.05561 10.6399 5.67998C10.7776 5.29107 11.0442 5.07774 11.4399 5.03998Z" fill="#D4E5EB"/>
<path fill-rule="evenodd" clip-rule="evenodd" d="M22.16 6.64001C22.582 6.9571 22.7952 7.38377 22.8 7.92001C22.5055 7.54425 22.2922 7.11758 22.16 6.64001Z" fill="#BBEAF2"/>
<path fill-rule="evenodd" clip-rule="evenodd" d="M19.92 8.24001C19.9867 8.65268 19.88 8.99934 19.6 9.28001C19.7643 9.36214 19.9243 9.44214 20.08 9.52001C20.0818 9.76279 20.1883 9.94946 20.4 10.08C19.9855 10.3548 19.5587 10.4348 19.12 10.32C19.3389 9.81332 19.2856 9.33332 18.96 8.88001C18.8432 9.17462 18.7365 9.46794 18.64 9.76001C18.8247 9.90622 18.7979 10.0395 18.56 10.16C18.34 9.77012 18.26 9.34345 18.32 8.88001C16.7955 8.97642 15.3021 8.86975 13.84 8.56001C13.6313 9.06204 13.2846 9.43537 12.8 9.68001C12.6249 9.48906 12.4915 9.27574 12.4 9.04001C12.7841 8.15378 13.3175 7.35378 14 6.64001C14.4143 6.65662 14.7877 6.54994 15.12 6.32001C15.8458 6.52137 16.5658 6.7347 17.28 6.96001C17.6067 6.94153 17.9267 6.8882 18.24 6.80001C18.3635 6.82318 18.4703 6.8765 18.56 6.96001C18.669 7.34316 18.8024 7.71649 18.96 8.08001C19.1685 8.27486 19.3285 8.22153 19.44 7.92001C19.5624 8.09791 19.7224 8.20458 19.92 8.24001Z" fill="#EBEAEA"/>
<path fill-rule="evenodd" clip-rule="evenodd" d="M14 6.64001C13.3175 7.35379 12.7842 8.15379 12.4 9.04001C12.2845 9.20819 12.1245 9.31486 11.92 9.36001C12.2697 8.17613 12.9631 7.26945 14 6.64001Z" fill="#D5EEF2"/>
<path fill-rule="evenodd" clip-rule="evenodd" d="M20.08 9.52C20.0896 9.4331 20.1429 9.37977 20.24 9.36C20.4464 9.70504 20.5799 10.0784 20.64 10.48C20.7919 10.7349 20.9784 10.9482 21.2 11.12C21.3636 11.9775 21.5236 12.8308 21.68 13.68C21.84 13.68 22 13.68 22.16 13.68C22.4242 14.4525 22.5308 15.2525 22.48 16.08C22.8658 16.0219 23.1058 16.1819 23.2 16.56C23.2613 16.471 23.3413 16.4178 23.44 16.4C23.5906 16.648 23.6972 16.9146 23.76 17.2C23.76 17.4133 23.76 17.6267 23.76 17.84C23.4268 18.341 23.0535 18.8477 22.64 19.36C22.5141 19.6958 22.4608 20.0426 22.48 20.4C22.7399 20.4224 22.9264 20.3157 23.04 20.08C23.1608 20.5384 23.0276 20.9117 22.64 21.2C22.445 21.0779 22.285 20.9179 22.16 20.72C22.0533 20.7733 21.9468 20.8267 21.84 20.88C21.6605 20.6992 21.4471 20.5925 21.2 20.56C20.8583 19.8426 20.2716 19.5226 19.44 19.6C19.3232 19.3528 19.11 19.2195 18.8 19.2C18.6797 19.0926 18.6263 18.9594 18.64 18.8C19.2924 18.8376 19.9324 18.9443 20.56 19.12C20.8087 18.7307 20.9152 18.304 20.88 17.84C20.88 17.0933 20.88 16.3467 20.88 15.6C20.9063 15.17 20.8796 14.7434 20.8 14.32C20.3466 13.572 20.1866 12.772 20.32 11.92C20.2612 12.1456 20.1279 12.3056 19.92 12.4C19.6196 12.0201 19.2461 11.7267 18.8 11.52C18.4168 11.495 18.0434 11.575 17.68 11.76C17.1221 11.6117 16.9088 11.2384 17.04 10.64C16.4196 10.878 15.9129 10.718 15.52 10.16C14.7625 10.369 14.0425 10.6623 13.36 11.04C13.9978 11.1198 14.6378 11.1465 15.28 11.12C15.245 11.308 15.2983 11.468 15.44 11.6C15.8143 11.4042 16.1876 11.4042 16.56 11.6C16.0344 11.7318 15.5011 11.8118 14.96 11.84C14.8711 11.9012 14.8178 11.9812 14.8 12.08C14.4234 12.1341 14.0501 12.2141 13.68 12.32C13.5597 12.4273 13.5063 12.5607 13.52 12.72C13.1424 13.2043 12.7157 13.631 12.24 14C12.0998 14.0209 11.9932 13.9676 11.92 13.84C12.0944 13.6626 12.0944 13.5026 11.92 13.36C11.7867 13.52 11.6534 13.68 11.52 13.84C11.1976 13.3401 10.9576 12.8067 10.8 12.24C11.014 11.5448 11.2274 10.8515 11.44 10.16C11.6379 9.92561 11.7979 9.65894 11.92 9.36C12.1245 9.31485 12.2845 9.20817 12.4 9.04C12.4916 9.27573 12.6249 9.48905 12.8 9.68C13.2847 9.43536 13.6313 9.06203 13.84 8.56C15.3022 8.86974 16.7956 8.97641 18.32 8.88C18.26 9.34344 18.34 9.77011 18.56 10.16C18.798 10.0395 18.8247 9.90621 18.64 9.76C18.7365 9.46793 18.8432 9.17461 18.96 8.88C19.2856 9.33331 19.3389 9.81331 19.12 10.32C19.5588 10.4348 19.9855 10.3548 20.4 10.08C20.1884 9.94945 20.0818 9.76278 20.08 9.52Z" fill="#F0F0F1"/>
<path fill-rule="evenodd" clip-rule="evenodd" d="M11.44 10.16C11.2273 10.8515 11.014 11.5448 10.8 12.24C10.4601 12.6541 10.2467 13.1341 10.16 13.68C9.70513 14.6143 9.27846 15.5743 8.88001 16.56C8.88001 16.6133 8.88001 16.6667 8.88001 16.72C8.70937 17.1143 8.49604 17.4875 8.24001 17.84C8.44956 17.0011 8.55622 16.1477 8.56001 15.28C8.40001 15.28 8.24001 15.28 8.08001 15.28C8.06142 14.7344 8.32807 14.5211 8.88001 14.64C8.95867 14.007 8.85199 13.4203 8.56001 12.88C8.69201 12.7383 8.85201 12.685 9.04001 12.72C9.01361 13.256 9.04028 13.7893 9.12001 14.32C9.28257 14.1386 9.38924 14.1919 9.44001 14.48C9.62382 14.0172 9.70382 13.5372 9.68001 13.04C9.93982 13.0624 10.1265 12.9558 10.24 12.72C10.4171 12.0773 10.6038 11.4373 10.8 10.8C10.7467 10.5867 10.6933 10.3734 10.64 10.16C10.5361 10.4999 10.4028 10.8199 10.24 11.12C10.2296 10.7387 10.0963 10.632 9.84001 10.8C9.71657 11.178 9.58324 11.5513 9.44001 11.92C9.2782 12.0539 9.09155 12.1072 8.88001 12.08C8.8666 11.6276 8.75995 11.201 8.56001 10.8C8.76587 10.3351 8.92587 9.85505 9.04001 9.36003C9.31705 8.75283 9.63705 8.16615 10 7.60003C10.4661 7.05302 10.9194 6.46635 11.36 5.84003C11.7878 5.97343 12.1611 6.18676 12.48 6.48003C12.6197 6.44235 12.7531 6.38902 12.88 6.32003C13.1412 6.97844 12.9279 7.27177 12.24 7.20003C12.1018 6.92859 11.8885 6.74191 11.6 6.64003C11.5467 6.7467 11.4933 6.85335 11.44 6.96003C11.6072 7.23281 11.8205 7.47281 12.08 7.68003C11.8349 8.50833 11.6215 9.335 11.44 10.16Z" fill="#ED0013"/>
<path fill-rule="evenodd" clip-rule="evenodd" d="M26 15.6C25.5957 14.8136 25.2224 14.0136 24.88 13.2C24.6034 12.6367 24.3901 12.0501 24.24 11.44C24.088 11.0292 24.088 10.6292 24.24 10.24C23.6685 9.89861 23.455 9.41861 23.6 8.80002C23.4138 8.42748 23.1472 8.13413 22.8 7.92002C22.7952 7.38378 22.5819 6.95711 22.16 6.64002C22.201 6.27322 22.1477 5.92655 22 5.60002C22.2901 5.60744 22.5566 5.58077 22.8 5.52002C22.8533 5.94669 22.9067 6.37335 22.96 6.80002C23.7365 7.40698 24.5365 7.99364 25.36 8.56002C25.4667 8.88002 25.5733 9.20002 25.68 9.52002C26.4331 9.90167 26.4331 10.1417 25.68 10.24C26.0867 10.6738 26.5134 11.0738 26.96 11.44C27.0515 12.762 27.265 14.042 27.6 15.28C27.44 15.28 27.28 15.28 27.12 15.28C27.1861 15.8694 27.0526 16.4027 26.72 16.88C26.5405 16.3386 26.3538 15.8052 26.16 15.28C26.4198 15.2576 26.6064 15.3643 26.72 15.6C26.7998 15.0158 26.8264 14.4291 26.8 13.84C26.3733 13.84 25.9467 13.84 25.52 13.84C25.8402 14.3749 26.0002 14.9616 26 15.6Z" fill="#E1E2E3"/>
<path fill-rule="evenodd" clip-rule="evenodd" d="M21.68 5.99999C21.718 6.30469 21.878 6.51802 22.16 6.63999C22.2921 7.11756 22.5054 7.54423 22.8 7.91999C22.904 8.22962 22.9572 8.54962 22.96 8.87999C22.991 9.33274 23.0977 9.7594 23.28 10.16C23.0667 10.16 22.8532 10.16 22.64 10.16C22.598 10.3964 22.6513 10.6098 22.8 10.8C22.8937 10.7665 22.9737 10.7132 23.04 10.64C23.0604 11.1223 23.0604 11.6023 23.04 12.08C23.1876 11.8786 23.3211 11.6653 23.44 11.44C23.5921 11.3079 23.7521 11.2812 23.92 11.36C23.7689 11.795 23.7156 12.2484 23.76 12.72C23.9964 12.6781 24.2097 12.7314 24.4 12.88C24.3209 13.6012 24.1609 14.2946 23.92 14.96C23.955 15.1901 24.035 15.4034 24.16 15.6C24.3112 15.0217 24.4179 14.4351 24.48 13.84C24.5772 13.5894 24.7107 13.376 24.88 13.2C25.2224 14.0136 25.5956 14.8136 26 15.6C26.5088 17.048 27.042 18.488 27.6 19.92C27.6404 20.5464 27.5339 21.1329 27.28 21.68C27.12 21.68 26.96 21.68 26.8 21.68C26.7819 21.2721 26.8886 20.8989 27.12 20.56C27.0396 20.3966 26.9331 20.3699 26.8 20.48C26.7014 20.8286 26.5147 21.1219 26.24 21.36C26.1966 20.9165 25.9566 20.6499 25.52 20.56C25.5038 19.9176 25.2371 19.4376 24.72 19.12C24.5233 18.3257 24.2566 17.5525 23.92 16.8C24.2516 16.3574 24.1184 16.0107 23.52 15.76C23.411 15.3768 23.2776 15.0035 23.12 14.64C22.9713 14.472 22.8648 14.472 22.8 14.64C22.2667 13.4667 21.7332 12.2933 21.2 11.12C21.0278 10.5807 20.8678 10.0474 20.72 9.51999C20.72 9.30666 20.72 9.09332 20.72 8.87999C20.908 8.91503 21.068 8.8617 21.2 8.71999C21.103 8.36649 20.9963 8.01983 20.88 7.67999C21.0316 7.60274 21.1916 7.57607 21.36 7.59999C21.36 7.38666 21.36 7.17332 21.36 6.95999C21.1467 6.95999 20.9332 6.95999 20.72 6.95999C20.7619 7.19644 20.7086 7.40978 20.56 7.59999C20.4259 7.11473 20.4793 6.63473 20.72 6.15999C21.0233 6.00549 21.3433 5.95217 21.68 5.99999Z" fill="#ED0013"/>
<path fill-rule="evenodd" clip-rule="evenodd" d="M22.9599 8.88C23.4174 9.71933 23.8439 10.5727 24.2399 11.44C24.39 12.0501 24.6033 12.6367 24.8799 13.2C24.7107 13.376 24.5772 13.5894 24.4799 13.84C24.4179 14.4351 24.3111 15.0217 24.1599 15.6C24.035 15.4034 23.955 15.1901 23.9199 14.96C24.1609 14.2946 24.3209 13.6013 24.3999 12.88C24.2097 12.7314 23.9964 12.6781 23.7599 12.72C23.7156 12.2484 23.7689 11.7951 23.9199 11.36C23.7521 11.2813 23.5921 11.3079 23.4399 11.44C23.3211 11.6653 23.1876 11.8786 23.0399 12.08C23.0604 11.6023 23.0604 11.1223 23.0399 10.64C22.9737 10.7132 22.8937 10.7665 22.7999 10.8C22.6513 10.6098 22.598 10.3965 22.6399 10.16C22.8532 10.16 23.0667 10.16 23.2799 10.16C23.0977 9.75941 22.991 9.33276 22.9599 8.88Z" fill="#ED0013"/>
<path fill-rule="evenodd" clip-rule="evenodd" d="M22.8 7.91998C23.1472 8.13409 23.4138 8.42744 23.6 8.79998C23.4551 9.41857 23.6685 9.89857 24.24 10.24C24.088 10.6291 24.088 11.0291 24.24 11.44C23.844 10.5726 23.4175 9.71931 22.96 8.87998C22.9573 8.54961 22.904 8.22961 22.8 7.91998Z" fill="#CDEBEF"/>
<path fill-rule="evenodd" clip-rule="evenodd" d="M19.92 8.23999C20.1867 8.66666 20.4533 9.09332 20.72 9.51999C20.8678 10.0474 21.0278 10.5807 21.2 11.12C20.9784 10.9482 20.7918 10.7349 20.64 10.48C20.5798 10.0784 20.4464 9.70503 20.24 9.35999C20.1429 9.37977 20.0896 9.43309 20.08 9.51999C19.9243 9.44212 19.7643 9.36212 19.6 9.27999C19.88 8.99932 19.9867 8.65266 19.92 8.23999Z" fill="#CFEDF5"/>
<path fill-rule="evenodd" clip-rule="evenodd" d="M9.03996 9.35999C8.92582 9.85501 8.76582 10.335 8.55996 10.8C8.37217 10.9622 8.2655 11.1755 8.23996 11.44C7.8639 12.3048 7.49057 13.1582 7.11996 14C7.07703 13.5809 7.13036 13.1809 7.27996 12.8C7.15066 12.7508 7.04401 12.6708 6.95996 12.56C7.20127 12.2388 7.49462 11.9721 7.83996 11.76C8.137 10.887 8.537 10.087 9.03996 9.35999Z" fill="#D7EAEF"/>
<path fill-rule="evenodd" clip-rule="evenodd" d="M17.8401 12.24C16.7143 12.0005 15.5943 12.0271 14.4801 12.32C14.2493 12.3803 14.0893 12.5136 14.0001 12.72C13.9467 12.72 13.8934 12.72 13.8401 12.72C13.7334 12.72 13.6267 12.72 13.5201 12.72C13.5063 12.5606 13.5597 12.4273 13.6801 12.32C14.0501 12.2141 14.4234 12.1341 14.8001 12.08C15.352 11.9862 15.912 11.9328 16.4801 11.92C17.0004 11.923 17.4537 12.0297 17.8401 12.24Z" fill="#D4F6FB"/>
<path fill-rule="evenodd" clip-rule="evenodd" d="M17.84 12.24C18.2667 12.5067 18.6933 12.7733 19.12 13.04C19.12 13.0933 19.12 13.1467 19.12 13.2C18.8571 13.1968 18.6438 13.3035 18.48 13.52C18.1629 13.2848 17.8963 13.3382 17.68 13.68C17.3915 13.5781 17.1782 13.3914 17.04 13.12C16.4557 13.0402 15.8691 13.0136 15.28 13.04C15.245 12.852 15.2983 12.692 15.44 12.56C15.9101 12.732 16.3901 12.7586 16.88 12.64C16.5008 12.4742 16.1008 12.3942 15.68 12.4C15.1133 12.4981 14.5533 12.6048 14 12.72C14.0892 12.5136 14.2492 12.3803 14.48 12.32C15.5942 12.0272 16.7142 12.0005 17.84 12.24Z" fill="#ED0013"/>
<path fill-rule="evenodd" clip-rule="evenodd" d="M19.12 13.2C19.12 13.1467 19.12 13.0933 19.12 13.04C19.5467 13.1467 19.8133 13.4133 19.92 13.84C19.6533 13.6267 19.3867 13.4133 19.12 13.2Z" fill="#ED0013"/>
<path fill-rule="evenodd" clip-rule="evenodd" d="M13.52 12.72C13.6267 12.72 13.7334 12.72 13.84 12.72C13.6107 13.0493 13.5041 13.4226 13.52 13.84C13.68 13.84 13.84 13.84 14 13.84C14 14 14 14.16 14 14.32C13.6141 14.3471 13.2675 14.2404 12.96 14C12.6256 14.3109 12.2789 14.5776 11.92 14.8C12.0706 14.5521 12.1772 14.2854 12.24 14C12.7157 13.631 13.1424 13.2043 13.52 12.72Z" fill="#ED0013"/>
<path fill-rule="evenodd" clip-rule="evenodd" d="M8.23996 11.44C8.23615 12.139 8.23615 12.859 8.23996 13.6C8.13239 13.9214 7.97239 14.2148 7.75996 14.48C7.63983 14.3398 7.55983 14.1798 7.51996 14C7.46663 14.32 7.41329 14.64 7.35996 14.96C7.24663 14.8191 7.1133 14.7125 6.95996 14.64C7.07742 14.4467 7.13074 14.2334 7.11996 14C7.49057 13.1582 7.8639 12.3049 8.23996 11.44Z" fill="#ED0013"/>
<path fill-rule="evenodd" clip-rule="evenodd" d="M7.11995 14C7.13073 14.2334 7.0774 14.4467 6.95995 14.64C6.84249 14.8333 6.78916 15.0466 6.79995 15.28C6.67644 15.471 6.51644 15.631 6.31995 15.76C6.40172 15.0797 6.66839 14.4931 7.11995 14Z" fill="#C2E8ED"/>
<path fill-rule="evenodd" clip-rule="evenodd" d="M21.2 11.12C21.7332 12.2933 22.2667 13.4667 22.8 14.64C23.0579 15.2093 23.2712 15.796 23.44 16.4C23.3412 16.4178 23.2612 16.471 23.2 16.56C23.1057 16.1819 22.8657 16.0219 22.48 16.08C22.5307 15.2525 22.4241 14.4525 22.16 13.68C22 13.68 21.84 13.68 21.68 13.68C21.5235 12.8308 21.3635 11.9775 21.2 11.12Z" fill="#DBEFF3"/>
<path fill-rule="evenodd" clip-rule="evenodd" d="M10.16 13.68C9.99183 14.3722 9.80517 15.0656 9.6 15.76C9.4293 16.1107 9.1893 16.3773 8.88 16.56C9.27845 15.5743 9.70512 14.6143 10.16 13.68Z" fill="#CAF0F7"/>
<path fill-rule="evenodd" clip-rule="evenodd" d="M8.24003 17.84C8.02261 17.9211 7.86261 18.0811 7.76003 18.32C7.42426 19.1038 7.13091 19.9038 6.88003 20.72C6.77336 20.9333 6.66671 20.9333 6.56003 20.72C6.45429 19.5104 6.32096 18.2838 6.16003 17.04C6.51191 16.4977 6.72523 15.911 6.80003 15.28C6.78925 15.0466 6.84258 14.8332 6.96003 14.64C7.11338 14.7124 7.24671 14.8191 7.36003 14.96C7.41336 14.64 7.46671 14.32 7.52003 14C7.55991 14.1798 7.63991 14.3398 7.76003 14.48C7.97247 14.2147 8.13247 13.9214 8.24003 13.6C8.23623 12.859 8.23623 12.139 8.24003 11.44C8.26557 11.1755 8.37224 10.9622 8.56003 10.8C8.75997 11.2009 8.86663 11.6276 8.88003 12.08C9.09157 12.1072 9.27823 12.0538 9.44003 11.92C9.58327 11.5513 9.71659 11.1779 9.84003 10.8C10.0963 10.632 10.2296 10.7386 10.24 11.12C10.4028 10.8198 10.5361 10.4998 10.64 10.16C10.6934 10.3733 10.7467 10.5866 10.8 10.8C10.6038 11.4373 10.4171 12.0773 10.24 12.72C10.1265 12.9557 9.93984 13.0624 9.68003 13.04C9.70384 13.5372 9.62384 14.0172 9.44003 14.48C9.38927 14.1918 9.28259 14.1385 9.12003 14.32C9.04031 13.7893 9.01363 13.256 9.04003 12.72C8.85203 12.6849 8.69203 12.7383 8.56003 12.88C8.85202 13.4203 8.95869 14.0069 8.88003 14.64C8.3281 14.521 8.06144 14.7343 8.08003 15.28C8.24003 15.28 8.40003 15.28 8.56003 15.28C8.55624 16.1477 8.44959 17.0011 8.24003 17.84Z" fill="#ED0013"/>
<path fill-rule="evenodd" clip-rule="evenodd" d="M10.8001 12.24C10.9576 12.8067 11.1976 13.3401 11.5201 13.84C11.6534 13.68 11.7867 13.52 11.9201 13.36C12.0944 13.5026 12.0944 13.6626 11.9201 13.84C11.9932 13.9676 12.0998 14.0209 12.2401 14C12.1773 14.2854 12.0706 14.5521 11.9201 14.8C11.3754 15.8763 11.2954 16.9963 11.6801 18.16C12.0215 18.9238 12.4215 19.6438 12.8801 20.32C13.6298 20.832 14.4298 21.232 15.2801 21.52C15.9313 21.6283 16.5714 21.7883 17.2001 22C16.7785 22.1027 16.3517 22.2094 15.9201 22.32C15.2498 22.1458 14.5831 21.9858 13.9201 21.84C13.8107 22.0454 13.8373 22.2322 14.0001 22.4C13.7386 22.479 13.4719 22.5056 13.2001 22.48C13.2001 22.4267 13.2001 22.3733 13.2001 22.32C13.4011 22.3262 13.5611 22.2462 13.6801 22.08C12.9342 21.6138 12.2675 21.0538 11.6801 20.4C11.1695 20.5878 10.7695 20.9078 10.4801 21.36C10.4267 21.36 10.3734 21.36 10.3201 21.36C10.1601 21.36 10.0001 21.36 9.84006 21.36C9.06697 20.9918 8.85363 20.4053 9.20006 19.6C9.04353 19.2357 8.93687 18.8624 8.88006 18.48C9.04006 18.48 9.20006 18.48 9.36006 18.48C9.36006 18.2667 9.36006 18.0533 9.36006 17.84C9.20006 17.84 9.04006 17.84 8.88006 17.84C8.91443 18.1086 8.80775 18.2686 8.56006 18.32C8.66673 17.7867 8.77339 17.2533 8.88006 16.72C8.88006 16.6667 8.88006 16.6133 8.88006 16.56C9.18935 16.3773 9.42935 16.1107 9.60006 15.76C9.80523 15.0656 9.99188 14.3722 10.1601 13.68C10.2468 13.134 10.4601 12.654 10.8001 12.24Z" fill="#EDF1F1"/>
<path fill-rule="evenodd" clip-rule="evenodd" d="M6.32002 15.76C6.14464 16.5011 5.87797 17.1946 5.52002 17.84C5.65044 17.257 5.78376 16.6702 5.92002 16.08C6.03335 15.9391 6.16668 15.8325 6.32002 15.76Z" fill="#C7E9F1"/>
<path fill-rule="evenodd" clip-rule="evenodd" d="M24.72 19.12C24.4 18.48 24.08 17.84 23.76 17.2C23.6972 16.9146 23.5906 16.648 23.44 16.4C23.2712 15.796 23.058 15.2094 22.8 14.64C22.8648 14.472 22.9714 14.472 23.12 14.64C23.2776 15.0035 23.4111 15.3769 23.52 15.76C24.1184 16.0107 24.2517 16.3575 23.92 16.8C24.2567 17.5525 24.5234 18.3258 24.72 19.12Z" fill="#ED0013"/>
<path fill-rule="evenodd" clip-rule="evenodd" d="M23.76 17.2C24.08 17.84 24.4 18.48 24.72 19.12C24.72 19.2267 24.72 19.3333 24.72 19.44C24.4509 19.2277 24.2376 18.961 24.08 18.64C23.9962 18.3511 23.8894 18.0845 23.76 17.84C23.76 17.6267 23.76 17.4133 23.76 17.2Z" fill="#BAE6F0"/>
<path fill-rule="evenodd" clip-rule="evenodd" d="M20.88 17.84C20.9152 18.304 20.8086 18.7307 20.56 19.12C19.9323 18.9443 19.2923 18.8376 18.64 18.8C18.6309 18.6226 18.5776 18.4626 18.48 18.32C19.056 18.4071 19.616 18.5671 20.16 18.8C20.5173 18.5643 20.7573 18.2443 20.88 17.84Z" fill="#D3F2F5"/>
<path fill-rule="evenodd" clip-rule="evenodd" d="M15.6 18.8C16.6133 18.8 17.6267 18.8 18.64 18.8C18.6262 18.9593 18.6797 19.0926 18.8 19.2C19.1099 19.2195 19.3232 19.3528 19.44 19.6C18.4088 19.224 17.3421 19.0105 16.24 18.96C15.9841 19.0029 15.7708 18.9494 15.6 18.8Z" fill="#DDF9FB"/>
<path fill-rule="evenodd" clip-rule="evenodd" d="M23.76 17.84C23.8894 18.0845 23.9961 18.3511 24.08 18.64C24.0649 19.2218 23.9582 19.7818 23.76 20.32C23.8811 20.5619 24.0411 20.7754 24.24 20.96C23.9243 21.0392 23.6043 21.0659 23.28 21.04C23.28 21.2533 23.28 21.4667 23.28 21.68C23.6289 21.6455 23.8955 21.7787 24.08 22.08C23.9659 22.5322 23.8592 22.9856 23.76 23.44C23.6532 23.3867 23.5467 23.3333 23.44 23.28C22.9212 22.3343 22.228 21.5343 21.36 20.88C21.3067 20.7733 21.2532 20.6667 21.2 20.56C21.447 20.5925 21.6604 20.6992 21.84 20.88C21.9467 20.8267 22.0532 20.7733 22.16 20.72C22.2849 20.9179 22.4449 21.0779 22.64 21.2C23.0275 20.9117 23.1608 20.5384 23.04 20.08C22.9264 20.3157 22.7398 20.4224 22.48 20.4C22.4608 20.0426 22.514 19.6959 22.64 19.36C23.0534 18.8477 23.4267 18.341 23.76 17.84Z" fill="#E6EAE8"/>
<path fill-rule="evenodd" clip-rule="evenodd" d="M8.87994 16.72C8.77327 17.2533 8.66661 17.7867 8.55994 18.32C8.25689 19.0608 7.88356 19.7541 7.43994 20.4C7.70487 19.5491 7.97154 18.6958 8.23994 17.84C8.49597 17.4875 8.7093 17.1142 8.87994 16.72Z" fill="#CEEFF7"/>
<path fill-rule="evenodd" clip-rule="evenodd" d="M16.24 18.96C17.3421 19.0106 18.4088 19.224 19.44 19.6C19.9999 19.96 20.5864 20.28 21.2 20.56C21.2533 20.6667 21.3067 20.7733 21.36 20.88C21.0479 20.8363 20.8079 20.9429 20.64 21.2C20.4211 20.9611 20.3944 20.7211 20.56 20.48C20.2807 20.4047 20.0139 20.2979 19.76 20.16C18.2682 20.1599 16.7749 20.1864 15.28 20.24C15.28 20.08 15.28 19.92 15.28 19.76C16.1882 19.7866 17.0949 19.7599 18 19.68C17.9269 19.6138 17.8735 19.5338 17.84 19.44C17.2607 19.3579 16.7274 19.1979 16.24 18.96Z" fill="#ED0013"/>
<path fill-rule="evenodd" clip-rule="evenodd" d="M19.4399 19.6C20.2715 19.5226 20.8582 19.8426 21.1999 20.56C20.5863 20.28 19.9998 19.96 19.4399 19.6Z" fill="#D2F3F8"/>
<path fill-rule="evenodd" clip-rule="evenodd" d="M9.84 21.36C9.57333 21.8933 9.30667 22.4267 9.04 22.96C8.87176 23.3909 8.71176 23.8176 8.56 24.24C7.7144 24.3909 6.88773 24.4443 6.08 24.4C6.05333 24.32 6.02667 24.24 6 24.16C6.71814 22.9914 7.19814 21.7381 7.44 20.4C7.88362 19.7541 8.25694 19.0608 8.56 18.32C8.8077 18.2687 8.91437 18.1087 8.88 17.84C9.04 17.84 9.2 17.84 9.36 17.84C9.36 18.0533 9.36 18.2667 9.36 18.48C9.2 18.48 9.04 18.48 8.88 18.48C8.93682 18.8624 9.04347 19.2357 9.2 19.6C8.85357 20.4053 9.06691 20.9919 9.84 21.36Z" fill="#E5E5E5"/>
<path fill-rule="evenodd" clip-rule="evenodd" d="M13.2 22.32C12.8185 21.8575 12.3918 21.4042 11.92 20.96C11.4166 20.9978 10.9366 21.1311 10.48 21.36C10.7694 20.9079 11.1694 20.5879 11.68 20.4C12.2674 21.0538 12.9341 21.6138 13.68 22.08C13.561 22.2463 13.401 22.3263 13.2 22.32Z" fill="#ED0013"/>
<path fill-rule="evenodd" clip-rule="evenodd" d="M24.72 19.12C25.2371 19.4376 25.5038 19.9176 25.52 20.56C25.9566 20.6499 26.1966 20.9165 26.24 21.36C26.5147 21.1219 26.7014 20.8286 26.8 20.48C26.9331 20.3699 27.0397 20.3966 27.12 20.56C26.8886 20.8989 26.7819 21.2722 26.8 21.68C26.96 21.68 27.12 21.68 27.28 21.68C27.5339 21.133 27.6405 20.5464 27.6 19.92C28.0312 20.4126 28.2445 20.9992 28.24 21.68C28.1245 21.6131 28.0445 21.5066 28 21.36C27.8864 21.5957 27.6998 21.7024 27.44 21.68C27.44 22.1067 27.44 22.5333 27.44 22.96C27.7121 23.0346 27.9521 23.0346 28.16 22.96C28.1867 23.0667 28.2133 23.1733 28.24 23.28C28.08 23.5467 27.92 23.8133 27.76 24.08C28.1857 24.3488 28.159 24.5621 27.68 24.72C27.5565 24.6968 27.4497 24.6435 27.36 24.56C27.1973 24.8602 27.0638 25.1802 26.96 25.52C26.8182 25.388 26.7649 25.228 26.8 25.04C26.3984 25.1114 26.0784 25.0048 25.84 24.72C26.16 24.72 26.48 24.72 26.8 24.72C26.8 24.56 26.8 24.4 26.8 24.24C26.4704 23.4208 26.0971 22.6208 25.68 21.84C25.4053 21.0235 25.0853 20.2235 24.72 19.44C24.72 19.3333 24.72 19.2267 24.72 19.12Z" fill="#ED0013"/>
<path fill-rule="evenodd" clip-rule="evenodd" d="M13.2001 22.32C13.2001 22.3733 13.2001 22.4267 13.2001 22.48C12.9232 22.5642 12.7099 22.7242 12.5601 22.96C12.0721 23.2879 11.6988 23.7146 11.4401 24.24C11.2801 24.4533 11.1201 24.6667 10.9601 24.88C10.7494 24.5629 10.7494 24.2429 10.9601 23.92C10.6521 23.6373 10.4388 23.2906 10.3201 22.88C10.9308 22.6965 11.3042 22.2965 11.4401 21.68C10.9647 21.7707 10.5113 21.9307 10.0801 22.16C9.87899 22.5087 9.63899 22.8287 9.36006 23.12C9.49577 23.4255 9.54911 23.7455 9.52006 24.08C9.29118 24.0927 9.07785 24.0394 8.88006 23.92C8.75345 24.0106 8.75345 24.1439 8.88006 24.32C8.82628 24.4848 8.71961 24.5648 8.56006 24.56C8.56006 24.4533 8.56006 24.3467 8.56006 24.24C8.71182 23.8176 8.87182 23.3909 9.04006 22.96C9.52265 22.4768 9.94932 21.9434 10.3201 21.36C10.3734 21.36 10.4267 21.36 10.4801 21.36C10.9367 21.1311 11.4167 20.9978 11.9201 20.96C12.3919 21.4042 12.8186 21.8575 13.2001 22.32Z" fill="#ED0013"/>
<path fill-rule="evenodd" clip-rule="evenodd" d="M15.28 21.52C16.3951 21.4509 17.4616 21.6109 18.48 22C18.6933 22.16 18.9067 22.32 19.12 22.48C18.4872 22.2857 17.8472 22.1257 17.2 22C16.5714 21.7883 15.9313 21.6283 15.28 21.52Z" fill="#D3F4F9"/>
<path fill-rule="evenodd" clip-rule="evenodd" d="M9.84004 21.36C10 21.36 10.16 21.36 10.32 21.36C9.9493 21.9433 9.52263 22.4768 9.04004 22.96C9.30671 22.4267 9.57337 21.8933 9.84004 21.36Z" fill="#CCEBF6"/>
<path fill-rule="evenodd" clip-rule="evenodd" d="M6.79999 15.28C6.72519 15.9111 6.51186 16.4978 6.15999 17.04C6.32092 18.2839 6.45425 19.5104 6.55999 20.72C6.66666 20.9333 6.77332 20.9333 6.87999 20.72C7.13087 19.9039 7.42421 19.1039 7.75999 18.32C7.86257 18.0811 8.02257 17.9211 8.23999 17.84C7.97159 18.6959 7.70492 19.5491 7.43999 20.4C6.87314 21.3203 6.39314 22.2803 5.99999 23.28C5.77047 22.7584 5.71714 22.2251 5.83999 21.68C5.99999 21.68 6.15999 21.68 6.31999 21.68C6.35149 20.6448 6.21815 19.6315 5.91999 18.64C5.68471 18.781 5.55138 18.9943 5.51999 19.28C5.62914 19.6546 5.73581 20.0279 5.83999 20.4C5.67999 20.4 5.51999 20.4 5.35999 20.4C5.3901 20.1435 5.3101 19.9301 5.11999 19.76C5.03978 20.4016 4.95978 21.0416 4.87999 21.68C5.40407 21.7411 5.40407 21.9544 4.87999 22.32C4.70213 21.9091 4.48881 21.5357 4.23999 21.2C4.46226 20.489 4.72892 19.7957 5.03999 19.12C5.2613 18.7235 5.4213 18.2968 5.51999 17.84C5.87794 17.1946 6.14461 16.5011 6.31999 15.76C6.51649 15.631 6.67649 15.471 6.79999 15.28Z" fill="#ED0013"/>
<path fill-rule="evenodd" clip-rule="evenodd" d="M24.08 18.64C24.2376 18.961 24.4509 19.2277 24.72 19.44C25.0853 20.2235 25.4053 21.0235 25.68 21.84C25.8955 22.6962 26.1088 23.5495 26.32 24.4C25.6247 24.4266 24.9314 24.3999 24.24 24.32C23.9744 24.0819 23.8144 23.7887 23.76 23.44C23.8592 22.9856 23.9659 22.5322 24.08 22.08C23.8955 21.7787 23.629 21.6455 23.28 21.68C23.28 21.4667 23.28 21.2533 23.28 21.04C23.6043 21.0659 23.9243 21.0392 24.24 20.96C24.0411 20.7754 23.8811 20.5619 23.76 20.32C23.9583 19.7818 24.065 19.2218 24.08 18.64Z" fill="#DFE1E3"/>
<path fill-rule="evenodd" clip-rule="evenodd" d="M28.5601 21.68C28.8077 21.7314 28.9145 21.8914 28.8801 22.16C28.9661 22.4187 29.0194 22.6854 29.0401 22.96C28.7573 22.5933 28.5973 22.1667 28.5601 21.68Z" fill="#AFD9E6"/>
<path fill-rule="evenodd" clip-rule="evenodd" d="M17.2 22C17.8472 22.1258 18.4872 22.2858 19.12 22.48C19.4552 22.6259 19.7752 22.8127 20.08 23.04C20.2917 23.1706 20.3983 23.3573 20.4 23.6C19.8851 23.5239 19.4317 23.3106 19.04 22.96C18.8786 23.204 18.7986 23.4707 18.8 23.76C19.2845 24.081 19.8178 24.2944 20.4 24.4C20.4 24.6133 20.4 24.8267 20.4 25.04C19.613 25.2205 19.0264 24.9805 18.64 24.32C18.4883 24.2427 18.3283 24.2162 18.16 24.24C18.2101 23.8005 18.1568 23.3738 18 22.96C17.8415 23.5912 17.7882 24.2312 17.84 24.88C17.4133 24.88 16.9867 24.88 16.56 24.88C16.56 25.04 16.56 25.2 16.56 25.36C16.1333 25.36 15.7067 25.36 15.28 25.36C15.28 25.2 15.28 25.04 15.28 24.88C14.3368 24.7914 13.4301 24.8979 12.56 25.2C12.17 24.9711 11.9033 24.6511 11.76 24.24C12.0267 23.8133 12.2933 23.3867 12.56 22.96C12.7098 22.7242 12.9232 22.5642 13.2 22.48C13.4719 22.5056 13.7386 22.4791 14 22.4C13.8373 22.2322 13.8106 22.0455 13.92 21.84C14.583 21.9858 15.2497 22.1458 15.92 22.32C16.3517 22.2095 16.7784 22.1027 17.2 22Z" fill="#EAEBEB"/>
<path fill-rule="evenodd" clip-rule="evenodd" d="M3.76 22C3.57746 22.8145 3.25746 23.5613 2.8 24.24C2.76595 23.7678 2.87263 23.3411 3.12 22.96C3.24893 22.7205 3.35559 22.4537 3.44 22.16C3.51311 22.0323 3.61978 21.979 3.76 22Z" fill="#B9DDE8"/>
<path fill-rule="evenodd" clip-rule="evenodd" d="M12.5599 22.96C12.2933 23.3867 12.0266 23.8133 11.7599 24.24C11.6533 24.24 11.5466 24.24 11.4399 24.24C11.6987 23.7146 12.072 23.2879 12.5599 22.96Z" fill="#B3E6EF"/>
<path fill-rule="evenodd" clip-rule="evenodd" d="M5.99997 23.28C5.89329 23.6 5.78664 23.92 5.67997 24.24C5.53533 24.3535 5.482 24.5135 5.51997 24.72C6.51037 24.7717 7.47037 24.7184 8.39997 24.56C8.45329 24.56 8.50664 24.56 8.55997 24.56C8.71952 24.5648 8.82619 24.4848 8.87997 24.32C8.75336 24.1439 8.75336 24.0106 8.87997 23.92C9.07776 24.0394 9.29109 24.0927 9.51997 24.08C9.54902 23.7455 9.49568 23.4255 9.35997 23.12C9.63889 22.8287 9.87889 22.5087 10.08 22.16C10.5112 21.9307 10.9646 21.7707 11.44 21.68C11.3041 22.2965 10.9307 22.6965 10.32 22.88C10.4387 23.2906 10.652 23.6373 10.96 23.92C10.7493 24.2429 10.7493 24.5629 10.96 24.88C10.7527 25.6099 10.646 26.3567 10.64 27.12C10.5866 27.12 10.5333 27.12 10.48 27.12C7.54166 27.2245 4.66166 27.1179 1.83997 26.8C2.24889 25.9818 2.56889 25.1285 2.79997 24.24C3.25742 23.5613 3.57742 22.8146 3.75997 22C3.95785 21.7656 4.11785 21.4989 4.23997 21.2C4.48878 21.5357 4.70211 21.9091 4.87997 22.32C5.40405 21.9544 5.40405 21.7411 4.87997 21.68C4.95976 21.0416 5.03976 20.4016 5.11997 19.76C5.31008 19.9301 5.39008 20.1435 5.35997 20.4C5.51997 20.4 5.67997 20.4 5.83997 20.4C5.73579 20.0279 5.62912 19.6546 5.51997 19.28C5.55136 18.9943 5.68469 18.781 5.91997 18.64C6.21813 19.6315 6.35147 20.6448 6.31997 21.68C6.15997 21.68 5.99997 21.68 5.83997 21.68C5.71712 22.2251 5.77045 22.7584 5.99997 23.28Z" fill="#ED0013"/>
<path fill-rule="evenodd" clip-rule="evenodd" d="M7.44005 20.4C7.1982 21.7381 6.7182 22.9914 6.00005 24.16C6.02673 24.24 6.05338 24.32 6.08005 24.4C6.88778 24.4443 7.71445 24.3909 8.56005 24.24C8.56005 24.3467 8.56005 24.4533 8.56005 24.56C8.50673 24.56 8.45338 24.56 8.40005 24.56C7.42434 24.6587 6.51767 24.552 5.68005 24.24C5.78673 23.92 5.89338 23.6 6.00005 23.28C6.39321 22.2803 6.87321 21.3203 7.44005 20.4Z" fill="#C4E3EC"/>
<path fill-rule="evenodd" clip-rule="evenodd" d="M5.68002 24.24C6.51764 24.552 7.42431 24.6587 8.40002 24.56C7.47042 24.7184 6.51042 24.7717 5.52002 24.72C5.48205 24.5134 5.53538 24.3534 5.68002 24.24Z" fill="#ED0013"/>
<path fill-rule="evenodd" clip-rule="evenodd" d="M30.64 27.12C30.64 27.1733 30.64 27.2267 30.64 27.28C27.7067 27.28 24.7733 27.28 21.84 27.28C21.8902 25.828 21.4102 24.6014 20.4 23.6C20.3982 23.3573 20.2917 23.1706 20.08 23.04C19.7752 22.8126 19.4552 22.6259 19.12 22.48C18.9067 22.32 18.6933 22.16 18.48 22C18.7987 22.0275 19.0653 21.9208 19.28 21.68C19.4694 21.9274 19.6294 22.1941 19.76 22.48C19.9577 22.3606 20.1712 22.3074 20.4 22.32C20.3761 22.1517 20.4027 21.9917 20.48 21.84C20.8267 22.1867 21.1733 22.5333 21.52 22.88C21.1505 23.001 20.8305 22.921 20.56 22.64C20.5067 22.6933 20.4533 22.7467 20.4 22.8C20.72 23.0667 21.04 23.3333 21.36 23.6C21.4707 23.516 21.5507 23.4093 21.6 23.28C21.7056 23.6875 21.6789 24.0875 21.52 24.48C21.6763 24.7195 21.8363 24.9595 22 25.2C21.7473 25.9088 21.9073 26.0688 22.48 25.68C22.5737 25.7134 22.6537 25.7669 22.72 25.84C22.748 26.2651 22.7213 26.6918 22.64 27.12C25.3067 27.12 27.9733 27.12 30.64 27.12Z" fill="#ED0013"/>
<path fill-rule="evenodd" clip-rule="evenodd" d="M19.12 13.2C19.3867 13.4133 19.6533 13.6267 19.92 13.84C20.2998 14.3919 20.6198 14.9786 20.88 15.6C20.88 16.3467 20.88 17.0933 20.88 17.84C20.7573 18.2443 20.5173 18.5643 20.16 18.8C19.616 18.567 19.056 18.407 18.48 18.32C18.3025 18.1936 18.0893 18.1136 17.84 18.08C18.8472 16.1742 18.2872 15.0275 16.16 14.64C15.6046 14.6646 15.1513 14.878 14.8 15.28C13.9826 15.9627 13.796 16.816 14.24 17.84C14.3533 17.981 14.4867 18.0875 14.64 18.16C14.8484 18.5315 15.1684 18.7448 15.6 18.8C15.7708 18.9494 15.9842 19.0029 16.24 18.96C16.7273 19.1979 17.2606 19.3579 17.84 19.44C17.8734 19.5338 17.9269 19.6138 18 19.68C17.0949 19.7598 16.1881 19.7866 15.28 19.76C15.28 19.92 15.28 20.08 15.28 20.24C16.7749 20.1864 18.2681 20.1598 19.76 20.16C20.0139 20.2979 20.2806 20.4046 20.56 20.48C20.3944 20.7211 20.4211 20.9611 20.64 21.2C20.8078 20.9429 21.0478 20.8363 21.36 20.88C22.228 21.5342 22.9213 22.3342 23.44 23.28C23.6459 23.745 23.8059 24.225 23.92 24.72C24.56 24.72 25.2 24.72 25.84 24.72C26.0784 25.0048 26.3984 25.1114 26.8 25.04C26.7649 25.228 26.8182 25.388 26.96 25.52C27.0638 25.1802 27.1973 24.8602 27.36 24.56C27.4497 24.6435 27.5565 24.6968 27.68 24.72C28.159 24.5621 28.1857 24.3488 27.76 24.08C27.92 23.8133 28.08 23.5467 28.24 23.28C28.2133 23.1733 28.1867 23.0667 28.16 22.96C27.9521 23.0346 27.7121 23.0346 27.44 22.96C27.44 22.5333 27.44 22.1067 27.44 21.68C27.6998 21.7024 27.8864 21.5957 28 21.36C28.0445 21.5066 28.1245 21.6131 28.24 21.68C28.3467 21.68 28.4533 21.68 28.56 21.68C28.5973 22.1667 28.7573 22.5933 29.04 22.96C29.6032 24.3288 30.1365 25.7154 30.64 27.12C27.9733 27.12 25.3067 27.12 22.64 27.12C22.7213 26.6918 22.748 26.2651 22.72 25.84C22.6537 25.7669 22.5737 25.7134 22.48 25.68C21.9073 26.0688 21.7473 25.9088 22 25.2C21.8363 24.9595 21.6763 24.7195 21.52 24.48C21.6789 24.0875 21.7056 23.6875 21.6 23.28C21.5507 23.4093 21.4707 23.516 21.36 23.6C21.04 23.3333 20.72 23.0667 20.4 22.8C20.4533 22.7467 20.5067 22.6933 20.56 22.64C20.8305 22.921 21.1505 23.001 21.52 22.88C21.1733 22.5333 20.8267 22.1867 20.48 21.84C20.4027 21.9917 20.3761 22.1517 20.4 22.32C20.1712 22.3074 19.9577 22.3606 19.76 22.48C19.6294 22.1941 19.4694 21.9274 19.28 21.68C19.0653 21.9208 18.7987 22.0275 18.48 22C17.4616 21.6109 16.395 21.4509 15.28 21.52C14.4298 21.232 13.6298 20.832 12.88 20.32C12.4214 19.6438 12.0214 18.9238 11.68 18.16C11.2953 16.9963 11.3753 15.8764 11.92 14.8C12.2789 14.5776 12.6256 14.311 12.96 14C13.2674 14.2405 13.6141 14.3471 14 14.32C14 14.16 14 14 14 13.84C13.84 13.84 13.68 13.84 13.52 13.84C13.5041 13.4226 13.6107 13.0493 13.84 12.72C13.8933 12.72 13.9467 12.72 14 12.72C14.5533 12.6048 15.1133 12.4982 15.68 12.4C16.1008 12.3942 16.5008 12.4742 16.88 12.64C16.3901 12.7586 15.9101 12.732 15.44 12.56C15.2983 12.692 15.245 12.852 15.28 13.04C15.8691 13.0136 16.4557 13.0402 17.04 13.12C17.1782 13.3914 17.3915 13.5781 17.68 13.68C17.8963 13.3382 18.1629 13.2848 18.48 13.52C18.6438 13.3035 18.8571 13.1968 19.12 13.2Z" fill="#ED0013"/>
<path fill-rule="evenodd" clip-rule="evenodd" d="M26.8 24.24C26.7939 23.6878 26.6872 23.1546 26.48 22.64C26.5333 22.5333 26.5867 22.4267 26.64 22.32C26.7886 22.5102 26.8419 22.7235 26.8 22.96C26.96 22.96 27.12 22.96 27.28 22.96C27.2771 23.4778 27.1171 23.9045 26.8 24.24Z" fill="#ED0013"/>
<path fill-rule="evenodd" clip-rule="evenodd" d="M25.6799 21.84C26.0971 22.6208 26.4703 23.4208 26.7999 24.24C26.7999 24.4 26.7999 24.56 26.7999 24.72C26.4799 24.72 26.1599 24.72 25.8399 24.72C25.1999 24.72 24.5599 24.72 23.9199 24.72C23.8059 24.225 23.6459 23.745 23.4399 23.28C23.5467 23.3333 23.6532 23.3867 23.7599 23.44C23.8143 23.7887 23.9743 24.0819 24.2399 24.32C24.9313 24.3999 25.6246 24.4266 26.3199 24.4C26.1087 23.5495 25.8955 22.6962 25.6799 21.84Z" fill="#ACDCE8"/>
<path fill-rule="evenodd" clip-rule="evenodd" d="M14.8 15.28C14.632 15.8173 14.472 16.3506 14.32 16.88C14.3345 17.3338 14.4411 17.7605 14.64 18.16C14.4866 18.0875 14.3533 17.981 14.24 17.84C13.7959 16.816 13.9826 15.9627 14.8 15.28Z" fill="#CDF3F7"/>
<path fill-rule="evenodd" clip-rule="evenodd" d="M11.44 24.24C11.539 25.2866 11.2724 26.2466 10.64 27.12C10.646 26.3566 10.7527 25.6099 10.96 24.88C11.12 24.6667 11.28 24.4533 11.44 24.24Z" fill="#D3E3ED"/>
<path fill-rule="evenodd" clip-rule="evenodd" d="M21.36 26.16C21.659 26.5016 21.7657 26.9283 21.68 27.44C23.3867 27.44 25.0933 27.44 26.8 27.44C25.5451 27.5467 24.2651 27.6533 22.96 27.76C22.876 27.8707 22.7693 27.9507 22.64 28C22.8757 28.1136 22.9824 28.3002 22.96 28.56C22.1067 28.6667 21.2533 28.7733 20.4 28.88C20.4 29.2 20.4 29.52 20.4 29.84C17.4133 29.84 14.4267 29.84 11.44 29.84C11.44 29.52 11.44 29.2 11.44 28.88C10.5867 28.7733 9.73331 28.6667 8.87998 28.56C8.87998 28.4 8.87998 28.24 8.87998 28.08C9.57536 28.1066 10.2687 28.0799 10.96 28C10.7061 27.8621 10.4394 27.7554 10.16 27.68C7.57248 27.653 5.01248 27.573 2.47998 27.44C5.22796 27.4928 7.94796 27.4395 10.64 27.28C10.8689 27.2674 11.0822 27.3207 11.28 27.44C11.405 27.2434 11.485 27.0301 11.52 26.8C11.8933 27.6533 12.2667 27.6533 12.64 26.8C13.0329 27.0914 13.4863 27.1981 14 27.12C14 27.28 14 27.44 14 27.6C15.28 27.6 16.56 27.6 17.84 27.6C17.84 27.44 17.84 27.28 17.84 27.12C18.7 27.1725 19.5533 27.1192 20.4 26.96C20.5451 26.4927 20.5984 26.0127 20.56 25.52C20.72 25.52 20.88 25.52 21.04 25.52C20.9899 25.9595 21.0432 26.3863 21.2 26.8C21.3486 26.6098 21.4019 26.3965 21.36 26.16Z" fill="#DDDDDD"/>
<path fill-rule="evenodd" clip-rule="evenodd" d="M1.84005 26.8C4.66175 27.1179 7.54175 27.2245 10.48 27.12C7.62795 27.2795 4.74795 27.3328 1.84005 27.28C1.62672 27.12 1.62672 26.96 1.84005 26.8Z" fill="#ED0013"/>
<path fill-rule="evenodd" clip-rule="evenodd" d="M10.48 27.12C10.5333 27.12 10.5866 27.12 10.64 27.12C10.64 27.1733 10.64 27.2267 10.64 27.28C7.94795 27.4395 5.22795 27.4928 2.47997 27.44C2.22413 27.4829 2.01078 27.4294 1.83997 27.28C4.74787 27.3328 7.62787 27.2795 10.48 27.12Z" fill="#BBDDE7"/>
<path fill-rule="evenodd" clip-rule="evenodd" d="M20.4 23.6C21.4103 24.6014 21.8903 25.828 21.84 27.28C24.7733 27.28 27.7067 27.28 30.64 27.28C29.3895 27.4387 28.1095 27.4921 26.8 27.44C25.0933 27.44 23.3867 27.44 21.68 27.44C21.7658 26.9283 21.6591 26.5016 21.36 26.16C21.3563 25.7717 21.2763 25.3984 21.12 25.04C20.7125 24.6443 20.4725 24.1643 20.4 23.6Z" fill="#BBDFE8"/>
</g>
</svg>
