<svg width="32" height="32" viewBox="0 0 32 32" fill="none" xmlns="http://www.w3.org/2000/svg">
    <path fill-rule="evenodd" clip-rule="evenodd"
        d="M0 0C10.6667 0 21.3333 0 32 0C32 10.6667 32 21.3333 32 32C21.3333 32 10.6667 32 0 32C0 21.3333 0 10.6667 0 0Z"
        fill="#F4F5F6" />
    <path fill-rule="evenodd" clip-rule="evenodd"
        d="M29.9937 5.32259C28.5438 5.29346 27.0948 5.32262 25.647 5.41011C25.374 6.2089 25.0673 6.99659 24.7275 7.77319C24.4698 6.99323 24.1634 6.23472 23.8079 5.49763C21.8606 5.32278 19.9102 5.26444 17.9565 5.32259C17.9843 6.08334 17.9563 6.84185 17.8729 7.59814C17.5825 6.89059 17.2761 6.19041 16.9534 5.49763C15.3372 5.26425 13.7212 5.26425 12.1051 5.49763C10.5045 9.14223 8.94409 12.8181 7.42394 16.5253C8.70086 16.6998 9.9826 16.7583 11.2692 16.7004C11.2692 19.9679 11.2692 23.2352 11.2692 26.5028C15.1706 26.532 19.0715 26.5028 22.972 26.4152C23.4261 25.8444 23.8997 25.2901 24.3931 24.7523C24.9287 25.2545 25.4024 25.8087 25.8141 26.4152C27.2063 26.5028 28.5994 26.5318 29.9937 26.5028C30.0215 27.5546 29.9936 28.6048 29.9101 29.6535C29.7259 30.3929 29.308 30.918 28.6563 31.2289C19.7516 31.4323 10.8351 31.4614 1.90688 31.3164C1.21027 31.0539 0.736593 30.558 0.485818 29.8286C0.374356 20.5513 0.374356 11.274 0.485818 1.99678C0.736593 1.26743 1.21027 0.771477 1.90688 0.508912C10.7676 0.392211 19.6284 0.392211 28.4891 0.508912C29.1857 0.771477 29.6594 1.26743 29.9101 1.99678C29.9937 3.10385 30.0215 4.21245 29.9937 5.32259Z"
        fill="#066ECE" />
    <path fill-rule="evenodd" clip-rule="evenodd"
        d="M29.9937 5.32231C30.0369 5.61816 30.0369 5.96825 29.9937 6.37256C30.1609 6.37256 30.3281 6.37256 30.4953 6.37256C30.5488 6.96743 30.4931 7.5509 30.3281 8.12299C30.2164 7.69084 30.1049 7.28242 29.9937 6.89769C28.8778 6.86858 27.7632 6.89776 26.6501 6.98521C26.0407 8.72515 25.3999 10.4464 24.7275 12.149C24.1191 10.4129 23.4783 8.69169 22.8049 6.98521C21.6917 6.89776 20.5771 6.86858 19.4612 6.89769C19.4891 9.58232 19.4612 12.2663 19.3776 14.9497C18.2359 12.2979 17.0934 9.64304 15.9503 6.98521C15.0587 6.86851 14.167 6.86851 13.2754 6.98521C12.0436 9.59312 10.929 12.2479 9.93171 14.9497C10.6562 15.183 11.3806 15.183 12.1051 14.9497C12.3048 14.5556 12.472 14.1471 12.6066 13.7244C13.9394 13.5497 15.2769 13.4914 16.6191 13.5493C16.6899 14.0489 16.8571 14.5157 17.1206 14.9497C18.5652 15.1243 20.0142 15.1826 21.4674 15.1247C21.4395 13.0817 21.4674 11.0395 21.551 8.9982C22.3083 10.9683 23.0327 12.9522 23.7244 14.9497C24.4041 15.1184 25.1008 15.1767 25.8142 15.1247C26.3324 13.3391 26.9453 11.5886 27.6532 9.87342C27.8194 11.6507 27.8752 13.4594 27.8204 15.2997C28.5448 15.2997 29.2693 15.2997 29.9937 15.2997C29.9105 15.8566 30.0498 16.3232 30.4117 16.7001C30.495 17.2221 30.5229 17.7472 30.4953 18.2755C30.9969 18.2755 31.4984 18.2755 32 18.2755C32 18.8589 32 19.4425 32 20.0259C31.4984 20.0259 30.9969 20.0259 30.4953 20.0259C30.563 20.6469 30.4794 21.2304 30.2445 21.7763C30.2163 20.6632 30.1327 19.5545 29.9937 18.4505C29.8923 18.4722 29.8366 18.5305 29.8266 18.6256C29.1919 19.3779 28.5232 20.1071 27.8204 20.8136C28.5232 21.5201 29.1919 22.2493 29.8266 23.0016C29.9538 23.1576 30.121 23.2743 30.3281 23.3517C30.4931 23.9237 30.5488 24.5073 30.4953 25.1021C30.9969 25.1021 31.4984 25.1021 32 25.1021C32 25.6856 32 26.2691 32 26.8526C31.4984 26.8526 30.9969 26.8526 30.4953 26.8526C30.4953 27.3777 30.4953 27.9028 30.4953 28.4279C30.9969 28.4279 31.4984 28.4279 32 28.4279C32 29.0114 32 29.595 32 30.1784C31.4984 30.1784 30.9969 30.1784 30.4953 30.1784C30.4953 30.7618 30.4953 31.3454 30.4953 31.9288C29.9381 31.9288 29.3807 31.9288 28.8235 31.9288C28.8347 31.6734 28.779 31.4401 28.6563 31.2286C29.308 30.9178 29.7259 30.3926 29.9102 29.6532C29.9936 28.6046 30.0215 27.5543 29.9937 26.5025C28.5994 26.5315 27.2063 26.5025 25.8142 26.415C25.4024 25.8084 24.9288 25.2542 24.3931 24.7521C23.8997 25.2898 23.4261 25.8441 22.972 26.415C19.0715 26.5025 15.1706 26.5317 11.2692 26.5025C11.2692 23.235 11.2692 19.9676 11.2692 16.7001C9.98261 16.758 8.70087 16.6996 7.42395 16.525C8.9441 12.8178 10.5045 9.14195 12.1051 5.49735C13.7213 5.26396 15.3373 5.26396 16.9534 5.49735C17.2761 6.19013 17.5825 6.8903 17.8729 7.59786C17.9564 6.84157 17.9843 6.08306 17.9565 5.32231C19.9102 5.26416 21.8606 5.3225 23.808 5.49735C24.1634 6.23444 24.4698 6.99295 24.7275 7.77291C25.0673 6.99631 25.374 6.20862 25.647 5.40983C27.0948 5.32234 28.5438 5.29318 29.9937 5.32231Z"
        fill="#FAFCFD" />
    <path fill-rule="evenodd" clip-rule="evenodd"
        d="M29.9938 6.89787C29.9938 9.64021 29.9938 12.3825 29.9938 15.1249C29.3807 15.1249 28.7678 15.1249 28.1548 15.1249C28.2103 13.0211 28.1546 10.9206 27.9876 8.82334C27.8861 8.84497 27.8304 8.90331 27.8204 8.99838C27.7305 9.28146 27.6748 9.5732 27.6532 9.87359C26.9454 11.5888 26.3325 13.3392 25.8142 15.1249C25.1008 15.1769 24.4042 15.1186 23.7244 14.9498C23.0328 12.9523 22.3084 10.9685 21.551 8.99838C21.4674 11.0397 21.4395 13.0819 21.4674 15.1249C20.0143 15.1828 18.5653 15.1245 17.1207 14.9498C16.8572 14.5159 16.69 14.0491 16.6191 13.5495C15.277 13.4916 13.9395 13.5499 12.6067 13.7245C12.4721 14.1473 12.3049 14.5558 12.1052 14.9498C11.3807 15.1832 10.6562 15.1832 9.93176 14.9498C10.9291 12.2481 12.0436 9.5933 13.2754 6.98539C14.167 6.86869 15.0588 6.86869 15.9504 6.98539C17.0934 9.64322 18.2359 12.298 19.3776 14.9498C19.4612 12.2665 19.4892 9.5825 19.4612 6.89787C20.5772 6.86876 21.6918 6.89794 22.8049 6.98539C23.4783 8.69186 24.1191 10.4131 24.7275 12.1491C25.3999 10.4466 26.0407 8.72533 26.6501 6.98539C27.7632 6.89794 28.8779 6.86876 29.9938 6.89787Z"
        fill="#096ECE" />
    <path fill-rule="evenodd" clip-rule="evenodd"
        d="M14.4457 8.82324C14.9834 9.6864 15.4293 10.62 15.7832 11.6239C15.0108 11.7978 14.2307 11.8561 13.4426 11.799C13.7292 10.7902 14.0635 9.79828 14.4457 8.82324Z"
        fill="#F4F7FC" />
    <path fill-rule="evenodd" clip-rule="evenodd"
        d="M27.8203 8.99828C27.8303 8.90322 27.886 8.84488 27.9875 8.82324C28.1545 10.9205 28.2102 13.021 28.1547 15.1248C28.0432 13.0826 27.9318 11.0405 27.8203 8.99828Z"
        fill="#6192D6" />
    <path fill-rule="evenodd" clip-rule="evenodd"
        d="M12.9411 16.7001C12.9133 19.3847 12.9412 22.0686 13.0247 24.752C13.1083 22.1271 13.1362 19.5015 13.1083 16.8751C15.2 16.9327 17.262 16.8742 19.2941 16.7001C20.2431 16.671 21.1905 16.7003 22.1363 16.7876C22.9514 17.6117 23.7317 18.4577 24.4768 19.3257C25.2266 18.4531 26.0067 17.607 26.8174 16.7876C27.6533 16.6708 28.4892 16.6708 29.3252 16.7876C28.1855 18.1268 27.0152 19.4397 25.8143 20.7261C26.9537 22.1232 28.1239 23.4945 29.3252 24.8396C28.4284 24.9847 27.5366 24.9556 26.6502 24.752C25.9283 23.9085 25.176 23.0918 24.3932 22.3014C23.5795 23.0947 22.8272 23.9409 22.1363 24.8396C19.0159 24.9271 15.8953 24.9563 12.774 24.9271C12.7189 22.1541 12.7746 19.4117 12.9411 16.7001Z"
        fill="#146FCF" />
    <path fill-rule="evenodd" clip-rule="evenodd"
        d="M12.9411 16.7002C15.0588 16.7002 17.1764 16.7002 19.2941 16.7002C17.262 16.8744 15.1999 16.9328 13.1083 16.8752C13.1361 19.5016 13.1083 22.1272 13.0247 24.7522C12.9411 22.0688 12.9133 19.3848 12.9411 16.7002Z"
        fill="#005CCA" />
    <path fill-rule="evenodd" clip-rule="evenodd"
        d="M14.9473 23.1768C14.9473 22.7099 14.9473 22.2433 14.9473 21.7764C16.4267 21.8335 17.8757 21.7752 19.294 21.6014C19.294 21.018 19.294 20.4344 19.294 19.851C17.8451 19.851 16.3962 19.851 14.9473 19.851C14.9473 19.4426 14.9473 19.034 14.9473 18.6257C16.4823 18.6829 17.987 18.6244 19.4612 18.4506C19.4082 17.9129 19.4639 17.3878 19.6284 16.8752C20.8246 18.1571 21.9949 19.4699 23.1393 20.8137C22.0021 22.1796 20.8039 23.4924 19.5448 24.7522C19.4616 24.2302 19.4336 23.7051 19.4612 23.1768C17.9566 23.1768 16.4519 23.1768 14.9473 23.1768Z"
        fill="#FCFDFE" />
    <path fill-rule="evenodd" clip-rule="evenodd"
        d="M19.4612 18.4507C17.987 18.6245 16.4824 18.683 14.9473 18.6257C14.9473 19.0341 14.9473 19.4427 14.9473 19.851C14.7846 19.4225 14.7289 18.9557 14.7801 18.4507C16.3404 18.4507 17.9009 18.4507 19.4612 18.4507Z"
        fill="#C6DBF2" />
    <path fill-rule="evenodd" clip-rule="evenodd"
        d="M29.8265 18.6255C30.0494 20.0841 30.0494 21.5429 29.8265 23.0016C29.1919 22.2492 28.5232 21.52 27.8203 20.8135C28.5232 20.1071 29.1919 19.3778 29.8265 18.6255Z"
        fill="#046BCE" />
    <path fill-rule="evenodd" clip-rule="evenodd"
        d="M19.294 21.6013C17.8757 21.7751 16.4267 21.8334 14.9473 21.7764C14.9473 22.2432 14.9473 22.7099 14.9473 23.1767C14.7839 22.6889 14.7283 22.1637 14.7801 21.6013C16.2847 21.6013 17.7894 21.6013 19.294 21.6013Z"
        fill="#9CB1DE" />
</svg>