<svg width="32" height="32" viewBox="0 0 32 32" fill="none" xmlns="http://www.w3.org/2000/svg">
    <path
        d="M0.235526 -0.000461297H31.7643C31.804 -0.00102632 31.8431 0.00729044 31.8779 0.0236958C31.9129 0.0401012 31.9424 0.0640474 31.9636 0.0932505C31.985 0.122454 31.9973 0.15594 31.9996 0.190511C32.0018 0.225085 31.9941 0.259591 31.9766 0.29074C29.2587 5.08832 25.1616 9.18659 20.0869 12.1842C11.8898 17.0184 3.63541 17.5176 0.237967 17.5442C0.206949 17.5447 0.176115 17.54 0.14727 17.53C0.118425 17.52 0.0921488 17.5051 0.0699851 17.4861C0.0478215 17.4672 0.030216 17.4445 0.0181983 17.4194C0.00618056 17.3945 -6.79856e-06 17.3676 5.60574e-09 17.3404V0.203274C-1.68386e-06 0.176339 0.00610699 0.14967 0.017973 0.124812C0.029839 0.0999533 0.0472272 0.0773987 0.0691304 0.058452C0.0910337 0.0395052 0.117017 0.0245437 0.145579 0.0144314C0.174141 0.00431911 0.204712 -0.000743342 0.235526 -0.000461297Z"
        fill="#FF6250" />
    <path
        d="M7.04017 31.9994C10.9283 31.9994 14.0803 29.2443 14.0803 25.8458C14.0803 22.4472 10.9283 19.6921 7.04017 19.6921C3.15199 19.6921 0 22.4472 0 25.8458C0 29.2443 3.15199 31.9994 7.04017 31.9994Z"
        fill="#FFDF90" />
    <path
        d="M21.4315 31.6351C19.4399 30.9705 18.3806 29.0548 19.0555 27.3588L24.37 14.1021C25.051 12.4061 27.2171 11.5709 29.2087 12.2354C31.2003 12.9011 32.2596 14.8157 31.5848 16.5128L26.2701 29.7694C25.5892 31.4655 23.4231 32.3017 21.4315 31.6351Z"
        fill="#3366FF" />
</svg>