<svg width="32" height="32" viewBox="0 0 32 32" fill="none" xmlns="http://www.w3.org/2000/svg">
<g clip-path="url(#clip0_21_5312)">
<path fill-rule="evenodd" clip-rule="evenodd" d="M-0.0800781 -0.0800781C2.47992 -0.0800781 5.03992 -0.0800781 7.59992 -0.0800781C7.59992 0.346589 7.59992 0.773255 7.59992 1.19992C7.36347 1.158 7.15013 1.21133 6.95992 1.35992C6.85325 1.57325 6.69325 1.73325 6.47992 1.83992C6.33133 2.03013 6.278 2.24347 6.31992 2.47992C5.89325 2.47992 5.46659 2.47992 5.03992 2.47992C5.03992 2.90659 5.03992 3.33325 5.03992 3.75992C4.80347 3.718 4.59013 3.77133 4.39992 3.91992C4.29325 4.13325 4.13325 4.29325 3.91992 4.39992C3.77133 4.59013 3.718 4.80347 3.75992 5.03992C3.33325 5.03992 2.90659 5.03992 2.47992 5.03992C2.47992 5.46659 2.47992 5.89325 2.47992 6.31992C2.24347 6.278 2.03013 6.33133 1.83992 6.47992C1.73325 6.69325 1.57325 6.85325 1.35992 6.95992C1.21133 7.15013 1.158 7.36347 1.19992 7.59992C0.773255 7.59992 0.346589 7.59992 -0.0800781 7.59992C-0.0800781 5.03992 -0.0800781 2.47992 -0.0800781 -0.0800781Z" fill="#FE3C2E"/>
<path fill-rule="evenodd" clip-rule="evenodd" d="M7.59992 -0.0800781C9.73325 -0.0800781 11.8666 -0.0800781 13.9999 -0.0800781C14.2666 1.03992 13.8399 1.46659 12.7199 1.19992C12.9866 2.31992 12.5599 2.74659 11.4399 2.47992C11.7066 3.59992 11.2799 4.02659 10.1599 3.75992C10.4266 4.87992 9.99992 5.30659 8.87992 5.03992C9.14659 6.15992 8.71992 6.58659 7.59992 6.31992C7.86659 7.43992 7.43992 7.86659 6.31992 7.59992C6.58659 8.71992 6.15992 9.14659 5.03992 8.87992C5.30659 9.99992 4.87992 10.4266 3.75992 10.1599C4.02659 11.2799 3.59992 11.7066 2.47992 11.4399C2.74659 12.5599 2.31992 12.9866 1.19992 12.7199C1.46659 13.8399 1.03992 14.2666 -0.0800781 13.9999C-0.0800781 11.8666 -0.0800781 9.73325 -0.0800781 7.59992C0.346589 7.59992 0.773255 7.59992 1.19992 7.59992C1.158 7.36347 1.21133 7.15013 1.35992 6.95992C1.57325 6.85325 1.73325 6.69325 1.83992 6.47992C2.03013 6.33133 2.24347 6.278 2.47992 6.31992C2.47992 5.89325 2.47992 5.46659 2.47992 5.03992C2.90659 5.03992 3.33325 5.03992 3.75992 5.03992C3.718 4.80347 3.77133 4.59013 3.91992 4.39992C4.13325 4.29325 4.29325 4.13325 4.39992 3.91992C4.59013 3.77133 4.80347 3.718 5.03992 3.75992C5.03992 3.33325 5.03992 2.90659 5.03992 2.47992C5.46659 2.47992 5.89325 2.47992 6.31992 2.47992C6.278 2.24347 6.33133 2.03013 6.47992 1.83992C6.69325 1.73325 6.85325 1.57325 6.95992 1.35992C7.15013 1.21133 7.36347 1.158 7.59992 1.19992C7.59992 0.773255 7.59992 0.346589 7.59992 -0.0800781Z" fill="#FE3224"/>
<path fill-rule="evenodd" clip-rule="evenodd" d="M13.9999 -0.0800781C16.9866 -0.0800781 19.9732 -0.0800781 22.9599 -0.0800781C22.5756 0.3544 22.149 0.7544 21.6799 1.11992C21.7332 1.17325 21.7866 1.22659 21.8399 1.27992C20.8654 2.00194 19.9586 2.80194 19.1199 3.67992C19.1732 3.73325 19.2266 3.78659 19.2799 3.83992C18.3054 4.56194 17.3986 5.36194 16.5599 6.23992C16.6132 6.29325 16.6666 6.34659 16.7199 6.39992C16.211 6.73459 15.731 7.10792 15.2799 7.51992C14.7466 7.57325 14.2133 7.62659 13.6799 7.67992C14.1383 7.81381 14.5917 7.94715 15.0399 8.07992C15.0933 8.02659 15.1466 7.97325 15.1999 7.91992C15.2772 8.0716 15.3038 8.2316 15.2799 8.39992C15.1199 8.39992 14.9599 8.39992 14.7999 8.39992C14.7999 8.55992 14.7999 8.71992 14.7999 8.87992C14.6018 8.92952 14.6018 9.00952 14.7999 9.11992C14.5385 9.19888 14.2718 9.22555 13.9999 9.19992C13.7333 9.09325 13.4666 8.98659 13.1999 8.87992C12.6321 8.21891 11.9388 8.08559 11.1199 8.47992C11.0198 8.59999 10.9398 8.73333 10.8799 8.87992C10.7999 11.4394 10.7733 13.9994 10.7999 16.5599C10.6933 14.4523 10.5866 12.3189 10.4799 10.1599C10.3472 11.0083 10.2672 11.8616 10.2399 12.7199C9.03157 13.9741 7.72491 15.2274 6.31992 16.4799C6.37325 16.5332 6.42659 16.5866 6.47992 16.6399C5.50531 17.362 4.59864 18.162 3.75992 19.0399C3.81325 19.0932 3.86659 19.1466 3.91992 19.1999C2.94531 19.922 2.03864 20.722 1.19992 21.5999C1.25325 21.6532 1.30659 21.7066 1.35992 21.7599C0.875224 22.1081 0.395224 22.4548 -0.0800781 22.7999C-0.0800781 19.8666 -0.0800781 16.9332 -0.0800781 13.9999C1.03992 14.2666 1.46659 13.8399 1.19992 12.7199C2.31992 12.9866 2.74659 12.5599 2.47992 11.4399C3.59992 11.7066 4.02659 11.2799 3.75992 10.1599C4.87992 10.4266 5.30659 9.99992 5.03992 8.87992C6.15992 9.14659 6.58659 8.71992 6.31992 7.59992C7.43992 7.86659 7.86659 7.43992 7.59992 6.31992C8.71992 6.58659 9.14659 6.15992 8.87992 5.03992C9.99992 5.30659 10.4266 4.87992 10.1599 3.75992C11.2799 4.02659 11.7066 3.59992 11.4399 2.47992C12.5599 2.74659 12.9866 2.31992 12.7199 1.19992C13.8399 1.46659 14.2666 1.03992 13.9999 -0.0800781Z" fill="#FD2919"/>
<path fill-rule="evenodd" clip-rule="evenodd" d="M22.9602 -0.0800781C25.5202 -0.0800781 28.0802 -0.0800781 30.6402 -0.0800781C27.4189 3.00792 24.2722 6.18125 21.2002 9.43992C20.6754 9.89776 20.1154 10.2978 19.5202 10.6399C19.5557 10.9529 19.689 11.2463 19.9202 11.5199C19.6093 11.4711 19.2893 11.4711 18.9602 11.5199C19.0794 11.9559 18.9194 11.9559 18.4802 11.5199C18.8627 11.3105 18.8627 11.1505 18.4802 11.0399C18.0031 10.9602 17.5231 10.9336 17.0402 10.9599C16.9227 10.7667 16.8695 10.5533 16.8802 10.3199C16.0467 10.4471 15.7268 10.1271 15.9202 9.35992C15.5323 9.22362 15.159 9.06362 14.8002 8.87992C14.8002 8.71992 14.8002 8.55992 14.8002 8.39992C14.9602 8.39992 15.1202 8.39992 15.2802 8.39992C15.3041 8.2316 15.2774 8.0716 15.2002 7.91992C15.1468 7.97325 15.0935 8.02659 15.0402 8.07992C14.5919 7.94715 14.1386 7.81381 13.6802 7.67992C14.2135 7.62659 14.7468 7.57325 15.2802 7.51992C15.7312 7.10792 16.2112 6.73459 16.7202 6.39992C16.6669 6.34659 16.6135 6.29325 16.5602 6.23992C17.3989 5.36194 18.3056 4.56194 19.2802 3.83992C19.2269 3.78659 19.1735 3.73325 19.1202 3.67992C19.9589 2.80194 20.8656 2.00194 21.8402 1.27992C21.7869 1.22659 21.7335 1.17325 21.6802 1.11992C22.1493 0.7544 22.5759 0.3544 22.9602 -0.0800781Z" fill="#F51C0B"/>
<path fill-rule="evenodd" clip-rule="evenodd" d="M31.9198 6.31982C31.9198 9.3065 31.9198 12.2932 31.9198 15.2798C31.4931 15.2798 31.0665 15.2798 30.6398 15.2798C30.6398 15.7065 30.6398 16.1331 30.6398 16.5598C30.2131 16.5598 29.7865 16.5598 29.3598 16.5598C29.3598 16.9865 29.3598 17.4131 29.3598 17.8398C28.9331 17.8398 28.5065 17.8398 28.0798 17.8398C28.0798 17.9998 28.0798 18.1598 28.0798 18.3198C27.6691 18.1321 27.2425 17.9456 26.7998 17.7598C26.0742 17.2206 25.4342 16.6073 24.8798 15.9198C24.5598 15.7865 24.2398 15.6532 23.9198 15.5198C24.0088 15.4586 24.0621 15.3786 24.0798 15.2798C24.1424 14.7676 24.3024 14.2876 24.5598 13.8398C24.319 13.6252 24.2123 13.3585 24.2398 13.0398C23.6817 12.976 23.6552 12.8693 24.1598 12.7198C24.408 12.8084 24.648 12.9151 24.8798 13.0398C25.0673 12.9728 25.2273 12.8662 25.3598 12.7198C25.5166 12.306 25.5699 11.8793 25.5198 11.4398C25.9465 11.4398 26.3731 11.4398 26.7998 11.4398C26.7998 11.0132 26.7998 10.5865 26.7998 10.1598C27.2265 10.1598 27.6531 10.1598 28.0798 10.1598C28.0798 9.73315 28.0798 9.3065 28.0798 8.87982C28.5065 8.87982 28.9331 8.87982 29.3598 8.87982C29.3598 8.45315 29.3598 8.0265 29.3598 7.59982C29.7865 7.59982 30.2131 7.59982 30.6398 7.59982C30.6398 7.17315 30.6398 6.7465 30.6398 6.31982C31.0665 6.31982 31.4931 6.31982 31.9198 6.31982Z" fill="#E21507"/>
<path fill-rule="evenodd" clip-rule="evenodd" d="M30.64 -0.0800781C31.0668 -0.0800781 31.4933 -0.0800781 31.92 -0.0800781C31.92 2.05325 31.92 4.18659 31.92 6.31992C31.4933 6.31992 31.0668 6.31992 30.64 6.31992C30.64 6.74659 30.64 7.17325 30.64 7.59992C30.2133 7.59992 29.7868 7.59992 29.36 7.59992C29.36 8.02659 29.36 8.45325 29.36 8.87992C28.9333 8.87992 28.5068 8.87992 28.08 8.87992C28.08 9.30659 28.08 9.73325 28.08 10.1599C27.6533 10.1599 27.2268 10.1599 26.8 10.1599C26.8 10.5866 26.8 11.0132 26.8 11.4399C26.3733 11.4399 25.9468 11.4399 25.52 11.4399C25.5701 11.8794 25.5168 12.3061 25.36 12.7199C25.2276 12.8663 25.0676 12.9729 24.88 13.0399C24.6482 12.9152 24.4082 12.8085 24.16 12.7199C23.6554 12.8694 23.682 12.9761 24.24 13.0399C24.2125 13.3586 24.3192 13.6253 24.56 13.8399C24.3026 14.2877 24.1426 14.7677 24.08 15.2799C23.7098 15.1713 23.6565 14.958 23.92 14.6399C23.7962 14.4461 23.6629 14.4461 23.52 14.6399C23.485 14.4098 23.405 14.1965 23.28 13.9999C22.8709 14.2111 22.6042 14.0778 22.48 13.5999C22.1256 13.5726 21.8056 13.466 21.52 13.2799C21.68 13.2266 21.84 13.1732 22 13.1199C21.4677 13.0223 20.9343 12.9423 20.4 12.8799C19.2058 12.363 18.0858 11.723 17.04 10.9599C17.5229 10.9336 18.0029 10.9602 18.48 11.0399C18.8626 11.1505 18.8626 11.3105 18.48 11.5199C18.9192 11.9559 19.0792 11.9559 18.96 11.5199C19.2892 11.4711 19.6092 11.4711 19.92 11.5199C19.6888 11.2463 19.5556 10.9529 19.52 10.6399C20.1152 10.2978 20.6752 9.89776 21.2 9.43992C24.272 6.18125 27.4188 3.00792 30.64 -0.0800781Z" fill="#ED1707"/>
<path fill-rule="evenodd" clip-rule="evenodd" d="M13.2 8.87981C12.664 8.90621 12.1307 8.87954 11.6 8.79981C11.52 8.71981 11.44 8.63981 11.36 8.55981C11.3067 8.93314 11.2534 9.30648 11.2 9.67981C11.1467 9.57314 11.0934 9.46648 11.04 9.35981C10.96 11.6525 10.9334 13.9459 10.96 16.2398C11.12 16.2398 11.28 16.2398 11.44 16.2398C11.3136 16.384 11.1536 16.4907 10.96 16.5598C10.9067 16.5598 10.8534 16.5598 10.8 16.5598C10.7734 13.9993 10.8 11.4393 10.88 8.87981C10.9399 8.73322 11.0199 8.59987 11.12 8.47981C11.9389 8.08547 12.6322 8.2188 13.2 8.87981Z" fill="#FDE7E1"/>
<path fill-rule="evenodd" clip-rule="evenodd" d="M14.8 8.87988C15.1588 9.06358 15.5321 9.22358 15.92 9.35988C15.7266 10.1271 16.0466 10.4471 16.88 10.3199C16.8693 10.5533 16.9226 10.7666 17.04 10.9599C15.9748 10.4626 14.9615 9.87595 14 9.19988C14.2719 9.22551 14.5385 9.19884 14.8 9.11988C14.6019 9.00948 14.6019 8.92948 14.8 8.87988Z" fill="#E83523"/>
<path fill-rule="evenodd" clip-rule="evenodd" d="M13.2002 8.88006C13.4669 8.98673 13.7335 9.09339 14.0002 9.20006C14.9616 9.87612 15.975 10.4628 17.0402 10.9601C18.0859 11.7231 19.2059 12.3631 20.4002 12.8801C21.3602 13.5734 22.3202 14.2667 23.2802 14.9601C23.2919 15.2044 23.1851 15.3644 22.9602 15.4401C22.6935 15.4401 22.4269 15.4401 22.1602 15.4401C20.564 15.3069 18.964 15.2536 17.3602 15.2801C16.4155 15.2515 15.5088 15.3581 14.6402 15.6001C13.5663 15.7803 12.4996 15.9937 11.4402 16.2401C11.2802 16.2401 11.1202 16.2401 10.9602 16.2401C10.9335 13.9461 10.9602 11.6528 11.0402 9.36006C11.0935 9.46673 11.1469 9.57339 11.2002 9.68006C11.2535 9.30673 11.3069 8.93339 11.3602 8.56006C11.4402 8.64006 11.5202 8.72006 11.6002 8.80006C12.1309 8.87979 12.6642 8.90646 13.2002 8.88006Z" fill="#FDFBFA"/>
<path fill-rule="evenodd" clip-rule="evenodd" d="M17.3601 15.2799C16.4865 15.4779 15.5798 15.5846 14.6401 15.5999C15.5088 15.358 16.4155 15.2513 17.3601 15.2799Z" fill="#CA5B50"/>
<path fill-rule="evenodd" clip-rule="evenodd" d="M22.1602 15.4399C22.4269 15.4399 22.6935 15.4399 22.9602 15.4399C22.5754 15.6429 22.1487 15.7495 21.6802 15.7599C21.8402 15.6533 22.0002 15.5466 22.1602 15.4399Z" fill="#A55450"/>
<path fill-rule="evenodd" clip-rule="evenodd" d="M23.2799 14.96C23.6959 15.4158 23.6959 15.8958 23.2799 16.4C22.1219 17.1107 21.0019 17.8574 19.9199 18.64C17.476 19.9689 15.076 21.3822 12.7199 22.88C10.9007 23.0014 10.314 22.1747 10.9599 20.4C11.5939 19.9793 12.1806 19.4993 12.7199 18.96C12.7199 18.9067 12.7199 18.8532 12.7199 18.8C14.1412 17.9561 15.6346 17.2361 17.1999 16.64C18.6743 16.2424 20.1677 15.9491 21.6799 15.76C22.1483 15.7495 22.5751 15.6429 22.9599 15.44C23.1848 15.3643 23.2915 15.2043 23.2799 14.96Z" fill="#FCF7F5"/>
<path fill-rule="evenodd" clip-rule="evenodd" d="M17.36 15.28C18.9638 15.2535 20.5638 15.3069 22.16 15.44C22 15.5467 21.84 15.6534 21.68 15.76C20.1678 15.9492 18.6744 16.2424 17.2 16.64C15.6347 17.2362 14.1413 17.9562 12.72 18.8C12.9652 18.4336 12.9119 18.3271 12.56 18.48C12.4233 18.3165 12.2633 18.1832 12.08 18.08C12.2138 17.9183 12.2672 17.7316 12.24 17.52C11.9733 17.52 11.7066 17.52 11.44 17.52C11.4471 17.1077 11.2871 16.7877 10.96 16.56C11.1535 16.4909 11.3135 16.3842 11.44 16.24C12.4994 15.9936 13.566 15.7803 14.64 15.6C15.5797 15.5847 16.4864 15.478 17.36 15.28Z" fill="#D61D0D"/>
<path fill-rule="evenodd" clip-rule="evenodd" d="M20.3998 12.8799C20.9341 12.9422 21.4675 13.0222 21.9998 13.1199C21.8398 13.1732 21.6798 13.2266 21.5198 13.2799C21.8054 13.4659 22.1254 13.5726 22.4798 13.5999C22.604 14.0777 22.8707 14.2111 23.2798 13.9999C23.4048 14.1965 23.4848 14.4098 23.5198 14.6399C23.6627 14.4461 23.796 14.4461 23.9198 14.6399C23.6563 14.958 23.7096 15.1713 24.0798 15.2799C24.0621 15.3787 24.0088 15.4587 23.9198 15.5199C24.2398 15.6532 24.5598 15.7866 24.8798 15.9199C25.4342 16.6074 26.0742 17.2207 26.7998 17.7599C27.2425 17.9456 27.6691 18.1322 28.0798 18.3199C28.0798 18.1599 28.0798 17.9999 28.0798 17.8399C28.5065 17.8399 28.9331 17.8399 29.3598 17.8399C29.3598 17.4132 29.3598 16.9866 29.3598 16.5599C29.7865 16.5599 30.2131 16.5599 30.6398 16.5599C30.6398 16.1332 30.6398 15.7066 30.6398 15.2799C31.0665 15.2799 31.4931 15.2799 31.9198 15.2799C31.9198 17.4132 31.9198 19.5466 31.9198 21.6799C31.0665 21.6799 30.2131 21.6799 29.3598 21.6799C29.3598 21.2532 29.3598 20.8266 29.3598 20.3999C28.9331 20.3999 28.5065 20.3999 28.0798 20.3999C28.0798 20.8266 28.0798 21.2532 28.0798 21.6799C27.6531 21.6799 27.2265 21.6799 26.7998 21.6799C26.7998 22.1066 26.7998 22.5332 26.7998 22.9599C26.3731 22.9599 25.9465 22.9599 25.5198 22.9599C25.5198 23.3866 25.5198 23.8132 25.5198 24.2399C25.0931 24.2399 24.6665 24.2399 24.2398 24.2399C24.2398 24.6666 24.2398 25.0932 24.2398 25.5199C23.8131 25.5199 23.3865 25.5199 22.9598 25.5199C22.9598 25.9466 22.9598 26.3732 22.9598 26.7999C22.5331 26.7999 22.1065 26.7999 21.6798 26.7999C21.6798 27.2266 21.6798 27.6532 21.6798 28.0799C21.2531 28.0799 20.8265 28.0799 20.3998 28.0799C20.3998 28.5066 20.3998 28.9332 20.3998 29.3599C19.9731 29.3599 19.5465 29.3599 19.1198 29.3599C19.1198 29.7866 19.1198 30.2132 19.1198 30.6399C19.5465 30.6399 19.9731 30.6399 20.3998 30.6399C20.3998 31.0666 20.3998 31.4932 20.3998 31.9199C19.5465 31.9199 18.6931 31.9199 17.8398 31.9199C17.8398 30.8532 17.8398 29.7866 17.8398 28.7199C16.9491 28.8504 16.4957 28.4772 16.4798 27.5999C16.0709 27.4848 15.8842 27.2181 15.9198 26.7999C16.1331 26.7999 16.3465 26.7999 16.5598 26.7999C16.5598 26.3732 16.5598 25.9466 16.5598 25.5199C16.9865 25.5199 17.4131 25.5199 17.8398 25.5199C17.8398 25.0932 17.8398 24.6666 17.8398 24.2399C18.2665 24.2399 18.6931 24.2399 19.1198 24.2399C19.1198 23.8132 19.1198 23.3866 19.1198 22.9599C19.5465 22.9599 19.9731 22.9599 20.3998 22.9599C20.3998 22.5332 20.3998 22.1066 20.3998 21.6799C20.8265 21.6799 21.2531 21.6799 21.6798 21.6799C21.6798 21.2532 21.6798 20.8266 21.6798 20.3999C22.2337 20.2756 22.6605 19.9556 22.9598 19.4399C22.7461 19.0384 22.6126 18.6117 22.5598 18.1599C22.2177 18.1036 21.8712 18.1836 21.5198 18.3999C21.6825 18.5677 21.7093 18.7544 21.5998 18.9599C21.4553 18.7677 21.2688 18.6343 21.0398 18.5599C21.2734 18.4301 21.3267 18.2967 21.1998 18.1599C20.8406 18.4996 20.4139 18.6596 19.9198 18.6399C21.0019 17.8573 22.1219 17.1106 23.2798 16.3999C23.6958 15.8958 23.6958 15.4158 23.2798 14.9599C22.3198 14.2666 21.3598 13.5732 20.3998 12.8799Z" fill="#D21507"/>
<path fill-rule="evenodd" clip-rule="evenodd" d="M17.8399 31.92C15.7066 31.92 13.5732 31.92 11.4399 31.92C11.4399 31.4933 11.4399 31.0668 11.4399 30.64C11.8666 30.64 12.2932 30.64 12.7199 30.64C12.7199 30.2133 12.7199 29.7868 12.7199 29.36C13.1466 29.36 13.5732 29.36 13.9999 29.36C13.9999 28.9333 13.9999 28.5068 13.9999 28.08C14.2132 28.08 14.4266 28.08 14.6399 28.08C14.7743 27.3743 14.5876 26.7877 14.0799 26.32C14.1267 25.6691 13.9134 25.1357 13.4399 24.72C13.3626 24.5683 13.336 24.4083 13.3599 24.24C12.6376 24.2208 11.9976 24.0074 11.4399 23.6C10.9569 23.5245 10.7969 23.2845 10.9599 22.88C10.6648 22.4314 10.5581 21.9248 10.6399 21.36C10.564 20.9469 10.6706 20.6269 10.9599 20.4C10.3141 22.1747 10.9007 23.0015 12.7199 22.88C15.0761 21.3823 17.4761 19.969 19.9199 18.64C20.414 18.6597 20.8407 18.4997 21.1999 18.16C21.3268 18.2968 21.2735 18.4303 21.0399 18.56C21.2689 18.6344 21.4554 18.7679 21.5999 18.96C21.7093 18.7546 21.6826 18.5679 21.5199 18.4C21.8713 18.1837 22.2178 18.1037 22.5599 18.16C22.6127 18.6119 22.7461 19.0386 22.9599 19.44C22.6605 19.9557 22.2338 20.2757 21.6799 20.4C21.6799 20.8267 21.6799 21.2533 21.6799 21.68C21.2532 21.68 20.8266 21.68 20.3999 21.68C20.3999 22.1067 20.3999 22.5333 20.3999 22.96C19.9732 22.96 19.5466 22.96 19.1199 22.96C19.1199 23.3867 19.1199 23.8133 19.1199 24.24C18.6932 24.24 18.2666 24.24 17.8399 24.24C17.8399 24.6667 17.8399 25.0933 17.8399 25.52C17.4132 25.52 16.9866 25.52 16.5599 25.52C16.5599 25.9467 16.5599 26.3733 16.5599 26.8C16.3466 26.8 16.1332 26.8 15.9199 26.8C15.8842 27.2183 16.0709 27.485 16.4799 27.6C16.4957 28.4773 16.9492 28.8506 17.8399 28.72C17.8399 29.7868 17.8399 30.8533 17.8399 31.92Z" fill="#D71607"/>
<path fill-rule="evenodd" clip-rule="evenodd" d="M10.7999 16.5602C10.8532 16.5602 10.9066 16.5602 10.9599 16.5602C11.2871 16.7878 11.4471 17.1078 11.4399 17.5202C11.7066 17.5202 11.9732 17.5202 12.2399 17.5202C12.2671 17.7317 12.2138 17.9184 12.0799 18.0802C12.2633 18.1834 12.4233 18.3166 12.5599 18.4802C12.9119 18.3272 12.9652 18.4338 12.7199 18.8002C12.7199 18.8534 12.7199 18.9069 12.7199 18.9602C12.3999 19.0134 12.0799 19.0669 11.7599 19.1202C11.795 19.3082 11.7416 19.4682 11.5999 19.6002C11.3971 19.4517 11.1837 19.425 10.9599 19.5202C11.1257 19.8043 11.1257 20.0976 10.9599 20.4002C10.6707 20.627 10.564 20.947 10.6399 21.3602C10.44 21.3725 10.3066 21.4792 10.2399 21.6802C10.2147 21.281 10.1881 20.9077 10.1599 20.5602C9.91538 20.7779 9.64871 20.9646 9.35992 21.1202C6.47992 24.0534 3.59992 26.9869 0.719922 29.9202C0.428232 30.0797 0.161565 30.2664 -0.0800781 30.4802C-0.0800781 27.9202 -0.0800781 25.3602 -0.0800781 22.8002C0.395224 22.455 0.875224 22.1083 1.35992 21.7602C1.30659 21.7069 1.25325 21.6534 1.19992 21.6002C2.03864 20.7222 2.94531 19.9222 3.91992 19.2002C3.86659 19.1469 3.81325 19.0934 3.75992 19.0402C4.59864 18.1622 5.50531 17.3622 6.47992 16.6402C6.42659 16.5869 6.37325 16.5334 6.31992 16.4802C7.72491 15.2277 9.03157 13.9743 10.2399 12.7202C10.2672 11.8619 10.3472 11.0086 10.4799 10.1602C10.5866 12.3192 10.6932 14.4525 10.7999 16.5602Z" fill="#F41B0B"/>
<path fill-rule="evenodd" clip-rule="evenodd" d="M12.72 18.96C12.1807 19.4993 11.594 19.9793 10.96 20.4C11.1257 20.0974 11.1257 19.8041 10.96 19.52C11.1838 19.4248 11.3971 19.4515 11.6 19.6C11.7417 19.468 11.795 19.308 11.76 19.12C12.08 19.0667 12.4 19.0132 12.72 18.96Z" fill="#DA3624"/>
<path fill-rule="evenodd" clip-rule="evenodd" d="M31.9201 21.6799C31.9201 25.0932 31.9201 28.5066 31.9201 31.9199C28.0801 31.9199 24.2401 31.9199 20.4001 31.9199C20.4001 31.4932 20.4001 31.0666 20.4001 30.6399C19.9734 30.6399 19.5468 30.6399 19.1201 30.6399C19.1201 30.2132 19.1201 29.7866 19.1201 29.3599C19.5468 29.3599 19.9734 29.3599 20.4001 29.3599C20.4001 28.9332 20.4001 28.5066 20.4001 28.0799C20.8268 28.0799 21.2534 28.0799 21.6801 28.0799C21.6801 27.6532 21.6801 27.2266 21.6801 26.7999C22.1068 26.7999 22.5334 26.7999 22.9601 26.7999C22.9601 26.3732 22.9601 25.9466 22.9601 25.5199C23.3868 25.5199 23.8134 25.5199 24.2401 25.5199C24.2401 25.0932 24.2401 24.6666 24.2401 24.2399C24.6668 24.2399 25.0934 24.2399 25.5201 24.2399C25.5201 23.8132 25.5201 23.3866 25.5201 22.9599C25.9468 22.9599 26.3734 22.9599 26.8001 22.9599C26.8001 22.5332 26.8001 22.1066 26.8001 21.6799C27.2268 21.6799 27.6534 21.6799 28.0801 21.6799C28.0801 21.2532 28.0801 20.8266 28.0801 20.3999C28.5068 20.3999 28.9334 20.3999 29.3601 20.3999C29.3601 20.8266 29.3601 21.2532 29.3601 21.6799C30.2134 21.6799 31.0668 21.6799 31.9201 21.6799Z" fill="#CB1306"/>
<path fill-rule="evenodd" clip-rule="evenodd" d="M11.4398 23.6001C11.9976 24.0075 12.6376 24.2209 13.3598 24.2401C13.3359 24.4084 13.3626 24.5684 13.4398 24.7201C13.9133 25.1358 14.1267 25.6692 14.0798 26.3201C14.5876 26.7878 14.7742 27.3743 14.6398 28.0801C14.4265 28.0801 14.2132 28.0801 13.9998 28.0801C13.9998 28.5068 13.9998 28.9334 13.9998 29.3601C13.5732 29.3601 13.1465 29.3601 12.7198 29.3601C12.7198 29.7868 12.7198 30.2134 12.7198 30.6401C12.2932 30.6401 11.8665 30.6401 11.4398 30.6401C11.4398 31.0668 11.4398 31.4934 11.4398 31.9201C9.73315 31.9201 8.0265 31.9201 6.31982 31.9201C6.31982 31.4934 6.31982 31.0668 6.31982 30.6401C6.7465 30.6401 7.17315 30.6401 7.59982 30.6401C7.59982 30.2134 7.59982 29.7868 7.59982 29.3601C8.0265 29.3601 8.45315 29.3601 8.87982 29.3601C8.87982 28.9334 8.87982 28.5068 8.87982 28.0801C9.3065 28.0801 9.73315 28.0801 10.1598 28.0801C10.1598 27.6534 10.1598 27.2268 10.1598 26.8001C10.5865 26.8001 11.0132 26.8001 11.4398 26.8001C11.4398 26.3734 11.4398 25.9468 11.4398 25.5201C11.8665 25.5201 12.2932 25.5201 12.7198 25.5201C12.7198 25.3601 12.7198 25.2001 12.7198 25.0401C12.2705 25.0092 11.8438 24.9025 11.4398 24.7201C11.4398 24.3468 11.4398 23.9734 11.4398 23.6001Z" fill="#E31507"/>
<path fill-rule="evenodd" clip-rule="evenodd" d="M10.6399 21.3601C10.5581 21.9249 10.6648 22.4314 10.9599 22.8801C10.7969 23.2845 10.9569 23.5245 11.4399 23.6001C11.4399 23.9733 11.4399 24.3468 11.4399 24.7201C11.8439 24.9025 12.2706 25.0092 12.7199 25.0401C12.7199 25.2001 12.7199 25.3601 12.7199 25.5201C12.2932 25.5201 11.8666 25.5201 11.4399 25.5201C11.4399 25.9468 11.4399 26.3733 11.4399 26.8001C11.0132 26.8001 10.5866 26.8001 10.1599 26.8001C10.1599 27.2268 10.1599 27.6533 10.1599 28.0801C9.73325 28.0801 9.30659 28.0801 8.87992 28.0801C8.87992 28.5068 8.87992 28.9333 8.87992 29.3601C8.45325 29.3601 8.02659 29.3601 7.59992 29.3601C7.59992 29.7868 7.59992 30.2133 7.59992 30.6401C7.17325 30.6401 6.74659 30.6401 6.31992 30.6401C6.31992 31.0668 6.31992 31.4933 6.31992 31.9201C4.18659 31.9201 2.05325 31.9201 -0.0800781 31.9201C-0.0800781 31.4401 -0.0800781 30.9601 -0.0800781 30.4801C0.161565 30.2663 0.428232 30.0796 0.719922 29.9201C3.59992 26.9868 6.47992 24.0533 9.35992 21.1201C9.64871 20.9645 9.91538 20.7778 10.1599 20.5601C10.1881 20.9076 10.2147 21.2809 10.2399 21.6801C10.3066 21.4791 10.44 21.3724 10.6399 21.3601Z" fill="#ED1606"/>
</g>
<defs>
<clipPath id="clip0_21_5312">
<rect width="32" height="32" fill="white"/>
</clipPath>
</defs>
</svg>
