<svg width="32" height="32" viewBox="0 0 32 32" fill="none" xmlns="http://www.w3.org/2000/svg">
<g clip-path="url(#clip0_24_450)">
<mask id="mask0_24_450" style="mask-type:luminance" maskUnits="userSpaceOnUse" x="0" y="0" width="32" height="32">
<path d="M32 0H0V32H32V0Z" fill="white"/>
</mask>
<g mask="url(#mask0_24_450)">
<path fill-rule="evenodd" clip-rule="evenodd" d="M9.74242 6.61349C13.2141 6.37167 16.177 7.46203 18.6313 9.8846C20.4353 12.1346 20.9094 14.6472 20.0535 17.4224C19.0415 12.3381 15.9362 10.0863 10.738 10.6668C7.28325 11.7644 5.26845 14.1111 4.69353 17.7068C4.45347 19.7781 4.66681 21.793 5.33353 23.7513C3.44479 22.808 2.1411 21.3147 1.42242 19.2713C0.282273 15.2801 1.20672 11.8431 4.19575 8.96015C5.82681 7.6351 7.6757 6.85288 9.74242 6.61349Z" fill="#8A1F1D"/>
<path fill-rule="evenodd" clip-rule="evenodd" d="M10.5955 11.8755C11.8352 12.2372 12.7597 12.9957 13.3688 14.151C13.7764 14.8676 14.0846 15.6262 14.2932 16.4266C11.2706 16.2409 8.63945 17.1417 6.3999 19.1288C6.48494 15.9216 7.88345 13.5038 10.5955 11.8755Z" fill="#8B201D"/>
<path fill-rule="evenodd" clip-rule="evenodd" d="M17.4224 19.271C18.822 19.0828 20.2442 19.0828 21.689 19.271C21.6714 19.3573 21.624 19.4047 21.5468 19.4132C20.1977 19.2719 18.823 19.2245 17.4224 19.271Z" fill="#D1B2B1"/>
<path fill-rule="evenodd" clip-rule="evenodd" d="M22.2578 19.2712C23.4644 19.13 24.6971 19.0827 25.9556 19.129C25.9893 19.3126 25.9419 19.4548 25.8134 19.5557C24.6851 19.2758 23.5 19.1809 22.2578 19.2712Z" fill="#CFB0AF"/>
<path fill-rule="evenodd" clip-rule="evenodd" d="M11.0223 23.538C11.0223 23.6802 11.0223 23.8224 11.0223 23.9647C10.5956 23.9647 10.169 23.9647 9.7423 23.9647C9.7423 23.7276 9.7423 23.4906 9.7423 23.2536C9.16565 23.2075 8.59676 23.2548 8.03564 23.3958C7.93894 23.5892 7.84412 23.7788 7.75119 23.9647C7.29422 24.0088 6.86755 23.9614 6.47119 23.8224C7.23925 22.3338 8.04518 20.8642 8.88897 19.4136C9.40201 19.2729 9.92349 19.2254 10.4534 19.2713C10.7127 20.6818 10.9023 22.104 11.0223 23.538Z" fill="#8B201C"/>
<path fill-rule="evenodd" clip-rule="evenodd" d="M12.8712 23.9646C12.4919 23.9646 12.1127 23.9646 11.7334 23.9646C11.7334 23.8224 11.7334 23.6801 11.7334 23.5379C11.9812 22.1568 12.2656 20.7819 12.5867 19.4135C13.0057 19.2492 13.4324 19.2256 13.8667 19.3424C14.2277 20.1355 14.607 20.9178 15.0045 21.689C15.2749 20.9058 15.4171 20.1 15.4312 19.2712C15.8578 19.2712 16.2845 19.2712 16.7112 19.2712C16.4818 20.8922 16.1973 22.5041 15.8578 24.1068C15.4209 24.1519 14.9943 24.1045 14.5778 23.9646C14.2351 23.1371 13.8559 22.3312 13.4401 21.5468C13.2134 22.3489 13.0238 23.1548 12.8712 23.9646Z" fill="#8B201D"/>
<path fill-rule="evenodd" clip-rule="evenodd" d="M17.422 19.2712C18.8226 19.2247 20.1973 19.272 21.5465 19.4134C21.4763 19.7414 21.429 20.0732 21.4042 20.409C20.8914 20.3679 20.3936 20.4152 19.9109 20.5512C19.6819 21.688 19.4686 22.8257 19.2709 23.9645C18.7714 24.0435 18.3447 23.9486 17.9909 23.6801C18.2169 22.5976 18.4065 21.5073 18.5598 20.409C18.1331 20.409 17.7065 20.409 17.2798 20.409C17.2905 20.0241 17.3378 19.6448 17.422 19.2712Z" fill="#891D1A"/>
<path fill-rule="evenodd" clip-rule="evenodd" d="M22.2576 19.2713C23.4998 19.181 24.6849 19.2759 25.8132 19.5558C25.8436 19.7896 25.7961 20.0029 25.671 20.1958C24.9081 20.2201 24.1495 20.2912 23.3954 20.4091C23.2893 20.5849 23.242 20.7746 23.2532 20.978C23.9169 21.0728 24.5805 21.1676 25.2443 21.2624C25.2443 21.4995 25.2443 21.7365 25.2443 21.9735C24.4858 21.9735 23.7272 21.9735 22.9687 21.9735C22.9946 22.2709 22.9471 22.5554 22.8265 22.8269C23.6284 22.9449 24.4342 23.016 25.2443 23.0402C25.1154 23.2818 25.0681 23.5427 25.1021 23.8224C23.8815 23.9604 22.6489 24.0077 21.4043 23.9647C21.4043 23.8224 21.4043 23.6802 21.4043 23.538C21.6704 22.1128 21.9548 20.6906 22.2576 19.2713Z" fill="#891D1A"/>
<path fill-rule="evenodd" clip-rule="evenodd" d="M26.6668 19.271C27.903 19.2239 29.1356 19.2713 30.3646 19.4132C30.244 19.6847 30.1965 19.9692 30.2224 20.2666C29.4164 20.2666 28.6106 20.2666 27.8046 20.2666C27.8046 20.5037 27.8046 20.7406 27.8046 20.9777C28.4683 20.9777 29.1319 20.9777 29.7957 20.9777C29.8216 21.2751 29.7741 21.5595 29.6535 21.831C28.9486 21.9724 28.2375 22.0197 27.5201 21.9732C27.4954 22.309 27.448 22.6408 27.3779 22.9688C28.1364 22.9688 28.895 22.9688 29.6535 22.9688C29.6061 23.3481 29.5586 23.7273 29.5113 24.1066C28.2786 24.1066 27.0461 24.1066 25.8135 24.1066C26.0433 22.4834 26.3278 20.8716 26.6668 19.271Z" fill="#8C2420"/>
<path fill-rule="evenodd" clip-rule="evenodd" d="M23.2534 20.9777C23.9708 20.9312 24.6819 20.9786 25.3868 21.12C25.3691 21.2063 25.3218 21.2536 25.2445 21.2622C24.5808 21.1673 23.9172 21.0726 23.2534 20.9777Z" fill="#A26060"/>
<path fill-rule="evenodd" clip-rule="evenodd" d="M6.47132 23.8223C6.86768 23.9612 7.29435 24.0086 7.75132 23.9645C7.29809 24.1502 6.82401 24.1502 6.3291 23.9645C6.34668 23.8782 6.39408 23.8308 6.47132 23.8223Z" fill="#B18181"/>
<path fill-rule="evenodd" clip-rule="evenodd" d="M11.0222 23.5376C11.1551 23.6895 11.2025 23.8791 11.1644 24.1065C10.6607 24.151 10.1866 24.1035 9.74219 23.9643C10.1689 23.9643 10.5955 23.9643 11.0222 23.9643C11.0222 23.822 11.0222 23.6798 11.0222 23.5376Z" fill="#AD7877"/>
<path fill-rule="evenodd" clip-rule="evenodd" d="M11.7336 23.5376C11.7336 23.6798 11.7336 23.822 11.7336 23.9643C12.1128 23.9643 12.4921 23.9643 12.8713 23.9643C12.475 24.1032 12.0483 24.1506 11.5913 24.1065C11.5533 23.8791 11.6007 23.6895 11.7336 23.5376Z" fill="#B38282"/>
<path fill-rule="evenodd" clip-rule="evenodd" d="M17.9911 23.6802C18.345 23.9487 18.7716 24.0436 19.2711 23.9646C18.8267 24.1039 18.3526 24.1514 17.8489 24.1068C17.8152 23.9232 17.8625 23.781 17.9911 23.6802Z" fill="#B38181"/>
<path fill-rule="evenodd" clip-rule="evenodd" d="M21.4045 23.5376C21.4045 23.6798 21.4045 23.822 21.4045 23.9643C22.6491 24.0074 23.8817 23.96 25.1022 23.822C23.8784 24.1024 22.5984 24.1972 21.2622 24.1065C21.2241 23.8791 21.2716 23.6895 21.4045 23.5376Z" fill="#B28180"/>
</g>
</g>
<defs>
<clipPath id="clip0_24_450">
<rect width="32" height="32" fill="white"/>
</clipPath>
</defs>
</svg>
