<svg width="32" height="32" viewBox="0 0 33 33" fill="none" xmlns="http://www.w3.org/2000/svg">
    <path fill-rule="evenodd" clip-rule="evenodd"
        d="M14.3093 2.07229C13.613 3.90628 12.9398 5.75205 12.2897 7.6096C11.6424 5.95253 11.0286 4.24874 10.4484 2.49824C10.4036 2.2935 10.3047 2.15152 10.1514 2.07229C10.1514 1.97759 10.1514 1.88303 10.1514 1.78833C10.251 1.73977 10.2907 1.64521 10.2702 1.50436C10.4372 1.43721 10.5165 1.29522 10.5078 1.07842C11.2443 0.265 12.1155 0.00474689 13.1213 0.297514C13.5698 0.502253 13.9063 0.857209 14.1311 1.36238C14.1706 1.3151 14.2103 1.26768 14.2499 1.2204C14.1557 1.50436 14.1755 1.78833 14.3093 2.07229Z"
        fill="#3BABDF" />
    <path opacity="0.01" fill-rule="evenodd" clip-rule="evenodd"
        d="M10.5079 1.07847C10.4286 0.889208 10.4286 0.889208 10.5079 1.07847Z" fill="#3BAFE1" />
    <path opacity="0.01" fill-rule="evenodd" clip-rule="evenodd"
        d="M10.389 1.07837C10.3098 1.17307 10.3098 1.17307 10.389 1.07837Z" fill="#3196D2" />
    <path opacity="0.01" fill-rule="evenodd" clip-rule="evenodd"
        d="M10.2702 1.50437C10.191 1.31511 10.191 1.31511 10.2702 1.50437Z" fill="#35A2DA" />
    <path opacity="0.01" fill-rule="evenodd" clip-rule="evenodd"
        d="M10.1515 1.78831C10.0722 1.59905 10.0722 1.59905 10.1515 1.78831Z" fill="#359ED7" />
    <path opacity="0.949" fill-rule="evenodd" clip-rule="evenodd"
        d="M10.1515 2.07227C10.3047 2.15149 10.4037 2.29347 10.4484 2.49821C11.0286 4.24871 11.6424 5.9525 12.2898 7.60957C12.2898 7.75156 12.2898 7.89354 12.2898 8.03552C12.2173 8.16203 12.1777 8.30401 12.171 8.46147C11.9059 8.93512 11.708 9.45577 11.577 10.0233C11.4774 10.0718 11.4378 10.1664 11.4582 10.3072C11.18 10.733 11.081 11.2063 11.1612 11.7271C11.082 11.9163 11.0029 12.1057 10.9236 12.295C10.8841 12.2003 10.8444 12.1057 10.8048 12.011C10.7059 12.2477 10.6068 12.4843 10.5078 12.7209C10.6181 12.901 10.6379 13.0902 10.5672 13.2889C10.5277 13.1942 10.488 13.0996 10.4484 13.0049C10.2338 13.3181 10.1744 13.6494 10.2702 13.9988C10.0259 14.1247 9.84769 14.4087 9.73567 14.8507C9.25158 16.3269 8.75656 17.7941 8.25073 19.2521C8.17149 19.2521 8.13193 19.2994 8.13193 19.3941C8.0527 19.3941 8.01314 19.4414 8.01314 19.5361C7.40942 20.8861 6.93424 22.3059 6.5876 23.7956C10.4094 23.8427 14.2108 23.7953 17.9919 23.6536C18.1503 23.7483 18.1503 23.8428 17.9919 23.9375C14.164 23.8455 10.3626 23.9402 6.5876 24.2215C6.54804 23.8428 6.50836 23.8428 6.4688 24.2215C6.31045 24.3162 6.31045 24.4108 6.4688 24.5055C6.38957 24.6474 6.31045 24.7894 6.23121 24.9314C6.07286 24.9787 6.07286 25.0261 6.23121 25.0734C5.63201 26.2226 5.15683 27.4532 4.80567 28.7649C4.70612 28.8135 4.66645 28.9081 4.68688 29.0489C4.58733 29.0975 4.54765 29.192 4.56808 29.3329C4.46853 29.3814 4.42886 29.476 4.44929 29.6168C4.27929 29.7986 4.20006 30.0353 4.2117 30.3267C4.13246 30.3267 4.0929 30.374 4.0929 30.4687C3.99335 30.5173 3.95368 30.6118 3.97411 30.7527C3.87456 30.8012 3.83488 30.8958 3.85531 31.0367C3.77608 31.0367 3.73652 31.0839 3.73652 31.1786C3.65728 31.1786 3.61772 31.2259 3.61772 31.3206C3.53849 31.3206 3.49893 31.3679 3.49893 31.4626C3.38108 31.4382 3.30197 31.4856 3.26134 31.6046C3.06497 31.6273 2.90662 31.7219 2.78616 31.8885C2.26572 31.9067 1.75086 31.8594 1.24182 31.7466C0.215706 30.9508 -0.101073 29.8622 0.291461 28.481C0.240237 28.3684 0.200642 28.25 0.172666 28.126C0.492593 27.8181 0.769789 27.3211 1.00423 26.6352C0.964637 26.5405 0.925031 26.4459 0.885436 26.3512C0.997472 25.9092 1.17566 25.6253 1.42001 25.4993C1.84851 24.2694 2.26429 23.0389 2.66736 21.8078C3.52649 20.0414 4.17986 18.1956 4.62748 16.2705C4.66704 16.3652 4.70672 16.4598 4.74628 16.5545C5.32671 15.197 5.86129 13.6824 6.35001 12.011C6.97071 10.5742 7.56469 9.10706 8.13193 7.60957C7.98202 7.31496 8.00185 7.031 8.19133 6.75768C8.23089 6.85238 8.27057 6.94694 8.31013 7.04165C8.61555 6.55791 8.73434 6.03726 8.66651 5.47984C8.74575 5.10117 8.82487 5.10117 8.9041 5.47984C9.04274 5.1486 9.18125 4.81721 9.31989 4.48596C9.28033 4.39126 9.24065 4.2967 9.20109 4.202C9.24219 4.03219 9.30159 4.03219 9.37928 4.202C9.50271 3.88311 9.64134 3.57543 9.79507 3.27912C9.75551 3.23183 9.71583 3.18441 9.67627 3.13713C9.85126 2.78956 10.0097 2.4346 10.1515 2.07227Z"
        fill="#1666B0" />
    <path opacity="0.951" fill-rule="evenodd" clip-rule="evenodd"
        d="M16.4476 7.32564C16.512 7.81008 16.6703 8.23603 16.9228 8.60348C16.9023 8.74433 16.942 8.83889 17.0416 8.88744C17.0211 9.02829 17.0608 9.12285 17.1604 9.17141C17.4284 10.3297 17.8243 11.3236 18.3483 12.153C18.3087 12.2477 18.2691 12.3423 18.2295 12.437C18.3681 12.7682 18.5067 13.0996 18.6453 13.4309C18.7245 13.0522 18.8036 13.0522 18.8829 13.4309C18.815 13.9883 18.9338 14.5089 19.2393 14.9927C19.2788 14.898 19.3185 14.8034 19.3581 14.7087C19.6068 15.0593 19.6662 15.4379 19.5363 15.8446C19.6679 16.2079 19.8262 16.5392 20.0114 16.8385C20.1155 17.418 20.3135 17.9387 20.6054 18.4003C20.7095 18.9798 20.9075 19.5005 21.1994 19.9621C21.4638 20.9551 21.7806 21.8544 22.1497 22.6597C22.1342 22.7647 22.154 22.8594 22.2091 22.9437C22.2868 22.7739 22.3462 22.7739 22.3873 22.9437C22.3478 23.0384 22.3081 23.133 22.2685 23.2277C22.4467 23.6536 22.6249 24.0795 22.8031 24.5055C22.8824 24.1268 22.9615 24.1268 23.0407 24.5055C23.1114 24.7041 23.0916 24.8934 22.9813 25.0734C23.3183 26.0682 23.7143 27.0147 24.1693 27.9131C24.2263 28.3309 24.3451 28.7096 24.5256 29.0489C24.5014 29.4774 24.4619 29.9034 24.4069 30.3268C24.3073 30.3753 24.2676 30.4699 24.2881 30.6107C24.1885 30.6593 24.1488 30.7539 24.1693 30.8947C24.09 30.8947 24.0505 30.942 24.0505 31.0367C23.9712 31.0367 23.9317 31.084 23.9317 31.1787C23.8524 31.1787 23.8129 31.2259 23.8129 31.3206C23.7336 31.3206 23.6941 31.3679 23.6941 31.4626C23.6148 31.4626 23.5753 31.5099 23.5753 31.6046C23.4574 31.5802 23.3783 31.6276 23.3377 31.7466C22.8287 31.8595 22.3138 31.9067 21.7934 31.8886C21.6729 31.7219 21.5145 31.6273 21.3182 31.6046C21.1278 31.449 20.9496 31.2596 20.7836 31.0367C20.744 31.084 20.7044 31.1314 20.6648 31.1787C20.7811 30.9261 20.7415 30.6895 20.546 30.4688C19.7133 28.4234 18.8619 26.2462 17.9919 23.9376C18.1503 23.8429 18.1503 23.7483 17.9919 23.6536C17.5448 22.2552 17.0696 20.8828 16.5664 19.5361C16.5664 19.4414 16.5268 19.3941 16.4476 19.3941C16.4476 19.2994 16.408 19.2522 16.3288 19.2522C16.3492 19.1113 16.3095 19.0167 16.21 18.9682C15.1178 15.8723 13.9892 12.7014 12.8243 9.45537C12.7848 9.55008 12.7451 9.64464 12.7055 9.73934C12.6349 9.5407 12.6547 9.35144 12.7649 9.17141C12.666 8.93472 12.5669 8.69818 12.4679 8.4615C12.3407 8.8325 12.2416 8.8325 12.171 8.4615C12.3945 8.35913 12.4341 8.21715 12.2898 8.03555C12.2898 7.89357 12.2898 7.75159 12.2898 7.6096C12.9398 5.75205 13.613 3.90628 14.3093 2.07229C14.395 2.01295 14.4544 1.91839 14.4875 1.78833C14.632 2.07513 14.6518 2.3591 14.5469 2.64022C14.7251 3.06617 14.9032 3.49212 15.0814 3.91806C15.1983 3.59222 15.2973 3.63964 15.3784 4.06005C15.2682 4.24008 15.2483 4.42934 15.319 4.62798C15.6362 5.57542 16.0124 6.4746 16.4476 7.32564Z"
        fill="#203C8C" />
    <path opacity="0.01" fill-rule="evenodd" clip-rule="evenodd"
        d="M16.4476 7.32559C16.432 7.22067 16.4519 7.12596 16.507 7.04163C16.5892 7.17466 16.5693 7.26922 16.4476 7.32559Z"
        fill="#213B8C" />
    <path opacity="0.01" fill-rule="evenodd" clip-rule="evenodd"
        d="M16.5664 7.46765C16.7248 7.56235 16.7248 7.56235 16.5664 7.46765Z" fill="#213B8C" />
    <path opacity="0.01" fill-rule="evenodd" clip-rule="evenodd"
        d="M16.6852 7.75159C16.8435 7.84629 16.8435 7.84629 16.6852 7.75159Z" fill="#213B8C" />
    <path opacity="0.01" fill-rule="evenodd" clip-rule="evenodd"
        d="M16.804 8.03552C16.9623 8.13022 16.9623 8.13022 16.804 8.03552Z" fill="#213B8C" />
    <path opacity="0.01" fill-rule="evenodd" clip-rule="evenodd"
        d="M16.9228 8.60342C16.9072 8.4985 16.9271 8.4038 16.9822 8.31946C17.0644 8.4525 17.0446 8.54706 16.9228 8.60342Z"
        fill="#213B8C" />
    <path opacity="0.01" fill-rule="evenodd" clip-rule="evenodd"
        d="M17.0416 8.74548C17.1999 8.84019 17.1999 8.84019 17.0416 8.74548Z" fill="#213B8C" />
    <path opacity="0.01" fill-rule="evenodd" clip-rule="evenodd"
        d="M17.1603 9.02942C17.3187 9.12412 17.3187 9.12412 17.1603 9.02942Z" fill="#213B8C" />
    <path opacity="0.012" fill-rule="evenodd" clip-rule="evenodd"
        d="M11.577 10.0233C11.7101 10.2489 11.6903 10.4856 11.5176 10.7332C11.4602 10.5986 11.4405 10.4566 11.4582 10.3073C11.5577 10.2587 11.5974 10.1642 11.577 10.0233Z"
        fill="#1565AF" />
    <path opacity="0.01" fill-rule="evenodd" clip-rule="evenodd"
        d="M6.70636 10.4492C6.82813 10.5056 6.84797 10.6001 6.76576 10.7332C6.71064 10.6488 6.6908 10.5541 6.70636 10.4492Z"
        fill="#1565AF" />
    <path opacity="0.01" fill-rule="evenodd" clip-rule="evenodd"
        d="M6.58759 10.8752C6.74594 10.9699 6.74594 10.9699 6.58759 10.8752Z" fill="#1665B0" />
    <path opacity="0.01" fill-rule="evenodd" clip-rule="evenodd"
        d="M6.35002 12.0111C6.27078 11.8218 6.27078 11.8218 6.35002 12.0111Z" fill="#1664B0" />
    <path opacity="0.01" fill-rule="evenodd" clip-rule="evenodd"
        d="M20.0114 16.8384C19.9959 16.7335 20.0157 16.6388 20.0708 16.5544C20.153 16.6875 20.1332 16.782 20.0114 16.8384Z"
        fill="#213B8C" />
    <path opacity="0.01" fill-rule="evenodd" clip-rule="evenodd"
        d="M20.6054 18.4003C20.5899 18.2954 20.6097 18.2007 20.6648 18.1163C20.747 18.2494 20.7272 18.3439 20.6054 18.4003Z"
        fill="#213B8C" />
    <path opacity="0.01" fill-rule="evenodd" clip-rule="evenodd"
        d="M20.7242 18.5422C20.8826 18.6369 20.8826 18.6369 20.7242 18.5422Z" fill="#213B8C" />
    <path opacity="0.01" fill-rule="evenodd" clip-rule="evenodd"
        d="M20.843 18.8262C21.0014 18.9209 21.0014 18.9209 20.843 18.8262Z" fill="#213B8C" />
    <path opacity="0.01" fill-rule="evenodd" clip-rule="evenodd"
        d="M20.9618 19.1102C21.1201 19.2049 21.1201 19.2049 20.9618 19.1102Z" fill="#213B8C" />
    <path opacity="0.918" fill-rule="evenodd" clip-rule="evenodd"
        d="M16.21 18.9681C16.1895 19.109 16.2292 19.2035 16.3288 19.2521C16.408 19.2521 16.4476 19.2994 16.4476 19.3941C16.5268 19.3941 16.5664 19.4414 16.5664 19.5361C13.7153 19.5361 10.8642 19.5361 8.01312 19.5361C8.01312 19.4414 8.05268 19.3941 8.13192 19.3941C8.21115 19.3941 8.25071 19.3468 8.25071 19.2521C10.9312 19.3428 13.5843 19.2483 16.21 18.9681Z"
        fill="#2A7FBF" />
    <path opacity="0.01" fill-rule="evenodd" clip-rule="evenodd"
        d="M21.0806 19.3942C21.239 19.4889 21.239 19.4889 21.0806 19.3942Z" fill="#213B8C" />
    <path fill-rule="evenodd" clip-rule="evenodd"
        d="M8.01313 19.5361C10.8642 19.5361 13.7153 19.5361 16.5664 19.5361C17.0696 20.8828 17.5448 22.2552 17.9919 23.6536C14.2108 23.7953 10.4093 23.8427 6.58759 23.7956C6.93423 22.3059 7.40941 20.8861 8.01313 19.5361Z"
        fill="#3BACE0" />
    <path opacity="0.01" fill-rule="evenodd" clip-rule="evenodd"
        d="M21.1994 19.8201C21.3578 19.9148 21.3578 19.9148 21.1994 19.8201Z" fill="#213B8C" />
    <path opacity="0.01" fill-rule="evenodd" clip-rule="evenodd"
        d="M3.14252 19.962C3.26429 20.0184 3.28413 20.113 3.20192 20.246C3.1468 20.1617 3.12696 20.067 3.14252 19.962Z"
        fill="#1665B0" />
    <path opacity="0.01" fill-rule="evenodd" clip-rule="evenodd"
        d="M2.66734 21.8078C2.5881 21.6186 2.5881 21.6186 2.66734 21.8078Z" fill="#1665B0" />
    <path opacity="0.01" fill-rule="evenodd" clip-rule="evenodd"
        d="M2.42975 21.9498C2.5881 22.0445 2.5881 22.0445 2.42975 21.9498Z" fill="#1665B0" />
    <path opacity="0.01" fill-rule="evenodd" clip-rule="evenodd"
        d="M2.31097 22.2338C2.46933 22.3285 2.46933 22.3285 2.31097 22.2338Z" fill="#1665B0" />
    <path opacity="0.01" fill-rule="evenodd" clip-rule="evenodd"
        d="M22.1498 22.5177C22.3081 22.6124 22.3081 22.6124 22.1498 22.5177Z" fill="#213B8C" />
    <path opacity="0.014" fill-rule="evenodd" clip-rule="evenodd"
        d="M6.46881 24.2216C6.50837 24.2216 6.54805 24.2216 6.58761 24.2216C6.60804 24.3624 6.56836 24.457 6.46881 24.5055C6.46881 24.4108 6.46881 24.3163 6.46881 24.2216Z"
        fill="#1566AF" />
    <path opacity="0.01" fill-rule="evenodd" clip-rule="evenodd"
        d="M6.2312 24.9314C6.38955 25.0261 6.38955 25.0261 6.2312 24.9314Z" fill="#1665B0" />
    <path opacity="0.01" fill-rule="evenodd" clip-rule="evenodd"
        d="M18.3483 25.4994C18.5067 25.5941 18.5067 25.5941 18.3483 25.4994Z" fill="#213B8C" />
    <path opacity="0.01" fill-rule="evenodd" clip-rule="evenodd"
        d="M18.4671 25.7833C18.6255 25.878 18.6255 25.878 18.4671 25.7833Z" fill="#213B8C" />
    <path opacity="0.01" fill-rule="evenodd" clip-rule="evenodd"
        d="M18.5859 26.0673C18.7442 26.162 18.7442 26.162 18.5859 26.0673Z" fill="#213B8C" />
    <path opacity="0.01" fill-rule="evenodd" clip-rule="evenodd"
        d="M18.7047 26.3513C18.8631 26.446 18.8631 26.446 18.7047 26.3513Z" fill="#213B8C" />
    <path opacity="0.012" fill-rule="evenodd" clip-rule="evenodd"
        d="M24.288 27.913C24.2485 27.913 24.2088 27.913 24.1693 27.913C24.2088 27.5344 24.2485 27.5344 24.288 27.913Z"
        fill="#213C8B" />
    <path opacity="0.01" fill-rule="evenodd" clip-rule="evenodd"
        d="M24.2881 27.9131C24.4099 27.9695 24.4297 28.064 24.3475 28.1971C24.2924 28.1127 24.2725 28.018 24.2881 27.9131Z"
        fill="#213B8C" />
    <path opacity="0.01" fill-rule="evenodd" clip-rule="evenodd"
        d="M5.04327 28.197C5.20163 28.2917 5.20163 28.2917 5.04327 28.197Z" fill="#1665B0" />
    <path opacity="0.01" fill-rule="evenodd" clip-rule="evenodd"
        d="M4.9245 28.481C5.08285 28.5757 5.08285 28.5757 4.9245 28.481Z" fill="#1665B0" />
    <path opacity="0.01" fill-rule="evenodd" clip-rule="evenodd"
        d="M24.6444 29.049C24.6049 29.049 24.5652 29.049 24.5256 29.049C24.5652 28.4811 24.6049 28.4811 24.6444 29.049Z"
        fill="#203B8B" />
    <path opacity="0.01" fill-rule="evenodd" clip-rule="evenodd"
        d="M4.80566 28.765C4.96402 28.8597 4.96402 28.9543 4.80566 29.049C4.80566 28.9543 4.80566 28.8597 4.80566 28.765Z"
        fill="#1665B0" />
    <path opacity="0.01" fill-rule="evenodd" clip-rule="evenodd"
        d="M4.68689 29.049C4.72645 29.049 4.76613 29.049 4.80568 29.049C4.82612 29.1898 4.78644 29.2844 4.68689 29.3329C4.68689 29.2382 4.68689 29.1437 4.68689 29.049Z"
        fill="#1665B0" />
    <path opacity="0.01" fill-rule="evenodd" clip-rule="evenodd"
        d="M24.6445 29.049C24.8028 29.1437 24.8028 29.1437 24.6445 29.049Z" fill="#213B8C" />
    <path opacity="0.01" fill-rule="evenodd" clip-rule="evenodd"
        d="M4.56812 29.3329C4.60767 29.3329 4.64735 29.3329 4.68691 29.3329C4.70734 29.4737 4.66767 29.5683 4.56812 29.6169C4.56812 29.5221 4.56812 29.4276 4.56812 29.3329Z"
        fill="#1565AF" />
    <path opacity="0.01" fill-rule="evenodd" clip-rule="evenodd"
        d="M4.44928 29.6168C4.48884 29.6168 4.52852 29.6168 4.56807 29.6168C4.52852 29.9955 4.48884 29.9955 4.44928 29.6168Z"
        fill="#1565AF" />
    <path opacity="0.01" fill-rule="evenodd" clip-rule="evenodd"
        d="M24.6445 29.6168C24.8028 29.7115 24.8028 29.7115 24.6445 29.6168Z" fill="#213B8C" />
    <path opacity="0.016" fill-rule="evenodd" clip-rule="evenodd"
        d="M28.6835 29.6168C28.723 29.6168 28.7627 29.6168 28.8023 29.6168C28.8023 29.8061 28.8023 29.9955 28.8023 30.1848C28.6913 30.0331 28.6516 29.8439 28.6835 29.6168Z"
        fill="#3BACE0" />
    <path opacity="0.01" fill-rule="evenodd" clip-rule="evenodd"
        d="M24.5256 30.3268C24.5079 30.1775 24.5276 30.0355 24.585 29.9009C24.6729 30.0782 24.6531 30.2202 24.5256 30.3268Z"
        fill="#213B8C" />
    <path opacity="0.01" fill-rule="evenodd" clip-rule="evenodd"
        d="M4.33051 30.0428C4.48886 30.1375 4.48886 30.1375 4.33051 30.0428Z" fill="#1665B0" />
    <path opacity="0.016" fill-rule="evenodd" clip-rule="evenodd"
        d="M4.21167 30.3268C4.37002 30.4215 4.37002 30.4215 4.21167 30.3268Z" fill="#1665B0" />
    <path opacity="0.01" fill-rule="evenodd" clip-rule="evenodd"
        d="M24.4069 30.3268C24.4464 30.3268 24.4861 30.3268 24.5257 30.3268C24.5461 30.4676 24.5064 30.5622 24.4069 30.6107C24.4069 30.516 24.4069 30.4215 24.4069 30.3268Z"
        fill="#213B8C" />
    <path opacity="0.01" fill-rule="evenodd" clip-rule="evenodd"
        d="M28.8023 30.1848C28.8419 30.1848 28.8815 30.1848 28.9211 30.1848C28.8815 30.5635 28.8419 30.5635 28.8023 30.1848Z"
        fill="#3BADE0" />
    <path opacity="0.01" fill-rule="evenodd" clip-rule="evenodd"
        d="M4.0929 30.4688C4.13245 30.4688 4.17213 30.4688 4.21169 30.4688C4.23212 30.6096 4.19245 30.7042 4.0929 30.7527C4.0929 30.658 4.0929 30.5635 4.0929 30.4688Z"
        fill="#1565AF" />
    <path opacity="0.01" fill-rule="evenodd" clip-rule="evenodd"
        d="M24.2881 30.6107C24.3276 30.6107 24.3673 30.6107 24.4069 30.6107C24.4273 30.7516 24.3876 30.8461 24.2881 30.8947C24.2881 30.8 24.2881 30.7054 24.2881 30.6107Z"
        fill="#213B8C" />
    <path opacity="0.01" fill-rule="evenodd" clip-rule="evenodd"
        d="M3.97412 30.7527C4.01368 30.7527 4.05336 30.7527 4.09292 30.7527C4.11335 30.8935 4.07367 30.9881 3.97412 31.0367C3.97412 30.9419 3.97412 30.8474 3.97412 30.7527Z"
        fill="#1565AF" />
    <path opacity="0.02" fill-rule="evenodd" clip-rule="evenodd"
        d="M24.1693 30.8947C24.2088 30.8947 24.2485 30.8947 24.288 30.8947C24.2661 30.9898 24.2264 30.9898 24.1693 30.8947Z"
        fill="#213B8C" />
    <path opacity="0.012" fill-rule="evenodd" clip-rule="evenodd"
        d="M3.85529 31.0367C3.89484 31.0367 3.93452 31.0367 3.97408 31.0367C3.9521 31.1319 3.91243 31.1319 3.85529 31.0367Z"
        fill="#1665B0" />
    <path opacity="0.016" fill-rule="evenodd" clip-rule="evenodd"
        d="M24.0505 31.0367C24.09 31.0367 24.1297 31.0367 24.1693 31.0367C24.1473 31.1319 24.1076 31.1319 24.0505 31.0367Z"
        fill="#213B8C" />
    <path opacity="0.02" fill-rule="evenodd" clip-rule="evenodd"
        d="M3.73651 31.1787C3.77607 31.1787 3.81575 31.1787 3.85531 31.1787C3.83333 31.2738 3.79365 31.2738 3.73651 31.1787Z"
        fill="#1665B0" />
    <path opacity="0.012" fill-rule="evenodd" clip-rule="evenodd"
        d="M23.9317 31.1787C23.9713 31.1787 24.0109 31.1787 24.0505 31.1787C24.0285 31.2738 23.9888 31.2738 23.9317 31.1787Z"
        fill="#213A8C" />
    <path opacity="0.01" fill-rule="evenodd" clip-rule="evenodd"
        d="M29.3962 31.0367C29.4118 31.1417 29.392 31.2364 29.3368 31.3207C29.2546 31.1877 29.2745 31.0931 29.3962 31.0367Z"
        fill="#3BADE0" />
    <path opacity="0.02" fill-rule="evenodd" clip-rule="evenodd"
        d="M3.61774 31.3207C3.6573 31.3207 3.69697 31.3207 3.73653 31.3207C3.71455 31.4158 3.67488 31.4158 3.61774 31.3207Z"
        fill="#1665B0" />
    <path opacity="0.01" fill-rule="evenodd" clip-rule="evenodd"
        d="M23.8129 31.3207C23.8524 31.3207 23.8921 31.3207 23.9317 31.3207C23.9097 31.4158 23.87 31.4158 23.8129 31.3207Z"
        fill="#213B8C" />
    <path opacity="0.012" fill-rule="evenodd" clip-rule="evenodd"
        d="M3.4989 31.4626C3.53846 31.4626 3.57814 31.4626 3.6177 31.4626C3.59572 31.5578 3.55604 31.5578 3.4989 31.4626Z"
        fill="#1665B0" />
    <path opacity="0.01" fill-rule="evenodd" clip-rule="evenodd"
        d="M23.6941 31.4626C23.7337 31.4626 23.7733 31.4626 23.8129 31.4626C23.7909 31.5578 23.7512 31.5578 23.6941 31.4626Z"
        fill="#213B8C" />
    <path opacity="0.01" fill-rule="evenodd" clip-rule="evenodd"
        d="M3.26135 31.7466C3.26135 31.6993 3.26135 31.6519 3.26135 31.6046C3.34059 31.6046 3.41971 31.6046 3.49894 31.6046C3.45831 31.7236 3.3792 31.771 3.26135 31.7466Z"
        fill="#1665B0" />
    <path opacity="0.01" fill-rule="evenodd" clip-rule="evenodd"
        d="M21.3182 31.6046C21.3182 31.6519 21.3182 31.6993 21.3182 31.7466C21.0014 31.6993 21.0014 31.6519 21.3182 31.6046Z"
        fill="#213B8C" />
    <path opacity="0.01" fill-rule="evenodd" clip-rule="evenodd"
        d="M23.5753 31.6046C23.6149 31.6046 23.6546 31.6046 23.6941 31.6046C23.6721 31.6997 23.6325 31.6997 23.5753 31.6046Z"
        fill="#213B8C" />
    <path opacity="0.01" fill-rule="evenodd" clip-rule="evenodd"
        d="M1.2418 31.7466C1.2418 31.7939 1.2418 31.8413 1.2418 31.8886C0.925014 31.8413 0.925014 31.7939 1.2418 31.7466Z"
        fill="#1565AF" />
    <path opacity="0.012" fill-rule="evenodd" clip-rule="evenodd"
        d="M3.26133 31.7466C3.1821 31.8413 3.1821 31.8413 3.26133 31.7466Z" fill="#1665B0" />
    <path opacity="0.012" fill-rule="evenodd" clip-rule="evenodd"
        d="M21.3182 31.7466C21.4765 31.8413 21.4765 31.8413 21.3182 31.7466Z" fill="#213B8C" />
    <path opacity="0.01" fill-rule="evenodd" clip-rule="evenodd"
        d="M23.3377 31.8886C23.3377 31.8413 23.3377 31.7939 23.3377 31.7466C23.4169 31.7466 23.4961 31.7466 23.5753 31.7466C23.5347 31.8656 23.4556 31.913 23.3377 31.8886Z"
        fill="#213C8B" />
    <path opacity="0.01" fill-rule="evenodd" clip-rule="evenodd"
        d="M31.8909 31.8886C31.8909 31.8413 31.8909 31.7939 31.8909 31.7466C31.9702 31.7466 32.0493 31.7466 32.1285 31.7466C32.0879 31.8656 32.0088 31.913 31.8909 31.8886Z"
        fill="#3CACE0" />
    <path opacity="0.01" fill-rule="evenodd" clip-rule="evenodd"
        d="M1.24182 31.8886C1.3296 31.87 1.4088 31.8937 1.47941 31.9596C1.36812 32.0578 1.28894 32.0341 1.24182 31.8886Z"
        fill="#1665B0" />
    <path opacity="0.01" fill-rule="evenodd" clip-rule="evenodd"
        d="M2.78613 31.8886C2.87392 31.87 2.95316 31.8937 3.02372 31.9596C2.91241 32.0578 2.83329 32.0341 2.78613 31.8886Z"
        fill="#1665B0" />
    <path opacity="0.01" fill-rule="evenodd" clip-rule="evenodd"
        d="M21.7934 31.8886C21.7462 32.0341 21.6671 32.0578 21.5558 31.9596C21.6264 31.8937 21.7056 31.87 21.7934 31.8886Z"
        fill="#213B8C" />
    <path opacity="0.01" fill-rule="evenodd" clip-rule="evenodd"
        d="M23.3377 31.8886C23.2905 32.0341 23.2114 32.0578 23.1001 31.9596C23.1707 31.8937 23.2499 31.87 23.3377 31.8886Z"
        fill="#213B8C" />
    <path opacity="0.01" fill-rule="evenodd" clip-rule="evenodd"
        d="M30.4654 31.8885C30.4654 31.9358 30.4654 31.9833 30.4654 32.0305C29.9902 31.9833 29.9902 31.9358 30.4654 31.8885Z"
        fill="#3BADE0" />
    <path opacity="0.01" fill-rule="evenodd" clip-rule="evenodd"
        d="M31.891 31.8886C31.8438 32.0341 31.7647 32.0578 31.6534 31.9596C31.7239 31.8937 31.8032 31.87 31.891 31.8886Z"
        fill="#3CADE1" />
    <path opacity="0.01" fill-rule="evenodd" clip-rule="evenodd"
        d="M1.59821 32.1725C1.93131 32.0109 2.28769 31.9872 2.66736 32.1015C2.31311 32.1722 1.95673 32.1959 1.59821 32.1725Z"
        fill="#1665B0" />
    <path opacity="0.01" fill-rule="evenodd" clip-rule="evenodd"
        d="M21.9122 32.1725C22.2453 32.0109 22.6017 31.9872 22.9813 32.1015C22.6271 32.1722 22.2707 32.1959 21.9122 32.1725Z"
        fill="#213B8B" />
    <path opacity="0.01" fill-rule="evenodd" clip-rule="evenodd"
        d="M30.4654 32.0306C30.8239 32.0072 31.1803 32.0309 31.5345 32.1016C31.1549 32.2159 30.7985 32.1922 30.4654 32.0306Z"
        fill="#3BACE1" />
</svg>