<svg width="32" height="32" viewBox="0 0 32 32" fill="none" xmlns="http://www.w3.org/2000/svg">
    <g clip-path="url(#clip0_716_97)">
        <path fill-rule="evenodd" clip-rule="evenodd"
            d="M-0.0799561 -0.0799561C10.5867 -0.0799561 21.2533 -0.0799561 31.92 -0.0799561C31.92 10.5867 31.92 21.2533 31.92 31.92C21.2533 31.92 10.5867 31.92 -0.0799561 31.92C-0.0799561 21.2533 -0.0799561 10.5867 -0.0799561 -0.0799561Z"
            fill="#FEFEFE" />
        <path fill-rule="evenodd" clip-rule="evenodd"
            d="M26 7.59997C25.9522 7.93661 26.0054 8.25661 26.16 8.55997C26.3552 8.3662 26.5419 8.3662 26.72 8.55997C27.0704 8.92522 27.1771 9.35189 27.04 9.83997C26.837 9.61522 26.757 9.34855 26.8 9.03997C26.64 9.03997 26.48 9.03997 26.32 9.03997C26.5341 9.68037 26.7475 10.3204 26.96 10.96C26.5443 11.5901 26.0643 12.1767 25.52 12.72C25.4133 12.72 25.3067 12.72 25.2 12.72C24.1176 10.9974 22.6776 9.66405 20.88 8.71997C20.88 8.50664 20.88 8.2933 20.88 8.07997C21.8547 6.9546 23.0814 6.5546 24.56 6.87997C25.1173 7.00236 25.5973 7.24236 26 7.59997Z"
            fill="#2C499E" />
        <path fill-rule="evenodd" clip-rule="evenodd"
            d="M9.35994 9.84004C8.95284 9.90336 8.60617 9.79668 8.31994 9.52004C8.18196 9.77396 8.07529 10.0406 7.99994 10.32C7.46271 10.521 6.98271 10.8943 6.55994 11.44C6.30058 11.1261 6.00726 10.8594 5.67994 10.64C5.43892 10.4405 5.19892 10.4405 4.95994 10.64C4.86287 9.99414 4.88954 9.35414 5.03994 8.72004C5.74537 8.60044 6.1187 8.17377 6.15994 7.44004C7.74449 6.53617 9.29114 6.61617 10.7999 7.68004C11.1389 8.035 11.1923 8.435 10.9599 8.88004C10.4658 9.26803 9.93244 9.58803 9.35994 9.84004Z"
            fill="#29479D" />
        <path fill-rule="evenodd" clip-rule="evenodd"
            d="M19.92 8.23994C18.6123 7.88306 17.279 7.66973 15.92 7.59994C14.4254 7.74408 12.9854 8.03743 11.6 8.47994C13.8022 7.45373 16.0955 7.18706 18.48 7.67994C19.0184 7.76079 19.4984 7.94746 19.92 8.23994Z"
            fill="#A9AECB" />
        <path fill-rule="evenodd" clip-rule="evenodd"
            d="M20.88 8.07996C20.88 8.29328 20.88 8.50663 20.88 8.71996C20.52 8.61912 20.2 8.45912 19.92 8.23996C20.1488 8.22728 20.3623 8.28063 20.56 8.39996C20.6692 8.28112 20.7759 8.17445 20.88 8.07996Z"
            fill="#90A1C6" />
        <path fill-rule="evenodd" clip-rule="evenodd"
            d="M26 7.59998C27.372 8.45863 27.692 9.57863 26.96 10.96C26.7475 10.3204 26.5341 9.68038 26.32 9.03998C26.48 9.03998 26.64 9.03998 26.8 9.03998C26.757 9.34855 26.837 9.61522 27.04 9.83998C27.1771 9.3519 27.0704 8.92522 26.72 8.55998C26.5419 8.3662 26.3552 8.3662 26.16 8.55998C26.0054 8.25662 25.9522 7.93662 26 7.59998Z"
            fill="#364F99" />
        <path fill-rule="evenodd" clip-rule="evenodd"
            d="M6.16006 7.43994C6.11881 8.17367 5.74548 8.60034 5.04006 8.71994C4.88966 9.35404 4.86299 9.99404 4.96006 10.6399C5.19903 10.4404 5.43903 10.4404 5.68006 10.6399C6.00737 10.8593 6.3007 11.126 6.56006 11.4399C6.98283 10.8942 7.46283 10.5209 8.00006 10.3199C8.0754 10.0405 8.18207 9.77386 8.32006 9.51994C8.60628 9.79658 8.95295 9.90325 9.36006 9.83994C8.41694 10.7494 7.53694 11.7094 6.72006 12.7199C5.55612 12.039 4.83612 11.0523 4.56006 9.75994C4.7426 8.74975 5.27595 7.97642 6.16006 7.43994Z"
            fill="#324C9C" />
        <path fill-rule="evenodd" clip-rule="evenodd"
            d="M11.6 12.72C13.3193 12.7071 14.0393 13.5605 13.76 15.28C13.1936 17.1834 11.9403 18.1701 9.99998 18.24C9.65331 18.1067 9.41331 17.8667 9.27998 17.52C9.05054 16.895 8.99721 16.255 9.11998 15.6C9.61575 14.3332 10.4424 13.3732 11.6 12.72Z"
            fill="#5875C3" />
        <path fill-rule="evenodd" clip-rule="evenodd"
            d="M25.2 12.72C25.3067 12.72 25.4132 12.72 25.52 12.72C26.0075 13.6956 26.4075 14.709 26.72 15.76C26.9564 16.9777 27.0099 18.2045 26.88 19.44C27.019 17.0182 26.459 14.7782 25.2 12.72Z"
            fill="#A3A9C3" />
        <path fill-rule="evenodd" clip-rule="evenodd"
            d="M11.6 14.32C12.4334 14.1928 12.7534 14.5128 12.56 15.28C11.5445 15.6511 11.2245 15.3311 11.6 14.32Z"
            fill="#28489E" />
        <path fill-rule="evenodd" clip-rule="evenodd"
            d="M19.2801 12.72C20.9649 12.7759 22.1649 13.5759 22.8801 15.12C23.2825 16.1957 23.149 17.1824 22.4801 18.08C21.6097 18.4661 20.8097 18.3593 20.0801 17.76C18.4858 16.5529 18.0325 15.033 18.7201 13.2C18.9629 13.0938 19.1497 12.9338 19.2801 12.72Z"
            fill="#5875C4" />
        <path fill-rule="evenodd" clip-rule="evenodd"
            d="M19.6 14.3201C20.4275 14.1704 20.7743 14.4904 20.64 15.2801C19.6962 15.5894 19.3496 15.2694 19.6 14.3201Z"
            fill="#29489E" />
        <path fill-rule="evenodd" clip-rule="evenodd"
            d="M7.27997 22.8C5.14421 21.4051 4.31753 19.4319 4.79997 16.88C4.86321 16.317 5.02321 15.7837 5.27997 15.28C5.17563 16.1813 5.0423 17.0879 4.87997 18C4.85777 19.2397 5.20445 20.3597 5.91997 21.36C6.40603 21.8191 6.85936 22.2991 7.27997 22.8Z"
            fill="#A7ACCA" />
        <path fill-rule="evenodd" clip-rule="evenodd"
            d="M14.8 18.48C15.7082 18.4535 16.6148 18.4802 17.52 18.56C17.6094 18.676 17.6627 18.8093 17.68 18.96C17.2817 20.0128 16.535 20.3595 15.44 20C15.2 19.76 14.96 19.52 14.72 19.28C14.6176 18.9976 14.6443 18.7309 14.8 18.48Z"
            fill="#5D77C2" />
        <path fill-rule="evenodd" clip-rule="evenodd"
            d="M26 21.36C26.2379 20.7768 26.4779 20.1901 26.72 19.6C26.7454 20.2957 26.5054 20.8822 26 21.36Z"
            fill="#A7ABC6" />
        <path fill-rule="evenodd" clip-rule="evenodd"
            d="M26 21.36C25.6267 22.0533 25.0933 22.5867 24.4 22.96C24.88 22.3733 25.4133 21.84 26 21.36Z"
            fill="#A6A9BE" />
        <path fill-rule="evenodd" clip-rule="evenodd"
            d="M19.6 20.88C19.8132 20.88 20.0267 20.88 20.24 20.88C20.3467 22.16 19.76 22.7467 18.48 22.64C18.4548 22.4203 18.4816 22.2069 18.56 22C19.1568 21.8566 19.5035 21.4834 19.6 20.88Z"
            fill="#2F4A98" />
        <path fill-rule="evenodd" clip-rule="evenodd"
            d="M7.28003 22.8C8.24624 23.2831 9.20624 23.7631 10.16 24.24C9.06157 24.0108 8.10157 23.5308 7.28003 22.8Z"
            fill="#A5A8C8" />
        <path fill-rule="evenodd" clip-rule="evenodd"
            d="M24.4 22.96C22.6983 24.1948 20.7783 24.9148 18.64 25.12C16.88 25.2267 15.12 25.2267 13.36 25.12C12.2324 24.9718 11.1657 24.6785 10.16 24.24C13.6583 25.199 17.1783 25.279 20.72 24.48C22.0271 24.1427 23.2538 23.6361 24.4 22.96Z"
            fill="#A6ABC7" />
    </g>
    <defs>
        <clipPath id="clip0_716_97">
            <rect width="32" height="32" fill="white" />
        </clipPath>
    </defs>
</svg>