<svg width="32" height="32" viewBox="0 0 32 32" fill="none" xmlns="http://www.w3.org/2000/svg">
<path d="M31.3145 22.6855V29.4277H14.464C9.55446 29.4277 5.26769 26.7163 2.97477 22.6855C1.96017 20.899 1.36388 18.9056 1.23077 16.8554L1.23077 15.0339C1.29063 14.0982 1.44779 13.1714 1.69969 12.2683C3.27507 6.60678 8.39384 2.46155 14.4628 2.46155C20.5354 2.46155 25.6529 6.60924 27.2271 12.2671H20.0221C18.8406 10.4222 16.7926 9.20247 14.464 9.20247C12.1354 9.20247 10.0886 10.4222 8.90584 12.2671C8.54027 12.8352 8.26229 13.455 8.08123 14.1059C7.91529 14.7047 7.83165 15.3233 7.83261 15.9446C7.82989 16.8599 8.01281 17.7662 8.37032 18.6088C8.72783 19.4514 9.2525 20.2127 9.91261 20.8468C11.1339 22.0267 12.7658 22.686 14.464 22.6855H31.3132H31.3145Z" fill="#FD366E"/>
<path d="M31.3145 14.1046V20.8468H19.0142C19.6745 20.2128 20.1994 19.4515 20.5571 18.609C20.9148 17.7664 21.0979 16.86 21.0954 15.9446C21.096 15.3232 21.0119 14.7046 20.8455 14.1058H31.3145V14.1046Z" fill="#FD366E"/>
</svg>
