<svg width="32" height="32" viewBox="0 0 32 32" fill="none" xmlns="http://www.w3.org/2000/svg">
<path fill-rule="evenodd" clip-rule="evenodd" d="M14.9217 9.48145C15.3169 9.48145 15.7118 9.48145 16.1069 9.48145C16.1069 9.56045 16.1069 9.63948 16.1069 9.71848C16.6021 11.7108 16.7206 13.7651 16.4625 15.8814C16.2266 16.0156 16.0292 16.1736 15.8699 16.3555C13.9928 16.5445 12.768 15.7544 12.1958 13.9851C11.7843 11.6427 12.6931 10.1415 14.9217 9.48145Z" fill="#006180"/>
<path fill-rule="evenodd" clip-rule="evenodd" d="M16.1069 9.71851C17.9231 9.99482 18.8712 11.0615 18.9514 12.9185C18.9284 14.986 17.9013 16.1317 15.8699 16.3555C16.0292 16.1736 16.2266 16.0156 16.4625 15.8815C16.7206 13.7651 16.6021 11.7108 16.1069 9.71851Z" fill="#006180"/>
<path fill-rule="evenodd" clip-rule="evenodd" d="M25.5884 20.3851C26.0487 17.8381 26.2068 15.2307 26.0624 12.5629C25.7564 12.6191 25.5194 12.5401 25.3513 12.3258C27.6205 11.5872 29.4774 12.1403 30.9217 13.9851C32.3503 17.7671 31.086 19.9794 27.1291 20.6221C26.5946 20.6065 26.0809 20.5275 25.5884 20.3851Z" fill="#006180"/>
<path fill-rule="evenodd" clip-rule="evenodd" d="M25.3513 12.3259C25.5194 12.5402 25.7564 12.6192 26.0625 12.563C26.2068 15.2308 26.0487 17.8382 25.5884 20.3852C22.8046 18.8409 22.1331 16.6285 23.5736 13.7482C24.068 13.1333 24.6606 12.6592 25.3513 12.3259Z" fill="#006180"/>
<path fill-rule="evenodd" clip-rule="evenodd" d="M5.67729 13.7481C8.47623 13.4245 9.54289 14.6097 8.87729 17.3036C7.60369 18.7095 6.26064 18.7885 4.84766 17.5407C4.17377 16.0325 4.45039 14.7682 5.67729 13.7481Z" fill="#006180"/>
<path fill-rule="evenodd" clip-rule="evenodd" d="M1.17359 19.4369C2.79232 19.2776 3.46408 19.9887 3.18841 21.5703C2.78758 22.4503 2.11582 22.7269 1.17359 22.3999C-0.0751172 21.4132 -0.0751172 20.4256 1.17359 19.4369Z" fill="#006180"/>
<path d="M26.1926 18.963C27.3054 18.963 28.2074 18.0078 28.2074 16.8296C28.2074 15.6514 27.3054 14.6963 26.1926 14.6963C25.0799 14.6963 24.1778 15.6514 24.1778 16.8296C24.1778 18.0078 25.0799 18.963 26.1926 18.963Z" fill="black"/>
</svg>
