<svg width="32" height="32" viewBox="0 0 32 32" fill="none" xmlns="http://www.w3.org/2000/svg">
<rect width="32" height="32" fill="black"/>
<path d="M24.9911 10.5638V18.3518C24.9911 20.5108 24.6371 22.1301 23.8583 23.3638C23.0796 24.5205 22.1592 25.3687 21.1681 25.9084C20.0353 26.5253 18.8318 26.8337 17.5575 26.9879L14.0884 27.2193C12.1769 27.2193 10.4778 26.6795 9.06189 25.6771C7.71675 24.6747 7.00879 23.0554 7.00879 20.665C7.00879 18.506 7.57516 16.9638 8.8495 16.0385C10.1238 15.0361 11.8937 14.4193 13.9468 14.1108L16.3539 13.8024C17.4159 13.6482 20.6725 13.1855 20.6725 10.9494C20.6725 9.86986 20.1061 9.02166 18.9026 8.63612C18.0518 8.36674 17.169 8.2368 16.2831 8.25058C15.4912 8.25376 14.7041 8.38366 13.9468 8.63612C13.2389 8.79034 12.6725 9.17588 12.3185 9.79275H8.56631C7.85835 9.79275 7.85835 9.25299 7.99994 9.02166C8.35718 8.05004 8.97369 7.2174 9.76985 6.6313C11.1858 5.39757 13.2389 4.7807 15.9291 4.7807C18.9734 4.7807 21.3097 5.32046 22.7964 6.32287C24.2831 7.32528 24.9911 8.71323 24.9911 10.5638ZM20.6725 14.8819L19.8229 15.3446C19.0442 15.7301 17.9822 16.1156 16.6371 16.4241L14.6548 16.8867C13.5221 17.1952 12.7433 17.5807 12.1769 18.1205C11.469 18.8144 11.3982 19.7397 11.3982 20.5108C11.3982 21.5903 11.7522 22.4385 12.3893 23.0554C13.0265 23.5952 13.876 23.9036 15.0088 23.9036C16.7787 23.9036 18.1238 23.3638 19.1858 22.3614C20.2477 21.359 20.7433 19.894 20.7433 18.1205V14.8819H20.6725Z" fill="white"/>
</svg>
