<svg width="32" height="32" viewBox="0 0 32 32" fill="none" xmlns="http://www.w3.org/2000/svg">
<g clip-path="url(#clip0_6_83)">
<path d="M9.4 1.4C7.7 2.2 5 4.5 3.4 6.6C1 9.7 0.5 11.3 0.5 16.1C0.5 20.4 1 22.6 2.6 24.7C5.2 28.2 10.7 32 13.1 32C16.1 32 15.3 28.7 12 26.8C9.3 25.3 7 20.7 8.3 19.4C8.6 19.1 9.9 19.4 11.2 20L13.5 21.1L11.1 19.2C9.1 17.6 8.9 17 9.9 15.2C11 13.1 11.2 13.1 13.5 14.6C15.8 16.1 16.2 16.1 18.5 14.6C20.8 13.1 21 13.1 22.1 15.2C23.1 17 22.9 17.6 20.9 19.2L18.5 21.1L20.8 20C22.1 19.4 23.4 19.1 23.7 19.4C25 20.7 22.7 25.3 20 26.8C16.7 28.7 15.9 32 18.9 32C21.3 32 26.8 28.2 29.4 24.7C31 22.6 31.5 20.4 31.5 16.1C31.5 11.3 31 9.7 28.6 6.6C24 0.4 16.3 -1.6 9.4 1.4ZM18.4 8.7C20.1 12.2 20.1 12.5 18.4 13.7C17.4 14.4 16.3 15 16 15C15.7 15 14.6 14.4 13.6 13.7C11.9 12.5 11.9 12.2 13.6 8.7C14.6 6.7 15.7 5 16 5C16.3 5 17.4 6.7 18.4 8.7Z" fill="#0E275B"/>
<path d="M14.7 22.7C15.4 24.4 16.6 24.4 17.3 22.7C17.6 22 17 21.4 16 21.4C15 21.4 14.4 22 14.7 22.7Z" fill="#0E275B"/>
</g>
<defs>
<clipPath id="clip0_6_83">
<rect width="32" height="32" fill="white"/>
</clipPath>
</defs>
</svg>
