<svg width="32" height="32" viewBox="0 0 32 32" fill="none" xmlns="http://www.w3.org/2000/svg">
<g clip-path="url(#clip0_4649_54)">
<path d="M32 0H0V32H32V0Z" fill="#212B46"/>
<path d="M12.25 22.25C17.4277 22.25 21.625 18.0527 21.625 12.875C21.625 7.69733 17.4277 3.5 12.25 3.5C7.07233 3.5 2.875 7.69733 2.875 12.875C2.875 18.0527 7.07233 22.25 12.25 22.25Z" fill="#3A75FF"/>
<path d="M24.375 28.875C26.7912 28.875 28.75 26.9162 28.75 24.5C28.75 22.0838 26.7912 20.125 24.375 20.125C21.9588 20.125 20 22.0838 20 24.5C20 26.9162 21.9588 28.875 24.375 28.875Z" fill="#FFC301"/>
</g>
<defs>
<clipPath id="clip0_4649_54">
<rect width="32" height="32" fill="white"/>
</clipPath>
</defs>
</svg>
