<svg width="32" height="32" viewBox="0 0 32 32" fill="none" xmlns="http://www.w3.org/2000/svg">
<g clip-path="url(#clip0_24_804)">
<path fill-rule="evenodd" clip-rule="evenodd" d="M-0.0710449 -0.071106C10.5956 -0.071106 21.2623 -0.071106 31.929 -0.071106C31.929 10.5956 31.929 21.2622 31.929 31.9289C30.9334 31.9289 29.9378 31.9289 28.9423 31.9289C28.92 31.7336 28.9437 31.5439 29.0134 31.36C29.4671 30.762 29.87 30.122 30.2223 29.44C30.7286 28.3314 31.0605 27.1699 31.2178 25.9556C31.4009 25.7606 31.4956 25.4997 31.5023 25.1733C31.57 24.5817 31.6173 23.9891 31.6445 23.3956C31.6445 22.9215 31.6445 22.4474 31.6445 21.9733C31.6274 21.1543 31.4852 20.3958 31.2178 19.6978C30.9889 18.1961 30.5147 16.7738 29.7956 15.4311C28.909 13.7666 27.7712 12.297 26.3823 11.0222C25.3281 10.4347 24.3562 9.72355 23.4667 8.88889C22.829 8.70045 22.2365 8.41601 21.689 8.03556C21.0913 7.9411 20.5224 7.77518 19.9823 7.53778C19.1392 7.33588 18.2859 7.21737 17.4223 7.18223C16.9817 6.99435 16.4839 6.89953 15.929 6.89778C15.374 6.89953 14.8762 6.99435 14.4356 7.18223C13.5524 7.13692 12.6991 7.23172 11.8756 7.46667C11.4653 7.48701 11.1334 7.62923 10.8801 7.89334C9.86847 8.18627 8.87291 8.51812 7.8934 8.88889C7.8934 9.07852 7.8934 9.26816 7.8934 9.45778C7.55087 9.55748 7.21901 9.6997 6.89784 9.88445C6.23414 10.3585 5.57044 10.8326 4.90673 11.3067C4.53356 11.6847 4.15429 12.064 3.76896 12.4444C2.96739 13.5497 2.25628 14.7112 1.63562 15.9289C1.32936 16.6463 1.09232 17.3811 0.924511 18.1333C0.557838 18.8214 0.3208 19.5799 0.2134 20.4089C-0.24564 24.5952 0.655101 28.4352 2.91562 31.9289C1.92007 31.9289 0.924511 31.9289 -0.0710449 31.9289C-0.0710449 21.2622 -0.0710449 10.5956 -0.0710449 -0.071106Z" fill="#FDFDFD"/>
<path fill-rule="evenodd" clip-rule="evenodd" d="M24.3911 3.48444C24.6589 3.80634 24.8485 4.18561 24.96 4.62221C24.6904 4.75954 24.4059 4.80695 24.1067 4.76444C24.1431 4.32385 24.2378 3.89718 24.3911 3.48444Z" fill="#E8F3DD"/>
<path fill-rule="evenodd" clip-rule="evenodd" d="M17.4222 7.18221C16.4254 7.01338 15.4298 7.01338 14.4355 7.18221C14.8762 6.99434 15.3739 6.89952 15.9289 6.89777C16.4838 6.89952 16.9816 6.99434 17.4222 7.18221Z" fill="#7C94A1"/>
<path fill-rule="evenodd" clip-rule="evenodd" d="M17.4223 7.18223C18.2859 7.21737 19.1392 7.33588 19.9823 7.53778C20.5224 7.77518 21.0913 7.9411 21.6889 8.03556C22.2365 8.416 22.829 8.70045 23.4667 8.88889C24.3562 9.72355 25.3281 10.4347 26.3823 11.0222C27.7712 12.297 28.909 13.7666 29.7956 15.4311C30.5147 16.7738 30.9889 18.1961 31.2178 19.6978C31.3201 20.3546 31.3912 21.0183 31.4312 21.6889C31.4707 21.8192 31.5418 21.9139 31.6445 21.9733C31.6445 22.4474 31.6445 22.9215 31.6445 23.3956C31.3953 24.1953 31.2531 25.0486 31.2178 25.9556C31.0605 27.1699 30.7286 28.3314 30.2223 29.44C29.87 30.122 29.4671 30.762 29.0134 31.36C28.9437 31.5439 28.92 31.7336 28.9423 31.9289C27.5201 31.9289 26.0978 31.9289 24.6756 31.9289C28.5104 27.7847 29.4585 23.0202 27.5201 17.6356C26.9734 16.5168 26.2385 15.545 25.3156 14.72C25.0785 14.3407 24.8416 13.9615 24.6045 13.5822C23.379 12.4603 21.9805 11.6544 20.4089 11.1644C19.8362 10.7485 19.1726 10.5115 18.4178 10.4533C17.5439 10.3539 16.6668 10.259 15.7867 10.1689C14.6926 10.286 13.6023 10.4282 12.5156 10.5956C11.6591 10.9885 10.7821 11.3204 9.8845 11.5911C8.83601 12.1634 7.88786 12.8745 7.04006 13.7244C6.86003 14.2363 6.52817 14.6156 6.0445 14.8622C5.78125 15.2641 5.59162 15.6908 5.47561 16.1422C5.28599 16.1422 5.09635 16.1422 4.90672 16.1422C4.43655 17.4131 3.96247 18.6931 3.4845 19.9822C3.26854 21.1095 3.17372 22.2473 3.20006 23.3956C3.26441 24.1775 3.35922 24.936 3.4845 25.6711C3.83306 26.681 4.21232 27.7003 4.62228 28.7289C5.30249 29.8856 6.06101 30.9523 6.89784 31.9289C5.57043 31.9289 4.24302 31.9289 2.91561 31.9289C0.655092 28.4352 -0.245648 24.5952 0.213391 20.4089C0.577594 19.7167 0.814631 18.9582 0.924502 18.1333C1.09231 17.3811 1.32935 16.6463 1.63561 15.9289C2.25627 14.7112 2.96738 13.5497 3.76895 12.4444C4.15428 12.064 4.53355 11.6847 4.90672 11.3067C5.57043 10.8326 6.23413 10.3585 6.89784 9.88445C7.219 9.6997 7.55086 9.55748 7.89339 9.45778C7.89339 9.26816 7.89339 9.07852 7.89339 8.88889C8.8729 8.51812 9.86846 8.18627 10.8801 7.89334C11.2649 7.83827 11.5968 7.69605 11.8756 7.46667C12.6991 7.23172 13.5524 7.13692 14.4356 7.18223C15.4299 7.0134 16.4254 7.0134 17.4223 7.18223Z" fill="#0E3952"/>
<path fill-rule="evenodd" clip-rule="evenodd" d="M11.8754 7.46667C11.5966 7.69605 11.2648 7.83827 10.8799 7.89334C11.1333 7.62923 11.4651 7.48701 11.8754 7.46667Z" fill="#8495A0"/>
<path fill-rule="evenodd" clip-rule="evenodd" d="M18.4179 10.4533C19.0555 10.6915 19.7192 10.9286 20.409 11.1644C21.9805 11.6544 23.379 12.4603 24.6045 13.5822C24.8416 13.9615 25.0786 14.3407 25.3157 14.72C26.2385 15.545 26.9734 16.5168 27.5201 17.6356C29.4586 23.0202 28.5104 27.7847 24.6757 31.9289C18.7497 31.9289 12.8238 31.9289 6.89787 31.9289C6.06105 30.9522 5.30252 29.8856 4.62232 28.7289C4.21236 27.7003 3.8331 26.681 3.48454 25.6711C3.57169 24.8503 3.47687 24.0919 3.2001 23.3956C3.17376 22.2472 3.26858 21.1095 3.48454 19.9822C3.96251 18.6931 4.43659 17.4131 4.90676 16.1422C5.09639 16.1422 5.28603 16.1422 5.47565 16.1422C5.59166 15.6908 5.78129 15.2641 6.04454 14.8622C6.52821 14.6156 6.86007 14.2363 7.0401 13.7244C7.8879 12.8745 8.83605 12.1634 9.88454 11.5911C10.7821 11.3204 11.6591 10.9885 12.5157 10.5956C13.6023 10.4282 14.6926 10.2859 15.7868 10.1689C16.6668 10.259 17.5439 10.3538 18.4179 10.4533Z" fill="#FDFDFC"/>
<path fill-rule="evenodd" clip-rule="evenodd" d="M18.4177 10.4533C19.1725 10.5115 19.8361 10.7485 20.4088 11.1644C19.7191 10.9285 19.0553 10.6915 18.4177 10.4533Z" fill="#A5B1BA"/>
<path fill-rule="evenodd" clip-rule="evenodd" d="M16.1423 13.1556C16.1423 12.4444 16.1423 11.7333 16.1423 11.0222C15.763 11.0222 15.3838 11.0222 15.0045 11.0222C15.0045 11.7333 15.0045 12.4444 15.0045 13.1556C14.864 12.4245 14.8166 11.666 14.8623 10.88C15.3838 10.88 15.9052 10.88 16.4267 10.88C16.5139 11.7008 16.419 12.4593 16.1423 13.1556Z" fill="#CFE9B0"/>
<path fill-rule="evenodd" clip-rule="evenodd" d="M16.1422 13.1556C15.7629 13.1556 15.3837 13.1556 15.0044 13.1556C15.0044 12.4444 15.0044 11.7333 15.0044 11.0222C15.3837 11.0222 15.7629 11.0222 16.1422 11.0222C16.1422 11.7333 16.1422 12.4444 16.1422 13.1556Z" fill="#7AC21E"/>
<path fill-rule="evenodd" clip-rule="evenodd" d="M22.6845 13.1556C23.1135 13.2747 23.4454 13.5354 23.6801 13.9378C23.2297 14.5304 22.7794 15.1229 22.329 15.7156C21.9824 15.5058 21.6742 15.2451 21.4045 14.9334C21.8191 14.3218 22.2458 13.7292 22.6845 13.1556Z" fill="#80C52D"/>
<path fill-rule="evenodd" clip-rule="evenodd" d="M8.17789 13.44C8.345 13.4088 8.48722 13.4562 8.60456 13.5822C8.97971 14.0392 9.38268 14.4658 9.81345 14.8622C9.83068 15.3744 9.56993 15.7063 9.03122 15.8578C8.66055 15.3516 8.25759 14.8774 7.82234 14.4355C7.72752 14.246 7.72752 14.0563 7.82234 13.8667C8.02386 13.7845 8.14239 13.6422 8.17789 13.44Z" fill="#7EC328"/>
<path fill-rule="evenodd" clip-rule="evenodd" d="M24.6755 15.4311C24.6953 15.1699 24.7902 15.1225 24.96 15.2889C24.895 15.4024 24.8001 15.4498 24.6755 15.4311Z" fill="#88C749"/>
<path fill-rule="evenodd" clip-rule="evenodd" d="M24.6754 15.4311C23.651 16.5656 22.6081 17.7034 21.5466 18.8445C21.4144 19.0136 21.3671 19.2031 21.4043 19.4134C20.9942 19.5836 20.6149 19.8207 20.2666 20.1245C19.5067 20.7901 18.8431 21.5487 18.2754 22.4C18.1298 22.5924 17.9402 22.6873 17.7066 22.6845C17.5413 23.1367 17.2569 23.516 16.8532 23.8222C16.7471 23.998 16.6998 24.1878 16.711 24.3911C16.2937 24.5032 15.8671 24.5979 15.431 24.6756C14.2698 24.4883 13.8906 23.8245 14.2932 22.6845C14.8288 22.3901 15.3029 22.0109 15.7154 21.5467C17.5811 20.5244 19.2878 19.2918 20.8354 17.8489C21.4184 17.6539 21.8926 17.3221 22.2577 16.8534C22.8126 16.6302 23.3342 16.3458 23.8221 16C23.9656 15.5965 24.2501 15.407 24.6754 15.4311Z" fill="#7CC324"/>
<path fill-rule="evenodd" clip-rule="evenodd" d="M0.92449 18.1334C0.814619 18.9583 0.577582 19.7167 0.213379 20.4089C0.320779 19.5799 0.557817 18.8214 0.92449 18.1334Z" fill="#8D9BA4"/>
<path fill-rule="evenodd" clip-rule="evenodd" d="M27.6622 21.12C27.0263 21.0362 26.4574 21.1309 25.9555 21.4044C25.7184 21.4044 25.4815 21.4044 25.2444 21.4044C25.2444 21.0251 25.2444 20.6459 25.2444 20.2666C25.6547 20.3102 26.034 20.2628 26.3822 20.1244C26.7042 20.0222 27.036 19.9748 27.3777 19.9822C27.5399 20.3413 27.6347 20.7206 27.6622 21.12Z" fill="#7CC324"/>
<path fill-rule="evenodd" clip-rule="evenodd" d="M4.19556 20.4089C5.03777 20.3517 5.84368 20.494 6.61333 20.8356C6.53368 21.1704 6.43887 21.5022 6.32889 21.8311C5.60169 21.7464 4.89058 21.6041 4.19556 21.4045C4.19556 21.0727 4.19556 20.7407 4.19556 20.4089Z" fill="#7DC328"/>
<path fill-rule="evenodd" clip-rule="evenodd" d="M26.3822 20.1245C26.034 20.2628 25.6547 20.3102 25.2444 20.2667C25.2444 20.646 25.2444 21.0251 25.2444 21.4045C25.0799 21.0101 24.985 20.5834 24.96 20.1245C25.434 20.1245 25.9082 20.1245 26.3822 20.1245Z" fill="#C4E3A3"/>
<path fill-rule="evenodd" clip-rule="evenodd" d="M27.6622 21.12C27.1135 21.2329 26.5447 21.3276 25.9556 21.4044C26.4575 21.1309 27.0264 21.0362 27.6622 21.12Z" fill="#CCE6B3"/>
<path fill-rule="evenodd" clip-rule="evenodd" d="M31.2178 19.6978C31.4852 20.3958 31.6274 21.1543 31.6444 21.9733C31.5418 21.9139 31.4706 21.8191 31.4311 21.6889C31.3911 21.0183 31.32 20.3545 31.2178 19.6978Z" fill="#8E9FA9"/>
<path fill-rule="evenodd" clip-rule="evenodd" d="M31.6444 23.3956C31.6173 23.9891 31.5699 24.5817 31.5022 25.1733C31.4955 25.4997 31.4008 25.7606 31.2178 25.9556C31.253 25.0486 31.3953 24.1953 31.6444 23.3956Z" fill="#8398A4"/>
<path fill-rule="evenodd" clip-rule="evenodd" d="M3.19995 23.3956C3.47673 24.0919 3.57155 24.8504 3.4844 25.6711C3.35911 24.936 3.26431 24.1775 3.19995 23.3956Z" fill="#A9B6BE"/>
<path fill-rule="evenodd" clip-rule="evenodd" d="M24.2488 26.9511C24.5031 26.9106 24.7402 26.9579 24.9599 27.0933C25.4224 27.4416 25.8966 27.7497 26.3821 28.0178C26.2075 28.3836 25.9704 28.6916 25.671 28.9422C25.4339 28.8948 25.2917 28.7526 25.2444 28.5155C24.7915 28.3597 24.3649 28.1701 23.9644 27.9466C24.019 27.6012 24.1138 27.2692 24.2488 26.9511Z" fill="#7EC429"/>
<path fill-rule="evenodd" clip-rule="evenodd" d="M7.18225 27.2355C7.45021 27.2657 7.63984 27.4079 7.75114 27.6622C7.90956 27.8361 7.93326 28.0257 7.82225 28.2311C7.30722 28.7371 6.71463 29.1164 6.04447 29.3689C5.90686 28.9761 5.71724 28.6205 5.47559 28.3022C6.04428 27.9018 6.61316 27.5463 7.18225 27.2355Z" fill="#7FC42B"/>
</g>
<defs>
<clipPath id="clip0_24_804">
<rect width="32" height="32" fill="white"/>
</clipPath>
</defs>
</svg>
