<svg width="32" height="32" viewBox="0 0 32 32" fill="none" xmlns="http://www.w3.org/2000/svg">
<g clip-path="url(#clip0_24_750)">
<path fill-rule="evenodd" clip-rule="evenodd" d="M12.72 6.00002C16.5328 5.81391 20.3728 5.78725 24.24 5.92002C24.3865 5.96457 24.4931 6.04457 24.56 6.16002C20.6174 6.00618 16.6707 5.95284 12.72 6.00002Z" fill="#3D68D3"/>
<path fill-rule="evenodd" clip-rule="evenodd" d="M12.7199 6.00001C16.6707 5.95282 20.6174 6.00617 24.5599 6.16001C25.5452 6.53354 26.0785 7.25354 26.1599 8.32001C26.215 9.72855 25.575 10.6086 24.2399 10.96C20.5062 10.9867 16.7729 10.96 13.0399 10.88C12.9711 10.7329 12.9178 10.5996 12.8799 10.48C12.6821 10.5993 12.4688 10.6527 12.2399 10.64C12.0266 10.48 11.8133 10.32 11.5999 10.16C11.557 9.7409 11.6103 9.3409 11.7599 8.96001C10.994 8.63913 10.8873 8.23913 11.4399 7.76001C11.3819 7.65065 11.3286 7.54399 11.2799 7.44001C11.4933 6.69334 11.9733 6.21334 12.7199 6.00001Z" fill="#2C66FC"/>
<path fill-rule="evenodd" clip-rule="evenodd" d="M10.8 7.59997C10.7751 8.01055 10.8284 8.41055 10.96 8.79997C10.7045 8.8693 10.5178 9.1093 10.4 9.51997C10.3466 9.4133 10.2933 9.30664 10.24 9.19997C10.1605 9.56954 10.1338 9.94288 10.16 10.32C9.02407 11.2978 7.7974 11.3778 6.47996 10.56C5.28666 8.91151 5.44666 7.41816 6.95996 6.07997C8.11021 5.656 9.17688 5.78935 10.16 6.47997C10.4985 6.78396 10.7118 7.15728 10.8 7.59997Z" fill="#2F66FA"/>
<path fill-rule="evenodd" clip-rule="evenodd" d="M11.28 7.44C11.3286 7.54399 11.3819 7.65064 11.44 7.76C10.8873 8.23912 10.994 8.63912 11.76 8.96C11.6104 9.3409 11.557 9.7409 11.6 10.16C11.3772 9.87639 11.1905 9.55639 11.04 9.2C10.8206 9.64258 10.5273 10.0159 10.16 10.32C10.1338 9.94291 10.1605 9.56957 10.24 9.2C10.2933 9.30667 10.3466 9.41333 10.4 9.52C10.5178 9.10933 10.7045 8.86933 10.96 8.8C10.8284 8.41058 10.7751 8.01058 10.8 7.6C10.8987 7.61771 10.9787 7.67104 11.04 7.76C11.0845 7.61347 11.1645 7.5068 11.28 7.44Z" fill="#386AEF"/>
<path fill-rule="evenodd" clip-rule="evenodd" d="M24.24 10.96C20.4272 11.1461 16.5872 11.1727 12.72 11.04C12.4892 10.9797 12.3292 10.8464 12.24 10.64C12.4689 10.6527 12.6822 10.5993 12.88 10.48C12.9178 10.5995 12.9712 10.7329 13.04 10.88C16.773 10.96 20.5062 10.9866 24.24 10.96Z" fill="#3766DB"/>
<path fill-rule="evenodd" clip-rule="evenodd" d="M22.64 12.24C20.0795 12.2134 17.5195 12.24 14.96 12.32C14.8202 12.4872 14.6602 12.6205 14.48 12.72C14.4891 12.5426 14.5424 12.3826 14.64 12.24C17.3067 12.0267 19.9733 12.0267 22.64 12.24Z" fill="#F7A497"/>
<path fill-rule="evenodd" clip-rule="evenodd" d="M22.64 12.24C22.8877 12.2914 22.9944 12.4514 22.96 12.72C23.148 12.6849 23.308 12.7383 23.44 12.88C23.7954 13.3692 24.2221 13.7692 24.72 14.08C25.0722 14.6455 25.5256 15.0988 26.08 15.44C26.3074 16.0709 26.1207 16.4974 25.52 16.72C24.6274 17.6065 23.7741 18.5131 22.96 19.44C20.2928 19.4667 17.6261 19.44 14.96 19.36C14.7432 18.3384 14.6365 17.2984 14.64 16.24C14.3227 16.1851 14.1094 16.2918 14 16.56C13.0877 17.6325 12.0743 18.5925 10.96 19.44C9.37343 19.491 7.8001 19.4377 6.24004 19.28C6.13337 17.04 6.13337 14.8 6.24004 12.56C7.96546 12.3594 9.69881 12.3594 11.44 12.56C12.0869 13.2013 12.7269 13.8413 13.36 14.48C13.6272 14.8802 13.9738 15.2002 14.4 15.44C14.4799 14.5349 14.5066 13.6282 14.48 12.72C14.6603 12.6205 14.8203 12.4872 14.96 12.32C17.5196 12.24 20.0796 12.2133 22.64 12.24Z" fill="#EF5337"/>
<path fill-rule="evenodd" clip-rule="evenodd" d="M11.44 12.56C9.69876 12.3594 7.96542 12.3594 6.24 12.56C6.13332 14.8 6.13332 17.04 6.24 19.28C7.80006 19.4378 9.37339 19.491 10.96 19.44C10.2478 19.6523 9.47451 19.759 8.64 19.76C7.80545 19.7562 6.9788 19.7029 6.16 19.6C5.94667 17.1467 5.94667 14.6933 6.16 12.24C7.69905 12.0575 9.24571 12.0308 10.8 12.16C11.0506 12.2573 11.264 12.3906 11.44 12.56Z" fill="#E1735E"/>
<path fill-rule="evenodd" clip-rule="evenodd" d="M14.64 12.24C14.5424 12.3826 14.4891 12.5426 14.48 12.72C14.5066 13.6282 14.4799 14.5349 14.4 15.44C13.9738 15.2003 13.6271 14.8803 13.36 14.48C13.6972 14.5156 13.9639 14.6756 14.16 14.96C14.2928 14.0044 14.3728 13.0444 14.4 12.08C14.4612 12.169 14.5412 12.2223 14.64 12.24Z" fill="#FCDBCA"/>
<path fill-rule="evenodd" clip-rule="evenodd" d="M22.96 19.44C22.9053 19.5741 22.7987 19.6275 22.64 19.6C20.0261 19.6267 17.4128 19.6 14.8 19.52C14.7129 19.4053 14.6063 19.3253 14.48 19.28C14.5066 18.3186 14.4799 17.3586 14.4 16.4C14.2927 16.5203 14.1593 16.5738 14 16.56C14.1093 16.2918 14.3227 16.1851 14.64 16.24C14.6365 17.2984 14.7432 18.3384 14.96 19.36C17.6261 19.44 20.2928 19.4667 22.96 19.44Z" fill="#D8604B"/>
<path fill-rule="evenodd" clip-rule="evenodd" d="M14.48 19.28C14.6063 19.3253 14.7129 19.4053 14.8 19.52C17.4128 19.6 20.0261 19.6267 22.64 19.6C20.0008 19.7859 17.3341 19.8125 14.64 19.68C14.5196 19.5727 14.4663 19.4394 14.48 19.28Z" fill="#FBA89F"/>
<path fill-rule="evenodd" clip-rule="evenodd" d="M16.56 25.68C13.577 25.8295 10.5903 25.8827 7.59996 25.84C6.3517 25.5211 5.7117 24.6946 5.67996 23.36C5.63209 22.1306 6.16543 21.2773 7.27996 20.8C10.3733 20.6933 13.4666 20.6933 16.56 20.8C17.1744 21.2279 17.7076 21.7346 18.16 22.32C19.318 20.5954 20.8115 20.2487 22.64 21.28C22.851 21.6456 23.091 21.9923 23.36 22.32C23.4396 21.7893 23.4664 21.256 23.44 20.72C25.5851 20.9459 26.4384 22.1194 26 24.24C25.5284 25.3824 24.6752 25.9691 23.44 26C23.4664 25.464 23.4396 24.9307 23.36 24.4C23.0987 24.912 22.752 25.3655 22.32 25.76C20.4753 26.4629 19.0886 25.9563 18.16 24.24C17.8084 24.945 17.2752 25.425 16.56 25.68Z" fill="#F5ABA9"/>
<path fill-rule="evenodd" clip-rule="evenodd" d="M16.56 25.68C15.1239 25.8931 13.6306 25.9997 12.08 26C10.559 26 9.06567 25.9466 7.59998 25.84C10.5903 25.8827 13.577 25.8294 16.56 25.68Z" fill="#E2B3B0"/>
</g>
<defs>
<clipPath id="clip0_24_750">
<rect width="32" height="32" fill="white"/>
</clipPath>
</defs>
</svg>
