<svg width="32" height="32" viewBox="0 0 32 32" fill="none" xmlns="http://www.w3.org/2000/svg">
<path d="M23.9057 9.83891L1.2404 32H4.41837L25.5143 11.409C25.5491 11.3739 25.5686 11.3268 25.5686 11.2779C25.5686 11.229 25.5491 11.182 25.5143 11.1468L24.1743 9.83891C24.1568 9.82136 24.136 9.80741 24.1129 9.79788C24.0898 9.78836 24.065 9.78345 24.04 9.78345C24.0149 9.78345 23.9901 9.78836 23.9671 9.79788C23.944 9.80741 23.9231 9.82136 23.9057 9.83891Z" fill="#EA6621"/>
<path d="M1.66293 15.8542L17.8697 0H14.6917L0.0543324 14.2841C0.0194827 14.3192 0 14.3662 0 14.4152C0 14.4641 0.0194827 14.5111 0.0543324 14.5463L1.39433 15.8542C1.41177 15.8717 1.43265 15.8857 1.45572 15.8952C1.47879 15.9047 1.50358 15.9096 1.52863 15.9096C1.55368 15.9096 1.57848 15.9047 1.60155 15.8952C1.62462 15.8857 1.64549 15.8717 1.66293 15.8542Z" fill="#EA6621"/>
<path d="M27.1229 12.9791L7.67178 32H10.8648L28.7285 14.5463C28.7464 14.5292 28.7607 14.5089 28.7705 14.4863C28.7803 14.4638 28.7853 14.4396 28.7853 14.4152C28.7853 14.3907 28.7803 14.3665 28.7705 14.344C28.7607 14.3215 28.7464 14.3011 28.7285 14.2841L27.3885 12.9762C27.3709 12.9592 27.35 12.9459 27.3271 12.9369C27.3042 12.9279 27.2797 12.9234 27.255 12.9237C27.2304 12.9239 27.206 12.929 27.1833 12.9385C27.1606 12.948 27.1401 12.9618 27.1229 12.9791Z" fill="#EA6621"/>
<path d="M30.3371 16.1164L14.1032 32H17.2811L31.9457 17.6747C31.9805 17.6395 32 17.5925 32 17.5436C32 17.4947 31.9805 17.4477 31.9457 17.4125L30.6057 16.1046C30.5874 16.0878 30.5659 16.0747 30.5424 16.0662C30.5189 16.0577 30.4939 16.0538 30.4688 16.0549C30.4438 16.056 30.4192 16.062 30.3966 16.0726C30.3739 16.0831 30.3537 16.098 30.3371 16.1164Z" fill="#EA6621"/>
<path d="M3.27152 17.6747L4.61152 18.9826C4.64716 19.0173 4.69546 19.0368 4.74582 19.0368C4.79618 19.0368 4.84448 19.0173 4.88012 18.9826L24.301 0H21.1261L3.27152 17.4243C3.23884 17.4582 3.22064 17.5029 3.22064 17.5495C3.22064 17.596 3.23884 17.6408 3.27152 17.6747Z" fill="#EA6621"/>
<path d="M6.48571 20.8237L7.82571 22.1316C7.84315 22.1492 7.86403 22.1631 7.8871 22.1727C7.91017 22.1822 7.93496 22.1871 7.96001 22.1871C7.98506 22.1871 8.00986 22.1822 8.03293 22.1727C8.056 22.1631 8.07687 22.1492 8.09431 22.1316L30.7294 0H27.5545L6.48571 20.5615C6.45086 20.5967 6.43138 20.6437 6.43138 20.6926C6.43138 20.7415 6.45086 20.7886 6.48571 20.8237Z" fill="#EA6621"/>
</svg>
