<svg width="32" height="32" viewBox="0 0 33 33" fill="none" xmlns="http://www.w3.org/2000/svg">
    <path
        d="M28.703 24.8959C22.8266 31.6264 18.2366 34.4831 11.0838 31.4038C2.72659 27.806 -3.29057 16.1134 2.07501 8.66708C7.27815 1.44615 16.4657 -2.14412 24.0116 3.21001C31.3736 8.43346 35.2362 17.4126 28.703 24.8959Z"
        fill="#ED3F24" />
    <path
        d="M13.8873 20.9569C13.9819 22.0044 13.7117 22.8579 13.0759 23.5173C12.7409 23.8645 12.1 24.2954 11.1536 24.81C10.7223 24.9589 10.2695 25.0712 9.79475 25.1486C8.40031 25.3756 7.34728 25.2599 6.63472 24.7999C6.45456 24.6441 6.12533 23.2203 5.64689 20.5284C5.0793 17.3341 4.84637 15.5673 4.94954 15.229C5.54014 14.5476 6.53313 14.093 7.9273 13.866C8.33246 13.8 8.64291 13.7695 8.85719 13.7735C9.97993 13.7953 10.8588 14.0448 11.4928 14.522C12.127 14.999 12.5364 15.6711 12.7213 16.5381C12.7326 17.0631 12.5894 17.5156 12.2906 17.8958C12.1578 18.0639 13.4543 18.1661 12.9875 18.5151C13.65 18.5244 12.6211 18.9103 13.0925 19.3598C13.564 19.8095 13.8293 20.342 13.8873 20.9569ZM9.82332 21.5307L9.82583 21.5448C9.85613 21.3153 9.85798 21.1253 9.83099 20.9732C9.75348 20.5374 9.56168 20.3443 9.25507 20.3943C9.08695 20.4216 8.93497 20.5098 8.79859 20.6588C8.83021 20.7804 8.96116 22.2905 9.02319 22.5238C9.31314 22.4377 9.52121 22.2915 9.64766 22.0858C9.70123 21.9894 9.75983 21.8042 9.82332 21.5307ZM9.24859 16.665L9.23642 16.6814C9.1429 16.443 8.90375 16.3551 8.51817 16.4179C8.3896 16.4388 8.31738 16.4604 8.30084 16.4824C8.23325 16.5035 8.17968 16.5756 8.14092 16.6988C8.30944 17.2472 8.42597 17.872 8.4892 18.5733C8.4892 18.5733 8.96129 18.2245 9.07094 18.0691C9.40838 17.5906 9.36182 17.1293 9.31631 16.8737C9.30785 16.8258 9.28536 16.7564 9.24859 16.665Z"
        fill="#FFCB06" />
    <path
        d="M25.2075 15.372C24.5331 14.7934 23.4923 14.5754 22.7075 14.5754C22.531 14.5754 22.3638 14.5897 22.2076 14.6177C20.4609 14.9278 19.3182 16.3106 18.7788 18.7649C18.6607 19.3008 18.6018 19.8842 18.6018 20.5139C18.6018 21.8873 18.9697 23.0529 19.706 24.0122C20.5686 25.1404 21.7813 25.7607 23.3403 25.7047C26.8496 25.5791 27.3131 21.5015 27.3131 20.7679C27.313 19.9029 27.3668 17.2246 25.2075 15.372ZM23.4141 17.8103C23.204 18.5406 22.4153 18.9694 21.653 18.7683C20.89 18.5672 20.4419 17.8127 20.6517 17.0825C20.8617 16.3523 21.6505 15.9231 22.4133 16.1242C23.1756 16.3252 23.6239 17.0803 23.4141 17.8103Z"
        fill="white" />
    <path
        d="M18.5662 14.7296C17.888 14.1263 17.121 13.8155 16.3229 13.7353C16.1433 13.7172 15.972 13.715 15.8093 13.7273C13.999 13.8643 12.6828 15.1536 11.8607 17.594C11.6816 18.1272 11.5563 18.7144 11.4861 19.3546C11.3332 20.7509 11.5772 21.9739 12.2187 23.0244C12.9706 24.26 14.1394 24.9577 15.7256 25.1168C16.5837 25.2032 17.3635 25.0545 18.0666 24.6705C18.7688 24.2872 19.2925 23.7206 19.6371 22.972L19.6233 22.9564L19.6081 22.9549C19.9982 22.0658 20.234 21.2484 20.3158 20.5028C20.4122 19.6234 20.8658 16.7739 18.5662 14.7296ZM17.6457 18.5643C16.8547 18.5643 16.2132 17.9505 16.2132 17.193C16.2132 16.4359 16.8547 15.8217 17.6457 15.8217C18.4367 15.8217 19.0782 16.4361 19.0782 17.193C19.0784 17.9506 18.4368 18.5643 17.6457 18.5643Z"
        fill="white" />
    <path
        d="M13.5085 13.0886C13.6175 13.1052 13.7343 13.0826 13.8585 13.0211C13.982 12.9591 14.0691 12.8826 14.12 12.7918C14.2306 12.5984 14.2929 12.3338 14.3073 11.9986C14.3205 11.6956 14.2954 11.3883 14.2319 11.0739C14.4937 11.8845 14.714 12.4472 14.8933 12.7643C15.1586 12.7139 15.4129 12.6877 15.649 12.6792C15.8273 12.6728 16.0111 12.679 16.1967 12.6971C16.3843 12.3434 16.4954 11.7704 16.5295 10.9775C16.5474 10.5633 16.5455 10.1221 16.5236 9.65343L16.5233 9.65938C16.5095 9.37245 16.4943 9.18277 16.4778 9.08882C16.3943 8.65083 16.1471 8.42303 15.7363 8.4067C15.5027 8.39758 15.3201 8.46507 15.1857 8.60904C15.0703 8.73339 15.008 8.89369 14.9998 9.0916C14.9925 9.25634 15.007 9.51642 15.0416 9.87287C15.0627 10.0755 15.0893 10.3098 15.1201 10.5774C15.0496 10.2321 14.9716 9.93263 14.8856 9.67964C14.674 9.0507 14.4484 8.66843 14.2085 8.53433C14.116 8.50192 14.0238 8.48432 13.931 8.4809C13.7564 8.47393 13.5973 8.51597 13.4533 8.60676C13.2045 8.76707 13.0402 8.97599 12.9611 9.23519C12.8568 9.58189 12.7834 10.266 12.7395 11.2847C12.717 11.8086 12.7416 12.197 12.8164 12.4498C12.9266 12.8301 13.1576 13.0431 13.5085 13.0886Z"
        fill="white" />
    <path
        d="M18.1463 13.2608C18.1807 13.1201 18.2022 12.9609 18.2081 12.779C18.2176 12.4763 18.1895 12.1689 18.1233 11.8556C18.5225 13.0476 18.8256 13.7032 19.0343 13.8224C19.2029 13.8673 19.3394 13.8911 19.4455 13.8943C19.5344 13.897 19.6136 13.8879 19.6824 13.8656C20.1327 13.7219 20.3782 13.0116 20.4195 11.7363C20.433 11.3216 20.4265 10.8806 20.3994 10.4119L20.3991 10.4179C20.3823 10.1312 20.3652 9.94178 20.3471 9.84808C20.2593 9.41059 20.0097 9.18558 19.5982 9.17317C19.3648 9.16646 19.1824 9.23573 19.0502 9.38122C18.9357 9.50657 18.8756 9.66738 18.8691 9.86517C18.8639 10.0302 18.881 10.2902 18.92 10.6462C18.9433 10.8485 18.9723 11.0824 19.006 11.3498C18.9318 11.0053 18.8502 10.7066 18.7613 10.4546C18.5435 9.82769 18.3138 9.44782 18.0715 9.31626C17.9793 9.2846 17.886 9.26801 17.7934 9.26536C17.6191 9.26016 17.4604 9.30398 17.3172 9.39616C17.0705 9.55861 16.9077 9.76932 16.8323 10.0295C16.7318 10.377 16.6651 11.0618 16.6321 12.0809C16.624 12.3352 16.6272 12.557 16.641 12.7472C17.1765 12.8398 17.6791 13.0115 18.1463 13.2608Z"
        fill="white" />
    <path
        d="M21.899 13.499C22.1256 13.4578 22.3663 13.4366 22.613 13.4361C22.7659 13.4356 23.0432 13.4439 23.3858 13.4889C23.3942 13.4329 23.3974 13.3773 23.3907 13.322C23.3739 13.17 23.277 13.0609 23.1031 12.9974C22.9925 12.953 22.851 12.9534 22.6765 12.9986C22.5876 12.9498 22.5421 12.8777 22.5421 12.7809C22.5801 12.5712 22.5944 12.4421 22.5858 12.3941C22.679 12.386 22.7429 12.3878 22.7772 12.4C22.9675 12.4199 23.1456 12.3609 23.3104 12.2233C23.493 12.0782 23.5837 11.8985 23.583 11.6847C23.5874 11.6208 23.5803 11.5579 23.5632 11.4978C23.4182 11.3084 23.2379 11.2146 23.0219 11.2151C22.8351 11.2156 22.6801 11.2625 22.5573 11.3553C22.4811 11.3393 22.4362 11.3035 22.4232 11.2476C22.4273 11.2236 22.4338 11.1281 22.4419 10.9602C22.4452 10.8289 22.462 10.7333 22.4917 10.6726C22.5256 10.6725 22.5725 10.6724 22.6315 10.6721C22.8736 10.6715 23.0628 10.6168 23.1973 10.5077C23.3334 10.3985 23.4006 10.2576 23.4003 10.0841C23.4001 10.0042 23.3871 9.93089 23.3613 9.86694C23.3016 9.7098 23.1068 9.63218 22.7756 9.63282C22.6092 9.6332 22.4356 9.65156 22.2535 9.68828L21.1912 9.79338C21.0171 9.90759 20.9031 10.1532 20.8494 10.5313C20.758 11.1845 20.7148 11.764 20.7202 12.2721C20.7256 12.9681 20.7837 13.4739 20.8939 13.7909C21.2105 13.6612 21.5453 13.5628 21.899 13.499Z"
        fill="white" />
    <path
        d="M23.6935 13.2567C23.6875 13.3689 23.6886 13.468 23.6968 13.556C24.1099 13.6625 24.5734 13.8289 25.0149 14.0899C25.0458 14.0747 25.0777 14.0608 25.1089 14.0423C25.2448 13.9053 25.3185 13.7139 25.3324 13.4673C25.3362 13.3919 25.335 13.302 25.3283 13.1986C25.6649 13.9491 26.014 14.316 26.3761 14.2974C26.5637 14.287 26.7534 14.2074 26.9437 14.0604C27.0902 13.9429 27.1969 13.825 27.2628 13.7074L27.2692 13.7079C27.2809 13.66 27.2868 13.6239 27.2879 13.5997C27.3066 13.2701 27.089 12.8476 26.6374 12.3325C26.8593 12.1662 26.9862 12.0657 27.0174 12.0314C27.2169 11.8157 27.3269 11.5412 27.3502 11.2076C27.373 10.8818 27.3027 10.5195 27.142 10.12C26.9219 9.71848 26.4888 9.49056 25.8417 9.43738C25.292 9.4627 24.9228 9.4955 24.7339 9.53804C24.333 9.63098 24.0972 9.82535 24.0258 10.1237C23.9301 10.5376 23.8477 11.143 23.7788 11.94C23.7186 12.6446 23.6937 13.0037 23.7067 13.0165L23.6935 13.2567ZM25.3423 10.8643C25.458 10.813 25.5247 10.7884 25.5417 10.7892C25.5583 10.7903 25.5787 10.795 25.6035 10.8043L25.6103 10.8048C25.7981 10.9796 25.888 11.1416 25.8797 11.2908C25.8738 11.3989 25.8128 11.4993 25.6954 11.5925C25.58 11.6857 25.4399 11.7545 25.2777 11.7983C25.2886 11.6011 25.2981 11.3919 25.3062 11.1712C25.3121 10.9815 25.3247 10.8795 25.3423 10.8643Z"
        fill="white" />
    <path
        d="M7.76423 12.6957C7.93235 12.6743 8.09954 12.6575 8.26621 12.6434C8.40258 12.4123 8.46422 12.1384 8.44769 11.8195C8.43314 11.5514 8.326 11.316 8.12719 11.1143C7.92759 10.9118 7.68248 10.8037 7.3924 10.7904C7.60259 10.6452 7.73817 10.5368 7.80021 10.4656C7.93777 10.3052 8.00841 10.1106 8.01238 9.88214C7.94663 9.50253 7.77838 9.20496 7.50854 8.98768C7.23817 8.77115 6.85722 8.64934 6.36503 8.62402C6.27045 8.61908 6.13381 8.62781 5.95485 8.65073C5.33924 8.72899 4.89586 8.91234 4.62483 9.20015C4.57324 9.34513 4.64507 10.1172 4.83885 11.513C4.98223 12.5463 5.09282 13.1524 5.16874 13.3334C5.97244 13.0323 6.8436 12.8128 7.76423 12.6957ZM6.07376 9.79351C6.0813 9.78414 6.11344 9.77515 6.16979 9.76805C6.34043 9.7464 6.44387 9.78806 6.48064 9.89316L6.48646 9.88619C6.50114 9.92697 6.50934 9.95723 6.51225 9.97825C6.52773 10.0901 6.48514 10.2621 6.38447 10.494L6.11993 10.7049C6.10379 10.3991 6.06411 10.1261 5.99929 9.88467C6.01887 9.83149 6.04413 9.80148 6.07376 9.79351ZM6.24188 11.9168C6.23937 11.7697 6.23196 11.6692 6.21992 11.6164C6.28262 11.5532 6.35048 11.5172 6.42482 11.5077C6.56027 11.4905 6.64109 11.5772 6.66767 11.7683C6.6768 11.8344 6.67296 11.9168 6.65537 12.0159L6.65471 12.0104C6.62217 12.1279 6.5932 12.2074 6.56794 12.2491C6.50921 12.3366 6.41543 12.3971 6.28672 12.4306C6.26331 12.328 6.25035 12.264 6.24691 12.2392C6.24149 12.2019 6.23977 12.0936 6.24188 11.9168Z"
        fill="white" />
    <path
        d="M10.1917 12.9376C10.2405 12.8125 10.2663 12.6899 10.2663 12.5709C10.2583 12.4957 10.249 12.4393 10.2403 12.4017C10.4653 12.3765 10.6658 12.368 10.842 12.3765C10.842 12.548 10.8702 12.6884 10.9274 12.7967C10.9456 12.8343 11.0028 12.9134 11.0995 13.0348C11.2362 13.1313 11.4123 13.1796 11.6278 13.1796C11.7471 13.1796 11.8617 13.1666 11.9717 13.142C12.1921 13.0918 12.3223 12.9656 12.3621 12.7655V12.7593C12.4323 12.4126 12.4672 12.0424 12.4672 11.6493C12.4672 10.9801 12.3466 10.2046 12.1035 9.32212C12.0379 9.07558 11.9254 8.86045 11.7668 8.67608C11.4979 8.36244 11.0995 8.20593 10.571 8.20593C10.0773 8.20593 9.70111 8.36687 9.44119 8.68849C9.10614 9.10673 8.87255 9.57929 8.74027 10.1063C8.64808 10.4783 8.58392 10.9924 8.54861 11.6493C8.53961 11.82 8.53564 11.929 8.53564 11.975C8.53564 12.2385 8.56236 12.4645 8.61567 12.6536C9.15641 12.7356 9.68233 12.8306 10.1917 12.9376ZM10.3597 10.4261C10.3852 10.2046 10.4277 9.91598 10.4847 9.56004C10.547 9.51028 10.5929 9.49939 10.624 9.52889C10.6989 10.2484 10.7206 10.7768 10.6899 11.1159C10.6766 11.1159 10.634 11.1236 10.5612 11.1379C10.4888 11.1527 10.4426 11.1597 10.4253 11.1597C10.3729 11.1597 10.3356 11.1369 10.3131 11.0907C10.3001 11.0362 10.3158 10.8146 10.3597 10.4261Z"
        fill="white" />
</svg>