<svg width="32" height="32" viewBox="0 0 32 32" fill="none" xmlns="http://www.w3.org/2000/svg">
    <path fill-rule="evenodd" clip-rule="evenodd"
        d="M29.4781 10.216L31.4589 13.736C31.8143 14.457 32 15.2601 32 16.0754C32 16.8908 31.8143 17.6938 31.4589 18.4149L25.4514 29.4389C24.6717 31.0171 23.1677 32 21.5325 32H10.4391C8.8039 32 7.2999 31.0171 6.51909 29.4389L4.44549 25.6789L12.6301 17.5429L18.5597 21.2263C19.1794 21.6811 20.0104 21.56 20.501 20.9429L29.4781 10.216ZM11.6242 11.1131L2.65348 21.9291L0.541468 18.464C0.18589 17.7443 0 16.9423 0 16.128C0 15.3137 0.18589 14.5117 0.541468 13.792L6.8775 2.55771C7.25252 1.78968 7.81585 1.1457 8.50692 0.695043C9.19799 0.244383 9.99065 0.0040878 10.7996 0L21.477 0C23.1144 0 24.6194 0.981714 25.4002 2.55771L27.5549 6.44571L19.5325 14.4343L13.6231 10.7577C13.3115 10.5294 12.9297 10.4387 12.5572 10.5047C12.1848 10.5708 11.8505 10.7883 11.6242 11.112V11.1131Z"
        fill="#5386FF" />
</svg>