<svg width="32" height="32" viewBox="0 0 32 32" fill="none" xmlns="http://www.w3.org/2000/svg">
    <path
        d="M32 32H0V0H32V32ZM13.908 23.5309C16.3535 23.5309 17.6142 21.7235 17.6142 19.4427C17.6406 18.5851 17.4093 17.7443 16.9614 17.0699C16.5136 16.3955 15.8784 15.9311 15.1687 15.7596C15.8193 15.5813 16.3961 15.1371 16.7978 14.5051C17.1996 13.8731 17.4006 13.0937 17.3655 12.3036C17.3655 10.2929 16.1238 8.46295 13.6973 8.46295H6.99169V23.5309H13.908ZM25.2489 23.5309L20.697 15.8237L25.2276 8.45749H21.8841L17.3661 15.8237L18.3689 17.4722L21.8841 23.5309H25.2489ZM13.22 17.2717C13.4243 17.2433 13.6313 17.2666 13.8274 17.34C14.0236 17.4134 14.2043 17.5353 14.3578 17.6975C14.5113 17.8597 14.6339 18.0586 14.7178 18.2812C14.8016 18.5037 14.8446 18.7448 14.844 18.9884C14.844 20.0729 14.2326 20.7052 13.22 20.7052H9.70489V17.2717H13.22ZM13.1049 11.2853C13.2927 11.2599 13.4829 11.2818 13.663 11.3498C13.8432 11.4178 14.0091 11.5302 14.1499 11.6796C14.2907 11.829 14.4032 12.0121 14.48 12.2168C14.5568 12.4214 14.5961 12.643 14.5953 12.867C14.5993 13.092 14.5621 13.3154 14.4864 13.5219C14.4107 13.7284 14.2982 13.913 14.1567 14.0631C14.0151 14.2133 13.8478 14.3254 13.6663 14.3919C13.4848 14.4583 13.2932 14.4774 13.1049 14.448H9.70489V11.2853H13.1049Z"
        fill="black" />
</svg>