<svg width="32" height="32" viewBox="0 0 32 32" fill="none" xmlns="http://www.w3.org/2000/svg">
<g clip-path="url(#clip0_30_357)">
<path fill-rule="evenodd" clip-rule="evenodd" d="M31.9287 15.7156C31.9287 15.8578 31.9287 16 31.9287 16.1423C29.7231 20.672 27.4949 25.1994 25.2443 29.7245C19.0338 29.8193 12.8235 29.8193 6.61316 29.7245C4.36242 25.1994 2.13426 20.672 -0.0712891 16.1423C-0.0712891 16 -0.0712891 15.8578 -0.0712891 15.7156C2.13426 11.1858 4.36242 6.65844 6.61316 2.13337C12.8235 2.03855 19.0338 2.03855 25.2443 2.13337C27.4949 6.65844 29.7231 11.1858 31.9287 15.7156Z" fill="black"/>
<path fill-rule="evenodd" clip-rule="evenodd" d="M22.3298 9.08548C22.3679 10.1813 22.3116 11.2637 22.1609 12.3326C21.8185 13.2756 21.2555 13.925 20.4719 14.2808C21.6436 14.8812 22.5162 15.8914 23.0899 17.3114C23.3878 19.5019 22.9656 21.4141 21.8231 23.0479C21.287 23.4213 20.724 23.7099 20.1341 23.9138C16.3625 24.0221 12.5904 24.0581 8.81787 24.0221C8.81787 18.1052 8.81787 12.1882 8.81787 6.27134C12.3652 6.23527 15.9121 6.27135 19.4585 6.37957C20.1729 6.62086 20.8485 6.98165 21.4853 7.46193C21.9413 7.86387 22.2228 8.40504 22.3298 9.08548Z" fill="white"/>
<path fill-rule="evenodd" clip-rule="evenodd" d="M18.9208 9.81335C19.7488 9.96716 20.1256 10.5026 20.0511 11.4196C20.0993 12.438 19.6597 13.0403 18.7324 13.2267C16.6602 13.2267 14.5879 13.2267 12.5156 13.2267C12.5156 12.0889 12.5156 10.9511 12.5156 9.81335C14.6507 9.81335 16.7858 9.81335 18.9208 9.81335Z" fill="black"/>
<path fill-rule="evenodd" clip-rule="evenodd" d="M12.5156 16.0905C14.9176 16.0337 17.3127 16.1021 19.7011 16.2957C20.6517 17.0843 20.8667 18.1106 20.3459 19.3746C20.1065 19.8032 19.7687 20.0769 19.3326 20.1956C17.0603 20.1956 14.7879 20.1956 12.5156 20.1956C12.5156 18.8272 12.5156 17.4589 12.5156 16.0905Z" fill="black"/>
</g>
<defs>
<clipPath id="clip0_30_357">
<rect width="32" height="32" fill="white"/>
</clipPath>
</defs>
</svg>
