<svg width="32" height="32" viewBox="0 0 32 32" fill="none" xmlns="http://www.w3.org/2000/svg">
    <g clip-path="url(#clip0_897_2027)">
        <path fill-rule="evenodd" clip-rule="evenodd"
            d="M-0.03125 -0.03125C10.6354 -0.03125 21.3021 -0.03125 31.9688 -0.03125C31.9688 10.6354 31.9688 21.3021 31.9688 31.9688C21.3021 31.9688 10.6354 31.9688 -0.03125 31.9688C-0.03125 21.3021 -0.03125 10.6354 -0.03125 -0.03125Z"
            fill="black" />
        <path fill-rule="evenodd" clip-rule="evenodd"
            d="M3.9063 9.53125C4.69792 9.72919 5.44792 10.0312 6.1563 10.4375C6.1912 10.4828 6.21204 10.5349 6.2188 10.5938C5.73696 12.0133 5.43488 13.4716 5.31255 14.9688C5.0805 17.0454 4.98675 19.1288 5.0313 21.2188C5.01127 21.4311 5.03211 21.6395 5.0938 21.8438C5.13172 21.836 5.15255 21.8152 5.1563 21.7812C6.17591 19.8666 7.06136 17.8874 7.81255 15.8438C8.64199 13.7826 9.33986 11.6784 9.9063 9.53125C10.7937 9.643 11.627 9.92425 12.4063 10.375C12.4805 10.4387 12.543 10.5116 12.5938 10.5938C12.1764 11.6803 11.8951 12.8053 11.75 13.9688C11.5919 15.2778 11.4773 16.5903 11.4063 17.9062C11.3233 19.1461 11.3233 20.3961 11.4063 21.6562C11.4442 21.6485 11.465 21.6277 11.4688 21.5938C12.9466 17.6383 14.7279 13.8258 16.8125 10.1562C16.9175 9.96794 17.0634 9.82213 17.25 9.71875C17.7735 9.85538 18.2318 10.1054 18.625 10.4688C18.6667 10.5312 18.6667 10.5938 18.625 10.6562C17.9669 11.3141 17.4044 12.0433 16.9375 12.8438C15.0182 16.172 13.3412 19.6199 11.9063 23.1875C11.1065 23.4606 10.3565 23.3564 9.6563 22.875C9.51192 22.7727 9.41817 22.6373 9.37505 22.4688C9.2248 20.9931 9.18311 19.5139 9.25005 18.0312C9.3353 16.5899 9.43949 15.1524 9.56255 13.7188C8.68142 16.2789 7.7023 18.7998 6.62505 21.2812C6.32849 21.8953 6.016 22.4994 5.68755 23.0938C5.43498 23.3028 5.14331 23.3861 4.81255 23.3438C4.1201 23.3356 3.53677 23.0856 3.06255 22.5938C2.91517 21.0135 2.8735 19.4302 2.93755 17.8438C3.15632 15.1769 3.37507 12.5103 3.5938 9.84375C3.65324 9.75506 3.67408 9.65094 3.6563 9.53125C3.73963 9.53125 3.82297 9.53125 3.9063 9.53125Z"
            fill="#FBFBFB" />
        <path fill-rule="evenodd" clip-rule="evenodd"
            d="M20.2812 21.4062C20.6281 21.4046 20.9614 21.3629 21.2812 21.2812C22.6018 21.266 23.8934 21.0681 25.1562 20.6875C25.4554 20.5692 25.747 20.4338 26.0312 20.2812C26.4338 21.2176 26.6004 22.1968 26.5312 23.2188C24.0354 22.8906 21.5563 22.9844 19.0937 23.5C17.9478 23.7286 16.9166 24.1974 15.9999 24.9062C15.7523 24.4326 15.5961 23.9326 15.5312 23.4062C15.5129 23.1302 15.5858 22.8802 15.7499 22.6562C15.9189 22.4664 16.1064 22.2997 16.3124 22.1562C17.6367 20.2893 19.1471 18.5705 20.8437 17C22.8974 15.1202 25.0849 13.4223 27.4062 11.9062C27.5029 11.8862 27.5446 11.8237 27.5312 11.7188C27.2395 11.7188 26.9479 11.7188 26.6562 11.7188C24.9177 11.6571 23.1885 11.7508 21.4687 12C20.9746 12.0924 20.4954 12.2278 20.0312 12.4062C19.9107 11.5355 19.8794 10.6605 19.9374 9.78125C19.954 9.64681 20.0165 9.54263 20.1249 9.46875C23.3165 10.0793 26.5353 10.3189 29.7812 10.1875C30.0846 10.7469 30.1679 11.3407 30.0312 11.9688C25.8156 13.9442 22.3677 16.8401 19.6874 20.6562C19.5171 20.9137 19.3816 21.1845 19.2812 21.4688C19.6133 21.4314 19.9466 21.4106 20.2812 21.4062Z"
            fill="#FBFBFB" />
        <path fill-rule="evenodd" clip-rule="evenodd"
            d="M3.90625 9.53103C3.82292 9.53103 3.73958 9.53103 3.65625 9.53103C3.67403 9.65072 3.65319 9.75484 3.59375 9.84353C3.59375 9.71853 3.59375 9.59353 3.59375 9.46853C3.71342 9.45078 3.81758 9.47159 3.90625 9.53103Z"
            fill="#7E7E7E" />
        <path fill-rule="evenodd" clip-rule="evenodd"
            d="M26.6562 11.7188C26.9479 11.7188 27.2396 11.7188 27.5312 11.7188C27.5447 11.8237 27.503 11.8862 27.4062 11.9062C27.4132 11.8677 27.434 11.8364 27.4688 11.8125C27.1863 11.8016 26.9154 11.7703 26.6562 11.7188Z"
            fill="#A9A9A9" />
        <path fill-rule="evenodd" clip-rule="evenodd"
            d="M21.2812 21.2812C20.9615 21.3628 20.6282 21.4045 20.2812 21.4062C20.5999 21.3151 20.9332 21.2734 21.2812 21.2812Z"
            fill="#BFBFBF" />
        <path fill-rule="evenodd" clip-rule="evenodd"
            d="M11.4062 17.9062C11.3856 19.1463 11.4064 20.3754 11.4687 21.5938C11.465 21.6277 11.4442 21.6485 11.4062 21.6562C11.3232 20.3961 11.3232 19.1461 11.4062 17.9062Z"
            fill="#747474" />
        <path fill-rule="evenodd" clip-rule="evenodd"
            d="M5.03129 21.2188C5.07295 21.4062 5.11462 21.5938 5.15629 21.7812C5.15254 21.8152 5.1317 21.836 5.09379 21.8438C5.0321 21.6395 5.01126 21.4311 5.03129 21.2188Z"
            fill="#8E8E8E" />
    </g>
    <defs>
        <clipPath id="clip0_897_2027">
            <rect width="32" height="32" fill="white" />
        </clipPath>
    </defs>
</svg>