<svg width="32" height="32" viewBox="0 0 33 33" fill="none" xmlns="http://www.w3.org/2000/svg">
    <path opacity="0.99" fill-rule="evenodd" clip-rule="evenodd"
        d="M15.3455 0.5C16.3175 0.5 17.2896 0.5 18.2616 0.5C23.7945 1.123 27.9767 3.81497 30.8072 8.5759C31.8905 10.5986 32.5484 12.744 32.7817 15.0123C32.7817 15.9839 32.7817 16.9554 32.7817 17.9269C32.193 23.2048 29.6821 27.2833 25.2483 30.1622C22.8813 31.5616 20.3297 32.3408 17.5934 32.5C17.0666 32.5 16.5405 32.5 16.0138 32.5C10.3515 32.0886 6.00766 29.4979 2.98214 24.7277C0.504 20.2071 0.118822 15.5113 1.82782 10.6404C3.7932 5.78172 7.28652 2.59387 12.3078 1.07685C13.3151 0.811398 14.3279 0.619115 15.3455 0.5ZM8.54108 7.4222C14.0697 7.41206 19.5982 7.4222 25.1268 7.45256C25.4646 7.60813 25.6973 7.86109 25.8255 8.21157C25.8662 13.7574 25.8662 19.3033 25.8255 24.8491C25.6572 25.2402 25.3631 25.473 24.9445 25.5474C19.5375 25.5879 14.1304 25.5879 8.72334 25.5474C8.20026 25.4697 7.86611 25.1762 7.72091 24.667C7.68021 19.2426 7.68021 13.8181 7.72091 8.39374C7.83209 7.92874 8.10548 7.60485 8.54108 7.4222Z"
        fill="black" />
</svg>