<svg width="32" height="32" viewBox="0 0 32 32" fill="none" xmlns="http://www.w3.org/2000/svg">
<path fill-rule="evenodd" clip-rule="evenodd" d="M7.16432 4.79168C11.7442 3.78707 13.4383 5.54395 12.2467 10.0623C11.933 10.376 11.6192 10.6897 11.3055 11.0034C6.85061 12.0701 5.15649 10.376 6.22315 5.92109C6.61656 5.59228 6.93027 5.21581 7.16432 4.79168Z" fill="#2574AA"/>
<path fill-rule="evenodd" clip-rule="evenodd" d="M19.5876 4.79179C20.9736 4.72956 22.354 4.79232 23.7287 4.98003C24.0737 5.1209 24.3874 5.30914 24.6699 5.54473C24.9708 7.27153 24.908 8.96565 24.4817 10.6271C18.8059 12.229 17.1746 10.2839 19.5876 4.79179Z" fill="#1E72A9"/>
<path fill-rule="evenodd" clip-rule="evenodd" d="M0.764327 14.9566C2.2754 14.8943 3.78129 14.957 5.28197 15.1448C5.47021 15.333 5.65844 15.5213 5.84668 15.7095C5.97216 17.2154 6.09767 18.7213 6.22315 20.2271C6.53686 20.5409 6.85061 20.8546 7.16433 21.1683C12.8114 21.4193 18.4584 21.4193 24.1055 21.1683C24.2937 20.9801 24.482 20.7919 24.6702 20.6036C23.7796 15.9725 25.5992 14.1529 30.129 15.1448C30.4427 15.4585 30.7565 15.7723 31.0702 16.086C32.0622 20.6159 30.2425 22.4354 25.6114 21.5448C25.4232 21.733 25.2349 21.9213 25.0467 22.1095C24.9212 23.6154 24.7957 25.1213 24.6702 26.6271C24.482 26.8154 24.2937 27.0036 24.1055 27.1919C18.333 27.443 12.5604 27.443 6.78786 27.1919C6.59962 27.0036 6.41139 26.8154 6.22315 26.6271C6.09767 25.1213 5.97216 23.6154 5.84668 22.1095C5.65844 21.9213 5.47021 21.733 5.28197 21.5448C3.77609 21.4193 2.27021 21.2938 0.764327 21.1683C0.576092 20.9801 0.387856 20.7919 0.199621 20.6036C-0.193866 18.6138 -0.00563067 16.7314 0.764327 14.9566Z" fill="#8EC24A"/>
</svg>
