<svg width="32" height="32" viewBox="0 0 32 32" fill="none" xmlns="http://www.w3.org/2000/svg">
<g clip-path="url(#clip0_32_921)">
<mask id="mask0_32_921" style="mask-type:luminance" maskUnits="userSpaceOnUse" x="0" y="0" width="32" height="32">
<path d="M32 0H0V32H32V0Z" fill="white"/>
</mask>
<g mask="url(#mask0_32_921)">
<path d="M25.8816 17.6952C28.259 17.2156 29.9407 15.6092 29.6377 14.1074C29.3347 12.6055 27.1617 11.7768 24.7843 12.2565C22.4068 12.7362 20.7251 14.3425 21.0281 15.8444C21.3311 17.3462 23.5041 18.1749 25.8816 17.6952Z" fill="#FF8E92"/>
<path d="M21.0428 25.154C22.8529 26.7413 25.2021 27.0225 26.2898 25.7821C27.3775 24.5417 26.7918 22.2494 24.9817 20.6621C23.1715 19.0748 20.8224 18.7936 19.7347 20.034C18.647 21.2744 19.2326 23.5667 21.0428 25.154Z" fill="#FF8E92"/>
<path d="M24.1015 9.69176C26.1831 7.4397 26.7891 4.61436 25.4549 3.38117C24.1208 2.14799 21.3517 2.97395 19.2701 5.226C17.1885 7.47806 16.5825 10.3034 17.9167 11.5366C19.2508 12.7698 22.0198 11.9438 24.1015 9.69176Z" fill="#FF8E92"/>
<path d="M9.85388 13.6714C9.27295 15.1751 6.8316 15.6328 4.40095 14.6937C1.97032 13.7547 0.47082 11.7745 1.05174 10.2708C1.63266 8.76715 4.07401 8.30944 6.50466 9.24847C8.9353 10.1875 10.4348 12.1677 9.85388 13.6714Z" fill="#FF8E92"/>
<path d="M8.86769 24.2558C11.084 22.285 11.794 19.4652 10.4534 17.9576C9.11284 16.45 6.22939 16.8255 4.01305 18.7963C1.7967 20.7671 1.08675 23.5869 2.42732 25.0945C3.7679 26.6021 6.65135 26.2266 8.86769 24.2558Z" fill="#FF8E92"/>
<path d="M9.3484 1.21397C10.9763 0.543408 13.2573 2.33369 14.4432 5.21268C15.6292 8.09167 15.2709 10.9691 13.643 11.6397C12.015 12.3103 9.73398 10.52 8.54809 7.64099C7.36218 4.76201 7.72049 1.88453 9.3484 1.21397Z" fill="#FF8E92"/>
<path d="M18.1578 25.4571C18.3643 23.0352 17.1294 20.9523 15.3995 20.8048C13.6697 20.6573 12.1 22.501 11.8935 24.9229C11.6869 27.3448 12.9218 29.4277 14.6517 29.5752C16.3815 29.7227 17.9513 27.8789 18.1578 25.4571Z" fill="#FF8E92"/>
<path d="M15.3602 20.3482C18.1879 20.3482 20.4802 18.3424 20.4802 15.8682C20.4802 13.3939 18.1879 11.3882 15.3602 11.3882C12.5325 11.3882 10.2402 13.3939 10.2402 15.8682C10.2402 18.3424 12.5325 20.3482 15.3602 20.3482Z" fill="white"/>
</g>
</g>
<defs>
<clipPath id="clip0_32_921">
<rect width="32" height="32" fill="white"/>
</clipPath>
</defs>
</svg>
