<svg width="32" height="32" viewBox="0 0 32 32" fill="none" xmlns="http://www.w3.org/2000/svg">
<path d="M20.8304 3.7333C20.7877 3.84708 21.2428 5.68175 21.8686 7.81508L22.9779 11.6977L26.7326 14.1582C29.0508 15.6657 30.601 16.6044 30.7717 16.576C31.5824 16.448 31.4544 16.2346 27.7993 11.4702C25.865 8.93864 23.7033 6.10841 22.9922 5.18397C21.897 3.7333 21.6695 3.51997 21.3139 3.51997C21.0864 3.51997 20.873 3.6053 20.8304 3.7333Z" fill="#3457A2"/>
<path d="M13.5628 9.22309C9.95038 12.2666 8.61349 13.4613 8.61349 13.6746C8.61349 13.9022 8.69883 13.9733 8.96905 13.9449C10.0642 13.8595 17.8864 12.5795 17.9859 12.4658C18.1139 12.352 19.0526 6.15109 19.0668 5.39731C19.0668 5.18398 18.9815 5.08442 18.7966 5.08442C18.6402 5.08442 16.2935 6.94753 13.5628 9.22309Z" fill="black"/>
<path d="M10.3913 15.168C9.40993 15.3955 7.17704 15.8791 5.41349 16.2489C1.68726 17.0453 1.57349 17.0738 1.57349 17.4578C1.57349 17.6853 2.1566 18.0267 4.56015 19.2355C6.19571 20.0604 7.64638 20.7289 7.76015 20.7289C8.10149 20.7289 13.1646 15.4809 13.1646 15.1253C13.1646 14.6844 12.5104 14.6987 10.3913 15.168Z" fill="#3457A2"/>
<path d="M13.4917 17.728C11.0313 20.4729 10.5761 21.1271 10.9317 21.3547C11.1166 21.4542 21.4419 22.464 21.8828 22.4071C22.6935 22.3218 22.4659 21.9236 19.5361 18.2969C17.801 16.1636 16.6064 14.8124 16.4357 14.784C16.2224 14.7556 15.4544 15.5236 13.4917 17.728Z" fill="black"/>
<path d="M1.04726 20.9707C0.521038 21.1698 0.947704 21.7387 3.80637 24.5973C5.4277 26.2329 6.87837 27.5555 7.00637 27.5555C7.54682 27.5555 7.56104 27.1004 7.06326 25.0809C6.80726 24.0142 6.56548 23.1182 6.53704 23.0898C6.40904 22.9618 1.51659 20.8711 1.37437 20.8853C1.28904 20.8853 1.13259 20.928 1.04726 20.9707Z" fill="black"/>
<path d="M8.98325 24.3555C8.74147 24.9386 8.54236 25.4791 8.54236 25.5502C8.54236 25.7493 10.1068 28.3946 10.2775 28.4942C10.7752 28.8071 10.7326 27.9538 10.0072 23.744C9.86503 22.9333 9.49525 23.1609 8.98325 24.3555Z" fill="black"/>
<path d="M11.7139 23.6587C11.6286 23.872 12.2828 27.2853 12.5388 27.9396C12.6099 28.1387 12.7806 28.2667 12.9655 28.2667C13.3921 28.2667 21.8117 25.3084 21.9255 25.1093C22.0108 24.9671 21.8544 24.4267 21.7264 24.4267C21.7121 24.4267 19.5219 24.1991 16.8766 23.9289C14.217 23.6587 11.9984 23.4311 11.9273 23.4311C11.8561 23.4311 11.7708 23.5307 11.7139 23.6587Z" fill="#3457A2"/>
</svg>
