<svg width="32" height="32" viewBox="0 0 32 32" fill="none" xmlns="http://www.w3.org/2000/svg">
    <g clip-path="url(#clip0_1213_197)">
        <path fill-rule="evenodd" clip-rule="evenodd"
            d="M-0.071167 -0.071106C5.14365 -0.071106 10.3585 -0.071106 15.5733 -0.071106C13.8652 0.663064 12.4667 1.80084 11.3777 3.34223C11.2829 5.94963 11.2829 8.55705 11.3777 11.1644C14.6949 8.73626 17.9423 6.22366 21.1199 3.62667C20.0794 1.92028 18.6572 0.687684 16.8533 -0.071106C21.8784 -0.071106 26.9037 -0.071106 31.9288 -0.071106C31.9288 5.19112 31.9288 10.4533 31.9288 15.7156C31.2631 13.9787 30.1727 12.5328 28.6577 11.3778C26.0016 11.2593 23.3469 11.283 20.6933 11.4489C23.1388 14.7297 25.6513 17.9533 28.2311 21.12C29.881 20.088 31.1136 18.7133 31.9288 16.9956C31.9288 21.9733 31.9288 26.9511 31.9288 31.9289C26.6193 31.9289 21.3095 31.9289 15.9999 31.9289C17.8211 31.3208 19.3144 30.2303 20.4799 28.6578C20.5984 26.0016 20.5747 23.3469 20.4088 20.6933C17.196 23.1413 13.996 25.6065 10.8088 28.0889C11.7037 29.7658 13.0074 31.0458 14.7199 31.9289C9.78957 31.9289 4.85921 31.9289 -0.071167 31.9289C-0.071167 26.6193 -0.071167 21.3096 -0.071167 16C0.538469 17.8697 1.67625 19.363 3.34217 20.48C5.95086 20.5985 8.55828 20.5747 11.1644 20.4089C8.71642 17.1961 6.25124 13.9961 3.76883 10.8089C2.09193 11.7037 0.811929 13.0074 -0.071167 14.72C-0.071167 9.78963 -0.071167 4.85927 -0.071167 -0.071106Z"
            fill="#FEFEFD" />
        <path fill-rule="evenodd" clip-rule="evenodd"
            d="M15.5733 -0.071106C16 -0.071106 16.4266 -0.071106 16.8533 -0.071106C18.6573 0.687684 20.0795 1.92028 21.12 3.62667C17.9423 6.22366 14.6949 8.73626 11.3778 11.1644C11.2829 8.55705 11.2829 5.94963 11.3778 3.34223C12.4667 1.80084 13.8653 0.663064 15.5733 -0.071106Z"
            fill="#23B355" />
        <path fill-rule="evenodd" clip-rule="evenodd"
            d="M6.61336 3.34225C7.94161 3.31857 9.26901 3.34228 10.5956 3.41336C10.7554 3.4488 10.8977 3.51991 11.0222 3.62669C10.3959 7.64157 9.87445 11.6712 9.4578 15.7156C9.30818 15.7368 9.16596 15.7132 9.03113 15.6445C7.30076 13.9141 5.5704 12.1837 3.84002 10.4534C3.42333 8.53576 3.61296 6.68687 4.40891 4.90669C4.97827 4.11978 5.71309 3.59831 6.61336 3.34225Z"
            fill="#A6CE39" />
        <path fill-rule="evenodd" clip-rule="evenodd"
            d="M21.8312 3.62666C23.3788 3.53605 24.8958 3.70197 26.3823 4.12444C27.4539 4.63033 28.1413 5.45997 28.4445 6.61333C28.5241 8.08466 28.5004 9.5543 28.3734 11.0222C24.2963 10.5007 20.2194 9.97925 16.1423 9.45778C16.1211 9.30816 16.1447 9.16594 16.2134 9.03111C18.0314 7.14142 19.9039 5.33993 21.8312 3.62666Z"
            fill="#0EABAF" />
        <path fill-rule="evenodd" clip-rule="evenodd"
            d="M-0.071167 16C-0.071167 15.5733 -0.071167 15.1467 -0.071167 14.72C0.811929 13.0074 2.09193 11.7037 3.76883 10.8089C6.25124 13.9961 8.71642 17.1961 11.1644 20.4089C8.55828 20.5747 5.95086 20.5985 3.34217 20.48C1.67625 19.363 0.538469 17.8697 -0.071167 16Z"
            fill="#F7AA1C" />
        <path fill-rule="evenodd" clip-rule="evenodd"
            d="M31.9289 15.7155C31.9289 16.1422 31.9289 16.5689 31.9289 16.9955C31.1137 18.7133 29.8811 20.088 28.2311 21.12C25.6514 17.9533 23.1389 14.7296 20.6934 11.4489C23.3469 11.283 26.0017 11.2593 28.6578 11.3777C30.1728 12.5328 31.2632 13.9787 31.9289 15.7155Z"
            fill="#4998D3" />
        <path fill-rule="evenodd" clip-rule="evenodd"
            d="M22.4 16.1422C22.5496 16.121 22.6919 16.1446 22.8267 16.2133C24.5571 17.9437 26.2874 19.674 28.0178 21.4044C28.9621 27.2159 26.5681 29.4915 20.8356 28.2311C21.4126 24.2084 21.9341 20.1786 22.4 16.1422Z"
            fill="#8A298A" />
        <path fill-rule="evenodd" clip-rule="evenodd"
            d="M3.48445 20.8356C7.57145 21.3824 11.6485 21.9751 15.7156 22.6133C13.9141 24.4149 12.1126 26.2163 10.3111 28.0178C4.62297 28.8952 2.34742 26.5011 3.48445 20.8356Z"
            fill="#F05122" />
        <path fill-rule="evenodd" clip-rule="evenodd"
            d="M15.9999 31.9289C15.5733 31.9289 15.1466 31.9289 14.7199 31.9289C13.0074 31.0459 11.7037 29.7659 10.8088 28.0889C13.996 25.6066 17.196 23.1413 20.4088 20.6934C20.5747 23.3469 20.5984 26.0017 20.4799 28.6578C19.3144 30.2304 17.8211 31.3208 15.9999 31.9289Z"
            fill="#ED1757" />
    </g>
    <defs>
        <clipPath id="clip0_1213_197">
            <rect width="32" height="32" fill="white" />
        </clipPath>
    </defs>
</svg>