<svg width="32" height="32" viewBox="0 0 32 32" fill="none" xmlns="http://www.w3.org/2000/svg">
<rect width="32" height="32" fill="#37AABA"/>
<path opacity="0.949" fill-rule="evenodd" clip-rule="evenodd" d="M8.38839 5.91309C9.70427 5.91309 11.0202 5.91309 12.336 5.91309C12.2949 8.12214 12.3361 10.33 12.4594 12.5365C16.8362 10.7931 20.2904 11.7498 22.8219 15.4067C24.6794 19.8429 23.3224 23.1914 18.7509 25.4523C14.2149 26.6047 10.8841 25.3168 8.75848 21.5886C8.39836 16.375 8.27499 11.1498 8.38839 5.91309ZM15.5435 14.9652C18.0905 15.2213 19.4064 16.5092 19.4911 18.8288C19.339 20.8776 18.1464 22.0919 15.9136 22.4717C13.6296 22.082 12.4371 20.8309 12.336 18.7184C12.5297 16.81 13.5988 15.5589 15.5435 14.9652Z" fill="white"/>
</svg>
