<svg width="32" height="32" viewBox="0 0 32 32" fill="none" xmlns="http://www.w3.org/2000/svg">
<mask id="mask0_36_629" style="mask-type:luminance" maskUnits="userSpaceOnUse" x="0" y="0" width="32" height="32">
<path d="M32 0H0V32H32V0Z" fill="white"/>
</mask>
<g mask="url(#mask0_36_629)">
<path fill-rule="evenodd" clip-rule="evenodd" d="M-0.0800781 -0.0799561C2.05325 -0.0799561 4.18659 -0.0799561 6.31992 -0.0799561C6.09192 0.147564 5.93192 0.414236 5.83992 0.720044C5.7217 0.699084 5.61503 0.725756 5.51992 0.800044C3.67434 2.67236 1.80768 4.51236 -0.0800781 6.32004C-0.0800781 4.18672 -0.0800781 2.05337 -0.0800781 -0.0799561Z" fill="#009DD3"/>
<path fill-rule="evenodd" clip-rule="evenodd" d="M6.47992 -0.0799561C14.9599 -0.0799561 23.4399 -0.0799561 31.9199 -0.0799561C31.9199 10.5867 31.9199 21.2533 31.9199 31.92C21.2532 31.92 10.5866 31.92 -0.0800781 31.92C-0.0800781 23.44 -0.0800781 14.96 -0.0800781 6.48004C1.99159 4.67523 3.96493 2.75523 5.83992 0.720044C6.17383 0.546508 6.38715 0.279852 6.47992 -0.0799561Z" fill="#169CD6"/>
<path fill-rule="evenodd" clip-rule="evenodd" d="M6.31984 -0.0799561C6.37317 -0.0799561 6.42652 -0.0799561 6.47984 -0.0799561C6.38708 0.279852 6.17375 0.546508 5.83984 0.720044C5.93184 0.414236 6.09184 0.147564 6.31984 -0.0799561Z" fill="#7D9681"/>
<path fill-rule="evenodd" clip-rule="evenodd" d="M21.8402 4.07997C20.8155 3.63714 19.749 3.34379 18.6402 3.19997C14.8005 3.11997 10.9606 3.09331 7.12018 3.11997C7.12018 11.6533 7.12018 20.1867 7.12018 28.72C8.34686 28.72 9.57351 28.72 10.8002 28.72C9.6031 28.8787 8.37644 28.932 7.12018 28.88C6.93377 20.2669 6.9071 11.6269 7.04018 2.95997C10.7886 2.7743 14.5486 2.74763 18.3202 2.87997C19.1898 2.9952 20.043 3.18187 20.8802 3.43997C21.0488 3.41118 21.2088 3.35784 21.3602 3.27997C21.5514 3.53926 21.7114 3.80592 21.8402 4.07997Z" fill="#3E9CCB"/>
<path fill-rule="evenodd" clip-rule="evenodd" d="M21.8401 4.07998C23.5619 5.44977 24.3619 7.2631 24.2401 9.51998C24.3244 11.6208 23.5779 13.3275 22.0001 14.64C21.3795 14.9233 20.7395 15.1633 20.0801 15.36C20.6704 15.4963 21.2571 15.6296 21.8401 15.76C23.4432 16.6665 24.3766 18.0531 24.6401 19.92C24.8916 21.7944 24.6782 23.6077 24.0001 25.36C23.0171 27.0638 21.5504 28.0238 19.6001 28.24C16.9078 28.3651 14.2412 28.5251 11.6001 28.72C11.3334 28.72 11.0668 28.72 10.8001 28.72C9.57345 28.72 8.34679 28.72 7.12012 28.72C7.12012 20.1867 7.12012 11.6533 7.12012 3.11998C10.9605 3.09332 14.8004 3.11998 18.6401 3.19998C19.7489 3.3438 20.8155 3.63715 21.8401 4.07998Z" fill="#FCFEFE"/>
<path fill-rule="evenodd" clip-rule="evenodd" d="M5.83992 0.720052C3.96493 2.75524 1.99159 4.67524 -0.0800781 6.48005C-0.0800781 6.42672 -0.0800781 6.37338 -0.0800781 6.32005C1.80768 4.51237 3.67434 2.67237 5.51992 0.800052C5.61503 0.725764 5.7217 0.699092 5.83992 0.720052Z" fill="#7F9680"/>
<path fill-rule="evenodd" clip-rule="evenodd" d="M16.4 7.12002C15.12 7.12002 13.84 7.12002 12.56 7.12002C12.56 9.3067 12.56 11.4934 12.56 13.68C12.4006 11.4683 12.3473 9.22828 12.4 6.96002C13.7627 6.90785 15.096 6.96119 16.4 7.12002Z" fill="#79BED9"/>
<path fill-rule="evenodd" clip-rule="evenodd" d="M16.4001 7.12C18.3844 7.80102 19.2109 9.18768 18.8801 11.28C18.6121 12.4879 17.8921 13.2612 16.7201 13.6C15.3345 13.68 13.9477 13.7066 12.5601 13.68C12.5601 11.4933 12.5601 9.30667 12.5601 7.12C13.8401 7.12 15.1201 7.12 16.4001 7.12Z" fill="#1B9BD4"/>
<path fill-rule="evenodd" clip-rule="evenodd" d="M22.0001 14.64C21.7738 14.8887 21.5071 15.1021 21.2001 15.28C21.4242 15.4434 21.6377 15.6034 21.8401 15.76C21.257 15.6296 20.6703 15.4963 20.0801 15.36C20.7394 15.1634 21.3794 14.9234 22.0001 14.64Z" fill="#3F96C0"/>
<path fill-rule="evenodd" clip-rule="evenodd" d="M12.5601 17.6801C12.5601 20.0801 12.5601 22.4801 12.5601 24.8801C13.8401 24.8801 15.1201 24.8801 16.4001 24.8801C15.0961 25.0389 13.7628 25.0922 12.4001 25.0401C12.3473 22.5586 12.4007 20.1053 12.5601 17.6801Z" fill="#6EB3CF"/>
<path fill-rule="evenodd" clip-rule="evenodd" d="M12.5601 17.68C13.9477 17.6534 15.3345 17.68 16.7201 17.76C18.2252 18.0726 18.9986 19.0061 19.0401 20.56C19.2783 21.9851 18.9317 23.2386 18.0001 24.32C17.53 24.6811 16.9967 24.8678 16.4001 24.88C15.1201 24.88 13.8401 24.88 12.5601 24.88C12.5601 22.48 12.5601 20.08 12.5601 17.68Z" fill="#199CD5"/>
<path fill-rule="evenodd" clip-rule="evenodd" d="M19.6001 28.24C19.5332 28.3555 19.4267 28.4355 19.2801 28.48C18.8567 28.5595 18.43 28.5862 18.0001 28.56C15.8687 28.6742 13.7353 28.7275 11.6001 28.72C14.2412 28.5251 16.9078 28.3651 19.6001 28.24Z" fill="#D0F3F9"/>
<path fill-rule="evenodd" clip-rule="evenodd" d="M18.0001 28.5601C16.912 28.773 15.7652 28.8796 14.5601 28.8801C12.0529 29.0039 9.57285 29.0039 7.12012 28.8801C8.37637 28.9321 9.60303 28.8788 10.8001 28.7201C11.0668 28.7201 11.3334 28.7201 11.6001 28.7201C13.7353 28.7276 15.8688 28.6743 18.0001 28.5601Z" fill="#2B8FBC"/>
</g>
</svg>
