<svg width="32" height="32" viewBox="0 0 33 33" fill="none" xmlns="http://www.w3.org/2000/svg">
    <path fill-rule="evenodd" clip-rule="evenodd"
        d="M15.0386 0.5C20.7382 1.29545 26.3733 2.32297 31.9437 3.58257C32.3716 5.17265 32.4343 6.78732 32.1315 8.42661C21.8393 13.8266 11.4458 19.111 0.950965 24.2798C0.690851 24.1257 0.503016 23.9299 0.387461 23.6927C9.34049 17.9666 18.5443 12.4865 27.9992 7.25229C28.2783 6.68258 28.2155 6.14436 27.8113 5.63761C23.9104 4.83879 19.9659 4.20269 15.9777 3.72936C12.2669 4.29523 8.57296 4.93132 4.89549 5.63761C4.58564 9.97047 4.39781 14.3252 4.33199 18.7018C3.07977 19.4847 1.82751 20.2676 0.575295 21.0505C0.324836 15.1789 0.324836 9.30734 0.575295 3.43578C5.43774 2.47384 10.2588 1.49523 15.0386 0.5Z"
        fill="#41ABF9" />
    <path fill-rule="evenodd" clip-rule="evenodd"
        d="M31.1922 11.3623C31.6923 13.4572 31.9425 15.659 31.9436 17.9678C31.8808 20.1696 31.8185 22.3715 31.7557 24.5733C29.4859 22.9237 27.357 23.0218 25.3694 24.8669C25.0869 25.8633 25.1496 26.8418 25.5572 27.8027C24.7687 28.2328 23.9546 28.6244 23.1153 28.977C20.7032 27.3191 18.4492 27.4172 16.3533 29.2706C16.2383 30.3967 16.176 31.4733 16.1655 32.4999C12.4088 30.6407 8.65207 28.7812 4.89538 26.9219C3.47328 27.6732 1.9706 28.2604 0.387344 28.6834C0.152475 27.6647 0.528145 26.8327 1.51435 26.188C11.5586 21.3854 21.4511 16.4436 31.1922 11.3623Z"
        fill="#032F5E" />
    <path fill-rule="evenodd" clip-rule="evenodd"
        d="M27.4356 24.5739C30.6254 24.4241 31.5018 25.4517 30.0653 27.6564C28.1156 28.1863 26.8631 27.6969 26.3086 26.1885C26.543 25.5764 26.9187 25.0383 27.4356 24.5739Z"
        fill="#092E5D" />
    <path fill-rule="evenodd" clip-rule="evenodd"
        d="M18.4194 28.977C21.5165 28.8971 22.3933 29.9246 21.0491 32.0595C17.4495 32.3381 16.5727 31.3106 18.4194 28.977Z"
        fill="#0A2E5E" />
</svg>