<svg width="32" height="32" viewBox="0 0 32 32" fill="none" xmlns="http://www.w3.org/2000/svg">
<g clip-path="url(#clip0_40_387)">
<path fill-rule="evenodd" clip-rule="evenodd" d="M-0.0703125 -0.0717773C4.88544 -0.0717773 9.84119 -0.0717773 14.7969 -0.0717773C17.1331 -0.00765436 19.4222 0.422839 21.6642 1.2197C21.9137 1.15594 21.89 1.08419 21.5934 1.00446C20.197 0.487953 18.7811 0.129208 17.3456 -0.0717773C22.2069 -0.0717773 27.0684 -0.0717773 31.9297 -0.0717773C31.9297 4.66365 31.9297 9.39907 31.9297 14.1345C31.0726 11.3151 30.058 8.54079 28.8854 5.81163C28.7438 5.71596 28.6023 5.6203 28.4607 5.52463C28.2807 4.88192 28.0447 4.2601 27.7527 3.65916C27.5923 3.41361 27.3799 3.34186 27.1155 3.44392C26.8973 3.64068 26.7084 3.85593 26.5492 4.08966C26.1023 3.90714 26.0551 3.95497 26.4076 4.23316C26.0272 5.00404 25.6496 5.76936 25.2748 6.52912C24.8575 5.86451 24.4328 5.19485 24.0005 4.52015C22.9007 5.27572 21.9096 6.16063 21.027 7.17486C19.7618 7.96002 18.4403 8.58185 17.0624 9.04033C16.6493 8.79512 16.248 8.53205 15.8589 8.25109C15.5383 8.67204 15.1371 8.98295 14.6554 9.18383C12.8156 9.805 10.9749 10.4029 9.13323 10.9775C8.53748 10.7873 8.27789 10.4047 8.35447 9.82957C8.11532 9.38906 7.85573 8.95856 7.57571 8.53809C7.38967 8.65472 7.22448 8.79822 7.08013 8.96858C7.01345 9.3949 6.84827 9.77756 6.58455 10.1166C6.61419 10.2007 6.66138 10.2724 6.72615 10.3318C6.48094 10.6148 6.29214 10.9257 6.15978 11.2645C6.20697 11.3602 6.25418 11.4559 6.30137 11.5515C6.25418 11.5515 6.20697 11.5515 6.15978 11.5515C6.07236 11.5357 6.00156 11.4878 5.94739 11.408C5.60707 10.4286 5.37108 9.42414 5.23942 8.39459C5.0806 8.08983 4.86821 7.82675 4.60225 7.60535C4.69665 7.55752 4.79104 7.50968 4.88544 7.46185C4.28013 6.03655 3.50137 4.72115 2.54916 3.51567C2.24632 5.08661 1.70354 6.56943 0.920838 7.9641C1.19316 8.08001 1.47635 8.15176 1.7704 8.17934C1.50018 9.25832 1.1934 10.3346 0.850041 11.408C0.396994 11.8602 0.0902091 12.3864 -0.0703125 12.9865C-0.0703125 8.63376 -0.0703125 4.28098 -0.0703125 -0.0717773Z" fill="#FDFDFD"/>
<path fill-rule="evenodd" clip-rule="evenodd" d="M14.7969 -0.0717773C15.6464 -0.0717773 16.496 -0.0717773 17.3455 -0.0717773C18.781 0.129208 20.1969 0.487953 21.5933 1.00446C21.89 1.08419 21.9136 1.15594 21.6641 1.2197C19.4221 0.422839 17.133 -0.00765435 14.7969 -0.0717773Z" fill="#777778"/>
<path fill-rule="evenodd" clip-rule="evenodd" d="M13.239 0.0717494C13.6195 0.0482029 13.9971 0.0721192 14.3718 0.143498C12.6119 0.398046 10.9128 0.828539 9.27441 1.43498C10.5588 0.817807 11.8804 0.363399 13.239 0.0717494Z" fill="#757577"/>
<path fill-rule="evenodd" clip-rule="evenodd" d="M22.1592 1.50659C22.5674 1.3961 22.945 1.51569 23.2919 1.86534C22.9123 1.79486 22.5348 1.67529 22.1592 1.50659Z" fill="#6C6C6E"/>
<path fill-rule="evenodd" clip-rule="evenodd" d="M7.7168 2.36786C7.8818 2.0929 8.11779 1.97332 8.42476 2.00911C8.2251 2.20595 7.98912 2.32553 7.7168 2.36786Z" fill="#6D6D6E"/>
<path fill-rule="evenodd" clip-rule="evenodd" d="M24.2832 2.51137C24.1053 2.51691 23.9637 2.44516 23.8584 2.29613C24.0705 2.21222 24.2121 2.28397 24.2832 2.51137Z" fill="#676769"/>
<path fill-rule="evenodd" clip-rule="evenodd" d="M7.71677 2.36747C7.64978 2.56928 7.50819 2.66495 7.29199 2.65447C7.35898 2.45267 7.50057 2.357 7.71677 2.36747Z" fill="#6A6A6C"/>
<path fill-rule="evenodd" clip-rule="evenodd" d="M11.1149 2.51138C11.3555 2.48839 11.5915 2.51231 11.8229 2.58313C9.93496 3.92244 8.04705 5.26176 6.15915 6.60106C5.93631 6.70133 5.74752 6.6535 5.59277 6.45757C6.00307 5.5633 6.61663 4.84581 7.43348 4.3051C8.64637 3.63472 9.8735 3.03681 11.1149 2.51138Z" fill="#E8E8E8"/>
<path fill-rule="evenodd" clip-rule="evenodd" d="M24.2832 2.51103C24.4994 2.50055 24.641 2.59622 24.708 2.79802C24.4918 2.8085 24.3502 2.71283 24.2832 2.51103Z" fill="#656566"/>
<path fill-rule="evenodd" clip-rule="evenodd" d="M7.29197 2.65458C7.22498 2.85638 7.08339 2.95205 6.86719 2.94158C6.93418 2.73978 7.07577 2.64411 7.29197 2.65458Z" fill="#69696B"/>
<path fill-rule="evenodd" clip-rule="evenodd" d="M24.708 2.79814C24.9242 2.78766 25.0658 2.88333 25.1328 3.08513C24.9166 3.09561 24.775 2.99994 24.708 2.79814Z" fill="#6E6E6F"/>
<path fill-rule="evenodd" clip-rule="evenodd" d="M6.86714 2.94189C6.71357 3.24136 6.47759 3.43269 6.15918 3.51589C6.31275 3.21642 6.54873 3.02509 6.86714 2.94189Z" fill="#777779"/>
<path fill-rule="evenodd" clip-rule="evenodd" d="M25.1328 3.08496C25.4222 3.16119 25.6583 3.32859 25.8408 3.5872C25.5191 3.57618 25.2832 3.40876 25.1328 3.08496Z" fill="#6C6C6D"/>
<path fill-rule="evenodd" clip-rule="evenodd" d="M31.9297 14.1345C31.9297 14.3258 31.9297 14.5172 31.9297 14.7084C31.6289 16.2597 31.3693 17.8381 31.1509 19.4439C29.1247 26.6406 24.4758 30.802 17.204 31.9282C16.26 31.9282 15.3162 31.9282 14.3722 31.9282C7.62178 30.8987 3.11441 27.12 0.850041 20.5919C0.403363 18.4882 0.0965776 16.3835 -0.0703125 14.278C-0.0703125 13.8475 -0.0703125 13.417 -0.0703125 12.9865C0.0902091 12.3863 0.396994 11.8602 0.850041 11.408C1.1934 10.3345 1.50018 9.25827 1.7704 8.1793C1.47635 8.15172 1.19316 8.07997 0.920838 7.96405C1.70354 6.56938 2.24632 5.08656 2.54916 3.51562C3.50137 4.7211 4.28013 6.0365 4.88544 7.46181C4.79104 7.50964 4.69665 7.55748 4.60225 7.60531C4.86821 7.82671 5.0806 8.08978 5.23942 8.39454C5.37108 9.4241 5.60707 10.4286 5.94739 11.408C6.00156 11.4878 6.07236 11.5356 6.15978 11.5515C6.15978 11.8385 6.15978 12.1255 6.15978 12.4125C6.05912 13.3014 6.2951 14.0668 6.86774 14.7084C6.91951 14.8799 7.03751 14.9755 7.22172 14.9954C7.57401 14.8152 7.92799 14.8152 8.28367 14.9954C8.52853 14.7475 8.81171 14.5562 9.13323 14.4214C10.0247 14.9213 10.9215 15.4235 11.8235 15.9282C12.5669 16.0542 13.2984 16.2215 14.0182 16.4304C14.4187 16.0786 14.7727 15.672 15.0801 15.2107C15.3809 14.9837 15.6876 14.9597 16.0005 15.1389C16.4842 14.81 16.9797 14.4991 17.4872 14.2062C18.185 14.0062 18.7514 14.1975 19.1863 14.7802C20.4737 15.1896 21.4412 14.7831 22.089 13.5605C21.923 12.7984 22.041 12.0809 22.443 11.408C22.7635 10.8864 23.2356 10.6233 23.8589 10.6188C24.1415 10.3085 24.3304 9.94973 24.4253 9.54253C24.6427 8.51722 24.9259 7.51273 25.2748 6.52907C25.6496 5.76931 26.0272 5.00399 26.4076 4.23311C26.502 4.23311 26.5492 4.18528 26.5492 4.08961C26.7084 3.85588 26.8973 3.64063 27.1155 3.44387C27.3799 3.34181 27.5923 3.41356 27.7527 3.65912C28.0447 4.26006 28.2807 4.88188 28.4607 5.52459C28.6023 5.62026 28.7438 5.71591 28.8854 5.81158C30.058 8.54074 31.0726 11.315 31.9297 14.1345Z" fill="#A2BE60"/>
<path fill-rule="evenodd" clip-rule="evenodd" d="M26.5485 4.08991C26.5485 4.18558 26.5014 4.23341 26.4069 4.23341C26.0545 3.95522 26.1017 3.90739 26.5485 4.08991Z" fill="#7A7C77"/>
<path fill-rule="evenodd" clip-rule="evenodd" d="M6.15908 3.51562C5.73201 4.11859 5.21285 4.57299 4.60156 4.87885C5.06365 4.33745 5.58283 3.88304 6.15908 3.51562Z" fill="#979698"/>
<path fill-rule="evenodd" clip-rule="evenodd" d="M25.2742 6.52899C24.9253 7.51265 24.6422 8.51714 24.4247 9.54244C18.0827 8.90544 11.9942 9.86208 6.15918 12.4124C6.15918 12.1254 6.15918 11.8384 6.15918 11.5514C6.20637 11.5514 6.25358 11.5514 6.30077 11.5514C7.22234 11.3416 7.17515 11.246 6.15918 11.2644C6.29154 10.9256 6.48034 10.6146 6.72555 10.3317C6.66079 10.2723 6.61359 10.2005 6.58396 10.1164C6.84768 9.77743 7.01286 9.39477 7.07953 8.96845C7.22389 8.79809 7.38907 8.65459 7.57511 8.53796C7.85514 8.95843 8.11472 9.38893 8.35387 9.82944C8.2773 10.4045 8.53688 10.7872 9.13263 10.9774C10.9743 10.4028 12.815 9.80487 14.6548 9.1837C15.1365 8.98281 15.5377 8.67191 15.8583 8.25096C16.2474 8.53192 16.6487 8.79499 17.0618 9.0402C18.4397 8.58172 19.7612 7.95989 21.0264 7.17473C21.909 6.1605 22.9001 5.27559 23.9999 4.52002C24.4322 5.19472 24.8569 5.86438 25.2742 6.52899Z" fill="#39393B"/>
<path fill-rule="evenodd" clip-rule="evenodd" d="M26.5489 5.38135C31.0142 10.7309 31.6985 16.5664 28.602 22.8881C26.0856 27.166 22.3805 29.6295 17.4869 30.2782C11.3109 30.7002 6.56757 28.2847 3.25686 23.0316C1.44214 19.7049 0.87577 16.1652 1.55774 12.4127C1.68584 11.6524 1.92183 10.9349 2.26571 10.2603C2.46742 11.3624 2.91579 12.3429 3.61084 13.202C4.15419 13.3112 4.67337 13.2395 5.16836 12.9867C5.30173 13.0023 5.41973 13.0501 5.52234 13.1302C5.63875 13.4586 5.73315 13.7934 5.80553 14.1347C5.85272 15.3305 5.89993 16.5264 5.94712 17.7222C6.26263 18.0763 6.66382 18.2438 7.15066 18.2244C7.69558 19.0893 8.30915 19.9023 8.99137 20.6639C9.3851 20.9724 9.83348 21.1397 10.3365 21.1661C11.0666 20.9721 11.7981 20.8526 12.5312 20.8074C13.4754 21.6447 14.5609 22.2187 15.7878 22.5293C19.2492 22.8904 22.4114 22.0772 25.2746 20.0899C26.2412 19.1865 26.7603 18.0625 26.8321 16.7177C27.3006 16.7452 27.6546 16.5539 27.894 16.1437C28.0413 15.2421 28.1592 14.3333 28.248 13.4172C28.5504 13.2777 28.7157 13.0385 28.7436 12.6997C29.1089 11.4022 28.9909 10.1586 28.3896 8.96879C27.927 8.79733 27.4787 8.606 27.0445 8.3948C26.7199 7.4217 26.5547 6.41721 26.5489 5.38135Z" fill="#7E943D"/>
<path fill-rule="evenodd" clip-rule="evenodd" d="M24.4248 9.54253C24.3299 9.94973 24.141 10.3085 23.8584 10.6188C23.2351 10.6233 22.763 10.8864 22.4425 11.408C22.1518 11.2372 21.8213 11.1416 21.4513 11.121C20.6448 11.1813 19.8425 11.277 19.0442 11.408C18.6295 11.2698 18.2047 11.1742 17.7699 11.121C16.8888 11.4474 15.9921 11.7344 15.0796 11.982C14.5195 11.84 13.9531 11.7443 13.3805 11.695C14.1886 11.4696 14.991 11.1826 15.7876 10.834C15.227 10.6676 14.6607 10.6437 14.0885 10.7623C12.1457 11.3069 10.2106 11.8809 8.28319 12.4842C7.75599 12.6649 7.6144 12.9997 7.85841 13.4887C8.47017 13.5603 9.08374 13.5842 9.69912 13.5605C9.62015 13.7456 9.47856 13.8651 9.27434 13.9192C8.4516 14.1379 7.64923 14.4009 6.86726 14.7084C6.29461 14.0668 6.05863 13.3014 6.15929 12.4125C11.9944 9.86217 18.0828 8.90552 24.4248 9.54253Z" fill="#19A69C"/>
<path fill-rule="evenodd" clip-rule="evenodd" d="M22.4424 11.4081C22.0404 12.081 21.9225 12.7985 22.0884 13.5606C21.4406 14.7832 20.4731 15.1897 19.1858 14.7803C18.7508 14.1976 18.1844 14.0063 17.4867 14.2063C16.9792 14.4992 16.4836 14.8101 15.9999 15.139C15.687 14.9598 15.3803 14.9838 15.0796 15.2108C14.7722 15.6721 14.4182 16.0787 14.0176 16.4305C13.2979 16.2216 12.5663 16.0543 11.8229 15.9283C10.9209 15.4236 10.0242 14.9213 9.13267 14.4215C8.81116 14.5563 8.52797 14.7476 8.28312 14.9955C7.92744 14.8153 7.57345 14.8153 7.22117 14.9955C7.03696 14.9756 6.91895 14.88 6.86719 14.7085C7.64916 14.401 8.45153 14.138 9.27427 13.9193C9.47849 13.8652 9.62008 13.7457 9.69905 13.5606C10.514 13.4528 11.3164 13.2854 12.1061 13.0583C11.6365 12.9868 11.1645 12.9629 10.6902 12.9866C10.9536 12.7801 11.1896 12.541 11.3982 12.2691C11.9827 11.8574 12.6435 11.6661 13.3805 11.6951C13.9531 11.7444 14.5194 11.84 15.0796 11.9821C15.992 11.7344 16.8887 11.4475 17.7698 11.1211C18.2047 11.1742 18.6295 11.2699 19.0442 11.4081C19.8425 11.2771 20.6447 11.1814 21.4513 11.1211C21.8212 11.1417 22.1517 11.2373 22.4424 11.4081Z" fill="#114C46"/>
<path fill-rule="evenodd" clip-rule="evenodd" d="M6.15918 11.2644C7.17515 11.246 7.22234 11.3417 6.30077 11.5514C6.25358 11.4558 6.20637 11.3601 6.15918 11.2644Z" fill="#979798"/>
<path fill-rule="evenodd" clip-rule="evenodd" d="M13.3801 11.6952C12.6432 11.6662 11.9824 11.8576 11.3978 12.2692C10.6249 12.2123 9.86976 12.2841 9.13233 12.4845C8.99667 12.6491 9.04388 12.7926 9.27392 12.915C9.74356 12.9865 10.2155 13.0104 10.6899 12.9867C11.1642 12.963 11.6361 12.987 12.1058 13.0585C11.316 13.2856 10.5137 13.453 9.6987 13.5607C9.08332 13.5845 8.46976 13.5606 7.85799 13.489C7.61399 12.9999 7.75558 12.6651 8.28277 12.4845C10.2102 11.8812 12.1453 11.3072 14.0881 10.7625C14.6603 10.6439 15.2266 10.6678 15.7872 10.8343C14.9906 11.1828 14.1882 11.4698 13.3801 11.6952Z" fill="#E5ECEC"/>
<path fill-rule="evenodd" clip-rule="evenodd" d="M11.3986 12.2689C11.19 12.5408 10.954 12.7799 10.6906 12.9864C10.2163 13.0101 9.74433 12.9861 9.27469 12.9146C9.04465 12.7923 8.99744 12.6488 9.1331 12.4841C9.87053 12.2837 10.6257 12.212 11.3986 12.2689Z" fill="#19A69C"/>
<path fill-rule="evenodd" clip-rule="evenodd" d="M-0.0703125 14.2778C0.0965776 16.3834 0.403363 18.4881 0.850041 20.5917C3.11441 27.1199 7.62178 30.8986 14.3722 31.9281C9.55801 31.9281 4.74385 31.9281 -0.0703125 31.9281C-0.0703125 26.0446 -0.0703125 20.1612 -0.0703125 14.2778Z" fill="#FEFEFD"/>
<path fill-rule="evenodd" clip-rule="evenodd" d="M31.9288 14.7085C31.9288 20.4484 31.9288 26.1883 31.9288 31.9282C27.0202 31.9282 22.1117 31.9282 17.2031 31.9282C24.4749 30.8021 29.1238 26.6406 31.15 19.4439C31.3684 17.8382 31.628 16.2597 31.9288 14.7085Z" fill="#FEFEFD"/>
</g>
<defs>
<clipPath id="clip0_40_387">
<rect width="32" height="32" fill="white"/>
</clipPath>
</defs>
</svg>
