<svg width="32" height="32" viewBox="0 0 32 32" fill="none" xmlns="http://www.w3.org/2000/svg">
<g clip-path="url(#clip0_40_803)">
<path d="M32 0H0V32H32V0Z" fill="white"/>
<mask id="mask0_40_803" style="mask-type:luminance" maskUnits="userSpaceOnUse" x="0" y="7" width="32" height="18">
<path d="M31.5147 7.27295H0.484375V24.7275H31.5147V7.27295Z" fill="white"/>
</mask>
<g mask="url(#mask0_40_803)">
<path d="M5.44472 14.079C1.86474 14.079 1.286 19.0887 5.44472 19.0887C13.8536 19.0887 15.7797 7.27295 23.1822 7.27295C33.1215 7.27295 35.4044 24.7275 23.1822 24.7275C12.8174 24.7275 11.3534 14.0813 5.44472 14.0813V14.079ZM5.44472 21.7957C-2.44952 21.7957 0.247468 13.2433 5.44472 13.2433C12.4582 13.2433 13.9772 23.7691 23.1822 23.7691C31.145 23.7691 30.5389 10.609 23.1822 10.609C15.8255 10.609 14.5719 21.7934 5.44472 21.7934V21.7957Z" fill="black"/>
</g>
</g>
<defs>
<clipPath id="clip0_40_803">
<rect width="32" height="32" fill="white"/>
</clipPath>
</defs>
</svg>
