<svg width="32" height="32" viewBox="0 0 32 32" fill="none" xmlns="http://www.w3.org/2000/svg">
<mask id="mask0_5987_505" style="mask-type:luminance" maskUnits="userSpaceOnUse" x="5" y="0" width="22" height="32">
<path d="M26.529 0.206451H5.57419V31.8968H26.529V0.206451Z" fill="white"/>
</mask>
<g mask="url(#mask0_5987_505)">
<path d="M19.194 18.9979C30.4604 13.6762 25.2065 0.234421 25.2065 0.234421C2.43247 0.234421 5.74204 19.9232 5.74204 19.9232L18.1276 19.9263C20.1915 21.0001 22.5015 24.657 19.9768 27.9149C18.6543 29.6212 16.1123 29.7353 14.4919 28.316C13.8336 27.7412 12.4918 25.7289 14.0159 23.65C15.1957 22.0427 17.3629 22.7104 18.0313 23.3933C18.3078 23.6751 18.3615 24.1065 18.1032 24.4035C18.043 24.4748 17.969 24.5335 17.8857 24.576C17.8026 24.6184 17.7117 24.6439 17.6184 24.6509C17.5252 24.6581 17.4314 24.6465 17.3428 24.617C17.254 24.5876 17.172 24.5407 17.1017 24.4793C16.8354 24.2439 15.9351 23.8581 15.2353 24.6147C14.9 24.9773 14.3785 26.1734 15.4206 27.23C16.3807 28.2059 18.0364 28.0382 18.9033 26.9765C20.5287 24.9863 19.2304 22.8973 18.5722 22.3195C16.7959 20.7668 14.1972 21.0517 12.5667 22.7579C11.1287 24.2591 11.3616 26.4421 11.5145 27.0886C12.3288 30.5152 15.8337 32.6488 19.1403 31.5386C25.0079 29.5667 27.2065 21.7214 25.0242 15.9592C24.3284 16.8539 23.4473 17.5883 22.4412 18.1127C21.4352 18.6371 20.3275 18.939 19.194 18.9979ZM11.7312 14.8449C9.92861 12.2993 10.4826 8.74034 12.9698 6.89468C15.456 5.05005 18.9327 5.61678 20.7363 8.16249C22.539 10.7081 21.985 14.2661 19.4977 16.1118C17.0115 17.9574 13.5338 17.3897 11.7312 14.8449ZM14.182 13.8317C14.2887 13.9797 14.4235 14.105 14.5789 14.2008C14.7343 14.2965 14.9071 14.3607 15.0874 14.3896C15.2677 14.4185 15.452 14.4115 15.6295 14.3691C15.8072 14.3268 15.9746 14.2499 16.1224 14.143C16.7452 13.6903 16.8829 12.8195 16.4323 12.1952C16.3255 12.0472 16.1905 11.9215 16.0349 11.8257C15.8793 11.7301 15.7063 11.6659 15.5258 11.6371C15.3452 11.6083 15.1608 11.6153 14.9829 11.6578C14.8052 11.7004 14.6376 11.7776 14.4899 11.8851C14.1913 12.1032 13.9913 12.4304 13.9336 12.7951C13.8759 13.1597 13.9652 13.5324 14.182 13.8317Z" fill="#00C567"/>
</g>
</svg>
