<svg width="32" height="32" viewBox="0 0 32 32" fill="none" xmlns="http://www.w3.org/2000/svg">
<mask id="mask0_5987_2343" style="mask-type:luminance" maskUnits="userSpaceOnUse" x="0" y="0" width="32" height="31">
<path d="M31.8439 0.936584H0V30.9073H31.8439V0.936584Z" fill="white"/>
</mask>
<g mask="url(#mask0_5987_2343)">
<mask id="mask1_5987_2343" style="mask-type:luminance" maskUnits="userSpaceOnUse" x="0" y="0" width="32" height="31">
<path d="M31.8439 0.936584H0V30.9073H31.8439V0.936584Z" fill="white"/>
</mask>
<g mask="url(#mask1_5987_2343)">
<path fill-rule="evenodd" clip-rule="evenodd" d="M1.79512 1.32689C11.1874 1.27501 20.5532 1.32704 29.8927 1.48299C22.4 1.48299 14.9073 1.48299 7.41463 1.48299C5.54074 1.457 3.66757 1.48301 1.79512 1.56105C1.74309 1.61308 1.69105 1.6651 1.63902 1.71715C1.91163 1.79065 2.17178 1.89471 2.41951 2.02934C1.96527 2.12881 1.549 2.05076 1.17073 1.7952C1.2542 1.49148 1.46233 1.33538 1.79512 1.32689Z" fill="#50A1E7"/>
<path fill-rule="evenodd" clip-rule="evenodd" d="M7.41463 1.4829C7.74795 1.77465 8.1642 1.8787 8.66341 1.7951C7.85937 1.92414 7.02685 2.00219 6.16585 2.02924C6.73586 2.10709 7.30822 2.13309 7.88292 2.10729C7.88292 2.52356 7.88292 2.93981 7.88292 3.35607C7.6748 3.35607 7.46666 3.35607 7.25853 3.35607C7.25853 3.77234 7.25853 4.18859 7.25853 4.60485C6.89431 4.60485 6.53007 4.60485 6.16585 4.60485C6.16585 5.02112 6.16585 5.43737 6.16585 5.85363C5.79796 5.82814 5.43372 5.85416 5.07317 5.93168C4.9691 6.2959 4.86504 6.66014 4.76097 7.02436C4.40042 7.10188 4.03618 7.1279 3.66829 7.10241C3.66829 7.31054 3.66829 7.51868 3.66829 7.7268C2.83577 7.83087 2.00324 7.93493 1.17073 8.039C1.19671 6.47715 1.1707 4.91617 1.09268 3.35607C0.918028 7.93334 0.839979 12.5122 0.858532 17.0927C0.8065 17.0927 0.754467 17.0927 0.702435 17.0927C0.676421 12.3054 0.702438 7.5184 0.780484 2.73168C0.926953 2.4213 1.05703 2.1091 1.17073 1.7951C1.549 2.05067 1.96527 2.12872 2.41951 2.02924C2.17178 1.89462 1.91163 1.79057 1.63902 1.71705C1.69105 1.66502 1.74309 1.61299 1.79512 1.56095C3.66757 1.48292 5.54074 1.45691 7.41463 1.4829Z" fill="#2595F1"/>
<path fill-rule="evenodd" clip-rule="evenodd" d="M17.0927 8.03902C15.8517 7.86956 14.7069 8.1037 13.6585 8.74146C13.4298 9.0184 13.2216 9.30458 13.0341 9.59999C12.6978 9.93051 12.5417 10.3468 12.5658 10.8488C12.5398 12.0986 12.5658 13.3474 12.6438 14.5951C12.78 15.1697 13.0661 15.638 13.5024 16C13.6064 16.2081 13.7105 16.4163 13.8146 16.6244C13.3636 16.7037 12.9214 16.8078 12.4877 16.9366C12.5077 16.4675 12.7419 16.3635 13.1902 16.6244C13.3823 16.4447 13.3823 16.2627 13.1902 16.078C12.9833 16.1011 12.8012 16.0752 12.6438 16C12.6743 15.7462 12.6743 15.486 12.6438 15.2195C12.4583 15.3855 12.3803 15.5936 12.4097 15.8439C11.5772 15.8439 10.7446 15.8439 9.91211 15.8439C9.91211 16.2602 9.91211 16.6764 9.91211 17.0927C9.0796 17.0927 8.24707 17.0927 7.41455 17.0927C7.41455 17.509 7.41455 17.9251 7.41455 18.3415C6.16577 18.3415 4.91699 18.3415 3.66821 18.3415C3.66821 18.7578 3.66821 19.1739 3.66821 19.5902C3.25195 19.5902 2.8357 19.5902 2.41943 19.5902C2.41943 19.3822 2.41943 19.1739 2.41943 18.9658C2.00317 18.9658 1.58692 18.9658 1.17066 18.9658C1.19661 20.0078 1.17059 21.0485 1.09261 22.0878C1.06613 20.3955 0.988082 18.7305 0.858462 17.0927C0.839908 12.5122 0.917957 7.93335 1.09261 3.35609C1.17063 4.91619 1.19664 6.47717 1.17066 8.03902C2.00317 7.93495 2.8357 7.83089 3.66821 7.72682C3.66821 7.5187 3.66821 7.31056 3.66821 7.10243C4.0361 7.12792 4.40034 7.1019 4.76089 7.02438C4.86496 6.66016 4.96902 6.29592 5.07309 5.9317C5.43364 5.85418 5.79788 5.82816 6.16577 5.85365C6.16577 5.43739 6.16577 5.02114 6.16577 4.60487C6.53 4.60487 6.89423 4.60487 7.25846 4.60487C7.25846 4.18861 7.25846 3.77236 7.25846 3.35609C7.46658 3.35609 7.67472 3.35609 7.88285 3.35609C7.88285 2.93983 7.88285 2.52358 7.88285 2.10731C7.30814 2.13311 6.73578 2.10709 6.16577 2.02926C7.02678 2.00221 7.85929 1.92416 8.66333 1.79512C12.7994 1.6135 16.9622 1.58747 21.1512 1.71707C17.8237 1.89046 14.4935 1.99453 11.1609 2.02926C13.6579 2.10729 16.1556 2.13332 18.6537 2.10731C18.6537 2.52358 18.6537 2.93983 18.6537 3.35609C18.8098 3.35609 18.9659 3.35609 19.1219 3.35609C19.1219 3.77236 19.1219 4.18861 19.1219 4.60487C18.9659 4.60487 18.8098 4.60487 18.6537 4.60487C18.6537 5.02114 18.6537 5.43739 18.6537 5.85365C18.3415 5.85365 18.0293 5.85365 17.7171 5.85365C17.7171 6.26992 17.7171 6.68617 17.7171 7.10243C16.9464 7.0796 16.8425 7.23569 17.4049 7.57072C17.2313 7.69017 17.1272 7.84627 17.0927 8.03902Z" fill="#168DF0"/>
<path fill-rule="evenodd" clip-rule="evenodd" d="M7.41463 1.48293C14.9073 1.48293 22.4 1.48293 29.8927 1.48293C30.4771 1.5538 30.8674 1.866 31.0634 2.41951C31.1675 9.18373 31.1675 15.948 31.0634 22.7122C31.0322 22.9963 30.902 23.2044 30.6732 23.3366C30.5691 23.3886 30.4651 23.4407 30.361 23.4927C30.0689 23.0728 30.0428 22.6565 30.2829 22.2439C30.3095 22.5897 30.4136 22.9019 30.5951 23.1805C30.707 23.0956 30.7851 22.9915 30.8293 22.8683C30.8553 16.1038 30.8293 9.33964 30.7512 2.57561C30.7252 9.106 30.6471 15.6101 30.5171 22.0878C30.3652 21.7057 30.3132 21.2894 30.361 20.839C30.413 14.5942 30.361 8.35034 30.2049 2.10732C30.0803 2.35359 30.0023 2.61376 29.9707 2.8878C29.8942 2.68594 29.8682 2.4778 29.8927 2.26341C29.4764 2.26341 29.0602 2.26341 28.6439 2.26341C28.6439 2.41951 28.6439 2.57561 28.6439 2.73171C28.2276 2.73171 27.8114 2.73171 27.3951 2.73171C27.3951 2.93983 27.3951 3.14797 27.3951 3.3561C26.9788 3.3561 26.5627 3.3561 26.1463 3.3561C26.1463 4.60488 26.1463 5.85366 26.1463 7.10244C25.9902 7.10244 25.8341 7.10244 25.678 7.10244C25.678 7.5187 25.678 7.93495 25.678 8.35122C25.8341 8.35122 25.9902 8.35122 26.1463 8.35122C26.1463 8.55934 26.1463 8.76748 26.1463 8.97561C25.73 8.97561 25.3139 8.97561 24.8976 8.97561C24.8976 9.18373 24.8976 9.39187 24.8976 9.6C24.7415 9.6 24.5854 9.6 24.4293 9.6C24.4293 10.0163 24.4293 10.4325 24.4293 10.8488C24.6127 10.8146 24.7688 10.8666 24.8976 11.0049C24.4939 11.1579 24.0776 11.2099 23.6488 11.161C23.6488 11.5772 23.6488 11.9935 23.6488 12.4098C23.144 12.2418 22.6235 12.1377 22.0878 12.0976C22.0878 12.2537 22.0878 12.4098 22.0878 12.5659C22.7795 12.4144 23.1438 12.6746 23.1805 13.3463C22.9417 12.9653 22.5775 12.7832 22.0878 12.8C21.9743 12.5816 21.8963 12.3475 21.8537 12.0976C21.3723 11.6402 20.8779 11.2239 20.3707 10.8488C20.044 10.5412 19.7838 10.1769 19.5902 9.7561C19.2751 9.52499 18.9629 9.31685 18.6537 9.13171C18.2163 8.64129 17.696 8.27706 17.0927 8.03902C17.1272 7.84627 17.2313 7.69018 17.4049 7.57073C16.8425 7.2357 16.9464 7.0796 17.7171 7.10244C17.7171 6.68617 17.7171 6.26992 17.7171 5.85366C18.0293 5.85366 18.3415 5.85366 18.6537 5.85366C18.6537 5.43739 18.6537 5.02114 18.6537 4.60488C18.8098 4.60488 18.9659 4.60488 19.122 4.60488C19.122 4.18861 19.122 3.77236 19.122 3.3561C18.9659 3.3561 18.8098 3.3561 18.6537 3.3561C18.6537 2.93983 18.6537 2.52358 18.6537 2.10732C16.1556 2.13332 13.658 2.1073 11.161 2.02927C14.4936 1.99454 17.8237 1.89046 21.1512 1.71707C16.9622 1.58748 12.7995 1.6135 8.66342 1.79512C8.1642 1.87873 7.74795 1.77467 7.41463 1.48293Z" fill="#1588EE"/>
<path fill-rule="evenodd" clip-rule="evenodd" d="M30.361 20.839C30.2334 21.2244 30.1554 21.6406 30.1268 22.0878C30.1187 20.6228 30.0407 19.5821 29.8927 18.9659C29.3996 18.9688 28.9833 18.7867 28.6439 18.4195C28.3359 18.3422 28.0237 18.3162 27.7073 18.3415C27.4992 18.3415 27.291 18.3415 27.0829 18.3415C26.9378 17.7502 26.7297 17.1778 26.4585 16.6244C26.2943 16.6476 26.1382 16.6217 25.9902 16.5463C25.8218 16.2562 25.6137 16.022 25.3659 15.8439C25.0526 15.5023 24.8965 15.086 24.8976 14.5951C24.6185 14.6396 24.3582 14.5876 24.1171 14.439C23.9254 14.0376 23.6132 13.8295 23.1805 13.8146C23.1805 13.6585 23.1805 13.5024 23.1805 13.3463C23.1438 12.6746 22.7795 12.4144 22.0878 12.5659C22.0878 12.4098 22.0878 12.2537 22.0878 12.0976C22.6235 12.1377 23.144 12.2418 23.6488 12.4098C23.6488 11.9935 23.6488 11.5772 23.6488 11.161C24.0776 11.2099 24.4939 11.1579 24.8976 11.0049C24.7688 10.8666 24.6127 10.8146 24.4293 10.8488C24.4293 10.4325 24.4293 10.0163 24.4293 9.6C24.5854 9.6 24.7415 9.6 24.8976 9.6C24.8976 9.39187 24.8976 9.18373 24.8976 8.97561C25.3139 8.97561 25.73 8.97561 26.1463 8.97561C26.1463 8.76748 26.1463 8.55934 26.1463 8.35122C25.9902 8.35122 25.8341 8.35122 25.6781 8.35122C25.6781 7.93495 25.6781 7.5187 25.6781 7.10244C25.8341 7.10244 25.9902 7.10244 26.1463 7.10244C26.1463 5.85366 26.1463 4.60488 26.1463 3.3561C26.5627 3.3561 26.9788 3.3561 27.3951 3.3561C27.3951 3.14797 27.3951 2.93983 27.3951 2.73171C27.8114 2.73171 28.2276 2.73171 28.6439 2.73171C28.6439 2.57561 28.6439 2.41951 28.6439 2.26341C29.0602 2.26341 29.4764 2.26341 29.8927 2.26341C29.8682 2.4778 29.8942 2.68594 29.9707 2.8878C30.0023 2.61376 30.0803 2.35359 30.2049 2.10732C30.361 8.35034 30.413 14.5942 30.361 20.839Z" fill="#0185EF"/>
<path fill-rule="evenodd" clip-rule="evenodd" d="M30.8293 22.8683C30.5552 22.7041 30.451 22.4439 30.5171 22.0878C30.6471 15.6101 30.7252 9.106 30.7512 2.57561C30.8293 9.33964 30.8553 16.1038 30.8293 22.8683Z" fill="#008AFE"/>
<path fill-rule="evenodd" clip-rule="evenodd" d="M1.17073 1.79512C1.05703 2.10911 0.926953 2.42131 0.780483 2.73171C0.702438 7.51842 0.676421 12.3054 0.702434 17.0927C0.659494 19.0757 0.711527 21.0529 0.858532 23.0244C0.547159 16.2621 0.443094 9.4459 0.546337 2.57561C0.646976 2.21248 0.855106 1.95231 1.17073 1.79512Z" fill="#7AB4F0"/>
<path fill-rule="evenodd" clip-rule="evenodd" d="M18.0293 10.8488C18.3582 10.9999 18.7225 11.052 19.122 11.0049C18.7576 11.1023 18.3934 11.2323 18.0293 11.3951C18.2537 11.4293 18.4618 11.5074 18.6537 11.6293C18.2467 11.757 17.8304 11.8351 17.4049 11.8634C17.4569 11.9155 17.509 11.9675 17.561 12.0195C17.0955 12.0973 16.6272 12.1233 16.1561 12.0976C16.1561 12.5138 16.1561 12.9301 16.1561 13.3464C15.6878 13.3464 15.2195 13.3464 14.7512 13.3464C14.9271 12.4875 14.875 11.6549 14.5951 10.8488C14.5987 11.8182 14.5726 12.8068 14.5171 13.8146C14.3585 13.9917 14.2544 13.9397 14.2049 13.6586C14.1529 12.722 14.1008 11.7854 14.0488 10.8488C13.9708 12.0965 13.9448 13.3453 13.9707 14.5951C13.9187 14.5951 13.8667 14.5951 13.8146 14.5951C13.7272 13.9502 13.6752 13.2997 13.6585 12.6439C13.6285 11.899 13.7326 11.1966 13.9707 10.5366C14.1256 10.2313 14.2816 9.91906 14.439 9.60001C14.553 9.41076 14.7091 9.25466 14.9073 9.13172C16.6587 8.49725 17.6993 9.06959 18.0293 10.8488Z" fill="#2079CC"/>
<path fill-rule="evenodd" clip-rule="evenodd" d="M13.0341 9.59999C12.9359 10.0523 12.7798 10.4685 12.5658 10.8488C12.5417 10.3468 12.6978 9.93051 13.0341 9.59999Z" fill="#6EB6F3"/>
<path fill-rule="evenodd" clip-rule="evenodd" d="M18.8098 9.59999C19.0623 10.0169 19.1664 10.4852 19.1219 11.0049C18.7225 11.0519 18.3582 10.9999 18.0293 10.8488C18.3415 10.8488 18.6537 10.8488 18.9659 10.8488C18.9139 10.4325 18.8617 10.0163 18.8098 9.59999Z" fill="#BEDDF7"/>
<path fill-rule="evenodd" clip-rule="evenodd" d="M18.6537 9.1317C18.9629 9.31685 19.2751 9.52499 19.5902 9.75609C19.7838 10.1769 20.044 10.5412 20.3707 10.8488C20.307 11.3326 20.4892 11.6968 20.9171 11.9415C20.9691 11.8894 21.0212 11.8374 21.0732 11.7854C21.184 12.0153 21.366 12.1194 21.6195 12.0976C21.5614 12.6319 21.7695 13.0221 22.2439 13.2683C21.8833 13.3458 21.5191 13.3718 21.1512 13.3463C21.1512 14.1788 21.1512 15.0114 21.1512 15.8439C20.9431 15.8439 20.7349 15.8439 20.5268 15.8439C20.5268 16.2602 20.5268 16.6764 20.5268 17.0927C20.1029 17.0649 19.6866 16.9868 19.278 16.8585C19.3494 16.7939 19.4015 16.7159 19.4341 16.6244C19.1137 16.4641 18.8015 16.308 18.4976 16.1561C18.6693 15.9836 18.7734 15.7755 18.8098 15.5317C18.9061 15.5144 18.9841 15.4624 19.0439 15.3756C19.1215 14.9626 19.1476 14.5463 19.122 14.1268C18.7225 14.0797 18.3582 14.1318 18.0293 14.2829C17.8042 15.6973 16.9717 16.3737 15.5317 16.3122C15.0861 16.1102 14.6699 15.85 14.2829 15.5317C14.2094 15.2072 14.1054 14.895 13.9707 14.5951C13.9447 13.3453 13.9707 12.0965 14.0487 10.8488C14.1008 11.7854 14.1528 12.7219 14.2048 13.6585C14.2544 13.9396 14.3584 13.9917 14.517 13.8146C14.5726 12.8068 14.5986 11.8181 14.5951 10.8488C14.875 11.6549 14.927 12.4874 14.7512 13.3463C15.2195 13.3463 15.6878 13.3463 16.1561 13.3463C16.1561 12.9301 16.1561 12.5138 16.1561 12.0976C16.6272 12.1232 17.0955 12.0972 17.561 12.0195C17.509 11.9675 17.4569 11.9154 17.4049 11.8634C17.8304 11.8351 18.2467 11.757 18.6537 11.6293C18.4618 11.5073 18.2537 11.4293 18.0293 11.3951C18.3934 11.2323 18.7576 11.1022 19.122 11.0049C19.1664 10.4852 19.0623 10.0169 18.8098 9.59999C18.8009 9.42688 18.7489 9.27078 18.6537 9.1317Z" fill="#1179D3"/>
<path fill-rule="evenodd" clip-rule="evenodd" d="M17.0927 8.03903C17.696 8.27707 18.2163 8.64131 18.6537 9.13172C18.7489 9.2708 18.8009 9.4269 18.8098 9.60001C18.8617 10.0163 18.9139 10.4325 18.9659 10.8488C18.6537 10.8488 18.3415 10.8488 18.0293 10.8488C17.6993 9.06959 16.6587 8.49724 14.9073 9.13172C14.709 9.25466 14.5529 9.41076 14.439 9.60001C14.0526 9.78536 13.8965 10.0976 13.9707 10.5366C13.7326 11.1966 13.6285 11.899 13.6585 12.6439C13.6751 13.2997 13.7272 13.9502 13.8146 14.5951C13.8544 14.9803 14.0105 15.2925 14.2829 15.5317C14.2829 15.6878 14.2829 15.8439 14.2829 16C14.0227 16 13.7626 16 13.5024 16C13.0662 15.638 12.78 15.1697 12.6439 14.5951C12.5659 13.3474 12.5398 12.0986 12.5658 10.8488C12.7798 10.4685 12.9359 10.0523 13.0341 9.60001C13.2217 9.3046 13.4298 9.01842 13.6585 8.74147C14.707 8.10372 15.8517 7.86957 17.0927 8.03903Z" fill="#F5F9F8"/>
<path fill-rule="evenodd" clip-rule="evenodd" d="M14.439 9.59999C14.2816 9.91904 14.1255 10.2312 13.9707 10.5366C13.8965 10.0975 14.0526 9.78534 14.439 9.59999Z" fill="#75A8D8"/>
<path fill-rule="evenodd" clip-rule="evenodd" d="M18.0293 14.2829C18.3582 14.1318 18.7225 14.0797 19.1219 14.1268C19.1475 14.5463 19.1215 14.9626 19.0439 15.3756C18.9841 15.4624 18.9061 15.5144 18.8098 15.5317C18.9292 15.1265 18.9813 14.7102 18.9659 14.2829C18.6537 14.2829 18.3415 14.2829 18.0293 14.2829Z" fill="#A0C7F3"/>
<path fill-rule="evenodd" clip-rule="evenodd" d="M13.8146 14.5951C13.8667 14.5951 13.9187 14.5951 13.9707 14.5951C14.1054 14.895 14.2095 15.2072 14.2829 15.5317C14.0105 15.2925 13.8544 14.9803 13.8146 14.5951Z" fill="#B4D1EF"/>
<path fill-rule="evenodd" clip-rule="evenodd" d="M20.3707 10.8488C20.8779 11.2239 21.3723 11.6402 21.8537 12.0976C21.8963 12.3475 21.9743 12.5816 22.0878 12.8C22.5775 12.7832 22.9417 12.9653 23.1805 13.3463C23.1805 13.5024 23.1805 13.6585 23.1805 13.8146C23.6132 13.8295 23.9254 14.0376 24.1171 14.439C24.3582 14.5876 24.6185 14.6396 24.8976 14.5951C24.8965 15.086 25.0526 15.5023 25.3659 15.8439C25.2098 15.8439 25.0537 15.8439 24.8976 15.8439C24.8976 16.052 24.8976 16.2602 24.8976 16.4683C25.2741 16.4283 25.5343 16.5844 25.678 16.9366C25.4369 17.0852 25.1767 17.1372 24.8976 17.0927C24.8976 17.509 24.8976 17.9251 24.8976 18.3415C24.4812 18.3415 24.0651 18.3415 23.6488 18.3415C23.6488 18.7578 23.6488 19.1739 23.6488 19.5902C24.0651 19.5902 24.4812 19.5902 24.8976 19.5902C24.8976 19.7463 24.8976 19.9024 24.8976 20.0585C24.4812 20.0585 24.0651 20.0585 23.6488 20.0585C23.6488 20.4748 23.6488 20.891 23.6488 21.3073C23.2325 21.3073 22.8163 21.3073 22.4 21.3073C22.4 21.7236 22.4 22.1398 22.4 22.5561C21.9837 22.5561 21.5675 22.5561 21.1512 22.5561C21.1512 22.4 21.1512 22.2439 21.1512 22.0878C20.9951 22.0878 20.839 22.0878 20.6829 22.0878C20.6829 22.2439 20.6829 22.4 20.6829 22.5561C20.4227 22.5561 20.1627 22.5561 19.9024 22.5561C19.9024 22.4 19.9024 22.2439 19.9024 22.0878C19.719 22.122 19.5629 22.07 19.4341 21.9317C19.1106 21.5952 18.8503 21.231 18.6537 20.839C18.4894 20.8623 18.3333 20.8364 18.1854 20.761C18.0553 20.4227 17.8212 20.1886 17.4829 20.0585C17.4075 19.9105 17.3816 19.7544 17.4049 19.5902C16.9594 19.5081 16.5431 19.352 16.1561 19.1219C16.1561 18.9658 16.1561 18.8097 16.1561 18.6536C15.9919 18.6769 15.8358 18.651 15.6878 18.5756C15.4797 18.4715 15.4797 18.3675 15.6878 18.2634C15.0616 17.982 15.1136 17.8259 15.8439 17.7951C15.536 17.7178 15.2238 17.6918 14.9073 17.7171C14.9073 17.561 14.9073 17.4049 14.9073 17.2488C15.5632 17.2983 16.1876 17.2461 16.7805 17.0927C17.4261 16.9155 17.9985 16.6033 18.4976 16.1561C18.8015 16.308 19.1137 16.4641 19.4341 16.6244C19.4015 16.7159 19.3494 16.7939 19.278 16.8585C19.6866 16.9868 20.1029 17.0649 20.5268 17.0927C20.5268 16.6764 20.5268 16.2602 20.5268 15.8439C20.7349 15.8439 20.9431 15.8439 21.1512 15.8439C21.1512 15.0114 21.1512 14.1788 21.1512 13.3463C21.5191 13.3718 21.8833 13.3458 22.2439 13.2683C21.7695 13.0221 21.5614 12.6319 21.6195 12.0976C21.366 12.1194 21.184 12.0153 21.0732 11.7854C21.0212 11.8374 20.9691 11.8894 20.9171 11.9415C20.4892 11.6968 20.307 11.3326 20.3707 10.8488Z" fill="#057CDC"/>
<path fill-rule="evenodd" clip-rule="evenodd" d="M25.3659 15.8439C25.6137 16.022 25.8218 16.2562 25.9902 16.5463C26.1382 16.6217 26.2943 16.6476 26.4585 16.6244C26.7297 17.1778 26.9378 17.7502 27.0829 18.3415C27.291 18.3415 27.4992 18.3415 27.7073 18.3415C27.9486 18.7133 28.0528 19.1296 28.0195 19.5902C27.8114 19.5902 27.6032 19.5902 27.3951 19.5902C27.3951 20.0066 27.3951 20.4227 27.3951 20.839C26.9788 20.839 26.5627 20.839 26.1463 20.839C26.1463 21.2553 26.1463 21.6715 26.1463 22.0878C25.3139 22.0878 24.4812 22.0878 23.6488 22.0878C23.6488 22.5041 23.6488 22.9203 23.6488 23.3366C25.7828 23.3105 27.916 23.3366 30.0488 23.4146C26.2508 23.4927 22.4524 23.5188 18.6537 23.4927C19.2487 23.3641 19.8731 23.286 20.5268 23.2585C20.0022 22.7603 19.3778 22.5261 18.6537 22.5561C18.6318 22.3026 18.7359 22.1206 18.9659 22.0098C18.558 21.5942 18.0897 21.4642 17.561 21.6195C17.3562 21.2705 17.4082 20.9583 17.7171 20.6829C17.5963 20.4939 17.4662 20.4939 17.3268 20.6829C16.8623 20.2078 16.472 19.6873 16.1561 19.122C16.5431 19.352 16.9594 19.5081 17.4049 19.5902C17.3816 19.7545 17.4075 19.9106 17.4829 20.0585C17.8212 20.1886 18.0553 20.4227 18.1854 20.761C18.3333 20.8364 18.4894 20.8623 18.6537 20.839C18.8503 21.231 19.1106 21.5952 19.4341 21.9317C19.5629 22.07 19.719 22.122 19.9024 22.0878C19.9024 22.2439 19.9024 22.4 19.9024 22.5561C20.1627 22.5561 20.4227 22.5561 20.6829 22.5561C20.6829 22.4 20.6829 22.2439 20.6829 22.0878C20.839 22.0878 20.9951 22.0878 21.1512 22.0878C21.1512 22.2439 21.1512 22.4 21.1512 22.5561C21.5675 22.5561 21.9837 22.5561 22.4 22.5561C22.4 22.1398 22.4 21.7236 22.4 21.3073C22.8163 21.3073 23.2325 21.3073 23.6488 21.3073C23.6488 20.891 23.6488 20.4748 23.6488 20.0585C24.0651 20.0585 24.4812 20.0585 24.8976 20.0585C24.8976 19.9024 24.8976 19.7463 24.8976 19.5902C24.4812 19.5902 24.0651 19.5902 23.6488 19.5902C23.6488 19.1739 23.6488 18.7578 23.6488 18.3415C24.0651 18.3415 24.4812 18.3415 24.8976 18.3415C24.8976 17.9252 24.8976 17.509 24.8976 17.0927C25.1767 17.1372 25.4369 17.0852 25.678 16.9366C25.5343 16.5844 25.2741 16.4283 24.8976 16.4683C24.8976 16.2602 24.8976 16.052 24.8976 15.8439C25.0537 15.8439 25.2098 15.8439 25.3659 15.8439Z" fill="#017EE4"/>
<path fill-rule="evenodd" clip-rule="evenodd" d="M14.2829 15.5317C14.6699 15.85 15.0862 16.1102 15.5317 16.3122C15.1618 16.2574 14.7976 16.2313 14.439 16.2341C14.2475 16.4819 14.2995 16.6901 14.5951 16.8585C15.3078 17.0629 16.0364 17.1409 16.7805 17.0927C16.1876 17.2461 15.5632 17.2983 14.9073 17.2488C14.547 17.0469 14.1828 16.8389 13.8146 16.6244C13.7106 16.4163 13.6065 16.2081 13.5024 16C13.7626 16 14.0228 16 14.2829 16C14.2829 15.8439 14.2829 15.6878 14.2829 15.5317Z" fill="#D7EBF6"/>
<path fill-rule="evenodd" clip-rule="evenodd" d="M18.0293 14.2829C18.3415 14.2829 18.6537 14.2829 18.9659 14.2829C18.9813 14.7102 18.9292 15.1265 18.8098 15.5317C18.7734 15.7755 18.6693 15.9836 18.4976 16.1561C17.9985 16.6033 17.4261 16.9155 16.7805 17.0927C16.0364 17.1409 15.3078 17.0629 14.5951 16.8585C14.2995 16.6901 14.2475 16.4819 14.439 16.2341C14.7976 16.2313 15.1618 16.2574 15.5317 16.3122C16.9717 16.3737 17.8042 15.6973 18.0293 14.2829Z" fill="#F5F9F6"/>
<path fill-rule="evenodd" clip-rule="evenodd" d="M13.8146 16.6244C14.1827 16.8389 14.5469 17.0469 14.9072 17.2488C14.9072 17.4049 14.9072 17.561 14.9072 17.7171C15.2237 17.6918 15.5359 17.7179 15.8439 17.7951C15.1136 17.8259 15.0615 17.982 15.6878 18.2634C15.4796 18.3675 15.4796 18.4715 15.6878 18.5756C15.8358 18.651 15.9919 18.6769 16.1561 18.6537C16.1561 18.8098 16.1561 18.9659 16.1561 19.122C16.472 19.6873 16.8623 20.2078 17.3268 20.6829C17.4662 20.4939 17.5963 20.4939 17.7171 20.6829C17.4082 20.9583 17.3562 21.2705 17.561 21.6195C18.0897 21.4642 18.558 21.5942 18.9659 22.0098C18.7359 22.1206 18.6318 22.3026 18.6537 22.5561C19.3778 22.5261 20.0022 22.7603 20.5268 23.2585C19.8731 23.286 19.2487 23.3641 18.6537 23.4927C16.1556 23.4666 13.6579 23.4927 11.1609 23.5707C17.4047 23.6488 23.6486 23.6748 29.8927 23.6488C29.8927 23.7008 29.8927 23.7529 29.8927 23.8049C23.4142 23.7531 16.962 23.805 10.5365 23.961C10.4068 25.9632 10.3287 27.9925 10.3024 30.0488C10.1977 29.9314 10.0676 29.8793 9.91212 29.8927C9.0833 29.0786 8.25079 28.2462 7.41456 27.3951C7.15439 26.8227 6.73814 26.4066 6.16578 26.1463C6.11375 26.0422 6.06171 25.9383 6.00968 25.8341C5.73818 25.406 5.37396 25.0938 4.917 24.8976C4.65588 24.5324 4.34368 24.2203 3.98041 23.961C3.1527 23.8316 2.32019 23.7535 1.48285 23.7268C1.18512 23.56 0.976989 23.3258 0.858464 23.0244C0.711459 21.0529 0.659426 19.0757 0.702366 17.0927C0.754398 17.0927 0.806432 17.0927 0.858464 17.0927C0.988084 18.7305 1.06613 20.3956 1.09261 22.0878C1.17059 21.0485 1.19661 20.0078 1.17066 18.9659C1.58692 18.9659 2.00317 18.9659 2.41943 18.9659C2.41943 19.1739 2.41943 19.3822 2.41943 19.5902C2.8357 19.5902 3.25195 19.5902 3.66822 19.5902C3.66822 19.1739 3.66822 18.7578 3.66822 18.3415C4.917 18.3415 6.16578 18.3415 7.41456 18.3415C7.41456 17.9252 7.41456 17.509 7.41456 17.0927C8.24707 17.0927 9.0796 17.0927 9.91212 17.0927C9.91212 16.6764 9.91212 16.2602 9.91212 15.8439C10.7446 15.8439 11.5772 15.8439 12.4097 15.8439C12.3803 15.5936 12.4583 15.3855 12.6438 15.2195C12.6743 15.486 12.6743 15.7462 12.6438 16C12.8012 16.0752 12.9833 16.1012 13.1902 16.078C13.3823 16.2627 13.3823 16.4447 13.1902 16.6244C12.7419 16.3636 12.5077 16.4675 12.4877 16.9366C12.9214 16.8078 13.3637 16.7037 13.8146 16.6244Z" fill="#0C87EF"/>
<path fill-rule="evenodd" clip-rule="evenodd" d="M27.7073 18.3415C28.0237 18.3162 28.3359 18.3422 28.6439 18.4195C28.9833 18.7867 29.3996 18.9688 29.8927 18.9659C30.0407 19.5821 30.1187 20.6228 30.1268 22.0878C30.1554 21.6406 30.2334 21.2244 30.361 20.839C30.3132 21.2894 30.3652 21.7057 30.5171 22.0878C30.451 22.4439 30.5552 22.7041 30.8293 22.8683C30.7851 22.9915 30.707 23.0956 30.5951 23.1805C30.4136 22.9019 30.3095 22.5897 30.2829 22.2439C30.0428 22.6565 30.0689 23.0728 30.361 23.4927C30.2219 23.5879 30.0658 23.6399 29.8927 23.6488C23.6486 23.6748 17.4047 23.6488 11.161 23.5707C13.658 23.4927 16.1556 23.4666 18.6537 23.4927C22.4524 23.5188 26.2508 23.4927 30.0488 23.4146C27.916 23.3366 25.7828 23.3105 23.6488 23.3366C23.6488 22.9203 23.6488 22.5041 23.6488 22.0878C24.4812 22.0878 25.3139 22.0878 26.1463 22.0878C26.1463 21.6715 26.1463 21.2553 26.1463 20.839C26.5627 20.839 26.9788 20.839 27.3951 20.839C27.3951 20.4227 27.3951 20.0066 27.3951 19.5902C27.6032 19.5902 27.8114 19.5902 28.0195 19.5902C28.0528 19.1296 27.9486 18.7133 27.7073 18.3415Z" fill="#017FEA"/>
<path fill-rule="evenodd" clip-rule="evenodd" d="M30.6732 23.3366C30.5876 23.7399 30.3274 23.896 29.8927 23.8049C29.8927 23.7529 29.8927 23.7008 29.8927 23.6488C30.0658 23.6399 30.2219 23.5879 30.361 23.4927C30.4651 23.4407 30.5691 23.3886 30.6732 23.3366Z" fill="#B2D9F4"/>
<path fill-rule="evenodd" clip-rule="evenodd" d="M4.91707 24.8976C5.37403 25.0938 5.73825 25.406 6.00976 25.8341C5.5528 25.6379 5.18857 25.3257 4.91707 24.8976Z" fill="#72AEE9"/>
<path fill-rule="evenodd" clip-rule="evenodd" d="M10.5366 23.961C10.5626 26.147 10.5366 28.3323 10.4585 30.5171C10.2438 30.329 10.0617 30.1209 9.91219 29.8927C10.0677 29.8793 10.1977 29.9314 10.3024 30.0488C10.3288 27.9925 10.4069 25.9632 10.5366 23.961Z" fill="#4096E9"/>
<path fill-rule="evenodd" clip-rule="evenodd" d="M6.16586 26.1463C6.73822 26.4065 7.15447 26.8227 7.41464 27.3951C6.94634 27.0309 6.53008 26.6146 6.16586 26.1463Z" fill="#7AB2EB"/>
</g>
</g>
</svg>
