<svg xmlns="http://www.w3.org/2000/svg" width="32" height="32" fill="none"><path fill="#A01014" d="M13.059 8h1v1h-1V8Zm-3 1h1v1h-1V9Zm-5 1h1v1h-1v-1Zm3 0h1v1h-1v-1Zm19 1h1v1h-1v-1Zm-1 2h1v1h-1v-1Zm1 2v-1h1v4h-1v-3Zm-24 3h1v1h-1v-1Zm5 3v-1h1v2h-1v-1Zm18 0v-1h1v3h-2v-1l1-1Zm-22 0h1v1h-1v-1Zm10 0h1v1h-1v-1Zm13 2h1v1h-1v-1Zm-10 1h1v1h-1v-1Zm10 1h1v1h-1v-1Zm-1 2h1v1h-1v-1Zm-7 1h1v1h-1v-1Zm2 1h1v1h-1v-1Z" opacity=".6"/><path fill="#A01316" d="M12.059 8h1v1h-1V8Zm3 0h1v1h-1V8Zm11 1h1v1h-1V9Zm-24 7h1v1h-1v-1Zm18 0h1v1h-1v-1Zm-7 1h1v1h-1v-1Zm-9 2v-1h1v2h-1v-1Zm16-1h1v1h-1v-1Zm-1 3h1v1h-1v-1Zm6 0h1v1h-1v-1Zm-17 2h1v1h-1v-1Zm8 0h1v1h-1v-1Zm1 3h1v1h-1v-1Zm6 4v-1h2v2h-2v-1Z" opacity=".5"/><path fill="#9F0F13" d="M20.059 8V7h2v1h-2Zm-6 1V8h1v2h-1V9Zm8-1h1v1h-1V8Zm-13 1h1v1h-1V9Zm12 0h1v1h-1V9Zm3 0h1v1h-1V9Zm3 4h1v1h-1v-1Zm-19 4h1v1h-1v-1Zm2 5h1v1h-1v-1Zm9 0h1v1h-1v-1Zm-8 1h1v1h-1v-1Zm2 0h1v1h-1v-1Zm3 3h1v1h-1v-1Zm1 1h1v1h-1v-1Zm5 2h1v1h-1v-1Zm3 0h1v1h-1v-1Z" opacity=".7"/><path fill="#A11518" d="M16.059 8h1v1h-1V8Zm-10 2V9h1v2h-1v-1Zm3 0h1v1h-1v-1Zm6 4h1v1h-1v-1Zm-11 2h1v1h-1v-1Zm22 2h1v1h-1v-1Zm-7 2h1v1h-1v-1Zm-6 1h1v1h-1v-1Zm-1 1h1v1h-1v-1Zm3 1h1v1h-1v-1Z" opacity=".3"/><path fill="#98090B" fill-rule="evenodd" d="M22.059 2h1v1h-1V2Zm-5 2V3h2v1h-2Zm-14 0h2v1h-1v1h-1V4Zm1 2 1-1v1h-1Zm10-2h1v1h-1V4Zm4 2V5h2v1h-2Zm10-1h1v1h-1V5Zm-22 1h1v1h-1V6Zm1 10h1v1h-1v-1Zm4 0h1v1h-1v-1Zm12 0h1v1h-1v-1Zm-17 1h1v1h-1v-1Zm12 0h1v1h-1v-1Z" clip-rule="evenodd" opacity=".7"/><path fill="#A41D1F" d="M20.059 9h1v1h-1V9Zm-13 1h1v1h-1v-1Zm15 0h1v1h-1v-1Zm-18 3h1v1h-1v-1Zm22 1h1v1h-1v-1Zm-1 6h1v1h-1v-1Zm2 0h1v1h-1v-1Zm-24 1h1v1h-1v-1Zm24 6h1v1h-1v-1Z" opacity=".1"/><path fill="#98090B" d="M9.059 2h1v1h-1V2Zm13 1h1v1h-1V3Zm1 3h1v1h-1V6Zm5 1h1v1h-1V7Zm-11 8 1-1h1v3h-1l-1-1v-1Zm-7 0h1v1h-1v-1Zm1 2h1v1h-1v-1Zm5 0h1v1h-1v-1Zm8 1v-1h1v2h-1v-1Zm-18 0h1v1h-1v-1Z" opacity=".7"/><path fill="#98090B" d="M14.059 2h1v1h-1V2Zm4 0h1v1h-1V2Zm-12 2V3h1v2h-1V4Zm21 0h1v1h-1V4Zm-5 1h1v1h-1V5Zm3 0h1v1h-1V5Zm-21 2h1v1h-1V7Zm8 7h1v1h-1v-1Zm12 1h1v1h-1v-1Zm-18 1h1v1h-1v-1Zm-1 1h1v1h-1v-1Zm18 1h1v1h-1v-1Z" opacity=".8"/><path fill="#98090B" d="M14.059 2V1h2v1h-2Zm3 0h1v1h-1V2Zm6 0h1v1h-1V2Zm-15 1h1v1h-1V3Zm-1 2h1v1h-1V5Zm18 1h1v1h-1V6Zm-12 10v-1h1v2h-1v-1Zm3 0h1v1h-1v-1Zm8 0h1v1h-1v-1Zm-17 1h1v1h-1v-1Zm10 1h1v1h-1v-1Z" opacity=".6"/><path fill="#98090B" d="M17.059 1h1v1h-1V1Zm4 1h1v1h-1V2Zm-17 1h1v1h-1V3Zm8 0h1v1h-1V3Zm8 1V3h1v2h-1V4Zm-4 0h1v1h-1V4Zm-14 1h1v1h-1V5Zm24 1V5h2v1h-2Zm-4 0h1v1h-1V6Zm-20 1h1v1h-1V7Zm10 10h1v1h-1v-1Zm11 2h1v1h-1v-1Z" opacity=".5"/><path fill="#A11418" d="M11.059 8h1v1h-1V8Zm9 0h1v1h-1V8Zm4 0h1v1h-1V8Zm-12 1h1v1h-1V9Zm-7 2h1v1h-1v-1Zm9 3h1v1h-1v-1Zm-12 3h1v1h-1v-1Zm17 0h1v1h-1v-1Zm-5 1h1v1h-1v-1Zm5 1h1v1h-1v-1Zm-16 1h1v1h-1v-1Zm19 1h1v1h-1v-1Zm-1 2h1v1h-1v-1Zm-10 1h1v1h-1v-1Z" opacity=".2"/><path fill="#980A0B" d="M11.059 1h1v1h-1V1Zm-1 1h1v1h-1V2Zm2 0h1v1h-1V2Zm-7 2h1v1h-1V4Zm19 0h1v1h-1V4Zm-14 1h1v1h-1V5Zm3 0h1v1h-1V5Zm-4 1h1v1h-1V6Zm-4 1h1v1h-1V7Zm2 7h1v1h-1v-1Zm12 1h1v1h-1v-1Zm3 1h1v1h-1v-1Zm3 2h1v1h-1v-1Z" opacity=".3"/><path fill="#96090A" d="M7.059 2h1v1h-1V2Zm22 4h1v1h-1V6Zm-23 1h1v1h-1V7Zm19 0h1v1h-1V7Zm-21 1h1v1h-1V8Zm24 0h1v1h-1V8Zm-23 6h1v1h-1v-1Zm5 3h1v1h-1v-1Zm1 1h1v1h-1v-1Zm-5 1h1v1h-1v-1Z" opacity=".1"/><path fill="#9C1111" d="M9.059 2V1h2v1h-2Zm3-1h1v1h-1V1Zm-7 4h1v1h-1V5Zm6 1h1v1h-1V6Zm-3 3V8h2v1h-2Zm4 9h1v1h-1v-1Zm-7 1h1v1h-1v-1Zm17 0h1v1h-1v-1Zm-8 7h1v1h-1v-1Zm2 2h1v1h-1v-1Z" opacity=".1"/><path fill="#99090B" d="M11.059 3V2h1v3h-1V3Zm2 0h1v1h-1V3Zm8 2V3h1v2h-1Zm-4-1h1v1h-1V4Zm2 0h1v1h-1V4Zm7 0h1v1h-1V4Zm-3 1h1v1h-1V5Zm4 2h1v1h-1V7Z" opacity=".9"/><path fill="#980A0C" d="M18.059 1h1v1h-1V1Zm-3 1h1v1h-1V2Zm-8 1h1v1h-1V3Zm19 0h1v1h-1V3Zm-11 1h1v1h-1V4Zm3 0h1v1h-1V4Zm-10 1h1v1h-1V5Zm9 0h1v1h-1V5Zm10 1h1v1h-1V6Zm-16 8h1v1h-1v-1Zm1 2h1v1h-1v-1Zm13 1v-1h1v2h-1v-1Z" opacity=".5"/><path fill="#A01115" d="M11.059 9h1v1h-1V9Zm14 0h1v1h-1V9Zm-22 7h1v1h-1v-1Zm5 3h1v1h-1v-1Zm5 2v-2h1v2h-1Zm13-2h1v1h-1v-1Zm-22 1h1v1h-1v-1Zm5 1h1v1h-1v-1Zm7 1h1v1h-1v-1Zm-2 1h1v1h-1v-1Zm10 0h1v1h-1v-1Zm3 1h1v1h-1v-1Zm-10 1h1v1h-1v-1Z" opacity=".6"/><path fill="#A2171A" d="M20.059 6h1v1h-1V6Zm-2 2h1v1h-1V8Zm5 0h1v1h-1V8Zm-10 1h1v1h-1V9Zm2 1h1v1h-1v-1Zm0 5h1v1h-1v-1Zm11 2h1v1h-1v-1Zm-7 1h1v1h-1v-1Zm-5 1h1v1h-1v-1Zm7 2h1v1h-1v-1Zm2 0h1v1h-1v-1Zm-3 2h1v1h-1v-1Zm-10 1h1v1h-1v-1Zm15 0h1v1h-1v-1Zm-7 3h1v1h-1v-1Zm4 3h1v1h-1v-1Z" opacity=".2"/><path fill="#98090C" d="M8.059 2h1v1h-1V2Zm-3 1h1v1h-1V3Zm5 2V3h1v2h-1Zm4-2h1v1h-1V3Zm-2 1h1v1h-1V4Zm10 0h1v1h-1V4Zm-16 10h1v1h-1v-1Zm7 0h1v1h-1v-1Zm-5 1h1v1h-1v-1Zm17 0h1v1h-1v-1Zm-6 1h1v1h-1v-1Z" opacity=".3"/><path fill="#A21419" d="M22.059 7h1v1h-1V7Zm3 1h1v1h-1V8Zm-2 2h1v1h-1v-1Zm5 6v-2h1v2h-1Zm-23 7h1v1h-1v-1Zm13 1h1v1h-1v-1Zm8 1h1v1h-1v-1Zm-7 4h1v1h-1v-1Zm7 0h1v1h-1v-1Z" opacity=".1"/><path fill="#A11518" d="M15.059 9h1v1h-1V9Zm-1 1h1v1h-1v-1Zm7 0h1v1h-1v-1Zm6 0h1v1h-1v-1Zm-12 3h1v1h-1v-1Zm-13 1h1v1h-1v-1Zm19 1h1v1h-1v-1Zm-7 2h1v1h-1v-1Zm-11 2h1v1h-1v-1Zm17 0h1v1h-1v-1Zm-7 3h1v1h-1v-1Zm4 0h1v1h-1v-1Zm-2 4v-1h2v1h-2Zm10 2h1v1h-1v-1Zm-5 1h1v1h-1v-1Z" opacity=".4"/><path fill="#990A0C" d="M23.059 4h1v1h-1V4Zm-19 3V6h2v1h-2Zm3-1h1v1h-1V6Zm17 0h1v1h-1V6Zm-8 9h1v1h-1v-1Zm7 0h1v1h-1v-1Zm-1 3v-1h1v2h-1v-1Zm-15 0h1v1h-1v-1Z" opacity=".4"/><path fill="#A01114" d="M7.059 9h1v1h-1V9Zm-3 2h1v1h-1v-1Zm-1 2h1v1h-1v-1Zm5 3h1v1h-1v-1Zm0 2h1v1h-1v-1Zm5 0h1v1h-1v-1Zm-2 4h1v1h-1v-1Zm11 1h1v1h-1v-1Zm-5 5h1v1h-1v-1Zm3 0h1v1h-1v-1Zm6 0h1v1h-1v-1Z" opacity=".5"/><path fill="#9C0A0D" d="M19.059 3h1v1h-1V3Zm-12 2V4h2v1h-2Zm-4 2h1v1h-1V7Zm18 1h1v1h-1V8Zm-13 14h1v1h-1v-1Zm12 1v-1h4v1h-4Zm-8 0h1v1h-1v-1Z" opacity=".9"/><path fill="#9F0D11" d="M8.059 9h1v1h-1V9Zm15 0h1v1h-1V9Zm3 3h1v1h-1v-1Zm-23 5h1v1h-1v-1Zm3 6v-1h2v1h-2Zm3-1h1v1h-1v-1Zm5 1v-1h2v1h-2Zm3 0h1v1h-1v-1Zm6 0h1v1h-1v-1Z" opacity=".8"/><path fill="#980909" d="M16.059 2V1h1v2h-1V2Zm3-1h1v1h-1V1Zm-7 4h1v1h-1V5Zm8 0h1v1h-1V5Zm-1 9h1v1h-1v-1Zm5 1 1-1h1v1h-2Zm-6 3h1v1h-1v-1Zm6 1h1v1h-1v-1Z" opacity=".2"/><path fill="#98090B" d="M23.059 3h1v1h-1V3Zm-9 3V5h2v1h-2Zm7-1h1v1h-1V5Zm3 0h1v1h-1V5Zm-22 1h1v1h-1V6Zm24 1V6h1v2h-1V7Zm-21 8h1v1h-1v-1Zm7 0h1v1h-1v-1Zm-2 1h1v1h-1v-1Zm-5 2h1v1h-1v-1Z" opacity=".6"/><path fill="#A11216" d="M27.059 19h1v1h-1v-1Zm-13 1h1v1h-1v-1Zm4 2h1v1h-1v-1Zm-12 2v-1h2v1h-2Zm6 0h1v1h-1v-1Zm16 0h1v1h-1v-1Zm-13 2h1v1h-1v-1Zm1 1h1v1h-1v-1Zm5 1h1v1h-1v-1Z" opacity=".3"/><path fill="#A11417" d="M9.059 15v-1h1v2h-1v-1Zm5 0h1v1h-1v-1Zm-10 2h1v1h-1v-1Zm16 4h1v1h-1v-1Zm-16 1h1v1h-1v-1Zm15 1h1v1h-1v-1Zm-6 1h1v1h-1v-1Zm11 0h1v1h-1v-1Zm-10 1h1v1h-1v-1Zm13 1h1v1h-1v-1Z" opacity=".4"/><path fill="#970A0B" d="M13.059 1h1v1h-1V1Zm7 1h1v1h-1V2Zm-4 1h1v1h-1V3Zm-8 3h1v1h-1V6Zm-5 2h1v1h-1V8Zm24 0h1v1h-1V8Z" opacity=".2"/><path fill="#A61A1D" d="M16.059 9h1v1h-1V9Zm-6 1h1v1h-1v-1Zm15 3h1v1h-1v-1Zm-4 3h1v1h-1v-1Zm-12 3v-1h1v3h-1v-2Zm5 5h1v1h-1v-1Zm9 0h1v1h-1v-1Z" opacity=".1"/><path fill="#A21B1D" d="M18.059 7h1v1h-1V7Zm-1 1h1v1h-1V8Zm-8 5h1v1h-1v-1Zm-6 2v-1h1l1 1v1h-2v-1Zm17 0h1v1h-1v-1Zm-11 1h1v1h-1v-1Zm11 4h1v1h-1v-1Z" opacity=".3"/><path fill="#9A0B0F" d="M24.059 4V3h2v1h-2Zm-8 1h1v1h-1V5Zm0 13h1v1h-1v-1Z" opacity=".2"/><path fill="#9F0D11" d="M22.059 9h1v1h-1V9Zm4 2v-1h1v2h-1v-1Zm1 1h1v1h-1v-1Zm-22 10h1v1h-1v-1Zm19 0h1v1h-1v-1Zm-6 1h1v1h-1v-1Zm0 5h1v1h-1v-1Z" opacity=".8"/><path fill="#A11418" d="M19.059 7h1v1h-1V7Zm-15 5h1v1h-1v-1Zm17 2h1v1h-1v-1Zm-19 1h1v1h-1v-1Zm12 1h1v1h-1v-1Zm6 1h1v1h-1v-1Zm7 1h1v1h-1v-1Zm-18 6v-1h2v1h-2Zm17 2h1v1h-1v-1Z" opacity=".5"/><path fill="#980A0B" d="M19.059 2h1v1h-1V2Zm-10 2V3h1v3h-1V4Zm4 0h1v1h-1V4Zm-7 1h1v1h-1V5Zm22 1h1v1h-1V6Zm-22 9h1v1h-1v-1Zm5 0h1v1h-1v-1Zm12 2h1v1h-1v-1Z" opacity=".8"/><path fill="#A01C24" d="M27.059 9h1v1h-1V9Zm-1 7h1v1h-1v-1Zm-17 8h1v1h-1v-1Z" opacity=".1"/><path fill="#98090A" d="M13.059 2h1v1h-1V2Zm12 2h1v1h-1V4Zm-14 1h1v1h-1V5Zm-8 1h1v1h-1V6Zm4 9h1v1h-1v-1Zm-2 1h1v1h-1v-1Zm12 1h1v1h-1v-1Z" opacity=".8"/><path fill="#A61F20" d="M8.059 11h1v1h-1v-1Zm1 6h1v1h-1v-1Zm-4 4h1v1h-1v-1Z" opacity=".2"/><path fill="#9D0F13" d="M19.059 6h1v1h-1V6Zm2 0h1v1h-1V6Zm-16 3h1v1h-1V9Zm3 5h1v1h-1v-1Zm2 0h1v1h-1v-1Zm15 16h1v1h-1v-1Z" opacity=".1"/><path fill="#A6151E" d="M10.059 8h1v1h-1V8Zm-3 11h1v1h-1v-1Zm6 6h1v1h-1v-1Zm15 0h1v1h-1v-1Zm-10 4h1v1h-1v-1Z" opacity=".1"/><path fill="#A93133" d="M21.059 11h1v1h-1v-1Zm1 2h1v1h-1v-1Zm-18 1h1v1h-1v-1Z" opacity=".1"/><path fill="#A72426" d="M20.059 10h1v1h-1v-1Zm5 0h1v1h-1v-1Zm-16 1h1v1h-1v-1Zm16 1h1v1h-1v-1Zm-5 2h1v1h-1v-1Zm8 2h1v1h-1v-1Zm-22 6v-1h2v1h-2Zm10 2h1v1h-1v-1Z" opacity=".1"/><path fill="#AA1E1E" d="M15.059 16h1v1h-1v-1Zm10 8v-1h2v1h-2Z" opacity=".1"/><path fill="#98090B" d="M17.059 16h1v1h-1v-1Z" opacity=".7"/><path fill="#A41D1F" d="M2.059 13h1v1h-1v-1Zm8 8h1v1h-1v-1Zm5 0h1v1h-1v-1Zm10 6h1v1h-1v-1Z" opacity=".1"/><path fill="#A11418" d="M28.059 23h1v1h-1v-1Z" opacity=".2"/><path fill="#980A0B" d="M28.059 4h1v1h-1V4Z" opacity=".3"/><path fill="#96090A" d="M24.059 2h1v1h-1V2Zm-21 1h1v1h-1V3Zm-1 1h1v1h-1V4Zm16 9h1v1h-1v-1Z" opacity=".1"/><path fill="#9C1111" d="M19.059 13h1v1h-1v-1Z" opacity=".1"/><path fill="#A21419" d="M4.059 10h1v1h-1v-1Z" opacity=".1"/><path fill="#990A0C" d="M17.059 14h1v1h-1v-1Z" opacity=".4"/><path fill="#A01114" d="M27.059 22h1v1h-1v-1Z" opacity=".5"/><path fill="#980909" d="M6.059 2h1v1h-1V2Z" opacity=".2"/><path fill="#A11216" d="M3.059 12h1v1h-1v-1Z" opacity=".3"/><path fill="#970A0B" d="M12.059 13h1v1h-1v-1Z" opacity=".2"/><path fill="#9A0B0F" d="M27.059 3h1v1h-1V3Z" opacity=".2"/><path fill="#A01C24" d="M13.059 7h1v1h-1V7Zm4 0h1v1h-1V7Zm-3 6h1v1h-1v-1Z" opacity=".1"/><path fill="#A61F20" d="M21.059 13h1v1h-1v-1Z" opacity=".2"/><path fill="#A6151E" d="M28.059 13h1v1h-1v-1Z" opacity=".1"/><path fill="#A93133" d="M15.059 12h1v1h-1v-1Z" opacity=".1"/><path fill="#AA1E1E" d="M14.059 7h1v1h-1V7Zm8 21h1v1h-1v-1Z" opacity=".1"/></svg>
