<svg width="32" height="32" viewBox="0 0 32 32" fill="none" xmlns="http://www.w3.org/2000/svg">
<path d="M17.4673 0.447659L23.6878 4.01449C23.9765 4.17839 23.9765 4.59205 23.6878 4.75985L17.4673 8.32668C17.1824 8.49059 16.8234 8.28376 16.8234 7.95595V0.818391C16.8234 0.490586 17.1785 0.283757 17.4673 0.447659Z" fill="#FF5067"/>
<path d="M19.2234 21.1696L25.5102 8.78716C25.6936 8.40863 25.28 8.01838 24.9132 8.22521L15.8127 13.3335C15.7307 13.3803 15.6644 13.4506 15.6292 13.5364L13.3112 18.9101V5.12277C13.3112 4.79497 12.9561 4.58814 12.6712 4.75204L6.06827 8.51789C5.93559 8.59594 5.85364 8.73643 5.85364 8.88863V30.8203C5.85364 31.0584 6.04486 31.2496 6.28291 31.2496H12.8858C13.1239 31.2496 13.3151 31.0584 13.3151 30.8203V23.1872L18.0292 31.0428C18.1073 31.1716 18.2478 31.2496 18.3961 31.2496H25.6C25.9473 31.2496 26.1502 30.8633 25.9512 30.5784L19.2234 21.1696Z" fill="#1D2679"/>
</svg>
