<svg width="32" height="32" viewBox="0 0 32 32" fill="none" xmlns="http://www.w3.org/2000/svg">
<path d="M31.613 10.9688L23.5668 23.3335L10.0488 19.2119L31.613 10.9688Z" fill="#D4E5F1"/>
<path d="M12.5867 24.7188L10.0488 19.2783L23.6006 23.3238L12.5867 24.7188Z" fill="#CADBE9"/>
<path d="M0.355469 10.0781L10.0494 19.1784L7.42032 20.9591L0.355469 10.0781Z" fill="#ABC1D7"/>
<path d="M12.5226 24.7188L9.97229 19.2783L7.37891 21.0372L12.5226 24.7188Z" fill="#95B0C4"/>
<path d="M8.4668 17.8153L14.204 7.11133L13.3154 18.0005L9.99028 19.2783L8.4668 17.8153Z" fill="#EAE735"/>
<path d="M20.2377 15.3461L14.214 7.11133L13.3135 17.9923L20.2377 15.3461Z" fill="#ED5248"/>
<path d="M31.6135 10.9688L19.3477 14.066L20.2813 15.3211L31.6135 10.9688Z" fill="#DEEAF5"/>
<path d="M11.1375 12.7822L0.355469 10.0781L8.4173 17.6948L11.1375 12.7822Z" fill="#E0E9F5"/>
<path opacity="0.1" d="M9.76578 12.4521L8.4668 17.6948L11.1376 12.7996L9.76578 12.4521Z" fill="black"/>
<path opacity="0.1" d="M19.8514 13.9365L20.2379 15.3214L19.3477 14.0675L19.8514 13.9365Z" fill="black"/>
<path opacity="0.1" d="M14.2008 7.11133L14.6983 17.4557L13.3135 17.9923L14.2008 7.11133Z" fill="black"/>
<path opacity="0.1" d="M12.6211 18.1902L14.2038 7.11133L13.3132 17.9265L12.6211 18.1902Z" fill="black"/>
<path d="M9.91917 19.2775L0.355469 10.1639L0.435113 10.0781L9.94366 19.1365L31.5707 10.973L31.6136 11.0832L9.91917 19.2775Z" fill="white"/>
</svg>
