<svg width="32" height="32" viewBox="0 0 33 33" fill="none" xmlns="http://www.w3.org/2000/svg">
    <path
        d="M32.0409 12.4422C30.7187 6.54999 26.0242 1.88317 20.0743 0.533026C18.8041 0.246853 17.519 0.100098 16.2488 0.100098C12.5719 0.100098 8.96928 1.35486 6.10946 3.62223C3.29422 5.86024 1.28864 9.00081 0.478973 12.4569C0.389836 12.8311 0.478973 13.22 0.7241 13.5209C0.969227 13.8291 1.34063 14.0052 1.73432 14.0052H5.09182C5.66378 14.0052 6.15403 13.6383 6.32488 13.0953C7.66193 8.75132 11.6582 5.83089 16.2562 5.83089C20.8319 5.83089 24.9248 8.85405 26.2173 13.1833C26.2322 13.2274 26.2247 13.2787 26.195 13.3154C26.1653 13.3521 26.1282 13.3741 26.0762 13.3741H20.8616C20.6611 13.3741 20.4605 13.2714 20.3343 13.1026C19.376 11.8332 17.9127 11.0921 16.3082 11.0774H16.2637C14.8895 11.0774 13.597 11.6204 12.6239 12.611C11.6508 13.6016 11.1457 14.9004 11.1903 16.2579C11.2868 18.9728 13.5078 21.0934 16.2562 21.0934C17.8533 21.0934 19.376 20.3377 20.3343 19.0609C20.4605 18.8921 20.6537 18.7967 20.8616 18.7967L26.0762 18.8701C26.1282 18.8701 26.1653 18.8187 26.195 18.8628C26.2247 18.8995 26.2322 18.9508 26.2173 18.9948C24.9248 23.3388 20.8245 26.362 16.2562 26.362C11.6582 26.362 7.66936 23.4489 6.32488 19.1049C6.15403 18.5546 5.65635 18.1877 5.08439 18.1877H1.74918C1.34806 18.1877 0.976655 18.3638 0.731528 18.672C0.486401 18.9802 0.397264 19.3691 0.486401 19.7506C1.30349 23.2067 3.30908 26.3399 6.12432 28.578C8.98413 30.8453 12.5868 32.1001 16.2562 32.1001C21.1959 32.1001 25.8013 29.9134 28.8988 26.1051C31.9889 22.2968 33.1328 17.3145 32.0409 12.4422ZM16.2562 30.9407C14.5181 30.9407 12.8096 30.6472 11.1903 30.0749C9.62295 29.5172 8.16704 28.71 6.8597 27.6754C4.24501 25.5988 2.38799 22.6931 1.63033 19.4938C1.6229 19.4718 1.6229 19.4351 1.65261 19.3984C1.6749 19.3691 1.71204 19.3544 1.74918 19.3544H5.08439C5.13638 19.3544 5.18838 19.3911 5.20324 19.4424C6.69628 24.2707 11.1383 27.5213 16.2637 27.5213C21.3519 27.5213 25.9127 24.1533 27.3538 19.3397C27.4726 18.9361 27.3984 18.5179 27.1458 18.1804C26.8933 17.8428 26.507 17.652 26.0836 17.652H20.8691C20.2971 17.652 19.7474 17.9309 19.3983 18.3858C18.6555 19.3764 17.5116 19.9488 16.2637 19.9488C15.246 19.9488 14.2878 19.5672 13.5524 18.8628C12.8245 18.1657 12.4011 17.2338 12.3713 16.2285C12.3342 15.1865 12.7279 14.1886 13.4707 13.4255C14.2135 12.6624 15.2089 12.2441 16.2637 12.2441H16.3008C17.5339 12.2588 18.6555 12.8238 19.3909 13.7997C19.74 14.262 20.2897 14.5408 20.8616 14.5408H26.0762C26.4996 14.5408 26.8858 14.35 27.1384 14.0125C27.3909 13.675 27.4652 13.2567 27.3464 12.8605C25.9127 8.03956 21.3519 4.67153 16.2562 4.67153C11.1309 4.67153 6.68885 7.92216 5.19581 12.7577C5.18095 12.8091 5.13638 12.8385 5.09182 12.8385H1.73432C1.69718 12.8385 1.66747 12.8238 1.64518 12.7944C1.61547 12.7577 1.6229 12.7357 1.6229 12.7137C2.38056 9.50711 4.23016 6.59402 6.84484 4.51743C8.15219 3.48281 9.60809 2.67565 11.1754 2.11798C12.8022 1.56031 14.5106 1.2668 16.2562 1.2668C17.4373 1.2668 18.6332 1.39888 19.8143 1.67038C22.5255 2.27941 24.9917 3.64424 26.9601 5.60342C28.9286 7.56261 30.2879 10.0134 30.8896 12.699C31.417 15.0325 31.4021 17.3585 30.8599 19.5965C30.3473 21.6951 29.352 23.6984 27.9778 25.386C25.1105 28.9155 20.8319 30.9407 16.2562 30.9407Z"
        fill="#181818" />
</svg>