<svg width="32" height="32" viewBox="0 0 32 32" fill="none" xmlns="http://www.w3.org/2000/svg">
<mask id="mask0_44_2110" style="mask-type:luminance" maskUnits="userSpaceOnUse" x="0" y="0" width="32" height="32">
<path d="M32 0H0V32H32V0Z" fill="white"/>
</mask>
<g mask="url(#mask0_44_2110)">
<path fill-rule="evenodd" clip-rule="evenodd" d="M10.7375 3.48421C14.4983 3.33535 16.6317 5.11313 17.1375 8.81755C17.1065 10.1912 16.6563 11.4001 15.7864 12.4442C15.2154 13.039 14.6228 13.6079 14.0086 14.1509C17.1829 17.3964 20.3829 20.62 23.6086 23.822C23.022 24.719 22.2871 25.5248 21.4042 26.2398C15.6205 20.5509 9.8842 14.8146 4.19531 9.03088C5.68661 7.46844 7.20365 5.92769 8.74642 4.40866C9.39123 4.02931 10.0549 3.72115 10.7375 3.48421Z" fill="#EF5222"/>
<path fill-rule="evenodd" clip-rule="evenodd" d="M11.3067 6.47098C12.9208 6.422 13.8689 7.18052 14.1512 8.74653C14.1339 9.20135 14.0154 9.62801 13.7956 10.0265C13.1319 10.6902 12.4682 11.3539 11.8045 12.0176C10.7378 10.951 9.67116 9.88431 8.60449 8.81764C9.40988 7.89151 10.3106 7.10929 11.3067 6.47098Z" fill="#FCF9F9"/>
<path fill-rule="evenodd" clip-rule="evenodd" d="M27.2349 12.0176C27.3771 12.0176 27.5193 12.0176 27.6615 12.0176C26.9991 14.4557 26.2642 16.8735 25.4571 19.2709C25.0766 18.414 24.6262 17.608 24.106 16.8531C23.2784 17.6095 22.4726 18.3917 21.6882 19.1998C21.1728 18.9963 20.7461 18.6407 20.4082 18.1331C21.2142 17.2798 22.02 16.4265 22.826 15.5731C22.0711 15.0529 21.2651 14.6025 20.4082 14.222C22.7042 13.496 24.9798 12.7612 27.2349 12.0176Z" fill="#EF5221"/>
<path fill-rule="evenodd" clip-rule="evenodd" d="M7.46631 15.2891C8.4035 15.9887 9.25684 16.7946 10.0263 17.7068C9.29798 18.3635 8.70538 19.1221 8.24854 19.9824C7.86486 22.7977 9.07375 24.4096 11.8752 24.818C13.2448 24.7493 14.3352 24.1566 15.1463 23.0402C16.0433 23.6268 16.8491 24.3617 17.564 25.2446C14.7709 28.5528 11.4525 29.1928 7.60854 27.1646C4.46729 24.5786 3.73247 21.426 5.40409 17.7068C6.01478 16.8354 6.7022 16.0295 7.46631 15.2891Z" fill="#EF5323"/>
</g>
</svg>
