<svg width="32" height="32" viewBox="0 0 33 33" fill="none" xmlns="http://www.w3.org/2000/svg">
    <path
        d="M29.2857 6.88986L31.2327 4.94569L28.877 2.58992L26.9328 4.53409C23.75 1.95089 19.6971 0.687804 15.6103 1.0054C11.5235 1.323 7.71439 3.19706 4.96889 6.24097C2.22339 9.28487 0.750891 13.2664 0.855158 17.3643C0.959425 21.4621 2.63251 25.3636 5.52926 28.264C8.426 31.1643 12.3254 32.8422 16.4232 32.9516C20.5209 33.0609 24.5042 31.5934 27.5515 28.8516C30.5989 26.1099 32.4776 22.3032 32.8003 18.2167C33.123 14.1303 31.8649 10.0759 29.2857 6.88986ZM16.8733 29.5981C14.864 29.5978 12.8837 29.1188 11.0963 28.2008C9.30896 27.2827 7.76603 25.9521 6.5953 24.3191C5.42458 22.686 4.65975 20.7976 4.36415 18.8101C4.06855 16.8227 4.25069 14.7934 4.89549 12.8903C5.54029 10.9873 6.62919 9.26519 8.07201 7.86674C9.51483 6.46829 11.2701 5.43369 13.1923 4.84862C15.1146 4.26356 17.1486 4.14487 19.1258 4.50238C21.1031 4.85989 22.9668 5.68332 24.5624 6.90446L16.8733 14.5965L11.4583 9.18141L9.10542 11.5343L16.8733 19.3022L26.9153 9.26023C28.3496 11.1338 29.2313 13.3711 29.4608 15.7195C29.6902 18.0679 29.2582 20.4336 28.2135 22.5493C27.1689 24.665 25.5533 26.4463 23.5493 27.692C21.5453 28.9376 19.2329 29.5978 16.8733 29.5981Z"
        fill="black" />
</svg>