<svg width="32" height="32" viewBox="0 0 32 32" fill="none" xmlns="http://www.w3.org/2000/svg">
<path d="M8.2276 1.98682L11.9976 8.78758L8.53536 15.019C8.36962 15.3166 8.28263 15.6516 8.28263 15.9922C8.28263 16.3328 8.36962 16.6678 8.53536 16.9654L11.9976 23.2123L8.2276 30.013C7.51821 29.6614 6.92913 29.1072 6.53493 28.4205L0.533644 17.9963C0.183995 17.3876 0 16.698 0 15.9961C0 15.2942 0.183995 14.6045 0.533644 13.9959L6.53493 3.57161C6.93032 2.88785 7.51929 2.33642 8.2276 1.98682Z" fill="url(#paint0_linear_3889_207)"/>
<path opacity="0.7" d="M8.53545 15.0267C8.37108 15.3234 8.28485 15.6569 8.28485 15.9961C8.28485 16.3352 8.37108 16.6688 8.53545 16.9654L11.9977 23.2123L8.22769 30.013C7.5183 29.6614 6.92921 29.1071 6.53502 28.4205L0.533729 17.9963C0.0567041 17.1731 2.72651 16.1884 8.53545 15.0344V15.0267Z" fill="url(#paint1_linear_3889_207)"/>
<path opacity="0.5" d="M8.61218 2.67151L11.9975 8.78758L11.4359 9.76461L8.45061 4.7102C7.58888 3.30235 6.27322 4.0332 4.62671 6.87967L4.87292 6.45655L6.53481 3.57161C6.9261 2.89009 7.50946 2.33889 8.21209 1.98682L8.60449 2.67151H8.61218Z" fill="url(#paint2_linear_3889_207)"/>
<path d="M25.4621 3.57163L31.4634 13.9959C32.1789 15.2268 32.1789 16.7654 31.4634 17.9963L25.4621 28.4206C25.1112 29.0283 24.6065 29.5331 23.9988 29.8842C23.3911 30.2353 22.7017 30.4203 21.9998 30.4208H15.9985L23.4617 16.9654C23.626 16.6688 23.7123 16.3352 23.7123 15.9961C23.7123 15.657 23.626 15.3234 23.4617 15.0268L15.9985 1.57141H21.9998C22.7017 1.57186 23.3911 1.75692 23.9988 2.10801C24.6065 2.4591 25.1112 2.96387 25.4621 3.57163Z" fill="url(#paint3_linear_3889_207)"/>
<path d="M21.6919 30.3746L15.7676 30.4285L22.9383 16.9039C23.0987 16.6032 23.1825 16.2676 23.1825 15.9269C23.1825 15.5861 23.0987 15.2505 22.9383 14.9498L15.7676 1.57141H17.1217L24.6464 14.8883C24.8247 15.2029 24.9178 15.5586 24.9165 15.9202C24.9151 16.2818 24.8194 16.6368 24.6387 16.9501C23.0193 19.7644 21.4112 22.5852 19.8146 25.4125C18.3527 27.9821 18.9837 29.6361 21.6919 30.3746Z" fill="url(#paint4_linear_3889_207)"/>
<path d="M9.99715 30.4208C9.38163 30.4208 8.76612 30.2746 8.22754 30.0131L15.6291 16.6654C15.8599 16.25 15.8599 15.7422 15.6291 15.3268L8.22754 1.98684C8.77772 1.71444 9.38321 1.57229 9.99715 1.57141H15.9984L23.4616 15.0268C23.6259 15.3234 23.7122 15.657 23.7122 15.9961C23.7122 16.3352 23.6259 16.6688 23.4616 16.9654L15.9984 30.4208H9.99715Z" fill="url(#paint5_linear_3889_207)"/>
<path opacity="0.6" d="M22.9386 15.3268L15.3062 1.57141H15.9986L23.4617 15.0268C23.6261 15.3234 23.7123 15.657 23.7123 15.9961C23.7123 16.3352 23.6261 16.6688 23.4617 16.9654L15.9986 30.4208H15.3062L22.9386 16.6654C23.1694 16.25 23.1694 15.7422 22.9386 15.3268Z" fill="url(#paint6_linear_3889_207)"/>
<path opacity="0.6" d="M15.6291 15.3268L8.22754 1.9868C8.45836 1.86371 8.73534 1.77139 8.99693 1.69446C10.6281 4.62555 13.0363 9.0722 16.2293 15.0267C16.3936 15.3234 16.4799 15.6569 16.4799 15.9961C16.4799 16.3352 16.3936 16.6687 16.2293 16.9654L8.88153 30.2669C8.61993 30.19 8.48144 30.1361 8.23523 30.0207L15.6214 16.6731C15.8523 16.2576 15.8523 15.7499 15.6214 15.3344L15.6291 15.3268Z" fill="url(#paint7_linear_3889_207)"/>
<defs>
<linearGradient id="paint0_linear_3889_207" x1="5.99882" y1="30.013" x2="-6.28765" y2="10.2514" gradientUnits="userSpaceOnUse">
<stop stop-color="#EB6F07"/>
<stop offset="1" stop-color="#FAB743"/>
</linearGradient>
<linearGradient id="paint1_linear_3889_207" x1="9.80926" y1="27.5703" x2="3.48285" y2="21.0631" gradientUnits="userSpaceOnUse">
<stop stop-color="#D96504"/>
<stop offset="1" stop-color="#D96504" stop-opacity="0"/>
</linearGradient>
<linearGradient id="paint2_linear_3889_207" x1="7.72245" y1="2.66348" x2="11.0714" y2="8.04367" gradientUnits="userSpaceOnUse">
<stop stop-color="#EB6F07"/>
<stop offset="1" stop-color="#EB720A" stop-opacity="0"/>
</linearGradient>
<linearGradient id="paint3_linear_3889_207" x1="23.9993" y1="30.4208" x2="12.998" y2="7.4945" gradientUnits="userSpaceOnUse">
<stop stop-color="#EE6F05"/>
<stop offset="1" stop-color="#FAB743"/>
</linearGradient>
<linearGradient id="paint4_linear_3889_207" x1="12.7301" y1="30.4285" x2="30.347" y2="25.9567" gradientUnits="userSpaceOnUse">
<stop stop-color="#D96504" stop-opacity="0.8"/>
<stop offset="0.498" stop-color="#D96504" stop-opacity="0.2"/>
<stop offset="1" stop-color="#D96504" stop-opacity="0"/>
</linearGradient>
<linearGradient id="paint5_linear_3889_207" x1="15.9699" y1="30.4208" x2="4.74393" y2="7.78209" gradientUnits="userSpaceOnUse">
<stop stop-color="#FFA95F"/>
<stop offset="1" stop-color="#FFEBC8"/>
</linearGradient>
<linearGradient id="paint6_linear_3889_207" x1="15.9871" y1="1.88875" x2="25.3503" y2="3.36092" gradientUnits="userSpaceOnUse">
<stop stop-color="white" stop-opacity="0.5"/>
<stop offset="1" stop-color="white" stop-opacity="0.1"/>
</linearGradient>
<linearGradient id="paint7_linear_3889_207" x1="7.09697" y1="31.4669" x2="18.6702" y2="29.7618" gradientUnits="userSpaceOnUse">
<stop stop-color="white" stop-opacity="0.5"/>
<stop offset="1" stop-color="white" stop-opacity="0.1"/>
</linearGradient>
</defs>
</svg>
