<svg width="32" height="32" viewBox="0 0 32 32" fill="none" xmlns="http://www.w3.org/2000/svg">
<path opacity="0.945" fill-rule="evenodd" clip-rule="evenodd" d="M2.02106 18.8485C2.02106 16.8275 2.02106 14.8064 2.02106 12.7854C4.69958 2.34672 11.3241 -1.52697 21.8947 1.16431C26.7191 3.23817 29.4138 6.8873 29.979 12.1117C27.6211 12.1117 25.2632 12.1117 22.9053 12.1117C22.3763 8.55854 20.2991 6.76206 16.6737 6.72221C13.4454 6.69806 11.1998 8.1577 9.93685 11.1012C8.75443 14.7844 8.979 18.3774 10.6105 21.8801C14.3445 25.7064 18.162 25.8186 22.0632 22.2169C22.4457 21.3424 22.7264 20.4441 22.9053 19.5222C25.2632 19.5222 27.6211 19.5222 29.979 19.5222C28.6935 26.9235 24.2584 30.8533 16.6737 31.3117C8.51534 30.9539 3.63114 26.7995 2.02106 18.8485Z" fill="black"/>
</svg>
