<svg width="32" height="32" viewBox="0 0 32 32" fill="none" xmlns="http://www.w3.org/2000/svg">
<path d="M23.7992 22.5569C22.2138 23.9821 20.1207 24.772 17.8236 24.772C12.7599 24.772 9.04135 21.0534 9.04135 15.9479C9.04135 10.8424 12.6416 7.2803 17.8236 7.2803C20.0806 7.2803 22.2139 8.03203 23.8393 9.45721L24.9441 10.4073L29.8531 5.50018L28.6245 4.39171C25.7359 1.78342 21.9008 0.320007 17.8218 0.320007C8.72101 0.320007 2.112 6.88714 2.112 15.9097C2.112 24.894 8.87936 31.6959 17.8218 31.6959C21.9772 31.6959 25.8524 30.2325 28.7045 27.5824L29.8913 26.4739L24.9059 21.5704L23.7992 22.5569Z" fill="black"/>
<path d="M17.5834 10.7641C18.9794 10.7641 20.3183 11.3187 21.3055 12.3059C22.2927 13.293 22.8473 14.6319 22.8473 16.028C22.8473 17.4241 22.2927 18.763 21.3055 19.7501C20.3183 20.7373 18.9794 21.2919 17.5834 21.2919C16.1873 21.2919 14.8484 20.7373 13.8612 19.7501C12.874 18.763 12.3195 17.4241 12.3195 16.028C12.3195 14.6319 12.874 13.293 13.8612 12.3059C14.8484 11.3187 16.1873 10.7641 17.5834 10.7641" fill="#FF3D2E"/>
</svg>
