<svg width="32" height="32" viewBox="0 0 32 32" fill="none" xmlns="http://www.w3.org/2000/svg">
<path fill-rule="evenodd" clip-rule="evenodd" d="M26.7889 23.026C25.9584 25.65 24.1429 27.7963 21.6806 29.0677C19.211 30.3393 16.396 30.5895 13.7351 29.7734C11.0743 28.9577 8.9063 27.164 7.61258 24.7312C6.31161 22.2764 6.0837 19.417 6.92919 16.8151C7.8405 17.4545 9.31051 17.7998 11.0306 17.9027C12.6624 17.9983 14.5217 17.8805 16.3447 17.5719C18.8143 17.1604 21.0929 16.44 22.754 15.5581C23.9888 14.8965 24.7016 14.2571 25.0693 13.6689C25.4441 14.1393 25.7747 14.6537 26.0615 15.183C27.3626 17.6304 27.6123 20.4087 26.782 23.0329L26.7893 23.0255L26.7889 23.026Z" fill="#FFBC00"/>
<path fill-rule="evenodd" clip-rule="evenodd" d="M10.6723 4.9453L10.5545 4.99692C9.54032 5.42331 8.66538 6.21721 8.07757 7.23865C8.07031 7.24593 8.06303 7.24593 8.0554 7.24593C7.48216 6.94459 6.53412 6.52583 5.49778 6.40078C5.48322 6.40078 5.47561 6.37861 5.4905 6.37133L9.51849 2.13033C9.51849 2.13033 9.52577 2.12305 9.53304 2.12305L15.2881 2.52727C15.2881 2.52727 15.3102 2.54181 15.3026 2.5567C14.641 3.31389 14.2074 4.20303 13.9504 4.89404C13.9504 4.90132 13.9358 4.90895 13.9282 4.90132C12.914 4.52654 11.8409 4.51926 10.8264 4.87915C10.7748 4.8937 10.7235 4.91587 10.6795 4.93804L10.6723 4.9453Z" fill="#FFBC00"/>
<path fill-rule="evenodd" clip-rule="evenodd" d="M7.59277 15.059C7.66621 14.2433 10.4812 12.4203 15.3322 11.6119C17.1035 11.3178 18.8087 11.2077 20.2787 11.296C20.3671 11.296 20.4478 11.3109 20.5361 11.3182L18.9927 15.3091C18.0886 15.5737 17.1112 15.8016 16.0893 15.9707C11.0548 16.8086 7.73236 15.9118 7.60005 15.1474V15.1033H7.59277V15.059Z" fill="white"/>
<path fill-rule="evenodd" clip-rule="evenodd" d="M23.8209 12.4348C23.8648 12.6994 23.4166 13.3756 21.9906 14.1327C21.6598 14.309 21.2996 14.4781 20.9175 14.6325L22.1084 11.5457C23.2844 11.8103 23.7768 12.2072 23.8209 12.4351V12.4348Z" fill="white"/>
<path fill-rule="evenodd" clip-rule="evenodd" d="M23.8209 12.4348C23.8648 12.6994 23.4166 13.3756 21.9906 14.1327C21.6598 14.309 21.2996 14.4781 20.9175 14.6325L22.1084 11.5457C23.2844 11.8103 23.7768 12.2072 23.8209 12.4351V12.4348Z" fill="white"/>
<path fill-rule="evenodd" clip-rule="evenodd" d="M27.716 14.4266C27.1354 13.3313 26.3856 12.3466 25.4963 11.4866C25.4229 11.4131 25.3273 11.3542 25.2317 11.3175C24.8348 10.8032 24.0852 10.3033 22.7182 9.98709L25.3495 3.18084L28.4363 1.68138C28.7233 1.5785 28.9067 1.32115 28.9218 1.0198C28.9584 0.44655 28.3702 0.0274355 27.8413 0.248077L24.4455 1.87985C24.2544 1.96817 24.0925 2.12231 24.0117 2.32079L21.1451 9.73701C19.396 9.568 17.2939 9.65632 15.1401 10.0162C14.5301 10.1191 13.9202 10.2441 13.3248 10.3837L11.7664 6.17213C11.7664 6.17213 11.7664 6.14996 11.781 6.14996C12.5382 6.01037 13.3099 6.14996 14.0154 6.56146C14.199 6.6716 14.4346 6.68649 14.633 6.59817C14.8315 6.51746 14.9856 6.32627 15.0373 6.1129C15.0445 6.08345 15.765 3.3568 17.5215 2.65087C17.7639 2.54801 17.9551 2.33499 17.9918 2.07036C18.0507 1.62215 17.7421 1.25464 17.3451 1.23247L9.29679 0.660262C9.09103 0.645715 8.89256 0.719146 8.7457 0.873283L3.10809 6.80495C2.85837 7.07685 2.8362 7.48107 3.07139 7.78242C3.26259 8.02489 3.60064 8.09104 3.88709 7.9809C5.66573 7.31204 7.94419 8.85548 7.96636 8.8704C8.13538 8.99543 8.35603 9.02488 8.55449 8.96598L8.59848 8.95144C8.77479 8.89255 8.92201 8.75296 8.99542 8.57667C9.31894 7.79005 9.81115 7.15064 10.436 6.70971C10.4433 6.70243 10.4582 6.70971 10.4655 6.71696L11.95 10.7374C8.77479 11.6781 6.21715 13.1481 5.96707 14.8312C4.32802 18.1976 4.3942 22.1591 6.16556 25.4592C7.67227 28.2744 10.2081 30.3398 13.3099 31.2878C14.2655 31.5819 15.2357 31.7509 16.2132 31.8097C18.4033 31.9421 20.5938 31.4863 22.5858 30.4722C25.467 28.9947 27.5763 26.5251 28.5465 23.4895C29.5095 20.4615 29.2227 17.2419 27.7087 14.4269H27.716V14.4266ZM10.6712 4.94527L10.5534 4.99687C9.53923 5.42327 8.66465 6.2168 8.0765 7.23861C8.06922 7.24589 8.06161 7.24588 8.05433 7.24588C7.48109 6.94454 6.53305 6.52578 5.49669 6.40073C5.48216 6.40073 5.47452 6.37856 5.48944 6.3713L9.51742 2.13028C9.51742 2.13028 9.5247 2.123 9.53231 2.123L15.2873 2.52722C15.2873 2.52722 15.3095 2.54178 15.3019 2.55667C14.6403 3.31384 14.2066 4.20298 13.9493 4.89401C13.9493 4.90127 13.9347 4.90855 13.9271 4.90127C12.9129 4.52649 11.8399 4.51923 10.8253 4.87912C10.7737 4.89365 10.7225 4.91582 10.6785 4.93799L10.6712 4.94527ZM23.8204 12.4349C23.8643 12.6996 23.4161 13.3757 21.9901 14.1329C21.6592 14.3092 21.2991 14.4782 20.9169 14.6327L22.1079 11.5458C23.2837 11.8104 23.7762 12.2074 23.8204 12.4353V12.4349ZM7.59158 15.0591C7.665 14.2434 10.48 12.4204 15.331 11.6119C17.1023 11.3179 18.8075 11.2077 20.2776 11.2961C20.3659 11.2961 20.4466 11.3106 20.5349 11.3182L18.9915 15.3092C18.0874 15.5738 17.11 15.8017 16.0881 15.9707C11.0536 16.8086 7.73117 15.9118 7.59884 15.1474V15.1034H7.59158V15.0591ZM26.7897 23.0264C25.9591 25.6506 24.1437 27.7967 21.6814 29.0681C19.2118 30.3398 16.3968 30.5895 13.7363 29.7738C11.0754 28.9581 8.90745 27.1644 7.61373 24.7316C6.31276 22.2768 6.08484 19.4175 6.93034 16.8155C7.84167 17.455 9.31168 17.8003 11.0318 17.9032C12.6635 17.9987 14.5229 17.881 16.3458 17.5724C18.8155 17.1609 21.0939 16.4404 22.7552 15.5585C23.99 14.897 24.7028 14.2576 25.0703 13.6694C25.4451 14.1398 25.7759 14.6542 26.0627 15.1834C27.3636 17.6309 27.6135 20.4092 26.7832 23.0333L26.7905 23.026L26.7897 23.0264Z" fill="black"/>
<path fill-rule="evenodd" clip-rule="evenodd" d="M7.59277 15.0588C7.66621 14.2431 10.4812 12.4201 15.3322 11.6117C17.1035 11.3176 18.8087 11.2074 20.2787 11.2958C20.3671 11.2958 20.4478 11.3106 20.5361 11.3179L18.9927 15.3089C18.0886 15.5735 17.1111 15.8014 16.0893 15.9704C11.0548 16.8083 7.73236 15.9116 7.60005 15.1471V15.1031H7.59277V15.0588Z" fill="white"/>
<path fill-rule="evenodd" clip-rule="evenodd" d="M23.8212 12.4343C23.8653 12.6989 23.4171 13.3751 21.9911 14.1323C21.6602 14.3085 21.3001 14.4776 20.918 14.6321L22.1089 11.5452C23.2847 11.8098 23.7773 12.2068 23.8212 12.4347V12.4343Z" fill="white"/>
</svg>
