<svg width="32" height="32" viewBox="0 0 32 32" fill="none" xmlns="http://www.w3.org/2000/svg">
<path d="M16 29.3333C23.3638 29.3333 29.3333 23.3638 29.3333 16C29.3333 8.63619 23.3638 2.66666 16 2.66666C8.63619 2.66666 2.66666 8.63619 2.66666 16C2.66666 23.3638 8.63619 29.3333 16 29.3333Z" fill="#40C1DF"/>
<path opacity="0.893" fill-rule="evenodd" clip-rule="evenodd" d="M14.1333 5.86667C14.3111 5.86667 14.4889 5.86667 14.6667 5.86667C16.178 6.71856 17.5114 7.82968 18.6667 9.2C20.8473 9.24555 22.9806 9.37888 25.0667 9.6C23.1091 9.55566 21.1536 9.60008 19.2 9.73334C20.8916 10.0338 22.5805 10.256 24.2667 10.4C22.753 10.3557 21.2419 10.4002 19.7333 10.5333C20.0869 11.1089 20.5313 11.5978 21.0667 12C21.2669 11.7664 21.4002 11.4997 21.4667 11.2C22.3079 12.79 22.7968 14.4789 22.9333 16.2667C22.9333 17.4222 22.9333 18.5778 22.9333 19.7333C23.2776 19.7966 23.5443 19.7077 23.7333 19.4667C23.9304 19.4317 24.1082 19.4762 24.2667 19.6C23.2411 21.6041 21.9078 23.3818 20.2667 24.9333C15.8699 27.3795 12.3588 26.4461 9.73335 22.1333C8.61295 19.5769 8.25737 16.9103 8.66668 14.1333C8.93335 14.4889 9.20001 14.8445 9.46668 15.2C10.037 13.5251 10.8815 12.0139 12 10.6667C10.5888 10.4014 9.16657 10.3125 7.73335 10.4C9.29241 10.2222 10.8924 10.0445 12.5333 9.86667C10.7644 9.60088 8.98663 9.512 7.20001 9.6C9.31332 9.44982 11.4467 9.2276 13.6 8.93334C14.6481 8.1472 14.8259 7.12499 14.1333 5.86667Z" fill="#111113"/>
<path fill-rule="evenodd" clip-rule="evenodd" d="M15.2 7.73334C15.216 7.58851 15.3049 7.49963 15.4667 7.46667C17.8985 9.14241 19.8096 11.2757 21.2 13.8667C21.2846 13.3865 21.4624 13.2976 21.7333 13.6C22.4423 15.8771 22.5757 18.1882 22.1333 20.5333C22.4139 20.4935 22.6805 20.5379 22.9333 20.6667C21.827 23.0177 20.0492 24.6177 17.6 25.4667C13.6799 25.9036 11.0576 24.2592 9.73334 20.5333C9.32158 19.1316 9.1438 17.7093 9.20001 16.2667C9.46668 16.6222 9.73334 16.9778 10 17.3333C10.3557 13.9527 11.8668 11.1972 14.5333 9.06667C14.6222 9.33334 14.7111 9.60001 14.8 9.86667C15.8257 9.33283 15.959 8.62171 15.2 7.73334Z" fill="#DFDFDF"/>
<path fill-rule="evenodd" clip-rule="evenodd" d="M15.7333 11.4667C16.2358 11.5232 16.5913 11.7898 16.8 12.2667C16.518 12.3749 16.1625 12.3749 15.7333 12.2667C15.7333 12 15.7333 11.7333 15.7333 11.4667Z" fill="#413E3E"/>
<path fill-rule="evenodd" clip-rule="evenodd" d="M12.8 13.6C12.9591 13.6627 13.048 13.7961 13.0667 14C12.9185 14.2696 12.7407 14.4918 12.5333 14.6667C12.4063 15.0844 12.2285 15.1733 12 14.9333C12.2026 14.4372 12.4693 13.9928 12.8 13.6Z" fill="#252323"/>
<path fill-rule="evenodd" clip-rule="evenodd" d="M19.2 13.6C19.6198 13.7166 19.931 13.9832 20.1333 14.4C20.2083 15.0413 20.0306 15.0413 19.6 14.4C19.5111 14.4889 19.4222 14.5778 19.3333 14.6667C19.2027 14.3218 19.1582 13.9662 19.2 13.6Z" fill="#242222"/>
<path fill-rule="evenodd" clip-rule="evenodd" d="M12.8 13.6C12.816 13.4552 12.9049 13.3663 13.0667 13.3333C13.3709 13.8457 13.4154 14.379 13.2 14.9333C13.0211 14.7327 12.7989 14.6438 12.5333 14.6667C12.7407 14.4919 12.9185 14.2696 13.0667 14C13.048 13.7961 12.9591 13.6627 12.8 13.6Z" fill="#706E6E"/>
<path fill-rule="evenodd" clip-rule="evenodd" d="M16 14.9333C16.4322 15.0098 16.6989 15.2765 16.8 15.7333C16.3647 15.6636 16.0537 15.9303 15.8667 16.5333C15.736 15.9879 15.7804 15.4545 16 14.9333Z" fill="#252323"/>
<path fill-rule="evenodd" clip-rule="evenodd" d="M15.4667 21.3333C15.634 19.1443 14.6563 18.2109 12.5333 18.5333C11.8602 19.0355 11.5046 19.7021 11.4667 20.5333C10.9663 19.2688 11.2329 18.1577 12.2667 17.2C13.9594 16.8694 15.0705 17.5361 15.6 19.2C15.8135 19.9645 15.7691 20.6756 15.4667 21.3333Z" fill="#B6B7B7"/>
<path fill-rule="evenodd" clip-rule="evenodd" d="M21.0667 20.8C20.9861 18.8981 20.0083 18.1426 18.1333 18.5333C17.7146 18.9058 17.3591 19.3058 17.0667 19.7333C17.2311 17.7465 18.2977 16.9021 20.2667 17.2C21.2807 18.262 21.5473 19.462 21.0667 20.8Z" fill="#BBBCBC"/>
<path fill-rule="evenodd" clip-rule="evenodd" d="M15.4667 21.3333C15.3637 22.3693 14.786 22.9026 13.7333 22.9333C12.3903 22.7011 11.6348 21.9011 11.4667 20.5333C11.5046 19.7021 11.8602 19.0355 12.5333 18.5333C14.6562 18.2109 15.634 19.1443 15.4667 21.3333Z" fill="#0E0B0C"/>
<path fill-rule="evenodd" clip-rule="evenodd" d="M21.0667 20.8C20.6975 22.3703 19.7197 23.037 18.1333 22.8C17.6445 22.6667 17.3333 22.3555 17.2 21.8667C17.0674 21.1611 17.0229 20.4499 17.0667 19.7333C17.359 19.3058 17.7146 18.9058 18.1333 18.5333C20.0083 18.1426 20.9861 18.8982 21.0667 20.8Z" fill="#0F0B0C"/>
<path fill-rule="evenodd" clip-rule="evenodd" d="M22.9333 16.2667C23.0318 17.4047 23.2985 18.4713 23.7333 19.4667C23.5443 19.7077 23.2776 19.7966 22.9333 19.7333C22.9333 18.5778 22.9333 17.4222 22.9333 16.2667Z" fill="#26505D"/>
<path fill-rule="evenodd" clip-rule="evenodd" d="M13.6 20.5333C14.4 20.4444 14.7556 20.8 14.6667 21.6C14.3111 21.6 13.9556 21.6 13.6 21.6C13.6 21.2444 13.6 20.8889 13.6 20.5333Z" fill="#4CAAC6"/>
<path fill-rule="evenodd" clip-rule="evenodd" d="M18.1333 20.5333C18.8443 20.4176 19.1554 20.6842 19.0667 21.3333C18.1076 21.751 17.7965 21.4843 18.1333 20.5333Z" fill="#4AA5C0"/>
</svg>
