<svg width="32" height="32" viewBox="0 0 32 32" fill="none" xmlns="http://www.w3.org/2000/svg">
<g clip-path="url(#clip0_2_230)">
<mask id="mask0_2_230" style="mask-type:luminance" maskUnits="userSpaceOnUse" x="0" y="0" width="32" height="32">
<path d="M32 0H0V32H32V0Z" fill="white"/>
</mask>
<g mask="url(#mask0_2_230)">
<mask id="mask1_2_230" style="mask-type:luminance" maskUnits="userSpaceOnUse" x="0" y="3" width="32" height="26">
<path d="M32 3.82605H0.347778V28.5217H32V3.82605Z" fill="white"/>
</mask>
<g mask="url(#mask1_2_230)">
<path fill-rule="evenodd" clip-rule="evenodd" d="M7.47814 6.43468C10.9733 5.87729 13.698 7.03669 15.6521 9.91294C15.9236 10.4151 15.8656 10.8788 15.4782 11.3042C14.7346 11.5627 13.981 11.7946 13.2173 11.9999C12.1132 9.73638 10.3161 8.86682 7.82597 9.3912C6.84047 9.91294 6.08684 10.6666 5.5651 11.6521C4.4907 14.8179 5.01244 17.6585 7.13032 20.1738C10.1125 21.2335 12.0835 20.248 13.0434 17.2173C13.9327 17.5327 14.8022 17.8805 15.6521 18.2608C15.5493 20.4856 14.4479 22.0508 12.3477 22.9564C7.29199 24.4945 3.87171 22.8133 2.08684 17.9129C0.735301 12.4873 2.53241 8.66118 7.47814 6.43468Z" fill="#82A1D6"/>
<path opacity="0.919" fill-rule="evenodd" clip-rule="evenodd" d="M17.739 7.6521C18.4347 7.6521 19.1303 7.6521 19.826 7.6521C19.7683 9.39509 19.8262 11.1342 19.9999 12.8695C22.2715 11.3755 24.3585 11.6074 26.2608 13.5651C27.4201 16.3477 27.4201 19.1303 26.2608 21.9129C25.659 22.5745 25.0215 23.1542 24.3477 23.6521C23.4201 23.6521 22.4928 23.6521 21.5651 23.6521C21.0116 23.402 20.4899 23.0542 19.9999 22.6086C19.3897 23.2173 18.6361 23.4492 17.739 23.3042C17.739 18.0868 17.739 12.8695 17.739 7.6521ZM21.2173 13.9129C23.1328 13.4278 24.3502 14.1235 24.8695 15.9999C25.1446 17.5392 25.0284 19.0465 24.5216 20.5216C23.0145 22.3767 21.507 22.3767 19.9999 20.5216C19.768 18.7825 19.768 17.0434 19.9999 15.3042C20.2398 14.6607 20.6456 14.1969 21.2173 13.9129Z" fill="#7E9ED5"/>
</g>
</g>
</g>
<defs>
<clipPath id="clip0_2_230">
<rect width="32" height="32" fill="white"/>
</clipPath>
</defs>
</svg>
