<svg width="32" height="32" viewBox="0 0 32 32" fill="none" xmlns="http://www.w3.org/2000/svg">
<path opacity="0.997" fill-rule="evenodd" clip-rule="evenodd" d="M17.7143 4.65662C18.4719 5.86729 19.0433 7.16252 19.4286 8.54233C19.4183 8.84544 19.4944 9.1121 19.6572 9.34233C20.1035 10.7209 20.2939 12.1495 20.2286 13.6281C20.2675 14.8819 20.1532 16.12 19.8857 17.3424C19.69 17.4721 19.6137 17.6626 19.6572 17.9138C19.0814 20.246 18.0528 22.3412 16.5715 24.1995C16.4191 24.1615 16.2667 24.1233 16.1143 24.0852C13.4204 22.0109 12.1823 19.2681 12.4 15.8567C12.5981 15.072 12.8648 14.3101 13.2 13.5709C14.6284 10.6381 16.0569 7.70475 17.4857 4.7709C17.562 4.73281 17.6381 4.69471 17.7143 4.65662Z" fill="#39CF68"/>
<path opacity="0.592" fill-rule="evenodd" clip-rule="evenodd" d="M19.4285 8.54236C19.5913 8.77259 19.6674 9.03925 19.6571 9.34236C19.4944 9.11213 19.4182 8.84547 19.4285 8.54236Z" fill="#9AE6AF"/>
<path opacity="0.994" fill-rule="evenodd" clip-rule="evenodd" d="M4.22855 15.2851C4.21871 15.0363 4.14251 14.8078 3.99998 14.5994C4.1442 14.2649 4.33468 13.9602 4.5714 13.6851C4.54748 13.6182 4.50939 13.561 4.45712 13.5137C4.2362 13.485 4.02668 13.4279 3.82855 13.3423C3.75886 13.6305 3.60648 13.8591 3.3714 14.028C3.26687 13.9334 3.19067 13.8191 3.14283 13.6851C3.10007 13.7898 3.04292 13.8851 2.9714 13.9709C3.4025 14.1296 3.4025 14.2439 2.9714 14.3137C2.84106 14.3984 2.84106 14.4937 2.9714 14.5994C2.81903 14.7518 2.66664 14.7518 2.51426 14.5994C2.59046 14.5614 2.66664 14.5232 2.74283 14.4851C2.6811 14.3425 2.6049 14.2091 2.51426 14.0851C2.59046 14.0471 2.66664 14.0089 2.74283 13.9709C2.34291 13.9527 1.96195 13.9337 1.59998 13.9137C1.79169 13.3769 2.09646 12.9198 2.51426 12.5423C2.67498 12.4882 2.75118 12.3739 2.74283 12.1994C5.04994 9.68411 7.90708 8.67459 11.3143 9.1709C12.1211 9.40817 12.9211 9.65579 13.7143 9.91376C13.4307 10.8245 13.0498 11.7007 12.5714 12.5423C12.4952 12.5803 12.4191 12.6185 12.3428 12.6566C8.92615 11.4083 6.22138 12.2845 4.22855 15.2851Z" fill="#40D06C"/>
<path opacity="0.204" fill-rule="evenodd" clip-rule="evenodd" d="M2.74286 12.1996C2.7512 12.3741 2.67501 12.4884 2.51429 12.5424C2.50595 12.3679 2.58214 12.2536 2.74286 12.1996Z" fill="#ADEBBE"/>
<path opacity="0.993" fill-rule="evenodd" clip-rule="evenodd" d="M11.5429 13.6852C11.6814 13.9481 11.6814 14.2148 11.5429 14.4852C11.3614 14.9815 11.1328 15.4577 10.8571 15.9137C9.35732 15.4828 8.21446 15.9399 7.42857 17.2852C7.46666 17.3043 7.50477 17.3232 7.54286 17.3423C8.09043 17.1007 8.66186 16.9483 9.25714 16.8852C9.45856 16.9015 9.64904 16.8633 9.82857 16.7709C9.81404 17.0013 9.89023 17.2299 10.0571 17.4566C9.86632 18.0096 9.59966 18.5239 9.25714 18.9995C8.88194 19.1164 8.50098 19.2117 8.11429 19.2852C7.89467 19.2508 7.70419 19.1747 7.54286 19.0566C7.536 18.9945 7.49791 18.9565 7.42857 18.9423C7.28305 19.0288 7.28305 19.1049 7.42857 19.1709C7.68451 19.7317 8.06548 20.1888 8.57143 20.5423C8.24317 21.218 7.90031 21.8846 7.54286 22.5423C7.21875 22.5326 6.95208 22.3993 6.74286 22.1423C6.6189 21.9038 6.42843 21.7515 6.17143 21.6852C4.40593 19.6261 4.27259 17.4547 5.77143 15.1709C7.36614 13.396 9.28994 12.9008 11.5429 13.6852Z" fill="#41D16C"/>
<path opacity="0.994" fill-rule="evenodd" clip-rule="evenodd" d="M4.22855 15.2853C2.76821 18.8382 3.64441 21.6382 6.85713 23.6853C8.87041 24.5636 10.8514 24.5064 12.8 23.5138C12.9905 23.5138 13.1809 23.5138 13.3714 23.5138C13.8666 23.8186 14.3619 24.1233 14.8571 24.4281C14.8938 24.605 15.0081 24.6813 15.2 24.6567C15.6523 24.8145 15.7284 25.0622 15.4286 25.3996C11.8114 27.9336 8.11612 28.0479 4.34284 25.7424C2.28457 24.2333 1.02742 22.2333 0.571411 19.7424C0.571411 18.7519 0.571411 17.7615 0.571411 16.771C0.754727 15.7641 1.09758 14.8117 1.59998 13.9138C1.96196 13.9338 2.34292 13.9528 2.74284 13.971C2.66665 14.009 2.59046 14.0472 2.51427 14.0853C2.60491 14.2093 2.6811 14.3426 2.74284 14.4853C2.66665 14.5233 2.59046 14.5615 2.51427 14.5996C2.66665 14.7519 2.81903 14.7519 2.97141 14.5996C2.84107 14.4938 2.84107 14.3985 2.97141 14.3138C3.40251 14.244 3.40251 14.1297 2.97141 13.971C3.04293 13.8853 3.10007 13.79 3.14284 13.6853C3.19068 13.8192 3.26687 13.9335 3.37141 14.0281C3.60649 13.8592 3.75886 13.6306 3.82855 13.3424C4.02669 13.428 4.23621 13.4852 4.45713 13.5138C4.5094 13.5612 4.54749 13.6183 4.57141 13.6853C4.33469 13.9604 4.14421 14.265 3.99998 14.5996C4.14252 14.8079 4.21871 15.0365 4.22855 15.2853Z" fill="#3ED06B"/>
<path opacity="0.94" fill-rule="evenodd" clip-rule="evenodd" d="M11.5428 13.6853C11.9206 13.9062 11.9206 14.173 11.5428 14.4853C11.6814 14.2149 11.6814 13.9483 11.5428 13.6853Z" fill="#83DF97"/>
<path opacity="0.016" fill-rule="evenodd" clip-rule="evenodd" d="M10.0571 16.6565C10.1952 16.51 10.3476 16.51 10.5143 16.6565C10.5001 16.7259 10.4621 16.7639 10.4 16.7708C10.319 16.6675 10.2047 16.6294 10.0571 16.6565Z" fill="#BDEECD"/>
<path opacity="0.977" fill-rule="evenodd" clip-rule="evenodd" d="M10.0572 16.6566C10.2047 16.6296 10.319 16.6676 10.4001 16.7709C10.3438 17.036 10.2295 17.2645 10.0572 17.4566C9.89029 17.2299 9.81409 17.0013 9.82863 16.7709C9.6491 16.8634 9.45862 16.9016 9.2572 16.8852C9.48743 16.7225 9.75409 16.6464 10.0572 16.6566Z" fill="#70DB8B"/>
<path opacity="0.337" fill-rule="evenodd" clip-rule="evenodd" d="M19.8857 17.3424C19.8518 17.5599 19.7756 17.7504 19.6571 17.9138C19.6137 17.6626 19.6899 17.4721 19.8857 17.3424Z" fill="#AAEABC"/>
<path opacity="0.039" fill-rule="evenodd" clip-rule="evenodd" d="M7.54288 19.0567C7.46669 19.0567 7.4286 19.0947 7.4286 19.171C7.28308 19.105 7.28308 19.0289 7.4286 18.9424C7.49794 18.9566 7.53603 18.9946 7.54288 19.0567Z" fill="#D0F3DB"/>
<path opacity="0.995" fill-rule="evenodd" clip-rule="evenodd" d="M25.8285 21.9138C25.8412 21.9843 25.8793 22.0414 25.9428 22.0852C26.3231 22.1549 26.7041 22.2121 27.0857 22.2566C28.5221 22.6729 29.9698 23.0539 31.4285 23.3995C31.4285 23.5138 31.4285 23.6281 31.4285 23.7423C30.8361 24.2481 30.1884 24.667 29.4857 24.9995C29.2012 24.9699 29.0107 25.0842 28.9143 25.3423C26.3128 26.7097 23.5699 27.0525 20.6857 26.3709C20.5026 26.191 20.274 26.1148 20 26.1423C19.0996 25.9114 18.2425 25.5685 17.4285 25.1138C17.3691 24.9093 17.4072 24.7188 17.5428 24.5423C17.8018 24.1375 18.0875 23.7566 18.4 23.3995C18.7048 23.3233 18.8952 23.1329 18.9714 22.8281C19.1237 22.7138 19.2762 22.5995 19.4285 22.4852C19.603 22.4935 19.7173 22.4173 19.7714 22.2566C21.1779 21.1839 22.7397 20.8982 24.4571 21.3995C24.9268 21.5726 25.384 21.7441 25.8285 21.9138Z" fill="#3DD06A"/>
<path opacity="0.569" fill-rule="evenodd" clip-rule="evenodd" d="M6.17139 21.6853C6.42839 21.7516 6.61886 21.9039 6.74282 22.1424C6.48581 22.0762 6.29534 21.9238 6.17139 21.6853Z" fill="#9EE7B0"/>
<path opacity="0.961" fill-rule="evenodd" clip-rule="evenodd" d="M25.8286 21.9138C26.2834 21.9415 26.7024 22.0558 27.0858 22.2567C26.7042 22.2121 26.3231 22.155 25.9429 22.0852C25.8794 22.0415 25.8413 21.9843 25.8286 21.9138Z" fill="#83E09B"/>
<path opacity="0.447" fill-rule="evenodd" clip-rule="evenodd" d="M19.7714 22.2567C19.7174 22.4174 19.6031 22.4936 19.4286 22.4853C19.4826 22.3246 19.5969 22.2484 19.7714 22.2567Z" fill="#A1E8B5"/>
<path opacity="0.361" fill-rule="evenodd" clip-rule="evenodd" d="M18.9715 22.8281C18.8952 23.1329 18.7048 23.3233 18.4 23.3996C18.5524 23.171 18.7429 22.9805 18.9715 22.8281Z" fill="#A0E8B3"/>
<path opacity="0.584" fill-rule="evenodd" clip-rule="evenodd" d="M13.3715 23.5138C13.181 23.5138 12.9906 23.5138 12.8 23.5138C12.9906 23.209 13.181 23.209 13.3715 23.5138Z" fill="#A5E9B7"/>
<path opacity="0.157" fill-rule="evenodd" clip-rule="evenodd" d="M16.1143 24.0852C16.2666 24.1233 16.4191 24.1614 16.5714 24.1995C16.3853 24.3541 16.2329 24.3159 16.1143 24.0852Z" fill="#A2E8B6"/>
<path opacity="0.616" fill-rule="evenodd" clip-rule="evenodd" d="M14.8572 24.4281C14.9955 24.4775 15.1097 24.5537 15.2 24.6567C15.0081 24.6812 14.8939 24.605 14.8572 24.4281Z" fill="#A9EAB9"/>
<path opacity="0.851" fill-rule="evenodd" clip-rule="evenodd" d="M29.4857 24.9996C29.3258 25.1584 29.1353 25.2727 28.9143 25.3424C29.0108 25.0842 29.2013 24.97 29.4857 24.9996Z" fill="#8DE2A1"/>
<path opacity="0.545" fill-rule="evenodd" clip-rule="evenodd" d="M20 26.1423C20.2741 26.1148 20.5026 26.191 20.6857 26.3709C20.4245 26.36 20.1959 26.2838 20 26.1423Z" fill="#AFEBBF"/>
</svg>
