<svg width="32" height="32" viewBox="0 0 32 32" fill="none" xmlns="http://www.w3.org/2000/svg">
<path d="M15.7709 5.54804C15.1899 5.54863 14.6195 5.70321 14.1178 5.99604L10.7174 7.96148V5.72468L14.679 3.43732C15.0137 3.24326 15.3943 3.14269 15.7811 3.14612C16.1673 3.14773 16.5466 3.24796 16.8832 3.43732L28.3392 10.0504V8.65716L17.4246 2.36723C16.9228 2.07434 16.3522 1.92 15.7712 1.92C15.1902 1.92 14.6196 2.07434 14.1178 2.36723L9.5008 5.029V17.621C9.50262 18.2019 9.65611 18.7722 9.94605 19.2755C10.236 19.7789 10.6524 20.1978 11.1539 20.4908L14.5542 22.4562L12.6202 23.5685L8.65856 21.2812C8.32533 21.0871 8.04843 20.8096 7.85517 20.476C7.66191 20.1423 7.55896 19.764 7.55648 19.3784V6.15092L6.35072 6.84723V19.4392C6.35255 20.0201 6.50603 20.5904 6.79597 21.0938C7.08592 21.5971 7.50228 22.016 8.00384 22.309L11.4042 24.2744L9.47008 25.3868L5.50848 23.0994C5.17526 22.9054 4.89836 22.6279 4.70509 22.2942C4.51183 21.9605 4.40888 21.5823 4.4064 21.1967V7.97108L3.2 8.6674V21.2594C3.20182 21.8403 3.35531 22.4106 3.64525 22.9139C3.9352 23.4173 4.35156 23.8362 4.85312 24.1292L9.47008 26.7909L20.3674 20.5004C20.8698 20.2083 21.2869 19.7897 21.5769 19.2861C21.867 18.7825 22.0199 18.2117 22.0205 17.6306V13.7004L23.9546 14.8127V19.388C23.9534 19.7739 23.8509 20.1527 23.6576 20.4865C23.4642 20.8204 23.1866 21.0977 22.8525 21.2908L11.392 27.9032L12.5984 28.6002L23.5264 22.2988C24.0288 22.0067 24.4459 21.5881 24.736 21.0845C25.026 20.5809 25.179 20.0101 25.1795 19.429V15.4988L27.1136 16.6111V21.1864C27.1124 21.5723 27.01 21.9511 26.8166 22.2849C26.6232 22.6188 26.3456 22.8961 26.0115 23.0892L14.5555 29.7023L15.7619 30.3992L26.6592 24.1087C27.1616 23.8167 27.5787 23.398 27.8688 22.8944C28.1588 22.3909 28.3118 21.82 28.3123 21.2389V15.9154L17.415 9.62484C16.9133 9.33206 16.3428 9.17779 15.7619 9.17779C15.181 9.17779 14.6105 9.33206 14.1088 9.62484L10.7085 11.5903V9.35347L14.6701 7.06612C15.0047 6.87206 15.3853 6.77149 15.7722 6.77492C16.1583 6.77653 16.5377 6.87676 16.8742 7.06612L28.3302 13.6792V12.2872L17.433 5.99668C16.9274 5.70502 16.3545 5.55038 15.7709 5.54804ZM14.6688 10.7052C15.0034 10.5111 15.3841 10.4105 15.7709 10.414C16.157 10.4156 16.5364 10.5158 16.873 10.7052L20.8346 12.9925V17.5679C20.8334 17.9537 20.7309 18.3325 20.5376 18.6664C20.3442 19.0003 20.0666 19.2776 19.7325 19.4706L15.7709 21.7592L11.8093 19.4719C11.4761 19.2779 11.1992 19.0003 11.0059 18.6667C10.8126 18.333 10.7097 17.9547 10.7072 17.5692V12.9912L14.6688 10.7052Z" fill="#ED244E"/>
</svg>
