<svg width="32" height="32" viewBox="0 0 32 32" fill="none" xmlns="http://www.w3.org/2000/svg">
<path opacity="0.931" fill-rule="evenodd" clip-rule="evenodd" d="M18.208 3.61607C18.3269 3.69631 18.4549 3.69631 18.592 3.61607C18.7273 3.65024 18.8447 3.71424 18.944 3.80807C18.9654 3.7654 18.9867 3.72274 19.008 3.68007C19.1626 3.80631 19.3119 3.89164 19.456 3.93607C19.5897 3.92039 19.7177 3.92039 19.84 3.93607C19.8578 3.99468 19.8898 4.03735 19.936 4.06407C19.9881 4.13785 20.0521 4.13785 20.128 4.06407C20.1906 4.09458 20.2439 4.13724 20.288 4.19207C20.3531 4.11949 20.3958 4.14082 20.416 4.25607C20.6308 4.25081 20.8228 4.33614 20.992 4.51207C21.0185 4.4828 21.0505 4.46147 21.088 4.44807C21.2558 4.51722 21.3945 4.62389 21.504 4.76807C21.5254 4.74674 21.5467 4.7254 21.568 4.70407C22.8084 5.35232 23.9284 6.20565 24.928 7.26407C24.8427 7.28538 24.8427 7.30676 24.928 7.32807C25.7158 8.0802 26.3558 8.9762 26.848 10.0161C26.7627 10.0374 26.7627 10.0588 26.848 10.0801C27.0118 10.2365 27.0972 10.4072 27.104 10.5921C27.3382 10.8806 27.4448 11.1793 27.424 11.4881C27.5131 11.463 27.5771 11.5164 27.616 11.6481C27.5734 11.6694 27.5307 11.6908 27.488 11.7121C27.5953 11.7874 27.6806 11.8834 27.744 12.0001C27.8538 11.994 27.9604 11.9727 28.064 11.9361C28.1057 11.8982 28.1484 11.8556 28.192 11.8081C28.2357 11.8556 28.2784 11.8982 28.32 11.9361C28.6176 11.9468 28.8736 12.0854 29.088 12.3521C29.0667 12.3734 29.0454 12.3948 29.024 12.4161C29.1635 12.4444 29.2061 12.5084 29.152 12.6081C29.2107 12.632 29.264 12.664 29.312 12.7041C29.399 12.8885 29.495 13.0698 29.6 13.2481C29.6324 13.387 29.6324 13.5363 29.6 13.6961C29.6285 13.8088 29.6605 13.7982 29.696 13.6641C29.7174 13.7281 29.7387 13.7921 29.76 13.8561C29.7915 14.9997 29.8022 16.1304 29.792 17.2481C29.7392 17.3048 29.6752 17.3261 29.6 17.3121C29.6398 17.6432 29.5758 17.9632 29.408 18.2721C29.3031 18.4394 29.1858 18.6314 29.056 18.8481C28.8579 19.0446 28.6233 19.1939 28.352 19.2961C28.2165 19.2515 28.0779 19.2408 27.936 19.2641C27.8827 19.2108 27.8294 19.1574 27.776 19.1041C27.7183 19.1809 27.6436 19.2343 27.552 19.2641C27.6223 19.3903 27.6116 19.529 27.52 19.6801C27.4134 19.6263 27.4027 19.6583 27.488 19.7761C27.4151 19.89 27.3511 20.0074 27.296 20.1281C27.2107 20.1494 27.2107 20.1708 27.296 20.1921C27.2291 20.3179 27.1651 20.4459 27.104 20.5761C27.0187 20.5974 27.0187 20.6188 27.104 20.6401C27.067 20.8213 26.9817 20.9706 26.848 21.0881C26.7627 21.1094 26.7627 21.1308 26.848 21.1521C26.3341 22.2196 25.6514 23.1583 24.8 23.9681C24.736 23.9894 24.6934 24.0321 24.672 24.0961C24.6294 24.0961 24.608 24.1174 24.608 24.1601C24.5654 24.1601 24.544 24.1814 24.544 24.2241C24.5014 24.2241 24.48 24.2454 24.48 24.2881C24.4374 24.2881 24.416 24.3094 24.416 24.3521C24.3734 24.3521 24.352 24.3734 24.352 24.4161C23.997 24.8152 23.6236 25.1566 23.232 25.4401C23.2107 25.4188 23.1894 25.3974 23.168 25.3761C23.1398 25.5155 23.0758 25.5582 22.976 25.5041C22.8627 25.7582 22.7134 25.8648 22.528 25.8241C22.3209 26.0245 22.0863 26.1951 21.824 26.3361C21.708 26.2651 21.6547 26.3078 21.664 26.4641C21.3782 26.5668 21.1009 26.6948 20.832 26.8481C20.7945 26.8347 20.7625 26.8133 20.736 26.7841C20.6016 26.8752 20.463 26.9606 20.32 27.0401C20.2825 27.0267 20.2505 27.0053 20.224 26.9761C20.1224 27.1238 19.9944 27.1665 19.84 27.1041C19.7741 27.2497 19.6781 27.2924 19.552 27.2321C19.3742 27.3674 19.1822 27.4101 18.976 27.3601C18.8995 27.3822 18.8995 27.4142 18.976 27.4561C18.8518 27.5036 18.7345 27.4929 18.624 27.4241C18.4249 27.5974 18.2009 27.6508 17.952 27.5841C17.9947 27.6054 18.0374 27.6268 18.08 27.6481C17.869 27.913 17.613 28.1157 17.312 28.2561C17.2907 28.1708 17.2694 28.1708 17.248 28.2561C17.1573 28.3588 17.0399 28.4228 16.896 28.4481C16.2873 28.4472 15.6793 28.4472 15.072 28.4481C14.9367 28.4139 14.8194 28.3499 14.72 28.2561C14.6987 28.2774 14.6774 28.2988 14.656 28.3201C14.5191 28.2415 14.4124 28.1348 14.336 28.0001C14.3147 28.0214 14.2934 28.0428 14.272 28.0641C13.8841 27.7511 13.7775 27.3458 13.952 26.8481C14.0423 26.7657 14.1383 26.691 14.24 26.6241C14.2187 26.6028 14.1974 26.5814 14.176 26.5601C14.3485 26.4099 14.5405 26.2926 14.752 26.2081C14.7559 26.2428 14.7772 26.2641 14.816 26.2721C14.9455 26.1327 15.1055 26.0473 15.296 26.0161C15.744 26.1014 16.192 26.1014 16.64 26.0161C16.8275 26.0422 16.9768 26.1276 17.088 26.2721C17.1094 26.2294 17.1307 26.1868 17.152 26.1441C17.227 26.2332 17.323 26.2866 17.44 26.3041C17.4801 26.3521 17.5121 26.4054 17.536 26.4641C17.5574 26.4428 17.5787 26.4214 17.6 26.4001C17.6777 26.4992 17.7737 26.5738 17.888 26.6241C17.754 26.6597 17.7433 26.6917 17.856 26.7201C18.1419 26.5285 18.4512 26.4645 18.784 26.5281C18.8672 26.4903 18.9205 26.4263 18.944 26.3361C18.9654 26.3788 18.9867 26.4214 19.008 26.4641C19.3203 26.2705 19.651 26.1212 20 26.0161C22.0283 25.3029 23.7457 23.9589 25.152 21.9841C25.2297 21.8849 25.3257 21.8103 25.44 21.7601C25.44 21.6961 25.44 21.6321 25.44 21.5681C25.5073 21.4794 25.5926 21.4154 25.696 21.3761C25.6534 21.3548 25.6107 21.3334 25.568 21.3121C25.8188 20.9388 26.0534 20.5548 26.272 20.1601C26.2428 20.1336 26.2214 20.1016 26.208 20.0641C26.3078 19.8956 26.4145 19.7356 26.528 19.5841C26.4988 19.5576 26.4774 19.5256 26.464 19.4881C26.5285 19.2573 26.6352 19.0546 26.784 18.8801C26.769 18.8242 26.7476 18.7708 26.72 18.7201C26.7905 18.4266 26.8972 18.1493 27.04 17.8881C26.9388 17.7366 26.9601 17.6086 27.104 17.5041C27.0116 17.2567 27.0329 17.022 27.168 16.8001C27.1702 16.1278 27.1915 15.4451 27.232 14.7521C27.2214 14.6028 27.2107 14.4534 27.2 14.3041C27.1787 14.4961 27.1574 14.6881 27.136 14.8801C27.1212 14.6206 27.0892 14.3646 27.04 14.1121C27.0387 13.9775 27.0601 13.8389 27.104 13.6961C26.9981 13.6037 26.9554 13.4863 26.976 13.3441C27.0143 13.329 27.0356 13.297 27.04 13.2481C26.8818 12.9803 26.7751 12.6923 26.72 12.3841C26.7583 12.369 26.7796 12.337 26.784 12.2881C26.6477 12.1043 26.541 11.9016 26.464 11.6801C26.4774 11.6426 26.4988 11.6106 26.528 11.5841C26.3708 11.41 26.2855 11.2286 26.272 11.0401C25.983 10.4552 25.6416 9.86855 25.248 9.28007C25.2694 9.25876 25.2907 9.23739 25.312 9.21607C25.0914 9.05159 24.8994 8.85959 24.736 8.64007C24.7574 8.61876 24.7787 8.59738 24.8 8.57607C24.6606 8.54778 24.618 8.48378 24.672 8.38407C24.3827 8.2034 24.1801 7.9794 24.064 7.71207C24.0427 7.73338 24.0214 7.75476 24 7.77607C23.8448 7.62746 23.7382 7.47815 23.68 7.32807C23.6587 7.34938 23.6374 7.37076 23.616 7.39207C23.4624 7.24942 23.3238 7.10004 23.2 6.94407C23.1787 6.85876 23.1574 6.85876 23.136 6.94407C22.762 6.66657 22.378 6.39989 21.984 6.14407C21.9072 6.08631 21.8538 6.01164 21.824 5.92007C21.6207 5.93487 21.4287 5.8282 21.248 5.60007C21.2215 5.62935 21.1895 5.65068 21.152 5.66407C20.7258 5.39822 20.2992 5.18489 19.872 5.02407C19.8294 4.93874 19.7867 4.93874 19.744 5.02407C19.5783 4.99731 19.429 4.93331 19.296 4.83207C19.2102 4.92182 19.1568 4.90048 19.136 4.76807C19.1095 4.79735 19.0775 4.81868 19.04 4.83207C18.7605 4.73058 18.5045 4.64525 18.272 4.57607C18.1774 4.51166 18.0707 4.51166 17.952 4.57607C17.8786 4.55573 17.8253 4.51307 17.792 4.44807C17.6175 4.49212 17.4468 4.51345 17.28 4.51207C17.1967 4.48146 17.122 4.43879 17.056 4.38407C16.352 4.29874 15.648 4.29874 14.944 4.38407C14.842 4.41092 14.746 4.45359 14.656 4.51207C14.5956 4.48613 14.5529 4.44346 14.528 4.38407C14.4212 4.52476 14.2932 4.5461 14.144 4.44807C14.0769 4.5509 13.9809 4.59356 13.856 4.57607C13.792 4.49074 13.728 4.49074 13.664 4.57607C13.4966 4.66848 13.3153 4.73248 13.12 4.76807C13.0706 4.75881 13.0279 4.73747 12.992 4.70407C12.9188 4.85877 12.8122 4.90144 12.672 4.83207C12.4946 4.92336 12.3132 5.00869 12.128 5.08807C12.0854 5.06674 12.0427 5.0454 12 5.02407C11.9154 5.16375 11.8087 5.20642 11.68 5.15207C11.7051 5.24106 11.6518 5.30506 11.52 5.34407C11.4987 5.32274 11.4774 5.3014 11.456 5.28007C10.7583 5.69845 10.0436 6.09312 9.31204 6.46407C9.3859 6.52257 9.37521 6.57588 9.28004 6.62407C9.25873 6.60276 9.23736 6.58138 9.21604 6.56007C9.097 6.73748 8.94763 6.88679 8.76804 7.00807C8.74673 6.98676 8.72536 6.96538 8.70404 6.94407C8.6588 7.04526 8.60548 7.14126 8.54404 7.23207C8.278 7.39233 8.07531 7.57364 7.93604 7.77607C7.87755 7.70222 7.82424 7.7129 7.77604 7.80807C7.79736 7.82938 7.81873 7.85076 7.84004 7.87207C7.57329 8.12148 7.35998 8.37748 7.20004 8.64007C7.13278 8.72871 7.04747 8.79271 6.94404 8.83207C6.96536 8.85339 6.98673 8.87476 7.00804 8.89607C6.61348 9.3906 6.25085 9.9346 5.92004 10.5281C5.83471 10.5494 5.83471 10.5708 5.92004 10.5921C5.81181 10.7941 5.73714 10.9861 5.69604 11.1681C5.64271 11.2641 5.56804 11.3388 5.47204 11.3921C5.51471 11.4134 5.55737 11.4348 5.60004 11.4561C5.51471 11.6054 5.42937 11.7548 5.34404 11.9041C5.39518 12.016 5.35252 12.1013 5.21604 12.1601C5.25683 12.3607 5.21416 12.5527 5.08804 12.7361C5.13773 12.8494 5.12706 12.9667 5.05604 13.0881C5.03471 13.0454 5.01337 13.0028 4.99204 12.9601C5.06571 13.2309 5.01238 13.4763 4.83204 13.6961C4.98932 13.7928 4.98932 13.8782 4.83204 13.9521C4.88357 14.3417 4.8409 14.7257 4.70404 15.1041C4.78752 15.4129 4.78752 15.7222 4.70404 16.0321C4.84701 16.3176 4.86834 16.6162 4.76804 16.9281C4.77871 16.9708 4.78937 17.0134 4.80004 17.0561C4.82137 16.9921 4.84271 16.9281 4.86404 16.8641C4.91159 16.9883 4.90092 17.1056 4.83204 17.2161C4.87471 17.2588 4.91737 17.3014 4.96004 17.3441C4.90065 17.3689 4.85799 17.4116 4.83204 17.4721C4.99328 17.7121 4.99328 17.9468 4.83204 18.1761C4.89947 18.2649 4.91014 18.3609 4.86404 18.4641C4.60347 18.8558 4.28347 19.1331 3.90404 19.2961C3.76852 19.2515 3.62985 19.2408 3.48804 19.2641C3.31934 19.1975 3.14868 19.1015 2.97604 18.9761C2.80466 18.7519 2.65532 18.5065 2.52804 18.2401C2.54937 18.2188 2.57071 18.1974 2.59204 18.1761C2.48263 18.0534 2.3973 17.9148 2.33604 17.7601C2.35959 17.6129 2.35959 17.4742 2.33604 17.3441C2.225 17.2684 2.161 17.1617 2.14404 17.0241C2.14539 16.0637 2.14539 15.1037 2.14404 14.1441C2.17963 13.9488 2.24363 13.7675 2.33604 13.6001C2.42137 13.5574 2.42137 13.5148 2.33604 13.4721C2.341 13.3921 2.38366 13.3388 2.46404 13.3121C2.39064 13.1786 2.4333 13.0826 2.59204 13.0241C2.55398 12.8538 2.61798 12.7151 2.78404 12.6081C2.76271 12.5868 2.74137 12.5654 2.72004 12.5441C2.95839 12.2026 3.25705 11.9999 3.61604 11.9361C3.71712 11.7987 3.84512 11.7881 4.00004 11.9041C3.95737 11.9254 3.91471 11.9468 3.87204 11.9681C3.95421 12.0118 4.02888 12.0012 4.09604 11.9361C4.14029 12.0891 4.20429 12.0891 4.28804 11.9361C5.53064 8.29927 7.88798 5.73927 11.36 4.25607C11.3975 4.26947 11.4295 4.2908 11.456 4.32007C11.595 4.16306 11.755 4.09906 11.936 4.12807C12.0126 4.10595 12.0126 4.07395 11.936 4.03207C12.0316 3.94451 12.1276 3.93385 12.224 4.00007C12.37 3.86639 12.53 3.82373 12.704 3.87207C12.7806 3.84995 12.7806 3.81795 12.704 3.77607C12.8072 3.72997 12.9032 3.74064 12.992 3.80807C13.2102 3.62139 13.4555 3.56806 13.728 3.64807C13.4922 3.58954 13.5135 3.54688 13.792 3.52007C15.1322 3.49246 16.4762 3.48179 17.824 3.48807C17.8975 3.50841 17.9508 3.55107 17.984 3.61607C18.0539 3.46048 18.1286 3.46048 18.208 3.61607Z" fill="#001DD2"/>
<path opacity="0.01" fill-rule="evenodd" clip-rule="evenodd" d="M18.208 3.61593C18.2561 3.54722 18.3201 3.53656 18.4 3.58393C18.3393 3.61483 18.2753 3.6255 18.208 3.61593Z" fill="#0000FF"/>
<path opacity="0.01" fill-rule="evenodd" clip-rule="evenodd" d="M19.936 4C20.0213 4.04267 20.0213 4.04267 19.936 4Z" fill="#0000C7"/>
<path opacity="0.01" fill-rule="evenodd" clip-rule="evenodd" d="M14.9441 4.3841C15.2648 4.37348 15.5848 4.38414 15.9041 4.4161C15.5723 4.46834 15.2523 4.45768 14.9441 4.3841Z" fill="#0000FF"/>
<path opacity="0.01" fill-rule="evenodd" clip-rule="evenodd" d="M17.056 4.3841C16.7264 4.45775 16.385 4.46842 16.032 4.4161C16.3727 4.38414 16.714 4.37348 17.056 4.3841Z" fill="#0000FF"/>
<path opacity="0.01" fill-rule="evenodd" clip-rule="evenodd" d="M13.6641 4.57593C13.7281 4.57593 13.7921 4.57593 13.8561 4.57593C13.7921 4.66126 13.7281 4.66126 13.6641 4.57593Z" fill="#0000C2"/>
<path opacity="0.01" fill-rule="evenodd" clip-rule="evenodd" d="M18.272 4.57601C18.2466 4.64161 18.204 4.65228 18.144 4.60801C18.1821 4.57829 18.2247 4.56763 18.272 4.57601Z" fill="#0000B2"/>
<path opacity="0.01" fill-rule="evenodd" clip-rule="evenodd" d="M19.7439 5.02393C19.7866 5.02393 19.8292 5.02393 19.8719 5.02393C19.8292 5.10926 19.7866 5.10926 19.7439 5.02393Z" fill="#0000D0"/>
<path opacity="0.938" fill-rule="evenodd" clip-rule="evenodd" d="M25.1201 11.8721C25.0347 11.8934 25.0347 11.9148 25.1201 11.9361C25.1806 12.0405 25.2446 12.1472 25.3121 12.2561C25.2987 12.2936 25.2773 12.3256 25.2481 12.3521C25.4027 12.4253 25.4454 12.5319 25.3761 12.6721C25.508 12.9401 25.6147 13.2174 25.6961 13.5041C25.6534 13.5254 25.6107 13.5468 25.5681 13.5681C25.6747 13.6847 25.7387 13.8234 25.7601 13.9841C25.6841 14.1861 25.6841 14.3781 25.7601 14.5601C25.8612 14.5794 25.9039 14.6754 25.8881 14.8481C25.8722 14.9579 25.8295 15.0539 25.7601 15.1361C25.8438 15.4445 25.8438 15.7539 25.7601 16.0641C25.7672 16.1743 25.7992 16.1849 25.8561 16.0961C25.9115 16.2894 25.8795 16.4601 25.7601 16.6081C25.6841 16.79 25.6841 16.982 25.7601 17.1841C25.7387 17.3447 25.6747 17.4834 25.5681 17.6001C25.6976 17.6934 25.7083 17.8107 25.6001 17.9521C25.5787 17.9094 25.5574 17.8668 25.5361 17.8241C25.5796 18.0661 25.5263 18.2901 25.3761 18.4961C25.4454 18.6362 25.4027 18.7428 25.2481 18.8161C25.3105 18.9704 25.2678 19.0984 25.1201 19.2001C25.2027 19.3338 25.16 19.4192 24.9921 19.4561C25.0213 19.4826 25.0427 19.5146 25.0561 19.5521C25.0085 19.5957 24.9659 19.6384 24.9281 19.6801C24.8427 19.7014 24.8427 19.7228 24.9281 19.7441C24.4653 20.8081 23.836 21.7254 23.0401 22.4961C23.0187 22.4748 22.9974 22.4534 22.9761 22.4321C22.9587 22.6095 22.8627 22.7161 22.6881 22.7521C22.6399 22.8963 22.5546 23.0136 22.4321 23.1041C22.3713 23.1436 22.318 23.1329 22.2721 23.0721C22.2554 23.2076 22.1914 23.3142 22.0801 23.3921C22.0587 23.3708 22.0374 23.3494 22.0161 23.3281C21.9658 23.4424 21.8912 23.5384 21.7921 23.6161C21.3568 23.8871 20.8875 24.1538 20.3841 24.4161C20.3627 24.3308 20.3414 24.3308 20.3201 24.4161C20.153 24.5213 19.9823 24.628 19.8081 24.7361C19.7706 24.7227 19.7386 24.7013 19.7121 24.6721C19.4315 24.867 19.1222 24.995 18.7841 25.0561C18.7201 24.9708 18.6561 24.9708 18.5921 25.0561C18.3484 25.0676 18.1137 25.153 17.8881 25.3121C17.812 25.2957 17.7373 25.2744 17.6641 25.2481C17.6214 25.2908 17.5787 25.3334 17.5361 25.3761C17.1508 25.4318 16.7562 25.4318 16.3521 25.3761C16.1082 25.5405 15.8628 25.5405 15.6161 25.3761C15.3412 25.4817 15.0852 25.4604 14.8481 25.3121C14.6944 25.3826 14.5344 25.3933 14.3681 25.3441C14.4452 25.2789 14.4239 25.2469 14.3041 25.2481C14.228 25.2644 14.1533 25.2858 14.0801 25.3121C13.8388 25.1549 13.5934 25.0696 13.3441 25.0561C13.2691 24.9789 13.1837 24.9789 13.0881 25.0561C13.0082 25.0215 12.9335 24.9788 12.8641 24.9281C12.8427 24.9494 12.8214 24.9708 12.8001 24.9921C12.6683 24.9531 12.615 24.8891 12.6401 24.8001C12.5974 24.8214 12.5547 24.8428 12.5121 24.8641C12.1636 24.7219 11.8223 24.5619 11.4881 24.3841C11.2977 24.3812 11.1057 24.3919 10.9121 24.4161C10.8481 24.3308 10.7841 24.3308 10.7201 24.4161C10.6393 24.5806 10.554 24.5806 10.4641 24.4161C10.2717 24.5801 10.0584 24.6227 9.82406 24.5441C9.74412 24.6705 9.64812 24.6918 9.53606 24.6081C9.384 24.7517 9.21331 24.773 9.02406 24.6721C8.84947 24.841 8.64678 24.8836 8.41606 24.8001C8.29619 24.7989 8.27488 24.8309 8.35206 24.8961C7.78675 25.0817 7.29606 24.943 6.88006 24.4801C6.94726 24.3775 6.90457 24.3242 6.75206 24.3201C6.77337 24.2988 6.79475 24.2774 6.81606 24.2561C6.75206 24.1921 6.68806 24.1281 6.62406 24.0641C6.65331 24.0376 6.67468 24.0056 6.68806 23.9681C6.62476 23.9061 6.58208 23.8314 6.56006 23.7441C6.61625 23.6302 6.61625 23.5236 6.56006 23.4241C6.56716 23.3139 6.59916 23.3032 6.65606 23.3921C6.6878 23.2938 6.67718 23.1978 6.62406 23.1041C6.64998 23.0436 6.69267 23.0009 6.75206 22.9761C6.74476 22.7384 6.74476 22.5037 6.75206 22.2721C6.78406 22.1761 6.81606 22.0801 6.84806 21.9841C6.86937 22.0268 6.89075 22.0694 6.91206 22.1121C6.82227 21.7884 6.87564 21.4897 7.07206 21.2161C7.00825 20.8643 7.05088 20.5016 7.20006 20.1281C7.04889 19.6154 6.8462 19.1674 6.59206 18.7841C6.57484 18.6015 6.52147 18.4309 6.43206 18.2721C6.48384 18.1715 6.50521 18.0648 6.49606 17.9521C6.43206 17.9521 6.36806 17.9521 6.30406 17.9521C6.28765 17.8054 6.30898 17.6667 6.36806 17.5361C6.27377 17.4906 6.23111 17.416 6.24006 17.3121C6.28093 17.2739 6.30227 17.2205 6.30406 17.1521C6.19591 16.9201 6.13191 16.6748 6.11206 16.4161C6.13101 15.7477 6.13101 15.0864 6.11206 14.4321C6.28766 14.2574 6.33033 14.0654 6.24006 13.8561C6.29675 13.6246 6.36075 13.39 6.43206 13.1521C6.50918 13.0771 6.50918 12.9917 6.43206 12.8961C6.49849 12.7144 6.5838 12.5437 6.68806 12.3841C6.59833 12.2982 6.61964 12.2448 6.75206 12.2241C6.75206 12.1174 6.75206 12.0108 6.75206 11.9041C6.87929 11.7139 6.97529 11.5112 7.04006 11.2961C7.13337 11.1386 7.25068 10.9999 7.39206 10.8801C7.37075 10.8588 7.34937 10.8374 7.32806 10.8161C7.46067 10.4533 7.69536 10.1333 8.03206 9.85606C7.98214 9.78739 7.99283 9.7127 8.06406 9.63206C9.02662 8.45722 10.1359 7.51859 11.3921 6.81606C11.4134 6.83738 11.4347 6.85875 11.4561 6.88006C11.7827 6.58272 12.156 6.42272 12.5761 6.40006C12.5334 6.37873 12.4907 6.3574 12.4481 6.33606C12.6259 6.30016 12.7966 6.24682 12.9601 6.17606C12.9751 6.21425 13.0071 6.23559 13.0561 6.24006C13.2092 6.10597 13.3905 6.02064 13.6001 5.98406C13.7819 6.07295 13.9313 6.03028 14.0481 5.85606C14.0856 5.86946 14.1176 5.89079 14.1441 5.92006C14.3285 5.79754 14.5205 5.77621 14.7201 5.85606C14.8933 5.71006 15.0853 5.68873 15.2961 5.79206C15.4063 5.78498 15.4169 5.75298 15.3281 5.69606C15.7761 5.6534 16.2241 5.6534 16.6721 5.69606C16.538 5.73162 16.5273 5.76362 16.6401 5.79206C16.8536 5.68686 17.0456 5.70819 17.2161 5.85606C17.4527 5.76685 17.666 5.80952 17.8561 5.98406C17.8961 5.82462 17.9494 5.82462 18.0161 5.98406C18.0668 5.95647 18.1202 5.93514 18.1761 5.92006C18.4534 5.96789 18.6988 6.07456 18.9121 6.24006C19.0722 6.19582 19.2322 6.21715 19.3921 6.30406C19.4581 6.40934 19.5328 6.43066 19.6161 6.36806C19.7286 6.40826 19.8246 6.47226 19.9041 6.56006C20.0038 6.50598 20.0678 6.54861 20.0961 6.68806C20.1226 6.65882 20.1546 6.63744 20.1921 6.62406C20.2461 6.76883 20.3315 6.81152 20.4481 6.75206C20.6166 6.80333 20.7339 6.90995 20.8001 7.07206C20.8214 7.02938 20.8427 6.98675 20.8641 6.94406C21.0347 7.02938 21.1627 7.15738 21.2481 7.32806C21.3478 7.27398 21.4118 7.31661 21.4401 7.45606C21.6234 7.42144 21.7514 7.50682 21.8241 7.71206C21.8454 7.69075 21.8667 7.66938 21.8881 7.64806C22.7556 8.32211 23.4702 9.05811 24.0321 9.85606C24.0107 9.87738 23.9894 9.89875 23.9681 9.92006C24.0287 9.95098 24.0927 9.9616 24.1601 9.95206C24.2275 10.1909 24.3661 10.4256 24.5761 10.6561C24.772 11.0548 24.9534 11.4601 25.1201 11.8721Z" fill="#0720D2"/>
<path opacity="0.01" fill-rule="evenodd" clip-rule="evenodd" d="M12.96 6.17594C12.9854 6.11034 13.028 6.09967 13.088 6.14394C13.0499 6.17366 13.0073 6.18433 12.96 6.17594Z" fill="#0000FF"/>
<path fill-rule="evenodd" clip-rule="evenodd" d="M15.4561 6.62388C15.914 6.54996 16.3833 6.53927 16.8641 6.59188C16.9432 6.60673 17.0072 6.63873 17.0561 6.68788C16.5249 6.63214 15.9915 6.61076 15.4561 6.62388Z" fill="#4A54DC"/>
<path fill-rule="evenodd" clip-rule="evenodd" d="M15.4559 6.6241C15.9914 6.61098 16.5247 6.63236 17.0559 6.6881C20.9834 7.31934 23.5327 9.53802 24.7039 13.3441C25.4731 17.117 24.3957 20.2423 21.4719 22.7201C18.8633 24.5735 16.026 25.0215 12.9599 24.0641C12.4372 23.8558 11.9252 23.6318 11.4239 23.3921C10.3534 23.5748 9.2867 23.7774 8.22392 24.0001C8.01528 24.0503 7.81259 24.0396 7.61592 23.9681C7.51774 23.6986 7.49643 23.4213 7.55192 23.1361C7.7436 22.1034 7.92491 21.0688 8.09592 20.0321C7.81771 19.3473 7.55102 18.654 7.29592 17.9521C6.42168 14.0678 7.52036 10.8784 10.5919 8.3841C12.0383 7.32234 13.6596 6.73572 15.4559 6.6241Z" fill="#FDFDFE"/>
<path opacity="0.01" fill-rule="evenodd" clip-rule="evenodd" d="M23.136 6.94409C23.1573 6.94409 23.1787 6.94409 23.2 6.94409C23.1881 6.98697 23.1668 6.98697 23.136 6.94409Z" fill="#0000FF"/>
<path opacity="0.01" fill-rule="evenodd" clip-rule="evenodd" d="M24.928 7.26392C25.0133 7.3066 25.0133 7.3066 24.928 7.26392Z" fill="#0000FF"/>
<path opacity="0.01" fill-rule="evenodd" clip-rule="evenodd" d="M26.8479 10.0161C26.9332 10.0588 26.9332 10.0588 26.8479 10.0161Z" fill="#0000AE"/>
<path opacity="0.01" fill-rule="evenodd" clip-rule="evenodd" d="M5.91992 10.5281C6.00525 10.5708 6.00525 10.5708 5.91992 10.5281Z" fill="#0000FF"/>
<path opacity="0.01" fill-rule="evenodd" clip-rule="evenodd" d="M27.104 10.5281C27.1893 10.5708 27.1893 10.5708 27.104 10.5281Z" fill="#0000FF"/>
<path opacity="0.01" fill-rule="evenodd" clip-rule="evenodd" d="M26.272 11.04C26.2293 11.0827 26.2293 11.0827 26.272 11.04Z" fill="#0000FF"/>
<path fill-rule="evenodd" clip-rule="evenodd" d="M11.1041 11.296C14.3042 11.2853 17.5042 11.296 20.7041 11.328C22.2422 11.6077 23.2342 12.4931 23.6801 13.984C23.941 15.7425 23.2904 17.0332 21.7281 17.856C21.4182 17.9807 21.0982 18.066 20.7681 18.112C17.5254 18.1547 14.2828 18.1547 11.0401 18.112C9.57136 17.7953 8.64336 16.91 8.2561 15.456C8.03152 13.2584 8.9809 11.8717 11.1041 11.296Z" fill="#050606"/>
<path opacity="0.01" fill-rule="evenodd" clip-rule="evenodd" d="M3.61604 11.936C3.56875 11.9443 3.52608 11.9337 3.48804 11.904C3.54799 11.8597 3.59065 11.8704 3.61604 11.936Z" fill="#0000FF"/>
<path opacity="0.01" fill-rule="evenodd" clip-rule="evenodd" d="M25.1201 11.8721C25.2054 11.9148 25.2054 11.9148 25.1201 11.8721Z" fill="#0000C6"/>
<path opacity="0.01" fill-rule="evenodd" clip-rule="evenodd" d="M28.064 11.936C28.0167 11.9443 27.9741 11.9337 27.936 11.904C27.996 11.8597 28.0386 11.8704 28.064 11.936Z" fill="#0000FF"/>
<path opacity="0.01" fill-rule="evenodd" clip-rule="evenodd" d="M28.3201 11.936C28.3455 11.8704 28.3881 11.8597 28.4481 11.904C28.4101 11.9337 28.3674 11.9443 28.3201 11.936Z" fill="#0000FF"/>
<path opacity="0.01" fill-rule="evenodd" clip-rule="evenodd" d="M26.7199 12.3841C26.6543 12.3587 26.6436 12.3161 26.6879 12.2561C26.7176 12.2941 26.7283 12.3368 26.7199 12.3841Z" fill="#0000FF"/>
<path fill-rule="evenodd" clip-rule="evenodd" d="M12.3201 12.6399C13.5221 12.4568 14.3861 12.9048 14.9121 13.9839C15.2581 15.3937 14.7568 16.343 13.4081 16.8319C12.1305 17.0309 11.2665 16.5295 10.8161 15.3279C10.6053 14.0207 11.1066 13.1247 12.3201 12.6399Z" fill="#06C9AF"/>
<path fill-rule="evenodd" clip-rule="evenodd" d="M18.848 12.6399C20.1155 12.4573 21.0008 12.948 21.504 14.1119C21.7466 15.4733 21.224 16.38 19.936 16.8319C18.7264 17.0273 17.8837 16.5687 17.408 15.4559C17.0936 14.1006 17.5736 13.1619 18.848 12.6399Z" fill="#06C8AE"/>
<path opacity="0.01" fill-rule="evenodd" clip-rule="evenodd" d="M6.43205 13.1519C6.36645 13.1265 6.35578 13.0839 6.40005 13.0239C6.42974 13.0619 6.44043 13.1046 6.43205 13.1519Z" fill="#0000FF"/>
<path fill-rule="evenodd" clip-rule="evenodd" d="M12.5121 13.0241C13.6069 12.9574 14.3002 13.4481 14.5921 14.4961C14.5814 15.7867 13.9308 16.4374 12.6401 16.4481C11.5825 16.1573 11.1025 15.464 11.2001 14.3681C11.3931 13.6738 11.8304 13.2258 12.5121 13.0241Z" fill="#040807"/>
<path fill-rule="evenodd" clip-rule="evenodd" d="M19.04 13.024C20.4396 12.9624 21.1329 13.6238 21.12 15.008C20.7637 16.2364 19.9637 16.6737 18.72 16.32C17.7897 15.7478 17.5231 14.9478 17.92 13.92C18.193 13.4861 18.5663 13.1874 19.04 13.024Z" fill="#040706"/>
<path opacity="0.01" fill-rule="evenodd" clip-rule="evenodd" d="M26.976 13.3441C26.9104 13.3187 26.8997 13.276 26.944 13.2161C26.9737 13.2541 26.9844 13.2968 26.976 13.3441Z" fill="#0000E3"/>
<path opacity="0.01" fill-rule="evenodd" clip-rule="evenodd" d="M2.33597 13.4719C2.33597 13.5146 2.33597 13.5572 2.33597 13.5999C2.25064 13.5572 2.25064 13.5146 2.33597 13.4719Z" fill="#0000D4"/>
<path fill-rule="evenodd" clip-rule="evenodd" d="M13.0239 13.664C13.7098 13.6553 13.9765 13.9753 13.8239 14.624C13.3752 15.084 12.9912 15.0413 12.6719 14.496C12.5804 14.1248 12.6977 13.8475 13.0239 13.664Z" fill="#05CBB0"/>
<path fill-rule="evenodd" clip-rule="evenodd" d="M19.552 13.6639C20.3149 13.6263 20.5816 13.9676 20.352 14.6879C19.8971 15.0709 19.5131 15.0069 19.2 14.4959C19.1573 14.3679 19.1573 14.2399 19.2 14.1119C19.3066 13.9522 19.424 13.8029 19.552 13.6639Z" fill="#06CAB0"/>
<path opacity="0.01" fill-rule="evenodd" clip-rule="evenodd" d="M6.23988 13.856C6.24991 13.9438 6.23924 14.0292 6.20788 14.112C6.15892 14.0117 6.16959 13.9264 6.23988 13.856Z" fill="#0000EB"/>
<path opacity="0.01" fill-rule="evenodd" clip-rule="evenodd" d="M25.76 14.56C25.75 14.4721 25.7606 14.3867 25.792 14.304C25.841 14.4042 25.8303 14.4895 25.76 14.56Z" fill="#0000C3"/>
<path opacity="0.01" fill-rule="evenodd" clip-rule="evenodd" d="M27.1681 16.8001C27.0955 16.6423 27.0848 16.4716 27.1361 16.2881C27.1679 16.4574 27.1786 16.6281 27.1681 16.8001Z" fill="#0000FF"/>
<path opacity="0.01" fill-rule="evenodd" clip-rule="evenodd" d="M25.76 16.6079C25.8303 16.6784 25.841 16.7637 25.792 16.8639C25.7606 16.7812 25.75 16.6958 25.76 16.6079Z" fill="#0000CC"/>
<path opacity="0.01" fill-rule="evenodd" clip-rule="evenodd" d="M6.23988 17.3119C6.16959 17.2414 6.15892 17.1561 6.20788 17.0559C6.23924 17.1387 6.24991 17.224 6.23988 17.3119Z" fill="#0000D1"/>
<path opacity="0.01" fill-rule="evenodd" clip-rule="evenodd" d="M29.6639 17.376C29.7295 17.4014 29.7402 17.444 29.6959 17.504C29.6662 17.466 29.6555 17.4233 29.6639 17.376Z" fill="#0000FF"/>
<path opacity="0.01" fill-rule="evenodd" clip-rule="evenodd" d="M26.9119 17.824C26.9775 17.8494 26.9882 17.892 26.9439 17.952C26.9142 17.914 26.9036 17.8713 26.9119 17.824Z" fill="#0000DD"/>
<path opacity="0.01" fill-rule="evenodd" clip-rule="evenodd" d="M6.368 18.0161C6.4336 18.0415 6.44429 18.0841 6.4 18.1441C6.37029 18.1061 6.35962 18.0634 6.368 18.0161Z" fill="#0000FF"/>
<path opacity="0.01" fill-rule="evenodd" clip-rule="evenodd" d="M26.656 18.8479C26.7413 18.8906 26.7413 18.8906 26.656 18.8479Z" fill="#0000FF"/>
<path opacity="0.01" fill-rule="evenodd" clip-rule="evenodd" d="M24.928 19.6799C25.0133 19.7226 25.0133 19.7226 24.928 19.6799Z" fill="#0000FF"/>
<path opacity="0.01" fill-rule="evenodd" clip-rule="evenodd" d="M27.2959 20.1279C27.3812 20.1706 27.3812 20.1706 27.2959 20.1279Z" fill="#0000C5"/>
<path opacity="0.01" fill-rule="evenodd" clip-rule="evenodd" d="M27.104 20.5759C27.1893 20.6186 27.1893 20.6186 27.104 20.5759Z" fill="#0000FF"/>
<path opacity="0.01" fill-rule="evenodd" clip-rule="evenodd" d="M26.8479 21.0879C26.9332 21.1306 26.9332 21.1306 26.8479 21.0879Z" fill="#0000AA"/>
<path opacity="0.01" fill-rule="evenodd" clip-rule="evenodd" d="M24.8 23.968C24.8854 24.0107 24.8854 24.0107 24.8 23.968Z" fill="#0000FF"/>
<path opacity="0.01" fill-rule="evenodd" clip-rule="evenodd" d="M24.6721 24.0959C24.7574 24.1386 24.7574 24.1386 24.6721 24.0959Z" fill="#0000FF"/>
<path opacity="0.01" fill-rule="evenodd" clip-rule="evenodd" d="M24.6079 24.1599C24.6292 24.1599 24.6506 24.1599 24.6719 24.1599C24.6601 24.2028 24.6387 24.2028 24.6079 24.1599Z" fill="#0000FF"/>
<path opacity="0.01" fill-rule="evenodd" clip-rule="evenodd" d="M24.5439 24.2241C24.5653 24.2241 24.5866 24.2241 24.6079 24.2241C24.5961 24.267 24.5747 24.267 24.5439 24.2241Z" fill="#0000FF"/>
<path opacity="0.01" fill-rule="evenodd" clip-rule="evenodd" d="M24.48 24.2881C24.5013 24.2881 24.5227 24.2881 24.544 24.2881C24.5321 24.331 24.5108 24.331 24.48 24.2881Z" fill="#0000FF"/>
<path opacity="0.01" fill-rule="evenodd" clip-rule="evenodd" d="M24.416 24.3521C24.4373 24.3521 24.4587 24.3521 24.48 24.3521C24.4682 24.3949 24.4468 24.3949 24.416 24.3521Z" fill="#0000FF"/>
<path opacity="0.01" fill-rule="evenodd" clip-rule="evenodd" d="M10.72 24.416C10.784 24.416 10.848 24.416 10.912 24.416C10.848 24.5013 10.784 24.5013 10.72 24.416Z" fill="#0000D0"/>
<path opacity="0.01" fill-rule="evenodd" clip-rule="evenodd" d="M20.3201 24.416C20.3414 24.416 20.3628 24.416 20.3841 24.416C20.3722 24.4589 20.3509 24.4589 20.3201 24.416Z" fill="#0000AA"/>
<path opacity="0.01" fill-rule="evenodd" clip-rule="evenodd" d="M24.3521 24.416C24.3734 24.416 24.3947 24.416 24.4161 24.416C24.4042 24.4589 24.3828 24.4589 24.3521 24.416Z" fill="#0000FF"/>
<path opacity="0.01" fill-rule="evenodd" clip-rule="evenodd" d="M13.3441 25.056C13.3187 25.1216 13.276 25.1323 13.2161 25.088C13.2541 25.0583 13.2968 25.0476 13.3441 25.056Z" fill="#0000FF"/>
<path opacity="0.01" fill-rule="evenodd" clip-rule="evenodd" d="M18.592 25.0559C18.656 25.0559 18.72 25.0559 18.784 25.0559C18.72 25.1412 18.656 25.1412 18.592 25.0559Z" fill="#0000FF"/>
<path opacity="0.01" fill-rule="evenodd" clip-rule="evenodd" d="M15.52 26.0159C15.8068 25.9424 16.1055 25.9317 16.416 25.9839C16.1181 26.0158 15.8195 26.0265 15.52 26.0159Z" fill="#0000C8"/>
<path opacity="0.01" fill-rule="evenodd" clip-rule="evenodd" d="M14.752 26.144C14.8373 26.1867 14.8373 26.1867 14.752 26.144Z" fill="#0000AA"/>
<path opacity="0.01" fill-rule="evenodd" clip-rule="evenodd" d="M17.248 28.2561C17.2694 28.2561 17.2907 28.2561 17.312 28.2561C17.3002 28.299 17.2788 28.299 17.248 28.2561Z" fill="#0000AA"/>
</svg>
