<svg width="32" height="32" viewBox="0 0 33 32" fill="none" xmlns="http://www.w3.org/2000/svg">
    <path
        d="M22.6671 4.27046V8.2085C24.5176 9.16131 26.0544 10.5337 27.1225 12.1873C28.1907 13.8408 28.7523 15.7169 28.7509 17.6266C28.7509 23.6241 23.3406 28.4858 16.6675 28.4858C9.99425 28.4858 4.58406 23.6241 4.58406 17.6266C4.58406 13.4995 7.14582 9.90994 10.9169 8.07312V4.18715C7.89445 5.2391 5.29829 7.08369 3.4691 9.47881C1.6399 11.8739 0.663142 14.7077 0.667034 17.6081C0.667034 25.5563 7.83106 32 16.6675 32C25.5038 32 32.667 25.5563 32.667 17.6073C32.667 11.5689 28.5287 6.40688 22.6671 4.27046ZM14.9996 22.3144V17.9502C14.9996 17.4103 15.4887 16.9729 16.0888 16.9729H17.453C18.0541 16.9729 18.5422 17.4103 18.5422 17.9502V22.2567C19.5349 21.9166 20.3889 21.3153 20.9915 20.5321C21.594 19.7489 21.9168 18.8207 21.9173 17.8701C21.9173 16.1446 20.8747 14.6538 19.3331 13.8328V1.69745C19.3331 0.760206 18.4876 0 17.4431 0H16.0996C15.0551 0 14.2096 0.761006 14.2096 1.69745V13.7318C12.5552 14.5249 11.4158 16.0693 11.4158 17.8692C11.4158 19.944 12.9224 21.6856 14.9987 22.3136"
        fill="#242A35" />
</svg>