<svg width="32" height="32" viewBox="0 0 32 32" fill="none" xmlns="http://www.w3.org/2000/svg">
<g clip-path="url(#clip0_17_63)">
<path opacity="0.978" fill-rule="evenodd" clip-rule="evenodd" d="M13.0834 -0.083252C14.9723 -0.083252 16.8612 -0.083252 18.7501 -0.083252C25.8612 1.58341 30.2501 5.9723 31.9167 13.0834C31.9167 14.9723 31.9167 16.8612 31.9167 18.7501C30.2501 25.8612 25.8612 30.2501 18.7501 31.9167C16.8612 31.9167 14.9723 31.9167 13.0834 31.9167C5.9723 30.2501 1.58341 25.8612 -0.083252 18.7501C-0.083252 16.8612 -0.083252 14.9723 -0.083252 13.0834C1.58341 5.9723 5.9723 1.58341 13.0834 -0.083252Z" fill="#171A29"/>
<path fill-rule="evenodd" clip-rule="evenodd" d="M6.41659 12.9168C6.65389 12.581 6.76501 12.1921 6.74992 11.7501C8.07537 8.06532 10.6865 5.92642 14.5833 5.33344C17.6598 5.02132 20.4931 5.68799 23.0833 7.33344C23.2261 7.44829 23.3371 7.58717 23.4166 7.7501C22.9484 8.82159 22.4484 9.87714 21.9166 10.9168C19.9558 9.3985 17.7334 8.7596 15.2499 9.0001C12.6716 9.63449 11.1994 11.2734 10.8333 13.9168C10.4354 16.4753 10.8798 18.8641 12.1666 21.0834C13.5794 22.6449 15.3294 23.2283 17.4166 22.8334C19.1114 22.6303 20.6114 21.9914 21.9166 20.9168C22.4594 21.9469 22.9594 23.0026 23.4166 24.0834C22.3404 25.1221 21.0626 25.8164 19.5833 26.1668C16.5002 26.9826 13.5558 26.6493 10.7499 25.1668C8.05702 23.3678 6.52926 20.8399 6.16659 17.5834C6.05547 16.3057 6.05547 15.0279 6.16659 13.7501C6.19961 13.4365 6.28294 13.1587 6.41659 12.9168Z" fill="#E85F5A"/>
<path fill-rule="evenodd" clip-rule="evenodd" d="M6.74997 11.75C6.76505 12.192 6.65394 12.5809 6.41664 12.9167C6.40155 12.4746 6.51267 12.0857 6.74997 11.75Z" fill="#A74A4B"/>
</g>
<defs>
<clipPath id="clip0_17_63">
<rect width="32" height="32" fill="white"/>
</clipPath>
</defs>
</svg>
