<svg width="32" height="32" viewBox="0 0 32 32" fill="none" xmlns="http://www.w3.org/2000/svg">
<path d="M23.6802 8.00075C20.3266 8.00075 18.2946 9.40555 16.8802 11.4888L16.861 11.4728C16.0002 12.4616 11.6034 19.7128 8.28179 19.5176C6.47699 19.412 5.22899 18.02 5.22899 16.0392V15.9848C5.22899 14.1192 6.50899 12.5928 8.22419 12.5928C9.52339 12.5928 10.3458 13.1848 11.0786 14.1928L14.7202 11.492C13.4402 9.42795 11.3346 8.07115 8.19539 8.07115C3.36339 8.07115 0.000193149 11.716 0.000193149 16.0392V16.0968C-0.00715412 17.1467 0.195182 18.1875 0.59534 19.1582C0.995498 20.1289 1.58542 21.01 2.33053 21.7497C3.07564 22.4895 3.96093 23.073 4.93451 23.4661C5.90808 23.8593 6.95035 24.0541 8.00019 24.0392C14.0354 24.0392 19.0018 16.2088 20.429 14.0936H20.4482C21.2962 13.1048 22.1154 12.4936 23.3858 12.4936C25.197 12.4936 26.4386 13.9912 26.4386 15.9688V16.0264C26.4386 17.892 25.1586 19.4184 23.4434 19.4184C22.1442 19.4184 21.325 18.8264 20.589 17.8184L16.941 20.548C18.2402 22.612 20.333 23.9688 23.469 23.9688C28.301 23.9688 31.6802 20.324 31.6802 15.9976V15.9368C31.6862 14.8875 31.483 13.8475 31.0823 12.8778C30.6816 11.908 30.0915 11.0279 29.3466 10.2889C28.6017 9.54994 27.7168 8.96696 26.7439 8.57406C25.7709 8.18117 24.7294 7.98627 23.6802 8.00075V8.00075Z" fill="#E20678"/>
</svg>
