<svg width="32" height="32" viewBox="0 0 33 33" fill="none" xmlns="http://www.w3.org/2000/svg">
    <path opacity="0.983" fill-rule="evenodd" clip-rule="evenodd"
        d="M18.928 0.5C19.2494 0.5 19.5708 0.5 19.8922 0.5C24.8832 0.673587 29.1471 2.25621 32.6841 5.24786C31.5797 6.20001 30.4655 7.14228 29.3415 8.07461C25.2573 4.84721 20.522 3.86836 15.1354 5.13808C10.5933 6.49163 7.56141 9.11717 6.0397 13.0146C4.72162 17.147 5.62155 20.8794 8.73949 24.2118C9.12517 24.6143 9.55373 24.9803 10.0251 25.3096C10.027 21.9418 10.0699 18.5753 10.1537 15.2101C10.9693 11.8058 13.337 9.63773 17.2567 8.70583C20.3802 8.15596 23.1658 8.74145 25.6132 10.4623C25.788 10.593 25.938 10.7394 26.0632 10.9014C25.0025 11.8802 23.899 12.8225 22.7527 13.7281C20.7539 12.2537 18.6648 12.153 16.4853 13.4262C15.3979 14.2497 14.8194 15.2835 14.7497 16.5274C16.6568 16.5274 18.5637 16.5274 20.4707 16.5274C20.4707 17.863 20.4707 19.1987 20.4707 20.5343C18.5637 20.5343 16.6568 20.5343 14.7497 20.5343C14.753 24.34 14.7744 28.1456 14.814 31.9511C9.69759 30.8294 5.80861 28.3229 3.14706 24.4314C-0.0488519 19.31 -0.134538 14.1505 2.88994 8.95283C6.45688 3.70087 11.8029 0.883255 18.928 0.5Z"
        fill="#0D55C9" />
    <path opacity="0.977" fill-rule="evenodd" clip-rule="evenodd"
        d="M29.2772 24.9248C30.4074 25.8074 31.5108 26.7222 32.5876 27.6692C32.6305 27.7241 32.6305 27.779 32.5876 27.8339C28.9254 30.8736 24.5222 32.4288 19.3779 32.4994C19.3779 31.1455 19.3779 29.7916 19.3779 28.4377C23.2379 28.3804 26.5377 27.2094 29.2772 24.9248Z"
        fill="#0D55C9" />
</svg>