<svg width="32" height="32" viewBox="0 0 32 32" fill="none" xmlns="http://www.w3.org/2000/svg">
    <g clip-path="url(#clip0_651_148)">
        <path d="M31.9899 13.7584H18.8862V22.8663H31.9899V13.7584Z" fill="#FA5E5E" />
        <path
            d="M12.4903 0C5.59145 0 0 7.16264 0 16C0 24.8374 5.59145 32 12.4903 32H18.8963V22.8921H12.4903C9.52357 22.8921 7.10999 19.8132 7.10999 16C7.10999 12.1997 9.51351 9.10789 12.4903 9.10789H32V0H12.4903Z"
            fill="url(#paint0_linear_651_148)" />
        <path
            d="M7.11001 16C7.11001 14.4155 7.54244 12.9727 8.2464 11.8132H8.22629L0.744202 21.3849C2.47393 27.5556 7.07984 31.9871 12.4903 31.9871H18.8963V22.8793H12.4903C9.52359 22.8793 7.11001 19.8003 7.11001 15.9871V16Z"
            fill="url(#paint1_linear_651_148)" />
    </g>
    <defs>
        <linearGradient id="paint0_linear_651_148" x1="3.79133" y1="23.9098" x2="34.4444"
            y2="9.33822" gradientUnits="userSpaceOnUse">
            <stop stop-color="#5C68F9" />
            <stop offset="1" stop-color="#8E97FE" />
        </linearGradient>
        <linearGradient id="paint1_linear_651_148" x1="8.20618" y1="33.095" x2="16.7184"
            y2="12.5041" gradientUnits="userSpaceOnUse">
            <stop stop-color="#5C68F9" stop-opacity="0" />
            <stop offset="0.08" stop-color="#5561F4" stop-opacity="0.1" />
            <stop offset="0.32" stop-color="#434CE6" stop-opacity="0.42" />
            <stop offset="0.55" stop-color="#343CDC" stop-opacity="0.67" />
            <stop offset="0.74" stop-color="#2930D4" stop-opacity="0.85" />
            <stop offset="0.9" stop-color="#2329CF" stop-opacity="0.96" />
            <stop offset="1" stop-color="#2127CE" />
        </linearGradient>
        <clipPath id="clip0_651_148">
            <rect width="32" height="32" fill="white" />
        </clipPath>
    </defs>
</svg>