<svg width="32" height="32" viewBox="0 0 32 32" fill="none" xmlns="http://www.w3.org/2000/svg">
<path opacity="0.806" fill-rule="evenodd" clip-rule="evenodd" d="M2.92531 12.4002C6.91008 12.3291 10.8923 12.4002 14.872 12.6135C14.5491 13.2587 14.1225 13.8276 13.592 14.3202C10.3539 14.8452 7.0828 15.1296 3.77865 15.1735C2.62888 15.7778 2.34443 16.6312 2.92531 17.7335C5.91198 17.8757 8.89865 18.018 11.8853 18.1602C12.5916 18.7764 12.876 19.5586 12.7386 20.5068C8.896 20.5778 5.056 20.5067 1.21865 20.2935C-0.852518 17.1193 -0.283629 14.4882 2.92531 12.4002Z" fill="black"/>
<path opacity="0.826" fill-rule="evenodd" clip-rule="evenodd" d="M17.8038 11.9998C22.3636 11.8581 26.9148 12.0003 31.4571 12.4265C31.1103 12.9871 30.6836 13.4848 30.1771 13.9198C26.3371 14.062 22.4971 14.2043 18.6571 14.3465C21.9284 14.4887 25.1992 14.6309 28.4705 14.7731C30.0547 15.4947 30.5522 16.7036 29.9638 18.3998C29.2654 19.3855 28.3408 20.0255 27.1905 20.3198C23.1077 20.1971 19.0544 20.2682 15.0305 20.5331C14.7416 19.4744 15.097 18.6921 16.0971 18.1865C19.9448 18.1148 23.7848 17.9014 27.6171 17.5465C24.0703 17.1916 20.5144 16.9783 16.9505 16.9065C16.121 15.9879 15.9077 14.9212 16.3105 13.7065C16.8976 13.1923 17.3951 12.6234 17.8038 11.9998Z" fill="#C40D36"/>
</svg>
