<svg width="32" height="32" viewBox="0 0 32 32" fill="none" xmlns="http://www.w3.org/2000/svg">
    <path
        d="M27.3587 4.62457C24.5916 1.87409 21.0766 0.342741 17.4569 0.000789775C17.0231 -0.0438127 16.7689 0.491416 17.083 0.803632L22.8864 6.57221C22.9314 6.6168 22.8715 6.66141 22.8267 6.63168C21.1663 5.44228 19.2518 4.75837 17.3074 4.5651C17.0083 4.53536 16.8287 4.90705 17.0531 5.13007L21.0018 9.05507C21.0467 9.09967 20.9868 9.14428 20.942 9.11455C19.8501 8.37117 18.6086 7.94002 17.3522 7.83594C17.1428 7.82108 17.0231 8.07382 17.1727 8.22249L23.8885 14.898C24.0382 15.0467 24.2925 14.9277 24.2775 14.7195C24.1578 13.4707 23.7241 12.2367 22.9911 11.1514C22.9612 11.1068 23.0211 11.0622 23.0509 11.0919L26.8501 14.8683C27.0595 15.0764 27.4334 14.9128 27.4186 14.6155C27.239 12.6827 26.551 10.7797 25.3394 9.12941C25.3096 9.08482 25.3693 9.04021 25.3993 9.06994L31.1877 14.8237C31.5018 15.1359 32.0403 14.8831 31.9955 14.4371C31.6664 10.854 30.1257 7.36019 27.3587 4.62457Z"
        fill="#00ADFF" />
    <path
        d="M4.65243 4.62469C7.41953 1.87421 10.9345 0.342864 14.5393 0.000911842C14.9731 -0.0436906 15.2273 0.491537 14.9132 0.803754L9.12468 6.57233C9.0798 6.61694 9.13964 6.66153 9.1845 6.6318C10.8448 5.4424 12.7593 4.75849 14.7038 4.56523C15.0029 4.53548 15.1825 4.90718 14.9581 5.13019L11.0093 9.0552C10.9644 9.09979 11.0243 9.1444 11.0691 9.11467C12.161 8.3713 13.4025 7.94014 14.6588 7.83607C14.8684 7.8212 14.9879 8.07394 14.8384 8.22261L8.12253 14.8981C7.97295 15.0468 7.71869 14.9278 7.73364 14.7198C7.8533 13.4708 8.28706 12.2368 9.01997 11.1515C9.04989 11.1069 8.99006 11.0623 8.96015 11.092L5.16097 14.8684C4.95157 15.0765 4.57764 14.9129 4.5926 14.6156C4.77208 12.6829 5.46012 10.7798 6.67167 9.12954C6.70158 9.08493 6.64175 9.04033 6.61184 9.07006L0.808381 14.8238C0.494276 15.1359 -0.0441885 14.8832 0.000683542 14.4372C0.344702 10.8542 1.88531 7.3603 4.65243 4.62469Z"
        fill="#F05245" />
    <path
        d="M4.65243 27.3718C7.41953 30.1224 10.9345 31.6537 14.5541 31.9956C14.9879 32.0401 15.2422 31.5049 14.9281 31.1928L9.12468 25.439C9.0798 25.3944 9.13964 25.3498 9.1845 25.3796C10.8448 26.569 12.7593 27.2529 14.7038 27.4462C15.0029 27.4759 15.1825 27.1042 14.9581 26.8811L11.0093 22.9561C10.9644 22.9116 11.0243 22.867 11.0691 22.8967C12.161 23.6401 13.4025 24.0713 14.6588 24.1753C14.8684 24.1901 14.9879 23.9374 14.8384 23.7888L8.10757 17.0984C7.958 16.9498 7.70372 17.0687 7.71869 17.2768C7.83834 18.5257 8.27211 19.7597 9.00501 20.8451C9.03494 20.8896 8.9751 20.9342 8.94519 20.9045L5.14601 17.1281C4.93662 16.9201 4.56269 17.0835 4.57764 17.3808C4.75713 19.3136 5.44517 21.2167 6.6567 22.867C6.68663 22.9116 6.62679 22.9561 6.59688 22.9264L0.808381 17.1728C0.494276 16.8605 -0.0441885 17.1132 0.000683542 17.5593C0.344702 21.1424 1.88531 24.6362 4.65243 27.3718Z"
        fill="#1CEBCF" />
    <path
        d="M27.3586 27.3717C24.5916 30.1222 21.0766 31.6536 17.457 31.9955C17.0232 32.0401 16.7689 31.5049 17.083 31.1927L22.8715 25.439C22.9163 25.3944 22.8566 25.3498 22.8116 25.3795C21.1514 26.5689 19.2368 27.2529 17.2924 27.446C16.9932 27.4759 16.8138 27.1041 17.0382 26.8811L20.9869 22.9561C21.0317 22.9115 20.9719 22.867 20.927 22.8967C19.8352 23.6401 18.5937 24.0712 17.3373 24.1753C17.1279 24.1901 17.0082 23.9374 17.1577 23.7886L23.8736 17.1132C24.0233 16.9645 24.2775 17.0835 24.2625 17.2917C24.1428 18.5405 23.709 19.7745 22.9762 20.8598C22.9463 20.9045 23.0061 20.949 23.036 20.9193L26.8352 17.1429C27.0445 16.9348 27.4185 17.0983 27.4036 17.3957C27.2241 19.3284 26.5361 21.2315 25.3245 22.8818C25.2945 22.9264 25.3544 22.971 25.3844 22.9413L31.1728 17.1875C31.4869 16.8753 32.0254 17.1281 31.9805 17.5741C31.6664 21.1424 30.1258 24.6362 27.3586 27.3717Z"
        fill="#FFE300" />
</svg>