<svg width="32" height="32" viewBox="0 0 32 32" fill="none" xmlns="http://www.w3.org/2000/svg">
<path d="M8.31561 10.7087H14.1785L13.2756 14.183C13.1385 14.663 12.8756 15.0516 12.4985 15.3487C12.1213 15.6459 11.6756 15.7945 11.1727 15.7945H8.44132C7.82418 15.7945 7.27561 15.9773 6.79561 16.343C6.31561 16.7087 5.98418 17.2002 5.80132 17.8173C5.67561 18.2859 5.66418 18.7202 5.76703 19.143C5.85846 19.5545 6.02989 19.9202 6.26989 20.2402C6.50989 20.5602 6.81846 20.8116 7.20703 21.0059C7.58418 21.2002 8.00703 21.2916 8.45275 21.2916H10.1099C10.4185 21.2916 10.6699 21.4173 10.8756 21.6687C11.0699 21.9202 11.127 22.1945 11.047 22.5145L10.007 26.3545H8.18989C6.94418 26.3545 5.80132 26.0802 4.74989 25.543C3.70989 24.9945 2.82989 24.2745 2.14418 23.383C1.45846 22.4916 0.989891 21.4402 0.738463 20.2859C0.487034 19.1316 0.52132 17.9545 0.829891 16.743L0.932748 16.3545C1.16132 15.5316 1.50418 14.7659 1.98418 14.0573C2.46418 13.3487 3.02418 12.7659 3.67561 12.263C4.32703 11.7602 5.04703 11.383 5.8356 11.1087C6.62418 10.8345 7.45846 10.7087 8.31561 10.7087Z" fill="#FF723A"/>
<path d="M11.2756 26.343L16.3842 7.21153C16.5213 6.73153 16.7842 6.34295 17.1613 6.04581C17.5385 5.74867 17.9842 5.6001 18.4871 5.6001H23.9042C25.1385 5.6001 26.2813 5.87438 27.3328 6.41153C28.3728 6.9601 29.2413 7.6801 29.9385 8.57153C30.6242 9.47438 31.1042 10.4915 31.3671 11.6458C31.6299 12.8001 31.5956 13.9772 31.2642 15.1887L31.1614 15.5772C30.9328 16.4001 30.5899 17.1658 30.1214 17.8744C29.6528 18.5715 29.0928 19.1772 28.4528 19.6801C27.8013 20.183 27.0814 20.5715 26.2928 20.8458C25.4928 21.1201 24.6699 21.2572 23.8013 21.2572H19.1042L20.0413 17.7601C20.1785 17.2915 20.4413 16.9144 20.8185 16.6172C21.1956 16.3201 21.6413 16.1715 22.1442 16.1715H23.6413C24.2585 16.1715 24.8185 15.9772 25.3099 15.6001C25.8013 15.223 26.1213 14.7315 26.2813 14.1258C26.4071 13.6915 26.4185 13.2687 26.3156 12.8572C26.2128 12.4458 26.0528 12.0801 25.8128 11.7601C25.5728 11.4401 25.2642 11.1772 24.8756 10.983C24.4985 10.7887 24.0756 10.6858 23.6299 10.6858H20.7271L16.9442 24.7658C16.8071 25.2344 16.5442 25.6115 16.1671 25.9087C15.7899 26.2058 15.3556 26.3544 14.8756 26.3544L11.2756 26.343Z" fill="#FF723A"/>
</svg>
