<svg width="32" height="32" viewBox="0 0 32 32" fill="none" xmlns="http://www.w3.org/2000/svg">
<path d="M16.3957 25.2C19.6294 25.2 22.4842 23.5824 23.9999 21.0297L20.9936 19.2857C20.16 20.8275 18.4168 21.7879 16.3957 21.7879C14.6778 21.7879 13.2884 21.2571 12.2273 20.1703C11.1915 19.0835 10.661 17.6934 10.661 16C10.661 14.2813 11.1915 12.8912 12.2273 11.8044C13.2884 10.7176 14.6778 10.1868 16.3957 10.1868C18.4168 10.1868 20.1094 11.122 20.9936 12.7143L23.9999 10.9703C22.4842 8.41757 19.6042 6.79999 16.3957 6.79999C13.7431 6.79999 11.5452 7.6846 9.80206 9.45383C8.0589 11.1978 7.19995 13.3967 7.19995 16C7.19995 18.6033 8.0589 20.7769 9.80206 22.5461C11.5452 24.3154 13.7431 25.2 16.3957 25.2Z" fill="black"/>
</svg>
