<svg width="32" height="32" viewBox="0 0 32 32" fill="none" xmlns="http://www.w3.org/2000/svg">
<g clip-path="url(#clip0_7_185)">
<mask id="mask0_7_185" style="mask-type:luminance" maskUnits="userSpaceOnUse" x="0" y="0" width="32" height="32">
<path d="M32 0H0V32H32V0Z" fill="white"/>
</mask>
<g mask="url(#mask0_7_185)">
<mask id="mask1_7_185" style="mask-type:luminance" maskUnits="userSpaceOnUse" x="0" y="0" width="32" height="32">
<path d="M32 0H0V32H32V0Z" fill="white"/>
</mask>
<g mask="url(#mask1_7_185)">
<mask id="mask2_7_185" style="mask-type:luminance" maskUnits="userSpaceOnUse" x="0" y="0" width="32" height="32">
<path d="M32 0H0V32H32V0Z" fill="white"/>
</mask>
<g mask="url(#mask2_7_185)">
<path fill-rule="evenodd" clip-rule="evenodd" d="M13.8665 -0.0712891C15.0516 -0.0712891 16.2369 -0.0712891 17.422 -0.0712891C21.9303 0.27494 25.7941 2.02902 29.0132 5.19093C31.346 7.94017 32.2467 11.1165 31.7154 14.7198C30.8736 20.9319 27.7683 25.649 22.3998 28.8709C20.2927 30.0911 18.1118 31.1102 15.8576 31.9287C15.7627 31.9287 15.668 31.9287 15.5732 31.9287C16.4049 30.2631 16.9974 28.5091 17.3509 26.6665C17.4946 25.8752 17.3997 25.1166 17.0665 24.3909C16.8647 24.2544 16.6513 24.1359 16.4265 24.0354C12.2896 24.2045 8.49699 23.1616 5.04871 20.9065C2.28725 19.0078 0.580584 16.4241 -0.0712891 13.1554C-0.0712891 12.3494 -0.0712891 11.5435 -0.0712891 10.7376C0.28093 8.84708 1.06315 7.14042 2.27538 5.6176C5.42736 2.25191 9.29107 0.355614 13.8665 -0.0712891Z" fill="#0790D7"/>
</g>
</g>
<path fill-rule="evenodd" clip-rule="evenodd" d="M14.1168 8.0939C16.535 7.75181 18.6683 8.34441 20.5168 9.87167C22.0228 11.9002 21.7857 13.7017 19.8057 15.2761C16.9117 16.8214 14.1146 16.6791 11.4145 14.8494C9.43801 12.8509 9.53283 10.9546 11.699 9.16056C12.4711 8.68847 13.277 8.33291 14.1168 8.0939Z" fill="white"/>
</g>
</g>
<defs>
<clipPath id="clip0_7_185">
<rect width="32" height="32" fill="white"/>
</clipPath>
</defs>
</svg>
