<svg width="32" height="32" viewBox="0 0 32 32" fill="none" xmlns="http://www.w3.org/2000/svg">
<path opacity="0.986" fill-rule="evenodd" clip-rule="evenodd" d="M22.6499 4.45003C22.8297 5.78128 22.9964 7.11461 23.1499 8.45003C23.1166 8.45003 23.0832 8.45003 23.0499 8.45003C23.0046 8.35419 22.938 8.27086 22.8499 8.20003C20.6499 6.93336 18.4499 5.6667 16.2499 4.40003C16.0499 4.33336 15.8499 4.33336 15.6499 4.40003C14.7472 4.91788 13.8472 5.43454 12.9499 5.95003C11.644 5.52632 10.3773 5.02632 9.1499 4.45003C11.1477 3.25073 13.1811 2.10073 15.2499 1.00003C15.987 0.86907 16.687 0.96907 17.3499 1.30003C19.1336 2.33637 20.9002 3.38637 22.6499 4.45003Z" fill="#91E0DB"/>
<path fill-rule="evenodd" clip-rule="evenodd" d="M23.0501 8.4501C21.6824 8.92753 20.3491 9.46087 19.0501 10.0501C18.1528 9.53461 17.2528 9.01795 16.3501 8.5001C16.0834 8.43343 15.8168 8.43343 15.5501 8.5001C14.497 9.1432 13.4304 9.75987 12.3501 10.3501C12.5751 8.9166 12.7751 7.48327 12.9501 6.0501C12.9501 6.01677 12.9501 5.98343 12.9501 5.9501C13.8474 5.43461 14.7474 4.91795 15.6501 4.4001C15.8501 4.33343 16.0501 4.33343 16.2501 4.4001C18.4501 5.66677 20.6501 6.93343 22.8501 8.2001C22.9382 8.27093 23.0048 8.35426 23.0501 8.4501Z" fill="#3EC9C0"/>
<path opacity="0.983" fill-rule="evenodd" clip-rule="evenodd" d="M22.6499 4.44995C24.5273 5.47221 26.394 6.52221 28.2499 7.59995C28.8151 8.01381 29.1651 8.56381 29.2999 9.24995C29.3499 11.4497 29.3666 13.6497 29.3499 15.85C28.2851 16.6809 27.2184 17.5143 26.1499 18.35C26.1166 18.35 26.0832 18.35 26.0499 18.35C26.1656 15.6572 26.1823 12.9572 26.0999 10.25C25.1555 9.58607 24.1721 8.98607 23.1499 8.44995C22.9964 7.11453 22.8297 5.7812 22.6499 4.44995Z" fill="#00ADD8"/>
<path opacity="0.985" fill-rule="evenodd" clip-rule="evenodd" d="M9.15019 4.44995C10.3776 5.02624 11.6443 5.52624 12.9502 5.94995C12.9502 5.98328 12.9502 6.01662 12.9502 6.04995C10.4984 7.33417 8.11503 8.73417 5.80019 10.25C5.75021 11.3495 5.73354 12.4495 5.75019 13.55C5.75019 13.5833 5.75019 13.6167 5.75019 13.65C4.6854 14.4809 3.61873 15.3143 2.55019 16.15C2.53353 13.8164 2.55019 11.4831 2.60019 9.14995C2.76339 8.50693 3.11339 7.99026 3.65019 7.59995C5.48626 6.54877 7.3196 5.49877 9.15019 4.44995Z" fill="#CBACE8"/>
<path fill-rule="evenodd" clip-rule="evenodd" d="M12.9499 6.05005C12.7749 7.48322 12.5749 8.91655 12.3499 10.35C11.4526 10.8655 10.5526 11.3822 9.64989 11.9C9.57883 12.0255 9.49549 12.1421 9.39989 12.25C9.25359 13.5735 9.20359 14.9068 9.24989 16.25C8.05655 15.3907 6.88989 14.4907 5.74989 13.55C5.73324 12.4495 5.74991 11.3495 5.79989 10.25C8.11473 8.73427 10.4981 7.33427 12.9499 6.05005Z" fill="#AD8DDA"/>
<path opacity="0.999" fill-rule="evenodd" clip-rule="evenodd" d="M19.0501 10.05C19.9333 10.5803 20.8333 11.097 21.7501 11.6C22.0359 11.7694 22.2692 11.9861 22.4501 12.25C22.4172 12.4991 22.3172 12.7157 22.1501 12.9C21.1667 13.4749 20.2 14.0749 19.2501 14.7C18.4509 15.2053 17.5842 15.5219 16.6501 15.65C15.2626 15.39 13.9293 14.9566 12.6501 14.35C12.5305 14.3846 12.5305 14.4346 12.6501 14.5C13.0022 14.6592 13.3355 14.8425 13.6501 15.05C13.6501 15.1167 13.6834 15.15 13.7501 15.15C13.8168 15.1833 13.8834 15.2167 13.9501 15.25C13.9501 15.3167 13.9834 15.35 14.0501 15.35C14.0501 15.4167 14.0834 15.45 14.1501 15.45C14.1834 15.45 14.2168 15.45 14.2501 15.45C14.2501 15.5167 14.2834 15.55 14.3501 15.55C14.3501 15.6167 14.3834 15.65 14.4501 15.65C14.4834 15.65 14.5168 15.65 14.5501 15.65C14.5501 15.7167 14.5834 15.75 14.6501 15.75C14.6501 15.8167 14.6834 15.85 14.7501 15.85C14.7501 15.9167 14.7834 15.95 14.8501 15.95C15.4296 16.4081 15.7796 17.0081 15.9001 17.75C15.9501 19.6164 15.9668 21.483 15.9501 23.35C16.0792 23.3263 16.1792 23.3596 16.2501 23.45C16.0713 23.5622 15.8713 23.5789 15.6501 23.5C14.7968 22.9901 13.9302 22.5068 13.0501 22.05C12.0061 21.4108 10.9394 20.7941 9.85009 20.2C9.70009 20.05 9.55009 19.9 9.40009 19.75C9.25654 18.591 9.20654 17.4243 9.25009 16.25C9.20379 14.9068 9.25379 13.5735 9.40009 12.25C9.49569 12.1421 9.57903 12.0255 9.65009 11.9C10.5528 11.3822 11.4528 10.8655 12.3501 10.35C13.4304 9.75972 14.497 9.14305 15.5501 8.49995C15.8168 8.43328 16.0834 8.43328 16.3501 8.49995C17.2528 9.0178 18.1528 9.53446 19.0501 10.05Z" fill="#FEFEFE"/>
<path fill-rule="evenodd" clip-rule="evenodd" d="M23.0498 8.44995C23.0831 8.44995 23.1165 8.44995 23.1498 8.44995C24.172 8.98607 25.1554 9.58607 26.0998 10.25C26.1822 12.9572 26.1655 15.6572 26.0498 18.35C24.9456 17.3789 23.8122 16.4456 22.6498 15.55C22.6664 14.5161 22.6498 13.4828 22.5998 12.45C22.572 12.3584 22.522 12.2918 22.4498 12.25C22.2689 11.9861 22.0356 11.7694 21.7498 11.6C20.833 11.097 19.933 10.5803 19.0498 10.05C20.3488 9.46072 21.6821 8.92738 23.0498 8.44995Z" fill="#0072A4"/>
<path fill-rule="evenodd" clip-rule="evenodd" d="M22.4498 12.25C22.522 12.2918 22.572 12.3584 22.5998 12.45C22.6498 13.4828 22.6664 14.5161 22.6498 15.55C22.6665 16.8837 22.6498 18.2171 22.5998 19.55C22.454 19.796 22.2707 20.0127 22.0498 20.2C21.2309 20.6259 20.4309 21.0759 19.6498 21.55C18.546 22.2352 17.4127 22.8686 16.2498 23.45C16.1789 23.3596 16.0789 23.3263 15.9498 23.35C15.9665 21.483 15.9498 19.6164 15.8998 17.75C15.7793 17.0081 15.4293 16.4081 14.8498 15.95C14.7831 15.95 14.7498 15.9167 14.7498 15.85C14.6831 15.85 14.6498 15.8167 14.6498 15.75C14.5831 15.75 14.5498 15.7167 14.5498 15.65C14.5165 15.65 14.4831 15.65 14.4498 15.65C14.3831 15.65 14.3498 15.6167 14.3498 15.55C14.2831 15.55 14.2498 15.5167 14.2498 15.45C14.2165 15.45 14.1831 15.45 14.1498 15.45C14.0831 15.45 14.0498 15.4167 14.0498 15.35C13.9831 15.35 13.9498 15.3167 13.9498 15.25C13.8831 15.2167 13.8165 15.1833 13.7498 15.15C13.6831 15.15 13.6498 15.1167 13.6498 15.05C13.3352 14.8425 13.0019 14.6592 12.6498 14.5C12.5302 14.4346 12.5302 14.3846 12.6498 14.35C13.929 14.9566 15.2623 15.39 16.6498 15.65C17.5839 15.5219 18.4506 15.2053 19.2498 14.7C20.1997 14.0749 21.1664 13.4749 22.1498 12.9C22.3169 12.7157 22.4169 12.4991 22.4498 12.25Z" fill="#D7D9D8"/>
<path fill-rule="evenodd" clip-rule="evenodd" d="M5.7499 13.55C6.8899 14.4907 8.05656 15.3907 9.2499 16.25C9.20635 17.4243 9.25635 18.591 9.3999 19.75C9.5499 19.9 9.6999 20.05 9.8499 20.2C10.9392 20.7941 12.0059 21.4108 13.0499 22.05C11.6645 22.5801 10.2645 23.0801 8.8499 23.55C7.7811 23.0405 6.76443 22.4405 5.7999 21.75C5.7499 19.0502 5.73324 16.3502 5.7499 13.65C5.7499 13.6167 5.7499 13.5833 5.7499 13.55Z" fill="#821E76"/>
<path opacity="0.986" fill-rule="evenodd" clip-rule="evenodd" d="M5.75019 13.6499C5.73353 16.3501 5.75019 19.0501 5.80019 21.7499C6.76472 22.4404 7.78139 23.0404 8.85019 23.5499C8.85019 23.5832 8.85019 23.6166 8.85019 23.6499C8.99362 24.9474 9.12696 26.2474 9.25019 27.5499C7.43944 26.5609 5.63944 25.5443 3.85019 24.4999C3.22837 24.1067 2.8117 23.5567 2.60019 22.8499C2.55019 20.6168 2.53353 18.3835 2.55019 16.1499C3.61873 15.3142 4.6854 14.4808 5.75019 13.6499Z" fill="#B737A8"/>
<path fill-rule="evenodd" clip-rule="evenodd" d="M22.6498 15.55C23.8122 16.4456 24.9456 17.3789 26.0498 18.35C26.0831 18.35 26.1165 18.35 26.1498 18.35C26.1665 19.4838 26.1498 20.6172 26.0998 21.75C23.7851 23.1651 21.4684 24.5651 19.1498 25.95C19.1165 25.95 19.0831 25.95 19.0498 25.95C19.2218 24.4794 19.4218 23.0128 19.6498 21.55C20.4309 21.0759 21.2309 20.6259 22.0498 20.2C22.2707 20.0127 22.454 19.796 22.5998 19.55C22.6498 18.2171 22.6665 16.8837 22.6498 15.55Z" fill="#041946"/>
<path opacity="0.983" fill-rule="evenodd" clip-rule="evenodd" d="M29.3499 15.8501C29.3666 18.1503 29.3499 20.4503 29.2999 22.7501C29.1165 23.5003 28.6998 24.0836 28.0499 24.5001C26.2138 25.5513 24.3805 26.6013 22.5499 27.6501C21.4197 27.085 20.2863 26.5183 19.1499 25.9501C21.4685 24.5652 23.7852 23.1652 26.0999 21.7501C26.1499 20.6173 26.1666 19.4839 26.1499 18.3501C27.2184 17.5144 28.2851 16.681 29.3499 15.8501Z" fill="#22409E"/>
<path fill-rule="evenodd" clip-rule="evenodd" d="M19.6501 21.55C19.4221 23.0128 19.2221 24.4794 19.0501 25.95C18.0318 26.5425 16.9985 27.1092 15.9501 27.65C13.5682 26.3424 11.2016 25.0091 8.8501 23.65C8.8501 23.6167 8.8501 23.5833 8.8501 23.55C10.2647 23.0801 11.6647 22.5801 13.0501 22.05C13.9302 22.5068 14.7968 22.9901 15.6501 23.5C15.8713 23.5789 16.0713 23.5622 16.2501 23.45C17.413 22.8686 18.5463 22.2352 19.6501 21.55Z" fill="#560F94"/>
<path opacity="0.983" fill-rule="evenodd" clip-rule="evenodd" d="M8.8501 23.6499C11.2016 25.009 13.5682 26.3423 15.9501 27.6499C16.9985 27.1091 18.0318 26.5424 19.0501 25.9499C19.0834 25.9499 19.1168 25.9499 19.1501 25.9499C20.2865 26.5181 21.4199 27.0848 22.5501 27.6499C20.5981 28.8428 18.5981 29.9595 16.5501 30.9999C15.9308 31.0983 15.3308 31.0317 14.7501 30.7999C12.9104 29.7139 11.0771 28.6306 9.2501 27.5499C9.12687 26.2474 8.99353 24.9474 8.8501 23.6499Z" fill="#814BBA"/>
</svg>
