<svg width="32" height="32" viewBox="0 0 32 32" fill="none" xmlns="http://www.w3.org/2000/svg">
<path fill-rule="evenodd" clip-rule="evenodd" d="M6.79976 2.26797C6.44496 2.28617 6.12496 2.39283 5.83976 2.58797C6.01676 1.93139 6.33676 1.82469 6.79976 2.26797Z" fill="#83A8D8"/>
<path fill-rule="evenodd" clip-rule="evenodd" d="M6.79996 2.26807C7.72216 3.14173 8.57556 4.10173 9.35996 5.14807C8.58156 4.74801 7.83476 4.26801 7.11996 3.70807C6.38076 3.54915 5.63396 3.49581 4.87996 3.54807C5.09316 3.12141 5.41316 2.80141 5.83996 2.58807C6.12496 2.39293 6.44496 2.28627 6.79996 2.26807Z" fill="#205CC9"/>
<path fill-rule="evenodd" clip-rule="evenodd" d="M4.87956 3.54821C5.63376 3.49595 6.38056 3.54929 7.11956 3.70821C7.83456 4.26815 8.58136 4.74815 9.35956 5.14821C9.36296 5.63377 9.57636 6.00711 9.99956 6.26821C9.48556 6.60389 9.27216 7.08389 9.35956 7.70821C8.57176 8.65665 7.71856 9.56331 6.79956 10.4283C6.45516 10.5785 6.13516 10.5251 5.83956 10.2683C4.87096 9.51285 4.01756 8.65953 3.27964 7.70821C3.21466 7.21403 3.0013 6.78735 2.63964 6.42821C3.0013 6.06907 3.21466 5.64239 3.27964 5.14821C3.69756 4.51695 4.23096 3.98359 4.87956 3.54821Z" fill="#0E56D4"/>
<path fill-rule="evenodd" clip-rule="evenodd" d="M9.35996 5.14795C10.0278 5.49503 10.4544 6.02833 10.64 6.74795C10.2132 7.06795 9.78656 7.38795 9.35996 7.70795C9.27236 7.08363 9.48576 6.60363 9.99996 6.26795C9.57656 6.00687 9.36336 5.63353 9.35996 5.14795Z" fill="#1D5ABE"/>
<path fill-rule="evenodd" clip-rule="evenodd" d="M26.3198 10.2679C26.1116 10.4569 25.8982 10.6703 25.6798 10.9079C24.2894 9.67732 22.956 8.39732 21.6798 7.06788C21.5254 6.76452 21.4722 6.44452 21.5198 6.10788C22.8334 4.95524 24.1134 3.72858 25.3598 2.42788C25.8104 2.32702 26.237 2.43366 26.6398 2.74788C27.711 4.0315 28.7774 5.3115 29.8398 6.58788C28.667 7.81446 27.4936 9.04112 26.3198 10.2679Z" fill="#1357D3"/>
<path fill-rule="evenodd" clip-rule="evenodd" d="M3.27934 5.14795C3.21434 5.64213 3.001 6.06881 2.63934 6.42795C3.001 6.78709 3.21434 7.21377 3.27934 7.70795C1.99934 6.85461 1.99934 6.00129 3.27934 5.14795Z" fill="#5380D2"/>
<path fill-rule="evenodd" clip-rule="evenodd" d="M21.5196 6.10791C21.472 6.44455 21.525 6.76455 21.6796 7.06791C22.9558 8.39735 24.2892 9.67735 25.6796 10.9079C25.8978 10.6703 26.1112 10.4569 26.3196 10.2679C26.3234 11.1133 25.8968 11.5401 25.0396 11.5479C23.8662 9.73457 22.373 8.24125 20.5596 7.06791C20.8796 6.74791 21.1996 6.42791 21.5196 6.10791Z" fill="#AFE6F7"/>
<path fill-rule="evenodd" clip-rule="evenodd" d="M10.6398 6.74829C11.053 6.67237 11.373 6.77901 11.5998 7.06829C10.2464 7.88605 9.07316 8.95275 8.07976 10.2683C7.59016 10.4959 7.16356 10.8159 6.79976 11.2283C6.35176 11.0363 6.03176 10.7163 5.83976 10.2683C6.13536 10.5253 6.45536 10.5785 6.79976 10.4283C7.71876 9.56341 8.57196 8.65675 9.35976 7.70829C9.78656 7.38829 10.2132 7.06829 10.6398 6.74829Z" fill="#9EDBF7"/>
<path fill-rule="evenodd" clip-rule="evenodd" d="M20.5594 7.06787C22.3728 8.24121 23.866 9.73453 25.0394 11.5479C23.7594 12.8279 22.4794 14.1079 21.1994 15.3879C20.8628 15.4357 20.5428 15.3823 20.2394 15.2279C19.0014 13.9361 17.7214 12.7093 16.3994 11.5479C17.562 9.85169 18.9486 8.35847 20.5594 7.06787Z" fill="#19A4F4"/>
<path fill-rule="evenodd" clip-rule="evenodd" d="M11.5998 7.06787C12.1332 7.70787 12.6666 8.34787 13.1998 8.98787C13.0378 9.42273 12.7178 9.74273 12.2398 9.94789C12.6482 10.3141 13.0748 10.3141 13.5198 9.94789C13.7932 10.2749 14.1132 10.5415 14.4798 10.7479C13.7146 10.9691 13.7146 11.2891 14.4798 11.7079C14.022 11.8567 13.6486 12.1235 13.3598 12.5079C12.8988 12.2647 12.4188 12.0515 11.9198 11.8679C10.919 13.1855 10.0656 13.0789 9.35976 11.5479C9.74176 10.8993 10.275 10.4193 10.9598 10.1079C10.313 10.0631 9.72636 10.0097 9.19976 9.94789C9.14376 11.0519 9.09056 12.1185 9.03976 13.1479C8.77536 12.6161 8.40196 12.1893 7.91976 11.8679C7.79676 11.3249 7.85016 10.7917 8.07976 10.2679C9.07316 8.95233 10.2464 7.88563 11.5998 7.06787Z" fill="#0BA3F7"/>
<path fill-rule="evenodd" clip-rule="evenodd" d="M13.1998 8.98828C13.8398 9.52162 14.4798 10.0549 15.1198 10.5883C15.217 10.7963 15.3238 11.0095 15.4398 11.2283C14.106 12.9935 12.506 14.3801 10.6398 15.3883C9.25116 14.1061 7.97116 12.7195 6.79976 11.2283C7.16356 10.8159 7.59016 10.4959 8.07976 10.2683C7.85016 10.7921 7.79676 11.3253 7.91976 11.8683C8.40196 12.1897 8.77516 12.6165 9.03976 13.1483C9.09036 12.1189 9.14376 11.0523 9.19976 9.94828C9.72636 10.0101 10.313 10.0635 10.9598 10.1083C10.275 10.4197 9.74156 10.8997 9.35976 11.5483C10.0656 13.0793 10.919 13.1859 11.9198 11.8683C12.4186 12.0519 12.8986 12.2651 13.3598 12.5083C13.6486 12.1239 14.022 11.8571 14.4798 11.7083C13.7146 11.2895 13.7146 10.9695 14.4798 10.7483C14.1132 10.5419 13.7932 10.2753 13.5198 9.94828C13.0748 10.3145 12.648 10.3145 12.2398 9.94828C12.7178 9.74312 13.0378 9.42312 13.1998 8.98828Z" fill="#1DA4EE"/>
<path fill-rule="evenodd" clip-rule="evenodd" d="M15.1196 10.5879C15.5464 10.9079 15.973 11.2279 16.3996 11.5479C17.7216 12.7093 19.0016 13.9361 20.2396 15.2279C20.543 15.3825 20.863 15.4357 21.1996 15.3879C21.0106 15.5963 20.7974 15.8097 20.5596 16.0279C21.0374 16.2331 21.3574 16.5531 21.5196 16.9879C21.2242 16.7309 20.9042 16.6777 20.5596 16.8279C18.9404 17.9135 17.6604 19.3001 16.7196 20.9879C16.8762 21.3523 16.9826 21.7255 17.0396 22.1079C16.693 22.0955 16.373 21.9885 16.0796 21.7879C15.0366 22.6033 14.0234 23.4563 13.0396 24.3479C12.8246 25.4775 12.1314 25.9041 10.9596 25.6279C11.1134 26.8595 10.5802 27.4995 9.35956 27.5479C9.34936 26.8699 9.66936 26.4433 10.3196 26.2679C10.609 26.0411 10.7156 25.7211 10.6396 25.3079C11.5396 25.4599 12.1796 25.1399 12.5596 24.3479C13.5578 23.2939 14.5178 22.1739 15.4396 20.9879C14.5836 20.0275 13.7302 19.0675 12.8796 18.1079C12.6894 17.9593 12.476 17.9059 12.2396 17.9479C12.0934 17.2207 11.6668 16.7939 10.9596 16.6679C11.0932 16.4369 11.3066 16.2769 11.5996 16.1879C11.0814 16.1125 10.7614 15.8459 10.6396 15.3879C12.5058 14.3797 14.1058 12.9931 15.4396 11.2279C15.3236 11.0091 15.2168 10.7959 15.1196 10.5879Z" fill="#C9F6F9"/>
<path fill-rule="evenodd" clip-rule="evenodd" d="M21.5198 16.9883C22.5776 18.2597 23.7512 19.4329 25.0398 20.5083C24.0564 22.1007 22.883 23.5407 21.5198 24.8283C21.106 24.9851 20.6792 25.0385 20.2398 24.9883C19.3806 23.8097 18.314 22.8497 17.0398 22.1083C16.9828 21.7259 16.8762 21.3527 16.7198 20.9883C17.6606 19.3005 18.9406 17.9139 20.5598 16.8283C20.9044 16.6781 21.2244 16.7313 21.5198 16.9883Z" fill="#1DA4F4"/>
<path fill-rule="evenodd" clip-rule="evenodd" d="M10.9598 16.6679C11.667 16.7941 12.0936 17.2207 12.2398 17.9479C11.7564 17.6271 11.223 17.4139 10.6398 17.3079C10.5578 18.0415 10.6644 18.7349 10.9598 19.3879C10.5622 19.4877 10.2422 19.3277 9.99976 18.9079C9.05256 19.4691 8.46596 20.2159 8.23976 21.1479C8.52556 20.7603 8.79216 20.7603 9.03976 21.1479C8.56196 21.3531 8.24196 21.6731 8.07976 22.1079C7.65316 21.7879 7.22636 21.4679 6.79976 21.1479C7.96936 19.4453 9.35596 17.9521 10.9598 16.6679Z" fill="#30A4E9"/>
<path fill-rule="evenodd" clip-rule="evenodd" d="M12.2402 17.9481C12.4766 17.9061 12.69 17.9595 12.8802 18.1081C13.7306 19.0677 14.584 20.0277 15.4402 20.9881C14.5182 22.1741 13.5582 23.2941 12.5602 24.3481C11.9806 24.7711 11.3406 24.9311 10.6402 24.8281C9.81856 23.8671 8.96536 22.9605 8.08016 22.1081C8.24216 21.6733 8.56216 21.3533 9.04016 21.1481C8.79236 20.7605 8.52576 20.7605 8.24016 21.1481C8.46616 20.2159 9.05276 19.4693 10.0002 18.9081C10.2426 19.3277 10.5626 19.4877 10.9602 19.3881C10.6648 18.7351 10.558 18.0417 10.6402 17.3081C11.2232 17.4139 11.7566 17.6273 12.2402 17.9481Z" fill="#11A3F6"/>
<path fill-rule="evenodd" clip-rule="evenodd" d="M25.0402 20.5083C25.3296 20.7351 25.4362 21.0551 25.3602 21.4683C25.1468 21.7883 24.9338 22.1083 24.7202 22.4283C23.2822 23.4363 22.2154 24.7163 21.5202 26.2683C21.231 26.0415 21.1244 25.7215 21.2002 25.3083C20.7872 25.3841 20.4672 25.2775 20.2402 24.9883C20.6796 25.0385 21.1066 24.9851 21.5202 24.8283C22.8834 23.5407 24.057 22.1007 25.0402 20.5083Z" fill="#9ADCF4"/>
<path fill-rule="evenodd" clip-rule="evenodd" d="M25.3602 21.4683C26.063 21.8965 26.703 22.4299 27.2802 23.0683C27.2802 23.4949 27.2802 23.9217 27.2802 24.3483C27.6562 24.2781 27.9762 24.3847 28.2402 24.6683C26.901 26.3681 27.061 26.5815 28.7202 25.3083C28.877 25.7221 28.9304 26.1489 28.8802 26.5883C28.5282 26.9419 28.3148 27.3685 28.2402 27.8683C27.5058 28.0717 26.9728 28.4983 26.6402 29.1483C26.0352 28.8167 25.4486 28.8167 24.8802 29.1483C24.7452 28.5319 24.3718 28.2119 23.7602 28.1883C22.9068 27.9749 22.3736 27.4417 22.1602 26.5883C22.1574 26.0097 22.3174 25.4763 22.6402 24.9883C23.5304 24.2615 24.224 23.4085 24.7202 22.4283C24.9336 22.1083 25.1468 21.7883 25.3602 21.4683Z" fill="#0D55D6"/>
<path fill-rule="evenodd" clip-rule="evenodd" d="M24.7196 22.4283C24.2232 23.4083 23.5298 24.2615 22.6396 24.9883C22.3166 25.4763 22.1566 26.0097 22.1596 26.5883C21.9462 26.4817 21.733 26.3747 21.5196 26.2683C22.2146 24.7163 23.2814 23.4363 24.7196 22.4283Z" fill="#1F58BA"/>
<path fill-rule="evenodd" clip-rule="evenodd" d="M6.16016 21.4683C6.26956 21.2001 6.48276 21.0933 6.80016 21.1483C7.22676 21.4683 7.65356 21.7883 8.08016 22.1083C8.96536 22.9607 9.81876 23.8673 10.6402 24.8283C11.3406 24.9313 11.9806 24.7713 12.5602 24.3483C12.1802 25.1403 11.5402 25.4603 10.6402 25.3083C10.7162 25.7215 10.6094 26.0415 10.3202 26.2683C9.64516 24.4159 8.47196 22.9223 6.80016 21.7883C6.69076 21.5201 6.47756 21.4133 6.16016 21.4683Z" fill="#95DAF1"/>
<path fill-rule="evenodd" clip-rule="evenodd" d="M27.2794 23.0679C28.3446 23.8147 29.198 24.7747 29.8394 25.9479C29.7232 26.1665 29.6166 26.3799 29.5194 26.5879C29.3058 26.5879 29.0928 26.5879 28.8794 26.5879C28.9296 26.1485 28.8762 25.7217 28.7194 25.3079C27.0602 26.5811 26.9002 26.3677 28.2394 24.6679C27.9754 24.3843 27.6554 24.2779 27.2794 24.3479C27.2794 23.9213 27.2794 23.4945 27.2794 23.0679Z" fill="#2C5FC9"/>
<path fill-rule="evenodd" clip-rule="evenodd" d="M6.15996 21.4681C6.47736 21.4131 6.69056 21.5199 6.79996 21.7881C5.51176 22.7395 4.28516 23.8063 3.12 24.9881C2.90666 25.4147 2.90666 25.8415 3.12 26.2681C3.57482 26.8777 3.94816 27.5177 4.23996 28.1881C3.34816 27.4777 2.6015 26.6245 2 25.6281C3.28672 24.1279 4.67336 22.7413 6.15996 21.4681Z" fill="#3B6AC1"/>
<path fill-rule="evenodd" clip-rule="evenodd" d="M6.79996 21.7881C8.47176 22.9221 9.64496 24.4157 10.32 26.2681C9.66956 26.4435 9.34956 26.8701 9.35996 27.5481C8.21436 28.1587 7.25436 29.0117 6.47996 30.1081C5.71896 29.4515 4.97236 28.8115 4.23996 28.1881C3.94816 27.5177 3.57478 26.8777 3.11996 26.2681C2.90662 25.8415 2.90662 25.4147 3.11996 24.9881C4.28516 23.8063 5.51176 22.7395 6.79996 21.7881Z" fill="#0E55D5"/>
<path fill-rule="evenodd" clip-rule="evenodd" d="M28.8802 26.5879C29.0938 26.5879 29.3068 26.5879 29.5202 26.5879C29.2002 27.1213 28.7738 27.5479 28.2402 27.8679C28.3148 27.3681 28.5282 26.9415 28.8802 26.5879Z" fill="#98B7E9"/>
<path fill-rule="evenodd" clip-rule="evenodd" d="M23.7598 28.1881C24.3714 28.2117 24.7448 28.5317 24.8798 29.1481C25.4482 28.8165 26.0346 28.8165 26.6398 29.1481C26.0232 30.3457 25.2762 30.3993 24.3998 29.3081C24.1422 28.9519 23.9288 28.5787 23.7598 28.1881Z" fill="#285FBA"/>
</svg>
