<svg width="32" height="32" viewBox="0 0 33 33" fill="none" xmlns="http://www.w3.org/2000/svg">
    <path opacity="0.935" fill-rule="evenodd" clip-rule="evenodd"
        d="M5.96683 0.5C7.25572 0.5 8.5446 0.5 9.8335 0.5C10.1077 0.617516 10.3966 0.726918 10.7002 0.828205C11.6092 3.06584 12.5203 5.30857 13.4335 7.55641C12.8069 7.69386 12.1847 7.85797 11.5668 8.04872C8.94791 5.94391 6.37014 3.75586 3.8335 1.48462C4.51064 1.00439 5.22175 0.676187 5.96683 0.5Z"
        fill="#A4D20E" />
    <path opacity="0.919" fill-rule="evenodd" clip-rule="evenodd"
        d="M17.9667 3.78181C17.0333 4.98522 16.1 6.18865 15.1667 7.39207C14.2285 5.46777 13.3396 3.49854 12.5 1.48438C14.4292 1.82171 16.2515 2.58752 17.9667 3.78181Z"
        fill="#A3D20F" />
    <path opacity="0.944" fill-rule="evenodd" clip-rule="evenodd"
        d="M0.5 9.36163C0.5 8.21291 0.5 7.06419 0.5 5.91547C0.836123 4.32794 1.56946 3.06984 2.7 2.14111C5.38236 4.35177 7.98236 6.67655 10.5 9.11547C10.2668 9.82298 10.1779 10.5614 10.2333 11.3309C6.99139 10.6567 3.74695 10.0003 0.5 9.36163Z"
        fill="#A5D20E" />
    <path opacity="0.937" fill-rule="evenodd" clip-rule="evenodd"
        d="M17.9665 3.78223C18.8728 4.25768 19.7172 4.8594 20.4998 5.58735C19.612 6.89888 18.6786 8.157 17.6998 9.36171C16.9654 8.90495 16.21 8.49469 15.4332 8.13094C15.2889 7.91274 15.2 7.66658 15.1665 7.39248C16.0998 6.18907 17.0332 4.98564 17.9665 3.78223Z"
        fill="#A1D110" />
    <path opacity="0.952" fill-rule="evenodd" clip-rule="evenodd"
        d="M10.3665 13.1357C8.6332 15.3237 6.89987 17.5118 5.16654 19.6998C3.69614 17.8901 2.51836 15.8115 1.6332 13.4639C1.35598 12.7824 1.15598 12.0713 1.0332 11.3306C4.17471 11.8293 7.28582 12.431 10.3665 13.1357Z"
        fill="#A3D20F" />
    <path opacity="0.955" fill-rule="evenodd" clip-rule="evenodd"
        d="M10.3665 13.136C10.5428 13.1081 10.6983 13.1628 10.8332 13.3001C11.4009 14.4094 12.0454 15.4487 12.7665 16.418C11.1457 18.5499 9.54568 20.7106 7.9665 22.9001C6.85768 22.1114 5.92434 21.0447 5.1665 19.7001C6.89984 17.5121 8.63317 15.324 10.3665 13.136Z"
        fill="#A1D110" />
    <path opacity="0.957" fill-rule="evenodd" clip-rule="evenodd"
        d="M23.3 32.5C23.2556 32.5 23.2111 32.5 23.1667 32.5C18.5377 31.348 14.3155 29.0506 10.5 25.6077C11.9162 23.1596 13.4273 20.8075 15.0333 18.5513C16.1943 19.4161 17.4165 20.1271 18.7 20.6846C20.2976 24.5881 21.8309 28.5266 23.3 32.5Z"
        fill="black" />
    <path opacity="0.878" fill-rule="evenodd" clip-rule="evenodd"
        d="M24.0999 20.8488C23.4332 21.724 22.7665 22.5993 22.0999 23.4745C21.7039 22.7606 21.3483 21.9949 21.0332 21.177C21.8701 21.0165 22.6256 20.6337 23.2999 20.0283C23.6253 20.2267 23.892 20.5003 24.0999 20.8488Z"
        fill="#9CD012" />
    <path opacity="0.96" fill-rule="evenodd" clip-rule="evenodd"
        d="M24.1001 20.8486C27.0129 23.1215 29.8129 25.583 32.5001 28.2332C31.9525 29.8644 31.0192 31.0406 29.7001 31.7615C29.1144 32.0357 28.5366 32.2818 27.9668 32.4999C27.2557 32.4999 26.5445 32.4999 25.8334 32.4999C24.589 29.4914 23.3445 26.4828 22.1001 23.4743C22.7668 22.5991 23.4334 21.7238 24.1001 20.8486Z"
        fill="#9ACF13" />
</svg>