<svg width="32" height="32" viewBox="0 0 32 32" fill="none" xmlns="http://www.w3.org/2000/svg">
<g clip-path="url(#clip0_20_196)">
<path fill-rule="evenodd" clip-rule="evenodd" d="M22.8 5.20011C22.8285 5.39128 22.8818 5.57795 22.96 5.76011C22.9063 5.92489 22.7995 6.00489 22.64 6.00011C22.4069 5.63454 22.0869 5.34121 21.68 5.12011C20.9037 4.98969 20.157 5.01637 19.44 5.20011C18.8957 5.17489 18.3623 5.22824 17.84 5.36011C17.7731 5.24465 17.6666 5.16465 17.52 5.12011C17.661 5.00678 17.7675 4.87345 17.84 4.72011C19.5679 4.19425 21.2211 4.35425 22.8 5.20011Z" fill="#3E342D"/>
<path fill-rule="evenodd" clip-rule="evenodd" d="M17.8401 4.71997C17.7676 4.87331 17.661 5.00664 17.5201 5.11997C17.6666 5.16451 17.7732 5.24451 17.8401 5.35997C17.1118 5.63635 16.7118 6.1697 16.6401 6.95997C16.5334 7.8133 16.5334 8.66664 16.6401 9.51997C16.6442 8.93135 16.7777 8.39802 17.0401 7.91997C16.9234 8.66083 16.87 9.40751 16.8801 10.16C16.7734 10.16 16.6668 10.16 16.5601 10.16C16.4537 9.6293 16.4002 9.0693 16.4001 8.47997C16.3991 7.62835 16.4791 6.80168 16.6401 5.99997C15.9518 6.71599 15.4984 7.56931 15.2801 8.55997C15.1734 8.4533 15.0668 8.34664 14.9601 8.23997C14.809 7.68208 14.4356 7.46875 13.8401 7.59997C13.8934 7.4933 13.9468 7.38664 14.0001 7.27997C14.4354 7.38247 14.8621 7.46247 15.2801 7.51997C15.7169 6.20323 16.5703 5.26989 17.8401 4.71997Z" fill="#544334"/>
<path fill-rule="evenodd" clip-rule="evenodd" d="M22.6399 6.00002C22.3929 6.03252 22.1795 6.13919 21.9999 6.32002C21.7988 6.66865 21.5588 6.98865 21.2799 7.28002C21.1615 6.98903 20.9748 6.77569 20.7199 6.64002C20.6329 6.3073 20.4995 5.9873 20.3199 5.68002C19.9665 5.60175 19.6732 5.44175 19.4399 5.20002C20.1569 5.01628 20.9036 4.98961 21.6799 5.12002C22.0868 5.34113 22.4068 5.63446 22.6399 6.00002Z" fill="#7D5F35"/>
<path fill-rule="evenodd" clip-rule="evenodd" d="M13.84 7.12003C13.84 6.80003 13.84 6.48003 13.84 6.16003C14.091 5.66699 14.0377 5.21364 13.68 4.80003C13.1965 4.69539 12.8765 4.88204 12.72 5.36003C12.4581 5.67606 12.1914 5.99606 11.92 6.32003C10.4974 6.11396 9.32409 6.54064 8.39999 7.60003C8.1555 7.59726 8.0755 7.49059 8.15999 7.28003C8.66491 6.93491 9.11823 6.53491 9.51999 6.08003C10.272 5.97273 11.0186 5.8394 11.76 5.68003C12.1163 5.34294 12.4363 4.96961 12.72 4.56003C13.137 4.37576 13.5636 4.34908 14 4.48003C14.2744 4.60436 14.4344 4.81771 14.48 5.12003C14.211 5.69416 14.1044 6.30748 14.16 6.96003C14.3283 6.93611 14.4883 6.96278 14.64 7.04003C14.3785 7.11899 14.1119 7.14566 13.84 7.12003Z" fill="#EEEBED"/>
<path fill-rule="evenodd" clip-rule="evenodd" d="M13.84 6.15992C13.4901 5.85246 13.1168 5.58579 12.72 5.35992C12.8765 4.88194 13.1965 4.69528 13.68 4.79992C14.0377 5.21354 14.091 5.66688 13.84 6.15992Z" fill="#52443A"/>
<path fill-rule="evenodd" clip-rule="evenodd" d="M22.7999 5.19995C23.1842 5.58542 23.611 5.90542 24.0799 6.15995C24.1124 6.40704 24.2191 6.62038 24.3999 6.79995C24.2615 6.81018 24.1015 6.86352 23.9199 6.95995C23.3422 6.83806 22.7554 6.75806 22.1599 6.71995C22.3017 6.4616 22.4617 6.2216 22.6399 5.99995C22.7994 6.00474 22.9062 5.92474 22.9599 5.75995C22.8817 5.57779 22.8284 5.39112 22.7999 5.19995Z" fill="#261D1E"/>
<path fill-rule="evenodd" clip-rule="evenodd" d="M19.4401 5.19992C19.6734 5.44165 19.9667 5.60165 20.3201 5.67992C20.4996 5.9872 20.6331 6.3072 20.7201 6.63992C20.6654 6.77403 20.5588 6.82737 20.4001 6.79992C19.0462 5.76739 17.9796 5.98073 17.2001 7.43992C17.2001 7.49325 17.2001 7.54659 17.2001 7.59992C17.066 7.65459 17.0126 7.76126 17.0401 7.91992C16.7777 8.39797 16.6443 8.93129 16.6401 9.51992C16.5334 8.66659 16.5334 7.81325 16.6401 6.95992C16.7118 6.16965 17.1118 5.6363 17.8401 5.35992C18.3623 5.22805 18.8958 5.1747 19.4401 5.19992Z" fill="#2A251D"/>
<path fill-rule="evenodd" clip-rule="evenodd" d="M11.92 6.32011C11.7936 6.46432 11.6336 6.57097 11.44 6.64011C10.3642 6.64467 9.51089 7.07134 8.88005 7.92011C8.61232 8.05499 8.42565 8.26832 8.32005 8.56011C8.24032 9.0908 8.21365 9.62412 8.24005 10.1601C8.0827 9.55236 8.02936 8.91236 8.08005 8.24011C8.21518 8.05267 8.32185 7.83934 8.40005 7.60011C9.32414 6.54072 10.4975 6.11404 11.92 6.32011Z" fill="#554A44"/>
<path fill-rule="evenodd" clip-rule="evenodd" d="M5.35993 7.5999C5.25326 7.5999 5.14661 7.5999 5.03993 7.5999C4.77326 7.5999 4.50661 7.5999 4.23993 7.5999C4.13326 7.5999 4.02661 7.5999 3.91993 7.5999C3.65169 7.49055 3.54502 7.27721 3.59993 6.9599C4.30862 6.87534 4.89528 7.08868 5.35993 7.5999Z" fill="#4D4634"/>
<path fill-rule="evenodd" clip-rule="evenodd" d="M12.7201 5.36011C13.1169 5.58598 13.4902 5.85265 13.8401 6.16011C13.8401 6.48011 13.8401 6.80011 13.8401 7.12011C13.8401 7.22678 13.8934 7.28011 14.0001 7.28011C13.9468 7.38678 13.8934 7.49344 13.8401 7.60011C13.3153 8.06484 13.102 8.6515 13.2001 9.36011C13.0846 9.29331 13.0046 9.18664 12.9601 9.04011C12.8989 9.12907 12.8189 9.1824 12.7201 9.20011C12.9632 8.46974 13.1765 7.72308 13.3601 6.96011C13.5382 6.72868 13.5648 6.46201 13.4401 6.16011C13.3328 6.03972 13.1994 5.98638 13.0401 6.00011C12.5419 6.09472 12.1419 6.36139 11.8401 6.80011C11.8206 7.08516 11.9006 7.35182 12.0801 7.60011C11.3939 7.55841 11.1805 7.23841 11.4401 6.64011C11.6336 6.57097 11.7936 6.46432 11.9201 6.32011C12.1915 5.99614 12.4582 5.67614 12.7201 5.36011Z" fill="#5E4F1B"/>
<path fill-rule="evenodd" clip-rule="evenodd" d="M13.04 5.99991C13.1993 5.98618 13.3326 6.03953 13.44 6.15991C13.5647 6.46181 13.538 6.72849 13.36 6.95991C13.247 6.79074 13.1937 6.84409 13.2 7.11991C12.7973 6.86757 12.7973 6.57425 13.2 6.23991C13.111 6.17869 13.0577 6.09869 13.04 5.99991Z" fill="#B09A24"/>
<path fill-rule="evenodd" clip-rule="evenodd" d="M13.04 6C13.0577 6.09878 13.1111 6.17878 13.2 6.24C12.7973 6.57434 12.7973 6.86766 13.2 7.12C13.065 7.48149 12.7983 7.64149 12.4 7.6C12.2933 7.6 12.1867 7.6 12.08 7.6C11.9005 7.35171 11.8205 7.08506 11.84 6.8C12.1418 6.36128 12.5418 6.09461 13.04 6Z" fill="#EACF34"/>
<path fill-rule="evenodd" clip-rule="evenodd" d="M5.04004 7.6001C5.14671 7.6001 5.25337 7.6001 5.36004 7.6001C5.8754 7.66347 6.30207 7.87682 6.64004 8.2401C5.98932 8.28709 5.45599 8.07375 5.04004 7.6001Z" fill="#726128"/>
<path fill-rule="evenodd" clip-rule="evenodd" d="M11.4401 6.63989C11.1805 7.2382 11.3939 7.5582 12.0801 7.59989C12.2186 7.86293 12.2986 8.1296 12.3201 8.39989C12.2098 8.53696 12.0765 8.64362 11.9201 8.71989C11.7405 8.53906 11.5272 8.43239 11.2801 8.39989C10.9719 8.28112 10.6786 8.12112 10.4001 7.91989C10.4241 8.24079 10.5041 8.56079 10.6401 8.87989C10.7625 9.29527 10.8159 9.72194 10.8001 10.1599C10.5803 10.185 10.367 10.1583 10.1601 10.0799C9.96861 9.75744 9.75529 9.4641 9.52007 9.19989C9.54101 9.05967 9.48767 8.953 9.36007 8.87989C9.21903 9.30074 9.11237 9.72741 9.04007 10.1599C8.82674 10.3732 8.6134 10.3732 8.40007 10.1599C8.32681 9.3518 8.48681 8.60512 8.88007 7.91989C9.51092 7.07112 10.3642 6.64445 11.4401 6.63989Z" fill="#D5C4A7"/>
<path fill-rule="evenodd" clip-rule="evenodd" d="M11.2799 8.39992C11.0727 8.55807 10.8594 8.71807 10.6399 8.87992C10.504 8.56082 10.424 8.24082 10.3999 7.91992C10.6784 8.12115 10.9718 8.28115 11.2799 8.39992Z" fill="#4A3C2C"/>
<path fill-rule="evenodd" clip-rule="evenodd" d="M13.3601 6.95999C13.1766 7.72296 12.9632 8.46962 12.7201 9.19999C12.5068 9.35999 12.2934 9.51999 12.0801 9.67999C12.0801 9.51999 12.0801 9.35999 12.0801 9.19999C11.8512 9.21266 11.6379 9.15931 11.4401 9.03999C11.1598 9.5732 11.3198 9.83987 11.9201 9.83999C11.7385 10.1141 11.4718 10.2208 11.1201 10.16C11.1201 9.73331 11.1201 9.30666 11.1201 8.87999C12.383 9.21431 12.8097 8.78763 12.4001 7.59999C12.7984 7.64147 13.0651 7.48147 13.2001 7.11999C13.1938 6.84416 13.2472 6.79082 13.3601 6.95999Z" fill="#CEBC3A"/>
<path fill-rule="evenodd" clip-rule="evenodd" d="M13.8399 7.59998C14.4355 7.46876 14.8088 7.68209 14.9599 8.23998C14.9864 8.88219 14.9598 9.52219 14.8799 10.16C14.8389 9.67086 14.7589 9.19086 14.6399 8.71998C14.2331 8.29432 13.8865 8.34764 13.5999 8.87998C13.4797 9.42296 13.5063 9.9563 13.6799 10.48C13.9917 10.8062 14.3383 10.8062 14.7199 10.48C14.7466 10.5333 14.7733 10.5867 14.7999 10.64C14.6233 11.0482 14.4099 11.4215 14.1599 11.76C13.8592 11.8033 13.6459 11.6967 13.5199 11.44C13.865 11.3515 13.8384 11.1915 13.4399 10.96C13.2731 10.4389 13.1931 9.90556 13.1999 9.35998C13.1018 8.65137 13.3151 8.06472 13.8399 7.59998Z" fill="#765D3E"/>
<path fill-rule="evenodd" clip-rule="evenodd" d="M8.88007 7.91992C8.48681 8.60515 8.32681 9.35183 8.40007 10.1599C8.34675 10.1599 8.2934 10.1599 8.24007 10.1599C8.21367 9.62394 8.24035 9.09061 8.32007 8.55992C8.42567 8.26813 8.61235 8.0548 8.88007 7.91992Z" fill="#B8A799"/>
<path fill-rule="evenodd" clip-rule="evenodd" d="M12.08 9.68004C12.08 9.78671 12.0266 9.84004 11.92 9.84004C11.3197 9.83993 11.1597 9.57326 11.44 9.04004C11.6378 9.15937 11.8511 9.21271 12.08 9.20004C12.08 9.36004 12.08 9.52004 12.08 9.68004Z" fill="#F1DD24"/>
<path fill-rule="evenodd" clip-rule="evenodd" d="M9.52004 9.19988C9.46671 9.51988 9.41337 9.83988 9.36004 10.1599C9.25337 10.1599 9.14671 10.1599 9.04004 10.1599C9.11234 9.7274 9.219 9.30073 9.36004 8.87988C9.48764 8.95299 9.54098 9.05966 9.52004 9.19988Z" fill="#4E3D2E"/>
<path fill-rule="evenodd" clip-rule="evenodd" d="M12.0801 7.6001C12.1868 7.6001 12.2934 7.6001 12.4001 7.6001C12.8097 8.78775 12.383 9.21442 11.1201 8.8801C11.1201 9.30677 11.1201 9.73343 11.1201 10.1601C11.4718 10.2209 11.7384 10.1142 11.9201 9.8401C12.0268 9.8401 12.0801 9.78677 12.0801 9.6801C12.2934 9.5201 12.5068 9.3601 12.7201 9.2001C12.7201 9.3601 12.7201 9.5201 12.7201 9.6801C12.0663 10.2735 11.3196 10.7002 10.4801 10.9601C10.3734 10.9601 10.2668 10.9601 10.1601 10.9601C10.219 10.4602 10.0324 10.0869 9.60011 9.8401C9.55556 9.98663 9.47556 10.0933 9.36011 10.1601C9.41344 9.8401 9.46678 9.5201 9.52011 9.2001C9.75532 9.46431 9.96865 9.75765 10.1601 10.0801C10.367 10.1585 10.5804 10.1852 10.8001 10.1601C10.8159 9.72215 10.7626 9.29547 10.6401 8.8801C10.8596 8.71824 11.0729 8.55824 11.2801 8.4001C11.5272 8.43259 11.7405 8.53927 11.9201 8.7201C12.0765 8.64383 12.2099 8.53717 12.3201 8.4001C12.2986 8.12981 12.2186 7.86314 12.0801 7.6001Z" fill="#756023"/>
<path fill-rule="evenodd" clip-rule="evenodd" d="M4.24002 7.6001C4.50669 7.6001 4.77335 7.6001 5.04002 7.6001C5.45597 8.07375 5.9893 8.28709 6.64002 8.2401C6.95018 8.50615 7.32351 8.6128 7.76002 8.5601C7.76002 9.09343 7.76002 9.62677 7.76002 10.1601C8.30634 10.7829 8.83967 10.7829 9.36002 10.1601C9.47548 10.0933 9.55548 9.98663 9.60002 9.8401C10.0323 10.0869 10.2189 10.4602 10.16 10.9601C9.79113 11.0389 9.41778 11.0922 9.04002 11.1201C6.76354 11.5684 5.13687 10.7684 4.16002 8.7201C4.04749 8.33144 4.07417 7.9581 4.24002 7.6001Z" fill="#DCCA32"/>
<path fill-rule="evenodd" clip-rule="evenodd" d="M6.63989 9.8399C5.52167 9.91509 4.855 9.43509 4.63989 8.3999C5.13429 9.2159 5.85429 9.6159 6.79989 9.5999C6.71093 9.66112 6.6576 9.74112 6.63989 9.8399Z" fill="#866B07"/>
<path fill-rule="evenodd" clip-rule="evenodd" d="M7.75993 10.16C7.75993 10.4267 7.75993 10.6933 7.75993 10.96C7.00089 11.0337 6.36089 10.7937 5.83993 10.24C6.19897 10.2321 6.46564 10.0988 6.63993 9.84002C6.84092 9.8462 7.00092 9.7662 7.11993 9.60002C6.76784 9.43311 6.39451 9.29978 5.99993 9.20002C5.90816 8.9506 5.8015 8.7106 5.67993 8.48002C6.21539 8.40055 6.69539 8.53389 7.11993 8.88002C7.2266 8.82669 7.33326 8.77335 7.43993 8.72002C7.54672 9.22269 7.65337 9.70269 7.75993 10.16Z" fill="#F9DF17"/>
<path fill-rule="evenodd" clip-rule="evenodd" d="M13.2 9.36004C13.1931 9.90562 13.2731 10.439 13.44 10.96C13.8384 11.1915 13.8651 11.3515 13.52 11.44C13.2884 11.2605 13.1284 11.0205 13.04 10.72C12.8901 10.6094 12.7834 10.636 12.72 10.8C12.5859 10.7454 12.5325 10.6387 12.56 10.48C12.7122 10.253 12.7655 9.98639 12.72 9.68004C12.72 9.52004 12.72 9.36004 12.72 9.20004C12.8188 9.18233 12.8988 9.129 12.96 9.04004C13.0045 9.18657 13.0845 9.29324 13.2 9.36004Z" fill="#413427"/>
<path fill-rule="evenodd" clip-rule="evenodd" d="M14.96 8.23999C15.0666 8.34666 15.1733 8.45332 15.28 8.55999C15.3064 9.2022 15.2798 9.8422 15.2 10.48C14.934 11.0636 14.6673 11.6503 14.4 12.24C14.3628 12.042 14.2828 11.882 14.16 11.76C14.41 11.4215 14.6233 11.0482 14.8 10.64C14.7733 10.5867 14.7466 10.5333 14.72 10.48C14.3383 10.8062 13.9917 10.8062 13.68 10.48C13.5063 9.95631 13.4797 9.42297 13.6 8.87999C13.8865 8.34765 14.2332 8.29433 14.64 8.71999C14.7589 9.19087 14.8389 9.67087 14.88 10.16C14.9598 9.5222 14.9864 8.8822 14.96 8.23999Z" fill="#563A1F"/>
<path fill-rule="evenodd" clip-rule="evenodd" d="M6.63989 8.23999C7.11989 8.23999 7.59989 8.23999 8.07989 8.23999C8.0292 8.91225 8.08255 9.55225 8.23989 10.16C8.29322 10.16 8.34656 10.16 8.39989 10.16C8.61322 10.3733 8.82656 10.3733 9.03989 10.16C9.14656 10.16 9.25322 10.16 9.35989 10.16C8.83954 10.7828 8.30621 10.7828 7.75989 10.16C7.75989 9.62666 7.75989 9.09332 7.75989 8.55999C7.32338 8.61269 6.95005 8.50604 6.63989 8.23999Z" fill="#5D4A14"/>
<path fill-rule="evenodd" clip-rule="evenodd" d="M23.44 9.51994C23.5467 10.7999 22.96 11.3866 21.68 11.2799C21.0067 10.7032 20.8733 10.0099 21.28 9.19994C22.1416 8.50328 22.8616 8.60996 23.44 9.51994Z" fill="#2B2621"/>
<path fill-rule="evenodd" clip-rule="evenodd" d="M3.91998 7.6001C4.02665 7.6001 4.13331 7.6001 4.23998 7.6001C4.07412 7.9581 4.04745 8.33144 4.15998 8.7201C5.13683 10.7684 6.7635 11.5684 9.03998 11.1201C9.03998 11.2268 9.03998 11.3334 9.03998 11.4401C8.23414 11.4541 7.43414 11.4007 6.63998 11.2801C4.69369 10.8266 3.78702 9.59989 3.91998 7.6001Z" fill="#6F6028"/>
<path fill-rule="evenodd" clip-rule="evenodd" d="M12.72 9.67993C12.7655 9.98628 12.7122 10.2529 12.56 10.4799C12.4218 10.6701 12.2618 10.8567 12.08 11.0399C11.5157 11.1691 10.9824 11.1425 10.48 10.9599C11.3195 10.7 12.0662 10.2734 12.72 9.67993Z" fill="#C5BA9C"/>
<path fill-rule="evenodd" clip-rule="evenodd" d="M16.5599 10.16C16.2508 10.8824 15.8507 11.5757 15.3599 12.24C15.331 12.7511 15.251 13.2311 15.1199 13.68C14.7221 13.3106 14.4021 12.8839 14.1599 12.4C14.1599 12.1867 14.1599 11.9733 14.1599 11.76C14.2828 11.882 14.3628 12.042 14.3999 12.24C14.6673 11.6503 14.9339 11.0636 15.1999 10.48C15.2797 9.84221 15.3064 9.20221 15.2799 8.56C15.4983 7.56934 15.9516 6.71602 16.6399 6C16.479 6.80171 16.399 7.62838 16.3999 8.48C16.4001 9.06933 16.4535 9.62933 16.5599 10.16Z" fill="#806035"/>
<path fill-rule="evenodd" clip-rule="evenodd" d="M12.56 10.48C12.5326 10.6386 12.5859 10.7453 12.72 10.8C12.5501 11.0559 12.5501 11.3225 12.72 11.6C11.8761 11.5075 11.0228 11.5341 10.16 11.68C9.5993 11.8343 9.54596 12.0743 10 12.4C9.89337 12.4 9.78671 12.4 9.68004 12.4C9.46671 12.1333 9.25337 11.8667 9.04004 11.6C9.04004 11.5467 9.04004 11.4933 9.04004 11.44C9.04004 11.3333 9.04004 11.2267 9.04004 11.12C9.4178 11.0921 9.79114 11.0388 10.16 10.96C10.2667 10.96 10.3734 10.96 10.48 10.96C10.9824 11.1425 11.5158 11.1692 12.08 11.04C12.2619 10.8568 12.4219 10.6701 12.56 10.48Z" fill="#5E4A2E"/>
<path fill-rule="evenodd" clip-rule="evenodd" d="M13.52 11.44C13.6459 11.6966 13.8592 11.8033 14.16 11.76C14.16 11.9733 14.16 12.1866 14.16 12.4C13.7058 12.0927 13.2258 11.8261 12.72 11.6C12.55 11.3225 12.55 11.0558 12.72 10.8C12.7834 10.636 12.8901 10.6093 13.04 10.72C13.1284 11.0204 13.2884 11.2604 13.52 11.44Z" fill="#DDD5CA"/>
<path fill-rule="evenodd" clip-rule="evenodd" d="M6.63989 11.28C7.43405 11.4007 8.23405 11.454 9.03989 11.44C9.03989 11.4934 9.03989 11.5467 9.03989 11.6C8.39768 11.6265 7.75768 11.5998 7.11989 11.52C6.92189 11.4829 6.76189 11.4029 6.63989 11.28Z" fill="#B3A895"/>
<path fill-rule="evenodd" clip-rule="evenodd" d="M23.4399 9.52002C23.5467 9.84002 23.6532 10.16 23.7599 10.48C23.6487 11.0265 23.382 11.4532 22.9599 11.76C22.5828 11.5043 22.1563 11.3443 21.6799 11.28C22.9599 11.3867 23.5467 10.8 23.4399 9.52002Z" fill="#A59E8D"/>
<path fill-rule="evenodd" clip-rule="evenodd" d="M22.6399 6C22.4617 6.22165 22.3017 6.46165 22.1599 6.72C22.7554 6.75811 23.3421 6.83811 23.9199 6.96C24.1015 6.86357 24.2615 6.81022 24.3999 6.8C24.2191 6.62043 24.1124 6.40709 24.0799 6.16C24.4189 6.39778 24.6589 6.71778 24.7999 7.12C24.8797 7.75779 24.9065 8.39779 24.8799 9.04C25.2644 9.02288 25.5577 9.18288 25.7599 9.52C25.7977 10.5955 25.5577 11.6088 25.0399 12.56C24.6129 12.9216 24.1329 13.135 23.5999 13.2C23.5999 13.3067 23.5999 13.4133 23.5999 13.52C23.4412 13.5475 23.3346 13.4941 23.2799 13.36C23.2866 12.7986 23.1801 12.2653 22.9599 11.76C23.382 11.4531 23.6487 11.0265 23.7599 10.48C24.1428 9.9439 24.3028 9.33058 24.2399 8.64C24.1866 8.29333 24.1332 7.94667 24.0799 7.6C23.8721 7.5056 23.7388 7.3456 23.6799 7.12C22.7725 6.79914 21.9725 6.95914 21.2799 7.6C20.9093 7.41594 20.6159 7.14926 20.3999 6.8C20.5586 6.82746 20.6652 6.77411 20.7199 6.64C20.9748 6.77566 21.1615 6.98901 21.2799 7.28C21.5588 6.98862 21.7988 6.66862 21.9999 6.32C22.1794 6.13917 22.3929 6.0325 22.6399 6Z" fill="#443627"/>
<path fill-rule="evenodd" clip-rule="evenodd" d="M24.7199 9.35998C24.9487 9.34731 25.1622 9.40065 25.3599 9.51998C25.5435 9.88236 25.5702 10.2557 25.4399 10.64C25.0998 11.2615 24.8063 11.9015 24.5599 12.56C24.2566 12.7145 23.9366 12.7678 23.5999 12.72C23.5735 12.237 23.6003 11.757 23.6799 11.28C23.8932 10.96 24.1067 10.64 24.3199 10.32C24.4267 10.6933 24.4267 11.0667 24.3199 11.44C24.2667 11.3333 24.2132 11.2267 24.1599 11.12C23.6719 11.5424 23.6719 11.9158 24.1599 12.24C24.4244 12.1888 24.5844 12.0288 24.6399 11.76C24.6635 10.9464 24.6902 10.1464 24.7199 9.35998Z" fill="#6E563B"/>
<path fill-rule="evenodd" clip-rule="evenodd" d="M12.7201 11.6C12.7201 11.76 12.7201 11.92 12.7201 12.08C12.8801 12.08 13.0401 12.08 13.2001 12.08C13.217 12.4974 13.4036 12.8174 13.7601 13.04C13.8398 13.5707 13.8665 14.104 13.8401 14.64C12.6352 14.0792 11.4619 13.4392 10.3201 12.72C10.2134 12.6133 10.1067 12.5067 10.0001 12.4C9.54599 12.0743 9.59934 11.8343 10.1601 11.68C11.0228 11.5342 11.8762 11.5075 12.7201 11.6Z" fill="#866130"/>
<path fill-rule="evenodd" clip-rule="evenodd" d="M16.5601 10.1599C16.6668 10.1599 16.7734 10.1599 16.8801 10.1599C16.9052 10.3797 16.8785 10.593 16.8001 10.7999C15.4662 11.8688 15.2796 13.0954 16.2401 14.4799C16.0401 14.4923 15.9068 14.599 15.8401 14.7999C15.5169 14.4718 15.2769 14.0985 15.1201 13.6799C15.2512 13.231 15.3312 12.751 15.3601 12.2399C15.8509 11.5756 16.251 10.8823 16.5601 10.1599Z" fill="#644E33"/>
<path fill-rule="evenodd" clip-rule="evenodd" d="M18.8001 11.12C18.7055 11.2243 18.599 11.3309 18.4801 11.44C18.5868 11.4934 18.6934 11.5467 18.8001 11.6C19.7967 11.2694 20.65 11.4827 21.3601 12.24C21.4878 12.1669 21.541 12.0603 21.5201 11.92C21.8988 12.0262 22.2188 12.2395 22.4801 12.56C22.3396 12.9197 22.3929 13.2664 22.6401 13.6C22.2934 14.16 21.8401 14.6134 21.2801 14.96C20.7017 14.4559 20.4082 14.5626 20.4001 15.28C19.897 15.3876 19.417 15.5476 18.9601 15.76C18.9631 15.5104 19.0164 15.2704 19.1201 15.04C19.0553 14.8888 18.9486 14.7821 18.8001 14.72C18.9068 14.6667 19.0134 14.6134 19.1201 14.56C18.7402 14.6244 18.367 14.5977 18.0001 14.48C17.8698 14.1174 17.7898 13.7441 17.7601 13.36C17.6988 13.2711 17.6188 13.2177 17.5201 13.2C16.9681 13.0811 16.7015 13.2944 16.7201 13.84C16.3614 13.5277 16.3079 13.1544 16.5601 12.72C16.4001 12.72 16.2401 12.72 16.0801 12.72C16.0895 12.203 16.3295 11.8297 16.8001 11.6C16.979 11.9625 17.1122 12.3358 17.2001 12.72C17.4134 12.72 17.6268 12.72 17.8401 12.72C17.8401 12.4534 17.8401 12.1867 17.8401 11.92C17.6801 11.92 17.5201 11.92 17.3601 11.92C17.3954 11.1278 17.2889 10.3545 17.0401 9.60003C17.158 8.93816 17.2114 8.27149 17.2001 7.60003C17.2001 7.5467 17.2001 7.49336 17.2001 7.44003C17.2988 7.42232 17.3788 7.36899 17.4401 7.28003C17.463 8.4731 17.5964 9.64645 17.8401 10.8C18.2238 10.7615 18.5438 10.8682 18.8001 11.12Z" fill="#DFD0AB"/>
<path fill-rule="evenodd" clip-rule="evenodd" d="M14.16 12.3999C14.4021 12.8838 14.7221 13.3105 15.12 13.6799C15.2768 14.0985 15.5168 14.4718 15.84 14.7999C15.9067 14.5989 16.04 14.4923 16.24 14.4799C16.24 14.7466 16.24 15.0132 16.24 15.2799C16.261 15.3981 16.2342 15.5048 16.16 15.5999C15.7643 15.2042 15.3643 14.8042 14.96 14.3999C14.7784 14.28 14.6184 14.3067 14.48 14.4799C14.3258 15.5906 14.2725 16.7106 14.32 17.8399C14.2133 16.9866 14.1067 16.1332 14 15.2799C14.0553 14.7383 14.162 14.205 14.32 13.6799C14.2496 13.3175 14.143 12.9708 14 12.6399C14.089 12.5787 14.1423 12.4987 14.16 12.3999Z" fill="#45311A"/>
<path fill-rule="evenodd" clip-rule="evenodd" d="M9.67993 12.3999C9.7866 12.3999 9.89326 12.3999 9.99993 12.3999C10.1066 12.5066 10.2133 12.6132 10.3199 12.7199C10.8454 13.3796 11.4854 13.8862 12.2399 14.2399C12.7374 14.7696 13.3241 15.1163 13.9999 15.2799C14.1066 16.1332 14.2133 16.9866 14.3199 17.8399C14.4695 18.0108 14.5228 18.2241 14.4799 18.4799C14.4799 18.6932 14.4799 18.9066 14.4799 19.1199C14.3212 18.8069 14.1612 18.4869 13.9999 18.1599C13.9999 17.4666 13.9999 16.7732 13.9999 16.0799C12.2115 15.2506 10.7715 14.024 9.67993 12.3999Z" fill="#392C24"/>
<path fill-rule="evenodd" clip-rule="evenodd" d="M12.7201 11.6001C13.2259 11.8262 13.7059 12.0928 14.1601 12.4001C14.1424 12.4989 14.089 12.5789 14.0001 12.6401C14.143 12.971 14.2497 13.3177 14.3201 13.6801C14.162 14.2052 14.0554 14.7385 14.0001 15.2801C13.3242 15.1165 12.7376 14.7698 12.2401 14.2401C11.4856 13.8864 10.8456 13.3798 10.3201 12.7201C11.4619 13.4393 12.6352 14.0793 13.8401 14.6401C13.8665 14.1041 13.8398 13.5708 13.7601 13.0401C13.4036 12.8175 13.217 12.4975 13.2001 12.0801C13.0401 12.0801 12.8801 12.0801 12.7201 12.0801C12.7201 11.9201 12.7201 11.7601 12.7201 11.6001Z" fill="#795D3C"/>
<path fill-rule="evenodd" clip-rule="evenodd" d="M20.3999 6.79999C20.6159 7.14926 20.9094 7.41593 21.2799 7.59999C21.9726 6.95913 22.7726 6.79913 23.6799 7.11999C23.7388 7.34559 23.8721 7.50559 24.0799 7.59999C24.1332 7.94667 24.1866 8.29332 24.2399 8.63999C24.3028 9.33057 24.1428 9.9439 23.7599 10.48C23.6532 10.16 23.5466 9.83999 23.4399 9.51999C22.8615 8.61001 22.1415 8.50334 21.2799 9.19999C20.8732 10.0099 21.0066 10.7033 21.6799 11.28C22.1562 11.3442 22.5828 11.5042 22.9599 11.76C23.1801 12.2653 23.2866 12.7986 23.2799 13.36C23.0516 13.6237 22.9183 13.9437 22.8799 14.32C22.5535 14.6192 22.2602 14.9392 21.9999 15.28C21.6799 15.3867 21.3599 15.4933 21.0399 15.6C20.3102 15.8098 19.5634 15.9165 18.7999 15.92C18.8378 15.7134 18.7846 15.5534 18.6399 15.44C18.2526 15.5005 17.8793 15.6072 17.5199 15.76C17.0215 15.777 16.595 15.617 16.2399 15.28C16.2399 15.0133 16.2399 14.7467 16.2399 14.48C15.2794 13.0955 15.466 11.8689 16.7999 10.8C16.8783 10.5931 16.905 10.3797 16.8799 10.16C16.8698 9.40753 16.9233 8.66086 17.0399 7.91999C17.0124 7.76134 17.0658 7.65467 17.1999 7.59999C17.2113 8.27145 17.1578 8.93812 17.0399 9.59999C17.2887 10.3545 17.3953 11.1278 17.3599 11.92C17.5199 11.92 17.6799 11.92 17.8399 11.92C17.8399 12.1867 17.8399 12.4533 17.8399 12.72C17.6266 12.72 17.4132 12.72 17.1999 12.72C17.1121 12.3358 16.9788 11.9625 16.7999 11.6C16.3294 11.8297 16.0894 12.203 16.0799 12.72C16.2399 12.72 16.3999 12.72 16.5599 12.72C16.3078 13.1544 16.3612 13.5277 16.7199 13.84C16.9316 14.202 17.145 14.5753 17.3599 14.96C17.7025 15.363 18.0225 15.363 18.3199 14.96C17.4721 14.6616 17.2054 14.075 17.5199 13.2C17.6186 13.2177 17.6986 13.271 17.7599 13.36C17.7897 13.7441 17.8697 14.1174 17.9999 14.48C18.3668 14.5977 18.7401 14.6244 19.1199 14.56C19.0132 14.6133 18.9066 14.6667 18.7999 14.72C18.9484 14.7821 19.0551 14.8887 19.1199 15.04C19.0162 15.2703 18.963 15.5103 18.9599 15.76C19.4169 15.5475 19.8969 15.3875 20.3999 15.28C20.4081 14.5626 20.7015 14.4559 21.2799 14.96C21.8399 14.6133 22.2932 14.16 22.6399 13.6C22.3927 13.2664 22.3394 12.9197 22.4799 12.56C22.2186 12.2395 21.8986 12.0262 21.5199 11.92C20.7665 11.2065 19.8599 10.9398 18.7999 11.12C18.5436 10.8682 18.2236 10.7615 17.8399 10.8C17.5962 9.64641 17.4628 8.47307 17.4399 7.27999C17.3786 7.36895 17.2986 7.42228 17.1999 7.43999C17.9794 5.98081 19.046 5.76747 20.3999 6.79999Z" fill="#D8C8AB"/>
<path fill-rule="evenodd" clip-rule="evenodd" d="M17.5199 13.1999C17.2053 14.0749 17.4721 14.6615 18.3199 14.9599C18.0225 15.3629 17.7025 15.3629 17.3599 14.9599C17.145 14.5752 16.9316 14.2019 16.7199 13.8399C16.7013 13.2943 16.9679 13.0809 17.5199 13.1999Z" fill="#54452E"/>
<path fill-rule="evenodd" clip-rule="evenodd" d="M19.4399 11.9199C19.6532 12.0799 19.8666 12.2399 20.0799 12.3999C20.0799 12.5599 20.0799 12.7199 20.0799 12.8799C20.3807 12.9233 20.594 12.8166 20.7199 12.5599C20.9237 12.6702 20.9237 12.8036 20.7199 12.9599C20.2039 12.9403 19.6972 12.967 19.1999 13.0399C18.8983 12.982 18.7649 12.7953 18.7999 12.4799C18.8293 12.2598 18.9361 12.1265 19.1199 12.0799C19.0025 12.2732 18.9492 12.4865 18.9599 12.7199C19.1732 12.7199 19.3866 12.7199 19.5999 12.7199C19.6213 12.4333 19.5681 12.1666 19.4399 11.9199Z" fill="#AA9D84"/>
<path fill-rule="evenodd" clip-rule="evenodd" d="M20.7201 12.56C20.5942 12.8167 20.3809 12.9233 20.0801 12.88C20.0801 12.72 20.0801 12.56 20.0801 12.4C20.1468 12.3002 20.2535 12.2468 20.4001 12.24C20.5942 12.2795 20.7009 12.3862 20.7201 12.56Z" fill="#423323"/>
<path fill-rule="evenodd" clip-rule="evenodd" d="M19.4401 11.9201C19.5682 12.1668 19.6215 12.4334 19.6001 12.7201C19.3868 12.7201 19.1734 12.7201 18.9601 12.7201C18.9494 12.4867 19.0026 12.2733 19.1201 12.0801C19.1748 11.946 19.2814 11.8926 19.4401 11.9201Z" fill="#37311D"/>
<path fill-rule="evenodd" clip-rule="evenodd" d="M18.8 11.1199C19.86 10.9397 20.7665 11.2064 21.52 11.9199C21.5409 12.0601 21.4877 12.1668 21.36 12.2399C20.6499 11.4826 19.7966 11.2693 18.8 11.5999C18.6933 11.5466 18.5867 11.4933 18.48 11.4399C18.5989 11.3308 18.7054 11.2242 18.8 11.1199Z" fill="#746449"/>
<path fill-rule="evenodd" clip-rule="evenodd" d="M18.1601 8.87995C18.693 7.94096 19.3865 7.83428 20.2401 8.55995C20.6426 10.1303 20.0559 10.7703 18.4801 10.4799C18.1198 10.1592 17.9063 9.75924 17.8401 9.27995C17.8695 9.05985 17.9762 8.92652 18.1601 8.87995Z" fill="#332C1F"/>
<path fill-rule="evenodd" clip-rule="evenodd" d="M21.6801 9.52002C21.8934 9.52002 22.1068 9.52002 22.3201 9.52002C22.3201 9.73335 22.3201 9.94669 22.3201 10.16C21.8401 10.2133 21.6268 10 21.6801 9.52002Z" fill="#D6D3DA"/>
<path fill-rule="evenodd" clip-rule="evenodd" d="M18.16 8.8799C18.3034 8.71889 18.41 8.71889 18.48 8.8799C18.4236 9.22147 18.5568 9.4348 18.88 9.5199C19.2978 9.35992 19.3778 9.09325 19.12 8.7199C19.0991 8.60168 19.1258 8.49501 19.2 8.3999C19.4821 8.63089 19.8021 8.79089 20.16 8.8799C20.2122 9.33307 20.1322 9.75974 19.92 10.1599C19.3636 10.2104 18.8301 10.1304 18.32 9.9199C18.3733 9.86657 18.4268 9.81323 18.48 9.7599C18.2623 9.50641 18.1556 9.21309 18.16 8.8799Z" fill="#231E1F"/>
<path fill-rule="evenodd" clip-rule="evenodd" d="M19.1199 8.72011C19.3777 9.09345 19.2977 9.36013 18.8799 9.52011C18.5567 9.43501 18.4234 9.22168 18.4799 8.88011C18.6732 8.76265 18.8865 8.70933 19.1199 8.72011Z" fill="#B5B4B7"/>
<path fill-rule="evenodd" clip-rule="evenodd" d="M22.8001 15.2799C22.1559 15.6827 21.4625 15.9761 20.7201 16.1599C19.3868 16.2666 18.0533 16.2666 16.7201 16.1599C16.6668 16.1066 16.6133 16.0532 16.5601 15.9999C16.9133 15.9693 17.2333 15.8893 17.5201 15.7599C17.8794 15.6071 18.2527 15.5004 18.6401 15.4399C18.6401 15.6532 18.6401 15.8666 18.6401 16.0799C19.1229 16.1063 19.6029 16.0796 20.0801 15.9999C20.4759 15.994 20.7959 15.8607 21.0401 15.5999C21.3601 15.4932 21.6801 15.3866 22.0001 15.2799C22.3546 15.1675 22.6479 14.9541 22.8801 14.6399C22.9113 14.851 22.8845 15.0643 22.8001 15.2799Z" fill="#412E16"/>
<path fill-rule="evenodd" clip-rule="evenodd" d="M22.96 18.64C22.7542 19.8675 22.7542 21.0941 22.96 22.32C22.96 22.8 22.96 23.28 22.96 23.76C22.1053 23.9618 21.252 23.9618 20.4 23.76C20.4 23.4933 20.4 23.2267 20.4 22.96C20.8637 21.2563 20.8104 19.5496 20.24 17.84C19.9789 17.7125 19.7389 17.5525 19.52 17.36C19.44 17.4133 19.36 17.4667 19.28 17.52C19.4826 17.7159 19.6693 17.9291 19.84 18.16C20.0368 19.2712 20.1168 20.3912 20.08 21.52C19.7067 21.52 19.3333 21.52 18.96 21.52C18.8562 21.2037 18.8562 20.9104 18.96 20.64C18.64 19.8933 18.32 19.8933 18 20.64C18.0414 20.8418 18.1482 21.0018 18.32 21.12C18.201 21.2863 18.041 21.3663 17.84 21.36C17.0784 21.3264 16.4917 21.0064 16.08 20.4C16.0173 20.1314 15.9372 19.8647 15.84 19.6C15.4356 19.1754 15.1156 18.6954 14.88 18.16C14.8001 17.2015 14.7734 16.2415 14.8 15.28C14.96 15.28 15.12 15.28 15.28 15.28C15.2458 15.5431 15.2992 15.7831 15.44 16C15.5919 16.0987 15.7252 16.0722 15.84 15.92C16.2344 16.4003 16.7411 16.7203 17.36 16.88C17.4667 17.2 17.5733 17.52 17.68 17.84C17.8368 17.4263 17.8901 16.9995 17.84 16.56C19.6784 16.6176 21.4918 16.4843 23.28 16.16C23.433 16.7031 23.4862 17.2631 23.44 17.84C23.28 17.84 23.12 17.84 22.96 17.84C22.96 18.1067 22.96 18.3733 22.96 18.64Z" fill="#856034"/>
<path fill-rule="evenodd" clip-rule="evenodd" d="M16.24 15.28C16.5951 15.617 17.0216 15.777 17.52 15.76C17.2333 15.8894 16.9133 15.9694 16.56 16C16.6133 16.0533 16.6667 16.1067 16.72 16.16C18.0533 16.2667 19.3867 16.2667 20.72 16.16C21.4624 15.9762 22.1559 15.6828 22.8 15.28C23.0133 15.28 23.2267 15.28 23.44 15.28C23.6975 15.8833 23.8575 16.5233 23.92 17.2C23.905 17.5877 23.825 17.9609 23.68 18.32C23.3362 18.1056 23.1495 18.2123 23.12 18.64C23.0667 18.64 23.0133 18.64 22.96 18.64C22.96 18.3733 22.96 18.1067 22.96 17.84C23.12 17.84 23.28 17.84 23.44 17.84C23.4863 17.263 23.433 16.703 23.28 16.16C21.4919 16.4843 19.6784 16.6176 17.84 16.56C17.8901 16.9995 17.8368 17.4262 17.68 17.84C17.5733 17.52 17.4667 17.2 17.36 16.88C16.7411 16.7203 16.2344 16.4003 15.84 15.92C15.7252 16.0721 15.5919 16.0987 15.44 16C15.2992 15.783 15.2459 15.543 15.28 15.28C15.12 15.28 14.96 15.28 14.8 15.28C14.7734 16.2414 14.8001 17.2014 14.88 18.16C15.1157 18.6953 15.4357 19.1753 15.84 19.6C15.9372 19.8646 16.0173 20.1313 16.08 20.4C15.37 19.9037 14.8366 19.2637 14.48 18.48C14.5229 18.2241 14.4695 18.0109 14.32 17.84C14.2725 16.7107 14.3258 15.5907 14.48 14.48C14.6184 14.3067 14.7784 14.2801 14.96 14.4C15.3643 14.8043 15.7643 15.2043 16.16 15.6C16.2343 15.5049 16.261 15.3982 16.24 15.28Z" fill="#7A5C39"/>
<path fill-rule="evenodd" clip-rule="evenodd" d="M18.6399 15.4399C18.7845 15.5534 18.8378 15.7134 18.7999 15.9199C19.5634 15.9164 20.3101 15.8098 21.0399 15.5999C20.7957 15.8607 20.4757 15.9941 20.0799 15.9999C19.6028 16.0796 19.1228 16.1063 18.6399 16.0799C18.6399 15.8666 18.6399 15.6533 18.6399 15.4399Z" fill="#A99B7F"/>
<path fill-rule="evenodd" clip-rule="evenodd" d="M23.28 13.3601C23.3347 13.4942 23.4413 13.5476 23.6 13.5201C23.488 13.9301 23.328 14.3301 23.12 14.7201C23.6464 15.2474 24.0464 15.8607 24.32 16.5601C24.3299 17.5307 24.3566 18.4907 24.4 19.4401C24.4283 20.0375 24.375 20.6243 24.24 21.2001C24.052 21.1651 23.892 21.2183 23.76 21.3601C24.209 21.467 24.6355 21.5735 25.04 21.6801C24.6101 21.6539 24.1834 21.6806 23.76 21.7601C23.6694 21.9193 23.5627 22.0526 23.44 22.1601C23.3312 21.4215 23.3579 20.6748 23.52 19.9201C23.7554 19.5039 23.9419 19.0774 24.08 18.6401C24.0533 18.4801 24.0267 18.3201 24 18.1601C23.9102 18.5161 23.7502 18.8361 23.52 19.1201C23.4667 18.9068 23.4133 18.6934 23.36 18.4801C23.2987 18.5691 23.2187 18.6223 23.12 18.6401C23.1494 18.2124 23.3362 18.1057 23.68 18.3201C23.825 17.9611 23.905 17.5878 23.92 17.2001C23.8574 16.5235 23.6974 15.8835 23.44 15.2801C23.2267 15.2801 23.0133 15.2801 22.8 15.2801C22.8845 15.0645 22.9112 14.8512 22.88 14.6401C22.6478 14.9544 22.3546 15.1677 22 15.2801C22.2603 14.9393 22.5536 14.6193 22.88 14.3201C22.9184 13.9439 23.0517 13.6239 23.28 13.3601Z" fill="#5D4D3B"/>
<path fill-rule="evenodd" clip-rule="evenodd" d="M21.2001 16.7201C21.6396 16.67 22.0663 16.7233 22.4801 16.8801C22.4102 18.2209 22.3034 19.5809 22.1601 20.9601C22.1433 21.6617 22.25 22.3284 22.4801 22.9601C22.1601 22.9601 21.8401 22.9601 21.5201 22.9601C21.4122 21.5766 21.3322 20.1899 21.2801 18.8001C20.6748 18.1523 20.6481 17.459 21.2001 16.7201Z" fill="#88612E"/>
<path fill-rule="evenodd" clip-rule="evenodd" d="M23.6001 13.2C23.9244 13.1741 24.2444 13.2007 24.5601 13.28C24.1811 13.5939 23.9678 13.9405 23.9201 14.32C23.9776 15.0249 24.271 15.6649 24.8001 16.24C24.8268 16.5067 24.8534 16.7733 24.8801 17.04C24.835 18.3733 24.7816 19.7067 24.7201 21.04C24.6134 20.4837 24.5067 19.9503 24.4001 19.44C24.3568 18.4906 24.33 17.5306 24.3201 16.56C24.0465 15.8607 23.6465 15.2473 23.1201 14.72C23.3281 14.3301 23.4881 13.9301 23.6001 13.52C23.6001 13.4134 23.6001 13.3067 23.6001 13.2Z" fill="#EBECE9"/>
<path fill-rule="evenodd" clip-rule="evenodd" d="M20.4 22.9601C20.4 22.6401 20.4 22.3201 20.4 22.0001C20.1332 22.0001 19.8667 22.0001 19.6 22.0001C19.3355 21.9745 19.1222 21.8679 18.96 21.6801C19.3694 21.7284 19.7428 21.675 20.08 21.5201C20.1168 20.3913 20.0368 19.2713 19.84 18.1601C19.6692 17.9292 19.4825 17.7159 19.28 17.5201C19.36 17.4668 19.44 17.4134 19.52 17.3601C19.7388 17.5526 19.9788 17.7126 20.24 17.8401C20.8104 19.5497 20.8636 21.2564 20.4 22.9601Z" fill="#422B16"/>
<path fill-rule="evenodd" clip-rule="evenodd" d="M13.68 19.1201C13.68 19.8134 13.68 20.5068 13.68 21.2001C13.4242 21.1572 13.2108 21.2107 13.04 21.3601C12.72 21.3601 12.4 21.3601 12.08 21.3601C12.3123 21.2318 12.5789 21.1518 12.88 21.1201C12.5104 21.0406 12.1371 21.014 11.76 21.0401C12.3038 20.8289 12.8638 20.8289 13.44 21.0401C13.4682 20.37 13.5482 19.73 13.68 19.1201Z" fill="#908A80"/>
<path fill-rule="evenodd" clip-rule="evenodd" d="M11.5999 21.04C11.6532 21.04 11.7066 21.04 11.7599 21.04C12.137 21.0139 12.5103 21.0404 12.8799 21.12C12.5788 21.1516 12.3122 21.2316 12.0799 21.36C11.5999 21.52 11.2799 21.84 11.1199 22.32C10.892 22.5649 10.7853 22.5116 10.7999 22.16C10.9492 21.7008 11.2159 21.3273 11.5999 21.04Z" fill="#413E32"/>
<path fill-rule="evenodd" clip-rule="evenodd" d="M14.9599 20.4C15.4616 20.8141 15.995 21.1874 16.5599 21.52C15.9914 22.0885 15.3514 22.1419 14.6399 21.68C14.5394 21.3987 14.3794 21.1587 14.1599 20.96C14.4199 20.8235 14.4732 20.6635 14.3199 20.48C14.5268 20.4016 14.7402 20.3749 14.9599 20.4Z" fill="#836134"/>
<path fill-rule="evenodd" clip-rule="evenodd" d="M14.48 18.48C14.8366 19.2637 15.3699 19.9037 16.08 20.4C16.4917 21.0064 17.0784 21.3264 17.84 21.36C17.84 21.4133 17.84 21.4667 17.84 21.52C17.6203 21.4949 17.4069 21.5216 17.2 21.6C17.2889 21.6613 17.3422 21.7413 17.36 21.84C17.0933 21.7333 16.8267 21.6267 16.56 21.52C15.995 21.1873 15.4617 20.8141 14.96 20.4C14.8481 19.9504 14.6881 19.5237 14.48 19.12C14.48 18.9067 14.48 18.6933 14.48 18.48Z" fill="#3F2715"/>
<path fill-rule="evenodd" clip-rule="evenodd" d="M20.0801 21.5201C19.743 21.675 19.3695 21.7284 18.9601 21.6801C18.5506 21.7284 18.1772 21.675 17.8401 21.5201C17.8401 21.4668 17.8401 21.4134 17.8401 21.3601C18.041 21.3664 18.201 21.2864 18.3201 21.1201C18.1482 21.0019 18.0415 20.8419 18.0001 20.6401C18.3201 19.8934 18.6401 19.8934 18.9601 20.6401C18.8562 20.9105 18.8562 21.2038 18.9601 21.5201C19.3334 21.5201 19.7068 21.5201 20.0801 21.5201Z" fill="#6A4F32"/>
<path fill-rule="evenodd" clip-rule="evenodd" d="M23.44 22.1599C23.5606 23.1921 24.1472 23.5654 25.2 23.2799C25.2171 22.8954 25.0571 22.6022 24.72 22.3999C25.3091 22.3748 25.6291 22.6682 25.68 23.2799C25.84 23.2799 26 23.2799 26.16 23.2799C26.0237 22.5807 25.6504 22.0473 25.04 21.6799C24.6355 21.5734 24.2089 21.4668 23.76 21.3599C23.892 21.2182 24.052 21.1649 24.24 21.1999C25.4283 21.3422 26.2283 21.9822 26.64 23.1199C26.6227 23.2706 26.5694 23.4039 26.48 23.5199C25.7352 23.5998 24.9886 23.6265 24.24 23.5999C24.2024 23.5044 24.1224 23.4511 24 23.4399C23.8382 23.5289 23.7049 23.6354 23.6 23.7599C23.5331 23.6444 23.4265 23.5644 23.28 23.5199C23.3635 23.4302 23.4168 23.3234 23.44 23.1999C23.263 22.9026 23.103 22.6092 22.96 22.3199C22.7542 21.094 22.7542 19.8674 22.96 18.6399C23.0133 18.6399 23.0667 18.6399 23.12 18.6399C23.2187 18.6222 23.2987 18.5689 23.36 18.4799C23.4133 18.6932 23.4667 18.9066 23.52 19.1199C23.7502 18.8359 23.9102 18.5159 24 18.1599C24.0267 18.3199 24.0533 18.4799 24.08 18.6399C23.9419 19.0772 23.7553 19.5038 23.52 19.9199C23.3579 20.6746 23.3312 21.4214 23.44 22.1599Z" fill="#423223"/>
<path fill-rule="evenodd" clip-rule="evenodd" d="M12.08 21.3601C12.4 21.3601 12.72 21.3601 13.04 21.3601C13.6358 21.2881 13.9825 21.5548 14.08 22.1601C14.2673 22.383 14.5073 22.5164 14.8 22.5601C15.6566 22.6448 16.5099 22.618 17.36 22.4801C17.6267 22.4801 17.8932 22.4801 18.16 22.4801C18.1772 22.8024 18.0707 23.0689 17.84 23.2801C16.8344 23.2382 15.8476 23.0782 14.88 22.8001C13.8962 22.9444 12.9096 23.0512 11.92 23.1201C11.959 22.678 12.1723 22.3315 12.56 22.0801C11.9709 22.055 11.6509 22.3484 11.6 22.9601C11.4067 23.0776 11.1934 23.1308 10.96 23.1201C10.9806 22.8456 11.0339 22.5788 11.12 22.3201C11.28 21.8401 11.6 21.5201 12.08 21.3601Z" fill="#D2C5AA"/>
<path fill-rule="evenodd" clip-rule="evenodd" d="M17.36 21.8399C17.6893 22.0692 18.0628 22.1759 18.48 22.1599C18.48 22.4799 18.48 22.7999 18.48 23.1199C18.3279 22.8929 18.2746 22.6263 18.32 22.3199C17.9624 22.2727 17.6424 22.3261 17.36 22.4799C16.51 22.6178 15.6566 22.6445 14.8 22.5599C14.5074 22.5162 14.2674 22.3828 14.08 22.1599C13.9826 21.5546 13.6359 21.2879 13.04 21.3599C13.2109 21.2105 13.4242 21.157 13.68 21.1999C13.68 20.5066 13.68 19.8132 13.68 19.1199C13.8029 18.9978 13.8829 18.8378 13.92 18.6399C13.9734 19.4932 14.0267 20.3466 14.08 21.1999C14.4686 21.9154 15.0819 22.2887 15.92 22.3199C16.4612 22.2917 16.9944 22.2117 17.52 22.0799C17.4311 22.0186 17.3778 21.9386 17.36 21.8399Z" fill="#4A3923"/>
<path fill-rule="evenodd" clip-rule="evenodd" d="M14 18.1599C14.1613 18.487 14.3213 18.807 14.48 19.1199C14.6881 19.5236 14.8481 19.9503 14.96 20.3999C14.7403 20.3748 14.5269 20.4015 14.32 20.4799C14.4733 20.6634 14.42 20.8234 14.16 20.9599C14.3796 21.1586 14.5396 21.3986 14.64 21.6799C15.3516 22.1418 15.9916 22.0884 16.56 21.5199C16.8267 21.6266 17.0933 21.7332 17.36 21.8399C17.3778 21.9386 17.4311 22.0186 17.52 22.0799C16.9944 22.2118 16.4611 22.2918 15.92 22.3199C15.0819 22.2887 14.4686 21.9154 14.08 21.1999C14.0267 20.3466 13.9733 19.4932 13.92 18.6399C13.8829 18.8378 13.8029 18.9978 13.68 19.1199C13.6415 18.7362 13.7482 18.4162 14 18.1599Z" fill="#745C3C"/>
<path fill-rule="evenodd" clip-rule="evenodd" d="M17.84 21.5201C18.1771 21.675 18.5505 21.7284 18.96 21.6801C19.1222 21.868 19.3355 21.9745 19.6 22.0001C19.6 22.0534 19.6 22.1068 19.6 22.1601C19.3504 22.4251 19.1904 22.7451 19.12 23.1201C19.016 22.8105 18.9627 22.4905 18.96 22.1601C18.8 22.1601 18.64 22.1601 18.48 22.1601C18.0627 22.1761 17.6892 22.0694 17.36 21.8401C17.3422 21.7414 17.2889 21.6614 17.2 21.6001C17.4068 21.5217 17.6203 21.495 17.84 21.5201Z" fill="#2F2921"/>
<path fill-rule="evenodd" clip-rule="evenodd" d="M19.6001 22.1599C19.7601 22.1599 19.9201 22.1599 20.0801 22.1599C20.0801 22.4799 20.0801 22.7999 20.0801 23.1199C19.495 23.0164 19.335 22.6964 19.6001 22.1599Z" fill="#D7CBB8"/>
<path fill-rule="evenodd" clip-rule="evenodd" d="M25.0399 21.6799C25.6503 22.0473 26.0236 22.5807 26.1599 23.2799C25.9999 23.2799 25.8399 23.2799 25.6799 23.2799C25.6291 22.6682 25.3091 22.3748 24.7199 22.3999C25.0571 22.6022 25.2171 22.8954 25.1999 23.2799C24.1471 23.5654 23.5606 23.1921 23.4399 22.1599C23.5627 22.0524 23.6694 21.9191 23.7599 21.7599C24.1833 21.6804 24.61 21.6537 25.0399 21.6799Z" fill="#CFC1AA"/>
<path fill-rule="evenodd" clip-rule="evenodd" d="M17.8401 23.2801C17.9988 23.2526 18.1054 23.306 18.1601 23.4401C16.6204 23.3575 15.0737 23.3575 13.5201 23.4401C12.8608 23.3638 12.2208 23.2038 11.6001 22.9601C11.651 22.3484 11.971 22.055 12.5601 22.0801C12.1724 22.3315 11.9591 22.678 11.9201 23.1201C12.9097 23.0511 13.8964 22.9444 14.8801 22.8001C15.8478 23.0782 16.8345 23.2382 17.8401 23.2801Z" fill="#575044"/>
<path fill-rule="evenodd" clip-rule="evenodd" d="M19.6001 22.1599C19.335 22.6964 19.495 23.0164 20.0801 23.1199C19.8668 23.2266 19.6534 23.3332 19.4401 23.4399C19.2268 23.4399 19.1201 23.3332 19.1201 23.1199C19.1905 22.7449 19.3505 22.4249 19.6001 22.1599Z" fill="#706E66"/>
<path fill-rule="evenodd" clip-rule="evenodd" d="M11.6 21.0399C11.216 21.3272 10.9493 21.7007 10.8 22.1599C10.4611 22.5687 10.4078 23.022 10.64 23.5199C11.5226 23.6506 12.3759 23.624 13.2 23.4399C13.3066 23.4399 13.4133 23.4399 13.52 23.4399C15.0736 23.3573 16.6203 23.3573 18.16 23.4399C18.32 23.3866 18.4267 23.2799 18.48 23.1199C18.48 22.7999 18.48 22.4799 18.48 22.1599C18.64 22.1599 18.8 22.1599 18.96 22.1599C18.9627 22.4903 19.016 22.8103 19.12 23.1199C19.12 23.3332 19.2267 23.4399 19.44 23.4399C19.5534 23.5845 19.7134 23.6378 19.92 23.5999C19.955 23.7879 19.9017 23.9479 19.76 24.0799C19.3942 24.1812 19.1276 24.3944 18.96 24.7199C18.518 25.1436 18.5713 25.5168 19.12 25.8399C19.44 25.8399 19.76 25.8399 20.08 25.8399C20.08 26.1599 20.08 26.4799 20.08 26.7999C20.0662 26.9592 20.1196 27.0925 20.24 27.1999C20.1332 27.3066 20.0267 27.3066 19.92 27.1999C19.8036 26.976 19.7236 26.736 19.68 26.4799C18.278 26.1581 17.958 25.3581 18.72 24.0799C19.2396 23.8912 19.2131 23.7312 18.64 23.5999C18.4486 23.6552 18.4486 23.7352 18.64 23.8399C18.1969 23.978 17.7436 24.058 17.28 24.0799C15.5451 24.0748 13.8118 24.0748 12.08 24.0799C11.374 24.1453 10.734 23.9853 10.16 23.5999C9.83197 23.6922 9.67197 23.9055 9.67995 24.2399C9.49195 24.2749 9.33195 24.2216 9.19995 24.0799C9.7317 23.5804 9.83837 22.9938 9.51995 22.3199C9.73328 22.3199 9.94662 22.3199 10.16 22.3199C10.2135 21.534 10.6135 21.054 11.36 20.8799C11.4823 20.8911 11.5623 20.9444 11.6 21.0399Z" fill="#E7E4E3"/>
<path fill-rule="evenodd" clip-rule="evenodd" d="M10.7999 22.1599C10.7853 22.5116 10.892 22.5649 11.1199 22.3199C11.0338 22.5786 10.9805 22.8454 10.9599 23.1199C10.837 22.9978 10.757 22.8378 10.7199 22.6399C10.6046 22.8978 10.6313 23.1378 10.7999 23.3599C11.5981 23.4398 12.3981 23.4665 13.1999 23.4399C12.3758 23.6241 11.5225 23.6506 10.6399 23.5199C10.4077 23.022 10.4611 22.5687 10.7999 22.1599Z" fill="#736F69"/>
<path fill-rule="evenodd" clip-rule="evenodd" d="M10.9601 23.1199C11.1935 23.1306 11.4068 23.0773 11.6001 22.9599C12.2208 23.2036 12.8608 23.3636 13.5201 23.4399C13.4134 23.4399 13.3068 23.4399 13.2001 23.4399C12.3983 23.4665 11.5983 23.4397 10.8001 23.3599C10.6315 23.1378 10.6048 22.8978 10.7201 22.6399C10.7572 22.8378 10.8372 22.9978 10.9601 23.1199Z" fill="#2F2A23"/>
<path fill-rule="evenodd" clip-rule="evenodd" d="M17.3601 22.4801C17.6425 22.3263 17.9625 22.2729 18.3201 22.3201C18.2747 22.6265 18.3279 22.893 18.4801 23.1201C18.4268 23.2801 18.3201 23.3868 18.1601 23.4401C18.1054 23.306 17.9988 23.2526 17.8401 23.2801C18.0708 23.0689 18.1774 22.8023 18.1601 22.4801C17.8934 22.4801 17.6268 22.4801 17.3601 22.4801Z" fill="#786E60"/>
<path fill-rule="evenodd" clip-rule="evenodd" d="M19.5999 22.16C19.5999 22.1067 19.5999 22.0533 19.5999 22C19.8666 22 20.1332 22 20.3999 22C20.3999 22.32 20.3999 22.64 20.3999 22.96C20.3999 23.2267 20.3999 23.4933 20.3999 23.76C21.2519 23.9618 22.1052 23.9618 22.9599 23.76C22.9599 23.28 22.9599 22.8 22.9599 22.32C23.1029 22.6093 23.2629 22.9027 23.4399 23.2C23.4167 23.3235 23.3634 23.4302 23.2799 23.52C23.4265 23.5645 23.533 23.6445 23.5999 23.76C22.3631 24.1678 21.0831 24.3544 19.7599 24.32C19.4892 24.5291 19.2759 24.7691 19.1199 25.04C18.9858 24.9853 18.9324 24.8787 18.9599 24.72C19.1276 24.3946 19.3941 24.1813 19.7599 24.08C19.9017 23.948 19.9549 23.788 19.9199 23.6C19.7133 23.6379 19.5533 23.5846 19.4399 23.44C19.6532 23.3333 19.8666 23.2267 20.0799 23.12C20.0799 22.8 20.0799 22.48 20.0799 22.16C19.9199 22.16 19.7599 22.16 19.5999 22.16Z" fill="#5E4B32"/>
<path fill-rule="evenodd" clip-rule="evenodd" d="M23.6001 23.76C24.0376 24.1531 24.3576 24.6331 24.5601 25.2C24.5676 25.44 24.4611 25.6 24.2401 25.68C23.8668 25.4133 23.5468 25.0933 23.2801 24.72C23.2268 24.8 23.1734 24.88 23.1201 24.96C23.3824 25.4883 23.4891 26.0483 23.4401 26.64C23.2286 26.6128 23.0419 26.6661 22.8801 26.8C22.4622 26.3378 22.1689 25.8045 22.0001 25.2C21.7094 25.5066 21.5227 25.8798 21.4401 26.32C20.9073 26.9885 20.5606 26.9352 20.4001 26.16C20.4372 25.7923 20.544 25.4456 20.7201 25.12C20.6668 25.04 20.6134 24.96 20.5601 24.88C20.3177 25.1331 20.0512 25.3466 19.7601 25.52C19.5468 25.52 19.3334 25.52 19.1201 25.52C19.1201 25.36 19.1201 25.2 19.1201 25.04C19.2761 24.7691 19.4894 24.5291 19.7601 24.32C21.0833 24.3544 22.3633 24.1678 23.6001 23.76Z" fill="#D7C9AD"/>
<path fill-rule="evenodd" clip-rule="evenodd" d="M18.9601 24.72C18.9326 24.8787 18.986 24.9853 19.1201 25.04C19.1201 25.2 19.1201 25.36 19.1201 25.52C19.3334 25.52 19.5468 25.52 19.7601 25.52C19.5468 25.6267 19.3334 25.7333 19.1201 25.84C18.5714 25.5169 18.5182 25.1437 18.9601 24.72Z" fill="#867F75"/>
<path fill-rule="evenodd" clip-rule="evenodd" d="M24.56 25.8399C24.3329 25.9921 24.0664 26.0454 23.76 25.9999C23.8029 26.2558 23.7494 26.4691 23.6 26.6399C23.5521 26.3033 23.6054 25.9833 23.76 25.6799C24.0113 25.8094 24.2781 25.8628 24.56 25.8399Z" fill="#948D85"/>
<path fill-rule="evenodd" clip-rule="evenodd" d="M24.2401 23.5999C24.1449 24.0513 24.3315 24.4246 24.8001 24.7199C24.8268 24.8799 24.8534 25.0399 24.8801 25.1999C24.9057 25.4967 24.799 25.71 24.5601 25.8399C24.2782 25.8628 24.0115 25.8094 23.7601 25.6799C23.6056 25.9833 23.5523 26.3033 23.6001 26.6399C23.4201 27.0604 23.1001 27.1937 22.6401 27.0399C22.3326 26.8127 22.1193 26.5195 22.0001 26.1599C21.7604 26.5326 21.4404 26.826 21.0401 27.0399C20.6657 27.1596 20.3457 27.0796 20.0801 26.7999C20.0801 26.4799 20.0801 26.1599 20.0801 25.8399C19.7601 25.8399 19.4401 25.8399 19.1201 25.8399C19.3334 25.7332 19.5468 25.6267 19.7601 25.5199C20.0512 25.3465 20.3177 25.1331 20.5601 24.8799C20.6134 24.9599 20.6668 25.0399 20.7201 25.1199C20.544 25.4455 20.4372 25.7923 20.4001 26.1599C20.5606 26.9351 20.9073 26.9884 21.4401 26.3199C21.5227 25.8798 21.7094 25.5065 22.0001 25.1999C22.1689 25.8044 22.4622 26.3377 22.8801 26.7999C23.0419 26.666 23.2286 26.6127 23.4401 26.6399C23.4891 26.0483 23.3824 25.4883 23.1201 24.9599C23.1734 24.8799 23.2268 24.7999 23.2801 24.7199C23.5468 25.0932 23.8668 25.4132 24.2401 25.6799C24.4611 25.5999 24.5676 25.4399 24.5601 25.1999C24.3576 24.6331 24.0376 24.1531 23.6001 23.7599C23.7051 23.6355 23.8384 23.5289 24.0001 23.4399C24.1225 23.4511 24.2025 23.5044 24.2401 23.5999Z" fill="#5D554B"/>
</g>
<defs>
<clipPath id="clip0_20_196">
<rect width="32" height="32" fill="white"/>
</clipPath>
</defs>
</svg>
