<svg width="32" height="32" viewBox="0 0 32 32" fill="none" xmlns="http://www.w3.org/2000/svg">
    <g clip-path="url(#clip0_776_819)">
        <path opacity="0.994" fill-rule="evenodd" clip-rule="evenodd"
            d="M14.5938 -0.03125C15.5104 -0.03125 16.4271 -0.03125 17.3438 -0.03125C22.9722 0.630894 27.2118 3.40172 30.0625 8.28125C31.0973 10.2288 31.7327 12.2913 31.9688 14.4688C31.9688 15.4688 31.9688 16.4688 31.9688 17.4688C31.2609 23.0389 28.4901 27.2368 23.6562 30.0625C21.7087 31.0973 19.6462 31.7327 17.4688 31.9688C16.4688 31.9688 15.4688 31.9688 14.4688 31.9688C8.45437 31.1759 4.08981 28.0717 1.375 22.6562C0.621115 20.9527 0.152365 19.1819 -0.03125 17.3438C-0.03125 16.4271 -0.03125 15.5104 -0.03125 14.5938C0.661869 8.79919 3.5577 4.49712 8.65625 1.6875C10.5385 0.753669 12.5176 0.180754 14.5938 -0.03125Z"
            fill="#323232" />
        <path fill-rule="evenodd" clip-rule="evenodd"
            d="M14.5313 3.78127C18.7218 3.45874 22.2531 4.8129 25.125 7.84377C27.8321 11.0263 28.7488 14.6721 27.875 18.7813C27.0526 22.0436 25.2296 24.5748 22.4063 26.375C18.1956 28.7744 13.9665 28.8161 9.71875 26.5C8.43088 25.7749 7.35794 24.8061 6.5 23.5938C6.45831 23.4271 6.45831 23.2605 6.5 23.0938C7.65944 21.6843 8.72194 20.2051 9.6875 18.6563C9.82294 18.3855 9.95831 18.1146 10.0938 17.8438C9.04138 17.1649 8.07263 16.3733 7.1875 15.4688C5.40423 13.2899 5.17507 10.9566 6.5 8.46877C7.51475 6.9334 8.8585 5.77714 10.5313 5.00002C11.8121 4.3958 13.1454 3.98955 14.5313 3.78127Z"
            fill="#FDFDFD" />
        <path fill-rule="evenodd" clip-rule="evenodd"
            d="M15.0938 6.78125C15.7632 6.76175 16.4299 6.793 17.0938 6.875C15.9224 7.58807 14.9536 8.51513 14.1876 9.65625C13.6379 10.4568 13.1379 11.2902 12.6876 12.1563C12.0776 13.4573 11.4631 14.749 10.8438 16.0313C9.58537 15.1789 8.7833 14.0123 8.43755 12.5313C8.31974 11.4606 8.59055 10.5023 9.25005 9.65625C10.3366 8.4615 11.6595 7.63863 13.2188 7.1875C13.8464 7.03038 14.4714 6.89494 15.0938 6.78125Z"
            fill="#323232" />
        <path fill-rule="evenodd" clip-rule="evenodd"
            d="M19.4062 7.59375C19.8097 7.63875 20.1847 7.77412 20.5312 8C23.7111 9.99437 25.2423 12.8798 25.125 16.6562C25.003 17.9566 24.6384 19.1858 24.0312 20.3438C21.098 20.1258 18.2438 19.5112 15.4688 18.5C14.7722 18.2402 14.0952 17.9382 13.4375 17.5938C14.0918 15.2634 15.0084 13.0342 16.1875 10.9062C16.9816 9.52244 18.0544 8.41825 19.4062 7.59375Z"
            fill="#323232" />
        <path fill-rule="evenodd" clip-rule="evenodd"
            d="M12.7812 19.0938C16.0789 20.3817 19.4748 21.3088 22.9688 21.875C20.8141 24.4834 18.0433 25.7126 14.6562 25.5625C13.0214 25.3759 11.5631 24.7821 10.2812 23.7812C11.2612 22.3008 12.0945 20.7383 12.7812 19.0938Z"
            fill="#323232" />
    </g>
    <defs>
        <clipPath id="clip0_776_819">
            <rect width="32" height="32" fill="white" />
        </clipPath>
    </defs>
</svg>