<svg width="32" height="32" viewBox="0 0 32 32" fill="none" xmlns="http://www.w3.org/2000/svg">
<mask id="mask0_5988_366" style="mask-type:luminance" maskUnits="userSpaceOnUse" x="0" y="2" width="32" height="28">
<path d="M31.7538 2.40002H0.246155V29.6H31.7538V2.40002Z" fill="white"/>
</mask>
<g mask="url(#mask0_5988_366)">
<path opacity="0.999" fill-rule="evenodd" clip-rule="evenodd" d="M19.7231 2.36926C19.7642 2.36926 19.8051 2.36926 19.8462 2.36926C21.4214 5.08913 22.9804 7.81732 24.5231 10.5539C24.4068 10.5414 24.3145 10.5824 24.2462 10.677C23.8125 11.172 23.4023 11.6848 23.0154 12.2154C22.9595 12.0961 22.8672 12.0346 22.7385 12.0308C21.7648 10.3299 20.7905 8.62736 19.8154 6.92311C18.4916 9.20169 17.1685 11.4786 15.8462 13.7539C15.8082 13.7607 15.7774 13.7812 15.7539 13.8154C15.3909 12.9806 15.0114 12.16 14.6154 11.3539C16.318 8.35899 18.0205 5.36414 19.7231 2.36926Z" fill="#10079B"/>
<path fill-rule="evenodd" clip-rule="evenodd" d="M9.44617 9.1385C9.95109 9.0593 10.4639 9.0593 10.9846 9.1385C13.2203 13.472 15.4151 17.8617 17.5692 22.3077C17.1934 22.4581 16.8036 22.5607 16.4 22.6154C16.4553 22.5749 16.5168 22.5339 16.5846 22.4923C14.3535 18.0917 12.1381 13.6814 9.93847 9.26158C10.1821 9.21069 10.4283 9.17992 10.6769 9.16927C10.2672 9.1385 9.85694 9.12829 9.44617 9.1385Z" fill="#3433CB"/>
<path fill-rule="evenodd" clip-rule="evenodd" d="M9.44613 9.13847C9.8569 9.12826 10.2672 9.13847 10.6769 9.16924C10.4282 9.17989 10.1821 9.21066 9.93844 9.26155C12.1381 13.6814 14.3535 18.0916 16.5846 22.4923C16.5168 22.5339 16.4552 22.5749 16.4 22.6154C14.4933 22.6736 12.5856 22.6941 10.6769 22.6769C10.6769 22.6564 10.6769 22.6359 10.6769 22.6154C12.4206 22.6257 14.1642 22.6154 15.9077 22.5846C14.9848 22.5539 14.0618 22.5436 13.1384 22.5539C9.23838 20.8502 5.32044 19.1785 1.38459 17.5385C1.10669 17.3893 0.819517 17.256 0.523055 17.1385C0.480447 17.1062 0.449678 17.0651 0.430748 17.0154C0.413614 17.0718 0.382845 17.1127 0.33844 17.1385C0.44538 16.6377 0.650508 16.1865 0.953825 15.7846C1.0322 15.827 1.0322 15.8783 0.953825 15.9385C4.36038 17.3803 7.75524 18.8469 11.1384 20.3385C11.167 20.3019 11.1773 20.2609 11.1692 20.2154C11.4451 20.562 11.7734 20.8492 12.1538 21.0769C12.6407 21.5263 13.1946 21.8854 13.8154 22.1539C14.0929 22.2977 14.3801 22.349 14.6769 22.3077C12.5381 18.0916 10.415 13.866 8.30767 9.63078C8.18207 9.57398 8.04872 9.55349 7.90767 9.56924C8.38515 9.32149 8.89801 9.17792 9.44613 9.13847Z" fill="#2A28C1"/>
<path fill-rule="evenodd" clip-rule="evenodd" d="M10.9846 9.13849C12.5388 9.33024 13.7491 10.0687 14.6154 11.3539C15.0113 12.16 15.3908 12.9806 15.7538 13.8154C15.7774 13.7812 15.8082 13.7607 15.8462 13.7539C16.0366 13.7363 16.2417 13.7568 16.4615 13.8154C16.5298 13.864 16.6118 13.8948 16.7077 13.9077C16.658 13.9267 16.6169 13.9574 16.5846 14C17.6207 16.1134 18.6874 18.2057 19.7846 20.277C19.4566 20.9233 18.9848 21.4464 18.3692 21.8462C18.121 22.0318 17.8543 22.1857 17.5692 22.3077C15.4151 17.8617 13.2202 13.472 10.9846 9.13849Z" fill="#403FD7"/>
<path fill-rule="evenodd" clip-rule="evenodd" d="M7.90771 9.56928C8.04876 9.55353 8.18211 9.57402 8.30771 9.63082C10.415 13.866 12.5381 18.0917 14.6769 22.3077C14.3801 22.349 14.0929 22.2978 13.8154 22.1539C13.1946 21.8854 12.6408 21.5264 12.1539 21.077C10.3764 17.5015 8.58149 13.9322 6.76925 10.3693C6.67768 10.4714 6.56488 10.533 6.43079 10.5539C6.83903 10.1055 7.33134 9.77728 7.90771 9.56928Z" fill="#1B1AB3"/>
<path fill-rule="evenodd" clip-rule="evenodd" d="M12.1538 21.077C11.7734 20.8493 11.4452 20.5621 11.1692 20.2154C10.6707 19.6555 10.2194 19.0606 9.81537 18.4308C9.52724 17.9363 9.2401 17.444 8.95383 16.9539C8.35647 15.6898 7.4334 14.736 6.1846 14.0923C5.7945 13.9957 5.42527 13.8828 5.0769 13.7539C5.09222 12.4936 5.54351 11.4269 6.43075 10.5539C6.56484 10.533 6.67764 10.4714 6.76921 10.3693C8.58146 13.9322 10.3764 17.5014 12.1538 21.077Z" fill="#1211A9"/>
<path opacity="0.999" fill-rule="evenodd" clip-rule="evenodd" d="M24.5231 10.5539C25.6977 12.4719 26.8259 14.4207 27.9077 16.4C27.3955 17.013 26.8827 17.6283 26.3692 18.2462C25.1444 16.1867 23.9341 14.1149 22.7385 12.0308C22.8672 12.0346 22.9595 12.0961 23.0154 12.2154C23.4023 11.6848 23.8125 11.172 24.2462 10.677C24.3145 10.5824 24.4068 10.5414 24.5231 10.5539Z" fill="#1D18AD"/>
<path fill-rule="evenodd" clip-rule="evenodd" d="M5.07692 13.7539C5.42529 13.8828 5.79452 13.9957 6.18462 14.0923C7.43342 14.736 8.35649 15.6898 8.95385 16.9539C8.95015 16.9873 8.92966 17.0078 8.89231 17.0154C8.81262 16.9786 8.73059 16.9479 8.64615 16.9231C6.63071 16.0741 4.63069 15.2023 2.64615 14.3077C2.62663 14.4186 2.5856 14.4391 2.52308 14.3693C2.45852 14.4682 2.36622 14.5091 2.24615 14.4923C2.57062 14.2379 2.93985 14.0636 3.35385 13.9693C3.91864 13.8197 4.493 13.7479 5.07692 13.7539Z" fill="#514FE7"/>
<path fill-rule="evenodd" clip-rule="evenodd" d="M16.4615 13.8154C18.3876 14.0898 19.6491 15.1565 20.2462 17.0154C20.532 18.1712 20.3782 19.2584 19.7846 20.277C18.6874 18.2057 17.6207 16.1134 16.5846 14C16.6169 13.9575 16.658 13.9267 16.7077 13.9077C16.6118 13.8948 16.5298 13.864 16.4615 13.8154Z" fill="#514FE5"/>
<path fill-rule="evenodd" clip-rule="evenodd" d="M8.95383 16.9539C9.24011 17.444 9.52724 17.9364 9.81537 18.4308C9.82343 18.4763 9.81315 18.5173 9.7846 18.5539C7.07844 17.3158 4.33998 16.1466 1.56921 15.0462C1.73971 14.7936 1.96535 14.609 2.24614 14.4924C2.3662 14.5092 2.45851 14.4682 2.52306 14.3693C2.58558 14.4391 2.62661 14.4186 2.64614 14.3077C4.63067 15.2023 6.63069 16.0741 8.64614 16.9231C8.73057 16.9479 8.8126 16.9786 8.89229 17.0154C8.92964 17.0078 8.95014 16.9873 8.95383 16.9539Z" fill="#4040D8"/>
<path fill-rule="evenodd" clip-rule="evenodd" d="M1.56924 15.0462C4.34001 16.1466 7.07847 17.3158 9.78463 18.5539C9.81318 18.5173 9.82346 18.4763 9.8154 18.4308C10.2195 19.0606 10.6707 19.6555 11.1692 20.2154C11.1773 20.2609 11.167 20.302 11.1385 20.3385C7.75527 18.8469 4.36041 17.3803 0.953857 15.9385C1.03223 15.8784 1.03223 15.8271 0.953857 15.7847C1.08982 15.4843 1.29495 15.2381 1.56924 15.0462Z" fill="#3333CC"/>
<path fill-rule="evenodd" clip-rule="evenodd" d="M13.1385 22.5539C12.6252 22.5641 12.1124 22.5539 11.6 22.5231C8.10776 21.0377 4.62059 19.5402 1.13847 18.0308C0.842808 17.8946 0.535118 17.8023 0.215393 17.7539C0.215393 17.6719 0.215393 17.5898 0.215393 17.5077C0.263712 17.3924 0.304737 17.2693 0.33847 17.1385C0.382875 17.1128 0.413644 17.0718 0.430778 17.0154C0.449708 17.0652 0.480477 17.1062 0.523085 17.1385C0.819547 17.2561 1.10672 17.3893 1.38462 17.5385C5.32047 19.1785 9.23841 20.8503 13.1385 22.5539Z" fill="#1D1CB4"/>
<path fill-rule="evenodd" clip-rule="evenodd" d="M27.9077 16.4C28.4282 17.1885 28.9 18.009 29.3231 18.8616C28.853 19.516 28.3402 20.1313 27.7846 20.7077C27.2819 19.9078 26.8102 19.0873 26.3693 18.2462C26.8827 17.6283 27.3955 17.0129 27.9077 16.4Z" fill="#302DC4"/>
<path fill-rule="evenodd" clip-rule="evenodd" d="M0.215393 17.7539C0.535118 17.8023 0.842808 17.8946 1.13847 18.0308C4.62059 19.5402 8.10776 21.0377 11.6 22.5231C12.1124 22.5539 12.6252 22.5641 13.1385 22.5539C14.0618 22.5436 14.9849 22.5539 15.9077 22.5847C14.1643 22.6154 12.4206 22.6257 10.6769 22.6154C9.6397 22.5759 8.59355 22.5246 7.53847 22.4616C5.2281 21.4487 2.91015 20.4539 0.584624 19.477C0.492031 19.3151 0.451005 19.3356 0.461547 19.5385C0.364005 19.2763 0.281954 19.0096 0.215393 18.7385C0.215393 18.4103 0.215393 18.0821 0.215393 17.7539Z" fill="#1110A8"/>
<path opacity="0.999" fill-rule="evenodd" clip-rule="evenodd" d="M10.6769 22.6154C9.79488 22.6154 8.91278 22.6154 8.03075 22.6154C6.75875 22.6999 5.48694 22.6896 4.21536 22.5847C2.76157 22.4586 1.64363 21.792 0.861516 20.5847C0.66111 20.2602 0.52778 19.9115 0.461516 19.5385C0.450975 19.3356 0.492 19.3151 0.584593 19.477C2.91012 20.4539 5.22807 21.4487 7.53845 22.4616C8.59352 22.5245 9.63968 22.5759 10.6769 22.6154Z" fill="#160B9C"/>
<path opacity="0.999" fill-rule="evenodd" clip-rule="evenodd" d="M29.3231 18.8616C29.8617 19.6718 30.354 20.5128 30.8 21.3846C30.724 21.371 30.6625 21.33 30.6154 21.2616C30.141 21.7768 29.6897 22.3102 29.2615 22.8616C29.2108 22.9161 29.1492 22.9366 29.0769 22.9231C28.616 22.207 28.1852 21.4686 27.7846 20.7077C28.3401 20.1314 28.853 19.516 29.3231 18.8616Z" fill="#3F3DD4"/>
<path opacity="0.999" fill-rule="evenodd" clip-rule="evenodd" d="M8.03076 22.6154C8.91279 22.6154 9.79488 22.6154 10.6769 22.6154C10.6769 22.6359 10.6769 22.6565 10.6769 22.677C9.81113 24.2238 8.9291 25.7622 8.03076 27.2923C7.98972 27.2923 7.96922 27.3128 7.96922 27.3539C6.68012 28.0699 5.40834 28.8084 4.15384 29.5693C4.11281 29.5693 4.07179 29.5693 4.03076 29.5693C5.38037 27.2597 6.71372 24.9417 8.03076 22.6154Z" fill="#9ACC0E"/>
<path opacity="0.997" fill-rule="evenodd" clip-rule="evenodd" d="M30.8 21.3847C31.2733 22.0242 31.5605 22.7422 31.6615 23.5385C31.6717 23.7242 31.6614 23.9089 31.6308 24.0924C30.1071 25.831 28.6199 27.5951 27.1692 29.3847C27.2371 29.4263 27.2986 29.4673 27.3539 29.5078C27.3539 29.5282 27.3539 29.5488 27.3539 29.5693C26.4923 29.5693 25.6308 29.5693 24.7692 29.5693C25.3619 28.862 25.9568 28.1543 26.5539 27.4462C26.6564 27.4257 26.759 27.4052 26.8615 27.3847C25.6925 27.3539 24.5233 27.3436 23.3539 27.3539C21.5487 27.3539 19.7436 27.3539 17.9385 27.3539C16.8308 27.3539 15.7231 27.3539 14.6154 27.3539C12.4 27.3539 10.1846 27.3539 7.96924 27.3539C7.96924 27.3129 7.98973 27.2924 8.03078 27.2924C14.433 27.3225 20.833 27.2917 27.2308 27.2001C28.6223 26.7875 29.3607 25.8542 29.4462 24.4001C29.4361 23.878 29.3131 23.3857 29.0769 22.9231C29.1492 22.9366 29.2108 22.9161 29.2615 22.8616C29.6897 22.3102 30.141 21.7769 30.6154 21.2616C30.6625 21.33 30.724 21.3711 30.8 21.3847Z" fill="#5351E5"/>
<path opacity="0.999" fill-rule="evenodd" clip-rule="evenodd" d="M31.6616 23.5385C31.6821 23.5385 31.7026 23.5385 31.7231 23.5385C31.7231 24.1334 31.7231 24.7282 31.7231 25.3231C31.1499 27.6399 29.6935 29.0348 27.3539 29.5077C27.2986 29.4673 27.2371 29.4263 27.1693 29.3847C28.62 27.5951 30.1071 25.8309 31.6308 24.0924C31.6614 23.9089 31.6717 23.7242 31.6616 23.5385Z" fill="#5E5CF2"/>
<path opacity="0.993" fill-rule="evenodd" clip-rule="evenodd" d="M7.96925 27.3539C10.1846 27.3539 12.4 27.3539 14.6154 27.3539C13.5997 27.3949 12.5741 27.4359 11.5385 27.477C10.9798 28.1782 10.426 28.8757 9.87695 29.5693C7.96925 29.5693 6.06156 29.5693 4.15387 29.5693C5.40837 28.8084 6.68015 28.0699 7.96925 27.3539Z" fill="#0908A1"/>
<path opacity="0.993" fill-rule="evenodd" clip-rule="evenodd" d="M14.6154 27.3539C15.7231 27.3539 16.8308 27.3539 17.9385 27.3539C17.6401 27.3949 17.3324 27.4359 17.0154 27.477C16.4146 28.1592 15.8402 28.8566 15.2923 29.5693C13.4872 29.5693 11.6821 29.5693 9.87695 29.5693C10.426 28.8757 10.9798 28.1782 11.5385 27.477C12.5741 27.4359 13.5997 27.3949 14.6154 27.3539Z" fill="#1515AE"/>
<path opacity="0.993" fill-rule="evenodd" clip-rule="evenodd" d="M17.9385 27.3539C19.7436 27.3539 21.5487 27.3539 23.3538 27.3539C22.9752 27.4048 22.5854 27.4356 22.1846 27.4462C21.599 28.1447 21.0247 28.8523 20.4615 29.5693C18.7385 29.5693 17.0154 29.5693 15.2923 29.5693C15.8402 28.8566 16.4145 28.1592 17.0154 27.477C17.3324 27.4359 17.6401 27.3949 17.9385 27.3539Z" fill="#2929C2"/>
<path opacity="0.993" fill-rule="evenodd" clip-rule="evenodd" d="M23.3539 27.3539C24.5233 27.3436 25.6925 27.3539 26.8615 27.3847C26.759 27.4052 26.6564 27.4257 26.5539 27.4462C25.9568 28.1543 25.3619 28.862 24.7692 29.5693C23.3334 29.5693 21.8974 29.5693 20.4615 29.5693C21.0247 28.8524 21.599 28.1447 22.1846 27.4462C22.5854 27.4356 22.9752 27.4048 23.3539 27.3539Z" fill="#3C3CD5"/>
</g>
</svg>
