<svg width="32" height="32" viewBox="0 0 32 32" fill="none" xmlns="http://www.w3.org/2000/svg">
<g clip-path="url(#clip0_23_66)">
<path fill-rule="evenodd" clip-rule="evenodd" d="M-0.111084 3.88892C10.5556 3.88892 21.2222 3.88892 31.8889 3.88892C31.8889 4.55558 31.8889 5.22225 31.8889 5.88892C21.2222 5.88892 10.5556 5.88892 -0.111084 5.88892C-0.111084 5.22225 -0.111084 4.55558 -0.111084 3.88892Z" fill="#2094F3"/>
<path opacity="0.999" fill-rule="evenodd" clip-rule="evenodd" d="M1.88892 9.88887C8.15732 9.08376 10.787 11.8245 9.7778 18.1111C9.33272 19.8893 8.25865 21.1115 6.55558 21.7778C5.00178 21.8888 3.44623 21.9258 1.88892 21.8889C1.88892 17.8889 1.88892 13.8889 1.88892 9.88887ZM3.88892 11.8889C6.67192 11.8203 8.00525 13.1906 7.88892 16C7.89805 18.6947 6.56472 19.991 3.88892 19.8889C3.88892 17.2222 3.88892 14.5555 3.88892 11.8889Z" fill="#2095F3"/>
<path fill-rule="evenodd" clip-rule="evenodd" d="M11.8889 9.88892C12.5556 9.88892 13.2222 9.88892 13.8889 9.88892C13.8889 11.5185 13.8889 13.1482 13.8889 14.7778C15.2222 14.7778 16.5556 14.7778 17.8889 14.7778C17.8889 13.1482 17.8889 11.5185 17.8889 9.88892C18.5556 9.88892 19.2222 9.88892 19.8889 9.88892C19.8889 13.8889 19.8889 17.8889 19.8889 21.8889C19.2222 21.8889 18.5556 21.8889 17.8889 21.8889C17.8889 20.1852 17.8889 18.4815 17.8889 16.7778C16.5556 16.7778 15.2222 16.7778 13.8889 16.7778C13.8889 18.4815 13.8889 20.1852 13.8889 21.8889C13.2222 21.8889 12.5556 21.8889 11.8889 21.8889C11.8889 17.8889 11.8889 13.8889 11.8889 9.88892Z" fill="#2094F3"/>
<path opacity="0.997" fill-rule="evenodd" clip-rule="evenodd" d="M21.8889 9.88887C22.7169 9.81718 23.5318 9.89127 24.3334 10.1111C24.7947 11.2558 25.3134 12.3669 25.8889 13.4444C26.4645 12.3669 26.9831 11.2558 27.4445 10.1111C28.2594 9.8148 29.074 9.8148 29.8889 10.1111C29.0285 12.0168 28.1396 13.9057 27.2222 15.7778C28.1769 17.7915 29.0658 19.8285 29.8889 21.8889C29.0609 21.9606 28.246 21.8865 27.4445 21.6666C26.9831 20.522 26.4645 19.4108 25.8889 18.3333C25.3134 19.4108 24.7947 20.522 24.3334 21.6666C23.5318 21.8865 22.7169 21.9606 21.8889 21.8889C22.712 19.8285 23.6009 17.7915 24.5556 15.7778C23.5745 13.853 22.6856 11.89 21.8889 9.88887Z" fill="#2095F3"/>
<path fill-rule="evenodd" clip-rule="evenodd" d="M-0.111084 25.8889C10.5556 25.8889 21.2222 25.8889 31.8889 25.8889C31.8889 26.5556 31.8889 27.2222 31.8889 27.8889C21.2222 27.8889 10.5556 27.8889 -0.111084 27.8889C-0.111084 27.2222 -0.111084 26.5556 -0.111084 25.8889Z" fill="#2094F3"/>
</g>
<defs>
<clipPath id="clip0_23_66">
<rect width="32" height="32" fill="white"/>
</clipPath>
</defs>
</svg>
