<svg width="32" height="32" viewBox="0 0 32 32" fill="none" xmlns="http://www.w3.org/2000/svg">
<mask id="mask0_27_177" style="mask-type:luminance" maskUnits="userSpaceOnUse" x="0" y="1" width="32" height="30">
<path d="M31.6632 1.6842H0.505264V30.3158H31.6632V1.6842Z" fill="white"/>
</mask>
<g mask="url(#mask0_27_177)">
<path opacity="0.938" fill-rule="evenodd" clip-rule="evenodd" d="M15.7474 1.60001C15.9719 1.60001 16.1965 1.60001 16.4211 1.60001C18.1635 2.92162 19.6512 4.49355 20.8842 6.3158C22.5575 9.63497 22.2767 12.7788 20.0421 15.7474C18.8482 17.0824 17.5289 18.2614 16.0842 19.2842C14.299 18.2009 12.8113 16.7974 11.6211 15.0737C9.52738 11.4965 9.75195 8.07189 12.2947 4.80001C13.3775 3.63206 14.5283 2.5654 15.7474 1.60001ZM15.9158 5.13685C17.3162 5.948 18.411 7.07081 19.2 8.50527C19.8542 10.1608 19.6857 11.7327 18.6947 13.2211C17.9614 14.207 17.0914 15.0491 16.0842 15.7474C11.4283 12.2618 11.3722 8.72501 15.9158 5.13685Z" fill="#006BC4"/>
<path opacity="0.93" fill-rule="evenodd" clip-rule="evenodd" d="M8.8421 30.2316C7.66316 30.2316 6.48421 30.2316 5.30526 30.2316C3.62154 29.8761 1.99348 29.3147 0.421051 28.5474C0.421051 28.4351 0.421051 28.3229 0.421051 28.2105C1.75493 18.6879 6.86371 15.8247 15.7474 19.6211C15.8804 23.4806 14.4769 26.6525 11.5368 29.1369C10.6536 29.5891 9.75537 29.954 8.8421 30.2316ZM8 20.1263C9.83072 20.0241 11.543 20.4172 13.1368 21.3053C13.0949 23.1552 12.5335 24.8394 11.4526 26.3579C10.3937 27.5074 9.07437 28.125 7.49473 28.2105C6.04226 28.0298 4.63873 27.665 3.28421 27.1158C3.22863 24.5876 4.183 22.5103 6.14737 20.8842C6.76335 20.5774 7.3809 20.3247 8 20.1263Z" fill="#FEB600"/>
<path opacity="0.932" fill-rule="evenodd" clip-rule="evenodd" d="M31.5789 27.2C31.5789 27.7053 31.5789 28.2105 31.5789 28.7158C30.0251 29.3278 28.453 29.8331 26.8632 30.2316C25.6842 30.2316 24.5053 30.2316 23.3263 30.2316C19.8317 29.2339 17.6704 26.9322 16.8421 23.3263C16.4705 22.1034 16.3302 20.8684 16.421 19.6211C19.3059 18.0901 22.3375 17.6691 25.5158 18.3579C28.2777 19.3797 30.0461 21.3166 30.821 24.1684C31.0791 25.2007 31.3317 26.2112 31.5789 27.2ZM22.4842 20.1263C25.5958 20.0669 27.5889 21.5266 28.4632 24.5053C28.7729 25.3713 28.8571 26.2415 28.7158 27.1158C22.8498 29.3789 19.6498 27.4141 19.1158 21.2211C20.2092 20.6974 21.3319 20.3325 22.4842 20.1263Z" fill="#00A335"/>
</g>
</svg>
