<svg width="32" height="32" viewBox="0 0 32 32" fill="none" xmlns="http://www.w3.org/2000/svg">
<g clip-path="url(#clip0_27_377)">
<path fill-rule="evenodd" clip-rule="evenodd" d="M-0.111084 -0.111084C10.5556 -0.111084 21.2222 -0.111084 31.8889 -0.111084C31.8889 10.5556 31.8889 21.2222 31.8889 31.8889C21.2222 31.8889 10.5556 31.8889 -0.111084 31.8889C-0.111084 21.2222 -0.111084 10.5556 -0.111084 -0.111084Z" fill="#35363C"/>
<path fill-rule="evenodd" clip-rule="evenodd" d="M6.33332 4.11108C6.62961 4.11108 6.92592 4.11108 7.22221 4.11108C7.25919 6.11246 7.22217 8.11246 7.1111 10.1111C4.26939 10.9732 3.08419 9.9362 3.55555 6.99997C4.2429 6.04555 5.16881 5.67517 6.33332 5.88886C6.33332 5.29626 6.33332 4.70368 6.33332 4.11108Z" fill="#EEEEEF"/>
<path fill-rule="evenodd" clip-rule="evenodd" d="M8.55554 4.11108C8.85183 4.11108 9.14814 4.11108 9.44443 4.11108C9.44443 4.40737 9.44443 4.70368 9.44443 4.99997C9.14814 4.99997 8.85183 4.99997 8.55554 4.99997C8.55554 4.70368 8.55554 4.40737 8.55554 4.11108Z" fill="#EBEBEB"/>
<path fill-rule="evenodd" clip-rule="evenodd" d="M8.33335 6.11108C8.70372 6.11108 9.07408 6.11108 9.44446 6.11108C9.44446 7.8148 9.44446 9.51848 9.44446 11.2222C9.34384 11.4352 9.19568 11.6204 9.00001 11.7778C8.48672 11.8881 7.96819 11.9252 7.44446 11.8889C7.44446 11.6666 7.44446 11.4444 7.44446 11.2222C7.88161 11.2754 8.28901 11.2013 8.66668 11C8.85126 9.58675 8.81421 8.17935 8.55557 6.77775C8.13244 6.60962 8.05835 6.3874 8.33335 6.11108Z" fill="#F2F2F2"/>
<path fill-rule="evenodd" clip-rule="evenodd" d="M13.8889 6.77775C14.0081 8.02993 13.86 9.21513 13.4444 10.3333C12.7 10.37 11.9593 10.3329 11.2222 10.2222C10.7826 9.66724 10.6715 9.03759 10.8889 8.3333C11.1398 7.96859 11.4731 7.74637 11.8889 7.66664C12.3333 7.66664 12.7778 7.66664 13.2222 7.66664C13.275 7.37975 13.2009 7.15753 13 6.99997C12.4963 6.49717 11.9037 6.4231 11.2222 6.77775C10.9487 6.52204 10.9487 6.26279 11.2222 5.99997C11.8889 5.85182 12.5556 5.85182 13.2222 5.99997C13.4911 6.23088 13.7134 6.49015 13.8889 6.77775Z" fill="#EFEFF0"/>
<path fill-rule="evenodd" clip-rule="evenodd" d="M15.2222 5.88891C15.6649 5.85079 16.0352 5.99893 16.3333 6.33335C17.1819 5.69095 17.9597 5.76502 18.6667 6.55557C18.7777 7.81266 18.8147 9.07193 18.7778 10.3333C18.5556 10.3333 18.3333 10.3333 18.1111 10.3333C18.148 9.29368 18.1109 8.25664 18 7.22224C17.2987 6.57806 16.7061 6.65213 16.2222 7.44446C16.1113 8.40459 16.0743 9.36755 16.1111 10.3333C15.8148 10.3333 15.5185 10.3333 15.2222 10.3333C15.2222 8.85186 15.2222 7.37039 15.2222 5.88891Z" fill="#EEEEEF"/>
<path fill-rule="evenodd" clip-rule="evenodd" d="M20.7778 5.88892C21.8874 5.98129 22.9985 6.05538 24.1111 6.11114C24.1111 6.33336 24.1111 6.55558 24.1111 6.7778C23.8889 6.7778 23.6667 6.7778 23.4445 6.7778C23.4476 8.55069 22.5587 9.29145 20.7778 9.00003C20.7778 9.22225 20.7778 9.44447 20.7778 9.66669C21.5222 9.63003 22.2629 9.66707 23 9.7778C23.8009 10.0742 24.0602 10.6298 23.7778 11.4445C22.7825 12.2762 21.6342 12.5354 20.3334 12.2222C19.4445 11.5556 19.4445 10.8889 20.3334 10.2222C20.3653 9.05947 20.2542 7.91132 20 6.7778C20.3057 6.51 20.565 6.21372 20.7778 5.88892Z" fill="#E7E7E8"/>
<path fill-rule="evenodd" clip-rule="evenodd" d="M25.4445 5.88892C27.8318 5.77279 28.7578 6.8839 28.2222 9.22225C27.5785 10.2567 26.6527 10.59 25.4445 10.2223C25.0371 10.1111 24.7778 9.85187 24.6667 9.44447C24.0551 8.05252 24.3142 6.86732 25.4445 5.88892Z" fill="#EDEDED"/>
<path fill-rule="evenodd" clip-rule="evenodd" d="M8.33331 6.11112C8.72545 5.89747 9.16989 5.8234 9.66665 5.88889C9.73902 7.70758 9.66496 9.48536 9.44442 11.2222C9.44442 9.51852 9.44442 7.81483 9.44442 6.11112C9.07405 6.11112 8.70369 6.11112 8.33331 6.11112Z" fill="#C1C1C3"/>
<path fill-rule="evenodd" clip-rule="evenodd" d="M5.00002 6.55554C5.44447 6.55554 5.88891 6.55554 6.33336 6.55554C6.33336 7.59259 6.33336 8.62961 6.33336 9.66665C4.54173 9.79483 3.91209 8.98001 4.44447 7.22221C4.67669 7.02812 4.86187 6.8059 5.00002 6.55554Z" fill="#35363C"/>
<path fill-rule="evenodd" clip-rule="evenodd" d="M25.8889 6.55554C27.3576 6.72408 27.8391 7.5389 27.3333 8.99999C27.0433 9.62363 26.5618 9.80881 25.8889 9.55554C25.0122 8.55612 25.0122 7.55612 25.8889 6.55554Z" fill="#323339"/>
<path fill-rule="evenodd" clip-rule="evenodd" d="M13.8889 6.77777C14.1085 7.9201 14.1825 9.10528 14.1111 10.3333C13.8889 10.3333 13.6667 10.3333 13.4445 10.3333C13.86 9.21515 14.0081 8.02995 13.8889 6.77777Z" fill="#ACACAE"/>
<path fill-rule="evenodd" clip-rule="evenodd" d="M13 7C13.2009 7.15756 13.275 7.37978 13.2222 7.66667C12.7778 7.66667 12.3334 7.66667 11.8889 7.66667C12.3403 7.56169 12.7107 7.33947 13 7Z" fill="#69696E"/>
<path fill-rule="evenodd" clip-rule="evenodd" d="M21.2222 6.55554C22.5529 6.59199 22.8491 7.14754 22.1111 8.22221C20.7563 8.25499 20.46 7.69943 21.2222 6.55554Z" fill="#313239"/>
<path fill-rule="evenodd" clip-rule="evenodd" d="M11.8889 8.33331C12.3334 8.33331 12.7778 8.33331 13.2222 8.33331C13.2222 8.77776 13.2222 9.2222 13.2222 9.66665C12.7037 9.66665 12.1852 9.66665 11.6667 9.66665C11.6279 9.19536 11.7019 8.75091 11.8889 8.33331Z" fill="#2D2E34"/>
<path fill-rule="evenodd" clip-rule="evenodd" d="M20.7778 10.5556C21.4485 10.519 22.1152 10.556 22.7778 10.6667C23.0504 11.0194 22.9764 11.3157 22.5555 11.5556C21.9629 11.7037 21.3704 11.7037 20.7778 11.5556C20.5049 11.2244 20.5049 10.8911 20.7778 10.5556Z" fill="#2E2F35"/>
<path fill-rule="evenodd" clip-rule="evenodd" d="M8.55558 17C9.44754 16.9632 10.3364 17.0003 11.2223 17.1111C11.6855 17.4503 11.6855 17.8577 11.2223 18.3333C9.2579 17.7795 8.22085 18.5202 8.11114 20.5556C8.12876 22.7536 9.23987 23.6053 11.4445 23.1111C11.6401 23.4125 11.7141 23.7458 11.6667 24.1111C7.79216 24.7925 6.1255 23.1629 6.6667 19.2222C7.10623 18.3027 7.73585 17.5619 8.55558 17Z" fill="#34353B"/>
<path fill-rule="evenodd" clip-rule="evenodd" d="M22.1111 17C23.0847 16.9715 24.0478 17.0456 25 17.2222C25.0598 17.6508 24.9487 18.0212 24.6667 18.3333C23.9838 18.0852 23.28 18.0481 22.5555 18.2222C22.2367 18.7261 22.3107 19.1705 22.7778 19.5556C23.8195 19.8277 24.6713 20.3832 25.3333 21.2222C25.5211 23.3682 24.5211 24.4051 22.3333 24.3333C21.6019 24.4276 21.0093 24.2053 20.5555 23.6667C20.6615 23.3487 20.8096 23.0525 21 22.7778C21.8017 23.0207 22.6167 23.0578 23.4444 22.8889C24.0371 22.3705 24.0371 21.8519 23.4444 21.3333C22.3513 21.126 21.4995 20.5704 20.8889 19.6667C20.6385 18.4643 21.0459 17.5754 22.1111 17Z" fill="#35363C"/>
<path d="M25.8917 15H5.10831C3.95923 15 3 15.9603 3 17.1935V26.8065C3 28.0094 3.94924 29 5.10831 29H25.8917C27.0408 29 28 28.0397 28 26.8065V17.1935C27.99 15.9603 27.0508 15 25.8917 15ZM10.4341 25.6036C10.1743 25.6339 9.8745 25.6643 9.54476 25.6643C8.98521 25.6643 8.49561 25.5733 8.06595 25.3711C7.63629 25.169 7.27658 24.9061 6.98681 24.5726C6.69705 24.2289 6.4972 23.8448 6.32734 23.3697C6.18745 22.9047 6.09752 22.4094 6.09752 21.8433C6.09752 21.2773 6.15748 20.7819 6.32734 20.317C6.4972 19.852 6.69705 19.4477 6.98681 19.0838C7.27658 18.7401 7.64629 18.4773 8.03597 18.2852C8.46563 18.083 8.92526 17.9921 9.48482 17.9921C9.82454 17.9921 10.1143 18.0224 10.3741 18.0527C10.6339 18.083 10.9337 18.1942 11.2334 18.3155C11.2334 18.5177 11.1735 18.7199 11.0935 18.922C11.0336 19.1242 10.9536 19.3264 10.8637 19.5285C10.6339 19.4679 10.4341 19.387 10.2342 19.3567C10.0644 19.3264 9.83453 19.296 9.60472 19.296C8.97522 19.296 8.49561 19.4982 8.1259 19.9329C7.78617 20.3675 7.60632 20.9942 7.60632 21.8635C7.60632 23.5314 8.29577 24.3906 9.68466 24.3906C9.91447 24.3906 10.1443 24.3603 10.3441 24.33C10.544 24.2996 10.7438 24.239 10.9736 24.1581C11.0636 24.3603 11.1435 24.5625 11.2034 24.7646C11.2634 24.9668 11.2934 25.169 11.3433 25.3711C11.0236 25.4823 10.7038 25.5733 10.4341 25.6036ZM18.5675 25.6036C18.3377 25.6036 18.1079 25.5733 17.9081 25.543L17.7382 20.5292L16.2894 24.0166C16.1994 24.0166 16.0895 24.0469 15.9996 24.0469C15.9097 24.0469 15.7998 24.0469 15.7098 24.0469C15.6199 24.0469 15.54 24.0469 15.45 24.0469C15.3601 24.0469 15.2802 24.0166 15.1902 24.0166L13.8513 20.4484L13.7114 25.543C13.5116 25.5733 13.2818 25.6036 13.0819 25.6036C12.8821 25.6036 12.6523 25.5733 12.4225 25.543L12.6823 18.1235C12.942 18.0931 13.2018 18.0628 13.4416 18.0628C13.7014 18.0628 13.9612 18.0931 14.201 18.1235L15.8497 22.3791L17.5284 18.1235C17.7282 18.0931 17.958 18.0628 18.2178 18.0628C18.4776 18.0628 18.7074 18.0931 18.9372 18.1235L19.277 25.543C19.0172 25.5733 18.7574 25.6036 18.5675 25.6036ZM24.8026 24.2794C24.6627 24.5726 24.5128 24.8051 24.283 25.0072C24.0532 25.2094 23.7634 25.3812 23.4237 25.5025C23.0839 25.644 22.7042 25.6744 22.2346 25.6744C22.0048 25.6744 21.805 25.6744 21.6351 25.644C21.4652 25.644 21.2954 25.6137 21.1455 25.5834C20.9756 25.5531 20.8557 25.5227 20.6858 25.4419C20.516 25.4116 20.3961 25.3509 20.1962 25.27C20.2262 25.0679 20.2562 24.8657 20.2862 24.6332C20.3461 24.4007 20.4261 24.1986 20.486 23.9661C20.7458 24.1076 21.0056 24.1682 21.2754 24.2289C21.5052 24.2895 21.765 24.3199 22.0647 24.3199C22.4944 24.3199 22.8241 24.2592 23.054 24.0874C23.2838 23.9155 23.4237 23.683 23.4237 23.3596C23.4237 23.1877 23.3937 23.0664 23.3337 22.9552C23.2738 22.8643 23.1938 22.7531 23.1039 22.6924C23.014 22.6318 22.9041 22.5509 22.8141 22.4903C22.7242 22.4296 22.5843 22.3993 22.4444 22.3487L21.8449 22.1162C21.6151 22.0253 21.4153 21.9141 21.2454 21.8231C21.0755 21.7321 20.9057 21.5906 20.7858 21.4491C20.6459 21.3076 20.556 21.1054 20.496 20.9235C20.4361 20.7213 20.4061 20.4585 20.4061 20.1957C20.4061 19.8217 20.466 19.5285 20.5759 19.2657C20.7158 19.0029 20.8657 18.7704 21.0655 18.5986C21.2654 18.4267 21.5252 18.2549 21.8249 18.1942C22.1147 18.1032 22.4544 18.0527 22.8441 18.0527C23.1839 18.0527 23.5036 18.083 23.7934 18.1437C24.0831 18.2043 24.3929 18.3155 24.7126 18.4065C24.6827 18.8108 24.5727 19.2051 24.3729 19.569C24.283 19.5386 24.1731 19.5083 24.0831 19.4274C23.9932 19.3971 23.8833 19.3668 23.7434 19.3365C23.6035 19.3061 23.4836 19.2758 23.3437 19.2758C23.2038 19.2455 23.054 19.2455 22.8541 19.2455C22.7642 19.2455 22.6243 19.2455 22.5144 19.2758C22.3745 19.3061 22.2846 19.3365 22.1747 19.3668C22.0847 19.4274 22.0048 19.5083 21.9448 19.5993C21.8849 19.6903 21.8549 19.8318 21.8549 20.0339C21.8549 20.1755 21.8849 20.2968 21.9149 20.3776C21.9448 20.4686 22.0048 20.5495 22.1147 20.6101C22.1747 20.6708 22.2846 20.7516 22.3745 20.782C22.4644 20.8123 22.5743 20.8729 22.6643 20.9235L23.2638 21.156C23.5236 21.2469 23.7534 21.3581 23.9532 21.4996C24.1531 21.5906 24.3529 21.7321 24.4728 21.904C24.6127 22.0758 24.7326 22.278 24.8125 22.5105C24.8925 22.743 24.9524 23.0058 24.9524 23.3798C25.0024 23.6426 24.9424 23.9863 24.8026 24.2794Z" fill="white"/>
</g>
<defs>
<clipPath id="clip0_27_377">
<rect width="32" height="32" fill="white"/>
</clipPath>
</defs>
</svg>
