<svg width="32" height="32" viewBox="0 0 32 32" fill="none" xmlns="http://www.w3.org/2000/svg">
<g clip-path="url(#clip0_1_140)">
<path fill-rule="evenodd" clip-rule="evenodd" d="M15.2889 10.4533C15.2889 14.1037 15.2889 17.754 15.2889 21.4044C11.7807 21.4044 8.27259 21.4044 4.76443 21.4044C4.76443 17.754 4.76443 14.1037 4.76443 10.4533C8.27259 10.4533 11.7807 10.4533 15.2889 10.4533Z" fill="#0B0B0B"/>
<path fill-rule="evenodd" clip-rule="evenodd" d="M4.90668 10.5956C8.32001 10.5956 11.7333 10.5956 15.1467 10.5956C15.1467 14.1511 15.1467 17.7067 15.1467 21.2622C11.7333 21.2622 8.32001 21.2622 4.90668 21.2622C4.90668 17.7067 4.90668 14.1511 4.90668 10.5956Z" fill="#282828"/>
<path fill-rule="evenodd" clip-rule="evenodd" d="M5.47556 11.1645C8.53242 11.0226 11.6139 10.9752 14.72 11.0222C14.72 14.2933 14.72 17.5645 14.72 20.8356C11.6139 20.8826 8.53242 20.8351 5.47556 20.6933C8.50962 20.6933 11.5437 20.6933 14.5778 20.6933C14.5778 17.5171 14.5778 14.3407 14.5778 11.1645C11.5437 11.1645 8.50962 11.1645 5.47556 11.1645Z" fill="#9E9E9E"/>
<path fill-rule="evenodd" clip-rule="evenodd" d="M5.47556 11.1644C8.50962 11.1644 11.5437 11.1644 14.5778 11.1644C14.5778 14.3407 14.5778 17.5171 14.5778 20.6933C11.5437 20.6933 8.50962 20.6933 5.47556 20.6933C5.47556 17.5171 5.47556 14.3407 5.47556 11.1644Z" fill="#005E45"/>
<path fill-rule="evenodd" clip-rule="evenodd" d="M8.03555 15.2889C8.03555 16.3793 8.03555 17.4696 8.03555 18.56C8.93629 18.56 9.83704 18.56 10.7378 18.56C9.81632 18.7009 8.86816 18.7483 7.89333 18.7022C7.84701 17.5383 7.89441 16.4005 8.03555 15.2889Z" fill="#828282"/>
<path fill-rule="evenodd" clip-rule="evenodd" d="M8.03557 12.7289C8.03557 13.2978 8.03557 13.8667 8.03557 14.4355C8.36742 14.4355 8.69928 14.4355 9.03112 14.4355C8.68298 14.5739 8.30372 14.6213 7.89335 14.5778C7.84809 13.9332 7.89549 13.3169 8.03557 12.7289Z" fill="#A1A1A1"/>
<path fill-rule="evenodd" clip-rule="evenodd" d="M10.7378 18.56C9.83704 18.56 8.93629 18.56 8.03555 18.56C8.03555 17.4696 8.03555 16.3793 8.03555 15.2889C8.3674 15.2889 8.69926 15.2889 9.03111 15.2889C9.03111 16.0474 9.03111 16.806 9.03111 17.5645C9.55473 17.5879 10.0762 17.5643 10.5956 17.4933C10.7664 17.3649 10.8849 17.1991 10.9511 16.9956C11.0662 15.6039 10.9951 14.2291 10.7378 12.8711C11.4826 12.9757 11.9329 13.4023 12.0889 14.1511C12.2177 15.3474 12.1703 16.5326 11.9467 17.7067C11.637 18.1366 11.234 18.4211 10.7378 18.56Z" fill="#272727"/>
<path fill-rule="evenodd" clip-rule="evenodd" d="M8.03555 12.7289C8.65184 12.7289 9.26815 12.7289 9.88444 12.7289C9.88444 13.0607 9.88444 13.3926 9.88444 13.7244C9.6 13.7244 9.31555 13.7244 9.03111 13.7244C9.03111 13.9615 9.03111 14.1985 9.03111 14.4355C8.69926 14.4355 8.3674 14.4355 8.03555 14.4355C8.03555 13.8667 8.03555 13.2978 8.03555 12.7289Z" fill="#262626"/>
<path fill-rule="evenodd" clip-rule="evenodd" d="M16.5689 10.4533C20.0771 10.4533 23.5851 10.4533 27.0933 10.4533C27.0933 14.1037 27.0933 17.754 27.0933 21.4044C23.5851 21.4044 20.0771 21.4044 16.5689 21.4044C16.5689 17.754 16.5689 14.1037 16.5689 10.4533Z" fill="#0A0A0A"/>
<path fill-rule="evenodd" clip-rule="evenodd" d="M16.7111 10.5956C20.1245 10.5956 23.5378 10.5956 26.9511 10.5956C26.9511 14.1511 26.9511 17.7067 26.9511 21.2622C23.5378 21.2622 20.1245 21.2622 16.7111 21.2622C16.7111 17.7067 16.7111 14.1511 16.7111 10.5956Z" fill="#C4D347"/>
<path fill-rule="evenodd" clip-rule="evenodd" d="M23.5378 16.2844C22.7793 16.2844 22.0207 16.2844 21.2622 16.2844C21.2622 17.0429 21.2622 17.8015 21.2622 18.56C20.8829 18.56 20.5038 18.56 20.1245 18.56C20.1245 17.4696 20.1245 16.3793 20.1245 15.2889C21.2622 15.2889 22.4 15.2889 23.5378 15.2889C23.5378 15.6207 23.5378 15.9526 23.5378 16.2844Z" fill="#FCFCFC"/>
<path fill-rule="evenodd" clip-rule="evenodd" d="M23.5378 16.2844C23.5378 15.9526 23.5378 15.6207 23.5378 15.2889C22.4 15.2889 21.2622 15.2889 20.1244 15.2889C20.1244 16.3793 20.1244 17.4696 20.1244 18.56C19.9833 17.4484 19.9358 16.3106 19.9822 15.1467C21.2148 15.1467 22.4473 15.1467 23.68 15.1467C23.7235 15.557 23.6761 15.9363 23.5378 16.2844Z" fill="#9D9D9D"/>
<path fill-rule="evenodd" clip-rule="evenodd" d="M20.1245 12.5867C20.1245 13.1556 20.1245 13.7244 20.1245 14.2933C20.5038 14.2933 20.8829 14.2933 21.2622 14.2933C20.8659 14.4323 20.4392 14.4796 19.9822 14.4356C19.937 13.791 19.9844 13.1747 20.1245 12.5867Z" fill="#8E8E8E"/>
<path fill-rule="evenodd" clip-rule="evenodd" d="M20.1245 12.5867C21.3096 12.5867 22.4949 12.5867 23.68 12.5867C23.68 12.9185 23.68 13.2504 23.68 13.5822C22.874 13.5822 22.0682 13.5822 21.2622 13.5822C21.2622 13.8193 21.2622 14.0563 21.2622 14.2933C20.8829 14.2933 20.5038 14.2933 20.1245 14.2933C20.1245 13.7244 20.1245 13.1556 20.1245 12.5867Z" fill="#FCFCFC"/>
<path fill-rule="evenodd" clip-rule="evenodd" d="M15.2889 10.4533C15.4308 14.1267 15.4782 17.8244 15.4311 21.5467C11.8511 21.5937 8.2955 21.5464 4.76443 21.4044C8.27259 21.4044 11.7807 21.4044 15.2889 21.4044C15.2889 17.754 15.2889 14.1037 15.2889 10.4533Z" fill="#BEBEBE"/>
<path fill-rule="evenodd" clip-rule="evenodd" d="M16.5689 10.4533C16.5689 14.1037 16.5689 17.754 16.5689 21.4044C20.0771 21.4044 23.5851 21.4044 27.0933 21.4044C23.5622 21.5464 20.0067 21.5937 16.4267 21.5467C16.3796 17.8244 16.4269 14.1267 16.5689 10.4533Z" fill="#BEBEBE"/>
</g>
<defs>
<clipPath id="clip0_1_140">
<rect width="32" height="32" fill="white"/>
</clipPath>
</defs>
</svg>
