<svg width="32" height="32" viewBox="0 0 32 32" fill="none" xmlns="http://www.w3.org/2000/svg">
<g clip-path="url(#clip0_1_220)">
<path fill-rule="evenodd" clip-rule="evenodd" d="M-0.071106 -0.071106C10.5956 -0.071106 21.2622 -0.071106 31.9289 -0.071106C31.9289 10.5956 31.9289 21.2622 31.9289 31.9289C21.2622 31.9289 10.5956 31.9289 -0.071106 31.9289C-0.071106 21.2622 -0.071106 10.5956 -0.071106 -0.071106Z" fill="#2277AA"/>
<path fill-rule="evenodd" clip-rule="evenodd" d="M17.4222 2.20446C17.6765 2.1639 17.9136 2.2113 18.1334 2.34668C18.0149 2.39408 17.8963 2.4415 17.7778 2.4889C17.5821 2.4627 17.4636 2.36788 17.4222 2.20446Z" fill="#2076C9"/>
<path fill-rule="evenodd" clip-rule="evenodd" d="M19.1289 2.20444C19.1763 2.20444 19.2238 2.20444 19.2711 2.20444C19.1023 2.55649 18.8179 2.69872 18.4178 2.6311C18.5981 2.41109 18.8352 2.26886 19.1289 2.20444Z" fill="#8AC484"/>
<path fill-rule="evenodd" clip-rule="evenodd" d="M19.2711 2.20445C19.372 2.07588 19.5142 2.02847 19.6978 2.06222C19.6349 2.58197 19.5874 3.10346 19.5556 3.62667C19.5082 3.62667 19.4607 3.62667 19.4133 3.62667C19.4579 3.12293 19.4104 2.64886 19.2711 2.20445Z" fill="#A8E28D"/>
<path fill-rule="evenodd" clip-rule="evenodd" d="M17.9911 2.77335C17.7878 2.9209 17.5507 3.01571 17.28 3.05779C17.4415 2.81414 17.6785 2.71932 17.9911 2.77335Z" fill="#4C8765"/>
<path fill-rule="evenodd" clip-rule="evenodd" d="M17.28 3.05777C17.0069 3.13815 16.7698 3.28038 16.5689 3.48444C16.0886 3.54979 15.6144 3.64459 15.1467 3.76888C15.1576 3.59113 15.2525 3.47262 15.4311 3.41333C16.0721 3.35288 16.6885 3.23435 17.28 3.05777Z" fill="#357A88"/>
<path fill-rule="evenodd" clip-rule="evenodd" d="M19.2711 2.20444C19.4104 2.64885 19.4579 3.12292 19.4134 3.62666C19.366 3.9111 19.3185 4.19555 19.2711 4.47999C19.1289 4.47999 18.9867 4.47999 18.8445 4.47999C18.8211 4.0978 18.8449 3.71854 18.9156 3.34222C19.0309 3.54982 19.1495 3.59722 19.2711 3.48444C19.231 2.88234 19.0177 2.78752 18.6311 3.19999C18.5311 3.93879 18.5549 4.67361 18.7022 5.40444C18.4437 6.58404 18.2777 6.51293 18.2045 5.1911C18.1348 5.37503 18.111 5.56466 18.1334 5.75999C17.859 5.79828 17.6221 5.72717 17.4222 5.54666C18.1085 4.88012 18.3454 4.07419 18.1334 3.12888C18.2013 2.94362 18.2962 2.77769 18.4178 2.6311C18.8179 2.69872 19.1023 2.55649 19.2711 2.20444Z" fill="#B8DE52"/>
<path fill-rule="evenodd" clip-rule="evenodd" d="M19.5556 3.62666C19.5874 3.10345 19.6349 2.58196 19.6978 2.06221C19.5142 2.02846 19.372 2.07587 19.2711 2.20444C19.2238 2.20444 19.1763 2.20444 19.1289 2.20444C19.2785 1.95469 19.5156 1.85987 19.84 1.91999C19.8043 2.40483 19.8518 2.8789 19.9822 3.34221C19.8604 3.4738 19.7181 3.56862 19.5556 3.62666Z" fill="#387F81"/>
<path fill-rule="evenodd" clip-rule="evenodd" d="M16.5689 3.48444C16.1111 3.79993 15.5895 3.96586 15.0044 3.98221C14.597 4.30738 14.1229 4.4259 13.5822 4.33777C13.5822 4.29037 13.5822 4.24295 13.5822 4.19555C14.1497 4.19563 14.6712 4.05341 15.1467 3.76888C15.6144 3.64459 16.0886 3.54979 16.5689 3.48444Z" fill="#82BB83"/>
<path fill-rule="evenodd" clip-rule="evenodd" d="M13.5822 4.19556C13.5822 4.24297 13.5822 4.29038 13.5822 4.33778C13.0724 4.49178 12.5509 4.58659 12.0178 4.62223C12.0178 4.57483 12.0178 4.52741 12.0178 4.48001C12.5136 4.27343 13.0351 4.17861 13.5822 4.19556Z" fill="#4B8471"/>
<path fill-rule="evenodd" clip-rule="evenodd" d="M19.4133 3.62668C19.4607 3.62668 19.5082 3.62668 19.5556 3.62668C19.5463 4.04313 19.4515 4.42238 19.2711 4.76446C19.2711 4.66964 19.2711 4.57483 19.2711 4.48001C19.3185 4.19557 19.366 3.91112 19.4133 3.62668Z" fill="#3C846C"/>
<path fill-rule="evenodd" clip-rule="evenodd" d="M12.0178 4.48001C12.0178 4.52741 12.0178 4.57483 12.0178 4.62223C11.7455 4.58177 11.5084 4.62918 11.3067 4.76445C10.8695 4.81744 10.4428 4.91225 10.0267 5.0489C10.1466 4.81092 10.3362 4.64499 10.5956 4.55112C11.0673 4.48025 11.5414 4.45654 12.0178 4.48001Z" fill="#2C7989"/>
<path fill-rule="evenodd" clip-rule="evenodd" d="M18.8444 4.48001C18.9866 4.48001 19.1289 4.48001 19.2711 4.48001C19.2711 4.57483 19.2711 4.66964 19.2711 4.76446C19.0932 5.13883 18.9509 5.51809 18.8444 5.90223C18.8444 5.42816 18.8444 4.95408 18.8444 4.48001Z" fill="#93C68A"/>
<path fill-rule="evenodd" clip-rule="evenodd" d="M11.3067 4.90668C11.329 5.10201 11.3053 5.29164 11.2356 5.47557C10.8463 5.31763 10.4433 5.29392 10.0267 5.40446C9.66873 5.65078 9.28946 5.86412 8.88891 6.04446C8.78052 6.20492 8.6857 6.37084 8.60446 6.54223C8.13432 6.68249 7.70765 6.89583 7.32446 7.18223C7.33256 7.02451 7.37996 6.88229 7.46669 6.75557C7.5859 6.70697 7.63331 6.61215 7.60891 6.47112C7.73563 6.38439 7.87785 6.33699 8.03557 6.3289C8.41161 6.23732 8.64864 6.00028 8.74669 5.61779C8.8415 5.61779 8.93631 5.61779 9.03113 5.61779C9.27231 5.59142 9.46193 5.47291 9.60002 5.26223C10.1939 5.23586 10.7627 5.11735 11.3067 4.90668Z" fill="#AFDC6A"/>
<path fill-rule="evenodd" clip-rule="evenodd" d="M11.3067 4.76443C11.3067 4.81184 11.3067 4.85925 11.3067 4.90666C10.7627 5.11733 10.1939 5.23584 9.60002 5.26221C9.46193 5.47289 9.27231 5.5914 9.03113 5.61777C9.22384 5.18858 9.5557 4.99896 10.0267 5.04888C10.4428 4.91223 10.8695 4.81743 11.3067 4.76443Z" fill="#71AB89"/>
<path fill-rule="evenodd" clip-rule="evenodd" d="M8.32 5.90222C8.22518 6.04444 8.13037 6.18667 8.03555 6.32889C7.87783 6.33698 7.73561 6.38438 7.60889 6.47111C7.60889 6.42371 7.60889 6.37629 7.60889 6.32889C7.77524 6.07595 8.01229 5.93372 8.32 5.90222Z" fill="#358074"/>
<path fill-rule="evenodd" clip-rule="evenodd" d="M8.74669 5.61777C8.64865 6.00026 8.41162 6.2373 8.03558 6.32888C8.1304 6.18666 8.22521 6.04443 8.32003 5.90221C8.42276 5.75272 8.56498 5.6579 8.74669 5.61777Z" fill="#8DCD92"/>
<path fill-rule="evenodd" clip-rule="evenodd" d="M18.4178 2.6311C18.2962 2.77769 18.2013 2.94362 18.1333 3.12888C18.3454 4.07419 18.1084 4.88012 17.4222 5.54666C17.622 5.72717 17.859 5.79828 18.1333 5.75999C18.111 5.56466 18.1347 5.37503 18.2044 5.1911C18.2777 6.51293 18.4437 6.58404 18.7022 5.40444C18.5549 4.67361 18.5311 3.93879 18.6311 3.19999C19.0177 2.78752 19.231 2.88234 19.2711 3.48444C19.1495 3.59722 19.0309 3.54982 18.9155 3.34221C18.8449 3.71853 18.8211 4.0978 18.8444 4.47999C18.8444 4.95406 18.8444 5.42815 18.8444 5.90221C18.7116 6.05405 18.6641 6.24369 18.7022 6.4711C18.3108 6.84855 18.0737 7.32262 17.9911 7.89333C17.9437 7.89333 17.8962 7.89333 17.8489 7.89333C17.6556 8.17825 17.466 8.4627 17.28 8.74666C17.128 9.09776 16.9384 9.42962 16.7111 9.74221C16.5215 9.83703 16.3793 9.97926 16.2844 10.1689C16.1422 10.2637 16 10.3585 15.8578 10.4533C15.6682 10.4533 15.4785 10.4533 15.2889 10.4533C15.2889 10.643 15.2889 10.8326 15.2889 11.0222C15.1467 11.0696 15.0518 11.1644 15.0044 11.3067C14.6399 11.3396 14.4028 11.5292 14.2933 11.8755C14.1356 11.8836 13.9934 11.931 13.8667 12.0178C13.4706 11.9347 13.2335 12.077 13.1555 12.4444C13.0607 12.4444 12.9659 12.4444 12.8711 12.4444C12.3845 12.4469 12.0053 12.6366 11.7333 13.0133C11.5911 13.0133 11.4489 13.0133 11.3067 13.0133C10.7635 13.0283 10.2421 13.1468 9.74221 13.3689C8.36544 13.4512 6.99062 13.4275 5.61777 13.2978C5.56917 13.1786 5.47435 13.1311 5.33332 13.1555C7.48288 11.594 9.78213 10.2666 12.2311 9.17333C13.1237 8.52587 14.0482 7.93328 15.0044 7.39555C15.5335 6.69816 16.1973 6.20038 16.9955 5.90221C17.1868 5.40289 17.4713 4.95253 17.8489 4.5511C17.3541 4.65815 16.9274 4.9189 16.5689 5.33333C16.0816 5.01721 16.0343 5.11203 16.4267 5.61777C15.6578 6.03063 14.9942 6.57582 14.4355 7.25333C12.0539 8.65845 9.63613 10.0333 7.18221 11.3778C6.76084 11.6566 6.38159 11.9885 6.04443 12.3733C5.76387 12.4438 5.47943 12.4675 5.1911 12.4444C5.20178 12.0596 5.24918 11.6803 5.33332 11.3067C5.57833 10.9824 5.67313 10.6031 5.61777 10.1689C5.84268 9.85973 6.05601 9.52787 6.25777 9.17333C6.32746 8.9894 6.35117 8.79976 6.32888 8.60444C6.64562 8.47635 6.78784 8.23932 6.75555 7.89333C6.84234 7.61825 6.98457 7.38123 7.18221 7.18221C7.22961 7.18221 7.27703 7.18221 7.32443 7.18221C7.70762 6.89581 8.13429 6.68247 8.60443 6.54221C8.68567 6.37082 8.78049 6.20491 8.88888 6.04444C9.28943 5.8641 9.6687 5.65077 10.0267 5.40444C10.4433 5.2939 10.8463 5.31761 11.2355 5.47555C11.3052 5.29163 11.3289 5.10199 11.3067 4.90666C11.3067 4.85926 11.3067 4.81184 11.3067 4.76444C11.5084 4.62917 11.7455 4.58175 12.0178 4.62221C12.5509 4.58657 13.0724 4.49177 13.5822 4.33777C14.1229 4.42591 14.597 4.30738 15.0044 3.98221C15.5895 3.96586 16.1111 3.79993 16.5689 3.48444C16.7698 3.28038 17.0069 3.13815 17.28 3.05777C17.5506 3.01569 17.7877 2.92088 17.9911 2.77333C18.1178 2.6866 18.26 2.6392 18.4178 2.6311Z" fill="#BCDC5B"/>
<path fill-rule="evenodd" clip-rule="evenodd" d="M7.60892 6.3289C7.60892 6.3763 7.60892 6.42372 7.60892 6.47112C7.63332 6.61215 7.58591 6.70697 7.4667 6.75557C7.24652 6.80125 7.1517 6.94347 7.18225 7.18223C6.98461 7.38124 6.84238 7.61827 6.75559 7.89334C6.66077 7.89334 6.56596 7.89334 6.47114 7.89334C6.4459 7.72342 6.39848 7.55749 6.32892 7.39557C7.05146 7.18776 7.07516 6.78481 6.40003 6.18668C6.29345 6.02525 6.31716 5.88303 6.47114 5.76001C6.67743 5.92433 6.81966 6.13767 6.89781 6.40001C7.1391 6.45469 7.37613 6.43099 7.60892 6.3289Z" fill="#2B7897"/>
<path fill-rule="evenodd" clip-rule="evenodd" d="M7.46666 6.75555C7.37994 6.88227 7.33253 7.0245 7.32444 7.18222C7.27704 7.18222 7.22962 7.18222 7.18222 7.18222C7.15167 6.94346 7.24649 6.80124 7.46666 6.75555Z" fill="#49836C"/>
<path fill-rule="evenodd" clip-rule="evenodd" d="M18.7022 6.4711C18.5839 7.01287 18.3468 7.48695 17.9911 7.89332C18.0737 7.32261 18.3108 6.84854 18.7022 6.4711Z" fill="#4C8782"/>
<path fill-rule="evenodd" clip-rule="evenodd" d="M29.5111 8.46223C29.1318 8.46223 28.7526 8.46223 28.3733 8.46223C28.3733 11.4489 28.3733 14.4356 28.3733 17.4222C28.1472 17.404 27.9576 17.3092 27.8044 17.1378C28.0381 14.078 28.1803 10.9966 28.2311 7.89334C28.6926 8.06369 29.1193 8.25333 29.5111 8.46223Z" fill="#26789E"/>
<path fill-rule="evenodd" clip-rule="evenodd" d="M6.47114 7.89334C6.56596 7.89334 6.66077 7.89334 6.75559 7.89334C6.78788 8.23934 6.64566 8.47637 6.32892 8.60445C6.40543 8.37445 6.45284 8.13741 6.47114 7.89334Z" fill="#88C083"/>
<path fill-rule="evenodd" clip-rule="evenodd" d="M17.8489 7.89334C17.8489 8.08297 17.8489 8.27261 17.8489 8.46223C17.6268 8.49535 17.4372 8.59016 17.28 8.74667C17.4661 8.46271 17.6556 8.17827 17.8489 7.89334Z" fill="#7BB48A"/>
<path fill-rule="evenodd" clip-rule="evenodd" d="M6.47111 7.89334C6.45281 8.13741 6.4054 8.37445 6.32889 8.60445C6.15423 8.71915 6.012 8.86138 5.90222 9.03112C6.01664 8.61267 6.20626 8.23341 6.47111 7.89334Z" fill="#30777E"/>
<path fill-rule="evenodd" clip-rule="evenodd" d="M5.33334 13.1556C5.18373 13.1768 5.0415 13.1531 4.90668 13.0845C4.99185 12.8537 5.08667 12.6404 5.19112 12.4445C5.47945 12.4675 5.76389 12.4438 6.04446 12.3733C6.38161 11.9885 6.76086 11.6566 7.18223 11.3778C9.63615 10.0333 12.0539 8.65847 14.4356 7.25334C14.9942 6.57584 15.6578 6.03064 16.4267 5.61778C16.0343 5.11204 16.0816 5.01722 16.5689 5.33334C16.9274 4.91892 17.3541 4.65817 17.8489 4.55112C17.4713 4.95254 17.1869 5.4029 16.9956 5.90223C16.1973 6.2004 15.5335 6.69817 15.0045 7.39556C14.0482 7.93329 13.1237 8.52589 12.2311 9.17334C9.78215 10.2666 7.4829 11.594 5.33334 13.1556Z" fill="#ABCC46"/>
<path fill-rule="evenodd" clip-rule="evenodd" d="M6.32891 8.60443C6.3512 8.79976 6.32749 8.9894 6.2578 9.17332C6.05604 9.52787 5.84271 9.85973 5.6178 10.1689C5.7416 9.79735 5.83642 9.41808 5.90224 9.0311C6.01202 8.86136 6.15425 8.71913 6.32891 8.60443Z" fill="#81B883"/>
<path fill-rule="evenodd" clip-rule="evenodd" d="M29.5111 23.8222C29.4533 25.5397 28.8845 27.0568 27.8044 28.3733C26.6457 29.4734 25.3184 30.2792 23.8222 30.7911C22.8729 30.8147 21.9247 30.7911 20.9778 30.72C20.5683 30.6423 20.189 30.5239 19.84 30.3644C21.5485 30.37 23.2552 30.3226 24.96 30.2222C24.96 30.08 24.96 29.9378 24.96 29.7955C23.5871 29.9252 22.2122 29.949 20.8355 29.8667C20.3628 29.7931 19.9836 29.6747 19.6978 29.5111C19.6978 29.3215 19.6978 29.1318 19.6978 28.9422C19.9182 29.076 20.1551 29.1708 20.4089 29.2267C22.9323 30.1141 25.0893 29.5452 26.88 27.52C27.0004 27.2792 27.1189 27.0421 27.2355 26.8089C27.5163 26.5347 27.7296 26.2029 27.8755 25.8133C28.1227 25.1699 28.2887 24.5063 28.3733 23.8222C28.5152 18.7739 28.5627 13.7013 28.5155 8.60443C28.8473 8.60443 29.1793 8.60443 29.5111 8.60443C29.5111 13.677 29.5111 18.7496 29.5111 23.8222Z" fill="#ECFAFA"/>
<path fill-rule="evenodd" clip-rule="evenodd" d="M15.8578 10.7378C15.8578 10.6904 15.8578 10.643 15.8578 10.5956C16.1422 10.5956 16.2845 10.4533 16.2845 10.1689C16.5016 10.1793 16.6439 10.0845 16.7111 9.88445C16.8508 9.79331 16.993 9.69849 17.1378 9.60001C17.1851 9.67112 17.2327 9.74223 17.28 9.81334C17.1927 10.2193 17.0978 10.6222 16.9956 11.0222C16.6278 11.1616 16.2485 11.209 15.8578 11.1645C15.8578 11.0222 15.8578 10.88 15.8578 10.7378Z" fill="#2277AC"/>
<path fill-rule="evenodd" clip-rule="evenodd" d="M16.7111 9.74222C16.7111 9.78962 16.7111 9.83704 16.7111 9.88444C16.6438 10.0844 16.5016 10.1793 16.2844 10.1689C16.3793 9.97926 16.5215 9.83704 16.7111 9.74222Z" fill="#498A6E"/>
<path fill-rule="evenodd" clip-rule="evenodd" d="M29.5111 8.46222C29.644 8.61406 29.6915 8.80369 29.6534 9.03111C29.7006 13.9857 29.6531 18.9161 29.5111 23.8222C29.5111 18.7496 29.5111 13.677 29.5111 8.60444C29.1793 8.60444 28.8474 8.60444 28.5156 8.60444C28.5628 13.7013 28.5153 18.7739 28.3734 23.8222C28.3734 21.7837 28.3734 19.7451 28.3734 17.7067C28.3734 17.6118 28.3734 17.5171 28.3734 17.4222C28.3734 14.4356 28.3734 11.4489 28.3734 8.46222C28.7527 8.46222 29.1318 8.46222 29.5111 8.46222Z" fill="#AFD7E2"/>
<path fill-rule="evenodd" clip-rule="evenodd" d="M28.6578 8.74666C28.8458 8.72249 29.0118 8.7699 29.1556 8.88889C29.2172 13.9445 29.2409 18.9933 29.2267 24.0356C29.1497 24.6228 29.0075 25.1917 28.8 25.7422C28.966 26.0368 28.8713 26.2501 28.5156 26.3822C28.1465 25.9898 28.1703 25.6105 28.5867 25.2444C28.6578 19.7454 28.6815 14.2461 28.6578 8.74666Z" fill="#FCF9F4"/>
<path fill-rule="evenodd" clip-rule="evenodd" d="M29.6533 9.0311C29.8308 9.1497 29.9257 9.33932 29.9378 9.59999C29.8466 14.7188 29.7518 19.8388 29.6533 24.96C29.567 25.7005 29.3773 26.4116 29.0844 27.0933C29.209 27.2001 29.3513 27.2712 29.5111 27.3067C29.3584 27.656 29.2161 28.0115 29.0844 28.3733C28.9896 28.0889 28.8949 27.8044 28.8 27.52C28.5534 27.9091 28.2216 28.1936 27.8044 28.3733C28.8845 27.0568 29.4534 25.5397 29.5111 23.8222C29.653 18.9161 29.7006 13.9857 29.6533 9.0311Z" fill="#3A769A"/>
<path fill-rule="evenodd" clip-rule="evenodd" d="M15.8578 10.4533C15.8578 10.5007 15.8578 10.5482 15.8578 10.5956C15.8578 10.643 15.8578 10.6904 15.8578 10.7378C15.6682 10.8326 15.4785 10.9274 15.2889 11.0222C15.2889 10.8326 15.2889 10.643 15.2889 10.4533C15.4785 10.4533 15.6682 10.4533 15.8578 10.4533Z" fill="#A1D17C"/>
<path fill-rule="evenodd" clip-rule="evenodd" d="M16.2845 10.1689C16.2845 10.4533 16.1422 10.5956 15.8578 10.5956C15.8578 10.5481 15.8578 10.5007 15.8578 10.4533C16 10.3585 16.1422 10.2637 16.2845 10.1689Z" fill="#559778"/>
<path fill-rule="evenodd" clip-rule="evenodd" d="M5.61776 10.1689C5.67312 10.6031 5.57832 10.9824 5.33331 11.3067C5.33331 11.0696 5.33331 10.8326 5.33331 10.5956C5.42813 10.4533 5.52294 10.3111 5.61776 10.1689Z" fill="#98CB8A"/>
<path fill-rule="evenodd" clip-rule="evenodd" d="M17.8489 8.46222C17.5147 8.70589 17.3724 9.03774 17.4222 9.45777C17.6324 9.42051 17.822 9.46792 17.9911 9.6C17.8738 9.72596 17.7315 9.77337 17.5644 9.74222C17.557 10.2682 17.5095 10.7897 17.4222 11.3067C16.6649 11.486 15.9064 11.486 15.1467 11.3067C15.1467 11.4963 15.1467 11.6859 15.1467 11.8756C14.8508 11.953 14.5664 12.0715 14.2933 12.2311C14.4634 12.3242 14.4634 12.3953 14.2933 12.4444C14.0699 12.3293 13.8329 12.2819 13.5822 12.3022C13.677 12.2074 13.7718 12.1126 13.8667 12.0178C13.9934 11.931 14.1356 11.8836 14.2933 11.8756C14.6029 11.7647 14.84 11.5751 15.0044 11.3067C15.0518 11.1644 15.1467 11.0696 15.2889 11.0222C15.4785 10.9274 15.6682 10.8326 15.8578 10.7378C15.8578 10.88 15.8578 11.0222 15.8578 11.1644C16.2485 11.209 16.6278 11.1616 16.9955 11.0222C17.0978 10.6222 17.1927 10.2192 17.28 9.81333C17.2326 9.74222 17.1851 9.67111 17.1378 9.6C16.993 9.69849 16.8508 9.79331 16.7111 9.88444C16.7111 9.83704 16.7111 9.78962 16.7111 9.74222C16.9384 9.42963 17.128 9.09777 17.28 8.74666C17.4371 8.59015 17.6267 8.49534 17.8489 8.46222Z" fill="#2B7A9A"/>
<path fill-rule="evenodd" clip-rule="evenodd" d="M15.0044 11.3067C14.84 11.5751 14.603 11.7647 14.2933 11.8756C14.4028 11.5292 14.6399 11.3396 15.0044 11.3067Z" fill="#60A281"/>
<path fill-rule="evenodd" clip-rule="evenodd" d="M2.48889 14.4355C2.17743 14.5599 2.0352 14.7969 2.06223 15.1467C2.51382 15.2307 2.84569 15.0885 3.05778 14.72C3.02052 14.9302 3.06792 15.1198 3.2 15.2889C3.62705 15.3721 4.05372 15.4669 4.48 15.5733C4.18024 15.6949 3.87209 15.7898 3.55556 15.8578C3.07627 15.6241 2.57849 15.4345 2.06223 15.2889C1.88864 14.3424 1.74642 13.3943 1.63556 12.4444C1.82518 12.4444 2.01482 12.4444 2.20445 12.4444C2.20445 12.2548 2.20445 12.0652 2.20445 11.8755C2.58371 11.8755 2.96296 11.8755 3.34223 11.8755C3.34223 12.0652 3.34223 12.2548 3.34223 12.4444C2.82196 12.3552 2.46641 12.5448 2.27556 13.0133C2.25754 13.4548 2.23383 13.8815 2.20445 14.2933C2.26943 14.4068 2.36425 14.4542 2.48889 14.4355Z" fill="#2379A3"/>
<path fill-rule="evenodd" clip-rule="evenodd" d="M5.33332 10.5956C5.33332 10.8326 5.33332 11.0696 5.33332 11.3067C5.0394 11.794 4.84978 12.3155 4.76443 12.8711C4.5758 12.4186 4.50469 11.9445 4.5511 11.4489C4.67807 11.6211 4.79659 11.6211 4.90665 11.4489C4.96549 11.1048 5.10771 10.8204 5.33332 10.5956Z" fill="#327D8D"/>
<path fill-rule="evenodd" clip-rule="evenodd" d="M13.8667 12.0178C13.7719 12.1126 13.6771 12.2074 13.5822 12.3022C13.4245 12.3103 13.2823 12.3577 13.1556 12.4444C13.2336 12.077 13.4706 11.9347 13.8667 12.0178Z" fill="#97CD8A"/>
<path fill-rule="evenodd" clip-rule="evenodd" d="M12.8711 12.4445C12.8237 12.5393 12.7763 12.6341 12.7289 12.7289C12.3579 12.7147 12.0261 12.8095 11.7333 13.0133C12.0053 12.6366 12.3845 12.447 12.8711 12.4445Z" fill="#90C37F"/>
<path fill-rule="evenodd" clip-rule="evenodd" d="M13.5822 12.3022C13.6444 12.5261 13.7866 12.6921 14.0089 12.8C13.5898 12.7784 13.1631 12.7547 12.7289 12.7289C12.7763 12.6341 12.8237 12.5393 12.8711 12.4444C12.9659 12.4444 13.0607 12.4444 13.1555 12.4444C13.2823 12.3577 13.4245 12.3103 13.5822 12.3022Z" fill="#2D7B8E"/>
<path fill-rule="evenodd" clip-rule="evenodd" d="M6.18665 12.8711C7.28014 12.8872 8.37051 12.9583 9.45776 13.0845C8.59047 13.3336 7.71343 13.3573 6.82665 13.1556C6.54426 13.1458 6.33093 13.051 6.18665 12.8711Z" fill="#C0DD4A"/>
<path fill-rule="evenodd" clip-rule="evenodd" d="M4.48002 13.1556C4.05778 13.5479 3.5837 13.8797 3.0578 14.1511C3.27675 13.4821 3.75083 13.1502 4.48002 13.1556Z" fill="#3C7E85"/>
<path fill-rule="evenodd" clip-rule="evenodd" d="M12.7289 12.7289C12.5048 12.8403 12.3151 13.0062 12.16 13.2267C12.5195 13.3686 12.5195 13.4871 12.16 13.5822C11.761 13.3598 11.3343 13.265 10.88 13.2978C11.0222 13.203 11.1644 13.1082 11.3067 13.0133C11.4489 13.0133 11.5911 13.0133 11.7333 13.0133C12.0261 12.8095 12.3579 12.7147 12.7289 12.7289Z" fill="#318294"/>
<path fill-rule="evenodd" clip-rule="evenodd" d="M5.61779 13.2978C5.90223 13.3926 6.18668 13.4874 6.47112 13.5822C5.93248 13.5231 5.41101 13.5231 4.90668 13.5822C5.05631 13.3325 5.29335 13.2377 5.61779 13.2978Z" fill="#3D8165"/>
<path fill-rule="evenodd" clip-rule="evenodd" d="M11.3067 13.0133C11.1645 13.1082 11.0222 13.203 10.88 13.2978C9.52151 13.5514 8.14669 13.6463 6.75558 13.5822C6.66076 13.5822 6.56595 13.5822 6.47113 13.5822C6.18669 13.4874 5.90224 13.3926 5.6178 13.2978C6.99065 13.4275 8.36547 13.4512 9.74224 13.3689C10.2421 13.1468 10.7636 13.0283 11.3067 13.0133Z" fill="#90C888"/>
<path fill-rule="evenodd" clip-rule="evenodd" d="M10.88 13.2978C10.6891 13.4817 10.4521 13.6002 10.1689 13.6533C9.00587 13.7704 7.86809 13.7467 6.75555 13.5822C8.14667 13.6463 9.52149 13.5514 10.88 13.2978Z" fill="#2F7783"/>
<path fill-rule="evenodd" clip-rule="evenodd" d="M5.33331 11.3067C5.24917 11.6803 5.20177 12.0596 5.19108 12.4444C5.08664 12.6404 4.99182 12.8537 4.90664 13.0844C5.04147 13.1531 5.18369 13.1768 5.33331 13.1556C5.47433 13.1312 5.56915 13.1786 5.61775 13.2978C5.29331 13.2377 5.05627 13.3325 4.90664 13.5822C4.75702 13.561 4.6148 13.5847 4.47997 13.6533C4.05706 14.103 3.58299 14.4586 3.05775 14.72C2.84566 15.0885 2.51379 15.2307 2.0622 15.1467C2.03517 14.7969 2.1774 14.5599 2.48886 14.4356C2.67849 14.3407 2.86813 14.246 3.05775 14.1511C3.58365 13.8797 4.05773 13.5479 4.47997 13.1556C4.57479 13.0607 4.6696 12.9659 4.76442 12.8711C4.84977 12.3155 5.03939 11.794 5.33331 11.3067Z" fill="#86C06D"/>
<path fill-rule="evenodd" clip-rule="evenodd" d="M17.4222 17.4222C18.1167 16.5296 19.0174 15.9608 20.1244 15.7156C21.4548 15.511 22.7823 15.5348 24.1066 15.7867C23.9171 15.834 23.7273 15.8815 23.5378 15.9289C23.8222 15.9763 24.1066 16.0238 24.3911 16.0711C22.8138 16.19 21.2494 16.3796 19.6978 16.64C19.0751 17.1785 18.5062 17.6526 17.9911 18.0622C17.4157 18.8792 16.9179 19.7561 16.4978 20.6933C16.2137 20.411 16.1189 20.0791 16.2133 19.6978C16.6165 18.9288 17.0196 18.1703 17.4222 17.4222Z" fill="#F8F9F7"/>
<path fill-rule="evenodd" clip-rule="evenodd" d="M23.1111 16.5689C24.581 16.7349 25.8136 17.3513 26.8089 18.4178C26.8089 18.4651 26.8089 18.5126 26.8089 18.56C26.8004 18.6372 26.753 18.6846 26.6667 18.7022C25.0846 16.8606 23.1883 16.4102 20.9778 17.3511C20.4049 17.4069 19.836 17.478 19.2711 17.5645C19.6745 17.1014 20.196 16.8169 20.8356 16.7111C21.5901 16.6124 22.3485 16.5649 23.1111 16.5689Z" fill="#2E779B"/>
<path fill-rule="evenodd" clip-rule="evenodd" d="M26.9511 17.1378C27.045 17.346 27.0923 17.5831 27.0933 17.8489C27.0854 18.1533 26.9905 18.3902 26.8089 18.56C26.8089 18.5126 26.8089 18.4651 26.8089 18.4178C26.9479 18.0214 26.9952 17.5947 26.9511 17.1378Z" fill="#8ABFD7"/>
<path fill-rule="evenodd" clip-rule="evenodd" d="M26.9511 17.1378C26.9952 17.5948 26.9478 18.0214 26.8089 18.4178C25.8136 17.3513 24.581 16.7349 23.1111 16.5689C22.8305 16.4746 22.5225 16.4272 22.1867 16.4267C21.6922 16.4022 21.2417 16.4969 20.8356 16.7111C20.196 16.8169 19.6745 17.1014 19.2711 17.5645C18.113 18.2511 17.307 19.2467 16.8533 20.5511C16.6033 21.0281 16.4611 21.5497 16.4267 22.1156C16.4267 22.6845 16.4267 23.2533 16.4267 23.8222C16.2398 22.8941 16.0027 21.9459 15.7156 20.9778C15.0716 23.4219 15.4746 25.6499 16.9245 27.6622C16.9941 27.8461 17.0179 28.0359 16.9956 28.2311C16.7909 27.9666 16.554 27.7295 16.2845 27.52C14.9992 24.9516 14.8095 22.2968 15.7156 19.5556C16.0084 19.0193 16.3402 18.4977 16.7111 17.9911C16.8923 17.7136 17.1293 17.5239 17.4222 17.4222C17.0196 18.1703 16.6165 18.9288 16.2133 19.6978C16.1189 20.0791 16.2138 20.411 16.4978 20.6933C16.9179 19.7561 17.4157 18.8792 17.9911 18.0622C18.5062 17.6526 19.0751 17.1785 19.6978 16.64C21.2494 16.3796 22.8139 16.19 24.3911 16.0711C24.1067 16.0238 23.8222 15.9763 23.5378 15.9289C23.7274 15.8815 23.9171 15.834 24.1067 15.7867C22.7823 15.5348 21.4548 15.5111 20.1245 15.7156C22.6687 14.8756 24.9442 15.3496 26.9511 17.1378Z" fill="#E6F6F9"/>
<path fill-rule="evenodd" clip-rule="evenodd" d="M23.1111 16.5689C22.3485 16.5649 21.5901 16.6124 20.8356 16.7111C21.2418 16.4969 21.6922 16.4022 22.1867 16.4267C22.5225 16.4272 22.8305 16.4746 23.1111 16.5689Z" fill="#639BAE"/>
<path fill-rule="evenodd" clip-rule="evenodd" d="M28.3733 17.7067C28.3733 19.7451 28.3733 21.7837 28.3733 23.8222C28.2887 24.5063 28.1227 25.1699 27.8756 25.8133C27.7296 26.2029 27.5163 26.5347 27.2356 26.8089C27.3876 26.4164 27.5298 26.0134 27.6622 25.6C27.3755 25.4721 27.1384 25.2824 26.9511 25.0311C27.0859 24.9624 27.2282 24.9388 27.3778 24.96C27.4489 23.0633 27.5438 21.1669 27.6622 19.2711C27.7806 20.8809 27.8517 22.4927 27.8756 24.1067C27.9229 24.0118 27.9704 23.9171 28.0178 23.8222C28.0651 21.8311 28.1126 19.84 28.16 17.8489C28.2145 17.7698 28.2856 17.7225 28.3733 17.7067Z" fill="#2978A3"/>
<path fill-rule="evenodd" clip-rule="evenodd" d="M15.7156 19.5555C14.8095 22.2967 14.9992 24.9516 16.2845 27.52C15.9929 27.2729 15.7322 26.9885 15.5022 26.6667C15.0222 24.801 14.88 22.9046 15.0756 20.9778C15.2627 20.5244 15.3338 20.0502 15.2889 19.5555C15.4311 19.5555 15.5734 19.5555 15.7156 19.5555Z" fill="#3E7A97"/>
<path fill-rule="evenodd" clip-rule="evenodd" d="M16.8533 20.5511C16.8179 20.907 16.7704 21.2625 16.7111 21.6178C16.6957 21.8569 16.6009 22.0228 16.4266 22.1156C16.4611 21.5497 16.6033 21.0281 16.8533 20.5511Z" fill="#55879E"/>
<path fill-rule="evenodd" clip-rule="evenodd" d="M16.4266 23.8222C16.4022 23.9633 16.4497 24.058 16.5689 24.1067C16.625 24.7882 16.7673 25.4518 16.9955 26.0978C16.9819 26.6759 17.1952 27.1499 17.6355 27.52C17.7059 27.8006 17.7297 28.0851 17.7066 28.3733C17.4626 28.355 17.2255 28.3076 16.9955 28.2311C17.0179 28.0358 16.9941 27.8461 16.9244 27.6622C15.4746 25.6499 15.0715 23.4219 15.7155 20.9778C16.0027 21.9459 16.2398 22.8941 16.4266 23.8222Z" fill="#F9FBF8"/>
<path fill-rule="evenodd" clip-rule="evenodd" d="M20.4089 29.2267C20.1552 29.1708 19.9182 29.076 19.6978 28.9422C19.6504 28.9422 19.6029 28.9422 19.5556 28.9422C19.1323 28.5437 18.682 28.1644 18.2045 27.8044C17.7634 27.251 17.3605 26.6822 16.9956 26.0978C16.7673 25.4518 16.6251 24.7882 16.5689 24.1067C16.8528 24.4504 16.995 24.3555 16.9956 23.8222C17.1378 23.8222 17.28 23.8222 17.4222 23.8222C17.4904 23.1949 17.3955 22.6022 17.1378 22.0444C17.3258 21.4939 17.5391 20.9488 17.7778 20.4089C17.9143 20.8545 18.0328 21.3049 18.1334 21.76C18.061 21.9262 17.9425 22.0447 17.7778 22.1155C17.7223 22.8756 17.6512 23.6342 17.5645 24.3911C17.6157 24.6909 17.7105 24.9753 17.8489 25.2444C17.8015 25.3393 17.754 25.434 17.7067 25.5289C17.547 25.2744 17.3574 25.2271 17.1378 25.3867C17.2332 26.3933 17.7548 27.0097 18.7022 27.2355C18.7638 27.6316 18.9534 27.9636 19.2711 28.2311C19.8346 28.294 20.3561 28.4599 20.8356 28.7289C20.5617 28.7889 20.4194 28.9549 20.4089 29.2267Z" fill="#2A77A1"/>
<path fill-rule="evenodd" clip-rule="evenodd" d="M16.9956 26.0978C17.3605 26.6822 17.7634 27.2511 18.2044 27.8044C18.682 28.1644 19.1323 28.5437 19.5556 28.9422C18.8555 28.8855 18.3104 28.5535 17.92 27.9467C17.9268 28.2917 17.9031 28.6235 17.8489 28.9422C18.3996 29.2885 18.9685 29.5967 19.5556 29.8667C19.7437 29.9827 19.8384 30.1487 19.84 30.3644C19.3256 30.202 18.8516 29.9651 18.4178 29.6533C17.8015 29.3215 17.3274 28.8474 16.9956 28.2311C17.2255 28.3076 17.4626 28.355 17.7067 28.3733C17.7297 28.085 17.706 27.8006 17.6356 27.52C17.1952 27.1499 16.9819 26.6759 16.9956 26.0978Z" fill="#E4F4F7"/>
<path fill-rule="evenodd" clip-rule="evenodd" d="M19.5555 28.9422C19.6029 28.9422 19.6504 28.9422 19.6978 28.9422C19.6978 29.1318 19.6978 29.3215 19.6978 29.5111C19.9836 29.6747 20.3628 29.7931 20.8355 29.8667C22.2123 29.949 23.5871 29.9253 24.96 29.7955C24.96 29.9378 24.96 30.08 24.96 30.2222C23.2552 30.3226 21.5485 30.37 19.84 30.3644C19.8384 30.1487 19.7437 29.9827 19.5555 29.8667C18.9685 29.5967 18.3996 29.2885 17.8489 28.9422C17.9031 28.6235 17.9268 28.2917 17.92 27.9467C18.3104 28.5535 18.8555 28.8855 19.5555 28.9422Z" fill="#FBFAF6"/>
<path fill-rule="evenodd" clip-rule="evenodd" d="M18.4178 29.6533C18.8515 29.9651 19.3256 30.202 19.84 30.3644C20.189 30.5239 20.5683 30.6423 20.9778 30.72C21.9247 30.7911 22.8729 30.8147 23.8222 30.7911C23.7628 30.8938 23.668 30.9649 23.5378 31.0044C22.1144 31.068 20.6922 31.0443 19.2711 30.9333C19.3351 30.4037 19.098 30.0955 18.56 30.0089C18.453 29.9134 18.4055 29.795 18.4178 29.6533Z" fill="#327398"/>
</g>
<defs>
<clipPath id="clip0_1_220">
<rect width="32" height="32" fill="white"/>
</clipPath>
</defs>
</svg>
