<svg width="32" height="32" viewBox="0 0 32 32" fill="none" xmlns="http://www.w3.org/2000/svg">
<g clip-path="url(#clip0_1_498)">
<path opacity="0.989" fill-rule="evenodd" clip-rule="evenodd" d="M14.6839 0.541938C20.8499 0.265862 25.6585 2.65726 29.1097 7.71613C31.7869 12.2269 32.1998 16.9409 30.3484 21.8581C28.1162 26.9283 24.2883 30.0508 18.8645 31.2258C13.2481 32.1064 8.47391 30.5149 4.54194 26.4516C1.15485 22.5329 -0.0838658 18.0081 0.825809 12.8774C1.88045 8.17724 4.50411 4.65895 8.69678 2.32258C10.5847 1.34612 12.5804 0.752575 14.6839 0.541938Z" fill="#444446"/>
<path fill-rule="evenodd" clip-rule="evenodd" d="M23.0452 9.52258C23.0963 9.87422 23.1136 10.2355 23.0968 10.6065C22.9814 10.6217 22.8782 10.6044 22.7871 10.5548C22.8731 10.5548 22.9591 10.5548 23.0452 10.5548C23.0452 10.2107 23.0452 9.86669 23.0452 9.52258Z" fill="#969698"/>
<path fill-rule="evenodd" clip-rule="evenodd" d="M23.0451 9.52259C23.0451 9.86669 23.0451 10.2107 23.0451 10.5548C22.9591 10.5548 22.8731 10.5548 22.7871 10.5548C22.7162 10.5467 22.6474 10.5554 22.5806 10.5807C24.0902 11.232 25.4666 12.0922 26.7096 13.1613C28.8964 15.4757 29.4384 18.1338 28.3355 21.1355C27.1478 23.6974 25.1436 25.1512 22.3226 25.4968C20.3678 25.6408 18.6302 25.1075 17.1096 23.8968C16.8552 23.6248 16.5886 23.3754 16.3096 23.1484C15.0289 24.0425 13.6439 24.7393 12.1548 25.2387C8.55275 26.0463 5.77427 24.9022 3.81933 21.8065C2.35906 18.7211 2.74615 15.8996 4.98062 13.3419C5.87827 12.4287 6.9449 11.8094 8.18062 11.4839C8.22165 11.6891 8.25607 11.8955 8.28384 12.1032C8.28694 12.1313 8.30413 12.1484 8.33546 12.1548C8.3865 11.9687 8.40374 11.7794 8.38707 11.5871C8.47677 10.0584 8.79507 8.57885 9.34191 7.1484C10.7755 4.32606 13.0895 2.92391 16.2838 2.94194C18.3856 3.09387 20.1147 3.96269 21.4709 5.5484C22.3941 6.70809 22.9188 8.03283 23.0451 9.52259Z" fill="#F7F7F5"/>
<path fill-rule="evenodd" clip-rule="evenodd" d="M28 16.129C28.1321 16.4109 28.2611 16.7034 28.3871 17.0064C28.4215 17.7118 28.4215 18.4172 28.3871 19.1226C28.2579 19.7012 28.1374 20.2862 28.0258 20.8774C27.9734 21.0352 27.9133 21.1901 27.8452 21.3419C27.7838 21.3899 27.715 21.4071 27.6387 21.3935C27.7068 21.1023 27.8186 20.8271 27.9742 20.5677C28.4116 19.092 28.4202 17.6124 28 16.129Z" fill="#E8F9D9"/>
<path fill-rule="evenodd" clip-rule="evenodd" d="M4.05163 15.7161C4.06503 15.9674 4.02201 16.2083 3.9226 16.4387C3.89682 16.7134 3.88822 16.9887 3.89679 17.2645C3.82797 17.2645 3.75915 17.2645 3.69034 17.2645C3.63049 17.6402 3.59608 18.0187 3.58711 18.4C3.65318 19.0791 3.7564 19.7501 3.89679 20.4129C3.78716 20.1978 3.70115 19.9742 3.63873 19.7419C3.5132 18.8663 3.5046 17.9888 3.61292 17.1097C3.69232 16.777 3.78694 16.4501 3.89679 16.129C3.88297 16.0465 3.90017 15.9777 3.9484 15.9226C3.98281 15.8538 4.01722 15.7849 4.05163 15.7161Z" fill="#8EB370"/>
<path fill-rule="evenodd" clip-rule="evenodd" d="M3.89678 16.129C3.78693 16.4501 3.69231 16.777 3.61291 17.1097C3.5046 17.9888 3.5132 18.8663 3.63872 19.7419C3.58711 19.7419 3.53549 19.7419 3.48388 19.7419C3.4578 19.1548 3.40619 18.5699 3.32904 17.9871C3.45331 17.479 3.52213 16.9628 3.53549 16.4387C3.58711 16.4387 3.63872 16.4387 3.69033 16.4387C3.6587 16.2597 3.72752 16.1564 3.89678 16.129Z" fill="#EBFBE0"/>
<path fill-rule="evenodd" clip-rule="evenodd" d="M26.1935 13.5484C26.2542 13.5371 26.3058 13.5543 26.3484 13.6C26.4552 13.7412 26.5756 13.8616 26.7097 13.9613C26.9148 14.2368 27.104 14.5293 27.2774 14.8387C27.3532 14.9426 27.4393 15.0286 27.5355 15.0968C27.6155 15.2577 27.6671 15.4298 27.6903 15.6129C27.7419 15.6129 27.7935 15.6129 27.8452 15.6129C27.8452 15.6817 27.8452 15.7505 27.8452 15.8193C27.7787 15.7539 27.7271 15.7711 27.6903 15.871C27.5224 15.5292 27.3504 15.1852 27.1742 14.8387C27.0763 14.7888 26.9731 14.7717 26.8645 14.7871C26.8645 14.6494 26.8645 14.5118 26.8645 14.3742C26.7722 14.3889 26.6862 14.3717 26.6064 14.3226C26.5912 14.0516 26.4708 13.8451 26.2452 13.7032C26.2128 13.6559 26.1956 13.6043 26.1935 13.5484Z" fill="#8CB567"/>
<path fill-rule="evenodd" clip-rule="evenodd" d="M26.7097 13.9613C26.8129 13.9957 26.9161 14.0301 27.0193 14.0645C27.0193 14.1333 27.0193 14.2022 27.0193 14.271C27.1054 14.271 27.1914 14.271 27.2774 14.271C27.3058 14.4417 27.323 14.6137 27.329 14.7871C27.3806 14.7871 27.4322 14.7871 27.4838 14.7871C27.4847 14.8937 27.5019 14.9969 27.5355 15.0968C27.4393 15.0287 27.3532 14.9426 27.2774 14.8387C27.104 14.5294 26.9148 14.2369 26.7097 13.9613Z" fill="#E6F5D1"/>
<path fill-rule="evenodd" clip-rule="evenodd" d="M6.3742 12.929C6.38963 13.0376 6.37245 13.1409 6.32259 13.2387C6.13028 13.4141 5.92383 13.5689 5.70323 13.7032C5.62556 13.7725 5.59113 13.8585 5.60001 13.9613C5.49678 13.9613 5.39356 13.9613 5.29033 13.9613C5.24094 14.2603 5.09471 14.5012 4.85162 14.6839C4.83442 14.6667 4.81721 14.6495 4.80001 14.6323C4.76578 14.7688 4.73998 14.9237 4.72259 15.0968C4.66194 15.0855 4.61033 15.1027 4.56775 15.1484C4.41621 15.301 4.27858 15.4559 4.15485 15.6129C4.18254 15.4507 4.23415 15.2959 4.30968 15.1484C4.84092 14.2561 5.52909 13.5163 6.3742 12.929Z" fill="#8BB668"/>
<path fill-rule="evenodd" clip-rule="evenodd" d="M9.16127 9.83224C8.80055 11.5637 8.81774 13.2841 9.21288 14.9935C9.22099 15.0644 9.21237 15.1333 9.18708 15.2C9.08664 15.0493 8.97479 14.9116 8.85159 14.7871C8.73717 14.4848 8.58233 14.2095 8.38708 13.9613C8.36989 13.9613 8.35265 13.9613 8.33546 13.9613C8.29454 13.6579 8.19131 13.3826 8.02579 13.1355C8.0086 13.0667 7.99136 12.9978 7.97417 12.929C7.90666 12.7623 7.85505 12.5902 7.81934 12.4129C7.90537 12.4129 7.99136 12.4129 8.0774 12.4129C8.05588 12.546 8.0903 12.6578 8.18063 12.7484C8.16344 12.7656 8.1462 12.7828 8.12901 12.8C8.19833 12.9981 8.30156 13.1788 8.43869 13.3419C8.42976 13.7109 8.55017 14.0205 8.79998 14.271C8.84297 12.981 8.86878 11.6907 8.8774 10.4C8.97727 10.2241 9.02026 10.0349 9.00643 9.83224C9.05805 9.83224 9.10966 9.83224 9.16127 9.83224Z" fill="#EAFADA"/>
<path fill-rule="evenodd" clip-rule="evenodd" d="M7.35482 12.3097C7.03187 12.4948 6.7222 12.7012 6.42578 12.929C6.4086 12.929 6.39136 12.929 6.37417 12.929C5.52906 13.5164 4.84089 14.2561 4.30965 15.1484C4.23412 15.2959 4.18251 15.4507 4.15482 15.6129C4.12041 15.6473 4.086 15.6817 4.05159 15.7161C4.01718 15.7849 3.98277 15.8538 3.94836 15.9226C4.07541 15.4442 4.24746 14.9797 4.46449 14.529C4.69128 14.4015 4.82891 14.2123 4.8774 13.9613C4.94621 13.9613 5.01503 13.9613 5.08385 13.9613C5.10613 13.508 5.32978 13.3015 5.75482 13.342C5.75482 13.2732 5.75482 13.2043 5.75482 13.1355C5.82568 13.1436 5.89453 13.135 5.96127 13.1097C5.94408 13.0925 5.92684 13.0753 5.90965 13.0581C6.03415 12.8853 6.20617 12.7906 6.42578 12.7742C6.68024 12.5011 6.98991 12.3462 7.35482 12.3097Z" fill="#ECF9DC"/>
<path fill-rule="evenodd" clip-rule="evenodd" d="M24.5419 12.3097C24.5962 12.302 24.6478 12.3106 24.6968 12.3355C25.0697 12.5884 25.431 12.8551 25.7806 13.1355C25.8996 13.2123 26.02 13.2898 26.1419 13.3677C26.1851 13.4199 26.2023 13.4802 26.1935 13.5484C26.0684 13.5643 25.948 13.547 25.8323 13.4968C25.6594 13.287 25.4873 13.0806 25.3161 12.8774C25.0585 12.7659 24.8176 12.6282 24.5935 12.4645C24.5612 12.4172 24.5439 12.3656 24.5419 12.3097Z" fill="#8AB767"/>
<path fill-rule="evenodd" clip-rule="evenodd" d="M7.81933 12.4129C7.85505 12.5902 7.90666 12.7623 7.97417 12.929C7.92256 12.929 7.87094 12.929 7.81933 12.929C7.87461 12.6431 7.76276 12.4711 7.48385 12.4129C7.31445 12.5127 7.13381 12.5901 6.94191 12.6452C6.81076 12.8204 6.63874 12.915 6.42578 12.929C6.72219 12.7012 7.03187 12.4948 7.35481 12.3097C7.49448 12.3058 7.63213 12.2886 7.76772 12.2581C7.75548 12.3247 7.77267 12.3763 7.81933 12.4129Z" fill="#8EB273"/>
<path fill-rule="evenodd" clip-rule="evenodd" d="M24.1807 12C24.3183 12 24.4559 12 24.5936 12C24.5825 12.0849 24.5998 12.1623 24.6452 12.2323C24.7641 12.2785 24.8846 12.3215 25.0065 12.3613C25.1711 12.5025 25.3431 12.6315 25.5226 12.7484C25.5054 12.7656 25.4882 12.7828 25.471 12.8C25.5553 12.8255 25.6414 12.8341 25.7291 12.8258C25.7462 12.929 25.7635 13.0323 25.7807 13.1355C25.431 12.8551 25.0697 12.5884 24.6968 12.3355C24.6479 12.3106 24.5963 12.302 24.542 12.3097C24.4311 12.1942 24.3107 12.091 24.1807 12Z" fill="#E1F5CE"/>
<path fill-rule="evenodd" clip-rule="evenodd" d="M9.36776 9.00644C9.257 9.69093 9.16239 10.3791 9.08389 11.071C9.00219 11.9653 8.99357 12.86 9.05808 13.7548C9.20172 14.1666 9.25333 14.5795 9.21292 14.9935C8.81777 13.2841 8.80059 11.5637 9.16131 9.83225C9.16131 9.79782 9.16131 9.76345 9.16131 9.72902C9.23011 9.48814 9.29896 9.24732 9.36776 9.00644Z" fill="#8FB56F"/>
<path fill-rule="evenodd" clip-rule="evenodd" d="M23.7161 11.7935C23.8786 11.8491 24.0334 11.9179 24.1806 12C24.3107 12.091 24.4311 12.1942 24.5419 12.3097C24.4542 12.3179 24.3682 12.3094 24.2839 12.2839C24.3183 12.2667 24.3527 12.2494 24.3871 12.2323C24.1056 12.1678 23.882 12.0216 23.7161 11.7935Z" fill="#8DB46E"/>
<path fill-rule="evenodd" clip-rule="evenodd" d="M8.3871 11.5871C8.40377 11.7794 8.38653 11.9687 8.33549 12.1548C8.30416 12.1484 8.28697 12.1313 8.28387 12.1032C8.3183 11.9312 8.35267 11.7591 8.3871 11.5871Z" fill="#9E9EA0"/>
<path fill-rule="evenodd" clip-rule="evenodd" d="M19.3806 10.2968C19.5699 10.3312 19.7591 10.3656 19.9484 10.4C21.2963 10.6704 22.5522 11.1349 23.7161 11.7936C23.439 11.8375 23.2153 11.7515 23.0451 11.5355C22.8234 11.4928 22.5998 11.467 22.3742 11.4581C22.3914 11.4409 22.4086 11.4236 22.4258 11.4065C22.3428 11.3523 22.3085 11.2749 22.3226 11.1742C22.0435 11.1075 21.7682 11.0215 21.4967 10.9161C21.1343 10.8644 20.773 10.8128 20.4129 10.7613C20.4129 10.6925 20.4129 10.6236 20.4129 10.5548C20.1184 10.5718 19.8259 10.5546 19.5355 10.5032C19.4627 10.4481 19.4111 10.3792 19.3806 10.2968Z" fill="#8AB568"/>
<path fill-rule="evenodd" clip-rule="evenodd" d="M20.0516 10.0903C19.959 10.1604 19.8558 10.2206 19.7419 10.271C19.8227 10.3024 19.8916 10.3454 19.9484 10.4C19.7591 10.3656 19.5699 10.3312 19.3806 10.2968C19.3425 10.3035 19.3081 10.2949 19.2774 10.271C19.4287 10.2119 19.5836 10.1689 19.7419 10.1419C19.8418 10.1084 19.945 10.0912 20.0516 10.0903Z" fill="#D8F5BC"/>
<path fill-rule="evenodd" clip-rule="evenodd" d="M22.2194 8.23227C22.4175 8.77673 22.5035 9.34448 22.4774 9.9355C21.6621 9.9054 20.8534 9.95702 20.0516 10.0903C19.9451 10.0912 19.8418 10.1084 19.742 10.1419C19.7204 10.1047 19.686 10.0789 19.6387 10.0645C19.8518 9.97606 20.1099 9.91583 20.4129 9.88388C21.0658 9.83232 21.7196 9.81513 22.3742 9.83227C22.3514 9.29477 22.2998 8.76146 22.2194 8.23227Z" fill="#8BB26D"/>
<path fill-rule="evenodd" clip-rule="evenodd" d="M9.67744 7.76773C9.5641 8.17692 9.46088 8.58982 9.36777 9.00644C9.29897 9.24732 9.23012 9.48814 9.16132 9.72902C9.16157 9.12365 9.29917 8.55591 9.57422 8.0258C9.49866 7.89785 9.53308 7.81186 9.67744 7.76773Z" fill="#E6F9D3"/>
<path fill-rule="evenodd" clip-rule="evenodd" d="M10.2968 6.52903C10.086 6.94436 9.87957 7.35726 9.6774 7.76774C9.66935 7.55705 9.69516 7.3506 9.75482 7.14838C9.90073 7.00237 10.004 6.83029 10.0645 6.63225C10.1218 6.55292 10.1992 6.51855 10.2968 6.52903Z" fill="#EDF9DF"/>
<path fill-rule="evenodd" clip-rule="evenodd" d="M20.7742 5.70322C20.9951 5.90208 21.1929 6.12577 21.3678 6.37418C21.7358 6.93811 22.0196 7.54027 22.2194 8.18064C22.1678 8.18064 22.1161 8.18064 22.0645 8.18064C22.0722 8.02027 22.0464 7.86544 21.9871 7.71612C21.9699 7.73331 21.9527 7.75055 21.9355 7.76773C21.8779 7.41129 21.7145 7.11886 21.4452 6.89031C21.3438 6.70497 21.2578 6.51571 21.1871 6.32257C21.1265 6.33387 21.0749 6.31669 21.0323 6.27096C20.9831 6.17006 20.9142 6.08402 20.8258 6.01289C20.776 5.91504 20.7588 5.81181 20.7742 5.70322Z" fill="#8CB469"/>
<path fill-rule="evenodd" clip-rule="evenodd" d="M17.9355 3.74192C18.1278 3.72527 18.3171 3.74248 18.5032 3.79353C18.6217 3.82633 18.7077 3.89515 18.7613 3.99998C19.0377 4.1226 19.313 4.24303 19.5871 4.36127C19.5871 4.43009 19.5871 4.49891 19.5871 4.56773C19.7122 4.55185 19.8326 4.56906 19.9484 4.61934C20.0261 4.68858 20.0605 4.7746 20.0516 4.8774C20.3078 5.0798 20.583 5.26904 20.8774 5.44515C20.9363 5.49289 20.9363 5.53593 20.8774 5.57418C21.019 5.64251 21.0878 5.75436 21.0839 5.90966C21.1355 5.90966 21.1871 5.90966 21.2387 5.90966C21.2387 5.97846 21.2387 6.04731 21.2387 6.11611C21.3931 6.10734 21.4963 6.17614 21.5484 6.32257C21.6525 6.47998 21.7041 6.65201 21.7032 6.83869C21.7639 6.82739 21.8155 6.84458 21.8581 6.89031C21.8949 7.00778 21.9207 7.12819 21.9355 7.2516C22.0684 7.36241 22.163 7.50006 22.2194 7.6645C22.2664 8.02497 22.361 8.36902 22.5032 8.69676C22.5574 9.12602 22.5747 9.55611 22.5548 9.98708C21.6008 10.0257 20.7836 10.0774 20.1032 10.1419C20.1032 10.2107 20.1032 10.2796 20.1032 10.3484C20.3636 10.3315 20.6216 10.3487 20.8774 10.4C21.1056 10.5045 21.3292 10.6163 21.5484 10.7355C21.8603 10.7738 22.17 10.8254 22.4774 10.8903C22.6482 11.1331 22.889 11.2707 23.2 11.3032C23.4631 11.4351 23.7298 11.5641 24 11.6903C24.0999 11.7695 24.1601 11.8727 24.1806 12C24.0334 11.9179 23.8786 11.8491 23.7161 11.7935C22.5523 11.1348 21.2963 10.6703 19.9484 10.4C19.8916 10.3454 19.8228 10.3023 19.7419 10.271C19.8558 10.2205 19.959 10.1603 20.0516 10.0903C20.8534 9.95699 21.662 9.90538 22.4774 9.93547C22.5034 9.34445 22.4174 8.77671 22.2194 8.23224C22.2194 8.21506 22.2194 8.19782 22.2194 8.18063C22.0196 7.54027 21.7357 6.9381 21.3677 6.37418C21.1929 6.12577 20.995 5.90207 20.7742 5.70321C20.781 5.66507 20.7723 5.63064 20.7484 5.59998C20.6291 5.47777 20.5 5.37454 20.3613 5.29031C20.2515 5.15455 20.131 5.02552 20 4.90321C19.5786 4.61506 19.1485 4.33979 18.7097 4.0774C18.4513 3.99971 18.1932 3.92229 17.9355 3.84515C17.9355 3.81074 17.9355 3.77633 17.9355 3.74192Z" fill="#E6F7D5"/>
<path fill-rule="evenodd" clip-rule="evenodd" d="M11.329 5.39355C11.329 5.46235 11.329 5.53121 11.329 5.60001C11.2442 5.59897 11.1754 5.6334 11.1226 5.70323C10.9925 5.9725 10.8463 6.23056 10.6839 6.47743C10.5525 6.51309 10.4406 6.58189 10.3484 6.68388C10.2637 6.88475 10.1949 7.09121 10.1419 7.30323C10.0806 7.35118 10.0118 7.36837 9.93548 7.35484C9.80614 7.71851 9.71153 8.09699 9.65161 8.49033C9.53187 8.65854 9.43721 8.83056 9.36774 9.00646C9.46085 8.58984 9.56407 8.17694 9.67741 7.76775C9.87958 7.35727 10.086 6.94437 10.2968 6.52904C10.567 6.1807 10.8508 5.8366 11.1484 5.49678C11.1905 5.4285 11.2507 5.39412 11.329 5.39355Z" fill="#8BB366"/>
<path fill-rule="evenodd" clip-rule="evenodd" d="M11.3291 5.29032C11.3291 5.32475 11.3291 5.35912 11.3291 5.39355C11.2508 5.39411 11.1905 5.42849 11.1484 5.49677C10.8509 5.83659 10.567 6.18069 10.2968 6.52903C10.2423 6.39623 10.2337 6.25863 10.271 6.11613C10.5395 5.93032 10.7546 5.69806 10.9162 5.41935C11.0333 5.31494 11.1709 5.27195 11.3291 5.29032Z" fill="#EDF9E4"/>
<path fill-rule="evenodd" clip-rule="evenodd" d="M12.1548 4.7226C12.1548 4.77421 12.1548 4.82582 12.1548 4.87743C12.1032 4.87743 12.0516 4.87743 12 4.87743C12.0113 4.93808 11.9941 4.98969 11.9484 5.03227C11.8594 5.05885 11.7733 5.09326 11.6903 5.1355C11.6259 5.3036 11.5055 5.38959 11.329 5.39356C11.329 5.35914 11.329 5.32476 11.329 5.29034C11.5313 5.15743 11.7205 5.00259 11.8968 4.82582C11.9753 4.77101 12.0613 4.7366 12.1548 4.7226Z" fill="#8CB46E"/>
<path fill-rule="evenodd" clip-rule="evenodd" d="M17.9355 3.84515C18.1932 3.92229 18.4513 3.99971 18.7097 4.07741C19.1485 4.3398 19.5786 4.61507 20 4.90322C20.131 5.02553 20.2515 5.15456 20.3613 5.29032C20.1537 5.22642 19.9817 5.10596 19.8452 4.92902C19.5848 4.87554 19.3783 4.7379 19.2258 4.51612C18.853 4.3985 18.5089 4.22646 18.1936 3.99999C18.1138 3.95086 18.0278 3.93366 17.9355 3.94838C17.9355 3.91397 17.9355 3.87956 17.9355 3.84515Z" fill="#8BB36C"/>
<path fill-rule="evenodd" clip-rule="evenodd" d="M15.0452 3.74193C16.015 3.73318 16.9784 3.802 17.9355 3.94839C18.0278 3.93367 18.1138 3.95087 18.1935 4C18.5089 4.22647 18.853 4.39851 19.2258 4.51613C19.3783 4.73791 19.5848 4.87554 19.8452 4.92903C19.9817 5.10596 20.1537 5.22642 20.3613 5.29032C20.5 5.37455 20.6291 5.47778 20.7484 5.6C20.7723 5.63066 20.781 5.66508 20.7742 5.70322C20.7588 5.81182 20.7759 5.91504 20.8258 6.0129C20.9142 6.08402 20.9831 6.17006 21.0323 6.27097C21.0748 6.31669 21.1265 6.33388 21.1871 6.32258C21.2578 6.51571 21.3438 6.70498 21.4452 6.89032C21.7145 7.11886 21.8779 7.4113 21.9355 7.76774C21.9527 7.75055 21.9699 7.73331 21.9871 7.71613C22.0464 7.86544 22.0722 8.02028 22.0645 8.18064C22.1161 8.18064 22.1677 8.18064 22.2194 8.18064C22.2194 8.19783 22.2194 8.21507 22.2194 8.23226C22.2998 8.76144 22.3514 9.29476 22.3742 9.83226C21.7195 9.81512 21.0658 9.83231 20.4129 9.88387C20.1099 9.91582 19.8518 9.97605 19.6387 10.0645C19.686 10.0789 19.7204 10.1047 19.7419 10.1419C19.5836 10.1689 19.4287 10.2119 19.2774 10.271C19.3081 10.2949 19.3425 10.3035 19.3806 10.2968C19.4111 10.3792 19.4627 10.448 19.5355 10.5032C19.826 10.5546 20.1184 10.5718 20.4129 10.5548C20.4129 10.6236 20.4129 10.6925 20.4129 10.7613C20.773 10.8127 21.1343 10.8644 21.4968 10.9161C21.7683 11.0215 22.0435 11.1075 22.3226 11.1742C22.3085 11.2749 22.3429 11.3523 22.4258 11.4064C22.4086 11.4236 22.3914 11.4409 22.3742 11.4581C22.5998 11.4669 22.8234 11.4927 23.0452 11.5355C23.2153 11.7515 23.439 11.8375 23.7161 11.7935C23.882 12.0216 24.1056 12.1678 24.3871 12.2323C24.3527 12.2494 24.3183 12.2667 24.2839 12.2839C24.3682 12.3094 24.4542 12.3179 24.5419 12.3097C24.5439 12.3656 24.5612 12.4172 24.5935 12.4645C24.8176 12.6282 25.0585 12.7659 25.3161 12.8774C25.4873 13.0806 25.6594 13.287 25.8323 13.4968C25.948 13.547 26.0684 13.5643 26.1935 13.5484C26.1956 13.6043 26.2128 13.6559 26.2452 13.7032C26.4708 13.8451 26.5912 14.0516 26.6065 14.3226C26.6862 14.3717 26.7722 14.3889 26.8645 14.3742C26.8645 14.5118 26.8645 14.6494 26.8645 14.7871C26.9731 14.7717 27.0763 14.7888 27.1742 14.8387C27.3504 15.1852 27.5224 15.5292 27.6903 15.871C27.7271 15.7711 27.7787 15.7539 27.8452 15.8194C27.8452 15.8365 27.8452 15.8538 27.8452 15.871C27.8285 16.0633 27.8457 16.2525 27.8968 16.4387C27.9992 16.7787 28.1024 17.1228 28.2065 17.471C28.2351 17.7454 28.2523 18.0207 28.2581 18.2968C28.1892 18.8822 28.1117 19.4671 28.0258 20.0516C27.9892 20.1276 27.929 20.1621 27.8452 20.1548C27.8537 20.3277 27.8451 20.4998 27.8194 20.671C27.5996 20.8611 27.505 21.102 27.5355 21.3935C27.4748 21.3822 27.4232 21.3994 27.3806 21.4452C27.3133 21.5965 27.2617 21.7514 27.2258 21.9097C27.157 21.9097 27.0882 21.9097 27.0194 21.9097C27.0194 22.0129 27.0194 22.1161 27.0194 22.2194C26.9431 22.2058 26.8743 22.223 26.8129 22.271C26.7125 22.4896 26.5749 22.6789 26.4 22.8387C26.3521 22.9001 26.3349 22.9689 26.3484 23.0452C26.314 23.0452 26.2796 23.0452 26.2452 23.0452C26.1201 23.0293 25.9996 23.0465 25.8839 23.0968C25.7559 23.2678 25.6183 23.4312 25.471 23.5871C25.4882 23.6043 25.5054 23.6215 25.5226 23.6387C25.4737 23.6636 25.422 23.6722 25.3677 23.6645C25.3677 23.7161 25.3677 23.7677 25.3677 23.8194C25.3677 23.8365 25.3677 23.8538 25.3677 23.871C25.3333 23.871 25.2989 23.871 25.2645 23.871C24.9095 23.9955 24.5482 24.1159 24.1806 24.2323C24.0295 24.283 23.8747 24.3002 23.7161 24.2839C23.7038 24.3854 23.721 24.48 23.7677 24.5677C23.4521 24.6058 23.1596 24.6832 22.8903 24.8C21.9758 24.8163 21.0639 24.7818 20.1548 24.6968C20.1548 24.628 20.1548 24.5591 20.1548 24.4903C19.8194 24.4003 19.4753 24.3659 19.1226 24.3871C19.1339 24.3264 19.1167 24.2748 19.071 24.2323C18.9724 24.1885 18.8692 24.1712 18.7613 24.1806C18.7613 24.1118 18.7613 24.043 18.7613 23.9742C18.5727 23.9277 18.3834 23.8761 18.1935 23.8194C17.9046 23.6395 17.6293 23.433 17.3677 23.2C17.2943 22.9165 17.3803 22.6928 17.6258 22.529C17.671 22.5358 17.7054 22.5186 17.729 22.4774C17.7978 22.3054 17.8667 22.1333 17.9355 21.9613C18.0241 21.9356 18.1101 21.9184 18.1935 21.9097C18.2093 21.6788 18.2351 21.4379 18.271 21.1871C18.3076 21.1111 18.3678 21.0766 18.4516 21.0839C18.449 20.7951 18.4232 20.5198 18.3742 20.2581C18.3583 20.2998 18.3325 20.3342 18.2968 20.3613C18.2628 20.1897 18.1595 20.1209 17.9871 20.1548C17.9506 20.3244 17.9334 20.4965 17.9355 20.671C17.786 20.6516 17.6484 20.6774 17.5226 20.7484C17.5534 20.8032 17.5706 20.8634 17.5742 20.929C17.4798 21.0742 17.411 21.2291 17.3677 21.3935C17.1665 21.4555 16.9601 21.5071 16.7484 21.5484C16.6675 21.672 16.6245 21.8097 16.6194 21.9613C16.2836 22.2788 15.9137 22.5368 15.5097 22.7355C15.4761 22.6356 15.4589 22.5324 15.4581 22.4258C15.5659 22.4284 15.6347 22.3768 15.6645 22.271C15.4609 22.2198 15.2545 22.2026 15.0452 22.2194C15.0623 22.357 15.0796 22.4946 15.0968 22.6323C14.9469 22.5917 14.8093 22.5229 14.6839 22.4258C14.6359 22.4872 14.6187 22.556 14.6323 22.6323C14.7011 22.6323 14.7699 22.6323 14.8387 22.6323C14.8387 22.7011 14.8387 22.7699 14.8387 22.8387C14.8903 22.8387 14.9419 22.8387 14.9935 22.8387C14.9935 22.9075 14.9935 22.9764 14.9935 23.0452C14.8731 23.0452 14.7527 23.0452 14.6323 23.0452C14.6323 23.1484 14.6323 23.2516 14.6323 23.3548C14.5276 23.3465 14.4244 23.3551 14.3226 23.3806C14.1917 23.5019 14.0369 23.5794 13.8581 23.6129C13.8163 23.694 13.7991 23.78 13.8065 23.871C13.5268 23.8824 13.2515 23.9254 12.9806 24C12.8356 24.0848 12.7151 24.1966 12.6194 24.3355C12.3907 24.4432 12.1499 24.512 11.8968 24.5419C11.8644 24.5893 11.8472 24.6409 11.8452 24.6968C11.349 24.7524 10.85 24.7868 10.3484 24.8C9.76201 24.7786 9.17703 24.7442 8.59355 24.6968C8.60093 24.6058 8.58369 24.5198 8.54194 24.4387C8.07881 24.4037 7.63154 24.3177 7.2 24.1806C7.2 24.1118 7.2 24.043 7.2 23.9742C7.03701 23.9032 6.86498 23.8688 6.68387 23.871C6.66668 23.7677 6.64945 23.6645 6.63226 23.5613C6.4737 23.5776 6.31886 23.5605 6.16774 23.5097C6.10405 23.4038 6.01806 23.3177 5.90968 23.2516C5.86173 23.1902 5.84454 23.1214 5.85806 23.0452C5.75484 23.0452 5.65161 23.0452 5.54839 23.0452C5.38096 22.7653 5.1745 22.5072 4.92903 22.271C4.88726 22.1899 4.87005 22.1038 4.87742 22.0129C4.79077 22.024 4.73916 21.9896 4.72258 21.9097C4.67878 21.7788 4.62716 21.6498 4.56774 21.5226C4.5736 21.4565 4.60801 21.4135 4.67097 21.3935C4.73978 20.9806 4.73978 20.5677 4.67097 20.1548C4.55292 20.3136 4.53572 20.4856 4.61936 20.671C4.55248 20.8056 4.51807 20.9347 4.51613 21.0581C4.44162 21.0984 4.3728 21.0898 4.30968 21.0323C4.24943 20.8234 4.129 20.6686 3.94839 20.5677C3.93118 20.5677 3.91398 20.5677 3.89677 20.5677C3.89677 20.5161 3.89677 20.4645 3.89677 20.4129C3.75639 19.7501 3.65316 19.0791 3.5871 18.4C3.59606 18.0187 3.63047 17.6402 3.69032 17.2645C3.75914 17.2645 3.82796 17.2645 3.89677 17.2645C3.88821 16.9887 3.89681 16.7134 3.92258 16.4387C4.022 16.2083 4.06501 15.9674 4.05161 15.7161C4.08602 15.6817 4.12043 15.6473 4.15484 15.6129C4.27858 15.4558 4.41621 15.301 4.56774 15.1484C4.61032 15.1027 4.66194 15.0855 4.72258 15.0968C4.73997 14.9237 4.76578 14.7688 4.8 14.6323C4.8172 14.6494 4.83441 14.6667 4.85161 14.6839C5.0947 14.5012 5.24093 14.2603 5.29032 13.9613C5.39355 13.9613 5.49677 13.9613 5.6 13.9613C5.59112 13.8585 5.62555 13.7725 5.70323 13.7032C5.92382 13.5689 6.13027 13.414 6.32258 13.2387C6.37244 13.1408 6.38963 13.0376 6.37419 12.929C6.39138 12.929 6.40862 12.929 6.42581 12.929C6.63876 12.915 6.81079 12.8204 6.94194 12.6452C7.13383 12.5901 7.31448 12.5127 7.48387 12.4129C7.76279 12.4711 7.87463 12.6431 7.81936 12.929C7.87097 12.929 7.92258 12.929 7.97419 12.929C7.99138 12.9978 8.00862 13.0667 8.02581 13.1355C8.0449 13.4181 8.09652 13.6934 8.18065 13.9613C8.23226 13.9613 8.28387 13.9613 8.33548 13.9613C8.35267 13.9613 8.36991 13.9613 8.3871 13.9613C8.46245 14.2492 8.56568 14.5244 8.69677 14.7871C8.74839 14.7871 8.8 14.7871 8.85161 14.7871C8.97481 14.9116 9.08666 15.0493 9.1871 15.2C9.21239 15.1333 9.22101 15.0644 9.2129 14.9935C9.25332 14.5796 9.2017 14.1667 9.05806 13.7548C8.99355 12.86 9.00217 11.9653 9.08387 11.071C9.16237 10.3791 9.25698 9.69094 9.36774 9.00645C9.43721 8.83055 9.53187 8.65853 9.65161 8.49032C9.71154 8.09698 9.80614 7.7185 9.93548 7.35484C10.0118 7.36836 10.0806 7.35117 10.1419 7.30322C10.1949 7.0912 10.2637 6.88475 10.3484 6.68387C10.4406 6.58188 10.5525 6.51308 10.6839 6.47742C10.8463 6.23055 10.9925 5.97249 11.1226 5.70322C11.1754 5.63339 11.2442 5.59897 11.329 5.6C11.329 5.5312 11.329 5.46235 11.329 5.39355C11.5054 5.38957 11.6259 5.30359 11.6903 5.13548C11.7733 5.09324 11.8594 5.05883 11.9484 5.03226C11.9941 4.98968 12.0113 4.93806 12 4.87742C12.0516 4.87742 12.1032 4.87742 12.1548 4.87742C12.1548 4.8258 12.1548 4.77419 12.1548 4.72258C12.1548 4.70538 12.1548 4.68817 12.1548 4.67097C12.2425 4.67923 12.3286 4.67063 12.4129 4.64516C12.5457 4.60482 12.6489 4.5274 12.7226 4.4129C13.1529 4.23948 13.583 4.06744 14.0129 3.89677C14.3446 3.77114 14.6887 3.71953 15.0452 3.74193Z" fill="#7EBB4E"/>
<path fill-rule="evenodd" clip-rule="evenodd" d="M8.38708 13.9613C8.58234 14.2096 8.73718 14.4849 8.8516 14.7871C8.79999 14.7871 8.74838 14.7871 8.69676 14.7871C8.56567 14.5245 8.46244 14.2492 8.38708 13.9613Z" fill="#8BB46A"/>
<path fill-rule="evenodd" clip-rule="evenodd" d="M8.02582 13.1355C8.19134 13.3826 8.29457 13.6579 8.3355 13.9613C8.28388 13.9613 8.23227 13.9613 8.18066 13.9613C8.09653 13.6934 8.04491 13.4181 8.02582 13.1355Z" fill="#8BB46C"/>
<path fill-rule="evenodd" clip-rule="evenodd" d="M17.1097 3.63871C16.4021 3.60526 15.714 3.63967 15.0452 3.74194C14.6887 3.71953 14.3446 3.77115 14.0129 3.89678C13.583 4.06744 13.1529 4.23948 12.7226 4.41291C12.6489 4.52741 12.5457 4.60483 12.4129 4.64516C12.3286 4.67064 12.2425 4.67924 12.1548 4.67097C12.3079 4.57028 12.4628 4.46706 12.6194 4.36129C13.885 3.64514 15.2441 3.37847 16.6968 3.56129C16.8447 3.57073 16.9823 3.59654 17.1097 3.63871Z" fill="#8BB269"/>
<path fill-rule="evenodd" clip-rule="evenodd" d="M17.9355 3.74192C17.6556 3.7407 17.3803 3.70629 17.1097 3.6387C16.9823 3.59652 16.8447 3.57072 16.6968 3.56128C15.2442 3.37845 13.885 3.64512 12.6194 4.36128C12.7419 4.15842 12.9139 4.00358 13.1355 3.89676C13.4768 3.78449 13.8209 3.68127 14.1678 3.58708C14.185 3.55267 14.2022 3.51827 14.2194 3.48386C15.041 3.35524 15.8668 3.31223 16.6968 3.35482C17.1281 3.46214 17.541 3.59118 17.9355 3.74192Z" fill="#E9F8D7"/>
<path fill-rule="evenodd" clip-rule="evenodd" d="M17.1097 3.63871C17.3803 3.70631 17.6556 3.74071 17.9355 3.74194C17.9355 3.77635 17.9355 3.81075 17.9355 3.84516C17.9355 3.87957 17.9355 3.91398 17.9355 3.94839C16.9784 3.802 16.015 3.73318 15.0452 3.74194C15.714 3.63967 16.4021 3.60526 17.1097 3.63871Z" fill="#84B65B"/>
<path fill-rule="evenodd" clip-rule="evenodd" d="M4.72256 21.9097C4.55526 21.7815 4.46924 21.6095 4.46449 21.3936C4.41288 21.3936 4.36127 21.3936 4.30965 21.3936C4.24515 21.3896 4.20214 21.3552 4.18062 21.2903C4.08801 21.0537 4.01059 20.8129 3.94836 20.5677C4.12898 20.6686 4.24941 20.8234 4.30965 21.0323C4.37278 21.0898 4.44159 21.0984 4.51611 21.0581C4.51805 20.9347 4.55246 20.8056 4.61933 20.671C4.5357 20.4856 4.5529 20.3136 4.67094 20.1548C4.73976 20.5677 4.73976 20.9807 4.67094 21.3936C4.60798 21.4135 4.57358 21.4565 4.56772 21.5226C4.62714 21.6498 4.67875 21.7788 4.72256 21.9097Z" fill="#81B859"/>
<path fill-rule="evenodd" clip-rule="evenodd" d="M3.63873 19.7419C3.70115 19.9742 3.78717 20.1978 3.8968 20.4129C3.8968 20.4645 3.8968 20.5161 3.8968 20.5677C3.82798 20.5677 3.75916 20.5677 3.69035 20.5677C3.65949 20.2935 3.64228 20.0183 3.63873 19.7419Z" fill="#E5F7D4"/>
<path fill-rule="evenodd" clip-rule="evenodd" d="M27.8452 15.871C27.8871 15.9619 27.9387 16.0479 28 16.129C28.4201 17.6124 28.4116 19.092 27.9742 20.5677C27.8186 20.8271 27.7067 21.1024 27.6387 21.3936C27.4754 21.5283 27.3636 21.7003 27.3032 21.9097C27.2198 22.0265 27.1252 22.1297 27.0193 22.2194C27.0193 22.1161 27.0193 22.0129 27.0193 21.9097C27.0881 21.9097 27.157 21.9097 27.2258 21.9097C27.2617 21.7514 27.3133 21.5965 27.3806 21.4452C27.4232 21.3994 27.4748 21.3822 27.5355 21.3936C27.505 21.102 27.5996 20.8611 27.8193 20.671C27.8451 20.4998 27.8537 20.3277 27.8452 20.1548C27.929 20.1621 27.9892 20.1276 28.0258 20.0516C28.1117 19.4672 28.1892 18.8822 28.2581 18.2968C28.2523 18.0207 28.2351 17.7454 28.2064 17.471C28.1024 17.1228 27.9992 16.7787 27.8968 16.4387C27.8457 16.2525 27.8285 16.0633 27.8452 15.871Z" fill="#8EB46D"/>
<path fill-rule="evenodd" clip-rule="evenodd" d="M18.2451 20.671C18.2071 21.0219 18.1383 21.366 18.0387 21.7032C17.8991 21.8825 17.7614 22.0545 17.6258 22.2193C17.8518 21.709 18.0583 21.1929 18.2451 20.671Z" fill="#8EB76D"/>
<path fill-rule="evenodd" clip-rule="evenodd" d="M3.89679 20.5677C3.91399 20.5677 3.9312 20.5677 3.9484 20.5677C4.01063 20.8129 4.08805 21.0537 4.18066 21.2903C4.20218 21.3552 4.24519 21.3896 4.30969 21.3936C4.39854 21.6953 4.53618 21.9706 4.7226 22.2194C4.64632 22.2329 4.5775 22.2157 4.51614 22.1677C4.42146 22.0303 4.31823 21.9012 4.20647 21.7807C4.16264 21.542 4.11102 21.3097 4.05163 21.0839C4.00002 21.0839 3.9484 21.0839 3.89679 21.0839C3.89679 20.9119 3.89679 20.7398 3.89679 20.5677Z" fill="#EBFADF"/>
<path fill-rule="evenodd" clip-rule="evenodd" d="M18.2452 20.671C18.0583 21.1929 17.8518 21.709 17.6258 22.2193C17.4538 22.4602 17.2817 22.701 17.1097 22.9419C17.1097 22.8387 17.1097 22.7355 17.1097 22.6322C17.1703 22.6436 17.2219 22.6264 17.2645 22.5806C17.2989 22.4774 17.3333 22.3742 17.3677 22.271C17.4103 22.2252 17.4619 22.208 17.5226 22.2193C17.6372 21.978 17.706 21.7199 17.729 21.4452C17.6312 21.3953 17.528 21.3781 17.4194 21.3935C17.7303 21.1169 18.0056 20.8072 18.2452 20.4645C18.3113 20.5398 18.3113 20.6086 18.2452 20.671Z" fill="#EAF9D9"/>
<path fill-rule="evenodd" clip-rule="evenodd" d="M17.3677 21.3936C17.3849 21.3936 17.4022 21.3936 17.4194 21.3936C17.3925 21.5325 17.3151 21.6358 17.1871 21.7032C17.1289 21.7985 17.1031 21.9017 17.1097 22.0129C16.9304 22.1055 16.7412 22.1743 16.5419 22.2194C16.8416 21.9667 17.1169 21.6915 17.3677 21.3936Z" fill="#E2F6CA"/>
<path fill-rule="evenodd" clip-rule="evenodd" d="M15.5097 22.7355C15.4606 22.8087 15.4434 22.8947 15.4581 22.9935C15.4581 23.0107 15.4581 23.028 15.4581 23.0452C15.314 23.0515 15.2108 23.1203 15.1484 23.2516C14.7617 23.4363 14.3832 23.6342 14.0129 23.8452C13.9462 23.8704 13.8773 23.8791 13.8065 23.871C13.7991 23.78 13.8163 23.694 13.8581 23.6129C14.0369 23.5793 14.1918 23.5019 14.3226 23.3806C14.4244 23.3551 14.5277 23.3465 14.6323 23.3548C14.6323 23.2516 14.6323 23.1484 14.6323 23.0452C14.7527 23.0452 14.8732 23.0452 14.9936 23.0452C14.9936 22.9764 14.9936 22.9075 14.9936 22.8387C14.942 22.8387 14.8903 22.8387 14.8387 22.8387C14.8387 22.7699 14.8387 22.7011 14.8387 22.6323C14.7699 22.6323 14.7011 22.6323 14.6323 22.6323C14.6188 22.556 14.6359 22.4872 14.6839 22.4258C14.8093 22.5229 14.947 22.5917 15.0968 22.6323C15.0796 22.4946 15.0624 22.357 15.0452 22.2193C15.2545 22.2026 15.4609 22.2198 15.6645 22.271C15.6348 22.3768 15.566 22.4284 15.4581 22.4258C15.459 22.5324 15.4761 22.6356 15.5097 22.7355Z" fill="#81B854"/>
<path fill-rule="evenodd" clip-rule="evenodd" d="M17.3677 21.3936C17.1169 21.6915 16.8416 21.9667 16.5419 22.2194C16.1897 22.4901 15.8284 22.7481 15.4581 22.9936C15.4434 22.8947 15.4606 22.8087 15.5097 22.7355C15.9136 22.5368 16.2836 22.2788 16.6194 21.9613C16.6245 21.8097 16.6675 21.6721 16.7484 21.5484C16.96 21.5072 17.1665 21.4555 17.3677 21.3936Z" fill="#89B366"/>
<path fill-rule="evenodd" clip-rule="evenodd" d="M27.6387 21.3936C27.6605 21.433 27.6778 21.476 27.6903 21.5226C27.6035 21.7659 27.5002 21.9981 27.3806 22.2194C27.3044 22.2058 27.2356 22.223 27.1742 22.271C27.2305 22.3282 27.2305 22.3798 27.1742 22.4258C27.1385 22.3987 27.1127 22.3643 27.0968 22.3226C27.0715 22.3893 27.0629 22.4582 27.071 22.529C27.0103 22.5177 26.9587 22.5349 26.9161 22.5807C26.8473 22.7183 26.7785 22.8559 26.7097 22.9936C26.6299 23.0427 26.5439 23.0599 26.4516 23.0452C26.4682 23.1599 26.4338 23.2545 26.3484 23.329C26.2225 23.4121 26.0849 23.4552 25.9355 23.4581C26.0032 23.3559 26.0892 23.2699 26.1936 23.2C26.2259 23.1527 26.2432 23.1011 26.2452 23.0452C26.2796 23.0452 26.314 23.0452 26.3484 23.0452C26.6108 22.8001 26.8344 22.5249 27.0194 22.2194C27.1252 22.1297 27.2198 22.0265 27.3032 21.9097C27.3636 21.7003 27.4754 21.5283 27.6387 21.3936Z" fill="#E8F8DA"/>
<path fill-rule="evenodd" clip-rule="evenodd" d="M4.30969 21.3936C4.36131 21.3936 4.41292 21.3936 4.46453 21.3936C4.46927 21.6095 4.5553 21.7815 4.7226 21.9097C4.73917 21.9896 4.79079 22.024 4.87743 22.0129C4.87007 22.1039 4.88727 22.1899 4.92905 22.271C5.17452 22.5072 5.38097 22.7653 5.5484 23.0452C5.51026 23.0519 5.47583 23.0433 5.44518 23.0194C5.2202 22.7284 4.97932 22.4617 4.7226 22.2194C4.53617 21.9706 4.39854 21.6953 4.30969 21.3936Z" fill="#8DB470"/>
<path fill-rule="evenodd" clip-rule="evenodd" d="M17.6258 22.529C17.6258 22.4258 17.6258 22.3226 17.6258 22.2194C17.7614 22.0545 17.8991 21.8825 18.0387 21.7032C18.1383 21.3661 18.2071 21.0219 18.2452 20.671C18.3113 20.6086 18.3113 20.5398 18.2452 20.4645C18.0056 20.8072 17.7303 21.1169 17.4193 21.3936C17.4022 21.3936 17.3849 21.3936 17.3677 21.3936C17.411 21.2291 17.4798 21.0742 17.5742 20.929C17.5706 20.8634 17.5534 20.8032 17.5226 20.7484C17.6484 20.6774 17.786 20.6516 17.9355 20.671C17.9334 20.4965 17.9506 20.3245 17.9871 20.1549C18.1595 20.1209 18.2628 20.1897 18.2968 20.3613C18.3325 20.3342 18.3583 20.2998 18.3742 20.2581C18.4232 20.5198 18.449 20.7951 18.4516 21.0839C18.3678 21.0767 18.3076 21.1111 18.271 21.1871C18.2351 21.4379 18.2093 21.6788 18.1935 21.9097C18.1101 21.9184 18.024 21.9357 17.9355 21.9613C17.8667 22.1333 17.7978 22.3054 17.729 22.4774C17.7054 22.5186 17.671 22.5358 17.6258 22.529Z" fill="#84B859"/>
<path fill-rule="evenodd" clip-rule="evenodd" d="M17.6258 22.2194C17.6258 22.3226 17.6258 22.4258 17.6258 22.529C17.3803 22.6929 17.2944 22.9165 17.3677 23.2C17.6293 23.433 17.9046 23.6395 18.1936 23.8194C18.3834 23.8761 18.5727 23.9277 18.7613 23.9742C18.7613 24.043 18.7613 24.1119 18.7613 24.1807C18.8692 24.1713 18.9724 24.1885 19.071 24.2323C19.1167 24.2748 19.1339 24.3265 19.1226 24.3871C18.4759 24.1545 17.891 23.8104 17.3677 23.3548C17.1957 23.2692 17.1097 23.1316 17.1097 22.9419C17.2817 22.7011 17.4538 22.4602 17.6258 22.2194Z" fill="#8EB570"/>
<path fill-rule="evenodd" clip-rule="evenodd" d="M16.5419 22.2194C16.468 22.3537 16.3648 22.4655 16.2323 22.5548C16.2494 22.572 16.2667 22.5893 16.2839 22.6065C16.0454 22.6821 15.8562 22.8197 15.7161 23.0194C15.6318 23.0449 15.5458 23.0534 15.4581 23.0452C15.4581 23.028 15.4581 23.0107 15.4581 22.9936C15.8284 22.7481 16.1897 22.4901 16.5419 22.2194Z" fill="#E2F5CC"/>
<path fill-rule="evenodd" clip-rule="evenodd" d="M27.0194 22.2194C26.8344 22.5249 26.6108 22.8001 26.3484 23.0452C26.3349 22.9689 26.3521 22.9001 26.4 22.8387C26.5749 22.6789 26.7125 22.4896 26.8129 22.271C26.8743 22.223 26.9431 22.2058 27.0194 22.2194Z" fill="#8AB269"/>
<path fill-rule="evenodd" clip-rule="evenodd" d="M4.7226 22.2194C4.97933 22.4617 5.2202 22.7284 5.44518 23.0194C5.47584 23.0433 5.51027 23.0519 5.54841 23.0452C5.54841 23.0796 5.54841 23.114 5.54841 23.1484C5.41138 23.1402 5.29096 23.0886 5.18712 22.9936C5.06629 22.8094 4.92865 22.6374 4.77422 22.4774C4.73244 22.3963 4.71524 22.3103 4.7226 22.2194Z" fill="#E8F8D9"/>
<path fill-rule="evenodd" clip-rule="evenodd" d="M15.4581 23.0452C15.4265 23.2102 15.3232 23.279 15.1484 23.2516C15.2107 23.1203 15.314 23.0515 15.4581 23.0452Z" fill="#DAF3C3"/>
<path fill-rule="evenodd" clip-rule="evenodd" d="M26.2452 23.0452C26.2431 23.101 26.2259 23.1527 26.1935 23.2C26.0892 23.2699 26.0032 23.3559 25.9355 23.4581C25.7375 23.5656 25.5482 23.686 25.3677 23.8193C25.3677 23.7677 25.3677 23.7161 25.3677 23.6645C25.422 23.6722 25.4736 23.6636 25.5226 23.6387C25.5054 23.6215 25.4881 23.6043 25.471 23.5871C25.6183 23.4312 25.7559 23.2678 25.8839 23.0968C25.9996 23.0465 26.12 23.0293 26.2452 23.0452Z" fill="#85B561"/>
<path fill-rule="evenodd" clip-rule="evenodd" d="M5.5484 23.1484C5.99248 23.5084 6.45699 23.8439 6.94195 24.1548C7.02628 24.1803 7.11232 24.1889 7.20001 24.1806C7.20001 24.2151 7.20001 24.2494 7.20001 24.2839C7.07836 24.2923 6.95795 24.2837 6.83872 24.2581C6.69106 24.1734 6.53622 24.1132 6.37421 24.0774C6.37421 24.0086 6.37421 23.9398 6.37421 23.871C6.09782 23.8193 5.89137 23.6645 5.75485 23.4064C5.69348 23.3585 5.62468 23.3413 5.5484 23.3548C5.5484 23.286 5.5484 23.2172 5.5484 23.1484Z" fill="#E7F8D6"/>
<path fill-rule="evenodd" clip-rule="evenodd" d="M5.5484 23.0452C5.65163 23.0452 5.75485 23.0452 5.85808 23.0452C5.84456 23.1214 5.86174 23.1902 5.90969 23.2516C6.01808 23.3177 6.10407 23.4038 6.16776 23.5097C6.31888 23.5605 6.47372 23.5777 6.63227 23.5613C6.64946 23.6645 6.6667 23.7677 6.68388 23.871C6.86499 23.8688 7.03702 23.9032 7.20001 23.9742C7.20001 24.043 7.20001 24.1118 7.20001 24.1806C7.11232 24.1889 7.02628 24.1803 6.94195 24.1548C6.45699 23.8439 5.99248 23.5084 5.5484 23.1484C5.5484 23.114 5.5484 23.0796 5.5484 23.0452Z" fill="#88B566"/>
<path fill-rule="evenodd" clip-rule="evenodd" d="M25.9355 23.4581C25.8795 23.7714 25.6903 23.9091 25.3677 23.871C25.3677 23.8538 25.3677 23.8365 25.3677 23.8194C25.5482 23.686 25.7375 23.5656 25.9355 23.4581Z" fill="#E2F5D2"/>
<path fill-rule="evenodd" clip-rule="evenodd" d="M15.1484 23.2516C15.1002 23.389 15.0313 23.518 14.9419 23.6387C14.6905 23.7383 14.4324 23.8243 14.1677 23.8968C14.0839 23.9408 14.0667 23.9924 14.1161 24.0516C13.9613 24.0688 13.8064 24.086 13.6516 24.1032C13.6074 24.1388 13.573 24.1818 13.5484 24.2323C13.2731 24.3355 12.9978 24.4387 12.7226 24.5419C12.6881 24.5764 12.6538 24.6107 12.6193 24.6452C12.1729 24.7651 11.7256 24.8512 11.2774 24.9032C11.4618 24.8196 11.651 24.7508 11.8451 24.6968C11.9853 24.6876 12.123 24.6618 12.258 24.6194C12.571 24.5093 12.8807 24.3888 13.1871 24.2581C13.4076 24.1399 13.6141 24.0108 13.8064 23.871C13.8773 23.8791 13.9462 23.8705 14.0129 23.8452C14.3832 23.6342 14.7617 23.4363 15.1484 23.2516Z" fill="#E2F7D1"/>
<path fill-rule="evenodd" clip-rule="evenodd" d="M17.3677 23.3548C17.891 23.8104 18.4759 24.1545 19.1226 24.3871C19.178 24.4586 19.2468 24.5188 19.329 24.5677C19.8521 24.7306 20.3854 24.851 20.929 24.929C21.3591 24.9634 21.7893 24.9634 22.2193 24.929C22.4582 24.9264 22.6818 24.8834 22.8903 24.8C23.3552 24.7553 23.8025 24.6521 24.2323 24.4903C24.0921 24.6286 23.92 24.6974 23.7161 24.6968C23.7161 24.7656 23.7161 24.8344 23.7161 24.9032C23.0651 24.978 22.4113 25.0124 21.7548 25.0064C21.0284 25.0094 20.3058 24.975 19.5871 24.9032C19.5871 24.8344 19.5871 24.7656 19.5871 24.6968C19.4441 24.7008 19.3065 24.675 19.1742 24.6193C18.7523 24.4512 18.3393 24.2705 17.9355 24.0774C17.9355 24.0086 17.9355 23.9398 17.9355 23.871C17.6046 23.8567 17.4154 23.6846 17.3677 23.3548Z" fill="#E6F8D7"/>
<path fill-rule="evenodd" clip-rule="evenodd" d="M13.8064 23.871C13.6141 24.0108 13.4076 24.1399 13.1871 24.2581C12.8807 24.3888 12.571 24.5093 12.2581 24.6194C12.123 24.6618 11.9853 24.6876 11.8452 24.6968C11.8472 24.6409 11.8644 24.5893 11.8968 24.5419C12.1499 24.5121 12.3907 24.4433 12.6193 24.3355C12.7151 24.1966 12.8356 24.0849 12.9806 24C13.2515 23.9254 13.5268 23.8824 13.8064 23.871Z" fill="#88B763"/>
<path fill-rule="evenodd" clip-rule="evenodd" d="M25.2645 23.871C24.9227 24.0765 24.5786 24.2829 24.2323 24.4903C23.8025 24.6521 23.3552 24.7553 22.8903 24.8C23.1596 24.6833 23.4521 24.6058 23.7677 24.5677C23.721 24.4801 23.7038 24.3854 23.7161 24.2839C23.8747 24.3002 24.0295 24.283 24.1806 24.2323C24.5482 24.1159 24.9095 23.9955 25.2645 23.871Z" fill="#87B363"/>
<path fill-rule="evenodd" clip-rule="evenodd" d="M25.2645 23.871C25.2989 23.871 25.3333 23.871 25.3677 23.871C25.3751 23.9619 25.3579 24.048 25.3161 24.129C24.9561 24.2761 24.5948 24.3965 24.2322 24.4903C24.5786 24.2829 24.9227 24.0765 25.2645 23.871Z" fill="#DFF3C9"/>
<path fill-rule="evenodd" clip-rule="evenodd" d="M19.1226 24.3871C19.4753 24.3659 19.8194 24.4003 20.1548 24.4903C20.1548 24.5591 20.1548 24.628 20.1548 24.6968C21.0639 24.7818 21.9758 24.8163 22.8903 24.8C22.6818 24.8835 22.4581 24.9265 22.2193 24.929C21.7892 24.9635 21.3591 24.9635 20.929 24.929C20.3854 24.851 19.8521 24.7306 19.329 24.5678C19.2468 24.5188 19.178 24.4586 19.1226 24.3871Z" fill="#89B56A"/>
<path fill-rule="evenodd" clip-rule="evenodd" d="M7.20001 24.2839C8.41823 24.8833 9.70855 25.0897 11.071 24.9032C11.0494 24.9405 11.015 24.9663 10.9678 24.9806C10.1248 25.0151 9.28172 25.0151 8.43872 24.9806C8.47315 24.9635 8.50752 24.9462 8.54195 24.929C8.34427 24.9316 8.17224 24.8713 8.02582 24.7484C7.74897 24.662 7.47366 24.5761 7.20001 24.4903C7.20001 24.4215 7.20001 24.3527 7.20001 24.2839Z" fill="#E5F9D8"/>
<path fill-rule="evenodd" clip-rule="evenodd" d="M7.20001 24.1806C7.63155 24.3177 8.07883 24.4037 8.54195 24.4387C8.5837 24.5198 8.60094 24.6058 8.59356 24.6968C9.17704 24.7442 9.76203 24.7786 10.3484 24.8C10.85 24.7868 11.349 24.7523 11.8452 24.6968C11.6511 24.7507 11.4618 24.8195 11.2774 24.9032C11.2086 24.9032 11.1398 24.9032 11.071 24.9032C9.70855 25.0897 8.41823 24.8832 7.20001 24.2839C7.20001 24.2494 7.20001 24.2151 7.20001 24.1806Z" fill="#87B667"/>
</g>
<defs>
<clipPath id="clip0_1_498">
<rect width="32" height="32" fill="white"/>
</clipPath>
</defs>
</svg>
