<svg width="32" height="32" viewBox="0 0 32 32" fill="none" xmlns="http://www.w3.org/2000/svg">
<rect width="32" height="32" fill="#843131"/>
<path d="M29.2512 13.0022V12.9606C29.2512 12.9043 29.2371 12.8624 29.2371 12.8064L29.1946 12.6381C29.1946 12.624 29.1802 12.624 29.1802 12.6102C29.1658 12.5542 29.1373 12.512 29.1088 12.4701V12.456C29.0835 12.4074 29.0549 12.3606 29.0234 12.3158L28.9946 12.288C28.9606 12.2425 28.9224 12.2003 28.8806 12.1619L22.8931 6.27872L16.9053 0.395521C16.8624 0.353601 16.8198 0.325441 16.777 0.283521L16.7482 0.256001C16.7056 0.227841 16.6486 0.199681 16.6058 0.171841H16.5917C16.5488 0.143681 16.4918 0.129921 16.449 0.115841C16.4349 0.115841 16.4349 0.101761 16.4205 0.101761L16.2496 0.0595207C16.1923 0.0454407 16.1498 0.0454407 16.0928 0.0454407H4.03167C3.31871 0.0454407 2.74847 0.605441 2.74847 1.30624V30.7219C2.74847 31.4221 3.31871 31.9827 4.03167 31.9827H27.9827C28.6954 31.9827 29.2659 31.4221 29.2659 30.7219V13.0445C29.2515 13.0304 29.2512 13.0163 29.2512 13.0022ZM17.2758 10.0048V4.33184L20.1699 7.17536L17.2758 10.0048ZM21.9805 8.94016L24.8746 11.7837H19.1008L21.9805 8.94016ZM5.30047 2.53888H14.7098V11.7837H5.30047V2.53888ZM5.30047 14.3053H14.7098V29.4333H5.30047V14.3053ZM26.6848 29.433H17.2758V14.305H26.6851V29.4336L26.6848 29.433Z" fill="white"/>
</svg>
