<svg width="32" height="32" viewBox="0 0 32 32" fill="none" xmlns="http://www.w3.org/2000/svg">
<g clip-path="url(#clip0_1_940)">
<path opacity="0.01" fill-rule="evenodd" clip-rule="evenodd" d="M17.5625 3.68754C17.8285 3.5464 18.1201 3.52557 18.4375 3.62504C18.1488 3.68712 17.8571 3.70795 17.5625 3.68754Z" fill="black"/>
<path opacity="0.01" fill-rule="evenodd" clip-rule="evenodd" d="M21.8125 3.6875C21.4766 3.70801 21.1432 3.68718 20.8125 3.625C21.1709 3.52491 21.5042 3.54574 21.8125 3.6875Z" fill="black"/>
<path opacity="0.01" fill-rule="evenodd" clip-rule="evenodd" d="M21.8125 3.8125C21.8125 3.77084 21.8125 3.72916 21.8125 3.6875C22.3724 3.69199 22.914 3.79616 23.4375 4C23.2759 4.06125 23.1091 4.08209 22.9375 4.0625C22.804 3.94569 22.6374 3.90402 22.4375 3.9375C22.2601 3.81861 22.0519 3.77694 21.8125 3.8125Z" fill="#11021E"/>
<path opacity="0.999" fill-rule="evenodd" clip-rule="evenodd" d="M21.8125 3.81252C21.9899 3.93141 22.1981 3.97308 22.4375 3.93752C22.571 4.05433 22.7376 4.09599 22.9375 4.06252C23.2841 4.20717 23.6591 4.29051 24.0625 4.31252C24.1053 4.41729 24.1885 4.45897 24.3125 4.43752C24.4011 4.55052 24.5261 4.59218 24.6875 4.56252C25.0392 4.75873 25.4142 4.92541 25.8125 5.06252C25.9393 5.20923 26.1059 5.29257 26.3125 5.31252C26.4393 5.45923 26.6059 5.54257 26.8125 5.56252C27.2245 5.85262 27.6411 6.14429 28.0625 6.43752C28.7291 7.02086 29.3541 7.64586 29.9375 8.31252C30.3129 8.98017 30.6879 9.64683 31.0625 10.3125C31.1824 10.7979 31.349 11.2562 31.5625 11.6875C31.5525 12.0977 31.6359 12.4727 31.8125 12.8125C31.7756 13.0919 31.8174 13.3419 31.9375 13.5625C31.9375 14.8959 31.9375 16.2291 31.9375 17.5625C31.8174 17.7831 31.7756 18.0331 31.8125 18.3125C31.6936 18.4899 31.652 18.6981 31.6875 18.9375C31.5686 19.1149 31.527 19.3231 31.5625 19.5625C31.4495 19.6511 31.4079 19.7761 31.4375 19.9375C31.3245 20.0261 31.2829 20.1511 31.3125 20.3125C31.1995 20.4011 31.1579 20.5261 31.1875 20.6875C31.0745 20.7761 31.0329 20.9011 31.0625 21.0625C30.9578 21.1053 30.916 21.1885 30.9375 21.3125C30.8328 21.3553 30.791 21.4385 30.8125 21.5625C30.7078 21.6053 30.666 21.6885 30.6875 21.8125C30.5407 21.9393 30.4575 22.1059 30.4375 22.3125C30.3328 22.3553 30.291 22.4385 30.3125 22.5625C30.2291 22.5625 30.1875 22.6041 30.1875 22.6875C30.0828 22.7303 30.041 22.8135 30.0625 22.9375C29.9578 22.9803 29.916 23.0635 29.9375 23.1875C29.8541 23.1875 29.8125 23.2291 29.8125 23.3125C29.7291 23.3125 29.6875 23.3541 29.6875 23.4375C29.5828 23.4803 29.541 23.5635 29.5625 23.6875C29.4791 23.6875 29.4375 23.7291 29.4375 23.8125C29.3541 23.8125 29.3125 23.8541 29.3125 23.9375C29.2291 23.9375 29.1875 23.9791 29.1875 24.0625C29.0828 24.1053 29.041 24.1885 29.0625 24.3125C28.9791 24.3125 28.9375 24.3541 28.9375 24.4375C28.8541 24.4375 28.8125 24.4791 28.8125 24.5625C28.7291 24.5625 28.6875 24.6041 28.6875 24.6875C28.6041 24.6875 28.5625 24.7291 28.5625 24.8125C28.4791 24.8125 28.4375 24.8541 28.4375 24.9375C28.3541 24.9375 28.3125 24.9791 28.3125 25.0625C28.2291 25.0625 28.1875 25.1041 28.1875 25.1875C28.1041 25.1875 28.0625 25.2291 28.0625 25.3125C27.9791 25.3125 27.9375 25.3541 27.9375 25.4375C27.8135 25.416 27.7303 25.4578 27.6875 25.5625C27.6041 25.5625 27.5625 25.6041 27.5625 25.6875C27.4791 25.6875 27.4375 25.7291 27.4375 25.8125C27.3541 25.8125 27.3125 25.8541 27.3125 25.9375C27.1885 25.916 27.1053 25.9578 27.0625 26.0625C26.9791 26.0625 26.9375 26.1041 26.9375 26.1875C26.8135 26.166 26.7303 26.2078 26.6875 26.3125C26.6041 26.3125 26.5625 26.3541 26.5625 26.4375C26.4385 26.416 26.3553 26.4578 26.3125 26.5625C26.2291 26.5625 26.1875 26.6041 26.1875 26.6875C26.0635 26.666 25.9803 26.7078 25.9375 26.8125C25.8135 26.791 25.7303 26.8328 25.6875 26.9375C25.5635 26.916 25.4803 26.9578 25.4375 27.0625C25.3135 27.041 25.2303 27.0828 25.1875 27.1875C25.0261 27.1579 24.9011 27.1995 24.8125 27.3125C24.6885 27.291 24.6053 27.3328 24.5625 27.4375C24.4011 27.4079 24.2761 27.4495 24.1875 27.5625C24.0261 27.5329 23.9011 27.5745 23.8125 27.6875C23.5731 27.652 23.3649 27.6936 23.1875 27.8125C22.9481 27.777 22.7399 27.8186 22.5625 27.9375C20.7856 28.1736 19.0356 28.0486 17.3125 27.5625C17.0625 27.3959 16.8125 27.2291 16.5625 27.0625C17.751 26.4059 18.876 25.6559 19.9375 24.8125C20.8192 24.7361 21.6526 24.5279 22.4375 24.1875C22.5615 24.209 22.6447 24.1673 22.6875 24.0625C23.2104 23.8641 23.6687 23.5724 24.0625 23.1875C24.1459 23.1875 24.1875 23.1459 24.1875 23.0625C24.3125 23.0209 24.3959 22.9375 24.4375 22.8125C24.5209 22.8125 24.5625 22.7709 24.5625 22.6875C24.8184 22.4313 25.0267 22.1396 25.1875 21.8125C25.2709 21.8125 25.3125 21.7709 25.3125 21.6875C25.501 21.4774 25.626 21.2274 25.6875 20.9375C25.7709 20.9375 25.8125 20.8959 25.8125 20.8125C25.9421 20.6338 26.0255 20.4254 26.0625 20.1875C26.1672 20.1448 26.209 20.0615 26.1875 19.9375C26.4683 19.3994 26.635 18.8161 26.6875 18.1875C26.8043 18.054 26.846 17.8874 26.8125 17.6875C27.2431 15.5814 27.0972 13.4981 26.375 11.4375C26.1532 10.8663 25.8408 10.3663 25.4375 9.93752C25.4466 9.74666 25.3633 9.62166 25.1875 9.56252C25.1875 9.47918 25.1459 9.43752 25.0625 9.43752C25.0209 9.31252 24.9375 9.22918 24.8125 9.18752C24.8125 9.10418 24.7709 9.06252 24.6875 9.06252C24.6875 8.97918 24.6459 8.93752 24.5625 8.93752C24.5209 8.77086 24.4791 8.77086 24.4375 8.93752C24.1569 8.93237 24.0735 8.82821 24.1875 8.62502C23.9311 8.37249 23.6395 8.18499 23.3125 8.06252C23.3125 7.97918 23.2709 7.93752 23.1875 7.93752C22.5809 7.55184 21.9143 7.30184 21.1875 7.18752C21.0989 7.07452 20.9739 7.03286 20.8125 7.06252C20.6351 6.94363 20.4269 6.90196 20.1875 6.93752C19.7548 6.81482 19.2964 6.77314 18.8125 6.81252C17.5415 6.66343 16.3331 6.89261 15.1875 7.50002C14.7575 7.75528 14.3825 8.06778 14.0625 8.43752C13.0806 9.15333 12.7264 10.1117 13 11.3125C13.0943 11.7106 13.2817 12.0439 13.5625 12.3125C13.5625 12.3542 13.5625 12.3959 13.5625 12.4375C12.9513 13.1493 12.9096 13.8993 13.4375 14.6875C11.263 14.2834 10.138 12.9709 10.0625 10.75C10.0789 9.99824 10.2039 9.26907 10.4375 8.56252C10.8783 7.74562 11.42 6.99562 12.0625 6.31252C12.8574 5.80768 13.649 5.30768 14.4375 4.81252C14.5209 4.81252 14.5625 4.77086 14.5625 4.68752C14.9304 4.62749 15.2637 4.50249 15.5625 4.31252C17.6142 3.76237 19.6976 3.59571 21.8125 3.81252ZM18.8125 6.81252C19.2964 6.77314 19.7548 6.81482 20.1875 6.93752C19.7859 6.89877 19.4109 6.94043 19.0625 7.06252C18.9375 7.02086 18.8541 6.93752 18.8125 6.81252ZM25.1875 9.56252C25.3633 9.62166 25.4466 9.74666 25.4375 9.93752C25.3541 9.89586 25.2709 9.85418 25.1875 9.81252C25.1875 9.72918 25.1875 9.64586 25.1875 9.56252ZM15.0625 12.0625C14.8231 12.027 14.6149 12.0686 14.4375 12.1875C14.2709 12.1875 14.1041 12.1875 13.9375 12.1875C14.2966 11.9398 14.6716 11.8982 15.0625 12.0625Z" fill="#394E62"/>
<path opacity="0.01" fill-rule="evenodd" clip-rule="evenodd" d="M15.5626 4.3125C15.0974 4.27592 15.1182 4.19259 15.6251 4.0625C15.6876 4.08334 15.7501 4.10416 15.8126 4.125C15.6981 4.1598 15.6148 4.2223 15.5626 4.3125Z" fill="#0C0016"/>
<path opacity="0.01" fill-rule="evenodd" clip-rule="evenodd" d="M24.0625 4.18749C23.931 4.20618 23.806 4.18534 23.6875 4.12499C23.8436 4.03248 23.9686 4.05331 24.0625 4.18749Z" fill="black"/>
<path opacity="0.01" fill-rule="evenodd" clip-rule="evenodd" d="M24.0625 4.31245C24.0625 4.27079 24.0625 4.22912 24.0625 4.18745C24.3191 4.17522 24.5275 4.25854 24.6875 4.43745C24.5625 4.43745 24.4375 4.43745 24.3125 4.43745C24.2697 4.33268 24.1865 4.291 24.0625 4.31245Z" fill="#110121"/>
<path opacity="0.01" fill-rule="evenodd" clip-rule="evenodd" d="M13.3125 4.56255C13.536 4.42223 13.786 4.40141 14.0625 4.50005C13.8159 4.56198 13.5659 4.58281 13.3125 4.56255Z" fill="#D71305"/>
<path opacity="0.01" fill-rule="evenodd" clip-rule="evenodd" d="M24.6875 4.5625C24.6875 4.52084 24.6875 4.47916 24.6875 4.4375C25.0209 4.47916 25.0209 4.52084 24.6875 4.5625Z" fill="black"/>
<path opacity="0.01" fill-rule="evenodd" clip-rule="evenodd" d="M14.5625 4.68751C14.4701 4.70388 14.3867 4.68305 14.3125 4.62501C14.4296 4.53855 14.5129 4.55938 14.5625 4.68751Z" fill="black"/>
<path opacity="0.997" fill-rule="evenodd" clip-rule="evenodd" d="M13.3125 4.56253C13.6681 4.668 14.0431 4.75133 14.4375 4.81253C13.649 5.30769 12.8574 5.80769 12.0625 6.31253C6.44677 6.4452 3.00927 9.27854 1.75 14.8125C1.34628 19.859 3.40877 23.4633 7.9375 25.625C8.62418 25.9027 9.33251 26.0902 10.0625 26.1875C11.0722 27.4829 12.4056 28.0245 14.0625 27.8125C14.0625 27.8542 14.0625 27.8959 14.0625 27.9375C13.8231 27.902 13.6149 27.9437 13.4375 28.0625C12.3125 28.0625 11.1875 28.0625 10.0625 28.0625C9.88516 27.9437 9.67684 27.902 9.4375 27.9375C9.09767 27.7609 8.72267 27.6775 8.3125 27.6875C7.8082 27.4079 7.26654 27.1995 6.6875 27.0625C6.6875 26.9792 6.64584 26.9375 6.5625 26.9375C6.35231 26.749 6.10231 26.624 5.8125 26.5625C5.34714 26.1812 4.84714 25.8478 4.3125 25.5625C4.22916 25.3959 4.10416 25.2709 3.9375 25.1875C3.9375 25.1042 3.89584 25.0625 3.8125 25.0625C3.72916 24.8959 3.60416 24.7709 3.4375 24.6875C3.4375 24.6042 3.39584 24.5625 3.3125 24.5625C3.22916 24.3959 3.10416 24.2709 2.9375 24.1875C2.9375 24.1042 2.89584 24.0625 2.8125 24.0625C2.60287 23.8075 2.39454 23.5575 2.1875 23.3125C2.13349 23.1613 2.05016 23.0363 1.9375 22.9375C1.9375 22.8542 1.89584 22.8125 1.8125 22.8125C1.73621 22.5708 1.61121 22.3624 1.4375 22.1875C1.41755 21.9809 1.33421 21.8143 1.1875 21.6875C1.16755 21.4809 1.08422 21.3143 0.9375 21.1875C0.900518 20.9497 0.817184 20.7413 0.6875 20.5625C0.708948 20.4385 0.667281 20.3553 0.5625 20.3125C0.592164 20.1512 0.550496 20.0262 0.4375 19.9375C0.399709 19.5784 0.316376 19.2452 0.1875 18.9375C0.220976 18.7377 0.17931 18.571 0.0625 18.4375C0.0993396 18.1582 0.057673 17.9082 -0.0625 17.6875C-0.0625 16.7292 -0.0625 15.7709 -0.0625 14.8125C0.104167 14.6042 0.104167 14.3959 -0.0625 14.1875C-0.0625 13.9792 -0.0625 13.7709 -0.0625 13.5625C0.0334888 13.4672 0.0959888 13.3422 0.125 13.1875C0.166666 13.3125 0.208334 13.4375 0.25 13.5625C0.332747 13.2734 0.395248 12.9818 0.4375 12.6875C0.830898 11.707 1.28922 10.7487 1.8125 9.81253C1.89584 9.81253 1.9375 9.77087 1.9375 9.68753C2.60308 8.85542 3.31141 8.06374 4.0625 7.31253C4.14584 7.31253 4.1875 7.27087 4.1875 7.18753C4.35896 7.06108 4.52563 6.93608 4.6875 6.81253C4.77084 6.81253 4.8125 6.77087 4.8125 6.68753C5.23364 6.4357 5.6503 6.1857 6.0625 5.93753C6.14584 5.93753 6.1875 5.89587 6.1875 5.81253C6.44915 5.74444 6.69915 5.64028 6.9375 5.50003C6.89584 5.45837 6.85416 5.41669 6.8125 5.37503C7.08269 5.07613 7.39519 5.01363 7.75 5.18753C9.56005 4.62895 11.4142 4.42063 13.3125 4.56253Z" fill="#F8695F"/>
<path opacity="0.01" fill-rule="evenodd" clip-rule="evenodd" d="M25.8125 5.06251C25.8621 4.93438 25.9454 4.91355 26.0625 5.00001C25.9883 5.05805 25.9049 5.07888 25.8125 5.06251Z" fill="black"/>
<path opacity="0.01" fill-rule="evenodd" clip-rule="evenodd" d="M26.3125 5.31245C26.204 5.01346 26.2874 4.99262 26.5625 5.24995C26.4882 5.30799 26.4049 5.32882 26.3125 5.31245Z" fill="black"/>
<path opacity="0.01" fill-rule="evenodd" clip-rule="evenodd" d="M26.8125 5.4375C26.9791 5.52084 26.9791 5.52084 26.8125 5.4375Z" fill="black"/>
<path opacity="0.01" fill-rule="evenodd" clip-rule="evenodd" d="M27.0625 5.5625C27.2291 5.64584 27.2291 5.64584 27.0625 5.5625Z" fill="black"/>
<path opacity="0.01" fill-rule="evenodd" clip-rule="evenodd" d="M6.18749 5.8125C6.10416 5.8125 6.06249 5.85416 6.06249 5.9375C5.75309 5.90666 5.75309 5.82332 6.06249 5.6875C6.13833 5.70295 6.17999 5.74461 6.18749 5.8125Z" fill="#FF291D"/>
<path fill-rule="evenodd" clip-rule="evenodd" d="M12.0625 6.3125C11.42 6.9956 10.8783 7.7456 10.4375 8.5625C10.4011 8.41886 10.297 8.33553 10.125 8.3125C6.51398 9.17349 4.34732 11.4235 3.62501 15.0625C3.28608 19.639 5.26524 22.6808 9.56251 24.1875C9.61194 24.8852 9.77862 25.5519 10.0625 26.1875C9.33252 26.0901 8.62418 25.9026 7.93751 25.625C3.40878 23.4632 1.34628 19.859 1.75001 14.8125C3.00928 9.27851 6.44678 6.44518 12.0625 6.3125Z" fill="#E75E59"/>
<path opacity="0.016" fill-rule="evenodd" clip-rule="evenodd" d="M28.0625 6.3125C28.2291 6.39584 28.2291 6.39584 28.0625 6.3125Z" fill="#000080"/>
<path opacity="0.01" fill-rule="evenodd" clip-rule="evenodd" d="M28.3125 6.4375C28.4791 6.52084 28.4791 6.52084 28.3125 6.4375Z" fill="black"/>
<path opacity="0.01" fill-rule="evenodd" clip-rule="evenodd" d="M4.81249 6.6875C4.72916 6.6875 4.68749 6.72916 4.68749 6.8125C4.37809 6.78166 4.37809 6.69832 4.68749 6.5625C4.76333 6.57795 4.80499 6.61961 4.81249 6.6875Z" fill="#FE0000"/>
<path opacity="0.01" fill-rule="evenodd" clip-rule="evenodd" d="M19.0625 7.06247C19.4109 6.94038 19.7859 6.89872 20.1875 6.93747C20.1875 6.97913 20.1875 7.0208 20.1875 7.06247C19.8812 7.03722 19.5896 7.07889 19.3125 7.18747C19.2697 7.08269 19.1865 7.04102 19.0625 7.06247Z" fill="#2A0F03"/>
<path opacity="0.01" fill-rule="evenodd" clip-rule="evenodd" d="M4.18749 7.1875C4.10416 7.1875 4.06249 7.22916 4.06249 7.3125C3.75309 7.28166 3.75309 7.19832 4.06249 7.0625C4.13833 7.07795 4.17999 7.11961 4.18749 7.1875Z" fill="#FE0000"/>
<path opacity="0.01" fill-rule="evenodd" clip-rule="evenodd" d="M20.1875 7.0625C20.3959 7.0625 20.6041 7.0625 20.8125 7.0625C20.9011 7.1755 21.0261 7.21716 21.1875 7.1875C20.8445 7.31132 20.5111 7.26966 20.1875 7.0625Z" fill="#0D0119"/>
<path fill-rule="evenodd" clip-rule="evenodd" d="M18.8125 6.8125C18.8541 6.9375 18.9375 7.02084 19.0625 7.0625C19.1053 7.16728 19.1885 7.20895 19.3125 7.1875C19.3959 7.35417 19.5209 7.47917 19.6875 7.5625C19.6875 7.64584 19.7291 7.6875 19.8125 7.6875C19.8125 7.77084 19.8541 7.8125 19.9375 7.8125C20.0209 7.97917 20.1459 8.10417 20.3125 8.1875C19.7144 8.19292 19.0894 8.21375 18.4375 8.25C17.6871 8.37944 16.9996 8.65027 16.375 9.0625C16.3503 9.29772 16.2877 9.50605 16.1875 9.6875C16.1875 9.5625 16.1875 9.4375 16.1875 9.3125C15.4944 8.99774 14.786 8.70608 14.0625 8.4375C14.3825 8.06777 14.7575 7.75527 15.1875 7.5C16.3331 6.89259 17.5415 6.66342 18.8125 6.8125Z" fill="#E9615B"/>
<path opacity="0.01" fill-rule="evenodd" clip-rule="evenodd" d="M19.6875 7.56251C19.7371 7.43438 19.8204 7.41355 19.9375 7.50001C20.0968 7.62216 20.0968 7.72633 19.9375 7.81251C19.8541 7.81251 19.8125 7.77085 19.8125 7.68751C19.7291 7.68751 19.6875 7.64585 19.6875 7.56251Z" fill="#CC4518"/>
<path opacity="0.01" fill-rule="evenodd" clip-rule="evenodd" d="M23.1875 7.93753C23.2709 7.93753 23.3125 7.9792 23.3125 8.06253C23.1879 8.2141 23.0629 8.19326 22.9375 8.00003C23.0117 7.942 23.0951 7.92116 23.1875 7.93753Z" fill="#0E0119"/>
<path opacity="0.016" fill-rule="evenodd" clip-rule="evenodd" d="M30.0625 8.3125C29.9792 8.14583 29.9792 8.14583 30.0625 8.3125Z" fill="#000080"/>
<path opacity="0.999" fill-rule="evenodd" clip-rule="evenodd" d="M10.4376 8.5625C10.2039 9.26905 10.0789 9.99822 10.0626 10.75C10.1381 12.9709 11.2631 14.2834 13.4376 14.6875C13.4376 14.7709 13.4792 14.8125 13.5626 14.8125C14.1031 15.2951 14.7281 15.4201 15.4376 15.1875C15.4539 15.9026 15.3914 16.611 15.2501 17.3125C15.2022 17.382 15.1397 17.4236 15.0626 17.4375C14.5682 17.2631 14.1098 17.3464 13.6876 17.6875C13.6042 17.6875 13.5626 17.7291 13.5626 17.8125C13.4792 17.8125 13.4376 17.8541 13.4376 17.9375C13.1281 18.286 13.0031 18.7027 13.0626 19.1875C11.0301 20.2539 9.86339 21.9205 9.56256 24.1875C5.26529 22.6808 3.28613 19.639 3.62506 15.0625C4.34737 11.4235 6.51403 9.17349 10.1251 8.3125C10.297 8.33553 10.4012 8.41886 10.4376 8.5625ZM8.43756 12.0625C8.64589 12.2292 8.85422 12.2292 9.06256 12.0625C9.33731 12.015 9.54563 12.0984 9.68756 12.3125C9.52089 12.3542 9.52089 12.3958 9.68756 12.4375C9.68756 12.5209 9.72922 12.5625 9.81256 12.5625C10.2553 13.2036 10.297 13.8702 9.93756 14.5625C9.85422 14.5625 9.81256 14.6041 9.81256 14.6875C9.72922 14.6875 9.68756 14.7291 9.68756 14.8125C9.48093 14.8325 9.31427 14.9157 9.18756 15.0625C8.89589 15.0625 8.60422 15.0625 8.31256 15.0625C8.18584 14.9157 8.01918 14.8325 7.81256 14.8125C7.81256 14.7291 7.77089 14.6875 7.68756 14.6875C7.68756 14.6041 7.64589 14.5625 7.56256 14.5625C7.52089 14.3959 7.47922 14.3959 7.43756 14.5625C7.22341 14.4206 7.14007 14.2122 7.18756 13.9375C7.04724 13.714 7.02642 13.464 7.12506 13.1875C7.15011 12.96 7.25427 12.7934 7.43756 12.6875C7.47922 12.8541 7.52089 12.8541 7.56256 12.6875C7.64589 12.6875 7.68756 12.6459 7.68756 12.5625C7.77089 12.5625 7.81256 12.5209 7.81256 12.4375C7.97922 12.3958 7.97922 12.3542 7.81256 12.3125C7.95448 12.0984 8.16281 12.015 8.43756 12.0625ZM7.81256 12.3125C7.81256 12.3542 7.81256 12.3958 7.81256 12.4375C7.72922 12.4375 7.68756 12.4792 7.68756 12.5625C7.60422 12.5625 7.56256 12.6041 7.56256 12.6875C7.52089 12.6875 7.47922 12.6875 7.43756 12.6875C7.43756 12.4375 7.56256 12.3125 7.81256 12.3125ZM9.68756 12.4375C9.68756 12.3958 9.68756 12.3542 9.68756 12.3125C9.85422 12.3125 9.93756 12.3958 9.93756 12.5625C9.89589 12.5625 9.85422 12.5625 9.81256 12.5625C9.72922 12.5625 9.68756 12.5209 9.68756 12.4375ZM7.43756 14.5625C7.47922 14.5625 7.52089 14.5625 7.56256 14.5625C7.64589 14.5625 7.68756 14.6041 7.68756 14.6875C7.77089 14.6875 7.81256 14.7291 7.81256 14.8125C7.81256 14.8541 7.81256 14.8959 7.81256 14.9375C7.56256 14.9375 7.43756 14.8125 7.43756 14.5625ZM9.93756 14.5625C9.97922 14.5625 10.0209 14.5625 10.0626 14.5625C10.0626 14.8125 9.93756 14.9375 9.68756 14.9375C9.68756 14.8959 9.68756 14.8541 9.68756 14.8125C9.77089 14.8125 9.81256 14.7709 9.81256 14.6875C9.89589 14.6875 9.93756 14.6459 9.93756 14.5625ZM9.06256 17.4375C9.26243 17.404 9.42911 17.4457 9.56256 17.5625C9.43106 17.5439 9.30606 17.5646 9.18756 17.625C9.36264 17.6762 9.52931 17.7388 9.68756 17.8125C9.68756 17.8959 9.72922 17.9375 9.81256 17.9375C9.81256 18.0209 9.85422 18.0625 9.93756 18.0625C9.95751 18.2691 10.0408 18.4357 10.1876 18.5625C10.1866 18.9431 10.1449 19.3181 10.0626 19.6875C9.26663 20.6308 8.41247 20.6724 7.50006 19.8125C7.45021 19.841 7.42938 19.8828 7.43756 19.9375C7.33278 19.8947 7.29111 19.8115 7.31256 19.6875C7.38714 19.6581 7.42882 19.5956 7.43756 19.5C7.35917 19.2331 7.29667 18.9622 7.25006 18.6875C7.18837 18.8917 7.16753 19.1001 7.18756 19.3125C7.04724 19.089 7.02642 18.839 7.12506 18.5625C7.15011 18.335 7.25427 18.1684 7.43756 18.0625C7.47922 18.2291 7.52089 18.2291 7.56256 18.0625C7.68756 18.0209 7.77089 17.9375 7.81256 17.8125C7.97081 17.7388 8.13747 17.6762 8.31256 17.625C8.19406 17.5646 8.06906 17.5439 7.93756 17.5625C8.29663 17.3148 8.67163 17.2731 9.06256 17.4375ZM9.68756 17.8125C9.68756 17.7709 9.68756 17.7291 9.68756 17.6875C9.93756 17.6875 10.0626 17.8125 10.0626 18.0625C10.0209 18.0625 9.97922 18.0625 9.93756 18.0625C9.85422 18.0625 9.81256 18.0209 9.81256 17.9375C9.72922 17.9375 9.68756 17.8959 9.68756 17.8125Z" fill="#F8695F"/>
<path fill-rule="evenodd" clip-rule="evenodd" d="M20.3125 8.18748C20.7388 8.17295 20.9055 8.38128 20.8125 8.81248C20.5087 9.6017 20.3837 10.435 20.4375 11.3125C19.8261 14.3989 19.347 17.5239 19 20.6875C18.6451 21.8579 18.2909 23.0246 17.9375 24.1875C17.5608 25.3607 16.9358 26.3607 16.0625 27.1875C16.0625 27.2291 16.0625 27.2709 16.0625 27.3125C15.9385 27.291 15.8553 27.3327 15.8125 27.4375C15.6885 27.416 15.6053 27.4577 15.5625 27.5625C15.4385 27.541 15.3553 27.5827 15.3125 27.6875C15.0731 27.652 14.8649 27.6936 14.6875 27.8125C14.4791 27.8125 14.2709 27.8125 14.0625 27.8125C12.4056 28.0245 11.0722 27.4829 10.0625 26.1875C9.77861 25.5519 9.61194 24.8852 9.5625 24.1875C9.86334 21.9205 11.03 20.2539 13.0625 19.1875C13.0576 19.5111 13.1826 19.7611 13.4375 19.9375C13.4375 20.1875 13.5625 20.3125 13.8125 20.3125C13.9393 20.4592 14.1059 20.5425 14.3125 20.5625C14.3553 20.6672 14.4385 20.709 14.5625 20.6875C13.6179 21.2772 12.8054 22.0272 12.125 22.9375C11.7963 23.6649 11.9004 24.3106 12.4375 24.875C12.7291 24.9584 13.0209 24.9584 13.3125 24.875C13.5834 24.6041 13.8541 24.3334 14.125 24.0625C14.4963 22.9385 14.6838 21.8135 14.6875 20.6875C14.6875 20.5625 14.6875 20.4375 14.6875 20.3125C14.8765 19.6339 14.9599 18.9255 14.9375 18.1875C15.0576 17.9669 15.0994 17.7169 15.0625 17.4375C15.1396 17.4236 15.2021 17.382 15.25 17.3125C15.3914 16.611 15.4539 15.9026 15.4375 15.1875C15.5275 14.2242 15.6525 13.266 15.8125 12.3125C15.9935 11.4623 16.1185 10.5873 16.1875 9.68748C16.2877 9.50603 16.3503 9.29769 16.375 9.06248C16.9996 8.65024 17.6871 8.37942 18.4375 8.24998C19.0894 8.21373 19.7144 8.19289 20.3125 8.18748ZM13.4375 19.9375C13.6041 20.0209 13.7291 20.1459 13.8125 20.3125C13.5625 20.3125 13.4375 20.1875 13.4375 19.9375ZM14.5625 20.3125C14.6041 20.3125 14.6459 20.3125 14.6875 20.3125C14.6875 20.4375 14.6875 20.5625 14.6875 20.6875C14.6459 20.6875 14.6041 20.6875 14.5625 20.6875C14.4385 20.709 14.3553 20.6672 14.3125 20.5625C14.4791 20.5625 14.5625 20.4791 14.5625 20.3125Z" fill="#3B4F62"/>
<path opacity="0.01" fill-rule="evenodd" clip-rule="evenodd" d="M30.0625 8.3125C30.2291 8.39584 30.2291 8.39584 30.0625 8.3125Z" fill="black"/>
<path opacity="0.996" fill-rule="evenodd" clip-rule="evenodd" d="M14.0625 8.4375C14.786 8.70608 15.4943 8.99774 16.1875 9.3125C16.1875 9.4375 16.1875 9.5625 16.1875 9.6875C16.1185 10.5873 15.9935 11.4623 15.8125 12.3125C15.7011 12.2363 15.5761 12.1946 15.4375 12.1875C15.3488 12.0745 15.2238 12.0328 15.0625 12.0625C14.6716 11.8981 14.2966 11.9398 13.9375 12.1875C13.8135 12.1661 13.7302 12.2077 13.6875 12.3125C13.6458 12.3125 13.6041 12.3125 13.5625 12.3125C13.2817 12.0439 13.0942 11.7106 13 11.3125C12.7263 10.1116 13.0806 9.15331 14.0625 8.4375ZM15.0625 12.0625C14.8231 12.0269 14.6148 12.0686 14.4375 12.1875C14.2708 12.1875 14.1041 12.1875 13.9375 12.1875C14.2966 11.9398 14.6716 11.8981 15.0625 12.0625Z" fill="#F7695F"/>
<path opacity="0.01" fill-rule="evenodd" clip-rule="evenodd" d="M21.0625 9.0625C21.07 8.99461 21.1116 8.95295 21.1875 8.9375C21.3466 9.03206 21.3466 9.1154 21.1875 9.1875C21.1875 9.10416 21.1459 9.0625 21.0625 9.0625Z" fill="#FF2E22"/>
<path opacity="0.01" fill-rule="evenodd" clip-rule="evenodd" d="M24.4375 8.9375C24.4791 8.9375 24.5209 8.9375 24.5625 8.9375C24.6459 8.9375 24.6875 8.97916 24.6875 9.0625C24.7709 9.0625 24.8125 9.10416 24.8125 9.1875C24.5835 9.33976 24.4585 9.25642 24.4375 8.9375Z" fill="#140428"/>
<path opacity="0.01" fill-rule="evenodd" clip-rule="evenodd" d="M1.93746 9.6875C1.85412 9.6875 1.81246 9.72916 1.81246 9.8125C1.6609 9.68786 1.68173 9.56286 1.87496 9.4375C1.933 9.5118 1.95383 9.59514 1.93746 9.6875Z" fill="#FE0000"/>
<path opacity="0.999" fill-rule="evenodd" clip-rule="evenodd" d="M20.8125 8.8125C20.8541 8.9375 20.9375 9.02084 21.0625 9.0625C21.1459 9.0625 21.1875 9.10416 21.1875 9.1875C21.3094 9.4744 21.476 9.7244 21.6875 9.9375C21.6875 10.0208 21.7291 10.0625 21.8125 10.0625C22.106 10.6557 22.3976 11.239 22.6875 11.8125C22.666 11.9364 22.7078 12.0198 22.8125 12.0625C23.1558 13.1818 23.4058 14.3068 23.5625 15.4375C23.5686 17.1861 23.3186 18.8945 22.8125 20.5625C22.7078 20.6053 22.666 20.6885 22.6875 20.8125C22.3969 21.3904 22.1053 21.9736 21.8125 22.5625C21.7291 22.5625 21.6875 22.6041 21.6875 22.6875C21.2747 23.2261 20.858 23.7679 20.4375 24.3125C20.3541 24.3125 20.3125 24.3541 20.3125 24.4375C20.1459 24.5209 20.0209 24.6459 19.9375 24.8125C18.876 25.6559 17.751 26.4059 16.5625 27.0625C16.4115 27.1543 16.2449 27.1959 16.0625 27.1875C16.9358 26.3608 17.5608 25.3607 17.9375 24.1875C21.2701 21.4165 22.4159 17.8331 21.375 13.4375C21.1943 12.664 20.8817 11.9557 20.4375 11.3125C20.3837 10.4351 20.5087 9.60172 20.8125 8.8125Z" fill="#F8695F"/>
<path opacity="0.01" fill-rule="evenodd" clip-rule="evenodd" d="M25.0625 9.4375C25.1459 9.4375 25.1875 9.47916 25.1875 9.5625C25.1875 9.64584 25.1875 9.72916 25.1875 9.8125C24.9523 9.72237 24.9107 9.59738 25.0625 9.4375Z" fill="black"/>
<path opacity="0.01" fill-rule="evenodd" clip-rule="evenodd" d="M21.8125 10.0625C21.7291 10.0625 21.6875 10.0208 21.6875 9.93749C21.7184 9.62809 21.8016 9.62809 21.9375 9.93749C21.922 10.0133 21.8804 10.055 21.8125 10.0625Z" fill="#FE0000"/>
<path opacity="0.01" fill-rule="evenodd" clip-rule="evenodd" d="M31.0625 10.3125C31.0462 10.2201 31.067 10.1368 31.125 10.0625C31.2115 10.1796 31.1907 10.2629 31.0625 10.3125Z" fill="black"/>
<path opacity="0.012" fill-rule="evenodd" clip-rule="evenodd" d="M1.1875 10.4375C1.35416 10.5208 1.35416 10.5208 1.1875 10.4375Z" fill="#FE0000"/>
<path opacity="0.01" fill-rule="evenodd" clip-rule="evenodd" d="M0.687534 11.3125C0.815662 11.3621 0.836496 11.4454 0.750034 11.5625C0.691992 11.4882 0.671158 11.4049 0.687534 11.3125Z" fill="#FE0000"/>
<path opacity="0.01" fill-rule="evenodd" clip-rule="evenodd" d="M31.5625 11.6875C31.5439 11.556 31.5646 11.431 31.625 11.3125C31.7175 11.4687 31.6966 11.5937 31.5625 11.6875Z" fill="black"/>
<path opacity="0.01" fill-rule="evenodd" clip-rule="evenodd" d="M22.8124 12.0625C22.8339 11.9385 22.7922 11.8552 22.6874 11.8125C22.6542 11.5816 22.6959 11.4982 22.8124 11.5625C22.9631 11.7493 22.9631 11.916 22.8124 12.0625Z" fill="#FF2F00"/>
<path fill-rule="evenodd" clip-rule="evenodd" d="M20.4375 11.3125C20.8817 11.9557 21.1943 12.664 21.375 13.4375C22.4159 17.8331 21.2701 21.4165 17.9375 24.1875C18.2909 23.0246 18.6451 21.8579 19 20.6875C19.347 17.5239 19.8261 14.3989 20.4375 11.3125Z" fill="#E55E59"/>
<path opacity="0.01" fill-rule="evenodd" clip-rule="evenodd" d="M14.4375 12.1875C14.6149 12.0686 14.8231 12.0269 15.0625 12.0625C15.1511 12.1755 15.2761 12.2171 15.4375 12.1875C15.1274 12.2822 14.794 12.2822 14.4375 12.1875Z" fill="#FF3123"/>
<path opacity="0.01" fill-rule="evenodd" clip-rule="evenodd" d="M0.437458 12.6875C0.347261 12.7398 0.284761 12.823 0.249958 12.9375C0.184901 12.7139 0.226568 12.5055 0.374958 12.3125C0.435306 12.431 0.45614 12.556 0.437458 12.6875Z" fill="#FF2519"/>
<path opacity="0.01" fill-rule="evenodd" clip-rule="evenodd" d="M13.6875 12.3125C13.9572 12.3817 13.9363 12.5066 13.625 12.6875C13.567 12.6133 13.5462 12.5299 13.5625 12.4375C13.6459 12.4375 13.6875 12.3958 13.6875 12.3125Z" fill="#BD291E"/>
<path opacity="0.02" fill-rule="evenodd" clip-rule="evenodd" d="M31.9375 12.3125C31.9375 12.4792 31.9375 12.6459 31.9375 12.8125C31.8958 12.8125 31.8541 12.8125 31.8125 12.8125C31.779 12.6126 31.8207 12.446 31.9375 12.3125Z" fill="#120549"/>
<path opacity="0.01" fill-rule="evenodd" clip-rule="evenodd" d="M13.5625 14.8125C13.5639 14.4999 13.6472 14.479 13.8125 14.75C13.7383 14.808 13.6549 14.8289 13.5625 14.8125Z" fill="#9E0002"/>
<path opacity="0.01" fill-rule="evenodd" clip-rule="evenodd" d="M7.8125 14.9375C7.8125 14.8959 7.8125 14.8541 7.8125 14.8125C8.01912 14.8325 8.18579 14.9157 8.3125 15.0625C8.1875 15.0625 8.0625 15.0625 7.9375 15.0625C7.9375 14.9791 7.89584 14.9375 7.8125 14.9375Z" fill="#FF3F1A"/>
<path opacity="0.024" fill-rule="evenodd" clip-rule="evenodd" d="M9.6875 14.8125C9.6875 14.8541 9.6875 14.8959 9.6875 14.9375C9.60416 14.9375 9.5625 14.9791 9.5625 15.0625C9.4375 15.0625 9.3125 15.0625 9.1875 15.0625C9.31421 14.9157 9.48088 14.8325 9.6875 14.8125Z" fill="#FF573E"/>
<path opacity="0.01" fill-rule="evenodd" clip-rule="evenodd" d="M23.5625 15.4375C23.5421 15.1429 23.5629 14.8512 23.625 14.5625C23.7996 15.4315 23.8412 16.3065 23.75 17.1875C23.7282 16.5811 23.6657 15.9977 23.5625 15.4375Z" fill="#F62E15"/>
<path opacity="0.01" fill-rule="evenodd" clip-rule="evenodd" d="M26.8125 17.6875C26.6957 17.821 26.654 17.9876 26.6875 18.1875C26.6076 18.1129 26.566 18.0088 26.5625 17.875C26.625 17.5625 26.6875 17.25 26.75 16.9375C26.8119 17.1841 26.8328 17.4341 26.8125 17.6875Z" fill="#11031F"/>
<path opacity="0.01" fill-rule="evenodd" clip-rule="evenodd" d="M7.5625 17.8125C7.64584 17.8125 7.72916 17.8125 7.8125 17.8125C7.77084 17.9375 7.6875 18.0209 7.5625 18.0625C7.5625 17.9791 7.5625 17.8959 7.5625 17.8125Z" fill="#FE0000"/>
<path opacity="0.01" fill-rule="evenodd" clip-rule="evenodd" d="M13.6875 17.6875C13.7799 17.6712 13.8633 17.692 13.9375 17.75C13.7917 17.8959 13.6459 18.0417 13.5 18.1875C13.442 18.1133 13.4212 18.0299 13.4375 17.9375C13.5209 17.9375 13.5625 17.8959 13.5625 17.8125C13.6459 17.8125 13.6875 17.7709 13.6875 17.6875Z" fill="#FF4123"/>
<path opacity="0.01" fill-rule="evenodd" clip-rule="evenodd" d="M14.9375 18.1875C14.8186 18.0101 14.777 17.8019 14.8125 17.5625C14.3535 17.4944 14.3953 17.4528 14.9375 17.4375C14.9375 17.6875 14.9375 17.9375 14.9375 18.1875Z" fill="#4D291D"/>
<path opacity="0.024" fill-rule="evenodd" clip-rule="evenodd" d="M-0.0625 18.4375C-0.0208334 18.4375 0.0208334 18.4375 0.0625 18.4375C0.0625 18.6041 0.0625 18.7709 0.0625 18.9375C0.0208334 18.9375 -0.0208334 18.9375 -0.0625 18.9375C-0.0625 18.7709 -0.0625 18.6041 -0.0625 18.4375Z" fill="#FF7942"/>
<path opacity="0.01" fill-rule="evenodd" clip-rule="evenodd" d="M31.8125 18.3125C31.8541 18.3125 31.8959 18.3125 31.9375 18.3125C31.9375 18.5209 31.9375 18.7291 31.9375 18.9375C31.8959 18.9375 31.8541 18.9375 31.8125 18.9375C31.8125 18.7291 31.8125 18.5209 31.8125 18.3125Z" fill="#10031C"/>
<path opacity="0.01" fill-rule="evenodd" clip-rule="evenodd" d="M0.0625 18.9375C0.104167 18.9375 0.145834 18.9375 0.1875 18.9375C0.145834 19.6041 0.104167 19.6041 0.0625 18.9375Z" fill="#E40001"/>
<path opacity="0.01" fill-rule="evenodd" clip-rule="evenodd" d="M31.6875 18.9375C31.7291 18.9375 31.7709 18.9375 31.8125 18.9375C31.7709 19.4375 31.7291 19.4375 31.6875 18.9375Z" fill="black"/>
<path opacity="0.01" fill-rule="evenodd" clip-rule="evenodd" d="M10.1875 18.5625C10.2292 18.5625 10.2708 18.5625 10.3125 18.5625C10.3125 18.8541 10.3125 19.1459 10.3125 19.4375C10.2077 19.4803 10.1661 19.5635 10.1875 19.6875C10.1458 19.6875 10.1042 19.6875 10.0625 19.6875C10.1448 19.3181 10.1865 18.9431 10.1875 18.5625Z" fill="#FF5124"/>
<path opacity="0.01" fill-rule="evenodd" clip-rule="evenodd" d="M31.5625 19.5625C31.7291 19.6875 31.7291 19.8125 31.5625 19.9375C31.5625 19.8125 31.5625 19.6875 31.5625 19.5625Z" fill="black"/>
<path opacity="0.01" fill-rule="evenodd" clip-rule="evenodd" d="M0.43744 19.9375C0.43744 20.0625 0.43744 20.1875 0.43744 20.3125C0.237612 20.1501 0.175112 19.9419 0.24994 19.6875C0.284743 19.802 0.347243 19.8852 0.43744 19.9375Z" fill="#FF2116"/>
<path opacity="0.01" fill-rule="evenodd" clip-rule="evenodd" d="M26.1875 19.9375C26.0828 19.9803 26.041 20.0635 26.0625 20.1875C25.9224 19.9889 25.9433 19.7805 26.125 19.5625C26.1854 19.681 26.2062 19.806 26.1875 19.9375Z" fill="#0C0016"/>
<path opacity="0.02" fill-rule="evenodd" clip-rule="evenodd" d="M31.4375 19.9375C31.4791 19.9375 31.5209 19.9375 31.5625 19.9375C31.5921 20.0989 31.5505 20.2239 31.4375 20.3125C31.4375 20.1875 31.4375 20.0625 31.4375 19.9375Z" fill="#130334"/>
<path opacity="0.012" fill-rule="evenodd" clip-rule="evenodd" d="M0.437473 20.3125C0.479139 20.3125 0.520807 20.3125 0.562473 20.3125C0.562473 20.3959 0.562473 20.4791 0.562473 20.5625C0.457692 20.5197 0.416026 20.4365 0.437473 20.3125Z" fill="#FF4433"/>
<path opacity="0.02" fill-rule="evenodd" clip-rule="evenodd" d="M14.5625 20.3125C14.5625 20.4791 14.4791 20.5625 14.3125 20.5625C14.3541 20.4375 14.4375 20.3541 14.5625 20.3125Z" fill="#340E33"/>
<path opacity="0.012" fill-rule="evenodd" clip-rule="evenodd" d="M31.3125 20.3125C31.3541 20.3125 31.3959 20.3125 31.4375 20.3125C31.3959 20.6459 31.3541 20.6459 31.3125 20.3125Z" fill="#15062C"/>
<path opacity="0.01" fill-rule="evenodd" clip-rule="evenodd" d="M22.8125 20.5625C22.9747 20.7311 22.9538 20.8978 22.75 21.0625C22.692 20.9883 22.6712 20.9049 22.6875 20.8125C22.7923 20.7697 22.834 20.6865 22.8125 20.5625Z" fill="#FF2E1E"/>
<path opacity="0.01" fill-rule="evenodd" clip-rule="evenodd" d="M25.8125 20.8125C25.7291 20.8125 25.6875 20.8541 25.6875 20.9375C25.5359 20.8129 25.5567 20.6879 25.75 20.5625C25.808 20.6367 25.8289 20.7201 25.8125 20.8125Z" fill="#0E0119"/>
<path opacity="0.01" fill-rule="evenodd" clip-rule="evenodd" d="M0.5625 20.5625C0.604166 20.5625 0.645834 20.5625 0.6875 20.5625C0.645834 20.8959 0.604166 20.8959 0.5625 20.5625Z" fill="#A80003"/>
<path opacity="0.01" fill-rule="evenodd" clip-rule="evenodd" d="M31.1875 20.6875C31.3157 20.7371 31.3365 20.8204 31.25 20.9375C31.192 20.8633 31.1712 20.7799 31.1875 20.6875Z" fill="black"/>
<path fill-rule="evenodd" clip-rule="evenodd" d="M14.5625 20.6875C14.6041 20.6875 14.6458 20.6875 14.6875 20.6875C14.6837 21.8135 14.4962 22.9385 14.125 24.0625C13.8541 24.3334 13.5833 24.6041 13.3125 24.875C13.0208 24.9584 12.7291 24.9584 12.4375 24.875C11.9004 24.3106 11.7962 23.6649 12.125 22.9375C12.8053 22.0272 13.6178 21.2772 14.5625 20.6875Z" fill="#F3685F"/>
<path opacity="0.01" fill-rule="evenodd" clip-rule="evenodd" d="M0.9375 21.1874C0.906662 21.4968 0.82333 21.4968 0.6875 21.1874C0.746229 21.0671 0.829563 21.0671 0.9375 21.1874Z" fill="#FF34FF"/>
<path opacity="0.01" fill-rule="evenodd" clip-rule="evenodd" d="M31.0625 21.0625C31.2291 21.1459 31.2291 21.2291 31.0625 21.3125C31.0625 21.2291 31.0625 21.1459 31.0625 21.0625Z" fill="black"/>
<path opacity="0.01" fill-rule="evenodd" clip-rule="evenodd" d="M25.3125 21.6875C25.2291 21.6875 25.1875 21.7291 25.1875 21.8125C25.0359 21.6879 25.0567 21.5629 25.25 21.4375C25.308 21.5117 25.3289 21.5951 25.3125 21.6875Z" fill="#11031D"/>
<path opacity="0.01" fill-rule="evenodd" clip-rule="evenodd" d="M30.9375 21.3125C30.9791 21.3125 31.0209 21.3125 31.0625 21.3125C31.084 21.4365 31.0422 21.5197 30.9375 21.5625C30.9375 21.4791 30.9375 21.3959 30.9375 21.3125Z" fill="#15062C"/>
<path opacity="0.01" fill-rule="evenodd" clip-rule="evenodd" d="M1.18751 21.6875C1.20388 21.7799 1.18305 21.8633 1.12501 21.9375C1.03855 21.8204 1.05938 21.7371 1.18751 21.6875Z" fill="#FE0000"/>
<path opacity="0.01" fill-rule="evenodd" clip-rule="evenodd" d="M30.8125 21.5625C30.8541 21.5625 30.8959 21.5625 30.9375 21.5625C30.959 21.6865 30.9172 21.7697 30.8125 21.8125C30.8125 21.7291 30.8125 21.6459 30.8125 21.5625Z" fill="#130125"/>
<path opacity="0.01" fill-rule="evenodd" clip-rule="evenodd" d="M30.6875 21.8125C30.7291 21.8125 30.7709 21.8125 30.8125 21.8125C30.7709 22.1459 30.7291 22.1459 30.6875 21.8125Z" fill="black"/>
<path opacity="0.01" fill-rule="evenodd" clip-rule="evenodd" d="M1.3125 22.1875C1.22917 22.0208 1.22917 22.0208 1.3125 22.1875Z" fill="#FE0000"/>
<path opacity="0.01" fill-rule="evenodd" clip-rule="evenodd" d="M30.5625 22.1875C30.7291 22.2709 30.7291 22.2709 30.5625 22.1875Z" fill="black"/>
<path opacity="0.01" fill-rule="evenodd" clip-rule="evenodd" d="M1.3125 22.1875C1.35416 22.1875 1.39584 22.1875 1.4375 22.1875C1.39584 22.5209 1.35416 22.5209 1.3125 22.1875Z" fill="#FF4433"/>
<path opacity="0.012" fill-rule="evenodd" clip-rule="evenodd" d="M30.4375 22.3125C30.4791 22.3125 30.5209 22.3125 30.5625 22.3125C30.584 22.4365 30.5422 22.5197 30.4375 22.5625C30.4375 22.4791 30.4375 22.3959 30.4375 22.3125Z" fill="black"/>
<path opacity="0.01" fill-rule="evenodd" clip-rule="evenodd" d="M24.5625 22.6875C24.4791 22.6875 24.4375 22.7291 24.4375 22.8125C24.2859 22.6879 24.3067 22.5629 24.5 22.4375C24.558 22.5117 24.5789 22.5951 24.5625 22.6875Z" fill="black"/>
<path opacity="0.01" fill-rule="evenodd" clip-rule="evenodd" d="M21.8125 22.5625C21.9642 22.6871 21.9433 22.8121 21.75 22.9375C21.692 22.8633 21.6712 22.7799 21.6875 22.6875C21.7709 22.6875 21.8125 22.6459 21.8125 22.5625Z" fill="#FE0000"/>
<path opacity="0.012" fill-rule="evenodd" clip-rule="evenodd" d="M30.3125 22.5625C30.3541 22.5625 30.3959 22.5625 30.4375 22.5625C30.4144 22.6463 30.3726 22.6463 30.3125 22.5625Z" fill="black"/>
<path opacity="0.01" fill-rule="evenodd" clip-rule="evenodd" d="M30.1875 22.6875C30.2291 22.6875 30.2709 22.6875 30.3125 22.6875C30.334 22.8115 30.2922 22.8947 30.1875 22.9375C30.1875 22.8541 30.1875 22.7709 30.1875 22.6875Z" fill="black"/>
<path opacity="0.01" fill-rule="evenodd" clip-rule="evenodd" d="M1.8125 22.8125C1.89584 22.8125 1.9375 22.8541 1.9375 22.9375C1.90666 23.2469 1.82332 23.2469 1.6875 22.9375C1.70295 22.8616 1.74461 22.82 1.8125 22.8125Z" fill="#FE0000"/>
<path opacity="0.01" fill-rule="evenodd" clip-rule="evenodd" d="M24.1875 23.0625C24.1041 23.0625 24.0625 23.1041 24.0625 23.1875C23.7531 23.1566 23.7531 23.0734 24.0625 22.9375C24.1384 22.953 24.18 22.9946 24.1875 23.0625Z" fill="black"/>
<path opacity="0.01" fill-rule="evenodd" clip-rule="evenodd" d="M30.0625 22.9375C30.1041 22.9375 30.1459 22.9375 30.1875 22.9375C30.209 23.0615 30.1672 23.1447 30.0625 23.1875C30.0625 23.1041 30.0625 23.0209 30.0625 22.9375Z" fill="black"/>
<path opacity="0.012" fill-rule="evenodd" clip-rule="evenodd" d="M29.9375 23.1875C29.9791 23.1875 30.0209 23.1875 30.0625 23.1875C30.0394 23.2713 29.9976 23.2713 29.9375 23.1875Z" fill="black"/>
<path opacity="0.01" fill-rule="evenodd" clip-rule="evenodd" d="M2.1875 23.3125C2.10417 23.3959 2.10417 23.3959 2.1875 23.3125Z" fill="#FE0000"/>
<path opacity="0.016" fill-rule="evenodd" clip-rule="evenodd" d="M29.8125 23.3125C29.8541 23.3125 29.8959 23.3125 29.9375 23.3125C29.9144 23.3963 29.8726 23.3963 29.8125 23.3125Z" fill="black"/>
<path opacity="0.01" fill-rule="evenodd" clip-rule="evenodd" d="M29.6875 23.4375C29.7291 23.4375 29.7709 23.4375 29.8125 23.4375C29.834 23.5615 29.7922 23.6447 29.6875 23.6875C29.6875 23.6041 29.6875 23.5209 29.6875 23.4375Z" fill="black"/>
<path opacity="0.01" fill-rule="evenodd" clip-rule="evenodd" d="M2.1875 23.5625C2.35416 23.6459 2.35416 23.6459 2.1875 23.5625Z" fill="#FE0000"/>
<path opacity="0.012" fill-rule="evenodd" clip-rule="evenodd" d="M29.5625 23.6875C29.6041 23.6875 29.6459 23.6875 29.6875 23.6875C29.6644 23.7713 29.6226 23.7713 29.5625 23.6875Z" fill="black"/>
<path opacity="0.02" fill-rule="evenodd" clip-rule="evenodd" d="M29.4375 23.8125C29.4791 23.8125 29.5209 23.8125 29.5625 23.8125C29.5394 23.8963 29.4976 23.8963 29.4375 23.8125Z" fill="#000066"/>
<path opacity="0.01" fill-rule="evenodd" clip-rule="evenodd" d="M22.6875 24.0626C22.5635 24.0411 22.4802 24.0828 22.4375 24.1876C22.2066 24.2208 22.1232 24.1791 22.1875 24.0626C22.3744 23.9119 22.541 23.9119 22.6875 24.0626Z" fill="#0F021A"/>
<path opacity="0.016" fill-rule="evenodd" clip-rule="evenodd" d="M29.3125 23.9375C29.3541 23.9375 29.3959 23.9375 29.4375 23.9375C29.4144 24.0213 29.3726 24.0213 29.3125 23.9375Z" fill="black"/>
<path opacity="0.01" fill-rule="evenodd" clip-rule="evenodd" d="M29.1875 24.0625C29.2291 24.0625 29.2709 24.0625 29.3125 24.0625C29.334 24.1865 29.2922 24.2697 29.1875 24.3125C29.1875 24.2291 29.1875 24.1459 29.1875 24.0625Z" fill="black"/>
<path opacity="0.01" fill-rule="evenodd" clip-rule="evenodd" d="M2.8125 24.0625C2.89584 24.0625 2.9375 24.1041 2.9375 24.1875C2.90666 24.4969 2.82332 24.4969 2.6875 24.1875C2.70295 24.1116 2.74461 24.07 2.8125 24.0625Z" fill="#FF3322"/>
<path opacity="0.012" fill-rule="evenodd" clip-rule="evenodd" d="M29.0625 24.3125C29.1041 24.3125 29.1459 24.3125 29.1875 24.3125C29.1644 24.3963 29.1226 24.3963 29.0625 24.3125Z" fill="black"/>
<path opacity="0.01" fill-rule="evenodd" clip-rule="evenodd" d="M20.4375 24.3125C20.5958 24.3862 20.7624 24.4488 20.9375 24.5C20.7016 24.5975 20.4932 24.5766 20.3125 24.4375C20.3959 24.4375 20.4375 24.3959 20.4375 24.3125Z" fill="#461F19"/>
<path opacity="0.016" fill-rule="evenodd" clip-rule="evenodd" d="M28.9375 24.4375C28.9791 24.4375 29.0209 24.4375 29.0625 24.4375C29.0394 24.5213 28.9976 24.5213 28.9375 24.4375Z" fill="#000080"/>
<path opacity="0.01" fill-rule="evenodd" clip-rule="evenodd" d="M3.3125 24.5625C3.39584 24.5625 3.4375 24.6042 3.4375 24.6875C3.36834 24.9572 3.24334 24.9363 3.0625 24.625C3.1368 24.567 3.22014 24.5462 3.3125 24.5625Z" fill="#FE0000"/>
<path opacity="0.016" fill-rule="evenodd" clip-rule="evenodd" d="M28.8125 24.5625C28.8541 24.5625 28.8959 24.5625 28.9375 24.5625C28.9144 24.6463 28.8726 24.6463 28.8125 24.5625Z" fill="#000080"/>
<path opacity="0.012" fill-rule="evenodd" clip-rule="evenodd" d="M28.6875 24.6875C28.7291 24.6875 28.7709 24.6875 28.8125 24.6875C28.7894 24.7713 28.7476 24.7713 28.6875 24.6875Z" fill="black"/>
<path opacity="0.016" fill-rule="evenodd" clip-rule="evenodd" d="M28.5625 24.8125C28.6041 24.8125 28.6459 24.8125 28.6875 24.8125C28.6644 24.8963 28.6226 24.8963 28.5625 24.8125Z" fill="black"/>
<path opacity="0.016" fill-rule="evenodd" clip-rule="evenodd" d="M28.4375 24.9375C28.4791 24.9375 28.5209 24.9375 28.5625 24.9375C28.5394 25.0213 28.4976 25.0213 28.4375 24.9375Z" fill="#000080"/>
<path opacity="0.01" fill-rule="evenodd" clip-rule="evenodd" d="M3.8125 25.0625C3.89584 25.0625 3.9375 25.1042 3.9375 25.1875C3.81286 25.3392 3.68786 25.3183 3.5625 25.125C3.6368 25.067 3.72014 25.0462 3.8125 25.0625Z" fill="#E40001"/>
<path opacity="0.016" fill-rule="evenodd" clip-rule="evenodd" d="M28.3125 25.0625C28.3541 25.0625 28.3959 25.0625 28.4375 25.0625C28.4144 25.1463 28.3726 25.1463 28.3125 25.0625Z" fill="#000080"/>
<path opacity="0.012" fill-rule="evenodd" clip-rule="evenodd" d="M28.1875 25.1875C28.2291 25.1875 28.2709 25.1875 28.3125 25.1875C28.2894 25.2713 28.2476 25.2713 28.1875 25.1875Z" fill="black"/>
<path opacity="0.012" fill-rule="evenodd" clip-rule="evenodd" d="M28.0625 25.3125C28.1041 25.3125 28.1459 25.3125 28.1875 25.3125C28.1644 25.3963 28.1226 25.3963 28.0625 25.3125Z" fill="black"/>
<path opacity="0.012" fill-rule="evenodd" clip-rule="evenodd" d="M27.9375 25.4375C27.9791 25.4375 28.0209 25.4375 28.0625 25.4375C28.0394 25.5213 27.9976 25.5213 27.9375 25.4375Z" fill="black"/>
<path opacity="0.012" fill-rule="evenodd" clip-rule="evenodd" d="M4.31246 25.5625C4.31246 25.6041 4.31246 25.6459 4.31246 25.6875C4.22869 25.6274 4.22869 25.5856 4.31246 25.5625Z" fill="#FEAA00"/>
<path opacity="0.01" fill-rule="evenodd" clip-rule="evenodd" d="M27.6875 25.5625C27.7709 25.5625 27.8541 25.5625 27.9375 25.5625C27.8784 25.7383 27.7534 25.8216 27.5625 25.8125C27.5625 25.7709 27.5625 25.7291 27.5625 25.6875C27.6459 25.6875 27.6875 25.6459 27.6875 25.5625Z" fill="black"/>
<path opacity="0.01" fill-rule="evenodd" clip-rule="evenodd" d="M4.3125 25.6875C4.47916 25.7709 4.47916 25.7709 4.3125 25.6875Z" fill="#FE0000"/>
<path opacity="0.012" fill-rule="evenodd" clip-rule="evenodd" d="M27.4375 25.8125C27.4791 25.8125 27.5209 25.8125 27.5625 25.8125C27.5394 25.8963 27.4976 25.8963 27.4375 25.8125Z" fill="black"/>
<path opacity="0.012" fill-rule="evenodd" clip-rule="evenodd" d="M27.3125 25.9375C27.3541 25.9375 27.3959 25.9375 27.4375 25.9375C27.4144 26.0213 27.3726 26.0213 27.3125 25.9375Z" fill="black"/>
<path opacity="0.01" fill-rule="evenodd" clip-rule="evenodd" d="M27.0625 26.0625C27.1459 26.0625 27.2291 26.0625 27.3125 26.0625C27.2534 26.2383 27.1284 26.3216 26.9375 26.3125C26.9375 26.2709 26.9375 26.2291 26.9375 26.1875C27.0209 26.1875 27.0625 26.1459 27.0625 26.0625Z" fill="black"/>
<path opacity="0.01" fill-rule="evenodd" clip-rule="evenodd" d="M26.6875 26.4375C26.6875 26.3959 26.6875 26.3541 26.6875 26.3125C26.7709 26.3125 26.8541 26.3125 26.9375 26.3125C26.8947 26.4172 26.8115 26.459 26.6875 26.4375Z" fill="black"/>
<path opacity="0.02" fill-rule="evenodd" clip-rule="evenodd" d="M26.5625 26.4375C26.6041 26.4375 26.6459 26.4375 26.6875 26.4375C26.6644 26.5213 26.6226 26.5213 26.5625 26.4375Z" fill="#000066"/>
<path opacity="0.01" fill-rule="evenodd" clip-rule="evenodd" d="M5.8125 26.5625C5.92097 26.8615 5.83765 26.8824 5.5625 26.625C5.6368 26.567 5.72014 26.5462 5.8125 26.5625Z" fill="#C71607"/>
<path opacity="0.01" fill-rule="evenodd" clip-rule="evenodd" d="M26.3125 26.5625C26.3959 26.5625 26.4791 26.5625 26.5625 26.5625C26.4724 26.7977 26.3474 26.8394 26.1875 26.6875C26.2709 26.6875 26.3125 26.6459 26.3125 26.5625Z" fill="black"/>
<path opacity="0.01" fill-rule="evenodd" clip-rule="evenodd" d="M25.9375 26.8125C26.1041 26.8959 26.1041 26.8959 25.9375 26.8125Z" fill="black"/>
<path opacity="0.01" fill-rule="evenodd" clip-rule="evenodd" d="M6.56256 26.9375C6.64589 26.9375 6.68756 26.9791 6.68756 27.0625C6.68756 27.1041 6.68756 27.1459 6.68756 27.1875C6.31761 27.121 6.27594 27.0376 6.56256 26.9375Z" fill="#FF451E"/>
<path opacity="0.01" fill-rule="evenodd" clip-rule="evenodd" d="M25.6875 27.0625C25.6875 27.0209 25.6875 26.9791 25.6875 26.9375C25.7709 26.9375 25.8541 26.9375 25.9375 26.9375C25.8947 27.0422 25.8115 27.084 25.6875 27.0625Z" fill="#15062C"/>
<path opacity="0.014" fill-rule="evenodd" clip-rule="evenodd" d="M25.4375 27.1875C25.4375 27.1459 25.4375 27.1041 25.4375 27.0625C25.5209 27.0625 25.6041 27.0625 25.6875 27.0625C25.6447 27.1672 25.5615 27.209 25.4375 27.1875Z" fill="black"/>
<path opacity="0.01" fill-rule="evenodd" clip-rule="evenodd" d="M6.6875 27.1875C6.77986 27.1712 6.8632 27.192 6.9375 27.25C6.8204 27.3365 6.73708 27.3157 6.6875 27.1875Z" fill="#FE0000"/>
<path opacity="0.01" fill-rule="evenodd" clip-rule="evenodd" d="M25.1875 27.1875C25.2709 27.1875 25.3541 27.1875 25.4375 27.1875C25.3541 27.3541 25.2709 27.3541 25.1875 27.1875Z" fill="black"/>
<path opacity="0.01" fill-rule="evenodd" clip-rule="evenodd" d="M16.0625 27.4375C16.0625 27.3959 16.0625 27.3541 16.0625 27.3125C16.3959 27.3541 16.3959 27.3959 16.0625 27.4375Z" fill="#560D01"/>
<path opacity="0.01" fill-rule="evenodd" clip-rule="evenodd" d="M24.8125 27.4375C24.8125 27.3959 24.8125 27.3541 24.8125 27.3125C25.1459 27.3541 25.1459 27.3959 24.8125 27.4375Z" fill="black"/>
<path opacity="0.016" fill-rule="evenodd" clip-rule="evenodd" d="M15.8125 27.5625C15.8125 27.5209 15.8125 27.4791 15.8125 27.4375C15.8959 27.4375 15.9791 27.4375 16.0625 27.4375C16.0197 27.5422 15.9365 27.584 15.8125 27.5625Z" fill="#91F22D"/>
<path opacity="0.01" fill-rule="evenodd" clip-rule="evenodd" d="M24.5625 27.5625C24.5625 27.5209 24.5625 27.4791 24.5625 27.4375C24.6459 27.4375 24.7291 27.4375 24.8125 27.4375C24.7697 27.5422 24.6865 27.584 24.5625 27.5625Z" fill="#130125"/>
<path opacity="0.016" fill-rule="evenodd" clip-rule="evenodd" d="M15.5625 27.6875C15.5625 27.6459 15.5625 27.6041 15.5625 27.5625C15.6459 27.5625 15.7291 27.5625 15.8125 27.5625C15.7697 27.6672 15.6865 27.709 15.5625 27.6875Z" fill="#68F827"/>
<path opacity="0.02" fill-rule="evenodd" clip-rule="evenodd" d="M17.3125 27.5625C17.3125 27.6041 17.3125 27.6459 17.3125 27.6875C16.9792 27.6459 16.9792 27.6041 17.3125 27.5625Z" fill="#110444"/>
<path opacity="0.012" fill-rule="evenodd" clip-rule="evenodd" d="M24.1875 27.6875C24.1875 27.6459 24.1875 27.6041 24.1875 27.5625C24.3125 27.5625 24.4375 27.5625 24.5625 27.5625C24.4739 27.6755 24.3489 27.7171 24.1875 27.6875Z" fill="black"/>
<path opacity="0.01" fill-rule="evenodd" clip-rule="evenodd" d="M8.3125 27.6875C8.21868 27.8216 8.09368 27.8425 7.9375 27.75C8.056 27.6896 8.181 27.6689 8.3125 27.6875Z" fill="#FE0000"/>
<path opacity="0.01" fill-rule="evenodd" clip-rule="evenodd" d="M15.3125 27.6875C15.3959 27.6875 15.4791 27.6875 15.5625 27.6875C15.4791 27.8541 15.3959 27.8541 15.3125 27.6875Z" fill="black"/>
<path opacity="0.01" fill-rule="evenodd" clip-rule="evenodd" d="M17.3125 27.6875C17.444 27.6689 17.569 27.6896 17.6875 27.75C17.5314 27.8425 17.4064 27.8216 17.3125 27.6875Z" fill="black"/>
<path opacity="0.01" fill-rule="evenodd" clip-rule="evenodd" d="M23.8125 27.6875C23.9375 27.6875 24.0625 27.6875 24.1875 27.6875C24.0625 27.8541 23.9375 27.8541 23.8125 27.6875Z" fill="black"/>
<path opacity="0.01" fill-rule="evenodd" clip-rule="evenodd" d="M14.6875 27.9375C14.6875 27.8959 14.6875 27.8541 14.6875 27.8125C15.1875 27.8541 15.1875 27.8959 14.6875 27.9375Z" fill="black"/>
<path opacity="0.01" fill-rule="evenodd" clip-rule="evenodd" d="M23.1875 27.9375C23.1875 27.8959 23.1875 27.8541 23.1875 27.8125C23.6875 27.8541 23.6875 27.8959 23.1875 27.9375Z" fill="black"/>
<path opacity="0.01" fill-rule="evenodd" clip-rule="evenodd" d="M9.4375 27.9376C9.61484 28.0564 9.82316 28.0981 10.0625 28.0626C10.0625 28.1042 10.0625 28.1459 10.0625 28.1876C9.67408 28.2062 9.29908 28.1437 8.9375 28.0001C9.09915 27.9388 9.26583 27.9179 9.4375 27.9376Z" fill="#FF4224"/>
<path opacity="0.024" fill-rule="evenodd" clip-rule="evenodd" d="M14.0625 28.0625C14.0625 28.0209 14.0625 27.9791 14.0625 27.9375C14.2709 27.9375 14.4791 27.9375 14.6875 27.9375C14.5101 28.0564 14.3019 28.098 14.0625 28.0625Z" fill="#673552"/>
<path opacity="0.01" fill-rule="evenodd" clip-rule="evenodd" d="M22.5625 27.9375C22.7709 27.9375 22.9791 27.9375 23.1875 27.9375C22.7644 28.1556 22.306 28.2181 21.8125 28.125C22.0885 28.1011 22.3385 28.0386 22.5625 27.9375Z" fill="#140425"/>
<path opacity="0.01" fill-rule="evenodd" clip-rule="evenodd" d="M13.4375 28.1875C13.4375 28.1459 13.4375 28.1041 13.4375 28.0625C13.6459 28.0625 13.8541 28.0625 14.0625 28.0625C13.8851 28.1814 13.6769 28.223 13.4375 28.1875Z" fill="#D73A28"/>
<path opacity="0.01" fill-rule="evenodd" clip-rule="evenodd" d="M10.0625 28.1875C10.4398 28.1669 10.8148 28.1877 11.1875 28.25C10.7879 28.3506 10.4129 28.3297 10.0625 28.1875Z" fill="#FE0000"/>
<path opacity="0.01" fill-rule="evenodd" clip-rule="evenodd" d="M13.4375 28.1875C13.087 28.3297 12.712 28.3506 12.3125 28.25C12.6853 28.1877 13.0603 28.1669 13.4375 28.1875Z" fill="#FE0000"/>
</g>
<defs>
<clipPath id="clip0_1_940">
<rect width="32" height="32" fill="white"/>
</clipPath>
</defs>
</svg>
