<svg width="32" height="32" viewBox="0 0 32 32" fill="none" xmlns="http://www.w3.org/2000/svg">
<g clip-path="url(#clip0_1_1240)">
<path fill-rule="evenodd" clip-rule="evenodd" d="M-0.181763 -0.181763C10.4849 -0.181763 21.1516 -0.181763 31.8182 -0.181763C31.8182 10.4849 31.8182 21.1516 31.8182 31.8182C21.1516 31.8182 10.4849 31.8182 -0.181763 31.8182C-0.181763 21.1516 -0.181763 10.4849 -0.181763 -0.181763Z" fill="#305AA4"/>
<path fill-rule="evenodd" clip-rule="evenodd" d="M17.9999 13.2727C17.9203 12.8455 18.0415 12.4818 18.3636 12.1818C18.7272 12.6667 19.0909 12.6667 19.4545 12.1818C19.8257 12.6914 20.1893 13.1763 20.5454 13.6364C20.044 11.561 18.7107 10.3489 16.5454 10C15.4545 10 14.3636 10 13.2727 10C13.2727 13.7576 13.2727 17.5152 13.2727 21.2727C12.4242 21.2727 11.5757 21.2727 10.7272 21.2727C10.7272 16.5455 10.7272 11.8182 10.7272 7.09093C19.7532 5.63675 23.935 9.39435 23.2727 18.3637C22.3319 22.0954 19.9683 24.0954 16.1818 24.3637C16.608 24.2114 16.9716 23.969 17.2727 23.6364C16.428 23.7475 15.5795 23.9899 14.7272 24.3637C12.5487 24.5453 10.3669 24.6059 8.18176 24.5455C8.18176 18.7273 8.18176 12.9091 8.18176 7.09093C8.90904 7.09093 9.63631 7.09093 10.3636 7.09093C10.3636 11.9394 10.3636 16.7879 10.3636 21.6364C16.5852 22.2027 19.1306 19.4149 17.9999 13.2727Z" fill="#F5F7F8"/>
<path fill-rule="evenodd" clip-rule="evenodd" d="M16.5455 10C18.7108 10.3489 20.0441 11.561 20.5455 13.6364C20.1894 13.1763 19.8258 12.6914 19.4546 12.1818C19.091 12.6667 18.7273 12.6667 18.3637 12.1818C18.0416 12.4818 17.9204 12.8455 18.0001 13.2727C17.5343 12.2328 16.807 11.3843 15.8182 10.7273C16.0883 10.4793 16.3307 10.2369 16.5455 10Z" fill="#BEBFDC"/>
<path fill-rule="evenodd" clip-rule="evenodd" d="M20.5455 13.6364C21.0808 14.2245 21.3233 14.9518 21.2727 15.8182C21.1775 17.2044 20.8744 18.5377 20.3636 19.8182C20.4911 17.7794 20.5517 15.7188 20.5455 13.6364Z" fill="#8B90BF"/>
</g>
<defs>
<clipPath id="clip0_1_1240">
<rect width="32" height="32" fill="white"/>
</clipPath>
</defs>
</svg>
