<svg width="32" height="32" viewBox="0 0 32 32" fill="none" xmlns="http://www.w3.org/2000/svg">
    <g clip-path="url(#clip0_963_476)">
        <path opacity="0.999" fill-rule="evenodd" clip-rule="evenodd"
            d="M5.34375 -0.03125C12.4271 -0.03125 19.5104 -0.03125 26.5938 -0.03125C29.5729 0.572917 31.3646 2.36458 31.9688 5.34375C31.9688 12.4271 31.9688 19.5104 31.9688 26.5938C31.3646 29.5729 29.5729 31.3646 26.5938 31.9688C19.5104 31.9688 12.4271 31.9688 5.34375 31.9688C2.36458 31.3646 0.572917 29.5729 -0.03125 26.5938C-0.03125 19.5104 -0.03125 12.4271 -0.03125 5.34375C0.572917 2.36458 2.36458 0.572917 5.34375 -0.03125Z"
            fill="#3354FF" />
        <path fill-rule="evenodd" clip-rule="evenodd"
            d="M12.0315 13.2813C13.1456 13.3436 14.2706 13.3644 15.4065 13.3438C15.4065 13.4063 15.4065 13.4688 15.4065 13.5313C15.2922 14.1757 15.188 14.8215 15.094 15.4688C13.8198 15.4405 12.5489 15.4718 11.2815 15.5625C10.5363 15.8611 10.3488 16.3611 10.719 17.0625C10.8575 17.1422 11.0034 17.2047 11.1565 17.25C12.5782 17.3162 13.9949 17.2641 15.4065 17.0938C15.3158 17.8045 15.2116 18.5128 15.094 19.2188C13.9531 19.3597 12.8073 19.443 11.6565 19.4688C10.884 19.493 10.134 19.3784 9.40649 19.125C8.01855 18.3993 7.63311 17.3055 8.25024 15.8438C8.60086 15.1835 9.11124 14.6835 9.78149 14.3438C8.85199 13.4681 8.71655 12.4681 9.37524 11.3438C10.0849 10.4001 11.0328 9.86883 12.219 9.75002C12.9482 9.70833 13.6773 9.70833 14.4065 9.75002C15.0722 9.8182 15.7389 9.87033 16.4065 9.90627C16.3227 10.6385 16.2185 11.3676 16.094 12.0938C14.7439 11.8753 13.3898 11.8231 12.0315 11.9375C11.4212 12.1768 11.2754 12.5726 11.594 13.125C11.7284 13.2132 11.8742 13.2653 12.0315 13.2813Z"
            fill="#FDFDFF" />
        <path fill-rule="evenodd" clip-rule="evenodd"
            d="M21.5312 12.8438C20.0266 12.8236 18.5266 12.8444 17.0312 12.9062C17.7592 12.823 18.5092 12.7813 19.2812 12.7812C20.0419 12.7812 20.7919 12.8021 21.5312 12.8438Z"
            fill="#C6CEFF" />
        <path fill-rule="evenodd" clip-rule="evenodd"
            d="M21.5312 12.8439C22.2673 12.8839 22.9027 13.1548 23.4375 13.6564C23.8224 14.1547 23.9474 14.7172 23.8125 15.3439C23.6239 16.0967 23.2176 16.7008 22.5938 17.1564C23.6219 17.5874 24.0697 18.3582 23.9375 19.4689C23.7651 20.4321 23.2547 21.1509 22.4062 21.6251C21.9664 21.8412 21.508 22.0079 21.0312 22.1251C19.1788 22.2142 17.3246 22.2454 15.4688 22.2189C15.9558 19.1088 16.4767 16.0046 17.0312 12.9064C18.5266 12.8445 20.0266 12.8237 21.5312 12.8439Z"
            fill="#FDFDFF" />
        <path fill-rule="evenodd" clip-rule="evenodd"
            d="M12.0312 13.2812C13.1771 13.2812 14.3229 13.2812 15.4688 13.2812C15.4855 13.3812 15.4646 13.4645 15.4062 13.5312C15.4062 13.4688 15.4062 13.4062 15.4062 13.3438C14.2704 13.3644 13.1454 13.3436 12.0312 13.2812Z"
            fill="#6B82FF" />
        <path fill-rule="evenodd" clip-rule="evenodd"
            d="M19.1562 14.7811C19.7854 14.7564 20.4104 14.7877 21.0312 14.8749C21.4135 15.201 21.4448 15.5656 21.125 15.9686C20.9745 16.1221 20.7974 16.2367 20.5938 16.3124C20.0316 16.3436 19.4691 16.354 18.9062 16.3436C18.9963 15.8242 19.0796 15.3034 19.1562 14.7811Z"
            fill="#3756FF" />
        <path fill-rule="evenodd" clip-rule="evenodd"
            d="M20.3438 20.2188C19.6323 20.259 18.9448 20.2173 18.2812 20.0938C18.397 19.4941 18.4804 18.8899 18.5312 18.2813C19.3024 18.2708 20.0732 18.2813 20.8438 18.3125C21.5093 18.5297 21.6864 18.9568 21.375 19.5938C21.1264 19.9528 20.7826 20.1611 20.3438 20.2188Z"
            fill="#3655FF" />
        <path fill-rule="evenodd" clip-rule="evenodd"
            d="M18.2815 20.0938C18.945 20.2173 19.6325 20.259 20.344 20.2188C19.6468 20.2809 18.9385 20.3018 18.219 20.2812C18.2042 20.2006 18.225 20.1381 18.2815 20.0938Z"
            fill="#B8C2FF" />
    </g>
    <defs>
        <clipPath id="clip0_963_476">
            <rect width="32" height="32" fill="white" />
        </clipPath>
    </defs>
</svg>