<svg width="32" height="32" viewBox="0 0 32 32" fill="none" xmlns="http://www.w3.org/2000/svg">
<g clip-path="url(#clip0_24_986)">
<path fill-rule="evenodd" clip-rule="evenodd" d="M22.5423 10.3111C21.1869 8.96101 19.5278 8.27361 17.5645 8.24888C15.4359 8.01989 13.35 8.20952 11.3068 8.81777C10.5828 9.09628 9.94279 9.49924 9.38676 10.0267C9.31809 9.89183 9.29438 9.74961 9.31565 9.59999C9.79071 8.86322 10.17 8.081 10.4534 7.25332C10.2862 6.75354 10.0255 6.30316 9.6712 5.90221C9.53767 4.94188 9.94063 4.30188 10.8801 3.98221C15.3861 2.86086 19.0128 4.16455 21.7601 7.89332C22.2068 8.64086 22.4675 9.44679 22.5423 10.3111Z" fill="#CE4242"/>
<path fill-rule="evenodd" clip-rule="evenodd" d="M22.5421 10.3111C23.721 11.7669 24.6455 13.3788 25.3155 15.1467C26.0739 14.3882 26.8326 14.3882 27.591 15.1467C27.7634 16.0835 27.8583 17.0317 27.8755 17.9911C27.9703 18.3704 28.0651 18.7496 28.1599 19.1289C28.5438 19.7955 28.9231 20.4591 29.2977 21.12C29.6134 22.4354 29.1156 23.1939 27.8044 23.3956C27.2649 23.3273 26.8145 23.0902 26.4532 22.6845C26.2143 24.0428 25.4795 25.0148 24.2488 25.6C22.0535 26.1405 19.8253 26.4487 17.5644 26.5245C18.0564 26.1092 18.3173 25.5877 18.3466 24.96C18.2182 24.7892 18.0523 24.6706 17.8488 24.6045C16.5688 24.5096 15.2888 24.5096 14.0088 24.6045C13.5972 24.7281 13.4313 24.9888 13.511 25.3867C13.6921 25.8272 13.9529 26.2065 14.2932 26.5245C12.1388 26.4389 10.0054 26.1782 7.89325 25.7422C6.44934 25.2224 5.596 24.2031 5.33325 22.6845C4.63497 23.4717 3.82905 23.5901 2.91547 23.04C2.32872 22.4352 2.21019 21.7477 2.55991 20.9778C3.13267 20.3069 3.55934 19.5483 3.83991 18.7022C3.95998 17.5081 4.1022 16.3229 4.26658 15.1467C5.01437 14.401 5.7729 14.401 6.54214 15.1467C7.0912 13.5264 7.89712 12.0567 8.95991 10.7378C9.094 10.3466 9.21252 9.96733 9.31547 9.60002C9.29421 9.74964 9.31792 9.89186 9.38658 10.0267C9.94261 9.49927 10.5826 9.09632 11.3066 8.8178C13.3499 8.20956 15.4357 8.01992 17.5644 8.24891C19.5276 8.27365 21.1868 8.96105 22.5421 10.3111Z" fill="#FEE4C4"/>
<path fill-rule="evenodd" clip-rule="evenodd" d="M11.5912 12.16C12.1148 12.1365 12.6363 12.1602 13.1557 12.2311C13.5289 12.3131 13.6237 12.5028 13.4401 12.8C11.9292 12.6637 10.6018 13.1141 9.4579 14.1511C9.41049 14.1037 9.36308 14.0563 9.31567 14.0089C9.91537 13.1697 10.6739 12.5534 11.5912 12.16Z" fill="#0B0A08"/>
<path fill-rule="evenodd" clip-rule="evenodd" d="M18.5601 12.16C20.3148 11.9233 21.6422 12.5633 22.5423 14.08C21.6793 13.6253 20.7786 13.1986 19.8401 12.8C19.3207 12.7291 18.7993 12.7054 18.2756 12.7289C18.2795 12.4872 18.3743 12.2976 18.5601 12.16Z" fill="#0D0B0A"/>
<path fill-rule="evenodd" clip-rule="evenodd" d="M11.1645 14.1511C12.3003 14.0797 12.5847 14.5301 12.0178 15.5022C10.8692 15.6167 10.5848 15.1663 11.1645 14.1511Z" fill="#0A0606"/>
<path fill-rule="evenodd" clip-rule="evenodd" d="M19.84 14.1511C20.9052 14.126 21.1897 14.5763 20.6933 15.5022C20.0026 15.7515 19.5759 15.5382 19.4133 14.8622C19.4975 14.5887 19.6397 14.3518 19.84 14.1511Z" fill="#110D0C"/>
<path fill-rule="evenodd" clip-rule="evenodd" d="M15.1467 15.0044C16.3292 14.8852 17.4196 15.1459 18.4179 15.7866C19.2828 16.5885 19.4724 17.5129 18.9867 18.56C18.8919 18.6073 18.7972 18.6548 18.7023 18.7022C18.4004 18.5867 18.0922 18.492 17.7779 18.4178C17.1949 18.7326 16.5786 18.9696 15.929 19.1289C15.2627 18.9492 14.6227 18.7122 14.009 18.4178C13.6521 18.6088 13.2728 18.6799 12.8712 18.6311C12.3804 17.5509 12.5701 16.6027 13.4401 15.7866C14.0063 15.4792 14.5751 15.2185 15.1467 15.0044Z" fill="#F4B8AB"/>
<path fill-rule="evenodd" clip-rule="evenodd" d="M13.7245 19.1289C14.0128 19.1058 14.2972 19.1296 14.5778 19.2C14.7552 19.4125 14.7552 19.6258 14.5778 19.84C13.6569 20.0109 12.7561 20.248 11.8756 20.5511C11.8452 20.3173 11.8926 20.1039 12.0178 19.9111C12.584 19.6036 13.1529 19.3429 13.7245 19.1289Z" fill="#090606"/>
<path fill-rule="evenodd" clip-rule="evenodd" d="M17.2801 19.1289C18.0892 19.1535 18.8478 19.3668 19.5556 19.7689C19.8553 19.9487 19.9975 20.2094 19.9823 20.5511C19.1028 20.2663 18.2021 20.0529 17.2801 19.9111C16.9219 19.6537 16.9219 19.393 17.2801 19.1289Z" fill="#0C0808"/>
<path fill-rule="evenodd" clip-rule="evenodd" d="M13.5823 20.5511C14.3129 20.8257 15.0714 21.0153 15.8578 21.12C16.6152 21.1046 17.3263 20.9149 17.9912 20.5511C18.5996 20.8126 18.7181 21.2393 18.3467 21.8311C17.2311 22.4947 16.0223 22.708 14.7201 22.4711C14.1928 22.338 13.7424 22.0773 13.369 21.6889C13.2423 21.2625 13.3134 20.8833 13.5823 20.5511Z" fill="#CE4342"/>
<path fill-rule="evenodd" clip-rule="evenodd" d="M17.5645 26.5245C17.2142 26.8034 16.8822 27.1116 16.5689 27.4489C16.1422 27.7334 15.7156 27.7334 15.2889 27.4489C14.9756 27.1116 14.6436 26.8034 14.2933 26.5245C13.953 26.2065 13.6922 25.8272 13.5111 25.3867C13.4314 24.9888 13.5973 24.7281 14.0089 24.6045C15.2889 24.5096 16.5689 24.5096 17.8489 24.6045C18.0524 24.6706 18.2182 24.7892 18.3467 24.96C18.3174 25.5877 18.0565 26.1092 17.5645 26.5245Z" fill="#040303"/>
</g>
<defs>
<clipPath id="clip0_24_986">
<rect width="32" height="32" fill="white"/>
</clipPath>
</defs>
</svg>
