<svg width="32" height="32" viewBox="0 0 32 32" fill="none" xmlns="http://www.w3.org/2000/svg">
<g clip-path="url(#clip0_11_365)">
<path opacity="0.998" fill-rule="evenodd" clip-rule="evenodd" d="M5.34375 -0.03125C12.4271 -0.03125 19.5104 -0.03125 26.5938 -0.03125C29.5729 0.572917 31.3646 2.36458 31.9688 5.34375C31.9688 9.55206 31.9688 13.7604 31.9688 17.9688C30.8249 18.0762 29.6791 18.1596 28.5312 18.2188C25.6901 18.1047 22.9193 17.6256 20.2188 16.7812C21.3854 16.7812 22.5521 16.7812 23.7188 16.7812C23.7292 14.0103 23.7188 11.2395 23.6875 8.46875C23.6299 7.14981 23.2132 5.96233 22.4375 4.90625C21.7342 4.18446 20.8904 3.69488 19.9062 3.4375C17.6312 2.91961 15.3396 2.83627 13.0312 3.1875C11.7242 3.39834 10.5889 3.95043 9.625 4.84375C8.92981 5.69887 8.51313 6.67806 8.375 7.78125C8.28444 10.1337 8.25319 12.4879 8.28125 14.8438C5.39988 14.9908 2.62905 15.6158 -0.03125 16.7188C-0.03125 12.9271 -0.03125 9.13544 -0.03125 5.34375C0.572917 2.36458 2.36458 0.572917 5.34375 -0.03125Z" fill="#E38563"/>
<path fill-rule="evenodd" clip-rule="evenodd" d="M20.2188 16.7813C18.1146 16.7813 16.0104 16.7813 13.9063 16.7813C13.8958 19.2188 13.9063 21.6563 13.9375 24.0938C13.9948 24.3228 14.1094 24.5206 14.2813 24.6875C15.1853 25.2632 16.1436 25.3673 17.1563 25C17.6014 24.867 17.9035 24.5858 18.0625 24.1563C18.0938 22.969 18.1042 21.7815 18.0938 20.5938C20.0616 20.5036 21.9261 20.0244 23.6875 19.1563C23.7569 20.9096 23.7153 22.6596 23.5625 24.4063C23.2914 26.3219 22.2602 27.624 20.4688 28.3125C18.6541 28.8544 16.7999 29.0628 14.9063 28.9375C13.4653 28.9058 12.0903 28.5933 10.7813 28C9.41501 27.1971 8.63376 25.9993 8.43751 24.4063C8.38832 23.9903 8.3467 23.5737 8.31251 23.1563C8.28126 20.3855 8.27082 17.6147 8.28126 14.8438C8.2532 12.4879 8.28445 10.1337 8.37501 7.78127C8.51313 6.67808 8.92982 5.69889 9.62501 4.84377C10.5889 3.95044 11.7243 3.39835 13.0313 3.18752C15.3396 2.83629 17.6313 2.91962 19.9063 3.43752C20.8904 3.69489 21.7342 4.18447 22.4375 4.90627C23.2133 5.96235 23.6299 7.14983 23.6875 8.46877C23.7188 11.2395 23.7292 14.0103 23.7188 16.7813C22.5521 16.7813 21.3854 16.7813 20.2188 16.7813Z" fill="#FEFEFE"/>
<path fill-rule="evenodd" clip-rule="evenodd" d="M18.0312 7.46872C18.0312 9.73953 18.0312 12.0104 18.0312 14.2812C16.6771 14.2812 15.3229 14.2812 13.9688 14.2812C13.9688 12.0312 13.9688 9.78122 13.9688 7.53122C14.1811 7.03847 14.5561 6.73641 15.0938 6.62497C16.0539 6.39959 16.9498 6.54541 17.7812 7.06247C17.8803 7.19178 17.9637 7.32722 18.0312 7.46872Z" fill="#E48563"/>
<path fill-rule="evenodd" clip-rule="evenodd" d="M18.0313 7.46875C18.0936 9.74975 18.1145 12.0414 18.0938 14.3438C16.6979 14.3438 15.3021 14.3438 13.9063 14.3438C13.8855 12.0622 13.9064 9.79144 13.9688 7.53125C13.9688 9.78125 13.9688 12.0312 13.9688 14.2812C15.3229 14.2812 16.6771 14.2812 18.0313 14.2812C18.0313 12.0104 18.0313 9.73956 18.0313 7.46875Z" fill="#E89A7E"/>
<path opacity="0.998" fill-rule="evenodd" clip-rule="evenodd" d="M8.28125 14.8438C8.27081 17.6147 8.28125 20.3855 8.3125 23.1562C8.34669 23.5737 8.38831 23.9903 8.4375 24.4062C8.63375 25.9993 9.415 27.1971 10.7812 28C12.0903 28.5933 13.4653 28.9058 14.9062 28.9375C16.7999 29.0627 18.6541 28.8544 20.4688 28.3125C22.2602 27.624 23.2914 26.3219 23.5625 24.4062C23.7153 22.6596 23.7569 20.9096 23.6875 19.1562C21.9261 20.0244 20.0616 20.5036 18.0938 20.5938C18.1042 21.7814 18.0938 22.9689 18.0625 24.1562C17.9035 24.5858 17.6014 24.867 17.1562 25C16.1436 25.3673 15.1852 25.2632 14.2812 24.6875C14.1094 24.5206 13.9948 24.3228 13.9375 24.0938C13.9062 21.6563 13.8958 19.2188 13.9062 16.7812C16.0104 16.7812 18.1146 16.7812 20.2188 16.7812C22.9193 17.6256 25.6901 18.1047 28.5312 18.2188C29.6791 18.1596 30.8249 18.0762 31.9688 17.9688C31.9688 20.8438 31.9688 23.7188 31.9688 26.5938C31.3646 29.5729 29.5729 31.3646 26.5938 31.9688C19.5104 31.9688 12.4271 31.9688 5.34375 31.9688C2.36458 31.3646 0.572917 29.5729 -0.03125 26.5938C-0.03125 23.3021 -0.03125 20.0104 -0.03125 16.7188C2.62905 15.6158 5.39988 14.9908 8.28125 14.8438Z" fill="#099699"/>
</g>
<defs>
<clipPath id="clip0_11_365">
<rect width="32" height="32" fill="white"/>
</clipPath>
</defs>
</svg>
