<svg width="32" height="32" viewBox="0 0 32 33" fill="none" xmlns="http://www.w3.org/2000/svg">
    <path
        d="M4.55238 0.451885C2.91637 0.94746 1.52931 2.151 0.746874 3.74392C0.0355654 5.19525 0 5.86781 0 16.1333C0 24.4873 0.106696 27.2837 0.497916 28.1687C1.06696 29.5492 3.20089 31.4961 4.55238 31.8501C5.08586 32.0271 10.3851 32.1333 16.3601 32.1333C25.9272 32.1333 27.3498 32.0625 28.3101 31.5315C29.8394 30.7174 31.1909 29.0183 31.6532 27.4253C32.1156 25.6908 32.1156 6.71737 31.6532 4.98286C31.1553 3.21295 29.6971 1.54923 27.9189 0.770469C26.6385 0.168699 25.4649 0.133301 16.0044 0.133301C10.2428 0.133301 5.08586 0.274894 4.55238 0.451885ZM27.9544 4.1333L29.1637 5.33684V16.1687V27.0006L28.1323 28.1333L27.1009 29.3014L16.4668 29.4076C4.90803 29.5492 4.12559 29.4076 3.23645 27.4961C2.9875 26.8944 2.84523 23.0714 2.84523 15.9209C2.84523 6.32799 2.91637 5.15985 3.48541 4.48728C4.69464 3.00056 5.15699 2.96516 16.1467 2.92976H26.7452L27.9544 4.1333Z"
        fill="black" />
    <path
        d="M14.5818 13.0183C8.85581 18.682 8.64242 18.9652 7.89554 21.2661C7.00641 23.9564 6.93528 24.8767 7.50432 24.8767C7.71772 24.8767 8.96251 24.5581 10.2784 24.1687C12.6257 23.4254 12.8036 23.2838 18.7786 17.3015C22.1573 13.9387 24.8958 10.9298 24.8958 10.6112C24.8958 9.69087 22.264 7.17759 21.3393 7.17759C20.7347 7.17759 18.8497 8.80591 14.5818 13.0183ZM22.7263 9.51388C23.2954 10.2572 23.3665 10.5758 23.082 10.9298C22.5485 11.6024 22.4062 11.567 21.2326 10.505C20.379 9.79706 20.2723 9.54928 20.628 9.1245C21.2681 8.34574 21.9083 8.48733 22.7263 9.51388ZM20.379 11.7086L21.3393 12.6997L16.7869 17.1953L12.2345 21.6909L11.2031 20.6289L10.1717 19.567L14.5818 15.1422C17.0359 12.6997 19.0987 10.7174 19.2054 10.7174C19.3476 10.7174 19.8455 11.1776 20.379 11.7086ZM10.4207 21.6909C11.0253 22.3988 10.9897 22.4342 10.1006 22.7528C8.92694 23.213 8.78468 23.0714 9.10477 21.9033C9.35373 20.8059 9.60269 20.7705 10.4207 21.6909Z"
        fill="black" />
</svg>