<svg width="32" height="32" viewBox="0 0 32 32" fill="none" xmlns="http://www.w3.org/2000/svg">
<rect width="32" height="32" fill="#006BBE"/>
<path d="M24.4922 26.9537C23.323 26.9537 22.3384 27.9384 22.3384 29.1076C22.3384 30.2768 23.323 31.2614 24.4922 31.2614C25.6615 31.2614 26.6461 30.2768 26.6461 29.1076C26.6461 27.9384 25.6615 26.9537 24.4922 26.9537Z" fill="white"/>
<path d="M11.8153 26.9537C10.6461 26.9537 9.6615 27.9384 9.6615 29.1076C9.6615 30.2768 10.6461 31.2614 11.8153 31.2614C12.9846 31.2614 13.9692 30.2768 13.9692 29.1076C13.9692 27.9384 13.0461 26.9537 11.8153 26.9537Z" fill="white"/>
<path d="M30.8307 9.5384C30.8307 9.41533 30.8923 9.29225 30.8923 9.16917C30.8923 7.99994 29.9076 7.01533 28.7384 7.01533H9.53841L8.73841 3.01533C8.61533 2.03071 7.87687 1.23071 6.95379 1.23071H3.01533C2.03071 1.23071 1.23071 2.15379 1.23071 3.32302C1.23071 4.49225 2.03071 5.47687 3.01533 5.47687H4.98456L7.50764 17.9692L8.61533 23.5076C8.61533 23.5076 8.61533 23.5076 8.61533 23.5692L8.67687 23.7538C8.86148 24.6153 9.53841 25.2922 10.2769 25.2922H25.5999C28.1846 25.2922 28.4923 20.923 28.4923 20.923H12.3076L11.8153 18.3999L27.5076 18.3384C28.2461 18.3384 28.8615 17.723 29.1076 16.8615V16.7999L30.7692 9.78456C30.8307 9.72302 30.8307 9.59994 30.8307 9.5384ZM25.6615 14.0307H10.9538L10.3999 11.2615H26.2153L25.6615 14.0307Z" fill="white"/>
</svg>
