<svg width="32" height="32" viewBox="0 0 32 32" fill="none" xmlns="http://www.w3.org/2000/svg">
<path d="M29.9753 16.3263C29.9753 13.9368 28.4909 11.8369 26.2583 11.0284C26.3548 10.5215 26.4031 10.0146 26.4031 9.49575C26.4031 5.04264 22.7827 1.42221 18.3417 1.42221C15.735 1.42221 13.3213 2.66522 11.8007 4.76507C11.0525 4.1858 10.1354 3.87203 9.18201 3.87203C6.81665 3.87203 4.89783 5.79085 4.89783 8.1562C4.89783 8.67513 4.99437 9.18201 5.16332 9.65262C2.9428 10.4491 1.42222 12.5852 1.42222 14.9626C1.42222 17.3641 2.91866 19.464 5.15125 20.2726C5.05471 20.7674 5.00644 21.2863 5.00644 21.8052C5.00644 26.2463 8.61483 29.8546 13.0559 29.8546C15.6626 29.8546 18.0762 28.5995 19.5846 26.4996C20.3329 27.091 21.2501 27.4168 22.2034 27.4168C24.5687 27.4168 26.4876 25.498 26.4876 23.1327C26.4876 22.6138 26.391 22.1069 26.2221 21.6362C28.4426 20.8398 29.9753 18.7037 29.9753 16.3263Z" fill="white"/>
<path d="M12.6453 13.6713L18.8965 16.5194L25.1961 10.9922C25.2926 10.5336 25.3288 10.0871 25.3288 9.60434C25.3288 5.71844 22.167 2.55661 18.281 2.55661C15.9519 2.55661 13.7917 3.70308 12.4763 5.6219L11.4264 11.0646L12.6453 13.6713Z" fill="#FED10A"/>
<path d="M6.17717 20.2847C6.08062 20.7432 6.04442 21.2139 6.04442 21.6966C6.04442 25.5946 9.21835 28.7564 13.1163 28.7564C15.4575 28.7564 17.6418 27.5979 18.9573 25.667L19.9951 20.2485L18.6073 17.5935L12.3319 14.7333L6.17717 20.2847Z" fill="#24BBB1"/>
<path d="M6.14057 9.47163L10.4247 10.4853L11.366 5.62191C10.7868 5.17539 10.0627 4.93402 9.31449 4.93402C7.45599 4.93402 5.93542 6.44253 5.93542 8.31308C5.93542 8.71131 6.00782 9.1096 6.14057 9.47163Z" fill="#EF5098"/>
<path d="M5.76699 10.4974C3.86024 11.1249 2.52068 12.9593 2.52068 14.9746C2.52068 16.9417 3.73956 18.6916 5.56184 19.3916L11.5718 13.9609L10.4735 11.6077L5.76699 10.4974Z" fill="#1BA9F5"/>
<path d="M20.0434 25.667C20.6347 26.1135 21.3468 26.3669 22.0829 26.3669C23.9414 26.3669 25.462 24.8584 25.462 22.9879C25.462 22.5775 25.3896 22.1792 25.2568 21.8172L20.9847 20.8156L20.0434 25.667Z" fill="#93C83E"/>
<path d="M20.912 19.6933L25.6186 20.7915C27.5374 20.1639 28.8649 18.3296 28.8649 16.3021C28.8649 14.3472 27.646 12.5852 25.8237 11.8973L19.669 17.2917L20.912 19.6933Z" fill="#0077CC"/>
</svg>
