<svg width="32" height="32" viewBox="0 0 32 32" fill="none" xmlns="http://www.w3.org/2000/svg">
<g clip-path="url(#clip0_5994_610)">
<path d="M32 0H0V32H32V0Z" fill="black"/>
<path fill-rule="evenodd" clip-rule="evenodd" d="M10.111 24.0342C10.0461 24.1964 9.93251 24.3423 9.77069 24.4717C9.34902 24.893 8.84689 24.9903 8.26358 24.7634C8.13375 24.6663 8.0041 24.5531 7.87464 24.4231L0.776683 16.7418C0.355014 16.2883 0.257917 15.7858 0.485025 15.2347C0.549574 15.1052 0.646854 14.9915 0.776683 14.8944L7.87464 7.26156C8.10138 6.93753 8.39304 6.77534 8.74979 6.77534C9.33311 6.71079 9.78659 6.9699 10.111 7.55321C10.3701 8.07216 10.2891 8.57429 9.86797 9.06032L3.64497 15.818L9.86797 22.5757C10.2891 22.9974 10.3701 23.4836 10.111 24.0342Z" fill="white"/>
<path fill-rule="evenodd" clip-rule="evenodd" d="M30.8758 16.7407L23.8272 24.4213C23.6974 24.5835 23.5515 24.697 23.3898 24.7616C22.8063 25.0205 22.304 24.9397 21.8827 24.5184C21.7207 24.3889 21.6071 24.2432 21.5426 24.081C21.2831 23.4977 21.3639 22.9955 21.7856 22.5741L28.0563 15.8171L21.7856 9.06015C21.3639 8.57393 21.2831 8.0718 21.5426 7.55304C21.8664 6.96972 22.3203 6.7108 22.9036 6.77535C23.2276 6.77535 23.5355 6.93754 23.8272 7.26138L30.8758 14.8935C31.0054 14.9906 31.1025 15.1206 31.1675 15.2822C31.3942 15.801 31.2971 16.2872 30.8758 16.7407Z" fill="white"/>
<path fill-rule="evenodd" clip-rule="evenodd" d="M14.8853 20.1249C14.8853 19.0843 14.8853 18.0436 14.8853 17.003C13.7994 17.003 12.7136 17.003 11.6277 17.003C11.0119 16.8877 10.6713 16.5161 10.6057 15.8881C10.6713 15.26 11.0119 14.8884 11.6277 14.7731C12.7136 14.7731 13.7994 14.7731 14.8853 14.7731C14.8853 13.69 14.8853 12.6069 14.8853 11.5238C15.122 10.7579 15.633 10.4712 16.4183 10.6637C16.8034 10.8352 17.0482 11.1219 17.1528 11.5238C17.1848 12.6067 17.1954 13.6898 17.1848 14.7731C18.3135 14.7625 19.4419 14.7731 20.5701 14.805C21.4159 15.1652 21.6181 15.7492 21.1769 16.557C21.0573 16.6978 20.9189 16.8145 20.7618 16.9074C19.5728 16.9997 18.3806 17.0316 17.1848 17.003C17.1954 18.0651 17.1848 19.1269 17.1528 20.1885C16.936 20.9927 16.4144 21.3007 15.5879 21.1123C15.1566 20.9205 14.9224 20.5914 14.8853 20.1249Z" fill="#1A85FE"/>
</g>
<defs>
<clipPath id="clip0_5994_610">
<rect width="32" height="32" fill="white"/>
</clipPath>
</defs>
</svg>
