<svg width="32" height="32" viewBox="0 0 32 32" fill="none" xmlns="http://www.w3.org/2000/svg">
<path d="M26.2686 2.69174L23.7069 1.19117C23.6536 1.15985 23.5929 1.14318 23.5311 1.14289C23.4693 1.14258 23.4085 1.15865 23.3549 1.18945L3.0943 12.8135C3.04159 12.844 2.99763 12.8875 2.96666 12.9399C2.9357 12.9924 2.91876 13.0519 2.9175 13.1128C2.91623 13.1737 2.93068 13.2339 2.95945 13.2875C2.98822 13.3412 3.03033 13.3865 3.08173 13.4192L18.096 22.8723C18.1493 22.9059 18.2107 22.9246 18.2737 22.9263C18.3368 22.9281 18.399 22.9128 18.4541 22.8823C18.5093 22.8516 18.5551 22.8068 18.5869 22.7523C18.6187 22.6979 18.6353 22.6359 18.6349 22.5729V19.31C18.6349 19.2504 18.6198 19.1917 18.5911 19.1394C18.5623 19.0872 18.5208 19.0431 18.4703 19.0112L9.61087 13.4203C9.5595 13.3876 9.51744 13.3422 9.4887 13.2885C9.46001 13.2348 9.44561 13.1747 9.44692 13.1137C9.44824 13.0529 9.46521 12.9933 9.49624 12.9409C9.52727 12.8885 9.57127 12.8451 9.62401 12.8146L26.2657 3.30317C26.3192 3.27218 26.3637 3.22773 26.3946 3.17425C26.4257 3.12076 26.4421 3.06009 26.4424 2.99828C26.4427 2.93646 26.4268 2.87564 26.3963 2.82186C26.3658 2.76809 26.3218 2.72323 26.2686 2.69174Z" fill="#2D5A57"/>
<path d="M19.7469 25.1101L3.37715 16.1216C3.32349 16.0922 3.2631 16.0774 3.20195 16.0786C3.1408 16.0797 3.08102 16.0968 3.0285 16.1281C2.97598 16.1595 2.93255 16.204 2.9025 16.2573C2.87244 16.3105 2.85682 16.3707 2.85715 16.4318V19.177C2.85715 19.3061 2.92744 19.425 3.04001 19.4873L23.2834 30.573C23.5177 30.701 23.8034 30.5307 23.8034 30.2627V12.565C23.8034 12.3073 23.5377 12.1364 23.3046 12.2444L20.4714 13.557C20.4104 13.5854 20.3588 13.6307 20.3226 13.6875C20.2865 13.7443 20.2674 13.8102 20.2674 13.8776V24.8004C20.2674 25.069 19.9811 25.2387 19.7469 25.1101Z" fill="#2D5A57"/>
<path d="M14.3617 15.118L12.4766 13.4357C12.4346 13.3981 12.4023 13.3511 12.3822 13.2985C12.3621 13.2459 12.3548 13.1893 12.3609 13.1333C12.3671 13.0773 12.3865 13.0236 12.4176 12.9766C12.4486 12.9297 12.4904 12.8907 12.5394 12.8631L28.1772 4.1117C28.4114 3.98028 28.7 4.15056 28.7 4.42028V27.3917C28.7 27.5094 28.6417 27.6203 28.5434 27.6854L25.9823 29.3997C25.9293 29.435 25.8677 29.4553 25.804 29.4583C25.7404 29.4613 25.6772 29.4469 25.621 29.4168C25.5649 29.3866 25.5181 29.3418 25.4855 29.287C25.4529 29.2323 25.4358 29.1697 25.436 29.106V9.35914C25.4363 9.29674 25.42 9.23543 25.3888 9.18143C25.3576 9.12749 25.3125 9.08274 25.2583 9.05194C25.2041 9.02109 25.1426 9.00526 25.0803 9.006C25.018 9.0068 24.9569 9.02412 24.9034 9.05629L14.7766 15.1569C14.7124 15.1957 14.6374 15.2128 14.5628 15.2058C14.4881 15.1988 14.4176 15.1681 14.3617 15.118Z" fill="#2D5A57"/>
</svg>
