<svg width="32" height="32" viewBox="0 0 33 33" fill="none" xmlns="http://www.w3.org/2000/svg">
    <path fill-rule="evenodd" clip-rule="evenodd"
        d="M18.3427 0.646065C16.756 0.612036 15.1752 0.664585 13.6001 0.80368C13.6734 0.689945 13.7905 0.611138 13.9514 0.567258C15.4462 0.43751 16.9101 0.463768 18.3427 0.646065Z"
        fill="#797979" />
    <path fill-rule="evenodd" clip-rule="evenodd"
        d="M18.3427 0.646262C24.5095 1.73943 28.813 4.89172 31.2531 10.1031C31.6576 11.1873 31.9796 12.2906 32.2192 13.413C32.2192 13.5707 32.2192 13.7283 32.2192 13.8859C31.1653 13.8859 30.1114 13.8859 29.0575 13.8859C27.9665 9.14992 24.9219 5.86628 19.9236 4.03498C13.2493 2.76038 8.30175 4.83564 5.08104 10.2608C4.48282 11.4245 4.0437 12.6329 3.76365 13.8859C2.70975 13.8859 1.65584 13.8859 0.601929 13.8859C0.601929 13.7283 0.601929 13.5707 0.601929 13.413C1.9695 7.22166 5.95092 3.04487 12.5462 0.882684C12.8927 0.804586 13.244 0.778327 13.6001 0.803877C15.1752 0.664782 16.7561 0.612233 18.3427 0.646262Z"
        fill="#050505" />
    <path fill-rule="evenodd" clip-rule="evenodd"
        d="M0.601891 13.4131C0.601891 13.5707 0.601891 13.7283 0.601891 13.8859C1.6558 13.8859 2.70971 13.8859 3.76362 13.8859C2.68431 14.042 1.57186 14.0945 0.42624 14.0435C0.3792 13.7915 0.437745 13.5814 0.601891 13.4131Z"
        fill="#8F8F8F" />
    <path fill-rule="evenodd" clip-rule="evenodd"
        d="M32.2191 13.4131C32.3832 13.5814 32.4418 13.7915 32.3948 14.0435C31.2492 14.0945 30.1368 14.042 29.0574 13.8859C30.1113 13.8859 31.1652 13.8859 32.2191 13.8859C32.2191 13.7283 32.2191 13.5707 32.2191 13.4131Z"
        fill="#919191" />
    <path fill-rule="evenodd" clip-rule="evenodd"
        d="M3.76359 19.0871C2.63481 18.9893 1.58091 19.0945 0.60186 19.4023C0.443071 19.2905 0.384527 19.1329 0.426209 18.9294C1.57183 18.8785 2.68428 18.931 3.76359 19.0871Z"
        fill="#7A7A7A" />
    <path fill-rule="evenodd" clip-rule="evenodd"
        d="M32.2191 19.4022C31.7647 19.1948 31.2377 19.0897 30.6382 19.087C30.038 19.0931 29.4526 19.1458 28.8817 19.2446C29.9795 18.9358 31.1504 18.8307 32.3947 18.9294C32.4364 19.1329 32.3779 19.2905 32.2191 19.4022Z"
        fill="#808080" />
    <path fill-rule="evenodd" clip-rule="evenodd"
        d="M3.76365 19.0871C4.61182 22.8969 6.83675 25.8654 10.4384 27.9923C11.4253 28.3833 12.4207 28.7249 13.4245 29.0168C13.7783 29.2412 14.1882 29.3462 14.654 29.332C15.708 29.332 16.7619 29.332 17.8158 29.332C18.3418 29.3645 18.8103 29.2595 19.221 29.0168C21.6327 28.4207 23.7113 27.3174 25.4566 25.7069C26.2611 24.736 27.0224 23.7378 27.7401 22.7122C28.2296 21.5856 28.6103 20.4298 28.8818 19.2447C29.4527 19.1459 30.0381 19.0932 30.6383 19.0871C31.2378 19.0897 31.7648 19.1949 32.2192 19.4023C31.1033 25.2165 27.5318 29.2882 21.5044 31.6174C20.469 31.9363 19.4151 32.1727 18.3427 32.3267C16.7561 32.3607 15.1752 32.3083 13.6001 32.1691C9.20019 31.347 5.77499 29.2455 3.32453 25.8645C1.85536 23.9012 0.947822 21.7473 0.601929 19.4023C1.58097 19.0945 2.63488 18.9893 3.76365 19.0871Z"
        fill="#060606" />
    <path fill-rule="evenodd" clip-rule="evenodd"
        d="M13.4244 29.0169C13.8903 29.0027 14.3001 29.1077 14.654 29.3321C14.1881 29.3463 13.7783 29.2413 13.4244 29.0169Z"
        fill="#787878" />
    <path fill-rule="evenodd" clip-rule="evenodd"
        d="M19.2209 29.0166C18.8102 29.2593 18.3417 29.3643 17.8157 29.3318C18.2381 29.132 18.7066 29.0268 19.2209 29.0166Z"
        fill="#737373" />
    <path fill-rule="evenodd" clip-rule="evenodd"
        d="M13.6001 32.1689C15.1752 32.3081 16.756 32.3606 18.3427 32.3266C16.9686 32.5088 15.5634 32.5351 14.1271 32.4054C13.9097 32.3688 13.734 32.29 13.6001 32.1689Z"
        fill="#818181" />
</svg>