<svg width="32" height="32" viewBox="0 0 32 32" fill="none" xmlns="http://www.w3.org/2000/svg">
<path opacity="0.91" fill-rule="evenodd" clip-rule="evenodd" d="M4.98804 7.05859C8.81548 7.05859 12.6429 7.05859 16.4704 7.05859C16.4704 12.9566 16.4704 18.8547 16.4704 24.7527C12.5802 24.7527 8.69001 24.7527 4.7998 24.7527C4.7998 24.2507 4.7998 23.7489 4.7998 23.2468C8.18804 23.2468 11.5763 23.2468 14.9645 23.2468C14.9645 20.9253 14.9645 18.6037 14.9645 16.2821C11.7645 16.2821 8.56451 16.2821 5.36451 16.2821C5.36451 15.7174 5.36451 15.1527 5.36451 14.588C8.56451 14.588 11.7645 14.588 14.9645 14.588C14.9645 12.6429 14.9645 10.6978 14.9645 8.75271C11.639 8.75271 8.31354 8.75271 4.98804 8.75271C4.98804 8.18801 4.98804 7.6233 4.98804 7.05859Z" fill="black"/>
<path opacity="0.932" fill-rule="evenodd" clip-rule="evenodd" d="M16.6592 7.05859C19.9219 7.05859 23.1847 7.05859 26.4474 7.05859C26.4474 7.6233 26.4474 8.18801 26.4474 8.75271C23.7494 8.75271 21.0513 8.75271 18.3533 8.75271C18.3533 14.086 18.3533 19.4194 18.3533 24.7527C17.7886 24.7527 17.2239 24.7527 16.6592 24.7527C16.6592 18.8547 16.6592 12.9566 16.6592 7.05859Z" fill="black"/>
</svg>
