<svg width="32" height="32" viewBox="0 0 32 32" fill="none" xmlns="http://www.w3.org/2000/svg">
<g clip-path="url(#clip0_6_897)">
<path d="M32 0H0V32H32V0Z" fill="white"/>
<mask id="mask0_6_897" style="mask-type:luminance" maskUnits="userSpaceOnUse" x="5" y="1" width="22" height="28">
<path d="M26.7161 1.77783H5.33301V28.9654H26.7161V1.77783Z" fill="white"/>
</mask>
<g mask="url(#mask0_6_897)">
<path fill-rule="evenodd" clip-rule="evenodd" d="M20.3837 27.2305L22.2663 28.9407H26.7179L24.6308 27.0474L22.5455 25.1505L20.6343 23.4136L20.1295 22.9549C19.5908 23.7852 18.8441 24.5461 18.0299 25.0918C17.5766 25.3958 17.1001 25.6358 16.6255 25.7745C16.1028 25.9309 15.5357 26.0109 14.9277 26.0109C14.021 26.0109 13.1855 25.8349 12.4175 25.4865C11.6495 25.1416 10.9917 24.6687 10.4441 24.0767C9.89479 23.4829 9.46812 22.7932 9.16412 21.9985C9.00945 21.5985 8.8939 21.1861 8.81923 20.7612L6.91701 19.0349L5.49123 17.7407C5.38634 18.3185 5.33301 18.9158 5.33301 19.5256C5.33301 20.8181 5.56767 22.0358 6.03879 23.1878C6.50812 24.3398 7.16056 25.3425 7.99967 26.1941C8.83523 27.0474 9.8379 27.7212 11.0059 28.2172C12.1739 28.7167 13.4628 28.9656 14.8743 28.9656C15.1179 28.9656 15.3615 28.9585 15.5979 28.9407C16.4068 28.8874 17.1677 28.7416 17.8823 28.5069C18.7659 28.2172 19.6086 27.7781 20.3837 27.2305Z" fill="#171D2D"/>
<path fill-rule="evenodd" clip-rule="evenodd" d="M24.0028 22.4267C24.3139 21.4881 24.4703 20.5049 24.4703 19.4756C24.4703 18.1867 24.2339 16.9654 23.7628 15.8116C23.2934 14.6632 22.641 13.6623 21.8037 12.8089C20.9663 11.9556 19.9637 11.2783 18.7974 10.7823C17.6312 10.2845 16.3406 10.0374 14.929 10.0374C13.7344 10.0374 12.5379 10.2223 11.4179 10.6489L12.6001 7.64805H9.38236L6.60547 14.7058L9.1388 17.0081L13.1352 20.6401L15.3592 18.6187L10.8259 14.4961C11.9424 13.5005 13.3824 12.9903 14.8739 12.9903C15.7788 12.9903 16.6161 13.1645 17.3841 13.5147C18.1503 13.8632 18.8099 14.3325 19.3574 14.9281C19.9068 15.5183 20.3334 16.2152 20.6392 17.0045C20.9432 17.7956 21.0961 18.6383 21.0961 19.5254C21.0961 19.6161 21.0943 19.6996 21.0908 19.7849L22.3192 20.9014L24.0028 22.4267ZM12.2037 1.77783C13.4357 1.77783 14.433 2.77517 14.433 4.00539C14.433 5.23739 13.4357 6.23472 12.2037 6.23472C10.9717 6.23472 9.97436 5.23739 9.97436 4.00539C9.97436 2.77517 10.9717 1.77783 12.2037 1.77783Z" fill="url(#paint0_linear_6_897)"/>
</g>
</g>
<defs>
<linearGradient id="paint0_linear_6_897" x1="7.23196" y1="8.09552" x2="25.7461" y2="18.1695" gradientUnits="userSpaceOnUse">
<stop stop-color="#71C387"/>
<stop offset="1" stop-color="#0596C6"/>
</linearGradient>
<clipPath id="clip0_6_897">
<rect width="32" height="32" fill="white"/>
</clipPath>
</defs>
</svg>
