<svg width="32" height="32" viewBox="0 0 32 32" fill="none" xmlns="http://www.w3.org/2000/svg">
<g clip-path="url(#clip0_3_553)">
<path opacity="0.995" fill-rule="evenodd" clip-rule="evenodd" d="M1.75 -0.25C11.0834 -0.25 20.4166 -0.25 29.75 -0.25C30.5834 0.25 31.25 0.916665 31.75 1.75C31.75 11.0834 31.75 20.4166 31.75 29.75C31.25 30.5834 30.5834 31.25 29.75 31.75C20.4166 31.75 11.0834 31.75 1.75 31.75C0.916665 31.25 0.25 30.5834 -0.25 29.75C-0.25 20.4166 -0.25 11.0834 -0.25 1.75C0.25 0.916665 0.916665 0.25 1.75 -0.25Z" fill="#0489FF"/>
<path fill-rule="evenodd" clip-rule="evenodd" d="M10.25 7.25C13.9167 7.25 17.5833 7.25 21.25 7.25C21.25 8.25 21.25 9.25 21.25 10.25C17.5833 10.25 13.9167 10.25 10.25 10.25C10.25 9.25 10.25 8.25 10.25 7.25Z" fill="#F0F7FF"/>
<path fill-rule="evenodd" clip-rule="evenodd" d="M10.25 14.25C13.75 14.25 17.25 14.25 20.75 14.25C20.75 15.0834 20.75 15.9166 20.75 16.75C18.4167 16.75 16.0833 16.75 13.75 16.75C13.75 18.0833 13.75 19.4167 13.75 20.75C16.25 20.75 18.75 20.75 21.25 20.75C21.25 21.75 21.25 22.75 21.25 23.75C17.5833 23.75 13.9167 23.75 10.25 23.75C10.25 20.5833 10.25 17.4167 10.25 14.25Z" fill="#F8FBFF"/>
</g>
<defs>
<clipPath id="clip0_3_553">
<rect width="32" height="32" fill="white"/>
</clipPath>
</defs>
</svg>
