<svg width="32" height="32" viewBox="0 0 32 32" fill="none" xmlns="http://www.w3.org/2000/svg">
<g clip-path="url(#clip0_6_1024)">
<path fill-rule="evenodd" clip-rule="evenodd" d="M-0.168457 -0.168457C10.4982 -0.168457 21.1649 -0.168457 31.8315 -0.168457C31.8315 10.4982 31.8315 21.1649 31.8315 31.8315C21.1649 31.8315 10.4982 31.8315 -0.168457 31.8315C-0.168457 21.1649 -0.168457 10.4982 -0.168457 -0.168457Z" fill="#FDFCFC"/>
<path fill-rule="evenodd" clip-rule="evenodd" d="M7.24208 6.23162C7.92496 6.17702 8.59865 6.23314 9.26314 6.40004C9.45126 6.64415 9.56353 6.92487 9.59998 7.24215C9.00656 7.95133 8.27673 8.51272 7.41051 8.92636C7.41502 11.1211 7.07818 13.2545 6.39998 15.3264C6.08853 15.5104 5.80784 15.735 5.55787 16C5.98223 16.297 6.37519 16.6338 6.73682 17.0106C7.09832 19.0146 7.32289 21.0356 7.41051 23.0737C8.00453 23.56 8.67821 23.8969 9.43156 24.0843C9.59661 24.5199 9.65276 24.969 9.59998 25.4316C8.58325 25.4871 7.57273 25.4309 6.5684 25.2632C6.28771 24.9825 6.00698 24.7018 5.72629 24.4211C5.32064 22.3149 5.09606 20.1815 5.05261 18.0211C4.36464 17.3124 3.52254 16.9194 2.52629 16.8421C2.07717 16.2807 2.07717 15.7194 2.52629 15.1579C3.55292 14.9537 4.39503 14.4484 5.05261 13.6421C5.09903 11.5937 5.32357 9.57266 5.72629 7.57899C6.1968 7.05005 6.70206 6.60093 7.24208 6.23162Z" fill="#0E0911"/>
<path fill-rule="evenodd" clip-rule="evenodd" d="M22.7368 6.23135C24.1861 5.99428 25.365 6.44339 26.2736 7.57872C26.6931 9.56279 26.9176 11.5838 26.9473 13.6419C27.5408 14.5743 28.3829 15.0795 29.4736 15.1577C30.137 16.5208 29.6879 17.1945 28.1262 17.1787C27.7332 17.5717 27.3403 17.9647 26.9473 18.3577C26.9009 20.4061 26.6763 22.4272 26.2736 24.4208C25.2209 25.4977 23.9858 25.8345 22.5683 25.4313C22.3438 24.9822 22.3438 24.5331 22.5683 24.084C23.3217 23.8966 23.9954 23.5598 24.5894 23.0735C24.6549 21.0309 24.8795 19.0098 25.2631 17.0103C25.6247 16.6336 26.0177 16.2967 26.442 15.9998C25.6015 15.4443 25.0962 14.6583 24.9262 13.6419C24.814 12.0699 24.7017 10.498 24.5894 8.92609C23.9954 8.43979 23.3217 8.10295 22.5683 7.91556C22.3529 7.32103 22.409 6.75962 22.7368 6.23135Z" fill="#160D0C"/>
<path fill-rule="evenodd" clip-rule="evenodd" d="M14.3156 10.2737C17.5367 9.75289 19.9507 10.8757 21.5577 13.6421C21.8334 14.5607 21.7772 15.4589 21.3893 16.3368C18.3759 16.6643 15.3444 16.7766 12.2945 16.6737C12.3859 18.3949 13.2841 19.4616 14.9893 19.8737C17.0805 19.9262 19.0454 19.4209 20.884 18.3579C21.4675 18.4365 21.7483 18.7734 21.7261 19.3684C20.1084 20.9021 18.1435 21.6881 15.8314 21.7263C11.3413 21.2876 9.43251 18.8174 10.1051 14.3158C10.8488 12.24 12.2523 10.8926 14.3156 10.2737Z" fill="#FF2115"/>
<path fill-rule="evenodd" clip-rule="evenodd" d="M14.6528 11.958C17.2779 11.4677 18.8498 12.4782 19.3686 14.9896C17.0107 14.9896 14.6528 14.9896 12.2949 14.9896C12.6945 13.6902 13.4805 12.6797 14.6528 11.958Z" fill="#FFF2F2"/>
</g>
<defs>
<clipPath id="clip0_6_1024">
<rect width="32" height="32" fill="white"/>
</clipPath>
</defs>
</svg>
