<svg width="32" height="32" viewBox="0 0 32 32" fill="none" xmlns="http://www.w3.org/2000/svg">
<path d="M16 7.76109C13.6773 7.76109 12.0997 6.22725 12.0997 3.86076C12.0997 1.49426 13.6773 0.00424446 16 0.00424446C16.515 -0.0203604 17.0295 0.0622095 17.5109 0.246728C17.9923 0.431247 18.4302 0.713696 18.7968 1.0762C19.1635 1.4387 19.4509 1.87337 19.6408 2.35268C19.8307 2.83199 19.9191 3.34552 19.9003 3.86076C19.9254 4.37959 19.8416 4.89793 19.6545 5.38248C19.4674 5.86703 19.1809 6.30709 18.8136 6.67439C18.4463 7.04168 18.0063 7.3281 17.5217 7.51525C17.0372 7.7024 16.5188 7.78614 16 7.76109ZM24.5895 11.3985C24.0691 11.3981 23.5546 11.2888 23.0791 11.0774C22.6035 10.8661 22.1776 10.5574 21.8286 10.1714C20.1633 8.54992 20.1633 6.3149 21.8286 4.64959C22.1731 4.2616 22.5967 3.95181 23.0708 3.74102C23.5449 3.53023 24.0587 3.42332 24.5775 3.42748C25.0964 3.43163 25.6084 3.54674 26.0791 3.76509C26.5498 3.98343 26.9683 4.29996 27.3066 4.69341C27.6845 5.04888 27.9876 5.47615 28.1983 5.95023C28.409 6.4243 28.523 6.93565 28.5337 7.45432C28.5303 7.96367 28.4237 8.46705 28.2203 8.93405C28.0169 9.40105 27.721 9.82198 27.3504 10.1714C26.9981 10.5533 26.5715 10.8591 26.0967 11.0701C25.6219 11.2811 25.109 11.3929 24.5895 11.3985ZM28.1392 19.9003C27.6204 19.9254 27.1021 19.8416 26.6175 19.6545C26.133 19.4674 25.6929 19.1809 25.3256 18.8136C24.9583 18.4463 24.6719 18.0063 24.4848 17.5217C24.2976 17.0372 24.2139 16.5188 24.2389 16C24.2139 15.4812 24.2976 14.9628 24.4848 14.4783C24.6719 13.9937 24.9583 13.5537 25.3256 13.1864C25.6929 12.8191 26.133 12.5327 26.6175 12.3455C27.1021 12.1584 27.6204 12.0746 28.1392 12.0997C30.4619 12.0997 31.9958 13.6773 31.9958 16C32.0204 16.515 31.9378 17.0295 31.7533 17.5109C31.5688 17.9923 31.2863 18.4302 30.9238 18.7968C30.5613 19.1635 30.1266 19.4509 29.6473 19.6408C29.168 19.8307 28.6545 19.9191 28.1392 19.9003ZM24.5457 28.5337C23.7774 28.5145 23.0315 28.2713 22.3996 27.834C21.7677 27.3967 21.2773 26.7843 20.9887 26.072C20.7 25.3598 20.6258 24.5787 20.775 23.8249C20.9242 23.071 21.2904 22.3772 21.8286 21.8286C22.1701 21.4305 22.5936 21.1109 23.0702 20.8918C23.5467 20.6728 24.065 20.5593 24.5895 20.5593C25.114 20.5593 25.6323 20.6728 26.1089 20.8918C26.5854 21.1109 27.0089 21.4305 27.3504 21.8286C27.7384 22.1731 28.0482 22.5967 28.259 23.0708C28.4698 23.5449 28.5767 24.0587 28.5725 24.5775C28.5684 25.0964 28.4533 25.6084 28.2349 26.0791C28.0166 26.5498 27.7 26.9683 27.3066 27.3066C26.9511 27.6845 26.5239 27.9876 26.0498 28.1983C25.5757 28.409 25.0644 28.523 24.5457 28.5337ZM16 31.9958C15.485 32.0204 14.9705 31.9378 14.4891 31.7533C14.0077 31.5688 13.5698 31.2863 13.2032 30.9238C12.8365 30.5613 12.5492 30.1266 12.3592 29.6473C12.1693 29.168 12.0809 28.6545 12.0997 28.1392C12.0746 27.6204 12.1584 27.1021 12.3455 26.6175C12.5327 26.133 12.8191 25.6929 13.1864 25.3256C13.5537 24.9583 13.9937 24.6719 14.4783 24.4848C14.9628 24.2976 15.4812 24.2139 16 24.2389C18.3665 24.2389 19.9442 25.8166 19.9442 28.1392C19.9442 30.4619 18.3665 31.9958 16 31.9958ZM7.45432 28.5775C6.93294 28.5588 6.42045 28.4368 5.94653 28.2187C5.47261 28.0005 5.04668 27.6905 4.69341 27.3066C4.31214 26.9608 4.00668 26.5397 3.79629 26.07C3.58591 25.6002 3.47516 25.0919 3.47104 24.5772C3.46692 24.0625 3.56952 23.5525 3.77237 23.0794C3.97521 22.6064 4.2739 22.1805 4.64959 21.8286C5.0019 21.4467 5.42854 21.1409 5.90331 20.9299C6.37808 20.7189 6.89098 20.6071 7.4105 20.6015C7.9366 20.6063 8.45628 20.7175 8.93829 20.9284C9.4203 21.1393 9.85466 21.4455 10.2152 21.8286C11.8367 23.4939 11.8367 25.6851 10.2152 27.3504C9.49149 28.1057 8.49994 28.5464 7.45432 28.5775ZM3.86076 19.9003C1.53808 19.9003 0.00424446 18.3665 0.00424446 16C-0.0203604 15.485 0.0622095 14.9705 0.246728 14.4891C0.431247 14.0077 0.713696 13.5698 1.0762 13.2032C1.4387 12.8365 1.87337 12.5492 2.35268 12.3592C2.83199 12.1693 3.34552 12.0809 3.86076 12.0997C4.37959 12.0746 4.89793 12.1584 5.38248 12.3455C5.86703 12.5327 6.30709 12.8191 6.67439 13.1864C7.04168 13.5537 7.3281 13.9937 7.51525 14.4783C7.7024 14.9628 7.78614 15.4812 7.76109 16C7.76109 18.3665 6.22725 19.9003 3.86076 19.9003ZM7.4105 11.4423C6.36488 11.4112 5.37334 10.9705 4.64959 10.2152C3.0281 8.54992 3.0281 6.35872 4.69341 4.69341C5.41716 3.93811 6.4087 3.49743 7.45432 3.46634C7.96367 3.46973 8.46705 3.57632 8.93405 3.77969C9.40105 3.98307 9.82198 4.27899 10.1714 4.64959C10.5545 5.01016 10.8608 5.44452 11.0716 5.92653C11.2825 6.40854 11.3937 6.92823 11.3985 7.45432C11.3929 7.97385 11.2811 8.48674 11.0701 8.96151C10.8591 9.43629 10.5533 9.86292 10.1714 10.2152C9.81595 10.5931 9.38867 10.8963 8.9146 11.107C8.44052 11.3177 7.92918 11.4317 7.4105 11.4423ZM16 20.1633C15.4812 20.1883 14.9628 20.1046 14.4783 19.9174C13.9937 19.7303 13.5537 19.4439 13.1864 19.0766C12.8191 18.7093 12.5327 18.2692 12.3455 17.7847C12.1584 17.3001 12.0746 16.7818 12.0997 16.2629C12.0997 13.9403 13.6773 12.4064 16 12.4064C16.515 12.3818 17.0295 12.4644 17.5109 12.6489C17.9923 12.8334 18.4302 13.1159 18.7968 13.4784C19.1635 13.8409 19.4509 14.2756 19.6408 14.7549C19.8307 15.2342 19.9191 15.7477 19.9003 16.2629C19.9187 16.7801 19.8304 17.2955 19.6409 17.777C19.4514 18.2585 19.1647 18.6959 18.7988 19.0618C18.4329 19.4277 17.9956 19.7143 17.5141 19.9038C17.0325 20.0933 16.5171 20.1817 16 20.1633Z" fill="#228AE6"/>
</svg>
