<svg width="32" height="32" viewBox="0 0 32 32" fill="none" xmlns="http://www.w3.org/2000/svg">
<mask id="mask0_5995_1027" style="mask-type:luminance" maskUnits="userSpaceOnUse" x="2" y="0" width="28" height="32">
<path d="M29.6851 0.408508H2.17871V31.4553H29.6851V0.408508Z" fill="white"/>
</mask>
<g mask="url(#mask0_5995_1027)">
<path d="M28.8143 7.94817C28.1686 7.12101 27.3454 6.45192 26.4068 5.99097L19.0868 1.68406C18.088 1.09535 17.0379 0.49115 15.8699 0.49115C14.7021 0.49115 13.6572 1.09019 12.6634 1.67374L5.57912 5.80505C4.46757 6.47122 3.29966 7.17871 2.69521 8.32515C2.18298 9.32182 2.18298 10.5096 2.18298 11.6405C2.18298 14.4911 2.18298 17.34 2.18298 20.1872C2.18298 21.4679 2.18298 22.8261 2.88987 23.9002C3.51808 24.7282 4.32813 25.3982 5.25641 25.8574L12.4687 30.1488C13.4317 30.7169 14.4358 31.3004 15.5422 31.3727C16.9303 31.4605 18.2264 30.7324 19.4351 30.03L25.7357 26.3532C27.1802 25.5063 28.7273 24.5406 29.3214 22.9655C29.5493 22.1395 29.6325 21.2796 29.5673 20.4247C29.5673 17.5741 29.5673 14.7235 29.5673 11.8729C29.5673 10.5199 29.5673 9.07911 28.8143 7.94817ZM9.86144 18.5088H7.09023V20.7139H9.69752V21.0909H7.09023V23.5956H9.85119V23.9673H6.68556V18.1319H9.85119L9.86144 18.5088ZM13.6878 23.9673L12.3304 22.0308L10.9679 23.9673H10.5376L12.0999 21.7364L10.6144 19.6295H11.0652L12.3458 21.4576L13.6212 19.6295H14.0515L12.5558 21.7364L14.1387 23.9673H13.6878ZM16.9765 23.9673C16.7649 24.0369 16.5433 24.0701 16.3208 24.0655C16.1668 24.0786 16.0118 24.0577 15.8668 24.0042C15.7217 23.9507 15.5898 23.8659 15.4808 23.7556C15.2766 23.4723 15.1853 23.1222 15.2246 22.7745V19.9703H14.5638V19.743L15.2246 19.5623L15.4192 18.5811H15.6242V19.6139H16.8637V19.9548H15.6036V22.7175C15.5833 22.9761 15.6443 23.2344 15.7778 23.4561C15.8423 23.5388 15.926 23.6043 16.0218 23.6466C16.1174 23.689 16.2218 23.7068 16.3258 23.6988C16.5423 23.7079 16.759 23.6905 16.9713 23.6472L16.9765 23.9673ZM20.5211 23.9673C20.5211 24.9537 20.0652 25.4442 19.1638 25.4442C18.9586 25.451 18.7544 25.414 18.5643 25.3358V24.9846C18.7587 25.0345 18.9581 25.0605 19.1586 25.0621C19.7938 25.0621 20.1164 24.7109 20.1164 24.0293V18.1319H20.5211V23.9673ZM20.8234 12.9987C20.6029 13.8215 20.1854 14.5773 19.6075 15.1994C19.0298 15.8217 18.3092 16.2914 17.5092 16.5671C17.7461 16.4014 17.9471 16.1885 18.0995 15.9416C18.2518 15.6947 18.3525 15.4191 18.3954 15.1315C18.4332 14.8435 18.4103 14.5506 18.3282 14.2721C18.2461 13.9935 18.1067 13.7356 17.9189 13.5151C17.6471 13.2232 17.3263 12.982 16.9713 12.8025C15.496 11.9917 13.7954 11.4856 12.6531 10.2204C12.1061 9.6108 11.7207 8.87178 11.5326 8.0719C11.3446 7.27203 11.36 6.43722 11.5774 5.64496C11.8067 4.85619 12.2169 4.1329 12.7748 3.53361C13.3328 2.93431 14.0229 2.47585 14.7892 2.19532C14.5608 2.36517 14.3699 2.58102 14.2285 2.82917C14.0872 3.07734 13.9986 3.35239 13.9682 3.63691C13.9378 3.92142 13.9664 4.20919 14.0522 4.48197C14.138 4.75474 14.2791 5.00658 14.4664 5.22151C14.7497 5.52472 15.0867 5.77169 15.4602 5.94965C16.8433 6.69328 18.421 7.16321 19.5581 8.26834C20.1564 8.87931 20.5871 9.63647 20.8082 10.4657C21.029 11.2949 21.0324 12.1677 20.8182 12.9987H20.8234ZM24.4808 23.6472C24.0705 23.9497 23.5695 24.101 23.0619 24.0758C22.5106 24.1016 21.9593 24.021 21.4381 23.8382V23.4303C21.9459 23.6265 22.4875 23.7178 23.0311 23.6988C23.4347 23.7221 23.8343 23.6054 24.1631 23.3683C24.2972 23.2696 24.4055 23.1395 24.4788 22.9893C24.5519 22.8391 24.5877 22.6731 24.5832 22.5059C24.5986 22.3048 24.5501 22.1041 24.4449 21.9327C24.329 21.765 24.1743 21.6286 23.9941 21.535C23.7027 21.3741 23.3954 21.2443 23.0772 21.1478C22.6248 21.0207 22.2065 20.793 21.853 20.4815C21.7348 20.3517 21.6436 20.1995 21.5846 20.0336C21.5258 19.8678 21.5003 19.6917 21.5097 19.5159C21.5053 19.3095 21.5495 19.1051 21.6385 18.9193C21.7276 18.7335 21.859 18.5716 22.022 18.4468C22.3954 18.158 22.8581 18.0116 23.3283 18.0337C23.8561 18.0302 24.3791 18.1357 24.8649 18.3436L24.7164 18.6948C24.2816 18.5023 23.8133 18.3986 23.3385 18.3901C22.9733 18.3703 22.6121 18.476 22.3139 18.6896C22.1884 18.7856 22.0877 18.911 22.0207 19.055C21.9539 19.1989 21.9227 19.357 21.9298 19.5159C21.9258 19.6951 21.9664 19.8727 22.0476 20.0323C22.1409 20.1882 22.2735 20.3165 22.4318 20.404C22.7218 20.567 23.0272 20.7002 23.3435 20.8018C23.7023 20.9123 24.0464 21.0666 24.3681 21.2613C24.581 21.385 24.7576 21.5631 24.8803 21.7777C24.9925 21.9866 25.0474 22.222 25.0391 22.4594C25.0492 22.6883 25.0036 22.9162 24.9062 23.1232C24.8088 23.3302 24.6629 23.5101 24.4808 23.6472Z" fill="#99C356"/>
</g>
</svg>
