<svg width="32" height="32" viewBox="0 0 32 32" fill="none" xmlns="http://www.w3.org/2000/svg">
<g clip-path="url(#clip0_13_2)">
<path d="M30.0928 28.6241C30.1912 28.7193 30.2687 28.8339 30.3205 28.9606C30.3723 29.0873 30.3972 29.2233 30.3936 29.3601C30.3948 29.566 30.3346 29.7676 30.2208 29.9392C30.1069 30.1107 29.9446 30.2445 29.7544 30.3235C29.5642 30.4024 29.3549 30.423 29.153 30.3825C28.9511 30.342 28.7659 30.2423 28.6208 30.0961C28.5242 29.9997 28.4477 29.8849 28.3961 29.7585C28.3444 29.6321 28.3186 29.4967 28.32 29.3601C28.3196 29.2236 28.3461 29.0882 28.398 28.9619C28.4499 28.8356 28.5261 28.7207 28.6224 28.6238C28.7187 28.5269 28.8331 28.45 28.9591 28.3973C29.0851 28.3447 29.2203 28.3174 29.3568 28.3169C29.4941 28.3142 29.6305 28.3402 29.7572 28.393C29.8839 28.4459 29.9982 28.5246 30.0928 28.6241ZM30.2144 28.5057C30.103 28.3918 29.9694 28.3018 29.8219 28.2413C29.6745 28.1808 29.5162 28.151 29.3568 28.1537C29.1584 28.1542 28.9632 28.2036 28.7885 28.2975C28.6137 28.3914 28.4648 28.5269 28.355 28.6921C28.2451 28.8573 28.1777 29.0471 28.1587 29.2445C28.1397 29.442 28.1697 29.6411 28.246 29.8243C28.3223 30.0074 28.4426 30.1689 28.5963 30.2944C28.7499 30.4199 28.9321 30.5056 29.1268 30.5439C29.3214 30.5821 29.5225 30.5718 29.7122 30.5138C29.902 30.4558 30.0745 30.3519 30.2144 30.2113C30.3269 30.0993 30.4161 29.9661 30.4769 29.8195C30.5378 29.6729 30.5691 29.5157 30.5691 29.3569C30.5691 29.1982 30.5378 29.041 30.4769 28.8944C30.4161 28.7478 30.3269 28.6146 30.2144 28.5025V28.5057ZM29.536 29.3025C29.4639 29.3262 29.3879 29.336 29.312 29.3313H29.104V28.8513H29.3056C29.4336 28.8513 29.5296 28.8673 29.584 28.8993C29.6384 28.9313 29.6736 28.9985 29.6736 29.0913C29.6768 29.1363 29.665 29.1811 29.6401 29.2187C29.6153 29.2563 29.5787 29.2847 29.536 29.2993V29.3025ZM28.8704 30.0129H29.104V29.4945H29.2896C29.4112 29.4945 29.5008 29.5073 29.5488 29.5361C29.632 29.5873 29.6736 29.6865 29.6736 29.8401V29.9457L29.6768 29.9873C29.6784 29.9926 29.6794 29.9979 29.68 30.0033C29.68 30.0097 29.6832 30.0129 29.6864 30.0129H29.904L29.8976 30.0001C29.8879 29.9791 29.8835 29.9561 29.8848 29.9329V29.7377C29.8812 29.6622 29.8544 29.5895 29.808 29.5297C29.76 29.4593 29.6832 29.4177 29.5808 29.3985C29.6483 29.3894 29.7134 29.3677 29.7728 29.3345C29.8592 29.2769 29.9008 29.1873 29.9008 29.0721C29.9008 28.9057 29.8368 28.7937 29.696 28.7361C29.6192 28.7041 29.5008 28.6881 29.3344 28.6881H28.8704V30.0129Z" fill="#E4002B"/>
<path d="M30.6752 19.8495C30.7616 18.1439 30.4448 16.3039 28.96 14.6399C27.4336 12.9951 24.8576 11.5999 19.5616 11.2735C19.8368 10.4159 20.0768 9.62874 20.3296 8.82554C23.4976 8.93754 26.3168 9.16474 28.7136 9.47514C28.9056 8.61754 29.008 7.77914 29.2032 6.96634C28.96 6.61008 28.7019 6.26448 28.4288 5.92954C27.2896 5.79514 26.1504 5.51354 24.928 5.35354C23.1814 5.13066 21.4263 4.98013 19.6672 4.90234C18.2695 9.06433 16.8817 13.2297 15.504 17.3983C23.3824 18.0799 26.416 20.2047 26.24 23.1999C26.08 24.8191 24.6048 26.2879 22.656 26.4639C20.3456 26.6207 19.2864 25.6831 18.592 24.6591C17.9606 23.7133 17.3345 22.7639 16.7136 21.8111C16.5376 21.5167 16.304 21.7087 16.0928 21.9135C15.626 22.3662 15.1577 22.8174 14.688 23.2671C14.3872 23.5295 14.4544 23.7567 14.56 23.9775C14.9763 24.9594 15.3988 25.9386 15.8272 26.9151C16.5152 27.3375 19.76 27.9135 22.1856 27.7343C24.1385 27.5536 26.0051 26.8433 27.584 25.6799C29.264 24.3775 30.4864 22.6239 30.6752 19.8495Z" fill="white"/>
<path d="M3.11364 25.4816C3.41658 25.8934 3.73871 26.2891 4.08005 26.6688C7.27484 27.2114 10.5045 27.5236 13.744 27.6032L13.712 26.4992C11.5392 26.3776 10.5408 26.0448 10.368 25.616C10.2208 25.2736 10.1952 24.7616 10.1664 24.2592C10.001 20.7365 9.94767 17.2094 10.0064 13.6832C11.2224 13.6608 12.432 13.6512 13.7024 13.6352C14.3168 13.3568 14.896 13.0784 15.5104 12.8032L15.5136 11.5456C13.632 11.552 11.8464 11.584 10.0544 11.6352C10.1056 10.1088 10.1664 8.70403 10.256 7.33123C10.32 6.42883 10.944 5.76963 11.5872 5.71843C12.6208 5.67683 13.5456 6.08963 14.4448 6.48643C14.9376 6.72643 15.4272 6.96643 15.9328 7.22243C16.176 7.28643 16.464 7.34403 16.6368 7.13603C16.9376 6.77763 17.2224 6.44803 17.5168 6.10243C17.6768 5.86563 17.6096 5.73123 17.5424 5.64483C16.9278 5.16108 16.307 4.68531 15.68 4.21763C15.3024 3.96163 14.704 3.90723 14.112 3.90723C13.8784 3.90723 13.6448 3.91363 13.424 3.92003C12.8192 3.95203 12.048 4.04803 10.7872 4.35843C7.94564 5.12323 4.53444 7.10403 4.17284 10.3424C4.12666 10.8742 4.08719 11.4065 4.05444 11.9392C3.25124 12.0032 2.51844 12.064 1.83044 12.1312C1.78173 12.7449 1.74439 13.3594 1.71844 13.9744C2.41604 13.9328 3.14564 13.8944 3.95844 13.8592C3.83684 17.2576 3.94884 20.6464 4.26884 23.7888C4.32324 24.2656 4.37445 24.7392 4.31365 25.0432C4.26245 25.3344 3.79205 25.488 3.11364 25.4816Z" fill="white"/>
<path d="M29.2064 6.96646C29.008 7.77606 28.9056 8.61766 28.7168 9.47526C26.3168 9.16486 23.5008 8.93766 20.3328 8.82566C20.0768 9.62566 19.8368 10.4161 19.5648 11.2737C24.8608 11.6001 27.4368 12.9953 28.9632 14.6401C30.448 16.3041 30.7616 18.1441 30.6752 19.8497C30.4832 22.6241 29.264 24.3777 27.584 25.6769C25.888 26.9569 23.8304 27.5905 22.1856 27.7313C19.7632 27.9105 16.5216 27.3345 15.8304 26.9121C15.4014 25.9357 14.979 24.9565 14.5632 23.9745C14.4576 23.7537 14.3904 23.5265 14.6912 23.2641C15.1609 22.8143 15.6292 22.3631 16.096 21.9105C16.3072 21.7057 16.5408 21.5137 16.7168 21.8081C17.3696 22.8129 17.9808 23.7377 18.592 24.6561C19.2864 25.6801 20.3456 26.6177 22.6624 26.4609C24.6048 26.2881 26.0864 24.8161 26.2432 23.1969C26.4128 20.2017 23.3824 18.0769 15.5008 17.3953C17.0144 12.8321 18.4896 8.41606 19.6672 4.90566C21.5392 4.99206 23.2704 5.14566 24.928 5.36006C26.1504 5.51366 27.2896 5.79846 28.4288 5.92966C26.3468 3.36147 23.5203 1.5013 20.3381 0.604921C17.1558 -0.291458 13.774 -0.180027 10.6576 0.923892C7.54121 2.02781 4.84333 4.07001 2.93489 6.76968C1.02645 9.46936 0.00116502 12.6939 1.67928e-05 16.0001C-0.00493772 19.4126 1.08656 22.7364 3.11362 25.4817C3.79202 25.4881 4.26242 25.3345 4.31362 25.0433C4.37442 24.7361 4.32322 24.2657 4.26882 23.7889C3.94882 20.6465 3.83682 17.2577 3.95522 13.8593C3.20826 13.8918 2.46157 13.9302 1.71522 13.9745C1.74722 13.3441 1.77922 12.7489 1.83042 12.1313C2.52162 12.0641 3.25122 12.0033 4.05442 11.9393C4.08642 11.3953 4.12482 10.8737 4.17282 10.3457C4.53442 7.10406 7.94562 5.12006 10.7872 4.35846C11.6502 4.12924 12.5332 3.9835 13.424 3.92326C13.6448 3.91366 13.8784 3.90726 14.1152 3.90726C14.704 3.90726 15.2992 3.96166 15.68 4.21766C16.2944 4.67846 16.896 5.13606 17.5424 5.64486C17.6064 5.73126 17.6768 5.86886 17.5168 6.10246L16.64 7.13606C16.4672 7.34406 16.1792 7.28966 15.936 7.22566C15.4304 6.96646 14.944 6.72646 14.448 6.48966C13.552 6.08966 12.624 5.67686 11.5904 5.72166C10.9472 5.76966 10.3232 6.42886 10.2592 7.33126C10.1696 8.70406 10.1088 10.1089 10.0576 11.6353C11.8496 11.5841 13.6352 11.5521 15.52 11.5425L15.5168 12.8033C14.9024 13.0785 14.3232 13.3569 13.7056 13.6353C12.4352 13.6513 11.2256 13.6609 10.0096 13.6833C9.95039 17.2094 10.0037 20.7365 10.1696 24.2593C10.2016 24.7617 10.2272 25.2737 10.3712 25.6129C10.544 26.0449 11.5424 26.3745 13.7184 26.4993L13.7504 27.6001C10.511 27.5227 7.28135 27.2126 4.08642 26.6721C6.24792 29.0832 9.09015 30.7817 12.2375 31.5432C15.3849 32.3047 18.6892 32.0933 21.7138 30.9369C24.7385 29.7805 27.341 27.7336 29.1776 25.0666C31.0142 22.3997 31.9984 19.2382 32 16.0001C32.0056 12.7744 31.0315 9.62303 29.2064 6.96326V6.96646Z" fill="#E4002B"/>
</g>
<defs>
<clipPath id="clip0_13_2">
<rect width="32" height="32" fill="white"/>
</clipPath>
</defs>
</svg>
