<svg width="32" height="32" viewBox="0 0 33 33" fill="none" xmlns="http://www.w3.org/2000/svg">
    <path fill-rule="evenodd" clip-rule="evenodd"
        d="M28.9128 0.680908C28.9128 0.858522 28.9128 1.03611 28.9128 1.21372C28.9128 10.4492 28.9128 19.6846 28.9128 28.9201C22.9635 28.9201 17.0139 28.9201 11.0646 28.9201C11.0646 27.6768 11.0646 26.4338 11.0646 25.1904C15.7709 25.1904 20.477 25.1904 25.1833 25.1904C20.6123 25.456 15.9949 25.5448 11.331 25.4568C11.331 26.5225 11.331 27.5881 11.331 28.6537C17.1029 28.6537 22.8745 28.6537 28.6464 28.6537C28.5579 19.2839 28.6469 9.95973 28.9128 0.680908Z"
        fill="#EADFF8" />
    <path fill-rule="evenodd" clip-rule="evenodd"
        d="M25.1833 11.0707C25.1833 7.60744 25.1833 4.14414 25.1833 0.680837C17.0139 0.680837 8.84467 0.680837 0.675331 0.680837C0.675331 11.2484 0.675331 21.8158 0.675331 32.3834C0.409313 21.7723 0.320525 11.1161 0.40894 0.414429C8.75585 0.414429 17.1029 0.414429 25.4497 0.414429C25.5373 4.01373 25.4486 7.56583 25.1833 11.0707Z"
        fill="#C1A2EC" />
    <path fill-rule="evenodd" clip-rule="evenodd"
        d="M25.1833 11.0708C20.4769 11.0708 15.7709 11.0708 11.0645 11.0708C11.0645 12.3141 11.0645 13.5572 11.0645 14.8005C15.7709 14.8005 20.4769 14.8005 25.1833 14.8005C25.1833 18.2638 25.1833 21.7271 25.1833 25.1904C20.4769 25.1904 15.7709 25.1904 11.0645 25.1904C11.0645 26.4338 11.0645 27.6768 11.0645 28.9201C17.0139 28.9201 22.9634 28.9201 28.9127 28.9201C28.9127 19.6846 28.9127 10.4492 28.9127 1.21372C29.9517 0.965991 31.0172 0.877171 32.1094 0.947316C32.1094 11.3372 32.1094 21.7271 32.1094 32.117C23.9832 32.0289 15.9027 32.1176 7.86785 32.3834C7.60263 28.8786 7.51384 25.3263 7.60146 21.7271C12.3077 21.7271 17.0139 21.7271 21.7202 21.7271C21.7202 20.5728 21.7202 19.4182 21.7202 18.2638C17.0139 18.2638 12.3077 18.2638 7.60146 18.2638C7.60146 14.7118 7.60146 11.1596 7.60146 7.60751C12.3077 7.60751 17.0139 7.60751 21.7202 7.60751C21.7202 6.45309 21.7202 5.29864 21.7202 4.14421C15.8596 4.14421 9.99898 4.14421 4.13838 4.14421C4.13838 13.5572 4.13838 22.9705 4.13838 32.3834C2.98402 32.3834 1.82965 32.3834 0.675293 32.3834C0.675293 21.8158 0.675293 11.2484 0.675293 0.680908C8.84463 0.680908 17.0139 0.680908 25.1833 0.680908C25.1833 4.14421 25.1833 7.60751 25.1833 11.0708Z"
        fill="#AA73F0" />
    <path fill-rule="evenodd" clip-rule="evenodd"
        d="M7.86792 32.3834C15.9028 32.1175 23.9832 32.0288 32.1095 32.117C32.1095 21.7271 32.1095 11.3372 32.1095 0.94729C31.0173 0.877145 29.9517 0.965966 28.9128 1.2137C28.9128 1.03608 28.9128 0.858497 28.9128 0.680883C30.0141 0.418498 31.1686 0.329704 32.3759 0.414475C32.3759 11.0708 32.3759 21.7271 32.3759 32.3834C24.2065 32.3834 16.0373 32.3834 7.86792 32.3834Z"
        fill="#A267EB" />
    <path fill-rule="evenodd" clip-rule="evenodd"
        d="M25.1833 11.0708C20.6123 11.3363 15.9949 11.4251 11.331 11.3372C11.331 12.4028 11.331 13.4685 11.331 14.5341C15.9949 14.4462 20.6123 14.5349 25.1833 14.8005C20.477 14.8005 15.7709 14.8005 11.0646 14.8005C11.0646 13.5572 11.0646 12.314 11.0646 11.0708C15.7709 11.0708 20.477 11.0708 25.1833 11.0708Z"
        fill="#E5D8F5" />
</svg>