<svg xmlns="http://www.w3.org/2000/svg" viewBox="0 0 500 500"><defs><style>.cls-1{fill:#fff;}.cls-2{fill:#fa1450;}</style></defs><g id="Layer_1" data-name="Layer 1"><rect class="cls-1" x="72.93" y="72.5" width="356" height="356" rx="45"/><path class="cls-2" d="M386.93,71.5h-271a43,43,0,0,0-43,43v76.06A74,74,0,0,1,91,188.39c30.84,0,53.73,15.91,83.46,33.05,11.63,6.73,20,11.75,27.66,11.75,4.72,0,8.24-2,11.51-4.91a.13.13,0,0,0,0-.2l-52.45-29.86c-11.87-7.46-27.9-18.72-27.9-26.43,0-11.51,18.93-20.87,33-20.87,16.89,0,36.62,10.1,51.31,29.19l23.55,29.66.09,0c30.08.64,50.85,23,50.85,52.63,0,25.82-12,31.57-38.91,31.57-12.47,0-24-4.27-34.71-11l-.11,0a75.21,75.21,0,0,0-22.42,11.83l-.08,0a126,126,0,0,0-16.72-1.09,103.09,103.09,0,0,0-20.47,1.93l-.13-.07-6.45-15.82c-12.85-31.33-33.78-47-62.17-47-8.61,0-17,0-17,6.67s7.94,6.67,17.82,6.67c18.26,0,39.89,15,49.93,37.32l10.48,23.9.14.07c8-2.07,14.4-3.28,28.78-3.28,29.38,0,47.24,11.13,47.24,28.51,0,10.53-7.34,16.4-21.54,16.4-9.42,0-12.72-3.18-25.57-3.18s-18.61,3.18-25.46,3.18c-7.34,0-12.24-1.22-22.39-10.4L93.23,305.42l-.08,0c-1.46,0-2.91.12-4.36.12a122.12,122.12,0,0,1-15.86-1v81a43,43,0,0,0,43,43h271a43,43,0,0,0,43-43v-271A43,43,0,0,0,386.93,71.5Z"/><circle class="cls-2" cx="251.43" cy="250" r="8.59"/></g><g id="Layer_1_copy" data-name="Layer 1 copy"><rect class="cls-1" x="72.93" y="72.5" width="356" height="356" rx="45"/><path class="cls-2" d="M386.93,71.5h-271a43,43,0,0,0-43,43v76.06A74,74,0,0,1,91,188.39c30.84,0,53.73,15.91,83.46,33.05,11.63,6.73,20,11.75,27.66,11.75,4.72,0,8.24-2,11.51-4.91a.13.13,0,0,0,0-.2l-52.45-29.86c-11.87-7.46-27.9-18.72-27.9-26.43,0-11.51,18.93-20.87,33-20.87,16.89,0,36.62,10.1,51.31,29.19l23.55,29.66.09,0c30.08.64,50.85,23,50.85,52.63,0,25.82-12,31.57-38.91,31.57-12.47,0-24-4.27-34.71-11l-.11,0a75.21,75.21,0,0,0-22.42,11.83l-.08,0a126,126,0,0,0-16.72-1.09,103.09,103.09,0,0,0-20.47,1.93l-.13-.07-6.45-15.82c-12.85-31.33-33.78-47-62.17-47-8.61,0-17,0-17,6.67s7.94,6.67,17.82,6.67c18.26,0,39.89,15,49.93,37.32l10.48,23.9.14.07c8-2.07,14.4-3.28,28.78-3.28,29.38,0,47.24,11.13,47.24,28.51,0,10.53-7.34,16.4-21.54,16.4-9.42,0-12.72-3.18-25.57-3.18s-18.61,3.18-25.46,3.18c-7.34,0-12.24-1.22-22.39-10.4L93.23,305.42l-.08,0c-1.46,0-2.91.12-4.36.12a122.12,122.12,0,0,1-15.86-1v81a43,43,0,0,0,43,43h271a43,43,0,0,0,43-43v-271A43,43,0,0,0,386.93,71.5Z"/><circle class="cls-2" cx="251.43" cy="250" r="8.59"/></g></svg>