<svg width="32" height="32" viewBox="0 0 32 32" fill="none" xmlns="http://www.w3.org/2000/svg">
<g clip-path="url(#clip0_14_84)">
<path opacity="0.971" fill-rule="evenodd" clip-rule="evenodd" d="M1.66669 -0.111084C11.1482 -0.111084 20.6296 -0.111084 30.1111 -0.111084C30.926 0.259287 31.5185 0.851878 31.8889 1.66669C31.8889 3.3704 31.8889 5.07409 31.8889 6.7778C31.5045 5.70618 31.4302 4.59507 31.6667 3.44447C31.0136 1.70732 29.7545 0.707325 27.8889 0.444472C19.8889 0.296323 11.8889 0.296323 3.88892 0.444472C2.85916 0.552056 1.97026 0.959465 1.22225 1.66669C0.586554 2.64409 0.14211 3.68112 -0.111084 4.7778C-0.111084 3.74076 -0.111084 2.70374 -0.111084 1.66669C0.259287 0.851878 0.851878 0.259287 1.66669 -0.111084Z" fill="#48799B"/>
<path fill-rule="evenodd" clip-rule="evenodd" d="M31.8889 6.7777C31.8889 8.25919 31.8889 9.74065 31.8889 11.2221C31.6476 11.1955 31.4994 11.0473 31.4445 10.7777C30.864 8.81603 30.5676 6.81603 30.5556 4.7777C30.91 3.08412 30.2434 1.93597 28.5556 1.33325C20.1111 1.1851 11.6667 1.1851 3.22225 1.33325C2.46616 1.64434 1.83654 2.12582 1.33336 2.7777C0.871216 5.13587 0.389734 7.43216 -0.111084 9.66659C-0.111084 8.03696 -0.111084 6.40732 -0.111084 4.7777C0.14211 3.68101 0.586554 2.64399 1.22225 1.66659C1.97026 0.959357 2.85916 0.551948 3.88892 0.444364C11.8889 0.296215 19.8889 0.296215 27.8889 0.444364C29.7545 0.707217 31.0136 1.70722 31.6667 3.44436C31.4302 4.59496 31.5045 5.70607 31.8889 6.7777Z" fill="#3E6F92"/>
<path fill-rule="evenodd" clip-rule="evenodd" d="M30.5556 4.77772C30.1614 4.97097 29.8651 5.26728 29.6667 5.66661C29.614 4.96721 29.4289 4.30055 29.1111 3.66661C28.8509 3.35701 28.5176 3.17184 28.1111 3.11106C19.963 2.9629 11.8148 2.9629 3.66669 3.11106C3.26027 3.17184 2.92694 3.35701 2.66669 3.66661C1.6117 6.30215 0.982067 9.11695 0.777805 12.1111C0.387334 13.1193 0.0910371 14.1564 -0.111084 15.2222C-0.111084 13.3703 -0.111084 11.5185 -0.111084 9.66661C0.389734 7.43219 0.871216 5.1359 1.33336 2.77772C1.83654 2.12585 2.46616 1.64436 3.22225 1.33328C11.6667 1.18513 20.1111 1.18513 28.5556 1.33328C30.2434 1.93599 30.91 3.08415 30.5556 4.77772Z" fill="#326284"/>
<path fill-rule="evenodd" clip-rule="evenodd" d="M29.6667 5.66667C28.4225 7.42989 26.9409 8.98545 25.2223 10.3333C25.1483 10.3333 25.0741 10.3333 25.0001 10.3333C24.7774 9.18414 24.1107 8.40636 23.0001 8.00001C21.3704 7.85185 19.7408 7.85185 18.1112 8.00001C17.3343 8.14574 16.6677 8.47907 16.1112 9.00001C14.3001 8.77941 12.4482 8.70532 10.5556 8.77778C10.5556 8.40741 10.5556 8.03705 10.5556 7.66667C12.0567 7.80509 13.4641 7.65696 14.7778 7.22223C14.996 6.45292 15.0701 5.63809 15.0001 4.77778C12.4418 4.70487 9.92325 4.77894 7.4445 5.00001C7.25823 5.07594 7.18414 5.22409 7.22228 5.44445C7.00863 5.83658 6.93457 6.28103 7.00005 6.77778C5.73863 6.74087 4.47937 6.77792 3.22228 6.88889C2.96301 7.29629 2.70377 7.70372 2.4445 8.11112C2.2591 9.03969 1.96281 9.92858 1.55561 10.7778C1.48154 10.7037 1.40746 10.6296 1.33339 10.5556C1.18143 10.8409 1.21847 11.1001 1.4445 11.3333C1.15247 11.5522 0.930245 11.8115 0.777832 12.1111C0.982094 9.11701 1.61172 6.30221 2.66672 3.66667C2.92697 3.35707 3.2603 3.17189 3.66672 3.11112C11.8149 2.96296 19.963 2.96296 28.1112 3.11112C28.5176 3.17189 28.8509 3.35707 29.1112 3.66667C29.4289 4.30061 29.6141 4.96727 29.6667 5.66667Z" fill="#2B587A"/>
<path fill-rule="evenodd" clip-rule="evenodd" d="M7.44446 5.00008C9.92321 4.77901 12.4417 4.70495 15 4.77786C15.07 5.63817 14.9959 6.45299 14.7778 7.2223C14.7778 6.48157 14.7778 5.74081 14.7778 5.00008C12.3333 5.00008 9.8889 5.00008 7.44446 5.00008Z" fill="#A2B0BE"/>
<path fill-rule="evenodd" clip-rule="evenodd" d="M7.44447 5C9.88891 5 12.3334 5 14.7778 5C14.7778 5.74073 14.7778 6.48149 14.7778 7.22222C13.464 7.65696 12.0566 7.80509 10.5556 7.66667C10.5556 8.03704 10.5556 8.4074 10.5556 8.77778C10.5556 10.1111 10.5556 11.4444 10.5556 12.7778C11.7408 12.7778 12.926 12.7778 14.1111 12.7778C14.1479 13.6697 14.1109 14.5586 14 15.4444C13.9382 15.648 13.827 15.7961 13.6667 15.8889C12.6296 15.8889 11.5926 15.8889 10.5556 15.8889C10.5556 17 10.5556 18.1111 10.5556 19.2222C10.5556 19.8889 10.5556 20.5556 10.5556 21.2222C10.5556 22.3333 10.5556 23.4444 10.5556 24.5556C10.5934 24.8493 10.5193 25.1087 10.3334 25.3333C9.29895 25.4442 8.26191 25.4813 7.22224 25.4444C7.22224 18.7778 7.22224 12.1111 7.22224 5.44444C7.18411 5.22409 7.2582 5.07593 7.44447 5Z" fill="#FCFDFD"/>
<path fill-rule="evenodd" clip-rule="evenodd" d="M25 10.3334C23.8683 11.7191 22.5349 12.9043 21 13.8889C21.2248 13.0862 21.2618 12.2714 21.1112 11.4445C19.5191 10.9157 17.9636 11.0639 16.4445 11.8889C15.8769 10.9777 15.7658 10.0147 16.1112 9.00003C16.6676 8.4791 17.3343 8.14577 18.1112 8.00003C19.7408 7.85188 21.3704 7.85188 23 8.00003C24.1107 8.40639 24.7774 9.18417 25 10.3334Z" fill="#19B3FB"/>
<path fill-rule="evenodd" clip-rule="evenodd" d="M7.00003 6.77773C7.00003 8.037 7.00003 9.29624 7.00003 10.5555C5.7386 10.5186 4.47934 10.5556 3.22225 10.6666C3.06245 11.2347 2.69207 11.4939 2.11114 11.4444C1.63469 12.9294 1.26432 14.4479 1.00003 16C1.17791 16.3974 1.25198 16.7677 1.22225 17.1111C0.855349 18.4212 0.559052 19.7545 0.33336 21.1111C0.3489 21.281 0.422974 21.3921 0.555583 21.4444C0.398038 21.6453 0.175815 21.7194 -0.111084 21.6666C-0.111084 19.5185 -0.111084 17.3703 -0.111084 15.2222C0.0910371 14.1564 0.387334 13.1193 0.777805 12.1111C0.930218 11.8114 1.15244 11.5522 1.44447 11.3333C1.21844 11.1001 1.18141 10.8408 1.33336 10.5555C1.40743 10.6296 1.48151 10.7037 1.55558 10.7777C1.96278 9.92853 2.25907 9.03964 2.44447 8.11107C2.70374 7.70367 2.96298 7.29624 3.22225 6.88884C4.47934 6.77787 5.7386 6.74082 7.00003 6.77773Z" fill="#2A526F"/>
<path fill-rule="evenodd" clip-rule="evenodd" d="M30.5556 4.77783C30.5676 6.81617 30.864 8.81617 31.4444 10.7778C31.4993 11.0475 31.6476 11.1956 31.8889 11.2223C31.8889 13.6667 31.8889 16.1112 31.8889 18.5556C31.3591 16.1784 30.6184 13.8451 29.6667 11.5556C29.1709 11.4174 28.7633 11.1581 28.4444 10.7778C27.3942 11.8743 26.246 12.8372 25 13.6667C25.1676 12.5637 25.2416 11.4526 25.2222 10.3334C26.9409 8.9855 28.4224 7.42994 29.6667 5.66672C29.8651 5.26739 30.1613 4.97108 30.5556 4.77783Z" fill="#3D627D"/>
<path fill-rule="evenodd" clip-rule="evenodd" d="M10.5555 8.77785C12.4482 8.70538 14.3 8.77947 16.1111 9.00007C15.7657 10.0148 15.8768 10.9777 16.4444 11.889C17.9635 11.0639 19.5191 10.9158 21.1111 11.4445C21.2618 12.2714 21.2247 13.0863 21 13.889C20.7803 14.1767 20.5581 14.473 20.3333 14.7779C19.3908 15.1009 18.5019 15.5454 17.6667 16.1112C16.3196 15.9108 14.9863 15.8367 13.6667 15.889C13.827 15.7962 13.9381 15.648 14 15.4445C14.1108 14.5587 14.1479 13.6698 14.1111 12.7779C12.9259 12.7779 11.7407 12.7779 10.5555 12.7779C10.5555 11.4445 10.5555 10.1112 10.5555 8.77785Z" fill="#234965"/>
<path fill-rule="evenodd" clip-rule="evenodd" d="M7.00004 10.5556C7.00004 12.0371 7.00004 13.5185 7.00004 15C5.88893 15 4.77782 15 3.66671 15C3.66671 15.2222 3.66671 15.4445 3.66671 15.6667C3.1482 15.8148 2.62966 15.963 2.11115 16.1111C1.67854 17.2505 1.45632 18.4357 1.44449 19.6667C1.45083 20.2821 1.59898 20.8006 1.88893 21.2222C1.49679 21.4359 1.05234 21.5099 0.555596 21.4445C0.422987 21.3922 0.348914 21.2811 0.333374 21.1111C0.559065 19.7546 0.855363 18.4213 1.22226 17.1111C1.252 16.7678 1.17792 16.3974 1.00004 16C1.26433 14.448 1.6347 12.9295 2.11115 11.4445C2.69209 11.494 3.06246 11.2347 3.22226 10.6667C4.47935 10.5557 5.73862 10.5187 7.00004 10.5556Z" fill="#234762"/>
<path fill-rule="evenodd" clip-rule="evenodd" d="M25 10.3333C25.074 10.3333 25.1482 10.3333 25.2222 10.3333C25.2415 11.4525 25.1675 12.5636 25 13.6666C24.3453 14.7463 23.5304 15.7093 22.5555 16.5555C23.0942 16.7448 23.6128 16.967 24.1111 17.2221C24.4815 17.4444 24.7777 17.7407 25 18.111C24.2655 19.0303 23.4137 19.8451 22.4444 20.5555C22.402 21.0461 22.2908 21.4905 22.1111 21.8888C22.2984 20.8679 22.002 20.0531 21.2222 19.4444C20.862 19.085 20.4175 18.8257 19.8888 18.6666C19.1518 18.5559 18.411 18.5188 17.6666 18.5555C17.6666 17.8147 17.6666 17.074 17.6666 16.3333C18.6935 16.0424 19.5824 15.5239 20.3333 14.7777C20.5581 14.4729 20.7803 14.1766 21 13.8888C22.5348 12.9041 23.8682 11.719 25 10.3333Z" fill="#3DBFFB"/>
<path fill-rule="evenodd" clip-rule="evenodd" d="M31.8889 18.5556C31.8889 19.6667 31.8889 20.7778 31.8889 21.8889C31.3969 20.1424 30.9155 18.3646 30.4444 16.5556C30.0782 15.6363 29.4855 14.8955 28.6667 14.3334C27.1182 15.2729 25.5995 16.2358 24.1111 17.2223C23.6129 16.9671 23.0942 16.7449 22.5555 16.5556C23.5304 15.7094 24.3453 14.7464 25 13.6667C26.246 12.8372 27.3942 11.8743 28.4444 10.7778C28.7633 11.1581 29.1709 11.4174 29.6667 11.5556C30.6184 13.8451 31.3591 16.1784 31.8889 18.5556Z" fill="#375870"/>
<path fill-rule="evenodd" clip-rule="evenodd" d="M31.8889 21.8888C31.8889 24.7037 31.8889 27.5184 31.8889 30.3333C31.4444 30.9259 30.926 31.4444 30.3333 31.8888C30.0371 31.8888 29.7406 31.8888 29.4444 31.8888C29.4198 31.7517 29.3458 31.6406 29.2222 31.5555C30.2973 31.2199 31.0011 30.5161 31.3333 29.4444C31.9735 25.581 31.4549 21.8774 29.7778 18.3333C29.426 17.6201 28.8704 17.3609 28.1111 17.5555C27.2618 18.0733 26.4471 18.6288 25.6666 19.2221C25.5311 18.7923 25.3089 18.422 25 18.111C24.7778 17.7407 24.4815 17.4444 24.1111 17.2221C25.5995 16.2357 27.1182 15.2727 28.6666 14.3333C29.4855 14.8954 30.0782 15.6361 30.4444 16.5555C30.9155 18.3645 31.3969 20.1423 31.8889 21.8888Z" fill="#304D62"/>
<path fill-rule="evenodd" clip-rule="evenodd" d="M13.6667 15.8888C14.9863 15.8365 16.3196 15.9106 17.6667 16.111C16.5308 16.69 15.4197 17.3196 14.3333 17.9999C13.1153 18.5087 11.856 18.9161 10.5555 19.2221C10.5555 18.111 10.5555 16.9999 10.5555 15.8888C11.5926 15.8888 12.6296 15.8888 13.6667 15.8888Z" fill="#1D3D54"/>
<path fill-rule="evenodd" clip-rule="evenodd" d="M7.00001 15C7.07357 16.7839 6.9995 18.5617 6.77779 20.3333C5.18417 20.8298 3.55455 21.1261 1.8889 21.2222C1.59895 20.8006 1.4508 20.2821 1.44446 19.6667C1.45629 18.4357 1.67851 17.2505 2.11112 16.1111C2.62964 15.963 3.14817 15.8148 3.66668 15.6667C3.66668 15.4444 3.66668 15.2222 3.66668 15C4.77779 15 5.8889 15 7.00001 15Z" fill="#1C3A50"/>
<path fill-rule="evenodd" clip-rule="evenodd" d="M20.3333 14.7778C19.5824 15.524 18.6935 16.0425 17.6667 16.3334C17.6667 17.0741 17.6667 17.8149 17.6667 18.5556C18.4111 18.5189 19.1518 18.556 19.8889 18.6667C20.4176 18.8259 20.862 19.0851 21.2222 19.4445C17.7803 20.5794 14.2247 21.172 10.5555 21.2223C10.5555 20.5556 10.5555 19.8889 10.5555 19.2223C11.856 18.9162 13.1153 18.5088 14.3333 18.0001C15.4197 17.3198 16.5308 16.6901 17.6667 16.1112C18.5019 15.5454 19.3908 15.1009 20.3333 14.7778Z" fill="#3F5769"/>
<path fill-rule="evenodd" clip-rule="evenodd" d="M25 18.1111C25.3089 18.422 25.5311 18.7924 25.6667 19.2222C25.8698 19.9395 25.9438 20.6803 25.8889 21.4444C25.906 22.436 25.7578 23.3989 25.4445 24.3333C25.0925 25.2611 24.5738 26.0758 23.8889 26.7778C22.7962 27.6855 21.537 28.2042 20.1111 28.3333C18.9716 28.4195 17.8605 28.3084 16.7778 28C16.1944 27.512 15.9722 26.8822 16.1111 26.1111C16.1197 25.4842 16.2679 24.8915 16.5556 24.3333C17.9644 25.3611 19.4459 25.4722 21 24.6666C21.3689 24.336 21.5911 23.9286 21.6667 23.4444C22.0362 23.0138 22.1843 22.4951 22.1111 21.8889C22.2909 21.4906 22.402 21.0462 22.4445 20.5555C23.4138 19.8452 24.2656 19.0303 25 18.1111Z" fill="#27B8FB"/>
<path fill-rule="evenodd" clip-rule="evenodd" d="M21.2222 19.4443C22.0021 20.053 22.2984 20.8678 22.1111 21.8888C22.1843 22.495 22.0362 23.0137 21.6667 23.4443C20.1656 23.3361 18.6841 23.5212 17.2222 23.9999C15.0111 24.3319 12.7888 24.517 10.5555 24.5554C10.5555 23.4443 10.5555 22.3332 10.5555 21.2221C14.2247 21.1718 17.7803 20.5792 21.2222 19.4443Z" fill="#324858"/>
<path opacity="0.993" fill-rule="evenodd" clip-rule="evenodd" d="M7.22225 5.44434C7.22225 12.111 7.22225 18.7777 7.22225 25.4443C7.01458 25.207 6.94052 24.9108 7.00003 24.5554C7.00003 23.8148 7.00003 23.0739 7.00003 22.3332C5.61643 22.3874 4.32012 22.2392 3.11114 21.8888C1.53409 23.115 0.645205 24.7448 0.444472 26.7777C0.115537 28.3406 0.448872 29.711 1.44447 30.8888C2.1812 31.2954 2.92194 31.6288 3.66669 31.8888C2.92596 31.8888 2.18521 31.8888 1.44447 31.8888C0.766763 31.4334 0.248245 30.8408 -0.111084 30.111C-0.111084 27.2961 -0.111084 24.4814 -0.111084 21.6666C0.175815 21.7193 0.398038 21.6452 0.555583 21.4443C1.05233 21.5098 1.49677 21.4358 1.88892 21.2221C3.55456 21.126 5.18418 20.8297 6.7778 20.3332C6.99952 18.5616 7.07358 16.7838 7.00003 14.9999C7.00003 13.5184 7.00003 12.0369 7.00003 10.5554C7.00003 9.29618 7.00003 8.03694 7.00003 6.77767C6.93454 6.28091 7.0086 5.83647 7.22225 5.44434Z" fill="#415768"/>
<path fill-rule="evenodd" clip-rule="evenodd" d="M7 24.5555C6.94049 24.9108 7.01456 25.207 7.22222 25.4444C8.26189 25.4813 9.29893 25.4441 10.3333 25.3333C10.5192 25.1086 10.5933 24.8493 10.5556 24.5555C12.7888 24.517 15.0111 24.3319 17.2222 23.9999C18.6841 23.5213 20.1656 23.3361 21.6667 23.4444C21.5911 23.9286 21.3689 24.3359 21 24.6666C19.4458 25.4721 17.9644 25.361 16.5556 24.3333C16.2679 24.8915 16.1197 25.4841 16.1111 26.111C14.0006 26.3195 12.0376 26.4675 10.2222 26.5555C8.03973 26.2928 5.85456 25.9966 3.66667 25.6666C3.72022 26.4441 3.53502 26.5181 3.11111 25.8888C2.82656 26.5437 2.38211 27.0624 1.77778 27.4444C1.36483 29.0259 1.92039 30.1001 3.44444 30.6666C11.7414 30.8026 20.0377 30.8766 28.3333 30.8888C28.722 30.6017 29.1293 30.3426 29.5556 30.111C30.6656 27.5817 30.3691 25.2115 28.6667 22.9999C27.6624 23.6297 26.5884 24.0741 25.4444 24.3333C25.7578 23.3988 25.906 22.4359 25.8889 21.4444C26.6811 20.9941 27.5329 20.6237 28.4444 20.3333C28.7167 20.4138 28.9758 20.5249 29.2222 20.6666C31.0087 23.3888 31.4902 26.3148 30.6667 29.4444C30.2851 29.775 30.0258 30.1824 29.8889 30.6666C29.2498 30.7639 28.6571 30.9861 28.1111 31.3333C20.6639 31.3735 13.2194 31.4106 5.77778 31.4444C4.84693 31.3748 3.921 31.2637 3 31.111C2.18154 30.5144 1.51487 29.7737 1 28.8888C1.17042 27.5835 1.54079 26.2873 2.11111 24.9999C2.605 24.5059 3.1976 24.2097 3.88889 24.111C4.92376 24.2886 5.96078 24.4366 7 24.5555Z" fill="#243A4A"/>
<path fill-rule="evenodd" clip-rule="evenodd" d="M29.4444 31.8888C20.8518 31.8888 12.2593 31.8888 3.66665 31.8888C2.9219 31.6288 2.18116 31.2955 1.44443 30.8888C0.44883 29.711 0.115496 28.3406 0.44443 26.7777C0.645164 24.7448 1.53405 23.115 3.1111 21.8888C4.32007 22.2393 5.61639 22.3875 6.99999 22.3333C6.99999 23.0739 6.99999 23.8148 6.99999 24.5555C5.96076 24.4366 4.92374 24.2886 3.88887 24.111C3.19759 24.2097 2.60499 24.5059 2.1111 24.9999C1.54078 26.2873 1.17041 27.5835 0.999986 28.8888C1.51486 29.7737 2.18153 30.5144 2.99999 31.111C3.92099 31.2637 4.84692 31.3748 5.77776 31.4444C13.2194 31.4106 20.6639 31.3735 28.1111 31.3333C28.6571 30.9862 29.2498 30.7639 29.8889 30.6666C30.0258 30.1824 30.2851 29.775 30.6667 29.4444C31.4902 26.3148 31.0087 23.3888 29.2222 20.6666C28.9758 20.5249 28.7167 20.4138 28.4444 20.3333C27.5329 20.6237 26.6811 20.9941 25.8889 21.4444C25.9438 20.6802 25.8698 19.9395 25.6667 19.2222C26.4471 18.6288 27.2618 18.0733 28.1111 17.5555C28.8704 17.3609 29.426 17.6202 29.7778 18.3333C31.4549 21.8774 31.9735 25.581 31.3333 29.4444C31.0011 30.5162 30.2973 31.2199 29.2222 31.5555C29.3458 31.6406 29.4198 31.7517 29.4444 31.8888Z" fill="#2B4253"/>
<path fill-rule="evenodd" clip-rule="evenodd" d="M16.1111 26.1111C15.9722 26.8822 16.1944 27.512 16.7778 28C17.8605 28.3084 18.9716 28.4196 20.1111 28.3333C19.413 28.5158 18.6723 28.6269 17.8889 28.6667C21.5208 29.8416 25.2245 30.1378 29 29.5556C29.3096 29.2953 29.4949 28.962 29.5556 28.5556C29.746 27.5031 29.4867 26.5031 28.7778 25.5556C28.5556 25.4444 28.3334 25.3333 28.1111 25.2222C26.7698 25.9098 25.3625 26.4282 23.8889 26.7778C24.5738 26.0758 25.0925 25.2611 25.4445 24.3333C26.5885 24.0742 27.6625 23.6298 28.6667 23C30.3691 25.2116 30.6656 27.5818 29.5556 30.1111C29.1294 30.3427 28.722 30.6018 28.3334 30.8889C20.0377 30.8767 11.7414 30.8027 3.44447 30.6667C1.92041 30.1002 1.36486 29.026 1.77781 27.4444C2.38214 27.0624 2.82658 26.5438 3.11114 25.8889C3.53505 26.5182 3.72025 26.4442 3.66669 25.6667C5.85458 25.9967 8.03976 26.2929 10.2222 26.5556C12.0376 26.4676 14.0006 26.3196 16.1111 26.1111Z" fill="#1D303F"/>
<path fill-rule="evenodd" clip-rule="evenodd" d="M20.1111 28.3333C21.537 28.2042 22.7962 27.6855 23.8889 26.7777C25.3625 26.4282 26.7698 25.9097 28.1111 25.2222C28.3334 25.3333 28.5556 25.4444 28.7778 25.5555C29.4867 26.5031 29.746 27.5031 29.5556 28.5555C29.4949 28.9619 29.3096 29.2953 29 29.5555C25.2245 30.1377 21.5208 29.8415 17.8889 28.6666C18.6723 28.6268 19.413 28.5157 20.1111 28.3333Z" fill="#152836"/>
</g>
<defs>
<clipPath id="clip0_14_84">
<rect width="32" height="32" fill="white"/>
</clipPath>
</defs>
</svg>
