<svg width="32" height="32" viewBox="0 0 32 32" fill="none" xmlns="http://www.w3.org/2000/svg">
<path opacity="0.976" fill-rule="evenodd" clip-rule="evenodd" d="M18.0837 2.24627C18.0345 2.23893 17.997 2.25763 17.9714 2.30241C18.0555 2.49707 18.1116 2.70292 18.1398 2.91996C18.3152 5.02238 18.1468 7.08086 17.6345 9.09539C17.2228 9.09539 16.8112 9.09539 16.3994 9.09539C16.3901 8.16424 16.4838 7.22857 16.6801 6.28838C16.755 5.20299 16.755 4.11762 16.6801 3.03224C16.6194 2.68253 16.451 2.42053 16.1749 2.24627C16.1624 2.17695 16.125 2.12081 16.0626 2.07785C15.6884 2.00299 15.314 2.00299 14.9398 2.07785C14.8774 2.12081 14.84 2.17695 14.8275 2.24627C14.6129 2.25461 14.4819 2.36689 14.4345 2.58311C14.373 4.89053 14.8783 7.06128 15.9503 9.09539C15.9877 9.2451 16.0252 9.39485 16.0626 9.54452C16.1582 9.81197 16.3078 10.0365 16.5117 10.2182C16.4625 10.2109 16.425 10.2295 16.3994 10.2743C16.8506 10.7171 16.9441 11.2223 16.6801 11.7901C16.3906 11.9975 16.0725 12.0537 15.7258 11.9586C15.4478 11.6054 15.1857 11.2498 14.9398 10.8919C14.9669 10.6074 14.8546 10.4203 14.603 10.3305C14.6371 10.2575 14.6745 10.1826 14.7152 10.1059C14.5331 9.77941 14.3833 9.44257 14.2661 9.09539C13.6293 7.57755 13.1615 6.00562 12.8626 4.3796C12.8038 3.66659 12.8224 2.95548 12.9187 2.24627C13.335 0.95108 14.2332 0.314819 15.6135 0.3375C16.8944 0.383456 17.7177 1.01972 18.0837 2.24627ZM16.1749 2.24627C15.7258 2.24627 15.2766 2.24627 14.8275 2.24627C14.84 2.17695 14.8774 2.12081 14.9398 2.07785C15.314 2.00299 15.6884 2.00299 16.0626 2.07785C16.125 2.12081 16.1624 2.17695 16.1749 2.24627Z" fill="#262222"/>
<path fill-rule="evenodd" clip-rule="evenodd" d="M14.8273 1.01114C16.1543 0.733081 17.0338 1.21963 17.4659 2.47079C17.7128 4.49998 17.6567 6.52103 17.2975 8.53395C17.1852 8.53395 17.073 8.53395 16.9607 8.53395C17.27 6.67491 17.3635 4.80357 17.2414 2.91992C17.0124 1.61626 16.2452 1.111 14.9396 1.40413C14.3564 1.53813 14.001 1.89368 13.873 2.47079C13.7834 3.44915 13.8209 4.42225 13.9852 5.39009C14.6002 7.47883 15.3675 9.4999 16.287 11.4532C16.1551 11.4778 16.0428 11.4404 15.9502 11.341C14.7473 9.11224 13.9052 6.75435 13.4238 4.26728C13.108 2.80628 13.5759 1.72089 14.8273 1.01114ZM16.1747 2.24623C15.7256 2.24623 15.2765 2.24623 14.8273 2.24623C14.8398 2.17691 14.8772 2.12077 14.9396 2.07781C15.3139 2.00295 15.6882 2.00295 16.0624 2.07781C16.1249 2.12077 16.1623 2.17691 16.1747 2.24623Z" fill="#E7E7E7"/>
<path opacity="0.992" fill-rule="evenodd" clip-rule="evenodd" d="M12.9186 2.24627C12.8223 2.95548 12.8037 3.66659 12.8625 4.37961C13.1614 6.00562 13.6291 7.57755 14.266 9.0954C13.5165 9.07672 12.768 9.09544 12.0204 9.15154C11.6579 9.32703 11.4146 9.60773 11.2906 9.99364C10.6387 15.5138 9.98374 21.0343 9.32565 26.555C9.26954 26.9669 9.41925 27.2662 9.77477 27.4533C13.9665 27.5282 18.1584 27.5282 22.3502 27.4533C22.7429 27.3047 22.93 27.024 22.9116 26.6112C22.1601 20.9893 21.3554 15.3753 20.4976 9.76908C20.3571 9.4456 20.1139 9.23979 19.7678 9.15154C19.0576 9.09545 18.3465 9.07673 17.6344 9.0954C18.1466 7.08087 18.3151 5.02238 18.1397 2.91996C18.1115 2.70292 18.0554 2.49707 17.9713 2.30241C17.9969 2.25764 18.0344 2.23893 18.0835 2.24627C21.6392 2.22757 25.1948 2.24627 28.7502 2.30241C29.5444 2.5351 30.087 3.04037 30.3783 3.8182C30.5637 12.2726 30.6012 20.7312 30.4906 29.1936C30.2848 30.4475 29.5549 31.1773 28.3011 31.3831C20.0672 31.458 11.8332 31.458 3.59933 31.3831C2.49125 31.2699 1.76142 30.6898 1.40986 29.6428C1.29859 20.9534 1.33601 12.2702 1.52214 3.59364C1.82066 2.92088 2.32593 2.49046 3.03793 2.30241C6.33128 2.24627 9.62486 2.22757 12.9186 2.24627Z" fill="black"/>
<path fill-rule="evenodd" clip-rule="evenodd" d="M14.8274 2.24634C15.2766 2.24634 15.7257 2.24634 16.1748 2.24634C16.4509 2.4206 16.6193 2.68259 16.6801 3.0323C16.755 4.11769 16.755 5.20306 16.6801 6.28844C16.4837 7.22864 16.39 8.16431 16.3994 9.09546C16.2497 9.09546 16.0999 9.09546 15.9502 9.09546C14.8782 7.06135 14.3729 4.89059 14.4345 2.58318C14.4818 2.36696 14.6129 2.25468 14.8274 2.24634Z" fill="black"/>
<path fill-rule="evenodd" clip-rule="evenodd" d="M14.266 9.09537C14.3833 9.44254 14.533 9.77939 14.7152 10.1059C14.6744 10.1826 14.637 10.2575 14.6029 10.3305C14.1088 11.487 14.4082 12.3666 15.5011 12.9691C17.1823 13.1965 17.9496 12.4667 17.8029 10.7796C17.4878 9.99699 16.9077 9.58525 16.0625 9.5445C16.0251 9.39483 15.9876 9.24508 15.9502 9.09537C16.0999 9.09537 16.2497 9.09537 16.3994 9.09537C16.8111 9.09537 17.2227 9.09537 17.6345 9.09537C18.3465 9.07671 19.0576 9.09543 19.7678 9.15151C20.1139 9.23977 20.3571 9.44558 20.4976 9.76906C21.3554 15.3752 22.1601 20.9893 22.9116 26.6112C22.9301 27.024 22.7429 27.3047 22.3502 27.4533C18.1585 27.5282 13.9666 27.5282 9.7748 27.4533C9.41928 27.2662 9.26957 26.9669 9.32568 26.555C9.98377 21.0343 10.6387 15.5138 11.2906 9.99362C11.4147 9.60771 11.658 9.32701 12.0204 9.15151C12.768 9.09542 13.5166 9.0767 14.266 9.09537Z" fill="#FBFBFB"/>
<path fill-rule="evenodd" clip-rule="evenodd" d="M16.0624 9.54443C16.9076 9.58519 17.4877 9.99692 17.8028 10.7795C17.9495 12.4667 17.1822 13.1965 15.501 12.969C14.4081 12.3665 14.1088 11.4869 14.6028 10.3304C14.8544 10.4202 14.9667 10.6073 14.9396 10.8918C14.8317 12.0755 15.3557 12.5807 16.5116 12.4076C17.3003 11.9511 17.4688 11.3335 17.0168 10.555C16.8901 10.3707 16.7216 10.2584 16.5116 10.2181C16.3077 10.0364 16.158 9.81189 16.0624 9.54443Z" fill="#0A0A0A"/>
<path fill-rule="evenodd" clip-rule="evenodd" d="M16.5115 10.2181C16.7216 10.2584 16.89 10.3707 17.0168 10.5549C17.4687 11.3335 17.3003 11.951 16.5115 12.4076C15.3557 12.5807 14.8317 12.0754 14.9396 10.8918C15.1855 11.2497 15.4476 11.6053 15.7256 11.9584C16.0723 12.0535 16.3904 11.9974 16.68 11.79C16.9439 11.2222 16.8504 10.717 16.3992 10.2742C16.4248 10.2294 16.4624 10.2108 16.5115 10.2181Z" fill="#EAE9E9"/>
<path fill-rule="evenodd" clip-rule="evenodd" d="M15.9501 15.0463C16.9807 15.0207 17.9539 15.2265 18.8694 15.6639C19.3673 16.0232 19.6292 16.5098 19.6554 17.1235C19.527 17.8293 19.3025 18.503 18.9817 19.1446C19.1968 19.6875 19.3465 20.249 19.4308 20.8288C19.394 21.5011 19.0945 22.025 18.5326 22.4007C18.0182 22.6108 17.5503 22.8915 17.1291 23.2428C16.8714 24.0439 16.572 24.8299 16.2308 25.6007C15.1439 26.6732 14.0959 26.6358 13.087 25.4884C12.9747 25.2639 12.8624 25.0393 12.7501 24.8147C12.5693 22.3868 12.5318 19.954 12.6378 17.5165C12.8112 16.4076 13.4287 15.6778 14.4905 15.327C14.9918 15.2289 15.4783 15.1354 15.9501 15.0463Z" fill="#EAEAEA"/>
<path fill-rule="evenodd" clip-rule="evenodd" d="M18.5326 17.5165C18.2376 17.583 17.9382 17.6203 17.6343 17.6288C16.998 17.6288 16.3619 17.6288 15.7256 17.6288C15.7256 18.2276 15.7256 18.8265 15.7256 19.4253C16.4741 19.4253 17.2226 19.4253 17.9712 19.4253C18.6394 19.5708 18.9014 19.9825 18.7572 20.6603C18.5609 20.997 18.2614 21.2028 17.8589 21.2779C17.1487 21.334 16.4377 21.3527 15.7256 21.334C15.7442 22.3452 15.7256 23.3558 15.6694 24.3656C15.2501 25.217 14.6513 25.3668 13.8729 24.8147C13.8201 24.6187 13.7452 24.4315 13.6484 24.2533C13.5922 21.746 13.5735 19.2384 13.5922 16.7305C13.6186 16.2735 13.8432 15.9555 14.2659 15.7761C15.5759 15.7012 16.8858 15.7012 18.1957 15.7761C18.8866 15.9406 19.1299 16.371 18.9256 17.0674C18.8481 17.2751 18.7172 17.4249 18.5326 17.5165Z" fill="#030303"/>
<path fill-rule="evenodd" clip-rule="evenodd" d="M13.5922 16.7305C13.5734 19.2384 13.5922 21.7459 13.6483 24.2533C13.7451 24.4315 13.82 24.6186 13.8729 24.8147C14.6512 25.3668 15.25 25.217 15.6694 24.3656C15.7255 23.3557 15.7442 22.3452 15.7255 21.334C16.4376 21.3526 17.1487 21.334 17.8589 21.2778C18.2614 21.2027 18.5608 20.9969 18.7571 20.6603C18.7633 21.2731 18.5013 21.741 17.9711 22.0638C16.7957 22.4842 16.1781 23.3263 16.1185 24.5901C15.6267 25.6508 14.8595 25.9315 13.8168 25.4322C13.3556 24.9478 13.1123 24.3678 13.0869 23.6919C13.012 21.858 13.012 20.024 13.0869 18.1901C13.1203 17.8068 13.1952 17.4326 13.3115 17.0673C13.3538 16.9054 13.4474 16.7931 13.5922 16.7305Z" fill="#DBDBDB"/>
<path fill-rule="evenodd" clip-rule="evenodd" d="M18.5326 17.5164C18.3654 17.9657 18.0847 18.34 17.6905 18.6392C17.5639 18.8463 17.5077 19.0709 17.5221 19.3128C16.9607 19.3128 16.3993 19.3128 15.8379 19.3128C15.8379 18.7888 15.8379 18.2649 15.8379 17.7409C16.4584 17.777 17.0573 17.7396 17.6344 17.6286C17.9382 17.6202 18.2377 17.5828 18.5326 17.5164Z" fill="#D3D3D3"/>
<path fill-rule="evenodd" clip-rule="evenodd" d="M17.6344 17.6287C17.0572 17.7396 16.4583 17.777 15.8379 17.7409C15.8379 18.265 15.8379 18.7889 15.8379 19.3129C16.3993 19.3129 16.9607 19.3129 17.5221 19.3129C17.7016 19.2828 17.8513 19.3203 17.9712 19.4252C17.2226 19.4252 16.4742 19.4252 15.7256 19.4252C15.7256 18.8264 15.7256 18.2275 15.7256 17.6287C16.3619 17.6287 16.9981 17.6287 17.6344 17.6287Z" fill="#747474"/>
</svg>
