<svg width="32" height="32" viewBox="0 0 33 33" fill="none" xmlns="http://www.w3.org/2000/svg">
    <path
        d="M23.8512 8.02357C24.9534 7.22952 25.2728 5.03856 24.0908 3.8575C18.8072 1.58714 11.7012 0.320509 4.19067 0.476236H4.19241C4.02057 0.476236 3.85741 0.480861 3.7012 0.487799C0.915355 0.602667 0.486631 1.49231 0.498781 2.05123C0.503989 2.31412 0.606397 2.50453 0.606397 2.50453C1.49856 5.48107 6.17634 10.7156 6.17634 10.7156C16.1793 12.589 17.6078 16.2062 17.6078 16.2062C14.3794 13.5072 10.0609 12.5258 6.96957 12.1773C7.97976 13.8147 8.55428 15.665 8.57164 17.7472C8.88581 18.8126 10.0036 21.4677 13.6105 23.2439C13.6105 23.2439 10.6858 22.382 8.36335 21.056C8.35815 21.0776 8.35641 21.1 8.35121 21.1216C8.35121 21.1216 7.87562 23.3503 9.68771 25.4364C10.4671 26.3338 11.6664 27.2041 13.5115 27.8602C13.4942 27.8725 13.4768 27.8841 13.4594 27.8964C12.4805 27.6312 10.264 26.9166 8.37898 25.5043C7.80271 25.0733 7.25596 24.5791 6.78732 24.0102C6.78732 24.0102 7.00255 24.6917 7.5493 25.5336C8.33905 26.7501 9.8231 28.3019 12.3538 28.6126C7.6951 28.2904 6.16072 25.9699 6.16072 25.9699C6.68317 28.3867 10.2188 29.0798 11.3106 29.2371C9.25378 30.4328 6.97651 31.5298 4.64543 32.4634C11.0034 30.5723 16.2349 28.2549 19.0537 25.0294C19.4789 24.5892 19.8504 24.149 20.1819 23.7088C23.9571 18.677 21.6122 13.6644 16.0873 8.80837C15.4451 8.24329 14.7491 7.64505 14.0062 7.05221C12.5621 5.89814 10.9409 4.76488 9.17568 3.93691C11.1492 4.52975 13.0915 5.38702 15.0476 6.56499C15.7732 7.0021 16.5022 7.48239 17.2364 8.01201C24.1116 12.9768 26.0365 17.9615 22.3672 23.0157C21.8829 23.6833 21.3032 24.2847 20.621 24.9546C19.9702 25.5945 19.2359 26.3415 18.4375 26.7254H18.4323L17.7745 27.2666C18.139 27.3622 25.8786 27.6143 27.2637 24.9908C27.2637 24.9908 24.917 26.5496 19.0953 26.8195C19.1092 26.8141 19.1196 26.8179 19.1335 26.8125C29.8568 25.6384 32.0959 19.1519 32.0959 19.1519C29.4923 22.0166 24.8823 24.3556 22.1658 25.3131C26.5833 22.9887 30.5182 19.8973 32.1098 16.6849C31.9536 16.7712 31.7957 16.853 31.636 16.9308C29.0133 18.2206 26.033 18.4742 26.033 18.4742C29.4385 17.4851 31.1274 16.2917 32.3424 14.8694C33.0367 12.6375 31.5197 8.58018 25.6824 4.8705C26.8766 6.73228 23.8512 8.02357 23.8512 8.02357Z"
        fill="#318ED0" />
</svg>