<svg width="32" height="32" viewBox="0 0 32 32" fill="none" xmlns="http://www.w3.org/2000/svg">
<path d="M5.64706 31.7398H9.6955V17.5433H23.946V14.1965H5.64706V31.7398ZM5.64706 0V10.1481H9.6955V3.56263H26.645V0H5.64706Z" fill="#4DAFEB"/>
<path d="M5.64706 31.7398H9.6955V17.5433H23.946V14.1965H5.64706V31.7398ZM5.64706 0V10.1481H9.6955V3.56263H26.645V0H5.64706Z" fill="#4DAFEB"/>
<path d="M5.64706 31.7398H9.6955V17.5433H23.946V14.1965H5.64706V31.7398ZM5.64706 0V10.1481H9.6955V3.56263H26.645V0H5.64706Z" fill="#4DAFEB"/>
<path d="M5.64706 31.7398H9.6955V17.5433H23.946V14.1965H5.64706V31.7398ZM5.64706 0V10.1481H9.6955V3.56263H26.645V0H5.64706Z" fill="#4DAFEB"/>
<path d="M5.64706 31.7398H9.6955V17.5433H23.946V14.1965H5.64706V31.7398ZM5.64706 0V10.1481H9.6955V3.56263H26.645V0H5.64706Z" fill="#4DAFEB"/>
<path d="M5.64706 31.7398H9.6955V17.5433H23.946V14.1965H5.64706V31.7398ZM5.64706 0V10.1481H9.6955V3.56263H26.645V0H5.64706Z" fill="#4DAFEB"/>
<path d="M5.64706 31.7398H9.6955V17.5433H23.946V14.1965H5.64706V31.7398ZM5.64706 0V10.1481H9.6955V3.56263H26.645V0H5.64706Z" fill="#4DAFEB"/>
<path d="M5.64706 31.7398H9.6955V17.5433H23.946V14.1965H5.64706V31.7398ZM5.64706 0V10.1481H9.6955V3.56263H26.645V0H5.64706Z" fill="#4DAFEB"/>
</svg>
