<svg width="32" height="32" viewBox="0 0 32 32" fill="none" xmlns="http://www.w3.org/2000/svg">
<g clip-path="url(#clip0_6000_555)">
<path d="M32 0H0V32H32V0Z" fill="white"/>
<path opacity="0.85" fill-rule="evenodd" clip-rule="evenodd" d="M2.4 0.361721C11.3652 0.305007 20.3298 0.361721 29.2936 0.531933C29.8043 1.04257 30.3149 1.55321 30.8255 2.06385C31.3865 10.8853 31.5 19.7363 31.166 28.617C30.7688 29.9219 29.9177 30.773 28.6128 31.1702C20.2156 31.3973 11.8184 31.3973 3.42127 31.1702C2.55878 30.9946 1.8212 30.5973 1.20851 29.9788C0.647185 20.7033 0.533711 11.3983 0.868087 2.06385C1.2743 1.38398 1.78494 0.816597 2.4 0.361721ZM3.7617 2.40427C11.8203 1.95039 19.8768 2.11705 27.9319 2.57449C28.2156 2.85816 28.4993 3.14187 28.783 3.42556C29.0099 11.5958 29.0099 19.766 28.783 27.9362C28.4993 28.2198 28.2156 28.5037 27.9319 28.7873C19.8752 29.0143 11.8184 29.0143 3.7617 28.7873C3.47802 28.5037 3.19433 28.2198 2.91064 27.9362C2.68369 19.766 2.68369 11.5958 2.91064 3.42556C3.26638 3.12822 3.55006 2.7878 3.7617 2.40427Z" fill="#1F201F"/>
<path d="M18.7234 4.08508H5.10638V10.2127H18.7234V4.08508Z" fill="#1F201F"/>
<path d="M14.9788 11.5745H5.44684V17.7021H14.9788V11.5745Z" fill="#1F201F"/>
<path d="M11.5745 19.0638H5.10638V25.1915H11.5745V19.0638Z" fill="#1F201F"/>
<path d="M26.8936 11.5745H20.4255V25.1915H26.8936V11.5745Z" fill="#1F201F"/>
<path d="M26.5532 4.08508H20.4255V10.2127H26.5532V4.08508Z" fill="#1F201F"/>
</g>
<defs>
<clipPath id="clip0_6000_555">
<rect width="32" height="32" fill="white"/>
</clipPath>
</defs>
</svg>
