<svg width="32" height="32" viewBox="0 0 32 32" fill="none" xmlns="http://www.w3.org/2000/svg">
<path fill-rule="evenodd" clip-rule="evenodd" d="M5.82495 0.999503C12.5922 0.733483 19.3922 0.733483 26.225 0.999503C26.2002 1.12084 26.1336 1.1875 26.025 1.1995C19.4592 0.999843 12.8592 0.933183 6.22495 0.999503C6.15829 0.999503 6.09161 0.999503 6.02495 0.999503C5.95829 0.999503 5.89161 0.999503 5.82495 0.999503Z" fill="#CCCFDA"/>
<path fill-rule="evenodd" clip-rule="evenodd" d="M6.22498 0.999538C12.8592 0.933218 19.4592 0.999878 26.025 1.19954C22.8196 4.53828 19.553 7.80494 16.225 10.9995C16.1584 10.9995 16.0916 10.9995 16.025 10.9995C12.6146 7.78934 9.34798 4.45602 6.22498 0.999538Z" fill="#244088"/>
<path fill-rule="evenodd" clip-rule="evenodd" d="M6.02496 0.999512C6.09162 0.999512 6.1583 0.999512 6.22496 0.999512C9.34796 4.45599 12.6146 7.78931 16.025 10.9995C12.7266 11.1989 9.39336 11.2655 6.02496 11.1995C6.02496 7.79951 6.02496 4.39951 6.02496 0.999512Z" fill="#0D1D40"/>
<path fill-rule="evenodd" clip-rule="evenodd" d="M5.82494 0.999512C5.8916 0.999512 5.95828 0.999512 6.02494 0.999512C6.02494 4.39951 6.02494 7.79951 6.02494 11.1995C9.39334 11.2655 12.7265 11.1989 16.0249 10.9995C16.0915 10.9995 16.1583 10.9995 16.2249 10.9995C19.5239 11.1659 22.8573 11.2659 26.2249 11.2995C22.8513 14.7065 19.4513 18.0731 16.0249 21.3995C12.7653 18.0397 9.46534 14.7065 6.12494 11.3995C6.02494 18.0659 5.9916 24.7325 6.02494 31.3995C5.82502 21.4139 5.75836 11.2805 5.82494 0.999512Z" fill="#557CBC"/>
<path fill-rule="evenodd" clip-rule="evenodd" d="M16.025 21.3995C12.7584 24.7995 9.42495 28.1329 6.02495 31.3995C5.99161 24.7325 6.02495 18.0659 6.12495 11.3995C9.46535 14.7065 12.7654 18.0397 16.025 21.3995Z" fill="#2E5C9E"/>
<path fill-rule="evenodd" clip-rule="evenodd" d="M5.82494 0.999512C5.8916 0.999512 5.95828 0.999512 6.02494 0.999512C6.02494 4.39951 6.02494 7.79951 6.02494 11.1995C9.39334 11.2655 12.7265 11.1989 16.0249 10.9995C16.0915 10.9995 16.1583 10.9995 16.2249 10.9995C19.5239 11.1659 22.8573 11.2659 26.2249 11.2995C22.8513 14.7065 19.4513 18.0731 16.0249 21.3995C12.7653 18.0397 9.46534 14.7065 6.12494 11.3995C6.02494 18.0659 5.9916 24.7325 6.02494 31.3995C5.82502 21.4139 5.75836 11.2805 5.82494 0.999512Z" fill="#557CBC"/>
<path fill-rule="evenodd" clip-rule="evenodd" d="M16.025 21.3995C12.7584 24.7995 9.42495 28.1329 6.02495 31.3995C5.99161 24.7325 6.02495 18.0659 6.12495 11.3995C9.46535 14.7065 12.7654 18.0397 16.025 21.3995Z" fill="#2E5C9E"/>
</svg>
