<svg width="32" height="32" viewBox="0 0 32 32" fill="none" xmlns="http://www.w3.org/2000/svg">
<path d="M29.123 0.571533C29.123 0.571533 30.7992 5.2382 27.2944 8.91439L19.5611 16.0001C19.5611 16.0001 17.9611 17.6001 17.3896 19.2001C16.8754 18.0192 15.3896 13.2382 19.6754 9.29534L29.123 0.571533ZM2.85632 31.3906C2.85632 31.3906 1.21822 26.7811 4.74203 23.1049L12.4373 15.962C12.4373 15.962 14.0373 14.362 14.6087 12.762C15.123 13.943 16.6087 18.7239 12.323 22.6668L2.85632 31.3906ZM20.4563 16.8192C20.342 16.9334 18.6087 17.7525 17.5611 19.6192C18.4944 21.7144 19.6563 22.6096 19.6563 22.6096L23.8849 26.4382C24.8182 27.3715 26.323 27.3715 27.2563 26.4382C28.1896 25.5049 28.1896 24.0001 27.2563 23.0668L20.4563 16.8192ZM11.542 15.162C11.6373 15.0668 13.6373 13.962 14.4182 12.3239C13.4849 10.2096 12.323 9.29534 12.323 9.29534L8.07536 5.48582C7.14203 4.55249 5.63727 4.55249 4.70393 5.48582C3.7706 6.41915 3.7706 7.92391 4.70393 8.85725C4.70393 8.85725 9.35155 13.143 11.542 15.162Z" fill="#4AB9E6"/>
</svg>
