<svg width="33" height="33" viewBox="0 0 33 33" fill="none" xmlns="http://www.w3.org/2000/svg">
    <path opacity="0.954" fill-rule="evenodd" clip-rule="evenodd"
        d="M24.5 4.78833C24.5 3.66221 24.5 2.5361 24.5 1.40998C25.7222 0.601607 27.1581 0.338838 28.8077 0.621697C30.0218 1.49387 30.0218 2.35722 28.8077 3.21177C27.3637 3.74028 25.9277 4.26579 24.5 4.78833Z"
        fill="#A4F354" />
    <path opacity="0.964" fill-rule="evenodd" clip-rule="evenodd"
        d="M24.4993 1.40991C24.4993 2.53603 24.4993 3.66215 24.4993 4.78827C22.7172 5.32788 20.9735 5.92848 19.2686 6.59005C19.2686 5.46394 19.2686 4.33782 19.2686 3.2117C20.9735 2.55013 22.7172 1.94953 24.4993 1.40991Z"
        fill="#86E56E" />
    <path opacity="0.941" fill-rule="evenodd" clip-rule="evenodd"
        d="M19.2692 3.21167C19.2692 4.33779 19.2692 5.46391 19.2692 6.59002C17.0236 7.33646 14.7672 8.0872 12.5 8.84226C12.5 7.71614 12.5 6.59002 12.5 5.46391C14.7564 4.71317 17.0128 3.96241 19.2692 3.21167Z"
        fill="#69D787" />
    <path opacity="0.962" fill-rule="evenodd" clip-rule="evenodd"
        d="M12.4996 5.46411C12.4996 6.59023 12.4996 7.71635 12.4996 8.84246C11.4292 9.27109 10.301 9.64647 9.11502 9.96858C8.52112 9.09636 8.31598 8.1204 8.49964 7.04068C9.77324 6.46149 11.1066 5.93598 12.4996 5.46411Z"
        fill="#4FCA9F" />
    <path opacity="0.827" fill-rule="evenodd" clip-rule="evenodd"
        d="M8.50022 7.04053C8.31656 8.12025 8.5217 9.09621 9.1156 9.96843C7.85031 10.5448 6.51699 11.0703 5.11561 11.545C4.80798 17.549 4.70543 23.555 4.80792 29.5629C5.73099 29.5629 6.65407 29.5629 7.57714 29.5629C7.57714 30.5388 7.57714 31.5149 7.57714 32.4908C6.55152 32.4908 5.52586 32.4908 4.50023 32.4908C4.19469 24.4742 4.09211 16.4414 4.19254 8.39187C5.60164 7.89784 7.03754 7.44739 8.50022 7.04053Z"
        fill="#35BFB6" />
    <path opacity="0.995" fill-rule="evenodd" clip-rule="evenodd"
        d="M4.19283 8.39185C4.0924 16.4413 4.19498 24.4742 4.50052 32.4908C3.98769 32.4908 3.47489 32.4908 2.96206 32.4908C3.16188 24.6329 2.95674 16.8253 2.34668 9.06752C2.96206 8.84229 3.57745 8.61707 4.19283 8.39185Z"
        fill="#2ABABE" />
    <path opacity="0.995" fill-rule="evenodd" clip-rule="evenodd"
        d="M2.34615 9.06763C2.95621 16.8255 3.16135 24.6331 2.96153 32.4909C2.09246 32.5852 1.42578 32.36 0.961537 31.8152C0.905753 24.7531 0.751907 17.6959 0.5 10.6442C0.679476 9.83767 1.29486 9.31213 2.34615 9.06763Z"
        fill="#23B6C5" />
    <path opacity="0.993" fill-rule="evenodd" clip-rule="evenodd"
        d="M29.1152 32.4907C29.1152 26.5599 29.1152 20.6289 29.1152 14.698C30.4688 14.2676 31.5457 14.4928 32.346 15.3737C32.5512 20.7791 32.5512 26.1844 32.346 31.5898C32.1922 32.0026 31.8331 32.2655 31.2691 32.3781C30.5583 32.49 29.8405 32.5274 29.1152 32.4907Z"
        fill="#B6FC42" />
    <path opacity="0.985" fill-rule="evenodd" clip-rule="evenodd"
        d="M29.116 14.6982C29.116 20.6291 29.116 26.5601 29.116 32.4909C27.2698 32.4909 25.4237 32.4909 23.5775 32.4909C23.4948 31.4929 23.5972 30.5168 23.8852 29.563C25.3212 29.563 26.7569 29.563 28.1929 29.563C28.1415 24.8326 28.1929 20.1029 28.3468 15.3739C28.4628 15.0491 28.7191 14.8238 29.116 14.6982Z"
        fill="#A6F451" />
    <path opacity="0.94" fill-rule="evenodd" clip-rule="evenodd"
        d="M7.57715 29.563C9.11561 29.563 10.6541 29.563 12.1925 29.563C11.7823 30.5389 11.7823 31.515 12.1925 32.4909C10.6541 32.4909 9.11561 32.4909 7.57715 32.4909C7.57715 31.515 7.57715 30.5389 7.57715 29.563Z"
        fill="#4CCAA1" />
    <path opacity="0.957" fill-rule="evenodd" clip-rule="evenodd"
        d="M12.1924 29.563C14.2437 29.563 16.295 29.563 18.3463 29.563C18.429 30.561 18.3266 31.5371 18.0386 32.4909C16.0899 32.4909 14.1412 32.4909 12.1924 32.4909C11.7822 31.515 11.7822 30.5389 12.1924 29.563Z"
        fill="#6AD886" />
    <path opacity="0.951" fill-rule="evenodd" clip-rule="evenodd"
        d="M18.3468 29.563C20.1929 29.563 22.0391 29.563 23.8852 29.563C23.5972 30.5168 23.4947 31.4929 23.5775 32.4909C21.7314 32.4909 19.8852 32.4909 18.0391 32.4909C18.3271 31.5371 18.4295 30.561 18.3468 29.563Z"
        fill="#87E56D" />
</svg>
    