<svg width="32" height="32" viewBox="0 0 32 32" fill="none" xmlns="http://www.w3.org/2000/svg">
<g clip-path="url(#clip0_16_1578)">
<path fill-rule="evenodd" clip-rule="evenodd" d="M-0.0124512 -0.0124512C10.6542 -0.0124512 21.3209 -0.0124512 31.9875 -0.0124512C31.9875 10.6542 31.9875 21.3209 31.9875 31.9875C21.3209 31.9875 10.6542 31.9875 -0.0124512 31.9875C-0.0124512 21.3209 -0.0124512 10.6542 -0.0124512 -0.0124512Z" fill="black"/>
<path fill-rule="evenodd" clip-rule="evenodd" d="M9.6626 10.9875C9.37047 10.9841 9.0788 10.9924 8.7876 11.0125C8.94815 10.9735 9.11482 10.9569 9.2876 10.9625C9.41705 10.9625 9.54205 10.9708 9.6626 10.9875Z" fill="#676767"/>
<path fill-rule="evenodd" clip-rule="evenodd" d="M9.6624 10.9875C11.6094 11.1418 13.0719 12.0584 14.0499 13.7375C14.8345 15.4389 14.7178 17.0722 13.6999 18.6375C12.4826 20.2325 10.8617 20.9616 8.8374 20.825C6.9719 20.5999 5.5844 19.6707 4.6749 18.0375C4.48362 17.6229 4.34612 17.1895 4.2624 16.7375C4.245 16.5913 4.22 16.4496 4.1874 16.3125C4.18005 16.003 4.1884 15.6946 4.2124 15.3875C4.2492 15.2771 4.26585 15.1604 4.2624 15.0375C4.58635 13.5024 5.43635 12.3565 6.8124 11.6C6.98705 11.5002 7.17037 11.421 7.3624 11.3625C7.45977 11.3385 7.55142 11.3051 7.6374 11.2625C7.8778 11.1678 8.1278 11.1011 8.3874 11.0625C8.51025 11.066 8.62692 11.0493 8.7374 11.0125C8.75407 11.0125 8.77072 11.0125 8.7874 11.0125C9.0786 10.9925 9.37027 10.9842 9.6624 10.9875Z" fill="#FAFAFA"/>
<path fill-rule="evenodd" clip-rule="evenodd" d="M16.6875 10.9875C20.1458 10.9875 23.6042 10.9875 27.0625 10.9875C27.0625 14.2709 27.0625 17.5542 27.0625 20.8375C23.6042 20.8375 20.1458 20.8375 16.6875 20.8375C16.6875 17.5542 16.6875 14.2709 16.6875 10.9875Z" fill="#FCFCFC"/>
<path fill-rule="evenodd" clip-rule="evenodd" d="M8.73745 11.0125C8.62698 11.0493 8.5103 11.066 8.38745 11.0625C8.49793 11.0257 8.6146 11.0091 8.73745 11.0125Z" fill="#B9B9B9"/>
<path fill-rule="evenodd" clip-rule="evenodd" d="M7.63755 11.2625C7.55157 11.3051 7.45992 11.3384 7.36255 11.3625C7.4407 11.3002 7.53235 11.2669 7.63755 11.2625Z" fill="#9C9C9C"/>
<path fill-rule="evenodd" clip-rule="evenodd" d="M13.7126 15.2375C13.7058 15.3608 13.7225 15.4775 13.7626 15.5875C13.7788 17.5112 12.9204 18.8779 11.1876 19.6875C11.1152 19.7032 11.0485 19.7282 10.9876 19.7625C10.4545 19.9632 9.90038 20.0632 9.32511 20.0625C9.19473 20.0612 9.06558 20.0529 8.93761 20.0375C8.82713 20.0007 8.71046 19.984 8.58761 19.9875C7.28633 19.7608 6.27801 19.0941 5.56261 17.9875C5.56443 17.9493 5.54776 17.9243 5.51261 17.9125C5.37591 17.6596 5.25923 17.4013 5.16261 17.1375C5.16863 17.0775 5.15196 17.0275 5.11261 16.9875C5.11776 16.9126 5.10111 16.8459 5.06261 16.7875C4.75771 14.6913 5.54103 13.1538 7.41261 12.175C8.66196 11.6423 9.92028 11.6257 11.1876 12.125C12.5612 12.7356 13.4029 13.7731 13.7126 15.2375Z" fill="black"/>
<path fill-rule="evenodd" clip-rule="evenodd" d="M17.5125 11.8125C20.4125 11.8125 23.3125 11.8125 26.2125 11.8125C26.2125 14.5458 26.2125 17.2792 26.2125 20.0125C23.3125 20.0125 20.4125 20.0125 17.5125 20.0125C17.5125 17.2792 17.5125 14.5458 17.5125 11.8125Z" fill="black"/>
<path fill-rule="evenodd" clip-rule="evenodd" d="M4.2626 15.0375C4.26605 15.1603 4.2494 15.277 4.2126 15.3875C4.20915 15.2646 4.2258 15.148 4.2626 15.0375Z" fill="#A1A1A1"/>
<path fill-rule="evenodd" clip-rule="evenodd" d="M13.7124 15.2375C13.7492 15.348 13.7659 15.4647 13.7624 15.5875C13.7223 15.4775 13.7056 15.3609 13.7124 15.2375Z" fill="#4B4B4B"/>
<path fill-rule="evenodd" clip-rule="evenodd" d="M4.18759 16.3125C4.22019 16.4496 4.24519 16.5913 4.26259 16.7375C4.24454 16.7271 4.23204 16.7104 4.22509 16.6875C4.19884 16.5638 4.18634 16.4388 4.18759 16.3125Z" fill="#393939"/>
<path fill-rule="evenodd" clip-rule="evenodd" d="M5.0625 16.7875C5.101 16.8459 5.11765 16.9126 5.1125 16.9875C5.0808 16.9274 5.06412 16.8607 5.0625 16.7875Z" fill="#959595"/>
<path fill-rule="evenodd" clip-rule="evenodd" d="M5.11253 16.9875C5.15188 17.0276 5.16855 17.0776 5.16253 17.1375C5.12318 17.0975 5.1065 17.0475 5.11253 16.9875Z" fill="#9D9D9D"/>
<path fill-rule="evenodd" clip-rule="evenodd" d="M5.51259 17.9125C5.54774 17.9243 5.56441 17.9493 5.56259 17.9875C5.52744 17.9757 5.51076 17.9507 5.51259 17.9125Z" fill="#767676"/>
<path fill-rule="evenodd" clip-rule="evenodd" d="M11.1875 19.6875C11.1346 19.7414 11.0679 19.7664 10.9875 19.7625C11.0484 19.7282 11.1151 19.7032 11.1875 19.6875Z" fill="#9B9B9B"/>
<path fill-rule="evenodd" clip-rule="evenodd" d="M8.5874 19.9875C8.71025 19.9841 8.82693 20.0007 8.9374 20.0375C8.81455 20.041 8.69788 20.0243 8.5874 19.9875Z" fill="#434343"/>
</g>
<defs>
<clipPath id="clip0_16_1578">
<rect width="32" height="32" fill="white"/>
</clipPath>
</defs>
</svg>
