<svg width="32" height="32" viewBox="0 0 32 32" fill="none" xmlns="http://www.w3.org/2000/svg">
<rect width="32" height="32" fill="#B281EA"/>
<path d="M14.8571 0.0502382C14.6925 0.0685239 14.4365 0.0959525 14.2857 0.109667C14.1348 0.127952 13.9794 0.146238 13.9428 0.159952C13.9063 0.169095 13.792 0.187381 13.6914 0.205667C13.0651 0.297095 12.0548 0.575952 11.4057 0.841095C10.8983 1.05138 10.1805 1.39424 9.96568 1.52681C8.33368 2.5691 7.55197 3.34167 6.59197 4.86852C6.56454 4.91881 6.40454 5.2251 6.24454 5.55424C5.86511 6.32681 5.62739 7.0491 5.45825 7.95424C5.44454 8.01824 5.41711 8.14167 5.39425 8.22852C5.37139 8.31538 5.34397 8.54395 5.32568 8.73138C5.31197 8.91881 5.28911 9.1611 5.27539 9.26624C5.23425 9.59081 5.22511 10.3908 5.26168 10.7245C5.34397 11.4514 5.34397 11.4697 5.47654 12.0274C5.58625 12.4708 6.03882 13.7782 6.18511 14.0571C6.23997 14.1577 6.28111 14.2491 6.28568 14.2628C6.30397 14.368 6.88454 15.4742 7.21825 16.0411C7.44682 16.4297 7.63425 16.7542 7.63425 16.7634C7.63425 16.7725 7.65711 16.8045 7.67997 16.8365C7.70739 16.8685 7.79882 16.992 7.88111 17.12C8.61254 18.2491 9.87882 19.936 10.7337 20.928C10.9028 21.1245 11.1314 21.3988 11.2457 21.5314C11.5657 21.9154 11.872 22.2628 12.2285 22.6514C12.9325 23.4102 13.5451 24.0548 13.9565 24.4662C14.2263 24.736 14.4457 24.9645 14.4457 24.9737C14.4457 24.9782 14.2217 25.2068 13.952 25.4857C12.5805 26.88 12.1508 28.1645 12.576 29.5634C12.6583 29.8331 12.9097 30.3771 12.9828 30.4457C12.9965 30.4594 13.0697 30.5508 13.1428 30.6514C13.6274 31.3005 14.5463 31.84 15.36 31.9451C15.6708 31.9862 16.3657 31.9862 16.64 31.9451C17.1383 31.872 17.7051 31.6388 18.1668 31.3188C18.9074 30.8022 19.4514 29.888 19.5474 28.9965C19.6297 28.2742 19.5291 27.7211 19.2 27.04C18.9348 26.4822 18.6377 26.0891 18.048 25.4857C17.8011 25.2342 17.5908 25.0148 17.5863 24.9965C17.5771 24.9691 17.952 24.5668 19.168 23.3005C20.2651 22.1577 21.6731 20.4937 22.7611 19.0491C23.3737 18.2354 24.2971 16.8914 24.5394 16.4571C24.6034 16.3428 24.6903 16.1874 24.736 16.1142C25.7417 14.4182 26.4274 12.7588 26.624 11.52C26.6377 11.4331 26.6605 11.3097 26.6743 11.2457C26.7565 10.8434 26.784 10.0114 26.7291 9.29824C26.6971 8.80452 26.5005 7.62052 26.3954 7.2731C26.3543 7.13595 26.3177 6.98967 26.3085 6.9531C26.2217 6.5371 25.8011 5.57252 25.4308 4.92338C24.6857 3.61595 23.5063 2.41824 22.1577 1.60452C21.6868 1.3211 20.8457 0.91881 20.4343 0.777095C20.2697 0.722238 20.1051 0.66281 20.064 0.639952C20.0274 0.621667 19.6663 0.521095 19.264 0.420524C18.5691 0.242238 18.208 0.173667 17.6457 0.114238C17.5085 0.0959525 17.344 0.0730953 17.28 0.0639525C17.0834 0.0228096 15.168 0.0136668 14.8571 0.0502382ZM15.68 12.4434C15.68 18.1302 15.6708 22.7702 15.6617 22.7611C15.5611 22.6468 14.3268 20.1691 13.8971 19.2228C13.3988 18.1211 13.4034 18.1302 13.0971 17.3668C12.5257 15.9542 11.9268 14.1714 11.7257 13.2662C11.3874 11.7714 11.3143 11.1771 11.3188 9.96567C11.3188 9.15195 11.3463 8.61252 11.4057 8.18281C11.4194 8.09595 11.4377 7.93138 11.4514 7.8171C11.4651 7.70281 11.4834 7.57938 11.4971 7.54281C11.5063 7.50624 11.5245 7.39195 11.5428 7.29138C11.648 6.55995 12.032 5.37138 12.384 4.67195C13.0423 3.37367 14.0343 2.48224 15.1497 2.19424C15.328 2.14852 15.52 2.10738 15.5794 2.10738L15.68 2.10281V12.4434ZM19.6343 2.52338C20.416 2.78852 21.5771 3.4331 22.112 3.89024C22.432 4.16452 23.1817 4.95081 23.328 5.1611C23.4057 5.27538 23.4788 5.38052 23.4971 5.39424C23.5611 5.4491 23.9223 6.09824 24.1051 6.49138C24.32 6.94852 24.5485 7.6251 24.6354 8.04567C24.6628 8.18281 24.6994 8.34738 24.7085 8.41138C24.8777 9.25252 24.9005 10.592 24.7543 11.264C24.4343 12.7542 23.6205 14.464 22.2903 16.4297C21.7097 17.2845 21.7691 17.2022 21.2845 17.8514C20.928 18.3268 19.7805 19.776 19.7074 19.84C19.6937 19.8537 19.5017 20.0685 19.2868 20.32C18.7565 20.9325 18.1897 21.5634 17.8514 21.9245C17.7783 22.0022 17.6045 22.1851 17.4674 22.3268C17.3348 22.4685 17.216 22.5828 17.2114 22.5737C17.2023 22.5645 17.2343 22.4868 17.2754 22.4C17.3211 22.3131 17.5634 21.8285 17.8148 21.3257C18.2765 20.4114 18.3543 20.256 18.8205 19.2228C19.5063 17.7142 20.3977 15.3554 20.64 14.4C20.6537 14.3634 20.7223 14.0937 20.8 13.8057C20.8777 13.5177 20.9508 13.2251 20.96 13.1565C20.9737 13.088 21.0011 12.9828 21.0285 12.9188C21.0514 12.8502 21.0651 12.8 21.0514 12.8C21.0423 12.8 21.0514 12.736 21.0743 12.6537C21.0971 12.576 21.1291 12.4251 21.1428 12.3245C21.1565 12.2194 21.1794 12.0731 21.1977 12C21.3074 11.4422 21.3394 10.9028 21.3257 9.80567C21.3165 9.15195 21.3028 8.56681 21.2891 8.50281C21.2754 8.43881 21.2525 8.2651 21.2388 8.11424C21.2205 7.96338 21.2023 7.78967 21.1931 7.72567C21.1794 7.66167 21.1611 7.54738 21.1474 7.47424C21.0834 7.0491 21.056 6.93024 20.9508 6.49138C20.5211 4.6811 19.68 3.21824 18.56 2.31767L18.3588 2.15767L18.7885 2.26738C19.0263 2.33138 19.4103 2.4411 19.6343 2.52338ZM16.3063 26.9805C16.6171 27.2685 17.0514 27.8262 17.1748 28.1051C17.472 28.7771 17.088 29.4948 16.3474 29.6502C16.128 29.696 15.7074 29.6685 15.488 29.5954C15.1908 29.4994 14.8388 29.1611 14.7703 28.9097C14.6925 28.6262 14.7108 28.3428 14.8297 28.0914C15.04 27.6388 15.8034 26.7885 16 26.7885C16.0503 26.7885 16.1874 26.8754 16.3063 26.9805Z" fill="black"/>
</svg>
