<svg width="32" height="32" viewBox="0 0 32 32" fill="none" xmlns="http://www.w3.org/2000/svg">
<g clip-path="url(#clip0_18_20)">
<path fill-rule="evenodd" clip-rule="evenodd" d="M-0.0133057 -0.0133057C10.6534 -0.0133057 21.32 -0.0133057 31.9867 -0.0133057C31.9867 10.6534 31.9867 21.32 31.9867 31.9867C21.32 31.9867 10.6534 31.9867 -0.0133057 31.9867C-0.0133057 21.32 -0.0133057 10.6534 -0.0133057 -0.0133057Z" fill="#7585E8"/>
<path fill-rule="evenodd" clip-rule="evenodd" d="M25.6933 8.70665C25.7082 8.83105 25.7437 8.94659 25.8 9.05331C25.8669 9.27598 25.9024 9.50707 25.9067 9.74665C25.9067 10.1555 25.9067 10.5644 25.9067 10.9733C24.2577 10.9645 22.6133 10.9733 20.9733 11C19.9192 10.9788 18.9148 11.1877 17.96 11.6266C16.8268 12.3053 16.1868 13.3053 16.04 14.6266C16.0029 14.7538 15.9852 14.8872 15.9867 15.0266C15.9867 18.6533 15.9867 22.28 15.9867 25.9066C13.88 25.9111 11.7733 25.9066 9.66665 25.8933C7.92441 25.6464 6.76441 24.6908 6.18665 23.0266C6.12782 22.7714 6.08337 22.5136 6.05332 22.2533C6.03553 18.04 6.03553 13.8266 6.05332 9.61331C6.23422 8.30441 6.87868 7.29553 7.98665 6.58665C8.4954 6.27779 9.04652 6.09113 9.63998 6.02665C13.8355 6.00886 18.0311 6.00886 22.2267 6.02665C23.9159 6.23654 25.0715 7.12987 25.6933 8.70665Z" fill="#FEFEFE"/>
<path fill-rule="evenodd" clip-rule="evenodd" d="M25.6934 8.70667C25.7496 8.81339 25.7852 8.92893 25.8 9.05333C25.7438 8.94661 25.7082 8.83107 25.6934 8.70667Z" fill="#D5D9F7"/>
<path fill-rule="evenodd" clip-rule="evenodd" d="M25.9067 9.74664C25.9332 10.1597 25.9421 10.5775 25.9333 11C24.28 11 22.6267 11 20.9733 11C22.6133 10.9733 24.2577 10.9645 25.9067 10.9733C25.9067 10.5644 25.9067 10.1555 25.9067 9.74664Z" fill="#DEE2F9"/>
<path fill-rule="evenodd" clip-rule="evenodd" d="M25.9067 12.9734C25.9067 12.9822 25.9067 12.9911 25.9067 13C24.093 12.9919 22.2797 13.0007 20.4667 13.0267C20.5235 13.005 20.5857 12.9916 20.6533 12.9867C22.4044 12.9734 24.1555 12.9689 25.9067 12.9734Z" fill="#E1E4F9"/>
<path fill-rule="evenodd" clip-rule="evenodd" d="M25.9066 13C25.9066 14.6267 25.9066 16.2533 25.9066 17.88C23.4355 17.88 20.9644 17.88 18.4933 17.88C18.4889 16.9289 18.4933 15.9777 18.5066 15.0267C18.5443 14.9139 18.5665 14.7984 18.5733 14.68C18.6113 14.6263 18.629 14.5641 18.6266 14.4933C18.7962 13.848 19.1962 13.408 19.8266 13.1733C20.0326 13.0907 20.246 13.0418 20.4666 13.0267C22.2797 13.0007 24.093 12.9918 25.9066 13Z" fill="#FEFEFE"/>
<path fill-rule="evenodd" clip-rule="evenodd" d="M18.6267 14.4933C18.6291 14.5641 18.6113 14.6263 18.5733 14.68C18.5709 14.6093 18.5887 14.5471 18.6267 14.4933Z" fill="#C6CBF4"/>
<path fill-rule="evenodd" clip-rule="evenodd" d="M16.04 14.6266C16.0453 14.7666 16.0275 14.9 15.9867 15.0266C15.9852 14.8872 16.003 14.7538 16.04 14.6266Z" fill="#C4C9F4"/>
<path fill-rule="evenodd" clip-rule="evenodd" d="M25.9067 12.9733C25.9333 14.6133 25.9422 16.2577 25.9333 17.9067C23.4489 17.9155 20.9689 17.9066 18.4933 17.88C20.9645 17.88 23.4356 17.88 25.9067 17.88C25.9067 16.2533 25.9067 14.6267 25.9067 13C25.9067 12.9911 25.9067 12.9822 25.9067 12.9733Z" fill="#CDD2F6"/>
<path fill-rule="evenodd" clip-rule="evenodd" d="M18.4667 19.8533C20.9467 19.8533 23.4267 19.8533 25.9067 19.8533C25.9111 20.6089 25.9067 21.3645 25.8933 22.12C25.7092 23.8594 24.807 25.055 23.1867 25.7067C22.9385 25.7599 22.6897 25.8133 22.44 25.8667C21.1161 25.9053 19.7917 25.9186 18.4667 25.9067C18.4667 23.8889 18.4667 21.8711 18.4667 19.8533Z" fill="#FEFEFE"/>
</g>
<defs>
<clipPath id="clip0_18_20">
<rect width="32" height="32" fill="white"/>
</clipPath>
</defs>
</svg>
