<svg width="32" height="32" viewBox="0 0 32 32" fill="none" xmlns="http://www.w3.org/2000/svg">
<g clip-path="url(#clip0_19_50)">
<mask id="mask0_19_50" style="mask-type:luminance" maskUnits="userSpaceOnUse" x="0" y="0" width="32" height="32">
<path d="M32 0H0V32H32V0Z" fill="white"/>
</mask>
<g mask="url(#mask0_19_50)">
<path fill-rule="evenodd" clip-rule="evenodd" d="M17.4223 0.639997C22.4066 0.297997 25.5592 2.52615 26.88 7.32444C27.3447 10.12 27.3447 12.917 26.88 15.7156C25.9865 19.2562 24.6591 22.622 22.8978 25.8133C21.8971 27.3364 20.7358 28.7349 19.4134 30.0089C17.5931 31.4487 15.602 31.7332 13.44 30.8622C10.9749 29.7718 9.10226 28.0414 7.82226 25.6711C4.85946 20.5047 3.95873 15.0054 5.12004 9.17333C5.75263 7.40355 6.8193 5.95763 8.32004 4.83555C10.9889 2.62724 14.023 1.22872 17.4223 0.639997Z" fill="#F15D36"/>
<path fill-rule="evenodd" clip-rule="evenodd" d="M14.5777 17.7067C14.5297 20.0097 14.3875 22.2852 14.1511 24.5333C13.7858 24.3625 13.4303 24.1729 13.0844 23.9644C12.5284 24.1894 12.0069 24.4739 11.52 24.8178C11.4251 19.5555 11.4251 14.2933 11.52 9.0311C11.6385 8.91259 11.757 8.79406 11.8755 8.67555C15.4308 8.60444 18.9863 8.58074 22.5422 8.60444C22.5422 9.55259 22.5422 10.5007 22.5422 11.4489C19.9344 11.4252 17.3269 11.4489 14.72 11.52C14.5804 12.5743 14.5331 13.6409 14.5777 14.72C16.7116 14.6962 18.845 14.72 20.9777 14.7911C21.0489 14.8622 21.12 14.9333 21.1911 15.0044C21.3059 15.8458 21.2822 16.6755 21.12 17.4933C18.9287 17.5192 16.7479 17.5903 14.5777 17.7067Z" fill="#FEFDFD"/>
<path fill-rule="evenodd" clip-rule="evenodd" d="M14.5778 17.7067C14.5778 20.0296 14.5778 22.3526 14.5778 24.6756C14.3942 24.7093 14.252 24.6619 14.1511 24.5333C14.3875 22.2852 14.5297 20.0097 14.5778 17.7067Z" fill="#FBD5C8"/>
</g>
</g>
<defs>
<clipPath id="clip0_19_50">
<rect width="32" height="32" fill="white"/>
</clipPath>
</defs>
</svg>
