<svg width="32" height="32" viewBox="0 0 33 33" fill="none" xmlns="http://www.w3.org/2000/svg">
    <path fill-rule="evenodd" clip-rule="evenodd"
        d="M2.64241 11.6146C-1.17547 16.5617 1.47229 22.5617 8.51623 25.4164L11.7365 21.2462C8.12554 19.5697 6.83068 16.3566 8.89338 13.684C10.9561 11.0121 15.653 9.81666 19.8277 10.7629L27.89 0.38501L18.1876 5.88478C11.9212 5.54935 5.67796 7.68396 2.64241 11.6146ZM25.2722 7.41498L22.0964 11.5277C25.7073 13.2048 27.0013 16.4173 24.9405 19.0905C22.8768 21.7624 18.1799 22.9578 14.0061 22.0116L5.85203 32.385L15.4586 26.9383C21.7734 27.3133 28.0882 25.1768 31.145 21.2162C34.9648 16.269 32.3152 10.2709 25.2722 7.41498Z"
        fill="#34C5F3" />
</svg>