<svg width="32" height="32" viewBox="0 0 32 32" fill="none" xmlns="http://www.w3.org/2000/svg">
<g clip-path="url(#clip0_19_624)">
<path fill-rule="evenodd" clip-rule="evenodd" d="M12.9778 -0.0593262C14.6766 -0.0593262 16.3754 -0.0593262 18.0741 -0.0593262C18.4924 0.168558 18.9665 0.247569 19.4964 0.177711C19.8268 0.471199 20.2219 0.589718 20.6815 0.533266C21.079 0.562596 21.4346 0.681115 21.7482 0.888822C22.9872 1.52821 24.2118 2.19981 25.4223 2.90364C25.4617 2.90364 25.5013 2.90364 25.5408 2.90364C25.5408 3.14067 25.6593 3.25919 25.8964 3.25919C26.1416 3.62334 26.4577 3.89989 26.8445 4.08882C27.121 4.44438 27.4371 4.76043 27.7926 5.03697C27.9816 5.42384 28.2581 5.73989 28.6223 5.98512C28.6505 6.21082 28.769 6.36885 28.9778 6.45919C28.9692 6.64016 29.0482 6.75868 29.2149 6.81475C29.3144 7.09356 29.4725 7.3306 29.6889 7.52586C29.7576 7.8614 29.9156 8.13794 30.163 8.35549C30.3895 9.15642 30.7056 9.90705 31.1112 10.6073C31.3534 11.5022 31.551 12.4108 31.7038 13.3333C31.7906 14.7142 31.8301 16.097 31.8223 17.4814C30.8157 24.2585 27.1022 28.8215 20.6815 31.1703C19.8642 31.3545 19.0742 31.5717 18.3112 31.8222C18.3112 31.8616 18.3112 31.9012 18.3112 31.9407C16.731 31.9407 15.1506 31.9407 13.5704 31.9407C13.5704 31.9012 13.5704 31.8616 13.5704 31.8222C12.3064 31.5058 11.0422 31.1503 9.77783 30.7555C9.13051 30.2738 8.4194 29.9183 7.6445 29.6888C7.58843 29.5222 7.46991 29.4431 7.28894 29.4518C7.09368 29.2354 6.85665 29.0773 6.57783 28.9777C6.48749 28.7689 6.32947 28.6504 6.10376 28.6222C5.89762 28.2971 5.62108 28.06 5.27413 27.911C4.48839 27.1297 3.75753 26.3 3.08154 25.4222C2.35524 24.2453 1.66389 23.0601 1.00746 21.8666C0.841352 21.1195 0.604315 20.4083 0.296351 19.7333C0.308253 18.9842 0.189735 18.2731 -0.0592041 17.5999C-0.0592041 16.4938 -0.0592041 15.3875 -0.0592041 14.2814C0.200464 13.0634 0.477008 11.8387 0.770426 10.6073C1.24206 9.5847 1.71613 8.55755 2.19265 7.52586C2.51752 7.23248 2.75456 6.87692 2.90376 6.45919C3.11264 6.36885 3.23115 6.21082 3.25931 5.98512C4.25088 4.87494 5.31754 3.84778 6.45931 2.90364C6.79949 2.79302 7.07604 2.59549 7.28894 2.31104C7.74517 2.26149 8.10072 2.06396 8.35561 1.71845C8.89104 1.59336 9.36512 1.35632 9.77783 1.00734C10.2189 0.94611 10.6535 0.847345 11.0815 0.711044C11.1474 0.665701 11.1869 0.606442 11.2001 0.533266C11.7748 0.280977 12.3673 0.0834467 12.9778 -0.0593262Z" fill="#4F4F4F"/>
<path opacity="0.945" fill-rule="evenodd" clip-rule="evenodd" d="M18.0741 -0.0593262C18.3506 -0.0593262 18.6272 -0.0593262 18.9037 -0.0593262C19.1013 0.0196862 19.2987 0.0986985 19.4963 0.177711C18.9664 0.247569 18.4923 0.168558 18.0741 -0.0593262Z" fill="#777777"/>
<path opacity="0.896" fill-rule="evenodd" clip-rule="evenodd" d="M19.4963 0.177734C19.9365 0.188431 20.3317 0.306949 20.6815 0.53329C20.2219 0.589742 19.8268 0.471223 19.4963 0.177734Z" fill="#818181"/>
<path opacity="0.663" fill-rule="evenodd" clip-rule="evenodd" d="M11.2001 0.533447C11.1869 0.606623 11.1474 0.665882 11.0815 0.711225C10.6535 0.847526 10.2189 0.946291 9.77783 1.00752C10.2043 0.742007 10.6784 0.583981 11.2001 0.533447Z" fill="#7A7A7A"/>
<path opacity="0.706" fill-rule="evenodd" clip-rule="evenodd" d="M9.77781 1.00732C9.3651 1.3563 8.89102 1.59334 8.35559 1.71844C8.75884 1.35878 9.23291 1.12174 9.77781 1.00732Z" fill="#7E7E7E"/>
<path opacity="0.369" fill-rule="evenodd" clip-rule="evenodd" d="M21.7482 0.888916C22.7131 1.17374 23.6217 1.58855 24.4741 2.13336C24.8202 2.36401 25.1363 2.6208 25.4222 2.90373C24.2118 2.19991 22.9872 1.5283 21.7482 0.888916Z" fill="#A5A5A5"/>
<path opacity="0.855" fill-rule="evenodd" clip-rule="evenodd" d="M8.35561 1.71851C8.10072 2.06401 7.74517 2.26155 7.28894 2.3111C7.58616 2.02386 7.94172 1.82632 8.35561 1.71851Z" fill="#797979"/>
<path fill-rule="evenodd" clip-rule="evenodd" d="M2.19253 17.2445C2.18404 15.9784 2.22354 14.7141 2.31105 13.4519C3.32048 8.6508 6.0464 5.19401 10.4888 3.08152C15.7297 1.18966 20.5495 1.94027 24.9481 5.33338C30.2257 10.4741 31.1937 16.3408 27.8518 22.9334C24.5435 27.9747 19.862 30.2067 13.8074 29.6297C8.27504 28.5222 4.5812 25.3024 2.72587 19.9704C2.4715 19.0762 2.29373 18.1675 2.19253 17.2445Z" fill="#FDFDFD"/>
<path opacity="0.314" fill-rule="evenodd" clip-rule="evenodd" d="M7.28886 2.31104C7.07595 2.59548 6.7994 2.79301 6.45923 2.90363C6.67214 2.61918 6.94869 2.42165 7.28886 2.31104Z" fill="#949494"/>
<path opacity="0.086" fill-rule="evenodd" clip-rule="evenodd" d="M25.5408 2.90381C25.6988 2.98282 25.8173 3.10134 25.8963 3.25936C25.6593 3.25936 25.5408 3.14085 25.5408 2.90381Z" fill="#B9B9B9"/>
<path opacity="0.01" fill-rule="evenodd" clip-rule="evenodd" d="M25.8962 3.25928C26.2831 3.44821 26.5992 3.72476 26.8444 4.08891C26.4575 3.89998 26.1415 3.62343 25.8962 3.25928Z" fill="#B7B7B7"/>
<path opacity="0.01" fill-rule="evenodd" clip-rule="evenodd" d="M26.8445 4.08887C27.2791 4.2864 27.5951 4.60244 27.7926 5.03702C27.4371 4.76048 27.121 4.44442 26.8445 4.08887Z" fill="#CFCFCF"/>
<path opacity="0.725" fill-rule="evenodd" clip-rule="evenodd" d="M27.7926 5.03711C28.1568 5.28234 28.4333 5.59839 28.6222 5.98526C28.258 5.74003 27.9815 5.42398 27.7926 5.03711Z" fill="#BFBFBF"/>
<path opacity="0.459" fill-rule="evenodd" clip-rule="evenodd" d="M6.45928 2.90381C5.31751 3.84795 4.25084 4.87512 3.25928 5.98529C4.09435 4.71562 5.16101 3.68846 6.45928 2.90381Z" fill="#989898"/>
<path opacity="0.31" fill-rule="evenodd" clip-rule="evenodd" d="M3.25924 5.98511C3.23108 6.21081 3.11256 6.36883 2.90369 6.45918C2.93185 6.23347 3.05037 6.07545 3.25924 5.98511Z" fill="#A9A9A9"/>
<path opacity="0.302" fill-rule="evenodd" clip-rule="evenodd" d="M28.6222 5.98511C28.831 6.07545 28.9495 6.23347 28.9777 6.45918C28.7689 6.36883 28.6504 6.21081 28.6222 5.98511Z" fill="#D5D5D5"/>
<path opacity="0.216" fill-rule="evenodd" clip-rule="evenodd" d="M2.90374 6.45923C2.75454 6.87696 2.5175 7.23251 2.19263 7.5259C2.3376 7.10521 2.57464 6.74966 2.90374 6.45923Z" fill="#AEAEAE"/>
<path opacity="0.204" fill-rule="evenodd" clip-rule="evenodd" d="M28.9778 6.45923C29.1445 6.5153 29.2235 6.63382 29.2149 6.81478C29.0482 6.75871 28.9692 6.64019 28.9778 6.45923Z" fill="#D4D4D4"/>
<path opacity="0.067" fill-rule="evenodd" clip-rule="evenodd" d="M29.2148 6.8147C29.49 6.96902 29.648 7.20606 29.6889 7.52581C29.4725 7.33055 29.3144 7.09351 29.2148 6.8147Z" fill="#D8D8D8"/>
<path fill-rule="evenodd" clip-rule="evenodd" d="M10.1334 7.64453C14.3606 7.64453 18.5877 7.64453 22.8149 7.64453C22.8149 8.98774 22.8149 10.331 22.8149 11.6742C18.1926 11.6742 13.5704 11.6742 8.94818 11.6742C8.92846 10.6857 8.94822 9.69807 9.00744 8.7112C9.29256 8.24797 9.66788 7.89241 10.1334 7.64453Z" fill="#4F4F4F"/>
<path opacity="0.102" fill-rule="evenodd" clip-rule="evenodd" d="M29.6888 7.52588C29.9363 7.74343 30.0943 8.01997 30.1629 8.35551C29.9155 8.13796 29.7575 7.86142 29.6888 7.52588Z" fill="#DBDBDB"/>
<path opacity="0.024" fill-rule="evenodd" clip-rule="evenodd" d="M30.163 8.35547C30.6395 9.03285 30.9556 9.78347 31.1111 10.6073C30.7055 9.90703 30.3895 9.15641 30.163 8.35547Z" fill="#D2D2D2"/>
<path opacity="0.722" fill-rule="evenodd" clip-rule="evenodd" d="M2.19261 7.52588C1.71609 8.55757 1.24202 9.58472 0.770386 10.6074C1.05453 9.48636 1.52861 8.4592 2.19261 7.52588Z" fill="#9F9F9F"/>
<path opacity="0.573" fill-rule="evenodd" clip-rule="evenodd" d="M31.1111 10.6074C31.5124 11.4615 31.7494 12.3701 31.8222 13.3333C31.7827 13.3333 31.7431 13.3333 31.7037 13.3333C31.5509 12.4109 31.3533 11.5023 31.1111 10.6074Z" fill="#CFCFCF"/>
<path opacity="0.043" fill-rule="evenodd" clip-rule="evenodd" d="M0.770426 10.6074C0.477008 11.8388 0.200464 13.0635 -0.0592041 14.2815C-0.0592041 13.9654 -0.0592041 13.6494 -0.0592041 13.3333C0.125151 12.3988 0.401694 11.4902 0.770426 10.6074Z" fill="#A6A6A6"/>
<path fill-rule="evenodd" clip-rule="evenodd" d="M8.94812 13.926C13.5703 13.926 18.1926 13.926 22.8148 13.926C22.8345 14.8355 22.8148 15.7442 22.7555 16.652C22.5653 17.3557 22.111 17.7705 21.3926 17.8964C18.5879 17.9557 15.783 17.9754 12.9777 17.9557C12.9777 20.089 12.9777 22.2223 12.9777 24.3557C11.6345 24.3557 10.2913 24.3557 8.94812 24.3557C8.94812 20.8792 8.94812 17.4025 8.94812 13.926Z" fill="#4F4F4F"/>
<path fill-rule="evenodd" clip-rule="evenodd" d="M2.31116 13.4519C2.22365 14.7141 2.18415 15.9784 2.19264 17.2445C2.11375 16.7721 2.07424 16.2782 2.07413 15.763C2.05675 14.9653 2.13577 14.1949 2.31116 13.4519Z" fill="#BEBEBE"/>
<path fill-rule="evenodd" clip-rule="evenodd" d="M31.7037 13.3333C31.7432 13.3333 31.7828 13.3333 31.8223 13.3333C31.8617 13.3333 31.9013 13.3333 31.9408 13.3333C31.9408 14.716 31.9408 16.0986 31.9408 17.4814C31.9013 17.4814 31.8617 17.4814 31.8223 17.4814C31.8301 16.097 31.7906 14.7142 31.7037 13.3333Z" fill="#949494"/>
<path opacity="0.678" fill-rule="evenodd" clip-rule="evenodd" d="M-0.0592041 17.6001C0.189735 18.2733 0.308253 18.9844 0.296351 19.7334C0.1652 19.3018 0.046681 18.8672 -0.0592041 18.4297C-0.0592041 18.1532 -0.0592041 17.8766 -0.0592041 17.6001Z" fill="#B1B1B1"/>
<path opacity="0.341" fill-rule="evenodd" clip-rule="evenodd" d="M0.296265 19.7334C0.604228 20.4085 0.841265 21.1196 1.00738 21.8667C0.662829 21.2031 0.425792 20.492 0.296265 19.7334Z" fill="#CBCBCB"/>
<path fill-rule="evenodd" clip-rule="evenodd" d="M15.4667 20.4443C17.9161 20.4443 20.3654 20.4443 22.8148 20.4443C22.8148 21.7086 22.8148 22.9727 22.8148 24.2369C20.3654 24.2369 17.9161 24.2369 15.4667 24.2369C15.4667 22.9727 15.4667 21.7086 15.4667 20.4443Z" fill="#F15A24"/>
<path fill-rule="evenodd" clip-rule="evenodd" d="M15.3481 20.4444C17.856 20.3263 20.3844 20.2867 22.9333 20.3259C22.9722 21.6903 22.9327 23.0336 22.8148 24.3556C22.8148 24.3161 22.8148 24.2765 22.8148 24.237C22.8148 22.9728 22.8148 21.7087 22.8148 20.4444C20.3654 20.4444 17.9161 20.4444 15.4667 20.4444C15.4272 20.4444 15.3876 20.4444 15.3481 20.4444Z" fill="#F9B9A2"/>
<path fill-rule="evenodd" clip-rule="evenodd" d="M15.3481 20.4443C15.3876 20.4443 15.4272 20.4443 15.4667 20.4443C15.4667 21.7086 15.4667 22.9727 15.4667 24.2369C17.9161 24.2369 20.3654 24.2369 22.8148 24.2369C22.8148 24.2764 22.8148 24.316 22.8148 24.3554C20.3259 24.3554 17.837 24.3554 15.3481 24.3554C15.3481 23.0517 15.3481 21.748 15.3481 20.4443Z" fill="#F26E3F"/>
<path opacity="0.29" fill-rule="evenodd" clip-rule="evenodd" d="M1.00745 21.8667C1.66387 23.0602 2.35523 24.2454 3.08152 25.4223C3.75751 26.3001 4.48837 27.1298 5.27411 27.9111C3.30232 26.2932 1.8801 24.2784 1.00745 21.8667Z" fill="#C6C6C6"/>
<path opacity="0.718" fill-rule="evenodd" clip-rule="evenodd" d="M5.27405 27.9111C5.621 28.0601 5.89754 28.2971 6.10368 28.6222C5.75673 28.4733 5.48019 28.2362 5.27405 27.9111Z" fill="#C1C1C1"/>
<path opacity="0.361" fill-rule="evenodd" clip-rule="evenodd" d="M6.10376 28.6223C6.32947 28.6505 6.48749 28.769 6.57783 28.9779C6.35213 28.9497 6.19411 28.8311 6.10376 28.6223Z" fill="#CECECE"/>
<path opacity="0.184" fill-rule="evenodd" clip-rule="evenodd" d="M31.8223 17.4814C31.8617 17.4814 31.9013 17.4814 31.9408 17.4814C31.9408 17.7975 31.9408 18.1135 31.9408 18.4296C30.813 24.0819 27.6524 28.1707 22.4593 30.6963C21.1298 31.2778 19.7471 31.6532 18.3112 31.8222C19.0742 31.5718 19.8642 31.3545 20.6815 31.1703C27.1022 28.8215 30.8157 24.2586 31.8223 17.4814Z" fill="#D7D7D7"/>
<path opacity="0.082" fill-rule="evenodd" clip-rule="evenodd" d="M6.57776 28.9778C6.85657 29.0773 7.09361 29.2354 7.28887 29.4519C6.96912 29.411 6.73208 29.253 6.57776 28.9778Z" fill="#D7D7D7"/>
<path opacity="0.188" fill-rule="evenodd" clip-rule="evenodd" d="M7.28894 29.4518C7.46991 29.4432 7.58842 29.5222 7.6445 29.6888C7.46353 29.6975 7.34501 29.6184 7.28894 29.4518Z" fill="#D3D3D3"/>
<path opacity="0.863" fill-rule="evenodd" clip-rule="evenodd" d="M7.64441 29.689C8.41931 29.9184 9.13042 30.274 9.77774 30.7556C8.9972 30.5233 8.28609 30.1678 7.64441 29.689Z" fill="#B5B5B5"/>
<path opacity="0.106" fill-rule="evenodd" clip-rule="evenodd" d="M9.77783 30.7556C11.0422 31.1504 12.3064 31.506 13.5704 31.8223C12.2283 31.7036 10.9641 31.3481 9.77783 30.7556Z" fill="#C5C5C5"/>
</g>
<defs>
<clipPath id="clip0_19_624">
<rect width="32" height="32" fill="white"/>
</clipPath>
</defs>
</svg>
