<svg width="32" height="32" viewBox="0 0 33 33" fill="none" xmlns="http://www.w3.org/2000/svg">
    <path fill-rule="evenodd" clip-rule="evenodd"
        d="M3.20222 0.5C11.9726 0.5 20.7429 0.5 29.5133 0.5C30.9125 0.95089 31.9081 1.85163 32.5 3.20222C32.5 3.86593 32.5 4.52962 32.5 5.19333C31.7542 6.5279 30.6164 7.35753 29.0867 7.68222C20.6482 7.77704 12.2096 7.77704 3.77111 7.68222C2.19724 7.28169 1.10687 6.35725 0.5 4.90889C0.5 4.2926 0.5 3.67629 0.5 3.06C1.03399 1.81478 1.93474 0.961446 3.20222 0.5Z"
        fill="#1DAC84" />
    <path fill-rule="evenodd" clip-rule="evenodd"
        d="M4.1979 13.0157C9.17591 12.992 14.1537 13.0157 19.1312 13.0868C21.3442 13.6375 22.4109 15.036 22.3312 17.2824C21.7928 18.9111 20.6788 19.8829 18.989 20.1979C14.1061 20.2928 9.22308 20.2928 4.34012 20.1979C1.83446 19.6117 0.767797 18.071 1.14012 15.5757C1.76463 14.2348 2.78388 13.3814 4.1979 13.0157Z"
        fill="#1AAC84" />
    <path fill-rule="evenodd" clip-rule="evenodd"
        d="M6.89992 32.5001C5.90437 32.5001 4.90881 32.5001 3.91326 32.5001C3.49566 32.2429 3.069 31.9822 2.63326 31.7178C0.656456 29.3794 0.988308 27.4357 3.62881 25.8867C5.81692 25.1285 7.6421 25.6263 9.10437 27.3801C9.9705 29.7725 9.23568 31.4792 6.89992 32.5001Z"
        fill="#1CAC84" />
</svg>