<svg width="32" height="32" viewBox="0 0 32 32" fill="none" xmlns="http://www.w3.org/2000/svg">
<g clip-path="url(#clip0_19_1106)">
<path opacity="0.985" fill-rule="evenodd" clip-rule="evenodd" d="M4 -0.121216C6.26261 -0.121216 8.52526 -0.121216 10.7879 -0.121216C10.8891 0.0537124 11.0507 0.174925 11.2727 0.242421C7.8072 7.69895 4.37287 15.1737 0.969693 22.6667C0.639167 23.1961 0.275531 23.6809 -0.121216 24.1212C-0.121216 17.4141 -0.121216 10.7071 -0.121216 4C0.251383 3.17575 0.695827 2.36768 1.21212 1.57575C2.06389 0.848457 2.99318 0.282801 4 -0.121216Z" fill="#582D76"/>
<path opacity="0.993" fill-rule="evenodd" clip-rule="evenodd" d="M10.7879 -0.121216C11.4343 -0.121216 12.0808 -0.121216 12.7273 -0.121216C12.8285 0.0537124 12.9901 0.174925 13.2121 0.242421C12.2725 1.75729 11.424 3.33304 10.6667 4.96969C7.27411 12.4015 3.88017 19.8359 0.484845 27.2727C0.322236 27.455 0.120215 27.536 -0.121216 27.5151C-0.121216 26.3838 -0.121216 25.2526 -0.121216 24.1212C0.275531 23.6809 0.639167 23.1961 0.969693 22.6667C4.37287 15.1737 7.8072 7.69895 11.2727 0.242421C11.0507 0.174925 10.8891 0.0537124 10.7879 -0.121216Z" fill="#602874"/>
<path opacity="0.994" fill-rule="evenodd" clip-rule="evenodd" d="M24.8485 -0.121216C25.8989 -0.121216 26.9496 -0.121216 28 -0.121216C28.4269 0.0758057 28.831 0.318229 29.2121 0.606057C29.0349 0.713172 28.7925 0.753577 28.4848 0.727269C26.128 6.41602 23.542 12.0726 20.7273 17.697C21.0873 18.1228 21.0064 18.4056 20.4848 18.5455C20.4848 18.3838 20.4848 18.2222 20.4848 18.0606C19.5784 17.9396 18.6895 17.6972 17.8182 17.3333C18.3612 16.4105 18.7652 15.4408 19.0303 14.4242C19.5151 14.4242 20 14.4242 20.4848 14.4242C20.4848 14.1818 20.4848 13.9394 20.4848 13.697C20.1616 13.697 19.8384 13.697 19.5151 13.697C19.6164 13.522 19.778 13.4008 20 13.3333C19.8891 13.233 19.8083 13.1118 19.7576 12.9697C20.1445 12.253 20.5081 11.5258 20.8485 10.7879C21.4005 10.6383 21.9257 10.4766 22.4242 10.303C22.4242 10.0606 22.4242 9.81818 22.4242 9.57575C21.9965 9.34269 21.5116 9.26189 20.9697 9.33333C20.896 9.17578 20.8152 9.01418 20.7273 8.84848C21.2012 7.98211 21.6053 7.09321 21.9394 6.18181C22.1798 6.22341 22.3414 6.14259 22.4242 5.93939C22.4242 5.69697 22.4242 5.45454 22.4242 5.21212C23.2364 3.42693 24.0445 1.64915 24.8485 -0.121216Z" fill="#B6046E"/>
<path fill-rule="evenodd" clip-rule="evenodd" d="M14.9091 -0.121216C15.4748 -0.121216 16.0404 -0.121216 16.6061 -0.121216C16.8239 0.0382203 17.0663 0.199837 17.3334 0.363633C16.7032 1.90686 15.9759 3.40181 15.1515 4.84848C15.4515 4.90475 15.694 5.02596 15.8788 5.21212C15.1515 5.21212 14.4243 5.21212 13.697 5.21212C13.5251 4.99297 13.2827 4.91217 12.9697 4.96969C13.4943 3.35425 14.2216 1.81889 15.1515 0.363633C15.0636 0.197945 14.9828 0.0363284 14.9091 -0.121216Z" fill="#771A6F"/>
<path fill-rule="evenodd" clip-rule="evenodd" d="M16.606 -0.121216C17.899 -0.121216 19.1919 -0.121216 20.4848 -0.121216C19.8584 1.57646 19.1311 3.23301 18.303 4.84848C18.4378 4.94123 18.5186 5.06244 18.5454 5.21212C17.6565 5.21212 16.7677 5.21212 15.8788 5.21212C15.6939 5.02596 15.4515 4.90475 15.1515 4.84848C15.9758 3.40181 16.7031 1.90686 17.3333 0.363633C17.0663 0.199837 16.8238 0.0382203 16.606 -0.121216Z" fill="#86116C"/>
<path fill-rule="evenodd" clip-rule="evenodd" d="M20.4849 -0.121216C21.9394 -0.121216 23.3939 -0.121216 24.8485 -0.121216C24.0445 1.64915 23.2364 3.42693 22.4243 5.21212C21.1313 5.21212 19.8384 5.21212 18.5455 5.21212C18.5186 5.06244 18.4378 4.94123 18.303 4.84848C19.1311 3.23301 19.8584 1.57646 20.4849 -0.121216Z" fill="#9E066A"/>
<path fill-rule="evenodd" clip-rule="evenodd" d="M29.2121 0.606079C29.9265 0.916503 30.4924 1.40135 30.9091 2.06062C30.6676 2.03983 30.4657 2.12064 30.303 2.30305C25.8691 11.736 21.5054 21.1905 17.2121 30.6667C16.9439 31.3001 16.4994 31.7043 15.8788 31.8788C15.2323 31.8788 14.5859 31.8788 13.9394 31.8788C14.1023 31.6929 14.3043 31.5312 14.5455 31.394C16.4624 27.1564 18.4422 22.9543 20.4848 18.7879C20.4848 18.7071 20.4848 18.6263 20.4848 18.5455C21.0064 18.4056 21.0873 18.1228 20.7273 17.697C23.542 12.0726 26.128 6.41604 28.4848 0.727291C28.7925 0.753599 29.0349 0.713194 29.2121 0.606079Z" fill="#C90073"/>
<path opacity="0.998" fill-rule="evenodd" clip-rule="evenodd" d="M30.9091 2.06056C31.2322 2.54541 31.5556 3.03026 31.8788 3.51511C31.8788 3.83833 31.8788 4.16158 31.8788 4.48481C31.4448 4.79196 31.0812 5.27681 30.7879 5.93935C26.8686 14.4242 22.9495 22.9091 19.0303 31.3939C19.2103 31.5592 19.372 31.7209 19.5151 31.8787C18.303 31.8787 17.0909 31.8787 15.8788 31.8787C16.4994 31.7042 16.9439 31.3001 17.2121 30.6666C21.5054 21.1905 25.8691 11.7359 30.303 2.30299C30.4657 2.12058 30.6676 2.03977 30.9091 2.06056Z" fill="#D50278"/>
<path opacity="0.996" fill-rule="evenodd" clip-rule="evenodd" d="M31.8788 4.48486C31.8788 5.77778 31.8788 7.07073 31.8788 8.36365C31.7037 8.26244 31.5825 8.10081 31.5151 7.8788C28.0259 15.5846 24.4703 23.2614 20.8485 30.9091C20.7081 31.2553 20.7485 31.5787 20.9697 31.8788C20.4848 31.8788 20 31.8788 19.5151 31.8788C19.3719 31.721 19.2103 31.5593 19.0303 31.394C22.9495 22.9091 26.8686 14.4243 30.7878 5.93941C31.0812 5.27686 31.4448 4.79201 31.8788 4.48486Z" fill="#DD007A"/>
<path fill-rule="evenodd" clip-rule="evenodd" d="M13.6969 5.21215C14.4242 5.21215 15.1515 5.21215 15.8788 5.21215C16.7677 5.21215 17.6565 5.21215 18.5454 5.21215C19.8383 5.21215 21.1313 5.21215 22.4242 5.21215C22.4242 5.45457 22.4242 5.697 22.4242 5.93942C18.826 5.85959 15.2704 5.94039 11.7575 6.18185C11.7575 9.01014 11.7575 11.8384 11.7575 14.6667C11.7575 16.1212 11.7575 17.5758 11.7575 19.0303C11.7575 21.697 11.7575 24.3637 11.7575 27.0303C11.4446 27.0878 11.2022 27.0071 11.0303 26.7879C11.0303 19.6768 11.0303 12.5657 11.0303 5.45457C11.8695 5.21661 12.7584 5.13579 13.6969 5.21215Z" fill="#F4E9F1"/>
<path fill-rule="evenodd" clip-rule="evenodd" d="M11.7576 6.18177C12.8112 6.1416 13.8617 6.18201 14.9091 6.30298C15.105 6.37755 15.2666 6.49876 15.3939 6.66662C14.1001 9.33231 12.888 11.999 11.7576 14.6666C11.7576 11.8383 11.7576 9.01006 11.7576 6.18177Z" fill="#7D156D"/>
<path fill-rule="evenodd" clip-rule="evenodd" d="M11.7576 6.18185C15.2704 5.94039 18.826 5.85959 22.4242 5.93942C22.3414 6.14262 22.1798 6.22345 21.9394 6.18185C20.5633 6.14158 19.1895 6.18199 17.8182 6.30306C17.2066 7.12204 16.7218 8.01091 16.3636 8.96973C17.8552 9.32255 19.3906 9.44376 20.9697 9.33336C21.5116 9.26192 21.9965 9.34272 22.4242 9.57579C20 9.57579 17.5758 9.57579 15.1515 9.57579C15.1515 10.2223 15.1515 10.8687 15.1515 11.5152C14.0867 14.049 12.9554 16.554 11.7576 19.0303C11.7576 17.5758 11.7576 16.1212 11.7576 14.6667C12.888 11.9991 14.1001 9.33239 15.3939 6.6667C15.2666 6.49884 15.105 6.37763 14.9091 6.30306C13.8617 6.18209 12.8112 6.14168 11.7576 6.18185Z" fill="#8F1B71"/>
<path fill-rule="evenodd" clip-rule="evenodd" d="M21.9394 6.18182C21.6053 7.09322 21.2012 7.98211 20.7273 8.84849C20.8152 9.01418 20.896 9.17578 20.9697 9.33334C19.3906 9.44374 17.8552 9.32252 16.3636 8.9697C16.7218 8.01089 17.2067 7.12202 17.8182 6.30303C19.1896 6.18197 20.5633 6.14155 21.9394 6.18182Z" fill="#9F056A"/>
<path opacity="0.999" fill-rule="evenodd" clip-rule="evenodd" d="M12.7273 -0.121216C13.4545 -0.121216 14.1818 -0.121216 14.9091 -0.121216C14.9828 0.0363284 15.0636 0.197945 15.1515 0.363633C14.2215 1.81889 13.4943 3.35425 12.9697 4.96969C13.2827 4.91217 13.5251 4.99297 13.697 5.21212C12.7584 5.13575 11.8695 5.21658 11.0303 5.45454C10.7944 6.04797 10.7136 6.69444 10.7879 7.39394C7.41733 14.7023 4.10419 22.0558 0.848481 29.4545C0.402013 29.0448 0.0787798 28.56 -0.121216 28C-0.121216 27.8383 -0.121216 27.6768 -0.121216 27.5151C0.120215 27.536 0.322236 27.455 0.484845 27.2727C3.88017 19.8359 7.27411 12.4015 10.6667 4.96969C11.424 3.33304 12.2725 1.75729 13.2121 0.242421C12.9901 0.174925 12.8285 0.0537124 12.7273 -0.121216Z" fill="#682473"/>
<path opacity="0.992" fill-rule="evenodd" clip-rule="evenodd" d="M31.8788 8.36363C31.8788 14.9899 31.8788 21.6162 31.8788 28.2424C31.1474 29.7828 29.9353 30.9949 28.2424 31.8788C25.8182 31.8788 23.3939 31.8788 20.9697 31.8788C20.7485 31.5787 20.7081 31.2553 20.8485 30.9091C24.4703 23.2614 28.0259 15.5846 31.5151 7.87878C31.5825 8.1008 31.7038 8.26242 31.8788 8.36363Z" fill="#E5027D"/>
<path fill-rule="evenodd" clip-rule="evenodd" d="M22.4242 9.57581C22.4242 9.81823 22.4242 10.0607 22.4242 10.3031C20.2424 10.3031 18.0606 10.3031 15.8788 10.3031C15.8788 11.4344 15.8788 12.5657 15.8788 13.697C17.0909 13.697 18.303 13.697 19.5151 13.697C19.8384 13.697 20.1616 13.697 20.4848 13.697C20.4848 13.9394 20.4848 14.1819 20.4848 14.4243C20 14.4243 19.5151 14.4243 19.0303 14.4243C17.8155 14.4645 16.6034 14.4241 15.3939 14.3031C15.1612 13.3988 15.0804 12.4696 15.1515 11.5152C15.1515 10.8687 15.1515 10.2223 15.1515 9.57581C17.5758 9.57581 20 9.57581 22.4242 9.57581Z" fill="#F8EBF3"/>
<path fill-rule="evenodd" clip-rule="evenodd" d="M10.7879 7.39392C10.7879 8.60604 10.7879 9.81816 10.7879 11.0303C7.71816 17.4931 4.64747 23.9578 1.57578 30.4242C1.14853 30.2395 0.906106 29.9161 0.848511 29.4545C4.10422 22.0558 7.41736 14.7023 10.7879 7.39392Z" fill="#6F1F71"/>
<path fill-rule="evenodd" clip-rule="evenodd" d="M22.4242 10.303C21.9257 10.4766 21.4005 10.6382 20.8485 10.7878C20.5081 11.5257 20.1445 12.253 19.7576 12.9696C19.8083 13.1117 19.8891 13.2329 20 13.3333C19.778 13.4008 19.6164 13.522 19.5151 13.6969C18.303 13.6969 17.0909 13.6969 15.8788 13.6969C15.8788 12.5656 15.8788 11.4343 15.8788 10.303C18.0606 10.303 20.2424 10.303 22.4242 10.303Z" fill="#A6076C"/>
<path fill-rule="evenodd" clip-rule="evenodd" d="M10.7879 11.0303C10.8282 12.5678 10.7877 14.1031 10.6667 15.6363C10.505 15.3131 10.3434 15.3131 10.1818 15.6363C8.07041 20.4255 5.88859 25.1932 3.63635 29.9394C3.47742 30.542 3.11378 30.9462 2.54544 31.1515C2.08378 31.0938 1.76055 30.8514 1.57574 30.4242C4.64743 23.9577 7.71812 17.4931 10.7879 11.0303Z" fill="#78196F"/>
<path fill-rule="evenodd" clip-rule="evenodd" d="M15.1515 11.5151C15.0803 12.4695 15.1612 13.3988 15.3939 14.303C16.6034 14.4241 17.8155 14.4644 19.0303 14.4242C18.7652 15.4408 18.3612 16.4105 17.8182 17.3333C18.6895 17.6972 19.5784 17.9396 20.4848 18.0606C18.7071 18.0606 16.9293 18.0606 15.1515 18.0606C15.1515 19.0303 15.1515 20 15.1515 20.9697C13.5058 24.6063 11.8088 28.2427 10.0606 31.8788C8.52524 31.8788 6.98987 31.8788 5.45453 31.8788C7.2099 28.6109 8.90687 25.2977 10.5454 21.9394C10.7071 23.5931 10.8687 25.2092 11.0303 26.7879C11.2022 27.007 11.4446 27.0877 11.7576 27.0303C11.7576 24.3636 11.7576 21.697 11.7576 19.0303C12.9554 16.554 14.0866 14.049 15.1515 11.5151Z" fill="#9F0D6C"/>
<path opacity="0.998" fill-rule="evenodd" clip-rule="evenodd" d="M11.0303 5.45459C11.0303 12.5657 11.0303 19.6768 11.0303 26.7879C10.8687 25.2093 10.7071 23.5931 10.5455 21.9394C8.9069 25.2977 7.20993 28.611 5.45456 31.8788C4.80809 31.8788 4.16164 31.8788 3.51517 31.8788C3.13301 31.723 2.80979 31.4805 2.54547 31.1516C3.11381 30.9462 3.47745 30.5421 3.63638 29.9394C5.88862 25.1933 8.07044 20.4256 10.1818 15.6364C10.3435 15.3132 10.5051 15.3132 10.6667 15.6364C10.7878 14.1032 10.8282 12.5678 10.7879 11.0303C10.7879 9.81823 10.7879 8.6061 10.7879 7.39398C10.7136 6.69449 10.7944 6.04802 11.0303 5.45459Z" fill="#891970"/>
<path fill-rule="evenodd" clip-rule="evenodd" d="M20.4848 18.0605C20.4848 18.2222 20.4848 18.3838 20.4848 18.5454C18.9495 18.5454 17.4141 18.5454 15.8788 18.5454C15.8788 21.2929 15.8788 24.0404 15.8788 26.7878C15.7069 27.007 15.4645 27.0877 15.1515 27.0302C15.1515 26.5454 15.1515 26.0605 15.1515 25.5757C15.1515 24.0404 15.1515 22.505 15.1515 20.9696C15.1515 19.9999 15.1515 19.0302 15.1515 18.0605C16.9293 18.0605 18.7071 18.0605 20.4848 18.0605Z" fill="#FCF5F9"/>
<path fill-rule="evenodd" clip-rule="evenodd" d="M20.4848 18.5454C20.4848 18.6262 20.4848 18.707 20.4848 18.7878C19.0303 18.7878 17.5758 18.7878 16.1212 18.7878C16.2007 21.498 16.1199 24.1647 15.8788 26.7878C15.8788 24.0404 15.8788 21.2929 15.8788 18.5454C17.4141 18.5454 18.9495 18.5454 20.4848 18.5454Z" fill="#C44090"/>
<path fill-rule="evenodd" clip-rule="evenodd" d="M20.4848 18.7878C18.4422 22.9542 16.4624 27.1563 14.5455 31.3939C14.3043 31.5311 14.1023 31.6928 13.9394 31.8788C13.2929 31.8788 12.6465 31.8788 12 31.8788C12.1719 31.6596 12.4143 31.5789 12.7273 31.6363C13.6188 29.6164 14.4269 27.5963 15.1515 25.5757C15.1515 26.0606 15.1515 26.5454 15.1515 27.0303C15.4645 27.0877 15.7069 27.007 15.8788 26.7878C16.1199 24.1647 16.2007 21.498 16.1212 18.7878C17.5758 18.7878 19.0303 18.7878 20.4848 18.7878Z" fill="#BB006F"/>
<path opacity="0.994" fill-rule="evenodd" clip-rule="evenodd" d="M15.1515 20.9697C15.1515 22.5051 15.1515 24.0404 15.1515 25.5758C14.4269 27.5964 13.6188 29.6165 12.7273 31.6364C12.4143 31.5789 12.1719 31.6597 12 31.8788C11.3535 31.8788 10.7071 31.8788 10.0606 31.8788C11.8088 28.2427 13.5058 24.6063 15.1515 20.9697Z" fill="#AD016C"/>
</g>
<defs>
<clipPath id="clip0_19_1106">
<rect width="32" height="32" fill="white"/>
</clipPath>
</defs>
</svg>
