<svg width="32" height="32" viewBox="0 0 32 32" fill="none" xmlns="http://www.w3.org/2000/svg">
<g clip-path="url(#clip0_19_17237)">
<path opacity="0.99" fill-rule="evenodd" clip-rule="evenodd" d="M7.3125 -0.0625C7.52084 -0.0625 7.72916 -0.0625 7.9375 -0.0625C7.9375 4.1875 7.9375 8.4375 7.9375 12.6875C5.27084 10.4792 2.60416 8.27084 -0.0625 6.0625C-0.0625 5.97916 -0.0625 5.89584 -0.0625 5.8125C2.07835 4.06809 4.20335 2.29726 6.3125 0.5C6.64894 0.299397 6.98228 0.111898 7.3125 -0.0625Z" fill="#6678DC"/>
<path opacity="0.986" fill-rule="evenodd" clip-rule="evenodd" d="M7.9375 -0.0625C8.14584 -0.0625 8.35416 -0.0625 8.5625 -0.0625C8.86777 0.15322 9.20111 0.34072 9.5625 0.5C11.6383 2.34806 13.7633 4.1189 15.9375 5.8125C15.9375 5.9375 15.9375 6.0625 15.9375 6.1875C13.3566 8.3096 10.7732 10.4346 8.1875 12.5625C8.10416 12.6041 8.02084 12.6459 7.9375 12.6875C7.9375 8.4375 7.9375 4.1875 7.9375 -0.0625Z" fill="#8096E4"/>
<path opacity="0.987" fill-rule="evenodd" clip-rule="evenodd" d="M23.3125 -0.0625C23.5209 -0.0625 23.7291 -0.0625 23.9375 -0.0625C23.9375 4.14584 23.9375 8.35416 23.9375 12.5625C23.9375 12.6459 23.8959 12.6875 23.8125 12.6875C23.7291 12.6875 23.6459 12.6875 23.5625 12.6875C21.053 10.4934 18.5114 8.32679 15.9375 6.1875C15.9375 6.0625 15.9375 5.9375 15.9375 5.8125C17.9086 4.19674 19.8669 2.5509 21.8125 0.875C22.2706 0.476077 22.7706 0.163577 23.3125 -0.0625Z" fill="#62DFB2"/>
<path opacity="0.989" fill-rule="evenodd" clip-rule="evenodd" d="M23.9375 -0.0625C24.1041 -0.0625 24.2709 -0.0625 24.4375 -0.0625C24.9046 0.171587 25.363 0.442421 25.8125 0.75C27.8027 2.51264 29.8028 4.2418 31.8125 5.9375C29.2273 8.18913 26.6023 10.3975 23.9375 12.5625C23.9375 8.35416 23.9375 4.14584 23.9375 -0.0625Z" fill="#36CB9A"/>
<path opacity="0.997" fill-rule="evenodd" clip-rule="evenodd" d="M-0.0625 6.0625C2.60416 8.27084 5.27084 10.4792 7.9375 12.6875C7.89604 17.0839 7.9377 21.4589 8.0625 25.8125C8.01979 25.9172 7.93645 25.959 7.8125 25.9375C5.16336 23.8004 2.53836 21.6337 -0.0625 19.4375C-0.0625 14.9791 -0.0625 10.5208 -0.0625 6.0625Z" fill="#4F5ECC"/>
<path opacity="0.997" fill-rule="evenodd" clip-rule="evenodd" d="M31.8125 5.9375C31.8541 5.9375 31.8959 5.9375 31.9375 5.9375C31.9375 10.4375 31.9375 14.9375 31.9375 19.4375C29.2346 21.5569 26.5679 23.7235 23.9375 25.9375C23.8125 25.8959 23.7291 25.8125 23.6875 25.6875C23.8123 21.3755 23.854 17.0421 23.8125 12.6875C23.8959 12.6875 23.9375 12.6459 23.9375 12.5625C26.6023 10.3975 29.2273 8.18913 31.8125 5.9375Z" fill="#2EB589"/>
<path opacity="0.989" fill-rule="evenodd" clip-rule="evenodd" d="M8.18751 12.5625C10.7193 14.8287 13.3026 17.0371 15.9375 19.1875C15.9375 19.2291 15.9375 19.2709 15.9375 19.3125C13.3118 21.48 10.6868 23.6466 8.06251 25.8125C7.93771 21.4589 7.89605 17.0839 7.93751 12.6875C8.02085 12.6459 8.10417 12.6041 8.18751 12.5625Z" fill="#6578DC"/>
<path opacity="0.987" fill-rule="evenodd" clip-rule="evenodd" d="M23.5625 12.6875C23.6459 12.6875 23.7291 12.6875 23.8125 12.6875C23.854 17.0421 23.8123 21.3755 23.6875 25.6875C21.062 23.6233 18.4786 21.4983 15.9375 19.3125C15.9375 19.2709 15.9375 19.2291 15.9375 19.1875C18.4791 17.0209 21.0209 14.8541 23.5625 12.6875Z" fill="#36CB9B"/>
<path opacity="0.994" fill-rule="evenodd" clip-rule="evenodd" d="M15.9375 19.3125C18.4786 21.4983 21.062 23.6233 23.6875 25.6875C23.7291 25.8125 23.8125 25.8959 23.9375 25.9375C21.613 28.0568 19.1964 30.0568 16.6875 31.9375C16.1459 31.9375 15.6041 31.9375 15.0625 31.9375C12.573 30.0319 10.1563 28.0319 7.8125 25.9375C7.93645 25.959 8.01979 25.9172 8.0625 25.8125C10.6868 23.6466 13.3117 21.48 15.9375 19.3125Z" fill="#3751AF"/>
</g>
<defs>
<clipPath id="clip0_19_17237">
<rect width="32" height="32" fill="white"/>
</clipPath>
</defs>
</svg>
