<svg width="32" height="32" viewBox="0 0 32 32" fill="none" xmlns="http://www.w3.org/2000/svg">
<g clip-path="url(#clip0_20_121)">
<path opacity="0.999" fill-rule="evenodd" clip-rule="evenodd" d="M-0.0888824 -0.0888901C10.5778 -0.0888901 21.2445 -0.0888901 31.9111 -0.0888901C31.9111 10.5778 31.9111 21.2444 31.9111 31.9111C21.2445 31.9111 10.5778 31.9111 -0.0888824 31.9111C-0.0888824 21.2444 -0.0888824 10.5778 -0.0888824 -0.0888901Z" fill="#002132"/>
<path fill-rule="evenodd" clip-rule="evenodd" d="M15.0222 22.8444C15.6401 23.0476 16.292 23.0773 16.9778 22.9333C17.0766 22.8652 17.1359 22.7764 17.1556 22.6667C18.5575 22.0546 19.0612 20.9879 18.6667 19.4667C18.2421 18.9095 17.6792 18.5836 16.9778 18.4889C11.4404 18.5819 8.92183 15.8855 9.42222 10.4C10.468 7.55033 12.5124 6.06884 15.5556 5.95556C16.7427 5.92036 17.8686 6.15739 18.9333 6.66667C19.3936 6.26761 19.8677 5.8528 20.3556 5.42223C21.2052 6.00457 21.9755 6.68607 22.6667 7.46667C22.2937 7.97405 21.8789 8.44811 21.4222 8.88889C22.8713 11.7142 22.5157 14.292 20.3556 16.6222C20.7419 17.0973 21.1863 17.5121 21.6889 17.8667C23.104 20.6153 22.6004 22.9559 20.1778 24.8889C18.0542 25.9833 15.8023 26.3388 13.4222 25.9556C10.7163 25.2555 9.41264 23.5074 9.51111 20.7111C10.637 20.7111 11.763 20.7111 12.8889 20.7111C12.9481 22.0741 13.6593 22.7852 15.0222 22.8444Z" fill="#FAFBFB"/>
<path fill-rule="evenodd" clip-rule="evenodd" d="M14.6667 9.15556C16.3499 8.87588 17.6832 9.40921 18.6667 10.7556C19.3566 14.0366 18.0233 15.4291 14.6667 14.9333C12.6775 13.9258 12.1738 12.4146 13.1556 10.4C13.5895 9.87492 14.0932 9.46011 14.6667 9.15556Z" fill="#032334"/>
<path fill-rule="evenodd" clip-rule="evenodd" d="M17.1556 22.6667C17.1359 22.7764 17.0766 22.8652 16.9778 22.9333C16.292 23.0773 15.6401 23.0476 15.0222 22.8444C15.7451 22.8788 16.4562 22.8196 17.1556 22.6667Z" fill="#9EAAB1"/>
</g>
<defs>
<clipPath id="clip0_20_121">
<rect width="32" height="32" fill="white"/>
</clipPath>
</defs>
</svg>
