<svg width="32" height="32" viewBox="0 0 32 32" fill="none" xmlns="http://www.w3.org/2000/svg">
<path d="M28.6618 16.0256C28.6618 24.169 22.0595 30.7712 13.9162 30.7712C10.6266 30.7712 7.58784 29.6934 5.13536 27.8733C5.5552 28.1088 5.98784 28.3213 6.43328 28.5133C8.12032 29.2403 9.93792 29.6166 11.776 29.6166C15.1987 29.6166 18.4934 28.3213 21.0022 25.9968C23.511 23.6723 25.0522 20.4851 25.3133 17.0726C25.3491 16.7501 25.3696 16.4275 25.3747 16.105C25.3747 15.6928 25.3414 15.2166 25.2979 14.7814C25.2954 14.7405 25.2928 14.697 25.2902 14.656C25.2902 14.6074 25.2877 14.5587 25.2826 14.5126L25.2698 14.5254C25.2083 13.9597 25.1443 13.5245 25.1443 13.5245H14.4461L13.6141 15.081L11.7043 18.6906H19.7888C19.4893 19.584 19.0413 20.4237 18.4653 21.1712C17.6794 22.2003 16.6682 23.0323 15.5059 23.6058C14.3462 24.1792 13.0688 24.4787 11.7734 24.4762C10.7827 24.4762 9.79968 24.297 8.8704 23.9539C7.2448 23.36 5.84192 22.2822 4.8512 20.864C3.86048 19.4432 3.328 17.7562 3.328 16.0256C3.328 14.9171 3.5456 13.8163 3.97056 12.7923C4.39552 11.7683 5.0176 10.8365 5.80096 10.0506C6.58432 9.2672 7.51616 8.64256 8.54272 8.22016C9.56928 7.79776 10.6675 7.5776 11.776 7.5776C13.5654 7.57504 15.3114 8.14336 16.7552 9.20064L17.8637 7.12448L19.1846 4.62848C16.9805 3.19232 14.4051 2.42944 11.7734 2.432C9.4464 2.432 7.1808 3.03104 5.17632 4.14208C7.62624 2.34496 10.647 1.28 13.9162 1.28C22.0595 1.28 28.6618 7.88224 28.6618 16.0256Z" fill="#FF4C00"/>
</svg>
