<svg width="32" height="32" viewBox="0 0 32 32" fill="none" xmlns="http://www.w3.org/2000/svg">
<path d="M16.1013 0.00135581C12.0437 -0.0517681 8.1195 1.45801 5.1331 4.22124C2.14669 6.98447 0.324236 10.7919 0.0392671 14.8631C-0.245702 18.9343 1.0284 22.9609 3.60042 26.1177C6.17245 29.2745 9.8476 31.3223 13.8726 31.8415C14.5309 31.6045 15.1003 31.1687 15.5029 30.5937C15.9054 30.0188 16.1215 29.3328 16.1215 28.6296C16.1215 27.9264 15.9054 27.2403 15.5029 26.6654C15.1003 26.0904 14.5309 25.6546 13.8726 25.4177C12.6945 25.0074 11.6514 24.2791 10.8574 23.3124C10.0634 22.3457 9.54913 21.178 9.3709 19.937C9.19267 18.696 9.35735 17.4297 9.8469 16.2765C10.3365 15.1234 11.132 14.1279 12.1465 13.3991C13.161 12.6703 14.3553 12.2363 15.5986 12.1446C16.842 12.0528 18.0865 12.3068 19.1959 12.8789C20.3053 13.4509 21.2368 14.3189 21.8885 15.3878C22.5401 16.4567 22.8869 17.6854 22.8907 18.9392C22.8971 21.7633 22.0335 24.5201 20.4186 26.8305C18.8038 29.1409 16.517 30.8914 13.8726 31.8415C16.0327 32.1497 18.2328 32.0074 20.3359 31.4234C22.439 30.8394 24.4 29.8262 26.0968 28.4469C27.7936 27.0676 29.1899 25.3517 30.1987 23.406C31.2076 21.4604 31.8073 19.3268 31.9607 17.1379C32.114 14.949 31.8177 12.7519 31.0901 10.6832C30.3625 8.61452 29.2192 6.71866 27.7314 5.11367C26.2437 3.50867 24.4433 2.22892 22.4424 1.35409C20.4416 0.479262 18.2831 0.0280981 16.1013 0.0286927V0.00135581ZM16.0198 10.4544C15.3478 10.4544 14.691 10.254 14.1323 9.8785C13.5736 9.50305 13.1381 8.9694 12.881 8.34504C12.6238 7.72068 12.5566 7.03366 12.6876 6.37085C12.8187 5.70803 13.1423 5.0992 13.6174 4.62133C14.0926 4.14347 14.6979 3.81804 15.357 3.6862C16.016 3.55436 16.6991 3.62202 17.3199 3.88064C17.9407 4.13926 18.4713 4.57721 18.8446 5.13912C19.2179 5.70102 19.4172 6.36165 19.4172 7.03745C19.4172 7.94367 19.0592 8.81277 18.4221 9.45357C17.785 10.0944 16.9208 10.4544 16.0198 10.4544Z" fill="#2A579A"/>
</svg>
