<svg width="32" height="32" viewBox="0 0 32 32" fill="none" xmlns="http://www.w3.org/2000/svg">
<path d="M15.881 0C12.014 0 8.87923 3.41401 8.87923 7.6254C8.87923 8.05522 8.9119 8.48073 8.97638 8.89905L8.98866 8.97522L8.99717 9.02413C9.06219 9.43471 9.09532 9.85526 9.09532 10.2805L9.09479 10.3733C9.06007 13.4022 7.32862 16.0682 4.77478 17.1412L4.72632 17.1609C1.92144 18.2101 0 21.0925 0 24.3746C0 28.586 3.13478 32 7.00173 32C10.8687 32 14.0034 28.586 14.0034 24.3746C14.0034 23.8915 13.9622 23.4139 13.8809 22.9462C13.819 22.5454 13.7874 22.1347 13.7874 21.7195C13.7874 18.6365 15.5461 15.9136 18.1504 14.8412C20.9565 13.7968 22.8827 10.9116 22.8827 7.6254C22.8827 3.41401 19.7479 0 15.881 0Z" fill="#001D71"/>
<path d="M25.028 16.6787C21.1774 16.6787 18.0559 20.0651 18.0559 24.2423C18.0559 28.4196 21.1774 31.806 25.028 31.806C28.8785 31.806 32 28.4196 32 24.2423C32 20.0651 28.8785 16.6787 25.028 16.6787Z" fill="#0064FF"/>
</svg>

