<svg width="32" height="32" viewBox="0 0 32 32" fill="none" xmlns="http://www.w3.org/2000/svg">
    <path d="M28.8532 17.5535H25.1282L27.1122 22.7474L28.8532 17.5535Z" fill="#336CEC" />
    <path
        d="M1.16802 0L0 1.62861V11.7964L1.16802 13.425H5.45098L3.97243 15.4867L5.62425 17.7898L9.0967 12.948V10.6449L5.62425 5.803L3.97243 8.10621L5.45098 10.1678H2.33603V3.25722H19.1502L0.441979 29.7452V32H2.12811L22.1625 3.6344L29.4533 9.00375L28.4514 12.7648H21.9398L20.7718 14.3934V31.956H23.1078V16.022H29.2636L30.3585 14.9604L32 8.79815L31.4506 6.791L22.4853 0.188525L21.9398 0H1.16802Z"
        fill="#336CEC" />
</svg>