<svg width="32" height="32" viewBox="0 0 32 32" fill="none" xmlns="http://www.w3.org/2000/svg">
<path opacity="0.993" fill-rule="evenodd" clip-rule="evenodd" d="M9.73138 6.2832C9.81906 6.2832 9.90673 6.2832 9.9944 6.2832C11.0154 7.28961 12.0334 8.3027 13.0483 9.32247C13.0922 9.4259 13.102 9.53303 13.0775 9.64393C11.0424 11.7083 8.99673 13.7637 6.94052 15.8101C6.84311 15.9368 6.84311 16.0634 6.94052 16.1901C8.99673 18.2365 11.0424 20.2919 13.0775 22.3563C13.102 22.4672 13.0922 22.5743 13.0483 22.6777C12.0334 23.6975 11.0154 24.7106 9.9944 25.717C9.90673 25.717 9.81906 25.717 9.73138 25.717C6.5265 22.5316 3.33138 19.3365 0.145996 16.1316C0.145996 16.0439 0.145996 15.9563 0.145996 15.8686C3.33138 12.6637 6.5265 9.46859 9.73138 6.2832Z" fill="#F73534"/>
<path opacity="0.993" fill-rule="evenodd" clip-rule="evenodd" d="M21.976 6.2832C22.0637 6.2832 22.1514 6.2832 22.239 6.2832C25.4439 9.46859 28.639 12.6637 31.8244 15.8686C31.8244 15.9563 31.8244 16.0439 31.8244 16.1316C28.639 19.3365 25.4439 22.5316 22.239 25.717C22.1514 25.717 22.0637 25.717 21.976 25.717C20.955 24.7106 19.937 23.6975 18.9221 22.6777C18.8782 22.5743 18.8684 22.4672 18.8929 22.3563C20.928 20.2919 22.9737 18.2365 25.0299 16.1901C25.1273 16.0634 25.1273 15.9368 25.0299 15.8101C24.1191 14.8993 23.2083 13.9885 22.2975 13.0777C22.1708 12.9803 22.0442 12.9803 21.9176 13.0777C19.8816 15.1137 17.8457 17.1496 15.8098 19.1855C15.6929 19.2439 15.576 19.2439 15.4591 19.1855C14.4509 18.1773 13.4427 17.169 12.4345 16.1608C12.376 16.0439 12.376 15.927 12.4345 15.8101C15.6119 12.6278 18.7924 9.45217 21.976 6.2832Z" fill="#F73534"/>
</svg>
