<svg width="32" height="32" viewBox="0 0 32 32" fill="none" xmlns="http://www.w3.org/2000/svg">
<path fill-rule="evenodd" clip-rule="evenodd" d="M17.3227 1.83142C16.636 1.79397 15.9533 1.83189 15.2747 1.9452C14.104 2.81096 12.9282 3.68328 11.7477 4.56209C11.5016 4.04621 11.1603 4.00827 10.7237 4.44832C10.912 4.65646 11.1395 4.80817 11.4063 4.90342C11.2799 4.99049 11.204 5.10427 11.1787 5.24475C9.66178 4.18283 8.14467 3.12091 6.62771 2.05897C6.60243 1.91849 6.52658 1.8047 6.40002 1.71765C10.0802 1.52921 13.721 1.56713 17.3227 1.83142Z" fill="#06CEEB"/>
<path fill-rule="evenodd" clip-rule="evenodd" d="M6.62738 2.05937C8.1445 3.12131 9.66146 4.18321 11.1786 5.24515C11.4061 5.54856 11.6336 5.85196 11.8611 6.15537C11.4746 6.11892 11.0952 6.15684 10.7234 6.26915C10.3632 6.66926 9.98386 7.01059 9.58562 7.29321C9.25202 6.79774 8.87282 6.30472 8.44786 5.81404C7.82162 4.58472 7.21474 3.33316 6.62738 2.05937Z" fill="#591694"/>
<path fill-rule="evenodd" clip-rule="evenodd" d="M17.3226 1.83193C17.6188 2.42387 17.9221 3.03068 18.2329 3.65236C16.5455 4.625 14.8012 5.68694 12.9991 6.83814C12.6577 6.55336 12.2783 6.3258 11.8613 6.15548C11.6338 5.85208 11.4063 5.54865 11.1786 5.24526C11.2039 5.10476 11.2797 4.99099 11.4063 4.90393C11.1396 4.80867 10.9119 4.65696 10.7236 4.44881C11.1602 4.00876 11.5015 4.0467 11.7476 4.56259C12.9281 3.68377 14.1039 2.81147 15.2746 1.94571C15.9532 1.83238 16.6359 1.79448 17.3226 1.83193Z" fill="#06B9ED"/>
<path fill-rule="evenodd" clip-rule="evenodd" d="M18.2331 3.65234C18.652 4.18675 18.9554 4.79358 19.1434 5.47278C18.5735 5.84696 17.9666 6.18829 17.3229 6.49678C16.8708 6.79691 16.6051 7.21418 16.5264 7.74842C16.0415 8.00202 15.6242 8.30538 15.2749 8.6585C14.4452 8.1313 13.6866 7.52442 12.9994 6.83813C14.8013 5.68691 16.5458 4.62499 18.2331 3.65234Z" fill="#0598F0"/>
<path fill-rule="evenodd" clip-rule="evenodd" d="M19.1428 5.47266C19.5617 6.00707 19.865 6.61389 20.053 7.29306C19.7007 7.36618 19.549 7.5937 19.598 7.97578C18.5073 7.98586 17.9004 8.51674 17.7775 9.56858C17.4521 9.58666 17.1485 9.51082 16.8673 9.34106C16.6857 9.44506 16.6098 9.59674 16.6397 9.79626C16.1226 9.58202 15.6676 9.27866 15.2743 8.88602C15.2743 8.81018 15.2743 8.73434 15.2743 8.6585C15.6236 8.30522 16.041 8.00186 16.526 7.74826C16.6047 7.21402 16.8701 6.79678 17.3223 6.49666C17.9661 6.18816 18.573 5.84683 19.1428 5.47266Z" fill="#0B7FF0"/>
<path fill-rule="evenodd" clip-rule="evenodd" d="M11.8616 6.1548C12.2786 6.32513 12.6578 6.55269 12.9994 6.83747C13.6866 7.52377 14.4453 8.13065 15.2749 8.65785C15.2749 8.73369 15.2749 8.80969 15.2749 8.88553C15.2613 9.00905 15.1855 9.08489 15.0474 9.11305C14.7991 8.76825 14.4957 8.57865 14.1372 8.54409C13.8271 9.36329 13.4477 10.1598 12.9994 10.9335C12.5453 11.1143 12.0903 11.266 11.6341 11.3886C11.4346 11.4183 11.2829 11.3425 11.1789 11.1611C10.4536 9.93977 9.92276 8.65033 9.58612 7.29257C9.98436 7.01003 10.3636 6.66869 10.7239 6.26857C11.0957 6.15629 11.4749 6.11835 11.8616 6.1548Z" fill="#970E95"/>
<path fill-rule="evenodd" clip-rule="evenodd" d="M20.0533 7.29289C20.4723 7.82745 20.7755 8.43417 20.9635 9.11337C20.7171 9.10441 20.4896 9.02857 20.2808 8.88585C20.1389 9.44505 19.7976 9.82441 19.2568 10.0236C19.1811 10.327 19.1051 10.6305 19.0293 10.9339C18.8659 10.7175 18.6763 10.6796 18.4605 10.8201C18.8339 11.0771 19.0615 11.4183 19.1431 11.8441C18.2683 11.2929 17.4341 10.6862 16.64 10.0236C16.64 9.94777 16.64 9.87193 16.64 9.79609C16.6103 9.59657 16.6859 9.44489 16.8675 9.34089C17.1488 9.51065 17.4523 9.58649 17.7778 9.56857C17.9007 8.51657 18.5075 7.98569 19.5983 7.97561C19.5493 7.59353 19.7011 7.36601 20.0533 7.29289Z" fill="#1867EF"/>
<path fill-rule="evenodd" clip-rule="evenodd" d="M20.9634 9.11354C21.3823 9.64794 21.6856 10.2547 21.8736 10.934C21.6556 11.0369 21.4658 11.1887 21.3047 11.3891C20.8658 10.8921 20.4484 10.9679 20.0532 11.6166C20.205 11.7683 20.3565 11.9199 20.5082 12.0718C20.3506 12.3033 20.1991 12.5308 20.0532 12.7543C19.6738 12.5268 19.3704 12.2235 19.1429 11.8441C19.0613 11.4183 18.8336 11.0771 18.4602 10.8201C18.6762 10.6798 18.8658 10.7177 19.0292 10.934C19.105 10.6305 19.181 10.3271 19.2567 10.0238C19.7973 9.82442 20.1388 9.44522 20.2807 8.88602C20.4893 9.02874 20.717 9.10458 20.9634 9.11354Z" fill="#0C54F3"/>
<path fill-rule="evenodd" clip-rule="evenodd" d="M15.2746 8.88585C15.6678 9.27849 16.1229 9.58185 16.6398 9.79609C16.6398 9.87193 16.6398 9.94777 16.6398 10.0236C16.4558 10.2441 16.2283 10.4337 15.9573 10.5926C16.2781 10.6763 16.5056 10.8659 16.6398 11.1614C15.5963 12.0918 14.8758 13.2295 14.4781 14.5748C14.1696 14.775 13.8282 14.851 13.4541 14.8023C13.5381 14.235 13.3866 14.0833 12.999 14.3471C12.3419 13.4601 11.8867 12.474 11.6336 11.3889C12.0899 11.2663 12.545 11.1147 12.999 10.9339C13.4474 10.1601 13.8266 9.36377 14.1368 8.54457C14.4954 8.57913 14.7987 8.76873 15.047 9.11337C15.1851 9.08521 15.261 9.00937 15.2746 8.88585Z" fill="#B90891"/>
<path fill-rule="evenodd" clip-rule="evenodd" d="M21.8736 10.9335C22.8996 12.6817 23.8098 14.5022 24.6044 16.395C24.3768 16.2431 24.1492 16.0916 23.9216 15.9398C23.9216 15.7881 23.846 15.7123 23.6941 15.7123C23.2119 15.2799 22.6808 14.9007 22.1012 14.5745C21.4708 13.9164 20.788 13.3097 20.0532 12.754C20.1991 12.5305 20.3506 12.303 20.5084 12.0713C20.3565 11.9196 20.205 11.7679 20.0532 11.6163C20.4485 10.9676 20.8658 10.8918 21.3048 11.3887C21.466 11.1884 21.6557 11.0366 21.8736 10.9335Z" fill="#282AF1"/>
<path fill-rule="evenodd" clip-rule="evenodd" d="M16.6402 10.0235C17.4344 10.6859 18.2687 11.2927 19.1434 11.8439C19.3709 12.2231 19.6743 12.5265 20.0535 12.7542C20.7883 13.3097 21.4709 13.9164 22.1015 14.5745C21.9333 14.5447 21.7816 14.5828 21.6464 14.6883C21.8368 14.9183 21.9127 15.1839 21.8739 15.4847C21.5616 15.4491 21.2579 15.487 20.9637 15.5985C21.2808 16.367 21.0152 16.8601 20.1674 17.0777C20.1842 18.1849 19.6911 18.9435 18.6882 19.3532C18.089 20.5201 17.4442 21.6579 16.754 22.7665C16.6783 23.4492 16.6023 24.1319 16.5264 24.8145C16.2659 23.3044 16.0763 23.3044 15.9575 24.8145C15.8818 24.8145 15.8058 24.8145 15.7299 24.8145C15.7189 24.0004 15.5672 23.2419 15.2749 22.539C14.9895 20.4267 14.5344 18.3787 13.9095 16.395C13.6098 15.7287 13.3066 15.046 12.9994 14.347C13.3869 14.083 13.5384 14.2348 13.4544 14.8022C13.8285 14.8508 14.1698 14.7748 14.4784 14.5745C14.8762 13.2294 15.5967 12.0916 16.6402 11.1612C16.5059 10.8657 16.2784 10.6761 15.9575 10.5923C16.2285 10.4335 16.4562 10.2439 16.6402 10.0235Z" fill="#D8048F"/>
<path fill-rule="evenodd" clip-rule="evenodd" d="M22.1016 14.5747C22.6812 14.9011 23.2124 15.2801 23.6946 15.7124C23.4765 15.8155 23.2868 15.9671 23.1256 16.1676C22.7512 16.1236 22.334 16.0857 21.8741 16.0539C21.7604 15.9399 21.6466 15.8262 21.5327 15.7124C21.4432 16.0991 21.5572 16.4404 21.8741 16.7364C21.4237 17.7119 20.8928 18.6222 20.2812 19.4671C20.1756 20.7067 19.6824 21.7307 18.8021 22.5391C18.5285 23.6622 17.9976 24.6481 17.2092 25.4974C17.1335 25.8767 17.0575 26.2558 16.9816 26.6351C16.9325 26.2063 16.7807 25.8271 16.5266 25.4974C16.6349 25.9115 16.5968 26.2908 16.4127 26.6351C16.0623 26.1031 15.9108 25.4963 15.9576 24.8147C16.0764 23.3046 16.266 23.3046 16.5266 24.8147C16.6023 24.1319 16.6783 23.4494 16.7541 22.7667C17.4442 21.658 18.0892 20.5203 18.6884 19.3534C19.6911 18.9435 20.1842 18.1851 20.1674 17.0779C21.0152 16.8603 21.2808 16.3671 20.9639 15.5987C21.2581 15.4871 21.5616 15.4492 21.8741 15.4849C21.9128 15.1841 21.837 14.9185 21.6466 14.6884C21.7816 14.5828 21.9335 14.5449 22.1016 14.5747Z" fill="#E8237F"/>
<path fill-rule="evenodd" clip-rule="evenodd" d="M13.909 16.3953C14.5339 18.379 14.989 20.427 15.2742 22.5393C15.2267 23.8503 15.0373 23.926 14.7054 22.7668C14.4678 23.0223 14.3163 23.3257 14.2502 23.6771C14.209 23.0567 14.0952 22.4499 13.909 21.8566C13.6592 21.603 13.3936 21.603 13.1125 21.8566C12.4746 21.4246 12.2091 20.8177 12.3162 20.0363C12.8389 18.827 13.3696 17.6134 13.909 16.3953Z" fill="#152AF4"/>
<path fill-rule="evenodd" clip-rule="evenodd" d="M23.6944 15.7126C23.8461 15.7126 23.9219 15.7883 23.9219 15.9401C23.7405 16.9151 23.3992 17.8254 22.8979 18.6707C22.1458 19.0363 21.8045 19.6431 21.8739 20.4911C21.5043 20.523 21.2391 20.3713 21.0775 20.0361C20.8607 20.4809 20.5571 20.8603 20.1672 21.1739C19.5242 22.6145 18.9552 24.0556 18.4607 25.4974C18.2141 26.4675 17.721 27.3019 16.9815 28.0006C16.8691 28.3723 16.8312 28.7516 16.8677 29.1383C16.7919 29.1383 16.7159 29.1383 16.6402 29.1383C16.6231 28.5225 16.5474 27.9156 16.4127 27.3179C16.4127 27.0903 16.4127 26.8627 16.4127 26.6351C16.5967 26.2908 16.6347 25.9116 16.5264 25.4974C16.7805 25.8271 16.9323 26.2065 16.9815 26.6351C17.0573 26.2558 17.1333 25.8767 17.209 25.4974C17.9975 24.6481 18.5283 23.6622 18.8019 22.5391C19.6823 21.7307 20.1754 20.7067 20.281 19.4671C20.8927 18.6222 21.4235 17.7121 21.8739 16.7366C21.557 16.4404 21.4432 16.0991 21.5327 15.7126C21.6464 15.8263 21.7602 15.9401 21.8739 16.0539C22.3338 16.0857 22.7512 16.1236 23.1255 16.1676C23.2866 15.9671 23.4763 15.8156 23.6944 15.7126Z" fill="#EE3E72"/>
<path fill-rule="evenodd" clip-rule="evenodd" d="M23.9216 15.9398C24.1492 16.0916 24.3767 16.2431 24.6042 16.395C24.0306 18.0734 23.2722 19.6663 22.3287 21.1737C22.3586 20.9743 22.2828 20.8225 22.1012 20.7185C21.7997 21.0123 21.4964 21.3156 21.1909 21.6287C20.4341 23.0382 19.7514 24.3278 19.1429 25.4972C18.9154 25.4972 18.6879 25.4972 18.4602 25.4972C18.9549 24.0555 19.5239 22.6143 20.1669 21.1737C20.5567 20.8601 20.8604 20.4807 21.0772 20.0358C21.2388 20.371 21.504 20.5228 21.8736 20.491C21.8042 19.6428 22.1455 19.0359 22.8976 18.6705C23.3989 17.8252 23.7402 16.915 23.9216 15.9398Z" fill="#F35368"/>
<path fill-rule="evenodd" clip-rule="evenodd" d="M22.3287 21.1738C20.8335 24.5439 19.1649 27.8055 17.3226 30.9588C16.9721 30.4267 16.8205 29.8198 16.8674 29.1383C16.8311 28.7516 16.8689 28.3724 16.9812 28.0006C17.7207 27.3019 18.2138 26.4674 18.4604 25.4974C18.6879 25.4974 18.9154 25.4974 19.1429 25.4974C19.7514 24.3279 20.4341 23.0385 21.1909 21.6289C21.4964 21.3158 21.7997 21.0126 22.1012 20.7188C22.2828 20.8228 22.3586 20.9745 22.3287 21.1738Z" fill="#F3685D"/>
<path fill-rule="evenodd" clip-rule="evenodd" d="M12.3165 20.0359C12.2096 20.8174 12.4751 21.4243 13.113 21.8564C13.3941 21.6027 13.6596 21.6027 13.9095 21.8564C14.0956 22.4497 14.2093 23.0566 14.2508 23.6769C14.3168 23.3255 14.4684 23.0222 14.706 22.7667C15.0376 23.9257 15.2272 23.85 15.2748 22.539C15.5672 23.242 15.7188 24.0004 15.73 24.8147C15.7639 25.054 15.7261 25.2815 15.6162 25.4972C14.3672 24.8383 13.1157 24.1556 11.8615 23.4492C11.6738 22.9257 11.5221 22.3945 11.4064 21.8564C11.5837 21.1635 11.8871 20.5567 12.3165 20.0359Z" fill="#0B52F5"/>
<path fill-rule="evenodd" clip-rule="evenodd" d="M11.4065 21.8563C11.5221 22.3945 11.6738 22.9255 11.8615 23.4492C13.1159 24.1555 14.3674 24.8382 15.6162 25.4972C15.7261 25.2814 15.7639 25.0539 15.73 24.8145C15.8058 24.8145 15.8818 24.8145 15.9575 24.8145C15.9106 25.4959 16.0623 26.1028 16.4127 26.635C16.4127 26.8625 16.4127 27.09 16.4127 27.3175C16.2329 27.57 16.1191 27.8732 16.0713 28.2278C15.8588 27.9188 15.669 27.6153 15.5025 27.3175C15.5025 27.09 15.5025 26.8625 15.5025 26.635C14.6045 26.4495 13.7701 26.1081 12.9993 25.611C12.6274 25.4985 12.2482 25.4607 11.8615 25.4972C11.8615 24.7387 11.4823 24.3593 10.7237 24.3593C10.7778 24.0655 10.702 23.838 10.4962 23.6767C10.6841 22.9974 10.9876 22.3908 11.4065 21.8563Z" fill="#1466F3"/>
<path fill-rule="evenodd" clip-rule="evenodd" d="M10.4958 23.6766C10.7014 23.8379 10.7775 24.0654 10.7234 24.3593C11.4819 24.3593 11.8611 24.7385 11.8611 25.4971C12.2478 25.4606 12.627 25.4983 12.9989 25.6108C13.7696 26.1079 14.6042 26.4494 15.5021 26.6348C15.5021 26.8623 15.5021 27.0899 15.5021 27.3174C15.424 27.71 15.1965 27.8238 14.8194 27.6588C13.7198 26.8838 12.5061 26.2769 11.1784 25.8383C10.5917 25.5935 10.2123 25.1764 10.0406 24.5868C10.077 24.2107 10.2288 23.9073 10.4958 23.6766Z" fill="#0276F4"/>
<path fill-rule="evenodd" clip-rule="evenodd" d="M10.041 24.5867C10.2126 25.1763 10.5918 25.5934 11.1787 25.8383C12.5064 26.2767 13.7202 26.8836 14.8197 27.6587C15.1966 27.8238 15.4243 27.7099 15.5022 27.3174C15.6688 27.615 15.8587 27.9187 16.0712 28.2276C16.119 27.8731 16.2328 27.5697 16.4125 27.3174C16.5472 27.9151 16.623 28.522 16.6402 29.1379C16.5509 29.5199 16.4371 29.8993 16.2987 30.2756C16.0906 30.0871 15.939 29.8596 15.8437 29.5929C15.7678 29.8206 15.6918 30.0481 15.6162 30.2756C15.0962 29.9755 14.603 29.6342 14.137 29.2516C12.4117 28.6598 10.8566 27.7875 9.47216 26.6347C9.42768 27.0231 9.42768 27.4025 9.47216 27.7726C9.31088 27.5721 9.12128 27.4204 8.9032 27.3174C8.9032 27.0899 8.9032 26.8623 8.9032 26.6347C9.23152 25.9001 9.61088 25.2175 10.041 24.5867Z" fill="#058BF2"/>
<path fill-rule="evenodd" clip-rule="evenodd" d="M16.6402 29.1383C16.7158 29.1383 16.7918 29.1383 16.8677 29.1383C16.8208 29.8198 16.9723 30.4267 17.3227 30.9587C17.1674 31.3401 16.8638 31.4919 16.4125 31.4139C16.4722 31.0775 16.3963 30.7742 16.185 30.5036C16.0275 30.6231 15.9138 30.7748 15.8437 30.9587C13.9613 30.3371 12.1029 29.5028 10.2685 28.4556C10.1168 28.5315 9.96512 28.6075 9.81344 28.6831C9.3576 28.3116 9.05424 27.8564 8.9032 27.3179C9.12128 27.4209 9.31088 27.5724 9.47216 27.7729C9.42768 27.403 9.42768 27.0236 9.47216 26.6351C10.8566 27.7879 12.4117 28.6601 14.137 29.2521C14.603 29.6345 15.0962 29.9759 15.6162 30.2761C15.6918 30.0484 15.7678 29.8209 15.8437 29.5934C15.939 29.8601 16.0906 30.0876 16.2987 30.2761C16.4371 29.8996 16.5509 29.5203 16.6402 29.1383Z" fill="#119AEF"/>
<path fill-rule="evenodd" clip-rule="evenodd" d="M8.90304 26.6351C8.90304 26.8627 8.90304 27.0903 8.90304 27.3179C9.05408 27.8564 9.3576 28.3116 9.81328 28.6831C9.96512 28.6075 10.1168 28.5315 10.2685 28.4556C12.1027 29.5028 13.9613 30.3371 15.8435 30.9587C15.9136 30.7748 16.0274 30.6231 16.185 30.5036C16.3963 30.7742 16.472 31.0775 16.4125 31.4139C14.8954 31.4139 13.3784 31.4139 11.8613 31.4139C12.423 31.2279 13.0298 31.1142 13.6818 31.0724C12.6198 30.9967 11.5579 30.9207 10.496 30.8449C9.86272 30.3297 9.14208 29.9884 8.33424 29.8209C8.2584 30.0484 8.18256 30.2761 8.10672 30.5036C7.95648 30.0886 7.69104 29.7852 7.31024 29.5934C7.80064 28.5695 8.33168 27.5836 8.90304 26.6351Z" fill="#04ABEE"/>
<path fill-rule="evenodd" clip-rule="evenodd" d="M7.31026 29.5929C7.69106 29.7847 7.95651 30.0881 8.10675 30.5031C8.18259 30.2756 8.25843 30.0481 8.33427 29.8206C9.14211 29.9879 9.86275 30.3294 10.496 30.8446C11.5581 30.9203 12.6199 30.9963 13.6819 31.0721C13.0299 31.1137 12.4232 31.2275 11.8615 31.4134C10.0394 31.4511 8.2189 31.4134 6.40002 31.2996C6.73538 30.7427 7.03874 30.1737 7.31026 29.5929Z" fill="#05C3EC"/>
</svg>
