<svg width="32" height="32" viewBox="0 0 32 32" fill="none" xmlns="http://www.w3.org/2000/svg">
<mask id="mask0_6001_14802" style="mask-type:luminance" maskUnits="userSpaceOnUse" x="0" y="0" width="32" height="32">
<path d="M32 0H0V32H32V0Z" fill="white"/>
</mask>
<g mask="url(#mask0_6001_14802)">
<path d="M16.0405 31.2303C20.0691 31.2303 23.9327 29.63 26.7813 26.7813C29.63 23.9327 31.2303 20.0691 31.2303 16.0405C31.2303 12.0119 29.63 8.14825 26.7813 5.2996C23.9327 2.45094 20.0691 0.850586 16.0405 0.850586C12.0119 0.850586 8.14825 2.45094 5.2996 5.2996C2.45094 8.14825 0.850586 12.0119 0.850586 16.0405C0.850586 20.0691 2.45094 23.9327 5.2996 26.7813C8.14825 29.63 12.0119 31.2303 16.0405 31.2303Z" fill="#D679BF"/>
<path d="M16.2025 7.69629L10.2966 11.2568C9.94249 11.4941 9.65273 11.8155 9.45337 12.1923C9.25401 12.5691 9.15127 12.9895 9.15436 13.4158V19.1393C9.16949 19.5649 9.29365 19.9795 9.51495 20.3433C9.73622 20.7072 10.0472 21.0081 10.4182 21.2173L14.9589 23.5667C15.3367 23.7858 15.7657 23.9011 16.2025 23.9011C16.6392 23.9011 17.0682 23.7858 17.446 23.5667L22.0678 21.0148C22.44 20.8071 22.7521 20.5065 22.9736 20.1424C23.1951 19.7782 23.3184 19.3628 23.3316 18.9368V13.4158C23.3316 12.8973 22.7645 12.5773 22.3108 12.8163L16.2025 16.0568" fill="#D679BF"/>
<path d="M16.2025 7.69629L10.2966 11.2568C9.94249 11.4941 9.65273 11.8155 9.45337 12.1923C9.25401 12.5691 9.15127 12.9895 9.15436 13.4158V19.1393C9.16949 19.5649 9.29365 19.9795 9.51495 20.3433C9.73622 20.7072 10.0472 21.0081 10.4182 21.2173L14.9589 23.5667C15.3367 23.7858 15.7657 23.9011 16.2025 23.9011C16.6392 23.9011 17.0682 23.7858 17.446 23.5667L22.0678 21.0148C22.44 20.8071 22.7521 20.5065 22.9736 20.1424C23.1951 19.7782 23.3184 19.3628 23.3316 18.9368V13.4158C23.3316 12.8973 22.7645 12.5773 22.3108 12.8163L16.2025 16.0568" stroke="white" stroke-width="2" stroke-miterlimit="10" stroke-linecap="round"/>
</g>
</svg>
