<svg width="32" height="32" viewBox="0 0 32 32" fill="none" xmlns="http://www.w3.org/2000/svg">
<g clip-path="url(#clip0_27_1279)">
<path opacity="0.974" fill-rule="evenodd" clip-rule="evenodd" d="M14.4165 -0.0834961C15.4721 -0.0834961 16.5276 -0.0834961 17.5832 -0.0834961C23.8498 0.875769 28.2665 4.26465 30.8332 10.0832C31.3565 11.5109 31.7177 12.9553 31.9165 14.4165C31.9165 15.4165 31.9165 16.4165 31.9165 17.4165C30.8712 24.4158 26.9823 29.0547 20.2498 31.3332C19.283 31.5305 18.3385 31.725 17.4165 31.9165C16.4165 31.9165 15.4165 31.9165 14.4165 31.9165C8.06364 31.0388 3.59142 27.65 0.999837 21.7498C0.528702 20.3098 0.167591 18.8653 -0.0834961 17.4165C-0.0834961 16.4165 -0.0834961 15.4165 -0.0834961 14.4165C0.964177 7.40889 4.85307 2.76999 11.5832 0.499837C12.544 0.268921 13.4884 0.0744757 14.4165 -0.0834961Z" fill="#1564A8"/>
<path fill-rule="evenodd" clip-rule="evenodd" d="M14.7502 6.58339C18.202 6.20584 21.1187 7.26139 23.5002 9.75005C23.6065 9.93482 23.6898 10.1293 23.7502 10.3334C22.958 10.9105 22.0968 11.3827 21.1668 11.7501C19.4828 10.096 17.455 9.40155 15.0835 9.66672C12.8393 10.3554 11.3671 11.8276 10.6668 14.0834C10.6891 16.1425 10.6614 18.1981 10.5835 20.2501C10.4558 20.6141 10.3447 21.0031 10.2502 21.4167C10.5499 21.6314 10.8277 21.6314 11.0835 21.4167C13.0796 21.2164 15.0796 21.2164 17.0835 21.4167C19.5682 21.3947 21.1237 20.1726 21.7502 17.7501C21.9008 17.6319 21.9563 17.4652 21.9168 17.2501C20.1853 17.3569 18.5187 17.2457 16.9168 16.9167C17.1677 15.6338 17.8898 14.7449 19.0835 14.2501C21.139 14.2501 23.1947 14.2501 25.2502 14.2501C25.2502 15.0278 25.2502 15.8056 25.2502 16.5834C25.1158 19.5486 23.838 21.8541 21.4168 23.5001C20.6752 23.8769 19.8973 24.1547 19.0835 24.3334C17.1095 24.4474 15.1372 24.4196 13.1668 24.2501C12.3994 24.2649 11.6494 24.3759 10.9168 24.5834C10.2735 24.6347 9.66243 24.7459 9.0835 24.9167C8.25016 25.0279 7.41683 25.1389 6.5835 25.2501C6.81658 23.2959 7.12213 21.3514 7.50016 19.4167C7.48715 17.6394 7.48715 15.8616 7.50016 14.0834C8.2065 10.5524 10.2343 8.16354 13.5835 6.91672C14.0255 6.9318 14.4144 6.82069 14.7502 6.58339Z" fill="#FBFCFD"/>
<path fill-rule="evenodd" clip-rule="evenodd" d="M14.7502 6.58338C14.4144 6.82068 14.0255 6.9318 13.5835 6.91672C13.9192 6.67942 14.3081 6.5683 14.7502 6.58338Z" fill="#BED3E6"/>
<path fill-rule="evenodd" clip-rule="evenodd" d="M19.0835 14.2501C21.165 14.0842 23.2762 14.0286 25.4168 14.0834C25.4703 14.9492 25.4147 15.7825 25.2502 16.5834C25.2502 15.8056 25.2502 15.0278 25.2502 14.2501C23.1947 14.2501 21.139 14.2501 19.0835 14.2501Z" fill="#7AA7CE"/>
<path fill-rule="evenodd" clip-rule="evenodd" d="M16.9168 16.9165C18.5186 17.2455 20.1853 17.3567 21.9168 17.2498C21.9563 17.465 21.9008 17.6317 21.7501 17.7498C20.1483 17.4208 18.4816 17.3097 16.7501 17.4165C16.7106 17.2013 16.7661 17.0347 16.9168 16.9165Z" fill="#4E89BD"/>
<path fill-rule="evenodd" clip-rule="evenodd" d="M10.5833 20.25C10.4965 20.7727 10.6632 21.1617 11.0833 21.4167C10.8275 21.6313 10.5497 21.6313 10.25 21.4167C10.3445 21.003 10.4556 20.614 10.5833 20.25Z" fill="#5285BB"/>
<path fill-rule="evenodd" clip-rule="evenodd" d="M10.9168 24.5835C10.3594 24.8697 9.74825 24.9808 9.0835 24.9168C9.66243 24.746 10.2735 24.6348 10.9168 24.5835Z" fill="#5A8CBF"/>
</g>
<defs>
<clipPath id="clip0_27_1279">
<rect width="32" height="32" fill="white"/>
</clipPath>
</defs>
</svg>
