<svg width="32" height="32" viewBox="0 0 32 32" fill="none" xmlns="http://www.w3.org/2000/svg">
<g clip-path="url(#clip0_27_1211)">
<path fill-rule="evenodd" clip-rule="evenodd" d="M1.6875 -0.0625C3.02084 -0.0625 4.35416 -0.0625 5.6875 -0.0625C5.67783 0.0937192 5.5945 0.197886 5.4375 0.25C5.52084 0.291666 5.60416 0.333334 5.6875 0.375C5.43095 0.491237 5.24345 0.678737 5.125 0.9375C5 0.9375 4.875 0.9375 4.75 0.9375C4.54789 1.06698 4.52705 1.21281 4.6875 1.375C4.5625 1.41666 4.4375 1.45834 4.3125 1.5C4.08334 1.8125 3.85416 2.125 3.625 2.4375C3.58334 2.35416 3.54166 2.27084 3.5 2.1875C3.29935 2.47811 3.09101 2.76978 2.875 3.0625C2.59059 3.27916 2.31976 3.50832 2.0625 3.75C2.14584 3.79166 2.22916 3.83334 2.3125 3.875C1.93109 3.95599 1.63942 4.06016 1.4375 4.1875C1.37923 4.40015 1.37923 4.58765 1.4375 4.75C1.28199 4.80701 1.17782 4.74451 1.125 4.5625C0.922884 4.69197 0.902051 4.83781 1.0625 5C0.933019 5.20211 0.787186 5.22295 0.625 5.0625C0.363061 5.21444 0.383895 5.3186 0.6875 5.375C0.49076 5.41912 0.282426 5.50245 0.0625 5.625C0.326553 5.77707 0.284885 5.9229 -0.0625 6.0625C-0.0625 4.60416 -0.0625 3.14584 -0.0625 1.6875C0.3125 0.895834 0.895834 0.3125 1.6875 -0.0625Z" fill="#1261E3"/>
<path fill-rule="evenodd" clip-rule="evenodd" d="M5.6875 -0.0625C7.14584 -0.0625 8.60416 -0.0625 10.0625 -0.0625C10.1629 0.0528969 10.1837 0.177896 10.125 0.3125C9.80024 0.237761 9.57108 0.383595 9.4375 0.75C9.54253 0.958309 9.48002 0.979143 9.25 0.8125C9.125 1.0625 9 1.3125 8.875 1.5625C8.65266 1.21545 8.52766 1.25711 8.5 1.6875C8.22916 1.91666 7.95834 2.14584 7.6875 2.375C7.78496 2.50912 7.76413 2.65495 7.625 2.8125C7.58334 2.72916 7.54166 2.64584 7.5 2.5625C7.21041 2.91467 6.89791 3.24801 6.5625 3.5625C6.84345 3.6655 6.86427 3.7905 6.625 3.9375C6.51066 3.83401 6.42732 3.70901 6.375 3.5625C6.3198 3.91549 6.09062 4.18631 5.6875 4.375C5.80633 4.46469 5.82715 4.56886 5.75 4.6875C5.54254 4.66551 5.3342 4.74884 5.125 4.9375C5.04785 5.05614 5.06867 5.16031 5.1875 5.25C4.88 5.43223 4.60917 5.66139 4.375 5.9375C4.28531 5.81867 4.18114 5.79785 4.0625 5.875C4.04802 6.03353 4.00636 6.20019 3.9375 6.375C3.855 6.26273 3.68834 6.22105 3.4375 6.25C3.63746 6.49631 3.6583 6.72547 3.5 6.9375C3.28864 6.60866 3.1428 6.65034 3.0625 7.0625C2.91246 7.1914 2.74579 7.29556 2.5625 7.375C2.72914 7.60502 2.70831 7.66753 2.5 7.5625C2.31413 7.65661 2.29329 7.76077 2.4375 7.875C1.85419 8.37666 1.27086 8.87666 0.6875 9.375C0.744669 9.42675 0.786336 9.48925 0.8125 9.5625C0.624203 9.7184 0.436703 9.7184 0.25 9.5625C0.329106 9.86569 0.22494 10.1157 -0.0625 10.3125C-0.0625 8.89584 -0.0625 7.47916 -0.0625 6.0625C0.284885 5.9229 0.326553 5.77707 0.0625 5.625C0.282426 5.50245 0.49076 5.41912 0.6875 5.375C0.383895 5.3186 0.363061 5.21444 0.625 5.0625C0.787186 5.22295 0.933019 5.20211 1.0625 5C0.902051 4.83781 0.922884 4.69197 1.125 4.5625C1.17782 4.74451 1.28199 4.80701 1.4375 4.75C1.37923 4.58765 1.37923 4.40015 1.4375 4.1875C1.63942 4.06016 1.93109 3.95599 2.3125 3.875C2.22916 3.83334 2.14584 3.79166 2.0625 3.75C2.31976 3.50832 2.59059 3.27916 2.875 3.0625C3.09101 2.76978 3.29935 2.47811 3.5 2.1875C3.54166 2.27084 3.58334 2.35416 3.625 2.4375C3.85416 2.125 4.08334 1.8125 4.3125 1.5C4.4375 1.45834 4.5625 1.41666 4.6875 1.375C4.52705 1.21281 4.54789 1.06698 4.75 0.9375C4.875 0.9375 5 0.9375 5.125 0.9375C5.24345 0.678737 5.43095 0.491237 5.6875 0.375C5.60416 0.333334 5.52084 0.291666 5.4375 0.25C5.5945 0.197886 5.67783 0.0937192 5.6875 -0.0625Z" fill="#215AE5"/>
<path fill-rule="evenodd" clip-rule="evenodd" d="M10.0625 -0.0625C10.9375 -0.0625 11.8125 -0.0625 12.6875 -0.0625C12.6211 0.202966 12.4544 0.390466 12.1875 0.5C12.1457 0.645505 12.1457 0.812173 12.1875 1C12.125 1.0625 12.0625 1.125 12 1.1875C11.875 1.14583 11.75 1.10417 11.625 1.0625C11.1784 1.58036 10.7618 2.12204 10.375 2.6875C10.3333 2.64584 10.2917 2.60416 10.25 2.5625C10.1534 2.73114 10.0076 2.8353 9.8125 2.875C9.85416 2.91666 9.89584 2.95834 9.9375 3C9.63464 3.19634 9.46797 3.46718 9.4375 3.8125C9.27224 3.83375 9.12641 3.79208 9 3.6875C8.79195 4.06056 8.58363 4.43556 8.375 4.8125C8.33334 4.72916 8.29166 4.64584 8.25 4.5625C8.20834 4.72916 8.16666 4.89584 8.125 5.0625C7.99088 4.96504 7.84505 4.98587 7.6875 5.125C7.72916 5.16666 7.77084 5.20834 7.8125 5.25C7.39909 5.48426 7.06576 5.8176 6.8125 6.25C6.91753 6.45831 6.85502 6.47914 6.625 6.3125C6.48941 6.54663 6.32275 6.75496 6.125 6.9375C5.9946 6.47176 5.9321 6.51342 5.9375 7.0625C5.8125 7.0625 5.6875 7.0625 5.5625 7.0625C5.51824 7.31765 5.51824 7.54681 5.5625 7.75C5.22916 7.83334 5.22916 7.91666 5.5625 8C5.32785 8.14816 5.07785 8.27316 4.8125 8.375C4.91351 8.41345 4.99684 8.47595 5.0625 8.5625C5.01929 8.71195 4.95679 8.71195 4.875 8.5625C4.81465 8.681 4.79381 8.806 4.8125 8.9375C4.49359 9.0645 4.22275 9.27283 4 9.5625C3.95834 9.52084 3.91666 9.47916 3.875 9.4375C3.7672 9.63588 3.68386 9.8442 3.625 10.0625C3.58447 9.80389 3.48031 9.76221 3.3125 9.9375C3.1611 10.0342 3.1611 10.1384 3.3125 10.25C2.83675 10.5591 2.44091 10.9549 2.125 11.4375C2.01077 11.2933 1.90661 11.3141 1.8125 11.5C1.85416 11.5417 1.89584 11.5833 1.9375 11.625C1.77872 11.7375 1.65372 11.8833 1.5625 12.0625C1.38363 12.1221 1.21696 12.2054 1.0625 12.3125C0.919931 12.4282 0.919931 12.5324 1.0625 12.625C0.784324 12.6951 0.534324 12.8201 0.3125 13C0.407284 13.1705 0.344784 13.3164 0.125 13.4375C0.0771781 13.368 0.0146781 13.3264 -0.0625 13.3125C-0.0625 12.3125 -0.0625 11.3125 -0.0625 10.3125C0.22494 10.1157 0.329106 9.86569 0.25 9.5625C0.436703 9.7184 0.624203 9.7184 0.8125 9.5625C0.786336 9.48925 0.744669 9.42675 0.6875 9.375C1.27086 8.87666 1.85419 8.37666 2.4375 7.875C2.29329 7.76077 2.31413 7.65661 2.5 7.5625C2.70831 7.66753 2.72914 7.60502 2.5625 7.375C2.74579 7.29556 2.91246 7.1914 3.0625 7.0625C3.1428 6.65034 3.28864 6.60866 3.5 6.9375C3.6583 6.72547 3.63746 6.49631 3.4375 6.25C3.68834 6.22105 3.855 6.26273 3.9375 6.375C4.00636 6.20019 4.04802 6.03353 4.0625 5.875C4.18114 5.79785 4.28531 5.81867 4.375 5.9375C4.60917 5.66139 4.88 5.43223 5.1875 5.25C5.06867 5.16031 5.04785 5.05614 5.125 4.9375C5.3342 4.74884 5.54254 4.66551 5.75 4.6875C5.82715 4.56886 5.80633 4.46469 5.6875 4.375C6.09062 4.18631 6.3198 3.91549 6.375 3.5625C6.42732 3.70901 6.51066 3.83401 6.625 3.9375C6.86427 3.7905 6.84345 3.6655 6.5625 3.5625C6.89791 3.24801 7.21041 2.91467 7.5 2.5625C7.54166 2.64584 7.58334 2.72916 7.625 2.8125C7.76413 2.65495 7.78496 2.50912 7.6875 2.375C7.95834 2.14584 8.22916 1.91666 8.5 1.6875C8.52766 1.25711 8.65266 1.21545 8.875 1.5625C9 1.3125 9.125 1.0625 9.25 0.8125C9.48002 0.979143 9.54253 0.958309 9.4375 0.75C9.57108 0.383595 9.80024 0.237761 10.125 0.3125C10.1837 0.177896 10.1629 0.0528969 10.0625 -0.0625Z" fill="#2D55E6"/>
<path fill-rule="evenodd" clip-rule="evenodd" d="M16.1875 -0.0625C17.4375 -0.0625 18.6875 -0.0625 19.9375 -0.0625C19.8164 0.0386783 19.7123 0.163679 19.625 0.3125C19.4167 0.207469 19.3959 0.269969 19.5625 0.5C19.1616 0.571461 18.9533 0.800627 18.9375 1.1875C18.806 1.16882 18.681 1.18965 18.5625 1.25C18.7445 1.30283 18.807 1.40699 18.75 1.5625C18.3175 1.27306 18.0466 1.41889 17.9375 2C18.0618 2.36469 17.9992 2.38552 17.75 2.0625C17.6667 2.39577 17.5209 2.68744 17.3125 2.9375C16.0494 2.16469 15.3411 2.51885 15.1875 4C15.218 4.3983 15.2596 4.79412 15.3125 5.1875C15.107 5.16081 14.9195 5.20247 14.75 5.3125C14.7084 5.22916 14.6666 5.14584 14.625 5.0625C14.2452 5.80993 13.7452 6.35159 13.125 6.6875C13.0479 6.80614 13.0686 6.91031 13.1875 7C12.9353 7.30399 12.6228 7.53315 12.25 7.6875C12.2083 7.64584 12.1667 7.60416 12.125 7.5625C12.035 7.76405 12.0558 7.95155 12.1875 8.125C11.8272 8.09431 11.4939 8.21931 11.1875 8.5C11.2292 8.54166 11.2708 8.58334 11.3125 8.625C11.1077 8.65525 10.9202 8.75941 10.75 8.9375C10.5417 9.27084 10.3333 9.60416 10.125 9.9375C10.0833 9.89584 10.0417 9.85416 10 9.8125C9.85539 10.1867 9.58455 10.395 9.1875 10.4375C9.20886 10.7491 9.08386 10.9783 8.8125 11.125C8.85416 11.1667 8.89584 11.2083 8.9375 11.25C8.75086 11.421 8.56336 11.4419 8.375 11.3125C8.28953 11.473 8.31036 11.6188 8.4375 11.75C8.27995 11.8891 8.13412 11.91 8 11.8125C7.95834 11.9375 7.91666 12.0625 7.875 12.1875C7.76077 12.0433 7.65661 12.0641 7.5625 12.25C7.64584 12.2917 7.72916 12.3333 7.8125 12.375C7.47761 12.5955 7.14428 12.8039 6.8125 13C6.95671 13.1142 6.93587 13.2184 6.75 13.3125C6.70834 13.2291 6.66666 13.1459 6.625 13.0625C6.50333 13.299 6.41999 13.549 6.375 13.8125C6.33334 13.7291 6.29166 13.6459 6.25 13.5625C6.13957 13.8877 5.95208 14.1586 5.6875 14.375C5.56886 14.4521 5.46469 14.4314 5.375 14.3125C5.04834 14.6953 4.73584 15.0911 4.4375 15.5C4.54253 15.7083 4.48002 15.7291 4.25 15.5625C4.13755 15.7212 3.99171 15.8462 3.8125 15.9375C3.87816 16.024 3.96149 16.0865 4.0625 16.125C3.49219 16.6589 2.90885 17.0755 2.3125 17.375C2.41351 17.4135 2.49684 17.476 2.5625 17.5625C2.46576 17.7139 2.3616 17.7139 2.25 17.5625C2.1422 17.7609 2.05886 17.9692 2 18.1875C1.86588 18.09 1.72005 18.1109 1.5625 18.25C0.998476 18.8349 0.45681 19.439 -0.0625 20.0625C-0.0625 18.8541 -0.0625 17.6459 -0.0625 16.4375C0.0625 16.4375 0.1875 16.4375 0.3125 16.4375C0.293819 16.306 0.314652 16.181 0.375 16.0625C0.583309 16.1675 0.604143 16.105 0.4375 15.875C0.558822 15.7245 0.683822 15.662 0.8125 15.6875C0.786336 15.6142 0.744669 15.5518 0.6875 15.5C1.14382 15.3876 1.45631 15.1168 1.625 14.6875C1.85502 14.8541 1.91753 14.8333 1.8125 14.625C1.92021 14.2833 2.02437 14.2624 2.125 14.5625C2.434 14.3047 2.70484 13.9297 2.9375 13.4375C3.03424 13.2861 3.1384 13.2861 3.25 13.4375C3.65836 12.6464 4.1792 12.0422 4.8125 11.625C4.70747 11.4167 4.76998 11.3959 5 11.5625C5.28144 10.9892 5.71894 10.5933 6.3125 10.375C6.13049 10.3222 6.06799 10.218 6.125 10.0625C6.31976 10.1682 6.44476 10.0848 6.5 9.8125C6.58334 9.97916 6.66666 9.97916 6.75 9.8125C6.92101 9.62586 6.94185 9.43836 6.8125 9.25C6.93114 9.17285 7.03531 9.19367 7.125 9.3125C7.18535 9.194 7.20619 9.069 7.1875 8.9375C7.35416 8.9375 7.52084 8.9375 7.6875 8.9375C7.70636 8.46075 7.95636 8.25241 8.4375 8.3125C8.49577 8.09985 8.49577 7.91235 8.4375 7.75C8.99251 7.48678 9.43001 7.09095 9.75 6.5625C9.91335 6.40354 10.1009 6.27854 10.3125 6.1875C10.2863 6.11425 10.2447 6.05175 10.1875 6C10.343 5.94299 10.4472 6.00549 10.5 6.1875C10.625 5.85416 10.75 5.52084 10.875 5.1875C10.9167 5.3125 10.9583 5.4375 11 5.5625C11.0625 5.41666 11.1667 5.3125 11.3125 5.25C11.2708 5.20834 11.2292 5.16666 11.1875 5.125C11.568 5.08014 11.6097 4.99681 11.3125 4.875C11.5076 4.8353 11.6534 4.73114 11.75 4.5625C11.8333 4.64584 11.9167 4.72916 12 4.8125C12.0794 4.62921 12.1836 4.46254 12.3125 4.3125C12.1957 3.99256 12.2998 3.90923 12.625 4.0625C12.5236 3.7761 12.6279 3.54692 12.9375 3.375C12.8959 3.33334 12.8541 3.29166 12.8125 3.25C12.9708 3.21131 13.1166 3.14881 13.25 3.0625C13.2916 3.10416 13.3334 3.14584 13.375 3.1875C13.5241 3.00269 13.5866 2.83602 13.5625 2.6875C13.649 2.75316 13.7115 2.83649 13.75 2.9375C13.7897 2.74239 13.8939 2.59655 14.0625 2.5C13.9791 2.45834 13.8959 2.41666 13.8125 2.375C13.9914 2.31685 14.1371 2.21268 14.25 2.0625C14.2916 2.10416 14.3334 2.14584 14.375 2.1875C14.546 2.00086 14.5669 1.81336 14.4375 1.625C14.7348 1.5611 15.0265 1.47776 15.3125 1.375C15.2554 1.32325 15.2136 1.26075 15.1875 1.1875C15.3635 1.09459 15.5301 0.990428 15.6875 0.875C15.527 0.712814 15.5479 0.566981 15.75 0.4375C15.7776 0.867885 15.9026 0.909551 16.125 0.5625C16.1867 0.358232 16.2075 0.149899 16.1875 -0.0625Z" fill="#434BE9"/>
<path fill-rule="evenodd" clip-rule="evenodd" d="M19.9375 -0.0625C21.1041 -0.0625 22.2709 -0.0625 23.4375 -0.0625C23.284 0.00310913 23.1797 0.169776 23.125 0.4375C23.0134 0.286103 22.9092 0.286103 22.8125 0.4375C22.8895 0.765504 22.7645 1.03634 22.4375 1.25C22.2709 1.25 22.1041 1.25 21.9375 1.25C21.9946 1.30175 22.0364 1.36425 22.0625 1.4375C21.9348 1.54425 21.8306 1.66925 21.75 1.8125C21.7084 1.72916 21.6666 1.64584 21.625 1.5625C21.5034 1.79901 21.42 2.04901 21.375 2.3125C21.3226 2.16599 21.2394 2.04099 21.125 1.9375C21.1635 2.43966 20.9342 2.81466 20.4375 3.0625C20.4636 3.13575 20.5054 3.19825 20.5625 3.25C20.4042 3.28869 20.2584 3.35119 20.125 3.4375C19.9167 3.33247 19.8959 3.39498 20.0625 3.625C19.9106 3.88694 19.8064 3.8661 19.75 3.5625C19.269 4.00183 18.8315 4.481 18.4375 5C18.4791 5.04166 18.5209 5.08334 18.5625 5.125C18.3681 5.33072 18.1599 5.37239 17.9375 5.25C18.0315 5.33385 18.0733 5.43801 18.0625 5.5625C17.8985 5.48186 17.7735 5.35686 17.6875 5.1875C17.5209 5.14584 17.3541 5.10416 17.1875 5.0625C16.8517 5.12655 16.5184 5.14738 16.1875 5.125C16.5475 4.695 17.0059 4.46584 17.5625 4.4375C17.5835 3.91781 17.5002 3.41781 17.3125 2.9375C17.5209 2.68744 17.6667 2.39577 17.75 2.0625C17.9992 2.38552 18.0618 2.36469 17.9375 2C18.0466 1.41889 18.3175 1.27306 18.75 1.5625C18.807 1.40699 18.7445 1.30283 18.5625 1.25C18.681 1.18965 18.806 1.16882 18.9375 1.1875C18.9533 0.800627 19.1616 0.571461 19.5625 0.5C19.3959 0.269969 19.4167 0.207469 19.625 0.3125C19.7123 0.163679 19.8164 0.0386783 19.9375 -0.0625Z" fill="#5345EB"/>
<path opacity="0.999" fill-rule="evenodd" clip-rule="evenodd" d="M26.9375 -0.0625C28.0209 -0.0625 29.1041 -0.0625 30.1875 -0.0625C30.1875 0.0208334 30.2291 0.0625 30.3125 0.0625C30.2736 0.18473 30.1902 0.268064 30.0625 0.3125C29.9469 0.169931 29.8426 0.169931 29.75 0.3125C29.6883 0.516768 29.6675 0.725101 29.6875 0.9375C29.4295 0.960876 29.1795 1.02338 28.9375 1.125C29.0818 1.23923 29.0609 1.34339 28.875 1.4375C28.8334 1.3125 28.7916 1.1875 28.75 1.0625C28.7084 1.27084 28.6666 1.47916 28.625 1.6875C28.3119 1.89954 28.1244 2.19121 28.0625 2.5625C27.9791 2.52084 27.8959 2.47916 27.8125 2.4375C27.5905 2.53935 27.5071 2.68519 27.5625 2.875C27.4439 2.95215 27.3397 2.93133 27.25 2.8125C27.0419 3.10069 26.8336 3.39235 26.625 3.6875C26.3395 4.03633 26.027 4.26549 25.6875 4.375C25.7291 4.41666 25.7709 4.45834 25.8125 4.5C25.5346 4.58146 25.3887 4.76896 25.375 5.0625C25.1706 4.89392 24.9831 4.91476 24.8125 5.125C24.8541 5.16666 24.8959 5.20834 24.9375 5.25C24.6201 5.47562 24.4951 5.78813 24.5625 6.1875C23.9787 5.56266 23.2704 5.146 22.4375 4.9375C22.3677 4.77626 22.2428 4.6721 22.0625 4.625C22.223 4.53953 22.3689 4.56036 22.5 4.6875C22.6211 4.40826 22.7878 4.15826 23 3.9375C23.0416 3.97916 23.0834 4.02084 23.125 4.0625C23.1839 3.8442 23.2673 3.63588 23.375 3.4375C23.4166 3.47916 23.4584 3.52084 23.5 3.5625C23.6305 3.42218 23.7138 3.25551 23.75 3.0625C23.7916 3.10416 23.8334 3.14584 23.875 3.1875C24.1064 2.69793 24.4606 2.34375 24.9375 2.125C24.8541 2.08334 24.7709 2.04166 24.6875 2C24.9375 1.95834 25.1875 1.91666 25.4375 1.875C25.3125 1.83334 25.1875 1.79166 25.0625 1.75C25.5107 1.53681 25.969 1.24514 26.4375 0.875C25.9375 0.791666 25.9375 0.708334 26.4375 0.625C26.3959 0.583334 26.3541 0.541666 26.3125 0.5C26.5416 0.4375 26.6875 0.291666 26.75 0.0625C26.8884 0.213987 26.9509 0.172321 26.9375 -0.0625Z" fill="#6B39EE"/>
<path fill-rule="evenodd" clip-rule="evenodd" d="M17.3125 2.9375C17.5002 3.41781 17.5835 3.91781 17.5625 4.4375C17.0059 4.46584 16.5475 4.695 16.1875 5.125C16.5184 5.14738 16.8517 5.12655 17.1875 5.0625C17.3541 5.10416 17.5209 5.14584 17.6875 5.1875C17.7735 5.35686 17.8985 5.48186 18.0625 5.5625C17.1405 7.15316 17.078 8.77816 17.875 10.4375C18.4204 11.1154 19.1079 11.5112 19.9375 11.625C19.0184 11.1636 18.4141 10.4344 18.125 9.4375C17.7731 7.12011 18.7106 5.59929 20.9375 4.875C21.4442 4.7883 21.9442 4.80914 22.4375 4.9375C23.2704 5.146 23.9787 5.56266 24.5625 6.1875C24.9507 6.79814 25.2008 7.4648 25.3125 8.1875C25.2979 9.63361 24.6938 10.7586 23.5 11.5625C23.4166 12.1042 23.4166 12.6459 23.5 13.1875C23.5471 13.3678 23.6513 13.4927 23.8125 13.5625C23.8949 13.9319 23.9365 14.3069 23.9375 14.6875C23.5954 14.6751 23.262 14.7169 22.9375 14.8125C22.8159 14.8734 22.6909 14.9359 22.5625 15C22.9353 15.0622 23.3103 15.0831 23.6875 15.0625C24.1574 15.1077 24.5741 15.2744 24.9375 15.5625C25.4099 16.1518 25.8683 16.7559 26.3125 17.375C26.6339 17.5567 26.9672 17.7025 27.3125 17.8125C27.8052 19.2366 27.3053 19.7366 25.8125 19.3125C24.8303 18.7894 23.9135 18.1644 23.0625 17.4375C22.2601 16.7376 21.6144 15.9043 21.125 14.9375C20.0834 16.6459 18.7084 18.0209 17 19.0625C15.5673 22.4922 13.4214 25.3881 10.5625 27.75C10.0347 28.1389 9.45139 28.2639 8.8125 28.125C8.60735 27.9839 8.48235 27.7964 8.4375 27.5625C8.39505 27.1086 8.49921 26.692 8.75 26.3125C9.23781 25.491 9.82114 24.741 10.5 24.0625C10.6323 24.4523 10.799 24.8273 11 25.1875C11.0349 24.3084 11.0974 23.4334 11.1875 22.5625C11.6362 21.2374 12.2403 19.9874 13 18.8125C14.0109 18.0648 14.3442 17.0647 14 15.8125C13.7985 15.0761 13.4651 14.4094 13 13.8125C13.0381 14.1864 13.1215 14.5614 13.25 14.9375C13.3334 15.6041 13.3334 16.2709 13.25 16.9375C13.1795 17.3909 12.992 17.7866 12.6875 18.125C12.4409 18.1869 12.1909 18.2078 11.9375 18.1875C11.1286 18.3034 10.3369 18.4909 9.5625 18.75C9.8125 18.7916 10.0625 18.8334 10.3125 18.875C10.4945 18.9279 10.557 19.032 10.5 19.1875C9.87251 19.9825 9.10167 20.5866 8.1875 21C7.38856 21.4038 6.88856 21.1746 6.6875 20.3125C6.77556 19.7851 7.04639 19.3685 7.5 19.0625C7.44289 18.527 7.44289 17.9852 7.5 17.4375C8.12899 16.0582 9.10815 14.9958 10.4375 14.25C11.222 13.8683 11.9929 13.4724 12.75 13.0625C13.7354 11.4941 14.902 10.0774 16.25 8.8125C16.2584 8.45164 16.1541 8.11831 15.9375 7.8125C15.631 6.9615 15.4226 6.0865 15.3125 5.1875C15.2596 4.79413 15.218 4.3983 15.1875 4C15.3411 2.51885 16.0494 2.16469 17.3125 2.9375Z" fill="#E9E8EB"/>
<path fill-rule="evenodd" clip-rule="evenodd" d="M30.3126 0.0625C30.9276 0.302356 31.386 0.719023 31.6876 1.3125C31.3351 1.43309 31.1685 1.68309 31.1876 2.0625C30.8731 2.09441 30.5814 2.19858 30.3126 2.375C30.4792 2.41666 30.646 2.45834 30.8126 2.5C30.6079 2.76669 30.5037 3.07919 30.5001 3.4375C30.4167 3.60416 30.3335 3.60416 30.2501 3.4375C30.2115 3.59574 30.149 3.74158 30.0626 3.875C29.689 4.2035 29.2724 4.49516 28.8126 4.75C28.9731 4.91219 28.9522 5.05803 28.7501 5.1875C28.6746 4.91429 28.5289 4.89345 28.3126 5.125C28.442 5.31336 28.4211 5.50086 28.2501 5.6875C28.1984 5.63033 28.1359 5.58866 28.0626 5.5625C27.9792 5.72916 27.896 5.89584 27.8126 6.0625C27.6601 6.21389 27.5142 6.21389 27.3751 6.0625C27.341 6.29111 27.2367 6.47861 27.0626 6.625C27.3627 6.72563 27.3419 6.82979 27.0001 6.9375C26.7285 6.59038 26.666 6.61121 26.8126 7C26.5365 7.23417 26.3074 7.505 26.1251 7.8125C25.9221 7.82124 25.693 7.88374 25.4376 8C25.7664 8.29434 25.7247 8.35684 25.3126 8.1875C25.2009 7.4648 24.9509 6.79814 24.5626 6.1875C24.4952 5.78813 24.6202 5.47562 24.9376 5.25C24.896 5.20834 24.8542 5.16666 24.8126 5.125C24.9832 4.91476 25.1707 4.89392 25.3751 5.0625C25.3889 4.76896 25.5347 4.58146 25.8126 4.5C25.771 4.45834 25.7292 4.41666 25.6876 4.375C26.0271 4.26549 26.3396 4.03633 26.6251 3.6875C26.8337 3.39235 27.042 3.10069 27.2501 2.8125C27.3399 2.93133 27.444 2.95215 27.5626 2.875C27.5072 2.68519 27.5906 2.53935 27.8126 2.4375C27.896 2.47916 27.9792 2.52084 28.0626 2.5625C28.1245 2.19121 28.312 1.89954 28.6251 1.6875C28.6667 1.47916 28.7085 1.27084 28.7501 1.0625C28.7917 1.1875 28.8335 1.3125 28.8751 1.4375C29.061 1.34339 29.0819 1.23923 28.9376 1.125C29.1796 1.02338 29.4296 0.960876 29.6876 0.9375C29.6676 0.725101 29.6884 0.516768 29.7501 0.3125C29.8427 0.169931 29.947 0.169931 30.0626 0.3125C30.1904 0.268064 30.2737 0.18473 30.3126 0.0625Z" fill="#7833F0"/>
<path fill-rule="evenodd" clip-rule="evenodd" d="M31.6875 1.3125C31.7709 1.4375 31.8542 1.5625 31.9375 1.6875C31.9375 2.6875 31.9375 3.6875 31.9375 4.6875C31.7543 4.79338 31.65 4.96004 31.625 5.1875C31.5134 5.0361 31.4093 5.0361 31.3125 5.1875C31.3383 5.45127 31.2342 5.70128 31 5.9375C30.9584 5.89584 30.9167 5.85416 30.875 5.8125C30.4688 6.25281 30.0938 6.71115 29.75 7.1875C29.6972 7.00549 29.593 6.94299 29.4375 7C29.5793 7.127 29.5377 7.21034 29.3125 7.25C29.4397 7.38119 29.4605 7.52701 29.375 7.6875C29.3334 7.64584 29.2917 7.60416 29.25 7.5625C29.0459 7.87207 28.775 8.10124 28.4375 8.25C28.5209 8.29166 28.6042 8.33334 28.6875 8.375C28.2812 8.57217 27.9062 8.82217 27.5625 9.125C27.6459 9.16666 27.7292 9.20834 27.8125 9.25C27.6459 9.29166 27.4792 9.33334 27.3125 9.375C27.3542 9.41666 27.3959 9.45834 27.4375 9.5C27.2917 9.5625 27.1875 9.66666 27.125 9.8125C27.0834 9.77084 27.0417 9.72916 27 9.6875C26.9207 9.87079 26.8164 10.0375 26.6875 10.1875C26.3342 10.3964 26.0008 10.6255 25.6875 10.875C25.5209 10.9583 25.5209 11.0417 25.6875 11.125C25.307 11.1699 25.2653 11.2532 25.5625 11.375C25.4584 11.4792 25.3542 11.5833 25.25 11.6875C25.1594 11.4803 25.0135 11.4178 24.8125 11.5C24.8542 11.5417 24.8959 11.5833 24.9375 11.625C24.7709 11.8333 24.6042 12.0417 24.4375 12.25C24.4792 12.2917 24.5209 12.3333 24.5625 12.375C24.1085 12.6362 23.8585 13.032 23.8125 13.5625C23.6513 13.4927 23.5472 13.3678 23.5 13.1875C23.4167 12.6459 23.4167 12.1042 23.5 11.5625C24.6938 10.7586 25.2979 9.63361 25.3125 8.1875C25.7247 8.35684 25.7663 8.29434 25.4375 8C25.6929 7.88374 25.922 7.82124 26.125 7.8125C26.3073 7.505 26.5364 7.23417 26.8125 7C26.6659 6.61121 26.7284 6.59038 27 6.9375C27.3418 6.82979 27.3627 6.72563 27.0625 6.625C27.2367 6.47861 27.3409 6.29111 27.375 6.0625C27.5142 6.21389 27.66 6.21389 27.8125 6.0625C27.8959 5.89584 27.9792 5.72916 28.0625 5.5625C28.1358 5.58866 28.1983 5.63033 28.25 5.6875C28.421 5.50086 28.4419 5.31336 28.3125 5.125C28.5288 4.89345 28.6745 4.91429 28.75 5.1875C28.9522 5.05803 28.973 4.91219 28.8125 4.75C29.2723 4.49516 29.6889 4.2035 30.0625 3.875C30.1489 3.74158 30.2114 3.59574 30.25 3.4375C30.3334 3.60416 30.4167 3.60416 30.5 3.4375C30.5037 3.07919 30.6078 2.76669 30.8125 2.5C30.6459 2.45834 30.4792 2.41666 30.3125 2.375C30.5813 2.19858 30.873 2.09441 31.1875 2.0625C31.1684 1.68309 31.335 1.43309 31.6875 1.3125Z" fill="#842FF1"/>
<path fill-rule="evenodd" clip-rule="evenodd" d="M23.4376 -0.0625C24.6042 -0.0625 25.771 -0.0625 26.9376 -0.0625C26.951 0.172321 26.8885 0.213987 26.7501 0.0625C26.6876 0.291666 26.5417 0.4375 26.3126 0.5C26.3542 0.541666 26.396 0.583334 26.4376 0.625C25.9376 0.708334 25.9376 0.791666 26.4376 0.875C25.9691 1.24514 25.5108 1.53681 25.0626 1.75C25.1876 1.79166 25.3126 1.83334 25.4376 1.875C25.1876 1.91666 24.9376 1.95834 24.6876 2C24.771 2.04166 24.8542 2.08334 24.9376 2.125C24.4607 2.34375 24.1065 2.69793 23.8751 3.1875C23.8335 3.14584 23.7917 3.10416 23.7501 3.0625C23.7138 3.25551 23.6306 3.42218 23.5001 3.5625C23.4585 3.52084 23.4167 3.47916 23.3751 3.4375C23.2673 3.63588 23.184 3.8442 23.1251 4.0625C23.0835 4.02084 23.0417 3.97916 23.0001 3.9375C22.7878 4.15826 22.6212 4.40826 22.5001 4.6875C22.369 4.56036 22.2231 4.53953 22.0626 4.625C22.2428 4.6721 22.3678 4.77626 22.4376 4.9375C21.9443 4.80914 21.4443 4.7883 20.9376 4.875C18.7107 5.59929 17.7732 7.12011 18.1251 9.4375C18.4142 10.4344 19.0185 11.1636 19.9376 11.625C19.108 11.5112 18.4205 11.1154 17.8751 10.4375C17.0781 8.77816 17.1406 7.15316 18.0626 5.5625C18.0733 5.43801 18.0316 5.33385 17.9376 5.25C18.16 5.37239 18.3682 5.33072 18.5626 5.125C18.521 5.08334 18.4792 5.04166 18.4376 5C18.8316 4.481 19.2691 4.00183 19.7501 3.5625C19.8065 3.8661 19.9107 3.88694 20.0626 3.625C19.896 3.39498 19.9168 3.33247 20.1251 3.4375C20.2585 3.35119 20.4043 3.28869 20.5626 3.25C20.5055 3.19825 20.4637 3.13575 20.4376 3.0625C20.9343 2.81466 21.1636 2.43966 21.1251 1.9375C21.2395 2.04099 21.3227 2.16599 21.3751 2.3125C21.4201 2.04901 21.5035 1.79901 21.6251 1.5625C21.6667 1.64584 21.7085 1.72916 21.7501 1.8125C21.8307 1.66925 21.9348 1.54425 22.0626 1.4375C22.0365 1.36425 21.9947 1.30175 21.9376 1.25C22.1042 1.25 22.271 1.25 22.4376 1.25C22.7646 1.03634 22.8896 0.765504 22.8126 0.4375C22.9093 0.286103 23.0135 0.286103 23.1251 0.4375C23.1798 0.169776 23.2841 0.00310913 23.4376 -0.0625Z" fill="#603FED"/>
<path fill-rule="evenodd" clip-rule="evenodd" d="M15.3125 5.1875C15.4226 6.0865 15.631 6.9615 15.9375 7.8125C15.8472 7.86469 15.7847 7.94803 15.75 8.0625C15.625 8.02084 15.5 7.97916 15.375 7.9375C15.3846 8.0922 15.3639 8.2172 15.3125 8.3125C15.1936 8.2093 15.0686 8.18848 14.9375 8.25C15.035 8.38412 15.0141 8.52995 14.875 8.6875C14.8066 8.03321 14.7025 8.03321 14.5625 8.6875C14.5886 8.76075 14.6304 8.82325 14.6875 8.875C14.4791 9.02084 14.2709 9.16666 14.0625 9.3125C14.0886 9.38575 14.1304 9.44825 14.1875 9.5C13.8814 9.61934 13.6314 9.80684 13.4375 10.0625C13.3642 10.0363 13.3018 9.99467 13.25 9.9375C13.126 10.333 12.8969 10.6455 12.5625 10.875C12.6041 10.9167 12.6459 10.9583 12.6875 11C12.4619 11.3004 12.1702 11.5087 11.8125 11.625C11.9567 11.7392 11.9359 11.8434 11.75 11.9375C11.7083 11.8542 11.6667 11.7708 11.625 11.6875C11.331 12.0443 11.0602 12.4193 10.8125 12.8125C10.6042 12.9584 10.3958 13.1041 10.1875 13.25C10.2292 13.2916 10.2708 13.3334 10.3125 13.375C10.1667 13.4375 10.0625 13.5416 10 13.6875C9.83334 13.6875 9.66666 13.6875 9.5 13.6875C9.42285 13.8061 9.44367 13.9103 9.5625 14C9.2226 14.1996 8.95176 14.4704 8.75 14.8125C8.70834 14.7709 8.66666 14.7291 8.625 14.6875C8.56869 15.0132 8.38119 15.1799 8.0625 15.1875C7.98264 15.47 7.83681 15.72 7.625 15.9375C7.16531 16.1698 6.76949 16.4823 6.4375 16.875C6.47916 16.9166 6.52084 16.9584 6.5625 17C6.36369 17.1308 6.17619 17.2766 6 17.4375C5.91249 17.9473 5.64166 18.1347 5.1875 18C5.22916 18.0416 5.27084 18.0834 5.3125 18.125C5.07018 18.2385 4.94518 18.426 4.9375 18.6875C4.77084 18.6875 4.60416 18.6875 4.4375 18.6875C4.45709 18.8591 4.43625 19.0259 4.375 19.1875C4.33334 19.1459 4.29166 19.1041 4.25 19.0625C4.07014 19.2844 3.94514 19.5344 3.875 19.8125C3.79166 19.9791 3.70834 19.9791 3.625 19.8125C3.42225 20.1132 3.15143 20.3424 2.8125 20.5C2.85416 20.5416 2.89584 20.5834 2.9375 20.625C2.75406 20.7623 2.6499 20.9498 2.625 21.1875C2.49381 21.0604 2.34799 21.0395 2.1875 21.125C2.22916 21.1666 2.27084 21.2084 2.3125 21.25C2.01948 21.3546 1.76947 21.5214 1.5625 21.75C1.60416 21.7916 1.64584 21.8334 1.6875 21.875C1.5625 21.9166 1.4375 21.9584 1.3125 22C1.24236 22.2095 1.11736 22.3761 0.9375 22.5C1.05632 22.5897 1.07715 22.6939 1 22.8125C0.826548 22.6807 0.639048 22.66 0.4375 22.75C0.479166 22.7916 0.520834 22.8334 0.5625 22.875C0.328322 23.088 0.119989 23.3171 -0.0625 23.5625C-0.0625 22.3959 -0.0625 21.2291 -0.0625 20.0625C0.45681 19.439 0.998476 18.8349 1.5625 18.25C1.72005 18.1109 1.86588 18.09 2 18.1875C2.05886 17.9692 2.1422 17.7609 2.25 17.5625C2.3616 17.7139 2.46576 17.7139 2.5625 17.5625C2.49684 17.476 2.41351 17.4135 2.3125 17.375C2.90885 17.0755 3.49219 16.6589 4.0625 16.125C3.96149 16.0865 3.87816 16.024 3.8125 15.9375C3.99171 15.8462 4.13755 15.7212 4.25 15.5625C4.48002 15.7291 4.54253 15.7083 4.4375 15.5C4.73584 15.0911 5.04834 14.6953 5.375 14.3125C5.46469 14.4314 5.56886 14.4521 5.6875 14.375C5.95208 14.1586 6.13957 13.8877 6.25 13.5625C6.29166 13.6459 6.33334 13.7291 6.375 13.8125C6.41999 13.549 6.50333 13.299 6.625 13.0625C6.66666 13.1459 6.70834 13.2291 6.75 13.3125C6.93587 13.2184 6.95671 13.1142 6.8125 13C7.14428 12.8039 7.47761 12.5955 7.8125 12.375C7.72916 12.3333 7.64584 12.2917 7.5625 12.25C7.65661 12.0641 7.76077 12.0433 7.875 12.1875C7.91666 12.0625 7.95834 11.9375 8 11.8125C8.13412 11.91 8.27995 11.8891 8.4375 11.75C8.31036 11.6188 8.28953 11.473 8.375 11.3125C8.56336 11.4419 8.75086 11.421 8.9375 11.25C8.89584 11.2083 8.85416 11.1667 8.8125 11.125C9.08386 10.9783 9.20886 10.7491 9.1875 10.4375C9.58455 10.395 9.85539 10.1867 10 9.8125C10.0417 9.85416 10.0833 9.89584 10.125 9.9375C10.3333 9.60416 10.5417 9.27084 10.75 8.9375C10.9202 8.75941 11.1077 8.65525 11.3125 8.625C11.2708 8.58334 11.2292 8.54166 11.1875 8.5C11.4939 8.21931 11.8272 8.09431 12.1875 8.125C12.0558 7.95155 12.035 7.76405 12.125 7.5625C12.1667 7.60416 12.2083 7.64584 12.25 7.6875C12.6228 7.53315 12.9353 7.30399 13.1875 7C13.0686 6.91031 13.0479 6.80614 13.125 6.6875C13.7452 6.35159 14.2452 5.80993 14.625 5.0625C14.6666 5.14584 14.7084 5.22916 14.75 5.3125C14.9195 5.20247 15.107 5.16081 15.3125 5.1875Z" fill="#5045EB"/>
<path fill-rule="evenodd" clip-rule="evenodd" d="M20.5624 5.9375C22.2389 6.22654 23.4681 7.1432 24.2499 8.6875C24.3094 10.1726 23.6219 11.1517 22.1874 11.625C20.3418 11.9476 19.1126 11.2185 18.4999 9.4375C18.3316 7.75452 19.0191 6.58786 20.5624 5.9375Z" fill="#7139EF"/>
<path fill-rule="evenodd" clip-rule="evenodd" d="M31.9375 4.6875C31.9375 5.89584 31.9375 7.10416 31.9375 8.3125C31.8261 8.40766 31.7428 8.53266 31.6875 8.6875C31.5389 8.80359 31.3723 8.84525 31.1875 8.8125C31.1293 9.02515 31.1293 9.21265 31.1875 9.375C30.9963 9.64959 30.767 9.75375 30.5 9.6875C30.3785 9.91311 30.2326 10.1215 30.0625 10.3125C29.8623 10.1813 29.7581 10.2646 29.75 10.5625C29.5209 10.7083 29.2916 10.8542 29.0625 11C29.3626 11.1006 29.3417 11.2048 29 11.3125C28.8295 11.2177 28.6836 11.2802 28.5625 11.5C29.0134 11.426 29.0342 11.5302 28.625 11.8125C28.5834 11.7708 28.5416 11.7292 28.5 11.6875C28.2646 11.8316 28.1605 12.0399 28.1875 12.3125C27.7501 12.2824 27.7085 12.3865 28.0625 12.625C27.933 12.8271 27.7871 12.848 27.625 12.6875C27.5834 12.8125 27.5416 12.9375 27.5 13.0625C27.375 13.0209 27.25 12.9791 27.125 12.9375C26.9391 13.0316 26.9182 13.1358 27.0625 13.25C26.8314 13.3866 26.623 13.5532 26.4375 13.75C26.4946 13.8018 26.5364 13.8642 26.5625 13.9375C26.3475 14.1168 26.0975 14.2209 25.8125 14.25C26.1098 14.3717 26.068 14.4551 25.6875 14.5C25.7291 14.5416 25.7709 14.5834 25.8125 14.625C25.4121 14.8378 25.1205 15.1502 24.9375 15.5625C24.5741 15.2744 24.1574 15.1077 23.6875 15.0625C23.4375 14.9791 23.1875 14.8959 22.9375 14.8125C23.262 14.7169 23.5954 14.6751 23.9375 14.6875C23.9365 14.3069 23.8949 13.9319 23.8125 13.5625C23.8585 13.032 24.1085 12.6362 24.5625 12.375C24.5209 12.3333 24.4791 12.2917 24.4375 12.25C24.6041 12.0417 24.7709 11.8333 24.9375 11.625C24.8959 11.5833 24.8541 11.5417 24.8125 11.5C25.0135 11.4178 25.1594 11.4803 25.25 11.6875C25.3541 11.5833 25.4584 11.4792 25.5625 11.375C25.2652 11.2532 25.307 11.1699 25.6875 11.125C25.5209 11.0417 25.5209 10.9583 25.6875 10.875C26.0008 10.6255 26.3341 10.3964 26.6875 10.1875C26.8164 10.0375 26.9206 9.87079 27 9.6875C27.0416 9.72916 27.0834 9.77084 27.125 9.8125C27.1875 9.66666 27.2916 9.5625 27.4375 9.5C27.3959 9.45834 27.3541 9.41666 27.3125 9.375C27.4791 9.33334 27.6459 9.29166 27.8125 9.25C27.7291 9.20834 27.6459 9.16666 27.5625 9.125C27.9061 8.82217 28.2811 8.57217 28.6875 8.375C28.6041 8.33334 28.5209 8.29166 28.4375 8.25C28.775 8.10124 29.0459 7.87207 29.25 7.5625C29.2916 7.60416 29.3334 7.64584 29.375 7.6875C29.4605 7.52701 29.4396 7.38119 29.3125 7.25C29.5376 7.21034 29.5792 7.127 29.4375 7C29.593 6.94299 29.6971 7.00549 29.75 7.1875C30.0938 6.71115 30.4688 6.25281 30.875 5.8125C30.9166 5.85416 30.9584 5.89584 31 5.9375C31.2341 5.70128 31.3383 5.45127 31.3125 5.1875C31.4092 5.0361 31.5134 5.0361 31.625 5.1875C31.65 4.96004 31.7543 4.79338 31.9375 4.6875Z" fill="#9029F3"/>
<path fill-rule="evenodd" clip-rule="evenodd" d="M15.9375 7.8125C16.1541 8.11831 16.2584 8.45164 16.25 8.8125C14.902 10.0774 13.7354 11.4941 12.75 13.0625C11.9929 13.4724 11.222 13.8683 10.4375 14.25C9.10815 14.9958 8.12899 16.0582 7.5 17.4375C7.44289 17.9852 7.44289 18.527 7.5 19.0625C7.04639 19.3685 6.77556 19.7851 6.6875 20.3125C6.51911 20.3964 6.37327 20.3964 6.25 20.3125C6.11087 20.47 6.09004 20.6159 6.1875 20.75C5.95125 20.9864 5.76375 21.2573 5.625 21.5625C5.58334 21.5209 5.54166 21.4791 5.5 21.4375C5.22774 21.6116 5.10274 21.82 5.125 22.0625C5.07325 22.0054 5.01075 21.9636 4.9375 21.9375C4.82115 22.3733 4.57115 22.5608 4.1875 22.5C4.28496 22.6341 4.26413 22.78 4.125 22.9375C3.4639 23.6267 2.7764 24.1892 2.0625 24.625C2.0625 24.7916 2.0625 24.9584 2.0625 25.125C2 25.1875 1.9375 25.25 1.875 25.3125C1.82217 25.1305 1.71801 25.068 1.5625 25.125C1.65996 25.2591 1.63913 25.405 1.5 25.5625C1.45834 25.5209 1.41666 25.4791 1.375 25.4375C1.27171 25.7761 1.04254 26.0886 0.6875 26.375C0.568998 26.4354 0.443998 26.4561 0.3125 26.4375C0.331181 26.569 0.310348 26.694 0.25 26.8125C0.153786 26.6752 0.0496191 26.6752 -0.0625 26.8125C-0.0625 25.7291 -0.0625 24.6459 -0.0625 23.5625C0.119989 23.3171 0.328322 23.088 0.5625 22.875C0.520834 22.8334 0.479166 22.7916 0.4375 22.75C0.639048 22.66 0.826548 22.6807 1 22.8125C1.07715 22.6939 1.05632 22.5897 0.9375 22.5C1.11736 22.3761 1.24236 22.2095 1.3125 22C1.4375 21.9584 1.5625 21.9166 1.6875 21.875C1.64584 21.8334 1.60416 21.7916 1.5625 21.75C1.76947 21.5214 2.01948 21.3546 2.3125 21.25C2.27084 21.2084 2.22916 21.1666 2.1875 21.125C2.34799 21.0395 2.49381 21.0604 2.625 21.1875C2.6499 20.9498 2.75406 20.7623 2.9375 20.625C2.89584 20.5834 2.85416 20.5416 2.8125 20.5C3.15143 20.3424 3.42225 20.1132 3.625 19.8125C3.70834 19.9791 3.79166 19.9791 3.875 19.8125C3.94514 19.5344 4.07014 19.2844 4.25 19.0625C4.29166 19.1041 4.33334 19.1459 4.375 19.1875C4.43625 19.0259 4.45709 18.8591 4.4375 18.6875C4.60416 18.6875 4.77084 18.6875 4.9375 18.6875C4.94518 18.426 5.07018 18.2385 5.3125 18.125C5.27084 18.0834 5.22916 18.0416 5.1875 18C5.64166 18.1347 5.91249 17.9473 6 17.4375C6.17619 17.2766 6.36369 17.1308 6.5625 17C6.52084 16.9584 6.47916 16.9166 6.4375 16.875C6.76949 16.4823 7.16531 16.1698 7.625 15.9375C7.83681 15.72 7.98264 15.47 8.0625 15.1875C8.38119 15.1799 8.56869 15.0132 8.625 14.6875C8.66666 14.7291 8.70834 14.7709 8.75 14.8125C8.95176 14.4704 9.2226 14.1996 9.5625 14C9.44367 13.9103 9.42285 13.8061 9.5 13.6875C9.66666 13.6875 9.83334 13.6875 10 13.6875C10.0625 13.5416 10.1667 13.4375 10.3125 13.375C10.2708 13.3334 10.2292 13.2916 10.1875 13.25C10.3958 13.1041 10.6042 12.9584 10.8125 12.8125C11.0602 12.4193 11.331 12.0443 11.625 11.6875C11.6667 11.7708 11.7083 11.8542 11.75 11.9375C11.9359 11.8434 11.9567 11.7392 11.8125 11.625C12.1702 11.5087 12.4619 11.3004 12.6875 11C12.6459 10.9583 12.6041 10.9167 12.5625 10.875C12.8969 10.6455 13.126 10.333 13.25 9.9375C13.3018 9.99467 13.3642 10.0363 13.4375 10.0625C13.6314 9.80684 13.8814 9.61934 14.1875 9.5C14.1304 9.44825 14.0886 9.38575 14.0625 9.3125C14.2709 9.16666 14.4791 9.02084 14.6875 8.875C14.6304 8.82325 14.5886 8.76075 14.5625 8.6875C14.7025 8.03321 14.8066 8.03321 14.875 8.6875C15.0141 8.52995 15.035 8.38412 14.9375 8.25C15.0686 8.18848 15.1936 8.2093 15.3125 8.3125C15.3639 8.2172 15.3846 8.0922 15.375 7.9375C15.5 7.97916 15.625 8.02084 15.75 8.0625C15.7847 7.94803 15.8472 7.86469 15.9375 7.8125Z" fill="#5D41EC"/>
<path fill-rule="evenodd" clip-rule="evenodd" d="M22.1876 8.31227C22.7856 8.26329 23.1606 8.53412 23.3126 9.12477C22.9831 9.88935 22.5038 9.99352 21.8751 9.43727C21.7665 9.00067 21.8706 8.62567 22.1876 8.31227Z" fill="#E5E1EB"/>
<path fill-rule="evenodd" clip-rule="evenodd" d="M12.6875 -0.0625C13.8541 -0.0625 15.0209 -0.0625 16.1875 -0.0625C16.2075 0.149899 16.1867 0.358232 16.125 0.5625C15.9026 0.909551 15.7776 0.867885 15.75 0.4375C15.5479 0.566981 15.527 0.712814 15.6875 0.875C15.5301 0.990428 15.3635 1.09459 15.1875 1.1875C15.2136 1.26075 15.2554 1.32325 15.3125 1.375C15.0265 1.47776 14.7348 1.5611 14.4375 1.625C14.5669 1.81336 14.546 2.00086 14.375 2.1875C14.3334 2.14584 14.2916 2.10416 14.25 2.0625C14.1371 2.21268 13.9914 2.31685 13.8125 2.375C13.8959 2.41666 13.9791 2.45834 14.0625 2.5C13.8939 2.59655 13.7897 2.74239 13.75 2.9375C13.7115 2.83649 13.649 2.75316 13.5625 2.6875C13.5866 2.83602 13.5241 3.00269 13.375 3.1875C13.3334 3.14584 13.2916 3.10416 13.25 3.0625C13.1166 3.14881 12.9708 3.21131 12.8125 3.25C12.8541 3.29166 12.8959 3.33334 12.9375 3.375C12.6279 3.54692 12.5236 3.7761 12.625 4.0625C12.2998 3.90923 12.1957 3.99256 12.3125 4.3125C12.1836 4.46254 12.0794 4.62921 12 4.8125C11.9167 4.72916 11.8333 4.64584 11.75 4.5625C11.6534 4.73114 11.5076 4.8353 11.3125 4.875C11.6097 4.99681 11.568 5.08014 11.1875 5.125C11.2292 5.16666 11.2708 5.20834 11.3125 5.25C11.1667 5.3125 11.0625 5.41666 11 5.5625C10.9583 5.4375 10.9167 5.3125 10.875 5.1875C10.75 5.52084 10.625 5.85416 10.5 6.1875C10.4472 6.00549 10.343 5.94299 10.1875 6C10.2447 6.05175 10.2863 6.11425 10.3125 6.1875C10.1009 6.27854 9.91335 6.40354 9.75 6.5625C9.43001 7.09095 8.99251 7.48678 8.4375 7.75C8.49577 7.91235 8.49577 8.09985 8.4375 8.3125C7.95636 8.25241 7.70636 8.46075 7.6875 8.9375C7.52084 8.9375 7.35416 8.9375 7.1875 8.9375C7.20619 9.069 7.18535 9.194 7.125 9.3125C7.03531 9.19367 6.93114 9.17285 6.8125 9.25C6.94185 9.43836 6.92101 9.62586 6.75 9.8125C6.66666 9.97916 6.58334 9.97916 6.5 9.8125C6.44476 10.0848 6.31976 10.1682 6.125 10.0625C6.06799 10.218 6.13049 10.3222 6.3125 10.375C5.71894 10.5933 5.28144 10.9892 5 11.5625C4.76998 11.3959 4.70747 11.4167 4.8125 11.625C4.1792 12.0422 3.65836 12.6464 3.25 13.4375C3.1384 13.2861 3.03424 13.2861 2.9375 13.4375C2.70484 13.9297 2.434 14.3047 2.125 14.5625C2.02437 14.2624 1.92021 14.2833 1.8125 14.625C1.91753 14.8333 1.85502 14.8541 1.625 14.6875C1.45631 15.1168 1.14382 15.3876 0.6875 15.5C0.744669 15.5518 0.786336 15.6142 0.8125 15.6875C0.683822 15.662 0.558822 15.7245 0.4375 15.875C0.604143 16.105 0.583309 16.1675 0.375 16.0625C0.314652 16.181 0.293819 16.306 0.3125 16.4375C0.1875 16.4375 0.0625 16.4375 -0.0625 16.4375C-0.0625 15.3959 -0.0625 14.3541 -0.0625 13.3125C0.0146781 13.3264 0.0771781 13.368 0.125 13.4375C0.344784 13.3164 0.407284 13.1705 0.3125 13C0.534324 12.8201 0.784324 12.6951 1.0625 12.625C0.919931 12.5324 0.919931 12.4282 1.0625 12.3125C1.21696 12.2054 1.38363 12.1221 1.5625 12.0625C1.65372 11.8833 1.77872 11.7375 1.9375 11.625C1.89584 11.5833 1.85416 11.5417 1.8125 11.5C1.90661 11.3141 2.01077 11.2933 2.125 11.4375C2.44091 10.9549 2.83675 10.5591 3.3125 10.25C3.1611 10.1384 3.1611 10.0342 3.3125 9.9375C3.48031 9.76221 3.58447 9.80389 3.625 10.0625C3.68386 9.8442 3.7672 9.63588 3.875 9.4375C3.91666 9.47916 3.95834 9.52084 4 9.5625C4.22275 9.27283 4.49359 9.0645 4.8125 8.9375C4.79381 8.806 4.81465 8.681 4.875 8.5625C4.95679 8.71195 5.01929 8.71195 5.0625 8.5625C4.99684 8.47595 4.91351 8.41345 4.8125 8.375C5.07785 8.27316 5.32785 8.14816 5.5625 8C5.22916 7.91666 5.22916 7.83334 5.5625 7.75C5.51824 7.54681 5.51824 7.31765 5.5625 7.0625C5.6875 7.0625 5.8125 7.0625 5.9375 7.0625C5.9321 6.51342 5.9946 6.47176 6.125 6.9375C6.32275 6.75496 6.48941 6.54663 6.625 6.3125C6.85502 6.47914 6.91753 6.45831 6.8125 6.25C7.06576 5.8176 7.39909 5.48426 7.8125 5.25C7.77084 5.20834 7.72916 5.16666 7.6875 5.125C7.84505 4.98587 7.99088 4.96504 8.125 5.0625C8.16666 4.89584 8.20834 4.72916 8.25 4.5625C8.29166 4.64584 8.33334 4.72916 8.375 4.8125C8.58363 4.43556 8.79195 4.06056 9 3.6875C9.12641 3.79208 9.27224 3.83375 9.4375 3.8125C9.46797 3.46718 9.63464 3.19634 9.9375 3C9.89584 2.95834 9.85416 2.91666 9.8125 2.875C10.0076 2.8353 10.1534 2.73114 10.25 2.5625C10.2917 2.60416 10.3333 2.64584 10.375 2.6875C10.7618 2.12204 11.1784 1.58036 11.625 1.0625C11.75 1.10417 11.875 1.14583 12 1.1875C12.0625 1.125 12.125 1.0625 12.1875 1C12.1457 0.812173 12.1457 0.645505 12.1875 0.5C12.4544 0.390466 12.6211 0.202966 12.6875 -0.0625Z" fill="#3650E8"/>
<path fill-rule="evenodd" clip-rule="evenodd" d="M31.9375 8.3125C31.9375 10.1042 31.9375 11.8958 31.9375 13.6875C31.8254 13.8248 31.7212 13.8248 31.625 13.6875C31.5834 13.8125 31.5416 13.9375 31.5 14.0625C31.4103 13.9436 31.3061 13.9229 31.1875 14C31.0209 14.0834 31.0209 14.1666 31.1875 14.25C30.9151 14.3053 30.8319 14.4303 30.9375 14.625C30.7792 14.6636 30.6334 14.7261 30.5 14.8125C30.4584 14.7709 30.4166 14.7291 30.375 14.6875C30.2785 14.8561 30.1326 14.9603 29.9375 15C30.1195 15.0529 30.182 15.157 30.125 15.3125C29.795 15.6119 29.4825 15.9244 29.1875 16.25C29.0259 16.3113 28.8591 16.3321 28.6875 16.3125C28.7021 16.5605 28.6188 16.7687 28.4375 16.9375C28.0405 17.2152 27.6655 17.5069 27.3125 17.8125C26.9672 17.7025 26.6339 17.5567 26.3125 17.375C25.8683 16.7559 25.4099 16.1518 24.9375 15.5625C25.1205 15.1502 25.4121 14.8378 25.8125 14.625C25.7709 14.5834 25.7291 14.5416 25.6875 14.5C26.068 14.4551 26.1098 14.3717 25.8125 14.25C26.0975 14.2209 26.3475 14.1168 26.5625 13.9375C26.5364 13.8642 26.4946 13.8018 26.4375 13.75C26.623 13.5532 26.8314 13.3866 27.0625 13.25C26.9182 13.1358 26.9391 13.0316 27.125 12.9375C27.25 12.9791 27.375 13.0209 27.5 13.0625C27.5416 12.9375 27.5834 12.8125 27.625 12.6875C27.7871 12.848 27.933 12.8271 28.0625 12.625C27.7085 12.3865 27.7501 12.2824 28.1875 12.3125C28.1605 12.0399 28.2646 11.8316 28.5 11.6875C28.5416 11.7292 28.5834 11.7708 28.625 11.8125C29.0342 11.5302 29.0134 11.426 28.5625 11.5C28.6836 11.2802 28.8295 11.2177 29 11.3125C29.3417 11.2048 29.3626 11.1006 29.0625 11C29.2916 10.8542 29.5209 10.7083 29.75 10.5625C29.7581 10.2646 29.8623 10.1813 30.0625 10.3125C30.2326 10.1215 30.3785 9.91311 30.5 9.6875C30.767 9.75375 30.9963 9.64959 31.1875 9.375C31.1293 9.21265 31.1293 9.02515 31.1875 8.8125C31.3723 8.84525 31.5389 8.80359 31.6875 8.6875C31.7428 8.53266 31.8261 8.40766 31.9375 8.3125Z" fill="#9E22F5"/>
<path fill-rule="evenodd" clip-rule="evenodd" d="M16.3124 11.0627C16.9016 11.0253 17.1099 11.2753 16.9374 11.8127C16.1611 11.9961 15.9528 11.7461 16.3124 11.0627Z" fill="#7246EE"/>
<path fill-rule="evenodd" clip-rule="evenodd" d="M15.3124 12.0627C15.9016 12.0253 16.1099 12.2753 15.9374 12.8127C15.1611 12.9961 14.9528 12.7461 15.3124 12.0627Z" fill="#7247EE"/>
<path fill-rule="evenodd" clip-rule="evenodd" d="M17.3125 12.1875C17.5249 12.1675 17.7333 12.1883 17.9375 12.25C18.2917 12.6042 18.6459 12.9584 19 13.3125C19.0305 14.0202 18.718 14.5409 18.0625 14.875C17.2683 15.0005 16.7058 14.688 16.375 13.9375C16.2917 13.6875 16.2917 13.4375 16.375 13.1875C16.7132 12.8705 17.0257 12.5372 17.3125 12.1875Z" fill="#783BEF"/>
<path fill-rule="evenodd" clip-rule="evenodd" d="M31.9375 13.6875C31.9375 14.7291 31.9375 15.7709 31.9375 16.8125C31.7051 16.9492 31.4551 17.0534 31.1875 17.125C31.2709 17.1666 31.3541 17.2084 31.4375 17.25C31.2709 17.3334 31.2709 17.4166 31.4375 17.5C31.2365 17.5822 31.0906 17.5197 31 17.3125C30.8942 17.6059 30.7068 17.835 30.4375 18C30.8988 18.053 30.9196 18.1573 30.5 18.3125C30.256 18.1625 30.0685 18.225 29.9375 18.5C29.9791 18.5416 30.0209 18.5834 30.0625 18.625C29.5839 18.7882 29.2089 19.1425 28.9375 19.6875C28.8219 19.8301 28.7176 19.8301 28.625 19.6875C28.625 19.8541 28.625 20.0209 28.625 20.1875C28.3937 19.8798 28.2479 19.9423 28.1875 20.375C28.2291 20.4166 28.2709 20.4584 28.3125 20.5C28.094 20.51 27.8856 20.6141 27.6875 20.8125C27.8075 20.9765 27.7868 21.1433 27.625 21.3125C27.5834 21.2291 27.5416 21.1459 27.5 21.0625C27.3203 21.2375 27.2161 21.4459 27.1875 21.6875C26.8467 21.658 26.5551 21.7621 26.3125 22C26.1654 22.5433 25.7904 23.0432 25.1875 23.5C25.2925 23.7083 25.23 23.7291 25 23.5625C24.7278 23.7366 24.6027 23.945 24.625 24.1875C24.5834 24.1459 24.5416 24.1041 24.5 24.0625C23.9545 24.5626 23.4961 25.0626 23.125 25.5625C23.0353 25.4436 22.9311 25.4229 22.8125 25.5C23 25.9791 22.8541 26.125 22.375 25.9375C22.2169 26.2553 21.9877 26.5886 21.6875 26.9375C21.5436 27.0914 21.3979 27.0914 21.25 26.9375C21.1729 27.0561 21.1936 27.1603 21.3125 27.25C21.194 27.3104 21.069 27.3311 20.9375 27.3125C20.9535 27.5819 20.891 27.8319 20.75 28.0625C20.7084 27.9791 20.6666 27.8959 20.625 27.8125C20.5976 27.9922 20.5351 28.1589 20.4375 28.3125C20.3642 28.2864 20.3018 28.2446 20.25 28.1875C20.0325 28.3395 19.9075 28.5477 19.875 28.8125C19.8334 28.7291 19.7916 28.6459 19.75 28.5625C19.6459 28.75 19.5 28.8959 19.3125 29C19.473 29.1621 19.4521 29.308 19.25 29.4375C19.0821 29.3483 18.9155 29.39 18.75 29.5625C18.7829 29.7439 18.762 29.9105 18.6875 30.0625C18.4846 29.9405 18.3179 30.003 18.1875 30.25C18.2291 30.2916 18.2709 30.3334 18.3125 30.375C18.1469 30.3565 18.001 30.3773 17.875 30.4375C17.8032 30.6865 17.6574 30.874 17.4375 31C17.5564 31.0897 17.5771 31.1939 17.5 31.3125C17.3884 31.1611 17.2842 31.1611 17.1875 31.3125C17.0943 31.467 17.0526 31.6338 17.0625 31.8125C16.8231 31.777 16.6149 31.8186 16.4375 31.9375C15.4375 31.9375 14.4375 31.9375 13.4375 31.9375C13.575 31.8053 13.7418 31.701 13.9375 31.625C13.8541 31.5834 13.7709 31.5416 13.6875 31.5C14.1071 31.4421 14.2737 31.2337 14.1875 30.875C14.4455 30.7934 14.6539 30.6475 14.8125 30.4375C14.8858 30.4636 14.9482 30.5054 15 30.5625C15.0625 30.3334 15.2084 30.1875 15.4375 30.125C15.3541 30.0834 15.2709 30.0416 15.1875 30C15.3561 29.9035 15.4603 29.7576 15.5 29.5625C15.625 29.3959 15.75 29.3959 15.875 29.5625C16.0084 29.3821 16.1542 29.2155 16.3125 29.0625C16.2864 28.9892 16.2446 28.9268 16.1875 28.875C16.348 28.7895 16.4939 28.8104 16.625 28.9375C16.75 28.7291 16.875 28.5209 17 28.3125C17.0834 28.1459 17.1666 28.1459 17.25 28.3125C17.3435 28.0835 17.4685 27.8751 17.625 27.6875C17.6666 27.7291 17.7084 27.7709 17.75 27.8125C18.0103 27.3338 18.3019 26.8754 18.625 26.4375C18.6779 26.6195 18.782 26.682 18.9375 26.625C19.0576 26.2082 19.3492 25.8749 19.8125 25.625C19.5085 25.4891 19.5502 25.4266 19.9375 25.4375C19.9375 25.3125 19.9375 25.1875 19.9375 25.0625C20.5236 25.1645 20.8361 24.9145 20.875 24.3125C20.9166 24.3541 20.9584 24.3959 21 24.4375C21.0581 24.2586 21.1624 24.1129 21.3125 24C21.2709 23.9584 21.2291 23.9166 21.1875 23.875C21.6259 23.8235 21.9175 23.5944 22.0625 23.1875C22.5099 23.0111 22.8641 22.7195 23.125 22.3125C23.0026 22.0901 23.0442 21.8819 23.25 21.6875C23.4614 22.0164 23.6072 21.9746 23.6875 21.5625C23.774 21.6281 23.8365 21.7115 23.875 21.8125C23.8954 21.5405 23.9995 21.3114 24.1875 21.125C24.0825 20.9167 24.145 20.8959 24.375 21.0625C24.6108 20.6303 24.9441 20.2135 25.375 19.8125C25.605 19.9791 25.6675 19.9583 25.5625 19.75C25.8959 19.625 25.8959 19.5 25.5625 19.375C25.6367 19.317 25.7201 19.2961 25.8125 19.3125C27.3053 19.7366 27.8052 19.2366 27.3125 17.8125C27.6655 17.5069 28.0405 17.2152 28.4375 16.9375C28.6188 16.7687 28.7021 16.5605 28.6875 16.3125C28.8591 16.3321 29.0259 16.3113 29.1875 16.25C29.4825 15.9244 29.795 15.6119 30.125 15.3125C30.182 15.157 30.1195 15.0529 29.9375 15C30.1326 14.9603 30.2785 14.8561 30.375 14.6875C30.4166 14.7291 30.4584 14.7709 30.5 14.8125C30.6334 14.7261 30.7792 14.6636 30.9375 14.625C30.8319 14.4303 30.9151 14.3053 31.1875 14.25C31.0209 14.1666 31.0209 14.0834 31.1875 14C31.3061 13.9229 31.4103 13.9436 31.5 14.0625C31.5416 13.9375 31.5834 13.8125 31.625 13.6875C31.7212 13.8248 31.8254 13.8248 31.9375 13.6875Z" fill="#AD1BF7"/>
<path fill-rule="evenodd" clip-rule="evenodd" d="M22.9375 14.8125C23.1875 14.8959 23.4375 14.9791 23.6875 15.0625C23.3103 15.0831 22.9353 15.0622 22.5625 15C22.6909 14.9359 22.8159 14.8734 22.9375 14.8125Z" fill="#B278F0"/>
<path opacity="0.998" fill-rule="evenodd" clip-rule="evenodd" d="M11.1875 22.5625C11.0659 22.4011 10.9409 22.4011 10.8125 22.5625C10.7186 22.453 10.6562 22.328 10.625 22.1875C10.5122 22.3376 10.3663 22.4419 10.1875 22.5C10.5018 22.7584 10.4809 22.9459 10.125 23.0625C10.0032 22.7652 9.91986 22.807 9.875 23.1875C9.54734 23.4455 9.25567 23.6539 9 23.8125C8.94185 23.9914 8.83768 24.1371 8.6875 24.25C8.77084 24.2916 8.85416 24.3334 8.9375 24.375C8.6875 24.4791 8.4375 24.5834 8.1875 24.6875C8.2502 24.8395 8.29186 24.9854 8.3125 25.125C7.94616 24.9746 7.69616 25.0996 7.5625 25.5C7.3125 25.625 7.0625 25.75 6.8125 25.875C6.89584 25.9166 6.97916 25.9584 7.0625 26C6.76564 26.272 6.47398 26.5429 6.1875 26.8125C6.07141 26.9611 6.02975 27.1277 6.0625 27.3125C5.89724 27.3338 5.75141 27.2921 5.625 27.1875C5.5363 27.3716 5.39048 27.455 5.1875 27.4375C5.1776 27.6162 5.21927 27.783 5.3125 27.9375C5.21576 28.0889 5.1116 28.0889 5 27.9375C4.84825 28.1311 4.66075 28.2769 4.4375 28.375C4.56464 28.5061 4.58547 28.652 4.5 28.8125C4.32519 28.7436 4.15853 28.702 4 28.6875C3.92285 28.8061 3.94367 28.9103 4.0625 29C3.5625 29.0834 3.5625 29.1666 4.0625 29.25C3.77749 29.2791 3.52749 29.3832 3.3125 29.5625C3.1611 29.6592 3.1611 29.7634 3.3125 29.875C3.11315 29.7979 2.94649 29.8395 2.8125 30C2.85416 30.0416 2.89584 30.0834 2.9375 30.125C2.77084 30.25 2.60416 30.375 2.4375 30.5C2.54253 30.7083 2.48002 30.7291 2.25 30.5625C2.22264 30.7422 2.16014 30.9089 2.0625 31.0625C1.7574 31.2136 1.5074 31.422 1.3125 31.6875C0.663896 31.3729 0.247229 30.8729 0.0625 30.1875C0.343158 30.1824 0.426491 30.0781 0.3125 29.875C0.728886 29.564 1.04139 29.1682 1.25 28.6875C1.60876 28.7737 1.8171 28.6071 1.875 28.1875C2.03719 28.348 2.18303 28.3271 2.3125 28.125C2.27084 28.0834 2.22916 28.0416 2.1875 28C2.30751 27.8226 2.41169 27.6351 2.5 27.4375C2.55175 27.4946 2.61425 27.5364 2.6875 27.5625C3.23709 27.157 3.63293 26.6988 3.875 26.1875C3.96469 26.3064 4.06886 26.3271 4.1875 26.25C4.02086 26.02 4.04169 25.9575 4.25 26.0625C4.37721 25.661 4.64805 25.4319 5.0625 25.375C4.97916 25.3334 4.89584 25.2916 4.8125 25.25C5.11516 24.9882 5.4485 24.78 5.8125 24.625C5.34676 24.4946 5.38842 24.4321 5.9375 24.4375C5.9375 24.3125 5.9375 24.1875 5.9375 24.0625C6.069 24.0811 6.194 24.0604 6.3125 24C6.26651 23.8159 6.32901 23.6284 6.5 23.4375C6.58969 23.5564 6.69386 23.5771 6.8125 23.5C7.07952 23.1032 7.43369 22.7074 7.875 22.3125C8.00619 22.4396 8.15201 22.4605 8.3125 22.375C7.78742 22.041 7.82909 21.8951 8.4375 21.9375C8.43642 21.7115 8.49893 21.5031 8.625 21.3125C8.67675 21.3696 8.73925 21.4114 8.8125 21.4375C9.20019 21.181 9.57519 20.9103 9.9375 20.625C9.60416 20.5416 9.60416 20.4584 9.9375 20.375C9.6403 20.2533 9.68196 20.1699 10.0625 20.125C10.1294 19.8614 10.2544 19.7989 10.4375 19.9375C10.5304 19.7615 10.6346 19.5949 10.75 19.4375C10.7917 19.4791 10.8333 19.5209 10.875 19.5625C10.875 19.3125 10.875 19.0625 10.875 18.8125C11.0171 18.9205 11.1838 19.0455 11.375 19.1875C11.5367 19.0183 11.5575 18.8515 11.4375 18.6875C11.5032 18.601 11.5865 18.5385 11.6875 18.5C11.6458 18.4584 11.6042 18.4166 11.5625 18.375C11.7172 18.346 11.8422 18.2835 11.9375 18.1875C12.1909 18.2078 12.4409 18.1869 12.6875 18.125C12.992 17.7866 13.1795 17.3909 13.25 16.9375C13.3334 16.2709 13.3334 15.6041 13.25 14.9375C13.1215 14.5614 13.0381 14.1864 13 13.8125C13.4651 14.4094 13.7985 15.0761 14 15.8125C14.3442 17.0647 14.0109 18.0648 13 18.8125C12.2403 19.9874 11.6362 21.2374 11.1875 22.5625Z" fill="#7536EF"/>
<path fill-rule="evenodd" clip-rule="evenodd" d="M23.0625 17.4375C22.8758 17.6035 22.584 17.7494 22.1875 17.875C22.3146 18.0061 22.3355 18.152 22.25 18.3125C22.0659 18.2665 21.8784 18.329 21.6875 18.5C21.6011 18.6334 21.5386 18.7792 21.5 18.9375C21.2334 19.0319 21.025 19.1985 20.875 19.4375C20.7608 19.2932 20.6566 19.3141 20.5625 19.5C20.6459 19.5416 20.7291 19.5834 20.8125 19.625C20.6041 19.6666 20.3959 19.7084 20.1875 19.75C20.3125 19.7916 20.4375 19.8334 20.5625 19.875C20.2833 20.0292 20.0957 20.2584 20 20.5625C19.77 20.3959 19.7075 20.4167 19.8125 20.625C19.5599 20.6891 19.3724 20.835 19.25 21.0625C19.2084 21.0209 19.1666 20.9791 19.125 20.9375C19.068 21.093 19.1305 21.1971 19.3125 21.25C19.155 21.3891 19.0091 21.41 18.875 21.3125C18.7535 21.5381 18.6076 21.7465 18.4375 21.9375C18.2906 21.7681 18.1656 21.789 18.0625 22C18.1041 22.0416 18.1459 22.0834 18.1875 22.125C17.7149 22.1709 17.6315 22.3375 17.9375 22.625C17.438 22.7666 17.0839 23.0791 16.875 23.5625C16.752 23.2756 16.6479 23.3174 16.5625 23.6875C16.453 23.7814 16.328 23.8439 16.1875 23.875C16.3064 23.9647 16.3271 24.0689 16.25 24.1875C15.9704 24.4101 15.7204 24.6601 15.5 24.9375C15.2917 24.8325 15.2709 24.895 15.4375 25.125C14.8859 25.4098 14.4276 25.8055 14.0625 26.3125C13.9892 26.2864 13.9268 26.2446 13.875 26.1875C13.7769 26.4108 13.6311 26.5983 13.4375 26.75C13.5801 26.8426 13.5801 26.9469 13.4375 27.0625C13.0082 27.3224 12.5915 27.5933 12.1875 27.875C12.2708 27.9166 12.3542 27.9584 12.4375 28C12.2532 28.1645 12.0449 28.2895 11.8125 28.375C11.6823 28.6147 11.5364 28.8439 11.375 29.0625C11.3232 29.0054 11.2608 28.9636 11.1875 28.9375C11.0281 29.334 10.799 29.584 10.5 29.6875C10.3954 29.9189 10.2912 30.148 10.1875 30.375C10.032 30.432 9.92783 30.3695 9.875 30.1875C9.63113 30.3921 9.65196 30.5796 9.9375 30.75C9.49747 30.813 9.18497 31.0421 9 31.4375C8.94825 31.3804 8.88575 31.3386 8.8125 31.3125C8.56789 31.4975 8.48455 31.7059 8.5625 31.9375C6.85416 31.9375 5.14584 31.9375 3.4375 31.9375C3.71991 31.8905 3.94907 31.6822 4.125 31.3125C4.24795 31.5994 4.35211 31.5576 4.4375 31.1875C4.41134 31.1142 4.36967 31.0518 4.3125 31C4.8354 30.7337 5.31457 30.338 5.75 29.8125C5.99581 29.3211 6.32915 28.9045 6.75 28.5625C6.93782 28.6044 7.1045 28.6044 7.25 28.5625C7.22916 28.0834 7.45834 27.8541 7.9375 27.875C7.47686 27.7608 7.51853 27.6774 8.0625 27.625C7.91653 27.3911 7.97903 27.2036 8.25 27.0625C8.27625 27.2572 8.33875 27.4239 8.4375 27.5625C8.48235 27.7964 8.60735 27.9839 8.8125 28.125C9.45139 28.2639 10.0347 28.1389 10.5625 27.75C13.4214 25.3881 15.5673 22.4922 17 19.0625C18.7084 18.0209 20.0834 16.6459 21.125 14.9375C21.6144 15.9043 22.2601 16.7376 23.0625 17.4375Z" fill="#8F2AF3"/>
<path fill-rule="evenodd" clip-rule="evenodd" d="M31.9375 16.8125C31.9375 17.8959 31.9375 18.9791 31.9375 20.0625C31.6615 20.3244 31.5156 20.6578 31.5 21.0625C31.4615 20.9615 31.399 20.8781 31.3125 20.8125C31.1611 20.9092 31.1611 21.0134 31.3125 21.125C31.0942 21.1839 30.8859 21.2673 30.6875 21.375C30.7291 21.4166 30.7709 21.4584 30.8125 21.5C30.6624 21.6129 30.5581 21.7586 30.5 21.9375C30.4166 22.1041 30.3334 22.1041 30.25 21.9375C30.0575 22.4639 29.6618 22.8598 29.0625 23.125C29.3661 23.1814 29.387 23.2856 29.125 23.4375C29 23.3959 28.875 23.3541 28.75 23.3125C28.6887 23.4741 28.6679 23.6409 28.6875 23.8125C28.3002 23.8016 28.2585 23.8641 28.5625 24C28.5 24.0625 28.4375 24.125 28.375 24.1875C28.2439 24.0604 28.098 24.0395 27.9375 24.125C28.0209 24.1666 28.1041 24.2084 28.1875 24.25C27.9817 24.7255 27.6485 24.9337 27.1875 24.875C27.2446 24.9268 27.2864 24.9892 27.3125 25.0625C27.1386 25.0136 27.0136 25.1177 26.9375 25.375C26.9791 25.4166 27.0209 25.4584 27.0625 25.5C26.7491 25.5116 26.4782 25.6157 26.25 25.8125C26.1645 25.973 26.1854 26.1189 26.3125 26.25C26.1785 26.4105 26.0119 26.4521 25.8125 26.375C25.9396 26.5061 25.9605 26.652 25.875 26.8125C25.8334 26.7291 25.7916 26.6459 25.75 26.5625C25.418 26.6442 25.1055 26.7901 24.8125 27C24.9862 27.3742 24.8613 27.6242 24.4375 27.75C24.4791 27.7916 24.5209 27.8334 24.5625 27.875C24.405 28.0141 24.2591 28.035 24.125 27.9375C24.033 28.29 23.8248 28.54 23.5 28.6875C23.4584 28.8541 23.4166 29.0209 23.375 29.1875C23.3334 29.1041 23.2916 29.0209 23.25 28.9375C23.161 29.2309 23.0151 29.4809 22.8125 29.6875C22.7322 29.2754 22.5864 29.2336 22.375 29.5625C22.3334 29.5209 22.2916 29.4791 22.25 29.4375C22.2084 29.5625 22.1666 29.6875 22.125 29.8125C21.9303 29.7069 21.8053 29.7901 21.75 30.0625C21.7084 30.0209 21.6666 29.9791 21.625 29.9375C21.5646 30.056 21.5439 30.181 21.5625 30.3125C21.118 30.2844 21.0762 30.3885 21.4375 30.625C21.2999 30.902 21.1332 31.152 20.9375 31.375C20.9791 31.4166 21.0209 31.4584 21.0625 31.5C20.7612 31.5071 20.5945 31.653 20.5625 31.9375C19.1875 31.9375 17.8125 31.9375 16.4375 31.9375C16.6149 31.8186 16.8231 31.777 17.0625 31.8125C17.0526 31.6338 17.0943 31.467 17.1875 31.3125C17.2842 31.1611 17.3884 31.1611 17.5 31.3125C17.5771 31.1939 17.5564 31.0897 17.4375 31C17.6574 30.874 17.8032 30.6865 17.875 30.4375C18.001 30.3773 18.1469 30.3565 18.3125 30.375C18.2709 30.3334 18.2291 30.2916 18.1875 30.25C18.3179 30.003 18.4846 29.9405 18.6875 30.0625C18.762 29.9105 18.7829 29.7439 18.75 29.5625C18.9155 29.39 19.0821 29.3483 19.25 29.4375C19.4521 29.308 19.473 29.1621 19.3125 29C19.5 28.8959 19.6459 28.75 19.75 28.5625C19.7916 28.6459 19.8334 28.7291 19.875 28.8125C19.9075 28.5477 20.0325 28.3395 20.25 28.1875C20.3018 28.2446 20.3642 28.2864 20.4375 28.3125C20.5351 28.1589 20.5976 27.9922 20.625 27.8125C20.6666 27.8959 20.7084 27.9791 20.75 28.0625C20.891 27.8319 20.9535 27.5819 20.9375 27.3125C21.069 27.3311 21.194 27.3104 21.3125 27.25C21.1936 27.1603 21.1729 27.0561 21.25 26.9375C21.3979 27.0914 21.5436 27.0914 21.6875 26.9375C21.9877 26.5886 22.2169 26.2553 22.375 25.9375C22.8541 26.125 23 25.9791 22.8125 25.5C22.9311 25.4229 23.0353 25.4436 23.125 25.5625C23.4961 25.0626 23.9545 24.5626 24.5 24.0625C24.5416 24.1041 24.5834 24.1459 24.625 24.1875C24.6027 23.945 24.7278 23.7366 25 23.5625C25.23 23.7291 25.2925 23.7083 25.1875 23.5C25.7904 23.0432 26.1654 22.5433 26.3125 22C26.5551 21.7621 26.8467 21.658 27.1875 21.6875C27.2161 21.4459 27.3203 21.2375 27.5 21.0625C27.5416 21.1459 27.5834 21.2291 27.625 21.3125C27.7868 21.1433 27.8075 20.9765 27.6875 20.8125C27.8856 20.6141 28.094 20.51 28.3125 20.5C28.2709 20.4584 28.2291 20.4166 28.1875 20.375C28.2479 19.9423 28.3937 19.8798 28.625 20.1875C28.625 20.0209 28.625 19.8541 28.625 19.6875C28.7176 19.8301 28.8219 19.8301 28.9375 19.6875C29.2089 19.1425 29.5839 18.7882 30.0625 18.625C30.0209 18.5834 29.9791 18.5416 29.9375 18.5C30.0685 18.225 30.256 18.1625 30.5 18.3125C30.9196 18.1573 30.8988 18.053 30.4375 18C30.7068 17.835 30.8942 17.6059 31 17.3125C31.0906 17.5197 31.2365 17.5822 31.4375 17.5C31.2709 17.4166 31.2709 17.3334 31.4375 17.25C31.3541 17.2084 31.2709 17.1666 31.1875 17.125C31.4551 17.0534 31.7051 16.9492 31.9375 16.8125Z" fill="#B915F8"/>
<path fill-rule="evenodd" clip-rule="evenodd" d="M23.0624 17.4375C23.9134 18.1644 24.8302 18.7894 25.8124 19.3125C25.7201 19.2961 25.6367 19.317 25.5624 19.375C25.8958 19.5 25.8958 19.625 25.5624 19.75C25.6674 19.9583 25.6049 19.9791 25.3749 19.8125C24.9441 20.2135 24.6107 20.6303 24.3749 21.0625C24.1449 20.8959 24.0824 20.9167 24.1874 21.125C23.9994 21.3114 23.8953 21.5405 23.8749 21.8125C23.8364 21.7115 23.7739 21.6281 23.6874 21.5625C23.6072 21.9746 23.4613 22.0164 23.2499 21.6875C23.0442 21.8819 23.0026 22.0901 23.1249 22.3125C22.8641 22.7195 22.5098 23.0111 22.0624 23.1875C21.9174 23.5944 21.6258 23.8235 21.1874 23.875C21.2291 23.9166 21.2708 23.9584 21.3124 24C21.1623 24.1129 21.0581 24.2586 20.9999 24.4375C20.9583 24.3959 20.9166 24.3541 20.8749 24.3125C20.8361 24.9145 20.5236 25.1645 19.9374 25.0625C19.9374 25.1875 19.9374 25.3125 19.9374 25.4375C19.5502 25.4266 19.5084 25.4891 19.8124 25.625C19.3492 25.8749 19.0576 26.2082 18.9374 26.625C18.7819 26.682 18.6778 26.6195 18.6249 26.4375C18.3018 26.8754 18.0102 27.3338 17.7499 27.8125C17.7083 27.7709 17.6666 27.7291 17.6249 27.6875C17.4684 27.8751 17.3434 28.0835 17.2499 28.3125C17.1666 28.1459 17.0833 28.1459 16.9999 28.3125C16.8749 28.5209 16.7499 28.7291 16.6249 28.9375C16.4938 28.8104 16.3479 28.7895 16.1874 28.875C16.2446 28.9268 16.2863 28.9892 16.3124 29.0625C16.1542 29.2155 16.0083 29.3821 15.8749 29.5625C15.7499 29.3959 15.6249 29.3959 15.4999 29.5625C15.4602 29.7576 15.3561 29.9035 15.1874 30C15.2708 30.0416 15.3541 30.0834 15.4374 30.125C15.2083 30.1875 15.0624 30.3334 14.9999 30.5625C14.9482 30.5054 14.8857 30.4636 14.8124 30.4375C14.6538 30.6475 14.4454 30.7934 14.1874 30.875C14.2737 31.2337 14.1071 31.4421 13.6874 31.5C13.7708 31.5416 13.8541 31.5834 13.9374 31.625C13.7417 31.701 13.5749 31.8053 13.4374 31.9375C11.8124 31.9375 10.1874 31.9375 8.56243 31.9375C8.48448 31.7059 8.56782 31.4975 8.81243 31.3125C8.88568 31.3386 8.94818 31.3804 8.99993 31.4375C9.18491 31.0421 9.49741 30.813 9.93743 30.75C9.6519 30.5796 9.63106 30.3921 9.87493 30.1875C9.92776 30.3695 10.0319 30.432 10.1874 30.375C10.2911 30.148 10.3953 29.9189 10.4999 29.6875C10.7989 29.584 11.0281 29.334 11.1874 28.9375C11.2607 28.9636 11.3232 29.0054 11.3749 29.0625C11.5364 28.8439 11.6822 28.6147 11.8124 28.375C12.0448 28.2895 12.2531 28.1645 12.4374 28C12.3541 27.9584 12.2708 27.9166 12.1874 27.875C12.5914 27.5933 13.0082 27.3224 13.4374 27.0625C13.5801 26.9469 13.5801 26.8426 13.4374 26.75C13.6311 26.5983 13.7768 26.4108 13.8749 26.1875C13.9267 26.2446 13.9892 26.2864 14.0624 26.3125C14.4276 25.8055 14.8858 25.4098 15.4374 25.125C15.2708 24.895 15.2917 24.8325 15.4999 24.9375C15.7203 24.6601 15.9703 24.4101 16.2499 24.1875C16.3271 24.0689 16.3063 23.9647 16.1874 23.875C16.3279 23.8439 16.4529 23.7814 16.5624 23.6875C16.6478 23.3174 16.7519 23.2756 16.8749 23.5625C17.0838 23.0791 17.4379 22.7666 17.9374 22.625C17.6314 22.3375 17.7148 22.1709 18.1874 22.125C18.1458 22.0834 18.1041 22.0416 18.0624 22C18.1656 21.789 18.2906 21.7681 18.4374 21.9375C18.6076 21.7465 18.7534 21.5381 18.8749 21.3125C19.0091 21.41 19.1549 21.3891 19.3124 21.25C19.1304 21.1971 19.0679 21.093 19.1249 20.9375C19.1666 20.9791 19.2083 21.0209 19.2499 21.0625C19.3723 20.835 19.5598 20.6891 19.8124 20.625C19.7074 20.4167 19.7699 20.3959 19.9999 20.5625C20.0957 20.2584 20.2832 20.0292 20.5624 19.875C20.4374 19.8334 20.3124 19.7916 20.1874 19.75C20.3958 19.7084 20.6041 19.6666 20.8124 19.625C20.7291 19.5834 20.6458 19.5416 20.5624 19.5C20.6566 19.3141 20.7607 19.2932 20.8749 19.4375C21.0249 19.1985 21.2333 19.0319 21.4999 18.9375C21.5386 18.7792 21.6011 18.6334 21.6874 18.5C21.8783 18.329 22.0658 18.2665 22.2499 18.3125C22.3354 18.152 22.3146 18.0061 22.1874 17.875C22.5839 17.7494 22.8757 17.6035 23.0624 17.4375Z" fill="#9E22F5"/>
<path fill-rule="evenodd" clip-rule="evenodd" d="M11.9375 18.1875C11.8422 18.2835 11.7172 18.346 11.5625 18.375C11.6042 18.4166 11.6458 18.4584 11.6875 18.5C11.5865 18.5385 11.5032 18.601 11.4375 18.6875C11.5575 18.8515 11.5367 19.0183 11.375 19.1875C11.1838 19.0455 11.0171 18.9205 10.875 18.8125C10.875 19.0625 10.875 19.3125 10.875 19.5625C10.8333 19.5209 10.7917 19.4791 10.75 19.4375C10.6346 19.5949 10.5304 19.7615 10.4375 19.9375C10.2544 19.7989 10.1294 19.8614 10.0625 20.125C9.68196 20.1699 9.6403 20.2533 9.9375 20.375C9.60416 20.4584 9.60416 20.5416 9.9375 20.625C9.57519 20.9103 9.20019 21.181 8.8125 21.4375C8.73925 21.4114 8.67675 21.3696 8.625 21.3125C8.49893 21.5031 8.43642 21.7115 8.4375 21.9375C7.82909 21.8951 7.78742 22.041 8.3125 22.375C8.15201 22.4605 8.00619 22.4396 7.875 22.3125C7.43369 22.7074 7.07952 23.1032 6.8125 23.5C6.69386 23.5771 6.58969 23.5564 6.5 23.4375C6.32901 23.6284 6.26651 23.8159 6.3125 24C6.194 24.0604 6.069 24.0811 5.9375 24.0625C5.9375 24.1875 5.9375 24.3125 5.9375 24.4375C5.38842 24.4321 5.34676 24.4946 5.8125 24.625C5.4485 24.78 5.11516 24.9882 4.8125 25.25C4.89584 25.2916 4.97916 25.3334 5.0625 25.375C4.64805 25.4319 4.37721 25.661 4.25 26.0625C4.04169 25.9575 4.02086 26.02 4.1875 26.25C4.06886 26.3271 3.96469 26.3064 3.875 26.1875C3.63293 26.6988 3.23709 27.157 2.6875 27.5625C2.61425 27.5364 2.55175 27.4946 2.5 27.4375C2.41169 27.6351 2.30751 27.8226 2.1875 28C2.22916 28.0416 2.27084 28.0834 2.3125 28.125C2.18303 28.3271 2.03719 28.348 1.875 28.1875C1.8171 28.6071 1.60876 28.7737 1.25 28.6875C1.04139 29.1682 0.728886 29.564 0.3125 29.875C0.426491 30.0781 0.343158 30.1824 0.0625 30.1875C0.0208334 30.1875 -0.0208334 30.1875 -0.0625 30.1875C-0.0625 29.0625 -0.0625 27.9375 -0.0625 26.8125C0.0496191 26.6752 0.153786 26.6752 0.25 26.8125C0.310348 26.694 0.331181 26.569 0.3125 26.4375C0.443998 26.4561 0.568998 26.4354 0.6875 26.375C1.04254 26.0886 1.27171 25.7761 1.375 25.4375C1.41666 25.4791 1.45834 25.5209 1.5 25.5625C1.63913 25.405 1.65996 25.2591 1.5625 25.125C1.71801 25.068 1.82217 25.1305 1.875 25.3125C1.9375 25.25 2 25.1875 2.0625 25.125C2.0625 24.9584 2.0625 24.7916 2.0625 24.625C2.7764 24.1892 3.4639 23.6267 4.125 22.9375C4.26413 22.78 4.28496 22.6341 4.1875 22.5C4.57115 22.5608 4.82115 22.3733 4.9375 21.9375C5.01075 21.9636 5.07325 22.0054 5.125 22.0625C5.10274 21.82 5.22774 21.6116 5.5 21.4375C5.54166 21.4791 5.58334 21.5209 5.625 21.5625C5.76375 21.2573 5.95125 20.9864 6.1875 20.75C6.09004 20.6159 6.11087 20.47 6.25 20.3125C6.37327 20.3964 6.51911 20.3964 6.6875 20.3125C6.88856 21.1746 7.38856 21.4038 8.1875 21C9.10167 20.5866 9.87251 19.9825 10.5 19.1875C10.557 19.032 10.4945 18.9279 10.3125 18.875C10.0625 18.8334 9.8125 18.7916 9.5625 18.75C10.3369 18.4909 11.1286 18.3034 11.9375 18.1875Z" fill="#6A3AEE"/>
<path fill-rule="evenodd" clip-rule="evenodd" d="M31.9375 20.0625C31.9375 21.1459 31.9375 22.2291 31.9375 23.3125C31.7335 23.4885 31.5253 23.676 31.3125 23.875C31.3541 23.9166 31.3959 23.9584 31.4375 24C31.2498 24.0729 31.0831 24.177 30.9375 24.3125C31.0761 24.5267 30.9927 24.6101 30.6875 24.5625C30.7176 24.9999 30.6135 25.0415 30.375 24.6875C30.113 24.8394 30.1339 24.9436 30.4375 25C29.7717 25.5359 29.105 26.0775 28.4375 26.625C28.7108 26.7005 28.7315 26.8462 28.5 27.0625C28.3783 26.7652 28.2949 26.807 28.25 27.1875C27.7379 27.3466 27.3836 27.7216 27.1875 28.3125C27.1142 28.2864 27.0518 28.2446 27 28.1875C26.8959 28.375 26.75 28.5209 26.5625 28.625C26.6517 28.7929 26.61 28.9595 26.4375 29.125C26.1041 29.2916 25.7709 29.4584 25.4375 29.625C25.5431 29.8197 25.4599 29.9447 25.1875 30C25.2291 30.0416 25.2709 30.0834 25.3125 30.125C24.5337 30.5494 23.9505 31.1536 23.5625 31.9375C22.5625 31.9375 21.5625 31.9375 20.5625 31.9375C20.5945 31.653 20.7612 31.5071 21.0625 31.5C21.0209 31.4584 20.9791 31.4166 20.9375 31.375C21.1332 31.152 21.2999 30.902 21.4375 30.625C21.0762 30.3885 21.118 30.2844 21.5625 30.3125C21.5439 30.181 21.5646 30.056 21.625 29.9375C21.6666 29.9791 21.7084 30.0209 21.75 30.0625C21.8053 29.7901 21.9303 29.7069 22.125 29.8125C22.1666 29.6875 22.2084 29.5625 22.25 29.4375C22.2916 29.4791 22.3334 29.5209 22.375 29.5625C22.5864 29.2336 22.7322 29.2754 22.8125 29.6875C23.0151 29.4809 23.161 29.2309 23.25 28.9375C23.2916 29.0209 23.3334 29.1041 23.375 29.1875C23.4166 29.0209 23.4584 28.8541 23.5 28.6875C23.8248 28.54 24.033 28.29 24.125 27.9375C24.2591 28.035 24.405 28.0141 24.5625 27.875C24.5209 27.8334 24.4791 27.7916 24.4375 27.75C24.8613 27.6242 24.9862 27.3742 24.8125 27C25.1055 26.7901 25.418 26.6442 25.75 26.5625C25.7916 26.6459 25.8334 26.7291 25.875 26.8125C25.9605 26.652 25.9396 26.5061 25.8125 26.375C26.0119 26.4521 26.1785 26.4105 26.3125 26.25C26.1854 26.1189 26.1645 25.973 26.25 25.8125C26.4782 25.6157 26.7491 25.5116 27.0625 25.5C27.0209 25.4584 26.9791 25.4166 26.9375 25.375C27.0136 25.1177 27.1386 25.0136 27.3125 25.0625C27.2864 24.9892 27.2446 24.9268 27.1875 24.875C27.6485 24.9337 27.9817 24.7255 28.1875 24.25C28.1041 24.2084 28.0209 24.1666 27.9375 24.125C28.098 24.0395 28.2439 24.0604 28.375 24.1875C28.4375 24.125 28.5 24.0625 28.5625 24C28.2585 23.8641 28.3002 23.8016 28.6875 23.8125C28.6679 23.6409 28.6887 23.4741 28.75 23.3125C28.875 23.3541 29 23.3959 29.125 23.4375C29.387 23.2856 29.3661 23.1814 29.0625 23.125C29.6618 22.8598 30.0575 22.4639 30.25 21.9375C30.3334 22.1041 30.4166 22.1041 30.5 21.9375C30.5581 21.7586 30.6624 21.6129 30.8125 21.5C30.7709 21.4584 30.7291 21.4166 30.6875 21.375C30.8859 21.2673 31.0942 21.1839 31.3125 21.125C31.1611 21.0134 31.1611 20.9092 31.3125 20.8125C31.399 20.8781 31.4615 20.9615 31.5 21.0625C31.5156 20.6578 31.6615 20.3244 31.9375 20.0625Z" fill="#C510FA"/>
<path fill-rule="evenodd" clip-rule="evenodd" d="M11.1875 22.5625C11.0974 23.4334 11.0349 24.3084 11 25.1875C10.799 24.8273 10.6323 24.4523 10.5 24.0625C9.82114 24.741 9.23781 25.491 8.75 26.3125C8.49921 26.692 8.39505 27.1086 8.4375 27.5625C8.33875 27.4239 8.27625 27.2572 8.25 27.0625C7.97903 27.2036 7.91653 27.3911 8.0625 27.625C7.51853 27.6774 7.47686 27.7608 7.9375 27.875C7.45834 27.8541 7.22916 28.0834 7.25 28.5625C7.1045 28.6044 6.93782 28.6044 6.75 28.5625C6.32915 28.9045 5.99581 29.3211 5.75 29.8125C5.31457 30.338 4.8354 30.7337 4.3125 31C4.36967 31.0518 4.41134 31.1142 4.4375 31.1875C4.35211 31.5576 4.24795 31.5994 4.125 31.3125C3.94907 31.6822 3.71991 31.8905 3.4375 31.9375C2.85416 31.9375 2.27084 31.9375 1.6875 31.9375C1.5625 31.8541 1.4375 31.7709 1.3125 31.6875C1.5074 31.422 1.7574 31.2136 2.0625 31.0625C2.16014 30.9089 2.22264 30.7422 2.25 30.5625C2.48002 30.7291 2.54253 30.7083 2.4375 30.5C2.60416 30.375 2.77084 30.25 2.9375 30.125C2.89584 30.0834 2.85416 30.0416 2.8125 30C2.94649 29.8395 3.11315 29.7979 3.3125 29.875C3.1611 29.7634 3.1611 29.6592 3.3125 29.5625C3.52749 29.3832 3.77749 29.2791 4.0625 29.25C3.5625 29.1666 3.5625 29.0834 4.0625 29C3.94367 28.9103 3.92285 28.8061 4 28.6875C4.15853 28.702 4.32519 28.7436 4.5 28.8125C4.58547 28.652 4.56464 28.5061 4.4375 28.375C4.66075 28.2769 4.84825 28.1311 5 27.9375C5.1116 28.0889 5.21576 28.0889 5.3125 27.9375C5.21927 27.783 5.1776 27.6162 5.1875 27.4375C5.39048 27.455 5.5363 27.3716 5.625 27.1875C5.75141 27.2921 5.89724 27.3338 6.0625 27.3125C6.02975 27.1277 6.07141 26.9611 6.1875 26.8125C6.47398 26.5429 6.76564 26.272 7.0625 26C6.97916 25.9584 6.89584 25.9166 6.8125 25.875C7.0625 25.75 7.3125 25.625 7.5625 25.5C7.69616 25.0996 7.94616 24.9746 8.3125 25.125C8.29186 24.9854 8.2502 24.8395 8.1875 24.6875C8.4375 24.5834 8.6875 24.4791 8.9375 24.375C8.85416 24.3334 8.77084 24.2916 8.6875 24.25C8.83768 24.1371 8.94185 23.9914 9 23.8125C9.25567 23.6539 9.54734 23.4455 9.875 23.1875C9.91986 22.807 10.0032 22.7652 10.125 23.0625C10.4809 22.9459 10.5018 22.7584 10.1875 22.5C10.3663 22.4419 10.5122 22.3376 10.625 22.1875C10.6562 22.328 10.7186 22.453 10.8125 22.5625C10.9409 22.4011 11.0659 22.4011 11.1875 22.5625Z" fill="#8032F1"/>
<path fill-rule="evenodd" clip-rule="evenodd" d="M31.9375 23.3125C31.9375 24.1041 31.9375 24.8959 31.9375 25.6875C31.6671 25.9786 31.3755 26.2494 31.0625 26.5C31.1675 26.7083 31.105 26.7291 30.875 26.5625C30.8113 26.8756 30.6238 27.0631 30.3125 27.125C30.5376 27.1646 30.5792 27.248 30.4375 27.375C30.1526 27.4341 29.9026 27.5591 29.6875 27.75C29.9911 27.8064 30.012 27.9106 29.75 28.0625C29.7084 28.0209 29.6666 27.9791 29.625 27.9375C29.4916 28.0239 29.3458 28.0864 29.1875 28.125C29.1875 28.25 29.1875 28.375 29.1875 28.5C28.791 28.719 28.416 28.969 28.0625 29.25C28.2291 29.48 28.2083 29.5425 28 29.4375C27.6665 29.6225 27.6456 29.81 27.9375 30C27.5681 30.049 27.2973 30.2365 27.125 30.5625C27.0834 30.5209 27.0416 30.4791 27 30.4375C26.9166 30.6041 26.8334 30.7709 26.75 30.9375C26.7084 30.8541 26.6666 30.7709 26.625 30.6875C26.5688 30.9399 26.4646 31.169 26.3125 31.375C26.3541 31.4166 26.3959 31.4584 26.4375 31.5C26.2709 31.5416 26.1041 31.5834 25.9375 31.625C25.8002 31.7212 25.8002 31.8254 25.9375 31.9375C25.1459 31.9375 24.3541 31.9375 23.5625 31.9375C23.9505 31.1536 24.5337 30.5494 25.3125 30.125C25.2709 30.0834 25.2291 30.0416 25.1875 30C25.4599 29.9447 25.5431 29.8197 25.4375 29.625C25.7709 29.4584 26.1041 29.2916 26.4375 29.125C26.61 28.9595 26.6517 28.7929 26.5625 28.625C26.75 28.5209 26.8959 28.375 27 28.1875C27.0518 28.2446 27.1142 28.2864 27.1875 28.3125C27.3836 27.7216 27.7379 27.3466 28.25 27.1875C28.2949 26.807 28.3783 26.7652 28.5 27.0625C28.7315 26.8462 28.7108 26.7005 28.4375 26.625C29.105 26.0775 29.7717 25.5359 30.4375 25C30.1339 24.9436 30.113 24.8394 30.375 24.6875C30.6135 25.0415 30.7176 24.9999 30.6875 24.5625C30.9927 24.6101 31.0761 24.5267 30.9375 24.3125C31.0831 24.177 31.2498 24.0729 31.4375 24C31.3959 23.9584 31.3541 23.9166 31.3125 23.875C31.5253 23.676 31.7335 23.4885 31.9375 23.3125Z" fill="#D00AFB"/>
<path fill-rule="evenodd" clip-rule="evenodd" d="M31.9374 25.6875C31.9374 27.1875 31.9374 28.6875 31.9374 30.1875C31.5624 30.9791 30.979 31.5625 30.1874 31.9375C28.7708 31.9375 27.354 31.9375 25.9374 31.9375C25.8002 31.8254 25.8002 31.7212 25.9374 31.625C26.104 31.5834 26.2708 31.5416 26.4374 31.5C26.3958 31.4584 26.354 31.4166 26.3124 31.375C26.4645 31.169 26.5687 30.9399 26.6249 30.6875C26.6665 30.7709 26.7083 30.8541 26.7499 30.9375C26.8333 30.7709 26.9165 30.6041 26.9999 30.4375C27.0415 30.4791 27.0833 30.5209 27.1249 30.5625C27.2972 30.2365 27.568 30.049 27.9374 30C27.6455 29.81 27.6664 29.6225 27.9999 29.4375C28.2082 29.5425 28.229 29.48 28.0624 29.25C28.4159 28.969 28.7909 28.719 29.1874 28.5C29.1874 28.375 29.1874 28.25 29.1874 28.125C29.3457 28.0864 29.4915 28.0239 29.6249 27.9375C29.6665 27.9791 29.7083 28.0209 29.7499 28.0625C30.0119 27.9106 29.991 27.8064 29.6874 27.75C29.9025 27.5591 30.1525 27.4341 30.4374 27.375C30.5792 27.248 30.5375 27.1646 30.3124 27.125C30.6237 27.0631 30.8112 26.8756 30.8749 26.5625C31.1049 26.7291 31.1674 26.7083 31.0624 26.5C31.3754 26.2494 31.667 25.9786 31.9374 25.6875Z" fill="#DC06FD"/>
</g>
<defs>
<clipPath id="clip0_27_1211">
<rect width="32" height="32" fill="white"/>
</clipPath>
</defs>
</svg>
