<svg width="32" height="32" viewBox="0 0 32 32" fill="none" xmlns="http://www.w3.org/2000/svg">
<path d="M16.0077 15.9295C15.7641 15.9245 15.5233 15.8763 15.2965 15.7873L3.02987 10.8806C2.66028 10.7329 2.34344 10.4778 2.12025 10.1482C1.89706 9.81866 1.77777 9.42977 1.77777 9.03174C1.77777 8.63372 1.89706 8.24482 2.12025 7.91526C2.34344 7.58569 2.66028 7.33058 3.02987 7.18285L15.2965 2.27619C15.5226 2.18486 15.7638 2.13662 16.0077 2.13397C16.2754 2.12731 16.5416 2.17572 16.7899 2.27619L29.0565 7.18285C29.4261 7.33058 29.743 7.58569 29.9662 7.91526C30.1893 8.24482 30.3086 8.63372 30.3086 9.03174C30.3086 9.42977 30.1893 9.81866 29.9662 10.1482C29.743 10.4778 29.4261 10.7329 29.0565 10.8806L16.7899 15.7873C16.5522 15.8814 16.2988 15.9296 16.0432 15.9295H16.0077Z" fill="#268DF3"/>
<path opacity="0.5" d="M29.7321 15.7873L27.1721 14.7562L17.2166 18.7384C16.4626 19.0355 15.6239 19.0355 14.8699 18.7384L4.91433 14.7562L2.35433 15.7873C2.19398 15.8556 2.05726 15.9695 1.96115 16.1149C1.86505 16.2603 1.81381 16.4308 1.81381 16.6051C1.81381 16.7793 1.86505 16.9498 1.96115 17.0952C2.05726 17.2406 2.19398 17.3545 2.35433 17.4228L15.7232 22.7562C15.9292 22.8356 16.1573 22.8356 16.3632 22.7562L29.7321 17.4228C29.8925 17.3545 30.0292 17.2406 30.1253 17.0952C30.2214 16.9498 30.2726 16.7793 30.2726 16.6051C30.2726 16.4308 30.2214 16.2603 30.1253 16.1149C30.0292 15.9695 29.8925 15.8556 29.7321 15.7873Z" fill="#268DF3"/>
<path d="M29.7321 22.6851L27.1721 21.654L17.2166 25.6362C16.4626 25.9334 15.6239 25.9334 14.8699 25.6362L4.91433 21.6895L2.35433 22.7207C2.19398 22.789 2.05726 22.9029 1.96115 23.0483C1.86505 23.1937 1.81381 23.3641 1.81381 23.5384C1.81381 23.7127 1.86505 23.8832 1.96115 24.0286C2.05726 24.174 2.19398 24.2879 2.35433 24.3562L15.7232 29.6895C15.9292 29.769 16.1573 29.769 16.3632 29.6895L29.7321 24.3562C29.8925 24.2879 30.0292 24.174 30.1253 24.0286C30.2214 23.8832 30.2726 23.7127 30.2726 23.5384C30.2726 23.3641 30.2214 23.1937 30.1253 23.0483C30.0292 22.9029 29.8925 22.789 29.7321 22.7207V22.6851Z" fill="#268DF3"/>
</svg>
