<svg width="32" height="32" viewBox="0 0 32 32" fill="none" xmlns="http://www.w3.org/2000/svg">
<path opacity="0.986" fill-rule="evenodd" clip-rule="evenodd" d="M8.70108 7.16653C11.2348 6.95174 13.6079 7.4671 15.8202 8.7126C16.308 9.02104 16.7634 9.3686 17.1865 9.75529C16.2534 10.9641 15.3065 12.1626 14.346 13.3508C13.1042 12.2146 11.6421 11.5914 9.95951 11.4811C7.52837 11.6832 6.06615 12.9776 5.57299 15.3643C5.46326 18.4664 6.94942 20.1923 10.0314 20.5418C10.9119 20.436 11.7629 20.2202 12.5842 19.8946C12.5842 18.5763 12.5842 17.2579 12.5842 15.9396C14.0943 15.9396 15.6045 15.9396 17.1146 15.9396C17.1266 18.1449 17.1146 20.3502 17.0786 22.5553C14.3009 24.4212 11.2447 25.1523 7.91007 24.7486C3.17605 23.7423 0.635226 20.83 0.287598 16.0115C0.498251 12.0056 2.46379 9.261 6.18423 7.77777C7.01385 7.49478 7.85283 7.29104 8.70108 7.16653Z" fill="#FF5300"/>
<path opacity="0.987" fill-rule="evenodd" clip-rule="evenodd" d="M24.8092 7.23838C27.0625 7.2264 29.3156 7.23838 31.5687 7.27433C29.1821 10.1763 26.8091 13.0886 24.4496 16.0114C26.8398 18.8986 29.2129 21.799 31.5687 24.7125C29.3399 24.7965 27.1106 24.8084 24.8811 24.7485C22.6639 21.8601 20.4466 18.9717 18.2294 16.0833C18.1993 15.9188 18.2473 15.775 18.3732 15.6519C20.5633 12.8754 22.7087 10.0709 24.8092 7.23838Z" fill="#FF5300"/>
</svg>
