<svg width="32" height="32" viewBox="0 0 32 33" fill="none" xmlns="http://www.w3.org/2000/svg">
    <path opacity="0.2" d="M16 16.7L24 32.7L32 16.7L24 0.700012L16 16.7Z" fill="#1E90FF" />
    <path opacity="0.1" d="M0 16.7L8 32.7H24L16 16.7H0Z" fill="#1E90FF" />
    <path opacity="0.9" d="M8 0.700012L0 16.7H8H16L19.9385 8.77081L24 0.700012H8Z" fill="#1E90FF" />
    <path opacity="0.2"
        d="M19.9386 8.77081H12.0616L8.00011 16.7L4.06165 24.6292H12.0616H19.9386L24.0001 16.7L27.9386 8.77081H19.9386Z"
        fill="#1E90FF" />
    <path opacity="0.1" d="M24 16.7H16L12.0615 24.6292L8 32.7H24L32 16.7H24Z" fill="#1E90FF" />
    <path d="M19.9385 8.77081L16 16.7H8L12.0615 8.77081H19.9385Z" fill="#1E90FF" />
</svg>