<svg width="32" height="32" viewBox="0 0 32 32" fill="none" xmlns="http://www.w3.org/2000/svg">
    <path fill-rule="evenodd" clip-rule="evenodd"
        d="M9.42345 15.6546C8.90593 15.7639 8.37076 15.8201 7.82235 15.8201C3.50235 15.8201 0 12.2781 0 7.91172C0 3.54097 3.50235 0 7.82235 0C12.1423 0 15.6458 3.54207 15.6458 7.91062C15.6458 8.27476 15.6204 8.63559 15.573 8.98759H16.427C16.3791 8.6306 16.3552 8.27081 16.3553 7.91062C16.3553 3.54097 19.8577 0 24.1766 0C28.4977 0 32 3.54207 32 7.91062C32 12.2792 28.4977 15.8201 24.1777 15.8201C23.6921 15.8201 23.2177 15.776 22.7564 15.6899V16.3101C23.2252 16.2232 23.7009 16.1796 24.1777 16.1799C28.4977 16.1799 32 19.7219 32 24.0894C32 28.459 28.4977 32 24.1777 32C19.8577 32 16.3542 28.4579 16.3542 24.0894C16.3542 23.5354 16.4116 22.9937 16.5197 22.4717H15.5156C15.6006 22.9385 15.6447 23.4185 15.6447 23.9106C15.6447 28.2792 12.1423 31.8201 7.82235 31.8201C3.50235 31.8201 0 28.2781 0 23.9117C0 19.5421 3.50235 16.0011 7.82235 16.0011C8.37076 16.0011 8.90593 16.0585 9.42234 16.1666V15.6557L9.42345 15.6546Z"
        fill="#0AE448" />
</svg>