<svg width="32" height="32" viewBox="0 0 32 32" fill="none" xmlns="http://www.w3.org/2000/svg">
<g clip-path="url(#clip0_30_33)">
<path fill-rule="evenodd" clip-rule="evenodd" d="M-0.0712891 -0.0715332C10.5954 -0.0715332 21.262 -0.0715332 31.9287 -0.0715332C31.9287 8.78561 31.9287 17.6428 31.9287 26.4999C30.5101 26.0032 29.1769 26.1699 27.9287 26.9999C27.271 27.5859 26.6996 28.2288 26.2144 28.9285C25.5886 28.9102 24.9694 28.9578 24.3573 29.0713C23.374 27.13 22.3264 25.2015 21.2144 23.2856C21.9104 21.484 22.5533 19.6506 23.143 17.7856C23.5451 14.585 23.1641 11.4898 22.0001 8.4999C21.2859 7.16657 20.5716 5.83322 19.8573 4.4999C17.936 2.87561 15.7217 2.23275 13.2144 2.57132C11.4752 2.69182 9.97517 3.33468 8.71443 4.4999C7.91687 5.66614 7.15497 6.85662 6.42871 8.07132C6.14323 8.80835 5.97657 9.57025 5.92871 10.357C5.76293 12.2847 5.73911 14.2371 5.85728 16.2142C5.89705 16.345 5.96848 16.4402 6.07157 16.4999C5.78901 16.9046 5.52711 17.3332 5.28585 17.7856C5.106 19.6183 5.86791 20.8565 7.57157 21.4999C8.52828 24.7109 9.02828 27.9966 9.07157 31.357C8.92871 31.5475 8.78585 31.738 8.643 31.9285C5.73824 31.9285 2.83347 31.9285 -0.0712891 31.9285C-0.0712891 21.2618 -0.0712891 10.5951 -0.0712891 -0.0715332Z" fill="#171717"/>
<path fill-rule="evenodd" clip-rule="evenodd" d="M24.357 29.0715C24.1495 29.1861 23.9115 29.2575 23.6427 29.2858C22.5727 30.0943 21.5727 30.9753 20.6427 31.9286C16.8808 31.9286 13.1189 31.9286 9.35696 31.9286C9.40598 31.6453 9.31074 31.4548 9.07124 31.3572C9.02796 27.9968 8.52796 24.7111 7.57124 21.5001C5.86758 20.8566 5.10567 19.6185 5.28553 17.7858C5.52678 17.3333 5.78868 16.9048 6.07124 16.5001C5.93566 14.4576 5.88804 12.41 5.92838 10.3572C5.97624 9.57042 6.1429 8.80852 6.42838 8.07149C7.15464 6.85679 7.91654 5.6663 8.7141 4.50006C9.97484 3.33484 11.4748 2.69199 13.2141 2.57149C15.7214 2.23292 17.9357 2.87577 19.857 4.50006C20.5712 5.83339 21.2855 7.16673 21.9998 8.50006C23.1638 11.49 23.5448 14.5852 23.1427 17.7858C22.553 19.6508 21.9101 21.4842 21.2141 23.2858C22.3261 25.2016 23.3737 27.1302 24.357 29.0715Z" fill="#A4552D"/>
<path fill-rule="evenodd" clip-rule="evenodd" d="M10.9284 9.07153C12.2451 9.0352 13.5308 9.20187 14.7855 9.57153C15.4198 10.211 15.5389 10.9491 15.1427 11.7858C14.1264 13.4244 12.674 14.0196 10.7855 13.5715C9.73691 12.6413 9.28454 11.4746 9.42837 10.0715C9.8142 9.53557 10.3142 9.20224 10.9284 9.07153Z" fill="#D3A627"/>
<path fill-rule="evenodd" clip-rule="evenodd" d="M10.6427 9.35718C11.789 9.36659 12.9318 9.43802 14.0712 9.57146C14.7619 9.64295 15.0952 10.0239 15.0712 10.7143C14.7298 12.507 13.6345 13.4832 11.7855 13.6429C11.0283 13.562 10.4806 13.181 10.1427 12.5C9.70913 11.7403 9.56628 10.9308 9.71409 10.0715C10.0099 9.79468 10.3194 9.55659 10.6427 9.35718Z" fill="#030200"/>
<path fill-rule="evenodd" clip-rule="evenodd" d="M18.9286 9.07139C22.1973 8.74393 22.983 9.98203 21.2857 12.7857C21.0653 13.054 20.8034 13.2683 20.5 13.4285C18.2477 13.8034 16.9143 12.8748 16.5 10.6428C16.543 10.0041 16.8763 9.59936 17.5 9.42853C17.9931 9.30215 18.4694 9.1831 18.9286 9.07139Z" fill="#D6A728"/>
<path fill-rule="evenodd" clip-rule="evenodd" d="M18.4998 9.35726C19.2157 9.33356 19.93 9.35736 20.6427 9.42869C21.0168 9.45033 21.3503 9.56937 21.6427 9.78583C22.0127 11.3068 21.5364 12.4734 20.2141 13.2858C18.8837 13.5132 17.8598 13.0608 17.1427 11.9287C16.3643 10.3896 16.8166 9.53246 18.4998 9.35726Z" fill="#070501"/>
<path fill-rule="evenodd" clip-rule="evenodd" d="M5.9284 10.3572C5.88805 12.4099 5.93567 14.4576 6.07125 16.5C5.96817 16.4403 5.89674 16.3452 5.85697 16.2143C5.7388 14.2372 5.76261 12.2849 5.9284 10.3572Z" fill="#6C3C24"/>
<path fill-rule="evenodd" clip-rule="evenodd" d="M13.5001 17.7857C14.5488 17.762 15.5964 17.7857 16.6429 17.8572C17.0612 17.9916 17.3945 18.2297 17.6429 18.5715C17.5661 19.0293 17.3041 19.2913 16.8572 19.3572C15.3438 19.1296 13.8438 19.1772 12.3572 19.5C12.3096 19.4286 12.262 19.3572 12.2144 19.2857C12.3883 18.9475 12.5073 18.5903 12.5715 18.2143C12.8637 18.0106 13.1732 17.8677 13.5001 17.7857Z" fill="#F9F4F2"/>
<path fill-rule="evenodd" clip-rule="evenodd" d="M15.3569 21.6428C16.3348 21.4588 17.0491 21.7923 17.4998 22.6428C17.1275 23.0947 16.6514 23.4043 16.0712 23.5714C15.1409 23.887 14.1886 23.9823 13.2141 23.8571C12.8054 23.5401 12.5197 23.1353 12.3569 22.6428C12.7809 22.344 13.2571 22.1297 13.7855 22C14.3301 21.8864 14.8539 21.7673 15.3569 21.6428Z" fill="#FAF6F5"/>
<path fill-rule="evenodd" clip-rule="evenodd" d="M31.9285 26.5001C31.9285 28.3097 31.9285 30.1191 31.9285 31.9287C29.5475 31.9287 27.1666 31.9287 24.7856 31.9287C25.2078 30.8993 25.6839 29.8993 26.2142 28.9287C26.6994 28.229 27.2708 27.5861 27.9285 27.0001C29.1766 26.1701 30.5099 26.0034 31.9285 26.5001Z" fill="black"/>
<path fill-rule="evenodd" clip-rule="evenodd" d="M26.2145 28.9286C25.6842 29.8992 25.2081 30.8992 24.7859 31.9286C23.4049 31.9286 22.0241 31.9286 20.6431 31.9286C21.5731 30.9753 22.5731 30.0943 23.6431 29.2858C23.9119 29.2575 24.1499 29.186 24.3574 29.0715C24.9695 28.9579 25.5886 28.9103 26.2145 28.9286Z" fill="#F8C72E"/>
<path fill-rule="evenodd" clip-rule="evenodd" d="M9.07164 31.3572C9.31114 31.4547 9.40638 31.6453 9.35735 31.9286C9.11925 31.9286 8.88117 31.9286 8.64307 31.9286C8.78592 31.7382 8.92878 31.5476 9.07164 31.3572Z" fill="#E1B02B"/>
</g>
<defs>
<clipPath id="clip0_30_33">
<rect width="32" height="32" fill="white"/>
</clipPath>
</defs>
</svg>
