<svg width="32" height="32" viewBox="0 0 32 32" fill="none" xmlns="http://www.w3.org/2000/svg">
<path fill-rule="evenodd" clip-rule="evenodd" d="M2.199 10.6913C-0.733001 13.6234 -0.733001 18.3766 2.199 21.3087L10.6917 29.8014C13.6237 32.7329 18.3767 32.7329 21.3082 29.8014L29.8014 21.3087C32.7329 18.3772 32.7329 13.624 29.8014 10.6919L21.3082 2.19861C18.3767 -0.73287 13.6237 -0.73287 10.6917 2.19861L2.199 10.6913ZM19.7156 19.7161C20.2037 19.2282 20.5908 18.6489 20.855 18.0113C21.1191 17.3737 21.2551 16.6902 21.2551 16C21.2551 15.3098 21.1191 14.6263 20.855 13.9887C20.5908 13.3511 20.2037 12.7718 19.7156 12.2839C18.7301 11.2981 17.3936 10.7443 15.9999 10.7443C14.6063 10.7443 13.2697 11.2981 12.2842 12.2839C11.7962 12.7718 11.409 13.3511 11.1449 13.9887C10.8807 14.6263 10.7447 15.3098 10.7447 16C10.7447 16.6902 10.8807 17.3737 11.1449 18.0113C11.409 18.6489 11.7962 19.2282 12.2842 19.7161C13.2699 20.7016 14.6064 21.2552 15.9999 21.2552C17.3935 21.2552 18.73 20.7016 19.7156 19.7161Z" fill="#2962FF"/>
</svg>
