<svg width="32" height="32" viewBox="0 0 32 32" fill="none" xmlns="http://www.w3.org/2000/svg">
<g clip-path="url(#clip0_31_3891)">
<path fill-rule="evenodd" clip-rule="evenodd" d="M14.7198 0.49778C22.0164 0.3865 27.2075 3.6102 30.2932 10.1689C32.7429 17.6021 30.9178 23.7413 24.8176 28.5867C18.9343 32.2732 13.0557 32.2732 7.18205 28.5867C2.38053 24.9308 0.223491 20.0715 0.710942 14.0089C1.78707 7.56823 5.41373 3.27785 11.5909 1.13778C12.6501 0.906666 13.6931 0.693333 14.7198 0.49778Z" fill="#DE340C"/>
<path fill-rule="evenodd" clip-rule="evenodd" d="M24.2493 6.32892C23.684 6.98617 22.9729 7.19951 22.116 6.96892C18.7037 4.93035 15.1481 4.64591 11.4493 6.11559C6.06936 9.17393 4.19676 13.7013 5.83156 19.6978C8.05973 24.8127 11.9708 27.1594 17.5649 26.7378C22.2739 25.8883 25.2843 23.1625 26.596 18.56C26.8789 17.3405 26.9737 16.1078 26.8805 14.8623C26.6351 13.3919 26.2322 11.9697 25.6716 10.5956C25.7117 10.1361 25.9013 9.75682 26.2405 9.45781C26.6816 8.96471 27.2268 8.68027 27.876 8.60448C28.4361 8.59448 28.8627 8.83151 29.156 9.31559C31.3444 13.8832 31.297 18.4343 29.0138 22.9689C25.3728 28.8777 20.0868 31.3666 13.156 30.4356C5.75111 28.4267 1.8163 23.5911 1.35156 15.9289C1.63407 9.62657 4.62074 5.12286 10.3116 2.41781C15.248 0.583802 19.9413 1.05788 24.3916 3.84003C25.1806 4.72165 25.1333 5.55128 24.2493 6.32892Z" fill="#FEFCFB"/>
<path fill-rule="evenodd" clip-rule="evenodd" d="M24.249 6.32887C24.2648 6.41668 24.3122 6.48779 24.3913 6.5422C24.261 6.5818 24.1663 6.65291 24.1068 6.75554C23.7123 7.12685 23.7596 7.45871 24.249 7.75109C24.3794 7.66189 24.5217 7.61448 24.6757 7.60887C24.4048 8.21319 24.5945 8.54504 25.2446 8.60443C25.1143 9.37615 25.3988 9.6132 26.0979 9.31554C26.1928 9.31554 26.2401 9.36294 26.2401 9.45776C25.9009 9.75677 25.7114 10.136 25.6713 10.5955C26.2319 11.9696 26.6348 13.3918 26.8801 14.8622C26.9734 16.1078 26.8786 17.3404 26.5957 18.56C25.284 23.1624 22.2736 25.8883 17.5646 26.7378C11.9705 27.1593 8.05942 24.8126 5.83125 19.6978C4.19645 13.7013 6.06905 9.17388 11.449 6.11554C15.1478 4.64586 18.7034 4.9303 22.1157 6.96887C22.9726 7.19946 23.6837 6.98612 24.249 6.32887Z" fill="#DE3203"/>
<path fill-rule="evenodd" clip-rule="evenodd" d="M24.9595 5.90223C25.6462 5.8859 25.8358 6.19405 25.5284 6.82667C24.8273 6.8874 24.6377 6.57926 24.9595 5.90223Z" fill="#FDECE8"/>
<path fill-rule="evenodd" clip-rule="evenodd" d="M24.1069 6.75562C24.6144 6.79249 24.804 7.07694 24.6758 7.60895C24.5218 7.61455 24.3796 7.66197 24.2492 7.75117C23.7598 7.45879 23.7124 7.12693 24.1069 6.75562Z" fill="#FEF3F1"/>
<path fill-rule="evenodd" clip-rule="evenodd" d="M25.8135 6.75562C26.3374 6.87963 26.4796 7.18777 26.2401 7.68006C25.479 7.70501 25.3367 7.39685 25.8135 6.75562Z" fill="#FEF3F1"/>
<path fill-rule="evenodd" clip-rule="evenodd" d="M26.3826 7.75107C27.0452 7.68204 27.2348 7.94279 26.9515 8.5333C26.2728 8.64855 26.0832 8.38782 26.3826 7.75107Z" fill="#FEFCFB"/>
<path fill-rule="evenodd" clip-rule="evenodd" d="M24.6752 7.60886C25.3021 7.54656 25.5392 7.83101 25.3863 8.46219C26.0132 8.3999 26.2503 8.68434 26.0974 9.31552C25.3982 9.61318 25.1138 9.37614 25.2441 8.60441C24.594 8.54502 24.4042 8.21317 24.6752 7.60886Z" fill="#FDEFEC"/>
<path fill-rule="evenodd" clip-rule="evenodd" d="M10.5952 21.4044C10.5491 17.459 10.5965 13.5243 10.7374 9.59997C11.5381 9.4548 12.344 9.43111 13.1552 9.52886C13.7625 9.70953 14.1181 10.1125 14.2219 10.7377C14.293 12.0169 14.3166 13.2969 14.293 14.5777C15.6203 14.5777 16.9478 14.5777 18.2752 14.5777C18.2752 12.9185 18.2752 11.2592 18.2752 9.59997C19.1245 9.46146 19.9779 9.43775 20.8352 9.52886C21.2186 9.62696 21.5268 9.84029 21.7596 10.1689C21.9233 12.242 21.9944 14.328 21.973 16.4266C21.9717 18.4729 21.877 20.4878 21.6885 22.4711C20.8352 22.5659 19.9819 22.5659 19.1285 22.4711C18.8745 22.3594 18.6612 22.1936 18.4885 21.9733C18.2822 20.5185 18.211 19.0489 18.2752 17.5644C16.9478 17.5644 15.6203 17.5644 14.293 17.5644C14.3402 19.1791 14.2928 20.7909 14.1507 22.4C13.2573 22.5601 12.3566 22.5839 11.4485 22.4711C10.9711 22.256 10.6867 21.9005 10.5952 21.4044Z" fill="#FEFCFB"/>
<path fill-rule="evenodd" clip-rule="evenodd" d="M10.7376 9.59998C10.5966 13.5243 10.5492 17.459 10.5953 21.4044C10.5005 19.4612 10.4531 17.4939 10.4531 15.5022C10.4532 13.485 10.548 11.5176 10.7376 9.59998Z" fill="#F1B4A8"/>
</g>
<defs>
<clipPath id="clip0_31_3891">
<rect width="32" height="32" fill="white"/>
</clipPath>
</defs>
</svg>
