<svg width="32" height="32" viewBox="0 0 32 32" fill="none" xmlns="http://www.w3.org/2000/svg">
<mask id="mask0_34_8252" style="mask-type:luminance" maskUnits="userSpaceOnUse" x="4" y="0" width="24" height="32">
<path d="M27.4965 0.592651H4.50391V31.4075H27.4965V0.592651Z" fill="white"/>
</mask>
<g mask="url(#mask0_34_8252)">
<path fill-rule="evenodd" clip-rule="evenodd" d="M4.44434 0.533447C8.23693 0.533447 12.0295 0.533447 15.8221 0.533447C12.0372 2.38631 8.24464 4.24309 4.44434 6.10382C4.44434 4.24702 4.44434 2.39024 4.44434 0.533447Z" fill="#010101"/>
<path fill-rule="evenodd" clip-rule="evenodd" d="M16.0596 0.533447C19.8522 0.533447 23.6448 0.533447 27.4373 0.533447C27.4373 2.39024 27.4373 4.24702 27.4373 6.10382C23.6371 4.24309 19.8445 2.38631 16.0596 0.533447Z" fill="#010101"/>
<path fill-rule="evenodd" clip-rule="evenodd" d="M15.8221 0.533447C15.9012 0.533447 15.9801 0.533447 16.0592 0.533447C19.844 2.38631 23.6366 4.24309 27.4369 6.10382C27.4369 6.49888 27.4369 6.89395 27.4369 7.289C23.6224 5.40155 19.7904 3.54475 15.9406 1.71863C12.4891 3.34561 9.05209 5.00487 5.62952 6.69641C5.49126 11.1206 5.47151 15.5452 5.57026 19.9705C6.40268 21.0809 7.29157 22.1476 8.23693 23.1705C8.63337 21.7051 9.36424 20.4409 10.4295 19.3779C10.4497 19.6404 10.5287 19.8774 10.6666 20.089C11.9608 18.8914 13.4817 18.4173 15.2295 18.6668C14.9946 18.7516 14.797 18.89 14.6369 19.0816C15.6855 19.419 16.4362 20.0905 16.8888 21.0964C16.2515 20.8526 15.5799 20.7143 14.874 20.6816C12.8311 20.8286 11.8039 21.9348 11.7925 24.0001C11.8228 25.1189 12.2968 26.0078 13.2147 26.6668C13.6493 26.9631 14.0838 27.2594 14.5184 27.5557C14.5579 27.5359 14.5975 27.5162 14.6369 27.4964C13.987 25.615 14.0068 23.7384 14.6962 21.8668C14.7398 21.6997 14.8385 21.5812 14.9925 21.5112C15.4271 21.7285 15.8616 21.9458 16.2962 22.1631C17.2955 22.2332 17.9474 21.779 18.2517 20.8001C18.5501 20.0979 18.5895 19.3868 18.3703 18.6668C18.0642 18.094 17.7285 17.5409 17.3629 17.0075C17.4835 16.8473 17.6415 16.7288 17.8369 16.652C16.6578 16.0998 15.433 15.9616 14.1629 16.2372C14.0293 16.4449 13.9108 16.6623 13.8073 16.889C14.0922 16.9897 14.3687 17.1083 14.6369 17.2446C13.9364 17.4161 13.3834 17.7913 12.9777 18.3705C12.5005 18.5289 12.145 18.3906 11.911 17.9557C12.0166 17.8265 12.1351 17.8265 12.2666 17.9557C12.5629 17.4644 12.7603 16.9311 12.8592 16.3557C12.8197 16.2964 12.7801 16.2372 12.7406 16.1779C12.0173 16.307 11.3457 16.5638 10.7258 16.9483C10.6978 17.2225 10.6978 17.4792 10.7258 17.7186C10.4534 17.5841 10.1966 17.4261 9.95545 17.2446C9.60506 16.5467 9.32852 15.8356 9.12582 15.1112C9.21453 14.8941 9.33305 14.6965 9.48137 14.5186C9.51783 14.6144 9.57709 14.6934 9.65915 14.7557C10.2838 14.5142 10.6986 14.0796 10.9036 13.452C11.4962 12.9384 12.0888 12.4248 12.6814 11.9112C12.9561 11.5593 13.1339 11.1643 13.2147 10.726C13.3307 11.0964 13.3703 11.4914 13.3332 11.9112C14.3623 11.5147 15.3501 11.0604 16.2962 10.5483C15.8361 11.044 15.3422 11.4983 14.8147 11.9112C14.5956 12.5459 14.1808 13.02 13.5703 13.3334C13.4544 13.2769 13.3556 13.198 13.274 13.0964C13.1905 13.3071 13.1313 13.5245 13.0962 13.7483C13.3054 14.356 13.5029 14.9684 13.6888 15.5853C14.5433 15.3919 15.4125 15.2932 16.2962 15.289C16.0477 15.0982 15.7712 14.9599 15.4666 14.8742C16.2651 14.3642 17.1342 14.0284 18.074 13.8668C20.3071 13.5014 22.4008 13.8767 24.3554 14.9927C24.5505 14.8411 24.6888 14.6437 24.7703 14.4001C24.9151 13.913 25.0929 13.4389 25.3036 12.9779C24.5373 12.6481 23.7472 12.3912 22.9332 12.2075C23.3973 12.0769 23.8714 11.9979 24.3554 11.9705C23.7946 11.6782 23.202 11.4807 22.5777 11.3779C21.7117 11.2652 20.8426 11.1862 19.9703 11.1409C20.4862 10.8734 21.0393 10.7154 21.6295 10.6668C21.2402 10.5692 20.8452 10.5099 20.4443 10.489C19.5105 10.6008 18.6018 10.7785 17.7184 11.0223C18.3745 10.4886 18.9869 9.91571 19.5554 9.30382C19.637 9.20525 19.6172 9.12623 19.4962 9.06678C18.6949 9.75419 17.806 10.3073 16.8295 10.726C16.7703 10.7063 16.711 10.6865 16.6517 10.6668C16.8721 10.3185 16.9708 9.94325 16.948 9.54086C16.8791 9.88304 16.6815 10.0806 16.3554 10.1334C15.2731 9.85057 14.1867 9.83081 13.0962 10.0742C13.4438 10.2248 13.7598 10.4223 14.0443 10.6668C13.4756 10.5866 12.9226 10.6064 12.3851 10.726C11.8201 10.7291 11.267 10.8081 10.7258 10.9631C10.481 10.3471 10.2835 9.71502 10.1332 9.06678C10.1824 8.65195 10.3009 8.2569 10.4888 7.8816C10.5678 8.03962 10.6468 8.19765 10.7258 8.35567C11.3458 8.19085 11.6816 7.79578 11.7332 7.17048C12.4049 6.61739 13.0764 6.06432 13.748 5.51123C13.9377 5.17531 14.0759 4.81975 14.1629 4.44456C14.282 4.88254 14.3018 5.3171 14.2221 5.74826C15.2522 5.33262 16.1608 4.74003 16.948 3.97048C17.0252 4.5386 16.9659 5.09168 16.7703 5.62974C17.443 5.61006 18.1146 5.62981 18.7851 5.689C19.3336 5.7346 19.4521 5.95189 19.1406 6.34085C20.1792 6.43022 21.1274 6.76602 21.9851 7.34826C21.8056 7.51881 21.7662 7.69659 21.8666 7.8816C22.7046 8.19187 23.4354 8.66594 24.0592 9.30382C24.0785 9.52743 23.9796 9.7052 23.7629 9.83715C24.4287 10.5557 24.962 11.3655 25.3629 12.2668C25.5438 11.5658 25.5834 10.8546 25.4814 10.1334C24.5514 9.1245 23.544 8.19611 22.4592 7.34826C24.284 7.65973 25.9432 8.35108 27.4369 9.42234C27.4369 13.0569 27.4369 16.6914 27.4369 20.326C25.5419 22.7162 23.4877 24.9877 21.274 27.1409C19.5476 28.5722 17.8094 29.9746 16.0592 31.3483C15.9801 31.3483 15.9012 31.3483 15.8221 31.3483C12.958 29.1894 10.2518 26.8191 7.7036 24.2372C6.61499 22.925 5.52857 21.6213 4.44434 20.326C4.44434 15.5853 4.44434 10.8446 4.44434 6.10382C8.24464 4.24309 12.0372 2.38631 15.8221 0.533447Z" fill="#FBFBFB"/>
<path fill-rule="evenodd" clip-rule="evenodd" d="M27.4371 7.289C27.4371 8.00011 27.4371 8.71122 27.4371 9.42233C25.9435 8.35108 24.2842 7.65972 22.4594 7.34826C23.5442 8.1961 24.5516 9.12449 25.4816 10.1334C25.5836 10.8546 25.544 11.5658 25.3631 12.2668C24.9622 11.3655 24.4289 10.5557 23.7631 9.83715C23.9798 9.7052 24.0787 9.52742 24.0594 9.30381C23.4356 8.66593 22.7048 8.19186 21.8668 7.88159C21.7664 7.69658 21.8059 7.51881 21.9853 7.34826C21.1276 6.76601 20.1794 6.43021 19.1408 6.34085C19.4523 5.95188 19.3338 5.73459 18.7853 5.689C18.1148 5.62981 17.4432 5.61005 16.7705 5.62974C16.9662 5.09168 17.0254 4.5386 16.9483 3.97048C16.1611 4.74002 15.2525 5.33261 14.2223 5.74826C14.302 5.3171 14.2822 4.88254 14.1631 4.44455C14.0762 4.81975 13.9379 5.1753 13.7483 5.51122C13.0767 6.06431 12.4051 6.61739 11.7335 7.17048C11.6818 7.79577 11.346 8.19084 10.7261 8.35566C10.6471 8.19764 10.568 8.03961 10.489 7.88159C10.3012 8.25689 10.1827 8.65195 10.1335 9.06678C10.2837 9.71501 10.4813 10.3471 10.7261 10.9631C11.2672 10.8081 11.8203 10.7291 12.3853 10.726C12.6619 10.726 12.9384 10.726 13.2149 10.726C13.1341 11.1643 12.9563 11.5593 12.6816 11.9112C12.089 12.4248 11.4964 12.9384 10.9038 13.452C10.6988 14.0796 10.284 14.5142 9.6594 14.7557C9.57734 14.6934 9.51808 14.6144 9.48162 14.5186C9.3333 14.6965 9.21478 14.8941 9.12607 15.1112C9.32877 15.8356 9.60531 16.5467 9.9557 17.2446C10.1968 17.4261 10.4536 17.5841 10.7261 17.7186C10.6981 17.4792 10.6981 17.2225 10.7261 16.9483C11.3459 16.5638 12.0175 16.307 12.7408 16.1779C12.7804 16.2371 12.8199 16.2964 12.8594 16.3557C12.7605 16.9311 12.5631 17.4644 12.2668 17.9557C12.1355 17.8265 12.0169 17.8265 11.9112 17.9557C12.1452 18.3906 12.5007 18.5289 12.9779 18.3705C13.3836 17.7913 13.9367 17.416 14.6371 17.2446C14.3689 17.1083 14.0924 16.9897 13.8075 16.889C13.911 16.6623 14.0295 16.4449 14.1631 16.2371C15.4334 15.9616 16.658 16.0998 17.8371 16.652C17.6417 16.7288 17.4837 16.8473 17.3631 17.0075C17.7287 17.5408 18.0645 18.094 18.3705 18.6668C18.5897 19.3868 18.5503 20.0979 18.252 20.8001C17.9476 21.779 17.2958 22.2332 16.2964 22.1631C15.8619 21.9458 15.4273 21.7285 14.9927 21.5112C14.8387 21.5811 14.74 21.6997 14.6964 21.8668C14.007 23.7384 13.9873 25.615 14.6371 27.4964C14.5977 27.5162 14.5582 27.5359 14.5186 27.5557C14.0841 27.2594 13.6495 26.9631 13.2149 26.6668C12.2971 26.0078 11.823 25.1189 11.7927 24.0001C11.8042 21.9348 12.8314 20.8286 14.8742 20.6816C15.5801 20.7143 16.2517 20.8526 16.889 21.0964C16.4364 20.0905 15.6857 19.419 14.6371 19.0816C14.7974 18.8899 14.9948 18.7516 15.2297 18.6668C13.4819 18.4173 11.961 18.8914 10.6668 20.089C10.529 19.8774 10.45 19.6404 10.4298 19.3779C9.36449 20.4409 8.63362 21.7051 8.23718 23.1705C7.29182 22.1475 6.40293 21.0809 5.57051 19.9705C5.47175 15.5452 5.49151 11.1206 5.62977 6.69641C9.05234 5.00486 12.4894 3.3456 15.9408 1.71863C19.7906 3.54475 23.6226 5.40154 27.4371 7.289Z" fill="#020202"/>
<path fill-rule="evenodd" clip-rule="evenodd" d="M13.4517 6.93347C13.5661 7.07819 13.5463 7.23622 13.3924 7.40755C13.1613 7.63127 12.9045 7.76955 12.6221 7.82236C12.8974 7.52628 13.174 7.22998 13.4517 6.93347Z" fill="#1B1B1B"/>
<path fill-rule="evenodd" clip-rule="evenodd" d="M13.2144 10.726C12.9379 10.726 12.6613 10.726 12.3848 10.726C12.9222 10.6064 13.4753 10.5866 14.044 10.6668C13.7595 10.4223 13.4435 10.2248 13.0959 10.0742C14.1864 9.8308 15.2728 9.85056 16.3551 10.1334C16.6812 10.0806 16.8788 9.88303 16.9477 9.54085C16.9705 9.94324 16.8718 10.3185 16.6514 10.6668C16.7107 10.6865 16.77 10.7063 16.8292 10.726C17.8057 10.3073 18.6946 9.75418 19.4959 9.06677C19.6169 9.12622 19.6367 9.20524 19.5551 9.30381C18.9866 9.9157 18.3742 10.4885 17.7181 11.0223C18.6015 10.7785 19.5102 10.6007 20.444 10.489C20.8449 10.5099 21.2399 10.5692 21.6292 10.6668C21.039 10.7154 20.4859 10.8734 19.97 11.1408C20.8422 11.1862 21.7113 11.2652 22.5774 11.3779C23.2017 11.4807 23.7943 11.6782 24.3551 11.9705C23.8711 11.9979 23.397 12.0769 22.9329 12.2075C23.7469 12.3912 24.5369 12.648 25.3033 12.9779C25.0926 13.4389 24.9148 13.913 24.77 14.4001C24.6885 14.6437 24.5502 14.8411 24.3551 14.9927C22.4005 13.8767 20.3068 13.5014 18.0737 13.8668C17.1339 14.0284 16.2648 14.3642 15.4662 14.8742C15.7708 14.9599 16.0473 15.0982 16.2959 15.289C15.4122 15.2931 14.543 15.3919 13.6885 15.5853C13.5026 14.9684 13.3051 14.356 13.0959 13.7483C13.131 13.5245 13.1902 13.3071 13.2737 13.0964C13.3553 13.198 13.454 13.2769 13.57 13.3334C14.1804 13.02 14.5953 12.5459 14.8144 11.9112C15.3419 11.4983 15.8358 11.044 16.2959 10.5483C15.3497 11.0603 14.362 11.5147 13.3329 11.9112C13.37 11.4914 13.3304 11.0964 13.2144 10.726Z" fill="#040404"/>
<path fill-rule="evenodd" clip-rule="evenodd" d="M16.4144 11.7927C16.4468 12.2439 16.2098 12.5599 15.7033 12.7409C15.5741 12.6353 15.5741 12.5168 15.7033 12.3853C15.9488 12.1856 16.1858 11.988 16.4144 11.7927Z" fill="#E4E4E4"/>
<path fill-rule="evenodd" clip-rule="evenodd" d="M12.2661 13.4519C12.4028 13.5483 12.4028 13.6668 12.2661 13.8075C12.1081 13.926 11.95 14.0445 11.7921 14.163C11.671 14.1035 11.6513 14.0246 11.7328 13.926C11.9304 13.7798 12.1081 13.6217 12.2661 13.4519Z" fill="#202020"/>
<path fill-rule="evenodd" clip-rule="evenodd" d="M4.44434 20.326C5.52857 21.6213 6.61499 22.925 7.7036 24.2372C10.2518 26.8191 12.958 29.1895 15.8221 31.3483C12.0295 31.3483 8.23693 31.3483 4.44434 31.3483C4.44434 27.6742 4.44434 24.0001 4.44434 20.326Z" fill="black"/>
<path fill-rule="evenodd" clip-rule="evenodd" d="M27.4373 20.326C27.4373 24.0001 27.4373 27.6742 27.4373 31.3483C23.6448 31.3483 19.8522 31.3483 16.0596 31.3483C17.8099 29.9746 19.548 28.5722 21.2744 27.1409C23.4881 24.9877 25.5424 22.7162 27.4373 20.326Z" fill="black"/>
</g>
</svg>
