<svg width="32" height="32" viewBox="0 0 32 32" fill="none" xmlns="http://www.w3.org/2000/svg">
<path d="M30.6956 12.6579L26.3656 5.546C25.025 3.34389 22.6333 2 20.0553 2H11.7178C9.13977 2 6.74811 3.34389 5.40742 5.546L1.0775 12.6579C-0.359167 15.0177 -0.359167 17.9821 1.0775 20.3421L5.40742 27.454C6.74811 29.6561 9.13977 31 11.7178 31H20.0553C22.6333 31 25.025 29.6561 26.3656 27.454L30.6956 20.3421C32.1322 17.9823 32.1322 15.0179 30.6956 12.6579Z" fill="#00C6FF"/>
<path d="M24.4938 23.0508L19.7 18.7117L19.792 18.5781C20.3796 17.7235 20.7912 16.752 20.9339 15.7247C21.5227 11.4893 18.0413 7.8788 13.8428 8.24717C10.6576 8.52655 8.10509 11.1289 7.88207 14.3185C7.61386 18.1508 10.6562 21.3549 14.4326 21.3549C15.434 21.3549 16.3965 21.1339 17.2932 20.698L17.4732 20.6104L22.5405 25.1978C22.8268 25.4584 23.1984 25.5899 23.5876 25.5741C23.9741 25.5556 24.331 25.3874 24.5918 25.1002C25.129 24.508 25.0854 23.5889 24.4938 23.0508ZM14.8603 18.9459C12.2207 19.2097 10.0109 17.0003 10.2743 14.3607C10.4695 12.4067 12.0495 10.826 14.0035 10.6303C16.6435 10.3659 18.8539 12.5759 18.5899 15.2161C18.3945 17.1701 16.8143 18.7506 14.8603 18.9459Z" fill="white"/>
</svg>
