<svg width="32" height="32" viewBox="0 0 32 32" fill="none" xmlns="http://www.w3.org/2000/svg">
<path opacity="0.998" fill-rule="evenodd" clip-rule="evenodd" d="M13.9389 0.0366926C21.5998 -0.381813 27.1862 2.7797 30.6981 9.52123C33.0392 15.4763 32.223 21.0855 28.2493 26.3486C23.3665 31.6272 17.5505 33.2081 10.8014 31.0909C10.086 30.9164 9.37172 30.6104 8.65862 30.173C5.12502 28.3728 2.65069 25.5938 1.2356 21.8358C0.864698 20.821 0.507582 19.852 0.16424 18.9293C-0.70063 11.9128 1.85023 6.35471 7.81684 2.25485C9.73928 1.13046 11.78 0.391078 13.9389 0.0366926ZM8.27599 8.60337C8.41461 8.37927 8.61868 8.2263 8.8882 8.14444C10.6071 8.07113 12.3417 8.14762 14.092 8.37391C14.5156 8.64345 14.7452 9.02589 14.7807 9.52123C14.9139 11.1098 14.8627 12.6906 14.6277 14.2635C14.3771 14.6169 14.0454 14.8463 13.6328 14.9519C12.1023 15.0539 10.5718 15.0539 9.04125 14.9519C8.56944 14.8317 8.23782 14.5512 8.04642 14.1105C8.0153 12.601 7.93877 11.0967 7.81684 9.59772C7.8993 9.21806 8.05235 8.88662 8.27599 8.60337ZM17.9183 8.14444C19.6084 8.15145 21.2664 8.15145 22.8925 8.14444C23.1917 8.29027 23.4468 8.49424 23.6577 8.75635C23.906 10.4752 23.9569 12.2089 23.8108 13.9575C23.6923 14.3307 23.4627 14.6112 23.122 14.7989C21.5542 14.8263 19.9982 14.9028 18.4539 15.0284C17.9737 14.8902 17.5655 14.6352 17.2295 14.2635C16.9851 12.5919 16.934 10.9092 17.0765 9.21528C17.22 8.74143 17.5007 8.38448 17.9183 8.14444ZM20.3671 17.17C21.1709 17.2901 21.9872 17.3666 22.8159 17.3995C23.3812 17.5565 23.7382 17.9135 23.8873 18.4703C23.9049 19.9943 23.8793 21.5496 23.8108 23.1361C23.6833 23.6715 23.3516 24.003 22.8159 24.1305C21.2344 24.2325 19.6528 24.2325 18.0713 24.1305C17.7462 23.9588 17.4657 23.7294 17.2295 23.4421C16.9851 21.7705 16.934 20.0878 17.0765 18.3939C17.1979 17.9296 17.4784 17.5982 17.9183 17.3995C18.7625 17.373 19.5787 17.2966 20.3671 17.17ZM8.8882 17.323C10.5216 17.2975 12.1541 17.323 13.7859 17.3995C14.2241 17.6082 14.5302 17.9395 14.7042 18.3939C14.7204 19.9479 14.6948 21.5286 14.6277 23.1361C14.4559 23.461 14.2263 23.7415 13.9389 23.9775C12.3666 24.2171 10.785 24.268 9.19431 24.1305C8.72783 24.0378 8.3452 23.8083 8.04642 23.4421C7.80228 21.8216 7.75127 20.1898 7.89336 18.5468C7.98262 17.9239 8.31424 17.5159 8.8882 17.323Z" fill="#9EBA1A"/>
<path opacity="0.412" fill-rule="evenodd" clip-rule="evenodd" d="M9.19437 9.52124C10.5718 9.52124 11.9493 9.52124 13.3268 9.52124C13.3987 10.9238 13.3222 12.3006 13.0972 13.6516C11.8376 13.6317 10.5366 13.5807 9.19437 13.4986C9.17349 12.1472 9.17349 10.8214 9.19437 9.52124Z" fill="#97B11D"/>
<path opacity="0.41" fill-rule="evenodd" clip-rule="evenodd" d="M22.3563 13.4985C22.3563 12.2238 22.3563 10.9489 22.3563 9.67414C21.0809 9.67414 19.8054 9.67414 18.53 9.67414C18.53 10.8979 18.53 12.1218 18.53 13.3456C19.7826 13.2957 21.007 13.3467 22.2033 13.4985C20.9279 13.4985 19.6523 13.4985 18.377 13.4985C18.377 12.1727 18.377 10.847 18.377 9.52116C19.7582 9.47045 21.1357 9.52144 22.5094 9.67414C22.4898 10.897 22.5407 12.0953 22.6624 13.2691C22.5791 13.3788 22.4771 13.4553 22.3563 13.4985Z" fill="#95AD1E"/>
<path opacity="0.998" fill-rule="evenodd" clip-rule="evenodd" d="M9.34668 9.67407C10.6221 9.67407 11.8976 9.67407 13.173 9.67407C13.173 10.8979 13.173 12.1217 13.173 13.3455C11.8976 13.3455 10.6221 13.3455 9.34668 13.3455C9.34668 12.1217 9.34668 10.8979 9.34668 9.67407Z" fill="#9EBB19"/>
<path opacity="0.997" fill-rule="evenodd" clip-rule="evenodd" d="M22.3566 13.4985C22.3056 13.4985 22.2545 13.4985 22.2035 13.4985C21.0073 13.3467 19.7829 13.2957 18.5303 13.3455C18.5303 12.1217 18.5303 10.8979 18.5303 9.67407C19.8057 9.67407 21.0812 9.67407 22.3566 9.67407C22.3566 10.9489 22.3566 12.2237 22.3566 13.4985Z" fill="#9FBB19"/>
<path opacity="0.994" fill-rule="evenodd" clip-rule="evenodd" d="M9.19442 18.6997C10.5719 18.6997 11.9494 18.6997 13.3268 18.6997C13.3268 20.0256 13.3268 21.3512 13.3268 22.6771C12.1558 22.6951 11.0079 22.7462 9.88316 22.8301C9.65213 22.7398 9.42255 22.6379 9.19442 22.5241C9.17087 21.2532 9.17087 19.9783 9.19442 18.6997Z" fill="#9EBA1A"/>
<path opacity="0.989" fill-rule="evenodd" clip-rule="evenodd" d="M18.3781 18.6997C19.7594 18.6489 21.1369 18.7 22.5105 18.8526C22.4909 20.0755 22.5419 21.2738 22.6636 22.4476C22.5615 22.5496 22.4595 22.6515 22.3574 22.7535C21.0821 22.8556 19.8065 22.8556 18.5311 22.7535C18.3805 21.4151 18.3296 20.0639 18.3781 18.6997Z" fill="#9DB81B"/>
</svg>
