<svg width="32" height="32" viewBox="0 0 32 32" fill="none" xmlns="http://www.w3.org/2000/svg">
<path d="M0.955078 5.73145H7.59388V25.3613H0.955078V5.73145Z" fill="#FC4349"/>
<path d="M9.64746 5.73145H14.8057L19.9161 13.2777L25.0266 5.73145H30.2325V25.3613H23.9281V18.2926L19.9161 24.1673L15.9042 18.2926V25.3613H9.64746V5.73145Z" fill="#FC4349"/>
<path d="M0.955078 5.73145H7.59388V25.3613H0.955078V5.73145ZM4.68045 23.021V8.07174H3.91627V23.021H4.68045Z" fill="#2C3E50"/>
<path d="M9.64746 5.73145H14.8057L19.9161 13.2777L25.0266 5.73145H30.2325V25.3613H23.9281V18.2926L19.9161 24.1673L15.9042 18.2926V25.3613H9.64746V5.73145ZM13.3251 23.021V9.50458L19.9161 19.1046L26.5072 9.50458V23.021H27.2713V8.07174H26.5072L19.9161 17.7673L13.3251 8.07174H12.5609V23.021H13.3251Z" fill="#2C3E50"/>
</svg>
