<svg width="32" height="32" viewBox="0 0 32 32" fill="none" xmlns="http://www.w3.org/2000/svg">
<mask id="mask0_17_447" style="mask-type:luminance" maskUnits="userSpaceOnUse" x="0" y="10" width="32" height="12">
<path d="M32 10.6667H0V21.0667H32V10.6667Z" fill="white"/>
</mask>
<g mask="url(#mask0_17_447)">
<path d="M31.9127 13.7685H31.2402L31.4645 11.7007H29.5589L29.3349 13.7685H28.1018C29.3349 14.3159 29.1106 15.8363 29.1106 15.8363L28.5503 20.9451C28.5503 20.9451 28.7183 20.9451 28.7743 20.9451C28.8303 20.9451 28.9426 20.9451 28.9426 20.9451C28.9986 20.9451 29.1106 20.8843 29.1106 20.8843C29.1666 20.8843 29.2789 20.8235 29.2789 20.8235C29.3349 20.8235 29.4469 20.7627 29.4469 20.7627C30.1194 20.4586 30.5677 19.7896 30.6797 18.8773L31.0159 15.7755H31.6885L31.9127 13.7685Z" fill="#DB0029"/>
<path d="M1.98705 18.1473L2.49141 13.7683H0.586032L0.025625 18.9379C-0.142497 20.2151 0.529989 21.0057 1.6508 21.0057H2.49141L2.71557 18.9379H2.54745C2.15517 18.8771 1.93101 18.6338 1.98705 18.1473Z" fill="#DB0029"/>
<path d="M9.44038 15.8364C9.60848 14.5592 8.99206 13.7686 7.8152 13.7686H3.38798L3.16382 15.8364H3.33192C3.78024 15.8364 4.00443 16.0797 3.94838 16.627L3.44401 21.006H5.34939L5.90982 15.8972H6.86251C7.31083 15.8972 7.53499 16.1405 7.47894 16.6879L7.19875 18.999C7.03062 20.2762 7.64707 21.0668 8.82392 21.0668L9.44038 15.8364Z" fill="#DB0029"/>
<path d="M15.3806 13.7686C13.8114 13.7686 13.6993 15.2282 13.6433 15.5931L13.0269 20.9452H14.9322L15.4366 16.5662C15.4926 16.0189 15.5487 15.8364 15.7729 15.7756C15.7729 15.7756 16.2212 15.7756 16.4453 15.7756C16.4453 15.7756 16.5574 14.62 17.342 13.8902C17.342 13.8902 17.5101 13.7686 17.5661 13.7078L15.3806 13.7686Z" fill="#DB0029"/>
<path d="M19.1913 19.8504H19.0793C18.3507 19.8504 17.8464 19.2422 17.9585 18.4516L18.1826 16.2621C18.2947 15.4715 18.9112 14.8633 19.6397 14.8633H19.7518C20.4803 14.8633 20.9847 15.4715 20.8726 16.2621L20.6484 18.4516C20.5363 19.1814 19.8639 19.8504 19.1913 19.8504Z" fill="#DB0029"/>
<path d="M26.5328 13.7686H22.0496C22.3858 14.0726 22.61 14.4376 22.722 14.8633C22.8341 15.3498 22.7781 15.8364 22.7781 15.8364L22.1617 20.9452H24.067L24.6274 15.8364H25.5801C26.0284 15.8364 26.2526 16.0797 26.1966 16.627L25.9164 18.9382C25.7483 20.2154 26.4207 21.006 27.5417 21.006L28.102 15.8972C28.3262 14.4984 27.7097 13.7686 26.5328 13.7686Z" fill="#DB0029"/>
<path d="M12.4665 13.7685V13.5252C12.5226 12.9779 12.8028 12.7346 13.3071 12.7346H13.7555L13.9796 10.6667H12.8028C11.6259 10.6667 10.8413 11.4574 10.6732 12.7346L10.6172 13.7685H9.38428C10.6172 14.3159 10.393 15.8363 10.393 15.8363L9.83262 21.0059C10.8974 21.0059 11.682 20.3369 11.9061 19.2422L12.2984 15.8363C12.4105 15.8363 12.7467 15.8363 12.9148 15.8363C12.9148 15.8363 13.083 14.2551 13.6434 13.7685H12.4665Z" fill="#DB0029"/>
</g>
</svg>
