<svg width="32" height="32" viewBox="0 0 32 32" fill="none" xmlns="http://www.w3.org/2000/svg">
    <g clip-path="url(#clip0_993_525)">
        <path opacity="0.973" fill-rule="evenodd" clip-rule="evenodd"
            d="M27.4372 31.9409C26.6471 31.9409 25.857 31.9409 25.0668 31.9409C23.5689 31.4117 22.4034 30.4636 21.5705 29.0965C20.2565 26.0285 18.3404 23.4211 15.8224 21.2742C14.547 22.3714 13.4211 23.5961 12.4446 24.9483C11.4365 26.5689 10.4884 28.2282 9.60018 29.9261C8.78899 30.919 7.78158 31.5907 6.57796 31.9409C5.82734 31.9409 5.07672 31.9409 4.3261 31.9409C4.02373 31.8243 3.70769 31.7058 3.37796 31.5853C3.21993 31.5063 3.21993 31.4274 3.37796 31.3483C5.38963 31.9222 7.06863 31.4086 8.41499 29.8076C9.20991 27.9384 10.1186 26.121 11.1409 24.3557C11.7483 23.5506 12.4002 22.7802 13.0965 22.0446C12.9806 21.1491 12.8028 20.2602 12.5631 19.3779C11.7012 19.0672 10.8123 18.8697 9.89647 18.7853C8.91495 19.7103 7.84828 20.5202 6.69647 21.215C5.30292 21.9513 3.8807 22.6229 2.42981 23.2298C0.57542 24.5265 -0.0566785 26.2647 0.533511 28.4446C0.474251 28.5039 0.414992 28.5631 0.355733 28.6224C0.202174 28.2584 0.0639023 27.9029 -0.059082 27.5557C-0.059082 26.8051 -0.059082 26.0544 -0.059082 25.3039C0.291172 24.1002 0.962776 23.0928 1.95573 22.2816C4.26757 21.1463 6.4404 19.8032 8.47425 18.252C9.22868 17.5372 9.93979 16.7866 10.6076 16.0002C8.50532 13.566 5.97692 11.7092 3.0224 10.4298C1.54401 9.60371 0.516855 8.39878 -0.059082 6.81497C-0.059082 6.02484 -0.059082 5.23473 -0.059082 4.4446C0.0557695 4.18824 0.154535 3.9117 0.237214 3.61497C0.322254 3.50231 0.421019 3.48256 0.533511 3.55571C-0.0309646 5.61542 0.522122 7.31419 2.19277 8.65201C3.61134 9.32168 5.03356 9.99329 6.45944 10.6668C7.63333 11.3532 8.69999 12.1829 9.65944 13.1557C10.6658 13.1869 11.6337 13.0091 12.5631 12.6224C12.8331 11.7464 13.0109 10.8575 13.0965 9.95571C11.1981 7.95854 9.79566 5.64743 8.88907 3.02238C7.60805 0.850366 5.73151 0.0207363 3.25944 0.533488C6.06006 -0.527991 8.29217 0.18312 9.95573 2.66682C11.0824 5.08051 12.5046 7.29286 14.2224 9.30386C14.7446 9.79185 15.2779 10.2659 15.8224 10.7261C18.3028 8.65096 20.1793 6.12256 21.452 3.1409C22.9412 0.431001 25.1733 -0.497394 28.1483 0.35571C28.3582 0.419164 28.3977 0.517929 28.2668 0.652007C26.2958 0.104065 24.6563 0.617646 23.3483 2.19275C22.5246 3.95178 21.6555 5.69005 20.7409 7.40756C20.1806 8.29051 19.5089 9.08064 18.7261 9.77793C18.7147 10.7845 18.8529 11.7721 19.1409 12.7409C20.0714 13.0178 21.0196 13.1559 21.9854 13.1557C23.8396 11.3389 26.0124 10.0352 28.5039 9.2446C30.8961 8.03557 31.8442 6.11951 31.3483 3.49645C32.4103 6.4506 31.5806 8.72221 28.8594 10.3113C25.8506 11.6228 23.2828 13.5191 21.1557 16.0002C21.5792 16.6614 22.0927 17.254 22.6965 17.7779C23.3285 18.2915 23.9607 18.8051 24.5928 19.3187C26.2172 20.3285 27.8764 21.2766 29.5705 22.1631C31.7723 23.8658 32.3649 26.0189 31.3483 28.6224C31.8276 26.1638 30.998 24.2873 28.8594 22.9927C26.2255 22.0717 23.8946 20.6693 21.8668 18.7853C20.9826 18.8792 20.1134 19.057 19.2594 19.3187C18.8509 20.2425 18.6731 21.2105 18.7261 22.2224C19.5233 23.0198 20.2344 23.8889 20.8594 24.8298C21.718 26.4188 22.5081 28.0384 23.2298 29.689C24.5582 31.3565 26.257 31.9096 28.3261 31.3483C28.3992 31.4608 28.3796 31.5595 28.2668 31.6446C27.9701 31.7273 27.6936 31.8261 27.4372 31.9409ZM13.215 10.1335C13.7563 10.6145 14.3489 11.0293 14.9928 11.3779C14.4387 11.7737 13.8461 12.1095 13.215 12.3853C13.1773 11.6428 13.1773 10.8922 13.215 10.1335ZM18.3113 10.1335C18.5106 10.8995 18.6094 11.6896 18.6076 12.5039C17.9662 12.1932 17.3538 11.8376 16.7705 11.4372C17.3241 11.0409 17.8378 10.6063 18.3113 10.1335ZM15.8224 11.9113C16.7566 12.3882 17.7245 12.7832 18.7261 13.0965C19.0719 14.0945 19.4472 15.0822 19.852 16.0594C19.4302 16.9822 19.0747 17.9303 18.7854 18.9039C17.7976 19.24 16.8298 19.635 15.8817 20.089C14.9473 19.6319 13.9794 19.2566 12.978 18.9631C12.6648 17.9652 12.2698 16.9974 11.7928 16.0594C12.2344 15.0899 12.6295 14.1023 12.978 13.0965C13.4063 12.94 13.8408 12.8017 14.2817 12.6816C14.8293 12.4802 15.343 12.2233 15.8224 11.9113ZM11.7928 13.215C11.9679 13.1839 12.1259 13.2234 12.2668 13.3335C11.9894 13.9684 11.6536 14.561 11.2594 15.1113C10.8502 14.5043 10.3959 13.9315 9.89647 13.3927C10.5502 13.3722 11.1823 13.313 11.7928 13.215ZM19.378 13.3335C19.4274 13.2595 19.5064 13.2201 19.615 13.215C20.3262 13.2842 21.0373 13.3631 21.7483 13.452C21.2566 13.9621 20.822 14.5151 20.4446 15.1113C20.0562 14.5308 19.7007 13.9382 19.378 13.3335ZM11.2002 16.889C11.623 17.4531 11.9786 18.0655 12.2668 18.7261C11.4795 18.7132 10.6894 18.6737 9.89647 18.6076C10.4328 18.1056 10.8674 17.5328 11.2002 16.889ZM20.3261 17.0076C20.4441 16.9974 20.5429 17.037 20.6224 17.1261C20.9522 17.6536 21.3276 18.1474 21.7483 18.6076C20.9564 18.6812 20.1662 18.7206 19.378 18.7261C19.7172 18.1687 20.0332 17.5958 20.3261 17.0076ZM13.0965 19.615C13.778 19.857 14.4101 20.1927 14.9928 20.6224C14.3761 20.9507 13.823 21.3655 13.3335 21.8668C13.2183 21.1194 13.1393 20.3689 13.0965 19.615ZM18.4298 19.615C18.548 19.6114 18.627 19.6707 18.6668 19.7927C18.572 20.4836 18.4733 21.1749 18.3705 21.8668C17.874 21.4104 17.3406 20.9956 16.7705 20.6224C17.3115 20.2538 17.8646 19.9179 18.4298 19.615Z"
            fill="#464646" />
        <path opacity="0.303" fill-rule="evenodd" clip-rule="evenodd"
            d="M27.674 1.12571C27.3707 1.16145 27.0941 1.12194 26.8444 1.00719C26.8367 0.955253 26.8564 0.915747 26.9037 0.888672C27.1735 0.961824 27.4304 1.04084 27.674 1.12571Z"
            fill="#2F6348" />
        <path opacity="0.997" fill-rule="evenodd" clip-rule="evenodd"
            d="M9.30348 9.18497C9.30348 9.30349 9.30348 9.42201 9.30348 9.54052C9.14546 9.54052 8.98743 9.54052 8.82941 9.54052C7.17524 9.23188 5.51598 8.93558 3.85163 8.65163C1.53476 7.87001 0.566853 6.27001 0.947924 3.85163C1.55245 2.02269 2.81664 1.03503 4.74052 0.888672C6.76769 1.05958 8.03189 2.12624 8.53311 4.08867C8.79027 5.78946 9.04705 7.48822 9.30348 9.18497Z"
            fill="#4CA5D8" />
        <path opacity="0.999" fill-rule="evenodd" clip-rule="evenodd"
            d="M26.8444 1.00732C27.0941 1.12208 27.3707 1.16158 27.674 1.12584C28.1686 1.1456 28.6032 1.30362 28.9777 1.59992C29.1009 1.84064 29.2983 1.99867 29.5703 2.07399C30.3294 2.80647 30.7246 3.7151 30.7555 4.79992C30.7528 5.63713 30.5157 6.38774 30.0444 7.05177C29.8778 7.10784 29.7987 7.22636 29.8074 7.40732C29.3703 7.94145 28.8171 8.31676 28.1481 8.53325C26.1729 8.92166 24.1975 9.29697 22.2222 9.65918C22.4541 7.7536 22.7504 5.8573 23.1111 3.97029C23.6357 2.08328 24.8802 1.09562 26.8444 1.00732Z"
            fill="#50B67F" />
        <path opacity="0.745" fill-rule="evenodd" clip-rule="evenodd"
            d="M28.9775 1.6001C29.2447 1.67402 29.4423 1.83204 29.5701 2.07417C29.2981 1.99885 29.1007 1.84082 28.9775 1.6001Z"
            fill="#2A573E" />
        <path opacity="0.01" fill-rule="evenodd" clip-rule="evenodd"
            d="M30.0443 7.05176C30.053 7.23272 29.9739 7.35124 29.8073 7.40731C29.7986 7.22635 29.8777 7.10783 30.0443 7.05176Z"
            fill="#182920" />
        <path opacity="0.088" fill-rule="evenodd" clip-rule="evenodd"
            d="M9.30366 9.18506C9.41442 9.31159 9.45392 9.46962 9.42218 9.65913C9.19526 9.69285 8.99773 9.65334 8.82959 9.54061C8.98761 9.54061 9.14564 9.54061 9.30366 9.54061C9.30366 9.4221 9.30366 9.30358 9.30366 9.18506Z"
            fill="#14212A" />
        <path opacity="0.989" fill-rule="evenodd" clip-rule="evenodd"
            d="M15.1113 13.689C17.7567 13.6057 18.685 14.8304 17.8965 17.3631C16.8432 18.557 15.6384 18.7347 14.2817 17.8964C13.2251 16.7043 13.1856 15.4796 14.1632 14.2224C14.4712 14.0096 14.7873 13.8319 15.1113 13.689Z"
            fill="#4C4C4C" />
        <path opacity="0.996" fill-rule="evenodd" clip-rule="evenodd"
            d="M9.06664 22.4595C9.25012 22.4975 9.32914 22.616 9.30368 22.815C9.11744 24.1186 8.91991 25.4223 8.71109 26.7261C8.51263 27.0825 8.43361 27.4775 8.47405 27.9113C8.02266 29.8825 6.77822 30.9492 4.74072 31.1113C1.86368 30.6834 0.599479 29.0241 0.948126 26.1335C1.07683 25.6777 1.29412 25.2826 1.59998 24.9484C1.76665 24.8923 1.84567 24.7738 1.83702 24.5928C2.02552 24.34 2.26256 24.1426 2.54813 24.0002C2.72909 24.0089 2.84761 23.9298 2.90368 23.7632C2.94418 23.6639 3.0232 23.6243 3.14072 23.6447C3.64569 23.5975 4.11976 23.479 4.56294 23.2891C6.05561 22.9827 7.55685 22.7062 9.06664 22.4595Z"
            fill="#F4B23E" />
        <path opacity="0.042" fill-rule="evenodd" clip-rule="evenodd"
            d="M9.06689 22.4593C9.15092 22.3522 9.26944 22.3127 9.42245 22.3408C9.45419 22.5303 9.41469 22.6883 9.30393 22.8149C9.32939 22.6159 9.25037 22.4974 9.06689 22.4593Z"
            fill="#1B1407" />
        <path opacity="0.997" fill-rule="evenodd" clip-rule="evenodd"
            d="M23.0517 22.5776C24.7105 22.8659 26.3698 23.1622 28.0295 23.4665C28.6726 23.6101 29.2257 23.9063 29.6887 24.3554C29.7575 24.622 29.9155 24.8194 30.1628 24.948C31.0862 26.1945 31.2245 27.5376 30.5776 28.9776C30.4838 29.2865 30.306 29.5235 30.0443 29.6887C29.8863 29.7678 29.7678 29.8863 29.6887 30.0443C29.0047 30.7709 28.1554 31.1265 27.1406 31.111C25.2431 31.0687 23.9789 30.1601 23.348 28.385C23.078 26.7259 22.8213 25.0666 22.5776 23.4073C22.5776 23.1308 22.5776 22.8541 22.5776 22.5776C22.7356 22.5776 22.8937 22.5776 23.0517 22.5776Z"
            fill="#E85958" />
        <path opacity="0.322" fill-rule="evenodd" clip-rule="evenodd"
            d="M23.0519 22.5776C22.8939 22.5776 22.7358 22.5776 22.5779 22.5776C22.5779 22.8541 22.5779 23.1307 22.5779 23.4072C22.4937 23.1236 22.4147 22.8273 22.3408 22.5183C22.603 22.4248 22.84 22.4446 23.0519 22.5776Z"
            fill="#5C2726" />
        <path opacity="0.408" fill-rule="evenodd" clip-rule="evenodd"
            d="M4.56285 23.2891C4.11967 23.4789 3.6456 23.5974 3.14062 23.6446C3.57475 23.4175 4.04882 23.299 4.56285 23.2891Z"
            fill="#846326" />
        <path opacity="0.392" fill-rule="evenodd" clip-rule="evenodd"
            d="M2.9039 23.7628C2.84782 23.9295 2.72931 24.0085 2.54834 23.9999C2.60441 23.8332 2.72293 23.7542 2.9039 23.7628Z"
            fill="#654D1D" />
        <path opacity="0.369" fill-rule="evenodd" clip-rule="evenodd"
            d="M29.689 24.3555C29.9363 24.4841 30.0943 24.6815 30.163 24.9481C29.9157 24.8195 29.7577 24.622 29.689 24.3555Z"
            fill="#522726" />
        <path opacity="0.22" fill-rule="evenodd" clip-rule="evenodd"
            d="M1.8368 24.5928C1.84545 24.7738 1.76643 24.8923 1.59976 24.9483C1.59111 24.7674 1.67013 24.6488 1.8368 24.5928Z"
            fill="#6D5423" />
        <path opacity="0.592" fill-rule="evenodd" clip-rule="evenodd"
            d="M8.71117 26.7261C8.68123 27.1456 8.60223 27.5407 8.47413 27.9113C8.4337 27.4775 8.51271 27.0825 8.71117 26.7261Z"
            fill="#7E5D21" />
        <path opacity="0.01" fill-rule="evenodd" clip-rule="evenodd"
            d="M30.0445 29.689C30.0445 29.926 29.926 30.0445 29.689 30.0445C29.768 29.8865 29.8865 29.768 30.0445 29.689Z"
            fill="#2B1513" />
    </g>
    <defs>
        <clipPath id="clip0_993_525">
            <rect width="32" height="32" fill="white" />
        </clipPath>
    </defs>
</svg>