<svg width="32" height="32" viewBox="0 0 32 32" fill="none" xmlns="http://www.w3.org/2000/svg">
<path fill-rule="evenodd" clip-rule="evenodd" d="M0 4.36657C0 3.52906 0 2.6915 0 1.854C0.51894 1.24552 1.16006 0.722022 1.92336 0.283642C7.04573 -0.770569 8.7554 1.11386 7.05233 5.93692C4.09588 7.55276 1.74511 7.02932 0 4.36657Z" fill="#3897FD"/>
<path fill-rule="evenodd" clip-rule="evenodd" d="M7.69158 15.0436C7.27389 14.6726 6.84645 14.2539 6.40933 13.7873C4.50251 14.4637 2.57914 14.4637 0.639246 13.7873C0.319958 10.019 2.02961 8.65799 5.76821 9.70441C7.45071 11.057 8.09183 12.8367 7.69158 15.0436Z" fill="#2C71C4"/>
<path fill-rule="evenodd" clip-rule="evenodd" d="M0.640625 13.7871C2.58052 14.4634 4.50388 14.4634 6.41071 13.7871C6.84783 14.2536 7.27526 14.6724 7.69296 15.0434C7.90132 19.7665 7.68757 24.3728 7.05183 28.8625C7.26296 25.0706 7.04921 21.3017 6.41071 17.556C4.01942 18.6715 2.09605 18.2527 0.640625 16.2997C0.640625 15.4622 0.640625 14.6246 0.640625 13.7871Z" fill="#28457F"/>
<path fill-rule="evenodd" clip-rule="evenodd" d="M0.642131 16.3008C2.09756 18.2538 4.02092 18.6726 6.41222 17.5571C7.05071 21.3028 7.26446 25.0717 7.05334 28.8636C6.66346 30.4277 5.59492 31.2656 3.84774 31.3762C2.81728 31.2901 1.96245 30.8712 1.28325 30.1199C0.664272 25.5495 0.450566 20.9432 0.642131 16.3008Z" fill="#121B4A"/>
<path fill-rule="evenodd" clip-rule="evenodd" d="M21.1637 2.54883C21.7997 7.24846 22.0132 12.0642 21.8049 16.9961C21.2907 17.9079 20.9701 18.9548 20.8432 20.1368C17.7562 14.211 17.8633 8.34834 21.1637 2.54883Z" fill="#911EB1"/>
<path fill-rule="evenodd" clip-rule="evenodd" d="M12.1875 8.20312C12.8286 8.20312 13.4698 8.20312 14.1109 8.20312C14.1109 10.2969 14.1109 12.3908 14.1109 14.4845C13.4698 14.4845 12.8286 14.4845 12.1875 14.4845C10.3719 13.287 9.83716 11.6119 10.5847 9.45941C11.0386 8.90633 11.5733 8.48755 12.1875 8.20312Z" fill="#15194B"/>
<path fill-rule="evenodd" clip-rule="evenodd" d="M26.9356 7.57227C32.3576 8.16083 33.4263 10.5687 30.1412 14.7959C25.7277 15.4968 23.9108 13.7171 24.6917 9.45669C25.4258 8.74287 26.1739 8.11473 26.9356 7.57227Z" fill="#B926D3"/>
<path fill-rule="evenodd" clip-rule="evenodd" d="M16.6732 0.662659C17.9728 0.560837 19.255 0.665485 20.52 0.97673C21.0021 1.39809 21.2162 1.92152 21.1611 2.54709C17.8606 8.3466 17.7535 14.2092 20.8405 20.1351C20.9675 18.9531 21.288 17.9062 21.8022 16.9944C21.6958 19.9331 21.8028 22.8645 22.1228 25.7883C22.3683 26.1376 22.6889 26.347 23.0844 26.4165C21.8093 27.2875 20.6341 27.078 19.5583 25.7883C16.9149 21.2148 15.7391 16.2943 16.0321 11.027C16.1898 7.56512 16.4033 4.11034 16.6732 0.662659Z" fill="#631C8B"/>
<path fill-rule="evenodd" clip-rule="evenodd" d="M14.7497 20.7637C16.3339 23.5365 18.0438 26.3632 19.8787 29.2436C22.447 30.1362 24.1562 29.4031 25.0076 27.0451C26.7669 26.8568 27.8356 27.5897 28.2132 29.2436C28.2523 30.3183 27.8247 31.1557 26.931 31.7562C18.2758 33.0131 14.2156 29.3491 14.7497 20.7637Z" fill="#2F1C5F"/>
<path fill-rule="evenodd" clip-rule="evenodd" d="M16.6793 0.664062C16.4093 4.11175 16.1958 7.56653 16.0381 11.0284C15.7451 16.2957 16.921 21.2162 19.5643 25.7898C20.6401 27.0795 21.8153 27.2889 23.0905 26.4179C23.6617 26.8009 24.3028 27.0103 25.0138 27.046C24.1624 29.4041 22.4532 30.1371 19.8849 29.2445C18.05 26.3641 16.3401 23.5375 14.7559 20.7646C14.7559 18.8802 14.7559 16.9958 14.7559 15.1113C13.7307 15.2796 12.8761 15.0702 12.1914 14.4832C12.8325 14.4832 13.4736 14.4832 14.1148 14.4832C14.1148 12.3894 14.1148 10.2956 14.1148 8.20177C13.4736 8.20177 12.8325 8.20177 12.1914 8.20177C12.8761 7.61477 13.7307 7.40541 14.7559 7.57363C14.6507 5.88562 14.7578 4.21055 15.0765 2.54849C15.3182 1.64252 15.8522 1.01438 16.6793 0.664062Z" fill="#431F70"/>
</svg>
