<svg width="32" height="32" viewBox="0 0 32 32" fill="none" xmlns="http://www.w3.org/2000/svg">
<mask id="mask0_38_145" style="mask-type:luminance" maskUnits="userSpaceOnUse" x="1" y="3" width="30" height="25">
<path d="M30.5227 3.93848H1.47656V27.5692H30.5227V3.93848Z" fill="white"/>
</mask>
<g mask="url(#mask0_38_145)">
<path d="M26.2321 22.5564L24.4933 25.5089C24.1778 26.044 23.728 26.4874 23.1885 26.7953C22.649 27.1032 22.0384 27.2649 21.4172 27.2644H8.92517C8.29861 27.2647 7.68303 27.1 7.14041 26.7867C6.59778 26.4735 6.14722 26.0228 5.83422 25.4801L4.14746 22.5564H26.2321Z" fill="#173DAA"/>
<path d="M26.2326 22.5564L24.7262 25.1111C24.5992 25.3328 24.4159 25.517 24.1949 25.6451C23.9738 25.7732 23.7229 25.8407 23.4675 25.8407C23.2119 25.8407 22.961 25.7732 22.74 25.6451C22.5189 25.517 22.3356 25.3328 22.2087 25.1111L20.7422 22.5564H26.2326Z" fill="#377BF6"/>
<path d="M30.1433 15.9129L26.2327 22.5428H9.59766L15.1355 13.0273H28.4984C28.8361 13.0265 29.1679 13.1152 29.4601 13.2845C29.7523 13.4538 29.9944 13.6975 30.1616 13.9909C30.3288 14.2843 30.4152 14.6167 30.412 14.9544C30.4088 15.292 30.3161 15.6228 30.1433 15.9129Z" fill="#377BF6"/>
<path d="M1.71574 15.5252L5.76574 8.64819H22.3599L17.7709 16.5949C17.4956 17.0707 17.0998 17.4656 16.6235 17.7398C16.1471 18.0141 15.6069 18.158 15.0572 18.1571H3.22219C2.91464 18.1565 2.61269 18.0749 2.34678 17.9203C2.08087 17.7658 1.86041 17.5438 1.70763 17.277C1.55485 17.01 1.47515 16.7076 1.47658 16.4C1.478 16.0925 1.5605 15.7907 1.71574 15.5252Z" fill="#ED772F"/>
<path d="M5.76562 8.6474L7.61966 5.50254C7.90027 5.02623 8.30037 4.63137 8.78037 4.35706C9.26037 4.08274 9.80368 3.93846 10.3565 3.93848H23.2445C23.8023 3.93802 24.3503 4.0847 24.8332 4.36371C25.3162 4.64273 25.717 5.0442 25.9953 5.52765L27.7935 8.6474H5.76562Z" fill="#ED772F"/>
<path d="M27.7932 8.64741H22.3594L23.9773 5.84456C24.0885 5.65128 24.2486 5.49078 24.4415 5.37913C24.6344 5.26752 24.8534 5.20874 25.0763 5.20874C25.2992 5.20874 25.5182 5.26752 25.7111 5.37913C25.904 5.49078 26.0641 5.65128 26.1752 5.84456L27.7932 8.64741Z" fill="#F09A35"/>
</g>
</svg>
