<svg width="32" height="32" viewBox="0 0 32 32" fill="none" xmlns="http://www.w3.org/2000/svg">
    <path
        d="M32 13.1416V25.0371C32 25.7726 31.8493 26.4808 31.5894 27.1433C30.4706 29.9546 27.2085 32 23.37 32H0V13.1416C0 9.30605 3.87616 6.17871 8.62999 6.17871H23.3738C28.1238 6.17871 32 9.30605 32 13.1416Z"
        fill="#00A68B" />
    <path
        d="M23.5772 6.10582C23.5772 6.1362 23.5772 6.16658 23.5583 6.197H21.3396C21.3208 6.16658 21.3208 6.1362 21.3208 6.10582C21.3208 3.74433 18.9363 1.8053 15.9906 1.8053C13.0449 1.8053 10.6604 3.72913 10.6604 6.10582C10.6604 6.1362 10.6604 6.16658 10.6604 6.197H8.44168C8.42285 6.16658 8.42285 6.1362 8.42285 6.10582C8.42285 2.73835 11.8131 0 15.9906 0C20.1681 0 23.5772 2.73531 23.5772 6.10582Z"
        fill="#00A68B" />
    <path
        d="M10.679 6.16357C10.679 6.65896 10.1742 7.06624 9.56019 7.06624C8.94619 7.06624 8.44141 6.65896 8.44141 6.16357H10.679Z"
        fill="#00A68B" />
    <path
        d="M23.5398 6.16357C23.5398 6.65896 23.035 7.06624 22.421 7.06624C21.807 7.06624 21.3022 6.65896 21.3022 6.16357H23.5398Z"
        fill="#00A68B" />
    <path
        d="M24.6398 20.2837C24.6398 24.1496 20.7448 27.2922 15.9532 27.2922C11.1617 27.2922 7.27051 24.1496 7.27051 20.2837"
        fill="white" />
</svg>