<svg width="32" height="32" viewBox="0 0 32 32" fill="none" xmlns="http://www.w3.org/2000/svg">
<g clip-path="url(#clip0_41_105)">
<rect width="32" height="32" fill="black"/>
<path d="M19.9259 1.09082C13.7839 1.09082 8.78813 6.08762 8.78813 12.2292C8.78813 14.6118 9.54282 16.8202 10.8218 18.6333L0.978089 27.2838C0.362489 27.8984 1.00002 29.5311 1.61431 30.1471C2.22925 30.761 3.86268 31.3979 4.47729 30.783L13.0731 20.9995C14.9644 22.4804 17.343 23.3666 19.9259 23.3666C26.0681 23.3666 31.0643 18.3702 31.0643 12.2289C31.0643 6.08762 26.0681 1.09082 19.9259 1.09082ZM19.9259 19.6544C15.8317 19.6544 12.5004 16.3237 12.5004 12.2292C12.5004 8.13471 15.832 4.8034 19.9259 4.8034C24.021 4.8034 27.351 8.13504 27.351 12.2292C27.351 16.3234 24.021 19.6544 19.9259 19.6544Z" fill="#E2E2E2"/>
</g>
<defs>
<clipPath id="clip0_41_105">
<rect width="32" height="32" fill="white"/>
</clipPath>
</defs>
</svg>
