<svg width="32" height="32" viewBox="0 0 32 32" fill="none" xmlns="http://www.w3.org/2000/svg">
<g clip-path="url(#clip0_6008_2480)">
<path fill-rule="evenodd" clip-rule="evenodd" d="M-0.106689 -0.106674C0.106644 -0.106674 0.319977 -0.106674 0.533311 -0.106674C0.391088 0.17777 0.177755 0.391103 -0.106689 0.533326C-0.106689 0.319992 -0.106689 0.106659 -0.106689 -0.106674Z" fill="#DFE6ED"/>
<path fill-rule="evenodd" clip-rule="evenodd" d="M0.533311 -0.106674C10.56 -0.106674 20.5866 -0.106674 30.6133 -0.106674C28.1956 2.38222 25.7777 4.8711 23.36 7.35999C18.0262 7.32445 12.6928 7.35999 7.35998 7.46666C7.0384 7.64528 6.93173 7.89416 7.03998 8.21333C9.18506 11.3169 11.2828 14.4458 13.3333 17.6C12.1369 18.4403 11.0702 19.4359 10.1333 20.5867C9.12582 19.3594 8.16582 18.0794 7.25331 16.7467C7.18221 16.8178 7.11108 16.8889 7.03998 16.96C6.89775 18.9511 6.89775 20.9422 7.03998 22.9333C7.14948 23.1524 7.25615 23.3658 7.35998 23.5733C7.20234 23.5454 7.06012 23.581 6.93331 23.68C4.61476 26.0341 2.26809 28.3454 -0.106689 30.6133C-0.106689 20.5867 -0.106689 10.56 -0.106689 0.533326C0.177755 0.391103 0.391088 0.17777 0.533311 -0.106674Z" fill="#376895"/>
<path fill-rule="evenodd" clip-rule="evenodd" d="M31.2534 -0.106674C31.4667 -0.106674 31.68 -0.106674 31.8934 -0.106674C31.8934 0.106659 31.8934 0.319992 31.8934 0.533326C31.609 0.391103 31.3957 0.17777 31.2534 -0.106674Z" fill="#DFE6ED"/>
<path fill-rule="evenodd" clip-rule="evenodd" d="M30.6133 -0.106674C30.8266 -0.106674 31.04 -0.106674 31.2533 -0.106674C31.3956 0.17777 31.6089 0.391103 31.8933 0.533326C31.8933 3.66222 31.8933 6.7911 31.8933 9.91999C29.4044 12.3378 26.9156 14.7556 24.4266 17.1733C24.397 16.7814 24.2547 16.7103 24 16.96C23.0709 18.2543 22.1465 19.5343 21.2266 20.8C21.2406 20.7065 21.2051 20.6354 21.12 20.5867C17.3333 24.3377 13.6 28.1064 9.91998 31.8933C6.79108 31.8933 3.66221 31.8933 0.533311 31.8933C0.391088 31.609 0.177755 31.3956 -0.106689 31.2533C-0.106689 31.04 -0.106689 30.8267 -0.106689 30.6133C2.26809 28.3454 4.61476 26.0341 6.93331 23.68C7.06012 23.581 7.20235 23.5454 7.35998 23.5733C7.53982 23.9302 7.82425 24.1792 8.21331 24.32C9.54641 24.4926 10.862 24.457 12.16 24.2133C12.2272 23.913 12.1561 23.6286 11.9466 23.36C11.2316 22.4962 10.6271 21.5718 10.1333 20.5867C11.0702 19.4359 12.1369 18.4403 13.3333 17.6C13.9974 18.6566 14.7085 19.6877 15.4666 20.6933C15.8649 20.845 16.1849 20.7384 16.4266 20.3733C18.9866 16.5333 21.5466 12.6933 24.1066 8.85333C24.7033 7.8804 24.4546 7.38261 23.36 7.35999C25.7777 4.8711 28.1956 2.38222 30.6133 -0.106674Z" fill="#315F8C"/>
<path fill-rule="evenodd" clip-rule="evenodd" d="M23.36 7.36001C24.4546 7.38262 24.7033 7.88041 24.1066 8.85334C21.5466 12.6933 18.9866 16.5333 16.4266 20.3733C16.1849 20.7384 15.8649 20.8451 15.4666 20.6933C14.7085 19.6878 13.9974 18.6566 13.3333 17.6C11.2828 14.4459 9.18506 11.317 7.03997 8.21334C6.93173 7.89417 7.0384 7.6453 7.35997 7.46667C12.6928 7.36001 18.0262 7.32447 23.36 7.36001Z" fill="#FDFDFD"/>
<path fill-rule="evenodd" clip-rule="evenodd" d="M31.8933 9.92C31.8933 17.0311 31.8933 24.1423 31.8933 31.2533C31.6089 31.3956 31.3956 31.609 31.2533 31.8933C24.1423 31.8933 17.0311 31.8933 9.91998 31.8933C13.6 28.1065 17.3333 24.3377 21.12 20.5867C21.2051 20.6354 21.2406 20.7065 21.2266 20.8C20.6753 21.7457 20.0709 22.6701 19.4133 23.5733C19.2674 23.8473 19.303 24.0962 19.52 24.32C20.6578 24.4623 21.7956 24.4623 22.9333 24.32C23.4342 24.2462 23.8253 23.9972 24.1066 23.5733C24.4102 21.4571 24.5169 19.3237 24.4266 17.1733C26.9156 14.7556 29.4044 12.3378 31.8933 9.92Z" fill="#2D5885"/>
<path fill-rule="evenodd" clip-rule="evenodd" d="M10.1334 20.5867C10.6272 21.5718 11.2316 22.4962 11.9467 23.36C12.1562 23.6286 12.2273 23.913 12.16 24.2133C10.862 24.457 9.54645 24.4926 8.21335 24.32C7.8243 24.1792 7.53986 23.9302 7.36002 23.5733C7.25619 23.3658 7.14953 23.1524 7.04002 22.9333C6.89779 20.9422 6.89779 18.9511 7.04002 16.96C7.11113 16.8889 7.18225 16.8178 7.25335 16.7467C8.16587 18.0794 9.12587 19.3594 10.1334 20.5867Z" fill="#F5F7F9"/>
<path fill-rule="evenodd" clip-rule="evenodd" d="M24.4267 17.1733C24.5169 19.3237 24.4102 21.4571 24.1067 23.5733C23.8253 23.9972 23.4342 24.2462 22.9333 24.32C21.7956 24.4623 20.6578 24.4623 19.52 24.32C19.303 24.0962 19.2675 23.8473 19.4133 23.5733C20.0709 22.6701 20.6753 21.7457 21.2267 20.8C22.1466 19.5343 23.0709 18.2543 24 16.96C24.2547 16.7103 24.397 16.7814 24.4267 17.1733Z" fill="#FBFCFD"/>
<path fill-rule="evenodd" clip-rule="evenodd" d="M-0.106689 31.2533C0.177755 31.3956 0.391088 31.609 0.533311 31.8933C0.319977 31.8933 0.106644 31.8933 -0.106689 31.8933C-0.106689 31.68 -0.106689 31.4667 -0.106689 31.2533Z" fill="#E3E9EF"/>
<path fill-rule="evenodd" clip-rule="evenodd" d="M31.8934 31.2533C31.8934 31.4667 31.8934 31.68 31.8934 31.8933C31.68 31.8933 31.4667 31.8933 31.2534 31.8933C31.3957 31.609 31.609 31.3956 31.8934 31.2533Z" fill="#E3E9EF"/>
</g>
<defs>
<clipPath id="clip0_6008_2480">
<rect width="32" height="32" fill="white"/>
</clipPath>
</defs>
</svg>
