<svg width="32" height="32" viewBox="0 0 33 33" fill="none" xmlns="http://www.w3.org/2000/svg">
    <path fill-rule="evenodd" clip-rule="evenodd"
        d="M0.5 0.5C11.1667 0.5 21.8333 0.5 32.5 0.5C32.5 4.30952 32.5 8.11905 32.5 11.9286C21.8333 11.9286 11.1667 11.9286 0.5 11.9286C0.5 8.11905 0.5 4.30952 0.5 0.5Z"
        fill="#795EAD" />
    <path fill-rule="evenodd" clip-rule="evenodd"
        d="M0.766602 0.880859C11.2555 0.880859 21.7445 0.880859 32.2333 0.880859C32.2333 4.4364 32.2333 7.99198 32.2333 11.5475C21.7445 11.5475 11.2555 11.5475 0.766602 11.5475C0.766602 7.99198 0.766602 4.4364 0.766602 0.880859Z"
        fill="#7E57C2" />
    <path fill-rule="evenodd" clip-rule="evenodd"
        d="M3.7002 14.2144C12.2335 14.2144 20.7669 14.2144 29.3002 14.2144C29.3002 17.262 29.3002 20.3096 29.3002 23.3572C20.7669 23.3572 12.2335 23.3572 3.7002 23.3572C3.7002 20.3096 3.7002 17.262 3.7002 14.2144Z"
        fill="#AE9ECB" />
    <path fill-rule="evenodd" clip-rule="evenodd"
        d="M3.96679 14.5951C12.1451 14.5316 20.3228 14.5951 28.5001 14.7856C28.8423 15.9526 29.0201 17.2225 29.0335 18.5951C28.9889 19.8016 28.9447 21.0077 28.9001 22.2141C28.7001 22.4526 28.4777 22.6431 28.2335 22.7856C20.2335 23.0397 12.2335 23.0397 4.23346 22.7856C4.44138 22.3768 4.39692 21.9322 4.10012 21.4522C3.96692 19.1699 3.92247 16.8842 3.96679 14.5951Z"
        fill="#B199D9" />
    <path fill-rule="evenodd" clip-rule="evenodd"
        d="M6.8999 25.6431C13.2999 25.6431 19.6999 25.6431 26.0999 25.6431C26.0999 27.9288 26.0999 30.2145 26.0999 32.5002C19.6999 32.5002 13.2999 32.5002 6.8999 32.5002C6.8999 30.2145 6.8999 27.9288 6.8999 25.6431Z"
        fill="#D6CDE6" />
    <path fill-rule="evenodd" clip-rule="evenodd"
        d="M7.1665 26.0236C13.2136 25.8968 19.258 26.0236 25.2998 26.4046C25.382 26.7124 25.5153 26.9665 25.6998 27.1665C25.8329 28.685 25.8774 30.2088 25.8332 31.7379C19.615 32.0861 13.3929 32.213 7.1665 32.1189C7.1665 31.7379 7.1665 31.357 7.1665 30.976C29.5665 30.7219 29.5665 30.4682 7.1665 30.2141C7.1665 28.8172 7.1665 27.4206 7.1665 26.0236Z"
        fill="#D6CBEE" />
</svg>