<svg width="32" height="32" viewBox="0 0 32 32" fill="none" xmlns="http://www.w3.org/2000/svg">
<path opacity="0.946" fill-rule="evenodd" clip-rule="evenodd" d="M6.55959 2.07995C7.31376 2.02769 8.06045 2.08102 8.79959 2.23995C13.5439 5.62561 18.3439 8.93227 23.1996 12.1599C24.4026 13.3578 24.7759 14.7978 24.3196 16.4799C23.5079 17.399 22.6012 18.199 21.5996 18.8799C17.1136 21.8748 12.4736 24.5948 7.67959 27.0399C7.1322 27.0594 6.70551 26.8461 6.39959 26.3999C6.13357 24.046 6.18692 21.6994 6.55959 19.3599C9.03629 18.0019 11.383 16.4552 13.5996 14.7199C11.1996 12.9599 8.79959 11.1999 6.39959 9.43995C6.1442 6.96123 6.19754 4.50788 6.55959 2.07995Z" fill="#004FA1"/>
<path opacity="0.884" fill-rule="evenodd" clip-rule="evenodd" d="M20.6396 22.2398C24.3391 22.1567 25.4057 23.81 23.8396 27.1998C20.4735 28.523 18.9268 27.403 19.1996 23.8398C19.5276 23.14 20.0076 22.6066 20.6396 22.2398Z" fill="#F7DA2B"/>
</svg>
