<svg width="32" height="32" viewBox="0 0 32 32" fill="none" xmlns="http://www.w3.org/2000/svg">
<g clip-path="url(#clip0_51_186)">
<path fill-rule="evenodd" clip-rule="evenodd" d="M18.56 2.06224C18.4592 2.19081 18.3169 2.23821 18.1333 2.20446C18.1333 2.34668 18.1333 2.4889 18.1333 2.63113C17.9911 2.63113 17.8489 2.63113 17.7067 2.63113C17.0287 2.44662 16.3649 2.44662 15.7155 2.63113C15.5305 2.82803 15.5305 3.04137 15.7155 3.27113C16.3318 3.36595 16.9482 3.36595 17.5644 3.27113C17.6435 3.21671 17.6909 3.1456 17.7067 3.05779C17.7992 2.9738 17.8941 2.87898 17.9911 2.77335C18.4781 3.09941 18.9995 3.14682 19.5555 2.91557C19.6504 2.93928 19.7451 2.96297 19.84 2.98668C19.6609 3.11801 19.4714 3.23654 19.2711 3.34224C19.2887 3.42852 19.3361 3.47593 19.4133 3.48446C19.5568 3.68913 19.5095 3.87876 19.2711 4.05335C19.366 4.14817 19.4607 4.24297 19.5555 4.33779C19.0908 4.47817 18.6166 4.52558 18.1333 4.48001C18.1648 3.86911 17.9752 3.77429 17.5644 4.19557C17.6391 4.29404 17.734 4.36516 17.8489 4.4089C17.1868 4.4799 16.5232 4.50359 15.8578 4.48001C15.8578 4.62224 15.8578 4.76446 15.8578 4.90668C15.0993 4.90668 14.3407 4.90668 13.5822 4.90668C13.5822 5.14372 13.5822 5.38075 13.5822 5.61779C13.2029 5.61779 12.8237 5.61779 12.4444 5.61779C12.4444 5.76001 12.4444 5.90224 12.4444 6.04446C12.0652 6.04446 11.6859 6.04446 11.3067 6.04446C11.3067 5.90224 11.3067 5.76001 11.3067 5.61779C10.9274 5.61779 10.5481 5.61779 10.1689 5.61779C10.1689 5.76001 10.1689 5.90224 10.1689 6.04446C9.74968 6.08387 9.34671 6.03647 8.95999 5.90224C8.95999 6.09186 8.95999 6.2815 8.95999 6.47113C8.61951 6.67749 8.31136 6.63007 8.03555 6.3289C7.73591 6.49058 7.42776 6.6328 7.1111 6.75557C6.93547 6.59692 6.76954 6.59692 6.61332 6.75557C6.47429 6.68777 6.35577 6.59297 6.25777 6.47113C5.99797 6.63592 5.76094 6.82554 5.54666 7.04001C5.48736 6.86138 5.36885 6.76658 5.1911 6.75557C5.22959 6.48101 5.37181 6.29139 5.61777 6.18668C5.94961 6.13928 6.13925 5.94964 6.18666 5.61779C6.87483 4.83321 7.68076 4.21692 8.60443 3.7689C8.91363 3.73339 9.15065 3.59117 9.31555 3.34224C9.73399 3.22782 10.1133 3.03819 10.4533 2.77335C13.0941 1.79948 15.7963 1.56245 18.56 2.06224Z" fill="#FB6308"/>
<path fill-rule="evenodd" clip-rule="evenodd" d="M10.4533 2.77332C10.1133 3.03817 9.734 3.22779 9.31555 3.34221C9.50759 2.83091 9.88686 2.64127 10.4533 2.77332Z" fill="#FBD9BD"/>
<path fill-rule="evenodd" clip-rule="evenodd" d="M13.5822 3.34222C13.1674 3.45473 12.7644 3.45473 12.3733 3.34222C12.2724 3.55175 12.1065 3.64656 11.8755 3.62666C11.8755 3.48444 11.8755 3.34222 11.8755 3.2C12.4153 2.96635 12.9842 2.87155 13.5822 2.91555C13.5822 3.05777 13.5822 3.2 13.5822 3.34222Z" fill="#FCF6ED"/>
<path fill-rule="evenodd" clip-rule="evenodd" d="M17.7067 2.63112C17.7067 2.77334 17.7067 2.91556 17.7067 3.05778C17.6909 3.14559 17.6435 3.2167 17.5644 3.27112C16.9482 3.36594 16.3318 3.36594 15.7156 3.27112C15.5305 3.04136 15.5305 2.82802 15.7156 2.63112C16.3649 2.44661 17.0287 2.44661 17.7067 2.63112Z" fill="#F3A972"/>
<path fill-rule="evenodd" clip-rule="evenodd" d="M15.7155 2.6311C16.2844 2.6311 16.8533 2.6311 17.4222 2.6311C17.4222 2.82073 17.4222 3.01037 17.4222 3.19999C16.8985 3.2235 16.3772 3.19979 15.8578 3.12888C15.7387 2.98505 15.6914 2.81914 15.7155 2.6311Z" fill="#FBF8EE"/>
<path fill-rule="evenodd" clip-rule="evenodd" d="M9.31554 3.34222C9.15065 3.59116 8.91362 3.73338 8.60443 3.76889C8.76932 3.51996 9.00635 3.37774 9.31554 3.34222Z" fill="#F7AE76"/>
<path fill-rule="evenodd" clip-rule="evenodd" d="M11.8755 3.20001C11.8755 3.34223 11.8755 3.48446 11.8755 3.62668C12.1065 3.64658 12.2724 3.55177 12.3733 3.34223C12.7644 3.45475 13.1674 3.45475 13.5822 3.34223C12.9462 3.58423 12.2825 3.77385 11.5911 3.91112C11.531 3.58669 11.6258 3.34964 11.8755 3.20001Z" fill="#FBDFBC"/>
<path fill-rule="evenodd" clip-rule="evenodd" d="M19.4133 3.48447C19.563 3.46321 19.7052 3.48691 19.84 3.55558C20.0066 4.21953 20.4332 4.52768 21.12 4.48002C21.1674 4.48002 21.2149 4.48002 21.2622 4.48002C21.2311 4.64714 21.2784 4.78936 21.4045 4.90669C21.7363 4.81187 22.0682 4.71707 22.4 4.62225C22.4834 4.65201 22.5545 4.69942 22.6133 4.76447C22.7893 4.53629 22.9551 4.29926 23.1111 4.05336C23.3346 4.16847 23.5716 4.21587 23.8222 4.19558C23.8064 4.28339 23.7591 4.3545 23.68 4.40891C23.8908 4.69093 24.1279 4.95168 24.3911 5.19113C24.1806 5.27833 23.9911 5.32573 23.8222 5.33336C24.1765 5.48137 24.1765 5.5999 23.8222 5.68891C23.9171 5.78373 24.0118 5.87854 24.1067 5.97336C23.8043 6.49088 23.757 7.03607 23.9645 7.60891C24.1685 7.87929 24.4056 7.92671 24.6756 7.75113C24.5399 7.33515 24.6821 7.24033 25.1022 7.46669C25.0321 7.7946 24.9848 8.12646 24.96 8.46225C21.4979 8.57588 18.0846 8.76551 14.72 9.03113C12.9659 9.03113 11.2119 9.03113 9.45779 9.03113C9.45779 9.4104 9.45779 9.78965 9.45779 10.1689C9.28227 11.3933 9.16376 12.6259 9.10224 13.8667C9.03137 13.395 9.00766 12.9209 9.03112 12.4445C7.89335 12.4445 6.75557 12.4445 5.61779 12.4445C5.61779 12.6341 5.61779 12.8237 5.61779 13.0134C5.23853 13.0134 4.85928 13.0134 4.48001 13.0134C4.5023 12.818 4.47859 12.6284 4.4089 12.4445C4.30798 12.654 4.14206 12.7488 3.91112 12.7289C3.91112 12.5393 3.91112 12.3496 3.91112 12.16C3.7215 12.16 3.53186 12.16 3.34224 12.16C3.36529 11.8717 3.3416 11.5873 3.27112 11.3067C3.20038 11.683 3.17667 12.0623 3.20001 12.4445C2.9888 12.6932 2.84658 12.9776 2.77335 13.2978C2.45008 13.1881 2.40267 12.9985 2.63112 12.7289C2.57159 12.5622 2.47677 12.42 2.34668 12.3022C2.46179 12.0788 2.5092 11.8418 2.4889 11.5911C2.7449 10.7012 3.07675 9.8479 3.48446 9.03113C3.75994 8.43218 4.13921 7.91069 4.62224 7.46669C4.93898 7.33861 5.0812 7.10158 5.0489 6.75558C5.0963 6.75558 5.14372 6.75558 5.19112 6.75558C5.36887 6.76659 5.48739 6.86139 5.54668 7.04002C5.76097 6.82555 5.99799 6.63593 6.25779 6.47114C6.3558 6.59298 6.47431 6.68778 6.61335 6.75558C6.76956 6.59693 6.93549 6.59693 7.11112 6.75558C7.42778 6.63281 7.73593 6.49059 8.03557 6.32891C8.31138 6.63008 8.61953 6.6775 8.96001 6.47114C8.96001 6.28151 8.96001 6.09187 8.96001 5.90225C9.34673 6.03648 9.7497 6.08388 10.1689 6.04447C10.1689 5.90225 10.1689 5.76002 10.1689 5.6178C10.5482 5.6178 10.9274 5.6178 11.3067 5.6178C11.3067 5.76002 11.3067 5.90225 11.3067 6.04447C11.6859 6.04447 12.0652 6.04447 12.4445 6.04447C12.4445 5.90225 12.4445 5.76002 12.4445 5.6178C12.8237 5.6178 13.203 5.6178 13.5822 5.6178C13.5822 5.38076 13.5822 5.14373 13.5822 4.90669C14.3407 4.90669 15.0993 4.90669 15.8578 4.90669C15.8578 4.76447 15.8578 4.62225 15.8578 4.48002C16.5232 4.5036 17.1869 4.47991 17.8489 4.40891C17.734 4.36517 17.6391 4.29405 17.5645 4.19558C17.9752 3.7743 18.1648 3.86912 18.1333 4.48002C18.6166 4.52559 19.0908 4.47818 19.5556 4.3378C19.4607 4.24298 19.366 4.14818 19.2711 4.05336C19.5095 3.87877 19.5568 3.68914 19.4133 3.48447Z" fill="#FD6702"/>
<path fill-rule="evenodd" clip-rule="evenodd" d="M18.56 2.06219C20.5079 2.33522 22.2619 3.04633 23.8222 4.19553C23.5716 4.21582 23.3345 4.16842 23.1111 4.05331C22.9551 4.29921 22.7893 4.53624 22.6133 4.76442C22.5545 4.69936 22.4833 4.65196 22.4 4.62219C22.0682 4.71701 21.7362 4.81182 21.4044 4.90664C21.2784 4.78931 21.2311 4.64708 21.2622 4.47997C21.5403 4.59709 21.8247 4.62079 22.1156 4.55108C22.2508 4.44904 22.2744 4.33051 22.1867 4.19553C21.6286 3.85964 21.0359 3.62261 20.4089 3.48442C20.4089 3.72146 20.4089 3.95849 20.4089 4.19553C20.7009 4.1816 20.938 4.27641 21.12 4.47997C20.4332 4.52763 20.0065 4.21948 19.84 3.55553C19.7052 3.48686 19.5629 3.46315 19.4133 3.48442C19.3361 3.47588 19.2887 3.42848 19.2711 3.34219C19.4714 3.2365 19.6609 3.11797 19.84 2.98664C19.7451 2.96293 19.6504 2.93924 19.5556 2.91553C18.9995 3.14678 18.4781 3.09936 17.9911 2.77331C17.8941 2.87893 17.7993 2.97375 17.7067 3.05775C17.7067 2.91553 17.7067 2.77331 17.7067 2.63108C17.8489 2.63108 17.9911 2.63108 18.1333 2.63108C18.1333 2.48886 18.1333 2.34664 18.1333 2.20442C18.3169 2.23817 18.4592 2.19076 18.56 2.06219Z" fill="#F66913"/>
<path fill-rule="evenodd" clip-rule="evenodd" d="M21.2622 4.47999C21.2148 4.47999 21.1673 4.47999 21.12 4.47999C20.9379 4.27643 20.7009 4.18162 20.4089 4.19555C20.4089 3.95851 20.4089 3.72148 20.4089 3.48444C21.0359 3.62263 21.6286 3.85966 22.1867 4.19555C22.2744 4.33053 22.2508 4.44906 22.1155 4.5511C21.8247 4.62081 21.5403 4.59711 21.2622 4.47999Z" fill="#FBF3E2"/>
<path fill-rule="evenodd" clip-rule="evenodd" d="M9.03113 4.76444C8.72032 4.79339 8.43587 4.8882 8.1778 5.04888C8.37969 4.6437 8.66414 4.54888 9.03113 4.76444Z" fill="#F8AD7A"/>
<path fill-rule="evenodd" clip-rule="evenodd" d="M9.03109 4.76447C8.8138 5.43285 8.36343 5.90692 7.67998 6.18669C7.36887 6.10714 7.27405 5.9175 7.39553 5.6178C7.64158 5.3936 7.90231 5.20397 8.17776 5.04891C8.43583 4.88823 8.72028 4.79342 9.03109 4.76447Z" fill="#FCEFDF"/>
<path fill-rule="evenodd" clip-rule="evenodd" d="M6.18669 5.6178C6.13928 5.94964 5.94964 6.13928 5.6178 6.18669C5.76002 5.94964 5.94964 5.76002 6.18669 5.6178Z" fill="#ED914C"/>
<path fill-rule="evenodd" clip-rule="evenodd" d="M5.04886 6.75555C5.08116 7.10155 4.93894 7.33858 4.62219 7.46667C4.70899 7.19159 4.85121 6.95457 5.04886 6.75555Z" fill="#EC8F53"/>
<path fill-rule="evenodd" clip-rule="evenodd" d="M23.8222 4.19556C25.7935 5.54965 27.358 7.25632 28.5155 9.31556C28.4901 9.66458 28.5848 9.97274 28.8 10.24C28.6427 10.5043 28.5005 10.765 28.3733 11.0222C28.1876 10.6928 27.998 10.361 27.8044 10.0267C27.6353 9.89459 27.4457 9.84718 27.2355 9.88445C27.2355 10.1215 27.2355 10.3585 27.2355 10.5956C27.2355 10.8326 27.2355 11.0696 27.2355 11.3067C26.9037 11.3067 26.5718 11.3067 26.24 11.3067C26.1926 10.7378 26.1451 10.7378 26.0977 11.3067C25.7184 11.3067 25.3393 11.3067 24.96 11.3067C24.96 11.5911 24.96 11.8756 24.96 12.16C24.2015 12.2548 23.4429 12.3496 22.6844 12.4444C22.7035 13.0649 22.5613 13.6338 22.2577 14.1511C22.0959 13.7524 22.0721 13.3257 22.1866 12.8711C22.4186 12.6494 22.5371 12.365 22.5422 12.0178C22.4594 11.4036 22.4121 10.7873 22.4 10.1689C22.4 9.78963 22.4 9.41038 22.4 9.03111C19.84 9.03111 17.28 9.03111 14.72 9.03111C18.0845 8.76548 21.4979 8.57586 24.96 8.46222C24.9847 8.12644 25.0321 7.79458 25.1022 7.46667C24.6821 7.24031 24.5398 7.33513 24.6755 7.75111C24.4056 7.92669 24.1685 7.87927 23.9644 7.60889C23.7569 7.03605 23.8043 6.49085 24.1066 5.97333C24.0118 5.87851 23.9171 5.78371 23.8222 5.68889C24.1765 5.59987 24.1765 5.48135 23.8222 5.33333C23.991 5.32571 24.1806 5.27831 24.3911 5.19111C24.1278 4.95165 23.8907 4.6909 23.68 4.40889C23.759 4.35448 23.8064 4.28336 23.8222 4.19556Z" fill="#FB6D05"/>
<path fill-rule="evenodd" clip-rule="evenodd" d="M25.1022 7.46666C25.0835 6.99779 24.8465 6.76076 24.3911 6.75554C24.3911 6.5185 24.3911 6.28148 24.3911 6.04443C25.0113 6.13968 25.4855 6.47153 25.8133 7.03999C25.9738 7.77858 25.7367 7.9208 25.1022 7.46666Z" fill="#FBEEDA"/>
<path fill-rule="evenodd" clip-rule="evenodd" d="M14.72 9.03113C17.28 9.03113 19.84 9.03113 22.4 9.03113C22.4 9.41039 22.4 9.78964 22.4 10.1689C22.3526 10.1689 22.3051 10.1689 22.2578 10.1689C22.2578 9.83706 22.2578 9.5052 22.2578 9.17335C18.0385 9.17335 13.8193 9.17335 9.59999 9.17335C9.59999 9.5052 9.59999 9.83706 9.59999 10.1689C9.55258 10.1689 9.50517 10.1689 9.45776 10.1689C9.45776 9.78964 9.45776 9.41039 9.45776 9.03113C11.2118 9.03113 12.9659 9.03113 14.72 9.03113Z" fill="#F2B989"/>
<path fill-rule="evenodd" clip-rule="evenodd" d="M5.04888 8.03558C5.2385 8.03558 5.42814 8.03558 5.61777 8.03558C5.64653 8.3896 5.57541 8.72145 5.40444 9.03114C5.16847 9.21842 5.00256 9.45546 4.90666 9.74225C4.73758 9.87433 4.54794 9.92173 4.33777 9.88447C4.45675 9.22034 4.69378 8.60403 5.04888 8.03558Z" fill="#FAF1E0"/>
<path fill-rule="evenodd" clip-rule="evenodd" d="M22.2578 10.1689C22.1551 10.2283 22.084 10.3231 22.0444 10.4533C21.9971 10.9274 21.9496 11.4015 21.9022 11.8756C21.8548 11.8282 21.8073 11.7807 21.76 11.7333C21.8551 13.1098 21.8314 14.4846 21.6889 15.8578C21.7345 16.6437 21.6872 17.4023 21.5466 18.1333C21.3994 19.4837 21.281 20.8586 21.1911 22.2578C20.6643 22.3416 20.1665 22.4838 19.6978 22.6845C19.5555 22.6845 19.4133 22.6845 19.2711 22.6845C18.946 22.698 18.6615 22.7928 18.4178 22.9689C17.9422 23.1123 17.4681 23.2545 16.9955 23.3956C16.3318 23.5851 15.6682 23.5851 15.0044 23.3956C14.4355 23.2533 13.8666 23.1111 13.2978 22.9689C13.07 22.745 12.7855 22.6502 12.4444 22.6845C11.8501 22.5812 11.2813 22.3916 10.7378 22.1156C10.6051 21.5568 10.5577 20.9879 10.5955 20.4089C10.6152 19.71 10.5204 19.0463 10.3111 18.4178C10.2831 17.1524 10.1409 15.9198 9.88442 14.72C9.88355 13.1964 9.78873 11.6793 9.59998 10.1689C9.59998 9.83705 9.59998 9.50519 9.59998 9.17334C13.8192 9.17334 18.0384 9.17334 22.2578 9.17334C22.2578 9.50519 22.2578 9.83705 22.2578 10.1689Z" fill="#FDFBF7"/>
<path fill-rule="evenodd" clip-rule="evenodd" d="M3.48446 9.03113C3.07675 9.8479 2.7449 10.7012 2.4889 11.5911C2.4415 11.5911 2.39408 11.5911 2.34668 11.5911C2.43072 10.5709 2.80998 9.71752 3.48446 9.03113Z" fill="#FCE7CA"/>
<path fill-rule="evenodd" clip-rule="evenodd" d="M28.3733 11.0222C28.3733 11.3067 28.3733 11.5911 28.3733 11.8755C28.1631 11.9128 27.9735 11.8654 27.8044 11.7333C27.7404 11.2761 27.5508 10.8969 27.2355 10.5955C27.2355 10.3585 27.2355 10.1215 27.2355 9.88443C27.4457 9.84717 27.6353 9.89457 27.8044 10.0267C27.998 10.3609 28.1876 10.6928 28.3733 11.0222Z" fill="#FAEFDC"/>
<path fill-rule="evenodd" clip-rule="evenodd" d="M29.2266 11.1645C29.4599 11.718 29.6495 12.2869 29.7955 12.8711C29.8429 13.3452 29.8904 13.8193 29.9378 14.2934C29.9612 14.817 29.9376 15.3384 29.8666 15.8578C29.6997 15.1111 29.6048 14.3525 29.5822 13.5822C29.5348 13.6771 29.4873 13.7719 29.44 13.8667C29.2714 13.5738 29.1055 13.5501 28.9422 13.7956C29.052 13.9692 29.1942 14.1115 29.3689 14.2222C29.263 14.37 29.1208 14.4411 28.9422 14.4356C28.725 14.4252 28.5828 14.5201 28.5155 14.72C28.4682 14.72 28.4207 14.72 28.3733 14.72C28.1075 15.0237 28.0126 15.403 28.0889 15.8578C27.8993 15.8578 27.7096 15.8578 27.52 15.8578C27.4251 14.3407 27.3304 14.3407 27.2355 15.8578C26.0978 15.8578 24.96 15.8578 23.8222 15.8578C23.8222 16.2371 23.8222 16.6163 23.8222 16.9956C23.4315 17.0401 23.0522 16.9927 22.6844 16.8534C22.4637 16.2437 22.4163 15.6274 22.5422 15.0045C22.3638 14.7436 22.269 14.4592 22.2578 14.1511C22.5613 13.6338 22.7035 13.0649 22.6844 12.4445C23.4429 12.3497 24.2015 12.2548 24.96 12.16C24.96 11.8756 24.96 11.5911 24.96 11.3067C25.3393 11.3067 25.7184 11.3067 26.0978 11.3067C26.1451 10.7378 26.1926 10.7378 26.24 11.3067C26.5718 11.3067 26.9037 11.3067 27.2355 11.3067C27.3196 11.3993 27.4143 11.4942 27.52 11.5911C27.3577 11.7228 27.3577 11.8413 27.52 11.9467C27.8485 12.0173 28.1803 12.041 28.5155 12.0178C28.4672 11.5014 28.5858 11.0273 28.8711 10.5956C28.8995 10.8544 29.0181 11.044 29.2266 11.1645Z" fill="#FE7201"/>
<path fill-rule="evenodd" clip-rule="evenodd" d="M19.84 13.2978C19.84 12.8237 19.84 12.3496 19.84 11.8756C17.2326 11.8756 14.6251 11.8756 12.0178 11.8756C12.0178 12.0652 12.0178 12.2548 12.0178 12.4444C11.9704 12.4444 11.923 12.4444 11.8755 12.4444C11.8755 12.2074 11.8755 11.9704 11.8755 11.7333C14.5778 11.7333 17.28 11.7333 19.9822 11.7333C20.027 12.2839 19.9797 12.8054 19.84 13.2978Z" fill="#E0A371"/>
<path fill-rule="evenodd" clip-rule="evenodd" d="M28.5155 9.31555C28.8584 9.8721 29.0954 10.4884 29.2266 11.1644C29.0181 11.044 28.8995 10.8544 28.8711 10.5956C28.5858 11.0273 28.4672 11.5014 28.5155 12.0178C28.1803 12.041 27.8485 12.0173 27.52 11.9467C27.3577 11.8412 27.3577 11.7227 27.52 11.5911C27.4143 11.4941 27.3196 11.3993 27.2355 11.3067C27.2355 11.0696 27.2355 10.8326 27.2355 10.5956C27.5508 10.8969 27.7404 11.2762 27.8044 11.7333C27.9735 11.8654 28.1631 11.9128 28.3733 11.8756C28.3733 11.5911 28.3733 11.3067 28.3733 11.0222C28.5005 10.765 28.6427 10.5043 28.8 10.24C28.5848 9.97273 28.4901 9.66458 28.5155 9.31555Z" fill="#F27F25"/>
<path fill-rule="evenodd" clip-rule="evenodd" d="M19.84 13.2978C18.0163 13.4394 16.1674 13.4868 14.2933 13.44C14.0563 13.44 13.8193 13.44 13.5822 13.44C15.5957 13.2984 17.6341 13.2509 19.6978 13.2978C19.6978 12.8711 19.6978 12.4444 19.6978 12.0178C17.1834 11.9704 14.6708 12.0178 12.16 12.16C12.2347 12.2585 12.3295 12.3296 12.4445 12.3733C12.1854 12.7226 12.0906 13.1256 12.16 13.5822C12.0216 13.2341 11.9742 12.8548 12.0178 12.4444C12.0178 12.2548 12.0178 12.0652 12.0178 11.8755C14.6252 11.8755 17.2327 11.8755 19.84 11.8755C19.84 12.3496 19.84 12.8237 19.84 13.2978Z" fill="#DD762C"/>
<path fill-rule="evenodd" clip-rule="evenodd" d="M9.45777 10.1689C9.50517 10.1689 9.55259 10.1689 9.59999 10.1689C9.78875 11.6793 9.88357 13.1964 9.88443 14.72C9.91365 15.6271 9.86624 16.5278 9.74221 17.4222C9.63307 17.3266 9.53825 17.2082 9.45777 17.0667C9.48853 16.3016 9.51224 15.5194 9.52888 14.72C9.4224 15.1731 9.25647 15.5998 9.0311 16C9.23889 16.3287 9.28629 16.6605 9.17332 16.9956C9.04124 16.8264 8.99384 16.6369 9.0311 16.4267C8.65184 16.4267 8.27259 16.4267 7.89332 16.4267C7.89332 16.2371 7.89332 16.0474 7.89332 15.8578C7.51406 15.8578 7.13481 15.8578 6.75555 15.8578C6.75555 16.1422 6.75555 16.4267 6.75555 16.7111C5.95257 16.8263 5.14664 16.921 4.33777 16.9956C4.44918 17.5141 4.47289 18.0355 4.40888 18.56C4.36192 18.1584 4.2434 17.7791 4.05332 17.4222C4.06871 17.2882 4.11611 17.1698 4.19555 17.0667C3.69134 16.9616 3.21726 17.0327 2.77332 17.28C2.63659 17.531 2.58919 17.8155 2.6311 18.1333C2.38942 18.1372 2.1998 18.232 2.06221 18.4178C2.08662 18.2767 2.0392 18.182 1.91999 18.1333C1.73036 16.6162 1.73036 15.0993 1.91999 13.5822C2.03846 12.9306 2.18068 12.2669 2.34666 11.5911C2.39406 11.5911 2.44148 11.5911 2.48888 11.5911C2.50917 11.8418 2.46177 12.0788 2.34666 12.3022C2.47675 12.42 2.57157 12.5622 2.6311 12.7289C2.40265 12.9985 2.45005 13.1881 2.77332 13.2978C2.77332 13.677 2.77332 14.0563 2.77332 14.4356C3.00074 14.4737 3.19038 14.4262 3.34221 14.2933C3.45222 13.7756 3.54703 13.2541 3.62666 12.7289C3.58097 12.5087 3.43875 12.4139 3.19999 12.4444C3.17665 12.0622 3.20036 11.683 3.2711 11.3067C3.34157 11.5872 3.36527 11.8717 3.34221 12.16C3.53184 12.16 3.72148 12.16 3.9111 12.16C3.9111 12.3496 3.9111 12.5393 3.9111 12.7289C4.14204 12.7488 4.30796 12.654 4.40888 12.4444C4.47857 12.6284 4.50228 12.818 4.47999 13.0133C4.85925 13.0133 5.2385 13.0133 5.61777 13.0133C5.61777 12.8237 5.61777 12.6341 5.61777 12.4444C6.75555 12.4444 7.89332 12.4444 9.0311 12.4444C9.00763 12.9209 9.03134 13.3949 9.10221 13.8667C9.16374 12.6259 9.28225 11.3933 9.45777 10.1689Z" fill="#FC6E04"/>
<path fill-rule="evenodd" clip-rule="evenodd" d="M13.5822 13.44C13.5822 13.4874 13.5822 13.5348 13.5822 13.5822C13.5108 14.3414 13.4871 15.1 13.5111 15.8578C14.6489 15.7359 15.8103 15.7122 16.9956 15.7867C17.3749 15.9289 17.3749 16.0711 16.9956 16.2134C17.3834 16.3297 17.7627 16.3061 18.1333 16.1422C17.9585 16.0312 17.769 15.9601 17.5644 15.9289C18.179 15.8579 18.7952 15.8342 19.4133 15.8578C19.4133 16.2371 19.4133 16.6163 19.4133 16.9956C19.2238 16.9956 19.034 16.9956 18.8444 16.9956C18.775 17.4523 18.8699 17.8552 19.1289 18.2045C18.8116 18.7249 18.7642 19.2701 18.9867 19.84C18.7529 19.8705 18.5395 19.823 18.3467 19.6978C18.278 19.8326 18.2544 19.9749 18.2756 20.1245C17.9438 20.1245 17.6118 20.1245 17.28 20.1245C17.28 19.9349 17.28 19.7452 17.28 19.5556C17.611 19.5916 17.8954 19.4967 18.1333 19.2711C18.018 19.1693 17.9231 19.0507 17.8489 18.9156C18.0318 18.1132 18.0318 17.3309 17.8489 16.5689C16 16.5689 14.1511 16.5689 12.3022 16.5689C12.3022 16.3318 12.3022 16.0949 12.3022 15.8578C12.2548 15.0993 12.2074 14.3407 12.16 13.5822C12.0906 13.1256 12.1854 12.7227 12.4444 12.3734C12.3295 12.3296 12.2347 12.2585 12.16 12.16C14.6708 12.0179 17.1834 11.9705 19.6978 12.0178C19.6978 12.4445 19.6978 12.8711 19.6978 13.2978C17.6341 13.251 15.5957 13.2984 13.5822 13.44Z" fill="#F76D03"/>
<path fill-rule="evenodd" clip-rule="evenodd" d="M22.2578 10.1689C22.1147 12.0905 21.9251 13.9868 21.6889 15.8578C21.8314 14.4846 21.8552 13.1098 21.76 11.7333C21.8074 11.7807 21.8549 11.8281 21.9022 11.8756C21.9496 11.4015 21.9971 10.9274 22.0445 10.4533C22.084 10.3231 22.1551 10.2283 22.2578 10.1689Z" fill="#FAEDD4"/>
<path fill-rule="evenodd" clip-rule="evenodd" d="M3.19998 12.4444C3.43874 12.4139 3.58097 12.5087 3.62665 12.7289C3.53422 12.6856 3.43941 12.6382 3.3422 12.5866C3.0511 13.1162 2.90888 13.6851 2.91554 14.2933C3.05776 14.2933 3.19998 14.2933 3.3422 14.2933C3.19037 14.4262 3.00073 14.4737 2.77332 14.4355C2.77332 14.0563 2.77332 13.677 2.77332 13.2978C2.84655 12.9776 2.98877 12.6931 3.19998 12.4444Z" fill="#FEE1BD"/>
<path fill-rule="evenodd" clip-rule="evenodd" d="M29.7955 12.8711C30.066 13.2746 30.1609 13.7487 30.08 14.2933C30.0326 14.2933 29.9851 14.2933 29.9378 14.2933C29.8904 13.8192 29.8429 13.3452 29.7955 12.8711Z" fill="#FCDDB2"/>
<path fill-rule="evenodd" clip-rule="evenodd" d="M3.62668 12.7289C3.54705 13.2541 3.45224 13.7756 3.34223 14.2933C3.20001 14.2933 3.05779 14.2933 2.91557 14.2933C2.90891 13.6851 3.05113 13.1162 3.34223 12.5867C3.43944 12.6383 3.53425 12.6857 3.62668 12.7289Z" fill="#FAF9F2"/>
<path fill-rule="evenodd" clip-rule="evenodd" d="M13.5822 13.5822C13.5822 13.5348 13.5822 13.4874 13.5822 13.44C13.8193 13.44 14.0563 13.44 14.2933 13.44C14.1925 13.5686 14.0503 13.616 13.8667 13.5822C13.8667 14.0089 13.8667 14.4356 13.8667 14.8622C15.8578 14.8622 17.8489 14.8622 19.84 14.8622C19.8829 15.2262 19.8354 15.5581 19.6978 15.8578C19.6978 15.5733 19.6978 15.2889 19.6978 15.0044C17.754 15.0044 15.8104 15.0044 13.8667 15.0044C13.7718 14.5304 13.677 14.0563 13.5822 13.5822Z" fill="#FEEED8"/>
<path fill-rule="evenodd" clip-rule="evenodd" d="M11.8756 12.4445C11.923 12.4445 11.9704 12.4445 12.0178 12.4445C11.9742 12.8548 12.0216 13.2341 12.16 13.5822C12.2074 14.3407 12.2548 15.0993 12.3023 15.8578C12.1248 15.7392 12.03 15.5496 12.0178 15.2889C11.8995 14.3444 11.8521 13.3962 11.8756 12.4445Z" fill="#FDDFBC"/>
<path fill-rule="evenodd" clip-rule="evenodd" d="M13.8666 15.0045C15.8104 15.0045 17.754 15.0045 19.6977 15.0045C19.6977 15.2889 19.6977 15.5733 19.6977 15.8578C19.6504 15.8578 19.6029 15.8578 19.5555 15.8578C19.5555 15.6207 19.5555 15.3838 19.5555 15.1467C17.6341 15.1935 15.7377 15.1461 13.8666 15.0045Z" fill="#E49C65"/>
<path fill-rule="evenodd" clip-rule="evenodd" d="M1.92001 13.5822C1.73038 15.0993 1.73038 16.6162 1.92001 18.1333C1.70451 17.4108 1.60971 16.6522 1.63556 15.8578C1.60971 15.0633 1.70451 14.3047 1.92001 13.5822Z" fill="#F9CDA4"/>
<path fill-rule="evenodd" clip-rule="evenodd" d="M13.5822 13.5822C13.6771 14.0563 13.7719 14.5304 13.8667 15.0044C15.7378 15.1461 17.6342 15.1934 19.5556 15.1467C19.5556 15.3837 19.5556 15.6207 19.5556 15.8578C19.5556 16.2371 19.5556 16.6162 19.5556 16.9955C19.5082 16.9955 19.4607 16.9955 19.4134 16.9955C19.4134 16.6162 19.4134 16.2371 19.4134 15.8578C18.7953 15.8342 18.179 15.8579 17.5645 15.9289C17.769 15.96 17.9586 16.0311 18.1334 16.1422C17.7627 16.3061 17.3834 16.3297 16.9956 16.2133C17.3749 16.0711 17.3749 15.9289 16.9956 15.7867C15.8103 15.7121 14.6489 15.7359 13.5111 15.8578C13.4871 15.1 13.5108 14.3414 13.5822 13.5822Z" fill="#EA6B06"/>
<path fill-rule="evenodd" clip-rule="evenodd" d="M9.7422 17.4222C9.69895 18.2865 9.77006 19.1398 9.95553 19.9822C10.0503 20.1718 10.1452 20.1718 10.24 19.9822C10.2854 20.5104 10.3565 21.0319 10.4533 21.5466C10.341 21.7044 10.2698 21.8939 10.24 22.1155C10.1703 21.9316 10.1466 21.7419 10.1689 21.5466C9.93182 21.5466 9.69479 21.5466 9.45775 21.5466C9.48126 21.023 9.45755 20.5016 9.38664 19.9822C9.29182 20.1718 9.19701 20.1718 9.10219 19.9822C9.03353 20.117 9.00982 20.2592 9.03108 20.4089C8.65182 20.4089 8.27257 20.4089 7.89331 20.4089C7.89331 20.7882 7.89331 21.1673 7.89331 21.5466C7.51404 21.5466 7.13479 21.5466 6.75553 21.5466C6.75553 21.1673 6.75553 20.7882 6.75553 20.4089C6.37626 20.4089 5.99701 20.4089 5.61775 20.4089C5.67684 20.96 5.60573 21.4815 5.40442 21.9733C5.41541 21.7972 5.3917 21.655 5.33331 21.5466C5.17369 21.7073 4.98405 21.8022 4.76442 21.8311C4.56751 21.6461 4.35418 21.6461 4.12442 21.8311C4.07701 22.1155 4.0296 22.4 3.98219 22.6844C3.88738 22.4948 3.74515 22.3526 3.55553 22.2577C3.45828 22.0751 3.48199 21.9092 3.62664 21.76C3.49166 21.6722 3.37313 21.6958 3.27108 21.8311C3.23149 21.7008 3.16038 21.6061 3.05775 21.5466C2.39414 20.6451 2.06229 19.602 2.06219 18.4177C2.19978 18.232 2.38941 18.1371 2.63108 18.1333C2.58917 17.8154 2.63657 17.531 2.77331 17.28C3.21724 17.0326 3.69132 16.9615 4.19553 17.0666C4.1161 17.1697 4.06869 17.2882 4.05331 17.4222C4.24339 17.779 4.3619 18.1583 4.40886 18.56C4.47288 18.0355 4.44917 17.5141 4.33775 16.9955C5.14663 16.921 5.95256 16.8263 6.75553 16.7111C6.75553 16.4266 6.75553 16.1422 6.75553 15.8577C7.13479 15.8577 7.51404 15.8577 7.89331 15.8577C7.89331 16.0473 7.89331 16.2371 7.89331 16.4266C8.27257 16.4266 8.65182 16.4266 9.03108 16.4266C8.99382 16.6368 9.04122 16.8264 9.17331 16.9955C9.28627 16.6605 9.23887 16.3286 9.03108 16C9.25645 15.5998 9.42238 15.1731 9.52886 14.72C9.51222 15.5194 9.48851 16.3016 9.45775 17.0666C9.53823 17.2081 9.63305 17.3266 9.7422 17.4222Z" fill="#FD7303"/>
<path fill-rule="evenodd" clip-rule="evenodd" d="M22.2578 10.1689C22.3051 10.1689 22.3526 10.1689 22.4 10.1689C22.4121 10.7873 22.4595 11.4036 22.5422 12.0178C22.5371 12.365 22.4186 12.6494 22.1867 12.8711C22.0722 13.3257 22.0959 13.7524 22.2578 14.1511C22.269 14.4592 22.3639 14.7436 22.5422 15.0044C22.4164 15.6274 22.4637 16.2436 22.6844 16.8533C23.0522 16.9927 23.4315 17.0401 23.8222 16.9956C23.8222 16.6162 23.8222 16.2371 23.8222 15.8578C24.96 15.8578 26.0978 15.8578 27.2356 15.8578C27.3304 14.3407 27.4251 14.3407 27.52 15.8578C27.7096 15.8578 27.8993 15.8578 28.0889 15.8578C28.0127 15.4029 28.1075 15.0236 28.3733 14.72C28.3733 15.3837 28.3733 16.0474 28.3733 16.7111C28.6578 16.7111 28.9422 16.7111 29.2267 16.7111C29.272 16.0195 29.2247 15.3557 29.0845 14.72C29.0371 14.6251 28.9896 14.5304 28.9422 14.4356C29.1209 14.4411 29.2631 14.37 29.3689 14.2222C29.1942 14.1114 29.052 13.9692 28.9422 13.7956C29.1055 13.5501 29.2715 13.5738 29.44 13.8667C29.4874 13.7718 29.5349 13.677 29.5822 13.5822C29.6048 14.3525 29.6997 15.1111 29.8667 15.8578C29.9376 15.3384 29.9613 14.817 29.9378 14.2933C29.9851 14.2933 30.0326 14.2933 30.08 14.2933C30.1632 15.994 30.021 17.6533 29.6533 19.2711C28.9407 19.2475 28.2296 19.2712 27.52 19.3422C27.6149 19.3896 27.7096 19.4371 27.8045 19.4844C27.6935 19.8682 27.5039 20.2 27.2356 20.48C27.3707 20.8259 27.3707 21.1814 27.2356 21.5467C26.4771 21.5467 25.7185 21.5467 24.96 21.5467C24.96 21.3571 24.96 21.1674 24.96 20.9778C24.5807 20.9778 24.2015 20.9778 23.8222 20.9778C23.8222 21.1674 23.8222 21.3571 23.8222 21.5467C23.3956 21.5467 22.9689 21.5467 22.5422 21.5467C22.5148 20.985 22.4437 20.985 22.3289 21.5467C22.2582 21.923 22.2345 22.3023 22.2578 22.6844C21.9713 22.6691 21.7344 22.7638 21.5467 22.9689C21.4118 22.7587 21.2223 22.6165 20.9778 22.5422C21.1194 22.5544 21.2379 22.5069 21.3333 22.4C21.4915 20.982 21.5626 19.5598 21.5467 18.1333C21.6872 17.4023 21.7345 16.6437 21.6889 15.8578C21.9251 13.9868 22.1147 12.0905 22.2578 10.1689Z" fill="#FC7904"/>
<path fill-rule="evenodd" clip-rule="evenodd" d="M28.9422 14.4356C28.9896 14.5304 29.0371 14.6252 29.0845 14.72C29.0845 15.3363 29.0845 15.9527 29.0845 16.5689C28.8949 16.5689 28.7051 16.5689 28.5156 16.5689C28.5156 15.9527 28.5156 15.3363 28.5156 14.72C28.5828 14.5201 28.7251 14.4252 28.9422 14.4356Z" fill="#FCF5E5"/>
<path fill-rule="evenodd" clip-rule="evenodd" d="M28.3734 14.72C28.4207 14.72 28.4682 14.72 28.5156 14.72C28.5156 15.3362 28.5156 15.9526 28.5156 16.5689C28.7052 16.5689 28.8949 16.5689 29.0845 16.5689C29.0845 15.9526 29.0845 15.3362 29.0845 14.72C29.2247 15.3557 29.2721 16.0195 29.2267 16.7111C28.9422 16.7111 28.6578 16.7111 28.3734 16.7111C28.3734 16.0473 28.3734 15.3837 28.3734 14.72Z" fill="#F6A557"/>
<path fill-rule="evenodd" clip-rule="evenodd" d="M2.77333 17.28C2.96295 17.28 3.15259 17.28 3.34221 17.28C3.57003 17.918 3.66485 18.5818 3.62666 19.2711C3.43703 19.2711 3.24739 19.2711 3.05777 19.2711C2.84705 18.629 2.75223 17.9654 2.77333 17.28Z" fill="#FCECD9"/>
<path fill-rule="evenodd" clip-rule="evenodd" d="M14.1511 18.7022C13.8813 18.4507 13.7154 18.1188 13.6533 17.7067C13.5007 18.2164 13.4059 18.7378 13.3689 19.2711C13.3215 18.8918 13.2741 18.5127 13.2267 18.1334C13.0082 18.6855 12.9134 19.2543 12.9422 19.84C13.1275 19.9232 13.2934 20.0179 13.44 20.1245C13.1239 20.1703 12.8632 20.0754 12.6578 19.84C12.5944 19.0322 12.5233 18.2264 12.4445 17.4222C12.9659 17.4222 13.4874 17.4222 14.0089 17.4222C14.0379 17.8515 14.0853 18.2781 14.1511 18.7022Z" fill="#E77517"/>
<path fill-rule="evenodd" clip-rule="evenodd" d="M19.4133 16.9955C19.4607 16.9955 19.5082 16.9955 19.5556 16.9955C19.5715 17.881 19.4768 18.7344 19.2711 19.5555C19.2997 18.7009 19.3471 17.8476 19.4133 16.9955Z" fill="#F8D5AD"/>
<path fill-rule="evenodd" clip-rule="evenodd" d="M10.4534 21.5467C10.4325 22.0972 10.5273 22.5714 10.7378 22.9689C11.2367 23.2418 11.7582 23.4789 12.3022 23.68C12.4083 23.8558 12.4557 24.0455 12.4445 24.2489C12.8548 24.2054 13.2341 24.2527 13.5822 24.3911C12.8237 24.3911 12.0652 24.3911 11.3067 24.3911C11.3067 24.5807 11.3067 24.7704 11.3067 24.96C10.9274 24.96 10.5482 24.96 10.1689 24.96C10.192 25.2483 10.1683 25.5327 10.0978 25.8134C9.81025 25.5258 9.52581 25.2413 9.24447 24.96C8.26261 24.9592 8.14409 25.1961 8.88891 25.6711C8.77158 25.7971 8.62935 25.8445 8.46224 25.8134C8.31786 25.2671 7.98601 25.1011 7.46669 25.3156C7.30076 24.8652 7.08742 24.8415 6.82669 25.2445C6.78294 25.1295 6.71183 25.0347 6.61335 24.96C6.31985 25.3124 6.03541 25.3124 5.76002 24.96C5.6652 25.0074 5.5704 25.0549 5.47558 25.1022C5.23431 24.8142 4.99728 24.5298 4.76447 24.2489C4.78839 24.0113 4.88321 23.8217 5.04891 23.68C5.35253 23.7302 5.54215 23.6117 5.6178 23.3245C5.37225 22.7974 5.08781 22.2996 4.76447 21.8311C4.9841 21.8023 5.17374 21.7074 5.33335 21.5467C5.39175 21.6551 5.41546 21.7973 5.40447 21.9733C5.60578 21.4815 5.67689 20.96 5.6178 20.4089C5.99706 20.4089 6.37631 20.4089 6.75558 20.4089C6.75558 20.7882 6.75558 21.1674 6.75558 21.5467C7.13484 21.5467 7.51409 21.5467 7.89335 21.5467C7.89335 21.1674 7.89335 20.7882 7.89335 20.4089C8.27262 20.4089 8.65187 20.4089 9.03113 20.4089C9.00987 20.2593 9.03358 20.1171 9.10224 19.9822C9.19706 20.1718 9.29187 20.1718 9.38669 19.9822C9.4576 20.5016 9.48131 21.023 9.4578 21.5467C9.69484 21.5467 9.93187 21.5467 10.1689 21.5467C10.1466 21.742 10.1703 21.9317 10.24 22.1156C10.2699 21.894 10.341 21.7044 10.4534 21.5467Z" fill="#FD7902"/>
<path fill-rule="evenodd" clip-rule="evenodd" d="M17.8489 16.5689C18.0318 17.3309 18.0318 18.1132 17.8489 18.9156C17.9231 19.0507 18.018 19.1693 18.1333 19.2711C17.8954 19.4967 17.611 19.5916 17.28 19.5556C17.28 19.7452 17.28 19.9349 17.28 20.1245C17.6118 20.1245 17.9438 20.1245 18.2756 20.1245C18.2544 19.9748 18.278 19.8326 18.3467 19.6978C18.5395 19.823 18.7529 19.8705 18.9867 19.84C18.7642 19.2701 18.8116 18.7249 19.1289 18.2045C18.8699 17.8552 18.775 17.4523 18.8445 16.9956C19.034 16.9956 19.2238 16.9956 19.4133 16.9956C19.3471 17.8476 19.2997 18.701 19.2711 19.5556C19.2834 19.6972 19.2358 19.8157 19.1289 19.9111C18.1163 20.3176 17.0732 20.6258 16 20.8356C15.1315 20.5976 14.2781 20.3606 13.44 20.1245C13.2934 20.0179 13.1275 19.9232 12.9422 19.84C12.9134 19.2543 13.0082 18.6855 13.2267 18.1334C13.2741 18.5127 13.3215 18.8918 13.3689 19.2711C13.4059 18.7378 13.5007 18.2164 13.6533 17.7067C13.7154 18.1188 13.8813 18.4507 14.1511 18.7022C14.7448 18.9107 15.3611 19.1005 16 19.2711C16.5215 19.0815 17.0429 18.8918 17.5645 18.7022C17.8123 18.0157 17.9072 17.3046 17.8489 16.5689Z" fill="#F2750C"/>
<path fill-rule="evenodd" clip-rule="evenodd" d="M10.3111 18.4178C10.5204 19.0463 10.6152 19.71 10.5956 20.4089C10.3523 19.7858 10.2575 19.1222 10.3111 18.4178Z" fill="#F1BE89"/>
<path fill-rule="evenodd" clip-rule="evenodd" d="M29.6534 19.2711C29.4909 20.2116 29.2065 21.1124 28.8 21.9733C28.5511 22.1382 28.4089 22.3752 28.3734 22.6844C28.3734 22.7318 28.3734 22.7793 28.3734 22.8267C28.0012 23.5247 27.5271 24.1409 26.9511 24.6755C26.7559 24.6979 26.5661 24.6741 26.3822 24.6044C26.539 24.263 26.5627 23.9074 26.4534 23.5378C26.3144 23.3566 26.1958 23.3566 26.0978 23.5378C25.7218 23.6294 25.4847 23.8664 25.3867 24.2489C25.245 24.2611 25.1266 24.2136 25.0311 24.1067C24.7896 24.549 24.6474 25.023 24.6045 25.5289C24.4701 25.0149 24.3752 24.4934 24.32 23.9644C24.1708 23.8198 24.0049 23.796 23.8222 23.8933C24.1893 24.2005 24.1893 24.5086 23.8222 24.8178C24.0118 25.1022 24.0118 25.3867 23.8222 25.6711C24.2394 25.9894 24.1919 26.1316 23.68 26.0978C23.7012 26.2474 23.6776 26.3896 23.6089 26.5244C23.3165 26.6785 23.1269 26.9155 23.04 27.2355C23.0257 26.8181 22.8123 26.6284 22.4 26.6667C22.1031 26.6837 21.9133 26.8259 21.8311 27.0933C21.6138 27.2084 21.3769 27.3032 21.12 27.3778C20.892 27.2104 20.7025 27.234 20.5511 27.4489C20.7774 27.9147 20.73 28.3413 20.4089 28.7289C20.6184 28.8299 20.7133 28.9957 20.6934 29.2267C20.3817 29.4214 20.0498 29.5636 19.6978 29.6533C19.0625 29.7055 18.4462 29.6344 17.8489 29.44C18.029 29.396 18.1949 29.3249 18.3467 29.2267C18.4171 28.946 18.4408 28.6616 18.4178 28.3733C18.0538 28.3304 17.7219 28.3779 17.4222 28.5155C17.28 28.5155 17.1378 28.5155 16.9956 28.5155C16.2832 28.3733 16.0461 28.6104 16.2845 29.2267C16.5618 29.4437 16.8936 29.5859 17.28 29.6533C17.2563 29.7007 17.2327 29.7482 17.2089 29.7955C15.4954 29.722 13.765 29.6272 12.0178 29.5111C10.9248 29.3528 9.92925 28.9735 9.03113 28.3733C8.93443 28.1045 8.91072 27.8201 8.96002 27.52C8.75388 28.0606 8.49313 28.0842 8.1778 27.5911C8.48549 27.379 8.76994 27.1657 9.03113 26.9511C9.04071 26.7436 8.99331 26.554 8.88891 26.3822C8.93213 26.2898 8.97954 26.1949 9.03113 26.0978C8.82502 26.0022 8.6354 25.9073 8.46224 25.8133C8.62935 25.8445 8.77157 25.7971 8.88891 25.6711C8.14409 25.1961 8.2626 24.9591 9.24446 24.96C9.52581 25.2413 9.81025 25.5257 10.0978 25.8133C10.1683 25.5327 10.192 25.2483 10.1689 24.96C10.5482 24.96 10.9274 24.96 11.3067 24.96C11.3067 24.7704 11.3067 24.5807 11.3067 24.3911C12.0652 24.3911 12.8237 24.3911 13.5822 24.3911C13.6907 24.5003 13.8329 24.5714 14.0089 24.6044C15.3869 24.703 16.7618 24.6794 18.1334 24.5333C18.0908 24.2341 18.1382 23.9496 18.2756 23.68C19.1215 23.8398 19.9748 23.8635 20.8356 23.7511C21.0331 23.4327 21.2702 23.172 21.5467 22.9689C21.7344 22.7638 21.9714 22.6691 22.2578 22.6844C22.2345 22.3023 22.2582 21.923 22.3289 21.5467C22.4437 20.985 22.5148 20.985 22.5422 21.5467C22.9689 21.5467 23.3956 21.5467 23.8222 21.5467C23.8222 21.3571 23.8222 21.1673 23.8222 20.9778C24.2015 20.9778 24.5807 20.9778 24.96 20.9778C24.96 21.1673 24.96 21.3571 24.96 21.5467C25.7185 21.5467 26.4771 21.5467 27.2356 21.5467C27.3707 21.1814 27.3707 20.8259 27.2356 20.48C27.5039 20.2 27.6935 19.8681 27.8045 19.4844C27.7096 19.4371 27.6149 19.3896 27.52 19.3422C28.2296 19.2712 28.9407 19.2475 29.6534 19.2711Z" fill="#FD8004"/>
<path fill-rule="evenodd" clip-rule="evenodd" d="M28.0889 19.4133C28.2311 19.4133 28.3733 19.4133 28.5155 19.4133C28.613 20.161 28.3996 20.7772 27.8755 21.2622C27.6292 21.2289 27.5106 21.0867 27.52 20.8356C27.6326 20.3264 27.8224 19.8524 28.0889 19.4133Z" fill="#F9F3E2"/>
<path fill-rule="evenodd" clip-rule="evenodd" d="M21.5466 18.1334C21.5626 19.5599 21.4915 20.9821 21.3333 22.4C21.2379 22.507 21.1194 22.5545 20.9778 22.5423C20.5485 22.5713 20.1219 22.6186 19.6978 22.6845C20.1665 22.4838 20.6643 22.3416 21.1911 22.2578C21.281 20.8586 21.3994 19.4838 21.5466 18.1334Z" fill="#E18C3C"/>
<path fill-rule="evenodd" clip-rule="evenodd" d="M28.8 21.9733C28.7869 22.3073 28.6447 22.5442 28.3734 22.6844C28.4089 22.3752 28.5511 22.1382 28.8 21.9733Z" fill="#F9CC8A"/>
<path fill-rule="evenodd" clip-rule="evenodd" d="M4.76445 21.8311C5.08779 22.2996 5.37223 22.7973 5.61778 23.3244C5.54213 23.6117 5.35251 23.7302 5.04889 23.68C4.82051 23.1523 4.53607 22.6546 4.19556 22.1866C4.2712 21.8994 4.46083 21.7809 4.76445 21.8311Z" fill="#FBF2DF"/>
<path fill-rule="evenodd" clip-rule="evenodd" d="M9.88447 14.72C10.1409 15.9198 10.2832 17.1524 10.3111 18.4177C10.2575 19.1222 10.3523 19.7858 10.5956 20.4089C10.5577 20.9878 10.6051 21.5567 10.7378 22.1155C11.2813 22.3916 11.8502 22.5812 12.4445 22.6844C12.6723 22.9083 12.9567 23.0031 13.2978 22.9689C13.8667 23.1111 14.4356 23.2533 15.0045 23.3955C15.259 23.6084 15.5671 23.7033 15.9289 23.68C16.3301 23.6931 16.6857 23.5983 16.9956 23.3955C17.4682 23.2544 17.9422 23.1122 18.4178 22.9689C18.7589 23.0031 19.0433 22.9083 19.2711 22.6844C19.4134 22.6844 19.5556 22.6844 19.6978 22.6844C20.1219 22.6186 20.5486 22.5712 20.9778 22.5422C21.2223 22.6164 21.4119 22.7587 21.5467 22.9689C21.2702 23.172 21.0331 23.4326 20.8356 23.7511C19.9749 23.8634 19.1215 23.8398 18.2756 23.68C18.1382 23.9496 18.0908 24.2341 18.1334 24.5333C16.7618 24.6794 15.3869 24.703 14.0089 24.6044C13.8329 24.5714 13.6907 24.5003 13.5822 24.3911C13.2341 24.2527 12.8548 24.2053 12.4445 24.2489C12.4557 24.0455 12.4083 23.8558 12.3022 23.68C11.7582 23.4789 11.2367 23.2418 10.7378 22.9689C10.5273 22.5713 10.4325 22.0972 10.4534 21.5466C10.3566 21.0319 10.2855 20.5104 10.24 19.9822C10.1452 20.1718 10.0504 20.1718 9.95558 19.9822C9.77011 19.1398 9.699 18.2865 9.74225 17.4222C9.86628 16.5278 9.91368 15.6271 9.88447 14.72Z" fill="#EF770B"/>
<path fill-rule="evenodd" clip-rule="evenodd" d="M15.0045 23.3956C15.6682 23.5852 16.3318 23.5852 16.9956 23.3956C16.6857 23.5984 16.3301 23.6931 15.9289 23.68C15.5671 23.7033 15.259 23.6085 15.0045 23.3956Z" fill="#F5C391"/>
<path fill-rule="evenodd" clip-rule="evenodd" d="M19.2711 22.6844C19.0433 22.9083 18.7588 23.0032 18.4178 22.9689C18.6616 22.7928 18.946 22.698 19.2711 22.6844Z" fill="#F0C792"/>
<path fill-rule="evenodd" clip-rule="evenodd" d="M12.4445 22.6844C12.7856 22.6502 13.07 22.745 13.2978 22.9689C12.9567 23.0032 12.6722 22.9083 12.4445 22.6844Z" fill="#F1C797"/>
<path fill-rule="evenodd" clip-rule="evenodd" d="M26.0978 23.5378C26.24 23.5851 26.3349 23.68 26.3822 23.8222C26.2406 23.8345 26.1221 23.787 26.0267 23.68C25.8775 23.9812 25.6641 24.2182 25.3867 24.3911C25.3867 24.3438 25.3867 24.2963 25.3867 24.2489C25.4846 23.8665 25.7217 23.6294 26.0978 23.5378Z" fill="#FDD097"/>
<path fill-rule="evenodd" clip-rule="evenodd" d="M26.3822 23.8222C26.1663 24.3712 25.8345 24.8452 25.3866 25.2444C25.2006 25.4046 25.0109 25.4046 24.8177 25.2444C24.8351 24.8474 25.0248 24.5629 25.3866 24.3911C25.6641 24.2182 25.8774 23.9812 26.0266 23.68C26.1221 23.7869 26.2405 23.8344 26.3822 23.8222Z" fill="#FBF6EA"/>
<path fill-rule="evenodd" clip-rule="evenodd" d="M28.3733 22.8267C28.3004 23.2119 28.1581 23.5675 27.9466 23.8933C27.9978 24.1283 28.0452 24.3652 28.0889 24.6044C28.0415 24.6282 27.994 24.6518 27.9466 24.6755C27.8518 24.5333 27.7571 24.3911 27.6622 24.2489C27.473 24.5116 27.5204 24.7249 27.8044 24.8889C27.6205 24.9586 27.4308 24.9823 27.2355 24.96C27.2579 25.1553 27.2341 25.345 27.1644 25.5289C27.1206 25.414 27.0495 25.3191 26.9511 25.2444C26.7588 25.3901 26.5692 25.5323 26.3822 25.6711C26.5718 25.3393 26.7615 25.0074 26.9511 24.6755C27.5271 24.1409 28.0011 23.5247 28.3733 22.8267Z" fill="#FEF0DB"/>
<path fill-rule="evenodd" clip-rule="evenodd" d="M3.0578 21.5467C3.16043 21.6061 3.23154 21.7009 3.27113 21.8311C3.37318 21.6959 3.49171 21.6723 3.62669 21.76C3.48203 21.9092 3.45833 22.0752 3.55558 22.2578C3.7452 22.3527 3.88743 22.4949 3.98224 22.6845C4.02965 22.4 4.07706 22.1156 4.12447 21.8311C4.35423 21.6461 4.56756 21.6461 4.76447 21.8311C4.46085 21.7809 4.27123 21.8994 4.19558 22.1867C4.53609 22.6546 4.82053 23.1524 5.04891 23.68C4.88321 23.8217 4.78839 24.0113 4.76447 24.2489C4.99728 24.5298 5.23431 24.8142 5.47558 25.1022C5.5704 25.0549 5.6652 25.0074 5.76002 24.96C6.03541 25.3125 6.31985 25.3125 6.61336 24.96C6.71183 25.0347 6.78294 25.1296 6.82669 25.2445C7.08743 24.8416 7.30076 24.8652 7.46669 25.3156C7.98601 25.1011 8.31786 25.2671 8.46224 25.8134C8.6354 25.9074 8.82503 26.0022 9.03113 26.0978C8.97955 26.1949 8.93213 26.2898 8.88891 26.3822C8.42413 25.9842 7.90264 25.6997 7.32447 25.5289C7.39794 26.2444 7.7772 26.7422 8.46224 27.0222C8.66541 27.1046 8.85503 27.0808 9.03113 26.9511C8.76994 27.1657 8.4855 27.3791 8.1778 27.5911C8.49314 28.0842 8.75389 28.0606 8.96002 27.52C8.91073 27.8201 8.93444 28.1046 9.03113 28.3734C7.87322 27.6742 6.78286 26.8682 5.76002 25.9556C4.8746 25.0097 4.11609 23.9666 3.48447 22.8267C3.29944 22.4104 3.15721 21.9837 3.0578 21.5467Z" fill="#F78015"/>
<path fill-rule="evenodd" clip-rule="evenodd" d="M25.3867 24.2489C25.3867 24.2962 25.3867 24.3437 25.3867 24.3911C25.0248 24.5629 24.8351 24.8473 24.8178 25.2444C25.2013 25.5893 25.628 25.5893 26.0978 25.2444C25.9723 25.6762 25.6405 25.9844 25.1022 26.1689C24.9452 26.5631 24.6845 26.8712 24.32 27.0933C24.2762 26.9784 24.2051 26.8835 24.1067 26.8089C23.9693 27.0785 23.9219 27.363 23.9644 27.6622C22.9867 28.4165 21.8964 28.9379 20.6933 29.2266C20.7132 28.9957 20.6184 28.8298 20.4089 28.7289C20.73 28.3413 20.7774 27.9146 20.5511 27.4489C20.7024 27.234 20.892 27.2104 21.12 27.3778C21.0061 27.5971 20.9587 27.834 20.9778 28.0889C21.5273 28.0032 22.0488 27.8374 22.5422 27.5911C22.6711 27.3494 22.7184 27.0886 22.6844 26.8089C22.369 26.8251 22.0845 26.9198 21.8311 27.0933C21.9133 26.8259 22.103 26.6837 22.4 26.6666C22.8123 26.6284 23.0256 26.8181 23.04 27.2355C23.1269 26.9155 23.3165 26.6784 23.6089 26.5244C23.6776 26.3896 23.7012 26.2474 23.68 26.0978C24.1918 26.1316 24.2393 25.9894 23.8222 25.6711C24.0118 25.3866 24.0118 25.1022 23.8222 24.8178C24.1893 24.5086 24.1893 24.2005 23.8222 23.8933C24.0048 23.796 24.1708 23.8198 24.32 23.9644C24.3752 24.4933 24.47 25.0149 24.6044 25.5289C24.6474 25.023 24.7896 24.549 25.0311 24.1066C25.1265 24.2136 25.245 24.2611 25.3867 24.2489Z" fill="#F9850F"/>
<path fill-rule="evenodd" clip-rule="evenodd" d="M8.88891 26.3822C8.99331 26.554 9.04072 26.7436 9.03113 26.9511C8.85503 27.0808 8.66541 27.1045 8.46224 27.0222C7.7772 26.7422 7.39793 26.2444 7.32446 25.5289C7.90264 25.6997 8.42413 25.9841 8.88891 26.3822Z" fill="#FBEED9"/>
<path fill-rule="evenodd" clip-rule="evenodd" d="M26.0978 23.5377C26.1958 23.3566 26.3144 23.3566 26.4533 23.5377C26.5627 23.9074 26.5389 24.2629 26.3822 24.6044C26.5661 24.6741 26.7558 24.6979 26.9511 24.6755C26.7615 25.0073 26.5718 25.3393 26.3822 25.6711C25.5762 26.3348 24.7704 26.9984 23.9644 27.6622C23.9219 27.363 23.9693 27.0785 24.1066 26.8089C24.2051 26.8835 24.2762 26.9784 24.32 27.0933C24.6845 26.8712 24.9452 26.5631 25.1022 26.1689C25.6405 25.9844 25.9723 25.6762 26.0978 25.2444C25.628 25.5893 25.2013 25.5893 24.8178 25.2444C25.0109 25.4046 25.2006 25.4046 25.3867 25.2444C25.8345 24.8452 26.1663 24.3712 26.3822 23.8222C26.3348 23.68 26.24 23.5851 26.0978 23.5377Z" fill="#F28A1E"/>
<path fill-rule="evenodd" clip-rule="evenodd" d="M21.12 27.3778C21.3769 27.3033 21.6138 27.2084 21.8311 27.0933C22.0846 26.9198 22.369 26.8251 22.6845 26.8089C22.7185 27.0887 22.6711 27.3495 22.5422 27.5911C22.0489 27.8375 21.5273 28.0033 20.9778 28.0889C20.9587 27.834 21.0061 27.5971 21.12 27.3778Z" fill="#FBF3E2"/>
<path fill-rule="evenodd" clip-rule="evenodd" d="M12.4445 28.2311C12.1902 28.1905 11.9531 28.2379 11.7334 28.3733C11.7849 28.4704 11.8324 28.5653 11.8756 28.6577C11.5081 28.5798 11.3659 28.3427 11.4489 27.9466C11.8261 27.9338 12.158 28.0286 12.4445 28.2311Z" fill="#FFE6BB"/>
<path fill-rule="evenodd" clip-rule="evenodd" d="M12.4444 28.2311C12.7724 28.3012 13.1042 28.3486 13.44 28.3733C13.44 28.5629 13.44 28.7526 13.44 28.9422C12.8771 28.9776 12.3556 28.8828 11.8756 28.6578C11.8323 28.5653 11.7849 28.4705 11.7333 28.3733C11.9531 28.2379 12.1902 28.1906 12.4444 28.2311Z" fill="#FAF4E2"/>
<path fill-rule="evenodd" clip-rule="evenodd" d="M16.9956 28.5156C16.8378 28.6279 16.6483 28.699 16.4267 28.7289C16.3076 28.8727 16.2603 29.0387 16.2845 29.2267C16.0461 28.6104 16.2832 28.3734 16.9956 28.5156Z" fill="#F6B463"/>
<path fill-rule="evenodd" clip-rule="evenodd" d="M16.9956 28.5155C17.1378 28.5155 17.28 28.5155 17.4222 28.5155C17.6946 28.4751 17.9315 28.5225 18.1333 28.6578C18.0096 28.9101 17.82 29.0996 17.5644 29.2266C17.1378 29.2266 16.7111 29.2266 16.2844 29.2266C16.2603 29.0386 16.3076 28.8726 16.4267 28.7289C16.6483 28.699 16.8378 28.6279 16.9956 28.5155Z" fill="#FCF9EC"/>
<path fill-rule="evenodd" clip-rule="evenodd" d="M18.1333 28.6578C18.3255 29.1311 18.1358 29.3207 17.5645 29.2267C17.82 29.0997 18.0096 28.9101 18.1333 28.6578Z" fill="#F9D595"/>
<path fill-rule="evenodd" clip-rule="evenodd" d="M17.4222 28.5156C17.7219 28.3779 18.0538 28.3304 18.4178 28.3733C18.4408 28.6616 18.4171 28.9461 18.3467 29.2267C18.1949 29.3249 18.0289 29.3961 17.8489 29.44C18.4462 29.6344 19.0625 29.7055 19.6978 29.6533C19.6978 29.7482 19.6504 29.7956 19.5555 29.7956C17.5796 30.2094 15.5885 30.3043 13.5822 30.08C13.1446 29.8871 12.6705 29.7687 12.16 29.7244C12.0809 29.67 12.0335 29.5989 12.0178 29.5111C13.765 29.6272 15.4954 29.722 17.2089 29.7956C17.2326 29.7482 17.2562 29.7007 17.28 29.6533C16.8936 29.5859 16.5618 29.4437 16.2844 29.2267C16.7111 29.2267 17.1378 29.2267 17.5644 29.2267C18.1357 29.3207 18.3255 29.1311 18.1333 28.6578C17.9315 28.5225 17.6946 28.4752 17.4222 28.5156Z" fill="#F68C20"/>
<path fill-rule="evenodd" clip-rule="evenodd" d="M19.5555 29.7955C18.9838 30.0508 18.3676 30.2168 17.7067 30.2933C16.5215 30.3882 15.3362 30.3882 14.1511 30.2933C13.9295 30.2634 13.7399 30.1923 13.5822 30.08C15.5885 30.3043 17.5797 30.2094 19.5555 29.7955Z" fill="#FFF7E0"/>
</g>
<defs>
<clipPath id="clip0_51_186">
<rect width="32" height="32" fill="white"/>
</clipPath>
</defs>
</svg>
