<svg width="32" height="32" viewBox="0 0 32 32" fill="none" xmlns="http://www.w3.org/2000/svg">
<g clip-path="url(#clip0_51_338)">
<path opacity="0.993" fill-rule="evenodd" clip-rule="evenodd" d="M3.83672 -0.081604C4.0544 -0.081604 4.2721 -0.081604 4.48978 -0.081604C6.29573 0.619495 7.84675 1.70793 9.14285 3.1837C9.61822 3.87492 9.91754 4.63683 10.0408 5.46942C8.10613 6.91302 6.52789 8.65451 5.30611 10.6939C4.38605 9.90969 3.5425 9.03895 2.7755 8.08166C1.95788 6.44168 1.84903 4.75461 2.44897 3.02044C2.8243 1.94357 3.28689 0.909558 3.83672 -0.081604Z" fill="#FF1F3D"/>
<path opacity="0.976" fill-rule="evenodd" clip-rule="evenodd" d="M27.3469 -0.081604C27.5646 -0.081604 27.7823 -0.081604 28 -0.081604C29.4215 2.06644 29.9386 4.40658 29.551 6.9388C28.9291 8.514 27.9223 9.76571 26.5306 10.6939C25.7995 9.6708 25.0648 8.63678 24.3265 7.59187C23.4996 6.84509 22.6561 6.1376 21.7959 5.46942C22.1899 3.67706 23.1694 2.2893 24.7347 1.30615C25.5948 0.79485 26.4654 0.332265 27.3469 -0.081604Z" fill="#E20058"/>
<path opacity="0.993" fill-rule="evenodd" clip-rule="evenodd" d="M15.9183 3.83673C15.9183 9.0068 15.9183 14.1769 15.9183 19.3469C14.3957 19.457 13.2529 20.1644 12.4898 21.4694C11.3799 20.4413 10.2914 19.3801 9.22447 18.2857C7.15402 17.0953 5.08599 17.0953 3.02039 18.2857C2.27386 18.898 1.56638 19.5238 0.897942 20.1633C0.777303 20.1846 0.668459 20.1574 0.571411 20.0816C2.25832 17.0072 3.83654 13.8779 5.3061 10.6939C6.52788 8.65448 8.10612 6.91299 10.0408 5.46938C11.8675 4.46834 13.8267 3.92413 15.9183 3.83673Z" fill="#FE7038"/>
<path opacity="0.997" fill-rule="evenodd" clip-rule="evenodd" d="M15.9184 3.83673C18.0084 3.92375 19.9675 4.46796 21.7959 5.46938C22.6562 6.13756 23.4996 6.84506 24.3266 7.59183C25.0648 8.63675 25.7995 9.67077 26.5306 10.6939C28.0126 13.8211 29.5365 16.9231 31.1021 20C29.9421 19.1737 28.7448 18.3846 27.5102 17.6326C25.7777 17.1455 24.145 17.3633 22.6123 18.2857C21.5453 19.3801 20.4568 20.4413 19.347 21.4694C18.5848 20.1659 17.442 19.4583 15.9184 19.3469C15.9184 14.1769 15.9184 9.0068 15.9184 3.83673Z" fill="#FE1F3D"/>
<path fill-rule="evenodd" clip-rule="evenodd" d="M11.6735 12.3265C12.3674 12.7475 12.9661 13.2917 13.4694 13.9592C13.0885 14.449 12.6531 14.8844 12.1633 15.2653C11.5646 14.7755 11.0204 14.2313 10.5306 13.6327C10.9153 13.1941 11.2962 12.7587 11.6735 12.3265Z" fill="#26495B"/>
<path fill-rule="evenodd" clip-rule="evenodd" d="M19.8368 12.3265C20.4212 12.638 20.911 13.0734 21.3061 13.6327C20.8164 14.2313 20.2722 14.7755 19.6735 15.2653C19.1837 14.8844 18.7483 14.449 18.3674 13.9592C18.8608 13.4117 19.3506 12.8675 19.8368 12.3265Z" fill="#20303D"/>
<path opacity="0.992" fill-rule="evenodd" clip-rule="evenodd" d="M12.4898 21.4694C13.3274 22.3887 14.1981 23.2867 15.102 24.1633C15.3688 24.2439 15.6409 24.271 15.9184 24.2449C15.9184 26.8028 15.9184 29.3605 15.9184 31.9184C15.8639 31.9184 15.8095 31.9184 15.7551 31.9184C11.8092 28.0924 7.18339 25.3442 1.87754 23.6735C1.78601 23.4178 1.89486 23.2002 2.20407 23.0204C2.96925 22.5798 3.73116 22.1443 4.48979 21.7143C3.46905 20.7959 2.27178 20.2789 0.897949 20.1633C1.56639 19.5238 2.27387 18.898 3.0204 18.2857C5.086 17.0954 7.15403 17.0954 9.22448 18.2857C10.2915 19.3801 11.3799 20.4413 12.4898 21.4694Z" fill="#E7F8FA"/>
<path opacity="0.984" fill-rule="evenodd" clip-rule="evenodd" d="M31.1021 20C29.7003 20.2106 28.4487 20.782 27.347 21.7143C28.3555 22.1908 29.2807 22.7895 30.1225 23.5102C26.0639 24.9135 22.3088 26.8726 18.8572 29.3877C17.9001 30.2095 16.9749 31.0529 16.0817 31.9184C16.0272 31.9184 15.9728 31.9184 15.9184 31.9184C15.9184 29.3605 15.9184 26.8028 15.9184 24.2449C16.231 24.2913 16.503 24.2369 16.7347 24.0816C17.6599 23.2653 18.5306 22.3946 19.347 21.4694C20.4568 20.4413 21.5453 19.3801 22.6123 18.2857C24.145 17.3633 25.7777 17.1455 27.5102 17.6326C28.7448 18.3846 29.9421 19.1737 31.1021 20Z" fill="#D8F0FA"/>
<path fill-rule="evenodd" clip-rule="evenodd" d="M15.9184 19.3469C15.9184 20.9252 15.9184 22.5033 15.9184 24.0816C16.1905 24.0816 16.4625 24.0816 16.7347 24.0816C16.503 24.2369 16.231 24.2913 15.9184 24.2449C15.641 24.271 15.3688 24.2439 15.1021 24.1633C14.1982 23.2867 13.3274 22.3887 12.4898 21.4694C13.2529 20.1644 14.3957 19.457 15.9184 19.3469Z" fill="#11495F"/>
<path fill-rule="evenodd" clip-rule="evenodd" d="M15.9184 19.3469C17.442 19.4583 18.5848 20.1659 19.347 21.4694C18.5306 22.3946 17.6599 23.2653 16.7347 24.0816C16.4626 24.0816 16.1905 24.0816 15.9184 24.0816C15.9184 22.5033 15.9184 20.9252 15.9184 19.3469Z" fill="#0C313E"/>
</g>
<defs>
<clipPath id="clip0_51_338">
<rect width="32" height="32" fill="white"/>
</clipPath>
</defs>
</svg>
