<svg width="32" height="32" viewBox="0 0 32 32" fill="none" xmlns="http://www.w3.org/2000/svg">
    <g clip-path="url(#clip0_1118_48)">
        <path fill-rule="evenodd" clip-rule="evenodd"
            d="M-0.071167 -0.0710449C10.5955 -0.0710449 21.2622 -0.0710449 31.9288 -0.0710449C31.9288 10.5956 31.9288 21.2623 31.9288 31.929C21.2622 31.929 10.5955 31.929 -0.071167 31.929C-0.071167 21.2623 -0.071167 10.5956 -0.071167 -0.0710449Z"
            fill="#FB9910" />
        <path fill-rule="evenodd" clip-rule="evenodd"
            d="M16.9956 7.03989C19.5086 7.01619 22.0211 7.0399 24.5333 7.111C24.9363 7.32433 25.2445 7.63249 25.4578 8.03544C25.5527 13.2977 25.5527 18.5599 25.4578 23.8221C25.3477 24.169 25.1344 24.4298 24.8178 24.6043C23.9653 24.7295 23.112 24.848 22.2578 24.9599C21.7144 24.9767 21.2641 24.7871 20.9067 24.391C20.4247 23.0005 19.9032 21.6256 19.3422 20.2666C18.857 19.786 18.2645 19.5727 17.5645 19.6266C16.8154 19.4639 16.1043 19.203 15.4311 18.8443C15.8348 18.3221 16.1666 17.7532 16.4267 17.1377C13.3663 16.7141 11.8256 18.0415 11.8045 21.1199C12.0412 22.2097 12.6812 22.9446 13.7245 23.3243C15.0397 23.5031 16.3197 23.3845 17.5645 22.9688C18.0025 23.0685 18.1921 23.3056 18.1333 23.6799C15.6789 25.5579 13.1662 25.6764 10.5956 24.0354C9.85522 23.1949 9.35744 22.2231 9.10224 21.1199C9.05577 19.6884 9.03206 18.2662 9.03113 16.8532C7.87719 16.3388 7.04757 15.5328 6.54224 14.4354C7.50219 15.3164 8.61626 15.6955 9.88446 15.5732C11.0007 13.5338 12.257 11.5901 13.6533 9.74211C14.5882 8.59136 15.7022 7.69063 16.9956 7.03989Z"
            fill="#FFFEFD" />
        <path fill-rule="evenodd" clip-rule="evenodd"
            d="M16.9955 11.7334C17.9891 11.7094 18.2262 12.1124 17.7066 12.9423C16.7001 13.002 16.4632 12.599 16.9955 11.7334Z"
            fill="#FB980F" />
    </g>
    <defs>
        <clipPath id="clip0_1118_48">
            <rect width="32" height="32" rx="4" fill="white" />
        </clipPath>
    </defs>
</svg>