<svg width="32" height="32" viewBox="0 0 32 32" fill="none" xmlns="http://www.w3.org/2000/svg">
<g clip-path="url(#clip0_53_359)">
<path opacity="0.993" fill-rule="evenodd" clip-rule="evenodd" d="M-0.200012 1.79997C10.4963 1.67039 21.163 1.80373 31.8 2.19997C31.8 11.4 31.8 20.6 31.8 29.8C21.1333 29.8 10.4667 29.8 -0.200012 29.8C-0.200012 20.4667 -0.200012 11.1333 -0.200012 1.79997Z" fill="#050808"/>
<path fill-rule="evenodd" clip-rule="evenodd" d="M28.2 25.8C19.9333 26.3333 11.6667 26.3333 3.40002 25.8C5.76198 21.7442 8.22866 17.7442 10.8 13.8C11.6 14.8667 12.4 15.9333 13.2 17C14.6015 14.4623 16.2015 12.0623 18 9.79999C21.4895 15.0868 24.8895 20.4201 28.2 25.8Z" fill="#FCFCFC"/>
<path fill-rule="evenodd" clip-rule="evenodd" d="M3.4 25.8C11.6667 26.3333 19.9333 26.3333 28.2 25.8C28.4172 25.824 28.5506 25.9573 28.6 26.2C20.0667 26.7333 11.5333 26.7333 3 26.2C3.04943 25.9573 3.18276 25.824 3.4 25.8Z" fill="#7E7E7E"/>
</g>
<defs>
<clipPath id="clip0_53_359">
<rect width="32" height="32" fill="white"/>
</clipPath>
</defs>
</svg>
