<svg width="32" height="32" viewBox="0 0 32 32" fill="none" xmlns="http://www.w3.org/2000/svg">
<path d="M14.6125 4.8C12.025 5.3375 10.0625 7.0125 9.18747 9.4C8.96247 10.025 8.84997 10.175 8.66247 10.15C8.53747 10.125 7.89997 10.075 7.24997 10.0375C5.21247 9.925 3.57497 10.55 2.17497 11.95C0.399974 13.75 -0.300026 16.4125 0.374974 18.7C0.674974 19.675 1.18747 20.7875 1.44997 21.0125C1.54997 21.0875 1.62497 21.2 1.62497 21.2625C1.62497 21.525 3.19997 22.85 3.98747 23.25C5.11247 23.8125 5.67497 23.9 9.12497 24C10.95 24.05 12.45 24.1 12.4625 24.1125C13.2125 24.675 13.775 25.65 13.925 26.6625L14.0125 27.25H15.8125H17.6L17.725 26.725C17.9625 25.725 18.2125 25.2125 18.7375 24.6875C19.3875 24.025 19.5 24 22.7875 24C26.3875 24 27.6375 23.7 29.2 22.45C30.7875 21.175 31.875 18.9125 31.875 16.8875C31.8625 14.15 30.0125 11.5125 27.3875 10.475C26.8125 10.25 26.425 10.2 25.1875 10.2C24.3625 10.1875 23.5125 10.2375 23.3125 10.2875C22.925 10.3875 22.925 10.3875 22.65 9.5375C21.95 7.35 20 5.5125 17.8125 4.95C16.6875 4.6625 15.55 4.6125 14.6125 4.8Z" fill="#2E5E65"/>
</svg>
