<svg width="32" height="32" viewBox="0 0 33 32" fill="none" xmlns="http://www.w3.org/2000/svg">
    <g clip-path="url(#clip0_537_45)">
        <path fill-rule="evenodd" clip-rule="evenodd"
            d="M3.60938 -0.5C11.8594 -0.5 20.1094 -0.5 28.3594 -0.5C29.0469 0.166667 29.7343 0.833333 30.4219 1.5C21.1342 1.33356 11.853 1.50023 2.57812 2C2.01692 2.71719 1.32942 3.21719 0.515625 3.5C0.794633 1.56954 1.82588 0.236209 3.60938 -0.5Z"
            fill="#E9A6A8" />
        <path fill-rule="evenodd" clip-rule="evenodd"
            d="M30.4219 1.49999C30.4219 5.83332 30.4219 10.1667 30.4219 14.5C27.1111 14.7508 24.0174 14.7508 21.1406 14.5C20.5887 11.7615 21.6199 9.92817 24.2344 8.99999C19.7174 7.56818 17.3112 9.06818 17.0156 13.5C17.0831 13.0618 16.9113 12.7284 16.5 12.5C15.3525 13.305 14.1494 13.9717 12.8906 14.5C13.6943 11.9253 13.5225 9.59196 12.375 7.49999C11.6875 6.16666 11 6.16666 10.3125 7.49999C8.93659 8.87793 8.76471 10.2113 9.79688 11.5C8.83319 12.5676 8.48945 13.901 8.76562 15.5C6.01562 15.5 3.26563 15.5 0.515625 15.5C0.515625 19.1667 0.515625 22.8333 0.515625 26.5C0.171875 26.5 -0.171875 26.5 -0.515625 26.5C-0.515625 18.8333 -0.515625 11.1667 -0.515625 3.49999C-0.171875 3.49999 0.171875 3.49999 0.515625 3.49999C1.32942 3.21718 2.01692 2.71718 2.57812 1.99999C11.853 1.50022 21.1342 1.33355 30.4219 1.49999Z"
            fill="#EA8B8E" />
        <path fill-rule="evenodd" clip-rule="evenodd"
            d="M12.8906 14.5C12.8906 17.8333 12.8906 21.1667 12.8906 24.5C10.7209 24.7989 8.65843 24.4656 6.70312 23.5C7.55386 22.6143 8.58511 22.281 9.79688 22.5C9.79688 18.8333 9.79688 15.1667 9.79688 11.5C8.76471 10.2113 8.93659 8.87794 10.3125 7.5C11 6.16667 11.6875 6.16667 12.375 7.5C13.5225 9.59197 13.6943 11.9253 12.8906 14.5Z"
            fill="#FDF6F6" />
        <path fill-rule="evenodd" clip-rule="evenodd"
            d="M21.1406 14.5C20.3269 14.7828 19.6393 15.2828 19.0781 16C20.2803 18.8672 21.999 21.3672 24.2344 23.5C19.6214 25.161 17.3871 23.4944 17.5312 18.5C16.2373 17.7894 15.0342 16.956 13.9219 16C15.026 15.1482 16.0573 14.3149 17.0156 13.5C17.3112 9.06822 19.7174 7.56822 24.2344 9.00003C21.6199 9.92821 20.5887 11.7615 21.1406 14.5Z"
            fill="#FDF5F4" />
        <path fill-rule="evenodd" clip-rule="evenodd"
            d="M9.79688 11.5C9.79688 15.1667 9.79688 18.8333 9.79688 22.5C8.58511 22.281 7.55386 22.6143 6.70312 23.5C8.65843 24.4656 10.7209 24.7989 12.8906 24.5C12.8906 21.1667 12.8906 17.8333 12.8906 14.5C14.1494 13.9717 15.3525 13.305 16.5 12.5C16.9113 12.7284 17.0831 13.0618 17.0156 13.5C16.0573 14.3149 15.026 15.1482 13.9219 16C15.0342 16.956 16.2373 17.7894 17.5312 18.5C17.3871 23.4944 19.6214 25.161 24.2344 23.5C21.999 21.3672 20.2803 18.8672 19.0781 16C19.6393 15.2828 20.3269 14.7828 21.1406 14.5C24.0174 14.7508 27.1111 14.7508 30.4219 14.5C30.7093 19.5947 30.3656 24.5947 29.3906 29.5C20.5338 30.6357 11.5963 30.8023 2.57812 30C1.21402 29.1841 0.526514 28.0174 0.515625 26.5C0.515625 22.8333 0.515625 19.1667 0.515625 15.5C3.26563 15.5 6.01562 15.5 8.76562 15.5C8.48945 13.901 8.83319 12.5676 9.79688 11.5Z"
            fill="#E97275" />
        <path opacity="0.957" fill-rule="evenodd" clip-rule="evenodd"
            d="M30.4219 1.5C31.4465 10.6517 31.7902 19.985 31.4531 29.5C30.7656 29.5 30.0782 29.5 29.3906 29.5C30.3656 24.5947 30.7093 19.5947 30.4219 14.5C30.4219 10.1667 30.4219 5.83333 30.4219 1.5Z"
            fill="#D49DB6" />
        <path opacity="0.98" fill-rule="evenodd" clip-rule="evenodd"
            d="M-0.515625 26.5C-0.171875 26.5 0.171875 26.5 0.515625 26.5C0.526514 28.0174 1.21402 29.1841 2.57812 30C11.5963 30.8023 20.5338 30.6357 29.3906 29.5C30.0782 29.5 30.7656 29.5 31.4531 29.5C31.1094 30.1667 30.7656 30.8333 30.4219 31.5C20.7969 31.5 11.1718 31.5 1.54688 31.5C1.20313 30.5 0.515625 29.8333 -0.515625 29.5C-0.515625 28.5 -0.515625 27.5 -0.515625 26.5Z"
            fill="#B280AC" />
    </g>
    <defs>
        <clipPath id="clip0_537_45">
            <rect width="33" height="32" fill="white" />
        </clipPath>
    </defs>
</svg>