<svg width="32" height="32" viewBox="0 0 32 32" fill="none" xmlns="http://www.w3.org/2000/svg">
    <path
        d="M2.44569 8.36536C2.93771 8.61137 3.44662 8.82129 3.96857 8.99281C5.08814 9.3607 5.24309 9.20603 4.75885 8.16962C4.55405 7.73129 4.32578 7.30996 4.07616 6.9069C3.58833 6.11922 3.25956 5.82966 2.48173 6.51148C2.32693 6.64717 2.18218 6.79368 2.04823 6.94961C1.5785 7.49646 1.58443 7.93473 2.44569 8.36536Z"
        fill="#FF5B00" />
    <path
        d="M13.5733 30.6133C13.3807 30.042 13.1493 29.4846 12.8799 28.9461C12.3023 27.7909 12.0729 27.7861 11.6851 28.948C11.5211 29.4393 11.3871 29.9363 11.2825 30.4362C11.0782 31.4131 11.116 31.8893 12.1987 31.9844C12.4141 32.0033 12.6298 32.0062 12.8443 31.9935C13.5963 31.9489 13.9104 31.6134 13.5733 30.6133Z"
        fill="#4D40CA" />
    <path
        d="M28.7926 22.1916C28.3545 21.6588 27.9522 21.0934 27.5897 20.4994C26.8122 19.2255 26.9398 18.9832 28.2801 19.2528C28.847 19.3668 29.4018 19.5154 29.9425 19.6965C30.9993 20.0503 31.4354 20.3662 30.9027 21.552C30.7968 21.788 30.6752 22.015 30.5394 22.2316C30.0632 22.991 29.5598 23.1243 28.7926 22.1916Z"
        fill="#00CBD0" />
    <path
        d="M21.5433 1.98798C21.1556 2.33182 20.7442 2.64748 20.312 2.93191C19.385 3.54199 19.2088 3.44182 19.4049 2.39017C19.4879 1.94541 19.5961 1.51003 19.7278 1.08573C19.9852 0.256537 20.2151 -0.0856211 21.0779 0.332275C21.2497 0.415437 21.4148 0.51083 21.5724 0.617384C22.125 0.99106 22.222 1.38609 21.5433 1.98798Z"
        fill="#FFC200" />
    <path
        d="M5.20548 21.2638C0.896302 23.938 -0.352799 20.5653 0.0811891 16.146C0.760677 9.2268 5.20548 9.10795 7.29342 14.0515C8.55527 17.0392 8.07413 19.4836 5.20548 21.2638Z"
        fill="#00CBD0" />
    <path
        d="M10.2226 26.0616C10.2226 26.811 10.193 27.5533 10.1352 28.2872C10.0162 29.7926 9.07758 31.049 7.16915 29.7926C6.38707 29.2777 5.65118 28.6937 4.96938 28.0488C3.39045 26.5552 2.98795 25.1077 4.96938 23.3024C5.46962 22.8466 5.98696 22.4107 6.52028 21.9958C9.00125 20.0658 9.96265 21.3717 10.1529 24.0743C10.1991 24.7305 10.2226 25.3932 10.2226 26.0616Z"
        fill="#FF5B00" />
    <path
        d="M24.6258 24.6001C23.0865 23.2415 21.4532 21.9943 19.7373 20.8704C16.0571 18.4598 15.3571 18.8556 16.1359 23.0109C16.4652 24.7683 16.8947 26.4886 17.4178 28.1651C18.4399 31.4414 19.3525 32.7933 22.7782 31.1421C23.46 30.8135 24.1156 30.4366 24.7413 30.0156C26.9353 28.5391 27.3202 26.9783 24.6258 24.6001Z"
        fill="#FFC200" />
    <path
        d="M22.8436 7.67218C22.3729 8.31326 21.9198 8.96882 21.4847 9.6381C18.9068 13.6037 19.1621 13.7517 22.8436 15.4257C24.1699 16.0289 25.5335 16.5603 26.9296 17.0154C32.035 18.6794 32.8159 16.8212 31.3284 12.2089C30.9042 10.8938 30.317 9.65613 29.5917 8.52163C27.3325 4.98797 25.4801 4.08062 22.8436 7.67218Z"
        fill="#FF5B00" />
    <path
        d="M14.7942 0.0412101C13.5143 0.169808 12.2801 0.461057 11.1111 0.894807C7.92591 2.07667 8.39817 3.46615 10.153 6.12C10.5152 6.66782 10.8894 7.20642 11.2753 7.73538C13.32 10.5385 13.8595 11.1585 15.5185 7.18391C16.0598 5.88706 16.5409 4.55679 16.9581 3.19692C17.6644 0.894806 17.5555 -0.236201 14.7942 0.0412101Z"
        fill="#4D40CA" />
</svg>