<svg width="32" height="32" viewBox="0 0 33 33" fill="none" xmlns="http://www.w3.org/2000/svg">
    <path fill-rule="evenodd" clip-rule="evenodd"
        d="M21.9736 0.5C22.1854 0.5 22.3973 0.5 22.6091 0.5C24.0592 1.41056 25.4892 2.34749 26.8991 3.31081C27.2764 3.64473 27.3823 4.0051 27.2169 4.39189C26.9889 4.59743 26.7241 4.63345 26.4225 4.5C25.0936 3.55974 23.7166 2.65883 22.2914 1.7973C20.8084 2.73423 19.3255 3.67118 17.8425 4.60811C17.2439 4.35023 17.085 3.98986 17.3658 3.52703C18.8685 2.46812 20.4044 1.45911 21.9736 0.5Z"
        fill="#E6357C" />
    <path fill-rule="evenodd" clip-rule="evenodd"
        d="M21.9736 4.60815C22.5044 4.66247 22.981 4.8066 23.4036 5.04059C23.5616 5.61269 23.6146 6.18928 23.5625 6.77032C22.7151 6.77032 21.8677 6.77032 21.0203 6.77032C20.9681 6.18928 21.0211 5.61269 21.1791 5.04059C21.4952 4.91823 21.76 4.77408 21.9736 4.60815Z"
        fill="#E6327D" />
    <path fill-rule="evenodd" clip-rule="evenodd"
        d="M11.4869 5.6892C11.8212 5.65687 12.139 5.69292 12.4402 5.7973C14.7176 7.34686 16.995 8.8964 19.2724 10.446C19.4313 11.2027 18.9546 11.527 17.8424 11.4189C15.9841 10.1184 14.0774 8.85715 12.1224 7.63514C10.1674 8.85715 8.26079 10.1184 6.40247 11.4189C5.12955 11.6324 4.54697 11.3081 4.6547 10.446C6.99645 8.88881 9.27386 7.30323 11.4869 5.6892Z"
        fill="#3CBB95" />
    <path fill-rule="evenodd" clip-rule="evenodd"
        d="M11.1692 11.7433C12.0135 11.6702 12.755 11.8144 13.3936 12.1757C13.6879 12.9528 13.7938 13.7455 13.7114 14.5541C12.5462 14.5541 11.3811 14.5541 10.2159 14.5541C9.97372 13.4961 10.2915 12.5592 11.1692 11.7433Z"
        fill="#34B992" />
    <path fill-rule="evenodd" clip-rule="evenodd"
        d="M23.8803 11.9595C24.4202 11.9249 24.9499 11.9609 25.4691 12.0676C27.7465 13.6172 30.0239 15.1667 32.3013 16.7163C33.2391 17.8916 32.7624 18.3601 30.8713 18.1217C28.8012 16.677 26.6827 15.2716 24.5158 13.9055C22.3489 15.2716 20.2304 16.677 18.1603 18.1217C16.8874 18.3352 16.3048 18.0108 16.4125 17.1487C18.9661 15.4474 21.4553 13.7177 23.8803 11.9595Z"
        fill="#FBB140" />
    <path fill-rule="evenodd" clip-rule="evenodd"
        d="M23.5625 18.6621C24.5101 18.5765 25.3575 18.7207 26.1047 19.0945C26.4029 20.0166 26.5088 20.9536 26.4224 21.9053C25.1513 21.9053 23.8802 21.9053 22.6091 21.9053C22.5565 21.0375 22.6095 20.1726 22.768 19.3107C23.1001 19.1219 23.3649 18.9057 23.5625 18.6621Z"
        fill="#FBB243" />
    <path fill-rule="evenodd" clip-rule="evenodd"
        d="M10.8514 19.3107C11.7175 19.2597 12.459 19.4398 13.0758 19.8512C16.4905 22.0297 19.6683 24.336 22.6091 26.7702C22.1374 27.832 21.184 28.1202 19.7491 27.635C17.0435 25.758 14.2894 23.9202 11.4869 22.1215C8.57849 23.9922 5.7185 25.9023 2.90698 27.8512C1.21571 27.9247 0.5272 27.3842 0.841431 26.2296C4.2423 23.9518 7.57895 21.6455 10.8514 19.3107Z"
        fill="#4BADF5" />
    <path fill-rule="evenodd" clip-rule="evenodd"
        d="M14.0291 32.4999C12.3343 32.4999 10.6394 32.4999 8.94465 32.4999C8.89193 31.4165 8.94488 30.3354 9.10354 29.2567C10.9336 27.7823 12.6284 27.8543 14.188 29.4729C14.4337 30.5003 14.3808 31.5094 14.0291 32.4999Z"
        fill="#4AADF5" />
</svg>