<svg width="32" height="32" viewBox="0 0 32 32" fill="none" xmlns="http://www.w3.org/2000/svg">
<g clip-path="url(#clip0_57_407)">
<path opacity="0.277" fill-rule="evenodd" clip-rule="evenodd" d="M23.2515 6.27791C23.4607 6.81333 23.5998 7.36986 23.6689 7.94747C24.0343 8.02978 24.4054 8.07615 24.7819 8.0866C24.7819 8.31849 24.7819 8.55036 24.7819 8.78225C24.9729 8.80405 25.1585 8.78086 25.3384 8.71269C25.172 8.62165 25.172 8.55209 25.3384 8.50399C25.443 9.01759 25.5591 9.52774 25.6862 10.0344C26.0138 9.97994 26.3616 9.97994 26.7297 10.0344C26.6933 10.24 26.7396 10.4256 26.8689 10.5909C27.3422 10.9533 27.6669 11.417 27.8428 11.9823C28.3894 12.112 28.9459 12.1584 29.5123 12.1214C29.4753 12.6877 29.5217 13.2442 29.6515 13.7909C30.0069 13.9247 30.3315 14.1102 30.6254 14.3475C30.8085 13.9957 30.9708 13.9957 31.1123 14.3475C31.2111 14.1425 31.3733 14.0497 31.5993 14.0692C31.5993 14.9504 31.5993 15.8315 31.5993 16.7127C31.2608 16.6811 31.029 16.8202 30.9036 17.1301C30.8108 17.1301 30.7645 17.1764 30.7645 17.2692C27.6682 20.2728 24.561 23.38 21.4428 26.591C21.2573 26.591 21.0717 26.591 20.8862 26.591C20.4485 26.1932 20.0079 25.7758 19.5645 25.3388C19.4973 25.2069 19.4742 25.0678 19.4949 24.9214C20.0465 25.4032 20.5799 25.9134 21.0949 26.4518C24.5317 23.0383 27.9404 19.6065 31.321 16.1562C31.5065 16.1098 31.5065 16.0634 31.321 16.017C28.01 12.6364 24.6709 9.27404 21.3036 5.93008C21.1645 5.83732 21.0254 5.83732 20.8862 5.93008C20.3016 6.53811 19.6986 7.11781 19.0775 7.66921C18.9173 7.51269 18.7781 7.51269 18.6602 7.66921C18.5573 7.68744 18.4645 7.66424 18.3819 7.59964C18.547 7.14586 18.779 6.72847 19.0775 6.34747C19.0312 6.3011 18.9847 6.25471 18.9384 6.20834C19.4958 6.25711 19.9132 6.04841 20.1906 5.58225C20.9736 5.44376 21.7619 5.39738 22.5558 5.44312C22.5374 5.93456 22.7692 6.21282 23.2515 6.27791Z" fill="#DBF4F4"/>
<path opacity="0.024" fill-rule="evenodd" clip-rule="evenodd" d="M9.61668 6.1388C9.47407 6.08362 9.45088 5.99087 9.54711 5.86053C9.61171 5.94323 9.63491 6.03599 9.61668 6.1388Z" fill="#FDFD9D"/>
<path opacity="0.024" fill-rule="evenodd" clip-rule="evenodd" d="M9.6167 6.13879C9.70946 6.13879 9.75583 6.18517 9.75583 6.27792C9.70946 6.23155 9.66307 6.18517 9.6167 6.13879Z" fill="#FEFFB4"/>
<path fill-rule="evenodd" clip-rule="evenodd" d="M31.321 16.0171C27.7346 14.9016 24.1637 13.7422 20.608 12.5388C20.3432 12.4976 20.1113 12.4049 19.9123 12.2605C18.5662 11.9355 17.2677 11.4717 16.0167 10.8692C17.0369 9.80256 18.0573 8.7359 19.0775 7.66923C19.6986 7.11783 20.3016 6.53813 20.8862 5.9301C21.0254 5.83735 21.1645 5.83735 21.3036 5.9301C24.6709 9.27406 28.01 12.6364 31.321 16.0171Z" fill="#0889D0"/>
<path opacity="0.01" fill-rule="evenodd" clip-rule="evenodd" d="M23.2515 6.13879C23.4369 6.23155 23.4369 6.23155 23.2515 6.13879Z" fill="#FD72FE"/>
<path opacity="0.024" fill-rule="evenodd" clip-rule="evenodd" d="M9.33841 6.69532C9.16364 6.70069 9.02451 6.63112 8.92102 6.48662C9.12938 6.40527 9.26851 6.47484 9.33841 6.69532Z" fill="#FEFEB5"/>
<path opacity="0.051" fill-rule="evenodd" clip-rule="evenodd" d="M9.06017 6.97354C8.96741 6.78804 8.96741 6.78804 9.06017 6.97354Z" fill="#FEECCA"/>
<path opacity="0.024" fill-rule="evenodd" clip-rule="evenodd" d="M8.22534 7.39093C8.41084 7.48369 8.41084 7.48369 8.22534 7.39093Z" fill="#B4FFFE"/>
<path opacity="0.016" fill-rule="evenodd" clip-rule="evenodd" d="M17.6862 7.53009C18.0342 7.53161 18.0574 7.62437 17.7558 7.80835C17.6913 7.72565 17.668 7.63289 17.6862 7.53009Z" fill="#FEFDC0"/>
<path opacity="0.01" fill-rule="evenodd" clip-rule="evenodd" d="M24.2253 7.53009C24.4108 7.62285 24.4108 7.62285 24.2253 7.53009Z" fill="black"/>
<path opacity="0.012" fill-rule="evenodd" clip-rule="evenodd" d="M4.74712 7.66919C4.89648 7.77362 4.91966 7.91275 4.81669 8.08658C4.74952 7.95469 4.72632 7.81555 4.74712 7.66919Z" fill="#FDFEFD"/>
<path opacity="0.021" fill-rule="evenodd" clip-rule="evenodd" d="M8.08624 7.80831C7.93156 8.28781 7.60691 8.56607 7.11233 8.64309C6.72026 9.01593 6.39563 9.52608 6.13842 10.1735C6.13842 10.2663 6.09205 10.3127 5.99929 10.3127C5.73583 10.3888 5.50394 10.528 5.30364 10.73C3.67752 12.4489 2.00796 14.1185 0.29494 15.7387C0.249834 15.1746 0.296206 14.6181 0.43407 14.0692C0.821521 13.7616 1.14615 13.3906 1.40798 12.9561C2.01193 12.6205 2.54526 12.2031 3.00798 11.704C3.09999 11.2246 3.21593 10.7608 3.35581 10.3127C3.81957 10.3127 4.28335 10.3127 4.74711 10.3127C4.74711 9.98802 4.74711 9.66338 4.74711 9.33874C5.27776 9.31775 5.50965 9.03949 5.44277 8.50396C5.9392 8.46788 6.12471 8.18962 5.99929 7.66918C6.70362 7.63778 7.39927 7.68415 8.08624 7.80831Z" fill="#FDFEF5"/>
<path opacity="0.01" fill-rule="evenodd" clip-rule="evenodd" d="M14.9037 8.08658C15.1117 8.07472 15.2508 8.16748 15.321 8.36484C15.164 9.05131 14.9785 9.0745 14.7645 8.4344C14.8692 8.34108 14.9156 8.22514 14.9037 8.08658Z" fill="#AFE9F7"/>
<path opacity="0.01" fill-rule="evenodd" clip-rule="evenodd" d="M25.3384 8.22571C25.5239 8.31847 25.5239 8.31847 25.3384 8.22571Z" fill="#FD00FE"/>
<path fill-rule="evenodd" clip-rule="evenodd" d="M8.50365 7.94745C8.41026 8.13487 8.41026 8.29719 8.50365 8.43441C10.1018 9.07666 11.7249 9.60999 13.3732 10.0344C12.0796 11.3977 10.7579 12.7426 9.408 14.0692C8.38771 15.4141 8.38771 16.759 9.408 18.104C11.1179 20.2755 12.9962 20.461 15.0428 18.6605C14.9974 18.9612 14.8583 19.2162 14.6254 19.4257C14.6717 19.8431 14.7182 20.2605 14.7645 20.6779C14.5571 20.9696 14.4179 21.2942 14.3471 21.6518C12.3517 22.4629 10.3575 23.2281 8.36452 23.9474C8.05164 23.8668 7.81977 23.6813 7.66886 23.3909C7.46388 22.7177 7.34795 22.022 7.32104 21.304C6.92314 21.0768 6.89996 20.8448 7.25147 20.6083C7.32646 19.8503 7.4656 19.1082 7.66886 18.3822C7.62465 18.2226 7.5319 18.1066 7.3906 18.0344C7.73879 17.8189 7.73879 17.587 7.3906 17.3388C7.52973 17.2229 7.66886 17.1068 7.808 16.9909C7.70732 16.2458 7.66095 15.5038 7.66886 14.7648C7.77654 14.5963 7.89248 14.5963 8.01669 14.7648C8.01146 14.2615 7.98827 13.7514 7.94713 13.2344C8.13723 11.9252 8.27636 10.6034 8.36452 9.26919C8.18162 9.07516 8.228 8.93603 8.50365 8.8518C8.38846 8.72453 8.24933 8.63178 8.08626 8.57354C8.19094 8.48021 8.23732 8.36427 8.22539 8.22571C8.27176 8.08658 8.36452 7.99382 8.50365 7.94745Z" fill="#5BC8F6"/>
<path opacity="0.051" fill-rule="evenodd" clip-rule="evenodd" d="M14.0689 8.22571C14.2115 8.28089 14.2347 8.37363 14.1384 8.50397C14.0739 8.42127 14.0507 8.32851 14.0689 8.22571Z" fill="#C8FEFD"/>
<path opacity="0.024" fill-rule="evenodd" clip-rule="evenodd" d="M14.3471 8.36487C14.5326 8.45763 14.5326 8.45763 14.3471 8.36487Z" fill="#FDD2FD"/>
<path opacity="0.01" fill-rule="evenodd" clip-rule="evenodd" d="M16.8515 8.64313C16.8332 8.54033 16.8565 8.44757 16.921 8.36487C17.0173 8.49521 16.9941 8.58795 16.8515 8.64313Z" fill="#FD91FE"/>
<path opacity="0.01" fill-rule="evenodd" clip-rule="evenodd" d="M16.8515 8.64313C16.7587 8.73589 16.7587 8.73589 16.8515 8.64313Z" fill="#FD91FE"/>
<path opacity="0.01" fill-rule="evenodd" clip-rule="evenodd" d="M15.8776 9.06049C16.063 9.15324 16.063 9.15324 15.8776 9.06049Z" fill="#FD7BFE"/>
<path opacity="0.055" fill-rule="evenodd" clip-rule="evenodd" d="M14.9036 9.19966C15.1253 9.00944 15.3107 9.05582 15.4601 9.33879C15.4138 9.38516 15.3673 9.43155 15.321 9.47792C15.1794 9.38158 15.0403 9.28882 14.9036 9.19966Z" fill="#DBFEC2"/>
<path opacity="0.027" fill-rule="evenodd" clip-rule="evenodd" d="M16.5732 9.19965C16.7586 9.2924 16.7586 9.2924 16.5732 9.19965Z" fill="#FEFEB4"/>
<path opacity="0.016" fill-rule="evenodd" clip-rule="evenodd" d="M26.1732 9.47791C26.4288 9.49731 26.4751 9.59006 26.3123 9.75617C26.2013 9.6926 26.1549 9.59984 26.1732 9.47791Z" fill="#C6C6C6"/>
<path opacity="0.015" fill-rule="evenodd" clip-rule="evenodd" d="M27.008 10.0344C27.4621 10.0659 27.6013 10.2746 27.4254 10.6605C27.1091 10.6165 26.97 10.4078 27.008 10.0344Z" fill="#CEF1F5"/>
<path fill-rule="evenodd" clip-rule="evenodd" d="M8.22539 8.22571C8.23732 8.36427 8.19094 8.48021 8.08626 8.57353C8.24933 8.63177 8.38846 8.72453 8.50365 8.85179C8.228 8.93602 8.18162 9.07515 8.36452 9.26919C8.27636 10.6034 8.13723 11.9252 7.94713 13.2344C7.98827 13.7514 8.01146 14.2615 8.01669 14.7648C7.89247 14.5963 7.77654 14.5963 7.66886 14.7648C7.66095 15.5038 7.70732 16.2458 7.80799 16.9909C7.66886 17.1068 7.52973 17.2229 7.3906 17.3388C7.73879 17.587 7.73879 17.8189 7.3906 18.0344C7.5319 18.1066 7.62465 18.2226 7.66886 18.3822C7.46559 19.1082 7.32646 19.8503 7.25147 20.6083C6.89996 20.8448 6.92314 21.0768 7.32104 21.304C7.34795 22.022 7.46388 22.7177 7.66886 23.3909C5.18686 21.0249 2.77527 18.5901 0.434082 16.0866C2.26507 14.1396 4.12015 12.215 5.9993 10.3127C6.09206 10.3127 6.13843 10.2663 6.13843 10.1735C6.83408 9.52425 7.52973 8.87499 8.22539 8.22571Z" fill="#70CFF7"/>
<path opacity="0.322" fill-rule="evenodd" clip-rule="evenodd" d="M9.89495 26.4518C10.067 26.053 9.92783 25.7748 9.47756 25.617C9.34835 25.4516 9.30198 25.2661 9.33843 25.0605C9.75288 25.3822 10.1239 25.7532 10.4515 26.1735C10.5718 26.3242 10.7109 26.3473 10.8689 26.2431C14.0959 23.0161 17.3189 19.793 20.5384 16.5735C20.7564 15.8732 20.5477 15.3399 19.9123 14.9735C19.6529 14.7925 19.3746 14.7461 19.0776 14.8344C18.7065 15.1127 18.3356 15.3909 17.9645 15.6692C16.9586 16.6517 15.9847 17.6489 15.0428 18.6605C12.9962 20.461 11.1179 20.2755 9.40799 18.104C8.38771 16.759 8.38771 15.4141 9.40799 14.0692C10.7579 12.7426 12.0796 11.3977 13.3732 10.0344C13.5755 9.76201 13.8074 9.50694 14.0689 9.26918C14.0456 9.19962 14.0225 9.13005 13.9993 9.06049C12.9401 7.91472 11.8503 6.80168 10.7297 5.72136C9.9384 6.41993 9.19638 7.16195 8.50365 7.94744C8.36451 7.99381 8.27176 8.08657 8.22538 8.2257C7.52973 8.87498 6.83408 9.52425 6.13843 10.1735C6.39564 9.52609 6.72027 9.01594 7.11234 8.64309C7.60692 8.56607 7.93157 8.28781 8.08625 7.80831C8.49633 7.63016 8.82096 7.35189 9.06017 6.97353C9.1993 6.92716 9.29206 6.8344 9.33843 6.69527C9.52393 6.60251 9.66306 6.46338 9.75582 6.27788C10.0657 6.15258 10.2048 5.9207 10.1732 5.58223C10.5471 5.55939 10.9181 5.58259 11.2863 5.65179C11.2399 5.69816 11.1935 5.74455 11.1471 5.79092C11.3753 5.98495 11.584 6.19365 11.7732 6.41701C12.0826 6.72636 12.4536 7.09738 12.8863 7.53005C13.1423 7.34458 13.2118 7.36776 13.0949 7.59962C13.3964 8.08657 13.7906 8.48077 14.2776 8.78223C14.3704 9.01411 14.3704 9.24599 14.2776 9.47788C12.8287 11.0196 11.3445 12.5037 9.82538 13.9301C9.56475 14.282 9.30968 14.6298 9.06017 14.9735C8.88531 15.7194 8.88531 16.4614 9.06017 17.1996C9.44308 17.6626 9.76771 18.08 10.0341 18.4518C10.1661 18.5376 10.2821 18.5145 10.3819 18.3822C10.432 18.7701 10.6871 19.0716 11.1471 19.2866C11.3715 19.3867 11.5802 19.3637 11.7732 19.217C11.8591 19.349 11.8359 19.4649 11.7036 19.5648C12.1737 19.7418 12.591 19.765 12.9558 19.6344C13.0717 19.4953 13.1877 19.3561 13.3036 19.217C13.35 19.3098 13.3964 19.4025 13.4428 19.4953C14.7296 18.6263 15.889 17.606 16.921 16.4344C17.5811 15.6868 18.3695 14.9912 19.2863 14.3474C19.6224 14.5503 19.9702 14.7359 20.3297 14.904C20.5695 15.1751 20.8014 15.4533 21.0254 15.7387C20.9475 16.0662 20.8547 16.3909 20.7471 16.7127C18.1792 19.3507 15.5357 22.0173 12.8167 24.7127C12.8803 24.7703 12.9267 24.8398 12.9558 24.9214C12.714 25.3015 12.4358 25.6493 12.121 25.9648C12.1674 26.0112 12.2138 26.0576 12.2602 26.104C12.052 26.1745 11.8897 26.1049 11.7732 25.8953C11.5157 26.1095 11.3533 26.3182 11.2863 26.5214C10.7956 26.6338 10.3318 26.6105 9.89495 26.4518Z" fill="#CDF7F8"/>
<path fill-rule="evenodd" clip-rule="evenodd" d="M13.3732 10.0344C11.7249 9.61 10.1017 9.07667 8.50363 8.43442C8.41025 8.29721 8.41025 8.13488 8.50363 7.94746C9.19636 7.16197 9.93839 6.41995 10.7297 5.72137C11.8502 6.80169 12.9401 7.91474 13.9993 9.06051C14.0225 9.13007 14.0456 9.19964 14.0688 9.2692C13.8074 9.50696 13.5755 9.76203 13.3732 10.0344Z" fill="#3BBDF3"/>
<path fill-rule="evenodd" clip-rule="evenodd" d="M20.608 12.5388C24.1637 13.7422 27.7346 14.9016 31.321 16.017C31.5065 16.0634 31.5065 16.1098 31.321 16.1561C27.9358 17.2919 24.5502 18.4049 21.1645 19.4953C23.9204 16.9214 23.7349 14.6025 20.608 12.5388Z" fill="#36BCF3"/>
<path opacity="0.059" fill-rule="evenodd" clip-rule="evenodd" d="M12.8167 13.5127C12.7239 13.3272 12.7239 13.3272 12.8167 13.5127Z" fill="#CAFFFD"/>
<path fill-rule="evenodd" clip-rule="evenodd" d="M16.0167 10.8692C17.2678 11.4717 18.5663 11.9354 19.9123 12.2605C19.0383 12.1438 18.25 12.3525 17.5471 12.8866C16.0207 14.2737 14.5368 15.7114 13.095 17.1996C12.316 17.5644 11.7363 17.3557 11.3558 16.5735C11.2631 16.2025 11.2631 15.8315 11.3558 15.4605C12.8911 13.902 14.4448 12.3715 16.0167 10.8692Z" fill="#48C0F3"/>
<path opacity="0.027" fill-rule="evenodd" clip-rule="evenodd" d="M9.7558 14.904C9.9413 14.9967 9.9413 14.9967 9.7558 14.904Z" fill="#D9FFB4"/>
<path opacity="0.027" fill-rule="evenodd" clip-rule="evenodd" d="M10.4515 15.4605C10.637 15.5533 10.637 15.5533 10.4515 15.4605Z" fill="#FEDAB4"/>
<path opacity="0.027" fill-rule="evenodd" clip-rule="evenodd" d="M10.7297 16.4344C10.8723 16.4896 10.8955 16.5823 10.7993 16.7127C10.7347 16.6301 10.7115 16.5373 10.7297 16.4344Z" fill="#B5FEFE"/>
<path opacity="0.027" fill-rule="evenodd" clip-rule="evenodd" d="M10.4514 16.5735C10.5941 16.6288 10.6173 16.7214 10.521 16.8518C10.4564 16.7692 10.4332 16.6764 10.4514 16.5735Z" fill="#FDDA90"/>
<path fill-rule="evenodd" clip-rule="evenodd" d="M31.321 16.1562C27.9404 19.6065 24.5317 23.0383 21.0949 26.4518C20.5799 25.9134 20.0464 25.4032 19.4949 24.9214C19.4021 24.7359 19.263 24.5968 19.0775 24.504C18.6169 23.9966 18.153 23.4866 17.6862 22.9736C18.8022 21.7648 19.9616 20.6054 21.1645 19.4953C24.5502 18.405 27.9358 17.2919 31.321 16.1562Z" fill="#0689CF"/>
<path opacity="0.039" fill-rule="evenodd" clip-rule="evenodd" d="M31.321 17.1301C31.3763 16.9875 31.4689 16.9642 31.5993 17.0605C31.5167 17.1251 31.4239 17.1483 31.321 17.1301Z" fill="#FEDCFD"/>
<path opacity="0.039" fill-rule="evenodd" clip-rule="evenodd" d="M30.9036 17.1301C31.0891 17.2229 31.0891 17.2229 30.9036 17.1301Z" fill="#FEDCDB"/>
<path opacity="0.027" fill-rule="evenodd" clip-rule="evenodd" d="M20.7471 18.5214C20.9326 18.6142 20.9326 18.6142 20.7471 18.5214Z" fill="#D9DA90"/>
<path opacity="0.027" fill-rule="evenodd" clip-rule="evenodd" d="M1.68625 18.7996C1.95958 18.862 2.00595 19.0011 1.82538 19.217C1.70215 19.1022 1.65578 18.9631 1.68625 18.7996Z" fill="#D7FFFD"/>
<path opacity="0.027" fill-rule="evenodd" clip-rule="evenodd" d="M11.5645 19.0779C11.6197 18.9353 11.7124 18.912 11.8428 19.0083C11.7601 19.0729 11.6673 19.0961 11.5645 19.0779Z" fill="#FEFEB4"/>
<path opacity="0.027" fill-rule="evenodd" clip-rule="evenodd" d="M13.2341 19.0779C13.2893 18.9353 13.382 18.912 13.5123 19.0083C13.4297 19.0729 13.3369 19.0961 13.2341 19.0779Z" fill="#FEFEB4"/>
<path opacity="0.529" fill-rule="evenodd" clip-rule="evenodd" d="M18.6601 7.66921C18.7781 7.51269 18.9173 7.51269 19.0775 7.66921C18.0573 8.73588 17.0369 9.80254 16.0167 10.8692C14.4448 12.3715 12.8911 13.902 11.3558 15.4605C11.263 15.8315 11.263 16.2025 11.3558 16.5736C11.7363 17.3557 12.316 17.5644 13.0949 17.1996C14.5367 15.7114 16.0207 14.2737 17.5471 12.8866C18.25 12.3525 19.0383 12.1439 19.9123 12.2605C20.1113 12.4049 20.3432 12.4976 20.608 12.5388C23.7349 14.6025 23.9204 16.9214 21.1645 19.4953C19.9616 20.6054 18.8022 21.7648 17.6862 22.9736C18.153 23.4865 18.6169 23.9966 19.0775 24.504C18.9384 24.6895 18.7993 24.6895 18.6601 24.504C18.2987 23.9561 17.8813 23.4459 17.408 22.9736C18.2905 21.8594 19.2644 20.839 20.3297 19.9127C20.4129 19.7325 20.4825 19.5471 20.5384 19.3562C21.3474 18.968 22.0199 18.3419 22.5558 17.4779C22.5095 17.4316 22.463 17.3851 22.4167 17.3388C22.9058 17.2034 22.9522 16.9947 22.5558 16.7127C22.8342 16.4363 22.9502 16.1117 22.9036 15.7388C22.8108 15.9243 22.7182 15.9243 22.6254 15.7388C22.5563 15.5252 22.5794 15.3165 22.6949 15.1127C22.2647 14.1374 21.5922 13.3722 20.6775 12.817C20.6199 12.8807 20.5504 12.927 20.4688 12.9562C20.5232 12.7627 20.4073 12.6236 20.121 12.5388C20.0245 12.9302 19.7693 13.1157 19.3558 13.0953C18.9423 13.1157 18.6871 12.9302 18.5906 12.5388C17.531 13.0882 16.6962 13.8766 16.0862 14.904C16.0286 14.8404 15.9591 14.794 15.8775 14.7649C15.2608 15.427 14.6579 16.0763 14.0688 16.7127C12.7894 18.0515 11.7227 17.8893 10.8688 16.2257C10.976 15.8686 11.1151 15.5208 11.2862 15.1823C11.8547 14.661 12.3648 14.1045 12.8167 13.5127C14.0741 12.2079 15.3494 11.0021 16.6427 9.8953C16.7099 9.7634 16.733 9.62427 16.7123 9.47791C16.8587 9.49871 16.9978 9.47551 17.1297 9.40834C17.6399 8.80545 18.1964 8.24892 18.7993 7.73878C18.7675 7.68329 18.7211 7.66011 18.6601 7.66921Z" fill="#CBF7F7"/>
<path opacity="0.027" fill-rule="evenodd" clip-rule="evenodd" d="M14.0688 16.7127C14.2543 16.8055 14.2543 16.8055 14.0688 16.7127Z" fill="#B5FEFE"/>
<path opacity="0.027" fill-rule="evenodd" clip-rule="evenodd" d="M22.2776 16.5735C22.4202 16.6288 22.4434 16.7214 22.3471 16.8518C22.2826 16.7692 22.2593 16.6764 22.2776 16.5735Z" fill="#FEDAB4"/>
<path opacity="0.027" fill-rule="evenodd" clip-rule="evenodd" d="M21.0254 16.017C21.168 16.0722 21.1912 16.165 21.0949 16.2953C21.0304 16.2126 21.0071 16.1198 21.0254 16.017Z" fill="#9DFEFD"/>
<path opacity="0.027" fill-rule="evenodd" clip-rule="evenodd" d="M22.2776 15.3214C22.4202 15.3766 22.4434 15.4693 22.3471 15.5997C22.2826 15.517 22.2593 15.4242 22.2776 15.3214Z" fill="#FEDAB4"/>
<path opacity="0.027" fill-rule="evenodd" clip-rule="evenodd" d="M22.2775 14.7648C22.463 14.8576 22.463 14.8576 22.2775 14.7648Z" fill="#B5FEFE"/>
<path opacity="0.027" fill-rule="evenodd" clip-rule="evenodd" d="M16.2949 14.7648C16.4804 14.8576 16.4804 14.8576 16.2949 14.7648Z" fill="#FEDAB4"/>
<path opacity="0.027" fill-rule="evenodd" clip-rule="evenodd" d="M19.4949 13.5127C19.6804 13.6055 19.6804 13.6055 19.4949 13.5127Z" fill="#FEDAB4"/>
<path opacity="0.027" fill-rule="evenodd" clip-rule="evenodd" d="M20.4689 13.2344C20.6543 13.3272 20.6543 13.3272 20.4689 13.2344Z" fill="#FEFEB4"/>
<path opacity="0.059" fill-rule="evenodd" clip-rule="evenodd" d="M19.6341 13.3736C19.7386 13.2242 19.8777 13.201 20.0515 13.304C19.9196 13.3712 19.7805 13.3944 19.6341 13.3736Z" fill="#C0FEFE"/>
<path opacity="0.059" fill-rule="evenodd" clip-rule="evenodd" d="M18.9384 13.3736C19.0916 13.2208 19.2771 13.1976 19.4949 13.304C19.315 13.3722 19.1294 13.3954 18.9384 13.3736Z" fill="#C0FEFE"/>
<path opacity="0.027" fill-rule="evenodd" clip-rule="evenodd" d="M17.9645 13.3736C18.0197 13.231 18.1124 13.2078 18.2427 13.304C18.1601 13.3686 18.0673 13.3918 17.9645 13.3736Z" fill="#FFF2B5"/>
<path opacity="0.027" fill-rule="evenodd" clip-rule="evenodd" d="M2.24274 19.4953C2.49833 19.5146 2.54471 19.6074 2.38187 19.7736C2.27092 19.71 2.22453 19.6172 2.24274 19.4953Z" fill="#FDFFD7"/>
<path opacity="0.027" fill-rule="evenodd" clip-rule="evenodd" d="M20.0515 19.6344C20.2369 19.7272 20.2369 19.7272 20.0515 19.6344Z" fill="#FDDA90"/>
<path opacity="0.01" fill-rule="evenodd" clip-rule="evenodd" d="M0.990601 20.6083C1.33862 20.6537 1.50094 20.8392 1.47756 21.1649C1.28617 20.9972 1.12385 20.8117 0.990601 20.6083Z" fill="#FDFEFD"/>
<path opacity="0.027" fill-rule="evenodd" clip-rule="evenodd" d="M18.3819 20.8866C18.4371 20.744 18.5298 20.7208 18.6602 20.817C18.5775 20.8816 18.4847 20.9048 18.3819 20.8866Z" fill="#FEFEB4"/>
<path opacity="0.027" fill-rule="evenodd" clip-rule="evenodd" d="M17.9645 21.0258C18.1499 21.1186 18.1499 21.1186 17.9645 21.0258Z" fill="#FEFEB4"/>
<path opacity="0.038" fill-rule="evenodd" clip-rule="evenodd" d="M2.10366 21.8605C1.45039 21.5092 1.45039 21.3238 2.10366 21.304C2.10366 21.4895 2.10366 21.6751 2.10366 21.8605Z" fill="#FDFEFD"/>
<path fill-rule="evenodd" clip-rule="evenodd" d="M9.33841 25.0605C8.9182 24.7791 8.59357 24.408 8.3645 23.9475C10.3575 23.2282 12.3517 22.463 14.3471 21.6518C14.4179 21.2943 14.5571 20.9697 14.7645 20.6779C14.7182 20.2605 14.6717 19.8431 14.6254 19.4257C14.8583 19.2162 14.9974 18.9612 15.0428 18.6605C15.9847 17.6489 16.9586 16.6518 17.9645 15.6692C18.3356 15.391 18.7065 15.1127 19.0775 14.8344C19.3746 14.7461 19.6528 14.7925 19.9123 14.9736C20.5477 15.3399 20.7564 15.8733 20.5384 16.5736C17.3189 19.793 14.0958 23.0161 10.8688 26.2431C10.7109 26.3473 10.5718 26.3242 10.4515 26.1736C10.1239 25.7533 9.75287 25.3822 9.33841 25.0605Z" fill="#3ABDF3"/>
<path opacity="0.01" fill-rule="evenodd" clip-rule="evenodd" d="M4.74713 21.7214C4.93263 21.8142 4.93263 21.8142 4.74713 21.7214Z" fill="#FED6FD"/>
<path opacity="0.01" fill-rule="evenodd" clip-rule="evenodd" d="M2.10364 21.8605C2.1964 21.8605 2.24277 21.9069 2.24277 21.9997C2.1964 21.9533 2.15001 21.9069 2.10364 21.8605Z" fill="#FDFEFD"/>
<path opacity="0.035" fill-rule="evenodd" clip-rule="evenodd" d="M3.91232 21.8605C4.18566 21.9229 4.23203 22.062 4.05145 22.2779C3.92822 22.1631 3.88185 22.024 3.91232 21.8605Z" fill="#FEFFD8"/>
<path opacity="0.01" fill-rule="evenodd" clip-rule="evenodd" d="M2.24274 21.9996C2.3355 21.9996 2.38187 22.046 2.38187 22.1388C2.3355 22.0924 2.28911 22.046 2.24274 21.9996Z" fill="#FDFEFD"/>
<path opacity="0.01" fill-rule="evenodd" clip-rule="evenodd" d="M4.46887 21.9996C4.65437 22.0924 4.65437 22.0924 4.46887 21.9996Z" fill="#FED6FD"/>
<path opacity="0.046" fill-rule="evenodd" clip-rule="evenodd" d="M30.7645 17.2692C30.965 17.6702 31.1969 17.7165 31.4601 17.4084C31.6123 17.5987 31.5659 17.7611 31.321 17.8953C30.9996 17.9645 30.675 17.9876 30.3471 17.9649C30.3835 18.1705 30.3372 18.356 30.208 18.5214C29.5346 19.1078 28.8389 19.618 28.121 20.0518C28.1875 20.4383 28.0484 20.7166 27.7036 20.8866C27.5998 21.0586 27.5535 21.2442 27.5645 21.4431C27.3326 21.4431 27.1008 21.4431 26.8688 21.4431C26.8688 21.7214 26.8688 21.9997 26.8688 22.2779C26.6059 22.2497 26.3972 22.3423 26.2427 22.5562C25.3705 23.8458 24.3502 25.0053 23.1819 26.0344C23.1355 25.9881 23.0891 25.9416 23.0427 25.8953C22.6763 26.4703 22.143 26.7023 21.4427 26.591C24.5609 23.38 27.6681 20.2728 30.7645 17.2692Z" fill="#FEF9F6"/>
<path opacity="0.01" fill-rule="evenodd" clip-rule="evenodd" d="M2.3819 22.1388C2.5674 22.2316 2.5674 22.2316 2.3819 22.1388Z" fill="#FDFEFD"/>
<path opacity="0.01" fill-rule="evenodd" clip-rule="evenodd" d="M2.66016 22.2779C2.84566 22.3707 2.84566 22.3707 2.66016 22.2779Z" fill="#FDFEFD"/>
<path opacity="0.027" fill-rule="evenodd" clip-rule="evenodd" d="M6.27756 22.5562C6.27756 22.6953 6.27756 22.8344 6.27756 22.9735C6.13843 22.9735 5.9993 22.9735 5.86017 22.9735C5.86017 22.8344 5.86017 22.6953 5.86017 22.5562C5.9993 22.5562 6.13843 22.5562 6.27756 22.5562Z" fill="#D8FFFD"/>
<path opacity="0.055" fill-rule="evenodd" clip-rule="evenodd" d="M5.99929 10.3127C4.12014 12.215 2.26506 14.1396 0.434073 16.0866C2.77526 18.5901 5.18685 21.0249 7.66886 23.3909C7.81976 23.6813 8.05163 23.8668 8.36451 23.9475C8.59357 24.408 8.91821 24.779 9.33842 25.0605C9.30197 25.2661 9.34834 25.4516 9.47755 25.617C9.92782 25.7748 10.067 26.0531 9.89494 26.4518C9.70944 26.4518 9.52392 26.4518 9.33842 26.4518C9.33842 26.3127 9.33842 26.1736 9.33842 26.0344C9.19929 26.0344 9.06016 26.0344 8.92103 26.0344C8.92103 25.7562 8.92103 25.4779 8.92103 25.1996C8.73553 25.1996 8.55001 25.1996 8.36451 25.1996C8.42989 24.8037 8.31395 24.4791 8.01668 24.2257C7.95208 24.3084 7.92889 24.4012 7.94712 24.504C7.60291 24.396 7.51015 24.1873 7.66886 23.8779C7.59314 23.7781 7.50038 23.7086 7.3906 23.6692C7.25735 23.4658 7.09503 23.2803 6.90364 23.1127C6.70314 23.2184 6.49444 23.3111 6.27755 23.3909C6.35926 23.124 6.35926 22.8457 6.27755 22.5562C6.10404 22.3227 5.87215 22.1372 5.5819 21.9996C5.48914 22.0924 5.3964 22.1851 5.30364 22.2779C5.12707 21.9725 5.12707 21.6712 5.30364 21.3736C5.06806 21.2557 4.83617 21.1398 4.60799 21.0257C4.42265 20.8407 4.3067 20.6088 4.26016 20.3301C4.14422 20.5388 3.9819 20.7011 3.7732 20.817C3.9051 20.8842 4.04423 20.9073 4.1906 20.8866C4.1906 21.0721 4.1906 21.2577 4.1906 21.4431C3.63407 21.4431 3.35581 21.1649 3.35581 20.6083C3.61443 20.6138 3.79993 20.4979 3.91233 20.2605C3.81958 20.2142 3.72683 20.1677 3.63407 20.1214C3.76633 20.0215 3.78951 19.9056 3.70364 19.7736C3.51496 19.896 3.30627 19.9425 3.07755 19.9127C3.09935 19.7217 3.07616 19.5361 3.00799 19.3562C2.95039 19.4197 2.88082 19.4662 2.79929 19.4953C2.63636 19.1694 2.47403 18.8447 2.31233 18.5214C2.15438 18.4898 1.99206 18.4435 1.82538 18.3822C1.64591 18.0634 1.41404 17.7851 1.12973 17.5475C1.15885 17.4659 1.20522 17.3964 1.26886 17.3388C1.03697 17.2924 0.805092 17.246 0.573204 17.1996C0.758679 16.9436 0.735499 16.8741 0.503639 16.9909C0.343805 16.5884 0.27424 16.1711 0.294943 15.7388C2.00796 14.1185 3.67752 12.4489 5.30364 10.7301C5.50395 10.528 5.73583 10.3889 5.99929 10.3127Z" fill="#DEFCF4"/>
<path opacity="0.027" fill-rule="evenodd" clip-rule="evenodd" d="M4.46885 21.1649C4.48708 21.2677 4.46389 21.3605 4.39929 21.4431C4.30305 21.3128 4.32624 21.2201 4.46885 21.1649Z" fill="#D7FFFD"/>
<path opacity="0.01" fill-rule="evenodd" clip-rule="evenodd" d="M4.60796 21.0258C4.5152 21.1186 4.5152 21.1186 4.60796 21.0258Z" fill="#FED6FD"/>
<path opacity="0.024" fill-rule="evenodd" clip-rule="evenodd" d="M15.0428 22.9736C15.4096 23.2037 15.3632 23.2733 14.9036 23.1823C14.981 23.129 15.0273 23.0594 15.0428 22.9736Z" fill="#FFB0E7"/>
<path opacity="0.01" fill-rule="evenodd" clip-rule="evenodd" d="M14.7645 23.5301C14.95 23.6229 14.95 23.6229 14.7645 23.5301Z" fill="#FDFE7D"/>
<path opacity="0.024" fill-rule="evenodd" clip-rule="evenodd" d="M14.208 23.5301C14.3299 23.5119 14.4227 23.5582 14.4862 23.6692C14.2791 24.3852 14.1863 24.3389 14.208 23.5301Z" fill="#FFE6C9"/>
<path opacity="0.038" fill-rule="evenodd" clip-rule="evenodd" d="M6.41665 23.8083C6.68999 23.8707 6.73636 24.0098 6.55578 24.2257C6.43256 24.111 6.38618 23.9718 6.41665 23.8083Z" fill="#FEFFD8"/>
<path opacity="0.027" fill-rule="evenodd" clip-rule="evenodd" d="M7.39058 23.6692C7.38716 24.0419 7.20164 24.2274 6.83406 24.2257C6.83235 23.8581 7.01785 23.6727 7.39058 23.6692Z" fill="#E2FEF4"/>
<path opacity="0.024" fill-rule="evenodd" clip-rule="evenodd" d="M17.408 23.9475C17.5467 23.7787 17.6858 23.8019 17.8254 24.017C17.6755 24.0824 17.5364 24.0592 17.408 23.9475Z" fill="#E7C8DF"/>
<path opacity="0.01" fill-rule="evenodd" clip-rule="evenodd" d="M15.1819 24.2257C15.2371 24.0831 15.3298 24.0599 15.4601 24.1561C15.3775 24.2207 15.2847 24.2439 15.1819 24.2257Z" fill="#FEFD42"/>
<path opacity="0.051" fill-rule="evenodd" clip-rule="evenodd" d="M16.0167 24.2258C16.2735 24.1871 16.4591 24.2799 16.5732 24.504C16.2486 24.7045 16.0631 24.6118 16.0167 24.2258Z" fill="#FEFEFE"/>
<path opacity="0.01" fill-rule="evenodd" clip-rule="evenodd" d="M17.1297 24.2257C17.3152 24.3185 17.3152 24.3185 17.1297 24.2257Z" fill="#FD45FE"/>
<path opacity="0.041" fill-rule="evenodd" clip-rule="evenodd" d="M7.94712 24.504C8.08973 24.5592 8.11292 24.6519 8.01668 24.7822C7.95208 24.6996 7.92889 24.6068 7.94712 24.504Z" fill="#FEFFD8"/>
<path opacity="0.012" fill-rule="evenodd" clip-rule="evenodd" d="M17.9645 24.7822C18.1499 24.875 18.1499 24.875 17.9645 24.7822Z" fill="#FEFF5B"/>
<path opacity="0.055" fill-rule="evenodd" clip-rule="evenodd" d="M7.94712 24.9214C8.08973 24.9766 8.11292 25.0693 8.01668 25.1996C7.95208 25.117 7.92889 25.0242 7.94712 24.9214Z" fill="#FEFFD9"/>
<path opacity="0.029" fill-rule="evenodd" clip-rule="evenodd" d="M17.5471 25.1996C17.6072 25.368 17.7 25.5071 17.8254 25.617C17.8717 25.7098 17.9182 25.8025 17.9645 25.8953C17.2475 25.7585 16.8532 25.3411 16.7819 24.6431C16.9812 24.9129 17.2362 25.0984 17.5471 25.1996Z" fill="#FEFEF9"/>
<path opacity="0.04" fill-rule="evenodd" clip-rule="evenodd" d="M18.6602 24.504C18.7993 24.6894 18.9384 24.6894 19.0775 24.504C19.263 24.5968 19.4021 24.7359 19.4949 24.9214C19.4742 25.0677 19.4973 25.2069 19.5645 25.3387C20.0079 25.7758 20.4485 26.1932 20.8862 26.5909C19.9934 26.7719 19.3906 26.4472 19.0775 25.617C18.858 25.506 18.6262 25.4364 18.3819 25.4083C18.7378 25.2163 18.7378 25.0076 18.3819 24.7822C18.4853 24.6873 18.5779 24.5945 18.6602 24.504Z" fill="#F1F8F4"/>
<path opacity="0.01" fill-rule="evenodd" clip-rule="evenodd" d="M17.8254 25.617C17.7 25.5071 17.6072 25.368 17.5471 25.1996C17.633 25.1842 17.7025 25.1378 17.7558 25.0605C17.824 25.2404 17.8472 25.426 17.8254 25.617Z" fill="#FFFE52"/>
<path opacity="0.031" fill-rule="evenodd" clip-rule="evenodd" d="M8.3645 25.3387C8.50363 25.3387 8.64276 25.3387 8.78189 25.3387C8.78189 25.4779 8.78189 25.617 8.78189 25.7561C8.64276 25.7561 8.50363 25.7561 8.3645 25.7561C8.3645 25.617 8.3645 25.4779 8.3645 25.3387Z" fill="#FEFFD8"/>
<path opacity="0.01" fill-rule="evenodd" clip-rule="evenodd" d="M15.4602 25.3387C15.6028 25.394 15.626 25.4866 15.5297 25.617C15.4652 25.5344 15.4419 25.4416 15.4602 25.3387Z" fill="#FDFEFD"/>
<path opacity="0.01" fill-rule="evenodd" clip-rule="evenodd" d="M18.1036 25.6171C18.2891 25.7099 18.2891 25.7099 18.1036 25.6171Z" fill="#FEFE00"/>
<path opacity="0.01" fill-rule="evenodd" clip-rule="evenodd" d="M15.8776 25.7562C16.063 25.849 16.063 25.849 15.8776 25.7562Z" fill="#FDFEFD"/>
<path opacity="0.01" fill-rule="evenodd" clip-rule="evenodd" d="M18.7993 26.0344C18.8545 25.8918 18.9472 25.8686 19.0775 25.9649C18.9949 26.0294 18.9021 26.0526 18.7993 26.0344Z" fill="#67FEFD"/>
<path opacity="0.01" fill-rule="evenodd" clip-rule="evenodd" d="M17.9645 25.8953C18.2201 25.9146 18.2664 26.0074 18.1036 26.1735C17.9926 26.1099 17.9463 26.0171 17.9645 25.8953Z" fill="#FFFDA5"/>
<path opacity="0.07" fill-rule="evenodd" clip-rule="evenodd" d="M6.69495 26.3127C6.95053 26.332 6.99692 26.4248 6.83408 26.5909C6.72313 26.5274 6.67674 26.4346 6.69495 26.3127Z" fill="#FDFEFD"/>
<path opacity="0.012" fill-rule="evenodd" clip-rule="evenodd" d="M11.9819 26.3127C12.1674 26.4055 12.1674 26.4055 11.9819 26.3127Z" fill="#FDFECA"/>
<path opacity="0.01" fill-rule="evenodd" clip-rule="evenodd" d="M12.5384 26.3127C12.7239 26.4055 12.7239 26.4055 12.5384 26.3127Z" fill="#FDFE28"/>
<path opacity="0.01" fill-rule="evenodd" clip-rule="evenodd" d="M13.0949 26.3127C13.2804 26.4055 13.2804 26.4055 13.0949 26.3127Z" fill="#FDFE5C"/>
<path opacity="0.01" fill-rule="evenodd" clip-rule="evenodd" d="M14.4863 26.5909C14.5415 26.4483 14.6342 26.4251 14.7645 26.5214C14.6819 26.5859 14.5891 26.6092 14.4863 26.5909Z" fill="#FDFEFD"/>
</g>
<defs>
<clipPath id="clip0_57_407">
<rect width="32" height="32" fill="white"/>
</clipPath>
</defs>
</svg>
