<svg width="32" height="32" viewBox="0 0 32 32" fill="none" xmlns="http://www.w3.org/2000/svg">
<rect x="0.973572" y="5.50995" width="30.2646" height="20.5139" fill="white"/>
<path d="M31.9788 26.9563H0.0296021V4.96317H31.9746V26.9563H31.9788ZM0.829602 26.1552H31.1788V5.76422H0.829602V26.1552Z" fill="#1A1110"/>
<path d="M6.7005 23.4003C5.04971 23.4003 3.70367 22.0567 3.70367 20.3995C3.70367 18.7423 5.04547 17.3987 6.7005 17.3987C8.35553 17.3987 9.69733 18.7423 9.69733 20.3995C9.69733 22.0567 8.35553 23.4003 6.7005 23.4003ZM6.7005 18.204C5.48992 18.204 4.50367 19.1915 4.50367 20.4037C4.50367 21.6159 5.48992 22.6034 6.7005 22.6034C7.91108 22.6034 8.89732 21.6159 8.89732 20.4037C8.89732 19.1873 7.91531 18.204 6.7005 18.204Z" fill="#1A1110"/>
<path d="M25.3079 23.4003C23.6571 23.4003 22.3111 22.0567 22.3111 20.3995C22.3111 18.7423 23.6529 17.3987 25.3079 17.3987C26.9629 17.3987 28.3047 18.7423 28.3047 20.3995C28.3047 22.0567 26.9587 23.4003 25.3079 23.4003ZM25.3079 18.204C24.0973 18.204 23.1111 19.1915 23.1111 20.4037C23.1111 21.6159 24.0973 22.6034 25.3079 22.6034C26.5185 22.6034 27.5047 21.6159 27.5047 20.4037C27.5005 19.1873 26.5185 18.204 25.3079 18.204Z" fill="#1A1110"/>
<path d="M25.3079 14.6183C23.6571 14.6183 22.3111 13.2747 22.3111 11.6175C22.3111 9.96028 23.6529 8.6167 25.3079 8.6167C26.9629 8.6167 28.3047 9.96028 28.3047 11.6175C28.3047 13.2747 26.9587 14.6183 25.3079 14.6183ZM25.3079 9.422C24.0973 9.422 23.1111 10.4095 23.1111 11.6217C23.1111 12.8339 24.0973 13.8215 25.3079 13.8215C26.5185 13.8215 27.5047 12.8339 27.5047 11.6217C27.5047 10.4095 26.5185 9.422 25.3079 9.422Z" fill="#1A1110"/>
<path d="M16.0508 14.6183C14.4 14.6183 13.054 13.2747 13.054 11.6175C13.054 9.96028 14.3958 8.6167 16.0508 8.6167C17.7058 8.6167 19.0476 9.96028 19.0476 11.6175C19.0476 13.2747 17.7016 14.6183 16.0508 14.6183ZM16.0508 9.422C14.8402 9.422 13.854 10.4095 13.854 11.6217C13.854 12.8339 14.8402 13.8215 16.0508 13.8215C17.2614 13.8215 18.2476 12.8339 18.2476 11.6217C18.2476 10.4095 17.2614 9.422 16.0508 9.422Z" fill="#1A1110"/>
<path d="M8.8423 14.3682H9.93013L6.84442 11.3589L9.14707 9.47284L8.64336 8.85403L4.90156 11.9184V8.85827H4.10156V14.3597H4.90156V12.9526L6.25183 11.8421L8.8423 14.3682Z" fill="#1A1110"/>
<path d="M18.637 17.7844L16.0508 21.4463L13.4688 17.7844H12.7746V22.9807H13.5704V19.3187L16.0508 22.8365L18.5312 19.3187V22.9807H19.3312V17.7844H18.637Z" fill="#1A1110"/>
</svg>
