<svg width="32" height="32" viewBox="0 0 32 32" fill="none" xmlns="http://www.w3.org/2000/svg">
<g clip-path="url(#clip0_6013_550)">
<rect x="4" y="3" width="24" height="28" fill="white"/>
<path opacity="0.991" fill-rule="evenodd" clip-rule="evenodd" d="M24.0432 32C22.6594 32 21.2756 32 19.8919 32C19.8919 30.7248 19.8919 29.4494 19.8919 28.1742C20.8477 28.23 21.7703 28.1721 22.6594 28.0003C25.4709 27.6376 27.2295 26.0725 27.9351 23.3051C28.0505 18.4359 28.0505 13.5667 27.9351 8.69754C27.1417 6.04493 25.3831 4.50882 22.6594 4.08922C18.1045 3.97328 13.5495 3.97328 8.99458 4.08922C6.53446 4.64965 4.89122 6.12779 4.06486 8.52365C3.94954 13.3928 3.94954 18.262 4.06486 23.1312C4.55671 25.5391 5.96932 27.1331 8.30269 27.9134C9.80179 27.9713 11.3009 28.0294 12.8 28.0873C14.5615 29.3677 16.2912 30.6719 17.9892 32C14.645 32 11.3009 32 7.95675 32C3.74623 30.8971 1.09397 28.2307 0 24.0006C0 18.7258 0 13.4508 0 8.17585C1.0451 4.02382 3.63969 1.38634 7.78377 0.263447C12.7952 -0.0145805 17.8113 -0.0725468 22.8324 0.0895482C27.7021 0.696005 30.7291 3.39144 31.9135 8.17585C32.0288 13.3928 32.0288 18.6098 31.9135 23.8267C30.9507 28.1854 28.3274 30.9098 24.0432 32Z" fill="#FF5551"/>
<path fill-rule="evenodd" clip-rule="evenodd" d="M12.2811 7.82805C12.8032 7.79943 13.3221 7.8284 13.8378 7.915C14.1741 8.28939 14.2605 8.72414 14.0973 9.21924C13.0885 9.40758 12.2236 9.87131 11.5027 10.6104C11.304 11.1135 11.2175 11.6352 11.2432 12.1755C12.0525 12.1467 12.8597 12.1757 13.6648 12.2625C13.8233 12.3275 13.9675 12.4145 14.0973 12.5233C14.2126 13.8566 14.2126 15.1898 14.0973 16.523C14.0108 16.6099 13.9243 16.6969 13.8378 16.7838C12.5117 16.8998 11.1856 16.8998 9.85944 16.7838C9.77295 16.6969 9.68647 16.6099 9.59998 16.523C9.48466 14.5522 9.48466 12.5813 9.59998 10.6104C10.0599 9.24975 10.9536 8.32229 12.2811 7.82805Z" fill="#0D0E0C"/>
<path fill-rule="evenodd" clip-rule="evenodd" d="M20.4108 7.82805C20.9328 7.79943 21.4517 7.8284 21.9676 7.915C22.5707 8.34118 22.6283 8.83388 22.1405 9.39314C20.3729 9.48868 19.5081 10.4161 19.5459 12.1755C20.3553 12.1467 21.1624 12.1757 21.9676 12.2625C22.1116 12.4074 22.2559 12.5523 22.4 12.6972C22.5154 13.9725 22.5154 15.2477 22.4 16.523C22.3135 16.6099 22.227 16.6969 22.1405 16.7838C20.8143 16.8998 19.4883 16.8998 18.1622 16.7838C18.0757 16.6969 17.9892 16.6099 17.9027 16.523C17.7873 14.4942 17.7873 12.4654 17.9027 10.4365C18.4252 9.24477 19.2614 8.37528 20.4108 7.82805Z" fill="#0D0E0C"/>
<path fill-rule="evenodd" clip-rule="evenodd" d="M10.3783 21.0444C14.1265 21.0153 17.8743 21.0444 21.6216 21.1313C21.7183 21.2574 21.7759 21.4023 21.7945 21.5661C20.1113 24.382 17.6321 25.5124 14.3567 24.9571C12.7012 24.3429 11.3462 23.3285 10.2919 21.9139C10.1812 21.6069 10.21 21.317 10.3783 21.0444Z" fill="#10110F"/>
</g>
<defs>
<clipPath id="clip0_6013_550">
<rect width="32" height="32" fill="white"/>
</clipPath>
</defs>
</svg>
