<svg width="32" height="32" viewBox="0 0 32 32" fill="none" xmlns="http://www.w3.org/2000/svg">
<g clip-path="url(#clip0_58_697)">
<path d="M32 0H0V32H32V0Z" fill="#FF4805"/>
<path opacity="0.9" fill-rule="evenodd" clip-rule="evenodd" d="M9.35386 1.21794C12.948 0.487497 15.9018 1.47211 18.2154 4.17179C22.802 1.9688 26.1662 3.11752 28.3077 7.61794C28.5476 13.7793 25.6758 16.1588 19.6923 14.7564C18.8131 14.3702 18.0746 13.7958 17.4769 13.0333C14.33 15.9251 10.9659 16.1712 7.38463 13.7718C3.63978 8.85108 4.29618 4.66646 9.35386 1.21794ZM10.8308 4.17179C13.7425 3.9659 15.5477 5.27872 16.2462 8.11025C14.6214 12.5012 12.0777 13.1577 8.6154 10.0795C7.78276 7.43633 8.52122 5.4671 10.8308 4.17179ZM21.1692 6.14102C24.2535 6.07377 25.4843 7.55069 24.8616 10.5718C22.8122 12.6629 21.007 12.4987 19.4462 10.0795C19.0914 8.32997 19.6657 7.01713 21.1692 6.14102Z" fill="white"/>
<path opacity="0.892" fill-rule="evenodd" clip-rule="evenodd" d="M14.2769 15.9872C17.5631 15.9053 20.8452 15.9874 24.1231 16.2333C26.4553 16.7001 27.8502 18.095 28.3077 20.4179C28.6359 22.5513 28.6359 24.6846 28.3077 26.8179C27.9681 28.1452 27.2296 29.2118 26.0923 30.0179C21.8763 30.8089 17.6096 30.973 13.2923 30.5103C12.0712 29.7808 11.0046 28.8783 10.0923 27.8026C8.44072 28.6703 6.71765 29.3267 4.92309 29.7718C4.00053 29.826 3.26207 29.4979 2.7077 28.7872C2.3795 25.341 2.3795 21.8949 2.7077 18.4487C3.31908 17.7732 4.05754 17.2809 4.92309 16.9718C6.78682 17.6574 8.59191 18.4779 10.3385 19.4333C11.3814 17.893 12.6942 16.7442 14.2769 15.9872ZM14.2769 19.4333C17.5631 19.3515 20.8452 19.4335 24.1231 19.6795C24.3692 19.9256 24.6154 20.1718 24.8615 20.4179C25.1898 22.5513 25.1898 24.6846 24.8615 26.8179C24.6154 27.0641 24.3692 27.3103 24.1231 27.5564C20.841 27.8846 17.559 27.8846 14.2769 27.5564C14.0308 27.3103 13.7846 27.0641 13.5385 26.8179C13.0239 24.2159 13.2701 21.7543 14.2769 19.4333ZM5.4154 20.9103C7.28085 21.4322 8.92186 22.3347 10.3385 23.6179C9.04021 24.7619 7.56328 25.6645 5.9077 26.3256C5.4207 24.5497 5.2566 22.7446 5.4154 20.9103Z" fill="white"/>
</g>
<defs>
<clipPath id="clip0_58_697">
<rect width="32" height="32" fill="white"/>
</clipPath>
</defs>
</svg>
