<svg width="32" height="32" viewBox="0 0 32 33" fill="none" xmlns="http://www.w3.org/2000/svg">
    <path
        d="M5.95045 21.0191C5.9674 20.8987 12.1347 4.6001 12.1347 4.6001H8.20853C7.79014 4.6014 7.38018 4.78168 7.02408 5.12096C6.66799 5.46024 6.37969 5.94524 6.19117 6.52218C6.03805 6.99385 5.95687 7.5134 5.95384 8.04103L5.95045 21.0191Z"
        fill="#1BBCC0" />
    <path
        d="M0.271249 14.7341L4.09914 24.7321L4.05506 9.98377H2.05804C1.78794 9.98308 1.52041 10.0647 1.27073 10.2238C1.02105 10.383 0.794151 10.6167 0.603 10.9115C0.411849 11.2063 0.260202 11.5564 0.156734 11.9418C0.0532663 12.3272 7.45213e-06 12.7403 7.81989e-06 13.1576C-0.000985032 13.7108 0.0925816 14.2546 0.271249 14.7341Z"
        fill="#A9D9DC" />
    <path
        d="M6.3132 27.8266C6.31197 28.2955 6.36242 28.7613 6.46239 29.2041L6.4929 29.3402V29.3821C6.51653 29.4803 6.54369 29.5765 6.57427 29.6701C6.69718 30.0738 6.86212 30.4436 7.0625 30.7647C7.31471 31.1818 7.61897 31.5155 7.95695 31.7459C8.29492 31.9764 8.6596 32.0987 9.02899 32.1055H20.2414C20.6291 32.1053 21.0117 31.968 21.3596 31.7037C21.7076 31.4395 22.0117 31.0556 22.2485 30.5814L31.542 6.29597L31.7353 5.77225C31.9273 5.17454 32.0175 4.51104 31.9972 3.84448C31.977 3.17793 31.847 2.53036 31.6195 1.96304C31.3922 1.39572 31.0748 0.92737 30.6976 0.602325C30.3203 0.277279 29.8956 0.106274 29.4635 0.105469H17.9155C17.5036 0.105837 17.0979 0.260973 16.7335 0.557509C16.369 0.854045 16.0567 1.28307 15.8236 1.80758L15.6473 2.26847L6.58443 25.9726C6.53935 26.1245 6.49974 26.2801 6.46577 26.4387C6.43194 26.5897 6.40364 26.7436 6.381 26.8996C6.33544 27.2036 6.31269 27.5147 6.3132 27.8266Z"
        fill="#0C4152" />
</svg>