<svg width="32" height="32" viewBox="0 0 33 33" fill="none" xmlns="http://www.w3.org/2000/svg">
    <path
        d="M6.7699 8.65888L16.7306 15.6375C16.8611 15.7248 17.0133 15.7248 17.1438 15.6375L27.1046 8.65888C27.3003 8.51349 27.3003 8.16456 27.1046 8.01917L17.1438 1.04052C17.0133 0.953289 16.8611 0.953289 16.7306 1.04052L6.7699 8.01917C6.57417 8.16456 6.57417 8.51349 6.7699 8.65888ZM4.00787 15.1141L16.7306 24.0119C16.8611 24.0991 17.0133 24.0991 17.1438 24.0119L29.8666 15.1141C30.0623 14.9687 30.0623 14.6198 29.8666 14.4744L26.2129 11.9156L17.1438 18.2836C17.0133 18.3708 16.8611 18.3708 16.7306 18.2836L7.66158 11.9447L4.00787 14.5035C3.81213 14.6198 3.81213 14.9687 4.00787 15.1141ZM32.7809 21.3077L28.7792 18.5162L17.1438 26.687C17.0133 26.7743 16.8611 26.7743 16.7306 26.687L5.07354 18.5162L1.07185 21.3077C0.876115 21.4531 0.876115 21.802 1.07185 21.9474L16.7089 32.9097C16.8394 32.9969 16.9916 32.9969 17.1221 32.9097L32.7591 21.9474C32.9766 21.802 32.9766 21.4531 32.7809 21.3077Z"
        fill="black" />
</svg>