<svg width="32" height="32" viewBox="0 0 32 33" fill="none" xmlns="http://www.w3.org/2000/svg">
    <path
        d="M32 12.6099C32 12.5043 32 12.3988 31.8498 12.2933L24.0376 3.00635C22.385 1.00122 20.2817 0.579089 18.4789 1.31782L7.3615 5.85575C5.70892 6.48895 5.10798 8.07195 6.15962 9.23281L13.3709 17.8865C13.3709 17.8865 13.3709 17.9921 13.5211 17.9921L14.5728 18.8363C14.723 19.0474 14.8732 19.2585 14.723 19.4695L14.4225 20.3138V26.5403C14.4225 27.1735 15.1737 27.8067 16.0751 27.8067C17.1268 27.8067 18.0282 27.279 18.0282 26.5403V18.6253C18.0282 18.5197 18.0282 18.4142 17.8779 18.3087L9.31455 8.28301C9.16432 8.07195 9.31455 7.86088 9.46479 7.75535L19.6808 3.63955C19.9812 3.53402 20.2817 3.63955 20.4319 3.74509L28.2441 12.9265C28.3944 13.032 28.3944 13.1375 28.3944 13.2431V25.1683C28.3944 25.2739 28.2441 25.3794 28.0939 25.4849L16.3756 30.2339C16.0751 30.3395 15.7746 30.3395 15.4742 30.2339L3.75587 25.3794C3.60563 25.2739 3.4554 25.1683 3.4554 25.0628V15.8814C3.4554 15.5648 3.9061 15.4593 4.20657 15.5648L9.01408 17.5699C9.31455 17.6755 9.76526 17.6755 10.0657 17.3589C10.3662 17.0423 10.216 16.7257 9.91549 16.5146L2.40376 13.4541L5.55869 12.1877C6.00939 11.9767 6.30986 11.5545 6.30986 11.2379C6.30986 10.9213 5.85916 10.8158 5.55869 10.9213L0.450704 12.9265H0.300469C0.150235 12.9265 0.150235 13.032 0.150235 13.032C0 13.3486 0 13.4541 0 13.5597V25.3794C0 26.2237 0.751174 27.0679 1.80282 27.4901L14.1221 32.6612C14.723 32.8722 15.3239 32.9778 15.9249 32.9778C16.5258 32.9778 17.1268 32.8722 17.7277 32.6612L30.1972 27.5956C31.2488 27.1735 32 26.3292 32 25.4849V12.6099Z"
        fill="#2664EC" />
</svg>