<svg width="32" height="32" viewBox="0 0 33 32" fill="none" xmlns="http://www.w3.org/2000/svg">
    <path fill-rule="evenodd" clip-rule="evenodd"
        d="M18.796 3.00268C18.4201 2.58057 17.8497 2.18022 17.0845 1.80161C17.0085 1.8588 16.9323 1.916 16.8563 1.97319C16.5161 1.71518 16.0978 1.57219 15.6013 1.54424C15.7535 1.48705 15.9054 1.42984 16.0576 1.37265C15.6159 1.23316 15.1595 1.14737 14.6885 1.11528C15.1743 0.486417 15.8589 0.114651 16.7422 0C17.8184 0.846087 18.503 1.84697 18.796 3.00268Z"
        fill="#D28B2B" />
    <path fill-rule="evenodd" clip-rule="evenodd"
        d="M14.6885 1.11523C15.1594 1.14732 15.6158 1.23311 16.0576 1.37261C15.9054 1.4298 15.7534 1.487 15.6012 1.54419C16.0978 1.57214 16.5161 1.71514 16.8563 1.97314C16.9323 1.91596 17.0085 1.85875 17.0845 1.80156C17.8496 2.18017 18.4201 2.58053 18.796 3.00263C18.796 3.40299 18.796 3.80335 18.796 4.20371C18.3229 3.90279 17.8286 3.61681 17.3127 3.3458C17.2367 3.46019 17.1605 3.57457 17.0845 3.68896C16.7041 3.46019 16.3239 3.2314 15.9435 3.00263C15.8675 3.11703 15.7913 3.2314 15.7153 3.3458C15.6393 3.11703 15.5631 2.88824 15.4871 2.65947C15.4111 2.77386 15.3349 2.88824 15.2589 3.00263C14.6526 2.68938 14.0821 2.34621 13.5475 1.97314C13.8517 1.62998 14.2321 1.344 14.6885 1.11523Z"
        fill="#D6772B" />
    <path fill-rule="evenodd" clip-rule="evenodd"
        d="M13.5475 1.97314C14.0821 2.34621 14.6526 2.68938 15.2589 3.00264C15.3349 2.88824 15.4111 2.77387 15.4871 2.65947C15.5631 2.88824 15.6393 3.11703 15.7153 3.3458C15.7913 3.23141 15.8675 3.11703 15.9435 3.00264C16.3239 3.23141 16.7041 3.46019 17.0845 3.68896C17.1605 3.57457 17.2367 3.46019 17.3127 3.3458C17.8286 3.61681 18.3229 3.90279 18.7959 4.20371C18.7959 4.3181 18.7959 4.43248 18.7959 4.54687C18.3053 4.13053 17.7348 3.90176 17.0845 3.86054C16.5902 4.07948 16.1338 4.02228 15.7153 3.68896C15.3132 3.76521 15.3513 3.851 15.8294 3.94633C15.4625 4.05924 15.1962 3.97344 15.0307 3.68896C14.8085 4.09692 14.6563 4.03973 14.5743 3.51738C14.4984 3.63177 14.4221 3.74615 14.3461 3.86054C14.1901 3.54157 13.9619 3.2556 13.6616 3.00264C13.5856 3.11703 13.5094 3.23141 13.4334 3.3458C13.2239 3.02396 12.8816 2.85238 12.4065 2.83105C12.7107 2.48789 13.0911 2.20191 13.5475 1.97314Z"
        fill="#D96C31" />
    <path fill-rule="evenodd" clip-rule="evenodd"
        d="M12.4066 2.83105C12.8817 2.85238 13.2239 3.02396 13.4334 3.3458C13.5094 3.23141 13.5856 3.11703 13.6616 3.00264C13.9619 3.2556 14.1901 3.54157 14.3462 3.86055C14.4222 3.74615 14.4984 3.63178 14.5744 3.51738C14.6563 4.03973 14.8085 4.09692 15.0308 3.68896C15.1962 3.97345 15.4625 4.05924 15.8295 3.94634C15.3514 3.85101 15.3133 3.76521 15.7154 3.68896C16.1339 4.02228 16.5903 4.07948 17.0845 3.86055C17.7349 3.90176 18.3054 4.13053 18.796 4.54687C18.8083 5.43199 18.5041 6.2327 17.8832 6.94902C17.932 6.66695 17.8558 6.40958 17.655 6.1769C17.1986 6.11971 16.7422 6.06251 16.2859 6.00532C16.3618 5.94813 16.4381 5.89092 16.514 5.83374C16.0196 5.51917 15.5253 5.2046 15.0308 4.89004C14.7266 4.89004 14.4222 4.89004 14.118 4.89004C14.042 4.77564 13.9658 4.66127 13.8898 4.54687C13.6616 4.60406 13.4334 4.66127 13.2052 4.71845C13.053 4.03213 12.901 4.03213 12.7488 4.71845C12.6729 4.48968 12.5966 4.2609 12.5206 4.03213C12.4447 4.14652 12.3684 4.2609 12.2925 4.37529C12.2416 3.96679 11.9753 3.68081 11.4938 3.51738C11.722 3.23141 12.0262 3.00264 12.4066 2.83105Z"
        fill="#DE5E37" />
    <path fill-rule="evenodd" clip-rule="evenodd"
        d="M17.1986 7.80706C17.0562 8.1938 16.752 8.47976 16.2858 8.66497C16.2858 8.49339 16.2858 8.3218 16.2858 8.15022C16.0458 8.17587 15.8176 8.14727 15.6013 8.06443C15.6772 8.00724 15.7535 7.95004 15.8295 7.89285C15.3749 7.79431 15.0326 7.59413 14.8026 7.29231C14.7266 7.3495 14.6504 7.40671 14.5744 7.46389C13.9624 6.88855 13.2018 6.65976 12.2924 6.77757C11.8954 6.56896 11.6672 6.28298 11.6079 5.91966C11.4691 6.18842 11.2788 6.41721 11.0374 6.60599C10.6013 6.59324 10.3351 6.42166 10.2387 6.09124C9.71642 6.44099 9.14594 6.44099 8.52723 6.09124C8.31803 6.19886 8.08983 6.25606 7.84265 6.26282C8.3751 5.74808 8.98362 5.29052 9.66821 4.89017C10.2458 4.70067 10.7403 4.70067 11.1515 4.89017C11.2275 5.06175 11.3037 5.23333 11.3797 5.40491C11.6245 5.27113 11.8908 5.29973 12.1783 5.4907C12.1024 5.54789 12.0261 5.6051 11.9501 5.66229C12.7123 5.69048 13.2828 5.94785 13.6616 6.4344C13.7376 6.37722 13.8138 6.32001 13.8898 6.26282C14.0993 6.6287 14.4035 6.74308 14.8026 6.60599C15.1419 6.73517 15.18 6.87815 14.9167 7.03494C15.6042 7.40756 16.3648 7.66494 17.1986 7.80706Z"
        fill="#DA3F4E" />
    <path fill-rule="evenodd" clip-rule="evenodd"
        d="M11.4938 3.51733C11.9753 3.68077 12.2416 3.96674 12.2924 4.37524C12.3684 4.26085 12.4447 4.14647 12.5206 4.03208C12.5966 4.26085 12.6728 4.48964 12.7488 4.71841C12.901 4.03208 13.053 4.03208 13.2052 4.71841C13.4334 4.66122 13.6616 4.60401 13.8898 4.54682C13.9658 4.66122 14.042 4.77559 14.118 4.88999C14.4222 4.88999 14.7266 4.88999 15.0308 4.88999C15.5253 5.20455 16.0195 5.51913 16.514 5.83369C16.4381 5.89088 16.3618 5.94808 16.2858 6.00527C16.7422 6.06246 17.1986 6.11966 17.655 6.17685C17.8558 6.40953 17.932 6.66691 17.8832 6.94897C17.8262 7.32199 17.598 7.60795 17.1986 7.80688C16.3648 7.66476 15.6042 7.40738 14.9167 7.03476C15.18 6.87797 15.1419 6.73499 14.8026 6.60581C14.4035 6.7429 14.0993 6.62852 13.8898 6.26264C13.8138 6.31983 13.7376 6.37704 13.6616 6.43422C13.2828 5.94767 12.7123 5.6903 11.9502 5.66211C12.0261 5.60492 12.1024 5.54771 12.1783 5.49052C11.8908 5.29955 11.6245 5.27095 11.3797 5.40473C11.3037 5.23315 11.2275 5.06157 11.1515 4.88999C10.7403 4.70049 10.2458 4.70049 9.66821 4.88999C10.2007 4.37524 10.8092 3.91769 11.4938 3.51733Z"
        fill="#E15040" />
    <path fill-rule="evenodd" clip-rule="evenodd"
        d="M16.2859 8.66499C16.1337 8.89376 15.9055 9.06534 15.6013 9.17973C15.0406 8.71272 14.356 8.36956 13.5475 8.15024C13.1829 8.57463 12.8406 8.57463 12.5207 8.15024C12.0469 8.36597 11.6284 8.30878 11.2656 7.97866C10.9007 7.75586 10.7866 7.46988 10.9233 7.12075C11.0502 7.48023 11.1643 7.50883 11.2656 7.20654C11.154 7.0112 11.078 6.81101 11.0374 6.606C11.2788 6.41723 11.4691 6.18844 11.6079 5.91968C11.6672 6.283 11.8954 6.56898 12.2925 6.77759C13.2018 6.65978 13.9624 6.88857 14.5744 7.46391C14.6504 7.40673 14.7266 7.34952 14.8026 7.29233C15.0326 7.59414 15.3749 7.79433 15.8295 7.89287C15.7535 7.95006 15.6773 8.00726 15.6013 8.06445C15.8176 8.14729 16.0458 8.17589 16.2859 8.15024C16.2859 8.32182 16.2859 8.4934 16.2859 8.66499Z"
        fill="#E12E5B" />
    <path fill-rule="evenodd" clip-rule="evenodd"
        d="M11.0374 6.60581C11.078 6.81082 11.154 7.011 11.2656 7.20635C11.1643 7.50864 11.0502 7.48004 10.9233 7.12056C10.7866 7.46969 10.9007 7.75566 11.2656 7.97846C11.1134 8.15005 10.9614 8.32163 10.8092 8.49321C10.3737 8.42742 10.0314 8.25584 9.78234 7.97846C9.6302 8.09286 9.47809 8.20723 9.32595 8.32163C8.77082 7.97977 8.23836 7.6366 7.72859 7.29214C7.50622 7.70009 7.3541 7.6429 7.2722 7.12056C7.19615 7.23495 7.12007 7.34932 7.04401 7.46372C6.95301 7.42453 6.91499 7.36732 6.92991 7.29214C6.92991 7.17774 6.92991 7.06337 6.92991 6.94897C7.15811 6.663 7.46236 6.43423 7.84269 6.26265C8.08987 6.25589 8.31806 6.19868 8.52727 6.09106C9.14598 6.44082 9.71646 6.44082 10.2387 6.09106C10.3351 6.42148 10.6014 6.59306 11.0374 6.60581Z"
        fill="#C82959" />
    <path fill-rule="evenodd" clip-rule="evenodd"
        d="M26.7828 7.63535C26.2246 7.78842 26.0726 8.04579 26.3264 8.40747C25.6934 9.48541 25.1229 10.6579 24.6149 11.9249C24.3009 12.5543 23.8827 13.1261 23.3599 13.6407C22.3791 12.9894 21.4284 12.3031 20.5074 11.5817C21.5076 9.56954 23.3332 8.08251 25.9841 7.12061C26.3588 7.20259 26.6251 7.37417 26.7828 7.63535Z"
        fill="#A2247D" />
    <path fill-rule="evenodd" clip-rule="evenodd"
        d="M26.7828 7.6355C27.3152 7.92147 27.7715 8.26464 28.1519 8.66499C27.9548 8.86888 27.7266 9.06905 27.4674 9.26552C27.5433 9.32271 27.6196 9.37992 27.6956 9.43711C26.5788 10.5598 25.8942 11.7037 25.6418 12.8687C25.4362 13.3099 25.132 13.7102 24.729 14.0698C24.8812 14.2985 25.0332 14.5274 25.1854 14.7561C25.1334 14.8246 25.0572 14.8531 24.9572 14.8419C24.7386 14.7642 24.5483 14.6499 24.3867 14.4988C24.2957 14.5379 24.2578 14.5952 24.2726 14.6704C23.8865 14.3778 23.5824 14.0346 23.3599 13.6409C23.8827 13.1263 24.3009 12.5544 24.6149 11.925C25.1229 10.658 25.6934 9.48556 26.3264 8.40762C26.0726 8.04594 26.2246 7.78857 26.7828 7.6355Z"
        fill="#BB1C79" />
    <path fill-rule="evenodd" clip-rule="evenodd"
        d="M11.2656 7.97852C11.6284 8.30864 12.0469 8.36583 12.5207 8.1501C12.8406 8.57449 13.1829 8.57449 13.5475 8.1501C14.356 8.36941 15.0406 8.71258 15.6013 9.17959C15.2209 9.57994 14.7645 9.9231 14.2321 10.2091C13.6409 10.0797 13.2226 9.79368 12.977 9.35117C12.9011 9.46556 12.8248 9.57994 12.7489 9.69433C12.4499 9.31018 12.0316 9.0242 11.4938 8.83642C11.2067 8.92503 10.9785 8.81064 10.8092 8.49326C10.9614 8.32168 11.1134 8.1501 11.2656 7.97852Z"
        fill="#E1226B" />
    <path fill-rule="evenodd" clip-rule="evenodd"
        d="M6.92983 6.94897C6.92983 7.06337 6.92983 7.17774 6.92983 7.29214C6.24427 7.74959 5.78788 8.32153 5.56067 9.00796C5.26335 9.67405 5.11121 10.3604 5.10428 11.0669C5.11624 11.7014 5.19229 12.3306 5.33247 12.9543C4.45516 13.0367 3.5804 13.094 2.70824 13.1259C2.19348 12.6848 1.69905 12.6848 1.22498 13.1259C2.22513 10.6001 4.12674 8.54113 6.92983 6.94897Z"
        fill="#E65F56" />
    <path fill-rule="evenodd" clip-rule="evenodd"
        d="M10.8091 8.49326C10.9785 8.81063 11.2067 8.92503 11.4937 8.83642C11.2235 9.04025 11.2235 9.24041 11.4937 9.43696C11.1859 9.56949 10.9958 9.76967 10.9232 10.0375C10.8472 9.86591 10.771 9.69433 10.695 9.52275C10.6579 9.89611 10.4677 10.2107 10.1246 10.4665C10.8192 10.528 10.8954 10.6424 10.3527 10.8096C10.9413 10.9942 11.3217 11.3087 11.4937 11.7533C10.9623 11.9676 10.544 11.8532 10.2387 11.4101C10.1626 11.4673 10.0865 11.5246 10.0105 11.5817C9.7419 11.2942 9.3996 11.0654 8.98358 10.8954C8.85511 10.5163 8.55084 10.259 8.07081 10.1233C8.22294 10.0661 8.37506 10.0089 8.52719 9.9517C8.21934 9.81917 8.02918 9.61899 7.95671 9.35117C7.88065 9.46556 7.80457 9.57994 7.72851 9.69433C7.33753 9.45786 7.03327 9.1719 6.81574 8.83642C6.6636 9.52275 6.51149 9.52275 6.35935 8.83642C6.14498 9.61628 5.87877 9.67347 5.56067 9.008C5.78788 8.32157 6.24427 7.74964 6.92983 7.29219C6.91491 7.36737 6.95293 7.42458 7.04393 7.46377C7.11999 7.34938 7.19607 7.235 7.27213 7.12061C7.35402 7.64295 7.50614 7.70014 7.72851 7.29219C8.23828 7.63665 8.77075 7.97982 9.32587 8.32168C9.47801 8.20728 9.63013 8.09291 9.78226 7.97851C10.0313 8.25589 10.3736 8.42748 10.8091 8.49326Z"
        fill="#B51A60" />
    <path fill-rule="evenodd" clip-rule="evenodd"
        d="M28.1519 8.66479C28.9887 9.17954 29.7493 9.75147 30.4339 10.3806C29.7664 10.3737 29.158 10.5167 28.6083 10.8096C28.6843 10.8668 28.7605 10.924 28.8365 10.9811C28.5323 11.3243 28.1519 11.6103 27.6955 11.8391C27.7715 12.0106 27.8477 12.1822 27.9237 12.3538C27.4578 12.6868 27.3058 13.0587 27.4673 13.4691C27.3151 13.7551 27.1632 14.041 27.0109 14.327C27.191 15.0339 27.191 15.7774 27.0109 16.5576C26.333 15.99 25.6484 15.4181 24.9572 14.8417C25.0571 14.8529 25.1334 14.8244 25.1854 14.7559C25.0332 14.5272 24.8812 14.2983 24.729 14.0696C25.132 13.71 25.4362 13.3097 25.6418 12.8685C25.8942 11.7035 26.5787 10.5596 27.6955 9.43691C27.6195 9.37972 27.5433 9.32252 27.4673 9.26533C27.7266 9.06885 27.9548 8.86869 28.1519 8.66479Z"
        fill="#D21877" />
    <path fill-rule="evenodd" clip-rule="evenodd"
        d="M11.4937 8.83643C12.0315 9.0242 12.4498 9.31018 12.7487 9.69433C12.8247 9.57994 12.901 9.46556 12.9769 9.35117C13.2225 9.79368 13.6408 10.0797 14.232 10.2091C13.4714 10.8954 12.6346 11.5246 11.7219 12.0965C11.5306 12.0378 11.4544 11.9235 11.4937 11.7533C11.3216 11.3087 10.9412 10.9942 10.3527 10.8096C10.8954 10.6424 10.8191 10.528 10.1245 10.4665C10.4676 10.2107 10.6578 9.89611 10.695 9.52275C10.771 9.69433 10.8472 9.86592 10.9232 10.0375C10.9958 9.76968 11.1858 9.56949 11.4937 9.43696C11.2235 9.24042 11.2235 9.04025 11.4937 8.83643Z"
        fill="#CA1F71" />
    <path fill-rule="evenodd" clip-rule="evenodd"
        d="M11.4937 11.7533C11.4544 11.9235 11.5307 12.0378 11.7219 12.0965C11.4177 12.4396 11.0373 12.7257 10.5809 12.9544C10.2735 12.8393 10.0073 12.8393 9.78223 12.9544C9.4019 12.6684 9.02159 12.3825 8.64126 12.0965C8.48912 12.5541 8.33701 12.5541 8.18487 12.0965C8.10881 12.1536 8.03273 12.2109 7.95668 12.2681C7.59843 12.0769 7.29418 11.8482 7.0439 11.5817C6.96784 11.6962 6.89176 11.8105 6.8157 11.9249C6.58062 11.5344 6.23833 11.4199 5.78883 11.5817C5.50701 11.4376 5.27882 11.266 5.10425 11.067C5.11119 10.3604 5.26332 9.67411 5.56064 9.00801C5.87874 9.67347 6.14495 9.61628 6.35932 8.83643C6.51145 9.52275 6.66357 9.52275 6.8157 8.83643C7.03324 9.1719 7.33749 9.45786 7.72848 9.69433C7.80454 9.57994 7.88062 9.46556 7.95668 9.35117C8.02915 9.61899 8.2193 9.81918 8.52716 9.95171C8.37502 10.0089 8.22291 10.0661 8.07077 10.1233C8.5508 10.259 8.85508 10.5163 8.98355 10.8954C9.39957 11.0654 9.74186 11.2942 10.0104 11.5817C10.0865 11.5246 10.1626 11.4673 10.2386 11.4102C10.544 11.8532 10.9622 11.9676 11.4937 11.7533Z"
        fill="#9C1B5C" />
    <path fill-rule="evenodd" clip-rule="evenodd"
        d="M5.10425 11.0671C5.27882 11.2662 5.50701 11.4378 5.78883 11.5819C6.23833 11.4201 6.58062 11.5345 6.8157 11.925C6.89176 11.8106 6.96784 11.6963 7.0439 11.5819C7.29418 11.8484 7.59843 12.0771 7.95668 12.2682C8.03273 12.2111 8.10881 12.1538 8.18487 12.0966C8.33701 12.5542 8.48912 12.5542 8.64126 12.0966C9.02159 12.3827 9.4019 12.6685 9.78223 12.9545C10.0073 12.8394 10.2735 12.8394 10.5809 12.9545C9.13197 14.2894 8.82772 15.7764 9.66813 17.4157C9.43994 17.3012 9.21174 17.1869 8.98355 17.0725C8.60322 16.6722 8.14683 16.329 7.61438 16.043C7.15535 15.5789 6.69896 15.1213 6.24522 14.6704C5.94097 14.0985 5.63669 13.5264 5.33244 12.9545C5.19226 12.3308 5.11621 11.7016 5.10425 11.0671Z"
        fill="#8B1F57" />
    <path fill-rule="evenodd" clip-rule="evenodd"
        d="M5.33252 12.9544C5.63677 13.5263 5.94104 14.0984 6.24529 14.6703C6.10441 14.6893 5.99031 14.7464 5.903 14.8418C5.66792 14.4513 5.32563 14.3369 4.87613 14.4987C4.44674 14.3969 4.02836 14.2825 3.62106 14.1555C2.80698 14.1994 1.93224 14.1994 0.996826 14.1555C1.00075 13.8012 1.07681 13.458 1.22502 13.126C1.69909 12.6849 2.19352 12.6849 2.70828 13.126C3.58044 13.0941 4.4552 13.0368 5.33252 12.9544Z"
        fill="#E63964" />
    <path fill-rule="evenodd" clip-rule="evenodd"
        d="M24.9572 14.8419C25.6484 15.4183 26.333 15.9902 27.0109 16.5578C27.1851 16.8783 27.4132 17.1643 27.6955 17.4157C27.732 17.6993 27.884 17.928 28.1519 18.102C28.2683 18.6234 28.4205 19.1382 28.6083 19.6462C28.6083 20.1038 28.6083 20.5613 28.6083 21.0189C28.3114 20.8233 28.0451 20.5946 27.8096 20.3326C27.6574 20.7902 27.5054 20.7902 27.3532 20.3326C27.2772 20.3897 27.201 20.447 27.125 20.5041C25.9717 20.163 24.8689 19.6768 23.8162 19.0457C23.5212 18.9616 23.2168 18.933 22.9034 18.9599C24.4419 17.7393 24.8983 16.3095 24.2726 14.6704C24.2578 14.5952 24.2957 14.5379 24.3867 14.4988C24.5483 14.6499 24.7386 14.7642 24.9572 14.8419Z"
        fill="#8B2057" />
    <path fill-rule="evenodd" clip-rule="evenodd"
        d="M30.4339 10.3806C32.4199 12.4646 33.1807 14.7523 32.7158 17.2439C32.3149 17.1593 31.8964 17.102 31.4608 17.0723C31.0384 17.4637 30.658 17.4637 30.3198 17.0723C29.9138 17.2403 29.5337 17.1831 29.1788 16.9007C28.9239 16.929 28.6576 16.9862 28.3802 17.0723C28.1246 16.6027 27.8964 16.7171 27.6956 17.4155C27.4133 17.1641 27.1851 16.8781 27.011 16.5576C27.191 15.7774 27.191 15.0339 27.011 14.327C27.1632 14.041 27.3152 13.7551 27.4674 13.4691C27.3058 13.0587 27.4578 12.6868 27.9238 12.3538C27.8478 12.1822 27.7716 12.0106 27.6956 11.8391C28.152 11.6103 28.5324 11.3243 28.8365 10.9811C28.7606 10.924 28.6843 10.8668 28.6083 10.8096C29.1581 10.5167 29.7664 10.3737 30.4339 10.3806Z"
        fill="#E61574" />
    <path fill-rule="evenodd" clip-rule="evenodd"
        d="M7.61445 16.043C8.1469 16.329 8.60329 16.6722 8.98362 17.0725C8.75709 17.7844 8.37678 18.4422 7.84265 19.0456C7.91871 19.1028 7.99479 19.1601 8.07084 19.2172C7.76659 19.6175 7.46232 20.018 7.15807 20.4183C7.70062 20.5854 7.62456 20.6999 6.92987 20.7615C7.03425 20.8325 7.1103 20.9183 7.15807 21.0188C6.63979 21.741 6.1834 22.4845 5.7889 23.2494C4.95218 22.7347 4.19154 22.1628 3.50696 21.5336C4.05508 21.2414 4.58753 21.0411 5.10432 20.933C4.99994 20.862 4.92388 20.7762 4.87612 20.6757C5.38039 20.3814 5.7607 20.0098 6.01709 19.5604C5.94104 19.5033 5.86496 19.446 5.7889 19.3888C6.40911 19.146 6.56125 18.8029 6.24529 18.3593C6.61626 17.7228 6.92052 17.0651 7.15807 16.3861C7.21448 16.178 7.36659 16.0636 7.61445 16.043Z"
        fill="#CD1877" />
    <path fill-rule="evenodd" clip-rule="evenodd"
        d="M32.7158 17.2439C32.7831 17.6273 32.7069 17.9705 32.4876 18.2733C31.9208 18.1932 31.2741 18.0788 30.548 17.9302C29.7924 18.1 28.9938 18.1572 28.1519 18.1018C27.884 17.9278 27.7321 17.6991 27.6956 17.4154C27.8964 16.7171 28.1246 16.6027 28.3801 17.0723C28.6576 16.9861 28.9239 16.929 29.1788 16.9007C29.5337 17.1831 29.9138 17.2403 30.3198 17.0723C30.658 17.4637 31.0384 17.4637 31.4608 17.0723C31.8964 17.102 32.3149 17.1593 32.7158 17.2439Z"
        fill="#E63168" />
    <path fill-rule="evenodd" clip-rule="evenodd"
        d="M6.24527 14.6703C6.69901 15.1212 7.1554 15.5788 7.61444 16.0429C7.36657 16.0635 7.21446 16.178 7.15805 16.3861C6.9205 17.065 6.61625 17.7227 6.24527 18.3593C6.56123 18.8028 6.40909 19.146 5.78888 19.3888C5.86494 19.4459 5.94102 19.5032 6.01708 19.5603C5.76068 20.0097 5.38037 20.3814 4.87611 20.6756C4.92387 20.7762 4.99993 20.862 5.1043 20.933C4.58751 21.0411 4.05506 21.2413 3.50694 21.5335C1.31502 19.3345 0.478303 16.8751 0.996806 14.1555C1.93222 14.1994 2.80696 14.1994 3.62104 14.1555C4.02834 14.2825 4.44671 14.3969 4.87611 14.4987C5.3256 14.3369 5.6679 14.4513 5.90298 14.8418C5.99029 14.7464 6.10439 14.6893 6.24527 14.6703Z"
        fill="#E61674" />
    <path fill-rule="evenodd" clip-rule="evenodd"
        d="M32.4875 18.2733C32.3899 18.837 32.1617 19.3517 31.803 19.8176C31.0038 19.728 30.167 19.5564 29.2928 19.3028C29.0199 19.3622 29.0199 19.448 29.2928 19.5602C29.0765 19.6431 28.8483 19.6716 28.6082 19.646C28.4204 19.1379 28.2682 18.6232 28.1519 18.1018C28.9937 18.1572 29.7923 18.1 30.5479 17.9302C31.274 18.0788 31.9207 18.1932 32.4875 18.2733Z"
        fill="#E64F59" />
    <path fill-rule="evenodd" clip-rule="evenodd"
        d="M10.3528 18.1018C11.413 18.7845 12.4017 19.528 13.3193 20.3324C12.0311 21.8157 10.4337 23.0739 8.52722 24.1072C8.59217 23.6012 8.59217 23.0006 8.52722 22.3056C8.68844 21.9778 8.91664 21.6347 9.2118 21.2761C9.13575 20.99 9.05967 20.7042 8.98361 20.4182C9.35436 20.2718 9.43044 20.1002 9.2118 19.9034C9.56598 19.2854 9.94632 18.6848 10.3528 18.1018Z"
        fill="#9C267E" />
    <path fill-rule="evenodd" clip-rule="evenodd"
        d="M31.8031 19.8177C30.7374 21.7075 29.14 23.3089 27.011 24.622C27.011 24.5649 27.011 24.5076 27.011 24.4504C27.1817 24.1361 27.4099 23.8501 27.6956 23.5925C28.1771 22.7736 28.4815 21.9157 28.6083 21.0188C28.6083 20.5612 28.6083 20.1038 28.6083 19.6461C28.8484 19.6717 29.0766 19.6432 29.2929 19.5604C29.02 19.4481 29.02 19.3623 29.2929 19.303C30.1671 19.5566 31.0039 19.7282 31.8031 19.8177Z"
        fill="#E66256" />
    <path fill-rule="evenodd" clip-rule="evenodd"
        d="M22.9035 18.9597C23.2168 18.9328 23.5212 18.9615 23.8162 19.0455C24.8689 19.6766 25.9718 20.1629 27.1251 20.504C27.201 20.4468 27.2773 20.3895 27.3533 20.3324C27.5055 20.79 27.6574 20.79 27.8096 20.3324C28.0451 20.5944 28.3114 20.8231 28.6083 21.0187C28.4814 21.9156 28.177 22.7735 27.6955 23.5925C27.5203 23.4615 27.4062 23.29 27.3533 23.0777C27.201 23.764 27.0491 23.764 26.8969 23.0777C26.8209 23.1922 26.7447 23.3064 26.6687 23.4209C26.1552 22.8474 25.5088 22.5329 24.729 22.4772C24.4912 22.1481 24.2252 21.8336 23.9303 21.5335C23.6125 21.9839 23.3464 21.9839 23.1317 21.5335C23.3263 21.0697 23.0221 20.6979 22.2189 20.4182C22.2949 20.3611 22.3711 20.3037 22.4471 20.2466C22.163 20.1109 21.8588 20.0251 21.5343 19.9892C21.9147 19.5889 22.3711 19.2458 22.9035 18.9597Z"
        fill="#A31D5A" />
    <path fill-rule="evenodd" clip-rule="evenodd"
        d="M8.98354 17.0723C9.21173 17.1867 9.43993 17.301 9.66812 17.4154C10.0046 17.576 10.2328 17.8049 10.3527 18.1018C9.94624 18.6848 9.56591 19.2853 9.21173 19.9034C9.43037 20.1002 9.35429 20.2718 8.98354 20.4181C9.0596 20.7041 9.13568 20.99 9.21173 21.276C8.91656 21.6346 8.68837 21.9778 8.52715 22.3055C8.59209 23.0006 8.59209 23.6011 8.52715 24.1071C8.23842 24.2751 7.93416 24.4467 7.61437 24.6219C6.92497 24.218 6.31647 23.7604 5.78882 23.2492C6.18332 22.4843 6.63971 21.7408 7.15798 21.0186C7.11022 20.9181 7.03417 20.8323 6.92979 20.7613C7.62448 20.6997 7.70054 20.5852 7.15798 20.4181C7.46224 20.0178 7.76651 19.6173 8.07076 19.217C7.9947 19.1599 7.91862 19.1026 7.84257 19.0455C8.3767 18.442 8.75701 17.7842 8.98354 17.0723Z"
        fill="#B51D7A" />
    <path fill-rule="evenodd" clip-rule="evenodd"
        d="M21.5342 19.9893C21.8587 20.0251 22.1629 20.1109 22.447 20.2466C22.371 20.3038 22.2948 20.3611 22.2188 20.4182C23.0221 20.6979 23.3263 21.0697 23.1316 21.5335C23.1464 21.6086 23.1086 21.666 23.0175 21.7051C22.9415 21.5906 22.8653 21.4764 22.7893 21.3619C22.6437 21.5522 22.5296 21.7523 22.447 21.9624C22.5365 22.1359 22.6887 22.2217 22.9034 22.2198C22.5992 22.3914 22.5992 22.563 22.9034 22.7346C22.6816 22.7505 22.4534 22.8077 22.2188 22.9061C22.2487 23.0565 22.1727 23.1709 21.9906 23.2493C21.7796 23.0535 21.5892 23.0535 21.4201 23.2493C20.9432 23.0273 20.4868 22.8557 20.051 22.7346C19.975 22.849 19.8988 22.9633 19.8228 23.0777C19.5186 22.849 19.2142 22.6201 18.91 22.3914C18.6793 22.535 18.413 22.5922 18.1113 22.563C19.1763 21.6479 20.3173 20.79 21.5342 19.9893Z"
        fill="#D51E6F" />
    <path fill-rule="evenodd" clip-rule="evenodd"
        d="M23.1316 21.5334C23.3464 21.9838 23.6125 21.9838 23.9303 21.5334C24.2252 21.8335 24.4912 22.148 24.729 22.4771C25.5087 22.5329 26.1552 22.8474 26.6687 23.4208C26.7446 23.3064 26.8209 23.1921 26.8969 23.0776C27.0491 23.764 27.201 23.764 27.3532 23.0776C27.4062 23.2899 27.5203 23.4615 27.6955 23.5924C27.4098 23.8499 27.1816 24.136 27.011 24.4503C26.1717 24.8696 25.5252 24.6981 25.0713 23.9355C24.9894 24.4578 24.8372 24.5151 24.6149 24.1071C24.5389 24.1643 24.4627 24.2216 24.3867 24.2787C24.0214 23.8546 23.565 23.683 23.0176 23.764C22.7825 23.4472 22.5164 23.1612 22.2189 22.9061C22.4535 22.8076 22.6817 22.7504 22.9035 22.7345C22.5993 22.5629 22.5993 22.3913 22.9035 22.2197C22.6887 22.2216 22.5365 22.1358 22.4471 21.9624C22.5297 21.7522 22.6438 21.5521 22.7894 21.3618C22.8653 21.4763 22.9416 21.5905 23.0176 21.705C23.1086 21.6659 23.1465 21.6086 23.1316 21.5334Z"
        fill="#BB2657" />
    <path fill-rule="evenodd" clip-rule="evenodd"
        d="M16.0576 24.2788C17.2828 24.5818 18.3856 25.0394 19.3664 25.6515C19.9278 26.6094 20.6124 27.5244 21.4202 28.3968C21.6728 28.1888 21.7869 28.246 21.7625 28.5684C20.3221 29.7658 18.8007 30.9098 17.1986 32C15.1633 30.284 14.4406 28.2822 15.0307 25.9946C15.3137 25.3979 15.656 24.826 16.0576 24.2788Z"
        fill="#E25A39" />
    <path fill-rule="evenodd" clip-rule="evenodd"
        d="M22.2188 22.9061C22.5164 23.1612 22.7825 23.4473 23.0175 23.764C23.565 23.683 24.0213 23.8546 24.3867 24.2788C24.4627 24.2216 24.5389 24.1643 24.6149 24.1072C24.8371 24.5152 24.9893 24.4579 25.0713 23.9356C25.5251 24.6981 26.1716 24.8697 27.0109 24.4503C27.0109 24.5075 27.0109 24.5648 27.0109 24.6219C26.5545 25.0795 26.0222 25.4798 25.4136 25.823C24.9788 25.8964 24.5606 25.7822 24.1585 25.4798C23.9036 25.5081 23.6373 25.5653 23.3598 25.6514C23.2838 25.537 23.2076 25.4227 23.1316 25.3082C22.9979 25.3441 22.8838 25.4014 22.7893 25.4798C22.5303 24.9296 22.0739 24.7007 21.4202 24.7935C20.956 24.4603 20.4617 24.1458 19.9369 23.8498C19.7203 23.7439 19.5303 23.7724 19.3664 23.9356C18.8375 23.4939 18.191 23.2079 17.4268 23.0777C17.579 22.849 17.8072 22.6774 18.1113 22.5629C18.413 22.5921 18.6793 22.535 18.91 22.3914C19.2142 22.6201 19.5186 22.849 19.8228 23.0777C19.8988 22.9632 19.975 22.849 20.051 22.7345C20.4868 22.8557 20.9432 23.0272 21.4202 23.2493C21.5892 23.0535 21.7796 23.0535 21.9906 23.2493C22.1727 23.1709 22.2487 23.0564 22.2188 22.9061Z"
        fill="#D23453" />
    <path fill-rule="evenodd" clip-rule="evenodd"
        d="M17.4268 23.0776C18.191 23.2079 18.8375 23.4939 19.3665 23.9355C19.5303 23.7724 19.7204 23.7439 19.937 23.8498C20.4618 24.1457 20.9561 24.4602 21.4202 24.7935C22.074 24.7006 22.5304 24.9295 22.7894 25.4798C22.8839 25.4014 22.9979 25.3441 23.1317 25.3082C23.2077 25.4226 23.2839 25.5369 23.3599 25.6514C23.6374 25.5652 23.9037 25.5081 24.1585 25.4798C24.5606 25.7821 24.9789 25.8964 25.4136 25.8229C25.0332 26.2232 24.5768 26.5664 24.0444 26.8524C23.7489 26.6731 23.4448 26.5016 23.1317 26.3377C22.9979 26.3736 22.8839 26.4309 22.7894 26.5093C22.7246 26.0999 22.4964 25.9856 22.1048 26.1661C21.7723 25.3362 21.0877 24.9357 20.051 24.965C19.934 24.6183 19.6677 24.3609 19.2524 24.1929C18.3357 24.0622 17.4229 23.9764 16.514 23.9355C16.6564 23.5488 16.9606 23.2628 17.4268 23.0776Z"
        fill="#D9424D" />
    <path fill-rule="evenodd" clip-rule="evenodd"
        d="M16.514 23.9355C17.4229 23.9764 18.3357 24.0622 19.2523 24.1929C19.6677 24.3609 19.934 24.6183 20.051 24.965C21.0877 24.9357 21.7723 25.3362 22.1048 26.1661C22.4963 25.9856 22.7245 26.0999 22.7893 26.5093C22.8838 26.4309 22.9979 26.3736 23.1316 26.3377C23.4447 26.5016 23.7489 26.6731 24.0444 26.8524C23.3598 27.4816 22.5993 28.0535 21.7625 28.5683C21.7869 28.2459 21.6728 28.1887 21.4202 28.3967C20.6124 27.5244 19.9278 26.6093 19.3664 25.6514C18.3857 25.0393 17.2828 24.5817 16.0576 24.2787C16.1336 24.1071 16.2858 23.9927 16.514 23.9355Z"
        fill="#DD4F42" />
</svg>