<svg width="32" height="32" viewBox="0 0 32 32" fill="none" xmlns="http://www.w3.org/2000/svg">
<rect width="32" height="32" fill="white"/>
<path d="M16.8847 7.83602C11.4452 12.0622 6.81454 15.6818 6.61232 15.884C6.30901 16.1874 6.26856 16.5311 6.30901 18.4117L6.36967 20.5956L16.6825 12.6284L26.9953 4.6613L27.0559 2.39653C27.0761 1.14282 27.0357 0.131757 26.9548 0.151978C26.8739 0.151978 22.3444 3.6098 16.8847 7.83602Z" fill="black"/>
<path d="M13.7706 18.1892L10.8588 20.454L13.8313 20.5147C15.4692 20.5349 18.0979 20.5349 19.655 20.5147L22.5062 20.454L19.9178 18.4319C18.4821 17.3197 17.1678 16.3087 16.9858 16.1671C16.7229 15.9851 16.1769 16.3087 13.7706 18.1892Z" fill="black"/>
<path d="M1.8199 27.8347V31.4745H2.52764H3.23538V27.8347V24.1949H2.52764H1.8199V27.8347Z" fill="black"/>
<path d="M18.8259 24.9431C18.5832 25.4284 15.9747 31.3128 15.9747 31.3937C15.9747 31.4341 16.3387 31.4745 16.7633 31.4745C17.4913 31.4745 17.5722 31.4139 17.7946 30.7668L18.0373 30.0591H19.7156H21.394L21.6366 30.7668C21.8591 31.4139 21.94 31.4745 22.6679 31.4745C23.0926 31.4745 23.4565 31.4139 23.4565 31.3128C23.4565 31.2319 22.7893 29.6951 22.0006 27.8954L20.5245 24.5994H19.7763C19.2708 24.5994 18.9674 24.7207 18.8259 24.9431ZM20.4032 27.7943L20.8278 28.8458H19.7156H18.6035L18.927 28.0774C19.109 27.673 19.3517 27.0663 19.4528 26.7428C19.6954 26.0755 19.7561 26.1564 20.4032 27.7943Z" fill="black"/>
<path d="M24.4676 28.0369V31.4745H25.1753C25.8831 31.4745 25.8831 31.4745 25.8831 30.5646V29.6546H26.6919C27.3997 29.6546 27.5412 29.7355 28.1074 30.5646C28.6736 31.3937 28.8152 31.4745 29.5229 31.4745C29.9678 31.4745 30.3317 31.4341 30.3317 31.3734C30.3317 31.3128 30.0284 30.8477 29.6644 30.3422L28.9971 29.412L29.6644 28.7447C30.5542 27.855 30.6148 26.581 29.806 25.6306C29.1589 24.8622 28.249 24.5994 26.146 24.5994H24.4676V28.0369ZM28.431 26.2373C28.8152 26.5608 28.7949 27.7134 28.3905 28.0572C28.2085 28.1987 27.6019 28.32 27.0155 28.3403H25.9842L25.9235 27.3494C25.8224 25.8531 25.9235 25.7317 27.1166 25.8733C27.6828 25.9542 28.2692 26.1159 28.431 26.2373Z" fill="black"/>
<path d="M5.6417 26.6821C4.79241 27.2483 4.44865 27.8954 4.44865 28.9267C4.44865 29.9175 5.07551 30.9488 5.9248 31.2926C6.77409 31.6565 8.29068 31.6565 8.95798 31.2926C9.58483 30.9488 9.64549 30.6455 9.16019 30.2006C8.83665 29.9377 8.75576 29.9175 8.412 30.1804C7.76493 30.6455 6.91564 30.5242 6.309 29.8973L5.76303 29.3513L7.84581 29.2907L9.90837 29.23V28.6234C9.90837 26.6013 7.44139 25.4689 5.6417 26.6821ZM8.04802 27.5516C8.89731 28.1381 8.61422 28.4414 7.17851 28.4414C5.9248 28.4414 5.86414 28.4212 6.06635 28.037C6.49099 27.2281 7.32006 27.0259 8.04802 27.5516Z" fill="black"/>
<path d="M10.3128 26.3586C10.3128 26.4395 10.7779 27.6325 11.3441 28.9873L12.3956 31.4745H13.2246H14.0537L15.0041 29.1896C16.3791 25.9339 16.3387 26.217 15.5096 26.217C14.8221 26.217 14.8019 26.2373 14.0335 28.0572C13.4269 29.5333 13.2246 29.8366 13.1033 29.5333C13.0224 29.3311 12.6787 28.502 12.3753 27.7336C11.8294 26.3788 11.7687 26.3181 11.061 26.2575C10.6565 26.217 10.3128 26.2575 10.3128 26.3586Z" fill="black"/>
</svg>
