<svg width="32" height="32" viewBox="0 0 32 32" fill="none" xmlns="http://www.w3.org/2000/svg">
<mask id="mask0_65_175" style="mask-type:luminance" maskUnits="userSpaceOnUse" x="11" y="14" width="11" height="6">
<path d="M11.783 14.821H21.222V19.559H11.783V14.821Z" fill="white"/>
</mask>
<g mask="url(#mask0_65_175)">
<mask id="mask1_65_175" style="mask-type:luminance" maskUnits="userSpaceOnUse" x="11" y="14" width="11" height="6">
<path d="M14.9283 19.2867C15.412 19.4513 15.9617 19.559 16.5013 19.559C17.0407 19.559 17.56 19.4667 18.0383 19.3023C18.0483 19.297 18.0587 19.297 18.0687 19.292C19.8653 18.6343 21.1887 16.8973 21.2143 15.0203V14.821H11.783V15.0203C11.8087 16.9077 13.1113 18.6447 14.9283 19.2867Z" fill="white"/>
</mask>
<g mask="url(#mask1_65_175)">
<path d="M11.783 14.821H21.222V19.559H11.783V14.821Z" fill="#D9D9D9"/>
</g>
</g>
<mask id="mask2_65_175" style="mask-type:luminance" maskUnits="userSpaceOnUse" x="2" y="17" width="10" height="3">
<path d="M2.18301 17.19H11.4573V19.5327H2.18301V17.19Z" fill="white"/>
</mask>
<g mask="url(#mask2_65_175)">
<path d="M2.18301 17.19H11.462V19.5327H2.18301V17.19Z" fill="#D9D9D9"/>
</g>
<mask id="mask3_65_175" style="mask-type:luminance" maskUnits="userSpaceOnUse" x="2" y="10" width="5" height="10">
<path d="M2.18301 10.1017H6.82035V19.5327H2.18301V10.1017Z" fill="white"/>
</mask>
<g mask="url(#mask3_65_175)">
<path d="M2.18301 10.1017H6.82035V19.539H2.18301V10.1017Z" fill="#C8C8C8"/>
</g>
<mask id="mask4_65_175" style="mask-type:luminance" maskUnits="userSpaceOnUse" x="21" y="11" width="9" height="9">
<path d="M21.504 11.4347H29.696V19.5414H21.504V11.4347Z" fill="white"/>
</mask>
<g mask="url(#mask4_65_175)">
<mask id="mask5_65_175" style="mask-type:luminance" maskUnits="userSpaceOnUse" x="19" y="11" width="11" height="11">
<path d="M22.959 11.4867L29.6333 18.161L26.283 21.5114L19.6087 14.837L22.959 11.4867Z" fill="white"/>
</mask>
<g mask="url(#mask5_65_175)">
<mask id="mask6_65_175" style="mask-type:luminance" maskUnits="userSpaceOnUse" x="21" y="11" width="9" height="9">
<path d="M22.0253 16.8687C22.251 17.3267 22.5633 17.7917 22.945 18.1734C23.3263 18.5547 23.759 18.8564 24.2133 19.0784C24.2243 19.082 24.2317 19.0894 24.2423 19.0927C25.978 19.898 28.1417 19.6057 29.487 18.2964L29.628 18.1557L22.959 11.4867L22.8183 11.6277C21.5017 12.9804 21.1947 15.1297 22.0253 16.8687Z" fill="white"/>
</mask>
<g mask="url(#mask6_65_175)">
<path d="M22.959 11.4867L29.6333 18.161L26.283 21.5114L19.6087 14.837L22.959 11.4867Z" fill="#D9D9D9"/>
</g>
</g>
</g>
<mask id="mask7_65_175" style="mask-type:luminance" maskUnits="userSpaceOnUse" x="21" y="10" width="9" height="9">
<path d="M21.504 10.0693H29.696V18.176H21.504V10.0693Z" fill="white"/>
</mask>
<g mask="url(#mask7_65_175)">
<mask id="mask8_65_175" style="mask-type:luminance" maskUnits="userSpaceOnUse" x="19" y="8" width="11" height="11">
<path d="M29.6277 11.5063L22.9533 18.1807L19.603 14.8303L26.2773 8.15601L29.6277 11.5063Z" fill="white"/>
</mask>
<g mask="url(#mask8_65_175)">
<mask id="mask9_65_175" style="mask-type:luminance" maskUnits="userSpaceOnUse" x="21" y="10" width="9" height="9">
<path d="M24.246 10.5727C23.7877 10.7983 23.3227 11.1107 22.9413 11.4923C22.5597 11.8737 22.258 12.3063 22.036 12.7607C22.0323 12.7717 22.0253 12.7787 22.0217 12.7897C21.2163 14.525 21.5087 16.689 22.818 18.034L22.959 18.175L29.6277 11.5063L29.487 11.3653C28.1343 10.0487 25.985 9.74202 24.246 10.5727Z" fill="white"/>
</mask>
<g mask="url(#mask9_65_175)">
<path d="M29.6277 11.5063L22.9533 18.1807L19.603 14.8303L26.2773 8.15601L29.6277 11.5063Z" fill="#C8C8C8"/>
</g>
</g>
</g>
<mask id="mask10_65_175" style="mask-type:luminance" maskUnits="userSpaceOnUse" x="11" y="10" width="8" height="10">
<path d="M11.6907 10.0693H18.176V19.2853H11.6907V10.0693Z" fill="white"/>
</mask>
<g mask="url(#mask10_65_175)">
<mask id="mask11_65_175" style="mask-type:luminance" maskUnits="userSpaceOnUse" x="10" y="8" width="9" height="12">
<path d="M18.1373 10.406L14.8523 19.255L10.4103 17.6057L13.6957 8.75702L18.1373 10.406Z" fill="white"/>
</mask>
<g mask="url(#mask11_65_175)">
<mask id="mask12_65_175" style="mask-type:luminance" maskUnits="userSpaceOnUse" x="11" y="10" width="8" height="10">
<path d="M12.856 11.8004C12.5337 12.1964 12.2414 12.6744 12.0534 13.18C11.8657 13.6857 11.7717 14.2047 11.7594 14.7104C11.7607 14.7217 11.757 14.7314 11.7584 14.7427C11.7497 16.656 12.9174 18.501 14.668 19.178L14.855 19.2474L18.1374 10.406L17.9507 10.3367C16.1724 9.7037 14.0907 10.3207 12.856 11.8004Z" fill="white"/>
</mask>
<g mask="url(#mask12_65_175)">
<path d="M18.1373 10.406L14.8523 19.255L10.4103 17.6057L13.6957 8.75702L18.1373 10.406Z" fill="#C8C8C8"/>
</g>
</g>
</g>
</svg>
