<svg width="32" height="32" viewBox="0 0 32 32" fill="none" xmlns="http://www.w3.org/2000/svg">
<path opacity="0.937" fill-rule="evenodd" clip-rule="evenodd" d="M20.5714 3.42858C20.9936 3.35372 21.3746 3.44896 21.7142 3.71429C21.1555 7.37727 20.9651 11.0916 21.1428 14.8572C22.8571 14.8572 24.5714 14.8572 26.2857 14.8572C26.2365 16.1012 25.8555 17.244 25.1428 18.2857C21.3475 18.951 17.5379 19.0462 13.7142 18.5714C16.2383 13.6195 18.524 8.57184 20.5714 3.42858Z" fill="#0043AB"/>
<path opacity="0.854" fill-rule="evenodd" clip-rule="evenodd" d="M19.4285 1.14285C19.9999 1.14285 20.5714 1.14285 21.1428 1.14285C17.9119 7.22274 14.6738 13.3179 11.4285 19.4286C15.619 19.8095 19.8095 20.1905 23.9999 20.5714C23.619 21.1429 23.2381 21.7143 22.8571 22.2857C17.1087 22.6799 11.3945 23.0608 5.71423 23.4286C5.71423 22.8571 5.71423 22.2857 5.71423 21.7143C10.851 15.2551 15.4225 8.39794 19.4285 1.14285Z" fill="#669DF0"/>
<path opacity="0.816" fill-rule="evenodd" clip-rule="evenodd" d="M18.8571 30.8571C18.4761 30.8571 18.0952 30.8571 17.7142 30.8571C18.0926 28.5909 18.2831 26.3052 18.2857 24C19.5301 24.4023 20.673 24.5928 21.7142 24.5714C20.5985 26.611 19.6461 28.7063 18.8571 30.8571Z" fill="#0043AB"/>
</svg>
