<svg width="32" height="32" viewBox="0 0 32 32" fill="none" xmlns="http://www.w3.org/2000/svg">
    <path fill-rule="evenodd" clip-rule="evenodd"
        d="M15.9995 0C24.5921 0 31.6033 6.62329 31.9833 14.9325H32V32L25.9746 27.8771C23.1449 30.0904 19.6257 31.2941 15.9995 31.289C7.16355 31.289 0 24.2848 0 15.6445C0 7.00419 7.16355 0 15.9995 0ZM15.9995 4.16642C9.5161 4.16642 4.26097 9.30507 4.26097 15.6445C4.26097 21.9839 9.5161 27.1225 15.9995 27.1225C22.483 27.1225 27.739 21.9839 27.739 15.6445C27.739 9.30507 22.483 4.16642 15.9995 4.16642Z"
        fill="#32B9F6" />
    <path fill-rule="evenodd" clip-rule="evenodd"
        d="M16.1176 13.9713C17.6386 12.483 18.3996 11.109 18.4014 9.84928C18.4033 7.96016 17.3794 7.27271 16.1176 7.27271C14.8559 7.27271 13.8357 7.96016 13.8338 9.84838C13.8329 11.109 14.5939 12.483 16.1176 13.9713ZM17.7166 14.9761C19.7951 15.5203 21.3932 15.4777 22.5091 14.8492C24.1834 13.906 24.28 12.6943 23.6491 11.6269C23.0182 10.5585 21.8996 10.0379 20.2253 10.9811C19.1094 11.6096 18.2732 12.9419 17.7166 14.9761ZM14.5149 14.9761C13.9574 12.9437 13.1212 11.6114 12.0062 10.9811C10.3338 10.0352 9.21237 10.5585 8.58242 11.6269C7.95061 12.6943 8.05003 13.9023 9.72246 14.8483C10.8374 15.4795 12.4355 15.5221 14.5149 14.9752V14.9761ZM16.1176 17.9899C17.6386 19.479 18.3996 20.853 18.4014 22.1127C18.4033 24.0019 17.3794 24.6884 16.1176 24.6884C14.8559 24.6884 13.8357 24.0019 13.8338 22.1127C13.8329 20.8521 14.5939 19.479 16.1176 17.9899ZM17.7166 16.9859C19.7951 16.4417 21.3932 16.4844 22.5091 17.1129C24.1834 18.0561 24.28 19.2668 23.6491 20.3352C23.0182 21.4026 21.8996 21.9232 20.2253 20.98C19.1094 20.3515 18.2732 19.0201 17.7166 16.9859ZM14.5149 16.9859C13.9574 19.0174 13.1212 20.3497 12.0062 20.98C10.3338 21.9268 9.21237 21.4026 8.58242 20.3352C7.95061 19.2668 8.05003 18.0588 9.72246 17.1129C10.8374 16.4816 12.4355 16.4399 14.5149 16.9859Z"
        fill="#32B9F6" />
</svg>