<svg width="32" height="32" viewBox="0 0 32 32" fill="none" xmlns="http://www.w3.org/2000/svg">
<path d="M12.5566 21.5807L7.00562 29.2393C9.43975 30.9017 12.3785 31.9109 15.5251 32V22.5603C14.4268 22.4712 13.4175 22.1447 12.5566 21.5807Z" fill="#48555C"/>
<path d="M15.4953 9.4397V0C12.3487 0.0890538 9.40997 1.09833 6.97583 2.76067L12.5269 10.3896C13.4174 9.85529 14.4267 9.52876 15.4953 9.4397Z" fill="#B2AD4B"/>
<path d="M24.9943 2.76067C22.5602 1.09833 19.6214 0.0890538 16.4749 0V9.4397C17.5435 9.52876 18.5528 9.85529 19.4433 10.3896L24.9943 2.76067Z" fill="#E3B23A"/>
<path d="M9.9147 18.4935L0.949951 21.4026C1.98891 24.282 3.82936 26.8052 6.23381 28.6457L11.7848 21.0167C10.9537 20.334 10.3303 19.4731 9.9147 18.4935Z" fill="#4E5C5A"/>
<path d="M11.755 10.9833L6.20402 3.35437C3.79957 5.19482 1.95913 7.71801 0.920166 10.5974L9.88491 13.5065C10.3005 12.5269 10.9536 11.6661 11.755 10.9833Z" fill="#9E9540"/>
<path d="M9.4397 16C9.4397 15.4656 9.49907 14.961 9.61781 14.4564L0.623377 11.5176C0.207792 12.9424 0 14.4564 0 16C0 17.5436 0.237477 19.0575 0.653061 20.4823L9.61781 17.5732C9.49907 17.0686 9.4397 16.5343 9.4397 16Z" fill="#6A7B53"/>
<path d="M20.2747 20.9871L25.8257 28.616C28.2004 26.7756 30.0409 24.2524 31.0799 21.373L22.1151 18.4639C21.6995 19.4731 21.0465 20.334 20.2747 20.9871Z" fill="#D45741"/>
<path d="M16.5046 22.5603V32C19.6512 31.9109 22.59 30.9017 25.0241 29.2393L19.4731 21.5807C18.5826 22.115 17.5733 22.4712 16.5046 22.5603Z" fill="#983428"/>
<path d="M31.3766 11.5176L22.4119 14.4267C22.5306 14.9313 22.59 15.4656 22.59 16C22.59 16.5343 22.5306 17.0389 22.4119 17.5436L31.3766 20.4526C31.7922 19.0278 32 17.5436 32 16C32 14.4267 31.7922 12.9424 31.3766 11.5176Z" fill="#E7703D"/>
<path d="M22.0853 13.4768L31.0501 10.5677C30.0111 7.68834 28.1707 5.16515 25.7662 3.32471L20.2449 10.9833C21.0464 11.6364 21.6697 12.4972 22.0853 13.4768Z" fill="#F2A738"/>
</svg>
