<svg width="32" height="32" viewBox="0 0 32 32" fill="none" xmlns="http://www.w3.org/2000/svg">
<path opacity="0.981" fill-rule="evenodd" clip-rule="evenodd" d="M13.9574 0C15.2057 0 16.4539 0 17.7021 0C17.7021 1.11111 17.7021 2.22222 17.7021 3.33333C18.2618 3.4045 18.7724 3.29339 19.234 3C19.4685 2.03062 19.8657 1.14173 20.4255 0.333333C21.5723 0.89109 22.707 1.44664 23.8298 2C23.3759 2.88889 22.922 3.77777 22.4681 4.66667C22.7563 5.11493 23.1535 5.44827 23.6596 5.66667C24.2381 4.53823 25.0892 3.816 26.2128 3.5C27.0695 4.28313 27.8639 5.11647 28.5957 6C27.8156 6.71913 27.0212 7.44137 26.2128 8.16667C26.4358 8.6622 26.7762 9.0511 27.234 9.33333C28.1121 8.9313 28.9632 8.48687 29.7872 8C30.4268 8.98683 30.9375 10.0424 31.3191 11.1667C31.2699 11.424 31.1564 11.6462 30.9787 11.8333C30.0973 12.2322 29.1895 12.5655 28.2553 12.8333C28.5027 13.2996 28.6729 13.7996 28.766 14.3333C29.8065 14.0165 30.8846 13.9054 32 14C32 15.3333 32 16.6667 32 18C30.8846 18.0946 29.8065 17.9835 28.766 17.6667C28.6729 18.2004 28.5027 18.7004 28.2553 19.1667C29.472 19.4802 30.4932 20.0358 31.3191 20.8333C30.8495 21.9193 30.3388 22.9749 29.7872 24C28.8316 23.2432 27.8103 22.9098 26.7234 23C26.596 23.3054 26.4258 23.5832 26.2128 23.8333C27.0212 24.5586 27.8156 25.2809 28.5957 26C27.7868 27.1897 26.7655 28.023 25.5319 28.5C24.7799 27.8755 24.1558 27.1533 23.6596 26.3333C23.1535 26.5517 22.7563 26.8851 22.4681 27.3333C22.922 28.2222 23.3759 29.1111 23.8298 30C22.7667 30.6813 21.6319 31.2368 20.4255 31.6667C19.8657 30.8583 19.4685 29.9694 19.234 29C18.7724 28.7066 18.2618 28.5955 17.7021 28.6667C17.7021 29.7778 17.7021 30.8889 17.7021 32C16.4539 32 15.2057 32 13.9574 32C13.9574 30.8889 13.9574 29.7778 13.9574 28.6667C13.4544 28.5793 13.0004 28.6904 12.5957 29C12.2951 29.9417 11.8979 30.8306 11.4043 31.6667C10.2377 31.1237 9.0462 30.6237 7.82979 30.1667C8.42039 29.2877 8.87428 28.3433 9.19149 27.3333C8.97195 26.9513 8.68824 26.618 8.34043 26.3333C7.5266 27.3656 6.56204 28.0878 5.44681 28.5C4.72507 27.6971 4.04422 26.8638 3.40426 26C3.96565 25.2834 4.58975 24.6167 5.2766 24C5.40854 23.4747 5.23833 23.0303 4.76596 22.6667C3.85814 23.1111 2.95036 23.5556 2.04255 24C1.34677 22.959 0.779394 21.8479 0.340426 20.6667C1.12131 20.0372 2.02911 19.5928 3.06383 19.3333C3.42741 18.7708 3.37068 18.2153 2.89362 17.6667C1.96795 17.9813 1.00341 18.0924 0 18C0 16.6667 0 15.3333 0 14C1.00341 13.9076 1.96795 14.0187 2.89362 14.3333C3.37068 13.7847 3.42741 13.2292 3.06383 12.6667C2.02911 12.4072 1.12131 11.9628 0.340426 11.3333C0.779394 10.1521 1.34677 9.04097 2.04255 8C2.95036 8.44443 3.85814 8.8889 4.76596 9.33333C5.23833 8.9697 5.40854 8.52527 5.2766 8C4.58975 7.3833 3.96565 6.71663 3.40426 6C4.04422 5.13623 4.72507 4.3029 5.44681 3.5C6.56204 3.91217 7.5266 4.6344 8.34043 5.66667C8.68824 5.382 8.97195 5.04867 9.19149 4.66667C8.75111 3.87317 8.41069 3.03984 8.17021 2.16667C9.11016 1.34462 10.1882 0.733503 11.4043 0.333333C11.8979 1.16938 12.2951 2.05827 12.5957 3C13.0004 3.30956 13.4544 3.42067 13.9574 3.33333C13.9574 2.22222 13.9574 1.11111 13.9574 0ZM14.6383 8.33333C21.3247 8.76243 24.1048 12.2069 22.9787 18.6667C20.5365 23.3895 16.8486 24.6673 11.9149 22.5C8.28878 19.4601 7.55118 15.849 9.70213 11.6667C10.4397 10.9444 11.1773 10.2222 11.9149 9.5C12.8713 9.13553 13.7791 8.74663 14.6383 8.33333Z" fill="#F9762D"/>
</svg>
