<svg width="32" height="32" viewBox="0 0 33 33" fill="none" xmlns="http://www.w3.org/2000/svg">
    <path opacity="0.875" fill-rule="evenodd" clip-rule="evenodd"
        d="M16.543 0.499324C27.8034 0.462683 33.1792 3.77549 32.67 10.4377C32.1817 11.5827 31.3652 12.6331 30.2204 13.589C25.8653 16.1746 21.5104 18.7602 17.1554 21.3458C18.0128 23.4794 19.1696 25.58 20.6258 27.6482C19.9881 29.0963 19.3757 30.5507 18.7886 32.0114C18.3288 32.3614 17.7164 32.5229 16.9513 32.4962C13.1559 31.9564 9.34528 31.4313 5.5195 30.9206C4.7728 30.8544 4.16038 30.6522 3.68224 30.3146C3.76059 28.6667 4.23693 27.0509 5.11122 25.4666C7.72147 23.9984 10.1711 22.4631 12.4602 20.861C11.3154 18.9834 10.0906 17.125 8.78573 15.2858C6.85024 14.7168 4.94497 14.1512 3.06982 13.589C3.15528 13.4469 3.29136 13.3257 3.4781 13.2253C7.32617 13.2002 11.1368 12.9982 14.9099 12.6193C18.1609 12.6965 21.0189 13.3429 23.4838 14.5586C25.1247 13.5442 26.69 12.4938 28.179 11.4073C30.5482 7.39479 28.4386 4.60719 21.8507 3.04453C18.8036 2.7297 15.9457 3.01251 13.2768 3.89293C11.6336 3.71923 11.0212 3.15363 11.4395 2.19613C13.0976 1.52366 14.7988 0.958052 16.543 0.499324ZM13.2768 13.3465C16.141 13.3272 18.8629 13.6908 21.4424 14.4374C21.7922 14.6044 22.0643 14.8064 22.2589 15.0434C18.7064 15.7205 15.3721 15.3973 12.2561 14.0738C12.188 13.993 12.12 13.9121 12.052 13.8314C12.5017 13.6676 12.91 13.506 13.2768 13.3465ZM13.2768 15.5282C15.6692 15.9638 18.1189 16.2466 20.6258 16.3766C18.6525 17.225 16.9513 18.235 15.5223 19.4066C14.6483 18.1324 13.8998 16.8396 13.2768 15.5282ZM13.6851 23.285C14.8673 24.7416 15.8199 26.2769 16.543 27.8906C16.3311 28.6423 15.9908 29.3695 15.5223 30.0722C13.068 29.5864 10.5503 29.2228 7.96917 28.9814C7.78243 28.881 7.64635 28.7598 7.56089 28.6178C7.96415 27.9027 8.30437 27.1755 8.58159 26.4362C10.3659 25.4176 12.067 24.367 13.6851 23.285Z"
        fill="#FF7700" />
    <path opacity="0.821" fill-rule="evenodd" clip-rule="evenodd"
        d="M3.47815 3.893C5.7957 3.85274 8.1093 3.89315 10.4189 4.0142C11.6893 5.54372 11.0089 6.71534 8.3775 7.52901C6.78549 7.2094 6.37721 6.6034 7.15266 5.711C5.99584 5.27924 4.771 4.91564 3.47815 4.6202C3.04439 4.39608 3.04439 4.15368 3.47815 3.893Z"
        fill="#FF7700" />
    <path opacity="0.833" fill-rule="evenodd" clip-rule="evenodd"
        d="M1.02844 8.01411C3.48187 7.97382 5.93155 8.01423 8.37746 8.13531C9.72127 9.13361 10.0615 10.2244 9.39816 11.4077C8.79966 11.8501 8.05117 11.9713 7.15263 11.7713C6.29361 11.2762 5.81727 10.6702 5.72365 9.95331C4.1886 9.51806 2.62355 9.11405 1.02844 8.74131C0.594686 8.51719 0.594686 8.27479 1.02844 8.01411Z"
        fill="#FF7700" />
</svg>