<svg width="32" height="32" viewBox="0 0 32 32" fill="none" xmlns="http://www.w3.org/2000/svg">
<g clip-path="url(#clip0_68_597)">
<path fill-rule="evenodd" clip-rule="evenodd" d="M2 -0.0800781C2.10667 -0.0800781 2.21333 -0.0800781 2.32 -0.0800781C2.32 10.4266 2.32 20.9332 2.32 31.4399C2.60934 31.4414 2.87602 31.3614 3.12 31.1999C2.90667 31.1466 2.69333 31.0932 2.48 31.0399C3.76194 30.9601 5.04194 30.9866 6.32 31.1199C6.32 31.1732 6.32 31.2266 6.32 31.2799C5.01251 31.4582 3.73251 31.6716 2.48 31.9199C2.32 31.9199 2.16 31.9199 2 31.9199C2 21.2532 2 10.5866 2 -0.0800781Z" fill="#E67C6B"/>
<path fill-rule="evenodd" clip-rule="evenodd" d="M2.32031 -0.0800781C3.22698 -0.0800781 4.13364 -0.0800781 5.04031 -0.0800781C5.04031 10.2132 5.04031 20.5066 5.04031 30.7999C5.52884 30.7377 5.95551 30.8442 6.32031 31.1199C5.04225 30.9866 3.76225 30.9601 2.48031 31.0399C2.69364 31.0932 2.90698 31.1466 3.12031 31.1999C2.87633 31.3614 2.60966 31.4414 2.32031 31.4399C2.32031 20.9332 2.32031 10.4266 2.32031 -0.0800781Z" fill="#FE715B"/>
<path fill-rule="evenodd" clip-rule="evenodd" d="M5.04004 -0.0800781C7.17337 -0.0800781 9.30671 -0.0800781 11.44 -0.0800781C11.4667 2.53379 11.44 5.14714 11.36 7.75992C11.1517 7.85349 10.965 7.96016 10.8 8.07992C10.1806 8.02952 9.59394 8.08287 9.04004 8.23992C8.89052 8.41074 8.83719 8.62408 8.88004 8.87992C8.6406 9.85672 8.53394 10.8701 8.56004 11.9199C8.56004 11.9733 8.56004 12.0266 8.56004 12.0799C8.40181 12.956 8.34849 13.8626 8.40004 14.7999C8.56004 14.7999 8.72004 14.7999 8.88004 14.7999C9.35218 14.834 9.77884 14.7273 10.16 14.4799C10.3734 14.4799 10.5867 14.4799 10.8 14.4799C11.6622 14.4369 12.4088 14.6769 13.04 15.1999C12.96 15.2799 12.88 15.3599 12.8 15.4399C12.72 15.2533 12.5867 15.1199 12.4 15.0399C11.6342 14.8994 10.8875 14.9527 10.16 15.1999C10.5834 15.2795 11.0101 15.3062 11.44 15.2799C11.44 16.3466 11.44 17.4132 11.44 18.4799C10.9498 18.5484 10.4698 18.655 10 18.7999C9.94671 18.4799 9.89337 18.1599 9.84004 17.8399C9.41007 17.8137 8.9834 17.8404 8.56004 17.9199C8.30298 18.0878 8.19631 18.3278 8.24004 18.6399C7.96892 19.2084 8.07557 19.6884 8.56004 20.0799C8.90058 20.3889 9.22058 20.7356 9.52004 21.1199C9.88961 21.1994 10.263 21.226 10.64 21.1999C10.5266 21.3446 10.3666 21.3978 10.16 21.3599C10.1446 21.9956 10.038 22.5289 9.84004 22.9599C10.3734 22.9599 10.9067 22.9599 11.44 22.9599C11.44 24.6666 11.44 26.3732 11.44 28.0799C11.0005 28.0298 10.5739 28.0831 10.16 28.2399C13.5606 28.6089 13.5606 28.8754 10.16 29.0399C10.16 29.2532 10.16 29.4666 10.16 29.6799C10.9425 29.6406 11.7158 29.5338 12.48 29.3599C12.6674 29.4943 12.8541 29.6276 13.04 29.7599C12.4657 29.8097 11.9323 29.943 11.44 30.1599C11.1328 30.2503 10.8662 30.4103 10.64 30.6399C10.48 30.6399 10.32 30.6399 10.16 30.6399C9.62405 30.6135 9.09073 30.6402 8.56004 30.7199C8.41351 30.7644 8.30684 30.8444 8.24004 30.9599C7.59231 30.9431 6.95231 30.9964 6.32004 31.1199C5.95524 30.8442 5.52857 30.7377 5.04004 30.7999C5.04004 20.5066 5.04004 10.2133 5.04004 -0.0800781Z" fill="#FE7060"/>
<path fill-rule="evenodd" clip-rule="evenodd" d="M11.4398 -0.0800781C12.2931 -0.0800781 13.1465 -0.0800781 13.9998 -0.0800781C13.9998 2.47992 13.9998 5.03992 13.9998 7.59992C14.4265 7.59992 14.8531 7.59992 15.2798 7.59992C15.2798 7.75992 15.2798 7.91992 15.2798 8.07992C13.7865 8.07992 12.2931 8.07992 10.7998 8.07992C10.9648 7.96016 11.1514 7.85349 11.3598 7.75992C11.4398 5.14714 11.4665 2.53379 11.4398 -0.0800781Z" fill="#FC7267"/>
<path fill-rule="evenodd" clip-rule="evenodd" d="M14 -0.0800781C16.56 -0.0800781 19.12 -0.0800781 21.68 -0.0800781C21.68 2.47992 21.68 5.03992 21.68 7.59992C22.1196 7.54978 22.5463 7.60312 22.96 7.75992C22.4037 7.86667 21.8703 7.97335 21.36 8.07992C21.36 8.13325 21.36 8.18659 21.36 8.23992C21.2 8.29325 21.0933 8.39992 21.04 8.55992C20.7386 8.70098 20.5253 8.94098 20.4 9.27992C19.7429 9.21939 19.5295 9.51272 19.76 10.1599C19.7405 10.6067 19.5271 10.9267 19.12 11.1199C18.9224 11.1553 18.7624 11.262 18.64 11.4399C18.5192 11.8919 18.3592 12.3185 18.16 12.7199C17.9468 12.7199 17.84 12.8266 17.84 13.0399C17.5304 13.713 17.1037 14.2996 16.56 14.7999C16.1013 14.5616 15.6746 14.2949 15.28 13.9999C15.0357 14.0116 14.8757 13.9049 14.8 13.6799C14.665 13.3184 14.3983 13.1584 14 13.1999C14 13.1466 14 13.0932 14 13.0399C14.6058 12.8487 14.6058 12.742 14 12.7199C14 11.8666 14 11.0132 14 10.1599C14.4617 10.2089 14.8884 10.1556 15.28 9.99992C15.28 9.94659 15.28 9.89325 15.28 9.83992C15.28 9.35992 15.28 8.87992 15.28 8.39992C13.2284 8.24064 11.1484 8.18731 9.04004 8.23992C9.59394 8.08287 10.1806 8.02952 10.8 8.07992C12.2934 8.07992 13.7867 8.07992 15.28 8.07992C15.28 7.91992 15.28 7.75992 15.28 7.59992C14.8534 7.59992 14.4267 7.59992 14 7.59992C14 5.03992 14 2.47992 14 -0.0800781Z" fill="#FB726E"/>
<path fill-rule="evenodd" clip-rule="evenodd" d="M24.24 -0.0800781C25.7332 -0.0800781 27.2267 -0.0800781 28.72 -0.0800781C28.72 8.02659 28.72 16.1332 28.72 24.2399C28.5067 24.2399 28.2932 24.2399 28.08 24.2399C28.0454 25.062 28.2587 25.8087 28.72 26.4799C28.8868 26.1041 29.1001 25.7841 29.36 25.5199C29.348 25.9529 29.2947 26.3796 29.2 26.7999C28.9281 26.7743 28.6614 26.8009 28.4 26.8799C28.56 26.9332 28.72 26.9866 28.88 27.0399C28.6692 27.3226 28.4025 27.5361 28.08 27.6799C28.5515 27.6556 29.0315 27.6289 29.52 27.5999C29.3067 27.7066 29.0932 27.8132 28.88 27.9199C28.4646 28.0423 28.0379 28.0958 27.6 28.0799C27.0275 28.0878 26.4942 28.1943 26 28.3999C25.4056 28.3876 24.819 28.4409 24.24 28.5599C23.9732 28.5599 23.7067 28.5599 23.44 28.5599C23.7984 28.4377 24.1716 28.3042 24.56 28.1599C24.2459 26.4676 24.1392 24.7343 24.24 22.9599C23.81 22.9862 23.3833 22.9594 22.96 22.8799C23.5644 22.4642 23.9379 21.9042 24.08 21.1999C24.1398 17.3986 24.2998 13.6119 24.56 9.83992C24.551 9.642 24.471 9.482 24.32 9.35992C24.24 6.21371 24.2132 3.06704 24.24 -0.0800781Z" fill="#FA7279"/>
<path fill-rule="evenodd" clip-rule="evenodd" d="M28.7198 -0.0800781C28.9331 -0.0800781 29.1465 -0.0800781 29.3598 -0.0800781C29.3598 8.45325 29.3598 16.9866 29.3598 25.5199C29.0999 25.7841 28.8867 26.1041 28.7198 26.4799C28.2585 25.8087 28.0452 25.062 28.0798 24.2399C28.2931 24.2399 28.5065 24.2399 28.7198 24.2399C28.7198 16.1332 28.7198 8.02659 28.7198 -0.0800781Z" fill="#F7737C"/>
<path fill-rule="evenodd" clip-rule="evenodd" d="M29.3601 -0.0800781C29.4668 -0.0800781 29.5734 -0.0800781 29.6801 -0.0800781C29.7332 9.17363 29.6799 18.4002 29.5201 27.5999C29.0316 27.6289 28.5516 27.6556 28.0801 27.6799C28.4026 27.5361 28.6694 27.3226 28.8801 27.0399C28.7201 26.9866 28.5601 26.9332 28.4001 26.8799C28.6615 26.8009 28.9282 26.7743 29.2001 26.7999C29.2948 26.3796 29.3481 25.9529 29.3601 25.5199C29.3601 16.9866 29.3601 8.45325 29.3601 -0.0800781Z" fill="#F8717E"/>
<path fill-rule="evenodd" clip-rule="evenodd" d="M29.6799 -0.0800781C29.7332 -0.0800781 29.7866 -0.0800781 29.8399 -0.0800781C29.8399 9.25325 29.8399 18.5866 29.8399 27.9199C29.5199 27.9199 29.1999 27.9199 28.8799 27.9199C29.0932 27.8132 29.3066 27.7066 29.5199 27.5999C29.6797 18.4002 29.733 9.17363 29.6799 -0.0800781Z" fill="#CF878B"/>
<path fill-rule="evenodd" clip-rule="evenodd" d="M9.03955 8.2403C11.1479 8.18769 13.2279 8.24102 15.2796 8.4003C13.1996 8.4003 11.1196 8.4003 9.03955 8.4003C9.08781 8.80978 9.03446 9.18311 8.87955 9.5203C8.87955 9.30697 8.87955 9.09362 8.87955 8.8803C8.8367 8.62446 8.89003 8.41111 9.03955 8.2403Z" fill="#FCCDC9"/>
<path fill-rule="evenodd" clip-rule="evenodd" d="M21.36 8.2402C22.0324 8.18951 22.6724 8.24286 23.28 8.4002C22.4853 8.31412 21.7386 8.42079 21.04 8.7202C21.04 8.66687 21.04 8.61353 21.04 8.5602C21.0933 8.4002 21.2 8.29353 21.36 8.2402Z" fill="#FBC6C4"/>
<path fill-rule="evenodd" clip-rule="evenodd" d="M23.2802 8.39993C23.2802 12.5599 23.2802 16.7199 23.2802 20.8799C22.7469 20.8799 22.2135 20.8799 21.6802 20.8799C21.6802 19.7599 21.6802 18.6399 21.6802 17.5199C20.5354 17.3873 19.362 17.3073 18.1602 17.2799C17.8367 16.9564 17.5167 16.6364 17.2002 16.3199C17.2535 16.2399 17.3069 16.1599 17.3602 16.0799C18.7674 16.2906 20.1541 16.2906 21.5202 16.0799C21.6269 16.0799 21.6802 16.0266 21.6802 15.9199C21.6802 15.7066 21.6802 15.4933 21.6802 15.2799C21.7068 13.7323 21.6802 12.1857 21.6002 10.6399C21.434 10.8335 21.2472 10.9935 21.0402 11.1199C20.614 10.8534 20.5074 10.48 20.7202 9.99993C20.6013 9.89084 20.4948 9.78417 20.4002 9.67993C20.6764 9.40346 20.8896 9.08346 21.0402 8.71993C21.7388 8.42052 22.4855 8.31385 23.2802 8.39993Z" fill="#FDFCFC"/>
<path fill-rule="evenodd" clip-rule="evenodd" d="M21.0397 8.55957C21.0397 8.6129 21.0397 8.66624 21.0397 8.71957C20.8892 9.08311 20.6759 9.40311 20.3997 9.67957C20.1748 9.75527 20.068 9.91527 20.0797 10.1596C19.973 10.1596 19.8664 10.1596 19.7597 10.1596C19.5292 9.51237 19.7426 9.21904 20.3997 9.27957C20.525 8.94063 20.7383 8.70063 21.0397 8.55957Z" fill="#EC7F82"/>
<path fill-rule="evenodd" clip-rule="evenodd" d="M8.88049 8.87988C8.88049 9.09321 8.88049 9.30655 8.88049 9.51988C8.8894 10.3569 8.78273 11.1569 8.56049 11.9199C8.53439 10.87 8.64105 9.85668 8.88049 8.87988Z" fill="#E6837D"/>
<path fill-rule="evenodd" clip-rule="evenodd" d="M21.3604 8.23955C21.3604 8.18623 21.3604 8.13288 21.3604 8.07955C22.0962 8.03155 22.8162 8.08488 23.5204 8.23955C23.6532 12.4801 23.6264 16.6935 23.4404 20.8796C23.4933 16.692 23.44 12.532 23.2804 8.39955C22.6727 8.24221 22.0327 8.18887 21.3604 8.23955Z" fill="#D97E7D"/>
<path fill-rule="evenodd" clip-rule="evenodd" d="M21.0404 11.4404C20.906 11.8168 20.6926 12.1368 20.4004 12.4004C20.4556 11.9688 20.6689 11.6488 21.0404 11.4404Z" fill="#ECA09F"/>
<path fill-rule="evenodd" clip-rule="evenodd" d="M23.2797 8.40039C23.4394 12.5329 23.4926 16.6929 23.4397 20.8804C23.4397 20.9871 23.3864 21.0404 23.2797 21.0404C22.713 21.0905 22.1797 21.037 21.6797 20.8804C22.213 20.8804 22.7464 20.8804 23.2797 20.8804C23.2797 16.7204 23.2797 12.5604 23.2797 8.40039Z" fill="#FED1CE"/>
<path fill-rule="evenodd" clip-rule="evenodd" d="M20.4001 12.4004C20.2961 12.71 20.2428 13.03 20.2401 13.3604C20.0801 13.3604 19.9201 13.3604 19.7601 13.3604C19.8134 13.8404 19.6001 14.0537 19.1201 14.0004C19.4747 13.3912 19.9014 12.8578 20.4001 12.4004Z" fill="#ED8C8E"/>
<path fill-rule="evenodd" clip-rule="evenodd" d="M21.68 15.2796C21.5472 13.9212 21.4672 12.5345 21.44 11.1196C21.3268 11.2605 21.1933 11.3672 21.04 11.4396C21.04 11.333 21.04 11.2263 21.04 11.1196C21.2471 10.9933 21.4338 10.8333 21.6 10.6396C21.68 12.1854 21.7066 13.7321 21.68 15.2796Z" fill="#F28A86"/>
<path fill-rule="evenodd" clip-rule="evenodd" d="M19.1203 14.1602C18.904 14.5866 18.6374 14.9599 18.3203 15.2802C18.4019 14.7723 18.6686 14.3989 19.1203 14.1602Z" fill="#EA9192"/>
<path fill-rule="evenodd" clip-rule="evenodd" d="M15.2797 8.40039C15.2797 8.88039 15.2797 9.36039 15.2797 9.84039C13.6797 9.84039 12.0797 9.84039 10.4797 9.84039C10.4797 10.1604 10.4797 10.4804 10.4797 10.8004C10.2442 11.5075 10.1376 12.2541 10.1597 13.0404C10.4604 13.0837 10.6738 12.9771 10.7997 12.7204C11.4397 12.7204 12.0797 12.7204 12.7197 12.7204C12.6529 12.8358 12.5462 12.9158 12.3997 12.9604C12.9208 13.1273 13.4541 13.2073 13.9997 13.2004C14.2236 13.4227 14.4902 13.5827 14.7997 13.6804C14.8754 13.9054 15.0354 14.0121 15.2797 14.0004C15.5359 14.5278 15.8026 15.0611 16.0797 15.6004C16.312 15.37 16.472 15.1034 16.5597 14.8004C17.1034 14.3001 17.5301 13.7134 17.8397 13.0404C18.053 13.0404 18.1597 12.9337 18.1597 12.7204C18.5077 12.3233 18.8277 11.8967 19.1197 11.4404C19.6232 11.1503 19.9432 10.7237 20.0797 10.1604C20.068 9.91609 20.1747 9.75609 20.3997 9.68039C20.4942 9.78463 20.6008 9.8913 20.7197 10.0004C20.5069 10.4805 20.6134 10.8538 21.0397 11.1204C21.0397 11.2271 21.0397 11.3337 21.0397 11.4404C20.6682 11.6487 20.4549 11.9687 20.3997 12.4004C19.901 12.8578 19.4742 13.3912 19.1197 14.0004C19.1197 14.0537 19.1197 14.1071 19.1197 14.1604C18.668 14.3992 18.4013 14.7725 18.3197 15.2804C18.2664 15.2804 18.213 15.2804 18.1597 15.2804C17.9307 15.4853 17.824 15.7519 17.8397 16.0804C19.0664 16.0804 20.293 16.0804 21.5197 16.0804C20.1536 16.2911 18.7669 16.2911 17.3597 16.0804C17.3064 16.1604 17.253 16.2404 17.1997 16.3204C17.5162 16.6369 17.8362 16.9569 18.1597 17.2804C19.3614 17.3078 20.5349 17.3878 21.6797 17.5204C19.8123 17.4937 17.9456 17.5204 16.0797 17.6004C15.9361 17.9343 15.8295 18.281 15.7597 18.6404C15.333 19.3871 14.7464 19.9737 13.9997 20.4004C13.513 20.4377 13.0863 20.5977 12.7197 20.8804C11.8647 20.907 11.0113 20.8802 10.1597 20.8004C9.64674 20.5174 9.11341 20.2774 8.55968 20.0804C8.07522 19.6889 7.96856 19.2089 8.23968 18.6404C8.44533 18.4348 8.65866 18.2214 8.87968 18.0004C9.23664 18.258 9.55664 18.5513 9.83968 18.8804C10.1881 19.0727 10.5614 19.1527 10.9597 19.1204C12.0787 19.433 13.0654 19.1665 13.9197 18.3204C13.9969 18.1687 14.0236 18.0087 13.9997 17.8404C14.4528 16.9759 14.3994 16.1225 13.8397 15.2804C13.7172 15.1025 13.5572 14.9958 13.3597 14.9604C13.1113 14.5425 12.738 14.3292 12.2397 14.3204C12.0054 14.2148 11.7388 14.1615 11.4397 14.1604C10.962 14.1415 10.5353 14.2481 10.1597 14.4804C9.77848 14.7278 9.35182 14.8344 8.87968 14.8004C8.57909 13.9412 8.47242 13.0345 8.55968 12.0804C8.55968 12.0271 8.55968 11.9737 8.55968 11.9204C8.78192 11.1574 8.88859 10.3574 8.87968 9.52039C9.03459 9.18321 9.08794 8.80988 9.03968 8.40039C11.1197 8.40039 13.1997 8.40039 15.2797 8.40039Z" fill="#FCF8F6"/>
<path fill-rule="evenodd" clip-rule="evenodd" d="M12.2402 14.3203C11.7261 14.2707 11.2461 14.3241 10.8002 14.4803C10.5868 14.4803 10.3735 14.4803 10.1602 14.4803C10.5358 14.2481 10.9624 14.1414 11.4402 14.1603C11.7392 14.1614 12.0059 14.2148 12.2402 14.3203Z" fill="#F1B6B1"/>
<path fill-rule="evenodd" clip-rule="evenodd" d="M14 13.1998C14.3983 13.1583 14.665 13.3183 14.8 13.6798C14.4905 13.5821 14.2239 13.4221 14 13.1998Z" fill="#ED998F"/>
<path fill-rule="evenodd" clip-rule="evenodd" d="M18.1598 12.7197C18.1598 12.9331 18.0531 13.0397 17.8398 13.0397C17.8398 12.8264 17.9466 12.7197 18.1598 12.7197Z" fill="#EFA7AC"/>
<path fill-rule="evenodd" clip-rule="evenodd" d="M12.7204 12.7197C13.1731 12.7508 13.5998 12.8575 14.0004 13.0397C14.0004 13.0931 14.0004 13.1464 14.0004 13.1997C13.4548 13.2066 12.9215 13.1266 12.4004 12.9597C12.5469 12.9152 12.6536 12.8352 12.7204 12.7197Z" fill="#F6D5D0"/>
<path fill-rule="evenodd" clip-rule="evenodd" d="M10.4801 10.7998C10.4801 10.9065 10.4801 11.0131 10.4801 11.1198C10.389 11.7325 10.4957 12.2658 10.8001 12.7198C10.6742 12.9765 10.4608 13.0831 10.1601 13.0398C10.138 12.2535 10.2446 11.5069 10.4801 10.7998Z" fill="#E8A39E"/>
<path fill-rule="evenodd" clip-rule="evenodd" d="M19.1202 11.1201C19.1202 11.2268 19.1202 11.3334 19.1202 11.4401C18.8282 11.8964 18.5082 12.3231 18.1602 12.7201C18.3594 12.3187 18.5194 11.8921 18.6402 11.4401C18.7626 11.2622 18.9226 11.1555 19.1202 11.1201Z" fill="#EF8C88"/>
<path fill-rule="evenodd" clip-rule="evenodd" d="M19.7601 10.1602C19.8668 10.1602 19.9734 10.1602 20.0801 10.1602C19.9436 10.7234 19.6236 11.1501 19.1201 11.4402C19.1201 11.3335 19.1201 11.2268 19.1201 11.1202C19.5272 10.9269 19.7406 10.6069 19.7601 10.1602Z" fill="#F9D6D1"/>
<path fill-rule="evenodd" clip-rule="evenodd" d="M15.2797 10C14.888 10.1557 14.4613 10.209 13.9997 10.16C13.9997 11.0133 13.9997 11.8667 13.9997 12.72C14.6055 12.7421 14.6055 12.8488 13.9997 13.04C13.5991 12.8577 13.1724 12.7511 12.7197 12.72C12.0797 12.72 11.4397 12.72 10.7997 12.72C10.4953 12.266 10.3886 11.7327 10.4797 11.12C10.6346 10.7828 10.6879 10.4095 10.6397 10C12.1864 10 13.733 10 15.2797 10Z" fill="#FB7266"/>
<path fill-rule="evenodd" clip-rule="evenodd" d="M15.2805 9.83984C15.2805 9.89317 15.2805 9.94652 15.2805 9.99984C13.7338 9.99984 12.1871 9.99984 10.6405 9.99984C10.6887 10.4093 10.6354 10.7827 10.4805 11.1198C10.4805 11.0132 10.4805 10.9065 10.4805 10.7998C10.4805 10.4798 10.4805 10.1598 10.4805 9.83984C12.0805 9.83984 13.6805 9.83984 15.2805 9.83984Z" fill="#E27F79"/>
<path fill-rule="evenodd" clip-rule="evenodd" d="M8.55986 12.0801C8.4726 13.0342 8.57927 13.9409 8.87986 14.8001C8.71986 14.8001 8.55986 14.8001 8.39986 14.8001C8.34831 13.8628 8.40164 12.9561 8.55986 12.0801Z" fill="#EC887F"/>
<path fill-rule="evenodd" clip-rule="evenodd" d="M15.2803 14C15.6748 14.295 16.1016 14.5617 16.5603 14.8C16.4726 15.103 16.3126 15.3696 16.0803 15.6C15.8032 15.0607 15.5365 14.5274 15.2803 14Z" fill="#ED7E7B"/>
<path fill-rule="evenodd" clip-rule="evenodd" d="M10.8 14.4797C11.2459 14.3234 11.7259 14.2701 12.24 14.3197C12.7383 14.3285 13.1117 14.5418 13.36 14.9597C13.2677 15.4476 13.4544 15.7676 13.92 15.9197C14 16.2397 14.08 16.5597 14.16 16.8797C14.0551 17.1922 14.0018 17.5122 14 17.8397C13.76 18.0138 13.5467 18.227 13.36 18.4797C13.1193 18.0587 13.0126 18.1122 13.04 18.6397C12.6855 18.6037 12.4188 18.737 12.24 19.0397C11.8166 19.1192 11.39 19.1459 10.96 19.1197C10.5617 19.152 10.1884 19.072 9.84 18.8797C9.55696 18.5506 9.23696 18.2573 8.88 17.9997C8.65898 18.2206 8.44565 18.4341 8.24 18.6397C8.19628 18.3275 8.30295 18.0875 8.56 17.9197C8.98336 17.8402 9.41004 17.8134 9.84 17.8397C9.89333 18.1597 9.94668 18.4797 10 18.7997C10.4697 18.6547 10.9497 18.5482 11.44 18.4797C11.44 17.413 11.44 16.3464 11.44 15.2797C11.01 15.3059 10.5834 15.2793 10.16 15.1997C10.8875 14.9525 11.6341 14.8991 12.4 15.0397C12.5867 15.1197 12.72 15.253 12.8 15.4397C12.88 15.3597 12.96 15.2797 13.04 15.1997C12.4088 14.6767 11.6621 14.4367 10.8 14.4797Z" fill="#FA7268"/>
<path fill-rule="evenodd" clip-rule="evenodd" d="M13.3598 14.96C13.5574 14.9954 13.7174 15.1021 13.8398 15.28C14.3995 16.122 14.4529 16.9755 13.9998 17.84C14.0016 17.5124 14.0549 17.1924 14.1598 16.88C14.0798 16.56 13.9998 16.24 13.9198 15.92C13.4542 15.7679 13.2675 15.4479 13.3598 14.96Z" fill="#EB7A77"/>
<path fill-rule="evenodd" clip-rule="evenodd" d="M21.68 15.2801C21.68 15.4934 21.68 15.7068 21.68 15.9201C20.4522 15.9467 19.2254 15.9201 18 15.8401C18.1339 15.6783 18.1872 15.4917 18.16 15.2801C18.2133 15.2801 18.2667 15.2801 18.32 15.2801C18.6371 14.9599 18.9037 14.5865 19.12 14.1601C19.12 14.1068 19.12 14.0534 19.12 14.0001C19.6 14.0534 19.8133 13.8401 19.76 13.3601C19.92 13.3601 20.08 13.3601 20.24 13.3601C20.2427 13.0297 20.296 12.7097 20.4 12.4001C20.6922 12.1365 20.9056 11.8165 21.04 11.4401C21.1933 11.3677 21.3267 11.261 21.44 11.1201C21.4672 12.535 21.5472 13.9217 21.68 15.2801Z" fill="#F97371"/>
<path fill-rule="evenodd" clip-rule="evenodd" d="M18.1604 15.2803C18.1876 15.4918 18.1343 15.6785 18.0004 15.8403C19.2258 15.9202 20.4525 15.9469 21.6804 15.9203C21.6804 16.027 21.6271 16.0803 21.5204 16.0803C20.2937 16.0803 19.0671 16.0803 17.8404 16.0803C17.8247 15.7518 17.9314 15.4851 18.1604 15.2803Z" fill="#D58482"/>
<path fill-rule="evenodd" clip-rule="evenodd" d="M20.5596 17.8398C20.5461 19.2283 20.4929 20.615 20.3996 21.9998C20.8263 21.9998 21.2529 21.9998 21.6796 21.9998C21.6796 24.0266 21.6796 26.0531 21.6796 28.0798C22.0039 28.0539 22.3239 28.0806 22.6396 28.1598C22.5863 28.2131 22.5329 28.2666 22.4796 28.3198C21.6897 28.5189 20.8364 28.6789 19.9196 28.7998C19.8306 28.8611 19.7773 28.9411 19.7596 29.0398C18.6876 28.987 17.621 29.0403 16.5596 29.1998C16.7562 29.3248 16.9695 29.4048 17.1996 29.4398C16.83 29.5194 16.4567 29.5459 16.0796 29.5198C15.7326 29.339 15.3593 29.339 14.9596 29.5198C14.6223 29.4622 14.3023 29.3555 13.9996 29.1998C14.4134 29.043 14.8401 28.9898 15.2796 29.0398C15.2796 28.8266 15.2796 28.6131 15.2796 28.3998C14.8529 28.3998 14.4262 28.3998 13.9996 28.3998C13.9996 26.5866 13.9996 24.7731 13.9996 22.9598C14.4262 22.9598 14.8529 22.9598 15.2796 22.9598C15.2796 22.5331 15.2796 22.1066 15.2796 21.6798C13.7537 21.3752 12.207 21.2152 10.6396 21.1998C10.2625 21.2259 9.88914 21.1994 9.51957 21.1198C9.22011 20.7355 8.90011 20.3888 8.55957 20.0798C9.1133 20.2768 9.64663 20.5168 10.1596 20.7998C11.0112 20.8797 11.8646 20.9064 12.7196 20.8798C13.2234 20.8934 13.6501 20.7334 13.9996 20.3998C14.7462 19.9731 15.3329 19.3866 15.7596 18.6398C16.0405 18.4715 16.1473 18.2048 16.0796 17.8398C17.5729 17.8398 19.0663 17.8398 20.5596 17.8398Z" fill="#FB726E"/>
<path fill-rule="evenodd" clip-rule="evenodd" d="M21.6798 17.5198C21.6798 18.6398 21.6798 19.7598 21.6798 20.8798C22.1798 21.0364 22.713 21.0899 23.2798 21.0398C22.7167 21.2491 22.1302 21.2491 21.5198 21.0398C21.3658 19.9825 21.3126 18.9159 21.3598 17.8398C21.093 17.8398 20.8265 17.8398 20.5598 17.8398C19.0665 17.8398 17.573 17.8398 16.0798 17.8398C16.1474 18.2047 16.0407 18.4715 15.7598 18.6398C15.8295 18.2804 15.9362 17.9337 16.0798 17.5998C17.9457 17.5198 19.8124 17.4931 21.6798 17.5198Z" fill="#F18989"/>
<path fill-rule="evenodd" clip-rule="evenodd" d="M14 17.8398C14.0239 18.0082 13.9972 18.1682 13.92 18.3198C13.0657 19.1659 12.079 19.4325 10.96 19.1198C11.3899 19.1461 11.8166 19.1194 12.24 19.0398C12.4187 18.7371 12.6854 18.6038 13.04 18.6398C13.0126 18.1123 13.1192 18.0589 13.36 18.4798C13.5467 18.2272 13.76 18.0139 14 17.8398Z" fill="#EA8380"/>
<path fill-rule="evenodd" clip-rule="evenodd" d="M13.9997 20.4004C13.6502 20.734 13.2236 20.894 12.7197 20.8804C13.0864 20.5977 13.513 20.4377 13.9997 20.4004Z" fill="#F2ADAA"/>
<path fill-rule="evenodd" clip-rule="evenodd" d="M10.6398 21.2002C12.2073 21.2156 13.754 21.3756 15.2798 21.6802C15.2798 22.1069 15.2798 22.5335 15.2798 22.9602C14.8532 22.9602 14.4265 22.9602 13.9998 22.9602C13.9998 24.7735 13.9998 26.5869 13.9998 28.4002C14.4265 28.4002 14.8532 28.4002 15.2798 28.4002C15.2798 28.6135 15.2798 28.8269 15.2798 29.0402C14.8403 28.9901 14.4137 29.0434 13.9998 29.2002C14.3026 29.3559 14.6226 29.4626 14.9598 29.5202C15.3596 29.3394 15.7329 29.3394 16.0798 29.5202C15.7754 29.5676 15.5087 29.6743 15.2798 29.8402C13.9809 29.8706 12.7009 29.9772 11.4398 30.1602C11.9321 29.9432 12.4655 29.81 13.0398 29.7602C12.8539 29.6279 12.6672 29.4946 12.4798 29.3602C11.7157 29.5341 10.9423 29.6408 10.1598 29.6802C10.1598 29.4669 10.1598 29.2535 10.1598 29.0402C13.5605 28.8757 13.5605 28.6092 10.1598 28.2402C10.5737 28.0834 11.0003 28.0301 11.4398 28.0802C11.4398 26.3735 11.4398 24.6669 11.4398 22.9602C10.9065 22.9602 10.3732 22.9602 9.83984 22.9602C10.0378 22.5292 10.1444 21.9959 10.1598 21.3602C10.3664 21.3981 10.5264 21.3448 10.6398 21.2002Z" fill="#FC7167"/>
<path fill-rule="evenodd" clip-rule="evenodd" d="M21.6798 -0.0800781C22.533 -0.0800781 23.3865 -0.0800781 24.2398 -0.0800781C24.213 3.06704 24.2398 6.21371 24.3198 9.35992C24.4708 9.482 24.5508 9.642 24.5598 9.83992C24.2996 13.6119 24.1396 17.3986 24.0798 21.1999C23.9377 21.9042 23.5642 22.4642 22.9598 22.8799C23.3831 22.9594 23.8098 22.9862 24.2398 22.9599C24.139 24.7343 24.2457 26.4676 24.5598 28.1599C24.1714 28.3042 23.7982 28.4377 23.4398 28.5599C22.9281 28.4742 22.5014 28.5809 22.1598 28.8799C21.8226 29.0348 21.4492 29.0882 21.0398 29.0399C20.613 29.0399 20.1865 29.0399 19.7598 29.0399C19.7775 28.9412 19.8308 28.8612 19.9198 28.7999C20.8366 28.679 21.6898 28.519 22.4798 28.3199C22.533 28.2666 22.5865 28.2132 22.6398 28.1599C22.3241 28.0807 22.0041 28.054 21.6798 28.0799C21.6798 26.0532 21.6798 24.0266 21.6798 21.9999C21.253 21.9999 20.8265 21.9999 20.3998 21.9999C20.493 20.6151 20.5463 19.2284 20.5598 17.8399C20.8265 17.8399 21.093 17.8399 21.3598 17.8399C21.3126 18.9161 21.3658 19.9826 21.5198 21.0399C22.1302 21.2492 22.7167 21.2492 23.2798 21.0399C23.3865 21.0399 23.4398 20.9866 23.4398 20.8799C23.6258 16.6938 23.6526 12.4804 23.5198 8.23992C22.8156 8.08525 22.0956 8.03192 21.3598 8.07992C21.87 7.97335 22.4034 7.86667 22.9598 7.75992C22.546 7.60312 22.1193 7.54978 21.6798 7.59992C21.6798 5.03992 21.6798 2.47992 21.6798 -0.0800781Z" fill="#FA7274"/>
<path fill-rule="evenodd" clip-rule="evenodd" d="M27.6 28.0801C27.1461 28.3844 26.6126 28.4911 26 28.4001C26.4942 28.1945 27.0275 28.0879 27.6 28.0801Z" fill="#F4CBCF"/>
<path fill-rule="evenodd" clip-rule="evenodd" d="M23.4402 28.5599C23.7069 28.5599 23.9734 28.5599 24.2402 28.5599C23.5856 28.7831 22.8923 28.8898 22.1602 28.8799C22.5018 28.5809 22.9285 28.4741 23.4402 28.5599Z" fill="#E5888A"/>
<path fill-rule="evenodd" clip-rule="evenodd" d="M19.7603 29.0402C19.707 29.1469 19.6536 29.2535 19.6003 29.3602C18.8536 29.4669 18.107 29.5735 17.3603 29.6802C16.6707 29.773 15.9773 29.8265 15.2803 29.8402C15.5091 29.6743 15.7758 29.5676 16.0803 29.5202C16.4574 29.5463 16.8307 29.5197 17.2003 29.4402C16.9702 29.4052 16.7569 29.3252 16.5603 29.2002C17.6217 29.0407 18.6883 28.9874 19.7603 29.0402Z" fill="#F17D78"/>
<path fill-rule="evenodd" clip-rule="evenodd" d="M19.7596 29.04C20.1863 29.04 20.6129 29.04 21.0396 29.04C20.5844 29.1751 20.1044 29.2816 19.5996 29.36C19.6529 29.2533 19.7063 29.1468 19.7596 29.04Z" fill="#E69C9B"/>
<path fill-rule="evenodd" clip-rule="evenodd" d="M15.2796 29.8398C14.2616 30.0277 13.2483 30.241 12.2396 30.4798C11.7063 30.5331 11.173 30.5866 10.6396 30.6398C10.8658 30.4102 11.1324 30.2502 11.4396 30.1598C12.7007 29.9768 13.9807 29.8702 15.2796 29.8398Z" fill="#EC837D"/>
<path fill-rule="evenodd" clip-rule="evenodd" d="M17.3602 29.6797C16.2719 29.9578 15.1519 30.1978 14.0002 30.3997C13.416 30.4795 12.8293 30.5061 12.2402 30.4797C13.2488 30.2408 14.2622 30.0275 15.2802 29.8397C15.9773 29.8259 16.6706 29.7725 17.3602 29.6797Z" fill="#FDE4E1"/>
<path fill-rule="evenodd" clip-rule="evenodd" d="M10.1602 30.6397C9.54961 30.7968 8.90961 30.9036 8.24023 30.9597C8.30703 30.8442 8.41371 30.7642 8.56023 30.7197C9.09092 30.64 9.62425 30.6133 10.1602 30.6397Z" fill="#E7867D"/>
<path fill-rule="evenodd" clip-rule="evenodd" d="M8.24031 30.9601C7.63313 31.1388 6.99313 31.2453 6.32031 31.2801C6.32031 31.2268 6.32031 31.1733 6.32031 31.1201C6.95258 30.9965 7.59258 30.9433 8.24031 30.9601Z" fill="#EBAA97"/>
</g>
<defs>
<clipPath id="clip0_68_597">
<rect width="32" height="32" fill="white"/>
</clipPath>
</defs>
</svg>
