<svg width="32" height="32" viewBox="0 0 32 32" fill="none" xmlns="http://www.w3.org/2000/svg">
<g clip-path="url(#clip0_71_5)">
<path fill-rule="evenodd" clip-rule="evenodd" d="M14.5777 -0.0712891C14.8621 -0.0712891 15.1466 -0.0712891 15.431 -0.0712891C15.431 0.0709332 15.431 0.213155 15.431 0.355378C14.9477 0.40094 14.4736 0.353532 14.0088 0.213155C14.2149 0.117598 14.4045 0.0227831 14.5777 -0.0712891Z" fill="#888888"/>
<path fill-rule="evenodd" clip-rule="evenodd" d="M16.7109 -0.0712891C16.948 -0.0712891 17.185 -0.0712891 17.422 -0.0712891C17.6414 0.0230732 17.8784 0.117888 18.1332 0.213155C17.6684 0.353532 17.1942 0.40094 16.7109 0.355378C16.7109 0.213155 16.7109 0.0709332 16.7109 -0.0712891Z" fill="#868686"/>
<path fill-rule="evenodd" clip-rule="evenodd" d="M27.0934 0.212857C30.3227 -0.0421875 31.8161 1.42745 31.5734 4.62175C30.8303 6.64156 29.3844 7.47118 27.2357 7.11063C25.1722 6.3275 24.3426 4.83417 24.7468 2.63064C25.1761 1.46663 25.9584 0.660709 27.0934 0.212857Z" fill="#01007F"/>
<path fill-rule="evenodd" clip-rule="evenodd" d="M11.8755 0.355825C12.1298 0.315261 12.3669 0.362668 12.5866 0.498048C12.1878 0.725807 11.7611 0.868029 11.3066 0.924714C11.3066 0.782492 11.3066 0.64027 11.3066 0.498048C11.5341 0.536136 11.7237 0.488729 11.8755 0.355825Z" fill="#828282"/>
<path fill-rule="evenodd" clip-rule="evenodd" d="M19.4131 0.355469C19.8809 0.479751 20.355 0.574566 20.8353 0.639913C20.8665 0.80703 20.8191 0.949252 20.6931 1.06658C20.2808 0.904219 19.8541 0.809404 19.4131 0.782135C19.4131 0.639913 19.4131 0.497691 19.4131 0.355469Z" fill="#8C8C8C"/>
<path fill-rule="evenodd" clip-rule="evenodd" d="M9.45818 1.20859C9.66836 1.17132 9.858 1.21873 10.0271 1.35081C9.64537 1.71147 9.21871 1.8537 8.74707 1.77748C8.96249 1.55245 9.19954 1.36283 9.45818 1.20859Z" fill="#838383"/>
<path fill-rule="evenodd" clip-rule="evenodd" d="M22.1157 1.20898C22.6085 1.33661 23.0352 1.57366 23.3957 1.9201C22.9965 2.01073 22.6173 1.91591 22.2579 1.63565C22.1319 1.51832 22.0846 1.3761 22.1157 1.20898Z" fill="#858585"/>
<path fill-rule="evenodd" clip-rule="evenodd" d="M7.32466 2.34668C7.58521 2.43777 7.63261 2.58 7.46688 2.77335C7.22984 2.93928 6.99281 3.10519 6.75577 3.27112C6.59435 3.37771 6.45212 3.354 6.3291 3.20001C6.66372 2.91234 6.99558 2.6279 7.32466 2.34668Z" fill="#838383"/>
<path fill-rule="evenodd" clip-rule="evenodd" d="M14.4356 3.76936C20.4899 3.44005 24.7801 6.00005 27.3067 11.4494C29.2215 17.6042 27.5859 22.5582 22.4001 26.3116C18.0845 28.6739 13.7704 28.6739 9.45783 26.3116C4.96863 23.1848 3.14344 18.8944 3.98228 13.4405C5.40083 7.96809 8.88528 4.74439 14.4356 3.76936Z" fill="#01007F"/>
<path fill-rule="evenodd" clip-rule="evenodd" d="M5.049 4.05371C5.29436 4.10242 5.36547 4.24464 5.26234 4.48038C5.02288 4.74367 4.76213 4.98072 4.48011 5.19149C4.43271 5.14409 4.38529 5.09667 4.33789 5.04927C4.55659 4.68666 4.79363 4.35481 5.049 4.05371Z" fill="#808080"/>
<path fill-rule="evenodd" clip-rule="evenodd" d="M3.19989 6.18652C3.44525 6.23523 3.51636 6.37746 3.41322 6.61319C3.19854 6.85606 2.9852 7.0931 2.77322 7.3243C2.61924 7.20128 2.59553 7.05906 2.70211 6.89763C2.86942 6.65647 3.03534 6.41943 3.19989 6.18652Z" fill="#838383"/>
<path fill-rule="evenodd" clip-rule="evenodd" d="M19.9817 7.32439C22.1724 6.98498 23.6657 7.83831 24.4617 9.88439C24.8447 12.0594 24.0152 13.5527 21.9729 14.3644C18.8425 14.5999 17.3492 13.154 17.4929 10.0266C17.9093 8.73354 18.739 7.83279 19.9817 7.32439Z" fill="#FCFCFD"/>
<path fill-rule="evenodd" clip-rule="evenodd" d="M29.9375 8.74707C30.2771 8.84929 30.4905 9.08633 30.5775 9.45818C30.6886 9.66351 30.6648 9.85313 30.5064 10.0271C30.1995 9.65039 30.0097 9.22373 29.9375 8.74707Z" fill="#838383"/>
<path fill-rule="evenodd" clip-rule="evenodd" d="M1.77787 8.46191C1.91694 8.50615 2.01176 8.60096 2.06232 8.74636C1.91832 9.13077 1.70498 9.46262 1.42232 9.74191C1.35121 9.69451 1.2801 9.64709 1.20898 9.59969C1.4005 9.21666 1.59013 8.83739 1.77787 8.46191Z" fill="#848484"/>
<path fill-rule="evenodd" clip-rule="evenodd" d="M0.639913 11.022C0.80703 10.9908 0.949252 11.0382 1.06658 11.1642C0.955874 11.5965 0.766245 11.9757 0.497691 12.302C0.450284 12.2308 0.402876 12.1597 0.355469 12.0886C0.461975 11.7336 0.556789 11.378 0.639913 11.022Z" fill="#888888"/>
<path fill-rule="evenodd" clip-rule="evenodd" d="M30.9336 11.3066C31.0752 11.2944 31.1937 11.3418 31.2891 11.4488C31.4934 11.8247 31.517 12.2039 31.3603 12.5866C31.095 12.1989 30.9528 11.7723 30.9336 11.3066Z" fill="#818181"/>
<path fill-rule="evenodd" clip-rule="evenodd" d="M-0.0712891 15.1468C-0.0712891 14.7675 -0.0712891 14.3884 -0.0712891 14.0091C0.0213669 13.9251 0.116182 13.8302 0.213155 13.7246C0.353532 14.1894 0.40094 14.6636 0.355378 15.1468C0.213155 15.1468 0.0709332 15.1468 -0.0712891 15.1468Z" fill="#8B8B8B"/>
<path fill-rule="evenodd" clip-rule="evenodd" d="M7.60938 14.0088C7.98864 14.0088 8.36789 14.0088 8.74715 14.0088C8.74715 16.3792 8.74715 18.7495 8.74715 21.1199C10.0272 21.1199 11.3072 21.1199 12.5872 21.1199C12.5872 21.4517 12.5872 21.7837 12.5872 22.1155C10.9279 22.1155 9.26864 22.1155 7.60938 22.1155C7.60938 19.4132 7.60938 16.711 7.60938 14.0088Z" fill="#EDECF4"/>
<path fill-rule="evenodd" clip-rule="evenodd" d="M31.9286 14.0088C31.9286 14.4828 31.9286 14.957 31.9286 15.431C31.7864 15.431 31.6442 15.431 31.502 15.431C31.502 14.957 31.502 14.4828 31.502 14.0088C31.6442 14.0088 31.7864 14.0088 31.9286 14.0088Z" fill="#9A9A9A"/>
<path fill-rule="evenodd" clip-rule="evenodd" d="M20.9773 16.1426C21.69 16.119 22.4011 16.1428 23.1106 16.2137C23.6558 16.3797 24.0113 16.7353 24.1773 17.2804C24.2247 18.6553 24.2722 20.03 24.3195 21.4048C24.5124 21.53 24.7257 21.5775 24.9595 21.5471C24.9595 21.7841 24.9595 22.0211 24.9595 22.2582C24.5303 22.2816 24.1036 22.2579 23.6795 22.1871C23.4965 21.9865 23.3305 21.7732 23.1818 21.5471C22.4324 22.2219 21.5553 22.4352 20.5506 22.1871C19.4671 21.6542 19.159 20.8246 19.6262 19.6982C19.9018 19.3275 20.2574 19.0668 20.6929 18.916C21.3504 18.7797 22.0141 18.6848 22.684 18.6315C23.212 18.391 23.3779 17.988 23.1818 17.4226C22.4958 16.949 21.761 16.8779 20.9773 17.2093C20.7837 17.4346 20.6889 17.6954 20.6929 17.9915C20.3611 17.9915 20.0291 17.9915 19.6973 17.9915C19.7319 17.1036 20.1585 16.4874 20.9773 16.1426Z" fill="#F2F2F7"/>
<path fill-rule="evenodd" clip-rule="evenodd" d="M18.1332 16.2842C18.1332 18.1804 18.1332 20.0768 18.1332 21.9731C17.8961 21.9731 17.6592 21.9731 17.4221 21.9731C17.4724 21.6507 17.4251 21.4609 17.2799 21.4042C16.5652 22.2148 15.6645 22.4755 14.5776 22.1864C14.2756 22.0268 14.0149 21.8135 13.7954 21.5464C13.5878 19.8066 13.5167 18.0526 13.5821 16.2842C13.9139 16.2842 14.2458 16.2842 14.5776 16.2842C14.5539 17.8493 14.5776 19.4138 14.6488 20.9775C15.2267 21.4632 15.8667 21.5343 16.5688 21.1908C16.7891 21.0182 16.9549 20.8049 17.0665 20.5508C17.2607 19.1367 17.3318 17.7145 17.2799 16.2842C17.5643 16.2842 17.8488 16.2842 18.1332 16.2842Z" fill="#F6F6F9"/>
<path fill-rule="evenodd" clip-rule="evenodd" d="M18.1336 16.2842C18.2753 18.2028 18.3226 20.1464 18.2758 22.1153C17.944 22.1153 17.6121 22.1153 17.2803 22.1153C17.2803 21.8782 17.2803 21.6413 17.2803 21.4042C17.4255 21.4609 17.4728 21.6507 17.4225 21.9731C17.6596 21.9731 17.8965 21.9731 18.1336 21.9731C18.1336 20.0768 18.1336 18.1804 18.1336 16.2842Z" fill="#6C6BA8"/>
<path fill-rule="evenodd" clip-rule="evenodd" d="M-0.0712891 16.4268C0.0709332 16.4268 0.213155 16.4268 0.355378 16.4268C0.40094 16.91 0.353532 17.3842 0.213155 17.849C0.117888 17.5943 0.0230732 17.3572 -0.0712891 17.1379C-0.0712891 16.9008 -0.0712891 16.6638 -0.0712891 16.4268Z" fill="#868686"/>
<path fill-rule="evenodd" clip-rule="evenodd" d="M31.9287 16.7109C31.9287 16.948 31.9287 17.185 31.9287 17.422C31.8344 17.6414 31.7396 17.8784 31.6443 18.1332C31.5039 17.6684 31.4566 17.1942 31.5021 16.7109C31.6443 16.7109 31.7865 16.7109 31.9287 16.7109Z" fill="#868686"/>
<path fill-rule="evenodd" clip-rule="evenodd" d="M22.9694 19.2715C23.5529 20.6092 23.0787 21.3203 21.5471 21.4048C20.5074 21.34 20.2229 20.8422 20.6938 19.9115C21.4452 19.6057 22.2036 19.3924 22.9694 19.2715Z" fill="#03017F"/>
<path fill-rule="evenodd" clip-rule="evenodd" d="M0.355577 19.2714C0.497216 19.2592 0.615735 19.3067 0.711132 19.4136C0.880351 19.7968 0.904055 20.1761 0.782244 20.5514C0.444632 20.1919 0.30241 19.7652 0.355577 19.2714Z" fill="#838383"/>
<path fill-rule="evenodd" clip-rule="evenodd" d="M31.0755 19.5557C31.2177 19.5557 31.3599 19.5557 31.5021 19.5557C31.3655 19.9718 31.2707 20.3985 31.2177 20.8357C31.0506 20.8668 30.9083 20.8195 30.791 20.6934C30.9307 20.3242 31.0255 19.9451 31.0755 19.5557Z" fill="#878787"/>
<path fill-rule="evenodd" clip-rule="evenodd" d="M1.209 21.8311C1.51995 22.0192 1.73329 22.3037 1.849 22.6844C1.95558 22.8458 1.93187 22.988 1.77789 23.1111C1.39676 22.775 1.20713 22.3483 1.209 21.8311Z" fill="#848484"/>
<path fill-rule="evenodd" clip-rule="evenodd" d="M30.2226 22.1157C30.3897 22.0846 30.5319 22.1319 30.6492 22.2579C30.4814 22.6903 30.2443 23.0695 29.9381 23.3957C29.8908 23.3246 29.8433 23.2535 29.7959 23.1824C29.9596 22.8318 30.1018 22.4762 30.2226 22.1157Z" fill="#868686"/>
<path fill-rule="evenodd" clip-rule="evenodd" d="M2.4889 24.249C2.81385 24.4562 3.07459 24.7407 3.27112 25.1024C3.37771 25.2638 3.354 25.406 3.20001 25.529C2.89287 25.1975 2.60843 24.8419 2.34668 24.4624C2.42576 24.4079 2.47316 24.3368 2.4889 24.249Z" fill="#848484"/>
<path fill-rule="evenodd" clip-rule="evenodd" d="M28.9421 24.5332C29.1874 24.582 29.2585 24.7242 29.1554 24.9599C29.0073 25.2564 28.794 25.4935 28.5154 25.671C28.3614 25.548 28.3378 25.4057 28.4443 25.2443C28.6817 25.0529 28.8476 24.8158 28.9421 24.5332Z" fill="#808080"/>
<path fill-rule="evenodd" clip-rule="evenodd" d="M4.19593 26.3818C4.52256 26.637 4.83071 26.9214 5.12038 27.2352C5.21818 27.3535 5.19448 27.4482 5.04927 27.5196C4.64149 27.3003 4.30963 26.9921 4.05371 26.5952C4.13279 26.5407 4.18019 26.4696 4.19593 26.3818Z" fill="#828282"/>
<path fill-rule="evenodd" clip-rule="evenodd" d="M27.2352 26.667C27.3598 26.6484 27.4546 26.6958 27.5196 26.8093C27.3003 27.217 26.9921 27.549 26.5952 27.8048C26.5241 27.7337 26.4529 27.6626 26.3818 27.5915C26.6956 27.3018 26.98 26.9937 27.2352 26.667Z" fill="#828282"/>
<path fill-rule="evenodd" clip-rule="evenodd" d="M25.1024 28.516C25.3662 28.4835 25.4847 28.5784 25.4579 28.8004C25.1261 29.0375 24.7942 29.2744 24.4624 29.5115C24.3639 29.4369 24.2928 29.342 24.249 29.2271C24.5436 28.9874 24.828 28.7503 25.1024 28.516Z" fill="#848484"/>
<path fill-rule="evenodd" clip-rule="evenodd" d="M6.18652 28.373C6.63562 28.4887 7.01487 28.7258 7.3243 29.0842C7.20128 29.2382 7.05906 29.2618 6.89763 29.1553C6.53084 29.0022 6.2938 28.7415 6.18652 28.373Z" fill="#828282"/>
<path fill-rule="evenodd" clip-rule="evenodd" d="M22.6844 29.9379C23.0317 29.9171 23.1266 30.0356 22.9688 30.2934C22.617 30.5919 22.2377 30.6631 21.8311 30.5068C22.1247 30.3138 22.4092 30.1242 22.6844 29.9379Z" fill="#828282"/>
<path fill-rule="evenodd" clip-rule="evenodd" d="M8.46183 29.7959C8.96712 29.8589 9.39379 30.0722 9.74183 30.4359C9.69443 30.507 9.64701 30.5781 9.59961 30.6492C9.26776 30.4833 8.9359 30.3174 8.60406 30.1515C8.49705 30.056 8.44963 29.9376 8.46183 29.7959Z" fill="#848484"/>
<path fill-rule="evenodd" clip-rule="evenodd" d="M11.0221 30.791C11.5081 30.8729 11.9347 31.0625 12.3021 31.3599C11.9799 31.4603 11.648 31.4366 11.3066 31.2888C11.097 31.1878 11.0022 31.022 11.0221 30.791Z" fill="#888888"/>
<path fill-rule="evenodd" clip-rule="evenodd" d="M19.9826 30.9332C20.1928 30.8959 20.3824 30.9433 20.5515 31.0754C20.1659 31.4105 19.7393 31.5054 19.2715 31.3599C19.4773 31.1558 19.7144 31.0136 19.9826 30.9332Z" fill="#838383"/>
<path fill-rule="evenodd" clip-rule="evenodd" d="M15.1468 31.9287C14.7675 31.9287 14.3884 31.9287 14.0091 31.9287C13.9251 31.8362 13.8302 31.7413 13.7246 31.6443C14.1894 31.5039 14.6636 31.4566 15.1468 31.5021C15.1468 31.6443 15.1468 31.7865 15.1468 31.9287Z" fill="#8A8A8A"/>
<path fill-rule="evenodd" clip-rule="evenodd" d="M17.1379 31.9287C16.9008 31.9287 16.6638 31.9287 16.4268 31.9287C16.4268 31.7865 16.4268 31.6443 16.4268 31.5021C16.91 31.4566 17.3842 31.5039 17.849 31.6443C17.5943 31.7396 17.3572 31.8344 17.1379 31.9287Z" fill="#848484"/>
</g>
<defs>
<clipPath id="clip0_71_5">
<rect width="32" height="32" fill="white"/>
</clipPath>
</defs>
</svg>
