<svg width="32" height="32" viewBox="0 0 32 32" fill="none" xmlns="http://www.w3.org/2000/svg">
    <g clip-path="url(#clip0_765_130)">
        <path
            d="M16 32C24.8366 32 32 24.8366 32 16C32 7.16344 24.8366 0 16 0C7.16344 0 0 7.16344 0 16C0 24.8366 7.16344 32 16 32Z"
            fill="#CC4444" />
        <path
            d="M7.99988 23.6625C7.98488 23.616 7.91238 23.0475 7.83838 22.398C7.55738 19.93 6.68588 17.418 5.23738 14.901C4.75088 14.055 4.75788 14.0255 5.56888 13.559C6.08682 13.2578 6.5935 12.9376 7.08788 12.599C7.73288 12.147 7.83138 12.188 8.60438 13.2305C9.24438 14.093 9.47038 14.23 9.60338 13.835C9.80738 13.23 11.9774 11.61 12.5839 11.61C12.8164 11.61 13.3854 12.292 13.8484 13.126C14.3114 13.9605 14.7749 14.643 14.8784 14.6435C15.1684 14.6445 15.4914 11.6855 15.2824 10.937C15.1359 10.41 15.3889 10.062 16.5064 9.25553C17.2814 8.69603 18.0144 8.23853 18.1364 8.23853C18.2579 8.23853 19.4729 9.94503 20.8364 12.031C22.1994 14.117 24.2084 16.962 25.2999 18.3525L27.2844 20.881L26.2479 21.9765C25.6779 22.5795 25.0329 23.0725 24.8159 23.0725C24.1244 23.0725 22.1504 20.8775 20.3159 18.069C19.3389 16.5725 18.4394 15.3415 18.3174 15.3335C18.1954 15.325 18.0954 16.5935 18.0954 18.152V20.9855L16.7839 21.8605C16.0629 22.3415 15.3634 22.7345 15.2294 22.734C15.0954 22.7335 14.5869 21.8905 14.0994 20.861C13.6114 19.831 12.9279 18.685 12.5809 18.314L11.9494 17.639L11.7489 18.5855C11.0564 21.8475 10.9524 22.0785 9.79688 22.9085C8.77438 23.6435 8.08688 23.932 7.99988 23.6625Z"
            fill="white" />
    </g>
    <defs>
        <clipPath id="clip0_765_130">
            <rect width="32" height="32" fill="white" />
        </clipPath>
    </defs>
</svg>