<svg width="32" height="32" viewBox="0 0 33 33" fill="none" xmlns="http://www.w3.org/2000/svg">
    <path opacity="0.989" fill-rule="evenodd" clip-rule="evenodd"
        d="M7.09922 0.5C13.3664 0.5 19.6336 0.5 25.9008 0.5C29.718 1.47877 31.897 3.9371 32.4377 7.875C32.5208 13.625 32.5208 19.375 32.4377 25.125C31.897 29.0629 29.718 31.5213 25.9008 32.5C19.6336 32.5 13.3664 32.5 7.09922 32.5C3.52982 31.6666 1.33009 29.4584 0.5 25.875C0.5 19.625 0.5 13.375 0.5 7.125C1.33009 3.54166 3.52982 1.33333 7.09922 0.5Z"
        fill="#FEFEFF" />
    <path fill-rule="evenodd" clip-rule="evenodd"
        d="M16.1887 4.75C22.6369 5.07978 26.8081 8.32977 28.7023 14.5C29.7865 20.9685 27.483 25.781 21.7918 28.9375C16.0485 31.1845 11.0472 30.0802 6.78796 25.625C3.32301 20.9585 2.94947 16.0419 5.66734 10.875C8.17365 7.10636 11.6808 5.06469 16.1887 4.75Z"
        fill="#F6F9FE" />
    <path fill-rule="evenodd" clip-rule="evenodd"
        d="M20.0487 5.87495C23.795 7.3442 26.2438 10.0109 27.395 13.875C27.5186 14.6613 27.6015 15.4531 27.644 16.25C27.6436 16.6068 27.6021 16.9402 27.5195 17.25C26.4802 15.8962 25.152 14.9796 23.535 14.5C23.8882 14.5372 23.9504 14.4538 23.7218 14.25C23.6803 14.2916 23.6388 14.3333 23.5973 14.375C23.5142 14.2083 23.4313 14.0416 23.3483 13.875C23.3068 13.9166 23.2652 13.9583 23.2238 14C22.9981 13.7435 22.8322 13.4518 22.7257 13.125C22.6842 13.2083 22.6427 13.2916 22.6012 13.375C22.4939 13.1766 22.4108 12.9683 22.3522 12.75C22.2131 12.7293 22.0678 12.6877 21.9164 12.625C21.5129 11.8656 20.9318 11.3031 20.1732 10.9375C20.2146 10.8958 20.2562 10.8541 20.2977 10.8125C20.1109 10.7083 19.9656 10.5625 19.8619 10.375C19.8204 10.4166 19.7788 10.4583 19.7374 10.5C19.5207 10.348 19.3962 10.1396 19.3638 9.87495C19.2076 9.78613 19.0624 9.68195 18.928 9.56245C18.9695 9.52079 19.0111 9.47911 19.0526 9.43745C18.8949 9.39876 18.7496 9.33626 18.6168 9.24995C18.4093 9.35498 18.3885 9.29248 18.5545 9.06245C18.3391 8.8309 18.1939 8.85174 18.1187 9.12495C18.0368 8.92395 18.099 8.77811 18.3055 8.68745C18.0629 8.56455 17.8346 8.41873 17.6206 8.24995C17.5792 8.29161 17.5376 8.33329 17.4961 8.37495C17.4547 8.20829 17.4131 8.04161 17.3716 7.87495C17.2471 7.70829 17.1226 7.70829 16.9981 7.87495C16.9566 7.70829 16.915 7.54161 16.8736 7.37495C16.8321 7.45829 16.7905 7.54161 16.7491 7.62495C16.6868 7.39579 16.5415 7.24995 16.3133 7.18745C16.3547 7.14579 16.3963 7.10411 16.4378 7.06245C16.2718 6.97911 16.1057 6.89579 15.9397 6.81245C15.9812 6.77079 16.0228 6.72911 16.0642 6.68745C15.7375 6.6154 15.6545 6.44873 15.8152 6.18745C15.591 6.14779 15.5495 6.06445 15.6907 5.93745C15.6284 5.87495 15.5662 5.81245 15.5039 5.74995C15.3729 6.36304 15.2276 6.32138 15.0681 5.62495C14.9201 5.50886 14.7541 5.4672 14.5701 5.49995C16.4127 5.12606 18.239 5.25106 20.0487 5.87495Z"
        fill="#078DFC" />
    <path fill-rule="evenodd" clip-rule="evenodd"
        d="M14.57 5.50007C14.754 5.46732 14.92 5.50898 15.068 5.62507C15.2275 6.32149 15.3728 6.36316 15.5038 5.75007C15.5661 5.81257 15.6284 5.87507 15.6906 5.93757C15.5494 6.06457 15.5909 6.14791 15.8151 6.18757C15.6544 6.44884 15.7374 6.61552 16.0641 6.68757C16.0227 6.72923 15.9811 6.77091 15.9396 6.81257C16.1056 6.89591 16.2717 6.97923 16.4377 7.06257C16.3962 7.10423 16.3546 7.14591 16.3132 7.18757C16.5414 7.25007 16.6867 7.39591 16.749 7.62507C16.7904 7.54173 16.832 7.45841 16.8735 7.37507C16.9149 7.54173 16.9565 7.70841 16.998 7.87507C17.1225 7.70841 17.247 7.70841 17.3715 7.87507C17.413 8.04173 17.4546 8.20841 17.4961 8.37507C17.5375 8.33341 17.5791 8.29173 17.6206 8.25007C17.8345 8.41884 18.0628 8.56467 18.3054 8.68757C18.0989 8.77823 18.0367 8.92407 18.1186 9.12507C18.1938 8.85186 18.339 8.83102 18.5544 9.06257C18.3884 9.29259 18.4092 9.35509 18.6167 9.25007C18.7495 9.33638 18.8948 9.39888 19.0525 9.43757C19.011 9.47923 18.9694 9.52091 18.928 9.56257C19.0623 9.68207 19.2075 9.78624 19.3638 9.87507C19.3961 10.1398 19.5206 10.3481 19.7373 10.5001C19.7788 10.4584 19.8203 10.4167 19.8618 10.3751C19.9655 10.5626 20.1108 10.7084 20.2976 10.8126C20.2561 10.8542 20.2146 10.8959 20.1731 10.9376C20.9318 11.3032 21.5129 11.8657 21.9163 12.6251C22.0677 12.6878 22.213 12.7294 22.3521 12.7501C22.4107 12.9684 22.4938 13.1767 22.6011 13.3751C22.6426 13.2917 22.6842 13.2084 22.7256 13.1251C22.8321 13.4519 22.9981 13.7436 23.2237 14.0001C23.2651 13.9584 23.3067 13.9167 23.3482 13.8751C23.4312 14.0417 23.5142 14.2084 23.5972 14.3751C23.6387 14.3334 23.6803 14.2917 23.7217 14.2501C23.9503 14.4539 23.8881 14.5373 23.535 14.5001C22.2824 14.2447 21.0787 14.3697 19.9241 14.8751C19.7454 14.7489 19.6415 14.5822 19.6128 14.3751C19.5016 14.5264 19.3979 14.5264 19.3015 14.3751C19.4043 14.2562 19.425 14.1312 19.3638 14.0001C19.3223 14.0417 19.2807 14.0834 19.2392 14.1251C18.9852 13.7879 18.7362 13.4547 18.4922 13.1251C18.4091 12.9584 18.3262 12.9584 18.2431 13.1251C18.1601 12.9584 18.0772 12.7917 17.9941 12.6251C17.9526 12.6667 17.9111 12.7084 17.8696 12.7501C17.8281 12.6251 17.7865 12.5001 17.7451 12.3751C17.7036 12.4167 17.662 12.4584 17.6206 12.5001C17.4202 12.1174 17.1089 11.8674 16.6867 11.7501C16.7127 11.6768 16.7543 11.6143 16.8112 11.5626C16.4669 11.4254 16.2595 11.1754 16.1887 10.8126C15.9713 10.7537 15.7637 10.6704 15.5661 10.5626C15.7169 10.4234 15.7169 10.2776 15.5661 10.1251C15.1999 9.96598 14.9094 9.71598 14.6945 9.37507C14.6215 9.40123 14.5593 9.44289 14.5077 9.50007C14.3002 9.20841 14.0927 8.91673 13.8852 8.62507C13.8437 8.66673 13.8021 8.70841 13.7606 8.75007C13.2037 8.02429 12.5604 7.37847 11.8307 6.81257C11.9143 6.68929 11.9143 6.54346 11.8307 6.37507C12.6697 5.88611 13.5828 5.59444 14.57 5.50007Z"
        fill="#0487FC" />
    <path fill-rule="evenodd" clip-rule="evenodd"
        d="M11.8307 6.375C11.9143 6.54339 11.9143 6.68923 11.8307 6.8125C12.5604 7.3784 13.2037 8.02422 13.7607 8.75C13.8022 8.70834 13.8437 8.66666 13.8852 8.625C14.0928 8.91666 14.3002 9.20834 14.5078 9.5C14.5593 9.44283 14.6216 9.40116 14.6945 9.375C14.9095 9.71591 15.1999 9.96591 15.5661 10.125C15.7169 10.2775 15.7169 10.4234 15.5661 10.5625C15.7637 10.6703 15.9713 10.7536 16.1887 10.8125C16.2596 11.1754 16.467 11.4254 16.8113 11.5625C16.7544 11.6143 16.7128 11.6767 16.6868 11.75C17.109 11.8673 17.4203 12.1173 17.6206 12.5C17.6621 12.4583 17.7037 12.4167 17.7451 12.375C17.7866 12.5 17.8282 12.625 17.8696 12.75C17.9111 12.7083 17.9527 12.6667 17.9941 12.625C18.0772 12.7917 18.1601 12.9583 18.2432 13.125C18.3262 12.9583 18.4092 12.9583 18.4922 13.125C18.7362 13.4546 18.9853 13.7879 19.2393 14.125C19.2807 14.0834 19.3223 14.0416 19.3638 14C19.4251 14.1311 19.4044 14.2561 19.3015 14.375C19.3979 14.5264 19.5016 14.5264 19.6128 14.375C19.6416 14.5821 19.7454 14.7489 19.9241 14.875C19.0261 15.5134 18.0715 16.055 17.0603 16.5C16.7946 15.9921 16.4625 15.5337 16.0642 15.125C15.7158 14.9213 15.3837 14.6921 15.0681 14.4375C15.1511 14.3959 15.2341 14.3541 15.3171 14.3125C15.0403 14.0346 14.7084 13.868 14.321 13.8125C14.155 13.6875 14.155 13.5625 14.321 13.4375C14.0294 13.2215 13.7389 13.0132 13.4494 12.8125C13.6154 12.5825 13.5946 12.52 13.3871 12.625C13.1109 12.1393 12.7165 11.7852 12.2043 11.5625C11.9705 11.2811 11.7838 10.9686 11.644 10.625C11.4606 10.671 11.2738 10.6085 11.0836 10.4375C11.1667 10.3958 11.2497 10.3542 11.3327 10.3125C11.1044 10.25 10.9591 10.1042 10.8969 9.875C10.8046 10.0176 10.7008 10.0176 10.5856 9.875C10.2101 9.24774 9.67056 8.70606 8.96692 8.25C9.48338 7.76199 10.0229 7.30365 10.5856 6.875C11.0006 6.70834 11.4157 6.54166 11.8307 6.375Z"
        fill="#0280FC" />
    <path fill-rule="evenodd" clip-rule="evenodd"
        d="M20.0486 5.875C20.4644 5.92371 20.8795 5.98621 21.2938 6.0625C27.3923 9.37144 29.6544 14.4339 28.0798 21.25C25.8842 26.9055 21.7545 29.718 15.6907 29.6875C10.2815 29.0896 6.64983 26.2354 4.79573 21.125C3.42906 15.6579 4.90246 11.1371 9.21596 7.5625C9.63429 7.24429 10.0908 7.01511 10.5856 6.875C10.0229 7.30365 9.48339 7.76199 8.96693 8.25C8.25026 8.80246 7.6692 9.46912 7.22375 10.25C6.52723 11.2324 6.02918 12.3157 5.72958 13.5C5.65271 13.5139 5.59045 13.5555 5.54281 13.625C5.37976 14.0712 5.27601 14.5296 5.23153 15C4.3248 19.9934 5.90197 24.0143 9.96304 27.0625C13.1531 29.0961 16.5565 29.5545 20.1731 28.4375C25.5368 26.2335 28.1308 22.2126 27.9552 16.375C27.8691 15.5031 27.6823 14.6697 27.3949 13.875C26.2438 10.0109 23.795 7.34425 20.0486 5.875Z"
        fill="#EBF3FE" />
    <path fill-rule="evenodd" clip-rule="evenodd"
        d="M8.96694 8.25C9.67058 8.70606 10.2101 9.24774 10.5856 9.875C10.7009 10.0176 10.8046 10.0176 10.8969 9.875C10.9592 10.1042 11.1044 10.25 11.3327 10.3125C11.2497 10.3542 11.1667 10.3958 11.0837 10.4375C11.2738 10.6085 11.4606 10.671 11.644 10.625C11.7838 10.9686 11.9705 11.2811 12.2043 11.5625C12.7166 11.7852 13.1109 12.1393 13.3872 12.625C13.5946 12.52 13.6154 12.5825 13.4494 12.8125C13.7389 13.0132 14.0294 13.2215 14.321 13.4375C14.155 13.5625 14.155 13.6875 14.321 13.8125C14.7084 13.868 15.0403 14.0346 15.3171 14.3125C15.2341 14.3541 15.1512 14.3959 15.0681 14.4375C15.3837 14.6921 15.7158 14.9213 16.0642 15.125C16.4625 15.5337 16.7946 15.9921 17.0603 16.5C16.4426 16.6016 15.9031 16.4559 15.4416 16.0625C14.5315 14.8159 13.5353 13.6493 12.4533 12.5625C11.4791 12.0712 10.483 12.0087 9.465 12.375C9.43902 12.1973 9.37677 12.0306 9.27823 11.875C9.19521 11.7083 9.11221 11.7083 9.0292 11.875C8.84778 11.6053 8.61951 11.3761 8.34438 11.1875C8.38588 11.1458 8.42739 11.1042 8.46889 11.0625C7.99139 10.9416 7.70087 10.6916 7.5973 10.3125C7.47926 10.2521 7.35474 10.2313 7.22375 10.25C7.66921 9.46912 8.25027 8.80246 8.96694 8.25Z"
        fill="#097BFC" />
    <path fill-rule="evenodd" clip-rule="evenodd"
        d="M7.22372 10.25C7.3547 10.2313 7.47922 10.2522 7.59726 10.3125C7.70083 10.6916 7.99135 10.9416 8.46885 11.0625C8.42735 11.1042 8.38584 11.1459 8.34434 11.1875C8.61947 11.3761 8.84775 11.6053 9.02916 11.875C9.11217 11.7084 9.19518 11.7084 9.27819 11.875C9.37673 12.0307 9.43899 12.1973 9.46496 12.375C7.70232 13.4362 6.37417 14.8945 5.48053 16.75C5.27606 15.6605 5.35908 14.5773 5.72955 13.5C6.02915 12.3157 6.5272 11.2324 7.22372 10.25Z"
        fill="#0B74FB" />
    <path fill-rule="evenodd" clip-rule="evenodd"
        d="M17.0603 16.5C18.0715 16.055 19.0261 15.5133 19.9241 14.875C21.0787 14.3696 22.2824 14.2446 23.535 14.5C25.1519 14.9796 26.4801 15.8962 27.5194 17.25C27.5194 17.4166 27.5194 17.5833 27.5194 17.75C27.443 18.7658 27.194 19.7242 26.7724 20.625C25.9157 17.9262 24.0896 16.6137 21.2938 16.6875C20.1199 17.4851 18.8747 18.1517 17.5584 18.6875C16.3099 18.9572 15.1892 18.7072 14.1965 17.9375C13.3758 17.1141 12.6496 16.2183 12.0175 15.25C11.6963 14.7992 11.2812 14.5075 10.7724 14.375C9.77288 14.7096 8.98429 15.3346 8.40663 16.25C7.48504 17.5168 6.75871 18.8918 6.22764 20.375C6.15076 20.3888 6.08851 20.4305 6.04087 20.5C5.54467 19.2832 5.3579 18.0332 5.48056 16.75C6.3742 14.8945 7.70235 13.4361 9.46499 12.375C10.483 12.0086 11.4791 12.0711 12.4533 12.5625C13.5353 13.6492 14.5314 14.8158 15.4416 16.0625C15.9031 16.4558 16.4426 16.6016 17.0603 16.5Z"
        fill="#FBFDFE" />
    <path fill-rule="evenodd" clip-rule="evenodd"
        d="M26.7724 20.625C26.5897 21.2411 26.3407 21.8245 26.0253 22.375C22.9268 26.7534 18.7349 28.3993 13.4494 27.3125C10.5687 26.3974 8.32741 24.6683 6.72572 22.125C6.53577 21.6394 6.32824 21.1601 6.10315 20.6875C6.19683 20.6036 6.23835 20.4995 6.22766 20.375C6.75874 18.8919 7.48506 17.5169 8.40665 16.25C8.98432 15.3346 9.7729 14.7096 10.7724 14.375C11.2813 14.5075 11.6963 14.7993 12.0175 15.25C12.6496 16.2184 13.3759 17.1141 14.1965 17.9375C15.1893 18.7072 16.3099 18.9572 17.5584 18.6875C18.8747 18.1518 20.1199 17.4851 21.2938 16.6875C24.0896 16.6138 25.9157 17.9262 26.7724 20.625Z"
        fill="#0268FC" />
    <path fill-rule="evenodd" clip-rule="evenodd"
        d="M27.3949 13.875C27.6823 14.6697 27.8691 15.5031 27.9552 16.375C28.1308 22.2126 25.5368 26.2335 20.1731 28.4375C16.5565 29.5545 13.1531 29.0961 9.96304 27.0625C5.90197 24.0143 4.32479 19.9934 5.23152 15C5.05917 16.5033 5.07993 18.0033 5.29378 19.5C5.33528 19.4166 5.37679 19.3334 5.41829 19.25C5.77367 21.087 6.43774 22.7954 7.41051 24.375C8.39638 25.2824 9.37173 26.1783 10.3366 27.0625C15.9011 30.0487 20.8194 29.2362 25.0914 24.625C26.7113 22.5993 27.5207 20.3076 27.5194 17.75C27.5194 17.5834 27.5194 17.4166 27.5194 17.25C27.6021 16.9403 27.6436 16.6069 27.644 16.25C27.6015 15.4531 27.5186 14.6614 27.3949 13.875Z"
        fill="#DCEAFE" />
    <path fill-rule="evenodd" clip-rule="evenodd"
        d="M5.72951 13.5C5.35904 14.5773 5.27602 15.6605 5.48049 16.75C5.35783 18.0332 5.5446 19.2832 6.0408 20.5C6.08844 20.4305 6.15069 20.3889 6.22757 20.375C6.23825 20.4995 6.19674 20.6036 6.10305 20.6875C6.32815 21.1601 6.53568 21.6394 6.72562 22.125C8.74215 26.0741 12.0003 28.1575 16.4999 28.375C19.8663 28.2476 22.647 26.9142 24.8423 24.375C25.3335 23.7634 25.7279 23.0966 26.0252 22.375C26.3406 21.8245 26.5896 21.2411 26.7723 20.625C27.1939 19.7243 27.4429 18.7659 27.5194 17.75C27.5206 20.3076 26.7113 22.5993 25.0914 24.625C20.8193 29.2362 15.901 30.0487 10.3365 27.0625C9.37167 26.1783 8.39632 25.2824 7.41045 24.375C6.43767 22.7954 5.7736 21.087 5.41823 19.25C5.37673 19.3334 5.33522 19.4166 5.29372 19.5C5.07986 18.0033 5.05911 16.5033 5.23146 15C5.27594 14.5296 5.37969 14.0712 5.54274 13.625C5.59038 13.5555 5.65264 13.5139 5.72951 13.5Z"
        fill="#D1E3FE" />
    <path fill-rule="evenodd" clip-rule="evenodd"
        d="M6.72571 22.125C8.3274 24.6683 10.5686 26.3974 13.4494 27.3125C18.7349 28.3993 22.9268 26.7534 26.0253 22.375C25.728 23.0966 25.3336 23.7634 24.8424 24.375C22.6471 26.9142 19.8664 28.2476 16.5 28.375C12.0003 28.1575 8.74224 26.0741 6.72571 22.125Z"
        fill="#BDD7FE" />
</svg>