<svg width="32" height="32" viewBox="0 0 32 32" fill="none" xmlns="http://www.w3.org/2000/svg">
<path d="M26.56 16.6133H30.9067C29.3867 17.12 28.9067 18.1333 28.64 21.0133C28.4533 23.0667 27.52 23.6 27.52 23.6C26.8267 23.6 26.1333 20.64 25.52 17.4933C25.76 16.96 26.08 16.6933 26.56 16.6133Z" fill="#EB7077"/>
<path d="M27.4933 23.5733H23.1467C23.92 23.5733 24.4533 22.1067 24.7733 20.24C24.9867 18.9867 25.2 18.08 25.4933 17.4667C26.1067 20.6133 26.8 23.5733 27.4933 23.5733Z" fill="#EB7077"/>
<path d="M25.4933 17.4667C25.1733 18.0533 24.96 18.9867 24.7733 20.24C24.4533 22.1067 23.92 23.5733 23.1467 23.5733C22.32 23.3867 21.6533 20.24 20.7733 15.44C20.7467 15.28 20.72 15.1467 20.6933 14.9867C21.36 11.52 22.0533 8.53334 22.7467 8.53334H22.9867C23.8133 8.72001 24.48 11.8667 25.36 16.6667C25.4133 16.96 25.44 17.2 25.4933 17.4667Z" fill="#F6A2AD"/>
<path d="M18.64 8.56001H22.7467C22.0533 8.56001 21.3333 11.5467 20.6933 15.0133C20.08 11.76 19.36 8.56001 18.64 8.56001Z" fill="#EB7077"/>
<path d="M20.6933 15.0133C20.64 15.36 20.56 15.7067 20.5067 16.08C19.52 21.4667 18.9333 23.44 18.24 23.6C17.4667 23.6 16.72 20.1067 16.1067 16.6933C16.1067 16.64 16.08 16.5867 16.08 16.5333C16.1067 16.3733 16.1333 16.24 16.16 16.08C17.1467 10.6667 17.7333 8.72001 18.4 8.56001H18.64C19.36 8.56001 20.08 11.76 20.6933 15.0133Z" fill="#EB7077"/>
<path d="M18.24 23.5733H13.8933C14.64 23.5733 15.3867 20.24 16.0533 16.5067C16.0533 16.56 16.08 16.6133 16.08 16.6667C16.72 20.1067 17.4933 23.5733 18.24 23.5733Z" fill="#EB7077"/>
<path d="M16.08 16.5333C15.3867 20.2667 14.64 23.6 13.92 23.6C13.0667 23.3867 12.4267 20.24 11.52 15.4667C11.4933 15.3067 11.4667 15.1733 11.44 15.0133C12.1067 11.5467 12.8 8.56001 13.4933 8.56001H13.7333C14.56 8.74668 15.2 11.84 16.08 16.5333Z" fill="#F6A2AD"/>
<path d="M9.38667 8.56001H13.4933C12.8 8.56001 12.1067 11.5467 11.44 15.0133C10.8267 11.76 10.1067 8.56001 9.38667 8.56001Z" fill="#EB7077"/>
<path d="M11.44 15.0133C11.3867 15.36 11.3067 15.7067 11.2533 16.08C10.2667 21.4667 9.68001 23.44 8.98667 23.6C8.21334 23.6 8.50667 23.4667 8.02667 21.3067C7.54667 19.1467 7.17334 17.8667 6.66667 17.2C6.74667 16.8267 6.80001 16.4533 6.88001 16.08C7.89334 10.6667 8.48001 8.72001 9.14667 8.56001H9.38667C10.1067 8.56001 10.8267 11.76 11.44 15.0133Z" fill="#EB7077"/>
<path d="M8.98667 23.5733H4.64C5.33333 23.5733 6.02667 20.6133 6.69333 17.1733C7.17333 17.84 7.54667 19.12 8.05333 21.28C8.53333 23.44 8.21333 23.5733 8.98667 23.5733Z" fill="#EB7077"/>
<path d="M6.69334 17.1733C6.02667 20.6133 5.33334 23.5733 4.64 23.5733C4.56 23.4667 4.08 23.5733 3.62667 20.9067C3.22667 18.4533 2.50667 16.9067 1.33334 16.6133H5.68C6.10667 16.64 6.4 16.8 6.69334 17.1733Z" fill="#F6A2AD"/>
</svg>
