<svg width="32" height="32" viewBox="0 0 32 32" fill="none" xmlns="http://www.w3.org/2000/svg">
<g clip-path="url(#clip0_75_1154)">
<rect width="32" height="32" fill="white"/>
<path fill-rule="evenodd" clip-rule="evenodd" d="M25.4071 3.06367L25.5824 6.45326C28.3287 9.4922 29.4195 13.7974 28.056 17.8493C26.0109 23.8882 19.2715 27.0635 12.9802 24.9401C6.68886 22.8168 3.28024 16.1934 5.32541 10.1545C6.70834 6.08313 10.1949 3.31692 14.2463 2.59614L16.4278 0.00525082C9.59106 -0.170073 3.16337 4.05717 0.84551 10.8753C-1.97878 19.2519 2.50113 28.3297 10.8766 31.1544C19.2521 33.979 28.3287 29.4985 31.153 21.122C33.4514 14.3428 30.9193 7.05715 25.4071 3.06367Z" fill="#1B1D21"/>
<path fill-rule="evenodd" clip-rule="evenodd" d="M21.4917 13.0769L21.3749 8.32364L21.2775 5.59639L21.219 3.21978C21.219 3.21978 21.2385 2.07044 21.1996 1.8172C21.1996 1.75876 21.1801 1.71979 21.1606 1.68083V1.64187C21.1217 1.56395 21.0437 1.50551 20.9658 1.46655C20.8684 1.42759 20.7711 1.44707 20.6931 1.48603C20.6931 1.48603 20.6737 1.48603 20.6737 1.50551C20.6347 1.52499 20.5958 1.54447 20.5568 1.58343C20.362 1.77824 19.6803 2.69381 19.6803 2.69381L18.2 4.54445L16.4665 6.66781L13.4863 10.3691C13.4863 10.3691 12.1229 12.0639 12.4151 14.1678C12.7072 16.2716 14.2849 17.2846 15.4926 17.6937C16.7002 18.1028 18.5701 18.2392 20.0699 16.7586C21.5307 15.2587 21.4917 13.0769 21.4917 13.0769Z" fill="#1B1D21"/>
</g>
<defs>
<clipPath id="clip0_75_1154">
<rect width="32" height="32" fill="white"/>
</clipPath>
</defs>
</svg>
