<svg width="32" height="32" viewBox="0 0 32 32" fill="none" xmlns="http://www.w3.org/2000/svg">
<path opacity="0.968" fill-rule="evenodd" clip-rule="evenodd" d="M11.9642 0C14.623 0 17.2817 0 19.9404 0C32.1402 5.48603 35.0838 14.2479 28.7712 26.2857C26.0787 29.0127 22.9453 30.9175 19.3707 32C17.0918 32 14.8129 32 12.534 32C6.1233 30.3318 1.94531 26.3318 0 20C0 17.3333 0 14.6667 0 12C1.87922 5.92467 5.8673 1.92467 11.9642 0Z" fill="#F44437"/>
<path fill-rule="evenodd" clip-rule="evenodd" d="M10.8242 6.85668C11.6761 6.80799 12.2459 7.18896 12.5334 7.99953C14.7812 8.56576 17.0601 8.75622 19.3701 8.57096C19.2453 7.89953 19.4352 7.32811 19.9398 6.85668C20.7874 7.86845 21.8319 8.63033 23.0733 9.14239C23.4532 13.9043 23.4532 18.6662 23.0733 23.4281C18.1357 24.19 13.1981 24.19 8.26046 23.4281C7.88063 18.8567 7.88063 14.2852 8.26046 9.71382C8.89263 8.83565 9.74722 8.45468 10.8242 8.57096C10.8242 7.99953 10.8242 7.42811 10.8242 6.85668Z" fill="#FAEDEC"/>
<path fill-rule="evenodd" clip-rule="evenodd" d="M9.68555 13.1436C13.6736 13.1436 17.6617 13.1436 21.6498 13.1436C21.6498 16.1912 21.6498 19.2388 21.6498 22.2864C17.6617 22.2864 13.6736 22.2864 9.68555 22.2864C9.68555 19.2388 9.68555 16.1912 9.68555 13.1436Z" fill="#F44A3C"/>
<path fill-rule="evenodd" clip-rule="evenodd" d="M15.9521 16.5713C17.2815 16.5713 18.6109 16.5713 19.9402 16.5713C19.9402 17.9046 19.9402 19.238 19.9402 20.5713C18.6109 20.5713 17.2815 20.5713 15.9521 20.5713C15.9521 19.238 15.9521 17.9046 15.9521 16.5713Z" fill="#FAF8F8"/>
</svg>
