<svg width="32" height="32" viewBox="0 0 32 32" fill="none" xmlns="http://www.w3.org/2000/svg">
<path fill-rule="evenodd" clip-rule="evenodd" d="M15.9071 15.0271L15.904 15.0201L13.7242 10.1722C13.3329 9.30178 12.469 8.78594 11.5649 8.78908C10.6459 8.7859 9.77099 9.31928 9.38939 10.2095L7.02885 15.7162L6.99948 15.7848L6.37224 17.2481L5.98924 18.1415L5.25507 19.8542C4.74723 21.039 5.30541 22.407 6.50183 22.9099C7.69824 23.4127 9.07982 22.8601 9.58764 21.6753L10.0883 20.5073L11.1586 18.0105L11.1862 17.9462L11.6032 16.9733L11.6163 16.9429L11.6245 16.961L12.0674 17.9462L13.7281 21.6397C13.9469 22.1263 14.3135 22.5022 14.7522 22.7384C14.8567 22.8033 14.9676 22.8608 15.0846 22.9099C16.2811 23.4127 17.6627 22.8601 18.1705 21.6753L19.2684 19.114L19.6817 18.15L20.1992 16.9429L20.208 16.9625L20.6874 18.0288L22.3109 21.6397C22.8396 22.8154 24.2308 23.3442 25.418 22.8208C26.6054 22.2973 27.1395 20.9197 26.6108 19.744L24.8221 15.7656L24.82 15.7607L24.2815 14.5634L23.9983 13.9337L22.307 10.1722C21.9158 9.30178 21.0518 8.78594 20.1477 8.78908C19.2287 8.7859 18.3539 9.31928 17.9722 10.2095L16.4195 13.8317L15.9071 15.0271Z" fill="white"/>
<mask id="mask0_77_40" style="mask-type:luminance" maskUnits="userSpaceOnUse" x="0" y="4" width="32" height="24">
<path d="M31.6206 4.04883H0.260742V27.8574H31.6206V4.04883Z" fill="white"/>
<path fill-rule="evenodd" clip-rule="evenodd" d="M15.9071 15.0271L15.904 15.0201L13.7242 10.1722C13.3329 9.30178 12.469 8.78594 11.5649 8.78908C10.6459 8.7859 9.77099 9.31928 9.38939 10.2095L7.02885 15.7162L6.99948 15.7848L6.37224 17.2481L5.98924 18.1415L5.25507 19.8542C4.74723 21.039 5.30541 22.407 6.50183 22.9099C7.69824 23.4127 9.07982 22.8601 9.58764 21.6753L10.0883 20.5073L11.1586 18.0105L11.1862 17.9462L11.6032 16.9733L11.6163 16.9429L11.6245 16.961L12.0674 17.9462L13.7281 21.6397C13.9469 22.1263 14.3135 22.5022 14.7522 22.7384C14.8567 22.8033 14.9676 22.8608 15.0846 22.9099C16.2811 23.4127 17.6627 22.8601 18.1705 21.6753L19.2684 19.114L19.6817 18.15L20.1992 16.9429L20.208 16.9625L20.6874 18.0288L22.3109 21.6397C22.8396 22.8154 24.2308 23.3442 25.418 22.8208C26.6054 22.2973 27.1395 20.9197 26.6108 19.744L24.8221 15.7656L24.82 15.7607L24.2815 14.5634L23.9983 13.9337L22.307 10.1722C21.9158 9.30178 21.0518 8.78594 20.1477 8.78908C19.2287 8.7859 18.3539 9.31928 17.9722 10.2095L16.4195 13.8317L15.9071 15.0271Z" fill="black"/>
</mask>
<g mask="url(#mask0_77_40)">
<path d="M15.9067 15.0271L11.5363 16.956L16.0115 26.9089L20.3104 16.88L15.9067 15.0271ZM11.5645 8.78903L11.5478 13.5292L11.5645 13.5292L11.5811 13.5292L11.5645 8.78903ZM7.02846 15.7162L2.62471 13.8632L2.6246 13.8635L2.62449 13.8637L7.02846 15.7162ZM6.99907 15.7847L11.4028 17.6377L11.4029 17.6374L11.403 17.6372L6.99907 15.7847ZM6.37183 17.2481L10.7756 19.1011L10.7756 19.1009L6.37183 17.2481ZM5.98884 18.1414L1.5851 16.2884L1.58507 16.2886L5.98884 18.1414ZM11.1858 17.9462L15.5894 19.7992L15.5896 19.799L11.1858 17.9462ZM11.6028 16.9732L7.19956 15.1191L7.1993 15.1197L7.19906 15.1203L11.6028 16.9732ZM11.6159 16.9428L15.9859 15.0128L11.5113 5.0678L7.21263 15.0887L11.6159 16.9428ZM11.6241 16.961L15.9945 15.0321L15.9942 15.0316L15.994 15.031L11.6241 16.961ZM12.067 17.9462L7.6966 19.8749L7.69663 19.8751L12.067 17.9462ZM14.7518 22.7383L17.2908 18.7207L17.1659 18.6433L17.0365 18.5735L14.7518 22.7383ZM20.1988 16.9428L24.5692 15.0139L20.0941 5.06077L15.795 15.0898L20.1988 16.9428ZM24.8218 15.7656L20.4493 17.69L20.4502 17.6923L20.4512 17.6944L24.8218 15.7656ZM24.8196 15.7607L29.1918 13.8361L29.1908 13.834L29.19 13.8318L24.8196 15.7607ZM20.1474 8.78903L20.1307 13.5292L20.1474 13.5292L20.164 13.5292L20.1474 8.78903ZM11.5332 16.949L11.5363 16.956L20.2771 13.0982L20.274 13.0912L11.5332 16.949ZM9.35343 12.101L11.5332 16.949L20.274 13.0912L18.0943 8.24328L9.35343 12.101ZM11.5811 13.5292C10.6597 13.5323 9.76132 13.0082 9.35343 12.101L18.0943 8.24328C16.9037 5.59529 14.2774 4.03945 11.5478 4.04887L11.5811 13.5292ZM13.7927 12.0624C13.395 12.9903 12.4855 13.5324 11.5478 13.5292L11.5811 4.04887C8.80549 4.0393 6.14621 5.64816 4.98524 8.35648L13.7927 12.0624ZM11.4322 17.5691L13.7927 12.0624L4.98524 8.35648L2.62471 13.8632L11.4322 17.5691ZM11.403 17.6372L11.4324 17.5686L2.62449 13.8637L2.59513 13.9323L11.403 17.6372ZM10.7756 19.1009L11.4028 17.6377L2.59532 13.9318L1.96808 15.3951L10.7756 19.1009ZM10.3926 19.9944L10.7756 19.1011L1.96808 15.3951L1.5851 16.2884L10.3926 19.9944ZM9.65841 21.7072L10.3926 19.9944L1.58507 16.2886L0.850917 18.0013L9.65841 21.7072ZM8.37003 18.5462C9.60529 19.0654 10.1844 20.4801 9.65841 21.7072L0.850917 18.0013C-0.690743 21.5977 1.00476 25.7486 4.63282 27.2736L8.37003 18.5462ZM5.18349 19.8223C5.70893 18.5966 7.13607 18.0274 8.37003 18.5462L4.63282 27.2736C8.2596 28.798 12.4499 27.1234 13.991 23.5282L5.18349 19.8223ZM5.68418 18.6544L5.18349 19.8224L13.991 23.5282L14.4917 22.3602L5.68418 18.6544ZM6.75446 16.1575L5.68418 18.6544L14.4917 22.3602L15.562 19.8634L6.75446 16.1575ZM6.78203 16.0932L6.75446 16.1575L15.562 19.8634L15.5894 19.7992L6.78203 16.0932ZM7.19906 15.1203L6.78203 16.0932L15.5896 19.799L16.0066 18.8261L7.19906 15.1203ZM7.21263 15.0887L7.19956 15.1191L16.0061 18.8273L16.0192 18.7969L7.21263 15.0887ZM15.994 15.031L15.9859 15.0128L7.24595 18.8727L7.25416 18.8909L15.994 15.031ZM16.4375 16.0173L15.9945 15.0321L7.25365 18.8897L7.6966 19.8749L16.4375 16.0173ZM18.0981 19.7108L16.4375 16.0173L7.69663 19.8751L9.35729 23.5685L18.0981 19.7108ZM17.0365 18.5735C17.4896 18.8175 17.8739 19.2121 18.0981 19.7108L9.35729 23.5685C10.0192 25.0406 11.1367 26.1868 12.4673 26.9032L17.0365 18.5735ZM16.9529 18.5462C17.069 18.5949 17.1821 18.6533 17.2908 18.7207L12.2129 26.756C12.5304 26.9529 12.8655 27.1264 13.2157 27.2736L16.9529 18.5462ZM13.7664 19.8223C14.2918 18.5966 15.719 18.0274 16.9529 18.5462L13.2157 27.2736C16.8424 28.798 21.0327 27.1234 22.5739 23.5282L13.7664 19.8223ZM14.8643 17.261L13.7664 19.8223L22.5739 23.5282L23.6719 20.9668L14.8643 17.261ZM15.2775 16.2971L14.8643 17.261L23.6719 20.9668L24.0851 20.0029L15.2775 16.2971ZM15.795 15.0898L15.2775 16.2971L24.0849 20.0029L24.6025 18.7957L15.795 15.0898ZM24.5782 15.0336L24.5692 15.0139L15.8283 18.8716L15.8372 18.8913L24.5782 15.0336ZM25.0574 16.1L24.5782 15.0336L15.8372 18.8913L16.3166 19.9576L25.0574 16.1ZM26.6809 19.7108L25.0574 16.1L16.3166 19.9576L17.9402 23.5685L26.6809 19.7108ZM23.4726 18.4899C24.697 17.95 26.1342 18.4945 26.6809 19.7108L17.9402 23.5685C19.5444 27.1364 23.7634 28.7383 27.363 27.1513L23.4726 18.4899ZM22.2398 21.6728C21.6924 20.4551 22.2466 19.0305 23.4726 18.4899L27.363 27.1513C30.9637 25.564 32.5855 21.3843 30.9808 17.815L22.2398 21.6728ZM20.4512 17.6944L22.2398 21.6728L30.9808 17.815L29.1921 13.8367L20.4512 17.6944ZM20.447 17.6852L20.4493 17.69L29.194 13.841L29.1918 13.8361L20.447 17.6852ZM19.9108 16.4922L20.449 17.6895L29.19 13.8318L28.6515 12.6346L19.9108 16.4922ZM19.6276 15.8625L19.9108 16.4922L28.6515 12.6346L28.3686 12.0049L19.6276 15.8625ZM17.9363 12.1009L19.6276 15.8625L28.3686 12.0049L26.6773 8.24328L17.9363 12.1009ZM20.164 13.5292C19.2425 13.5323 18.3442 13.0082 17.9363 12.1009L26.6773 8.24328C25.4866 5.59529 22.8604 4.03945 20.1307 4.04887L20.164 13.5292ZM22.3755 12.0624C21.9778 12.9903 21.0684 13.5324 20.1307 13.5292L20.164 4.04887C17.3884 4.0393 14.7291 5.64816 13.5681 8.35648L22.3755 12.0624ZM20.823 15.6846L22.3755 12.0624L13.5681 8.35648L12.0154 11.9787L20.823 15.6846ZM20.3104 16.88L20.823 15.6846L12.0154 11.9787L11.503 13.1741L20.3104 16.88Z" fill="black"/>
</g>
<path fill-rule="evenodd" clip-rule="evenodd" d="M15.9071 15.0271L15.904 15.0201L13.7242 10.1722C13.3329 9.30178 12.469 8.78594 11.5649 8.78908C10.6459 8.7859 9.77099 9.31928 9.38939 10.2095L7.02885 15.7162L6.99948 15.7848L6.37224 17.2481L5.98924 18.1415L5.25507 19.8542C4.74723 21.039 5.30541 22.407 6.50183 22.9099C7.69824 23.4127 9.07982 22.8601 9.58764 21.6753L10.0883 20.5073L11.1586 18.0105L11.1862 17.9462L11.6032 16.9733L11.6163 16.9429L11.6245 16.961L12.0674 17.9462L13.7281 21.6397C13.9469 22.1263 14.3135 22.5022 14.7522 22.7384C14.8567 22.8033 14.9676 22.8608 15.0846 22.9099C16.2811 23.4127 17.6627 22.8601 18.1705 21.6753L19.2684 19.114L19.6817 18.15L20.1992 16.9429L20.208 16.9625L20.6874 18.0288L22.3109 21.6397C22.8396 22.8154 24.2308 23.3442 25.418 22.8208C26.6054 22.2973 27.1395 20.9197 26.6108 19.744L24.8221 15.7656L24.82 15.7607L24.2815 14.5634L23.9983 13.9337L22.307 10.1722C21.9158 9.30178 21.0518 8.78594 20.1477 8.78908C19.2288 8.7859 18.3539 9.31928 17.9722 10.2095L16.4195 13.8317L15.9071 15.0271Z" fill="white"/>
<mask id="mask1_77_40" style="mask-type:luminance" maskUnits="userSpaceOnUse" x="1" y="5" width="30" height="22">
<path d="M30.0983 5.55664H1.7832V26.3488H30.0983V5.55664Z" fill="white"/>
<path fill-rule="evenodd" clip-rule="evenodd" d="M15.9071 15.0271L15.904 15.0201L13.7243 10.1722C13.3329 9.30178 12.469 8.78594 11.5649 8.78908C10.6459 8.7859 9.77099 9.31928 9.38939 10.2095L7.02885 15.7162L6.99948 15.7848L6.37224 17.2481L5.98924 18.1415L5.25507 19.8542C4.74722 21.039 5.30542 22.407 6.50183 22.9099C7.69824 23.4127 9.07982 22.8601 9.58764 21.6753L10.0883 20.5073L11.1586 18.0105L11.1862 17.9462L11.6032 16.9733L11.6163 16.9429L11.6245 16.961L12.0674 17.9462L13.7281 21.6397C13.947 22.1263 14.3135 22.5022 14.7522 22.7384C14.8567 22.8033 14.9676 22.8608 15.0846 22.9099C16.2812 23.4127 17.6627 22.8601 18.1705 21.6753L19.2685 19.114L19.6817 18.15L20.1991 16.9429L20.208 16.9625L20.6875 18.0288L22.3109 21.6397C22.8396 22.8154 24.2308 23.3442 25.418 22.8208C26.6054 22.2973 27.1395 20.9197 26.6109 19.744L24.8222 15.7656L24.8199 15.7607L24.2814 14.5634L23.9983 13.9337L22.307 10.1722C21.9158 9.30178 21.0518 8.78594 20.1478 8.78908C19.2288 8.7859 18.3539 9.31928 17.9722 10.2095L16.4195 13.8317L15.9071 15.0271Z" fill="white"/>
</mask>
<g mask="url(#mask1_77_40)">
<path d="M15.9064 15.0267L12.9266 16.3418L15.9779 23.1278L18.9091 16.29L15.9064 15.0267ZM11.5642 8.7886L11.5529 12.0205L11.5642 12.0206L11.5756 12.0205L11.5642 8.7886ZM7.02819 15.7158L4.02563 14.4524L4.02556 14.4525L4.02549 14.4527L7.02819 15.7158ZM6.9988 15.7843L10.0014 17.0477L10.0014 17.0475L10.0015 17.0474L6.9988 15.7843ZM6.37156 17.2476L9.37411 18.511L9.37413 18.5109L6.37156 17.2476ZM5.98857 18.141L2.98602 16.8776V16.8777L5.98857 18.141ZM11.6026 16.9728L8.60033 15.7086L8.60016 15.709L8.59999 15.7095L11.6026 16.9728ZM11.6156 16.9424L14.5951 15.6265L11.5443 8.84575L8.61341 15.6782L11.6156 16.9424ZM11.6238 16.9605L14.6037 15.6454L14.6035 15.645L14.6033 15.6447L11.6238 16.9605ZM14.7516 22.7379L16.4827 19.9987L16.3975 19.9458L16.3092 19.8983L14.7516 22.7379ZM20.1985 16.9424L23.1784 15.6272L20.1272 8.84097L17.196 15.6789L20.1985 16.9424ZM24.8215 15.7651L21.8403 17.0773L21.8409 17.0787L21.8416 17.0802L24.8215 15.7651ZM24.8193 15.7602L27.8004 14.448L27.7997 14.4466L27.7991 14.4451L24.8193 15.7602ZM20.1472 8.7886L20.1358 12.0205L20.1472 12.0206L20.1584 12.0205L20.1472 8.7886ZM12.9235 16.3348L12.9266 16.3418L18.8862 13.7115L18.8831 13.7045L12.9235 16.3348ZM10.7437 11.4868L12.9235 16.3348L18.8831 13.7045L16.7034 8.85657L10.7437 11.4868ZM11.5756 12.0205C11.235 12.0217 10.8973 11.8284 10.7437 11.4868L16.7034 8.85657C15.7671 6.77416 13.7016 5.54926 11.5529 5.55667L11.5756 12.0205ZM12.3913 11.4724C12.2415 11.8218 11.8998 12.0217 11.5529 12.0205L11.5756 5.55667C9.39068 5.54914 7.29915 6.81579 6.38617 8.94564L12.3913 11.4724ZM10.0307 16.9791L12.3913 11.4724L6.38617 8.94564L4.02563 14.4524L10.0307 16.9791ZM10.0015 17.0474L10.0309 16.9788L4.02549 14.4527L3.99612 14.5213L10.0015 17.0474ZM9.37413 18.5109L10.0014 17.0477L3.99626 14.5209L3.36901 15.9842L9.37413 18.5109ZM8.99111 19.4044L9.37411 18.511L3.36901 15.9842L2.98602 16.8776L8.99111 19.4044ZM8.25697 21.1171L8.99111 19.4044L2.98602 16.8777L2.25185 18.5903L8.25697 21.1171ZM7.77522 19.9342C8.23676 20.1281 8.45399 20.6575 8.25697 21.1171L2.25185 18.5903C1.03911 21.4195 2.37275 24.6849 5.22711 25.8846L7.77522 19.9342ZM6.58444 20.4114C6.7811 19.9527 7.31453 19.7406 7.77522 19.9342L5.22711 25.8846C8.08059 27.0842 11.3772 25.7664 12.5895 22.9383L6.58444 20.4114ZM7.0851 19.2435L6.58441 20.4116L12.5895 22.9383L13.0902 21.7702L7.0851 19.2435ZM8.15538 16.7467L7.0851 19.2435L13.0902 21.7702L14.1605 19.2734L8.15538 16.7467ZM8.18296 16.6823L8.15538 16.7467L14.1605 19.2734L14.1881 19.2092L8.18296 16.6823ZM8.59999 15.7095L8.18296 16.6823L14.1881 19.2092L14.6052 18.2361L8.59999 15.7095ZM8.61341 15.6782L8.60033 15.7086L14.6048 18.237L14.6178 18.2064L8.61341 15.6782ZM14.6033 15.6447L14.5951 15.6265L8.63613 18.2582L8.64431 18.2763L14.6033 15.6447ZM15.0466 16.6306L14.6037 15.6454L8.64396 18.2757L9.08693 19.2609L15.0466 16.6306ZM16.7072 20.3241L15.0466 16.6306L9.08693 19.2609L10.7476 22.9543L16.7072 20.3241ZM16.3092 19.8983C16.4785 19.9894 16.624 20.1389 16.7072 20.3241L10.7476 22.9543C11.2685 24.1129 12.1471 25.014 13.1939 25.5777L16.3092 19.8983ZM16.3581 19.9342C16.4 19.9518 16.4418 19.9732 16.4827 19.9987L13.0205 25.4772C13.2702 25.6321 13.534 25.7688 13.81 25.8846L16.3581 19.9342ZM15.1673 20.4114C15.364 19.9527 15.8974 19.7406 16.3581 19.9342L13.81 25.8846C16.6635 27.0842 19.9601 25.7664 21.1725 22.9383L15.1673 20.4114ZM16.2652 17.8501L15.1673 20.4114L21.1725 22.9383L22.2703 20.3768L16.2652 17.8501ZM16.6785 16.8862L16.2652 17.8501L22.2703 20.3768L22.6835 19.4129L16.6785 16.8862ZM17.196 15.6789L16.6785 16.8862L22.6835 19.4129L23.201 18.2057L17.196 15.6789ZM23.1872 15.6469L23.1784 15.6272L17.2187 18.2574L17.2275 18.2771L23.1872 15.6469ZM23.6666 16.7133L23.1872 15.6469L17.2275 18.2771L17.7069 19.3434L23.6666 16.7133ZM25.2901 20.3241L23.6666 16.7133L17.7069 19.3434L19.3304 22.9543L25.2901 20.3241ZM24.0911 19.8676C24.5483 19.6659 25.0855 19.8689 25.2901 20.3241L19.3304 22.9543C20.5924 25.7612 23.9118 27.0217 26.7437 25.7731L24.0911 19.8676ZM23.6303 21.0586C23.4253 20.6025 23.6329 20.0695 24.0911 19.8676L26.7437 25.7731C29.5766 24.524 30.8523 21.2361 29.59 18.4284L23.6303 21.0586ZM21.8416 17.0802L23.6303 21.0586L29.59 18.4284L27.8013 14.45L21.8416 17.0802ZM21.8379 17.0723L21.8403 17.0773L27.8026 14.4529L27.8004 14.448L21.8379 17.0723ZM21.301 15.8781L21.8395 17.0753L27.7991 14.4451L27.2607 13.2479L21.301 15.8781ZM21.018 15.2484L21.301 15.8781L27.2607 13.2479L26.9775 12.6181L21.018 15.2484ZM19.3267 11.4868L21.018 15.2484L26.9775 12.6181L25.2862 8.85657L19.3267 11.4868ZM20.1584 12.0205C19.8179 12.0217 19.4803 11.8284 19.3267 11.4868L25.2862 8.85657C24.35 6.77416 22.2844 5.54926 20.1358 5.55667L20.1584 12.0205ZM20.9742 11.4724C20.8244 11.8218 20.4827 12.0217 20.1358 12.0205L20.1584 5.55667C17.9735 5.54914 15.882 6.81579 14.969 8.94562L20.9742 11.4724ZM19.4215 15.0946L20.9742 11.4724L14.969 8.94562L13.4163 12.5678L19.4215 15.0946ZM18.9091 16.29L19.4215 15.0946L13.4163 12.5678L12.9039 13.7633L18.9091 16.29Z" fill="white"/>
</g>
<mask id="mask2_77_40" style="mask-type:luminance" maskUnits="userSpaceOnUse" x="5" y="8" width="22" height="16">
<path d="M26.8148 8.76758H5.06738V23.0958H26.8148V8.76758Z" fill="white"/>
</mask>
<g mask="url(#mask2_77_40)">
<path d="M23.9984 13.917L26.6109 19.7272C27.1396 20.903 26.6056 22.2805 25.4182 22.804C24.2309 23.3275 22.8398 22.7987 22.311 21.6229L20.1993 16.9261L19.2686 19.0972V13.917H23.9984Z" fill="#2AA8FF"/>
<path d="M24.2814 14.5469L24.822 15.749C24.4955 15.6367 24.1448 15.5757 23.7797 15.5757C22.2713 15.5757 21.0089 16.617 20.6874 18.0123L20.1991 16.9263L19.6816 18.1335V14.5469H24.2814Z" fill="#393939" fill-opacity="0.2"/>
<path d="M16.4193 13.8151V17.9296H12.0673L11.6162 16.9262L11.186 17.9296H6.37207V17.2315L9.38923 10.1929C9.77084 9.30271 10.6457 8.7693 11.5647 8.77248C12.4688 8.76937 13.3327 9.28521 13.724 10.1556L15.9069 15.0105L16.4193 13.8151Z" fill="#017ACE"/>
<path d="M15.9045 15.0035L15.9077 15.0106L17.9728 10.1929C18.3544 9.30271 19.2293 8.7693 20.1482 8.77248C21.0523 8.76937 21.9163 9.28521 22.3075 10.1556L24.8202 15.7441C24.3136 15.3108 23.6535 15.0488 22.9315 15.0488C21.6769 15.0488 20.609 15.8399 20.2086 16.9458L20.1997 16.9262L18.171 21.6587C17.6632 22.8435 16.2816 23.3963 15.0852 22.8934C14.9682 22.8442 14.8573 22.7867 14.7528 22.7219C14.3141 22.4856 13.9474 22.1099 13.7287 21.6231L11.625 16.9444C11.9417 17.0343 12.2761 17.0823 12.6219 17.0823C14.077 17.0823 15.3313 16.2309 15.9045 15.0035Z" fill="#AEDEFF"/>
<path d="M11.6032 16.9562L10.0883 20.4903C9.71889 20.6582 9.30721 20.7517 8.8732 20.7517C7.35077 20.7517 6.10306 19.6009 5.98926 18.1246L7.02889 15.6992C7.52952 15.2887 8.17225 15.042 8.8732 15.042C10.1349 15.042 11.208 15.8414 11.6032 16.9562Z" fill="black"/>
<path d="M11.1586 17.9941L9.58764 21.6589C9.07982 22.8436 7.69824 23.3964 6.50183 22.8935C5.30541 22.3906 4.74723 21.0225 5.25507 19.8377L6.99948 15.7683C7.36875 15.6065 7.77714 15.5166 8.20667 15.5166C9.68959 15.5166 10.9207 16.588 11.1586 17.9941Z" fill="#393939"/>
</g>
</svg>
