<svg width="32" height="32" viewBox="0 0 32 32" fill="none" xmlns="http://www.w3.org/2000/svg">
<g clip-path="url(#clip0_6017_163)">
<mask id="mask0_6017_163" style="mask-type:luminance" maskUnits="userSpaceOnUse" x="0" y="0" width="32" height="32">
<path d="M32 0H0V32H32V0Z" fill="white"/>
</mask>
<g mask="url(#mask0_6017_163)">
<path fill-rule="evenodd" clip-rule="evenodd" d="M14.3526 3.52949C18.877 3.43882 22.328 5.32116 24.7056 9.17655C31.1562 12.5096 31.9405 16.8234 27.0585 22.1177C26.0466 22.7819 24.9485 23.1741 23.7644 23.2942C23.6881 22.3402 23.7665 21.399 23.9997 20.4707C27.5323 18.3355 27.9244 15.7472 25.1762 12.706C24.235 12.3138 23.2938 11.9216 22.3526 11.5295C19.6912 6.56803 15.9265 5.54841 11.0585 8.47067C10.254 9.37217 9.62661 10.3918 9.17616 11.5295C5.74195 12.2108 4.25177 14.25 4.70557 17.6471C5.33301 18.9021 6.27419 19.8432 7.5291 20.4707C7.76228 21.399 7.84068 22.3402 7.7644 23.2942C1.95373 21.7121 0.149815 18.1043 2.35263 12.4707C3.41819 11.0902 4.7515 10.0706 6.35263 9.41185C8.21814 6.29029 10.8848 4.32951 14.3526 3.52949Z" fill="#188272"/>
<path fill-rule="evenodd" clip-rule="evenodd" d="M10.5884 17.1762C12.4503 16.9448 14.1758 17.2586 15.7648 18.1174C18.3417 16.6055 20.6163 16.9192 22.5884 19.0585C22.9791 21.895 22.9007 24.7186 22.3531 27.5291C21.1438 26.9953 19.8888 26.6031 18.5884 26.3526C19.5167 26.1195 20.4579 26.0411 21.4119 26.1174C21.4898 24.2285 21.4113 22.3462 21.1766 20.4703C20.1827 18.5419 18.8494 18.2282 17.1766 19.5291C16.5767 20.881 16.1845 22.2928 16.0001 23.7644C15.4139 22.4182 14.9433 21.0064 14.5884 19.5291C13.1314 18.1864 11.8765 18.3433 10.8237 19.9997C10.5888 22.0329 10.5104 24.0721 10.5884 26.1174C11.388 26.042 12.1723 26.1204 12.9413 26.3526C11.5994 26.4794 10.3445 26.8716 9.17661 27.5291C8.62904 24.7186 8.55059 21.895 8.94132 19.0585C9.58866 18.4914 10.1377 17.864 10.5884 17.1762Z" fill="#1D8171"/>
</g>
</g>
<defs>
<clipPath id="clip0_6017_163">
<rect width="32" height="32" fill="white"/>
</clipPath>
</defs>
</svg>
