<svg width="32" height="32" viewBox="0 0 32 32" fill="none" xmlns="http://www.w3.org/2000/svg">
<g clip-path="url(#clip0_77_62)">
<path fill-rule="evenodd" clip-rule="evenodd" d="M2.0624 2.34641C2.0624 2.39381 2.0624 2.44123 2.0624 2.48863C1.51156 2.10663 1.1086 1.63255 0.853516 1.06641C1.28557 1.4745 1.68853 1.90117 2.0624 2.34641Z" fill="#FBAE9A"/>
<path fill-rule="evenodd" clip-rule="evenodd" d="M2.0625 2.34668C10.9699 10.6138 19.8588 18.91 28.7292 27.2356C29.1112 28.2252 28.7794 28.8414 27.7336 29.0845C27.5022 29.0667 27.2889 28.9956 27.0936 28.8711C18.7728 20.0526 10.4291 11.2586 2.0625 2.4889C2.0625 2.4415 2.0625 2.39408 2.0625 2.34668Z" fill="#F7693D"/>
<path fill-rule="evenodd" clip-rule="evenodd" d="M10.1689 4.90693C10.2254 4.76115 10.3202 4.73745 10.4534 4.83582C17.2428 11.1338 24.0459 17.4154 30.8623 23.6803C31.0426 25.1123 30.4501 25.6101 29.0845 25.1736C22.7983 18.39 16.4931 11.6345 10.1689 4.90693Z" fill="#F7693D"/>
<path fill-rule="evenodd" clip-rule="evenodd" d="M17.2803 7.18232C17.3367 7.03655 17.4315 7.01284 17.5647 7.11121C22.0989 11.4037 26.6738 15.6467 31.2892 19.8401C31.4775 20.8364 31.0744 21.1919 30.0803 20.9068C25.8849 16.2611 21.6182 11.6863 17.2803 7.18232Z" fill="#F7693D"/>
<path fill-rule="evenodd" clip-rule="evenodd" d="M4.19531 10.3113C4.19531 10.3587 4.19531 10.4062 4.19531 10.4536C3.7836 10.2115 3.52287 9.87961 3.41309 9.45801C3.70316 9.72399 3.9639 10.0084 4.19531 10.3113Z" fill="#FBB19E"/>
<path fill-rule="evenodd" clip-rule="evenodd" d="M24.5332 10.4538C24.5897 10.308 24.6844 10.2843 24.8176 10.3827C26.5528 12.0706 28.3305 13.7062 30.151 15.2894C30.3293 15.8029 30.1635 16.0163 29.6532 15.9294C27.9608 14.0801 26.2541 12.2549 24.5332 10.4538Z" fill="#F76B3F"/>
<path fill-rule="evenodd" clip-rule="evenodd" d="M4.19531 10.3115C11.1115 16.5874 18.0094 22.8925 24.8886 29.2271C25.1887 29.8142 25.1176 30.3593 24.6753 30.8626C24.2013 31.1471 23.7271 31.1471 23.2531 30.8626C16.883 24.0687 10.5304 17.2656 4.19531 10.4537C4.19531 10.4063 4.19531 10.3589 4.19531 10.3115Z" fill="#F7693D"/>
<path fill-rule="evenodd" clip-rule="evenodd" d="M6.3291 17.28C6.38551 17.1342 6.48031 17.1105 6.61355 17.2089C11.1478 21.5014 15.7226 25.7444 20.338 29.9378C20.4441 30.4055 20.2783 30.7611 19.8402 31.0044C19.5366 31.0948 19.2521 31.0473 18.9869 30.8622C14.7488 26.3378 10.5295 21.8105 6.3291 17.28Z" fill="#F76A3E"/>
<path fill-rule="evenodd" clip-rule="evenodd" d="M9.17285 23.3955C11.244 25.2743 13.3062 27.1705 15.3595 29.0844C15.478 29.5348 15.3122 29.7006 14.8617 29.5822C12.8807 27.5783 10.9844 25.516 9.17285 23.3955Z" fill="#F76A3D"/>
</g>
<defs>
<clipPath id="clip0_77_62">
<rect width="32" height="32" fill="white"/>
</clipPath>
</defs>
</svg>
