<svg width="32" height="32" viewBox="0 0 32 32" fill="none" xmlns="http://www.w3.org/2000/svg">
<rect width="32" height="32" fill="#00A65C"/>
<path fill-rule="evenodd" clip-rule="evenodd" d="M8.11033 8.63435C7.50084 9.21406 7.06437 9.91351 6.79613 10.7342H5.02939V7.22266H1.14258V11.0123H3.95032V24.6047H7.52307V14.1384C7.52307 12.8829 7.93732 11.8811 8.76425 11.1327C9.61497 10.3845 10.6371 10.0096 11.8291 10.0096C13.1433 10.0096 14.1035 10.3483 14.7114 11.024C15.3193 11.6999 15.6241 12.5931 15.6241 13.7037V24.6047H19.2365V14.1384C19.2365 12.8829 19.6507 11.8811 20.4777 11.1327C21.3284 10.3593 22.3506 9.9734 23.5425 9.9734C24.8566 9.9734 25.8042 10.312 26.3883 10.9878C26.9962 11.6637 27.301 12.5694 27.301 13.7037V24.6015H30.9133V13.0861C30.9133 11.7345 30.6451 10.5988 30.1102 9.68191C29.5991 8.74147 28.8707 8.04046 27.9215 7.58205C26.9724 7.09844 25.8534 6.85742 24.5646 6.85742C23.5917 6.85742 22.6553 7.02597 21.7554 7.36467C20.8554 7.67972 20.065 8.16176 19.3841 8.81394C19.0399 9.15546 18.7494 9.53975 18.5122 9.967C18.3509 9.63798 18.1549 9.32612 17.9238 9.03132C17.4127 8.35553 16.7319 7.82464 15.8812 7.4387C15.0305 7.05276 14.021 6.859 12.8529 6.859C11.9291 6.859 11.053 7.01652 10.226 7.33C9.42451 7.61986 8.71821 8.05464 8.11033 8.63435Z" fill="white"/>
</svg>
