<svg width="32" height="32" viewBox="0 0 32 32" fill="none" xmlns="http://www.w3.org/2000/svg">
<path fill-rule="evenodd" clip-rule="evenodd" d="M31.5197 5.15109C21.1089 5.15109 10.6984 5.15109 0.287676 5.15109C0.287676 12.4044 0.287676 19.6578 0.287676 26.9111C0.0321883 19.6163 -0.0530597 12.2777 0.0316763 4.89509C10.5712 4.81009 21.0672 4.89545 31.5197 5.15109Z" fill="#707070"/>
<path fill-rule="evenodd" clip-rule="evenodd" d="M31.5191 5.15234C31.5191 12.4057 31.5191 19.659 31.5191 26.9123C21.1084 26.9123 10.6979 26.9123 0.287109 26.9123C0.287109 19.659 0.287109 12.4057 0.287109 5.15234C10.6979 5.15234 21.1084 5.15234 31.5191 5.15234Z" fill="black"/>
<path fill-rule="evenodd" clip-rule="evenodd" d="M8.73537 8.73542C9.03617 8.67936 9.29217 8.76468 9.50337 8.99142C11.3957 13.3738 13.3585 17.7258 15.3914 22.0474C14.5381 22.3887 13.6846 22.3887 12.8314 22.0474C12.4046 21.0234 11.9781 19.9994 11.5514 18.9754C9.67413 18.6341 7.79662 18.6341 5.91937 18.9754C5.56046 20.0094 5.17646 21.0334 4.76737 22.0474C4.33243 22.2794 3.86293 22.3647 3.35938 22.3034C5.10069 17.7622 6.89269 13.2396 8.73537 8.73542Z" fill="#F2F2F2"/>
<path fill-rule="evenodd" clip-rule="evenodd" d="M23.8386 8.99219C27.5591 9.69232 28.6258 11.7403 27.0386 15.1362C26.374 15.6607 25.6488 16.0873 24.8626 16.4162C26.1744 18.3142 27.4544 20.2342 28.7026 22.1762C27.8494 22.3469 26.9959 22.3469 26.1426 22.1762C24.9479 20.3842 23.7534 18.5922 22.5586 16.8002C22.0535 16.6733 21.5415 16.6307 21.0226 16.6722C20.7689 18.4164 20.6834 20.2084 20.7666 22.0482C20.1694 22.0482 19.5719 22.0482 18.9746 22.0482C18.9746 17.6962 18.9746 13.3442 18.9746 8.99219C20.5959 8.99219 22.2174 8.99219 23.8386 8.99219Z" fill="#F5F5F5"/>
<path fill-rule="evenodd" clip-rule="evenodd" d="M23.8387 8.99174C22.2175 8.99174 20.596 8.99174 18.9747 8.99174C18.9747 13.3437 18.9747 17.6957 18.9747 22.0477C19.572 22.0477 20.1695 22.0477 20.7667 22.0477C20.6835 20.208 20.7691 18.416 21.0227 16.6717C21.0227 18.5491 21.0227 20.4264 21.0227 22.3037C20.2547 22.3037 19.4867 22.3037 18.7188 22.3037C18.7188 17.7811 18.7188 13.2584 18.7188 8.73574C20.4734 8.6528 22.1801 8.73812 23.8387 8.99174Z" fill="#B2B2B2"/>
<path fill-rule="evenodd" clip-rule="evenodd" d="M21.0234 9.50391C22.2727 9.59573 23.4675 9.89441 24.6074 10.3999C26.3628 14.0945 25.1681 15.9292 21.0234 15.9039C21.0234 13.7706 21.0234 11.6372 21.0234 9.50391Z" fill="#020202"/>
<path fill-rule="evenodd" clip-rule="evenodd" d="M8.22364 12.0648C8.47887 12.0571 8.64962 12.1851 8.73564 12.4488C9.46857 14.2131 10.2366 15.9625 11.0396 17.6968C9.51311 17.9517 7.97711 18.0371 6.43164 17.9528C6.9782 15.9719 7.57545 14.0093 8.22364 12.0648Z" fill="#090909"/>
</svg>
