<svg width="32" height="32" viewBox="0 0 32 32" fill="none" xmlns="http://www.w3.org/2000/svg">
<g clip-path="url(#clip0_77_1743)">
<path fill-rule="evenodd" clip-rule="evenodd" d="M9.51094 7.02256C11.724 6.71673 13.7388 7.19081 15.5554 8.44479C15.6146 8.62256 15.7332 8.74109 15.9109 8.80034C15.9612 8.94063 16.0501 9.05915 16.1776 9.1559C16.5402 8.82342 16.8661 8.46786 17.1554 8.08923C17.8734 7.73023 18.5845 7.37467 19.2887 7.02256C23.0948 6.53943 25.7909 8.02091 27.3776 11.467C27.6354 15.7259 27.7243 19.9925 27.6443 24.267C27.4665 24.267 27.2887 24.267 27.1109 24.267C27.0517 24.267 26.9924 24.267 26.9332 24.267C26.1035 24.267 25.274 24.267 24.4443 24.267C24.474 20.5331 24.4443 16.7999 24.3554 13.067C24.1554 12.1313 23.6517 11.4202 22.8443 10.9337C22.4882 10.4924 22.0142 10.3147 21.422 10.4003C20.9836 10.1987 20.5095 10.1691 19.9998 10.3115C19.7435 10.3784 19.5657 10.5266 19.4665 10.7559C18.7438 11.064 18.2697 11.5973 18.0443 12.3559C17.8782 12.5457 17.8188 12.7827 17.8665 13.067C17.6892 16.7103 17.63 20.3843 17.6887 24.0892C16.6813 24.0892 15.6739 24.0892 14.6665 24.0892C14.7252 20.4435 14.666 16.8287 14.4887 13.2448C14.3441 11.7676 13.5738 10.7898 12.1776 10.3115C11.6093 10.1684 11.076 10.1981 10.5776 10.4003C10.1868 10.3328 9.89056 10.4513 9.68872 10.7559C9.28893 10.859 8.99264 11.096 8.79983 11.467C8.31864 11.9553 8.02233 12.5479 7.91094 13.2448C7.73366 16.8287 7.6744 20.4435 7.73316 24.0892C6.72575 24.0892 5.71835 24.0892 4.71094 24.0892C4.71094 20.4151 4.71094 16.7411 4.71094 13.067C4.71094 12.83 4.71094 12.5929 4.71094 12.3559C4.83561 11.7367 5.01339 11.1441 5.24427 10.5781C5.76459 9.8195 6.3572 9.10839 7.02205 8.44479C7.80578 7.87559 8.6354 7.40151 9.51094 7.02256Z" fill="#B1347F"/>
<path fill-rule="evenodd" clip-rule="evenodd" d="M17.1556 8.08887C16.8663 8.4675 16.5404 8.82305 16.1778 9.15553C16.0503 9.05879 15.9614 8.94026 15.9111 8.79998C16.1922 8.34348 16.607 8.10645 17.1556 8.08887Z" fill="#B8AEB4"/>
<path fill-rule="evenodd" clip-rule="evenodd" d="M10.5774 10.4002C10.9378 10.3714 11.2933 10.401 11.644 10.4891C11.8673 10.5632 11.9858 10.7114 11.9996 10.9336C11.2355 10.8092 10.4652 10.7499 9.68848 10.7558C9.89033 10.4512 10.1866 10.3327 10.5774 10.4002Z" fill="#7E7C7D"/>
<path fill-rule="evenodd" clip-rule="evenodd" d="M21.4224 10.3999C21.8339 10.5762 22.1303 10.8725 22.3112 11.2888C22.1927 11.2888 22.0743 11.2888 21.9557 11.2888C21.7187 11.2296 21.4816 11.1703 21.2446 11.111C20.7402 10.7728 20.1475 10.6543 19.4668 10.7555C19.566 10.5262 19.7438 10.378 20.0001 10.311C20.5098 10.1687 20.984 10.1983 21.4224 10.3999Z" fill="#7F767B"/>
<path fill-rule="evenodd" clip-rule="evenodd" d="M10.5781 10.4004C11.0765 10.1981 11.6099 10.1685 12.1781 10.3115C13.5743 10.7898 14.3446 11.7676 14.4892 13.2448C14.4892 16.9189 14.4892 20.5929 14.4892 24.2671C15.2003 24.2671 15.9115 24.2671 16.6226 24.2671C15.8279 24.4424 14.9983 24.5016 14.1337 24.4448C14.019 20.6296 13.9004 16.8369 13.7781 13.0671C13.7111 12.7545 13.5926 12.4583 13.4226 12.1782C12.9325 11.7451 12.4584 11.3303 12.0003 10.9337C11.9866 10.7115 11.8681 10.5634 11.6448 10.4893C11.2941 10.4012 10.9385 10.3716 10.5781 10.4004Z" fill="#5D5559"/>
<path fill-rule="evenodd" clip-rule="evenodd" d="M17.867 13.0664C17.867 16.7997 17.867 20.5331 17.867 24.2664C17.63 24.2664 17.393 24.2664 17.1559 24.2664C17.0967 24.2664 17.0374 24.2664 16.9781 24.2664C16.8596 24.2664 16.7411 24.2664 16.6226 24.2664C15.9115 24.2664 15.2004 24.2664 14.4893 24.2664C14.4893 20.5923 14.4893 16.9183 14.4893 13.2442C14.6665 16.8281 14.7258 20.4429 14.667 24.0886C15.6744 24.0886 16.6818 24.0886 17.6893 24.0886C17.6305 20.3837 17.6898 16.7097 17.867 13.0664Z" fill="#B04F88"/>
<path fill-rule="evenodd" clip-rule="evenodd" d="M5.24481 10.5775C5.01393 11.1435 4.83615 11.7361 4.71148 12.3553C4.57496 12.4909 4.48607 12.6686 4.44481 12.8886C4.29738 16.6523 4.327 20.3857 4.5337 24.0886C5.32836 24.2639 6.158 24.3231 7.02259 24.2664C6.65448 24.4991 6.21004 24.6175 5.68925 24.622C5.07203 24.6645 4.50906 24.5461 4.00036 24.2664C3.97075 20.5326 4.00036 16.7993 4.08925 13.0664C4.36221 12.3068 4.59926 11.5364 4.80036 10.7553C4.91962 10.6216 5.06776 10.5623 5.24481 10.5775Z" fill="#6C6B6C"/>
<path fill-rule="evenodd" clip-rule="evenodd" d="M4.71128 12.3555C4.71128 12.5925 4.71128 12.8295 4.71128 13.0666C4.534 16.7098 4.47475 20.3839 4.5335 24.0888C4.3268 20.3859 4.29718 16.6525 4.44461 12.8888C4.48587 12.6688 4.57476 12.491 4.71128 12.3555Z" fill="#4D4B4C"/>
<path fill-rule="evenodd" clip-rule="evenodd" d="M4.71144 13.0664C4.71144 16.7405 4.71144 20.4145 4.71144 24.0886C5.71885 24.0886 6.72625 24.0886 7.73366 24.0886C7.6749 20.4429 7.73416 16.8281 7.91144 13.2442C7.91144 16.9183 7.91144 20.5923 7.91144 24.2664C7.73366 24.2664 7.55588 24.2664 7.3781 24.2664C7.25958 24.2664 7.14107 24.2664 7.02255 24.2664C6.15796 24.3231 5.32833 24.2639 4.53366 24.0886C4.4749 20.3837 4.53416 16.7097 4.71144 13.0664Z" fill="#A4467E"/>
<path fill-rule="evenodd" clip-rule="evenodd" d="M3.8218 13.2441C3.76304 16.949 3.8223 20.6232 3.99958 24.2664C4.50827 24.546 5.07124 24.6644 5.68846 24.6219C6.20925 24.6175 6.65369 24.4991 7.0218 24.2664C7.14032 24.2664 7.25883 24.2664 7.37735 24.2664C7.37735 24.4441 7.37735 24.6219 7.37735 24.7997C6.31723 24.9828 5.25056 25.0125 4.17735 24.8886C4.02208 24.7028 3.8443 24.5547 3.64402 24.4441C3.58525 20.6801 3.6445 16.9467 3.8218 13.2441Z" fill="#C2C2C2"/>
<path fill-rule="evenodd" clip-rule="evenodd" d="M9.68869 10.7553C10.4654 10.7494 11.2358 10.8087 11.9998 10.9331C12.4578 11.3296 12.9319 11.7444 13.422 12.1775C13.5921 12.4576 13.7106 12.7539 13.7776 13.0664C13.7776 16.7997 13.7776 20.5331 13.7776 24.2664C13.6297 20.5635 13.5408 16.8301 13.5109 13.0664C13.3702 12.603 13.1035 12.2475 12.7109 11.9997C12.6304 11.8293 12.5119 11.6812 12.3554 11.5553C11.1756 11.0219 9.99036 10.9923 8.7998 11.4664C8.99262 11.0954 9.28891 10.8584 9.68869 10.7553Z" fill="#B8B7B7"/>
<path fill-rule="evenodd" clip-rule="evenodd" d="M13.7773 13.0664C13.8997 16.8363 14.0182 20.6289 14.1329 24.4442C14.0144 24.385 13.8959 24.3256 13.7773 24.2664C13.7773 20.5331 13.7773 16.7997 13.7773 13.0664Z" fill="#8C8C8C"/>
<path fill-rule="evenodd" clip-rule="evenodd" d="M7.02174 8.44434C6.35689 9.10794 5.76429 9.81906 5.24397 10.5777C5.06692 10.5624 4.91878 10.6217 4.79952 10.7554C4.59842 11.5366 4.36137 12.3069 4.08841 13.0666C3.99952 16.7994 3.9699 20.5327 3.99952 24.2666C3.82224 20.6234 3.76299 16.9492 3.82174 13.2443C4.10626 12.3611 4.37293 11.4722 4.62174 10.5777C5.24512 9.62608 6.04512 8.91497 7.02174 8.44434Z" fill="#A4A2A2"/>
<path fill-rule="evenodd" clip-rule="evenodd" d="M12.7109 12C13.1035 12.2478 13.3702 12.6033 13.5109 13.0667C13.5408 16.8303 13.6297 20.5637 13.7776 24.2667C13.8961 24.3259 14.0146 24.3852 14.1332 24.4444C14.9893 24.6489 15.8782 24.6784 16.7998 24.5333C16.8987 24.4652 16.9579 24.3764 16.9776 24.2667C17.0369 24.2667 17.0961 24.2667 17.1554 24.2667C17.1535 24.5364 17.035 24.7438 16.7998 24.8889C15.8517 25.0075 14.9035 25.0075 13.9554 24.8889C13.862 24.7659 13.7435 24.677 13.5998 24.6222C13.4517 20.8903 13.3628 17.157 13.3332 13.4222C13.1406 12.9304 12.9332 12.4563 12.7109 12Z" fill="#D0D0D0"/>
<path fill-rule="evenodd" clip-rule="evenodd" d="M23.2002 12.1777C23.5222 12.5129 23.7296 12.9277 23.8224 13.4222C23.9113 17.0365 23.941 20.6513 23.9113 24.2666C23.7927 20.7111 23.6743 17.1555 23.5558 13.6C23.4734 13.1162 23.355 12.6421 23.2002 12.1777Z" fill="#828182"/>
<path fill-rule="evenodd" clip-rule="evenodd" d="M21.9551 11.2891C22.0737 11.2891 22.1921 11.2891 22.3106 11.2891C22.5476 11.6446 22.844 11.9409 23.1995 12.178C23.3544 12.6424 23.4728 13.1164 23.5551 13.6002C23.5551 17.1557 23.5551 20.7113 23.5551 24.2668C23.4072 20.6231 23.3183 16.949 23.2884 13.2446C23.1352 12.9625 23.0166 12.6662 22.9329 12.3557C22.5183 12.053 22.1924 11.6974 21.9551 11.2891Z" fill="#C7C7C7"/>
<path fill-rule="evenodd" clip-rule="evenodd" d="M23.5552 13.5996C23.6738 17.1552 23.7922 20.7107 23.9108 24.2663C24.3095 24.4995 24.7837 24.6179 25.333 24.6218C25.8071 24.5921 26.2811 24.5626 26.7552 24.5329C26.8541 24.4649 26.9133 24.376 26.933 24.2663C26.9922 24.2663 27.0516 24.2663 27.1108 24.2663C27.1088 24.536 26.9904 24.7434 26.7552 24.8885C25.7495 24.9772 24.7421 25.0069 23.733 24.9774C23.6025 24.7626 23.5433 24.5257 23.5552 24.2663C23.5552 20.7107 23.5552 17.1552 23.5552 13.5996Z" fill="#B0AFAF"/>
<path fill-rule="evenodd" clip-rule="evenodd" d="M22.8447 10.9336C23.6522 11.4201 24.1558 12.1312 24.3558 13.0669C24.4447 16.7998 24.4744 20.5331 24.4447 24.2669C24.1203 20.5971 23.9722 16.8638 24.0003 13.0669C23.6584 12.3234 23.2733 11.6123 22.8447 10.9336Z" fill="#594A52"/>
<path fill-rule="evenodd" clip-rule="evenodd" d="M21.4219 10.3998C22.0141 10.3141 22.488 10.4919 22.8441 10.9331C23.2727 11.6119 23.6578 12.323 23.9997 13.0665C23.9716 16.8633 24.1197 20.5966 24.4441 24.2665C25.2738 24.2665 26.1033 24.2665 26.933 24.2665C26.9133 24.3762 26.8541 24.465 26.7552 24.5331C26.2811 24.5628 25.8071 24.5923 25.333 24.622C24.7837 24.6181 24.3095 24.4997 23.9108 24.2665C23.9405 20.6512 23.9108 17.0364 23.8219 13.422C23.7291 12.9276 23.5216 12.5128 23.1997 12.1776C22.8441 11.9405 22.5477 11.6442 22.3108 11.2887C22.1298 10.8724 21.8334 10.5761 21.4219 10.3998Z" fill="#676566"/>
<path fill-rule="evenodd" clip-rule="evenodd" d="M16.6227 24.2666C16.7412 24.2666 16.8597 24.2666 16.9782 24.2666C16.9586 24.3763 16.8993 24.4652 16.8005 24.5333C15.8788 24.6783 14.9899 24.6488 14.1338 24.4444C14.9984 24.5011 15.828 24.4419 16.6227 24.2666Z" fill="#828182"/>
</g>
<defs>
<clipPath id="clip0_77_1743">
<rect width="32" height="32" fill="white"/>
</clipPath>
</defs>
</svg>
