<svg width="32" height="32" viewBox="0 0 32 32" fill="none" xmlns="http://www.w3.org/2000/svg">
<g clip-path="url(#clip0_5917_2)">
<path d="M32 16C32 7.51691 24.8366 0.639999 16 0.639999C7.16344 0.639999 0 7.51691 0 16C0 24.4831 7.16344 31.36 16 31.36C24.8366 31.36 32 24.4831 32 16Z" fill="#F3F3F3"/>
<path d="M17.1795 13.9764C16.0875 13.9764 15.2021 13.1197 15.2021 12.0629C15.2021 11.0061 16.0875 10.1494 17.1795 10.1494H21.1339C22.2259 10.1494 23.1112 11.0061 23.1112 12.0629C23.1112 13.1197 22.2259 13.9764 21.1339 13.9764H17.1795Z" fill="#1B66D6"/>
<path d="M15.3313 18.5554C15.3313 20.0396 14.0881 21.2428 12.5546 21.2428C11.021 21.2428 9.77783 20.0396 9.77783 18.5554C9.77783 17.0714 11.021 15.8682 12.5546 15.8682C14.0881 15.8682 15.3313 17.0714 15.3313 18.5554Z" fill="#1B66D6"/>
<path d="M13.0174 12.0154C13.0174 12.8812 12.2922 13.583 11.3976 13.583C10.503 13.583 9.77783 12.8812 9.77783 12.0154C9.77783 11.1497 10.503 10.4479 11.3976 10.4479C12.2922 10.4479 13.0174 11.1497 13.0174 12.0154Z" fill="#1B66D6"/>
<path d="M20.7557 18.4809C20.7557 19.3466 20.0305 20.0484 19.136 20.0484C18.2413 20.0484 17.5161 19.3466 17.5161 18.4809C17.5161 17.6151 18.2413 16.9133 19.136 16.9133C20.0305 16.9133 20.7557 17.6151 20.7557 18.4809Z" fill="#1B66D6"/>
</g>
<defs>
<clipPath id="clip0_5917_2">
<rect width="32" height="32" fill="white"/>
</clipPath>
</defs>
</svg>
