<svg width="32" height="32" viewBox="0 0 32 32" fill="none" xmlns="http://www.w3.org/2000/svg">
<path opacity="0.905" fill-rule="evenodd" clip-rule="evenodd" d="M16.4325 0C17.0091 0 17.5856 0 18.1622 0C18.1622 6.66666 18.1622 13.3334 18.1622 20C17.5101 23.9708 17.2217 27.9708 17.2973 32C11.5315 32 5.7658 32 0 32C5.4772 21.3338 10.9547 10.6672 16.4325 0Z" fill="#4F47E2"/>
<path opacity="0.915" fill-rule="evenodd" clip-rule="evenodd" d="M17.2979 31.9994C17.2223 27.9702 17.5107 23.9702 18.1628 19.9994C19.4657 16.9172 20.6188 13.7172 21.6222 10.3994C22.4871 10.3994 23.352 10.3994 24.2168 10.3994C26.5639 17.675 29.1585 24.875 32.0006 31.9994C27.0997 31.9994 22.1988 31.9994 17.2979 31.9994Z" fill="#040A1A"/>
</svg>
