<svg width="32" height="32" viewBox="0 0 33 33" fill="none" xmlns="http://www.w3.org/2000/svg">
    <path opacity="0.979" fill-rule="evenodd" clip-rule="evenodd"
        d="M14.3217 0.450479C14.449 0.429551 14.5728 0.451812 14.6927 0.51713C15.1899 1.41065 15.7929 2.09929 16.5016 2.5833C17.1844 1.93706 17.8337 1.22616 18.4497 0.450479C18.6243 0.529527 18.717 0.707351 18.728 0.983685C18.7743 1.51503 18.7898 2.04823 18.7744 2.5833C19.662 2.201 20.4815 1.6234 21.2326 0.850384C21.3203 0.904371 21.3822 0.993283 21.4181 1.11699C21.4451 1.75524 21.4606 2.37735 21.4645 2.98321C22.381 2.44774 23.2777 1.84788 24.1547 1.18364C25.3479 0.352369 26.5229 0.396892 27.6797 1.31694C28.7782 2.80912 29.1028 4.60869 28.6538 6.71566C28.3529 7.89031 28.0283 9.0455 27.6797 10.1815C28.7181 10.4882 29.7694 10.6437 30.8337 10.6481C30.6768 12.123 30.0893 13.1451 29.0712 13.714C29.7937 14.1664 30.5049 14.6552 31.2048 15.1803C31.5069 15.3193 31.8161 15.386 32.1324 15.3803C32.0631 16.0834 31.8157 16.6389 31.3903 17.0465C30.9605 17.412 30.4967 17.6343 29.9989 17.713C30.2877 18.1209 30.5196 18.5875 30.6946 19.1127C30.8801 20.3568 31.0656 21.601 31.2512 22.8452C31.5271 23.575 31.9137 24.1526 32.4107 24.5781C32.5112 24.6934 32.5266 24.8267 32.4571 24.978C31.3849 26.1786 30.2254 26.3563 28.9784 25.5112C28.912 27.601 28.3554 29.3561 27.3087 30.7766C26.9021 30.7755 26.5002 30.6868 26.1028 30.51C25.3297 30.4211 24.5566 30.4211 23.7836 30.51C21.9435 30.9823 20.1191 31.5599 18.3105 32.2429C17.1046 32.5095 15.8987 32.5095 14.6927 32.2429C12.8567 31.539 11.0015 30.9612 9.12687 30.51C8.35386 30.4211 7.58076 30.4211 6.80776 30.51C6.44561 30.7141 6.07455 30.803 5.69459 30.7766C4.62343 29.3587 4.05145 27.6036 3.97844 25.5112C2.77817 26.3167 1.6341 26.1834 0.546161 25.1113C0.484287 24.9336 0.484287 24.7558 0.546161 24.5781C1.10813 24.1704 1.51008 23.5483 1.7521 22.7119C1.91778 21.4607 2.1033 20.2164 2.30868 18.9794C2.46991 18.4807 2.70182 18.0586 3.00442 17.713C2.09041 17.602 1.39468 17.0021 0.917219 15.9135C0.871764 15.7411 0.856273 15.5633 0.870837 15.3803C1.25924 15.3943 1.6303 15.2832 1.98401 15.047C2.60423 14.598 3.22269 14.1538 3.8393 13.714C2.88763 13.0877 2.30006 12.0435 2.07677 10.5814C2.94635 10.6122 3.81221 10.5455 4.67418 10.3815C4.92251 10.3483 5.13893 10.215 5.32353 9.98155C4.39189 8.01215 4.03633 5.85706 4.25674 3.51642C4.9418 1.0666 6.19412 0.155616 8.0137 0.783733C9.1995 1.48023 10.3745 2.21339 11.5387 2.98321C11.5172 2.3063 11.5481 1.61767 11.6315 0.917035C11.7243 0.828122 11.817 0.828122 11.9098 0.917035C12.5661 1.61527 13.2772 2.1706 14.0434 2.5833C14.1227 1.86708 14.2155 1.15604 14.3217 0.450479Z"
        fill="#3A0069" />
    <path fill-rule="evenodd" clip-rule="evenodd"
        d="M15.0638 10.1814C13.0523 9.29766 11.228 9.8086 9.59069 11.7144C8.31166 13.3989 6.92019 14.8431 5.4163 16.0467C5.49756 16.1468 5.59032 16.2135 5.69459 16.2467C6.19208 16.388 6.6868 16.5435 7.17882 16.7132C6.65656 17.2224 6.13095 17.7335 5.60182 18.2462C5.2099 18.7423 4.86973 19.2977 4.58142 19.9125C4.6278 19.9569 4.67418 20.0014 4.72056 20.0458C5.34821 19.5651 6.01296 19.4097 6.715 19.5792C6.25164 20.4858 6.06611 21.4856 6.15841 22.5785C6.58949 21.8915 7.11518 21.4472 7.73541 21.2455C7.95795 21.4318 8.11259 21.6984 8.19923 22.0453C7.68439 23.8939 7.32873 25.8045 7.13244 27.7773C6.94607 27.0961 6.86871 26.3852 6.90053 25.6444C6.8675 24.6825 6.96027 23.7494 7.17882 22.8451C6.77613 22.9692 6.45145 23.2802 6.20479 23.7782C5.97984 24.2913 5.77882 24.8245 5.60182 25.3778C5.28949 23.6858 5.38225 22.0417 5.88012 20.4457C5.76667 20.2972 5.64301 20.2749 5.50906 20.379C4.73318 20.9386 4.08383 21.7162 3.56101 22.7118C3.46175 21.4278 3.69366 20.2725 4.25674 19.246C4.78949 18.4132 5.36147 17.6578 5.97288 16.9798C5.25823 16.9594 4.57798 16.7372 3.93207 16.3133C3.83735 16.2464 3.82186 16.1576 3.88568 16.0467C5.19088 15.4761 6.28856 14.4542 7.17882 12.9808C6.69162 12.8067 6.19682 12.6956 5.69459 12.6475C4.33578 12.2661 4.36676 11.9995 5.78735 11.8477C6.33383 11.6328 6.82863 11.2773 7.27158 10.7813C6.30006 8.96667 5.71259 6.92262 5.50906 4.64943C5.60349 3.20324 6.16008 2.47008 7.17882 2.44995C7.86054 2.5322 8.479 2.86545 9.03411 3.44971C9.84682 4.17794 10.6353 4.95549 11.3996 5.78249C11.6016 6.20679 11.7098 6.67335 11.7243 7.18216C11.6718 7.7099 11.579 8.22085 11.446 8.71513C12.3002 8.73459 12.9651 8.24591 13.4404 7.24881C13.6238 7.86546 13.8093 8.48758 13.997 9.11503C14.049 9.18462 14.1109 9.22901 14.1825 9.24833C15.4763 8.06342 16.8523 7.10804 18.3105 6.38235C18.5541 6.24971 18.8015 6.20532 19.0527 6.24905C17.6854 7.49662 16.3558 8.80737 15.0638 10.1814Z"
        fill="#A704FB" />
    <path fill-rule="evenodd" clip-rule="evenodd"
        d="M9.77622 22.4453C11.5221 27.8097 14.4287 29.8759 18.4961 28.6438C20.772 27.7062 22.3181 25.64 23.1343 22.4453C23.9883 22.5403 24.6995 22.1404 25.2679 21.2456C25.885 21.4658 26.4106 21.9101 26.8449 22.5786C26.9079 21.5154 26.7223 20.5379 26.2883 19.6459C26.5929 19.4917 26.9022 19.4694 27.2159 19.5793C27.617 19.7727 28.0191 19.906 28.4219 19.9792C27.7113 18.5809 26.8145 17.4923 25.7317 16.7133C26.3585 16.5325 26.977 16.3103 27.587 16.0468C26.9564 15.5713 26.338 15.0604 25.7317 14.5138C24.7901 13.371 23.8315 12.2601 22.856 11.1813C21.1289 9.66711 19.3045 9.37824 17.3829 10.3148C17.5682 9.71336 17.8464 9.20242 18.2178 8.78185C18.6439 8.30916 19.0923 7.88713 19.5629 7.51548C20.1142 8.30023 20.779 8.70014 21.5573 8.7152C21.0595 7.35672 21.2141 6.17927 22.0211 5.18271C23.0419 4.2268 24.0933 3.33808 25.1751 2.51667C26.946 2.17302 27.6726 3.2617 27.3551 5.78256C27.0168 7.57947 26.4756 9.22361 25.7317 10.7147C26.0273 11.2063 26.3984 11.5396 26.8449 11.7145C27.3001 11.924 27.7639 12.0795 28.2363 12.181C27.9554 12.4495 27.6461 12.6049 27.3087 12.6476C26.8149 12.7141 26.3202 12.7364 25.8245 12.7142C25.8106 12.8545 25.826 12.9878 25.8708 13.1142C26.763 14.5669 27.8606 15.5666 29.164 16.1134C28.5175 16.7117 27.8063 17.0004 27.0304 16.9799C27.8028 17.801 28.4676 18.7785 29.0248 19.9125C29.3972 20.7782 29.5209 21.7113 29.3959 22.7119C28.825 21.5363 28.0675 20.7365 27.1232 20.3124C27.2897 21.0085 27.4288 21.7194 27.5406 22.4453C27.6025 23.2451 27.6025 24.0449 27.5406 24.8447C27.4787 25.0224 27.4169 25.2002 27.3551 25.3779C27.1075 24.3132 26.6592 23.4913 26.01 22.9118C25.9047 22.812 25.8119 22.8341 25.7317 22.9785C26.1926 24.6939 26.2234 26.4269 25.8245 28.1772C24.9537 28.1363 24.0879 28.1808 23.2271 28.3105C23.2154 27.565 23.2 26.8097 23.1807 26.0444C23.1423 25.9835 23.0959 25.939 23.0415 25.9111C21.0048 29.1021 18.4693 30.5018 15.4348 30.1101C13.2591 29.7691 11.4656 28.4138 10.0545 26.0444C9.97798 25.9263 9.88522 25.8819 9.77622 25.9111C9.6432 26.7239 9.67418 27.5237 9.86899 28.3105C9.32761 28.2748 8.80192 28.1636 8.29199 27.9773C8.42743 26.4205 8.65934 24.8875 8.98773 23.3784C9.04598 22.6939 9.30878 22.3829 9.77622 22.4453Z"
        fill="#A805FC" />
    <path fill-rule="evenodd" clip-rule="evenodd"
        d="M6.99323 3.91633C7.38302 3.90087 7.75408 4.01191 8.1064 4.24959C8.9346 4.94396 9.66122 5.81042 10.2864 6.84897C10.3453 7.13357 10.3143 7.40017 10.1936 7.64878C9.73358 8.44392 9.19248 9.08817 8.57022 9.58165C8.2922 9.6823 8.06029 9.57126 7.87449 9.2484C7.23228 8.01349 6.81484 6.63609 6.62217 5.11605C6.57439 4.58817 6.69805 4.18827 6.99323 3.91633Z"
        fill="#3B0069" />
    <path fill-rule="evenodd" clip-rule="evenodd"
        d="M25.2678 3.91633C26.1223 3.78863 26.4779 4.32184 26.3346 5.51595C26.0708 6.96281 25.6225 8.2737 24.9895 9.44835C24.7078 9.69496 24.4295 9.69496 24.1547 9.44835C23.6058 8.90981 23.1265 8.26557 22.7168 7.51548C22.6549 7.24887 22.6549 6.98227 22.7168 6.71567C23.4984 5.63432 24.3487 4.70121 25.2678 3.91633Z"
        fill="#3B0069" />
    <path fill-rule="evenodd" clip-rule="evenodd"
        d="M15.0638 10.1815C14.8486 10.5702 14.5857 10.8813 14.2753 11.1146C13.2393 10.5295 12.2343 10.6406 11.2605 11.4479C9.18792 12.9136 7.87381 15.2464 7.31797 18.4462C7.23727 19.4485 7.37641 20.3816 7.73541 21.2455C7.11519 21.4472 6.58949 21.8915 6.15842 22.5785C6.06611 21.4856 6.25164 20.4858 6.715 19.5793C6.01296 19.4097 5.34821 19.5651 4.72057 20.0458C4.67419 20.0014 4.6278 19.9569 4.58142 19.9125C4.86973 19.2977 5.2099 18.7424 5.60183 18.2462C6.13096 17.7336 6.65656 17.2225 7.17882 16.7133C6.6868 16.5436 6.19209 16.388 5.69459 16.2467C5.59033 16.2135 5.49756 16.1469 5.4163 16.0468C6.9202 14.8432 8.31166 13.399 9.5907 11.7145C11.228 9.80864 13.0523 9.2977 15.0638 10.1815Z"
        fill="#CDF0FD" />
    <path fill-rule="evenodd" clip-rule="evenodd"
        d="M25.2679 21.2455C25.7104 19.8591 25.7567 18.4372 25.407 16.9799C24.2852 13.4978 22.4144 11.4094 19.7948 10.7147C17.7105 11.239 17.0456 12.9275 17.8003 15.7802C18.0323 16.1134 18.2642 16.4467 18.4961 16.7799C19.0854 17.2922 19.642 17.87 20.1658 18.5129C20.7794 18.228 21.3669 17.8281 21.9284 17.3132C22.0483 17.2478 22.1721 17.2256 22.2994 17.2465C22.3183 17.4984 22.2565 17.6984 22.1139 17.8464C21.573 18.2571 21.0473 18.7015 20.5369 19.1794C20.5924 19.4524 20.716 19.6079 20.908 19.6459C21.6312 19.2252 22.3734 18.9142 23.1343 18.7128C23.1501 18.889 23.1192 19.0446 23.0415 19.1794C22.3706 19.5659 21.7212 19.9881 21.0935 20.4457C21.1909 20.7621 21.3609 20.8954 21.6037 20.8456C22.2298 20.6104 22.8638 20.4992 23.5054 20.5124C23.629 20.6457 23.629 20.779 23.5054 20.9123C22.958 21.147 22.4015 21.3249 21.8356 21.4455C21.7932 21.5007 21.7622 21.5673 21.7428 21.6455C22.1358 22.1724 22.5996 22.439 23.1343 22.4453C22.3181 25.64 20.772 27.7061 18.4961 28.6438C14.4287 29.8759 11.5221 27.8097 9.77623 22.4453C10.2747 22.4213 10.723 22.1992 11.1213 21.7788C11.1661 21.6524 11.1815 21.5191 11.1677 21.3789C10.5714 21.3363 9.99933 21.1585 9.45155 20.8456C9.40675 20.7193 9.39135 20.586 9.40517 20.4457C10.0881 20.5353 10.7683 20.6686 11.446 20.8456C11.6429 20.883 11.7666 20.7719 11.817 20.5124C11.7874 20.292 11.6946 20.1587 11.5388 20.1125C10.9748 19.8276 10.4182 19.5165 9.86899 19.1794C9.79135 19.0446 9.76046 18.889 9.77623 18.7128C10.4702 18.9178 11.1504 19.2067 11.817 19.5793C12.0747 19.7023 12.2603 19.5911 12.3736 19.246C12.3294 19.1157 12.2676 19.0046 12.1881 18.9128C11.6696 18.5663 11.1748 18.1664 10.7039 17.7131C10.6262 17.5783 10.5953 17.4227 10.6111 17.2465C11.3029 17.5211 11.9522 17.9433 12.5592 18.5129C12.6519 18.6018 12.7447 18.6018 12.8375 18.5129C13.3895 17.7167 14.008 17.0501 14.6927 16.5133C15.2197 15.8424 15.498 14.9982 15.5276 13.9806C15.4283 13.3338 15.3509 12.6895 15.2957 12.0477C15.4839 11.8131 15.6849 11.6576 15.8987 11.5812C15.9905 12.0823 16.0678 12.5933 16.1306 13.1141C16.2983 13.3669 16.4993 13.4335 16.7336 13.3141C16.898 12.5094 17.0372 11.6873 17.151 10.848C17.2124 10.6502 17.2898 10.4725 17.3829 10.3148C19.3045 9.37824 21.1289 9.6671 22.856 11.1813C23.8315 12.2601 24.7901 13.371 25.7317 14.5138C26.338 15.0604 26.9564 15.5713 27.587 16.0468C26.977 16.3103 26.3585 16.5325 25.7317 16.7133C26.8145 17.4923 27.7113 18.5808 28.4219 19.9792C28.0191 19.906 27.617 19.7727 27.2159 19.5793C26.9022 19.4694 26.5929 19.4917 26.2883 19.6459C26.7223 20.5379 26.9079 21.5154 26.8449 22.5786C26.4106 21.9101 25.885 21.4658 25.2679 21.2455Z"
        fill="#CCF1FC" />
    <path fill-rule="evenodd" clip-rule="evenodd"
        d="M25.2679 21.2456C24.6995 22.1404 23.9883 22.5403 23.1343 22.4453C22.5996 22.439 22.1358 22.1724 21.7428 21.6455C21.7622 21.5673 21.7932 21.5007 21.8356 21.4455C22.4015 21.3249 22.958 21.147 23.5053 20.9123C23.629 20.779 23.629 20.6457 23.5053 20.5124C22.8638 20.4992 22.2298 20.6104 21.6037 20.8456C21.3609 20.8954 21.1909 20.7621 21.0935 20.4457C21.7212 19.9881 22.3706 19.566 23.0415 19.1794C23.1192 19.0446 23.1501 18.889 23.1343 18.7128C22.3733 18.9142 21.6312 19.2252 20.9079 19.6459C20.716 19.6079 20.5924 19.4524 20.5369 19.1794C21.0473 18.7015 21.573 18.2571 22.1139 17.8464C22.2565 17.6984 22.3182 17.4984 22.2994 17.2465C22.172 17.2256 22.0483 17.2478 21.9284 17.3132C21.3668 17.8281 20.7794 18.228 20.1658 18.5129C19.642 17.87 19.0854 17.2922 18.4961 16.7799C18.2642 16.4467 18.0322 16.1134 17.8003 15.7802C17.0456 12.9275 17.7104 11.239 19.7948 10.7147C22.4144 11.4094 24.2852 13.4978 25.407 16.9799C25.7567 18.4372 25.7104 19.8591 25.2679 21.2456Z"
        fill="#3C046A" />
    <path fill-rule="evenodd" clip-rule="evenodd"
        d="M19.6093 12.181C21.1221 12.2886 21.6013 13.355 21.0471 15.3803C20.8954 15.6999 20.6944 15.8555 20.4442 15.8468C20.7984 15.4949 20.953 15.0061 20.908 14.3805C20.9406 13.9835 20.8633 13.6503 20.6761 13.3807C20.5033 13.7072 20.2713 13.8405 19.9803 13.7806C19.6791 13.8365 19.4317 13.7032 19.2382 13.3807C18.9955 14.0831 18.9955 14.7941 19.2382 15.5136C19.2227 15.558 19.2073 15.6025 19.1919 15.6469C18.6332 14.8683 18.5405 13.9795 18.9136 12.9808C19.1097 12.6315 19.3416 12.3649 19.6093 12.181Z"
        fill="#F4F0F6" />
    <path fill-rule="evenodd" clip-rule="evenodd"
        d="M16.2697 15.1136C16.4522 15.0818 16.6223 15.1262 16.7799 15.2469C16.9049 16.1021 17.0595 16.9463 17.2437 17.7797C17.6636 18.447 18.1429 19.0024 18.6816 19.4459C19.3349 21.2588 18.9639 22.4585 17.5684 23.0451C16.4988 23.417 15.4784 23.2393 14.5072 22.5119C13.9032 21.6786 13.795 20.7232 14.1825 19.6459C14.6943 19.1001 15.189 18.5225 15.6667 17.913C15.9353 17.2582 16.059 16.5473 16.0378 15.7801C16.0717 15.5199 16.149 15.2978 16.2697 15.1136Z"
        fill="#3D066B" />
    <path fill-rule="evenodd" clip-rule="evenodd"
        d="M14.8783 20.1791C15.6558 20.3034 15.9341 20.9033 15.7132 21.9786C15.1933 21.9215 14.884 21.4993 14.7855 20.7123C14.8176 20.5325 14.8485 20.3546 14.8783 20.1791Z"
        fill="#C9EBF8" />
    <path fill-rule="evenodd" clip-rule="evenodd"
        d="M17.6612 20.1791C18.0984 20.1749 18.2375 20.4858 18.0786 21.1122C17.9664 21.6164 17.7345 21.9274 17.3829 22.0453C17.1275 21.8397 17.0501 21.5287 17.151 21.1122C17.3055 20.7795 17.4756 20.4685 17.6612 20.1791Z"
        fill="#C9EDF9" />
    <path fill-rule="evenodd" clip-rule="evenodd"
        d="M12.0953 22.9784C12.2227 22.9575 12.3464 22.9798 12.4664 23.0451C13.3933 24.0332 14.4292 24.6331 15.574 24.8447C15.7922 24.8706 15.9777 24.7817 16.1306 24.5781C16.2112 24.2008 16.3194 23.8453 16.4553 23.5116C16.6816 23.7261 16.7899 24.0372 16.7799 24.4448C16.9199 24.7621 17.1208 24.8954 17.3829 24.8447C18.5086 24.6135 19.529 24.0137 20.4441 23.0451C20.7286 22.8899 20.8832 23.0232 20.9079 23.445C20.1964 25.2227 19.2069 26.6001 17.9395 27.5773C16.4926 28.2598 15.163 27.9487 13.9506 26.6442C13.1768 25.6894 12.5274 24.6007 12.0026 23.3783C12.0197 23.2338 12.0506 23.1005 12.0953 22.9784Z"
        fill="#3D066B" />
    <path fill-rule="evenodd" clip-rule="evenodd"
        d="M14.6 25.378C15.2389 25.2742 15.4863 25.6742 15.3421 26.5777C14.9017 26.4332 14.6543 26.0333 14.6 25.378Z"
        fill="#F8F6F9" />
    <path fill-rule="evenodd" clip-rule="evenodd"
        d="M17.9395 25.3779C18.0942 25.3779 18.2487 25.3779 18.4034 25.3779C18.3391 25.9174 18.1381 26.3173 17.8004 26.5776C17.6255 26.5294 17.5482 26.3738 17.5685 26.1111C17.6057 25.7698 17.7293 25.5255 17.9395 25.3779Z"
        fill="#EFE9F2" />
</svg>