<svg width="32" height="32" viewBox="0 0 32 32" fill="none" xmlns="http://www.w3.org/2000/svg">
    <path fill-rule="evenodd" clip-rule="evenodd"
        d="M0 0C10.6667 0 21.3333 0 32 0C32 10.6667 32 21.3333 32 32C21.3333 32 10.6667 32 0 32C0 21.3333 0 10.6667 0 0Z"
        fill="#FA50B5" />
    <path
        d="M25.5301 27.1158C24.6599 27.1158 23.9546 26.4148 23.9546 25.55C23.9546 24.6852 24.6599 23.9842 25.5301 23.9842C26.4002 23.9842 27.1056 24.6852 27.1056 25.55C27.1056 26.4148 26.4002 27.1158 25.5301 27.1158ZM26.7455 3.69129C25.5589 3.20276 24.1929 3.47274 23.2847 4.3754L16.0001 11.6149L8.71554 4.3754C7.80727 3.47274 6.44133 3.20276 5.25466 3.69129C4.06798 4.17977 3.29419 5.33059 3.29419 6.60718V25.5497C3.29419 27.2928 4.71608 28.7058 6.47 28.7058C8.22392 28.7058 9.64576 27.2928 9.64576 25.5497V14.2267L13.7545 18.3102C14.9948 19.5427 17.0054 19.5427 18.2457 18.3102L22.3544 14.2267V25.5497C22.3544 27.2928 23.7763 28.7058 25.5302 28.7058C27.2841 28.7058 28.706 27.2928 28.706 25.5497V6.60718C28.706 5.33059 27.9322 4.17977 26.7455 3.69129Z"
        fill="#E6E6E6" />
</svg>