<svg width="32" height="32" viewBox="0 0 32 32" fill="none" xmlns="http://www.w3.org/2000/svg">
<g clip-path="url(#clip0_78_2647)">
<path opacity="0.994" fill-rule="evenodd" clip-rule="evenodd" d="M18.375 0.375C19.4593 0.396032 20.4593 0.646033 21.375 1.125C20.8873 1.05668 20.5123 1.22335 20.25 1.625C20.2391 0.94569 19.9891 0.779023 19.5 1.125C19.0047 1.02537 18.6297 0.77537 18.375 0.375Z" fill="#56718A"/>
<path fill-rule="evenodd" clip-rule="evenodd" d="M12.375 0.625C11.2254 1.3533 9.9754 1.85331 8.625 2.125C9.71592 1.28993 10.9659 0.78993 12.375 0.625Z" fill="#375976"/>
<path fill-rule="evenodd" clip-rule="evenodd" d="M15.625 0.375C16.5417 0.375 17.4583 0.375 18.375 0.375C18.6297 0.77537 19.0047 1.02537 19.5 1.125C19.9891 0.779023 20.2391 0.94569 20.25 1.625C20.5123 1.22335 20.8873 1.05668 21.375 1.125C23.5378 1.78885 25.3713 2.95553 26.875 4.625C26.4785 4.3967 26.1035 4.3967 25.75 4.625C25.5623 3.98763 25.1455 3.57098 24.5 3.375C24.4231 3.57702 24.2981 3.74367 24.125 3.875C23.3538 3.65202 22.5622 3.48535 21.75 3.375C21.625 3.41668 21.5 3.45832 21.375 3.5C21.6778 3.7232 21.6778 3.93153 21.375 4.125C20.751 3.81093 20.251 3.97758 19.875 4.625C20.0318 4.8542 20.1151 5.1042 20.125 5.375C19.8155 5.1469 19.4821 5.10522 19.125 5.25C19.2083 5.33332 19.2917 5.41668 19.375 5.5C18.9322 6.02838 18.5572 5.9867 18.25 5.375C17.6242 5.6376 17.2492 5.3876 17.125 4.625C17.5849 3.16985 17.0849 2.21152 15.625 1.75C15.7917 1.58333 15.9583 1.41667 16.125 1.25C15.7943 1.04601 15.6276 0.754348 15.625 0.375Z" fill="#94B3CE"/>
<path opacity="0.518" fill-rule="evenodd" clip-rule="evenodd" d="M6.375 3.625C5.70833 4.45833 4.95833 5.20833 4.125 5.875C4.625 4.875 5.375 4.125 6.375 3.625Z" fill="#1A2A38"/>
<path fill-rule="evenodd" clip-rule="evenodd" d="M26.8751 4.625C27.2919 4.875 27.6251 5.20832 27.8751 5.625C27.8569 6.00673 28.0236 6.25672 28.3751 6.375C28.3569 6.75673 28.5236 7.00672 28.8751 7.125C28.8569 7.50673 29.0236 7.75672 29.3751 7.875C29.3569 8.25673 29.5236 8.50672 29.8751 8.625C30.0846 8.71042 30.1681 8.8771 30.1251 9.125C30.0116 10.8768 29.8034 10.9601 29.5001 9.375C29.3334 9.20832 29.1669 9.04168 29.0001 8.875C28.9504 9.35063 28.7419 9.72563 28.3751 10C28.5141 10.0957 28.5974 10.2207 28.6251 10.375C27.5026 10.7211 26.6694 10.3878 26.1251 9.375C26.5779 9.7055 27.0779 9.8305 27.6251 9.75C28.5234 7.52222 27.7734 6.5639 25.3751 6.875C25.1886 7.18405 25.1054 7.51737 25.1251 7.875C24.5592 8.05465 23.9759 8.138 23.3751 8.125C23.5398 7.3862 23.6232 6.6362 23.6251 5.875C23.1045 5.882 22.6462 5.71532 22.2501 5.375C21.9559 5.79392 21.5809 6.12728 21.1251 6.375C20.4533 8.07983 21.0367 8.78815 22.8751 8.5C23.1898 8.73085 23.5232 8.9392 23.8751 9.125C23.8442 9.27668 23.7609 9.36 23.6251 9.375C23.1791 9.64345 22.8875 10.0601 22.7501 10.625C22.3899 10.435 22.0149 10.2684 21.6251 10.125C21.4838 9.61413 21.2338 9.19745 20.8751 8.875C20.7133 8.05195 20.2133 7.55195 19.3751 7.375C19.143 7.0778 19.0596 6.74445 19.1251 6.375C19.7613 6.46238 20.2613 6.25405 20.6251 5.75C20.4891 5.5707 20.3224 5.4457 20.1251 5.375C20.1153 5.1042 20.0319 4.8542 19.8751 4.625C20.2512 3.97758 20.7512 3.81093 21.3751 4.125C21.6779 3.93153 21.6779 3.7232 21.3751 3.5C21.5001 3.45832 21.6251 3.41668 21.7501 3.375C22.5623 3.48535 23.354 3.65202 24.1251 3.875C24.2982 3.74367 24.4232 3.57702 24.5001 3.375C25.1456 3.57098 25.5624 3.98763 25.7501 4.625C26.1036 4.3967 26.4786 4.3967 26.8751 4.625Z" fill="#B0C8DD"/>
<path fill-rule="evenodd" clip-rule="evenodd" d="M25.1252 7.875C25.5727 8.31805 25.9059 8.81805 26.1252 9.375C26.6694 10.3878 27.5027 10.7211 28.6252 10.375C29.2037 10.5447 29.2869 10.878 28.8752 11.375C28.6669 11.4583 28.4584 11.5417 28.2502 11.625C27.1819 11.2354 26.1404 10.8187 25.1252 10.375C24.3696 10.4145 23.8696 10.0812 23.6252 9.375C23.7609 9.36 23.8443 9.27668 23.8752 9.125C23.5232 8.9392 23.1899 8.73085 22.8752 8.5C21.0367 8.78815 20.4534 8.07983 21.1252 6.375C21.5809 6.12728 21.9559 5.79392 22.2502 5.375C22.6462 5.71532 23.1046 5.882 23.6252 5.875C23.6232 6.6362 23.5398 7.3862 23.3752 8.125C23.9759 8.138 24.5592 8.05465 25.1252 7.875Z" fill="#C4D6E6"/>
<path opacity="0.349" fill-rule="evenodd" clip-rule="evenodd" d="M27.8744 5.625C28.2259 5.74328 28.3926 5.99327 28.3744 6.375C28.0229 6.25672 27.8561 6.00673 27.8744 5.625Z" fill="#33393F"/>
<path opacity="0.522" fill-rule="evenodd" clip-rule="evenodd" d="M28.3744 6.375C28.7259 6.49328 28.8926 6.74327 28.8744 7.125C28.5229 7.00672 28.3561 6.75673 28.3744 6.375Z" fill="#3C4B57"/>
<path fill-rule="evenodd" clip-rule="evenodd" d="M15.6251 0.375C15.6278 0.754348 15.7944 1.04601 16.1251 1.25C15.9585 1.41667 15.7918 1.58333 15.6251 1.75C17.085 2.21152 17.585 3.16985 17.1251 4.625C17.2493 5.3876 17.6243 5.6376 18.2501 5.375C18.5574 5.9867 18.9324 6.02838 19.3751 5.5C19.2918 5.41668 19.2085 5.33332 19.1251 5.25C19.4823 5.10522 19.8156 5.1469 20.1251 5.375C20.3224 5.4457 20.4891 5.5707 20.6251 5.75C20.2613 6.25405 19.7613 6.46238 19.1251 6.375C19.0596 6.74445 19.143 7.0778 19.3751 7.375C20.2133 7.55195 20.7133 8.05195 20.8751 8.875C20.8537 9.12397 20.937 9.3323 21.1251 9.5C20.6844 10.253 20.3927 10.128 20.2501 9.125C20.0708 8.88735 19.8624 8.8457 19.6251 9C19.8452 9.33902 19.9285 9.71402 19.8751 10.125C19.6251 10.125 19.3751 10.125 19.1251 10.125C19.1809 9.47145 18.8892 9.05477 18.2501 8.875C18.1668 9.70833 18.0835 10.5417 18.0001 11.375C17.7501 11.7083 17.5001 11.7083 17.2501 11.375C16.7747 11.971 16.483 12.6377 16.3751 13.375C16.0287 12.8468 16.112 12.3469 16.6251 11.875C16.0177 10.9079 15.351 9.99128 14.6251 9.125C14.2964 8.8811 13.9631 8.6311 13.6251 8.375C13.3046 8.7948 13.0546 9.25315 12.8751 9.75C13.3611 10.2882 13.4861 10.9132 13.2501 11.625C13.0349 12.4326 12.7432 13.1826 12.3751 13.875C12.4079 13.6559 12.3245 13.4892 12.1251 13.375C11.9393 13.727 11.731 14.0603 11.5001 14.375C11.4168 14.2917 11.3335 14.2083 11.2501 14.125C10.8374 14.5525 10.3791 14.8859 9.87514 15.125C9.80964 14.7555 9.89296 14.4222 10.1251 14.125C11.049 13.7731 11.4656 13.1064 11.3751 12.125C11.1251 12.125 10.8751 12.125 10.6251 12.125C10.5418 11.375 10.8751 11.0417 11.6251 11.125C11.6733 9.79583 12.0066 8.4625 12.6251 7.125C12.2449 6.67728 11.7866 6.34395 11.2501 6.125C11.1268 5.71648 11.0851 5.2998 11.1251 4.875C12.3331 5.31965 13.4165 5.11133 14.3751 4.25C15.7641 4.48652 16.5974 3.94485 16.8751 2.625C16.0681 2.57485 15.2764 2.6582 14.5001 2.875C14.2081 2.62277 13.9164 2.37279 13.6251 2.125C13.734 2.49044 13.5256 2.74045 13.0001 2.875C12.7626 2.74442 12.5542 2.57775 12.3751 2.375C12.2507 2.65085 12.1674 2.90085 12.1251 3.125C11.3889 3.19072 10.6389 3.1074 9.87514 2.875C9.87514 2.625 9.87514 2.375 9.87514 2.125C10.7086 1.79841 11.5836 1.54841 12.5001 1.375C12.8683 1.47577 13.2017 1.64243 13.5001 1.875C13.7784 1.55991 13.8201 1.26825 13.6251 1C14.2318 0.60214 14.8985 0.393808 15.6251 0.375Z" fill="#7BA4C8"/>
<path fill-rule="evenodd" clip-rule="evenodd" d="M14.625 9.125C14.6518 8.5242 14.4018 8.06587 13.875 7.75C13.9583 7.66668 14.0417 7.58332 14.125 7.5C13.888 7.3793 13.638 7.33763 13.375 7.375C13.2155 6.80028 12.9655 6.2586 12.625 5.75C13.0087 5.62595 13.3837 5.66762 13.75 5.875C14.6046 5.46547 15.4796 5.13215 16.375 4.875C16.4493 5.92362 17.0326 6.54863 18.125 6.75C17.2917 6.83332 16.4583 6.91668 15.625 7C15.4314 7.60125 15.3064 8.22625 15.25 8.875C15.0823 9.0631 14.874 9.14645 14.625 9.125Z" fill="#9DBCD7"/>
<path opacity="0.459" fill-rule="evenodd" clip-rule="evenodd" d="M28.8744 7.125C29.2259 7.24328 29.3926 7.49327 29.3744 7.875C29.0229 7.75672 28.8561 7.50673 28.8744 7.125Z" fill="#334351"/>
<path fill-rule="evenodd" clip-rule="evenodd" d="M26.1259 9.37554C25.9066 8.81859 25.5734 8.31859 25.1259 7.87554C25.1061 7.51792 25.1894 7.18459 25.3759 6.87554C27.7741 6.56444 28.5241 7.52277 27.6259 9.75054C27.0786 9.83104 26.5786 9.70604 26.1259 9.37554Z" fill="#7EA7CA"/>
<path opacity="0.192" fill-rule="evenodd" clip-rule="evenodd" d="M29.3744 7.875C29.7259 7.99328 29.8926 8.24327 29.8744 8.625C29.5229 8.50672 29.3561 8.25673 29.3744 7.875Z" fill="#252C32"/>
<path opacity="0.982" fill-rule="evenodd" clip-rule="evenodd" d="M14.625 9.125C15.3509 9.99128 16.0175 10.9079 16.625 11.875C16.1119 12.3469 16.0285 12.8468 16.375 13.375C16.618 14.0329 16.9513 14.6162 17.375 15.125C17.3321 15.3729 17.4155 15.5396 17.625 15.625C17.8226 15.8503 18.0726 16.017 18.375 16.125C18.9377 17.1199 19.771 17.8282 20.875 18.25C21.4758 18.9206 22.1008 19.5456 22.75 20.125C23.2143 20.9843 23.5477 21.901 23.75 22.875C24.2065 23.2684 24.7481 23.4768 25.375 23.5C25.1548 23.6771 24.9882 23.8854 24.875 24.125C24.193 24.572 23.443 24.697 22.625 24.5C22.2652 23.509 21.8069 22.5507 21.25 21.625C21.1924 22.4737 21.4008 23.2653 21.875 24C21.2955 25.1495 21.0038 26.3578 21 27.625C21.875 28.1668 22.5833 28.875 23.125 29.75C23.362 29.8708 23.612 29.9123 23.875 29.875C22.373 30.7515 20.7897 31.418 19.125 31.875C17.0417 31.875 14.9583 31.875 12.875 31.875C10.0586 31.2588 7.64197 29.9253 5.625 27.875C5.98507 28.0907 6.3184 28.0907 6.625 27.875C7.03517 27.1105 7.24352 26.277 7.25 25.375C7.8538 25.217 8.39548 24.967 8.875 24.625C9.4488 24.3813 9.9488 24.048 10.375 23.625C11.6884 23.4784 12.4384 22.7284 12.625 21.375C12.781 21.2708 12.8643 21.1041 12.875 20.875C12.4506 19.606 12.1173 18.3144 11.875 17C12.0922 16.3906 12.0922 15.8073 11.875 15.25C11.9886 14.7654 12.1552 14.307 12.375 13.875C12.7431 13.1826 13.0347 12.4326 13.25 11.625C13.486 10.9132 13.361 10.2882 12.875 9.75C13.0545 9.25315 13.3045 8.7948 13.625 8.375C13.9629 8.6311 14.2963 8.8811 14.625 9.125Z" fill="#030405"/>
<path fill-rule="evenodd" clip-rule="evenodd" d="M3.62593 6.875C3.8647 7.42747 4.2397 7.5108 4.75093 7.125C4.964 7.75825 4.79733 8.25825 4.25093 8.625C4.12658 9.2865 4.0849 9.95318 4.12593 10.625C3.87695 10.6036 3.66863 10.6869 3.50093 10.875C3.451 11.6834 3.24265 12.4334 2.87593 13.125C3.18355 13.7467 3.18355 14.3717 2.87593 15C3.4385 15.5842 3.77185 16.2925 3.87593 17.125C3.80353 17.511 3.63685 17.8444 3.37593 18.125C3.5426 18.2917 3.70925 18.4583 3.87593 18.625C3.6018 19.1337 3.18513 19.467 2.62593 19.625C3.21575 19.7757 3.71575 20.1924 4.12593 20.875C4.0292 21.18 3.82088 21.3466 3.50093 21.375C2.91253 20.9131 2.28753 20.4964 1.62593 20.125C1.38795 20.5113 1.30462 20.928 1.37593 21.375C1.14993 21.1978 1.0666 20.9478 1.12593 20.625C1.12593 20.2083 1.12593 19.7917 1.12593 19.375C1.45644 19.3325 1.74811 19.4158 2.00093 19.625C2.05386 19.055 2.2622 18.555 2.62593 18.125C2.54633 17.2033 2.37966 16.245 2.12593 15.25C2.43973 14.0496 2.43973 12.8413 2.12593 11.625C2.29034 11.4004 2.45701 11.1504 2.62593 10.875C2.84985 11.1266 3.0165 11.1266 3.12593 10.875C2.98943 10.557 2.9061 10.2236 2.87593 9.875C3.12868 8.84323 3.37868 7.84323 3.62593 6.875Z" fill="#315778"/>
<path fill-rule="evenodd" clip-rule="evenodd" d="M20.875 8.875C21.2337 9.19745 21.4837 9.61413 21.625 10.125C22.0147 10.2684 22.3897 10.435 22.75 10.625C22.8873 10.0601 23.179 9.64345 23.625 9.375C23.8695 10.0812 24.3695 10.4145 25.125 10.375C25.1528 10.5293 25.236 10.6543 25.375 10.75C24.9959 11.2242 24.8293 11.7659 24.875 12.375C24.469 12.34 24.1774 12.5067 24 12.875C23.661 12.6549 23.286 12.5716 22.875 12.625C22.9405 12.9945 22.8572 13.3278 22.625 13.625C22.2917 13.375 21.9583 13.125 21.625 12.875C21.4181 13.4797 21.0014 13.813 20.375 13.875C19.5453 13.5911 19.2953 13.0494 19.625 12.25C19.2738 11.9327 18.8571 11.8077 18.375 11.875C18.4175 12.2055 18.3342 12.4972 18.125 12.75C17.6937 12.6478 17.277 12.6895 16.875 12.875C17.1328 13.1751 17.3411 13.5084 17.5 13.875C17.6338 13.4324 17.8422 13.349 18.125 13.625C17.6463 14.0178 17.3963 14.5178 17.375 15.125C16.9513 14.6162 16.618 14.0329 16.375 13.375C16.4829 12.6377 16.7745 11.971 17.25 11.375C17.5 11.7083 17.75 11.7083 18 11.375C18.0833 10.5417 18.1667 9.70833 18.25 8.875C18.8891 9.05477 19.1807 9.47145 19.125 10.125C19.375 10.125 19.625 10.125 19.875 10.125C19.9284 9.71402 19.8451 9.33902 19.625 9C19.8623 8.8457 20.0706 8.88735 20.25 9.125C20.3926 10.128 20.6842 10.253 21.125 9.5C20.9369 9.3323 20.8536 9.12397 20.875 8.875Z" fill="#87ACCD"/>
<path fill-rule="evenodd" clip-rule="evenodd" d="M30.125 9.125C30.3842 9.48257 30.551 9.89925 30.625 10.375C30.625 10.625 30.625 10.875 30.625 11.125C30.2945 11.1675 30.0028 11.0842 29.75 10.875C29.3618 11.5812 29.3203 12.2895 29.625 13C29.5897 13.7013 29.2565 14.2013 28.625 14.5C28.94 14.9534 28.94 15.4118 28.625 15.875C28.316 15.6885 27.9825 15.6052 27.625 15.625C27.129 15.6542 26.7125 15.4875 26.375 15.125C26.5062 14.9519 26.673 14.8269 26.875 14.75C26.1158 14.0379 25.199 13.7463 24.125 13.875C24.0417 14.375 23.9583 14.875 23.875 15.375C23.1609 15.2679 22.4109 15.2263 21.625 15.25C20.5832 14.6444 19.4999 14.1861 18.375 13.875C18.3296 14.5488 18.0796 15.1321 17.625 15.625C17.4155 15.5396 17.3321 15.3729 17.375 15.125C17.3963 14.5178 17.6463 14.0178 18.125 13.625C17.8422 13.349 17.6338 13.4324 17.5 13.875C17.3411 13.5084 17.1328 13.1751 16.875 12.875C17.277 12.6895 17.6937 12.6478 18.125 12.75C18.3342 12.4972 18.4175 12.2055 18.375 11.875C18.8571 11.8077 19.2738 11.9327 19.625 12.25C19.2953 13.0494 19.5453 13.5911 20.375 13.875C21.0014 13.813 21.4181 13.4797 21.625 12.875C21.9583 13.125 22.2917 13.375 22.625 13.625C22.8572 13.3278 22.9405 12.9945 22.875 12.625C23.286 12.5716 23.661 12.6549 24 12.875C24.1774 12.5067 24.469 12.34 24.875 12.375C24.8293 11.7659 24.9959 11.2242 25.375 10.75C25.236 10.6543 25.1528 10.5293 25.125 10.375C26.1402 10.8187 27.1818 11.2354 28.25 11.625C28.4583 11.5417 28.6667 11.4583 28.875 11.375C29.2867 10.878 29.2035 10.5447 28.625 10.375C28.5972 10.2207 28.514 10.0957 28.375 10C28.7418 9.72563 28.9502 9.35063 29 8.875C29.1667 9.04168 29.3333 9.20832 29.5 9.375C29.8033 10.9601 30.0115 10.8768 30.125 9.125Z" fill="#9FBDD6"/>
<path opacity="0.784" fill-rule="evenodd" clip-rule="evenodd" d="M30.625 10.375C30.981 10.8786 31.1475 11.462 31.125 12.125C30.9137 11.8321 30.7472 11.4988 30.625 11.125C30.625 10.875 30.625 10.625 30.625 10.375Z" fill="#404B56"/>
<path fill-rule="evenodd" clip-rule="evenodd" d="M4.12457 5.875C4.06634 6.26545 3.89969 6.59877 3.62457 6.875C3.37732 7.84323 3.12732 8.84323 2.87457 9.875C2.90474 10.2236 2.98807 10.557 3.12457 10.875C3.01514 11.1266 2.84849 11.1266 2.62457 10.875C2.45565 11.1504 2.28899 11.4004 2.12457 11.625C1.94167 13.3319 1.60834 15.0403 1.12457 16.75C1.09857 17.2864 1.26523 17.7447 1.62457 18.125C1.03605 18.5615 0.786046 19.1449 0.874568 19.875C-0.208688 15.4907 0.416313 11.3241 2.74957 7.375C3.08232 6.75095 3.54067 6.25095 4.12457 5.875Z" fill="#1D3244"/>
<path fill-rule="evenodd" clip-rule="evenodd" d="M8.625 2.125C8.34032 2.907 8.09032 3.657 7.875 4.375C8.39237 4.38785 8.85072 4.22117 9.25 3.875C9.95447 4.1477 10.6628 4.1477 11.375 3.875C11.4297 4.16875 11.3464 4.41875 11.125 4.625C9.1585 5.42025 7.20018 6.25358 5.25 7.125C5.20832 7.375 5.16668 7.625 5.125 7.875C5.33415 8.45957 5.54248 9.0429 5.75 9.625C5.77482 8.25423 6.48318 7.6709 7.875 7.875C8.27582 7.82795 8.60915 7.95295 8.875 8.25C8.49498 8.89903 8.28665 9.60735 8.25 10.375C8.1465 10.2607 8.0215 10.1773 7.875 10.125C7.33637 10.4763 6.7947 10.8096 6.25 11.125C6.0408 11.8413 5.83245 12.5496 5.625 13.25C5.9483 13.3725 6.28165 13.4142 6.625 13.375C6.72355 14.2143 6.39022 14.7976 5.625 15.125C5.93218 15.3203 6.2655 15.4453 6.625 15.5C5.71153 15.7503 4.96153 15.5003 4.375 14.75C4.612 14.6293 4.862 14.5876 5.125 14.625C5.1905 14.2555 5.10717 13.9222 4.875 13.625C4.39785 13.8371 3.89785 13.9204 3.375 13.875C3.57518 13.4895 3.6585 13.0729 3.625 12.625C4.33033 12.671 4.74698 12.3377 4.875 11.625C4.42795 11.4294 4.17795 11.096 4.125 10.625C4.08397 9.95318 4.12565 9.2865 4.25 8.625C4.7964 8.25825 4.96307 7.75825 4.75 7.125C4.23878 7.5108 3.86377 7.42747 3.625 6.875C3.90012 6.59877 4.06678 6.26545 4.125 5.875C4.95833 5.20833 5.70833 4.45833 6.375 3.625C6.98763 2.9308 7.73763 2.43079 8.625 2.125Z" fill="#4579A6"/>
<path fill-rule="evenodd" clip-rule="evenodd" d="M18.375 0.37471C17.4583 0.37471 16.5417 0.37471 15.625 0.37471C14.8983 0.393517 14.2316 0.60185 13.625 0.99971C13.8199 1.26795 13.7783 1.55962 13.5 1.87471C13.2015 1.64214 12.8682 1.47548 12.5 1.37471C11.5835 1.54812 10.7085 1.79812 9.875 2.12471C9.875 2.37471 9.875 2.62471 9.875 2.87471C10.6388 3.10711 11.3888 3.19043 12.125 3.12471C12.1673 2.90056 12.2506 2.65056 12.375 2.37471C12.5541 2.57746 12.7624 2.74413 13 2.87471C13.5255 2.74016 13.7339 2.49015 13.625 2.12471C13.9163 2.37249 14.208 2.62248 14.5 2.87471C15.2763 2.65791 16.068 2.57456 16.875 2.62471C16.5973 3.94456 15.7639 4.48623 14.375 4.24971C13.4163 5.11103 12.333 5.31936 11.125 4.87471C11.085 5.29951 11.1266 5.71618 11.25 6.12471C11.7865 6.34366 12.2448 6.67698 12.625 7.12471C12.0065 8.46221 11.6732 9.79554 11.625 11.1247C10.875 11.0414 10.5417 11.3747 10.625 12.1247C10.875 12.1247 11.125 12.1247 11.375 12.1247C11.4655 13.1061 11.0488 13.7728 10.125 14.1247C9.89283 14.4219 9.8095 14.7553 9.875 15.1247C9.65225 15.2772 9.40225 15.3605 9.125 15.3747C8.53948 15.3757 8.03947 15.5841 7.625 15.9997C7.95832 16.4997 7.95832 16.9997 7.625 17.4997C8.02175 17.7153 8.4384 17.882 8.875 17.9997C8.54168 18.1664 8.20832 18.333 7.875 18.4997C8.41287 18.5659 8.82952 18.8159 9.125 19.2497C9.02365 19.4861 8.857 19.6527 8.625 19.7497C9.21583 19.8968 9.46582 20.2718 9.375 20.8747C9.7773 20.7732 10.1106 20.7732 10.375 20.8747C10.0778 21.1069 9.74445 21.1902 9.375 21.1247C9.3793 21.6409 9.46262 22.1409 9.625 22.6247C9.12825 22.4587 8.71158 22.167 8.375 21.7497C9.27382 21.9029 9.35717 21.6112 8.625 20.8747C8.67732 20.7282 8.76065 20.6032 8.875 20.4997C8.46812 19.9948 8.0098 19.5365 7.5 19.1247C7.22502 20.3316 6.93335 20.3733 6.625 19.2497C6.388 19.129 6.138 19.0873 5.875 19.1247C5.82863 18.1377 5.66195 17.1794 5.375 16.2497C5.5 16.208 5.625 16.1664 5.75 16.1247C6.04202 16.3769 6.3337 16.6269 6.625 16.8747C7.00592 15.929 7.25592 14.929 7.375 13.8747C8.11118 14.2201 8.5695 13.9701 8.75 13.1247C9.08332 13.1247 9.41668 13.1247 9.75 13.1247C9.92173 12.6078 9.88005 12.1078 9.625 11.6247C9.97697 11.4389 10.3103 11.2306 10.625 10.9997C10.6154 10.3621 10.4487 9.69541 10.125 8.99971C10.1667 8.70804 10.2083 8.41639 10.25 8.12471C10.6207 8.73616 10.9124 8.65281 11.125 7.87471C10.5022 7.61453 10.5022 7.40618 11.125 7.24971C10.6826 6.99486 10.266 6.95321 9.875 7.12471C9.57017 6.93386 9.32018 6.68386 9.125 6.37471C8.5215 6.72741 8.10485 7.22741 7.875 7.87471C6.48318 7.67061 5.77482 8.25394 5.75 9.62471C5.54248 9.04261 5.33415 8.45928 5.125 7.87471C5.16668 7.62471 5.20832 7.37471 5.25 7.12471C7.20018 6.25328 9.1585 5.41996 11.125 4.62471C11.3464 4.41846 11.4297 4.16846 11.375 3.87471C10.6628 4.14741 9.95447 4.14741 9.25 3.87471C8.85072 4.22088 8.39237 4.38756 7.875 4.37471C8.09032 3.65671 8.34032 2.90671 8.625 2.12471C9.9754 1.85301 11.2254 1.35301 12.375 0.62471C13.5193 0.25229 14.7276 0.0856224 16 0.12471C16.8379 0.125155 17.6296 0.208488 18.375 0.37471Z" fill="#6494BD"/>
<path fill-rule="evenodd" clip-rule="evenodd" d="M2.12593 11.625C2.43973 12.8413 2.43973 14.0496 2.12593 15.25C2.37966 16.245 2.54633 17.2033 2.62593 18.125C2.2622 18.555 2.05386 19.055 2.00093 19.625C1.74811 19.4158 1.45644 19.3325 1.12593 19.375C1.12593 19.7917 1.12593 20.2083 1.12593 20.625C0.899933 20.4478 0.816598 20.1978 0.875926 19.875C0.787403 19.1449 1.0374 18.5615 1.62593 18.125C1.26659 17.7447 1.09992 17.2864 1.12593 16.75C1.60969 15.0403 1.94303 13.3319 2.12593 11.625Z" fill="#274660"/>
<path fill-rule="evenodd" clip-rule="evenodd" d="M30.625 11.125C30.7472 11.4988 30.9137 11.8321 31.125 12.125C31.5037 13.3951 31.6705 14.7284 31.625 16.125C31.6705 17.5216 31.5037 18.8549 31.125 20.125C31.1658 19.5358 31.1243 18.9524 31 18.375C30.5583 18.0457 30.2247 17.629 30 17.125C29.5885 17.4446 29.2967 17.8613 29.125 18.375C28.7082 18.2917 28.4583 18.0417 28.375 17.625C28.6368 17.2359 28.8035 16.8192 28.875 16.375C28.3683 16.4155 27.8683 16.3739 27.375 16.25C27.9047 16.1645 27.9882 15.9562 27.625 15.625C27.9825 15.6052 28.316 15.6885 28.625 15.875C28.94 15.4118 28.94 14.9534 28.625 14.5C29.2565 14.2013 29.5897 13.7013 29.625 13C29.3203 12.2895 29.3618 11.5812 29.75 10.875C30.0028 11.0842 30.2945 11.1675 30.625 11.125Z" fill="#B0C3D4"/>
<path fill-rule="evenodd" clip-rule="evenodd" d="M9.62436 22.625C9.87436 22.9583 10.1244 23.2917 10.3744 23.625C9.94816 24.048 9.44816 24.3813 8.87436 24.625C8.72806 24.0195 8.35306 23.6028 7.74936 23.375C7.28736 23.7545 6.91236 24.2128 6.62436 24.75C7.17666 24.9893 7.13499 25.281 6.49936 25.625C6.20026 25.1785 5.82526 24.8452 5.37436 24.625C5.59454 24.1741 5.92786 23.7991 6.37436 23.5C6.16306 23.1105 6.32974 22.8605 6.87436 22.75C6.36894 22.4669 6.28559 22.0502 6.62436 21.5C6.51739 20.3653 5.93406 19.6153 4.87436 19.25C5.04104 18.9167 5.20769 18.5833 5.37436 18.25C5.14546 17.6075 4.97879 16.9408 4.87436 16.25C4.80306 15.7776 4.55306 15.4443 4.12436 15.25C3.88709 15.0957 3.67874 15.1373 3.49936 15.375C3.37549 14.8818 3.33384 14.3818 3.37436 13.875C3.89721 13.9204 4.39721 13.8371 4.87436 13.625C5.10654 13.9222 5.18986 14.2555 5.12436 14.625C4.86136 14.5876 4.61136 14.6293 4.37436 14.75C4.96089 15.5003 5.71089 15.7503 6.62436 15.5C6.26486 15.4453 5.93154 15.3203 5.62436 15.125C6.38959 14.7976 6.72291 14.2143 6.62436 13.375C6.28101 13.4142 5.94766 13.3725 5.62436 13.25C5.83181 12.5496 6.04016 11.8413 6.24936 11.125C6.79406 10.8096 7.33574 10.4763 7.87436 10.125C8.02086 10.1773 8.14586 10.2607 8.24936 10.375C8.28601 9.60735 8.49434 8.89903 8.87436 8.25C8.60851 7.95295 8.27519 7.82795 7.87436 7.875C8.10421 7.2277 8.52086 6.7277 9.12436 6.375C9.31954 6.68415 9.56954 6.93415 9.87436 7.125C10.2653 6.9535 10.682 6.99515 11.1244 7.25C10.5015 7.40647 10.5015 7.61483 11.1244 7.875C10.9117 8.6531 10.6201 8.73645 10.2494 8.125C10.2077 8.41668 10.166 8.70832 10.1244 9C10.4481 9.6957 10.6147 10.3624 10.6244 11C10.3097 11.2308 9.97634 11.4392 9.62436 11.625C9.87941 12.1081 9.92109 12.6081 9.74936 13.125C9.41604 13.125 9.08269 13.125 8.74936 13.125C8.56886 13.9704 8.11054 14.2204 7.37436 13.875C7.25529 14.9293 7.00529 15.9293 6.62436 16.875C6.33306 16.6272 6.04139 16.3772 5.74936 16.125C5.62436 16.1667 5.49936 16.2083 5.37436 16.25C5.66131 17.1797 5.82799 18.138 5.87436 19.125C6.13736 19.0876 6.38736 19.1293 6.62436 19.25C6.93271 20.3736 7.22439 20.3319 7.49936 19.125C8.00916 19.5367 8.46749 19.9951 8.87436 20.5C8.76001 20.6035 8.67669 20.7285 8.62436 20.875C9.35654 21.6115 9.27319 21.9032 8.37436 21.75C8.71094 22.1673 9.12761 22.4589 9.62436 22.625Z" fill="#4C82B0"/>
<path fill-rule="evenodd" clip-rule="evenodd" d="M12.3759 13.875C12.1561 14.307 11.9894 14.7654 11.8759 15.25C12.0931 15.8073 12.0931 16.3906 11.8759 17C12.1182 18.3144 12.4515 19.606 12.8759 20.875C12.8652 21.1041 12.7818 21.2708 12.6259 21.375C12.2092 21.375 11.7925 21.375 11.3759 21.375C11.3156 20.7234 11.3156 20.0568 11.3759 19.375C11.093 19.099 10.8847 19.1824 10.7509 19.625C10.52 19.3103 10.3117 18.977 10.1259 18.625C9.95277 18.7563 9.82777 18.923 9.75087 19.125C9.36842 18.6935 9.11842 18.1934 9.00087 17.625C7.91364 17.0188 8.03864 16.5188 9.37587 16.125C9.21907 15.8958 9.13572 15.6458 9.12587 15.375C9.40312 15.3608 9.65312 15.2774 9.87587 15.125C10.3798 14.8859 10.8382 14.5525 11.2509 14.125C11.3342 14.2083 11.4175 14.2917 11.5009 14.375C11.7317 14.0603 11.9401 13.727 12.1259 13.375C12.3252 13.4892 12.4086 13.6559 12.3759 13.875Z" fill="#94B5D1"/>
<path fill-rule="evenodd" clip-rule="evenodd" d="M4.12427 10.6244C4.17722 11.0954 4.42722 11.4287 4.87427 11.6244C4.74624 12.3371 4.32959 12.6704 3.62427 12.6244C3.65777 13.0723 3.57444 13.4889 3.37427 13.8744C3.33374 14.3812 3.37539 14.8812 3.49927 15.3744C3.67864 15.1367 3.88699 15.0951 4.12427 15.2494C4.55297 15.4437 4.80297 15.777 4.87427 16.2494C4.97869 16.9402 5.14537 17.6069 5.37427 18.2494C5.20759 18.5827 5.04094 18.9161 4.87427 19.2494C5.93397 19.6147 6.51729 20.3647 6.62427 21.4994C6.28549 22.0496 6.36884 22.4663 6.87427 22.7494C6.32964 22.8599 6.16297 23.1099 6.37427 23.4994C5.92777 23.7985 5.59444 24.1735 5.37427 24.6244C4.83152 24.1243 4.24819 23.666 3.62427 23.2494C3.39007 23.0765 3.22342 23.1181 3.12427 23.3744C2.40295 23.2007 1.90295 22.7841 1.62427 22.1244C1.39828 21.9471 1.31494 21.6971 1.37427 21.3744C1.30296 20.9274 1.3863 20.5107 1.62427 20.1244C2.28588 20.4958 2.91087 20.9125 3.49927 21.3744C3.81922 21.346 4.02754 21.1794 4.12427 20.8744C3.71409 20.1918 3.21409 19.7751 2.62427 19.6244C3.18347 19.4664 3.60014 19.133 3.87427 18.6244C3.70759 18.4577 3.54094 18.2911 3.37427 18.1244C3.63519 17.8437 3.80187 17.5104 3.87427 17.1244C3.77019 16.2919 3.43684 15.5836 2.87427 14.9994C3.18189 14.3711 3.18189 13.7461 2.87427 13.1244C3.24099 12.4328 3.44934 11.6828 3.49927 10.8744C3.66697 10.6863 3.87529 10.6029 4.12427 10.6244Z" fill="#39658C"/>
<path fill-rule="evenodd" clip-rule="evenodd" d="M9.125 15.375C9.13485 15.6458 9.2182 15.8958 9.375 16.125C8.03778 16.5188 7.91278 17.0188 9 17.625C9.11755 18.1934 9.36755 18.6935 9.75 19.125C9.8269 18.923 9.9519 18.7563 10.125 18.625C10.3108 18.977 10.5192 19.3103 10.75 19.625C10.8838 19.1824 11.0922 19.099 11.375 19.375C11.3147 20.0568 11.3147 20.7234 11.375 21.375C11.7917 21.375 12.2083 21.375 12.625 21.375C12.4384 22.7284 11.6884 23.4784 10.375 23.625C10.125 23.2917 9.875 22.9583 9.625 22.625C9.46262 22.1412 9.3793 21.6412 9.375 21.125C9.74445 21.1905 10.0778 21.1072 10.375 20.875C10.1106 20.7735 9.7773 20.7735 9.375 20.875C9.46582 20.2721 9.21583 19.8971 8.625 19.75C8.857 19.653 9.02365 19.4863 9.125 19.25C8.82952 18.8162 8.41287 18.5662 7.875 18.5C8.20832 18.3333 8.54168 18.1667 8.875 18C8.4384 17.8823 8.02175 17.7156 7.625 17.5C7.95832 17 7.95832 16.5 7.625 16C8.03947 15.5844 8.53948 15.376 9.125 15.375Z" fill="#76A1C5"/>
<path fill-rule="evenodd" clip-rule="evenodd" d="M16.125 25.375C16.2309 25.1838 16.3142 24.9755 16.375 24.75C15.9437 24.0286 15.777 23.2369 15.875 22.375C15.4753 22.442 15.1419 22.3586 14.875 22.125C14.9218 21.6089 15.0467 21.1089 15.25 20.625C15.4014 21.1203 15.6513 21.2036 16 20.875C16.3462 21.1376 16.5962 21.471 16.75 21.875C16.7957 23.0829 17.0873 24.2079 17.625 25.25C17.5417 25.5418 17.4583 25.8332 17.375 26.125C16.9009 25.9313 16.4843 25.6813 16.125 25.375Z" fill="#A7BFD5"/>
<path fill-rule="evenodd" clip-rule="evenodd" d="M13.625 21.375C13.9042 22.4318 13.6959 23.4318 13 24.375C12.7917 24.1667 12.5833 23.9583 12.375 23.75C13.0038 23.0737 13.4204 22.282 13.625 21.375Z" fill="#7195B4"/>
<path fill-rule="evenodd" clip-rule="evenodd" d="M1.625 22.125C1.90368 22.7847 2.40368 23.2014 3.125 23.375C2.86342 23.9462 2.86342 24.5296 3.125 25.125C2.49277 24.1939 1.99277 23.1939 1.625 22.125Z" fill="#23394D"/>
<path fill-rule="evenodd" clip-rule="evenodd" d="M14.875 22.125C15.1419 22.3586 15.4753 22.442 15.875 22.375C15.777 23.2369 15.9437 24.0286 16.375 24.75C16.3142 24.9755 16.2309 25.1838 16.125 25.375C15.3016 25.4213 14.6349 25.1295 14.125 24.5C14.4419 23.6985 14.6919 22.9068 14.875 22.125Z" fill="#779EBF"/>
<path fill-rule="evenodd" clip-rule="evenodd" d="M24.8757 24.125C24.9889 23.8854 25.1554 23.6771 25.3757 23.5C24.7488 23.4768 24.2071 23.2684 23.7507 22.875C23.5483 21.901 23.215 20.9843 22.7507 20.125C22.1015 19.5456 21.4765 18.9206 20.8757 18.25C19.7717 17.8282 18.9384 17.1199 18.3757 16.125C18.3209 15.8313 18.4042 15.5812 18.6257 15.375C19.3584 15.5682 20.0667 15.8182 20.7507 16.125C21.3114 15.6795 21.9364 15.5545 22.6257 15.75C22.4872 16.4031 22.6539 17.0281 23.1257 17.625C23.6122 17.2282 23.9872 17.3116 24.2507 17.875C24.5173 17.4293 24.8923 17.3044 25.3757 17.5C24.9395 17.923 24.8562 18.3813 25.1257 18.875C25.6282 19.2928 26.2114 19.4595 26.8757 19.375C26.7742 19.7773 26.7742 20.1106 26.8757 20.375C27.4492 19.3368 28.2824 19.0035 29.3757 19.375C29.5694 18.8812 29.9029 18.6728 30.3757 18.75C30.4967 19.902 30.4967 21.027 30.3757 22.125C28.9367 22.1558 28.1452 22.9058 28.0007 24.375C27.5424 24.8333 27.0839 25.2918 26.6257 25.75C25.9589 25.9167 25.2924 25.9167 24.6257 25.75C25.5107 25.6678 25.8022 25.2095 25.5007 24.375C24.5441 25.0773 24.3358 24.994 24.8757 24.125Z" fill="#E5EDF4"/>
<path fill-rule="evenodd" clip-rule="evenodd" d="M18.6242 22.375C20.4139 23.4751 20.8306 24.9751 19.8742 26.875C19.4985 27.013 19.0818 27.013 18.6242 26.875C18.5366 25.8635 18.7033 24.9051 19.1242 24C18.832 23.4984 18.6653 22.9567 18.6242 22.375Z" fill="#CED7DF"/>
<path fill-rule="evenodd" clip-rule="evenodd" d="M27.625 15.6253C27.9882 15.9565 27.9047 16.1648 27.375 16.2503C27.8683 16.3741 28.3683 16.4158 28.875 16.3753C28.8035 16.8195 28.6368 17.2362 28.375 17.6253C28.4583 18.0419 28.7082 18.2919 29.125 18.3753C29.2967 17.8616 29.5885 17.4449 30 17.1253C30.2247 17.6293 30.5583 18.046 31 18.3753C31.1243 18.9527 31.1658 19.5361 31.125 20.1253C30.8577 21.8244 30.1912 23.3244 29.125 24.6253C28.9887 23.7074 28.9055 23.7907 28.875 24.8753C28.2645 24.8387 28.0978 25.047 28.375 25.5003C27.9665 25.6238 27.5498 25.6653 27.125 25.6253C27.125 25.9585 27.125 26.292 27.125 26.6253C26.2977 26.5773 25.6727 26.9105 25.25 27.6253C25.1713 28.1468 25.0463 28.6468 24.875 29.1253C24.6409 29.4938 24.3076 29.7438 23.875 29.8753C23.612 29.9125 23.362 29.871 23.125 29.7503C22.5833 28.8753 21.875 28.167 21 27.6253C21.0038 26.358 21.2955 25.1498 21.875 24.0003C21.4008 23.2656 21.1924 22.4739 21.25 21.6253C21.8069 22.5509 22.2652 23.5093 22.625 24.5003C23.443 24.6973 24.193 24.5723 24.875 24.1253C24.3351 24.9942 24.5434 25.0775 25.5 24.3753C25.8015 25.2098 25.51 25.668 24.625 25.7503C25.2918 25.917 25.9582 25.917 26.625 25.7503C27.0832 25.292 27.5418 24.8336 28 24.3753C28.1445 22.9061 28.936 22.1561 30.375 22.1253C30.496 21.0273 30.496 19.9023 30.375 18.7503C29.9022 18.6731 29.5687 18.8814 29.375 19.3753C28.2817 19.0037 27.4485 19.3371 26.875 20.3753C26.7735 20.1109 26.7735 19.7776 26.875 19.3753C26.2107 19.4598 25.6275 19.2931 25.125 18.8753C24.8555 18.3816 24.9388 17.9233 25.375 17.5003C24.8916 17.3046 24.5166 17.4296 24.25 17.8753C23.9865 17.3119 23.6115 17.2285 23.125 17.6253C22.6532 17.0283 22.4865 16.4033 22.625 15.7503C21.9358 15.5548 21.3108 15.6798 20.75 16.1253C20.066 15.8185 19.3577 15.5685 18.625 15.3753C18.4036 15.5815 18.3203 15.8315 18.375 16.1253C18.0726 16.0172 17.8226 15.8506 17.625 15.6253C18.0796 15.1324 18.3296 14.549 18.375 13.8753C19.4999 14.1863 20.5832 14.6447 21.625 15.2503C22.4109 15.2265 23.1609 15.2682 23.875 15.3753C23.9583 14.8753 24.0417 14.3753 24.125 13.8753C25.199 13.7466 26.1158 14.0382 26.875 14.7503C26.673 14.8272 26.5062 14.9522 26.375 15.1253C26.7125 15.4878 27.129 15.6545 27.625 15.6253Z" fill="#CEDBE7"/>
<path fill-rule="evenodd" clip-rule="evenodd" d="M5.37587 24.624C5.82677 24.8442 6.20177 25.1775 6.50087 25.624C7.13649 25.28 7.17817 24.9883 6.62587 24.749C6.91387 24.2119 7.28887 23.7535 7.75087 23.374C8.35457 23.6019 8.72957 24.0185 8.87587 24.624C8.39634 24.9661 7.85467 25.216 7.25087 25.374C7.24439 26.276 7.03604 27.1095 6.62587 27.874C6.31927 28.0898 5.98594 28.0898 5.62587 27.874C4.61497 27.1133 3.78164 26.1968 3.12587 25.124C2.86429 24.5286 2.86429 23.9453 3.12587 23.374C3.22502 23.1178 3.39167 23.0761 3.62587 23.249C4.24979 23.6657 4.83312 24.124 5.37587 24.624Z" fill="#5C8BB4"/>
<path opacity="0.01" fill-rule="evenodd" clip-rule="evenodd" d="M27.6244 26.625C27.6426 27.0067 27.4759 27.2568 27.1244 27.375C27.1061 26.9933 27.2729 26.7432 27.6244 26.625Z" fill="#28292B"/>
<path fill-rule="evenodd" clip-rule="evenodd" d="M29.125 24.6253C28.8677 25.473 28.3677 26.1395 27.625 26.6253C27.2735 26.7435 27.1068 26.9935 27.125 27.3753C26.448 28.0525 25.698 28.6358 24.875 29.1253C25.0463 28.6468 25.1713 28.1468 25.25 27.6253C25.6727 26.9105 26.2977 26.5773 27.125 26.6253C27.125 26.292 27.125 25.9585 27.125 25.6253C27.5498 25.6653 27.9665 25.6238 28.375 25.5003C28.0978 25.047 28.2645 24.8387 28.875 24.8753C28.9055 23.7907 28.9887 23.7074 29.125 24.6253Z" fill="#A6B1BB"/>
</g>
<defs>
<clipPath id="clip0_78_2647">
<rect width="32" height="32" fill="white"/>
</clipPath>
</defs>
</svg>
