<svg width="32" height="32" viewBox="0 0 32 32" fill="none" xmlns="http://www.w3.org/2000/svg">
<mask id="mask0_77_2602" style="mask-type:luminance" maskUnits="userSpaceOnUse" x="0" y="0" width="32" height="32">
<path d="M32 0H0V32H32V0Z" fill="white"/>
</mask>
<g mask="url(#mask0_77_2602)">
<path d="M6.66597 23.9993V29.0207L8.68597 27.8087L15.0353 23.9993H21.3327C22.8033 23.9993 23.9993 22.8033 23.9993 21.3327V10.666C23.9993 9.19534 22.8033 7.99934 21.3327 7.99934H5.33271C3.86202 7.99934 2.66602 9.19534 2.66602 10.666V21.3327C2.66602 22.8033 3.86202 23.9993 5.33271 23.9993H6.66597ZM5.33271 10.666H21.3327V21.3327H14.2967L9.33271 24.3113V21.3327H5.33271V10.666ZM26.666 2.66602H10.666C9.19534 2.66602 7.99934 3.86202 7.99934 5.33271H23.9993C25.47 5.33271 26.666 6.52871 26.666 7.99934V18.666C28.1367 18.666 29.3327 17.47 29.3327 15.9993V5.33271C29.3327 3.86202 28.1367 2.66602 26.666 2.66602Z" fill="#377DFF"/>
</g>
</svg>
