<svg width="32" height="32" viewBox="0 0 32 32" fill="none" xmlns="http://www.w3.org/2000/svg">
    <g clip-path="url(#clip0_423_45)">
        <path
            d="M29.8182 0H2.18182C0.976833 0 0 0.976833 0 2.18182V29.8182C0 31.0232 0.976833 32 2.18182 32H29.8182C31.0232 32 32 31.0232 32 29.8182V2.18182C32 0.976833 31.0232 0 29.8182 0Z"
            fill="#02508B" />
        <path fill-rule="evenodd" clip-rule="evenodd"
            d="M23.2264 22.4976C22.9581 22.8293 22.6053 23.1176 22.4922 23.2187C21.137 24.53 19.4006 25.6256 17.5231 24.8183C15.6737 24.0111 18.6104 17.3089 16.9726 17.2223C15.4621 17.1362 14.3893 18.3322 13.6693 20.6962C12.9493 23.0598 13.5282 24.9773 13.5282 24.9773C13.5282 24.9773 11.2271 25.2365 10.4224 24.0693C9.60351 22.8871 10.1544 21.1573 10.3802 20.1053C10.5355 19.3703 10.7046 18.1158 10.6766 17.3809C10.6482 16.7325 10.3661 16.5882 9.81551 16.8911C9.33551 17.1362 8.92606 17.2947 8.78497 17.0929C8.68606 16.9485 8.71442 16.7613 8.86969 16.502C9.02497 16.2423 9.57551 15.738 9.92824 15.3776C10.8035 14.5274 12.0461 13.7053 12.5824 13.7776C13.1188 13.8642 13.9799 14.8154 13.7541 15.9107C13.6693 16.3289 13.6835 16.5449 13.6835 16.5449C13.6835 16.5449 15.6315 14.8729 16.6621 14.4838C17.6926 14.0947 19.7959 13.6191 20.6006 14.5274C21.4053 15.4209 21.2922 16.9922 20.7984 19.9613C20.5159 21.6333 20.5864 22.094 20.9537 22.2383C21.2922 22.3827 21.9417 22.0223 22.5348 21.6474C23.1842 21.2438 23.6922 20.6529 23.9322 20.8114C24.1159 20.9413 23.8192 21.7773 23.2264 22.4976ZM19.5701 11.8173C18.681 11.3565 18.0173 10.9958 17.1279 10.6067C15.7304 10.0158 15.7021 9.95799 14.3468 10.6358C13.4151 11.0969 12.5399 11.7743 11.6082 12.25C10.3802 12.8551 10.4508 12.394 9.92824 11.3703C9.43406 10.3904 9.46242 10.2176 10.4508 9.64127C11.5519 8.99218 13.3588 7.98345 14.5871 7.34927C15.7726 6.72927 15.6599 6.80127 16.8879 7.33472C18.2995 7.95472 19.5701 8.47327 20.9817 9.12199C22.3933 9.77072 22.3653 10.2031 21.829 11.1973C21.2784 12.2209 21.0664 12.5671 19.5701 11.8173Z"
            fill="white" />
    </g>
    <defs>
        <clipPath id="clip0_423_45">
            <rect width="32" height="32" fill="white" />
        </clipPath>
    </defs>
</svg>