<svg width="32" height="32" viewBox="0 0 33 33" fill="none" xmlns="http://www.w3.org/2000/svg">
    <path opacity="0.993" fill-rule="evenodd" clip-rule="evenodd"
        d="M6.00203 0.5C6.03473 0.5 6.06747 0.5 6.10017 0.5C6.45913 0.839488 6.82309 1.17617 7.19208 1.51003C11.1685 5.04988 15.1435 8.58859 19.1172 12.1261C20.501 10.9034 21.8955 9.69282 23.3007 8.49431C23.3334 9.88401 23.3334 11.2737 23.3007 12.6634C21.9397 13.8446 20.582 15.0301 19.2276 16.22C19.1866 16.2343 19.1459 16.2343 19.1049 16.22C15.8527 13.3323 12.6056 10.4419 9.36362 7.54875C9.33908 9.26789 9.33091 10.9871 9.33908 12.7064C9.30539 12.7097 9.27266 12.7062 9.24093 12.6956C8.19742 11.7745 7.14642 10.8612 6.08791 9.95564C6.06337 9.91982 6.03883 9.88401 6.01429 9.84819C6.00203 6.73213 5.99793 3.61606 6.00203 0.5Z"
        fill="#333333" />
    <path opacity="0.99" fill-rule="evenodd" clip-rule="evenodd"
        d="M32.3791 0.5C32.4037 0.5 32.4282 0.5 32.4528 0.5C32.4773 9.56734 32.4854 18.6362 32.4773 27.7065C32.4437 27.7099 32.4108 27.7062 32.3791 27.6957C31.3206 26.7471 30.2532 25.8052 29.177 24.8698C29.1689 24.8483 29.1606 24.8268 29.1525 24.8053C29.1402 19.0603 29.1361 13.3153 29.1402 7.57024C29.1729 6.18054 29.1729 4.79086 29.1402 3.40116C30.1769 2.46098 31.2279 1.52974 32.2933 0.60745C32.3178 0.568273 32.3463 0.532456 32.3791 0.5Z"
        fill="#333333" />
    <path opacity="0.993" fill-rule="evenodd" clip-rule="evenodd"
        d="M29.1404 3.40137C29.173 4.79107 29.173 6.18075 29.1404 7.57044C28.4303 8.16005 27.731 8.76177 27.0425 9.37561C27.0042 9.42841 26.9796 9.48573 26.9688 9.54753C26.9595 17.1979 26.9553 24.8485 26.9566 32.499C26.923 32.5024 26.8901 32.4987 26.8584 32.4882C19.206 25.8325 11.5421 19.1885 3.86709 12.5561C3.83438 16.8398 3.83438 21.1235 3.86709 25.4072C4.53813 24.8231 5.2129 24.2429 5.8914 23.6665C5.94406 23.61 5.97677 23.5455 5.98955 23.4731C6.00182 20.6293 6.00592 17.7854 6.00182 14.9415C6.04618 14.9414 6.08709 14.9521 6.12451 14.9738C7.16734 15.9014 8.21017 16.8291 9.253 17.7567C9.28428 17.8044 9.30882 17.8545 9.32661 17.9072C9.34297 20.1995 9.34297 22.4917 9.32661 24.784C9.31505 24.8216 9.29869 24.8573 9.27753 24.8915C6.37805 27.4165 3.47859 29.9416 0.579102 32.4667C0.555841 32.477 0.531304 32.4807 0.505491 32.4775C0.476905 24.2186 0.472807 15.9593 0.493222 7.69939C0.49732 6.97577 0.509588 6.25229 0.530028 5.52889C8.1287 12.166 15.7149 18.8136 23.2883 25.4717C23.3005 21.2023 23.3047 16.933 23.3005 12.6636C23.3332 11.2739 23.3332 9.88422 23.3005 8.49452C25.2314 6.78189 27.1781 5.08417 29.1404 3.40137Z"
        fill="#2D8EE1" />
</svg>