<svg width="32" height="32" viewBox="0 0 33 33" fill="none" xmlns="http://www.w3.org/2000/svg">
    <path fill-rule="evenodd" clip-rule="evenodd"
        d="M9.04002 2.53588C9.91885 2.14648 10.7718 1.78304 11.6507 1.47151C11.8316 1.47151 12.0384 1.49747 12.271 1.5494C11.2371 1.91284 10.229 2.30224 9.22095 2.76952C9.14341 2.66568 9.09171 2.5878 9.04002 2.53588ZM6.48105 4.14541C7.23065 3.60025 8.03194 3.10701 8.85908 2.63972C8.88493 2.69164 8.91077 2.79548 8.98832 2.89932C8.03194 3.47045 7.1014 4.04157 6.22257 4.66462C6.27426 4.45694 6.37766 4.30118 6.48105 4.14541ZM0.199951 16.8919C0.199951 16.2169 0.251647 15.516 0.329192 14.841C0.35504 14.6074 0.406736 14.3737 0.458433 14.166C0.406736 14.9189 0.380888 15.7237 0.380888 16.5544C0.303344 16.9957 0.251648 17.3851 0.225799 17.7745C0.225799 17.4889 0.199951 17.2034 0.199951 16.8919ZM0.484281 13.9843C0.535977 13.6468 0.613521 13.3353 0.691066 13.0238C0.665218 13.2055 0.613521 13.4132 0.587673 13.6209C0.535977 13.7507 0.484281 13.8545 0.484281 13.9843ZM0.76861 12.6863C0.949547 11.9594 1.20803 11.2845 1.49236 10.6095C1.6216 10.3239 1.75084 10.0384 1.90593 9.75281C1.72499 10.298 1.54405 10.8691 1.38897 11.5181C1.07879 12.1931 0.820307 12.8421 0.587673 13.4651C0.63937 13.1796 0.716914 12.92 0.76861 12.6863ZM1.95762 9.57109L2.11271 9.25957C2.11271 9.28553 2.08687 9.31149 2.06102 9.36341C2.03517 9.44129 2.00932 9.51917 1.95762 9.57109ZM2.2678 9.02593C2.78477 8.11732 3.37927 7.26064 4.05132 6.48183C3.84454 6.76739 3.81869 6.76739 3.63775 7.13084C3.09494 7.83176 2.60383 8.53268 2.16441 9.23361L2.2678 9.02593ZM4.20641 6.27415C4.67168 5.75494 5.16279 5.2617 5.70561 4.79442C5.96409 4.56078 5.98993 4.53482 6.30011 4.30117C6.19672 4.43098 6.09333 4.63866 6.01578 4.84634C5.24034 5.5213 4.49074 6.22223 3.81869 6.92315C3.99963 6.55971 3.99963 6.53375 4.20641 6.27415ZM12.6329 1.23787C13.305 1.08211 13.977 0.978271 14.7008 0.900391C14.9592 0.900391 15.2177 0.92635 15.4762 0.95231C14.5198 1.08211 13.5376 1.26383 12.5295 1.49747C12.2969 1.44555 12.0901 1.41959 11.8833 1.41959C12.1418 1.36767 12.3744 1.28979 12.6329 1.23787ZM19.7411 1.21191C20.4907 1.39363 21.2145 1.60131 21.8865 1.86092L22.5844 2.17244C21.9641 1.99072 21.2662 1.809 20.5424 1.6792C19.9479 1.41959 19.3793 1.23787 18.8365 1.05615C19.1466 1.10807 19.4568 1.15999 19.7411 1.21191ZM22.2226 1.99072C22.5069 2.09456 22.7912 2.22436 23.0497 2.35416C22.9463 2.30224 22.8429 2.25032 22.7137 2.1984C22.5586 2.14648 22.4035 2.0686 22.2226 1.99072ZM23.8252 2.76952C24.6781 3.23681 25.5053 3.75601 26.2549 4.37906C25.9447 4.17137 25.6087 3.98965 25.221 3.80793C24.5489 3.31469 23.8769 2.87336 23.2306 2.48396C23.4374 2.5878 23.6442 2.66568 23.8252 2.76952ZM26.7977 4.84634L26.8235 4.8723C27.6765 5.70302 27.6765 5.70302 28.5295 6.66355C28.3227 6.53375 28.0642 6.42991 27.7541 6.35203C27.1079 5.59918 26.4358 4.89826 25.7638 4.24926C26.1773 4.45694 26.5134 4.63866 26.7977 4.84634ZM27.2371 5.2617C27.7541 5.72898 28.1935 6.24819 28.6329 6.79335C28.6071 6.74143 28.5812 6.74143 28.5554 6.71547C28.1418 6.19627 27.7024 5.72898 27.2371 5.2617ZM32.1483 15.3343C32.1741 15.5419 32.1741 15.7237 32.2 15.9313C32.1741 16.4765 32.1741 16.5025 32.0449 17.1255C31.9673 16.2169 31.8381 15.2823 31.6571 14.3478C31.7605 14.0103 31.8122 13.6988 31.8381 13.4392C31.9415 14.0882 32.0449 14.7112 32.1483 15.3343ZM31.8122 20.5782C31.7864 20.6301 31.7864 20.6561 31.7864 20.708C31.7864 20.6821 31.7864 20.6301 31.8122 20.6301C31.8381 20.6301 31.8122 20.5782 31.8122 20.5782ZM10.2807 31.8449C10.2032 31.819 10.1515 31.793 10.0739 31.7671C10.0998 31.7671 10.1256 31.793 10.1773 31.793C10.2032 31.793 10.229 31.819 10.2807 31.8449ZM29.305 25.1732C29.8995 24.3944 30.4164 23.6415 30.8817 22.8887C30.7008 23.4858 30.5198 24.005 30.3389 24.4982C29.8995 25.1991 29.4084 25.9 28.8655 26.601C29.0206 26.1856 29.1757 25.7183 29.305 25.1732ZM26.6426 27.7432C27.5473 26.9644 28.3744 26.1597 29.124 25.3808C28.9948 25.9 28.8655 26.3673 28.6846 26.7827C28.0126 27.4836 27.2888 28.1845 26.5134 28.8855C26.5909 28.548 26.6168 28.1845 26.6426 27.7432ZM23.1531 30.0277C24.2904 29.3787 25.3502 28.6778 26.41 27.9249C26.41 28.3663 26.3841 28.7297 26.3324 29.0412C25.4536 29.6902 24.5231 30.2873 23.5408 30.8325C23.4374 30.6248 23.3082 30.3652 23.1531 30.0277ZM19.2759 31.6373C20.4907 31.2219 21.6798 30.7286 22.8429 30.1835C23.0239 30.495 23.1531 30.7806 23.2823 30.9882C22.2743 31.4555 21.2403 31.8709 20.2064 32.2343C19.9479 32.0786 19.6119 31.8709 19.2759 31.6373ZM15.6054 32.3901C16.6911 32.2343 17.8284 32.0007 18.9916 31.7151C19.3534 31.9747 19.6894 32.1565 19.9738 32.2863C18.9657 32.5199 17.9835 32.7016 17.0012 32.8574C16.5618 32.7276 16.0966 32.5718 15.6054 32.3901ZM12.5812 32.3641C13.4342 32.4161 14.3647 32.442 15.347 32.3901C15.8381 32.5978 16.3292 32.7535 16.7686 32.8833C15.8898 32.9093 15.0109 32.9093 14.2096 32.8574C13.6668 32.7276 13.124 32.5718 12.5812 32.3641ZM31.2436 19.7994C31.5537 19.1504 31.8381 18.5533 32.019 17.9562C31.9932 18.761 31.9415 19.5138 31.8381 20.2407C31.6313 20.8638 31.3728 21.5128 31.0626 22.1877C31.166 21.4349 31.2177 20.6561 31.2436 19.7994ZM29.3825 22.2916C30.0546 21.4868 30.6491 20.708 31.1402 19.9811C31.1143 20.8378 31.0626 21.6426 30.9592 22.3954C30.494 23.1483 29.9512 23.9011 29.3567 24.6799C29.4084 23.953 29.4084 23.1483 29.3825 22.2916ZM26.2549 25.0953C27.3147 24.2126 28.2969 23.356 29.2016 22.4993C29.2274 23.356 29.2274 24.1607 29.2016 24.8876C28.4261 25.6924 27.5473 26.4971 26.6426 27.3019C26.5392 26.6529 26.41 25.9001 26.2549 25.0953ZM22.0416 27.7432C23.4116 26.9644 24.704 26.1596 25.9705 25.303C26.1515 26.1077 26.2807 26.8606 26.3841 27.5096C25.2985 28.2624 24.187 28.9893 22.998 29.6902C22.7137 29.1191 22.4035 28.4701 22.0416 27.7432ZM17.4148 29.7162C18.8365 29.197 20.2581 28.5739 21.6798 27.9249C22.0675 28.6518 22.3777 29.2749 22.662 29.82C21.4213 30.3912 20.1806 30.8844 18.9399 31.3257C18.4746 30.8844 17.9576 30.3652 17.4148 29.7162ZM13.2274 30.7286C14.4423 30.495 15.7347 30.2094 17.0529 29.82C17.6216 30.4431 18.1386 30.9623 18.6297 31.4036C17.4407 31.6892 16.2516 31.9228 15.1402 32.1045C14.5457 31.7411 13.8995 31.2738 13.2274 30.7286ZM10.0222 30.8844C10.9011 30.9104 11.8833 30.8584 12.9431 30.7806C13.6151 31.3257 14.2613 31.7671 14.8817 32.1565C13.8995 32.1824 12.9431 32.1824 12.0642 32.1305C11.418 31.7671 10.7201 31.3517 10.0222 30.8844ZM7.851 30.4171C8.41966 30.5988 9.09171 30.7286 9.81546 30.8325C10.5134 31.3257 11.1854 31.7411 11.8316 32.0786C11.082 31.9488 10.41 31.7671 9.78961 31.5853C9.16926 31.2738 8.52305 30.8844 7.851 30.4171ZM30.7266 15.8794C31.0885 15.3602 31.3987 14.8929 31.6054 14.4516C31.7864 15.4121 31.9156 16.3467 32.019 17.2553C31.8122 17.8005 31.5537 18.3976 31.2177 19.0466C31.1143 18.0082 30.9592 16.9438 30.7266 15.8794ZM28.5554 18.0341C29.3308 17.3072 30.0287 16.6323 30.5715 16.0092C30.8042 17.1255 30.9592 18.1899 31.0885 19.2023C30.5715 19.9292 29.977 20.708 29.2791 21.4868C29.124 20.3965 28.8655 19.2542 28.5554 18.0341ZM24.8849 20.7859C26.1515 19.9032 27.2888 19.0725 28.3227 18.2418C28.6329 19.4619 28.8914 20.6042 29.0982 21.6945C28.1676 22.5512 27.1596 23.4338 26.0481 24.3165C25.7379 23.2002 25.3502 22.032 24.8849 20.7859ZM19.9738 23.6675C21.5505 22.7848 23.0756 21.9022 24.5231 21.0195C24.9883 22.2656 25.376 23.4598 25.7379 24.5501C24.4455 25.4068 23.0756 26.2375 21.6539 27.0423C21.1628 26.0039 20.5941 24.8616 19.9738 23.6675ZM14.7525 26.0558C16.3292 25.3808 17.9318 24.654 19.5602 23.8752C20.1806 25.0953 20.7492 26.2116 21.292 27.224C19.8187 27.899 18.3712 28.548 16.8979 29.1191C16.2258 28.1845 15.5021 27.1721 14.7525 26.0558ZM30.3647 10.5576C30.5457 10.4278 30.6491 10.298 30.7266 10.2201C31.0626 11.0508 31.3728 11.8815 31.6571 12.7382C31.6313 12.9719 31.5796 13.2315 31.4504 13.543C31.1402 12.5565 30.7525 11.5441 30.3647 10.5576ZM29.1499 11.3883C29.6151 11.0768 30.0029 10.8172 30.2872 10.6095C30.7008 11.596 31.0626 12.6084 31.3987 13.6209C31.166 14.0103 30.8558 14.4516 30.4681 14.9189C30.0804 13.7507 29.641 12.5825 29.1499 11.3883ZM26.5909 12.894C27.5214 12.3488 28.2969 11.8815 28.9948 11.4662C29.5117 12.6863 29.9512 13.8805 30.3647 15.0487C29.7702 15.6458 29.0465 16.2688 28.2452 16.9697C27.7541 15.6458 27.2113 14.2699 26.5909 12.894ZM22.4552 15.1785C23.851 14.3997 25.1434 13.6988 26.3583 13.0498C26.9528 14.4256 27.5214 15.8015 28.0126 17.1774C26.9269 17.9562 25.7379 18.787 24.4714 19.6696C23.8252 18.1899 23.1531 16.7101 22.4552 15.1785ZM28.271 7.02699C28.5554 7.07891 28.788 7.1568 28.9689 7.23468C29.46 7.98752 29.9512 8.74037 30.3906 9.51917C30.2872 9.57109 30.1579 9.64897 29.9512 9.72685C29.4342 8.81825 28.8655 7.90964 28.271 7.02699ZM26.6684 7.13084C27.263 7.05295 27.7541 7.02699 28.1935 7.02699C28.788 7.90964 29.3825 8.84421 29.8995 9.80473C29.5634 9.98645 29.1499 10.1941 28.6588 10.4278C28.0384 9.28553 27.3663 8.1952 26.6684 7.13084ZM23.7476 7.88368C24.7557 7.59812 25.6604 7.33852 26.4617 7.1568C27.1596 8.22116 27.8575 9.33745 28.5037 10.4797C27.7799 10.8431 26.9528 11.2845 26.0222 11.7517C25.2985 10.4278 24.5489 9.12977 23.7476 7.88368ZM19.3793 9.54513C20.8268 8.94805 22.1967 8.42884 23.4633 7.98752C24.2646 9.25957 25.04 10.5576 25.7638 11.9075C24.5489 12.5306 23.2306 13.2055 21.809 13.9324C21.0077 12.4267 20.2064 10.947 19.3793 9.54513ZM14.0546 12.0373C15.7347 11.2066 17.3631 10.4278 18.9916 9.70089C19.8187 11.1287 20.62 12.6084 21.4213 14.1141C19.7928 14.9449 18.1386 15.8015 16.4326 16.6582C15.6313 15.1006 14.8558 13.569 14.0546 12.0373ZM0.949547 21.6685C0.975395 21.4609 1.07879 21.2272 1.18218 20.9417C1.54405 21.9541 1.95762 22.9406 2.39704 23.9271C2.21611 24.0309 2.06102 24.1088 1.95762 24.1607C1.59575 23.33 1.25973 22.4993 0.949547 21.6685ZM23.7735 3.88581C24.4714 3.96369 25.0917 4.09349 25.6345 4.22329C26.3066 4.8723 26.9786 5.57322 27.6507 6.32607C27.1854 6.27415 26.6684 6.27415 26.0481 6.30011C25.2985 5.46938 24.5489 4.63866 23.7735 3.88581ZM20.6975 4.09349C21.7573 3.96369 22.7137 3.91177 23.5925 3.88581C24.368 4.63866 25.1176 5.46938 25.893 6.37799C25.0659 6.50779 24.1353 6.71547 23.1014 6.97507C22.2743 5.91071 21.4988 4.95018 20.6975 4.09349ZM16.4584 5.18382C17.8284 4.76846 19.1466 4.40502 20.3874 4.14541C21.1886 5.02806 21.9899 5.98859 22.7912 7.05295C21.5247 7.46832 20.1547 7.9356 18.7072 8.48076C17.9318 7.2866 17.1822 6.19627 16.4584 5.18382ZM11.599 7.23468C13.124 6.53375 14.6232 5.88475 16.1224 5.28766C16.8203 6.30011 17.5699 7.4164 18.3453 8.61057C16.7428 9.31149 15.1143 10.0384 13.4859 10.8431C12.788 9.57109 12.1676 8.37692 11.599 7.23468ZM1.41481 15.2823C1.93178 14.5814 2.57798 13.8286 3.30173 13.0238C3.56021 14.166 3.84454 15.3862 4.20641 16.6582C3.40512 17.3591 2.68137 18.0082 2.08687 18.6052C1.80254 17.463 1.5699 16.3467 1.41481 15.2823ZM0.303344 18.5014C0.303344 18.138 0.35504 17.7486 0.458433 17.2813C0.587673 18.2158 0.76861 19.1504 0.975395 20.1369C0.872003 20.4484 0.794458 20.734 0.76861 20.9676C0.561825 20.1109 0.406736 19.3062 0.303344 18.5014ZM21.0853 1.9388C21.8348 2.0686 22.5069 2.25032 23.1014 2.43204C23.7476 2.82144 24.3938 3.26277 25.0659 3.75601C24.4972 3.60025 23.8768 3.47045 23.1531 3.36661C22.4552 2.82144 21.7573 2.35416 21.0853 1.9388ZM18.0352 1.91284C19.0432 1.86092 19.9996 1.86092 20.8526 1.9388C21.5505 2.35416 22.2484 2.8474 22.9722 3.39257C22.0933 3.39257 21.1111 3.41853 20.0513 3.52237C19.3534 2.87336 18.6814 2.35416 18.0352 1.91284ZM14.2355 2.63972C15.4504 2.3282 16.6394 2.09456 17.7508 1.91284C18.397 2.38012 19.0691 2.89932 19.767 3.52237C18.5263 3.78197 17.2597 4.09349 15.9156 4.4829C15.2953 3.78197 14.7525 3.15893 14.2355 2.63972ZM10.0481 4.30117C11.3405 3.73005 12.6071 3.21085 13.8995 2.74356C14.4164 3.26277 14.9592 3.88581 15.5537 4.6127C14.1063 5.15786 12.6588 5.78091 11.1854 6.45587C10.746 5.65111 10.3583 4.92422 10.0481 4.30117ZM6.19672 6.68951C7.33404 5.91071 8.4972 5.15786 9.71207 4.45694C10.0222 5.10594 10.3841 5.83283 10.7977 6.63759C9.37604 7.44236 8.03194 8.27308 6.71368 9.12977C6.5069 8.22116 6.32596 7.4164 6.19672 6.68951ZM1.38897 11.9075C1.88008 11.1547 2.42289 10.3759 3.04325 9.59705C3.04325 10.3759 3.0691 11.2585 3.14664 12.1671C2.44874 12.9719 1.82838 13.7247 1.33727 14.4516C1.31142 13.569 1.33727 12.7123 1.38897 11.9075ZM0.510129 14.0362C0.716914 13.4132 0.975395 12.7642 1.31142 12.0892C1.23388 12.868 1.20803 13.7247 1.23388 14.6333C0.897851 15.2823 0.63937 15.8794 0.432584 16.4246C0.406736 15.5939 0.432585 14.7891 0.510129 14.0362ZM16.0707 1.00423C16.9754 0.978272 17.8284 0.978271 18.6297 1.03019C19.1725 1.18595 19.7411 1.39363 20.3357 1.65324C19.4568 1.60132 18.5263 1.57535 17.5441 1.62727C17.0012 1.36767 16.5101 1.15999 16.0707 1.00423ZM12.7621 1.57536C13.7961 1.34171 14.83 1.15999 15.8122 1.00423C16.2516 1.15999 16.7428 1.36767 17.2856 1.62727C16.2 1.809 15.0368 2.01668 13.8478 2.30224C13.4342 2.01668 13.0723 1.78304 12.7621 1.57536ZM9.2985 2.92528C10.3583 2.458 11.418 2.04264 12.4778 1.6792C12.788 1.86092 13.124 2.12052 13.5117 2.40608C12.271 2.8474 11.0562 3.34065 9.81546 3.91177C9.63452 3.52237 9.45359 3.18489 9.2985 2.92528ZM6.14502 4.92422C7.07556 4.27521 8.03194 3.65217 9.01417 3.08105C9.14341 3.34065 9.32435 3.67813 9.50528 4.06753C8.34212 4.7425 7.2048 5.46938 6.11918 6.22223C6.11918 5.70303 6.11918 5.28766 6.14502 4.92422ZM3.6636 7.23468C4.3615 6.50779 5.1111 5.78091 5.91239 5.07998C5.88654 5.44342 5.86069 5.88475 5.86069 6.40395C4.93016 7.20872 4.05132 7.98752 3.27588 8.79229C3.40512 8.22116 3.50851 7.70196 3.6636 7.23468ZM1.98347 9.57109C2.42289 8.87017 2.91401 8.14328 3.48267 7.4164C3.35342 7.88368 3.22418 8.40288 3.12079 8.99997C2.50044 9.77877 1.95762 10.5576 1.49236 11.3104C1.64745 10.6874 1.80254 10.1163 1.98347 9.57109ZM18.2678 22.9925L13.4084 12.5825L10.5651 13.9324L13.1499 19.41L6.53275 16.0352L3.94793 17.8784L8.4972 27.5875L11.3405 26.2635L8.67814 20.5523L15.7605 24.1607L18.2678 22.9925Z"
        fill="#007CF9" />
</svg>