<svg width="32" height="32" viewBox="0 0 32 32" fill="none" xmlns="http://www.w3.org/2000/svg">
    <g clip-path="url(#clip0_690_161)">
        <path
            d="M12.8852 30.8424C6.53945 29.7702 1.28045 25.279 0.426592 20.2129C0.15491 18.5656 0.329563 16.2967 0.853523 14.8204C2.23134 10.9353 6.55885 7.3766 11.3909 6.18C12.9822 5.79149 13.1568 5.97798 12.3418 7.28336C11.7597 8.24686 11.6626 8.30902 10.3236 8.83739C5.78262 10.5779 2.98817 14.1988 2.96876 18.3325C2.96876 19.1561 3.1046 20.1973 3.27926 20.8189C3.72559 22.2798 5.00638 24.2845 6.07371 25.2479L6.96638 26.0405L8.88756 25.7763C10.343 25.5743 11.4686 25.5277 13.642 25.5899C16.8246 25.683 18.6876 25.9939 21.4432 26.8797L23.1509 27.4391L24.0047 26.9574C26.1394 25.7918 28.2352 23.3365 29.0114 21.1143C29.4384 19.9021 29.3801 16.3589 28.9144 15.2866C27.6336 12.3028 25.2468 10.034 22.1224 8.85293C21.5402 8.63537 21.0162 8.38672 20.9581 8.32456C20.8998 8.2624 20.9774 7.81173 21.0938 7.36106C21.2685 6.78607 21.4432 6.4908 21.6566 6.45972C22.1806 6.38202 24.9168 7.59417 26.3141 8.52658C28.7204 10.1117 30.7968 12.6914 31.6506 15.1312C31.903 15.8927 32 16.7164 32 18.3947C32 20.3217 31.9223 20.8189 31.5342 21.8135C28.9727 28.356 21.0162 32.21 12.8852 30.8424Z"
            fill="#E62045" />
        <path
            d="M14.9229 24.7507C14.1854 24.673 12.827 24.4554 11.9149 24.2845C10.0714 23.927 6.24842 22.6993 5.8797 22.3419C5.72445 22.1865 5.68564 21.7669 5.78267 20.8967L5.91851 19.6534L5.18109 19.6068L4.44366 19.5602L4.50188 18.4413C4.54069 17.8197 4.61832 17.0272 4.69595 16.6541C4.8512 15.9859 4.8512 15.9859 5.62742 16.017L6.42307 16.0325L6.65594 14.3852C6.79178 13.4684 6.94702 12.6758 7.02465 12.6137C7.29633 12.3961 9.54741 12.0076 11.5851 11.8211C13.5256 11.6501 13.6614 11.6191 13.6614 11.2928C13.6614 10.8576 13.9137 10.7488 14.8259 10.7488L15.5827 10.7644L16.1648 9.35017L16.747 7.95158L15.3303 8.06036C14.4377 8.12252 13.8556 8.10698 13.7779 7.9982C13.6614 7.85834 17.5621 1.06722 17.9502 0.756417C18.0665 0.678716 18.2024 0.678716 18.3189 0.771958C18.4353 0.865199 18.2413 1.78208 17.8337 3.30503C17.4651 4.62595 17.1545 5.7604 17.1545 5.8381C17.1545 5.90026 17.7173 5.96242 18.4159 5.96242C19.3473 5.96242 19.7161 6.02458 19.7937 6.17998C19.8519 6.30431 19.6191 7.40767 19.2892 8.60428C18.9398 9.81645 18.7264 10.8576 18.804 10.9043C18.8816 10.9664 19.2892 11.0752 19.7355 11.1684C20.4924 11.3083 20.5505 11.3549 20.5117 11.8056C20.4535 12.2718 20.4924 12.2873 21.676 12.5515C23.0927 12.8623 26.3723 13.9968 26.6246 14.2454C26.7411 14.3541 26.7411 14.836 26.644 15.442C26.5663 16.0014 26.45 16.7474 26.3917 17.1048L26.2947 17.7575L27.0127 17.8041L27.7308 17.8507L27.6725 19.4669C27.6143 21.3162 27.4784 21.5648 26.5276 21.425C25.8095 21.3162 25.8095 21.3473 25.6155 22.8858C25.5573 23.352 25.402 23.8337 25.2662 23.9425C24.49 24.5642 17.8919 25.077 14.9229 24.7507ZM20.2983 22.2642C21.4044 22.1709 22.3747 22.0467 22.4524 21.9845C22.5881 21.8757 23.3644 16.9028 23.3644 16.048C23.3644 15.6906 23.2092 15.6129 21.8701 15.24C19.4056 14.5717 17.9889 14.3541 15.311 14.2454C13.2345 14.1677 10.1102 14.3541 9.8385 14.5562C9.74147 14.6495 8.98465 20.6169 9.06227 20.8034C9.21752 21.0986 12.8659 21.969 14.9616 22.202C17.4068 22.4662 17.8919 22.4662 20.2983 22.2642Z"
            fill="#E62045" />
        <path
            d="M19.6772 19.0939L19.2308 18.7055L18.571 19.0318C17.9694 19.3426 17.8918 19.3426 17.4455 19.1095C16.708 18.721 16.8245 18.2082 17.7753 17.5555C18.9397 16.763 19.6772 16.7785 20.6669 17.6487C21.5013 18.3791 21.6177 18.8298 21.0744 19.2183C20.5699 19.5757 20.2012 19.5446 19.6772 19.0939Z"
            fill="#E62045" />
        <path
            d="M13.6615 18.6121C13.0986 18.2236 13.0404 18.2236 12.7105 18.4568C12.2836 18.7675 11.4491 18.7831 11.158 18.4878C10.7117 18.0683 11.0028 17.4622 11.8567 16.9494C12.9822 16.3122 13.7002 16.3433 14.6511 17.0892C15.602 17.8196 15.6991 18.177 15.1169 18.6432C14.5347 19.1095 14.4183 19.1095 13.6615 18.6121Z"
            fill="#E62045" />
    </g>
    <defs>
        <clipPath id="clip0_690_161">
            <rect width="32" height="32" fill="white" />
        </clipPath>
    </defs>
</svg>