<svg width="32" height="32" viewBox="0 0 32 32" fill="none" xmlns="http://www.w3.org/2000/svg">
<path fill-rule="evenodd" clip-rule="evenodd" d="M31.5671 6.70967H29.4281L23.9404 17.7006L21.9591 15.6996L26.4405 6.72252L26.413 6.70967H24.274L20.5129 14.242L18.8816 12.5953L21.8143 6.72252L21.785 6.70967H19.646L15.709 14.5963L13.1117 11.9748H11.913L10.7583 14.2695L8.48366 11.9748H7.28495L0.516129 25.4385H2.6936L8.21239 14.466L9.83639 16.1053L5.14234 25.4385H7.31979L11.2807 17.5629L13.2547 19.5566L10.2964 25.4385H12.4739L16.257 17.9154L18.6177 20.2964H19.6643L21.0408 17.5409L23.7736 20.2983H24.8202L31.5964 6.72436L31.5671 6.70967ZM13.81 17.7L12.2044 16.0791L13.0182 14.4617L14.6202 16.0772L13.81 17.7ZM17.1802 16.0791L18.7858 17.7L19.5959 16.0772L17.994 14.4617L17.1802 16.0791Z" fill="#7081FF"/>
</svg>
