<svg width="32" height="32" viewBox="0 0 32 32" fill="none" xmlns="http://www.w3.org/2000/svg">
    <g clip-path="url(#clip0_699_109)">
        <path fill-rule="evenodd" clip-rule="evenodd"
            d="M-0.25 -0.25C10.4166 -0.25 21.0834 -0.25 31.75 -0.25C31.75 10.4166 31.75 21.0834 31.75 31.75C21.0834 31.75 10.4166 31.75 -0.25 31.75C-0.25 21.0834 -0.25 10.4166 -0.25 -0.25Z"
            fill="#035B2E" />
        <path fill-rule="evenodd" clip-rule="evenodd"
            d="M24.75 10.75C25.0675 15.1169 24.7342 19.2836 23.75 23.25C21.9471 23.0306 20.8638 22.0306 20.5 20.25C20.3333 17.25 20.1666 14.25 20 11.25C18.1396 8.66749 15.7229 8.08414 12.75 9.50004C12.3947 10.1274 11.978 10.7107 11.5 11.25C11.4427 14.7895 11.1094 18.2895 10.5 21.75C9.50249 22.8735 8.25249 23.3735 6.74999 23.25C6.66679 18.7469 6.75009 14.2469 6.99999 9.75004C9.66874 4.2084 13.9187 2.4584 19.75 4.50004C22.2652 5.92909 23.9318 8.01244 24.75 10.75Z"
            fill="#FBFCFB" />
        <path fill-rule="evenodd" clip-rule="evenodd"
            d="M24.75 10.75C25.2465 14.992 25.4132 19.3253 25.25 23.75C24.6045 23.8686 24.1045 23.702 23.75 23.25C24.7342 19.2836 25.0675 15.1168 24.75 10.75Z"
            fill="#7AA991" />
        <path fill-rule="evenodd" clip-rule="evenodd"
            d="M16.25 24.75C17.3906 24.5386 18.2239 24.872 18.75 25.75C17.781 27.5846 16.281 28.1679 14.25 27.5C13.1965 26.8682 12.6965 25.9516 12.75 24.75C13.9166 24.75 15.0833 24.75 16.25 24.75Z"
            fill="#FBFCFC" />
        <path fill-rule="evenodd" clip-rule="evenodd"
            d="M16.25 24.75C17.1323 24.2693 18.1323 24.1026 19.25 24.25C19.3686 24.8955 19.202 25.3955 18.75 25.75C18.224 24.872 17.3906 24.5386 16.25 24.75Z"
            fill="#5C9578" />
    </g>
    <defs>
        <clipPath id="clip0_699_109">
            <rect width="32" height="32" fill="white" />
        </clipPath>
    </defs>
</svg>