<svg width="32" height="32" viewBox="0 0 32 32" fill="none" xmlns="http://www.w3.org/2000/svg">
<g clip-path="url(#clip0_6021_719)">
<mask id="mask0_6021_719" style="mask-type:luminance" maskUnits="userSpaceOnUse" x="0" y="0" width="32" height="32">
<path d="M32 0H0V32H32V0Z" fill="white"/>
</mask>
<g mask="url(#mask0_6021_719)">
<path fill-rule="evenodd" clip-rule="evenodd" d="M16 10.8799C15.9051 9.50513 15.8104 8.13032 15.7156 6.7555C15.7774 5.77478 15.6352 4.82663 15.2889 3.91106C15.1788 3.7388 15.0603 3.7388 14.9333 3.91106C14.6315 5.41154 14.442 6.92859 14.3644 8.46217C14.1914 16.0475 14.0255 23.6326 13.8666 31.2178C11.818 30.5458 10.064 29.408 8.60438 27.8044C4.33135 23.2467 3.16986 17.9844 5.11994 12.0177C6.40354 8.09633 8.56058 4.75411 11.5911 1.99106C13.2015 0.539334 15.003 0.254889 16.9956 1.13773C21.1911 3.24735 24.3437 6.39995 26.4533 10.5955C27.9576 14.0083 28.0525 17.4692 26.7378 20.9778C24.9492 25.1837 22.0336 28.3362 17.9911 30.4356C17.3087 30.75 16.5976 30.9633 15.8578 31.0756C15.834 28.9892 15.8578 26.9032 15.9289 24.8178C17.5275 22.9001 19.0919 20.9564 20.6222 18.9867C20.9692 18.34 21.2774 17.6764 21.5467 16.9956C21.4756 16.9482 21.4044 16.9007 21.3333 16.8533C19.3439 18.4634 17.5425 20.265 15.9289 22.2578C15.834 19.1763 15.834 16.0949 15.9289 13.0133C16.7349 11.8755 17.5407 10.7377 18.3467 9.59995C18.5071 9.3375 18.5782 9.05306 18.56 8.74661C18.2353 8.76196 17.9509 8.88047 17.7067 9.10217C17.1088 9.67612 16.5399 10.2687 16 10.8799Z" fill="#DE6C26"/>
<path fill-rule="evenodd" clip-rule="evenodd" d="M15.7154 6.75556C15.8103 8.13038 15.905 9.50518 15.9998 10.88C15.9913 10.9572 15.944 11.0046 15.8576 11.0222C15.7155 9.60316 15.6682 8.18094 15.7154 6.75556Z" fill="#F1C6AE"/>
</g>
</g>
<defs>
<clipPath id="clip0_6021_719">
<rect width="32" height="32" fill="white"/>
</clipPath>
</defs>
</svg>
