<svg width="32" height="32" viewBox="0 0 32 32" fill="none" xmlns="http://www.w3.org/2000/svg">
<g clip-path="url(#clip0_85_946)">
<path fill-rule="evenodd" clip-rule="evenodd" d="M15.0044 1.92773C20.6505 1.93331 23.7794 4.74283 24.3911 10.3563C24.3698 11.0822 24.2749 11.7965 24.1067 12.4992C22.6088 12.4563 21.1866 12.7658 19.84 13.4277C23.8758 12.5389 27.1233 13.7531 29.5822 17.0706C31.6672 21.2432 31.0272 24.9336 27.6622 28.142C24.4426 30.3533 21.1241 30.4962 17.7067 28.5706C17.2308 28.2832 16.8516 27.9022 16.5689 27.4277C17.2146 26.2444 17.5701 24.9824 17.6355 23.642C15.6524 28.912 11.9309 30.8406 6.4711 29.4277C2.63649 27.7017 0.858717 24.7256 1.13777 20.4992C1.74901 17.0047 3.71641 14.6714 7.03999 13.4992C7.17395 13.5146 7.29248 13.5622 7.39555 13.642C8.0375 14.693 8.84341 15.5979 9.81333 16.3563C9.90814 16.261 9.90814 16.1659 9.81333 16.0706C6.92678 12.5985 6.73716 8.97948 9.24444 5.21345C10.7592 3.39338 12.6792 2.29813 15.0044 1.92773Z" fill="#1861D4"/>
<path fill-rule="evenodd" clip-rule="evenodd" d="M15.4314 5.78516C18.4299 5.82191 20.0892 7.32191 20.4092 10.2852C20.1953 13.1905 18.6309 14.738 15.7159 14.928C13.0632 14.5496 11.6409 13.0257 11.4492 10.3566C11.6197 7.805 12.9471 6.2812 15.4314 5.78516Z" fill="#FCFDFE"/>
<path fill-rule="evenodd" clip-rule="evenodd" d="M8.46204 17.0718C12.0627 16.9034 13.8879 18.6177 13.9376 22.2147C13.2505 24.9031 11.5202 26.1651 8.74649 26.0004C5.47418 24.9746 4.36011 22.808 5.40426 19.5004C6.14985 18.3301 7.1691 17.5206 8.46204 17.0718Z" fill="#FDFDFE"/>
<path fill-rule="evenodd" clip-rule="evenodd" d="M21.4036 17.0718C25.0042 16.9034 26.8293 18.6177 26.8791 22.2147C26.1686 24.9741 24.3908 26.236 21.5458 26.0004C18.6947 25.107 17.5331 23.1784 18.0613 20.2147C18.6567 18.5923 19.7709 17.5447 21.4036 17.0718Z" fill="#FCFDFE"/>
</g>
<defs>
<clipPath id="clip0_85_946">
<rect width="32" height="32" fill="white"/>
</clipPath>
</defs>
</svg>
