<svg width="32" height="32" viewBox="0 0 32 32" fill="none" xmlns="http://www.w3.org/2000/svg">
<g clip-path="url(#clip0_86_1031)">
<path d="M32.001 16.9997C32.001 23.6271 22.8375 29.4997 14.001 29.4997C5.16442 29.4997 0.000978179 23.6271 0.000978179 16.9997C-0.999782 8.99973 8.16442 2.49972 17.001 2.49972C27 2 32.5 7.99973 32.001 16.9997Z" fill="white"/>
<path fill-rule="evenodd" clip-rule="evenodd" d="M27.6446 24.5676C27.5267 22.0925 27.4089 19.6174 27.291 17.1422C27.2109 16.9729 27.0932 16.8254 26.9374 16.7002C26.3961 16.5692 25.8657 16.5986 25.3462 16.7886C24.5158 18.3326 23.6907 19.8649 22.8711 21.3853C22.1353 19.9137 21.3986 18.4403 20.6612 16.9654C20.3698 16.6953 20.0162 16.5774 19.6004 16.6118C19.1846 16.5774 18.831 16.6953 18.5396 16.9654C18.4512 20.324 18.4217 23.6831 18.4512 27.0428C19.0405 27.0428 19.6299 27.0428 20.2192 27.0428C20.3371 24.8033 20.4548 22.564 20.5728 20.3246C20.9269 21.2978 21.3982 22.2113 21.9871 23.0649C22.6807 23.2051 23.3584 23.1756 24.0203 22.9765C24.4918 22.0336 24.9631 21.0906 25.4346 20.1478C25.5526 22.1514 25.5526 24.1552 25.4346 26.1588C20.0544 29.2342 14.3676 30.0298 8.37387 28.5456C6.91247 27.9665 5.58651 27.171 4.39597 26.1588C4.45245 25.516 4.54085 24.8677 4.66116 24.2141C5.78086 24.2141 6.90058 24.2141 8.02028 24.2141C8.23512 25.1495 8.41191 26.0923 8.55066 27.0428C9.19892 27.0428 9.84716 27.0428 10.4954 27.0428C9.98872 24.4266 9.36993 21.8335 8.63906 19.2638C8.51354 18.4341 8.18942 17.6974 7.66668 17.0538C6.63262 16.4354 5.66025 16.5238 4.74956 17.319C4.01925 19.5917 3.37099 21.8901 2.80481 24.2141C0.433889 20.6985 -0.33222 16.8678 0.506463 12.7223C1.36092 10.3631 2.77528 8.41833 4.74956 6.88809C4.48832 8.51371 4.42938 10.1638 4.57276 11.8384C5.64241 15.0391 7.73449 15.9526 10.849 14.5787C11.4257 14.1204 11.8677 13.5606 12.175 12.8991C12.4565 11.0853 12.5154 9.25842 12.3518 7.41848C11.7684 5.57805 10.5013 4.6646 8.55066 4.67815C13.5204 2.23649 18.6475 1.82396 23.9319 3.44058C24.7968 3.7755 25.6219 4.18802 26.407 4.67815C25.5819 4.73707 24.757 4.79602 23.9319 4.85494C23.1363 5.17906 22.5764 5.73892 22.2523 6.5345C22.1344 8.77392 22.1344 11.0133 22.2523 13.2527C22.5361 14.3025 23.2137 14.9213 24.2855 15.1091C25.6374 15.2758 26.9634 15.1874 28.2634 14.8439C28.3512 14.3761 28.3808 13.9046 28.3518 13.4295C27.0451 13.4824 25.7486 13.4234 24.4623 13.2527C24.3295 13.0979 24.2411 12.9211 24.1971 12.7223C24.1089 12.0176 24.0793 11.3104 24.1087 10.6008C25.4642 10.6008 26.8195 10.6008 28.175 10.6008C28.175 10.0704 28.175 9.54003 28.175 9.00964C26.8195 9.00964 25.4642 9.00964 24.1087 9.00964C24.0793 8.30002 24.1089 7.59283 24.1971 6.88809C24.3443 6.74077 24.4918 6.59343 24.6391 6.4461C25.9355 6.32823 27.2321 6.32823 28.5286 6.4461C31.4517 10.2104 32.3652 14.4241 31.2689 19.087C30.5898 21.2716 29.3818 23.0987 27.6446 24.5676Z" fill="#096EC3"/>
<path fill-rule="evenodd" clip-rule="evenodd" d="M19.1585 12.3678C19.1691 12.4639 19.228 12.5228 19.3353 12.5446C19.5119 9.95431 19.571 7.3613 19.5121 4.76562C20.0425 4.76562 20.5729 4.76562 21.1033 4.76562C21.1328 8.12525 21.1033 11.4844 21.0149 14.843C20.662 15.1186 20.2495 15.2365 19.7773 15.1966C19.2835 15.231 18.8415 15.1133 18.4513 14.843C17.4065 12.4591 16.3164 10.1018 15.1806 7.77115C15.1217 10.1874 15.0627 12.6036 15.0038 15.0198C14.4734 15.2554 13.943 15.2554 13.4127 15.0198C13.2947 11.6607 13.2947 8.30154 13.4127 4.94242C14.2378 4.7067 15.0627 4.7067 15.8878 4.94242C17.0288 7.4006 18.119 9.87574 19.1585 12.3678Z" fill="#FAFCFD"/>
<path fill-rule="evenodd" clip-rule="evenodd" d="M19.5118 4.76562C19.5707 7.3613 19.5116 9.95431 19.335 12.5446C19.2277 12.5228 19.1688 12.4639 19.1582 12.3678C19.2761 9.83377 19.3939 7.29969 19.5118 4.76562Z" fill="#D1E4F3"/>
<path fill-rule="evenodd" clip-rule="evenodd" d="M7.84419 6.3577C9.05658 6.21877 9.91109 6.69023 10.4077 7.77206C10.5256 9.06856 10.5256 10.3651 10.4077 11.6616C9.88968 13.47 8.79943 13.912 7.13701 12.9875C6.80918 12.538 6.60293 12.037 6.51822 11.4848C6.36828 10.1766 6.42723 8.88013 6.69502 7.59527C6.99453 7.09006 7.37757 6.67752 7.84419 6.3577Z" fill="#116FC3"/>
<path fill-rule="evenodd" clip-rule="evenodd" d="M14.9162 23.153C14.209 23.153 13.5018 23.153 12.7946 23.153C12.7946 24.4494 12.7946 25.746 12.7946 27.0425C12.2053 27.0425 11.616 27.0425 11.0267 27.0425C10.9972 23.6828 11.0267 20.3237 11.1151 16.9651C12.8584 16.4682 14.5969 16.4977 16.3305 17.0535C18.0483 18.0487 18.5493 19.4924 17.8333 21.385C17.2414 22.577 16.269 23.1662 14.9162 23.153Z" fill="#F9FBFD"/>
<path fill-rule="evenodd" clip-rule="evenodd" d="M27.2916 17.1426C27.4095 19.6177 27.5272 22.0929 27.6452 24.568C27.6346 24.664 27.5757 24.7229 27.4684 24.7448C27.2918 22.2134 27.2327 19.6794 27.2916 17.1426Z" fill="#5890CF"/>
<path fill-rule="evenodd" clip-rule="evenodd" d="M6.07538 18.3789C6.25218 18.3789 6.42898 18.3789 6.60577 18.3789C6.95614 19.7805 7.25081 21.1949 7.48975 22.622C6.72364 22.622 5.95751 22.622 5.19141 22.622C5.48644 21.2068 5.78111 19.7924 6.07538 18.3789Z" fill="#1F72C4"/>
<path fill-rule="evenodd" clip-rule="evenodd" d="M12.9707 18.2039C14.1563 18.0106 15.1875 18.3054 16.0646 19.0879C16.2755 19.9103 16.1283 20.647 15.6226 21.2978C14.7613 21.5432 13.8773 21.6316 12.9707 21.563C12.9707 20.4433 12.9707 19.3235 12.9707 18.2039Z" fill="#126EC3"/>
<path fill-rule="evenodd" clip-rule="evenodd" d="M20.5728 20.3252C20.4549 22.5647 20.3372 24.804 20.2192 27.0435C20.1605 24.7421 20.2194 22.4438 20.396 20.1484C20.5034 20.1704 20.5622 20.2292 20.5728 20.3252Z" fill="#CBDBEF"/>
<path fill-rule="evenodd" clip-rule="evenodd" d="M14.9145 23.1523C14.3024 23.326 13.6541 23.3848 12.9698 23.3291C13.0272 24.5998 12.9682 25.8373 12.793 27.0418C12.793 25.7454 12.793 24.4488 12.793 23.1523C13.5002 23.1523 14.2073 23.1523 14.9145 23.1523Z" fill="#BDD5ED"/>
</g>
<defs>
<clipPath id="clip0_86_1031">
<rect width="32" height="32" fill="white"/>
</clipPath>
</defs>
</svg>
