<svg width="32" height="32" viewBox="0 0 32 32" fill="none" xmlns="http://www.w3.org/2000/svg">
<g clip-path="url(#clip0_86_1035)">
<path fill-rule="evenodd" clip-rule="evenodd" d="M-0.0722656 -0.0722656C10.5944 -0.0722656 21.261 -0.0722656 31.9277 -0.0722656C31.9277 10.5944 31.9277 21.261 31.9277 31.9277C21.261 31.9277 10.5944 31.9277 -0.0722656 31.9277C-0.0722656 21.261 -0.0722656 10.5944 -0.0722656 -0.0722656Z" fill="#3B5C66"/>
<path fill-rule="evenodd" clip-rule="evenodd" d="M9.78667 12.0721C11.7174 11.8607 13.3602 12.4322 14.7152 13.7864C15.0278 14.2181 15.2421 14.6944 15.3581 15.2149C14.9501 15.9817 14.4024 16.6484 13.7152 17.215C13.6088 14.5355 12.2516 13.4641 9.64381 14.0007C8.2777 14.853 7.82533 16.0672 8.28667 17.6435C9.07787 19.5501 10.435 20.0977 12.3581 19.2864C12.9787 18.9762 13.5501 18.5954 14.0724 18.1435C14.5737 17.5235 15.0975 16.9282 15.6438 16.3578C16.034 16.7072 16.3197 17.1358 16.501 17.6435C15.4885 19.1568 14.1552 20.2758 12.501 21.0007C8.07843 21.7214 6.007 19.8404 6.28667 15.3578C6.92677 13.6937 8.09344 12.5984 9.78667 12.0721Z" fill="#F9FAFA"/>
<path fill-rule="evenodd" clip-rule="evenodd" d="M20.9287 12.0709C22.6431 11.7932 24.0955 12.2694 25.2858 13.4994C25.4857 13.9085 25.6285 14.337 25.7144 14.7851C25.7858 16.9274 25.8097 19.0703 25.7858 21.2137C25.1191 21.2137 24.4525 21.2137 23.7858 21.2137C23.9402 20.2646 23.7497 20.0979 23.2144 20.7137C21.9677 21.2606 20.682 21.3557 19.3572 20.9994C17.7121 20.016 17.3072 18.6589 18.1429 16.928C18.5561 16.5627 19.0085 16.2531 19.5001 15.9994C20.9172 15.7961 22.3458 15.7247 23.7858 15.7851C23.9378 14.9703 23.6521 14.375 22.9287 13.9994C21.5618 13.5483 20.3237 13.7625 19.2144 14.6423C18.8737 14.3017 18.5879 13.9208 18.3572 13.4994C18.4734 13.3117 18.6162 13.1451 18.7858 12.9994C19.4811 12.6031 20.1954 12.2936 20.9287 12.0709Z" fill="#E6A324"/>
<path fill-rule="evenodd" clip-rule="evenodd" d="M17.214 14.3574C17.6644 14.6434 17.9979 15.0481 18.214 15.5717C17.9703 15.9391 17.7084 16.2963 17.4283 16.6431C17.0753 16.2469 16.8133 15.7946 16.6426 15.286C16.7497 14.9187 16.9401 14.6091 17.214 14.3574Z" fill="#F4F6F6"/>
<path fill-rule="evenodd" clip-rule="evenodd" d="M20.5005 17.2148C21.5958 17.2148 22.6909 17.2148 23.7862 17.2148C23.8523 18.8761 23.0428 19.6856 21.3576 19.6434C20.0743 19.7647 19.479 19.1933 19.5719 17.9291C19.8262 17.6014 20.1358 17.3633 20.5005 17.2148Z" fill="#3E5D64"/>
</g>
<defs>
<clipPath id="clip0_86_1035">
<rect width="32" height="32" fill="white"/>
</clipPath>
</defs>
</svg>
