<svg width="32" height="32" viewBox="0 0 32 32" fill="none" xmlns="http://www.w3.org/2000/svg">
<path d="M13.8258 13.9942C12.5668 13.2673 11.5829 12.1453 11.0266 10.8022C10.4702 9.45915 10.3726 7.97003 10.7489 6.56582C11.1251 5.16161 11.9542 3.9208 13.1076 3.03581C14.2609 2.15083 15.674 1.67114 17.1278 1.67114C18.5815 1.67114 19.9946 2.15083 21.1479 3.03581C22.3013 3.9208 23.1304 5.16161 23.5066 6.56582C23.8829 7.97003 23.7853 9.45915 23.229 10.8022C22.6726 12.1453 21.6887 13.2673 20.4297 13.9942L18.4414 10.5503C18.9422 10.2611 19.3337 9.81474 19.555 9.28043C19.7763 8.74611 19.8151 8.15369 19.6655 7.59506C19.5158 7.03642 19.1859 6.54279 18.7271 6.19072C18.2683 5.83864 17.7061 5.64781 17.1278 5.64781C16.5494 5.64781 15.9872 5.83864 15.5284 6.19072C15.0696 6.54279 14.7397 7.03642 14.5901 7.59506C14.4404 8.15369 14.4792 8.74611 14.7005 9.28043C14.9218 9.81474 15.3133 10.2611 15.8141 10.5503L13.8258 13.9942Z" fill="#FF0101"/>
<path d="M27.9675 15.5929C29.2264 16.3197 30.2104 17.4417 30.7667 18.7848C31.323 20.1279 31.4206 21.617 31.0444 23.0212C30.6681 24.4254 29.839 25.6662 28.6857 26.5512C27.5324 27.4362 26.1193 27.9159 24.6655 27.9159C23.2118 27.9159 21.7987 27.4362 20.6453 26.5512C19.492 25.6662 18.6629 24.4254 18.2867 23.0212C17.9104 21.617 18.008 20.1279 18.5643 18.7848C19.1206 17.4417 20.1046 16.3197 21.3636 15.5929L23.3519 19.0368C22.851 19.3259 22.4596 19.7723 22.2383 20.3066C22.017 20.8409 21.9781 21.4333 22.1278 21.992C22.2775 22.5506 22.6073 23.0442 23.0662 23.3963C23.525 23.7484 24.0872 23.9392 24.6655 23.9392C25.2439 23.9392 25.806 23.7484 26.2649 23.3963C26.7237 23.0442 27.0535 22.5506 27.2032 21.992C27.3529 21.4333 27.3141 20.8409 27.0928 20.3066C26.8714 19.7723 26.48 19.3259 25.9791 19.0368L27.9675 15.5929Z" fill="#0101FF"/>
<path d="M16.3361 21.312C16.3361 22.7658 15.8564 24.1789 14.9714 25.3322C14.0864 26.4856 12.8456 27.3147 11.4414 27.6909C10.0372 28.0672 8.54808 27.9696 7.20499 27.4132C5.86191 26.8569 4.73993 25.873 4.01306 24.614C3.28619 23.355 2.99505 21.8914 3.1848 20.4501C3.37455 19.0088 4.03459 17.6703 5.06254 16.6424C6.09049 15.6144 7.42891 14.9544 8.87021 14.7647C10.3115 14.5749 11.7752 14.866 13.0341 15.5929L11.0458 19.0368C10.5449 18.7476 9.96267 18.6318 9.38927 18.7073C8.81588 18.7828 8.28342 19.0454 7.87447 19.4543C7.46552 19.8633 7.20294 20.3957 7.12745 20.9691C7.05196 21.5425 7.16778 22.1248 7.45695 22.6257C7.74612 23.1265 8.19248 23.518 8.7268 23.7393C9.26112 23.9606 9.85353 23.9994 10.4122 23.8497C10.9708 23.7001 11.4644 23.3702 11.8165 22.9114C12.1686 22.4526 12.3594 21.8904 12.3594 21.312L16.3361 21.312Z" fill="#01FF01"/>
</svg>
