<svg width="32" height="32" viewBox="0 0 32 32" fill="none" xmlns="http://www.w3.org/2000/svg">
<g clip-path="url(#clip0_87_1195)">
<path opacity="0.992" fill-rule="evenodd" clip-rule="evenodd" d="M21.0004 0.599609C26.7957 2.79377 30.2623 6.92709 31.4004 12.9996C31.8602 19.1603 29.5935 24.027 24.6004 27.5996C23.113 28.5452 21.513 29.1452 19.8004 29.3996C19.0667 27.7942 18.8001 26.0609 19.0004 24.1996C18.4671 24.1996 17.9337 24.1996 17.4004 24.1996C18.6619 23.5987 19.9953 23.0654 21.4004 22.5996C21.6898 21.4191 21.6232 20.2191 21.2004 18.9996C21.0474 18.7772 20.8474 18.6439 20.6004 18.5996C21.0303 18.1142 21.297 17.5142 21.4004 16.7996C21.4046 11.4596 21.2712 6.05965 21.0004 0.599609Z" fill="#899D1B"/>
<path opacity="0.997" fill-rule="evenodd" clip-rule="evenodd" d="M11.8001 0.599609C12.2941 0.688177 12.6941 0.954845 13.0001 1.39961C13.6271 2.81769 14.0271 4.28437 14.2001 5.79961C14.7495 5.73693 15.2829 5.80361 15.8001 5.99961C15.3051 6.09245 14.9051 6.29245 14.6001 6.59961C11.1608 6.96737 8.16078 8.30073 5.60014 10.5996C4.3613 12.8272 4.29462 15.0939 5.40014 17.3996C5.4545 19.4592 5.32118 21.5926 5.00014 23.7996C4.62862 23.3797 4.36198 23.3797 4.20014 23.7996C1.53439 20.7306 0.467725 17.1306 1.00014 12.9996C2.17346 6.75921 5.77346 2.62588 11.8001 0.599609Z" fill="#A1AF0D"/>
<path fill-rule="evenodd" clip-rule="evenodd" d="M14.5992 6.59961C17.7774 6.64089 19.7107 8.24089 20.3992 11.3996C21.0003 13.7283 20.4003 15.6616 18.5992 17.1996C16.5433 18.107 14.41 18.7737 12.1992 19.1996C11.1418 20.1712 11.3418 20.9046 12.7992 21.3996C15.3953 20.4234 17.9953 19.49 20.5992 18.5996C20.8461 18.6439 21.0461 18.7772 21.1992 18.9996C21.6219 20.2191 21.6886 21.4191 21.3992 22.5996C19.994 23.0654 18.6607 23.5987 17.3992 24.1996C15.5604 24.4427 13.7604 24.8427 11.9992 25.3996C10.2755 25.2807 8.94217 24.4807 7.99917 22.9996C7.08501 21.109 6.21837 19.2423 5.39917 17.3996C4.29365 15.0939 4.36033 12.8272 5.59917 10.5996C8.15981 8.30073 11.1598 6.96737 14.5992 6.59961Z" fill="#1A171B"/>
<path fill-rule="evenodd" clip-rule="evenodd" d="M13.4001 -0.199219C15.2668 -0.199219 17.1334 -0.199219 19.0001 -0.199219C19.6111 0.124465 20.2778 0.391131 21.0001 0.600781C21.2709 6.06082 21.4042 11.4608 21.4001 16.8008C21.2966 17.5154 21.03 18.1154 20.6001 18.6008C17.9962 19.4912 15.3962 20.4245 12.8001 21.4008C11.3427 20.9057 11.1427 20.1724 12.2001 19.2008C14.4109 18.7749 16.5442 18.1082 18.6001 17.2008C20.4012 15.6628 21.0012 13.7295 20.4001 11.4008C19.7116 8.24206 17.7783 6.64206 14.6001 6.60078C14.9051 6.29362 15.3051 6.09362 15.8001 6.00078C15.2828 5.80478 14.7494 5.7381 14.2001 5.80078C14.0271 4.28554 13.6271 2.81887 13.0001 1.40078C12.694 0.956017 12.294 0.689349 11.8001 0.600781C12.3334 0.334114 12.8668 0.067448 13.4001 -0.199219Z" fill="#92A318"/>
<path opacity="0.32" fill-rule="evenodd" clip-rule="evenodd" d="M1.00094 13C0.468527 17.131 1.5352 20.731 4.20094 23.8C5.81254 26.3494 8.07922 28.1494 11.0009 29.2C13.9336 29.9041 16.8669 29.9708 19.8009 29.4C21.5135 29.1456 23.1135 28.5456 24.6009 27.6C29.5941 24.0274 31.8608 19.1607 31.4009 13C31.5343 13 31.6676 13 31.8009 13C31.8009 15.1333 31.8009 17.2667 31.8009 19.4C28.726 28.2541 22.4593 32.1874 13.0009 31.2C3.70072 28.515 -0.299276 22.4483 1.00094 13Z" fill="#080901"/>
<path fill-rule="evenodd" clip-rule="evenodd" d="M14.2007 13.0008C15.1434 12.9355 16.0768 13.0022 17.0007 13.2008C17.534 13.8675 17.534 14.5341 17.0007 15.2008C14.2373 16.5437 11.3707 17.1437 8.4007 17.0008C8.03266 15.8775 8.36602 15.0108 9.4007 14.4008C11.0841 14.0486 12.6841 13.5819 14.2007 13.0008Z" fill="#94A315"/>
<path fill-rule="evenodd" clip-rule="evenodd" d="M5.39922 17.4004C6.21842 19.2431 7.08506 21.1098 7.99922 23.0004C8.94222 24.4815 10.2755 25.2815 11.9992 25.4004C13.7605 24.8435 15.5605 24.4435 17.3992 24.2004C17.9325 24.2004 18.4659 24.2004 18.9992 24.2004C18.7989 26.0617 19.0655 27.795 19.7992 29.4004C16.8652 29.9712 13.9319 29.9045 10.9992 29.2004C8.0775 28.1498 5.81082 26.3498 4.19922 23.8004C4.36106 23.3805 4.6277 23.3805 4.99922 23.8004C5.32026 21.5934 5.45358 19.46 5.39922 17.4004Z" fill="#98A813"/>
</g>
<defs>
<clipPath id="clip0_87_1195">
<rect width="32" height="32" fill="white"/>
</clipPath>
</defs>
</svg>
