<svg width="32" height="32" viewBox="0 0 32 32" fill="none" xmlns="http://www.w3.org/2000/svg">
<rect width="32" height="32" fill="white"/>
<path fill-rule="evenodd" clip-rule="evenodd" d="M4.57227 1.01562C6.94264 1.01562 9.31301 1.01562 11.6834 1.01562C11.6834 1.69287 11.6834 2.37012 11.6834 3.04737C9.99027 3.04737 8.29713 3.04737 6.60401 3.04737C6.60401 11.6823 6.60401 20.3172 6.60401 28.9521C8.29713 28.9521 9.99027 28.9521 11.6834 28.9521C11.6834 29.6294 11.6834 30.3066 11.6834 30.9839C9.31301 30.9839 6.94264 30.9839 4.57227 30.9839C4.57227 20.9944 4.57227 11.0051 4.57227 1.01562Z" fill="#1C1D1A"/>
<path fill-rule="evenodd" clip-rule="evenodd" d="M26.9215 1.01562C26.9215 11.0051 26.9215 20.9944 26.9215 30.9839C24.7206 30.9839 22.5192 30.9839 20.3184 30.9839C20.3184 30.3066 20.3184 29.6294 20.3184 28.9521C21.8422 28.9521 23.366 28.9521 24.8898 28.9521C24.8898 20.3172 24.8898 11.6823 24.8898 3.04737C23.366 3.04737 21.8422 3.04737 20.3184 3.04737C20.3184 2.37012 20.3184 1.69287 20.3184 1.01562C22.5192 1.01562 24.7206 1.01562 26.9215 1.01562Z" fill="#1C1D1A"/>
</svg>
