<svg width="32" height="32" viewBox="0 0 33 32" fill="none" xmlns="http://www.w3.org/2000/svg">
    <path
        d="M24.2275 13.2171C24.2844 13.2171 24.3414 13.2209 24.3977 13.2246C26.6641 13.3603 28.5246 16.1875 28.8532 19.8384C28.8783 20.1163 28.8941 20.3963 28.9006 20.6771C28.9028 20.7827 28.9051 20.8882 28.9051 20.9938C28.9051 22.9992 28.4457 24.8303 27.6933 26.2109C27.6369 26.3155 27.5783 26.4163 27.518 26.5153C27.4581 26.6129 27.3968 26.7081 27.3342 26.8008C26.5074 28.024 25.4196 28.7695 24.2281 28.7695C22.8477 28.7695 21.6061 27.7705 20.7494 26.1854C21.8236 24.376 22.518 21.9437 22.6178 19.2466C22.6229 19.1116 22.6264 18.9755 22.6283 18.8388L22.6296 18.7018C22.6296 18.6594 22.6313 18.6189 22.6313 18.5765C22.6311 18.4691 22.6297 18.3618 22.627 18.2545L22.6246 18.1468C22.5913 16.7143 22.389 15.3526 22.0508 14.1133C22.6127 13.6195 23.2417 13.3123 23.9085 13.2369C23.9897 13.2275 24.0708 13.2218 24.1531 13.2199L24.2275 13.2171ZM9.2643 20.8213C9.42888 20.8213 9.58952 20.8496 9.74451 20.9033C9.88993 22.0059 10.1374 23.0463 10.4688 23.9962C10.5558 24.2455 10.6485 24.4891 10.7466 24.7266C10.9464 25.2072 11.1694 25.6588 11.412 26.0791L11.4613 26.1637C11.1181 27.6263 10.2636 28.6667 9.2643 28.6667C8.59246 28.6667 7.98712 28.1955 7.55707 27.4445C7.50127 27.3474 7.44885 27.2447 7.39926 27.1382C7.34853 27.0298 7.30175 26.9167 7.25835 26.7989C7.03571 26.2005 6.90495 25.4984 6.90495 24.7445C6.90495 24.4175 6.93201 24.1018 6.97766 23.7974C6.99739 23.6626 7.02219 23.5307 7.05037 23.4016C7.07911 23.2725 7.11181 23.1462 7.14788 23.0227C7.45562 21.9814 8.03221 21.1992 8.72716 20.9287C8.80664 20.8976 8.88667 20.8731 8.96896 20.8562C9.049 20.8392 9.13016 20.8288 9.21245 20.826C9.22992 20.8251 9.24683 20.8213 9.2643 20.8213ZM16.1113 8.54942C16.158 8.54942 16.2043 8.55319 16.251 8.55507C17.1179 8.589 17.9397 8.92543 18.6797 9.50689H18.6808C18.8298 9.62501 18.9759 9.75296 19.1188 9.89045C20.0826 10.8159 20.8796 12.1701 21.4127 13.7976C21.4511 13.9154 21.4877 14.037 21.5238 14.1576C21.5604 14.2811 21.5948 14.4064 21.6286 14.5327C21.9681 15.8052 22.1432 17.1831 22.1426 18.5765C22.1426 18.6632 22.1398 18.749 22.1387 18.8347C22.1364 19.0081 22.1308 19.1815 22.1229 19.353C22.115 19.5255 22.1043 19.6961 22.0914 19.8657C21.9206 22.0596 21.3226 24.033 20.4399 25.5474C20.3819 25.6473 20.3227 25.7444 20.2624 25.8396C20.2032 25.9329 20.1435 26.0243 20.082 26.1129C19.0207 27.6603 17.6889 28.6017 16.1118 28.6017C14.5348 28.6017 13.0975 27.5886 12.0216 25.9347C11.9517 25.8273 11.8829 25.718 11.8164 25.6049C11.7437 25.4824 11.6727 25.3561 11.6039 25.227C11.4213 24.885 11.2526 24.5229 11.0989 24.1432C10.738 23.2486 10.4667 22.2615 10.2957 21.2209C10.2681 21.056 10.2433 20.8892 10.2213 20.7205C10.2011 20.5659 10.183 20.4095 10.1672 20.253C10.1114 19.7074 10.081 19.1476 10.081 18.5765C10.081 16.4118 10.497 14.4064 11.2015 12.7657C11.2488 12.6545 11.2979 12.5452 11.348 12.4377C11.3988 12.3294 11.4506 12.2219 11.5042 12.1164C11.8237 11.4878 12.1884 10.9252 12.5908 10.4427C12.6596 10.3607 12.7289 10.2797 12.7999 10.2024C12.8704 10.1251 12.9414 10.0497 13.0136 9.97715C13.877 9.11433 14.856 8.62754 15.8611 8.56139L15.9388 8.55696C15.9963 8.55413 16.0532 8.54942 16.1113 8.54942ZM4.42837 14.2396C4.47177 14.2396 4.51517 14.2434 4.558 14.2453C4.45204 14.9381 4.39845 15.6505 4.3985 16.3657C4.3985 19.2286 5.2462 21.7675 6.54536 23.329C6.45934 23.7864 6.41563 24.2631 6.41572 24.7426C6.41572 25.685 6.58256 26.5633 6.86888 27.3012C6.16349 28.1121 5.32938 28.5523 4.47341 28.5655L4.42837 28.5659C2.05268 28.5659 0.119995 25.3523 0.119995 21.4028C0.119995 17.4532 2.05268 14.2396 4.42837 14.2396ZM29.7606 20.4029C31.0615 20.4029 32.12 22.1633 32.12 24.3261C32.12 26.4889 31.0615 28.2483 29.7606 28.2483C29.0493 28.2483 28.4119 27.7196 27.979 26.8894C28.8549 25.3495 29.3937 23.2753 29.3937 20.9938C29.3937 20.8138 29.3892 20.6356 29.3825 20.4585C29.5059 20.4255 29.6316 20.4029 29.7606 20.4029ZM9.56528 8.589C9.67575 8.589 9.78509 8.59842 9.89387 8.61067C9.95422 9.15331 10.0483 9.68393 10.1746 10.1939C10.2061 10.3211 10.2394 10.4465 10.2749 10.5699C10.3098 10.6934 10.347 10.8159 10.3859 10.9356C10.5246 11.3625 10.6869 11.7658 10.8684 12.1418C10.0669 13.9427 9.59177 16.1687 9.59177 18.5756C9.59177 19.0769 9.61375 19.5689 9.65377 20.0523C9.52471 20.0224 9.39459 20.0073 9.2643 20.0071C9.22654 20.0071 9.18934 20.009 9.15214 20.0118C9.06929 20.0174 8.98812 20.0287 8.90753 20.0457C8.82636 20.0636 8.74576 20.0853 8.66629 20.1136C7.82761 20.4132 7.12533 21.3274 6.73868 22.5572L6.73812 22.5553C5.61425 21.1342 4.88716 18.8884 4.88716 16.3647C4.88731 15.5337 4.96782 14.7082 5.12558 13.9201C5.15207 13.7891 5.18025 13.66 5.21012 13.5328C5.55225 12.0843 6.14744 10.847 6.90608 9.97244C6.97372 9.89516 7.04248 9.81977 7.11237 9.7472C7.18339 9.67464 7.25553 9.60396 7.3288 9.53705C7.99388 8.93297 8.75591 8.589 9.56528 8.589ZM19.6024 5.88621C21.8513 5.88621 23.7022 8.76617 23.8933 12.4245C23.1739 12.5003 22.4721 12.8278 21.8332 13.3858H21.8326C21.2386 11.582 20.3447 10.0902 19.2636 9.09224C19.3587 8.46089 19.4068 7.81233 19.4068 7.16127C19.4068 6.73248 19.3859 6.31123 19.3465 5.90034C19.431 5.89186 19.5161 5.88621 19.6024 5.88621ZM14.6109 0C16.5774 0 18.2395 2.20238 18.7535 5.20203C18.7755 5.33113 18.7958 5.46307 18.8139 5.59595C18.8313 5.72788 18.8471 5.86076 18.8606 5.99552C18.8984 6.37531 18.9187 6.76546 18.9187 7.16221C18.9187 7.69561 18.8821 8.21581 18.815 8.71716C18.1426 8.20585 17.4231 7.88971 16.6873 7.78231C16.5774 7.76629 16.4663 7.75403 16.3547 7.74744C16.2736 7.74273 16.193 7.73707 16.1113 7.73707C16.0825 7.73707 16.0543 7.74084 16.0262 7.74084C14.7715 7.76723 13.6014 8.38638 12.6123 9.43715C12.5395 9.51443 12.4674 9.59359 12.3964 9.67558C12.3254 9.75851 12.2549 9.84238 12.1856 9.92909C11.8187 10.3899 11.4833 10.9158 11.1823 11.4935C10.9809 11.0527 10.8105 10.5745 10.6745 10.0686C10.639 9.93662 10.6052 9.8028 10.5747 9.6671C10.5051 9.35782 10.4486 9.0407 10.4056 8.71811C10.387 8.57675 10.3701 8.43444 10.3561 8.29026L10.3566 8.2912C10.3436 8.15267 10.3324 8.01319 10.3239 7.87183C10.2546 6.72124 10.3547 5.55977 10.6153 4.48863C10.6486 4.35199 10.6835 4.21628 10.7213 4.08434C10.7579 3.95712 10.7968 3.83272 10.838 3.70927C11.5729 1.49935 12.9882 0 14.6109 0ZM8.98643 3.31535C9.44354 3.31535 9.86851 3.54529 10.2236 3.93733C9.95248 4.95166 9.81246 6.05025 9.81271 7.16127C9.81271 7.37331 9.81948 7.58158 9.82906 7.7889C9.76327 7.78322 9.69743 7.77967 9.63156 7.77825L9.56472 7.77759C8.64769 7.77759 7.78647 8.17906 7.0391 8.87831C6.8531 8.33549 6.74545 7.70974 6.74545 7.04158C6.74545 4.98716 7.75096 3.31535 8.98643 3.31535Z"
        fill="black" />
</svg>