<svg width="32" height="32" viewBox="0 0 32 32" fill="none" xmlns="http://www.w3.org/2000/svg">
<g clip-path="url(#clip0_6023_1802)">
<mask id="mask0_6023_1802" style="mask-type:luminance" maskUnits="userSpaceOnUse" x="0" y="0" width="32" height="32">
<path d="M32 0H0V32H32V0Z" fill="white"/>
</mask>
<g mask="url(#mask0_6023_1802)">
<path opacity="0.98" fill-rule="evenodd" clip-rule="evenodd" d="M13.8003 -0.0664062C15.2225 -0.0664062 16.6447 -0.0664062 18.0669 -0.0664062C24.1715 0.992536 28.4604 4.37031 30.9336 10.0669C31.3541 11.3061 31.6875 12.5505 31.9336 13.8003C31.9336 15.2225 31.9336 16.6447 31.9336 18.0669C30.8747 24.1715 27.4969 28.4604 21.8003 30.9336C20.5612 31.3541 19.3167 31.6875 18.0669 31.9336C16.6447 31.9336 15.2225 31.9336 13.8003 31.9336C7.69566 30.8747 3.40678 27.4969 0.933594 21.8003C0.512996 20.5612 0.179663 19.3167 -0.0664062 18.0669C-0.0664062 16.6447 -0.0664062 15.2225 -0.0664062 13.8003C0.992536 7.69566 4.37031 3.40678 10.0669 0.933594C11.3061 0.512996 12.5505 0.179663 13.8003 -0.0664062ZM16.0669 9.40026C17.7564 9.37805 19.4453 9.40027 21.1336 9.46693C22.1835 10.3092 22.1389 11.1092 21.0003 11.8669C19.4003 11.9558 17.8003 11.9558 16.2003 11.8669C15.0031 11.1003 14.9585 10.2781 16.0669 9.40026ZM6.86693 14.7336C12.956 14.7113 19.0449 14.7336 25.1336 14.8003C25.9292 15.2525 26.1292 15.8971 25.7336 16.7336C25.5717 16.9401 25.3717 17.0956 25.1336 17.2003C19.0447 17.2892 12.9558 17.2892 6.86693 17.2003C5.63319 16.3719 5.63319 15.5496 6.86693 14.7336ZM10.8669 20.2003C12.9563 20.178 15.0452 20.2003 17.1336 20.2669C18.2248 21.1277 18.1803 21.9277 17.0003 22.6669C15.0003 22.7559 13.0003 22.7559 11.0003 22.6669C10.2538 22.2467 10.0094 21.6467 10.2669 20.8669C10.4946 20.662 10.6946 20.4397 10.8669 20.2003Z" fill="url(#paint0_linear_6023_1802)"/>
</g>
</g>
<defs>
<linearGradient id="paint0_linear_6023_1802" x1="15.9336" y1="-0.0664063" x2="15.9336" y2="31.9336" gradientUnits="userSpaceOnUse">
<stop stop-color="#00DEFC"/>
<stop offset="1" stop-color="#008496"/>
</linearGradient>
<clipPath id="clip0_6023_1802">
<rect width="32" height="32" fill="white"/>
</clipPath>
</defs>
</svg>
