<svg width="32" height="32" viewBox="0 0 32 32" fill="none" xmlns="http://www.w3.org/2000/svg">
    <g clip-path="url(#clip0_1212_186)">
        <path fill-rule="evenodd" clip-rule="evenodd"
            d="M-0.0400391 -0.0400391C10.6266 -0.0400391 21.2933 -0.0400391 31.96 -0.0400391C31.96 10.6266 31.96 21.2933 31.96 31.96C21.2933 31.96 10.6266 31.96 -0.0400391 31.96C-0.0400391 21.2933 -0.0400391 10.6266 -0.0400391 -0.0400391Z"
            fill="black" />
        <path fill-rule="evenodd" clip-rule="evenodd"
            d="M10.52 8.04004C13.4023 8.309 14.9756 9.88236 15.24 12.76C13.6667 12.76 12.0934 12.76 10.52 12.76C10.52 11.1867 10.52 9.6134 10.52 8.04004Z"
            fill="#FDFDFD" />
        <path fill-rule="evenodd" clip-rule="evenodd"
            d="M17.32 8.12004C17.1866 8.12004 17.0533 8.12004 16.92 8.12004C16.8671 11.2679 16.9204 14.3879 17.08 17.48C17.0232 17.5524 16.9432 17.579 16.84 17.56C16.84 14.3867 16.84 11.2134 16.84 8.04004C17.0188 8.01644 17.1788 8.04316 17.32 8.12004Z"
            fill="#929292" />
        <path fill-rule="evenodd" clip-rule="evenodd"
            d="M17.32 8.12C19.8063 8.7132 21.1397 10.2866 21.32 12.84C21.1679 15.1046 20.0211 16.6113 17.88 17.36C17.6195 17.4434 17.3528 17.4834 17.08 17.48C16.9205 14.3878 16.8671 11.2678 16.92 8.12C17.0534 8.12 17.1867 8.12 17.32 8.12Z"
            fill="#FDFDFD" />
        <path fill-rule="evenodd" clip-rule="evenodd"
            d="M10.52 14.4399C12.3846 14.4775 13.7846 15.3041 14.72 16.9199C14.9439 17.3785 15.1039 17.8585 15.2 18.3599C15.24 20.1998 15.2534 22.0398 15.24 23.8799C13.6667 23.8799 12.0934 23.8799 10.52 23.8799C10.52 20.7333 10.52 17.5866 10.52 14.4399Z"
            fill="#FEFEFE" />
    </g>
    <defs>
        <clipPath id="clip0_1212_186">
            <rect width="32" height="32" fill="white" />
        </clipPath>
    </defs>
</svg>