<svg width="32" height="32" viewBox="0 0 32 32" fill="none" xmlns="http://www.w3.org/2000/svg">
    <g clip-path="url(#clip0_801_571)">
        <path fill-rule="evenodd" clip-rule="evenodd"
            d="M15.2799 -0.0800781C15.7599 -0.0800781 16.2399 -0.0800781 16.7199 -0.0800781C17.3369 0.22516 17.9769 0.518493 18.6399 0.799922C22.7326 4.73282 26.7593 8.70615 30.7199 12.7199C31.2514 13.4103 31.6514 14.157 31.9199 14.9599C31.9199 15.5466 31.9199 16.1332 31.9199 16.7199C31.691 17.4076 31.371 18.0476 30.9599 18.6399C30.9694 18.1295 31.0228 17.6228 31.1199 17.1199C31.3305 16.654 31.5172 16.2007 31.6799 15.7599C31.4705 15.3773 31.3105 15.3773 31.1999 15.7599C31.0399 15.5466 30.8799 15.5466 30.7199 15.7599C30.6666 15.6532 30.6132 15.5466 30.5599 15.4399C30.319 15.9158 30.0524 15.9691 29.7599 15.5999C29.7066 15.6532 29.6532 15.7066 29.5999 15.7599C29.6073 15.4699 29.5807 15.2032 29.5199 14.9599C29.3404 15.1408 29.127 15.2474 28.8799 15.2799C29.0868 14.9926 29.3268 14.7259 29.5999 14.4799C29.7066 14.2132 29.7066 13.9466 29.5999 13.6799C28.9866 13.0666 28.3732 12.4532 27.7599 11.8399C26.6289 12.1105 25.7489 12.7772 25.1199 13.8399C25.053 14.206 25.1598 14.526 25.4399 14.7999C25.9018 15.2619 26.3553 15.7152 26.7999 16.1599C26.9966 16.2849 27.2098 16.3649 27.4399 16.3999C27.9108 16.143 28.3374 15.8229 28.7199 15.4399C28.6338 15.6987 28.5806 15.9653 28.5599 16.2399C28.3999 16.2399 28.2399 16.2399 28.0799 16.2399C28.1255 16.526 28.0722 16.7927 27.9199 17.0399C27.6522 16.7862 27.3322 16.6794 26.9599 16.7199C26.9599 16.8799 26.9599 17.0399 26.9599 17.1999C27.4399 17.1466 27.6532 17.3599 27.5999 17.8399C27.2799 17.8399 26.9599 17.8399 26.6399 17.8399C26.6399 17.6799 26.6399 17.5199 26.6399 17.3599C26.0466 17.2753 25.6201 16.9553 25.3599 16.3999C25.117 16.7393 24.957 17.1126 24.8799 17.5199C25.0745 15.9012 24.3812 15.2345 22.7999 15.5199C22.6666 15.6532 22.5332 15.7866 22.3999 15.9199C22.2863 15.6842 22.0998 15.5775 21.8399 15.5999C21.8399 17.1999 21.8399 18.7999 21.8399 20.3999C21.7025 19.966 21.5159 19.5394 21.2799 19.1199C21.063 18.9791 20.823 18.9257 20.5599 18.9599C20.9966 18.7892 21.2633 18.4692 21.3599 17.9999C21.5188 16.6959 21.5721 15.3626 21.5199 13.9999C21.2641 13.9571 21.0508 14.0104 20.8799 14.1599C20.9065 15.441 20.8799 16.721 20.7999 17.9999C20.4449 18.3991 19.9916 18.5591 19.4399 18.4799C19.1199 18.4532 18.7999 18.4266 18.4799 18.3999C18.3999 18.3199 18.3199 18.2399 18.2399 18.1599C18.1599 16.8276 18.1334 15.4943 18.1599 14.1599C17.989 14.0104 17.7758 13.9571 17.5199 13.9999C17.4678 15.3626 17.521 16.6959 17.6799 17.9999C17.6799 18.1066 17.6799 18.2132 17.6799 18.3199C17.2404 18.111 16.9738 18.271 16.8799 18.7999C16.6897 18.9486 16.4764 19.0018 16.2399 18.9599C16.7167 18.7473 16.93 18.3738 16.8799 17.8399C16.4727 17.7841 16.1527 17.9174 15.9199 18.2399C15.01 18.5658 14.5833 18.2726 14.6399 17.3599C15.3866 17.3599 16.1332 17.3599 16.8799 17.3599C16.9524 15.6843 16.1524 15.0709 14.4799 15.5199C13.927 15.9368 13.7136 16.4967 13.8399 17.1999C13.8666 17.5732 13.8932 17.9466 13.9199 18.3199C14.0316 18.5105 14.1649 18.6705 14.3199 18.7999C14.2823 18.8954 14.2023 18.9487 14.0799 18.9599C13.8719 18.7668 13.6319 18.6601 13.3599 18.6399C13.3343 18.9118 13.361 19.1785 13.4399 19.4399C13.7882 19.5577 14.1348 19.7177 14.4799 19.9199C14.1923 20.4982 13.8723 20.4982 13.5199 19.9199C13.3465 19.9495 13.1865 20.0028 13.0399 20.0799C13.1917 18.5417 13.245 16.995 13.1999 15.4399C12.9332 15.4399 12.6666 15.4399 12.3999 15.4399C12.409 16.0212 12.249 16.0479 11.9199 15.5199C10.5588 15.2544 9.91877 15.8144 9.99992 17.1999C10.0195 18.8999 10.7928 19.3799 12.3199 18.6399C12.5744 19.6922 12.1744 20.039 11.1199 19.6799C10.8871 19.3574 10.5671 19.2241 10.1599 19.2799C10.1805 19.5545 10.2338 19.8212 10.3199 20.0799C9.84832 20.1242 9.39498 20.071 8.95992 19.9199C8.68581 20.5458 8.39247 20.5458 8.07992 19.9199C8.11341 19.8262 8.16674 19.7462 8.23992 19.6799C8.55992 19.6266 8.87992 19.5732 9.19992 19.5199C8.63155 19.1966 8.07155 19.2233 7.51992 19.5999C7.24475 19.4585 7.05808 19.2452 6.95992 18.9599C7.56101 19.0286 8.12101 18.922 8.63992 18.6399C8.86403 18.9106 9.15738 19.0174 9.51992 18.9599C9.58719 17.8745 9.50719 16.8079 9.27992 15.7599C8.59135 15.4537 7.87135 15.3737 7.11992 15.5199C6.81181 15.5875 6.65181 15.7742 6.63992 16.0799C6.49528 16.1934 6.44195 16.3534 6.47992 16.5599C6.89306 16.6359 7.21306 16.5292 7.43992 16.2399C8.45011 15.8009 8.85011 16.1209 8.63992 17.1999C7.92007 16.7786 7.20007 16.7786 6.47992 17.1999C6.354 16.9433 6.14067 16.8366 5.83992 16.8799C6.09136 16.0311 6.03803 15.2044 5.67992 14.3999C5.426 14.2619 5.15935 14.1553 4.87992 14.0799C3.97482 14 3.06815 13.9733 2.15992 13.9999C2.15992 15.6532 2.15992 17.3066 2.15992 18.9599C2.00099 17.549 1.94767 16.109 1.99992 14.6399C1.83992 14.6399 1.67992 14.6399 1.51992 14.6399C1.63383 15.464 1.7405 16.2906 1.83992 17.1199C1.50871 17.7462 1.29537 18.4127 1.19992 19.1199C0.606944 18.4671 0.180279 17.7206 -0.0800781 16.8799C-0.0800781 16.1866 -0.0800781 15.4932 -0.0800781 14.7999C0.219027 14.1493 0.565693 13.5093 0.959922 12.8799C4.82659 9.01325 8.69325 5.14659 12.5599 1.27992C13.39 0.627407 14.2967 0.174072 15.2799 -0.0800781Z"
            fill="#152D52" />
        <path fill-rule="evenodd" clip-rule="evenodd"
            d="M28.8799 15.2798C28.7732 15.2798 28.7199 15.3332 28.7199 15.4398C28.3374 15.8228 27.9108 16.1429 27.4399 16.3998C27.2098 16.3648 26.9966 16.2848 26.7999 16.1598C26.3553 15.7152 25.9018 15.2618 25.4399 14.7998C25.1598 14.5259 25.053 14.2059 25.1199 13.8398C25.7489 12.7771 26.6289 12.1104 27.7599 11.8398C28.3732 12.4532 28.9866 13.0665 29.5999 13.6798C29.7066 13.9465 29.7066 14.2132 29.5999 14.4798C29.3268 14.7258 29.0868 14.9925 28.8799 15.2798Z"
            fill="#F6F8F9" />
        <path fill-rule="evenodd" clip-rule="evenodd"
            d="M18.1601 14.1602C18.0001 14.1602 17.8401 14.1602 17.6801 14.1602C17.6801 15.4402 17.6801 16.7202 17.6801 18.0002C17.5212 16.6962 17.4679 15.3628 17.5201 14.0002C17.7759 13.9573 17.9892 14.0106 18.1601 14.1602Z"
            fill="#8993A5" />
        <path fill-rule="evenodd" clip-rule="evenodd"
            d="M5.83991 16.8802C4.99972 17.3119 4.09305 17.4719 3.11991 17.3602C3.11991 17.8935 3.11991 18.4269 3.11991 18.9602C2.79991 18.9602 2.47991 18.9602 2.15991 18.9602C2.15991 17.3069 2.15991 15.6535 2.15991 14.0002C3.06814 13.9736 3.97481 14.0003 4.87991 14.0802C5.15934 14.1555 5.42599 14.2622 5.67991 14.4002C6.03802 15.2047 6.09135 16.0314 5.83991 16.8802Z"
            fill="#EFF2F4" />
        <path fill-rule="evenodd" clip-rule="evenodd"
            d="M3.12012 14.8001C4.71421 14.3946 5.30089 14.9546 4.88012 16.4801C4.29586 16.56 3.70919 16.5865 3.12012 16.5601C3.12012 15.9734 3.12012 15.3868 3.12012 14.8001Z"
            fill="#1A3055" />
        <path fill-rule="evenodd" clip-rule="evenodd"
            d="M20.8799 14.1602C21.0508 14.0106 21.264 13.9573 21.5199 14.0002C21.572 15.3628 21.5188 16.6962 21.3599 18.0002C21.3599 16.7202 21.3599 15.4402 21.3599 14.1602C21.1999 14.1602 21.0399 14.1602 20.8799 14.1602Z"
            fill="#7F86A0" />
        <path fill-rule="evenodd" clip-rule="evenodd"
            d="M2.15995 18.9601C2.47995 18.9601 2.79995 18.9601 3.11995 18.9601C3.11995 18.4269 3.11995 17.8934 3.11995 17.3601C4.09309 17.4718 4.99976 17.3118 5.83995 16.8801C6.1407 16.8368 6.35403 16.9435 6.47995 17.2001C6.36915 17.8806 6.52915 18.4672 6.95995 18.9601C7.05811 19.2454 7.24478 19.4587 7.51995 19.6001C8.07158 19.2235 8.63158 19.1968 9.19995 19.5201C8.87995 19.5734 8.55995 19.6269 8.23995 19.6801C8.16677 19.7464 8.11344 19.8264 8.07995 19.9201C8.3925 20.5461 8.68584 20.5461 8.95995 19.9201C9.39501 20.0712 9.84835 20.1245 10.32 20.0801C11.2165 20.4995 12.1231 20.4995 13.04 20.0801C13.1866 20.003 13.3466 19.9497 13.52 19.9201C13.8724 20.4984 14.1924 20.4984 14.48 19.9201C14.1349 19.7179 13.7882 19.5579 13.44 19.4401C13.361 19.1787 13.3343 18.912 13.36 18.6401C13.6319 18.6603 13.8719 18.767 14.08 18.9601C14.2023 18.9489 14.2823 18.8957 14.32 18.8001C14.9439 18.9489 15.5839 19.0022 16.24 18.9601C16.4764 19.0021 16.6897 18.9488 16.88 18.8001C16.9739 18.2712 17.2404 18.1112 17.68 18.3201C17.8283 18.6523 18.0948 18.839 18.48 18.8801C19.1713 18.96 19.8646 18.9867 20.56 18.9601C20.823 18.9259 21.063 18.9793 21.28 19.1201C21.516 19.5397 21.7025 19.9662 21.84 20.4001C22 20.4001 22.16 20.4001 22.32 20.4001C22.4267 19.8669 22.5332 19.3334 22.64 18.8001C23.9203 19.2805 24.6668 18.8539 24.88 17.5201C24.9571 17.1128 25.1171 16.7395 25.36 16.4001C25.6201 16.9555 26.0467 17.2755 26.64 17.3601C26.64 17.5201 26.64 17.6801 26.64 17.8401C26.96 17.8401 27.28 17.8401 27.6 17.8401C27.6532 17.3601 27.44 17.1469 26.96 17.2001C26.96 17.0401 26.96 16.8801 26.96 16.7201C27.3323 16.6797 27.6523 16.7864 27.92 17.0401C28.0723 16.7929 28.1256 16.5262 28.08 16.2401C28.24 16.2401 28.4 16.2401 28.56 16.2401C28.5806 15.9656 28.6339 15.6989 28.72 15.4401C28.72 15.3335 28.7732 15.2801 28.88 15.2801C29.127 15.2476 29.3404 15.141 29.52 14.9601C29.5808 15.2034 29.6073 15.4701 29.6 15.7601C29.6532 15.7068 29.7067 15.6535 29.76 15.6001C30.0524 15.9693 30.319 15.916 30.56 15.4401C30.6132 15.5468 30.6667 15.6535 30.72 15.7601C30.88 15.5468 31.04 15.5468 31.2 15.7601C31.3105 15.3775 31.4705 15.3775 31.68 15.7601C31.5172 16.2009 31.3305 16.6542 31.12 17.1201C31.0228 17.623 30.9694 18.1297 30.96 18.6401C27.1569 22.6833 23.2636 26.6566 19.28 30.5601C18.446 31.1904 17.5393 31.6438 16.56 31.9201C16.08 31.9201 15.6 31.9201 15.12 31.9201C14.3293 31.7121 13.5827 31.3654 12.88 30.8801C8.95437 26.9813 5.06102 23.0613 1.19995 19.1201C1.2954 18.4129 1.50874 17.7464 1.83995 17.1201C1.74053 16.2909 1.63386 15.4643 1.51995 14.6401C1.67995 14.6401 1.83995 14.6401 1.99995 14.6401C1.9477 16.1093 2.00102 17.5493 2.15995 18.9601Z"
            fill="#142D52" />
        <path fill-rule="evenodd" clip-rule="evenodd"
            d="M13.04 20.0799C12.1232 20.4993 11.2165 20.4993 10.32 20.0799C10.2339 19.8212 10.1806 19.5545 10.16 19.2799C10.5672 19.2241 10.8872 19.3574 11.12 19.6799C12.1745 20.039 12.5745 19.6923 12.32 18.6399C10.7929 19.3799 10.0195 18.8999 10 17.1999C9.91886 15.8144 10.5589 15.2544 11.92 15.5199C12.2491 16.0479 12.4091 16.0212 12.4 15.4399C12.6667 15.4399 12.9333 15.4399 13.2 15.4399C13.2451 16.995 13.1918 18.5417 13.04 20.0799Z"
            fill="#F1F4F6" />
        <path fill-rule="evenodd" clip-rule="evenodd"
            d="M11.1199 16.08C11.5783 16.0088 11.9783 16.1155 12.3199 16.4C12.4729 17.0515 12.3929 17.6648 12.0799 18.24C11.5464 18.4339 11.1464 18.3006 10.8799 17.84C10.7379 17.2156 10.8179 16.6289 11.1199 16.08Z"
            fill="#253959" />
        <path fill-rule="evenodd" clip-rule="evenodd"
            d="M6.6401 16.0801C6.81721 16.4556 7.08388 16.5089 7.4401 16.2401C7.21324 16.5294 6.89324 16.6361 6.4801 16.5601C6.44214 16.3535 6.49546 16.1935 6.6401 16.0801Z"
            fill="#9BADC5" />
        <path fill-rule="evenodd" clip-rule="evenodd"
            d="M6.96005 18.9601C6.52925 18.4672 6.36925 17.8806 6.48005 17.2001C7.20019 16.7788 7.92019 16.7788 8.64005 17.2001C8.85024 16.1211 8.45024 15.8011 7.44005 16.2401C7.08382 16.5089 6.81715 16.4556 6.64005 16.0801C6.65193 15.7744 6.81193 15.5877 7.12005 15.5201C7.87147 15.3739 8.59147 15.4539 9.28005 15.7601C9.50731 16.8081 9.58731 17.8747 9.52005 18.9601C9.1575 19.0176 8.86416 18.9108 8.64005 18.6401C8.12113 18.9222 7.56113 19.0288 6.96005 18.9601Z"
            fill="#F2F5F7" />
        <path fill-rule="evenodd" clip-rule="evenodd"
            d="M16.2399 18.9598C15.5839 19.0018 14.9439 18.9486 14.3199 18.7998C14.1649 18.6703 14.0316 18.5103 13.9199 18.3198C13.8932 17.9465 13.8666 17.573 13.8399 17.1998C13.7136 16.4966 13.927 15.9366 14.4799 15.5198C16.1524 15.0708 16.9524 15.6841 16.8799 17.3598C16.1332 17.3598 15.3866 17.3598 14.6399 17.3598C14.5833 18.2724 15.01 18.5657 15.9199 18.2398C16.1527 17.9172 16.4727 17.7839 16.8799 17.8398C16.93 18.3737 16.7167 18.7471 16.2399 18.9598Z"
            fill="#F1F4F7" />
        <path fill-rule="evenodd" clip-rule="evenodd"
            d="M14.8001 16.08C15.1772 16.0539 15.5505 16.0805 15.9201 16.16C16.0609 16.377 16.1143 16.617 16.0801 16.88C15.6001 16.88 15.1201 16.88 14.6401 16.88C14.6187 16.5933 14.672 16.3267 14.8001 16.08Z"
            fill="#344560" />
        <path fill-rule="evenodd" clip-rule="evenodd"
            d="M7.43991 17.3598C7.817 17.3337 8.19035 17.3603 8.55991 17.4398C8.77324 17.7065 8.77324 17.9731 8.55991 18.2398C8.13655 18.3193 7.70988 18.346 7.27991 18.3198C7.25196 17.9804 7.30529 17.6604 7.43991 17.3598Z"
            fill="#223550" />
        <path fill-rule="evenodd" clip-rule="evenodd"
            d="M18.1599 14.1602C18.1334 15.4946 18.1599 16.8278 18.2399 18.1602C18.3199 18.2402 18.3999 18.3202 18.4799 18.4002C18.7999 18.4269 19.1199 18.4534 19.4399 18.4802C19.9916 18.5594 20.4449 18.3994 20.7999 18.0002C20.8799 16.7213 20.9065 15.4413 20.8799 14.1602C21.0399 14.1602 21.1999 14.1602 21.3599 14.1602C21.3599 15.4402 21.3599 16.7202 21.3599 18.0002C21.2633 18.4694 20.9966 18.7894 20.5599 18.9602C19.8646 18.9867 19.1713 18.96 18.4799 18.8802C18.0948 18.839 17.8283 18.6523 17.6799 18.3202C17.6799 18.2134 17.6799 18.1069 17.6799 18.0002C17.6799 16.7202 17.6799 15.4402 17.6799 14.1602C17.8399 14.1602 17.9999 14.1602 18.1599 14.1602Z"
            fill="#F0F3F7" />
        <path fill-rule="evenodd" clip-rule="evenodd"
            d="M24.8801 17.5202C24.667 18.854 23.9204 19.2805 22.6401 18.8002C22.6305 18.7133 22.5772 18.6601 22.4801 18.6402C22.3218 19.2173 22.2684 19.8041 22.3201 20.4002C22.1601 20.4002 22.0001 20.4002 21.8401 20.4002C21.8401 18.8002 21.8401 17.2002 21.8401 15.6002C22.0999 15.5778 22.2865 15.6845 22.4001 15.9202C22.5334 15.7869 22.6668 15.6535 22.8001 15.5202C24.3814 15.2348 25.0746 15.9015 24.8801 17.5202Z"
            fill="#E1E8ED" />
        <path fill-rule="evenodd" clip-rule="evenodd"
            d="M22.64 15.9198C23.2011 15.8388 23.7078 15.9454 24.16 16.2398C24.2667 16.8798 24.2667 17.5198 24.16 18.1598C23.6267 18.5865 23.0933 18.5865 22.56 18.1598C22.4363 17.3995 22.4629 16.6528 22.64 15.9198Z"
            fill="#1C2E50" />
        <path fill-rule="evenodd" clip-rule="evenodd"
            d="M22.6401 18.8001C22.5334 19.3334 22.4268 19.8669 22.3201 20.4001C22.2684 19.804 22.3218 19.2173 22.4801 18.6401C22.5772 18.66 22.6305 18.7133 22.6401 18.8001Z"
            fill="#707794" />
    </g>
    <defs>
        <clipPath id="clip0_801_571">
            <rect width="32" height="32" fill="white" />
        </clipPath>
    </defs>
</svg>