<svg width="32" height="32" viewBox="0 0 32 32" fill="none" xmlns="http://www.w3.org/2000/svg">
<path d="M14.0865 5.52756C12.9363 5.77309 11.5794 6.44508 10.6232 7.24629C9.70567 8.00873 8.62011 9.469 8.29706 10.3736L8.07738 10.981L7.31493 11.0714C4.34269 11.4074 1.57722 13.9403 0.956932 16.9254C0.0523384 21.1383 2.36551 25.028 6.42327 26.1393C7.79308 26.5141 10.0545 26.4366 11.5278 25.9585C14.0735 25.1314 15.5726 23.7616 18.1054 19.9235C20.522 16.2664 21.8401 15.0517 23.8819 14.6123C25.5489 14.2634 27.7846 15.4523 28.6504 17.171C28.7926 17.4424 28.9864 18.0368 29.0769 18.4762C29.4775 20.4275 28.3144 22.6114 26.376 23.516C25.7428 23.8133 25.4714 23.865 24.4763 23.865C23.1453 23.865 22.6155 23.6712 21.4395 22.7794C20.6254 22.1592 20.0051 22.0816 19.4494 22.521C19.1651 22.7407 19.1134 22.8828 19.1134 23.4385C19.1134 24.0588 19.1522 24.1364 19.7208 24.6533C21.685 26.4625 24.9287 26.9277 27.539 25.7646C31.8682 23.852 33.0312 17.9464 29.7747 14.3926C28.4307 12.9065 26.6991 12.1699 24.5797 12.1699C23.8431 12.1699 22.9773 12.2603 22.538 12.3766C20.3023 12.9582 18.2993 14.819 15.9861 18.4762C14.1511 21.3967 13.156 22.4434 11.5536 23.2188C7.89646 24.9505 4.12301 23.3222 3.33472 19.6521C2.79197 17.1451 4.60116 14.328 7.1857 13.656C8.81394 13.2296 10.2743 13.5655 11.7604 14.6898C12.7425 15.4393 13.0656 15.5297 13.6729 15.2067C14.1123 14.987 14.2027 14.7803 14.2027 14.0437C14.2027 13.5656 14.1381 13.4363 13.6341 12.971C12.9493 12.3379 12.1998 11.8597 11.4632 11.5625C11.153 11.4462 10.8558 11.304 10.7912 11.2523C10.6232 11.0973 11.4244 9.9213 12.1222 9.31393C14.8101 6.93614 18.9583 7.45305 20.9614 10.3994C21.517 11.2136 21.9306 11.4591 22.538 11.3428C23.4813 11.149 23.8302 10.0247 23.2229 9.15885C21.4137 6.5743 19.0359 5.30787 16.012 5.33372C15.4046 5.33372 14.5387 5.42417 14.0865 5.52756Z" fill="#66BDD6"/>
</svg>
