<svg width="32" height="32" viewBox="0 0 33 33" fill="none" xmlns="http://www.w3.org/2000/svg">
    <path fill-rule="evenodd" clip-rule="evenodd"
        d="M11.1667 0.44347C16.9484 0.42755 22.7301 0.44347 28.5116 0.491223C30.6701 0.867405 31.9842 2.15673 32.4536 4.35915C32.5155 10.1531 32.5155 15.947 32.4536 21.741C32.1005 23.9188 30.8793 25.2399 28.7898 25.7044C27.7391 25.7522 26.6879 25.7681 25.6362 25.7522C25.6681 26.7756 25.6217 27.7942 25.4971 28.8083C24.9978 30.7868 23.7766 31.9806 21.8333 32.3897C15.959 32.4534 10.0845 32.4534 4.21014 32.3897C2.16298 31.8736 0.941685 30.5525 0.546379 28.4263C0.48454 22.4732 0.48454 16.52 0.546379 10.5669C0.96377 8.35439 2.24683 7.03328 4.39565 6.60351C5.41548 6.55576 6.43577 6.53981 7.45652 6.55576C7.08625 3.44336 8.32293 1.40592 11.1667 0.44347Z"
        fill="#010101" />
    <path fill-rule="evenodd" clip-rule="evenodd"
        d="M11.352 3.0221C17.0409 3.00615 22.7299 3.0221 28.4186 3.06985C29.1971 3.26649 29.7072 3.75987 29.949 4.55017C30.0109 10.2486 30.0109 15.947 29.949 21.6455C29.7785 22.3642 29.3611 22.8576 28.6969 23.1258C27.6838 23.2625 26.6635 23.3102 25.636 23.269C25.6515 19.0349 25.636 14.8009 25.5896 10.5669C25.1529 8.27102 23.808 6.94991 21.5549 6.60351C17.6903 6.55576 13.8255 6.53981 9.96066 6.55576C9.92346 5.78361 9.96984 5.01957 10.0998 4.26365C10.3851 3.69913 10.8025 3.28521 11.352 3.0221Z"
        fill="#FEFEFE" />
    <path fill-rule="evenodd" clip-rule="evenodd"
        d="M4.76674 9.1344C10.332 9.11845 15.8973 9.1344 21.4624 9.18215C22.2752 9.41423 22.8162 9.9395 23.0856 10.758C23.1686 16.6165 23.1377 22.4742 22.9928 28.3308C22.7542 29.1177 22.244 29.611 21.4624 29.8111C15.8353 29.8748 10.2083 29.8748 4.58123 29.8111C3.74255 29.5208 3.23241 28.9318 3.05079 28.0443C2.98893 22.4095 2.98893 16.7748 3.05079 11.14C3.32553 10.186 3.89754 9.51747 4.76674 9.1344Z"
        fill="#FEFEFE" />
</svg>