<svg width="32" height="32" viewBox="0 0 32 32" fill="none" xmlns="http://www.w3.org/2000/svg">
    <path
        d="M31.9989 10.326C31.9982 13.0641 30.6421 15.6902 28.2284 17.6278C25.8146 19.5654 22.5404 20.6562 19.1242 20.6609H9.14596V25.895V29.7406C9.14593 29.7997 9.12644 29.8577 9.08945 29.9088C9.05246 29.9599 8.99928 30.0023 8.93531 30.0317L4.7777 31.9556C4.71332 31.9845 4.64083 31.9997 4.56705 32C4.49414 31.9998 4.42254 31.9845 4.35917 31.9556L0.201561 30.0317C0.13747 30.0007 0.084895 29.9566 0.0493095 29.9038C0.013724 29.8511 -0.00357125 29.7917 -0.00077578 29.7317V20.3166C-0.00145764 20.2726 0.00872244 20.229 0.0291778 20.1882C0.0496332 20.1474 0.0799595 20.1102 0.118409 20.0789L8.43362 13.4141C8.51416 13.3564 8.61953 13.3261 8.72743 13.3296H19.1242C20.1166 13.3296 21.0684 13.0136 21.7701 12.4512C22.4718 11.8887 22.8661 11.1259 22.8661 10.3305C22.8661 9.53504 22.4718 8.77219 21.7701 8.20973C21.0684 7.64728 20.1166 7.3313 19.1242 7.3313H0.417757C0.306979 7.33071 0.200945 7.29518 0.122612 7.2324C0.0442792 7.16961 -4.93472e-05 7.08463 -0.00077578 6.99583V0.331019C0.00138973 0.243003 0.0463526 0.159144 0.124532 0.097312C0.202712 0.0354795 0.307926 0.000562053 0.417757 0L19.1242 0C22.5384 0.00470348 25.811 1.09434 28.2245 3.03002C30.6379 4.9657 31.9953 7.58945 31.9989 10.326ZM0.830746 6.66482H8.31444V0.666482H0.830746V6.66482ZM19.1242 0.666482C18.1318 0.666482 17.1801 0.982464 16.4783 1.54492C15.7766 2.10737 15.3824 2.87022 15.3824 3.66565C15.3824 4.46108 15.7766 5.22393 16.4783 5.78638C17.1801 6.34883 18.1318 6.66482 19.1242 6.66482C20.1166 6.66482 21.0684 6.34883 21.7701 5.78638C22.4718 5.22393 22.8661 4.46108 22.8661 3.66565C22.8661 2.87022 22.4718 2.10737 21.7701 1.54492C21.0684 0.982464 20.1166 0.666482 19.1242 0.666482ZM16.4911 6.66482C15.8879 6.3284 15.3951 5.88019 15.0545 5.35831C14.7139 4.83644 14.5356 4.25635 14.5348 3.66739C14.534 3.07842 14.7107 2.49802 15.0498 1.97554C15.389 1.45306 15.8805 1.00398 16.4827 0.666482H9.14596V6.66482H16.4911ZM22.8661 16.9908C22.8672 16.3985 22.6491 15.8193 22.2395 15.3263C21.8298 14.8333 21.247 14.4488 20.5647 14.2213C19.8824 13.9939 19.1313 13.9337 18.4063 14.0484C17.6813 14.163 17.015 14.4475 16.4917 14.8657C15.9684 15.2839 15.6116 15.817 15.4663 16.3978C15.3211 16.9785 15.394 17.5808 15.6757 18.1283C15.9575 18.6759 16.4356 19.1442 17.0494 19.4739C17.6632 19.8037 18.3852 19.9802 19.1242 19.9811C20.113 19.9782 21.0601 19.6614 21.7582 19.1002C22.4563 18.539 22.8487 17.7789 22.8494 16.9864L22.8661 16.9908ZM0.830746 25.3041L4.3564 23.6734C4.42002 23.644 4.49219 23.6285 4.56566 23.6285C4.63913 23.6285 4.7113 23.644 4.77493 23.6734L8.31444 25.3041V20.6609H0.830746V25.3041ZM1.4239 19.9722H8.31444V14.4693L1.4239 19.9722ZM8.31444 26.0816L4.57259 24.3532L0.830746 26.0816V29.5473L4.56428 31.2758L8.31444 29.5473V26.0816ZM16.4827 19.9811C15.8806 19.6438 15.389 19.1951 15.0495 18.673C14.71 18.1508 14.5327 17.5707 14.5327 16.982C14.5327 16.3932 14.71 15.8131 15.0495 15.2909C15.389 14.7688 15.8806 14.3201 16.4827 13.9828H9.14596V19.9811H16.4827ZM31.173 10.326C31.1686 8.20359 30.2932 6.14125 28.6818 4.45703C27.0704 2.77282 24.8125 1.56027 22.2563 1.00639C22.8034 1.41767 23.2155 1.93073 23.4562 2.50014C23.6969 3.06955 23.7588 3.67774 23.6363 4.27088C23.5138 4.86401 23.2107 5.42378 22.7539 5.90063C22.297 6.37749 21.7006 6.75671 21.0173 7.00472C21.8162 7.29508 22.4939 7.7638 22.9691 8.35479C23.4444 8.94578 23.6972 9.63401 23.6972 10.3371C23.6972 11.0402 23.4444 11.7285 22.9691 12.3195C22.4939 12.9105 21.8162 13.3792 21.0173 13.6695C21.7006 13.9175 22.297 14.2968 22.7539 14.7736C23.2107 15.2505 23.5138 15.8102 23.6363 16.4034C23.7588 16.9965 23.6969 17.6047 23.4562 18.1741C23.2155 18.7435 22.8034 19.2566 22.2563 19.6679C24.8145 19.1109 27.0727 17.8942 28.6819 16.2056C30.2911 14.5171 31.1617 12.4508 31.1591 10.326H31.173Z"
        fill="#5555FF" />
</svg>