<svg width="32" height="32" viewBox="0 0 32 32" fill="none" xmlns="http://www.w3.org/2000/svg">
<path opacity="0.991" fill-rule="evenodd" clip-rule="evenodd" d="M15.5878 0.103516C15.8511 0.103516 16.1143 0.103516 16.3775 0.103516C17.1292 0.177258 17.8388 0.400434 18.5063 0.773044C21.7681 2.66146 25.0299 4.54987 28.2917 6.43828C29.4911 7.30825 30.1949 8.48137 30.4033 9.95759C30.4262 13.9977 30.4262 18.0377 30.4033 22.0778C30.1693 23.7316 29.3395 24.9849 27.914 25.8374C24.7153 27.6714 21.5222 29.514 18.3346 31.3653C17.7554 31.6558 17.1488 31.8447 16.5149 31.9318C16.286 31.9318 16.0571 31.9318 15.8282 31.9318C15.6769 31.8662 15.5796 31.7518 15.5363 31.5885C15.5134 27.9948 15.5134 24.4011 15.5363 20.8074C15.5731 20.7132 15.6246 20.6274 15.6908 20.5499C17.0353 19.849 18.3744 19.1394 19.708 18.4211C19.7595 18.3696 19.811 18.3181 19.8625 18.2666C19.9194 16.7931 19.9308 15.3167 19.8969 13.8374C19.8339 13.7287 19.7481 13.6428 19.6393 13.5799C18.6609 13.0278 17.6881 12.467 16.7209 11.8975C16.2288 11.6457 15.7366 11.6457 15.2445 11.8975C14.1998 12.4961 13.164 13.1084 12.1372 13.7344C12.1143 13.7802 12.0914 13.826 12.0685 13.8718C12.0571 19.1593 12.0456 24.4469 12.0342 29.7344C11.9697 29.9591 11.8209 30.085 11.5878 30.1121C11.4471 30.0847 11.3154 30.0332 11.193 29.9576C10.386 29.4797 9.57342 29.0104 8.75522 28.5499C8.67337 28.4682 8.62187 28.3709 8.60072 28.258C8.57781 23.062 8.57781 17.866 8.60072 12.67C8.68092 12.0413 8.9842 11.5549 9.51059 11.2108C11.3817 10.1437 13.2472 9.06784 15.1072 7.98334C15.719 7.72281 16.3256 7.73425 16.9269 8.01768C18.8438 9.11917 20.7551 10.2293 22.6608 11.3482C23.0582 11.6883 23.2928 12.1175 23.3647 12.6357C23.3876 14.341 23.3876 16.0463 23.3647 17.7516C23.2254 19.3298 22.5215 20.583 21.2531 21.5112C20.532 21.9347 19.811 22.3582 19.09 22.7816C19.057 22.8303 19.0284 22.8819 19.0041 22.9361C18.9812 24.0921 18.9812 25.248 19.0041 26.4039C19.1103 26.6315 19.2877 26.7174 19.5363 26.6615C21.8024 25.3567 24.0685 24.052 26.3346 22.7473C26.6866 22.4861 26.8984 22.137 26.9698 21.7001C26.9927 17.9118 26.9927 14.1235 26.9698 10.3353C26.889 9.92762 26.6887 9.59 26.369 9.3224C23.1644 7.46832 19.9598 5.61425 16.7552 3.76017C16.264 3.49919 15.7718 3.48775 15.2788 3.72583C12.1142 5.5657 8.94396 7.39687 5.7681 9.2194C5.33287 9.48305 5.07536 9.86643 4.99557 10.3696C4.98412 15.4855 4.97267 20.6014 4.96123 25.7172C4.85144 25.9639 4.6626 26.0611 4.39471 26.0091C3.63499 25.6006 2.89106 25.1657 2.16295 24.7044C1.84543 24.4049 1.63942 24.0444 1.54492 23.6228C1.54492 19.0792 1.54492 14.5355 1.54492 9.99193C1.73868 8.56844 2.40248 7.41823 3.53634 6.54128C6.86118 4.59842 10.1917 2.66423 13.5278 0.738709C14.1763 0.387973 14.863 0.176242 15.5878 0.103516Z" fill="#36D6E6"/>
</svg>
