<svg width="32" height="32" viewBox="0 0 32 32" fill="none" xmlns="http://www.w3.org/2000/svg">
    <g clip-path="url(#clip0_956_45)">
        <path opacity="0.988" fill-rule="evenodd" clip-rule="evenodd"
            d="M9.77144 30.5714C9.73365 28.0754 9.77175 25.5993 9.88573 23.1428C13.4196 25.9731 17.191 26.2969 21.2 24.1143C24.6297 21.6455 26.0964 18.274 25.6 14C24.2345 8.17939 20.5584 5.45557 14.5714 5.82855C12.7709 6.16624 11.2089 6.94719 9.88573 8.1714C9.77271 7.54565 9.73462 6.89803 9.77144 6.22855C8.72205 6.19122 7.69348 6.22931 6.68573 6.34283C6.68573 13.8476 6.68573 21.3523 6.68573 28.8571C3.40296 26.448 1.28868 23.248 0.342872 19.2571C-0.768398 12.4667 1.38398 7.00003 6.80001 2.85712C11.5341 -0.172594 16.5626 -0.744023 21.8857 1.14283C26.6352 3.22609 29.7781 6.74989 31.3143 11.7143C32.7393 17.7588 31.3108 22.9969 27.0286 27.4285C21.912 31.9304 16.1597 32.9779 9.77144 30.5714Z"
            fill="#06AFEF" />
        <path opacity="0.999" fill-rule="evenodd" clip-rule="evenodd"
            d="M9.88555 23.1429C9.87869 23.0808 9.8406 23.0428 9.77126 23.0286C9.65701 25.5418 9.61892 28.056 9.65698 30.5715C8.55718 30.1744 7.5667 29.603 6.68555 28.8572C6.68555 21.3524 6.68555 13.8477 6.68555 6.3429C7.67603 6.3429 8.6665 6.3429 9.65698 6.3429C9.6194 6.99495 9.6575 7.64258 9.77126 8.28575C9.8406 8.27163 9.87869 8.23354 9.88555 8.17147C11.2087 6.94725 12.7707 6.1663 14.5713 5.82861C20.5582 5.45564 24.2343 8.17946 25.5998 14C26.0962 18.2741 24.6295 21.6455 21.1998 24.1143C17.1908 26.297 13.4194 25.9732 9.88555 23.1429Z"
            fill="#FEFEFE" />
        <path fill-rule="evenodd" clip-rule="evenodd"
            d="M6.68555 6.34298C7.6933 6.22946 8.72187 6.19137 9.77126 6.2287C9.73444 6.89818 9.77253 7.54581 9.88555 8.17156C9.87869 8.23362 9.8406 8.27172 9.77126 8.28584C9.6575 7.64266 9.6194 6.99504 9.65698 6.34298C8.6665 6.34298 7.67603 6.34298 6.68555 6.34298Z"
            fill="#67CEF5" />
        <path fill-rule="evenodd" clip-rule="evenodd"
            d="M15.3716 8.51443C18.2059 8.43572 20.3202 9.61667 21.7145 12.0573C23.0469 14.9391 22.8184 17.682 21.0288 20.2859C18.4488 23.0669 15.5727 23.4288 12.4002 21.3716C10.188 19.3444 9.36896 16.8492 9.94306 13.8859C10.7605 11.0683 12.57 9.27782 15.3716 8.51443Z"
            fill="#06AFF0" />
        <path opacity="0.996" fill-rule="evenodd" clip-rule="evenodd"
            d="M9.8859 23.1431C9.77193 25.5996 9.73382 28.0757 9.77162 30.5717C9.73353 30.5717 9.69542 30.5717 9.65733 30.5717C9.61927 28.0562 9.65737 25.542 9.77162 23.0288C9.84095 23.043 9.87905 23.081 9.8859 23.1431Z"
            fill="#86D8F7" />
    </g>
    <defs>
        <clipPath id="clip0_956_45">
            <rect width="32" height="32" fill="white" />
        </clipPath>
    </defs>
</svg>