<svg width="32" height="32" viewBox="0 0 32 32" fill="none" xmlns="http://www.w3.org/2000/svg">
<path d="M16 32C24.8366 32 32 24.8366 32 16C32 7.16344 24.8366 0 16 0C7.16344 0 0 7.16344 0 16C0 24.8366 7.16344 32 16 32Z" fill="black"/>
<path d="M19.2667 9.8C15.7333 9.8 12.8667 12.6667 12.8667 16.2V24.6667H16.8V22.1333C17.5333 22.4667 18.4 22.6 19.2667 22.6C22.8 22.6 25.6667 19.7333 25.6667 16.2C25.6667 12.6667 22.8 9.8 19.2667 9.8ZM19.2667 19.0667C17.6667 19.0667 16.3333 17.8 16.3333 16.1333C16.3333 14.4667 17.6667 13.2 19.2667 13.2C20.8667 13.2 22.2 14.4667 22.2 16.1333C22.2 17.8 20.8667 19.0667 19.2667 19.0667Z" fill="white"/>
<path d="M9.19999 13.2667C10.82 13.2667 12.1333 11.9534 12.1333 10.3333C12.1333 8.71331 10.82 7.40001 9.19999 7.40001C7.57996 7.40001 6.26666 8.71331 6.26666 10.3333C6.26666 11.9534 7.57996 13.2667 9.19999 13.2667Z" fill="white"/>
</svg>
