<svg width="32" height="32" viewBox="0 0 32 32" fill="none" xmlns="http://www.w3.org/2000/svg">
<path fill-rule="evenodd" clip-rule="evenodd" d="M11.2844 0.222174C23.0945 -1.1754 29.9995 4.02055 32 15.81C31.2352 23.7933 27.129 29.0838 19.6826 31.6812C13.1533 31.9646 6.62116 32.059 0.086785 31.9646C-0.160123 24.7424 0.119818 17.5626 0.926606 10.4251C3.01496 5.55303 6.46775 2.15206 11.2844 0.222174Z" fill="#E97C20"/>
<path fill-rule="evenodd" clip-rule="evenodd" d="M14.645 6.45731C15.5654 6.3363 16.4052 6.52522 17.1644 7.02414C17.5379 11.1809 17.5379 15.3377 17.1644 19.4944C16.2311 20.2501 15.2984 20.2501 14.365 19.4944C13.9182 15.1037 14.0117 10.758 14.645 6.45731Z" fill="white"/>
<path fill-rule="evenodd" clip-rule="evenodd" d="M7.92449 7.02437C9.46024 6.78472 10.2066 7.44604 10.164 9.00828C9.60021 10.435 8.94683 11.8521 8.20443 13.2595C7.82595 20.6225 11.2787 23.929 18.5622 23.179C22.9321 21.0359 24.5182 17.5405 23.3212 12.6927C22.4069 11.5857 21.7541 10.3576 21.3616 9.00828C21.4786 7.94745 22.0385 7.28619 23.0413 7.02437C28.9447 12.8859 28.9447 18.8376 23.0413 24.8795C16.8703 28.6337 11.365 27.7835 6.52479 22.3288C3.54678 16.8536 4.01316 11.7522 7.92449 7.02437Z" fill="white"/>
</svg>
