<svg width="32" height="32" viewBox="0 0 32 32" fill="none" xmlns="http://www.w3.org/2000/svg">
<g clip-path="url(#clip0_91_813)">
<path fill-rule="evenodd" clip-rule="evenodd" d="M-0.0703125 -0.0703125C10.5964 -0.0703125 21.263 -0.0703125 31.9297 -0.0703125C31.9297 5.23931 31.9297 10.549 31.9297 15.8586C29.4412 11.972 26.1228 9.009 21.9741 6.96969C16.7213 4.90613 11.7435 5.42761 7.0408 8.53413C4.20391 10.5411 1.83353 12.9826 -0.0703125 15.8586C-0.0703125 10.549 -0.0703125 5.23931 -0.0703125 -0.0703125Z" fill="#323232"/>
<path fill-rule="evenodd" clip-rule="evenodd" d="M31.9297 15.8587C31.9297 15.9061 31.9297 15.9536 31.9297 16.0009C29.4966 19.7849 26.2728 22.7005 22.2586 24.7476C16.9312 26.9602 11.8586 26.486 7.0408 23.3254C4.20391 21.3183 1.83353 18.877 -0.0703125 16.0009C-0.0703125 15.9536 -0.0703125 15.9061 -0.0703125 15.8587C1.83353 12.9827 4.20391 10.5413 7.0408 8.53428C11.7435 5.42776 16.7213 4.90627 21.9741 6.96983C26.1228 9.00914 29.4412 11.9721 31.9297 15.8587Z" fill="#F9F9F9"/>
<path fill-rule="evenodd" clip-rule="evenodd" d="M14.1507 7.32391C17.4101 7.02472 20.4442 7.71213 23.2529 9.38613C25.9898 11.08 28.2654 13.2607 30.0796 15.9284C27.4984 19.7554 24.0375 22.4576 19.6973 24.035C15.7777 25.0885 12.0799 24.5669 8.60401 22.4706C5.86709 20.7767 3.59153 18.596 1.77734 15.9284C4.80228 11.4542 8.92673 8.58602 14.1507 7.32391Z" fill="#323232"/>
<path fill-rule="evenodd" clip-rule="evenodd" d="M15.2896 8.46185C15.7188 8.43844 16.1454 8.46213 16.5696 8.53296C16.7038 8.91968 16.7512 9.32265 16.7118 9.74185C17.0524 9.86466 17.3843 9.86466 17.7073 9.74185C17.8211 9.36735 18.0344 9.08291 18.3473 8.88852C18.7114 9.03501 19.067 9.20092 19.414 9.38629C19.2585 9.73379 19.1163 10.0893 18.9873 10.453C19.2281 10.6701 19.4889 10.8597 19.7696 11.0219C20.0905 10.802 20.3987 10.565 20.694 10.3107C21.1093 10.5556 21.37 10.8875 21.4762 11.3063C21.3139 11.6062 21.1006 11.867 20.8362 12.0885C20.9984 12.3692 21.1879 12.6299 21.4051 12.8707C21.7688 12.7418 22.1243 12.5996 22.4718 12.4441C22.6571 12.7911 22.8231 13.1466 22.9696 13.5107C22.6405 13.8183 22.3085 14.1264 21.974 14.4352C22.0673 14.7129 22.1147 14.9974 22.1162 15.2885C22.5429 15.2885 22.9696 15.2885 23.3962 15.2885C23.3962 15.7152 23.3962 16.1419 23.3962 16.5685C22.9696 16.5685 22.5429 16.5685 22.1162 16.5685C22.1147 16.8596 22.0673 17.1441 21.974 17.4219C22.3085 17.7306 22.6405 18.0388 22.9696 18.3463C22.8231 18.7104 22.6571 19.0659 22.4718 19.413C22.1243 19.2575 21.7688 19.1153 21.4051 18.9863C21.1879 19.2271 20.9984 19.4879 20.8362 19.7685C21.1859 20.0683 21.3993 20.4239 21.4762 20.8352C21.2367 21.0984 20.976 21.3355 20.694 21.5463C20.3474 21.361 20.0392 21.1239 19.7696 20.8352C19.4889 20.9973 19.2281 21.1869 18.9873 21.4041C19.1163 21.7677 19.2585 22.1233 19.414 22.4707C19.067 22.6561 18.7114 22.822 18.3473 22.9685C18.0398 22.6394 17.7317 22.3075 17.4229 21.973C17.1451 22.0663 16.8607 22.1136 16.5696 22.1152C16.5696 22.5419 16.5696 22.9685 16.5696 23.3952C16.1429 23.3952 15.7162 23.3952 15.2896 23.3952C15.2896 22.9685 15.2896 22.5419 15.2896 22.1152C14.9984 22.1136 14.714 22.0663 14.4362 21.973C14.1275 22.3075 13.8193 22.6394 13.5118 22.9685C13.1477 22.822 12.7921 22.6561 12.4451 22.4707C12.6006 22.1233 12.7428 21.7677 12.8718 21.4041C12.631 21.1869 12.3702 20.9973 12.0896 20.8352C11.7898 21.1849 11.4342 21.3982 11.0229 21.4752C10.7596 21.2357 10.5225 20.975 10.3118 20.693C10.4971 20.3464 10.7342 20.0382 11.0229 19.7685C10.8608 19.4879 10.6711 19.2271 10.454 18.9863C10.0904 19.1153 9.73482 19.2575 9.38733 19.413C9.20196 19.0659 9.03604 18.7104 8.88955 18.3463C9.08394 18.0334 9.36839 17.8201 9.74289 17.7063C9.8657 17.3833 9.8657 17.0514 9.74289 16.7107C9.36069 16.7341 8.98143 16.7103 8.60511 16.6396C8.41548 16.1656 8.41548 15.6914 8.60511 15.2174C8.98143 15.1467 9.36069 15.123 9.74289 15.1463C9.8657 14.8057 9.8657 14.4737 9.74289 14.1507C9.36839 14.0369 9.08394 13.8236 8.88955 13.5107C9.03604 13.1466 9.20196 12.7911 9.38733 12.4441C9.73482 12.5996 10.0904 12.7418 10.454 12.8707C10.6711 12.6299 10.8608 12.3692 11.0229 12.0885C10.7342 11.8188 10.4971 11.5107 10.3118 11.1641C10.5567 10.7488 10.8885 10.4881 11.3073 10.3819C11.555 10.6122 11.8157 10.8255 12.0896 11.0219C12.3702 10.8597 12.631 10.6701 12.8718 10.453C12.7428 10.0893 12.6006 9.73379 12.4451 9.38629C12.7921 9.20092 13.1477 9.03501 13.5118 8.88852C13.8193 9.21769 14.1275 9.54954 14.4362 9.88407C14.714 9.79083 14.9984 9.74343 15.2896 9.74185C15.2896 9.31518 15.2896 8.88852 15.2896 8.46185Z" fill="#F9F9F9"/>
<path fill-rule="evenodd" clip-rule="evenodd" d="M14.7205 11.8756C17.1873 11.5086 18.9178 12.4568 19.9116 14.7201C20.3499 17.0433 19.5204 18.7262 17.4227 19.769C14.999 20.4413 13.2212 19.659 12.0894 17.4223C11.4374 14.8393 12.3144 12.9904 14.7205 11.8756Z" fill="#313131"/>
<path fill-rule="evenodd" clip-rule="evenodd" d="M15.1463 13.4398C16.646 13.2058 17.7127 13.7747 18.3463 15.1465C18.607 17.5405 17.5403 18.6072 15.1463 18.3465C13.4678 17.5266 13.0175 16.2703 13.7952 14.5776C14.1894 14.1106 14.6398 13.7313 15.1463 13.4398Z" fill="#FCFCFC"/>
<path fill-rule="evenodd" clip-rule="evenodd" d="M-0.0703125 16C1.83353 18.876 4.20391 21.3174 7.0408 23.3244C11.8586 26.485 16.9312 26.9592 22.2586 24.7467C26.2728 22.6995 29.4966 19.784 31.9297 16C31.9297 21.3096 31.9297 26.6193 31.9297 31.9289C21.263 31.9289 10.5964 31.9289 -0.0703125 31.9289C-0.0703125 26.6193 -0.0703125 21.3096 -0.0703125 16Z" fill="#323232"/>
</g>
<defs>
<clipPath id="clip0_91_813">
<rect width="32" height="32" fill="white"/>
</clipPath>
</defs>
</svg>
