<svg width="32" height="32" viewBox="0 0 38 44" fill="none" xmlns="http://www.w3.org/2000/svg">
    <path fill-rule="evenodd" clip-rule="evenodd"
        d="M31.0963 4.22064C27.3719 1.18857 22.4979 -0.42702 17.3525 0.0979346C12.1889 0.622889 7.73585 3.18431 4.71283 6.90877C1.68076 10.6332 0.0651671 15.5117 0.590122 20.6617C0.866176 23.3543 1.69434 25.8569 2.94789 28.0608C3.62248 29.2515 4.40655 30.2634 5.22472 31.3193C5.31767 31.4393 5.41106 31.5598 5.50479 31.6812C5.87135 32.1564 6.20624 32.6044 6.49134 33.0389C6.52302 33.0841 6.55017 33.1294 6.57732 33.1746C7.10681 34.0571 7.45074 35.0663 7.55483 36.1614C7.7449 38.1255 7.11586 39.9855 5.95281 41.3974C5.87141 41.4924 5.78983 41.5875 5.70391 41.6825C8.02095 42.918 10.7046 43.5153 13.5013 43.2619V43.271L13.6552 43.2528C17.4928 42.8591 20.8099 40.9494 23.0682 38.1753C23.394 37.7816 23.6927 37.3607 23.9732 36.9308C27.924 35.9035 31.3181 33.6453 33.7754 30.6313C36.8075 26.9068 38.4231 22.0284 37.8981 16.8784C37.3732 11.7103 34.8118 7.25271 31.0963 4.22064ZM19.4387 30.8938H19.3935C19.1536 32.084 18.6241 33.1746 17.8774 34.0888C16.9271 35.2382 15.6283 36.0936 14.1168 36.4827V36.4737C14.1077 36.1705 14.0896 35.8628 14.0579 35.5505C13.8317 33.1656 13.008 30.9843 11.7454 29.1379C11.3371 28.5195 10.9044 27.9331 10.4759 27.3522C9.58423 26.1436 8.71056 24.9594 8.11146 23.5625C7.63629 22.4538 7.3195 21.2545 7.18826 19.9874C6.85338 16.6612 7.89424 13.5114 9.85377 11.1039C11.8088 8.70086 14.687 7.04454 18.0268 6.70513C21.3485 6.36572 24.4982 7.40657 26.9012 9.37063C29.2997 11.3256 30.9561 14.2084 31.2955 17.5527C31.6349 20.8789 30.5895 24.0286 28.63 26.4362C26.675 28.8392 23.7968 30.4955 20.457 30.8349C20.1175 30.8712 19.7736 30.8893 19.4387 30.8938Z"
        fill="#4D7EBF" />
</svg>