<svg width="32" height="32" viewBox="0 0 32 32" fill="none" xmlns="http://www.w3.org/2000/svg">
<g clip-path="url(#clip0_93_80)">
<path fill-rule="evenodd" clip-rule="evenodd" d="M-0.0703125 -0.0703125C10.5964 -0.0703125 21.263 -0.0703125 31.9297 -0.0703125C31.9297 10.5964 31.9297 21.263 31.9297 31.9297C21.263 31.9297 10.5964 31.9297 -0.0703125 31.9297C-0.0703125 21.263 -0.0703125 10.5964 -0.0703125 -0.0703125Z" fill="#FAE047"/>
<path fill-rule="evenodd" clip-rule="evenodd" d="M23.8224 15.2884C25.2634 15.2113 26.6856 15.3298 28.0891 15.644C28.3704 15.7124 28.56 15.8782 28.658 16.1417C28.4014 16.8878 28.1881 17.6465 28.018 18.4173C26.926 17.8386 25.7646 17.6253 24.5335 17.7773C23.4296 17.9697 23.0265 18.6097 23.3246 19.6973C24.3555 20.5317 25.5169 21.1244 26.8091 21.4751C29.3486 22.841 29.9411 24.8085 28.5869 27.3773C27.8347 28.3171 26.8627 28.9097 25.6713 29.1551C23.7236 29.5325 21.8273 29.3667 19.9824 28.6573C20.0729 27.8394 20.2388 27.0334 20.4802 26.2395C20.9872 26.2006 21.485 26.3192 21.9735 26.5951C23.1843 26.9236 24.3694 26.8763 25.5291 26.4529C26.2876 25.6944 26.2876 24.9358 25.5291 24.1773C24.4082 23.6293 23.2705 23.1079 22.1158 22.6129C20.0271 21.2033 19.5767 19.3782 20.7646 17.1373C21.5675 16.1328 22.5867 15.5164 23.8224 15.2884Z" fill="#333233"/>
<path fill-rule="evenodd" clip-rule="evenodd" d="M12.0176 24.2483C11.8761 25.8346 11.8287 27.4466 11.8753 29.0838C10.8798 29.0838 9.88423 29.0838 8.88867 29.0838C8.88867 24.5801 8.88867 20.0765 8.88867 15.5727C10.166 15.4578 11.446 15.3629 12.7287 15.2883C14.2288 15.2503 15.6511 15.5585 16.9953 16.2127C18.8616 17.8885 19.2171 19.856 18.062 22.1149C17.3424 23.1274 16.3704 23.7674 15.1464 24.0349C14.1124 24.2198 13.0694 24.2909 12.0176 24.2483Z" fill="#323233"/>
<path fill-rule="evenodd" clip-rule="evenodd" d="M12.0173 17.7061C12.7773 17.6825 13.5358 17.7062 14.2929 17.7772C15.8981 18.6761 16.1352 19.8613 15.004 21.3328C14.056 21.947 13.0367 22.1129 11.9462 21.8305C11.8316 20.4447 11.8553 19.0699 12.0173 17.7061Z" fill="#F3DA47"/>
<path fill-rule="evenodd" clip-rule="evenodd" d="M12.0176 24.248C12.0176 25.9074 12.0176 27.5665 12.0176 29.2258C10.9482 29.272 9.90522 29.2247 8.88867 29.0836C9.88423 29.0836 10.8798 29.0836 11.8753 29.0836C11.8287 27.4463 11.8761 25.8344 12.0176 24.248Z" fill="#8F823C"/>
</g>
<defs>
<clipPath id="clip0_93_80">
<rect width="32" height="32" fill="white"/>
</clipPath>
</defs>
</svg>
