<svg width="32" height="32" viewBox="0 0 32 32" fill="none" xmlns="http://www.w3.org/2000/svg">
<g clip-path="url(#clip0_90_23)">
<path fill-rule="evenodd" clip-rule="evenodd" d="M-0.0703125 -0.0703125C10.5964 -0.0703125 21.263 -0.0703125 31.9297 -0.0703125C31.9297 10.5964 31.9297 21.263 31.9297 31.9297C21.263 31.9297 10.5964 31.9297 -0.0703125 31.9297C-0.0703125 21.263 -0.0703125 10.5964 -0.0703125 -0.0703125Z" fill="#217DE5"/>
<path fill-rule="evenodd" clip-rule="evenodd" d="M14.0098 7.46756C14.1934 7.43381 14.3356 7.48121 14.4364 7.60978C14.2027 8.33363 14.0604 9.09216 14.0098 9.88534C14.0098 9.0794 14.0098 8.27349 14.0098 7.46756Z" fill="#9EC5F2"/>
<path fill-rule="evenodd" clip-rule="evenodd" d="M14.4361 7.60938C14.5034 7.80938 14.6456 7.9042 14.8628 7.89382C15.007 8.06075 15.1966 8.15557 15.4317 8.17826C15.4989 8.37827 15.6412 8.47309 15.8583 8.46271C15.9256 8.66272 16.0678 8.75754 16.285 8.74715C16.3336 8.86636 16.4284 8.91378 16.5694 8.88938C16.6367 9.08938 16.7789 9.1842 16.9961 9.17382C17.4909 9.49264 18.0124 9.77708 18.5606 10.0272C18.6278 10.2272 18.7701 10.322 18.9872 10.3116C19.1862 10.5092 19.4233 10.6515 19.6983 10.7383C20.1724 11.0227 20.6465 11.3072 21.1206 11.5916C21.2672 11.6981 21.4332 11.7929 21.6183 11.876C21.689 12.2045 21.7126 12.5364 21.6894 12.8716C16.9244 12.8244 12.1837 12.8718 7.46723 13.0138C7.15462 12.9598 6.91759 13.0546 6.75611 13.2983C6.48527 13.3321 6.29564 13.4743 6.18722 13.7249C6.045 13.7723 5.95018 13.8672 5.90278 14.0094C5.70277 14.0767 5.60795 14.2189 5.61834 14.436C5.44221 14.6798 5.3474 14.9643 5.33389 15.2894C5.23987 15.5218 5.19247 15.7825 5.19167 16.0716C5.1718 16.5196 5.26662 16.9225 5.47611 17.2805C5.57093 17.3753 5.66574 17.4701 5.76056 17.5649C5.83531 17.811 5.97753 18.0007 6.18722 18.1338C6.37994 18.563 6.7118 18.7526 7.18278 18.7027C7.3862 18.8502 7.62324 18.9451 7.89389 18.9872C8.00234 19.0964 8.14456 19.1675 8.32056 19.2005C8.98257 19.2715 9.64628 19.2952 10.3117 19.2716C10.3117 20.1723 10.3117 21.0731 10.3117 21.9738C8.88945 21.9738 7.46722 21.9738 6.045 21.9738C5.91828 21.8871 5.77606 21.8397 5.61834 21.8316C5.23463 21.7825 4.95019 21.5929 4.765 21.2627C4.61075 20.9659 4.37372 20.7763 4.05389 20.6938C3.86427 20.4094 3.62723 20.1723 3.34278 19.9827C3.24796 19.7456 3.15316 19.5087 3.05834 19.2716C3.06872 19.0544 2.9739 18.9122 2.77389 18.8449C2.42469 17.5912 2.28247 16.3112 2.34723 15.0049C2.33435 14.6278 2.42917 14.296 2.63167 14.0094C2.85551 13.7816 2.95033 13.4971 2.91611 13.156C3.11612 13.0888 3.21094 12.9465 3.20056 12.7294C3.40057 12.6621 3.49539 12.5199 3.485 12.3027C3.68501 12.2354 3.77983 12.0932 3.76945 11.876C4.18579 11.6972 4.51764 11.4128 4.765 11.0227C4.83229 10.8227 4.97451 10.7279 5.19167 10.7383C5.46252 10.7045 5.65214 10.5622 5.76056 10.3116C5.80796 10.3116 5.85538 10.3116 5.90278 10.3116C6.17343 10.2695 6.41047 10.1747 6.61389 10.0272C9.06813 9.88701 11.5333 9.8396 14.0094 9.88493C14.0601 9.09176 14.2023 8.33323 14.4361 7.60938Z" fill="#FBFDFE"/>
<path fill-rule="evenodd" clip-rule="evenodd" d="M14.4355 7.60819C14.6527 7.59781 14.7949 7.69263 14.8622 7.89263C14.645 7.90302 14.5028 7.8082 14.4355 7.60819Z" fill="#81B3EF"/>
<path fill-rule="evenodd" clip-rule="evenodd" d="M15.4316 8.1785C15.6488 8.16812 15.791 8.26294 15.8583 8.46295C15.6411 8.47333 15.4989 8.37851 15.4316 8.1785Z" fill="#74ABED"/>
<path fill-rule="evenodd" clip-rule="evenodd" d="M15.8574 8.46171C16.0746 8.45132 16.2168 8.54614 16.2841 8.74615C16.0669 8.75653 15.9247 8.66171 15.8574 8.46171Z" fill="#8DBAF0"/>
<path fill-rule="evenodd" clip-rule="evenodd" d="M16.5684 8.88944C16.7855 8.87906 16.9278 8.97388 16.995 9.17388C16.7779 9.18427 16.6356 9.08945 16.5684 8.88944Z" fill="#95BFF1"/>
<path fill-rule="evenodd" clip-rule="evenodd" d="M14.0085 7.4668C14.0085 8.27273 14.0085 9.07864 14.0085 9.88457C11.5324 9.83925 9.06717 9.88665 6.61293 10.0268C6.56552 10.0268 6.51811 10.0268 6.4707 10.0268C6.48645 9.93899 6.53385 9.86788 6.61293 9.81346C9.03023 9.74237 11.448 9.71866 13.8663 9.74235C13.8205 8.9564 13.868 8.19789 14.0085 7.4668Z" fill="#398AE7"/>
<path fill-rule="evenodd" clip-rule="evenodd" d="M26.8089 10.1683C25.3393 10.1683 23.8696 10.1683 22.4 10.1683C22.4 11.0691 22.4 11.9698 22.4 12.8705C22.3527 12.8705 22.3052 12.8705 22.2578 12.8705C22.2578 11.875 22.2578 10.8794 22.2578 9.88387C23.7282 9.86019 25.1978 9.8839 26.6667 9.95499C26.7458 10.0094 26.7931 10.0805 26.8089 10.1683Z" fill="#C7DCF7"/>
<path fill-rule="evenodd" clip-rule="evenodd" d="M6.47123 10.0259C6.51864 10.0259 6.56605 10.0259 6.61345 10.0259C6.41003 10.1735 6.17299 10.2683 5.90234 10.3104C6.01427 10.0822 6.2039 9.9874 6.47123 10.0259Z" fill="#8FBCF0"/>
<path fill-rule="evenodd" clip-rule="evenodd" d="M18.5605 10.0262C18.7777 10.0158 18.9199 10.1106 18.9872 10.3106C18.77 10.321 18.6278 10.2262 18.5605 10.0262Z" fill="#7EB1EE"/>
<path fill-rule="evenodd" clip-rule="evenodd" d="M26.8085 10.168C26.9981 10.2154 27.1878 10.2628 27.3774 10.3102C27.4447 10.5102 27.5869 10.605 27.8041 10.5946C27.8527 10.7138 27.9474 10.7613 28.0885 10.7369C28.373 11.1161 28.7048 11.448 29.0841 11.7324C29.0737 11.9496 29.1685 12.0918 29.3685 12.1591C29.3581 12.3762 29.453 12.5185 29.653 12.5857C29.762 13.1047 29.9516 13.5788 30.2218 14.008C30.2218 14.0554 30.2218 14.1028 30.2218 14.1502C30.2464 15.3868 30.1991 16.6195 30.0796 17.848C30.0796 18.0376 30.0796 18.2273 30.0796 18.4169C30.0796 18.4642 30.0796 18.5117 30.0796 18.5591C29.8083 18.6993 29.666 18.9363 29.653 19.2702C29.453 19.3375 29.3581 19.4797 29.3685 19.6969C29.1685 19.7641 29.0737 19.9064 29.0841 20.1235C28.7523 20.3606 28.4678 20.6451 28.2307 20.9769C28.0136 20.9665 27.8713 21.0613 27.8041 21.2613C27.663 21.2368 27.5683 21.2843 27.5196 21.4035C27.1688 21.4398 26.8843 21.582 26.6663 21.8302C26.3956 21.8723 26.1586 21.9672 25.9552 22.1146C23.5374 22.1146 21.1196 22.1146 18.7018 22.1146C18.6512 22.9078 18.509 23.6663 18.2752 24.3902C18.2079 24.1902 18.0657 24.0954 17.8485 24.1057C17.5535 23.9615 17.2691 23.8193 16.9952 23.6791C16.9279 23.4791 16.7857 23.3843 16.5685 23.3946C16.4274 23.4191 16.3327 23.3716 16.2841 23.2524C16.2168 23.0524 16.0746 22.9576 15.8574 22.968C15.7163 22.9924 15.6216 22.9449 15.573 22.8257C15.5057 22.6258 15.3635 22.5309 15.1463 22.5413C15.0052 22.5658 14.9105 22.5183 14.8618 22.3991C14.7215 22.0313 14.437 21.8417 14.0085 21.8302C13.6788 21.7602 13.3943 21.618 13.1552 21.4035C13.0879 21.2036 12.9457 21.1087 12.7285 21.1191C12.4934 21.0963 12.3038 21.0016 12.1596 20.8346C12.0396 20.5134 11.8025 20.3711 11.4485 20.408C11.3075 20.4324 11.2127 20.3849 11.1641 20.2657C11.1641 20.2184 11.1641 20.1709 11.1641 20.1235C11.1641 19.8391 11.1641 19.5546 11.1641 19.2702C15.8102 19.2939 20.4562 19.2702 25.1018 19.1991C25.2778 19.1661 25.42 19.095 25.5285 18.9857C25.9286 19.0533 26.213 18.9111 26.3818 18.5591C26.6663 18.5591 26.8085 18.4169 26.8085 18.1324C26.9981 18.1324 27.093 18.0376 27.093 17.848C27.3701 16.875 27.4413 15.8795 27.3063 14.8613C27.2667 14.731 27.1956 14.6363 27.093 14.5769C27.0591 14.3061 26.9169 14.1164 26.6663 14.008C26.5241 13.9606 26.4292 13.8657 26.3818 13.7235C26.3146 13.5235 26.1723 13.4287 25.9552 13.4391C25.6707 13.3443 25.3863 13.2495 25.1018 13.1546C24.9441 13.0423 24.7545 12.9712 24.533 12.9413C23.8234 12.8703 23.1123 12.8466 22.3996 12.8702C22.3996 11.9695 22.3996 11.0687 22.3996 10.168C23.8692 10.168 25.3389 10.168 26.8085 10.168Z" fill="#FCFDFE"/>
<path fill-rule="evenodd" clip-rule="evenodd" d="M18.9863 10.3104C19.3403 10.2735 19.5774 10.4157 19.6974 10.737C19.4224 10.6503 19.1853 10.508 18.9863 10.3104Z" fill="#6BA3EC"/>
<path fill-rule="evenodd" clip-rule="evenodd" d="M5.7603 10.3105C5.65188 10.5612 5.46225 10.7034 5.19141 10.7372C5.29982 10.4866 5.48945 10.3443 5.7603 10.3105Z" fill="#A2C6F3"/>
<path fill-rule="evenodd" clip-rule="evenodd" d="M27.377 10.3113C27.5941 10.3009 27.7363 10.3958 27.8036 10.5958C27.5864 10.6061 27.4442 10.5113 27.377 10.3113Z" fill="#8EBAF1"/>
<path fill-rule="evenodd" clip-rule="evenodd" d="M28.0898 10.7383C28.5639 10.9279 28.8958 11.2598 29.0854 11.7338C28.7061 11.4494 28.3743 11.1175 28.0898 10.7383Z" fill="#73A9ED"/>
<path fill-rule="evenodd" clip-rule="evenodd" d="M4.76509 11.0215C4.51772 11.4116 4.18587 11.696 3.76953 11.8748C4.0169 11.4847 4.34875 11.2003 4.76509 11.0215Z" fill="#B5D2F5"/>
<path fill-rule="evenodd" clip-rule="evenodd" d="M29.0848 11.7324C29.2847 11.7997 29.3796 11.9419 29.3692 12.1591C29.1692 12.0918 29.0744 11.9496 29.0848 11.7324Z" fill="#A0C5F3"/>
<path fill-rule="evenodd" clip-rule="evenodd" d="M3.76959 11.875C3.77997 12.0922 3.68515 12.2344 3.48514 12.3017C3.47476 12.0845 3.56958 11.9423 3.76959 11.875Z" fill="#A2C6F3"/>
<path fill-rule="evenodd" clip-rule="evenodd" d="M21.1201 11.5909C21.3539 11.5606 21.5673 11.608 21.7601 11.7331C21.8746 12.1878 21.8509 12.6144 21.689 13.0131C16.9483 13.0131 12.2075 13.0131 7.4668 13.0131C12.1832 12.8712 16.924 12.8238 21.689 12.8709C21.7122 12.5357 21.6886 12.2039 21.6179 11.8754C21.4327 11.7922 21.2668 11.6974 21.1201 11.5909Z" fill="#92BDF1"/>
<path fill-rule="evenodd" clip-rule="evenodd" d="M29.368 12.1602C29.5679 12.2274 29.6628 12.3697 29.6524 12.5868C29.4524 12.5195 29.3576 12.3773 29.368 12.1602Z" fill="#9BC3F2"/>
<path fill-rule="evenodd" clip-rule="evenodd" d="M3.48443 12.3027C3.49481 12.5199 3.39999 12.6621 3.19999 12.7294C3.1896 12.5122 3.28442 12.37 3.48443 12.3027Z" fill="#B1CFF5"/>
<path fill-rule="evenodd" clip-rule="evenodd" d="M22.2578 12.8702C22.3052 12.8702 22.3527 12.8702 22.4 12.8702C23.1127 12.8466 23.8238 12.8703 24.5334 12.9413C24.755 12.9711 24.9445 13.0422 25.1023 13.1546C24.1306 13.0905 23.1825 12.9957 22.2578 12.8702Z" fill="#B3D2F5"/>
<path fill-rule="evenodd" clip-rule="evenodd" d="M3.19928 12.7285C3.20966 12.9457 3.11484 13.0879 2.91483 13.1552C2.90445 12.938 2.99927 12.7958 3.19928 12.7285Z" fill="#9DC4F2"/>
<path fill-rule="evenodd" clip-rule="evenodd" d="M7.46697 13.0128C7.32475 13.1076 7.18253 13.2024 7.0403 13.2972C6.94548 13.2972 6.85068 13.2972 6.75586 13.2972C6.91734 13.0535 7.15437 12.9587 7.46697 13.0128Z" fill="#B2D1F5"/>
<path fill-rule="evenodd" clip-rule="evenodd" d="M7.46573 13.0137C12.2065 13.0137 16.9473 13.0137 21.688 13.0137C16.8258 13.1123 11.9429 13.2071 7.03906 13.2981C7.18128 13.2033 7.32351 13.1085 7.46573 13.0137Z" fill="#4592E8"/>
<path fill-rule="evenodd" clip-rule="evenodd" d="M29.6543 12.5859C29.9952 12.9854 30.1848 13.4595 30.2232 14.0082C29.953 13.579 29.7634 13.1049 29.6543 12.5859Z" fill="#91BCF1"/>
<path fill-rule="evenodd" clip-rule="evenodd" d="M6.75639 13.2969C6.64797 13.5475 6.45835 13.6897 6.1875 13.7235C6.29592 13.4729 6.48554 13.3307 6.75639 13.2969Z" fill="#6FA7ED"/>
<path fill-rule="evenodd" clip-rule="evenodd" d="M2.91625 13.1562C2.95047 13.4974 2.85565 13.7818 2.63181 14.0096C2.59759 13.6685 2.69241 13.384 2.91625 13.1562Z" fill="#AECDF4"/>
<path fill-rule="evenodd" clip-rule="evenodd" d="M25.9551 13.4402C26.1723 13.4298 26.3145 13.5247 26.3817 13.7247C26.1646 13.735 26.0223 13.6402 25.9551 13.4402Z" fill="#95BFF1"/>
<path fill-rule="evenodd" clip-rule="evenodd" d="M5.9024 14.0098C5.91278 14.2269 5.81796 14.3692 5.61796 14.4364C5.60757 14.2193 5.70239 14.0771 5.9024 14.0098Z" fill="#89B8F0"/>
<path fill-rule="evenodd" clip-rule="evenodd" d="M26.666 14.0098C26.9166 14.1182 27.0588 14.3079 27.0927 14.5787C26.8421 14.4703 26.6999 14.2806 26.666 14.0098Z" fill="#73AAED"/>
<path fill-rule="evenodd" clip-rule="evenodd" d="M30.2223 14.1504C30.5446 15.2092 30.5921 16.2995 30.3645 17.4215C30.2697 17.5637 30.1749 17.7059 30.0801 17.8482C30.1995 16.6197 30.2469 15.387 30.2223 14.1504Z" fill="#C8DDF7"/>
<path fill-rule="evenodd" clip-rule="evenodd" d="M5.33426 15.2891C5.28977 15.7928 5.33719 16.2668 5.47648 16.7113C5.47648 16.9009 5.47648 17.0906 5.47648 17.2802C5.26699 16.9222 5.17217 16.5193 5.19203 16.0713C5.19283 15.7821 5.24023 15.5215 5.33426 15.2891Z" fill="#D9E8F9"/>
<path fill-rule="evenodd" clip-rule="evenodd" d="M5.61767 15.0039C5.58968 15.8636 5.63708 16.717 5.75989 17.5639C5.66507 17.469 5.57027 17.3743 5.47545 17.2795C5.47545 17.0899 5.47545 16.9002 5.47545 16.7106C5.43039 16.113 5.47781 15.5441 5.61767 15.0039Z" fill="#438FE8"/>
<path fill-rule="evenodd" clip-rule="evenodd" d="M5.617 14.4355C5.617 14.6251 5.617 14.8149 5.617 15.0044C5.47714 15.5446 5.42972 16.1135 5.47478 16.7111C5.33549 16.2667 5.28807 15.7926 5.33256 15.2889C5.34607 14.9638 5.44087 14.6793 5.617 14.4355Z" fill="#89B8F0"/>
<path fill-rule="evenodd" clip-rule="evenodd" d="M27.0934 14.5781C27.1961 14.6376 27.2672 14.7323 27.3067 14.8626C27.4417 15.8807 27.3706 16.8763 27.0934 17.8492C27.046 17.8492 26.9985 17.8492 26.9512 17.8492C27.2673 16.7729 27.3147 15.6826 27.0934 14.5781Z" fill="#74ABED"/>
<path fill-rule="evenodd" clip-rule="evenodd" d="M2.34737 15.0039C2.28261 16.3102 2.42484 17.5902 2.77403 18.8439C2.22568 17.6054 2.08346 16.3254 2.34737 15.0039Z" fill="#79AEEE"/>
<path fill-rule="evenodd" clip-rule="evenodd" d="M30.3645 17.4219C30.3773 17.799 30.2826 18.1309 30.0801 18.4174C30.0801 18.2278 30.0801 18.0381 30.0801 17.8485C30.1749 17.7063 30.2697 17.5641 30.3645 17.4219Z" fill="#6BA5EC"/>
<path fill-rule="evenodd" clip-rule="evenodd" d="M26.9512 17.8496C26.9986 17.8496 27.0461 17.8496 27.0934 17.8496C27.0934 18.0392 26.9986 18.1341 26.809 18.1341C26.7845 17.993 26.832 17.8982 26.9512 17.8496Z" fill="#BCD5F6"/>
<path fill-rule="evenodd" clip-rule="evenodd" d="M6.1875 18.1328C6.5229 18.3282 6.85476 18.5178 7.18306 18.7017C6.71207 18.7516 6.38021 18.562 6.1875 18.1328Z" fill="#6EA5EC"/>
<path fill-rule="evenodd" clip-rule="evenodd" d="M26.8095 18.1328C26.8095 18.4173 26.6673 18.5595 26.3828 18.5595C26.4777 18.3699 26.6199 18.2277 26.8095 18.1328Z" fill="#BAD5F5"/>
<path fill-rule="evenodd" clip-rule="evenodd" d="M30.081 18.5605C30.0454 18.8697 29.9032 19.1068 29.6543 19.2717C29.6674 18.9377 29.8096 18.7008 30.081 18.5605Z" fill="#68A2EC"/>
<path fill-rule="evenodd" clip-rule="evenodd" d="M7.18164 18.7031C8.2949 18.7722 9.38527 18.8671 10.4528 18.9876C9.78904 18.9876 9.12535 18.9876 8.46164 18.9876C8.27202 18.9876 8.08238 18.9876 7.89275 18.9876C7.6221 18.9455 7.38506 18.8506 7.18164 18.7031Z" fill="#4590E8"/>
<path fill-rule="evenodd" clip-rule="evenodd" d="M25.9548 18.7031C25.8126 18.798 25.6704 18.8927 25.5282 18.9876C20.6954 19.1248 15.8599 19.1723 11.0215 19.1298C15.953 18.8886 20.9308 18.7464 25.9548 18.7031Z" fill="#5194E9"/>
<path fill-rule="evenodd" clip-rule="evenodd" d="M26.3826 18.5605C26.2138 18.9125 25.9294 19.0548 25.5293 18.9872C25.6715 18.8924 25.8137 18.7976 25.956 18.7028C26.0827 18.616 26.2249 18.5687 26.3826 18.5605Z" fill="#CEE1F8"/>
<path fill-rule="evenodd" clip-rule="evenodd" d="M2.77421 18.8438C2.97421 18.911 3.06903 19.0532 3.05865 19.2704C2.85864 19.2031 2.76382 19.0609 2.77421 18.8438Z" fill="#9EC4F2"/>
<path fill-rule="evenodd" clip-rule="evenodd" d="M7.89258 18.9863C8.0822 18.9863 8.27184 18.9863 8.46147 18.9863C9.0972 19.1266 9.76091 19.1739 10.4526 19.1286C10.4987 20.1033 10.4513 21.0515 10.3104 21.973C10.3104 21.0723 10.3104 20.1715 10.3104 19.2708C9.64497 19.2944 8.98126 19.2706 8.31924 19.1997C8.14324 19.1667 8.00102 19.0956 7.89258 18.9863Z" fill="#DEEBFA"/>
<path fill-rule="evenodd" clip-rule="evenodd" d="M25.5298 18.9863C25.4212 19.0956 25.279 19.1667 25.1031 19.1997C20.4574 19.2708 15.8114 19.2945 11.1653 19.2708C11.1653 19.5552 11.1653 19.8397 11.1653 20.1241C11.0276 19.8244 10.9802 19.4925 11.0231 19.1286C15.8615 19.1711 20.697 19.1236 25.5298 18.9863Z" fill="#D8E7F9"/>
<path fill-rule="evenodd" clip-rule="evenodd" d="M8.4627 18.9863C9.12641 18.9863 9.7901 18.9863 10.4538 18.9863C10.5949 20.0504 10.6423 21.1407 10.596 22.2574C9.06739 22.3014 7.55034 22.254 6.04492 22.1152C6.04492 22.0679 6.04492 22.0204 6.04492 21.973C7.46714 21.973 8.88937 21.973 10.3116 21.973C10.4525 21.0515 10.4999 20.1033 10.4538 19.1286C9.76214 19.1739 9.09843 19.1266 8.4627 18.9863Z" fill="#87B6F0"/>
<path fill-rule="evenodd" clip-rule="evenodd" d="M29.6524 19.2715C29.6628 19.4887 29.5679 19.6309 29.368 19.6982C29.3576 19.481 29.4524 19.3388 29.6524 19.2715Z" fill="#7FB2EF"/>
<path fill-rule="evenodd" clip-rule="evenodd" d="M11.0231 19.1289C10.9802 19.4929 11.0276 19.8248 11.1653 20.1245C11.1653 20.1718 11.1653 20.2193 11.1653 20.2667C10.9878 20.1481 10.893 19.9585 10.8809 19.6978C10.8824 19.4781 10.9298 19.2885 11.0231 19.1289Z" fill="#62A2EB"/>
<path fill-rule="evenodd" clip-rule="evenodd" d="M29.3692 19.6973C29.3796 19.9144 29.2847 20.0567 29.0848 20.1239C29.0744 19.9068 29.1692 19.7645 29.3692 19.6973Z" fill="#77ACEE"/>
<path fill-rule="evenodd" clip-rule="evenodd" d="M3.3418 19.9824C3.62624 20.172 3.86328 20.4091 4.05291 20.6935C4.05291 20.7409 4.05291 20.7884 4.05291 20.8358C3.70958 20.6351 3.47256 20.3506 3.3418 19.9824Z" fill="#73A9ED"/>
<path fill-rule="evenodd" clip-rule="evenodd" d="M11.4492 20.408C11.8033 20.3712 12.0403 20.5134 12.1603 20.8347C11.8853 20.7479 11.6482 20.6057 11.4492 20.408Z" fill="#BDD6F6"/>
<path fill-rule="evenodd" clip-rule="evenodd" d="M4.05273 20.8356C4.05273 20.7882 4.05273 20.7407 4.05273 20.6934C4.37256 20.7758 4.60959 20.9654 4.76385 21.2622C4.49202 21.1805 4.25497 21.0382 4.05273 20.8356Z" fill="#CCE0F8"/>
<path fill-rule="evenodd" clip-rule="evenodd" d="M28.2314 20.9773C28.1641 21.1773 28.0219 21.2722 27.8047 21.2618C27.872 21.0618 28.0142 20.9669 28.2314 20.9773Z" fill="#629FEB"/>
<path fill-rule="evenodd" clip-rule="evenodd" d="M12.7285 21.1199C12.9457 21.1095 13.0879 21.2044 13.1552 21.4044C12.938 21.4147 12.7958 21.3199 12.7285 21.1199Z" fill="#9EC4F2"/>
<path fill-rule="evenodd" clip-rule="evenodd" d="M27.5193 21.4043C27.3013 21.6525 27.0169 21.7947 26.666 21.831C26.884 21.5828 27.1685 21.4406 27.5193 21.4043Z" fill="#9EC3F2"/>
<path fill-rule="evenodd" clip-rule="evenodd" d="M5.61719 21.832C5.77491 21.8401 5.91713 21.8875 6.04385 21.9743C6.04385 22.0216 6.04385 22.0691 6.04385 22.1165C5.8267 22.1269 5.68447 22.032 5.61719 21.832Z" fill="#70A9EC"/>
<path fill-rule="evenodd" clip-rule="evenodd" d="M26.6662 21.832C26.5048 22.0757 26.2677 22.1705 25.9551 22.1165C26.1585 21.969 26.3955 21.8741 26.6662 21.832Z" fill="#71A9ED"/>
<path fill-rule="evenodd" clip-rule="evenodd" d="M14.0098 21.832C14.4383 21.8436 14.7227 22.0331 14.8631 22.4009C14.4794 22.3519 14.195 22.1623 14.0098 21.832Z" fill="#C4DBF7"/>
<path fill-rule="evenodd" clip-rule="evenodd" d="M18.7024 22.1152C21.1202 22.1152 23.538 22.1152 25.9557 22.1152C23.6102 22.257 21.2399 22.3044 18.8446 22.2575C18.8446 23.0634 18.8446 23.8693 18.8446 24.6752C18.661 24.7089 18.5188 24.6616 18.418 24.533C18.6953 23.7885 18.7902 22.9825 18.7024 22.1152Z" fill="#64A3EB"/>
<path fill-rule="evenodd" clip-rule="evenodd" d="M18.7021 22.1152C18.7898 22.9825 18.6949 23.7885 18.4176 24.533C18.3228 24.533 18.2754 24.4857 18.2754 24.3908C18.5092 23.6669 18.6514 22.9084 18.7021 22.1152Z" fill="#B5D3F5"/>
<path fill-rule="evenodd" clip-rule="evenodd" d="M15.1465 22.5418C15.3637 22.5314 15.5059 22.6263 15.5732 22.8262C15.356 22.8366 15.2138 22.7417 15.1465 22.5418Z" fill="#94BEF1"/>
<path fill-rule="evenodd" clip-rule="evenodd" d="M15.8574 22.9695C16.0746 22.9591 16.2168 23.054 16.2841 23.254C16.0669 23.2643 15.9247 23.1695 15.8574 22.9695Z" fill="#91BCF1"/>
<path fill-rule="evenodd" clip-rule="evenodd" d="M16.5684 23.3953C16.7855 23.3849 16.9278 23.4798 16.995 23.6797C16.7779 23.6901 16.6356 23.5953 16.5684 23.3953Z" fill="#8AB8F0"/>
<path fill-rule="evenodd" clip-rule="evenodd" d="M17.8496 24.1062C18.0668 24.0959 18.209 24.1907 18.2763 24.3907C18.0591 24.4011 17.9169 24.3062 17.8496 24.1062Z" fill="#A2C7F3"/>
</g>
<defs>
<clipPath id="clip0_90_23">
<rect width="32" height="32" fill="white"/>
</clipPath>
</defs>
</svg>
