<svg width="32" height="32" viewBox="0 0 32 32" fill="none" xmlns="http://www.w3.org/2000/svg">
<path fill-rule="evenodd" clip-rule="evenodd" d="M19.0612 3.01688C19.511 3.33876 19.9691 3.66383 20.4357 3.99212C20.4357 6.26767 20.4357 8.54324 20.4357 10.8188C20.2067 10.8188 19.9776 10.8188 19.7485 10.8188C18.5027 10.1962 17.281 9.50546 16.0832 8.74641C15.7777 8.58386 15.4723 8.58386 15.1668 8.74641C11.6931 10.7978 8.2569 12.9108 4.85811 15.0855C4.36549 15.4296 3.83097 15.6327 3.25453 15.695C3.21639 13.3368 3.25458 10.9799 3.36907 8.6245C4.20557 8.08015 5.00736 7.51127 5.77444 6.91783C9.06663 5.0641 12.312 3.11363 15.5105 1.06641C16.7279 1.67737 17.9115 2.32754 19.0612 3.01688Z" fill="#154973"/>
<path fill-rule="evenodd" clip-rule="evenodd" d="M20.4372 3.99219C20.665 6.38625 20.7413 8.82435 20.6663 11.3065C20.2357 11.3725 19.9303 11.21 19.75 10.8189C19.9791 10.8189 20.2082 10.8189 20.4372 10.8189C20.4372 8.54331 20.4372 6.26773 20.4372 3.99219Z" fill="#677D8F"/>
<path fill-rule="evenodd" clip-rule="evenodd" d="M23.8739 5.94141C25.2232 6.69861 26.5214 7.51132 27.7683 8.3795C27.9777 9.16652 28.054 9.97921 27.9974 10.8176C26.5517 10.9037 26.4752 10.6599 27.7683 10.0862C27.7683 9.7611 27.7683 9.436 27.7683 9.11093C26.5551 8.59298 25.3334 8.10536 24.103 7.64807C24.1532 7.3616 24.0769 7.11779 23.8739 6.91664C23.5709 8.19703 23.4181 9.49734 23.4158 10.8176C23.1867 10.8176 22.9576 10.8176 22.7285 10.8176C22.7285 9.51729 22.7285 8.21695 22.7285 6.91664C23.317 6.85869 23.6987 6.53362 23.8739 5.94141Z" fill="#19ACD3"/>
<path fill-rule="evenodd" clip-rule="evenodd" d="M27.7662 10.0879C26.473 10.6616 26.5496 10.9054 27.9953 10.8193C28.0684 15.2265 27.9921 19.6151 27.7662 23.985C26.2687 24.8215 24.8179 25.7156 23.4136 26.6669C22.4522 26.3997 21.5359 25.9935 20.6647 25.4479C19.6359 24.6967 18.5668 24.006 17.4575 23.3755C17.3357 22.8867 17.5648 22.6023 18.1447 22.5221C20.3339 21.9847 22.0902 22.6755 23.4136 24.5945C23.8571 24.7927 24.3153 24.9146 24.7881 24.9602C24.7881 24.6352 24.7881 24.31 24.7881 23.985C24.5591 23.985 24.33 23.985 24.1009 23.985C24.1009 23.7412 24.1009 23.4974 24.1009 23.2536C23.6464 23.282 23.2647 23.1195 22.9555 22.766C23.2876 22.4369 23.4404 22.0305 23.4136 21.5469C23.6427 21.5469 23.8718 21.5469 24.1009 21.5469C24.1009 17.971 24.1009 14.3952 24.1009 10.8193C26.7466 10.9899 26.8229 10.6648 24.33 9.84405C24.1119 9.46729 24.0356 9.06093 24.1009 8.625C25.3554 9.08341 26.577 9.57103 27.7662 10.0879Z" fill="#09AADD"/>
<path fill-rule="evenodd" clip-rule="evenodd" d="M23.1865 5.69727C23.3393 5.69727 23.4919 5.69727 23.6447 5.69727C23.6447 5.85981 23.7209 5.94108 23.8737 5.94108C23.6985 6.53329 23.3168 6.85836 22.7283 6.91631C22.7283 8.21662 22.7283 9.51696 22.7283 10.8173C22.9574 10.8173 23.1865 10.8173 23.4156 10.8173C23.4179 9.49701 23.5707 8.1967 23.8737 6.91631C24.0767 7.11746 24.153 7.36127 24.1028 7.64774C25.3332 8.10503 26.5549 8.59265 27.7681 9.1106C27.7681 9.43567 27.7681 9.76077 27.7681 10.0858C26.579 9.56901 25.3573 9.08139 24.1028 8.62298C24.0375 9.05891 24.1138 9.46527 24.3319 9.84203C26.8248 10.6628 26.7485 10.9879 24.1028 10.8173C23.7235 13.8992 23.4944 17.0687 23.4156 20.3258C22.7231 21.4667 21.7304 22.0356 20.4375 22.0325C20.4375 21.7074 20.4375 21.3823 20.4375 21.0573C21.4665 21.1046 22.1155 20.617 22.3847 19.5944C22.4566 15.123 22.4566 10.6532 22.3847 6.18488C22.6397 5.98862 22.9068 5.82607 23.1865 5.69727Z" fill="#04AAE3"/>
<path fill-rule="evenodd" clip-rule="evenodd" d="M27.7676 8.38086C28.0727 10.895 28.2255 13.4956 28.2257 16.1828C28.2255 18.8699 28.0727 21.4706 27.7676 23.9847C27.9935 19.6148 28.0697 15.2262 27.9967 10.819C28.0532 9.98057 27.977 9.16788 27.7676 8.38086Z" fill="#7DD3F0"/>
<path fill-rule="evenodd" clip-rule="evenodd" d="M23.1865 5.69823C22.9068 5.82703 22.6397 5.98958 22.3847 6.18584C22.4566 10.6541 22.4566 15.124 22.3847 19.5954C22.1155 20.618 21.4665 21.1056 20.4375 21.0582C20.8591 20.5294 21.3936 20.2043 22.0411 20.083C21.9648 15.0416 22.0411 10.0029 22.2702 4.9668C22.5911 5.21565 22.8967 5.45946 23.1865 5.69823Z" fill="#2A9DB7"/>
<path fill-rule="evenodd" clip-rule="evenodd" d="M24.1026 10.8184C24.1026 14.3942 24.1026 17.9701 24.1026 21.546C23.8736 21.546 23.6445 21.546 23.4154 21.546C23.4422 22.0296 23.2894 22.4359 22.9572 22.765C23.2665 23.1186 23.6481 23.2811 24.1026 23.2526C24.1026 23.4965 24.1026 23.7403 24.1026 23.9841C24.3317 23.9841 24.5608 23.9841 24.7899 23.9841C24.7899 24.3091 24.7899 24.6343 24.7899 24.9593C24.3171 24.9137 23.8589 24.7918 23.4154 24.5936C22.092 22.6746 20.3356 21.9838 18.1465 22.5212C18.8259 21.9145 19.5895 21.4269 20.4373 21.0584C20.4373 21.3834 20.4373 21.7085 20.4373 22.0336C21.7303 22.0367 22.7229 21.4678 23.4154 20.3269C23.4942 17.0698 23.7233 13.9003 24.1026 10.8184Z" fill="#07ACD7"/>
<path fill-rule="evenodd" clip-rule="evenodd" d="M9.4411 14.7196C9.2653 14.8834 9.11257 15.0866 8.98293 15.3291C7.05314 15.7059 5.37321 16.5999 3.94311 18.011C3.8879 19.4715 3.96426 20.975 4.1722 22.5215C4.32493 21.2212 4.47763 19.9209 4.63036 18.6205C4.96675 18.1737 5.34856 18.0924 5.77578 18.3767C5.49357 19.0595 5.34086 19.7909 5.31761 20.571C5.39396 21.2212 5.47034 21.8713 5.54669 22.5215C6.4655 23.1531 7.38183 23.1531 8.29569 22.5215C8.89831 22.8883 8.82196 23.0509 8.0666 23.0091C8.10555 23.3315 8.02917 23.6159 7.83752 23.8625C7.25464 24.1287 6.64375 24.2913 6.00486 24.3501C5.90008 24.451 5.82372 24.5729 5.77578 24.7158C6.3215 25.0988 6.93237 25.3019 7.60844 25.3253C7.91458 26.2596 8.52548 26.6253 9.4411 26.4225C9.40216 26.7448 9.47853 27.0293 9.67018 27.2758C10.1553 27.4306 10.6135 27.6339 11.0447 27.8853C11.598 27.8319 11.8271 27.5069 11.7319 26.9101C11.3223 26.9796 10.9405 26.8984 10.5865 26.6663C11.0447 26.3413 11.5028 26.3413 11.961 26.6663C12.2441 26.8752 12.5495 27.0376 12.8773 27.1539C13.0802 27.355 13.1566 27.5988 13.1064 27.8853C13.4957 27.8463 13.8775 27.8868 14.2518 28.0072C12.1851 28.3054 12.2614 28.5492 14.4809 28.7386C14.029 28.8593 13.5708 28.9 13.1064 28.8605C13.1064 29.1855 13.1064 29.5108 13.1064 29.8358C10.8094 28.5324 8.51861 27.2321 6.23394 25.9348C6.13021 25.7013 5.97748 25.4979 5.77578 25.3253C4.95593 24.9094 4.15414 24.4625 3.37041 23.9844C3.21768 21.8713 3.21768 19.7583 3.37041 17.6453C5.18357 16.579 6.97805 15.4818 8.75385 14.3539C9.13356 14.1771 9.36264 14.299 9.4411 14.7196Z" fill="#1E80B2"/>
<path fill-rule="evenodd" clip-rule="evenodd" d="M9.44114 14.7188C9.36536 16.595 9.44172 18.4642 9.67023 20.3264C12.9306 22.4262 16.2141 24.458 19.5208 26.4216C19.1438 26.9972 18.6856 27.5256 18.1463 28.0064C18.7876 28.1134 19.0166 28.4384 18.8335 28.9816C18.0939 29.1245 17.4067 29.0026 16.7718 28.6159C16.7065 29.0518 16.7828 29.4583 17.0009 29.8349C17.396 29.4468 17.6251 29.5282 17.6881 30.0788C17.6881 30.1599 17.6881 30.2414 17.6881 30.3226C17.0033 30.6429 16.3161 30.9679 15.6264 31.2978C14.744 30.8694 13.904 30.3818 13.1065 29.8349C13.1065 29.5099 13.1065 29.1847 13.1065 28.8597C13.5709 28.8992 14.0291 28.8585 14.481 28.7378C12.2615 28.5484 12.1851 28.3045 14.2519 28.0064C13.8775 27.8859 13.4957 27.8455 13.1065 27.8845C13.1566 27.598 13.0803 27.3542 12.8774 27.153C12.5496 27.0367 12.2441 26.8744 11.9611 26.6654C11.5029 26.3404 11.0447 26.3404 10.5866 26.6654C10.9406 26.8975 11.3224 26.9787 11.732 26.9092C11.8271 27.5061 11.598 27.8311 11.0447 27.8845C10.6135 27.6331 10.1554 27.4298 9.67023 27.2749C9.47858 27.0284 9.4022 26.7439 9.44114 26.4216C8.52552 26.6245 7.91463 26.2587 7.60848 25.3245C6.93241 25.3011 6.32154 25.098 5.77582 24.7149C5.82377 24.5721 5.90012 24.4502 6.0049 24.3492C6.64379 24.2905 7.25469 24.1278 7.83756 23.8616C8.02921 23.615 8.10559 23.3306 8.06665 23.0083C8.822 23.05 8.89836 22.8875 8.29573 22.5207C7.38187 23.1522 6.46554 23.1522 5.54674 22.5207C5.47038 21.8705 5.39401 21.2203 5.31765 20.5702C5.34091 19.7901 5.49361 19.0587 5.77582 18.3759C5.3486 18.0916 4.96679 18.1728 4.63041 18.6197C4.47768 19.92 4.32497 21.2203 4.17224 22.5207C3.9643 20.9741 3.88795 19.4706 3.94316 18.0102C5.37325 16.599 7.05318 15.705 8.98298 15.3283C9.11262 15.0858 9.26535 14.8826 9.44114 14.7188Z" fill="#0B7DB8"/>
<path fill-rule="evenodd" clip-rule="evenodd" d="M19.5216 26.4219C20.0439 26.6998 20.5785 26.9843 21.1252 27.2752C21.3429 27.4503 21.3811 27.6534 21.2397 27.8847C20.1436 28.7729 18.96 29.5044 17.6889 30.079C17.6259 29.5285 17.3968 29.4471 17.0017 29.8352C16.7836 29.4585 16.7073 29.0521 16.7726 28.6162C17.4075 29.0028 18.0947 29.1247 18.8343 28.9819C19.0174 28.4387 18.7884 28.1137 18.1471 28.0066C18.6864 27.5258 19.1446 26.9975 19.5216 26.4219Z" fill="#1A7FAF"/>
</svg>
