<svg width="32" height="32" viewBox="0 0 32 32" fill="none" xmlns="http://www.w3.org/2000/svg">
<path fill-rule="evenodd" clip-rule="evenodd" d="M29.8851 2.04297L30.9793 3.73995C25.433 8.64631 22.8794 14.0099 22.0615 18.4471C21.6517 20.671 21.6792 22.6533 21.9761 24.2263C22.2783 25.8271 22.8379 26.9002 23.3909 27.4269L22.152 29.0367L0 15.429L29.8851 2.04297ZM4.3638 15.7125L20.1475 25.4082C20.0803 25.1475 20.0208 24.8794 19.969 24.6051C19.6206 22.7592 19.6022 20.5215 20.0528 18.0769C20.7366 14.3672 22.5034 10.16 25.8722 6.07854L4.3638 15.7125Z" fill="#8DD35F"/>
<path d="M7.45508 15.8642L22.98 8.6875C17.8489 14.4288 17.9805 21.0835 18.7041 23.0408L7.45508 15.8642Z" fill="#8DD35F"/>
</svg>
