<svg width="32" height="32" viewBox="0 0 32 32" fill="none" xmlns="http://www.w3.org/2000/svg">
<g clip-path="url(#clip0_78_2880)">
<rect width="32" height="32" fill="#1F374E"/>
<path d="M16.8878 31.8056H15.0768C15.0107 31.8054 14.9457 31.7866 14.8869 31.7509C14.8282 31.7152 14.7774 31.6634 14.7388 31.6L13.1338 28.9523C13.1002 28.8974 13.0767 28.8348 13.0648 28.7686L13.0278 28.5659L12.9768 28.5161C12.8838 28.7176 12.7128 28.9689 12.4333 28.9944C12.2673 29.0098 11.5383 29.0003 11.2333 28.9961C11.1337 28.9947 11.0379 28.9509 10.9633 28.8729L8.34827 26.16C8.26796 26.0771 8.21751 25.9609 8.20727 25.8353L7.99627 23.3262L7.01427 22.256C6.91427 22.1772 6.76377 21.997 6.76377 21.6279C6.76377 21.4732 6.72727 20.0604 6.70377 19.1775L6.14227 18.7164C6.08677 18.6707 6.04142 18.6097 6.01007 18.5388C5.97873 18.4678 5.96233 18.3889 5.96227 18.3087V15.8975C5.96227 15.6634 6.09077 15.3647 6.37277 15.2646C6.42227 15.2468 6.79527 15.0607 7.32727 14.7864C7.26777 14.56 7.12727 14.0913 6.94727 13.536C6.9118 13.4874 6.87263 13.4428 6.83027 13.4027C6.72027 13.3399 6.10777 12.8812 0.259766 8.15704C0.196929 8.10633 0.146966 8.03626 0.115266 7.95437C0.0230028 7.7115 -0.0148825 7.44454 0.00526555 7.17926C0.0302656 6.91259 0.203766 5.94193 0.277766 5.53778C0.292793 5.45455 0.325491 5.37725 0.372766 5.31318C0.537766 5.09215 0.835266 4.90607 1.17627 5.0483C1.38477 5.13541 8.22427 7.84474 9.20977 8.23467C9.22114 8.21384 9.23181 8.19249 9.24177 8.17067C9.45577 7.69541 10.2628 6.88119 10.5053 6.64296C10.5749 6.57412 10.6617 6.53435 10.7523 6.52978L10.9148 6.52207C11.2348 6.16059 12.1553 5.22726 13.3268 4.94163L13.3278 4.93985C13.3818 4.78282 13.7478 2.94993 14.1608 0.768593C14.1722 0.707482 14.1934 0.649542 14.2233 0.597926C14.3333 0.407704 14.5088 0.165333 14.7233 0.0882963C14.7653 0.0734815 14.8888 0.029037 15.7968 0.00948148V0L15.9703 0.00592593L15.9823 0.20563L15.9883 0.00533333L16.1593 0.00237037V0.00948148C17.0743 0.029037 17.1993 0.0734815 17.2413 0.0882963C17.4553 0.165333 17.6313 0.407704 17.7408 0.597926C17.7708 0.650074 17.7923 0.708148 17.8038 0.769778C18.2173 2.95052 18.5833 4.78341 18.6373 4.94104C19.8093 5.22726 20.7293 6.16059 21.0498 6.52207L21.2118 6.52978C21.3024 6.53423 21.3894 6.57378 21.4593 6.64237C21.7018 6.88119 22.5088 7.69541 22.7228 8.17126C22.7343 8.19674 22.7448 8.21748 22.7548 8.23526C23.7618 7.83585 30.5833 5.13422 30.7883 5.0483C31.1293 4.90607 31.4268 5.09215 31.5918 5.31378C31.639 5.37745 31.6717 5.45435 31.6868 5.53719C31.7438 5.85126 31.9328 6.89659 31.9588 7.17867C31.9938 7.54844 31.8833 7.86607 31.8488 7.95496C31.8173 8.03632 31.7676 8.10597 31.7053 8.15644C25.7213 12.9902 25.2188 13.3588 25.1273 13.4068C25.1193 13.4139 25.0723 13.4625 25.0168 13.536C24.8814 13.9489 24.7544 14.3657 24.6358 14.7858C25.1693 15.0607 25.5423 15.2462 25.5923 15.2646C25.8738 15.3653 26.0023 15.6634 26.0023 15.8975V18.3087C26.0022 18.3889 25.9858 18.4678 25.9545 18.5388C25.9231 18.6097 25.8778 18.6707 25.8223 18.7164L25.2608 19.1775C25.2373 20.0604 25.2008 21.4732 25.2008 21.6284C25.2008 21.9964 25.0503 22.1772 24.9508 22.2566L23.9678 23.3262L23.7568 25.8359C23.7466 25.9611 23.6965 26.077 23.6168 26.16L21.0003 28.8735C20.9257 28.9513 20.8301 28.9948 20.7308 28.9961C20.4258 29.0009 19.6973 29.0092 19.5308 28.9944C19.2523 28.9689 19.0808 28.717 18.9878 28.5156L18.9368 28.5659L18.9003 28.7674C18.8881 28.8343 18.8643 28.8975 18.8303 28.9529L17.2258 31.5994C17.1872 31.663 17.1364 31.7148 17.0777 31.7507C17.0189 31.7865 16.9538 31.8054 16.8878 31.8056" fill="url(#paint0_linear_78_2880)"/>
<path d="M16.8878 31.8056H15.0768C15.0107 31.8054 14.9457 31.7866 14.8869 31.7509C14.8282 31.7152 14.7774 31.6634 14.7388 31.6L13.1338 28.9523C13.1002 28.8974 13.0767 28.8348 13.0648 28.7686L13.0278 28.5659L12.9768 28.5161C12.8838 28.7176 12.7128 28.9689 12.4333 28.9944C12.2673 29.0098 11.5383 29.0003 11.2333 28.9961C11.1337 28.9947 11.0379 28.9509 10.9633 28.8729L8.34827 26.16C8.26796 26.0771 8.21751 25.9609 8.20727 25.8353L7.99627 23.3262L7.01427 22.256C6.91427 22.1772 6.76377 21.997 6.76377 21.6279C6.76377 21.4732 6.72727 20.0604 6.70377 19.1775L6.14227 18.7164C6.08677 18.6707 6.04142 18.6097 6.01007 18.5388C5.97873 18.4678 5.96233 18.3889 5.96227 18.3087V15.8975C5.96227 15.6634 6.09077 15.3647 6.37277 15.2646C6.42227 15.2468 6.79527 15.0607 7.32727 14.7864C7.26777 14.56 7.12727 14.0913 6.94727 13.536C6.9118 13.4874 6.87263 13.4428 6.83027 13.4027C6.72027 13.3399 6.10777 12.8812 0.259766 8.15704C0.196929 8.10633 0.146966 8.03626 0.115266 7.95437C0.0230028 7.7115 -0.0148825 7.44454 0.00526555 7.17926C0.0302656 6.91259 0.203766 5.94193 0.277766 5.53778C0.292793 5.45455 0.325491 5.37725 0.372766 5.31318C0.537766 5.09215 0.835266 4.90607 1.17627 5.0483C1.38477 5.13541 8.22427 7.84474 9.20977 8.23467C9.22114 8.21384 9.23181 8.19249 9.24177 8.17067C9.45577 7.69541 10.2628 6.88119 10.5053 6.64296C10.5749 6.57412 10.6617 6.53435 10.7523 6.52978L10.9148 6.52207C11.2348 6.16059 12.1553 5.22726 13.3268 4.94163L13.3278 4.93985C13.3818 4.78282 13.7478 2.94993 14.1608 0.768593C14.1722 0.707482 14.1934 0.649542 14.2233 0.597926C14.3333 0.407704 14.5088 0.165333 14.7233 0.0882963C14.7653 0.0734815 14.8888 0.029037 15.7968 0.00948148V0L15.9703 0.00592593L15.9823 0.20563L15.9883 0.00533333L16.1593 0.00237037V0.00948148C17.0743 0.029037 17.1993 0.0734815 17.2413 0.0882963C17.4553 0.165333 17.6313 0.407704 17.7408 0.597926C17.7708 0.650074 17.7923 0.708148 17.8038 0.769778C18.2173 2.95052 18.5833 4.78341 18.6373 4.94104C19.8093 5.22726 20.7293 6.16059 21.0498 6.52207L21.2118 6.52978C21.3024 6.53423 21.3894 6.57378 21.4593 6.64237C21.7018 6.88119 22.5088 7.69541 22.7228 8.17126C22.7343 8.19674 22.7448 8.21748 22.7548 8.23526C23.7618 7.83585 30.5833 5.13422 30.7883 5.0483C31.1293 4.90607 31.4268 5.09215 31.5918 5.31378C31.639 5.37745 31.6717 5.45435 31.6868 5.53719C31.7438 5.85126 31.9328 6.89659 31.9588 7.17867C31.9938 7.54844 31.8833 7.86607 31.8488 7.95496C31.8173 8.03632 31.7676 8.10597 31.7053 8.15644C25.7213 12.9902 25.2188 13.3588 25.1273 13.4068C25.1193 13.4139 25.0723 13.4625 25.0168 13.536C24.8814 13.9489 24.7544 14.3657 24.6358 14.7858C25.1693 15.0607 25.5423 15.2462 25.5923 15.2646C25.8738 15.3653 26.0023 15.6634 26.0023 15.8975V18.3087C26.0022 18.3889 25.9858 18.4678 25.9545 18.5388C25.9231 18.6097 25.8778 18.6707 25.8223 18.7164L25.2608 19.1775C25.2373 20.0604 25.2008 21.4732 25.2008 21.6284C25.2008 21.9964 25.0503 22.1772 24.9508 22.2566L23.9678 23.3262L23.7568 25.8359C23.7466 25.9611 23.6965 26.077 23.6168 26.16L21.0003 28.8735C20.9257 28.9513 20.8301 28.9948 20.7308 28.9961C20.4258 29.0009 19.6973 29.0092 19.5308 28.9944C19.2523 28.9689 19.0808 28.717 18.9878 28.5156L18.9368 28.5659L18.9003 28.7674C18.8881 28.8343 18.8643 28.8975 18.8303 28.9529L17.2258 31.5994C17.1872 31.663 17.1364 31.7148 17.0777 31.7507C17.0189 31.7865 16.9538 31.8054 16.8878 31.8056" fill="#0E121B"/>
<path fill-rule="evenodd" clip-rule="evenodd" d="M20.7399 20.5371C20.7399 20.5371 20.5399 24.8826 20.3794 27.0734C20.3794 27.0734 20.3294 27.5137 20.1389 27.5736C19.9489 27.6328 20.0089 26.7522 20.0089 26.7522L20.2789 20.5964C20.2789 20.5964 20.3489 20.2278 20.5499 20.2159C20.7999 20.2154 20.7399 20.5371 20.7399 20.5371ZM19.6829 18.2213C19.6829 18.2213 20.0384 18.9182 19.5579 19.8942C19.0764 20.8702 17.9444 20.1383 17.9444 20.1383C17.9444 20.1383 17.2979 19.7158 17.9894 19.1854C18.6809 18.6562 19.3569 18.2213 19.3569 18.2213C19.3569 18.2213 19.6189 18.0441 19.6829 18.2213ZM20.7904 18.6859C20.8404 18.8642 20.9754 18.6859 20.9754 18.6859L21.8874 17.4296L21.9624 17.2091C21.9624 17.2091 21.9874 16.8346 21.9724 16.7392C21.9574 16.6444 22.0024 16.5964 22.0024 16.5964C22.0024 16.5964 23.4559 14.4951 23.5059 14.2983C23.5559 14.1022 23.4559 14.1496 23.4559 14.1496C22.2029 14.9709 21.5569 15.5244 21.5569 15.5244C21.5569 15.5244 20.3444 16.6266 20.2539 16.7392C20.1639 16.8518 20.2539 16.9952 20.2539 16.9952M23.0484 19.2725L22.5269 24.946C22.5269 24.946 22.5404 25.1048 22.4469 25.2637C22.3534 25.4225 20.8304 27.1214 20.8304 27.1214C20.8304 27.1214 20.7429 27.2482 20.7464 26.8192C20.7499 26.3908 20.9774 24.3748 20.9904 20.2948L21.0174 20.0097C21.0174 20.0097 21.0309 19.7709 21.1644 19.6281C21.2979 19.4859 22.6344 17.6915 22.6344 17.6915C22.6344 17.6915 22.7409 17.5967 22.7409 17.4373V16.6124C22.7409 16.6124 22.7144 16.4376 22.9279 16.2474C23.0941 16.1066 23.2682 15.9793 23.4489 15.8663L24.9324 16.2634C24.9324 16.2634 25.0524 16.3108 25.0524 16.5804V17.5167C25.0524 17.5167 25.0389 17.7075 24.8784 17.8343C24.7184 17.9611 23.0484 19.2725 23.0484 19.2725ZM28.1789 9.40469L19.4539 15.6601C19.4539 15.6601 18.9699 16.053 19.1199 15.4379C19.2669 14.7392 19.6549 13.2631 19.6549 13.2631C19.6549 13.2631 19.7039 13.0426 19.8099 12.9614C20.0549 12.8192 24.7484 10.1004 24.9189 9.99254C25.0624 9.90602 25.1859 9.5801 25.1859 9.5801L25.5559 8.71669C25.5559 8.71669 25.6179 8.62958 25.7119 8.58869L28.5129 7.35788C28.5129 7.35788 28.6999 7.23106 28.6329 7.48469C28.5664 7.73891 28.3659 9.10425 28.3659 9.10425C28.3659 9.10425 28.3439 9.28795 28.1789 9.40588" fill="#FEFEFE"/>
<path fill-rule="evenodd" clip-rule="evenodd" d="M25.0979 9.0605L24.9179 9.4771C24.9179 9.4771 24.8279 9.70347 24.6374 9.83443C24.4469 9.96539 19.7074 12.5722 19.7074 12.5722C19.7074 12.5722 19.6334 12.6327 19.5764 12.4063C19.5164 12.1325 19.0914 11.5725 19.0914 11.5725C19.0914 11.5725 18.9654 11.3864 19.2264 11.2869C19.5464 11.1565 25.0979 8.78673 25.0979 8.78673C25.0979 8.78673 25.2329 8.74821 25.0979 9.0605ZM13.5179 6.92954C12.3779 7.51206 11.6329 8.37843 11.5164 8.51354C11.4954 8.53843 11.4799 8.50465 11.4799 8.50465L11.0999 8.00095C11.0064 7.85813 10.8259 8.04065 10.8259 8.04065C10.3114 8.5165 10.0109 9.03265 9.9309 9.19917C9.8619 9.33902 9.9844 9.38228 9.9844 9.38228C9.9844 9.38228 12.5694 10.4697 12.6764 10.4934C12.8794 10.5645 12.8959 10.5562 12.9299 10.4146C12.9489 10.3358 13.5449 7.23117 13.5584 7.06406C13.5879 6.88154 13.5179 6.92954 13.5179 6.92954ZM22.0319 9.19917C21.9519 9.03324 21.6509 8.5171 21.1369 8.04065C21.1369 8.04065 20.9564 7.85813 20.8624 8.00095L20.4824 8.50465C20.4824 8.50465 20.4674 8.53784 20.4464 8.51413C20.3299 8.37784 19.5849 7.51265 18.4444 6.92954C18.4444 6.92954 18.3749 6.88213 18.4044 7.06406C18.4174 7.23117 19.0139 10.3352 19.0329 10.4146C19.0669 10.5562 19.0829 10.5651 19.2859 10.4934C19.3929 10.4697 21.9784 9.38169 21.9784 9.38169C21.9784 9.38169 22.1004 9.33902 22.0319 9.19917ZM17.0314 8.89398H14.9314C14.9314 8.89398 14.7714 8.89102 14.7714 8.78495C14.7714 8.67947 15.2519 3.11976 15.2519 3.11976C15.2519 3.11976 15.3419 3.0605 15.3519 3.16717C15.3619 3.27384 15.3034 6.91176 15.3034 6.91176C15.3034 6.91176 15.2969 7.01843 15.4124 7.02436C15.5124 7.03028 15.8799 7.03028 15.9869 7.03028H16.0159C16.1174 7.03028 16.4509 7.02969 16.5504 7.02436C16.6654 7.01843 16.6594 6.91176 16.6594 6.91176C16.6594 6.91176 16.6004 3.27443 16.6104 3.16658C16.6204 3.05991 16.7104 3.11917 16.7104 3.11917C16.7104 3.11917 17.1919 8.67947 17.1919 8.78495C17.1919 8.89102 17.0314 8.89398 17.0314 8.89398ZM16.8214 1.4285C16.8014 1.27443 16.6704 1.27443 16.6704 1.27443L15.9869 1.23828H15.9759L15.2919 1.27384C15.2919 1.27384 15.1619 1.27384 15.1419 1.4285C15.1219 1.58376 13.7389 10.1918 13.7389 10.1918C13.7389 10.1918 13.6989 10.4175 13.8789 10.3458C14.7344 9.83621 15.9364 9.80006 15.9814 9.79887C16.0264 9.80006 17.2279 9.83621 18.0834 10.3464C18.2639 10.4175 18.2234 10.1918 18.2234 10.1918C18.2234 10.1918 16.8414 1.58317 16.8214 1.4285ZM13.9744 19.1867C13.5278 18.8468 13.0715 18.525 12.6064 18.222C12.6064 18.222 12.3449 18.0448 12.2809 18.222C12.2809 18.222 11.9249 18.9183 12.4059 19.8949C12.8869 20.8715 14.0194 20.139 14.0194 20.139C14.0194 20.139 14.6659 19.7165 13.9744 19.1867ZM10.4069 15.5257C10.4069 15.5257 9.7604 14.9716 8.5079 14.1509C8.5079 14.1509 8.4079 14.1029 8.4579 14.299C8.5079 14.4958 9.9609 16.5971 9.9609 16.5971C9.9609 16.5971 10.0059 16.6445 9.9909 16.7393C9.9759 16.8353 10.0009 17.2098 10.0009 17.2098L10.0759 17.4303L10.9879 18.6866C10.9879 18.6866 11.1229 18.8649 11.1734 18.6866L11.7094 16.9959C11.7094 16.9959 11.7994 16.8531 11.7094 16.7399C11.6194 16.6273 10.4069 15.5257 10.4069 15.5257ZM11.9549 26.7529L11.6849 20.5971C11.6849 20.5971 11.6144 20.2285 11.4139 20.2161C11.1639 20.2161 11.2239 20.5378 11.2239 20.5378C11.2239 20.5378 11.4239 24.8833 11.5844 27.0741C11.5844 27.0741 11.6344 27.5144 11.8249 27.5743C12.0149 27.6335 11.9549 26.7529 11.9549 26.7529ZM10.9729 20.2955L10.9464 20.0104C10.9464 20.0104 10.9329 19.7716 10.7994 19.6288C10.6659 19.4866 9.3294 17.6922 9.3294 17.6922C9.3294 17.6922 9.2229 17.5974 9.2229 17.438V16.6131C9.2229 16.6131 9.2494 16.4383 9.0359 16.2475C8.86932 16.1072 8.69511 15.9801 8.5144 15.867L7.0314 16.2641C7.0314 16.2641 6.9114 16.3115 6.9114 16.5811V17.5174C6.9114 17.5174 6.9249 17.7082 7.0849 17.835L8.9154 19.2732L9.4364 24.9467C9.4364 24.9467 9.4234 25.1055 9.5164 25.2644C9.6104 25.4232 11.1334 27.1221 11.1334 27.1221C11.1334 27.1221 11.2209 27.2489 11.2174 26.8199C11.2134 26.3915 10.9864 24.3755 10.9729 20.2955ZM12.8434 15.438C12.6964 14.7393 12.3094 13.2632 12.3094 13.2632C12.3094 13.2632 12.2594 13.0427 12.1544 12.9615C11.9084 12.8193 7.2154 10.1005 7.0449 9.99265C6.9014 9.90613 6.7779 9.58021 6.7779 9.58021L6.4079 8.7168C6.4079 8.7168 6.3454 8.62969 6.2514 8.5888L3.4509 7.35798C3.4509 7.35798 3.2639 7.23117 3.3309 7.4848C3.3974 7.73902 3.5979 9.10436 3.5979 9.10436C3.5979 9.10436 3.6199 9.28806 3.7849 9.40599L12.5099 15.6602C12.5099 15.6602 12.9939 16.0531 12.8434 15.438Z" fill="#FEFEFE"/>
<path fill-rule="evenodd" clip-rule="evenodd" d="M7.04519 9.47561C7.04519 9.47561 7.13519 9.70198 7.32569 9.83295C7.51569 9.96332 12.2557 12.5713 12.2557 12.5713C12.2557 12.5713 12.3297 12.6306 12.3862 12.4048C12.4462 12.1304 12.8717 11.571 12.8717 11.571C12.8717 11.571 12.9977 11.3849 12.7367 11.2854C12.4167 11.1544 6.86469 8.78465 6.86469 8.78465C6.86469 8.78465 6.72969 8.74673 6.86469 9.05902L7.04519 9.47561ZM15.9817 16.0866C15.0442 16.0658 14.2502 15.158 14.2502 14.0398C14.2502 12.9215 15.0442 12.0131 15.9817 11.9929C16.9192 12.0137 17.7132 12.9215 17.7132 14.0398C17.7132 15.158 16.9192 16.0664 15.9817 16.0866ZM19.1327 12.7621C18.1027 10.5612 16.2067 10.6181 15.9817 10.6329C15.7567 10.6181 13.8602 10.5618 12.8307 12.7621C12.8307 12.7621 12.7772 12.9127 12.7772 13.0318C12.7772 13.1503 13.8062 17.5876 13.8062 17.5876C13.8062 17.5876 13.8262 17.6433 13.9127 17.7938C13.9997 17.9449 15.0287 18.8338 15.0287 18.8338C15.0287 18.8338 15.1022 18.9524 15.3627 18.9689C15.5862 18.9826 15.8977 18.9725 15.9817 18.9689C16.0657 18.9725 16.3767 18.9826 16.6007 18.9689C16.8612 18.9529 16.9347 18.8338 16.9347 18.8338C16.9347 18.8338 17.9637 17.9449 18.0507 17.7938C18.1372 17.6433 18.1572 17.5876 18.1572 17.5876C18.1572 17.5876 19.1862 13.1509 19.1862 13.0318C19.1862 12.9127 19.1327 12.7621 19.1327 12.7621ZM19.4532 25.8981V24.8024C19.4532 24.6602 19.3262 24.8107 19.3262 24.8107L18.7187 25.3346C18.5247 25.5171 18.3842 25.382 18.3842 25.382C18.3842 25.382 17.7297 24.5879 17.6362 24.4297C17.5427 24.2709 17.4162 24.2869 17.4162 24.2869H14.5472C14.5472 24.2869 14.4202 24.2709 14.3272 24.4291C14.2337 24.5885 13.5787 25.382 13.5787 25.382C13.5787 25.382 13.4387 25.5171 13.2447 25.3346L12.6367 24.8107C12.6367 24.8107 12.5097 24.6596 12.5097 24.8024V25.8981C12.5097 25.8981 12.5032 26.1044 12.6497 26.2395C12.7972 26.374 13.8327 27.2078 13.8327 27.2078C13.8327 27.2078 14.0327 27.3405 14.1732 27.0015L14.8147 25.6279C14.8147 25.6279 14.8547 25.5171 15.1017 25.5094C15.3232 25.5017 16.6347 25.5017 16.8617 25.5094C17.1082 25.5171 17.1487 25.6279 17.1487 25.6279L17.7897 27.0015C17.9312 27.3405 18.1307 27.2078 18.1307 27.2078C18.1307 27.2078 19.1657 26.374 19.3132 26.2395C19.4602 26.1044 19.4532 25.8981 19.4532 25.8981Z" fill="#FEFEFE"/>
<path fill-rule="evenodd" clip-rule="evenodd" d="M19.4031 20.8601L18.5266 21.3105C18.5254 21.311 18.5243 21.3116 18.5231 21.3123C18.5036 21.3265 18.2831 21.4747 17.9901 21.2471C17.9901 21.2471 16.2626 20.0098 16.0211 20.0098L16.0171 20.0104L16.0136 20.0098H15.9201C15.9125 20.0101 15.9051 20.0127 15.8986 20.0175C15.5426 20.123 13.9726 21.2477 13.9726 21.2477C13.6796 21.4747 13.4591 21.3265 13.4396 21.3123C13.4385 21.3114 13.4374 21.3106 13.4361 21.3099L12.5601 20.8601C12.5576 20.859 12.2451 20.6468 12.2561 20.9698C12.2566 20.9935 12.4296 23.6287 12.4296 23.6287C12.4361 24.0933 12.5846 24.2255 12.6021 24.2391L12.6046 24.2409L13.0691 24.5401C13.0701 24.5413 13.3241 24.7268 13.4341 24.6154L13.4416 24.6095C13.4696 24.5787 13.6631 24.3618 13.7991 24.0969C13.8398 24.0149 13.8958 23.9452 13.9628 23.8929C14.0298 23.8406 14.1061 23.8072 14.1856 23.7952H17.7776C17.7946 23.797 18.0226 23.8225 18.1641 24.0975C18.3001 24.3618 18.4936 24.5787 18.5216 24.6095C18.5236 24.6118 18.5266 24.613 18.5291 24.6154C18.6386 24.7268 18.8926 24.5413 18.8941 24.5401L19.3586 24.2409L19.3611 24.2385C19.3781 24.2255 19.5271 24.0933 19.5336 23.6287C19.5336 23.6287 19.7061 20.9935 19.7071 20.9698C19.7186 20.6474 19.4056 20.859 19.4031 20.8601Z" fill="#FEFEFE"/>
</g>
<defs>
<linearGradient id="paint0_linear_78_2880" x1="1598.28" y1="0" x2="1598.28" y2="3180.56" gradientUnits="userSpaceOnUse">
<stop stop-color="#448FF6"/>
<stop offset="1" stop-color="#04129F"/>
</linearGradient>
<clipPath id="clip0_78_2880">
<rect width="32" height="32" fill="white"/>
</clipPath>
</defs>
</svg>
