<svg width="32" height="32" viewBox="0 0 32 32" fill="none" xmlns="http://www.w3.org/2000/svg">
<path fill-rule="evenodd" clip-rule="evenodd" d="M19.6271 9.70667C19.6271 11.0933 18.8804 13.3333 17.9204 15.7867C18.7737 17.92 19.9471 20.2667 21.0137 22.4C23.4671 17.7067 25.8137 12.3733 25.8137 9.70667C25.8137 4.37333 21.4404 0 16.1071 0C10.7737 0 6.40039 4.37333 6.40039 9.70667C6.40039 14.8267 15.2537 29.76 16.1071 31.1467C16.4271 30.6133 17.7071 28.48 19.2004 25.7067C16.3204 20.48 12.6937 13.0133 12.6937 9.70667C12.8004 7.78667 14.2937 6.29333 16.2137 6.29333C18.1337 6.29333 19.6271 7.78667 19.6271 9.70667Z" fill="#CC1111"/>
</svg>
