<svg width="32" height="32" viewBox="0 0 32 32" fill="none" xmlns="http://www.w3.org/2000/svg">
<g clip-path="url(#clip0_94_156)">
<path fill-rule="evenodd" clip-rule="evenodd" d="M5.51953 3.11914C7.49286 3.11914 9.4662 3.11914 11.4395 3.11914C11.4395 9.62581 11.4395 16.1324 11.4395 22.6391C9.4662 22.6391 7.49286 22.6391 5.51953 22.6391C5.51953 16.1324 5.51953 9.62581 5.51953 3.11914Z" fill="#01C661"/>
<path fill-rule="evenodd" clip-rule="evenodd" d="M18.7993 28.7191C18.7993 22.2123 18.7993 15.7057 18.7993 9.19906C16.8793 9.19906 14.9593 9.19906 13.0393 9.19906C13.0393 15.7057 13.0393 22.2123 13.0393 28.7191C12.8795 22.1863 12.8261 15.6263 12.8793 9.03906C14.9059 9.03906 16.9325 9.03906 18.9593 9.03906C19.0124 15.6263 18.9591 22.1863 18.7993 28.7191Z" fill="#57D894"/>
<path fill-rule="evenodd" clip-rule="evenodd" d="M20.4004 9.19912C22.3986 9.03985 24.4254 8.98652 26.4804 9.03912C26.4804 13.6258 26.4804 18.2124 26.4804 22.7991C24.4254 22.8518 22.3986 22.7983 20.4004 22.6391C22.3737 22.6391 24.3471 22.6391 26.3204 22.6391C26.3204 18.1591 26.3204 13.6791 26.3204 9.19912C24.3471 9.19912 22.3737 9.19912 20.4004 9.19912Z" fill="#7BE1AB"/>
<path fill-rule="evenodd" clip-rule="evenodd" d="M18.7991 28.7192C16.8791 28.7192 14.9591 28.7192 13.0391 28.7192C13.0391 22.2125 13.0391 15.7059 13.0391 9.19922C14.9591 9.19922 16.8791 9.19922 18.7991 9.19922C18.7991 15.7059 18.7991 22.2125 18.7991 28.7192Z" fill="#00C560"/>
<path fill-rule="evenodd" clip-rule="evenodd" d="M20.4004 9.19922C22.3737 9.19922 24.3471 9.19922 26.3204 9.19922C26.3204 13.6792 26.3204 18.1592 26.3204 22.6392C24.3471 22.6392 22.3737 22.6392 20.4004 22.6392C20.4004 18.1592 20.4004 13.6792 20.4004 9.19922Z" fill="#01C661"/>
<path fill-rule="evenodd" clip-rule="evenodd" d="M5.51972 3.11914C5.51972 9.62581 5.51972 16.1324 5.51972 22.6391C7.49305 22.6391 9.46639 22.6391 11.4397 22.6391C9.44148 22.7983 7.41481 22.8518 5.35972 22.7991C5.3066 16.2119 5.35995 9.65192 5.51972 3.11914Z" fill="#88E3B3"/>
</g>
<defs>
<clipPath id="clip0_94_156">
<rect width="32" height="32" fill="white"/>
</clipPath>
</defs>
</svg>
