<svg width="32" height="32" viewBox="0 0 32 32" fill="none" xmlns="http://www.w3.org/2000/svg">
<g clip-path="url(#clip0_94_376)">
<path fill-rule="evenodd" clip-rule="evenodd" d="M-0.0722656 -0.0722656C10.5944 -0.0722656 21.261 -0.0722656 31.9277 -0.0722656C31.9277 10.5944 31.9277 21.261 31.9277 31.9277C26.3087 31.9277 20.6896 31.9277 15.0706 31.9277C15.5869 31.221 16.2059 30.6019 16.9277 30.0706C17.0543 29.9527 17.1019 29.8099 17.0706 29.642C17.2384 29.6733 17.3813 29.6257 17.4992 29.4992C18.4039 28.4992 19.3563 27.5467 20.3563 26.642C20.4829 26.5242 20.5304 26.3813 20.4992 26.2134C21.189 26.1503 21.57 25.7693 21.642 25.0706C21.7046 25.0799 21.7523 25.0562 21.7849 24.9992C21.6054 24.9396 21.5102 24.8206 21.4992 24.642C21.7223 24.6087 21.9127 24.5134 22.0706 24.3563C22.9746 24.1667 23.7842 23.7859 24.4992 23.2134C24.6757 23.32 24.8663 23.3676 25.0706 23.3563C25.0706 23.2134 25.0706 23.0706 25.0706 22.9277C24.9203 22.949 24.7774 22.9253 24.642 22.8563C24.8347 22.746 24.9537 22.5793 24.9992 22.3563C25.3902 22.5149 25.795 22.5387 26.2134 22.4277C25.6329 22.368 25.4186 22.0584 25.5706 21.4992C25.6982 21.6722 25.8172 21.6722 25.9277 21.4992C25.8382 21.3682 25.7904 21.2253 25.7849 21.0706C25.7849 20.9753 25.7849 20.8802 25.7849 20.7849C25.7603 20.6432 25.808 20.548 25.9277 20.4992C26.0954 20.3543 26.1906 20.1639 26.2134 19.9277C26.4426 19.8153 26.5379 19.6249 26.4992 19.3563C26.6896 19.3563 26.7849 19.261 26.7849 19.0706C26.9709 18.7603 27.1374 18.4269 27.2849 18.0706C27.3324 18.1182 27.3802 18.1659 27.4277 18.2134C27.45 17.046 27.3786 15.9032 27.2134 14.7849C27.2177 14.1308 27.0272 13.5594 26.642 13.0706C26.5372 12.898 26.4896 12.7075 26.4992 12.4992C26.5482 12.2158 26.4529 12.0254 26.2134 11.9277C26.2057 11.6232 26.0629 11.4327 25.7849 11.3563C25.7953 11.1382 25.7 10.9953 25.4992 10.9277C25.486 10.5923 25.3432 10.3542 25.0706 10.2134C25.1013 9.97362 25.006 9.83076 24.7849 9.78488C24.702 9.46362 24.5116 9.22553 24.2134 9.07059C24.1659 9.07059 24.1182 9.07059 24.0706 9.07059C23.7414 8.69326 23.408 8.31231 23.0706 7.92773C22.8874 7.68781 22.6493 7.49732 22.3563 7.35631C22.2887 7.15541 22.1459 7.06016 21.9277 7.07059C21.9277 6.88012 21.8324 6.78488 21.642 6.78488C21.5744 6.58398 21.4316 6.48873 21.2134 6.49916C21.1459 6.29826 21.003 6.20302 20.7849 6.21345C20.6072 5.77879 20.2739 5.58831 19.7849 5.64202C19.7373 5.64202 19.6896 5.64202 19.642 5.64202C19.2873 5.17896 18.8112 4.94086 18.2134 4.92773C17.9397 4.57388 17.5587 4.43102 17.0706 4.49916C15.9277 4.30869 14.7849 4.30869 13.642 4.49916C13.2611 4.54678 12.8801 4.59441 12.4992 4.64202C12.0706 4.59441 11.8801 4.78488 11.9277 5.21345C11.7315 5.19106 11.541 5.21488 11.3563 5.28488C11.9297 5.29308 12.4059 5.50736 12.7849 5.92773C12.6896 6.02298 12.5944 6.11821 12.4992 6.21345C11.7155 6.30871 10.9536 6.40395 10.2134 6.49916C9.77726 6.44355 9.39631 6.53878 9.07059 6.78488C8.64272 6.75542 8.26178 6.85066 7.92773 7.07059C7.41859 7.18772 7.03763 7.47343 6.78488 7.92773C6.73726 8.07059 6.64202 8.16583 6.49916 8.21345C6.29826 8.28103 6.20302 8.42389 6.21345 8.64202C6.01749 8.78653 5.82702 8.92939 5.64202 9.07059C3.80033 11.0075 1.89558 12.9123 -0.0722656 14.7849C-0.0722656 9.83249 -0.0722656 4.88012 -0.0722656 -0.0722656Z" fill="#3398D8"/>
<path fill-rule="evenodd" clip-rule="evenodd" d="M17.0723 4.50088C17.5604 4.43274 17.9414 4.57559 18.2151 4.92945C17.7968 4.92015 17.4158 4.82491 17.0723 4.64374C17.0723 4.59612 17.0723 4.54849 17.0723 4.50088Z" fill="#86A082"/>
<path fill-rule="evenodd" clip-rule="evenodd" d="M13.6429 4.5C13.5 4.59524 13.3571 4.69047 13.2143 4.78571C13.1667 4.78571 13.119 4.78571 13.0714 4.78571C12.881 4.78571 12.6905 4.78571 12.5 4.78571C12.5 4.7381 12.5 4.69047 12.5 4.64286C12.881 4.59524 13.2619 4.54761 13.6429 4.5Z" fill="#7DA281"/>
<path fill-rule="evenodd" clip-rule="evenodd" d="M17.072 4.50028C17.072 4.54789 17.072 4.59552 17.072 4.64313C15.7823 4.61735 14.4966 4.66498 13.2148 4.78599C13.3577 4.69075 13.5006 4.59552 13.6434 4.50028C14.7863 4.3098 15.9291 4.3098 17.072 4.50028Z" fill="#ABAF73"/>
<path fill-rule="evenodd" clip-rule="evenodd" d="M12.5 4.78516C12.6905 4.78516 12.881 4.78516 13.0714 4.78516C12.881 4.92801 12.881 5.07087 13.0714 5.21373C12.7669 5.20596 12.5764 5.0631 12.5 4.78516Z" fill="#C4C06C"/>
<path fill-rule="evenodd" clip-rule="evenodd" d="M12.4994 4.78516C12.5758 5.0631 12.7662 5.20596 13.0708 5.21373C13.1184 5.21373 13.1661 5.21373 13.2137 5.21373C13.2137 5.26134 13.2137 5.30897 13.2137 5.35658C12.8803 5.35658 12.547 5.35658 12.2137 5.35658C12.1646 5.07327 12.2599 4.88278 12.4994 4.78516Z" fill="#6D9594"/>
<path fill-rule="evenodd" clip-rule="evenodd" d="M17.0706 4.64351C17.4142 4.82468 17.7952 4.91993 18.2134 4.92923C18.4633 5.18008 18.749 5.37057 19.0706 5.50065C18.8189 5.48027 18.5807 5.52788 18.3563 5.64351C18.1182 5.54827 17.8802 5.45304 17.642 5.3578C17.4403 5.54443 17.2022 5.66347 16.9277 5.71494C17.0473 5.85941 17.0949 6.02607 17.0706 6.21494C17.4992 6.16733 17.6896 6.3578 17.642 6.78637C17.8382 6.76398 18.0287 6.7878 18.2134 6.8578C18.106 6.95363 18.0583 7.07267 18.0706 7.21494C17.7547 7.12597 17.469 6.98311 17.2134 6.78637C17.1659 6.78637 17.1182 6.78637 17.0706 6.78637C16.9617 6.5346 16.7712 6.39174 16.4992 6.3578C16.3087 6.31018 16.1182 6.26255 15.9277 6.21494C15.5467 6.02447 15.1659 5.83398 14.7849 5.64351C14.3136 5.36015 13.7897 5.2173 13.2134 5.21494C13.1658 5.21494 13.1182 5.21494 13.0706 5.21494C12.8801 5.07208 12.8801 4.92923 13.0706 4.78637C13.1182 4.78637 13.1658 4.78637 13.2134 4.78637C14.4952 4.66535 15.7809 4.61773 17.0706 4.64351Z" fill="#EDBB27"/>
<path fill-rule="evenodd" clip-rule="evenodd" d="M18.2148 4.92773C18.8126 4.94086 19.2887 5.17896 19.6434 5.64202C19.415 5.68028 19.2246 5.63266 19.072 5.49916C18.7504 5.36908 18.4647 5.17859 18.2148 4.92773Z" fill="#A0AD76"/>
<path fill-rule="evenodd" clip-rule="evenodd" d="M13.2148 5.3577C13.2148 5.31009 13.2148 5.26246 13.2148 5.21484C13.7911 5.2172 14.315 5.36006 14.7863 5.64342C14.2581 5.57087 13.7343 5.47563 13.2148 5.3577Z" fill="#B1AD6B"/>
<path fill-rule="evenodd" clip-rule="evenodd" d="M19.7852 5.64363C20.2742 5.58991 20.6074 5.7804 20.7852 6.21506C20.547 6.11981 20.309 6.02458 20.0709 5.92934C19.928 5.88173 19.8327 5.78648 19.7852 5.64363Z" fill="#649798"/>
<path fill-rule="evenodd" clip-rule="evenodd" d="M12.5006 4.64191C12.5006 4.68952 12.5006 4.73715 12.5006 4.78476C12.2611 4.88239 12.1658 5.07288 12.2148 5.35619C12.5482 5.35619 12.8815 5.35619 13.2148 5.35619C13.7343 5.47412 14.2581 5.56936 14.7863 5.64191C15.1673 5.83238 15.5481 6.02286 15.9291 6.21334C15.4936 6.09085 15.065 6.09085 14.6434 6.21334C14.5251 6.08266 14.3823 5.98742 14.2148 5.92762C13.8064 5.98468 13.4254 6.10372 13.072 6.28476C13.6669 6.33826 14.2384 6.48112 14.7863 6.71334C14.8187 6.87552 14.8663 7.04219 14.9291 7.21334C15.1574 7.07266 15.3956 7.04885 15.6434 7.14191C15.5251 7.27258 15.3823 7.36782 15.2148 7.42762C15.2943 7.48228 15.3418 7.55371 15.3577 7.64191C15.2624 7.64191 15.1673 7.64191 15.072 7.64191C14.7957 7.27645 14.4147 7.08598 13.9291 7.07048C13.4629 6.93016 12.9867 6.83492 12.5006 6.78476C12.3916 6.67506 12.2488 6.60364 12.072 6.57048C11.4548 6.49919 10.8357 6.47538 10.2148 6.49905C10.955 6.40384 11.7169 6.30859 12.5006 6.21334C12.5958 6.11809 12.691 6.02286 12.7863 5.92762C12.4073 5.50725 11.9311 5.29296 11.3577 5.28476C11.5424 5.21476 11.7329 5.19095 11.9291 5.21334C11.8815 4.78476 12.072 4.59429 12.5006 4.64191Z" fill="#3E8AB4"/>
<path fill-rule="evenodd" clip-rule="evenodd" d="M20.7852 6.21366C21.0033 6.20323 21.1462 6.29848 21.2137 6.49938C20.9956 6.50981 20.8527 6.41456 20.7852 6.21366Z" fill="#6E9E87"/>
<path fill-rule="evenodd" clip-rule="evenodd" d="M10.2151 6.49975C10.836 6.47608 11.455 6.4999 12.0723 6.57118C12.2491 6.60434 12.3919 6.67577 12.5008 6.78547C11.3573 6.60125 10.2144 6.60125 9.07227 6.78547C9.39798 6.53937 9.77894 6.44414 10.2151 6.49975Z" fill="#96A475"/>
<path fill-rule="evenodd" clip-rule="evenodd" d="M16.5 6.35742C16.772 6.39136 16.9626 6.53422 17.0714 6.78599C16.7994 6.75205 16.6089 6.60919 16.5 6.35742Z" fill="#9BA76C"/>
<path fill-rule="evenodd" clip-rule="evenodd" d="M21.2148 6.50077C21.433 6.49034 21.5758 6.58559 21.6434 6.78649C21.4253 6.79691 21.2824 6.70167 21.2148 6.50077Z" fill="#779B8C"/>
<path fill-rule="evenodd" clip-rule="evenodd" d="M9.07059 6.78647C8.72699 6.96764 8.34605 7.06288 7.92773 7.07218C8.26178 6.85225 8.64272 6.75701 9.07059 6.78647Z" fill="#88A575"/>
<path fill-rule="evenodd" clip-rule="evenodd" d="M21.6426 6.78516C21.833 6.78516 21.9283 6.8804 21.9283 7.07087C21.7379 7.07087 21.6426 6.97563 21.6426 6.78516Z" fill="#849F7A"/>
<path fill-rule="evenodd" clip-rule="evenodd" d="M12.5 6.7866C12.9862 6.83676 13.4624 6.932 13.9286 7.07231C14.2555 7.34193 14.6364 7.5324 15.0714 7.64374C15.0714 7.83421 15.1667 7.92946 15.3571 7.92946C15.4524 7.92946 15.5476 7.92946 15.6429 7.92946C15.6831 8.11198 15.7784 8.25484 15.9286 8.35803C16.0374 8.6098 16.228 8.75266 16.5 8.7866C16.5 8.97707 16.5953 9.07231 16.7857 9.07231C16.7986 9.60291 16.9414 10.0791 17.2143 10.5009C17.2541 11.1904 17.159 11.8571 16.9286 12.5009C16.7999 12.6138 16.7046 12.7567 16.6429 12.9295C16.427 13.0727 16.1889 13.1679 15.9286 13.2152C15.7783 13.1938 15.6354 13.2176 15.5 13.2866C15.365 13.6361 15.127 13.8504 14.7857 13.9295C13.5053 14.0835 12.2196 14.1787 10.9286 14.2152C10.881 14.2152 10.8333 14.2152 10.7857 14.2152C10.7699 14.127 10.7223 14.0555 10.6429 14.0009C10.2174 13.9015 9.78884 13.83 9.35714 13.7866C9.21548 13.8111 9.12024 13.7635 9.07142 13.6437C8.85248 13.3944 8.56677 13.2516 8.21428 13.2152C8.07262 13.2397 7.97738 13.1921 7.92856 13.0723C7.72702 12.7275 7.44131 12.4894 7.07142 12.358C6.77369 12.0614 6.53559 11.7281 6.35714 11.358C6.35714 11.2152 6.35714 11.0723 6.35714 10.9295C6.20125 10.113 6.24886 9.30348 6.49999 8.50088C6.49999 8.40564 6.49999 8.31041 6.49999 8.21517C6.64285 8.16756 6.73809 8.07231 6.78571 7.92946C7.20538 7.68196 7.58634 7.39624 7.92856 7.07231C8.34688 7.06301 8.72782 6.96777 9.07142 6.7866C10.2136 6.60238 11.3565 6.60238 12.5 6.7866Z" fill="#F3BA1C"/>
<path fill-rule="evenodd" clip-rule="evenodd" d="M15.9294 6.21345C15.961 6.38985 16.0563 6.53271 16.2151 6.64202C16.09 6.74928 15.9471 6.82071 15.7866 6.85631C16.1681 7.12816 16.5967 7.24721 17.0723 7.21345C17.0957 7.59735 17.0718 7.97831 17.0008 8.35631C16.905 8.46379 16.786 8.51142 16.6437 8.49916C16.38 8.20025 16.0467 8.00976 15.6437 7.92773C15.5484 7.92773 15.4533 7.92773 15.358 7.92773C15.358 7.83249 15.358 7.73726 15.358 7.64202C15.3421 7.55382 15.2946 7.48239 15.2151 7.42773C15.3826 7.36793 15.5254 7.27269 15.6437 7.14202C15.3958 7.04896 15.1577 7.07278 14.9294 7.21345C14.8666 7.04231 14.819 6.87563 14.7866 6.71345C14.2387 6.48123 13.6672 6.33838 13.0723 6.28488C13.4257 6.10383 13.8067 5.98479 14.2151 5.92773C14.3826 5.98753 14.5254 6.08278 14.6437 6.21345C15.0653 6.09096 15.4938 6.09096 15.9294 6.21345Z" fill="#3189C7"/>
<path fill-rule="evenodd" clip-rule="evenodd" d="M17.2148 6.78516C17.4703 6.9819 17.7561 7.12476 18.0719 7.21373C18.1195 7.30897 18.1672 7.4042 18.2148 7.49944C17.9473 7.35496 17.6616 7.2359 17.3576 7.1423C17.2502 7.04647 17.2025 6.92743 17.2148 6.78516Z" fill="#94A169"/>
<path fill-rule="evenodd" clip-rule="evenodd" d="M20.0723 5.92773C20.3104 6.02298 20.5484 6.11821 20.7866 6.21345C20.8541 6.41435 20.997 6.50959 21.2151 6.49916C21.2827 6.70006 21.4256 6.79531 21.6437 6.78488C21.6437 6.97535 21.739 7.07059 21.9294 7.07059C21.997 7.27149 22.1398 7.36673 22.358 7.35631C22.358 7.45155 22.358 7.54678 22.358 7.64202C22.0303 7.39383 21.6494 7.22716 21.2151 7.14202C21.0956 6.99755 21.048 6.83089 21.0723 6.64202C20.5568 6.64718 20.2236 6.40909 20.0723 5.92773Z" fill="#DBBF3F"/>
<path fill-rule="evenodd" clip-rule="evenodd" d="M13.9277 7.07227C14.4133 7.08777 14.7943 7.27824 15.0706 7.64369C14.6356 7.53235 14.2547 7.34188 13.9277 7.07227Z" fill="#729280"/>
<path fill-rule="evenodd" clip-rule="evenodd" d="M21.9277 7.07108C22.1459 7.06066 22.2887 7.1559 22.3563 7.3568C22.1382 7.36723 21.9953 7.27198 21.9277 7.07108Z" fill="#839A7C"/>
<path fill-rule="evenodd" clip-rule="evenodd" d="M7.92801 7.07227C7.58578 7.39619 7.20483 7.68191 6.78516 7.92941C7.03791 7.47511 7.41887 7.18939 7.92801 7.07227Z" fill="#85A27C"/>
<path fill-rule="evenodd" clip-rule="evenodd" d="M15.0723 7.64258C15.1676 7.64258 15.2627 7.64258 15.358 7.64258C15.358 7.73782 15.358 7.83305 15.358 7.92829C15.1676 7.92829 15.0723 7.83305 15.0723 7.64258Z" fill="#A4AC73"/>
<path fill-rule="evenodd" clip-rule="evenodd" d="M15.928 6.21484C16.1184 6.26246 16.309 6.31009 16.4994 6.3577C16.6083 6.60947 16.7989 6.75233 17.0709 6.78627C17.1184 6.78627 17.1662 6.78627 17.2137 6.78627C17.2014 6.92854 17.2492 7.04759 17.3566 7.14342C17.6606 7.23702 17.9463 7.35607 18.2137 7.50056C18.437 7.70696 18.6274 7.94506 18.7852 8.21484C18.6173 8.18356 18.4744 8.23117 18.3566 8.3577C18.172 8.75604 17.91 9.08937 17.5709 9.3577C17.7354 10.393 17.783 11.4406 17.7137 12.5006C17.68 12.2692 17.561 12.1264 17.3566 12.072C17.4447 11.2008 17.3494 10.3913 17.0709 9.64341C17.048 9.40727 16.9529 9.2168 16.7852 9.07199C16.7947 8.8636 16.7472 8.67312 16.6423 8.50056C16.7846 8.51282 16.9036 8.46519 16.9994 8.3577C17.0704 7.9797 17.0943 7.59874 17.0709 7.21484C16.5953 7.2486 16.1667 7.12956 15.7852 6.8577C15.9457 6.8221 16.0886 6.75067 16.2137 6.64342C16.0549 6.5341 15.9596 6.39124 15.928 6.21484Z" fill="#358ABD"/>
<path fill-rule="evenodd" clip-rule="evenodd" d="M18.2148 7.5C18.5958 7.59524 18.9767 7.69047 19.3577 7.78571C19.374 8.10256 19.4691 8.38827 19.6434 8.64286C19.5481 8.64286 19.453 8.64286 19.3577 8.64286C19.2624 8.45239 19.1196 8.30953 18.9291 8.21429C18.8816 8.21429 18.8338 8.21429 18.7863 8.21429C18.6286 7.9445 18.4381 7.7064 18.2148 7.5Z" fill="#DBBA43"/>
<path fill-rule="evenodd" clip-rule="evenodd" d="M22.3574 7.35742C22.6504 7.49844 22.8886 7.68892 23.0717 7.92885C22.8169 7.87278 22.5789 7.77754 22.3574 7.64314C22.3574 7.54789 22.3574 7.45266 22.3574 7.35742Z" fill="#86A584"/>
<path fill-rule="evenodd" clip-rule="evenodd" d="M15.6426 7.92773C16.0456 8.00976 16.3789 8.20025 16.6426 8.49916C16.7474 8.67172 16.795 8.86221 16.7854 9.07059C16.595 9.07059 16.4997 8.97535 16.4997 8.78488C16.3909 8.53311 16.2003 8.39025 15.9283 8.35631C15.7781 8.25312 15.6829 8.11026 15.6426 7.92773Z" fill="#578896"/>
<path fill-rule="evenodd" clip-rule="evenodd" d="M15.9277 8.35742C16.1997 8.39136 16.3903 8.53422 16.4992 8.78599C16.2272 8.75205 16.0366 8.60919 15.9277 8.35742Z" fill="#9BA46E"/>
<path fill-rule="evenodd" clip-rule="evenodd" d="M6.49938 8.21484C6.49938 8.31009 6.49938 8.40532 6.49938 8.50056C6.40413 8.54817 6.30891 8.5958 6.21366 8.64342C6.20323 8.42529 6.29848 8.28243 6.49938 8.21484Z" fill="#639073"/>
<path fill-rule="evenodd" clip-rule="evenodd" d="M19.0722 5.50028C19.2248 5.63378 19.4152 5.68139 19.6436 5.64314C19.6912 5.64314 19.7389 5.64314 19.7865 5.64314C19.8341 5.78599 19.9294 5.88124 20.0722 5.92885C20.2235 6.41021 20.5568 6.64829 21.0722 6.64314C21.0479 6.83201 21.0955 6.99866 21.2151 7.14314C21.6494 7.22828 22.0302 7.39495 22.3579 7.64314C22.5794 7.77754 22.8174 7.87278 23.0722 7.92885C23.4096 8.31342 23.7431 8.69438 24.0722 9.07171C24.2931 9.53802 24.5311 10.0142 24.7865 10.5003C24.9089 10.6325 25.0518 10.7277 25.2151 10.786C25.2394 10.9749 25.1918 11.1415 25.0722 11.286C25.4855 11.675 25.8665 12.0798 26.2151 12.5003C26.2626 12.5003 26.3104 12.5003 26.3579 12.5003C26.3962 12.8745 26.3486 13.2316 26.2151 13.5717C26.4484 13.6402 26.6388 13.7593 26.7865 13.9289C26.9729 15.452 26.9729 16.9759 26.7865 18.5003C26.7865 18.5479 26.7865 18.5956 26.7865 18.6431C26.5821 18.826 26.4868 19.0641 26.5008 19.3574C26.3331 19.5023 26.2379 19.6927 26.2151 19.9289C25.9859 20.0413 25.8906 20.2317 25.9294 20.5003C25.8096 20.5491 25.7619 20.6443 25.7865 20.786C25.5961 20.8813 25.4532 21.0241 25.3579 21.2146C24.9316 21.2556 24.7412 21.4937 24.7865 21.9289C24.5759 22.0626 24.4331 22.2531 24.3579 22.5003C24.0025 22.751 23.6691 23.0367 23.3579 23.3574C22.8264 23.7184 22.2549 24.0041 21.6436 24.2146C20.8781 24.2389 20.1162 24.3103 19.3579 24.4289C19.7389 24.4764 20.1198 24.5241 20.5008 24.5717C19.9584 24.8751 19.3869 25.1133 18.7865 25.286C18.6606 25.3871 18.5655 25.5063 18.5008 25.6431C18.5008 25.6907 18.5008 25.7384 18.5008 25.786C18.4532 25.786 18.4055 25.786 18.3579 25.786C17.9154 25.8226 17.4868 25.9177 17.0722 26.0717C16.2694 26.0994 15.5075 26.2423 14.7865 26.5003C13.6427 26.524 12.4998 26.5003 11.3579 26.4289C11.2261 26.1373 11.1784 25.8277 11.2151 25.5003C11.4479 25.2823 11.567 24.9966 11.5722 24.6431C11.6436 23.6443 11.6674 22.6443 11.6436 21.6431C11.7551 21.9471 11.898 21.971 12.0722 21.7146C11.9143 21.4117 11.9143 21.1021 12.0722 20.786C12.1497 20.4234 12.2926 20.09 12.5008 19.786C13.0262 19.4196 13.5976 19.1339 14.2151 18.9289C14.2151 18.786 14.2151 18.6431 14.2151 18.5003C14.3275 18.2711 14.5179 18.1759 14.7865 18.2146C15.1804 18.07 15.5614 17.9271 15.9294 17.786C15.9294 17.6907 15.9769 17.6431 16.0722 17.6431C16.3084 17.6203 16.4988 17.5251 16.6436 17.3574C16.6912 17.3574 16.7389 17.3574 16.7865 17.3574C16.8818 17.3574 16.9769 17.3574 17.0722 17.3574C17.3149 17.3803 17.5531 17.3566 17.7865 17.286C18.0045 17.0164 18.2902 16.8736 18.6436 16.8574C18.9708 16.6036 19.2089 16.294 19.3579 15.9289C19.8092 15.9189 20.0474 15.6807 20.0722 15.2146C20.0722 15.167 20.0722 15.1193 20.0722 15.0717C20.3502 14.9953 20.4931 14.8049 20.5008 14.5003C20.5008 14.405 20.5008 14.3099 20.5008 14.2146C20.7299 14.1021 20.8252 13.9117 20.7865 13.6431C21.0805 12.99 21.1281 12.3234 20.9294 11.6431C20.8525 11.4121 20.8049 11.174 20.7865 10.9289C20.8469 10.603 20.7516 10.3649 20.5008 10.2146C20.4926 10.0561 20.4451 9.91328 20.3579 9.78599C20.4298 9.22545 20.1916 8.89211 19.6436 8.78599C19.6436 8.73838 19.6436 8.69075 19.6436 8.64314C19.4694 8.38855 19.3742 8.10284 19.3579 7.78599C18.9769 7.69075 18.5961 7.59552 18.2151 7.50028C18.1675 7.40504 18.1198 7.30981 18.0722 7.21456C18.0599 7.07229 18.1076 6.95325 18.2151 6.85742C18.0304 6.78742 17.8398 6.76361 17.6436 6.78599C17.6912 6.35742 17.5008 6.16695 17.0722 6.21456C17.0965 6.02569 17.0489 5.85904 16.9294 5.71456C17.2038 5.66309 17.4419 5.54405 17.6436 5.35742C17.8818 5.45266 18.1198 5.54789 18.3579 5.64314C18.5824 5.52751 18.8205 5.47989 19.0722 5.50028Z" fill="#F4BA1A"/>
<path fill-rule="evenodd" clip-rule="evenodd" d="M19.3574 8.64258C19.4527 8.64258 19.5479 8.64258 19.6431 8.64258C19.6431 8.69019 19.6431 8.73782 19.6431 8.78544C19.6431 8.88068 19.6431 8.97591 19.6431 9.07115C19.5144 8.95822 19.4191 8.81536 19.3574 8.64258Z" fill="#7C9F77"/>
<path fill-rule="evenodd" clip-rule="evenodd" d="M19.6426 8.78516C20.1906 8.89127 20.4287 9.22461 20.3569 9.78516C20.3093 9.78516 20.2616 9.78516 20.214 9.78516C20.1269 9.50886 19.984 9.27077 19.7854 9.07087C19.7379 9.07087 19.6901 9.07087 19.6426 9.07087C19.6426 8.97563 19.6426 8.8804 19.6426 8.78516Z" fill="#DDB845"/>
<path fill-rule="evenodd" clip-rule="evenodd" d="M24.2148 9.07227C24.513 9.22721 24.7034 9.46529 24.7863 9.78655C24.4881 9.63161 24.2977 9.39352 24.2148 9.07227Z" fill="#7D9F7D"/>
<path fill-rule="evenodd" clip-rule="evenodd" d="M6.49991 8.5C6.24878 9.3026 6.20116 10.1121 6.35705 10.9286C6.26885 10.9128 6.19742 10.8651 6.14276 10.7857C6.07151 10.2163 6.04769 9.64483 6.07133 9.07143C6.20048 8.97014 6.24809 8.82729 6.21419 8.64286C6.30943 8.59524 6.40466 8.54761 6.49991 8.5Z" fill="#D7BD48"/>
<path fill-rule="evenodd" clip-rule="evenodd" d="M18.9286 8.21484C19.119 8.31009 19.2619 8.45294 19.3571 8.64342C19.4189 8.8162 19.5141 8.95906 19.6429 9.07199C19.6904 9.07199 19.7381 9.07199 19.7857 9.07199C19.7487 9.4276 19.8916 9.6657 20.2143 9.78627C20.2143 9.83389 20.2143 9.88152 20.2143 9.92913C20.0239 9.92913 19.8333 9.92913 19.6429 9.92913C19.6094 9.22892 19.2284 8.84796 18.5 8.78627C18.6179 8.65974 18.7607 8.61213 18.9286 8.64342C18.9286 8.50056 18.9286 8.3577 18.9286 8.21484Z" fill="#3D89B1"/>
<path fill-rule="evenodd" clip-rule="evenodd" d="M24.0723 9.07227C24.1198 9.07227 24.1676 9.07227 24.2151 9.07227C24.298 9.39352 24.4884 9.63161 24.7866 9.78655C24.8483 9.95934 24.9436 10.1022 25.0723 10.2151C25.1198 10.4056 25.1676 10.5961 25.2151 10.7866C25.0518 10.7283 24.909 10.633 24.7866 10.5008C24.5311 10.0148 24.2931 9.53858 24.0723 9.07227Z" fill="#D8BF48"/>
<path fill-rule="evenodd" clip-rule="evenodd" d="M19.785 9.07227C19.9836 9.27217 20.1264 9.51025 20.2136 9.78655C19.8909 9.66598 19.748 9.42788 19.785 9.07227Z" fill="#7D9576"/>
<path fill-rule="evenodd" clip-rule="evenodd" d="M20.2148 9.78516C20.2624 9.78516 20.3101 9.78516 20.3577 9.78516C20.4448 9.91244 20.4924 10.0553 20.5006 10.2137C20.453 10.2137 20.4053 10.2137 20.3577 10.2137C20.3101 10.1185 20.2624 10.0233 20.2148 9.92801C20.2148 9.8804 20.2148 9.83277 20.2148 9.78516Z" fill="#9EB071"/>
<path fill-rule="evenodd" clip-rule="evenodd" d="M24.7852 9.78516C25.0063 9.83104 25.1016 9.9739 25.0709 10.2137C24.9422 10.1008 24.8469 9.95794 24.7852 9.78516Z" fill="#839E76"/>
<path fill-rule="evenodd" clip-rule="evenodd" d="M20.4994 10.2148C20.7502 10.3651 20.8455 10.6032 20.7851 10.9291C20.5807 10.7462 20.4854 10.5081 20.4994 10.2148Z" fill="#C4B95E"/>
<path fill-rule="evenodd" clip-rule="evenodd" d="M25.0723 10.2148C25.3448 10.3556 25.4877 10.5937 25.5008 10.9291C25.4056 10.8815 25.3104 10.8339 25.2151 10.7863C25.1676 10.5958 25.1198 10.4053 25.0723 10.2148Z" fill="#A0A976"/>
<path fill-rule="evenodd" clip-rule="evenodd" d="M18.7849 8.21438C18.8324 8.21438 18.8802 8.21438 18.9277 8.21438C18.9277 8.35724 18.9277 8.5001 18.9277 8.64295C18.7599 8.61167 18.617 8.65928 18.4992 8.78581C19.2276 8.8475 19.6086 9.22845 19.642 9.92867C19.8324 9.92867 20.023 9.92867 20.2134 9.92867C20.261 10.0239 20.3087 10.1191 20.3563 10.2144C20.5606 11.347 20.6559 12.4899 20.642 13.643C20.4156 13.7821 20.2727 13.9963 20.2134 14.2858C20.0779 14.374 19.9589 14.3502 19.8563 14.2144C19.8124 14.7211 19.6934 15.1972 19.4992 15.643C19.4039 15.643 19.3563 15.6905 19.3563 15.7858C19.0706 15.7858 18.9277 15.9287 18.9277 16.2144C18.7693 16.2225 18.6264 16.2701 18.4992 16.3572C17.7663 16.4415 17.1949 16.7748 16.7849 17.3572C16.7373 17.3572 16.6896 17.3572 16.642 17.3572C16.4336 17.3477 16.2432 17.3952 16.0706 17.5001C15.6779 17.5324 15.2969 17.4848 14.9277 17.3572C14.795 17.5271 14.7474 17.7175 14.7849 17.9287C14.2566 18.0968 13.7328 18.2872 13.2134 18.5001C13.2134 18.643 13.2134 18.7858 13.2134 18.9287C13.0429 19.039 12.9001 19.1818 12.7849 19.3572C12.4039 19.4525 12.1658 19.6905 12.0706 20.0715C11.9835 20.1988 11.9359 20.3417 11.9277 20.5001C11.7492 20.5111 11.6301 20.6064 11.5706 20.7858C11.4998 21.0677 11.476 21.3534 11.4992 21.643C11.4992 21.7382 11.4992 21.8334 11.4992 21.9287C11.3392 22.1607 11.1487 22.375 10.9277 22.5715C11.004 24.0065 11.0516 25.4351 11.0706 26.8572C12.3098 26.934 13.5479 26.9101 14.7849 26.7858C15.6083 26.7638 16.3702 26.5734 17.0706 26.2144C17.5682 26.2391 17.9967 26.0962 18.3563 25.7858C18.4039 25.7858 18.4516 25.7858 18.4992 25.7858C18.8476 25.7068 19.181 25.7068 19.4992 25.7858C19.6489 25.6361 19.7917 25.4932 19.9277 25.3572C20.5096 25.3132 21.081 25.218 21.642 25.0715C21.57 25.7702 21.189 26.1512 20.4992 26.2144C20.5304 26.3822 20.4829 26.5251 20.3563 26.643C19.3563 27.5477 18.4039 28.5001 17.4992 29.5001C17.3813 29.6267 17.2384 29.6742 17.0706 29.643C17.1019 29.8108 17.0543 29.9537 16.9277 30.0715C16.2059 30.6028 15.5869 31.222 15.0706 31.9287C10.023 31.9287 4.97535 31.9287 -0.0722656 31.9287C-0.0722656 26.2144 -0.0722656 20.5001 -0.0722656 14.7858C1.89558 12.9132 3.80033 11.0085 5.64202 9.07152C5.83128 9.84307 5.83128 10.6288 5.64202 11.4287C6.06495 11.5324 6.35066 11.7943 6.49916 12.2144C6.78728 12.4231 7.07299 12.6136 7.35631 12.7858C7.51415 12.943 7.70462 13.0383 7.92773 13.0715C7.97655 13.1913 8.07179 13.2389 8.21345 13.2144C8.30869 13.4049 8.45155 13.5477 8.64202 13.643C9.07726 14.0273 9.60106 14.2178 10.2134 14.2144C10.3718 14.3272 10.5623 14.3987 10.7849 14.4287C11.8314 14.5001 12.879 14.5238 13.9277 14.5001C14.2123 14.4755 14.4503 14.5708 14.642 14.7858C14.8647 14.6505 15.1029 14.5554 15.3563 14.5001C16.8103 14.9108 16.8579 14.7917 15.4992 14.143C15.6142 13.984 15.7094 13.8173 15.7849 13.643C15.8324 13.643 15.8802 13.643 15.9277 13.643C16.261 13.5001 16.4992 13.262 16.642 12.9287C16.7037 12.7559 16.799 12.613 16.9277 12.5001C17.1277 12.4144 17.2706 12.2716 17.3563 12.0715C17.5607 12.1259 17.6797 12.2688 17.7134 12.5001C17.7827 11.4402 17.7352 10.3926 17.5706 9.35724C17.9097 9.08891 18.1717 8.75558 18.3563 8.35724C18.4742 8.23071 18.617 8.1831 18.7849 8.21438Z" fill="#3089C7"/>
<path fill-rule="evenodd" clip-rule="evenodd" d="M6.07152 9.07227C6.04787 9.64567 6.07169 10.2171 6.14294 10.7866C6.1976 10.866 6.26903 10.9136 6.35723 10.9294C6.35723 11.0723 6.35723 11.2151 6.35723 11.358C6.24082 11.2252 6.12177 11.0824 6.00009 10.9294C5.88386 10.2836 5.90766 9.66459 6.07152 9.07227Z" fill="#98AA72"/>
<path fill-rule="evenodd" clip-rule="evenodd" d="M17.0706 9.64258C17.3492 10.3904 17.4444 11.2 17.3563 12.0711C17.2706 12.2712 17.1277 12.414 16.9277 12.4997C17.1582 11.8559 17.2533 11.1892 17.2134 10.4997C17.2384 10.1967 17.1907 9.91104 17.0706 9.64258Z" fill="#8A9C7E"/>
<path fill-rule="evenodd" clip-rule="evenodd" d="M16.7852 9.07227C16.9529 9.21708 17.048 9.40755 17.0709 9.64369C17.191 9.91215 17.2387 10.1979 17.2137 10.5008C16.9409 10.0791 16.798 9.60287 16.7852 9.07227Z" fill="#C4B75C"/>
<path fill-rule="evenodd" clip-rule="evenodd" d="M25.5008 10.9277C25.7016 10.9953 25.7969 11.1382 25.7865 11.3563C25.5856 11.2887 25.4903 11.1459 25.5008 10.9277Z" fill="#9FAA6D"/>
<path fill-rule="evenodd" clip-rule="evenodd" d="M6.21401 8.64258C6.24791 8.82701 6.20029 8.96986 6.07115 9.07115C5.90729 9.66348 5.88349 10.2825 5.99972 10.9283C6.12141 11.0812 6.24045 11.2241 6.35686 11.3569C6.53532 11.7269 6.77342 12.0602 7.07115 12.3569C7.16639 12.4997 7.26162 12.6426 7.35686 12.7854C7.07355 12.6132 6.78784 12.4227 6.49972 12.214C6.35122 11.7939 6.06551 11.532 5.64258 11.4283C5.83184 10.6284 5.83184 9.84269 5.64258 9.07115C5.82758 8.92995 6.01805 8.78709 6.21401 8.64258Z" fill="#538999"/>
<path fill-rule="evenodd" clip-rule="evenodd" d="M20.3574 10.2148C20.405 10.2148 20.4527 10.2148 20.5003 10.2148C20.4863 10.5081 20.5816 10.7462 20.786 10.9291C20.8044 11.1743 20.852 11.4124 20.9289 11.6434C20.9231 12.3138 20.8756 12.9804 20.786 13.6434C20.7384 13.6434 20.6907 13.6434 20.6431 13.6434C20.657 12.4903 20.5617 11.3475 20.3574 10.2148Z" fill="#508893"/>
<path fill-rule="evenodd" clip-rule="evenodd" d="M25.7852 11.3574C26.0632 11.4338 26.206 11.6243 26.2137 11.9289C25.9357 11.8525 25.7929 11.662 25.7852 11.3574Z" fill="#80A18A"/>
<path fill-rule="evenodd" clip-rule="evenodd" d="M25.2151 10.7852C25.3104 10.8328 25.4056 10.8804 25.5008 10.928C25.4904 11.1461 25.5857 11.289 25.7866 11.3566C25.7943 11.6612 25.9371 11.8516 26.2151 11.928C26.2151 12.1185 26.2151 12.309 26.2151 12.4994C25.8666 12.0789 25.4856 11.6742 25.0723 11.2852C25.1918 11.1407 25.2394 10.974 25.2151 10.7852Z" fill="#E2BF38"/>
<path fill-rule="evenodd" clip-rule="evenodd" d="M26.2148 11.9277C26.4543 12.0254 26.5496 12.2158 26.5006 12.4992C26.453 12.4992 26.4053 12.4992 26.3577 12.4992C26.3101 12.4992 26.2624 12.4992 26.2148 12.4992C26.2148 12.3087 26.2148 12.1182 26.2148 11.9277Z" fill="#6C9A9C"/>
<path fill-rule="evenodd" clip-rule="evenodd" d="M7.07227 12.3574C7.44215 12.4888 7.72787 12.7269 7.92941 13.0717C7.70629 13.0384 7.51582 12.9432 7.35798 12.786C7.26274 12.6431 7.16751 12.5003 7.07227 12.3574Z" fill="#B8B56A"/>
<path fill-rule="evenodd" clip-rule="evenodd" d="M20.928 11.6426C21.1267 12.3228 21.0792 12.9895 20.7852 13.6426C20.8747 12.9796 20.9223 12.3129 20.928 11.6426Z" fill="#C6BD67"/>
<path fill-rule="evenodd" clip-rule="evenodd" d="M16.642 12.9277C16.4992 13.2611 16.261 13.4992 15.9277 13.642C15.9277 13.4992 15.9277 13.3563 15.9277 13.2134C16.188 13.1662 16.4262 13.0709 16.642 12.9277Z" fill="#668E81"/>
<path fill-rule="evenodd" clip-rule="evenodd" d="M26.6426 13.0723C27.0277 13.5611 27.2183 14.1325 27.214 14.7866C27.2599 15.576 27.2123 16.338 27.0711 17.0723C27.0949 16.1663 27.0711 15.2616 26.9997 14.358C26.9666 14.1812 26.8951 14.0383 26.7854 13.9294C26.783 13.6344 26.7354 13.3487 26.6426 13.0723Z" fill="#6E9889"/>
<path fill-rule="evenodd" clip-rule="evenodd" d="M8.21484 13.2148C8.56733 13.2513 8.85304 13.3941 9.07199 13.6434C8.92913 13.6434 8.78627 13.6434 8.64342 13.6434C8.45294 13.5482 8.31009 13.4053 8.21484 13.2148Z" fill="#C3B761"/>
<path fill-rule="evenodd" clip-rule="evenodd" d="M15.928 13.2146C15.928 13.3575 15.928 13.5003 15.928 13.6432C15.8804 13.6432 15.8327 13.6432 15.7852 13.6432C15.4912 13.8479 15.1577 13.9431 14.7852 13.9289C15.1264 13.8498 15.3644 13.6355 15.4994 13.286C15.6349 13.2171 15.7777 13.1932 15.928 13.2146Z" fill="#C1B656"/>
<path fill-rule="evenodd" clip-rule="evenodd" d="M26.3577 12.5C26.4053 12.5 26.453 12.5 26.5006 12.5C26.491 12.7084 26.5386 12.8989 26.6434 13.0714C26.7363 13.3479 26.7838 13.6336 26.7863 13.9286C26.6386 13.759 26.4481 13.6399 26.2148 13.5714C26.3484 13.2313 26.396 12.8742 26.3577 12.5Z" fill="#D4BC4F"/>
<path fill-rule="evenodd" clip-rule="evenodd" d="M8.64258 13.6426C8.78544 13.6426 8.92829 13.6426 9.07115 13.6426C9.11996 13.7623 9.21521 13.8099 9.35686 13.7854C9.64258 13.9283 9.92829 14.0711 10.214 14.214C9.60162 14.2174 9.07782 14.0269 8.64258 13.6426Z" fill="#5C8A86"/>
<path fill-rule="evenodd" clip-rule="evenodd" d="M9.35742 13.7852C9.78912 13.8286 10.2177 13.9 10.6431 13.9994C10.7226 14.0541 10.7702 14.1255 10.786 14.2137C10.5955 14.2137 10.405 14.2137 10.2146 14.2137C9.92885 14.0709 9.64314 13.928 9.35742 13.7852Z" fill="#CDBA59"/>
<path fill-rule="evenodd" clip-rule="evenodd" d="M20.6429 13.6426C20.6904 13.6426 20.7381 13.6426 20.7857 13.6426C20.8244 13.9111 20.7291 14.1016 20.5 14.214C20.5476 14.0235 20.5953 13.833 20.6429 13.6426Z" fill="#A2AB6E"/>
<path fill-rule="evenodd" clip-rule="evenodd" d="M14.7849 13.9277C14.7849 13.9753 14.7849 14.023 14.7849 14.0706C13.967 14.268 13.1336 14.3633 12.2849 14.3563C11.806 14.356 11.3537 14.3084 10.9277 14.2134C12.2188 14.177 13.5045 14.0818 14.7849 13.9277Z" fill="#D9BC57"/>
<path fill-rule="evenodd" clip-rule="evenodd" d="M20.6429 13.6426C20.5953 13.833 20.5476 14.0235 20.5 14.214C20.5 14.3093 20.5 14.4044 20.5 14.4997C20.222 14.5761 20.0791 14.7666 20.0714 15.0711C20.0714 15.1187 20.0714 15.1664 20.0714 15.214C19.7957 15.2527 19.6051 15.3956 19.5 15.6426C19.6943 15.1969 19.8133 14.7207 19.8571 14.214C19.9597 14.3499 20.0787 14.3736 20.2143 14.2854C20.2736 13.996 20.4164 13.7817 20.6429 13.6426Z" fill="#50889C"/>
<path fill-rule="evenodd" clip-rule="evenodd" d="M14.7863 14.0723C14.4821 14.1727 14.1965 14.3156 13.9291 14.5008C12.8804 14.5246 11.8328 14.5008 10.7863 14.4294C10.5637 14.3994 10.3732 14.328 10.2148 14.2151C10.4053 14.2151 10.5958 14.2151 10.7863 14.2151C10.8339 14.2151 10.8815 14.2151 10.9291 14.2151C11.3551 14.3101 11.8074 14.3577 12.2863 14.358C13.135 14.365 13.9684 14.2697 14.7863 14.0723Z" fill="#6E9078"/>
<path fill-rule="evenodd" clip-rule="evenodd" d="M15.7849 13.6426C15.7094 13.8169 15.6142 13.9836 15.4992 14.1426C16.8579 14.7913 16.8103 14.9104 15.3563 14.4997C15.1029 14.555 14.8647 14.6501 14.642 14.7854C14.4503 14.5704 14.2123 14.4751 13.9277 14.4997C14.1951 14.3144 14.4807 14.1715 14.7849 14.0711C14.7849 14.0235 14.7849 13.9759 14.7849 13.9283C15.1574 13.9425 15.4909 13.8473 15.7849 13.6426Z" fill="#3588B7"/>
<path fill-rule="evenodd" clip-rule="evenodd" d="M26.7852 13.9277C26.8949 14.0367 26.9663 14.1795 26.9994 14.3563C27.0709 15.2599 27.0946 16.1646 27.0709 17.0706C27.0963 17.588 27.001 18.0643 26.7852 18.4992C26.9716 16.9747 26.9716 15.4509 26.7852 13.9277Z" fill="#C1B766"/>
<path fill-rule="evenodd" clip-rule="evenodd" d="M20.5008 14.5C20.4931 14.8046 20.3503 14.995 20.0723 15.0714C20.08 14.7669 20.2228 14.5764 20.5008 14.5Z" fill="#C0B35E"/>
<path fill-rule="evenodd" clip-rule="evenodd" d="M20.0717 15.2148C20.0469 15.681 19.8087 15.9191 19.3574 15.9291C19.3574 15.8816 19.3574 15.8338 19.3574 15.7863C19.3574 15.691 19.405 15.6434 19.5003 15.6434C19.6054 15.3964 19.796 15.2536 20.0717 15.2148Z" fill="#CCB84D"/>
<path fill-rule="evenodd" clip-rule="evenodd" d="M19.3563 15.7852C19.3563 15.8327 19.3563 15.8804 19.3563 15.928C19.2134 16.0233 19.0706 16.1184 18.9277 16.2137C18.9277 15.928 19.0706 15.7852 19.3563 15.7852Z" fill="#708C70"/>
<path fill-rule="evenodd" clip-rule="evenodd" d="M18.9291 16.2148C18.8004 16.533 18.5624 16.6758 18.2148 16.6434C18.3101 16.5481 18.4053 16.453 18.5006 16.3577C18.6278 16.2706 18.7707 16.223 18.9291 16.2148Z" fill="#9AA574"/>
<path fill-rule="evenodd" clip-rule="evenodd" d="M19.358 15.9277C19.209 16.2929 18.9708 16.6024 18.6437 16.8563C18.2903 16.8724 18.0046 17.0153 17.7866 17.2849C17.5531 17.3554 17.315 17.3792 17.0723 17.3563C17.4858 17.1707 17.8668 16.9327 18.2151 16.642C18.5627 16.6744 18.8007 16.5316 18.9294 16.2134C19.0723 16.1182 19.2151 16.023 19.358 15.9277Z" fill="#DCBE4C"/>
<path fill-rule="evenodd" clip-rule="evenodd" d="M18.4994 16.3574C18.4042 16.4527 18.309 16.5479 18.2137 16.6431C17.8654 16.9339 17.4844 17.1719 17.0709 17.3574C16.9756 17.3574 16.8804 17.3574 16.7852 17.3574C17.1952 16.775 17.7666 16.4417 18.4994 16.3574Z" fill="#4F8894"/>
<path fill-rule="evenodd" clip-rule="evenodd" d="M27.2137 14.7852C27.3789 15.9034 27.4503 17.0463 27.428 18.2137C27.3804 18.1662 27.3327 18.1184 27.2852 18.0709C27.1377 18.4272 26.9712 18.7606 26.7852 19.0709C26.7852 18.928 26.7852 18.7852 26.7852 18.6423C26.7852 18.5947 26.7852 18.547 26.7852 18.4994C27.001 18.0646 27.0963 17.5883 27.0709 17.0709C27.212 16.3366 27.2596 15.5746 27.2137 14.7852Z" fill="#4A95BA"/>
<path fill-rule="evenodd" clip-rule="evenodd" d="M16.0715 17.5003C16.0715 17.5479 16.0715 17.5956 16.0715 17.6431C15.9762 17.6431 15.9287 17.6907 15.9287 17.786C15.5421 17.7967 15.1611 17.8443 14.7858 17.9289C14.7484 17.7177 14.7959 17.5273 14.9287 17.3574C15.2978 17.485 15.6788 17.5326 16.0715 17.5003Z" fill="#4689A9"/>
<path fill-rule="evenodd" clip-rule="evenodd" d="M16.6437 17.3567C16.4988 17.5244 16.3084 17.6195 16.0723 17.6424C16.0723 17.5948 16.0723 17.5471 16.0723 17.4995C16.2448 17.3947 16.4353 17.3471 16.6437 17.3567Z" fill="#769677"/>
<path fill-rule="evenodd" clip-rule="evenodd" d="M15.928 17.7852C15.56 17.9263 15.179 18.0692 14.7852 18.2137C14.7852 18.1184 14.7852 18.0233 14.7852 17.928C15.1604 17.8434 15.5414 17.7959 15.928 17.7852Z" fill="#B4AF63"/>
<path fill-rule="evenodd" clip-rule="evenodd" d="M14.7863 17.9277C14.7863 18.023 14.7863 18.1182 14.7863 18.2134C14.5177 18.1747 14.3273 18.27 14.2148 18.4992C13.8643 18.603 13.531 18.7459 13.2148 18.9277C13.2148 18.7849 13.2148 18.642 13.2148 18.4992C13.7342 18.2863 14.258 18.0959 14.7863 17.9277Z" fill="#60898D"/>
<path fill-rule="evenodd" clip-rule="evenodd" d="M14.2143 18.5C14.2143 18.6429 14.2143 18.7857 14.2143 18.9286C13.5969 19.1336 13.0254 19.4193 12.5 19.7857C12.5952 19.6429 12.6905 19.5 12.7857 19.3571C12.9009 19.1817 13.0438 19.0389 13.2143 18.9286C13.5304 18.7467 13.8637 18.6039 14.2143 18.5Z" fill="#D6BD4A"/>
<path fill-rule="evenodd" clip-rule="evenodd" d="M26.7851 18.6426C26.7851 18.7854 26.7851 18.9283 26.7851 19.0711C26.7851 19.2616 26.6898 19.3569 26.4994 19.3569C26.4854 19.0636 26.5807 18.8254 26.7851 18.6426Z" fill="#7F9A7B"/>
<path fill-rule="evenodd" clip-rule="evenodd" d="M12.7866 19.3574C12.6913 19.5003 12.5961 19.6431 12.5008 19.786C12.358 19.8813 12.2151 19.9764 12.0723 20.0717C12.1675 19.6907 12.4056 19.4527 12.7866 19.3574Z" fill="#6A8E7F"/>
<path fill-rule="evenodd" clip-rule="evenodd" d="M26.5006 19.3574C26.5393 19.626 26.444 19.8164 26.2148 19.9289C26.2377 19.6927 26.3328 19.5023 26.5006 19.3574Z" fill="#8BA678"/>
<path fill-rule="evenodd" clip-rule="evenodd" d="M12.4992 19.7852C12.291 20.0892 12.1481 20.4226 12.0706 20.7852C12.023 20.7852 11.9753 20.7852 11.9277 20.7852C11.9277 20.6899 11.9277 20.5947 11.9277 20.4994C11.9359 20.341 11.9835 20.1982 12.0706 20.0709C12.2134 19.9756 12.3563 19.8804 12.4992 19.7852Z" fill="#AFAB67"/>
<path fill-rule="evenodd" clip-rule="evenodd" d="M26.214 19.9277C26.1912 20.1639 26.096 20.3543 25.9283 20.4992C25.8896 20.2306 25.9849 20.0402 26.214 19.9277Z" fill="#9DB272"/>
<path fill-rule="evenodd" clip-rule="evenodd" d="M11.9293 20.5C11.9293 20.5953 11.9293 20.6904 11.9293 20.7857C11.6751 20.9986 11.5798 21.2843 11.6436 21.6429C11.596 21.6429 11.5484 21.6429 11.5008 21.6429C11.4776 21.3533 11.5014 21.0676 11.5722 20.7857C11.6317 20.6063 11.7508 20.511 11.9293 20.5Z" fill="#52848F"/>
<path fill-rule="evenodd" clip-rule="evenodd" d="M25.786 20.7852C25.786 20.8804 25.786 20.9756 25.786 21.0709C25.6431 21.1662 25.5003 21.2613 25.3574 21.3566C25.3574 21.309 25.3574 21.2613 25.3574 21.2137C25.4527 21.0233 25.5956 20.8804 25.786 20.7852Z" fill="#8B9C75"/>
<path fill-rule="evenodd" clip-rule="evenodd" d="M25.3573 21.2148C25.3573 21.2624 25.3573 21.3101 25.3573 21.3577C25.1668 21.5481 24.9763 21.7387 24.7858 21.9291C24.7405 21.494 24.931 21.2558 25.3573 21.2148Z" fill="#D1BE50"/>
<path fill-rule="evenodd" clip-rule="evenodd" d="M25.3574 21.3574C25.2621 21.6431 25.167 21.9289 25.0717 22.2146C24.8114 22.2619 24.5733 22.3571 24.3574 22.5003C24.4326 22.2531 24.5754 22.0626 24.786 21.9289C24.9764 21.7384 25.167 21.5479 25.3574 21.3574Z" fill="#79998C"/>
<path fill-rule="evenodd" clip-rule="evenodd" d="M11.9279 20.7852C11.9756 20.7852 12.0232 20.7852 12.0708 20.7852C11.9129 21.1013 11.9129 21.4109 12.0708 21.7137C11.8966 21.9702 11.7537 21.9463 11.6422 21.6423C11.5784 21.2837 11.6737 20.998 11.9279 20.7852Z" fill="#D4B848"/>
<path fill-rule="evenodd" clip-rule="evenodd" d="M25.7866 21.0723C25.7921 21.227 25.8398 21.3698 25.9294 21.5008C25.8188 21.6738 25.6998 21.6738 25.5723 21.5008C25.4203 22.0601 25.6346 22.3697 26.2151 22.4294C25.7967 22.5404 25.3918 22.5166 25.0008 22.358C24.9554 22.581 24.8364 22.7477 24.6437 22.858C24.7791 22.927 24.922 22.9507 25.0723 22.9294C25.0723 23.0723 25.0723 23.2151 25.0723 23.358C24.868 23.3693 24.6774 23.3217 24.5008 23.2151C23.7858 23.7876 22.9763 24.1684 22.0723 24.358C22.5154 24.1113 22.944 23.8256 23.358 23.5008C23.5926 23.275 23.8783 23.1798 24.2151 23.2151C24.196 22.9591 24.2436 22.7211 24.358 22.5008C24.5738 22.3577 24.812 22.2624 25.0723 22.2151C25.1676 21.9294 25.2627 21.6437 25.358 21.358C25.5008 21.2627 25.6437 21.1676 25.7866 21.0723Z" fill="#3A97CB"/>
<path fill-rule="evenodd" clip-rule="evenodd" d="M24.3574 22.5C24.243 22.7203 24.1954 22.9583 24.2146 23.2143C23.8777 23.179 23.592 23.2741 23.3574 23.5C23.3574 23.4524 23.3574 23.4047 23.3574 23.3571C23.6686 23.0364 24.002 22.7507 24.3574 22.5Z" fill="#6F959D"/>
<path fill-rule="evenodd" clip-rule="evenodd" d="M23.358 23.3574C23.358 23.405 23.358 23.4527 23.358 23.5003C22.944 23.825 22.5154 24.1107 22.0723 24.3574C21.9144 24.5146 21.724 24.6099 21.5008 24.6431C21.3736 24.7303 21.2307 24.7779 21.0723 24.786C21.2924 24.6193 21.483 24.4289 21.6437 24.2146C22.255 24.0041 22.8264 23.7184 23.358 23.3574Z" fill="#809A73"/>
<path fill-rule="evenodd" clip-rule="evenodd" d="M11.5006 21.6426C11.5482 21.6426 11.5958 21.6426 11.6434 21.6426C11.6672 22.6437 11.6434 23.6437 11.572 24.6426C11.5667 24.996 11.4477 25.2817 11.2148 25.4997C11.4248 24.3226 11.52 23.1321 11.5006 21.9283C11.5006 21.833 11.5006 21.7379 11.5006 21.6426Z" fill="#CBB856"/>
<path fill-rule="evenodd" clip-rule="evenodd" d="M21.6429 24.2148C21.4821 24.4291 21.2916 24.6196 21.0714 24.7863C20.7881 24.7373 20.5976 24.8326 20.5 25.072C20.2314 25.0333 20.041 25.1286 19.9286 25.3577C19.4424 25.4078 18.9661 25.5031 18.5 25.6434C18.5647 25.5066 18.6599 25.3874 18.7857 25.2863C19.3861 25.1136 19.9576 24.8754 20.5 24.572C20.119 24.5244 19.7381 24.4767 19.3571 24.4291C20.1154 24.3106 20.8773 24.2391 21.6429 24.2148Z" fill="#E7BC35"/>
<path fill-rule="evenodd" clip-rule="evenodd" d="M21.0714 24.7859C20.9266 24.9536 20.7361 25.0488 20.5 25.0716C20.5976 24.8322 20.7881 24.7369 21.0714 24.7859Z" fill="#8F9E7A"/>
<path fill-rule="evenodd" clip-rule="evenodd" d="M21.4992 24.6426C21.5102 24.8211 21.6054 24.9401 21.7849 24.9997C21.7523 25.0567 21.7046 25.0804 21.642 25.0711C21.081 25.2176 20.5096 25.3129 19.9277 25.3569C20.0402 25.1277 20.2306 25.0324 20.4992 25.0711C20.7353 25.0483 20.9257 24.9531 21.0706 24.7854C21.229 24.7773 21.3719 24.7297 21.4992 24.6426Z" fill="#4A86A2"/>
<path fill-rule="evenodd" clip-rule="evenodd" d="M19.9286 25.3574C19.7926 25.4934 19.6497 25.6363 19.5 25.786C19.1819 25.707 18.8484 25.707 18.5 25.786C18.5 25.7384 18.5 25.6907 18.5 25.6431C18.9661 25.5029 19.4424 25.4076 19.9286 25.3574Z" fill="#5C8C90"/>
<path fill-rule="evenodd" clip-rule="evenodd" d="M18.358 25.7852C17.9984 26.0956 17.5698 26.2384 17.0723 26.2137C17.0723 26.1662 17.0723 26.1184 17.0723 26.0709C17.4868 25.9169 17.9154 25.8217 18.358 25.7852Z" fill="#779A7B"/>
<path fill-rule="evenodd" clip-rule="evenodd" d="M17.0709 26.0723C17.0709 26.1198 17.0709 26.1676 17.0709 26.2151C16.3127 26.3337 15.5507 26.429 14.7852 26.5008C15.5062 26.2428 16.268 26.1 17.0709 26.0723Z" fill="#9AA86F"/>
<path fill-rule="evenodd" clip-rule="evenodd" d="M11.2152 25.5C11.1786 25.8274 11.2262 26.137 11.3581 26.4286C12.5 26.5 13.6428 26.5237 14.7867 26.5C13.5747 26.6419 12.3366 26.6894 11.0724 26.6429C11.0286 26.2307 11.0762 25.8497 11.2152 25.5Z" fill="#A1A778"/>
<path fill-rule="evenodd" clip-rule="evenodd" d="M11.4992 21.9277C11.5186 23.1316 11.4234 24.322 11.2134 25.4992C11.0744 25.8489 11.0268 26.2299 11.0706 26.642C12.3348 26.6886 13.5729 26.641 14.7849 26.4992C15.5504 26.4273 16.3124 26.332 17.0706 26.2134C16.3702 26.5724 15.6083 26.7629 14.7849 26.7849C13.5479 26.9092 12.3098 26.933 11.0706 26.8563C11.0516 25.4342 11.004 24.0056 10.9277 22.5706C11.1487 22.374 11.3392 22.1597 11.4992 21.9277Z" fill="#4B889C"/>
</g>
<defs>
<clipPath id="clip0_94_376">
<rect width="32" height="32" fill="white"/>
</clipPath>
</defs>
</svg>
