<svg width="33" height="33" viewBox="0 0 33 33" fill="none" xmlns="http://www.w3.org/2000/svg">
<path fill-rule="evenodd" clip-rule="evenodd" d="M13.5095 0.934698C25.9029 0.305704 32.3821 6.12357 32.9473 18.3883C31.9428 26.035 27.6928 30.814 20.1978 32.7252C10.6532 33.7682 4.31321 29.8204 1.17809 20.8817C-0.111065 10.8255 3.9997 4.17654 13.5095 0.934698Z" fill="#FAFCFE"/>
<path fill-rule="evenodd" clip-rule="evenodd" d="M13.9274 3.0123C21.9826 2.2679 27.4866 5.59239 30.4391 12.9858C31.8749 22.1217 28.1826 28.0088 19.3616 30.6472C11.0147 31.5232 5.65032 27.9909 3.26805 20.0503C2.15321 11.4589 5.70634 5.77952 13.9274 3.0123Z" fill="#22B2FD"/>
<path fill-rule="evenodd" clip-rule="evenodd" d="M13.0918 10.4942C13.8476 10.4906 14.5444 10.6984 15.1819 11.1175C17.9165 12.9593 20.5638 14.8986 23.1242 16.9354C20.1053 19.6115 16.7611 21.7586 13.0918 23.3766C13.0918 19.0825 13.0918 14.7883 13.0918 10.4942Z" fill="#FCFDFE"/>
</svg>
