<svg width="32" height="32" viewBox="0 0 32 32" fill="none" xmlns="http://www.w3.org/2000/svg">
    <path fill-rule="evenodd" clip-rule="evenodd"
        d="M15.12 5.84001C11.5107 8.3254 7.91072 10.8321 4.32005 13.36C4.2428 13.2083 4.21613 13.0483 4.24005 12.88C5.61077 7.96327 8.81077 5.00327 13.84 4.00001C14.3707 3.92028 14.9041 3.89361 15.44 3.92001C15.3591 4.56972 15.2524 5.20972 15.12 5.84001Z"
        fill="#C80AEC" />
    <path fill-rule="evenodd" clip-rule="evenodd"
        d="M15.1199 5.83997C15.0869 6.97014 14.9802 8.09014 14.7999 9.19997C11.2295 11.6492 7.65615 14.1026 4.07994 16.56C3.92119 15.8747 3.86784 15.1814 3.91994 14.48C3.89146 13.9004 3.99812 13.3671 4.23994 12.88C4.21602 13.0483 4.24269 13.2083 4.31994 13.36C7.91061 10.832 11.5106 8.32536 15.1199 5.83997Z"
        fill="#CD04E0" />
    <path fill-rule="evenodd" clip-rule="evenodd"
        d="M24.24 9.19994C22.8034 10.292 21.3101 11.3053 19.76 12.2399C19.8093 11.2179 19.9158 10.2045 20.08 9.19994C21.4762 8.99162 22.8627 8.99162 24.24 9.19994Z"
        fill="#DB12C0" />
    <path fill-rule="evenodd" clip-rule="evenodd"
        d="M24.24 9.19995C25.5147 10.2909 25.7013 11.5709 24.8 13.04C24.464 13.5146 24.0106 13.808 23.44 13.92C22.1611 13.9999 20.8811 14.0266 19.6 14C19.5591 13.3969 19.6123 12.8102 19.76 12.24C21.3101 11.3053 22.8034 10.292 24.24 9.19995Z"
        fill="#E111B3" />
    <path fill-rule="evenodd" clip-rule="evenodd"
        d="M14.8 9.19995C14.7758 10.1917 14.6691 11.1517 14.48 12.08C11.0639 14.3774 7.65051 16.6707 4.24003 18.96C3.7995 17.471 3.69284 15.9777 3.92003 14.48C3.86793 15.1814 3.92128 15.8747 4.08003 16.56C7.65624 14.1025 11.2296 11.6492 14.8 9.19995Z"
        fill="#D20AD3" />
    <path fill-rule="evenodd" clip-rule="evenodd"
        d="M14.48 12.08C14.53 12.6467 14.4767 13.18 14.32 13.68C11.0897 15.9079 7.83634 18.0945 4.55999 20.24C4.42071 19.822 4.31404 19.3953 4.23999 18.96C7.65047 16.6707 11.0638 14.3774 14.48 12.08Z"
        fill="#D606CB" />
    <path fill-rule="evenodd" clip-rule="evenodd"
        d="M14.3201 13.6801C14.2985 14.589 14.2451 15.4957 14.1601 16.4001C11.2296 18.2391 8.34959 20.1591 5.52006 22.1601C5.11571 21.5647 4.79571 20.9247 4.56006 20.2401C7.83641 18.0946 11.0897 15.908 14.3201 13.6801Z"
        fill="#DA08C0" />
    <path fill-rule="evenodd" clip-rule="evenodd"
        d="M14.16 16.4C14.0429 17.3048 13.9362 18.2114 13.84 19.12C11.4933 20.72 9.14669 22.32 6.80002 23.92C6.25788 23.4245 5.8312 22.8378 5.52002 22.16C8.34956 20.1591 11.2296 18.2391 14.16 16.4Z"
        fill="#E00BB4" />
    <path fill-rule="evenodd" clip-rule="evenodd"
        d="M24.08 18.64C22.2715 20.0253 20.4581 21.4119 18.64 22.8C18.8207 21.4736 18.9274 20.1402 18.96 18.8C20.6704 18.8287 22.3771 18.7752 24.08 18.64Z"
        fill="#EF1996" />
    <path fill-rule="evenodd" clip-rule="evenodd"
        d="M25.9999 21.04C25.9686 20.6966 25.8086 20.6701 25.5199 20.96C23.095 22.6129 20.695 24.2929 18.3199 26C18.4476 24.936 18.5543 23.8693 18.6399 22.8C20.458 21.4118 22.2715 20.0253 24.0799 18.64C25.1372 18.3758 26.1507 18.0291 27.1199 17.6C26.8799 18.8041 26.5065 19.9509 25.9999 21.04Z"
        fill="#F31289" />
    <path fill-rule="evenodd" clip-rule="evenodd"
        d="M13.84 19.12C13.7261 20.5192 13.5661 21.9058 13.36 23.28C12.3513 23.945 11.3379 24.6117 10.32 25.28C9.95752 25.5082 9.69086 25.8016 9.52005 26.16C8.4263 25.6541 7.51963 24.9074 6.80005 23.92C9.14672 22.32 11.4934 20.72 13.84 19.12Z"
        fill="#E60DA8" />
    <path fill-rule="evenodd" clip-rule="evenodd"
        d="M26 21.04C23.4546 26.0477 19.348 28.3143 13.68 27.84C13.0414 27.7603 12.4548 27.5736 11.92 27.28C12.3327 26.8584 12.8127 26.5119 13.36 26.24C15.0413 26.2128 16.6946 26.1328 18.32 26C20.6951 24.293 23.0951 22.613 25.52 20.96C25.8087 20.6701 25.9687 20.6967 26 21.04Z"
        fill="#F61684" />
    <path fill-rule="evenodd" clip-rule="evenodd"
        d="M13.36 23.28C13.3184 24.1875 13.2651 25.0943 13.2 26C14.9067 26 16.6133 26 18.32 26C16.6946 26.1328 15.0413 26.2128 13.36 26.24C12.8127 26.5119 12.3327 26.8584 11.92 27.28C11.0094 27.1178 10.2094 26.7443 9.52002 26.16C9.69084 25.8016 9.95749 25.5082 10.32 25.28C11.3379 24.6117 12.3512 23.945 13.36 23.28Z"
        fill="#EF2A9B" />
</svg>