<svg width="32" height="32" viewBox="0 0 32 32" fill="none" xmlns="http://www.w3.org/2000/svg">
<g clip-path="url(#clip0_94_524)">
<path d="M22.1306 21.2788C22.5344 20.8131 22.7909 20.238 22.868 19.6264C22.945 19.0147 22.8389 18.394 22.563 17.8426L19.0564 10.83C18.7976 10.3124 18.3996 9.87705 17.9073 9.5728C17.4149 9.26857 16.8476 9.10742 16.2688 9.10742C15.69 9.10742 15.1227 9.26857 14.6303 9.5728C14.138 9.87705 13.74 10.3124 13.4811 10.83L9.97462 17.8426C9.69833 18.3941 9.59192 19.0154 9.66888 19.6275C9.74586 20.2394 10.0027 20.8149 10.407 21.2809C10.8113 21.7468 11.3447 22.0824 11.9398 22.245C12.5349 22.4077 13.1649 22.39 13.75 22.1945L16.2863 21.3528L18.8072 22.1905C19.3893 22.3822 20.0152 22.3979 20.6064 22.2358C21.1974 22.0736 21.7276 21.7407 22.1306 21.2788ZM16.2863 12.2247L19.7928 19.2374L17.1474 18.357C16.5884 18.1709 15.9843 18.1709 15.4253 18.357L12.7798 19.2374L16.2863 12.2247Z" fill="#1A191B"/>
<path fill-rule="evenodd" clip-rule="evenodd" d="M10.471 4.55401C7.04133 4.55401 4.26105 7.33431 4.26105 10.764V11.592C4.26105 12.7352 3.3343 13.6619 2.19108 13.6619C1.04786 13.6619 0.121094 12.7352 0.121094 11.592V10.764C0.121094 5.04787 4.7549 0.414062 10.471 0.414062H11.713C12.8562 0.414062 13.783 1.34082 13.783 2.48404C13.783 3.62727 12.8562 4.55401 11.713 4.55401H10.471Z" fill="#1DBE61"/>
<path fill-rule="evenodd" clip-rule="evenodd" d="M10.471 27.7387C7.04133 27.7387 4.26105 24.9585 4.26105 21.5287V20.7008C4.26105 19.5576 3.3343 18.6309 2.19108 18.6309C1.04786 18.6309 0.121094 19.5576 0.121094 20.7008V21.5287C0.121094 27.2448 4.7549 31.8787 10.471 31.8787H11.713C12.8562 31.8787 13.783 30.9519 13.783 29.8087C13.783 28.6655 12.8562 27.7387 11.713 27.7387H10.471Z" fill="#1DBE61"/>
<path fill-rule="evenodd" clip-rule="evenodd" d="M21.6498 4.55401C25.0795 4.55401 27.8598 7.33431 27.8598 10.764V11.592C27.8598 12.7352 28.7865 13.6619 29.9298 13.6619C31.073 13.6619 31.9997 12.7352 31.9997 11.592V10.764C31.9997 5.04787 27.366 0.414062 21.6498 0.414062H20.4079C19.2646 0.414062 18.3379 1.34082 18.3379 2.48404C18.3379 3.62727 19.2646 4.55401 20.4079 4.55401H21.6498Z" fill="#1DBE61"/>
<path fill-rule="evenodd" clip-rule="evenodd" d="M21.6498 27.7387C25.0795 27.7387 27.8598 24.9585 27.8598 21.5287V20.7008C27.8598 19.5576 28.7865 18.6309 29.9298 18.6309C31.073 18.6309 31.9997 19.5576 31.9997 20.7008V21.5287C31.9997 27.2448 27.366 31.8787 21.6498 31.8787H20.4079C19.2646 31.8787 18.3379 30.9519 18.3379 29.8087C18.3379 28.6655 19.2646 27.7387 20.4079 27.7387H21.6498Z" fill="#1DBE61"/>
</g>
<defs>
<clipPath id="clip0_94_524">
<rect width="32" height="32" fill="white"/>
</clipPath>
</defs>
</svg>
