<svg width="32" height="32" viewBox="0 0 32 32" fill="none" xmlns="http://www.w3.org/2000/svg">
<path opacity="0.976" fill-rule="evenodd" clip-rule="evenodd" d="M15.5417 0.0117188C15.5417 10.6743 15.5417 21.337 15.5417 31.9996C14.5277 31.949 13.6135 31.6529 12.7988 31.111C12.7988 21.0408 12.7988 10.9705 12.7988 0.90027C13.8128 0.849712 14.7271 0.553557 15.5417 0.0117188Z" fill="#F4802D"/>
<path opacity="0.958" fill-rule="evenodd" clip-rule="evenodd" d="M15.543 0.0117188C16.1525 0.0117188 16.762 0.0117188 17.3715 0.0117188C17.3715 10.6743 17.3715 21.337 17.3715 31.9996C16.762 31.9996 16.1525 31.9996 15.543 31.9996C15.543 21.337 15.543 10.6743 15.543 0.0117188Z" fill="#F5872E"/>
<path opacity="0.966" fill-rule="evenodd" clip-rule="evenodd" d="M17.3711 0.0117188C17.9806 0.0117188 18.5901 0.0117188 19.1997 0.0117188C19.1997 10.3782 19.1997 20.7446 19.1997 31.111C18.5901 31.4072 17.9806 31.7034 17.3711 31.9996C17.3711 21.337 17.3711 10.6743 17.3711 0.0117188Z" fill="#F68C2F"/>
<path opacity="0.963" fill-rule="evenodd" clip-rule="evenodd" d="M19.2012 0.0117188C20.1155 0.0117188 21.0297 0.0117188 21.944 0.0117188C21.944 10.0819 21.944 20.1522 21.944 30.2225C21.2958 31.0257 20.3815 31.3219 19.2012 31.111C19.2012 20.7446 19.2012 10.3782 19.2012 0.0117188Z" fill="#F79330"/>
<path opacity="0.959" fill-rule="evenodd" clip-rule="evenodd" d="M21.9414 0.0117188C22.551 0.0117188 23.1604 0.0117188 23.77 0.0117188C23.4866 9.85802 23.7914 19.6321 24.6843 29.3339C23.8696 29.8758 22.9553 30.1719 21.9414 30.2225C21.9414 20.1522 21.9414 10.0819 21.9414 0.0117188Z" fill="#F79831"/>
<path opacity="0.949" fill-rule="evenodd" clip-rule="evenodd" d="M23.7723 0.0117188C24.077 0.0117188 24.3819 0.0117188 24.6866 0.0117188C24.404 9.56214 24.7087 19.04 25.6009 28.4454C25.6009 29.0378 25.2961 29.3339 24.6866 29.3339C23.7937 19.6321 23.489 9.85802 23.7723 0.0117188Z" fill="#F89B31"/>
<path opacity="0.956" fill-rule="evenodd" clip-rule="evenodd" d="M24.686 0.0117188C26.2098 0.0117188 27.7336 0.0117188 29.2574 0.0117188C29.2574 8.00868 29.2574 16.0056 29.2574 24.0026C28.7273 26.0008 27.5083 27.4816 25.6003 28.4454C24.7081 19.04 24.4034 9.56214 24.686 0.0117188Z" fill="#F89F32"/>
<path opacity="0.847" fill-rule="evenodd" clip-rule="evenodd" d="M29.2559 0.0117032C30.1664 -0.0645345 30.9283 0.231709 31.5416 0.900255C32.1511 7.41627 32.1511 13.9324 31.5416 20.4484C31.3583 22.0653 30.5965 23.25 29.2559 24.0026C29.2559 16.0056 29.2559 8.00867 29.2559 0.0117032Z" fill="#F9A333"/>
<path opacity="0.966" fill-rule="evenodd" clip-rule="evenodd" d="M10.9714 0.900391C10.9714 10.9706 10.9714 21.0409 10.9714 31.1111C9.86554 30.7272 8.95126 30.1349 8.22852 29.334C8.22852 20.4485 8.22852 11.563 8.22852 2.67749C8.95126 1.87664 9.86554 1.28433 10.9714 0.900391Z" fill="#F2702A"/>
<path opacity="0.985" fill-rule="evenodd" clip-rule="evenodd" d="M10.9727 0.900391C11.5822 0.900391 12.1917 0.900391 12.8012 0.900391C12.8012 10.9706 12.8012 21.0409 12.8012 31.1111C12.1917 31.1111 11.5822 31.1111 10.9727 31.1111C10.9727 21.0409 10.9727 10.9706 10.9727 0.900391Z" fill="#F3792C"/>
<path fill-rule="evenodd" clip-rule="evenodd" d="M8.22896 2.67948C8.22896 11.565 8.22896 20.4505 8.22896 29.336C7.32234 29.4885 6.71281 29.1923 6.40039 28.4475C6.40039 20.1544 6.40039 11.8612 6.40039 3.56804C6.71281 2.82325 7.32234 2.52701 8.22896 2.67948Z" fill="#ED602A"/>
<path fill-rule="evenodd" clip-rule="evenodd" d="M6.39888 3.56641C6.39888 11.8595 6.39888 20.1527 6.39888 28.4458C5.4846 28.1497 4.87507 27.5573 4.57031 26.6687C4.57031 19.5603 4.57031 12.4519 4.57031 5.34351C4.87507 4.45496 5.4846 3.86256 6.39888 3.56641Z" fill="#E74C29"/>
<path opacity="0.987" fill-rule="evenodd" clip-rule="evenodd" d="M4.57271 5.34375C4.57271 12.4522 4.57271 19.5606 4.57271 26.669C3.65843 26.3728 3.0489 25.7804 2.74414 24.8919C2.74414 18.9682 2.74414 13.0446 2.74414 7.12085C3.0489 6.2323 3.65843 5.6399 4.57271 5.34375Z" fill="#E13C29"/>
<path opacity="0.889" fill-rule="evenodd" clip-rule="evenodd" d="M2.74263 7.11914C2.74263 13.0428 2.74263 18.9665 2.74263 24.8902C1.91861 24.1878 1.30908 23.2992 0.914062 22.2245C2.13311 18.0779 2.13311 13.9314 0.914062 9.78479C1.30908 8.71009 1.91861 7.82154 2.74263 7.11914Z" fill="#DD3028"/>
<path opacity="0.488" fill-rule="evenodd" clip-rule="evenodd" d="M0.914283 9.78516C2.13333 13.9318 2.13333 18.0783 0.914283 22.2249C-0.304761 18.0783 -0.304761 13.9318 0.914283 9.78516Z" fill="#D92528"/>
</svg>
