<svg width="32" height="32" viewBox="0 0 32 32" fill="none" xmlns="http://www.w3.org/2000/svg">
<g clip-path="url(#clip0_94_656)">
<path fill-rule="evenodd" clip-rule="evenodd" d="M14.293 -0.0703125C15.3834 -0.0703125 16.4737 -0.0703125 17.5641 -0.0703125C17.5641 -0.0229051 17.5641 0.0245024 17.5641 0.0719097C15.9436 0.0438855 14.3316 0.1387 12.7285 0.356354C13.2357 0.156841 13.7572 0.014619 14.293 -0.0703125Z" fill="#E1BAB6"/>
<path fill-rule="evenodd" clip-rule="evenodd" d="M18.1328 0.212891C18.7003 0.283823 19.2692 0.354934 19.8395 0.426224C19.9698 0.465821 20.0645 0.536933 20.1239 0.639557C19.4199 0.601173 18.7562 0.458951 18.1328 0.212891Z" fill="#D07C79"/>
<path fill-rule="evenodd" clip-rule="evenodd" d="M17.5649 0.07132C17.7924 0.0332316 17.9819 0.0806391 18.1338 0.213542C18.7572 0.459602 19.4209 0.601825 20.1249 0.640209C26.3629 2.61057 30.1554 6.78243 31.5027 13.1558C31.5927 14.6236 31.6401 16.0934 31.6449 17.5647C31.6449 17.8965 31.6449 18.2284 31.6449 18.5602C31.4707 18.6529 31.3759 18.8189 31.3605 19.058C31.3012 19.4133 31.2537 19.7688 31.2183 20.1247C30.9015 21.2417 30.4749 22.3319 29.9383 23.3958C29.6894 23.5606 29.5472 23.7977 29.5116 24.1069C27.7003 27.1039 25.1878 29.2846 21.9738 30.6491C21.623 30.6854 21.3385 30.8276 21.1205 31.0758C20.1197 31.2584 19.1241 31.4717 18.1338 31.7158C17.0445 31.7869 15.9541 31.8105 14.8627 31.7869C14.8154 31.7869 14.7679 31.7869 14.7205 31.7869C13.9929 31.6011 13.2344 31.5063 12.4449 31.5024C11.4676 31.3269 10.5195 31.0187 9.60049 30.578C5.7504 28.6816 3.00077 25.766 1.3516 21.8313C1.40563 21.5187 1.31082 21.2816 1.06716 21.1202C1.05907 20.9625 1.01166 20.8203 0.924937 20.6935C0.912102 20.1653 0.76988 19.6912 0.498271 19.2713C0.523123 18.9697 0.475716 18.6852 0.356049 18.418C0.191213 16.8046 0.191213 15.1928 0.356049 13.5824C0.536415 13.2404 0.63123 12.8611 0.640493 12.4447C0.807846 11.106 1.23451 9.87346 1.92049 8.74688C2.37044 8.51258 2.60747 8.13333 2.6316 7.6091C4.02163 5.08128 6.01274 3.18499 8.60494 1.92021C9.19891 1.69639 9.81521 1.50677 10.4538 1.35132C10.6531 1.20616 10.8428 1.06394 11.0227 0.924653C11.5482 0.64994 12.117 0.460309 12.7294 0.355764C14.3325 0.138111 15.9445 0.0432958 17.5649 0.07132Z" fill="#BB2524"/>
<path fill-rule="evenodd" clip-rule="evenodd" d="M11.0213 0.923828C10.8413 1.06311 10.6517 1.20533 10.4524 1.35049C9.81378 1.50594 9.19749 1.69557 8.60352 1.91938C9.31797 1.39718 10.1239 1.06533 11.0213 0.923828Z" fill="#C74846"/>
<path fill-rule="evenodd" clip-rule="evenodd" d="M18.1331 3.62625C16.621 3.52947 15.104 3.52947 13.582 3.62625C15.1003 3.2574 16.6172 3.2574 18.1331 3.62625Z" fill="#E0A3A4"/>
<path fill-rule="evenodd" clip-rule="evenodd" d="M13.014 3.76953C13.014 3.86435 12.9666 3.91175 12.8718 3.91175C12.4591 4.06504 12.0324 4.15985 11.5918 4.1962C12.0191 3.94353 12.4932 3.8013 13.014 3.76953Z" fill="#D89996"/>
<path fill-rule="evenodd" clip-rule="evenodd" d="M18.133 3.62727C19.6 3.89519 20.9747 4.41668 22.2574 5.19172C22.1152 5.19172 21.973 5.19172 21.8307 5.19172C21.8539 5.52691 21.8303 5.85877 21.7596 6.18727C21.6158 6.30626 21.4499 6.35367 21.2618 6.3295C21.2256 6.68737 21.107 7.01922 20.9063 7.32505C20.1116 8.43326 19.4716 9.61844 18.9863 10.8806C18.7933 10.712 18.58 10.5698 18.3463 10.4539C18.0596 10.7644 17.7515 11.0489 17.4218 11.3073C17.289 11.1554 17.2415 10.9658 17.2796 10.7384C17.4659 10.504 17.6555 10.267 17.8485 10.0273C17.416 9.47608 16.9182 9.00199 16.3552 8.60505C15.6929 9.14885 15.0529 9.71774 14.4352 10.3117C14.3403 10.3117 14.2456 10.3117 14.1507 10.3117C14.211 10.203 14.2584 10.0845 14.293 9.95616C13.8288 8.04054 13.3073 6.14425 12.7285 4.26727C12.7631 4.13898 12.8105 4.02046 12.8707 3.91172C12.9656 3.91172 13.013 3.86432 13.013 3.7695C13.2404 3.80758 13.43 3.76018 13.5818 3.62727C15.1038 3.53049 16.6209 3.53049 18.133 3.62727Z" fill="#F5F4F4"/>
<path fill-rule="evenodd" clip-rule="evenodd" d="M13.7235 10.4542C13.8216 10.6353 13.9401 10.6353 14.0791 10.4542C14.1488 10.6381 14.1725 10.8277 14.1502 11.023C13.7862 10.9802 13.4544 11.0276 13.1546 11.1653C12.5088 11.1893 12.4614 11.0945 13.0124 10.8808C12.9206 10.606 12.731 10.4401 12.4435 10.383C12.5383 10.3356 12.6331 10.2882 12.728 10.2408C12.5013 9.82325 12.2642 9.42029 12.0169 9.03194C11.8746 9.03194 11.7324 9.03194 11.5902 9.03194C11.4618 8.56468 11.3196 8.09061 11.1635 7.60971C10.6638 7.02663 10.3319 6.36292 10.168 5.6186C10.8017 5.56225 10.8491 5.42003 10.3102 5.19194C10.6422 5.07337 10.9267 4.88373 11.1635 4.62305C11.8242 6.05891 12.4168 7.52853 12.9413 9.03194C13.1685 9.53445 13.4292 10.0085 13.7235 10.4542Z" fill="#FCFCFC"/>
<path fill-rule="evenodd" clip-rule="evenodd" d="M22.2574 5.19141C22.8498 5.4687 23.3713 5.84796 23.8219 6.32918C23.2695 6.47428 23.0087 6.85354 23.0397 7.46696C22.6669 7.58235 22.335 7.77197 22.0441 8.03585C21.5813 8.9009 20.9887 9.65943 20.2663 10.3114C19.9234 10.7791 19.7338 11.2532 19.6974 11.7336C19.3941 11.5074 19.1571 11.223 18.9863 10.8803C19.4716 9.61813 20.1116 8.43295 20.9063 7.32474C21.107 7.0189 21.2256 6.68706 21.2619 6.32918C21.4499 6.35336 21.6159 6.30594 21.7597 6.18696C21.8303 5.85846 21.854 5.5266 21.8308 5.19141C21.973 5.19141 22.1152 5.19141 22.2574 5.19141Z" fill="#FAFAFA"/>
<path fill-rule="evenodd" clip-rule="evenodd" d="M12.8714 3.91016C12.8112 4.0189 12.7638 4.13741 12.7292 4.26571C13.308 6.14269 13.8295 8.03898 14.2936 9.9546C14.2591 10.0829 14.2116 10.2014 14.1514 10.3102C14.0636 10.2944 13.9925 10.247 13.9381 10.1679C13.8985 10.2982 13.8274 10.393 13.7248 10.4524C13.4304 10.0068 13.1697 9.53267 12.9425 9.03016C12.4181 7.52675 11.8255 6.05713 11.1648 4.62127C10.9279 4.88195 10.6434 5.07159 10.3114 5.19016C10.8504 5.41825 10.803 5.56047 10.1692 5.61682C10.3331 6.36114 10.665 7.02485 11.1648 7.60793C11.3208 8.08883 11.4631 8.5629 11.5914 9.03016C11.7336 9.03016 11.8759 9.03016 12.0181 9.03016C12.2655 9.41851 12.5025 9.82147 12.7292 10.239C12.6344 10.2864 12.5396 10.3339 12.4448 10.3813C12.7322 10.4383 12.9218 10.6043 13.0136 10.879C12.4627 11.0927 12.5101 11.1875 13.1559 11.1635C13.061 11.3531 12.9188 11.4953 12.7292 11.5902C12.5397 11.4009 12.4212 11.1639 12.3736 10.879C12.0272 10.5993 11.6717 10.3622 11.307 10.1679C11.2794 9.76549 11.1846 9.38624 11.0225 9.03016C10.8803 9.03016 10.7381 9.03016 10.5959 9.03016C10.4774 8.62387 10.2878 8.24461 10.027 7.89238C9.50337 7.27395 8.93448 6.70506 8.32031 6.18571C9.27192 5.27895 10.3623 4.61524 11.5914 4.1946C12.032 4.15825 12.4587 4.06344 12.8714 3.91016Z" fill="#EEEDED"/>
<path fill-rule="evenodd" clip-rule="evenodd" d="M8.31977 6.18632C8.93395 6.70567 9.50284 7.27456 10.0264 7.89298C10.2872 8.24521 10.4769 8.62447 10.5953 9.03076C10.7376 9.03076 10.8798 9.03076 11.022 9.03076C11.184 9.38684 11.2788 9.76609 11.3064 10.1685C11.6711 10.3628 12.0267 10.5999 12.3731 10.8796C12.4207 11.1645 12.5392 11.4015 12.7287 11.5908C12.6672 11.7628 12.5724 11.905 12.4442 12.0174C11.9744 11.9887 11.6662 11.7517 11.5198 11.3063C11.4724 11.3537 11.425 11.4011 11.3776 11.4485C10.987 10.8621 10.4892 10.388 9.88422 10.0263C9.17311 9.2678 8.462 8.50927 7.75089 7.75076C7.59322 7.90573 7.451 7.90573 7.32422 7.75076C7.61478 7.59725 7.8044 7.36022 7.89311 7.03965C7.70724 6.84552 7.70724 6.65588 7.89311 6.47076C7.96039 6.27075 8.10262 6.17593 8.31977 6.18632Z" fill="#FBFBFB"/>
<path fill-rule="evenodd" clip-rule="evenodd" d="M24.9598 7.32423C25.2484 7.65967 25.5329 7.99151 25.8132 8.31979C25.7901 8.65037 25.6243 8.88741 25.3154 9.0309C25.268 8.88868 25.2205 8.74646 25.1732 8.60423C25.0492 9.06301 24.7885 9.41857 24.391 9.6709C23.6749 10.2183 22.9163 10.6924 22.1154 11.0931C21.9902 11.286 21.9427 11.4993 21.9732 11.7331C21.831 11.7331 21.6887 11.7331 21.5465 11.7331C21.4305 12.1039 21.1934 12.3884 20.8354 12.5865C20.4882 12.5753 20.1564 12.5279 19.8398 12.4442C19.8398 12.3968 19.8398 12.3494 19.8398 12.302C19.9522 12.1444 20.0233 11.9547 20.0532 11.7331C21.5465 10.4294 22.945 9.0309 24.2487 7.53757C24.4656 7.39412 24.7027 7.32301 24.9598 7.32423Z" fill="#FCFCFB"/>
<path fill-rule="evenodd" clip-rule="evenodd" d="M2.63103 7.60938C2.6069 8.13361 2.36987 8.51286 1.91992 8.74715C2.05307 8.29614 2.29011 7.91687 2.63103 7.60938Z" fill="#C2504B"/>
<path fill-rule="evenodd" clip-rule="evenodd" d="M17.281 10.7368C16.9511 11.185 16.5481 11.5642 16.0721 11.8746C15.4722 11.6297 14.9269 11.2979 14.4365 10.8791C14.2764 10.693 14.2764 10.5034 14.4365 10.3102C15.0542 9.71621 15.6942 9.14732 16.3565 8.60352C16.9196 9.00046 17.4173 9.47454 17.8498 10.0257C17.6569 10.2655 17.4673 10.5025 17.281 10.7368Z" fill="#0C0C0C"/>
<path fill-rule="evenodd" clip-rule="evenodd" d="M11.7333 12.7296C11.6385 12.9192 11.4962 13.0614 11.3066 13.1562C11.0641 13.009 10.8271 13.009 10.5955 13.1562C10.3585 12.9666 10.1214 12.777 9.88438 12.5873C9.78591 12.662 9.7148 12.7568 9.67105 12.8718C9.22813 12.0581 8.49331 11.513 7.46661 11.2362C7.00716 10.9458 6.58049 10.6139 6.18661 10.2407C6.00268 10.171 5.81305 10.1473 5.61772 10.1696C5.63898 10.0199 5.61527 9.87772 5.54661 9.74289C5.43867 9.96517 5.27274 10.1074 5.04883 10.1696C5.13556 10.0428 5.18296 9.90061 5.19105 9.74289C5.32519 9.33043 5.56224 8.99858 5.90216 8.74734C5.88354 8.87198 5.93096 8.9668 6.04438 9.03178C6.24435 8.82546 6.45768 8.63582 6.68438 8.46289C6.72756 8.73887 6.84608 8.97591 7.03994 9.174C8.45707 10.1624 9.87929 11.158 11.3066 12.1607C11.433 12.375 11.5752 12.5646 11.7333 12.7296Z" fill="#FCFBFA"/>
<path fill-rule="evenodd" clip-rule="evenodd" d="M23.8217 6.32812C24.2498 6.59182 24.629 6.92367 24.9595 7.32368C24.7024 7.32246 24.4653 7.39357 24.2484 7.53701C22.9446 9.03035 21.5462 10.4289 20.0528 11.7326C20.023 11.9542 19.9518 12.1438 19.8395 12.3015C19.849 12.094 19.8017 11.9044 19.6973 11.7326C19.7337 11.2521 19.9233 10.778 20.2662 10.3103C20.9885 9.65837 21.5811 8.89984 22.0439 8.03479C22.3348 7.77091 22.6667 7.58129 23.0395 7.4659C23.0085 6.85248 23.2693 6.47322 23.8217 6.32812Z" fill="#EDEDED"/>
<path fill-rule="evenodd" clip-rule="evenodd" d="M7.89349 6.4707C7.70762 6.65582 7.70762 6.84546 7.89349 7.03959C7.80478 7.36016 7.61516 7.59719 7.3246 7.7507C7.45137 7.90567 7.5936 7.90567 7.75126 7.7507C8.46237 8.50922 9.17349 9.26774 9.8846 10.0263C10.4896 10.388 10.9874 10.8621 11.3779 11.4485C11.4253 11.4011 11.4727 11.3537 11.5202 11.3063C11.6666 11.7516 11.9748 11.9887 12.4446 12.0174C12.255 12.3018 12.0179 12.5389 11.7335 12.7285C11.5754 12.5635 11.4332 12.3739 11.3068 12.1596C9.8795 11.1569 8.45728 10.1614 7.04015 9.17293C6.84629 8.97484 6.72777 8.7378 6.6846 8.46181C6.45789 8.63474 6.24456 8.82438 6.0446 9.0307C5.93117 8.96572 5.88376 8.8709 5.90237 8.74626C6.43339 7.87543 7.0971 7.1169 7.89349 6.4707Z" fill="#EEEDED"/>
<path fill-rule="evenodd" clip-rule="evenodd" d="M25.8137 8.32031C26.2007 8.80301 26.5325 9.32449 26.8093 9.88476C26.6208 9.67816 26.5024 9.72558 26.4537 10.027C26.4064 9.97958 26.3589 9.93216 26.3115 9.88476C25.9002 10.1802 25.4498 10.3698 24.9604 10.4536C24.9604 10.5959 24.9604 10.7381 24.9604 10.8803C24.6539 10.8621 24.3694 10.9332 24.107 11.0936C23.553 11.509 22.9841 11.9119 22.4004 12.3025C22.0895 12.405 21.7813 12.4999 21.4759 12.587C21.4286 12.5396 21.3811 12.4922 21.3337 12.4448C21.2133 12.6856 21.0948 12.9226 20.9782 13.1559C20.8833 13.1559 20.8359 13.1085 20.8359 13.0136C20.8359 12.8714 20.8359 12.7292 20.8359 12.587C21.1939 12.3889 21.431 12.1045 21.547 11.7336C21.6893 11.7336 21.8315 11.7336 21.9737 11.7336C21.9433 11.4998 21.9908 11.2865 22.1159 11.0936C22.9168 10.6929 23.6754 10.2188 24.3915 9.67142C24.789 9.41909 25.0497 9.06354 25.1737 8.60476C25.2211 8.74698 25.2686 8.8892 25.3159 9.03142C25.6248 8.88794 25.7907 8.65089 25.8137 8.32031Z" fill="#EEEDED"/>
<path fill-rule="evenodd" clip-rule="evenodd" d="M26.8096 9.88383C27.2349 10.4772 27.5193 11.1409 27.663 11.8749C27.7554 12.1502 27.8028 12.4346 27.8052 12.7283C26.1206 12.6816 24.4613 12.729 22.8274 12.8705C22.8274 12.9179 22.8274 12.9653 22.8274 13.0127C22.8274 13.4868 22.8274 13.9609 22.8274 14.4349C22.8274 14.4823 22.8274 14.5298 22.8274 14.5772C24.2722 14.6952 25.7418 14.7663 27.2363 14.7905C25.859 14.8144 24.4842 14.8855 23.1118 15.0038C23.2653 15.5413 23.0756 15.6835 22.543 15.4305C22.4481 15.2883 22.3534 15.1461 22.2585 15.0038C22.0163 14.668 21.7792 14.668 21.5474 15.0038C21.4214 14.8865 21.374 14.7443 21.4052 14.5772C21.4961 14.4923 21.5434 14.3738 21.5474 14.2216C21.5635 13.98 21.4688 13.814 21.263 13.7238C21.1681 13.5342 21.0734 13.3446 20.9785 13.1549C21.0951 12.9217 21.2136 12.6846 21.3341 12.4438C21.3814 12.4912 21.4289 12.5387 21.4763 12.5861C21.7816 12.4989 22.0898 12.4041 22.4007 12.3016C22.9844 11.911 23.5533 11.5081 24.1074 11.0927C24.3698 10.9323 24.6542 10.8612 24.9607 10.8794C24.9607 10.7372 24.9607 10.5949 24.9607 10.4527C25.4501 10.3689 25.9005 10.1793 26.3118 9.88383C26.3592 9.93124 26.4067 9.97865 26.4541 10.0261C26.5027 9.72466 26.6212 9.67724 26.8096 9.88383Z" fill="#F7F7F6"/>
<path fill-rule="evenodd" clip-rule="evenodd" d="M5.19034 9.74219C5.18225 9.89991 5.13484 10.0421 5.04812 10.1689C5.0585 10.386 4.96368 10.5282 4.76367 10.5955C4.79992 10.2446 4.94215 9.96016 5.19034 9.74219Z" fill="#DE8B88"/>
<path fill-rule="evenodd" clip-rule="evenodd" d="M18.9868 10.8798C19.1577 11.2225 19.3946 11.5069 19.698 11.7331C19.8024 11.9049 19.8497 12.0946 19.8402 12.302C19.8402 12.3494 19.8402 12.3968 19.8402 12.4442C19.237 12.9989 18.6208 13.5678 17.9913 14.1509C17.8755 13.8286 17.8044 13.4968 17.778 13.1553C17.3904 12.9509 17.0822 12.6665 16.8535 12.302C16.938 11.9027 17.1276 11.5708 17.4224 11.3065C17.7521 11.0481 18.0601 10.7636 18.3468 10.4531C18.5805 10.569 18.7939 10.7112 18.9868 10.8798Z" fill="#0F0F0F"/>
<path fill-rule="evenodd" clip-rule="evenodd" d="M11.3065 13.1555C10.8189 13.765 10.3448 14.4051 9.88423 15.0755C10.3697 16.0226 10.7964 16.9945 11.1642 17.9911C9.80686 18.4763 8.43205 19.069 7.03978 19.7689C6.27059 19.8835 5.58317 20.1917 4.97756 20.6933C4.90709 20.9739 4.8834 21.2583 4.90645 21.5466C4.5746 20.7882 4.24274 20.0295 3.91089 19.2711C3.91089 19.1289 3.91089 18.9866 3.91089 18.8444C4.13379 19.0124 4.2523 19.2493 4.26645 19.5555C4.33664 19.3231 4.36035 19.086 4.33756 18.8444C5.15214 18.7951 5.95807 18.6764 6.75534 18.4889C7.80723 18.2084 8.85019 17.8766 9.88423 17.4933C10.2058 17.4593 10.4903 17.4356 10.7376 17.4222C10.6525 17.238 10.5814 17.0484 10.5242 16.8533C10.3797 17.0146 10.2849 16.9672 10.2398 16.7111C9.94548 16.8197 9.63733 16.8908 9.31534 16.9244C7.69887 16.9574 6.08702 17.0285 4.47978 17.1377C4.47978 17.28 4.47978 17.4222 4.47978 17.5644C4.29016 17.5644 4.10052 17.5644 3.91089 17.5644C3.86349 16.8059 3.81607 16.8059 3.76867 17.5644C3.72127 17.5644 3.67385 17.5644 3.62645 17.5644C3.5803 16.5423 3.6277 15.5467 3.76867 14.5777C5.57016 14.5777 7.37163 14.5777 9.17312 14.5777C9.17312 14.0089 9.17312 13.44 9.17312 12.8711C7.46645 12.8711 5.75978 12.8711 4.05312 12.8711C4.05312 12.7289 4.05312 12.5866 4.05312 12.4444C4.34962 12.1337 4.49184 11.7545 4.47978 11.3066C4.46586 11.0147 4.56067 10.7776 4.76423 10.5955C4.96423 10.5282 5.05905 10.386 5.04867 10.1689C5.27259 10.1067 5.43852 9.96447 5.54645 9.74219C5.61511 9.87701 5.63882 10.0192 5.61756 10.1689C5.81289 10.1466 6.00253 10.1703 6.18645 10.24C6.58033 10.6132 7.007 10.9451 7.46645 11.2355C8.49315 11.5123 9.22797 12.0574 9.67089 12.8711C9.71464 12.7561 9.78575 12.6613 9.88423 12.5866C10.1213 12.7763 10.3583 12.9659 10.5953 13.1555C10.8269 13.0083 11.064 13.0083 11.3065 13.1555Z" fill="#EEEEEE"/>
<path fill-rule="evenodd" clip-rule="evenodd" d="M13.1559 11.1641C14.5607 11.7347 15.8881 12.4695 17.1381 13.3685C17.2755 13.8571 17.2755 14.3548 17.1381 14.8618C16.371 14.8031 15.6125 14.6845 14.8625 14.5063C14.7384 14.3577 14.5962 14.2392 14.4359 14.1507C14.304 13.8697 14.1144 13.8223 13.867 14.0085C13.8846 14.0948 13.932 14.1422 14.0092 14.1507C14.0092 14.4352 14.0092 14.7196 14.0092 15.0041C13.7549 14.9635 13.5179 15.0109 13.2981 15.1463C13.8199 15.5498 14.3888 15.8816 15.0048 16.1418C15.6065 17.5712 16.1754 18.9934 16.7114 20.4085C16.7139 20.7022 16.7612 20.9866 16.8537 21.2618C16.6737 21.4011 16.484 21.5433 16.2848 21.6885C16.4021 21.8145 16.5443 21.8619 16.7114 21.8307C16.6331 22.3011 16.5857 22.7751 16.5692 23.253C16.1036 24.927 15.7244 26.6337 15.4314 28.373C14.0372 28.4637 12.7098 28.2267 11.4492 27.6618C11.7498 26.357 12.0817 25.077 12.4448 23.8218C12.581 23.5656 12.6759 23.2811 12.7292 22.9685C12.75 22.5499 12.8449 22.147 13.0137 21.7596C13.0037 21.6508 12.9563 21.5797 12.8714 21.5463C12.8293 21.2756 12.7345 21.0386 12.587 20.8352C12.3946 20.4505 12.205 20.0712 12.0181 19.6974C12.0181 19.6025 11.9707 19.5552 11.8759 19.5552C11.7591 19.0393 11.5695 18.5653 11.307 18.133C11.2122 18.133 11.1648 18.0856 11.1648 17.9907C10.7969 16.9942 10.3702 16.0222 9.88477 15.0752C10.3453 14.4047 10.8194 13.7647 11.307 13.1552C11.4966 13.0604 11.6388 12.9181 11.7337 12.7285C12.0181 12.5389 12.2551 12.3018 12.4448 12.0174C12.573 11.905 12.6678 11.7627 12.7292 11.5907C12.9188 11.4959 13.0611 11.3537 13.1559 11.1641Z" fill="#060606"/>
<path fill-rule="evenodd" clip-rule="evenodd" d="M4.4794 11.3066C4.49146 11.7545 4.34924 12.1337 4.05273 12.4444C4.08586 12.0118 4.22808 11.6326 4.4794 11.3066Z" fill="#E9AFAA"/>
<path fill-rule="evenodd" clip-rule="evenodd" d="M27.6617 11.875C27.7495 11.8907 27.8206 11.9381 27.8751 12.0172C27.9455 12.2978 27.9692 12.5822 27.9462 12.8706C26.2395 12.8706 24.5328 12.8706 22.8262 12.8706C24.46 12.7291 26.1193 12.6816 27.8039 12.7283C27.8015 12.4347 27.7542 12.1502 27.6617 11.875Z" fill="#ADA5A5"/>
<path fill-rule="evenodd" clip-rule="evenodd" d="M20.836 13.013C20.836 13.1078 20.8834 13.1552 20.9783 13.1552C21.0731 13.3448 21.1678 13.5345 21.2627 13.7241C21.3551 13.9993 21.4025 14.2838 21.4049 14.5774C20.5264 15.4793 19.5782 16.3089 18.5605 17.0663C17.9907 17.1292 17.493 16.9634 17.0671 16.5686C16.9825 16.3696 17.0063 16.18 17.1383 15.9997C18.1516 14.9407 19.1471 13.874 20.1249 12.7997C20.4087 12.7125 20.6457 12.7836 20.836 13.013Z" fill="#0D0D0D"/>
<path fill-rule="evenodd" clip-rule="evenodd" d="M4.05273 12.8711C5.68658 13.0126 7.34585 13.06 9.03051 13.0133C9.03051 13.4874 9.03051 13.9615 9.03051 14.4355C7.27644 14.4355 5.52236 14.4355 3.76829 14.4355C3.75832 13.8773 3.85314 13.3559 4.05273 12.8711Z" fill="#020101"/>
<path fill-rule="evenodd" clip-rule="evenodd" d="M22.8262 13.0138C24.3935 12.9665 25.9579 13.0139 27.5195 13.156C27.5724 13.566 27.5724 13.9927 27.5195 14.436C25.9551 14.436 24.3906 14.436 22.8262 14.436C22.8262 13.9619 22.8262 13.4878 22.8262 13.0138Z" fill="#010101"/>
<path fill-rule="evenodd" clip-rule="evenodd" d="M22.8262 13.0133C22.8262 12.9659 22.8262 12.9185 22.8262 12.8711C24.5328 12.8711 26.2395 12.8711 27.9462 12.8711C28.1579 13.4024 28.2528 13.9713 28.2306 14.5778C26.4291 14.5778 24.6277 14.5778 22.8262 14.5778C22.8262 14.5304 22.8262 14.4829 22.8262 14.4355C24.3906 14.4355 25.9551 14.4355 27.5195 14.4355C27.5724 13.9922 27.5724 13.5656 27.5195 13.1555C25.9579 13.0135 24.3935 12.9661 22.8262 13.0133Z" fill="#191717"/>
<path fill-rule="evenodd" clip-rule="evenodd" d="M0.63925 12.4453C0.629987 12.8618 0.535172 13.241 0.354806 13.5831C0.325478 13.1571 0.420293 12.7779 0.63925 12.4453Z" fill="#D48887"/>
<path fill-rule="evenodd" clip-rule="evenodd" d="M14.4361 14.152C14.2515 14.0644 14.1093 14.0644 14.0094 14.152C13.9322 14.1434 13.8848 14.096 13.8672 14.0097C14.1146 13.8235 14.3042 13.871 14.4361 14.152Z" fill="#787878"/>
<path fill-rule="evenodd" clip-rule="evenodd" d="M21.2617 13.7246C21.4675 13.8148 21.5622 13.9807 21.5462 14.2224C21.5422 14.3746 21.4948 14.493 21.4039 14.5779C21.4015 14.2843 21.3542 13.9998 21.2617 13.7246Z" fill="#5E5E5E"/>
<path fill-rule="evenodd" clip-rule="evenodd" d="M4.05398 12.8711C5.76064 12.8711 7.46731 12.8711 9.17398 12.8711C9.17398 13.44 9.17398 14.0089 9.17398 14.5778C7.37249 14.5778 5.57102 14.5778 3.76953 14.5778C3.76953 14.5304 3.76953 14.4829 3.76953 14.4355C5.5236 14.4355 7.27768 14.4355 9.03175 14.4355C9.03175 13.9615 9.03175 13.4874 9.03175 13.0133C7.34709 13.06 5.68782 13.0126 4.05398 12.8711Z" fill="#303030"/>
<path fill-rule="evenodd" clip-rule="evenodd" d="M0.354895 13.582C0.19006 15.1924 0.19006 16.8042 0.354895 18.4176C0.141542 17.5984 0.0467272 16.7451 0.070451 15.8576C0.0386273 15.0614 0.133442 14.303 0.354895 13.582Z" fill="#E3C9C3"/>
<path fill-rule="evenodd" clip-rule="evenodd" d="M3.76849 14.7205C5.49766 14.707 7.25173 14.7307 9.03071 14.7916C9.22847 14.9366 9.44181 15.0551 9.67071 15.1471C9.7409 15.3795 9.76461 15.6166 9.74182 15.8582C7.95645 16.035 6.17867 16.035 4.40849 15.8582C4.31947 16.2125 4.20095 16.2125 4.05294 15.8582C3.96959 15.888 3.89848 15.9355 3.8396 16.0005C3.76878 15.5764 3.74508 15.1497 3.76849 14.7205Z" fill="#FDFDFD"/>
<path fill-rule="evenodd" clip-rule="evenodd" d="M22.2574 15.0039C22.3523 15.1461 22.447 15.2884 22.5419 15.4306C22.6642 15.6849 22.8064 15.922 22.9686 16.1417C22.9889 16.3923 22.9414 16.6294 22.8263 16.8528C22.4374 17.1402 22.0582 17.4247 21.6886 17.7061C21.0427 18.0173 20.4027 18.3491 19.7686 18.7017C19.4326 18.4359 19.1718 18.1041 18.9863 17.7061C19.7119 16.8623 20.5179 16.0801 21.4041 15.3595C21.6483 15.1377 21.9327 15.0193 22.2574 15.0039Z" fill="#0D0D0D"/>
<path fill-rule="evenodd" clip-rule="evenodd" d="M14.1518 10.3102C14.2467 10.3102 14.3414 10.3102 14.4363 10.3102C14.2761 10.5034 14.2761 10.693 14.4363 10.8791C14.9266 11.2979 15.4719 11.6297 16.0718 11.8746C16.5478 11.5642 16.9509 11.185 17.2807 10.7369C17.2426 10.9643 17.2901 11.1539 17.4229 11.3057C17.1281 11.5701 16.9385 11.9019 16.854 12.3013C17.0827 12.6658 17.3909 12.9502 17.7785 13.1546C17.8049 13.496 17.876 13.8279 17.9918 14.1502C18.6213 13.5671 19.2375 12.9982 19.8407 12.4435C20.1573 12.5272 20.4891 12.5746 20.8363 12.5857C20.8363 12.728 20.8363 12.8702 20.8363 13.0124C20.646 12.783 20.4089 12.7119 20.1251 12.7991C19.1474 13.8734 18.1518 14.9401 17.1385 15.9991C17.0065 16.1794 16.9827 16.369 17.0674 16.568C17.4932 16.9628 17.991 17.1286 18.5607 17.0657C19.5784 16.3083 20.5266 15.4787 21.4051 14.5769C21.374 14.744 21.4214 14.8862 21.5474 15.0035C21.7792 14.6677 22.0163 14.6677 22.2585 15.0035C21.9338 15.0189 21.6493 15.1374 21.4051 15.3591C20.519 16.0797 19.713 16.8619 18.9874 17.7057C19.1728 18.1037 19.4337 18.4355 19.7696 18.7013C20.4038 18.3487 21.0438 18.0169 21.6896 17.7057C21.6463 17.7982 21.599 17.8931 21.5474 17.9902C21.7041 18.0863 21.8463 18.1811 21.974 18.2746C21.7192 18.2556 21.4822 18.3029 21.2629 18.4169C21.0457 18.4065 20.9035 18.5013 20.8363 18.7013C20.5359 18.835 20.2514 19.0008 19.9829 19.1991C19.7933 19.2939 19.6036 19.2939 19.414 19.1991C18.4734 17.9016 17.2407 17.0245 15.7163 16.568C16.227 18.1163 16.7959 19.6334 17.4229 21.1191C17.458 21.4544 17.3633 21.7389 17.1385 21.9724C16.9897 22.4315 16.895 22.9055 16.854 23.3946C16.6454 23.7869 16.5507 23.7395 16.5696 23.2524C16.5861 22.7745 16.6334 22.3005 16.7118 21.8302C16.5447 21.8613 16.4025 21.814 16.2851 21.688C16.4844 21.5428 16.6741 21.4005 16.854 21.2613C16.994 20.9629 16.9466 20.6785 16.7118 20.408C16.1758 18.9929 15.6069 17.5706 15.0051 16.1413C14.3892 15.881 13.8202 15.5492 13.2985 15.1457C13.5182 15.0104 13.7553 14.963 14.0096 15.0035C14.0096 14.7191 14.0096 14.4346 14.0096 14.1502C14.1095 14.0626 14.2516 14.0626 14.4363 14.1502C14.5965 14.2387 14.7388 14.3571 14.8629 14.5057C15.6129 14.684 16.3713 14.8026 17.1385 14.8613C17.2759 14.3543 17.2759 13.8565 17.1385 13.368C15.8885 12.469 14.5611 11.7342 13.1562 11.1635C13.456 11.0258 13.7878 10.9784 14.1518 11.0213C14.1741 10.826 14.1504 10.6363 14.0807 10.4524C13.9417 10.6335 13.8232 10.6335 13.7251 10.4524C13.8278 10.393 13.8989 10.2982 13.9385 10.168C13.9929 10.247 14.064 10.2944 14.1518 10.3102Z" fill="#DFDFDF"/>
<path fill-rule="evenodd" clip-rule="evenodd" d="M14.7207 15.2887C14.8308 15.1967 14.973 15.1493 15.1474 15.1465C15.7217 15.2103 16.2906 15.3051 16.854 15.4309C16.6845 15.7414 16.4238 15.931 16.0718 15.9998C15.5861 15.8164 15.1357 15.5794 14.7207 15.2887Z" fill="#1B1B1B"/>
<path fill-rule="evenodd" clip-rule="evenodd" d="M22.8274 14.5781C24.6289 14.5781 26.4303 14.5781 28.2319 14.5781C28.3725 15.3568 28.4199 16.1628 28.3741 16.9959C28.2792 17.3752 28.1845 17.7544 28.0896 18.1337C28.0896 17.3752 28.0896 16.6166 28.0896 15.8581C26.6068 15.769 25.1609 15.8638 23.7519 16.1426C23.522 15.9939 23.2849 15.8517 23.0407 15.7159C22.9721 15.8507 22.9484 15.993 22.9696 16.1426C22.8075 15.9228 22.6653 15.6858 22.543 15.4315C23.0756 15.6845 23.2653 15.5422 23.1119 15.0048C24.4842 14.8865 25.859 14.8154 27.2363 14.7915C25.7418 14.7673 24.2722 14.6962 22.8274 14.5781Z" fill="#ECEAEA"/>
<path fill-rule="evenodd" clip-rule="evenodd" d="M31.502 13.1562C31.7163 13.9992 31.8111 14.8763 31.7864 15.7874C31.7863 16.4056 31.7389 16.9982 31.6442 17.5651C31.6393 16.0939 31.592 14.6241 31.502 13.1562Z" fill="#CB7972"/>
<path fill-rule="evenodd" clip-rule="evenodd" d="M3.91175 18.8443C3.88277 18.415 3.83537 17.9884 3.76953 17.5643C3.81693 16.8058 3.86435 16.8058 3.91175 17.5643C4.10138 17.5643 4.29102 17.5643 4.48064 17.5643C4.48064 17.422 4.48064 17.2798 4.48064 17.1376C6.08788 17.0284 7.69973 16.9573 9.3162 16.9243C9.63819 16.8907 9.94634 16.8196 10.2406 16.7109C10.2858 16.9671 10.3806 17.0144 10.5251 16.8532C10.5822 17.0483 10.6533 17.2379 10.7384 17.422C10.4911 17.4354 10.2067 17.4592 9.88509 17.4932C8.85105 17.8764 7.80809 18.2083 6.7562 18.4887C5.95893 18.6763 5.153 18.7949 4.33842 18.8443C4.3612 19.0859 4.3375 19.323 4.26731 19.5554C4.25316 19.2492 4.13464 19.0122 3.91175 18.8443Z" fill="#FCFCFC"/>
<path fill-rule="evenodd" clip-rule="evenodd" d="M20.8348 18.7017C21.052 18.7121 21.1942 18.6172 21.2615 18.4172C21.4808 18.3033 21.7178 18.256 21.9726 18.275C21.6641 20.2842 20.7159 21.8961 19.1282 23.1106C18.8888 24.7921 18.6991 26.4987 18.5593 28.2306C17.595 28.4478 16.647 28.4951 15.7148 28.3728C16.1078 26.7311 16.4871 25.0718 16.8526 23.395C16.8936 22.9059 16.9883 22.4319 17.1371 21.9728C17.367 22.0493 17.6041 22.0967 17.8482 22.115C17.7646 21.7505 17.6223 21.4187 17.4215 21.1195C16.7945 19.6338 16.2256 18.1167 15.7148 16.5684C17.2393 17.0249 18.472 17.902 19.4126 19.1995C19.6022 19.2943 19.7919 19.2943 19.9815 19.1995C20.25 19.0012 20.5345 18.8354 20.8348 18.7017Z" fill="#090808"/>
<path fill-rule="evenodd" clip-rule="evenodd" d="M17.5636 0.0719097C17.5636 0.0245024 17.5636 -0.0229051 17.5636 -0.0703125C22.3517 -0.0703125 27.1398 -0.0703125 31.928 -0.0703125C31.928 10.5964 31.928 21.263 31.928 31.9297C26.2391 31.9297 20.5502 31.9297 14.8613 31.9297C14.8613 31.8823 14.8613 31.8348 14.8613 31.7875C15.9527 31.8111 17.0432 31.7875 18.1324 31.7164C19.1227 31.4723 20.1183 31.259 21.1191 31.0764C21.47 31.0401 21.7544 30.8979 21.9724 30.6497C25.1864 29.2852 27.6989 27.1045 29.5102 24.1075C29.7816 23.9672 29.9238 23.7303 29.9369 23.3964C30.4735 22.3325 30.9002 21.2423 31.2169 20.1252C31.4828 19.6546 31.6251 19.1332 31.6436 18.5608C31.6436 18.229 31.6436 17.897 31.6436 17.5652C31.7383 16.9983 31.7856 16.4057 31.7858 15.7875C31.8105 14.8764 31.7157 13.9993 31.5013 13.1564C30.1541 6.78302 26.3616 2.61116 20.1236 0.640799C20.0641 0.538174 19.9694 0.467063 19.8391 0.427465C19.2688 0.356175 18.6999 0.285064 18.1324 0.214132C17.9805 0.0812288 17.791 0.0338213 17.5636 0.0719097Z" fill="#FDFBFB"/>
<path fill-rule="evenodd" clip-rule="evenodd" d="M11.1647 17.9902C11.1647 18.0851 11.2121 18.1325 11.307 18.1325C11.3179 18.5604 11.1283 18.8686 10.7381 19.0569C9.57133 19.7114 8.38615 20.3277 7.18252 20.9058C6.90681 21.0349 6.76459 21.2483 6.75585 21.5458C6.15407 21.5321 5.68 21.7691 5.33363 22.2569C5.21805 22.0064 5.07582 21.7694 4.90696 21.5458C4.88391 21.2575 4.9076 20.9731 4.97808 20.6925C5.58369 20.1908 6.2711 19.8826 7.0403 19.768C8.43257 19.0681 9.80737 18.4755 11.1647 17.9902Z" fill="#FDFDFC"/>
<path fill-rule="evenodd" clip-rule="evenodd" d="M28.3743 16.9961C28.3978 17.4725 28.374 17.9466 28.3032 18.4183C28.2636 18.5486 28.1925 18.6433 28.0898 18.7028C28.0898 18.5132 28.0898 18.3235 28.0898 18.1339C28.1847 17.7546 28.2794 17.3754 28.3743 16.9961Z" fill="#C95858"/>
<path fill-rule="evenodd" clip-rule="evenodd" d="M3.62725 17.5645C3.67465 17.5645 3.72207 17.5645 3.76947 17.5645C3.8353 17.9886 3.88271 18.4152 3.91169 18.8445C3.91169 18.9867 3.91169 19.1289 3.91169 19.2711C3.67906 18.7435 3.58425 18.1746 3.62725 17.5645Z" fill="#C55952"/>
<path fill-rule="evenodd" clip-rule="evenodd" d="M21.2626 18.4187C21.1953 18.6187 21.0531 18.7136 20.8359 18.7032C20.9032 18.5032 21.0454 18.4084 21.2626 18.4187Z" fill="#676767"/>
<path fill-rule="evenodd" clip-rule="evenodd" d="M11.8751 19.5546C11.97 19.5546 12.0174 19.602 12.0174 19.6968C12.0386 19.8464 12.0149 19.9887 11.9463 20.1235C11.8532 19.9534 11.7821 19.9534 11.7329 20.1235C11.9226 20.5028 11.8277 20.5975 11.4485 20.4079C10.3668 21.5844 9.22903 22.7222 8.03515 23.8213C7.89977 24.041 7.85236 24.2781 7.89293 24.5324C7.70489 24.5082 7.53898 24.5556 7.39515 24.6746C7.20603 24.5207 6.9927 24.4259 6.75515 24.3902C6.75515 24.3428 6.75515 24.2953 6.75515 24.2479C6.79497 23.8537 6.70016 23.4981 6.4707 23.1813C7.07104 22.8668 7.59252 22.4401 8.03515 21.9013C9.18275 21.1671 10.2731 20.3611 11.3063 19.4835C11.5094 19.4011 11.699 19.4249 11.8751 19.5546Z" fill="#FCFCFC"/>
<path fill-rule="evenodd" clip-rule="evenodd" d="M11.3073 18.1328C11.5698 18.5652 11.7595 19.0392 11.8762 19.555C11.7001 19.4253 11.5105 19.4016 11.3073 19.4839C10.2742 20.3616 9.18381 21.1676 8.03621 21.9017C7.59358 22.4406 7.0721 22.8672 6.47176 23.1817C6.70122 23.4986 6.79603 23.8541 6.75621 24.2484C6.21408 23.6401 5.74 22.9765 5.33398 22.2573C5.68035 21.7694 6.15442 21.5325 6.75621 21.5461C6.76494 21.2486 6.90716 21.0353 7.18287 20.9061C8.3865 20.328 9.57168 19.7118 10.7384 19.0573C11.1286 18.869 11.3183 18.5608 11.3073 18.1328Z" fill="#EEEDED"/>
<path fill-rule="evenodd" clip-rule="evenodd" d="M31.6454 18.5605C31.6269 19.133 31.4847 19.6544 31.2188 20.125C31.2542 19.7692 31.3017 19.4136 31.361 19.0583C31.3763 18.8192 31.4712 18.6533 31.6454 18.5605Z" fill="#E6BBB7"/>
<path fill-rule="evenodd" clip-rule="evenodd" d="M27.9459 19.2715C27.9752 19.6974 27.8805 20.0767 27.6614 20.4093C27.6321 19.9833 27.7269 19.604 27.9459 19.2715Z" fill="#CB6666"/>
<path fill-rule="evenodd" clip-rule="evenodd" d="M0.498047 19.2715C0.769656 19.6913 0.911878 20.1655 0.924714 20.6937C0.653105 20.2739 0.510882 19.7997 0.498047 19.2715Z" fill="#E29795"/>
<path fill-rule="evenodd" clip-rule="evenodd" d="M12.5862 20.8349C12.7338 21.0382 12.8286 21.2753 12.8706 21.546C12.8149 21.7848 12.7437 22.0219 12.6573 22.2571C12.4347 22.1773 12.245 22.2722 12.0884 22.5415C12.0304 22.9568 11.8407 23.2888 11.5195 23.5371C11.4451 24.0551 11.2792 24.5292 11.0218 24.9593C10.8795 24.9593 10.7373 24.9593 10.5951 24.9593C10.3483 25.4382 10.1113 25.936 9.88398 26.4526C9.66277 26.3922 9.44943 26.2737 9.24398 26.0971C9.13521 26.107 9.0641 26.1544 9.03065 26.2393C8.52997 26.118 8.1507 25.8336 7.89287 25.386C7.87424 25.2809 7.89795 25.186 7.96398 25.1015C8.17905 25.2092 8.36867 25.3514 8.53287 25.5282C8.92098 24.7849 9.46617 24.2161 10.1684 23.8215C10.196 23.419 10.2908 23.0399 10.4529 22.6838C10.6425 22.6838 10.8321 22.6838 11.0218 22.6838C11.1813 22.189 11.4657 21.7623 11.8751 21.4038C11.9909 21.0815 12.062 20.7495 12.0884 20.4082C12.2362 20.5803 12.4021 20.7225 12.5862 20.8349Z" fill="#FBF9F9"/>
<path fill-rule="evenodd" clip-rule="evenodd" d="M16.7109 20.4082C16.9457 20.6787 16.9931 20.9632 16.8532 21.2615C16.7607 20.9863 16.7134 20.7019 16.7109 20.4082Z" fill="#4C4C4C"/>
<path fill-rule="evenodd" clip-rule="evenodd" d="M-0.0703125 -0.0703125C4.71784 -0.0703125 9.50598 -0.0703125 14.2941 -0.0703125C13.7584 0.014619 13.2369 0.156841 12.7297 0.356354C12.1174 0.460899 11.5485 0.650529 11.023 0.925243C10.1256 1.06674 9.3197 1.39859 8.60524 1.9208C6.01304 3.18558 4.02193 5.08187 2.63191 7.60969C2.29099 7.91719 2.05395 8.29645 1.9208 8.74747C1.23482 9.87405 0.808152 11.1066 0.640799 12.4452C0.421842 12.7778 0.327027 13.1571 0.356354 13.583C0.134901 14.3039 0.0400861 15.0624 0.0719097 15.8586C0.0481859 16.746 0.143001 17.5994 0.356354 18.4186C0.476021 18.6858 0.523428 18.9703 0.498576 19.2719C0.511412 19.8001 0.653634 20.2743 0.925243 20.6941C1.01197 20.8209 1.05938 20.9631 1.06747 21.1208C1.05354 21.4128 1.14835 21.6499 1.35191 21.8319C3.00108 25.7666 5.7507 28.6822 9.6008 30.5786C10.5198 31.0193 11.4679 31.3275 12.4452 31.503C13.1639 31.7533 13.9224 31.8482 14.7208 31.7875C14.7682 31.7875 14.8157 31.7875 14.863 31.7875C14.863 31.8348 14.863 31.8823 14.863 31.9297C9.88524 31.9297 4.90747 31.9297 -0.0703125 31.9297C-0.0703125 21.263 -0.0703125 10.5964 -0.0703125 -0.0703125Z" fill="#FDFCFC"/>
<path fill-rule="evenodd" clip-rule="evenodd" d="M1.06579 21.1191C1.30945 21.2806 1.40426 21.5176 1.35024 21.8303C1.14668 21.6482 1.05186 21.4111 1.06579 21.1191Z" fill="#C96461"/>
<path fill-rule="evenodd" clip-rule="evenodd" d="M17.4231 21.1191C17.6239 21.4184 17.7662 21.7502 17.8498 22.1147C17.6057 22.0963 17.3686 22.049 17.1387 21.9725C17.3635 21.7389 17.4582 21.4545 17.4231 21.1191Z" fill="#A6A6A6"/>
<path fill-rule="evenodd" clip-rule="evenodd" d="M28.0898 18.1326C28.0898 18.3222 28.0898 18.5119 28.0898 18.7015C27.9569 18.8534 27.9094 19.043 27.9475 19.2704C27.7285 19.6029 27.6338 19.9822 27.6631 20.4082C27.0762 21.5808 26.4125 22.7186 25.672 23.8215C25.3875 24.0111 25.1505 24.2482 24.9609 24.5326C23.822 25.8122 22.4471 26.7604 20.8364 27.3771C20.195 26.5502 19.7683 25.602 19.5564 24.5326C19.4616 24.4853 19.3669 24.4378 19.272 24.3904C19.132 23.974 19.0847 23.5473 19.1298 23.1104C20.7175 21.896 21.6657 20.284 21.9742 18.2748C21.8465 18.1813 21.7043 18.0865 21.5475 17.9904C21.5992 17.8933 21.6465 17.7984 21.6898 17.706C22.0594 17.4245 22.4386 17.1401 22.8275 16.8526C22.9426 16.6292 22.9901 16.3921 22.9698 16.1415C22.9486 15.9919 22.9722 15.8497 23.0409 15.7148C23.2851 15.8507 23.5222 15.9929 23.752 16.1415C25.161 15.8628 26.607 15.7679 28.0898 15.8571C28.0898 16.6155 28.0898 17.3742 28.0898 18.1326Z" fill="#F4F4F4"/>
<path fill-rule="evenodd" clip-rule="evenodd" d="M12.0181 19.6973C12.2049 20.071 12.3946 20.4503 12.587 20.835C12.4029 20.7227 12.237 20.5805 12.0892 20.4084C12.0628 20.7497 11.9917 21.0817 11.8759 21.4039C11.4665 21.7625 11.1821 22.1891 11.0225 22.6839C10.8329 22.6839 10.6433 22.6839 10.4536 22.6839C10.2916 23.0401 10.1968 23.4192 10.1692 23.8217C9.46694 24.2162 8.92175 24.7851 8.53364 25.5284C8.36944 25.3516 8.17982 25.2094 7.96475 25.1017C7.89871 25.1862 7.87501 25.2811 7.89364 25.3862C7.52079 25.0616 7.14152 24.7298 6.75586 24.3906C6.99341 24.4263 7.20675 24.5212 7.39586 24.675C7.53969 24.556 7.70561 24.5086 7.89364 24.5328C7.85308 24.2785 7.90048 24.0414 8.03586 23.8217C9.22974 22.7226 10.3675 21.5848 11.4492 20.4084C11.8285 20.598 11.9233 20.5032 11.7336 20.1239C11.7828 19.9538 11.8539 19.9538 11.947 20.1239C12.0156 19.9891 12.0393 19.8469 12.0181 19.6973Z" fill="#EEEDED"/>
<path fill-rule="evenodd" clip-rule="evenodd" d="M12.7293 22.9688C12.676 23.2814 12.5812 23.5658 12.4449 23.8221C12.3814 23.4651 12.4762 23.1807 12.7293 22.9688Z" fill="#838383"/>
<path fill-rule="evenodd" clip-rule="evenodd" d="M29.9384 23.3965C29.9253 23.7304 29.7831 23.9674 29.5117 24.1076C29.5473 23.7984 29.6895 23.5613 29.9384 23.3965Z" fill="#DEA6A6"/>
<path fill-rule="evenodd" clip-rule="evenodd" d="M25.672 23.8223C25.5772 24.2016 25.3402 24.4385 24.9609 24.5334C25.1505 24.2489 25.3876 24.0118 25.672 23.8223Z" fill="#CD6965"/>
<path fill-rule="evenodd" clip-rule="evenodd" d="M12.8713 21.5469C12.9561 21.5803 13.0035 21.6514 13.0135 21.7602C12.8447 22.1476 12.7499 22.5505 12.729 22.9691C12.4759 23.181 12.3811 23.4655 12.4446 23.8224C12.0815 25.0775 11.7497 26.3575 11.449 27.6624C10.5419 27.3458 9.73593 26.8718 9.03125 26.2402C9.0647 26.1553 9.13581 26.1079 9.24458 26.098C9.45004 26.2746 9.66337 26.3931 9.88458 26.4535C10.1119 25.9368 10.3489 25.4391 10.5957 24.9602C10.7379 24.9602 10.8801 24.9602 11.0224 24.9602C11.2798 24.5301 11.4457 24.056 11.5201 23.538C11.8413 23.2897 12.031 22.9577 12.089 22.5424C12.2456 22.2731 12.4353 22.1782 12.6579 22.258C12.7443 22.0228 12.8155 21.7857 12.8713 21.5469Z" fill="#ECEBEA"/>
<path fill-rule="evenodd" clip-rule="evenodd" d="M19.1294 23.1113C19.0844 23.5482 19.1317 23.9749 19.2717 24.3913C19.3665 24.4387 19.4612 24.4862 19.5561 24.5336C19.768 25.6029 20.1947 26.5511 20.8361 27.378C20.7688 27.578 20.6266 27.6728 20.4094 27.6624C19.9768 27.6956 19.5976 27.8378 19.2717 28.0891C19.0276 28.1075 18.7905 28.1548 18.5605 28.2313C18.7004 26.4995 18.8901 24.7928 19.1294 23.1113Z" fill="#E8E7E6"/>
<path fill-rule="evenodd" clip-rule="evenodd" d="M16.5694 23.2539C16.5505 23.741 16.6452 23.7884 16.8539 23.3961C16.4884 25.0729 16.109 26.7322 15.7161 28.3739C15.6212 28.3739 15.5265 28.3739 15.4316 28.3739C15.7246 26.6347 16.1038 24.928 16.5694 23.2539Z" fill="#B9B9B9"/>
<path fill-rule="evenodd" clip-rule="evenodd" d="M20.4093 27.6621C20.0986 27.9586 19.7193 28.1009 19.2715 28.0888C19.5975 27.8375 19.9766 27.6952 20.4093 27.6621Z" fill="#D07475"/>
<path fill-rule="evenodd" clip-rule="evenodd" d="M21.9725 30.6484C21.7544 30.8966 21.47 31.0388 21.1191 31.0751C21.3372 30.8269 21.6216 30.6847 21.9725 30.6484Z" fill="#E8AAA7"/>
<path fill-rule="evenodd" clip-rule="evenodd" d="M12.4453 31.502C13.2347 31.5058 13.9932 31.6007 14.7209 31.7864C13.9225 31.8471 13.164 31.7523 12.4453 31.502Z" fill="#C8766E"/>
</g>
<defs>
<clipPath id="clip0_94_656">
<rect width="32" height="32" fill="white"/>
</clipPath>
</defs>
</svg>
