<svg width="32" height="32" viewBox="0 0 32 32" fill="none" xmlns="http://www.w3.org/2000/svg">
<path d="M3.2 28.8V14.9334C3.2 7.86408 8.93075 2.13333 16 2.13333C23.0692 2.13333 28.8 7.86408 28.8 14.9334C28.8 22.0026 23.0692 27.7334 16 27.7334H14.9333" stroke="#2563EB" stroke-width="2"/>
<path d="M7.46667 28.8V15.104C7.46667 10.2969 11.2872 6.4 16 6.4C20.7129 6.4 24.5333 10.2969 24.5333 15.104C24.5333 19.9111 20.7129 23.808 16 23.808H14.9333" stroke="#2563EB" stroke-width="2"/>
<path d="M16 20.2895C18.9455 20.2895 21.3333 17.9017 21.3333 14.9562C21.3333 12.0107 18.9455 9.62285 16 9.62285C13.0545 9.62285 10.6667 12.0107 10.6667 14.9562C10.6667 17.9017 13.0545 20.2895 16 20.2895Z" fill="#2563EB"/>
</svg>
