<svg width="32" height="32" viewBox="0 0 32 32" fill="none" xmlns="http://www.w3.org/2000/svg">
<rect width="32" height="32" fill="#4338CA"/>
<path d="M15.9879 2.18945C10.1346 2.18945 5.38947 6.93455 5.38947 12.7879V29.1099C5.38947 29.461 5.67394 29.7457 6.02552 29.7457H8.99318C9.34442 29.7457 9.62922 29.461 9.62922 29.1099V21.2673C11.4005 22.5979 13.6023 23.3869 15.9882 23.3869C21.8412 23.3869 26.587 18.6415 26.587 12.7882C26.5866 6.93455 21.8412 2.18945 15.9879 2.18945ZM15.9879 19.1473C12.4759 19.1473 9.6288 16.3002 9.6288 12.7879C9.6288 9.27585 12.4759 6.42887 15.9879 6.42887C19.4999 6.42887 22.3473 9.27585 22.3473 12.7879C22.3473 16.2999 19.4999 19.1473 15.9879 19.1473Z" fill="white"/>
</svg>
