<svg width="32" height="32" viewBox="0 0 32 32" fill="none" xmlns="http://www.w3.org/2000/svg">
    <g clip-path="url(#clip0_1351_413)">
        <path d="M21.1531 15.8878L31.7296 10.5607V21.2151L21.1531 15.8878Z" fill="#3A30E5" />
        <path d="M21.1531 5.32727L31.7296 10.6545L21.1531 15.9817V5.32727Z" fill="#3058E5" />
        <path d="M21.1529 5.32727V15.8882L10.5764 10.561L21.1529 5.32727Z" fill="#4067EE" />
        <path d="M21.2608 5.32718L10.6843 10.6544V0L21.2608 5.32718Z" fill="#476EF9" />
        <path d="M10.5765 10.6543V21.3087L0 15.9815L10.5765 10.6543Z" fill="#624AF6" />
        <path d="M10.5765 0V10.6544L0 5.32718L10.5765 0Z" fill="#4067EE" />
        <path d="M10.5765 21.2156V31.8699L0 26.5428L10.5765 21.2156Z" fill="#7C3AED" />
        <path d="M21.1531 15.8881L31.7296 21.2153L21.1531 26.5424V15.8881Z" fill="#4F46E5" />
        <path d="M0 15.8881L10.5765 21.2153L0 26.5424V15.8881Z" fill="#814AF7" />
        <path d="M0 5.32727L10.5765 10.6545L0 15.9817V5.32727Z" fill="#3058E5" />
        <path d="M21.1529 15.8881V26.5424L10.5764 21.2153L21.1529 15.8881Z" fill="#624AF6" />
        <path d="M21.1531 15.8878L31.7296 10.5607V21.2151L21.1531 15.8878Z" fill="#3A30E5" />
        <path d="M21.1531 5.32727L31.7296 10.6545L21.1531 15.9817V5.32727Z" fill="#3058E5" />
        <path d="M21.1529 5.32727V15.8882L10.5764 10.561L21.1529 5.32727Z" fill="#4067EE" />
        <path d="M21.2608 5.32718L10.6843 10.6544V0L21.2608 5.32718Z" fill="#476EF9" />
        <path d="M10.5765 10.6543V21.3087L0 15.9815L10.5765 10.6543Z" fill="#624AF6" />
        <path d="M10.5765 0V10.6544L0 5.32718L10.5765 0Z" fill="#4067EE" />
        <path d="M10.5765 21.2156V31.8699L0 26.5428L10.5765 21.2156Z" fill="#7C3AED" />
        <path d="M21.1531 15.8881L31.7296 21.2153L21.1531 26.5424V15.8881Z" fill="#4F46E5" />
        <path d="M0 15.8881L10.5765 21.2153L0 26.5424V15.8881Z" fill="#814AF7" />
        <path d="M0 5.32727L10.5765 10.6545L0 15.9817V5.32727Z" fill="#3058E5" />
        <path d="M21.1529 15.8881V26.5424L10.5764 21.2153L21.1529 15.8881Z" fill="#624AF6" />
        <path d="M21.1531 15.8878L31.7296 10.5607V21.2151L21.1531 15.8878Z" fill="#3A30E5" />
        <path d="M21.1531 5.32727L31.7296 10.6545L21.1531 15.9817V5.32727Z" fill="#3058E5" />
        <path d="M21.1529 5.32727V15.8882L10.5764 10.561L21.1529 5.32727Z" fill="#4067EE" />
        <path d="M21.2608 5.32718L10.6843 10.6544V0L21.2608 5.32718Z" fill="#476EF9" />
        <path d="M10.5765 10.6543V21.3087L0 15.9815L10.5765 10.6543Z" fill="#624AF6" />
        <path d="M10.5765 0V10.6544L0 5.32718L10.5765 0Z" fill="#4067EE" />
        <path d="M10.5765 21.2156V31.8699L0 26.5428L10.5765 21.2156Z" fill="#7C3AED" />
        <path d="M21.1531 15.8881L31.7296 21.2153L21.1531 26.5424V15.8881Z" fill="#4F46E5" />
        <path d="M0 15.8881L10.5765 21.2153L0 26.5424V15.8881Z" fill="#814AF7" />
        <path d="M0 5.32727L10.5765 10.6545L0 15.9817V5.32727Z" fill="#3058E5" />
        <path d="M21.1529 15.8881V26.5424L10.5764 21.2153L21.1529 15.8881Z" fill="#624AF6" />
    </g>
    <defs>
        <clipPath id="clip0_1351_413">
            <rect width="32" height="32" fill="white" />
        </clipPath>
    </defs>
</svg>