<svg width="32" height="32" viewBox="0 0 32 32" fill="none" xmlns="http://www.w3.org/2000/svg">
<path opacity="0.997" fill-rule="evenodd" clip-rule="evenodd" d="M12.7472 0C14.9262 0 17.1052 0 19.2842 0C29.3717 3.18753 33.4574 10.0447 31.5411 20.5714C29.5456 26.6506 25.4599 30.4601 19.2842 32C17.1052 32 14.9262 32 12.7472 32C5.99226 30.2585 1.7432 26.0136 0 19.2653C0 17.0884 0 14.9116 0 12.7347C1.7432 5.98638 5.99226 1.7415 12.7472 0Z" fill="#0C69E0"/>
<path fill-rule="evenodd" clip-rule="evenodd" d="M14.7091 14.3663C14.8093 15.3085 14.7004 16.1793 14.3823 16.9786C13.4134 15.5386 12.3239 14.1781 11.1138 12.897C9.06855 12.3278 7.87008 13.0897 7.51843 15.1827C8.51604 17.9291 10.0958 18.3101 12.2578 16.3255C13.9001 17.7912 13.6278 18.8252 11.4406 19.4276C10.2132 19.6742 9.01472 19.6198 7.84528 19.2643C7.82567 19.087 7.71673 18.9781 7.51843 18.9378C7.19677 19.8939 7.08783 20.8735 7.19157 21.8765C6.53787 21.8765 5.88417 21.8765 5.23047 21.8765C5.23047 18.067 5.23047 14.2575 5.23047 10.448C6.17631 10.2985 6.99344 10.5162 7.68185 11.101C9.10172 10.3202 10.5726 10.2658 12.0943 10.9378C13.0878 12.0024 13.9594 13.1452 14.7091 14.3663Z" fill="#FAFBFE"/>
<path fill-rule="evenodd" clip-rule="evenodd" d="M26.8026 19.5921C26.1489 19.5921 25.4952 19.5921 24.8414 19.5921C24.9465 17.7877 24.8376 16.0462 24.5146 14.3676C23.7051 12.4971 22.5611 12.2794 21.0827 13.7146C20.9194 15.7798 20.8649 17.8478 20.9192 19.9187C20.1566 19.9187 19.3939 19.9187 18.6313 19.9187C18.6856 17.7391 18.6311 15.5622 18.4679 13.388C17.5288 12.539 16.6027 12.539 15.6896 13.388C15.0359 12.5173 14.3822 11.6466 13.7285 10.7758C15.352 10.3963 16.9862 10.3419 18.6313 10.6125C19.2305 10.9935 19.7208 11.4833 20.1021 12.0819C20.3745 11.3744 20.8648 10.8846 21.5729 10.6125C23.8232 10.054 25.512 10.7615 26.6391 12.735C26.8024 15.0181 26.8569 17.3038 26.8026 19.5921Z" fill="#F7FAFE"/>
<path fill-rule="evenodd" clip-rule="evenodd" d="M14.7077 14.3672C15.0806 15.3925 15.1351 16.4809 14.8711 17.6325C14.6367 17.4548 14.4733 17.2371 14.3809 16.9794C14.6989 16.1801 14.8079 15.3094 14.7077 14.3672Z" fill="#7AAEEE"/>
<path fill-rule="evenodd" clip-rule="evenodd" d="M24.5137 14.3672C24.8366 16.0457 24.9456 17.7872 24.8405 19.5917C25.4942 19.5917 26.1479 19.5917 26.8016 19.5917C26.1128 19.9078 25.3502 20.0167 24.5137 19.9182C24.5137 18.0679 24.5137 16.2175 24.5137 14.3672Z" fill="#A9C9F3"/>
<path fill-rule="evenodd" clip-rule="evenodd" d="M7.844 19.266C7.62609 20.1367 7.40821 21.0075 7.1903 21.8782C7.08655 20.8752 7.19549 19.8956 7.51715 18.9395C7.71545 18.9798 7.82439 19.0886 7.844 19.266Z" fill="#9CC2F2"/>
</svg>
