<svg width="32" height="32" viewBox="0 0 20 11" fill="none" xmlns="http://www.w3.org/2000/svg">
    <path
        d="M5.208 5.428C5.768 5.428 6.212 5.28 6.54 4.984C6.876 4.688 7.044 4.28 7.044 3.76C7.044 3.008 6.852 2.392 6.468 1.912C6.084 1.424 5.524 1.18 4.788 1.18C4.22 1.18 3.704 1.344 3.24 1.672V9.064L5.064 9.592L4.848 10.012H0.756V9.7L1.884 8.812V1.396L0.648 0.987999L0.852 0.568H2.124C2.916 0.568 3.696 0.544 4.464 0.495999C5.024 0.463999 5.44 0.447999 5.712 0.447999C6.264 0.447999 6.752 0.567999 7.176 0.808C7.6 1.04 7.928 1.364 8.16 1.78C8.4 2.188 8.52 2.644 8.52 3.148C8.52 3.7 8.32 4.224 7.92 4.72C7.52 5.208 7.008 5.592 6.384 5.872C5.768 6.152 5.156 6.276 4.548 6.244L3.972 5.824L4.188 5.404H5.22L5.208 5.428ZM18.4601 8.14L18.7841 8.62L16.5761 9.976C16.2481 10.088 15.9321 10.16 15.6281 10.192C15.3241 10.224 14.9961 10.24 14.6441 10.24C13.7721 10.24 13.0001 10.036 12.3281 9.628C11.6561 9.22 11.1321 8.66 10.7561 7.948C10.3881 7.228 10.2041 6.412 10.2041 5.5C10.2041 4.564 10.4841 3.7 11.0441 2.908C11.6041 2.108 12.3001 1.48 13.1321 1.024C13.9721 0.559999 14.7681 0.327999 15.5201 0.327999C15.9681 0.327999 16.4881 0.388 17.0801 0.508C17.6801 0.628 18.1161 0.756 18.3881 0.891999V3.112H18.0761C17.2521 1.88 16.1681 1.264 14.8241 1.264C14.2321 1.264 13.6961 1.424 13.2161 1.744C12.7361 2.056 12.3561 2.492 12.0761 3.052C11.8041 3.604 11.6681 4.228 11.6681 4.924C11.6681 5.716 11.8001 6.444 12.0641 7.108C12.3361 7.772 12.7441 8.304 13.2881 8.704C13.8321 9.096 14.5081 9.292 15.3161 9.292C15.3561 9.292 15.4801 9.296 15.6881 9.304C15.8961 9.304 16.1201 9.276 16.3601 9.22C16.6081 9.164 16.8561 9.076 17.1041 8.956V6.076L15.2681 5.548L15.4721 5.128H19.6001V5.44L18.4601 6.316V8.14Z"
        fill="black" />
</svg>