<svg width="32" height="32" viewBox="0 0 33 33" fill="none" xmlns="http://www.w3.org/2000/svg">
    <path fill-rule="evenodd" clip-rule="evenodd"
        d="M13.2582 12.0993C12.8548 11.6796 12.048 11.5597 11.4833 11.8595C11.0799 12.0394 10.8379 12.3391 10.7572 12.6988C11.806 12.8187 12.6934 12.5789 13.2582 12.0993ZM10.1925 10.2408L13.9842 10.7804C13.9842 10.7204 13.9842 10.6604 14.0649 10.5405C14.3876 8.4422 12.29 3.10643 8.74029 1.78747C5.27121 0.468512 2.20552 3.04647 1.72146 5.44458C1.31808 7.84268 4.70648 10.7204 8.17556 12.0394C8.49826 12.1593 8.82097 12.2792 9.14367 12.3391L10.1925 10.2408ZM32.0557 24.7493L32.7818 25.6486C33.1852 26.1882 32.9432 26.8476 32.2171 27.2074L25.6016 30.0251L18.9862 32.8429C18.2601 33.1427 17.3727 32.9628 16.8886 32.4232L16.4045 31.7638L18.1794 26.8476C18.8248 27.0275 19.3089 27.2074 19.7123 27.3273C20.1156 27.4472 20.519 27.5671 20.9224 27.627C23.8267 28.2265 26.4891 27.9867 28.8287 27.0275C30.1195 26.4879 31.249 25.7085 32.0557 24.7493ZM26.4084 17.4351L26.9731 18.0946C27.4572 18.9339 27.5379 19.8931 27.1345 20.9723C26.7311 22.1114 26.005 22.9507 24.8755 23.5502C23.8267 24.1498 22.6166 24.3296 21.4065 24.0898C21.0838 24.0299 20.8417 23.9699 20.519 23.85C20.1156 23.7301 19.7929 23.6102 19.4702 23.4303L21.9712 16.3559H23.4234C23.8267 16.3559 24.1495 16.4159 24.4722 16.4758C25.2789 16.6557 25.9243 16.9555 26.4084 17.4351ZM8.65962 1.30785C12.3707 2.5069 14.7103 7.66282 14.3876 10.3007C14.3876 10.4806 14.307 10.6604 14.307 10.8403L20.8417 11.7396C21.8098 11.8595 22.2132 12.2192 22.8586 13.0586L16.8079 11.8595L11.7253 25.9484L7.12677 20.073C6.32001 19.0538 6.07798 18.5742 6.48136 17.8548L8.82097 12.8787C9.54706 12.9986 10.1925 13.1185 10.7572 13.1185C10.7572 13.1785 10.8379 13.2384 10.8379 13.2384C11.2413 13.718 12.048 13.8979 12.7741 13.5981C13.3388 13.3583 13.6615 12.8187 13.4195 12.3391C12.3707 13.1785 10.6765 13.2984 8.25624 12.519C4.46445 11.3199 0.672669 8.4422 0.995374 5.44458C1.31808 2.44695 4.94851 0.108797 8.65962 1.30785Z"
        fill="#76BB42" />
</svg>