<svg width="32" height="32" viewBox="0 0 32 32" fill="none" xmlns="http://www.w3.org/2000/svg">
<path d="M21.9215 8.96289C21.0689 8.96897 20.204 9.14112 19.3716 9.50162C16.8157 10.6034 15.321 13.1371 15.4121 15.7619C15.4405 16.5558 15.6147 17.3578 15.9489 18.1295C17.3868 21.4571 21.2491 22.9902 24.5767 21.5523C24.9575 21.3882 25.3099 21.1918 25.64 20.971C26.4015 20.4626 27.0273 19.8085 27.5033 19.0672C27.7099 18.7371 27.9205 18.3705 28.1251 17.9654C28.3478 17.5239 28.5321 17.1026 28.684 16.7138C28.0157 16.7138 27.3494 16.7138 26.681 16.7138C26.0795 16.7138 25.5306 17.052 25.2633 17.5907L25.2289 17.6576C24.9494 18.093 24.5787 18.4758 24.1311 18.7735C23.9367 18.9031 23.7261 19.0166 23.5013 19.1118C21.5327 19.9482 19.24 19.0348 18.3772 17.0723C18.1767 16.6166 18.0714 16.1426 18.0532 15.6768C17.9924 14.1315 18.8714 12.6449 20.3823 12.0029C20.8744 11.7923 21.3868 11.693 21.8932 11.693C22.278 11.6991 29.5104 11.7355 29.5104 11.7355C30.0289 11.7315 30.5008 11.4358 30.7316 10.974L31.7058 9.0277C31.7038 9.0277 21.9924 8.96492 21.9215 8.96289Z" fill="#079AC4"/>
<path d="M16.357 11.2882C15.8203 10.6401 15.1844 10.1216 14.4897 9.73677C12.193 8.46285 9.25832 8.64513 7.11553 10.4213C6.4168 11.0006 5.86996 11.6912 5.47705 12.4487C5.44464 12.5115 0.203125 22.9378 0.203125 22.9378L2.37831 22.954C2.8968 22.958 3.37275 22.6704 3.61173 22.2107L4.10591 21.2608C4.10591 21.2608 7.7211 14.0669 7.91958 13.6598C8.15047 13.2102 8.47047 12.7991 8.88161 12.4547C10.1393 11.3996 11.8649 11.2902 13.2138 12.0477C13.6208 12.2765 13.9955 12.5844 14.3095 12.9692C15.6664 14.6279 15.4396 17.0866 13.8011 18.4598C13.6148 18.6178 13.4163 18.7515 13.2138 18.8669C12.7439 19.1322 12.2355 19.2882 11.7211 19.3388L9.63705 19.3246C9.11249 19.3206 8.63249 19.6142 8.39553 20.0821L7.7292 21.4006H7.72718L7.45173 21.9778L11.9459 22.0102C12.8208 21.9231 13.6877 21.6618 14.4877 21.2142C14.834 21.0198 15.1702 20.795 15.4882 20.5297C18.2811 18.2188 18.6679 14.0811 16.357 11.2882Z" fill="#079AC4"/>
<path d="M23.1992 8.9707L21.8301 11.6927C21.8888 11.6907 29.506 11.7353 29.506 11.7353C30.0245 11.7312 30.4964 11.4355 30.7273 10.9737L31.7015 9.02741C31.7035 9.02741 23.8554 8.9707 23.1992 8.9707Z" fill="#5EC0D6"/>
<path d="M25.5605 11.7164C27.2659 11.7245 29.5079 11.7326 29.5079 11.7326C30.0264 11.7285 30.4983 11.4328 30.7292 10.9711L31.7033 9.02474C31.7033 9.02474 29.5464 9.00651 26.9276 8.98828L25.5605 11.7164Z" fill="#F1563C"/>
<path d="M3.61376 22.2106L4.10793 21.2607C4.10793 21.2607 6.02996 17.4369 7.14794 15.207H4.08971C2.52819 18.3139 0.203125 22.9377 0.203125 22.9377L2.37831 22.9539C2.8968 22.9579 3.37477 22.6703 3.61376 22.2106Z" fill="#5EC0D6"/>
<path d="M7.47135 21.9395L7.45312 21.9779H7.47135V21.9395Z" fill="#5EC0D6"/>
<path d="M2.38034 22.9548C2.89882 22.9588 3.37477 22.6712 3.61376 22.2115L4.10793 21.2616C4.10793 21.2616 4.71958 20.0424 5.45477 18.5801H2.39452C1.24211 20.8768 0.203125 22.9386 0.203125 22.9386L2.38034 22.9548Z" fill="#F1563C"/>
</svg>
