<svg width="32" height="32" viewBox="0 0 32 32" fill="none" xmlns="http://www.w3.org/2000/svg">
<path d="M30.7415 15.5122C30.6985 19.5545 29.4944 22.7798 27.0861 25.5321C26.656 26.0482 26.1399 26.5212 25.624 26.9513C25.1509 27.3814 24.4629 27.3814 24.0758 26.9513C23.6887 26.4783 23.7747 25.8332 24.2908 25.4031C25.366 24.5001 26.2261 23.468 26.9141 22.2639C27.9462 20.5007 28.5482 18.6085 28.6342 16.5442C28.8063 12.9749 27.6882 9.92159 25.3229 7.29833C24.9789 6.9543 24.5919 6.61026 24.2479 6.26623C23.7747 5.83618 23.6887 5.1481 24.0758 4.71807C24.4629 4.24502 25.1079 4.24502 25.624 4.71807C28.3762 7.0833 30.0103 10.0936 30.6125 13.663C30.6985 14.3941 30.6985 15.1251 30.7415 15.5122Z" fill="#3B43FF"/>
<path d="M1.45508 15.8541C1.54109 11.3816 3.21826 7.64023 6.6156 4.67293C7.08865 4.24289 7.77672 4.28589 8.12075 4.71594C8.50779 5.14597 8.42178 5.83405 7.94874 6.22109C5.6265 8.24229 4.16436 10.7365 3.69131 13.7899C3.04623 17.7892 4.12135 21.3156 6.83063 24.3259C7.17466 24.713 7.60471 25.1 7.99175 25.444C8.4648 25.8741 8.50779 26.5191 8.12075 26.9492C7.73371 27.3793 7.08865 27.3793 6.6156 26.9922C3.6053 24.4119 1.88513 21.1006 1.54109 17.1442C1.54109 16.9291 1.49809 16.7141 1.49809 16.4992C1.45508 16.2842 1.45508 16.069 1.45508 15.8541Z" fill="#3B43FF"/>
<path d="M5.62891 15.8117C5.71493 12.6295 6.87603 9.96319 9.32729 7.85597C9.84334 7.42594 10.4024 7.46893 10.8324 7.94198C11.2195 8.37203 11.1765 8.93108 10.6604 9.40413C9.49931 10.4792 8.55321 11.7263 8.08016 13.2746C7.17707 16.4139 7.82213 19.2091 10.0584 21.6174C10.2734 21.8754 10.5314 22.0904 10.7464 22.3485C11.1335 22.7355 11.1765 23.3375 10.8324 23.7246C10.4884 24.1546 9.80034 24.2407 9.4133 23.8536C8.76824 23.2516 8.16617 22.6494 7.60712 21.9614C6.446 20.4132 5.80094 18.6501 5.67192 16.6718C5.67192 16.5428 5.62891 16.4139 5.62891 16.2418C5.62891 16.1128 5.62891 15.9838 5.62891 15.8117Z" fill="#3B43FF"/>
<path d="M26.5719 15.8557C26.4859 18.952 25.3248 21.5752 23.0026 23.6824C22.6584 24.0264 22.2285 24.1985 21.7555 24.0264C21.0673 23.7255 20.8954 22.9514 21.4113 22.3493C22.0135 21.6612 22.7015 21.0162 23.2176 20.2421C25.2817 17.0597 24.8087 12.7163 22.0995 10.0071C21.8845 9.79205 21.6693 9.57703 21.4544 9.362C21.0673 8.97496 21.0244 8.37291 21.3684 7.98587C21.7555 7.55582 22.3575 7.46981 22.8305 7.81384C23.6906 8.50192 24.4216 9.31901 24.9808 10.2651C25.8839 11.7272 26.4429 13.3184 26.5288 15.0386C26.5288 15.2965 26.5288 15.5546 26.5719 15.8557Z" fill="#3B43FF"/>
<path d="M22.3121 15.5985C22.3121 17.7488 21.581 19.2539 20.2049 20.544C19.7318 21.0171 19.0437 21.0171 18.6566 20.544C18.2697 20.114 18.2697 19.4689 18.7857 19.0388C19.6459 18.2218 20.2049 17.2327 20.2479 16.0286C20.2908 14.8675 19.9468 13.8784 19.1727 13.0183C19.0437 12.8462 18.8718 12.7172 18.7428 12.5882C18.3126 12.1582 18.2697 11.5561 18.6566 11.1261C19.0437 10.696 19.6888 10.653 20.1618 11.0831C20.893 11.7281 21.452 12.5022 21.839 13.4054C22.183 14.1793 22.3551 14.9965 22.3121 15.5985Z" fill="#3B43FF"/>
<path d="M12.594 10.7812C13.1961 10.7812 13.4971 10.9963 13.7121 11.4263C13.9271 11.8563 13.7981 12.2865 13.4541 12.5874C12.8951 13.1465 12.422 13.7055 12.164 14.4796C11.6479 16.1138 11.992 17.533 13.1101 18.7801C13.1961 18.9091 13.3251 18.9951 13.4541 19.1241C13.8842 19.5971 13.9271 20.1992 13.4971 20.6293C13.1101 21.0163 12.465 21.0593 12.035 20.6722C10.9599 19.7262 10.2288 18.6081 10.0138 17.1889C9.58374 14.8667 10.2288 12.8454 11.949 11.2543C12.164 10.9533 12.465 10.8673 12.594 10.7812Z" fill="#3B43FF"/>
<path d="M16.0369 17.8784C14.8758 17.8784 13.9727 16.9753 13.9727 15.8141C13.9727 14.6531 14.9188 13.75 16.0799 13.75C17.241 13.75 18.1441 14.6531 18.1441 15.8141C18.1441 17.0184 17.241 17.8784 16.0369 17.8784Z" fill="#3B43FF"/>
</svg>
