<svg width="32" height="32" viewBox="0 0 32 32" fill="none" xmlns="http://www.w3.org/2000/svg">
    <g clip-path="url(#clip0_1031_60)">
        <path fill-rule="evenodd" clip-rule="evenodd"
            d="M-0.0800781 -0.0800781C10.5866 -0.0800781 21.2532 -0.0800781 31.9199 -0.0800781C31.9199 10.5866 31.9199 21.2532 31.9199 31.9199C21.2532 31.9199 10.5866 31.9199 -0.0800781 31.9199C-0.0800781 21.2532 -0.0800781 10.5866 -0.0800781 -0.0800781Z"
            fill="#12121C" />
        <path fill-rule="evenodd" clip-rule="evenodd"
            d="M18 3.75999C20.0806 3.73334 22.1606 3.76001 24.24 3.83999C27.7792 4.39356 29.6458 6.47356 29.84 10.08C29.3494 15.2213 26.6294 18.528 21.68 20C19.7578 20.0267 17.8378 20.1067 15.92 20.24C15.4436 21.9853 15.0436 23.7453 14.72 25.52C14.3763 27.359 13.2829 28.239 11.44 28.16C10.4956 27.8288 10.0156 27.1621 10 26.16C11.2226 20.2334 12.476 14.3134 13.76 8.39999C14.4353 6.15246 15.8486 4.6058 18 3.75999Z"
            fill="#FAFAFA" />
        <path fill-rule="evenodd" clip-rule="evenodd"
            d="M10.1598 6.47998C11.7918 6.48936 12.3518 7.28936 11.8398 8.87998C10.766 13.5556 9.75264 18.2489 8.79984 22.96C8.27553 23.8574 7.50219 24.1507 6.47984 23.84C6.09774 23.471 5.93774 23.0177 5.99984 22.48C6.9631 17.5065 8.0031 12.5465 9.11984 7.59998C9.39089 7.14276 9.73755 6.76942 10.1598 6.47998Z"
            fill="#F8F8F8" />
        <path fill-rule="evenodd" clip-rule="evenodd"
            d="M5.04014 8.23993C6.57535 8.00996 7.13535 8.64996 6.72014 10.1599C6.00953 13.3039 5.3162 16.4506 4.64014 19.5999C4.15612 20.3073 3.48945 20.5473 2.64014 20.3199C2.21863 19.8337 2.08529 19.2737 2.24014 18.6399C2.92116 15.6614 3.56116 12.6748 4.16014 9.67993C4.29407 9.09474 4.5874 8.61474 5.04014 8.23993Z"
            fill="#F7F7F7" />
        <path fill-rule="evenodd" clip-rule="evenodd"
            d="M19.6 8.40011C20.8812 8.37349 22.1612 8.40016 23.44 8.48011C24.1976 8.65101 24.7044 9.10434 24.96 9.84011C25.2551 12.2101 24.3751 13.9967 22.32 15.2001C20.5703 15.4251 18.8103 15.5051 17.04 15.4401C17.2332 13.6004 17.5797 11.7871 18.08 10.0001C18.4036 9.27691 18.9103 8.74358 19.6 8.40011Z"
            fill="#14141D" />
    </g>
    <defs>
        <clipPath id="clip0_1031_60">
            <rect width="32" height="32" fill="white" />
        </clipPath>
    </defs>
</svg>