<svg width="32" height="32" viewBox="0 0 32 32" fill="none" xmlns="http://www.w3.org/2000/svg">
<rect width="32" height="32" fill="#F8DCC7"/>
<path d="M16.1235 23.8487C11.9419 23.8487 8.96511 21.9705 7.90198 18.9937C7.54761 18.0724 7.37042 17.0801 7.37042 15.9816C7.37042 14.883 7.54761 13.8907 7.90198 12.9694C8.96511 9.99263 11.9419 8.11444 16.1235 8.11444C20.3051 8.11444 23.3173 9.99263 24.3804 12.9694C24.7348 13.8907 24.912 14.883 24.912 15.9816C24.912 17.0801 24.7348 18.0724 24.3804 18.9937C23.2818 22.0059 20.3051 23.8487 16.1235 23.8487ZM0.0703125 15.9816C0.0703125 17.718 0.318375 19.3127 0.849936 20.7302C2.76356 26.0812 8.32723 29.1643 16.0526 29.1643H31.8931V22.1122L23.0692 24.4157V23.5652C25.2309 23.1045 26.9673 22.4666 28.3494 21.5807C31.0426 19.9505 31.8931 17.5762 31.8931 14.0679C31.8931 5.9882 23.3881 2.79883 16.0172 2.79883C8.25636 2.79883 2.76356 5.91732 0.849936 11.2329C0.318375 12.6504 0.0703125 14.2451 0.0703125 15.9816Z" fill="black"/>
</svg>
