<svg width="32" height="32" viewBox="0 0 33 33" fill="none" xmlns="http://www.w3.org/2000/svg">
    <path fill-rule="evenodd" clip-rule="evenodd"
        d="M23.9477 0.44035C25.0032 1.14302 26.1385 1.65763 27.3536 1.98418C20.142 2.85128 12.876 3.28012 5.55566 3.27071C6.12333 3.09917 6.69096 2.92763 7.25863 2.7561C7.14511 2.58456 7.03156 2.41302 6.91804 2.24149C6.40078 2.4117 5.94667 2.32593 5.55566 1.98418C5.55566 1.64111 5.55566 1.29804 5.55566 0.95496C11.6269 0.442007 17.7576 0.270467 23.9477 0.44035Z"
        fill="#1389FA" />
    <path fill-rule="evenodd" clip-rule="evenodd"
        d="M23.9479 0.440542C28.591 0.330735 31.3725 3.76147 32.2924 10.7327C32.5067 12.9819 32.4499 15.2119 32.1221 17.4227C31.7815 17.4227 31.4409 17.4227 31.1003 17.4227C31.1549 18.2971 31.0981 19.1548 30.93 19.9957C30.3246 21.3128 29.8138 22.6851 29.3973 24.1126C29.2838 24.1126 29.1703 24.1126 29.0568 24.1126C28.2293 23.9148 27.4346 23.5718 26.6726 23.0834C26.7829 24.72 26.3287 25.3203 25.3102 24.8845C24.9437 23.9963 24.8869 23.0528 25.1399 22.0542C25.9272 21.2256 26.7787 20.5394 27.6944 19.9957C27.996 19.5712 28.1096 19.0566 28.035 18.4519C29.4552 14.7661 29.3417 11.1638 27.6944 7.64508C27.2134 6.9728 26.6457 6.54397 25.9914 6.35856C19.5201 6.01547 13.0489 6.01547 6.57758 6.35856C5.66316 6.95602 4.98197 7.89951 4.53402 9.18891C4.23553 9.25628 4.00845 9.08471 3.85284 8.6743C4.21039 8.19633 4.21039 7.8533 3.85284 7.64508C3.85284 7.13047 3.85284 6.61586 3.85284 6.10125C3.51224 6.10125 3.17165 6.10125 2.83105 6.10125C3.17031 3.8733 4.07855 2.501 5.5558 1.98437C5.9468 2.32613 6.40092 2.4119 6.91818 2.24168C7.0317 2.41321 7.14525 2.58475 7.25877 2.75629C6.6911 2.92782 6.12347 3.09936 5.5558 3.2709C12.8761 3.28031 20.1421 2.85147 27.3538 1.98437C26.1387 1.65783 25.0033 1.14322 23.9479 0.440542Z"
        fill="#288CF2" />
    <path fill-rule="evenodd" clip-rule="evenodd"
        d="M5.55577 0.955078C5.55577 1.29815 5.55577 1.64122 5.55577 1.9843C4.07852 2.50093 3.17028 3.87322 2.83103 6.10118C2.49183 6.05703 2.208 6.2286 1.97954 6.61579C0.716859 10.3732 0.433033 14.3186 1.12806 18.4518C-0.616231 10.7473 0.859674 4.91505 5.55577 0.955078Z"
        fill="#4587C9" />
    <path fill-rule="evenodd" clip-rule="evenodd"
        d="M18.158 15.8785C17.4173 15.7847 16.7361 15.4416 16.1144 14.8493C15.5468 15.0208 15.2062 15.5354 15.0926 16.3931C15.572 17.9576 16.0262 19.5014 16.455 21.0246C14.9123 19.5926 14.4014 17.5341 14.9224 14.8493C16.2126 13.4268 17.2911 13.7699 18.158 15.8785Z"
        fill="#4287CC" />
    <path fill-rule="evenodd" clip-rule="evenodd"
        d="M3.85287 7.64502C4.21043 7.85323 4.21043 8.19627 3.85287 8.67424C4.00849 9.08464 4.23556 9.25621 4.53406 9.18885C3.03576 14.1877 3.83046 17.9616 6.91821 20.5103C6.33948 20.5927 5.77181 20.5069 5.21524 20.253C4.70435 19.138 4.19346 18.023 3.68257 16.908C3.60801 17.648 3.43771 18.3341 3.17168 18.9664C2.86302 17.9957 2.52242 17.0522 2.1499 16.1361C2.59037 15.8839 3.04449 15.7981 3.51228 15.8788C3.5795 13.0615 3.35243 10.317 2.83109 7.64502C3.17168 7.64502 3.51228 7.64502 3.85287 7.64502Z"
        fill="#368DE1" />
    <path fill-rule="evenodd" clip-rule="evenodd"
        d="M18.8389 16.9079C18.6118 16.5649 18.3848 16.2218 18.1577 15.8787C17.2908 13.7702 16.2123 13.4271 14.9221 14.8495C14.4011 17.5344 14.912 19.5928 16.4547 21.0248C16.7753 22.1941 17.2294 23.2233 17.8171 24.1125C17.1359 24.1125 16.4547 24.1125 15.7736 24.1125C15.8288 23.0692 15.772 22.04 15.6033 21.0248C14.393 18.9096 14.1092 16.5081 14.7518 13.8203C16.9013 12.6991 18.2637 13.7283 18.8389 16.9079Z"
        fill="#D6EFF7" />
    <path fill-rule="evenodd" clip-rule="evenodd"
        d="M32.1222 17.4224C31.6404 20.0849 30.7321 22.3149 29.3975 24.1123C29.8139 22.6848 30.3248 21.3125 30.9301 19.9954C31.0982 19.1545 31.155 18.2968 31.1004 17.4224C31.441 17.4224 31.7816 17.4224 32.1222 17.4224Z"
        fill="#4F9CCE" />
    <path fill-rule="evenodd" clip-rule="evenodd"
        d="M6.91797 20.5101C9.19143 20.4245 11.4621 20.5103 13.7298 20.7674C14.6842 21.6582 14.9113 22.7731 14.411 24.1124C14.161 23.4908 14.0475 22.8046 14.0704 22.0539C12.0319 21.7576 9.98832 21.5003 7.93975 21.282C7.51826 21.1626 7.17767 20.9053 6.91797 20.5101Z"
        fill="#5198DC" />
    <path fill-rule="evenodd" clip-rule="evenodd"
        d="M2.8309 6.10102C3.1715 6.10102 3.51209 6.10102 3.85268 6.10102C3.85268 6.61563 3.85268 7.13024 3.85268 7.64485C3.51209 7.64485 3.1715 7.64485 2.8309 7.64485C3.35225 10.3168 3.57931 13.0614 3.51209 15.8786C3.0443 15.798 2.59018 15.8838 2.14972 16.1359C2.52224 17.0521 2.86283 17.9955 3.1715 18.9663C3.43752 18.334 3.60782 17.6478 3.68239 16.9078C4.19328 18.0228 4.70417 19.1378 5.21506 20.2528C5.77162 20.5068 6.33929 20.5925 6.91802 20.5101C7.17773 20.9053 7.51832 21.1626 7.93981 21.282C9.98837 21.5003 12.0319 21.7576 14.0705 22.0539C14.0475 22.8046 14.1611 23.4908 14.4111 24.1124C13.7527 24.23 13.185 24.6588 12.7081 25.3989C10.3267 25.656 7.9425 25.7418 5.55565 25.6562C3.38699 24.2651 1.91108 21.8636 1.12793 18.4517C0.43291 14.3184 0.716736 10.3731 1.97942 6.61563C2.20787 6.22843 2.49171 6.05686 2.8309 6.10102Z"
        fill="#1289F9" />
    <path fill-rule="evenodd" clip-rule="evenodd"
        d="M28.0349 18.4517C28.1094 19.0563 27.9959 19.5709 27.6943 19.9955C26.7785 20.5392 25.9271 21.2254 25.1398 22.0539C24.8868 23.0526 24.9436 23.996 25.3101 24.8843C26.3286 25.3201 26.7828 24.7197 26.6725 23.0832C27.4345 23.5715 28.2292 23.9146 29.0566 24.1124C28.4102 25.4741 27.502 26.1603 26.3319 26.1708C25.6936 26.2275 25.1827 25.8845 24.7992 25.1416C24.5721 23.9409 24.5721 22.7401 24.7992 21.5393C25.9624 20.704 27.0409 19.6748 28.0349 18.4517Z"
        fill="#3A89DA" />
    <path fill-rule="evenodd" clip-rule="evenodd"
        d="M14.4111 24.1123C14.4075 24.8932 14.1804 25.4936 13.7299 25.9134C10.9447 26.3369 8.21996 26.2511 5.55566 25.6561C7.94251 25.7417 10.3267 25.6559 12.7081 25.3988C13.1851 24.6588 13.7527 24.2299 14.4111 24.1123Z"
        fill="#2886D5" />
    <path fill-rule="evenodd" clip-rule="evenodd"
        d="M22.5854 25.1416C23.3178 26.3044 24.0558 27.5052 24.7993 28.7439C25.1697 30.3463 24.8858 31.5471 23.9478 32.3461C24.2508 31.1719 24.3076 29.9711 24.1181 28.7439C23.4301 27.6886 22.9192 26.4879 22.5854 25.1416Z"
        fill="#508FCC" />
    <path fill-rule="evenodd" clip-rule="evenodd"
        d="M18.1576 15.8783C18.3847 16.2214 18.6117 16.5645 18.8388 16.9076C20.2559 19.4732 21.5047 22.2178 22.5853 25.1413C22.9191 26.4876 23.4299 27.6883 24.118 28.7436C24.3075 29.9708 24.2507 31.1716 23.9477 32.3459C23.2572 32.4293 22.576 32.3435 21.9042 32.0886C20.4938 29.4408 19.1314 26.782 17.817 24.1121C17.2293 23.2229 16.7752 22.1937 16.4547 21.0244C16.0258 19.5013 15.5717 17.9575 15.0923 16.393C15.2058 15.5353 15.5464 15.0206 16.1141 14.8491C16.7358 15.4415 17.417 15.7846 18.1576 15.8783Z"
        fill="#1E84F3" />
</svg>