<svg width="32" height="32" viewBox="0 0 32 32" fill="none" xmlns="http://www.w3.org/2000/svg">
<rect width="32" height="32" fill="white"/>
<path fill-rule="evenodd" clip-rule="evenodd" d="M10.9141 4.56673C12.0935 4.35692 13.3056 4.32663 14.5504 4.47583C14.3917 4.66583 14.2099 4.81733 14.005 4.93037C13.0531 4.57583 12.0228 4.45461 10.9141 4.56673Z" fill="#616161"/>
<path fill-rule="evenodd" clip-rule="evenodd" d="M19.2773 4.56749C19.9759 4.37854 20.7032 4.37854 21.4592 4.56749C21.2377 4.68774 20.9953 4.80896 20.7319 4.93113C21.1728 5.14009 21.1728 5.26131 20.7319 5.29476C20.2324 5.35174 19.7475 5.29113 19.2773 5.11294C19.3846 4.87678 19.5664 4.72527 19.8228 4.6584C19.6504 4.57062 19.4686 4.54031 19.2773 4.56749Z" fill="#939393"/>
<path fill-rule="evenodd" clip-rule="evenodd" d="M5.64276 4.93076C5.47252 5.19883 5.23008 5.38065 4.91548 5.47621C4.63746 5.63018 4.33443 5.75139 4.00639 5.83985C3.82457 5.77925 3.64276 5.71863 3.46094 5.65803C3.62396 5.62728 3.80577 5.56668 4.00639 5.47621C3.93357 5.12454 3.75176 4.85181 3.46094 4.65803C3.98436 4.48396 4.4389 4.57487 4.82457 4.93076C5.10117 4.46792 5.3739 4.46792 5.64276 4.93076Z" fill="#0A0A0A"/>
<path fill-rule="evenodd" clip-rule="evenodd" d="M10.9151 4.5658C12.0239 4.45367 13.0542 4.57489 14.006 4.92944C13.7637 5.05066 13.5818 5.23247 13.4606 5.47489C12.2226 5.69896 11.0105 5.69896 9.82422 5.47489C10.1879 5.17186 10.5515 4.86884 10.9151 4.5658Z" fill="#121212"/>
<path fill-rule="evenodd" clip-rule="evenodd" d="M19.2766 4.56628C19.4679 4.5391 19.6497 4.56941 19.8221 4.65719C19.5657 4.72406 19.3839 4.87557 19.2766 5.11173C19.7468 5.28992 20.2317 5.35053 20.7312 5.29355C20.7208 5.49519 20.6603 5.67701 20.5494 5.83901C20.4281 5.83901 20.307 5.83901 20.1857 5.83901C19.4217 5.89661 18.6945 5.83599 18.0039 5.65719C18.4281 5.29355 18.8525 4.92992 19.2766 4.56628Z" fill="#0B0B0B"/>
<path fill-rule="evenodd" clip-rule="evenodd" d="M30.913 4.56712C31.2766 4.56712 31.4585 4.74894 31.4585 5.11258C31.5179 6.90309 31.4574 8.66065 31.2766 10.3853C30.9201 9.9374 30.5261 9.51316 30.0948 9.11258C30.0343 8.44591 29.9735 7.77925 29.913 7.11258C29.8434 7.21367 29.7525 7.27427 29.6403 7.2944C29.0095 7.40581 28.6459 7.16338 28.5494 6.56712C28.6099 6.44591 28.6706 6.32471 28.7312 6.20349C28.913 6.14289 29.0343 6.02167 29.0948 5.83985C29.2592 5.71094 29.3197 5.52912 29.2766 5.2944C29.027 5.26591 28.7845 5.29621 28.5494 5.38531C28.9915 5.58303 28.9308 5.67394 28.3675 5.65803C28.3988 5.29589 28.2775 4.99285 28.0039 4.74894C28.9661 4.56807 29.9357 4.50745 30.913 4.56712Z" fill="#111111"/>
<path fill-rule="evenodd" clip-rule="evenodd" d="M20.5508 5.84008C20.6617 5.67808 20.7222 5.49626 20.7326 5.29463C21.1735 5.26117 21.1735 5.13995 20.7326 4.93099C20.9961 4.80883 21.2384 4.68761 21.4599 4.56735C21.8468 4.36206 22.271 4.33175 22.7326 4.47644C22.3084 4.90068 21.8841 5.32493 21.4599 5.74917C21.1628 5.8389 20.8597 5.86921 20.5508 5.84008Z" fill="#4E4E4E"/>
<path fill-rule="evenodd" clip-rule="evenodd" d="M5.64024 4.92983C5.37139 4.46699 5.09866 4.46699 4.82206 4.92983C4.43639 4.57394 3.98184 4.48303 3.45843 4.6571C3.74924 4.85088 3.93106 5.12361 4.00388 5.47528C3.80326 5.56575 3.62144 5.62635 3.45843 5.6571C3.64024 5.7177 3.82206 5.77832 4.00388 5.83892C4.33192 5.75046 4.63495 5.62924 4.91297 5.47528C4.85772 5.59344 4.7971 5.71464 4.73115 5.83892C4.15993 5.96026 3.61448 6.08146 3.09479 6.20255C2.91297 6.20255 2.73115 6.20255 2.54933 6.20255C2.54933 5.96014 2.54933 5.7177 2.54933 5.47528C2.29963 5.44679 2.05719 5.4771 1.82206 5.56619C1.67566 5.92468 1.43324 6.19741 1.09479 6.38437C1.21601 6.44497 1.33721 6.50559 1.45843 6.56619C1.15539 6.68741 0.852371 6.80861 0.549334 6.92983C1.04553 7.2693 0.984916 7.45112 0.367516 7.47528C0.367516 7.83892 0.367516 8.20255 0.367516 8.56619C0.157698 7.38674 0.127407 6.17463 0.276607 4.92983C0.985116 4.51959 1.68208 4.58021 2.36752 5.11164C2.53637 4.8955 2.59697 4.65306 2.54933 4.38437C3.76297 4.35414 4.9751 4.38444 6.1857 4.47528C6.0269 4.66528 5.84508 4.81679 5.64024 4.92983Z" fill="#737373"/>
<path fill-rule="evenodd" clip-rule="evenodd" d="M31.4592 5.11133C31.6997 6.90062 31.6997 8.7188 31.4592 10.5659C31.3488 10.5434 31.2883 10.4828 31.2773 10.3841C31.4581 8.6594 31.5186 6.90184 31.4592 5.11133Z" fill="#878787"/>
<path fill-rule="evenodd" clip-rule="evenodd" d="M9.82244 5.47656C11.0087 5.70064 12.2208 5.70064 13.4588 5.47656C13.3829 5.60776 13.2617 5.69867 13.0952 5.74929C11.9389 5.90031 10.7874 5.87 9.64062 5.65838C9.6631 5.54807 9.7237 5.48747 9.82244 5.47656Z" fill="#818181"/>
<path fill-rule="evenodd" clip-rule="evenodd" d="M27.8242 4.38488C28.8893 4.3263 29.9197 4.3869 30.9151 4.5667C29.9379 4.50702 28.9682 4.56764 28.006 4.74851C28.2797 4.99242 28.4009 5.29546 28.3697 5.6576C28.9329 5.67351 28.9937 5.5826 28.5515 5.38488C28.7866 5.29579 29.0291 5.26548 29.2788 5.29397C29.3219 5.5287 29.2613 5.71051 29.0969 5.83942C28.7939 5.83942 28.4909 5.83942 28.1879 5.83942C28.0666 5.35457 27.9455 4.86973 27.8242 4.38488Z" fill="#727272"/>
<path fill-rule="evenodd" clip-rule="evenodd" d="M18.006 5.6582C18.6966 5.837 19.4239 5.89762 20.1879 5.84002C19.4273 6.0784 18.6395 6.0784 17.8242 5.84002C17.8468 5.72971 17.9073 5.66911 18.006 5.6582Z" fill="#8C8C8C"/>
<path fill-rule="evenodd" clip-rule="evenodd" d="M27.8227 4.38477C27.9439 4.86962 28.065 5.35446 28.1863 5.83931C28.4894 5.83931 28.7923 5.83931 29.0954 5.83931C29.0348 6.02113 28.9136 6.14235 28.7317 6.20295C28.1636 6.02487 27.5576 5.96426 26.9136 6.02113C26.6476 5.18938 26.9507 4.64393 27.8227 4.38477Z" fill="#B3B3B3"/>
<path fill-rule="evenodd" clip-rule="evenodd" d="M3.09446 6.20247C3.09446 6.26307 3.09446 6.32369 3.09446 6.38429C2.71713 6.34822 2.3535 6.31791 2.00355 6.29338C2.3499 6.62343 2.65293 6.98707 2.91264 7.38429C2.67277 7.41974 2.43035 7.38943 2.18537 7.29338C2.06415 7.29338 2.00355 7.23278 2.00355 7.11156C2.02297 6.77 1.93206 6.7094 1.73082 6.92974C1.64017 7.59367 1.60986 8.26034 1.63991 8.92974C1.40519 8.8866 1.22337 8.9472 1.09446 9.11156C0.852042 8.92974 0.609606 8.74793 0.367188 8.56611C0.367188 8.20247 0.367188 7.83883 0.367188 7.4752C0.984588 7.45103 1.04521 7.26922 0.549006 6.92974C0.852042 6.80853 1.15506 6.68733 1.4581 6.56611C1.33688 6.50551 1.21568 6.44489 1.09446 6.38429C1.43291 6.19732 1.67533 5.9246 1.82173 5.56611C2.05686 5.47702 2.2993 5.44671 2.54901 5.4752C2.54901 5.71762 2.54901 5.96005 2.54901 6.20247C2.73082 6.20247 2.91264 6.20247 3.09446 6.20247Z" fill="#1D1D1D"/>
<path fill-rule="evenodd" clip-rule="evenodd" d="M3.09482 6.38583C3.50803 6.46889 3.75045 6.7113 3.82209 7.1131C3.85178 7.54161 3.82147 7.96587 3.73118 8.38583C3.54196 8.05647 3.32985 7.99587 3.09482 8.20401C2.73118 7.96159 2.42814 7.65856 2.18572 7.29492C2.43071 7.39098 2.67312 7.42129 2.913 7.38583C2.65329 6.98861 2.35025 6.62498 2.00391 6.29492C2.35385 6.31945 2.71749 6.34976 3.09482 6.38583Z" fill="#757575"/>
<path fill-rule="evenodd" clip-rule="evenodd" d="M28.5515 6.56641C28.648 7.16266 29.0117 7.4051 29.6424 7.29368C29.4 7.65732 29.0969 7.96035 28.7333 8.20277C28.608 7.71379 28.3049 7.41075 27.8242 7.29368C28.006 6.99064 28.2484 6.74822 28.5515 6.56641Z" fill="#8B8B8B"/>
<path fill-rule="evenodd" clip-rule="evenodd" d="M3.82493 7.11133C4.00675 7.17193 4.12797 7.29315 4.18857 7.47496C4.12617 7.83555 4.24738 8.07798 4.5522 8.20224C4.60115 8.55289 4.51024 8.85593 4.27947 9.11133C4.15046 8.84346 3.93835 8.72226 3.64311 8.74769C3.40069 8.62647 3.21887 8.44466 3.09766 8.20224C3.33269 7.99409 3.5448 8.05469 3.73402 8.38406C3.82431 7.96409 3.85462 7.53984 3.82493 7.11133Z" fill="#BCBCBC"/>
<path fill-rule="evenodd" clip-rule="evenodd" d="M4.18778 7.47656C4.49082 7.65838 4.73323 7.9008 4.91505 8.20384C4.93887 8.33818 4.90856 8.4594 4.82414 8.56747C4.77352 8.40096 4.68262 8.27974 4.55142 8.20384C4.2466 8.07958 4.12538 7.83714 4.18778 7.47656Z" fill="#303030"/>
<path fill-rule="evenodd" clip-rule="evenodd" d="M27.8242 7.29492C28.3049 7.41199 28.608 7.71503 28.7333 8.20401C28.7333 8.32523 28.6728 8.38583 28.5515 8.38583C28.3697 8.38583 28.1879 8.38583 28.006 8.38583C27.9455 8.02219 27.8848 7.65856 27.8242 7.29492Z" fill="#4E4E4E"/>
<path fill-rule="evenodd" clip-rule="evenodd" d="M2.00675 7.11221C1.88557 7.99383 1.76435 8.90292 1.64311 9.83948C1.45686 9.5937 1.27504 9.35128 1.09766 9.11221C1.22657 8.94785 1.40838 8.88725 1.64311 8.93039C1.61306 8.26099 1.64337 7.59432 1.73402 6.93039C1.93526 6.71005 2.02617 6.77065 2.00675 7.11221Z" fill="#616161"/>
<path fill-rule="evenodd" clip-rule="evenodd" d="M4.54972 8.20312C4.68092 8.27903 4.77183 8.40025 4.82244 8.56676C4.90686 8.45869 4.93717 8.33747 4.91335 8.20312C5.59015 8.48398 5.59015 8.75671 4.91335 9.02131C5.14237 9.35109 5.14237 9.68442 4.91335 10.0213C4.42466 9.65383 4.00043 9.2296 3.64062 8.74858C3.93586 8.72314 4.14797 8.84434 4.27699 9.11222C4.50775 8.85682 4.59866 8.55378 4.54972 8.20312Z" fill="#7B7B7B"/>
<path fill-rule="evenodd" clip-rule="evenodd" d="M27.8232 7.29492C27.8837 7.65856 27.9444 8.02219 28.005 8.38583C28.1868 8.38583 28.3686 8.38583 28.5504 8.38583C28.2512 8.80623 27.8875 9.16987 27.4595 9.47674C27.2906 9.26059 27.2301 9.01816 27.2777 8.74947C26.6259 8.88869 26.2622 9.31294 26.1868 10.0222C25.9139 10.2497 25.6108 10.4316 25.2777 10.5676C25.2637 10.3404 25.1424 10.1889 24.9141 10.1131C25.4166 9.52776 25.9621 8.9823 26.5504 8.47674C26.9092 8.38665 27.2728 8.35636 27.6413 8.38583C27.5877 7.97939 27.6484 7.61576 27.8232 7.29492Z" fill="#AEAEAE"/>
<path fill-rule="evenodd" clip-rule="evenodd" d="M26.1879 10.0217C26.3691 10.0163 26.4904 10.1072 26.5515 10.2944C26.4033 10.6545 26.1609 10.9272 25.8242 11.1126C25.7484 10.9992 25.6271 10.9386 25.4606 10.9308C25.0829 11.1921 24.6588 11.3133 24.1879 11.2944C24.0666 11.2944 23.9455 11.2944 23.8242 11.2944C24.1815 10.8377 24.6664 10.5953 25.2788 10.5672C25.6119 10.4311 25.9149 10.2493 26.1879 10.0217Z" fill="#7F7F7F"/>
<path fill-rule="evenodd" clip-rule="evenodd" d="M25.8228 11.1115C25.3952 11.813 24.789 12.2675 24.0046 12.4751C24.2363 12.6528 24.2363 12.8043 24.0046 12.9297C23.7752 12.8558 23.5328 12.7951 23.2773 12.7479C23.6695 12.3114 23.9726 11.8266 24.1864 11.2933C24.6573 11.3122 25.0815 11.191 25.4592 10.9297C25.6257 10.9375 25.747 10.9981 25.8228 11.1115Z" fill="#434343"/>
<path fill-rule="evenodd" clip-rule="evenodd" d="M7.4592 10.748C7.35224 11.2141 7.17042 11.6383 6.91375 12.0208C6.28347 11.4061 6.46529 10.9819 7.4592 10.748Z" fill="#808080"/>
<path fill-rule="evenodd" clip-rule="evenodd" d="M7.45952 10.748C8.00137 11.2288 8.54683 11.7137 9.09588 12.2026C8.8187 12.3251 8.57628 12.5069 8.36861 12.748C8.20757 12.898 8.14697 13.0799 8.18679 13.2935C7.70194 12.9299 7.2777 12.5056 6.91406 12.0208C7.17074 11.6383 7.35255 11.2141 7.45952 10.748Z" fill="#B8B8B8"/>
<path fill-rule="evenodd" clip-rule="evenodd" d="M8.73295 13.839C8.49054 13.7177 8.30872 13.5359 8.1875 13.2935C8.51195 13.0288 8.87559 12.847 9.27841 12.748C9.27841 12.9905 9.27841 13.2329 9.27841 13.4753C8.97317 13.4363 8.79135 13.5575 8.73295 13.839Z" fill="#949494"/>
<path fill-rule="evenodd" clip-rule="evenodd" d="M9.09671 12.2031C9.39015 12.5587 9.69319 12.9224 10.0058 13.294C10.0058 13.4759 10.0058 13.6577 10.0058 13.8395C9.64217 13.9 9.27853 13.9608 8.9149 14.0213C8.79368 14.0213 8.73308 13.9608 8.73308 13.8395C8.79148 13.558 8.9733 13.4368 9.27853 13.4759C9.27853 13.2334 9.27853 12.991 9.27853 12.7486C8.87571 12.8475 8.51208 13.0293 8.18762 13.294C8.1478 13.0804 8.2084 12.8986 8.36944 12.7486C8.57711 12.5075 8.81953 12.3256 9.09671 12.2031Z" fill="#464646"/>
<path fill-rule="evenodd" clip-rule="evenodd" d="M22.1857 12.9297C22.4672 12.9881 22.5885 13.1699 22.5494 13.4751C22.2441 13.5142 22.0623 13.393 22.0039 13.1115C22.0039 12.9903 22.0645 12.9297 22.1857 12.9297Z" fill="#8D8D8D"/>
<path fill-rule="evenodd" clip-rule="evenodd" d="M23.8237 11.2949C23.9449 11.2949 24.066 11.2949 24.1873 11.2949C23.9735 11.8282 23.6704 12.313 23.2782 12.7495C23.5337 12.7967 23.776 12.8574 24.0055 12.9313C23.2782 13.7798 22.4904 14.5676 21.6419 15.2949C21.3175 15.2235 21.0146 15.1024 20.7328 14.9313C20.5804 14.8691 20.5197 14.748 20.5509 14.5676C21.0013 14.4266 21.4255 14.4266 21.8237 14.5676C21.7011 14.2595 21.5799 13.9564 21.46 13.6586C21.5813 13.4161 21.7631 13.2343 22.0055 13.1131C22.0639 13.3946 22.2457 13.5158 22.5509 13.4767C22.59 13.1715 22.4688 12.9897 22.1873 12.9313C22.6722 12.3252 23.2177 11.7798 23.8237 11.2949Z" fill="#1D1D1D"/>
<path fill-rule="evenodd" clip-rule="evenodd" d="M0.549487 13.4766C0.978687 13.7846 1.34232 14.1482 1.6404 14.5675C1.6404 15.0524 1.6404 15.5371 1.6404 16.022C1.0158 15.8655 0.591541 15.5018 0.367668 14.9311C0.311959 14.4066 0.372559 13.9217 0.549487 13.4766Z" fill="#101010"/>
<path fill-rule="evenodd" clip-rule="evenodd" d="M21.4599 13.6582C21.5797 13.956 21.701 14.2591 21.8235 14.5673C21.4253 14.4262 21.0011 14.4262 20.5508 14.5673C20.7931 14.2037 21.0962 13.9006 21.4599 13.6582Z" fill="#636363"/>
<path fill-rule="evenodd" clip-rule="evenodd" d="M10.005 13.2949C10.3432 13.5565 10.6462 13.8595 10.9141 14.204C10.7322 14.204 10.5504 14.204 10.3686 14.204C10.3686 14.3858 10.3686 14.5676 10.3686 14.7495C10.1339 14.7064 9.95206 14.7669 9.82315 14.9313C9.47866 14.6635 9.17564 14.3604 8.91406 14.0222C9.2777 13.9616 9.64134 13.9009 10.005 13.8404C10.005 13.6586 10.005 13.4767 10.005 13.2949Z" fill="#6F6F6F"/>
<path fill-rule="evenodd" clip-rule="evenodd" d="M11.6425 14.9301C11.8243 14.9907 11.9456 15.112 12.0062 15.2938C11.8652 15.637 11.8652 16.0007 12.0062 16.3847C11.6455 16.3634 11.3425 16.4847 11.0971 16.7483C11.1801 16.8934 11.3014 16.954 11.4607 16.9301C9.65233 19.0418 7.71293 21.0418 5.64253 22.9301C5.61424 22.2692 5.40211 22.2087 5.00617 22.7483C4.93626 23.0569 4.96657 23.3598 5.09708 23.6574C4.91526 23.7787 4.73344 23.8998 4.55162 24.021C4.1063 22.4645 4.71237 21.798 6.3698 22.021C6.24859 21.5969 6.12739 21.1725 6.00617 20.7483C7.58193 19.112 9.15768 17.4756 10.7334 15.8392C11.0143 15.7065 11.1659 15.4641 11.188 15.112C11.3099 14.9752 11.4615 14.9145 11.6425 14.9301Z" fill="#111111"/>
<path fill-rule="evenodd" clip-rule="evenodd" d="M10.9151 14.2031C11.2182 14.3849 11.4606 14.6273 11.6424 14.9304C11.4613 14.9148 11.3098 14.9755 11.1879 15.1122C11.1657 15.4644 11.0142 15.7068 10.7333 15.8395C10.3697 15.5971 10.0666 15.294 9.82422 14.9304C9.95313 14.766 10.1349 14.7055 10.3697 14.7486C10.3697 14.5668 10.3697 14.3849 10.3697 14.2031C10.5515 14.2031 10.7333 14.2031 10.9151 14.2031Z" fill="#3A3A3A"/>
<path fill-rule="evenodd" clip-rule="evenodd" d="M20.733 14.9297C21.0148 15.1008 21.3177 15.2219 21.642 15.2933C21.4984 15.5286 21.3166 15.7408 21.0966 15.9297C21.1977 15.9993 21.2582 16.0902 21.2784 16.2024C21.0511 16.2164 20.8997 16.3377 20.8239 16.5661C20.64 16.4139 20.4279 16.3533 20.1875 16.3842C20.1875 16.0811 20.1875 15.7782 20.1875 15.4751C20.3266 15.6861 20.5084 15.8679 20.733 16.0206C20.8093 15.6886 20.8093 15.325 20.733 14.9297Z" fill="#767676"/>
<path fill-rule="evenodd" clip-rule="evenodd" d="M12.0067 15.2949C12.2835 15.4206 12.4653 15.6327 12.5522 15.9313C12.3911 16.3153 12.3911 16.7091 12.5522 17.1131C13.3316 17.2127 13.3922 17.3338 12.734 17.4767C12.1507 17.5335 11.9689 17.3213 12.1886 16.8404C11.9039 16.7013 11.6615 16.7316 11.4613 16.9313C11.3019 16.9551 11.1807 16.8946 11.0977 16.7495C11.3431 16.4858 11.6461 16.3646 12.0067 16.3858C11.8658 16.0018 11.8658 15.6382 12.0067 15.2949Z" fill="#686868"/>
<path fill-rule="evenodd" clip-rule="evenodd" d="M19.2773 15.8398C19.4108 16.0595 19.4713 16.3018 19.4592 16.5671C18.5183 16.7922 18.3364 17.2769 18.9137 18.0217C18.7924 18.264 18.6106 18.4458 18.3683 18.5671C18.3992 18.3268 18.3386 18.1146 18.1864 17.9308C17.8444 17.9482 17.5415 17.9178 17.2773 17.8398C17.8833 17.1126 18.5501 16.4458 19.2773 15.8398Z" fill="#5F5F5F"/>
<path fill-rule="evenodd" clip-rule="evenodd" d="M20.1879 15.4756C20.1879 15.7787 20.1879 16.0816 20.1879 16.3847C20.4283 16.3538 20.6405 16.4144 20.8243 16.5666C20.9001 16.3382 21.0516 16.2169 21.2788 16.2029C21.2788 16.3242 21.3394 16.3847 21.4606 16.3847C21.4606 16.5666 21.4606 16.7484 21.4606 16.9302C21.2183 16.9302 20.9757 16.9302 20.7334 16.9302C20.7334 17.112 20.7334 17.2938 20.7334 17.4756C20.4943 17.2982 20.2519 17.1164 20.0061 16.9302C19.7041 17.3533 19.3405 17.7169 18.9152 18.0211C18.3379 17.2764 18.5197 16.7916 19.4606 16.5666C19.4728 16.3013 19.4123 16.0589 19.2788 15.8393C19.4605 15.3531 19.7636 15.2318 20.1879 15.4756Z" fill="#252525"/>
<path fill-rule="evenodd" clip-rule="evenodd" d="M31.0966 15.6574C31.2559 15.6336 31.3771 15.6941 31.4602 15.8392C31.3619 16.2092 31.2406 16.5728 31.0966 16.9301C30.9542 17.2552 30.7119 17.437 30.3693 17.4756C30.248 17.4756 30.1875 17.415 30.1875 17.2938C30.2662 16.7921 30.5693 16.5498 31.0966 16.5665C31.0966 16.2634 31.0966 15.9605 31.0966 15.6574Z" fill="#4C4C4C"/>
<path fill-rule="evenodd" clip-rule="evenodd" d="M0.550654 13.4767C0.373727 13.9218 0.313127 14.4067 0.368836 14.9313C0.198436 15.7004 0.501472 16.1549 1.27793 16.2949C0.93149 16.4451 0.870872 16.6573 1.09611 16.9313C1.50929 16.7722 1.69111 16.4691 1.64156 16.0222C1.64156 15.5373 1.64156 15.0526 1.64156 14.5676C1.88109 15.6909 1.88109 16.8426 1.64156 18.0222C1.15964 17.6313 0.70509 17.2071 0.277927 16.7495C0.126908 15.5933 0.157217 14.4416 0.368836 13.2949C0.479145 13.3174 0.539745 13.378 0.550654 13.4767Z" fill="#7E7E7E"/>
<path fill-rule="evenodd" clip-rule="evenodd" d="M0.370217 14.9297C0.59409 15.5004 1.01834 15.8641 1.64294 16.0206C1.69249 16.4675 1.51067 16.7706 1.09749 16.9297C0.872253 16.6557 0.932871 16.4435 1.27931 16.2933C0.502853 16.1533 0.199817 15.6988 0.370217 14.9297Z" fill="#434343"/>
<path fill-rule="evenodd" clip-rule="evenodd" d="M21.4616 16.3848C21.9211 16.7675 22.3453 17.1919 22.7344 17.6575C22.1387 17.7706 21.8964 18.1342 22.0071 18.7484C21.5222 18.3848 21.098 17.9606 20.7344 17.4757C20.7344 17.2939 20.7344 17.112 20.7344 16.9302C20.9767 16.9302 21.2193 16.9302 21.4616 16.9302C21.4616 16.7484 21.4616 16.5666 21.4616 16.3848Z" fill="#787878"/>
<path fill-rule="evenodd" clip-rule="evenodd" d="M30.3692 17.4751C30.7117 17.4366 30.9541 17.2548 31.0965 16.9297C31.2405 16.5724 31.3617 16.2088 31.4601 15.8388C31.377 15.6937 31.2557 15.6331 31.0965 15.657C30.2606 15.8564 29.9577 16.4019 30.1874 17.2933C30.0083 16.5417 29.9477 15.7537 30.0056 14.9297C30.1874 14.9297 30.3692 14.9297 30.551 14.9297C30.677 15.6166 30.8892 15.6166 31.1874 14.9297C31.5343 15.1693 31.6859 15.5028 31.6419 15.9297C31.5774 16.6691 31.335 17.3359 30.9146 17.9297C31.1232 18.1626 31.0625 18.2231 30.7328 18.1115C30.4923 17.9631 30.3712 17.751 30.3692 17.4751Z" fill="#949494"/>
<path fill-rule="evenodd" clip-rule="evenodd" d="M31.0966 15.6582C31.0966 15.9613 31.0966 16.2642 31.0966 16.5673C30.5694 16.5506 30.2663 16.7929 30.1875 17.2946C29.9579 16.4031 30.2608 15.8577 31.0966 15.6582Z" fill="#040404"/>
<path fill-rule="evenodd" clip-rule="evenodd" d="M17.2766 17.8398C17.5408 17.9178 17.8437 17.9482 18.1857 17.9308C18.3379 18.1146 18.3985 18.3268 18.3675 18.5671C17.3588 19.6611 16.1468 19.9946 14.7312 19.5671C14.3995 19.4471 14.1572 19.2349 14.0039 18.9308C14.3646 18.7137 14.7283 18.7137 15.0948 18.9308C14.8441 19.1786 14.8743 19.3604 15.1857 19.4762C15.4475 19.3584 15.7203 19.2978 16.0039 19.2944C16.1323 18.8995 16.3141 18.5358 16.5494 18.2035C16.7337 17.99 16.9761 17.8689 17.2766 17.8398Z" fill="#1B1B1B"/>
<path fill-rule="evenodd" clip-rule="evenodd" d="M16.5527 18.2035C16.3174 18.5358 16.1356 18.8995 16.0072 19.2944C15.7236 19.2978 15.4509 19.3584 15.189 19.4762C14.8776 19.3604 14.8474 19.1786 15.0981 18.9308C14.7316 18.7137 14.368 18.7137 14.0072 18.9308C13.5685 18.7162 13.3867 18.3526 13.4618 17.8398C14.0469 17.9649 14.6225 18.1468 15.189 18.3853C15.6367 18.2655 16.0912 18.2048 16.5527 18.2035Z" fill="#9F9F9F"/>
<path fill-rule="evenodd" clip-rule="evenodd" d="M22.7338 17.6582C23.0369 17.84 23.2792 18.0824 23.4611 18.3855C23.2396 18.5057 22.9972 18.6269 22.7338 18.7491C23.0221 19.0533 23.1434 19.4169 23.0974 19.84C22.6732 19.5369 22.3096 19.1733 22.0065 18.7491C21.8958 18.1349 22.1381 17.7713 22.7338 17.6582Z" fill="#2A2A2A"/>
<path fill-rule="evenodd" clip-rule="evenodd" d="M23.4616 18.3848C23.6358 18.4671 23.7875 18.5882 23.9162 18.7484C23.8596 19.0093 23.8898 19.2517 24.0071 19.4757C23.8673 20.0437 23.5642 20.1649 23.098 19.8393C23.144 19.4162 23.0227 19.0526 22.7344 18.7484C22.9978 18.6262 23.2402 18.5049 23.4616 18.3848Z" fill="#A3A3A3"/>
<path fill-rule="evenodd" clip-rule="evenodd" d="M5.64169 22.9305C5.45776 23.1799 5.27594 23.4223 5.09623 23.6577C4.96573 23.3601 4.93542 23.0572 5.00533 22.7486C5.40127 22.209 5.6134 22.2696 5.64169 22.9305Z" fill="#6D6D6D"/>
<path fill-rule="evenodd" clip-rule="evenodd" d="M26.9137 21.8391C26.8732 22.3144 27.0853 22.6175 27.5501 22.7482C27.6992 23.1533 27.6386 23.517 27.3683 23.8391C27.2732 23.5259 27.0913 23.2835 26.8228 23.1119C26.6837 23.1246 26.5928 23.1851 26.5501 23.2937C26.3721 22.7255 26.3113 22.1195 26.3683 21.4755C26.0652 21.4755 25.7623 21.4755 25.4592 21.4755C25.4735 21.2155 25.413 20.973 25.2773 20.7482C25.3683 20.6877 25.4592 20.627 25.5501 20.5664C26.093 20.8973 26.5475 21.3215 26.9137 21.8391Z" fill="#DADADA"/>
<path fill-rule="evenodd" clip-rule="evenodd" d="M30.1879 22.3848C30.2473 23.2419 30.1866 24.0902 30.006 24.9302C29.8957 24.9077 29.8351 24.8471 29.8242 24.7484C29.9359 23.8551 30.0571 23.0673 30.1879 22.3848Z" fill="#474747"/>
<path fill-rule="evenodd" clip-rule="evenodd" d="M30.1879 22.3848C30.6055 22.7109 30.9993 23.0746 31.3697 23.4757C31.4909 24.6879 31.4909 25.8999 31.3697 27.112C30.8064 27.3933 30.2004 27.5146 29.5515 27.4757C29.0624 27.4751 28.6079 27.4146 28.1879 27.2939C28.0153 26.8871 27.894 26.4628 27.8242 26.0211C28.1699 26.0089 28.5031 26.0697 28.8242 26.2029C29.1499 25.9971 29.1197 25.8153 28.7333 25.6575C28.5515 25.4151 28.3697 25.1726 28.1879 24.9302C28.1808 24.7333 28.12 24.5515 28.006 24.3848C28.252 24.1986 28.3733 23.9562 28.3697 23.6575C28.3697 23.5362 28.4302 23.4757 28.5515 23.4757C29.0364 23.8393 29.4606 24.2635 29.8242 24.7484C29.8351 24.8471 29.8957 24.9077 30.006 24.9302C30.1866 24.0902 30.2473 23.2419 30.1879 22.3848Z" fill="#0E0E0E"/>
<path fill-rule="evenodd" clip-rule="evenodd" d="M6.0071 20.748C6.12832 21.1722 6.24952 21.5966 6.37074 22.0208C4.7133 21.7977 4.10723 22.4642 4.55256 24.0208C4.49196 24.2026 4.37074 24.3239 4.18892 24.3844C4.21272 24.2251 4.1521 24.1039 4.0071 24.0208C3.58478 24.2339 3.16054 24.2339 2.73438 24.0208C3.76959 22.8644 4.8605 21.7735 6.0071 20.748Z" fill="#777777"/>
<path fill-rule="evenodd" clip-rule="evenodd" d="M0.369698 21.6582C0.733334 21.9006 1.03637 22.2037 1.27879 22.5673C1.14988 22.7317 0.968062 22.7922 0.733334 22.7491C0.707898 23.0444 0.829098 23.2564 1.09697 23.3855C0.829098 23.5146 0.707898 23.7266 0.733334 24.0218C0.722425 24.1206 0.661825 24.1811 0.551516 24.2037C0.370916 23.3637 0.310316 22.5153 0.369698 21.6582Z" fill="#424242"/>
<path fill-rule="evenodd" clip-rule="evenodd" d="M26.9144 21.8398C27.5204 22.3248 28.0659 22.8702 28.5508 23.4762C28.4295 23.4762 28.369 23.5368 28.369 23.658C28.1871 23.658 28.0053 23.658 27.8235 23.658C27.8722 23.9488 27.8115 24.1911 27.6417 24.3853C27.2175 24.0822 26.8539 23.7186 26.5508 23.2944C26.5935 23.1858 26.6844 23.1253 26.8235 23.1126C27.0921 23.2842 27.2739 23.5266 27.369 23.8398C27.6393 23.5177 27.6999 23.154 27.5508 22.7489C27.0861 22.6182 26.8739 22.3151 26.9144 21.8398Z" fill="#828282"/>
<path fill-rule="evenodd" clip-rule="evenodd" d="M28.3679 23.6582C28.3715 23.9569 28.2503 24.1993 28.0043 24.3855C28.1183 24.5522 28.179 24.734 28.1861 24.9309C27.9437 24.8097 27.7619 24.6278 27.6406 24.3855C27.8104 24.1913 27.8712 23.9489 27.8224 23.6582C28.0043 23.6582 28.1861 23.6582 28.3679 23.6582Z" fill="#3E3E3E"/>
<path fill-rule="evenodd" clip-rule="evenodd" d="M0.367268 21.6582C0.307886 22.5153 0.368486 23.3637 0.549086 24.2037C0.659395 24.1811 0.719995 24.1206 0.730905 24.0218C0.843159 24.0017 0.934068 23.9411 1.00363 23.84C1.12914 24.2427 1.28065 24.6367 1.45818 25.0218C1.43121 25.2502 1.37061 25.4624 1.27636 25.6582C0.719705 25.7978 0.416668 26.1615 0.367268 26.7491C0.127577 24.9482 0.127577 23.2513 0.367268 21.6582Z" fill="#B7B7B7"/>
<path fill-rule="evenodd" clip-rule="evenodd" d="M2.73082 24.0215C2.85508 24.3262 3.09751 24.4475 3.4581 24.3851C3.41495 24.6198 3.47555 24.8017 3.63991 24.9306C3.57931 25.1124 3.4581 25.2337 3.27628 25.2942C3.0147 24.956 2.71168 24.6529 2.36719 24.3851C2.42779 24.2033 2.54901 24.082 2.73082 24.0215Z" fill="#7B7B7B"/>
<path fill-rule="evenodd" clip-rule="evenodd" d="M2.73438 24.0215C3.16054 24.2346 3.58477 24.2346 4.0071 24.0215C4.1521 24.1046 4.21272 24.2258 4.18892 24.3851C4.0677 24.6275 3.88588 24.8093 3.64347 24.9306C3.4791 24.8017 3.4185 24.6198 3.46165 24.3851C3.10107 24.4475 2.85863 24.3262 2.73438 24.0215Z" fill="#353535"/>
<path fill-rule="evenodd" clip-rule="evenodd" d="M1.27923 22.5664C1.78241 22.7733 1.90361 23.1068 1.64287 23.5664C1.78174 23.9426 1.87265 24.3366 1.9156 24.7482C1.98516 24.6471 2.07607 24.5866 2.18832 24.5664C2.75263 25.6017 2.4496 25.9653 1.27923 25.6573C1.37349 25.4615 1.43409 25.2493 1.46105 25.021C1.28352 24.6359 1.13201 24.2419 1.00651 23.8391C0.936942 23.9402 0.846033 24.0008 0.733778 24.021C0.708342 23.7257 0.829542 23.5137 1.09741 23.3846C0.829542 23.2555 0.708342 23.0435 0.733778 22.7482C0.968505 22.7913 1.15032 22.7308 1.27923 22.5664Z" fill="#878787"/>
<path fill-rule="evenodd" clip-rule="evenodd" d="M2.36817 24.3848C2.71266 24.6526 3.01568 24.9557 3.27726 25.2939C3.21666 25.4151 3.15604 25.5362 3.09544 25.6575C2.85302 25.7788 2.85302 25.8999 3.09544 26.0211C3.39304 26.3164 3.33242 26.4982 2.91362 26.5666C2.5727 26.2293 2.20906 26.1686 1.82272 26.3848C1.84653 26.2504 1.81622 26.1291 1.73181 26.0211C1.68026 26.4549 1.49844 26.576 1.18635 26.3848C1.05704 26.7242 1.14795 26.9969 1.45908 27.2029C1.22395 27.292 0.981515 27.3224 0.731806 27.2939C0.476115 27.2079 0.354897 27.026 0.36817 26.7484C0.41757 26.1608 0.720606 25.7971 1.27726 25.6575C2.44762 25.9655 2.75066 25.6019 2.18635 24.5666C2.18635 24.4453 2.24695 24.3848 2.36817 24.3848Z" fill="#303030"/>
<path fill-rule="evenodd" clip-rule="evenodd" d="M3.09588 25.6582C3.97749 25.7793 4.88659 25.9006 5.82315 26.0218C5.80068 26.1322 5.74008 26.1927 5.64133 26.2037C4.8286 26.0244 3.98011 25.9638 3.09588 26.0218C2.85346 25.9006 2.85346 25.7795 3.09588 25.6582Z" fill="#8F8F8F"/>
<path fill-rule="evenodd" clip-rule="evenodd" d="M3.09695 26.0213C3.98118 25.9633 4.82967 26.0238 5.6424 26.2031C5.31675 26.5509 4.95311 26.854 4.55149 27.1122C4.54058 27.0135 4.47998 26.9529 4.36967 26.9304C3.76362 27.4153 3.15755 27.4153 2.55149 26.9304C2.4256 27.0258 2.33469 27.1471 2.27876 27.294C2.2122 26.9391 2.06067 26.6362 1.82422 26.3849C2.21056 26.1687 2.5742 26.2295 2.91513 26.5667C3.33393 26.4984 3.39455 26.3166 3.09695 26.0213Z" fill="#0D0D0D"/>
<path fill-rule="evenodd" clip-rule="evenodd" d="M10.7337 26.0215C11.4003 26.0215 12.067 26.0215 12.7337 26.0215C12.7028 26.2618 12.7634 26.474 12.9155 26.6578C11.3364 26.7808 11.2758 26.9928 12.7337 27.2942C11.6082 27.3529 10.5173 27.2924 9.46094 27.1124C9.88517 26.7488 10.3094 26.3851 10.7337 26.0215Z" fill="#050505"/>
<path fill-rule="evenodd" clip-rule="evenodd" d="M18.9141 26.0217C20.2119 25.4657 20.7573 25.89 20.5504 27.2944C20.1868 27.2338 19.8232 27.1731 19.4595 27.1126C19.4595 26.8095 19.4595 26.5066 19.4595 26.2035C19.6508 26.2306 19.8326 26.2004 20.005 26.1126C19.6462 26.0226 19.2826 25.9922 18.9141 26.0217Z" fill="#989898"/>
<path fill-rule="evenodd" clip-rule="evenodd" d="M18.9144 26.0206C19.283 25.9912 19.6466 26.0216 20.0053 26.1116C19.833 26.1994 19.6511 26.2296 19.4599 26.2025C19.4599 26.5056 19.4599 26.8085 19.4599 27.1116C19.1795 27.2572 18.8766 27.3177 18.5508 27.2934C18.5508 26.9903 18.5508 26.6874 18.5508 26.3843C18.6113 26.2025 18.7326 26.0812 18.9144 26.0206Z" fill="#1A1A1A"/>
<path fill-rule="evenodd" clip-rule="evenodd" d="M28.7319 25.6582C29.1183 25.816 29.1485 25.9978 28.8228 26.2037C28.5017 26.0704 28.1685 26.0097 27.8228 26.0218C27.8926 26.4635 28.0139 26.8878 28.1865 27.2946C27.7748 27.4253 27.3506 27.4858 26.9137 27.4764C26.7925 26.7491 26.6714 26.7491 26.5501 27.4764C25.6734 27.4653 25.6128 27.2533 26.3683 26.84C26.6034 26.7509 26.8459 26.7206 27.0956 26.7491C27.0685 26.9404 27.0986 27.1222 27.1865 27.2946C27.3826 26.8286 27.4736 26.3438 27.4592 25.84C27.9245 25.8949 28.3488 25.8342 28.7319 25.6582Z" fill="#7D7D7D"/>
<path fill-rule="evenodd" clip-rule="evenodd" d="M10.7344 26.0212C11.425 25.8425 12.1523 25.7818 12.9162 25.8394C12.9162 26.0212 12.9162 26.2031 12.9162 26.3849C13.1298 26.3451 13.3116 26.4056 13.4616 26.5667C13.276 26.8736 13.0335 27.116 12.7344 27.294C11.2765 26.9925 11.3371 26.7805 12.9162 26.6576C12.7641 26.4738 12.7035 26.2616 12.7344 26.0212C12.0677 26.0212 11.401 26.0212 10.7344 26.0212Z" fill="#656565"/>
<path fill-rule="evenodd" clip-rule="evenodd" d="M1.82528 26.3851C2.06174 26.6364 2.21327 26.9393 2.27983 27.2942C2.33576 27.1473 2.42667 27.026 2.55256 26.9306C3.15861 27.4155 3.76468 27.4155 4.37074 26.9306C4.48105 26.9531 4.54165 27.0137 4.55256 27.1124C4.53243 27.2246 4.47183 27.3155 4.37074 27.3851C3.12594 27.5344 1.91383 27.504 0.734375 27.2942C0.984084 27.3228 1.22652 27.2924 1.46165 27.2033C1.15052 26.9973 1.05961 26.7246 1.18892 26.3851C1.50101 26.5764 1.68283 26.4553 1.73437 26.0215C1.81879 26.1295 1.8491 26.2508 1.82528 26.3851Z" fill="#676767"/>
<path fill-rule="evenodd" clip-rule="evenodd" d="M9.45916 27.1113C10.5155 27.2913 11.6064 27.3519 12.7319 27.2931C11.6086 27.5326 10.457 27.5326 9.27734 27.2931C9.29982 27.1828 9.36042 27.1222 9.45916 27.1113Z" fill="#575757"/>
<path fill-rule="evenodd" clip-rule="evenodd" d="M18.5518 26.3848C18.5518 26.6879 18.5518 26.9908 18.5518 27.2939C18.8777 27.3182 19.1806 27.2577 19.4609 27.112C19.2117 27.346 18.8782 27.4671 18.4609 27.4757C18.1277 27.4453 17.7942 27.4151 17.4609 27.3848C17.8009 27.0139 18.1646 26.6806 18.5518 26.3848Z" fill="#6B6B6B"/>
</svg>
