<svg width="32" height="32" viewBox="0 0 32 32" fill="none" xmlns="http://www.w3.org/2000/svg">
<path d="M31.1336 2.16211C29.1444 3.67562 27.0687 5.05941 24.82 6.22697C23.8687 6.74589 22.8741 7.22157 21.7498 7.74049C17.4254 9.81616 12.8417 11.1999 8.12815 12.0648C7.00382 12.2378 5.8795 12.4108 4.71193 12.5405C3.54436 12.6702 2.16058 12.7567 0.863281 12.7567C1.98761 13.1891 3.24166 13.4486 4.40923 13.6216C4.19301 14.5729 4.06328 15.5675 4.06328 16.5189C4.06328 23.6972 9.85788 29.5351 16.993 29.6216C24.1281 29.6648 30.0092 23.9135 30.0957 16.6918C30.0957 13.4918 28.9714 10.4216 26.8525 8.04319C28.6687 6.39995 30.139 4.36751 31.1768 2.16211H31.1336ZM17.0363 16.3891C18.5065 16.3891 19.6741 17.5567 19.6741 19.027C19.6741 20.4972 18.5065 21.6648 17.0363 21.6648C15.566 21.6648 14.3984 20.4972 14.3984 19.027C14.3984 17.5567 15.566 16.3891 17.0363 16.3891ZM27.0254 16.5621C27.0254 22.0972 22.5281 26.5081 17.0795 26.5081C11.6308 26.5081 7.04707 22.0108 7.04707 16.5621C7.04707 11.1135 7.1768 14.7891 7.39301 13.9675C8.64707 14.0108 9.85788 14.0108 11.1119 13.9675C9.64166 17.2108 11.1119 21.1026 14.3552 22.5297C17.5984 23.9999 21.4903 22.5297 22.9173 19.2864C24.0849 16.6918 23.393 13.6216 21.2741 11.7189C22.3984 11.2432 23.4363 10.6378 24.4741 9.94589C26.2038 11.7621 27.0687 14.1405 27.0687 16.5621H27.0254Z" fill="url(#paint0_linear_102_1011)"/>
<defs>
<linearGradient id="paint0_linear_102_1011" x1="7.4795" y1="25.3837" x2="30.9173" y2="1.94589" gradientUnits="userSpaceOnUse">
<stop stop-color="#7B144B"/>
<stop offset="1" stop-color="#C80046"/>
</linearGradient>
</defs>
</svg>
