<svg width="32" height="32" viewBox="0 0 32 32" fill="none" xmlns="http://www.w3.org/2000/svg">
<path d="M0 16C0 1.31678 5.33333 0 16 0C26.6667 0 32 1.59926 32 16C32 30.6262 26.6667 32 16 32C5.33333 32 0 30.0039 0 16Z" fill="#841474"/>
<path d="M25.7137 15.5217C25.7154 13.6496 25.1762 11.8169 24.1609 10.244C23.1457 8.67111 21.6977 7.42499 19.991 6.65553C18.2844 5.88607 16.3918 5.62603 14.5408 5.90669C12.6899 6.18735 10.9595 6.99676 9.55764 8.23756C8.15581 9.47837 7.14229 11.0977 6.63898 12.9009C6.13567 14.7041 6.164 16.6142 6.72056 18.4017C7.27712 20.1891 8.33822 21.7777 9.77622 22.9764C11.2142 24.1751 12.9679 24.9329 14.8264 25.1585V28.922L21.9969 23.1524C22.0911 23.0789 22.1849 23.0101 22.2816 22.9292L22.5391 22.7243H22.5093C23.5191 21.816 24.3264 20.7052 24.8785 19.4642C25.4306 18.2233 25.7152 16.88 25.7137 15.5217ZM16.0743 21.0022C15.3575 21.0036 14.6474 20.8633 13.9849 20.5893C13.3224 20.3154 12.7206 19.9132 12.2141 19.4059L13.1789 18.4411C13.9472 19.2078 14.9882 19.6384 16.0736 19.6384C17.159 19.6384 18.2001 19.2078 18.9683 18.4411L19.9331 19.4059C19.4268 19.913 18.8252 20.3151 18.163 20.5891C17.5008 20.863 16.791 21.0034 16.0743 21.0022Z" fill="white"/>
</svg>
