<svg width="32" height="32" viewBox="0 0 32 32" fill="none" xmlns="http://www.w3.org/2000/svg">
<g clip-path="url(#clip0_102_1247)">
<path fill-rule="evenodd" clip-rule="evenodd" d="M14.5772 -0.0703125C15.4305 -0.0703125 16.2838 -0.0703125 17.1372 -0.0703125C21.6263 0.41968 25.2292 2.4582 27.9461 6.04524C19.3959 7.07616 10.9101 8.07171 2.48828 9.03191C2.48828 8.88969 2.48828 8.74747 2.48828 8.60524C4.97017 3.56423 8.9998 0.672388 14.5772 -0.0703125Z" fill="#E81E25"/>
<path fill-rule="evenodd" clip-rule="evenodd" d="M27.9472 6.04492C30.1591 9.0333 31.1073 12.3992 30.7916 16.1427C30.674 15.3626 30.6029 14.5566 30.5783 13.7249C30.5251 13.8552 30.454 13.9738 30.3649 14.0805C29.0861 14.2652 27.8061 14.4312 26.5249 14.5783C26.5484 15.0075 26.5247 15.4341 26.4538 15.8583C26.4281 15.4039 26.357 14.9772 26.2405 14.5783C25.8827 11.8294 24.3182 10.6679 21.5472 11.0938C20.3893 11.4931 19.6071 12.2753 19.2005 13.4405C19.0101 14.4255 18.9389 15.4211 18.9872 16.4271C18.8191 16.2667 18.7242 15.9823 18.7027 15.5738C18.5131 15.5738 18.3234 15.5738 18.1338 15.5738C18.1803 16.8797 18.1328 18.1597 17.9916 19.4138C18.0154 17.3274 17.9916 15.2414 17.9205 13.156C17.1807 11.3281 15.8295 10.6407 13.8672 11.0938C13.3304 11.279 12.88 11.5871 12.5161 12.0183C11.6477 11.0808 10.581 10.7726 9.31605 11.0938C8.92513 11.2535 8.56957 11.4668 8.24939 11.7338C8.1797 11.5499 8.15599 11.3602 8.17827 11.1649C7.49484 11.0245 6.78373 10.9771 6.04494 11.0227C6.04494 13.8197 6.04494 16.6167 6.04494 19.4138C5.92694 18.1588 5.85583 16.8788 5.83161 15.5738C5.76074 16.0456 5.73703 16.5196 5.7605 16.996C4.43813 17.1893 3.11073 17.3551 1.77827 17.4938C1.69049 17.8177 1.59567 18.1258 1.49383 18.4183C0.694656 15.0108 1.02651 11.7397 2.48939 8.60492C2.48939 8.74714 2.48939 8.88937 2.48939 9.03159C10.9112 8.07139 19.397 7.07583 27.9472 6.04492Z" fill="#E42026"/>
<path fill-rule="evenodd" clip-rule="evenodd" d="M8.1763 11.1648C7.51259 11.1648 6.8489 11.1648 6.18519 11.1648C6.18519 13.9145 6.18519 16.6641 6.18519 19.4137C6.13779 19.4137 6.09037 19.4137 6.04297 19.4137C6.04297 16.6166 6.04297 13.8197 6.04297 11.0226C6.78176 10.977 7.49287 11.0244 8.1763 11.1648Z" fill="#EE8385"/>
<path fill-rule="evenodd" clip-rule="evenodd" d="M17.9919 19.414C17.2808 19.414 16.5697 19.414 15.8586 19.414C15.8824 17.5172 15.8586 15.6208 15.7875 13.7251C15.3724 12.9393 14.7324 12.6786 13.8675 12.9429C13.5418 13.1956 13.3048 13.5038 13.1564 13.8673C13.0148 15.691 12.9674 17.5399 13.0142 19.414C12.3505 19.414 11.6868 19.414 11.0231 19.414C11.0467 17.5172 11.023 15.6208 10.9519 13.7251C10.3911 12.8627 9.65629 12.6731 8.7475 13.1562C8.55389 13.3736 8.38796 13.6106 8.24972 13.8673C8.17863 15.7156 8.15492 17.5645 8.17861 19.414C7.5149 19.414 6.85121 19.414 6.1875 19.414C6.1875 16.6644 6.1875 13.9147 6.1875 11.1651C6.85121 11.1651 7.5149 11.1651 8.17861 11.1651C8.15632 11.3604 8.18003 11.5501 8.24972 11.734C8.56991 11.467 8.92546 11.2537 9.31639 11.094C10.5813 10.7728 11.648 11.0809 12.5164 12.0184C12.8803 11.5873 13.3307 11.2791 13.8675 11.094C15.8299 10.6409 17.181 11.3283 17.9208 13.1562C17.9919 15.2416 18.0157 17.3276 17.9919 19.414Z" fill="#FEFBFB"/>
<path fill-rule="evenodd" clip-rule="evenodd" d="M26.2406 14.5779C26.2406 15.0046 26.2406 15.4313 26.2406 15.8579C24.4866 15.8579 22.7324 15.8579 20.9784 15.8579C20.9447 16.0416 20.992 16.1838 21.1206 16.2846C21.4917 17.5848 22.345 18.0352 23.6806 17.6357C24.1141 17.5495 24.4696 17.3362 24.7473 16.9957C25.1533 17.4018 25.5562 17.8047 25.9562 18.2046C25.0912 19.2162 23.9771 19.6667 22.6139 19.5557C20.5863 19.4472 19.3774 18.4043 18.9873 16.4268C18.9391 15.4208 19.0102 14.4252 19.2006 13.4402C19.6072 12.275 20.3894 11.4928 21.5473 11.0935C24.3183 10.6676 25.8828 11.8291 26.2406 14.5779Z" fill="#FEFAFA"/>
<path fill-rule="evenodd" clip-rule="evenodd" d="M24.1078 13.8667C24.1078 14.0563 24.1078 14.246 24.1078 14.4355C23.1122 14.4355 22.1166 14.4355 21.1211 14.4355C21.1211 14.2933 21.1211 14.1511 21.1211 14.0089C21.5826 12.7139 22.4359 12.4058 23.6811 13.0844C23.9172 13.296 24.0594 13.5568 24.1078 13.8667Z" fill="#E22327"/>
<path fill-rule="evenodd" clip-rule="evenodd" d="M11.0211 19.4127C11.7045 19.553 12.4156 19.6005 13.1544 19.5549C13.1544 17.6586 13.1544 15.7623 13.1544 13.866C13.3028 13.5025 13.5398 13.1943 13.8655 12.9416C14.7304 12.6773 15.3704 12.938 15.7855 13.7238C15.8566 15.6195 15.8804 17.5159 15.8566 19.4127C16.5677 19.4127 17.2789 19.4127 17.99 19.4127C18.1312 18.1586 18.1787 16.8786 18.1322 15.5727C18.3218 15.5727 18.5115 15.5727 18.7011 15.5727C18.7226 15.9811 18.8174 16.2656 18.9855 16.426C19.3756 18.4035 20.5845 19.4464 22.6122 19.5549C23.9754 19.6658 25.0894 19.2154 25.9544 18.2038C25.5545 17.8039 25.1516 17.4009 24.7455 16.9949C24.4679 17.3354 24.1123 17.5487 23.6789 17.6349C22.3432 18.0344 21.4899 17.584 21.1189 16.2838C22.7969 16.0477 24.5036 15.9055 26.2389 15.8571C26.2389 15.4305 26.2389 15.0038 26.2389 14.5771C26.3553 14.9761 26.4264 15.4027 26.4522 15.8571C26.523 15.433 26.5468 15.0063 26.5233 14.5771C27.8044 14.4301 29.0844 14.2641 30.3633 14.0793C30.4523 13.9726 30.5234 13.8541 30.5766 13.7238C30.6012 14.5555 30.6723 15.3615 30.79 16.1416C30.6331 17.9391 30.1591 19.6458 29.3677 21.2616C21.4746 22.1381 13.4627 23.0625 5.33219 24.0349C5.01304 24.042 4.776 24.1605 4.62108 24.3905C3.13192 22.6452 2.08895 20.6541 1.49219 18.4171C1.59403 18.1247 1.68885 17.8165 1.77663 17.4927C3.10908 17.354 4.43649 17.1882 5.75885 16.9949C5.73539 16.5185 5.7591 16.0444 5.82997 15.5727C5.85419 16.8777 5.9253 18.1577 6.0433 19.4127C6.0907 19.4127 6.13812 19.4127 6.18552 19.4127C6.84923 19.4127 7.51292 19.4127 8.17663 19.4127C8.15294 17.5632 8.17665 15.7143 8.24774 13.866C8.38598 13.6093 8.55191 13.3723 8.74552 13.1549C9.65431 12.6718 10.3891 12.8614 10.95 13.7238C11.0211 15.6195 11.0448 17.5159 11.0211 19.4127Z" fill="#DE2127"/>
<path fill-rule="evenodd" clip-rule="evenodd" d="M24.1065 13.8672C24.2417 14.069 24.2891 14.3059 24.2487 14.5783C23.1583 14.5783 22.068 14.5783 20.9776 14.5783C20.9395 14.3509 20.987 14.1612 21.1198 14.0094C21.1198 14.1516 21.1198 14.2939 21.1198 14.4361C22.1154 14.4361 23.1109 14.4361 24.1065 14.4361C24.1065 14.2465 24.1065 14.0568 24.1065 13.8672Z" fill="#F3B3B5"/>
<path fill-rule="evenodd" clip-rule="evenodd" d="M26.2415 15.8574C24.5062 15.9058 22.7996 16.048 21.1215 16.2841C20.9929 16.1833 20.9456 16.041 20.9793 15.8574C22.7333 15.8574 24.4875 15.8574 26.2415 15.8574Z" fill="#EC878A"/>
<path fill-rule="evenodd" clip-rule="evenodd" d="M13.1568 13.8672C13.1568 15.7634 13.1568 17.6598 13.1568 19.5561C12.418 19.6017 11.7069 19.5542 11.0234 19.4139C11.6871 19.4139 12.3508 19.4139 13.0145 19.4139C12.9678 17.5398 13.0152 15.6909 13.1568 13.8672Z" fill="#EC7B7C"/>
<path fill-rule="evenodd" clip-rule="evenodd" d="M29.3674 21.2617C28.8238 22.444 28.1363 23.5344 27.3052 24.5328C23.6856 28.4626 19.2056 30.1455 13.8652 29.5817C12.9754 29.3463 12.0747 29.2515 11.163 29.2973C8.45569 30.0909 5.80089 30.9678 3.19851 31.9284C3.10369 31.9284 3.00888 31.9284 2.91406 31.9284C3.76856 29.8406 4.6219 27.7546 5.47406 25.6706C5.29408 25.1667 5.00964 24.74 4.62073 24.3906C4.77565 24.1606 5.01269 24.0422 5.33184 24.0351C13.4623 23.0627 21.4742 22.1382 29.3674 21.2617Z" fill="#D92027"/>
</g>
<defs>
<clipPath id="clip0_102_1247">
<rect width="32" height="32" fill="white"/>
</clipPath>
</defs>
</svg>
