<svg width="32" height="32" viewBox="0 0 32 32" fill="none" xmlns="http://www.w3.org/2000/svg">
<path opacity="0.888" fill-rule="evenodd" clip-rule="evenodd" d="M6.5817 0.0725911C13.178 -0.121416 19.7597 0.0734563 26.3268 0.657198C28.2102 1.20116 29.746 2.1755 30.934 3.58023C33.7798 11.1658 30.9277 16.0375 22.3778 18.1954C25.8404 22.1032 27.5956 26.5852 27.6432 31.6413C19.9189 33.0474 16.1893 30.3192 16.4543 23.4568C15.5767 21.8979 14.2603 20.7287 12.5052 19.9492C10.5817 23.6657 9.48476 27.563 9.21439 31.6413C6.14297 31.6413 3.07142 31.6413 0 31.6413C1.9832 21.0866 4.17714 10.5637 6.5817 0.0725911ZM14.4797 4.74944C22.3616 4.94114 24.1167 7.86417 19.7451 13.5185C17.7378 14.6978 15.5439 15.2824 13.1634 15.2724C13.7727 11.7853 14.2115 8.27769 14.4797 4.74944Z" fill="#4F248F"/>
</svg>
