<svg version="1.0" xmlns="http://www.w3.org/2000/svg"
 width="32px" height="32px" viewBox="0 0 1173.000000 1173.000000">
<g transform="translate(0.000000,1173.000000) scale(0.100000,-0.100000)"
fill="#07D9B9" stroke="none">
<path d="M1227 10436 c5 -7 24 -32 43 -56 68 -82 153 -186 191 -230 48 -57
144 -173 189 -229 19 -23 43 -53 53 -64 11 -12 34 -40 52 -62 208 -251 227
-274 245 -295 8 -9 62 -75 120 -145 58 -71 119 -143 135 -162 l30 -33 2575 -3
c1416 -2 2586 -6 2600 -9 14 -4 57 -13 95 -22 265 -57 531 -219 718 -438 127
-149 249 -396 282 -568 17 -95 32 -242 30 -305 -3 -72 -15 -196 -20 -205 -2
-3 -6 -25 -10 -49 -30 -205 -183 -489 -356 -660 -201 -199 -478 -342 -726
-375 -24 -3 -62 -9 -85 -12 -24 -3 -647 -6 -1385 -6 l-1343 -1 39 -46 c21 -25
172 -208 336 -406 270 -326 357 -430 407 -490 15 -18 191 -231 269 -325 23
-28 191 -241 374 -475 117 -150 298 -381 490 -625 127 -161 244 -311 262 -334
28 -37 205 -262 271 -345 15 -19 55 -71 90 -115 34 -45 69 -88 76 -97 7 -9 37
-47 66 -85 30 -38 86 -109 125 -159 40 -49 156 -198 259 -330 104 -132 199
-253 212 -270 13 -16 161 -205 329 -420 169 -214 314 -399 323 -410 9 -12 39
-50 67 -85 27 -36 52 -67 55 -70 3 -3 29 -36 58 -75 l52 -70 838 1 c460 1 842
2 849 3 9 1 -404 536 -844 1091 -89 113 -447 570 -508 649 -44 57 -85 108 -90
115 -6 6 -60 74 -120 151 -60 77 -127 163 -150 191 -22 27 -76 96 -120 153
-44 57 -111 142 -148 189 -38 48 -79 100 -90 115 -12 16 -39 50 -60 75 -20 26
-118 151 -217 277 -99 127 -198 253 -220 280 -22 28 -117 149 -212 270 -94
121 -202 258 -239 305 -37 47 -66 86 -64 88 2 2 21 6 42 8 42 4 233 33 267 40
11 3 35 7 51 10 87 15 303 78 444 129 253 92 514 238 741 414 78 60 290 264
351 336 77 92 144 187 222 311 89 142 198 403 246 584 35 135 37 144 65 320
28 176 26 531 -5 730 -6 36 -12 81 -15 100 -14 91 -84 352 -114 425 -4 11 -18
47 -31 80 -64 172 -153 342 -275 525 -45 69 -91 134 -101 145 -10 11 -40 47
-66 80 -249 309 -627 592 -1017 763 -117 51 -339 125 -445 148 -11 2 -31 6
-45 9 -63 14 -180 34 -230 40 -30 4 -64 10 -75 13 -11 3 -1414 7 -3118 9
-2552 2 -3096 0 -3090 -11z"/>
</g>
</svg>
