<svg width="32" height="32" viewBox="0 0 32 32" fill="none" xmlns="http://www.w3.org/2000/svg">
<path fill-rule="evenodd" clip-rule="evenodd" d="M0.00529536 20.6744C-0.0230426 17.352 0.0623555 14.0331 0.261515 10.7179C0.520349 7.63619 1.37441 4.7322 2.82371 2.00595C4.41133 0.316498 6.37567 -0.305785 8.71677 0.139098C18.23 1.50068 25.7884 5.93962 31.3922 13.456C32.3474 15.6112 32.1768 17.6855 30.8798 19.6788C24.2206 27.7294 15.5517 31.8365 4.87347 32C2.90986 31.2538 1.67147 29.8847 1.15828 27.8929C0.662499 25.5011 0.27817 23.0949 0.00529536 20.6744Z" fill="#A4D0FA"/>
<path fill-rule="evenodd" clip-rule="evenodd" d="M8.71637 4.49609C16.2948 5.00311 22.4013 8.15602 27.0361 13.9548C27.7679 15.9808 27.4261 17.8062 26.0112 19.4309C21.6245 24.2379 16.1157 26.976 9.48503 27.645C6.67894 27.4491 5.18431 25.9557 5.00119 23.1646C3.96068 17.7881 4.2169 12.4779 5.76985 7.23414C6.39433 5.92142 7.3765 5.00873 8.71637 4.49609Z" fill="#0D84F3"/>
</svg>
