<svg width="32" height="32" viewBox="0 0 32 32" fill="none" xmlns="http://www.w3.org/2000/svg">
    <path
        d="M11.7683 20.7908L10.3705 16.7685H9.265V20.7908H6.20264V8H11.5904C13.9539 8 15.2246 9.99504 15.2246 12.3923C15.2246 14.5965 14.208 15.771 13.4075 16.2698L15.2373 20.7908H11.7683ZM12.1368 12.3601C12.1368 11.6683 11.6539 11.3626 11.1329 11.3626H9.265V13.3737H11.1329C11.6412 13.3898 12.1368 13.0841 12.1368 12.3601Z"
        fill="black" />
    <path
        d="M15.466 16.1409C15.466 13.454 17.0925 11.282 19.456 11.282C21.6034 11.282 23.2553 13.2448 23.2553 16.4948V17.2028H18.2869C18.4394 17.798 18.9731 18.3773 19.8626 18.3773C20.2692 18.3773 21.1841 18.1359 21.5399 17.7176L22.6581 19.8414C21.9338 20.6297 20.625 20.9998 19.5322 20.9998C17.2577 21.0159 15.466 19.1978 15.466 16.1409ZM19.4433 13.9206C18.6046 13.9206 18.3378 14.6124 18.2488 15.0307H20.6631C20.5869 14.6285 20.3328 13.9206 19.4433 13.9206Z"
        fill="black" />
    <path
        d="M23.5349 12.9393C23.5349 12.1027 24.094 11.3787 24.7674 11.3787C25.4282 11.3787 26 12.0866 26 12.9393C26 13.7759 25.4409 14.4999 24.7674 14.4999C24.094 14.4999 23.5349 13.792 23.5349 12.9393ZM23.5349 19.4393C23.5349 18.6026 24.094 17.8786 24.7674 17.8786C25.4282 17.8786 26 18.5866 26 19.4393C26 20.292 25.4409 20.9999 24.7674 20.9999C24.094 20.9999 23.5349 20.292 23.5349 19.4393Z"
        fill="black" />
</svg>