<svg width="32" height="32" viewBox="0 0 32 32" fill="none" xmlns="http://www.w3.org/2000/svg">
    <rect width="32" height="32" fill="black" />
    <path
        d="M16.0699 16.6298L14.5635 16.6995L15.9466 8.2244C16.4977 8.17016 17.1348 8.13374 17.839 8.13374C19.8721 8.13374 20.7757 9.19149 20.7757 10.9412C20.7757 14.2966 19.2312 16.4826 16.0699 16.629M23.6508 18.9421C28.0589 17.4055 30 14.2346 30 10.3577C30 6.12676 26.2031 3 18.8612 3C11.6298 3 7.12879 5.54168 7.12879 5.54168L3 30.0999C10.2414 30.0999 12.8721 27.0143 12.8721 27.0143L13.9431 20.4935H15.3133C17.1227 27.8333 22.8408 32 28.2012 32L29.4717 29.5397C25.8446 28.8376 25.1488 24.4648 23.6523 18.9413"
        fill="#FAFAFA" />
</svg>