<svg width="32" height="32" viewBox="0 0 32 32" fill="none" xmlns="http://www.w3.org/2000/svg">
<path fill-rule="evenodd" clip-rule="evenodd" d="M17.3176 0.477029C22.5403 1.27475 25.938 4.1982 27.5102 9.2474C27.4889 9.87607 27.6468 10.4291 27.9843 10.9067C27.9843 11.6178 27.9843 12.3289 27.9843 13.04C27.1151 13.04 26.2461 13.04 25.3769 13.04C25.4468 12.5101 25.3677 12.036 25.1399 11.6178C23.8364 5.91319 20.2808 3.18726 14.4732 3.43999C10.4239 4.40789 7.856 6.89677 6.7695 10.9067C6.61146 15.1733 6.61146 19.44 6.7695 23.7067C9.3294 25.3602 11.8183 27.0987 14.2362 28.9215C13.6758 29.6798 13.1624 30.4698 12.6954 31.2918C10.701 29.9192 8.68618 28.5761 6.65098 27.2622C6.41503 28.5963 6.336 29.9393 6.41394 31.2918C5.46579 31.2918 4.51764 31.2918 3.5695 31.2918C3.53001 24.6543 3.5695 18.0173 3.68801 11.3807C4.62455 5.85372 7.74552 2.29816 13.051 0.714066C14.4663 0.538374 15.8885 0.45937 17.3176 0.477029Z" fill="#F77D6B"/>
<path fill-rule="evenodd" clip-rule="evenodd" d="M17.3174 0.477522C15.8884 0.459863 14.4661 0.538868 13.0508 0.714559C13.8534 0.36602 14.7226 0.207988 15.6582 0.240485C16.2567 0.241291 16.81 0.320296 17.3174 0.477522Z" fill="#B5665B"/>
<path fill-rule="evenodd" clip-rule="evenodd" d="M27.5097 9.24805C27.8473 9.72556 28.0051 10.2786 27.9838 10.9073C27.6463 10.4298 27.4884 9.87672 27.5097 9.24805Z" fill="#A86157"/>
<path fill-rule="evenodd" clip-rule="evenodd" d="M27.9851 10.9062C28.301 12.1704 28.301 13.4347 27.9851 14.6988C27.9851 14.2248 27.9851 13.7507 27.9851 13.2766C27.0369 13.2766 26.0888 13.2766 25.1406 13.2766C25.1406 12.7235 25.1406 12.1704 25.1406 11.6174C25.3684 12.0356 25.4476 12.5097 25.3777 13.0396C26.2469 13.0396 27.1159 13.0396 27.9851 13.0396C27.9851 12.3285 27.9851 11.6174 27.9851 10.9062Z" fill="#C69087"/>
<path fill-rule="evenodd" clip-rule="evenodd" d="M25.1402 13.2773C26.0883 13.2773 27.0365 13.2773 27.9846 13.2773C27.9846 13.7514 27.9846 14.2255 27.9846 14.6996C26.9002 21.4729 22.9495 25.2655 16.1328 26.0773C16.2058 26.6519 16.1266 27.2049 15.8957 27.7366C14.2365 26.6699 12.5772 25.6033 10.918 24.5366C12.5772 23.4699 14.2365 22.4033 15.8957 21.3366C16.1266 21.8683 16.2058 22.4213 16.1328 22.9959C21.7551 22.193 24.7576 18.9534 25.1402 13.2773Z" fill="#343433"/>
</svg>
