<svg xmlns="http://www.w3.org/2000/svg" width="32" height="32" fill="none"><path fill="#000" d="M31.156 5.935c-.274.093-.573.205-.672.243a.948.948 0 0 1-.2.074c-.018 0-.162.062-.323.13-.168.076-.393.175-.498.219-.113.05-.25.087-.306.087-.055 0-.111.031-.124.062-.012.038-.1.062-.187.062s-.168.02-.18.05c-.006.025-.28.081-.598.131-.485.068-.647.075-.927.006-.187-.043-.386-.1-.436-.13-.05-.025-.2-.088-.324-.144a1.26 1.26 0 0 0-.33-.1c-.05 0-.105-.024-.124-.062-.019-.037-.15-.08-.293-.1-.15-.018-.74-.049-1.326-.061-.672-.02-1.077-.007-1.12.037-.031.031-.174.062-.324.062-.15 0-.268.019-.268.05 0 .025-.087.062-.199.08a3.512 3.512 0 0 0-.547.206c-.187.094-.399.2-.461.243a1.527 1.527 0 0 0-.268.218c-.08.075-.143.162-.143.2 0 .037.1.061.218.061s.23.025.249.063c.018.037.087.062.155.062.069 0 .287.075.486.168.193.1.486.299.641.454.156.156.33.386.386.517.062.125.106.28.106.336 0 .063.025.143.062.175.044.037.056.217.044.435a4.702 4.702 0 0 1-.087.592 7.32 7.32 0 0 1-.206.529c-.08.168-.261.492-.398.716a4.68 4.68 0 0 1-.318.473c-.03.037-.13.168-.217.292-.088.125-.175.23-.2.23-.03 0-.05.038-.05.075-.006.044-.118.193-.255.33s-.249.262-.242.28c0 .019-.387.424-.86.903-.473.48-1.008.996-1.189 1.152-.186.155-.454.392-.597.529-.143.137-.33.305-.41.367-.082.069-.25.205-.374.311-.125.106-.274.237-.343.287-.062.056-.23.18-.367.28a8.567 8.567 0 0 0-.374.299.515.515 0 0 1-.168.105c-.025 0-.08.038-.124.075a4.378 4.378 0 0 1-.311.249c-.131.1-.262.174-.3.174-.037 0-.061.019-.061.05 0 .025-.168.143-.374.262-.205.118-.373.236-.373.267 0 .025-.044.044-.094.044s-.093.025-.093.062-.056.062-.125.062c-.068 0-.124.019-.124.05 0 .025-.106.1-.25.168-.136.069-.248.137-.248.156.006.018-.118.087-.262.155-.149.069-.28.137-.298.156a1.99 1.99 0 0 1-.28.162l-.604.33c-.2.106-.405.193-.455.193-.05 0-.093.025-.093.062s-.056.062-.125.062c-.068 0-.124.025-.124.063 0 .037-.1.074-.218.093-.118.019-.218.056-.218.093 0 .038-.037.063-.075.063-.043 0-.23.068-.404.155-.18.087-.386.156-.455.156-.068 0-.124.018-.124.043 0 .032-.174.1-.386.168a3.928 3.928 0 0 0-.498.169.568.568 0 0 1-.205.056.51.51 0 0 0-.2.055 3.45 3.45 0 0 1-.547.156c-.237.056-.505.1-.592.1-.093 0-.199.037-.243.075-.056.062-.417.08-1.37.08-.852 0-1.344-.024-1.443-.074a7.577 7.577 0 0 0-.536-.187c-.217-.062-.392-.13-.392-.162 0-.025-.043-.043-.093-.043s-.212-.075-.355-.162c-.15-.094-.274-.193-.28-.218-.013-.031-.056-.056-.093-.056-.044.006-.212-.13-.374-.293a4.885 4.885 0 0 1-.405-.454 1.245 1.245 0 0 0-.174-.218 3.348 3.348 0 0 1-.218-.374c-.087-.174-.174-.317-.199-.33-.031-.006-.05-.062-.05-.124a.31.31 0 0 0-.043-.162c-.031-.025-.1-.193-.156-.373a2.43 2.43 0 0 1-.112-.43.594.594 0 0 0-.056-.218 2.716 2.716 0 0 1-.137-.48c-.05-.236-.087-1.026-.1-2.165-.006-.984-.037-1.787-.062-1.787-.031 0-.1.118-.168.268-.062.143-.137.317-.162.386a6.557 6.557 0 0 1-.112.28c-.03.087-.106.274-.162.417-.056.15-.1.336-.1.423 0 .087-.024.168-.062.187-.03.019-.074.137-.087.261-.018.131-.056.474-.1.766-.037.293-.093.648-.124.79-.037.15-.062.598-.062.997 0 .404.025.815.062.92.031.107.087.356.125.561.037.206.08.448.093.542.019.1.062.174.093.174.038 0 .063.056.063.125 0 .068.05.23.112.354.056.131.124.243.155.25.025.012.044.074.044.143 0 .068.019.124.05.124.025 0 .074.075.118.168.037.1.125.261.187.361.062.1.13.2.15.218.018.019.061.08.093.137.03.056.168.236.305.398.137.162.38.417.535.58.156.155.38.373.498.472.118.106.305.25.417.312.112.068.2.143.2.168 0 .03.037.05.08.05.037-.007.106.03.143.074.044.044.336.212.654.367.324.162.784.362 1.02.442.237.088.536.187.654.225.119.037.474.112.779.168.31.056.703.13.871.161.18.044.778.056 1.432.038.616-.013 1.32-.056 1.556-.1.236-.037.66-.112.934-.168.274-.05.61-.118.747-.15.137-.024.404-.099.591-.155.187-.056.399-.118.467-.137.068-.012.18-.05.249-.08.068-.026.268-.094.436-.156.174-.056.38-.131.467-.168.087-.038.199-.088.249-.113.05-.024.186-.062.298-.087.106-.018.2-.062.2-.1 0-.037.037-.061.08-.061.038 0 .28-.094.53-.218.242-.119.473-.218.51-.218.037 0 .069-.019.081-.05.006-.025.137-.106.293-.187.155-.075.435-.224.622-.33a33.13 33.13 0 0 0 1.09-.666c.41-.261.753-.498.765-.523.006-.025.056-.05.106-.05.05 0 .093-.024.093-.062 0-.037.05-.074.112-.093a.657.657 0 0 0 .23-.137c.07-.062.293-.237.499-.386.205-.156.417-.324.466-.38.05-.056.187-.155.3-.224.111-.062.198-.137.198-.168 0-.025.025-.043.063-.043.037 0-.013.143-.106.31-.1.175-.193.312-.218.312-.031 0-.062.05-.075.106-.018.062-.33.423-.703.797-.367.38-.784.765-.921.871-.137.1-.305.237-.374.293a.686.686 0 0 1-.23.143c-.062.018-.112.056-.112.093 0 .038-.044.063-.094.063s-.1.024-.105.05c-.013.03-.212.167-.455.31-.243.144-.46.28-.498.306a5.87 5.87 0 0 1-.373.217c-.168.088-.505.262-.747.386-.243.125-.473.224-.51.224-.044 0-.082.02-.082.044 0 .031-.137.106-.31.174-.175.069-.312.15-.312.187 0 .037.124.044.355.012.199-.03.572-.074.828-.105.255-.031.678-.1.933-.15.255-.05.58-.124.716-.155.137-.031.349-.087.467-.125.118-.037.342-.1.498-.15.156-.043.336-.105.405-.13.068-.025.286-.118.485-.2.193-.08.399-.148.448-.148.05 0 .094-.02.094-.05 0-.025.13-.1.299-.162.161-.069.305-.137.323-.156a.845.845 0 0 1 .156-.112c.068-.043.224-.124.342-.187a1.71 1.71 0 0 0 .343-.218.65.65 0 0 1 .236-.143c.056-.018.106-.056.106-.093s.044-.062.093-.062c.05 0 .1-.019.112-.05.007-.025.15-.156.324-.293.168-.137.535-.479.81-.753.273-.28.622-.666.777-.865.156-.193.318-.392.361-.442.038-.05.075-.1.075-.118 0-.019.069-.125.156-.237.08-.106.155-.236.155-.28 0-.037.02-.075.05-.075.025 0 .069-.056.106-.118.037-.068.206-.41.38-.766.174-.348.367-.765.423-.92.062-.157.13-.325.156-.374.025-.05.093-.262.155-.467.069-.206.137-.43.168-.498.025-.069.063-.206.088-.311.018-.106.08-.368.13-.592.05-.224.125-.585.156-.81.037-.223.08-.74.1-1.15.012-.412 0-1.015-.032-1.34a5.295 5.295 0 0 1 0-1.088c.032-.274.1-.679.15-.903.056-.224.124-.473.162-.56.037-.088.112-.256.168-.374.056-.118.118-.224.15-.236.024-.007.043-.044.043-.075 0-.037.074-.168.168-.299.093-.124.398-.454.672-.728.274-.274.666-.635.872-.797.205-.168.423-.342.485-.392a.495.495 0 0 1 .137-.087c.019 0 .187-.112.373-.25.187-.136.355-.248.374-.248.019 0 .236-.131.485-.293a9.44 9.44 0 0 0 .63-.436c.099-.08.155-.143.124-.137-.031 0-.28.081-.554.175Z"/></svg>
