<svg width="32" height="32" viewBox="0 0 32 32" fill="none" xmlns="http://www.w3.org/2000/svg">
<path opacity="0.908" fill-rule="evenodd" clip-rule="evenodd" d="M8.57897 1.14258C10.596 2.0815 12.6912 2.93865 14.8647 3.71401C15.8438 4.50154 16.6057 5.45389 17.1504 6.57115C19.8443 7.74326 22.2253 9.36229 24.2933 11.4283C25.052 16.2321 24.6711 20.994 23.1504 25.714C20.5482 30.3307 16.6434 31.9498 11.4361 30.5711C8.24537 29.5667 6.7216 27.3762 6.86468 23.9997C7.06691 20.4733 7.73354 17.0447 8.86468 13.714C10.0708 11.1746 12.0708 9.74606 14.8647 9.42829C13.0374 8.94343 11.4183 8.08629 10.0075 6.85686C9.25422 5.15597 8.39708 3.53692 7.43611 1.99972C7.95942 1.84062 8.3404 1.55491 8.57897 1.14258ZM15.4361 13.1426C17.8678 12.5451 19.3917 13.4023 20.0075 15.714C19.6013 18.2961 19.1251 20.8675 18.579 23.4283C17.8294 24.6612 16.8771 24.8517 15.7218 23.9997C15.3293 22.6167 15.615 21.3786 16.579 20.2854C16.2933 19.9997 16.0075 19.714 15.7218 19.4283C14.6046 19.973 13.6522 20.7349 12.8647 21.714C12.7498 18.5373 13.6069 15.6801 15.4361 13.1426Z" fill="#55AE47"/>
</svg>
