<svg width="32" height="32" viewBox="0 0 33 32" fill="none" xmlns="http://www.w3.org/2000/svg">
    <path d="M4.32754 17.3065L4.37395 17.2808L4.32568 17.3047L4.32754 17.3065Z" fill="#22B0F3" />
    <path
        d="M18.9872 31.9902C18.6106 31.9901 18.2488 31.8441 17.9792 31.5832L12.2244 25.9873L14.2386 23.9483L18.447 28.0393L28.0017 4.04434L4.0193 14.0166L7.43316 17.3321C7.59221 17.4866 7.71291 17.6757 7.78571 17.8844C7.85852 18.0932 7.88145 18.3158 7.8527 18.5349L7.26609 23.0034L15.5214 14.6447L17.5764 16.6414L6.31562 28.0466C6.10452 28.2603 5.83109 28.4027 5.53398 28.4538C5.23686 28.5049 4.93107 28.4621 4.65982 28.3314C4.38857 28.2007 4.16556 27.9887 4.02231 27.7254C3.87906 27.4621 3.82281 27.1608 3.8615 26.8641L4.9085 18.8756L0.458781 14.5434C0.291003 14.3786 0.166674 14.1754 0.096761 13.9516C0.0268476 13.7279 0.0134985 13.4905 0.057891 13.2605C0.102283 13.0304 0.203053 12.8147 0.351312 12.6324C0.499571 12.4501 0.690763 12.3068 0.908023 12.2152L30.0363 0.102594C30.2974 -0.00684857 30.5853 -0.0372095 30.8638 0.0153318C31.1423 0.0678732 31.3989 0.200969 31.6013 0.39787C31.8037 0.594771 31.9429 0.846678 32.0013 1.12189C32.0598 1.3971 32.0349 1.68332 31.9298 1.94453L20.3238 31.0877C20.237 31.3068 20.0968 31.5011 19.9157 31.6531C19.7345 31.8052 19.5182 31.9103 19.2861 31.9589C19.1879 31.9801 19.0877 31.9906 18.9872 31.9902Z"
        fill="#167AF4" />
</svg>