<svg width="32" height="32" viewBox="0 0 32 32" fill="none" xmlns="http://www.w3.org/2000/svg">
    <g clip-path="url(#clip0_767_171)">
        <path opacity="0.979" fill-rule="evenodd" clip-rule="evenodd"
            d="M14.9184 -0.0170898C15.628 -0.0170898 16.3375 -0.0170898 17.0471 -0.0170898C18.0756 0.0694314 19.0942 0.241105 20.1029 0.497932C17.3905 0.54371 14.678 0.54371 11.9656 0.497932C12.9335 0.229796 13.9177 0.0581222 14.9184 -0.0170898Z"
            fill="#1DB5FC" />
        <path opacity="0.997" fill-rule="evenodd" clip-rule="evenodd"
            d="M11.9658 0.497803C14.6782 0.543581 17.3907 0.543581 20.1031 0.497803C22.9768 1.27566 25.4374 2.72916 27.4851 4.85832C27.4821 4.89252 27.4936 4.92112 27.5194 4.94415C24.0173 4.96132 20.5151 4.96706 17.013 4.96132C17.0187 4.69784 17.013 4.43459 16.9958 4.17162C16.9715 4.11734 16.9429 4.06584 16.91 4.01712C16.5985 3.97794 16.2838 3.96077 15.9658 3.96561C15.6477 3.96077 15.333 3.97794 15.0216 4.01712C14.9803 4.04812 14.9517 4.08815 14.9357 4.13729C14.9185 4.41173 14.9128 4.6864 14.9185 4.96132C11.4106 4.97276 7.90849 4.96129 4.41211 4.92699C6.49551 2.72867 9.01338 1.25227 11.9658 0.497803Z"
            fill="#1DB1FC" />
        <path fill-rule="evenodd" clip-rule="evenodd"
            d="M17.0129 4.96135C17.0072 5.22484 17.0129 5.48808 17.03 5.75105C17.0686 5.82398 17.1201 5.88691 17.1845 5.93989C19.4009 6.22988 21.3008 7.15119 22.8841 8.70384C23.9634 9.80887 24.7645 11.0907 25.2875 12.5493C25.349 12.7388 25.3661 12.9334 25.339 13.133C25.2749 13.2711 25.1662 13.3455 25.0129 13.3562C24.5665 13.3791 24.1202 13.3791 23.6738 13.3562C23.6195 13.3319 23.568 13.3033 23.5193 13.2704C23.415 12.9964 23.2948 12.7332 23.1588 12.4807C22.4025 10.7974 21.2008 9.53841 19.5536 8.70384C17.7344 7.78696 15.8345 7.58669 13.8541 8.10298C13.3455 8.24739 12.8648 8.44767 12.412 8.70384C11.063 9.37169 10.0044 10.356 9.23604 11.6566C9.15292 11.8415 9.18152 12.0074 9.32188 12.1545C9.6163 12.2846 9.91384 12.4047 10.2146 12.515C13.3476 13.7806 16.4835 15.0396 19.6223 16.2918C21.5023 17.0429 23.3793 17.804 25.2532 18.5751C25.3804 18.6917 25.4204 18.8348 25.3734 19.0043C25.1822 19.5581 24.9819 20.1074 24.7725 20.6523C24.6494 20.8641 24.535 21.0816 24.4292 21.3047C23.6599 22.5319 22.6871 23.5734 21.5107 24.4292C20.2468 25.2609 18.862 25.793 17.3562 26.0257C17.2114 26.0605 17.1141 26.1463 17.0644 26.2832C17.0633 26.8358 17.0405 27.3851 16.9957 27.9313C16.9555 27.9791 16.904 28.0078 16.8412 28.0171C16.2689 28.04 15.6967 28.04 15.1245 28.0171C15.0631 27.9902 15.0116 27.9502 14.9699 27.897C14.9252 27.3508 14.9023 26.8014 14.9013 26.2489C14.8628 26.176 14.8113 26.113 14.7468 26.0601C13.2029 25.8298 11.7837 25.2862 10.4893 24.4292C9.2906 23.5968 8.31779 22.5553 7.57081 21.3047C7.45307 21.0804 7.32717 20.8629 7.19312 20.6523C6.95659 20.1676 6.76775 19.664 6.6266 19.1416C6.55223 18.8841 6.63807 18.7067 6.88411 18.6094C7.35336 18.5865 7.82258 18.5865 8.29184 18.6094C8.34341 18.6294 8.38917 18.658 8.42917 18.6953C8.60964 19.0818 8.78705 19.4709 8.96136 19.8626C9.11099 20.1397 9.27693 20.4029 9.45922 20.6523C9.59271 20.9002 9.76439 21.1177 9.97424 21.3047C11.0716 22.6384 12.4679 23.5139 14.1631 23.9313C16.9844 24.5066 19.4394 23.8142 21.5279 21.8541C21.6896 21.6753 21.8441 21.4922 21.9914 21.3047C22.1679 21.1125 22.3281 20.9064 22.4721 20.6867C22.5776 20.5332 22.6748 20.373 22.7639 20.206C22.7987 20.0521 22.7586 19.9205 22.6438 19.8111C19.6865 18.6071 16.7223 17.4226 13.7511 16.2575C11.4005 15.304 9.04291 14.3598 6.6781 13.4249C6.56219 13.354 6.51642 13.251 6.54076 13.1159C6.56658 12.8954 6.62382 12.6837 6.71244 12.4807C7.22451 11.0438 8.0142 9.7849 9.08154 8.70384C10.6899 7.19586 12.5898 6.26308 14.7811 5.90556C14.8493 5.86027 14.8894 5.79733 14.9013 5.71672C14.9184 5.46518 14.9241 5.2134 14.9184 4.96135C14.9127 4.68643 14.9184 4.41175 14.9356 4.13732C14.9516 4.08818 14.9802 4.04815 15.0214 4.01714C15.3329 3.97797 15.6476 3.9608 15.9657 3.96564C16.2837 3.9608 16.5984 3.97797 16.9099 4.01714C16.9428 4.06587 16.9714 4.11737 16.9957 4.17165C17.0129 4.43462 17.0186 4.69787 17.0129 4.96135Z"
            fill="#FEFEFE" />
        <path opacity="0.998" fill-rule="evenodd" clip-rule="evenodd"
            d="M4.412 4.927C7.90838 4.9613 11.4105 4.97277 14.9184 4.96134C14.9241 5.21339 14.9184 5.46517 14.9013 5.7167C14.8894 5.79732 14.8493 5.86026 14.7811 5.90554C12.5897 6.26307 10.6899 7.19584 9.08153 8.70383C6.62652 8.71526 4.17732 8.70379 1.73389 8.66949C2.44038 7.28789 3.33309 6.04041 4.412 4.927Z"
            fill="#1DABFC" />
        <path opacity="0.999" fill-rule="evenodd" clip-rule="evenodd"
            d="M27.485 4.8584C28.5744 5.98245 29.4785 7.2414 30.1974 8.63522C27.7714 8.70379 25.3336 8.72666 22.8841 8.70389C21.3008 7.15124 19.4009 6.22993 17.1846 5.93994C17.1201 5.88696 17.0686 5.82403 17.03 5.7511C17.0129 5.48813 17.0072 5.22489 17.0129 4.9614C20.5151 4.96714 24.0172 4.9614 27.5193 4.94424C27.4935 4.9212 27.482 4.8926 27.485 4.8584Z"
            fill="#1DABFC" />
        <path fill-rule="evenodd" clip-rule="evenodd"
            d="M19.5537 8.70383C17.1732 8.70383 14.7926 8.70383 12.4121 8.70383C12.8649 8.44765 13.3456 8.24738 13.8542 8.10297C15.8346 7.58668 17.7345 7.78695 19.5537 8.70383Z"
            fill="#21AAFC" />
        <path opacity="0.998" fill-rule="evenodd" clip-rule="evenodd"
            d="M1.73399 8.66943C4.17742 8.70373 6.62662 8.7152 9.08163 8.70377C8.0143 9.78483 7.2246 11.0438 6.71253 12.4806C4.58782 12.5032 2.47053 12.4802 0.360596 12.4119C0.656355 11.1008 1.11415 9.85333 1.73399 8.66943Z"
            fill="#1BA5FC" />
        <path opacity="0.998" fill-rule="evenodd" clip-rule="evenodd"
            d="M30.1973 8.63525C30.8314 9.83896 31.2891 11.1093 31.5707 12.4464C29.4703 12.4579 27.3759 12.4922 25.2875 12.5494C24.7644 11.0908 23.9633 9.80895 22.884 8.70392C25.3335 8.72669 27.7713 8.70382 30.1973 8.63525Z"
            fill="#1BA5FC" />
        <path fill-rule="evenodd" clip-rule="evenodd"
            d="M12.412 8.70386C14.7926 8.70386 17.1731 8.70386 19.5537 8.70386C21.2009 9.53843 22.4026 10.7974 23.1588 12.4807C18.8383 12.4692 14.5236 12.4807 10.2146 12.515C9.91388 12.4048 9.61634 12.2846 9.32192 12.1545C9.18156 12.0074 9.15295 11.8415 9.23608 11.6566C10.0044 10.356 11.0631 9.3717 12.412 8.70386Z"
            fill="#1CA5FC" />
        <path opacity="0.999" fill-rule="evenodd" clip-rule="evenodd"
            d="M0.360593 12.4121C2.47052 12.4804 4.58782 12.5033 6.71252 12.4808C6.62391 12.6838 6.56667 12.8955 6.54085 13.116C6.51651 13.2511 6.56227 13.3541 6.67819 13.425C9.043 14.3599 11.4006 15.3041 13.7512 16.2576C9.16173 16.2576 4.57234 16.2576 -0.0170898 16.2576C-0.0170898 15.8113 -0.0170898 15.3649 -0.0170898 14.9185C0.0601702 14.0804 0.186064 13.2449 0.360593 12.4121Z"
            fill="#1A9FFC" />
        <path fill-rule="evenodd" clip-rule="evenodd"
            d="M31.5708 12.4463C31.6685 12.7916 31.7429 13.1464 31.794 13.5107C31.8769 14.109 31.9399 14.7041 31.9828 15.2961C31.9828 15.5937 31.9828 15.8912 31.9828 16.1888C27.8641 16.2459 23.744 16.2802 19.6223 16.2918C16.4835 15.0395 13.3476 13.7806 10.2146 12.515C14.5236 12.4806 18.8383 12.4692 23.1588 12.4806C23.2948 12.7331 23.415 12.9964 23.5193 13.2703C23.568 13.3033 23.6195 13.3319 23.6738 13.3562C24.1202 13.3791 24.5665 13.3791 25.0129 13.3562C25.1662 13.3454 25.2749 13.271 25.3391 13.133C25.3662 12.9333 25.349 12.7388 25.2876 12.5493C27.376 12.4921 29.4704 12.4578 31.5708 12.4463Z"
            fill="#1B9FFC" />
        <path opacity="0.999" fill-rule="evenodd" clip-rule="evenodd"
            d="M31.9828 16.1887C31.9828 16.3604 31.9828 16.5321 31.9828 16.7037C31.8992 18.0409 31.6703 19.357 31.2961 20.6522C29.1216 20.6522 26.9471 20.6522 24.7725 20.6522C24.9819 20.1073 25.1822 19.558 25.3734 19.0042C25.4204 18.8347 25.3804 18.6916 25.2532 18.575C23.3793 17.8039 21.5023 17.0428 19.6223 16.2917C23.744 16.2802 27.8641 16.2458 31.9828 16.1887Z"
            fill="#1A99FC" />
        <path fill-rule="evenodd" clip-rule="evenodd"
            d="M-0.0170898 16.2576C4.57234 16.2576 9.16173 16.2576 13.7512 16.2576C16.7224 17.4226 19.6866 18.6072 22.6439 19.8112C22.7587 19.9205 22.7987 20.0522 22.764 20.2061C22.6749 20.3731 22.5777 20.5333 22.4722 20.6868C18.1403 20.6524 13.8027 20.641 9.4593 20.6524C9.27702 20.403 9.11108 20.1397 8.96145 19.8627C8.78713 19.471 8.60973 19.0818 8.42926 18.6953C8.38926 18.6581 8.34349 18.6295 8.29192 18.6095C7.82267 18.5866 7.35345 18.5866 6.8842 18.6095C6.63815 18.7068 6.55232 18.8842 6.62669 19.1417C6.76784 19.6641 6.95668 20.1677 7.19321 20.6524C5.01869 20.6524 2.84414 20.6524 0.669605 20.6524C0.303242 19.4617 0.0743436 18.2485 -0.0170898 17.0129C-0.0170898 16.7612 -0.0170898 16.5093 -0.0170898 16.2576Z"
            fill="#1998FC" />
        <path fill-rule="evenodd" clip-rule="evenodd"
            d="M0.669434 20.6523C2.84397 20.6523 5.01852 20.6523 7.19304 20.6523C7.32708 20.863 7.45299 21.0804 7.57072 21.3047C5.33652 21.316 3.10476 21.3046 0.875442 21.2704C0.787133 21.0741 0.718464 20.8681 0.669434 20.6523Z"
            fill="#1995FC" />
        <path fill-rule="evenodd" clip-rule="evenodd"
            d="M9.45923 20.6525C13.8026 20.641 18.1402 20.6525 22.4721 20.6868C22.3281 20.9066 22.1679 21.1126 21.9914 21.3048C17.9857 21.3048 13.98 21.3048 9.97425 21.3048C9.7644 21.1178 9.59272 20.9004 9.45923 20.6525Z"
            fill="#1995FC" />
        <path opacity="0.999" fill-rule="evenodd" clip-rule="evenodd"
            d="M24.7725 20.6523C26.9471 20.6523 29.1216 20.6523 31.2962 20.6523C31.2221 20.8748 31.142 21.0923 31.0558 21.3047C28.847 21.3047 26.6381 21.3047 24.4292 21.3047C24.535 21.0816 24.6495 20.8641 24.7725 20.6523Z"
            fill="#1995FC" />
        <path opacity="0.998" fill-rule="evenodd" clip-rule="evenodd"
            d="M0.875488 21.2705C3.1048 21.3047 5.33657 21.3162 7.57077 21.3048C8.31775 22.5555 9.29056 23.5969 10.4892 24.4293C7.78821 24.4293 5.08723 24.4293 2.38622 24.4293C1.75482 23.4411 1.25124 22.3881 0.875488 21.2705Z"
            fill="#1891FC" />
        <path fill-rule="evenodd" clip-rule="evenodd"
            d="M9.97437 21.3047C13.9801 21.3047 17.9858 21.3047 21.9915 21.3047C21.8443 21.4922 21.6898 21.6753 21.528 21.854C19.4395 23.8142 16.9846 24.5066 14.1632 23.9313C12.468 23.5139 11.0717 22.6384 9.97437 21.3047Z"
            fill="#1992FC" />
        <path opacity="0.998" fill-rule="evenodd" clip-rule="evenodd"
            d="M24.4292 21.3047C26.6381 21.3047 28.8469 21.3047 31.0558 21.3047C30.6887 22.4164 30.1851 23.4579 29.5451 24.4292C26.867 24.4292 24.1889 24.4292 21.5107 24.4292C22.6871 23.5734 23.6599 22.5319 24.4292 21.3047Z"
            fill="#1892FC" />
        <path opacity="0.998" fill-rule="evenodd" clip-rule="evenodd"
            d="M2.38623 24.4292C5.08724 24.4292 7.78822 24.4292 10.4892 24.4292C11.7837 25.2863 13.2029 25.8299 14.7467 26.0601C14.8112 26.1131 14.8627 26.176 14.9013 26.2489C14.9023 26.8015 14.9251 27.3508 14.9699 27.897C15.0116 27.9502 15.0631 27.9902 15.1244 28.0172C15.6967 28.0401 16.2689 28.0401 16.8412 28.0172C16.904 28.0078 16.9555 27.9792 16.9957 27.9313C17.0404 27.3851 17.0633 26.8358 17.0643 26.2833C17.1141 26.1463 17.2113 26.0605 17.3562 26.0258C18.8619 25.7931 20.2468 25.2609 21.5107 24.4292C24.1888 24.4292 26.8669 24.4292 29.545 24.4292C28.671 25.8874 27.5723 27.1578 26.2489 28.2404C19.3877 28.206 12.5207 28.1946 5.64803 28.206C4.36045 27.1135 3.27317 25.8546 2.38623 24.4292Z"
            fill="#178CFC" />
        <path opacity="0.996" fill-rule="evenodd" clip-rule="evenodd"
            d="M5.64795 28.2059C12.5206 28.1945 19.3876 28.2059 26.2488 28.2403C23.4493 30.5664 20.2218 31.8139 16.5664 31.9828C16.1773 31.9828 15.7881 31.9828 15.399 31.9828C11.7157 31.811 8.46532 30.552 5.64795 28.2059Z"
            fill="#1687FC" />
    </g>
    <defs>
        <clipPath id="clip0_767_171">
            <rect width="32" height="32" fill="white" />
        </clipPath>
    </defs>
</svg>