<svg width="32" height="32" viewBox="0 0 32 32" fill="none" xmlns="http://www.w3.org/2000/svg">
    <g clip-path="url(#clip0_840_99)">
        <path fill-rule="evenodd" clip-rule="evenodd"
            d="M-0.0712891 0.0711773C-0.0712891 0.0237699 -0.0712891 -0.0236376 -0.0712891 -0.0710449C10.5954 -0.0710449 21.262 -0.0710449 31.9287 -0.0710449C31.9287 10.5956 31.9287 21.2623 31.9287 31.929C31.8814 31.929 31.8338 31.929 31.7865 31.929C31.7865 21.3096 31.7865 10.6904 31.7865 0.0711773C21.1672 0.0711773 10.548 0.0711773 -0.0712891 0.0711773Z"
            fill="#738DE9" />
        <path fill-rule="evenodd" clip-rule="evenodd"
            d="M-0.0712891 0.0710449C10.548 0.0710449 21.1672 0.0710449 31.7865 0.0710449C31.7865 10.6903 31.7865 21.3095 31.7865 31.9288C21.1672 31.9288 10.548 31.9288 -0.0712891 31.9288C-0.0712891 21.3095 -0.0712891 10.6903 -0.0712891 0.0710449Z"
            fill="#3960FA" />
        <path fill-rule="evenodd" clip-rule="evenodd"
            d="M22.1153 16.711C19.5254 16.9857 16.9418 17.3175 14.3641 17.7066C12.7779 17.4942 12.1142 16.5934 12.373 15.0044C12.6338 14.3644 13.0841 13.914 13.7241 13.6533C14.6213 13.3541 15.4984 13.3778 16.3553 13.7244C16.4626 14.1231 16.4153 14.5023 16.213 14.8621C15.5332 15.0238 14.8457 15.1661 14.1508 15.2888C14.0154 15.5085 13.968 15.7456 14.0086 15.9999C16.5224 15.7119 19.035 15.4037 21.5464 15.0755C22.489 14.6359 22.8446 13.9011 22.613 12.871C22.0662 11.9939 21.284 11.6858 20.2664 11.9466C17.9883 12.2787 15.7127 12.6106 13.4397 12.9421C11.4983 13.8832 11.0005 15.3292 11.9464 17.2799C12.8137 18.3622 13.9278 18.7178 15.2886 18.3466C17.7934 17.965 20.3059 17.6569 22.8264 17.4221C23.6503 17.7921 24.3851 18.3136 25.0308 18.9866C25.3498 19.9487 24.9943 20.3516 23.9641 20.1955C23.2697 19.0674 22.2741 18.6881 20.9775 19.0577C20.8108 19.1173 20.6686 19.212 20.5508 19.3421C18.5195 19.6583 16.481 19.919 14.4353 20.1244C14.1982 20.077 13.9612 20.0295 13.7241 19.9821C13.0932 19.1221 12.2398 18.7666 11.1641 18.9155C10.0655 17.6746 9.66255 16.2288 9.95526 14.5777C10.1324 13.9489 10.4169 13.38 10.8086 12.871C10.458 11.9913 9.91283 11.2091 9.17303 10.5244C8.45443 10.4934 7.74332 10.4223 7.0397 10.311C6.48026 9.81921 6.48026 9.32143 7.0397 8.8177C7.94044 8.72288 8.84119 8.72288 9.74192 8.8177C9.93155 8.91252 10.1212 9.00732 10.3108 9.10214C11.0491 9.89243 11.7365 10.7221 12.373 11.591C12.7898 11.3414 13.2401 11.1755 13.7241 11.0933C16.067 10.7586 18.4136 10.4504 20.7641 10.1688C22.4118 10.3002 23.5971 11.1061 24.3197 12.5866C24.5507 14.4959 23.8158 15.8708 22.1153 16.711Z"
            fill="#F7F8FC" />
        <path fill-rule="evenodd" clip-rule="evenodd"
            d="M22.1151 16.711C22.0507 16.8473 21.956 16.9659 21.8307 17.0666C22.1625 17.2149 22.4943 17.3334 22.8262 17.4221C20.3058 17.657 17.7933 17.965 15.2885 18.3466C13.9276 18.7178 12.8135 18.3622 11.9462 17.2799C11.0004 15.3292 11.4982 13.8832 13.4396 12.9421C15.7126 12.6106 17.9881 12.2787 20.2662 11.9466C21.2838 11.6858 22.0661 11.994 22.6129 12.871C22.8444 13.9011 22.4889 14.6359 21.5462 15.0755C19.0349 15.4037 16.5222 15.7119 14.0085 15.9999C13.9679 15.7456 14.0153 15.5085 14.1507 15.2888C14.8456 15.1661 15.5331 15.0239 16.2129 14.8621C16.4151 14.5023 16.4625 14.1231 16.3551 13.7244C15.4982 13.3778 14.6211 13.3541 13.724 13.6533C13.084 13.914 12.6336 14.3644 12.3729 15.0044C12.1141 16.5934 12.7778 17.4943 14.364 17.7066C16.9416 17.3175 19.5253 16.9857 22.1151 16.711Z"
            fill="#3C60F7" />
        <path fill-rule="evenodd" clip-rule="evenodd"
            d="M11.1642 19.271C13.3348 19.3292 14.0696 20.3722 13.3686 22.3999C11.9495 23.6615 10.7643 23.4718 9.81305 21.831C9.63018 20.6319 10.0805 19.7786 11.1642 19.271Z"
            fill="#F8F9FC" />
        <path fill-rule="evenodd" clip-rule="evenodd"
            d="M21.2622 19.2712C23.1357 19.1297 23.9653 19.983 23.7511 21.8312C23.2492 23.0182 22.3721 23.4211 21.12 23.0401C20.048 22.4666 19.6925 21.5897 20.0533 20.409C20.3483 19.9002 20.7512 19.5209 21.2622 19.2712Z"
            fill="#F9FAFD" />
    </g>
    <defs>
        <clipPath id="clip0_840_99">
            <rect width="32" height="32" fill="white" />
        </clipPath>
    </defs>
</svg>