<svg width="32" height="32" viewBox="0 0 32 32" fill="none" xmlns="http://www.w3.org/2000/svg">
<path d="M15.9461 8.98703C19.8277 8.98703 22.9906 12.1505 22.9906 16.0329C22.9906 17.2731 22.6671 18.4773 22.0381 19.5558C21.1216 21.1734 19.5761 22.3597 17.7791 22.845C17.1861 23.0068 16.593 23.0967 15.982 23.0967C14.1119 23.0022 12.3556 22.1694 11.0989 20.7809C9.84212 19.3925 9.18759 17.562 9.279 15.6914C9.45871 12.0786 12.352 9.16677 15.982 8.98703M15.982 3.41913e-06C14.5803 3.41913e-06 13.1786 0.179744 11.8129 0.557199C3.2948 2.87585 -1.75495 11.6472 0.563257 20.1849C2.88146 28.7046 11.6511 33.7553 20.1872 31.4366C28.7052 29.118 33.7549 20.3466 31.4367 11.809C30.5148 8.41629 28.5017 5.42157 25.7085 3.28724C22.9152 1.15291 19.4971 -0.00229367 15.982 3.41913e-06Z" fill="#ED135C"/>
</svg>
