<svg width="32" height="32" viewBox="0 0 32 32" fill="none" xmlns="http://www.w3.org/2000/svg">
    <path
        d="M16.0007 32V28.4445C22.8451 28.4445 28.4452 22.8443 28.4452 16C28.4452 9.15566 22.8447 3.55552 16 3.55552V0C24.8001 0 32 7.19993 32 16C32 24.8001 24.8001 32 16 32H16.0007ZM26.6676 16C26.6676 21.8668 21.8675 26.6669 16.0007 26.6669V23.1114C19.9118 23.1114 23.1117 19.9115 23.1117 16.0004C23.1117 12.0893 19.9118 8.88932 16.0007 8.88932V5.33381C21.8675 5.33381 26.6676 10.1339 26.6676 16.0007V16ZM21.3342 16C21.3342 18.9332 18.9343 21.3335 16.0007 21.3335V17.7779C16.9786 17.7779 17.7786 16.9779 17.7786 16C17.7786 15.0221 16.9786 14.2221 16.0007 14.2221V10.6665C18.9339 10.6665 21.3342 13.0664 21.3342 16Z"
        fill="#2E9BE1" />
    <path opacity="0.67"
        d="M16 0C7.19993 0 0 7.19993 0 16C0 24.8001 7.19993 32 16 32V28.4445C9.15566 28.4445 3.55552 22.8443 3.55552 16C3.55552 9.15566 9.15566 3.55552 16 3.55552V0Z"
        fill="#2E9BE1" />
</svg>
    