<svg width="32" height="32" viewBox="0 0 32 32" fill="none" xmlns="http://www.w3.org/2000/svg">
    <path
        d="M0.789774 14.0416L3.62741 16.2958L12.549 23.1588L16.3974 20.1044C16.5711 19.9092 16.658 19.675 16.645 19.4374C16.632 19.1999 16.5197 18.9723 16.3253 18.7895L12.8122 16.2441L9.02505 13.2236C8.80915 13.022 8.69426 12.766 8.70174 12.5032C8.7072 12.2405 8.83496 11.9884 9.06111 11.794L19.2615 3.69497L14.6174 0L3.62741 8.73493L0.794581 10.9835C0.54459 11.1807 0.343876 11.4183 0.208064 11.6813C-0.0690785 12.2141 -0.0703714 12.8102 0.204459 13.3438C0.340271 13.6068 0.539783 13.8444 0.789774 14.0426V14.0416Z"
        fill="black" />
    <path
        d="M31.2034 17.9584L28.397 15.7051L19.4502 8.84961L15.6006 11.904C15.4267 12.0991 15.3396 12.3334 15.3526 12.571C15.3656 12.8085 15.4781 13.0362 15.6727 13.219L19.187 15.7643L22.9741 18.7849C23.1904 18.9831 23.3058 19.2404 23.2986 19.5062C23.2933 19.7691 23.165 20.0213 22.938 20.2153L12.7317 28.305L17.3757 32L28.3766 23.2651L31.2094 21.0165C31.4594 20.8193 31.6577 20.5807 31.7935 20.3177C32.0687 19.7843 32.0678 19.1882 31.7911 18.6553C31.656 18.3949 31.4563 18.158 31.2034 17.9584Z"
        fill="black" />
</svg>