<svg width="32" height="32" viewBox="0 0 32 32" fill="none" xmlns="http://www.w3.org/2000/svg">
<mask id="mask0_4547_320" style="mask-type:luminance" maskUnits="userSpaceOnUse" x="5" y="0" width="22" height="32">
<path d="M26.112 0.511963H5.888V31.232H26.112V0.511963Z" fill="white"/>
</mask>
<g mask="url(#mask0_4547_320)">
<path opacity="0.995" fill-rule="evenodd" clip-rule="evenodd" d="M18.304 0.383911C18.56 0.383911 18.816 0.383911 19.072 0.383911C19.3495 1.02496 19.6908 1.6223 20.096 2.17591C20.096 2.34658 20.1813 2.43191 20.352 2.43191C20.3081 2.68576 20.3934 2.85644 20.608 2.94391C20.5641 3.19776 20.6494 3.36844 20.864 3.45591C21.1415 4.09696 21.4828 4.69429 21.888 5.24791C22.0442 5.74304 22.3002 6.16969 22.656 6.52791C22.656 6.69859 22.656 6.86924 22.656 7.03991C22.4853 7.03991 22.4 7.12524 22.4 7.29591C21.6752 7.44406 21.0779 7.78538 20.608 8.31991C19.8832 8.46806 19.2859 8.80938 18.816 9.34391C18.5622 9.29998 18.3915 9.38533 18.304 9.59991C18.1333 9.59991 18.048 9.68524 18.048 9.85591C17.7942 9.81198 17.6235 9.89733 17.536 10.1119C17.2822 10.068 17.1115 10.1533 17.024 10.3679C16.5289 10.5241 16.1022 10.7801 15.744 11.1359C15.5733 11.1359 15.488 11.2212 15.488 11.3919C15.3173 11.3919 15.232 11.4772 15.232 11.6479C14.9782 11.604 14.8075 11.6893 14.72 11.9039C14.5493 11.9039 14.464 11.9892 14.464 12.1599C14.2933 12.1599 14.208 12.2452 14.208 12.4159C14.0373 12.4159 13.952 12.5012 13.952 12.6719C13.7813 12.6719 13.696 12.7572 13.696 12.9279C13.5253 12.9279 13.44 13.0132 13.44 13.1839C13.2693 13.1839 13.184 13.2692 13.184 13.4399C12.9694 13.5274 12.8841 13.6981 12.928 13.9519C12.7573 13.9519 12.672 14.0372 12.672 14.2079C12.4574 14.2954 12.3721 14.4661 12.416 14.7199C12.1846 14.9014 12.0993 15.1574 12.16 15.4879C11.8187 16.2559 11.8187 17.0239 12.16 17.7919C12.0993 18.1224 12.1846 18.3784 12.416 18.5599C12.3721 18.8138 12.4574 18.9844 12.672 19.0719C12.8747 19.4474 12.8747 19.7888 12.672 20.0959C12.1834 19.8788 11.6714 19.7934 11.136 19.8399C10.4633 19.5036 9.78059 19.1622 9.08801 18.8159C9.08801 18.6452 9.00269 18.5599 8.83201 18.5599C8.14933 18.0479 7.55201 17.4506 7.04001 16.7679C7.04001 16.5972 6.95469 16.5119 6.78401 16.5119C6.82794 16.2581 6.74259 16.0874 6.52801 15.9999C6.33248 15.3554 6.07648 14.7581 5.76001 14.2079C5.76001 12.8426 5.76001 11.4772 5.76001 10.1119C6.0988 9.35487 6.44015 8.58687 6.78401 7.80791C6.95469 7.80791 7.04001 7.72259 7.04001 7.55191C7.46669 6.95459 7.97869 6.44259 8.57601 6.01591C8.74669 6.01591 8.83201 5.93059 8.83201 5.75991C9.08586 5.80384 9.25653 5.71849 9.34401 5.50391C9.59786 5.54784 9.76853 5.46249 9.85601 5.24791C10.4971 4.97043 11.0944 4.62911 11.648 4.22391C11.8187 4.22391 11.904 4.13859 11.904 3.96791C12.1579 4.01184 12.3285 3.92649 12.416 3.71191C12.6699 3.75584 12.8405 3.67049 12.928 3.45591C13.1819 3.49984 13.3525 3.41449 13.44 3.19991C14.3803 2.81586 15.2336 2.30385 16 1.66391C16.2539 1.70784 16.4245 1.6225 16.512 1.40791C17.1531 1.13044 17.7504 0.789108 18.304 0.383911Z" fill="#D27A31"/>
<path opacity="0.012" fill-rule="evenodd" clip-rule="evenodd" d="M16.512 1.40793C16.2582 1.364 16.0875 1.44933 16 1.66393C15.5191 1.69127 15.4338 1.56327 15.744 1.27993C16.0639 1.09045 16.3199 1.13312 16.512 1.40793Z" fill="#CF673B"/>
<path opacity="0.01" fill-rule="evenodd" clip-rule="evenodd" d="M20.608 2.43187C20.5227 2.43187 20.4373 2.43187 20.352 2.43187C20.1813 2.43187 20.096 2.34654 20.096 2.17587C20.3011 1.58888 20.4718 1.67421 20.608 2.43187Z" fill="#F08013"/>
<path opacity="0.012" fill-rule="evenodd" clip-rule="evenodd" d="M20.608 2.43188C21.125 2.69766 21.2103 3.03901 20.864 3.45588C20.9079 3.20204 20.8226 3.03136 20.608 2.94388C20.608 2.77321 20.608 2.60256 20.608 2.43188Z" fill="#E77B3B"/>
<path opacity="0.02" fill-rule="evenodd" clip-rule="evenodd" d="M13.44 3.19993C13.1862 3.156 13.0155 3.24135 12.928 3.45593C12.6742 3.412 12.5035 3.49735 12.416 3.71193C12.2453 3.71193 12.0747 3.71193 11.904 3.71193C12.3098 3.07661 12.8218 2.90594 13.44 3.19993Z" fill="#BF752A"/>
<path opacity="0.012" fill-rule="evenodd" clip-rule="evenodd" d="M11.904 3.71191C11.904 3.79724 11.904 3.88259 11.904 3.96791C11.7333 3.96791 11.648 4.05324 11.648 4.22391C11.061 4.01878 11.1463 3.84811 11.904 3.71191Z" fill="#BC6940"/>
<path opacity="0.01" fill-rule="evenodd" clip-rule="evenodd" d="M9.856 5.24796C9.60215 5.20403 9.43148 5.28938 9.344 5.50396C9.17333 5.50396 9.00268 5.50396 8.832 5.50396C9.06386 5.12895 9.40518 4.87295 9.856 4.73596C10.1025 4.85623 10.1025 5.02691 9.856 5.24796Z" fill="#DC8629"/>
<path opacity="0.031" fill-rule="evenodd" clip-rule="evenodd" d="M21.888 5.24794C21.9512 4.61429 22.1218 4.61429 22.4 5.24794C22.2797 5.49447 22.1091 5.49447 21.888 5.24794Z" fill="#C28828"/>
<path opacity="0.01" fill-rule="evenodd" clip-rule="evenodd" d="M8.83201 5.50391C8.83201 5.58923 8.83201 5.67458 8.83201 5.75991C8.66134 5.75991 8.57601 5.84523 8.57601 6.01591C7.98903 5.81077 8.07436 5.6401 8.83201 5.50391Z" fill="#DBB41F"/>
<path opacity="0.01" fill-rule="evenodd" clip-rule="evenodd" d="M22.912 7.03997C22.9559 6.78612 22.8706 6.61545 22.656 6.52797C22.6287 6.04705 22.7567 5.96172 23.04 6.27197C23.2295 6.59182 23.1868 6.84782 22.912 7.03997Z" fill="#E46F16"/>
<path opacity="0.01" fill-rule="evenodd" clip-rule="evenodd" d="M22.656 7.03992C22.7413 7.03992 22.8267 7.03992 22.912 7.03992C22.8646 7.21146 22.7792 7.21146 22.656 7.03992Z" fill="#7F8000"/>
<path opacity="0.012" fill-rule="evenodd" clip-rule="evenodd" d="M22.4 7.2959C22.4853 7.2959 22.5707 7.2959 22.656 7.2959C22.6086 7.46744 22.5232 7.46744 22.4 7.2959Z" fill="#A95554"/>
<path opacity="0.031" fill-rule="evenodd" clip-rule="evenodd" d="M7.04001 7.55192C6.86933 7.55192 6.78401 7.63724 6.78401 7.80792C6.47361 7.55266 6.51629 7.29666 6.91201 7.03992C7.03087 7.19208 7.07355 7.36276 7.04001 7.55192Z" fill="#BF811A"/>
<path opacity="0.01" fill-rule="evenodd" clip-rule="evenodd" d="M20.608 8.31995C21.2417 8.3831 21.2417 8.55378 20.608 8.83195C20.3615 8.71168 20.3615 8.541 20.608 8.31995Z" fill="#E3AE31"/>
<path opacity="0.012" fill-rule="evenodd" clip-rule="evenodd" d="M5.76001 8.57593C6.10133 8.7466 6.10133 8.91725 5.76001 9.08793C5.76001 8.91725 5.76001 8.7466 5.76001 8.57593Z" fill="#E99B4D"/>
<path opacity="0.01" fill-rule="evenodd" clip-rule="evenodd" d="M18.816 9.59987C18.816 9.51455 18.816 9.4292 18.816 9.34387C19.4987 9.4292 19.4987 9.51455 18.816 9.59987Z" fill="#E67913"/>
<path opacity="0.01" fill-rule="evenodd" clip-rule="evenodd" d="M18.304 9.59985C18.4747 9.59985 18.6453 9.59985 18.816 9.59985C18.6949 9.95987 18.4389 10.1305 18.048 10.1119C18.048 10.0265 18.048 9.94118 18.048 9.85585C18.2187 9.85585 18.304 9.77053 18.304 9.59985Z" fill="#E3B42E"/>
<path opacity="0.016" fill-rule="evenodd" clip-rule="evenodd" d="M17.536 10.3679C17.536 10.2826 17.536 10.1973 17.536 10.1119C17.7067 10.1119 17.8773 10.1119 18.048 10.1119C17.9605 10.3265 17.7899 10.4119 17.536 10.3679Z" fill="#F08039"/>
<path opacity="0.01" fill-rule="evenodd" clip-rule="evenodd" d="M17.024 10.3679C17.1947 10.3679 17.3653 10.3679 17.536 10.3679C17.0512 11.0557 16.8805 11.0557 17.024 10.3679Z" fill="#D8B22B"/>
<path opacity="0.01" fill-rule="evenodd" clip-rule="evenodd" d="M18.816 11.1359C19.3859 10.8648 19.9832 10.9075 20.608 11.2639C20.0071 11.3493 19.4098 11.3066 18.816 11.1359Z" fill="#921413"/>
<path opacity="0.012" fill-rule="evenodd" clip-rule="evenodd" d="M15.744 11.3919C15.744 11.3065 15.744 11.2212 15.744 11.1359C16.4267 11.2212 16.4267 11.3065 15.744 11.3919Z" fill="#FF9C3F"/>
<path opacity="0.031" fill-rule="evenodd" clip-rule="evenodd" d="M15.488 11.392C15.5733 11.392 15.6587 11.392 15.744 11.392C15.6966 11.5635 15.6112 11.5635 15.488 11.392Z" fill="#DE803F"/>
<path opacity="0.031" fill-rule="evenodd" clip-rule="evenodd" d="M15.232 11.6479C15.3173 11.6479 15.4027 11.6479 15.488 11.6479C15.4406 11.8195 15.3552 11.8195 15.232 11.6479Z" fill="#DE803F"/>
<path opacity="0.016" fill-rule="evenodd" clip-rule="evenodd" d="M18.304 11.392C18.5664 11.4935 18.6091 11.6641 18.432 11.904C18.3131 11.7518 18.2705 11.5811 18.304 11.392Z" fill="#A80003"/>
<path opacity="0.012" fill-rule="evenodd" clip-rule="evenodd" d="M14.72 11.9039C14.8907 11.9039 15.0613 11.9039 15.232 11.9039C15.0369 12.3551 14.6955 12.6111 14.208 12.6719C14.208 12.5866 14.208 12.5013 14.208 12.4159C14.3787 12.4159 14.464 12.3306 14.464 12.1599C14.6347 12.1599 14.72 12.0746 14.72 11.9039Z" fill="#E46732"/>
<path opacity="0.012" fill-rule="evenodd" clip-rule="evenodd" d="M18.56 12.1599C18.9013 12.3306 18.9013 12.3306 18.56 12.1599Z" fill="#A90000"/>
<path opacity="0.987" fill-rule="evenodd" clip-rule="evenodd" d="M25.472 15.9999C25.4281 16.2538 25.5134 16.4245 25.728 16.5119C25.6673 16.8424 25.7526 17.0984 25.984 17.2799C25.984 18.7306 25.984 20.1813 25.984 21.6319C25.7526 21.8135 25.6673 22.0695 25.728 22.3999C25.1559 23.1145 24.6439 23.8825 24.192 24.7039C24.0213 24.7039 23.936 24.7893 23.936 24.9599C23.3484 25.2094 22.8364 25.5508 22.4 25.9839C22.1461 25.9399 21.9755 26.0254 21.888 26.2399C21.7173 26.2399 21.632 26.3252 21.632 26.4959C21.3781 26.4519 21.2075 26.5374 21.12 26.7519C20.8661 26.7079 20.6955 26.7934 20.608 27.0079C20.1129 27.1641 19.6862 27.4201 19.328 27.7759C18.6032 27.9242 18.0059 28.2654 17.536 28.7999C16.9795 28.8639 16.5528 29.1199 16.256 29.5679C16.0021 29.5239 15.8315 29.6094 15.744 29.8239C15.4901 29.7799 15.3195 29.8654 15.232 30.0799C14.7369 30.2361 14.3102 30.4921 13.952 30.8479C13.6981 30.8039 13.5275 30.8894 13.44 31.1039C13.184 31.1039 12.928 31.1039 12.672 31.1039C12.7159 30.85 12.6306 30.6795 12.416 30.5919C12.2598 30.0968 12.0038 29.6701 11.648 29.3119C11.6919 29.058 11.6066 28.8875 11.392 28.7999C11.0079 27.8597 10.4959 27.0064 9.856 26.2399C9.79207 25.6834 9.53607 25.2568 9.088 24.9599C9.06603 24.705 9.15138 24.4917 9.344 24.3199C10.156 23.8856 10.924 23.4163 11.648 22.9119C11.8187 22.9119 11.904 22.8266 11.904 22.6559C12.3272 22.6151 12.6685 22.4444 12.928 22.1439C14.4677 21.5461 15.833 20.6927 17.024 19.5839C17.1947 19.5839 17.28 19.4986 17.28 19.3279C20.0357 17.2358 20.5477 14.6758 18.816 11.6479C21.8159 11.8203 24.0345 13.2709 25.472 15.9999Z" fill="#9A1F21"/>
<path opacity="0.012" fill-rule="evenodd" clip-rule="evenodd" d="M22.4 12.1599C22.7413 12.3306 22.7413 12.3306 22.4 12.1599Z" fill="#A90000"/>
<path opacity="0.027" fill-rule="evenodd" clip-rule="evenodd" d="M13.952 12.6719C14.0373 12.6719 14.1227 12.6719 14.208 12.6719C14.1606 12.8434 14.0752 12.8434 13.952 12.6719Z" fill="#DA6D23"/>
<path opacity="0.027" fill-rule="evenodd" clip-rule="evenodd" d="M13.696 12.9279C13.7813 12.9279 13.8667 12.9279 13.952 12.9279C13.9046 13.0994 13.8192 13.0994 13.696 12.9279Z" fill="#B56D23"/>
<path opacity="0.024" fill-rule="evenodd" clip-rule="evenodd" d="M13.44 13.184C13.5253 13.184 13.6107 13.184 13.696 13.184C13.6486 13.3555 13.5632 13.3555 13.44 13.184Z" fill="#D4802A"/>
<path opacity="0.012" fill-rule="evenodd" clip-rule="evenodd" d="M13.184 13.4399C13.2693 13.4399 13.3547 13.4399 13.44 13.4399C13.484 13.6938 13.3986 13.8645 13.184 13.9519C13.184 13.7813 13.184 13.6106 13.184 13.4399Z" fill="#E99B4D"/>
<path opacity="0.01" fill-rule="evenodd" clip-rule="evenodd" d="M12.928 13.9519C13.0133 13.9519 13.0987 13.9519 13.184 13.9519C13.0579 14.5454 12.8019 15.0574 12.416 15.4879C12.416 15.2319 12.416 14.9759 12.416 14.7199C12.6306 14.6324 12.7159 14.4618 12.672 14.2079C12.8427 14.2079 12.928 14.1226 12.928 13.9519Z" fill="#DF8B23"/>
<path opacity="0.027" fill-rule="evenodd" clip-rule="evenodd" d="M19.072 13.184C19.5423 13.9568 19.6703 14.8102 19.456 15.744C19.2998 14.8922 19.1718 14.0388 19.072 13.184Z" fill="#932927"/>
<path opacity="0.012" fill-rule="evenodd" clip-rule="evenodd" d="M5.76001 15.2319C5.97459 15.3194 6.05994 15.4901 6.01601 15.7439C5.93068 15.7439 5.84533 15.7439 5.76001 15.7439C5.76001 15.5733 5.76001 15.4026 5.76001 15.2319Z" fill="#B1634E"/>
<path opacity="0.01" fill-rule="evenodd" clip-rule="evenodd" d="M6.016 15.7439C6.18668 15.8292 6.35733 15.9146 6.528 15.9999C6.528 16.1706 6.528 16.3412 6.528 16.5119C6.16799 16.3908 5.99731 16.1348 6.016 15.7439Z" fill="#F19618"/>
<path opacity="0.031" fill-rule="evenodd" clip-rule="evenodd" d="M25.984 15.744C25.984 16 25.984 16.256 25.984 16.512C25.8988 16.512 25.8133 16.512 25.728 16.512C25.7721 16.2581 25.6865 16.0874 25.472 16C25.4487 15.4374 25.6192 15.352 25.984 15.744Z" fill="#A51311"/>
<path opacity="0.01" fill-rule="evenodd" clip-rule="evenodd" d="M6.52802 16.512C6.61334 16.512 6.69869 16.512 6.78402 16.512C6.95469 16.512 7.04002 16.5973 7.04002 16.768C6.83488 17.3549 6.66421 17.2696 6.52802 16.512Z" fill="#E96233"/>
<path opacity="0.024" fill-rule="evenodd" clip-rule="evenodd" d="M12.16 15.4879C12.2453 15.4879 12.3307 15.4879 12.416 15.4879C12.3185 16.8453 12.5745 18.1253 13.184 19.3279C13.0133 19.2426 12.8427 19.1572 12.672 19.0719C12.7159 18.8181 12.6306 18.6474 12.416 18.5599C12.4768 18.2294 12.3914 17.9734 12.16 17.7919C12.16 17.0239 12.16 16.2559 12.16 15.4879Z" fill="#C27F32"/>
<path opacity="0.027" fill-rule="evenodd" clip-rule="evenodd" d="M8.83201 18.5599C9.00268 18.5599 9.08801 18.6452 9.08801 18.8159C8.83275 19.1263 8.57675 19.0836 8.32001 18.6879C8.47217 18.569 8.64285 18.5264 8.83201 18.5599Z" fill="#F28B20"/>
<path opacity="0.012" fill-rule="evenodd" clip-rule="evenodd" d="M17.28 19.3279C17.1093 19.3279 17.024 19.4132 17.024 19.5839C16.3904 19.5207 16.3904 19.3501 17.024 19.0719C17.1793 19.1035 17.2646 19.1889 17.28 19.3279Z" fill="#87110B"/>
<path opacity="0.01" fill-rule="evenodd" clip-rule="evenodd" d="M13.184 19.3279C13.4464 19.4294 13.4891 19.6001 13.312 19.8399C13.1932 19.6877 13.1505 19.517 13.184 19.3279Z" fill="#90732A"/>
<path opacity="0.01" fill-rule="evenodd" clip-rule="evenodd" d="M11.136 19.8399C11.4198 20.0421 11.7611 20.1701 12.16 20.2239C11.5274 20.4047 10.93 20.3194 10.368 19.9679C10.6107 19.8443 10.8667 19.8016 11.136 19.8399Z" fill="#F17525"/>
<path opacity="0.01" fill-rule="evenodd" clip-rule="evenodd" d="M12.416 20.6079C12.5175 20.3455 12.6882 20.3029 12.928 20.4799C12.7758 20.5988 12.6052 20.6415 12.416 20.6079Z" fill="#FFC1F7"/>
<path opacity="0.016" fill-rule="evenodd" clip-rule="evenodd" d="M13.44 21.3759C13.7813 21.5465 13.7813 21.5465 13.44 21.3759Z" fill="#7F0000"/>
<path opacity="0.01" fill-rule="evenodd" clip-rule="evenodd" d="M12.928 22.144C12.2943 22.0808 12.2943 21.9101 12.928 21.632C13.1745 21.7522 13.1745 21.9229 12.928 22.144Z" fill="#D91810"/>
<path opacity="0.012" fill-rule="evenodd" clip-rule="evenodd" d="M11.904 22.6559C11.7333 22.6559 11.648 22.7412 11.648 22.9119C11.0143 22.8487 11.0143 22.6781 11.648 22.3999C11.8033 22.4315 11.8886 22.5169 11.904 22.6559Z" fill="#B41611"/>
<path opacity="0.02" fill-rule="evenodd" clip-rule="evenodd" d="M25.728 22.3999C25.8133 22.3999 25.8988 22.3999 25.984 22.3999C25.984 22.5706 25.984 22.7412 25.984 22.9119C25.7695 22.8244 25.684 22.6538 25.728 22.3999Z" fill="#9B2D2C"/>
<path opacity="0.012" fill-rule="evenodd" clip-rule="evenodd" d="M9.60001 23.6798C9.70154 23.4174 9.87219 23.3748 10.112 23.5518C9.95984 23.6707 9.78916 23.7134 9.60001 23.6798Z" fill="#C50000"/>
<path opacity="0.02" fill-rule="evenodd" clip-rule="evenodd" d="M9.60001 23.6799C9.49848 23.9423 9.32783 23.985 9.08801 23.8079C9.24018 23.689 9.41085 23.6464 9.60001 23.6799Z" fill="#912523"/>
<path opacity="0.016" fill-rule="evenodd" clip-rule="evenodd" d="M8.832 24.9599C8.5696 24.8583 8.52693 24.6877 8.704 24.4479C8.82286 24.6 8.86554 24.7707 8.832 24.9599Z" fill="#B83938"/>
<path opacity="0.024" fill-rule="evenodd" clip-rule="evenodd" d="M24.192 24.7039C24.5333 24.8745 24.5333 24.8745 24.192 24.7039Z" fill="#A92B2A"/>
<path opacity="0.027" fill-rule="evenodd" clip-rule="evenodd" d="M23.936 24.96C24.0213 24.96 24.1067 24.96 24.192 24.96C24.1446 25.1315 24.0592 25.1315 23.936 24.96Z" fill="#912423"/>
<path opacity="0.01" fill-rule="evenodd" clip-rule="evenodd" d="M8.832 24.96C8.91732 24.96 9.00267 24.96 9.088 24.96C9.088 25.1306 9.088 25.3013 9.088 25.472C8.87342 25.3845 8.78807 25.2138 8.832 24.96Z" fill="#331410"/>
<path opacity="0.016" fill-rule="evenodd" clip-rule="evenodd" d="M9.08801 25.4719C9.42934 25.6427 9.42934 25.6427 9.08801 25.4719Z" fill="#7F0000"/>
<path opacity="0.01" fill-rule="evenodd" clip-rule="evenodd" d="M22.4 26.2399C22.4 26.1546 22.4 26.0691 22.4 25.9839C23.0827 26.0691 23.0827 26.1546 22.4 26.2399Z" fill="#8D1110"/>
<path opacity="0.016" fill-rule="evenodd" clip-rule="evenodd" d="M9.85602 26.2399C9.79287 26.8735 9.62219 26.8735 9.34402 26.2399C9.46429 25.9934 9.63497 25.9934 9.85602 26.2399Z" fill="#BC2720"/>
<path opacity="0.01" fill-rule="evenodd" clip-rule="evenodd" d="M21.888 26.2399C22.0587 26.2399 22.2293 26.2399 22.4 26.2399C22.2789 26.5998 22.0229 26.7706 21.632 26.7519C21.632 26.6666 21.632 26.5811 21.632 26.4959C21.8027 26.4959 21.888 26.4106 21.888 26.2399Z" fill="#C81A15"/>
<path opacity="0.02" fill-rule="evenodd" clip-rule="evenodd" d="M21.12 27.008C21.12 26.9227 21.12 26.8372 21.12 26.752C21.2907 26.752 21.4613 26.752 21.632 26.752C21.5445 26.9665 21.3738 27.052 21.12 27.008Z" fill="#9E3030"/>
<path opacity="0.012" fill-rule="evenodd" clip-rule="evenodd" d="M20.608 27.0079C20.7787 27.0079 20.9493 27.0079 21.12 27.0079C20.6352 27.6958 20.4645 27.6958 20.608 27.0079Z" fill="#98100C"/>
<path opacity="0.01" fill-rule="evenodd" clip-rule="evenodd" d="M19.328 27.776C19.5172 27.7424 19.6878 27.7852 19.84 27.904C19.6002 28.0811 19.4295 28.0384 19.328 27.776Z" fill="#391613"/>
<path opacity="0.012" fill-rule="evenodd" clip-rule="evenodd" d="M11.392 28.7999C11.3481 29.0539 11.4334 29.2244 11.648 29.3119C11.6753 29.793 11.5473 29.8782 11.264 29.5679C11.0745 29.2482 11.1172 28.9922 11.392 28.7999Z" fill="#A20011"/>
<path opacity="0.01" fill-rule="evenodd" clip-rule="evenodd" d="M17.536 28.7999C18.123 29.005 18.0377 29.1757 17.28 29.3119C17.3653 29.1412 17.4507 28.9707 17.536 28.7999Z" fill="#C22C21"/>
<path opacity="0.01" fill-rule="evenodd" clip-rule="evenodd" d="M17.28 29.312C17.1785 29.5744 17.0078 29.6171 16.768 29.44C16.9202 29.3212 17.0908 29.2784 17.28 29.312Z" fill="#E10000"/>
<path opacity="0.02" fill-rule="evenodd" clip-rule="evenodd" d="M16.256 29.5679C16.5973 29.7386 16.5973 29.7386 16.256 29.5679Z" fill="#983332"/>
<path opacity="0.01" fill-rule="evenodd" clip-rule="evenodd" d="M15.744 30.0799C15.744 29.9946 15.744 29.9091 15.744 29.8239C15.9147 29.8239 16.0853 29.8239 16.256 29.8239C16.1685 30.0384 15.9979 30.1239 15.744 30.0799Z" fill="#860F0E"/>
<path opacity="0.01" fill-rule="evenodd" clip-rule="evenodd" d="M15.232 30.08C15.4027 30.08 15.5733 30.08 15.744 30.08C15.2592 30.7678 15.0885 30.7678 15.232 30.08Z" fill="#C31915"/>
<path opacity="0.027" fill-rule="evenodd" clip-rule="evenodd" d="M12.416 30.592C12.416 30.7627 12.416 30.9332 12.416 31.104C12.3307 31.104 12.2453 31.104 12.16 31.104C11.7733 30.5054 11.8586 30.3349 12.416 30.592Z" fill="#A72B25"/>
<path opacity="0.016" fill-rule="evenodd" clip-rule="evenodd" d="M13.952 31.1039C13.952 31.0186 13.952 30.9331 13.952 30.8479C14.2058 30.8039 14.3765 30.8894 14.464 31.1039C14.2933 31.1039 14.1227 31.1039 13.952 31.1039Z" fill="#A92E2B"/>
</g>
</svg>
