<svg width="32" height="32" viewBox="0 0 32 32" fill="none" xmlns="http://www.w3.org/2000/svg">
<path d="M2.13336 11.7333C2.13336 5.33332 6.93336 0.533325 13.3334 0.533325C19.2 0.533325 24 5.33332 24 11.7333V12.2667C24 18.1333 19.2 22.9333 13.3334 22.9333H4.80003C3.20003 22.9333 2.13336 21.8667 2.13336 20.2667V11.7333Z" fill="#F7A6EE"/>
<path d="M28.2667 14.9333C30.4 16.5333 30.4 20.2667 28.2667 21.8667L13.8667 30.4C11.2 32 8 29.8667 8 26.6667V10.1333C8 6.93333 11.2 4.79999 13.8667 6.4L28.2667 14.9333Z" fill="#7308FA"/>
<path fill-rule="evenodd" clip-rule="evenodd" d="M24 12.8C24 18.6667 19.2 22.9333 13.3333 22.9333H8V10.1333C8 6.93333 11.2 4.79999 13.8667 6.4L24 12.8Z" fill="#8E34FF"/>
</svg>
