<svg width="32" height="32" viewBox="0 0 32 32" fill="none" xmlns="http://www.w3.org/2000/svg">
    <g clip-path="url(#clip0_798_70)">
        <path
            d="M16.0245 19.6941L10.4333 14.3025L0.727868 4.94496C0.718938 4.92887 0.70129 4.92887 0.69236 4.92887C0.338021 4.62167 -0.0252484 5.26826 0.107642 5.91466L5.05297 28.924L5.05382 28.9289C5.05914 28.9516 5.0636 28.9741 5.06892 28.9967C5.27187 29.8549 5.71477 30.385 6.19679 30.5934C6.2375 30.6097 6.26663 30.6243 6.31554 30.6421C6.36433 30.6619 6.43248 30.6889 6.49095 30.697C6.50052 30.6986 6.50945 30.6986 6.51923 30.7001H6.52635C6.53337 30.7019 6.54049 30.7019 6.54762 30.7034H6.55729C6.56356 30.705 6.57058 30.705 6.57685 30.705H6.58833C6.59546 30.7067 6.60247 30.7067 6.6096 30.7067C12.8726 31.9524 19.1914 31.9524 25.4544 30.7067C25.5297 30.7067 25.6032 30.7001 25.674 30.6873L25.7415 30.6728C25.7441 30.671 25.7476 30.671 25.7503 30.6695C25.7654 30.6662 25.7804 30.6613 25.7955 30.6565C25.8176 30.6516 25.8398 30.6437 25.8619 30.6355C25.9062 30.6177 25.9263 30.6049 25.9865 30.5671C26.0466 30.5294 26.1464 30.4635 26.2088 30.4086C26.2713 30.3537 26.3146 30.301 26.3669 30.2413C26.4315 30.1673 26.4944 30.0886 26.5555 30.0054C26.5824 29.9678 26.6008 29.9438 26.6202 29.9098L26.6096 29.8986L16.0245 19.6941Z"
            fill="#FF4B4B" />
        <path
            d="M31.3373 4.94503H31.3285L21.6194 14.3026L27.0165 28.9662L31.9494 5.91472V5.88234C32.0735 5.20355 31.6926 4.58954 31.3373 4.94503Z"
            fill="#7D353B" />
        <path
            d="M16.5419 0.49561C16.2938 -0.165529 15.7534 -0.165529 15.5142 0.49561L10.4333 14.3025L16.0245 19.6941L26.6204 29.9096C26.6869 29.7907 26.7403 29.675 26.7966 29.5526C26.8791 29.3691 26.9526 29.1728 27.0164 28.9659L21.6192 14.3025L16.5419 0.49561Z"
            fill="#BD4043" />
    </g>
    <defs>
        <clipPath id="clip0_798_70">
            <rect width="32" height="32" fill="white" />
        </clipPath>
    </defs>
</svg>