<svg width="32" height="32" viewBox="0 0 32 32" fill="none" xmlns="http://www.w3.org/2000/svg">
<path d="M26.1078 5.2H4.5152V26.7928H26.108L26.1078 5.2Z" fill="#809CC9"/>
<path d="M26.1078 5.2H4.5152V26.7928H26.108L26.1078 5.2Z" fill="#809CC9"/>
<path d="M26.2946 7.825L26.627 9.1416C23.57 9.5848 20.8498 10.1072 18.4666 10.709C15.8952 11.3584 13.827 12.0182 12.2616 12.6882C10.6928 13.345 9.9602 13.8786 10.0636 14.2882C10.1548 14.6496 10.8106 14.8134 12.0362 14.7788C12.6644 14.7672 13.6866 14.699 15.1032 14.5732C16.5198 14.448 18.3474 14.266 20.5862 14.028C24.706 13.5992 27.5386 13.4126 29.0844 13.468C30.6266 13.51 31.4732 13.8248 31.622 14.413C31.8234 15.2106 30.3612 16.2792 27.2358 17.6182C24.1044 18.9448 20.0598 20.2334 15.1054 21.4846C10.9346 22.5376 7.3388 23.2904 4.3176 23.7428L3.9886 22.4408C7.5622 21.9298 10.776 21.3142 13.6296 20.5936C16.2948 19.9208 18.3484 19.2678 19.7896 18.6338C21.2306 18 21.8962 17.4658 21.7862 17.03C21.6908 16.6528 21.0252 16.4602 19.7916 16.4518C19.1598 16.4586 18.2896 16.5032 17.1792 16.5854C16.066 16.6682 14.6834 16.7966 13.0314 16.97C10.4686 17.245 8.339 17.453 6.6454 17.5942C4.9494 17.736 3.6852 17.8044 2.8502 17.8002C1.2482 17.7854 0.372197 17.4762 0.220197 16.8746C0.0153966 16.0624 1.3682 15.0356 4.2792 13.794C7.2206 12.5404 11.2052 11.2788 16.2382 10.008C19.719 9.1292 23.071 8.4016 26.2946 7.825Z" fill="white"/>
<path d="M5.4452 19.0406C5.501 19.0406 5.5494 19.0616 5.5908 19.1038C5.6318 19.1448 5.6526 19.194 5.6526 19.251C5.6526 19.3104 5.6318 19.3606 5.5908 19.4018C5.5496 19.4428 5.5 19.4634 5.4418 19.4634C5.3824 19.4634 5.3322 19.4428 5.2912 19.4016C5.25 19.3594 5.2294 19.3092 5.2294 19.251C5.2294 19.1916 5.25 19.142 5.2912 19.102C5.3332 19.0612 5.3846 19.0406 5.4452 19.0406ZM5.4452 20.4012C5.501 20.4012 5.5494 20.4226 5.5908 20.4648C5.6318 20.5062 5.6526 20.556 5.6526 20.6144C5.6526 20.6728 5.6318 20.7226 5.5908 20.764C5.5474 20.8042 5.4978 20.8242 5.4418 20.8242C5.4122 20.8242 5.3844 20.8188 5.3588 20.8078C5.3332 20.797 5.3106 20.7822 5.2912 20.7632C5.2716 20.7442 5.2566 20.722 5.2456 20.696C5.2346 20.6702 5.2294 20.6424 5.2294 20.6126C5.2294 20.5542 5.25 20.5042 5.2912 20.463C5.3332 20.4218 5.3846 20.4012 5.4452 20.4012Z" fill="white"/>
<path d="M6.176 19.0406C6.232 19.0406 6.2804 19.0616 6.3216 19.1038C6.3628 19.1448 6.3834 19.194 6.3834 19.251C6.3834 19.3104 6.3628 19.3606 6.3216 19.4018C6.2806 19.4428 6.231 19.4634 6.1728 19.4634C6.1134 19.4634 6.063 19.4428 6.022 19.4016C5.9808 19.3594 5.9602 19.3092 5.9602 19.251C5.9602 19.1916 5.9808 19.142 6.022 19.102C6.0642 19.0612 6.1156 19.0406 6.176 19.0406ZM6.176 20.4012C6.232 20.4012 6.2804 20.4226 6.3216 20.4648C6.3628 20.5062 6.3834 20.556 6.3834 20.6144C6.3834 20.6728 6.3628 20.7226 6.3216 20.764C6.2782 20.8042 6.2286 20.8242 6.1728 20.8242C6.1432 20.8242 6.1154 20.8188 6.0896 20.8078C6.064 20.797 6.0414 20.7822 6.022 20.7632C6.0026 20.7442 5.9874 20.722 5.9766 20.696C5.9656 20.6702 5.9602 20.6424 5.9602 20.6126C5.9602 20.5542 5.9808 20.5042 6.022 20.463C6.0642 20.4218 6.1156 20.4012 6.176 20.4012Z" fill="white"/>
</svg>
