<svg width="32" height="32" viewBox="0 0 33 33" fill="none" xmlns="http://www.w3.org/2000/svg">
    <path fill-rule="evenodd" clip-rule="evenodd"
        d="M17.9474 0.609937C18.2605 0.725322 18.5924 0.769591 18.943 0.742739C19.9475 0.887592 20.9209 1.13106 21.8633 1.47315C22.013 1.598 22.19 1.6644 22.3943 1.67235C26.5492 3.38297 29.5469 6.3046 31.3876 10.4372C31.5543 10.9473 31.7202 11.4564 31.8854 11.9645C31.8794 12.1406 31.9236 12.2955 32.0182 12.4293C32.5196 14.3902 32.6744 16.3822 32.4827 18.4053C32.3687 18.6442 32.2913 18.9098 32.2505 19.2021C32.2175 19.3778 32.2064 19.5549 32.2173 19.7333C32.2087 19.8473 32.1866 19.958 32.1509 20.0654C32.0464 20.2916 31.9801 20.535 31.9518 20.7958C31.8658 21.1643 31.7551 21.5184 31.6199 21.8582C31.5254 21.992 31.4812 22.1469 31.4872 22.323C29.7256 26.5643 26.7389 29.5966 22.527 31.4199C22.2671 31.3883 22.0459 31.4547 21.8633 31.6191C20.9198 31.9612 19.9463 32.2047 18.943 32.3495C18.7427 32.3385 18.5436 32.3496 18.3457 32.3827C18.3088 32.4081 18.2867 32.4413 18.2793 32.4823C17.1729 32.5681 16.0667 32.5681 14.9607 32.4823C14.4445 32.3519 13.9135 32.2634 13.3678 32.2167C13.1908 32.1946 13.0138 32.1724 12.8368 32.1503C12.5719 32.0104 12.2844 31.9219 11.974 31.8847C7.58978 30.4869 4.33759 27.7423 2.21742 23.651C2.2005 23.4872 2.13413 23.3544 2.01831 23.2526C1.89446 22.99 1.78384 22.7244 1.68645 22.4558C1.67387 22.233 1.6075 22.0338 1.48734 21.8582C1.35214 21.5184 1.24152 21.1643 1.15548 20.7958C1.12723 20.535 1.06085 20.2916 0.956366 20.0654C0.920658 19.958 0.898537 19.8473 0.889995 19.7333C0.891939 19.3837 0.847696 19.0407 0.757252 18.7041C0.752692 18.5723 0.708449 18.4727 0.624509 18.4053C0.541525 17.2541 0.541525 16.1032 0.624509 14.9525C0.735834 14.6839 0.780077 14.3962 0.757252 14.0893C0.815307 13.525 0.925928 12.9717 1.08911 12.4293C1.18361 12.2955 1.22786 12.1406 1.22185 11.9645C1.9145 9.54814 3.13131 7.44543 4.87227 5.65639C4.97299 5.6571 5.05042 5.70136 5.10457 5.78919C5.12379 5.62639 5.16804 5.47145 5.23732 5.32439C5.40017 5.19549 5.52185 5.04055 5.60236 4.85958C6.74799 3.77723 8.03115 2.89188 9.4519 2.20355C9.73072 2.15553 9.97411 2.04486 10.182 1.87155C10.3603 1.88245 10.5373 1.87138 10.713 1.83835C10.8828 1.69871 11.0598 1.57698 11.2439 1.47315C11.3936 1.34829 11.5706 1.28189 11.7749 1.27394C12.0179 1.25911 12.2392 1.19271 12.4386 1.07474C12.7436 0.987412 13.0533 0.921011 13.3678 0.87554C13.9135 0.828814 14.4445 0.740282 14.9607 0.609937C15.9568 0.525529 16.9523 0.525529 17.9474 0.609937Z"
        fill="#51B749" />
    <path fill-rule="evenodd" clip-rule="evenodd"
        d="M17.9474 0.609899C18.2981 0.583046 18.6299 0.627316 18.943 0.7427C18.5924 0.769553 18.2605 0.725283 17.9474 0.609899Z"
        fill="#8ECC86" />
    <path fill-rule="evenodd" clip-rule="evenodd"
        d="M14.9607 0.609985C14.4445 0.74033 13.9135 0.828862 13.3678 0.875588C13.8787 0.716632 14.4096 0.628093 14.9607 0.609985Z"
        fill="#89C780" />
    <path fill-rule="evenodd" clip-rule="evenodd"
        d="M12.4386 1.07471C12.2392 1.19267 12.0179 1.25908 11.7749 1.27391C11.9743 1.15594 12.1956 1.08954 12.4386 1.07471Z"
        fill="#9AD195" />
    <path fill-rule="evenodd" clip-rule="evenodd"
        d="M21.8633 1.47314C22.0676 1.48109 22.2446 1.54749 22.3943 1.67235C22.19 1.6644 22.013 1.598 21.8633 1.47314Z"
        fill="#89C382" />
    <path fill-rule="evenodd" clip-rule="evenodd"
        d="M11.2439 1.47314C11.0598 1.57698 10.8828 1.69871 10.713 1.83835C10.5373 1.87138 10.3603 1.88245 10.182 1.87155C10.5126 1.69939 10.8665 1.56658 11.2439 1.47314Z"
        fill="#67B960" />
    <path fill-rule="evenodd" clip-rule="evenodd"
        d="M10.182 1.87158C9.97411 2.04489 9.73072 2.15556 9.4519 2.20359C9.67417 2.05529 9.91749 1.94462 10.182 1.87158Z"
        fill="#92CE8E" />
    <path fill-rule="evenodd" clip-rule="evenodd"
        d="M5.60236 4.85962C5.52185 5.04059 5.40017 5.19553 5.23732 5.32442C5.16804 5.47149 5.12379 5.62642 5.10458 5.78923C5.05042 5.70139 4.97299 5.65713 4.87228 5.65643C5.06712 5.35063 5.31049 5.08503 5.60236 4.85962Z"
        fill="#73BD6B" />
    <path fill-rule="evenodd" clip-rule="evenodd"
        d="M18.2129 5.922C18.3118 6.04018 18.4446 6.08445 18.6111 6.0548C18.8646 6.04909 19.1079 6.09336 19.3412 6.18761C19.4476 6.29212 19.5803 6.33641 19.7395 6.32041C23.4111 7.54749 25.8115 10.0264 26.9407 13.7573C27.04 14.1981 27.1174 14.6408 27.173 15.0853C27.1879 15.3296 27.2101 15.5731 27.2394 15.8157C27.2311 16.4139 27.209 17.0115 27.173 17.6085C27.173 17.7192 27.173 17.8298 27.173 17.9405C27.173 18.029 27.173 18.1176 27.173 18.2061C27.1321 18.2135 27.0989 18.2356 27.0735 18.2725C27.0426 18.5612 27.0094 18.849 26.9739 19.1357C26.8271 19.5932 26.6832 20.058 26.5425 20.5302C26.1872 21.2233 25.8221 21.9094 25.4474 22.5886C25.0723 23.0526 24.6961 23.5174 24.3191 23.983C23.9374 24.2977 23.5613 24.6297 23.1908 24.979C22.6068 25.3881 22.0094 25.7644 21.3987 26.1078C21.235 26.1248 21.1023 26.1912 21.0005 26.307C20.9202 26.3357 20.8538 26.38 20.8014 26.4398C20.4116 26.4892 20.0576 26.622 19.7395 26.8382C19.4442 26.8734 19.1566 26.9398 18.8766 27.0374C18.6763 27.0265 18.4772 27.0376 18.2793 27.0706C18.2424 27.0961 18.2203 27.1293 18.2129 27.1702C17.65 27.2253 17.0858 27.2696 16.5204 27.303C15.9556 27.263 15.3915 27.2188 14.828 27.1702C14.7291 27.052 14.5963 27.0078 14.4297 27.0374C13.9788 26.98 13.5363 26.8804 13.1023 26.7386C12.3568 26.4594 11.6378 26.1385 10.9453 25.7758C9.18701 26.4731 7.42817 27.1592 5.66873 27.8342C5.7462 27.5023 5.83469 27.1703 5.93422 26.8382C6.11275 26.6344 6.20125 26.391 6.1997 26.1078C6.32634 25.8155 6.41481 25.5056 6.46519 25.1782C6.62116 24.5734 6.79811 23.9758 6.99616 23.3854C7.07912 23.3803 7.13441 23.336 7.16209 23.2526C7.19043 22.9146 7.24571 22.5826 7.32802 22.2566C7.26941 21.8328 7.10348 21.4565 6.83023 21.1278C6.5374 20.4774 6.3051 19.8134 6.13333 19.1357C6.09779 18.849 6.0646 18.5612 6.03377 18.2725C6.00838 18.2356 5.97519 18.2135 5.93422 18.2061C5.93422 18.1176 5.93422 18.029 5.93422 17.9405C5.93422 17.8298 5.93422 17.7192 5.93422 17.6085C5.89831 17.0115 5.87618 16.4139 5.86785 15.8157C5.90242 15.5514 5.92454 15.2858 5.93422 15.0189C6.58784 11.2114 8.64535 8.45572 12.1068 6.75201C14.0644 5.91356 16.0999 5.63689 18.2129 5.922Z"
        fill="#FBFDFB" />
    <path fill-rule="evenodd" clip-rule="evenodd"
        d="M18.2129 5.922C18.3721 5.90602 18.5048 5.95029 18.6111 6.0548C18.4445 6.08445 18.3118 6.04018 18.2129 5.922Z"
        fill="#BBE9B6" />
    <path fill-rule="evenodd" clip-rule="evenodd"
        d="M19.3412 6.18763C19.5004 6.17165 19.6331 6.21592 19.7395 6.32043C19.5803 6.33643 19.4476 6.29214 19.3412 6.18763Z"
        fill="#B1E2B0" />
    <path fill-rule="evenodd" clip-rule="evenodd"
        d="M16.2218 7.51558C16.7874 7.44254 17.3626 7.45363 17.9474 7.54878C18.0082 7.56724 18.0524 7.60044 18.0802 7.64838C17.7949 7.6019 17.5073 7.57979 17.2173 7.58198C16.8984 7.51645 16.5666 7.49427 16.2218 7.51558Z"
        fill="#E3FBE2" />
    <path fill-rule="evenodd" clip-rule="evenodd"
        d="M16.2218 7.51565C16.5666 7.49433 16.8984 7.51651 17.2173 7.58205C16.2835 7.5859 15.3543 7.6523 14.4297 7.78125C15.0039 7.5948 15.6013 7.50629 16.2218 7.51565Z"
        fill="#75BE6D" />
    <path fill-rule="evenodd" clip-rule="evenodd"
        d="M18.1465 7.64847C18.5231 7.60491 18.855 7.69342 19.1421 7.91407C18.8032 7.82456 18.4714 7.73605 18.1465 7.64847Z"
        fill="#D7F4D2" />
    <path fill-rule="evenodd" clip-rule="evenodd"
        d="M17.2173 7.58206C17.5073 7.57987 17.7949 7.60198 18.0802 7.64846C18.1023 7.64846 18.1244 7.64846 18.1465 7.64846C18.4714 7.73604 18.8032 7.82455 19.1421 7.91406C21.6799 8.72734 23.5383 10.321 24.7173 12.6949C24.722 12.8816 24.7663 13.0587 24.85 13.2261C24.7949 13.3571 24.7838 13.4899 24.8169 13.6245C24.8611 13.5802 24.9053 13.536 24.9496 13.4917C25.0092 13.6623 25.0867 13.8172 25.1819 13.9565C25.1819 13.9786 25.1819 14.0008 25.1819 14.0229C25.4508 15.2049 25.5393 16.4001 25.4474 17.6086C25.4474 17.7857 25.4474 17.9627 25.4474 18.1398C25.3452 18.295 25.301 18.4721 25.3146 18.671C25.2201 18.8048 25.1759 18.9597 25.1819 19.1358C24.1765 22.1042 22.2075 24.1184 19.2749 25.1783C18.8792 25.2173 18.5032 25.3058 18.1465 25.4439C17.8385 25.4855 17.5288 25.5076 17.2173 25.5103C16.6418 25.4945 16.0666 25.4723 15.4917 25.4439C15.4917 25.3553 15.4917 25.2668 15.4917 25.1783C14.9425 25.0434 14.3895 25.0213 13.8324 25.1119C12.9617 24.9087 12.1652 24.5435 11.443 24.0162C11.1776 23.972 10.9121 23.972 10.6466 24.0162C10.1309 24.2114 9.62214 24.4217 9.12004 24.647C9.02891 24.6366 8.94037 24.6477 8.85455 24.6802C8.72639 24.7401 8.61582 24.8176 8.5227 24.9126C8.45633 24.9126 8.38995 24.9126 8.32358 24.9126C8.59962 23.9187 8.86511 22.9227 9.12004 21.9246C9.10895 21.8139 9.09794 21.7033 9.08685 21.5926C8.78712 21.1143 8.49947 20.6274 8.22403 20.1318C7.99564 19.4835 7.82971 18.8195 7.72624 18.1398C7.6758 17.6094 7.6316 17.0782 7.5935 16.5462C7.63783 15.9925 7.68204 15.4392 7.72624 14.8861C7.75896 14.733 7.78106 14.5781 7.79261 14.4213C8.7017 11.088 10.8035 8.88577 14.0979 7.81446C14.2063 7.78166 14.317 7.77064 14.4297 7.78126C15.3543 7.65231 16.2835 7.58591 17.2173 7.58206Z"
        fill="#51B749" />
    <path fill-rule="evenodd" clip-rule="evenodd"
        d="M1.22185 11.9645C1.22786 12.1406 1.18361 12.2955 1.08911 12.4293C1.0831 12.2532 1.12735 12.0983 1.22185 11.9645Z"
        fill="#A4D7A2" />
    <path fill-rule="evenodd" clip-rule="evenodd"
        d="M31.8854 11.9645C31.9799 12.0983 32.0241 12.2532 32.0181 12.4293C31.9236 12.2955 31.8794 12.1406 31.8854 11.9645Z"
        fill="#A4D7A2" />
    <path fill-rule="evenodd" clip-rule="evenodd"
        d="M23.3899 13.4253C23.2363 13.294 23.0814 13.1612 22.9253 13.0269C20.5335 12.9392 18.1441 12.9392 15.7572 13.0269C15.7645 12.9859 15.7866 12.9527 15.8235 12.9273C18.235 12.883 20.6465 12.883 23.058 12.9273C23.2638 13.0329 23.3744 13.1989 23.3899 13.4253Z"
        fill="#62B459" />
    <path fill-rule="evenodd" clip-rule="evenodd"
        d="M13.8988 13.4253C13.9209 13.6024 13.943 13.7794 13.9651 13.9565C13.9018 14.1056 13.8575 14.2605 13.8324 14.4213C13.6572 14.4514 13.5023 14.5289 13.3678 14.6537C12.3052 14.709 11.2433 14.6979 10.182 14.6205C9.74347 14.3357 9.59964 13.9373 9.75057 13.4253C9.84475 13.2396 9.98851 13.1068 10.182 13.0269C11.2433 12.9494 12.3052 12.9384 13.3678 12.9937C13.6133 13.0601 13.7903 13.204 13.8988 13.4253Z"
        fill="#FAFDFA" />
    <path fill-rule="evenodd" clip-rule="evenodd"
        d="M23.3899 13.4253C23.5085 13.9432 23.3536 14.3416 22.9253 14.6205C20.58 14.6316 18.2349 14.6205 15.8899 14.5873C15.8255 14.489 15.737 14.4336 15.6244 14.4213C15.4507 14.2721 15.3622 14.0729 15.3589 13.8237C15.353 13.4814 15.4858 13.2158 15.7572 13.0269C18.1441 12.9393 20.5335 12.9393 22.9253 13.0269C23.0815 13.1612 23.2363 13.294 23.3899 13.4253Z"
        fill="#FCFEFC" />
    <path fill-rule="evenodd" clip-rule="evenodd"
        d="M24.7173 12.6948C24.9258 13.091 25.0807 13.5115 25.1819 13.9564C25.0867 13.8171 25.0092 13.6622 24.9496 13.4916C24.9053 13.5359 24.8611 13.5801 24.8169 13.6244C24.7838 13.4898 24.7949 13.357 24.85 13.226C24.7663 13.0586 24.722 12.8815 24.7173 12.6948Z"
        fill="#6FBE67" />
    <path fill-rule="evenodd" clip-rule="evenodd"
        d="M13.8988 13.4253C14.0371 13.5908 14.0592 13.7679 13.9651 13.9565C13.943 13.7794 13.9209 13.6024 13.8988 13.4253Z"
        fill="#B6E0B2" />
    <path fill-rule="evenodd" clip-rule="evenodd"
        d="M15.6244 14.4213C15.737 14.4335 15.8255 14.4889 15.8899 14.5873C18.235 14.6205 20.5801 14.6316 22.9253 14.6205C20.5692 14.6978 18.202 14.7088 15.8235 14.6537C15.7432 14.5847 15.6769 14.5072 15.6244 14.4213Z"
        fill="#C9EDC5" />
    <path fill-rule="evenodd" clip-rule="evenodd"
        d="M7.79262 14.4213C7.78107 14.578 7.75897 14.7329 7.72624 14.8861C7.70414 14.8861 7.68197 14.8861 7.65987 14.8861C7.6539 14.71 7.6981 14.5551 7.79262 14.4213Z"
        fill="#B4E1AF" />
    <path fill-rule="evenodd" clip-rule="evenodd"
        d="M25.3146 14.4213C25.4092 14.5551 25.4534 14.71 25.4474 14.8861C25.3529 14.7523 25.3087 14.5974 25.3146 14.4213Z"
        fill="#B4E1AF" />
    <path fill-rule="evenodd" clip-rule="evenodd"
        d="M0.757249 14.0892C0.780074 14.3961 0.735831 14.6839 0.624506 14.9524C0.609878 14.647 0.654121 14.3593 0.757249 14.0892Z"
        fill="#9AD794" />
    <path fill-rule="evenodd" clip-rule="evenodd"
        d="M5.93422 15.0189C5.92454 15.2858 5.90242 15.5514 5.86785 15.8157C5.8237 16.0248 5.80158 16.2461 5.80147 16.4797C5.79498 16.8716 5.83922 17.2478 5.93422 17.6085C5.93422 17.7192 5.93422 17.8299 5.93422 17.9406C5.76851 17.7882 5.72426 17.6112 5.80147 17.4093C5.75892 16.7227 5.71467 16.0366 5.66873 15.3509C5.68043 15.17 5.76892 15.0593 5.93422 15.0189Z"
        fill="#63B95D" />
    <path fill-rule="evenodd" clip-rule="evenodd"
        d="M18.8103 15.8157C18.7159 15.8018 18.6274 15.7686 18.5448 15.7161C15.7569 15.6608 12.9693 15.6718 10.182 15.7493C10.1251 15.8107 10.0587 15.855 9.98286 15.8821C9.98359 15.7813 10.0278 15.7039 10.1156 15.6497C12.9696 15.6054 15.8235 15.6054 18.6775 15.6497C18.7609 15.6774 18.8051 15.7327 18.8103 15.8157Z"
        fill="#65B361" />
    <path fill-rule="evenodd" clip-rule="evenodd"
        d="M18.8103 15.8157C18.9228 15.9502 19.0335 16.083 19.1421 16.2141C19.2469 16.7642 19.0478 17.1516 18.5448 17.3761C15.7572 17.4204 12.9696 17.4204 10.182 17.3761C10.0577 17.263 9.94703 17.1413 9.85013 17.0109C9.82584 16.8512 9.78157 16.6963 9.71738 16.5461C9.76092 16.4164 9.78303 16.2836 9.78376 16.1477C9.79955 16.0213 9.86592 15.9327 9.98287 15.8821C10.0587 15.855 10.1251 15.8107 10.182 15.7493C12.9693 15.6718 15.7569 15.6608 18.5448 15.7161C18.6274 15.7686 18.7159 15.8018 18.8103 15.8157Z"
        fill="#FAFDF9" />
    <path fill-rule="evenodd" clip-rule="evenodd"
        d="M23.3235 16.1477C23.332 16.4386 23.3099 16.7264 23.2571 17.0109C23.1529 17.1922 22.998 17.314 22.7925 17.3761C22.1288 17.4204 21.4651 17.4204 20.8014 17.3761C20.62 17.3161 20.4651 17.2165 20.3368 17.0773C20.1243 16.6376 20.1685 16.2281 20.4695 15.8489C20.5749 15.7916 20.6855 15.7474 20.8014 15.7161C21.4651 15.6718 22.1288 15.6718 22.7925 15.7161C23.0253 15.8063 23.2022 15.9502 23.3235 16.1477Z"
        fill="#F9FDF8" />
    <path fill-rule="evenodd" clip-rule="evenodd"
        d="M5.86785 15.8157C5.87618 16.4139 5.89831 17.0115 5.93422 17.6085C5.83922 17.2477 5.79498 16.8715 5.80147 16.4797C5.80158 16.2461 5.8237 16.0248 5.86785 15.8157Z"
        fill="#B8E4B4" />
    <path fill-rule="evenodd" clip-rule="evenodd"
        d="M27.2394 15.8157C27.2836 16.0248 27.3057 16.2461 27.3058 16.4797C27.3123 16.8715 27.268 17.2477 27.173 17.6085C27.209 17.0115 27.2311 16.4139 27.2394 15.8157Z"
        fill="#B8E4B4" />
    <path fill-rule="evenodd" clip-rule="evenodd"
        d="M27.173 15.0853C27.2771 15.1637 27.3324 15.2744 27.339 15.4173C27.3501 15.7161 27.3611 16.0149 27.3722 16.3137C27.3389 16.7627 27.3389 17.2054 27.3722 17.6418C27.3125 17.7514 27.2461 17.8511 27.173 17.9406C27.173 17.8299 27.173 17.7192 27.173 17.6086C27.268 17.2478 27.3123 16.8716 27.3058 16.4797C27.3057 16.2461 27.2836 16.0248 27.2394 15.8157C27.2101 15.5731 27.1879 15.3296 27.173 15.0853Z"
        fill="#61B65A" />
    <path fill-rule="evenodd" clip-rule="evenodd"
        d="M7.65987 14.8861C7.68197 14.8861 7.70414 14.8861 7.72624 14.8861C7.68204 15.4392 7.63784 15.9925 7.5935 16.5461C7.6316 17.0782 7.6758 17.6094 7.72624 18.1397C7.67527 18.0891 7.64208 18.0227 7.62669 17.9405C7.49182 16.9206 7.5029 15.9024 7.65987 14.8861Z"
        fill="#77BF6F" />
    <path fill-rule="evenodd" clip-rule="evenodd"
        d="M9.78376 16.1477C9.78303 16.2836 9.76092 16.4164 9.71738 16.5461C9.78156 16.6963 9.82583 16.8512 9.85013 17.0109C9.82802 17.0109 9.80586 17.0109 9.78376 17.0109C9.71114 16.8539 9.66688 16.6879 9.65101 16.5129C9.64391 16.3654 9.68818 16.2437 9.78376 16.1477Z"
        fill="#C1EEBE" />
    <path fill-rule="evenodd" clip-rule="evenodd"
        d="M25.1819 14.0228C25.2864 14.1292 25.3306 14.262 25.3146 14.4212C25.3087 14.5973 25.3529 14.7522 25.4474 14.886C25.5426 15.3663 25.5868 15.8532 25.5801 16.3469C25.5921 16.7832 25.5479 17.2038 25.4474 17.6085C25.5393 16.4 25.4508 15.2048 25.1819 14.0228Z"
        fill="#77C170" />
    <path fill-rule="evenodd" clip-rule="evenodd"
        d="M23.3235 16.1477C23.4191 16.2437 23.4633 16.3654 23.4562 16.5129C23.4404 16.6879 23.3961 16.8539 23.3235 17.0109C23.3014 17.0109 23.2792 17.0109 23.2571 17.0109C23.3099 16.7264 23.332 16.4386 23.3235 16.1477Z"
        fill="#D4F6D2" />
    <path fill-rule="evenodd" clip-rule="evenodd"
        d="M19.1421 16.2141C19.2364 16.3725 19.3027 16.5496 19.3412 16.7453C19.5902 16.7409 19.6013 16.8294 19.3744 17.0109C19.3301 16.9666 19.2859 16.9224 19.2417 16.8781C19.0978 17.1105 18.9098 17.2986 18.6775 17.4425C15.8235 17.4868 12.9696 17.4868 10.1156 17.4425C9.96574 17.3261 9.8551 17.1823 9.78375 17.0109C9.80585 17.0109 9.82802 17.0109 9.85012 17.0109C9.94703 17.1413 10.0577 17.263 10.182 17.3761C12.9696 17.4204 15.7572 17.4204 18.5448 17.3761C19.0478 17.1516 19.2469 16.7642 19.1421 16.2141Z"
        fill="#5FB258" />
    <path fill-rule="evenodd" clip-rule="evenodd"
        d="M23.2571 17.0109C23.2792 17.0109 23.3014 17.0109 23.3235 17.0109C23.2543 17.1806 23.1436 17.3245 22.9916 17.4425C22.1952 17.4868 21.3987 17.4868 20.6023 17.4425C20.4719 17.3461 20.3835 17.2244 20.3368 17.0773C20.4651 17.2164 20.62 17.316 20.8014 17.3761C21.4651 17.4204 22.1288 17.4204 22.7925 17.3761C22.998 17.314 23.1529 17.1922 23.2571 17.0109Z"
        fill="#62B25C" />
    <path fill-rule="evenodd" clip-rule="evenodd"
        d="M10.182 18.4054C11.6972 18.3282 13.2238 18.3171 14.7616 18.3722C14.9684 18.4081 15.1232 18.5077 15.2262 18.671C15.0429 18.6126 14.8659 18.5351 14.6952 18.4386C13.191 18.4054 11.6866 18.3943 10.182 18.4054Z"
        fill="#65B75E" />
    <path fill-rule="evenodd" clip-rule="evenodd"
        d="M10.182 18.4053C11.6866 18.3942 13.191 18.4053 14.6952 18.4385C14.8659 18.535 15.0429 18.6125 15.2262 18.6709C15.3565 18.9639 15.3897 19.2738 15.3258 19.6005C15.234 19.7694 15.1124 19.9022 14.9607 19.9989C13.3708 20.064 11.7779 20.0862 10.182 20.0653C9.95566 19.9055 9.77871 19.7063 9.65101 19.4677C9.64019 19.3112 9.65121 19.1563 9.6842 19.0029C9.84263 18.7897 10.0086 18.5905 10.182 18.4053Z"
        fill="#FBFDFB" />
    <path fill-rule="evenodd" clip-rule="evenodd"
        d="M22.9253 20.0653C21.0004 20.0764 19.0756 20.0653 17.151 20.0321C17.1016 19.9631 17.0352 19.9299 16.9519 19.9325C16.5378 19.6404 16.4492 19.2642 16.6864 18.8037C16.7956 18.7387 16.8841 18.6502 16.9519 18.5381C17.059 18.4947 17.1697 18.4615 17.2837 18.4385C19.1646 18.3832 21.0452 18.3942 22.9253 18.4717C23.6331 19.0025 23.6331 19.5337 22.9253 20.0653Z"
        fill="#FBFDFB" />
    <path fill-rule="evenodd" clip-rule="evenodd"
        d="M25.4474 18.1398C25.4431 18.3342 25.3988 18.5113 25.3146 18.671C25.301 18.4721 25.3452 18.295 25.4474 18.1398Z"
        fill="#ACDAA3" />
    <path fill-rule="evenodd" clip-rule="evenodd"
        d="M25.3146 18.6709C25.3206 18.847 25.2764 19.0019 25.1819 19.1357C25.1759 18.9596 25.2201 18.8047 25.3146 18.6709Z"
        fill="#A2D99D" />
    <path fill-rule="evenodd" clip-rule="evenodd"
        d="M5.93422 18.2062C5.9752 18.2135 6.00838 18.2357 6.03378 18.2726C6.06461 18.5613 6.09779 18.849 6.13333 19.1358C6.0185 18.8448 5.95213 18.5349 5.93422 18.2062Z"
        fill="#92CD8D" />
    <path fill-rule="evenodd" clip-rule="evenodd"
        d="M27.1731 18.2062C27.1551 18.5349 27.0888 18.8448 26.9739 19.1358C27.0094 18.849 27.0426 18.5613 27.0735 18.2726C27.0989 18.2357 27.1321 18.2135 27.1731 18.2062Z"
        fill="#92CD8D" />
    <path fill-rule="evenodd" clip-rule="evenodd"
        d="M0.624512 18.4053C0.708452 18.4726 0.752695 18.5722 0.757254 18.7041C0.847699 19.0406 0.891942 19.3836 0.889997 19.7333C0.763812 19.3069 0.675319 18.8643 0.624512 18.4053Z"
        fill="#90C98A" />
    <path fill-rule="evenodd" clip-rule="evenodd"
        d="M32.4828 18.4053C32.432 18.8643 32.3434 19.3069 32.2173 19.7333C32.2064 19.5549 32.2175 19.3778 32.2505 19.2021C32.2913 18.9098 32.3687 18.6442 32.4828 18.4053Z"
        fill="#90C98A" />
    <path fill-rule="evenodd" clip-rule="evenodd"
        d="M14.9607 19.9989C14.9293 20.0923 14.863 20.1366 14.7616 20.1317C13.2236 20.1537 11.697 20.1316 10.182 20.0653C11.7779 20.0862 13.3708 20.064 14.9607 19.9989Z"
        fill="#D5F6D3" />
    <path fill-rule="evenodd" clip-rule="evenodd"
        d="M16.9519 19.9325C17.0352 19.9299 17.1016 19.9631 17.151 20.0321C19.0756 20.0653 21.0004 20.0764 22.9253 20.0653C21.0119 20.1316 19.0871 20.1537 17.151 20.1317C17.0625 20.0874 16.9961 20.021 16.9519 19.9325Z"
        fill="#D7F7D4" />
    <path fill-rule="evenodd" clip-rule="evenodd"
        d="M9.65101 19.4678C9.77871 19.7064 9.95565 19.9056 10.182 20.0654C11.697 20.1316 13.2236 20.1538 14.7616 20.1318C13.2021 20.209 11.6313 20.2201 10.0492 20.165C9.78846 20.0087 9.65572 19.7763 9.65101 19.4678Z"
        fill="#61B458" />
    <path fill-rule="evenodd" clip-rule="evenodd"
        d="M17.151 20.1317C19.0871 20.1537 21.0119 20.1316 22.9253 20.0653C23.6331 19.5336 23.6331 19.0024 22.9253 18.4717C21.0452 18.3942 19.1646 18.3832 17.2837 18.4385C17.1697 18.4615 17.059 18.4947 16.9519 18.5381C16.8841 18.6502 16.7956 18.7387 16.6864 18.8037C16.7614 18.6832 16.8056 18.5504 16.8191 18.4053C18.9862 18.3307 21.1543 18.3196 23.3235 18.3721C23.4913 18.4595 23.4913 18.537 23.3235 18.6045C23.3456 18.6488 23.3678 18.693 23.3899 18.7373C23.5083 18.7564 23.619 18.7564 23.7217 18.7373C23.518 19.0217 23.4738 19.3316 23.589 19.6669C23.5342 19.7257 23.4679 19.7478 23.3899 19.7333C23.37 19.9419 23.2594 20.0858 23.058 20.1649C21.0778 20.2201 19.1087 20.209 17.151 20.1317Z"
        fill="#5FB456" />
    <path fill-rule="evenodd" clip-rule="evenodd"
        d="M0.956363 20.0653C1.06085 20.2915 1.12722 20.535 1.15548 20.7957C1.06432 20.8061 0.975823 20.7951 0.889992 20.7625C0.953429 20.5372 0.975558 20.3047 0.956363 20.0653Z"
        fill="#D0EBCE" />
    <path fill-rule="evenodd" clip-rule="evenodd"
        d="M32.1509 20.0653C32.1317 20.3047 32.1538 20.5372 32.2173 20.7625C32.1314 20.7951 32.0429 20.8061 31.9518 20.7957C31.9801 20.535 32.0464 20.2915 32.1509 20.0653Z"
        fill="#D0EBCE" />
    <path fill-rule="evenodd" clip-rule="evenodd"
        d="M1.48734 21.8582C1.60749 22.0338 1.67387 22.233 1.68645 22.4558C1.55553 22.2842 1.48916 22.085 1.48734 21.8582Z"
        fill="#ABD8A6" />
    <path fill-rule="evenodd" clip-rule="evenodd"
        d="M31.6199 21.8582C31.6259 22.0342 31.5817 22.1892 31.4872 22.323C31.4812 22.1469 31.5254 21.992 31.6199 21.8582Z"
        fill="#AEDDAA" />
    <path fill-rule="evenodd" clip-rule="evenodd"
        d="M7.32801 22.2566C7.24571 22.5826 7.19042 22.9146 7.16208 23.2526C7.13441 23.336 7.07912 23.3803 6.99615 23.3854C7.05164 22.9884 7.16222 22.6121 7.32801 22.2566Z"
        fill="#D2F0D0" />
    <path fill-rule="evenodd" clip-rule="evenodd"
        d="M25.4474 22.5886C25.4102 22.7414 25.377 22.8963 25.3478 23.0534C24.9691 23.3332 24.6262 23.6431 24.3191 23.983C24.6961 23.5174 25.0723 23.0526 25.4474 22.5886Z"
        fill="#6FBB68" />
    <path fill-rule="evenodd" clip-rule="evenodd"
        d="M2.01831 23.2526C2.13414 23.3544 2.20051 23.4872 2.21742 23.651C2.1016 23.5492 2.03523 23.4164 2.01831 23.2526Z"
        fill="#B4E3B4" />
    <path fill-rule="evenodd" clip-rule="evenodd"
        d="M9.12004 24.647C8.95059 24.7854 8.75148 24.8739 8.5227 24.9126C8.61582 24.8176 8.72639 24.7401 8.85455 24.6802C8.94037 24.6476 9.02891 24.6366 9.12004 24.647Z"
        fill="#BCE7BC" />
    <path fill-rule="evenodd" clip-rule="evenodd"
        d="M17.2173 25.5102C16.4691 25.6 15.717 25.5779 14.9607 25.4438C14.8011 25.3597 14.6241 25.3154 14.4297 25.311C14.198 25.3146 13.9989 25.2482 13.8324 25.1118C14.3895 25.0213 14.9425 25.0434 15.4917 25.1782C15.4917 25.2668 15.4917 25.3553 15.4917 25.4438C16.0666 25.4723 16.6418 25.4944 17.2173 25.5102Z"
        fill="#63BA5A" />
    <path fill-rule="evenodd" clip-rule="evenodd"
        d="M19.2749 25.1782C18.9305 25.3736 18.5545 25.4622 18.1465 25.4438C18.5032 25.3058 18.8792 25.2173 19.2749 25.1782Z"
        fill="#D5F3D0" />
    <path fill-rule="evenodd" clip-rule="evenodd"
        d="M6.46518 25.1782C6.41481 25.5056 6.32634 25.8155 6.1997 26.1078C6.22296 25.7732 6.31147 25.4633 6.46518 25.1782Z"
        fill="#C2E9BE" />
    <path fill-rule="evenodd" clip-rule="evenodd"
        d="M14.4297 25.311C14.6241 25.3154 14.8011 25.3596 14.9607 25.4438C14.7619 25.4575 14.5849 25.4133 14.4297 25.311Z"
        fill="#AEDEAA" />
    <path fill-rule="evenodd" clip-rule="evenodd"
        d="M21.3987 26.1078C21.297 26.2237 21.1642 26.2901 21.0005 26.307C21.1023 26.1911 21.235 26.1247 21.3987 26.1078Z"
        fill="#A7DEA3" />
    <path fill-rule="evenodd" clip-rule="evenodd"
        d="M6.1997 26.1078C6.20125 26.3909 6.11275 26.6344 5.93422 26.8382C5.9981 26.5796 6.08659 26.3361 6.1997 26.1078Z"
        fill="#D1F2CF" />
    <path fill-rule="evenodd" clip-rule="evenodd"
        d="M20.8014 26.4398C20.6117 26.584 20.3905 26.6725 20.1377 26.7054C20.215 26.7774 20.3035 26.8327 20.4032 26.8714C20.1809 26.8972 19.9596 26.8861 19.7395 26.8382C20.0576 26.622 20.4116 26.4892 20.8014 26.4398Z"
        fill="#6ABB63" />
    <path fill-rule="evenodd" clip-rule="evenodd"
        d="M14.4297 27.0375C14.5963 27.0079 14.7291 27.0521 14.828 27.1703C14.6763 27.164 14.5435 27.1197 14.4297 27.0375Z"
        fill="#BAE9B5" />
    <path fill-rule="evenodd" clip-rule="evenodd"
        d="M18.8766 27.0374C18.677 27.1486 18.4558 27.1929 18.2129 27.1702C18.2203 27.1292 18.2424 27.096 18.2793 27.0706C18.4772 27.0375 18.6763 27.0265 18.8766 27.0374Z"
        fill="#8DC986" />
    <path fill-rule="evenodd" clip-rule="evenodd"
        d="M22.527 31.4198C22.3445 31.5842 22.1232 31.6506 21.8633 31.6191C22.0459 31.4547 22.2671 31.3883 22.527 31.4198Z"
        fill="#CDEDC9" />
    <path fill-rule="evenodd" clip-rule="evenodd"
        d="M11.974 31.8846C12.2844 31.9219 12.5719 32.0104 12.8368 32.1502C12.5146 32.1531 12.227 32.0646 11.974 31.8846Z"
        fill="#D2EED0" />
    <path fill-rule="evenodd" clip-rule="evenodd"
        d="M13.3678 32.2167C13.9135 32.2634 14.4445 32.3519 14.9607 32.4823C14.4096 32.4642 13.8787 32.3756 13.3678 32.2167Z"
        fill="#97D08F" />
    <path fill-rule="evenodd" clip-rule="evenodd"
        d="M18.943 32.3495C18.741 32.4499 18.5197 32.4942 18.2793 32.4823C18.2866 32.4414 18.3088 32.4082 18.3457 32.3827C18.5436 32.3497 18.7427 32.3386 18.943 32.3495Z"
        fill="#A4D79E" />
</svg>