<svg width="32" height="32" viewBox="0 0 32 32" fill="none" xmlns="http://www.w3.org/2000/svg">
    <path fill-rule="evenodd" clip-rule="evenodd"
        d="M0 0C10.6666 0 21.3334 0 32 0C32 10.6666 32 21.3334 32 32C21.3334 32 10.6666 32 0 32C0 21.3334 0 10.6666 0 0Z"
        fill="#E4712A" />
    <path fill-rule="evenodd" clip-rule="evenodd"
        d="M12.2526 3.28763C15.7198 2.99671 19.0891 3.4303 22.3607 4.58803C23.9753 5.24715 24.6372 6.42345 24.3462 8.11769C22.9431 9.09522 21.5593 9.03355 20.1947 7.93192C17.9291 7.40284 15.6427 7.27875 13.3356 7.56038C11.2486 8.20723 10.6469 9.56968 11.5306 11.6474C14.9634 12.9333 18.4531 14.0479 21.9997 14.9912C26.4688 16.9489 27.4917 20.107 25.0682 24.4656C21.4235 28.2687 17.0313 29.5691 11.8916 28.3668C9.56422 27.9436 7.57871 26.891 5.93511 25.2087C5.66143 24.3657 5.72161 23.5605 6.11561 22.7937C7.07829 22.5458 8.04094 22.5458 9.00362 22.7937C12.2349 24.4745 15.6043 24.8461 19.1117 23.9083C21.6341 21.8433 21.5138 19.9855 18.7507 18.3351C15.1352 17.7459 11.6456 16.755 8.28162 15.3628C5.42891 12.6947 5.00773 9.66034 7.01811 6.25997C8.60544 4.91796 10.3503 3.92705 12.2526 3.28763Z"
        fill="#FAFAFA" />
</svg>