<svg width="32" height="32" viewBox="0 0 33 33" fill="none" xmlns="http://www.w3.org/2000/svg">
    <path fill-rule="evenodd" clip-rule="evenodd"
        d="M17.3 0.5C17.5668 0.5 17.8333 0.5 18.1 0.5C18.7028 0.595548 19.2895 0.755547 19.86 0.98C19.1114 1.00653 18.3648 0.979864 17.62 0.9C17.4791 0.786672 17.3725 0.653339 17.3 0.5Z"
        fill="#2766CC" />
    <path fill-rule="evenodd" clip-rule="evenodd"
        d="M14.42 0.659975C13.5305 0.86582 12.6238 1.07915 11.7 1.29998C12.53 0.829156 13.4367 0.615823 14.42 0.659975Z"
        fill="#4C81D4" />
    <path fill-rule="evenodd" clip-rule="evenodd"
        d="M20.1799 0.97998C21.0875 1.12279 21.9409 1.38946 22.7399 1.77998C21.8134 1.70199 20.9601 1.43532 20.1799 0.97998Z"
        fill="#4477CF" />
    <path fill-rule="evenodd" clip-rule="evenodd"
        d="M14.58 0.5C15.4867 0.5 16.3933 0.5 17.3 0.5C17.3725 0.653339 17.479 0.786672 17.62 0.9C18.3648 0.979864 19.1113 1.00653 19.86 0.98C19.9667 0.98 20.0733 0.98 20.18 0.98C20.9601 1.43534 21.8134 1.70201 22.74 1.78C23.9025 2.30813 25.0225 2.92146 26.1 3.62C26.7232 4.27035 27.3632 4.88368 28.02 5.46C27.9149 5.99453 28.1281 6.31453 28.66 6.42C28.232 6.65933 27.912 6.55267 27.7 6.1C27.5022 5.98067 27.2888 5.92733 27.06 5.94C24.1817 6.0343 21.275 6.14098 18.34 6.26C17.9667 5.83333 17.5933 5.83333 17.22 6.26C17.0312 6.07054 16.7912 5.96389 16.5 5.94C12.6484 6.03523 8.80841 6.08858 4.97998 6.1C5.12113 5.6384 5.33446 5.21173 5.61998 4.82C6.00427 4.38552 6.43094 3.98552 6.89998 3.62C8.35478 2.54594 9.95478 1.7726 11.7 1.3C12.6238 1.07918 13.5305 0.865845 14.42 0.66C14.5267 0.66 14.58 0.606667 14.58 0.5Z"
        fill="#0F61DB" />
    <path fill-rule="evenodd" clip-rule="evenodd"
        d="M5.6199 4.81982C5.33438 5.21155 5.12105 5.63822 4.9799 6.09982C8.80833 6.0884 12.6483 6.03506 16.4999 5.93982C16.7911 5.96371 17.0311 6.07037 17.2199 6.25982C17.5932 5.83315 17.9666 5.83315 18.3399 6.25982C21.2749 6.1408 24.1817 6.03413 27.0599 5.93982C26.9676 6.42778 27.1543 6.74778 27.6199 6.89982C27.7855 7.2824 27.8122 7.65573 27.6999 8.01982C27.9132 8.23315 28.1266 8.23315 28.3399 8.01982C28.1863 7.80986 28.2129 7.59653 28.4199 7.37982C28.5628 7.18603 28.6961 7.18603 28.8199 7.37982C28.6842 7.6852 28.6308 8.0052 28.6599 8.33982C27.2943 8.24478 25.961 8.35144 24.6599 8.65982C24.4724 8.59285 24.3124 8.48618 24.1799 8.33982C24.8111 8.18128 25.4511 8.12795 26.0999 8.17982C26.0999 8.01982 26.0999 7.85982 26.0999 7.69982C22.2533 7.62003 18.4133 7.7267 14.5799 8.01982C11.7069 7.71058 8.82688 7.63058 5.9399 7.77982C5.86672 7.84606 5.81339 7.92606 5.7799 8.01982C7.85785 8.15306 9.93785 8.23306 12.0199 8.25982C8.9624 8.33224 5.9224 8.41224 2.8999 8.49982C2.8999 8.39315 2.8999 8.2865 2.8999 8.17982C3.32854 8.17589 3.54187 7.96254 3.5399 7.53982C3.97267 7.55899 4.07934 7.39899 3.8599 7.05982C4.04073 6.88026 4.14741 6.66691 4.1799 6.41982C4.54241 5.79013 5.02241 5.2568 5.6199 4.81982Z"
        fill="#1265DF" />
    <path fill-rule="evenodd" clip-rule="evenodd"
        d="M4.1799 6.41992C4.14741 6.66701 4.04073 6.88035 3.8599 7.05992C4.07934 7.39909 3.97267 7.55909 3.5399 7.53992C3.54187 7.96264 3.32854 8.17599 2.8999 8.17992C3.13129 7.45018 3.55797 6.86351 4.1799 6.41992Z"
        fill="#3C74D5" />
    <path fill-rule="evenodd" clip-rule="evenodd"
        d="M28.0201 5.45996C29.5873 6.94228 30.7073 8.70228 31.3801 10.74C31.3415 11.1237 31.4482 11.4437 31.7001 11.7C31.726 12.0243 31.6993 12.3443 31.6201 12.66C31.3786 12.279 31.0321 12.119 30.5801 12.18C27.3852 12.2068 24.1852 12.2068 20.9801 12.18C21.0062 12.557 20.9796 12.9304 20.9001 13.3C20.8468 12.4466 20.7934 11.5933 20.7401 10.74C20.3607 9.92732 20.1207 9.07399 20.0201 8.17996C19.8927 8.75785 19.8927 9.34452 20.0201 9.93996C19.6423 11.0492 19.6156 12.1692 19.9401 13.3C20.0468 12.5533 20.1534 11.8066 20.2601 11.06C20.3668 11.86 20.3668 12.66 20.2601 13.46C20.2228 13.8248 20.0895 14.1448 19.8601 14.42C19.7407 13.8039 19.554 13.2173 19.3001 12.66C19.2714 13.1485 19.1914 13.6285 19.0601 14.1C18.9463 12.3916 18.8396 10.685 18.7401 8.97996C18.5924 8.63825 18.3258 8.45158 17.9401 8.41996C17.6382 8.29522 17.3714 8.3219 17.1401 8.49996C16.9801 8.60663 16.8201 8.71329 16.6601 8.81996C16.5381 8.6971 16.3781 8.6171 16.1801 8.57996C16.4044 8.36516 16.3511 8.23183 16.0201 8.17996C15.301 8.29006 14.6077 8.45006 13.9401 8.65996C13.9383 10.0488 13.2983 10.4755 12.0201 9.93996C12.0201 9.77996 12.0201 9.61996 12.0201 9.45996C11.5934 9.45996 11.1667 9.45996 10.7401 9.45996C10.7401 9.61996 10.7401 9.77996 10.7401 9.93996C9.88675 9.93996 9.03341 9.93996 8.18008 9.93996C8.18008 9.77996 8.18008 9.61996 8.18008 9.45996C7.75341 9.45996 7.32675 9.45996 6.90008 9.45996C6.90008 9.61996 6.90008 9.77996 6.90008 9.93996C5.61897 9.96658 4.33897 9.93991 3.06008 9.85996C2.92726 9.58049 2.76726 9.31382 2.58008 9.05996C2.72784 8.77014 2.86118 8.79681 2.98008 9.13996C3.07273 8.9114 3.04606 8.69807 2.90008 8.49996C5.92257 8.41238 8.96257 8.33238 12.0201 8.25996C9.93803 8.23319 7.85803 8.15319 5.78008 8.01996C5.81357 7.9262 5.86689 7.8462 5.94008 7.77996C8.82705 7.63071 11.7071 7.71071 14.5801 8.01996C18.4135 7.72684 22.2535 7.62017 26.1001 7.69996C26.1001 7.85996 26.1001 8.01996 26.1001 8.17996C25.4513 8.12809 24.8113 8.18142 24.1801 8.33996C24.3126 8.48631 24.4726 8.59298 24.6601 8.65996C25.9612 8.35158 27.2945 8.24492 28.6601 8.33996C28.631 8.00534 28.6844 7.68534 28.8201 7.37996C28.6962 7.18617 28.563 7.18617 28.4201 7.37996C28.213 7.59666 28.1865 7.80999 28.3401 8.01996C28.1268 8.23329 27.9134 8.23329 27.7001 8.01996C27.8124 7.65586 27.7857 7.28254 27.6201 6.89996C27.1545 6.74791 26.9678 6.42791 27.0601 5.93996C27.2889 5.92729 27.5023 5.98063 27.7001 6.09996C27.9121 6.55263 28.2321 6.65929 28.6601 6.41996C28.1282 6.31449 27.915 5.99449 28.0201 5.45996Z"
        fill="#156AE3" />
    <path fill-rule="evenodd" clip-rule="evenodd"
        d="M2.90012 8.18018C2.90012 8.28685 2.90012 8.3935 2.90012 8.50018C3.0461 8.69829 3.07277 8.91162 2.98012 9.14018C2.86122 8.79702 2.72788 8.77035 2.58012 9.06018C2.7673 9.31403 2.9273 9.5807 3.06012 9.86018C4.33901 9.94013 5.61901 9.9668 6.90012 9.94018C6.90012 9.78018 6.90012 9.62018 6.90012 9.46018C7.32679 9.46018 7.75345 9.46018 8.18012 9.46018C8.18012 9.62018 8.18012 9.78018 8.18012 9.94018C9.03345 9.94018 9.88679 9.94018 10.7401 9.94018C10.7401 9.78018 10.7401 9.62018 10.7401 9.46018C11.1668 9.46018 11.5934 9.46018 12.0201 9.46018C12.0201 9.62018 12.0201 9.78018 12.0201 9.94018C13.2983 10.4757 13.9383 10.049 13.9401 8.66018C14.6077 8.45027 15.301 8.29027 16.0201 8.18018C16.3511 8.23205 16.4045 8.36538 16.1801 8.58018C16.3781 8.61731 16.5381 8.69731 16.6601 8.82018C15.7548 9.9387 14.7948 11.0054 13.7801 12.0202C12.8934 12.2675 12.4134 12.8541 12.3401 13.7802C12.0451 13.6745 11.7785 13.5145 11.5401 13.3002C11.324 13.4387 11.1907 13.5987 11.1401 13.7802C8.46688 13.3571 5.77356 13.1971 3.06012 13.3002C3.10181 14.1505 2.99514 14.2305 2.74012 13.5402C3.00313 13.0027 3.08313 12.4427 2.98012 11.8602C2.94025 12.04 2.86025 12.2 2.74012 12.3402C2.59173 12.0821 2.45841 11.8155 2.34012 11.5402C2.11285 11.9696 2.03285 12.3963 2.10012 12.8202C2.20679 12.9268 2.31345 13.0335 2.42012 13.1402C2.17286 13.2925 1.9062 13.3458 1.62012 13.3002C1.63274 12.9536 1.73941 12.6336 1.94012 12.3402C1.86068 12.0248 1.80735 11.7048 1.78012 11.3802C1.88752 10.792 1.99419 10.2053 2.10012 9.62018C2.24567 9.06142 2.51234 8.58142 2.90012 8.18018Z"
        fill="#186DE5" />
    <path fill-rule="evenodd" clip-rule="evenodd"
        d="M31.38 10.7402C31.6318 10.9965 31.7386 11.3165 31.7 11.7002C31.4482 11.444 31.3414 11.124 31.38 10.7402Z"
        fill="#5685DA" />
    <path fill-rule="evenodd" clip-rule="evenodd"
        d="M13.7801 12.02C13.351 12.6611 12.871 13.2477 12.3401 13.78C12.4134 12.854 12.8934 12.2673 13.7801 12.02Z"
        fill="#3075DA" />
    <path fill-rule="evenodd" clip-rule="evenodd"
        d="M17.14 8.50019C17.9192 8.41695 18.3992 8.73695 18.58 9.46019C18.58 11.2735 18.58 13.0869 18.58 14.9002C17.4055 14.8736 16.2322 14.9002 15.06 14.9802C14.9711 15.0414 14.9177 15.1214 14.9 15.2202C14.8013 15.2379 14.7213 15.2912 14.66 15.3802C14.5801 16.8725 14.5534 18.366 14.58 19.8602C13.0334 19.8602 11.4867 19.8602 9.94004 19.8602C8.80746 19.8192 8.35412 19.2325 8.58004 18.1002C8.95196 17.78 9.2453 17.4068 9.46004 16.9802C10.4747 15.9654 11.4347 14.8987 12.34 13.7802C12.8709 13.2479 13.3509 12.6612 13.78 12.0202C14.7947 11.0054 15.7547 9.93872 16.66 8.82019C16.82 8.71352 16.98 8.60687 17.14 8.50019Z"
        fill="#B9D4F8" />
    <path fill-rule="evenodd" clip-rule="evenodd"
        d="M31.6999 11.7002C31.8532 11.9886 31.9599 12.3086 32.0199 12.6602C32.0055 13.0845 32.1121 13.4579 32.3399 13.7802C32.2945 14.0865 32.3477 14.3532 32.4999 14.5802C32.4999 15.7002 32.4999 16.8202 32.4999 17.9402C32.3977 18.6453 32.2377 19.3387 32.0199 20.0202C31.9212 20.0379 31.8412 20.0912 31.7799 20.1802C31.789 19.6247 31.629 19.1447 31.2999 18.7402C31.2204 18.3706 31.1938 17.9973 31.2199 17.6202C29.5132 17.6202 27.8066 17.6202 26.0999 17.6202C26.0999 17.8869 26.0999 18.1535 26.0999 18.4202C25.8802 18.4453 25.6668 18.4186 25.4599 18.3402C25.6985 18.0047 25.8585 17.6314 25.9399 17.2202C25.7882 17.1429 25.6282 17.1163 25.4599 17.1402C25.3573 17.8991 25.1173 17.9525 24.7399 17.3002C24.7149 16.917 24.7949 16.5436 24.9799 16.1802C24.8719 15.7517 24.7652 15.3251 24.6599 14.9002C25.1474 14.797 25.494 14.957 25.6999 15.3802C26.0026 15.2014 26.1359 14.9347 26.0999 14.5802C25.5164 14.5607 25.0629 14.2941 24.7399 13.7802C24.5289 14.0601 24.4489 14.3801 24.4999 14.7402C24.2866 14.7402 24.0732 14.7402 23.8599 14.7402C22.1532 14.7402 20.4466 14.7402 18.7399 14.7402C18.7924 12.9515 18.7391 11.1915 18.5799 9.46018C18.3991 8.73693 17.9191 8.41693 17.1399 8.50018C17.3713 8.32211 17.638 8.29544 17.9399 8.42018C18.3257 8.45179 18.5922 8.63846 18.7399 8.98018C18.8394 10.6852 18.9461 12.3918 19.0599 14.1002C19.1913 13.6287 19.2713 13.1487 19.2999 12.6602C19.5538 13.2175 19.7405 13.8041 19.8599 14.4202C20.0893 14.145 20.2226 13.825 20.2599 13.4602C20.3666 12.6602 20.3666 11.8602 20.2599 11.0602C20.1532 11.8068 20.0466 12.5535 19.9399 13.3002C19.6154 12.1695 19.6421 11.0495 20.0199 9.94018C19.8925 9.34474 19.8925 8.75806 20.0199 8.18018C20.1205 9.07421 20.3605 9.92754 20.7399 10.7402C20.7932 11.5935 20.8466 12.4468 20.8999 13.3002C20.9794 12.9306 21.006 12.5573 20.9799 12.1802C24.185 12.2071 27.385 12.2071 30.5799 12.1802C31.0319 12.1192 31.3785 12.2792 31.6199 12.6602C31.6991 12.3445 31.7258 12.0245 31.6999 11.7002Z"
        fill="#1E72E9" />
    <path fill-rule="evenodd" clip-rule="evenodd"
        d="M2.10002 9.62012C1.99409 10.2053 1.88743 10.792 1.78002 11.3801C1.80725 11.7047 1.86059 12.0247 1.94002 12.3401C1.73931 12.6335 1.63264 12.9535 1.62002 13.3001C1.9061 13.3457 2.17277 13.2924 2.42002 13.1401C2.31335 13.0334 2.20669 12.9268 2.10002 12.8201C2.03275 12.3962 2.11275 11.9696 2.34002 11.5401C2.45831 11.8154 2.59164 12.0821 2.74002 12.3401C2.86015 12.2 2.94015 12.04 2.98002 11.8601C3.08303 12.4426 3.00303 13.0026 2.74002 13.5401C2.99505 14.2304 3.10172 14.1504 3.06002 13.3001C5.77346 13.1971 8.46679 13.3571 11.14 13.7801C11.1906 13.5986 11.3239 13.4386 11.54 13.3001C11.7784 13.5145 12.045 13.6745 12.34 13.7801C11.4347 14.8986 10.4747 15.9653 9.46002 16.9801C9.07138 16.8577 8.85805 16.5912 8.82002 16.1801C8.29532 16.265 8.08197 16.5851 8.18002 17.1401C6.36356 17.1932 4.55023 17.14 2.74002 16.9801C2.56685 16.415 2.32685 16.415 2.02002 16.9801C1.88525 17.6792 1.72525 18.3726 1.54002 19.0601C1.30665 18.5894 1.17331 18.0827 1.14002 17.5401C1.1741 16.9987 1.3341 16.6254 1.62002 16.4201C1.52039 15.8631 1.44039 15.3031 1.38002 14.7401C1.31379 14.8133 1.23379 14.8666 1.14002 14.9001C0.982098 14.3772 0.928764 13.8439 0.980022 13.3001C1.05883 12.9312 1.11216 12.5579 1.14002 12.1801C1.29041 11.2435 1.61041 10.3902 2.10002 9.62012Z"
        fill="#1D73E9" />
    <path fill-rule="evenodd" clip-rule="evenodd"
        d="M32.0201 12.6602C32.2479 12.9825 32.3545 13.3558 32.3401 13.7802C32.1122 13.4578 32.0057 13.0845 32.0201 12.6602Z"
        fill="#96C1F9" />
    <path fill-rule="evenodd" clip-rule="evenodd"
        d="M18.5801 9.45996C18.7393 11.1913 18.7926 12.9513 18.7401 14.74C20.4468 14.74 22.1534 14.74 23.8601 14.74C23.8601 14.7933 23.8601 14.8466 23.8601 14.9C22.1001 14.9 20.3401 14.9 18.5801 14.9C18.5801 13.0866 18.5801 11.2733 18.5801 9.45996Z"
        fill="#69A1EE" />
    <path fill-rule="evenodd" clip-rule="evenodd"
        d="M14.5801 19.8602C14.5534 18.3659 14.5801 16.8725 14.6601 15.3802C14.7213 15.2912 14.8013 15.2379 14.9001 15.2202C16.1178 15.0708 17.3445 15.0174 18.5801 15.0602C18.629 16.5088 18.5756 17.9488 18.4201 19.3802C18.2337 19.5536 18.0204 19.6869 17.7801 19.7802C16.7148 19.8602 15.6481 19.8867 14.5801 19.8602Z"
        fill="#F1F6FC" />
    <path fill-rule="evenodd" clip-rule="evenodd"
        d="M18.5801 14.9001C20.3401 14.9001 22.1001 14.9001 23.8601 14.9001C24.4852 15.2447 24.7252 15.7781 24.5801 16.5001C23.2815 17.9302 22.0815 19.4235 20.9801 20.9801C20.8207 20.9663 20.6874 21.0198 20.5801 21.1401C19.449 22.4563 18.3558 23.7897 17.3001 25.1401C16.9302 25.4035 16.6102 25.7235 16.3401 26.1001C15.4519 26.4779 14.8652 26.2111 14.5801 25.3001C14.5801 23.4868 14.5801 21.6734 14.5801 19.8601C15.6481 19.8867 16.7148 19.8601 17.7801 19.7801C18.0204 19.6868 18.2337 19.5535 18.4201 19.3801C18.5756 17.9487 18.629 16.5088 18.5801 15.0601C17.3446 15.0174 16.1178 15.0707 14.9001 15.2201C14.9178 15.1213 14.9711 15.0413 15.0601 14.9801C16.2322 14.9002 17.4055 14.8735 18.5801 14.9001Z"
        fill="#D2E4FB" />
    <path fill-rule="evenodd" clip-rule="evenodd"
        d="M0.98 13.2998C0.928742 13.8435 0.982077 14.3769 1.14 14.8998C1.23377 14.8663 1.31377 14.813 1.38 14.7398C1.44037 15.3028 1.52037 15.8628 1.62 16.4198C1.33408 16.6251 1.17408 16.9984 1.14 17.5398C1.17329 18.0824 1.30663 18.5891 1.54 19.0598C1.72523 18.3723 1.88523 17.6788 2.02 16.9798C2.32683 16.4147 2.56683 16.4147 2.74 16.9798C4.55021 17.1396 6.36354 17.1929 8.18 17.1398C8.08195 16.5848 8.2953 16.2647 8.82 16.1798C8.85803 16.5908 9.07136 16.8574 9.46 16.9798C9.24526 17.4064 8.95192 17.7796 8.58 18.0998C8.35408 19.2321 8.80742 19.8188 9.94 19.8598C11.4043 20.0188 12.8976 20.0721 14.42 20.0198C14.42 20.3398 14.42 20.6598 14.42 20.9798C14.2874 22.1246 14.2074 23.298 14.18 24.4998C13.8852 24.8272 13.6986 25.2006 13.62 25.6198C13.3992 25.5459 13.2925 25.3859 13.3 25.1398C13.5319 24.7537 13.6385 24.327 13.62 23.8598C13.5278 22.9009 13.4478 21.9409 13.38 20.9798C12.5036 21.1788 11.6236 21.3921 10.74 21.6198C8.18222 21.7796 5.62222 21.8331 3.06 21.7798C2.94806 23.4324 2.81472 23.3792 2.66 21.6198C2.41213 21.9587 2.22547 22.332 2.1 22.7398C1.96905 22.3227 1.88905 21.896 1.86 21.4598C1.79329 21.6608 1.65996 21.7675 1.46 21.7798C1.0075 20.5308 0.687499 19.2508 0.5 17.9398C0.5 16.8198 0.5 15.6998 0.5 14.5798C0.606667 14.5798 0.66 14.5265 0.66 14.4198C0.766667 14.0465 0.873333 13.6731 0.98 13.2998Z"
        fill="#2479F0" />
    <path fill-rule="evenodd" clip-rule="evenodd"
        d="M32.02 20.0198C32.02 20.1265 32.02 20.2331 32.02 20.3398C31.8136 20.4291 31.6803 20.5891 31.62 20.8198C31.4461 20.4307 31.3661 20.4841 31.38 20.9798C30.9517 21.2291 30.5517 21.5491 30.18 21.9398C29.9894 22.778 29.6161 23.5246 29.06 24.1798C29.0313 24.4876 29.0046 24.7543 28.98 24.9798C28.7486 24.8724 28.6421 24.6857 28.66 24.4198C28.8789 23.6835 29.1454 22.9635 29.46 22.2598C29.0573 21.9382 28.8173 21.5115 28.74 20.9798C28.6627 21.1315 28.6361 21.2915 28.66 21.4598C28.2333 21.4598 27.8067 21.4598 27.38 21.4598C27.38 21.2998 27.38 21.1398 27.38 20.9798C26.9533 20.9798 26.5267 20.9798 26.1 20.9798C26.1 21.1398 26.1 21.2998 26.1 21.4598C25.0317 21.2993 23.9649 21.2993 22.9 21.4598C22.2389 21.2945 21.5989 21.1345 20.98 20.9798C22.0814 19.4231 23.2814 17.9299 24.58 16.4998C24.7251 15.7777 24.4851 15.2444 23.86 14.8998C23.86 14.8465 23.86 14.7931 23.86 14.7398C24.0733 14.7398 24.2867 14.7398 24.5 14.7398C24.4489 14.3797 24.5289 14.0597 24.74 13.7798C25.063 14.2937 25.5165 14.5603 26.1 14.5798C26.136 14.9343 26.0027 15.201 25.7 15.3798C25.4941 14.9566 25.1475 14.7966 24.66 14.8998C24.7653 15.3247 24.872 15.7513 24.98 16.1798C24.795 16.5432 24.715 16.9166 24.74 17.2998C25.1174 17.9521 25.3574 17.8987 25.46 17.1398C25.6283 17.1159 25.7883 17.1425 25.94 17.2198C25.8585 17.631 25.6985 18.0043 25.46 18.3398C25.6669 18.4182 25.8803 18.4449 26.1 18.4198C26.1 18.1531 26.1 17.8865 26.1 17.6198C27.8067 17.6198 29.5133 17.6198 31.22 17.6198C31.1939 17.9969 31.2205 18.3702 31.3 18.7398C31.6291 19.1443 31.7891 19.6243 31.78 20.1798C31.8413 20.0908 31.9213 20.0375 32.02 20.0198Z"
        fill="#2479EF" />
    <path fill-rule="evenodd" clip-rule="evenodd"
        d="M9.93994 19.8599C11.4866 19.8599 13.0333 19.8599 14.5799 19.8599C14.5799 21.6731 14.5799 23.4866 14.5799 25.2999C14.421 23.889 14.3677 22.449 14.4199 20.9799C14.4199 20.6599 14.4199 20.3399 14.4199 20.0199C12.8975 20.0722 11.4042 20.0189 9.93994 19.8599Z"
        fill="#67A5F0" />
    <path fill-rule="evenodd" clip-rule="evenodd"
        d="M32.02 20.3398C31.5772 22.0398 30.8837 23.6398 29.94 25.1398C29.3548 25.0086 28.9815 25.2219 28.82 25.7798C26.1098 25.5621 23.3898 25.3488 20.66 25.1398C20.1109 25.3896 19.5242 25.5229 18.9 25.5398C19.3887 26.0064 19.2821 26.193 18.58 26.0998C17.9245 26.0843 17.498 25.7643 17.3 25.1398C18.3557 23.7894 19.449 22.456 20.58 21.1398C20.6874 21.0195 20.8207 20.9661 20.98 20.9798C21.5989 21.1346 22.2389 21.2946 22.9 21.4598C23.965 21.2994 25.0317 21.2994 26.1 21.4598C26.1 21.2998 26.1 21.1398 26.1 20.9798C26.5268 20.9798 26.9533 20.9798 27.38 20.9798C27.38 21.1398 27.38 21.2998 27.38 21.4598C27.8068 21.4598 28.2333 21.4598 28.66 21.4598C28.6362 21.2915 28.6628 21.1315 28.74 20.9798C28.8173 21.5115 29.0573 21.9382 29.46 22.2598C29.1455 22.9635 28.8789 23.6835 28.66 24.4198C28.6421 24.6858 28.7487 24.8725 28.98 24.9798C29.0047 24.7544 29.0314 24.4877 29.06 24.1798C29.6162 23.5246 29.9895 22.7781 30.18 21.9398C30.5517 21.5491 30.9517 21.2291 31.38 20.9798C31.3661 20.4842 31.4461 20.4307 31.62 20.8198C31.6804 20.5891 31.8136 20.4291 32.02 20.3398Z"
        fill="#2A80F3" />
    <path fill-rule="evenodd" clip-rule="evenodd"
        d="M13.62 25.62C13.5255 25.7241 13.4188 25.8309 13.3 25.94C11.4702 26.0075 9.65683 26.1675 7.85996 26.42C7.45427 26.123 7.02761 26.0697 6.57996 26.26C6.90601 26.5441 7.25268 26.8109 7.61996 27.06C7.70601 27.3757 7.57267 27.5357 7.21996 27.54C6.94735 27.1641 6.57403 27.0041 6.09996 27.06C6.0674 27.3624 6.17407 27.6024 6.41996 27.78C6.14004 27.991 5.82004 28.071 5.45996 28.02C3.60358 26.2819 2.27025 24.2019 1.45996 21.78C1.65992 21.7677 1.79326 21.6609 1.85996 21.46C1.88901 21.8961 1.96901 22.3229 2.09996 22.74C2.22543 22.3321 2.41209 21.9589 2.65996 21.62C2.81468 23.3793 2.94803 23.4326 3.05996 21.78C5.62219 21.8333 8.18219 21.7798 10.74 21.62C11.6236 21.3923 12.5036 21.179 13.38 20.98C13.4477 21.9411 13.5277 22.9011 13.62 23.86C13.6385 24.3272 13.5318 24.7539 13.3 25.14C13.2925 25.3861 13.3992 25.5461 13.62 25.62Z"
        fill="#2A80F4" />
    <path fill-rule="evenodd" clip-rule="evenodd"
        d="M14.42 20.98C14.3677 22.4491 14.421 23.8891 14.58 25.3C14.8651 26.211 15.4517 26.4777 16.34 26.1C16.61 25.7233 16.93 25.4033 17.3 25.14C17.4979 25.7645 17.9244 26.0845 18.58 26.1C19.282 26.1931 19.3886 26.0065 18.9 25.54C19.5241 25.523 20.1108 25.3897 20.66 25.14C23.3897 25.3489 26.1097 25.5622 28.82 25.78C28.9814 25.2221 29.3547 25.0088 29.94 25.14C28.4016 27.6921 26.2681 29.5587 23.54 30.74C22.6286 30.6438 22.5753 30.4838 23.38 30.26C23.54 30.1 23.7 29.94 23.86 29.78C23.8067 29.7267 23.7532 29.6733 23.7 29.62C22.8012 29.9574 21.9212 30.3309 21.06 30.74C20.9827 30.5883 20.9561 30.4283 20.98 30.26C19.055 30.368 17.135 30.4213 15.22 30.42C14.7933 30.3133 14.3666 30.2067 13.94 30.1C12.6345 30.4195 11.3812 30.3129 10.18 29.78C10.1 29.8067 10.02 29.8333 9.93996 29.86C10.1656 29.9189 10.3256 30.0521 10.42 30.26C10.1095 30.4245 9.78954 30.4245 9.45996 30.26C9.0498 30.2979 9.0498 30.3779 9.45996 30.5C9.30828 30.5773 9.14828 30.6038 8.97996 30.58C7.63522 29.9611 6.46188 29.1078 5.45996 28.02C5.82004 28.071 6.14004 27.991 6.41996 27.78C6.17407 27.6024 6.0674 27.3624 6.09996 27.06C6.57402 27.0041 6.94735 27.1641 7.21996 27.54C7.57266 27.5357 7.70601 27.3757 7.61996 27.06C7.25268 26.8109 6.90601 26.5441 6.57996 26.26C7.02761 26.0697 7.45426 26.123 7.85996 26.42C9.65682 26.1675 11.4702 26.0075 13.3 25.94C13.4188 25.8309 13.5255 25.7241 13.62 25.62C13.6985 25.2008 13.8852 24.8273 14.18 24.5C14.2074 23.2982 14.2874 22.1248 14.42 20.98Z"
        fill="#3186F9" />
    <path fill-rule="evenodd" clip-rule="evenodd"
        d="M23.54 30.7401C23.3371 30.9876 23.0704 31.1476 22.74 31.2201C22.2475 31.2393 21.8208 31.3993 21.46 31.7001C21.2133 31.8283 20.9467 31.8816 20.66 31.8601C20.0923 31.9609 19.559 32.1209 19.06 32.3401C18.5459 32.2905 18.0659 32.3438 17.62 32.5001C16.6067 32.5001 15.5933 32.5001 14.58 32.5001C14.58 32.3934 14.5267 32.3401 14.42 32.3401C13.5305 32.1342 12.6238 31.9209 11.7 31.7001C11.4802 31.7252 11.2669 31.6985 11.06 31.6201C10.3251 31.3416 9.63179 30.995 8.97998 30.5801C9.1483 30.604 9.3083 30.5774 9.45998 30.5001C9.04982 30.378 9.04982 30.298 9.45998 30.2601C9.78956 30.4246 10.1096 30.4246 10.42 30.2601C10.3256 30.0523 10.1656 29.919 9.93998 29.8601C10.02 29.8334 10.1 29.8068 10.18 29.7801C11.3812 30.3131 12.6345 30.4196 13.94 30.1001C14.3667 30.2068 14.7933 30.3134 15.22 30.4201C17.135 30.4214 19.055 30.3681 20.98 30.2601C20.9561 30.4284 20.9827 30.5884 21.06 30.7401C21.9213 30.331 22.8013 29.9576 23.7 29.6201C23.7533 29.6734 23.8067 29.7268 23.86 29.7801C23.7 29.9401 23.54 30.1001 23.38 30.2601C22.5753 30.484 22.6286 30.644 23.54 30.7401Z"
        fill="#368BFB" />
    <path fill-rule="evenodd" clip-rule="evenodd"
        d="M22.74 31.2202C22.4012 31.565 21.9745 31.725 21.46 31.7002C21.8208 31.3994 22.2475 31.2394 22.74 31.2202Z"
        fill="#ACD0F7" />
    <path fill-rule="evenodd" clip-rule="evenodd"
        d="M11.7 31.7002C12.6238 31.921 13.5305 32.1343 14.42 32.3402C13.4367 32.3844 12.53 32.1711 11.7 31.7002Z"
        fill="#79AAEE" />
    <path fill-rule="evenodd" clip-rule="evenodd"
        d="M20.6601 31.8599C20.1991 32.2087 19.6658 32.3687 19.0601 32.3399C19.5591 32.1207 20.0924 31.9607 20.6601 31.8599Z"
        fill="#ADCEF8" />
</svg>