<svg width="32" height="32" viewBox="0 0 32 32" fill="none" xmlns="http://www.w3.org/2000/svg">
<g clip-path="url(#clip0_4804_30)">
<path d="M4.26667 0H27.7333C30.0902 0 32 1.90984 32 4.26667V27.7333C32 30.0902 30.0902 32 27.7333 32H4.26667C1.90984 32 0 30.0902 0 27.7333V4.26667C0 1.90984 1.90984 0 4.26667 0Z" fill="#2D2E82"/>
<path d="M14.8724 19.8502C14.8724 22.0444 13.0032 23.8527 10.7479 23.8527C8.53333 23.8527 6.7454 22.0648 6.7454 19.8502C6.7454 17.534 8.55365 15.7257 10.7479 15.7257C13.0235 15.7257 14.8724 17.5543 14.8724 19.8298C14.8724 19.8502 14.8724 19.8502 14.8724 19.8502Z" fill="#FE5B6A"/>
<path d="M25.2546 12.2514C25.2546 14.4457 23.3854 16.254 21.1302 16.254C18.9156 16.254 17.1276 14.4457 17.1276 12.2514C17.1276 9.93524 18.9359 8.12698 21.1302 8.12698C23.4057 8.12698 25.2546 9.95556 25.2546 12.2311V12.2514Z" fill="#60DDCD"/>
</g>
<defs>
<clipPath id="clip0_4804_30">
<rect width="32" height="32" fill="white"/>
</clipPath>
</defs>
</svg>
