<svg width="32" height="32" viewBox="0 0 33 33" fill="none" xmlns="http://www.w3.org/2000/svg">
    <path fill-rule="evenodd" clip-rule="evenodd"
        d="M0.545776 10.8789C0.861868 10.8564 1.15526 10.9444 1.42596 11.1428C3.11298 13.1658 4.8 15.1888 6.48702 17.2118C6.5589 17.4392 6.58336 17.6739 6.56037 17.9154C6.41367 18.2087 6.21808 18.4432 5.97358 18.6191C5.94119 18.1622 5.86784 18.1622 5.75353 18.6191C5.42668 17.9371 5.01102 17.3507 4.50661 16.8599C4.1637 17.1257 4.0659 17.067 4.21321 16.684C3.99176 16.1994 3.69836 15.789 3.33303 15.4526C2.99012 15.7184 2.89232 15.6597 3.03963 15.2767C2.81818 14.7921 2.52478 14.3817 2.15945 14.0453C1.81654 14.3111 1.71874 14.2525 1.86605 13.8694C1.77331 13.4359 1.55326 13.1427 1.20591 12.9899C1.13403 12.7624 1.10958 12.5278 1.13257 12.2862C0.93697 12.2862 0.741372 12.2862 0.545776 12.2862C0.545776 11.8171 0.545776 11.348 0.545776 10.8789Z"
        fill="#629EFC" />
    <path fill-rule="evenodd" clip-rule="evenodd"
        d="M0.545776 6.65698C0.594675 6.65698 0.643575 6.65698 0.692474 6.65698C0.835221 7.0876 0.884119 7.5567 0.839171 8.06428C0.993494 8.03798 1.14019 8.06731 1.27926 8.15224C3.13743 10.4391 4.99559 12.726 6.85376 15.0128C7.00046 15.0714 7.14716 15.1301 7.29385 15.1887C7.16093 15.4876 7.11204 15.8102 7.14716 16.1562C7.29385 16.1562 7.44055 16.1562 7.58725 16.1562C7.58725 16.3322 7.58725 16.5081 7.58725 16.684C7.24892 17.0896 6.90663 17.5002 6.56037 17.9154C6.58336 17.6738 6.5589 17.4392 6.48702 17.2117C4.8 15.1887 3.11298 13.1657 1.42596 11.1427C1.15526 10.9443 0.861868 10.8564 0.545776 10.8789C0.545776 9.47158 0.545776 8.06428 0.545776 6.65698Z"
        fill="#5D87FC" />
    <path fill-rule="evenodd" clip-rule="evenodd"
        d="M32.2325 8.06421C32.2325 9.64742 32.2325 11.2306 32.2325 12.8138C32.1399 13.2493 31.9932 13.6597 31.7924 14.0452C31.7601 13.496 31.7601 12.9096 31.7924 12.2861C25.24 12.2834 18.7119 12.2834 12.2083 12.2861C11.9942 12.2319 11.823 12.1146 11.6948 11.9343C11.7926 11.7584 11.8904 11.5825 11.9882 11.4065C12.2417 11.103 12.5351 10.8684 12.8684 10.7029C13.1914 10.7422 13.5337 10.8009 13.8953 10.8788C19.7899 10.5294 25.7066 10.4121 31.6457 10.527C31.6219 10.1704 31.6464 9.81853 31.719 9.47151C31.7457 9.9511 31.8191 10.4202 31.9391 10.8788C32.0369 9.91387 32.1346 8.97566 32.2325 8.06421Z"
        fill="#5768FB" />
    <path fill-rule="evenodd" clip-rule="evenodd"
        d="M8.46745 15.6283C8.21711 15.8699 8.02152 16.1629 7.88066 16.5079C7.78285 16.5665 7.68507 16.6252 7.58726 16.6838C7.58726 16.5079 7.58726 16.332 7.58726 16.1561C7.44057 16.1561 7.29387 16.1561 7.14717 16.1561C7.11205 15.81 7.16095 15.4874 7.29387 15.1885C7.14717 15.13 7.00047 15.0712 6.85378 15.0126C4.9956 12.7258 3.13745 10.4389 1.27928 8.15206C1.1402 8.06713 0.993507 8.03781 0.839184 8.06411C0.884132 7.55653 0.835233 7.08742 0.692486 6.65681C0.646519 6.1736 0.695418 5.70451 0.839184 5.24951C3.18609 8.23972 5.58216 11.1716 8.02735 14.0451C8.12516 13.9278 8.22295 13.8106 8.32075 13.6933C8.50689 14.3557 8.5558 15.0007 8.46745 15.6283Z"
        fill="#5972FC" />
    <path fill-rule="evenodd" clip-rule="evenodd"
        d="M32.2323 6.65698C32.2323 7.12609 32.2323 7.59517 32.2323 8.06428C32.1345 8.97573 32.0368 9.91394 31.9389 10.8789C31.8189 10.4203 31.7456 9.95117 31.7189 9.47158C31.6463 9.8186 31.6218 10.1704 31.6455 10.527C25.7065 10.4122 19.7898 10.5295 13.8952 10.8789C13.5336 10.8009 13.1913 10.7423 12.8683 10.703C13.2583 10.0015 13.6984 9.35651 14.1886 8.76793C14.4331 8.53338 14.6775 8.29882 14.922 8.06428C14.9995 8.279 15.0974 8.48423 15.2154 8.67997C20.6919 8.76793 26.1686 8.79725 31.6455 8.76793C31.6062 8.48664 31.6552 8.25208 31.7922 8.06428C31.8512 7.54066 31.9979 7.07155 32.2323 6.65698Z"
        fill="#5A75FD" />
    <path fill-rule="evenodd" clip-rule="evenodd"
        d="M3.47972 6.30515C3.68358 6.5513 3.83028 6.84448 3.91981 7.18471C3.78438 7.04347 3.63768 7.01415 3.47972 7.09676C5.2652 9.06196 7.00111 11.0849 8.68747 13.1657C8.7583 13.3325 8.78275 13.5084 8.76082 13.6935C8.95641 13.6935 9.15202 13.6935 9.34761 13.6935C9.34761 13.928 9.34761 14.1626 9.34761 14.3971C9.34761 14.6316 9.34761 14.8663 9.34761 15.1008C8.96954 15.0928 8.67615 15.2688 8.46743 15.6285C8.55578 15.0008 8.50687 14.3559 8.32073 13.6935C8.22293 13.8107 8.12514 13.928 8.02734 14.0453C5.58214 11.1718 3.18607 8.23989 0.839165 5.24968C0.695399 5.70467 0.6465 6.17376 0.692468 6.65698C0.643569 6.65698 0.594669 6.65698 0.545771 6.65698C0.590719 6.1494 0.54182 5.68029 0.399073 5.24968C0.351923 4.27755 0.400822 3.33936 0.545771 2.43508C0.522273 2.73399 0.546723 3.02719 0.619119 3.31464C0.831756 1.94297 0.978453 1.94297 1.05921 3.31464C2.02067 4.43327 2.8275 5.43011 3.47972 6.30515Z"
        fill="#5764FB" />
    <path fill-rule="evenodd" clip-rule="evenodd"
        d="M11.9882 11.4064C11.8904 11.5823 11.7926 11.7583 11.6948 11.9342C11.1106 12.332 10.6949 12.9184 10.4478 13.6933C8.83803 12.0269 7.2977 10.2678 5.82687 8.41593C5.78892 8.05679 5.74003 7.70496 5.68018 7.36046C5.82067 7.10334 5.99182 6.8688 6.19362 6.65681C6.26631 6.30979 6.29074 5.95796 6.26697 5.60134C6.40756 5.68099 6.5298 5.79827 6.63371 5.95316C6.59519 5.69798 6.61964 5.46344 6.70706 5.24951C6.82711 5.70813 6.90046 6.17722 6.9271 6.65681C6.97223 6.51465 7.04558 6.39739 7.14715 6.30498C8.55757 7.93799 9.92674 9.63848 11.2547 11.4064C11.4886 11.5707 11.7331 11.5707 11.9882 11.4064Z"
        fill="#4F43FB" />
    <path fill-rule="evenodd" clip-rule="evenodd"
        d="M16.0957 6.65698C16.1083 6.83217 16.0593 6.97876 15.949 7.09676C16.0957 7.15539 16.2424 7.21404 16.3891 7.27267C19.5538 7.41807 22.7078 7.38874 25.8511 7.18472C25.9225 7.74977 26.1426 7.92568 26.5112 7.71246C26.6933 7.80696 26.8645 7.92424 27.0247 8.06428C27.098 8.03496 27.1713 8.00565 27.2447 7.97632C26.8614 7.78789 26.8614 7.6413 27.2447 7.53654C27.3425 7.53654 27.4402 7.53654 27.5381 7.53654C27.5994 7.66348 27.6971 7.75144 27.8315 7.80041C27.5242 7.89815 27.4997 7.9861 27.7581 8.06428C28.9747 7.88263 30.2705 7.76535 31.6456 7.71246C31.6219 7.35583 31.6464 7.004 31.719 6.65698C31.7919 7.12245 31.8164 7.59155 31.7923 8.06428C31.6553 8.25208 31.6063 8.48664 31.6456 8.76793C26.1687 8.79725 20.692 8.76793 15.2155 8.67997C15.0974 8.48423 14.9996 8.279 14.9221 8.06428C15.2604 7.54131 15.6516 7.07222 16.0957 6.65698Z"
        fill="#5C80FD" />
    <path fill-rule="evenodd" clip-rule="evenodd"
        d="M3.91983 7.18471C4.47968 7.57354 5.06647 7.63219 5.6802 7.36062C5.74005 7.70513 5.78894 8.05695 5.82689 8.41609C7.29773 10.2679 8.83805 12.027 10.4479 13.6935C10.6949 12.9185 11.1106 12.3322 11.6948 11.9343C11.823 12.1147 11.9941 12.2319 12.2082 12.2862C18.7119 12.2835 25.2399 12.2835 31.7923 12.2862C31.7601 12.9096 31.7601 13.496 31.7923 14.0453C31.4114 14.0841 31.4114 14.1721 31.7923 14.3091C31.4523 14.3694 31.1344 14.2814 30.8388 14.0453C23.6794 14.1638 16.5157 14.2811 9.34763 14.3971C9.34763 14.1626 9.34763 13.928 9.34763 13.6935C9.15204 13.6935 8.95643 13.6935 8.76084 13.6935C8.78277 13.5084 8.75832 13.3325 8.68749 13.1657C7.00113 11.0849 5.26522 9.06195 3.47974 7.09675C3.6377 7.01414 3.7844 7.04347 3.91983 7.18471Z"
        fill="#535BFB" />
    <path fill-rule="evenodd" clip-rule="evenodd"
        d="M32.2324 6.65688C31.998 7.07145 31.8513 7.54056 31.7923 8.06418C31.8164 7.59145 31.7919 7.12234 31.719 6.65688C31.6463 7.0039 31.6218 7.35573 31.6456 7.71235C30.2705 7.76525 28.9747 7.88253 27.7581 8.06418C27.4997 7.986 27.5241 7.89805 27.8315 7.80031C27.6971 7.75133 27.5994 7.66338 27.5381 7.53644C28.7897 7.53417 29.3275 6.77189 29.1518 5.24958C29.2857 4.97057 29.2857 4.7067 29.1518 4.45798C30.0306 4.37011 30.9108 4.34078 31.7923 4.37002C31.7505 4.68455 31.7994 4.97775 31.939 5.24958C32.059 4.79096 32.1324 4.32187 32.1591 3.84229C32.2323 4.77865 32.2568 5.71686 32.2324 6.65688Z"
        fill="#608CFC" />
    <path fill-rule="evenodd" clip-rule="evenodd"
        d="M26.3645 5.60134C26.3941 6.43565 26.6875 7.08067 27.2447 7.53637C26.8614 7.64113 26.8614 7.78771 27.2447 7.97615C27.1713 8.00547 27.098 8.03478 27.0246 8.06411C26.8644 7.92406 26.6932 7.80678 26.5112 7.71228C26.1425 7.9255 25.9225 7.74959 25.851 7.18455C22.7078 7.38857 19.5538 7.41789 16.3891 7.2725C16.2424 7.21387 16.0957 7.15522 15.949 7.09659C16.0593 6.97859 16.1083 6.832 16.0957 6.65681C16.2499 6.52975 16.3477 6.35384 16.3891 6.12907C16.5846 5.95316 16.7803 5.77725 16.9759 5.60134C17.3319 5.73835 17.3319 5.94357 16.9759 6.21703C17.1953 6.30629 17.3665 6.21833 17.4893 5.95316C18.8719 6.06935 20.2655 6.12798 21.6702 6.12907C23.0974 6.12664 24.491 6.00938 25.851 5.77725C25.8283 6.18373 25.8283 6.59418 25.851 7.00863C26.1579 6.50317 26.3046 5.91678 26.2911 5.24951C26.3592 5.35407 26.3837 5.47135 26.3645 5.60134Z"
        fill="#5E8AFC" />
    <path fill-rule="evenodd" clip-rule="evenodd"
        d="M27.3914 4.37011C28.164 4.18978 28.7508 4.48297 29.1518 5.24967C29.3275 6.77198 28.7897 7.53426 27.5381 7.53653C27.4402 7.53653 27.3425 7.53653 27.2447 7.53653C26.6875 7.08083 26.3941 6.43581 26.3645 5.60149C26.5559 5.02009 26.8982 4.60961 27.3914 4.37011Z"
        fill="#F9FCFB" />
    <path fill-rule="evenodd" clip-rule="evenodd"
        d="M6.26701 5.24951C6.26701 5.36679 6.26701 5.48405 6.26701 5.60133C6.29079 5.95796 6.26635 6.30978 6.19366 6.6568C5.99186 6.8688 5.82071 7.10334 5.68022 7.36045C5.0665 7.63203 4.47971 7.57338 3.91985 7.18454C3.83032 6.84431 3.68362 6.55113 3.47976 6.30498C3.42862 4.81214 4.01541 4.1378 5.24013 4.28199C5.69791 4.45206 6.04021 4.77456 6.26701 5.24951Z"
        fill="#F7F7FA" />
    <path fill-rule="evenodd" clip-rule="evenodd"
        d="M18.5895 3.6665C21.0169 3.70719 23.4374 3.8831 25.851 4.19424C26.2351 3.72987 26.5775 3.78852 26.8779 4.37015C27.093 4.04913 27.3619 3.96117 27.6847 4.10628C27.5504 4.15526 27.4527 4.24321 27.3913 4.37015C26.8981 4.60966 26.5559 5.02013 26.3645 5.60154C26.3837 5.47156 26.3592 5.35428 26.2911 5.24971C26.3046 5.91698 26.1579 6.50337 25.851 7.00883C25.8283 6.59439 25.8283 6.18393 25.851 5.77745C24.491 6.00958 23.0974 6.12685 21.6701 6.12927C20.2655 6.12818 18.8719 6.06955 17.4893 5.95336C17.3665 6.21853 17.1953 6.30649 16.9758 6.21723C17.3319 5.94377 17.3319 5.73856 16.9758 5.60154C17.4648 4.89789 18.0027 4.25287 18.5895 3.6665Z"
        fill="#6298FC" />
    <path fill-rule="evenodd" clip-rule="evenodd"
        d="M32.0858 2.08314C32.1917 2.15658 32.265 2.27386 32.3058 2.43496C32.4274 6.21778 32.4031 9.97056 32.2325 13.6933C32.2325 13.4001 32.2325 13.107 32.2325 12.8138C32.2325 11.2306 32.2325 9.64736 32.2325 8.06415C32.2325 7.59505 32.2325 7.12596 32.2325 6.65685C32.2568 5.71683 32.2323 4.77862 32.1591 3.84226C32.1324 4.32185 32.0591 4.79094 31.9391 5.24956C31.7994 4.97772 31.7506 4.68453 31.7924 4.37C30.9109 4.34076 30.0307 4.37008 29.1518 4.45795C29.2857 4.70667 29.2857 4.97054 29.1518 5.24956C28.7509 4.48286 28.1641 4.18967 27.3914 4.37C27.4528 4.24306 27.5505 4.1551 27.6848 4.10613C27.362 3.96102 27.0931 4.04897 26.878 4.37C26.5776 3.78836 26.2352 3.72971 25.8511 4.19408C23.4375 3.88295 21.017 3.70704 18.5896 3.66635C18.9318 3.13861 19.3231 2.66951 19.7632 2.25905C20.2102 2.54276 20.5769 2.4255 20.8634 1.90723C20.8521 2.12494 20.8765 2.30085 20.9368 2.43496C22.5762 2.2042 24.2389 2.08694 25.9245 2.08314C27.6724 2.09225 29.4082 2.20951 31.1322 2.43496C31.4704 2.43776 31.7149 2.26185 31.8657 1.90723C31.9219 2.00503 31.9952 2.06367 32.0858 2.08314Z"
        fill="#6BA8FD" />
    <path fill-rule="evenodd" clip-rule="evenodd"
        d="M11.1079 0.675908C8.95581 0.646601 6.80426 0.675925 4.65325 0.763864C5.04445 0.822495 5.43563 0.881144 5.82683 0.939776C4.91311 1.08047 4.88865 1.40297 5.75348 1.90729C5.80237 1.84866 5.85128 1.79001 5.90018 1.73138C6.28493 1.9979 6.43163 2.34973 6.34027 2.78685C6.55445 3.12503 6.79895 3.24231 7.07375 3.13868C7.45851 3.4052 7.60521 3.75703 7.51385 4.19415C7.72802 4.53232 7.97252 4.6496 8.24733 4.54597C8.56251 4.80587 8.7581 5.15769 8.83412 5.60145C9.25398 5.82936 9.62073 6.15186 9.93435 6.56896C9.7949 6.69518 9.77046 6.84179 9.861 7.00874C10.0752 7.34692 10.3197 7.4642 10.5945 7.36057C10.7656 7.5658 10.9368 7.77102 11.1079 7.97626C10.9279 8.2555 10.9768 8.49005 11.2546 8.67991C11.4395 8.8757 11.6107 8.90502 11.7681 8.76787C12.0188 9.27576 12.3855 9.5103 12.8683 9.47151C13.308 9.24031 13.7481 9.00577 14.1886 8.76787C13.6984 9.35645 13.2583 10.0015 12.8683 10.7029C12.535 10.8684 12.2416 11.103 11.9881 11.4065C11.7331 11.5708 11.4886 11.5708 11.2546 11.4065C9.92669 9.6386 8.55752 7.93811 7.1471 6.3051C7.04553 6.3975 6.97218 6.51477 6.92706 6.65692C6.90042 6.17733 6.82707 5.70824 6.70701 5.24962C6.61959 5.46355 6.59514 5.69809 6.63366 5.95327C6.52976 5.79838 6.40751 5.6811 6.26692 5.60145C6.26692 5.48417 6.26692 5.3669 6.26692 5.24962C6.24198 5.01705 6.29089 4.81183 6.41362 4.63393C6.30981 4.14708 6.08977 4.00049 5.75348 4.19415C4.62458 3.36991 3.62216 2.34377 2.74618 1.11569C2.99068 1.05706 3.23517 0.998407 3.47967 0.939776C2.96253 0.90834 2.47353 0.820384 2.0127 0.675908C5.04445 0.441364 8.07618 0.441364 11.1079 0.675908Z"
        fill="#5032FB" />
    <path fill-rule="evenodd" clip-rule="evenodd"
        d="M2.01272 0.676025C2.47355 0.820502 2.96256 0.908458 3.47969 0.939894C3.23519 0.998525 2.99071 1.05717 2.74621 1.11581C3.62218 2.34388 4.62461 3.37003 5.7535 4.19427C6.08979 4.00061 6.30984 4.14719 6.41364 4.63405C6.29091 4.81195 6.242 5.01717 6.26694 5.24974C6.04015 4.7748 5.69785 4.4523 5.24006 4.28222C4.01534 4.13803 3.42855 4.81237 3.47969 6.30521C2.82748 5.43017 2.02064 4.43333 1.05919 3.31471C0.978429 1.94303 0.831731 1.94303 0.619095 3.31471C0.546698 3.02725 0.522248 2.73406 0.545746 2.43515C0.692444 1.43831 1.18143 0.851938 2.01272 0.676025Z"
        fill="#5044FA" />
    <path fill-rule="evenodd" clip-rule="evenodd"
        d="M32.0856 2.08333C31.9951 2.06385 31.9218 2.00522 31.8656 1.90741C31.7148 2.26204 31.4702 2.43795 31.1321 2.43515C29.4081 2.2097 27.6722 2.09244 25.9244 2.08333C24.2388 2.08713 22.5761 2.20439 20.9366 2.43515C20.8763 2.30104 20.852 2.12512 20.8633 1.90741C20.5768 2.42569 20.21 2.54295 19.7631 2.25924C20.1512 1.53001 20.6892 1.0316 21.3767 0.763986C24.5062 0.646705 27.6359 0.646705 30.7654 0.763986C31.412 0.925086 31.8521 1.36487 32.0856 2.08333Z"
        fill="#66B3FD" />
    <path fill-rule="evenodd" clip-rule="evenodd"
        d="M11.108 0.676026C11.4771 0.720937 11.8194 0.867524 12.1349 1.11581C13.5336 2.82254 14.9518 4.49371 16.3891 6.1293C16.3477 6.35407 16.2499 6.52998 16.0957 6.65704C15.6517 7.07228 15.2604 7.54137 14.9221 8.06434C14.6776 8.29888 14.4331 8.53344 14.1886 8.76798C13.7482 9.00589 13.3081 9.24043 12.8684 9.47163C12.3856 9.51042 12.0188 9.27588 11.7681 8.76798C11.6107 8.90514 11.4396 8.87582 11.2547 8.68003C10.9769 8.49017 10.928 8.25562 11.108 7.97638C10.9369 7.77114 10.7657 7.56592 10.5946 7.36069C10.3198 7.46432 10.0753 7.34704 9.86108 7.00886C9.77053 6.84191 9.79497 6.6953 9.93443 6.56908C9.6208 6.15198 9.25406 5.82948 8.83419 5.60157C8.75818 5.15781 8.56258 4.80599 8.24741 4.54609C7.9726 4.64972 7.7281 4.53244 7.51392 4.19427C7.60528 3.75714 7.45858 3.40532 7.07383 3.1388C6.79902 3.24243 6.55452 3.12515 6.34034 2.78697C6.4317 2.34985 6.28501 1.99802 5.90025 1.7315C5.85135 1.79013 5.80244 1.84878 5.75355 1.90741C4.88873 1.40309 4.91318 1.08059 5.8269 0.939894C5.4357 0.881263 5.04452 0.822614 4.65332 0.763982C6.80433 0.676044 8.95588 0.646719 11.108 0.676026Z"
        fill="#4311FA" />
    <path fill-rule="evenodd" clip-rule="evenodd"
        d="M32.2324 12.814C32.2324 13.1072 32.2324 13.4003 32.2324 13.6935C31.4691 15.2546 30.4912 16.6033 29.2984 17.7395C29.3285 17.2797 29.3285 16.8691 29.2984 16.5081C22.1716 16.5032 15.0324 16.5032 7.88062 16.5081C8.02147 16.1632 8.21707 15.8701 8.4674 15.6286C8.67613 15.2688 8.96952 15.0929 9.34759 15.1008C9.34759 14.8663 9.34759 14.6317 9.34759 14.3972C16.5157 14.2811 23.6793 14.1638 30.8388 14.0453C31.1343 14.2815 31.4522 14.3694 31.7923 14.3092C31.4113 14.1721 31.4113 14.0842 31.7923 14.0453C31.9931 13.6598 32.1398 13.2494 32.2324 12.814Z"
        fill="#514FFB" />
    <path fill-rule="evenodd" clip-rule="evenodd"
        d="M29.2985 17.7395C29.0051 18.2086 28.6628 18.619 28.2716 18.9709C28.2189 18.6417 28.0722 18.3779 27.8315 18.1793C27.649 18.099 27.5268 18.187 27.4648 18.4431C27.3181 18.2672 27.1714 18.0913 27.0247 17.9154C20.3819 18.2658 13.7072 18.3831 7.00048 18.2672C7.02347 18.5087 6.99902 18.7434 6.92713 18.9709C6.87318 18.7228 6.75094 18.5469 6.56039 18.4431C6.34919 18.6985 6.10469 18.8745 5.8269 18.9709C5.8758 18.8535 5.92471 18.7364 5.9736 18.619C6.2181 18.4431 6.41369 18.2086 6.56039 17.9154C6.90666 17.5002 7.24894 17.0897 7.58727 16.684C7.68508 16.6254 7.78286 16.5667 7.88067 16.5081C15.0325 16.5032 22.1716 16.5032 29.2985 16.5081C29.3286 16.8691 29.3286 17.2796 29.2985 17.7395Z"
        fill="#4F42FA" />
    <path fill-rule="evenodd" clip-rule="evenodd"
        d="M0.399055 5.24951C0.541802 5.68013 0.5907 6.14923 0.545752 6.65681C0.545752 8.06411 0.545752 9.4714 0.545752 10.8787C0.545752 11.3478 0.545752 11.8169 0.545752 12.286C0.741348 12.286 0.936946 12.286 1.13254 12.286C1.10956 12.5276 1.13401 12.7622 1.20589 12.9896C1.55324 13.1424 1.77329 13.4356 1.86603 13.8692C1.71872 14.2522 1.81652 14.3109 2.15942 14.0451C2.52476 14.3815 2.81815 14.7919 3.03961 15.2765C2.89229 15.6595 2.9901 15.7182 3.333 15.4524C3.69834 15.7888 3.99173 16.1992 4.21319 16.6838C4.06587 17.0668 4.16368 17.1255 4.50658 16.8597C5.011 17.3505 5.42665 17.9368 5.75351 18.6188C5.86782 18.162 5.94116 18.162 5.97355 18.6188C5.92466 18.7362 5.87575 18.8533 5.82686 18.9707C5.82686 19.0292 5.82686 19.088 5.82686 19.1466C5.82686 19.6157 5.82686 20.0847 5.82686 20.5539C4.55622 18.8836 3.21151 17.3004 1.79268 15.8042C1.28292 15.1703 0.842826 14.4666 0.472404 13.6933C0.399065 10.8793 0.374617 8.06472 0.399055 5.24951Z"
        fill="#6CB2FC" />
    <path fill-rule="evenodd" clip-rule="evenodd"
        d="M28.2716 18.9708C27.587 19.9089 26.8535 20.7885 26.0711 21.6094C25.928 21.3781 25.7813 21.1436 25.631 20.9058C25.6799 20.7885 25.7289 20.6713 25.7777 20.554C19.4844 20.32 13.2008 20.32 6.92713 20.554C6.64028 19.9881 6.27354 19.5191 5.8269 19.1467C5.8269 19.0881 5.8269 19.0293 5.8269 18.9708C6.10469 18.8744 6.34919 18.6984 6.56039 18.443C6.75094 18.5468 6.87318 18.7227 6.92713 18.9708C6.99902 18.7433 7.02347 18.5086 7.00048 18.2671C13.7072 18.383 20.3819 18.2657 27.0247 17.9153C27.1714 18.0912 27.3181 18.2671 27.4648 18.443C27.5268 18.1869 27.649 18.0989 27.8315 18.1792C28.0722 18.3778 28.2189 18.6416 28.2716 18.9708Z"
        fill="#4C37FB" />
    <path fill-rule="evenodd" clip-rule="evenodd"
        d="M5.8269 19.1467C6.27354 19.5191 6.64028 19.9881 6.92713 20.554C13.2008 20.3201 19.4844 20.3201 25.7777 20.554C25.7289 20.6714 25.6799 20.7885 25.631 20.9058C25.7813 21.1437 25.928 21.3782 26.0711 21.6095C24.9464 23.0754 23.7728 24.4827 22.5504 25.8314C22.6144 25.26 22.8588 24.8202 23.2839 24.512C23.186 24.4535 23.0883 24.3947 22.9905 24.3361C23.3848 24.1986 23.5315 23.9347 23.4306 23.5445C19.1677 23.5268 14.8646 23.5561 10.5212 23.6325C10.4442 23.7542 10.3464 23.8422 10.2278 23.8964C9.91512 23.6119 9.57284 23.5239 9.20094 23.6325C9.29458 23.9328 9.29458 24.2552 9.20094 24.6C8.01545 23.2956 6.89077 21.9471 5.8269 20.554C5.8269 20.0849 5.8269 19.6159 5.8269 19.1467Z"
        fill="#4B27FA" />
    <path fill-rule="evenodd" clip-rule="evenodd"
        d="M22.5504 25.8314C20.8685 27.9362 19.1571 30.0178 17.416 32.0763C16.7265 32.6413 16.0419 32.6413 15.3622 32.0763C13.2788 29.6074 11.2251 27.1154 9.20093 24.6C9.29456 24.2553 9.29456 23.9328 9.20093 23.6325C9.57282 23.524 9.91511 23.6119 10.2278 23.8964C10.3464 23.8422 10.4441 23.7543 10.5212 23.6325C14.8646 23.5562 19.1677 23.5268 23.4306 23.5446C23.5315 23.9347 23.3848 24.1986 22.9905 24.3362C23.0883 24.3948 23.186 24.4535 23.2839 24.5121C22.8587 24.8203 22.6143 25.2601 22.5504 25.8314Z"
        fill="#4516FA" />
</svg>