<svg width="32" height="32" viewBox="0 0 32 32" fill="none" xmlns="http://www.w3.org/2000/svg">
    <g clip-path="url(#clip0_1430_109)">
        <path
            d="M28.0965 0.212158H3.87625C2.02102 0.212158 0.518188 1.58697 0.518188 3.28416V28.7052C0.518188 30.4024 2.02102 31.7772 3.87625 31.7772H28.0965C29.9504 31.7772 31.4545 30.4012 31.4545 28.7052V3.28416C31.4545 1.58697 29.9517 0.212158 28.0965 0.212158Z"
            fill="#6D33AA" />
        <path opacity="0.28"
            d="M31.4546 22.106L13.1614 31.7771L5.54492 18.3347H10.2659L5.54492 8.97412H19.8218L22.1849 13.6935L26.4278 13.6544L31.4546 22.106Z"
            fill="url(#paint0_linear_1430_109)" />
        <path
            d="M18.4085 10.3347H6.95714C6.17722 10.3347 5.5437 9.75634 5.5437 9.04167V8.90656C5.5437 8.19308 6.17593 7.61353 6.95714 7.61353H18.4085C19.1884 7.61353 19.8219 8.1919 19.8219 8.90656V9.04167C19.8219 9.75634 19.1897 10.3347 18.4085 10.3347Z"
            fill="white" />
        <path
            d="M25.0144 15.0151H13.5631C12.7832 15.0151 12.1497 14.4368 12.1497 13.7221V13.587C12.1497 12.8735 12.7819 12.2939 13.5631 12.2939H25.0144C25.7944 12.2939 26.4279 12.8723 26.4279 13.587V13.7221C26.4279 14.4368 25.7957 15.0151 25.0144 15.0151Z"
            fill="#8BF76D" />
        <path
            d="M18.4085 19.6953H6.95714C6.17722 19.6953 5.5437 19.1169 5.5437 18.4023V18.2672C5.5437 17.5537 6.17593 16.9741 6.95714 16.9741H18.4085C19.1884 16.9741 19.8219 17.5525 19.8219 18.2672V18.4023C19.8219 19.1158 19.1897 19.6953 18.4085 19.6953Z"
            fill="white" />
        <path
            d="M25.0144 24.3757H16.5389C15.759 24.3757 15.1255 23.7974 15.1255 23.0827V22.9476C15.1255 22.2341 15.7577 21.6545 16.5389 21.6545H25.0144C25.7943 21.6545 26.4278 22.2329 26.4278 22.9476V23.0827C26.4278 23.7962 25.7956 24.3757 25.0144 24.3757Z"
            fill="#8BF76D" />
    </g>
    <defs>
        <linearGradient id="paint0_linear_1430_109" x1="22.426" y1="26.8848" x2="11.3477"
            y2="5.90961" gradientUnits="userSpaceOnUse">
            <stop offset="0.197" stop-color="#6D33AA" />
            <stop offset="1" />
        </linearGradient>
        <clipPath id="clip0_1430_109">
            <rect width="32" height="32" fill="white" />
        </clipPath>
    </defs>
</svg>