<svg width="32" height="32" viewBox="0 0 33 33" fill="none" xmlns="http://www.w3.org/2000/svg">
    <path opacity="0.996" fill-rule="evenodd" clip-rule="evenodd"
        d="M22.5825 2.91678C22.5711 3.06438 22.6752 3.16106 22.8946 3.20679C23.1026 3.33568 23.3107 3.46458 23.5187 3.59347C23.79 3.85861 24.1542 4.05196 24.6109 4.1735C25.629 4.73118 26.6172 5.3112 27.5755 5.91358C27.666 6.13097 27.874 6.29209 28.1996 6.39694C29.5866 7.28015 30.1847 8.34351 29.994 9.58708C29.8718 9.96922 29.6378 10.3237 29.2918 10.6505C27.2403 9.81919 25.2119 8.96529 23.2066 8.08868C21.9339 7.4791 20.9977 6.72184 20.3981 5.81691C20.3107 5.59449 20.2327 5.36893 20.164 5.14021C20.1043 5.08646 20.0263 5.05424 19.93 5.04354C19.8531 4.82066 19.8011 4.59508 19.774 4.36684C19.7468 3.68674 19.7988 3.01005 19.93 2.33675C19.93 2.24008 19.93 2.14341 19.93 2.04674C20.0263 2.03604 20.1043 2.00382 20.164 1.95007C20.2413 1.75936 20.2673 1.56602 20.242 1.37004C20.5291 1.09919 20.7892 0.809173 21.0222 0.5C21.2403 1.39047 21.7604 2.19606 22.5825 2.91678Z"
        fill="#ED3426" />
    <path opacity="0.996" fill-rule="evenodd" clip-rule="evenodd"
        d="M20.2421 1.37012C20.2674 1.5661 20.2413 1.75944 20.1641 1.95014C20.1043 2.00389 20.0263 2.03611 19.9301 2.04681C19.9967 1.80419 20.1006 1.57862 20.2421 1.37012Z"
        fill="#F5847A" />
    <path fill-rule="evenodd" clip-rule="evenodd"
        d="M22.5825 2.91675C22.8019 2.96248 22.906 3.05915 22.8946 3.20676C22.6752 3.16103 22.5711 3.06436 22.5825 2.91675Z"
        fill="#F58076" />
    <path opacity="0.998" fill-rule="evenodd" clip-rule="evenodd"
        d="M19.93 2.33667C19.7988 3.00996 19.7468 3.68666 19.774 4.36676C19.6702 4.04613 19.6181 3.70778 19.6179 3.35172C19.6198 2.97453 19.7239 2.63618 19.93 2.33667Z"
        fill="#F5857C" />
    <path opacity="0.996" fill-rule="evenodd" clip-rule="evenodd"
        d="M23.5187 3.59351C23.9754 3.71505 24.3396 3.90839 24.6109 4.17353C24.1542 4.05199 23.79 3.85865 23.5187 3.59351Z"
        fill="#F9ABA5" />
    <path opacity="0.998" fill-rule="evenodd" clip-rule="evenodd"
        d="M15.4051 5.62365C15.3937 5.77126 15.4978 5.86793 15.7172 5.91366C16.8571 7.10357 18.4695 7.94134 20.5541 8.42711C20.9968 8.6656 21.517 8.82665 22.1144 8.91047C22.8163 9.13532 23.5444 9.32867 24.2989 9.49049C24.3727 9.62641 24.5287 9.69089 24.7669 9.68384C25.1082 9.80545 25.4722 9.90212 25.8592 9.97385C26.0984 10.1425 26.4104 10.2392 26.7954 10.2639C26.8692 10.3998 27.0252 10.4643 27.2634 10.4572C27.3372 10.5931 27.4933 10.6576 27.7315 10.6505C27.8548 10.7376 28.0108 10.8021 28.1996 10.8439C28.3185 11.0142 28.5267 11.1109 28.8238 11.1339C29.1316 11.2602 29.3916 11.4213 29.6039 11.6173C29.6944 11.8347 29.9024 11.9957 30.228 12.1006C30.5788 12.3088 30.8128 12.5667 30.9302 12.874C31.0174 13.4939 30.9394 14.1062 30.6961 14.7107C30.4767 14.7565 30.3727 14.8531 30.3841 15.0007C30.3841 15.0652 30.3841 15.1296 30.3841 15.1941C30.1118 15.3423 29.9558 15.5356 29.916 15.7741C29.916 15.8063 29.916 15.8386 29.916 15.8708C29.6243 16.0191 29.4164 16.2124 29.2918 16.4508C28.412 17.1893 27.3717 17.8338 26.1712 18.3842C26.0672 17.9975 25.9632 17.6109 25.8592 17.2242C25.7949 16.9934 25.6389 16.8001 25.3911 16.6442C25.0756 16.2058 24.6594 15.8031 24.1428 15.4358C22.7393 14.8625 21.335 14.2986 19.93 13.744C19.8194 13.6566 19.6633 13.6244 19.4619 13.6474C19.48 13.9722 19.532 14.2944 19.6179 14.6141C19.5803 14.8459 19.6844 15.0392 19.93 15.1941C20.1789 15.4633 20.3349 15.7533 20.3981 16.0641C20.3867 16.2117 20.4908 16.3084 20.7101 16.3541C20.7621 16.483 20.8142 16.612 20.8662 16.7408C20.8548 16.8884 20.9589 16.9851 21.1782 17.0308C21.1782 17.063 21.1782 17.0953 21.1782 17.1275C21.1843 17.2322 21.2364 17.3289 21.3343 17.4175C21.263 17.4947 21.1589 17.5269 21.0222 17.5142C20.4742 17.2561 19.9022 17.0144 19.3059 16.7892C18.7549 16.496 18.2347 16.1898 17.7456 15.8708C17.1734 15.4519 16.5493 15.0652 15.8732 14.7107C15.145 14.1307 14.4169 13.5507 13.6888 12.9707C13.7001 12.823 13.5961 12.7264 13.3767 12.6806C13.3247 12.6162 13.2726 12.5518 13.2207 12.4873C13.2321 12.3397 13.128 12.243 12.9086 12.1973C12.8123 11.9213 12.6563 11.6635 12.4405 11.4239C12.4001 11.1559 12.2441 10.9304 11.9724 10.7472C11.9724 10.715 11.9724 10.6827 11.9724 10.6505C12.01 10.4187 11.9059 10.2254 11.6604 10.0705C11.6137 9.86712 11.6657 9.67378 11.8164 9.49049C12.3213 10.0293 12.9454 10.5127 13.6888 10.9406C13.9089 11.1739 14.221 11.3351 14.6249 11.4239C14.891 11.5875 15.203 11.7163 15.5611 11.8106C15.7788 11.9846 16.0387 12.0169 16.3413 11.9073C16.2339 11.7763 16.0779 11.6796 15.8732 11.6173C15.8212 11.5528 15.7691 11.4884 15.7172 11.4239C15.7285 11.2763 15.6245 11.1796 15.4051 11.1339C15.1448 10.8112 14.8849 10.4889 14.6249 10.1672C14.303 9.76301 14.0951 9.34413 14.0008 8.91047C14.0008 8.87828 14.0008 8.84599 14.0008 8.8138C13.8969 7.94521 13.8449 7.07521 13.8448 6.20368C13.8448 6.13923 13.8448 6.07479 13.8448 6.01033C13.9807 5.76837 14.0846 5.51057 14.1568 5.23697C14.1921 4.87035 14.3222 4.51589 14.5469 4.17358C14.8473 4.65122 15.1334 5.13457 15.4051 5.62365Z"
        fill="#B5151C" />
    <path opacity="0.996" fill-rule="evenodd" clip-rule="evenodd"
        d="M19.9301 5.04346C20.0263 5.05416 20.1043 5.08638 20.1641 5.14013C20.2328 5.36884 20.3108 5.5944 20.3981 5.81683C20.3019 5.80612 20.2239 5.7739 20.1641 5.72015C20.0954 5.49144 20.0174 5.26588 19.9301 5.04346Z"
        fill="#F7948C" />
    <path opacity="0.996" fill-rule="evenodd" clip-rule="evenodd"
        d="M15.4051 5.62354C15.6245 5.66927 15.7286 5.76594 15.7172 5.91355C15.4978 5.86781 15.3937 5.77114 15.4051 5.62354Z"
        fill="#D57A7E" />
    <path fill-rule="evenodd" clip-rule="evenodd"
        d="M14.1569 5.23682C14.0847 5.51042 13.9807 5.76822 13.8448 6.01019C13.7612 5.70102 13.8653 5.44324 14.1569 5.23682Z"
        fill="#DD9296" />
    <path fill-rule="evenodd" clip-rule="evenodd"
        d="M27.5756 5.91357C27.9012 6.01842 28.1092 6.17954 28.1997 6.39693C27.874 6.29208 27.6661 6.13097 27.5756 5.91357Z"
        fill="#F3675B" />
    <path opacity="0.996" fill-rule="evenodd" clip-rule="evenodd"
        d="M13.8447 6.20361C13.8449 7.07514 13.8969 7.94514 14.0008 8.81373C13.7706 8.30553 13.6666 7.7738 13.6887 7.21866C13.6889 6.86259 13.741 6.52424 13.8447 6.20361Z"
        fill="#D26E73" />
    <path fill-rule="evenodd" clip-rule="evenodd"
        d="M20.5541 8.427C21.1515 8.51082 21.6717 8.67187 22.1144 8.91036C21.5169 8.82654 20.9967 8.66549 20.5541 8.427Z"
        fill="#E6ABAE" />
    <path opacity="0.996" fill-rule="evenodd" clip-rule="evenodd"
        d="M14.0009 8.9104C14.0951 9.34407 14.3031 9.76294 14.625 10.1671C14.0782 9.82955 13.8701 9.41067 14.0009 8.9104Z"
        fill="#F0CBCC" />
    <path opacity="0.996" fill-rule="evenodd" clip-rule="evenodd"
        d="M24.2988 9.49051C24.5371 9.48346 24.6931 9.54793 24.7669 9.68385C24.5287 9.69091 24.3726 9.62643 24.2988 9.49051Z"
        fill="#DC8C90" />
    <path fill-rule="evenodd" clip-rule="evenodd"
        d="M25.8591 9.97388C26.2441 9.99853 26.5561 10.0952 26.7953 10.2639C26.4104 10.2392 26.0983 10.1426 25.8591 9.97388Z"
        fill="#EBBEBF" />
    <path fill-rule="evenodd" clip-rule="evenodd"
        d="M11.6603 10.0706C11.9059 10.2254 12.01 10.4188 11.9724 10.6506C11.7268 10.4957 11.6227 10.3024 11.6603 10.0706Z"
        fill="#DF9699" />
    <path fill-rule="evenodd" clip-rule="evenodd"
        d="M27.2634 10.4571C27.5017 10.45 27.6577 10.5145 27.7315 10.6504C27.4933 10.6575 27.3372 10.593 27.2634 10.4571Z"
        fill="#E4A6A8" />
    <path fill-rule="evenodd" clip-rule="evenodd"
        d="M28.1996 10.8438C28.4967 10.8668 28.7048 10.9634 28.8237 11.1338C28.5266 11.1108 28.3185 11.0141 28.1996 10.8438Z"
        fill="#E4A5A8" />
    <path fill-rule="evenodd" clip-rule="evenodd"
        d="M13.6887 10.9404C14.0927 11.0293 14.4047 11.1904 14.6249 11.4238C14.2209 11.3349 13.9089 11.1738 13.6887 10.9404Z"
        fill="#E6ADB0" />
    <path opacity="0.996" fill-rule="evenodd" clip-rule="evenodd"
        d="M11.9724 10.7471C12.2441 10.9303 12.4001 11.1558 12.4405 11.4238C12.1689 11.2406 12.0128 11.015 11.9724 10.7471Z"
        fill="#D5777A" />
    <path fill-rule="evenodd" clip-rule="evenodd"
        d="M15.4051 11.1338C15.6245 11.1795 15.7286 11.2762 15.7172 11.4238C15.4978 11.3781 15.3937 11.2814 15.4051 11.1338Z"
        fill="#E2A1A3" />
    <path fill-rule="evenodd" clip-rule="evenodd"
        d="M29.6039 11.6172C29.9295 11.7221 30.1375 11.8831 30.228 12.1005C29.9024 11.9957 29.6944 11.8346 29.6039 11.6172Z"
        fill="#CB585A" />
    <path opacity="0.996" fill-rule="evenodd" clip-rule="evenodd"
        d="M15.8732 11.6172C16.0779 11.6795 16.234 11.7762 16.3413 11.9072C16.0388 12.0168 15.7788 11.9845 15.5612 11.8105C15.7691 11.8105 15.8732 11.7461 15.8732 11.6172Z"
        fill="#E5ACAE" />
    <path fill-rule="evenodd" clip-rule="evenodd"
        d="M12.9086 12.1973C13.1279 12.243 13.232 12.3397 13.2206 12.4873C13.0012 12.4416 12.8972 12.3449 12.9086 12.1973Z"
        fill="#E3A3A6" />
    <path opacity="0.996" fill-rule="evenodd" clip-rule="evenodd"
        d="M13.3767 12.6807C13.5961 12.7264 13.7001 12.8231 13.6888 12.9707C13.4694 12.925 13.3653 12.8283 13.3767 12.6807Z"
        fill="#E2A1A4" />
    <path fill-rule="evenodd" clip-rule="evenodd"
        d="M19.93 13.744C19.7933 13.7313 19.6893 13.7635 19.6179 13.8406C19.7573 14.0904 19.8092 14.3482 19.774 14.614C19.722 14.614 19.6699 14.614 19.6179 14.614C19.532 14.2943 19.48 13.9721 19.4619 13.6473C19.6634 13.6244 19.8194 13.6566 19.93 13.744Z"
        fill="#E8B5B8" />
    <path fill-rule="evenodd" clip-rule="evenodd"
        d="M15.8732 14.7107C16.5493 15.0652 17.1734 15.4519 17.7455 15.8707C16.9654 15.5807 16.3413 15.194 15.8732 14.7107Z"
        fill="#E19C9F" />
    <path fill-rule="evenodd" clip-rule="evenodd"
        d="M19.618 14.614C19.6699 14.614 19.722 14.614 19.774 14.614C19.8754 14.8011 19.9274 14.9944 19.93 15.194C19.6844 15.0392 19.5804 14.8458 19.618 14.614Z"
        fill="#D1696C" />
    <path fill-rule="evenodd" clip-rule="evenodd"
        d="M30.6961 14.7107C30.7075 14.8583 30.6034 14.955 30.384 15.0007C30.3726 14.8531 30.4767 14.7564 30.6961 14.7107Z"
        fill="#D77E82" />
    <path opacity="0.996" fill-rule="evenodd" clip-rule="evenodd"
        d="M30.3841 15.1941C30.3443 15.4326 30.1883 15.6259 29.916 15.7741C29.9558 15.5356 30.1118 15.3423 30.3841 15.1941Z"
        fill="#E19B9E" />
    <path fill-rule="evenodd" clip-rule="evenodd"
        d="M29.916 15.8706C29.8491 16.1265 29.6411 16.3198 29.2919 16.4506C29.4164 16.2122 29.6244 16.0189 29.916 15.8706Z"
        fill="#E8B4B5" />
    <path fill-rule="evenodd" clip-rule="evenodd"
        d="M20.3981 16.064C20.6174 16.1097 20.7215 16.2064 20.7101 16.354C20.4907 16.3083 20.3867 16.2116 20.3981 16.064Z"
        fill="#DB8E92" />
    <path opacity="0.996" fill-rule="evenodd" clip-rule="evenodd"
        d="M20.8662 16.7407C21.0856 16.7864 21.1897 16.8831 21.1783 17.0307C20.9589 16.985 20.8548 16.8883 20.8662 16.7407Z"
        fill="#D67C80" />
    <path fill-rule="evenodd" clip-rule="evenodd"
        d="M25.3911 16.644C25.6389 16.8 25.7949 16.9933 25.8592 17.2241C25.8592 17.3207 25.8592 17.4174 25.8592 17.5141C25.6069 17.2541 25.4509 16.9641 25.3911 16.644Z"
        fill="#E8B3B5" />
    <path fill-rule="evenodd" clip-rule="evenodd"
        d="M21.1782 17.1274C21.419 17.2469 21.575 17.408 21.6463 17.6108C21.4075 17.6998 21.1993 17.6676 21.0222 17.5141C21.1589 17.5268 21.263 17.4946 21.3343 17.4175C21.2364 17.3288 21.1843 17.2321 21.1782 17.1274Z"
        fill="#CC5C60" />
    <path fill-rule="evenodd" clip-rule="evenodd"
        d="M25.8592 17.2241C25.9632 17.6108 26.0671 17.9975 26.1712 18.3842C25.991 18.6442 25.835 18.6764 25.7031 18.4808C25.8322 18.1635 25.8841 17.8413 25.8592 17.5141C25.8592 17.4175 25.8592 17.3208 25.8592 17.2241Z"
        fill="#CD6064" />
    <path opacity="0.996" fill-rule="evenodd" clip-rule="evenodd"
        d="M21.0222 19.931C14.6514 19.8344 8.25417 19.8022 1.83037 19.8343C1.87266 20.0161 1.76858 20.1449 1.51831 20.221C1.60226 20.0647 1.65421 19.9035 1.67434 19.7377C8.17646 19.7055 14.6778 19.7377 21.1782 19.8343C21.1589 19.893 21.1069 19.9252 21.0222 19.931Z"
        fill="#383535" />
    <path opacity="0.996" fill-rule="evenodd" clip-rule="evenodd"
        d="M21.0222 19.931C20.7506 20.436 20.5426 20.9515 20.3981 21.4777C20.1203 21.6217 20.0164 21.8151 20.086 22.0577C19.8357 22.1338 19.7317 22.2627 19.774 22.4444C17.7699 22.4126 15.7935 22.4449 13.8448 22.5411C13.3344 23.5938 12.8663 24.6572 12.4405 25.7312C12.1695 25.9884 11.9615 26.2784 11.8164 26.6013C11.6068 27.1824 11.3987 27.7625 11.1923 28.3413C11.025 28.5716 10.8431 28.7972 10.6461 29.018C10.2745 29.8266 9.98848 30.6483 9.78798 31.4831C9.64849 31.7979 9.44034 32.0718 9.16386 32.3049C6.77081 32.321 4.37839 32.3049 1.98643 32.2565C2.24466 32.1169 2.34874 31.9396 2.29849 31.7248C2.31862 31.5589 2.37058 31.3978 2.45452 31.2415C2.7669 30.4992 3.07896 29.7581 3.39071 29.018C3.61633 28.7518 3.77236 28.4618 3.8588 28.148C4.35217 27.1025 4.87238 26.0714 5.41911 25.0545C5.56063 24.846 5.66455 24.6205 5.73117 24.3778C5.73383 24.1782 5.78579 23.9849 5.88721 23.7978C6.10939 23.603 6.21331 23.3775 6.19927 23.1211C6.29554 23.1104 6.37355 23.0782 6.43331 23.0244C6.51055 22.8337 6.53661 22.6404 6.51133 22.4444C4.53426 22.4605 2.55782 22.4444 0.582153 22.3961C0.699551 22.3312 0.751572 22.2507 0.738184 22.1544C0.738184 22.0577 0.738184 21.961 0.738184 21.8644C1.02263 21.6212 1.17866 21.3311 1.20628 20.9943C1.20628 20.9621 1.20628 20.9299 1.20628 20.8977C1.45187 20.7428 1.55594 20.5495 1.51834 20.3176C1.51834 20.2854 1.51834 20.2532 1.51834 20.221C1.76861 20.1449 1.87269 20.016 1.8304 19.8343C8.25419 19.8022 14.6515 19.8344 21.0222 19.931Z"
        fill="#221E1F" />
    <path opacity="0.998" fill-rule="evenodd" clip-rule="evenodd"
        d="M31.1642 22.4444C30.7055 22.8008 30.4453 23.2197 30.384 23.7011C29.6794 25.9597 28.4051 28.0865 26.5613 30.0814C25.3043 31.1076 23.666 31.7843 21.6463 32.1115C17.5013 32.3763 13.3406 32.473 9.16382 32.4015C9.16382 32.3693 9.16382 32.337 9.16382 32.3048C9.44031 32.0718 9.64845 31.7979 9.78794 31.4831C9.98844 30.6483 10.2744 29.8266 10.6461 29.018C10.843 28.7972 11.025 28.5716 11.1922 28.3413C11.3969 28.129 11.579 27.9034 11.7383 27.6646C11.829 26.9975 12.063 26.3531 12.4405 25.7312C12.8663 24.6572 13.3344 23.5938 13.8447 22.5411C15.8212 22.5411 17.7975 22.5411 19.7739 22.5411C19.3695 23.3763 19.0055 24.2142 18.6817 25.0545C18.3029 25.4322 18.0428 25.8511 17.9016 26.3112C17.5416 27.1191 17.2295 27.9408 16.9654 28.7764C16.9668 29.1491 17.2267 29.4231 17.7455 29.5981C17.9209 29.7246 18.1549 29.789 18.4477 29.7914C18.8377 29.7431 19.2278 29.6947 19.6179 29.6464C19.7554 29.5779 19.8593 29.4973 19.93 29.4047C20.8778 28.4876 21.4761 27.4886 21.7243 26.4079C22.2313 25.6098 22.6993 24.8042 23.1286 23.9911C23.7694 22.6076 24.3935 21.222 25.001 19.8343C27.4616 19.7063 29.932 19.7063 32.4124 19.8343C31.8471 20.6843 31.431 21.5543 31.1642 22.4444Z"
        fill="#818285" />
    <path fill-rule="evenodd" clip-rule="evenodd"
        d="M1.5184 20.3176C1.556 20.5494 1.45193 20.7428 1.20634 20.8977C1.16873 20.6658 1.27281 20.4725 1.5184 20.3176Z"
        fill="#6C6A6A" />
    <path fill-rule="evenodd" clip-rule="evenodd"
        d="M1.20625 20.9944C1.17863 21.3312 1.0226 21.6212 0.738159 21.8644C0.832558 21.6105 0.910573 21.3527 0.972206 21.0911C1.03197 21.0373 1.10998 21.0051 1.20625 20.9944Z"
        fill="#666364" />
    <path opacity="0.996" fill-rule="evenodd" clip-rule="evenodd"
        d="M20.3981 21.4775C20.3314 21.7202 20.2275 21.9457 20.086 22.1542C20.086 22.122 20.086 22.0898 20.086 22.0576C20.0164 21.8149 20.1203 21.6216 20.3981 21.4775Z"
        fill="#908E8F" />
    <path opacity="0.999" fill-rule="evenodd" clip-rule="evenodd"
        d="M0.738186 22.1543C0.751574 22.2506 0.699553 22.3311 0.582155 22.396C2.55782 22.4443 4.53426 22.4605 6.51133 22.4443C6.53661 22.6403 6.51055 22.8336 6.43332 23.0243C6.37356 23.0781 6.29554 23.1103 6.19927 23.121C6.30069 22.9339 6.35265 22.7406 6.3553 22.541C4.37886 22.541 2.40257 22.541 0.426124 22.541C0.372574 22.3493 0.4766 22.2203 0.738186 22.1543Z"
        fill="#666364" />
    <path opacity="0.999" fill-rule="evenodd" clip-rule="evenodd"
        d="M20.0861 22.0576C20.0861 22.0898 20.0861 22.1221 20.0861 22.1543C20.0098 22.2988 19.9059 22.4278 19.774 22.541C17.7976 22.541 15.8213 22.541 13.8448 22.541C15.7935 22.4448 17.77 22.4125 19.774 22.4443C19.7317 22.2626 19.8358 22.1337 20.0861 22.0576Z"
        fill="#3F3C3E" />
    <path opacity="0.999" fill-rule="evenodd" clip-rule="evenodd"
        d="M0.426147 22.541C2.40259 22.541 4.37888 22.541 6.35532 22.541C6.35267 22.7406 6.30071 22.934 6.19929 23.121C6.21333 23.3774 6.10942 23.6029 5.88723 23.7977C5.9331 23.4497 6.03702 23.1114 6.19929 22.7827C4.21661 22.7973 2.29212 22.7167 0.426147 22.541Z"
        fill="#E4E3E3" />
    <path opacity="0.996" fill-rule="evenodd" clip-rule="evenodd"
        d="M31.1642 22.4443C31.1487 22.9361 30.8888 23.355 30.384 23.7011C30.4454 23.2196 30.7055 22.8008 31.1642 22.4443Z"
        fill="#B9BABC" />
    <path fill-rule="evenodd" clip-rule="evenodd"
        d="M5.73119 24.3777C5.66456 24.6203 5.56065 24.8459 5.41913 25.0544C5.39385 24.8584 5.41991 24.6651 5.49714 24.4744C5.5569 24.4206 5.63492 24.3884 5.73119 24.3777Z"
        fill="#636061" />
    <path fill-rule="evenodd" clip-rule="evenodd"
        d="M18.6818 25.0544C18.6204 25.5359 18.3603 25.9547 17.9016 26.3112C18.0428 25.851 18.3029 25.4321 18.6818 25.0544Z"
        fill="#B6B6B8" />
    <path fill-rule="evenodd" clip-rule="evenodd"
        d="M12.4405 25.7312C12.0631 26.3531 11.829 26.9975 11.7384 27.6646C11.5791 27.9034 11.397 28.129 11.1923 28.3413C11.3987 27.7625 11.6068 27.1824 11.8164 26.6012C11.9615 26.2784 12.1695 25.9883 12.4405 25.7312Z"
        fill="#5C5B5D" />
    <path fill-rule="evenodd" clip-rule="evenodd"
        d="M3.85884 28.1479C3.7724 28.4617 3.61637 28.7518 3.39075 29.018C3.40479 28.8057 3.45675 28.5962 3.54678 28.3896C3.57549 28.2566 3.67956 28.1761 3.85884 28.1479Z"
        fill="#BAB8B9" />
    <path fill-rule="evenodd" clip-rule="evenodd"
        d="M19.93 29.4045C19.8594 29.4972 19.7554 29.5778 19.618 29.6462C19.2279 29.6946 18.8378 29.7429 18.4477 29.7912C18.155 29.7888 17.921 29.7244 17.7456 29.5979C18.5148 29.6429 19.243 29.5785 19.93 29.4045Z"
        fill="#BDBDBF" />
    <path fill-rule="evenodd" clip-rule="evenodd"
        d="M2.45455 31.2415C2.3706 31.3978 2.31864 31.5589 2.29851 31.7248C2.24656 31.7248 2.19444 31.7248 2.14248 31.7248C2.08319 31.5123 2.18726 31.3512 2.45455 31.2415Z"
        fill="#9B9999" />
    <path opacity="0.999" fill-rule="evenodd" clip-rule="evenodd"
        d="M2.14247 31.7249C2.19442 31.7249 2.24654 31.7249 2.2985 31.7249C2.34874 31.9397 2.24467 32.117 1.98643 32.2565C4.37839 32.3049 6.77081 32.321 9.16386 32.3049C9.16386 32.3371 9.16386 32.3694 9.16386 32.4016C6.77144 32.4016 4.37886 32.4016 1.98643 32.4016C1.80357 32.1718 1.85552 31.9462 2.14247 31.7249Z"
        fill="#3E3B3C" />
    <path opacity="0.999" fill-rule="evenodd" clip-rule="evenodd"
        d="M21.6463 32.1113C21.141 32.2342 20.6208 32.347 20.086 32.4497C14.0264 32.53 7.99333 32.514 1.98645 32.4013C4.37887 32.4013 6.77145 32.4013 9.16387 32.4013C13.3407 32.4728 17.5014 32.3761 21.6463 32.1113Z"
        fill="#DEDEDF" />
</svg>