<svg width="32" height="32" viewBox="0 0 32 32" fill="none" xmlns="http://www.w3.org/2000/svg">
<mask id="mask0_4784_16" style="mask-type:luminance" maskUnits="userSpaceOnUse" x="0" y="0" width="32" height="32">
<path d="M32 0H0V32H32V0Z" fill="white"/>
</mask>
<g mask="url(#mask0_4784_16)">
<path d="M16.305 0.857117L31.7529 8.47729V24.1328L16.305 31.7529L0.857117 24.1328V8.47729L16.305 0.857117ZM4.42201 12.4093V21.9591L14.5225 26.9415V17.3917L4.42201 12.4093ZM28.188 12.4081L18.0875 17.3906V26.9415L28.188 21.9591V12.4081ZM16.305 4.78798L6.62396 9.56407L16.3038 14.339L25.9849 9.56407L16.305 4.78798Z" fill="#5B62FF"/>
<path d="M10.9578 18.1225L7.39288 16.3415V12.2019L22.7219 4.02539L26.2878 5.78391L10.9578 13.9767V18.1225Z" fill="#36C249"/>
</g>
</svg>
