<svg width="32" height="32" viewBox="0 0 32 32" fill="none" xmlns="http://www.w3.org/2000/svg">
    <g clip-path="url(#clip0_1497_45)">
        <mask id="mask0_1497_45" style="mask-type:luminance" maskUnits="userSpaceOnUse" x="0" y="0"
            width="32" height="32">
            <path d="M0 0H32V32H0V0Z" fill="white" />
        </mask>
        <g mask="url(#mask0_1497_45)">
            <mask id="mask1_1497_45" style="mask-type:luminance" maskUnits="userSpaceOnUse" x="0"
                y="0" width="32" height="32">
                <path
                    d="M13.1437 14.2892C13.1437 13.6538 13.652 13.1487 14.2895 13.1487C14.9269 13.1487 15.4352 13.6619 15.4352 14.2892C15.4352 14.9165 14.9269 15.4297 14.2895 15.4297C13.652 15.4297 13.1437 14.9165 13.1437 14.2892ZM11.4332 16C11.4332 18.5255 13.4826 20.5703 16 20.5703C18.5174 20.5703 20.5668 18.5255 20.5668 16C20.5668 13.4745 18.5174 11.4297 16 11.4297C13.4826 11.4297 11.4332 13.4745 11.4332 16ZM5.14776 16C5.14776 10.0041 10.005 5.14053 16 5.14053C21.995 5.14053 26.8603 10.0041 26.8603 16C26.8603 21.9959 21.995 26.8595 16 26.8595C10.005 26.8595 5.13969 21.9959 5.13969 16M0 16C0 24.8391 7.1649 32 16 32C24.8351 32 32 24.8391 32 16C32 7.1609 24.8351 0 16 0C7.1649 0 0 7.1609 0 16Z"
                    fill="white" />
            </mask>
            <g mask="url(#mask1_1497_45)">
                <path d="M0 0H32V32H0V0Z" fill="url(#paint0_linear_1497_45)" />
            </g>
        </g>
    </g>
    <defs>
        <linearGradient id="paint0_linear_1497_45" x1="-0.096823" y1="15.9022" x2="31.9193"
            y2="15.9022" gradientUnits="userSpaceOnUse">
            <stop stop-color="#EA80FF" />
            <stop offset="1" stop-color="#8C57F6" />
        </linearGradient>
        <clipPath id="clip0_1497_45">
            <rect width="32" height="32" fill="white" />
        </clipPath>
    </defs>
</svg>