<svg width="32" height="32" viewBox="0 0 32 32" fill="none" xmlns="http://www.w3.org/2000/svg">
    <g clip-path="url(#clip0_848_215)">
        <mask id="mask0_848_215" style="mask-type:luminance" maskUnits="userSpaceOnUse" x="0" y="0"
            width="32" height="32">
            <path d="M31.9655 0H0.210938V31.925H31.9655V0Z" fill="white" />
        </mask>
        <g mask="url(#mask0_848_215)">
            <path
                d="M25.6075 23.2525C25.4469 23.2807 25.2683 23.2962 25.0676 23.2954C24.8568 23.2944 24.5719 23.2671 24.4053 23.2146C24.4073 23.2117 24.4113 23.2078 24.4173 23.2038C24.4253 23.1991 24.4273 23.1971 24.4374 23.1932C24.5438 23.1534 24.7003 23.1446 24.8909 23.1475C25.1479 23.1533 25.3867 23.1922 25.6075 23.2525Z"
                fill="#240642" />
            <path
                d="M16.6439 3.89549C16.6379 3.89354 16.6339 3.8916 16.6299 3.88965C16.646 3.89937 16.662 3.90812 16.6761 3.91784C16.6801 3.91492 16.6841 3.91201 16.6901 3.91006C16.6781 3.90715 16.664 3.90229 16.6439 3.89549Z"
                fill="#240642" />
            <path
                d="M16.5439 3.83618C16.57 3.85562 16.5981 3.87603 16.6302 3.88964C16.6022 3.87214 16.572 3.85464 16.5439 3.83618Z"
                fill="#240642" />
            <path
                d="M30.4664 22.5566C31.2351 22.1532 31.8073 21.6176 31.9376 21.0692C31.9758 20.9147 31.9737 20.7503 31.9316 20.5851C31.8253 20.1642 31.454 19.7423 30.7735 19.4914C30.7495 19.4817 30.7193 19.4603 30.7254 19.4506C30.8978 19.1872 30.9322 18.9198 30.7897 18.6544C30.7314 18.5494 30.5848 18.4561 30.4844 18.3569C30.4524 18.3258 30.4062 18.2879 30.4184 18.2578C30.599 17.7979 30.4805 17.3498 30.1654 16.9153C30.0731 16.7869 30.0331 16.7102 30.2297 16.5808C30.7193 16.2533 30.8418 15.8673 30.7174 15.4668C30.623 15.1587 30.5729 14.8388 29.8705 14.6823C29.8362 14.6746 29.8122 14.6093 29.8403 14.5889C30.0609 14.4266 30.2537 14.2623 30.3138 14.0631C30.368 13.8861 30.3541 13.7306 30.0731 13.5964C30.0349 13.5779 30.0331 13.5031 30.0671 13.4914C30.4906 13.3466 30.6994 13.1396 30.8057 12.9033C30.8318 12.8439 30.8238 12.8051 30.6431 12.7837C30.4042 12.7556 30.1252 12.7069 29.9768 12.6213C29.5634 12.3822 29.3306 12.1013 29.2421 11.7824C29.1399 11.4091 28.9631 11.0387 28.7665 10.6751C28.638 10.4399 28.3993 10.2211 27.9337 10.087L27.9316 10.086C27.9636 10.0238 27.9838 9.95964 27.9959 9.89547C28.04 9.63786 27.775 9.37441 27.5082 9.16054C27.488 9.14207 27.478 9.11291 27.4922 9.09249C27.6204 8.8796 27.5402 8.67641 27.3817 8.47421C27.3758 8.46644 27.3716 8.45671 27.3716 8.44699C27.5603 8.3352 27.6968 8.20201 27.759 8.06105C27.7732 8.028 27.7812 8.0037 27.7951 7.98425C27.8052 7.97745 27.8173 7.97161 27.8292 7.96676C28.1845 7.82385 28.5778 7.70525 28.8168 7.49624C29.2483 7.11711 28.9593 6.68547 28.4374 6.36661C28.4052 6.34717 28.3732 6.3287 28.3572 6.30537C28.3371 6.2801 28.3391 6.25191 28.3391 6.22469C28.3391 6.07011 28.2808 5.91069 28.1102 5.78042C28.022 5.71431 27.9094 5.65696 27.7892 5.60349C27.2873 5.37795 26.6893 5.21075 26.1133 5.02992C26.0331 5.00465 25.9407 4.97257 25.9066 4.92785C25.8764 4.88994 25.8865 4.84231 25.8664 4.80147C25.8284 4.71885 25.7601 4.63912 25.6617 4.56914C25.461 4.42817 25.1519 4.3368 24.8128 4.29207C24.7465 4.28332 24.6683 4.24152 24.6482 4.20847C24.5438 4.03544 24.3351 3.87309 23.9939 3.79045C23.8293 3.7506 23.6467 3.73212 23.4641 3.72921C23.2634 3.72629 23.0627 3.78754 22.9483 3.68837C22.7476 3.51145 22.3201 3.42104 21.9006 3.39965C21.8805 3.39674 21.8605 3.39479 21.8404 3.39187C21.8264 3.38994 21.8123 3.38799 21.8023 3.38215C21.8123 3.37341 21.8304 3.36466 21.8484 3.35882C21.9849 3.31994 22.1435 3.30146 22.2859 3.26841C22.6472 3.18384 22.7014 2.95539 22.7656 2.78235C22.7997 2.68902 22.8218 2.59375 22.8339 2.49849C22.8519 2.37307 22.8499 2.2467 22.8279 2.12129C22.7676 1.75674 22.7175 1.39121 22.4605 1.04319C22.2659 0.776825 22.0491 0.514349 21.6738 0.290756C21.4631 0.165351 21.2042 0.082719 20.8891 0.0302235C20.3833 -0.0543523 20.0542 0.0554992 19.8575 0.25576C19.6969 0.421024 19.6668 0.602812 19.6126 0.780714C19.4822 1.21818 19.3698 1.65855 19.2253 2.09505C19.2172 2.1174 19.2112 2.13976 19.2012 2.16212C19.0828 2.50334 18.9222 2.84359 18.6774 3.16926C18.563 3.32285 18.4345 3.4784 18.2519 3.61644C18.2338 3.63005 18.2158 3.64269 18.1977 3.6563C18.1074 3.54061 17.985 3.4366 17.7963 3.35007C17.72 3.31507 17.4852 3.21786 17.3708 3.26355C17.3146 3.28591 17.3367 3.33452 17.3307 3.36562C17.3247 3.40451 17.3146 3.4434 17.2966 3.48229C17.2604 3.55909 17.2022 3.63296 17.12 3.70101C17.0979 3.71949 17.0738 3.73796 17.0477 3.75642C17.0397 3.75837 17.0316 3.76031 17.0256 3.76324C16.8952 3.80406 16.7828 3.85559 16.6864 3.91197C16.6824 3.91489 16.6784 3.9178 16.6724 3.91975C16.6563 3.911 16.6403 3.90127 16.6262 3.89155C16.5941 3.87795 16.566 3.8585 16.5399 3.83711C16.5219 3.82351 16.5038 3.8099 16.4877 3.7992C16.263 3.64269 16.1265 3.4609 15.984 3.28494C15.4742 2.65305 15.2535 1.992 15.1029 1.32122C15.0447 1.05777 14.9564 0.794324 14.8601 0.532819C14.8219 0.433661 14.7698 0.335475 14.6614 0.248955C14.6654 0.246039 14.6634 0.245066 14.6614 0.243122C14.6032 0.186737 14.5269 0.134242 14.4185 0.0885518C14.254 0.01953 14.0813 -0.0125505 13.8666 0.00494799C13.5074 0.0341122 13.1882 0.102162 12.9514 0.237289C12.7969 0.325754 12.6524 0.421024 12.534 0.522125C12.0383 0.950839 11.8114 1.41746 11.7292 1.90354C11.669 2.25447 11.6569 2.6025 11.8456 2.94859C12.0342 3.29661 12.4276 3.60186 12.7808 3.91391C13.1321 4.22402 13.417 4.54484 13.6258 4.88411C14.1175 5.68515 13.9509 6.49882 13.395 7.28431C13.2525 7.48749 13.0859 7.68775 12.9896 7.89676C12.7327 8.45282 12.9916 9.05944 13.682 9.52024C13.2946 9.81674 13.2545 10.2134 13.5796 10.5274C13.684 10.6285 13.8305 10.7189 13.9369 10.82C14.0352 10.9123 13.987 11.0115 13.9449 11.1116C13.8586 11.3177 13.6739 11.5151 13.409 11.6823C13.3328 11.7299 13.2565 11.7785 13.1782 11.8261C13.1341 11.8534 13.0859 11.8825 13.0819 11.9175C13.0779 11.9486 13.11 11.9778 13.1441 12.004C13.3026 12.1294 13.5355 12.2412 13.8064 12.3093C13.8445 12.319 13.8867 12.3278 13.9148 12.3443C13.9549 12.3676 13.9348 12.388 13.9027 12.4114C13.8726 12.4337 13.8425 12.4571 13.8124 12.4804C13.2605 12.9266 13.0939 13.4526 13.417 13.9512C13.5013 14.0824 13.6097 14.2108 13.7121 14.3391C13.8746 14.5403 14.0332 14.7474 14.0773 14.9642C14.0974 15.0643 14.0874 15.1654 14.0854 15.2656C14.0854 15.2811 14.0593 15.4308 14.0934 15.4377C14.4266 15.4989 14.7457 15.5767 15.0487 15.6681C15.9519 15.4561 17.0076 15.4357 17.9629 15.5688C18.8881 15.6972 19.6969 15.9664 20.3532 16.2979C22.3642 16.0189 24.5759 16.6237 25.0074 17.6201C25.0476 17.7163 24.7606 17.7562 24.6903 17.6609C24.1203 16.7996 22.031 16.3602 20.4014 16.7676C20.2107 16.8093 19.9899 16.7821 19.8635 16.7082C18.7717 16.0676 16.8049 15.6866 15.2615 16.1259C15.0989 16.1736 14.8982 16.1667 14.7537 16.1162C14.0372 15.8712 13.1621 15.7293 12.2831 15.7088C12.2811 15.7088 12.2791 15.7088 12.2771 15.7088C11.96 15.7108 11.6409 15.7342 11.3358 15.7798C11.2977 15.7857 11.2595 15.7914 11.2214 15.7973C10.83 15.8634 10.4347 15.9839 10.1276 16.1221C10.0192 16.1707 9.91884 16.2222 9.82855 16.2786C9.75428 16.3252 9.70612 16.3952 9.60375 16.4282C9.45724 16.4768 9.31275 16.4448 9.1582 16.4322C8.98762 16.4186 8.815 16.4068 8.64241 16.4117C8.3213 16.4214 8.00217 16.4497 7.69309 16.4924C7.06893 16.5779 6.48287 16.7228 5.95304 16.9036C5.04989 17.2108 4.3093 17.6152 3.62091 18.0323C3.35799 18.1907 3.0991 18.3551 2.76594 18.4804C2.37858 18.6282 1.86278 18.7273 1.37709 18.6349C1.34096 18.6282 1.30484 18.6204 1.26871 18.6184C1.23058 18.6166 1.18843 18.6223 1.16635 18.6369C1.1222 18.6652 1.16635 18.7167 1.18241 18.7478C1.20248 18.7857 1.22657 18.8217 1.25868 18.8586C1.31688 18.9306 1.39515 18.9996 1.49149 19.0618C1.4955 19.0647 1.49952 19.0676 1.50353 19.0696C1.50754 19.0714 1.51156 19.0734 1.51557 19.0753C1.90292 19.2883 2.49097 19.4088 3.09709 19.3816C3.18137 19.3777 3.25763 19.4049 3.2757 19.4458C3.29177 19.4896 3.23355 19.5313 3.14323 19.5391C2.6957 19.5838 2.20999 19.5614 1.77648 19.4788C0.867314 20.0028 0.289299 20.6249 0.21504 21.3219C0.134761 22.0773 0.656579 22.9717 1.84472 23.4928C1.90493 23.5191 1.94507 23.5919 1.91496 23.6259C1.76645 23.7902 1.69018 23.9623 1.75039 24.1344C1.86278 24.4639 2.16584 24.7419 2.79804 24.9121C2.82413 24.9189 2.83817 24.9432 2.83817 24.9597C2.84019 25.1143 2.81611 25.2708 2.84421 25.4234C2.87229 25.5877 2.93451 25.7511 3.00878 25.9124C3.13121 26.1798 3.42021 26.4131 3.76341 26.6231C4.07048 26.8126 4.42571 26.9896 4.80705 27.1451C5.12816 27.2763 5.50749 27.3764 5.87678 27.4756C6.12966 27.5437 6.41263 27.5826 6.67755 27.6399C6.73776 27.6536 6.82607 27.6894 6.82207 27.7118C6.78192 27.9393 6.84816 28.1561 7.06893 28.3583C7.20339 28.4808 7.3198 28.6159 7.51046 28.7161C7.72721 28.8317 8.0062 28.9251 8.27714 29.0116C8.62034 29.1224 8.99564 29.1992 9.4151 29.2167C9.48935 29.2206 9.59572 29.2459 9.62785 29.2761C9.76633 29.4043 10.254 29.4977 10.5229 29.5482C10.7498 29.5919 10.9886 29.6211 11.2314 29.6386C11.2956 29.8243 11.3539 30.0109 11.398 30.1996C11.4241 30.3084 11.4462 30.4202 11.4642 30.5311C11.4723 30.5797 11.4883 30.6302 11.4783 30.6788C11.4703 30.7206 11.4241 30.7576 11.3619 30.7867C11.3378 30.7974 11.3157 30.8101 11.2937 30.8207C11.1692 30.8819 11.0448 30.9432 10.9203 31.0036C10.7759 31.0734 10.6333 31.1434 10.4908 31.2134C10.4226 31.2466 10.3544 31.2806 10.2861 31.3136C10.1878 31.3622 10.0032 31.4527 9.99513 31.5936C9.98909 31.6898 10.0674 31.7783 10.2179 31.8424C10.4066 31.9212 10.6213 31.9261 10.7498 31.9261H12.5299C12.5922 31.9261 12.6464 31.9261 12.7026 31.9241C12.7487 31.9241 12.7929 31.9232 12.8471 31.9232C13.3328 31.9232 13.5595 31.7054 13.6699 31.6013L13.698 31.5751C13.8104 31.4711 13.9208 31.3652 14.0252 31.2582C14.1295 31.3642 14.2399 31.4702 14.3523 31.5751L14.3784 31.6013C14.4888 31.7054 14.7156 31.9232 15.2013 31.9232C15.2555 31.9232 15.2996 31.9241 15.3458 31.9241C15.4 31.9251 15.4541 31.9261 15.5184 31.9261H17.2986C17.427 31.9261 17.6418 31.9212 17.8304 31.8424C17.981 31.7783 18.0612 31.6908 18.0532 31.5936C18.0452 31.4527 17.8605 31.3622 17.7622 31.3136C17.692 31.2806 17.6237 31.2466 17.5555 31.2134C17.413 31.1434 17.2685 31.0734 17.126 31.0036C17.0015 30.9423 16.8771 30.8811 16.7527 30.8207C16.7306 30.8101 16.7065 30.7974 16.6844 30.7867C16.56 30.7303 16.552 30.6487 16.562 30.5719C16.6061 30.2268 16.7205 29.8827 16.847 29.5433C16.8711 29.4753 16.8992 29.4082 16.9273 29.3402C16.9373 29.3188 16.9373 29.2818 16.9674 29.2653C16.9995 29.2488 17.0979 29.2401 17.142 29.2293C17.3708 29.1778 17.5795 29.1049 17.7541 29.0164C17.8304 28.9786 17.9007 28.9358 17.995 28.9086C18.1054 28.8764 18.2358 28.8697 18.3623 28.8726C18.1596 29.3587 17.8826 29.8379 17.5334 30.3036C17.4792 30.3746 17.425 30.4446 17.3688 30.5154C17.3467 30.5427 17.3367 30.5709 17.3367 30.5981C17.3367 30.6886 17.4491 30.7731 17.6297 30.8081C17.8706 30.8548 18.1475 30.7974 18.2419 30.6798C18.2559 30.6633 18.27 30.6458 18.282 30.6283C18.7316 30.0596 19.157 29.4821 19.4139 28.8842C19.426 28.8842 19.438 28.8842 19.4501 28.8833C19.5825 28.8794 19.715 28.8823 19.8455 28.8794C20.0201 28.8754 20.2087 28.8473 20.3753 28.8221C20.7727 28.7637 21.1881 28.6762 21.4872 28.5323C21.6538 28.4517 21.7621 28.3457 21.9367 28.2708C21.9488 28.2659 21.9608 28.2602 21.9729 28.2553C22.4786 28.0376 22.8479 27.7411 23.0085 27.4231C23.173 27.0964 23.1329 26.7407 22.88 26.4316C22.7857 26.3158 22.9021 26.1837 23.1429 26.1369C23.2132 26.1243 23.2895 26.1194 23.3597 26.1224C23.9658 26.1544 24.5258 25.9096 24.5157 25.6111C24.5137 25.5051 24.6662 25.4186 24.8669 25.3933C25.5594 25.3038 26.1776 25.0502 26.4986 24.7322C26.7876 24.4572 26.8238 24.1499 26.6452 23.8573C26.5528 23.7436 26.4204 23.6318 26.2578 23.5317C25.9025 23.6376 25.4871 23.6998 25.0717 23.6988C24.4896 23.6959 23.6688 23.6143 23.5524 23.2779C23.448 22.8998 24.2548 22.6956 24.9191 22.7161C25.455 22.7228 25.9386 22.8172 26.352 22.9639C26.4444 22.9027 26.5267 22.8356 26.607 22.7637C27.1249 22.3272 27.3376 21.7896 27.207 21.2841C27.0927 20.7971 26.6994 20.3119 25.9768 19.9609C25.6898 19.8219 25.3486 19.7053 24.9793 19.6178C24.7947 19.5741 24.9111 19.4341 25.1118 19.4681C27.7972 19.9552 28.592 21.7069 27.3636 22.8726C27.2573 22.9717 27.1489 23.0669 27.0225 23.1622C26.9944 23.1856 26.9642 23.2069 26.9301 23.2293C27.1729 23.3693 27.3696 23.5287 27.5102 23.6921C27.9737 24.3551 27.5242 25.0502 26.4305 25.4963C26.1334 25.6188 25.7902 25.7151 25.4229 25.7802C25.2864 26.1544 24.6883 26.4588 23.9377 26.5492C23.9778 26.5492 24.0461 26.9837 24.0441 27.0226C24.0421 27.1849 24.0019 27.3473 23.9257 27.5048C23.7671 27.8276 23.4701 28.1076 23.0085 28.3524C22.8921 28.4147 22.7696 28.4741 22.6412 28.5294C22.7897 28.5479 22.8981 28.5323 23.0406 28.5274C23.1871 28.5226 23.3376 28.5264 23.4861 28.5207C23.7892 28.5081 24.0882 28.4808 24.3793 28.4381C24.4414 28.4293 24.5037 28.4196 24.5639 28.4088C24.3371 29.1011 24.1444 29.7942 23.9477 30.4892C23.8815 30.7323 24.02 30.9344 24.4134 31.0958C24.588 31.1668 24.7405 31.2504 24.8991 31.3311C24.9532 31.3593 24.9914 31.3943 25.0596 31.4419C24.9512 31.4546 24.897 31.4653 24.8429 31.4653C24.5037 31.4662 24.1665 31.4633 23.8273 31.4662C23.6387 31.4672 23.5022 31.4303 23.4159 31.3486C23.4078 31.3408 23.3978 31.3321 23.3898 31.3243C22.9623 30.9189 22.579 30.5038 22.2598 30.0761C22.0632 29.8146 21.8886 29.5482 21.7401 29.2779C21.6798 29.1701 21.4791 29.0991 21.2604 29.0991C21.2042 29.0991 21.148 29.1039 21.0898 29.1137C20.8429 29.1584 20.7084 29.2877 20.7867 29.4102C21.0015 29.7446 21.2523 30.0742 21.5092 30.4008C21.8404 30.8188 22.2257 31.2252 22.6532 31.6218C22.868 31.8201 23.173 31.9271 23.6507 31.9222C24.309 31.9153 24.9673 31.9222 25.6236 31.9212C25.7119 31.9212 25.8042 31.9153 25.8906 31.9047C26.3402 31.8512 26.5569 31.6296 26.344 31.4293C26.2818 31.3709 26.1856 31.3184 26.0911 31.2708C25.7741 31.1104 25.457 30.9491 25.1238 30.7974C24.9292 30.7099 24.8529 30.6147 24.889 30.4892C25.1098 29.7057 25.3486 28.9289 25.6155 28.1503C25.7259 28.1133 25.8344 28.0734 25.9386 28.0317C26.8078 27.6778 27.2775 27.1947 27.462 26.6599C27.4741 26.6249 27.488 26.5773 27.5363 26.5618C27.7208 26.5006 27.9316 26.4548 28.1162 26.3927C28.3611 26.3101 28.638 26.2352 28.8207 26.1253C29.0878 25.9629 29.3244 25.7841 29.3887 25.5673C29.4008 25.5313 29.4589 25.4827 29.5252 25.4682C29.6416 25.4429 29.7781 25.4389 29.9066 25.4263C30.4504 25.3738 30.8599 25.1424 30.9402 24.8858C30.9541 24.8411 31.0145 24.7731 30.8356 24.7401C30.5747 24.6924 30.3621 24.6361 30.1954 24.5242C30.0529 24.4279 29.9706 24.3113 29.9667 24.1917C29.9608 23.9108 30.3642 23.6668 30.4785 23.3907C30.5327 23.2663 30.5226 23.1359 30.4545 23.0126C30.4204 22.9513 30.3722 22.8911 30.312 22.8356C30.2857 22.8123 30.1353 22.7258 30.1856 22.6976C30.2697 22.6509 30.3742 22.6062 30.4664 22.5566ZM16.7025 31.4273C16.7125 31.4448 16.7005 31.4643 16.6744 31.4759C16.6363 31.4916 16.5841 31.4847 16.5379 31.4847C16.4917 31.4857 16.4476 31.4847 16.4015 31.4847H15.5204C15.4401 31.4847 15.3739 31.4828 15.3036 31.4604C15.1852 31.4224 15.133 31.3467 15.0708 31.2873C14.9905 31.2126 14.9143 31.1357 14.838 31.0599C14.7015 30.9218 14.5691 30.7818 14.4446 30.6399C14.3824 30.5689 14.252 30.5223 14.1034 30.5107C14.0974 30.5097 14.0914 30.5097 14.0854 30.5097C14.0653 30.5087 14.0452 30.5067 14.0252 30.5067C14.0051 30.5067 13.985 30.5077 13.965 30.5097C13.9589 30.5097 13.9529 30.5097 13.9469 30.5107C13.8004 30.5223 13.6679 30.5689 13.6057 30.6399C13.4813 30.7818 13.3488 30.9228 13.2143 31.0599C13.1401 31.1367 13.0618 31.2126 12.9815 31.2873C12.9193 31.3467 12.8671 31.4224 12.7487 31.4604C12.6785 31.4828 12.6143 31.4847 12.532 31.4847H11.6509C11.6047 31.4847 11.5606 31.4857 11.5144 31.4847C11.4683 31.4847 11.4141 31.4906 11.3759 31.4759C11.3478 31.4643 11.3358 31.4439 11.3458 31.4273C11.3599 31.4041 11.5064 31.3428 11.5405 31.3263C11.6088 31.2932 11.677 31.2592 11.7452 31.2252C11.8235 31.1872 11.9018 31.1483 11.98 31.1104L12.0162 31.0929C12.1085 31.0482 12.2249 30.9938 12.3032 30.9121C12.3955 30.8159 12.3995 30.7313 12.3935 30.6584C12.3915 30.6039 12.3834 30.5486 12.3734 30.4922C12.3533 30.3764 12.3313 30.2618 12.3032 30.1481C12.263 29.9798 12.2129 29.8127 12.1567 29.6473C12.4015 29.6347 12.6424 29.6123 12.8752 29.5793C13.2725 29.5209 13.6117 29.3927 14.0392 29.3626C14.4547 29.3343 14.8922 29.3994 15.3076 29.4112C15.5324 29.4179 15.7572 29.4141 15.978 29.3994C15.9699 29.4208 15.9619 29.4413 15.9539 29.4637C15.8716 29.6882 15.8013 29.9186 15.7472 30.1481C15.7211 30.2618 15.695 30.3774 15.6769 30.4922C15.6669 30.5486 15.6588 30.6039 15.6569 30.6584C15.6508 30.7313 15.6528 30.8159 15.7452 30.9121C15.8254 30.9938 15.9398 31.0482 16.0322 31.0929L16.0683 31.1104C16.1466 31.1483 16.2248 31.1872 16.3051 31.2252C16.3733 31.2582 16.4416 31.2922 16.5098 31.3263C16.5419 31.3428 16.6884 31.4041 16.7025 31.4273ZM17.9428 27.3142C17.2564 27.9393 15.8696 28.2796 14.4245 28.3321L14.1677 28.9096C14.1376 28.9843 13.9088 28.9834 13.8787 28.9096L13.6238 28.3321C12.1767 28.2796 10.7919 27.9393 10.1055 27.3142C10.0192 27.2316 10.242 27.1528 10.3785 27.2171C10.8842 27.4484 11.4663 27.6127 12.0884 27.7206C13.3287 27.9334 14.7196 27.9326 15.9579 27.7206C16.5801 27.6127 17.1641 27.4484 17.6679 27.2171C17.8023 27.1519 18.0291 27.2326 17.9428 27.3142ZM18.2459 21.0556C18.1315 22.1239 16.0522 23.1019 13.7743 22.9348C12.821 22.8648 11.9439 22.5673 11.5224 22.1473C10.7939 22.3388 9.94493 22.4166 9.12008 22.3632C8.73273 22.3427 8.57417 22.0958 8.86318 21.9723C9.45523 21.7118 9.78641 21.3307 9.77637 20.9371C9.77234 20.4841 9.54354 19.9979 9.91686 19.5537C10.1757 19.2387 10.814 18.9664 11.5465 18.9967C11.7532 19.0073 11.7412 19.1532 11.5385 19.1589C11.0087 19.1784 10.5892 19.4059 10.4608 19.6461C10.2239 20.0669 10.537 20.4918 10.5852 20.9244C10.6454 21.2598 10.4848 21.6068 10.1436 21.9033C10.6293 21.8624 11.0949 21.7653 11.4783 21.6194C11.685 21.5397 11.9901 21.5602 12.1466 21.6632C12.1868 21.6904 12.2148 21.7206 12.2269 21.7507C12.3875 22.1211 13.112 22.4322 13.9248 22.4992C16.2971 22.6772 18.1576 21.4348 17.5776 20.3557C17.4772 20.1341 17.2845 19.9212 17.0216 19.7287C16.9694 19.6907 16.9895 19.6392 17.0678 19.6139C17.14 19.5906 17.2384 19.5974 17.2925 19.6286C17.9729 20.0213 18.3141 20.5423 18.2459 21.0556ZM22.2237 13.0004C21.4832 12.9208 20.8028 12.7206 20.3271 12.4318C18.9403 12.6117 17.5916 12.0167 18.1094 11.2963C18.1897 11.202 18.4807 11.2458 18.4385 11.3449C18.3803 11.4723 18.4145 11.6055 18.5128 11.7221C18.7777 12.0672 19.6728 12.1829 20.2569 11.9652C20.4716 11.8835 20.7667 11.9243 20.8931 12.0381C22.013 12.8722 24.5558 12.7934 25.5112 11.9204C25.6497 11.7989 25.748 11.6677 25.8104 11.5316C25.8545 11.4353 26.1554 11.4528 26.1533 11.552C26.1074 12.5193 24.1505 13.2066 22.2237 13.0004Z"
                fill="#240642" />
            <path
                d="M13.8925 3.737C13.8945 3.75255 13.8945 3.7681 13.8925 3.78366C13.8925 3.79143 13.8885 3.79921 13.8805 3.80601C13.8724 3.81282 13.8604 3.81865 13.8443 3.8206C13.8403 3.8206 13.8363 3.8206 13.8323 3.8206C13.8062 3.80505 13.7922 3.78657 13.7721 3.76907C13.748 3.74671 13.7219 3.72436 13.6958 3.702C13.6898 3.69713 13.6858 3.6913 13.6778 3.68547C13.6015 3.61742 13.5272 3.54937 13.453 3.48035C13.3787 3.41132 13.3085 3.34231 13.2402 3.27133C12.8629 2.87568 12.6582 2.46835 12.6582 2.05227C12.6582 2.03186 12.6582 2.01145 12.6602 1.99103V1.97256C12.6622 1.95312 12.6622 1.93271 12.6663 1.91228C12.6682 1.89382 12.6703 1.87437 12.6743 1.85591C12.6743 1.85493 12.6743 1.85396 12.6743 1.85298C12.6763 1.84327 12.6763 1.83452 12.6783 1.82577C12.6803 1.81702 12.6803 1.80925 12.6823 1.80147C12.6843 1.78202 12.6903 1.76258 12.6943 1.74313C12.6984 1.72661 12.7044 1.71008 12.7084 1.69356C12.7124 1.67606 12.7184 1.65856 12.7244 1.64106C12.7325 1.61773 12.7385 1.59537 12.7465 1.57301C12.7505 1.56232 12.7545 1.55066 12.7606 1.53898C12.7766 1.49621 12.7967 1.45345 12.8188 1.41067C12.8388 1.37276 12.8629 1.33581 12.895 1.29887C12.9071 1.28428 12.9191 1.27068 12.9332 1.2561C13.0135 1.17152 13.0917 1.09958 13.2583 1.04709C13.2944 1.03639 13.3326 1.0257 13.3747 1.02667C13.4148 1.02667 13.453 1.03737 13.4851 1.05C13.4951 1.05389 13.5052 1.05875 13.5112 1.06264C13.5313 1.08014 13.5453 1.09861 13.5574 1.11708C13.6115 1.21041 13.6095 1.31735 13.6256 1.41358C13.6416 1.51857 13.6557 1.62356 13.6657 1.72856C13.6697 1.76745 13.6738 1.80632 13.6758 1.84618C13.6778 1.86077 13.6798 1.87437 13.6798 1.88798C13.6798 1.90257 13.6818 1.91521 13.6838 1.92882C13.6898 2.00465 13.6938 2.08047 13.6999 2.1563L13.7119 2.38475C13.7159 2.44988 13.7219 2.51501 13.7259 2.58112C13.7299 2.64722 13.736 2.71236 13.74 2.7775C13.742 2.81638 13.746 2.85623 13.75 2.8961C13.7601 3.01081 13.7721 3.12552 13.7902 3.24023C13.7942 3.26551 13.7982 3.29176 13.8022 3.31703C13.8122 3.37633 13.8223 3.43563 13.8323 3.49493C13.8363 3.51437 13.8403 3.53576 13.8443 3.55617C13.8464 3.56785 13.8504 3.57853 13.8524 3.5902C13.8584 3.61547 13.8644 3.64075 13.8684 3.66602C13.8704 3.6777 13.8764 3.69033 13.8785 3.702C13.8885 3.71172 13.8925 3.72436 13.8925 3.737Z"
                fill="white" />
            <path
                d="M20.634 5.60535C20.6982 5.70061 20.5838 5.80755 20.3891 5.83574C20.2065 5.86199 19.9918 5.8056 19.9315 5.71713C19.8653 5.61798 19.9737 5.51882 20.1764 5.49063C20.3751 5.46243 20.5718 5.51105 20.634 5.60535Z"
                fill="white" />
            <path
                d="M21.0722 5.27211C21.1846 5.34987 21.2709 5.44222 21.2568 5.53749C21.2548 5.55402 21.2448 5.57347 21.2167 5.58221C21.1625 5.59875 21.1284 5.57249 21.1083 5.55111C21.0822 5.52583 21.0561 5.50056 21.022 5.47624C20.9538 5.42958 20.8675 5.38876 20.7711 5.35571C20.7109 5.33529 20.6447 5.31682 20.5764 5.30223C20.4681 5.27891 20.3456 5.26821 20.2292 5.26529C20.0968 5.26238 19.9643 5.27016 19.8379 5.28863C19.6171 5.32168 19.4184 5.38876 19.2759 5.47528C19.2077 5.51806 19.1374 5.56763 19.1073 5.62013C19.0692 5.68332 19.0612 5.74942 19.0732 5.81553C19.0832 5.87677 19.1314 5.93218 19.1354 5.99343C19.1354 6.00314 19.1334 6.01482 19.1154 6.01676C19.1053 6.01871 19.0953 6.01676 19.0852 6.01384C19.0411 6.00412 19.009 5.98564 18.9809 5.96621C18.8043 5.84858 18.732 5.69498 18.7862 5.55208C18.8484 5.39264 19.0612 5.25655 19.3421 5.16906C19.3722 5.15933 19.4024 5.15058 19.4324 5.14281C19.5348 5.11656 19.6452 5.09517 19.7576 5.08059C19.9563 5.05337 20.169 5.04171 20.3737 5.05726C20.6527 5.07864 20.9056 5.15836 21.0722 5.27211Z"
                fill="white" />
            <path
                d="M20.3891 5.83579C20.2065 5.86204 19.9918 5.80565 19.9315 5.71719C19.8653 5.61803 19.9737 5.51886 20.1764 5.49068C20.3751 5.46345 20.5698 5.51206 20.634 5.60539C20.6982 5.69969 20.5838 5.80663 20.3891 5.83579Z"
                fill="white" />
            <path
                d="M21.2549 5.53627C21.2528 5.5528 21.2428 5.57225 21.2147 5.58099C21.1605 5.59752 21.1264 5.57127 21.1063 5.54989C21.0802 5.52461 21.0542 5.49934 21.02 5.47502C20.9518 5.42836 20.8655 5.38754 20.7691 5.35449C20.7089 5.33407 20.6427 5.3156 20.5745 5.30101C20.4661 5.27769 20.3437 5.26699 20.2273 5.26407C20.0948 5.26116 19.9623 5.26894 19.8359 5.28741C19.6151 5.32046 19.4165 5.38754 19.2739 5.47406C19.2057 5.51684 19.1355 5.56641 19.1054 5.61891C19.0672 5.6821 19.0592 5.7482 19.0712 5.81431C19.0813 5.87555 19.1294 5.93096 19.1335 5.99221C19.1335 6.00192 19.1314 6.0136 19.1134 6.01554C19.1033 6.01749 19.0933 6.01554 19.0833 6.01262C19.0391 6.0029 19.007 5.98442 18.9789 5.96499C18.8023 5.84736 18.7301 5.69376 18.7842 5.55086C18.8465 5.39142 19.0592 5.25532 19.3402 5.16784C19.3703 5.15811 19.4004 5.14936 19.4305 5.14159C19.5328 5.11534 19.6432 5.09395 19.7556 5.07937C19.9543 5.05215 20.1671 5.04049 20.3718 5.05604C20.6568 5.07742 20.9096 5.15714 21.0762 5.26991C21.1846 5.34865 21.2709 5.44197 21.2549 5.53627Z"
                fill="white" />
            <path
                d="M28.3088 6.76611C28.2647 6.73306 28.1966 6.70584 28.1181 6.69904C28.1042 6.69806 28.09 6.69709 28.0781 6.69613C27.9917 6.70293 27.9256 6.73501 27.8895 6.77681C27.7408 6.94305 27.8374 7.14816 27.6425 7.30274C27.6206 7.32218 27.5925 7.33968 27.5522 7.35038C27.5223 7.35815 27.4841 7.36009 27.45 7.35523C27.4278 7.35523 27.4059 7.35134 27.3896 7.34551C27.3635 7.33481 27.3517 7.31926 27.3416 7.30371C27.2412 7.1783 27.0926 7.06261 26.9039 6.96346C26.7153 6.86333 26.4846 6.81959 26.2317 6.76709C26.0451 6.7282 25.8565 6.69029 25.6878 6.6339C25.5031 6.57169 25.4188 6.51336 25.4028 6.40351C25.3887 6.31213 25.479 6.24214 25.6275 6.21491C25.6837 6.20519 25.7459 6.2013 25.8141 6.20423C25.9326 6.21005 26.057 6.20423 26.1775 6.21005C26.4523 6.22464 26.7274 6.2431 27.0043 6.25769C27.0905 6.26255 27.187 6.2713 27.2652 6.25866C27.2652 6.25866 27.2694 6.25866 27.2694 6.25769C27.4539 6.22853 27.6505 6.1352 27.6706 6.03993C27.7029 5.89703 27.3896 5.77843 27.1909 5.69579C26.9401 5.5908 26.6673 5.49553 26.3842 5.40999C26.3341 5.39443 26.2817 5.37888 26.2275 5.36235C25.5192 5.14361 24.2568 4.77615 23.5483 5.19514C23.456 5.25055 23.3877 5.31278 23.3336 5.3779C23.3215 5.39249 23.3095 5.40706 23.2994 5.42263C23.2774 5.45179 23.2573 5.48193 23.2372 5.51303C23.2071 5.55873 23.179 5.60441 23.1489 5.6501C23.1389 5.66565 23.1288 5.68024 23.1168 5.69483C23.1067 5.7094 23.0947 5.72399 23.0827 5.73954C22.9221 5.93396 22.6532 6.10118 22.4304 6.28005C22.0832 6.55905 21.8424 6.875 21.8243 7.19969C21.7942 7.7227 22.4123 8.18738 23.3757 8.41584C23.3857 8.41778 23.3958 8.42069 23.4058 8.42264C23.8674 8.51888 24.4213 8.57721 24.9512 8.56165C24.9974 8.5461 25.0194 8.52083 24.9953 8.48096C24.9793 8.45278 24.9472 8.4275 24.9291 8.39931C24.913 8.37306 24.909 8.3439 24.9191 8.31668C24.9231 8.30209 24.9311 8.28849 24.9552 8.27974C25.0034 8.26029 25.0756 8.27974 25.1238 8.2982C25.2442 8.3439 25.3686 8.38959 25.5091 8.41778C25.6296 8.44111 25.764 8.45083 25.8885 8.43528C25.9326 8.42069 25.9728 8.4032 26.0069 8.38375C26.0792 8.34 26.1153 8.27876 26.0732 8.22626C26.049 8.19613 26.0048 8.1728 25.9506 8.15433C25.8864 8.131 25.8062 8.1135 25.7339 8.09698C25.5934 8.06489 25.459 8.02698 25.3305 7.98518C25.3125 7.98031 25.2944 7.97351 25.2763 7.9667C25.2382 7.95406 25.2021 7.94046 25.1659 7.92685C25.0576 7.88408 24.9532 7.83839 24.8589 7.7888C24.7365 7.72659 24.6281 7.66145 24.5177 7.5934C24.5056 7.58465 24.4896 7.5759 24.4715 7.57201C24.4615 7.56813 24.4514 7.56521 24.4414 7.56424C24.4133 7.56035 24.3852 7.56813 24.3672 7.57785C24.3471 7.58758 24.3391 7.60119 24.329 7.61383C24.3029 7.65174 24.2869 7.69061 24.2809 7.7295C24.2768 7.75866 24.2869 7.79853 24.2026 7.80339C24.1685 7.80533 24.1343 7.79755 24.1062 7.78589C24.1022 7.78394 24.1002 7.782 24.0962 7.78005C24.0701 7.76159 24.0581 7.73923 24.0501 7.71686C24.028 7.65951 24.0159 7.60118 24.0159 7.54285C24.0159 7.46216 24.04 7.37954 24.1343 7.3144C24.1825 7.28038 24.2608 7.25024 24.3451 7.25705C24.3551 7.25801 24.3631 7.25899 24.3712 7.25996C24.3772 7.26094 24.3812 7.2619 24.3872 7.26385C24.4394 7.27746 24.4896 7.30274 24.5297 7.3212C24.8247 7.46216 25.1238 7.60508 25.479 7.71006C25.4971 7.71493 25.5131 7.71979 25.5312 7.72464C25.5413 7.72756 25.5513 7.73048 25.5613 7.73339C25.5814 7.73923 25.6015 7.74409 25.6215 7.74895C25.6356 7.75284 25.6516 7.75673 25.6657 7.75964C26.051 7.85103 26.4926 7.88894 26.9119 7.8345C27.3375 7.77909 27.7308 7.68673 28.0621 7.52535C28.4794 7.31635 28.6663 7.02568 28.3088 6.76611ZM24.2226 6.95763C24.0561 6.93138 23.8654 6.95763 23.7269 7.0111C23.6346 7.04706 23.5624 7.09275 23.5041 7.1433C23.5021 7.14428 23.5021 7.14525 23.5021 7.14623C23.4741 7.16955 23.4499 7.19483 23.4279 7.21913C23.4259 7.22205 23.4239 7.22399 23.4199 7.22691C23.4058 7.24149 23.3897 7.25608 23.3637 7.26579C23.3115 7.28524 23.2312 7.27746 23.185 7.25608C23.1369 7.23371 23.1168 7.20164 23.1048 7.17053C23.0385 7.0004 23.2071 6.8118 23.5222 6.73015C23.8373 6.64849 24.2748 6.69224 24.4775 6.83416C24.5096 6.85653 24.5357 6.8818 24.5398 6.90805C24.5438 6.93526 24.5197 6.96443 24.4715 6.97706C24.3973 6.99651 24.3049 6.97124 24.2226 6.95763Z"
                fill="white" />
        </g>
    </g>
    <defs>
        <clipPath id="clip0_848_215">
            <rect width="32" height="32" fill="white" />
        </clipPath>
    </defs>
</svg>