<svg width="32" height="32" viewBox="0 0 32 32" fill="none" xmlns="http://www.w3.org/2000/svg">
    <path
        d="M32.0001 0H25.5178C24.1854 0 22.9747 0.700088 22.4244 1.78911L22.2622 2.11582L14.239 18.1245L18.5953 26.7433L27.7365 8.50995L32.0001 0Z"
        fill="#63B249" />
    <path
        d="M16.9732 26.9715L13.3758 19.8513L9.77843 27.0337C9.28603 28.0346 9.34396 29.1651 9.89429 30.0985C9.89429 30.0985 9.90008 30.1089 9.90587 30.1141C10.0855 30.42 10.323 30.7105 10.6068 30.9646C10.7574 31.0994 10.9196 31.2187 11.0876 31.3276C11.2556 31.4365 11.4352 31.535 11.6264 31.618C11.7017 31.6543 11.777 31.6906 11.8523 31.7217C11.916 31.7476 11.9855 31.7632 12.055 31.7891C12.1593 31.8254 12.2694 31.8565 12.3737 31.8825C12.4374 31.898 12.5069 31.9084 12.5764 31.9239C12.6923 31.9447 12.8081 31.9654 12.9298 31.9758C12.9935 31.981 13.0514 31.9914 13.1151 31.9914C13.2716 32.0017 13.4338 32.0017 13.596 31.9965C13.6191 31.9965 13.6423 31.9965 13.6597 31.9965C13.8277 31.9862 13.9899 31.9654 14.1521 31.9395C14.1695 31.9395 14.1926 31.9291 14.21 31.9291C14.349 31.9032 14.4881 31.8721 14.6213 31.8358C14.6561 31.8254 14.6908 31.8099 14.7256 31.7995C14.8472 31.7632 14.9689 31.7217 15.0789 31.675C15.0905 31.6698 15.1079 31.6646 15.1195 31.6543C15.2875 31.5817 15.4439 31.4935 15.6003 31.4054C15.6582 31.3742 15.7104 31.3379 15.7683 31.3016C15.8842 31.2239 15.9942 31.1357 16.1043 31.0475C16.365 30.8297 16.5909 30.5808 16.7763 30.306C16.8052 30.2645 16.8284 30.223 16.8516 30.1815C17.4366 29.2429 17.5583 28.0657 16.9906 26.9715H16.9732Z"
        fill="#173C4F" />
    <path
        d="M9.90001 30.1142C9.90001 30.1142 9.89422 30.1038 9.88843 30.0986C9.88843 30.0986 9.89422 30.109 9.90001 30.1142Z"
        fill="#76AF55" />
    <path
        d="M9.77263 27.0338L13.37 19.8514V19.841L12.5474 18.223L11.5916 16.3354L10.5663 14.3129L9.72049 12.6327L9.5467 12.2852C9.01955 11.2481 7.86676 10.5791 6.59232 10.5791H0L2.54308 15.6145L9.79001 29.9534C9.81897 30.0052 9.85373 30.0519 9.88269 30.1038C9.33816 29.1651 9.27444 28.0398 9.76684 27.0389L9.77263 27.0338Z"
        fill="#01679B" />
</svg>