<svg width="32" height="32" viewBox="0 0 32 32" fill="none" xmlns="http://www.w3.org/2000/svg">
    <g clip-path="url(#clip0_1040_46)">
        <path opacity="0.999" fill-rule="evenodd" clip-rule="evenodd"
            d="M3.03125 -0.03125C11.6562 -0.03125 20.2812 -0.03125 28.9062 -0.03125C30.5312 0.385417 31.5521 1.40625 31.9688 3.03125C31.9688 11.6562 31.9688 20.2812 31.9688 28.9062C31.5521 30.5312 30.5312 31.5521 28.9062 31.9688C20.2812 31.9688 11.6562 31.9688 3.03125 31.9688C1.40625 31.5521 0.385417 30.5312 -0.03125 28.9062C-0.03125 20.2812 -0.03125 11.6562 -0.03125 3.03125C0.385417 1.40625 1.40625 0.385417 3.03125 -0.03125Z"
            fill="#701DFE" />
        <path fill-rule="evenodd" clip-rule="evenodd"
            d="M17.9688 26.1563C16.5359 26.2181 15.0984 26.2389 13.6562 26.2188C12.6658 26.0932 11.9678 25.5723 11.5625 24.6563C9.83113 19.9704 8.13325 15.2724 6.46875 10.5625C7.98956 10.5208 9.51044 10.5208 11.0312 10.5625C11.7393 10.7289 12.2081 11.1561 12.4375 11.8438C13.2821 14.7431 14.1363 17.639 15 20.5313C16.346 16.0141 17.6793 11.4933 19 6.96875C19.2006 6.24846 19.6694 5.82137 20.4062 5.6875C22.0521 5.64583 23.6979 5.64583 25.3438 5.6875C22.8668 12.5038 20.4085 19.3267 17.9688 26.1563Z"
            fill="#FEFEFE" />
        <path fill-rule="evenodd" clip-rule="evenodd"
            d="M17.9688 26.1562C17.2721 26.2395 16.5533 26.2812 15.8125 26.2812C15.083 26.2812 14.3643 26.2604 13.6562 26.2188C15.0984 26.2389 16.5359 26.2181 17.9688 26.1562Z"
            fill="#E1516B" />
    </g>
    <defs>
        <clipPath id="clip0_1040_46">
            <rect width="32" height="32" fill="white" />
        </clipPath>
    </defs>
</svg>
    