<svg width="32" height="32" viewBox="0 0 33 33" fill="none" xmlns="http://www.w3.org/2000/svg">
    <path opacity="0.928" fill-rule="evenodd" clip-rule="evenodd"
        d="M6.07576 1.04249C10.763 0.325788 13.8743 2.20422 15.4091 6.67777C16.0345 11.2569 14.2164 14.3196 9.95454 15.8657C4.47818 16.455 1.32667 14.0049 0.5 8.51535C0.812242 4.8122 2.67091 2.32124 6.07576 1.04249ZM7.5303 4.71767C10.955 5.10474 12.2074 6.98317 11.2879 10.3529C9.40472 12.6143 7.3846 12.7777 5.22727 10.843C3.82824 7.95582 4.59576 5.91406 7.5303 4.71767Z"
        fill="#EE4E5D" />
    <path opacity="0.926" fill-rule="evenodd" clip-rule="evenodd"
        d="M32.4994 12.068C32.4994 13.3747 32.4994 14.6814 32.4994 15.9882C30.6175 20.7224 27.2236 22.3966 22.3176 21.0109C18.3322 18.9817 16.9179 15.7557 18.0752 11.3329C19.7603 7.60187 22.6289 6.00929 26.6813 6.5552C29.6148 7.35686 31.5542 9.19445 32.4994 12.068ZM24.0146 10.3529C26.426 9.97407 28.0017 10.9541 28.7419 13.293C28.7443 16.3122 27.2495 17.7414 24.257 17.5807C21.5603 16.4145 20.8733 14.4953 22.1964 11.823C22.7089 11.1808 23.315 10.6908 24.0146 10.3529Z"
        fill="#AA3092" />
    <path opacity="0.904" fill-rule="evenodd" clip-rule="evenodd"
        d="M0.5 18.1934C5.51018 18.1934 10.5201 18.1934 15.5303 18.1934C15.5303 19.5001 15.5303 20.8068 15.5303 22.1135C10.5201 22.1135 5.51018 22.1135 0.5 22.1135C0.5 20.8068 0.5 19.5001 0.5 18.1934Z"
        fill="#EE4E5D" />
    <path opacity="0.904" fill-rule="evenodd" clip-rule="evenodd"
        d="M0.5 23.5835C5.51018 23.5835 10.5201 23.5835 15.5303 23.5835C15.5303 24.8901 15.5303 26.197 15.5303 27.5037C10.5201 27.5037 5.51018 27.5037 0.5 27.5037C0.5 26.197 0.5 24.8901 0.5 23.5835Z"
        fill="#EE4E5D" />
    <path opacity="0.918" fill-rule="evenodd" clip-rule="evenodd"
        d="M32.4998 23.5835C32.4998 24.8901 32.4998 26.197 32.4998 27.5037C27.5706 27.5037 22.6411 27.5037 17.7119 27.5037C17.7119 26.197 17.7119 24.8901 17.7119 23.5835C22.6411 23.5835 27.5706 23.5835 32.4998 23.5835Z"
        fill="#AA3092" />
    <path opacity="0.922" fill-rule="evenodd" clip-rule="evenodd"
        d="M32.4998 28.9739C32.4998 30.2805 32.4998 31.5874 32.4998 32.8941C27.5706 32.8941 22.6411 32.8941 17.7119 32.8941C17.7119 31.5874 17.7119 30.2805 17.7119 28.9739C22.6411 28.9739 27.5706 28.9739 32.4998 28.9739Z"
        fill="#AA3092" />
</svg>