<svg width="32" height="32" viewBox="0 0 33 33" fill="none" xmlns="http://www.w3.org/2000/svg">
    <path opacity="0.942" fill-rule="evenodd" clip-rule="evenodd"
        d="M23.4678 0.166378C25.9591 -0.183345 26.9758 0.415764 26.5182 1.96375C25.6562 3.47026 24.7591 4.96808 23.8267 6.45718C24.4752 6.41739 25.1929 6.49227 25.9799 6.68185C26.5491 7.05765 26.7885 7.507 26.6977 8.02987C28.7913 7.76865 29.7481 8.29287 29.5687 9.60257C32.0818 9.4167 32.979 10.0907 32.2602 11.6246C28.6252 18.2704 24.7971 24.8607 20.7763 31.3957C19.1969 28.5412 17.582 25.6956 15.9315 22.8582C16.8168 21.3825 17.5945 19.8847 18.2642 18.3648C18.711 16.5833 17.8138 15.1229 15.5726 13.9837C13.9979 13.341 12.3234 12.8167 10.5484 12.411C9.33436 11.2069 9.81274 10.4955 11.9839 10.2766C13.6265 10.3946 15.1815 10.6942 16.6493 11.1753C16.7688 11.1004 16.8886 11.0255 17.0081 10.9506C19.0975 7.32452 21.2507 3.72978 23.4678 0.166378Z"
        fill="#27D0AD" />
    <path opacity="0.952" fill-rule="evenodd" clip-rule="evenodd"
        d="M0.5 16.118C4.08872 16.118 7.67745 16.118 11.2662 16.118C14.1371 21.4353 17.0081 26.7524 19.8791 32.0697C16.4099 32.0697 12.941 32.0697 9.47181 32.0697C6.41063 26.7695 3.41979 21.4522 0.5 16.118Z"
        fill="#27D0AD" />
</svg>