<svg width="32" height="32" viewBox="0 0 32 32" fill="none" xmlns="http://www.w3.org/2000/svg">
    <path
        d="M16 0C3.19882 0 0 3.19882 0 16C0 28.8023 3.19882 32 16 32C28.8023 32 32 28.8012 32 16C32.0012 3.19882 28.8023 0 16 0Z"
        fill="#FC4E02" />
    <path
        d="M16 0C3.19882 0 0 3.19882 0 16C0 28.8023 3.19882 32 16 32C28.8023 32 32 28.8012 32 16C32.0012 3.19882 28.8023 0 16 0Z"
        fill="#3E83FF" />
    <path
        d="M7.552 12.712C7.552 11.4139 8.60377 10.3633 9.90073 10.3633C10.5492 10.3633 11.1364 10.6262 11.562 11.0507C11.9877 11.4752 12.2495 12.0623 12.2495 12.712V12.7167C12.2495 14.0149 11.1977 15.0654 9.90073 15.0654C8.60377 15.0654 7.552 14.0137 7.552 12.7167V12.712Z"
        fill="white" />
    <path
        d="M17.8735 17.4176V20.7025C17.8735 22.7835 16.1875 24.4684 14.1088 24.4684L11.2943 24.4696C9.21681 24.4696 7.52954 22.7835 7.52954 20.7037C7.52954 18.6238 9.21563 16.9377 11.2955 16.9377L17.3925 16.9365H17.396C17.5281 16.9365 17.6472 16.9908 17.7332 17.0768C17.8193 17.1641 17.8735 17.2832 17.8735 17.4152V17.4176Z"
        fill="white" />
    <path
        d="M24.4469 19.288C24.4469 20.585 23.3952 21.6367 22.0982 21.6367C20.8012 21.6367 19.7495 20.585 19.7495 19.288V19.2833C19.7495 17.9863 20.8012 16.9346 22.0982 16.9346C22.7467 16.9346 23.3339 17.1975 23.7595 17.622C24.1852 18.0476 24.4469 18.6348 24.4469 19.2833V19.288Z"
        fill="white" />
    <path
        d="M20.6998 15.0641L14.6087 15.0653H14.604C14.4731 15.0641 14.3528 15.0111 14.2668 14.925C14.1807 14.8378 14.1265 14.7187 14.1265 14.5866V14.5843V11.2994C14.1265 9.21829 15.8137 7.53341 17.896 7.53341L20.6998 7.53223C22.7797 7.53223 24.4705 9.2183 24.4705 11.2982C24.4705 13.3781 22.7821 15.0641 20.6998 15.0641Z"
        fill="white" />
</svg>