<svg width="32" height="32" viewBox="0 0 32 32" fill="none" xmlns="http://www.w3.org/2000/svg">
    <path
        d="M20.487 25.1803L24.0124 23.8164L25.3437 20.2045C25.4423 19.9267 25.7135 19.7246 26.0093 19.7246C26.3051 19.7246 26.5763 19.9267 26.6749 20.2045L28.0062 23.8164L31.5316 25.1803C31.8028 25.2813 32.0001 25.5592 32.0001 25.8623C32.0001 26.1653 31.8028 26.4432 31.5316 26.5442L28.0062 27.9081L26.6749 31.52C26.5763 31.7978 26.3051 31.9999 26.0093 31.9999C25.7135 31.9999 25.4423 31.7978 25.3437 31.52L24.0124 27.9081L20.487 26.5442C20.2158 26.4432 20.0186 26.1653 20.0186 25.8623C20.0186 25.5592 20.1911 25.2813 20.487 25.1803Z"
        fill="#20007A" />
    <path
        d="M20.3786 5.45568L23.904 4.09176L25.2353 0.479899C25.3339 0.202063 25.6051 0 25.9009 0C26.1967 0 26.4679 0.202063 26.5665 0.479899L27.8978 4.09176L31.4232 5.45568C31.6944 5.55671 31.8917 5.83455 31.8917 6.13764C31.8917 6.44074 31.6944 6.71857 31.4232 6.8196L27.8978 8.18352L26.5665 11.7954C26.4679 12.0732 26.1967 12.2753 25.9009 12.2753C25.6051 12.2753 25.3339 12.0732 25.2353 11.7954L23.904 8.18352L20.3786 6.8196C20.1074 6.71857 19.9102 6.44074 19.9102 6.13764C19.9102 5.83455 20.0827 5.55671 20.3786 5.45568Z"
        fill="#20007A" />
    <path
        d="M12.8197 3.91332C12.6471 3.55971 12.302 3.30713 11.9075 3.30713C11.5131 3.30713 11.1679 3.53445 10.9954 3.91332L7.71648 11.2128L0.591679 14.5974C0.22188 14.7489 0 15.1278 0 15.5319C0 15.936 0.22188 16.2896 0.591679 16.4664L7.71648 19.851L10.9954 27.1505C11.1679 27.5041 11.5131 27.7567 11.9075 27.7567C12.302 27.7567 12.6471 27.5293 12.8197 27.1505L16.1232 19.851L23.248 16.4664C23.5932 16.2896 23.8397 15.936 23.8397 15.5319C23.8397 15.1278 23.6178 14.7742 23.248 14.5974L16.1232 11.2128L12.8197 3.91332Z"
        fill="#20007A" />
</svg>