<svg width="32" height="32" viewBox="0 0 32 32" fill="none" xmlns="http://www.w3.org/2000/svg">
<path d="M8.41422 10.2228L9.08148 12.6311L10.6856 10.9926L8.41422 10.2228Z" fill="#ABABAB"/>
<path d="M12.1108 1.89868L8.41422 10.2228L10.6856 10.9926L14.3822 2.66787L12.1108 1.89868Z" fill="#949494"/>
<path d="M12.1108 1.89866L14.1642 1.18518L14.3822 2.66785L12.1108 1.89866Z" fill="#ABABAB"/>
<path d="M23.8347 19.1846L22.2305 20.8237L9.08148 12.6311L10.6856 10.9926L23.8347 19.1846Z" fill="#949494"/>
<path d="M8.09778 28.4854L7.40504 30.0462Z" fill="black"/>
<path d="M8.09778 28.4854L7.40504 30.0462" stroke="#878787" stroke-width="9.6"/>
<path d="M6.09896 30.1576C5.00266 29.4744 4.72059 28.8942 5.45541 28.8314C6.18963 28.7686 7.61363 29.2516 8.71052 29.9348C9.80741 30.6181 10.0889 31.1982 9.35466 31.261C8.61985 31.3239 7.19585 30.8409 6.09896 30.1576Z" fill="#878787" stroke="#878787" stroke-linecap="round" stroke-linejoin="round"/>
<path d="M6.79229 28.5967C7.88918 29.28 9.31318 29.7629 10.0474 29.7001C10.7822 29.6373 10.5001 29.0572 9.40385 28.3739C8.30696 27.6907 6.88296 27.2077 6.14814 27.2705C5.41392 27.3333 5.6954 27.9135 6.79229 28.5967Z" fill="#878787" stroke="#878787" stroke-linecap="round" stroke-linejoin="round"/>
<path d="M3.55556 10.6382L8.41422 10.2228L9.08148 12.6311L4.22282 13.0465L3.55556 10.6382Z" fill="#949494"/>
<path d="M27.5313 10.8604L23.8347 19.1846L10.6856 10.9926L14.3822 2.66785L27.5313 10.8604Z" fill="#757575"/>
<path d="M19.5443 6.89011L21.7671 8.98433C21.8039 9.0187 21.8163 9.07678 21.7979 9.12537L20.6424 12.1642C20.6151 12.2359 20.5357 12.2549 20.4836 12.2027L19.8767 11.5923C19.8204 11.5354 19.7333 11.5639 19.7138 11.6463L19.408 12.9215C19.3879 13.0074 19.2948 13.0341 19.2397 12.9701L18.8806 12.5577C18.8249 12.4937 18.7324 12.5203 18.7117 12.6063L18.2358 14.6116C18.2062 14.7372 18.048 14.7171 18.0367 14.5861L18.0284 14.499L18.0628 8.63707C18.0634 8.5393 18.1606 8.48715 18.227 8.54937L18.8652 9.1473C18.925 9.20359 19.0133 9.16744 19.0276 9.08152L19.3813 6.95589C19.3961 6.86937 19.4844 6.83381 19.5443 6.89011Z" fill="#FBBF28" stroke="#FBBF28" stroke-width="0.6" stroke-linecap="round" stroke-linejoin="round"/>
<path d="M8.50252 27.5751L8.27141 28.0954Z" fill="black"/>
<path d="M8.50252 27.5751L8.27141 28.0954" stroke="#808080" stroke-width="9.1"/>
<path d="M6.96533 28.2067C5.86904 27.5235 5.58696 26.9433 6.32178 26.8805C7.056 26.8177 8.48 27.3001 9.57689 27.9833C10.6738 28.6666 10.9553 29.2467 10.221 29.3095C9.48622 29.3723 8.06222 28.89 6.96533 28.2067Z" fill="#808080" stroke="#808080" stroke-width="0.5" stroke-linecap="round" stroke-linejoin="round"/>
<path d="M7.19644 27.6865C8.29333 28.3697 9.71733 28.8521 10.4521 28.7893C11.1864 28.7265 10.9049 28.1463 9.808 27.463C8.71111 26.7798 7.28711 26.2974 6.5523 26.3602C5.81807 26.423 6.09956 27.0032 7.19644 27.6865Z" fill="#808080" stroke="#808080" stroke-width="0.5" stroke-linecap="round" stroke-linejoin="round"/>
<path d="M3.55556 10.6382L8.41422 10.2228L12.1108 1.89868L7.25215 2.31409L3.55556 10.6382Z" fill="#757575"/>
<path d="M12.4184 18.7561L8.56 27.4447Z" fill="black"/>
<path d="M12.4184 18.7561L8.56 27.4447" stroke="#91512B" stroke-width="8.6"/>
<path d="M7.25452 27.5562C6.15763 26.8729 5.87556 26.2928 6.61037 26.23C7.34459 26.1672 8.76919 26.6501 9.86548 27.3334C10.9624 28.0166 11.2444 28.5968 10.5096 28.6596C9.77541 28.7224 8.35082 28.2401 7.25452 27.5562Z" fill="#91512B"/>
<path d="M11.1123 18.8676C12.2092 19.5509 13.6332 20.0338 14.368 19.971C15.1022 19.9082 14.8207 19.3275 13.7239 18.6442C12.627 17.9609 11.203 17.4786 10.4687 17.5414C9.73393 17.6042 10.016 18.1843 11.1123 18.8676Z" fill="#91512B"/>
<path d="M14.1642 1.18518L14.3822 2.66785L27.5313 10.8604L27.3132 9.37718L14.1642 1.18518Z" fill="#949494"/>
<path d="M7.25215 2.31407L12.1108 1.89866L14.1642 1.18518L9.30548 1.60059L7.25215 2.31407Z" fill="#949494"/>
<path d="M13.1692 17.0649L12.4759 18.6258Z" fill="black"/>
<path d="M13.1692 17.0649L12.4759 18.6258" stroke="#6E6E6E" stroke-width="9.1"/>
<path d="M11.1704 18.7378C10.0735 18.0546 9.792 17.4744 10.5262 17.4116C11.2604 17.3488 12.685 17.8312 13.7813 18.5144C14.8782 19.1977 15.1603 19.7778 14.4255 19.8407C13.6913 19.9035 12.2667 19.4211 11.1704 18.7378Z" fill="#6E6E6E" stroke="#6E6E6E" stroke-width="0.5" stroke-linecap="round" stroke-linejoin="round"/>
<path d="M11.8631 17.1769C12.96 17.8602 14.384 18.3426 15.1188 18.2797C15.853 18.2169 15.5716 17.6368 14.4747 16.9535C13.3778 16.2703 11.9538 15.7879 11.2196 15.8507C10.4847 15.9135 10.7668 16.4937 11.8631 17.1769Z" fill="#6E6E6E" stroke="#6E6E6E" stroke-width="0.5" stroke-linecap="round" stroke-linejoin="round"/>
<path d="M24.2839 20.1102L22.2305 20.8237L23.8347 19.1846L24.2839 20.1102Z" fill="#ABABAB"/>
<path d="M22.2305 20.8237L17.3719 21.2391L4.22282 13.0465L9.08148 12.6311L22.2305 20.8237Z" fill="#757575"/>
<path d="M3.55556 10.6382L4.22282 13.0465L4.00533 11.5638L3.55556 10.6382Z" fill="#ABABAB"/>
<path d="M27.9804 11.7855L24.2839 20.1103L23.8347 19.1846L27.5313 10.8605L27.9804 11.7855Z" fill="#949494"/>
<path d="M7.25215 2.31409L3.55556 10.6382L4.00533 11.5639L7.70133 3.23912L7.25215 2.31409Z" fill="#949494"/>
<path d="M27.9804 11.7855L27.3132 9.3772L27.5313 10.8605L27.9804 11.7855Z" fill="#ABABAB"/>
<path d="M27.3132 9.37718L22.4545 9.79259L9.30548 1.60059L14.1641 1.18518L27.3132 9.37718Z" fill="#757575"/>
<path d="M7.25215 2.31407L9.30548 1.60059L7.70134 3.23911L7.25215 2.31407Z" fill="#ABABAB"/>
<path d="M24.2839 20.1102L19.4252 20.5256L17.3719 21.2391L22.2305 20.8237L24.2839 20.1102Z" fill="#949494"/>
<path d="M4.00533 11.5638L4.22281 13.0465L17.3719 21.2391L17.1544 19.7558L4.00533 11.5638Z" fill="#949494"/>
<path d="M24.2839 20.1103L19.4252 20.5257L23.1218 12.2009L27.9804 11.7855L24.2839 20.1103Z" fill="#757575"/>
<path d="M7.70133 3.23914L4.00533 11.5639L17.1544 19.7559L20.8504 11.4317L7.70133 3.23914Z" fill="#757575"/>
<path d="M14.9659 8.83551L12.2501 7.8524C12.205 7.8364 12.1576 7.85714 12.1345 7.90277L10.675 10.752C10.6406 10.8195 10.672 10.9078 10.7384 10.9285L11.5064 11.1751C11.5787 11.1982 11.6077 11.2995 11.5615 11.3653L10.8474 12.3857C10.7994 12.4545 10.8332 12.56 10.9096 12.5783L11.3997 12.6945C11.4756 12.7128 11.5099 12.8183 11.4613 12.8871L10.336 14.4877C10.2661 14.5878 10.3692 14.7306 10.4664 14.6678L10.5316 14.6263L14.5902 11.2717C14.6584 11.2154 14.6394 11.0915 14.5582 11.0619L13.7807 10.7774C13.7079 10.7508 13.683 10.6447 13.7345 10.5813L15.0127 9.03166C15.0643 8.96885 15.0394 8.86218 14.9659 8.83551Z" fill="#FBBF28" stroke="#FBBF28" stroke-width="0.6" stroke-linecap="round" stroke-linejoin="round"/>
<path d="M27.9804 11.7855L23.1218 12.2009L22.4545 9.7926L27.3132 9.3772L27.9804 11.7855Z" fill="#949494"/>
<path d="M22.4545 9.79259L20.8504 11.4317L7.70133 3.23911L9.30548 1.60059L22.4545 9.79259Z" fill="#949494"/>
<path d="M19.4252 20.5256L17.3719 21.2391L17.1544 19.7559L19.4252 20.5256Z" fill="#ABABAB"/>
<path d="M23.1218 12.2008L19.4252 20.5256L17.1544 19.7558L20.8504 11.4316L23.1218 12.2008Z" fill="#949494"/>
<path d="M23.1218 12.2009L22.4545 9.7926L20.8504 11.4317L23.1218 12.2009Z" fill="#ABABAB"/>
</svg>
