<svg width="32" height="32" viewBox="0 0 33 33" fill="none" xmlns="http://www.w3.org/2000/svg">
    <path fill-rule="evenodd" clip-rule="evenodd"
        d="M21.3616 0.5C22.0152 0.5 22.6692 0.5 23.3228 0.5C23.1671 4.12744 22.9802 7.75265 22.7625 11.3756C25.9319 11.0634 29.1072 10.8501 32.2887 10.7359C31.9617 15.8548 29.6269 19.107 25.2841 20.492C21.7364 20.6519 18.1874 20.7054 14.6372 20.6519C14.5904 16.4923 14.6372 12.3339 14.7773 8.17693C15.903 4.38638 18.0977 1.8274 21.3616 0.5Z"
        fill="#83BB27" />
    <path fill-rule="evenodd" clip-rule="evenodd"
        d="M24.7237 4.33838C27.4154 4.63925 28.9099 6.34526 29.2066 9.45633C27.5174 9.4325 25.8363 9.53911 24.1633 9.7762C24.2687 7.94737 24.4556 6.13475 24.7237 4.33838Z"
        fill="#FCD350" />
    <path fill-rule="evenodd" clip-rule="evenodd"
        d="M0.627989 7.21745C2.96471 7.16423 5.29947 7.21755 7.63255 7.37739C10.1074 8.07045 11.6484 9.82975 12.2556 12.6553C12.3956 15.3188 12.4422 17.9843 12.3956 20.6521C2.97284 22.476 -0.949718 17.9978 0.627989 7.21745Z"
        fill="#D5E5B8" />
    <path fill-rule="evenodd" clip-rule="evenodd"
        d="M14.6372 23.2111C20.9009 22.0454 23.5159 25.0308 22.4823 32.1675C16.0445 33.5612 13.4296 30.5755 14.6372 23.2111Z"
        fill="#ADCF74" />
</svg>