<svg width="32" height="32" viewBox="0 0 32 32" fill="none" xmlns="http://www.w3.org/2000/svg">
<g clip-path="url(#clip0_4159_120)">
<mask id="mask0_4159_120" style="mask-type:luminance" maskUnits="userSpaceOnUse" x="0" y="0" width="32" height="32">
<path d="M32 0H0V32H32V0Z" fill="white"/>
</mask>
<g mask="url(#mask0_4159_120)">
<path d="M30.2933 -4.60803H1.70667C0.7641 -4.60803 0 -2.49581 0 0.109759V46.2263C0 48.8315 0.7641 50.944 1.70667 50.944H30.2933C31.2359 50.944 32 48.8315 32 46.2263V0.109759C32 -2.49581 31.2359 -4.60803 30.2933 -4.60803Z" fill="#0E4595"/>
<path d="M11.8613 20.2139L13.2847 11.8615H15.5614L14.1367 20.2139H11.8613Z" fill="white"/>
<path d="M22.362 12.0415C21.7079 11.8048 21.0169 11.686 20.3213 11.6908C18.0719 11.6908 16.4872 12.8236 16.4736 14.4471C16.4612 15.6473 17.6051 16.3167 18.4687 16.7161C19.3549 17.1257 19.6527 17.3868 19.6484 17.7525C19.6429 18.3123 18.941 18.5678 18.2865 18.5678C17.3751 18.5678 16.8913 18.4398 16.1433 18.1296L15.8502 17.9969L15.5306 19.8666C16.0623 20.0996 17.0457 20.3018 18.0667 20.312C20.4595 20.312 22.0134 19.1925 22.0309 17.4585C22.0394 16.5083 21.4336 15.7855 20.1194 15.1891C19.3237 14.8029 18.8365 14.5452 18.8416 14.154C18.8416 13.8067 19.2542 13.4355 20.1455 13.4355C20.7294 13.4224 21.3097 13.5314 21.8491 13.7555L22.0531 13.8519L22.362 12.0415Z" fill="white"/>
<path d="M28.2201 11.8615H26.461C25.9161 11.8615 25.5082 12.0099 25.2688 12.5539L21.8879 20.2083H24.2773C24.2773 20.2083 24.6681 19.1792 24.7564 18.9531C25.018 18.9531 27.3403 18.9569 27.6723 18.9569C27.7401 19.2492 27.9492 20.2083 27.9492 20.2083H30.0629L28.2201 11.8615ZM25.4293 17.2545C25.6174 16.7732 26.3364 14.9198 26.3364 14.9198C26.3227 14.942 26.5232 14.4364 26.638 14.1228L26.792 14.8426C26.792 14.8426 27.2281 16.8364 27.319 17.2545H25.4293Z" fill="white"/>
<path d="M1.94906 11.861L1.92004 12.035C2.76065 12.233 3.57047 12.5441 4.3273 12.9601L6.34884 20.2006L8.7578 20.1976L12.3418 11.861H9.92858L7.69967 17.5587L7.46244 16.4011C7.45135 16.3657 7.4394 16.3303 7.42703 16.2949L6.6522 12.5667C6.51439 12.038 6.1146 11.8802 5.6201 11.8614L1.94906 11.861Z" fill="white"/>
</g>
</g>
<defs>
<clipPath id="clip0_4159_120">
<rect width="32" height="32" fill="white"/>
</clipPath>
</defs>
</svg>
