<svg width="32" height="32" viewBox="0 0 32 32" fill="none" xmlns="http://www.w3.org/2000/svg">
    <rect width="32" height="32" fill="#1775FD" />
    <path
        d="M16.2352 25.1794C15.8836 25.1794 15.532 25.1211 15.1946 25.0045L15.1376 24.985C14.1588 24.5381 13.3557 23.7219 12.8188 22.6207C12.6193 22.1868 10.386 14.6793 8.54716 8.44795L8.21455 7.32734L9.07459 7.05529C10.8754 6.48527 12.8283 6.9646 14.4296 8.38318C15.8028 9.62038 16.4063 11.4859 16.6866 13.0211C17.1285 12.2049 17.7082 11.3499 18.4494 10.7734C20.236 9.38071 22.6023 9.74993 22.7021 9.76936L23.7854 9.95074L18.2309 24.5575L17.979 24.7C17.4231 25.0174 16.8291 25.1794 16.2352 25.1794ZM15.589 23.0159C16.0879 23.1778 16.6391 23.1389 17.1475 22.9187L21.3716 11.7968C20.7112 11.8486 19.8749 12.0365 19.1954 12.5676C18.2404 13.3126 17.5656 14.8866 17.1998 15.7352C16.9337 16.3635 16.6533 17.0047 16.0594 16.8039C15.5082 16.6161 15.4607 15.9295 15.4227 15.3724C15.3419 14.2194 15.1518 11.5183 13.5933 10.1062C12.605 9.23173 11.4409 8.81069 10.3052 8.8949C11.8257 14.0251 13.8499 20.8265 14.097 21.5196C14.4344 22.1932 14.9523 22.7179 15.589 23.0159Z"
        fill="#FAFAFA" fill-opacity="0.980392" />
    <path d="M15.6474 15.2491L12.7687 21.4429L14.049 22.5488L16.9278 16.355L15.6474 15.2491Z"
        fill="#FAFAFA" fill-opacity="0.980392" />
</svg>