<svg width="32" height="32" viewBox="0 0 32 32" fill="none" xmlns="http://www.w3.org/2000/svg">
<mask id="mask0_38_1728" style="mask-type:luminance" maskUnits="userSpaceOnUse" x="0" y="7" width="32" height="18">
<path d="M31.4843 7.7417H0.516602V24.2578H31.4843V7.7417Z" fill="white"/>
</mask>
<g mask="url(#mask0_38_1728)">
<path fill-rule="evenodd" clip-rule="evenodd" d="M0.464844 7.79316C1.20669 7.75965 1.92927 7.79407 2.63259 7.89638C1.92504 7.86293 1.23687 7.89733 0.56807 7.99961C0.533661 7.99961 0.499252 7.99961 0.464844 7.99961C0.464844 7.93079 0.464844 7.86197 0.464844 7.79316Z" fill="#4B89B8"/>
<path fill-rule="evenodd" clip-rule="evenodd" d="M8.72243 7.89653C8.01489 7.86308 7.32671 7.89749 6.65791 7.99975C6.60185 7.99356 6.56745 7.95915 6.55469 7.89653C7.29337 7.7604 8.01595 7.7604 8.72243 7.89653Z" fill="#4786B7"/>
<path fill-rule="evenodd" clip-rule="evenodd" d="M14.5039 7.89627C17.17 7.79327 19.8539 7.75887 22.5555 7.79305C22.588 8.19268 22.5537 8.57117 22.4523 8.92853C22.4523 8.58445 22.4523 8.24037 22.4523 7.89627C19.8028 7.89627 17.1534 7.89627 14.5039 7.89627Z" fill="#4C8AB9"/>
<path fill-rule="evenodd" clip-rule="evenodd" d="M2.63288 7.89665C3.62288 11.1594 4.60353 14.4282 5.57481 17.7031C6.22745 15.471 6.86401 13.2344 7.48449 10.9934C7.20934 9.99589 6.93408 8.99804 6.65868 7.99987C7.32748 7.89761 8.01566 7.86319 8.7232 7.89665C9.68558 11.1626 10.649 14.4314 11.6135 17.7031C12.5774 14.4331 13.5409 11.1642 14.5038 7.89665C17.1533 7.89665 19.8027 7.89665 22.4522 7.89665C22.4522 8.24073 22.4522 8.58481 22.4522 8.9289C21.49 10.5777 20.5266 12.2293 19.5619 13.8837C20.0023 14.1388 20.4495 14.3969 20.9038 14.6579C22.6111 16.3418 23.1445 18.3547 22.5038 20.6966C22.0037 22.5905 20.8166 23.7604 18.9426 24.2063C18.4953 24.2063 18.0479 24.2063 17.6006 24.2063C16.0156 23.6877 14.9833 22.6211 14.5038 21.0063C14.5382 20.9375 14.5727 20.8687 14.6071 20.7999C15.0804 20.5733 15.562 20.3668 16.0522 20.1805C16.3695 21.0654 16.9545 21.702 17.8071 22.0902C18.7362 22.322 19.4415 22.0296 19.9232 21.2128C20.633 19.7809 20.6674 18.3357 20.0264 16.8773C19.6222 16.2679 19.0545 15.9066 18.3232 15.7934C17.8082 15.7419 17.2921 15.7247 16.7748 15.7418C16.7578 15.3617 16.7749 14.9833 16.8264 14.6063C17.6992 13.0154 18.611 11.4498 19.5619 9.90955C18.4013 9.8249 17.2486 9.84211 16.1038 9.96116C14.6177 14.6899 13.1897 19.4383 11.82 24.2063C11.7511 24.2063 11.6824 24.2063 11.6135 24.2063C10.6493 20.8493 9.63422 17.5117 8.56836 14.1934C7.55321 17.5312 6.53816 20.8688 5.5232 24.2063C5.45438 24.2063 5.38557 24.2063 5.31675 24.2063C3.73442 18.8083 2.15163 13.4062 0.568359 7.99987C1.23716 7.89761 1.92533 7.86319 2.63288 7.89665Z" fill="#055B9D"/>
<path fill-rule="evenodd" clip-rule="evenodd" d="M30.8133 7.79297C30.9319 7.82302 31.0008 7.90904 31.0198 8.05103C31.1896 8.71414 31.2412 9.3851 31.1746 10.0639C30.7961 10.7521 30.4177 11.4402 30.0391 12.1285C29.6005 11.2424 28.9296 10.6059 28.0262 10.2188C27.0188 10.0426 26.2102 10.3695 25.6004 11.1994C24.4978 12.9262 24.0504 14.8186 24.2585 16.8768C23.3008 14.209 23.5417 11.6627 24.9811 9.23813C25.9614 7.86241 27.1485 7.63875 28.5424 8.56716C29.0002 9.01912 29.3958 9.51804 29.7295 10.0639C30.1753 9.34436 30.5366 8.58737 30.8133 7.79297Z" fill="#261F10"/>
<path fill-rule="evenodd" clip-rule="evenodd" d="M22.9678 19.3545C23.4126 20.2234 23.9976 20.9976 24.7226 21.6771C26.781 23.052 28.6219 22.794 30.2452 20.9029C30.5205 20.49 30.7957 20.0771 31.071 19.6642C31.2834 20.234 31.3522 20.819 31.2775 21.419C30.5869 22.6681 29.5719 23.5456 28.2323 24.0513C26.7162 24.2827 25.4946 23.7838 24.5678 22.5545C23.8287 21.5947 23.2953 20.5281 22.9678 19.3545Z" fill="#261F10"/>
</g>
</svg>
