<svg width="32" height="32" viewBox="0 0 32 32" fill="none" xmlns="http://www.w3.org/2000/svg">
    <path opacity="0.903" fill-rule="evenodd" clip-rule="evenodd"
        d="M4.11122 11.6668C7.72895 11.2144 9.80302 12.77 10.3334 16.3334C10.0148 19.2443 8.3852 20.7999 5.44455 21.0001C2.50391 20.7999 0.874286 19.2443 0.555664 16.3334C0.746324 13.9974 1.93151 12.4419 4.11122 11.6668Z"
        fill="#64DD17" />
    <path opacity="0.908" fill-rule="evenodd" clip-rule="evenodd"
        d="M14.5551 11.6667C18.1224 11.2017 20.1965 12.7202 20.7774 16.2223C20.511 19.1922 18.8814 20.7848 15.8885 21C12.0677 20.4675 10.5492 18.3193 11.3329 14.5556C12.0357 13.1476 13.1098 12.1847 14.5551 11.6667Z"
        fill="#64B5F6" />
    <path opacity="0.914" fill-rule="evenodd" clip-rule="evenodd"
        d="M25 11.6667C28.6158 11.212 30.6898 12.7676 31.2222 16.3334C30.9036 19.2443 29.274 20.7999 26.3333 21.0001C22.5136 20.4703 20.9951 18.3221 21.7778 14.5556C22.4805 13.1477 23.5547 12.1847 25 11.6667Z"
        fill="#78909C" />
</svg>