<svg width="32" height="32" viewBox="0 0 32 32" fill="none" xmlns="http://www.w3.org/2000/svg">
<path d="M24.055 22.0181H28.0275V12.4799L23.5519 8.00432L20.7429 10.8134L24.055 14.1255V22.0181ZM28.038 24.0096H22.2522H14.1815L10.8693 20.6974L12.2738 19.2929L15.0095 22.0286H20.6381L15.0934 16.4734L16.5084 15.0584L22.0531 20.6031V14.9745L19.3279 12.2493L20.7219 10.8553L13.8356 3.9375H7.04356H0L3.962 7.8995V7.90999H3.98297H12.1795L15.0829 10.8134L10.8379 15.0584L7.93449 12.155V9.90147H3.962V13.8006L10.8379 20.6764L8.03931 23.475L12.5149 27.9506H19.3069H32L28.038 24.0096Z" fill="#FF6425"/>
</svg>
