<svg width="32" height="32" viewBox="0 0 33 33" fill="none" xmlns="http://www.w3.org/2000/svg">
    <path opacity="0.877" fill-rule="evenodd" clip-rule="evenodd"
        d="M5.5835 0.455028C12.4619 0.408281 19.3395 0.45504 26.2165 0.595302C29.829 1.81283 31.4241 4.19748 31.0009 7.74928C30.5025 7.5155 30.0043 7.28169 29.5058 7.04791C29.0432 4.46299 27.4485 2.87321 24.7213 2.27859C18.8404 2.09156 12.9596 2.09156 7.07864 2.27859C5.01723 2.6226 3.57193 3.69802 2.74272 5.50489C2.54336 10.4613 2.54336 15.4176 2.74272 20.3739C4.12412 23.1499 6.4665 24.2721 9.7699 23.7405C9.55412 25.1403 9.50427 26.543 9.62039 27.9487C11.0657 26.5928 12.511 25.2368 13.9563 23.8808C18.0595 23.8603 22.1462 23.6733 26.2165 23.3197C27.5274 22.5573 28.5244 21.5286 29.2068 20.2337C29.8497 19.8377 30.5476 19.6039 31.3 19.5323C30.8643 22.42 29.1697 24.3371 26.2165 25.2835C22.5285 25.377 18.8404 25.4706 15.1524 25.5641C12.7014 27.9574 10.1597 30.2487 7.52718 32.4375C7.35578 30.0952 7.40563 27.7573 7.6767 25.4238C3.99595 25.3843 1.65357 23.701 0.649522 20.3739C0.450159 15.4176 0.450159 10.4613 0.649522 5.50489C1.42469 3.04858 3.06935 1.36528 5.5835 0.455028Z"
        fill="black" />
    <path opacity="0.907" fill-rule="evenodd" clip-rule="evenodd"
        d="M24.4223 7.74926C29.9259 7.09637 32.6172 9.34075 32.4961 14.4824C29.5058 14.4824 26.5155 14.4824 23.5252 14.4824C23.9849 16.2364 25.181 16.9377 27.1136 16.5865C27.9242 16.3696 28.6718 16.0423 29.3563 15.6046C30.2698 15.9162 31.117 16.337 31.898 16.8671C29.9762 19.1198 27.4844 19.8679 24.4223 19.1115C20.8398 17.7674 19.4942 15.2892 20.3854 11.6769C21.1968 9.84097 22.5424 8.53177 24.4223 7.74926ZM25.6184 10.2742C27.1686 10.1136 28.3647 10.6279 29.2068 11.8172C27.4042 12.0501 25.6102 12.0034 23.8242 11.6769C24.2608 10.9833 24.8589 10.5157 25.6184 10.2742Z"
        fill="#3597D3" />
    <path opacity="0.919" fill-rule="evenodd" clip-rule="evenodd"
        d="M3.78931 8.02973C4.86772 7.9486 5.91432 8.04213 6.92911 8.31028C7.54364 10.1176 8.2414 11.8944 9.02231 13.6407C9.682 11.8305 10.4296 10.0537 11.265 8.31028C12.0228 7.95213 12.7704 7.95213 13.5077 8.31028C14.2055 9.99357 14.9032 11.6769 15.6009 13.3601C16.4718 11.7526 17.1695 10.0693 17.6941 8.31028C18.8136 7.99438 19.9599 7.94761 21.133 8.17001C19.6508 11.6396 18.2553 15.1464 16.9466 18.6906C16.1492 19.0646 15.3518 19.0646 14.5543 18.6906C13.8361 16.9026 13.0885 15.1258 12.3116 13.3601C11.5641 15.1369 10.8165 16.9138 10.0689 18.6906C9.27149 19.0646 8.4741 19.0646 7.67668 18.6906C6.2594 15.1689 4.96362 11.6153 3.78931 8.02973Z"
        fill="#3597D3" />
</svg>