<svg width="32" height="32" viewBox="0 0 32 32" fill="none" xmlns="http://www.w3.org/2000/svg">
    <g clip-path="url(#clip0_935_45)">
        <path opacity="0.975" fill-rule="evenodd" clip-rule="evenodd"
            d="M12.5334 -0.0888672C14.7852 -0.0888672 17.0371 -0.0888672 19.2889 -0.0888672C22.1746 0.672057 24.7227 2.03503 26.9334 4.00002C28.5755 5.56541 29.8199 7.40244 30.6667 9.51113C30.8646 10.5963 31.2201 11.6037 31.7334 12.5334C31.7926 12.5334 31.8519 12.5334 31.9111 12.5334C31.9111 13.5408 31.9111 14.5482 31.9111 15.5556C30.2566 16.3821 28.6862 16.2636 27.2 15.2C26.7639 14.6533 26.4973 14.031 26.4 13.3334C26.7778 12.5476 27.1334 11.7476 27.4667 10.9334C27.5764 10.9137 27.6653 10.8544 27.7334 10.7556C27.8765 10.1873 27.8468 9.65398 27.6445 9.15558C27.0254 8.52203 26.255 8.22573 25.3334 8.26669C24.3897 8.19583 23.5897 8.49213 22.9334 9.15558C21.5122 12.3538 20.09 15.5538 18.6667 18.7556C19.0455 15.4408 19.4011 12.1223 19.7334 8.80002C18.6091 8.03839 17.3943 7.89024 16.0889 8.35558C15.596 8.77929 15.2108 9.28299 14.9334 9.86669C13.8 12.3711 12.763 14.9193 11.8222 17.5111C11.6134 17.5501 11.4356 17.4908 11.2889 17.3334C11.4501 16.814 11.5093 16.2807 11.4667 15.7334C11.4667 15.6148 11.4667 15.4963 11.4667 15.3778C11.7429 14.6548 11.8614 13.8845 11.8222 13.0667C11.7803 12.5141 11.8396 11.9807 12 11.4667C12.3104 10.587 12.3697 9.6981 12.1778 8.80002C11.3217 8.20932 10.3736 8.00191 9.33336 8.1778C8.45202 9.35581 7.50388 10.4817 6.48891 11.5556C5.54491 12.0678 4.53752 12.3641 3.46669 12.4445C2.45885 12.9449 2.13293 13.7449 2.48891 14.8445C3.00063 15.6483 3.74137 16.0039 4.71113 15.9111C5.49684 15.8775 6.2672 15.7589 7.02224 15.5556C7.09252 17.9396 7.29992 20.3101 7.64447 22.6667C8.02859 24.8285 9.18415 25.3913 11.1111 24.3556C12.6112 23.0884 13.7075 21.5181 14.4 19.6445C14.8265 18.6022 15.182 17.5354 15.4667 16.4445C15.7078 16.288 15.9744 16.2287 16.2667 16.2667C16.2371 18.0455 16.2667 19.8233 16.3556 21.6C16.4109 22.6443 16.6183 23.6518 16.9778 24.6222C18.0699 24.8052 18.9885 24.4496 19.7334 23.5556C21.2592 21.2747 22.7406 18.9636 24.1778 16.6222C24.6614 18.0836 25.6391 19.0317 27.1111 19.4667C27.5886 19.7318 28.122 19.8502 28.7111 19.8222C29.1015 19.8214 29.4571 19.7622 29.7778 19.6445C30.435 19.5542 31.087 19.4358 31.7334 19.2889C31.6633 19.9728 31.4855 20.6247 31.2 21.2445C31.2 21.363 31.2 21.4814 31.2 21.6C31.0814 21.6 31.0222 21.6592 31.0222 21.7778C31.0222 21.8964 31.0222 22.0148 31.0222 22.1334C30.8733 22.1942 30.8139 22.3126 30.8445 22.4889C29.4142 25.4334 27.3401 27.8334 24.6222 29.6889C23.3822 30.3977 22.0786 30.9607 20.7111 31.3778C20.2397 31.3618 19.8249 31.4802 19.4667 31.7334C19.4667 31.7926 19.4667 31.8519 19.4667 31.9111C17.1556 31.9111 14.8445 31.9111 12.5334 31.9111C7.98685 30.7716 4.46093 28.2235 1.95558 24.2667C1.11518 22.6487 0.433695 20.9895 -0.0888672 19.2889C-0.0888672 17.0963 -0.0888672 14.9037 -0.0888672 12.7111C0.411195 10.9171 1.12231 9.19853 2.04447 7.55558C3.81743 4.68802 6.24706 2.52505 9.33336 1.06669C10.4127 0.658047 11.4793 0.272863 12.5334 -0.0888672Z"
            fill="#23BFD3" />
        <path opacity="0.021" fill-rule="evenodd" clip-rule="evenodd"
            d="M31.9111 7.73325C31.9111 9.33325 31.9111 10.9333 31.9111 12.5333C31.8519 12.5333 31.7925 12.5333 31.7333 12.5333C31.5854 11.437 31.2299 10.4296 30.6667 9.51103C29.8199 7.40234 28.5755 5.5653 26.9333 3.99992C27.3956 3.84719 27.84 3.78792 28.2667 3.82214C30.0809 4.59826 31.2957 5.90196 31.9111 7.73325Z"
            fill="#FDFEFE" />
        <path opacity="0.025" fill-rule="evenodd" clip-rule="evenodd"
            d="M2.04447 7.55546C1.12231 9.19841 0.411195 10.9169 -0.0888672 12.711C-0.0888672 11.5258 -0.0888672 10.3407 -0.0888672 9.15546C0.551926 8.60409 1.17415 8.01148 1.7778 7.37769C1.84582 7.47653 1.93471 7.53578 2.04447 7.55546Z"
            fill="#FBFEFE" />
        <path opacity="0.999" fill-rule="evenodd" clip-rule="evenodd"
            d="M12.1778 8.79999C12.1039 9.68767 12.0446 10.5766 12 11.4667C11.8395 11.9807 11.7803 12.514 11.8222 13.0667C11.546 13.7896 11.4275 14.56 11.4666 15.3778C11.4666 15.4963 11.4666 15.6148 11.4666 15.7333C11.1501 16.6974 11.0612 17.7048 11.2 18.7555C11.4253 18.3442 11.6327 17.9292 11.8222 17.5111C12.7629 14.9192 13.8 12.3711 14.9333 9.86665C15.2107 9.28296 15.5959 8.77926 16.0889 8.35554C17.3942 7.89021 18.609 8.03835 19.7333 8.79999C19.401 12.1223 19.0455 15.4408 18.6666 18.7555C20.0899 15.5537 21.5122 12.3537 22.9333 9.15554C23.5897 8.49209 24.3897 8.19579 25.3333 8.26665C26.2549 8.22569 27.0254 8.522 27.6444 9.15554C27.6725 9.7604 27.6131 10.353 27.4666 10.9333C27.1333 11.7476 26.7778 12.5476 26.4 13.3333C26.4972 14.031 26.7639 14.6532 27.2 15.2C28.6862 16.2635 30.2565 16.382 31.9111 15.5555C31.9111 17.6296 31.9111 19.7036 31.9111 21.7778C31.617 22 31.3207 22.2371 31.0222 22.4889C31.0222 22.3703 31.0222 22.2519 31.0222 22.1333C31.2592 22.0147 31.2592 21.8963 31.0222 21.7778C31.0222 21.6592 31.0814 21.6 31.2 21.6C31.437 21.4814 31.437 21.363 31.2 21.2444C31.4855 20.6247 31.6633 19.9728 31.7333 19.2889C31.0869 19.4357 30.435 19.5541 29.7778 19.6444C28.8823 19.6599 27.9934 19.6007 27.1111 19.4667C25.6391 19.0316 24.6613 18.0835 24.1778 16.6222C22.7406 18.9635 21.2592 21.2747 19.7333 23.5555C18.9884 24.4496 18.0698 24.8051 16.9778 24.6222C16.6183 23.6517 16.4109 22.6443 16.3555 21.6C16.2667 19.8233 16.237 18.0455 16.2666 16.2667C15.9744 16.2287 15.7077 16.288 15.4666 16.4444C15.182 17.5354 14.8264 18.6021 14.4 19.6444C13.7074 21.518 12.6111 23.0883 11.1111 24.3555C9.1841 25.3913 8.02855 24.8284 7.64442 22.6667C7.29987 20.31 7.09247 17.9395 7.0222 15.5555C6.26716 15.7589 5.49679 15.8774 4.71109 15.9111C3.74133 16.0038 3.00058 15.6483 2.48887 14.8444C2.13288 13.7449 2.4588 12.9449 3.46664 12.4444C4.53747 12.364 5.54487 12.0677 6.48887 11.5555C7.50383 10.4817 8.45198 9.35577 9.33331 8.17776C10.3735 8.00187 11.3217 8.20928 12.1778 8.79999Z"
            fill="#FCFEFE" />
        <path fill-rule="evenodd" clip-rule="evenodd"
            d="M12.1778 8.80005C12.3697 9.69813 12.3104 10.587 12 11.4667C12.0446 10.5766 12.1039 9.68773 12.1778 8.80005Z"
            fill="#71D5E2" />
        <path fill-rule="evenodd" clip-rule="evenodd"
            d="M27.6443 9.15552C27.8466 9.65392 27.8763 10.1873 27.7332 10.7555C27.6651 10.8544 27.5762 10.9136 27.4666 10.9333C27.613 10.353 27.6724 9.76037 27.6443 9.15552Z"
            fill="#86DAE6" />
        <path opacity="0.98" fill-rule="evenodd" clip-rule="evenodd"
            d="M30.6667 9.51123C31.2299 10.4298 31.5855 11.4372 31.7334 12.5335C31.2202 11.6038 30.8646 10.5964 30.6667 9.51123Z"
            fill="#5ACEDD" />
        <path fill-rule="evenodd" clip-rule="evenodd"
            d="M11.8222 13.0667C11.8614 13.8844 11.7429 14.6548 11.4667 15.3778C11.4275 14.56 11.546 13.7896 11.8222 13.0667Z"
            fill="#80D9E5" />
        <path fill-rule="evenodd" clip-rule="evenodd"
            d="M11.4667 15.7334C11.5094 16.2807 11.4501 16.8141 11.2889 17.3334C11.4356 17.4909 11.6134 17.5501 11.8223 17.5112C11.6328 17.9293 11.4253 18.3442 11.2001 18.7556C11.0613 17.7048 11.1501 16.6975 11.4667 15.7334Z"
            fill="#6AD2E0" />
        <path fill-rule="evenodd" clip-rule="evenodd"
            d="M27.1111 19.4666C27.9934 19.6006 28.8823 19.6598 29.7778 19.6443C29.457 19.762 29.1015 19.8212 28.7111 19.8221C28.1219 19.85 27.5886 19.7316 27.1111 19.4666Z"
            fill="#91DFE9" />
        <path opacity="0.01" fill-rule="evenodd" clip-rule="evenodd"
            d="M30.8445 22.4888C30.9037 22.4888 30.9631 22.4888 31.0223 22.4888C30.9894 22.6079 30.93 22.6079 30.8445 22.4888Z"
            fill="#FEFFFE" />
        <path opacity="0.051" fill-rule="evenodd" clip-rule="evenodd"
            d="M20.711 31.3779C20.4308 31.4922 20.1937 31.67 19.9999 31.9112C19.9407 31.9112 19.8813 31.9112 19.8221 31.9112C19.7613 31.7622 19.6429 31.7029 19.4666 31.7334C19.8248 31.4803 20.2395 31.3619 20.711 31.3779Z"
            fill="#93DEE8" />
    </g>
    <defs>
        <clipPath id="clip0_935_45">
            <rect width="32" height="32" fill="white" />
        </clipPath>
    </defs>
</svg>