<svg width="32" height="32" viewBox="0 0 32 33" fill="none" xmlns="http://www.w3.org/2000/svg">
    <path fill-rule="evenodd" clip-rule="evenodd"
        d="M12.6171 6.35883C12.3754 5.93924 12.1314 5.47973 11.8857 4.98028C10.8308 4.73587 9.8556 4.39123 8.95996 3.94637C10.3095 2.6198 11.8334 1.47098 13.5314 0.5C14.6201 1.4066 15.5344 2.44051 16.2742 3.60174C15.4455 3.88234 14.592 4.05466 13.7142 4.11869C13.2414 4.82585 12.8757 5.57258 12.6171 6.35883Z"
        fill="#21A8E4" />
    <path fill-rule="evenodd" clip-rule="evenodd"
        d="M22.8572 6.0143C22.5291 6.39274 22.2245 6.39274 21.9429 6.0143C21.8511 6.68048 21.6682 7.31231 21.3943 7.9098C21.7293 8.00575 21.9729 8.17807 22.1257 8.42676C21.76 8.42676 21.3943 8.42676 21.0286 8.42676C20.9156 9.87586 21.1592 11.2544 21.76 12.5624C21.4934 13.6105 21.0666 14.6444 20.48 15.6641C20.1322 15.7963 19.8276 15.9112 19.5657 16.0088C16.7724 12.9274 16.1017 9.48107 17.5543 5.66966C19.4268 4.6922 21.1943 4.8071 22.8572 6.0143Z"
        fill="#179DDE" />
    <path fill-rule="evenodd" clip-rule="evenodd"
        d="M8.96002 3.94629C9.85566 4.39115 10.8309 4.73578 11.8857 4.9802C12.1315 5.47965 12.3754 5.93915 12.6172 6.35875C12.2109 8.05292 12.1498 9.7761 12.4343 11.5283C12.9719 12.6463 13.3987 13.7951 13.7143 14.9747C12.0551 15.7108 10.3484 16.1703 8.59431 16.3532C6.70404 13.0776 6.33833 9.63122 7.49717 6.01411C7.21835 5.8726 6.85263 5.81515 6.40002 5.84179C7.26443 5.20701 8.11775 4.57515 8.96002 3.94629Z"
        fill="#2DB5EA" />
    <path fill-rule="evenodd" clip-rule="evenodd"
        d="M22.8571 6.01416C27.2329 8.98118 29.0004 13.002 28.16 18.0765C28.6976 18.3407 29.2461 18.5704 29.8057 18.7657C29.9819 19.0815 30.1037 19.4262 30.1714 19.7997C29.9201 20.3776 29.6762 20.9521 29.44 21.5228C25.2778 21.0004 21.9863 19.1622 19.5657 16.0086C19.8275 15.9111 20.1322 15.7962 20.48 15.664C21.0666 14.6443 21.4934 13.6104 21.76 12.5623C22.5887 13.9186 23.6858 15.0674 25.0514 16.0086C26.1858 12.8454 25.2105 10.3181 22.1257 8.42662C21.9728 8.17793 21.7292 8.00561 21.3942 7.90967C21.6682 7.31217 21.851 6.68034 21.9428 6.01416C22.2244 6.39261 22.5291 6.39261 22.8571 6.01416Z"
        fill="#1792D9" />
    <path fill-rule="evenodd" clip-rule="evenodd"
        d="M8.59424 21.5228C6.9602 21.7438 5.37545 21.4567 3.83996 20.6613C2.86292 20.2472 2.13149 19.6153 1.64567 18.7657C0.0250819 15.6973 0.207939 12.7104 2.19424 9.80518C2.88888 14.4468 5.0222 18.3526 8.59424 21.5228Z"
        fill="#189EDF" />
    <path fill-rule="evenodd" clip-rule="evenodd"
        d="M13.7142 14.9749C14.6578 16.1774 15.511 17.441 16.2742 18.7659C16.3485 19.2981 16.5924 19.7576 17.0057 20.1444C15.8606 21.0032 14.6413 21.6925 13.3485 22.2122C11.3459 20.5552 9.76098 18.6024 8.59424 16.3534C10.3484 16.1705 12.055 15.711 13.7142 14.9749Z"
        fill="#149DDE" />
    <path fill-rule="evenodd" clip-rule="evenodd"
        d="M29.4399 21.5229C29.6762 20.9522 29.9201 20.3777 30.1714 19.7998C30.1037 19.4263 29.9819 19.0816 29.8057 18.7658C30.0865 18.5031 30.2694 18.1584 30.3542 17.7319C30.9028 18.5361 31.4514 19.3403 31.9999 20.1444C31.3969 20.8854 30.7265 21.5746 29.9885 22.2122C29.8868 21.8965 29.704 21.667 29.4399 21.5229Z"
        fill="#2EB3EA" />
    <path fill-rule="evenodd" clip-rule="evenodd"
        d="M1.64575 18.7659C2.13157 19.6155 2.863 20.2473 3.84004 20.6614C5.37553 21.4568 6.96028 21.7439 8.59432 21.523C11.6166 23.7504 15.0298 25.2437 18.8343 26.0033C19.2717 25.884 19.2717 25.7117 18.8343 25.4863C16.7549 24.726 14.9263 23.6349 13.3486 22.2122C14.6414 21.6925 15.8607 21.0033 17.0058 20.1444C16.5925 19.7576 16.3486 19.2981 16.2743 18.7659C18.718 21.1828 21.6437 22.906 25.0515 23.9354C23.0254 25.6686 20.8311 27.2195 18.4686 28.588C17.9957 28.7569 17.5079 28.8145 17.0058 28.7604C13.5596 28.3427 10.5121 27.0789 7.86289 24.9693C7.741 25.0269 7.61907 25.0841 7.49718 25.1417C9.38317 27.0058 11.5775 28.4419 14.08 29.4496C13.5761 29.7026 13.0275 29.9325 12.4343 30.1389C11.9604 29.9431 11.4118 29.9431 10.7886 30.1389C10.1982 30.0345 9.71059 29.8046 9.32575 29.4496C5.46684 26.7297 2.90684 23.1683 1.64575 18.7659Z"
        fill="#0D90D8" />
    <path fill-rule="evenodd" clip-rule="evenodd"
        d="M25.0515 23.9353C26.2751 24.1087 27.4941 24.3385 28.7086 24.6246C27.832 26.102 26.7348 27.423 25.4172 28.5879C22.5774 29.1883 19.7738 29.2458 17.0057 28.7602C17.5079 28.8143 17.9957 28.7568 18.4686 28.5879C20.8311 27.2194 23.0254 25.6685 25.0515 23.9353Z"
        fill="#1AA4E3" />
    <path fill-rule="evenodd" clip-rule="evenodd"
        d="M8.22857 29.1048C7.82435 29.6986 7.21485 30.0432 6.4 30.1387C2.70321 27.9789 0.569856 24.8771 0 20.8335C1.68342 24.5446 4.42628 27.3016 8.22857 29.1048Z"
        fill="#1D91D8" />
    <path fill-rule="evenodd" clip-rule="evenodd"
        d="M8.2286 29.105C8.55445 29.3152 8.92016 29.43 9.32574 29.4496C9.71058 29.8046 10.1982 30.0345 10.7886 30.1389C11.4118 29.9431 11.9603 29.9431 12.4343 30.1389C13.0275 29.9325 13.5761 29.7026 14.08 29.4496C14.9014 29.7787 15.7546 30.0086 16.64 30.1389C16.2176 30.9402 15.4862 31.3424 14.4457 31.3451C12.7433 31.5171 11.0367 31.5747 9.32574 31.5174C8.23415 31.2328 7.2589 30.7734 6.40002 30.1389C7.21487 30.0434 7.82437 29.6988 8.2286 29.105Z"
        fill="#0F9DDE" />
    <path fill-rule="evenodd" clip-rule="evenodd"
        d="M16.64 30.1389C18.2959 30.6383 20.0027 30.9257 21.76 31.0005C17.6369 32.8095 13.4923 32.9818 9.32568 31.5175C11.0367 31.5747 12.7433 31.5171 14.4457 31.3451C15.4861 31.3424 16.2176 30.9402 16.64 30.1389Z"
        fill="#1FB0EA" />
</svg>