<svg width="32" height="32" viewBox="0 0 33 33" fill="none" xmlns="http://www.w3.org/2000/svg">
    <path fill-rule="evenodd" clip-rule="evenodd"
        d="M15.5249 0.5C16.1712 0.5 16.8173 0.5 17.4636 0.5C21.6018 2.70475 25.8025 4.863 30.0652 6.97476C30.8853 7.39874 31.5721 7.94745 32.1251 8.62089C32.5237 13.5765 32.6044 18.5514 32.3674 23.5458C32.1338 24.4167 31.6086 25.1118 30.7922 25.6309C26.7946 27.6238 22.8365 29.6724 18.9177 31.7764C17.4978 32.6614 16.0438 32.7347 14.5556 31.9959C10.6369 29.8919 6.67867 27.8433 2.68104 25.8504C1.63492 25.3422 0.948282 24.5741 0.621175 23.5458C0.459608 18.7903 0.459608 14.0348 0.621175 9.27934C0.960423 8.53257 1.48547 7.91071 2.19637 7.41373C6.65441 5.10321 11.0973 2.79864 15.5249 0.5Z"
        fill="#1AB2C5" />
    <path fill-rule="evenodd" clip-rule="evenodd"
        d="M8.01245 10.8157C11.8899 10.8157 15.7673 10.8157 19.6447 10.8157C17.9817 14.9307 16.245 19.0277 14.4344 23.1068C14.2679 23.5578 13.9851 23.9235 13.5862 24.2042C11.4889 19.8224 9.63095 15.3595 8.01245 10.8157Z"
        fill="#FEFEFE" />
    <path fill-rule="evenodd" clip-rule="evenodd"
        d="M21.8258 10.8157C22.9568 10.8157 24.0875 10.8157 25.2185 10.8157C23.391 15.367 21.3716 19.8298 19.1601 24.2042C17.9653 22.5925 17.6825 20.8366 18.3119 18.9366C19.487 16.224 20.6582 13.517 21.8258 10.8157Z"
        fill="#FBFDFE" />
</svg>