<svg width="32" height="32" viewBox="0 0 32 32" fill="none" xmlns="http://www.w3.org/2000/svg">
    <path
        d="M18.9775 29.0421L10.3316 6.87332C10.1355 6.37126 9.99428 5.7981 9.91631 5.18832C9.83834 4.57853 9.82527 3.94471 9.87789 3.32495C9.93051 2.7052 10.0477 2.11232 10.2225 1.58196C10.3973 1.0516 10.626 0.594723 10.8949 0.23879C11.4444 -0.502388 12.1214 -0.806805 12.7846 -0.610954C13.4479 -0.415104 14.0463 0.265889 14.4549 1.28996L21.0552 18.2184L22.8379 13.6587C23.2466 12.635 23.845 11.9543 24.5082 11.7585C25.1714 11.5627 25.8483 11.8668 26.3978 12.6076C26.6661 12.9651 26.8944 13.4224 27.0693 13.9526C27.2441 14.4827 27.3619 15.0749 27.4157 15.6942C27.468 16.313 27.4545 16.9458 27.3762 17.5543C27.298 18.1629 27.1565 18.7347 26.9603 19.2352L23.2764 28.6786C23.2013 28.8694 23.1191 29.0493 23.0304 29.2171C22.8871 29.5512 22.7206 29.8461 22.5357 30.0933C21.9862 30.8341 21.3093 31.1382 20.6461 30.9424C19.9828 30.7466 19.3845 30.0659 18.9757 29.0421H18.9775ZM9.13366 29.0421L0.485081 6.87332C0.289061 6.37115 0.147854 5.79791 0.0699506 5.18805C-0.0079523 4.5782 -0.0209415 3.94433 0.031764 3.32457C0.0844696 2.70481 0.201781 2.11196 0.376644 1.58167C0.551508 1.05137 0.78031 0.59459 1.04929 0.23879C1.59874 -0.502388 2.27572 -0.806805 2.939 -0.610954C3.60229 -0.415104 4.20065 0.265889 4.60927 1.28996L13.2552 23.4571C13.5525 24.2105 13.7228 25.1211 13.743 26.0662C13.7632 27.0114 13.6325 27.9458 13.3684 28.7438C13.1935 29.275 12.965 29.7334 12.6963 30.0916C12.1467 30.8319 11.4699 31.1358 10.8067 30.94C10.1436 30.7442 9.54522 30.0638 9.13634 29.0404L9.13366 29.0421Z"
        fill="#212121" />
    <path
        d="M30.9108 -0.920339C31.0249 -0.995335 31.1466 -1.0178 31.2661 -0.985938C31.3856 -0.954074 31.4996 -0.868765 31.5989 -0.736856C31.6969 -0.606541 31.7773 -0.433038 31.8335 -0.230804C31.8896 -0.0285691 31.9198 0.196541 31.9215 0.425772L32 9.74566C32.0014 10.0122 31.9645 10.2742 31.8932 10.5028C31.8219 10.7313 31.7191 10.9174 31.5962 11.0403C31.4717 11.1652 31.3319 11.2223 31.1918 11.2057C31.0518 11.1891 30.9167 11.0993 30.8011 10.946L26.0717 4.6716C25.9566 4.51958 25.8658 4.30863 25.8097 4.06257C25.7536 3.81652 25.7343 3.54517 25.7542 3.2792C25.774 3.01323 25.8321 2.76324 25.922 2.55748C26.0118 2.35172 26.1297 2.1984 26.2625 2.11484L30.9108 -0.920339Z"
        fill="#645CFC" />
</svg>