<svg width="32" height="32" viewBox="0 0 32 32" fill="none" xmlns="http://www.w3.org/2000/svg">
    <g clip-path="url(#clip0_894_1989)">
        <mask id="mask0_894_1989" style="mask-type:luminance" maskUnits="userSpaceOnUse" x="0" y="0"
            width="32" height="32">
            <path d="M32 0H0V32H32V0Z" fill="white" />
        </mask>
        <g mask="url(#mask0_894_1989)">
            <path
                d="M21.2731 9.64044C27.1161 9.55118 31.8851 14.15 31.9983 19.9925C32.0148 20.8504 31.9291 21.6853 31.7526 22.4862C31.4534 23.8422 31.2757 25.2222 31.2757 26.6108V29.2951C31.2757 29.7062 30.9423 30.0396 30.5308 30.0396H27.8467C26.458 30.0396 25.0781 30.2176 23.722 30.5168C22.9212 30.6934 22.0863 30.7791 21.2284 30.7625C15.386 30.6494 10.7871 25.8805 10.8763 20.0376C10.9632 14.3345 15.5701 9.72755 21.2731 9.64044Z"
                fill="url(#paint0_linear_894_1989)" />
            <path
                d="M21.2731 9.64044C27.1161 9.55118 31.8851 14.15 31.9983 19.9925C32.0148 20.8504 31.9291 21.6853 31.7526 22.4862C31.4534 23.8422 31.2757 25.2222 31.2757 26.6108V29.2951C31.2757 29.7062 30.9423 30.0396 30.5308 30.0396H27.8467C26.458 30.0396 25.0781 30.2176 23.722 30.5168C22.9212 30.6934 22.0863 30.7791 21.2284 30.7625C15.386 30.6494 10.7871 25.8805 10.8763 20.0376C10.9632 14.3345 15.5701 9.72755 21.2731 9.64044Z"
                fill="url(#paint1_linear_894_1989)" />
            <path
                d="M13.0686 0.00155668C5.95026 -0.107193 0.140335 5.49537 0.00245996 12.6132C-0.0177275 13.6581 0.0867097 14.6755 0.30196 15.6511C0.666334 17.3031 0.882957 18.9843 0.882957 20.6761V23.9462C0.882957 24.4472 1.28908 24.8534 1.79014 24.8534H5.06026C6.752 24.8534 8.4332 25.07 10.0853 25.4344C11.0609 25.6496 12.0781 25.7541 13.1231 25.7338C20.2408 25.596 25.8433 19.7863 25.7349 12.668C25.6289 5.72011 20.0165 0.107619 13.0686 0.00155668Z"
                fill="url(#paint2_linear_894_1989)" />
            <path
                d="M6.81129 15.5357C7.91209 15.5357 8.80449 14.6433 8.80449 13.5425C8.80449 12.4417 7.91209 11.5493 6.81129 11.5493C5.71049 11.5493 4.81812 12.4417 4.81812 13.5425C4.81812 14.6433 5.71049 15.5357 6.81129 15.5357Z"
                fill="white" />
            <path
                d="M12.4491 15.5357C13.5499 15.5357 14.4423 14.6433 14.4423 13.5425C14.4423 12.4417 13.5499 11.5493 12.4491 11.5493C11.3483 11.5493 10.4559 12.4417 10.4559 13.5425C10.4559 14.6433 11.3483 15.5357 12.4491 15.5357Z"
                fill="white" />
            <path
                d="M18.0855 15.5357C19.1863 15.5357 20.0787 14.6433 20.0787 13.5425C20.0787 12.4417 19.1863 11.5493 18.0855 11.5493C16.9847 11.5493 16.0923 12.4417 16.0923 13.5425C16.0923 14.6433 16.9847 15.5357 18.0855 15.5357Z"
                fill="white" />
        </g>
    </g>
    <defs>
        <linearGradient id="paint0_linear_894_1989" x1="19.3054" y1="18.0702" x2="34.8131"
            y2="33.5779" gradientUnits="userSpaceOnUse">
            <stop stop-color="#A7F3CE" />
            <stop offset="1" stop-color="#61DB99" />
        </linearGradient>
        <linearGradient id="paint1_linear_894_1989" x1="24.3818" y1="23.1464" x2="17.795"
            y2="16.5602" gradientUnits="userSpaceOnUse">
            <stop stop-color="#61DB99" stop-opacity="0" />
            <stop offset="1" stop-color="#009E74" />
        </linearGradient>
        <linearGradient id="paint2_linear_894_1989" x1="8.16683" y1="10.7878" x2="24.5398"
            y2="27.1607" gradientUnits="userSpaceOnUse">
            <stop stop-color="#62E1FB" />
            <stop offset="1" stop-color="#00A2F3" />
        </linearGradient>
        <clipPath id="clip0_894_1989">
            <rect width="32" height="32" fill="white" />
        </clipPath>
    </defs>
</svg>