<svg width="32" height="32" viewBox="0 0 33 33" fill="none" xmlns="http://www.w3.org/2000/svg">
    <path fill-rule="evenodd" clip-rule="evenodd"
        d="M0.5 0.5C11.1667 0.5 21.8333 0.5 32.5 0.5C32.5 11.1667 32.5 21.8333 32.5 32.5C21.8333 32.5 11.1667 32.5 0.5 32.5C0.5 21.8333 0.5 11.1667 0.5 0.5Z"
        fill="#E65A62" />
    <path fill-rule="evenodd" clip-rule="evenodd"
        d="M9.29999 7.24673C9.96884 7.18721 10.5733 7.35166 11.1133 7.74006C12.9041 9.50857 14.6907 11.2819 16.4733 13.0601C18.2537 11.3197 20.0226 9.56411 21.78 7.79339C22.7251 7.11417 23.694 7.07859 24.6867 7.68673C25.5814 8.39777 25.8792 9.30889 25.58 10.4201C25.4724 10.6976 25.3301 10.9553 25.1533 11.1934C20.5163 15.8393 15.8719 20.4748 11.22 25.1001C10.5683 25.6251 9.83052 25.794 9.00665 25.6067C8.00209 25.2775 7.41985 24.5886 7.25999 23.5401C7.19703 22.885 7.36593 22.2983 7.76665 21.7801C9.53591 20.0153 11.3004 18.2464 13.06 16.4734C11.3448 14.7449 9.62479 13.0204 7.89999 11.3001C7.19079 10.4625 7.05745 9.53803 7.49999 8.52673C7.89716 7.8139 8.49716 7.38723 9.29999 7.24673Z"
        fill="#FEFEFE" />
    <path fill-rule="evenodd" clip-rule="evenodd"
        d="M23.06 20.82C24.2107 20.7855 25.0329 21.2833 25.5267 22.3134C25.8711 23.3152 25.68 24.1997 24.9533 24.9667C24.1094 25.6624 23.185 25.7868 22.18 25.34C21.1873 24.7278 20.7828 23.8433 20.9667 22.6867C21.2761 21.626 21.9739 21.0038 23.06 20.82Z"
        fill="#FEFEFE" />
</svg>