<svg width="32" height="32" viewBox="0 0 32 32" fill="none" xmlns="http://www.w3.org/2000/svg">
<path d="M31.1873 23.3459C31.5937 25.1573 31.8984 26.9686 32 28.8805C30.3746 29.5849 28.7492 30.0881 27.0222 30.5912C23.5683 31.4969 19.9111 32 16.1524 32C12.2921 32 8.53334 31.4969 4.97778 30.4906C5.28255 28.5787 5.68889 26.7673 6.19683 24.956C9.44762 25.761 12.8 26.1636 16.1524 26.1636C19.5048 26.1636 22.654 25.761 25.8032 25.0566C27.6318 24.5535 29.4603 24.0503 31.1873 23.3459Z" fill="#00154F"/>
<path d="M20.8253 4.22642C25.9047 9.45912 29.5618 16 31.1872 23.3459C29.4602 24.0503 27.6317 24.5535 25.8031 25.0566C23.9745 18.717 20.6221 12.9811 16.1523 8.3522C14.7301 6.84277 13.1047 5.43396 11.3777 4.12579C12.7999 2.61635 14.4253 1.20755 16.1523 0C17.7777 1.30818 19.4031 2.71698 20.8253 4.22642Z" fill="#1065D8"/>
<path d="M11.3778 4.12598C13.1048 5.43415 14.6286 6.84296 16.1524 8.35239C14.4254 10.1637 12.8 12.0757 11.3778 14.1889C10.4635 15.5977 9.54921 17.0065 8.83809 18.5159C7.82222 20.5285 7.00952 22.6417 6.29841 24.8555C5.79048 26.6669 5.38413 28.4782 5.07936 30.3901C3.35238 29.887 1.6254 29.2832 0 28.5788C0.203175 26.6669 0.507936 24.8555 0.914286 23.1448C1.6254 20.126 2.74286 17.2077 4.06349 14.3901L6.50159 10.0631C7.92381 7.94988 9.54921 5.9373 11.3778 4.12598Z" fill="#102791"/>
</svg>
