<svg width="32" height="32" viewBox="0 0 32 32" fill="none" xmlns="http://www.w3.org/2000/svg">
    <path fill-rule="evenodd" clip-rule="evenodd"
        d="M0 0C10.6667 0 21.3334 0 32 0C32 10.6667 32 21.3334 32 32C21.3334 32 10.6667 32 0 32C0 21.3334 0 10.6667 0 0Z"
        fill="#FDFDFD" />
    <path fill-rule="evenodd" clip-rule="evenodd"
        d="M12.7524 4.02143C19.8352 3.91045 23.5317 7.67516 23.8416 15.3155C23.8851 18.1132 23.0403 20.5375 21.3069 22.5883C19.4237 24.2242 17.3643 24.5665 15.1287 23.615C19.0593 22.399 21.066 19.5755 21.1485 15.1444C20.8453 9.36734 18.0465 6.6579 12.7524 7.01608C10.0071 8.21428 8.18529 10.3533 7.2871 13.4332C6.39185 18.2457 7.47436 22.4382 10.5346 26.0107C11.2181 26.6651 11.9574 27.2355 12.7524 27.722C8.6925 27.0476 6.02584 24.5663 4.75245 20.2781C3.48452 15.2084 4.46142 10.7306 7.68314 6.84496C9.14263 5.40083 10.8324 4.45965 12.7524 4.02143Z"
        fill="#090909" />
    <path fill-rule="evenodd" clip-rule="evenodd"
        d="M19.2475 4.53467C21.9428 4.69504 24.0814 6.00699 25.6634 8.4705C28.0391 12.6885 28.3031 17.0805 26.4555 21.647C24.4116 26.0168 21.1113 28.0988 16.5545 27.893C12.0575 27.1421 9.28518 24.3757 8.23763 19.5935C7.48389 16.182 8.01194 13.0448 9.82179 10.1817C11.6995 7.9266 13.9438 7.32767 16.5545 8.38494C12.647 9.61346 10.6931 12.437 10.6931 16.8555C10.726 19.8642 11.8349 22.2883 14.0198 24.1282C18.6521 26.1768 22.0052 24.7222 24.0792 19.7646C25.5786 14.6865 24.7073 10.1518 21.4654 6.16034C20.7992 5.48796 20.0599 4.94606 19.2475 4.53467Z"
        fill="#080808" />
</svg>