<?xml version="1.0" encoding="UTF-8" standalone="no"?>
<svg
   version="1.1"
   viewBox="0 0 512 512"
   id="svg20"
   sodipodi:docname="archlinux-tweak-tool-candy.svg"
   inkscape:version="1.1.2 (0a00cf5339, 2022-02-04, custom)"
   xmlns:inkscape="http://www.inkscape.org/namespaces/inkscape"
   xmlns:sodipodi="http://sodipodi.sourceforge.net/DTD/sodipodi-0.dtd"
   xmlns:xlink="http://www.w3.org/1999/xlink"
   xmlns="http://www.w3.org/2000/svg"
   xmlns:svg="http://www.w3.org/2000/svg">
  <defs
     id="defs24">
    <linearGradient
       inkscape:collect="always"
       id="linearGradient1839-3">
      <stop
         style="stop-color:#ffb74c;stop-opacity:1"
         offset="0"
         id="stop1835" />
      <stop
         style="stop-color:#e23600;stop-opacity:1"
         offset="1"
         id="stop1837" />
    </linearGradient>
    <linearGradient
       inkscape:collect="always"
       xlink:href="#linearGradient1839-3"
       id="linearGradient1841"
       x1="86.50972"
       y1="245.53781"
       x2="430.61194"
       y2="245.53781"
       gradientUnits="userSpaceOnUse"
       spreadMethod="repeat" />
  </defs>
  <sodipodi:namedview
     id="namedview22"
     pagecolor="#ffffff"
     bordercolor="#666666"
     borderopacity="1.0"
     inkscape:pageshadow="2"
     inkscape:pageopacity="0.0"
     inkscape:pagecheckerboard="0"
     showgrid="false"
     inkscape:zoom="1.4199219"
     inkscape:cx="256.35213"
     inkscape:cy="256"
     inkscape:window-width="948"
     inkscape:window-height="504"
     inkscape:window-x="2884"
     inkscape:window-y="28"
     inkscape:window-maximized="1"
     inkscape:current-layer="svg20" />
  <path
     d="m 222.11912,404.52403 c -8.21975,-2.95659 -16.81353,-6.89279 -19.09573,-8.74692 -3.00048,-2.43673 -4.15133,-1.87748 -4.15133,2.01714 0,2.96351 -1.2019,5.38831 -2.67086,5.38831 -6.39053,0 -33.46789,-20.07123 -44.56182,-33.03148 l -12.10615,-14.14369 -1.05104,12.79402 -1.05099,12.79402 -15.56846,-20.8401 C 93.316065,322.54078 81.319787,272.92425 88.582246,223.10491 93.195409,191.45456 108.70739,156.12805 126.90333,135.83604 l 11.91233,-13.28499 0.1381,12.25531 0.13811,12.2553 16.39894,-17.33979 c 19.33446,-20.44348 35.85662,-54.093639 37.59458,-46.654048 1.48445,6.353946 5.15496,25.941018 24.45978,17.229408 22.61143,-10.202613 59.67204,-10.169369 82.37845,0.0738 12.38238,5.58612 20.70148,-14.557002 22.60502,-17.638862 3.82517,-6.189391 14.22456,23.314832 36.58569,45.364052 l 19.09572,18.83002 0.1381,-12.18843 0.1381,-12.18842 11.91233,13.28498 c 17.18063,19.1599 33.45121,55.46064 37.89109,84.54128 8.4368,55.25014 -6.34381,109.44646 -40.60328,148.88168 l -9.47713,10.90909 -0.099,-12.56965 -0.099,-12.56977 -12.35504,13.80354 c -12.24118,13.67648 -38.968,34.35228 -44.40394,34.35228 -1.55261,0 -2.82283,-2.27218 -2.82283,-5.04919 0,-4.16777 -2.46408,-3.77769 -14.11417,2.23393 -18.82104,9.71177 -60.84524,11.83686 -82.19748,4.15672 z m 65.72922,-66.69576 c 4.94741,-3.6664 13.85233,-12.9949 19.78885,-20.731 l 10.79357,-14.06411 v 28.39393 l 9.98158,-13.57251 c 14.41325,-19.59888 19.90823,-38.16705 19.90823,-67.26823 0,-29.84052 -6.27745,-50.91936 -19.91336,-66.86776 l -9.70664,-11.35269 -0.13477,12.95254 -0.13478,12.95254 -9.6458,-13.31579 c -29.33478,-40.49418 -77.20822,-38.6407 -103.70118,4.0163 l -6.18798,9.96335 -0.0864,-14.94464 -0.0864,-14.94465 -6.80422,8.30279 c -3.74226,4.56657 -10.71938,16.52216 -15.50428,26.56869 -16.42974,34.49219 -10.24253,89.99262 13.06549,117.21079 l 9.12107,10.65122 0.13478,-12.71225 0.13492,-12.71239 10.79357,14.0346 c 15.29634,19.88897 29.85206,27.05901 51.61505,25.42502 10.66085,-0.80035 21.11222,-3.94134 26.56869,-7.98537 z"
     fill="#ffffff"
     stroke-width="3.32112"
     id="path18"
     style="fill-opacity:1;fill:url(#linearGradient1841);opacity:1"
     inkscape:export-filename="/home/erik/Insync/Arcolinux/ATT/archlinux-tweak-tool-candy.png"
     inkscape:export-xdpi="88"
     inkscape:export-ydpi="88" />
</svg>
