<?xml version="1.0" encoding="UTF-8" standalone="no"?>
<svg
   xmlns:dc="http://purl.org/dc/elements/1.1/"
   xmlns:cc="http://creativecommons.org/ns#"
   xmlns:rdf="http://www.w3.org/1999/02/22-rdf-syntax-ns#"
   xmlns:svg="http://www.w3.org/2000/svg"
   xmlns="http://www.w3.org/2000/svg"
   xmlns:sodipodi="http://sodipodi.sourceforge.net/DTD/sodipodi-0.dtd"
   xmlns:inkscape="http://www.inkscape.org/namespaces/inkscape"
   height="512"
   viewBox="0 0 512 512"
   width="512"
   version="1.1"
   id="svg24"
   sodipodi:docname="question.svg"
   inkscape:version="0.92.4 5da689c313, 2019-01-14">
  <metadata
     id="metadata30">
    <rdf:RDF>
      <cc:Work
         rdf:about="">
        <dc:format>image/svg+xml</dc:format>
        <dc:type
           rdf:resource="http://purl.org/dc/dcmitype/StillImage" />
        <dc:title></dc:title>
      </cc:Work>
    </rdf:RDF>
  </metadata>
  <defs
     id="defs28" />
  <sodipodi:namedview
     pagecolor="#ffffff"
     bordercolor="#666666"
     borderopacity="1"
     objecttolerance="10"
     gridtolerance="10"
     guidetolerance="10"
     inkscape:pageopacity="0"
     inkscape:pageshadow="2"
     inkscape:window-width="1920"
     inkscape:window-height="1021"
     id="namedview26"
     showgrid="false"
     inkscape:zoom="0.32593203"
     inkscape:cx="-9.2198689"
     inkscape:cy="205.67656"
     inkscape:window-x="0"
     inkscape:window-y="0"
     inkscape:window-maximized="1"
     inkscape:current-layer="svg24" />
  <text
     x="729.64"
     y="231.36"
     id="text4" />
  <text
     x="1310.91"
     y="151.36"
     id="text6" />
  <text
     x="239.33"
     y="-29.9"
     id="text8" />
  <text
     x="1337.38"
     y="-246.37"
     id="text10" />
  <text
     x="1918.65"
     y="-326.37"
     id="text12" />
  <text
     x="1529.53"
     y="-798.77"
     id="text14" />
  <text
     x="2110.79"
     y="-878.78"
     id="text16" />
  <text
     x="277.99"
     y="535.94"
     id="text18" />
  <g
     transform="matrix(0.0395501,0,0,-0.0395501,2.5222797,497.16698)"
     id="g6"
     style="fill:#f69300;fill-opacity:1;stroke:none">
    <path
       inkscape:connector-curvature="0"
       d="m 4265,12096 c -115,-37 -252,-142 -296,-227 -57,-112 -30,-207 142,-495 154,-259 214,-408 228,-562 14,-158 -6,-275 -99,-582 -59,-198 -74,-285 -66,-405 10,-140 32,-280 68,-420 41,-163 41,-249 2,-312 -16,-25 -46,-60 -67,-77 -36,-28 -45,-31 -110,-31 -62,0 -80,5 -134,34 -134,72 -293,237 -434,450 -135,204 -172,348 -279,1081 -94,646 -106,691 -216,846 -124,175 -299,256 -456,210 -70,-20 -155,-83 -210,-156 -46,-62 -114,-199 -135,-275 -21,-73 -31,-343 -22,-545 10,-205 30,-298 111,-501 143,-363 351,-599 690,-783 275,-149 565,-484 698,-806 77,-186 78,-302 4,-389 -61,-71 -245,-148 -324,-135 -67,11 -233,66 -329,108 -91,40 -169,83 -411,225 -163,95 -225,116 -345,116 -64,0 -113,-5 -135,-14 -131,-55 -190,-158 -170,-299 11,-82 43,-143 113,-219 81,-86 133,-109 267,-118 129,-7 581,-52 669,-66 105,-16 201,-80 242,-160 39,-77 11,-175 -65,-231 -86,-64 -300,-146 -674,-257 C 2106,6976 1930,6947 1390,6910 927,6878 727,6851 603,6805 309,6694 74,6474 23,6261 2,6171 -4,5929 13,5835 c 43,-232 215,-494 383,-583 101,-53 176,-66 369,-66 158,0 176,2 251,27 44,15 109,45 145,68 144,93 219,174 476,519 291,390 446,537 587,556 211,29 306,-265 176,-545 -111,-237 -278,-360 -763,-562 -346,-144 -529,-252 -665,-393 -79,-81 -92,-112 -92,-219 0,-90 29,-173 92,-265 189,-272 398,-284 666,-39 176,163 469,524 657,812 118,181 221,257 346,256 101,0 171,-32 245,-113 86,-93 144,-229 144,-336 0,-37 -16,-150 -35,-251 -45,-236 -46,-283 -2,-347 46,-69 116,-118 214,-150 72,-23 94,-26 166,-22 85,6 161,31 200,66 22,20 68,109 87,167 67,211 224,305 335,201 27,-25 35,-41 35,-67 0,-63 -226,-866 -352,-1249 C 3458,2629 3282,2266 2696,1267 2470,882 2432,783 2423,560 c -8,-193 23,-336 96,-452 22,-34 44,-53 88,-74 52,-26 68,-29 153,-29 116,1 194,20 315,80 163,80 275,191 359,355 92,180 126,332 221,1000 99,699 145,963 226,1312 202,877 490,1538 669,1538 73,0 193,-111 252,-232 49,-99 62,-170 62,-328 -1,-178 -25,-306 -113,-585 -100,-318 -122,-422 -122,-572 0,-199 73,-358 190,-417 71,-36 143,-47 311,-47 284,0 431,63 471,201 19,61 19,429 1,525 -18,93 -83,246 -187,434 -129,234 -130,238 -129,416 1,130 4,161 26,232 66,216 219,351 390,341 64,-3 70,-6 112,-47 81,-79 228,-396 341,-736 160,-479 246,-935 290,-1535 35,-483 59,-653 115,-822 71,-211 211,-428 311,-479 57,-29 131,-25 205,10 156,74 219,197 216,426 -2,183 -35,281 -257,745 -225,470 -269,575 -391,930 -171,495 -217,687 -218,915 -1,130 2,163 24,244 48,182 112,267 220,290 81,18 131,14 188,-15 83,-41 125,-112 197,-334 119,-363 239,-599 383,-752 73,-77 129,-108 194,-108 84,0 217,60 280,127 45,49 52,90 42,263 -5,85 -9,227 -9,315 0,155 1,162 27,212 96,183 436,230 691,96 127,-67 263,-214 326,-355 71,-156 116,-402 161,-873 11,-115 25,-232 31,-260 37,-166 197,-275 405,-275 85,0 179,26 276,77 173,90 220,184 198,398 -35,338 -142,549 -597,1183 -185,258 -222,318 -264,427 -57,146 -48,323 23,459 44,82 184,223 260,260 48,24 69,28 136,27 133,-1 326,-59 537,-161 279,-135 423,-267 534,-488 55,-110 91,-218 151,-463 97,-390 176,-586 333,-824 76,-115 240,-278 322,-321 100,-53 158,-67 246,-62 102,6 182,45 260,125 111,114 162,220 189,393 18,115 25,604 11,761 -14,153 -27,220 -77,374 -78,241 -181,415 -343,576 -159,160 -366,289 -546,341 -70,20 -102,23 -255,23 -156,0 -190,-3 -315,-30 -121,-25 -161,-29 -290,-29 -134,0 -160,3 -240,28 -149,45 -321,135 -404,212 -98,91 -146,185 -145,288 0,131 71,231 271,384 131,99 201,169 232,229 50,99 46,267 -9,380 -36,74 -101,135 -263,251 -133,95 -190,153 -224,230 -21,49 -24,68 -21,142 8,201 108,301 515,512 598,310 1047,438 1542,438 172,0 315,-13 561,-51 232,-36 341,-41 387,-16 65,35 131,140 184,298 30,86 33,104 33,219 0,100 -5,136 -21,182 -63,180 -204,304 -398,352 -350,87 -902,12 -1276,-174 -235,-117 -714,-452 -1214,-850 -374,-298 -501,-365 -739,-389 -207,-21 -402,31 -515,137 -139,131 -134,319 12,447 90,79 192,124 497,220 173,55 344,168 455,302 64,77 138,222 154,301 19,91 13,181 -19,307 -48,191 -77,233 -187,276 -84,32 -171,30 -245,-5 -92,-44 -163,-103 -349,-293 -96,-98 -202,-202 -236,-230 -80,-66 -175,-113 -245,-120 -201,-21 -467,178 -524,389 -20,76 -17,223 6,337 28,140 86,313 221,668 159,417 164,436 163,598 0,112 -3,138 -24,190 -64,167 -184,271 -370,321 -89,24 -319,25 -408,1 -226,-61 -344,-205 -475,-583 -56,-161 -77,-259 -77,-359 0,-106 23,-195 96,-377 35,-86 73,-194 85,-239 19,-73 20,-89 9,-137 -41,-182 -292,-363 -505,-362 -78,1 -118,20 -230,110 -49,40 -108,81 -130,91 -52,23 -203,43 -276,36 -148,-13 -283,-128 -464,-392 -159,-232 -176,-246 -315,-253 -158,-8 -273,39 -318,130 -18,37 -26,75 -34,180 -24,312 -78,537 -174,723 -34,66 -89,173 -123,239 -57,111 -70,145 -94,241 -5,22 -12,294 -16,605 -7,625 -5,610 -71,642 -41,21 -98,22 -155,4 z"
       id="path4"
       style="fill:#f69300;fill-opacity:1" />
  </g>
  <path
     d="m 242.81877,128.84792 c -24.58476,0 -45.67681,16.66861 -45.67681,38.74703 0,6.12258 1.67651,11.69408 4.83093,15.96812 3.15378,4.27209 8.06168,7.23637 13.58274,7.23637 8.37537,0 15.56193,-6.67495 15.56193,-15.07879 0,-3.86978 -1.50056,-7.69817 -4.08322,-11.17729 -0.0434,-0.0614 -0.0382,-0.0407 -0.0808,-0.10094 -1.94685,-2.74888 -2.97527,-4.32707 -3.25339,-4.91178 -0.28524,-0.59763 -0.24254,-0.31499 -0.24254,-1.73858 0,-2.6674 1.24573,-5.03339 3.84067,-7.05397 2.59366,-2.02059 6.53977,-3.45649 11.21806,-3.45649 5.82764,0 9.74723,1.9598 12.73414,5.74034 2.98821,3.78051 4.95188,9.80544 4.95188,17.92855 0,5.14657 -0.26518,8.14706 -1.79875,12.8551 -1.53356,4.70803 -4.47001,11.14301 -9.82355,21.84945 a 5.2719134,5.2719134 0 0 0 -0.0202,0.0202 c -8.97108,18.18147 -10.81639,26.43848 -11.29891,50.30787 a 5.2719134,5.2719134 0 0 0 5.25523,5.3765 h 4.46678 a 5.2719134,5.2719134 0 0 0 4.08291,-1.09145 5.2719134,5.2719134 0 0 0 0.14148,-0.10106 5.2719134,5.2719134 0 0 0 0.1415,-0.14149 5.2719134,5.2719134 0 0 0 0.24255,-0.22234 5.2719134,5.2719134 0 0 0 0.28296,-0.3234 5.2719134,5.2719134 0 0 0 0.0607,-0.0607 5.2719134,5.2719134 0 0 0 1.15207,-3.94145 5.2719134,5.2719134 0 0 0 0,-0.0405 c 0.32986,-13.53811 3.59101,-22.53246 11.94569,-32.86569 14.24894,-15.6525 14.91514,-16.46035 18.69631,-22.1334 0.006,-0.008 0.0149,-0.0123 0.0201,-0.0201 6.46797,-9.581 9.72136,-19.82756 9.72136,-30.43827 0,-11.94052 -4.97192,-22.50466 -13.36024,-29.79147 -8.38831,-7.28876 -20.02483,-11.339 -33.29064,-11.339 m 0.3234,145.49053 c -10.1586,0 -18.09027,7.9252 -18.09027,17.76686 0,9.84167 7.9252,17.78693 17.76687,17.78693 9.84167,0 17.78693,-7.94526 17.78693,-17.78693 0,-9.52408 -7.93945,-17.76686 -17.46353,-17.76686"
     id="path20"
     inkscape:connector-curvature="0"
     style="fill:#ffffff;stroke-width:0.64679706" />
</svg>
