<svg width="512" height="512" viewBox="0 0 512 512" fill="none" xmlns="http://www.w3.org/2000/svg">
<path d="M458.36 74.2C365.16 75.3733 272.893 75.7333 181.56 75.28C181.373 75.28 166.32 75.4667 136.4 75.84C109.547 76.1867 82.28 74.8267 54.6 71.76" stroke="#141D2B" stroke-width="2"/>
<path d="M459.84 119.32L399.84 121.52" stroke="#141D2B" stroke-width="2"/>
<path d="M399.84 121.52C400.667 117.787 400.627 114.013 399.72 110.2C399.575 109.574 399.22 109.016 398.711 108.616C398.202 108.217 397.571 108 396.92 108H344.12C342.644 108 341.197 108.394 339.93 109.14C338.663 109.886 337.624 110.957 336.92 112.24L328.36 127.8" stroke="#141D2B" stroke-width="2"/>
<path d="M328.36 127.8C313.36 117.32 299.96 124.12 285.44 123.68C251.52 122.56 216.947 122.787 181.72 124.36" stroke="#141D2B" stroke-width="2"/>
<path d="M181.72 124.36L173.96 109.88C173.656 109.311 173.205 108.836 172.655 108.505C172.106 108.174 171.478 107.999 170.84 108H115.72C113.933 108 112.827 108.867 112.4 110.6C111.52 114.2 111.453 118.093 112.2 122.28" stroke="#141D2B" stroke-width="2"/>
<path d="M112.2 122.28L55.92 124.72C54.6133 124.8 53.9867 124.187 54.04 122.88C54.1467 120.613 53.5333 119.653 52.2 120" stroke="#141D2B" stroke-width="2"/>
<path d="M399.84 121.52L399.92 139.6" stroke="#141D2B" stroke-width="2"/>
<path d="M399.92 139.6L341.64 140.2C340.147 140.227 339.027 140.907 338.28 142.24L330.8 155.88" stroke="#1793D1" stroke-width="2"/>
<path d="M330.8 155.88L317.56 149.32" stroke="#1793D1" stroke-width="2"/>
<path d="M317.56 149.32L328.36 127.8" stroke="#141D2B" stroke-width="2"/>
<path d="M112.52 140.28L112.08 165" stroke="#141D2B" stroke-width="2"/>
<path d="M112.08 165L112 235.24" stroke="#141D2B" stroke-width="2"/>
<path d="M112 235.24L55.32 236.72C54.52 236.747 54.1067 236.347 54.08 235.52C54.0267 233.173 53.36 231.32 52.08 229.96" stroke="#141D2B" stroke-width="2"/>
<path d="M181.72 124.36L204.96 168.88" stroke="#141D2B" stroke-width="2"/>
<path d="M204.96 168.88C199.6 169.52 195.053 171.547 191.32 174.96" stroke="#1793D1" stroke-width="2"/>
<path d="M191.32 174.96L173.96 142.36C173.267 141.053 172.173 140.4 170.68 140.4L112.52 140.28" stroke="#1793D1" stroke-width="2"/>
<path d="M112.52 140.28L112.2 122.28" stroke="#141D2B" stroke-width="2"/>
<path d="M317.56 149.32L305.52 171.52" stroke="#141D2B" stroke-width="2"/>
<path d="M305.52 171.52C287 166.44 263.36 168.6 250.2 168.12C237.987 167.667 225.76 167.987 213.52 169.08C212.427 169.16 211.667 169.707 211.24 170.72C210.627 172.08 209.467 173.147 207.76 173.92" stroke="#141D2B" stroke-width="2"/>
<path d="M207.76 173.92L204.96 168.88" stroke="#141D2B" stroke-width="2"/>
<path d="M459.88 239.16C458.6 241.507 455.84 241.92 451.6 240.4C440.32 236.32 412.4 240.48 400.04 241.84" stroke="#141D2B" stroke-width="2"/>
<path d="M400.04 241.84L399.96 168.04" stroke="#141D2B" stroke-width="2"/>
<path d="M399.96 168.04L399.92 139.6" stroke="#141D2B" stroke-width="2"/>
<path d="M399.96 168.04H343.08C341.787 168.039 340.52 168.389 339.413 169.051C338.307 169.714 337.403 170.664 336.8 171.8L289.72 260.08C289 261.413 287.893 262.227 286.4 262.52L282.04 263.32C281.912 263.344 281.78 263.339 281.654 263.305C281.528 263.272 281.411 263.211 281.311 263.126C281.212 263.042 281.132 262.937 281.078 262.818C281.025 262.7 280.998 262.57 281 262.44V261.04C281 259.627 280.307 259.04 278.92 259.28L275.88 259.84" stroke="#1793D1" stroke-width="2"/>
<path d="M275.88 259.84L330.8 155.88" stroke="#1793D1" stroke-width="2"/>
<path d="M207.76 173.92L254.8 263.08C255.547 264.52 256.307 264.52 257.08 263.08L305.52 171.52" stroke="#141D2B" stroke-width="2"/>
<path d="M112.04 299.92L57 302.08C56.6105 302.105 56.2436 302.26 55.96 302.52C55.6933 302.813 55.4133 303.107 55.12 303.4C54.4 304.147 53.9733 304 53.84 302.96L52.12 289.92" stroke="#141D2B" stroke-width="2"/>
<path d="M191.32 174.96L254.4 294.36C254.566 294.668 254.814 294.925 255.116 295.103C255.417 295.28 255.762 295.372 256.112 295.368C256.462 295.364 256.805 295.264 257.102 295.079C257.4 294.895 257.641 294.632 257.8 294.32L275.88 259.84" stroke="#1793D1" stroke-width="2"/>
<path d="M400.04 241.84L400.08 288.84" stroke="#141D2B" stroke-width="2"/>
<path d="M400.08 288.84L400.04 405.88C400.04 406.442 399.817 406.981 399.419 407.379C399.021 407.777 398.482 408 397.92 408H341C340.47 408 339.961 407.789 339.586 407.414C339.211 407.039 339 406.53 339 406V256.16C339 253.2 338.307 253.027 336.92 255.64L298.92 327.92C298.2 329.253 297.093 329.92 295.6 329.92L244.88 329.8" stroke="#141D2B" stroke-width="2"/>
<path d="M244.88 329.8C252.8 328.12 254.16 321.92 250.8 315.24C226.213 266.733 201.147 219.467 175.6 173.44C174.843 172.07 173.748 170.914 172.419 170.081C171.09 169.249 169.569 168.767 168 168.68L131.28 166.64C130.027 166.56 129.173 165.933 128.72 164.76C126.96 160.227 124.307 156.4 120.76 153.28C119.587 152.267 118.4 152.267 117.2 153.28C114.907 155.227 114.227 157.84 115.16 161.12C115.325 161.728 115.306 162.371 115.107 162.969C114.908 163.567 114.537 164.092 114.04 164.48C113.453 164.933 112.8 165.107 112.08 165" stroke="#1793D1" stroke-width="2"/>
<path d="M244.88 329.8L216.36 329.92C214.92 329.92 213.867 329.293 213.2 328.04L175.2 255.64C175.083 255.401 174.887 255.21 174.645 255.099C174.403 254.987 174.131 254.962 173.873 255.028C173.615 255.093 173.388 255.246 173.229 255.459C173.07 255.673 172.989 255.934 173 256.2V406C173 406.53 172.789 407.039 172.414 407.414C172.039 407.789 171.53 408 171 408H114.16C113.892 408 113.627 407.947 113.379 407.845C113.132 407.742 112.907 407.592 112.718 407.403C112.528 407.213 112.378 406.988 112.275 406.741C112.173 406.493 112.12 406.228 112.12 405.96L112.04 299.92" stroke="#141D2B" stroke-width="2"/>
<path d="M112.04 299.92L112 235.24" stroke="#141D2B" stroke-width="2"/>
<path d="M459.96 296.96L458.28 298.2C457.293 298.947 456.373 298.893 455.52 298.04L454.8 297.32C454.133 296.627 453.32 296.333 452.36 296.44C436.787 298.04 421.267 297.987 405.8 296.28C404.36 296.12 403.32 295.387 402.68 294.08L400.08 288.84" stroke="#141D2B" stroke-width="2"/>
<path d="M458.36 74.2C365.16 75.3733 272.893 75.7333 181.56 75.28C181.373 75.28 166.32 75.4667 136.4 75.84C109.547 76.1867 82.28 74.8267 54.6 71.76C61.9066 58.6667 70.4533 52.1067 80.24 52.08C197.413 51.92 314.573 51.92 431.72 52.08C443.373 52.1067 452.253 59.48 458.36 74.2Z" fill="#141D2B"/>
<path d="M54.6 71.76C82.28 74.8267 109.547 76.1867 136.4 75.84C166.32 75.4667 181.373 75.28 181.56 75.28C272.893 75.7333 365.16 75.3733 458.36 74.2L459.84 119.32L399.84 121.52C400.667 117.787 400.627 114.013 399.72 110.2C399.575 109.574 399.22 109.016 398.711 108.616C398.203 108.217 397.571 108 396.92 108H344.12C342.644 108 341.197 108.394 339.93 109.14C338.663 109.886 337.624 110.957 336.92 112.24L328.36 127.8C313.36 117.32 299.96 124.12 285.44 123.68C251.52 122.56 216.947 122.787 181.72 124.36L173.96 109.88C173.656 109.311 173.205 108.836 172.656 108.505C172.106 108.174 171.478 107.999 170.84 108H115.72C113.933 108 112.827 108.867 112.4 110.6C111.52 114.2 111.453 118.093 112.2 122.28L55.92 124.72C54.6134 124.8 53.9867 124.187 54.04 122.88C54.1467 120.613 53.5334 119.653 52.2 120C50.9734 100.507 51.7734 84.4267 54.6 71.76Z" fill="#141D2B"/>
<path d="M459.84 119.32L459.88 239.16C458.6 241.507 455.84 241.92 451.6 240.4C440.32 236.32 412.4 240.48 400.04 241.84L399.96 168.04L399.92 139.6L399.84 121.52L459.84 119.32Z" fill="#141D2B"/>
<path d="M52.2 120C53.5333 119.653 54.1467 120.613 54.04 122.88C53.9867 124.187 54.6133 124.8 55.92 124.72L112.2 122.28L112.52 140.28L112.08 165L112 235.24L55.32 236.72C54.52 236.747 54.1067 236.347 54.08 235.52C54.0267 233.173 53.36 231.32 52.08 229.96L52.2 120Z" fill="#141D2B"/>
<path d="M328.36 127.8L317.56 149.32L305.52 171.52C287 166.44 263.36 168.6 250.2 168.12C237.987 167.667 225.76 167.987 213.52 169.08C212.427 169.16 211.667 169.707 211.24 170.72C210.627 172.08 209.467 173.147 207.76 173.92L204.96 168.88L181.72 124.36C216.947 122.787 251.52 122.56 285.44 123.68C299.96 124.12 313.36 117.32 328.36 127.8Z" fill="#141D2B"/>
<path d="M399.92 139.6L399.96 168.04H343.08C341.787 168.039 340.52 168.389 339.413 169.051C338.307 169.714 337.403 170.664 336.8 171.8L289.72 260.08C289 261.413 287.893 262.227 286.4 262.52L282.04 263.32C281.912 263.344 281.78 263.339 281.654 263.305C281.528 263.272 281.411 263.211 281.311 263.126C281.212 263.042 281.132 262.937 281.078 262.818C281.025 262.7 280.998 262.57 281 262.44V261.04C281 259.627 280.307 259.04 278.92 259.28L275.88 259.84L330.8 155.88L338.28 142.24C339.027 140.907 340.147 140.227 341.64 140.2L399.92 139.6Z" fill="#1793D1"/>
<path d="M112.52 140.28L170.68 140.4C172.173 140.4 173.267 141.053 173.96 142.36L191.32 174.96L254.4 294.36C254.566 294.668 254.814 294.925 255.116 295.103C255.417 295.28 255.762 295.372 256.112 295.368C256.462 295.364 256.805 295.264 257.102 295.079C257.4 294.894 257.641 294.632 257.8 294.32L275.88 259.84L278.92 259.28C280.307 259.04 281 259.627 281 261.04V262.44C280.998 262.57 281.025 262.7 281.079 262.818C281.132 262.937 281.212 263.042 281.311 263.126C281.411 263.211 281.528 263.272 281.654 263.305C281.78 263.339 281.912 263.344 282.04 263.32L286.4 262.52C287.893 262.227 289 261.413 289.72 260.08L336.8 171.8C337.403 170.664 338.307 169.714 339.413 169.051C340.52 168.389 341.787 168.039 343.08 168.04H399.96L400.04 241.84L400.08 288.84L400.04 405.88C400.04 406.442 399.817 406.981 399.419 407.379C399.021 407.777 398.482 408 397.92 408H341C340.47 408 339.961 407.789 339.586 407.414C339.211 407.039 339 406.53 339 406V256.16C339 253.2 338.307 253.027 336.92 255.64L298.92 327.92C298.2 329.253 297.093 329.92 295.6 329.92L244.88 329.8C252.8 328.12 254.16 321.92 250.8 315.24C226.213 266.733 201.147 219.467 175.6 173.44C174.843 172.07 173.748 170.914 172.419 170.081C171.09 169.249 169.569 168.767 168 168.68L131.28 166.64C130.027 166.56 129.173 165.933 128.72 164.76C126.96 160.227 124.307 156.4 120.76 153.28C119.587 152.267 118.4 152.267 117.2 153.28C114.907 155.227 114.227 157.84 115.16 161.12C115.325 161.728 115.306 162.371 115.107 162.969C114.908 163.567 114.537 164.092 114.04 164.48C113.453 164.933 112.8 165.107 112.08 165L112.52 140.28Z" fill="#1793D1"/>
<path d="M181.72 124.36L204.96 168.88C199.6 169.52 195.053 171.547 191.32 174.96L173.96 142.36C173.267 141.053 172.173 140.4 170.68 140.4L112.52 140.28L112.2 122.28C111.453 118.093 111.52 114.2 112.4 110.6C112.827 108.867 113.933 108 115.72 108H170.84C171.478 107.999 172.106 108.174 172.655 108.505C173.205 108.836 173.656 109.311 173.96 109.88L181.72 124.36Z" fill="#1793D1"/>
<path d="M399.84 121.52L399.92 139.6L341.64 140.2C340.147 140.227 339.027 140.907 338.28 142.24L330.8 155.88L317.56 149.32L328.36 127.8L336.92 112.24C337.624 110.957 338.663 109.886 339.93 109.14C341.197 108.394 342.644 108 344.12 108H396.92C397.571 108 398.202 108.217 398.711 108.616C399.22 109.016 399.575 109.574 399.72 110.2C400.627 114.013 400.667 117.787 399.84 121.52Z" fill="#1793D1"/>
<path d="M317.56 149.32L330.8 155.88L275.88 259.84L257.8 294.32C257.641 294.632 257.4 294.894 257.102 295.079C256.805 295.264 256.462 295.364 256.112 295.368C255.762 295.372 255.417 295.28 255.116 295.103C254.814 294.925 254.566 294.668 254.4 294.36L191.32 174.96C195.053 171.547 199.6 169.52 204.96 168.88L207.76 173.92L254.8 263.08C255.547 264.52 256.307 264.52 257.08 263.08L305.52 171.52L317.56 149.32Z" fill="#1793D1"/>
<path d="M244.88 329.8L216.36 329.92C214.92 329.92 213.867 329.293 213.2 328.04L175.2 255.64C175.083 255.401 174.887 255.21 174.645 255.099C174.403 254.987 174.131 254.962 173.873 255.028C173.615 255.093 173.387 255.246 173.229 255.459C173.07 255.673 172.989 255.934 173 256.2V406C173 406.53 172.789 407.039 172.414 407.414C172.039 407.789 171.53 408 171 408H114.16C113.892 408 113.627 407.947 113.379 407.845C113.132 407.742 112.907 407.592 112.717 407.403C112.528 407.213 112.378 406.988 112.275 406.741C112.173 406.493 112.12 406.228 112.12 405.96L112.04 299.92L112 235.24L112.08 165C112.8 165.107 113.453 164.933 114.04 164.48C114.537 164.092 114.908 163.567 115.107 162.969C115.306 162.371 115.325 161.728 115.16 161.12C114.227 157.84 114.907 155.227 117.2 153.28C118.4 152.267 119.587 152.267 120.76 153.28C124.307 156.4 126.96 160.227 128.72 164.76C129.173 165.933 130.027 166.56 131.28 166.64L168 168.68C169.569 168.767 171.09 169.249 172.419 170.081C173.748 170.914 174.843 172.07 175.6 173.44C201.147 219.467 226.213 266.733 250.8 315.24C254.16 321.92 252.8 328.12 244.88 329.8Z" fill="#1793D1"/>
<path d="M305.52 171.52L257.08 263.08C256.307 264.52 255.547 264.52 254.8 263.08L207.76 173.92C209.467 173.147 210.627 172.08 211.24 170.72C211.667 169.707 212.427 169.16 213.52 169.08C225.76 167.987 237.987 167.667 250.2 168.12C263.36 168.6 287 166.44 305.52 171.52Z" fill="#141D2B"/>
<path d="M52.08 229.96C53.36 231.32 54.0267 233.173 54.08 235.52C54.1067 236.347 54.52 236.747 55.32 236.72L112 235.24L112.04 299.92L57 302.08C56.6106 302.105 56.2436 302.26 55.96 302.52C55.6933 302.813 55.4133 303.107 55.12 303.4C54.4 304.147 53.9733 304 53.84 302.96L52.12 289.92L52.08 229.96Z" fill="#141D2B"/>
<path d="M459.88 239.16L459.96 296.96L458.28 298.2C457.293 298.947 456.373 298.893 455.52 298.04L454.8 297.32C454.133 296.627 453.32 296.333 452.36 296.44C436.787 298.04 421.267 297.987 405.8 296.28C404.36 296.12 403.32 295.387 402.68 294.08L400.08 288.84L400.04 241.84C412.4 240.48 440.32 236.32 451.6 240.4C455.84 241.92 458.6 241.507 459.88 239.16Z" fill="#141D2B"/>
<path d="M400.08 288.84L402.68 294.08C403.32 295.387 404.36 296.12 405.8 296.28C421.267 297.987 436.787 298.04 452.36 296.44C453.32 296.333 454.133 296.627 454.8 297.32L455.52 298.04C456.373 298.893 457.293 298.947 458.28 298.2L459.96 296.96C460.067 337.84 460.053 378.707 459.92 419.56C459.8 447.44 449.16 460 421.6 460C312.88 460.027 204.16 460.027 95.44 460C67.8 459.96 52.28 452.12 52.12 423.16C51.9067 378.787 51.9067 334.373 52.12 289.92L53.84 302.96C53.9734 304 54.4 304.147 55.12 303.4C55.4134 303.107 55.6934 302.813 55.96 302.52C56.2436 302.26 56.6106 302.105 57 302.08L112.04 299.92L112.12 405.96C112.12 406.228 112.173 406.493 112.275 406.741C112.378 406.988 112.528 407.213 112.718 407.402C112.907 407.592 113.132 407.742 113.379 407.845C113.627 407.947 113.892 408 114.16 408H171C171.53 408 172.039 407.789 172.414 407.414C172.789 407.039 173 406.53 173 406V256.2C172.989 255.934 173.07 255.672 173.229 255.459C173.387 255.246 173.615 255.093 173.873 255.028C174.131 254.962 174.403 254.987 174.645 255.098C174.887 255.21 175.083 255.401 175.2 255.64L213.2 328.04C213.867 329.293 214.92 329.92 216.36 329.92L244.88 329.8L295.6 329.92C297.093 329.92 298.2 329.253 298.92 327.92L336.92 255.64C338.307 253.027 339 253.2 339 256.16V406C339 406.53 339.211 407.039 339.586 407.414C339.961 407.789 340.47 408 341 408H397.92C398.482 408 399.022 407.777 399.419 407.379C399.817 406.981 400.04 406.442 400.04 405.88L400.08 288.84Z" fill="#141D2B"/>
</svg>
