<svg width="64" height="64" viewBox="0 0 64 64" fill="none" xmlns="http://www.w3.org/2000/svg">
<path fill-rule="evenodd" clip-rule="evenodd" d="M26.6667 10.6667V9.33333H37.3333V10.6667H26.6667ZM14.6667 32C14.6667 30.528 15.8613 29.3333 17.3333 29.3333C18.8053 29.3333 20 30.528 20 32C20 33.472 18.8053 34.6667 17.3333 34.6667C15.8613 34.6667 14.6667 33.472 14.6667 32ZM44 32C44 30.528 45.1947 29.3333 46.6667 29.3333C48.1387 29.3333 49.3333 30.528 49.3333 32C49.3333 33.472 48.1387 34.6667 46.6667 34.6667C45.1947 34.6667 44 33.472 44 32ZM50.6667 32V29.3333V18.6667C50.6667 17.1947 49.472 16 48 16H16C14.528 16 13.3333 17.1947 13.3333 18.6667V29.3333V32V34.6667V53.3333C13.3333 54.8053 14.528 56 16 56H48C49.472 56 50.6667 54.8053 50.6667 53.3333V34.6667V32ZM56 32V29.3333V16C56 13.056 53.6107 10.6667 50.6667 10.6667H42.6667V6.66667C42.6667 5.19467 41.472 4 40 4H24C22.528 4 21.3333 5.19467 21.3333 6.66667V10.6667H13.3333C10.3893 10.6667 8 13.056 8 16V29.3333V32V34.6667V56C8 58.944 10.3893 61.3333 13.3333 61.3333H50.6667C53.6107 61.3333 56 58.944 56 56V34.6667V32ZM29.8427 21.9053C30.692 20.3453 31.384 19.0707 31.384 19.06C31.3853 19.0493 31.624 19.0827 31.9173 19.1347L31.2853 32.7587L40.636 33.0667C42.4107 33.124 43.1653 34.44 42.32 36.0013L34.6867 50.1147L33.1467 52.9413L33.1627 52.7827L33.244 39.2613L23.8933 38.9547C22.1187 38.896 21.364 37.58 22.208 36.0187L29.8427 21.9053Z" fill="#9FEF00"/>
</svg>
