<svg width="64" height="64" viewBox="0 0 64 64" fill="none" xmlns="http://www.w3.org/2000/svg">
<path fill-rule="evenodd" clip-rule="evenodd" d="M48.6667 56H46V53.3333H48.6667V56ZM52.6667 55.6427C54.6587 55.1813 56 54.32 56 53.3333H52.6667V55.6427ZM42 56H39.3333V53.3333H42V56ZM8 14.6667C8 16.1387 6.80533 17.3333 5.33333 17.3333C3.86133 17.3333 2.66667 16.1387 2.66667 14.6667V12C2.66667 6.84933 6.84933 2.66667 12 2.66667H52C57.1507 2.66667 61.3333 6.84933 61.3333 12V42.6667C61.3333 44.1387 60.1387 45.3333 58.6667 45.3333C57.1947 45.3333 56 44.1387 56 42.6667V14.6667C56 10.9867 53.0133 8 49.3333 8H14.6667C10.9867 8 8 10.9867 8 14.6667ZM22.6947 15.54C22.148 16.0307 21.3067 15.9827 20.8173 15.432C20.3267 14.8827 20.3787 14.0387 20.932 13.5493C24.756 10.1427 29.9573 8.684 35.0067 9.61067C39.348 10.4067 43.2133 12.9053 45.72 16.5373C48.2253 20.1693 49.1893 24.6693 48.3933 29.0107C47.596 33.352 45.0973 37.2173 41.4667 39.724C37.8347 42.2293 33.3333 43.1933 28.992 42.3973C24.744 41.6173 20.9547 39.2147 18.44 35.7027C15.928 32.1787 14.8707 27.8227 15.5187 23.5493C15.6227 22.82 16.2987 22.316 17.0267 22.4227C17.7547 22.5307 18.2627 23.2093 18.1587 23.9387C17.6227 27.528 18.4933 31.1987 20.6093 34.1493C22.7253 37.0987 25.9067 39.12 29.4733 39.7733C33.12 40.4427 36.9013 39.632 39.9453 37.52C43 35.4227 45.1013 32.176 45.7693 28.5293C46.4387 24.884 45.628 21.1027 43.516 18.0573C41.4187 15.0027 38.172 12.9027 34.5253 12.2333C30.2893 11.456 25.9187 12.6747 22.6947 15.54ZM30.9733 16.6667C30.2373 16.644 29.6613 16.0293 29.6867 15.2933C29.712 14.5573 30.3307 13.9773 31.0667 14C33.7467 14.0933 36.32 15.08 38.3733 16.8C40.4267 18.52 41.8533 20.88 42.4 23.4933C42.5547 24.2147 42.0973 24.9253 41.38 25.08C40.6627 25.2347 39.9547 24.7747 39.8 24.0533C39.36 22.0133 38.2533 20.1733 36.6667 18.84C35.0667 17.5067 33.0667 16.7333 30.9733 16.6667ZM35.3333 56H14.6667C10.9867 56 8 53.0133 8 49.3333V26.6667C8 25.1947 6.80533 24 5.33333 24C3.86133 24 2.66667 25.1947 2.66667 26.6667V52C2.66667 57.1507 6.84933 61.3333 12 61.3333H52C57.1507 61.3333 61.3333 57.1507 61.3333 52V50.6667C61.3333 49.1947 60.1387 48 58.6667 48H18.6667C17.1947 48 16 49.1947 16 50.6667C16 52.1387 17.1947 53.3333 18.6667 53.3333H35.3333V56ZM30 26C30 25.4667 30.2133 24.96 30.5867 24.5867C30.96 24.2133 31.4667 24 32 24C32.5333 24 33.04 24.2133 33.4133 24.5867C33.7867 24.96 34 25.4667 34 26C34 26.5333 33.7867 27.04 33.4133 27.4133C33.04 27.7867 32.5333 28 32 28C31.4667 28 30.96 27.7867 30.5867 27.4133C30.2133 27.04 30 26.5333 30 26ZM26 26C26 24.4133 26.6267 22.88 27.76 21.76C28.88 20.6267 30.4133 20 32 20C33.5867 20 35.12 20.6267 36.24 21.76C37.3733 22.88 38 24.4133 38 26C38 27.5867 37.3733 29.12 36.24 30.24C35.12 31.3733 33.5867 32 32 32C30.4133 32 28.88 31.3733 27.76 30.24C26.6267 29.12 26 27.5867 26 26Z" fill="#9FEF00"/>
</svg>
