<svg width="64" height="64" viewBox="0 0 64 64" fill="none" xmlns="http://www.w3.org/2000/svg">
<path fill-rule="evenodd" clip-rule="evenodd" d="M48.6667 56H46V53.3333H48.6667V56ZM52.6667 55.6427C54.6587 55.1813 56 54.32 56 53.3333H52.6667V55.6427ZM42 56H39.3333V53.3333H42V56ZM8 14.6667C8 16.1387 6.80533 17.3333 5.33333 17.3333C3.86133 17.3333 2.66666 16.1387 2.66666 14.6667V12C2.66666 6.84933 6.84933 2.66667 12 2.66667H52C57.1507 2.66667 61.3333 6.84933 61.3333 12V42.6667C61.3333 44.1387 60.1387 45.3333 58.6667 45.3333C57.1947 45.3333 56 44.1387 56 42.6667V14.6667C56 10.9867 53.0133 8 49.3333 8H14.6667C10.9867 8 8 10.9867 8 14.6667ZM35.3333 56H14.6667C10.9867 56 8 53.0133 8 49.3333V26.6667C8 25.1947 6.80533 24 5.33333 24C3.86133 24 2.66666 25.1947 2.66666 26.6667V52C2.66666 57.1507 6.84933 61.3333 12 61.3333H52C57.1507 61.3333 61.3333 57.1507 61.3333 52V50.6667C61.3333 49.1947 60.1387 48 58.6667 48H18.6667C17.1947 48 16 49.1947 16 50.6667C16 52.1387 17.1947 53.3333 18.6667 53.3333H35.3333V56ZM36.448 23.776H26.184V23.092V19.6773C26.184 19.4653 26.212 19.26 26.26 19.0547C26.3213 18.788 26.396 18.5213 26.4987 18.268C26.5947 18.0147 26.7107 17.7693 26.848 17.5293C26.9507 17.3453 27.0733 17.1733 27.2173 17.016C27.5867 16.6133 27.9973 16.236 28.4427 15.9013C28.7707 15.6547 29.1333 15.4427 29.5093 15.272C29.8373 15.128 30.1867 15.0187 30.536 14.9507C30.8853 14.888 31.24 14.8613 31.5893 14.8813C31.9867 14.9027 32.376 14.9573 32.752 15.0533C33.088 15.1413 33.416 15.2653 33.724 15.4227C34.0387 15.58 34.3333 15.7773 34.6 16.004C34.9147 16.264 35.2027 16.5573 35.4627 16.88C36.0987 17.6667 36.448 18.652 36.448 19.6707V23.092V23.776ZM33.2547 34.616C34.004 34.1813 34.5093 33.3707 34.5093 32.4427C34.5093 31.0587 33.384 29.9347 32 29.9347C30.616 29.9347 29.4907 31.0587 29.4907 32.4427C29.4907 33.3707 29.996 34.1813 30.7453 34.616V36.624C30.7453 37.0853 31.12 37.46 31.5813 37.46H32.4187C32.88 37.46 33.2547 37.0853 33.2547 36.624V34.616ZM19 33.6973C19 32.9427 19.6133 32.3293 20.368 32.3293C21.124 32.3293 21.7373 32.9427 21.7373 33.6973C21.7373 34.4533 21.124 35.0653 20.368 35.0653C19.6133 35.0653 19 34.4533 19 33.6973ZM38.1573 32.3293C38.1573 31.7627 38.6173 31.3027 39.184 31.3027C39.7507 31.3027 40.2107 31.7627 40.2107 32.3293C40.2107 32.896 39.7507 33.3547 39.184 33.3547C38.6173 33.3547 38.1573 32.896 38.1573 32.3293ZM39.184 23.776H42.2627C43.7733 23.776 45 25.0027 45 26.5133V40.8813C45 42.392 43.7733 43.6187 42.2627 43.6187H21.7373C20.2267 43.6187 19 42.392 19 40.8813V37.46C19 36.7053 19.6133 36.092 20.368 36.092C21.124 36.092 21.7373 36.7053 21.7373 37.46V39.5133C21.7373 40.268 22.3507 40.8813 23.1053 40.8813H38.1573V35.772C38.1573 35.1933 38.6173 34.724 39.184 34.724C39.7507 34.724 40.2107 35.1933 40.2107 35.772V40.8813H40.8947C41.6493 40.8813 42.2627 40.268 42.2627 39.5133V27.8813C42.2627 27.1267 41.6493 26.5133 40.8947 26.5133H23.1053C22.3507 26.5133 21.7373 27.1267 21.7373 27.8813V29.9347C21.7373 30.6893 21.124 31.3027 20.368 31.3027C19.6133 31.3027 19 30.6893 19 29.9347V26.5133C19 25.0027 20.2267 23.776 21.7373 23.776H23.448V23.092V19.6707C23.448 19.664 23.448 19.664 23.448 19.6573C23.4547 19.2533 23.5027 18.8507 23.5907 18.4533C23.68 18.056 23.796 17.66 23.9467 17.2827C24.0907 16.9 24.268 16.5307 24.4733 16.1747C24.672 15.8187 24.912 15.4907 25.1853 15.1827C25.6707 14.6493 26.212 14.156 26.7933 13.7187C27.292 13.3427 27.8333 13.028 28.4013 12.7747C28.9213 12.5413 29.468 12.3707 30.0293 12.2613C30.5907 12.1587 31.1587 12.1173 31.7267 12.1453C32.3013 12.172 32.876 12.2613 33.4373 12.4053C33.9707 12.5413 34.484 12.7333 34.9693 12.9867C35.4627 13.24 35.928 13.54 36.352 13.896C36.8093 14.28 37.22 14.6973 37.5973 15.1627C38.6227 16.4413 39.184 18.0293 39.184 19.6707V23.092V23.776Z" fill="#9FEF00"/>
</svg>
