<svg width="64" height="64" viewBox="0 0 64 64" fill="none" xmlns="http://www.w3.org/2000/svg">
<path fill-rule="evenodd" clip-rule="evenodd" d="M48.6667 56H46V53.3333H48.6667V56ZM52.6667 55.6427C54.6587 55.1813 56 54.32 56 53.3333H52.6667V55.6427ZM42 56H39.3333V53.3333H42V56ZM8.00001 14.6667C8.00001 16.1387 6.80534 17.3333 5.33334 17.3333C3.86134 17.3333 2.66667 16.1387 2.66667 14.6667V12C2.66667 6.84933 6.84934 2.66667 12 2.66667H52C57.1507 2.66667 61.3333 6.84933 61.3333 12V42.6667C61.3333 44.1387 60.1387 45.3333 58.6667 45.3333C57.1947 45.3333 56 44.1387 56 42.6667V14.6667C56 10.9867 53.0133 8 49.3333 8H14.6667C10.9867 8 8.00001 10.9867 8.00001 14.6667ZM19.6133 41.3867C18.84 42.6453 17.1947 43.0427 15.94 42.2733C14.6853 41.504 14.288 39.864 15.0533 38.6133L29.72 14.6133C30.4933 13.3547 32.1387 12.9573 33.3933 13.7267C34.648 14.496 35.0453 16.136 34.28 17.3867L19.6133 41.3867ZM35.3333 56H14.6667C10.9867 56 8.00001 53.0133 8.00001 49.3333V26.6667C8.00001 25.1947 6.80534 24 5.33334 24C3.86134 24 2.66667 25.1947 2.66667 26.6667V52C2.66667 57.1507 6.84934 61.3333 12 61.3333H52C57.1507 61.3333 61.3333 57.1507 61.3333 52V50.6667C61.3333 49.1947 60.1387 48 58.6667 48H18.6667C17.1947 48 16 49.1947 16 50.6667C16 52.1387 17.1947 53.3333 18.6667 53.3333H35.3333V56ZM32.6667 37.3333H46C47.472 37.3333 48.6667 38.528 48.6667 40C48.6667 41.472 47.472 42.6667 46 42.6667H32.6667C31.1947 42.6667 30 41.472 30 40C30 38.528 31.1947 37.3333 32.6667 37.3333Z" fill="#9FEF00"/>
</svg>
