<svg width="64" height="64" viewBox="0 0 64 64" fill="none" xmlns="http://www.w3.org/2000/svg">
<path fill-rule="evenodd" clip-rule="evenodd" d="M48 42.6667C48 41.1947 49.1947 40 50.6667 40C52.1387 40 53.3334 41.1947 53.3334 42.6667V54.6667C53.3334 58.3467 50.3467 61.3333 46.6667 61.3333H17.3334C13.6534 61.3333 10.6667 58.3467 10.6667 54.6667V50.6667C10.6667 49.1947 11.8614 48 13.3334 48C14.8054 48 16 49.1947 16 50.6667V52C16 54.208 17.792 56 20 56H44C46.208 56 48 54.208 48 52V42.6667ZM50.6667 32C52.1387 32 53.3334 33.1947 53.3334 34.6667C53.3334 36.1387 52.1387 37.3333 50.6667 37.3333C49.1947 37.3333 48 36.1387 48 34.6667C48 33.1947 49.1947 32 50.6667 32ZM13.3334 40C14.8054 40 16 41.1947 16 42.6667C16 44.1387 14.8054 45.3333 13.3334 45.3333C11.8614 45.3333 10.6667 44.1387 10.6667 42.6667C10.6667 41.1947 11.8614 40 13.3334 40ZM27.3334 9.33333H30V14.6667H27.3334V9.33333ZM34 9.33333H36.6667V14.6667H34V9.33333ZM21.3334 16H42.6667V10.6667C42.6667 9.19467 41.472 8 40 8H24C22.528 8 21.3334 9.19467 21.3334 10.6667V16ZM16 16.1333C12.9587 16.752 10.6667 19.444 10.6667 22.6667V34.6667C10.6667 36.1387 11.8614 37.3333 13.3334 37.3333C14.8054 37.3333 16 36.1387 16 34.6667V25.3333C16 23.1253 17.792 21.3333 20 21.3333H44C46.208 21.3333 48 23.1253 48 25.3333V26.6667C48 28.1387 49.1947 29.3333 50.6667 29.3333C52.1387 29.3333 53.3334 28.1387 53.3334 26.6667V22.6667C53.3334 19.444 51.0414 16.752 48 16.1333V16V9.33333C48 5.65333 45.0134 2.66667 41.3334 2.66667H22.6667C18.9867 2.66667 16 5.65333 16 9.33333V16V16.1333ZM32 26.6667L28.2507 32.6667H30.5V40.1667H26V38.2627C26.9294 37.7227 27.5 36.732 27.5 35.6667C27.5 34.016 26.1507 32.6667 24.5 32.6667C22.8507 32.6667 21.5 34.016 21.5 35.6667C21.5 36.732 22.0707 37.7227 23 38.2627V40.1667C23 43.1667 26 43.1667 26 43.1667H30.5V45.072C29.5707 45.612 29 46.6013 29 47.6667C29 49.3173 30.3494 50.6667 32 50.6667C33.6507 50.6667 35 49.3173 35 47.6667C35 46.6013 34.4294 45.612 33.5 45.072V43.1667H38C38 43.1667 41 43.1667 41 40.1667V38.6667C41.8307 38.6667 42.5 37.9973 42.5 37.1667V34.1667C42.5 33.336 41.8307 32.6667 41 32.6667H38C37.1694 32.6667 36.5 33.336 36.5 34.1667V37.1667C36.5 37.9973 37.1694 38.6667 38 38.6667V40.1667H33.5V32.6667H35.7507L32 26.6667Z" fill="#141D2B"/>
</svg>
