<svg width="64" height="64" viewBox="0 0 64 64" fill="none" xmlns="http://www.w3.org/2000/svg">
<path fill-rule="evenodd" clip-rule="evenodd" d="M49.276 33.5587C49.312 33.5627 49.3467 33.5653 49.3813 33.568C50.74 33.6493 51.9093 32.6093 51.992 31.248C52.028 30.6547 52.0533 30.0627 52.0533 29.4707C52.0533 29.4707 52.0533 29.4707 52.0533 29.4587V29.3227V24.1027C52.0773 18.648 49.98 13.4027 46.216 9.45467C42.5147 5.56667 37.368 3.35867 32 3.33334C26.632 3.35867 21.4853 5.56667 17.784 9.45467C14.02 13.4027 11.9227 18.648 11.9467 24.1027V40.564C11.9227 46.0187 14.02 51.264 17.784 55.212C21.4853 59.1 26.62 61.308 32 61.3333C37.0467 61.3213 41.9093 59.3347 45.5133 55.792C49.116 52.2133 51.3373 47.4627 51.732 42.4027C51.8413 41.048 50.8293 39.8587 49.4747 39.7493C48.1187 39.6413 46.9293 40.6533 46.8213 42.008C46.5 45.896 44.8093 49.536 42.0453 52.276C39.3667 54.904 35.752 56.3853 32 56.3973C27.9773 56.372 24.1267 54.7187 21.3507 51.8067C18.4747 48.7827 16.8707 44.76 16.8827 40.5773C16.8827 40.5773 16.8827 40.5773 16.8827 40.564V24.1027C16.8827 24.0893 16.8827 24.0893 16.8827 24.0893C16.8707 19.9067 18.4747 15.884 21.3507 12.86C24.1267 9.948 27.9773 8.29467 32 8.26934C36.0227 8.29467 39.8733 9.948 42.6493 12.86C45.5253 15.884 47.1293 19.9067 47.1173 24.0893C47.1173 24.0893 47.1173 24.0893 47.1173 24.1027V28.6307H22.3267C20.8547 28.6307 19.66 29.7373 19.66 31.0987C19.66 32.4613 20.8547 33.568 22.3267 33.568H49.276V33.5587ZM32 13.4253C33.3627 13.4253 34.468 14.5707 34.468 15.98V21.4453C34.468 22.856 33.3627 24 32 24C30.6373 24 29.532 22.856 29.532 21.4453V15.98C29.532 14.5707 30.6373 13.4253 32 13.4253Z" fill="#9FEF00"/>
</svg>
