<svg width="64" height="64" viewBox="0 0 64 64" fill="none" xmlns="http://www.w3.org/2000/svg">
<path fill-rule="evenodd" clip-rule="evenodd" d="M44.3387 49.3013H41.436V44.22H37.08V49.3013H34.1773V44.22H29.8227V49.3013H26.92V44.22H22.564V49.3013H19.6613V44.22H15.3067V49.3013H13.8547V26.0747H21.1133V17.3653H42.8867V26.0747H50.1453V49.3013H48.6933V44.22H44.3387V49.3013ZM7.33334 32C7.33334 30.896 6.43734 30 5.33334 30C4.22934 30 3.33334 30.896 3.33334 32V58C3.33334 60.208 5.12534 62 7.33334 62H56.6667C58.8747 62 60.6667 60.208 60.6667 58V45.3333C60.6667 44.2293 59.7707 43.3333 58.6667 43.3333C57.5627 43.3333 56.6667 44.2293 56.6667 45.3333V56.6667C56.6667 57.4027 56.0693 58 55.3333 58H8.66668C7.93068 58 7.33334 57.4027 7.33334 56.6667V32ZM12.4027 53.656H51.5973C53.1987 53.656 54.5 52.3547 54.5 50.7533V24.624C54.5 23.0213 53.1987 21.72 51.5973 21.72H47.2413V15.9133C47.2413 14.312 45.9413 13.0107 44.3387 13.0107H19.6613C18.0587 13.0107 16.7587 14.312 16.7587 15.9133V21.72H12.4027C10.8013 21.72 9.50001 23.0213 9.50001 24.624V50.7533C9.50001 52.3547 10.8013 53.656 12.4027 53.656ZM56.6667 33.3333C56.6667 34.4373 57.5627 35.3333 58.6667 35.3333C59.7707 35.3333 60.6667 34.4373 60.6667 33.3333V8.66666C60.6667 6.45866 58.8747 4.66666 56.6667 4.66666H7.33334C5.12534 4.66666 3.33334 6.45866 3.33334 8.66666V20C3.33334 21.104 4.22934 22 5.33334 22C6.43734 22 7.33334 21.104 7.33334 20V10C7.33334 9.264 7.93068 8.66666 8.66668 8.66666H55.3333C56.0693 8.66666 56.6667 9.264 56.6667 10V33.3333Z" fill="#9FEF00"/>
</svg>
