<?xml version="1.0" encoding="utf-8"?>
<svg viewBox="0 0 235 235" xmlns="http://www.w3.org/2000/svg" xmlns:xlink="http://www.w3.org/1999/xlink">
  <defs>
    <style>.cls-1{fill:url(#linear-gradient);}.cls-2{fill:url(#linear-gradient-2);}.cls-3{fill:url(#linear-gradient-3);}.cls-4{fill:url(#linear-gradient-4);}.cls-5{fill:url(#linear-gradient-5);}.cls-6{fill:url(#linear-gradient-6);}.cls-7{fill:url(#linear-gradient-7);}.cls-8{fill:url(#linear-gradient-8);}.cls-9{fill:url(#linear-gradient-9);}.cls-10{fill:url(#linear-gradient-10);}.cls-11{fill:url(#linear-gradient-11);}.cls-12{fill:url(#linear-gradient-12);}.cls-13{fill:url(#linear-gradient-13);}.cls-14{fill:url(#linear-gradient-14);}.cls-15{fill:url(#linear-gradient-15);}.cls-16{fill:url(#linear-gradient-16);}</style>
    <linearGradient id="linear-gradient" x1="79.75" y1="220.81" x2="305.36" y2="71.46" gradientUnits="userSpaceOnUse" gradientTransform="matrix(1, 0, 0, 1, -33, 0)">
      <stop offset="0.2" stop-color="#a53d3c"/>
      <stop offset="0.8" stop-color="#dba85f"/>
    </linearGradient>
    <linearGradient id="linear-gradient-2" x1="55.27" y1="183.82" x2="280.88" y2="34.47" gradientTransform="matrix(1, 0, 0, 1, -33, 0)" xlink:href="#linear-gradient"/>
    <linearGradient id="linear-gradient-3" x1="36.5" y1="155.46" x2="262.11" y2="6.11" gradientTransform="matrix(1, 0, 0, 1, -33, 0)" xlink:href="#linear-gradient"/>
    <linearGradient id="linear-gradient-4" x1="39.35" y1="159.78" x2="264.96" y2="10.43" gradientTransform="matrix(1, 0, 0, 1, -33, 0)" xlink:href="#linear-gradient"/>
    <linearGradient id="linear-gradient-5" x1="91.36" y1="238.34" x2="316.97" y2="89" gradientTransform="matrix(1, 0, 0, 1, -33, 0)" xlink:href="#linear-gradient"/>
    <linearGradient id="linear-gradient-6" x1="44.23" y1="167.14" x2="269.84" y2="17.8" gradientTransform="matrix(1, 0, 0, 1, -33, 0)" xlink:href="#linear-gradient"/>
    <linearGradient id="linear-gradient-7" x1="23.75" y1="136.21" x2="249.36" y2="-13.14" gradientTransform="matrix(1, 0, 0, 1, -33, 0)" xlink:href="#linear-gradient"/>
    <linearGradient id="linear-gradient-8" x1="48.08" y1="172.97" x2="273.69" y2="23.62" gradientTransform="matrix(1, 0, 0, 1, -33, 0)" xlink:href="#linear-gradient"/>
    <linearGradient id="linear-gradient-9" x1="62.96" y1="195.44" x2="288.57" y2="46.09" gradientTransform="matrix(1, 0, 0, 1, -33, 0)" xlink:href="#linear-gradient"/>
    <linearGradient id="linear-gradient-10" x1="92.36" y1="239.86" x2="317.97" y2="90.51" gradientTransform="matrix(1, 0, 0, 1, -33, 0)" xlink:href="#linear-gradient"/>
    <linearGradient id="linear-gradient-11" x1="64.5" y1="197.76" x2="290.11" y2="48.42" gradientTransform="matrix(1, 0, 0, 1, -33, 0)" xlink:href="#linear-gradient"/>
  </defs>
  <g id="Layer_2" data-name="Layer 2" transform="matrix(1, 0, 0, 1, 1, 8)">
    <g id="Layer_1-2" data-name="Layer 1">
      <path class="cls-1" d="M 115.45 218.11 C 111.551 217.937 109.302 213.608 111.401 210.318 C 112.29 208.925 113.8 208.053 115.45 207.98 C 149.153 208.106 180.599 191.054 198.88 162.74 L 185.07 134.58 L 185.73 132.58 C 192.33 112.815 190.54 91.21 180.78 72.8 C 179.072 69.29 181.804 65.249 185.698 65.525 C 187.37 65.643 188.876 66.581 189.72 68.03 C 200.461 88.261 202.72 111.932 196 133.83 L 210.47 163.33 L 209 165.7 C 189.16 198.361 153.665 218.247 115.45 218.11 Z"/>
      <path class="cls-2" d="M 147 158.55 C 143.105 158.556 140.664 154.343 142.606 150.967 C 142.998 150.285 143.544 149.704 144.2 149.27 C 175.602 128.373 172.607 81.318 138.808 64.571 C 136.885 63.618 134.901 62.793 132.87 62.1 C 129.197 60.78 128.33 55.979 131.31 53.458 C 132.644 52.329 134.466 51.967 136.13 52.5 C 179.206 67.138 190.283 122.918 156.068 152.904 C 154.082 154.644 151.981 156.25 149.78 157.71 C 148.957 158.259 147.989 158.551 147 158.55 Z"/>
      <path class="cls-3" d="M 105.14 172.79 L 89.62 191.13 L 86 189.88 C 79.922 187.818 74.088 185.098 68.6 181.77 C 27.117 156.742 14.456 102.42 40.6 61.63 C 47.262 51.025 56.092 41.95 66.51 35 L 83.51 5.22 L 85.71 4.57 C 112.65 -3.5 141.666 -0.864 166.71 11.93 C 166.83 11.987 166.947 12.051 167.06 12.12 C 169.559 13.612 170.44 16.807 169.06 19.37 C 167.594 22.084 164.231 23.136 161.48 21.74 C 139.711 10.621 114.57 8.049 91 14.53 L 74.9 42.69 L 73.73 43.44 C 64.165 49.59 56.065 57.762 50 67.38 C 27.186 103.035 38.244 150.484 74.47 172.38 C 78.174 174.617 82.058 176.544 86.08 178.14 L 100.46 161.14 L 103.55 161.56 C 106.64 161.97 116.33 162.48 124.03 159.91 C 128.009 158.44 132.087 161.829 131.37 166.009 C 131.016 168.076 129.52 169.762 127.51 170.36 C 119.11 173.18 109.88 173.1 105.14 172.79 Z"/>
      <path class="cls-4" d="M 106.74 46.05 C 110.322 48.234 110.197 53.477 106.515 55.487 C 106.028 55.753 105.504 55.942 104.96 56.05 C 90.623 58.976 78.101 67.627 70.29 80 C 54.579 104.88 62.455 137.817 87.72 152.9 C 90.333 154.455 91.147 157.861 89.52 160.43 C 87.865 163.011 84.455 163.805 81.83 162.22 C 51.339 144.004 41.85 104.242 60.83 74.22 C 70.261 59.291 85.37 48.851 102.67 45.31 C 104.071 45.037 105.524 45.301 106.74 46.05 Z"/>
      <path class="cls-5" d="M 173.83 160.21 C 166.942 156.036 157.982 158.117 153.64 164.9 C 151.776 167.811 151.063 171.312 151.64 174.72 C 138.2 181.72 124.64 184.72 109.45 183.32 C 106.405 183.005 103.676 185.207 103.34 188.25 C 103.051 191.292 105.296 193.986 108.34 194.25 C 125.89 195.89 141.98 192.33 157.49 184.07 C 157.776 184.288 158.073 184.492 158.38 184.68 C 165.268 188.816 174.195 186.746 178.56 180 C 182.808 173.243 180.674 164.316 173.83 160.21 Z M 169.04 174.21 C 168.013 175.816 165.894 176.313 164.26 175.33 C 162.625 174.358 162.114 172.228 163.13 170.62 C 164.164 169.017 166.282 168.522 167.92 169.5 C 169.556 170.49 170.046 172.639 169 174.24 L 169.04 174.21 Z"/>
      <path class="cls-6" d="M 153.69 206.37 C 152.69 203.499 149.593 201.938 146.69 202.84 C 117.932 212.003 86.618 208.311 60.78 192.71 C 12.4 163.44 -2.51 101.06 27.47 53.62 C 31.818 46.765 36.956 40.445 42.78 34.79 C 49.606 37.868 57.657 35.487 61.71 29.19 C 66.069 22.305 63.896 13.18 56.9 9 C 49.875 4.763 40.755 6.871 36.3 13.76 C 33.832 17.668 33.393 22.523 35.12 26.81 C 28.58 33.117 22.831 40.196 18 47.89 C 1.966 72.996 -3.143 103.553 3.85 132.51 C 10.79 161.605 29.179 186.668 54.85 202.02 C 83.498 219.313 118.21 223.416 150.1 213.28 C 153.002 212.366 154.61 209.27 153.69 206.37 Z M 45.82 19.54 C 46.929 17.793 49.235 17.259 51 18.34 C 52.766 19.39 53.322 21.689 52.23 23.43 C 51.108 25.192 48.782 25.73 47 24.64 C 45.25 23.569 44.719 21.271 45.82 19.54 Z"/>
      <path class="cls-7" d="M 173.72 33.44 C 168.824 30.526 162.676 30.745 158 34 C 138.876 23.398 116.471 20.351 95.21 25.46 C 92.216 26.107 90.325 29.072 91 32.06 C 91.779 35.014 94.785 36.795 97.75 36.06 C 116.141 31.644 135.516 34.236 152.1 43.33 C 151.29 48.847 153.883 54.309 158.67 57.17 C 165.354 61.202 174.033 59.196 178.27 52.64 C 182.407 46.097 180.354 37.431 173.72 33.44 Z M 168.81 46.89 C 167.906 48.311 166.035 48.754 164.59 47.89 C 163.177 47.028 162.73 45.184 163.59 43.77 C 164.479 42.348 166.345 41.903 167.78 42.77 C 169.233 43.6 169.702 45.474 168.81 46.89 Z"/>
      <path class="cls-8" d="M 144.86 121.78 C 146.181 123.506 146.273 125.877 145.09 127.7 C 143.624 130.004 141.911 132.14 139.98 134.07 L 139.9 134.14 C 135.529 138.499 130.124 141.678 124.19 143.38 C 120.395 144.484 116.45 144.983 112.5 144.86 C 103.226 144.559 94.401 140.8 87.76 134.32 C 83.159 129.908 79.794 124.367 78 118.25 C 69.886 90.755 94.579 64.787 122.448 71.508 C 132.428 73.914 140.971 80.334 146.06 89.25 C 147.946 92.811 145.309 97.087 141.28 97 L 141 97 C 139.14 96.926 137.453 95.888 136.55 94.26 C 126.215 76.735 100.784 76.97 90.774 94.683 C 90.384 95.372 90.026 96.079 89.7 96.8 C 88.352 99.695 87.571 102.821 87.4 106.01 C 86.73 116.982 92.911 127.227 102.93 131.75 C 105.813 133.098 108.931 133.869 112.11 134.02 C 118.798 134.428 125.391 132.284 130.56 128.02 C 132.213 126.665 133.691 125.11 134.96 123.39 C 135.274 122.987 135.564 122.566 135.83 122.13 C 136.387 121.262 137.177 120.569 138.11 120.13 C 137.846 120.625 137.712 121.179 137.72 121.74 C 137.574 124.507 140.479 126.395 142.948 125.138 C 144.216 124.492 144.985 123.161 144.91 121.74 L 144.86 121.78 Z"/>
      <path class="cls-9" d="M 141.26 109.3 C 134.379 109.3 128.8 114.879 128.8 121.76 C 128.792 123.966 129.383 126.133 130.51 128.03 C 132.747 131.848 136.834 134.202 141.26 134.22 C 150.852 134.22 156.847 123.837 152.051 115.53 C 149.825 111.675 145.712 109.3 141.26 109.3 Z M 137.67 121.76 C 137.662 121.199 137.796 120.645 138.06 120.15 C 139.297 117.679 142.746 117.474 144.267 119.781 C 144.654 120.369 144.86 121.057 144.86 121.76 C 145.006 124.527 142.101 126.415 139.632 125.158 C 138.364 124.512 137.595 123.181 137.67 121.76 Z"/>
      <path class="cls-10" d="M 218.94 120 C 207.963 120 201.102 131.883 206.59 141.39 C 212.079 150.897 225.801 150.897 231.29 141.39 C 232.541 139.222 233.2 136.763 233.2 134.26 C 233.206 126.382 226.818 119.994 218.94 120 Z M 218.94 137.46 C 216.477 137.46 214.937 134.793 216.169 132.66 C 217.4 130.527 220.48 130.527 221.711 132.66 C 221.992 133.146 222.14 133.698 222.14 134.26 C 222.118 136.012 220.692 137.42 218.94 137.42 L 218.94 137.46 Z"/>
      <path class="cls-11" d="M 214 122.21 C 215.198 121.918 216.427 121.767 217.66 121.76 C 219.879 121.761 222.072 122.238 224.09 123.16 C 228.185 92.889 219.469 62.282 200.04 38.71 C 197.561 35.704 192.758 36.508 191.394 40.158 C 190.761 41.852 191.08 43.755 192.23 45.15 C 209.944 66.662 217.84 94.609 214 122.21 Z"/>
    </g>
  </g>
</svg>