<svg width="512" height="512" version="1.1" viewBox="0 0 384 384" xmlns="http://www.w3.org/2000/svg"><defs><clipPath><path d="m111 119h177v23h-177z"/></clipPath><clipPath><path d="m177 130h45v89h-45z"/></clipPath><clipPath><path d="m111 207h177v89h-177z"/></clipPath><clipPath id="a"><rect width="384" height="384"/></clipPath><g clip-path="url(#a)"></g></defs><path d="m158.18 263.77h67.652v54.723h-67.652z" fill="#262833"/><path d="m158.07 264.17h67.852v54.168z" fill="#171717"/><path d="m23.996 55.281h336.01c4.5391 0 8.2188 3.4648 8.2188 7.7422v193.58c0 4.2774-3.6797 7.7461-8.2188 7.7461h-336.01c-4.5352 0-8.2148-3.4688-8.2148-7.7461v-193.58c0-4.2773 3.6797-7.7422 8.2148-7.7422z"/><path d="m132.2 317.36h119.6c2.5781 0 4.6641 1.9688 4.6641 4.3984v2.5664c0 2.4258-2.0859 4.3945-4.6641 4.3945h-119.6c-2.5781 0-4.6641-1.9688-4.6641-4.3945v-2.5664c0-2.4297 2.0859-4.3984 4.6641-4.3984z" fill="#171717"/><path d="m23.996 59.781h336.01c4.5391 0 8.2187 3.4648 8.2187 7.7422v193.58c0 4.2774-3.6797 7.7461-8.2187 7.7461h-336.01c-4.5352 0-8.2148-3.4688-8.2148-7.7461v-193.58c0-4.2773 3.6797-7.7422 8.2148-7.7422z" opacity=".3"/><rect x="24.14" y="63.993" width="335.73" height="191.64" rx="3.7555" ry="3.7555" fill="#367bf0"/><path d="m351.46 139.52c-97.335 56.359-193.9 113.35-277.19 161.69h277.19zm-39.457 74.583v57.739h-99.145z" opacity=".3" stroke-width=".87894"/><path d="m351.46 132.02c-97.335 56.359-193.9 113.35-277.19 161.69h277.19zm-39.457 74.583v57.739h-99.145z" fill="#fc4" stroke-width=".87894"/><path d="m335.83 141.09-2.6952 1.5725 4.7175 8.0753 2.6918-1.5725zm-10.771 6.2866-2.6918 1.5725 4.7175 8.0753 2.6884-1.5725zm-10.767 6.2865-2.6918 1.5725 9.4311 16.154 2.6918-1.5725zm-10.771 6.2899-2.6918 1.5691 4.7175 8.0788 2.6918-1.5725zm-10.767 6.2866-2.6918 1.5691 4.7141 8.0788 2.6952-1.5725zm-10.767 6.2865-2.6918 1.5725 9.4311 16.151 2.6918-1.5725zm-10.771 6.2865-2.6918 1.5725 4.7175 8.0753 2.6918-1.5691zm-10.767 6.2899-2.6918 1.5691 4.7141 8.0788 2.6918-1.5725zm-10.767 6.2866-2.6918 1.5691 9.4285 16.154 2.6952-1.5725zm-10.771 6.2865-2.6918 1.5725 4.7175 8.0753 2.6918-1.5725zm-10.767 6.2865-2.6918 1.5725 4.7141 8.0753 2.6952-1.5691zm-10.767 6.2899-2.6952 1.5691 9.4311 16.154 2.6918-1.5725zm-10.771 6.2866-2.6918 1.5691 4.714 8.0788 2.6952-1.5725zm-10.767 6.2865-2.6918 1.5725 4.7141 8.0753 2.6918-1.5725zm-10.771 6.2866-2.6918 1.5725 9.4311 16.154 2.6918-1.5725zm-10.767 6.2899-2.6918 1.5691 4.7141 8.0788 2.6918-1.5725zm-10.767 6.2865-2.6918 1.5691 4.7141 8.0788 2.6918-1.5725zm-10.771 6.2865-2.6918 1.5725 9.4311 16.151 2.6918-1.5725zm-10.767 6.2866-2.6918 1.5725 4.7141 8.0753 2.6952-1.5691zm-10.767 6.2865-2.6952 1.5725 4.7175 8.0788 2.6918-1.5725zm-10.771 6.2899-2.6918 1.5691 9.4311 16.154 2.6918-1.5725zm-10.767 6.2865-2.6918 1.5725 4.7141 8.0753 2.6918-1.5725zm-10.771 6.2866-2.6883 1.5725 4.7141 8.0753 2.6918-1.5725z" fill="#fff" stroke-width=".87894"/><path d="m91.956 132.17c-8.9862 0-17.174 2.795-23.864 8.2866l4.3931 12.681c5.5914-3.894 11.083-5.8916 16.075-5.8916 6.8894 0 11.282 3.6947 11.282 9.0864 0 8.5868-11.083 18.971-29.155 33.948v12.182h48.924v-14.977h-23.763c14.677-11.682 21.965-22.865 21.965-33.848 0-12.98-10.183-21.467-25.859-21.467zm30.851 21.368 18.173 24.861-17.873 24.063h18.171l7.4897-11.583 7.0884 11.583h19.77l-17.572-24.662 18.97-24.262h-19.17l-7.8867 12.081-7.2891-12.081z" opacity=".3"/><path transform="scale(.75)" d="m122.61 166.22c-11.982 0-22.899 3.7267-31.818 11.049l5.8574 16.908c7.4552-5.192 14.777-7.8555 21.434-7.8555 9.1859 0 15.043 4.9263 15.043 12.115 0 11.449-14.777 25.294-38.873 45.264v16.242h65.232v-19.969h-31.684c19.57-15.576 29.287-30.487 29.287-45.131 0-17.307-13.577-28.623-34.479-28.623zm41.135 28.49 24.23 33.148-23.83 32.084h24.229l9.9863-15.443 9.4512 15.443h26.359l-23.43-32.883 25.293-32.35h-25.561l-10.516 16.107-9.7188-16.107h-26.494z" fill="#fff"/></svg>
