<svg width="512" height="512" version="1.1" viewBox="0 0 135.47 135.47" xmlns="http://www.w3.org/2000/svg"><g fill-rule="evenodd"><path d="m73.383 5.5568c-5.9463 2.558e-4 -11.285 2.7737-14.967 7.0094-7.2813 0.70295-13.273 6.3732-14.473 13.494-4.4512 3.4221-7.4182 8.7354-7.4182 14.617v1.463c0 5.4262 2.5373 10.356 6.4177 13.783v9.9219l-16.625 18.18c-0.27398 0.29966-0.53401 0.61177-0.77928 0.93534-3.0397 4.01-5.3471 8.5915-5.9454 13.852-0.59828 5.2604 0.95994 10.865 3.6778 14.891 5.073 7.5137 12.223 10.586 19.428 12.789 7.2043 2.2028 15.016 3.2085 22.924 3.3693 15.815 0.32153 31.764-0.59723 43.61-12.58 3.6975-3.7404 6.741-9.597 6.7675-15.832 0.0266-6.2351-2.5478-11.815-6.0901-16.488-0.25571-0.33772-0.5275-0.66297-0.81442-0.97462l-16.401-17.793v-10.426c3.7753-3.4211 6.2286-8.2868 6.2286-13.627v-1.463c0-5.1302-2.2455-9.8443-5.7676-13.242 0.06233-0.63033 0.19531-1.2427 0.19534-1.8867 3.29e-4 -10.86-9.0714-19.992-19.969-19.992z" fill="#fff" opacity=".3" stop-color="#000000" stroke="#000" stroke-linecap="round" stroke-linejoin="round" stroke-miterlimit="16.8" stroke-width="5.2918" style="paint-order:stroke fill markers"/><path d="m72.882 13.994c-3.7218 1.66e-4 -6.7387 3.0281-6.7386 6.7632 1.65e-4 3.7349 3.017 6.7625 6.7386 6.7627 3.7218 1.11e-4 6.7389-3.0276 6.7391-6.7627 1.1e-4 -3.7353-3.0172-6.7633-6.7391-6.7632zm-15.489 6.4261c-1.654 1.11e-4 -2.9948 1.3457-2.9949 3.0056 1.1e-4 1.6599 1.3409 3.0055 2.9949 3.0056 1.6542 1.66e-4 2.9953-1.3455 2.9954-3.0056-1.1e-4 -1.6601-1.3412-3.0058-2.9954-3.0056zm-2.3779 14.977c-2.9145 0-5.2607 2.3546-5.2607 5.2795v1.464c0 2.9249 2.3462 5.2795 5.2607 5.2795h1.157v23.562l-20.09 21.97c-4.0611 5.3574-4.2379 9.8065-1.8472 13.347 8.9249 13.219 53.63 13.779 65.59 1.6816 3.7329-3.7762 4.2754-8.7861-0.457-15.029l-19.901-21.592v-23.94h0.96823c2.9145 0 5.2607-2.3546 5.2607-5.2795v-1.464c0-2.9249-2.3462-5.2795-5.2607-5.2795z" style="paint-order:stroke fill markers"/><path d="m55.734 85.261-11.801 13.584c-1.2624 1.6948-1.5133 2.7555-1.5276 2.8578 0.0014 2e-3 0.0027 3e-3 0.0036 4e-3l5.17e-4 5.2e-4h5.17e-4l5.17e-4 5.2e-4h0.001033v-5.2e-4h5.17e-4v-0.00103c5.34e-4 -3e-3 5.53e-4 -8e-3 1e-3 -0.0103l5.16e-4 -5.2e-4v-0.00103h5.17e-4v-5.2e-4h0.001034v5.2e-4h0.001033c0.0015 1e-3 0.0038 4e-3 0.0067 9e-3 0.03827 0.0567 3.0768 2.6369 7.5527 4.0055 4.562 1.395 10.704 2.28 16.906 2.4061 6.1207 0.12439 12.473-0.68342 17.599-1.9488s9.1515-3.3822 9.8224-4.0608c0.17662-0.17867 0.2931-0.27914 0.36743-0.33074-1.9e-4 -5e-3 -2.2e-5 -0.01 0-0.015-2e-5 5e-3 -2.29e-4 8e-3 -5.17e-4 9e-3v5.1e-4h-5.16e-4l-5.17e-4 -5.1e-4c-0.01461-0.0341-0.16232-1.0343-1.4945-2.849l-4.5352-4.9221c-4.9308 1.3999-10.619 2.4468-16.727 1.6247-6.1472-0.82738-10.04-4.1742-12.545-6.8556-1.5799-1.6909-2.6424-2.7447-3.6345-3.5058z" fill="#fff" style="paint-order:stroke fill markers"/><path d="m72.882 13.994c-3.7218 1.66e-4 -6.7387 3.0281-6.7386 6.7632 1.65e-4 3.7349 3.017 6.7625 6.7386 6.7627 3.7218 1.11e-4 6.7389-3.0276 6.7391-6.7627 1.1e-4 -3.7353-3.0172-6.7633-6.7391-6.7632zm-15.489 6.4261c-1.654 1.11e-4 -2.9948 1.3457-2.9949 3.0056 1.1e-4 1.6599 1.3409 3.0055 2.9949 3.0056 1.6542 1.66e-4 2.9953-1.3455 2.9954-3.0056-1.1e-4 -1.6601-1.3412-3.0058-2.9954-3.0056zm-2.3779 14.977c-2.9145 0-5.2607 2.3546-5.2607 5.2795v1.464c0 2.9249 2.3462 5.2795 5.2607 5.2795h1.157v23.562l-20.09 21.97c-4.0611 5.3574-4.2379 9.8065-1.8472 13.347 8.9249 13.219 53.63 13.779 65.59 1.6816 3.7329-3.7762 4.2754-8.7861-0.457-15.029l-19.901-21.592v-23.94h0.96823c2.9145 0 5.2607-2.3546 5.2607-5.2795v-1.464c0-2.9249-2.3462-5.2795-5.2607-5.2795z" style="paint-order:stroke fill markers"/><path d="m55.734 85.261-11.801 13.584c-1.2624 1.6948-1.5133 2.7555-1.5276 2.8578 0.0014 2e-3 0.0027 3e-3 0.0036 4e-3l5.17e-4 5.2e-4h5.17e-4l5.17e-4 5.2e-4h0.001033v-5.2e-4h5.17e-4v-0.00103c5.34e-4 -3e-3 5.53e-4 -8e-3 1e-3 -0.0103l5.16e-4 -5.2e-4v-0.00103h5.17e-4v-5.2e-4h0.001034v5.2e-4h0.001033c0.0015 1e-3 0.0038 4e-3 0.0067 9e-3 0.03827 0.0567 3.0768 2.6369 7.5527 4.0055 4.562 1.395 10.704 2.28 16.906 2.4061 6.1207 0.12439 12.473-0.68342 17.599-1.9488s9.1515-3.3822 9.8224-4.0608c0.17662-0.17867 0.2931-0.27914 0.36743-0.33074-1.9e-4 -5e-3 -2.2e-5 -0.01 0-0.015-2e-5 5e-3 -2.29e-4 8e-3 -5.17e-4 9e-3v5.1e-4h-5.16e-4l-5.17e-4 -5.1e-4c-0.01461-0.0341-0.16232-1.0343-1.4945-2.849l-4.5352-4.9221c-4.9308 1.3999-10.619 2.4468-16.727 1.6247-6.1472-0.82738-10.04-4.1742-12.545-6.8556-1.5799-1.6909-2.6424-2.7447-3.6345-3.5058z" fill="#fff" style="paint-order:stroke fill markers"/><path d="m73.383 5.5568c-5.9463 2.558e-4 -11.285 2.7737-14.967 7.0094-7.2813 0.70295-13.273 6.3732-14.473 13.494-4.4512 3.4221-7.4182 8.7354-7.4182 14.617v1.463c0 5.4262 2.5373 10.356 6.4177 13.783v9.9219l-16.625 18.18c-0.27398 0.29966-0.53401 0.61177-0.77928 0.93534-3.0397 4.01-5.3471 8.5915-5.9454 13.852-0.59828 5.2604 0.95994 10.865 3.6778 14.891 5.073 7.5137 12.223 10.586 19.428 12.789 7.2043 2.2028 15.016 3.2085 22.924 3.3693 15.815 0.32153 31.764-0.59723 43.61-12.58 3.6975-3.7404 6.741-9.597 6.7675-15.832 0.0266-6.2351-2.5478-11.815-6.0901-16.488-0.25571-0.33772-0.5275-0.66297-0.81442-0.97462l-16.401-17.793v-10.426c3.7753-3.4211 6.2286-8.2868 6.2286-13.627v-1.463c0-5.1302-2.2455-9.8443-5.7676-13.242 0.06233-0.63033 0.19531-1.2427 0.19534-1.8867 3.29e-4 -10.86-9.0714-19.992-19.969-19.992z" fill="#fff" fill-rule="nonzero" stop-color="#000000" stroke-linecap="round" stroke-linejoin="round" stroke-miterlimit="16.8" style="paint-order:stroke fill markers"/><path d="m72.882 13.994c-3.7218 1.66e-4 -6.7387 3.0281-6.7386 6.7632 1.65e-4 3.7349 3.017 6.7625 6.7386 6.7627 3.7218 1.11e-4 6.7389-3.0276 6.7391-6.7627 1.1e-4 -3.7353-3.0172-6.7633-6.7391-6.7632zm-15.489 6.4261c-1.654 1.11e-4 -2.9948 1.3457-2.9949 3.0056 1.1e-4 1.6599 1.3409 3.0055 2.9949 3.0056 1.6542 1.66e-4 2.9953-1.3455 2.9954-3.0056-1.1e-4 -1.6601-1.3412-3.0058-2.9954-3.0056zm-2.3779 14.977c-2.9145 0-5.2607 2.3546-5.2607 5.2795v1.464c0 2.9249 2.3462 5.2795 5.2607 5.2795h1.157v23.562l-20.09 21.97c-4.0611 5.3574-4.2379 9.8065-1.8472 13.347 8.9249 13.219 53.63 13.779 65.59 1.6816 3.7329-3.7762 4.2754-8.7861-0.457-15.029l-19.901-21.592v-23.94h0.96823c2.9145 0 5.2607-2.3546 5.2607-5.2795v-1.464c0-2.9249-2.3462-5.2795-5.2607-5.2795z" style="paint-order:stroke fill markers"/><path d="m55.734 85.261-11.801 13.584c-1.2624 1.6948-1.5133 2.7555-1.5276 2.8578 0.0014 2e-3 0.0027 3e-3 0.0036 4e-3l5.17e-4 5.2e-4h5.17e-4l5.17e-4 5.2e-4h0.001033v-5.2e-4h5.17e-4v-0.00103c5.34e-4 -3e-3 5.53e-4 -8e-3 1e-3 -0.0103l5.16e-4 -5.2e-4v-0.00103h5.17e-4v-5.2e-4h0.001034v5.2e-4h0.001033c0.0015 1e-3 0.0038 4e-3 0.0067 9e-3 0.03827 0.0567 3.0768 2.6369 7.5527 4.0055 4.562 1.395 10.704 2.28 16.906 2.4061 6.1207 0.12439 12.473-0.68342 17.599-1.9488s9.1515-3.3822 9.8224-4.0608c0.17662-0.17867 0.2931-0.27914 0.36743-0.33074-1.9e-4 -5e-3 -2.2e-5 -0.01 0-0.015-2e-5 5e-3 -2.29e-4 8e-3 -5.17e-4 9e-3v5.1e-4h-5.16e-4l-5.17e-4 -5.1e-4c-0.01461-0.0341-0.16232-1.0343-1.4945-2.849l-4.5352-4.9221c-4.9308 1.3999-10.619 2.4468-16.727 1.6247-6.1472-0.82738-10.04-4.1742-12.545-6.8556-1.5799-1.6909-2.6424-2.7447-3.6345-3.5058z" fill="#fff" style="paint-order:stroke fill markers"/><path d="m72.882 13.994c-3.7218 1.66e-4 -6.7387 3.0281-6.7386 6.7632 1.65e-4 3.7349 3.017 6.7625 6.7386 6.7627 3.7218 1.11e-4 6.7389-3.0276 6.7391-6.7627 1.1e-4 -3.7353-3.0172-6.7633-6.7391-6.7632zm-15.489 6.4261c-1.654 1.11e-4 -2.9948 1.3457-2.9949 3.0056 1.1e-4 1.6599 1.3409 3.0055 2.9949 3.0056 1.6542 1.66e-4 2.9953-1.3455 2.9954-3.0056-1.1e-4 -1.6601-1.3412-3.0058-2.9954-3.0056zm-2.3779 14.977c-2.9145 0-5.2607 2.3546-5.2607 5.2795v1.464c0 2.9249 2.3462 5.2795 5.2607 5.2795h1.157v23.562l-20.09 21.97c-4.0611 5.3574-4.2379 9.8065-1.8472 13.347 8.9249 13.219 53.63 13.779 65.59 1.6816 3.7329-3.7762 4.2754-8.7861-0.457-15.029l-19.901-21.592v-23.94h0.96823c2.9145 0 5.2607-2.3546 5.2607-5.2795v-1.464c0-2.9249-2.3462-5.2795-5.2607-5.2795z" style="paint-order:stroke fill markers"/><path d="m55.734 85.261-11.801 13.584c-1.2624 1.6948-1.5133 2.7555-1.5276 2.8578 0.0014 2e-3 0.0027 3e-3 0.0036 4e-3l5.17e-4 5.2e-4h5.17e-4l5.17e-4 5.2e-4h0.001033v-5.2e-4h5.17e-4v-0.00103c5.34e-4 -3e-3 5.53e-4 -8e-3 1e-3 -0.0103l5.16e-4 -5.2e-4v-0.00103h5.17e-4v-5.2e-4h0.001034v5.2e-4h0.001033c0.0015 1e-3 0.0038 4e-3 0.0067 9e-3 0.03827 0.0567 3.0768 2.6369 7.5527 4.0055 4.562 1.395 10.704 2.28 16.906 2.4061 6.1207 0.12439 12.473-0.68342 17.599-1.9488s9.1515-3.3822 9.8224-4.0608c0.17662-0.17867 0.2931-0.27914 0.36743-0.33074-1.9e-4 -5e-3 -2.2e-5 -0.01 0-0.015-2e-5 5e-3 -2.29e-4 8e-3 -5.17e-4 9e-3v5.1e-4h-5.16e-4l-5.17e-4 -5.1e-4c-0.01461-0.0341-0.16232-1.0343-1.4945-2.849l-4.5352-4.9221c-4.9308 1.3999-10.619 2.4468-16.727 1.6247-6.1472-0.82738-10.04-4.1742-12.545-6.8556-1.5799-1.6909-2.6424-2.7447-3.6345-3.5058z" fill="#fff" style="paint-order:stroke fill markers"/></g></svg>
