<svg version="1.1" viewBox="0 0 512 512" xmlns="http://www.w3.org/2000/svg"><path d="m256 21c-15.459 0-31.241 6.1976-42.768 17.725l-157.04 157.04c-23.064 23.064-23.064 62.471 0 85.535a51.263 51.263 0 0 0 36.244 15.014h36.059v134.21c0 25.56 16.774 42.936 29.461 50.521 12.687 7.5858 24.727 9.9609 37.225 9.9609h121.63c12.498 0 24.537-2.3751 37.225-9.9609 12.687-7.5858 29.463-24.961 29.463-50.521v-134.21h36.057a51.263 51.263 0 0 0 36.244-15.014c23.072-23.072 23.071-62.466 0-85.537l-157.04-157.03c-11.527-11.527-27.309-17.725-42.768-17.725z" color="#000000" fill="#c74227" opacity=".3" stroke="#000" stroke-linecap="round" stroke-linejoin="round" stroke-width="20"/><path d="m256 21c-15.459 0-31.241 6.1976-42.768 17.725l-157.04 157.04c-23.064 23.064-23.064 62.471 0 85.535a51.263 51.263 0 0 0 36.244 15.014h36.059v134.21c0 25.56 16.774 42.936 29.461 50.521 12.687 7.5858 24.727 9.9609 37.225 9.9609h121.63c12.498 0 24.537-2.3751 37.225-9.9609 12.687-7.5858 29.463-24.961 29.463-50.521v-134.21h36.057a51.263 51.263 0 0 0 36.244-15.014c23.072-23.072 23.071-62.466 0-85.537l-157.04-157.03c-11.527-11.527-27.309-17.725-42.768-17.725z" color="#000000" fill="#c74227" stroke-linecap="round" stroke-linejoin="round" stroke-width="102.52" style="-inkscape-stroke:none"/><path d="m256 72.258c-2.3582 0-4.7161 0.90407-6.5231 2.7111l-157.04 157.04c-3.614 3.614-3.614 9.4322 0 13.046h87.314v185.47c0 5.1109 6.8814 9.2252 15.429 9.2252h121.63c8.5475 0 15.429-4.1143 15.429-9.2252v-185.47h87.314c3.614-3.614 3.614-9.4344 0-13.048l-157.04-157.03c-1.807-1.807-4.1649-2.7111-6.5231-2.7111z" color="#000000" stroke-linecap="round" stroke-linejoin="round" stroke-width="22.868" style="-inkscape-stroke:none"/></svg>
