<svg width="512" height="512" version="1.1" viewBox="0 0 135.47 135.47" xmlns="http://www.w3.org/2000/svg"><g fill-rule="evenodd" stroke-linecap="round" stroke-linejoin="round" stroke-miterlimit="16.8"><path d="m84.969 8.2031a13.23 13.23 0 0 0-7.4321 2.3182c-0.3095-0.12128-0.60461-0.31076-0.91571-0.41961-1.4487-0.50689-5.0979-1.5564-8.4258-1.7348-3.3279-0.17835-7.354-0.11928-16.065-0.083716-14.001 0.057167-15.793-0.30991-20.117 0.73639-11.64 2.8162-20.995 12.356-23.234 24.195-0.63612 3.3632-0.25941 2.3199-0.28319 2.9998-0.023774 0.6799-0.041324 1.4742-0.058394 2.4334-0.03414 1.9185-0.062322 4.4661-0.084233 7.4709-0.043823 6.0095-0.064729 13.82-0.064596 21.635 1.325e-4 7.8145 0.022635 15.623 0.066663 21.633 0.022014 3.0048 0.04951 5.5538 0.083716 7.4724 0.017103 0.95932 0.035114 1.754 0.058911 2.434 0.023796 0.67994-0.35188-0.36143 0.28319 2.9977 1.5431 8.1623 5.9391 15.081 12.982 19.736 3.9787 2.6301 9.1608 4.4402 13.903 5.0198a13.23 13.23 0 0 0 0.002067 0c2.5236 0.30794 1.5339 0.10974 2.0019 0.12093 0.46803 0.0112 1.0263 0.02055 1.6836 0.02945 1.3147 0.0177 3.0051 0.03323 4.8007 0.04083l6.3965 0.02532a13.23 13.23 0 0 0 7.2812-2.3223c0.34481 0.13617 0.67469 0.33982 1.0216 0.46095 1.4508 0.5065 5.0949 1.5525 8.4217 1.7306 3.3268 0.17814 7.351 0.11977 16.061 0.08423 14.002-0.0572 15.795 0.30928 20.117-0.73639 11.639-2.8162 20.995-12.355 23.234-24.195 0.63809-3.3736 0.25949-2.3205 0.28318-2.9998 0.0237-0.67931 0.04191-1.473 0.05891-2.4319 0.034-1.9178 0.05975-4.4664 0.08165-7.4709 0.0438-6.0089 0.06667-13.818 0.06667-21.633s-0.02287-15.624-0.06667-21.633c-0.0219-3.0045-0.04765-5.5525-0.08165-7.4703-0.017-0.95892-0.03521-1.7526-0.05891-2.4319s0.35491 0.37375-0.28318-2.9998c-2.2504-11.897-11.585-21.456-23.324-24.209-3.6068-0.84594-5.457-0.65405-11.252-0.72037h-0.002067l-7.1401-0.082166z" fill="#fff" opacity=".3" stop-color="#000000" stroke="#000" stroke-width="5.2918" style="paint-order:stroke fill markers"/><path d="m84.969 8.2031a13.23 13.23 0 0 0-7.4321 2.3182c-0.3095-0.12128-0.60461-0.31076-0.91571-0.41961-1.4487-0.50689-5.0979-1.5564-8.4258-1.7348-3.3279-0.17835-7.354-0.11928-16.065-0.083716-14.001 0.057167-15.793-0.30991-20.117 0.73639-11.64 2.8162-20.995 12.356-23.234 24.195-0.63612 3.3632-0.25941 2.3199-0.28319 2.9998-0.023774 0.6799-0.041324 1.4742-0.058394 2.4334-0.03414 1.9185-0.062322 4.4661-0.084233 7.4709-0.043823 6.0095-0.064729 13.82-0.064596 21.635 1.325e-4 7.8145 0.022635 15.623 0.066663 21.633 0.022014 3.0048 0.04951 5.5538 0.083716 7.4724 0.017103 0.95932 0.035114 1.754 0.058911 2.434 0.023796 0.67994-0.35188-0.36143 0.28319 2.9977 1.5431 8.1623 5.9391 15.081 12.982 19.736 3.9787 2.6301 9.1608 4.4402 13.903 5.0198a13.23 13.23 0 0 0 0.002067 0c2.5236 0.30794 1.5339 0.10974 2.0019 0.12093 0.46803 0.0112 1.0263 0.02055 1.6836 0.02945 1.3147 0.0177 3.0051 0.03323 4.8007 0.04083l6.3965 0.02532a13.23 13.23 0 0 0 7.2812-2.3223c0.34481 0.13617 0.67469 0.33982 1.0216 0.46095 1.4508 0.5065 5.0949 1.5525 8.4217 1.7306 3.3268 0.17814 7.351 0.11977 16.061 0.08423 14.002-0.0572 15.795 0.30928 20.117-0.73639 11.639-2.8162 20.995-12.355 23.234-24.195 0.63809-3.3736 0.25949-2.3205 0.28318-2.9998 0.0237-0.67931 0.04191-1.473 0.05891-2.4319 0.034-1.9178 0.05975-4.4664 0.08165-7.4709 0.0438-6.0089 0.06667-13.818 0.06667-21.633s-0.02287-15.624-0.06667-21.633c-0.0219-3.0045-0.04765-5.5525-0.08165-7.4703-0.017-0.95892-0.03521-1.7526-0.05891-2.4319s0.35491 0.37375-0.28318-2.9998c-2.2504-11.897-11.585-21.456-23.324-24.209-3.6068-0.84594-5.457-0.65405-11.252-0.72037h-0.002067l-7.1401-0.082166z" fill="#fff" stop-color="#000000" style="paint-order:stroke fill markers"/><path d="m84.818 21.431 7.1411 0.08193c5.7117 0.06543 7.3897 0.13995 8.3829 0.37291 6.9158 1.622 12.048 6.924 13.346 13.787 0.34719 1.8356 0.34719 62.318 0 64.153-1.2981 6.863-6.373 12.109-13.346 13.796-1.0976 0.26556-3.0793 0.30807-17.059 0.36515-17.442 0.0712-16.668 0.1126-20.069-1.0746-7.4753-2.6098-11.275-8.7611-12.822-20.755-0.71606-5.5524-0.77507-7.4414-0.86086-27.663l-0.08368-19.798 1.7761 1.7162c0.97689 0.94384 7.6539 7.5744 14.838 14.735l13.062 13.019v-11.413l-17.22-17.075c-9.471-9.3911-17.813-17.641-18.539-18.332l-1.3185-1.2575 0.07168 33.622c0.05097 23.898 0.13216 34.145 0.28107 35.43 1.1031 9.5209 3.5428 15.393 7.6873 18.503l0.52153 0.39128-6.3971-0.0269c-3.5184-0.0149-6.6412-0.0572-6.9395-0.0936-3.3274-0.40671-5.6601-1.2375-8.2113-2.9239-3.6562-2.4169-6.4312-6.6698-7.2795-11.157-0.3484-1.8429-0.34942-62.32-0.0011-64.161 1.2981-6.863 6.3727-12.109 13.346-13.796 1.0975-0.26555 3.0793-0.30771 17.059-0.36478 17.444-0.07122 16.673-0.11266 20.069 1.0756 7.9176 2.7703 11.68 9.4052 13.102 23.104 0.47856 4.6116 0.65792 13.39 0.60203 29.471l-0.054329 15.64-29.559-29.436v11.379l17.22 17.075c9.471 9.3911 17.813 17.641 18.539 18.332l1.3185 1.2575-0.07165-33.622c-0.051008-23.898-0.13218-34.145-0.28108-35.43-1.1054-9.5405-3.5376-15.384-7.7082-18.519z" stroke-width="10" style="paint-order:stroke fill markers"/></g></svg>
