<svg width="512" height="512" version="1.1" viewBox="0 0 135.47 135.47" xmlns="http://www.w3.org/2000/svg"><path d="m101.17 8.2212c2.7855 0.10337 5.8967 0.63926 8.0316 1.8314 3.7954 2.1194 5.3086 4.01 7.6858 6.4316 4.0742 4.1503 7.3252 7.9823 9.0661 13.074 1.8363 5.3708 1.6051 9.0019 1.463 13.615-0.14211 4.6133-0.68605 9.576-1.6598 14.463-1.9163 9.6173-5.449 18.883-10.414 27.238-14.672 24.688-40.77 40.618-69.313 42.192a13.23 13.23 0 0 1-0.0021 0h-0.0015c-4.2347 0.23347-7.5532 0.34972-11.223-0.1664-3.6705-0.51621-7.5075-2.029-10.193-3.6153-2.9125-1.7203-3.0024-2.1783-4.1114-3.1678s-2.2812-2.0925-3.4354-3.2169-2.2673-2.2461-3.2618-3.3083c-0.49725-0.53114-0.95864-1.0372-1.4568-1.6294-0.49813-0.59215-0.87042-0.64984-2.1663-3.1796a13.23 13.23 0 0 1 0-2e-3c-3.0628-5.9809-3.2032-10.146 0.093523-16.344a13.23 13.23 0 0 1 0.0021 0c2.1757-4.0902 2.0177-2.9215 2.6272-3.6034 0.60954-0.6819 1.2755-1.3907 2.035-2.1854 1.5191-1.5894 3.3839-3.4781 5.2694-5.3516 1.8856-1.8735 3.771-3.7111 5.3459-5.1955 0.78747-0.7422 1.4824-1.3865 2.1658-1.9859 0.34169-0.29971 0.66805-0.58078 1.1312-0.94568 0.46316-0.3649-0.01305-0.6239 3.4664-2.0624 4.7168-1.9493 8.7504-1.9658 13.508 0.02377 3.4951 1.4616 3.1999 1.8343 3.8266 2.3378 0.62673 0.50356 1.1512 0.96492 1.7281 1.4862 1.1537 1.0426 2.4622 2.2948 3.975 3.791 0.16208 0.16029 0.18712 0.15368 0.34158 0.30076 8.6595-3.177 14.729-7.8231 19.315-14.709 0.75225-1.1297 3.8815-7.3028 4.4375-8.8258 0.0014-0.0038 6.33e-4 -0.0024 0.0021-0.0062-0.12506-0.12751-0.20345-0.21526-0.33021-0.34365-2.1886-2.2167-3.3465-3.3392-4.6912-4.9392-1.3447-1.6-3.211-5.3892-3.5507-6.5588-0.49837-1.7158-0.69888-7.2581-0.27957-9.0568 0.1475-0.63273 0.84524-2.8981 1.7715-4.4762s1.7324-2.4788 2.4903-3.3264c1.5158-1.6953 3.3009-3.4644 6.8611-7.045 3.4604-3.4803 5.2617-5.3053 6.9024-6.8006 1.6408-1.4953 5.5076-3.7893 7.2543-4.299 0.66246-0.19328 1.5888-0.33505 2.666-0.40618 0.80789-0.053342 1.6998-0.067013 2.6283-0.032556zm-18.597 50.568c0.47132 0.75935 0.45999 0.51276 0.38499 0.42581-0.05289-0.06131-0.25409-0.2803-0.38499-0.42581z" opacity=".3" stop-color="#000000" stroke="#000" stroke-linecap="round" stroke-linejoin="round" stroke-width="2.6458"/><path d="m101.17 8.2212c2.7855 0.10337 5.8967 0.63926 8.0316 1.8314 3.7954 2.1194 5.3086 4.01 7.6858 6.4316 4.0742 4.1503 7.3252 7.9823 9.0661 13.074 1.8363 5.3708 1.6051 9.0019 1.463 13.615-0.14211 4.6133-0.68605 9.576-1.6598 14.463-1.9163 9.6173-5.449 18.883-10.414 27.238-14.672 24.688-40.77 40.618-69.313 42.192a13.23 13.23 0 0 1-0.0021 0h-0.0015c-4.2347 0.23347-7.5532 0.34972-11.223-0.1664-3.6705-0.51621-7.5075-2.029-10.193-3.6153-2.9125-1.7203-3.0024-2.1783-4.1114-3.1678s-2.2812-2.0925-3.4354-3.2169-2.2673-2.2461-3.2618-3.3083c-0.49725-0.53114-0.95864-1.0372-1.4568-1.6294-0.49813-0.59215-0.87042-0.64984-2.1663-3.1796a13.23 13.23 0 0 1 0-2e-3c-3.0628-5.9809-3.2032-10.146 0.093523-16.344a13.23 13.23 0 0 1 0.0021 0c2.1757-4.0902 2.0177-2.9215 2.6272-3.6034 0.60954-0.6819 1.2755-1.3907 2.035-2.1854 1.5191-1.5894 3.3839-3.4781 5.2694-5.3516 1.8856-1.8735 3.771-3.7111 5.3459-5.1955 0.78747-0.7422 1.4824-1.3865 2.1658-1.9859 0.34169-0.29971 0.66805-0.58078 1.1312-0.94568 0.46316-0.3649-0.01305-0.6239 3.4664-2.0624 4.7168-1.9493 8.7504-1.9658 13.508 0.02377 3.4951 1.4616 3.1999 1.8343 3.8266 2.3378 0.62673 0.50356 1.1512 0.96492 1.7281 1.4862 1.1537 1.0426 2.4622 2.2948 3.975 3.791 0.16208 0.16029 0.18712 0.15368 0.34158 0.30076 8.6595-3.177 14.729-7.8231 19.315-14.709 0.75225-1.1297 3.8815-7.3028 4.4375-8.8258 0.0014-0.0038 6.33e-4 -0.0024 0.0021-0.0062-0.12506-0.12751-0.20345-0.21526-0.33021-0.34365-2.1886-2.2167-3.3465-3.3392-4.6912-4.9392-1.3447-1.6-3.211-5.3892-3.5507-6.5588-0.49837-1.7158-0.69888-7.2581-0.27957-9.0568 0.1475-0.63273 0.84524-2.8981 1.7715-4.4762s1.7324-2.4788 2.4903-3.3264c1.5158-1.6953 3.3009-3.4644 6.8611-7.045 3.4604-3.4803 5.2617-5.3053 6.9024-6.8006 1.6408-1.4953 5.5076-3.7893 7.2543-4.299 0.66246-0.19328 1.5888-0.33505 2.666-0.40618 0.80789-0.053342 1.6998-0.067013 2.6283-0.032556zm-18.597 50.568c0.47132 0.75935 0.45999 0.51276 0.38499 0.42581-0.05289-0.06131-0.25409-0.2803-0.38499-0.42581z" fill="#fff" stop-color="#000000" stroke-linecap="round" stroke-linejoin="round"/><path d="m45.298 113.86c24.053-1.3262 46.255-14.852 58.668-35.741 4.1685-7.0145 7.1919-14.927 8.8135-23.065 1.6282-8.1712 1.9161-17.519 0.65345-21.212-0.7657-2.2396-2.3539-4.3842-5.9887-8.0869-4.4236-4.5062-5.4723-5.0918-7.8671-4.3931-1.0505 0.30649-1.5813 0.79029-8.4797 7.7283-7.1076 7.1484-7.368 7.4396-7.6205 8.5228-0.22165 0.95085-0.20652 1.3105 0.09948 2.364 0.3414 1.1754 0.609 1.4938 4.9528 5.8934 2.5255 2.558 4.7491 4.9617 4.9413 5.3416 0.722 1.4273 0.34467 3.5121-1.5999 8.8393-1.1894 3.2584-3.9997 8.8386-5.8534 11.622-6.8083 10.225-16.609 17.268-29.449 21.163-4.3917 1.3324-4.4798 1.2932-10.521-4.6815-2.8351-2.8039-4.8324-4.6088-5.3305-4.8171-1.0146-0.42432-2.3274-0.42496-3.3513-0.0018-1.0149 0.41959-14.751 14.068-15.416 15.317-0.6049 1.1372-0.60447 2.919 8.1e-4 4.101 0.60581 1.1827 7.8397 8.2291 9.385 9.1419 3.4371 2.0301 6.0613 2.3992 13.962 1.9635z"/></svg>
