<svg version="1.1" viewBox="0 0 512 512" xmlns="http://www.w3.org/2000/svg"><path d="m151.02 124.56a131.23 131.23 0 0 0-0.46289 0.0332c-2.9836 0.01939-5.9672 0.25919-8.9453 0.64063a131.23 131.23 0 0 0-121.82 130.55 131.23 131.23 0 0 0 89.629 124.19c0.9645 0.37976 1.9278 0.75977 2.9141 1.0879a131.23 131.23 0 0 0 3.3281 0.99023c1.672 0.44539 3.3681 0.81392 5.0879 1.1055a131.23 131.23 0 0 0 30.27 3.8594 131.23 131.23 0 0 0 71.807-21.475h65.832a131.23 131.23 0 0 0 71.805 21.475 131.23 131.23 0 0 0 28.637-3.502c2.6129-0.35244 5.1895-0.84832 7.7012-1.541-0.18556-0.00564-0.3711-0.00965-0.55665-0.01368a131.23 131.23 0 0 0 95.449-126.17 131.23 131.23 0 0 0-130.56-131.21c-0.10475-2.2e-4 -0.20971-0.01585-0.31445-0.01562h-209.64c-0.01755-4e-5 -0.03518 0.00198-0.05273 0.00195a131.23 131.23 0 0 0-0.11329-0.00195z" color="#000000" fill="#c74227" opacity=".3" stroke="#000" stroke-linecap="round" stroke-linejoin="round" stroke-width="20"/><path d="m151.02 124.56a131.23 131.23 0 0 0-0.46289 0.0332c-2.9836 0.01939-5.9672 0.25919-8.9453 0.64063a131.23 131.23 0 0 0-121.82 130.55 131.23 131.23 0 0 0 89.629 124.19c0.9645 0.37976 1.9278 0.75977 2.9141 1.0879a131.23 131.23 0 0 0 3.3281 0.99023c1.672 0.44539 3.3681 0.81392 5.0879 1.1055a131.23 131.23 0 0 0 30.27 3.8594 131.23 131.23 0 0 0 71.807-21.475h65.832a131.23 131.23 0 0 0 71.805 21.475 131.23 131.23 0 0 0 28.637-3.502c2.6129-0.35244 5.1895-0.84832 7.7012-1.541-0.18556-0.00564-0.3711-0.00965-0.55665-0.01368a131.23 131.23 0 0 0 95.449-126.17 131.23 131.23 0 0 0-130.56-131.21c-0.10475-2.2e-4 -0.20971-0.01585-0.31445-0.01562h-209.64c-0.01755-4e-5 -0.03518 0.00198-0.05273 0.00195a131.23 131.23 0 0 0-0.11329-0.00195z" color="#000000" fill="#c74227" stroke-linecap="round" stroke-linejoin="round" style="-inkscape-stroke:none"/><path d="m360.93 174.56c-6.9305 0.0149-13.855 2.6642-19.115 7.9474-10.52 10.566-10.482 27.745 0.0847 38.265 10.566 10.52 27.743 10.484 38.263-0.0828 10.52-10.566 10.484-27.745-0.0828-38.265-5.2832-5.26-12.219-7.8794-19.15-7.8645zm-230.92 5.7766c-4.6846 0-8.4558 3.7713-8.4558 8.4558v42.788h-42.786c-4.6846 0-8.4558 3.7713-8.4558 8.4558v34.33c0 4.6846 3.7713 8.4558 8.4558 8.4558h42.786v42.786c0 4.6846 3.7713 8.4558 8.4558 8.4558h34.33c4.6846 0 8.4558-3.7713 8.4558-8.4558v-42.786h42.788c4.6846 1e-5 8.4558-3.7713 8.4558-8.4558v-34.33c0-4.6846-3.7713-8.4558-8.4558-8.4558h-42.788v-42.788c0-4.6846-3.7713-8.4558-8.4558-8.4558zm284.82 47.89c-6.9302 0.0153-13.855 2.6661-19.115 7.9493-10.52 10.566-10.482 27.745 0.0847 38.265 10.566 10.52 27.745 10.484 38.265-0.0828 10.52-10.566 10.482-27.747-0.0847-38.267-5.2832-5.26-12.22-7.8798-19.15-7.8645zm-109.03 1.7027c-6.9305 0.0149-13.855 2.666-19.115 7.9493-10.52 10.566-10.484 27.745 0.0828 38.265 10.566 10.52 27.747 10.482 38.267-0.0847 10.52-10.566 10.482-27.745-0.0847-38.265-5.2832-5.26-12.219-7.8794-19.15-7.8645zm53.904 53.667c-6.9302 0.0153-13.855 2.6661-19.115 7.9493-10.52 10.566-10.484 27.745 0.0828 38.265 10.566 10.52 27.747 10.484 38.267-0.0828 10.52-10.566 10.482-27.745-0.0848-38.265-5.2832-5.26-12.22-7.8817-19.15-7.8664z" color="#000000" stroke-linecap="round" stroke-linejoin="round" stroke-width="100" style="-inkscape-stroke:none"/><path d="m360.93 174.56c-6.9305 0.0149-13.855 2.6642-19.115 7.9474-10.52 10.566-10.482 27.745 0.0847 38.265 10.566 10.52 27.743 10.484 38.263-0.0828 10.52-10.566 10.484-27.745-0.0828-38.265-5.2832-5.26-12.219-7.8794-19.15-7.8645zm-230.92 5.7766c-4.6846 0-8.4558 3.7713-8.4558 8.4558v42.788h-42.786c-4.6846 0-8.4558 3.7713-8.4558 8.4558v34.33c0 4.6846 3.7713 8.4558 8.4558 8.4558h42.786v42.786c0 4.6846 3.7713 8.4558 8.4558 8.4558h34.33c4.6846 0 8.4558-3.7713 8.4558-8.4558v-42.786h42.788c4.6846 1e-5 8.4558-3.7713 8.4558-8.4558v-34.33c0-4.6846-3.7713-8.4558-8.4558-8.4558h-42.788v-42.788c0-4.6846-3.7713-8.4558-8.4558-8.4558zm284.82 47.89c-6.9302 0.0153-13.855 2.6661-19.115 7.9493-10.52 10.566-10.482 27.745 0.0847 38.265 10.566 10.52 27.745 10.484 38.265-0.0828 10.52-10.566 10.482-27.747-0.0847-38.267-5.2832-5.26-12.22-7.8798-19.15-7.8645zm-109.03 1.7027c-6.9305 0.0149-13.855 2.666-19.115 7.9493-10.52 10.566-10.484 27.745 0.0828 38.265 10.566 10.52 27.747 10.482 38.267-0.0847 10.52-10.566 10.482-27.745-0.0847-38.265-5.2832-5.26-12.219-7.8794-19.15-7.8645zm53.904 53.667c-6.9302 0.0153-13.855 2.6661-19.115 7.9493-10.52 10.566-10.484 27.745 0.0828 38.265 10.566 10.52 27.747 10.484 38.267-0.0828 10.52-10.566 10.482-27.745-0.0848-38.265-5.2832-5.26-12.22-7.8817-19.15-7.8664z" color="#000000" stroke-width="0" style="-inkscape-stroke:none"/></svg>
