<svg width="128" height="128" viewBox="0 0 128 128" fill="none" xmlns="http://www.w3.org/2000/svg">
<path d="M33 126.3L18.5 108.3V8.40001L14.7 1.70001H96.3V74.4C96.9 74.6 97.6 74.9 98.2 75.2C102.4 77.3 104.2 81.2 104.8 82.7V82.8C106 85.5 107.6 88.8 106 92.1C104.6 95.2 100.9 97.2 96.4 97.4L96.3 104.4L114.1 126.3H33Z" fill="#A4B1CD"/>
<path d="M20 4.70001H93.5V76.8C94.4 76.9 95.7 77.2 97 77.9C100.2 79.5 101.5 82.4 102.3 83.9C103.4 86.3 104.5 88.7 103.6 90.9C102.4 93.6 98.4 95 93.7 94.2L93.6 105.4L108.1 123.2H34.5L21.6 107.2V7.50001L20 4.70001Z" fill="#B03434"/>
<path d="M24.3 7.60001H90.4V78.9C91.2 78.8 92.5 78.8 94 79.3C95.1 79.7 95.8 80.2 96.6 80.9C97.5 81.6 99.1 82.9 100.3 85.3C101.1 86.8 101.7 88.2 101.2 89.4C100.7 90.6 99.3 91 98.6 91.2C97.6 91.5 96.9 91.4 95.3 91.4C94.3 91.4 92.7 91.3 90.9 91.4C90.9 96.4 90.9 101.5 90.8 106.5L101.7 120.3H36L24.3 106.3V7.60001Z" fill="#141D2B"/>
<path d="M60 120.2L48.5 110C45.9 107.7 42.5 106.4 39 106.4H34.4C33.6 106.4 33.2 107.4 33.7 107.9L45.1 120.2H60Z" fill="#B03434"/>
<path d="M60.9 69.7L46 101.6C45 103.7 42.9 105.1 40.5 105.1H32.3C31.5 105.1 31 104.3 31.3 103.6L50.8 63.3C51 62.8 51.1 62.2 50.9 61.7L46.3 48.9C46.1 48.2 45.2 48.1 44.8 48.6L38 56.1C37.2 57 36 57.5 34.7 57.4C31.1 57.1 27.4 56.7 23.8 56.4C23.6 53.3 23.4 50.1 23.3 46.9C26.2 46.9 29.2 46.9 32.1 46.9C32.6 46.9 33.1 46.7 33.5 46.3C34.6 44 36.5 40.5 39.8 37.2C41.5 35.5 44 32.9 48.1 31.4C51.3 30.1 54.1 30.1 59.6 30.2C69.1 30.3 73.6 32.3 75.2 33.1C75.8 33.4 77 34 78.4 35.1C78.9 35.5 80.8 37.1 82.5 39.9C82.8 40.4 82.9 40.8 83.2 41.2C87.9 48.2 88.9 52.6 85.3 54.1C82.4 56.2 79.7 52.6 77 48.1L73.4 41.3C73.2 41 72.9 40.8 72.5 40.8L65.3 41C64.8 41 64.5 41.5 64.7 42C67.6 47.9 70.1 53.5 71.2 58L73.6 78.5C73.7 79.1 74.2 79.6 74.8 79.6L92.3 80.2C93.5 80.2 94.3 80.6 94.8 80.8C95.3 81.1 95.8 81.5 96.8 82.4C97.5 83.1 97.9 83.5 98.4 84C98.9 84.6 99.4 85.3 99.8 86.2C100.1 87.1 100.5 87.9 100.1 88.8C99.8 89.6 99 90 98.9 90C98.6 90.1 98.2 90.2 97.8 90.2L71.2 90.3C67.2 90.3 63.9 87.4 63.2 83.5C62.5 79 61.7 74.3 60.9 69.7Z" fill="#B03434"/>
<path d="M44 30.2C49 30.2 53 26.2 53 21.2C53 16.2 49 12.2 44 12.2C39 12.2 35 16.2 35 21.2C35 26.2 39 30.2 44 30.2Z" fill="#B03434"/>
</svg>
