<svg width="512" height="512" version="1.1" viewBox="0 0 135.47 135.47" xmlns="http://www.w3.org/2000/svg"><path d="m67.676 22.342c-2.1 0-7.617 1.317-10.086 3.1368-5.4934 4.0484-6.216 7.7732-6.8595 11.133-0.34061 0.02612-0.67674 0.14158-1.0154 0.18397-1.5036-1.6494-4.1541-3.7251-7.6853-4.6214-0.86649-1.7089-2.509-4.2099-5.3402-5.9764-3.0585-1.9083-6.1703-2.229-7.9292-2.2443-0.03066-2.68e-4 -0.083764 0.01723-0.11524 0.01757v-0.01757a13.23 13.23 0 0 0-0.068729 0.029455c-2.8521 0.06262-8.8435 2.4954-11.004 4.8359-2.1991 2.3823-2.7109 3.7051-3.6013 5.3222-5.6657 10.289-8.5864 22.218-8.6093 34.256-0.018349 9.6301 1.8346 19.179 5.4844 27.961 0.82468 1.9844 1.7797 3.926 2.7497 5.7655 0.48499 0.91976 0.96078 1.7862 1.465 2.635s0.54192 1.2845 2.326 3.2752c0.75631 0.84392 2.2378 2.4222 4.7832 3.6447 2.5454 1.2225 5.2817 1.4516 6.6192 1.4392 1.9939-0.0185 5.9889-0.62946 9.1876-3.1543 2.1807-1.7213 3.2315-3.4454 3.9688-4.9589 1.4082-0.34951 2.3025-0.80451 2.4825-0.88264 2.3464-1.0182 4.8442-3.4185 6.6833-6.2229 3.59 1.9733 8.0202 2.628 11.678 2.1151 2.0578 2.3793 5.0451 4.5412 7.3613 5.3382a13.23 13.23 0 0 0 0.002067 0c5.5483 1.909 8.9752 1.6871 14.234-1.5487 1.1572-0.71199 1.9215-1.4933 2.7559-2.2619 0.26963 0.24713 0.57897 0.58473 0.8108 0.76171a13.23 13.23 0 0 0 0.003617 0.00207c1.3709 1.0459 3.4462 1.9665 5.6699 2.5058 0.29739 0.64204 0.63875 1.6864 0.84801 1.9901 0.77789 1.1287 2.6136 3.3706 5.4529 4.795 2.8393 1.4245 5.3943 1.5291 6.6425 1.5291 2.3059 0 7.2204-1.3334 9.8656-3.576 2.6452-2.2426 3.3948-3.8742 4.1558-5.1697 7.2619-12.362 10.523-27.275 9.2403-41.661-0.96769-10.853-3.9838-21.001-9.1736-29.934-0.61459-1.0578-0.94667-2.0935-3.1094-4.3357s-7.9357-4.443-10.361-4.4747c-0.68465-9e-3 -1.1717 0.022336-1.5296 0.048576-0.90686 0.0662-3.3995 0.070393-6.6719 2.0195-3.2738 1.9499-4.688 4.4813-5.1718 5.303h0.002067c-0.20225 0.34352-0.28057 0.62522-0.4377 0.93328-1.883 0.4898-3.5693 1.3144-5.0602 2.3714-1.5922-0.58275-3.2106-0.99763-4.8007-1.0315-0.9161-2.4872-2.4831-5.6149-5.795-8.0822-3.5402-2.6374-7.7404-3.1952-10.047-3.1952zm49.73 13c0.0861 0.06739 0.1821 0.215 0.30851 0.63459-0.0378-0.07043-0.0575-0.14038-0.0956-0.21084-0.0935-0.17313-0.13671-0.26915-0.21291-0.42375zm-106.7 19.254c-0.02248 0.14214-0.028489 0.61067-0.044959 0.8909-0.0071 0.02679-0.012677 0.049404-0.019637 0.075964 0.01596-0.26842 0.026936-0.83787 0.064596-0.96687z" fill="#fff" opacity=".3" stop-color="#000000" stroke="#000" stroke-linecap="round" stroke-linejoin="round" stroke-width="2.6458" style="paint-order:stroke fill markers"/><path d="m67.676 22.342c-2.1 0-7.617 1.317-10.086 3.1368-5.4934 4.0484-6.216 7.7732-6.8595 11.133-0.34061 0.02612-0.67674 0.14158-1.0154 0.18397-1.5036-1.6494-4.1541-3.7251-7.6853-4.6214-0.86649-1.7089-2.509-4.2099-5.3402-5.9764-3.0585-1.9083-6.1703-2.229-7.9292-2.2443-0.03066-2.68e-4 -0.083764 0.01723-0.11524 0.01757v-0.01757a13.23 13.23 0 0 0-0.068729 0.029455c-2.8521 0.06262-8.8435 2.4954-11.004 4.8359-2.1991 2.3823-2.7109 3.7051-3.6013 5.3222-5.6657 10.289-8.5864 22.218-8.6093 34.256-0.018349 9.6301 1.8346 19.179 5.4844 27.961 0.82468 1.9844 1.7797 3.926 2.7497 5.7655 0.48499 0.91976 0.96078 1.7862 1.465 2.635s0.54192 1.2845 2.326 3.2752c0.75631 0.84392 2.2378 2.4222 4.7832 3.6447 2.5454 1.2225 5.2817 1.4516 6.6192 1.4392 1.9939-0.0185 5.9889-0.62946 9.1876-3.1543 2.1807-1.7213 3.2315-3.4454 3.9688-4.9589 1.4082-0.34951 2.3025-0.80451 2.4825-0.88264 2.3464-1.0182 4.8442-3.4185 6.6833-6.2229 3.59 1.9733 8.0202 2.628 11.678 2.1151 2.0578 2.3793 5.0451 4.5412 7.3613 5.3382a13.23 13.23 0 0 0 0.002067 0c5.5483 1.909 8.9752 1.6871 14.234-1.5487 1.1572-0.71199 1.9215-1.4933 2.7559-2.2619 0.26963 0.24713 0.57897 0.58473 0.8108 0.76171a13.23 13.23 0 0 0 0.003617 0.00207c1.3709 1.0459 3.4462 1.9665 5.6699 2.5058 0.29739 0.64204 0.63875 1.6864 0.84801 1.9901 0.77789 1.1287 2.6136 3.3706 5.4529 4.795 2.8393 1.4245 5.3943 1.5291 6.6425 1.5291 2.3059 0 7.2204-1.3334 9.8656-3.576 2.6452-2.2426 3.3948-3.8742 4.1558-5.1697 7.2619-12.362 10.523-27.275 9.2403-41.661-0.96769-10.853-3.9838-21.001-9.1736-29.934-0.61459-1.0578-0.94667-2.0935-3.1094-4.3357s-7.9357-4.443-10.361-4.4747c-0.68465-9e-3 -1.1717 0.022336-1.5296 0.048576-0.90686 0.0662-3.3995 0.070393-6.6719 2.0195-3.2738 1.9499-4.688 4.4813-5.1718 5.303h0.002067c-0.20225 0.34352-0.28057 0.62522-0.4377 0.93328-1.883 0.4898-3.5693 1.3144-5.0602 2.3714-1.5922-0.58275-3.2106-0.99763-4.8007-1.0315-0.9161-2.4872-2.4831-5.6149-5.795-8.0822-3.5402-2.6374-7.7404-3.1952-10.047-3.1952zm49.73 13c0.0861 0.06739 0.1821 0.215 0.30851 0.63459-0.0378-0.07043-0.0575-0.14038-0.0956-0.21084-0.0935-0.17313-0.13671-0.26915-0.21291-0.42375zm-106.7 19.254c-0.02248 0.14214-0.028489 0.61067-0.044959 0.8909-0.0071 0.02679-0.012677 0.049404-0.019637 0.075964 0.01596-0.26842 0.026936-0.83787 0.064596-0.96687z" fill="#fff" stop-color="#000000" stroke-linecap="round" stroke-linejoin="round" style="paint-order:stroke fill markers"/><path d="m67.676 34.268c-1.2462 0-2.2357 0.2416-3.0102 0.81235-1.361 1.003-1.9701 2.7377-2.5564 5.4358s-1.0473 6.449-1.465 11.586c-0.16551 2.0355-0.52828 6.3852-0.80822 9.6599-0.16549 1.9357-0.31495 3.7551-0.48266 5.764-0.082161-0.74639-0.13729-1.2865-0.21497-1.9766-0.69292-6.1553-1.1497-9.7206-1.7244-12.049-0.57472-2.3283-1.494-3.6229-2.6913-4.3847-0.89395-0.56882-1.9287-0.71934-2.9492-0.65267-1.0205 0.06667-2.0496 0.36551-2.9301 0.96687-1.327 0.90631-1.9955 2.4751-2.7967 4.6798s-1.5451 5.0434-2.1642 8.3065l-0.019121 0.097669-0.004134 0.099735c-0.04071 1.1618-0.39536 1.7873-0.94154 2.3006-0.54619 0.51332-1.3636 0.88692-2.2887 1.1348-1.2838 0.34398-1.8951 1.5875-1.8578 2.6386 0.01865 0.52556 0.17491 1.0699 0.56482 1.5394 0.38992 0.46954 1.0623 0.80254 1.7363 0.80254 1.4588 0 2.8187-0.16258 4.777-0.6873 0.83786-0.2245 1.4457-0.67312 2.1172-1.1524s1.2225-0.90252 1.6449-1.3947c0.43992-0.5127 0.84681-1.1521 1.1286-2.0645 0.16252-0.52622 0.37668-1.6594 0.56069-2.5332 0.03984 0.32781 0.063679 0.54726 0.1018 0.85731 0.1881 1.5299 0.50277 4.3165 0.69505 6.1603 0.4749 4.5539 1.2248 9.9376 1.7069 11.967 0.54995 2.3146 1.3731 4.0919 2.7073 5.2307 1.3342 1.1388 3.1852 1.4082 4.9687 0.85318 0.89906-0.27978 1.672-0.96028 2.219-1.8629 0.547-0.90266 0.94627-2.0428 1.3064-3.5491 0.72023-3.0126 1.2594-7.5203 1.8397-14.352 0.17924-2.1102 0.54457-6.3505 0.82062-9.541 0.18116 2.1387 0.41449 5.0675 0.57619 7.3871 0.77116 11.062 1.3134 17.473 2.035 21.379 0.36083 1.9528 0.75655 3.2971 1.3534 4.33 0.59686 1.0328 1.4969 1.7092 2.4004 2.02 1.376 0.47344 2.8674 0.33322 4.1078-0.42995 1.5468-0.95167 2.2705-2.8292 2.9667-6.1857 0.69629-3.3565 1.3102-8.3818 2.0485-16.019 0.39913-4.1289 0.61213-5.7695 0.88108-8.1644 0.37138 1.932 0.81115 3.4686 1.7033 4.6467 1.0318 1.3627 2.5225 2.1528 4.5253 2.8846 2.4332 0.88904 4.1845 0.8423 5.8048 0.25218 0.51607-0.18794 1.0188-0.33656 1.4666-0.90279 0.44779-0.56623 0.45889-1.187 0.45889-1.6754 0-0.25362 0.00613-0.52455-0.07028-0.87333-0.07644-0.34878-0.28732-0.79002-0.6134-1.0935-0.65215-0.60691-1.3472-0.70098-2.3239-0.84594-1.5737-0.23357-2.1948-0.65529-2.621-1.1855-0.42558-0.52932-0.6895-1.3633-0.99839-2.5156v-5.16e-4l-5.17e-4 -5.17e-4v-5.17e-4l-5.17e-4 -5.17e-4v-5.17e-4l-5.16e-4 -5.16e-4v-5.17e-4l-5.17e-4 -5.17e-4c-1.0049-5.3413-1.2433-6.4502-2.0407-9.3204-0.61914-2.2285-1.3121-3.9116-2.2717-5.148-0.9596-1.2364-2.3295-1.9885-3.7832-1.9885-1.694 0-3.2906 0.7636-4.1129 2.1797-0.72807 1.2538-1.1231 3.129-1.6077 6.1366-0.48451 3.0076-0.95832 7.0564-1.4314 12.201-0.05435 0.59108-0.13918 1.5288-0.21291 2.3337-0.15949-2.2574-0.2463-3.0929-0.49609-6.9081-0.16363-2.4993-0.51957-6.7944-0.79685-9.5973-0.70146-7.0911-1.216-11.2-2.1115-13.807-0.44777-1.3033-1.0292-2.2967-1.9022-2.9471-0.87298-0.65036-1.9145-0.83199-2.9218-0.83199zm-39.023 1.6113c-0.002778 3.7e-4 -0.00616 0.002067-0.008785 0.002067-0.74285-0.0035-1.6915 0.35905-2.3084 1.0273-0.61939 0.67099-1.1304 1.5565-1.9177 2.9864-4.5676 8.2953-7.1117 18.501-7.1308 28.525-0.01536 8.0598 1.5584 16.112 4.5703 23.359 0.59074 1.4215 1.4601 3.2135 2.2867 4.7811 0.4133 0.78381 0.81399 1.5087 1.1684 2.1053 0.35441 0.59656 0.61476 1.0268 0.95705 1.4087 0.29548 0.3297 0.61858 0.63925 1.064 0.85318 0.44544 0.21394 0.9257 0.26744 1.3441 0.26355 0.63536-6e-3 1.3448-0.14347 1.91-0.58963 0.56521-0.44615 0.86094-1.0429 1.094-1.6795 0.20733-0.56632 0.33831-1.4005 0.10335-2.1565s-0.65062-1.4696-1.373-2.7264c-0.87792-1.5274-2.4918-4.9864-3.3357-7.1779-0.45967-1.1936-1.7864-5.7957-1.9983-6.9081-0.56334-2.9562-0.78842-4.6413-1.0583-7.908-0.26526-3.2105-0.26452-3.84-0.002067-7.1055 0.29953-3.7256 0.67042-6.1369 0.85938-6.6957 0.1511-0.44681 0.24391-0.81535 0.24391-1.3457 0 0.10602 6.9e-5 0.15094 0.001034 0.1571h5.17e-4c0.002528-0.008216 0.009585-0.14343 0.031522-0.24495 0.0351-0.16243 0.090614-0.39609 0.15865-0.66973 0.13606-0.54728 0.3228-1.2614 0.52142-1.9864s0.40914-1.464 0.58756-2.0645 0.35397-1.1207 0.37517-1.172c1.7928-4.339 2.5339-5.9651 3.6013-7.908 0.67936-1.2366 1.1068-2.0793 1.3245-2.9182 0.21767-0.83884 0.10303-1.74-0.20877-2.4081-0.24066-0.5157-0.59654-1.0318-1.1369-1.3689-0.54034-0.33713-1.1467-0.43061-1.7229-0.43563-3.75e-4 -3e-6 -6.37e-4 -5.3e-5 -0.001034 0zm78.378 0.021187c-0.17356-0.0023-0.3383 0.006107-0.50178 0.018087-0.46547 0.03406-0.94088 0.072704-1.4418 0.37104-0.50152 0.29871-0.76977 0.72348-0.9958 1.1074-0.1744 0.2962-0.31187 0.60001-0.42168 0.90434s-0.21136 0.54836-0.21136 1.0134c0 0.51162 0.0932 0.58439 0.17208 0.8046 0.0789 0.22021 0.17954 0.46052 0.29869 0.72864 0.2383 0.53623 0.55233 1.1784 0.90227 1.8262 2.9257 5.4166 4.5094 9.7149 5.5842 15.133 0.72172 3.6386 0.76215 3.9272 1.002 7.4471 0.22496 3.3017 0.01911 8.5063-0.39843 10.867-1.3181 7.4529-3.0835 12.699-5.9784 17.866-0.82209 1.4672-1.3215 2.3426-1.496 3.3476-0.17455 1.0051 0.24974 1.9734 0.74983 2.6991 0.22317 0.3238 0.53567 0.67919 0.9803 0.90227 0.44463 0.22307 0.89479 0.26355 1.295 0.26355 0.70483 0 1.5401-0.22665 2.1523-0.74569 0.61222-0.51905 1.0366-1.1804 1.586-2.1156 5.777-9.8344 8.678-22.97 7.6445-34.56-0.83463-9.3609-3.3592-17.694-7.6052-25.002-0.54123-0.93155-0.8862-1.532-1.3829-2.0469-0.49623-0.51447-1.3203-0.81989-1.9317-0.82837h-0.00207zm-68.447 7.7385c-0.7993 8e-3 -1.5035 0.40047-2.0547 0.91416-0.55111 0.51368-1.014 1.1715-1.4728 1.988-2.1627 3.8493-3.5734 7.6338-4.7734 12.754-1.1479 4.8984-1.1497 13.62 0.00155 18.484 0.79607 3.3635 1.9372 6.7633 3.1114 9.4883 0.58713 1.3625 1.1806 2.5554 1.7658 3.5099 0.58522 0.95446 1.0651 1.685 1.9275 2.1699h0.002067l0.29714 0.16795h0.11524c0.24332 0.13797 0.44718 0.29731 0.84543 0.34572 0.59222 0.07199 1.0131-0.14198 1.3302-0.27957 1.0843-0.4705 1.9301-1.4994 2.0645-2.6577 0.13433-1.1583-0.2584-2.3013-0.94516-3.514-1.6224-2.8649-3.1548-6.8515-3.9414-10.275-1.118-4.8664-1.1163-11.597 0.002067-16.394 0.85701-3.6766 2.271-7.3595 3.9295-10.272 0.54926-0.96449 0.91577-1.8123 0.99425-2.7146 0.07848-0.9023-0.25064-1.8398-0.82424-2.4944-0.5978-0.68228-1.4093-1.2203-2.3616-1.2165l-5.17e-4 -5.17e-4c-0.003938-3.68e-4 -0.008073-0.002965-0.011885-0.003617-3.02e-4 -2.4e-5 -7.23e-4 -6e-6 -0.001034 0zm58.309 0.03514c-1.1744-0.02371-2.2438 0.71508-2.8536 1.7772-0.35992 0.62694-0.56191 1.483-0.41031 2.2836 0.1516 0.80057 0.5183 1.5311 1.0682 2.5094 3.1607 5.6235 4.684 11.552 4.684 18.291 0 4.0479-0.17796 5.4922-1.1741 9.539-0.64524 2.6213-2.1539 6.3662-3.6013 8.9199-0.65442 1.1546-1.0984 2.1059-1.0351 3.1993 0.06328 1.0933 0.77842 1.9891 1.619 2.6308l0.34933 0.26768h0.080099c0.42565 0.21428 0.92407 0.33163 1.4082 0.2868 0.65937-0.06106 1.2183-0.35332 1.7265-0.72864 0.52789-0.38983 0.74051-0.76605 1.0806-1.2909 0.34004-0.52483 0.70573-1.166 1.0837-1.8846 0.75584-1.4373 1.5531-3.1774 2.1642-4.7987 0.17547-0.46556 0.44642-1.1787 0.59945-1.5823 0.35132-0.92658 0.79522-2.5707 1.2557-4.5232 1.3679-5.7987 1.3674-14.097 0.01189-20.061-0.55622-2.4463-1.4855-5.2222-2.5099-7.6951-1.0244-2.473-2.0872-4.5956-3.1657-5.9082-0.60259-0.73338-1.4678-1.2141-2.3807-1.2325z" stop-color="#000000"/></svg>
