<svg width="512" height="512" viewBox="0 0 512 512" fill="none" xmlns="http://www.w3.org/2000/svg">
<path d="M264.053 55.3856H363.757C378.789 55.3856 393.63 60.9036 406.188 70.9882L430.734 90.9671V264.688C430.734 324.434 405.427 380.185 363.567 412.912L264.243 490.735C264.243 490.735 260.057 493.969 255.871 497.204C251.685 493.969 247.499 490.735 247.499 490.735L148.175 412.912C106.125 379.995 81.0082 324.434 81.0082 264.688V90.9671L105.554 70.9882C118.112 60.9036 132.763 55.3856 147.985 55.3856H247.689H264.053Z" fill="url(#paint0_linear_5_19)"/>
<path opacity="0.1" d="M438.915 267.162C438.915 329.382 412.467 387.606 368.514 421.855L264.433 503.103C264.433 503.103 260.057 506.528 255.681 509.953C251.304 506.528 246.928 503.103 246.928 503.103L142.848 421.855C186.991 395.788 231.135 369.91 275.279 343.843C329.698 318.155 384.307 292.659 438.915 267.162Z" fill="white"/>
<path d="M407.52 346.316C404.095 337.563 399.529 329.191 393.82 321.771C390.776 317.775 384.116 309.783 372.89 301.031C370.036 298.747 367.372 296.845 364.708 295.132L364.898 291.517C365.089 289.614 367.562 245.09 357.858 195.809C352.15 166.696 343.207 141.961 331.41 122.553C316.378 97.8169 296.59 81.4533 272.615 73.8423C258.725 69.4659 245.215 67.3729 232.087 67.3729C200.881 67.3729 171.579 80.1213 147.224 103.906C131.051 119.889 122.108 135.872 120.205 139.487L87.2873 127.31L92.9955 211.792L126.103 214.265C125.533 243.948 107.076 264.117 106.886 264.308L103.461 267.923L106.505 271.728C110.881 277.246 117.731 280.291 125.533 280.291H125.723C125.723 281.052 125.723 281.623 125.533 282.384C125.342 283.145 124.962 283.906 124.391 284.477L124.201 284.667L124.01 285.047C120.015 290.946 120.585 295.513 121.727 298.176C122.488 299.699 123.44 301.031 124.391 301.982C123.63 304.456 123.82 306.358 124.391 307.88C125.342 311.115 127.816 313.018 130.099 314.35C129.148 325.195 131.241 332.616 136.378 336.802C140.184 340.037 144.941 341.559 151.029 341.559C157.499 341.559 164.539 339.847 173.101 337.563C177.858 336.422 188.514 332.997 201.452 325.386C206.019 336.231 207.922 347.648 206.97 358.684C203.736 391.982 175.765 410.439 170.247 413.864L163.017 418.24L169.676 423.377L255.681 489.213L292.784 460.481L293.545 459.149L293.926 459.72L356.717 411.771V412.341L362.235 407.775L362.996 407.204L366.801 403.969C374.603 397.31 381.643 390.079 387.922 382.088C395.533 372.574 401.812 362.299 407.14 351.263L408.091 348.98L407.52 346.316ZM339.972 337.754C339.782 337.373 339.592 336.993 339.211 336.422C347.013 347.077 352.34 356.971 354.624 366.295C356.336 372.764 357.097 379.995 357.287 381.707C352.911 366.295 347.203 351.644 339.972 337.754Z" fill="black"/>
<path d="M264.053 48.9161H352.721H363.757C367.753 48.9161 371.939 49.2967 375.934 50.0578C383.926 51.58 391.727 54.2438 398.767 58.2396C402.192 60.1423 405.617 62.4256 408.852 64.8992C410.565 66.2311 411.896 67.1826 413.228 68.5145L417.605 71.9394L434.729 86.0198C436.252 87.1614 437.013 89.0642 437.013 90.7766V90.9669L438.345 210.65L438.725 240.523L438.915 255.555C438.915 260.502 439.106 265.449 438.915 270.777C438.725 291.517 435.11 312.257 429.021 332.236C425.786 342.13 421.981 351.834 417.224 361.348C416.082 363.821 414.751 365.914 413.609 368.388C412.277 370.671 411.135 372.954 409.613 375.238L405.427 381.897L400.86 388.367C394.581 396.739 387.732 404.921 379.93 412.151C378.027 414.054 376.125 415.766 374.032 417.479C371.939 419.191 369.846 421.094 367.943 422.616L356.336 431.94L262.911 506.528C258.535 509.952 252.636 509.762 248.45 506.528L155.025 431.559L143.418 422.236C141.516 420.713 139.423 418.811 137.33 417.098C135.237 415.386 133.334 413.673 131.431 411.771C123.63 404.54 116.78 396.358 110.501 387.986L105.934 381.517L101.748 374.857C100.226 372.574 99.0844 370.291 97.7524 368.007C96.6108 365.724 95.0885 363.441 94.1372 360.967C89.3803 351.644 85.5748 341.749 82.3402 331.855C76.2514 311.876 72.6361 291.136 72.4458 270.396C72.2556 265.069 72.4458 260.121 72.4458 255.174L72.6361 240.142L73.0167 210.269L74.5389 90.9669C74.5389 89.0642 75.4903 87.1614 76.8222 86.0198L95.6594 70.7978L100.416 66.9923C101.177 66.4214 101.938 65.6603 102.89 65.0895C103.651 64.3284 104.602 63.7576 105.554 63.1868C109.169 60.7132 112.974 58.4299 116.97 56.5271C124.962 52.7216 133.524 50.2481 142.467 49.487C144.56 49.2967 147.034 49.2967 148.936 49.2967H155.025H167.203H264.053V48.9161ZM264.053 61.8549H167.013H154.835H148.746C146.653 61.8549 145.131 61.8548 143.228 62.0451C135.998 62.6159 128.767 64.5187 122.298 67.7533C119.063 69.2755 115.829 71.1783 112.784 73.4616C112.023 74.0324 111.262 74.6033 110.501 75.1741C109.74 75.7449 108.979 76.3158 108.218 76.8866L103.461 80.6921L84.6234 95.9141L86.9067 90.9669L88.2387 210.65L88.6192 240.523L88.8095 255.555V262.975C88.8095 265.449 88.9998 267.732 88.9998 270.206C89.5706 289.424 93.3761 308.261 99.2746 326.337C102.509 335.28 106.125 344.033 110.501 352.405C111.452 354.498 112.784 356.591 113.926 358.684C115.067 360.777 116.209 362.87 117.541 364.773L121.347 370.671L125.533 376.379C131.241 383.8 137.52 390.84 144.56 397.119C146.273 398.832 147.985 400.164 149.888 401.686C151.791 403.208 153.313 404.54 155.406 406.062L167.203 415.195L262.34 488.071H247.879L343.017 415.195L354.814 406.062C356.907 404.54 358.429 403.018 360.332 401.686C362.044 400.164 363.947 398.832 365.66 397.119C372.7 391.031 378.789 383.8 384.687 376.379L388.873 370.671L392.679 364.773C394.011 362.87 395.152 360.777 396.294 358.684C397.436 356.591 398.767 354.688 399.719 352.405C404.095 344.033 407.71 335.28 410.945 326.337C417.034 308.261 420.649 289.233 421.22 270.206C421.41 265.449 421.41 260.502 421.601 255.555L421.791 240.523L422.171 210.65L423.503 90.9669L425.786 95.9141L408.662 81.8337L404.285 78.4088C402.953 77.2671 401.431 75.9352 400.099 74.9838C397.436 72.8908 394.581 70.9881 391.727 69.4659C385.829 66.2312 379.55 63.9479 372.89 62.616C369.655 62.0451 366.23 61.6646 362.996 61.6646H351.96H264.053V61.8549Z" fill="url(#paint1_linear_5_19)"/>
<path opacity="0.25" d="M262.531 48.7261H366.04C381.833 48.7261 397.055 54.4343 409.994 65.0897L435.491 86.02C379.55 122.933 323.609 159.847 267.668 196.95C202.594 220.544 137.33 244.329 72.2555 267.923C73.0166 207.796 73.5875 147.669 74.3486 87.5422C82.1498 81.4534 90.1414 75.3646 97.9426 69.0855C102.319 64.8995 109.74 59.0009 120.205 54.6246C128.957 51.0094 136.759 49.6775 142.277 49.2969C176.526 49.1067 210.776 48.9163 245.025 48.7261H262.531Z" fill="black"/>
<path d="M340.353 329.191C344.539 334.519 355.956 348.98 360.142 365.534C362.235 373.525 362.996 382.278 362.996 382.278C363.567 389.128 363.567 395.026 363.376 399.783C369.655 394.456 376.696 387.415 383.736 378.663C392.298 367.817 398.197 357.542 402.192 348.98C399.909 342.891 395.913 334.519 389.254 325.766C387.351 323.293 381.072 315.301 369.275 305.978C351.389 291.897 340.163 291.327 316.759 275.534C309.909 270.967 304.772 266.781 301.727 264.117L359.19 291.707C359.19 291.707 370.036 110.946 270.903 79.931C171.769 48.9162 124.962 143.673 124.962 143.673L193.841 173.546L93.5663 136.633L98.3232 207.415L218.196 216.358C220.289 196.95 236.463 182.489 254.539 182.109C276.611 181.728 294.687 202.658 291.643 223.398C289.359 239.572 274.518 252.51 257.774 253.652C238.746 254.984 220.48 240.713 217.435 220.164L131.621 211.982C132.382 246.231 110.691 269.064 110.691 269.064C117.731 277.817 129.528 274.963 129.528 274.963C130.099 276.105 132.002 280.291 130.48 284.857C129.909 286.57 129.148 287.902 128.387 288.853C121.917 298.557 132.002 300.46 132.002 300.46C124.201 308.832 135.998 311.305 135.998 311.305C134.285 323.483 135.998 329.952 139.803 333.187C146.843 339.086 158.07 336.422 171.389 332.806C174.814 331.855 190.416 327.669 208.302 314.73C215.913 309.212 221.621 303.885 225.617 300.079C223.905 303.314 221.241 307.69 217.245 312.067C213.059 316.633 208.873 319.677 205.638 321.77C209.063 329.191 214.01 342.891 212.488 360.016C208.873 396.929 177.097 416.908 172.911 419.382C173.292 419.572 173.672 419.952 174.053 420.143C201.262 440.883 228.281 461.813 255.49 482.553C266.336 474.181 277.182 465.618 288.218 457.246C295.258 445.069 298.683 434.413 300.586 426.993C305.152 408.536 304.201 392.933 303.249 377.331C302.108 359.825 299.824 352.024 300.395 351.834C301.347 351.644 309.528 385.513 307.055 416.908C306.484 424.329 304.391 434.604 297.922 445.259C295.258 449.826 292.404 453.25 290.311 455.534C312.383 438.599 334.455 421.855 356.526 404.921C351.008 376.57 341.875 355.259 334.455 340.798C323.799 320.058 279.465 263.737 279.465 263.737C287.076 270.967 316.949 300.079 340.353 329.191Z" fill="white"/>
<path d="M255.11 245.28C270.768 245.28 283.461 232.842 283.461 217.5C283.461 202.157 270.768 189.72 255.11 189.72C239.452 189.72 226.759 202.157 226.759 217.5C226.759 232.842 239.452 245.28 255.11 245.28Z" fill="#EB8B0A"/>
<path d="M147.985 221.495V239.952L181.854 221.495H147.985Z" fill="#EB8B0A"/>
<path d="M386.209 154.519C384.116 108.472 365.089 69.2757 331.6 41.115C300.586 15.4278 259.296 1.15723 215.152 1.15723C177.668 1.15723 140.564 11.2418 107.456 30.6498L101.558 34.0748L157.118 100.1L161.495 96.485C182.805 79.17 209.254 69.466 235.892 69.466C251.495 69.466 266.336 72.5104 280.416 78.7894C328.746 100.1 342.256 148.05 344.539 157.373L345.681 161.94L386.59 159.847L386.209 154.519Z" fill="black" stroke="black" stroke-width="0.5262" stroke-miterlimit="10"/>
<path d="M108.979 35.7874C222.383 -30.4283 373.08 21.7071 379.169 155.09C368.894 155.661 358.81 156.041 348.535 156.612C347.013 150.333 333.693 97.2462 281.368 74.0327C240.649 55.9566 192.129 63.187 156.547 92.4893L108.979 35.7874Z" fill="#EB8B0A"/>
<defs>
<linearGradient id="paint0_linear_5_19" x1="255.798" y1="497.404" x2="255.798" y2="55.3877" gradientUnits="userSpaceOnUse">
<stop stop-color="white"/>
<stop offset="0.0586592" stop-color="#A5A5A4"/>
<stop offset="0.1419" stop-color="#3F3F3E"/>
<stop offset="0.5749"/>
</linearGradient>
<linearGradient id="paint1_linear_5_19" x1="255.798" y1="509.12" x2="255.798" y2="43.7545" gradientUnits="userSpaceOnUse">
<stop stop-color="#F4B66D"/>
<stop offset="0.1816" stop-color="#ED9527"/>
<stop offset="0.2877" stop-color="#EC8F18"/>
<stop offset="0.4078" stop-color="#EB8B0A"/>
<stop offset="0.6341" stop-color="#D88108"/>
<stop offset="1" stop-color="#CE7C07"/>
</linearGradient>
</defs>
</svg>
