<svg width="512" height="512" viewBox="0 0 512 512" fill="none" xmlns="http://www.w3.org/2000/svg">
<path d="M264.821 55.2465H364.63C379.839 55.2465 394.478 60.7598 407.026 70.8358L431.741 90.7978V264.752C431.741 324.448 406.455 380.341 364.44 413.231L265.011 491.178C265.011 491.178 260.828 494.41 256.646 497.642C252.463 494.41 248.281 491.178 248.281 491.178L148.851 413.231C106.836 380.341 81.5507 324.638 81.5507 264.752V90.7978L106.265 70.8358C118.813 60.7598 133.452 55.2465 148.661 55.2465H248.471H264.821Z" fill="url(#paint0_linear_5_3)"/>
<path opacity="0.1" d="M439.915 267.224C439.915 329.581 413.49 387.756 369.383 421.977L265.201 503.155C265.201 503.155 260.828 506.577 256.456 509.999C252.083 506.577 247.71 503.155 247.71 503.155L143.338 421.977C187.634 395.931 231.741 369.885 276.037 343.84C330.6 318.364 385.353 292.699 439.915 267.224Z" fill="white"/>
<path d="M408.547 346.311C405.125 337.566 400.562 329.201 394.858 321.786C391.817 317.794 385.163 309.809 373.946 300.874C371.094 298.592 368.433 296.691 365.771 294.98L365.961 291.368C366.151 289.467 368.623 244.79 358.927 195.551C353.223 166.463 344.288 141.748 332.501 122.167C317.482 97.2617 297.71 80.9119 273.566 73.4975C259.687 69.1249 246.189 67.0336 233.071 67.0336C201.893 67.0336 172.425 79.7712 148.281 103.726C132.121 119.695 123.186 135.665 121.284 139.467L88.2047 127.3L93.9081 211.9L126.988 214.372C126.418 244.03 107.786 264.182 107.596 264.372L104.174 267.984L107.216 271.786C111.589 277.3 118.433 280.341 126.227 280.341H126.418C126.418 281.102 126.418 281.672 126.227 282.433C126.037 283.193 125.657 283.954 125.087 284.524L124.897 284.714L124.707 284.904C120.714 290.798 121.284 295.36 122.425 298.022C123.186 299.543 124.136 300.874 125.087 301.824C124.326 304.296 124.516 306.197 125.087 307.718C126.037 310.95 128.509 312.851 130.79 314.182C129.84 325.018 131.931 332.433 137.254 336.805C141.056 340.037 145.809 341.558 151.893 341.558C158.357 341.558 165.391 339.847 173.946 337.566C178.699 336.425 189.345 333.003 202.463 325.398C207.026 336.235 208.927 347.642 207.976 358.858C204.744 392.128 176.798 410.76 171.094 413.992L163.87 418.364L170.524 423.497L256.646 489.467L293.718 460.76L294.478 459.429L294.859 459.999L357.786 411.9V412.471L363.3 407.908L364.06 407.338L367.862 404.106C375.657 397.452 382.691 390.037 389.155 382.242C396.76 372.737 403.223 362.281 408.356 351.444L409.307 349.163L408.547 346.311ZM340.866 337.756C340.676 337.376 340.486 336.995 340.106 336.425C347.9 347.071 353.223 357.147 355.505 366.273C357.216 372.737 357.976 379.961 358.166 381.862C353.794 366.463 347.9 351.634 340.866 337.756Z" fill="black"/>
<path d="M264.821 48.7827H353.604H364.63C368.623 48.7827 372.805 49.1629 376.798 49.9234C384.782 51.4443 392.577 54.1058 399.611 58.0982C403.224 59.9994 406.455 62.2807 409.687 64.7522C411.398 66.083 412.729 67.0336 414.06 68.3644L418.433 71.7865L435.733 85.8549C437.254 86.9956 438.014 88.8968 438.014 90.6078V90.7979L439.345 210.57L439.725 240.608L439.915 255.627C439.915 260.57 440.106 265.513 439.915 270.836C439.725 291.558 436.113 312.281 430.03 332.243C426.798 342.128 422.995 352.014 418.243 361.33C417.102 363.801 415.771 365.893 414.63 368.364C413.3 370.646 412.159 372.927 410.638 375.208L406.455 381.862L401.893 388.326C395.619 396.691 388.775 405.056 380.98 412.09C379.079 413.992 376.988 415.703 375.087 417.414C372.995 419.125 370.904 421.026 369.003 422.547L357.216 431.862L263.68 506.767C259.307 510.189 253.414 509.999 249.231 506.767L155.695 431.862L143.908 422.547C142.007 421.026 139.916 419.125 137.824 417.414C135.733 415.703 133.832 413.992 131.931 412.09C124.136 404.866 117.292 396.691 111.018 388.326L106.456 381.862L102.273 375.208C100.752 372.927 99.6115 370.646 98.2807 368.364C97.1401 366.083 95.6192 363.801 94.6686 361.33C89.9157 352.014 86.1135 342.128 82.8815 332.243C76.7979 312.281 73.1857 291.558 72.9956 270.836C72.8055 265.513 72.9956 260.57 72.9956 255.627L73.1857 240.608L73.5659 210.57L74.8967 90.7979C74.8967 88.8967 75.8473 86.9956 77.1781 85.8549L95.9994 70.4556L100.752 66.6534C101.513 66.083 102.273 65.3226 103.224 64.7522C103.984 63.9918 104.935 63.4214 105.885 62.8511C109.497 60.3796 113.3 58.0983 117.292 56.007C125.277 52.2047 134.022 49.7332 142.767 48.9728C144.859 48.7827 147.33 48.7827 149.421 48.7827H155.505H167.672H264.821ZM264.821 61.5204H167.672H155.505H149.421C147.33 61.5204 145.809 61.5203 143.908 61.7104C136.684 62.2808 129.459 64.1819 122.996 67.4139C119.764 68.9348 116.532 70.8359 113.49 73.1173C112.729 73.6876 111.969 74.258 111.208 74.8283C110.448 75.3987 109.688 75.969 108.927 76.5393L104.174 80.3416L85.353 95.7409L87.6344 90.7979L88.9652 210.57L89.3454 240.608L89.5355 255.627V263.041C89.5355 265.513 89.7256 267.794 89.7256 270.265C90.296 289.467 94.0983 308.478 99.9918 326.539C103.224 335.475 106.836 344.41 111.208 352.775C112.159 354.866 113.49 356.957 114.631 359.049C115.771 361.14 116.912 363.231 118.243 365.132L122.045 371.026L126.227 376.729C131.931 384.144 138.205 391.368 145.239 397.452C146.95 399.163 148.661 400.493 150.562 402.014C152.463 403.535 153.984 404.866 156.075 406.387L168.053 415.512L263.3 488.326H248.851L344.098 415.512L356.075 406.387C358.166 404.866 359.687 403.345 361.589 402.014C363.49 400.493 365.201 399.163 366.912 397.452C373.946 391.368 380.03 384.144 385.923 376.729L390.106 371.026L393.908 365.132C395.239 363.231 396.379 361.14 397.52 359.049C398.661 356.957 399.992 355.056 400.942 352.775C405.315 344.41 408.927 335.475 412.159 326.539C418.242 308.478 421.855 289.467 422.425 270.265C422.425 267.794 422.615 265.513 422.615 263.041V255.627L422.805 240.608L423.185 210.57L424.516 90.7979L426.798 95.7409L409.497 81.6724L405.125 78.2504C403.794 77.1097 402.273 75.7789 400.942 74.8283C398.281 72.7371 395.429 70.8359 392.577 69.315C386.684 66.0831 380.41 63.6116 373.756 62.4709C370.524 61.9006 367.102 61.5204 363.87 61.5204H352.843H264.821Z" fill="url(#paint1_linear_5_3)"/>
<path opacity="0.25" d="M263.3 48.5927H366.912C382.691 48.5927 397.9 54.2961 411.018 64.9425L436.684 85.8551C380.6 122.927 324.706 159.809 268.623 196.882C203.414 220.646 138.205 244.22 72.9956 267.984C73.756 207.718 74.3264 147.642 75.0868 87.3759C82.8815 81.2923 90.8663 75.0185 98.6609 68.9349C103.224 64.7524 110.448 58.8589 121.094 54.4863C129.84 50.8741 137.634 49.5433 143.338 49.1631C177.558 48.973 211.969 48.7828 246.189 48.5927H263.3Z" fill="black"/>
<path d="M341.246 329.391C345.429 334.714 356.836 349.163 361.018 365.893C363.109 373.878 363.87 382.813 363.87 382.813C364.44 389.657 364.44 395.551 364.25 400.303C370.524 394.98 377.558 387.946 384.782 379.201C393.338 368.364 399.231 357.908 403.224 349.543C400.942 343.459 396.95 335.094 390.296 326.349C388.395 323.878 382.121 315.893 370.334 306.577C352.273 292.319 341.246 291.939 317.862 275.969C311.018 271.406 305.885 267.224 302.653 264.562L360.068 292.129C360.068 292.129 370.904 111.14 271.665 79.9614C172.425 48.7827 125.657 143.65 125.657 143.65L194.669 173.497L94.2884 136.615L99.0412 207.528L219.003 216.463C221.094 197.072 237.254 182.433 255.505 182.243C277.558 181.863 295.809 202.775 292.767 223.497C290.486 239.657 275.657 252.585 258.927 253.726C239.916 255.056 221.665 240.798 218.623 220.266L132.691 212.091C133.452 246.311 111.779 269.125 111.779 269.125C118.813 277.87 130.79 275.018 130.79 275.018C131.361 276.159 133.262 280.342 131.741 284.904C131.17 286.615 130.41 287.946 129.65 288.897C123.186 298.592 133.262 300.494 133.262 300.494C125.467 308.859 137.254 311.33 137.254 311.33C135.543 323.497 137.254 329.961 141.056 333.193C148.091 339.087 159.307 336.425 172.615 332.813C176.037 331.862 191.627 327.68 209.688 314.752C217.292 309.239 222.996 303.916 226.988 300.113C225.277 303.345 222.615 307.718 218.623 312.091C214.44 316.653 210.258 319.885 207.026 321.786C210.448 329.201 215.581 342.889 213.87 359.999C210.258 397.072 178.509 417.033 174.326 419.505C174.707 419.885 175.087 420.075 175.467 420.456C202.653 441.178 229.84 462.09 257.026 482.813C267.862 474.448 278.889 465.893 289.725 457.528C296.76 445.36 300.182 434.524 302.083 427.11C306.646 408.668 305.885 393.079 304.935 377.49C303.794 359.999 301.513 352.015 302.083 352.015C303.033 351.824 311.208 385.665 308.737 417.224C308.167 424.638 306.075 434.904 299.611 445.741C296.95 450.303 293.908 453.726 292.007 456.007C314.06 439.087 336.303 422.167 358.357 405.436C352.843 377.11 343.718 355.817 336.303 341.178C325.467 320.265 281.17 264.182 281.17 264.182C287.824 271.026 317.672 300.113 341.246 329.391Z" fill="white"/>
<path d="M255.885 245.171C271.53 245.171 284.212 232.743 284.212 217.414C284.212 202.084 271.53 189.657 255.885 189.657C240.241 189.657 227.558 202.084 227.558 217.414C227.558 232.743 240.241 245.171 255.885 245.171Z" fill="#E30613"/>
<path d="M148.661 221.406V239.847L182.501 221.406H148.661Z" fill="#E30613"/>
<path d="M368.433 159.049H386.113L385.923 153.155C385.163 132.623 379.459 92.8891 350.562 58.2883C311.589 11.5203 257.216 5.2465 234.022 2.39479C176.227 -4.25919 129.459 15.8929 106.836 28.6305L112.349 38.5164C121.094 33.5735 133.832 27.4898 149.612 22.3568L162.919 57.5278L173.566 53.5355L160.638 19.315C173.566 15.8929 188.205 13.4214 204.174 12.661L209.878 59.0487C203.794 60.5696 198.091 62.6609 192.387 65.5126L197.52 75.5887C203.794 72.5468 210.258 70.2655 217.102 68.9347C223.756 67.6039 230.6 67.4138 237.444 67.9841L238.585 56.5773C232.691 56.0069 226.798 56.007 221.094 56.7674L215.581 12.2807C221.094 12.4709 226.988 12.851 232.691 13.4214C250.182 15.5126 286.494 19.6952 318.623 43.4595L299.041 74.0678C297.33 73.1172 295.429 71.9766 293.718 71.026C284.973 66.4633 275.467 62.851 265.771 60.3795L262.919 71.4061C271.665 73.6875 280.22 76.9195 288.205 81.102C293.338 83.9537 298.471 86.9955 303.224 90.6077L310.068 81.4823C309.497 81.102 308.927 80.7217 308.357 80.3415L327.368 50.6838C332.311 55.0564 337.064 59.8093 341.627 65.3226C365.771 94.2199 372.425 127.3 373.946 147.452H368.243V159.049H368.433Z" fill="black"/>
<path d="M333.452 101.824L350.562 92.6988L345.239 82.6228L325.847 93.0791C323.756 90.9878 321.855 88.8965 319.573 86.9954L311.969 95.3605C320.714 103.155 328.129 112.281 334.212 122.166C340.296 132.243 345.049 143.269 348.091 154.676L359.117 151.824C355.885 139.277 350.752 127.3 343.908 116.273C340.676 111.33 337.254 106.387 333.452 101.824Z" fill="black"/>
<path d="M158.547 83.1933L133.452 53.1553L124.707 60.3796L156.266 98.2123L182.311 81.2921L176.037 71.7864L158.547 83.1933Z" fill="black"/>
<path d="M253.998 25.0226L250.618 59.6499L261.971 60.7582L265.352 26.1309L253.998 25.0226Z" fill="black"/>
<path d="M168.433 63.9916C173.053 63.9916 176.798 60.2464 176.798 55.6265C176.798 51.0067 173.053 47.2616 168.433 47.2616C163.813 47.2616 160.068 51.0067 160.068 55.6265C160.068 60.2464 163.813 63.9916 168.433 63.9916Z" fill="black" stroke="black" stroke-width="0.4852" stroke-miterlimit="10"/>
<path d="M109.878 25.3987C105.315 25.3987 101.513 29.2009 101.513 33.7636C101.513 38.3264 105.315 42.1287 109.878 42.1287C114.44 42.1287 118.243 38.3264 118.243 33.7636C118.243 29.2009 114.44 25.3987 109.878 25.3987Z" fill="black" stroke="black" stroke-width="0.4852" stroke-miterlimit="10"/>
<path d="M195.049 62.2806C190.106 62.2806 185.733 67.4138 186.684 70.6457C187.634 73.8776 193.338 74.638 193.718 74.638C197.33 75.0183 202.653 73.8776 203.604 70.6457C204.364 67.4138 199.992 62.2806 195.049 62.2806Z" fill="black" stroke="black" stroke-width="0.4852" stroke-miterlimit="10"/>
<path d="M238.204 54.2959C233.452 54.2959 229.079 58.6686 229.839 62.661C230.41 66.083 234.782 68.1743 238.014 68.1743C241.627 68.1743 245.999 66.083 246.569 62.661C247.33 58.6686 242.767 54.2959 238.204 54.2959Z" fill="black" stroke="black" stroke-width="0.4852" stroke-miterlimit="10"/>
<path d="M259.687 17.2236C255.125 17.2236 251.322 21.026 251.322 25.5887C251.322 30.1514 255.125 33.9538 259.687 33.9538C264.25 33.9538 268.052 30.1514 268.052 25.5887C268.052 21.026 264.44 17.2236 259.687 17.2236Z" fill="black" stroke="black" stroke-width="0.4852" stroke-miterlimit="10"/>
<path d="M356.455 87.5657C356.455 83.003 352.653 79.2008 348.09 79.2008C343.528 79.2008 339.725 83.003 339.725 87.5657C339.725 92.1285 343.528 95.9308 348.09 95.9308C352.653 95.9308 356.455 92.3186 356.455 87.5657Z" fill="black" stroke="black" stroke-width="0.4852" stroke-miterlimit="10"/>
<path d="M368.623 144.98C365.391 144.98 362.539 146.881 361.018 149.733C359.687 146.881 356.836 144.98 353.414 144.98C348.851 144.98 345.049 148.782 345.049 153.345C345.049 157.908 348.851 161.71 353.414 161.71C356.646 161.71 359.497 159.809 361.018 156.957C362.349 159.809 365.201 161.71 368.623 161.71C373.185 161.71 376.988 157.908 376.988 153.345C377.178 148.782 373.376 144.98 368.623 144.98Z" fill="black" stroke="black" stroke-width="0.4852" stroke-miterlimit="10"/>
<path d="M129.269 48.4023C124.707 48.4023 120.904 52.2047 120.904 56.7674C120.904 61.3301 124.707 65.1323 129.269 65.1323C133.832 65.1323 137.634 61.3301 137.634 56.7674C137.634 52.2047 133.832 48.4023 129.269 48.4023Z" fill="black" stroke="black" stroke-width="0.4852" stroke-miterlimit="10"/>
<path d="M168.243 61.1402C171.288 61.1402 173.756 58.6718 173.756 55.6269C173.756 52.582 171.288 50.1136 168.243 50.1136C165.198 50.1136 162.729 52.582 162.729 55.6269C162.729 58.6718 165.198 61.1402 168.243 61.1402Z" fill="#E30613" stroke="#E30613" stroke-width="0.4852" stroke-miterlimit="10"/>
<path d="M109.688 39.277C112.733 39.277 115.201 36.8085 115.201 33.7636C115.201 30.7187 112.733 28.2504 109.688 28.2504C106.643 28.2504 104.174 30.7187 104.174 33.7636C104.174 36.8085 106.643 39.277 109.688 39.277Z" fill="#E30613" stroke="#E30613" stroke-width="0.4852" stroke-miterlimit="10"/>
<path d="M194.859 76.1592C197.904 76.1592 200.372 73.6908 200.372 70.6459C200.372 67.601 197.904 65.1326 194.859 65.1326C191.814 65.1326 189.345 67.601 189.345 70.6459C189.345 73.6908 191.814 76.1592 194.859 76.1592Z" fill="#E30613" stroke="#E30613" stroke-width="0.4852" stroke-miterlimit="10"/>
<path d="M238.015 68.1743C241.059 68.1743 243.528 65.7058 243.528 62.6609C243.528 59.616 241.059 57.1476 238.015 57.1476C234.97 57.1476 232.501 59.616 232.501 62.6609C232.501 65.7058 234.97 68.1743 238.015 68.1743Z" fill="#E30613" stroke="#E30613" stroke-width="0.4852" stroke-miterlimit="10"/>
<path d="M259.497 31.1023C262.542 31.1023 265.011 28.6338 265.011 25.5889C265.011 22.544 262.542 20.0756 259.497 20.0756C256.452 20.0756 253.984 22.544 253.984 25.5889C253.984 28.6338 256.452 31.1023 259.497 31.1023Z" fill="#E30613" stroke="#E30613" stroke-width="0.4852" stroke-miterlimit="10"/>
<path d="M347.71 93.0793C350.755 93.0793 353.224 90.6109 353.224 87.566C353.224 84.5211 350.755 82.0527 347.71 82.0527C344.665 82.0527 342.197 84.5211 342.197 87.566C342.197 90.6109 344.665 93.0793 347.71 93.0793Z" fill="#E30613" stroke="#E30613" stroke-width="0.4852" stroke-miterlimit="10"/>
<path d="M353.414 158.859C356.459 158.859 358.927 156.39 358.927 153.346C358.927 150.301 356.459 147.832 353.414 147.832C350.369 147.832 347.901 150.301 347.901 153.346C347.901 156.39 350.369 158.859 353.414 158.859Z" fill="#E30613" stroke="#E30613" stroke-width="0.4852" stroke-miterlimit="10"/>
<path d="M368.433 158.859C371.478 158.859 373.946 156.39 373.946 153.346C373.946 150.301 371.478 147.832 368.433 147.832C365.388 147.832 362.919 150.301 362.919 153.346C362.919 156.39 365.388 158.859 368.433 158.859Z" fill="#E30613" stroke="#E30613" stroke-width="0.4852" stroke-miterlimit="10"/>
<path d="M129.079 62.2807C132.124 62.2807 134.593 59.8124 134.593 56.7675C134.593 53.7226 132.124 51.2542 129.079 51.2542C126.034 51.2542 123.566 53.7226 123.566 56.7675C123.566 59.8124 126.034 62.2807 129.079 62.2807Z" fill="#E30613" stroke="#E30613" stroke-width="0.4852" stroke-miterlimit="10"/>
<path d="M368.433 153.345C372.425 153.345 376.227 153.345 380.22 153.345C379.649 137.946 375.847 97.4518 346.189 61.9005C308.737 16.8435 255.695 10.7599 233.262 8.09827C173.566 1.06405 127.558 23.6877 109.497 33.5736" stroke="#E30613" stroke-width="2.9552" stroke-miterlimit="10"/>
<path d="M194.859 70.6457C199.802 68.1743 207.026 65.1324 215.961 63.6115C224.706 61.9005 232.311 62.0906 237.824 62.6609" stroke="#E30613" stroke-width="2.9552" stroke-miterlimit="10"/>
<path d="M209.117 6.95764L216.341 65.893" stroke="#E30613" stroke-width="2.9552" stroke-miterlimit="10"/>
<path d="M264.44 66.2733C271.855 68.1745 281.17 71.2162 291.056 76.5394C297.14 79.7713 302.463 83.1934 306.836 86.6154" stroke="#E30613" stroke-width="2.9552" stroke-miterlimit="10"/>
<path d="M353.414 153.345C351.132 144.6 346.95 132.433 338.965 119.315C331.17 106.387 322.425 97.2617 315.771 91.1781" stroke="#E30613" stroke-width="2.9552" stroke-miterlimit="10"/>
<path d="M326.227 42.509L302.083 80.1516" stroke="#E30613" stroke-width="2.9552" stroke-miterlimit="10"/>
<path d="M179.079 76.5394C171.855 81.2922 164.631 86.0451 157.216 90.7979L128.889 56.7676" stroke="#E30613" stroke-width="2.9552" stroke-miterlimit="10"/>
<path d="M153.034 15.3226L168.243 55.6268" stroke="#E30613" stroke-width="2.9552" stroke-miterlimit="10"/>
<path d="M259.497 25.5889L256.265 60.1896" stroke="#E30613" stroke-width="2.9552" stroke-miterlimit="10"/>
<path d="M347.71 87.5658L326.227 99.1628" stroke="#E30613" stroke-width="2.9552" stroke-miterlimit="10"/>
<defs>
<linearGradient id="paint0_linear_5_3" x1="256.566" y1="497.666" x2="256.566" y2="55.1602" gradientUnits="userSpaceOnUse">
<stop stop-color="white"/>
<stop offset="0.0586592" stop-color="#A5A5A4"/>
<stop offset="0.1419" stop-color="#3F3F3E"/>
<stop offset="0.5749"/>
</linearGradient>
<linearGradient id="paint1_linear_5_3" x1="256.566" y1="509.395" x2="256.566" y2="43.5145" gradientUnits="userSpaceOnUse">
<stop stop-color="#F7B39A"/>
<stop offset="0.0586592" stop-color="#F18B6C"/>
<stop offset="0.1313" stop-color="#ED6B4C"/>
<stop offset="0.2151" stop-color="#E94D33"/>
<stop offset="0.2821" stop-color="#E63323"/>
<stop offset="0.6034" stop-color="#E30613"/>
</linearGradient>
</defs>
</svg>
