<svg xmlns="http://www.w3.org/2000/svg" xmlns:xlink="http://www.w3.org/1999/xlink" version="1.1" id="Layer_1" x="0px" y="0px" style="enable-background:new 0 0 176.6 33;" xml:space="preserve" viewBox="1.40 1.00 27.10 30.80">
<style type="text/css">
	.st0{fill:#9FEF00;}
	.st1{fill:#FFFFFF;}
</style>
<path class="st0" d="M28.5,9.3C28.5,9.3,28.5,9.3,28.5,9.3c0-0.3-0.1-0.6-0.3-0.8c0,0,0,0,0,0c0,0,0,0-0.1-0.1c0,0-0.1,0-0.1-0.1  c0,0,0,0,0,0L15.5,1.2c0,0-0.1,0-0.1,0C15.3,1,15.1,1,14.9,1c-0.1,0-0.2,0-0.3,0.1c-0.1,0-0.1,0.1-0.2,0.1L2,8.3c0,0,0,0,0,0  c0,0,0,0,0,0c0,0,0,0,0,0C1.8,8.4,1.7,8.5,1.7,8.5c0,0,0,0,0,0C1.5,8.7,1.4,9,1.4,9.3c0,0,0,0,0,0c0,0,0,0,0,0v14.3  c0,0.4,0.2,0.8,0.6,1l12.4,7.1c0,0,0,0,0.1,0c0,0,0,0,0,0c0.1,0,0.1,0.1,0.2,0.1c0,0,0,0,0,0c0.1,0,0.2,0,0.2,0c0.1,0,0.2,0,0.2,0  c0,0,0,0,0,0c0.1,0,0.1,0,0.2-0.1c0,0,0,0,0,0c0,0,0,0,0.1,0l12.4-7.1c0.4-0.2,0.6-0.6,0.6-1L28.5,9.3C28.5,9.3,28.5,9.3,28.5,9.3z   M6.3,8.8L14.7,4c0.2-0.1,0.4-0.1,0.5,0l8.4,4.9C24,9,24,9.6,23.6,9.8l-8.4,4.9c-0.2,0.1-0.4,0.1-0.5,0L6.3,9.8  C5.9,9.6,5.9,9,6.3,8.8z M13.5,27.3c0,0.4-0.4,0.7-0.8,0.5l-8.4-4.9C4.1,22.8,4,22.6,4,22.5v-9.7c0-0.4,0.4-0.7,0.8-0.5l8.4,4.9  c0.2,0.1,0.3,0.3,0.3,0.5V27.3z M25.9,22.5c0,0.2-0.1,0.4-0.3,0.5l-8.4,4.9c-0.4,0.2-0.8-0.1-0.8-0.5v-9.7c0-0.2,0.1-0.4,0.3-0.5  l8.4-4.9c0.4-0.2,0.8,0.1,0.8,0.5V22.5z"></path>
</svg>
