<svg width="512" height="512" viewBox="0 0 512 512" fill="none" xmlns="http://www.w3.org/2000/svg">
<path opacity="0.3" d="M182.191 43.199C177.898 43.1476 173.557 43.1989 169.004 43.2292C158.079 43.295 147.845 43.728 135.958 46.2233C95.673 54.6805 60.492 77.4962 42.0408 116.15C42.0404 116.151 42.0392 116.153 42.0388 116.154L37.2302 126.228C34.2064 132.563 32.5502 139.463 32.3691 146.48L31.4883 180.692C30.9955 199.818 29.88 209.936 32.7969 226.098C35.7137 242.259 55.3506 265.691 62.8626 270.506C76.9762 279.558 95.9342 281.005 106.685 280.504C112.126 280.251 117.754 280.615 128.769 277.092C133.632 275.536 138.664 272.613 143.204 269.506V282.475C143.219 284.491 143.355 286.505 143.612 288.506C142.343 292.952 141.696 297.552 141.69 302.175V341.391C141.713 347.176 142.738 352.914 144.721 358.349C143.731 362.278 143.221 366.313 143.204 370.365V409.572C143.208 426.667 151.946 442.574 166.369 451.751C175.862 462.616 189.585 468.852 204.013 468.856H420.506C436.217 468.833 451.005 461.432 460.436 448.866C472.956 439.436 480.33 424.682 480.356 409.008V371.123C480.348 366.232 479.627 361.369 478.209 356.688C480.113 351.35 481.095 345.727 481.113 340.06V302.175C481.102 298.584 480.704 295.006 479.926 291.501C480.695 288.039 481.093 284.505 481.113 280.958V241.558C481.095 226.013 473.854 211.36 461.513 201.908C444.487 179.911 412.784 176.037 390.962 193.287L381.421 200.851C371.93 189.223 357.717 182.474 342.708 182.467H309.535L309.117 146.194C309.032 138.727 307.274 131.374 303.975 124.675L298.897 114.367C283.777 83.6723 255.868 61.0123 223.868 50.0595C207.513 44.461 195.071 43.3551 182.191 43.199ZM427.885 191.538C427.915 191.539 428.006 191.557 428.036 191.557H426.569C426.588 191.557 426.919 191.49 427.885 191.538ZM472.021 235.546C472.079 236.578 472.021 236.998 472.021 237.012V235.546ZM470.505 414.404C470.505 414.56 470.594 415.969 470.505 418.023V414.404Z" fill="#141D2B" stroke="#A4B1CD" stroke-width="19.9996" stroke-linejoin="round"/>
<path d="M182.194 43.1651C177.9 43.1135 173.558 43.165 169.006 43.1937C158.081 43.2596 147.847 43.6925 135.96 46.1878C95.6733 54.6454 60.4945 77.4609 42.0467 116.113C42.0463 116.114 42.0471 116.112 42.0467 116.113L37.2362 126.191C34.2124 132.525 32.5561 139.426 32.375 146.442L31.4941 180.655C31.0013 199.781 29.8859 209.899 32.8027 226.06C35.7196 242.221 55.3565 265.651 62.8685 270.469C76.9818 279.521 95.94 280.967 106.692 280.467C112.133 280.214 117.761 280.578 128.775 277.055C133.638 275.499 138.671 272.576 143.211 269.469V282.437C143.225 284.454 143.361 286.468 143.619 288.468C142.349 292.914 141.703 297.515 141.697 302.138V341.354C141.719 347.139 142.744 352.877 144.728 358.312C143.737 362.241 143.228 366.276 143.211 370.328V409.536C143.216 426.63 151.953 442.538 166.376 451.713C175.869 462.578 189.592 468.814 204.02 468.818H420.514C436.224 468.795 451.013 461.394 460.443 448.828C472.963 439.398 480.336 424.644 480.362 408.97V371.086C480.357 366.195 479.633 361.332 478.216 356.651C480.119 351.312 481.101 345.69 481.12 340.022V302.138C481.109 298.548 480.711 294.969 479.933 291.464C480.701 288.002 481.099 284.468 481.12 280.921V241.522C481.103 225.977 473.861 211.324 461.519 201.872C444.493 179.876 412.789 176.002 390.969 193.252L381.429 200.816C371.937 189.188 357.724 182.438 342.715 182.431H309.542L309.124 146.159C309.038 138.692 307.281 131.339 303.981 124.64L298.903 114.332C283.783 83.638 255.875 60.9794 223.875 50.0253C207.52 44.4267 195.074 43.3208 182.194 43.1651ZM427.891 191.504C427.92 191.505 428.012 191.521 428.042 191.521H426.575C426.592 191.521 426.926 191.454 427.891 191.504ZM472.029 235.51C472.087 236.543 472.029 236.962 472.029 236.977V235.51ZM470.514 414.37C470.514 414.526 470.602 415.935 470.514 417.989V414.37Z" fill="#141D2B"/>
<path d="M169.179 93.184C160.42 93.2368 152.084 93.8562 146.104 95.1117C119.917 100.609 96.7507 117.292 87.0377 137.645L82.2273 147.722L81.3464 181.935C80.3753 219.622 80.9368 222.738 89.7292 228.376C92.8392 230.371 96.3251 230.885 104.235 230.517C113.24 230.098 115.104 229.502 118.026 226.105C121.231 222.379 121.445 220.507 122.208 189.691C123.075 154.633 123.605 152.161 131.952 144.234C144.989 131.853 175.359 127.526 198.908 134.693C208.996 137.763 219.695 147.205 221.842 154.931C222.684 157.963 223.377 174.488 223.381 191.654C223.389 220.676 223.596 223.052 226.346 225.541C230.627 229.414 246.703 230.457 254.151 227.345L259.903 224.943L259.452 185.836L259.001 146.729L253.923 136.42C244.959 118.223 228.792 104.592 207.552 97.3206C199.552 94.5823 183.779 93.0959 169.181 93.1839L169.179 93.184ZM309.309 232.423C223.757 232.423 196.279 232.86 194.899 234.242C193.643 235.498 193.079 243.233 193.079 259.246V282.432H203.688V302.133H191.565V341.349L197.247 341.82L202.93 342.289L203.366 356.307L203.801 370.325H193.078V409.534L198.004 410.008C202.108 410.404 203.009 411.178 203.408 414.651L203.889 418.817H420.388V414.368C420.388 410.455 420.981 409.859 425.312 409.442L430.238 408.967V371.082L426.07 370.604L421.904 370.123V340.018H430.995V302.134H421.904V280.917H430.995V241.517H426.449C422.408 241.517 421.904 241.013 421.904 236.972V232.425L390.539 257.292L399.052 262.444L364.553 286.415L380.684 295.601L291.746 343.092L324.228 295.376L311.683 291.342L337.447 257.964L326.918 254.38L342.586 232.425L309.309 232.423Z" fill="#1793D1"/>
</svg>
