<svg width="512" height="512" viewBox="0 0 512 512" fill="none" xmlns="http://www.w3.org/2000/svg">
<path opacity="0.2" d="M295.61 30.507C290.699 30.3779 286.212 30.9523 281.714 31.3937C273.185 32.2307 264.698 32.9052 254.507 38.6125C244.219 33.6125 233.224 30.9289 224.4 30.9289C214.5 30.9289 201.954 33.5557 190.439 39.4387C180.022 34.0202 168.647 30.9289 159.293 30.9289C146.161 30.9289 122.735 35.1774 107.348 52.3289C95.6431 65.3759 92.0151 77.8329 90.3231 88.6019C90.2296 88.6819 90.1326 88.7594 90.0399 88.8402C73.5099 90.2635 57.4059 96.0675 41.5009 119.887H41.4989C27.3179 141.125 30.2619 152.87 31.4699 164.778C32.351 173.464 32.8967 182.002 39.0343 192.54C33.8182 203.219 31.0813 214.681 31.0323 224.019V224.023V224.025C30.9893 232.41 33.2524 243.609 38.1573 254.295C32.8334 263.857 32.5268 272.037 31.5753 280.041C30.2445 291.235 27.7535 302.396 37.8839 320.369C32.7913 329.745 32.5124 337.787 31.5753 345.67C30.1008 358.073 27.0438 370.35 41.5011 392.002C57.1841 415.489 73.6681 421.435 90.1851 422.963C91.7638 436.744 96.0767 453.178 115.839 467.629L115.841 467.631C137.089 483.165 143.08 480.961 159.294 480.961C168.648 480.961 180.023 477.87 190.44 472.451C201.955 478.334 214.501 480.961 224.401 480.961C233.083 480.961 243.872 478.381 254.016 473.537C263.731 479.026 272.133 479.455 280.272 480.395C291.643 481.708 303.013 483.548 320.454 474.035C329.834 479.106 337.986 479.48 345.903 480.395C358.396 481.837 370.801 484.078 391.362 471.004C415.289 455.79 414.72 444.656 418.18 434.44C419.538 430.433 420.585 426.424 421.452 422.336C431.948 420.702 443.101 416.958 454.255 408.613C471.926 395.392 480.887 370.761 480.978 353.502V353.498C481.025 344.353 478.372 331.849 472.474 320.33C478.014 309.377 480.927 297.496 480.978 287.871V287.867C481.021 279.482 478.758 268.282 473.853 257.596C479.177 248.035 479.483 239.854 480.435 231.85C481.765 220.656 484.256 209.495 474.126 191.522C479.219 182.147 479.498 174.104 480.435 166.221C481.909 153.818 484.966 141.541 470.509 119.889V119.887C454.836 96.4152 438.762 90.4682 422.409 88.9362C421.97 88.501 421.498 88.0778 421.038 87.6628C420.243 84.2512 419.335 80.875 418.196 77.5028C414.738 67.2678 415.265 56.0848 391.364 40.8878C371.248 28.0968 359.343 30.2188 347.346 31.3956C339.057 32.209 330.801 32.8893 320.991 38.1593C310.786 32.4992 302.715 30.6957 295.612 30.5089L295.61 30.507Z" fill="#141D2B" stroke="#A4B1CD" stroke-width="20"/>
<path d="M295.61 30.5619C290.699 30.4328 286.212 31.0072 281.714 31.4487C273.185 32.2856 264.698 32.9602 254.507 38.6675C244.219 33.6675 233.224 30.9839 224.4 30.9839C214.5 30.9839 201.954 33.6107 190.439 39.4937C180.022 34.0752 168.647 30.9839 159.293 30.9839C146.161 30.9839 122.735 35.2324 107.348 52.3839C95.643 65.4309 92.015 77.8879 90.323 88.6569C90.2295 88.7368 90.1325 88.8143 90.0398 88.8951C73.5098 90.3184 57.4058 96.1224 41.5008 119.942H41.4988C27.3178 141.18 30.2618 152.925 31.4698 164.833C32.3509 173.519 32.8966 182.057 39.0343 192.595C33.8182 203.274 31.0813 214.736 31.0323 224.074V224.078V224.08C30.9894 232.465 33.2524 243.664 38.1573 254.35C32.8334 263.912 32.5268 272.092 31.5753 280.096C30.2445 291.29 27.7535 302.451 37.8839 320.424C32.7913 329.8 32.5124 337.842 31.5753 345.725C30.1008 358.128 27.0438 370.405 41.5011 392.057C57.1841 415.544 73.6681 421.49 90.1851 423.018C91.7638 436.799 96.0767 453.233 115.839 467.684L115.841 467.686C137.089 483.22 143.08 481.016 159.294 481.016C168.648 481.016 180.023 477.925 190.44 472.506C201.955 478.389 214.501 481.016 224.401 481.016C233.083 481.016 243.872 478.436 254.016 473.592C263.731 479.081 272.133 479.51 280.272 480.45C291.643 481.763 303.013 483.603 320.454 474.09C329.834 479.161 337.986 479.535 345.903 480.45C358.396 481.892 370.801 484.133 391.362 471.059C415.289 455.845 414.72 444.711 418.18 434.495C419.538 430.488 420.585 426.478 421.452 422.391C431.948 420.757 443.101 417.013 454.255 408.668C471.926 395.447 480.887 370.816 480.978 353.557V353.553C481.025 344.408 478.372 331.904 472.474 320.385C478.014 309.432 480.927 297.551 480.978 287.926V287.922C481.021 279.537 478.758 268.337 473.853 257.651C479.177 248.089 479.483 239.909 480.435 231.905C481.765 220.711 484.256 209.55 474.126 191.577C479.219 182.202 479.497 174.159 480.435 166.276C481.909 153.873 484.966 141.596 470.509 119.944V119.942C454.836 96.4701 438.762 90.5231 422.409 88.9911C421.97 88.5559 421.498 88.1327 421.038 87.7177C420.243 84.3062 419.335 80.9299 418.196 77.5577C414.738 67.3227 415.265 56.1397 391.364 40.9427C371.248 28.1517 359.343 30.2737 347.346 31.4505C339.057 32.2639 330.801 32.9442 320.991 38.2142C310.786 32.5541 302.715 30.7506 295.612 30.5638L295.61 30.5619Z" fill="#141D2B"/>
<path d="M145.35 427.32C141.817 424.737 139.916 418.987 139.019 408.178C138.232 398.681 136.472 392.728 134.452 392.728C130.315 392.728 119.274 381.161 119.274 376.828C119.274 374.86 114.904 373.586 108.156 373.586C96.9306 373.586 86.7756 369.82 83.0816 364.289C79.275 358.588 80.9647 344.374 85.9896 339.827C89.2859 336.844 95.8107 335.301 105.132 335.301H119.274V307.955H108.156C96.9306 307.955 86.7756 304.189 83.0816 298.658C79.275 292.957 80.9647 278.743 85.9896 274.196C89.2859 271.213 95.8107 269.67 105.132 269.67H119.274V242.324H104.658C87.7956 242.324 80.9646 237.123 81.0316 224.334C81.1027 210.488 89.723 204.04 108.157 204.04H119.275V176.694H104.659C93.9716 176.694 88.8256 175.35 85.5166 171.694C80.8724 166.562 79.5037 153.069 83.0836 147.707C86.7127 142.272 96.8586 138.41 107.509 138.41C115.712 138.41 118.563 137.088 120.678 132.305C122.162 128.948 126.453 124.687 130.213 122.838C135.927 120.026 137.336 116.906 138.792 103.837C140.763 86.1386 145.388 80.9836 159.295 80.9836C171.021 80.9836 176.702 89.2148 176.702 106.204V119.269H204.048V105.596C204.048 88.7636 210.481 80.9836 224.403 80.9836C236.69 80.9836 242.333 88.9208 242.333 106.204V119.269H269.679V104.653C269.679 93.9656 271.023 88.8196 274.679 85.5106C279.854 80.8281 293.217 79.5169 298.904 83.1334C303.597 86.1174 307.963 99.0064 307.963 109.876V119.27H335.309V104.654C335.309 93.9665 336.653 88.8205 340.31 85.5115C345.484 80.829 358.848 79.5178 364.535 83.1343C369.238 86.1249 373.594 99.0153 373.594 109.945C373.594 117.533 374.954 119.923 380.464 122.018C384.242 123.455 388.747 127.732 390.474 131.522C393.05 137.175 395.533 138.413 404.293 138.413C415.128 138.413 425.277 142.243 428.927 147.71C432.733 153.411 431.044 167.625 426.019 172.172C422.723 175.155 416.197 176.698 406.877 176.698H392.735V204.044H403.853C415.078 204.044 425.233 207.809 428.927 213.341C432.733 219.042 431.044 233.256 426.019 237.803C422.723 240.786 416.197 242.329 406.877 242.329H392.735V269.675H407.351C424.213 269.675 431.044 274.876 430.977 287.665C430.906 301.511 422.285 307.959 403.852 307.959H392.734V335.305H407.35C424.212 335.305 431.043 340.506 430.976 353.295C430.905 367.141 422.284 373.589 403.851 373.589C396.441 373.589 392.733 374.798 392.733 377.214C392.733 381.614 381.342 392.731 376.833 392.731C374.963 392.731 373.591 396.705 373.591 402.124C373.591 412.994 369.225 425.883 364.532 428.867C358.494 432.707 344.417 431.081 339.832 426.015C336.849 422.718 335.306 416.194 335.306 406.873V392.731H307.96V402.124C307.96 412.994 303.595 425.883 298.902 428.867C292.863 432.707 278.787 431.081 274.202 426.015C271.219 422.718 269.676 416.194 269.676 406.873V392.731H242.33V405.796C242.33 423.079 236.687 431.016 224.4 431.016C210.479 431.016 204.045 423.236 204.045 406.404V392.731H176.699V405.796C176.699 422.785 171.018 431.016 159.292 431.016C154.401 431.016 148.127 429.354 145.349 427.324L145.35 427.32ZM345.1 345.033C348.247 340.725 348.978 324.012 348.978 256.373C348.978 182.651 348.456 172.444 344.453 168.021C340.252 163.379 333.783 163.02 254.366 163.02C169.049 163.02 168.793 163.048 164.548 169.098C160.923 174.273 160.291 187.442 160.291 257.774V340.373L167.637 346.152C174.804 351.789 177.027 351.912 258.103 351.136C336.728 350.384 341.431 350.054 345.1 345.033ZM193.11 257.364V195.835H316.17V318.895H193.11V257.364Z" fill="#1793D1"/>
</svg>
