<svg width="128" height="128" viewBox="0 0 512 512" fill="none" xmlns="http://www.w3.org/2000/svg">
<path d="M259.918 24.042C259.192 24.042 258.465 24.1662 257.771 24.4148L68.8085 92.0767C66.2292 92.9962 64.5044 95.4712 64.5044 98.2469C64.5044 166.724 82.3525 245.87 113.462 315.401C138.699 371.813 184.085 447.066 256.962 485.181C257.893 485.667 258.905 485.911 259.917 485.911C260.929 485.911 261.941 485.667 262.872 485.181C335.744 447.06 381.131 371.818 406.376 315.401C437.49 245.865 455.334 166.715 455.334 98.2469C455.334 95.471 453.611 92.996 451.032 92.0767H451.013L262.06 24.4148C261.366 24.1662 260.641 24.042 259.915 24.042H259.918ZM259.898 130.621C260.294 130.621 260.69 130.686 261.069 130.819L364.143 167.252H364.147C365.552 167.749 366.494 169.08 366.494 170.578C366.494 207.439 356.763 250.066 339.79 287.511C326.02 317.877 301.269 358.401 261.516 378.924C261.013 379.184 260.457 379.316 259.908 379.316C259.353 379.316 258.797 379.184 258.294 378.924C218.542 358.4 193.781 317.882 180.02 287.511C163.048 250.066 153.316 207.447 153.316 170.578C153.316 169.08 154.258 167.749 155.664 167.252L258.738 130.819C259.114 130.686 259.507 130.621 259.902 130.621H259.898Z" fill="#1793D1" stroke="#141D2B" stroke-width="40"/>
<path d="M246.492 478.461C212.366 457.962 179.359 425.165 152.29 384.86C102.732 311.067 69.6672 207.851 65.4003 113.62C64.6963 98.0739 64.7923 96.7353 66.7495 94.7887C67.9326 93.6121 110.761 77.695 164.422 58.4885L259.988 24.2837L355.479 58.4724C409.852 77.9398 451.879 93.5703 453.081 94.7726C455.044 96.7353 455.139 98.0646 454.435 113.62C450.157 208.086 417.281 310.576 367.34 385.135C347.75 414.382 318.352 446.555 295.932 463.283C283.115 472.847 262.684 485.385 259.918 485.385C258.872 485.385 252.831 482.269 246.492 478.461ZM265.269 377.475C273.277 373.418 287.591 362.41 296.681 353.321C334.926 315.076 362.605 246.942 366.81 180.693C367.388 171.572 367.227 168.741 366.075 167.835C365.263 167.195 341.056 158.372 312.283 148.226L259.967 129.781L207.602 148.23C178.801 158.377 154.54 167.321 153.688 168.107C152.384 169.308 152.34 172.066 153.408 185.518C159.378 260.723 193.431 332.902 239.191 367.344C245.762 372.289 258.17 380.034 259.677 380.13C259.85 380.141 262.366 378.946 265.269 377.475Z" fill="#1793D1"/>
</svg>
