<svg width="512" height="512" viewBox="0 0 512 512" fill="none" xmlns="http://www.w3.org/2000/svg">
<path opacity="0.2" d="M256 31C200.919 31 150.664 41.5221 109.894 61.9067C69.1256 82.2907 30.9976 117.316 30.9976 168.5C30.9976 186.16 35.6113 201.851 43.232 215.727C35.8516 229.52 30.9976 245.409 30.9976 262.251C30.9976 277.28 34.3524 290.879 40.0288 303.16C34.4694 315.411 30.9976 329.205 30.9976 343.501C30.9976 394.685 69.1256 429.711 109.894 450.095C150.662 470.479 200.916 481.001 256 481.001C311.082 481.001 361.336 470.479 402.107 450.095C442.875 429.711 481.003 394.685 481.003 343.501C481.003 329.205 477.531 315.412 471.972 303.16C477.648 290.879 481.003 277.281 481.003 262.251C481.003 245.411 476.149 229.52 468.769 215.727C476.389 201.852 481.003 186.161 481.003 168.5C481.003 117.316 442.875 82.2907 402.107 61.9067C361.339 41.5227 311.084 31 256 31Z" fill="#141D2B" stroke="#A4B1CD" stroke-width="10"/>
<path d="M256 31C200.919 31 150.664 41.5221 109.894 61.9067C69.1256 82.2907 30.9976 117.316 30.9976 168.5C30.9976 186.16 35.6113 201.851 43.232 215.727C35.8516 229.52 30.9976 245.409 30.9976 262.251C30.9976 277.28 34.3524 290.879 40.0288 303.16C34.4694 315.411 30.9976 329.205 30.9976 343.501C30.9976 394.685 69.1256 429.711 109.894 450.095C150.662 470.479 200.916 481.001 256 481.001C311.084 481.001 361.336 470.479 402.107 450.095C442.875 429.711 481.003 394.685 481.003 343.501C481.003 329.205 477.531 315.412 471.972 303.16C477.648 290.879 481.003 277.281 481.003 262.251C481.003 245.411 476.149 229.52 468.769 215.727C476.389 201.852 481.003 186.161 481.003 168.5C481.003 117.316 442.875 82.2907 402.107 61.9067C361.339 41.5227 311.084 31 256 31Z" fill="#141D2B"/>
<path d="M256 81C159.35 81 81.0003 120.176 81.0003 168.5C81.0003 216.824 159.35 256 256 256C352.651 256 431 216.824 431 168.5C431 120.176 352.651 81 256 81ZM92.5069 231.013C85.0821 240.717 80.9941 251.244 80.9941 262.252C80.9941 310.576 159.343 349.752 255.994 349.752C352.645 349.752 430.994 310.576 430.994 262.252C430.994 251.244 426.906 240.716 419.481 231.013C394.313 263.897 330.615 287.252 255.988 287.252C181.361 287.252 117.668 263.897 92.4947 231.013H92.5069ZM88.2543 318.5C83.5339 326.422 80.9941 334.813 80.9941 343.503C80.9941 391.827 159.343 431.003 255.994 431.003C352.645 431.003 430.994 391.827 430.994 343.503C430.994 334.814 428.454 326.421 423.734 318.5C402.221 354.643 335.27 381.003 256.001 381.003C176.731 381.003 109.774 354.643 88.2673 318.5H88.2543Z" fill="#1793D1"/>
</svg>
