<svg width="128" height="128" viewBox="0 0 512 512" fill="none" xmlns="http://www.w3.org/2000/svg">
<path d="M256 505.037C393.539 505.037 505.037 393.539 505.037 256C505.037 118.461 393.539 6.96338 256 6.96338C118.461 6.96338 6.96338 118.461 6.96338 256C6.96338 393.539 118.461 505.037 256 505.037Z" fill="#141D2B"/>
<path d="M28.7744 193.434C47.9232 85.4019 143.053 12.2883 252.006 16.6915C263.066 17.1011 274.022 18.2275 284.774 20.2755C288.358 20.9923 291.942 21.7091 295.424 22.6307C280.883 21.7091 266.342 21.8115 252.006 22.8355C144.691 29.7987 63.2832 91.2387 28.7744 193.434Z" fill="white"/>
<path d="M481.075 318.464C461.927 426.496 366.797 499.61 257.843 495.207C246.784 494.797 235.827 493.671 225.075 491.623C221.491 490.906 217.907 490.189 214.426 489.268C228.967 490.189 243.507 490.087 257.843 489.063C365.056 481.997 446.567 420.557 481.075 318.464Z" fill="white"/>
<path d="M332.903 414.106C300.032 403.046 266.855 391.885 236.749 374.682C206.643 357.478 179.303 333.722 163.533 302.797C147.763 271.872 146.125 233.267 162.611 202.752C152.064 192.307 148.89 176.128 150.835 161.382C152.781 146.637 159.13 132.915 165.171 119.296C171.213 105.677 177.152 91.7503 178.279 76.9023C188.211 85.8111 201.626 90.2143 214.835 91.4431C228.147 92.6719 241.459 91.1359 254.771 89.5999C258.253 89.1903 261.939 88.6783 264.295 86.0159C266.65 83.4559 265.933 78.2335 262.451 77.7215C269.927 75.8783 277.914 79.3599 283.136 84.9919C288.359 90.6239 291.226 97.9967 293.171 105.472C301.568 136.499 297.063 170.906 280.986 198.656C279.04 202.035 275.866 205.824 271.975 204.902C267.879 203.981 266.855 198.758 266.547 194.56C265.728 182.477 264.09 170.086 258.56 159.334C253.031 148.582 242.893 139.469 230.81 138.035C218.727 136.602 205.517 144.896 203.879 156.877C201.626 173.67 220.57 186.982 220.57 203.878C220.57 213.709 214.221 222.208 210.33 231.322C201.319 252.211 205.824 276.992 216.679 297.062C227.533 317.133 244.122 333.312 260.403 349.184C277.299 365.67 296.858 380.109 314.983 395.264C321.434 400.691 328.295 406.63 330.65 414.72C328.499 413.901 326.451 413.082 324.301 412.365" fill="#1793D1"/>
<path d="M220.058 151.142C222.72 150.528 225.178 152.678 227.123 154.521C233.472 160.665 239.718 166.809 246.067 172.953C246.989 173.875 247.91 174.797 248.115 176.128C248.32 177.561 247.501 178.995 246.272 179.814C245.146 180.633 243.712 181.043 242.278 181.35C238.899 182.272 235.418 183.091 231.834 183.193C228.25 183.193 224.666 182.272 222.003 180.019C219.546 177.869 218.214 174.694 217.6 171.52C216.781 166.912 213.299 152.576 220.058 151.142Z" fill="#1793D1"/>
<path d="M350.72 292.045C347.751 271.872 346.215 261.837 345.498 258.048C345.498 258.048 339.354 227.328 323.379 206.336C322.048 204.595 319.898 202.138 316.928 201.933C314.163 201.728 311.911 203.674 309.248 206.234C301.671 213.606 297.779 219.648 297.779 219.648C292.045 228.762 289.075 233.267 287.437 238.387C286.311 241.766 282.727 253.542 286.515 266.035C289.178 274.739 293.888 278.426 300.851 286.618C303.411 289.587 327.271 328.602 337.511 352.461C338.739 355.328 341.504 367.309 344.064 368.64C346.317 369.766 346.419 366.592 347.034 364.442C349.901 354.611 353.485 344.474 354.509 334.234C355.431 326.554 355.123 321.331 350.72 292.045Z" fill="#1793D1"/>
<path d="M229.581 245.965C224.564 261.734 223.437 279.449 230.093 294.605C236.647 309.657 249.652 320.614 261.94 331.469C298.701 364.237 331.572 401.408 359.629 441.958C357.684 432.947 354.407 420.249 349.389 405.401C343.45 387.993 327.68 343.142 292.25 299.213C277.709 281.19 274.944 278.937 268.596 267.981C259.072 251.494 256.103 233.267 252.724 214.937C250.061 200.909 244.736 213.709 241.05 220.569C236.442 228.659 232.448 237.158 229.581 245.965Z" fill="#1793D1"/>
</svg>
