<svg width="128" height="128" viewBox="0 0 128 128" fill="none" xmlns="http://www.w3.org/2000/svg">
<path d="M33.2 124.8L19.1 107.3V9.60001L15.5 3.20001H95V74.3C95.6 74.5 96.3 74.8 96.9 75.1C101 77.2 102.6 80.8 103.3 82.4V82.5C104.5 85.1 106 88.3 104.5 91.5C103.1 94.6 99.5 96.5 95.1 96.6L95 103.6L112.2 124.9H33.2V124.8Z" fill="#A4B1CD"/>
<path d="M20.4 6H92.2V76.5C93.1 76.6 94.3 76.9 95.7 77.6C98.8 79.2 100.1 82 100.8 83.5C101.9 85.9 103 88.2 102 90.3C100.8 92.9 96.9 94.3 92.4 93.5L92.3 104.5L106.5 122H34.6L22 106.3V8.8L20.4 6Z" fill="#1793D1"/>
<path d="M24.7 8.80002H89.4V78.5C90.1 78.4 91.4 78.4 92.9 78.9C94 79.3 94.6 79.8 95.4 80.4C96.3 81.1 97.8 82.4 99 84.7C99.8 86.2 100.4 87.5 99.9 88.7C99.4 89.8 98 90.3 97.4 90.5C96.4 90.8 95.7 90.7 94.1 90.7C93.1 90.7 91.6 90.6 89.8 90.7C89.8 95.6 89.8 100.6 89.7 105.5L100.4 119H36.1L24.7 105.3V8.80002Z" fill="#141D2B"/>
<path d="M59.5 119L48.3 109C45.7 106.7 42.4 105.5 39 105.5H34.5C33.7 105.5 33.3 106.4 33.9 107L45.1 119H59.5Z" fill="#1793D1"/>
<path d="M60.4 69.6L45.8 100.8C44.8 102.9 42.7 104.2 40.4 104.2H32.4C31.6 104.2 31.1 103.4 31.5 102.7L50.6 63.3C50.8 62.8 50.9 62.3 50.7 61.8L46.2 49.3C46 48.7 45.1 48.5 44.7 49L38.1 56.4C37.3 57.3 36.1 57.8 34.9 57.7C31.3 57.4 27.8 57.1 24.3 56.7C24.1 53.6 23.9 50.5 23.8 47.4C26.7 47.4 29.6 47.4 32.5 47.4C33 47.4 33.5 47.2 33.8 46.8C34.9 44.5 36.7 41.1 40 37.9C41.6 36.3 44.1 33.7 48.1 32.2C51.2 31 54 31 59.4 31C68.7 31.1 73.1 33 74.7 33.8C75.3 34.1 76.5 34.7 77.8 35.8C78.3 36.2 80.2 37.7 81.8 40.5C82.1 41 82.2 41.3 82.5 41.7C87.1 48.5 88 52.9 84.6 54.3C81.8 56.4 79.1 52.9 76.5 48.4L73 41.7C72.8 41.4 72.5 41.2 72.1 41.2L64.9 41.4C64.4 41.4 64.1 41.9 64.3 42.3C67.1 48.1 69.6 53.5 70.7 57.9L73.1 78C73.2 78.6 73.7 79 74.3 79.1L91.5 79.7C92.7 79.7 93.5 80.1 93.9 80.3C94.4 80.6 94.9 81 95.8 81.9C96.5 82.6 96.9 82.9 97.4 83.5C97.9 84.1 98.4 84.7 98.8 85.7C99.1 86.5 99.4 87.4 99.1 88.2C98.8 88.9 98.1 89.3 98 89.3C97.7 89.4 97.4 89.5 97 89.5L71 89.6C67.1 89.6 63.8 86.8 63.2 83C62 78.6 61.2 74.1 60.4 69.6Z" fill="#1793D1"/>
<path d="M43.9 31C48.7 31 52.7 27.1 52.7 22.2C52.7 17.3 48.8 13.4 43.9 13.4C39.1 13.4 35.1 17.3 35.1 22.2C35.1 27.1 39 31 43.9 31Z" fill="#1793D1"/>
</svg>
