<svg width="128" height="128" viewBox="0 0 512 512" fill="none" xmlns="http://www.w3.org/2000/svg">
<path d="M112.64 157.594L146.534 141.619L176.026 137.933L177.664 99.533L186.266 88.4738L179.302 83.9682L159.232 39.8338L162.918 21.8114L191.181 8.29459L198.963 14.4386V5.52979H238.182L258.253 17.8178H265.626L279.552 23.1426L284.467 23.9618L328.192 70.9634L332.698 73.8306V86.5282L340.07 100.455V121.754L334.336 130.765C334.336 130.765 378.47 137.728 383.386 143.053V152.474L413.286 171.315L438.272 204.391V241.562H443.597L456.704 267.571L453.325 274.535L503.808 466.023C503.808 466.023 381.952 425.575 362.291 430.899L373.76 504.935C338.33 501.863 299.315 499.917 257.331 500.327C216.269 500.634 178.176 503.091 143.462 506.573L154.112 427.623C154.112 427.623 31.4369 454.656 8.49927 465.613L61.6449 259.891L82.9441 253.747L84.5825 220.672C84.5825 220.672 107.52 174.08 112.845 172.851V157.594H112.64Z" fill="white"/>
<path d="M67.6865 265.216L16.9985 454.963C36.2497 448.103 57.5489 441.447 80.8961 435.61C110.183 428.339 137.319 423.629 161.792 420.659L151.143 497.152C184.32 493.875 221.082 491.725 260.711 491.827C298.496 491.93 333.517 493.978 365.363 497.152L353.895 421.479C383.181 425.984 414.925 432.435 448.41 441.549C463.975 445.747 478.823 450.355 492.954 455.066L447.181 275.968L447.591 265.319L438.579 248.525H429.159L430.797 206.029L407.859 175.719L376.832 156.877L377.242 147.456C377.242 147.456 333.107 134.349 322.048 136.397L332.698 119.194L333.517 102.81L325.735 86.8355L325.325 77.8243L283.648 32.0515L265.216 24.2691H255.795L237.466 12.8003H207.155L209.203 29.5939L191.591 16.4867L169.063 26.7267L167.834 37.3763L185.856 78.2339L193.434 85.7091C193.434 85.7091 199.885 88.8835 194.151 91.8531L189.031 96.3587V102.4L184.32 104.243L184.423 127.386C184.423 127.386 186.061 134.349 187.495 136.192L188.109 148.48L181.146 143.975L149.811 148.275L120.525 162.407L120.115 175.923L91.2385 223.13L90.2145 258.048L67.6865 265.216Z" fill="#141D2B"/>
<path d="M62.7711 359.527L44.5439 431.821L133.427 411.136L159.334 391.271V407.04C159.334 407.04 212.173 399.668 255.283 401.818L255.795 383.284L280.371 400.999C280.371 400.999 331.059 403.456 344.678 406.221L369.459 391.476L371.61 409.191C371.61 409.191 453.12 425.78 472.781 433.46C472.781 433.46 467.354 405.402 462.438 390.349C462.438 390.349 422.912 376.73 413.082 377.242L411.443 364.442L449.638 373.965C449.638 373.965 443.904 334.951 440.32 330.65C440.32 330.65 404.582 321.127 402.125 321.332L400.179 308.532C400.179 308.532 440.013 318.362 440.832 320.205C440.832 320.205 435.098 292.352 431.821 275.764C431.821 275.764 331.264 250.164 309.453 253.133L316.006 320.512L309.453 325.12L299.622 317.236L296.858 251.495L253.747 250.164L255.078 316.416L243.712 325.12L255.078 334.132V359.732L210.944 360.858L211.763 336.077L223.744 326.554L213.402 318.669L218.317 251.597L175.514 255.898L173.875 271.77L155.034 258.151L84.9919 274.74L68.0959 340.173L54.9887 352.973L62.7711 359.527Z" fill="white"/>
<path d="M90.6241 281.191C99.6353 278.221 109.466 275.457 120.115 272.897C131.891 270.132 142.951 267.981 153.191 266.445C158.515 270.234 163.84 274.125 169.165 277.914L164.25 319.181L151.552 333.927L159.744 343.757L154.419 385.434L133.12 402.637C122.471 404.173 111.411 406.221 99.8401 408.679C84.0705 412.058 69.4273 415.847 55.8081 419.841C60.8257 398.439 65.9457 377.037 70.9633 355.636C69.5297 354.304 68.0961 352.973 66.6625 351.642C69.6321 349.696 72.4993 347.751 75.4689 345.805L90.6241 281.191Z" fill="#1793D1"/>
<path d="M169.063 330.24L176.026 325.325L182.579 261.939C186.471 261.223 190.771 260.506 195.277 259.994C200.499 259.379 205.415 259.175 210.023 259.072C208.487 279.757 207.053 300.544 205.517 321.229L210.023 326.963L204.698 332.698L202.65 368.64H248.013C248.115 376.832 248.32 385.127 248.423 393.319C231.322 393.216 212.89 393.728 193.331 395.469C184.115 396.288 175.207 397.312 166.605 398.439C169.165 377.139 171.827 355.943 174.387 334.643L169.063 330.24Z" fill="#1793D1"/>
<path d="M260.301 259.072H288.973L291.84 321.229L298.394 326.554L292.25 331.879L295.117 368.64L327.885 370.688L325.427 333.517L318.054 328.807L324.608 325.325L318.054 261.12L345.088 264.397L353.69 326.144L359.834 332.698L355.328 338.023L361.472 386.253L343.45 396.493C333.619 395.879 323.686 395.367 313.549 394.855C303.923 394.343 294.4 393.933 284.877 393.626C277.504 388.711 270.131 383.795 262.758 378.88L262.349 328.807L255.693 325.735L262.349 320.41L260.301 259.072Z" fill="#1793D1"/>
<path d="M356.352 266.854C366.797 268.288 377.958 270.131 389.837 272.896C402.432 275.763 414.106 279.04 424.55 282.419C426.701 290.714 428.954 299.008 431.104 307.405L389.427 298.394L393.728 327.885L433.562 337.715L439.706 362.291L400.896 354.099L406.221 383.181L456.09 396.698C458.138 405.504 460.288 414.208 462.336 423.015C450.97 419.328 438.886 415.847 426.086 412.672C409.395 408.474 393.626 405.299 378.778 402.842C375.501 381.952 372.224 361.165 368.947 340.275L361.984 334.029L367.002 329.626L356.352 266.854Z" fill="#1793D1"/>
<path d="M102.502 359.322L124.211 354.918L121.139 376.525L99.1233 380.518L102.502 359.322Z" fill="#141D2B"/>
<path d="M119.501 359.936L117.555 373.146L103.936 375.603L105.984 362.701L119.501 359.936ZM128.922 349.901L117.863 352.154L104.346 354.918L98.9185 356.045L98.0994 361.472L96.0514 374.374L94.3105 385.434L105.267 383.488L118.887 381.03L124.519 380.006L125.338 374.374L127.283 361.165L128.922 349.901Z" fill="white"/>
<path d="M113.664 303.309L135.373 298.906L132.301 320.512L110.285 324.506L113.664 303.309Z" fill="#141D2B"/>
<path d="M130.663 303.923L128.717 317.133L115.098 319.591L117.146 306.688L130.663 303.923ZM140.083 293.888L129.024 296.141L115.507 298.906L110.08 300.032L109.261 305.459L107.213 318.362L105.472 329.421L116.429 327.475L130.048 325.018L135.68 323.994L136.499 318.362L138.445 305.152L140.083 293.888Z" fill="white"/>
<path d="M296.96 364.852V333.927L308.019 324.916L322.355 335.463L324.096 366.797L296.96 364.852Z" fill="#141D2B"/>
<path d="M308.122 329.933L318.464 337.613L319.795 362.599L300.851 361.268V335.872L308.122 329.933ZM307.917 319.898L303.104 323.789L295.834 329.626L292.864 331.981V335.77V361.165V368.538L300.237 369.05L319.181 370.381L328.192 370.996L327.68 361.984L326.349 336.999L326.144 333.21L323.174 330.957L312.832 323.277L307.917 319.898Z" fill="white"/>
<path d="M172.646 419.84L207.258 417.076V429.056H194.97L193.536 447.693L195.584 449.741L192.41 452.813L189.952 482.202L176.742 483.226L179.61 453.018L177.971 450.97L180.941 448.922L183.091 431.104L172.646 431.514V419.84Z" fill="white" stroke="white" stroke-width="1.1094" stroke-miterlimit="10"/>
<path d="M213.402 415.847L212.07 446.362L208.589 448.103L211.046 451.379L208.589 480.154L243.098 479.335V466.944L222.822 468.071L222.72 452.915L240.026 452.813L240.435 441.242L223.744 441.447L224.051 427.008H244.122V415.847H213.402Z" fill="white" stroke="white" stroke-width="1.1094" stroke-miterlimit="10"/>
<path d="M263.168 415.847L248.525 479.539H263.168L266.035 465.306L278.835 465.203L282.931 479.539H296.653L279.962 415.847H263.168Z" fill="white" stroke="white" stroke-width="1.1094" stroke-miterlimit="10"/>
<path d="M297.882 416.563L299.52 445.645L297.882 447.693L300.339 450.867L302.285 480.871H315.802L312.73 446.771L324.813 467.456L333.107 448.717L338.022 482.816L351.642 483.84L347.136 454.247L349.184 452.403L346.01 449.639L341.914 418.714L329.728 419.021L322.56 438.17L309.965 416.563H297.882Z" fill="white" stroke="white" stroke-width="1.1094" stroke-miterlimit="10"/>
<path d="M271.667 433.05L267.059 452.608H276.583L271.667 433.05Z" fill="#141D2B"/>
<path d="M189.542 205.927C186.573 207.155 184.73 208.896 184.627 210.944C184.525 213.299 187.085 215.655 189.542 216.474C191.488 217.088 192.717 216.679 199.782 214.528C207.565 212.173 208.589 211.968 209.613 210.535C211.558 207.872 211.763 203.469 209.715 201.626C208.794 200.807 207.667 200.602 206.336 200.499C202.957 200.192 200.192 201.421 198.554 202.24C195.482 203.571 192.512 204.8 189.542 205.927Z" fill="#141D2B"/>
<path d="M251.494 199.578C251.494 199.578 241.05 196.71 239.206 204.083C237.363 211.456 249.037 214.118 250.061 214.323C251.085 214.528 260.096 217.395 263.168 212.275C266.24 207.155 267.469 201.933 258.867 200.602C250.266 199.27 251.494 199.578 251.494 199.578Z" fill="#141D2B"/>
<path d="M206.131 73.6257C206.131 73.6257 218.419 49.1521 247.808 54.7841L276.685 65.5361L259.277 63.6929C259.277 63.6929 288.768 74.5473 290.406 77.3121C290.406 77.3121 265.011 67.7889 261.325 69.7345C261.325 69.7345 288.973 79.6673 290.406 81.3057C290.406 81.3057 268.083 76.4929 264.806 76.6977C264.806 76.6977 283.648 82.2273 285.696 84.4801H265.421C265.421 84.4801 280.576 86.6305 282.214 88.4737L264.806 90.4193L279.142 92.3649L278.938 95.1297C278.938 95.1297 211.866 93.1841 202.65 96.7681C202.65 96.7681 206.746 89.3953 210.842 86.8353L202.65 91.0337C202.65 91.0337 208.998 81.7153 211.046 81.7153L204.698 84.6849C204.698 84.6849 209.613 78.3361 213.709 75.2641L208.179 76.9025C208.179 76.9025 213.504 69.1201 214.528 68.7105C215.552 68.3009 206.131 73.6257 206.131 73.6257Z" fill="white"/>
<path d="M411.034 256.41L441.344 263.988L434.791 253.338L423.936 251.7V221.799L411.853 206.848L411.648 198.656L414.311 199.68L424.96 213.607L426.189 208.487C426.189 208.487 405.299 180.839 404.48 179.61C403.661 178.381 372.531 160.359 372.531 160.359L370.688 151.143C349.594 142.541 323.277 140.903 323.277 140.903L319.386 151.86C317.338 155.239 315.29 151.86 315.29 151.86H302.183C296.858 151.348 296.858 157.901 296.858 157.901L294.4 158.311C287.027 160.154 281.703 168.141 281.703 168.141C279.04 170.189 248.627 187.188 248.627 187.188L234.087 201.114L234.291 213.402L231.015 216.474V200.704L241.255 187.392L232.858 186.573V182.477L218.112 182.272L216.474 186.573C214.323 188.212 208.589 187.392 208.589 187.392C208.589 185.754 200.909 176.743 200.909 176.743C197.632 166.912 211.251 161.792 211.251 161.792V157.696L203.571 156.877L192.103 158.516L180.429 151.962H167.117L150.221 153.6L124.928 166.196V181.248H121.344L97.3825 224.052L96.2561 256.41L108.749 254.26L126.976 225.485L113.869 250.471L114.176 253.44L122.266 250.676C130.458 246.17 135.475 246.477 135.475 246.477L134.247 230.093L139.571 246.477L146.023 246.068L134.554 221.492L138.547 206.951L139.264 221.696L149.504 246.375C163.84 242.791 184.013 241.152 184.013 241.152L171.93 203.162L164.455 195.687L185.139 203.776C176.128 216.679 191.181 219.956 191.181 219.956L195.687 239.309L203.059 238.797L200.499 224.256L206.336 239.002L240.845 238.285L248.32 222.208L244.327 238.592L248.73 238.285L273.92 197.12L253.85 238.08L302.899 238.285L307.815 225.997L278.119 197.735L313.549 223.335C325.018 217.498 324.301 199.988 324.301 199.988L305.459 191.386C305.05 189.44 307.507 185.447 309.76 182.477C307.507 187.085 308.634 192.308 308.634 192.308L316.007 193.741C316.109 190.567 319.386 185.856 321.024 183.706C319.795 186.983 318.669 195.584 318.669 195.584L326.247 196.608C325.837 191.693 331.367 185.754 331.367 185.754C328.704 201.319 334.029 201.524 334.029 201.524C333.619 198.452 337.715 186.164 337.715 186.164L341.811 185.959L342.631 200.295L338.944 204.186L334.439 204.596C334.029 206.029 327.475 235.111 327.475 235.111C340.173 221.594 350.003 197.325 350.003 197.325C348.57 212.685 334.439 230.093 334.439 230.093L331.776 242.996L362.087 245.044L360.448 234.394C367.616 230.298 383.386 237.876 383.386 237.876C384.819 238.285 387.891 251.802 387.891 251.802L407.757 256L398.336 240.333L373.76 229.684L400.384 237.568L411.034 256.41ZM116.634 218.01C111.207 220.877 105.984 218.01 105.677 217.805C106.906 218.01 111.411 218.42 116.019 215.655C120.423 212.992 122.163 208.896 122.573 207.668C122.573 211.968 120.32 215.962 116.634 218.01ZM127.079 169.165C127.079 169.165 128.512 174.592 129.331 175.924C130.151 177.255 133.018 176.128 133.018 176.128C136.909 175.309 145.818 162.202 145.818 162.202C138.957 182.17 127.079 180.02 127.079 180.02V169.165ZM133.12 212.276C133.12 212.276 122.061 208.794 126.055 199.168C130.151 189.543 130.56 202.548 130.56 202.548C130.56 202.548 132.199 208.487 134.759 209.818C137.319 211.149 133.12 212.276 133.12 212.276ZM143.36 202.548C140.698 201.524 141.927 189.952 141.927 189.952L146.432 199.988C146.432 199.988 146.023 203.572 143.36 202.548ZM151.859 197.735C149.095 195.994 151.859 184.832 151.859 184.832L155.955 194.868C155.955 194.868 154.624 199.476 151.859 197.735ZM151.143 177.562C151.143 177.562 148.378 178.688 146.739 182.477C146.739 182.477 139.776 191.079 136.397 189.85C136.397 189.85 126.567 189.031 126.259 185.652C126.259 185.652 138.547 185.959 142.336 182.375C146.125 178.791 154.317 163.328 154.317 163.328C154.317 163.328 176.128 158.823 184.32 160.154C184.32 160.052 157.799 173.364 151.143 177.562ZM173.671 194.765C168.96 200.295 166.503 189.952 166.503 189.952C166.4 176.948 173.671 188.212 173.671 188.212C175.309 188.826 173.671 194.765 173.671 194.765ZM190.976 182.784L181.146 192.512L167.527 176.128L178.381 168.653L196.301 166.708L190.976 182.784ZM220.979 207.668L227.84 215.348H217.088L220.979 207.668ZM233.063 225.383C228.455 229.376 222.925 228.762 222.106 228.66C221.184 228.762 217.907 228.967 215.04 226.816C211.763 224.359 210.432 219.853 211.559 215.45C213.197 220.877 217.6 224.768 222.72 225.485C229.274 226.304 236.032 221.594 237.773 214.119C237.773 214.733 238.08 220.98 233.063 225.383ZM291.738 178.688L257.843 193.127C257.843 193.127 298.087 168.756 298.087 164.25C298.087 164.25 298.496 172.544 305.05 174.797C305.05 174.695 298.291 173.978 291.738 178.688ZM397.415 180.122C401.203 182.375 402.125 186.573 402.125 186.573C402.125 186.573 403.661 191.284 399.463 189.543C395.264 187.802 394.138 181.965 394.138 181.965C394.138 181.965 393.626 177.869 397.415 180.122ZM397.107 203.674L417.792 235.828C409.6 231.117 374.272 168.551 374.272 168.551L397.107 203.674ZM354.611 194.56V183.296C354.611 183.296 351.847 184.013 345.6 183.296C339.354 182.58 338.227 175.821 338.227 175.821L330.547 153.6C330.547 153.6 339.149 165.274 340.787 170.394C342.426 175.412 356.762 174.08 359.834 173.364C363.008 172.647 361.37 167.117 361.37 167.117L348.263 163.943C343.655 164.25 342.119 151.04 342.119 151.04C348.263 163.943 361.37 163.124 361.37 163.124V159.028L366.797 154.829L364.647 163.328L368.435 161.588L364.749 167.629L363.623 177.562L357.786 179.098L358.503 193.639L392.192 231.629C378.163 226.202 354.611 194.56 354.611 194.56Z" fill="#1793D1"/>
<path d="M316.723 78.9505V83.8657L318.566 85.0945V93.4913L323.482 100.659C323.482 100.659 324.71 109.875 324.71 113.357C324.71 116.839 321.024 119.706 319.59 122.573C318.157 125.44 315.904 127.898 315.085 128.922C314.266 129.946 313.344 133.427 317.645 130.765C321.946 128.103 326.349 118.682 326.349 118.682C326.349 118.682 330.854 110.49 328.192 103.527C325.53 96.5633 321.741 91.0337 321.741 91.0337L320.41 82.6369C320.41 82.6369 321.229 76.6977 316.723 78.9505Z" fill="#1793D1"/>
<path d="M201.216 82.4321C201.216 82.4321 193.434 78.5409 193.434 77.1073L176.23 37.4785C176.23 37.4785 184.422 30.7201 187.085 30.3105C187.085 30.3105 186.778 24.5761 190.874 26.6241C194.97 28.6721 207.974 39.3217 207.974 39.3217C207.974 39.3217 223.334 37.6833 225.792 36.2497C228.25 34.8161 232.55 43.8273 232.55 43.8273C232.55 43.8273 214.528 49.3569 210.637 48.5377L189.542 32.3585L179.302 37.6833L194.867 73.6257L201.216 82.4321Z" fill="#1793D1"/>
<path d="M210.534 35.738C210.534 35.738 216.064 26.01 221.594 31.13L224.358 34.4068L210.534 35.738Z" fill="#1793D1"/>
<path d="M216.781 19.2515C216.781 19.2515 213.914 21.7091 216.781 25.0883H235.008C235.008 25.0883 238.387 21.7091 234.496 19.2515H216.781Z" fill="#1793D1"/>
<path d="M255.181 29.6963C255.181 29.6963 274.842 32.4611 281.395 38.7075C287.949 44.9539 296.653 54.3747 296.653 54.3747L311.399 70.9635C303.923 63.0787 294.093 54.0675 281.703 45.3635C272.282 38.6051 263.168 33.5875 255.181 29.6963Z" fill="#1793D1"/>
<path d="M237.773 25.1904C237.773 25.1904 304.845 66.1504 309.248 78.4384L237.773 25.1904Z" fill="#1793D1"/>
<path d="M316.723 86.9378C315.494 84.2754 304.845 81.4082 304.845 81.4082C304.23 91.0338 307.098 94.1058 307.098 94.1058H252.314C238.592 91.2386 197.939 96.2562 197.939 96.2562C193.024 95.437 193.638 98.509 193.638 98.509L193.843 106.496H190.874V109.568H194.048L194.253 113.664H190.874V116.941H194.867L194.662 119.399H190.874V123.29H194.253L194.458 127.181H190.976C190.976 127.181 190.362 132.506 191.795 133.53C193.229 134.554 194.867 147.251 194.867 147.251C197.939 155.648 211.456 155.853 211.456 155.853L207.77 144.589C210.842 141.927 237.875 146.023 237.875 146.023C253.235 151.347 266.138 150.323 266.138 150.323C272.282 149.299 273.715 151.347 273.715 151.347L281.088 155.853C293.581 156.672 293.99 149.095 293.99 149.095L282.931 145.408L297.062 146.432C312.422 137.831 308.122 112.128 308.122 112.128L293.171 109.261H309.965L311.808 115.2C314.675 113.357 317.747 107.213 317.747 107.213C317.747 107.213 317.952 89.6002 316.723 86.9378ZM231.629 138.445C203.571 135.168 196.71 141.312 196.71 141.312C197.12 138.855 196.71 124.109 196.71 124.109L199.578 136.807C200.192 133.53 216.576 133.53 216.576 133.53L222.515 101.376L220.262 134.144L245.453 139.674L231.629 138.445ZM222.106 129.434L226.816 105.882L225.587 128C225.587 128 246.067 131.687 247.091 131.687C248.115 131.687 256.717 109.466 256.717 109.466C256.922 117.658 248.73 134.861 248.73 134.861C239.206 134.963 222.106 129.434 222.106 129.434ZM277.709 122.88C277.299 123.597 275.763 122.471 273.51 123.085C271.155 123.699 269.517 125.85 268.902 127.795C268.595 128.615 268.288 129.843 268.8 130.97C269.824 133.018 273.51 132.915 273.51 132.915C273.306 133.223 272.077 134.656 270.336 134.759C268.288 134.861 266.854 133.12 266.445 132.608C264.09 129.843 263.987 124.416 267.059 121.344C269.312 119.091 273.306 118.067 275.763 119.603C277.094 120.423 278.118 122.163 277.709 122.88ZM289.69 133.53L281.088 135.987C282.624 134.042 284.672 130.97 286.208 126.874C288.154 121.344 288.256 116.531 288.051 113.664C291.021 114.893 292.454 116.634 292.966 117.555C295.629 121.856 294.502 128.41 289.69 133.53ZM277.504 107.725C277.504 107.725 271.565 106.496 267.674 114.074C263.782 121.651 254.259 134.759 254.259 134.759L266.854 103.629H304.435L277.504 107.725Z" fill="#1793D1"/>
</svg>
