<svg width="64" height="64" viewBox="0 0 64 64" fill="none" xmlns="http://www.w3.org/2000/svg">
<path d="M56 22.3893L1.62933 31.7227V21.3333C1.62933 17.6533 4.616 14.6667 8.296 14.6667H18.1133C19.584 14.6667 21.7533 15.3587 22.952 16.212L26.7187 18.892C27.9173 19.7453 30.0747 20.6053 31.532 20.812L42.6667 22.3893H56Z" fill="#A4B1CD"/>
<path d="M6.66667 21.0293C4.004 20.6707 3.18933 19.0973 4.1 16.1893C3.95778 16.2436 3.86489 16.3182 3.82133 16.4133C2.892 17.1973 1.49733 19.46 1.63867 21.056V54.944C1.63867 58.624 4.62533 61.6107 8.30533 61.6107H54.972C58.652 61.6107 61.6387 58.624 61.6387 54.944V27.696C61.6387 24.016 58.652 21.0293 54.972 21.0293H6.66667Z" fill="#9FEF00"/>
<path fill-rule="evenodd" clip-rule="evenodd" d="M37.688 34.52C37.3573 34.7227 36.9213 34.6187 36.7147 34.288C36.5093 33.9573 36.6107 33.5213 36.9413 33.316C38.9493 32.0827 41.2533 31.4267 43.608 31.4267C46.9693 31.4267 50.1973 32.7653 52.5787 35.1413C54.9547 37.5227 56.2933 40.7507 56.2933 44.112C56.2933 47.4747 54.9547 50.7013 52.5787 53.084C50.1973 55.4587 46.9693 56.7973 43.608 56.7973C41.1693 56.7973 38.78 56.0933 36.7293 54.768C34.6787 53.4427 33.0507 51.5547 32.0427 49.3347C31.8827 48.98 32.0413 48.5627 32.3947 48.4013C32.7493 48.24 33.1693 48.396 33.332 48.7493C34.22 50.7293 35.6653 52.4067 37.4907 53.584C39.316 54.7613 41.4373 55.388 43.608 55.388C46.596 55.388 49.464 54.1973 51.5787 52.0827C53.6933 49.9693 54.884 47.1 54.884 44.112C54.884 41.124 53.6933 38.256 51.5787 36.1413C49.464 34.0267 46.596 32.836 43.608 32.836C41.5147 32.836 39.464 33.4147 37.688 34.52ZM32.4373 45.684C32.48 46.0693 32.2 46.416 31.8133 46.4587C31.4267 46.5013 31.0773 46.2213 31.0347 45.832L30.964 45.1267C30.9213 44.7427 31.2013 44.3947 31.588 44.352C31.9747 44.3093 32.324 44.5907 32.3667 44.9787L32.4373 45.684ZM32.444 42.5053C32.3787 42.8867 32.0133 43.144 31.6307 43.08C31.2467 43.016 30.9893 42.6507 31.056 42.2653L31.148 41.7027C31.2133 41.3213 31.5787 41.064 31.9613 41.128C32.3453 41.192 32.6053 41.556 32.5427 41.9413L32.444 42.5053ZM48.788 45.804C49.1533 45.94 49.34 46.3453 49.204 46.7093C49.0667 47.0733 48.66 47.2573 48.2947 47.1213L42.1987 44.8387V38.0093C42.1987 37.62 42.5133 37.304 42.9027 37.304C43.292 37.304 43.608 37.62 43.608 38.0093V43.8587L48.788 45.804Z" fill="#141D2B"/>
</svg>
