<svg width="64" height="64" viewBox="0 0 64 64" fill="none" xmlns="http://www.w3.org/2000/svg">
<path d="M56 22.3893L1.62933 31.7227V21.3333C1.62933 17.6533 4.616 14.6667 8.296 14.6667H18.1133C19.584 14.6667 21.7533 15.3587 22.952 16.212L26.7187 18.892C27.9173 19.7453 30.0747 20.6053 31.532 20.812L42.6667 22.3893H56Z" fill="#A4B1CD"/>
<path d="M6.66667 21.0293C4.004 20.6707 3.18933 19.0973 4.1 16.1893C3.95778 16.2436 3.86489 16.3182 3.82133 16.4133C2.892 17.1973 1.49733 19.46 1.63867 21.056V54.944C1.63867 58.624 4.62533 61.6107 8.30533 61.6107H54.972C58.652 61.6107 61.6387 58.624 61.6387 54.944V27.696C61.6387 24.016 58.652 21.0293 54.972 21.0293H6.66667Z" fill="#9FEF00"/>
<path fill-rule="evenodd" clip-rule="evenodd" d="M41.3347 48.6453C41.82 48.6453 42.2147 49.0387 42.2147 49.524C42.2147 50.0093 41.82 50.404 41.3347 50.404H37.692C37.4493 50.404 37.1933 50.592 37.12 50.824L36.152 53.9027C35.7893 55.06 34.508 56 33.2947 56H32.7013C31.488 56 30.5787 55.0173 30.6733 53.808L31.532 42.7747C31.6253 41.5653 32.188 39.8547 32.7853 38.9573C33.384 38.0613 34.8547 37.3333 36.068 37.3333H44.4933C44.9787 37.3333 45.372 37.728 45.372 38.2133C45.372 38.6987 44.9787 39.092 44.4933 39.092H36.1293C35.4013 39.092 34.508 39.5467 34.136 40.1053C33.7627 40.6653 33.4067 41.708 33.3413 42.432L32.3413 53.3653C32.2973 53.8493 32.656 54.2413 33.1413 54.2413H33.4267C33.912 54.2413 34.424 53.8653 34.5693 53.4027L35.6693 49.904C35.888 49.2093 36.656 48.6453 37.384 48.6453H41.3347ZM48.7693 39.092C48.284 39.092 47.8907 38.6987 47.8907 38.2133C47.8907 37.728 48.284 37.3333 48.7693 37.3333H51.3187C52.532 37.3333 54.0027 38.0613 54.6013 38.9573C55.1987 39.8547 55.7613 41.5653 55.856 42.7747L56.7133 53.808C56.808 55.0173 55.8987 56 54.6853 56H53.7493C52.536 56 51.1307 55.1093 50.6133 54.012L49.1 50.8013C48.996 50.5827 48.716 50.404 48.4733 50.404H45.012C44.5267 50.404 44.1333 50.0093 44.1333 49.524C44.1333 49.0387 44.5267 48.6453 45.012 48.6453H49.0267C49.512 48.6453 50.0747 49.0013 50.2813 49.4413L52.1693 53.4453C52.376 53.8853 52.9387 54.2413 53.424 54.2413H54.2453C54.7307 54.2413 55.0893 53.8493 55.0453 53.3653L54.0467 42.432C53.98 41.708 53.624 40.6653 53.2507 40.1053C52.8787 39.5467 51.9853 39.092 51.2573 39.092H48.7693ZM35.6987 43.304V44.4533H37.1427C37.3773 44.4533 37.568 44.644 37.568 44.88V46.324H38.7187V44.8787C38.7187 44.644 38.9093 44.4533 39.144 44.4533H40.5893V43.304H39.144C38.9093 43.304 38.7187 43.1133 38.7187 42.8787V41.4333H37.568V42.8773C37.568 43.1133 37.3773 43.304 37.1427 43.304H35.6987ZM50.1213 43.748C50.1213 43.2653 50.5133 42.8733 50.9973 42.8733C51.48 42.8733 51.872 43.2653 51.872 43.748C51.872 44.2307 51.48 44.6227 50.9973 44.6227C50.5133 44.6227 50.1213 44.2307 50.1213 43.748ZM46.6213 43.748C46.6213 43.2653 47.0133 42.8733 47.4973 42.8733C47.98 42.8733 48.372 43.2653 48.372 43.748C48.372 44.2307 47.98 44.6227 47.4973 44.6227C47.0133 44.6227 46.6213 44.2307 46.6213 43.748ZM49.2467 41.1227C49.7293 41.1227 50.1213 41.5147 50.1213 41.9987C50.1213 42.4813 49.7293 42.8733 49.2467 42.8733C48.764 42.8733 48.372 42.4813 48.372 41.9987C48.372 41.5147 48.764 41.1227 49.2467 41.1227ZM37.1427 40.5813H39.144C39.3787 40.5813 39.5707 40.772 39.5707 41.0067V42.452H41.0147C41.2493 42.452 41.44 42.6427 41.44 42.8773V44.8787C41.44 45.1133 41.2493 45.3053 41.0147 45.3053H39.5693V46.7493C39.5693 46.9853 39.3787 47.176 39.144 47.176H37.1427C36.908 47.176 36.7173 46.9853 36.7173 46.7493V45.3053H35.272C35.0373 45.3053 34.8467 45.1147 34.8467 44.88V42.8787C34.8467 42.6427 35.0373 42.452 35.272 42.452H36.7173V41.0067C36.7173 40.772 36.908 40.5813 37.1427 40.5813ZM49.2467 44.6227C49.7293 44.6227 50.1213 45.0147 50.1213 45.4987C50.1213 45.9813 49.7293 46.3733 49.2467 46.3733C48.764 46.3733 48.372 45.9813 48.372 45.4987C48.372 45.0147 48.764 44.6227 49.2467 44.6227Z" fill="#141D2B"/>
</svg>
