<svg width="32" height="32" viewBox="0 0 32 32" fill="none" xmlns="http://www.w3.org/2000/svg">
<g clip-path="url(#clip0_3355_187)">
<g clip-path="url(#clip1_3355_187)">
<path d="M32 0H0V32H32V0Z" fill="url(#paint0_linear_3355_187)"/>
<path d="M22.0488 20.8492C22.0488 20.1876 21.5105 19.6492 20.8489 19.6492C20.1873 19.6492 19.6488 20.1876 19.6488 20.8492C19.6488 21.5108 20.1873 22.0492 20.8489 22.0492C21.5105 22.0492 22.0488 21.5108 22.0488 20.8492ZM22.8489 20.8492C22.8489 21.952 21.9517 22.8492 20.8489 22.8492C19.7461 22.8492 18.8488 21.952 18.8488 20.8492C18.8488 19.7464 19.7461 18.8492 20.8489 18.8492C21.9517 18.8492 22.8489 19.7464 22.8489 20.8492ZM12.1568 15.0768C12.1568 14.4152 11.6184 13.8768 10.9568 13.8768C10.2948 13.8768 9.75685 14.4152 9.75685 15.0768C9.75685 15.7384 10.2948 16.2768 10.9568 16.2768C11.6184 16.2768 12.1568 15.7384 12.1568 15.0768ZM12.9568 15.0768C12.9568 16.1796 12.0592 17.0768 10.9568 17.0768C9.85405 17.0768 8.95685 16.1796 8.95685 15.0768C8.95685 13.974 9.85405 13.0768 10.9568 13.0768C12.0592 13.0768 12.9568 13.974 12.9568 15.0768ZM15.892 8.80285C15.892 9.46445 16.4304 10.0028 17.092 10.0028C17.754 10.0028 18.292 9.46445 18.292 8.80285C18.292 8.14085 17.754 7.60285 17.092 7.60285C16.4304 7.60285 15.892 8.14085 15.892 8.80285ZM15.092 8.80285C15.092 7.70005 15.9896 6.80285 17.092 6.80285C18.1948 6.80285 19.092 7.70005 19.092 8.80285C19.092 9.90565 18.1948 10.8028 17.092 10.8028C15.9896 10.8028 15.092 9.90565 15.092 8.80285ZM26.4 16C26.4 12.2908 24.4112 8.85925 21.2048 7.00365C20.63 7.11965 20.074 7.27845 19.3804 7.52925L19.1084 6.77685C19.4704 6.64645 19.7944 6.54085 20.1064 6.45045C18.8184 5.89485 17.4192 5.60005 16 5.60005C15.3244 5.60005 14.6596 5.67005 14.01 5.79685C14.4804 6.07205 14.8976 6.34645 15.3028 6.65365L14.8192 7.29085C14.248 6.85805 13.656 6.49125 12.8788 6.08405C8.95125 7.31925 6.12245 10.7832 5.67325 14.8512C6.49685 14.6844 7.28765 14.5936 8.16565 14.572L8.18525 15.3716C7.26525 15.3944 6.47485 15.492 5.61085 15.682C5.60725 15.788 5.60005 15.8952 5.60005 16C5.60005 19.4632 7.31325 22.6544 10.1308 24.5788C9.62965 23.0864 9.38005 21.676 9.38005 20.2984C9.38005 19.5128 9.51525 18.8676 9.65805 18.1848C9.69125 18.0268 9.72485 17.866 9.75765 17.6992L10.5428 17.854C10.5092 18.0236 10.4748 18.188 10.4412 18.3492C10.3012 19.018 10.18 19.5956 10.18 20.2984C10.18 21.8616 10.5232 23.478 11.2216 25.2332C12.7092 26.0056 14.3156 26.4 16 26.4C17.1024 26.4 18.1784 26.224 19.2048 25.8856C19.6076 25.0908 19.9064 24.3408 20.156 23.4796L20.9244 23.7024C20.742 24.3304 20.5328 24.9012 20.2836 25.4708C20.9292 25.1804 21.54 24.8213 22.1132 24.4021C21.9752 24.0637 21.8273 23.7272 21.6637 23.3996L22.3792 23.0416C22.5184 23.32 22.646 23.6048 22.768 23.8912C25.082 21.91 26.4 19.064 26.4 16ZM27.2001 16C27.2001 19.4908 25.6136 22.7196 22.8484 24.8596C22.1636 25.3916 21.4208 25.8333 20.6356 26.1889C20.3024 26.3401 19.9632 26.48 19.6144 26.5976C18.4624 26.9972 17.2452 27.2001 16 27.2001C14.16 27.2001 12.3328 26.7416 10.7152 25.8744C7.06685 23.9224 4.80005 20.1388 4.80005 16C4.80005 15.7256 4.80725 15.5168 4.82365 15.3236C5.09605 10.65 8.30245 6.60485 12.8004 5.26645C13.8248 4.95725 14.902 4.80005 16 4.80005C17.9232 4.80005 19.8156 5.29525 21.4736 6.23165C25.0052 8.21005 27.2001 11.9536 27.2001 16ZM14.9256 10.1852L14.4 9.58245C13.5032 10.3648 12.8056 11.1956 11.9908 12.4504L12.662 12.886C13.4332 11.6976 14.0892 10.9152 14.9256 10.1852ZM13.71 15.3708L13.45 16.1272C15.2872 16.758 16.89 17.7644 18.4936 19.2944L19.046 18.7156C17.3556 17.1032 15.66 16.0404 13.71 15.3708ZM19.0584 10.6672C20.5592 12.956 21.4044 15.4684 21.57 18.1352L20.7716 18.1848C20.6144 15.6584 19.8132 13.2768 18.39 11.106L19.0584 10.6672Z" fill="white"/>
</g>
</g>
<defs>
<linearGradient id="paint0_linear_3355_187" x1="0" y1="32" x2="32" y2="0" gradientUnits="userSpaceOnUse">
<stop stop-color="#4D27A8"/>
<stop offset="1" stop-color="#A166FF"/>
</linearGradient>
<clipPath id="clip0_3355_187">
<rect width="32" height="32" fill="white"/>
</clipPath>
<clipPath id="clip1_3355_187">
<rect width="32" height="32" fill="white"/>
</clipPath>
</defs>
</svg>
