<svg width="32" height="32" viewBox="0 0 32 32" fill="none" xmlns="http://www.w3.org/2000/svg">
<g clip-path="url(#clip0_3355_222)">
<g clip-path="url(#clip1_3355_222)">
<path d="M32 0H0V32H32V0Z" fill="url(#paint0_linear_3355_222)"/>
<path fill-rule="evenodd" clip-rule="evenodd" d="M7.71875 17.3333H6.66675V16H7.71341C7.82941 14.3346 8.37475 12.7493 9.35741 11.3893L10.4387 12.1706C9.62141 13.3013 9.16008 14.6173 9.04675 16H10.6667V17.3333H9.05208C9.17475 18.6933 9.63475 19.9853 10.4387 21.0986L9.35741 21.88C8.38808 20.5386 7.84541 18.976 7.71875 17.3333ZM21.8667 23.8986C20.5281 24.8666 18.9694 25.4093 17.3334 25.5373V26.6666H16.0001V25.5453C14.3294 25.4306 12.7401 24.884 11.3774 23.8986L12.1587 22.8186C13.2894 23.6386 14.6321 24.08 16.0001 24.188V22.6666H17.3334V24.18C18.6707 24.06 19.9787 23.62 21.0854 22.8186L21.8667 23.8986ZM11.3774 9.37196C12.7361 8.38796 14.3547 7.86529 16.0001 7.75463V6.66663H17.3334V7.76263C18.9481 7.88663 20.5307 8.40529 21.8667 9.37063L21.0854 10.452C19.9787 9.65063 18.6707 9.21063 17.3334 9.08929V10.6666H16.0001V9.08396C14.6321 9.19196 13.2894 9.63329 12.1587 10.4506L11.3774 9.37196ZM26.6667 16V17.3333H25.5254C25.3987 18.9773 24.8561 20.54 23.8854 21.88L22.8041 21.0973C23.6094 19.9866 24.0694 18.6946 24.1921 17.3333H22.6667V16H24.1961C24.0827 14.616 23.6227 13.3013 22.8041 12.172L23.8854 11.3893C24.8681 12.748 25.4134 14.3333 25.5294 16H26.6667ZM21.4267 10.888L24.0654 8.24929L25.0081 9.19196L22.3694 11.8306L21.4267 10.888ZM11.8161 22.3826L9.17875 25.0213L8.23608 24.0786L10.8734 21.44L11.8161 22.3826ZM12.0987 13.0426L7.10541 8.04929L8.04808 7.10663L13.0414 12.1L12.0987 13.0426ZM21.6321 20.6893L26.1374 25.196L25.1947 26.1386L20.6894 21.632L21.6321 20.6893ZM14.2587 16.9773C14.2601 16.976 14.3294 16.8613 14.3307 16.86C14.7107 16.2626 14.7961 15.5533 14.7601 14.916C14.8547 15.048 14.9387 15.1813 15.0041 15.3026C15.1294 15.5333 15.3921 15.6706 15.6427 15.6506C15.9067 15.6293 16.1334 15.456 16.2201 15.208C16.4707 14.4933 16.5401 13.8613 16.5027 13.3146C16.8481 14.1666 16.7294 15.2986 16.1814 16.308C15.4547 17.644 15.4227 19.0293 15.5441 20.016C15.3027 19.8893 15.0801 19.7533 14.8761 19.6106C14.0267 19.02 13.7561 17.8626 14.2587 16.9773ZM18.3481 17.3266C18.5841 17.464 18.8827 17.4426 19.1001 17.2693C19.1534 17.2266 19.4561 16.968 19.7294 16.4186C19.8201 16.8866 19.8201 17.5426 19.5854 18.4466C19.2507 19.74 17.7787 20.2213 16.9667 20.392C16.8041 19.6546 16.6427 18.2493 17.3534 16.944C17.7041 16.2973 17.8987 15.6173 17.9774 14.9493C18.0854 15.4293 18.1307 15.9786 18.0241 16.644C17.9801 16.9173 18.1094 17.188 18.3481 17.3266ZM13.1001 16.3186C12.2601 17.7973 12.7054 19.724 14.1134 20.7053C14.7121 21.1226 15.4321 21.4826 16.2547 21.776C16.3281 21.8026 16.4041 21.8146 16.4774 21.8146C16.4934 21.8146 16.5081 21.8066 16.5241 21.8053V21.8133C16.6734 21.8013 20.1747 21.4973 20.8774 18.78C21.7667 15.3333 19.8947 14.26 19.8134 14.216C19.6187 14.108 19.3814 14.1066 19.1841 14.2106C19.1814 14.212 19.1774 14.2146 19.1734 14.216C18.6574 12.6413 17.4681 11.7306 16.6294 11.3666C16.1761 11.0253 15.6321 10.7866 15.0134 10.6773C14.7094 10.6213 14.4241 10.7786 14.2974 11.0493C14.1681 11.32 14.2387 11.6466 14.4667 11.8426C14.5001 11.872 15.0761 12.384 15.1627 13.3613C14.7801 13.0226 14.3067 12.7533 13.7681 12.7533C13.5481 12.7533 13.3427 12.8626 13.2174 13.044C13.0934 13.2253 13.0681 13.4573 13.1467 13.6626C13.3081 14.0773 13.6654 15.4226 13.2067 16.1426L13.1001 16.3186Z" fill="white"/>
</g>
</g>
<defs>
<linearGradient id="paint0_linear_3355_222" x1="0" y1="32" x2="32" y2="0" gradientUnits="userSpaceOnUse">
<stop stop-color="#BD0816"/>
<stop offset="1" stop-color="#FF5252"/>
</linearGradient>
<clipPath id="clip0_3355_222">
<rect width="32" height="32" fill="white"/>
</clipPath>
<clipPath id="clip1_3355_222">
<rect width="32" height="32" fill="white"/>
</clipPath>
</defs>
</svg>
