<svg width="32" height="32" viewBox="0 0 32 32" fill="none" xmlns="http://www.w3.org/2000/svg">
<path d="M21.8212 20.7503C20.8052 21.6519 19.5364 22.7739 17.2358 22.7739H15.8601C14.1953 22.7739 12.6811 22.1687 11.5973 21.0719C10.5385 20.0002 9.95572 18.5334 9.95572 16.9411V15.0588C9.95572 13.4665 10.5385 11.9997 11.5973 10.9279C12.6811 9.83109 14.1953 9.2269 15.8601 9.2269H17.2358C19.5392 9.2269 20.8052 10.3479 21.8212 11.2496C22.8762 12.1791 23.7862 12.9915 26.2132 12.9915C26.5833 12.9914 26.9529 12.9618 27.3184 12.9032L27.31 12.8818C27.1647 12.5208 26.9942 12.1704 26.7997 11.8333L25.1777 9.02333C23.6908 6.44835 20.9342 4.85708 17.9608 4.85718H14.7158C11.7425 4.85708 8.98585 6.44835 7.49898 9.02333L5.87695 11.8333C4.39063 14.4086 4.39063 17.5913 5.87695 20.1665L7.49898 22.9765C8.98585 25.5515 11.7425 27.1428 14.7158 27.1427H17.9608C20.9342 27.1428 23.6908 25.5515 25.1777 22.9765L26.7997 20.1712C26.9942 19.834 27.1647 19.4837 27.31 19.1227L27.3184 19.1022C26.9531 19.0415 26.5835 19.0105 26.2132 19.0093C23.7862 19.0093 22.8762 19.817 21.8212 20.7512" fill="#006BFF"/>
<path d="M17.2358 10.9326H15.8601C13.3262 10.9326 11.6614 12.7424 11.6614 15.0588V16.9411C11.6614 19.2575 13.3262 21.0673 15.8601 21.0673H17.2358C20.9279 21.0673 20.6378 17.3027 26.2132 17.3027C26.7414 17.3021 27.2686 17.3506 27.7878 17.4477C27.957 16.49 27.957 15.5099 27.7878 14.5522C27.2685 14.6488 26.7414 14.6973 26.2132 14.6972C20.636 14.6972 20.9279 10.9326 17.2358 10.9326" fill="#006BFF"/>
<path d="M30.9909 18.8234C30.0415 18.1281 28.9465 17.6574 27.7887 17.4468V17.4747C27.689 18.0297 27.5332 18.5731 27.3239 19.0967C28.2803 19.2448 29.1879 19.6187 29.9712 20.1871C29.9712 20.1945 29.9665 20.2038 29.9638 20.2122C28.1213 26.1781 22.5685 30.2748 16.3246 30.2748C8.49366 30.2748 2.04978 23.8309 2.04978 16C2.04978 8.16908 8.49366 1.72521 16.3246 1.72521C22.5685 1.72521 28.1213 5.82192 29.9638 11.7878C29.9638 11.7962 29.9684 11.8055 29.9712 11.8129C29.188 12.3814 28.2804 12.7549 27.3239 12.9023C27.533 13.4266 27.6887 13.9707 27.7887 14.5262C27.7881 14.5349 27.7881 14.5436 27.7887 14.5523C28.9464 14.3421 30.0415 13.8717 30.9909 13.1766C31.9037 12.5008 31.7271 11.7376 31.5886 11.2859C29.5258 4.59541 23.3 0 16.2988 0C7.52146 0 0.298828 7.22263 0.298828 16C0.298828 24.7774 7.52146 32 16.2988 32C23.3 32 29.5258 27.4046 31.5886 20.7141C31.7271 20.2624 31.9037 19.4992 30.9909 18.8234" fill="#006BFF"/>
<path d="M27.3183 12.9023C26.953 12.963 26.5834 12.9941 26.213 12.9953C23.786 12.9953 22.876 12.1875 21.8219 11.2533C20.805 10.3517 19.539 9.22974 17.2356 9.22974H15.8599C14.1942 9.22974 12.6809 9.83486 11.5971 10.9317C10.5384 12.0035 9.95557 13.4703 9.95557 15.0625V16.9448C9.95557 18.5371 10.5384 20.0039 11.5971 21.0757C12.6809 22.1725 14.1942 22.7767 15.8599 22.7767H17.2356C19.539 22.7767 20.805 21.6557 21.8219 20.754C22.876 19.8245 23.786 19.0121 26.213 19.0121C26.5832 19.0122 26.9528 19.0418 27.3183 19.1004C27.5281 18.577 27.6837 18.0335 27.783 17.4784C27.7836 17.4691 27.7836 17.4598 27.783 17.4505C27.2637 17.3542 26.7366 17.306 26.2084 17.3064C20.6312 17.3064 20.9231 21.0719 17.231 21.0719H15.8553C13.3214 21.0719 11.6566 19.2612 11.6566 16.9448V15.0588C11.6566 12.7424 13.3214 10.9326 15.8553 10.9326H17.231C20.9231 10.9326 20.6331 14.6963 26.2084 14.6963C26.7367 14.6972 27.2638 14.649 27.783 14.5522V14.5262C27.6831 13.9706 27.5274 13.4266 27.3183 12.9023" fill="#0AE8F0"/>
<path d="M27.3183 12.9023C26.953 12.963 26.5834 12.9941 26.213 12.9953C23.786 12.9953 22.876 12.1875 21.8219 11.2533C20.805 10.3517 19.539 9.22974 17.2356 9.22974H15.8599C14.1942 9.22974 12.6809 9.83486 11.5971 10.9317C10.5384 12.0035 9.95557 13.4703 9.95557 15.0625V16.9448C9.95557 18.5371 10.5384 20.0039 11.5971 21.0757C12.6809 22.1725 14.1942 22.7767 15.8599 22.7767H17.2356C19.539 22.7767 20.805 21.6557 21.8219 20.754C22.876 19.8245 23.786 19.0121 26.213 19.0121C26.5832 19.0122 26.9528 19.0418 27.3183 19.1004C27.5281 18.577 27.6837 18.0335 27.783 17.4784C27.7836 17.4691 27.7836 17.4598 27.783 17.4505C27.2637 17.3542 26.7366 17.306 26.2084 17.3064C20.6312 17.3064 20.9231 21.0719 17.231 21.0719H15.8553C13.3214 21.0719 11.6566 19.2612 11.6566 16.9448V15.0588C11.6566 12.7424 13.3214 10.9326 15.8553 10.9326H17.231C20.9231 10.9326 20.6331 14.6963 26.2084 14.6963C26.7367 14.6972 27.2638 14.649 27.783 14.5522V14.5262C27.6831 13.9706 27.5274 13.4266 27.3183 12.9023" fill="#0AE8F0"/>
</svg>
