<svg width="32" height="32" viewBox="0 0 32 32" fill="none" xmlns="http://www.w3.org/2000/svg">
<g clip-path="url(#clip0_4238_14)">
<path d="M11.4518 31.8696C11.0078 31.7609 10.6613 31.5654 10.3364 31.2394C9.96278 30.8699 9.76245 30.4896 9.65957 29.9572C9.5946 29.6095 9.5946 29.5008 9.65957 29.1531C9.80576 28.4143 9.85991 28.3382 11.8633 26.3226C13.087 25.0893 13.7205 24.4102 13.78 24.2744C13.9425 23.8723 13.8234 23.3453 13.5093 23.1008C13.2115 22.8672 12.7513 22.8292 12.3993 23.0139C12.3235 23.0519 11.2298 24.1277 9.96278 25.399C8.69578 26.6757 7.56414 27.784 7.4396 27.871C6.46498 28.5555 4.93267 28.2839 4.22877 27.3005C3.70356 26.5671 3.62234 25.7087 3.98512 24.8666C4.1259 24.5514 4.47784 24.182 9.6325 19.0044C15.1283 13.4737 15.1283 13.4737 15.1499 13.1097C15.1662 12.7891 15.1499 12.7131 15.0416 12.5501C14.7817 12.1643 14.3486 12.0014 13.91 12.1154C13.6934 12.1698 13.2061 12.6479 8.74451 17.1137C3.03757 22.8238 3.53571 22.4054 2.46363 22.4109C1.87886 22.4109 1.85179 22.4054 1.45652 22.2098C0.11913 21.547 -0.341107 19.9063 0.487319 18.7219C0.568538 18.6024 1.97091 17.1681 3.60069 15.5382C5.22505 13.9083 6.60576 12.4849 6.66532 12.3762C6.88732 11.9416 6.74113 11.3711 6.32962 11.0995C6.15635 10.9854 6.04806 10.9582 5.80441 10.9582C5.63656 10.9582 5.43622 10.9908 5.36042 11.0289C5.28461 11.0669 4.99223 11.3277 4.71067 11.5993C4.42911 11.8764 4.09883 12.148 3.97429 12.2132C3.68732 12.3599 3.15669 12.4958 2.86972 12.4958C2.60982 12.4958 2.05754 12.3599 1.81388 12.2404C0.590196 11.621 0.124545 10.1053 0.795949 8.91001C0.969215 8.60034 7.01185 2.50458 7.39087 2.25467C7.7374 2.03192 8.31676 1.8472 8.69037 1.8472C9.30221 1.8472 10.0711 2.20577 10.4826 2.68387C10.8778 3.1348 11.1432 3.94974 11.0674 4.48217C11.024 4.79185 10.8941 5.18845 10.7479 5.4438C10.6775 5.56332 9.95196 6.34023 9.13436 7.16604C7.61287 8.70356 7.52624 8.80679 7.52624 9.20883C7.52624 9.63259 7.86735 10.0672 8.26803 10.1487C8.39798 10.1813 8.54959 10.1922 8.59832 10.1868C8.64705 10.1759 8.76617 10.1487 8.8528 10.1324C8.97734 10.1053 10.1685 8.94261 13.8342 5.26995C18.3716 0.717145 18.6748 0.429199 19.0051 0.28251C19.5628 0.0325951 19.9851 -0.0326001 20.4291 0.0760586C20.9597 0.201016 21.3333 0.396602 21.669 0.722578C22.2159 1.24957 22.4812 2.05365 22.3621 2.81426C22.243 3.55857 22.2917 3.50424 19.0538 6.764C17.0179 8.81765 16.0596 9.81731 16 9.95314C15.8971 10.2085 15.8971 10.4367 16 10.692C16.1787 11.1212 16.4657 11.3005 16.953 11.3005C17.2887 11.3005 17.2887 11.3005 18.1929 10.4041C18.9401 9.65976 19.1513 9.48591 19.4491 9.34465C20.1746 9.00237 20.9218 9.01324 21.6095 9.37725C22.8169 10.0183 23.2393 11.6048 22.5083 12.7457C22.4325 12.8652 20.6728 14.6581 18.599 16.7334C16.4981 18.836 14.7817 20.5963 14.7222 20.7104C14.4839 21.1776 14.6951 21.7861 15.1878 22.0414C15.4098 22.1609 15.8592 22.1501 16.0596 22.0306C16.1462 21.9762 18.9239 19.2272 22.2267 15.9185C29.152 8.99151 28.4589 9.58913 29.5635 9.58913C30.1536 9.58913 30.2078 9.6 30.5489 9.76298C31.8105 10.3606 32.2924 11.7949 31.6643 13.0662C31.5939 13.202 30.419 14.4244 28.4806 16.3803C25.3239 19.5531 25.2318 19.6618 25.2318 20.0693C25.2372 20.5148 25.6325 20.9603 26.0657 21.0092C26.5367 21.0635 26.6613 21.0037 27.2569 20.4333C27.5601 20.1399 27.8904 19.8574 27.9932 19.8031C29.0003 19.2815 30.1157 19.4553 30.8684 20.2486C31.5614 20.9766 31.7293 21.9436 31.3178 22.8835C31.1824 23.1986 30.9821 23.416 28.9733 25.437C26.5855 27.8492 26.5097 27.909 25.7624 28.0665C24.9286 28.2404 24.0352 27.9144 23.4883 27.2353C22.9144 26.5182 22.8007 25.4587 23.2122 24.6384C23.288 24.4917 23.5641 24.1494 23.824 23.8778C24.4792 23.1986 24.5821 22.9705 24.4467 22.5032C24.2897 21.9762 23.7428 21.6828 23.2122 21.8404C23.0173 21.8947 22.335 22.5576 18.1658 26.73C13.9262 30.9677 13.309 31.5708 13.0383 31.6958C12.5022 31.9402 11.9824 32 11.4518 31.8696Z" fill="#EB603F"/>
</g>
<defs>
<clipPath id="clip0_4238_14">
<rect width="32" height="32" fill="white"/>
</clipPath>
</defs>
</svg>
