<svg width="32" height="32" viewBox="0 0 32 32" fill="none" xmlns="http://www.w3.org/2000/svg">
<path d="M24.2557 13.6669C24.2597 13.7274 24.2507 13.788 24.2295 13.8448C24.2083 13.9015 24.1754 13.9531 24.1328 13.9962C24.0902 14.0393 24.0389 14.0729 23.9824 14.0948C23.9259 14.1167 23.8654 14.1264 23.8049 14.1232H15.1743C15.1136 14.1263 15.0529 14.1166 14.9961 14.0948C14.9393 14.0729 14.8878 14.0395 14.8448 13.9965C14.8018 13.9535 14.7683 13.9019 14.7464 13.8451C14.7246 13.7884 14.7149 13.7276 14.7181 13.6669V12.6892C14.7149 12.6285 14.7246 12.5678 14.7464 12.511C14.7683 12.4543 14.8018 12.4027 14.8448 12.3597C14.8878 12.3167 14.9393 12.2832 14.9961 12.2614C15.0529 12.2395 15.1136 12.2299 15.1743 12.233H23.7941C23.8546 12.2298 23.9151 12.2395 23.9716 12.2613C24.0281 12.2832 24.0793 12.3168 24.1219 12.3599C24.1645 12.403 24.1975 12.4546 24.2187 12.5114C24.2399 12.5682 24.2488 12.6288 24.2449 12.6892L24.2557 13.6669Z" fill="#E74C3D"/>
<path d="M28.074 16.5021C28.078 16.5631 28.069 16.6242 28.0475 16.6813C28.0259 16.7385 27.9925 16.7904 27.9493 16.8336C27.9061 16.8768 27.8541 16.9103 27.797 16.9318C27.7398 16.9533 27.6787 16.9624 27.6178 16.9584H16.9884C16.9277 16.9624 16.8668 16.9534 16.8099 16.9319C16.7529 16.9103 16.7013 16.8767 16.6586 16.8334C16.6158 16.7901 16.5828 16.7381 16.562 16.6809C16.5411 16.6238 16.5328 16.5628 16.5376 16.5021V15.5027C16.5336 15.4425 16.5425 15.3821 16.5637 15.3256C16.585 15.2691 16.6181 15.2177 16.6607 15.1751C16.7034 15.1324 16.7548 15.0993 16.8113 15.0781C16.8677 15.0568 16.9282 15.0479 16.9884 15.0519H27.5254C27.5859 15.048 27.6465 15.0569 27.7033 15.0781C27.7601 15.0993 27.8117 15.1323 27.8548 15.1749C27.8979 15.2175 27.9315 15.2687 27.9533 15.3252C27.9752 15.3817 27.9849 15.4422 27.9817 15.5027L28.074 16.5021Z" fill="#E74C3D"/>
<path d="M30.9811 19.408C30.9851 19.4689 30.976 19.53 30.9545 19.5872C30.933 19.6443 30.8995 19.6963 30.8563 19.7394C30.8131 19.7826 30.7612 19.8161 30.704 19.8376C30.6469 19.8592 30.5858 19.8682 30.5248 19.8642H18.9884C18.9277 19.8683 18.8668 19.8593 18.8099 19.8377C18.7529 19.8162 18.7013 19.7826 18.6585 19.7393C18.6157 19.696 18.5828 19.644 18.562 19.5868C18.5411 19.5297 18.5328 19.4687 18.5376 19.408V18.414C18.5328 18.3533 18.5411 18.2923 18.562 18.2352C18.5828 18.178 18.6157 18.126 18.6585 18.0827C18.7013 18.0394 18.7529 18.0058 18.8099 17.9843C18.8668 17.9627 18.9277 17.9537 18.9884 17.9578H30.5248C30.5858 17.9538 30.6469 17.9628 30.704 17.9843C30.7612 18.0059 30.8131 18.0394 30.8563 18.0825C30.8995 18.1257 30.933 18.1776 30.9545 18.2348C30.976 18.292 30.9851 18.3531 30.9811 18.414V19.408Z" fill="#E74C3D"/>
<path d="M30.9811 22.3192C30.9843 22.3797 30.9746 22.4402 30.9527 22.4967C30.9308 22.5532 30.8973 22.6045 30.8542 22.6471C30.8111 22.6896 30.7594 22.7226 30.7027 22.7438C30.6459 22.765 30.5853 22.7739 30.5248 22.77H18.9884C18.9282 22.774 18.8677 22.7651 18.8112 22.7439C18.7547 22.7226 18.7034 22.6896 18.6607 22.6469C18.6181 22.6042 18.585 22.5529 18.5637 22.4964C18.5425 22.4399 18.5336 22.3794 18.5376 22.3192V21.3198C18.5328 21.2592 18.5411 21.1982 18.562 21.141C18.5828 21.0838 18.6157 21.0318 18.6585 20.9885C18.7013 20.9452 18.7529 20.9116 18.8099 20.8901C18.8668 20.8685 18.9277 20.8595 18.9884 20.8636H30.5248C30.5858 20.8596 30.6469 20.8687 30.704 20.8902C30.7612 20.9117 30.8131 20.9451 30.8563 20.9883C30.8995 21.0315 30.933 21.0834 30.9545 21.1406C30.976 21.1978 30.9851 21.2589 30.9811 21.3198V22.3192Z" fill="#E74C3D"/>
<path d="M28.0749 25.1327C28.078 25.1935 28.0683 25.2542 28.0465 25.3109C28.0246 25.3677 27.9911 25.4192 27.9481 25.4623C27.9052 25.5053 27.8536 25.5388 27.7968 25.5606C27.7401 25.5824 27.6793 25.5921 27.6186 25.589H16.9892C16.9287 25.5921 16.8682 25.5825 16.8117 25.5606C16.7552 25.5388 16.7039 25.5052 16.6614 25.4621C16.6188 25.419 16.5858 25.3673 16.5646 25.3106C16.5434 25.2538 16.5345 25.1932 16.5384 25.1327V24.1333C16.5345 24.0729 16.5434 24.0122 16.5646 23.9555C16.5858 23.8987 16.6188 23.8471 16.6614 23.804C16.7039 23.7609 16.7552 23.7273 16.8117 23.7054C16.8682 23.6835 16.9287 23.6739 16.9892 23.6771H27.5262C27.587 23.674 27.6477 23.6836 27.7045 23.7055C27.7613 23.7273 27.8128 23.7608 27.8558 23.8038C27.8988 23.8468 27.9323 23.8984 27.9541 23.9551C27.976 24.0119 27.9856 24.0726 27.9825 24.1333L28.0749 25.1327Z" fill="#E74C3D"/>
<path d="M24.2557 28.0385C24.2597 28.099 24.2508 28.1596 24.2295 28.2164C24.2084 28.2731 24.1754 28.3248 24.1328 28.3679C24.0902 28.411 24.039 28.4446 23.9825 28.4665C23.926 28.4883 23.8654 28.498 23.805 28.4948H15.1743C15.1136 28.4979 15.0529 28.4882 14.9961 28.4664C14.9394 28.4446 14.8878 28.4111 14.8448 28.3681C14.8018 28.3251 14.7683 28.2735 14.7465 28.2168C14.7246 28.16 14.715 28.0993 14.7181 28.0385V27.0392C14.7149 26.9786 14.7245 26.9181 14.7464 26.8617C14.7683 26.8051 14.8019 26.7539 14.845 26.7113C14.8881 26.6687 14.9397 26.6358 14.9965 26.6145C15.0532 26.5934 15.1139 26.5844 15.1743 26.5883H23.7941C23.8543 26.5843 23.9147 26.5933 23.9712 26.6145C24.0277 26.6357 24.079 26.6688 24.1217 26.7115C24.1644 26.7542 24.1975 26.8055 24.2188 26.862C24.24 26.9185 24.2489 26.9789 24.2449 27.0392L24.2557 28.0385Z" fill="#E74C3D"/>
<path d="M7.9081 4.97655C7.9049 5.03706 7.91456 5.09756 7.93642 5.15406C7.95831 5.21057 7.99191 5.2618 8.03501 5.30439C8.07812 5.34698 8.12973 5.37996 8.1865 5.40115C8.24327 5.42235 8.30388 5.43128 8.36436 5.42736H16.9895C17.0502 5.43218 17.1112 5.42387 17.1684 5.40299C17.2255 5.38212 17.2775 5.34917 17.3208 5.30639C17.3641 5.26361 17.3977 5.21201 17.4193 5.15509C17.4408 5.09817 17.4499 5.03727 17.4458 4.97655V3.97716C17.4498 3.91621 17.4407 3.85511 17.4192 3.79794C17.3977 3.74078 17.3642 3.68886 17.321 3.64567C17.2778 3.60248 17.2259 3.56901 17.1687 3.5475C17.1116 3.52598 17.0505 3.51692 16.9895 3.52092H8.36436C8.30359 3.5178 8.24288 3.52745 8.18612 3.54928C8.12935 3.5711 8.0778 3.6046 8.03479 3.6476C7.99178 3.69061 7.95831 3.74216 7.93645 3.79893C7.91463 3.8557 7.90496 3.91642 7.9081 3.97716V4.97655Z" fill="#E74C3D"/>
<path d="M4.18593 7.87692C4.18193 7.93717 4.19084 7.99756 4.21208 8.05407C4.23332 8.11058 4.26639 8.16191 4.30908 8.2046C4.35177 8.24728 4.40309 8.28034 4.4596 8.30159C4.5161 8.32284 4.57651 8.33173 4.63674 8.32773H15.1738C15.2343 8.33167 15.2949 8.32274 15.3516 8.30152C15.4084 8.28034 15.46 8.24735 15.5031 8.20479C15.5462 8.1622 15.5798 8.11096 15.6017 8.05445C15.6236 7.99794 15.6332 7.93743 15.63 7.87692V6.87752C15.6332 6.81679 15.6235 6.75608 15.6017 6.69932C15.5798 6.64255 15.5463 6.591 15.5033 6.54799C15.4603 6.50499 15.4088 6.47149 15.352 6.44967C15.2952 6.42784 15.2345 6.41818 15.1738 6.4213H4.63674C4.57622 6.4181 4.51574 6.42776 4.45923 6.44963C4.40272 6.4715 4.35149 6.5051 4.3089 6.5482C4.26631 6.5913 4.23333 6.64293 4.21214 6.6997C4.19094 6.75647 4.18201 6.81708 4.18593 6.87752V7.87692Z" fill="#E74C3D"/>
<path d="M1.28093 10.7827C1.27693 10.843 1.28584 10.9034 1.30708 10.9599C1.32832 11.0164 1.3614 11.0677 1.40408 11.1104C1.44677 11.1531 1.49809 11.1862 1.5546 11.2074C1.61111 11.2287 1.6715 11.2376 1.73174 11.2336H13.2682C13.3284 11.2376 13.3888 11.2287 13.4453 11.2074C13.5018 11.1862 13.5532 11.1531 13.5958 11.1104C13.6385 11.0677 13.6716 11.0164 13.6928 10.9599C13.7141 10.9034 13.723 10.843 13.719 10.7827V9.78338C13.7229 9.7229 13.714 9.66229 13.6928 9.60552C13.6716 9.54875 13.6386 9.49711 13.596 9.45403C13.5534 9.41093 13.5022 9.37733 13.4457 9.35544C13.3892 9.33359 13.3287 9.32392 13.2682 9.32712H1.73174C1.67123 9.32392 1.61073 9.33359 1.55422 9.35544C1.49772 9.37733 1.44649 9.41093 1.4039 9.45403C1.36131 9.49711 1.32833 9.54875 1.30714 9.60552C1.28594 9.66229 1.27701 9.7229 1.28093 9.78338V10.7827Z" fill="#E74C3D"/>
<path d="M1.2809 13.6669C1.27698 13.7274 1.28591 13.788 1.3071 13.8448C1.3283 13.9015 1.36127 13.9531 1.40386 13.9962C1.44645 14.0393 1.49768 14.0729 1.55419 14.0948C1.6107 14.1167 1.6712 14.1264 1.73171 14.1232H13.2682C13.3287 14.1264 13.3892 14.1167 13.4457 14.0948C13.5022 14.0729 13.5534 14.0393 13.596 13.9962C13.6386 13.9531 13.6716 13.9015 13.6927 13.8448C13.714 13.788 13.7229 13.7274 13.7189 13.6669V12.6892C13.7229 12.6288 13.714 12.5682 13.6927 12.5114C13.6716 12.4546 13.6386 12.403 13.596 12.3599C13.5534 12.3168 13.5022 12.2832 13.4457 12.2613C13.3892 12.2395 13.3287 12.2298 13.2682 12.233H1.73171C1.6712 12.2298 1.6107 12.2395 1.55419 12.2613C1.49768 12.2832 1.44645 12.3168 1.40386 12.3599C1.36127 12.403 1.3283 12.4546 1.3071 12.5114C1.28591 12.5682 1.27698 12.6288 1.2809 12.6892V13.6669Z" fill="#E74C3D"/>
<path d="M4.18633 16.5021C4.18151 16.5628 4.18982 16.6238 4.21069 16.6809C4.23157 16.7381 4.26451 16.7901 4.30729 16.8334C4.35007 16.8767 4.40168 16.9103 4.4586 16.9319C4.51552 16.9534 4.57642 16.9624 4.63715 16.9584H15.1742C15.2351 16.9624 15.2962 16.9533 15.3534 16.9318C15.4106 16.9103 15.4625 16.8768 15.5057 16.8336C15.5489 16.7904 15.5823 16.7385 15.6038 16.6813C15.6254 16.6242 15.6344 16.5631 15.6304 16.5021V15.5027C15.6336 15.4422 15.624 15.3817 15.6021 15.3252C15.5802 15.2687 15.5466 15.2175 15.5035 15.1749C15.4604 15.1323 15.4088 15.0993 15.352 15.0781C15.2953 15.0569 15.2347 15.048 15.1742 15.0519H4.63715C4.5769 15.0479 4.51651 15.0568 4.45999 15.0781C4.40348 15.0993 4.35217 15.1324 4.30948 15.1751C4.26679 15.2177 4.23372 15.2691 4.21248 15.3256C4.19124 15.3821 4.18233 15.4425 4.18633 15.5027V16.5021Z" fill="#E74C3D"/>
<path d="M7.90841 19.4079C7.90441 19.4689 7.91347 19.53 7.93501 19.5872C7.95651 19.6443 7.98998 19.6962 8.03318 19.7394C8.07635 19.7826 8.12829 19.8161 8.18544 19.8376C8.24262 19.8591 8.30371 19.8682 8.36467 19.8642H16.9898C17.0508 19.8682 17.1119 19.8591 17.1691 19.8376C17.2262 19.8161 17.2781 19.7826 17.3213 19.7394C17.3645 19.6962 17.398 19.6443 17.4195 19.5872C17.441 19.53 17.4501 19.4689 17.4461 19.4079V18.414C17.4501 18.353 17.441 18.2919 17.4195 18.2347C17.398 18.1776 17.3645 18.1257 17.3213 18.0825C17.2781 18.0393 17.2262 18.0058 17.1691 17.9843C17.1119 17.9628 17.0508 17.9537 16.9898 17.9577H8.36467C8.30371 17.9537 8.24262 17.9628 8.18544 17.9843C8.12829 18.0058 8.07635 18.0393 8.03318 18.0825C7.98998 18.1257 7.95651 18.1776 7.93501 18.2347C7.91347 18.2919 7.90441 18.353 7.90841 18.414V19.4079Z" fill="#E74C3D"/>
</svg>
