<svg width="32" height="32" viewBox="0 0 32 32" fill="none" xmlns="http://www.w3.org/2000/svg">
<path d="M8.5416 28.453C7.88213 27.33 7.51108 26.0611 7.4616 24.7597C7.4186 23.2439 7.75989 21.7418 8.45369 20.3933C9.14749 19.0449 10.1712 17.894 11.4296 17.0477C12.846 16.0696 14.1834 14.9818 15.4296 13.7944C16.3815 12.8873 17.0969 11.7611 17.5134 10.514C17.9299 9.26683 18.0348 7.93671 17.8189 6.6397C17.393 4.28735 16.5214 2.0381 15.2509 0.013037C15.2509 -0.0162963 15.1643 0.013037 15.1643 0.013037C15.1056 0.687704 15.0763 1.39037 14.9603 2.06637C14.8408 3.09565 14.606 4.10824 14.2603 5.08504C13.0374 7.7657 11.4465 10.2627 9.5336 12.5037C8.03458 14.1795 6.82271 16.0915 5.94693 18.1624C5.2651 19.9357 5.14831 21.8765 5.61258 23.7187C6.07685 25.561 7.09946 27.2147 8.54027 28.453H8.5416ZM19.6869 8.5157C19.9183 10.0532 19.542 11.6203 18.6376 12.885C17.1776 14.8325 15.3787 16.501 13.3269 17.8104C11.7694 18.8119 10.4935 20.1947 9.62027 21.8277C8.85812 23.3251 8.70582 25.0596 9.19535 26.6669C9.68488 28.2742 10.7782 29.6293 12.2456 30.4477C13.0802 30.9185 14.0314 31.1423 14.9883 31.093C14.7323 30.9073 14.4696 30.7295 14.2003 30.5597C13.0183 29.6922 12.2223 28.3968 11.9824 26.9504C11.7425 25.504 12.0777 24.0211 12.9163 22.8184C14.0091 21.5386 15.3234 20.4659 16.7963 19.6517C18.2218 18.7466 19.4275 17.535 20.3256 16.105C20.957 14.9097 21.2324 13.5584 21.1189 12.2113C21.0055 10.8642 20.508 9.57792 19.6856 8.50504L19.6869 8.5157ZM26.3669 18.6664C25.9798 18.5725 25.5714 18.6332 25.2283 18.8356C24.8853 19.038 24.6346 19.3661 24.5296 19.7504C24.3241 21.188 23.6807 22.5274 22.6869 23.5864C22.3036 24.0486 21.828 24.4257 21.2905 24.6934C20.753 24.9611 20.1655 25.1136 19.5656 25.141C19.304 25.1641 19.041 25.1157 18.8047 25.001C18.5685 24.8863 18.3678 24.7096 18.2241 24.4898C18.0803 24.27 17.999 24.0153 17.9887 23.7528C17.9784 23.4904 18.0395 23.2301 18.1656 22.9997C18.4806 22.3894 18.9055 21.8425 19.4189 21.3864C20.1314 20.7291 20.6994 19.9309 21.0869 19.0424C21.1456 18.8957 21.3536 18.6904 21.1163 18.5437C20.9416 18.4264 20.8243 18.661 20.7083 18.749C19.8952 19.5999 18.973 20.3393 17.9656 20.9477C17.0993 21.4065 16.2788 21.9467 15.5149 22.561C14.6582 23.1861 14.0504 24.0944 13.7995 25.1249C13.5486 26.1554 13.6708 27.2414 14.1443 28.1904C14.6946 29.0616 15.5353 29.71 16.5177 30.0212C17.5 30.3323 18.5608 30.2859 19.5123 29.8904C20.4828 29.5169 21.3663 28.9483 22.1083 28.2197C23.1452 27.1809 23.9555 25.9384 24.4879 24.5706C25.0203 23.2028 25.2634 21.7395 25.2016 20.273C25.1709 19.0997 25.2016 19.0997 26.3669 18.6597V18.6664Z" fill="#F33D66"/>
</svg>
