<svg width="32" height="32" viewBox="0 0 32 32" fill="none" xmlns="http://www.w3.org/2000/svg">
<path d="M3.20001 19.4934C3.20001 19.28 3.30668 19.0667 3.30668 18.8534C3.41335 17.04 3.73335 15.2267 4.37335 13.6267C5.22668 11.1734 6.61335 8.8267 8.42668 7.01336C10.3467 4.9867 12.8 3.60003 15.4667 2.85336C16.64 2.53336 17.8133 2.32003 19.0933 2.21336C19.9467 2.1067 20.9067 2.1067 21.8667 2.21336C23.8933 2.32003 25.8133 2.7467 27.6267 3.49336C27.9467 3.7067 28.3733 3.92003 28.8 4.13336C29.2267 4.3467 29.44 4.88003 29.44 5.3067C29.44 6.2667 29.3333 7.2267 28.9067 8.08003C28.8 8.29336 28.6933 8.5067 28.48 8.72003C28.48 9.04003 28.16 9.1467 27.9467 9.04003C27.7333 8.93336 27.52 8.8267 27.3067 8.72003C26.1333 7.97336 24.8533 7.44003 23.4667 7.01336C22.8267 6.9067 22.1867 6.80003 21.5467 6.69336C20.9067 6.69336 20.16 6.69336 19.52 6.69336C18.0267 6.80003 16.5333 7.2267 15.2533 7.97336C13.76 8.93336 12.48 10.1067 11.52 11.6C10.3467 13.3067 9.60001 15.3334 9.28001 17.36C9.06668 18.1067 9.06668 18.96 9.06668 19.7067C9.06668 20.7734 9.28001 21.7334 9.70668 22.6934C10.3467 24.08 11.52 25.1467 12.9067 25.68C13.8667 26 14.9333 26.1067 16 26.1067C17.28 26.1067 18.56 25.8934 19.7333 25.36C19.9467 25.2534 20.0533 25.1467 20.0533 24.9334C20.48 22.9067 20.9067 20.9867 21.2267 18.96C21.2267 18.8534 21.2267 18.7467 21.2267 18.7467H16C15.68 18.7467 15.4667 18.64 15.4667 18.32C15.4667 18.1067 15.4667 17.7867 15.4667 17.5734C15.5733 16.9334 15.68 16.2934 15.8933 15.6534C16 15.3334 16.1067 15.0134 16.32 14.8C16.4267 14.5867 16.64 14.48 16.96 14.48H26.6667C27.0933 14.5867 27.4133 15.0134 27.52 15.44C27.52 15.6534 27.52 15.9734 27.52 16.1867C26.88 19.1734 26.3467 22.0534 25.7067 24.9334C25.4933 25.7867 25.3867 26.64 25.1733 27.4934C25.1733 27.7067 25.0667 27.8134 25.0667 28.0267C24.96 28.4534 24.64 28.88 24.1067 29.0934C23.36 29.4134 22.6133 29.7334 21.8667 29.9467C20.48 30.3734 18.9867 30.6934 17.4933 30.8C16.1067 30.9067 14.6133 30.9067 13.2267 30.8C11.7333 30.6934 10.3467 30.2667 9.06668 29.7334C6.29335 28.6667 4.37335 26.2134 3.73335 23.3334C3.62668 22.6934 3.52001 22.0534 3.41335 21.4134C3.41335 21.2 3.30668 21.0934 3.30668 20.88V19.4934H3.20001Z" fill="#6E3FA3"/>
</svg>
