<svg width="32" height="32" viewBox="0 0 32 32" fill="none" xmlns="http://www.w3.org/2000/svg">
	<style>
		path {
			fill: black;
		}

		@media (prefers-color-scheme: dark) {
			path {
				fill: white;
			}
		}
	</style>
	<g>
		<path
			d="M16.057 31.5599C15.8142 31.5599 15.5715 31.4216 15.4328 31.1797C15.3287 30.9377 15.3287 30.6958 15.5021 30.4884L22.889 20.3616L9.95324 25.6151C9.84921 25.6496 9.77987 25.6842 9.67579 25.6842C9.36371 25.6842 9.08626 25.4768 9.01687 25.2003C8.91284 24.9238 9.05157 24.6128 9.29432 24.44L20.6695 17.7694L0.658936 16.6288C0.242771 16.5943 0 16.2832 0 15.9376C0 15.6265 0.20809 15.2809 0.658936 15.2463L20.6695 14.1058L9.29432 7.43518C9.05157 7.26238 8.91284 6.9513 9.01687 6.67481C9.1209 6.39832 9.36371 6.19094 9.67579 6.19094C9.77987 6.19094 9.84921 6.22552 9.95324 6.2601L22.889 11.5136L15.5021 1.3522C15.3634 1.14482 15.3287 0.868327 15.4328 0.660949C15.5368 0.419012 15.7795 0.280762 16.057 0.280762C16.2304 0.280762 16.4038 0.349887 16.5425 0.488137L31.247 15.1081C31.455 15.3155 31.5591 15.6265 31.5591 15.903C31.5591 16.1795 31.455 16.456 31.247 16.6979L16.5425 31.3525C16.4038 31.4907 16.2304 31.5599 16.057 31.5599Z"
			fill="white" />
	</g>
	<defs>
		<clipPath>
			<rect width="32" height="31.4386" fill="white" transform="translate(0 0.280762)" />
		</clipPath>
	</defs>
</svg>
