<svg width="32" height="32" viewBox="0 0 32 32" fill="none" xmlns="http://www.w3.org/2000/svg">
<g clip-path="url(#clip0_3468_253)">
<path d="M23.9034 0H8.09679C3.62504 0 0 3.62504 0 8.09679V23.9034C0 28.375 3.62504 32 8.09679 32H23.9034C28.375 32 32 28.375 32 23.9034V8.09679C32 3.62504 28.375 0 23.9034 0Z" fill="#00DDB3"/>
<path d="M23.9034 0H8.09679C3.62504 0 0 3.62504 0 8.09679V23.9034C0 28.375 3.62504 32 8.09679 32H23.9034C28.375 32 32 28.375 32 23.9034V8.09679C32 3.62504 28.375 0 23.9034 0Z" fill="#00DDB3"/>
<path d="M24.3208 7.16724C18.8125 7.16724 16.7714 11.1002 15.1301 14.2597L14.0577 16.2812C12.3199 19.632 11.0212 21.6688 7.67502 21.6688C7.46724 21.6687 7.26148 21.7095 7.06951 21.789C6.87754 21.8685 6.70313 21.9851 6.55626 22.1321C6.40942 22.279 6.29295 22.4534 6.21351 22.6453C6.13406 22.8372 6.0932 23.0429 6.09326 23.2506C6.09332 23.4583 6.13429 23.6639 6.21384 23.8558C6.29339 24.0476 6.40995 24.222 6.55688 24.3688C6.8535 24.6653 7.25558 24.8322 7.67502 24.8329C13.1855 24.8329 15.2267 20.8997 16.868 17.7403L17.9381 15.7189C19.6781 12.3679 20.9768 10.3313 24.3208 10.3313C24.5287 10.3316 24.7347 10.291 24.927 10.2116C25.1192 10.1322 25.2939 10.0156 25.441 9.86863C25.5881 9.7217 25.7048 9.54721 25.7844 9.35514C25.8641 9.16307 25.9051 8.95718 25.905 8.74925C25.9042 8.32956 25.737 7.92732 25.44 7.63077C25.143 7.33423 24.7405 7.1676 24.3208 7.16744V7.16724Z" fill="white"/>
</g>
<defs>
<clipPath id="clip0_3468_253">
<rect width="32" height="32" fill="white"/>
</clipPath>
</defs>
</svg>
