<svg width="32" height="32" viewBox="0 0 32 32" fill="none" xmlns="http://www.w3.org/2000/svg">
<path d="M12.631 13.6308C11.8276 13.1599 11.5485 12.1236 12.0207 11.3133C12.7685 10.0226 14.7357 10.2618 15.1167 11.7261C15.5075 13.1913 13.9124 14.3789 12.631 13.6308ZM15.6798 8.36093C12.2913 6.42574 8.25805 9.54434 9.24337 13.2853C9.77529 15.2862 11.5705 16.5517 13.47 16.5517C16.356 16.5517 18.4533 13.8223 17.7213 11.0373C17.4207 9.90665 16.7005 8.95768 15.6798 8.36093ZM26.1432 16.8164L27.9783 20.6033C22.5967 20.947 21.3397 20.4732 19.0988 24.5159C18.5139 25.5732 17.5266 27.5692 15.0561 27.0846C14.1184 26.9029 13.3399 26.3421 12.8575 25.503L3.89951 9.85505C3.30948 8.83205 3.31173 7.61386 3.90399 6.59534C4.49402 5.58131 5.54395 4.97783 6.71726 4.97783C6.72399 4.97783 6.73296 4.98007 6.74194 4.98007L24.7792 5.03391C26.883 5.03391 29.31 7.20556 27.0293 10.8915C26.1454 12.3273 24.9339 14.2948 26.1432 16.8164ZM31.2739 21.2338L28.5683 15.6454C28.0232 14.5079 28.4517 13.716 29.3221 12.3026C29.7955 11.5376 30.2823 10.7457 30.5179 9.83037C30.998 8.07825 30.6098 6.14441 29.4769 4.6615C28.3529 3.18757 26.6412 2.34179 24.7836 2.34179C24.6614 2.34134 6.71502 2.28571 6.71502 2.28571C2.13774 2.28571 -0.719499 7.23943 1.56634 11.1966L10.5221 26.8401C12.3276 29.9914 16.4439 30.7627 19.2401 28.664C20.2216 28.0637 21.0887 26.478 21.4521 25.8238C22.2486 24.388 22.7219 23.6365 23.967 23.5579L30.1499 23.1631C31.102 23.1007 31.6916 22.093 31.2739 21.2338ZM14.9439 13.0116C14.7151 13.4042 14.3472 13.6846 13.9097 13.8013C13.4745 13.9179 13.0191 13.8573 12.631 13.6308C12.2406 13.4019 11.9624 13.0362 11.848 12.5965C11.7313 12.1591 11.7919 11.7059 12.0207 11.3133C12.4874 10.5079 13.5283 10.2342 14.3337 10.6941C14.7241 10.9207 15.0023 11.2864 15.1167 11.7261C15.2333 12.1635 15.1728 12.619 14.9439 13.0116ZM17.7213 11.0373C17.4207 9.90665 16.7005 8.95768 15.6798 8.36093C13.5822 7.16293 10.8968 7.88307 9.6943 9.96049C9.10427 10.97 8.94499 12.1523 9.24337 13.2853C9.39368 13.8506 9.64943 14.3711 9.99268 14.8243C10.3359 15.2752 10.7711 15.6588 11.2759 15.955C11.9512 16.3498 12.705 16.5517 13.47 16.5517C13.8469 16.5517 14.2238 16.5023 14.5984 16.4036C15.7336 16.103 16.6848 15.3784 17.2704 14.3644C17.8604 13.3526 18.0197 12.1725 17.7213 11.0373ZM14.9439 13.0116C14.7151 13.4042 13.0191 13.8573 12.631 13.6308C12.2406 13.4019 11.9624 13.0362 11.848 12.5965C11.7313 12.1591 11.7919 11.7059 12.0207 11.3133C12.4874 10.5079 13.5283 10.2342 14.3337 10.6941C14.7241 10.9207 15.0023 11.2864 15.1167 11.7261C15.2333 12.1635 15.1728 12.619 14.9439 13.0116ZM17.7213 11.0373C17.4207 9.90665 16.7005 8.95768 15.6798 8.36093C13.5822 7.16293 10.8968 7.88307 9.6943 9.96049C9.10427 10.97 8.94499 12.1523 9.24337 13.2853C9.39368 13.8506 9.64943 14.3711 9.99268 14.8243C10.3359 15.2752 10.7711 15.6588 11.2759 15.955C11.9512 16.3498 12.705 16.5517 13.47 16.5517C13.8469 16.5517 14.2238 16.5023 14.5984 16.4036C15.7336 16.103 16.6848 15.3784 17.2704 14.3644C17.8604 13.3526 18.0197 12.1725 17.7213 11.0373Z" fill="#4A89DD"/>
</svg>
