<svg xmlns="http://www.w3.org/2000/svg" width="32" height="32" fill="none"><mask id="a" width="32" height="22" x="0" y="5" maskUnits="userSpaceOnUse" style="mask-type:luminance"><path fill="#fff" d="M31.957 5.099H.043V26.9h31.914V5.1Z"/></mask><g mask="url(#a)"><mask id="b" width="32" height="22" x="0" y="5" maskUnits="userSpaceOnUse" style="mask-type:luminance"><path fill="#fff" d="M31.957 5.099H.043V26.9h31.914V5.1Z"/></mask><g mask="url(#b)"><mask id="c" width="32" height="22" x="0" y="5" maskUnits="userSpaceOnUse" style="mask-type:luminance"><path fill="#fff" d="M31.957 5.099H.043V26.9h31.914V5.1Z"/></mask><g mask="url(#c)"><path fill="#FD4F00" d="M12.026 20.298a3.987 3.987 0 0 1-.25-.05c-1.78-.336-2.902-1.408-3.438-3.102-.336-1.059.274-1.831 1.383-1.881.91-.038 1.532.473 2.08 1.084.71.785 1.358 1.62 2.056 2.404.997 1.146 2.18 1.881 3.788 1.645a7.125 7.125 0 0 0 3.8-1.744c.161-.15.348-.275.523-.4-.038-.037-.075-.086-.113-.124a7.985 7.985 0 0 1-2.815.337c-1.445-.075-2.828-.374-4.074-1.171-1.134-.723-1.956-1.707-2.355-3.003-.324-1.047.337-1.782 1.42-1.632.437.062.798.249 1.122.523.261.224.523.461.785.673 1.27 1.022 3.052 1.084 4.66-.025-2.654-.013-4.46-1.47-6.043-3.327-.623-.722-1.221-1.457-1.856-2.167-1.234-1.358-2.592-2.58-4.448-2.99-2.38-.536-4.684-.187-6.877.822-.449.2-.872.436-1.32.81h.473c1.109-.025 1.943.46 2.541 1.37.436.66.648 1.408.798 2.18.236 1.147.112 2.305.249 3.452.349 2.952 1.856 5.02 4.66 6.067 1.033.386 2.08.523 3.25.249ZM4.937 6.843c-.448.112-.797-.063-1.159-.436.623-.162 1.171-.212 1.77-.237-.05.386-.275.598-.611.673Zm14.539 17.23c-.037-.287-.287-.411-.473-.56-.848-.66-1.832-.885-2.878-.91-.623-.013-1.246-.062-1.832-.274-.274-.1-.573-.224-.56-.573.012-.35.311-.449.598-.536.224-.075.46-.112.722-.174-.66-.424-1.308-.486-2.18-.137-1.358.548-2.704.485-4.049-.013-.76-.274-1.445-.71-2.155-1.096l-.025.012c.012-.012.025-.012.012-.012-.012-.05-.05-.05-.087-.025l.05.05c.585.959 1.383 1.731 2.267 2.392 1.72 1.27 3.6 2.03 5.806 1.694.71-.112 1.433-.2 2.143-.25.922-.074 1.781.188 2.64.412Zm-4.161-13.78c-.05-.037-.087-.124-.187-.037a6.978 6.978 0 0 0 3.04 2.355c1.98.797 3.986.934 6.042.237 1.595-.548 2.74-.013 3.339 1.532.087-1.794-.972-3.102-2.654-3.364-.947-.15-1.819.175-2.703.424-2.492.723-4.784.374-6.877-1.146Zm12.309 7.003c.324.024.648.062.959.087-.723-.636-1.607-.685-2.504-.636-1.358.075-2.342.86-3.24 1.807-.784.835-1.507 1.757-2.678 2.093.025.037.025.05.025.05.162 0 .311.012.473 0 1.707-.075 3.327-.436 4.61-1.682.399-.386.76-.822 1.159-1.234.311-.336.71-.523 1.196-.485Zm-3.975-2.118c-1.27.112-2.392.635-3.426 1.333-.797.535-1.657.785-2.628.623l-.511-.075v.075c.062.037.124.062.187.1.162.061.324.136.486.174 1.856.436 3.625.211 5.232-.823 1.01-.648 2.056-.772 3.19-.61.112.012.224.037.348.05.113.012.212.112.361 0-1.009-.71-2.08-.947-3.239-.847Zm-4.572-4.336c.673.025 1.333-.062 2.043-.486-.199.012-.286.012-.373.037-.96.187-1.832-.012-2.604-.623-.287-.224-.573-.436-.86-.66-1.133-.872-2.442-1.159-3.862-1.134.025.075.025.113.05.137 1.545 1.57 3.339 2.654 5.606 2.729Zm11.238 8.048c-.96-.947-2.255-1.071-3.439-.249.785.038 1.383.287 1.856.785.175.174.35.349.536.498.723.586 1.956.61 2.679.075-.848-.324-.848-.324-1.632-1.109Zm-9.568 7.301c-.848-1.57-2.268-1.931-3.9-1.819.486.137.935.336 1.358.635.386.262.698.598 1.022.935.623.673 1.607 1.084 2.255.947-.312-.2-.573-.399-.735-.698Zm7.848-8.783v-.025h-.012s.012 0 .012.012v.013Zm-9.082 6.702c-.012-.012-.025-.012-.037-.024 0 .012 0 .012.012.024h.025Zm-.025-.024v-.013c-.012 0-.012 0 0 .012v-.012h-.012s0 .012.012.012c-.012 0-.012 0 0 0Z"/></g></g></g></svg>
