<svg width="32" height="32" viewBox="0 0 32 32" fill="none" xmlns="http://www.w3.org/2000/svg">
<rect width="32" height="32" fill="#1B2832"/>
<path d="M20.2698 13.7353C20.2698 17.5235 18.6774 19.6464 15.8259 19.6464C14.1299 19.6464 12.8806 18.8345 12.3501 17.4921H12.2669V23.992H8V7.99037H12.2774V10.0614H12.3504C12.9021 8.65661 14.12 7.82397 15.7744 7.82397C18.6672 7.82397 20.2698 9.93661 20.2698 13.7353ZM15.8986 13.7353C15.8986 12.143 15.1914 11.1126 14.0778 11.1126C12.9642 11.1126 12.257 12.143 12.2461 13.7456C12.2566 15.3584 12.9533 16.3577 14.0778 16.3577C15.2016 16.3577 15.8986 15.3379 15.8986 13.7353ZM21.84 17.52C21.84 16.3257 22.8058 15.36 24 15.36C25.1942 15.36 26.16 16.3257 26.16 17.52C26.16 18.7142 25.1942 19.68 24 19.68C22.8058 19.68 21.84 18.7142 21.84 17.52Z" fill="white"/>
</svg>
