<svg width="32" height="32" viewBox="0 0 32 32" fill="none" xmlns="http://www.w3.org/2000/svg">
<path d="M15.8564 0L29.7128 8V24L15.8564 32L2 24V8L15.8564 0Z" fill="#673AB8"/>
<path d="M15.8564 0L29.7128 8V24L15.8564 32L2 24V8L15.8564 0Z" fill="#673AB8"/>
<path d="M6.14558 23.5045C7.72156 25.5584 13.3503 23.8845 18.7177 19.766C24.0852 15.6475 27.1587 10.6437 25.5827 8.58982C24.0067 6.53596 18.378 8.20974 13.0106 12.3283C7.64317 16.4469 4.5696 21.4506 6.14558 23.5045Z" stroke="white"/>
<path d="M25.5664 23.4883C27.1424 21.4345 24.0688 16.4308 18.7013 12.3122C13.334 8.19363 7.70521 6.51984 6.12922 8.57371C4.55324 10.6276 7.62681 15.6313 12.9942 19.7498C18.3617 23.8685 23.9905 25.5422 25.5664 23.4883Z" stroke="white"/>
<path d="M15.8666 18.1658C17.0402 18.1658 17.9917 17.2143 17.9917 16.0407C17.9917 14.8671 17.0402 13.9158 15.8666 13.9158C14.6931 13.9158 13.7417 14.8671 13.7417 16.0407C13.7417 17.2143 14.6931 18.1658 15.8666 18.1658Z" fill="white"/>
</svg>
