<svg width="32" height="32" viewBox="0 0 32 32" fill="none" xmlns="http://www.w3.org/2000/svg">
<path d="M13.3165 7.40425C14.3526 6.35188 15.7855 5.69618 17.3721 5.69618C19.4849 5.69618 21.3306 6.85378 22.3101 8.56995C23.1601 8.19757 24.1073 7.9871 25.103 7.9871C28.9158 7.9871 32 11.0471 32 14.8194C32 18.5917 28.9077 21.6517 25.103 21.6517C24.6334 21.6517 24.1801 21.6031 23.743 21.5221C22.8768 23.0359 21.2335 24.0559 19.3392 24.0559C18.5459 24.0559 17.8012 23.8778 17.1374 23.554C16.2631 25.5778 14.2231 26.9944 11.8432 26.9944C9.46319 26.9944 7.25322 25.4564 6.44371 23.295C6.08753 23.3678 5.72325 23.4083 5.34278 23.4083C2.39615 23.4083 0 21.0364 0 18.106C0 16.147 1.07665 14.4308 2.67139 13.5161C2.33949 12.7713 2.1614 11.9537 2.1614 11.0956C2.1614 7.72806 4.94612 5 8.37845 5C10.3941 5 12.1832 5.94713 13.3165 7.40425Z" fill="#0D9DDA"/>
</svg>
