<svg width="32" height="32" viewBox="0 0 32 32" fill="none" xmlns="http://www.w3.org/2000/svg">
<g clip-path="url(#clip0_3325_832)">
<g clip-path="url(#clip1_3325_832)">
<path d="M12.0558 0.922722C16.0892 -0.111653 20.5469 0.491097 24.1041 2.68647C28.5841 5.3656 31.5088 10.4335 31.5832 15.6502C31.7469 20.919 29.0008 26.1432 24.5878 29.0083C19.6762 32.3125 12.8818 32.4391 7.86594 29.2986C2.75344 26.2473 -0.230814 20.093 0.535811 14.1841C1.15331 7.94035 5.97581 2.43347 12.0558 0.922847V0.922722Z" fill="#010101"/>
<path d="M11.438 3.47541C19.0585 0.424161 28.4055 6.05766 29.1943 14.2289C30.4223 21.5814 24.3199 29.053 16.8705 29.2689C9.78589 29.9759 2.93939 23.9702 2.73851 16.8559C2.21014 11.0959 6.00551 5.38054 11.438 3.47541V3.47541Z" fill="white"/>
<path d="M12.2046 15.2113C15.6205 12.4206 18.9619 9.53309 22.4521 6.82422C20.6214 9.63734 18.7386 12.4131 16.9079 15.2261C15.3376 15.2336 13.7675 15.2336 12.2046 15.2112V15.2113ZM15.0921 16.7666C16.6697 16.7666 18.24 16.7666 19.8102 16.789C16.3721 19.5647 13.0456 22.4745 9.54785 25.176C11.3786 22.3628 13.2614 19.5797 15.0921 16.7666Z" fill="#010101"/>
</g>
</g>
<defs>
<clipPath id="clip0_3325_832">
<rect width="32" height="32" fill="white"/>
</clipPath>
<clipPath id="clip1_3325_832">
<rect width="32" height="32" fill="white"/>
</clipPath>
</defs>
</svg>
