<svg width="32" height="32" viewBox="0 0 32 32" fill="none" xmlns="http://www.w3.org/2000/svg">
<path d="M16.24 23.12C20.349 23.12 23.68 19.789 23.68 15.68C23.68 11.571 20.349 8.23999 16.24 8.23999C12.131 8.23999 8.80005 11.571 8.80005 15.68C8.80005 19.789 12.131 23.12 16.24 23.12Z" fill="#B0ACFF"/>
<path d="M15.2 28.56V16.56L4.56002 10.48V21.04L8.32002 18.88C8.56002 19.52 8.96002 20.16 9.36002 20.72L5.44002 22.96L15.2 28.56ZM17.28 28.56L27.04 22.96L23.12 20.72C23.52 20.16 23.92 19.52 24.16 18.88L27.92 21.04V10.48L17.28 16.64V28.56ZM5.36002 8.48L16.24 14.8L27.12 8.48L17.28 2.8V7.2C16.96 7.12 16.56 7.12 16.24 7.12C15.92 7.12 15.52 7.12 15.2 7.2V2.8L5.36002 8.48ZM17.2 0.24L29.12 7.12C29.68 7.44 30.08 8.08 30.08 8.8V22.56C30.08 23.28 29.68 23.84 29.12 24.24L17.2 31.12C16.64 31.44 15.84 31.44 15.28 31.12L3.36002 24.24C2.80002 23.84 2.40002 23.28 2.40002 22.56V8.8C2.40002 8.08 2.80002 7.52 3.36002 7.12L15.28 0.24C15.84 -0.08 16.56 -0.08 17.2 0.24Z" fill="#562591"/>
</svg>
