<svg width="32" height="32" viewBox="0 0 32 32" fill="none" xmlns="http://www.w3.org/2000/svg">
<path fill-rule="evenodd" clip-rule="evenodd" d="M7.36819 13.7833L13.6156 8.46422L13.4003 8.28016C10.6752 5.95419 6.54419 6.31127 4.24256 9.06174C1.93984 11.8133 2.29048 15.9788 5.01726 18.3009L11.8646 24.1313L20.2471 14.11L17.0557 11.3949L17.8343 8.46422L14.9716 10.8869L14.9798 10.8969L11.2033 14.11L14.8034 18.4142L13.946 21.6423L7.36819 13.7833ZM15.7249 6.66835L16.2958 6.18248C20.1704 2.88313 26.0162 3.3817 29.2865 7.29129C32.5573 11.2009 32.0637 17.0993 28.1886 20.3986L19.2609 28L15.7249 23.7687L12.1895 28L3.26187 20.3986C-0.613259 17.0993 -1.10689 11.2009 2.16392 7.29129C5.43419 3.3817 11.28 2.88313 15.1546 6.18248L15.7249 6.66835ZM17.5039 21.6428L19.5858 24.1313L26.4332 18.3009C29.1599 15.9788 29.5106 11.8133 27.2079 9.06174C24.9062 6.31127 20.7752 5.95419 18.0501 8.28016L17.8343 8.46422L24.0822 13.7833L17.5039 21.6428Z" fill="#FE6F5E"/>
</svg>
