<svg width="32" height="32" viewBox="0 0 32 32" fill="none" xmlns="http://www.w3.org/2000/svg">
<rect width="32" height="32" fill="#DC3978"/>
<path d="M8.21522 30.419C7.75611 30.7505 7.41695 31.0591 7.16171 31.0591H6.47772C6.28927 31.0121 6.09139 30.9367 5.88406 30.8326C5.50686 30.6432 5.16195 30.4177 4.84792 30.1607C4.53324 29.9032 4.27472 29.6445 4.07064 29.3866C3.86624 29.1283 3.76471 28.9473 3.76471 28.8443C3.76471 28.2936 3.96923 27.4328 4.37725 26.2628C4.78539 25.0925 5.33574 23.7669 6.02594 22.2861C6.7158 20.806 7.4854 19.2469 8.33356 17.6118C9.18143 15.9772 10.0599 14.418 10.9706 12.9375C11.8811 11.4574 12.7606 10.1319 13.6084 8.96075C14.4556 7.79046 16.6818 6.294 15.869 6.32704C14.1732 6.39597 12.5871 6.53391 11.1118 6.73986C9.63596 6.94589 8.41242 7.24242 7.43861 7.61776C6.90407 7.82379 6.50361 7.7893 6.23706 7.51399C5.97013 7.23827 5.79797 6.87679 5.71933 6.42929C5.64066 5.98163 5.64873 5.53397 5.74286 5.08631C5.837 4.63864 5.98597 4.3822 6.16646 4.25991C6.82607 3.813 7.79901 3.39943 9.08663 3.02069C10.3742 2.64196 11.7949 2.31399 13.3495 2.03902C14.9041 1.76406 16.497 1.53167 18.1302 1.34215C19.7621 1.15278 21.2769 1.03163 22.6748 0.980077C24.0714 0.928569 25.2413 0.927813 26.1833 0.980077C27.1253 1.03234 27.7031 1.14434 27.8798 1.36714C28.099 1.64362 28.2173 2.08216 28.2328 2.68438C28.2482 3.28656 28.1936 3.89799 28.068 4.51745C27.9423 5.13781 27.7618 5.6716 27.5261 6.11873C27.2901 6.5664 27.0142 6.78336 26.7017 6.73834C25.5083 6.5664 24.1736 6.43607 22.6984 6.35052C21.2225 6.26492 16.7604 5.33003 18.1302 6.27326C18.381 6.44596 18.625 6.65185 18.8597 6.89286C19.0951 7.1345 19.283 7.38394 19.4245 7.642C19.5657 7.89954 19.6526 8.15009 19.6834 8.39038C19.7143 8.63201 19.6591 8.86421 19.4951 9.06225C17.642 11.3006 16.033 13.5298 14.6674 15.7507C13.3018 17.9716 12.2178 19.9594 11.4178 21.7157C10.6176 23.4723 10.1308 24.876 9.95804 25.9257C9.78523 26.9756 9.99711 27.416 10.5941 27.243C11.1898 27.0703 11.3783 27.1734 11.1589 27.552C10.939 27.9315 10.5528 28.3868 10.0051 28.9208C9.45577 29.4563 8.85859 29.9545 8.21522 30.419Z" fill="white"/>
</svg>
