<svg id="Layer_1" data-name="Layer 1" xmlns="http://www.w3.org/2000/svg" viewBox="0 0 16 16"><defs><style>.cls-1{fill:#fff}</style></defs><title>close-icon</title><path class="cls-1" d="M15.11 3.59l-4.36 4.36 4.38 4.38a1.25 1.25 0 0 1 0 1.77l-.88.88a1.25 1.25 0 0 1-1.75 0L8 10.71l-4.38 4.38a1.25 1.25 0 0 1-1.77 0L1 14.22a1.25 1.25 0 0 1 0-1.76l4.4-4.51L.88 3.57a1.25 1.25 0 0 1 0-1.78l.85-.87a1.25 1.25 0 0 1 1.76 0L8 5.31l4.4-4.4a1.25 1.25 0 0 1 1.75 0l.94.9a1.25 1.25 0 0 1 .02 1.78z" id="icon-stop"/></svg>
