<svg width="32" height="32" viewBox="0 0 32 32" fill="none" xmlns="http://www.w3.org/2000/svg">
<g clip-path="url(#clip0_3355_197)">
<g clip-path="url(#clip1_3355_197)">
<path d="M32 0H0V32H32V0Z" fill="url(#paint0_linear_3355_197)"/>
<path fill-rule="evenodd" clip-rule="evenodd" d="M19.9999 11.9999H18.6666H17.3333H15.9999H14.6666H13.3333V13.3333V14.6666V15.9999V17.3333V18.6666H14.6666H15.9999H17.3333H18.6666H19.9999V17.3333V15.9999V14.6666V13.3333V11.9999ZM21.3333 11.9999H22.6666V13.3333H21.3333V14.6666H22.6666V15.9999H21.3333V17.3333H22.6666V18.6666H21.3333V19.0773C21.3333 19.5853 20.9186 19.9999 20.4106 19.9999H19.9999V21.3333H18.6666V19.9999H17.3333V21.3333H15.9999V19.9999H14.6666V21.3333H13.3333V19.9999H12.9226C12.4146 19.9999 11.9999 19.5853 11.9999 19.0773V18.6666H10.6666V17.3333H11.9999V15.9999H10.6666V14.6666H11.9999V13.3333H10.6666V11.9999H11.9999V11.5893C11.9999 11.0813 12.4146 10.6666 12.9226 10.6666H13.3333V9.33325H14.6666V10.6666H15.9999V9.33325H17.3333V10.6666H18.6666V9.33325H19.9999V10.6666H20.4106C20.9186 10.6666 21.3333 11.0813 21.3333 11.5893V11.9999ZM15.9999 25.3333H6.66659V17.3333H9.33325V15.9999H6.39992C5.81059 15.9999 5.33325 16.4559 5.33325 17.0159V25.6253C5.33325 26.1999 5.80125 26.6666 6.37459 26.6666H16.2666C16.8559 26.6666 17.3333 26.2106 17.3333 25.6506V22.6666H15.9999V25.3333ZM26.6666 6.37459V16.2919C26.6666 16.8666 26.1986 17.3333 25.6253 17.3333H23.9999V15.9999H25.3333V6.66659H15.9999V7.99992H14.6666V6.37459C14.6666 5.79992 15.1346 5.33325 15.7079 5.33325H25.6253C26.1986 5.33325 26.6666 5.79992 26.6666 6.37459Z" fill="white"/>
</g>
</g>
<defs>
<linearGradient id="paint0_linear_3355_197" x1="0" y1="32" x2="32" y2="0" gradientUnits="userSpaceOnUse">
<stop stop-color="#C8511B"/>
<stop offset="1" stop-color="#FF9900"/>
</linearGradient>
<clipPath id="clip0_3355_197">
<rect width="32" height="32" fill="white"/>
</clipPath>
<clipPath id="clip1_3355_197">
<rect width="32" height="32" fill="white"/>
</clipPath>
</defs>
</svg>
