<svg width="32" height="32" viewBox="0 0 32 32" fill="none" xmlns="http://www.w3.org/2000/svg">
<circle cx="16" cy="16" r="16" fill="#00ACEC"/>
<path fill-rule="evenodd" clip-rule="evenodd" d="M22.4738 11.1731C22.4738 10.0949 21.6546 9.21242 20.4098 8.59286C19.1148 7.94836 17.3397 7.58002 15.5779 7.58002C12.4519 7.58002 8.80007 8.96375 8.80007 12.7069C8.80007 14.2566 9.32819 15.3137 10.1964 16.0699C11.0411 16.8056 12.1987 17.2372 13.4969 17.5579H13.4982L16.0316 18.1764L16.0315 18.177L16.2572 18.2328C17.5062 18.5426 18.266 18.7311 18.266 19.5184C18.266 19.8537 18.0675 20.1556 17.7135 20.3763C17.3285 20.6164 16.7699 20.7611 16.0797 20.7611C14.4069 20.7611 13.6187 19.9596 12.9361 19.2654C12.3308 18.65 11.797 18.1072 10.8596 18.1072C10.2021 18.1072 9.70947 18.3309 9.36731 18.6848C8.98024 19.0852 8.80005 19.6439 8.80005 20.2264C8.80005 21.4126 9.67284 22.4749 11.0699 23.2311C12.4121 23.9576 14.2533 24.4091 16.2562 24.4091C18.0743 24.4091 19.9433 23.913 21.2832 22.877C22.4464 21.9776 23.2113 20.6805 23.2113 18.9587C23.2113 17.3295 22.4229 16.2368 21.3042 15.4765C20.2258 14.7436 18.8484 14.3337 17.5955 14.0471L15.7973 13.6341H15.7947C15.156 13.492 14.6031 13.3646 14.2292 13.1626C13.9258 12.9986 13.7454 12.7729 13.7454 12.4119C13.7454 12.0996 13.9124 11.867 14.2097 11.7077C14.5932 11.5023 15.1768 11.405 15.9024 11.405C17.2979 11.405 17.9362 11.9796 18.4985 12.4858C19.0234 12.9583 19.4925 13.3806 20.3551 13.3806L20.3552 13.3794C21.0134 13.3794 21.5444 13.1166 21.912 12.7052C22.2749 12.299 22.4738 11.7511 22.4738 11.1731L22.4738 11.1731Z" fill="#FFFFFE"/>
</svg>
