<svg width="32" height="32" viewBox="0 0 32 32" fill="none" xmlns="http://www.w3.org/2000/svg">
<g clip-path="url(#clip0_3355_922)">
<path d="M16 26.3067C13.2676 26.3031 10.6481 25.2161 8.71598 23.284C6.78387 21.3519 5.69686 18.7324 5.69333 16V7.46667C5.68981 6.42933 5.27525 5.43569 4.54049 4.70342C3.80573 3.97116 2.81068 3.55999 1.77333 3.56H0V0H1.77333C2.75387 0 3.72481 0.193131 4.6307 0.568366C5.5366 0.943601 6.35972 1.49359 7.05306 2.18694C7.74641 2.88028 8.2964 3.7034 8.67163 4.6093C9.04687 5.51519 9.24 6.48613 9.24 7.46667V16C9.24 17.7929 9.95221 19.5123 11.22 20.78C12.4877 22.0478 14.2071 22.76 16 22.76C17.7929 22.76 19.5123 22.0478 20.78 20.78C22.0478 19.5123 22.76 17.7929 22.76 16V7.46667C22.76 5.48638 23.5467 3.58721 24.9469 2.18694C26.3472 0.786665 28.2464 0 30.2267 0H32V3.56H30.2267C29.1893 3.55999 28.1943 3.97116 27.4595 4.70342C26.7248 5.43569 26.3102 6.42933 26.3067 7.46667V16C26.3031 18.7324 25.2161 21.3519 23.284 23.284C21.3519 25.2161 18.7324 26.3031 16 26.3067V26.3067ZM32 16C32 20.2435 30.3143 24.3131 27.3137 27.3137C24.3131 30.3143 20.2435 32 16 32C11.7565 32 7.68687 30.3143 4.68629 27.3137C1.68571 24.3131 0 20.2435 0 16L0 5.69333H1.24C1.85425 5.69329 2.44373 5.93546 2.88056 6.3673C3.31739 6.79913 3.56631 7.38579 3.57333 8V16C3.57333 19.2993 4.88397 22.4635 7.21692 24.7964C9.54988 27.1294 12.714 28.44 16.0133 28.44C19.3126 28.44 22.4768 27.1294 24.8097 24.7964C27.1427 22.4635 28.4533 19.2993 28.4533 16V8C28.4533 7.38116 28.6992 6.78767 29.1368 6.35008C29.5743 5.9125 30.1678 5.66667 30.7867 5.66667H32V16Z" fill="url(#paint0_linear_3355_922)"/>
</g>
<defs>
<linearGradient id="paint0_linear_3355_922" x1="8.85333" y1="0.693333" x2="29.0133" y2="28.2133" gradientUnits="userSpaceOnUse">
<stop stop-color="#03BCFF"/>
<stop offset="0.51" stop-color="#024FFF"/>
<stop offset="1" stop-color="#F900FF"/>
</linearGradient>
<clipPath id="clip0_3355_922">
<rect width="32" height="32" fill="white"/>
</clipPath>
</defs>
</svg>
