<svg width="32" height="32" viewBox="0 0 32 32" fill="none" xmlns="http://www.w3.org/2000/svg">
<g filter="url(#filter0_f_3608_252)">
<path d="M9.09622 26.7789L9.56811 27.0585C11.5501 28.2347 13.8225 28.8569 16.14 28.858H16.1448C23.2616 28.858 29.0536 23.0673 29.0565 15.9501C29.0578 12.5012 27.716 9.25789 25.2782 6.8182C24.0825 5.61501 22.6601 4.66093 21.0932 4.01119C19.5263 3.36144 17.8461 3.02894 16.1499 3.03293C9.0276 3.03293 3.23547 8.82295 3.23293 15.9398C3.22943 18.3699 3.91377 20.7515 5.20686 22.8091L5.51406 23.2973L4.20944 28.0601L9.09622 26.7789ZM0.479492 31.7499L2.68355 23.7026C1.32425 21.3476 0.609131 18.6759 0.609975 15.9387C0.613564 7.37581 7.58194 0.409546 16.145 0.409546C20.3004 0.411657 24.2008 2.02876 27.1341 4.9642C30.0674 7.89964 31.6814 11.8015 31.6799 15.9512C31.6761 24.5134 24.7067 31.4809 16.1448 31.4809H16.1381C13.5383 31.4799 10.9838 30.8277 8.71469 29.5904L0.479492 31.7499Z" fill="#B3B3B3"/>
</g>
<path d="M0.320068 31.5904L2.52413 23.5431C1.16249 21.1824 0.447262 18.5044 0.450551 15.7791C0.454141 7.21626 7.42252 0.25 15.9856 0.25C20.141 0.252111 24.0413 1.86921 26.9747 4.80465C29.908 7.7401 31.5219 11.6419 31.5205 15.7916C31.5167 24.3539 24.5472 31.3214 15.9854 31.3214H15.9786C13.3789 31.3203 10.8244 30.6681 8.55527 29.4309L0.320068 31.5904Z" fill="white"/>
<path d="M15.9902 2.87345C8.86792 2.87345 3.07579 8.66347 3.07326 15.7803C3.06975 18.2105 3.75409 20.592 5.04718 22.6496L5.35438 23.138L4.04977 27.9008L8.93675 26.6194L9.40864 26.899C11.3906 28.0752 13.6631 28.6972 15.9805 28.6985H15.9854C23.1022 28.6985 28.8943 22.9078 28.897 15.7906C28.9024 14.0943 28.5712 12.4137 27.9227 10.8462C27.2741 9.27867 26.3211 7.85539 25.1187 6.65872C23.923 5.45551 22.5006 4.50141 20.9337 3.85167C19.3667 3.20192 17.6865 2.86943 15.9902 2.87345V2.87345Z" fill="url(#paint0_linear_3608_252)"/>
<path fill-rule="evenodd" clip-rule="evenodd" d="M12.1027 9.28683C11.8118 8.64054 11.5056 8.62745 11.2293 8.61626L10.4852 8.60718C10.2264 8.60718 9.80578 8.7043 9.45022 9.09279C9.09467 9.48129 8.09155 10.4202 8.09155 12.33C8.09155 14.2397 9.48253 16.085 9.67635 16.3443C9.87017 16.6036 12.3616 20.6475 16.3071 22.2034C19.5859 23.4964 20.2531 23.2392 20.965 23.1746C21.677 23.11 23.2616 22.2357 23.5848 21.3293C23.9081 20.4228 23.9083 19.6463 23.8114 19.4839C23.7144 19.3216 23.4556 19.2251 23.0671 19.0308C22.6786 18.8366 20.7706 17.8976 20.4148 17.768C20.059 17.6384 19.8004 17.574 19.5413 17.9625C19.2823 18.351 18.5393 19.2249 18.3127 19.4839C18.0862 19.743 17.86 19.7755 17.4715 19.5815C17.083 19.3874 15.8331 18.9774 14.3501 17.655C13.1962 16.6262 12.4173 15.3555 12.1906 14.9673C11.9638 14.579 12.1665 14.3687 12.3612 14.1753C12.5354 14.0013 12.7492 13.722 12.9437 13.4954C13.1382 13.2689 13.2021 13.1069 13.3313 12.8483C13.4606 12.5897 13.3962 12.3625 13.299 12.1684C13.2019 11.9744 12.4477 10.0547 12.1027 9.28704" fill="white"/>
<defs>
<filter id="filter0_f_3608_252" x="0.379492" y="0.309546" width="31.4004" height="31.5403" filterUnits="userSpaceOnUse" color-interpolation-filters="sRGB">
<feFlood flood-opacity="0" result="BackgroundImageFix"/>
<feBlend mode="normal" in="SourceGraphic" in2="BackgroundImageFix" result="shape"/>
<feGaussianBlur stdDeviation="0.05" result="effect1_foregroundBlur_3608_252"/>
</filter>
<linearGradient id="paint0_linear_3608_252" x1="15.7223" y1="4.4232" x2="15.8532" y2="26.4923" gradientUnits="userSpaceOnUse">
<stop stop-color="#57D163"/>
<stop offset="1" stop-color="#23B33A"/>
</linearGradient>
</defs>
</svg>
