<svg version="1.1" viewBox="0 0 512 512" xmlns="http://www.w3.org/2000/svg"><g opacity=".3" stroke="#000" stroke-linejoin="round" stroke-width="20"><path d="m395.8 438.21c-12.007 3.2152-3.7236 11.722-120-123.24-47.511-55.148-88.813-102.83-91.786-105.97-4.8382-5.1023-6.055-5.4965-11.725-3.7993-3.4795 1.0416-8.814 1.9389-11.854 1.994l-5.528 0.10034 7.0097 7.3923c9.9387 10.481 9.1055 13.186-9.502 30.831-21.86 20.729-18.024 21.844-53.464-15.531-35.44-37.374-34.531-33.484-12.671-54.214 18.543-17.583 21.373-18.312 31.138-8.0142l6.8557 7.2299 1.2035-7.4413c2.5905-16.016 7.5726-24.779 21.73-38.216 11.669-11.078 14.468-12.932 24.812-16.452 6.4125-2.1818 14.318-3.8135 17.568-3.6256 5.4997 0.31812 5.874 0.0754 5.413-3.5105-0.39616-3.0814 1.9518-6.3466 11.734-16.318 21.318-21.731 23.109-21.858 41.075-2.9118 17.639 18.602 17.615 19.355-1.1632 37.162-7.647 7.2513-15.674 13.669-17.837 14.262-3.249 0.89021-4.0721 2.5946-4.7326 9.7986-0.43973 4.7966-2.015 11.471-3.5004 14.832l-2.7012 6.1114 12.934 11.989c13.188 12.224 203.19 194.45 207.63 199.12 1.3397 1.4128 2.3316 6.4912 2.2042 11.285l-0.23154 8.7167-19.591 18.477c-14.708 13.872-20.945 18.84-25.023 19.932z" color="#000000"/><path d="m231.73 22.801c-2.202-0.1227-4.4527-0.11518-6.7383 0.04687-18.285 1.2964-29.701 9.7014-36.707 15.336s-11.685 10.569-17.242 16.234c-3.1516 3.2126-5.8668 6.0545-8.5781 9.1367-2.1506 0.60819-4.3046 1.2318-6.5508 1.9961v2e-3c-12.811 4.3589-30.584 15.615-43.127 27.521-5.7708 5.4776-11.204 12.027-16.119 19.084-1.3587 0.2068-2.7209 0.41208-3.9883 0.73828-27.082 6.9702-30.86 17.175-40.803 26.604-4.773 4.526-9.1363 7.6943-16.271 16.277-7.1352 8.583-17.716 32.77-13.164 52.248s12.684 26.484 18.855 33.547 12.738 13.719 21.373 22.826c8.6356 9.1069 14.935 16.018 21.66 22.557 6.7255 6.5382 13.291 15.029 32.5 20.609 19.209 5.5799 43.921-3.7036 52.871-10.373 6.972-5.1956 10.521-8.8229 14.029-12.34 15.614 18.043 33.618 38.876 54.191 62.756 58.092 67.429 84.04 98.105 101.15 115.68 8.557 8.7882 13.7 17.226 34.242 23.693 10.271 3.2338 23.877 2.561 30.346 1.0039 6.4691-1.5571 6.9222-1.973 5.0684-1.4766 0.0547-0.0201 0.10942-0.0402 0.16407-0.0605 28.197-7.5913 30.753-17.211 46.225-31.803h2e-3l19.59-18.477c9.6805-9.1311 15.322-21.744 15.676-35.047l0.23243-8.7168c0.1676-6.3101-0.26122-11.682-1.4609-17.824s2.5699-11.252-14.443-29.193c-6.1159-6.4496-5.5017-5.4508-11.195-10.951-5.6937-5.5004-13.545-13.065-22.881-22.045-18.671-17.959-43.262-41.568-68.127-65.414-42.124-40.398-73.787-70.678-91.24-87.225 4.7288-4.4758 9.0307-8.3032 14.504-14.928 5.5603-6.73 14.507-19.496 15.082-37.861 0.57518-18.365-7.6843-31.882-12.898-38.957-5.2141-7.0754-9.3395-11.114-13.869-15.891-4.7961-5.0578-9.0081-9.8716-16.928-15.922-6.9297-5.294-20.02-12.536-35.434-13.395z" color="#000000" fill="#c74227"/></g><g stroke-linejoin="round"><path d="m395.8 438.21c-12.007 3.2152-3.7236 11.722-120-123.24-47.511-55.148-88.813-102.83-91.786-105.97-4.8382-5.1023-6.055-5.4965-11.725-3.7993-3.4795 1.0416-8.814 1.9389-11.854 1.994l-5.528 0.10034 7.0097 7.3923c9.9387 10.481 9.1055 13.186-9.502 30.831-21.86 20.729-18.024 21.844-53.464-15.531-35.44-37.374-34.531-33.484-12.671-54.214 18.543-17.583 21.373-18.312 31.138-8.0142l6.8557 7.2299 1.2035-7.4413c2.5905-16.016 7.5726-24.779 21.73-38.216 11.669-11.078 14.468-12.932 24.812-16.452 6.4125-2.1818 14.318-3.8135 17.568-3.6256 5.4997 0.31812 5.874 0.0754 5.413-3.5105-0.39616-3.0814 1.9518-6.3466 11.734-16.318 21.318-21.731 23.109-21.858 41.075-2.9118 17.639 18.602 17.615 19.355-1.1632 37.162-7.647 7.2513-15.674 13.669-17.837 14.262-3.249 0.89021-4.0721 2.5946-4.7326 9.7986-0.43973 4.7966-2.015 11.471-3.5004 14.832l-2.7012 6.1114 12.934 11.989c13.188 12.224 203.19 194.45 207.63 199.12 1.3397 1.4128 2.3316 6.4912 2.2042 11.285l-0.23154 8.7167-19.591 18.477c-14.708 13.872-20.945 18.84-25.023 19.932z" color="#000000" stroke-width="100" style="-inkscape-stroke:none"/><path d="m231.73 22.801c-2.202-0.1227-4.4527-0.11518-6.7383 0.04687-18.285 1.2964-29.701 9.7014-36.707 15.336s-11.685 10.569-17.242 16.234c-3.1516 3.2126-5.8668 6.0545-8.5781 9.1367-2.1506 0.60819-4.3046 1.2318-6.5508 1.9961v2e-3c-12.811 4.3589-30.584 15.615-43.127 27.521-5.7708 5.4776-11.204 12.027-16.119 19.084-1.3587 0.2068-2.7209 0.41208-3.9883 0.73828-27.082 6.9702-30.86 17.175-40.803 26.604-4.773 4.526-9.1363 7.6943-16.271 16.277-7.1352 8.583-17.716 32.77-13.164 52.248s12.684 26.484 18.855 33.547 12.738 13.719 21.373 22.826c8.6356 9.1069 14.935 16.018 21.66 22.557 6.7255 6.5382 13.291 15.029 32.5 20.609 19.209 5.5799 43.921-3.7036 52.871-10.373 6.972-5.1956 10.521-8.8229 14.029-12.34 15.614 18.043 33.618 38.876 54.191 62.756 58.092 67.429 84.04 98.105 101.15 115.68 8.557 8.7882 13.7 17.226 34.242 23.693 10.271 3.2338 23.877 2.561 30.346 1.0039 6.4691-1.5571 6.9222-1.973 5.0684-1.4766 0.0547-0.0201 0.10942-0.0402 0.16407-0.0605 28.197-7.5913 30.753-17.211 46.225-31.803h2e-3l19.59-18.477c9.6805-9.1311 15.322-21.744 15.676-35.047l0.23243-8.7168c0.1676-6.3101-0.26122-11.682-1.4609-17.824s2.5699-11.252-14.443-29.193c-6.1159-6.4496-5.5017-5.4508-11.195-10.951-5.6937-5.5004-13.545-13.065-22.881-22.045-18.671-17.959-43.262-41.568-68.127-65.414-42.124-40.398-73.787-70.678-91.24-87.225 4.7288-4.4758 9.0307-8.3032 14.504-14.928 5.5603-6.73 14.507-19.496 15.082-37.861 0.57518-18.365-7.6843-31.882-12.898-38.957-5.2141-7.0754-9.3395-11.114-13.869-15.891-4.7961-5.0578-9.0081-9.8716-16.928-15.922-6.9297-5.294-20.02-12.536-35.434-13.395z" color="#000000" fill="#c74227" style="-inkscape-stroke:none"/></g><path d="m393.55 438.06c-12.007 3.2151-3.7236 11.722-120-123.24-47.511-55.148-88.813-102.83-91.786-105.97-4.8382-5.1023-6.055-5.4965-11.725-3.7993-3.4795 1.0416-8.814 1.9389-11.854 1.994l-5.528 0.10034 7.0097 7.3923c9.9387 10.481 9.1055 13.186-9.502 30.831-21.86 20.729-18.024 21.844-53.464-15.531-35.44-37.374-34.531-33.484-12.671-54.214 18.543-17.583 21.373-18.312 31.138-8.0142l6.8557 7.2299 1.2035-7.4413c2.5905-16.016 7.5726-24.779 21.73-38.216 11.669-11.078 14.468-12.932 24.812-16.452 6.4125-2.1818 14.318-3.8135 17.568-3.6256 5.4997 0.31811 5.874 0.0754 5.413-3.5106-0.39617-3.0814 1.9518-6.3466 11.734-16.318 21.318-21.731 23.109-21.858 41.075-2.9118 17.639 18.602 17.615 19.355-1.1632 37.162-7.647 7.2513-15.674 13.669-17.837 14.262-3.249 0.8902-4.0721 2.5946-4.7326 9.7986-0.43972 4.7966-2.015 11.471-3.5004 14.832l-2.7012 6.1113 12.934 11.989c13.188 12.224 203.19 194.45 207.63 199.12 12.018 12.018 6.2057 15.769 1.9727 20.002l-19.591 18.477c-14.708 13.872-20.945 18.84-25.023 19.932z" stroke-width="1.8135"/></svg>
