<svg width="128" height="128" viewBox="0 0 512 512" fill="none" xmlns="http://www.w3.org/2000/svg">
<path d="M155.991 314.933H177.627L185.301 307.532C158.46 276.312 142.305 235.784 142.305 191.687C142.305 93.3742 221.995 13.6855 320.315 13.6855C418.626 13.6855 498.314 93.3768 498.314 191.687C498.314 290.007 418.624 369.703 320.315 369.703C276.223 369.703 235.69 353.54 204.47 326.706L197.069 334.372V355.999L60.1478 492.656L19.3446 451.861L155.991 314.933ZM320.314 314.933C388.501 314.933 443.549 259.885 443.549 191.689C443.549 123.502 388.501 68.4538 320.314 68.4538C252.12 68.4538 197.072 123.502 197.072 191.689C197.072 259.885 252.12 314.933 320.314 314.933Z" fill="#1793D1" stroke="#141D2B" stroke-width="20.0006"/>
<path d="M308.548 98.666C306.751 98.6659 304.971 99.0198 303.31 99.7077C301.649 100.395 300.14 101.404 298.869 102.675C297.598 103.946 296.59 105.455 295.902 107.116C295.214 108.776 294.86 110.556 294.86 112.354V208.786C294.86 210.584 295.214 212.363 295.902 214.024C296.59 215.685 297.598 217.194 298.869 218.465C300.14 219.736 301.649 220.744 303.31 221.432C304.971 222.12 306.751 222.474 308.548 222.474H332.137C333.934 222.474 335.714 222.12 337.375 221.432C339.036 220.744 340.545 219.736 341.816 218.465C343.087 217.194 344.095 215.685 344.783 214.024C345.471 212.363 345.825 210.584 345.825 208.786V112.354C345.825 110.556 345.471 108.776 344.783 107.116C344.095 105.455 343.087 103.946 341.816 102.675C340.545 101.404 339.036 100.395 337.375 99.7077C335.714 99.0198 333.934 98.6659 332.137 98.666H308.548ZM308.548 246.247C306.751 246.247 304.971 246.601 303.31 247.288C301.649 247.976 300.14 248.984 298.869 250.256C297.598 251.527 296.59 253.036 295.902 254.696C295.214 256.357 294.86 258.137 294.86 259.935V269.966C294.862 273.595 296.305 277.075 298.872 279.64C301.439 282.206 304.919 283.647 308.548 283.646H332.137C335.766 283.647 339.246 282.206 341.813 279.64C344.38 277.075 345.823 273.595 345.825 269.966V259.935C345.825 258.137 345.471 256.357 344.783 254.696C344.095 253.036 343.087 251.527 341.816 250.256C340.545 248.984 339.036 247.976 337.375 247.288C335.714 246.601 333.934 246.247 332.137 246.247H308.548Z" fill="#1793D1" stroke="#141D2B" stroke-width="15" stroke-linecap="round" stroke-linejoin="round"/>
</svg>
