<svg version="1.1" viewBox="0 0 512 512" xmlns="http://www.w3.org/2000/svg"><defs><clipPath><rect width="384" height="384"/></clipPath></defs><g fill="#c74227"><circle cx="256" cy="256" r="225" opacity=".3" stroke="#000" stroke-linecap="round" stroke-linejoin="round" stroke-width="20"/><circle cx="256" cy="256" r="225"/></g><path d="m256 82.742a171.61 173.26 0 0 0-84.494 22.936l16.359 29.885a137.74 139.06 0 0 1 68.135-18.623 137.74 139.06 0 0 1 137.74 139.06 137.74 139.06 0 0 1-137.74 139.06 137.74 139.06 0 0 1-137.74-139.06 137.74 139.06 0 0 1 49.248-106.01l-16.645-30.406a171.61 173.26 0 0 0-66.475 136.42 171.61 173.26 0 0 0 171.61 173.26 171.61 173.26 0 0 0 171.61-173.26 171.61 173.26 0 0 0-171.61-173.26zm0 55.867a116.27 117.39 0 0 0-57.914 15.621l11.283 20.613a93.323 94.22 0 0 1 46.631-13.064 93.323 94.22 0 0 1 93.324 94.221 93.323 94.22 0 0 1-93.324 94.221 93.323 94.22 0 0 1-93.324-94.221 93.323 94.22 0 0 1 26.773-65.936l-11.373-20.775a116.27 117.39 0 0 0-38.35 86.711 116.27 117.39 0 0 0 116.27 117.39 116.27 117.39 0 0 0 116.27-117.39 116.27 117.39 0 0 0-116.27-117.39zm0 49.133a67.609 68.259 0 0 0-34.186 9.8359l6.3203 11.543a54.264 54.786 0 0 1 27.865-7.9062 54.264 54.786 0 0 1 54.266 54.785 54.264 54.786 0 0 1-54.266 54.785 54.264 54.786 0 0 1-54.266-54.785 54.264 54.786 0 0 1 8.168-28.572l-7.2383-13.223a67.609 68.259 0 0 0-14.273 41.795 67.609 68.259 0 0 0 67.609 68.258 67.609 68.259 0 0 0 67.609-68.258 67.609 68.259 0 0 0-67.609-68.258zm0 30.668a37.232 37.59 0 0 0-19.518 5.9609l3.5137 6.418a29.883 30.17 0 0 1 16.004-4.959 29.883 30.17 0 0 1 29.883 30.17 29.883 30.17 0 0 1-29.883 30.17 29.883 30.17 0 0 1-29.652-28.703l-6.0703-11.088a37.232 37.59 0 0 0-1.5098 9.6211 37.232 37.59 0 0 0 37.232 37.59 37.232 37.59 0 0 0 37.232-37.59 37.232 37.59 0 0 0-37.232-37.59z" stroke-width="1.0249"/><path d="m359.45 210.08c-13.36-6e-5 -24.19 10.934-24.19 24.423 7e-5 13.488 10.83 24.423 24.19 24.423 13.36 6e-5 24.19-10.934 24.19-24.423-7e-5 -13.488-10.83-24.423-24.19-24.423z" stroke-width=".14448"/><path d="m176.79 305.82c-13.36-6e-5 -24.19 10.934-24.19 24.423 7e-5 13.488 10.83 24.423 24.19 24.423 13.36 6e-5 24.19-10.934 24.19-24.423-7e-5 -13.488-10.83-24.423-24.19-24.423z" stroke-width=".14448"/><path d="m317.8 366.37c-17.201-8e-5 -31.146 14.078-31.146 31.445 9e-5 17.367 13.945 31.445 31.146 31.445 17.201 8e-5 31.146-14.078 31.146-31.445-9e-5 -17.367-13.945-31.445-31.146-31.445z" stroke-width=".18602"/><rect transform="rotate(-28.698)" x="88.089" y="144.96" width="24.782" height="218.8" rx="8.0686" ry="8.0686" stroke-width=".8182"/></svg>
