<svg width="128" height="128" viewBox="0 0 512 512" fill="none" xmlns="http://www.w3.org/2000/svg">
<path fill-rule="evenodd" clip-rule="evenodd" d="M389.191 16.957C380.153 16.957 371.134 20.4268 364.209 27.346L27.2168 364.051C13.3672 377.891 13.3672 400.176 27.2168 414.016L96.2879 483.036C110.138 496.876 132.439 496.876 146.289 483.036L483.24 146.331C497.09 132.492 497.09 110.206 483.24 96.3667L414.205 27.346C407.28 20.4265 398.223 16.957 389.185 16.957H389.191ZM299.884 158.403C304.402 158.403 308.912 160.137 312.375 163.597L346.93 198.09C353.855 205.009 353.855 216.134 346.93 223.054L223.103 346.826C216.178 353.746 205.008 353.746 198.084 346.826L163.566 312.296C156.641 305.377 156.641 294.252 163.566 287.332L287.393 163.595C290.855 160.136 295.365 158.403 299.884 158.403Z" fill="#141D2B" stroke="#141D2B" stroke-width="25"/>
<path fill-rule="evenodd" clip-rule="evenodd" d="M122.815 18.7234C113.778 18.7234 104.758 22.1931 97.8338 29.1124L28.7627 98.1331C14.9131 111.973 14.9131 134.258 28.7627 148.097L365.755 484.803C379.605 498.642 401.906 498.642 415.756 484.803L484.791 415.782C498.641 401.942 498.641 379.695 484.791 365.853L147.84 29.1072C140.915 22.1877 131.858 18.7183 122.821 18.7183L122.815 18.7234ZM212.122 160.169C216.641 160.169 221.188 161.903 224.651 165.363L348.478 289.1C355.403 296.02 355.403 307.144 348.478 314.064L313.923 348.595C306.998 355.514 295.866 355.514 288.941 348.595L165.114 224.822C158.189 217.903 158.189 206.778 165.114 199.859L199.632 165.366C203.094 161.906 207.604 160.169 212.122 160.169Z" fill="#141D2B" stroke="#141D2B" stroke-width="25"/>
<path fill-rule="evenodd" clip-rule="evenodd" d="M389.477 18.2393C380.439 18.2393 371.42 21.709 364.495 28.6283L27.5029 365.334C13.6533 379.173 13.6533 401.458 27.5029 415.298L96.5741 484.319C110.424 498.158 132.725 498.158 146.575 484.319L483.526 147.613C497.376 133.774 497.376 111.488 483.526 97.649L414.491 28.6283C407.567 21.7088 398.509 18.2393 389.472 18.2393H389.477ZM300.17 159.685C304.688 159.685 309.198 161.419 312.661 164.879L347.216 199.372C354.141 206.292 354.141 217.416 347.216 224.336L223.389 348.109C216.464 355.028 205.295 355.028 198.37 348.109L163.852 313.578C156.927 306.659 156.927 295.535 163.852 288.615L287.679 164.878C291.141 161.418 295.651 159.685 300.17 159.685Z" fill="#1793D1"/>
<path fill-rule="evenodd" clip-rule="evenodd" d="M121.597 18.2395C112.559 18.2395 103.54 21.7093 96.6151 28.6285L27.544 97.6492C13.6943 111.489 13.6943 133.774 27.544 147.614L364.536 484.319C378.386 498.158 400.688 498.158 414.537 484.319L483.572 415.298C497.422 401.459 497.422 379.211 483.572 365.37L146.621 28.6234C139.697 21.7039 130.64 18.2344 121.602 18.2344L121.597 18.2395ZM210.904 159.685C215.422 159.685 219.969 161.42 223.432 164.879L347.259 288.616C354.184 295.536 354.184 306.66 347.259 313.58L312.704 348.111C305.779 355.03 294.647 355.03 287.722 348.111L163.895 224.338C156.97 217.419 156.97 206.294 163.895 199.375L198.413 164.882C201.875 161.422 206.385 159.685 210.904 159.685Z" fill="#1793D1"/>
</svg>
