<svg width="512" height="512" version="1.1" viewBox="0 0 135.47 135.47" xmlns="http://www.w3.org/2000/svg"><path d="m66.667 8.2025c-3.2145 0.019538-7.2533 0.79856-9.3887 1.9644-3.5197 1.9217-6.6112 5.7098-7.9301 9.0752-1.5145 3.865-1.6494 6.4794-1.5213 10.229-10.209-1.8911-20.742 6.0481-20.742 17.065 0 0.53172 0.04515 3.3886 1.0711 6.0222 1.0259 2.6336 2.2937 4.1592 3.3489 5.4055 2.0941 2.4734 4.5109 4.8074 9.4141 9.7136l0.07255-0.07255c-0.03795 0.03798-0.03488 0.03693-0.07255 0.07461 0.03765 0.03768 0.03459 0.03663 0.07255 0.07461l-0.07255-0.07255c-4.9032 4.9062-7.32 7.2402-9.4141 9.7136-1.0552 1.2463-2.323 2.774-3.3489 5.4076-1.0259 2.6336-1.0711 5.4884-1.0711 6.0201 0 11.017 10.533 18.959 20.742 17.067-0.12803 3.749 0.0069 6.3625 1.5213 10.227 0.41514 1.0594 0.99206 2.263 1.7763 3.1961 2.4117 2.8693 5.2347 5.7512 8.7425 7.072 3.174 1.1951 7.7893 1.0059 10.166 0.40729 6.275-1.5801 5.8536-2.8534 8.0472-4.6039 2.1935-1.7506 5.4863-4.4802 11.124-9.1773 3.6084-3.0066 6.9242-5.7813 9.3752-7.8414 1.2255-1.0301 2.2324-1.8787 2.9691-2.5048 0.36835-0.31305 0.66574-0.567 0.9182-0.78554 0.12623-0.10926 0.23742-0.20572 0.38033-0.33318 0.0134-0.0119 0.0212-0.0165 0.0254-0.0166h0.00104l5.1e-4 5.3e-4h5.3e-4v5.1e-4h5.2e-4l5.1e-4 5.2e-4 5.2e-4 5.2e-4c4e-3 8e-3 -6e-3 0.036 5.2e-4 0.0451l5.1e-4 5.1e-4 5.2e-4 5.3e-4 5.3e-4 5.2e-4h5.1e-4l5.2e-4 5.1e-4h5.2e-4c0.032 9e-3 0.21913-0.15556 1.1794-1.2426 4.6324-5.2438 5.4541-12.538 2.881-18.519-0.49144-1.1424-1.8272-3.2578-2.7789-4.3246-0.95171-1.0669-1.6752-1.7041-2.5971-2.5204-1.6425-1.4544-4.5195-3.8537-8.6446-7.2932 4.125-3.4394 7.0022-5.8368 8.6446-7.2911 0.92185-0.8163 1.6454-1.4556 2.5971-2.5224 0.95172-1.0669 2.2875-3.1817 2.7789-4.3241 2.573-5.9812 1.7513-13.274-2.881-18.517-0.96136-1.0883-1.1488-1.2526-1.1804-1.2441h-5.1e-4l-5.3e-4 5.18e-4h-5.2e-4l-5.1e-4 5.18e-4v5.18e-4h-5.2e-4l-5.2e-4 5.19e-4c-6e-3 0.0084 3e-3 0.03393 5.2e-4 0.04353-1.1e-4 3.13e-4 -3.8e-4 0.0013-5.2e-4 0.0016l-5.1e-4 5.19e-4 -5.2e-4 5.18e-4h-5.3e-4l-5.1e-4 5.17e-4h-0.00155c-4e-3 -1.16e-4 -0.0114-0.0046-0.0249-0.01658-0.14291-0.12746-0.25402-0.22385-0.38033-0.33318-0.25261-0.21867-0.54947-0.47165-0.9182-0.78502-0.73747-0.62674-1.7463-1.4777-2.9733-2.509-2.4538-2.0626-5.7739-4.8391-9.3866-7.8493-6.2222-5.1845-9.4601-7.8847-11.619-9.5908-1.0797-0.85304-1.8602-1.4732-3.1199-2.254-1.2597-0.78085-3.8382-1.795-4.9449-2.0426-0.78771-0.17628-1.766-0.25316-2.8375-0.24665zm-28.506 45.138c0.06855-0.0022 0.22168 0.05345 0.271 0.09638 0.04518 0.03931 0.25654 0.23738 0.34873 0.32075-0.11041-0.07396-0.60018-0.32126-0.63061-0.35598-0.03763-0.04294-0.02502-0.06 0.01088-0.06114zm0.61766 28.265c-0.0914 0.08264-0.30174 0.28011-0.34666 0.31919-0.0255 0.02218-0.04929 0.03363-0.06011 0.03265-5.92e-4 -1.03e-4 -0.0021-3.26e-4 -0.0026-5.19e-4l-0.001036-0.001036-5.19e-4 -5.18e-4 -5.17e-4 -5.18e-4 -5.19e-4 -5.19e-4c-1.05e-4 -2.33e-4 -4.4e-4 -0.0013-5.18e-4 -0.0016-0.0043-0.02322 0.08452-0.1273 0.41246-0.34717z" fill="#fff" opacity=".3" stop-color="#000000" stroke="#000" stroke-width="5.2917"/><path d="m66.667 8.2025c-3.2145 0.019538-7.2533 0.79856-9.3887 1.9644-3.5197 1.9217-6.6112 5.7098-7.9301 9.0752-1.5145 3.865-1.6494 6.4794-1.5213 10.229-10.209-1.8911-20.742 6.0481-20.742 17.065 0 0.53172 0.04515 3.3886 1.0711 6.0222 1.0259 2.6336 2.2937 4.1592 3.3489 5.4055 2.0941 2.4734 4.5109 4.8074 9.4141 9.7136l0.07255-0.07255c-0.03795 0.03798-0.03488 0.03693-0.07255 0.07461 0.03765 0.03768 0.03459 0.03663 0.07255 0.07461l-0.07255-0.07255c-4.9032 4.9062-7.32 7.2402-9.4141 9.7136-1.0552 1.2463-2.323 2.774-3.3489 5.4076-1.0259 2.6336-1.0711 5.4884-1.0711 6.0201 0 11.017 10.533 18.959 20.742 17.067-0.12803 3.749 0.0069 6.3625 1.5213 10.227 0.41514 1.0594 0.99206 2.263 1.7763 3.1961 2.4117 2.8693 5.2347 5.7512 8.7425 7.072 3.174 1.1951 7.7893 1.0059 10.166 0.40729 6.275-1.5801 5.8536-2.8534 8.0472-4.6039 2.1935-1.7506 5.4863-4.4802 11.124-9.1773 3.6084-3.0066 6.9242-5.7813 9.3752-7.8414 1.2255-1.0301 2.2324-1.8787 2.9691-2.5048 0.36835-0.31305 0.66574-0.567 0.9182-0.78554 0.12623-0.10926 0.23742-0.20572 0.38033-0.33318 0.0134-0.0119 0.0212-0.0165 0.0254-0.0166h0.00104l5.1e-4 5.3e-4h5.3e-4v5.1e-4h5.2e-4l5.1e-4 5.2e-4 5.2e-4 5.2e-4c4e-3 8e-3 -6e-3 0.036 5.2e-4 0.0451l5.1e-4 5.1e-4 5.2e-4 5.3e-4 5.3e-4 5.2e-4h5.1e-4l5.2e-4 5.1e-4h5.2e-4c0.032 9e-3 0.21913-0.15556 1.1794-1.2426 4.6324-5.2438 5.4541-12.538 2.881-18.519-0.49144-1.1424-1.8272-3.2578-2.7789-4.3246-0.95171-1.0669-1.6752-1.7041-2.5971-2.5204-1.6425-1.4544-4.5195-3.8537-8.6446-7.2932 4.125-3.4394 7.0022-5.8368 8.6446-7.2911 0.92185-0.8163 1.6454-1.4556 2.5971-2.5224 0.95172-1.0669 2.2875-3.1817 2.7789-4.3241 2.573-5.9812 1.7513-13.274-2.881-18.517-0.96136-1.0883-1.1488-1.2526-1.1804-1.2441h-5.1e-4l-5.3e-4 5.18e-4h-5.2e-4l-5.1e-4 5.18e-4v5.18e-4h-5.2e-4l-5.2e-4 5.19e-4c-6e-3 0.0084 3e-3 0.03393 5.2e-4 0.04353-1.1e-4 3.13e-4 -3.8e-4 0.0013-5.2e-4 0.0016l-5.1e-4 5.19e-4 -5.2e-4 5.18e-4h-5.3e-4l-5.1e-4 5.17e-4h-0.00155c-4e-3 -1.16e-4 -0.0114-0.0046-0.0249-0.01658-0.14291-0.12746-0.25402-0.22385-0.38033-0.33318-0.25261-0.21867-0.54947-0.47165-0.9182-0.78502-0.73747-0.62674-1.7463-1.4777-2.9733-2.509-2.4538-2.0626-5.7739-4.8391-9.3866-7.8493-6.2222-5.1845-9.4601-7.8847-11.619-9.5908-1.0797-0.85304-1.8602-1.4732-3.1199-2.254-1.2597-0.78085-3.8382-1.795-4.9449-2.0426-0.78771-0.17628-1.766-0.25316-2.8375-0.24665zm-28.506 45.138c0.06855-0.0022 0.22168 0.05345 0.271 0.09638 0.04518 0.03931 0.25654 0.23738 0.34873 0.32075-0.11041-0.07396-0.60018-0.32126-0.63061-0.35598-0.03763-0.04294-0.02502-0.06 0.01088-0.06114zm0.61766 28.265c-0.0914 0.08264-0.30174 0.28011-0.34666 0.31919-0.0255 0.02218-0.04929 0.03363-0.06011 0.03265-5.92e-4 -1.03e-4 -0.0021-3.26e-4 -0.0026-5.19e-4l-0.001036-0.001036-5.19e-4 -5.18e-4 -5.17e-4 -5.18e-4 -5.19e-4 -5.19e-4c-1.05e-4 -2.33e-4 -4.4e-4 -0.0013-5.18e-4 -0.0016-0.0043-0.02322 0.08452-0.1273 0.41246-0.34717z" fill="#fff" stop-color="#000000"/><path d="m64.39 113.91c-1.3187-0.47813-2.1733-1.3154-2.6909-2.636-0.27592-0.70412-0.30369-2.2641-0.30369-17.057v-16.282l-7.1233 7.1017c-4.8041 4.7895-7.3837 7.2318-7.923 7.5014-2.7057 1.3522-5.9981-0.68983-5.9981-3.7201 0-1.7953 0.06732-1.8748 10.026-11.842l9.2931-9.3012-9.2931-9.3012c-9.9586-9.9672-10.026-10.047-10.026-11.842 0-3.0303 3.2924-5.0723 5.9981-3.7201 0.5393 0.26952 3.1189 2.7119 7.923 7.5014l7.1233 7.1017v-16.282c0-14.793 0.02777-16.353 0.30369-17.057 0.40902-1.0438 1.0374-1.7809 1.9366-2.2719 1.0388-0.56716 1.8121-0.6752 2.9732-0.41538 0.94695 0.21192 1.6549 0.77129 14.089 11.132 7.2008 5.9999 13.24 11.076 13.42 11.28 1.0546 1.1937 1.3026 2.9447 0.6365 4.4931-0.37064 0.86158-1.1235 1.5282-11.388 10.084-6.0453 5.039-10.991 9.2222-10.991 9.2961s4.9461 4.2572 10.991 9.2961c10.265 8.5561 11.018 9.2228 11.388 10.084 0.6661 1.5484 0.41805 3.2993-0.6365 4.4931-0.18027 0.20407-6.2123 5.2742-13.405 11.267-11.25 9.3738-13.194 10.926-13.919 11.108-1.0106 0.25448-1.6754 0.2506-2.4053-0.014zm12.931-19.247c3.818-3.1824 6.937-5.8402 6.931-5.9063-6e-3 -0.06598-3.2319-2.7955-7.1687-6.0656l-7.1578-5.9456v11.991c0 9.5457 0.04623 11.962 0.22686 11.852 0.12478-0.0764 3.3507-2.7427 7.1687-5.9251zm6.931-48.07c0.010027-0.10986-13.579-11.512-14.1-11.831-0.1806-0.11057-0.22686 2.3062-0.22686 11.852v11.991l7.1578-5.9456c3.9368-3.2701 7.1627-5.9996 7.1687-6.0656z" stroke-width=".68593"/></svg>
