<svg width="64" height="64" viewBox="0 0 64 64" fill="none" xmlns="http://www.w3.org/2000/svg">
<g clip-path="url(#clip0_68_7019)">
<path fill-rule="evenodd" clip-rule="evenodd" d="M57.2626 54.8795C57.2588 58.5349 54.3409 61.3334 50.992 61.3334H13.008C9.50802 61.3334 6.66669 58.492 6.66669 54.992V29.3334C6.66669 27.8614 7.74802 26.6667 9.08002 26.6667C10.4107 26.6667 11.492 27.8614 11.492 29.3334V52.1947C11.492 54.2947 13.1974 56 15.2974 56H48.7027C50.8027 56 52.508 54.2947 52.508 52.1947V30.6667V29.3334V11.8054C52.508 9.70535 50.8027 8.00002 48.7027 8.00002H15.2974C13.1974 8.00002 11.492 9.70535 11.492 11.8054V18.6667C11.492 20.1387 10.4107 21.3334 9.08002 21.3334C7.74802 21.3334 6.66669 20.1387 6.66669 18.6667V9.00802C6.66669 5.50802 9.50802 2.66669 13.008 2.66669H50.992C54.3409 2.66669 57.3142 5.5139 57.3106 9.02469L57.2626 54.8795ZM26.8365 19.9484C24.3494 19.9484 23.031 20.3168 21.7814 21.0775C20.5422 21.828 19.9518 23.0242 19.9518 24.6283V27.6937C19.9518 28.6507 19.525 29.3185 18.7694 29.7918C18.0241 30.2548 18.0568 30.544 16.5095 30.544V33.4493C19.5594 33.4493 19.9518 34.4407 19.9518 36.3529V38.9898C19.9518 40.7471 20.5146 42.0793 21.673 42.8624C22.8417 43.6542 24.1876 44.0242 26.8365 44.0449V41.248C25.5181 41.2273 24.8399 40.9812 24.2547 40.5492C23.6695 40.1172 23.3942 39.5096 23.3942 38.6662V35.7626C23.3942 33.6955 22.3614 32.4751 19.7367 32.1051V31.8899C22.3614 31.4872 23.3942 30.2238 23.3942 28.1774V25.3271C23.3942 24.4837 23.6695 23.9192 24.2547 23.4992C24.8503 23.0672 25.5301 22.797 26.8365 22.7453V19.9484ZM37.1635 19.9484V22.7453C38.4699 22.797 39.1498 23.0672 39.7453 23.4992C40.3305 23.9192 40.6059 24.4837 40.6059 25.3271V28.1774C40.6059 30.2238 41.6386 31.4872 44.2634 31.8899V32.1051C41.6386 32.4751 40.6059 33.6955 40.6059 35.7626V38.6662C40.6059 39.5096 40.3305 40.1172 39.7453 40.5492C39.1601 40.9812 38.482 41.2273 37.1635 41.248V44.0449C39.8124 44.0242 41.1584 43.6542 42.3271 42.8624C43.4854 42.0793 44.0482 40.7471 44.0482 38.9898V36.3529C44.0482 34.4407 44.4407 33.4493 47.4906 33.4493V30.544C45.9433 30.544 45.976 30.2548 45.2324 29.7918C44.4751 29.3185 44.0482 28.6507 44.0482 27.6937V24.6283C44.0482 23.0242 43.4579 21.828 42.2204 21.0775C40.9691 20.3168 39.6506 19.9484 37.1635 19.9484Z" fill="#9FEF00"/>
</g>
<defs>
<clipPath id="clip0_68_7019">
<rect width="64" height="64" fill="white"/>
</clipPath>
</defs>
</svg>
