<svg width="48" height="48" viewBox="0 0 48 48" fill="none" xmlns="http://www.w3.org/2000/svg">
<path d="M30 5C28.896 5 28 4.104 28 3C28 1.896 28.896 1 30 1H40C43.863 1 47 4.137 47 8V40C47 43.863 43.863 47 40 47H8C4.137 47 1 43.863 1 40V8C1 4.137 4.137 1 8 1H18C19.104 1 20 1.896 20 3C20 4.104 19.104 5 18 5H10C7.24 5 5 7.24 5 10V38C5 40.76 7.24 43 10 43H38C40.76 43 43 40.76 43 38V10C43 7.24 40.76 5 38 5H30Z" fill="#141D2B"/>
<path d="M24 6C24.828 6 25.5 6.896 25.5 8V20H22.5V8C22.5 6.896 23.172 6 24 6Z" fill="#9FEF00"/>
<path fill-rule="evenodd" clip-rule="evenodd" d="M22.5 22C22.5 21.172 23.172 20.5 24 20.5C24.828 20.5 25.5 21.172 25.5 22C25.5 22.828 24.828 23.5 24 23.5C23.172 23.5 22.5 22.828 22.5 22ZM24 18C26.208 18 28 19.792 28 22V28C28 30.208 26.208 32 24 32C21.792 32 20 30.208 20 28V22C20 19.792 21.792 18 24 18ZM22.5 28C22.5 26.896 23.172 26 24 26C24.828 26 25.5 26.896 25.5 28C25.5 29.104 24.828 30 24 30C23.172 30 22.5 29.104 22.5 28Z" fill="#9FEF00"/>
</svg>
