<svg width="64" height="64" viewBox="0 0 64 64" fill="none" xmlns="http://www.w3.org/2000/svg">
<path fill-rule="evenodd" clip-rule="evenodd" d="M57.2626 54.8795C57.2588 58.5349 54.3409 61.3334 50.992 61.3334H13.008C9.50802 61.3334 6.66669 58.492 6.66669 54.992V29.3334C6.66669 27.8614 7.74802 26.6667 9.08002 26.6667C10.4107 26.6667 11.492 27.8614 11.492 29.3334V52.1947C11.492 54.2947 13.1974 56 15.2974 56H48.7027C50.8027 56 52.508 54.2947 52.508 52.1947V30.6667V29.3334V11.8054C52.508 9.70535 50.8027 8.00002 48.7027 8.00002H15.2974C13.1974 8.00002 11.492 9.70535 11.492 11.8054V18.6667C11.492 20.1387 10.4107 21.3334 9.08002 21.3334C7.74802 21.3334 6.66669 20.1387 6.66669 18.6667V9.00802C6.66669 5.50802 9.50802 2.66669 13.008 2.66669H50.992C54.3409 2.66669 57.3142 5.5139 57.3106 9.02469L57.2626 54.8795ZM32.0083 18.9799L24.7352 30.1003C26.4228 28.5793 28.6572 27.8668 30.778 28.1733C31.7548 28.3142 32.7067 28.6696 33.5683 29.2594C35.4646 30.5593 34.584 33.5252 32.2867 33.5799C32.2808 33.5807 32.2735 33.5824 32.2684 33.5824C30.3588 33.6503 28.8452 35.2178 28.8436 37.1282C28.8453 38.9301 30.1948 40.4454 31.9843 40.6533C32.5195 40.7577 33.1234 40.7196 33.8773 40.597C35.4381 40.336 37.7081 39.65 38.9301 38.6112C42.0012 36.173 41.4395 33.4639 39.5945 30.6008L32.0083 18.9799ZM33.0124 16.2344L42.1445 29.3464C45.2803 33.8508 45.2471 38.7147 43.1329 42.3872C41.0195 46.0606 36.8581 48.5692 32.0033 48.5692C27.1485 48.5692 22.9847 46.0606 20.8688 42.3872C18.7529 38.7147 18.7181 33.8508 21.858 29.3497L30.9868 16.26C31.865 15.1499 32.2237 15.1673 33.0124 16.2344ZM35.057 14.8177L44.1784 27.924C45.1311 29.2661 45.8685 30.7407 46.3904 32.3065C46.8626 33.7563 47.1029 35.2641 47.1112 36.7885C47.1112 39.191 46.4815 41.5521 45.2885 43.6316C43.9713 45.885 42.0824 47.749 39.8124 49.0249C37.4264 50.367 34.7422 51.0629 32 51.0546C29.2661 51.063 26.5736 50.367 24.1876 49.0249C21.9176 47.749 20.0287 45.885 18.7198 43.6316C17.5185 41.5521 16.8889 39.191 16.8889 36.7885C16.8973 35.2641 17.1374 33.7563 17.6096 32.3065C18.1316 30.7407 18.8772 29.2661 19.8216 27.924L28.9513 14.8343C28.9597 14.8177 28.9761 14.8011 28.9927 14.7846C29.2578 14.42 29.5643 14.0804 29.9123 13.7821C30.4922 13.2602 31.2461 12.9619 32.0249 12.9454C32.8285 12.9538 33.5989 13.2685 34.1871 13.8152C34.5102 14.1135 34.8002 14.4532 35.057 14.8177ZM29.8932 30.4267C28.098 30.3464 26.2488 31.343 25.1495 33.3239C23.5514 36.2044 23.7527 39.6558 26.0566 42.1279C29.4044 45.7201 34.3321 45.0541 36.7338 42.5388C35.1266 43.0293 33.6868 43.2323 32.406 43.1047C32.4018 43.1047 32.3985 43.1047 32.3944 43.1047C29.1261 43.1047 26.4767 40.4553 26.4767 37.187C26.4792 34.2749 28.5992 31.797 31.4764 31.3455C31.7241 31.2751 31.9752 31.2237 32.2312 31.2138C31.5137 30.7225 30.7093 30.4632 29.8932 30.4267Z" fill="#9FEF00"/>
</svg>
