<svg width="64" height="64" viewBox="0 0 64 64" fill="none" xmlns="http://www.w3.org/2000/svg">
<path fill-rule="evenodd" clip-rule="evenodd" d="M45.0027 2.75996C44.8067 2.69729 44.5987 2.66663 44.384 2.66663H12.5707C8.94133 2.66663 5.99466 5.61329 5.99466 9.24263V36.1906C5.99466 37.732 7.10399 38.984 8.47066 38.984C9.83733 38.984 10.948 37.732 10.948 36.1906V12.2C10.948 10.0213 12.716 8.25329 14.8933 8.25329H44.384C44.5987 8.25329 44.8067 8.22263 45.0027 8.15996C45.1987 8.22263 45.4067 8.25329 45.6227 8.25329H49.1067C51.284 8.25329 53.052 10.0213 53.052 12.2V16.6346C53.052 18.1773 54.1627 19.428 55.5293 19.428C56.896 19.428 58.0053 18.1773 58.0053 16.6346V9.24263C58.0053 5.61329 55.0587 2.66663 51.4293 2.66663H45.6227C45.4067 2.66663 45.1987 2.69729 45.0027 2.75996ZM18.3773 55.7466C19.7453 55.7466 20.8547 56.9973 20.8547 58.54C20.8547 60.0813 19.7453 61.3333 18.3773 61.3333H12.5707C8.94133 61.3333 5.99466 58.3866 5.99466 54.7573V47.3653C5.99466 45.8226 7.10399 44.572 8.47066 44.572C9.83733 44.572 10.948 45.8226 10.948 47.3653V51.8C10.948 53.9786 12.716 55.7466 14.8933 55.7466H18.3773ZM53.052 29.2066C53.052 27.664 54.1627 26.4133 55.5293 26.4133C56.896 26.4133 58.0053 27.664 58.0053 29.2066V54.7573C58.0053 58.3866 55.0587 61.3333 51.4293 61.3333H29.5227C28.156 61.3333 27.0467 60.0813 27.0467 58.54C27.0467 56.9973 28.156 55.7466 29.5227 55.7466H49.1067C51.284 55.7466 53.052 53.9786 53.052 51.8V29.2066ZM25.0027 43.0813V27.8413L20.5933 30.236L18 25.152L24.2973 20.9186H27.7973C30.188 22.4 34.16 22.176 36.1973 20.9186H39.6987L46 24.9266L43.412 29.9986L39.0027 27.8413V43.0813H25.0027Z" fill="#9FEF00"/>
</svg>
