<svg width="64" height="64" viewBox="0 0 64 64" fill="none" xmlns="http://www.w3.org/2000/svg">
<path fill-rule="evenodd" clip-rule="evenodd" d="M13.0078 2.66602C9.50782 2.66602 6.66602 5.50782 6.66602 9.00781V18.666C6.66602 20.138 7.74808 21.334 9.08008 21.334C10.4107 21.334 11.4922 20.138 11.4922 18.666V11.8047C11.4922 9.70469 13.1969 8 15.2969 8H48.7031C50.8031 8 52.5078 9.70469 52.5078 11.8047V29.334V30.666V52.1953C52.5078 54.2953 50.8031 56 48.7031 56H15.2969C13.1969 56 11.4922 54.2953 11.4922 52.1953V29.334C11.4922 27.862 10.4107 26.666 9.08008 26.666C7.74808 26.666 6.66602 27.862 6.66602 29.334V54.9922C6.66602 58.4922 9.50782 61.334 13.0078 61.334H50.9922C54.3411 61.334 57.2579 58.5344 57.2617 54.8789L57.3105 9.02539C57.3142 5.5146 54.3411 2.66602 50.9922 2.66602H13.0078Z" fill="#9FEF00"/>
<path d="M36.8622 36.445C36.708 37.1431 36.0149 37.5879 35.3151 37.4376C34.6148 37.2873 34.1717 36.5953 34.3253 35.8939L35.1482 32.0717C35.5247 30.3217 36.8588 29.928 38.1253 31.1933L42.655 35.7186L48.9059 35.214C50.6903 35.0699 51.4871 36.2521 50.6842 37.8518L47.9483 43.302L50.0698 48.7999C50.7142 50.47 49.8031 51.5935 48.0359 51.3068L41.7601 50.2887L36.8034 54.3698C35.4216 55.5082 34.1257 54.9892 33.9111 53.212L33.1903 47.2395L27.6619 43.7206C26.152 42.7591 26.264 41.4123 27.9125 40.7141L32.4506 38.7933C33.1099 38.5144 33.8712 38.8222 34.1507 39.4809C34.4296 40.1397 34.1218 40.9016 33.4625 41.181L30.4854 42.4458L35.6168 45.7085L36.3043 51.4177L41.0204 47.5384L47.1898 48.537L45.1137 43.1595L47.7537 37.9111L41.6691 38.4041L37.3618 34.1034L36.8622 36.445Z" fill="#9FEF00"/>
</svg>
