<svg width="48" height="48" viewBox="0 0 48 48" fill="none" xmlns="http://www.w3.org/2000/svg">
<path d="M30 5C28.896 5 28 4.104 28 3C28 1.896 28.896 1 30 1H40C43.863 1 47 4.137 47 8V40C47 43.863 43.863 47 40 47H8C4.137 47 1 43.863 1 40V8C1 4.137 4.137 1 8 1H18C19.104 1 20 1.896 20 3C20 4.104 19.104 5 18 5H10C7.24 5 5 7.24 5 10V38C5 40.76 7.24 43 10 43H38C40.76 43 43 40.76 43 38V10C43 7.24 40.76 5 38 5H30Z" fill="#141D2B"/>
<path d="M33.3138 21.7285C33.3438 22.58 33.0754 22.994 32.8335 23.7249L32.3966 23.9518C32.0405 24.6756 32.4323 24.4115 32.1768 24.9868C31.6194 25.5036 30.4881 26.6035 30.1262 26.7041C29.8614 26.6984 30.3053 26.3779 30.3631 26.253C29.618 26.7869 29.765 27.0545 28.6251 27.38L28.5916 27.3022C25.7815 28.6833 21.878 25.9468 21.9294 22.2131C21.8994 22.4501 21.8437 22.3909 21.7816 22.4858C21.6367 20.5651 22.631 18.6358 24.3083 17.8471C25.9493 16.9998 27.8721 17.3467 29.047 18.4916C28.4017 17.6087 27.117 16.6722 25.5952 16.7593C24.1035 16.7843 22.7081 17.7743 22.242 18.8492C21.4783 19.3517 21.3891 20.7863 21.0564 21.049C20.6082 24.4879 21.8994 25.9732 24.0828 27.7212C24.4254 27.9625 24.1791 27.9996 24.2255 28.1837C23.4996 27.829 22.8358 27.2937 22.2898 26.6377C22.5796 27.081 22.8922 27.5114 23.2969 27.8497C22.6124 27.6084 21.6981 26.1188 21.4319 26.0581C22.611 28.2629 26.2155 29.9253 28.1034 29.1002C27.2297 29.1337 26.1198 29.1187 25.1391 28.7397C24.7259 28.5185 24.1663 28.0602 24.2662 27.9746C26.8422 28.9788 29.5031 28.7347 31.7314 26.869C32.2989 26.4072 32.9184 25.6228 33.0976 25.612C32.8278 26.036 33.144 25.8162 32.937 26.1895C33.5008 25.238 32.6907 25.8019 33.5201 24.5464L33.8263 24.9868C33.7121 24.1959 34.7663 23.2367 34.6585 21.9876C34.9005 21.6057 34.9283 22.3994 34.6721 23.2781C35.0283 22.3031 34.7663 22.146 34.857 21.3416C34.9555 21.6121 35.0861 21.8991 35.1525 22.1846C34.9205 21.2424 35.3894 20.5979 35.5065 20.0504C35.3909 19.9976 35.1482 20.4666 35.0925 19.3538C35.1011 18.8706 35.2217 19.1004 35.2681 18.9812C35.1774 18.927 34.9391 18.5565 34.7942 17.8456C34.8984 17.6779 35.0747 18.2789 35.2181 18.3032C35.1261 17.7379 34.9676 17.3075 34.9605 16.8735C34.5422 15.9606 34.8127 16.9956 34.4737 16.4816C34.029 15.032 34.8434 16.1447 34.8984 15.4867C35.5722 16.5066 35.9569 18.089 36.1339 18.7443C35.999 17.9456 35.7813 17.1711 35.5151 16.4224C35.7206 16.513 35.1846 14.7793 35.782 15.9271C35.1446 13.4803 33.0569 11.1934 31.1354 10.1206C31.3703 10.3455 31.6665 10.6274 31.5608 10.6716C30.6044 10.0778 30.7728 10.0314 30.6358 9.78016C29.8578 9.44969 29.8057 9.80726 29.2918 9.78069C27.8243 8.96772 27.5417 9.05409 26.1905 8.54518L26.2519 8.84495C25.2805 8.50663 25.1199 8.97272 24.0692 8.84549C24.0057 8.79409 24.4061 8.65706 24.7359 8.60709C23.7958 8.737 23.8401 8.41366 22.9201 8.64279C23.147 8.47648 23.3869 8.36656 23.6288 8.22595C22.8622 8.27445 21.7987 8.69132 22.1271 8.31165C20.8773 8.89408 18.6568 9.71205 17.4113 10.9326L17.372 10.6592C16.801 11.3744 14.8824 12.7962 14.7297 13.7241L14.5769 13.7612C14.28 14.2865 14.0873 14.8818 13.8518 15.4221C13.4635 16.1137 13.2829 15.6883 13.3379 15.7968C12.5734 17.4156 12.1937 18.7746 11.8661 19.891C12.0995 20.2557 11.8718 22.0865 11.9596 23.5518C11.5763 30.7908 16.8239 37.8177 22.5596 39.4401C23.4004 39.7549 24.6502 39.7434 25.7137 39.7741C24.4596 39.3994 24.2976 39.5764 23.075 39.131C22.1935 38.6971 22 38.2017 21.3755 37.6357L21.6232 38.0918C20.3984 37.6379 20.9108 37.5315 19.9144 37.201L20.1785 36.8413C19.7817 36.8099 19.1272 36.1432 18.948 35.7728L18.5133 35.7906C17.9923 35.119 17.7139 34.6344 17.7346 34.2582L17.594 34.5194C17.4341 34.2347 15.6733 31.997 16.5869 32.5188C16.417 32.3575 16.1915 32.2554 15.9474 31.7907L16.1329 31.5688C15.6947 30.9785 15.3242 30.2212 15.3528 29.9685C15.5869 30.299 15.7496 30.3611 15.911 30.4182C14.8011 27.5417 14.7383 30.2597 13.8982 27.4896L14.0752 27.4753C13.9396 27.2598 13.856 27.0278 13.7468 26.7987L13.8246 25.9936C13.0259 25.0307 13.6012 21.8916 13.7161 20.1693C13.7968 19.4705 14.3835 18.7247 14.8303 17.5562L14.5584 17.5069C15.0787 16.5598 17.5276 13.7019 18.6625 13.8489C19.2121 13.128 18.5533 13.8459 18.4455 13.6648C19.6532 12.36 20.0329 12.7433 20.8473 12.5078C21.7252 11.9639 20.0936 12.7212 20.5097 12.3008C22.0286 11.8954 21.5861 11.3793 23.5674 11.1738C23.7766 11.298 23.0821 11.3658 22.9086 11.5271C24.1734 10.8797 26.9128 11.0274 28.6922 11.8854C30.7564 12.8932 33.0761 15.8717 33.1682 18.6739L33.2724 18.7032C33.2196 19.8174 33.4352 21.1065 33.0604 22.2892L33.3138 21.7285Z" fill="#9FEF00"/>
</svg>
