<svg width="64" height="64" viewBox="0 0 64 64" fill="none" xmlns="http://www.w3.org/2000/svg">
<path fill-rule="evenodd" clip-rule="evenodd" d="M45.0027 2.76002C44.8067 2.69735 44.5987 2.66669 44.384 2.66669H12.5707C8.94136 2.66669 5.99469 5.61335 5.99469 9.24269V36.1907C5.99469 37.732 7.10402 38.984 8.47069 38.984C9.83736 38.984 10.948 37.732 10.948 36.1907V12.2C10.948 10.0214 12.716 8.25335 14.8934 8.25335H44.384C44.5987 8.25335 44.8067 8.22269 45.0027 8.16002C45.1987 8.22269 45.4067 8.25335 45.6227 8.25335H49.1067C51.284 8.25335 53.052 10.0214 53.052 12.2V16.6347C53.052 18.1774 54.1627 19.428 55.5294 19.428C56.896 19.428 58.0054 18.1774 58.0054 16.6347V9.24269C58.0054 5.61335 55.0587 2.66669 51.4294 2.66669H45.6227C45.4067 2.66669 45.1987 2.69735 45.0027 2.76002ZM18.3774 55.7467C19.7454 55.7467 20.8547 56.9974 20.8547 58.54C20.8547 60.0814 19.7454 61.3334 18.3774 61.3334H12.5707C8.94136 61.3334 5.99469 58.3867 5.99469 54.7574V47.3654C5.99469 45.8227 7.10402 44.572 8.47069 44.572C9.83736 44.572 10.948 45.8227 10.948 47.3654V51.8C10.948 53.9787 12.716 55.7467 14.8934 55.7467H18.3774ZM53.052 29.2067C53.052 27.664 54.1627 26.4134 55.5294 26.4134C56.896 26.4134 58.0054 27.664 58.0054 29.2067V54.7574C58.0054 58.3867 55.0587 61.3334 51.4294 61.3334H29.5227C28.156 61.3334 27.0467 60.0814 27.0467 58.54C27.0467 56.9974 28.156 55.7467 29.5227 55.7467H49.1067C51.284 55.7467 53.052 53.9787 53.052 51.8V29.2067ZM24.532 22.6667H25.7974L26.5107 25.3334H21.8654L24.532 22.6667ZM27.1774 22.6667H30.4347L28.896 25.3334H27.8934L27.1774 22.6667ZM31.9774 22.6667H32.0187L33.5574 25.3334H30.4374L31.9774 22.6667ZM33.5614 22.6667H36.8187L36.1027 25.3334H35.1L33.5614 22.6667ZM38.2014 22.6667H39.456L42.1227 25.3334H37.484L38.2014 22.6667ZM20.3814 26.6667H26.868L29.9494 38.1587L20.3814 26.6667ZM28.2507 26.6667H35.7454L32.0107 40.6067L31.9974 40.6227L31.984 40.6067L28.2507 26.6667ZM37.128 26.6667H43.6147L34.0467 38.1587L37.128 26.6667ZM23.98 21.3334L18.6654 26.648V26.6667L31.9987 42.6667L33.1627 41.2707L33.2414 41.1747L45.3347 26.6667V26.656L40.012 21.3334H25.4414H23.98Z" fill="#9FEF00"/>
</svg>
