<svg width="64" height="64" viewBox="0 0 64 64" fill="none" xmlns="http://www.w3.org/2000/svg">
<g clip-path="url(#clip0_68_7454)">
<path d="M60.6213 2.15866C58.9013 0.757323 56.668 0.21199 54.4894 0.66399L25.8547 6.67866C22.4627 7.37999 20 10.4053 20 13.8693V41.3333C17.9813 39.8307 15.4827 38.94 12.7787 38.94C6.09735 38.94 0.661346 44.376 0.661346 51.0573C0.661346 57.74 6.09735 63.1747 12.7787 63.1747C19.4413 63.1747 24.8653 57.7693 24.8947 51.112C24.8947 51.108 24.896 51.1027 24.896 51.0987V23.5507L58.432 16.4173V33.5C56.4147 31.9973 53.9147 31.1067 51.2107 31.1067C44.5294 31.1067 39.0933 36.5427 39.0933 43.224C39.0933 49.9053 44.5294 55.3413 51.2107 55.3413C52.5214 55.3413 53.8107 55.1333 55.0454 54.7213C56.328 54.2947 57.0213 52.908 56.5933 51.6253C56.1653 50.3427 54.7787 49.6493 53.4974 50.0773C52.7627 50.3213 51.9947 50.4453 51.2107 50.4453C47.2294 50.4453 43.9894 47.2067 43.9894 43.224C43.9894 39.2427 47.2294 36.0027 51.2107 36.0027C55.1934 36.0027 58.432 39.2427 58.432 43.224V43.24C58.432 44.592 59.528 45.688 60.88 45.688C62.232 45.688 63.328 44.592 63.328 43.24V7.85332C63.328 5.63466 62.3413 3.55866 60.6213 2.15866ZM12.7787 58.2787C8.79735 58.2787 5.55735 55.04 5.55735 51.0573C5.55735 47.076 8.79735 43.836 12.7787 43.836C16.76 43.836 20 47.076 20 51.0573C20 55.04 16.76 58.2787 12.7787 58.2787ZM24.896 13.8693C24.896 12.7147 25.7173 11.7067 26.8547 11.4707L55.488 5.45599C55.6547 5.42132 55.8214 5.40532 55.988 5.40532C56.5454 5.40532 57.088 5.59466 57.5293 5.95466C58.104 6.42132 58.432 7.11332 58.432 7.85332V11.412L24.896 18.5453V13.8693Z" fill="#9FEF00"/>
</g>
<defs>
<clipPath id="clip0_68_7454">
<rect width="64" height="64" fill="white"/>
</clipPath>
</defs>
</svg>
