<svg width="64" height="64" viewBox="0 0 64 64" fill="none" xmlns="http://www.w3.org/2000/svg">
<path fill-rule="evenodd" clip-rule="evenodd" d="M39.1667 19.816C39.1667 17.048 41.4147 14.8 44.184 14.8C46.952 14.8 49.2 17.048 49.2 19.816C49.2 22.5853 46.952 24.8333 44.184 24.8333C41.4147 24.8333 39.1667 22.5853 39.1667 19.816ZM9.06668 37.5907L22.036 26.772C24.4653 24.744 28.2547 24.9173 30.4907 27.156L36.18 32.8533C37.2987 33.972 39.3213 34.244 40.6947 33.4587L53.6893 26.032C54.376 25.64 54.9333 24.6787 54.9333 23.888V15.5173C54.9333 13.144 53.0067 11.216 50.6333 11.216H13.3667C10.9933 11.216 9.06668 13.144 9.06668 15.5173V37.5907ZM54.9333 38.4507C54.9333 36.868 56.2173 35.584 57.8 35.584C59.3827 35.584 60.6667 36.868 60.6667 38.4507V51.3507C60.6667 55.3053 57.456 58.5173 53.5 58.5173H10.5C6.54401 58.5173 3.33334 55.3053 3.33334 51.3507V12.6493C3.33334 8.69467 6.54401 5.48267 10.5 5.48267H53.5C57.456 5.48267 60.6667 8.69467 60.6667 12.6493V25.7787C60.6667 27.3613 59.552 29.2827 58.1773 30.068L42.2387 39.1747C39.4907 40.744 35.4427 40.204 33.204 37.968L28.1227 32.8933C27.004 31.776 25.108 31.6893 23.892 32.7027L10.9013 43.524L9.06668 45.0427V48.484C9.06668 50.856 10.9933 52.784 13.3667 52.784H50.6333C53.0067 52.784 54.9333 50.856 54.9333 48.484V38.4507Z" fill="#9FEF00"/>
</svg>
