<svg width="64" height="64" viewBox="0 0 64 64" fill="none" xmlns="http://www.w3.org/2000/svg">
<path fill-rule="evenodd" clip-rule="evenodd" d="M57.2626 54.8794C57.2588 58.5349 54.3409 61.3333 50.992 61.3333H13.008C9.50802 61.3333 6.66669 58.492 6.66669 54.992V29.3333C6.66669 27.8613 7.74802 26.6666 9.08002 26.6666C10.4107 26.6666 11.492 27.8613 11.492 29.3333V52.1946C11.492 54.2946 13.1974 56 15.2974 56H48.7027C50.8027 56 52.508 54.2946 52.508 52.1946V30.6666V29.3333V11.8053C52.508 9.70529 50.8027 7.99996 48.7027 7.99996H15.2974C13.1974 7.99996 11.492 9.70529 11.492 11.8053V18.6666C11.492 20.1386 10.4107 21.3333 9.08002 21.3333C7.74802 21.3333 6.66669 20.1386 6.66669 18.6666V9.00796C6.66669 5.50796 9.50802 2.66663 13.008 2.66663H50.992C54.3409 2.66663 57.3142 5.51384 57.3106 9.02463L57.2626 54.8794ZM17.4603 34.9114C11.6402 23.2743 5.82012 11.6371 17.4603 34.9114ZM35.536 43.1493L25.8374 37.488C24.6654 38.3946 23.196 38.9333 21.6 38.9333C17.7707 38.9333 14.6667 35.8293 14.6667 32C14.6667 28.1706 17.7707 25.0666 21.6 25.0666C23.196 25.0666 24.6654 25.6053 25.8374 26.512L35.536 20.8506C35.4907 20.5293 35.4667 20.2013 35.4667 19.8666C35.4667 16.0373 38.5707 12.9333 42.4 12.9333C46.2294 12.9333 49.3334 16.0373 49.3334 19.8666C49.3334 23.696 46.2294 26.8 42.4 26.8C40.8054 26.8 39.336 26.2613 38.164 25.356L28.4627 31.0106C28.5094 31.3333 28.5334 31.664 28.5334 32C28.5334 32.336 28.5094 32.6666 28.4627 32.9893L38.164 38.644C39.336 37.7386 40.8054 37.2 42.4 37.2C46.2294 37.2 49.3334 40.304 49.3334 44.1333C49.3334 47.9626 46.2294 51.0666 42.4 51.0666C38.5707 51.0666 35.4667 47.9626 35.4667 44.1333C35.4667 43.7986 35.4907 43.4706 35.536 43.1493Z" fill="#9FEF00"/>
</svg>
