<svg width="64" height="64" viewBox="0 0 64 64" fill="none" xmlns="http://www.w3.org/2000/svg">
<path fill-rule="evenodd" clip-rule="evenodd" d="M45.0026 2.76002C44.8066 2.69735 44.5986 2.66669 44.384 2.66669H12.5706C8.9413 2.66669 5.99463 5.61335 5.99463 9.24269V36.1907C5.99463 37.732 7.10396 38.984 8.47063 38.984C9.8373 38.984 10.948 37.732 10.948 36.1907V12.2C10.948 10.0214 12.716 8.25335 14.8933 8.25335H44.384C44.5986 8.25335 44.8066 8.22269 45.0026 8.16002C45.1986 8.22269 45.4066 8.25335 45.6226 8.25335H49.1066C51.284 8.25335 53.052 10.0214 53.052 12.2V16.6347C53.052 18.1774 54.1626 19.428 55.5293 19.428C56.896 19.428 58.0053 18.1774 58.0053 16.6347V9.24269C58.0053 5.61335 55.0586 2.66669 51.4293 2.66669H45.6226C45.4066 2.66669 45.1986 2.69735 45.0026 2.76002ZM18.3773 55.7467C19.7453 55.7467 20.8546 56.9974 20.8546 58.54C20.8546 60.0814 19.7453 61.3334 18.3773 61.3334H12.5706C8.9413 61.3334 5.99463 58.3867 5.99463 54.7574V47.3654C5.99463 45.8227 7.10396 44.572 8.47063 44.572C9.8373 44.572 10.948 45.8227 10.948 47.3654V51.8C10.948 53.9787 12.716 55.7467 14.8933 55.7467H18.3773ZM53.052 29.2067C53.052 27.664 54.1626 26.4134 55.5293 26.4134C56.896 26.4134 58.0053 27.664 58.0053 29.2067V54.7574C58.0053 58.3867 55.0586 61.3334 51.4293 61.3334H29.5226C28.156 61.3334 27.0466 60.0814 27.0466 58.54C27.0466 56.9974 28.156 55.7467 29.5226 55.7467H49.1066C51.284 55.7467 53.052 53.9787 53.052 51.8V29.2067ZM22.3893 40.3267C21.4973 41.256 20.2426 41.6094 19.708 41.308C19.132 40.9907 19.356 39.6214 20.4546 38.632C21.1213 38.032 21.9893 37.4774 22.5586 37.136C22.6866 37.06 22.88 36.9507 23.1106 36.8174C23.148 36.7947 23.172 36.7827 23.172 36.7827C23.2146 36.76 23.2626 36.7307 23.3106 36.7027C23.7173 38.112 23.3293 39.3494 22.3893 40.3254V40.3267ZM28.9093 36.1014C28.6 36.824 27.9453 38.6787 27.5506 38.5747C27.2106 38.488 27.0053 37.084 27.484 35.696C27.7266 34.9974 28.2413 34.1654 28.5453 33.8414C29.036 33.3214 29.5706 33.148 29.704 33.3614C29.8613 33.6387 29.1026 35.6507 28.9093 36.1014ZM34.2893 38.552C34.156 38.6147 34.0346 38.6627 33.98 38.6267C33.9373 38.6027 34.0346 38.5174 34.0346 38.5174C34.0346 38.5174 34.708 37.8294 34.9746 37.5107C35.1253 37.3267 35.308 37.112 35.5013 36.8694V36.9387C35.5013 37.7707 34.6653 38.3267 34.2893 38.552ZM38.4373 37.6507C38.34 37.5814 38.352 37.3667 38.68 36.696C38.8066 36.4307 39.0986 35.9854 39.6013 35.564C39.6626 35.7374 39.6986 35.904 39.6933 36.0614C39.6866 37.1014 38.9106 37.488 38.4373 37.6507ZM43.204 33.6387C42.1186 33.652 41.1786 33.8934 40.3906 34.264C40.0986 33.7147 39.808 33.2347 39.76 32.876C39.7053 32.46 39.6386 32.2054 39.7053 31.7094C39.772 31.212 40.0746 30.5067 40.0746 30.4494C40.0693 30.396 40.008 30.1427 39.384 30.1374C38.7586 30.1227 38.2186 30.252 38.1586 30.408C38.0973 30.564 37.976 30.9227 37.8973 31.2934C37.788 31.836 36.648 33.76 35.9986 34.772C35.7866 34.3787 35.6053 34.032 35.568 33.7547C35.5133 33.3387 35.4466 33.084 35.5133 32.5867C35.5813 32.0907 35.884 31.3854 35.884 31.328C35.8773 31.2747 35.8173 31.0214 35.192 31.016C34.568 31.0014 34.028 31.1307 33.968 31.2867C33.9066 31.4427 33.84 31.8134 33.7066 32.1707C33.5786 32.5294 32.0626 35.7427 31.6693 36.5814C31.468 37.0094 31.2933 37.3494 31.1653 37.5814C31.0373 37.812 31.16 37.5987 31.1466 37.6214C31.0373 37.8174 30.9773 37.928 30.9773 37.928V37.9414C30.892 38.0854 30.8013 38.224 30.7586 38.224C30.728 38.224 30.668 37.8374 30.7706 37.3054C30.996 36.1894 31.5413 34.4507 31.536 34.3867C31.536 34.3574 31.6386 34.052 31.184 33.8947C30.7413 33.7387 30.5826 33.9987 30.5466 33.9987C30.5106 33.9987 30.48 34.092 30.48 34.092C30.48 34.092 30.9706 32.132 29.54 32.132C28.6426 32.132 27.4053 33.0627 26.792 33.912C26.404 34.1147 25.58 34.5427 24.7066 34.9987C24.372 35.172 24.0266 35.3574 23.6986 35.5254L23.632 35.4547C21.8973 33.692 18.6893 32.444 18.8226 30.0747C18.872 29.2134 19.1866 26.9427 24.9853 24.1907C29.7346 21.9374 33.5373 22.556 34.1973 23.9307C35.1373 25.896 32.1666 29.548 27.2293 30.0747C25.3493 30.2774 24.36 29.5827 24.112 29.3227C23.8506 29.052 23.8146 29.04 23.7173 29.092C23.56 29.1734 23.6573 29.416 23.7173 29.56C23.8626 29.924 24.4693 30.572 25.5 30.8947C26.404 31.1787 28.612 31.3347 31.28 30.352C34.2706 29.248 36.6053 26.1854 35.92 23.624C35.2226 21.0174 30.6866 20.1627 26.3986 21.6134C23.8453 22.48 21.0786 23.832 19.0893 25.6067C16.724 27.7107 16.348 29.548 16.5066 30.312C17.0586 33.0334 20.9946 34.808 22.5706 36.12C22.492 36.16 22.42 36.2 22.3533 36.236C21.564 36.6054 18.5626 38.1027 17.8106 39.6854C16.9613 41.4774 17.944 42.7667 18.5986 42.94C20.624 43.4774 22.6986 42.512 23.82 40.9227C24.936 39.3334 24.8026 37.2707 24.288 36.328L24.2693 36.2934L24.888 35.9467C25.288 35.7214 25.6826 35.5134 26.028 35.3334C25.8346 35.836 25.6946 36.432 25.6213 37.2987C25.5373 38.316 25.9733 39.6334 26.5493 40.1534C26.804 40.3787 27.108 40.3854 27.296 40.3854C27.9626 40.3854 28.2666 39.8587 28.6 39.2294C29.012 38.46 29.376 37.5707 29.376 37.5707C29.376 37.5707 28.9213 39.98 30.164 39.98C30.62 39.98 31.0746 39.42 31.28 39.1307V39.144C31.28 39.144 31.2933 39.1267 31.3173 39.0867C31.3653 39.0174 31.3893 38.976 31.3893 38.976V38.9627C31.572 38.6614 31.9786 37.9734 32.584 36.836C33.3666 35.368 34.1186 33.5294 34.1186 33.5294C34.1186 33.5294 34.192 33.98 34.416 34.72C34.5493 35.16 34.8413 35.6387 35.0653 36.1067C34.8826 36.3494 34.7746 36.488 34.7746 36.488L34.78 36.5027C34.6346 36.6867 34.4706 36.884 34.3013 37.08C33.6826 37.7854 32.9426 38.588 32.8453 38.82C32.7306 39.0907 32.7546 39.2934 32.9786 39.4547C33.1426 39.5707 33.4333 39.5947 33.7426 39.5707C34.3013 39.536 34.6893 39.4027 34.8826 39.3227C35.1866 39.2187 35.532 39.0627 35.8653 38.8307C36.472 38.404 36.8426 37.7974 36.8053 36.988C36.788 36.5427 36.636 36.1027 36.448 35.6867C36.5026 35.6134 36.5573 35.5374 36.612 35.456C37.5693 34.1214 38.3093 32.6534 38.3093 32.6534C38.3093 32.6534 38.3826 33.104 38.6066 33.844C38.7226 34.2187 38.9533 34.6294 39.1586 35.0347C38.2613 35.7334 37.6973 36.5427 37.5026 37.0747C37.1453 38.0574 37.424 38.5014 37.952 38.6054C38.188 38.6534 38.528 38.548 38.7826 38.444C39.0986 38.3454 39.48 38.1787 39.832 37.9294C40.4386 37.5014 41.0213 36.9067 40.9906 36.1027C40.972 35.7334 40.8693 35.3694 40.7293 35.0227C41.4946 34.7227 42.4826 34.5494 43.7386 34.6934C46.4373 34.9934 46.9706 36.6 46.868 37.2707C46.764 37.9414 46.2 38.3107 46.012 38.4267C45.824 38.536 45.764 38.5774 45.7826 38.6574C45.8066 38.7787 45.8906 38.7734 46.0546 38.7507C46.28 38.716 47.4746 38.2014 47.5226 36.9654C47.596 35.376 46.012 33.6414 43.204 33.6587V33.6387Z" fill="#9FEF00"/>
</svg>
