<svg width="64" height="64" viewBox="0 0 64 64" fill="none" xmlns="http://www.w3.org/2000/svg">
<path fill-rule="evenodd" clip-rule="evenodd" d="M45.0027 2.75999C44.8067 2.69732 44.5987 2.66666 44.384 2.66666H12.5707C8.94136 2.66666 5.99469 5.61332 5.99469 9.24266V36.1907C5.99469 37.732 7.10402 38.984 8.47069 38.984C9.83736 38.984 10.948 37.732 10.948 36.1907V12.2C10.948 10.0213 12.716 8.25332 14.8934 8.25332H44.384C44.5987 8.25332 44.8067 8.22266 45.0027 8.15999C45.1987 8.22266 45.4067 8.25332 45.6227 8.25332H49.1067C51.284 8.25332 53.052 10.0213 53.052 12.2V16.6347C53.052 18.1773 54.1627 19.428 55.5294 19.428C56.896 19.428 58.0054 18.1773 58.0054 16.6347V9.24266C58.0054 5.61332 55.0587 2.66666 51.4294 2.66666H45.6227C45.4067 2.66666 45.1987 2.69732 45.0027 2.75999ZM18.3774 55.7467C19.7454 55.7467 20.8547 56.9973 20.8547 58.54C20.8547 60.0813 19.7454 61.3333 18.3774 61.3333H12.5707C8.94136 61.3333 5.99469 58.3867 5.99469 54.7573V47.3653C5.99469 45.8227 7.10402 44.572 8.47069 44.572C9.83736 44.572 10.948 45.8227 10.948 47.3653V51.8C10.948 53.9787 12.716 55.7467 14.8934 55.7467H18.3774ZM53.052 29.2067C53.052 27.664 54.1627 26.4133 55.5294 26.4133C56.896 26.4133 58.0054 27.664 58.0054 29.2067V54.7573C58.0054 58.3867 55.0587 61.3333 51.4294 61.3333H29.5227C28.156 61.3333 27.0467 60.0813 27.0467 58.54C27.0467 56.9973 28.156 55.7467 29.5227 55.7467H49.1067C51.284 55.7467 53.052 53.9787 53.052 51.8V29.2067ZM34.4174 26.5613C35.6254 26.5613 36.8334 26.5613 36.8334 28.3747C36.8334 30.1867 35.6254 30.1867 34.4174 30.1867H27.1667V26.5613H34.4174ZM21.124 37.4387H17.4987V41.064H30.792V37.4387H27.1667V33.8133H29.5827C33.208 33.8133 33.208 41.064 36.8334 41.064H42.876C46.5014 41.064 46.5014 33.8133 46.5014 33.8133H42.272C42.272 33.8133 42.876 37.4387 39.2507 37.4387C37.4387 37.4387 35.6254 33.8133 35.6254 33.8133H36.8334C39.2507 33.8133 41.668 31.396 41.668 28.3747C41.668 25.3533 39.2507 22.936 36.8334 22.936H17.4987V26.5613H21.124V37.4387Z" fill="#9FEF00"/>
</svg>
