<svg width="64" height="64" viewBox="0 0 64 64" fill="none" xmlns="http://www.w3.org/2000/svg">
<path fill-rule="evenodd" clip-rule="evenodd" d="M57.2626 54.8795C57.2588 58.5349 54.3409 61.3334 50.992 61.3334H13.008C9.508 61.3334 6.66666 58.492 6.66666 54.992V29.3334C6.66666 27.8614 7.748 26.6667 9.08 26.6667C10.4107 26.6667 11.492 27.8614 11.492 29.3334V52.1947C11.492 54.2947 13.1973 56 15.2973 56H48.7027C50.8027 56 52.508 54.2947 52.508 52.1947V30.6667V29.3334V11.8054C52.508 9.70535 50.8027 8.00002 48.7027 8.00002H15.2973C13.1973 8.00002 11.492 9.70535 11.492 11.8054V18.6667C11.492 20.1387 10.4107 21.3334 9.08 21.3334C7.748 21.3334 6.66666 20.1387 6.66666 18.6667V9.00802C6.66666 5.50802 9.508 2.66669 13.008 2.66669H50.992C54.3409 2.66669 57.3142 5.5139 57.3105 9.02469L57.2626 54.8795Z" fill="#9FEF00"/>
<path d="M33.0078 16.862C30.182 16.9657 27.3133 17.7321 25.0302 19.4514C22.5807 21.26 20.8936 23.991 20.1745 26.9337C19.531 29.5201 19.4478 32.2309 19.7687 34.8703C20.1248 37.8262 21.2571 40.7465 23.2994 42.9488C25.1649 45.0167 27.771 46.3329 30.4991 46.8114C32.8227 47.2197 35.2303 47.2034 37.5391 46.7057C39.5253 46.2635 41.4199 45.4334 43.1016 44.2891C43.1016 42.9149 43.1016 41.5408 43.1016 40.1667C41.0447 42.1114 38.3928 43.4778 35.5588 43.7724C33.2452 44.0092 30.8082 43.7696 28.7266 42.6693C26.6855 41.59 25.2284 39.6134 24.5317 37.4382C23.7285 35.0224 23.651 32.4298 23.8411 29.9115C24.0726 27.434 24.813 24.8913 26.5271 23.0215C28.0204 21.3226 30.2298 20.4017 32.4501 20.1765C33.9331 20.0182 35.4319 20.1064 36.9127 20.2478C38.3654 20.3882 39.7632 20.9698 40.895 21.8908C41.66 22.4862 42.3779 23.1362 43.1016 23.7813C43.1016 22.3941 43.1016 21.0069 43.1016 19.6198C41.3287 18.4249 39.3058 17.6099 37.217 17.1708C35.8339 16.8888 34.4159 16.8218 33.0078 16.862Z" fill="#141D2B"/>
</svg>
