<svg width="64" height="64" viewBox="0 0 64 64" fill="none" xmlns="http://www.w3.org/2000/svg">
<path d="M31.9013 49.4622C33.2887 49.4622 34.6299 49.3466 35.7964 49.1456C39.2496 48.5577 39.9895 48.3818 39.9895 46.1054V41.0804H31.4182V39.412H43.4016C45.7705 39.412 47.3173 38 47.9596 35.387C48.7047 32.382 48.7407 30.4976 47.9596 27.377C47.3789 25.0404 45.7705 22.6635 43.4016 22.6635H41.6956V27.6886C41.6956 30.2815 39.3061 32.7136 36.5569 32.7136H27.9856C25.7194 32.7136 24.553 33.8543 24.553 36.0503V44.4321C24.553 46.5728 25.4574 48.7888 27.6619 49.1456C29.0493 49.3617 30.4984 49.4622 31.9013 49.4622ZM34.8303 46.1054C33.8848 46.1054 33.1243 45.3617 33.1243 44.4371C33.1243 43.5125 33.8848 42.7688 34.8303 42.7688C35.7964 42.7688 36.5569 43.5125 36.5569 44.4371C36.5569 45.3617 35.7964 46.1054 34.8303 46.1054ZM32.6207 14.2867C31.2332 14.2867 29.892 14.4023 28.7256 14.6033C25.2724 15.1912 24.5324 15.3671 24.5324 17.6435V22.6685H33.1037V24.3368H21.1203C18.7514 24.3368 17.2047 25.7489 16.5623 28.3619C15.8172 31.3669 15.7813 33.2513 16.5623 36.3719C17.143 38.7085 18.7514 41.0854 21.1203 41.0854H22.8264V36.0603C22.8264 33.4674 25.2159 31.0353 27.965 31.0353H36.5363C38.8025 31.0353 39.969 29.8946 39.969 27.6986V19.3168C39.969 17.1761 39.0646 14.9601 36.8601 14.6033C35.4726 14.3872 34.0287 14.2867 32.6258 14.2867H32.6207ZM29.6916 17.6435C30.6372 17.6435 31.3977 18.3872 31.3977 19.3118C31.3977 20.2364 30.6372 20.9801 29.6916 20.9801C28.7256 20.9801 27.965 20.2364 27.965 19.3118C27.965 18.3872 28.7256 17.6435 29.6916 17.6435ZM57.2618 54.8797C57.258 58.5352 54.3401 61.3334 50.9911 61.3334H13.0076C9.50767 61.3334 6.6665 58.4921 6.6665 54.9923V29.3333C6.6665 27.8613 7.74783 26.6666 9.07983 26.6666C10.4105 26.6666 11.4918 27.8613 11.4918 29.3333V52.1948C11.4918 54.2948 13.1971 56.0001 15.2971 56.0001H48.702C50.802 56.0001 52.5073 54.2948 52.5073 52.1948V11.8053C52.5073 9.70531 50.802 8 48.702 8H15.2971C13.1971 8 11.4918 9.70536 11.4918 11.8053V18.6666C11.4918 20.1386 10.4105 21.3332 9.07983 21.3332C7.74783 21.3332 6.6665 20.1386 6.6665 18.6666V9.00788C6.6665 5.50787 9.50783 2.66675 13.0076 2.66675H50.9911C54.34 2.66675 57.3132 5.51395 57.3096 9.02497L57.2618 54.8797Z" fill="#141D2B"/>
</svg>
