<svg width="64" height="64" viewBox="0 0 64 64" fill="none" xmlns="http://www.w3.org/2000/svg">
<path fill-rule="evenodd" clip-rule="evenodd" d="M45.0027 2.76002C44.8067 2.69735 44.5987 2.66669 44.384 2.66669H12.5707C8.94133 2.66669 5.99466 5.61335 5.99466 9.24269V36.1907C5.99466 37.732 7.10399 38.984 8.47066 38.984C9.83733 38.984 10.948 37.732 10.948 36.1907V12.2C10.948 10.0214 12.716 8.25335 14.8933 8.25335H44.384C44.5987 8.25335 44.8067 8.22269 45.0027 8.16002C45.1987 8.22269 45.4067 8.25335 45.6227 8.25335H49.1067C51.284 8.25335 53.052 10.0214 53.052 12.2V16.6347C53.052 18.1774 54.1627 19.428 55.5293 19.428C56.896 19.428 58.0053 18.1774 58.0053 16.6347V9.24269C58.0053 5.61335 55.0587 2.66669 51.4293 2.66669H45.6227C45.4067 2.66669 45.1987 2.69735 45.0027 2.76002ZM18.3773 55.7467C19.7453 55.7467 20.8547 56.9974 20.8547 58.54C20.8547 60.0814 19.7453 61.3334 18.3773 61.3334H12.5707C8.94133 61.3334 5.99466 58.3867 5.99466 54.7574V47.3654C5.99466 45.8227 7.10399 44.572 8.47066 44.572C9.83733 44.572 10.948 45.8227 10.948 47.3654V51.8C10.948 53.9787 12.716 55.7467 14.8933 55.7467H18.3773ZM53.052 29.2067C53.052 27.664 54.1627 26.4134 55.5293 26.4134C56.896 26.4134 58.0053 27.664 58.0053 29.2067V54.7574C58.0053 58.3867 55.0587 61.3334 51.4293 61.3334H29.5227C28.156 61.3334 27.0467 60.0814 27.0467 58.54C27.0467 56.9974 28.156 55.7467 29.5227 55.7467H49.1067C51.284 55.7467 53.052 53.9787 53.052 51.8V29.2067ZM21.6253 19.4214V45.02H26.056C26.072 41.684 26.0213 38.3467 26.0867 35.012C26.196 33.4454 26.2827 31.4494 27.776 30.592C28.5973 30.12 29.6973 30.0054 30.6027 30.2987C31.928 30.7294 32.1507 32.4387 32.208 33.6694C32.2293 37.4534 32.2107 41.236 32.2173 45.02H36.6307C36.6213 40.768 36.664 36.472 36.6307 32.22C36.5853 30.084 35.7107 27.7454 33.6667 26.7694C31.92 25.9374 29.852 26.1854 28.0787 26.8574C27.2427 27.1747 26.088 28.7174 26.088 28.7174C26.0773 25.6187 26.0667 22.52 26.056 19.4214H21.6253ZM31.7827 18.98V21.628H29.1347V22.5107H31.7827V25.1587H32.6653V22.5107H35.3133V21.628H32.6653V18.98H31.7827ZM38.844 18.98V21.628H36.196V22.5107H38.844V25.1587H39.7267V22.5107H42.3747V21.628H39.7267V18.98H38.844Z" fill="#9FEF00"/>
</svg>
