<svg width="64" height="64" viewBox="0 0 64 64" fill="none" xmlns="http://www.w3.org/2000/svg">
<path fill-rule="evenodd" clip-rule="evenodd" d="M57.2626 54.8794C57.2588 58.5349 54.3409 61.3333 50.992 61.3333H13.008C9.50802 61.3333 6.66669 58.492 6.66669 54.992V29.3333C6.66669 27.8613 7.74802 26.6667 9.08002 26.6667C10.4107 26.6667 11.492 27.8613 11.492 29.3333V52.1947C11.492 54.2947 13.1974 56 15.2974 56H48.7027C50.8027 56 52.508 54.2947 52.508 52.1947V30.6667V29.3333V11.8053C52.508 9.70532 50.8027 7.99999 48.7027 7.99999H15.2974C13.1974 7.99999 11.492 9.70532 11.492 11.8053V18.6667C11.492 20.1387 10.4107 21.3333 9.08002 21.3333C7.74802 21.3333 6.66669 20.1387 6.66669 18.6667V9.00799C6.66669 5.50799 9.50802 2.66666 13.008 2.66666H50.992C54.3409 2.66666 57.3142 5.51387 57.3106 9.02466L57.2626 54.8794Z" fill="#141D2B"/>
<path fill-rule="evenodd" clip-rule="evenodd" d="M26.722 41.7766C26.722 41.7766 25.1442 42.5126 27.8434 42.7727C31.1294 43.077 32.7854 43.0327 36.3974 42.4683C36.3974 42.4683 37.3427 42.9663 38.6663 43.3759C30.5947 46.165 20.3782 43.2043 26.722 41.7766Z" fill="#9FEF00"/>
<path fill-rule="evenodd" clip-rule="evenodd" d="M25.7571 38.1408C25.7571 38.1408 23.9772 39.1977 26.6764 39.4136C30.1645 39.7179 32.9419 39.7401 37.7014 38.9819C37.7014 38.9819 38.3664 39.5242 39.4096 39.8231C29.6299 42.1141 18.7548 39.9946 25.7571 38.1352" fill="#9FEF00"/>
<path fill-rule="evenodd" clip-rule="evenodd" d="M34.0568 31.9815C36.0454 33.8188 33.5483 35.4845 33.5483 35.4845C33.5483 35.4845 38.5881 33.3871 36.2735 30.753C34.109 28.3125 32.4529 27.0785 41.4438 22.8838C41.4438 22.8838 27.3088 25.7171 34.0568 31.9871" fill="#9FEF00"/>
<path fill-rule="evenodd" clip-rule="evenodd" d="M44.7558 44.4771C44.7558 44.4771 45.9033 45.2352 43.4584 45.8384C38.7967 46.9839 24.0488 47.3326 19.974 45.8827C18.494 45.3625 21.2453 44.6486 22.1125 44.4992C23.0318 44.3498 23.5403 44.3719 23.5403 44.3719C21.9103 43.4422 12.9717 46.2092 19.009 46.9895C35.4585 49.1532 49.0133 46.01 44.7558 44.4771Z" fill="#9FEF00"/>
<path fill-rule="evenodd" clip-rule="evenodd" d="M27.4848 34.3832C27.4848 34.3832 20.0001 35.811 24.8378 36.3312C26.8785 36.547 30.9534 36.5027 34.7479 36.2426C37.8579 36.0268 40.9613 35.5951 40.9613 35.5951C40.9613 35.5951 39.866 35.9604 39.0771 36.3976C31.4619 38.019 16.7662 37.2609 20.9976 35.6173C24.59 34.2117 27.4848 34.3832 27.4848 34.3832Z" fill="#9FEF00"/>
<path fill-rule="evenodd" clip-rule="evenodd" d="M40.9352 40.4318C48.6807 37.1889 45.1144 34.0789 42.6173 34.4884C42.0044 34.599 41.7241 34.6821 41.7241 34.6821C41.7241 34.6821 41.9523 34.3998 42.3891 34.2725C47.3311 32.8891 51.1257 38.4008 40.7852 40.5867C40.7852 40.5867 40.9156 40.4982 40.9352 40.4373" fill="#9FEF00"/>
<path fill-rule="evenodd" clip-rule="evenodd" d="M36.2735 16.0936C36.2735 16.0936 40.5505 19.5523 32.1986 24.8483C25.5028 29.1094 30.673 31.5499 32.1986 34.3168C28.2998 31.4835 25.4245 28.9766 27.3609 26.6413C30.1905 23.249 38.0078 21.5833 36.2735 16.0936Z" fill="#9FEF00"/>
<path fill-rule="evenodd" clip-rule="evenodd" d="M28.2476 49.2086C35.6867 49.5739 47.0964 48.9928 47.3507 46.1594C47.3507 46.1594 46.8421 47.2164 41.2155 48.0852C34.8717 49.0371 27.0545 48.9264 22.4189 48.3232C22.4189 48.3232 23.3577 48.9485 28.2476 49.2086Z" fill="#9FEF00"/>
</svg>
