<?xml version="1.0" encoding="UTF-8" standalone="no"?>
<svg
   xmlns:dc="http://purl.org/dc/elements/1.1/"
   xmlns:cc="http://creativecommons.org/ns#"
   xmlns:rdf="http://www.w3.org/1999/02/22-rdf-syntax-ns#"
   xmlns:svg="http://www.w3.org/2000/svg"
   xmlns="http://www.w3.org/2000/svg"
   xmlns:sodipodi="http://sodipodi.sourceforge.net/DTD/sodipodi-0.dtd"
   xmlns:inkscape="http://www.inkscape.org/namespaces/inkscape"
   width="38.1001mm"
   height="63.5001mm"
   viewBox="0 0 450 750"
   version="1.1"
   id="svg23"
   sodipodi:docname="aboutkde.svg"
   inkscape:version="0.92.3 (2405546, 2018-03-11)"
   enable-background="new">
  <metadata
     id="metadata29">
    <rdf:RDF>
      <cc:Work
         rdf:about="">
        <dc:format>image/svg+xml</dc:format>
        <dc:type
           rdf:resource="http://purl.org/dc/dcmitype/StillImage" />
        <dc:title />
      </cc:Work>
    </rdf:RDF>
  </metadata>
  <defs
     id="defs27" />
  <sodipodi:namedview
     pagecolor="#ffffff"
     bordercolor="#666666"
     borderopacity="1"
     objecttolerance="10"
     gridtolerance="10"
     guidetolerance="10"
     inkscape:pageopacity="0"
     inkscape:pageshadow="2"
     inkscape:window-width="1920"
     inkscape:window-height="995"
     id="namedview25"
     showgrid="false"
     inkscape:zoom="3.299389"
     inkscape:cx="-38.44458"
     inkscape:cy="121.6557"
     inkscape:window-x="0"
     inkscape:window-y="0"
     inkscape:window-maximized="1"
     inkscape:current-layer="svg23"
     showguides="true"
     inkscape:guide-bbox="true" />
  <g
     inkscape:groupmode="layer"
     id="layer1"
     inkscape:label="Vector">
    <path
       style="fill:#92211b;fill-opacity:1;stroke:none;stroke-width:1"
       id="Sel#15"
       d="m 346,321 -54.105,32.297 c -7.52,4.88 -25.631,18.021 -30.731,24.651 -4.93,6.41 -7.416,18.807 -10.206,26.867 l -7.261,18.847 c -1.03,5.01 10.158,6.722 13.878,8.042 6.64,2.36 24.385,4.136 31.425,3.836 7.26,-0.3 9,-4.62 13.29,-9.54 6.03,-6.93 18.2,-17.6 26.71,-21.07 2.74,-1.12 8.96,-3.39 11.66,-1.87 3.51,1.98 4.36,9.24 5.34,12.94 6.07,-1.94 17.09,-10.53 23,-14.48 9.61,-6.43 22.34,-11.95 34,-12.52 -3.37,-4.74 -12.91,-7.97 -18,-11.6 L 372,367.15 C 359.94,358.31 344.08,351.7 329,351 l 13.35,-20 c 1.79,-3.15 4.08,-6.32 3.65,-10 z"
       inkscape:connector-curvature="0"
       sodipodi:nodetypes="cccccccccccccccccc" />
    <path
       style="fill:#b8b8b8;fill-opacity:1;stroke:none;stroke-width:1"
       d="m 361.9998,610.0031 c -9.7,0 -19.3282,0.4281 -28.9969,0.9969 l -17,1 c -47.0181,2.7656 -71.8244,4.3563 -81.8078,4.2094 -5.2163,-0.094 -14.2885,0.45 -19.1928,0.7031 -24.2313,1.25 -24.5469,0.6656 -36.0047,1.0875 -13.99,0.5156 -34.666,0 -41.9985,0 -12.7296,0.031 -22.2865,0.125 -34.9975,0.55 -23.33715,0.7812 -30.70215,1.1531 -57.1409,2.85 -3.66781,0.2187 -15.96856,2.2375 -16.32091,6.6094 -0.38765,4.8094 9.93841,6.6343 13.45841,6.9937 5.02969,0.5125 7.30969,1.4063 11.00437,1.825 5.97282,0.675 11.98875,1.1594 17.99938,1.0938 2.34156,0 7.00062,-0.5813 7.00062,-0.5813 C 89.9657,638.4625 102.001,638 114.0013,638 c 8.3788,0 16.7069,-0.062 25,0.9594 21.1466,2.625 37.8432,2.825 63.0003,6.75 9.3263,1.4562 18.9385,2.0062 27.9969,4.8812 12.0016,3.8063 27.986,11.3188 39.0016,17.4563 l 22.0031,12.2625 c 11.1219,6.1969 30.1028,7.9343 34.1903,-5.85 0.475,-1.5938 1.1938,-5.5938 1.3031,-7.6438 0.6782,-12.675 0.062,-7.2406 0.5063,-16.8156 9.5687,-12.3594 20.2,-11.9688 33.9969,-15.5094 8.9375,-2.2937 18.0218,-3.85 27,-5.9187 7.0218,-1.6157 13.9781,-3.4656 21.0031,-5.0625 7.0594,-1.4782 16.1594,-1.2969 20,-8.5063 -6.2781,-3.2 -21.7031,-5 -29.0031,-5 z"
       id="Sel#20"
       inkscape:connector-curvature="0"
       sodipodi:nodetypes="ssssssssssssscsssssssscssccss" />
    <path
       style="fill:#49801d;fill-opacity:1;stroke:none;stroke-width:1"
       d="m 402.6435,138.0187 c -1.25,-0.031 -2.475,0.031 -3.6437,0.1532 -3.7313,0.4 -10.6063,2.6569 -13.9969,4.2968 -15.6,7.52 -24.8406,22.5597 -33.8625,36.5297 -5.2,8.05 -11.0125,16.881 -14.1406,26.001 h -1.9969 c 0,0 -4.8375,-10.2503 -7.9531,-14.9597 -1.8594,-2.8069 -7.475,-7.4747 -7.475,-7.4747 -3.1,-2.045 -11.7216,-4.1356 -18.4497,-1.3091 -15.2563,6.4091 -4.7794,23.6841 -6.4172,36.7444 -1.4022,11.1797 -6.6841,16.1306 -10.0028,25.7388 l -3.6322,10.515 c -2.6272,7.6053 -13.1247,23.9575 -20.0747,27.7475 0,0 0.9359,-8.6597 0.8241,-13.0003 -0.1641,-6.3744 -1.0241,-12.7335 -2.1913,-19.0013 -1.3237,-7.1094 -6.7031,-22.2681 -6.7031,-22.2681 -6.305,-24.6931 -15.2947,-22.9628 -23.2841,-29.806 -2.7475,-2.3534 -6.7822,-4.9397 -9.6428,-6.6784 -6.5994,-4.0112 -18.6641,-9.0281 -26.0009,-10.8762 -7.9257,-1.9966 -16.2238,-3.1663 -21.0022,-3.3694 -15.7994,-0.6713 -28.3822,2.3084 -36.9997,3.5097 -9.6225,1.3412 -10.3019,2.9622 -27.9234,8.3556 -22.07504,6.7566 -34.95785,22.8822 -45.2016,31.8328 -10.24375,8.9506 -13.14156,13.2475 -17.91344,19.3025 -5.72125,7.2591 -14.07606,21.5894 -18.4875,29.9988 -9.49022,18.0906 -14.56612,39.6549 -14.473,59.9987 0.0969,21.1594 7.71113,46.6781 23.16894,61.7125 6.74219,6.5562 16.20875,12.05 24.82906,15.7094 7.34969,3.1187 17.22719,6.275 25.19719,6.925 7.28906,0.8562 7.91656,7.7593 7.89656,13.0593 -0.0312,3.6094 -6.09156,10.5594 -13.0925,11.5938 -5.05,1.6625 -7.39937,2.0219 -11.99937,5.0437 -4.03,2.65 -12.70844,9.2688 -16.99844,10.3375 -3.47,1.0625 -6.84719,-0.7968 -9.98594,-0.4218 -4.49531,0.5375 -4.42156,1.8468 -5.83594,2.5343 -2.43875,-0.8312 -6.70315,-0.4593 -8.15881,0.25 -1.71987,0.8313 -3.18856,1.8063 -4.27856,3.375 -1.41,2.0219 -1.78353,4.4657 -1.62353,6.8844 0.68,10.2313 11.69903,14.0625 19.87903,17.2625 1.88,0.7281 5.32437,1.75 6.85437,2.8188 6.85,4.7812 -3.78156,11.775 2.03844,19.7156 4.09,5.5687 9.7725,4.2437 15.1125,1.825 10.41,-4.7094 19.86969,-12.45 30.99969,-15.6188 -3.11,14.0094 -11.45406,22.0813 -16.86406,34.0032 -5.73,12.6281 -12.15563,31.5093 -15.54563,45 l -6.23156,25.9937 c -3.05,12.4031 -9.82188,14.1031 -9.00875,24.5563 0.39719,5.1093 1.87937,9.4843 11.59969,10.0218 6.27687,0.3469 15.23125,-1.5937 23.0775,-5.0718 7.54218,-3.3563 10.58375,-4.475 20.47996,-10.5532 10.0966,-6.2156 13.0666,-8.4031 22.3107,-16.5437 2.3743,-2.0906 9.9656,-9.2094 14.1646,-13.3 7.951,3.5187 16.1707,5.5562 25.0179,8.3031 9.3046,2.8906 26.4484,5.5813 35.9984,5.5906 3.64,0 15.4097,0.475 18.9825,0.4407 4.3688,4.4875 8.9712,9.8 12.5791,13.1593 l 22.4984,20.9344 c 18.7037,15.5719 13.6913,12.2719 22.4109,22.0781 7.8957,12.2188 9.3382,13.9157 16.8091,21.4219 9.27,3.4781 22.6816,6.1781 28.3691,-4.3625 1.6906,-3.1219 2.8812,-9.0437 3.2281,-13.2593 0.3469,-4.2188 -0.125,-8.2094 -1.6844,-17.3688 -1.5531,-9.1562 -4.6781,-15.7719 -9.9,-31.8437 -2.0519,-6.3282 -4.5328,-15.5375 -6.4628,-21.1969 -0.77,-2.2688 -2.8766,-6.9406 -3.3387,-9.4188 2.6368,-2.2031 8.1609,-5.8968 10.5109,-7.8656 6.4406,-5.4219 12.3312,-11.3781 17.8406,-17.7187 21.7688,-25.05 26.25,-52.9782 52.1594,-70.4782 13.8312,-9.3406 21.3906,-9.2937 37,-12.4312 6.1094,-1.2313 16.9062,-4.2719 19.9781,-10.1344 5.8688,-11.2187 -16.1719,-20.225 -23.9812,-22.9531 -47.5188,-23.3844 -89.6532,-12.4188 -138.4713,21.2406 -4.81,4.8188 -20.6869,10.2469 -27.5269,9.5562 -3.33,-0.3281 -6.7165,-0.8281 -8.599,-3.6437 -3.1019,-4.6375 -5.1097,-9.5031 -5.3597,-15.1531 -0.1906,-4.3 0.79,-10.825 1.88,-15.0032 0.6,-2.2906 2.9297,-8.1187 3.8269,-10.4812 9.5678,-23.675 12.2068,-38.75 16.4306,-45.0438 8.8747,-10.5812 18.35,-16.6843 28.0884,-25.1281 3.826,-3.275 57.7341,-32.9187 60.9435,-36.1375 l 12.7875,-9.6687 c 9.2187,-7.59 25.5406,-25.2516 29.4625,-36.5416 2.0593,-5.93 2.6781,-11.9494 3.9156,-17.9994 l 2.3625,-8.0015 c 1.7125,-9.94 1.8219,-24.0466 0,-33.9966 -0.7875,-4.84 -3.7938,-9.309 -7.0438,-12.9091 -2.1781,-2.42 -5.7687,-4.4393 -4.5281,-8.0993 1,-2.97 5.5625,-6.8919 7.8438,-9.0819 l 19.4093,-18.03 c 4.25,-3.89 8.8282,-7.5294 8.4594,-13.8794 -0.5687,-9.8087 -10.5,-13.8069 -19.2375,-13.9831 z"
       id="Selection"
       inkscape:connector-curvature="0"
       sodipodi:nodetypes="ccccccssssssccccsssssszssssscccccscsccccccccccssccsccccscccccccccccccccccscccccccccccccccccc" />
    <path
       style="fill:#86d23a;fill-opacity:1;stroke:none;stroke-width:1"
       d="m 345,204 c 0,0 16,-7.23 16,-7.23 0,0 13.83,-2.79 13.83,-2.79 2.68,-1.49 9.03,-10.08 11.6,-12.94 4.26,-4.75 9.77,-8.15 14.57,-12.33 4.44,-3.86 21.03,-16.3 9.95,-21.49 -1.19,-0.55 -2.67,-0.91 -3.95,-1.2 0,0 -6,-0.93 -6,-0.93 -9.8,-0.56 -18.34,5.29 -24.99,11.92 C 365.42,167.6 350.97,190.15 345,204 Z"
       id="path1039"
       inkscape:connector-curvature="0" />
    <path
       style="fill:#86d23a;fill-opacity:1;stroke:none;stroke-width:1"
       d="M 135,508 107.781,483.438 98.19,505 c -1.5782,3.548 -16.943,30.755 -19.77,40 0,0 -6.1106,17.207 -8.54,26 -1.8201,6.587 -3.2565,14.949 -4.51,20 -1.02,4.11 -3.1038,11.227 -4.33,15 -1.8139,5.581 -16.175,19.393 0,20.8 1.6001,0.139 3.31,0.21 4.96,0 15.04,-0.82 39.51,-16.41 51,-25.88 3.81,-3.14 12.37,-9.67 12.5,-14.92 0.09,-3.83 -3.99,-7.33 -6.33,-10 -5.077,-4.521 -9.406,-12.097 -11.17,-19 4.608,6.157 9.456,11.768 15,16.24 17.21,12.79 51.58,21.509 73,21.76 5.03,0.06 10.13,0.38 15,-1 -4.31,-10.01 -11.05,-21.21 -13,-32 l 10.46,18 c 5.27,8.65 16.434,23.954 23.63,30.99 14.577,14.253 28.237,23.541 44.45,42.01 5.469,6.23 11.54,18.1 18.46,21.86 5.57,3.04 13.89,3.13 18.2,-2.07 7.32,-8.84 1.8,-30.73 -1.55,-40.79 -4.299,-12.91 -7.463,-21.321 -11.14,-32 -1.949,-5.66 -5.79,-17 -5.79,-17 l -20.09,-46.923 c 6.24,6.431 14.735,23.757 22.37,37.923 19.74,-7.55 38.18,-33.06 48.14,-51 5.64,-10.15 11.22,-22.41 19.15,-30.91 14.74,-15.8 26.97,-18.51 46.71,-22.97 5.26,-1.19 19.51,-2.38 21.34,-8.22 1.44,-4.55 -4.09,-7.78 -7.34,-9.59 -11.96,-6.64 -17.13,-7.62 -30,-10.84 l -19,-5.16 -10,0.68 c -11.59,0.28 -18.86,1.95 -30,4.19 -1.98,0.4 -4.13,0.38 -6,1.13 l -8,4.79 -32,17.5 c -10.604,5.799 -15.624,8.687 -24.504,12.355 C 261.096,479.424 257.76,477 249,477 l 7,19 c -5.46,-6.46 -20.005,-27.541 -22.48,-35.032 -4.659,-14.104 0.344,-25.617 4.874,-39.142 4.8,-13.333 9.093,-26.668 14.676,-38.826 1.638,-3.568 8.18,-10.77 11.1,-13.58 17.34,-16.63 46.75,-34.02 67.83,-46.41 18.95,-11.13 40.31,-25.18 51.1,-45.01 4.64,-8.53 4.58,-14.14 6.56,-23 2.07,-9.24 3.32,-9.64 3.34,-20 0.02,-10.07 -1.42,-24.68 -10.18,-31.3 -10.72,-8.09 -35.17,-0.63 -42.47,17.3 -1.77,4.34 -1.35,8.41 -1.35,13 4.72,-2.71 5.41,-6.617 9.25,-9.747 1.92,-1.57 4.451,-2.161 6.75,-3.023 9.621,-3.608 14.65,-2.94 24,0.66 -3.21,0.42 -3.98,0.08 -7,0 -3.51,-0.33 -6.63,0.37 -10,1.26 -9.523,1.786 -15.982,6.289 -19.842,17.868 -1.865,5.596 -0.426,10.183 0.369,15.982 3.918,-3.446 6.672,-7.506 10.643,-9.29 7.67,-5.35 12.61,-3.85 20.83,-1.71 -4.61,1.41 -9.6,1.62 -14,3.65 -8.74,4.03 -15.68,12.38 -14.91,22.35 0.21,2.64 0.84,5.55 2.61,7.61 2.47,2.87 8.72,4.9 11.28,1.08 2.118,-2.961 1.645,-7.993 1.582,-10.427 1.581,0.03 1.971,0.602 3.376,6.238 0.68,2.728 4.143,4.283 6.08,5.972 -2.531,-0.365 -5.974,-0.704 -6.399,-0.471 -3.352,1.839 -5.919,7.123 -12.016,5.315 -1.96,-0.55 -5.442,-3.015 -7.022,-4.285 -3.125,-2.272 -4.017,-5.945 -4.399,-7.993 -1.299,-6.968 0.559,-10.511 0.294,-12.495 -0.133,-0.988 -3.767,-5.701 -4.332,-10.778 -0.59,-5.303 -0.39,-17.065 -0.39,-17.065 -1.101,3.367 -1.191,8.59 -3.206,11.292 0.394,2.878 -4.912,7.527 -7.337,12.199 l 8.045,-39.772 C 331.595,212.301 326.67,204.022 327.79,202 325.1,195.44 318.47,187.44 311,186.38 302.15,185.11 299.96,193 299.51,200 c -0.38,5.96 2.61,10.02 2.17,16 -0.412,11.874 -3.168,14.612 -10.87,32 l -6.106,18.087 C 283.612,269.32 270.027,282.392 265.17,288 l -26.34,32 -11.82,11.04 -16.97,19.96 c -6.21,8.81 -9.708,22.917 -12.505,27.974 -5.334,9.646 -12.975,25.721 -18.708,38.147 -3.283,7.115 -6.692,14.17 -9.956,21.293 -6.482,14.146 -12.199,28.65 -19.121,42.586 -4.562,9.185 -14.75,27 -14.75,27 z"
       id="path1037"
       inkscape:connector-curvature="0"
       sodipodi:nodetypes="ccssssssccccccscccssccssccccccccccccccssccscscccccccccscccsccccccccscsccssscccccccccsccccssssc" />
    <path
       style="fill:#5bc223;fill-opacity:1;stroke:none;stroke-width:1"
       d="m 60,455 c 0,0 3,2 3,2 -9.75,3.74 -11.9,3 -22,3 0,0 14,7 14,7 -9.99,2.42 -16.9,-2.36 -26,-6 -7.73,16.72 17.33,15.85 25.84,23.55 6.8,6.16 -4.81,13.77 1.48,18.58 4.57,3.49 9.95,-2.32 13.68,-4.69 9.61,-6.1 27.43,-10.28 31,-22.44 -5.99,-4.28 -18.94,-15.75 -20.57,-23 -0.61,-2.71 0.2,-6.22 0.57,-9 -7.38,1.41 -6.45,3.18 -12.04,6.73 -2.8,1.78 -5.94,2.92 -8.96,4.27 z"
       id="path1035"
       inkscape:connector-curvature="0" />
    <path
       style="fill:#a5de6b;fill-opacity:1;stroke:none;stroke-width:1"
       d="M 198.7057,376.9344 C 183.1185,403.6281 104.3735,514.5063 112.0001,557 c 4.7,5.4188 9.2015,11.9219 15.0015,16.2437 17.21,12.7875 51.5782,21.5063 72.9982,21.7563 5.03,0.062 10.1325,0.3813 15.0025,-1 -4.31,-10.0094 -11.0507,-21.2094 -13.0007,-32 -16.6009,-13.6094 -18.9472,-59.425 -19.2768,-95.5313 -0.4822,-52.8593 9.5209,-50.975 15.9809,-89.5343 z"
       id="path1056"
       inkscape:connector-curvature="0"
       sodipodi:nodetypes="ccccccsc" />
    <path
       style="fill:#905f15;fill-opacity:1;stroke:none;stroke-width:1"
       d="m 358.0029,63.00063 c -13.6625,3.11 -24.6,10.52218 -36,18.26156 -6.7188,4.56062 -13.6966,8.02781 -18.5425,14.74 l -15.8813,21.99721 c -2.8843,3.9953 -5.6759,7.6672 -9.1328,12.919 l -0.25,-10.789 c -0.5,-3.38 -3.535,-3.2072 -6.195,-2.3072 -3.78,1.27 -9.6184,5.3712 -13.0003,7.6784 -5.8381,3.9828 -13.2103,9.3966 -15.3503,16.4978 -0.9413,3.08 -0.2906,8.6188 -0.6531,11.9994 l -1.8313,17.0044 c -0.6359,5.9053 -0.3862,11.6584 -3.4362,16.9984 -1.25,2.19 -5.7575,8.916 -8.0275,9.906 13.5287,13.0015 15.1425,16.4468 23.2237,29.8253 0,0 10.3194,-11.2419 13.6097,-17.7344 1.9938,-3.9341 2.4859,-11.4609 2.4859,-11.4609 0,0 5.2613,-8.2169 8.2807,-12.0154 2.1825,-2.7453 7.2387,-9.4996 7.2387,-9.4996 l 16.4578,2.9771 c 7.3753,1.8529 14.21,1.4925 19.0007,1.001 8.4906,-0.8713 25.5031,-11.2488 33.0031,-16.0888 2.4687,-1.59 9.6781,-5.8487 7.2562,-9.4787 -2,-2.99 -10.3531,-2.9303 -13.9593,-3.4522 -7.725,-1.1178 -11.9125,-1.9716 -18.0063,-2.6306 -7.3812,-0.7982 -12.6812,-2.3263 -20.2937,-2.3463 1.87,-7.64 7.8468,-13.6775 12.2625,-20.0012 l 27.2406,-39.00127 c 2.3687,-3.39344 10.425,-16.65126 11.0344,-20.00125 0.3906,-2.13 0,-3.03875 -0.5344,-4.99875 z M 64.05914,167.2912 c -2.02532,0.3032 -1.06563,10.6935 -1.045,14.7479 l 0.14062,27.735 0.28125,10.5046 c 3.5625,-2.9856 6.28563,-6.5725 18.76156,-15.0075 17.65625,-11.9371 24.07753,-15.0828 25.67903,-16.1075 0.5619,-0.3593 -1.1253,-5.4962 -1.7518,-5.68 -1.0494,-0.2562 -5.7563,-0.4634 -8.12629,-0.4834 0.05,-1.9253 0.36313,-3.8466 -0.19375,-4.1806 -3.03344,-1.82 -19.63375,-8.6385 -23.80375,-9.9185 -3.81687,-1.5028 -7.76875,-1.9362 -9.94094,-1.61 z"
       id="path1011"
       inkscape:connector-curvature="0"
       sodipodi:nodetypes="cssscccscsscccscsccsccsscsscccsccssccscsc" />
    <path
       id="Sel#3"
       d="m 157,183.42 c -16.87,2.55 -32.22,4.78 -48,11.89 C 72.68,211.69 44.3,242.61 28.72,279 23.88,290.3 18.02,309.81 18,322 v 11 c 0.03,17.03 6.52,39.28 18.18,51.96 4.17,4.54 10.49,8.91 15.82,12.03 6.44,3.77 9.86,5.34 17,7.43 4.77,1.41 13.4047,3.603 18.4017,4.18 4.4719,0.515 5.6261,1.185 9.5261,-1.655 L 136,378.19 l 19.96,-12.2 11.04,-6.74 26,-12.06 c 5.73,-3.75 6.79,-8.38 18,-16.44 l 20.58,-11.53 c 2.51,-1.89 5.74,-5.78 7.84,-8.22 2.51,-2.91 5.28,-5.66 7.22,-9 4.35,-7.51 6.703,-24.892 6.903,-33.702 0.14,-6.38 -1.123,-23.338 -3.063,-29.298 -10.941,-30.069 -33.892,-48.019 -64.48,-54 -9.47,-1.85 -19.38,-2.75 -29,-1.58 z"
       style="fill:#86d23a;fill-opacity:1;stroke:none;stroke-width:1"
       inkscape:connector-curvature="0"
       sodipodi:nodetypes="ccccccccsccccccccccccc" />
    <path
       d="m 181.794,193.424 c -4.67,1.35 -8.957,3.479 -12.897,6.359 -11.23,8.2 -18.337,22.787 -18.857,36.217 -0.24,6.26 5.379,28.692 7.259,35.652 2.34,8.64 5.241,18.723 9.207,26.745 1.53,3.096 3.066,7.786 5.591,7.522 3.02,-0.34 16.343,-8.649 19.903,-10.609 19.45,-10.7 40.89,-20.74 44.25,-45.31 0.76,-5.61 -1.66,-14.52 -3.25,-20 -2.833,-13.405 -23.301,-39.608 -51.206,-36.576 z"
       id="path951"
       style="fill:#f1eee6;fill-opacity:1"
       inkscape:connector-curvature="0"
       sodipodi:nodetypes="ccccsccccc" />
    <path
       id="Sel#19"
       d="m 153.017,254.912 c 0.477,-8.523 2.573,-18.895 5.005,-25.172 3.212,-8.288 5.307,-11.343 10.051,-16.326 8.836,-9.28 23.209,-15.911 40.506,-10.314 5.799,1.877 15.509,9.775 20.911,17.403 -2.251,-5.321 -4.3,-7.317 -6.824,-10.304 -8.433,-9.983 -20.838,-18.474 -33.327,-17.633 -12.984,0.874 -28.894,12.676 -33.604,23.745 -3.366,7.908 -4.496,11.985 -4.684,19.16 -0.109,4.14 -0.26,11.158 1.966,19.441 z"
       style="fill:#b6b6b6;fill-opacity:1;stroke:none;stroke-width:1"
       inkscape:connector-curvature="0"
       sodipodi:nodetypes="cssscssssc" />
    <path
       id="Sel#18"
       d="m 115.276,492.171 c -6.81,18.175 -5.619,27.945 -5.276,46.829 0.05,4.09 0.56,9.33 2.45,13 3.53,6.86 11.07,10.36 17.55,13.78 15.16,8 17.7,9.66 35,11.39 4.12,0.41 5.45,0.97 10,0.79 5.41,-0.21 9.91,-1.42 15,-3.08 6.75,-2.19 12.11,-4.31 11.36,-12.88 l -8.62,-32 -2.54,-12 c -2.37,-11.97 -6.982,-53.216 -6.648,-64.931 l 0.484,-16.931 c -8.85,0.31 -10.806,5.202 -15.776,11.862 -35.813,46.645 -23.884,22.163 -52.984,44.171 z"
       style="fill:#bce98b;fill-opacity:1;stroke:none;stroke-width:1"
       inkscape:connector-curvature="0"
       sodipodi:nodetypes="ccccccccccsccc" />
    <path
       d="m 62.7269,384.521 c 3.9262,3.734 10.4163,6.674 14.9683,8.72 6.018,2.704 13.4864,5.987 20.0843,6.38 5.5545,0.33 5.9905,1.268 9.8145,-2.107 l 28.406,-18.43 14.901,-9.042 c 3.15,-1.81 7.749,-5.072 9.649,-8.252 6.044,-14.417 -0.522,-31.775 -10.007,-44.387 -4.838,4.162 -17.57,16.29 -22.642,20.302 -9,8.74 -32.4481,28.458 -42.2982,35.899 -7.5102,5.673 -12.7259,10.007 -22.8759,10.917 z"
       id="Sel#4"
       style="fill:#e3301c;fill-opacity:1"
       inkscape:connector-curvature="0"
       sodipodi:nodetypes="cssccccccsc" />
    <path
       style="fill:#92231b;fill-opacity:1;stroke:none;stroke-width:1"
       d="M 231.5785,319.2187 210.9973,330.75 c -11.21,8.0594 -12.2691,12.6938 -17.9991,16.4438 l -25.9834,11.8843 c -3.2019,1.5313 -5.5679,2.8219 -11.0725,6.2282 -6.4322,3.9812 -13.7847,8.1968 -20.4016,12.3937 -10.4319,6.6438 -20.45,11.975 -30.5984,20.4781 -3.5716,2.6813 -6.82316,6.2219 -11.9916,9.9313 -4.93344,3.5406 -12.88813,8.7719 -16.3875,17.4406 -2.62313,6.4969 5.51125,11.8656 4.91156,15.75 -1.23531,8.0063 -5.38219,12.45 6.38875,22.7187 11.89031,10.375 25.29379,28.2938 46.68409,43.7782 L 149.7485,481 c 6.8122,-14 13.3031,-28.0344 19.4641,-42.1 0.6453,-1.4719 7.6119,-16.1844 10.199,-21.3375 1.446,-2.8813 15.2297,-34.1375 15.4716,-34.5438 2.8069,-8.3843 4.7425,-21.2562 13.5669,-34.8 0.6506,-0.9968 14.3134,-20.2968 23.1284,-29 z"
       id="path1041"
       inkscape:connector-curvature="0"
       sodipodi:nodetypes="ccccsccssssccsscsc" />
    <path
       style="fill:#e12d1f;fill-opacity:1;stroke:none;stroke-width:1"
       id="Sel#13"
       d="m 169,364.31 c -18.331,12.176 -31.673,17.876 -49,29.97 -5.81,4.06 -10.359,6.427 -15.373,11.696 -5.2445,5.51 -20.7917,13.914 -21.0917,21.884 -0.2626,6.511 4.9424,12.511 11.1867,15.496 2.4607,1.177 1.4655,3.1 2.7003,5.781 L 86,445 c -3.98,9.8 3.09,14.42 10,20.42 6.49,5.64 7.72,7.82 13.09,13.58 6.45,6.93 16.26,16.59 23.91,22 11.45,-19.133 22.138,-45.749 31.759,-65.83 L 176.14,412 l 7.19,-18 c 3.59,-8.3 5.05,-9.04 7.67,-19 -7.997,6.761 -15.649,14.108 -24.791,18.931 L 192,356 c -2.159,0.702 -4.337,2.833 -8.236,4.968 1.614,-1.801 2.77,-4.269 3.814,-6.109 -6.148,2.86 -12.374,6.229 -18.578,9.451 z"
       inkscape:connector-curvature="0"
       sodipodi:nodetypes="ccscscccccccccccccc" />
    <path
       id="Sel#14"
       d="m 107.052,428.527 c -1.912,-1.683 -5,-13.548 -5.549,-19.788 -3.4381,2.355 -9.4454,6.507 -12.4844,9.886 -1.9443,2.354 0.84,10.496 3.4314,19.375 8.436,20.502 14.008,26.399 26.2,42 4.36,5.63 9.96,13.95 16.35,17 1.899,-3.18 8.174,-13.811 9.134,-17.351 -1.735,-2.707 -5.858,-6.594 -8.678,-9.492 -4.92,-5.75 -9.393,-10.254 -12.753,-17.084 l 17.398,-0.474 c 7.927,0.27 13.519,1.62 15.93,0.983 2.618,-3.936 7.349,-15.502 8.969,-19.582 -20.187,0.4 -14.016,2.148 -36,-2 1.75,-7.45 15.3,-39.89 19.12,-47 l 7.377,-12.142 c -6.755,3.022 -12.127,6.002 -17.497,9.482 -4.076,2.641 -10.775,6.752 -14.646,9.593 -3.12,3.33 -4.246,8.031 -6.134,12.067 -3.347,7.155 -7.98,17.341 -10.168,24.527 z"
       style="fill:#f1eee6;fill-opacity:1;stroke:none;stroke-width:1"
       inkscape:connector-curvature="0"
       sodipodi:nodetypes="cccccccccccccccscsc" />
    <path
       id="Sel#12"
       d="M 69.0497,174.752 69,191 l 0.215,11.695 c 0.1953,3.63 -0.039,6.144 0.745,11.305 3.22,-1.86 -0.1821,-0.102 8.8659,-6.212 0.302,-4.112 -0.3696,-20.015 0.6257,-23.275 1.62,-0.48 10.1523,-1.321 10.2435,-1.811 0.276,-1.492 -0.028,-1.89 -0.5669,-2.049 -5.8104,-1.715 -15.3607,-5.232 -20.0785,-5.901 z M 85,189 c -0.574,5.463 -0.1731,9.625 0,14.092 l 17.95,-10.943 -0.546,-3.937 C 96.5721,188.322 90.5936,187.699 85,189 Z"
       style="fill:#ffb12f;fill-opacity:1;stroke:none;stroke-width:1"
       inkscape:connector-curvature="0"
       sodipodi:nodetypes="ccccccsscccccc" />
    <path
       id="Sel#11"
       d="m 271,152 v -26 c -6.32,2.82 -15.66,8.72 -18.83,15 -1.74,3.46 -2.02,11.03 -2.21,15 l -2.49,28 c -1.34,5.68 -8.161,15.032 -11.821,19.772 5.895,6.6 10.281,12.243 13.351,18.228 3.91,-3.23 9.09,-9.28 11,-14 1.42,-3.5 1.04,-6.84 3.1,-11 l 10.47,-15 c 2,-2.8 5.43,-8.44 8.18,-10.02 2.81,-1.89 7.25,-0.54 10.25,0 l 22,3.84 c 9.34,-0.11 25.37,-10.67 34,-14.82 v -2 l -21,-3.42 -32,-3.58 14.86,-21 21.28,-30 c 5.21,-7.26 14.51,-18.77 16.86,-27 -6.3,1.28 -11.67,5.41 -17,8.86 -20.17,13.03 -22.58,16.7 -35.98,36.14 -5.22,7.58 -18.08,28.05 -24.02,33 z"
       style="fill:#ffb030;fill-opacity:1;stroke:none;stroke-width:1"
       inkscape:connector-curvature="0"
       sodipodi:nodetypes="ccccccccccccccccccccccc" />
    <path
       id="Sel#10"
       d="m 117.01,205.71 c -3.42,1.41 -6.39,3.46 -7.41,7.29 -1.1,4.14 1.88,8.43 6.4,7.43 7.75,-1.7 11.74,-15.38 1.01,-14.72 z"
       style="fill:#a1dd65;fill-opacity:1;stroke:none;stroke-width:1"
       inkscape:connector-curvature="0" />
    <path
       id="Sel#9"
       d="m 91.11,311.04 c -3.97,3.17 -4.89,6.98 -3.72,11.94 0.85,3.6 3.46,6.67 7.4,4.66 6.98,-3.55 7.18,-19.54 -3.68,-16.6 z m -33.68,22.99 c -6.08,6.69 3.04,14.88 7.14,12.69 4.09,-2.19 2.99,-16.4 -7.14,-12.69 z"
       style="fill:#5bc223;fill-opacity:1;stroke:none;stroke-width:1"
       inkscape:connector-curvature="0" />
    <path
       id="Sel#8"
       d="m 159.812,335.93 c -4.63,3.56 -11.552,3.07 -18.812,8.06 -15.1,10.37 -26.35,29.14 -30,47.01 l 1.621,1.249 c 6.804,-3.326 12.857,-8.381 19.187,-12.211 l 17.654,-10.677 c 2.902,-1.696 8.278,-4.914 10.829,-6.713 4.22,-6.296 2.518,-20.898 -0.479,-26.718 z"
       style="fill:#ef551a;fill-opacity:1;stroke:none;stroke-width:1"
       inkscape:connector-curvature="0"
       sodipodi:nodetypes="cccccccc" />
    <path
       id="Sel#6"
       d="m 188,296 c 0.396,0.797 0.636,0.689 1.072,1.208 6.188,-3.861 17.818,-9.957 23.174,-13.568 9.87,-6.65 24.224,-19.3 22.914,-32.64 -1.23,-12.64 -12.6,-35.1 -23.16,-42.15 -3.55,-2.37 -7.76,-3.63 -12,-3.81 -14.31,-0.62 -23.05,7.85 -27.25,20.96 -2.19,6.82 -1.76,11.04 -1.75,18 0.72,20.159 6.691,36.702 17,52 z"
       style="fill:#434343;fill-opacity:1;stroke:none;stroke-width:1"
       inkscape:connector-curvature="0"
       sodipodi:nodetypes="ccccccccc" />
    <path
       id="Sel#7"
       d="m 219,235 c -4.316,-6.849 -3.364,-9.696 -14,-13 -10.636,-3.304 -16.95,8.82 -17,20 -0.05,10.95 2.33,20.75 6.05,31 1.09,2.99 3.109,6.999 4.965,10.13 0.621,1.047 3.157,5.044 4.141,5.912 3.722,-2.221 12.471,-7.914 15.125,-9.92 2.813,-2.127 7.021,-6.055 8.764,-8.279 0.115,-0.25 0.191,-1.345 0.184,-1.63 -0.09,-3.7 0,-5.765 -0.289,-8.213 -0.92,-7.99 -3.624,-19.151 -7.94,-26 z"
       inkscape:connector-curvature="0"
       style="fill:#232222;fill-opacity:1;stroke:none;stroke-width:1"
       sodipodi:nodetypes="zzccscscscz" />
    <path
       id="Sel#5"
       d="m 212.099,218.532 c -4.177,0.87 -7.43,5.315 -7.967,9.865 -0.733,6.21 4.571,10.94 10.451,8.657 10.035,-3.894 9.272,-20.971 -2.484,-18.522 z m -75.085,111.156 c 9.964,3.89 11.106,3.354 14.74,3.312 0.613,-3.794 0.09,-6.493 -0.331,-8.266 -0.957,-3.986 -2.026,-6.397 -2.05,-6.366 -4.624,4.27 -8.167,7.288 -12.359,11.32 z"
       style="fill:#f1eee6;fill-opacity:1;stroke:none;stroke-width:1"
       inkscape:connector-curvature="0"
       sodipodi:nodetypes="ssssccscc" />
    <path
       id="Sel#1"
       d="m 327.199,248.287 c 1.852,-7.936 2.917,-14.977 3.881,-19.287 0.656,-2.933 1.745,-7.58 2.317,-10.159 -2.274,-6.019 -4.182,-14.122 -7.07,-20.065 -3.95,-4.2 -12.767,1.474 -13.287,13.224 -0.61,13.85 6.475,14.147 10.635,21.157 2.51,4.26 3.414,10.29 3.524,15.13 z M 346,212 c -6.046,7.609 -7.599,11.781 -7,22 8.101,-4.199 7.71,-14.969 7,-22 z m -0.772,21.738 c -4.273,7.902 -6.185,15.855 -2.701,23.262 2.25,-1.943 3.299,-3.127 5.344,-5.369 -2.94,-6.078 -2.729,-12.703 -2.643,-17.893 z m -20.017,24.454 c 5.67,-3.14 6.353,-1.952 12.653,-0.852 -2.85,-5.718 -1.656,-13.16 -2.063,-23.128 -3.004,13.879 -4.596,12.371 -10.59,23.98 z m 22.421,2.474 c -3.77,4.953 -3.588,13.255 -0.329,18.621 2.44,3.28 8.781,5.573 11.571,1.403 2.409,-2.52 1.617,-7.747 1.688,-10.427 -3.829,-1.557 -4.002,2.106 -3.562,5.737 -6.19,-3.11 -6.73,-7.69 -8,-14 z m -6.887,17.214 c -4.357,6.827 -25.707,16.781 -35.745,21.76 -12.458,6.18 -34.268,18.089 -37,20.26 -10.687,8.49 -17.922,16.011 -28,22.14 -6.332,3.851 -12.972,7.358 -20,9.71 -3.804,1.273 -11.809,2.32 -11.809,2.32 -10.809,17.196 -13.761,35.042 -16.842,47.298 -1.984,7.892 -4.288,17.081 -5.97,25.701 3.556,-4.026 9.593,-8.288 15.621,-8.819 5.981,-0.526 12.1,2.084 15.407,6.77 7.477,10.593 15.255,25.084 16.694,34.571 -0.633,-5.197 -0.719,-7.524 -0.91,-11.834 0.04,-3.09 0.949,-6.627 1.609,-9.757 3.451,-15.068 6.738,-20.106 10.15,-30 6.35,-17.39 6.56,-25.91 21.14,-39.42 25.36,-23.51 56.82,-37.4 84.91,-56.86 11.43,-7.92 29.7,-23.21 34,-36.72 -5.22,4.76 -7.033,8.548 -14.473,7.368 -3.113,-0.432 -7.673,-0.768 -7.722,0.512 -1.928,2.183 -3.923,4.886 -8.103,4.796 -5.388,-0.819 -10.95,-5.868 -12.957,-9.796 z M 270.092,473.77 C 261.672,477.19 257.76,477 249,477 l 4.92,12.99 c 0.63,1.84 0.445,1.891 2.08,6.01 l 16.14,30 c 5.11,9.422 12.257,15.832 19.432,30.601 L 301,574 c 19.74,-7.55 38.18,-33.06 48.14,-51 5.64,-10.15 11.22,-22.41 19.15,-30.91 14.74,-15.8 26.97,-18.51 46.71,-22.97 5.26,-1.19 19.51,-2.38 21.34,-8.22 1.44,-4.55 -4.09,-7.78 -7.34,-9.59 -11.96,-6.64 -17.13,-7.62 -30,-10.84 l -19.249,-8.586 c -0.182,-0.08 -8.206,0.9 -11.539,1.127 -11.59,0.28 -17.072,4.929 -28.212,7.169 -1.98,0.4 -3.88,-1.419 -5.752,-0.906 C 330.806,440.218 326,446.1 326,446.1 l -32,17.5 c -9.864,4.594 -12.36,5.43 -23.908,10.17 z"
       style="fill:#5bc223;fill-opacity:1;stroke:none;stroke-width:1"
       inkscape:connector-curvature="0"
       sodipodi:nodetypes="csccccccccccccccccccccccccsssscscssccccccccccccccccccccccccsccaccc" />
    <path
       style="fill:#906119;fill-opacity:1;stroke:none;stroke-width:1"
       id="Sel#16"
       d="m 277,472 c 7.31,-0.52 11.75,-5 18,-8.57 11.038,-5.592 16.006,-10.455 30.508,-16.96 2.947,-1.321 6.203,-3.277 9.641,-6.362 1.145,-1.027 1.33,2.22 4.711,0.433 3.543,-1.874 16.344,-4.08 30.14,-4.551 5.649,-0.193 12.289,-2.214 12.286,0.125 0,1.177 10.174,2.867 22.992,5.894 10.399,2.455 19.908,-9.016 18.722,-19.009 l -12,-0.96 c -7.95,-0.31 -14.54,1.74 -22,3.96 0.38,-4.68 2.01,-13.64 -1.73,-17.4 -2.22,-2.23 -8.34,-1.69 -11.27,-1.31 -12.57,1.63 -19.53,6.3 -30,12.71 -0.32,-3.56 -2.63,-15.24 -5.43,-17.17 -2.11,-1.56 -5.28,-0.54 -7.57,0 -7.5,2.01 -12.88,5.42 -19,10.07 -17.93,13.63 -32.97,37.08 -38,59.1 z"
       inkscape:connector-curvature="0"
       sodipodi:nodetypes="ccsssssscccccccccc" />
    <path
       style="fill:#ff9624;fill-opacity:1;stroke:none;stroke-width:1"
       id="Sel#17"
       d="m 288,460 c 6.21,-1.96 18.34,-10.09 25,-13.69 9.87,-5.34 19.4,-6.45 25.1,-17.31 3.19,-6.07 1.77,-15.44 0.9,-22 -6.71,0.61 -13.48,4.42 -19,8.22 -13.65,9.41 -27.66,28.7 -32,44.78 z m 56,-25 c 8.118,-2.924 9.386,-2.647 22,-3 9.419,-0.264 15.921,-1.81 18.73,-10 0.86,-2.4 1.936,-7.351 -0.239,-9.002 -2.239,-1.701 -9.823,0.296 -12.491,0.772 -10.25,2.64 -23.46,11.58 -28,21.23 z m 43.157,-1.281 c 15.632,1.345 24.039,12.559 32.054,-5.368 1.761,-3.94 -29.549,-0.04 -32.054,5.368 z"
       inkscape:connector-curvature="0"
       sodipodi:nodetypes="cccccccscscccsc" />
    <path
       style="fill:#a5de6b;fill-opacity:1;stroke:none;stroke-width:1"
       d="m 292.3401,557.7719 8.6606,16.2125 c 19.7397,-7.55 38.1772,-33.0625 48.1397,-51.0031 5.6375,-10.15 11.2219,-22.4063 19.1531,-30.9063 -15.0375,18.3281 -12.6094,18.2188 -22.8125,28.9969 -13.1969,13.9437 -25.3312,28.1968 -53.1409,36.7 z"
       id="path1067"
       inkscape:connector-curvature="0"
       sodipodi:nodetypes="ccccsc" />
    <path
       sodipodi:nodetypes="scscccccccss"
       inkscape:connector-curvature="0"
       d="m 302.078,373.967 c -13.272,12.867 7.425,18.208 22.861,20.222 -26.78,10.331 -53.41,10.796 -51.805,16.229 4.098,13.865 26.794,16.934 26.673,17.568 6.03,-6.93 20.683,-19.586 29.193,-23.056 2.74,-1.12 8.96,-3.39 11.66,-1.87 3.51,1.98 3.665,3.083 4.645,6.783 6.07,-1.94 14.806,-9.041 20.716,-12.991 8.883,-5.3 8.24,-8.489 21.486,-11.527 -15.158,-10.981 -8.351,-4.792 -21.168,-14.898 -10.03,-7.703 -21.991,-14.373 -39.723,-8.602 -13.642,4.44 -18.081,5.882 -24.538,12.142 z"
       id="path1089"
       style="fill:#bc1f14;fill-opacity:1;stroke:none;stroke-width:1" />
    <path
       sodipodi:nodetypes="cssscsscc"
       inkscape:connector-curvature="0"
       style="fill:#434342;fill-opacity:1;stroke:none;stroke-width:1"
       d="m 151.77,252.324 c 0.477,-8.523 2.126,-22.044 4.259,-28.429 2.658,-7.956 10.176,-18.585 18.498,-23.148 9.555,-5.239 23.783,-5.716 33.209,-0.807 8.649,4.504 16.325,13.447 24.282,26.462 -2.18,-7.076 -6.447,-13.838 -10.733,-19.169 -8.794,-10.938 -20.987,-15.65 -31.735,-15.439 -16.886,0.331 -28.447,9.493 -36,26.206 -3.752,9.343 -4.97,22.358 -1.78,34.324 z"
       id="path1091" />
    <path
       sodipodi:nodetypes="ssscccsccccs"
       inkscape:connector-curvature="0"
       d="m 130.115,453.016 c -5.13,4.878 -5.528,9.906 -22.859,11.915 -2.73,0.317 -9.557,0.208 -12.3912,-0.486 -0.4818,-0.118 0.7567,0.646 1.1352,0.975 6.49,5.64 7.72,7.82 13.09,13.58 6.45,6.93 16.26,16.59 23.91,22 11.689,-19.554 22.008,-44.421 31.31,-64.483 3.87,-8.347 7.907,-16.172 11.83,-24.517 l 7.19,-18 c 3.59,-8.3 5.05,-9.04 7.67,-19 -7.997,6.761 -12.138,20.569 -21.28,25.392 -26.246,43.675 -26.486,40.149 -39.605,52.624 z"
       id="path1101"
       style="fill:#bc1f14;fill-opacity:1;stroke:none;stroke-width:1" />
    <path
       style="fill:#b8b8b8;fill-opacity:1;stroke:none;stroke-width:1"
       d="m 165.0023,434.0031 c -10.8197,0.2813 -13.1557,0.5563 -17.1997,0.7282 -3.0591,3.3968 -6.1403,6.7968 -8.1853,8.9281 -2.7788,2.8969 -5.6069,5.3437 -9.3435,9.1969 l 7.0794,-0.031 c 7.9319,-0.031 16.5222,2.0781 18.9331,1.4406 2.0322,-4.1781 7.4413,-16.0844 9.0613,-20.1625 z m -70.28566,9.35 c 1.12218,2.7344 1.50562,3.3032 2.70562,5.7844 2.71724,1.2188 6.73874,1.0625 13.02404,-0.062 -5.3593,-1.7969 -8.3412,-2.8625 -15.72966,-5.7156 z m 21.97536,19.4188 c -2.6088,0.9531 -5.2132,1.2625 -9.6925,2.1656 3.2737,4.5531 7.1528,9.2625 11.6528,15.0781 4.3278,5.3688 8.9512,11.8907 16.0031,18.1782 1.899,-3.1813 8.079,-14.4188 9.7228,-18.35 -1.735,-2.7063 -6.1519,-7.4 -8.9719,-10.3 -8.9003,-9.9625 -5.9087,-6.6969 -9.859,-11.5157 -2.4297,2.5594 -6.1907,3.9782 -8.8553,4.7438 z"
       id="path1093"
       inkscape:connector-curvature="0"
       sodipodi:nodetypes="ccscscccscccscccccccc" />
  </g>
</svg>
