<svg viewBox="0 0 32 32" xmlns="http://www.w3.org/2000/svg" xmlns:xlink="http://www.w3.org/1999/xlink">
    <defs>
        <linearGradient id="a" gradientUnits="userSpaceOnUse" x1="389.57" x2="389.57" y1="544.8" y2="518.8">
            <stop offset="0" stop-color="#fff" stop-opacity="0"/>
            <stop offset="1" stop-color="#fff" stop-opacity=".2"/>
        </linearGradient>
        <linearGradient id="b" gradientUnits="userSpaceOnUse" x1="20" x2="27" y1="9" y2="16">
            <stop offset="0" stop-color="#060606"/>
            <stop offset="1" stop-opacity="0"/>
        </linearGradient>
        <path id="c" d="m389.57 545.8v-28h15l7 7v21h-14z"/>
    </defs>
    <use fill="#eee" height="100%" transform="translate(-384.57 -515.8)" width="100%" xlink:href="#c"/>
    <path d="m5 3h15v-1h-15z" fill="#fff" opacity=".6"/>
    <path d="m5 30h22v-1h-22z" opacity=".15"/>
    <path d="m27 9-7-7v7z" fill-rule="evenodd" opacity=".5"/>
    <use fill="url(#a)" height="100%" transform="translate(-384.57 -515.8)" width="100%" xlink:href="#c"/>
    <path d="m20 9 7 7v-7z" fill="url(#b)" fill-rule="evenodd" opacity=".1"/>
    <path d="m19.5 13c-.828427 0-1.5.671573-1.5 1.5s.671573 1.5 1.5 1.5 1.5-.671573 1.5-1.5-.671573-1.5-1.5-1.5zm-3 3c-.276142 0-.5.223858-.5.5s.223858.5.5.5.5-.223858.5-.5-.223858-.5-.5-.5zm-2 1c-.276142 0-.5.223858-.5.5s.223858.5.5.5.5-.223858.5-.5-.223858-.5-.5-.5zm-3 1c-.828427 0-1.5.671573-1.5 1.5s.671573 1.5 1.5 1.5 1.5-.671573 1.5-1.5-.671573-1.5-1.5-1.5zm3 3c-.276142 0-.5.223858-.5.5s.223858.5.5.5.5-.223858.5-.5-.223858-.5-.5-.5zm2 1c-.276142 0-.5.223858-.5.5s.223858.5.5.5.5-.223858.5-.5-.223858-.5-.5-.5zm3 0c-.828427 0-1.5.671573-1.5 1.5s.671573 1.5 1.5 1.5 1.5-.671573 1.5-1.5-.671573-1.5-1.5-1.5z" fill="#232629"/>
    <rect fill="#da4453" fill-rule="evenodd" height="12" rx="1.5" width="12" x="18" y="18"/>
    <g fill="#0f0" stroke="#fcfcfc" stroke-linecap="square" stroke-width="1.75">
        <path d="m20.88 20.88 6.24 6.24"/>
        <path d="m27.12 20.88-6.24 6.24"/>
    </g>
</svg>
