<?xml version="1.0" encoding="UTF-8" standalone="no"?>
<!-- Created with Inkscape (http://www.inkscape.org/) -->

<svg
   xmlns:dc="http://purl.org/dc/elements/1.1/"
   xmlns:cc="http://creativecommons.org/ns#"
   xmlns:rdf="http://www.w3.org/1999/02/22-rdf-syntax-ns#"
   xmlns:svg="http://www.w3.org/2000/svg"
   xmlns="http://www.w3.org/2000/svg"
   xmlns:xlink="http://www.w3.org/1999/xlink"
   xmlns:sodipodi="http://sodipodi.sourceforge.net/DTD/sodipodi-0.dtd"
   xmlns:inkscape="http://www.inkscape.org/namespaces/inkscape"
   id="svg2837"
   version="1.1"
   inkscape:version="0.47pre4 r22446"
   width="48"
   height="48"
   viewBox="0 0 48 48"
   xml:space="preserve"
   sodipodi:docname="24x24.svg"
   style="filter: grayscale(1);">
   <metadata
     id="metadata2843"><rdf:RDF><cc:Work
         rdf:about=""><dc:format>image/svg+xml</dc:format><dc:type
           rdf:resource="http://purl.org/dc/dcmitype/StillImage" /><dc:title></dc:title></cc:Work></rdf:RDF></metadata><defs
     id="defs2841"><inkscape:perspective
       sodipodi:type="inkscape:persp3d"
       inkscape:vp_x="0 : 0.5 : 1"
       inkscape:vp_y="0 : 1000 : 0"
       inkscape:vp_z="1 : 0.5 : 1"
       inkscape:persp3d-origin="0.5 : 0.33333333 : 1"
       id="perspective2845" /><linearGradient
       x1="0"
       y1="0"
       x2="1"
       y2="0"
       gradientUnits="userSpaceOnUse"
       gradientTransform="matrix(-7.9998322,76.665482,76.665482,7.9998322,231.64795,260.98437)"
       spreadMethod="pad"
       id="linearGradient2861"><stop
         style="stop-opacity:1;stop-color:#f89734"
         offset="0"
         id="stop2863" /><stop
         style="stop-opacity:1;stop-color:#fbb371"
         offset="1"
         id="stop2865" /></linearGradient><radialGradient
       fx="0"
       fy="0"
       cx="0"
       cy="0"
       r="1"
       gradientUnits="userSpaceOnUse"
       gradientTransform="matrix(50.959351,23.761917,23.092804,-49.525528,208.03369,303.08252)"
       spreadMethod="pad"
       id="radialGradient2881"><stop
         style="stop-opacity:1;stop-color:#e9eaeb"
         offset="0"
         id="stop2883" /><stop
         style="stop-opacity:1;stop-color:#838487"
         offset="1"
         id="stop2885" /></radialGradient><clipPath
       clipPathUnits="userSpaceOnUse"
       id="clipPath2893"><path
         d="M 0,576 576,576 576,0 0,0 0,576 z"
         id="path2895" /></clipPath><linearGradient
       x1="0"
       y1="0"
       x2="1"
       y2="0"
       gradientUnits="userSpaceOnUse"
       gradientTransform="matrix(34.282654,-15.727585,-15.727585,-34.282654,213.80908,320.43213)"
       spreadMethod="pad"
       id="linearGradient2953"><stop
         style="stop-opacity:1;stop-color:#faa858"
         offset="0"
         id="stop2955" /><stop
         style="stop-opacity:1;stop-color:#fbb371"
         offset="1"
         id="stop2957" /></linearGradient><clipPath
       clipPathUnits="userSpaceOnUse"
       id="clipPath2965"><path
         d="M 0,576 576,576 576,0 0,0 0,576 z"
         id="path2967" /></clipPath><linearGradient
       inkscape:collect="always"
       xlink:href="#linearGradient2861"
       id="linearGradient2917"
       gradientUnits="userSpaceOnUse"
       gradientTransform="matrix(-7.9998322,76.665482,76.665482,7.9998322,231.64795,260.98437)"
       spreadMethod="pad"
       x1="0"
       y1="0"
       x2="1"
       y2="0" /><radialGradient
       inkscape:collect="always"
       xlink:href="#radialGradient2881"
       id="radialGradient2919"
       gradientUnits="userSpaceOnUse"
       gradientTransform="matrix(50.959351,23.761917,23.092804,-49.525528,208.03369,303.08252)"
       spreadMethod="pad"
       cx="0"
       cy="0"
       fx="0"
       fy="0"
       r="1" /><linearGradient
       inkscape:collect="always"
       xlink:href="#linearGradient2953"
       id="linearGradient2921"
       gradientUnits="userSpaceOnUse"
       gradientTransform="matrix(34.282654,-15.727585,-15.727585,-34.282654,213.80908,320.43213)"
       spreadMethod="pad"
       x1="0"
       y1="0"
       x2="1"
       y2="0" /></defs><sodipodi:namedview
     pagecolor="#ffffff"
     bordercolor="#666666"
     borderopacity="1"
     objecttolerance="10"
     gridtolerance="10"
     guidetolerance="10"
     inkscape:pageopacity="0"
     inkscape:pageshadow="2"
     inkscape:window-width="1152"
     inkscape:window-height="793"
     id="namedview2839"
     showgrid="false"
     inkscape:zoom="2.6222222"
     inkscape:cx="135.88584"
     inkscape:cy="27.404163"
     inkscape:window-x="0"
     inkscape:window-y="25"
     inkscape:window-maximized="1"
     inkscape:current-layer="g2847"
     inkscape:showpageshadow="false"
     showborder="false" /><g
     id="g2847"
     inkscape:groupmode="layer"
     inkscape:label="FOXYlogo"
     transform="matrix(1.25,0,0,-1.25,-224.11415,370.89237)"><g
       id="g2870"
       transform="matrix(0.42687693,0,0,0.42687693,102.75599,148.99767)"><g
         id="g2849"><g
           id="g2851"><g
             id="g2857"><g
               id="g2859"><path
                 id="path2867"
                 style="fill:url(#linearGradient2917);stroke:none"
                 d="m 185.797,300.527 c 0,-22.396 18.681,-40.552 41.725,-40.552 l 0,0 c 23.044,0 41.725,18.156 41.725,40.552 l 0,0 c 0,22.397 -18.681,40.554 -41.725,40.554 l 0,0 c -23.044,0 -41.725,-18.157 -41.725,-40.554" /></g></g></g></g><g
         id="g2869"><g
           id="g2871"><g
             id="g2877"><g
               id="g2879"><path
                 id="path2887"
                 style="fill:url(#radialGradient2919);stroke:none"
                 d="m 211.943,333.94 c -18.988,-8.854 -27.403,-30.99 -18.798,-49.443 l 0,0 c 8.604,-18.453 30.971,-26.234 49.958,-17.381 l 0,0 c 18.986,8.854 27.401,30.99 18.797,49.442 l 0,0 c -6.194,13.284 -19.518,21.037 -33.58,21.037 l 0,0 c -5.473,0 -11.058,-1.175 -16.377,-3.655" /></g></g></g></g><g
         id="g2889"><g
           clip-path="url(#clipPath2893)"
           id="g2891"><g
             transform="translate(261.9004,316.5576)"
             id="g2897"><path
               id="path2899"
               style="fill:none;stroke:#ffffff;stroke-width:1.76999998;stroke-linecap:butt;stroke-linejoin:miter;stroke-miterlimit:4;stroke-opacity:1;stroke-dasharray:none"
               d="m 0,0 c 8.604,-18.451 0.188,-40.588 -18.798,-49.441 -18.986,-8.854 -41.353,-1.072 -49.958,17.38 -8.605,18.454 -0.189,40.589 18.798,49.443 C -30.972,26.235 -8.605,18.454 0,0 z" /></g><g
             transform="translate(253.9063,323.9209)"
             id="g2901"><path
               id="path2903"
               style="fill:#ffffff;fill-opacity:1;fill-rule:nonzero;stroke:none"
               d="m 0,0 c -0.38,6.903 -1.854,15.334 -6.533,20.806 -3.507,4.103 -8.978,-7.857 -10.103,-9.669 -1.38,-2.221 -2.706,-4.984 -4.8,-6.605 -2.945,-2.281 -6.431,-2.372 -9.833,-3.499 -5.391,-1.789 -10.688,-4.57 -14.938,-8.369 -5.214,-4.66 -10.154,-4.124 -16.67,-3.649 -2.711,0.199 -12.849,2.406 -11.04,-3.348 2.192,-6.973 7.778,-12.852 13.386,-17.248 5.302,-4.158 2.946,-8.926 -2.589,-11.503 5.72,-7.829 17.267,-8.914 26.01,-7.4 4.766,0.826 9.278,1.088 14.039,-0.052 3.533,-0.845 7.752,-4.399 11.49,-2.507 3.506,1.711 3.098,5.748 4.096,8.94 1.409,4.499 4.193,8.567 7.519,11.858 6.812,6.743 14.138,16.589 10.803,26.9 C 5.155,-8.506 -0.189,-7.015 0,0" /></g><g
             transform="translate(215.7368,321.6992)"
             id="g2905"><path
               id="path2907"
               style="fill:#f89734;fill-opacity:1;fill-rule:nonzero;stroke:none"
               d="m 0,0 c 0,0 11.985,5.765 21.784,5.146 0,0 7.573,-2.107 11.927,-4.1 0,0 6.191,-4.964 7.201,-8.663 0,0 2.938,-8.511 -7.186,-19.298 0,0 -5.095,-6.523 -6.302,-12.757 0,0 -0.092,-4.189 -2.53,-5.651 0,0 -4.019,-1.141 -6.971,0.514 -2.393,0.678 -4.844,1.214 -7.298,1.626 -5.684,0.954 -11.46,0.006 -17.159,1.061 -4.659,0.859 -10.534,2.956 -11.796,8.135 0,0 -2.888,2.565 0.798,13.578 0,0 2.001,12.357 17.532,20.409" /></g><g
             transform="translate(196.5059,295.9878)"
             id="g2909"><path
               id="path2911"
               style="fill:#5c5d5d;fill-opacity:1;fill-rule:nonzero;stroke:none"
               d="m 0,0 c 2.679,-1.011 4.179,-2.636 10.782,-1.915 3.055,0.334 5.723,3.269 8.877,2.476 8.535,-2.152 22.752,-17.621 22.222,-18.163 -0.955,-0.761 -11.555,14.2 -19.136,10.842 -1.809,-0.8 -4.551,-2.507 -6.534,-2.023 -0.958,0.237 -1.792,0.686 -2.52,1.358 -0.96,0.89 -1.642,2.731 -2.91,3.235 -1.728,0.688 -3.12,0.784 -4.914,1.167 -1.929,0.412 -3.938,1.262 -5.436,2.518" /></g><g
             transform="translate(243.0967,279.8789)"
             id="g2913"><path
               id="path2915"
               style="fill:#5c5d5d;fill-opacity:1;fill-rule:nonzero;stroke:none"
               d="m 0,0 c 0.714,-1.26 -0.438,-4.142 -0.984,-4.45 -0.544,-0.309 -3.745,0.106 -4.459,1.367 -0.713,1.258 0.327,2.263 1.83,3.114 C -2.109,0.883 -0.713,1.259 0,0" /></g><g
             transform="translate(206.8965,302.1777)"
             id="g2917"><path
               id="path2919"
               style="fill:#5c5d5d;fill-opacity:1;fill-rule:nonzero;stroke:none"
               d="M 0,0 C -0.872,1.155 2.11,3.59 2.733,3.646 3.357,3.701 6.101,2.003 6.231,0.562 6.361,-0.879 3.944,0.677 2.223,0.523 0.502,0.367 0.369,-0.49 0,0" /></g><g
             transform="translate(262.0864,311.4141)"
             id="g2921"><path
               id="path2923"
               style="fill:#5c5d5d;fill-opacity:1;fill-rule:nonzero;stroke:none"
               d="m 0,0 c -0.677,-9.71 -5.16,-14.594 -10.862,-21.908 -3.012,-3.861 -5.017,-8.005 -6.067,-12.766 -0.653,-2.955 -2.998,-5.396 -6.187,-5.296 -3.564,0.114 -6.928,2.23 -10.487,2.862 -4.641,0.826 -9.162,0.113 -13.801,-0.206 -4.671,-0.321 -8.985,0.475 -13.127,2.686 -0.069,0.036 -6.823,4.403 -6.476,4.649 4.916,3.463 2.528,8.458 -1.511,11.371 -5.349,3.857 -10.603,10.055 -12.841,16.365 -1.254,3.539 12.776,0.416 14.245,-0.23 4.956,-2.182 2.184,-9.504 1.431,-13.29 1.562,1.982 1.916,4.999 2.747,7.338 1.244,3.501 2.716,7.061 5.389,9.728 3.419,3.415 7.537,5.966 11.82,8.15 5.051,2.578 9.983,4.83 15.651,5.436 4.155,0.441 7.829,-0.055 11.682,-1.675 0.621,-0.264 4.807,-2.148 5.815,-1.898 -3.393,1.208 -10.569,4.446 -9.555,9.164 0.338,1.567 5.62,14.545 7.748,11.455 3.797,-5.514 5.733,-13.408 5.718,-20.002 C -8.68,6.954 -6.037,2.089 -0.348,4.037 -0.384,4.025 0.028,0.412 0,0 m -7.915,12.749 c -0.384,6.973 -1.874,15.488 -6.598,21.016 -3.544,4.145 -9.07,-7.937 -10.206,-9.767 -1.394,-2.243 -2.732,-5.033 -4.849,-6.672 -2.974,-2.305 -6.495,-2.395 -9.931,-3.535 -5.446,-1.808 -10.797,-4.617 -15.089,-8.453 -5.267,-4.707 -10.258,-4.165 -16.839,-3.686 -2.739,0.201 -12.979,2.429 -11.151,-3.382 2.213,-7.042 7.856,-12.98 13.52,-17.421 5.355,-4.199 2.976,-9.016 -2.615,-11.62 5.778,-7.908 17.443,-9.004 26.273,-7.474 4.815,0.834 9.372,1.096 14.18,-0.054 3.57,-0.851 7.831,-4.442 11.607,-2.531 3.541,1.728 3.129,5.806 4.139,9.031 1.422,4.543 4.234,8.652 7.594,11.977 C -1,-13.011 6.4,-3.065 3.032,7.352 -2.708,4.155 -8.107,5.663 -7.915,12.749" /></g><g
             transform="translate(240.9268,311.4058)"
             id="g2925"><path
               id="path2927"
               style="fill:#5c5d5d;fill-opacity:1;fill-rule:nonzero;stroke:none"
               d="m 0,0 c 0.288,1.418 -3.452,2.332 -4.038,2.113 -0.587,-0.218 -2.331,-2.933 -1.827,-4.29 0.502,-1.358 2.012,1.088 3.634,1.692 C -0.613,0.115 -0.123,-0.601 0,0" /></g><g
             transform="translate(215.5869,289.4712)"
             id="g2929"><path
               id="path2931"
               style="fill:#ffffff;fill-opacity:1;fill-rule:nonzero;stroke:none"
               d="M 0,0 C 0.181,0.136 0.365,0.415 0.297,0.387 0.506,0.79 0.527,1.284 0.305,1.718 -0.059,2.433 -0.937,2.72 -1.652,2.354 -2.369,1.99 -2.652,1.112 -2.286,0.396 -2.284,0.392 -2.281,0.389 -2.279,0.385 -2.35,0.414 -2.423,0.425 -2.492,0.459 -3.995,1.189 -4.734,2.865 -4.337,4.425 -4.47,4.253 -4.588,4.066 -4.688,3.865 -5.445,2.307 -4.793,0.431 -3.236,-0.324 c 0.9,-0.439 1.9,-0.392 2.733,0.017 0.058,0.021 0.117,0.039 0.174,0.068 C -0.204,-0.175 -0.098,-0.091 0,0" /></g><g
             transform="translate(201.3467,286.79)"
             id="g2933"><path
               id="path2935"
               style="fill:#f6ad44;fill-opacity:1;fill-rule:nonzero;stroke:none"
               d="m 0,0 c 0,0 4.649,-8.012 17.098,-5.728 0,0 8.646,2.306 13.661,-2.572 -1.023,0.995 -1.912,2.037 -3.159,2.8 -3.88,2.374 -8.425,1.586 -12.74,2.007 C 11.729,-3.186 8.814,-2.129 6.012,-0.74 4.997,-0.237 -0.543,3.323 0,0" /></g><g
             transform="translate(254.4907,311.8257)"
             id="g2937"><path
               id="path2939"
               style="fill:#f6ad44;fill-opacity:1;fill-rule:nonzero;stroke:none"
               d="m 0,0 c 0,0 2.953,-8.739 -7.189,-15.087 0,0 -5.659,-4.735 -5.408,-11.635 -0.051,1.406 -0.211,2.757 0.021,4.15 0.385,2.318 0.466,4.79 1.388,6.944 0.89,2.08 2.775,3.179 4.241,4.747 1.653,1.768 2.733,4.008 3.344,6.417 C -3.336,-3.416 -1.854,2.765 0,0" /></g></g></g><g
         id="g2941"><g
           id="g2943"><g
             id="g2949"><g
               id="g2951"><path
                 id="path2959"
                 style="fill:url(#linearGradient2921);stroke:none"
                 d="m 219.217,320.557 c -8.361,-3.819 -11.245,-7.843 -10.12,-9.455 l 0,0 c 1.232,-1.763 6.564,-3.975 10.462,-4.716 l 0,0 c 0.437,-0.084 0.615,0.54 0.788,1.164 l 0,0 c 0.175,0.625 0.345,1.251 0.769,1.164 l 0,0 c 2.49,-0.513 5.947,-3.826 7.154,-4.78 l 0,0 c 0.615,-0.486 1.778,-1.525 2.335,-1.306 l 0,0 c 0.448,0.18 -0.171,1.544 -0.27,2.567 l 0,0 c -0.129,1.34 -1.24,6.507 -0.799,8.453 l 0,0 c 0.16,0.711 0.67,0.604 1.192,0.498 l 0,0 c 0.53,-0.109 1.071,-0.219 1.268,0.538 l 0,0 c 1.018,3.921 1.895,7.666 0.749,9.206 l 0,0 c -0.292,0.393 -0.865,0.571 -1.664,0.571 l 0,0 c -2.414,0 -6.885,-1.63 -11.864,-3.904" /></g></g></g></g><g
         id="g2961"><g
           clip-path="url(#clipPath2965)"
           id="g2963"><g
             transform="translate(250.4868,321.0234)"
             id="g3025"><path
               id="path3027"
               style="fill:#5c5d5d;fill-opacity:1;fill-rule:nonzero;stroke:none"
               d="m 0,0 c -1.953,-3.398 -2.12,-7.398 -9.162,-12.051 -1.332,-0.88 -2.181,-1.787 -2.848,-3.422 -3.239,-7.934 2.034,-25.066 2.768,-24.956 1.152,0.325 -5.615,14.689 -1.916,21.923 0.592,1.157 1.516,2.073 2.438,2.968 0.984,0.957 1.551,1.517 2.647,2.326 1.162,0.856 2.677,2.038 4.037,1.981 -0.91,0.038 -2.517,0.43 -3.432,0.469 0.717,1.218 2.645,3.181 3.182,4.031 1.328,2.1 1.92,4.192 2.286,6.731" /></g><g
             transform="translate(245.6221,311.167)"
             id="g3029"><path
               id="path3031"
               style="fill:#5c5d5d;fill-opacity:1;fill-rule:nonzero;stroke:none"
               d="M 0,0 C 0.858,0.275 1.874,0.881 2.632,1.389 3.313,1.846 4.006,2.344 4.25,3.106 3.887,1.972 2.931,0.588 1.994,-0.055 1.517,-0.382 1.029,-0.701 0.617,-1.111 0.216,-1.509 -0.117,-1.482 -0.718,-1.59 -0.766,-1.337 -0.75,-1.075 -0.75,-0.813" /></g></g></g></g></g></svg>