<?xml version="1.0" encoding="UTF-8" standalone="no"?>
<svg
   version="1.1"
   viewBox="0 0 512 512"
   id="svg20"
   sodipodi:docname="archlinux-tweak-tool.svg"
   inkscape:version="1.1.2 (0a00cf5339, 2022-02-04, custom)"
   xmlns:inkscape="http://www.inkscape.org/namespaces/inkscape"
   xmlns:sodipodi="http://sodipodi.sourceforge.net/DTD/sodipodi-0.dtd"
   xmlns="http://www.w3.org/2000/svg"
   xmlns:svg="http://www.w3.org/2000/svg">
  <defs
     id="defs24" />
  <sodipodi:namedview
     id="namedview22"
     pagecolor="#ffffff"
     bordercolor="#666666"
     borderopacity="1.0"
     inkscape:pageshadow="2"
     inkscape:pageopacity="0.0"
     inkscape:pagecheckerboard="0"
     showgrid="false"
     inkscape:zoom="1.4199219"
     inkscape:cx="126.76754"
     inkscape:cy="256"
     inkscape:window-width="1920"
     inkscape:window-height="1080"
     inkscape:window-x="0"
     inkscape:window-y="0"
     inkscape:window-maximized="1"
     inkscape:current-layer="svg20" />
  <path
     d="m 431.29156,253.05 c 0,98.44406 -79.80564,178.24156 -178.24156,178.24156 -98.44406,0 -178.241558,-79.80564 -178.241558,-178.24156 0,-98.44406 79.805638,-178.241558 178.241558,-178.241558 98.44406,0 178.24156,79.805638 178.24156,178.241558"
     fill="#80b3ff"
     id="path2"
     style="fill-rule:evenodd;stroke-width:0.81426" />
  <path
     d="m 229.93248,353.90605 c -5.21436,-1.87556 -10.666,-4.37258 -12.11375,-5.54877 -1.90342,-1.5458 -2.63348,-1.19102 -2.63348,1.27961 0,1.87996 -0.76245,3.41818 -1.69432,3.41818 -4.05395,0 -21.23102,-12.73259 -28.26867,-20.95417 l -7.67977,-8.97234 -0.66675,8.11614 -0.66672,8.11614 -9.87616,-13.22033 c -18.10915,-24.24215 -25.71922,-55.71738 -21.11214,-87.32126 2.92645,-20.07803 12.76679,-42.4881 24.30974,-55.36074 l 7.55682,-8.42759 0.0876,7.77439 0.0876,7.77439 10.40299,-10.99984 c 12.2652,-12.96872 22.74636,-34.31536 23.84887,-29.59591 0.94169,4.03075 3.27015,16.4562 15.51654,10.92981 14.34401,-6.47223 37.85414,-6.45114 52.25841,0.0468 7.855,3.54366 13.13239,-9.23452 14.33993,-11.18956 2.42658,-3.92636 9.02364,14.79022 23.20886,28.77758 l 12.11375,11.9452 0.0876,-7.73197 0.0876,-7.73197 7.55683,8.42759 c 10.89887,12.15446 21.22043,35.18256 24.03696,53.63044 5.35205,35.04901 -4.02432,69.42952 -25.75749,94.44604 l -6.01201,6.92039 -0.0628,-7.9738 -0.0628,-7.97389 -7.83766,8.75656 c -7.76544,8.67594 -24.72013,21.79204 -28.16852,21.79204 -0.98493,0 -1.79072,-1.4414 -1.79072,-3.20305 0,-2.64391 -1.56314,-2.39645 -8.95361,1.41713 -11.9395,6.16086 -38.59837,7.50895 -52.14359,2.6369 z m 41.69663,-42.30977 c 3.13849,-2.32586 8.7875,-8.24357 12.55345,-13.15112 l 6.84712,-8.92185 v 18.01225 l 6.33201,-8.60999 c 9.14333,-12.43293 12.62918,-24.21202 12.62918,-42.67293 0,-18.92992 -3.98223,-32.3017 -12.63244,-42.41889 l -6.1576,-7.2018 -0.0855,8.2167 -0.0855,8.2167 -6.119,-8.44714 c -18.60911,-25.68828 -48.97857,-24.51249 -65.7849,2.54782 l -3.92547,6.32045 -0.0548,-9.48043 -0.0548,-9.48043 -4.31639,5.26704 c -2.37397,2.8969 -6.80005,10.48116 -9.83545,16.85437 -10.42253,21.8808 -6.49755,57.0886 8.28836,74.35499 l 5.78613,6.75681 0.0855,-8.06427 0.0856,-8.06435 6.84712,8.90312 c 9.70354,12.61696 18.93725,17.16542 32.74303,16.12887 6.76292,-0.50772 13.39295,-2.50027 16.85437,-5.06568 z"
     fill="#ffffff"
     stroke-width="2.10682"
     id="path18" />
</svg>
