<svg width="500" height="500" version="1.1" viewBox="0 0 500 500" xmlns="http://www.w3.org/2000/svg">
 <g>
  <ellipse cx="255.01" cy="246.5" rx="188.48" ry="176.7" fill="#1c7cc7"/>
  <ellipse cx="339.28" cy="246.5" rx="91.523" ry="142.27" fill="#3496e3"/>
  <ellipse cx="175.27" cy="241.97" rx="91.523" ry="142.27" fill="#3496e3"/>
  <circle cx="365.56" cy="65.263" r="18.123" fill="#fb6589"/>
  <circle cx="434.43" cy="137.76" r="24.467" fill="#f90641"/>
  <ellipse cx="86.462" cy="384.23" rx="18.123" ry="17.217" fill="#4e479e"/>
  <circle cx="425.37" cy="382.42" r="22.654" fill="#fffdff"/>
 </g>
 <path d="m161.8 307.37c-16.706-1.4592-30.184-7.3334-39.663-17.287-10.567-11.096-16.029-26.393-16.72-46.828-0.27552-8.1488 0.5072-13.789 2.9129-20.989 7.7705-23.256 30.138-41.607 57.344-47.046 9.1137-1.822 20.263-2.2037 27.656-0.94695 22.521 3.8288 48.516 19.164 75.333 44.439 2.8369 2.6739 5.2223 4.8616 5.3009 4.8616 0.0786 0 1.4724-1.6563 3.0973-3.6805 4.3219-5.3843 6.5721-7.9023 12.118-13.561 17.303-17.653 33.569-27.429 48.827-29.344 5.2273-0.65596 16.444 0.10014 22.847 1.5401 24.263 5.4566 41.672 20.396 48.642 41.74 2.4966 7.6459 3.3343 13.37 3.3192 22.684-0.0195 12.18-1.9257 21.054-6.5826 30.646-3.2263 6.6451-6.8978 11.715-12.087 16.692-9.4524 9.0649-21.028 14.57-35.094 16.69-5.0152 0.75605-15.466 0.76786-20.28 0.0229-19.682-3.0453-40.556-13.026-62.374-29.827-6.5738-5.0617-14.874-12.226-18.739-16.173-0.90324-0.92249-1.7459-1.6773-1.8727-1.6773-0.12678 0-3.4439 3.2241-7.3714 7.1646-10.516 10.55-18.323 17.025-28.774 23.863-20.357 13.32-38.621 18.692-57.838 17.013zm204.61-19.205c11.636-1.2143 22.213-7.5823 28.537-17.181 4.1451-6.292 6.2692-14.735 5.4515-21.667-1.4931-12.661-10.974-25.469-26.422-35.696-17.277-11.438-37.71-16.513-53.04-13.174-4.0839 0.88938-7.1098 1.9538-11.463 4.0323-8.4303 4.0256-16.03 9.7501-23.766 17.901-2.787 2.9364-5.8288 6.6077-5.8288 7.035 0 1.1846 20.675 22.205 29.038 29.524 20.358 17.815 37.727 27.852 50.554 29.213 3.252 0.3451 3.7543 0.34609 6.9388 0.0138zm-165.93-3.8507c12.79-2.8874 25.74-9.987 39.65-21.737 3.9591-3.3444 9.4096-8.674 9.4096-9.2001 0-0.62418-12.902-13.437-17.427-17.304-22.527-19.261-42.427-29.784-61.443-32.49-4.0364-0.57433-12.197-0.55748-16.436 0.034-6.2925 0.87766-13.132 2.9447-18.188 5.4972-5.7371 2.896-11.606 8.2276-14.28 12.971-4.5558 8.0834-4.9296 18.286-1.0103 27.579 7.6179 18.062 30.762 31.729 59.379 35.064 5.3546 0.62397 16.779 0.39175 20.346-0.41357z" fill="#ffffff" stroke-width=".30046"/>
</svg>
