<svg width="32" height="32" viewBox="0 0 32 32" fill="none" xmlns="http://www.w3.org/2000/svg">
<path fill-rule="evenodd" clip-rule="evenodd" d="M25.756 27.24H25.748C25.148 27.456 24.52 27.568 23.884 27.564H0.0720062L16.672 1.12L28.704 19.28V19.32C29.204 20.2316 29.4407 21.2642 29.3877 22.3025C29.3347 23.3409 28.9942 24.344 28.404 25.2C27.7519 26.1359 26.8273 26.8482 25.756 27.24V27.24Z" fill="#042739"/>
<path d="M27.64 22.016C27.6412 22.7945 27.4031 23.5547 26.9582 24.1935C26.5132 24.8324 25.8827 25.3192 25.152 25.588C24.7467 25.7345 24.3189 25.809 23.888 25.808H14.008C13.5857 25.808 13.1806 25.6411 12.8808 25.3436C12.5811 25.0461 12.4112 24.6422 12.408 24.22C12.408 24.02 12.448 23.82 12.528 23.632L12.792 23.212L14.108 21.116H20.248V21.104C20.5172 21.0618 20.7622 20.9242 20.9384 20.7164C21.1147 20.5086 21.2103 20.2444 21.208 19.972C21.208 19.804 21.168 19.636 21.1 19.48V19.472L21.088 19.452C21.048 19.376 21 19.304 20.944 19.236L18.852 16.064C18.6101 15.6977 18.4785 15.2696 18.4729 14.8307C18.4672 14.3918 18.5877 13.9604 18.82 13.588L20.76 10.488C20.7613 10.4876 20.7627 10.4876 20.764 10.488H20.768L26.94 19.812V19.82L27.056 19.992C27.4335 20.5995 27.6331 21.3007 27.632 22.016H27.636H27.64ZM18.68 7.31999C18.9332 7.70605 19.0701 8.15678 19.0744 8.61846C19.0786 9.08014 18.9501 9.53332 18.704 9.92399L16.8 12.964L8.756 25.808H3.28L13.988 8.71999L16.72 4.35999L18.68 7.31999Z" fill="#0AFF91"/>
</svg>
