<svg width="32" height="32" viewBox="0 0 32 32" fill="none" xmlns="http://www.w3.org/2000/svg">
<g clip-path="url(#clip0_3355_202)">
<g clip-path="url(#clip1_3355_202)">
<path d="M32 0H0V32H32V0Z" fill="url(#paint0_linear_3355_202)"/>
<path fill-rule="evenodd" clip-rule="evenodd" d="M25.3269 18.7426L22.7155 16.7149V12.9429C22.7155 12.7138 22.5963 12.5006 22.3993 12.3801L18.6611 10.0901V7.17905L25.3269 11.0808V18.7426ZM26.3385 10.1338L18.3329 5.44671C18.1265 5.32619 17.8679 5.32354 17.6589 5.44141C17.4512 5.55929 17.3213 5.77782 17.3213 6.01621V10.4583C17.3213 10.6874 17.4419 10.9007 17.6375 11.0212L21.3757 13.3111V17.0367C21.3757 17.2394 21.4708 17.4314 21.6329 17.5572L25.5828 20.6272C25.7034 20.7213 25.8481 20.7689 25.9968 20.7689C26.096 20.7689 26.1965 20.7464 26.2889 20.7014C26.5194 20.5915 26.6667 20.3597 26.6667 20.1067V10.7033C26.6667 10.4689 26.5421 10.2517 26.3385 10.1338ZM16.713 25.2786L8.0066 20.8934V11.0795L14.6496 7.16184V10.0742L10.9972 12.3602C10.8042 12.482 10.6863 12.6926 10.6863 12.9204V19.0088C10.6863 19.2604 10.8297 19.4895 11.0588 19.6021L16.3418 22.19C16.5294 22.2828 16.7532 22.2801 16.9421 22.1861L21.0889 20.1001L23.8745 22.4205L16.713 25.2786ZM21.6115 18.8048C21.4078 18.634 21.1144 18.6022 20.8759 18.7214L16.6339 20.855L12.0262 18.5982V13.2833L15.6773 10.9974C15.8715 10.8755 15.9895 10.6649 15.9895 10.4371V5.99635C15.9895 5.75795 15.8595 5.5381 15.6505 5.42022C15.4388 5.30102 15.1802 5.305 14.9765 5.42817L6.99367 10.1338C6.79135 10.253 6.66675 10.4689 6.66675 10.7033V21.2987C6.66675 21.5477 6.80743 21.7755 7.03253 21.8881L16.3767 26.5951C16.4705 26.6427 16.575 26.6666 16.6808 26.6666C16.7652 26.6666 16.8496 26.6507 16.9314 26.6189L25.4086 23.2377C25.6257 23.1502 25.7824 22.9569 25.82 22.7264C25.8561 22.4973 25.769 22.2655 25.5895 22.1159L21.6115 18.8048Z" fill="white"/>
</g>
</g>
<defs>
<linearGradient id="paint0_linear_3355_202" x1="0" y1="32" x2="32" y2="0" gradientUnits="userSpaceOnUse">
<stop stop-color="#C8511B"/>
<stop offset="1" stop-color="#FF9900"/>
</linearGradient>
<clipPath id="clip0_3355_202">
<rect width="32" height="32" fill="white"/>
</clipPath>
<clipPath id="clip1_3355_202">
<rect width="32" height="32" fill="white"/>
</clipPath>
</defs>
</svg>
