<svg width="32" height="32" viewBox="0 0 32 32" fill="none" xmlns="http://www.w3.org/2000/svg">
<g clip-path="url(#clip0_3969_167)">
<path fill-rule="evenodd" clip-rule="evenodd" d="M6.95102 0.390259H25.049C28.8882 0.390259 32 3.42636 32 7.17192V24.8273C32 28.5737 28.8882 31.6098 25.049 31.6098H6.95102C3.1118 31.6098 0 28.5737 0 24.8281V7.1727C0 3.42636 3.1118 0.390259 6.95102 0.390259Z" fill="#FF4100"/>
<path fill-rule="evenodd" clip-rule="evenodd" d="M27.3131 12.1834C27.3338 12.3716 27.2791 12.5603 27.1611 12.7083C27.0431 12.8563 26.8713 12.9515 26.6833 12.9733L22.5202 13.4182C22.2077 13.4516 21.9191 13.6007 21.711 13.8361C21.5029 14.0715 21.3904 14.3762 21.3955 14.6904C21.408 15.4404 21.6484 16.1686 22.0846 16.7782L26.0519 22.3251C26.1626 22.4796 26.2082 22.6714 26.179 22.8592C26.1498 23.0471 26.0481 23.2159 25.8958 23.3296L24.9412 24.0344C24.8662 24.0898 24.7809 24.1297 24.6902 24.1517C24.5996 24.1738 24.5054 24.1775 24.4133 24.1626C24.3212 24.1478 24.233 24.1147 24.1539 24.0654C24.0747 24.016 24.0062 23.9513 23.9524 23.8751L21.3767 20.2748C21.2197 20.0554 20.9855 19.9035 20.7212 19.8497C20.4568 19.7958 20.1819 19.844 19.9516 19.9844C19.3998 20.3211 18.9647 20.8192 18.7051 21.4111L15.79 28.0609C15.7169 28.2312 15.5796 28.3657 15.4079 28.4354C15.2363 28.5051 15.044 28.5043 14.8729 28.4332L14.8558 28.4254L13.7779 27.9384C13.6082 27.8603 13.4752 27.7197 13.4069 27.5458C13.3385 27.372 13.34 27.1784 13.4111 27.0057L13.4189 26.9885L15.175 22.9799C15.2942 22.7082 15.3082 22.4018 15.2143 22.1203C15.1204 21.8389 14.9253 21.6022 14.6669 21.4564C14.0528 21.1105 13.3462 20.9648 12.6454 21.0396L5.58826 21.7936C5.49509 21.803 5.40098 21.7938 5.31137 21.7667C5.22175 21.7395 5.13838 21.6949 5.06606 21.6354C4.99374 21.576 4.93389 21.5028 4.88997 21.4201C4.84604 21.3374 4.8189 21.2468 4.81011 21.1536L4.68679 19.9618C4.66594 19.7735 4.72049 19.5846 4.83853 19.4365C4.95656 19.2883 5.12847 19.1929 5.31665 19.1711L9.7264 18.7005C10.2954 18.6396 10.7239 18.1542 10.7145 17.5821C10.7033 16.9234 10.4921 16.2837 10.1088 15.7479L5.75372 9.65856C5.64303 9.50403 5.59738 9.31225 5.62657 9.12443C5.65576 8.93661 5.75746 8.76772 5.90982 8.65407L6.86435 7.95007C6.93938 7.89464 7.02472 7.85474 7.11537 7.83271C7.20603 7.81069 7.30016 7.80698 7.39226 7.82181C7.48436 7.83664 7.57258 7.86971 7.65173 7.91907C7.73089 7.96844 7.79939 8.03311 7.85323 8.10929L10.4156 11.6917C10.6048 11.9559 10.887 12.1388 11.2055 12.2036C11.5239 12.2685 11.8551 12.2105 12.1326 12.0414C12.7975 11.6356 13.3217 11.0354 13.6343 10.322L16.4324 3.93915C16.5055 3.7689 16.6427 3.63433 16.8144 3.56464C16.9861 3.49495 17.1783 3.49574 17.3494 3.56686L17.3666 3.57466L18.4445 4.06168C18.7957 4.2209 18.9572 4.63534 18.8113 4.99437L18.8035 5.01154L17.0396 9.03573C16.9148 9.32062 16.9004 9.64168 16.999 9.93662C17.0977 10.2315 17.3024 10.4793 17.5734 10.6318C18.2165 10.994 18.9565 11.147 19.6909 11.0689L26.4117 10.3509C26.5048 10.3415 26.5989 10.3506 26.6886 10.3778C26.7782 10.4049 26.8615 10.4495 26.9339 10.509C27.0062 10.5685 27.066 10.6417 27.11 10.7244C27.1539 10.8071 27.181 10.8976 27.1898 10.9909L27.3131 12.1834ZM16.3902 18.3415C17.0112 18.3415 17.6068 18.0948 18.0459 17.6557C18.485 17.2166 18.7317 16.621 18.7317 16C18.7317 15.379 18.485 14.7835 18.0459 14.3444C17.6068 13.9053 17.0112 13.6586 16.3902 13.6586C15.7692 13.6586 15.1737 13.9053 14.7345 14.3444C14.2954 14.7835 14.0487 15.379 14.0487 16C14.0487 16.621 14.2954 17.2166 14.7345 17.6557C15.1737 18.0948 15.7692 18.3415 16.3902 18.3415ZM16.3902 17.561C16.8042 17.561 17.2012 17.3965 17.494 17.1038C17.7867 16.8111 17.9512 16.414 17.9512 16C17.9512 15.586 17.7867 15.189 17.494 14.8962C17.2012 14.6035 16.8042 14.4391 16.3902 14.4391C15.9762 14.4391 15.5792 14.6035 15.2864 14.8962C14.9937 15.189 14.8292 15.586 14.8292 16C14.8292 16.414 14.9937 16.8111 15.2864 17.1038C15.5792 17.3965 15.9762 17.561 16.3902 17.561V17.561Z" fill="white"/>
</g>
<defs>
<clipPath id="clip0_3969_167">
<rect width="32" height="32" fill="white"/>
</clipPath>
</defs>
</svg>
