<svg width="32" height="32" viewBox="0 0 32 32" fill="none" xmlns="http://www.w3.org/2000/svg">
<rect width="32" height="32" fill="#FFCB1F"/>
<path d="M4.4143 26.4717C3.63273 26.4717 2.89091 26.0111 2.57479 25.2485C2.15685 24.24 2.64121 23.0856 3.65648 22.6705L26.8987 13.1636C27.9139 12.7491 29.0771 13.2296 29.495 14.2385C29.913 15.2475 29.4291 16.4019 28.4133 16.817L5.17115 26.3224C4.92339 26.4233 4.66691 26.4717 4.4143 26.4717Z" fill="black"/>
<path d="M4.4143 18.9411C3.63273 18.9411 2.89091 18.4809 2.57479 17.7178C2.15685 16.7093 2.64121 15.5544 3.65648 15.1394L26.8987 5.63391C27.9139 5.2184 29.0771 5.69985 29.495 6.70834C29.913 7.71682 29.4291 8.87125 28.4133 9.28676L5.17115 18.7917C4.92339 18.8935 4.66691 18.9411 4.4143 18.9411Z" fill="black"/>
<path d="M4.41411 11.1641C3.62914 11.1641 2.88538 10.6996 2.5712 9.93259C2.15762 8.92216 2.64684 7.77016 3.66405 7.35901L17.922 1.60046C18.9397 1.1898 20.0994 1.67562 20.5135 2.68652C20.9276 3.69646 20.4379 4.84895 19.4207 5.2601L5.16271 11.0182C4.91738 11.1171 4.66381 11.1641 4.41411 11.1641Z" fill="black"/>
<path d="M13.3634 30.5454C12.5775 30.5454 11.8342 30.0805 11.5205 29.3134C11.1065 28.3035 11.5962 27.151 12.6134 26.7394L26.8708 20.9813C27.8885 20.5707 29.0488 21.0565 29.4624 22.0674C29.8764 23.0773 29.3867 24.2298 28.3695 24.641L14.1116 30.399C13.8662 30.4979 13.6127 30.5454 13.3634 30.5454Z" fill="black"/>
</svg>
