<svg width="32" height="32" viewBox="0 0 32 32" fill="none" xmlns="http://www.w3.org/2000/svg">
<path d="M9.63764 13.5717C9.78823 13.5717 9.90117 13.534 10.0141 13.4964L13.7788 11.4634C14.1553 11.2752 14.2682 10.7858 14.08 10.4093C13.8918 10.0329 13.4023 9.91992 13.0259 10.1082L9.29882 12.1411C8.92235 12.254 8.73411 12.6305 8.80941 13.007C8.92235 13.3834 9.29882 13.647 9.63764 13.5717ZM15.36 16.5458C15.4729 16.5458 15.6235 16.5082 15.7365 16.4329L21.7223 13.1952C21.9482 13.0823 22.0988 12.8187 22.0988 12.5552C22.0988 12.254 21.9859 11.9905 21.76 11.8776C21.4965 11.727 21.2329 11.727 20.9694 11.8399L14.9835 15.0776C14.6447 15.2282 14.4188 15.6046 14.5318 15.9811C14.6071 16.3576 14.9835 16.5834 15.36 16.5458ZM30.8706 12.2917C30.72 11.8399 30.3812 11.4634 29.9671 11.2752L23.4918 7.84933C22.4376 7.32227 21.1953 7.32227 20.1035 7.84933L19.5765 8.07521L15.0965 5.6658C14.0423 5.13874 12.8 5.13874 11.7082 5.6658L1.31764 11.2752C0.790583 11.5011 0.451759 11.9905 0.376465 12.5552V18.2776C0.376465 18.5787 0.527053 18.8423 0.790583 18.9552L13.9671 26.1082C15.0212 26.6352 16.3012 26.6352 17.3553 26.1082L30.4941 18.8799C30.7576 18.767 30.9082 18.5034 30.9082 18.2023V12.5552C30.9082 12.4799 30.8706 12.367 30.8706 12.2917ZM2.07058 12.6305L12.4235 7.05874C13.0259 6.79521 13.7412 6.79521 14.3812 7.05874L19.5765 9.84463L20.8188 9.16698C21.4588 8.90345 22.1741 8.90345 22.7765 9.16698L29.2141 12.6305L29.2894 12.6682L29.2141 12.7058L16.64 19.4823C16 19.7834 15.2847 19.7834 14.6823 19.4823L2.07058 12.6305ZM16.6023 24.7905C16 25.054 15.2847 25.054 14.6823 24.7905L1.91999 17.8258V14.3623L13.9294 20.8376C14.9835 21.3646 16.2635 21.3646 17.3176 20.8376L29.3647 14.3623V17.7505L16.6023 24.7905Z" fill="black"/>
</svg>
