<svg width="32" height="32" viewBox="0 0 32 32" fill="none" xmlns="http://www.w3.org/2000/svg">
<path d="M26.425 18.65L26.0625 17.1875C25.95 16.7375 25.5 16.4625 25.05 16.575L25.775 19.7125C26.25 19.6 26.5375 19.1125 26.425 18.65Z" fill="#F08419"/>
<path d="M12.05 22C11.9375 21.9875 11.825 21.9375 11.7375 21.85C11.4625 21.6125 11.4375 21.2125 11.675 20.9375L12.975 19.4375C13.15 19.225 13.4375 19.1625 13.7 19.2625L15.55 19.9875C15.8875 20.1125 16.05 20.4875 15.9125 20.825C15.7875 21.1625 15.4125 21.325 15.075 21.1875L13.65 20.6375L12.65 21.8C12.5 21.9625 12.2625 22.0375 12.05 22Z" fill="#F08419"/>
<path d="M17.9 20.55C17.7875 20.5375 17.675 20.4875 17.5875 20.4C17.3125 20.1625 17.2875 19.7625 17.525 19.4875L18.825 17.9875C19 17.775 19.2875 17.7125 19.55 17.8125L21.4 18.5375C21.7375 18.6625 21.9 19.0375 21.7625 19.375C21.6375 19.7125 21.2625 19.875 20.925 19.7375L19.5 19.1875L18.5 20.35C18.35 20.5125 18.125 20.5875 17.9 20.55Z" fill="#F08419"/>
<path d="M6.625 22.0625L6.9125 23.2C7.05 23.75 7.6125 24.0875 8.1625 23.95L7.3875 20.825C6.825 20.95 6.4875 21.5125 6.625 22.0625Z" fill="#F08419"/>
<path d="M23.95 12.95C23.95 12.95 23.6625 12.825 23.025 12.725C21.7 12.5 18.875 12.3625 14.075 13.55C6.975 15.3125 6.8125 17.2 6.8125 17.2L8.7 24.8C9.3625 24.775 10.075 24.725 10.8375 24.625L9.1125 17.675C9.725 17.2375 11.2125 16.425 14.575 15.6C18.5125 14.625 20.925 14.6125 22.2 14.75L23.7625 21.025C24.4625 20.7 25.1125 20.375 25.7 20.05L23.95 12.95Z" fill="#2F788A"/>
<path d="M13.325 12.8625C12.3 13.1125 11.9375 13.3 11.9375 13.3L12.05 13.85C12.3125 13.7625 12.9 13.5625 13.6375 13.35C14.4375 13.125 15.4 12.8875 16.3 12.7625C16.675 12.7125 17.05 12.6875 17.3875 12.6875L17.3125 12.2625C17.3125 12.2625 16.9125 12.225 15.8875 12.3625L14.6625 11.2L16.55 10.775C17.1125 10.65 17.3625 9.9875 17.025 9.525L14.225 5.6875C13.925 5.925 13.575 6.1125 13.1875 6.225L14.3 8.975L12.8125 9.2625C12.0625 9.4 11.7 10.25 12.1 10.9L13.325 12.8625Z" fill="#2F788A"/>
<path d="M9.15 26.6375C9.15 26.6375 9.35 27.125 10.5875 27.325C11.55 27.4875 13.1375 27.475 15.7375 26.9375C16.225 26.8375 16.75 26.725 17.3 26.5875C18.3 26.3375 19.2 26.075 20 25.825C24.1 24.4875 25.6625 23.0875 26.125 22.5875C26.225 22.475 26.2625 22.325 26.225 22.175L25.925 20.95C23.9875 22.125 21.4375 23.2375 18.575 24.1C14.8875 25.2125 11.4125 25.675 8.875 25.525L9.15 26.6375Z" fill="#2F788A"/>
<path d="M30.375 13.9875C29.05 7.06249 22.9625 2.02499 15.9125 2.02499C15.7 2.02499 15.475 2.02499 15.2625 2.03749L15.0625 2.04999C15.2 2.38749 15.275 2.76249 15.275 3.14999C15.275 3.64999 15.15 4.12499 14.9375 4.53749L15.3125 4.52499C15.5125 4.51249 15.725 4.51249 15.9375 4.51249C16.6 4.51249 17.2625 4.56249 17.9125 4.67499C22.9625 5.51249 27 9.43749 27.9625 14.45C28.575 17.6625 27.9125 20.925 26.075 23.6375C24.8375 25.4625 23.15 26.9125 21.175 27.8375C21.1625 27.8375 21.1625 27.85 21.15 27.85L20.1875 26.1125C18.0875 26.8875 16.25 27.1875 15.7625 27.2875L15.775 29.0125C13.375 28.9875 11.05 28.2625 9.05 26.9C6.3375 25.0625 4.5125 22.2875 3.9 19.075C3.3875 16.425 3.7625 13.75 4.9625 11.325C6.125 8.98749 8.0375 7.04999 10.35 5.86249L10.6 5.73749C9.875 5.27499 9.3625 4.52499 9.225 3.64999L9.1375 3.69999C6.35 5.12499 4.075 7.44999 2.6875 10.2625C1.2625 13.1625 0.824999 16.375 1.425 19.5375C2.1625 23.4 4.375 26.75 7.625 28.9625C9.4125 30.175 11.3875 30.9625 13.4875 31.3125C14.275 31.4375 15.075 31.5125 15.8625 31.5125C16.8 31.5125 17.7375 31.425 18.6625 31.25C22.525 30.5125 25.875 28.3125 28.0875 25.05C30.3125 21.775 31.1125 17.85 30.375 13.9875Z" fill="#2F788A"/>
<path d="M11.825 0.749997C11.75 0.762497 11.675 0.787497 11.6 0.799997L12.8375 2.975L12.45 3.6375L11.725 3.6125L10.5 1.45C9.9375 2.025 9.65 2.85 9.8125 3.7125C10.075 5.0875 11.4 5.9875 12.775 5.725C14.15 5.4625 15.05 4.1375 14.7875 2.7625C14.525 1.3875 13.2 0.487497 11.825 0.749997Z" fill="#F08419"/>
</svg>
