<svg width="32" height="32" viewBox="0 0 32 32" fill="none" xmlns="http://www.w3.org/2000/svg">
<path d="M16 32C24.8366 32 32 24.8366 32 16C32 7.16344 24.8366 0 16 0C7.16344 0 0 7.16344 0 16C0 24.8366 7.16344 32 16 32Z" fill="black"/>
<path d="M10.3818 18.5741C10.3816 18.5237 10.3615 18.4753 10.3256 18.439L9.27134 17.3548C9.25262 17.336 9.23017 17.321 9.20526 17.3108C9.18041 17.3006 9.15363 17.2955 9.12665 17.2957C9.08478 17.2969 9.04441 17.3114 9.01182 17.337C9.00809 17.336 9.00409 17.336 9.00035 17.337C8.28601 17.941 7.35582 18.4244 6.46005 18.4244C4.89937 18.4244 3.89222 17.308 3.89222 15.9782C3.89222 14.6485 4.87411 13.5309 6.39689 13.5309C7.09283 13.5309 8.00467 13.8424 8.75342 14.3839C8.75342 14.3839 8.75342 14.3839 8.7603 14.3839C8.79865 14.4147 8.84782 14.4297 8.89737 14.4257C8.94697 14.4218 8.99294 14.3991 9.02558 14.3627L10.0695 13.2607C10.1034 13.2251 10.1227 13.1786 10.1234 13.1301C10.1231 13.1008 10.1159 13.072 10.1024 13.0459C10.0888 13.0198 10.0694 12.997 10.0454 12.9793C10.043 12.9748 10.0394 12.971 10.035 12.9682C8.88846 12.1796 7.52222 11.749 6.11783 11.7333C3.43745 11.7367 1.6 13.6816 1.6 15.9704C1.6 18.3072 3.42482 20.2131 6.18099 20.2131C7.69635 20.2014 9.15945 19.6732 10.3152 18.7203C10.3365 18.702 10.3535 18.6795 10.3649 18.6542C10.3765 18.629 10.3822 18.6017 10.3818 18.5741Z" fill="white"/>
<path d="M19.1163 13.1804C18.348 12.3988 17.2157 11.9813 15.6802 11.9813H12.0926C12.0393 11.9818 11.9884 12.0028 11.9508 12.0395C11.9132 12.0763 11.892 12.1259 11.8917 12.1778V19.7699C11.8917 19.8217 11.9128 19.8714 11.9505 19.9081C11.9882 19.9447 12.0393 19.9653 12.0926 19.9653H15.6802C17.3041 19.9653 18.3354 19.5131 19.0531 18.8276C19.8088 18.1052 20.2107 17.078 20.2107 15.9649C20.229 14.9342 19.8369 13.9366 19.1163 13.1804ZM17.2662 17.6463C16.901 17.9891 16.4738 18.1722 15.6297 18.1722H14.0943V13.7822H15.632C16.5381 13.7822 16.9665 14.0054 17.3317 14.3817C17.7187 14.787 17.9288 15.2972 17.9288 15.995C17.9288 16.7409 17.6992 17.2433 17.2662 17.6463Z" fill="white"/>
<path d="M30.2907 19.7319L26.5009 15.1543L29.7085 12.2392C29.7246 12.2252 29.7373 12.2079 29.7458 12.1886C29.7544 12.1694 29.7585 12.1485 29.7578 12.1275C29.7578 12.0889 29.7422 12.0519 29.7142 12.0245C29.6862 11.9971 29.6482 11.9815 29.6086 11.9813H27.275C27.224 11.9814 27.1751 12.0006 27.1383 12.0348L23.9596 14.979V12.1766C23.9596 12.1248 23.9384 12.0751 23.9007 12.0385C23.863 12.0018 23.8119 11.9813 23.7585 11.9813H21.9498C21.8967 11.9815 21.8459 12.0023 21.8085 12.0389C21.771 12.0755 21.75 12.125 21.75 12.1766V19.7688C21.7512 19.8195 21.7725 19.8679 21.8096 19.9037C21.8466 19.9395 21.8965 19.96 21.9487 19.9608H23.7632C23.8165 19.9608 23.8676 19.9402 23.9053 19.9036C23.943 19.8669 23.9641 19.8172 23.9641 19.7654V17.4509L24.9586 16.5332L27.7045 19.8961C27.7226 19.919 27.7459 19.9378 27.7726 19.9507C27.7992 19.9637 27.8286 19.9706 27.8584 19.9708H30.1793C30.219 19.9708 30.2571 19.9556 30.2853 19.9284C30.3135 19.9012 30.3294 19.8643 30.3297 19.8257C30.3292 19.7908 30.3152 19.7574 30.2907 19.7319Z" fill="white"/>
</svg>
