<svg width="32" height="32" viewBox="0 0 32 32" fill="none" xmlns="http://www.w3.org/2000/svg">
<path fill-rule="evenodd" clip-rule="evenodd" d="M27.0453 3.11285H4.95351C4.71178 3.11285 4.47241 3.1605 4.24911 3.25307C4.0258 3.34564 3.82292 3.48131 3.65208 3.65234C3.48124 3.82337 3.34578 4.02639 3.25344 4.2498C3.16111 4.47321 3.11372 4.71263 3.11397 4.95438V27.045C3.11372 27.2867 3.16111 27.5262 3.25344 27.7496C3.34578 27.973 3.48124 28.176 3.65208 28.347C3.82292 28.5181 4.0258 28.6537 4.24911 28.7463C4.47241 28.8389 4.71178 28.8865 4.95351 28.8865H27.0453C27.5336 28.8865 28.002 28.6925 28.3474 28.3472C28.6927 28.0018 28.8867 27.5334 28.8867 27.045V4.95438C28.8867 4.46597 28.6927 3.99758 28.3474 3.65222C28.002 3.30687 27.5336 3.11285 27.0453 3.11285ZM11.0911 23.3639C11.0911 23.8523 10.8971 24.3207 10.5517 24.666C10.2064 25.0114 9.73799 25.2054 9.24961 25.2054C8.76122 25.2054 8.29284 25.0114 7.9475 24.666C7.60216 24.3207 7.40815 23.8523 7.40815 23.3639V8.63551C7.40815 8.39368 7.45578 8.15422 7.54832 7.93079C7.64086 7.70737 7.7765 7.50435 7.9475 7.33335C8.1185 7.16235 8.3215 7.02671 8.54491 6.93417C8.76833 6.84162 9.00778 6.79398 9.24961 6.79398C9.49143 6.79398 9.73089 6.84162 9.9543 6.93417C10.1777 7.02671 10.3807 7.16235 10.5517 7.33335C10.7227 7.50435 10.8583 7.70737 10.9509 7.93079C11.0434 8.15422 11.0911 8.39368 11.0911 8.63551V23.3639ZM17.8399 23.3639C17.8478 23.6106 17.8061 23.8564 17.7172 24.0866C17.6283 24.3169 17.494 24.5269 17.3223 24.7042C17.1506 24.8816 16.945 25.0226 16.7178 25.1189C16.4905 25.2152 16.2462 25.2648 15.9994 25.2648C15.7526 25.2648 15.5083 25.2152 15.281 25.1189C15.0537 25.0226 14.8481 24.8816 14.6764 24.7042C14.5048 24.5269 14.3705 24.3169 14.2815 24.0866C14.1926 23.8564 14.1509 23.6106 14.1589 23.3639V17.8412C14.1509 17.5945 14.1926 17.3487 14.2815 17.1185C14.3705 16.8882 14.5048 16.6782 14.6764 16.5008C14.8481 16.3235 15.0537 16.1825 15.281 16.0862C15.5083 15.9899 15.7526 15.9403 15.9994 15.9403C16.2462 15.9403 16.4905 15.9899 16.7178 16.0862C16.945 16.1825 17.1506 16.3235 17.3223 16.5008C17.494 16.6782 17.6283 16.8882 17.7172 17.1185C17.8061 17.3487 17.8478 17.5945 17.8399 17.8412V23.3639ZM22.7434 25.2054C22.3792 25.2054 22.0232 25.0974 21.7204 24.895C21.4175 24.6927 21.1815 24.4051 21.0421 24.0686C20.9028 23.7321 20.8663 23.3618 20.9373 23.0046C21.0084 22.6474 21.1838 22.3193 21.4413 22.0617C21.6988 21.8042 22.027 21.6288 22.3842 21.5577C22.7414 21.4867 23.1116 21.5231 23.4481 21.6625C23.7846 21.8019 24.0722 22.0379 24.2745 22.3408C24.4769 22.6436 24.5849 22.9997 24.5849 23.3639C24.5851 23.6058 24.5377 23.8453 24.4452 24.0689C24.3528 24.2924 24.2171 24.4955 24.0461 24.6666C23.875 24.8376 23.6719 24.9733 23.4484 25.0657C23.2249 25.1582 22.9853 25.2056 22.7434 25.2054ZM22.7434 19.6827C22.3792 19.6827 22.0232 19.5747 21.7204 19.3724C21.4175 19.17 21.1815 18.8824 21.0421 18.5459C20.9028 18.2094 20.8663 17.8392 20.9373 17.4819C21.0084 17.1247 21.1838 16.7966 21.4413 16.5391C21.6988 16.2815 22.027 16.1061 22.3842 16.0351C22.7414 15.964 23.1116 16.0005 23.4481 16.1399C23.7846 16.2792 24.0722 16.5153 24.2745 16.8181C24.4769 17.121 24.5849 17.477 24.5849 17.8412C24.5849 18.083 24.5372 18.3225 24.4447 18.5459C24.3522 18.7694 24.2165 18.9724 24.0455 19.1434C23.8745 19.3144 23.6715 19.45 23.4481 19.5426C23.2247 19.6351 22.9852 19.6827 22.7434 19.6827ZM22.7434 14.1582C22.3791 14.1582 22.023 14.0501 21.7202 13.8477C21.4173 13.6452 21.1813 13.3575 21.0419 13.0209C20.9026 12.6843 20.8663 12.3139 20.9375 11.9567C21.0087 11.5994 21.1843 11.2713 21.442 11.0138C21.6997 10.7563 22.028 10.5811 22.3853 10.5103C22.7427 10.4394 23.113 10.4762 23.4494 10.6158C23.7859 10.7555 24.0733 10.9919 24.2755 11.2949C24.4776 11.598 24.5852 11.9543 24.5849 12.3186C24.5849 12.5603 24.5372 12.7997 24.4447 13.023C24.3521 13.2463 24.2164 13.4492 24.0454 13.62C23.8744 13.7909 23.6714 13.9263 23.448 14.0187C23.2246 14.111 22.9851 14.1584 22.7434 14.1582Z" fill="#2B88C9"/>
<path opacity="0.3" fill-rule="evenodd" clip-rule="evenodd" d="M31.8875 21.9688L24.3339 1.21001C24.1666 0.751985 23.8246 0.378966 23.3828 0.172768C22.941 -0.0334294 22.4354 -0.0559758 21.9769 0.110078L1.2112 7.66397C0.983958 7.74675 0.77525 7.87348 0.59699 8.03692C0.418731 8.20037 0.274412 8.39733 0.172276 8.61656C0.0701393 8.83579 0.0121853 9.07299 0.00172375 9.31461C-0.00873784 9.55624 0.0284977 9.79757 0.111304 10.0248L7.66684 30.7894C7.83403 31.2479 8.17636 31.6212 8.61865 31.8275C9.06094 32.0337 9.567 32.056 10.0257 31.8893L30.7914 24.3354C31.2504 24.1667 31.6236 23.8227 31.8291 23.3789C32.0346 22.9352 32.0556 22.428 31.8875 21.9688ZM11.0911 23.3562C11.0911 23.8446 10.8971 24.313 10.5517 24.6584C10.2064 25.0037 9.738 25.1977 9.24961 25.1977C8.76123 25.1977 8.29284 25.0037 7.9475 24.6584C7.60216 24.313 7.40815 23.8446 7.40815 23.3562V8.6221C7.40815 8.1337 7.60216 7.6653 7.9475 7.31995C8.29284 6.97459 8.76123 6.78058 9.24961 6.78058C9.738 6.78058 10.2064 6.97459 10.5517 7.31995C10.8971 7.6653 11.0911 8.1337 11.0911 8.6221V23.3562ZM17.8399 23.3562C17.8245 23.8341 17.6238 24.2872 17.2803 24.6198C16.9368 24.9524 16.4775 25.1383 15.9994 25.1383C15.5213 25.1383 15.0619 24.9524 14.7185 24.6198C14.375 24.2872 14.1743 23.8341 14.1589 23.3562V17.8316C14.1743 17.3538 14.375 16.9006 14.7185 16.568C15.0619 16.2355 15.5213 16.0495 15.9994 16.0495C16.4775 16.0495 16.9368 16.2355 17.2803 16.568C17.6238 16.9006 17.8245 17.3538 17.8399 17.8316V23.3562ZM22.7492 25.1958C22.3849 25.1958 22.0288 25.0878 21.7259 24.8853C21.423 24.6829 21.187 24.3952 21.0477 24.0586C20.9084 23.722 20.872 23.3516 20.9432 22.9943C21.0144 22.637 21.19 22.3089 21.4477 22.0515C21.7055 21.794 22.0338 21.6188 22.3911 21.5479C22.7484 21.4771 23.1187 21.5138 23.4552 21.6535C23.7916 21.7932 24.0791 22.0295 24.2812 22.3326C24.4833 22.6357 24.591 22.9919 24.5906 23.3562C24.5906 23.598 24.543 23.8373 24.4504 24.0606C24.3578 24.284 24.2222 24.4868 24.0512 24.6577C23.8801 24.8285 23.6771 24.964 23.4537 25.0563C23.2303 25.1487 22.9909 25.1961 22.7492 25.1958ZM22.7492 19.6732C22.385 19.6732 22.0289 19.5652 21.7261 19.3628C21.4233 19.1605 21.1873 18.8728 21.0479 18.5364C20.9085 18.1999 20.872 17.8296 20.9431 17.4724C21.0141 17.1152 21.1895 16.787 21.4471 16.5295C21.7046 16.2719 22.0327 16.0965 22.3899 16.0255C22.7471 15.9544 23.1174 15.9909 23.4539 16.1303C23.7903 16.2697 24.0779 16.5057 24.2803 16.8085C24.4826 17.1114 24.5906 17.4674 24.5906 17.8316C24.5909 18.0735 24.5434 18.3131 24.451 18.5367C24.3585 18.7602 24.2229 18.9633 24.0518 19.1343C23.8808 19.3054 23.6777 19.441 23.4542 19.5335C23.2306 19.626 22.9911 19.6734 22.7492 19.6732ZM22.7492 14.1505C22.385 14.1505 22.0289 14.0425 21.7261 13.8402C21.4233 13.6378 21.1873 13.3502 21.0479 13.0137C20.9085 12.6772 20.872 12.3069 20.9431 11.9497C21.0141 11.5925 21.1895 11.2644 21.4471 11.0068C21.7046 10.7493 22.0327 10.5739 22.3899 10.5028C22.7471 10.4318 23.1174 10.4683 23.4539 10.6076C23.7903 10.747 24.0779 10.983 24.2803 11.2859C24.4826 11.5887 24.5906 11.9448 24.5906 12.309C24.5911 12.5507 24.544 12.7902 24.4519 13.0137C24.3598 13.2372 24.2245 13.4404 24.0539 13.6116C23.8832 13.7828 23.6805 13.9187 23.4573 14.0115C23.234 14.1043 22.9947 14.1522 22.753 14.1524L22.7492 14.1505Z" fill="#2B88C9"/>
</svg>
