<svg width="32" height="32" viewBox="0 0 32 32" fill="none" xmlns="http://www.w3.org/2000/svg">
<g clip-path="url(#clip0_3468_263)">
<path d="M5.63263 27.3539C2.67793 27.3539 0.273926 24.9496 0.273926 21.9944C0.273926 19.1243 2.51776 16.7728 5.38201 16.6408L5.77848 16.6225L5.62076 16.2581C5.41908 15.7919 5.31674 15.2965 5.31674 14.7847C5.31674 12.7364 6.9827 11.0702 9.03078 11.0702C11.0788 11.0702 12.7448 12.7364 12.7448 14.7847C12.7448 14.9321 12.7359 15.0819 12.7181 15.2297L12.681 15.5407L15.5443 15.4992L15.5403 15.1981C15.5398 15.1803 15.5398 15.162 15.5398 15.1437C15.5398 11.8197 18.2439 9.11523 21.5674 9.11523C24.8909 9.11523 27.5949 11.8197 27.5949 15.1437C27.5949 15.3064 27.588 15.473 27.5747 15.6386L27.5575 15.8507L27.759 15.9199C30.132 16.7337 31.7266 18.9675 31.7266 21.4782C31.7266 24.7176 29.0918 27.3529 25.853 27.3529H5.63263V27.3539Z" fill="white"/>
<path d="M21.5668 9.38973C23.1038 9.38973 24.5488 9.98849 25.6353 11.0752C26.7219 12.162 27.3205 13.6071 27.3205 15.1443C27.3205 15.299 27.3141 15.4582 27.3012 15.617L27.2667 16.0417L27.6696 16.1801C29.9321 16.9563 31.4518 19.0858 31.4518 21.4793C31.4518 22.9754 30.8694 24.382 29.8115 25.4396C28.7537 26.4977 27.3477 27.0802 25.8518 27.0802H5.63258C2.82865 27.0802 0.547736 24.7988 0.547736 21.9945C0.547736 20.6773 1.049 19.4284 1.95959 18.4781C2.8672 17.5303 4.08675 16.9751 5.39431 16.9148L6.18724 16.8782L5.87183 16.1494C5.68499 15.7178 5.59057 15.2585 5.59057 14.7848C5.59057 12.8877 7.1339 11.3442 9.03071 11.3442C10.9275 11.3442 12.4709 12.8877 12.4709 14.7848C12.4709 14.9213 12.4625 15.0602 12.4462 15.1977L12.372 15.8197L12.9983 15.8108L15.2748 15.7776L15.822 15.7697L15.8146 15.2224L15.8141 15.1942C15.8136 15.1779 15.8136 15.1611 15.8136 15.1448C15.8136 13.6076 16.4123 12.1624 17.4989 11.0757C18.5854 9.98849 20.0299 9.38973 21.5668 9.38973ZM21.5668 8.84143C18.0866 8.84143 15.2654 11.6631 15.2654 15.1438C15.2654 15.1725 15.2659 15.2006 15.2664 15.2293L12.9899 15.2625C13.0087 15.1057 13.0186 14.9465 13.0186 14.7848C13.0186 12.5822 11.233 10.7964 9.03071 10.7964C6.8284 10.7964 5.04283 12.5822 5.04283 14.7848C5.04283 15.347 5.15948 15.882 5.3691 16.367C2.38078 16.5049 0 18.9711 0 21.9945C0 25.1059 2.52166 27.6279 5.63258 27.6279H25.8518C29.2476 27.6279 32 24.8749 32 21.4788C32 18.7812 30.2633 16.4901 27.8475 15.6614C27.8614 15.4909 27.8687 15.3183 27.8687 15.1443C27.8683 11.6636 25.0471 8.84143 21.5668 8.84143Z" fill="#DCE1E6"/>
<path d="M8.26294 21.7749H23.7365L22.997 6.83699L23.5495 4.00198L20.152 4V6.83699H17.5458V4H14.4541V6.83699H11.8479V4L8.44981 4.00198L9.00297 6.83699L8.26294 21.7749Z" fill="url(#paint0_linear_3468_263)"/>
<path d="M10.9873 11.1345C10.9868 11.1691 10.9858 11.2042 10.9858 11.2393C10.9858 14.0086 13.2307 16.2537 15.9995 16.2537C18.7683 16.2537 21.0132 14.0086 21.0132 11.2393C21.0132 11.2042 21.0126 11.1696 21.0116 11.1345H10.9873Z" fill="white"/>
<path d="M16 15.5141C17.1196 15.5141 18.0273 14.6063 18.0273 13.4865C18.0273 12.3666 17.1196 11.4589 16 11.4589C14.8803 11.4589 13.9727 12.3666 13.9727 13.4865C13.9727 14.6063 14.8803 15.5141 16 15.5141Z" fill="black"/>
<path d="M25.5335 17.5698C23.8764 17.5698 22.5031 18.7836 22.2531 20.3707C21.9821 20.2951 21.6974 20.2535 21.4022 20.2535C20.593 20.2535 19.8549 20.5591 19.2968 21.0609C18.7402 20.2807 17.8281 19.772 16.7969 19.772C15.8863 19.772 15.0687 20.1685 14.5061 20.7979C13.9668 20.1665 13.1655 19.766 12.2702 19.766C12.0215 19.766 11.7808 19.7972 11.5504 19.855C10.9696 19.1826 10.1114 18.7564 9.15335 18.7564C7.40434 18.7564 5.98657 20.1744 5.98657 21.9237C5.98657 23.6729 7.40434 25.0909 9.15335 25.0909C9.55376 25.0909 9.93689 25.0159 10.2893 24.8804C10.8119 25.3569 11.5069 25.6482 12.2702 25.6482C13.1017 25.6482 13.8516 25.3026 14.3865 24.7478C14.949 25.4593 15.8191 25.9167 16.7964 25.9167C17.5602 25.9167 18.2582 25.6372 18.7955 25.1755C19.3626 26.0085 20.3181 26.5564 21.4022 26.5564C22.9234 26.5564 24.1924 25.4786 24.4879 24.0447C24.8166 24.1535 25.1676 24.2138 25.5335 24.2138C27.3675 24.2138 28.8544 22.7266 28.8544 20.8923C28.8544 19.058 27.3681 17.5698 25.5335 17.5698Z" fill="white"/>
</g>
<defs>
<linearGradient id="paint0_linear_3468_263" x1="16.0271" y1="23.187" x2="15.808" y2="4.55278" gradientUnits="userSpaceOnUse">
<stop stop-color="#F05145"/>
<stop offset="0.24" stop-color="#F17B6E"/>
<stop offset="0.48" stop-color="#F69674"/>
<stop offset="0.78" stop-color="#F8A575"/>
<stop offset="1" stop-color="#F9AB77"/>
</linearGradient>
<clipPath id="clip0_3468_263">
<rect width="32" height="23.626" fill="white" transform="translate(0 4)"/>
</clipPath>
</defs>
</svg>
