<svg width="32" height="32" viewBox="0 0 32 32" fill="none" xmlns="http://www.w3.org/2000/svg">
<g clip-path="url(#clip0_4831_16)">
<path d="M19.8227 13.0768C19.7662 13.0655 19.721 13.0542 19.6758 13.0485C19.7606 13.0655 19.8736 13.0937 20.0092 13.1107C19.9414 13.0994 19.8792 13.0881 19.8227 13.0768ZM8.61169 13.1672C8.55518 13.1728 8.49868 13.1728 8.43087 13.1728H8.60604C8.63994 13.1728 8.6682 13.1728 8.7021 13.1672C8.73035 13.1672 8.75296 13.1672 8.77556 13.1615C8.7247 13.1672 8.6682 13.1672 8.61169 13.1672ZM19.8227 13.0768C19.7662 13.0655 19.721 13.0542 19.6758 13.0485C19.7606 13.0655 19.8736 13.0937 20.0092 13.1107C19.9414 13.0994 19.8792 13.0881 19.8227 13.0768ZM20.1787 0H1.65566C0.740244 0 0 0.745631 0 1.65508L0.0113014 30.3506C0.0113014 31.26 0.751545 32 1.66131 32H20.1787C26.7053 32 32 26.7071 32 20.1829V11.8171C32 5.29285 26.7053 0 20.1787 0ZM19.3763 20.4371C19.3594 20.4766 19.348 20.5105 19.3367 20.5331C18.9864 20.8607 17.3251 22.3859 14.7201 22.4085C12.1208 22.4311 10.4369 20.9398 10.0809 20.6122C10.0357 20.5613 9.9057 20.3975 9.8944 20.1546C9.88875 20.1094 9.87745 19.7875 10.1204 19.5785C10.4143 19.3299 10.8098 19.4655 10.8833 19.4881C11.0245 19.5333 11.1263 19.6067 11.1828 19.6575C11.4936 19.9287 12.7593 20.9793 14.6693 20.9793C16.76 20.9793 18.0992 19.731 18.3648 19.4711C18.3818 19.4655 18.3987 19.4542 18.427 19.4485C18.6361 19.3695 18.9129 19.4034 19.1164 19.5559C19.4159 19.7762 19.4724 20.1772 19.3763 20.4371ZM12.8949 6.62595C12.8949 6.62595 13.0475 5.7504 13.0475 5.74475C13.0475 5.73345 13.0927 5.60353 13.1775 5.54704C13.2227 5.5188 13.2735 5.5075 13.2735 5.5075H16.0706C16.0706 5.5075 16.1102 5.51315 16.1384 5.52445C16.161 5.5301 16.1949 5.54139 16.2232 5.56399C16.2684 5.60918 16.2741 5.69391 16.2741 5.69391C16.3306 6.01024 16.3871 6.33222 16.4436 6.64854C16.6075 7.60318 16.7713 8.56346 16.9352 9.52374V11.4217C16.9352 11.4217 16.9126 11.5008 16.8561 11.6533C16.8504 11.6646 16.8448 11.6872 16.8335 11.7098C16.8222 11.7493 16.7996 11.7945 16.7713 11.851C16.7374 11.9188 16.534 12.3199 16.2063 12.6192C15.9915 12.8226 15.4491 13.2237 14.6975 13.235C14.6975 13.235 13.2961 13.2575 12.5502 11.8623C12.4203 11.6251 12.3977 11.3991 12.3977 11.3991V11.3596C12.3977 11.2466 12.392 10.6196 12.392 9.52939C12.6124 8.25278 12.7819 7.2812 12.8949 6.62595ZM21.5462 26.1931C21.5462 26.1931 21.4784 26.2383 21.3654 26.3061C21.3597 26.3061 21.3597 26.3061 21.3541 26.3174C21.3428 26.323 21.3258 26.3287 21.3088 26.34C21.2862 26.3513 21.2636 26.3626 21.241 26.3739C21.2354 26.3739 21.2297 26.3852 21.2241 26.3852C21.1676 26.4078 21.0998 26.4417 21.032 26.4699C20.9811 26.4868 20.9302 26.5094 20.8794 26.5264C20.7268 26.5829 20.5517 26.6281 20.3595 26.645C20.3256 26.6563 20.2917 26.662 20.2522 26.662H20.2352C20.1505 26.6676 19.9696 26.6676 19.6193 26.6676C19.3198 26.6733 19.2237 26.6676 18.7773 26.6676H10.5273C10.0809 26.6676 9.98481 26.6733 9.68533 26.6676C9.39149 26.6676 9.21632 26.6676 9.12025 26.662H9.0694C9.0694 26.662 8.84902 26.6337 8.76991 26.6224C8.76991 26.6224 8.7134 26.6111 8.60039 26.5829C8.54388 26.5659 8.48737 26.549 8.43087 26.5264C8.38001 26.5094 8.3235 26.4868 8.2783 26.4699C8.22744 26.4473 8.18224 26.4304 8.13703 26.4078C8.13703 26.4078 8.13515 26.4059 8.13138 26.4021C8.09748 26.3908 8.06357 26.3739 8.03532 26.3569C8.02402 26.3513 8.01836 26.3456 8.00706 26.34C7.98446 26.3343 7.96751 26.323 7.95056 26.3117C7.9336 26.3117 7.9223 26.3004 7.90535 26.2891C7.90535 26.2891 7.8884 26.2778 7.88275 26.2722C7.86014 26.2609 7.84319 26.2496 7.82624 26.2383C7.78104 26.2101 7.75843 26.1931 7.75843 26.1931C7.74713 26.1818 7.71888 26.1649 7.67932 26.1366C7.49285 25.9898 7.05209 25.6169 6.80911 25.0408C6.76391 24.9278 6.6848 24.747 6.63959 24.4929C6.60569 24.3064 6.58308 24.0184 6.58308 24.0184V22.3181C6.60004 17.9347 6.60004 14.8279 6.60004 14.8279V13.235C6.60004 11.5799 6.59438 9.96434 6.59438 9.95869C6.59438 9.9361 6.60004 9.9135 6.60004 9.89091V9.87396C6.60004 9.87396 6.60569 9.82312 6.61134 9.80053C6.61699 9.77229 6.61699 9.74969 6.62264 9.73274C6.62829 9.71015 6.62829 9.69885 6.62829 9.6932C6.63394 9.67061 6.63394 9.64801 6.64524 9.62542C6.65089 9.60282 6.66219 9.58023 6.66784 9.54634C6.69045 9.4842 6.71305 9.42771 6.7187 9.41642C6.78086 9.26955 6.98993 8.88544 7.05774 8.76117C7.06339 8.74422 7.11425 8.65384 7.20466 8.46743C7.30072 8.29232 8.35176 6.21924 8.51563 5.90856C8.52693 5.88597 8.56083 5.81818 8.62864 5.7391C8.67385 5.67696 8.73601 5.60918 8.83772 5.55834C8.87727 5.54139 8.95638 5.5075 9.0581 5.5075H11.567C11.567 5.5075 11.5896 5.51315 11.6122 5.51315C11.6179 5.51315 11.6235 5.51315 11.6292 5.51315C11.6405 5.51315 11.6518 5.5188 11.6574 5.52445C11.7083 5.54704 11.7365 5.57529 11.7478 5.60353C11.7987 5.69391 11.7648 5.82948 11.7648 5.84643C11.7648 5.85772 11.471 7.56364 11.471 7.57493C11.471 7.58623 11.1206 9.63107 11.1206 9.64801C11.1206 10.1169 11.115 11.1845 11.115 11.1845C11.115 11.1845 11.0754 11.4726 11.0076 11.6929C11.0076 11.6929 10.9398 11.9075 10.8042 12.1391C10.742 12.2408 10.5047 12.6023 10.0752 12.8565C10.0074 12.896 9.93961 12.9299 9.85485 12.9695C9.83224 12.9751 9.80964 12.9864 9.78139 12.9977C9.77009 13.0034 9.75313 13.009 9.74183 13.009C9.61752 13.0485 9.39714 13.0994 9.06375 13.1389C9.06375 13.1389 9.01854 13.1446 8.92813 13.1502C8.88858 13.1559 8.83772 13.1559 8.77556 13.1559C8.7247 13.1615 8.6682 13.1615 8.61169 13.1615C8.55518 13.1672 8.49868 13.1672 8.43087 13.1672H8.28395C8.28395 13.1672 8.23309 13.1672 8.20484 13.1841C8.18789 13.1898 8.16528 13.1954 8.14268 13.2124C8.12573 13.2293 8.11443 13.2406 8.10878 13.2519C8.09748 13.2688 8.08052 13.3027 8.06922 13.3423V23.9732C8.06922 23.9732 8.08052 24.1087 8.10313 24.2161C8.12573 24.3177 8.15398 24.3855 8.17659 24.4364C8.30655 24.7244 8.52693 24.8883 8.57214 24.9222C8.59474 24.9335 8.61734 24.9504 8.63994 24.9673C8.6682 24.9786 8.69645 24.9956 8.71905 25.0125C8.74166 25.0238 8.75861 25.0351 8.77556 25.0408C8.78686 25.0521 8.80381 25.0577 8.81512 25.0577C8.83772 25.069 8.86032 25.0803 8.88292 25.086C8.89423 25.0916 8.90553 25.0973 8.91118 25.0973C8.95073 25.1086 8.98464 25.1199 9.01854 25.1255C9.12591 25.1481 9.22762 25.1538 9.25587 25.1594C9.26152 25.165 9.26717 25.165 9.27282 25.1594C9.30108 25.165 9.32933 25.165 9.34628 25.165H9.61187C10.516 25.165 12.9232 25.165 14.3641 25.1594H14.9461C16.3871 25.165 18.7943 25.165 19.6984 25.165H19.964C19.964 25.165 20.0092 25.165 20.0374 25.1594H20.0487C20.0487 25.1594 20.077 25.1594 20.1222 25.1538C20.1674 25.1481 20.2296 25.1368 20.2917 25.1255C20.3313 25.1142 20.3765 25.1029 20.416 25.0916C20.416 25.0916 20.4198 25.0897 20.4273 25.086C20.4273 25.086 20.4725 25.069 20.4951 25.0577C20.5064 25.0577 20.5234 25.0521 20.5347 25.0408C20.5573 25.0351 20.5743 25.0238 20.5912 25.0125C20.6138 24.9956 20.6364 24.9843 20.6647 24.9673C20.6703 24.9673 20.676 24.9617 20.676 24.9617C20.6986 24.9447 20.7155 24.9335 20.7325 24.9222C20.7833 24.8883 20.9981 24.7244 21.1337 24.4364C21.1506 24.3855 21.1845 24.3177 21.2071 24.2161C21.2297 24.1087 21.241 23.9732 21.241 23.9732V13.3479C21.2297 13.3084 21.2128 13.2745 21.2015 13.2575C21.1958 13.2462 21.1845 13.235 21.1676 13.218C21.145 13.2011 21.1224 13.1954 21.1054 13.1898C21.0772 13.1785 21.0546 13.1785 21.0263 13.1728H20.8003C20.6195 13.1728 20.4782 13.1615 20.3821 13.1559C20.3313 13.1502 20.2804 13.1446 20.2352 13.1446C20.1505 13.1333 20.077 13.122 20.0092 13.1107C19.9414 13.0994 19.8792 13.0881 19.8227 13.0768C19.7662 13.0655 19.721 13.0542 19.6758 13.0485C19.6362 13.0429 19.6023 13.0259 19.5684 13.0147C19.5515 13.009 19.5402 13.0034 19.5289 13.0034C19.5006 12.9921 19.478 12.9808 19.4554 12.9751C19.3763 12.9412 19.3028 12.9017 19.235 12.8621C18.8056 12.6079 18.5626 12.2464 18.5061 12.1447C18.3648 11.9132 18.3027 11.6985 18.3027 11.6985C18.2349 11.4782 18.1953 11.1901 18.1953 11.1901C18.1953 11.1901 18.1897 10.1225 18.1897 9.65366C18.184 9.63672 17.8393 7.59188 17.8393 7.58058C17.8337 7.56929 17.5455 5.86337 17.5455 5.85207C17.5398 5.82383 17.5116 5.69391 17.5624 5.60918C17.5737 5.59223 17.5907 5.56399 17.6189 5.54704C17.6246 5.54139 17.6302 5.54139 17.6359 5.53575L17.6811 5.5188L17.7376 5.5075H20.2465C20.3539 5.5075 20.433 5.54139 20.4725 5.55834C20.5743 5.60918 20.6308 5.67696 20.6816 5.7391C20.7494 5.81818 20.7833 5.88597 20.7946 5.90856C20.9529 6.21924 22.0095 8.29232 22.0999 8.46743C22.196 8.65384 22.2412 8.74422 22.2525 8.76117C22.3203 8.88544 22.5294 9.26955 22.5916 9.41642C22.5972 9.42771 22.6142 9.4842 22.6368 9.54634C22.6481 9.58023 22.6537 9.60282 22.665 9.62542C22.665 9.64237 22.6707 9.65366 22.6763 9.66496C22.6876 9.7045 22.6933 9.74969 22.6989 9.80053C22.7046 9.84007 22.7102 9.89656 22.7102 9.95869V14.8279C22.7102 14.8279 22.7046 17.9347 22.7272 22.3181V24.0184C22.7272 24.0184 22.6989 24.3064 22.6707 24.4929C22.6255 24.747 22.5464 24.9278 22.5011 25.0408C22.2469 25.6452 21.7722 26.0237 21.6027 26.1536C21.5744 26.1705 21.5575 26.1818 21.5462 26.1931ZM19.8227 13.0768C19.7662 13.0655 19.721 13.0542 19.6758 13.0485C19.7606 13.0655 19.8736 13.0937 20.0092 13.1107C19.9414 13.0994 19.8792 13.0881 19.8227 13.0768Z" fill="#4C2E83"/>
<path d="M6.62263 9.73274C6.62263 9.73274 6.61698 9.77228 6.61133 9.80053V9.77793C6.61133 9.77793 6.61698 9.74969 6.62263 9.73274Z" fill="#4C2E83"/>
<path d="M7.67933 26.1366C7.4759 25.9954 7.02384 25.6113 6.76956 24.9843C6.63395 24.6397 6.59439 24.3177 6.58309 24.2161C6.56614 24.0748 6.56614 23.9054 6.56049 23.5665C6.56049 23.2953 6.56614 23.1654 6.56614 22.883C6.57179 22.5045 6.56049 22.2559 6.56614 22.1091C6.56614 22.1091 6.58309 19.7592 6.58309 14.6697C6.58309 13.3988 6.57744 11.9583 6.57744 10.3371C6.56614 10.162 6.58309 10.0095 6.60004 9.8909C6.60004 9.91349 6.59439 9.93609 6.59439 9.95868C6.59439 9.95868 6.60004 11.5799 6.60004 13.2349V14.8279C6.60004 14.8279 6.60004 17.9347 6.58309 22.3181V24.0183C6.58309 24.0183 6.60569 24.3064 6.6396 24.4928C6.6848 24.747 6.76391 24.9278 6.80912 25.0408C7.0521 25.6169 7.49285 25.9898 7.67933 26.1366Z" fill="#4C2E83"/>
<path d="M7.90535 26.2835C7.90535 26.2835 7.93361 26.3004 7.95056 26.3117C7.93361 26.3117 7.92231 26.3004 7.90535 26.2891C7.8997 26.2835 7.8884 26.2778 7.88275 26.2722C7.8884 26.2722 7.89405 26.2722 7.90535 26.2835Z" fill="#4C2E83"/>
<path d="M9.25588 25.1651C9.19373 25.1651 9.10897 25.1538 9.01855 25.1312C9.12592 25.1538 9.22763 25.1594 9.25588 25.1651Z" fill="#4C2E83"/>
<path d="M9.85486 12.9751C9.85486 12.9751 9.83226 12.9864 9.7814 13.0033C9.80966 12.992 9.83226 12.9807 9.85486 12.9751Z" fill="#4C2E83"/>
<path d="M11.6122 5.51314L11.567 5.5075H9.05809C8.95638 5.5075 8.87727 5.54139 8.83771 5.55833C8.736 5.60917 8.67384 5.67696 8.62863 5.73909C8.56083 5.81817 8.52692 5.88596 8.51562 5.90855C8.35175 6.21923 7.30072 8.29231 7.20465 8.46742C7.11424 8.65383 7.06339 8.74421 7.05774 8.76116C6.98993 8.88543 6.78085 9.26954 6.71869 9.41641C6.71304 9.42771 6.69044 9.48419 6.66784 9.54633C6.66219 9.58022 6.65088 9.60282 6.64523 9.62541C6.66784 9.50679 6.69609 9.43336 6.70174 9.41076C6.75825 9.27519 6.82041 9.18481 6.84301 9.13962C6.97297 8.86283 7.15945 8.54086 7.62281 7.61447C7.84884 7.15692 8.07486 6.71632 8.24439 6.3887C8.3913 6.10626 8.49302 5.90855 8.51562 5.86336V5.85207C8.55517 5.80123 8.65689 5.66001 8.71905 5.62047C8.736 5.60917 8.75295 5.59787 8.75295 5.59787C8.7812 5.58093 8.83206 5.54704 8.89422 5.52444C8.96768 5.5075 9.04679 5.50185 9.04679 5.50185H11.2393C11.2393 5.50185 11.5048 5.5075 11.584 5.50185C11.5953 5.5075 11.6066 5.5075 11.6122 5.51314Z" fill="#4C2E83"/>
<path d="M14.3641 25.165C12.9232 25.1707 10.516 25.1707 9.61187 25.1707H9.34629C9.34629 25.1707 9.30108 25.1707 9.27283 25.165H9.93961C11.7817 25.1594 12.9175 25.165 14.3641 25.165Z" fill="#4C2E83"/>
<path d="M19.235 12.8621C19.0203 12.7435 18.8847 12.6249 18.8395 12.5797C18.8395 12.5797 18.557 12.3142 18.3874 11.964C18.3366 11.8567 18.3027 11.7493 18.3027 11.7493C18.2688 11.6533 18.2518 11.5855 18.2292 11.4669C18.201 11.3426 18.184 11.2805 18.1784 11.1958C18.1727 11.0884 18.1727 11.015 18.1784 10.9698V10.4049C18.1784 10.4049 18.1727 9.65931 18.1727 9.65366C17.8224 7.54669 17.5737 6.02718 17.5285 5.86337C17.5285 5.86337 17.4833 5.68261 17.5511 5.59788C17.5737 5.56963 17.602 5.55269 17.602 5.55269C17.602 5.55269 17.6133 5.55269 17.6189 5.55269C17.5907 5.56963 17.5737 5.59788 17.5624 5.61482C17.5116 5.69956 17.5398 5.82948 17.5455 5.85772C17.5455 5.86902 17.8337 7.57493 17.8393 7.58623C17.8393 7.59753 18.184 9.64236 18.1897 9.65931C18.1897 10.1282 18.1953 11.1958 18.1953 11.1958C18.1953 11.1958 18.2349 11.4838 18.3027 11.7041C18.3027 11.7041 18.3648 11.9188 18.5061 12.1504C18.5626 12.2521 18.8056 12.6136 19.235 12.8678V12.8621Z" fill="#4C2E83"/>
<path d="M20.2352 13.1446C20.0318 13.1276 19.8792 13.1107 19.6984 13.0598C19.6927 13.0598 19.6814 13.0542 19.6758 13.0485C19.7605 13.0655 19.8736 13.0937 20.0092 13.1107C20.077 13.122 20.1504 13.1333 20.2352 13.1446Z" fill="#4C2E83"/>
<path d="M20.2352 26.662C20.2352 26.662 20.0939 26.6733 19.8171 26.6733C19.3141 26.6789 16.5453 26.6733 14.658 26.6676H18.7773C19.2237 26.6676 19.3198 26.6733 19.6193 26.6676C19.9696 26.6676 20.1505 26.6676 20.2352 26.662Z" fill="#4C2E83"/>
<path d="M20.3821 13.1559C20.5065 13.1615 20.6477 13.1728 20.8003 13.1728C20.6195 13.1728 20.4782 13.1615 20.3821 13.1559Z" fill="#4C2E83"/>
<path d="M21.241 13.3479V23.9788C21.241 23.9788 21.2297 24.1144 21.2071 24.2217C21.1845 24.3234 21.1506 24.3912 21.1337 24.442C20.9981 24.7301 20.7833 24.8939 20.7325 24.9278C20.7155 24.9391 20.6986 24.9504 20.676 24.9673C20.7438 24.9108 20.8229 24.8487 20.902 24.764C21.0376 24.6171 21.0998 24.4759 21.1167 24.442C21.2015 24.2556 21.2184 24.0692 21.2241 23.9845V13.3479C21.2241 13.3479 21.2015 13.2632 21.1506 13.2236C21.0828 13.1615 20.9529 13.1785 20.9529 13.1785C20.902 13.1785 20.8511 13.1785 20.8003 13.1785H21.0263C21.0546 13.1785 21.0772 13.1785 21.1054 13.1954C21.1224 13.2011 21.145 13.2067 21.1676 13.2236C21.1845 13.2406 21.1958 13.2519 21.2015 13.2632C21.2128 13.2801 21.2297 13.314 21.241 13.3536V13.3479Z" fill="#4C2E83"/>
<path d="M8.40826 24.764C8.48737 24.8487 8.56648 24.9165 8.63994 24.973C8.61733 24.956 8.59473 24.9391 8.57213 24.9278C8.52692 24.8939 8.30654 24.7301 8.17658 24.442C8.15397 24.3912 8.12572 24.3234 8.10312 24.2217C8.08052 24.1144 8.06921 23.9788 8.06921 23.9788V13.3479C8.08052 13.3084 8.09747 13.2745 8.10877 13.2575C8.11442 13.2462 8.12572 13.2349 8.14267 13.218C8.16528 13.2011 8.18788 13.1954 8.20483 13.1898C8.23309 13.1785 8.25569 13.1785 8.28394 13.1728H8.60603C8.52692 13.1728 8.44781 13.1728 8.3574 13.1728C8.3574 13.1728 8.22743 13.1559 8.15963 13.218C8.10877 13.2575 8.08617 13.3423 8.08617 13.3423V23.9788C8.09182 24.0635 8.10877 24.2499 8.19353 24.4364C8.20483 24.4702 8.27264 24.6115 8.40826 24.7583V24.764Z" fill="#4C2E83"/>
<path d="M8.92815 13.1559C8.87164 13.1615 8.79253 13.1615 8.70212 13.1672C8.73037 13.1672 8.75297 13.1672 8.77558 13.1615C8.82643 13.1615 8.88294 13.1615 8.92815 13.1559Z" fill="#4C2E83"/>
<path d="M9.74184 13.0146C9.70228 13.0316 9.65708 13.0485 9.61187 13.0598C9.4254 13.1107 9.27283 13.1276 9.06375 13.1446C9.39714 13.105 9.61752 13.0542 9.74184 13.0146Z" fill="#4C2E83"/>
<path d="M11.7817 5.86336C11.7365 6.02718 11.4823 7.54668 11.1376 9.65366C11.1376 9.6593 11.1319 10.3993 11.1319 10.4049V10.9698C11.1319 11.015 11.1376 11.0884 11.1319 11.1958C11.1206 11.2805 11.1093 11.3426 11.0811 11.4669C11.0528 11.5855 11.0415 11.6533 11.0076 11.7493C11.0076 11.7493 10.968 11.8567 10.9172 11.964C10.7533 12.3142 10.4708 12.5797 10.4708 12.5797C10.4256 12.6249 10.29 12.7435 10.0752 12.8621C10.5047 12.6079 10.742 12.2464 10.8042 12.1447C10.9398 11.9131 11.0076 11.6985 11.0076 11.6985C11.0754 11.4782 11.115 11.1901 11.115 11.1901C11.115 11.1901 11.1206 10.1225 11.1206 9.65366C11.1206 9.63671 11.471 7.59187 11.471 7.58058C11.471 7.56928 11.7648 5.86336 11.7648 5.85207C11.7648 5.83512 11.7987 5.69955 11.7478 5.60917C11.7365 5.58093 11.7083 5.55269 11.6574 5.53009C11.68 5.53574 11.697 5.54704 11.7083 5.55269C11.7083 5.55269 11.7365 5.56963 11.7535 5.59787C11.8213 5.68261 11.7817 5.86336 11.7817 5.86336Z" fill="#4C2E83"/>
<path d="M14.658 26.6676C12.7706 26.6733 9.99613 26.6789 9.49322 26.6733C9.30674 26.6733 9.18808 26.6676 9.12027 26.662C9.21633 26.662 9.38585 26.662 9.68534 26.662C9.98483 26.6676 10.0809 26.662 10.5273 26.662H14.658V26.6676Z" fill="#4C2E83"/>
<path d="M19.4554 12.9751C19.4554 12.9751 19.5006 12.992 19.5289 13.0033C19.478 12.9864 19.4554 12.9751 19.4554 12.9751Z" fill="#4C2E83"/>
<path d="M20.0374 25.165C20.0092 25.1707 19.9809 25.1707 19.964 25.1707H19.6984C18.7943 25.1707 16.3871 25.1707 14.9461 25.165C16.3927 25.165 17.5285 25.1594 19.3706 25.165H20.0374Z" fill="#4C2E83"/>
<path d="M21.6027 26.1536C21.6027 26.1536 21.5744 26.1818 21.5631 26.1875C21.5179 26.2213 21.4049 26.2948 21.241 26.3739C21.2862 26.3456 21.3258 26.323 21.3653 26.3061C21.4784 26.2383 21.5462 26.1931 21.5462 26.1931C21.5575 26.1818 21.5744 26.1705 21.6027 26.1536Z" fill="#4C2E83"/>
<path d="M22.6763 9.66495C22.6763 9.66495 22.665 9.64236 22.665 9.62541C22.6537 9.60282 22.6481 9.58022 22.6368 9.54633C22.6142 9.48419 22.5972 9.42771 22.5916 9.41641C22.5294 9.26954 22.3203 8.88543 22.2525 8.76116C22.2412 8.74421 22.196 8.65383 22.1 8.46742C22.0095 8.29231 20.9529 6.21923 20.7946 5.90855C20.7833 5.88596 20.7494 5.81817 20.6816 5.73909C20.6308 5.67696 20.5743 5.60917 20.4725 5.55833C20.433 5.54139 20.3539 5.5075 20.2465 5.5075H17.7376C17.7376 5.5075 17.7037 5.51314 17.6811 5.51879C17.6924 5.51879 17.7037 5.5075 17.7206 5.50185C17.8054 5.5075 18.071 5.50185 18.071 5.50185H20.2635C20.2635 5.50185 20.3426 5.5075 20.416 5.52444C20.4782 5.54704 20.5291 5.58093 20.5573 5.59787C20.5573 5.59787 20.5743 5.60917 20.5912 5.62047C20.659 5.67131 20.7946 5.86336 20.7946 5.86901C20.8229 5.9255 20.919 6.11756 21.0602 6.3887C21.2297 6.71632 21.4558 7.15692 21.6874 7.61447C21.8231 7.89125 21.9417 8.1172 22.0378 8.30361C22.1791 8.5804 22.309 8.86848 22.4672 9.13962C22.5181 9.22435 22.5803 9.32603 22.6311 9.48419C22.6368 9.50679 22.6594 9.56893 22.6763 9.66495Z" fill="#4C2E83"/>
<path d="M22.7441 23.5665C22.7441 23.9054 22.7441 24.0748 22.7272 24.2161C22.7159 24.3177 22.6763 24.6397 22.5407 24.9843C22.2695 25.6452 21.7835 26.0349 21.6027 26.1536C21.7722 26.0236 22.2469 25.6452 22.5012 25.0408C22.5464 24.9278 22.6255 24.747 22.6707 24.4928C22.6989 24.3064 22.7272 24.0184 22.7272 24.0184V22.3181C22.7046 17.9347 22.7102 14.8279 22.7102 14.8279V9.95869C22.7102 9.89655 22.7046 9.84006 22.6989 9.80052C22.7046 9.83441 22.7102 9.87395 22.7159 9.91914C22.7385 10.1338 22.7328 10.2976 22.7272 10.3371C22.7102 10.7777 22.7385 11.224 22.7272 11.6646C22.7215 11.9527 22.7159 12.3537 22.7159 12.9186C22.7159 14.489 22.7385 17.2907 22.7385 22.1091C22.7498 22.2559 22.7385 22.5045 22.7385 22.883C22.7441 23.1654 22.7498 23.2953 22.7441 23.5665Z" fill="#4C2E83"/>
</g>
<defs>
<clipPath id="clip0_4831_16">
<rect width="32" height="32" fill="white"/>
</clipPath>
</defs>
</svg>
