<svg width="32" height="32" viewBox="0 0 32 32" fill="none" xmlns="http://www.w3.org/2000/svg">
<path d="M21.3387 10.6613V0.908722C19.6836 0.308316 17.8661 0 16 0H0V21.3387H10.6613V10.6613H21.3387Z" fill="#EF3E42"/>
<path d="M21.3387 10.6613H10.6613V21.3225H16C18.9371 21.3225 21.3387 18.9209 21.3387 15.9838V10.6613Z" fill="white"/>
<path d="M21.3387 0.908722V10.6613H31.0913C29.4361 6.13387 25.8661 2.49899 21.3387 0.908722ZM0 32H10.6613V21.3387H0V32Z" fill="black"/>
<path d="M31.0913 10.6613H21.3387V16C21.3387 18.9371 18.9371 21.3387 16 21.3387H10.6613V32H16C24.86 32 32 24.86 32 16C32 14.1339 31.6755 12.3164 31.0913 10.6613Z" fill="#00A4E4"/>
</svg>
