<svg width="32" height="32" viewBox="0 0 32 32" fill="none" xmlns="http://www.w3.org/2000/svg">
<path d="M16 32C24.8366 32 32 24.8366 32 16C32 7.16344 24.8366 0 16 0C7.16344 0 0 7.16344 0 16C0 24.8366 7.16344 32 16 32Z" fill="#87C60B"/>
<path d="M16 32C24.8366 32 32 24.8366 32 16C32 7.16344 24.8366 0 16 0C7.16344 0 0 7.16344 0 16C0 24.8366 7.16344 32 16 32Z" fill="#87C60B"/>
<path d="M11.1502 10.7996C10.8585 10.5668 10.5341 10.3782 10.1874 10.24C9.77381 10.1101 9.3402 10.0559 8.90738 10.08C8.31223 10.0523 7.71805 10.1522 7.16467 10.373C6.61129 10.5937 6.11151 10.9303 5.69885 11.36C4.84072 12.2967 4.37933 13.5297 4.41173 14.7996C4.38353 15.4295 4.48232 16.0586 4.70221 16.6495C4.92211 17.2404 5.25863 17.7811 5.69173 18.2393C6.1044 18.669 6.60418 19.0056 7.15756 19.2263C7.71094 19.4471 8.30512 19.547 8.90027 19.5193C9.33131 19.5102 9.76026 19.4566 10.1803 19.3593C10.5392 19.2907 10.8723 19.1246 11.1431 18.8793V19.3593H13.1584V5.83965H11.1531V10.7996H11.1502ZM11.1502 17.3596C10.9369 17.5963 10.6575 17.7635 10.3481 17.8396C10.0348 17.9317 9.71148 17.9855 9.38525 17.9996C8.98147 18.0231 8.57753 17.9563 8.20283 17.804C7.82814 17.6517 7.49211 17.4178 7.2192 17.1193C6.93711 16.806 6.72077 16.4392 6.58299 16.0408C6.44521 15.6423 6.38879 15.2203 6.41707 14.7996C6.38879 14.379 6.44521 13.957 6.58299 13.5585C6.72077 13.1601 6.93711 12.7933 7.2192 12.48C7.50176 12.1942 7.83947 11.9687 8.21182 11.8174C8.58417 11.666 8.98339 11.592 9.38525 11.5996C9.71215 11.6072 10.0363 11.661 10.3481 11.7596C10.6316 11.891 10.9005 12.0519 11.1502 12.2396V17.3596Z" fill="white"/>
<path d="M31.2284 17.7067C30.9774 17.7316 30.6432 17.7607 30.4028 17.7607C29.9214 17.7607 29.5204 17.7607 29.3604 17.5211C29.1581 17.0696 29.0753 16.5737 29.12 16.0811V12.1607H31.6153C31.4636 11.4804 31.2632 10.8119 31.0158 10.1604H29.1193V8.24036H28.7986L25.59 11.7604L25.2693 12.1607H27.1147V16.2404C27.031 17.1667 27.256 18.0948 27.7547 18.88C28.0741 19.1501 28.4447 19.3531 28.8444 19.4768C29.244 19.6004 29.6645 19.6422 30.0807 19.5996C30.4302 19.6159 30.7803 19.5889 31.1232 19.5193C31.2552 19.4849 31.3891 19.4583 31.5243 19.4396C31.6831 18.812 31.7638 18.1671 31.7646 17.5196C31.5945 17.6044 31.4144 17.6673 31.2284 17.7067Z" fill="white"/>
<path d="M23.3436 11.4396C22.9118 10.9855 22.3876 10.6291 21.8064 10.3946C21.2252 10.16 20.6005 10.0528 19.9744 10.08C18.6913 10.0666 17.4537 10.5544 16.5248 11.4396C16.0548 11.8614 15.6823 12.3804 15.433 12.9607C15.1837 13.5409 15.0637 14.1684 15.0812 14.7996C15.0794 15.4287 15.2066 16.0515 15.455 16.6294C15.7034 17.2073 16.0678 17.7281 16.5255 18.1596C17.4542 19.0452 18.6919 19.5333 19.9751 19.52C20.6054 19.5377 21.2329 19.4289 21.8204 19.2C22.4028 18.9775 22.9248 18.6214 23.3444 18.1604C23.8061 17.7425 24.1632 17.2219 24.3868 16.6407C24.6423 16.0605 24.7787 15.4349 24.7879 14.8011C24.7788 14.1928 24.6421 13.5932 24.3868 13.0411C24.1648 12.4352 23.8081 11.8876 23.3436 11.4396ZM21.979 16.96C21.7188 17.2527 21.3965 17.4837 21.0357 17.636C20.6749 17.7883 20.2846 17.8581 19.8933 17.8404C19.5045 17.8401 19.1197 17.7621 18.7616 17.6109C18.4034 17.4597 18.079 17.2384 17.8076 16.96C17.242 16.3833 16.9252 15.6078 16.9252 14.8C16.9252 13.9922 17.242 13.2167 17.8076 12.64C18.0679 12.3474 18.3902 12.1166 18.7511 11.9644C19.1119 11.8122 19.5021 11.7425 19.8933 11.7604C20.2821 11.7605 20.6668 11.8384 21.025 11.9895C21.3832 12.1406 21.7076 12.3617 21.979 12.64C22.5446 13.2167 22.8615 13.9922 22.8615 14.8C22.8615 15.6078 22.5446 16.3833 21.979 16.96Z" fill="white"/>
</svg>
