<svg width="32" height="32" viewBox="0 0 32 32" fill="none" xmlns="http://www.w3.org/2000/svg">
<path d="M21.991 1.16962C13.7961 -2.14017 4.4794 1.81408 1.16962 10.009C-2.14017 18.2039 1.81407 27.5207 10.009 30.8305C18.2039 34.1403 27.5206 30.186 30.8304 21.9911C34.1402 13.8041 30.1859 4.47942 21.991 1.16962ZM27.1148 20.4953C24.6325 26.6376 17.647 29.5973 11.5048 27.1229C5.36255 24.6405 2.40283 17.655 4.87722 11.5127C7.10496 6.02293 12.913 3.08708 18.5062 4.28847C19.1745 4.43168 19.835 4.62263 20.4953 4.88519C21.1477 5.14774 21.7603 5.47395 22.3411 5.83198L20.7817 9.69871L17.1059 18.7847L13.279 17.2412L16.9469 8.1552C13.4859 7.73352 10.0408 9.65098 8.67234 13.0403C7.03336 17.0901 8.99058 21.7047 13.0403 23.3357C17.09 24.9747 21.7047 23.0175 23.3357 18.9677C24.1153 17.0264 24.0676 14.9658 23.3754 13.1597L25.2929 8.42571C27.9582 11.6957 28.8174 16.2944 27.1148 20.4953Z" fill="#6A1B76"/>
</svg>
