<svg width="32" height="32" viewBox="0 0 32 32" fill="none" xmlns="http://www.w3.org/2000/svg">
<rect width="32" height="32" fill="#2769A4"/>
<path d="M27.0286 1.71428C26.4571 1.71428 25.9429 1.82856 25.4857 2.05714L16.2286 6.85714C16.1714 6.91428 15.9429 7.02856 15.8857 7.08571L12.8 5.48571L10.4 4.22857L6.22857 2.11428C5.77143 1.88571 5.25715 1.77142 4.74286 1.77142C2.97143 1.77142 1.54286 3.02856 1.25715 4.68571C1.14286 4.85714 1.14286 4.97142 1.14286 5.14285V27.1429C1.31429 28.9714 2.85715 30.4 4.68572 30.4C5.25715 30.4 5.77143 30.2857 6.22857 30.0571L15.4857 25.2571C15.5429 25.2 15.7714 25.0857 15.8286 25.0286L20.4571 27.4286L21.3143 27.8857L25.4857 30C25.9429 30.2286 26.4571 30.3429 27.0286 30.3429C28.8 30.3429 30.2286 29.0857 30.5143 27.4286C30.5714 27.2571 30.5714 27.1429 30.5714 26.9714V4.97142C30.4571 3.14285 28.9143 1.77142 27.0286 1.71428ZM14.1143 21.9429L5.82857 26.2857C5.77143 26.3429 5.65715 26.3429 5.54286 26.3429C5.14286 26.3429 4.8 26 4.8 25.6V6.57142C4.8 6.17142 5.14286 5.82856 5.54286 5.82856C5.65715 5.82856 5.71429 5.82857 5.82857 5.88571L8.57143 7.31428L13.2571 9.71428L13.4286 9.77142L13.2571 10.1143C13.2571 10.1714 13.2 10.2286 13.2 10.2857C13.1429 10.4 13.1429 10.4571 13.0857 10.5714C13.0286 10.6857 13.0286 10.8571 12.9714 10.9714C12.9714 11.0286 12.9143 11.1429 12.9143 11.2571V11.3714L12.8571 11.6C12.8 11.9429 12.7429 12.3429 12.8 12.7429C12.8571 13.9429 13.2 15.0857 13.8286 16L15.0286 18.1714C15.2571 18.5714 15.3714 19.0286 15.4286 19.4857C15.4286 20.5143 14.9143 21.4286 14.1143 21.9429ZM26.9714 23.2V25.5429C26.9714 25.9429 26.6286 26.2857 26.2286 26.2857C26.1143 26.2857 26.0571 26.2857 25.9429 26.2286L23.2 24.8L18.4 22.3429C18.5143 22.1143 18.5714 21.9429 18.6857 21.7143V21.7714L18.7429 21.6571V21.6C18.9714 20.9143 19.0857 20.1714 19.0857 19.3714C19.0286 18.1714 18.6857 17.0286 18.0571 16.1143L16.8571 13.9429C16.6286 13.5429 16.5143 13.0857 16.4571 12.6286C16.4 11.6 16.9714 10.6857 17.7714 10.1714L26.0571 5.82856C26.1143 5.77142 26.2286 5.77142 26.3429 5.77142C26.7429 5.77142 27.0857 6.11428 27.0857 6.51428V8.85714L26.9714 23.2Z" fill="white"/>
</svg>
