<svg width="32" height="32" viewBox="0 0 32 32" fill="none" xmlns="http://www.w3.org/2000/svg">
<path d="M1.82858 6.81489C1.82858 3.55608 4.38613 0.914288 7.54105 0.914288H24.4404C27.5953 0.914288 30.153 3.55608 30.153 6.81489V24.2708C30.153 27.5296 27.5953 30.1714 24.4404 30.1714H7.54105C4.38613 30.1714 1.82858 27.5296 1.82858 24.2708V6.81489Z" fill="#F27000"/>
<path d="M21.8132 7.30659H10.1679C9.11138 7.30659 8.25491 8.18718 8.25491 9.27345C8.25491 10.3597 9.11138 11.2403 10.1679 11.2403H21.8132C22.8698 11.2403 23.7262 10.3597 23.7262 9.27345C23.7262 8.18718 22.8698 7.30659 21.8132 7.30659Z" fill="white"/>
<path d="M15.8914 13.576H10.1392C9.09853 13.576 8.25491 14.4565 8.25491 15.5429C8.25491 16.6291 9.09853 17.5097 10.1392 17.5097H15.8914C16.9321 17.5097 17.7757 16.6291 17.7757 15.5429C17.7757 14.4565 16.9321 13.576 15.8914 13.576Z" fill="white"/>
<path d="M10.1607 19.8454C10.6656 19.8462 11.1494 20.054 11.5062 20.4231C11.8629 20.7922 12.0633 21.2924 12.0633 21.8139C12.0624 22.3348 11.8617 22.8342 11.505 23.2026C11.1484 23.5709 10.665 23.7782 10.1607 23.7791C9.65581 23.7791 9.17156 23.5722 8.81425 23.2038C8.45693 22.8353 8.25577 22.3355 8.25491 21.8139C8.25491 21.2918 8.4557 20.7911 8.8131 20.4219C9.17051 20.0528 9.65525 19.8454 10.1607 19.8454Z" fill="white"/>
</svg>
