<svg width="32" height="32" viewBox="0 0 32 32" fill="none" xmlns="http://www.w3.org/2000/svg">
<g clip-path="url(#clip0_4253_77)">
<path opacity="0.35" d="M6.40065 6.40063H0V12.798H6.40065V6.40063Z" fill="#B2AFAD"/>
<path opacity="0.3" d="M6.40065 12.7981H0V19.1987H6.40065V12.7981Z" fill="#B2AFAD"/>
<path opacity="0.7" d="M6.40065 19.1987H0V25.5994H6.40065V19.1987Z" fill="#B2AFAD"/>
<path opacity="0.4" d="M6.40065 25.5994H0V32H6.40065V25.5994Z" fill="#B2AFAD"/>
<path opacity="0.5" d="M12.8013 25.5994H6.40063V32H12.8013V25.5994Z" fill="#B2AFAD"/>
<path opacity="0.5" d="M12.8013 0H6.40063V6.40065H12.8013V0Z" fill="#B2AFAD"/>
<path opacity="0.4" d="M19.2019 0H12.8013V6.40065H19.2019V0Z" fill="#B2AFAD"/>
<path opacity="0.3" d="M25.5994 0H19.1987V6.40065H25.5994V0Z" fill="#B2AFAD"/>
<path opacity="0.5" d="M32 0H25.5994V6.40065H32V0Z" fill="#B2AFAD"/>
<path opacity="0.35" d="M31.9968 6.40063H25.5994V12.798H31.9968V6.40063Z" fill="#B2AFAD"/>
<path opacity="0.7" d="M25.5994 12.7981H19.1987V19.1987H25.5994V12.7981Z" fill="#B2AFAD"/>
<path opacity="0.35" d="M19.2019 19.1987H12.8013V25.5994H19.2019V19.1987Z" fill="#B2AFAD"/>
<path d="M19.2019 6.40063H12.8013V12.798H19.2019V6.40063Z" fill="#FF1D25"/>
<path d="M12.8013 6.40063H6.40063V12.798H12.8013V6.40063Z" fill="#FF1D25"/>
<path d="M25.5994 6.40063H19.1987V12.798H25.5994V6.40063Z" fill="#FF1D25"/>
<path d="M12.8013 12.7981H6.40063V19.1987H12.8013V12.7981Z" fill="#FF1D25"/>
<path d="M19.2019 12.7981H12.8013V19.1987H19.2019V12.7981Z" fill="#FF1D25"/>
<path d="M12.8013 19.1987H6.40063V25.5994H12.8013V19.1987Z" fill="#FF1D25"/>
<path d="M25.5994 6.40063H19.1987V12.798H25.5994V6.40063Z" fill="url(#paint0_linear_4253_77)"/>
<path d="M19.2019 6.40063H12.8013V12.798H19.2019V6.40063Z" fill="url(#paint1_linear_4253_77)"/>
<path d="M12.8013 12.7981H6.40063V19.1987H12.8013V12.7981Z" fill="url(#paint2_linear_4253_77)"/>
<path d="M19.2019 12.7981H12.8013V19.1987H19.2019V12.7981Z" fill="url(#paint3_linear_4253_77)"/>
<path d="M12.8013 19.1987H6.40063V25.5994H12.8013V19.1987Z" fill="url(#paint4_linear_4253_77)"/>
<path d="M12.8013 6.40063H6.40063V12.798H12.8013V6.40063Z" fill="url(#paint5_linear_4253_77)"/>
<path style="mix-blend-mode:overlay" d="M19.1987 19.1987H18.6486V19.2084H19.1987V19.1987Z" fill="url(#paint6_radial_4253_77)"/>
<g style="mix-blend-mode:overlay">
<path d="M25.2758 6.72423V12.4745H19.5223V6.72423H25.2758ZM25.5994 6.40063H19.1987V12.798H25.5994V6.40063Z" fill="url(#paint7_linear_4253_77)"/>
<path d="M18.8752 6.72423V12.4745H13.1217V6.72423H18.8752ZM19.1987 6.40063H12.7981V12.798H19.1987V6.40063Z" fill="url(#paint8_linear_4253_77)"/>
<path d="M12.4777 13.1217V18.8752H6.72423V13.1217H12.4777ZM12.8013 12.7981H6.40063V19.1987H12.8013V12.7981Z" fill="url(#paint9_linear_4253_77)"/>
<path d="M18.8752 13.1217V18.8752H13.1217V13.1217H18.8752ZM19.1987 12.7981H12.7981V19.1987H19.1987V12.7981Z" fill="url(#paint10_radial_4253_77)"/>
<path d="M12.4777 19.5223V25.2758H6.72423V19.5223H12.4777ZM12.8013 19.1987H6.40063V25.5994H12.8013V19.1987Z" fill="url(#paint11_linear_4253_77)"/>
<path d="M12.4777 6.72423V12.4745H6.72423V6.72423H12.4777ZM12.8013 6.40063H6.40063V12.798H12.8013V6.40063Z" fill="url(#paint12_linear_4253_77)"/>
</g>
</g>
<defs>
<linearGradient id="paint0_linear_4253_77" x1="25.7741" y1="14.6102" x2="21.1823" y2="7.79208" gradientUnits="userSpaceOnUse">
<stop stop-color="#BC1522"/>
<stop offset="1" stop-color="#BC1522" stop-opacity="0"/>
</linearGradient>
<linearGradient id="paint1_linear_4253_77" x1="14.348" y1="3.84102" x2="16.7167" y2="12.0959" gradientUnits="userSpaceOnUse">
<stop stop-color="#BC1522"/>
<stop offset="1" stop-color="#BC1522" stop-opacity="0"/>
</linearGradient>
<linearGradient id="paint2_linear_4253_77" x1="10.7627" y1="13.1993" x2="8.27747" y2="19.1826" gradientUnits="userSpaceOnUse">
<stop stop-color="#BC1522"/>
<stop offset="1" stop-color="#BC1522" stop-opacity="0"/>
</linearGradient>
<linearGradient id="paint3_linear_4253_77" x1="18.7974" y1="16.9498" x2="11.7269" y2="14.5455" gradientUnits="userSpaceOnUse">
<stop stop-color="#BC1522"/>
<stop offset="1" stop-color="#BC1522" stop-opacity="0"/>
</linearGradient>
<linearGradient id="paint4_linear_4253_77" x1="11.6849" y1="16.7427" x2="8.52663" y2="25.3081" gradientUnits="userSpaceOnUse">
<stop stop-color="#BC1522"/>
<stop offset="1" stop-color="#BC1522" stop-opacity="0"/>
</linearGradient>
<linearGradient id="paint5_linear_4253_77" x1="3.05469" y1="12.6783" x2="14.3448" y2="7.36817" gradientUnits="userSpaceOnUse">
<stop stop-color="#BC1522"/>
<stop offset="1" stop-color="#BC1522" stop-opacity="0"/>
</linearGradient>
<radialGradient id="paint6_radial_4253_77" cx="0" cy="0" r="1" gradientUnits="userSpaceOnUse" gradientTransform="translate(18.7133 19.1373) scale(0.54687 0.546848)">
<stop stop-color="white"/>
<stop offset="1" stop-color="white"/>
</radialGradient>
<linearGradient id="paint7_linear_4253_77" x1="25.2402" y1="9.60096" x2="31.6408" y2="9.60096" gradientUnits="userSpaceOnUse">
<stop stop-color="white"/>
<stop offset="1" stop-color="white" stop-opacity="0"/>
</linearGradient>
<linearGradient id="paint8_linear_4253_77" x1="12.8013" y1="-1.19465e-05" x2="19.1987" y2="-1.19465e-05" gradientUnits="userSpaceOnUse">
<stop stop-color="white"/>
<stop offset="1" stop-color="white" stop-opacity="0"/>
</linearGradient>
<linearGradient id="paint9_linear_4253_77" x1="6.40063" y1="15.9984" x2="12.8013" y2="15.9984" gradientUnits="userSpaceOnUse">
<stop stop-color="white"/>
<stop offset="1" stop-color="white" stop-opacity="0"/>
</linearGradient>
<radialGradient id="paint10_radial_4253_77" cx="0" cy="0" r="1" gradientUnits="userSpaceOnUse" gradientTransform="translate(15.9984 15.9984) scale(5.68551)">
<stop stop-color="white"/>
<stop offset="1" stop-color="white" stop-opacity="0"/>
</radialGradient>
<linearGradient id="paint11_linear_4253_77" x1="6.40063" y1="22.3991" x2="12.8013" y2="22.3991" gradientUnits="userSpaceOnUse">
<stop stop-color="white"/>
<stop offset="1" stop-color="white" stop-opacity="0"/>
</linearGradient>
<linearGradient id="paint12_linear_4253_77" x1="6.40063" y1="-1.20572e-05" x2="12.8013" y2="-1.20572e-05" gradientUnits="userSpaceOnUse">
<stop stop-color="white"/>
<stop offset="1" stop-color="white" stop-opacity="0"/>
</linearGradient>
<clipPath id="clip0_4253_77">
<rect width="32" height="32" fill="white"/>
</clipPath>
</defs>
</svg>
