<svg width="32" height="32" viewBox="0 0 32 32" fill="none" xmlns="http://www.w3.org/2000/svg">
<path d="M23 0H9C4.02944 0 0 4.02944 0 9V23C0 27.9705 4.02944 32 9 32H23C27.9706 32 32 27.9705 32 23V9C32 4.02944 27.9706 0 23 0Z" fill="#5E81F4"/>
<path fill-rule="evenodd" clip-rule="evenodd" d="M16 0H9C4.02944 0 0 4.02944 0 9V13H10C13.3137 13 16 10.3137 16 7V0Z" fill="#6C8CF6"/>
<path d="M13.9004 10.7898V15.3658H19.5164C19.9671 15.3658 20.3397 15.5131 20.6344 15.8078C20.9464 16.0851 21.1024 16.4491 21.1024 16.8998C21.1024 17.2811 20.9464 17.6191 20.6344 17.9138C20.3397 18.2085 19.9671 18.3558 19.5164 18.3558H13.9004V24.4138C13.9004 24.8645 13.7357 25.2458 13.4064 25.5578C13.0944 25.8525 12.7217 25.9998 12.2884 25.9998C11.8031 25.9998 11.4044 25.8525 11.0924 25.5578C10.7977 25.2631 10.6504 24.8818 10.6504 24.4138V9.38583C10.6504 8.93513 10.7977 8.56247 11.0924 8.2678C11.4044 7.9558 11.7857 7.7998 12.2364 7.7998H20.6864C21.1371 7.7998 21.5097 7.94713 21.8044 8.2418C22.1164 8.51913 22.2724 8.88313 22.2724 9.3338C22.2724 9.71513 22.1164 10.0531 21.8044 10.3478C21.5097 10.6425 21.1371 10.7898 20.6864 10.7898H13.9004Z" fill="white"/>
<path fill-rule="evenodd" clip-rule="evenodd" d="M32 23H29C25.6863 23 23 25.6863 23 29V32C27.9706 32 32 27.9705 32 23Z" fill="#6C8CF6"/>
</svg>
