<svg width="32" height="32" viewBox="0 0 32 32" fill="none" xmlns="http://www.w3.org/2000/svg">
<path fill-rule="evenodd" clip-rule="evenodd" d="M19.4692 13.2299C19.4792 13.3663 19.498 13.5031 19.498 13.6399C19.4996 18.8175 19.4924 23.9955 19.51 29.1727C19.5116 29.7343 19.2648 30.0331 18.796 30.2343C17.8376 30.6443 16.8276 30.6995 15.8056 30.6775C15.0868 30.6615 14.3828 30.5595 13.7024 30.3147C13.3424 30.1851 13.03 29.9935 12.8 29.6819C12.8004 24.1975 12.8004 18.7127 12.8004 13.2279C12.8804 13.1915 12.9524 13.2223 13.0104 13.2703C13.7092 13.8447 14.5584 13.9851 15.4128 14.0403C16.4036 14.1043 17.3956 14.0799 18.3636 13.7783C18.768 13.6531 19.0856 13.3803 19.4692 13.2299Z" fill="#2F317D"/>
<path fill-rule="evenodd" clip-rule="evenodd" d="M19.4692 13.2299C19.2808 13.6351 18.8808 13.7839 18.5152 13.8855C16.9036 14.3327 15.2836 14.3687 13.6764 13.8327C13.3256 13.7159 13.0236 13.5295 12.8004 13.2279C12.8004 13.1027 12.8004 12.9763 12.8004 12.8507C13.4848 12.1623 14.3948 12.0395 15.2784 11.9663C16.4332 11.8715 17.5976 11.9015 18.7104 12.3247C19.288 12.5439 19.5148 12.8047 19.4692 13.2299Z" fill="#EDB72D"/>
<path fill-rule="evenodd" clip-rule="evenodd" d="M19.3679 4.94423C19.3683 6.78503 17.9619 8.28143 16.2299 8.28383C14.3359 8.28703 12.8783 6.82063 12.9147 4.85463C12.9487 2.98943 14.4307 1.58423 16.1575 1.60023C17.9711 1.61703 19.3675 3.05743 19.3679 4.94423Z" fill="#D45B2F"/>
</svg>
