<svg width="32" height="32" viewBox="0 0 32 32" fill="none" xmlns="http://www.w3.org/2000/svg">
<path fill-rule="evenodd" clip-rule="evenodd" d="M14.6667 5.33333C8.53017 5.33333 3.55555 10.3079 3.55555 16.4444C3.55555 22.581 8.53017 27.5556 14.6667 27.5556C20.8032 27.5556 25.7778 22.581 25.7778 16.4444C25.7778 15.6253 25.6893 14.8284 25.522 14.0622L28.1274 13.4933C28.3352 14.4452 28.4444 15.4329 28.4444 16.4444C28.4444 24.0537 22.2759 30.2222 14.6667 30.2222C7.05741 30.2222 0.888885 24.0537 0.888885 16.4444C0.888885 8.83519 7.05741 2.66667 14.6667 2.66667C18.0382 2.66667 21.13 3.87939 23.5244 5.89091L21.809 7.93269C19.8772 6.3097 17.3876 5.33333 14.6667 5.33333Z" fill="#3880FF"/>
<path fill-rule="evenodd" clip-rule="evenodd" d="M24.4444 6.37035C23.299 6.37035 22.3704 7.29895 22.3704 8.44443C22.3704 9.58991 23.299 10.5185 24.4444 10.5185C25.59 10.5185 26.5186 9.58991 26.5186 8.44443C26.5186 7.29895 25.59 6.37035 24.4444 6.37035ZM21.7778 8.88888C21.7778 5.45243 21.008 6.66667 24.4444 6.66667C27.8809 6.66667 30.6667 5.00799 30.6667 8.44443C30.6667 11.8809 27.8809 14.6667 24.4444 14.6667C21.008 14.6667 21.7778 12.3253 21.7778 8.88888Z" fill="white"/>
<path fill-rule="evenodd" clip-rule="evenodd" d="M24.4444 7.11111C23.7081 7.11111 23.1111 7.70806 23.1111 8.44444C23.1111 9.18083 23.7081 9.77778 24.4444 9.77778C25.1808 9.77778 25.7778 9.18083 25.7778 8.44444C25.7778 7.70806 25.1808 7.11111 24.4444 7.11111ZM20.4444 8.44444C20.4444 6.2353 22.2353 4.44444 24.4444 4.44444C26.6536 4.44444 28.4444 6.2353 28.4444 8.44444C28.4444 10.6536 26.6536 12.4444 24.4444 12.4444C22.2353 12.4444 20.4444 10.6536 20.4444 8.44444Z" fill="#194BFD"/>
<path d="M14.6667 21.7778C17.6122 21.7778 20 19.39 20 16.4444C20 13.4989 17.6122 11.1111 14.6667 11.1111C11.7211 11.1111 9.33333 13.4989 9.33333 16.4444C9.33333 19.39 11.7211 21.7778 14.6667 21.7778Z" stroke="#0CADFF" stroke-width="3"/>
</svg>
