<svg width="32" height="32" viewBox="0 0 32 32" fill="none" xmlns="http://www.w3.org/2000/svg">
<path d="M17.7632 1.51042C16.2317 1.71614 13.9003 2.79042 12.5975 3.84185C11.3403 4.87042 10.1517 6.69899 9.5346 8.55042C9.10031 9.78471 9.0546 10.4019 9.12317 12.4133L9.2146 14.8133L11.1803 19.3847C14.9289 28.0704 16.0717 30.5618 16.3232 30.6304C16.4603 30.6761 17.0089 30.3104 17.5346 29.8076C18.4489 28.939 18.4946 28.8247 18.3575 28.0018C18.2889 27.499 17.6489 25.7847 16.9403 24.1618C12.6203 14.1733 12.4146 13.579 12.4146 11.6133C12.4146 10.0819 12.506 9.60185 13.0089 8.61899C13.7403 7.24756 15.1346 5.92185 16.5975 5.25899C18.2203 4.50471 20.6889 4.57328 22.3803 5.39614C26.6775 7.49899 27.8432 13.3047 24.666 16.5961C23.6146 17.6933 22.4489 18.3104 20.4375 18.8361C19.5689 19.0647 18.8146 19.2704 18.7689 19.339C18.7232 19.3847 18.8832 19.9561 19.1575 20.5961C19.7746 22.059 20.3917 22.379 21.9917 22.0133C26.5632 20.9847 29.8775 16.6876 29.8775 11.819C29.8775 8.96185 28.9175 6.63042 26.8146 4.45899C24.3917 1.94471 21.4203 0.984707 17.7632 1.51042Z" fill="#535EAB"/>
<path d="M4.16317 1.99048C3.2946 2.37905 2.8146 2.95048 2.44889 3.95619C2.19746 4.68762 2.22032 4.89334 2.63175 5.69334C3.22603 6.88191 4.00317 7.38477 5.2146 7.38477C6.38032 7.38477 7.36317 6.81334 7.82032 5.87619C8.2546 4.96191 8.2546 4.39048 7.84317 3.38477C7.27175 2.01334 5.5346 1.35048 4.16317 1.99048Z" fill="#535EAB"/>
</svg>
