<svg width="32" height="32" viewBox="0 0 32 32" fill="none" xmlns="http://www.w3.org/2000/svg">
<g clip-path="url(#clip0_3977_65)">
<path d="M16 32C24.8366 32 32 24.8366 32 16C32 7.16344 24.8366 0 16 0C7.16344 0 0 7.16344 0 16C0 24.8366 7.16344 32 16 32Z" fill="#C80A5A"/>
<path d="M24.742 10.4296V18.963H7.67533V10.4296H5.54199V18.963C5.54199 19.5288 5.76675 20.0714 6.16683 20.4715C6.56691 20.8715 7.10953 21.0963 7.67533 21.0963H24.742C25.3078 21.0963 25.8504 20.8715 26.2505 20.4715C26.6506 20.0714 26.8753 19.5288 26.8753 18.963V10.4296H24.742Z" fill="white"/>
</g>
<defs>
<clipPath id="clip0_3977_65">
<rect width="32" height="32" fill="white"/>
</clipPath>
</defs>
</svg>
