<svg width="32" height="32" viewBox="0 0 32 32" fill="none" xmlns="http://www.w3.org/2000/svg">
<path fill-rule="evenodd" clip-rule="evenodd" d="M29.98 4.97998C28.58 5.57998 27.54 6.01998 26.84 6.29998C26.76 6.33998 26.68 6.39998 26.62 6.47998C24.66 9.01998 23.2 10.94 22.24 12.2C22.2 12.24 22.16 12.28 22.12 12.3C22.08 12.32 22.04 12.32 21.98 12.32C20.02 12.12 18.54 11.96 17.56 11.86C17.14 11.82 16.84 11.78 16.64 11.74C16.58 11.74 16.52 11.74 16.48 11.76C16.44 11.78 16.4 11.8 16.36 11.84L11.44 15.66C11.36 15.72 11.26 15.76 11.18 15.76C10.18 15.74 8.68 15.72 6.68 15.7C6.24 15.7 5.82 15.68 5.44 15.66C5.38 15.66 5.3 15.68 5.26 15.7C5.22 15.72 5.18 15.76 5.12 15.8C4.62 16.24 3.36 17.36 1.34 19.12C1.34 19.12 1.32 19.14 1.3 19.16C1.28 19.18 1.26 19.2 1.24 19.2C1.22 19.16 1.2 19.12 1.2 19.08C1.2 19.02 1.2 18.98 1.2 18.96C1.2 17.88 1.2 16.28 1.22 14.16C1.22 12.28 1.22 10.68 1.2 9.37998C1.2 8.81998 1.3 8.31998 1.52 7.87998C1.74 7.43998 2.08 7.05998 2.52 6.71998C3.32 6.11998 4.28 5.73998 5.4 5.57998C5.96 5.49998 7.32 5.29998 9.48 4.99998L22.06 3.21998C23.9 2.95998 25 2.81998 25.3 2.75998C25.38 2.73998 25.48 2.73998 25.64 2.71998C25.78 2.69998 25.88 2.67998 25.98 2.65998C25.98 2.65998 25.98 2.63998 26 2.63998L25.98 2.59998H26.14C26.18 2.65998 26.22 2.65998 26.26 2.59998H27.06C27.06 2.61998 27.08 2.63998 27.1 2.63998C27.12 2.63998 27.14 2.61998 27.14 2.59998H27.3C27.28 2.63998 27.3 2.67998 27.32 2.67998C27.34 2.67998 27.36 2.67998 27.4 2.67998C28.54 2.95998 29.44 3.55998 30.12 4.45998C30.24 4.63998 30.3 4.73998 30.28 4.77998C30.28 4.83998 30.16 4.89998 29.98 4.97998Z" fill="#78AC2C"/>
<path fill-rule="evenodd" clip-rule="evenodd" d="M29.48 7.81997C29.72 7.71997 30.06 7.57997 30.54 7.37997L30.66 7.33997C30.68 7.35997 30.7 7.39997 30.7 7.43997C30.7 7.47997 30.7 7.51997 30.7 7.53997C30.7 13.82 30.7 18.52 30.68 21.66C30.68 22.44 30.38 23.14 29.78 23.76C28.8 24.8 27.66 25.3 26.36 25.26C26.12 25.26 25.8 25.24 25.46 25.2C25.06 25.16 24.76 25.12 24.56 25.08C24.48 25.08 23.74 25 22.36 24.86L17.12 24.34C16.94 24.32 16.78 24.3 16.64 24.28C16.58 24.28 16.54 24.28 16.52 24.3C16.5 24.32 16.5 24.36 16.5 24.44L17.38 29.54L16.14 28.46C13.44 26.14 11.6 24.54 10.66 23.72C10.58 23.64 10.46 23.58 10.32 23.56C10.24 23.54 10.12 23.54 9.96 23.52C9.44 23.46 8.46 23.36 7.04 23.2C6.84 23.18 6.52 23.14 6.12 23.1C5.76 23.06 5.44 23.02 5.2 22.98C4.64 22.88 4.14 22.76 3.72 22.6C3.22 22.42 2.78 22.18 2.38 21.88C2.24 21.76 2.16 21.7 2.16 21.66C2.16 21.62 2.22 21.54 2.36 21.42L6.14 18.14V18.38C6.14 20.44 6.14 21.6 6.12 21.84C6.12 21.92 6.14 21.98 6.16 22C6.18 22.02 6.24 22.04 6.32 22.04C6.62 22.04 6.94 22.04 7.26 22.04C7.34 22.04 7.4 22.04 7.42 22C7.44 21.98 7.46 21.92 7.46 21.84C7.46 21.48 7.46 20.9 7.46 20.08C7.46 19.34 7.46 18.74 7.46 18.32C7.46 18.24 7.48 18.18 7.5 18.14C7.54 18.1 7.6 18.08 7.68 18.08C8.14 18.1 8.7 18.1 9.34 18.12C10.08 18.12 10.62 18.14 11 18.14C11.04 18.14 11.12 18.14 11.26 18.16C11.36 18.16 11.46 18.16 11.52 18.16C11.6 18.16 11.64 18.18 11.66 18.2C11.68 18.22 11.7 18.28 11.7 18.36C11.7 18.58 11.7 19.16 11.7 20.08C11.7 20.78 11.7 21.36 11.68 21.8C11.68 21.9 11.7 21.96 11.74 22C11.78 22.02 11.84 22.04 11.94 22.04C12.24 22.04 12.54 22.04 12.84 22.04C12.92 22.04 12.98 22.04 13 22.02C13.04 21.98 13.06 21.92 13.06 21.84C13.06 21.36 13.04 20.66 13.04 19.78C13.04 18.82 13.04 18.14 13.04 17.7C13.04 17.62 13.06 17.54 13.1 17.46C13.12 17.4 13.18 17.34 13.26 17.3C13.64 17 14.68 16.18 16.4 14.84L16.56 14.74C16.58 14.78 16.6 14.82 16.6 14.86C16.6 14.9 16.6 14.94 16.6 14.96C16.6 18.02 16.6 20.3 16.58 21.82C16.58 21.92 16.6 21.98 16.64 22.02C16.66 22.04 16.72 22.06 16.82 22.06C17.12 22.06 17.42 22.06 17.7 22.06C17.8 22.06 17.86 22.06 17.88 22.02C17.9 21.98 17.92 21.92 17.92 21.82C17.92 20.76 17.9 18.36 17.9 14.64C17.9 14.5 17.92 14.4 17.94 14.38C17.96 14.36 18.06 14.36 18.2 14.36C18.4 14.38 18.96 14.44 19.9 14.54C20.6 14.6 21.16 14.66 21.6 14.7C21.66 14.7 21.72 14.74 21.74 14.78C21.76 14.8 21.76 14.84 21.76 14.9V19.18C21.76 20.76 21.76 21.66 21.74 21.86C21.74 21.94 21.76 21.98 21.78 22.02C21.8 22.06 21.86 22.06 21.92 22.06C22.2 22.06 22.54 22.06 22.88 22.06C22.94 22.06 23 22.06 23.02 22.04C23.04 22.02 23.06 21.96 23.06 21.88C23.06 21.7 23.06 20.86 23.06 19.36C23.06 17.46 23.06 16.02 23.06 15.08C23.06 14.94 23.1 14.82 23.18 14.72C23.96 13.74 25.12 12.28 26.68 10.32C26.7 10.3 26.72 10.28 26.72 10.28C26.74 10.28 26.76 10.26 26.78 10.26V10.46C26.78 16.34 26.78 20.12 26.78 21.8C26.78 21.9 26.8 21.98 26.82 22C26.86 22.02 26.92 22.04 27.02 22.04C27.28 22.04 27.58 22.04 27.92 22.04C28 22.04 28.04 22.04 28.08 22C28.1 21.98 28.12 21.92 28.12 21.84C28.12 21.64 28.12 20.7 28.12 19.06C28.12 13.86 28.12 10.4 28.12 8.67997C28.12 8.57997 28.14 8.47997 28.18 8.41997C28.22 8.35997 28.3 8.29997 28.4 8.25997C28.72 8.13997 29.08 7.99997 29.48 7.81997Z" fill="#B4A6A6"/>
</svg>
