<svg width="32" height="32" viewBox="0 0 32 32" fill="none" xmlns="http://www.w3.org/2000/svg">
<g clip-path="url(#clip0_3468_248)">
<path d="M32 17.12V2.4C32 1.07456 30.9254 0 29.6 0H2.4C1.07456 0 0 1.07456 0 2.4V17.12H32ZM0 17.92V29.6C0 30.9254 1.07456 32 2.4 32H29.6C30.9254 32 32 30.9254 32 29.6V17.92H0Z" fill="#010101"/>
<path d="M32 17.12V2.4C32 1.07456 30.9254 0 29.6 0H2.4C1.07456 0 0 1.07456 0 2.4V17.12H32ZM0 17.92V29.6C0 30.9254 1.07456 32 2.4 32H29.6C30.9254 32 32 30.9254 32 29.6V17.92H0Z" fill="#010101"/>
<path d="M8.27798 13.944V8.64396L10.9959 12.0414L13.7138 8.64396V13.944H16.4317V4.703H13.7138L10.9959 8.10044L8.27798 4.703H5.56006V13.944H8.27798ZM26.4881 9.32348H23.7701V4.703H21.0524V9.32348H18.3345L22.4111 14.08L26.4881 9.32348Z" fill="white"/>
<path d="M9.59999 23.7047C9.59999 23.8679 9.53518 24.0244 9.41981 24.1398C9.30444 24.2552 9.14796 24.32 8.98479 24.3201H8.13519C8.05439 24.3201 7.97437 24.3041 7.89972 24.2732C7.82507 24.2423 7.75725 24.197 7.70012 24.1398C7.64299 24.0827 7.59768 24.0148 7.56677 23.9402C7.53586 23.8655 7.51997 23.7855 7.51999 23.7047V23.6553C7.51999 23.4921 7.5848 23.3356 7.70017 23.2202C7.81553 23.1048 7.97201 23.0399 8.13519 23.0399H8.98479C9.06559 23.0399 9.1456 23.0558 9.22025 23.0867C9.2949 23.1177 9.36273 23.163 9.41986 23.2201C9.47698 23.2773 9.5223 23.3451 9.55321 23.4198C9.58411 23.4944 9.60001 23.5745 9.59999 23.6553V23.7047ZM8.13743 26.1601C8.13743 26.4693 7.96143 26.7201 7.74431 26.7201H5.81695C5.59983 26.7201 5.42383 26.4693 5.42383 26.1601C5.42383 25.8508 5.59983 25.6001 5.81695 25.6001H7.74431C7.96143 25.6001 8.13743 25.8508 8.13743 26.1601ZM27.367 23.2034C27.2003 22.7125 26.9329 22.2619 26.5819 21.8804C26.2275 21.4935 25.7741 21.1901 25.2222 20.9701C24.6702 20.7501 24.0256 20.6401 23.2885 20.6401H20.1721L18.9561 29.1092H22.8606C23.9035 29.1092 24.7781 28.9441 25.4849 28.6141C26.1915 28.2842 26.7243 27.7994 27.0827 27.1597C27.4411 26.5204 27.6205 25.73 27.6205 24.789C27.6206 24.2269 27.536 23.6985 27.367 23.2034V23.2034ZM25.2742 25.8156C25.1805 26.1333 25.0225 26.4277 24.8006 26.6986C24.5784 26.9697 24.2731 27.1865 23.884 27.3493C23.4949 27.5122 23.0296 27.5938 22.4877 27.5938H21.3512L22.1395 22.1495H22.4877C23.2536 22.1495 23.8523 22.289 24.2843 22.5681C24.716 22.8471 25.0123 23.1861 25.1734 23.5853C25.3328 23.9772 25.4148 24.3963 25.4147 24.8194C25.4147 25.1658 25.3678 25.4978 25.2742 25.8156V25.8156ZM14.2637 23.6869L14.4833 22.1493H17.9112L18.1249 20.6399H12.327C11.987 20.6399 11.7117 20.9402 11.7117 21.2799C11.7117 21.6196 11.987 21.9199 12.327 21.9199H12.9493C13.0974 21.9199 13.2395 21.9787 13.3442 22.0835C13.449 22.1882 13.5078 22.3303 13.5078 22.4785C13.5078 22.6266 13.449 22.7687 13.3442 22.8734C13.2395 22.9782 13.0974 23.037 12.9493 23.037H12.1803L12.1801 23.0401H10.7429C10.535 23.0401 10.3664 23.3258 10.3664 23.6781C10.3664 24.0306 10.5349 24.3164 10.7429 24.3164H11.995L11.9945 24.3201H12.5048C12.5856 24.3201 12.6656 24.336 12.7403 24.3669C12.8149 24.3978 12.8827 24.4432 12.9399 24.5003C12.997 24.5574 13.0423 24.6253 13.0732 24.6999C13.1041 24.7746 13.12 24.8546 13.12 24.9354V24.9849C13.12 25.148 13.0552 25.3045 12.9398 25.4199C12.8244 25.5353 12.668 25.6002 12.5048 25.6002H9.47199C9.39845 25.6002 9.32563 25.6147 9.25769 25.6428C9.18974 25.671 9.12801 25.7122 9.07601 25.7642C9.02401 25.8162 8.98276 25.878 8.95461 25.9459C8.92647 26.0139 8.91199 26.0867 8.91199 26.1602C8.91199 26.2338 8.92647 26.3066 8.95461 26.3745C8.98276 26.4425 9.02401 26.5042 9.07601 26.5562C9.12801 26.6082 9.18974 26.6494 9.25769 26.6776C9.32563 26.7057 9.39845 26.7202 9.47199 26.7202H11.7046C11.7854 26.7202 11.8654 26.7361 11.9401 26.7671C12.0147 26.798 12.0826 26.8433 12.1397 26.9005C12.1968 26.9576 12.2421 27.0254 12.273 27.1001C12.304 27.1748 12.3198 27.2548 12.3198 27.3356V27.385C12.3198 27.5482 12.255 27.7047 12.1396 27.8201C12.0243 27.9355 11.8678 28.0003 11.7046 28.0004H10.5672C10.2272 28.0004 9.95183 28.2207 9.95183 28.5604C9.95183 28.9001 10.2272 29.1204 10.5672 29.1204H14.6689C14.7126 29.1204 14.755 29.1165 14.7961 29.1095H17.6486L17.8624 27.5941H13.6952L13.9824 25.5042H16.9825L17.1963 23.9889H14.2206L14.2253 23.9561C14.2503 23.8685 14.2632 23.778 14.2637 23.6869V23.6869Z" fill="white"/>
</g>
<defs>
<clipPath id="clip0_3468_248">
<rect width="32" height="32" fill="white"/>
</clipPath>
</defs>
</svg>
