<svg width="32" height="32" viewBox="0 0 32 32" fill="none" xmlns="http://www.w3.org/2000/svg">
<path d="M7.93649 8.29066L14.7227 17.9702C15.8274 19.4958 18.4051 18.0228 17.3004 16.4972L10.4616 6.81769C9.35686 5.23951 6.83177 6.76509 7.93649 8.29066Z" fill="#333333"/>
<path d="M21.5088 6.81769L14.67 16.4972C13.5653 18.0754 16.143 19.5484 17.2477 17.9702L24.0339 8.29066C25.1387 6.71248 22.561 5.23951 21.5088 6.81769Z" fill="#333333"/>
<path d="M23.0344 20.8635C23.0344 20.8635 21.351 24.809 15.9852 24.7564C10.672 24.8616 8.93597 20.8635 8.93597 20.8635" stroke="#C63982" stroke-width="2.2"/>
<path d="M2.255 23.8621L9.04119 7.60678" stroke="#333333" stroke-width="3"/>
<path d="M29.6628 23.8621L26.296 15.7081L22.9292 7.55418" stroke="#333333" stroke-width="3"/>
</svg>
