<svg width="32" height="32" viewBox="0 0 32 32" fill="none" xmlns="http://www.w3.org/2000/svg">
<path d="M9.28532 13.5957H13.357C12.3403 12.9596 11.9597 12.0682 11.4489 10.4154L9.92144 4.75367C9.22272 2.20949 8.64933 1 5.84978 1H8.49525e-05V2.52748H0.828869C2.5443 2.52748 2.73708 3.16352 3.24785 5.07166L4.58257 10.0348C5.28126 12.4537 6.36543 13.5957 9.29021 13.5957H9.28532ZM18.7056 13.5957H22.7725C25.6973 13.5957 26.714 12.4488 27.4176 10.0348L28.7523 5.07166C29.263 3.16345 29.5136 2.52748 31.1712 2.52748H32V1H26.2129C23.3507 1 22.7774 2.14681 22.1412 4.75367L20.6138 10.4154C20.103 12.1308 19.7223 12.9596 18.7056 13.5957ZM13.357 18.9346H18.7058L18.7056 13.5957H13.357V18.9346ZM8.49525e-05 31.5304H5.84978C8.64935 31.5304 9.22272 30.3209 9.92144 27.7767L11.4489 22.1148C11.9597 20.4621 12.3403 19.5706 13.357 18.9346H9.28532C6.36055 18.9346 5.27641 20.0814 4.57769 22.4955L3.24295 27.4587C2.73218 29.3668 2.54426 30.0029 0.823971 30.0029H0L8.49525e-05 31.5304ZM26.2028 31.5304H31.9899V30.0029H31.1612C29.5083 30.0029 29.253 29.3668 28.7422 27.4587L27.4075 22.4955C26.7088 20.0766 25.6921 18.9346 22.7625 18.9346H18.7058C19.7226 19.5706 20.0881 20.3995 20.5989 22.1148L22.1263 27.7767C22.7625 30.3835 23.3358 31.5304 26.198 31.5304H26.2028Z" fill="#7856FF"/>
</svg>
