<svg width="32" height="32" viewBox="0 0 32 32" fill="none" xmlns="http://www.w3.org/2000/svg">
<path d="M9.75012 1.92C9.40551 1.96923 9.02807 2.14974 8.25679 2.63384C8.08448 2.74051 7.92859 2.83077 7.90397 2.83077C7.87115 2.83077 7.69884 2.93743 7.51012 3.06051C7.32141 3.19179 7.09987 3.31487 7.02602 3.34769C6.94397 3.38051 6.87833 3.43795 6.87833 3.48718C6.87833 3.5282 6.80448 3.56923 6.71423 3.56923C6.62397 3.56923 6.55012 3.59384 6.55012 3.63487C6.55012 3.66769 6.42705 3.74974 6.28756 3.80718C6.13987 3.87282 5.73782 4.10256 5.40141 4.3159C5.065 4.52923 4.58089 4.81641 4.33474 4.93949L3.88346 5.17743L3.85884 6.51487C3.85064 7.25333 3.86705 7.8359 3.89987 7.81949C4.26089 7.64718 4.63012 7.45846 4.66294 7.42564C4.68756 7.40102 4.81884 7.32718 4.95012 7.26154C5.08961 7.1959 5.31115 7.05641 5.45064 6.95795C5.59012 6.85128 5.74602 6.76923 5.79525 6.76923C5.85269 6.76923 5.89371 6.73641 5.89371 6.70359C5.89371 6.66256 6.04141 6.58051 6.22192 6.52308C6.40243 6.46564 6.55012 6.38359 6.55012 6.34256C6.55012 6.30974 6.59115 6.27692 6.64038 6.27692C6.68961 6.27692 6.84551 6.18667 6.9932 6.07179C7.14089 5.95692 7.305 5.86667 7.35423 5.86667C7.41166 5.86667 7.45269 5.82564 7.45269 5.78461C7.45269 5.73538 7.50192 5.70256 7.55935 5.70256C7.60859 5.70256 7.74807 5.62872 7.86294 5.53846C7.97782 5.4482 8.13371 5.37436 8.21576 5.37436C8.28961 5.37436 8.35525 5.32513 8.35525 5.26769C8.35525 5.21846 8.56038 5.07897 8.80653 4.9641C9.05269 4.84923 9.25782 4.74256 9.25782 4.71795C9.25782 4.69333 9.38089 4.61949 9.52859 4.56205C9.66807 4.49641 9.96346 4.3159 10.1686 4.1682C10.3819 4.02051 10.6117 3.89743 10.6855 3.89743C10.7594 3.89743 10.8168 3.85641 10.8168 3.81538C10.8168 3.76615 10.8578 3.73333 10.907 3.73333C10.9563 3.73333 11.2517 3.56923 11.5635 3.3641C11.8753 3.15897 12.1706 2.99487 12.2117 2.99487C12.2609 2.99487 12.2937 2.95384 12.2937 2.91282C12.2937 2.86359 12.3512 2.83077 12.4168 2.83077C12.5481 2.83077 12.8763 2.66666 12.9583 2.56C13.0158 2.47795 13.5245 2.18256 13.7132 2.12513C13.787 2.09231 13.8527 2.01846 13.8527 1.96102C13.8527 1.86256 13.5245 1.84615 11.9901 1.86256C10.9563 1.86256 9.95525 1.89538 9.75012 1.92Z" fill="#FFC161"/>
<path d="M17.5532 2.18244C17.225 2.36295 16.8475 2.57628 16.7245 2.66654C16.5932 2.7568 16.4537 2.83064 16.4045 2.83064C16.3552 2.83064 16.3142 2.86346 16.3142 2.91269C16.3142 2.95372 16.265 2.99475 16.2157 3.00295C16.1583 3.00295 15.945 3.10962 15.7398 3.2409C15.5347 3.37218 15.2393 3.54449 15.0834 3.62654C14.9275 3.70039 14.747 3.81526 14.6896 3.87269C14.6322 3.93013 14.4434 4.0368 14.2793 4.11064C14.1152 4.19269 13.9183 4.29936 13.8527 4.34859C13.787 4.40603 13.5655 4.53731 13.3604 4.64398C13.1552 4.75064 12.9747 4.85731 12.9501 4.88193C12.9255 4.90654 12.8024 4.98039 12.6629 5.04603C12.5316 5.11167 12.2445 5.29218 12.0393 5.43167C11.826 5.57936 11.5963 5.70244 11.5224 5.70244C11.4486 5.70244 11.3911 5.73526 11.3911 5.76808C11.3911 5.80911 11.2598 5.88295 11.1039 5.94859C10.948 6.00603 10.8086 6.10449 10.7839 6.17013C10.7593 6.22757 10.6855 6.2768 10.6116 6.2768C10.546 6.2768 10.4886 6.30962 10.4886 6.35885C10.4886 6.39987 10.4147 6.4409 10.3245 6.4409C10.2342 6.4409 10.1604 6.47372 10.1604 6.51475C10.1604 6.55577 10.0947 6.605 10.0209 6.62962C9.85677 6.67885 9.40548 6.94962 9.33984 7.02346C9.31523 7.05628 9.09369 7.17936 8.84754 7.31064C8.60138 7.44193 8.38805 7.57321 8.37164 7.60603C8.35523 7.64705 8.306 7.67167 8.25677 7.67167C8.20754 7.67167 8.05164 7.75372 7.91215 7.86039C7.77266 7.95885 7.47728 8.13936 7.24754 8.24603C7.026 8.3609 6.82907 8.47577 6.81266 8.50859C6.79625 8.54962 6.74702 8.57423 6.69779 8.57423C6.65677 8.57423 6.50087 8.66449 6.36138 8.77116C6.21369 8.87782 5.97574 9.00911 5.82805 9.07475C5.68856 9.14039 5.56548 9.20603 5.56548 9.23885C5.56548 9.26346 5.4342 9.32911 5.2783 9.39475C5.12241 9.46039 4.99113 9.52603 4.99113 9.55885C4.99113 9.58346 4.85164 9.67372 4.67933 9.76398C4.51523 9.85423 4.35933 9.94449 4.33471 9.96911C4.3101 9.99372 4.19523 10.0594 4.07215 10.125L3.84241 10.2399V11.3804C3.84241 12.045 3.87523 12.5127 3.92446 12.5127C3.96548 12.5127 4.06395 12.4471 4.146 12.365C4.22805 12.2747 4.41677 12.1599 4.55625 12.0942C4.70395 12.0286 4.82702 11.9547 4.82702 11.9219C4.82702 11.8809 4.87625 11.8563 4.93369 11.8563C4.98292 11.8563 5.12241 11.7824 5.23728 11.6922C5.35215 11.6019 5.48343 11.5281 5.54087 11.5281C5.5983 11.5281 5.73779 11.4378 5.86087 11.323C5.98395 11.2081 6.14805 11.1178 6.2301 11.1178C6.32036 11.1178 6.386 11.0768 6.386 11.0358C6.386 10.9865 6.44343 10.9537 6.50907 10.9537C6.57471 10.9537 6.63215 10.9127 6.63215 10.8717C6.63215 10.8224 6.706 10.7896 6.78805 10.7896C6.8783 10.7896 6.96036 10.7568 6.97677 10.724C7.00959 10.6419 7.92036 10.0512 8.01061 10.0512C8.05164 10.0512 8.25677 9.93628 8.48651 9.78859C9.1183 9.37834 9.37266 9.23064 9.52856 9.18141C9.60241 9.14859 9.66805 9.09936 9.66805 9.05834C9.66805 9.01731 9.72548 8.98449 9.79933 8.98449C9.87318 8.98449 10.1111 8.85321 10.3245 8.69731C10.5378 8.54141 10.7593 8.41013 10.8086 8.41013C10.8578 8.41013 10.8988 8.36911 10.8988 8.32808C10.8988 8.27885 10.9727 8.24603 11.0629 8.24603C11.1532 8.24603 11.227 8.205 11.227 8.16398C11.227 8.11475 11.2598 8.08193 11.3091 8.08193C11.3501 8.08193 11.5716 7.95064 11.7932 7.79475C12.0065 7.63885 12.2527 7.50757 12.3265 7.50757C12.4004 7.50757 12.4578 7.46654 12.4578 7.42552C12.4578 7.37628 12.4988 7.34346 12.5563 7.34346C12.6055 7.34346 12.7696 7.25321 12.9173 7.13834C13.065 7.02346 13.2045 6.93321 13.2209 6.93321C13.2455 6.93321 13.508 6.78552 13.8034 6.605C14.0988 6.42449 14.3942 6.2768 14.4598 6.2768C14.5255 6.2768 14.5911 6.22757 14.6157 6.17013C14.6322 6.11269 14.8373 5.97321 15.0506 5.86654C15.2722 5.75167 15.4691 5.6368 15.4773 5.59577C15.4937 5.56295 15.5429 5.53834 15.5922 5.53834C15.6414 5.53834 15.8055 5.43987 15.9614 5.325C16.1091 5.21013 16.4291 5.01321 16.667 4.89013C17.2414 4.58654 17.4793 4.44705 17.627 4.34039C17.7583 4.23372 18.226 3.97116 18.7347 3.70039C18.9152 3.60193 19.1039 3.48705 19.145 3.43782C19.1942 3.38859 19.3501 3.29013 19.4978 3.2327C19.6373 3.16705 19.7604 3.09321 19.7604 3.06039C19.7604 3.01936 19.8178 2.99475 19.8834 2.99475C19.9491 2.99475 20.0065 2.95372 20.0065 2.91269C20.0065 2.86346 20.0639 2.83064 20.1378 2.83064C20.2116 2.83064 20.4414 2.70757 20.6547 2.55987C20.8598 2.40398 21.1716 2.22346 21.3357 2.14141C21.4998 2.06757 21.6639 1.9691 21.6886 1.92808C21.7214 1.87885 21.0896 1.84603 19.9491 1.84603L18.1604 1.85423L17.5532 2.18244Z" fill="#FFC161"/>
<path d="M23.8219 3.1014C23.7317 3.15883 23.4117 3.35576 23.0999 3.54447C22.7963 3.7414 22.5255 3.8973 22.5009 3.8973C22.4763 3.8973 22.3532 3.97114 22.2219 4.0614C21.9593 4.25012 20.4168 5.12806 20.3511 5.12806C20.3265 5.12806 20.2445 5.1773 20.1788 5.24294C20.105 5.30858 19.826 5.48089 19.5552 5.62037C19.2845 5.76806 18.9481 5.97319 18.8004 6.07986C18.6609 6.18653 18.505 6.27678 18.4558 6.27678C18.4065 6.27678 18.3655 6.3096 18.3655 6.35883C18.3655 6.39986 18.2917 6.44089 18.2096 6.44089C18.1193 6.44089 18.0373 6.4655 18.0209 6.49832C18.0127 6.53935 17.8322 6.65422 17.627 6.76089C17.4219 6.87576 17.2414 6.99063 17.2168 7.01525C17.1922 7.04807 16.9214 7.21217 16.6014 7.38448C16.2896 7.55678 15.8301 7.82755 15.6004 7.97525C15.3624 8.12294 15.0752 8.28704 14.9686 8.32806C14.8537 8.36909 14.4517 8.60704 14.0578 8.85319C13.6722 9.10755 13.3276 9.31268 13.2865 9.31268C13.2537 9.31268 13.0732 9.41114 12.9009 9.52601C12.5973 9.73935 12.425 9.83781 11.7358 10.2235C11.5717 10.3219 11.3747 10.4368 11.3091 10.4942C11.2434 10.5517 10.9809 10.6993 10.7347 10.8224C10.4886 10.9537 10.226 11.1096 10.1522 11.167C10.0865 11.2327 9.99627 11.2819 9.95525 11.2819C9.92242 11.2819 9.77473 11.364 9.63524 11.4706C9.49576 11.5691 9.20037 11.7496 8.97063 11.8563C8.74909 11.9711 8.38807 12.1845 8.18294 12.324C7.9696 12.4717 7.75627 12.5947 7.70704 12.5947C7.65781 12.5947 7.61678 12.6193 7.61678 12.6604C7.61678 12.6932 7.49371 12.7752 7.35422 12.8327C7.20653 12.8983 6.89473 13.0788 6.65678 13.2265C6.41883 13.3742 6.21371 13.4973 6.18909 13.4973C6.17268 13.4973 5.91832 13.645 5.63935 13.8255C5.35217 13.9978 4.82704 14.3014 4.48242 14.4901C4.13781 14.6788 3.82601 14.9004 3.79319 14.966C3.67832 15.2286 3.65371 18.2481 3.76037 18.7732C3.89986 19.5035 4.17883 20.3814 4.35935 20.7178C4.4496 20.8737 4.68755 21.3168 4.89268 21.7024C5.31935 22.5065 5.54089 22.8019 6.3696 23.7291C6.93576 24.3609 8.01063 25.3127 8.15012 25.3127C8.18294 25.3127 8.27319 25.3783 8.34704 25.4604C8.54396 25.6901 9.42191 26.2645 11.3747 27.4542C11.4978 27.5281 11.9081 27.7824 12.2937 28.0204C12.6793 28.2583 13.1388 28.5373 13.3193 28.6358C13.4999 28.7342 13.9101 28.9804 14.2219 29.1855C14.5419 29.3824 14.8537 29.5711 14.9193 29.604C14.985 29.6368 15.1901 29.7517 15.3706 29.8665C15.9942 30.2604 16.1747 30.285 16.4783 30.0224C16.544 29.965 16.8065 29.8091 17.0527 29.6778C18.0783 29.1363 18.6281 28.8245 18.6937 28.7588C18.7183 28.7342 18.8988 28.6276 19.104 28.5209C19.3091 28.4142 19.5306 28.2829 19.5963 28.2255C19.744 28.1024 20.827 27.446 20.8845 27.446C20.9419 27.446 21.5245 27.0029 21.5491 26.9291C21.5655 26.8963 21.6229 26.8717 21.6722 26.8717C21.7296 26.8717 21.9347 26.7404 22.1399 26.5845C22.345 26.4286 22.7306 26.1414 23.0014 25.9527C23.2722 25.764 23.5347 25.5752 23.5758 25.5424C23.625 25.5014 23.8958 25.2963 24.1911 25.0747C25.184 24.3281 26.6034 22.7527 27.0301 21.9076C27.145 21.6778 27.3091 21.3742 27.3993 21.2265C27.5963 20.8901 28.0147 19.4296 28.0886 18.7978C28.1214 18.5435 28.1788 18.3137 28.2199 18.2891C28.3265 18.2317 28.3183 5.39883 28.2117 5.33319C28.1706 5.30858 27.9245 5.39884 27.6619 5.54653C27.3993 5.68601 27.0793 5.86653 26.9399 5.94037C26.8086 6.01422 26.6609 6.12089 26.6281 6.17012C26.5952 6.22755 26.4886 6.27678 26.4065 6.27678C26.3163 6.27678 26.2424 6.3096 26.2424 6.35883C26.2424 6.39986 26.185 6.44089 26.1193 6.44089C26.0537 6.44089 25.9963 6.4655 25.9963 6.49832C25.9963 6.53935 25.7993 6.65422 25.5614 6.76909C25.3317 6.88396 25.1183 6.99884 25.0937 7.02345C25.0691 7.04807 24.8886 7.16294 24.6834 7.27781C23.7727 7.78653 23.6496 7.86037 23.5347 7.95883C23.4691 8.01627 23.264 8.13114 23.0834 8.2214C22.624 8.44294 22.1563 8.71371 21.8609 8.93524C21.7214 9.03371 21.426 9.20602 21.1963 9.32089C20.9747 9.42755 20.7696 9.53422 20.745 9.55883C20.7204 9.58345 20.6055 9.6655 20.4824 9.74755C20.2773 9.87883 20.1378 9.95268 19.3747 10.3876C19.2024 10.486 18.9727 10.6255 18.8578 10.7076C18.7429 10.7814 18.5788 10.8717 18.4886 10.9045C18.3983 10.9291 18.1193 11.085 17.8732 11.2491C17.627 11.4132 17.1429 11.6922 16.8065 11.8727C16.4701 12.0532 16.1665 12.2501 16.1337 12.2993C16.1009 12.3486 16.0681 14.8758 16.0681 17.9035C16.0681 23.5568 16.0681 23.6224 16.3552 23.3517C16.4537 23.2614 16.864 23.0235 17.7091 22.5804C18.0455 22.3999 18.4558 22.1701 18.6199 22.0635C18.784 21.9568 19.2106 21.7188 19.5634 21.5301C19.9245 21.3414 20.3019 21.1281 20.4168 21.0542C20.5317 20.9804 20.8106 20.8245 21.0322 20.7096C21.2619 20.6029 21.4588 20.4881 21.4834 20.4635C21.5081 20.4388 21.5819 20.3896 21.6476 20.365C21.7132 20.3322 21.9019 20.2255 22.0578 20.1352C22.2137 20.0368 22.5091 19.8645 22.7142 19.7496C22.9193 19.6347 23.346 19.3968 23.6578 19.2245C23.9778 19.044 24.2814 18.847 24.3388 18.7732C24.4537 18.6091 24.4783 16.8942 24.3634 16.8204C24.2814 16.7711 23.5429 17.1486 23.0014 17.5178C22.8209 17.6409 22.4188 17.8788 22.0988 18.0511C21.787 18.2152 21.467 18.404 21.4014 18.4614C21.2455 18.6009 20.6219 18.9537 20.2363 19.1342C20.064 19.2163 19.9245 19.3065 19.9245 19.3393C19.9245 19.3722 19.785 19.4624 19.6209 19.5445C19.4486 19.6183 19.0383 19.8645 18.7019 20.0778C17.7009 20.7178 17.7829 21.0132 17.8076 17.0173L17.8322 13.5547L18.0947 13.4152C18.2424 13.3332 18.4065 13.2347 18.464 13.1855C18.6035 13.0788 19.145 12.7752 19.5552 12.5701C19.7358 12.4799 19.9409 12.365 20.0065 12.3076C20.0722 12.2501 20.2691 12.127 20.4414 12.0286C20.6055 11.9301 20.8845 11.7824 21.0568 11.684C21.2209 11.5855 21.4178 11.4624 21.4834 11.405C21.5491 11.3476 21.8281 11.1835 22.0988 11.0358C22.3696 10.8881 22.665 10.724 22.7552 10.6747C22.8455 10.6255 23.0342 10.5024 23.1655 10.4122C23.305 10.3137 23.6742 10.1004 23.986 9.93627C24.306 9.77217 24.8476 9.45217 25.1922 9.23063C25.545 9.00909 25.9142 8.82037 26.0127 8.80396L26.2014 8.77935L26.226 13.4481C26.2424 17.3783 26.226 18.2152 26.1193 18.7404C25.9717 19.4624 25.7501 20.2255 25.6599 20.3568C25.6188 20.406 25.4629 20.7014 25.2988 21.0132C25.1429 21.325 24.8968 21.7188 24.7491 21.8911C24.2896 22.4327 23.346 23.3763 23.0917 23.5486C22.9522 23.6388 22.6732 23.8522 22.4517 24.0163C22.2383 24.1886 22.0332 24.3281 21.9922 24.3281C21.9511 24.3281 21.7952 24.4347 21.6393 24.5742C21.2619 24.9024 20.0804 25.7311 19.4732 26.0922C19.2024 26.2563 18.6527 26.6009 18.2424 26.8635C17.8404 27.1342 17.2988 27.4542 17.0527 27.5855C16.8065 27.7086 16.5932 27.8399 16.5768 27.8727C16.5604 27.9137 16.4783 27.9383 16.3881 27.9383C16.306 27.9383 16.2322 27.9711 16.2322 28.0122C16.2322 28.1435 15.904 28.2009 15.7727 28.1024C15.6578 28.004 15.4937 27.9055 14.7552 27.487C14.5501 27.3722 14.0742 27.0768 13.6886 26.8306C13.3029 26.5845 12.8106 26.2891 12.5973 26.1742C12.3758 26.0593 11.9409 25.7968 11.6291 25.5917C11.3173 25.3947 11.0383 25.2306 11.0137 25.2306C10.9152 25.2306 9.37268 24.1229 8.7655 23.6224C7.75627 22.7937 6.91935 21.7845 6.53371 20.9393C6.45986 20.7752 6.30396 20.5127 6.1973 20.365C5.62294 19.5691 5.36858 18.1824 5.5655 16.845C5.66396 16.1558 5.67217 16.1393 6.00858 15.8932C6.1973 15.7619 6.59114 15.524 6.87832 15.3845C7.17371 15.2368 7.46909 15.0727 7.53473 15.0152C7.70704 14.8676 8.36345 14.4819 8.53576 14.4245C8.61781 14.3999 8.68345 14.3506 8.68345 14.3096C8.68345 14.2686 8.73268 14.2358 8.79832 14.2358C8.85576 14.2358 8.95422 14.1865 9.00345 14.1291C9.05268 14.0635 9.33986 13.8911 9.64345 13.7352C9.95525 13.5876 10.2178 13.4399 10.2424 13.4152C10.3163 13.3332 10.7676 13.0624 11.3091 12.7752C11.6045 12.6193 11.9327 12.4224 12.0476 12.3486C12.2363 12.2091 12.4004 12.1188 13.1799 11.684C13.344 11.5855 13.5409 11.4624 13.6065 11.405C13.6722 11.3476 13.8773 11.2327 14.0578 11.1424C14.5173 10.9209 15.0178 10.6255 15.1655 10.5024C15.2311 10.445 15.5511 10.2645 15.8629 10.0922C16.1829 9.92807 16.6999 9.62448 17.0117 9.42755C17.3317 9.22242 17.6763 9.0255 17.7911 8.97627C17.906 8.92704 18.0537 8.84499 18.1193 8.78755C18.185 8.72191 18.4065 8.58243 18.6117 8.47576C19.4076 8.03268 19.6455 7.89319 19.8342 7.7455C19.9409 7.65525 20.0804 7.5896 20.1378 7.5896C20.1952 7.5896 20.2937 7.54037 20.3511 7.48294C20.4086 7.43371 20.5727 7.32704 20.704 7.2614C20.8434 7.19576 21.065 7.06448 21.1963 6.96601C21.3358 6.86755 21.705 6.65422 22.0168 6.48191C22.3368 6.3096 22.6322 6.1455 22.6732 6.11268C22.747 6.05524 22.8619 5.9896 23.6824 5.53012C23.8465 5.43166 24.0434 5.30858 24.1091 5.25114C24.1747 5.1855 24.4537 5.0214 24.7245 4.87371C25.7501 4.33217 26.0127 4.15166 25.947 4.04499C25.9142 4.00396 25.6681 3.85627 25.3891 3.72499C24.8886 3.47883 24.7409 3.40499 24.3388 3.13422C24.0927 2.97012 24.0434 2.97012 23.8219 3.1014Z" fill="#FF6D49"/>
</svg>
