<svg width="32" height="32" viewBox="0 0 32 32" fill="none" xmlns="http://www.w3.org/2000/svg">
<path d="M12.8619 0V6.65169C15.345 6.65169 17.7264 7.63337 19.4822 9.38076C21.238 11.1281 22.2244 13.4981 22.2244 15.9692C22.2244 18.4404 21.238 20.8105 19.4822 22.5578C17.7264 24.3052 15.345 25.2869 12.8619 25.2869V31.9321C17.0607 31.8478 21.059 30.1285 23.9984 27.1435C26.9381 24.1584 28.5844 20.1456 28.5844 15.9661C28.5844 11.7865 26.9381 7.7736 23.9984 4.78856C21.059 1.80352 17.0607 0.0843315 12.8619 0Z" fill="#241937"/>
<path d="M8.14481 11.2749C9.07805 11.2736 9.99072 11.5478 10.7673 12.0629C11.5439 12.578 12.1495 13.3107 12.5076 14.1684C12.8656 15.0261 12.96 15.9703 12.7787 16.8813C12.5974 17.7924 12.1487 18.6296 11.4892 19.2867C10.8297 19.9439 9.98926 20.3916 9.07403 20.5733C8.15881 20.755 7.20999 20.6624 6.34764 20.3073C5.48531 19.9522 4.7482 19.3504 4.22958 18.5782C3.71096 17.8062 3.43414 16.8983 3.43414 15.9695C3.43587 14.726 3.9325 13.5339 4.81536 12.6541C5.69821 11.7742 6.89539 11.2783 8.14481 11.2749Z" fill="#241937"/>
</svg>
