<svg width="32" height="32" viewBox="0 0 32 32" fill="none" xmlns="http://www.w3.org/2000/svg">
<mask id="mask0_3889_192" style="mask-type:alpha" maskUnits="userSpaceOnUse" x="5" y="8" width="13" height="16">
<rect x="5.83105" y="8.53333" width="11.8044" height="15.0756" fill="#D9D9D9"/>
</mask>
<g mask="url(#mask0_3889_192)">
<path d="M8.52617 17.5075C8.52617 20.2809 9.80617 21.9875 11.7475 21.9875C13.6888 21.9875 14.9119 20.288 14.9119 17.5147C14.9119 14.5351 13.7031 13.0133 11.7475 13.0133C9.79194 13.0133 8.52617 14.528 8.52617 17.5075V17.5075ZM17.6071 17.5075C17.6071 21.0915 15.0186 23.6018 11.7262 23.6018C8.43372 23.6018 5.83105 21.0915 5.83105 17.5075C5.83105 13.9235 8.46928 11.4133 11.7262 11.4133C14.9831 11.4133 17.6071 13.9164 17.6071 17.5075V17.5075ZM75.6906 14.72C75.6906 13.8524 76.5084 13.2907 77.7244 13.2907C79.1537 13.2907 79.9431 13.9235 80.0355 14.9262H82.4319C82.3822 12.8427 80.6328 11.4133 77.7244 11.4133C75.1715 11.4133 73.3937 12.6578 73.3937 14.8338C73.3937 19.2142 80.3484 17.2942 80.3484 20.1458C80.3484 21.1058 79.4382 21.7173 78.0515 21.7173C76.4942 21.7173 75.5768 21.0489 75.4062 20.0178H72.9955C73.1377 22.1724 75.1004 23.5947 78.0444 23.5947C80.6684 23.5947 82.6382 22.3502 82.6382 20.032C82.6453 15.6587 75.6906 17.5573 75.6906 14.72V14.72ZM19.0862 23.3742V11.648H21.2977V15.2818C21.9591 12.7502 23.3813 11.4133 25.6995 11.4133C27.7973 11.4133 29.4328 12.7147 29.4328 15.3244V23.3742H27.0079V16.2133C27.0079 14.656 26.1831 13.4258 24.5617 13.4258C22.4071 13.4258 21.5182 15.3102 21.5182 16.6471V23.3742H19.0862V23.3742ZM71.2959 11.648V23.3742H68.9848V19.7333C68.4444 22.2649 67.0648 23.6018 64.8035 23.6018C62.7626 23.6018 61.1697 22.3004 61.1697 19.6907V11.6551H63.5875V18.8018C63.5875 20.3591 64.3342 21.5893 65.9199 21.5893C68.0177 21.5893 68.8853 19.7049 68.8853 18.368V11.648H71.2959ZM36.8071 21.8738C34.7591 21.8738 33.6782 20.2809 33.6782 17.6427V17.4293H42.2826C42.2115 13.7244 40.3271 11.4062 36.7146 11.4062C33.3511 11.4062 30.9759 13.8667 30.9759 17.5929C30.9759 20.9778 32.9671 23.5947 36.7857 23.5947C40.4053 23.5947 42.1048 21.248 42.2115 19.1502H39.7297C39.5519 20.8355 38.8622 21.8738 36.8071 21.8738V21.8738ZM36.7359 13.1342C38.6702 13.1342 39.5235 14.6062 39.6017 16.1564H33.7919C34.0977 14.1653 35.1075 13.1342 36.7359 13.1342ZM59.6053 11.648V14.0515C58.7875 14.0018 58.4746 13.9804 58.1902 13.9804C56.4764 13.9804 55.3742 14.72 55.0186 16.8462C54.9475 17.2515 54.9191 17.6569 54.9191 18.0693V23.3742H52.5013V11.6409H54.7057V15.3244C54.7199 15.2747 55.1608 13.8453 55.5235 13.2195C55.9928 12.2738 56.8746 11.648 57.9199 11.648H59.6053V11.648ZM88.1279 20.7573C88.1279 21.5324 88.4053 21.8098 89.1804 21.8098L91.1644 21.824V23.3671H88.3413C86.6986 23.3671 85.7671 22.4284 85.7671 20.7929V13.312H83.4133V11.9467C83.5697 11.9467 83.5199 11.9467 83.7333 11.9395C84.1102 11.9324 84.4017 11.9253 84.6008 11.904C85.0915 11.8755 85.4186 11.7831 85.5822 11.6195C85.7457 11.456 85.8524 11.1218 85.9093 10.6169C85.9519 10.3395 85.9804 9.98399 86.0017 9.57155C86.0231 9.1591 86.0302 8.60444 86.0302 8.53333H88.1208V11.648H91.1573V13.3191H88.1208L88.1279 20.7573V20.7573ZM47.4666 20.7573C47.4666 21.5324 47.7439 21.8098 48.5191 21.8098L50.5031 21.824V23.3671H47.6799C46.0444 23.3671 45.1057 22.4284 45.1057 20.7929V13.312H42.7519V11.9467C42.9084 11.9467 42.8586 11.9467 43.0719 11.9395C43.4488 11.9324 43.7404 11.9253 43.9395 11.904C44.4302 11.8755 44.7573 11.7831 44.9208 11.6195C45.0844 11.456 45.1911 11.1218 45.2479 10.6169C45.2906 10.3395 45.3191 9.98399 45.3404 9.57155C45.3617 9.1591 45.3759 8.60444 45.3759 8.53333H47.4737V11.648H50.5102V13.3191H47.4737L47.4666 20.7573V20.7573Z" fill="white"/>
</g>
<mask id="mask1_3889_192" style="mask-type:alpha" maskUnits="userSpaceOnUse" x="18" y="8" width="9" height="16">
<rect x="18.3467" y="8.53333" width="7.82222" height="15.0756" fill="#D9D9D9"/>
</mask>
<g mask="url(#mask1_3889_192)">
<path d="M-15.8649 17.5075C-15.8649 20.2809 -14.5849 21.9875 -12.6436 21.9875C-10.7023 21.9875 -9.47917 20.288 -9.47917 17.5147C-9.47917 14.5351 -10.6881 13.0133 -12.6436 13.0133C-14.5992 13.0133 -15.8649 14.528 -15.8649 17.5075V17.5075ZM-6.78406 17.5075C-6.78406 21.0915 -9.3725 23.6018 -12.6649 23.6018C-15.9574 23.6018 -18.5601 21.0915 -18.5601 17.5075C-18.5601 13.9235 -15.9218 11.4133 -12.6649 11.4133C-9.40806 11.4133 -6.78406 13.9164 -6.78406 17.5075V17.5075ZM51.2995 14.72C51.2995 13.8524 52.1173 13.2907 53.3333 13.2907C54.7626 13.2907 55.5519 13.9235 55.6444 14.9262H58.0408C57.9911 12.8427 56.2417 11.4133 53.3333 11.4133C50.7804 11.4133 49.0026 12.6578 49.0026 14.8338C49.0026 19.2142 55.9573 17.2942 55.9573 20.1458C55.9573 21.1058 55.0471 21.7173 53.6604 21.7173C52.1031 21.7173 51.1857 21.0489 51.0151 20.0178H48.6044C48.7466 22.1724 50.7093 23.5947 53.6533 23.5947C56.2773 23.5947 58.2471 22.3502 58.2471 20.032C58.2542 15.6587 51.2995 17.5573 51.2995 14.72V14.72ZM-5.30495 23.3742V11.648H-3.09339V15.2818C-2.43206 12.7502 -1.00984 11.4133 1.30839 11.4133C3.40616 11.4133 5.04172 12.7147 5.04172 15.3244V23.3742H2.61683V16.2133C2.61683 14.656 1.79194 13.4258 0.170608 13.4258C-1.98406 13.4258 -2.87295 15.3102 -2.87295 16.6471V23.3742H-5.30495V23.3742ZM46.9048 11.648V23.3742H44.5937V19.7333C44.0533 22.2649 42.6737 23.6018 40.4124 23.6018C38.3715 23.6018 36.7786 22.3004 36.7786 19.6907V11.6551H39.1964V18.8018C39.1964 20.3591 39.9431 21.5893 41.5288 21.5893C43.6266 21.5893 44.4942 19.7049 44.4942 18.368V11.648H46.9048ZM12.4159 21.8738C10.3679 21.8738 9.28705 20.2809 9.28705 17.6427V17.4293H17.8915C17.8204 13.7244 15.9359 11.4062 12.3235 11.4062C8.95994 11.4062 6.58483 13.8667 6.58483 17.5929C6.58483 20.9778 8.57594 23.5947 12.3946 23.5947C16.0142 23.5947 17.7137 21.248 17.8204 19.1502H15.3386C15.1608 20.8355 14.4711 21.8738 12.4159 21.8738V21.8738ZM12.3448 13.1342C14.2791 13.1342 15.1324 14.6062 15.2106 16.1564H9.40083C9.70661 14.1653 10.7164 13.1342 12.3448 13.1342ZM35.2142 11.648V14.0515C34.3964 14.0018 34.0835 13.9804 33.7991 13.9804C32.0853 13.9804 30.9831 14.72 30.6275 16.8462C30.5564 17.2515 30.5279 17.6569 30.5279 18.0693V23.3742H28.1102V11.6409H30.3146V15.3244C30.3288 15.2747 30.7697 13.8453 31.1324 13.2195C31.6017 12.2738 32.4835 11.648 33.5288 11.648H35.2142V11.648ZM63.7368 20.7573C63.7368 21.5324 64.0142 21.8098 64.7893 21.8098L66.7733 21.824V23.3671H63.9502C62.3075 23.3671 61.3759 22.4284 61.3759 20.7929V13.312H59.0222V11.9467C59.1786 11.9467 59.1288 11.9467 59.3422 11.9395C59.7191 11.9324 60.0106 11.9253 60.2097 11.904C60.7004 11.8755 61.0275 11.7831 61.1911 11.6195C61.3546 11.456 61.4613 11.1218 61.5182 10.6169C61.5608 10.3395 61.5893 9.98399 61.6106 9.57155C61.6319 9.1591 61.6391 8.60444 61.6391 8.53333H63.7297V11.648H66.7662V13.3191H63.7297L63.7368 20.7573V20.7573ZM23.0755 20.7573C23.0755 21.5324 23.3528 21.8098 24.1279 21.8098L26.1119 21.824V23.3671H23.2888C21.6533 23.3671 20.7146 22.4284 20.7146 20.7929V13.312H18.3608V11.9467C18.5173 11.9467 18.4675 11.9467 18.6808 11.9395C19.0577 11.9324 19.3493 11.9253 19.5484 11.904C20.0391 11.8755 20.3662 11.7831 20.5297 11.6195C20.6933 11.456 20.7999 11.1218 20.8568 10.6169C20.8995 10.3395 20.9279 9.98399 20.9493 9.57155C20.9706 9.1591 20.9848 8.60444 20.9848 8.53333H23.0826V11.648H26.1191V13.3191H23.0826L23.0755 20.7573V20.7573Z" fill="white"/>
</g>
<rect width="32" height="32" fill="#55A05E"/>
<mask id="mask2_3889_192" style="mask-type:alpha" maskUnits="userSpaceOnUse" x="5" y="8" width="13" height="16">
<rect x="5.83105" y="8.53333" width="11.8044" height="15.0756" fill="#D9D9D9"/>
</mask>
<g mask="url(#mask2_3889_192)">
<path d="M8.52617 17.5075C8.52617 20.2809 9.80617 21.9875 11.7475 21.9875C13.6888 21.9875 14.9119 20.288 14.9119 17.5147C14.9119 14.5351 13.7031 13.0133 11.7475 13.0133C9.79194 13.0133 8.52617 14.528 8.52617 17.5075V17.5075ZM17.6071 17.5075C17.6071 21.0915 15.0186 23.6018 11.7262 23.6018C8.43372 23.6018 5.83105 21.0915 5.83105 17.5075C5.83105 13.9235 8.46928 11.4133 11.7262 11.4133C14.9831 11.4133 17.6071 13.9164 17.6071 17.5075V17.5075ZM75.6906 14.72C75.6906 13.8524 76.5084 13.2907 77.7244 13.2907C79.1537 13.2907 79.9431 13.9235 80.0355 14.9262H82.4319C82.3822 12.8427 80.6328 11.4133 77.7244 11.4133C75.1715 11.4133 73.3937 12.6578 73.3937 14.8338C73.3937 19.2142 80.3484 17.2942 80.3484 20.1458C80.3484 21.1058 79.4382 21.7173 78.0515 21.7173C76.4942 21.7173 75.5768 21.0489 75.4062 20.0178H72.9955C73.1377 22.1724 75.1004 23.5947 78.0444 23.5947C80.6684 23.5947 82.6382 22.3502 82.6382 20.032C82.6453 15.6587 75.6906 17.5573 75.6906 14.72V14.72ZM19.0862 23.3742V11.648H21.2977V15.2818C21.9591 12.7502 23.3813 11.4133 25.6995 11.4133C27.7973 11.4133 29.4328 12.7147 29.4328 15.3244V23.3742H27.0079V16.2133C27.0079 14.656 26.1831 13.4258 24.5617 13.4258C22.4071 13.4258 21.5182 15.3102 21.5182 16.6471V23.3742H19.0862V23.3742ZM71.2959 11.648V23.3742H68.9848V19.7333C68.4444 22.2649 67.0648 23.6018 64.8035 23.6018C62.7626 23.6018 61.1697 22.3004 61.1697 19.6907V11.6551H63.5875V18.8018C63.5875 20.3591 64.3342 21.5893 65.9199 21.5893C68.0177 21.5893 68.8853 19.7049 68.8853 18.368V11.648H71.2959ZM36.8071 21.8738C34.7591 21.8738 33.6782 20.2809 33.6782 17.6427V17.4293H42.2826C42.2115 13.7244 40.3271 11.4062 36.7146 11.4062C33.3511 11.4062 30.9759 13.8667 30.9759 17.5929C30.9759 20.9778 32.9671 23.5947 36.7857 23.5947C40.4053 23.5947 42.1048 21.248 42.2115 19.1502H39.7297C39.5519 20.8355 38.8622 21.8738 36.8071 21.8738V21.8738ZM36.7359 13.1342C38.6702 13.1342 39.5235 14.6062 39.6017 16.1564H33.7919C34.0977 14.1653 35.1075 13.1342 36.7359 13.1342ZM59.6053 11.648V14.0515C58.7875 14.0018 58.4746 13.9804 58.1902 13.9804C56.4764 13.9804 55.3742 14.72 55.0186 16.8462C54.9475 17.2515 54.9191 17.6569 54.9191 18.0693V23.3742H52.5013V11.6409H54.7057V15.3244C54.7199 15.2747 55.1608 13.8453 55.5235 13.2195C55.9928 12.2738 56.8746 11.648 57.9199 11.648H59.6053V11.648ZM88.1279 20.7573C88.1279 21.5324 88.4053 21.8098 89.1804 21.8098L91.1644 21.824V23.3671H88.3413C86.6986 23.3671 85.7671 22.4284 85.7671 20.7929V13.312H83.4133V11.9467C83.5697 11.9467 83.5199 11.9467 83.7333 11.9395C84.1102 11.9324 84.4017 11.9253 84.6008 11.904C85.0915 11.8755 85.4186 11.7831 85.5822 11.6195C85.7457 11.456 85.8524 11.1218 85.9093 10.6169C85.9519 10.3395 85.9804 9.98399 86.0017 9.57155C86.0231 9.1591 86.0302 8.60444 86.0302 8.53333H88.1208V11.648H91.1573V13.3191H88.1208L88.1279 20.7573V20.7573ZM47.4666 20.7573C47.4666 21.5324 47.7439 21.8098 48.5191 21.8098L50.5031 21.824V23.3671H47.6799C46.0444 23.3671 45.1057 22.4284 45.1057 20.7929V13.312H42.7519V11.9467C42.9084 11.9467 42.8586 11.9467 43.0719 11.9395C43.4488 11.9324 43.7404 11.9253 43.9395 11.904C44.4302 11.8755 44.7573 11.7831 44.9208 11.6195C45.0844 11.456 45.1911 11.1218 45.2479 10.6169C45.2906 10.3395 45.3191 9.98399 45.3404 9.57155C45.3617 9.1591 45.3759 8.60444 45.3759 8.53333H47.4737V11.648H50.5102V13.3191H47.4737L47.4666 20.7573V20.7573Z" fill="white"/>
</g>
<mask id="mask3_3889_192" style="mask-type:alpha" maskUnits="userSpaceOnUse" x="18" y="8" width="9" height="16">
<rect x="18.3467" y="8.53333" width="7.82222" height="15.0756" fill="#D9D9D9"/>
</mask>
<g mask="url(#mask3_3889_192)">
<path d="M-15.8649 17.5075C-15.8649 20.2809 -14.5849 21.9875 -12.6436 21.9875C-10.7023 21.9875 -9.47917 20.288 -9.47917 17.5147C-9.47917 14.5351 -10.6881 13.0133 -12.6436 13.0133C-14.5992 13.0133 -15.8649 14.528 -15.8649 17.5075V17.5075ZM-6.78406 17.5075C-6.78406 21.0915 -9.3725 23.6018 -12.6649 23.6018C-15.9574 23.6018 -18.5601 21.0915 -18.5601 17.5075C-18.5601 13.9235 -15.9218 11.4133 -12.6649 11.4133C-9.40806 11.4133 -6.78406 13.9164 -6.78406 17.5075V17.5075ZM51.2995 14.72C51.2995 13.8524 52.1173 13.2907 53.3333 13.2907C54.7626 13.2907 55.5519 13.9235 55.6444 14.9262H58.0408C57.9911 12.8427 56.2417 11.4133 53.3333 11.4133C50.7804 11.4133 49.0026 12.6578 49.0026 14.8338C49.0026 19.2142 55.9573 17.2942 55.9573 20.1458C55.9573 21.1058 55.0471 21.7173 53.6604 21.7173C52.1031 21.7173 51.1857 21.0489 51.0151 20.0178H48.6044C48.7466 22.1724 50.7093 23.5947 53.6533 23.5947C56.2773 23.5947 58.2471 22.3502 58.2471 20.032C58.2542 15.6587 51.2995 17.5573 51.2995 14.72V14.72ZM-5.30495 23.3742V11.648H-3.09339V15.2818C-2.43206 12.7502 -1.00984 11.4133 1.30839 11.4133C3.40616 11.4133 5.04172 12.7147 5.04172 15.3244V23.3742H2.61683V16.2133C2.61683 14.656 1.79194 13.4258 0.170608 13.4258C-1.98406 13.4258 -2.87295 15.3102 -2.87295 16.6471V23.3742H-5.30495V23.3742ZM46.9048 11.648V23.3742H44.5937V19.7333C44.0533 22.2649 42.6737 23.6018 40.4124 23.6018C38.3715 23.6018 36.7786 22.3004 36.7786 19.6907V11.6551H39.1964V18.8018C39.1964 20.3591 39.9431 21.5893 41.5288 21.5893C43.6266 21.5893 44.4942 19.7049 44.4942 18.368V11.648H46.9048ZM12.4159 21.8738C10.3679 21.8738 9.28705 20.2809 9.28705 17.6427V17.4293H17.8915C17.8204 13.7244 15.9359 11.4062 12.3235 11.4062C8.95994 11.4062 6.58483 13.8667 6.58483 17.5929C6.58483 20.9778 8.57594 23.5947 12.3946 23.5947C16.0142 23.5947 17.7137 21.248 17.8204 19.1502H15.3386C15.1608 20.8355 14.4711 21.8738 12.4159 21.8738V21.8738ZM12.3448 13.1342C14.2791 13.1342 15.1324 14.6062 15.2106 16.1564H9.40083C9.70661 14.1653 10.7164 13.1342 12.3448 13.1342ZM35.2142 11.648V14.0515C34.3964 14.0018 34.0835 13.9804 33.7991 13.9804C32.0853 13.9804 30.9831 14.72 30.6275 16.8462C30.5564 17.2515 30.5279 17.6569 30.5279 18.0693V23.3742H28.1102V11.6409H30.3146V15.3244C30.3288 15.2747 30.7697 13.8453 31.1324 13.2195C31.6017 12.2738 32.4835 11.648 33.5288 11.648H35.2142V11.648ZM63.7368 20.7573C63.7368 21.5324 64.0142 21.8098 64.7893 21.8098L66.7733 21.824V23.3671H63.9502C62.3075 23.3671 61.3759 22.4284 61.3759 20.7929V13.312H59.0222V11.9467C59.1786 11.9467 59.1288 11.9467 59.3422 11.9395C59.7191 11.9324 60.0106 11.9253 60.2097 11.904C60.7004 11.8755 61.0275 11.7831 61.1911 11.6195C61.3546 11.456 61.4613 11.1218 61.5182 10.6169C61.5608 10.3395 61.5893 9.98399 61.6106 9.57155C61.6319 9.1591 61.6391 8.60444 61.6391 8.53333H63.7297V11.648H66.7662V13.3191H63.7297L63.7368 20.7573V20.7573ZM23.0755 20.7573C23.0755 21.5324 23.3528 21.8098 24.1279 21.8098L26.1119 21.824V23.3671H23.2888C21.6533 23.3671 20.7146 22.4284 20.7146 20.7929V13.312H18.3608V11.9467C18.5173 11.9467 18.4675 11.9467 18.6808 11.9395C19.0577 11.9324 19.3493 11.9253 19.5484 11.904C20.0391 11.8755 20.3662 11.7831 20.5297 11.6195C20.6933 11.456 20.7999 11.1218 20.8568 10.6169C20.8995 10.3395 20.9279 9.98399 20.9493 9.57155C20.9706 9.1591 20.9848 8.60444 20.9848 8.53333H23.0826V11.648H26.1191V13.3191H23.0826L23.0755 20.7573V20.7573Z" fill="white"/>
</g>
</svg>
