<svg width="32" height="32" viewBox="0 0 32 32" fill="none" xmlns="http://www.w3.org/2000/svg">
<path d="M31.6458 11.529C31.6342 10.2142 29.2046 9.61735 22.9153 9.61735C8.15794 9.61735 4.41407 8.98703 0.407288 4.771C2.09268 7.30249 3.01489 12.0506 18.613 11.8144C34.8871 11.5637 24.959 16.0105 22.0704 21.0346C27.2796 16.385 31.6302 13.3203 31.6458 11.5481V11.529ZM10.9086 25.0306C10.9084 25.6215 10.6736 26.1881 10.2557 26.6059C9.83787 27.0237 9.27125 27.2585 8.68037 27.2586C7.44557 27.2586 6.44727 26.2603 6.44727 25.0306C6.44705 24.7373 6.50466 24.4468 6.6168 24.1758C6.72895 23.9047 6.89342 23.6584 7.10082 23.451C7.30823 23.2436 7.55448 23.0791 7.82551 22.9669C8.09655 22.8547 8.38704 22.7971 8.68037 22.7973C9.91063 22.7973 10.9086 23.7958 10.9086 25.0306ZM21.0712 25.0306C21.071 25.6215 20.8362 26.1881 20.4183 26.6059C20.0005 27.0237 19.4338 27.2585 18.843 27.2586C17.6093 27.2586 16.6102 26.2603 16.6102 25.0306C16.6099 24.7373 16.6675 24.4468 16.7797 24.1758C16.8918 23.9048 17.0562 23.6585 17.2636 23.4511C17.471 23.2437 17.7172 23.0792 17.9882 22.967C18.2592 22.8548 18.5497 22.7971 18.843 22.7973C20.0732 22.7973 21.0712 23.7958 21.0712 25.0306Z" fill="url(#paint0_linear_4267_34)"/>
<defs>
<linearGradient id="paint0_linear_4267_34" x1="7154.81" y1="2240.33" x2="7154.81" y2="4.771" gradientUnits="userSpaceOnUse">
<stop stop-color="#04B6F0"/>
<stop offset="1" stop-color="#3ECAF0"/>
</linearGradient>
</defs>
</svg>
