<svg width="32" height="32" viewBox="0 0 32 32" fill="none" xmlns="http://www.w3.org/2000/svg">
<path d="M0 3.66666C0 1.64162 1.65891 0 3.70527 0H28.2948C30.3411 0 32 1.64162 32 3.66666V28.3333C32 30.3584 30.3411 32 28.2948 32H3.70527C1.65891 32 0 30.3584 0 28.3333V3.66666Z" fill="#F6E458"/>
<path d="M20.507 7.15282C18.7415 6.65096 16.9407 6.58275 15.1055 6.74517C14.0786 6.85077 13.0913 7.0525 12.1389 7.40649C10.0805 8.17164 8.53504 9.49677 7.61346 11.4921C6.95277 12.9225 6.71399 14.4419 6.6891 16.0011C6.6628 17.6486 6.87145 19.2735 7.20299 20.8844C7.5035 22.3445 7.9037 23.7761 8.47525 25.158C8.52956 25.2893 8.59719 25.3336 8.74213 25.3333C10.5498 25.3295 12.3575 25.3295 14.1652 25.3295C14.7003 25.3295 15.2355 25.3295 15.7707 25.3294C15.8116 25.3294 15.8526 25.3272 15.8997 25.3246C15.9238 25.3233 15.9494 25.3219 15.9775 25.3207C15.9666 25.2951 15.957 25.2716 15.9478 25.2496C15.93 25.2062 15.9144 25.1686 15.8969 25.1317C15.7662 24.855 15.6328 24.5795 15.4993 24.3039C15.2099 23.7062 14.9206 23.1084 14.6589 22.499C13.8649 20.6509 13.257 18.748 13.0715 16.7337C12.9897 15.845 13.001 14.9613 13.2503 14.0953C13.535 13.1053 14.1462 12.4065 15.1596 12.1143C16.0901 11.8461 17.0336 11.8479 17.959 12.144C18.785 12.4083 19.3235 12.9667 19.5526 13.8026C19.7285 14.4446 19.7284 15.0935 19.5954 15.7408C19.4928 16.2391 19.2866 16.6938 18.9152 17.0576C18.249 17.7101 17.4172 17.8602 16.5245 17.8102C16.3657 17.8012 16.2074 17.7841 16.0442 17.7663C15.9678 17.758 15.8903 17.7496 15.8112 17.7418C15.8135 17.7669 15.8147 17.7898 15.816 17.8114C15.8182 17.8539 15.8202 17.8907 15.8291 17.9258C15.8671 18.0771 15.9034 18.229 15.9396 18.3809C16.027 18.7467 16.1143 19.1126 16.2265 19.4708C16.4471 20.1741 16.7034 20.8605 16.9941 21.5307C19.0661 21.3707 20.9744 20.861 22.9999 19.6578C23.0303 19.6388 23.058 19.6217 23.0857 19.6046C23.9557 19.0686 24.6599 18.3733 25.1455 17.4755C25.9319 16.0215 26.0852 14.4666 25.8516 12.8616C25.6105 11.2053 24.8593 9.815 23.5663 8.72448C22.6695 7.9681 21.6325 7.47274 20.507 7.15282Z" fill="black"/>
</svg>
