<svg width="32" height="32" viewBox="0 0 32 32" fill="none" xmlns="http://www.w3.org/2000/svg">
<path d="M5.50999 10.97L10.26 2.73999L17.56 29.96L13.39 31.08L10.43 29.34L5.50999 10.97Z" fill="#14C3DC"/>
<path d="M24.99 5.75L12 9.23L10.26 2.74L16.76 1L24.99 5.75Z" fill="url(#paint0_linear_4873_10)"/>
<path d="M26.73 12.24L21.98 20.48L18.5 7.49L24.99 5.75L26.73 12.24Z" fill="url(#paint1_linear_4873_10)"/>
<path d="M5 25.03L21.98 20.48L20.24 13.98L7.23 17.47L5 25.03Z" fill="url(#paint2_linear_4873_10)"/>
<path d="M13.39 31.08L10.43 29.34L12.76 28.72L13.39 31.08Z" fill="#00AAC8"/>
<defs>
<linearGradient id="paint0_linear_4873_10" x1="11.1285" y1="5.98766" x2="24.1202" y2="2.50655" gradientUnits="userSpaceOnUse">
<stop stop-color="#008DA6"/>
<stop offset="0.19" stop-color="#00AAC8"/>
</linearGradient>
<linearGradient id="paint1_linear_4873_10" x1="25.2229" y1="19.6037" x2="21.7444" y2="6.62169" gradientUnits="userSpaceOnUse">
<stop offset="0.9" stop-color="#14C3DC"/>
<stop offset="1" stop-color="#12B0C7"/>
</linearGradient>
<linearGradient id="paint2_linear_4873_10" x1="4.12678" y1="21.7779" x2="21.0981" y2="17.2304" gradientUnits="userSpaceOnUse">
<stop offset="0.8" stop-color="#00AAC8"/>
<stop offset="1" stop-color="#008DA6"/>
</linearGradient>
</defs>
</svg>
