<svg width="32" height="32" viewBox="0 0 32 32" fill="none" xmlns="http://www.w3.org/2000/svg">
<path fill-rule="evenodd" clip-rule="evenodd" d="M17.1428 1.14282H12C11.8857 1.14282 11.7714 1.14282 11.6571 1.25711C11.4286 1.37139 11.3143 1.59997 11.3143 1.82854V30.1714H9.14284V1.82854C9.14284 1.48568 8.91427 1.14282 8.57141 1.14282H5.14284C4.79998 1.14282 4.57141 1.48568 4.57141 1.82854V30.7428C4.57141 31.0857 4.79998 31.3143 5.14284 31.4285C5.4857 31.4285 5.82855 31.2 5.82855 30.8571V2.39997H7.99998V30.7428C7.99998 31.0857 8.22855 31.3143 8.57141 31.3143H12C12.3428 31.3143 12.5714 31.0857 12.5714 30.7428V2.85711C12.5714 2.62854 12.8 2.39997 13.0286 2.39997H17.1428C22.5143 2.39997 26.7428 6.74282 26.7428 12.2285C26.7428 17.7143 22.5143 22.0571 17.1428 22.0571H16V20.2285H16.5714C20.9143 20.2285 24.4571 16.6857 24.5714 12.4571C24.6857 7.99996 20.9143 4.34282 16.4571 4.34282H15.3143C14.9714 4.34282 14.7428 4.57139 14.7428 4.91425V7.99997C14.7428 8.22854 14.8571 8.45711 15.0857 8.57139C15.2 8.68568 15.3143 8.68568 15.4286 8.68568H16C17.8286 8.68568 19.3143 10.0571 19.4286 11.8857C19.5428 13.7143 18.0571 15.2 16.2286 15.3143H16.1143H15.3143C14.9714 15.3143 14.7428 15.5428 14.6286 15.8857C14.6286 16.2285 14.8571 16.5714 15.2 16.5714H16C18.5143 16.5714 20.5714 14.6285 20.5714 12.2285C20.6857 9.71425 18.6286 7.65711 16.1143 7.54282H16H15.8857V5.48568H16.3428C20.1143 5.48568 23.3143 8.57139 23.2 12.3428C23.2 16 20.1143 18.9714 16.4571 18.9714H15.3143C14.9714 18.9714 14.7428 19.2 14.7428 19.5428V22.6285C14.7428 22.9714 14.9714 23.2 15.3143 23.2H17.1428C23.2 23.2 28 18.4 28 12.2285C28 5.94282 23.2 1.14282 17.1428 1.14282Z" fill="#00B6EF"/>
</svg>
