<svg width="32" height="32" viewBox="0 0 32 32" fill="none" xmlns="http://www.w3.org/2000/svg">
<g clip-path="url(#clip0_3889_177)">
<path d="M12.9539 12.9539L12.923 15.9998L15.9999 22.0918L7.35376 30.738L8.61542 17.2924L12.9539 12.9539Z" fill="#E62626"/>
<path d="M4.30769 0C1.92862 0 0 1.92862 0 4.30769V27.6923L8.61538 17.8462V4.30769C8.61538 1.92862 6.68677 0 4.30769 0ZM4.30769 2.46154C4.79732 2.46154 5.2669 2.65604 5.61312 3.00226C5.95934 3.34849 6.15385 3.81806 6.15385 4.30769C6.15385 4.79732 5.95934 5.2669 5.61312 5.61312C5.2669 5.95934 4.79732 6.15385 4.30769 6.15385C3.81806 6.15385 3.34849 5.95934 3.00226 5.61312C2.65604 5.2669 2.46154 4.79732 2.46154 4.30769C2.46154 3.81806 2.65604 3.34849 3.00226 3.00226C3.34849 2.65604 3.81806 2.46154 4.30769 2.46154V2.46154Z" fill="#F89C20"/>
<path d="M8.6155 17.2924L1.26227 24.6468L1.26467 24.6481C0.456183 25.4551 0.00135183 26.5501 0.000244141 27.6925C0.000244141 30.0716 1.92886 32.0002 4.30794 32.0002C6.68701 32.0002 8.61563 30.0716 8.61563 27.6925L8.6155 17.2924ZM4.30781 25.8462C5.32744 25.8462 6.15396 26.6727 6.15396 27.6924C6.15396 28.712 5.32744 29.5385 4.30781 29.5385C3.28818 29.5385 2.46165 28.712 2.46165 27.6924C2.46165 26.6727 3.28818 25.8462 4.30781 25.8462Z" fill="#D02E27"/>
<path d="M19.0462 12.9539L19.0772 15.9998L16.0002 22.0918L24.6464 30.738L23.3847 17.2924L19.0462 12.9539Z" fill="#694D9F"/>
<path d="M27.6922 0C30.0713 0 31.9999 1.92862 31.9999 4.30769V27.6923L23.3845 17.8462V4.30769C23.3845 1.92862 25.3131 0 27.6922 0ZM27.6922 2.46154C27.2026 2.46154 26.733 2.65604 26.3868 3.00226C26.0406 3.34849 25.8461 3.81806 25.8461 4.30769C25.8461 4.79732 26.0406 5.2669 26.3868 5.61312C26.733 5.95934 27.2026 6.15385 27.6922 6.15385C28.1818 6.15385 28.6514 5.95934 28.9976 5.61312C29.3439 5.2669 29.5384 4.79732 29.5384 4.30769C29.5384 3.81806 29.3439 3.34849 28.9976 3.00226C28.6514 2.65604 28.1818 2.46154 27.6922 2.46154V2.46154Z" fill="#2EB3C4"/>
<path d="M23.3846 17.2924L30.7379 24.6468L30.7355 24.6481C31.544 25.4551 31.9987 26.5501 31.9999 27.6925C31.9999 30.0716 30.0713 32.0002 27.6922 32.0002C25.3131 32.0002 23.3845 30.0716 23.3845 27.6925L23.3846 17.2924ZM27.6923 25.8462C26.6727 25.8462 25.8462 26.6727 25.8462 27.6924C25.8462 28.712 26.6727 29.5385 27.6923 29.5385C28.712 29.5385 29.5385 28.712 29.5385 27.6924C29.5385 26.6727 28.712 25.8462 27.6923 25.8462Z" fill="#263C81"/>
<path d="M15.9372 11.6923C14.8165 11.7089 13.7463 12.1616 12.954 12.9544C12.1463 13.7622 11.6926 14.8577 11.6926 16C11.6926 17.1423 12.1463 18.2379 12.954 19.0457L15.9996 22.0926L19.0453 19.0457C19.853 18.2379 20.3067 17.1423 20.3067 16C20.3067 14.8577 19.853 13.7622 19.0453 12.9544C18.638 12.5468 18.153 12.2251 17.6191 12.0084C17.0852 11.7916 16.5133 11.6841 15.9371 11.6923H15.9372ZM15.9997 14.1539C16.4893 14.1539 16.9589 14.3484 17.3051 14.6946C17.6513 15.0408 17.8458 15.5104 17.8458 16C17.8458 16.4897 17.6513 16.9592 17.3051 17.3055C16.9589 17.6517 16.4893 17.8462 15.9997 17.8462C15.5101 17.8462 15.0405 17.6517 14.6943 17.3055C14.348 16.9592 14.1535 16.4897 14.1535 16C14.1535 15.5104 14.348 15.0408 14.6943 14.6946C15.0405 14.3484 15.5101 14.1539 15.9997 14.1539V14.1539Z" fill="#7F1333"/>
</g>
<defs>
<clipPath id="clip0_3889_177">
<rect width="32" height="32" fill="white"/>
</clipPath>
</defs>
</svg>
