<svg width="32" height="32" viewBox="0 0 32 32" fill="none" xmlns="http://www.w3.org/2000/svg">
<mask id="mask0_4248_21" style="mask-type:luminance" maskUnits="userSpaceOnUse" x="3" y="0" width="25" height="32">
<path d="M27.7333 0.533333H3.73333V31.4667H27.7333V0.533333Z" fill="white"/>
</mask>
<g mask="url(#mask0_4248_21)">
<path d="M27.4757 25.2224L27.7333 25.4875L23.1824 31.4667L22.6662 31.0251C21.9793 26.1062 18.5718 26.2827 18.5718 26.2827L14.5317 26.1062C4.12853 25.6507 3.73335 14.8251 3.73335 14.8251C3.71575 2.39575 13.9013 0.923217 13.9013 0.923217V1.62988C9.89813 2.13122 9.65712 7.66775 9.65712 7.66775C14.9798 6.16588 20.1217 0.304551 20.4939 0.540284C20.8657 0.776017 26.4459 4.78188 27.1329 12.5867C27.8198 20.392 20.8657 24.9574 20.8657 24.9574C24.5857 23.9558 26.1312 26.9307 26.1312 26.9307L27.4757 25.2224ZM9.29013 15.2374C9.31893 18.2715 10.3105 21.3344 10.3105 21.3344L11.6598 20.8928V7.57975L9.50933 8.38988C9.50933 8.38988 9.26192 12.2038 9.29072 15.2379L9.29013 15.2374ZM19.0256 25.311V6.34242L16.784 4.10402V20.127L10.4011 21.8496C10.4011 21.8496 11.8827 25.0752 14.5728 25.4582C17.2629 25.8411 19.0256 25.311 19.0256 25.311ZM19.5056 6.93175C26.2309 16.4155 19.5056 25.1344 19.5056 25.1344V6.93175Z" fill="black" fill-opacity="0.85"/>
</g>
</svg>
