<svg width="32" height="32" viewBox="0 0 32 32" fill="none" xmlns="http://www.w3.org/2000/svg">
<path d="M10.8969 22.8807L10.8949 22.8796L10.8928 22.8785L0.394645 17.2725C0.29061 17.2169 0.287454 17.069 0.389022 17.009L10.3635 11.1227C10.3637 11.1226 10.364 11.1224 10.3642 11.1223C11.9895 10.1864 14.1095 9.70161 16.2237 9.68087C18.3387 9.66013 20.4313 10.1039 22.0027 11.0077C23.0762 11.6265 23.7606 12.374 24.081 13.1524C24.4 13.9275 24.3637 14.7462 23.9731 15.5273C23.8271 15.8192 24.0006 16.2165 24.3602 16.2385L31.5268 16.6763C31.6777 16.6855 31.7233 16.8858 31.5912 16.9593L15.9087 25.6838C15.8623 25.7096 15.8058 25.7092 15.7597 25.6827L11.8805 23.4458L10.8969 22.8807Z" fill="url(#paint0_linear_3889_252)"/>
<path d="M16.2225 9.55588C14.0874 9.57682 12.0184 10.0632 10.4306 10.9413L10.3015 11.0141L0.325493 16.9014C0.139918 17.0109 0.145687 17.2813 0.335786 17.3828L10.8352 22.9895L11.8185 23.5543L15.6973 25.7909C15.7813 25.8394 15.8847 25.8402 15.9695 25.7931L31.652 17.0685C31.8933 16.9343 31.81 16.5683 31.5344 16.5516L24.3678 16.1137C24.1156 16.0983 23.9706 15.8116 24.0848 15.5833C24.4912 14.7709 24.5298 13.9145 24.1966 13.1048C23.8537 12.2717 23.1282 11.5122 22.065 10.8993C20.5114 10.0057 18.4159 9.53438 16.2225 9.55588ZM0.452554 17.1167L10.4201 11.2341C11.9918 10.3293 14.0729 9.82698 16.225 9.80587C18.3763 9.78478 20.4283 10.2463 21.9402 11.116C22.9583 11.7028 23.6451 12.4219 23.9654 13.2C24.2708 13.9421 24.2356 14.723 23.8613 15.4714C23.6699 15.854 23.9139 16.3364 24.3526 16.3632L31.5192 16.8011C31.5454 16.8027 31.5533 16.8373 31.5305 16.85L15.848 25.5746C15.8399 25.579 15.8302 25.579 15.8222 25.5744L11.9423 23.3371L10.9526 22.7687L0.453525 17.1622C0.435535 17.1526 0.434989 17.127 0.452554 17.1167Z" fill="#3F2BB4"/>
<path fill-rule="evenodd" clip-rule="evenodd" d="M31.3969 16.9003C31.5986 16.7855 31.8488 16.931 31.8488 17.163V18.092C31.8488 18.1988 31.7926 18.2976 31.7007 18.352L15.9453 27.6925C15.8501 27.7489 15.7316 27.7488 15.6365 27.6922L0.298774 18.5614C0.20722 18.5068 0.151123 18.4082 0.151123 18.3016V17.373C0.151123 17.1409 0.40195 16.9954 0.603466 17.1106L15.641 25.7107C15.7338 25.7638 15.8478 25.7639 15.9408 25.7109L31.3969 16.9003Z" fill="white"/>
<path d="M32 18.092V17.1629H31.6977V18.092H32ZM16.0224 27.8225L31.7778 18.482L31.6237 18.222L15.8682 27.5624L16.0224 27.8225ZM15.7138 27.5623L0.376103 18.4315L0.221479 18.6912L15.5592 27.822L15.7138 27.5623ZM0.302277 18.3016V17.373H0V18.3016H0.302277ZM0.528451 17.2418L15.566 25.8419L15.716 25.5795L0.678516 16.9794L0.528451 17.2418ZM31.3223 16.769L15.8659 25.5796L16.0156 25.8422L31.4719 17.0316L31.3223 16.769ZM15.566 25.8419C15.7052 25.9215 15.8762 25.9216 16.0156 25.8422L15.8659 25.5796C15.8194 25.6061 15.7625 25.606 15.716 25.5795L15.566 25.8419ZM0.302277 17.373C0.302277 17.257 0.427692 17.1842 0.528451 17.2418L0.678516 16.9794C0.376242 16.8066 0 17.0248 0 17.373H0.302277ZM0.376103 18.4315C0.330326 18.4042 0.302277 18.3549 0.302277 18.3016H0C0 18.4614 0.0841453 18.6094 0.221479 18.6912L0.376103 18.4315ZM15.8682 27.5624C15.8206 27.5906 15.7614 27.5906 15.7138 27.5623L15.5592 27.822C15.7019 27.9069 15.8795 27.9071 16.0224 27.8225L15.8682 27.5624ZM32 17.1629C32 16.815 31.6246 16.5967 31.3223 16.769L31.4719 17.0316C31.5726 16.9742 31.6977 17.047 31.6977 17.1629H32ZM31.6977 18.092C31.6977 18.1454 31.6696 18.1948 31.6237 18.222L31.7778 18.482C31.9157 18.4004 32 18.2521 32 18.092H31.6977Z" fill="#3F2BB4"/>
<path d="M10.8969 17.4397L10.8949 17.4385L10.8928 17.4374L0.394645 11.8314C0.29061 11.7759 0.287454 11.6279 0.389022 11.568L10.3635 5.68164C10.3637 5.68151 10.364 5.68137 10.3642 5.68124C11.9895 4.74536 14.1095 4.26056 16.2237 4.23983C18.3387 4.2191 20.4313 4.66284 22.0027 5.56661C23.0762 6.18546 23.7606 6.93301 24.081 7.71137C24.4 8.4865 24.3637 9.30512 23.9731 10.0863C23.8271 10.3781 24.0006 10.7755 24.3602 10.7974L31.5268 11.2353C31.6777 11.2445 31.7233 11.4448 31.5912 11.5182L15.9087 20.2428C15.8623 20.2686 15.8058 20.2682 15.7597 20.2416L11.8805 18.0047L10.8969 17.4397Z" fill="url(#paint1_linear_3889_252)"/>
<path d="M16.2225 4.11484C14.0874 4.13577 12.0184 4.62219 10.4296 5.50082L10.297 5.57581L0.325493 11.4603C0.139918 11.5698 0.145687 11.8403 0.335786 11.9417L10.8352 17.5484L11.8185 18.1133L15.6973 20.3499C15.7813 20.3984 15.8847 20.3992 15.9695 20.352L31.652 11.6275C31.8933 11.4933 31.81 11.1273 31.5344 11.1105L24.3678 10.6727C24.1156 10.6573 23.9706 10.3706 24.0848 10.1422C24.4912 9.32984 24.5298 8.47349 24.1966 7.6638C23.8536 6.83064 23.1282 6.07114 22.065 5.45826C20.5113 4.56467 18.4158 4.09334 16.2225 4.11484ZM0.452554 11.6756L10.4245 5.79077C11.9918 4.8883 14.0729 4.38593 16.225 4.36483C18.3763 4.34374 20.4282 4.80528 21.9402 5.67491C22.9583 6.26175 23.6451 6.98083 23.9654 7.75895C24.2708 8.50107 24.2356 9.28198 23.8613 10.0304C23.6699 10.413 23.9139 10.8954 24.3526 10.9222L31.5192 11.3601C31.5454 11.3617 31.5533 11.3963 31.5305 11.409L15.848 20.1335C15.8399 20.138 15.8302 20.1379 15.8222 20.1333L11.9423 17.8961L10.9526 17.3276L0.453525 11.7212C0.435535 11.7116 0.434989 11.686 0.452554 11.6756Z" fill="#3F2BB4"/>
<path fill-rule="evenodd" clip-rule="evenodd" d="M31.3969 11.4593C31.5986 11.3444 31.8488 11.49 31.8488 11.7219V12.651C31.8488 12.7577 31.7926 12.8566 31.7007 12.911L15.9453 22.2514C15.8501 22.3079 15.7316 22.3078 15.6365 22.2511L0.298774 13.1203C0.20722 13.0658 0.151123 12.9671 0.151123 12.8606V11.932C0.151123 11.6999 0.40195 11.5543 0.603466 11.6696L15.641 20.2697C15.7338 20.3227 15.8478 20.3228 15.9408 20.2699L31.3969 11.4593Z" fill="white"/>
<path d="M32 12.6511V11.722H31.6977V12.6511H32ZM16.0224 22.3815L31.7778 13.0411L31.6237 12.7811L15.8682 22.1215L16.0224 22.3815ZM15.7138 22.1214L0.376103 12.9905L0.221479 13.2503L15.5592 22.3811L15.7138 22.1214ZM0.302277 12.8607V11.9321H0V12.8607H0.302277ZM0.528451 11.8009L15.566 20.401L15.716 20.1386L0.678516 11.5385L0.528451 11.8009ZM31.3223 11.3281L15.8659 20.1387L16.0156 20.4013L31.4719 11.5907L31.3223 11.3281ZM15.566 20.401C15.7052 20.4806 15.8762 20.4807 16.0156 20.4013L15.8659 20.1387C15.8194 20.1651 15.7625 20.1651 15.716 20.1386L15.566 20.401ZM0.302277 11.9321C0.302277 11.816 0.427692 11.7433 0.528451 11.8009L0.678516 11.5385C0.376242 11.3656 0 11.5839 0 11.9321H0.302277ZM0.376103 12.9905C0.330326 12.9633 0.302277 12.9139 0.302277 12.8607H0C0 13.0205 0.0841453 13.1685 0.221479 13.2503L0.376103 12.9905ZM15.8682 22.1215C15.8206 22.1497 15.7614 22.1497 15.7138 22.1214L15.5592 22.3811C15.7019 22.466 15.8795 22.4662 16.0224 22.3815L15.8682 22.1215ZM32 11.722C32 11.3741 31.6246 11.1558 31.3223 11.3281L31.4719 11.5907C31.5726 11.5333 31.6977 11.606 31.6977 11.722H32ZM31.6977 12.6511C31.6977 12.7045 31.6696 12.7539 31.6237 12.7811L31.7778 13.0411C31.9157 12.9595 32 12.8112 32 12.6511H31.6977Z" fill="#3F2BB4"/>
<defs>
<linearGradient id="paint0_linear_3889_252" x1="16.0575" y1="9.52904" x2="16.0575" y2="25.8991" gradientUnits="userSpaceOnUse">
<stop stop-color="#F9CA96"/>
<stop offset="0.447917" stop-color="#F5569F"/>
<stop offset="1" stop-color="#5F24B1"/>
</linearGradient>
<linearGradient id="paint1_linear_3889_252" x1="16.0575" y1="4.088" x2="16.0575" y2="20.4581" gradientUnits="userSpaceOnUse">
<stop stop-color="#F9CA96"/>
<stop offset="0.447917" stop-color="#F5569F"/>
<stop offset="1" stop-color="#5F24B1"/>
</linearGradient>
</defs>
</svg>
