<svg width="32" height="32" viewBox="0 0 32 32" fill="none" xmlns="http://www.w3.org/2000/svg">
<path d="M2.66667 0C1.19391 0 0 1.1939 0 2.66667V5.77778C0 6.51415 0.596953 7.11111 1.33333 7.11111H14.6667C15.403 7.11111 16 6.51415 16 5.77778V2.66667C16 1.1939 14.8061 0 13.3333 0H2.66667Z" fill="black"/>
<path d="M16 26.2222C16 25.4859 16.597 24.8889 17.3333 24.8889H30.6667C31.403 24.8889 32 25.4859 32 26.2222V29.3333C32 30.806 30.806 32 29.3333 32H18.6667C17.1939 32 16 30.806 16 29.3333V26.2222Z" fill="black"/>
<path d="M1.33333 10.6667C0.596953 10.6667 0 11.2636 0 12V18.6667C0 20.1394 1.19391 21.3333 2.66667 21.3333H30.6667C31.403 21.3333 32 20.7363 32 20V13.3333C32 11.8606 30.806 10.6667 29.3333 10.6667H1.33333Z" fill="black"/>
</svg>
