<svg width="32" height="32" viewBox="0 0 32 32" fill="none" xmlns="http://www.w3.org/2000/svg">
<path d="M7.22426 26.0752C7.7606 26.1826 8.30635 26.2362 8.85335 26.2352H13.7018V24.4073H8.85335C7.9958 24.41 7.14597 24.2453 6.35153 23.9225C5.95586 23.7583 5.57745 23.5552 5.22183 23.3164C4.8734 23.0764 4.54869 22.8036 4.25214 22.5018C3.95036 22.2053 3.6776 21.8806 3.43759 21.5321C3.18805 21.1653 2.97684 20.7737 2.80729 20.3637C2.48441 19.5692 2.31971 18.7194 2.32244 17.8618C2.32329 17.5782 2.3411 17.2949 2.37577 17.0134C2.41322 16.7374 2.46665 16.4638 2.53577 16.194C2.59725 15.9514 2.67501 15.7133 2.7685 15.4812C2.85814 15.2473 2.96176 15.0191 3.0788 14.7976L3.15638 14.657C3.30189 14.4104 3.46388 14.1739 3.64123 13.9491C3.8107 13.7249 3.99367 13.5111 4.18911 13.3091C4.38483 13.1079 4.59379 12.92 4.81456 12.7467C5.03388 12.5688 5.26558 12.4068 5.50789 12.2618L5.75517 12.1115L5.93941 12V11.5152C5.94431 11.1778 5.98165 10.8417 6.05092 10.5115C6.1177 10.1789 6.21843 9.85394 6.35153 9.54184C6.48384 9.23099 6.64623 8.93382 6.83638 8.65457C7.2094 8.08401 7.68835 7.59025 8.24729 7.20003C8.52574 7.01136 8.82115 6.84904 9.12971 6.71518C9.44289 6.5814 9.76742 6.47593 10.0994 6.40003C10.4275 6.32588 10.762 6.28366 11.0982 6.27396H11.4085H11.6461L11.7527 6.06548L11.8885 5.78427C11.9988 5.56456 12.1235 5.35238 12.2618 5.14912C12.4109 4.94503 12.5728 4.75069 12.7467 4.5673C12.9121 4.39256 13.0903 4.23048 13.28 4.08245C13.4703 3.92504 13.6712 3.78086 13.8812 3.65093C14.0878 3.52111 14.3033 3.40608 14.5261 3.30669C14.7512 3.2084 14.9829 3.12578 15.2194 3.05942C15.4545 2.99128 15.6943 2.94104 15.937 2.90912C16.1828 2.87448 16.4306 2.85666 16.6788 2.85578C16.9875 2.85692 17.2955 2.88286 17.6 2.93336C17.8789 2.96971 18.1545 3.02808 18.4243 3.1079C18.7129 3.21088 18.992 3.33905 19.2582 3.49093C19.524 3.64477 19.777 3.81989 20.0146 4.01457C20.2516 4.21124 20.4707 4.42867 20.6691 4.66427C21.072 5.12989 21.3888 5.66345 21.6049 6.24003C21.7128 6.52477 21.7955 6.81841 21.8521 7.1176L21.9249 7.51033L21.983 7.80609L22.2837 7.83033L22.6764 7.85942C23.004 7.88468 23.3285 7.93986 23.6461 8.02427C24.2875 8.19702 24.891 8.48807 25.4255 8.88245L25.4837 8.92609H28.0194C27.8594 8.71275 27.6849 8.50427 27.5055 8.30548C27.2235 8.00421 26.917 7.72689 26.5891 7.47639C26.2617 7.22639 25.9129 7.00574 25.5467 6.817C25.2567 6.6642 24.9552 6.53451 24.6449 6.42912C24.3286 6.31647 24.0045 6.22734 23.6752 6.16245L23.4521 6.11881L23.3794 5.90063C23.1967 5.33956 22.9442 4.80365 22.6279 4.30548C22.4373 3.9851 22.2217 3.68031 21.983 3.39396C21.7339 3.11158 21.4632 2.84897 21.1733 2.60851C20.8581 2.34473 20.5188 2.11098 20.16 1.91033C19.8019 1.70622 19.4273 1.53268 19.04 1.39154C18.6519 1.25362 18.2529 1.14821 17.8473 1.07639C17.1152 0.948644 16.3677 0.935558 15.6315 1.0376C15.304 1.08336 14.9801 1.15139 14.6618 1.24124C14.3464 1.33317 14.0371 1.4449 13.7358 1.57578C13.1574 1.83691 12.6148 2.17093 12.1212 2.56972C11.8867 2.76387 11.6633 2.97107 11.4521 3.19033C11.2873 3.36487 11.1257 3.54427 10.9673 3.72851C10.8218 3.92245 10.6812 4.11639 10.56 4.31518L10.463 4.47033H10.2788C9.92111 4.51647 9.56767 4.59105 9.22183 4.69336C8.88648 4.80477 8.55924 4.93923 8.24244 5.09578C7.85193 5.27456 7.47865 5.48879 7.12729 5.73578C6.42469 6.2308 5.817 6.84834 5.33335 7.55881C5.09284 7.91249 4.88511 8.28738 4.71274 8.67881C4.57122 9.00905 4.45453 9.34939 4.36365 9.69699C4.26647 10.048 4.19836 10.4064 4.16001 10.7685V10.9431L4.01456 11.0449C3.79638 11.2049 3.5782 11.3746 3.37456 11.554C3.17092 11.7334 2.97698 11.9224 2.78789 12.1212C2.559 12.3649 2.34526 12.6223 2.14789 12.8921C1.95014 13.1632 1.76725 13.4449 1.60001 13.7358C1.41679 14.0478 1.2548 14.3717 1.11517 14.7055C0.978896 15.0367 0.865498 15.3769 0.775772 15.7237C0.682563 16.0709 0.61291 16.424 0.567288 16.7806C0.5167 17.1405 0.489169 17.5033 0.484863 17.8667C0.484977 18.9647 0.70078 20.0519 1.12001 21.0667C1.3308 21.5756 1.59061 22.0627 1.89577 22.5212C2.19996 22.9769 2.54919 23.4009 2.9382 23.7867C3.3238 24.1745 3.7478 24.5221 4.20365 24.8243C4.66175 25.1302 5.14897 25.39 5.6582 25.6C6.16231 25.8147 6.68706 25.9771 7.22426 26.0849V26.0752Z" fill="#94C640"/>
<path fill-rule="evenodd" clip-rule="evenodd" d="M18.7297 27.4521C19.0682 27.4521 19.3991 27.5525 19.6806 27.7406C19.962 27.9287 20.1814 28.196 20.3109 28.5087C20.4405 28.8214 20.4744 29.1656 20.4083 29.4976C20.3423 29.8296 20.1793 30.1345 19.9399 30.3739C19.7006 30.6132 19.3956 30.7763 19.0636 30.8423C18.7316 30.9083 18.3875 30.8744 18.0747 30.7449C17.762 30.6154 17.4947 30.396 17.3066 30.1145C17.1186 29.8331 17.0182 29.5022 17.0182 29.1637C17.0182 28.7097 17.1985 28.2744 17.5195 27.9534C17.8405 27.6325 18.2758 27.4521 18.7297 27.4521Z" fill="#94C640"/>
<path fill-rule="evenodd" clip-rule="evenodd" d="M24.2425 27.4521C24.581 27.4521 24.9119 27.5525 25.1933 27.7406C25.4748 27.9287 25.6942 28.196 25.8237 28.5087C25.9532 28.8214 25.9871 29.1656 25.9211 29.4976C25.855 29.8296 25.692 30.1345 25.4527 30.3739C25.2133 30.6132 24.9084 30.7763 24.5764 30.8423C24.2444 30.9083 23.9002 30.8744 23.5875 30.7449C23.2748 30.6154 23.0074 30.396 22.8194 30.1145C22.6313 29.8331 22.5309 29.5022 22.5309 29.1637C22.5309 28.7097 22.7113 28.2744 23.0322 27.9534C23.3532 27.6325 23.7885 27.4521 24.2425 27.4521Z" fill="#94C640"/>
<path d="M7.22426 26.0752C7.7606 26.1826 8.30635 26.2362 8.85335 26.2352H13.7018V24.4073H8.85335C7.9958 24.41 7.14597 24.2453 6.35153 23.9225C5.95586 23.7583 5.57745 23.5552 5.22183 23.3164C4.8734 23.0764 4.54869 22.8036 4.25214 22.5018C3.95036 22.2053 3.6776 21.8806 3.43759 21.5321C3.18805 21.1653 2.97684 20.7737 2.80729 20.3637C2.48441 19.5692 2.31971 18.7194 2.32244 17.8618C2.32329 17.5782 2.3411 17.2949 2.37577 17.0134C2.41322 16.7374 2.46665 16.4638 2.53577 16.194C2.59725 15.9514 2.67501 15.7133 2.7685 15.4812C2.85814 15.2473 2.96176 15.0191 3.0788 14.7976L3.15638 14.657C3.30189 14.4104 3.46388 14.1739 3.64123 13.9491C3.8107 13.7249 3.99367 13.5111 4.18911 13.3091C4.38483 13.1079 4.59379 12.92 4.81456 12.7467C5.03388 12.5688 5.26558 12.4068 5.50789 12.2618L5.75517 12.1115L5.93941 12V11.5152C5.94431 11.1778 5.98165 10.8417 6.05092 10.5115C6.1177 10.1789 6.21843 9.85394 6.35153 9.54184C6.48384 9.23099 6.64623 8.93382 6.83638 8.65457C7.2094 8.08401 7.68835 7.59025 8.24729 7.20003C8.52574 7.01136 8.82115 6.84904 9.12971 6.71518C9.44289 6.5814 9.76742 6.47593 10.0994 6.40003C10.4275 6.32588 10.762 6.28366 11.0982 6.27396H11.4085H11.6461L11.7527 6.06548L11.8885 5.78427C11.9988 5.56456 12.1235 5.35238 12.2618 5.14912C12.4109 4.94503 12.5728 4.75069 12.7467 4.5673C12.9121 4.39256 13.0903 4.23048 13.28 4.08245C13.4703 3.92504 13.6712 3.78086 13.8812 3.65093C14.0878 3.52111 14.3033 3.40608 14.5261 3.30669C14.7512 3.2084 14.9829 3.12578 15.2194 3.05942C15.4545 2.99128 15.6943 2.94104 15.937 2.90912C16.1828 2.87448 16.4306 2.85666 16.6788 2.85578C16.9875 2.85692 17.2955 2.88286 17.6 2.93336C17.8789 2.96971 18.1545 3.02808 18.4243 3.1079C18.7129 3.21088 18.992 3.33905 19.2582 3.49093C19.524 3.64477 19.777 3.81989 20.0146 4.01457C20.2516 4.21124 20.4707 4.42867 20.6691 4.66427C21.072 5.12989 21.3888 5.66345 21.6049 6.24003C21.7128 6.52477 21.7955 6.81841 21.8521 7.1176L21.9249 7.51033L21.983 7.80609L22.2837 7.83033L22.6764 7.85942C23.004 7.88468 23.3285 7.93986 23.6461 8.02427C24.2875 8.19702 24.891 8.48807 25.4255 8.88245L25.4837 8.92609H28.0194C27.8594 8.71275 27.6849 8.50427 27.5055 8.30548C27.2235 8.00421 26.917 7.72689 26.5891 7.47639C26.2617 7.22639 25.9129 7.00574 25.5467 6.817C25.2567 6.6642 24.9552 6.53451 24.6449 6.42912C24.3286 6.31647 24.0045 6.22734 23.6752 6.16245L23.4521 6.11881L23.3794 5.90063C23.1967 5.33956 22.9442 4.80365 22.6279 4.30548C22.4373 3.9851 22.2217 3.68031 21.983 3.39396C21.7339 3.11158 21.4632 2.84897 21.1733 2.60851C20.8581 2.34473 20.5188 2.11098 20.16 1.91033C19.8019 1.70622 19.4273 1.53268 19.04 1.39154C18.6519 1.25362 18.2529 1.14821 17.8473 1.07639C17.1152 0.948644 16.3677 0.935558 15.6315 1.0376C15.304 1.08336 14.9801 1.15139 14.6618 1.24124C14.3464 1.33317 14.0371 1.4449 13.7358 1.57578C13.1574 1.83691 12.6148 2.17093 12.1212 2.56972C11.8867 2.76387 11.6633 2.97107 11.4521 3.19033C11.2873 3.36487 11.1257 3.54427 10.9673 3.72851C10.8218 3.92245 10.6812 4.11639 10.56 4.31518L10.463 4.47033H10.2788C9.92111 4.51647 9.56767 4.59105 9.22183 4.69336C8.88648 4.80477 8.55924 4.93923 8.24244 5.09578C7.85193 5.27456 7.47865 5.48879 7.12729 5.73578C6.42469 6.2308 5.817 6.84834 5.33335 7.55881C5.09284 7.91249 4.88511 8.28738 4.71274 8.67881C4.57122 9.00905 4.45453 9.34939 4.36365 9.69699C4.26647 10.048 4.19836 10.4064 4.16001 10.7685V10.9431L4.01456 11.0449C3.79638 11.2049 3.5782 11.3746 3.37456 11.554C3.17092 11.7334 2.97698 11.9224 2.78789 12.1212C2.559 12.3649 2.34526 12.6223 2.14789 12.8921C1.95014 13.1632 1.76725 13.4449 1.60001 13.7358C1.41679 14.0478 1.2548 14.3717 1.11517 14.7055C0.978896 15.0367 0.865498 15.3769 0.775772 15.7237C0.682563 16.0709 0.61291 16.424 0.567288 16.7806C0.5167 17.1405 0.489169 17.5033 0.484863 17.8667C0.484977 18.9647 0.70078 20.0519 1.12001 21.0667C1.3308 21.5756 1.59061 22.0627 1.89577 22.5212C2.19996 22.9769 2.54919 23.4009 2.9382 23.7867C3.3238 24.1745 3.7478 24.5221 4.20365 24.8243C4.66175 25.1302 5.14897 25.39 5.6582 25.6C6.16231 25.8147 6.68706 25.9771 7.22426 26.0849V26.0752Z" fill="#94C840"/>
<path fill-rule="evenodd" clip-rule="evenodd" d="M18.7297 27.4521C19.0682 27.4521 19.3991 27.5525 19.6806 27.7406C19.962 27.9287 20.1814 28.196 20.3109 28.5087C20.4405 28.8214 20.4744 29.1656 20.4083 29.4976C20.3423 29.8296 20.1793 30.1345 19.9399 30.3739C19.7006 30.6132 19.3956 30.7763 19.0636 30.8423C18.7316 30.9083 18.3875 30.8744 18.0747 30.7449C17.762 30.6154 17.4947 30.396 17.3066 30.1145C17.1186 29.8331 17.0182 29.5022 17.0182 29.1637C17.0182 28.7097 17.1985 28.2744 17.5195 27.9534C17.8405 27.6325 18.2758 27.4521 18.7297 27.4521Z" fill="#94C840"/>
<path fill-rule="evenodd" clip-rule="evenodd" d="M24.2425 27.4521C24.581 27.4521 24.9119 27.5525 25.1933 27.7406C25.4748 27.9287 25.6942 28.196 25.8237 28.5087C25.9532 28.8214 25.9871 29.1656 25.9211 29.4976C25.855 29.8296 25.692 30.1345 25.4527 30.3739C25.2133 30.6132 24.9084 30.7763 24.5764 30.8423C24.2444 30.9083 23.9002 30.8744 23.5875 30.7449C23.2748 30.6154 23.0074 30.396 22.8194 30.1145C22.6313 29.8331 22.5309 29.5022 22.5309 29.1637C22.5309 28.7097 22.7113 28.2744 23.0322 27.9534C23.3532 27.6325 23.7885 27.4521 24.2425 27.4521Z" fill="#94C840"/>
<path d="M19.2679 10.5842H24.7855H27.3455C27.5082 10.5824 27.6704 10.5662 27.8303 10.5357C27.9963 10.5033 28.1587 10.4546 28.3152 10.3903C28.4684 10.3283 28.6146 10.2503 28.7515 10.1576C28.8903 10.0648 29.0202 9.95928 29.1394 9.8424C29.2563 9.72318 29.3618 9.59333 29.4546 9.45452C29.5472 9.31765 29.6253 9.17139 29.6873 9.01816C29.7516 8.86172 29.8003 8.69932 29.8327 8.53331C29.8647 8.37366 29.8809 8.21127 29.8812 8.04846H31.7236C31.721 8.32673 31.6934 8.6042 31.6412 8.87755C31.5845 9.15677 31.5 9.42964 31.3891 9.6921C31.2801 9.95681 31.1453 10.2102 30.9867 10.4485C30.823 10.6983 30.6381 10.9335 30.4339 11.1515C30.2292 11.3535 30.0069 11.5368 29.7697 11.6994C29.5314 11.858 29.278 11.9928 29.0133 12.1018C28.7515 12.2133 28.4784 12.2962 28.1988 12.3491C27.9198 12.4076 27.6354 12.4369 27.3503 12.4363H21.1394H19.2679C19.1052 12.4382 18.9429 12.4544 18.783 12.4848C18.6169 12.5169 18.4545 12.5657 18.2982 12.6303C18.1434 12.6923 17.9955 12.7703 17.857 12.863C17.7197 12.9558 17.5915 13.0614 17.4739 13.1782C17.3571 13.2957 17.2516 13.4239 17.1588 13.5612C17.0663 13.699 16.9868 13.8451 16.9212 13.9976C16.8585 14.1541 16.8114 14.3165 16.7806 14.4824C16.7179 14.8026 16.7179 15.1319 16.7806 15.4521C16.8114 15.618 16.8585 15.7804 16.9212 15.9369C16.9868 16.0894 17.0663 16.2355 17.1588 16.3733C17.2528 16.5112 17.3582 16.6409 17.4739 16.7612C17.5915 16.878 17.7197 16.9835 17.857 17.0763C17.9955 17.1691 18.1434 17.2471 18.2982 17.3091C18.4545 17.3737 18.6169 17.4224 18.783 17.4545C18.9429 17.485 19.1052 17.5012 19.2679 17.503H25.9976C26.2824 17.5031 26.5666 17.5307 26.8461 17.5854C27.127 17.6415 27.4016 17.726 27.6655 17.8376C27.9291 17.9456 28.1809 18.0804 28.417 18.24C28.6589 18.3948 28.8847 18.5735 29.0909 18.7733C29.2967 18.9745 29.4804 19.1972 29.6388 19.4376C29.8034 19.6755 29.9446 19.9288 30.0606 20.1939C30.1678 20.459 30.2505 20.7332 30.3079 21.0133C30.4178 21.5736 30.4178 22.15 30.3079 22.7103C30.2519 22.9891 30.1691 23.2619 30.0606 23.5248C29.9501 23.7897 29.8136 24.0431 29.6533 24.2812C29.4904 24.5222 29.3018 24.7449 29.0909 24.9454C28.8897 25.1512 28.667 25.3349 28.4267 25.4933C28.1896 25.6526 27.938 25.789 27.6752 25.9006C27.4103 26.0084 27.136 26.0912 26.8558 26.1479C26.5763 26.2026 26.2921 26.2302 26.0073 26.2303H14.88V24.3879H25.9976C26.1604 24.3884 26.3229 24.3721 26.4824 24.3394C26.6484 24.3089 26.8108 24.2618 26.9673 24.1988C27.1213 24.1332 27.269 24.0537 27.4085 23.9612C27.5457 23.8684 27.674 23.7628 27.7915 23.646C27.9142 23.5335 28.0248 23.4084 28.1212 23.2727C28.2127 23.1326 28.2922 22.985 28.3588 22.8315C28.4241 22.6758 28.4713 22.5131 28.4994 22.3466C28.5615 22.0264 28.5615 21.6972 28.4994 21.3769C28.4706 21.2106 28.4234 21.048 28.3588 20.8921C28.2932 20.7396 28.2137 20.5936 28.1212 20.4557C28.0312 20.3149 27.9255 20.1848 27.8061 20.0679C27.6885 19.951 27.5603 19.8455 27.423 19.7527C27.2835 19.6602 27.1358 19.5807 26.9818 19.5151C26.8245 19.4544 26.6623 19.4074 26.497 19.3745C26.3374 19.3418 26.175 19.3255 26.0121 19.326H19.2679C18.9846 19.3281 18.7018 19.3004 18.4242 19.2436C18.1434 19.1892 17.8689 19.1063 17.6049 18.9963C17.342 18.8847 17.0904 18.7483 16.8533 18.5891C16.6142 18.4308 16.3917 18.2489 16.1891 18.046C15.9856 17.8427 15.8021 17.6203 15.6412 17.3818C15.4809 17.1437 15.3445 16.8903 15.2339 16.6254C15.1268 16.362 15.044 16.0894 14.9867 15.8109C14.8767 15.2489 14.8767 14.671 14.9867 14.1091C15.044 13.8306 15.1268 13.5579 15.2339 13.2945C15.3455 13.0301 15.4819 12.7769 15.6412 12.5382C15.8021 12.2997 15.9856 12.0772 16.1891 11.8739C16.3917 11.671 16.6142 11.4891 16.8533 11.3309C17.0904 11.1716 17.342 11.0352 17.6049 10.9236C17.8685 10.8103 18.1431 10.7242 18.4242 10.6666C18.7038 10.6119 18.9879 10.5843 19.2727 10.5842H19.2679Z" fill="#1E1E1E"/>
</svg>
