<svg width="32" height="32" viewBox="0 0 32 32" fill="none" xmlns="http://www.w3.org/2000/svg">
<path d="M17.4488 17.4488C17.2604 17.6472 17.0341 17.806 16.7834 17.9157C16.5327 18.0253 16.2625 18.0837 15.9889 18.0872C15.7152 18.0908 15.4436 18.0396 15.1901 17.9366C14.9366 17.8335 14.7063 17.6807 14.5127 17.4873C14.3192 17.2938 14.1664 17.0635 14.0632 16.81C13.9601 16.5565 13.9088 16.285 13.9123 16.0113C13.9158 15.7377 13.9741 15.4675 14.0836 15.2168C14.1932 14.966 14.3519 14.7397 14.5503 14.5512C14.9379 14.1832 15.4538 13.981 15.9882 13.9879C16.5226 13.9947 17.0332 14.21 17.4112 14.5879C17.7892 14.9657 18.0047 15.4763 18.0117 16.0107C18.0187 16.5451 17.8167 17.0611 17.4488 17.4488ZM9.50785 9.50785C9.30936 9.69625 9.15061 9.92248 9.04095 10.1732C8.93129 10.4239 8.87294 10.6941 8.86935 10.9677C8.86577 11.2414 8.917 11.513 9.02005 11.7665C9.12309 12.02 9.27586 12.2503 9.46934 12.4439C9.66281 12.6374 9.89309 12.7902 10.1466 12.8934C10.4001 12.9965 10.6716 13.0478 10.9453 13.0443C11.2189 13.0408 11.4891 12.9825 11.7398 12.873C11.9906 12.7634 12.2169 12.6047 12.4054 12.4063C12.7734 12.0188 12.9756 11.5028 12.9687 10.9684C12.9619 10.434 12.7466 9.92336 12.3687 9.54537C11.9909 9.16739 11.4803 8.95194 10.9459 8.94493C10.4115 8.93792 9.89549 9.13991 9.50785 9.50785ZM4.46445 7.36288C4.65285 7.56137 4.87908 7.72012 5.12981 7.82978C5.38054 7.93944 5.65069 7.99779 5.92433 8.00138C6.19797 8.00496 6.46956 7.95373 6.72308 7.85068C6.9766 7.74764 7.20692 7.59487 7.40046 7.40139C7.594 7.20792 7.74684 6.97764 7.84996 6.72416C7.95309 6.47067 8.00441 6.1991 8.00091 5.92546C7.99741 5.65182 7.93915 5.38165 7.82957 5.13089C7.71999 4.88012 7.56131 4.65383 7.36288 4.46537C6.97535 4.09731 6.4594 3.89516 5.92498 3.902C5.39057 3.90884 4.87996 4.12413 4.50198 4.50199C4.124 4.87985 3.90854 5.39039 3.90153 5.9248C3.89452 6.45922 4.09651 6.97524 4.46445 7.36288ZM27.5355 24.6371C27.3472 24.4386 27.1209 24.2799 26.8702 24.1702C26.6195 24.0606 26.3493 24.0022 26.0757 23.9986C25.802 23.995 25.5304 24.0463 25.2769 24.1493C25.0234 24.2524 24.7931 24.4051 24.5995 24.5986C24.406 24.7921 24.2532 25.0224 24.15 25.2758C24.0469 25.5293 23.9956 25.8009 23.9991 26.0745C24.0026 26.3482 24.0609 26.6184 24.1704 26.8691C24.28 27.1199 24.4387 27.3462 24.6371 27.5346C25.0246 27.9027 25.5406 28.1048 26.075 28.098C26.6094 28.0912 27.12 27.8759 27.498 27.498C27.876 27.1202 28.0915 26.6096 28.0985 26.0752C28.1055 25.5408 27.9035 25.0248 27.5355 24.6371ZM22.4922 22.4922C22.6906 22.3038 22.8494 22.0775 22.9591 21.8268C23.0687 21.5761 23.1271 21.3059 23.1306 21.0323C23.1342 20.7586 23.083 20.487 22.98 20.2335C22.8769 19.98 22.7241 19.7497 22.5307 19.5561C22.3372 19.3626 22.1069 19.2098 21.8534 19.1066C21.5999 19.0035 21.3284 18.9522 21.0547 18.9557C20.7811 18.9592 20.5109 19.0175 20.2602 19.127C20.0094 19.2366 19.7831 19.3953 19.5946 19.5937C19.2266 19.9812 19.0244 20.4972 19.0313 21.0316C19.0381 21.566 19.2534 22.0766 19.6313 22.4546C20.0091 22.8326 20.5197 23.0481 21.0541 23.0551C21.5885 23.0621 22.1045 22.8601 22.4922 22.4922ZM19.5946 9.50785C19.3962 9.69625 19.2374 9.92248 19.1277 10.1732C19.0181 10.4239 18.9597 10.6941 18.9562 10.9677C18.9526 11.2414 19.0038 11.513 19.1068 11.7665C19.2099 12.02 19.3627 12.2503 19.5561 12.4439C19.7496 12.6374 19.9799 12.7902 20.2334 12.8934C20.4869 12.9965 20.7584 13.0478 21.0321 13.0443C21.3057 13.0408 21.5759 12.9825 21.8266 12.873C22.0774 12.7634 22.3037 12.6047 22.4922 12.4063C22.8602 12.0188 23.0624 11.5028 23.0555 10.9684C23.0487 10.434 22.8334 9.92336 22.4555 9.54537C22.0777 9.16739 21.5671 8.95194 21.0327 8.94493C20.4983 8.93792 19.9823 9.13991 19.5946 9.50785ZM17.4488 4.46445C17.2604 4.26596 17.0341 4.10721 16.7834 3.99755C16.5327 3.88789 16.2625 3.82955 15.9889 3.82596C15.7152 3.82237 15.4436 3.87361 15.1901 3.97665C14.9366 4.0797 14.7063 4.23246 14.5127 4.42594C14.3192 4.61942 14.1664 4.84969 14.0632 5.10318C13.9601 5.35666 13.9088 5.62823 13.9123 5.90187C13.9158 6.17551 13.9741 6.44568 14.0836 6.69645C14.1932 6.94721 14.3519 7.1735 14.5503 7.36196C14.9379 7.73002 15.4538 7.93217 15.9882 7.92533C16.5226 7.9185 17.0332 7.7032 17.4112 7.32534C17.7892 6.94748 18.0047 6.43694 18.0117 5.90253C18.0187 5.36811 17.8167 4.85209 17.4488 4.46445ZM9.50785 2.31948C9.84928 2.65856 10.2991 2.86672 10.7786 2.9075C11.258 2.94828 11.7366 2.81908 12.1304 2.54254C12.5242 2.26599 12.8081 1.85972 12.9325 1.39488C13.0569 0.930038 13.0138 0.436254 12.8107 0C11.4753 0.26407 10.1785 0.695611 8.95106 1.2844C9.02862 1.66297 9.2133 2.02493 9.50785 2.31948ZM29.6805 19.5937C29.4194 19.8554 29.2339 20.1828 29.1437 20.5412C29.0534 20.8997 29.0618 21.2759 29.1678 21.63C29.2739 21.9841 29.4738 22.3029 29.7462 22.5527C30.0187 22.8025 30.3536 22.9739 30.7156 23.0489C31.304 21.8214 31.7355 20.5246 32 19.1893C31.6186 19.0104 31.1914 18.9533 30.7765 19.0257C30.3615 19.098 29.9789 19.2964 29.6805 19.5937ZM24.6371 14.5512C24.4386 14.7396 24.2799 14.9659 24.1702 15.2166C24.0606 15.4673 24.0022 15.7375 23.9986 16.0111C23.995 16.2848 24.0463 16.5564 24.1493 16.8099C24.2524 17.0634 24.4051 17.2937 24.5986 17.4873C24.7921 17.6808 25.0224 17.8336 25.2758 17.9368C25.5293 18.0399 25.8009 18.0912 26.0745 18.0877C26.3482 18.0842 26.6184 18.0259 26.8691 17.9164C27.1199 17.8068 27.3462 17.6481 27.5346 17.4497C27.9027 17.0622 28.1048 16.5462 28.098 16.0118C28.0912 15.4774 27.8759 14.9668 27.498 14.5888C27.1202 14.2108 26.6096 13.9953 26.0752 13.9883C25.5408 13.9813 25.0248 14.1833 24.6371 14.5512ZM24.6371 4.46445C24.4386 4.65285 24.2799 4.87908 24.1702 5.12981C24.0606 5.38054 24.0022 5.65069 23.9986 5.92433C23.995 6.19797 24.0463 6.46956 24.1493 6.72308C24.2524 6.9766 24.4051 7.20692 24.5986 7.40046C24.7921 7.594 25.0224 7.74684 25.2758 7.84996C25.5293 7.95309 25.8009 8.00441 26.0745 8.00091C26.3482 7.99741 26.6184 7.93915 26.8691 7.82957C27.1199 7.71999 27.3462 7.56131 27.5346 7.36288C27.9027 6.97535 28.1048 6.4594 28.098 5.92498C28.0912 5.39057 27.8759 4.87996 27.498 4.50198C27.1202 4.124 26.6096 3.90854 26.0752 3.90153C25.5408 3.89452 25.0248 4.09651 24.6371 4.46445ZM19.5946 2.31948C19.8563 2.58059 20.1837 2.7661 20.5421 2.85635C20.9006 2.9466 21.2768 2.93825 21.6309 2.83217C21.985 2.72609 22.3038 2.52624 22.5536 2.25377C22.8034 1.9813 22.9749 1.64635 23.0499 1.2844C21.8223 0.69603 20.5256 0.264508 19.1902 0C19.0108 0.381265 18.9534 0.808578 19.0258 1.22367C19.0982 1.63876 19.2968 2.02143 19.5946 2.31948ZM29.6805 12.4054C30.3084 13.0332 31.2401 13.1662 32 12.8098C31.7359 11.4743 31.3044 10.1775 30.7156 8.95014C30.3538 9.02541 30.0191 9.19703 29.7468 9.44685C29.4746 9.69668 29.2748 10.0154 29.1688 10.3694C29.0628 10.7234 29.0543 11.0994 29.1444 11.4578C29.2345 11.8162 29.4197 12.1436 29.6805 12.4054ZM7.36288 27.5356C7.56137 27.3472 7.72012 27.1209 7.82978 26.8702C7.93944 26.6195 7.99779 26.3493 8.00138 26.0757C8.00496 25.802 7.95373 25.5304 7.85068 25.2769C7.74764 25.0234 7.59487 24.7931 7.40139 24.5995C7.20792 24.406 6.97764 24.2532 6.72416 24.15C6.47067 24.0469 6.1991 23.9956 5.92546 23.9991C5.65182 24.0026 5.38165 24.0609 5.13089 24.1704C4.88012 24.28 4.65383 24.4387 4.46537 24.6371C4.09731 25.0246 3.89516 25.5406 3.902 26.075C3.90884 26.6094 4.12413 27.12 4.50199 27.498C4.87985 27.876 5.39039 28.0915 5.9248 28.0985C6.45922 28.1055 6.97524 27.9035 7.36288 27.5356ZM2.31948 19.5937C2.02143 19.2959 1.63876 19.0972 1.22367 19.0249C0.808577 18.9525 0.381265 19.0099 0 19.1893C0.26407 20.5247 0.695611 21.8215 1.2844 23.0489C1.64635 22.9739 1.9813 22.8025 2.25377 22.5527C2.52624 22.3029 2.72609 21.9841 2.83217 21.63C2.93825 21.2759 2.9466 20.8997 2.85635 20.5412C2.7661 20.1828 2.58059 19.8554 2.31948 19.5937ZM12.4063 29.6805C12.1446 29.4194 11.8172 29.2339 11.4588 29.1437C11.1003 29.0534 10.7241 29.0618 10.37 29.1678C10.0159 29.2739 9.69712 29.4738 9.44732 29.7462C9.19753 30.0187 9.02605 30.3536 8.95106 30.7156C10.1786 31.304 11.4754 31.7355 12.8107 32C12.9896 31.6186 13.0467 31.1914 12.9743 30.7765C12.902 30.3615 12.7036 29.9789 12.4063 29.6805ZM12.4063 22.4922C12.6048 22.3038 12.7635 22.0775 12.8732 21.8268C12.9828 21.5761 13.0412 21.3059 13.0448 21.0323C13.0484 20.7586 12.9971 20.487 12.8941 20.2335C12.791 19.98 12.6383 19.7497 12.4448 19.5561C12.2513 19.3626 12.021 19.2098 11.7676 19.1066C11.5141 19.0035 11.2425 18.9522 10.9689 18.9557C10.6952 18.9592 10.425 19.0175 10.1743 19.127C9.92352 19.2366 9.69723 19.3953 9.50877 19.5937C9.14071 19.9812 8.93856 20.4972 8.94539 21.0316C8.95223 21.566 9.16753 22.0766 9.54539 22.4546C9.92325 22.8326 10.4338 23.0481 10.9682 23.0551C11.5026 23.0621 12.0186 22.8601 12.4063 22.4922ZM4.46445 14.5512C4.26596 14.7396 4.10721 14.9659 3.99755 15.2166C3.88789 15.4673 3.82955 15.7375 3.82596 16.0111C3.82237 16.2848 3.87361 16.5564 3.97665 16.8099C4.0797 17.0634 4.23246 17.2937 4.42594 17.4873C4.61942 17.6808 4.84969 17.8336 5.10318 17.9368C5.35666 18.0399 5.62823 18.0912 5.90187 18.0877C6.17551 18.0842 6.44568 18.0259 6.69645 17.9164C6.94721 17.8068 7.1735 17.6481 7.36196 17.4497C7.73002 17.0622 7.93217 16.5462 7.92533 16.0118C7.9185 15.4774 7.7032 14.9668 7.32534 14.5888C6.94748 14.2108 6.43694 13.9953 5.90253 13.9883C5.36811 13.9813 4.85209 14.1833 4.46445 14.5512ZM2.31948 12.4054C2.58059 12.1437 2.7661 11.8163 2.85635 11.4579C2.9466 11.0994 2.93825 10.7232 2.83217 10.3691C2.72609 10.015 2.52624 9.6962 2.25377 9.4464C1.9813 9.1966 1.64635 9.02513 1.2844 8.95014C0.69603 10.1777 0.264508 11.4744 0 12.8098C0.381265 12.9892 0.808577 13.0466 1.22367 12.9742C1.63876 12.9018 2.02143 12.7032 2.31948 12.4054ZM22.4922 29.6805C22.1507 29.3414 21.7009 29.1333 21.2214 29.0925C20.742 29.0517 20.2634 29.1809 19.8696 29.4575C19.4758 29.734 19.1919 30.1403 19.0675 30.6051C18.9431 31.07 18.9862 31.5637 19.1893 32C20.5247 31.7359 21.8215 31.3044 23.0489 30.7156C22.9693 30.3233 22.7756 29.9632 22.4922 29.6805ZM14.5512 24.6371C14.3528 24.8255 14.194 25.0518 14.0843 25.3025C13.9747 25.5532 13.9163 25.8234 13.9128 26.097C13.9092 26.3706 13.9604 26.6422 14.0634 26.8957C14.1665 27.1493 14.3193 27.3796 14.5127 27.5731C14.7062 27.7667 14.9365 27.9195 15.19 28.0226C15.4435 28.1258 15.715 28.1771 15.9887 28.1736C16.2623 28.1701 16.5325 28.1118 16.7832 28.0022C17.034 27.8927 17.2603 27.734 17.4488 27.5356C17.8168 27.148 18.019 26.6321 18.0121 26.0977C18.0053 25.5632 17.79 25.0526 17.4121 24.6746C17.0343 24.2967 16.5237 24.0812 15.9893 24.0742C15.4549 24.0672 14.9389 24.2692 14.5512 24.6371Z" fill="#306CFF"/>
</svg>
