<svg width="32" height="32" viewBox="0 0 32 32" fill="none" xmlns="http://www.w3.org/2000/svg">
<g clip-path="url(#clip0_3468_268)">
<g clip-path="url(#clip1_3468_268)">
<path d="M24.2906 2.56647C28.818 5.36312 31.8349 10.3708 31.8349 16.0831C31.8349 24.8511 24.727 31.9591 15.959 31.9591C14.1027 31.9614 12.2604 31.6371 10.5165 31.0011L10.3354 30.9336L10.6306 30.8386L11.0101 30.7143L11.1974 30.6516L11.383 30.5888L11.7491 30.4628L12.1086 30.3358L12.4613 30.208L12.8071 30.0795L12.9778 30.0148L13.3136 29.8848C13.6684 29.7459 14.0119 29.6052 14.3438 29.4631L14.5907 29.3564L14.8933 29.2222C15.026 29.1622 15.157 29.1022 15.286 29.0416L15.478 28.9508L15.7605 28.8137L15.8992 28.745L16.0361 28.6757L16.3053 28.5368C18.5641 27.3521 20.0986 26.0649 20.9135 24.6537C22.64 21.6635 21.1321 18.4682 16.8041 15.2107L16.4519 14.9468L16.2378 14.7825L16.0302 14.6198L15.8285 14.4581L15.6333 14.2978L15.538 14.2182L15.444 14.1388L15.2609 13.9808L15.1277 13.8632L14.998 13.7461L14.8303 13.5913L14.6686 13.4375L14.5128 13.2852L14.4374 13.2096L14.3632 13.1339L14.2196 12.9838C12.5087 11.165 12.1267 9.60821 12.9033 8.26272C13.2988 7.57807 13.9842 6.90483 14.9583 6.2492L15.0766 6.17056L15.2629 6.05075C15.3473 5.99767 15.4333 5.94458 15.5214 5.89149L15.6548 5.81211L15.8607 5.69354L16.0728 5.57546L16.2363 5.48715L16.4033 5.39909L16.6317 5.28201C16.8097 5.1923 16.9889 5.10506 17.1693 5.0203L17.3558 4.93348L17.6101 4.81838L17.7396 4.76083L18.0035 4.64672L18.138 4.58967L18.4118 4.4758L18.5507 4.41925L18.8343 4.30638L18.9784 4.25007L19.2716 4.13794L19.571 4.02632L19.7231 3.971L20.0324 3.86011L20.3479 3.74997L20.6702 3.64058L20.8336 3.58601L21.1653 3.47735L21.5037 3.3692L21.8482 3.26179L22.1992 3.15487L22.5569 3.04846L23.0129 2.91673L23.479 2.78576L24.0515 2.62998L24.2906 2.56647V2.56647ZM15.959 0.207153C17.8896 0.207153 19.7399 0.55196 21.4513 1.18278L21.6341 1.25149L21.5183 1.28672L20.9527 1.46111L20.7677 1.51965L20.4023 1.63723L20.0436 1.75605L19.6916 1.87562L19.3463 1.99618L19.0077 2.11773L18.8407 2.17875L18.4309 2.33255L18.0315 2.48808L17.7192 2.61335L17.5657 2.67636L17.2635 2.80337C14.1759 4.11909 12.1525 5.59456 11.185 7.27047C9.49597 10.1959 11.028 13.3495 15.3564 16.606L15.7087 16.8702L15.9225 17.0344L16.1301 17.1974L16.2318 17.2785L16.43 17.4398L16.5744 17.5598L16.7158 17.6794L16.8984 17.8377L16.9877 17.9165L17.1611 18.0731C17.2556 18.1599 17.3476 18.2462 17.4364 18.3318L17.5679 18.4598L17.7572 18.6508L17.937 18.8396C19.6405 20.671 20.0046 22.2591 19.1952 23.6614C18.6713 24.5686 17.6711 25.4619 16.1971 26.3288L16.0617 26.4077L15.8424 26.5317L15.6166 26.6558C15.4871 26.7257 15.3567 26.7943 15.2257 26.8614L15.0235 26.9636L14.7747 27.0862L14.5195 27.2082L14.2578 27.3298L14.1246 27.3908L13.8532 27.5116L13.5751 27.6324L13.2906 27.7525L13.1457 27.8122L12.8515 27.9318L12.7019 27.9913L12.5506 28.0509L12.2435 28.1694L11.9295 28.2875L11.6095 28.4051L11.2825 28.5222L10.9491 28.6388L10.7799 28.6968L10.4369 28.8127L10.263 28.8702L9.90998 28.9853L9.55079 29.0997L9.09237 29.2421L8.62378 29.3835L8.24176 29.4961L7.70843 29.6494C3.13615 26.8627 0.083252 21.8295 0.083252 16.0831C0.083252 7.31512 7.19122 0.207153 15.9592 0.207153H15.959Z" fill="#0080FF"/>
</g>
</g>
<defs>
<clipPath id="clip0_3468_268">
<rect width="32" height="32" fill="white"/>
</clipPath>
<clipPath id="clip1_3468_268">
<rect width="32" height="32" fill="white"/>
</clipPath>
</defs>
</svg>
