<svg width="32" height="32" viewBox="0 0 32 32" fill="none" xmlns="http://www.w3.org/2000/svg">
<path fill-rule="evenodd" clip-rule="evenodd" d="M25.152 14.432C23.1223 14.4549 21.184 15.2777 19.7577 16.7223C18.3314 18.1669 17.5314 20.1189 17.5314 22.1486C17.5269 23.7897 18.0526 25.3897 19.0263 26.7109C17.1611 27.7852 15.0491 28.3474 12.9006 28.3429C9.62743 28.3429 6.48228 27.04 4.16914 24.7223C1.85143 22.4 0.548569 19.2549 0.548569 15.9772C0.548569 12.6995 1.85143 9.54974 4.16914 7.23202C6.48685 4.91431 9.62743 3.61145 12.9006 3.61145C15.9086 3.61145 18.8114 4.70859 21.0697 6.70174C23.3234 8.69488 24.7771 11.4423 25.152 14.432Z" fill="#FF0060"/>
<path d="M25.248 28.32C28.6583 28.32 31.424 25.5589 31.424 22.1486C31.424 18.7383 28.6583 15.9772 25.248 15.9772C21.8377 15.9772 19.072 18.7383 19.072 22.1486C19.072 25.5589 21.8377 28.32 25.248 28.32Z" fill="#AC005A"/>
</svg>
