<svg width="32" height="32" viewBox="0 0 32 32" fill="none" xmlns="http://www.w3.org/2000/svg">
<path d="M16 1.11621C16 1.11621 12.1661 5.27339 3.34885 5.27339V15.1909C3.34885 20.3697 5.83767 25.364 10.3438 28.564C11.9384 29.6968 13.8194 30.6711 16 31.2557C18.1806 30.6711 20.061 29.6968 21.6562 28.564C26.1623 25.364 28.6512 20.3697 28.6512 15.1909V5.27339C19.8339 5.27339 16 1.11621 16 1.11621Z" fill="#556080"/>
<path d="M15.814 27.9071C14.6044 27.4758 13.4335 26.8585 12.3224 26.0647C8.80013 23.549 6.69769 19.4803 6.69769 15.1806V8.21194C10.9088 7.72361 13.899 6.39223 15.814 5.20947C17.729 6.39223 20.7191 7.72361 24.9302 8.21194V15.1806C24.9302 19.4803 22.8278 23.549 19.3061 26.0647C18.1945 26.8585 17.0236 27.4758 15.814 27.9071Z" fill="#4FBA6F"/>
<path d="M22.8743 11.6676C22.6356 11.472 22.2737 11.4951 22.0649 11.7182L14.4371 19.8853L10.2817 15.9917C10.0574 15.7816 9.69485 15.7816 9.47056 15.9917C9.24626 16.2019 9.24626 16.5416 9.47056 16.7517L14.0597 21.0516C14.1675 21.1527 14.3132 21.2091 14.4653 21.2091C14.4716 21.2091 14.4779 21.2091 14.4842 21.2091C14.6431 21.2042 14.7922 21.1376 14.8966 21.0258L22.9276 12.426C23.1364 12.2024 23.1123 11.8627 22.8743 11.6676Z" fill="white"/>
</svg>
