<svg width="32" height="32" viewBox="0 0 32 32" fill="none" xmlns="http://www.w3.org/2000/svg">
<g clip-path="url(#clip0_4562_14)">
<mask id="mask0_4562_14" style="mask-type:luminance" maskUnits="userSpaceOnUse" x="0" y="0" width="32" height="32">
<path d="M32 0H0V32H32V0Z" fill="white"/>
</mask>
<g mask="url(#mask0_4562_14)">
<mask id="mask1_4562_14" style="mask-type:luminance" maskUnits="userSpaceOnUse" x="0" y="0" width="32" height="32">
<path d="M32 0H0V32H32V0Z" fill="white"/>
</mask>
<g mask="url(#mask1_4562_14)">
<path d="M2.54282 3.57283C4.46601 3.45191 6.63037 3.96722 8.4306 5.07453C10.2308 6.18183 11.6669 7.88113 12.4263 9.65216C13.224 11.4063 13.5129 13.6124 13.1188 15.6889C12.7249 17.7653 11.6481 19.7122 10.2634 21.0524C9.68273 21.6559 8.69446 21.9574 7.87579 21.7809C7.04937 21.6453 6.24023 21.0027 5.92098 20.2285L0.227167 7.33754C-0.130119 6.5801 -0.0601601 5.5492 0.396183 4.84698C0.817115 4.12296 1.70564 3.59557 2.54282 3.57283Z" fill="#6101FF"/>
<path d="M31.9484 4.97126C32.016 4.82418 32.0173 4.63522 31.9517 4.48723C31.8906 4.33734 31.7536 4.20719 31.6007 4.15388C29.5028 3.33126 26.6686 3.32263 24.2716 4.34205C21.8745 5.36147 19.9147 7.40896 19.0518 9.49066L10.8965 27.96C10.8289 28.107 10.8276 28.296 10.8932 28.4439C10.9543 28.5938 11.0913 28.7241 11.2442 28.7773C13.3421 29.5999 16.1763 29.6085 18.5734 28.5891C20.9705 27.5697 22.9303 25.5222 23.7931 23.4405L31.9484 4.97126Z" fill="#6101FF"/>
</g>
</g>
</g>
<defs>
<clipPath id="clip0_4562_14">
<rect width="32" height="32" fill="white"/>
</clipPath>
</defs>
</svg>
