<svg width="32" height="32" viewBox="0 0 32 32" fill="none" xmlns="http://www.w3.org/2000/svg">
<path fill-rule="evenodd" clip-rule="evenodd" d="M16.025 31.4667L16.0485 31.4533L16.072 31.4667L22.7262 27.6611L29.4304 23.8287V8.49716L26.4158 10.2207L24.6563 11.3208L20.8121 13.5427V17.0497L26.4158 13.8259V19.4068L26.4154 19.407L26.37 22.0454L16.0485 27.9467L5.72713 22.0454L5.68143 19.407L5.68129 10.2207L5.7046 10.2074L5.72713 10.2207L16.0485 4.31983L23.326 8.48049L26.4158 6.71399L16.0714 0.799988L16.0485 0.813145L16.0256 0.799988L2.66666 8.43759V23.8287L9.37084 27.6611L16.025 31.4667Z" fill="url(#paint0_linear_4464_45)"/>
<path fill-rule="evenodd" clip-rule="evenodd" d="M8.12863 11.7524L11.3858 13.6847V18.7582L16.0484 21.5188L20.7112 18.7582V17.856L23.9683 15.9273V20.7535L16.0484 25.4428L8.12863 20.7535V11.7524Z" fill="url(#paint1_linear_4464_45)"/>
<defs>
<linearGradient id="paint0_linear_4464_45" x1="23.6556" y1="2.94279" x2="14.2237" y2="31.6248" gradientUnits="userSpaceOnUse">
<stop stop-color="#7266B5"/>
<stop offset="0.114583" stop-color="#8779D5"/>
<stop offset="0.26092" stop-color="#4B91E1"/>
<stop offset="0.765625" stop-color="#41D8F1"/>
<stop offset="1" stop-color="#81ECD3"/>
</linearGradient>
<linearGradient id="paint1_linear_4464_45" x1="20.5506" y1="12.709" x2="17.2351" y2="26.0756" gradientUnits="userSpaceOnUse">
<stop stop-color="#7266B5"/>
<stop offset="0.114583" stop-color="#8779D5"/>
<stop offset="0.26092" stop-color="#4B91E1"/>
<stop offset="0.765625" stop-color="#41D8F1"/>
<stop offset="1" stop-color="#81ECD3"/>
</linearGradient>
</defs>
</svg>
