<svg width="32" height="32" viewBox="0 0 32 32" fill="none" xmlns="http://www.w3.org/2000/svg">
<path d="M25.8269 9.75182C25.8269 9.84359 25.8102 9.92701 25.7685 9.99374C25.7685 9.99374 25.7518 10.0271 25.7435 10.0438C25.7435 10.0438 24.4254 12.3545 24.4088 12.3796C24.3087 12.5297 24.1418 12.6298 23.9416 12.6298C23.7164 12.6298 23.5162 12.488 23.4327 12.2961L22.1814 10.0355C22.1314 9.95203 22.1064 9.86027 22.1064 9.76017C22.1064 9.45151 22.3566 9.20125 22.6653 9.20125H25.268C25.5766 9.19291 25.8269 9.44317 25.8269 9.75182ZM20.0375 9.50156L22.8655 14.4567C22.9155 14.5401 22.9406 14.6319 22.9406 14.732C22.9406 14.8321 22.9155 14.9239 22.8655 15.0073L20.3879 19.2701L20.3712 19.2951C20.2711 19.4536 20.0959 19.5537 19.8957 19.5537C19.6538 19.5537 19.4453 19.4035 19.3702 19.1867L14.1314 10.0188C14.0813 9.93535 14.0563 9.84359 14.0563 9.74348C14.0563 9.43483 14.3066 9.18457 14.6152 9.18457H19.5287C19.7623 9.19291 19.9458 9.31804 20.0375 9.50156ZM12.0209 9.4682L18.8697 21.3806C18.9197 21.464 18.9447 21.5558 18.9447 21.6559C18.9447 21.756 18.9197 21.8561 18.8697 21.9395L16.3921 26.2106C16.292 26.3691 16.1168 26.4776 15.9166 26.4776C15.7164 26.4776 15.5412 26.3691 15.4411 26.2106L15.4244 26.1856V26.1773L6.13973 10.0355C6.08968 9.95203 6.06465 9.85193 6.06465 9.75182C6.06465 9.44317 6.31491 9.19291 6.62357 9.19291H11.5454C11.7456 9.19291 11.9208 9.3097 12.0209 9.4682ZM32 16C32 7.1658 24.8342 0 16 0C7.1658 0 0 7.1658 0 16C0 24.8342 7.1658 32 16 32C24.8342 32 32 24.8342 32 16Z" fill="#EA0029"/>
</svg>
