<svg width="32" height="32" viewBox="0 0 32 32" fill="none" xmlns="http://www.w3.org/2000/svg">
<path d="M19.068 30.685V21.0832C18.5595 21.6407 17.956 22.1035 17.2858 22.4501C16.2813 22.9335 15.1799 23.1815 14.0652 23.175C12.9428 23.1945 11.8298 22.968 10.8044 22.5114C9.77895 22.0548 8.86605 21.3791 8.12965 20.532C6.69945 18.9258 5.93885 16.8329 6.00385 14.6833C6.00385 11.9723 6.93265 9.79749 8.79035 8.15881C10.2432 6.8257 12.1461 6.0907 14.1179 6.10102C15.063 6.06313 16.0037 6.2485 16.8637 6.64211C17.7237 7.03571 18.479 7.62648 19.068 8.36648V6.59942H24.7316V30.685H19.068ZM15.5717 10.9755C14.6081 10.9764 13.6834 11.3563 12.9974 12.033C12.3115 12.7098 11.9192 13.6292 11.9053 14.5927C11.8952 15.083 11.985 15.5702 12.1694 16.0246C12.3537 16.479 12.6287 16.8911 12.9776 17.2357C13.3126 17.5838 13.716 17.8588 14.1624 18.0433C14.6088 18.2278 15.0887 18.318 15.5717 18.3081C16.0538 18.3085 16.5312 18.214 16.9766 18.0297C17.4221 17.8454 17.8269 17.5751 18.1678 17.2342C18.5087 16.8933 18.779 16.4886 18.9633 16.0431C19.1475 15.5976 19.2421 15.1201 19.2416 14.638C19.2506 14.1587 19.1607 13.6826 18.9775 13.2396C18.7943 12.7965 18.5218 12.396 18.1769 12.0629C17.8369 11.7182 17.4311 11.4452 16.9836 11.2604C16.536 11.0755 16.0559 10.9825 15.5717 10.9869V10.9755Z" fill="#FC7C01"/>
<path fill-rule="evenodd" clip-rule="evenodd" d="M26.1211 1.8571C26.1211 1.62978 26.0308 1.41178 25.87 1.25104C25.7093 1.0903 25.4913 1 25.264 1H7.69157C7.46427 1 7.24617 1.0903 7.08547 1.25104C6.92477 1.41178 6.83447 1.62978 6.83447 1.8571C6.83447 2.08441 6.92477 2.30242 7.08547 2.46316C7.24617 2.62389 7.46427 2.7142 7.69157 2.7142H25.264C25.4913 2.7142 25.7093 2.62389 25.87 2.46316C26.0308 2.30242 26.1211 2.08441 26.1211 1.8571Z" fill="#FC7C01"/>
</svg>
