<svg width="32" height="32" viewBox="0 0 32 32" fill="none" xmlns="http://www.w3.org/2000/svg">
<mask id="mask0_4919_11" style="mask-type:luminance" maskUnits="userSpaceOnUse" x="0" y="2" width="32" height="28">
<path d="M31.6444 2.45334H0.35556V29.5467H31.6444V2.45334Z" fill="white"/>
</mask>
<g mask="url(#mask0_4919_11)">
<path d="M0.40918 2.44521H8.65704C11.5491 2.44521 14.2313 3.95226 15.7393 6.42313C15.783 6.49367 15.7323 6.58398 15.6491 6.58398H7.77477C7.69299 6.58398 7.64225 6.67148 7.68314 6.74202L16.1551 21.6081C17.5617 24.0747 17.5251 27.1114 16.0621 29.5442C16.0212 29.6133 15.9197 29.6119 15.8803 29.5428L0.317568 2.60466C0.276696 2.5341 0.327434 2.44521 0.40918 2.44521Z" fill="#221DDD"/>
<path d="M12.6258 9.75337H15.0402C16.6215 9.75337 18.0788 10.6099 18.8484 11.9928L20.1027 14.2435L25.3937 5.27731C26.4296 3.52191 28.3154 2.44382 30.352 2.44382H31.6275L20.1901 22.4322L12.6258 9.75337Z" fill="#4C40E7"/>
</g>
</svg>
