<svg width="32" height="32" viewBox="0 0 32 32" fill="none" xmlns="http://www.w3.org/2000/svg">
<rect width="32" height="32" fill="#32B2B0"/>
<path d="M24.125 0.600006V2.02501C24.125 2.02501 21.575 1.07501 19.925 2.80001C18.725 4.05001 18.625 5.45001 19.175 7.32501C24.575 7.32501 25.425 10.35 25.425 10.35L24.875 6.87501L26.575 4.80001C26.575 2.35001 24.55 0.725006 24.125 0.600006V0.600006Z" fill="white"/>
<path d="M24.6 4.75001C24.959 4.75001 25.25 4.459 25.25 4.10001C25.25 3.74103 24.959 3.45001 24.6 3.45001C24.241 3.45001 23.95 3.74103 23.95 4.10001C23.95 4.459 24.241 4.75001 24.6 4.75001Z" fill="black"/>
<path d="M25.425 10.35C25.425 10.35 24.6 6.2 19.2 7.325C18.65 5.45 18.75 4.075 19.95 2.8C21.575 1.075 24.125 2.025 24.125 2.025V0.6C23.225 0.2 22.375 0.125 21.425 0.125C17.95 0.125 16.025 2.725 15.2 4.475L5.425 22.45L8.175 21.925L3.125 31.675L6.65 31.05L9.35 23.375C17 23.375 26.8 20.625 25.425 10.35V10.35Z" fill="black"/>
<path d="M28.725 6.87499L26.575 4.79999L24.875 6.87499" fill="black"/>
<path d="M10.625 21.15C10.625 21.15 10.875 21.1 11.325 21C11.775 20.9 12.4 20.75 13.15 20.55C13.525 20.45 13.925 20.325 14.35 20.175C14.775 20.025 15.225 19.875 15.65 19.675C16.1 19.5 16.55 19.275 17 19.025C17.45 18.775 17.875 18.5 18.275 18.175C18.375 18.1 18.475 18.025 18.575 17.925L18.875 17.675C19.05 17.5 19.25 17.325 19.425 17.125C19.6 16.95 19.75 16.75 19.9 16.55L20.125 16.25L20.225 16.1L20.325 15.95C20.375 15.85 20.45 15.75 20.5 15.65C20.55 15.55 20.6 15.45 20.675 15.35L20.75 15.2L20.825 15.05C20.875 14.95 20.925 14.85 20.95 14.75L21.175 14.15C21.225 13.95 21.3 13.75 21.35 13.575C21.4 13.4 21.425 13.2 21.475 13.05C21.5 12.875 21.525 12.725 21.55 12.55C21.575 12.4 21.6 12.25 21.6 12.125C21.625 12 21.625 11.875 21.65 11.75C21.675 11.3 21.675 11.05 21.675 11.05L22.075 11.075C22.075 11.075 22.05 11.35 22.025 11.8C22 11.925 22 12.05 21.975 12.175C21.95 12.325 21.95 12.475 21.9 12.625C21.875 12.775 21.825 12.95 21.8 13.125C21.75 13.3 21.7 13.475 21.65 13.675C21.6 13.875 21.525 14.05 21.45 14.275C21.375 14.475 21.3 14.675 21.2 14.9L21.05 15.2L20.975 15.35L20.9 15.5C20.85 15.6 20.775 15.7 20.725 15.825C20.65 15.925 20.6 16.025 20.525 16.125C20.5 16.175 20.45 16.225 20.425 16.275L20.325 16.425L20.1 16.725C19.925 16.925 19.775 17.125 19.575 17.3C19.4 17.5 19.2 17.65 19 17.85L18.7 18.1C18.6 18.175 18.5 18.25 18.375 18.325C17.95 18.625 17.5 18.9 17.05 19.15C16.6 19.375 16.125 19.6 15.675 19.775C15.225 19.95 14.775 20.1 14.35 20.225C13.925 20.35 13.525 20.475 13.125 20.55C12.375 20.725 11.725 20.875 11.275 20.95C10.875 21.1 10.625 21.15 10.625 21.15V21.15Z" fill="white"/>
</svg>
