<svg width="32" height="32" viewBox="0 0 32 32" fill="none" xmlns="http://www.w3.org/2000/svg">
<path d="M15.8526 1.37952C15.6619 1.47489 15.6694 1.40713 15.6594 3.10877C15.6518 3.95458 15.6594 4.66234 15.6719 4.70752C15.682 4.7527 15.7322 4.82297 15.7798 4.86564C15.9355 5.00117 16.1387 4.99364 16.2843 4.84054L16.3571 4.76525L16.3646 3.17905C16.3697 1.64054 16.3697 1.59034 16.322 1.51254C16.2166 1.34438 16.0283 1.28917 15.8526 1.37952Z" fill="black"/>
<path d="M15.8124 6.35886C15.7497 6.39148 14.5977 7.05658 13.2524 7.83211C11.9097 8.60764 10.1051 9.65172 9.24177 10.1487C7.91158 10.9192 7.66813 11.0698 7.62295 11.1425C7.57275 11.2304 7.57275 11.2404 7.57275 15.999V20.7676L7.62797 20.8555C7.67315 20.9283 7.90154 21.0713 8.98326 21.6938C9.69856 22.1079 11.5433 23.1745 13.0818 24.063C15.2026 25.2903 15.9053 25.6843 15.9831 25.6919C16.0509 25.7019 16.1136 25.6894 16.1713 25.6618C16.2918 25.599 24.14 21.0663 24.2579 20.991C24.3106 20.9559 24.3759 20.8931 24.401 20.848C24.4512 20.7702 24.4512 20.6898 24.4512 15.999C24.4512 11.3082 24.4512 11.2279 24.401 11.1501C24.3759 11.1049 24.3106 11.0422 24.2579 11.007C24.2052 10.9744 23.372 10.49 22.4057 9.93031C21.4394 9.37313 19.6374 8.33156 18.4026 7.61627C15.9204 6.17815 16.0383 6.23588 15.8124 6.35886ZM19.2358 8.93643C21.0077 9.96043 22.6617 10.9167 22.9152 11.0622L23.3745 11.3258L23.3042 11.3684C23.2666 11.3935 21.8385 12.2167 20.1343 13.2006C18.4302 14.1844 16.8038 15.1231 16.5252 15.2862L16.0132 15.5824L15.8099 15.4619C15.697 15.3942 14.0731 14.458 12.2033 13.3763C10.3335 12.2971 8.76993 11.3935 8.73228 11.3709L8.66201 11.3258L10.8154 10.0809C12 9.39823 13.6515 8.44199 14.4873 7.9576C15.323 7.47321 16.0082 7.07917 16.0107 7.07666C16.0157 7.07666 17.4664 7.91494 19.2358 8.93643ZM11.9875 14.0916L15.6393 16.1998L15.6418 20.4489V24.7005L15.5364 24.6378C15.4761 24.6051 14.4848 24.0304 13.3328 23.3653C12.1808 22.6977 10.5745 21.7691 9.76381 21.2997L8.28805 20.4489V16.2073C8.28805 13.4365 8.29558 11.9683 8.31315 11.9758C8.3257 11.9783 9.97966 12.932 11.9875 14.0916ZM23.7384 12.026C23.7309 12.0586 23.7233 13.9686 23.7233 16.2751V20.4665L23.6154 20.5267C23.5577 20.5593 21.9088 21.5105 19.9536 22.64C17.9985 23.7719 16.3922 24.6955 16.3847 24.6955C16.3746 24.6955 16.3696 22.788 16.3696 20.4564V16.2174L18.2595 15.1256C23.0608 12.3472 23.7133 11.9708 23.7334 11.9708C23.7434 11.9708 23.7484 11.9959 23.7384 12.026Z" fill="black"/>
<path d="M15.6066 8.35916C15.062 8.40935 14.4797 8.58755 14.0731 8.82347C13.7971 8.9841 13.4683 9.31539 13.3629 9.53626C13.3202 9.62661 13.2725 9.7521 13.26 9.81234C13.2449 9.8801 13.2324 10.3093 13.2324 10.8564C13.2324 11.8955 13.2424 11.9657 13.4106 12.2343C14.0932 13.3286 16.2592 13.6925 17.7626 12.9621C18.2896 12.7086 18.6535 12.3171 18.7665 11.8829C18.8217 11.6671 18.8217 10.0156 18.7665 9.79979C18.5531 8.98661 17.5066 8.40183 16.1688 8.34912C15.9957 8.34159 15.7422 8.34661 15.6066 8.35916ZM16.6708 9.02426C17.5191 9.1623 18.1792 9.62159 18.1767 10.0784C18.1742 10.3846 17.9357 10.6632 17.4865 10.8865C17.0648 11.0974 16.598 11.1927 15.9982 11.1927C15.2879 11.1927 14.673 11.0221 14.2463 10.7083C13.7669 10.357 13.7268 9.92528 14.1409 9.55132C14.6655 9.07696 15.6769 8.86614 16.6708 9.02426ZM14.2438 11.4337C14.5099 11.5692 14.811 11.6721 15.1649 11.7499C15.3983 11.8001 15.4987 11.8051 16.0182 11.8051C16.5353 11.8051 16.6407 11.8001 16.864 11.7499C17.3334 11.647 17.7701 11.4763 18.0437 11.2906C18.1014 11.2505 18.1541 11.2178 18.1616 11.2178C18.1691 11.2178 18.1767 11.3333 18.1767 11.4763C18.1767 11.7047 18.1691 11.7499 18.1114 11.8654C17.9382 12.2142 17.3409 12.548 16.6884 12.6585C15.6669 12.8341 14.555 12.5832 14.0757 12.0712C13.8975 11.8804 13.8598 11.78 13.8598 11.4738V11.2128L13.9426 11.2655C13.9853 11.2956 14.1233 11.3709 14.2438 11.4337Z" fill="black"/>
<path d="M9.43001 15.0829C9.34719 15.1155 9.26437 15.2235 9.23927 15.3264C9.20915 15.4594 9.21166 17.7308 9.24178 18.0068C9.33966 18.8451 10.0073 19.7838 10.7853 20.1678C11.084 20.3133 11.2873 20.3635 11.5132 20.346C11.611 20.3359 11.7114 20.3234 11.739 20.3159C11.7817 20.3033 11.8118 20.3309 11.9022 20.4715C12.0578 20.7049 12.4418 21.0989 12.6677 21.2545C13.0416 21.513 13.3604 21.621 13.6992 21.6034C14.1585 21.5783 14.4471 21.2922 14.5149 20.7902C14.5299 20.6672 14.5375 20.1251 14.5324 19.3496C14.5249 18.2352 14.5199 18.0972 14.4822 18.0119C14.2815 17.5701 13.7996 17.4346 13.6289 17.7709C13.5888 17.8487 13.5837 17.9692 13.5837 19.1538V20.4514L13.5235 20.5217C13.4733 20.5769 13.4457 20.5894 13.3579 20.5869C13.0567 20.5744 12.6752 20.233 12.4593 19.7838L12.3665 19.588L12.3539 18.7221C12.3439 17.9792 12.3339 17.8437 12.2987 17.7634C12.1481 17.4271 11.7942 17.2489 11.5633 17.3919C11.4178 17.4823 11.4128 17.5024 11.4002 18.4034L11.3877 19.2291L11.3274 19.2768C11.0739 19.4826 10.4339 18.9731 10.2306 18.4034L10.1704 18.2327V16.9402C10.1704 16.1395 10.1604 15.6125 10.1453 15.5548C10.0524 15.2285 9.67848 14.98 9.43001 15.0829Z" fill="black"/>
<path d="M22.2476 15.1106C22.1297 15.1683 21.9941 15.3139 21.9239 15.457C21.8812 15.5398 21.8787 15.6603 21.8661 16.9152C21.8511 18.421 21.8611 18.3207 21.6854 18.6545C21.58 18.8552 21.2713 19.1639 21.0881 19.2543C20.9024 19.3472 20.7593 19.3497 20.689 19.2593C20.6388 19.1941 20.6363 19.1614 20.6363 18.4612C20.6338 18.0596 20.6238 17.6807 20.6137 17.6204C20.5811 17.4623 20.4757 17.3644 20.3151 17.3468C20.0992 17.3268 19.8859 17.4698 19.7604 17.7233L19.6826 17.8764V18.6821C19.6801 19.4501 19.6776 19.4952 19.6249 19.6534C19.4768 20.085 19.0777 20.5042 18.7364 20.582C18.6335 20.6046 18.5155 20.5694 18.4854 20.5092C18.4754 20.4866 18.4603 19.8667 18.4528 19.1313C18.4402 17.8262 18.4402 17.7961 18.3875 17.7258C18.1868 17.4548 17.7802 17.5803 17.5668 17.9793C17.5116 18.0822 17.5116 18.0973 17.5041 19.3873C17.4991 20.2557 17.5066 20.7451 17.5242 20.853C17.5794 21.1643 17.7626 21.4228 18.0136 21.5382C18.1215 21.5884 18.1792 21.5959 18.4151 21.5959C18.6661 21.5934 18.7088 21.5859 18.892 21.5131C19.0024 21.4705 19.1831 21.3751 19.2936 21.3048C19.537 21.1467 19.9511 20.7351 20.1218 20.4841C20.2247 20.331 20.2548 20.3034 20.2975 20.3159C20.428 20.3561 20.7066 20.3586 20.8622 20.3185C21.698 20.1101 22.5538 19.1464 22.7571 18.1876C22.7872 18.0496 22.7948 17.7484 22.7948 16.6567C22.7948 15.3516 22.7922 15.2938 22.7446 15.216C22.6492 15.0579 22.4459 15.0127 22.2476 15.1106Z" fill="black"/>
<path d="M7.68573 7.47333C7.51004 7.56117 7.43224 7.78454 7.52008 7.95019C7.56275 8.0305 8.40353 8.86627 8.48134 8.90643C8.66957 9.0018 8.94063 8.85874 8.98079 8.6429C9.01341 8.46972 8.94565 8.37435 8.48134 7.91254C7.97436 7.40556 7.89906 7.36541 7.68573 7.47333Z" fill="black"/>
<path d="M24.0747 7.44573C24.0346 7.45326 23.8388 7.63145 23.5426 7.9251C23.1411 8.32667 23.0733 8.40949 23.0582 8.4898C23.0206 8.6931 23.1461 8.88886 23.3368 8.924C23.5201 8.95663 23.5828 8.91396 24.0672 8.42706C24.4738 8.01545 24.5215 7.95773 24.539 7.86235C24.5641 7.70173 24.4838 7.5411 24.3458 7.47835C24.2379 7.43067 24.1952 7.42565 24.0747 7.44573Z" fill="black"/>
<path d="M2.76399 15.6929C2.52556 15.851 2.54815 16.2024 2.80164 16.3229C2.87694 16.358 3.05764 16.363 4.41544 16.363C5.85356 16.363 5.94643 16.3605 6.02925 16.3154C6.16478 16.2426 6.21748 16.1547 6.21748 15.9991C6.21748 15.8435 6.16227 15.7481 6.02674 15.6804C5.94894 15.6377 5.81843 15.6352 4.39537 15.6352H2.84933L2.76399 15.6929Z" fill="black"/>
<path d="M26.0073 15.6804C25.8718 15.7481 25.799 15.8736 25.814 16.0192C25.8266 16.1623 25.8893 16.2576 26.0098 16.3179C26.0876 16.3605 26.2181 16.363 27.611 16.363C29.0718 16.363 29.132 16.3605 29.2324 16.3128C29.3629 16.2501 29.4206 16.1522 29.4206 15.9941C29.4206 15.8435 29.3579 15.7331 29.2374 15.6779C29.1571 15.6402 28.9965 15.6352 27.6211 15.6352C26.2181 15.6352 26.0876 15.6377 26.0073 15.6804Z" fill="black"/>
<path d="M8.39852 23.1369C8.2404 23.2549 7.54017 23.9752 7.51256 24.0505C7.38958 24.3692 7.68825 24.6629 7.98942 24.5248C8.14754 24.4546 8.92307 23.664 8.96574 23.5335C9.07366 23.1946 8.68715 22.9236 8.39852 23.1369Z" fill="black"/>
<path d="M23.2264 23.1144C23.0658 23.2123 23.0056 23.398 23.0809 23.5737C23.101 23.6188 23.3118 23.8472 23.5502 24.0857C24.0522 24.5776 24.1074 24.6127 24.3157 24.5324C24.4864 24.4672 24.5742 24.309 24.5391 24.1233C24.524 24.0455 24.4512 23.9577 24.0798 23.5837C23.8363 23.3377 23.6054 23.1194 23.5678 23.0993C23.4724 23.0491 23.3243 23.0566 23.2264 23.1144Z" fill="black"/>
<path d="M15.8426 27.0749C15.7874 27.105 15.7321 27.1627 15.6995 27.2305L15.6418 27.3409V28.8242C15.6418 29.7403 15.6518 30.3401 15.6669 30.3953C15.7422 30.6689 16.0835 30.7492 16.2818 30.5434L16.3571 30.4656L16.3646 28.8694C16.3696 27.3032 16.3696 27.2731 16.3194 27.1928C16.2241 27.0397 16.0107 26.987 15.8426 27.0749Z" fill="black"/>
</svg>
