<svg width="32" height="32" viewBox="0 0 32 32" fill="none" xmlns="http://www.w3.org/2000/svg">
<path fill-rule="evenodd" clip-rule="evenodd" d="M12.7482 7.38166L10.61 4.86105L8.60023 6.0056L9.74138 9.08977C9.20095 9.53282 8.70157 10.0268 8.25457 10.5641L5.12364 9.43267L3.96255 11.4138L6.51738 13.5238C6.27218 14.1648 6.0894 14.8354 5.97451 15.5289L2.69067 16.0947V18.3838L5.97229 18.9517C6.08939 19.643 6.27218 20.3137 6.51738 20.9547L3.96255 23.0647L5.12364 25.0458L8.80617 23.6346C8.80811 23.6346 8.49826 23.2328 8.49826 23.2328L5.33014 24.4928L4.55865 23.1237C4.55865 23.1237 6.51738 21.532 7.18255 20.9952C6.83871 20.1814 6.60896 19.3091 6.5029 18.4892C5.09556 18.2752 3.23326 17.988 3.23326 17.988V16.5452C3.23326 16.5452 5.76149 16.1337 6.48585 16.0277C6.62949 14.855 6.92823 14.0091 7.18255 13.4029C6.34108 12.7349 4.55865 11.3323 4.55865 11.3323C4.55865 11.3323 5.08796 10.4595 5.33014 10.068C6.64948 10.5154 8.01288 10.9963 8.49826 11.1643C9.29296 10.1236 10.2728 9.37547 10.3999 9.30332C10.2259 8.87911 9.15213 6.1905 9.15213 6.1905L10.5336 5.40202C10.5336 5.40202 12.1831 7.53047 12.5948 8.0558C13.0797 7.83836 14.0745 7.50274 15.2363 7.35309C15.4315 6.05826 15.7126 4.19933 15.7126 4.19933H16.4804L16.4778 3.6073H15.3584L14.7823 6.84217C14.7823 6.84217 13.399 7.13957 12.7482 7.38166Z" fill="#9FD34B"/>
<path fill-rule="evenodd" clip-rule="evenodd" d="M20.2187 7.38166L22.3569 4.86105L24.3667 6.0056L23.2255 9.08977C23.766 9.53282 24.2654 10.0268 24.7124 10.5641L27.8433 9.43267L29.0044 11.4138L26.4495 13.5238C26.6947 14.1648 26.8775 14.8354 26.9924 15.5289L30.2762 16.0947V18.3838L26.9946 18.9517C26.8775 19.643 26.6947 20.3137 26.4495 20.9547L29.0044 23.0647L27.8433 25.0458L24.1607 23.6346C24.1588 23.6346 24.4687 23.2328 24.4687 23.2328L27.6368 24.4928L28.4083 23.1237C28.4083 23.1237 26.4495 21.532 25.7844 20.9952C26.1282 20.1814 26.358 19.3091 26.464 18.4892C27.8714 18.2752 29.7337 17.988 29.7337 17.988V16.5452C29.7337 16.5452 27.2054 16.1337 26.4811 16.0277C26.3374 14.855 26.0387 14.0091 25.7844 13.4029C26.6258 12.7349 28.4083 11.3323 28.4083 11.3323C28.4083 11.3323 27.879 10.4595 27.6368 10.068C26.3174 10.5154 24.954 10.9963 24.4687 11.1643C23.674 10.1236 22.6941 9.37547 22.567 9.30332C22.741 8.87911 23.8148 6.1905 23.8148 6.1905L22.4334 5.40202C22.4334 5.40202 20.7838 7.53047 20.3722 8.0558C19.8872 7.83836 18.8925 7.50274 17.7306 7.35309C17.5354 6.05826 17.2543 4.19933 17.2543 4.19933H16.4865L16.4891 3.6073H17.6085L18.1846 6.84217C18.1846 6.84217 19.5679 7.13957 20.2187 7.38166Z" fill="#65C2FB"/>
<path fill-rule="evenodd" clip-rule="evenodd" d="M17.4117 18.3581C18.7903 17.131 19.3296 17.0184 19.6371 16.4917C20.3275 15.3092 19.5554 12.5578 19.5554 12.5578C19.5554 12.5578 20.5494 15.2244 21.4167 15.697C22.9728 16.5448 25.5498 14.6329 25.5498 14.6329C25.5498 14.6329 22.8261 16.7101 22.2745 18.0769C21.6985 19.5043 22.8201 23.1385 22.8201 23.1385C22.8201 23.1385 21.5607 19.0349 20.1872 18.4446C18.8137 17.8544 15.4983 20.3101 15.4983 20.3101C15.4983 20.3101 16.0332 19.5852 17.4117 18.3581Z" fill="#65C2FB"/>
<path d="M21.5478 15.3795C21.7942 15.7961 22.3326 15.931 22.7504 15.6809C23.1681 15.4309 23.3069 14.8905 23.0605 14.4739C22.814 14.0574 22.2756 13.9225 21.8579 14.1725C21.4402 14.4226 21.3014 14.963 21.5478 15.3795Z" fill="#65C2FB"/>
<path fill-rule="evenodd" clip-rule="evenodd" d="M23.6833 12.409L20.9956 12.2722L21.7538 12.9113L21.4851 13.2504L20.9905 13.5207L21.3563 13.7993L21.5747 13.3268L21.854 12.9789L22.2977 13.1837L21.9461 13.8771C21.9461 13.8771 22.399 13.7329 22.8454 13.9539C23.2736 14.166 23.434 14.5557 23.434 14.5557C23.434 14.5557 23.6544 14.393 23.8782 14.2903C24.004 14.2326 24.2693 14.1753 24.2693 14.1753L24.1968 13.8184L25.8726 13.8735L23.6833 12.409Z" fill="#65C2FB"/>
<path fill-rule="evenodd" clip-rule="evenodd" d="M12.7694 18.8951C13.366 17.1648 13.7794 16.8094 13.7886 16.2021C13.8092 14.8383 11.7909 12.7975 11.7909 12.7975C11.7909 12.7975 13.9605 14.6585 14.9454 14.6592C16.7125 14.6605 18.0149 11.7602 18.0149 11.7602C18.0149 11.7602 16.6661 14.8751 16.8563 16.334C17.0549 17.8577 19.8093 20.5048 19.8093 20.5048C19.8093 20.5048 16.7054 17.5124 15.223 17.6496C13.7407 17.7868 12.0631 21.5148 12.0631 21.5148C12.0631 21.5148 12.1727 20.6255 12.7694 18.8951Z" fill="#9FD34B"/>
<path d="M14.5755 14.3487C14.9944 14.5947 15.5299 14.4562 15.7715 14.0393C16.0132 13.6224 15.8694 13.085 15.4505 12.839C15.0316 12.593 14.4961 12.7315 14.2545 13.1484C14.0129 13.5653 14.1566 14.1027 14.5755 14.3487Z" fill="#9FD34B"/>
<path fill-rule="evenodd" clip-rule="evenodd" d="M14.7982 10.7448L12.3919 11.9045L13.3649 12.102L13.2971 12.5262L12.999 12.9977L13.4539 13.067L13.4126 12.5503L13.4852 12.1134L13.9717 12.0811L14.0054 12.8543C14.0054 12.8543 14.3289 12.5127 14.8257 12.4934C15.3023 12.4749 15.6328 12.739 15.6328 12.739C15.6328 12.739 15.7449 12.4919 15.8894 12.2957C15.9706 12.1855 16.1735 12.0091 16.1735 12.0091L15.9355 11.7317L17.421 10.9823L14.7982 10.7448Z" fill="#9FD34B"/>
<path fill-rule="evenodd" clip-rule="evenodd" d="M9.29025 19.8936C8.61769 18.6829 5.8158 17.9353 5.8158 17.9353C5.8158 17.9353 8.65914 18.4461 9.52252 17.9353C11.0715 17.0188 10.7438 13.7903 10.7438 13.7903C10.7438 13.7903 11.1394 17.2317 12.0449 18.4167C12.9906 19.6543 16.7445 20.5532 16.7445 20.5532C16.7445 20.5532 12.5095 19.532 11.2802 20.4225C10.0508 21.3131 10.4689 25.4646 10.4689 25.4646C10.4689 25.4646 10.1146 24.6252 9.76107 22.7927C9.40752 20.9603 9.5898 20.4329 9.29025 19.8936Z" fill="#65C2FB"/>
<path d="M9.21611 17.7795C9.70727 17.7795 10.1054 17.38 10.1054 16.8872C10.1054 16.3944 9.70727 15.9949 9.21611 15.9949C8.72495 15.9949 8.32678 16.3944 8.32678 16.8872C8.32678 17.38 8.72495 17.7795 9.21611 17.7795Z" fill="#65C2FB"/>
<path fill-rule="evenodd" clip-rule="evenodd" d="M7.68236 14.4531L6.16357 16.7227L7.11536 16.3921L7.27101 16.8009L7.24897 17.3709L7.68236 17.196L7.38426 16.7622L7.22649 16.3397L7.63604 16.059L8.0573 16.7227C8.0573 16.7227 8.16739 16.254 8.59252 15.9793C9.00033 15.7158 9.42353 15.7771 9.42353 15.7771C9.42353 15.7771 9.39642 15.5013 9.42353 15.2535C9.43877 15.1142 9.52692 14.8536 9.52692 14.8536L9.17811 14.7327L10.0988 13.3021L7.68236 14.4531Z" fill="#65C2FB"/>
</svg>
