<svg width="32" height="32" viewBox="0 0 32 32" fill="none" xmlns="http://www.w3.org/2000/svg">
<rect width="32" height="32" fill="#4B83FC"/>
<path d="M16 13.7679C16 10.4059 18.5813 8 22.0547 8C23.9824 8 25.5916 8.70108 26.6431 9.97576L24.9861 11.5052C24.2376 10.6449 23.2979 10.1983 22.1824 10.1983C20.0954 10.1983 18.6136 11.6641 18.6136 13.7675C18.6136 15.8709 20.0954 17.3363 22.1824 17.3363C23.2976 17.3363 24.2379 16.89 24.9867 16.0139L26.6438 17.5434C25.5919 18.8339 23.9824 19.5348 22.0392 19.5348C18.5818 19.5355 16 17.1296 16 13.7679Z" fill="white"/>
<path d="M10.8989 15.2017V19.1531H8.31778V15.1699L4 8H6.74047L9.71983 12.9552L12.6994 8H15.2327L10.8989 15.2017Z" fill="white"/>
<path d="M26.4984 22H5.50156C4.67221 22 4 22.3001 4 22.6703V26.3297C4 26.6999 4.67221 27 5.50156 27H26.4984C27.3278 27 28 26.6999 28 26.3297V22.6703C28 22.3001 27.3278 22 26.4984 22Z" fill="white"/>
</svg>
