<svg width="16" height="16" viewBox="0 0 16 16" fill="none" xmlns="http://www.w3.org/2000/svg">
<path d="M8 2C6.4087 2 4.88258 2.21071 3.75736 2.58579C2.63214 2.96086 2 3.46957 2 4V12C2 12.5304 2.63214 13.0391 3.75736 13.4142C4.88258 13.7893 6.4087 14 8 14C9.5913 14 11.1174 13.7893 12.2426 13.4142C13.3679 13.0391 14 12.5304 14 12V4C14 3.46957 13.3679 2.96086 12.2426 2.58579C11.1174 2.21071 9.5913 2 8 2ZM8 3C9.32608 3 10.5979 3.10536 11.5355 3.29289C12.4732 3.48043 13 3.73478 13 4C13 4.26522 12.4732 4.51957 11.5355 4.70711C10.5979 4.89464 9.32608 5 8 5C6.67392 5 5.40215 4.89464 4.46447 4.70711C3.52678 4.51957 3 4.26522 3 4C3 3.73478 3.52678 3.48043 4.46447 3.29289C5.40215 3.10536 6.67392 3 8 3ZM3 5.10156C3.54594 5.37733 4.28833 5.60372 5.16084 5.7605C6.03335 5.91728 7.00879 5.99956 8 6C8.99067 5.99978 9.96577 5.91779 10.8382 5.76136C11.7107 5.60493 12.4534 5.37892 13 5.10352V8C13 8.26522 12.4732 8.51957 11.5355 8.70711C10.5979 8.89464 9.32608 9 8 9C6.67392 9 5.40215 8.89464 4.46447 8.70711C3.52678 8.51957 3 8.26522 3 8V5.10156ZM3 9.10156C3.54594 9.37733 4.28833 9.60372 5.16084 9.7605C6.03335 9.91728 7.00879 9.99956 8 10C8.99067 9.99978 9.96577 9.91779 10.8382 9.76136C11.7107 9.60493 12.4534 9.37892 13 9.10352V12C13 12.2652 12.4732 12.5196 11.5355 12.7071C10.5979 12.8946 9.32608 13 8 13C6.67392 13 5.40215 12.8946 4.46447 12.7071C3.52678 12.5196 3 12.2652 3 12V9.10156Z" fill="#9FEF00"/>
</svg>
