<svg width="32" height="32" viewBox="0 0 32 32" fill="none" xmlns="http://www.w3.org/2000/svg">
<g clip-path="url(#clip0_42_144)">
<path fill-rule="evenodd" clip-rule="evenodd" d="M17.4058 0.218841C17.7235 0.31749 18.0568 0.359157 18.4058 0.343841C18.4266 0.343841 18.4475 0.343841 18.4683 0.343841C18.6562 0.448499 18.8645 0.490166 19.0933 0.468841C19.3113 0.471336 19.5196 0.513002 19.7183 0.593841C20.117 0.756328 20.5337 0.881328 20.9683 0.968841C21.1744 1.10017 21.4035 1.18351 21.6558 1.21884C21.7358 1.3083 21.84 1.34996 21.9683 1.34384C22.0483 1.4333 22.1525 1.47496 22.2808 1.46884C22.3428 1.45812 22.3844 1.47895 22.4058 1.53134C22.4858 1.6208 22.59 1.66246 22.7183 1.65634C23.0298 1.77043 23.3215 1.91627 23.5933 2.09384C23.6134 2.1906 23.6759 2.23227 23.7808 2.21884C23.8841 2.22882 23.9674 2.27048 24.0308 2.34384C24.0509 2.4406 24.1134 2.48227 24.2183 2.46884C24.2803 2.45812 24.3219 2.47895 24.3433 2.53134C24.3767 2.65294 24.46 2.71544 24.5933 2.71884C24.6553 2.70812 24.6969 2.72895 24.7183 2.78134C24.7479 2.86923 24.8104 2.9109 24.9058 2.90634C24.9392 3.02794 25.0225 3.09044 25.1558 3.09384C25.1854 3.18173 25.2479 3.2234 25.3433 3.21884C25.3767 3.34044 25.46 3.40294 25.5933 3.40634C25.6267 3.52794 25.71 3.59044 25.8433 3.59384C25.9058 3.61467 25.9475 3.65634 25.9683 3.71884C26.0159 3.82899 26.0993 3.89149 26.2183 3.90634C26.2808 3.92717 26.3225 3.96884 26.3433 4.03134C26.4286 4.17883 26.5536 4.283 26.7183 4.34384C26.7183 4.42717 26.76 4.46884 26.8433 4.46884C27.0725 4.65634 27.2808 4.86467 27.4683 5.09384C27.5679 5.29785 27.7137 5.46452 27.9058 5.59384C27.9844 5.7768 28.1094 5.92263 28.2808 6.03134C28.317 6.17189 28.4004 6.27603 28.5308 6.34384C28.5457 6.46284 28.6082 6.54622 28.7183 6.59384C28.7332 6.71284 28.7957 6.79622 28.9058 6.84384C28.9012 6.93928 28.9429 7.00178 29.0308 7.03134C29.0262 7.12678 29.0679 7.18928 29.1558 7.21884C29.1512 7.31428 29.1929 7.37678 29.2808 7.40634C29.2762 7.50178 29.3179 7.56428 29.4058 7.59384C29.4012 7.68928 29.4429 7.75178 29.5308 7.78134C29.5832 7.80272 29.604 7.84434 29.5933 7.90634C29.5887 8.00178 29.6304 8.06428 29.7183 8.09384C29.7917 8.15722 29.8333 8.24053 29.8433 8.34384C29.8387 8.43928 29.8804 8.50178 29.9683 8.53134C30.1842 8.85922 30.3509 9.2134 30.4683 9.59384C30.4469 9.71778 30.4885 9.80115 30.5933 9.84384C30.6581 9.93322 30.6998 10.0374 30.7183 10.1563C30.6945 10.2937 30.7362 10.3979 30.8433 10.4688C30.9198 10.8855 31.0448 11.2814 31.2183 11.6563C31.2127 11.8221 31.2543 11.9679 31.3433 12.0938C31.8082 13.8067 31.9645 15.5567 31.812 17.3438C31.7845 17.7443 31.7325 18.1402 31.6558 18.5313C31.5511 18.7193 31.5095 18.9276 31.5308 19.1563C31.5283 19.3743 31.4866 19.5827 31.4058 19.7813C31.2864 19.9658 31.2239 20.1742 31.2183 20.4063C31.0367 20.8261 30.8909 21.2636 30.7808 21.7188C30.6914 21.7988 30.6497 21.903 30.6558 22.0313C30.5664 22.1113 30.5247 22.2155 30.5308 22.3438C30.5415 22.4058 30.5207 22.4475 30.4683 22.4688C30.3789 22.5488 30.3372 22.653 30.3433 22.7813C29.9742 23.6664 29.495 24.4789 28.9058 25.2188C28.8179 25.2484 28.7762 25.3109 28.7808 25.4063C28.7808 25.448 28.76 25.4688 28.7183 25.4688C28.6304 25.4984 28.5887 25.5609 28.5933 25.6563C28.5933 25.698 28.5725 25.7188 28.5308 25.7188C28.4429 25.7484 28.4012 25.8109 28.4058 25.9063C28.385 25.9688 28.3433 26.0105 28.2808 26.0313C28.1929 26.0609 28.1512 26.1234 28.1558 26.2188C28.0933 26.323 28.01 26.4063 27.9058 26.4688C27.8179 26.4984 27.7762 26.5609 27.7808 26.6563C27.4058 27.073 27.01 27.4688 26.5933 27.8438C26.4979 27.8393 26.4354 27.881 26.4058 27.9688C26.3433 28.073 26.26 28.1563 26.1558 28.2188C26.0604 28.2143 25.9979 28.256 25.9683 28.3438C25.9475 28.4063 25.9058 28.448 25.8433 28.4688C25.7479 28.4643 25.6854 28.506 25.6558 28.5938C25.5884 28.7215 25.4842 28.8048 25.3433 28.8438C25.2479 28.8393 25.1854 28.881 25.1558 28.9688C24.876 29.2235 24.5635 29.4318 24.2183 29.5938C24.1229 29.5893 24.0604 29.631 24.0308 29.7188C23.6234 29.9956 23.1859 30.2247 22.7183 30.4063C22.59 30.4002 22.4858 30.4419 22.4058 30.5313C22.3844 30.5837 22.3428 30.6046 22.2808 30.5938C22.1095 30.6068 21.9637 30.6693 21.8433 30.7813C21.799 30.8378 21.7365 30.8587 21.6558 30.8438C21.4657 30.8584 21.299 30.9209 21.1558 31.0313C21.0487 31.1087 20.9237 31.1504 20.7808 31.1563C20.4885 31.1914 20.2177 31.2747 19.9683 31.4063C19.6865 31.508 19.3949 31.5705 19.0933 31.5938C18.8669 31.5827 18.6585 31.6244 18.4683 31.7188C16.6993 31.9746 14.9285 31.9642 13.1558 31.6876C12.7642 31.6284 12.3892 31.5347 12.0308 31.4063C11.46 31.1953 10.8767 31.0078 10.2808 30.8438C9.63604 30.6568 9.03186 30.3859 8.46829 30.0313C8.43873 29.9435 8.37623 29.9018 8.28079 29.9063C8.17748 29.8963 8.09417 29.8547 8.03079 29.7813C8.00123 29.6935 7.93873 29.6518 7.84329 29.6563C7.78129 29.6671 7.73967 29.6462 7.71829 29.5938C7.68873 29.506 7.62623 29.4643 7.53079 29.4688C7.50123 29.381 7.43873 29.3393 7.34329 29.3438C7.28129 29.3546 7.23967 29.3337 7.21829 29.2813C7.17067 29.1712 7.08729 29.1087 6.96829 29.0938C6.93873 29.006 6.87623 28.9643 6.78079 28.9688C6.73317 28.8587 6.64979 28.7962 6.53079 28.7813C6.48317 28.6712 6.39979 28.6087 6.28079 28.5938C6.21301 28.4634 6.10884 28.3801 5.96829 28.3438C5.85959 28.1724 5.71376 28.0474 5.53079 27.9688C5.40147 27.7768 5.23481 27.631 5.03079 27.5313C4.80162 27.3438 4.59329 27.1355 4.40579 26.9063C4.40579 26.823 4.36412 26.7813 4.28079 26.7813C4.21995 26.6167 4.11578 26.4917 3.96829 26.4063C3.90579 26.3855 3.86412 26.3438 3.84329 26.2813C3.82844 26.1623 3.76594 26.079 3.65579 26.0313C3.59329 26.0105 3.55162 25.9688 3.53079 25.9063C3.52739 25.7731 3.46489 25.6898 3.34329 25.6563C3.33989 25.5231 3.27739 25.4398 3.15579 25.4063C3.15239 25.2731 3.08989 25.1898 2.96829 25.1563C2.91591 25.135 2.89507 25.0933 2.90579 25.0313C2.90239 24.8981 2.83989 24.8148 2.71829 24.7813C2.66591 24.76 2.64507 24.7183 2.65579 24.6563C2.65239 24.5231 2.58989 24.4398 2.46829 24.4063C2.41591 24.385 2.39507 24.3433 2.40579 24.2813C2.41922 24.1764 2.37755 24.1139 2.28079 24.0938C2.20744 24.0305 2.16577 23.9472 2.15579 23.8438C2.16922 23.7389 2.12755 23.6764 2.03079 23.6563C1.85322 23.3845 1.70739 23.0928 1.59329 22.7813C1.59941 22.653 1.55775 22.5488 1.46829 22.4688C1.41591 22.4475 1.39507 22.4058 1.40579 22.3438C1.41191 22.2155 1.37025 22.1113 1.28079 22.0313C1.28691 21.903 1.24525 21.7988 1.15579 21.7188C1.14124 21.5287 1.07874 21.3621 0.968294 21.2188C0.858119 20.7222 0.712287 20.243 0.530794 19.7813C0.449955 19.5827 0.408289 19.3743 0.405794 19.1563C0.427119 18.9276 0.385452 18.7193 0.280794 18.5313C0.0252997 16.7607 0.0357164 14.9899 0.312044 13.2188C0.371234 12.8273 0.464984 12.4523 0.593294 12.0938C0.682281 11.9679 0.72395 11.8221 0.718294 11.6563C0.891806 11.2814 1.01681 10.8855 1.09329 10.4688C1.20037 10.3979 1.24204 10.2937 1.21829 10.1563C1.23679 10.0374 1.27845 9.93322 1.34329 9.84384C1.44807 9.80115 1.48974 9.71778 1.46829 9.59384C1.58568 9.2134 1.75234 8.85922 1.96829 8.53134C2.05619 8.50178 2.09786 8.43928 2.09329 8.34384C2.10327 8.24053 2.14494 8.15722 2.21829 8.09384C2.30619 8.06428 2.34786 8.00178 2.34329 7.90634C2.33257 7.84434 2.35341 7.80272 2.40579 7.78134C2.49369 7.75178 2.53536 7.68928 2.53079 7.59384C2.61869 7.56428 2.66036 7.50178 2.65579 7.40634C2.74369 7.37678 2.78536 7.31428 2.78079 7.21884C2.86869 7.18928 2.91036 7.12678 2.90579 7.03134C2.99369 7.00178 3.03536 6.93928 3.03079 6.84384C3.14094 6.79622 3.20344 6.71284 3.21829 6.59384C3.32844 6.54622 3.39094 6.46284 3.40579 6.34384C3.53622 6.27603 3.61956 6.17189 3.65579 6.03134C3.82721 5.92263 3.95221 5.7768 4.03079 5.59384C4.24349 5.44385 4.41016 5.25635 4.53079 5.03134C4.55162 4.96884 4.59329 4.92717 4.65579 4.90634C4.98542 4.68105 5.27709 4.41022 5.53079 4.09384C5.71376 4.01526 5.85959 3.89026 5.96829 3.71884C6.10884 3.6826 6.21301 3.59927 6.28079 3.46884C6.39979 3.45399 6.48317 3.39149 6.53079 3.28134C6.64979 3.26649 6.73317 3.20399 6.78079 3.09384C6.87623 3.0984 6.93873 3.05673 6.96829 2.96884C7.08729 2.95399 7.17067 2.89149 7.21829 2.78134C7.23967 2.72895 7.28129 2.70812 7.34329 2.71884C7.43873 2.7234 7.50123 2.68173 7.53079 2.59384C7.62623 2.5984 7.68873 2.55673 7.71829 2.46884C7.73967 2.41645 7.78129 2.39562 7.84329 2.40634C7.93873 2.4109 8.00123 2.36923 8.03079 2.28134C8.09417 2.20798 8.17748 2.16632 8.28079 2.15634C8.37623 2.1609 8.43873 2.11923 8.46829 2.03134C8.74011 1.85377 9.03179 1.70793 9.34329 1.59384C9.48067 1.61758 9.58486 1.57592 9.65579 1.46884C9.67717 1.41645 9.71879 1.39562 9.78079 1.40634C9.91817 1.43008 10.0224 1.38842 10.0933 1.28134C10.2307 1.30508 10.3349 1.26342 10.4058 1.15634C10.9644 1.02558 11.506 0.858909 12.0308 0.656341C13.7894 0.173812 15.581 0.0279786 17.4058 0.218841Z" fill="#CA3D3D"/>
<path opacity="0.451" fill-rule="evenodd" clip-rule="evenodd" d="M17.4062 0.21875C17.7532 0.220441 18.0865 0.262107 18.4062 0.34375C18.0572 0.359066 17.7239 0.317399 17.4062 0.21875Z" fill="#441817"/>
<path opacity="0.282" fill-rule="evenodd" clip-rule="evenodd" d="M18.4688 0.34375C18.6924 0.346798 18.9007 0.388464 19.0938 0.46875C18.865 0.490075 18.6567 0.448408 18.4688 0.34375Z" fill="#361413"/>
<path opacity="0.478" fill-rule="evenodd" clip-rule="evenodd" d="M19.7188 0.59375C20.1588 0.661812 20.5755 0.786812 20.9688 0.96875C20.5341 0.881237 20.1174 0.756238 19.7188 0.59375Z" fill="#3B1615"/>
<path opacity="0.686" fill-rule="evenodd" clip-rule="evenodd" d="M12.0312 0.65625C11.5064 0.858819 10.9648 1.02549 10.4062 1.15625C10.9234 0.928419 11.4651 0.761756 12.0312 0.65625Z" fill="#521B1B"/>
<path opacity="0.431" fill-rule="evenodd" clip-rule="evenodd" d="M20.9688 0.96875C21.2211 1.00408 21.4502 1.08742 21.6562 1.21875C21.4039 1.18342 21.1748 1.10008 20.9688 0.96875Z" fill="#441717"/>
<path opacity="0.773" fill-rule="evenodd" clip-rule="evenodd" d="M10.4062 1.15625C10.3353 1.26332 10.2311 1.30499 10.0938 1.28125C10.1831 1.21641 10.2873 1.17474 10.4062 1.15625Z" fill="#571D1C"/>
<path fill-rule="evenodd" clip-rule="evenodd" d="M14.344 1.21891C20.3595 0.857238 25.0782 3.12807 28.5002 8.03141C30.7994 11.7685 31.3827 15.7685 30.2502 20.0314C28.8057 24.7885 25.7744 28.0907 21.1565 29.9377C15.7016 31.7678 10.7432 30.8928 6.28149 27.3127C1.91001 23.2185 0.337095 18.2289 1.56274 12.3439C3.04991 7.27322 6.26868 3.80448 11.219 1.93766C12.2504 1.62381 13.2921 1.38422 14.344 1.21891Z" fill="#1F1F1F"/>
<path opacity="0.329" fill-rule="evenodd" clip-rule="evenodd" d="M21.6562 1.21885C21.7846 1.21273 21.8888 1.25439 21.9688 1.34385C21.8404 1.34997 21.7362 1.30831 21.6562 1.21885Z" fill="#3F1615"/>
<path opacity="0.784" fill-rule="evenodd" clip-rule="evenodd" d="M10.0938 1.28125C10.0228 1.38832 9.91862 1.42999 9.78125 1.40625C9.87062 1.34141 9.97481 1.29974 10.0938 1.28125Z" fill="#591D1C"/>
<path opacity="0.282" fill-rule="evenodd" clip-rule="evenodd" d="M21.9688 1.34385C22.0971 1.33773 22.2013 1.37939 22.2812 1.46885C22.1529 1.47497 22.0487 1.43331 21.9688 1.34385Z" fill="#3A1414"/>
<path opacity="0.804" fill-rule="evenodd" clip-rule="evenodd" d="M9.65625 1.46875C9.58531 1.57582 9.48112 1.61749 9.34375 1.59375C9.43312 1.52891 9.53731 1.48724 9.65625 1.46875Z" fill="#5B1E1E"/>
<path opacity="0.204" fill-rule="evenodd" clip-rule="evenodd" d="M22.4062 1.53135C22.5346 1.52523 22.6388 1.56689 22.7188 1.65635C22.5904 1.66247 22.4862 1.62081 22.4062 1.53135Z" fill="#301111"/>
<path opacity="0.525" fill-rule="evenodd" clip-rule="evenodd" d="M8.46875 2.0311C8.43919 2.11899 8.37669 2.16066 8.28125 2.1561C8.31081 2.06821 8.37331 2.02654 8.46875 2.0311Z" fill="#401616"/>
<path opacity="0.827" fill-rule="evenodd" clip-rule="evenodd" d="M23.5938 2.09375C23.6694 2.12076 23.7319 2.16242 23.7812 2.21875C23.6763 2.23218 23.6138 2.19051 23.5938 2.09375Z" fill="#5D201F"/>
<path opacity="0.533" fill-rule="evenodd" clip-rule="evenodd" d="M8.03125 2.2811C8.00169 2.36899 7.93919 2.41066 7.84375 2.4061C7.87331 2.31821 7.93581 2.27654 8.03125 2.2811Z" fill="#421616"/>
<path opacity="0.82" fill-rule="evenodd" clip-rule="evenodd" d="M24.0312 2.34375C24.1069 2.37076 24.1694 2.41242 24.2188 2.46875C24.1138 2.48218 24.0513 2.44051 24.0312 2.34375Z" fill="#5A1F1E"/>
<path opacity="0.525" fill-rule="evenodd" clip-rule="evenodd" d="M7.71875 2.4686C7.68919 2.55649 7.62669 2.59816 7.53125 2.5936C7.56081 2.50571 7.62331 2.46404 7.71875 2.4686Z" fill="#421616"/>
<path opacity="0.784" fill-rule="evenodd" clip-rule="evenodd" d="M24.3438 2.53125C24.4519 2.5641 24.5353 2.6266 24.5938 2.71875C24.4605 2.71535 24.3772 2.65285 24.3438 2.53125Z" fill="#531C1B"/>
<path opacity="0.616" fill-rule="evenodd" clip-rule="evenodd" d="M7.53125 2.5936C7.50169 2.68149 7.43919 2.72316 7.34375 2.7186C7.37331 2.63071 7.43581 2.58904 7.53125 2.5936Z" fill="#501A1A"/>
<path opacity="0.01" fill-rule="evenodd" clip-rule="evenodd" d="M24.7188 2.7811C24.8142 2.77654 24.8767 2.81821 24.9062 2.9061C24.8108 2.91066 24.7483 2.86899 24.7188 2.7811Z" fill="#1F0C0A"/>
<path opacity="0.396" fill-rule="evenodd" clip-rule="evenodd" d="M7.21875 2.78125C7.17112 2.8914 7.08775 2.9539 6.96875 2.96875C7.01638 2.8586 7.09975 2.7961 7.21875 2.78125Z" fill="#3C1515"/>
<path opacity="0.827" fill-rule="evenodd" clip-rule="evenodd" d="M24.9062 2.90625C25.0144 2.9391 25.0978 3.0016 25.1562 3.09375C25.023 3.09035 24.9397 3.02785 24.9062 2.90625Z" fill="#551D1C"/>
<path opacity="0.58" fill-rule="evenodd" clip-rule="evenodd" d="M6.96875 2.9686C6.93919 3.05649 6.87669 3.09816 6.78125 3.0936C6.81081 3.00571 6.87331 2.96404 6.96875 2.9686Z" fill="#4C1A19"/>
<path opacity="0.016" fill-rule="evenodd" clip-rule="evenodd" d="M25.1562 3.0936C25.2517 3.08904 25.3142 3.13071 25.3438 3.2186C25.2483 3.22316 25.1858 3.18149 25.1562 3.0936Z" fill="#26100D"/>
<path opacity="0.467" fill-rule="evenodd" clip-rule="evenodd" d="M6.78125 3.09375C6.73362 3.2039 6.65025 3.2664 6.53125 3.28125C6.57888 3.1711 6.66225 3.1086 6.78125 3.09375Z" fill="#461817"/>
<path opacity="0.51" fill-rule="evenodd" clip-rule="evenodd" d="M6.53125 3.28125C6.48362 3.3914 6.40025 3.4539 6.28125 3.46875C6.32888 3.3586 6.41225 3.2961 6.53125 3.28125Z" fill="#4B1A19"/>
<path opacity="0.51" fill-rule="evenodd" clip-rule="evenodd" d="M25.3438 3.21875C25.4519 3.2516 25.5353 3.3141 25.5938 3.40625C25.4605 3.40285 25.3772 3.34035 25.3438 3.21875Z" fill="#4B1A19"/>
<path opacity="0.451" fill-rule="evenodd" clip-rule="evenodd" d="M25.5938 3.40625C25.7019 3.4391 25.7853 3.5016 25.8438 3.59375C25.7105 3.59035 25.6272 3.52785 25.5938 3.40625Z" fill="#451918"/>
<path opacity="0.733" fill-rule="evenodd" clip-rule="evenodd" d="M6.28125 3.46875C6.21346 3.59918 6.1093 3.68251 5.96875 3.71875C6.03654 3.58832 6.1407 3.50499 6.28125 3.46875Z" fill="#5A1D1D"/>
<path opacity="0.01" fill-rule="evenodd" clip-rule="evenodd" d="M25.9688 3.71875C26.0878 3.7336 26.1711 3.7961 26.2188 3.90625C26.0997 3.8914 26.0164 3.8289 25.9688 3.71875Z" fill="#2C1210"/>
<path opacity="0.639" fill-rule="evenodd" clip-rule="evenodd" d="M5.96875 3.71875C5.86004 3.89017 5.71421 4.01517 5.53125 4.09375C5.63996 3.92233 5.78579 3.79733 5.96875 3.71875Z" fill="#5A1E1D"/>
<path opacity="0.416" fill-rule="evenodd" clip-rule="evenodd" d="M26.3438 4.03125C26.5068 4.09019 26.6318 4.19436 26.7188 4.34375C26.5541 4.28291 26.4291 4.17874 26.3438 4.03125Z" fill="#451918"/>
<path opacity="0.651" fill-rule="evenodd" clip-rule="evenodd" d="M26.7188 4.34375C26.7812 4.36458 26.8229 4.40625 26.8438 4.46875C26.7604 4.46875 26.7188 4.42708 26.7188 4.34375Z" fill="#4B1B1A"/>
<path opacity="0.733" fill-rule="evenodd" clip-rule="evenodd" d="M5.53125 4.09375C5.27754 4.41012 4.98588 4.68096 4.65625 4.90625C4.90996 4.58988 5.20162 4.31904 5.53125 4.09375Z" fill="#642120"/>
<path opacity="0.702" fill-rule="evenodd" clip-rule="evenodd" d="M27.4688 5.09375C27.6608 5.22307 27.8066 5.38974 27.9062 5.59375C27.7142 5.46443 27.5684 5.29776 27.4688 5.09375Z" fill="#441918"/>
<path opacity="0.431" fill-rule="evenodd" clip-rule="evenodd" d="M4.53125 5.03125C4.41061 5.25626 4.24394 5.44376 4.03125 5.59375C4.15189 5.36874 4.31856 5.18124 4.53125 5.03125Z" fill="#471918"/>
<path opacity="0.82" fill-rule="evenodd" clip-rule="evenodd" d="M27.9062 5.59375C28.0777 5.70246 28.2027 5.84829 28.2812 6.03125C28.1098 5.92254 27.9848 5.77671 27.9062 5.59375Z" fill="#541C1B"/>
<path opacity="0.639" fill-rule="evenodd" clip-rule="evenodd" d="M4.03125 5.59375C3.95267 5.77671 3.82767 5.92254 3.65625 6.03125C3.73483 5.84829 3.85983 5.70246 4.03125 5.59375Z" fill="#531C1B"/>
<path fill-rule="evenodd" clip-rule="evenodd" d="M15.3439 5.84374C15.7611 5.83334 16.1778 5.84376 16.5939 5.87499C18.7945 7.03799 20.9612 8.26711 23.0939 9.56249C23.4235 9.91217 23.4235 10.2663 23.0939 10.625C20.9632 11.9195 18.7965 13.1486 16.5939 14.3125C15.8581 14.442 15.1706 14.317 14.5314 13.9375C12.6275 12.8354 10.7316 11.7208 8.84392 10.5937C8.50242 10.2134 8.5233 9.8488 8.90642 9.49999C10.7689 8.4333 12.623 7.34992 14.4689 6.24999C14.7594 6.09409 15.051 5.95867 15.3439 5.84374Z" fill="#D6D6D5"/>
<path opacity="0.294" fill-rule="evenodd" clip-rule="evenodd" d="M3.65625 6.03125C3.62001 6.1718 3.53668 6.27594 3.40625 6.34375C3.44249 6.2032 3.52582 6.09904 3.65625 6.03125Z" fill="#411716"/>
<path opacity="0.294" fill-rule="evenodd" clip-rule="evenodd" d="M28.2812 6.03125C28.4117 6.09904 28.495 6.2032 28.5312 6.34375C28.4008 6.27594 28.3175 6.1718 28.2812 6.03125Z" fill="#421716"/>
<path opacity="0.663" fill-rule="evenodd" clip-rule="evenodd" d="M3.40625 6.34375C3.3914 6.46275 3.3289 6.54612 3.21875 6.59375C3.2336 6.47475 3.2961 6.39138 3.40625 6.34375Z" fill="#4B1A19"/>
<path opacity="0.671" fill-rule="evenodd" clip-rule="evenodd" d="M28.5312 6.34375C28.6414 6.39138 28.7039 6.47475 28.7188 6.59375C28.6086 6.54612 28.5461 6.46275 28.5312 6.34375Z" fill="#4C1A19"/>
<path fill-rule="evenodd" clip-rule="evenodd" d="M15.8438 6.53125C16.1861 6.61906 16.4986 6.77531 16.7812 7C16.5104 7.15625 16.2396 7.3125 15.9688 7.46875C15.6666 7.34912 15.3957 7.18244 15.1562 6.96875C15.4001 6.837 15.6292 6.69119 15.8438 6.53125Z" fill="#252524"/>
<path opacity="0.478" fill-rule="evenodd" clip-rule="evenodd" d="M3.21875 6.59375C3.2039 6.71275 3.1414 6.79612 3.03125 6.84375C3.0461 6.72475 3.1086 6.64138 3.21875 6.59375Z" fill="#471818"/>
<path opacity="0.478" fill-rule="evenodd" clip-rule="evenodd" d="M28.7188 6.59375C28.8289 6.64138 28.8914 6.72475 28.9062 6.84375C28.7961 6.79612 28.7336 6.71275 28.7188 6.59375Z" fill="#471818"/>
<path opacity="0.345" fill-rule="evenodd" clip-rule="evenodd" d="M3.03159 6.84375C3.03615 6.93919 2.99448 7.00169 2.90659 7.03125C2.90203 6.93581 2.94369 6.87331 3.03159 6.84375Z" fill="#3F1615"/>
<path opacity="0.345" fill-rule="evenodd" clip-rule="evenodd" d="M28.9066 6.84375C28.9945 6.87331 29.0362 6.93581 29.0316 7.03125C28.9437 7.00169 28.902 6.93919 28.9066 6.84375Z" fill="#3F1615"/>
<path opacity="0.396" fill-rule="evenodd" clip-rule="evenodd" d="M2.90659 7.03125C2.91115 7.12669 2.86948 7.18919 2.78159 7.21875C2.77703 7.12331 2.81869 7.06081 2.90659 7.03125Z" fill="#471817"/>
<path opacity="0.396" fill-rule="evenodd" clip-rule="evenodd" d="M29.0316 7.03125C29.1195 7.06081 29.1612 7.12331 29.1566 7.21875C29.0687 7.18919 29.027 7.12669 29.0316 7.03125Z" fill="#471817"/>
<path opacity="0.376" fill-rule="evenodd" clip-rule="evenodd" d="M2.78159 7.21875C2.78615 7.31419 2.74448 7.37669 2.65659 7.40625C2.65203 7.31081 2.69369 7.24831 2.78159 7.21875Z" fill="#461717"/>
<path opacity="0.376" fill-rule="evenodd" clip-rule="evenodd" d="M29.1566 7.21875C29.2445 7.24831 29.2862 7.31081 29.2816 7.40625C29.1937 7.37669 29.152 7.31419 29.1566 7.21875Z" fill="#461717"/>
<path opacity="0.329" fill-rule="evenodd" clip-rule="evenodd" d="M2.65659 7.40625C2.66115 7.50169 2.61948 7.56419 2.53159 7.59375C2.52703 7.49831 2.56869 7.43581 2.65659 7.40625Z" fill="#3F1615"/>
<path opacity="0.329" fill-rule="evenodd" clip-rule="evenodd" d="M29.2816 7.40625C29.3695 7.43581 29.4112 7.49831 29.4066 7.59375C29.3187 7.56419 29.277 7.50169 29.2816 7.40625Z" fill="#401615"/>
<path fill-rule="evenodd" clip-rule="evenodd" d="M17.6562 7.53125C17.952 7.6685 18.2436 7.82475 18.5312 8C18.2693 8.26656 17.9568 8.41237 17.5938 8.4375C17.3748 8.31763 17.1664 8.18225 16.9688 8.03125C17.1991 7.86306 17.4282 7.69637 17.6562 7.53125Z" fill="#252525"/>
<path opacity="0.243" fill-rule="evenodd" clip-rule="evenodd" d="M2.53159 7.59375C2.53615 7.68919 2.49448 7.75169 2.40659 7.78125C2.40203 7.68581 2.44369 7.62331 2.53159 7.59375Z" fill="#321211"/>
<path opacity="0.243" fill-rule="evenodd" clip-rule="evenodd" d="M29.4066 7.59375C29.4945 7.62331 29.5362 7.68581 29.5316 7.78125C29.4437 7.75169 29.402 7.68919 29.4066 7.59375Z" fill="#321211"/>
<path opacity="0.243" fill-rule="evenodd" clip-rule="evenodd" d="M2.34409 7.90625C2.34865 8.00169 2.30698 8.06419 2.21909 8.09375C2.21453 7.99831 2.25619 7.93581 2.34409 7.90625Z" fill="#341211"/>
<path opacity="0.243" fill-rule="evenodd" clip-rule="evenodd" d="M29.5941 7.90625C29.682 7.93581 29.7237 7.99831 29.7191 8.09375C29.6312 8.06419 29.5895 8.00169 29.5941 7.90625Z" fill="#341211"/>
<path opacity="0.204" fill-rule="evenodd" clip-rule="evenodd" d="M2.09409 8.34375C2.09865 8.43919 2.05698 8.50169 1.96909 8.53125C1.96453 8.43581 2.00619 8.37331 2.09409 8.34375Z" fill="#2F1110"/>
<path opacity="0.204" fill-rule="evenodd" clip-rule="evenodd" d="M29.8441 8.34375C29.932 8.37331 29.9737 8.43581 29.9691 8.53125C29.8812 8.50169 29.8395 8.43919 29.8441 8.34375Z" fill="#2F1110"/>
<path fill-rule="evenodd" clip-rule="evenodd" d="M19.4062 8.59375C19.7486 8.68156 20.0611 8.83781 20.3438 9.0625C20.0954 9.24944 19.8245 9.40569 19.5312 9.53125C19.2604 9.375 18.9896 9.21875 18.7188 9.0625C18.9521 8.90481 19.1812 8.74856 19.4062 8.59375Z" fill="#252525"/>
<path fill-rule="evenodd" clip-rule="evenodd" d="M10.5312 9.59375C10.8371 9.72613 11.1288 9.89281 11.4062 10.0938C11.1977 10.2607 10.9685 10.3961 10.7188 10.5C10.3955 10.4532 10.1038 10.3178 9.84375 10.0938C10.0741 9.92556 10.3032 9.75887 10.5312 9.59375Z" fill="#252525"/>
<path fill-rule="evenodd" clip-rule="evenodd" d="M21.1562 9.65602C21.2624 9.64602 21.3666 9.6564 21.4688 9.68727C21.69 9.80796 21.8984 9.9434 22.0938 10.0935C21.8209 10.3386 21.5084 10.4741 21.1562 10.4998C20.9373 10.3799 20.7289 10.2445 20.5312 10.0935C20.7414 9.94709 20.9498 9.80127 21.1562 9.65602Z" fill="#252525"/>
<path opacity="0.941" fill-rule="evenodd" clip-rule="evenodd" d="M1.46875 9.59375C1.4902 9.71769 1.44853 9.80106 1.34375 9.84375C1.35373 9.74044 1.39539 9.65713 1.46875 9.59375Z" fill="#732524"/>
<path opacity="0.941" fill-rule="evenodd" clip-rule="evenodd" d="M30.4684 9.59375C30.5417 9.65713 30.5834 9.74044 30.5934 9.84375C30.4886 9.80106 30.4469 9.71769 30.4684 9.59375Z" fill="#732524"/>
<path opacity="0.773" fill-rule="evenodd" clip-rule="evenodd" d="M1.21875 10.1562C1.24249 10.2936 1.20082 10.3978 1.09375 10.4688C1.11224 10.3498 1.15391 10.2456 1.21875 10.1562Z" fill="#571D1C"/>
<path opacity="0.773" fill-rule="evenodd" clip-rule="evenodd" d="M30.7184 10.1562C30.7832 10.2456 30.8249 10.3498 30.8434 10.4688C30.7363 10.3978 30.6946 10.2936 30.7184 10.1562Z" fill="#571D1C"/>
<path opacity="0.671" fill-rule="evenodd" clip-rule="evenodd" d="M1.09375 10.4688C1.01726 10.8854 0.892263 11.2813 0.71875 11.6562C0.795237 11.2396 0.920237 10.8437 1.09375 10.4688Z" fill="#4B1919"/>
<path opacity="0.663" fill-rule="evenodd" clip-rule="evenodd" d="M30.8438 10.4688C31.0173 10.8437 31.1423 11.2396 31.2188 11.6562C31.0452 11.2813 30.9202 10.8854 30.8438 10.4688Z" fill="#4A1919"/>
<path fill-rule="evenodd" clip-rule="evenodd" d="M12.3438 10.6562C12.6592 10.7619 12.9508 10.9182 13.2188 11.125C12.9379 11.3594 12.6254 11.5052 12.2812 11.5625C12.0627 11.4011 11.8335 11.2553 11.5938 11.125C11.8379 10.9526 12.0879 10.7963 12.3438 10.6562Z" fill="#252525"/>
<path fill-rule="evenodd" clip-rule="evenodd" d="M8.3434 11.0312C8.51134 11.0209 8.67803 11.0313 8.8434 11.0624C10.7997 12.1865 12.7581 13.3115 14.7184 14.4374C15.2565 14.8153 15.6002 15.3257 15.7497 15.9687C15.7913 19.177 15.7913 22.3853 15.7497 25.5937C15.5945 26.0673 15.2715 26.2236 14.7809 26.0624C12.6283 24.8772 10.5138 23.6376 8.43715 22.3437C8.09546 21.9571 8.01215 21.5196 8.18715 21.0312C8.32084 20.8029 8.51878 20.6779 8.7809 20.6562C9.00678 20.6752 9.21515 20.7481 9.4059 20.8749C10.7723 21.6517 12.1265 22.4433 13.4684 23.2499C13.6844 23.3201 13.8615 23.268 13.9997 23.0937C14.0413 22.4478 14.0413 21.802 13.9997 21.1562C13.898 21.0051 13.8043 20.8488 13.7184 20.6874C12.1535 19.7383 10.5702 18.8217 8.9684 17.9374C8.33459 17.6179 8.05334 17.1075 8.12465 16.4062C8.38359 15.8039 8.78984 15.6893 9.3434 16.0624C10.6893 16.8707 12.0435 17.6623 13.4059 18.4374C13.6194 18.4932 13.8173 18.462 13.9997 18.3437C14.0413 17.7187 14.0413 17.0937 13.9997 16.4687C13.8489 16.1927 13.651 15.9531 13.4059 15.7499C11.6637 14.8007 9.9449 13.8111 8.24965 12.7812C7.9309 12.3969 7.82671 11.9594 7.93715 11.4687C8.04303 11.29 8.17846 11.1442 8.3434 11.0312Z" fill="#D13F3F"/>
<path fill-rule="evenodd" clip-rule="evenodd" d="M23.1563 11.0313C23.5561 10.9968 23.8374 11.1635 24 11.5313C24.0417 14.7396 24.0417 17.948 24 21.1563C23.8384 21.865 23.453 22.4171 22.8438 22.8125C21.0125 23.8742 19.1791 24.9367 17.3438 26C16.8639 26.2152 16.4993 26.1005 16.25 25.6563C16.2083 22.448 16.2083 19.2396 16.25 16.0313C16.3783 15.4515 16.6596 14.9619 17.0938 14.5625C19.1206 13.3829 21.1414 12.2058 23.1563 11.0313Z" fill="#D13F3F"/>
<path fill-rule="evenodd" clip-rule="evenodd" d="M14.1562 11.6562C14.4572 11.7754 14.7281 11.9421 14.9688 12.1562C14.7484 12.3563 14.4984 12.5022 14.2188 12.5938C13.9204 12.4967 13.6495 12.3508 13.4062 12.1562C13.6418 11.9614 13.8918 11.7947 14.1562 11.6562Z" fill="#262625"/>
<path opacity="0.478" fill-rule="evenodd" clip-rule="evenodd" d="M0.71828 11.6562C0.723936 11.822 0.682268 11.9678 0.59328 12.0938C0.587626 11.928 0.629293 11.7822 0.71828 11.6562Z" fill="#471817"/>
<path opacity="0.478" fill-rule="evenodd" clip-rule="evenodd" d="M31.2183 11.6562C31.3073 11.7822 31.3489 11.928 31.3433 12.0938C31.2543 11.9678 31.2127 11.822 31.2183 11.6562Z" fill="#461817"/>
<path fill-rule="evenodd" clip-rule="evenodd" d="M15.8438 12.7188C16.1861 12.8066 16.4986 12.9628 16.7812 13.1875C16.6045 13.328 16.417 13.453 16.2188 13.5625C16.1222 13.6367 16.0181 13.6575 15.9062 13.625C15.6483 13.5251 15.4191 13.3792 15.2188 13.1875C15.4224 13.0141 15.6307 12.8579 15.8438 12.7188Z" fill="#262525"/>
<path fill-rule="evenodd" clip-rule="evenodd" d="M21.7191 13.9064C21.953 13.858 22.1092 13.9413 22.1879 14.1564C22.2295 16.3022 22.2295 18.4481 22.1879 20.5939C22.1354 20.9794 21.9375 21.2606 21.5941 21.4376C20.5802 21.9978 19.5802 22.5811 18.5941 23.1876C18.4483 23.2293 18.3024 23.2293 18.1566 23.1876C18.1175 23.1408 18.0862 23.0886 18.0629 23.0314C18.0524 21.9585 18.042 20.8856 18.0316 19.8126C18.0232 18.633 18.0545 17.4559 18.1254 16.2814C18.2584 16.0858 18.4146 15.9087 18.5941 15.7501C19.6627 15.169 20.7043 14.5544 21.7191 13.9064Z" fill="#201F1F"/>
<path opacity="0.294" fill-rule="evenodd" clip-rule="evenodd" d="M0.28125 18.5312C0.385908 18.7192 0.427575 18.9275 0.40625 19.1562C0.325964 18.9632 0.284298 18.7549 0.28125 18.5312Z" fill="#361413"/>
<path opacity="0.294" fill-rule="evenodd" clip-rule="evenodd" d="M31.6558 18.5312C31.6527 18.7549 31.6111 18.9632 31.5308 19.1562C31.5095 18.9275 31.5511 18.7192 31.6558 18.5312Z" fill="#371413"/>
<path opacity="0.478" fill-rule="evenodd" clip-rule="evenodd" d="M0.53125 19.7812C0.712744 20.2429 0.858575 20.7221 0.96875 21.2188C0.761881 20.7643 0.616048 20.2852 0.53125 19.7812Z" fill="#3C1615"/>
<path opacity="0.478" fill-rule="evenodd" clip-rule="evenodd" d="M31.4062 19.7812C31.3813 20.0072 31.3188 20.2156 31.2188 20.4062C31.2244 20.1741 31.2869 19.9657 31.4062 19.7812Z" fill="#401716"/>
<path opacity="0.024" fill-rule="evenodd" clip-rule="evenodd" d="M31.2188 20.4062C31.1337 20.8697 30.9879 21.3072 30.7812 21.7188C30.8913 21.2635 31.0372 20.826 31.2188 20.4062Z" fill="#381514"/>
<path opacity="0.294" fill-rule="evenodd" clip-rule="evenodd" d="M0.96875 21.2188C1.07919 21.362 1.14169 21.5286 1.15625 21.7188C1.04581 21.5755 0.983306 21.4089 0.96875 21.2188Z" fill="#3B1514"/>
<path opacity="0.329" fill-rule="evenodd" clip-rule="evenodd" d="M1.15586 21.7188C1.24532 21.7987 1.28698 21.9029 1.28086 22.0312C1.1914 21.9513 1.14974 21.8471 1.15586 21.7188Z" fill="#3F1615"/>
<path opacity="0.329" fill-rule="evenodd" clip-rule="evenodd" d="M30.7809 21.7188C30.787 21.8471 30.7453 21.9513 30.6559 22.0312C30.6497 21.9029 30.6914 21.7987 30.7809 21.7188Z" fill="#3F1615"/>
<path opacity="0.282" fill-rule="evenodd" clip-rule="evenodd" d="M1.28086 22.0312C1.37032 22.1112 1.41198 22.2154 1.40586 22.3438C1.3164 22.2638 1.27474 22.1596 1.28086 22.0312Z" fill="#391413"/>
<path opacity="0.282" fill-rule="evenodd" clip-rule="evenodd" d="M30.6559 22.0312C30.662 22.1596 30.6203 22.2638 30.5309 22.3438C30.5247 22.2154 30.5664 22.1112 30.6559 22.0312Z" fill="#391413"/>
<path opacity="0.204" fill-rule="evenodd" clip-rule="evenodd" d="M1.46836 22.4688C1.55782 22.5487 1.59948 22.6529 1.59336 22.7812C1.5039 22.7013 1.46224 22.5971 1.46836 22.4688Z" fill="#301111"/>
<path opacity="0.204" fill-rule="evenodd" clip-rule="evenodd" d="M30.4684 22.4688C30.4745 22.5971 30.4328 22.7013 30.3434 22.7812C30.3372 22.6529 30.3789 22.5487 30.4684 22.4688Z" fill="#301111"/>
<path opacity="0.827" fill-rule="evenodd" clip-rule="evenodd" d="M2.03125 23.6562C2.12801 23.6763 2.16968 23.7388 2.15625 23.8438C2.09992 23.7944 2.05826 23.7319 2.03125 23.6562Z" fill="#5D201F"/>
<path opacity="0.82" fill-rule="evenodd" clip-rule="evenodd" d="M2.28125 24.0938C2.37801 24.1138 2.41968 24.1763 2.40625 24.2812C2.34992 24.2319 2.30826 24.1694 2.28125 24.0938Z" fill="#5A1F1E"/>
<path opacity="0.784" fill-rule="evenodd" clip-rule="evenodd" d="M2.46875 24.4062C2.59035 24.4397 2.65285 24.523 2.65625 24.6562C2.5641 24.5978 2.5016 24.5144 2.46875 24.4062Z" fill="#511C1B"/>
<path opacity="0.843" fill-rule="evenodd" clip-rule="evenodd" d="M2.71875 24.7812C2.84035 24.8147 2.90285 24.898 2.90625 25.0312C2.8141 24.9728 2.7516 24.8894 2.71875 24.7812Z" fill="#591E1D"/>
<path opacity="0.773" fill-rule="evenodd" clip-rule="evenodd" d="M2.96875 25.1562C3.09035 25.1897 3.15285 25.273 3.15625 25.4062C3.0641 25.3478 3.0016 25.2644 2.96875 25.1562Z" fill="#491A19"/>
<path opacity="0.01" fill-rule="evenodd" clip-rule="evenodd" d="M28.9066 25.2188C28.9112 25.3142 28.8695 25.3767 28.7816 25.4062C28.777 25.3108 28.8187 25.2483 28.9066 25.2188Z" fill="#26100D"/>
<path opacity="0.51" fill-rule="evenodd" clip-rule="evenodd" d="M3.15625 25.4062C3.27785 25.4397 3.34035 25.523 3.34375 25.6562C3.2516 25.5978 3.1891 25.5144 3.15625 25.4062Z" fill="#4B1A19"/>
<path opacity="0.016" fill-rule="evenodd" clip-rule="evenodd" d="M28.7191 25.4688C28.7237 25.5642 28.682 25.6267 28.5941 25.6562C28.5895 25.5608 28.6312 25.4983 28.7191 25.4688Z" fill="#2A110F"/>
<path opacity="0.451" fill-rule="evenodd" clip-rule="evenodd" d="M3.34375 25.6562C3.46535 25.6897 3.52785 25.773 3.53125 25.9062C3.4391 25.8478 3.3766 25.7644 3.34375 25.6562Z" fill="#461918"/>
<path opacity="0.01" fill-rule="evenodd" clip-rule="evenodd" d="M28.5316 25.7188C28.5362 25.8142 28.4945 25.8767 28.4066 25.9062C28.402 25.8108 28.4437 25.7483 28.5316 25.7188Z" fill="#26100D"/>
<path opacity="0.01" fill-rule="evenodd" clip-rule="evenodd" d="M3.65625 26.0312C3.7664 26.0789 3.8289 26.1622 3.84375 26.2812C3.7336 26.2336 3.6711 26.1503 3.65625 26.0312Z" fill="#2C1210"/>
<path opacity="0.01" fill-rule="evenodd" clip-rule="evenodd" d="M28.2816 26.0312C28.2862 26.1267 28.2445 26.1892 28.1566 26.2188C28.152 26.1233 28.1937 26.0608 28.2816 26.0312Z" fill="#250F0C"/>
<path opacity="0.431" fill-rule="evenodd" clip-rule="evenodd" d="M3.96875 26.4062C4.11624 26.4916 4.22041 26.6166 4.28125 26.7812C4.13186 26.6943 4.02769 26.5693 3.96875 26.4062Z" fill="#461918"/>
<path opacity="0.01" fill-rule="evenodd" clip-rule="evenodd" d="M27.9066 26.4688C27.9112 26.5642 27.8695 26.6267 27.7816 26.6562C27.777 26.5608 27.8187 26.4983 27.9066 26.4688Z" fill="#26100D"/>
<path opacity="0.671" fill-rule="evenodd" clip-rule="evenodd" d="M4.28125 26.7812C4.36458 26.7812 4.40625 26.8229 4.40625 26.9062C4.34375 26.8854 4.30208 26.8438 4.28125 26.7812Z" fill="#4E1C1B"/>
<path opacity="0.702" fill-rule="evenodd" clip-rule="evenodd" d="M5.03125 27.5312C5.23526 27.6309 5.40193 27.7767 5.53125 27.9688C5.32724 27.8691 5.16057 27.7233 5.03125 27.5312Z" fill="#441918"/>
<path opacity="0.01" fill-rule="evenodd" clip-rule="evenodd" d="M26.5938 27.8436C26.5642 27.9315 26.5017 27.9732 26.4062 27.9686C26.4358 27.8807 26.4983 27.839 26.5938 27.8436Z" fill="#210E0A"/>
<path opacity="0.82" fill-rule="evenodd" clip-rule="evenodd" d="M5.53125 27.9688C5.71421 28.0473 5.86004 28.1723 5.96875 28.3438C5.78579 28.2652 5.63996 28.1402 5.53125 27.9688Z" fill="#541C1C"/>
<path opacity="0.01" fill-rule="evenodd" clip-rule="evenodd" d="M26.1562 28.2186C26.1267 28.3065 26.0642 28.3482 25.9688 28.3436C25.9983 28.2557 26.0608 28.214 26.1562 28.2186Z" fill="#200D0A"/>
<path opacity="0.714" fill-rule="evenodd" clip-rule="evenodd" d="M5.96875 28.3438C6.1093 28.38 6.21346 28.4633 6.28125 28.5938C6.1407 28.5575 6.03654 28.4742 5.96875 28.3438Z" fill="#4A1A19"/>
<path opacity="0.016" fill-rule="evenodd" clip-rule="evenodd" d="M25.8438 28.4686C25.8142 28.5565 25.7517 28.5982 25.6562 28.5936C25.6858 28.5057 25.7483 28.464 25.8438 28.4686Z" fill="#200D0A"/>
<path opacity="0.671" fill-rule="evenodd" clip-rule="evenodd" d="M6.28125 28.5938C6.40025 28.6086 6.48362 28.6711 6.53125 28.7812C6.41225 28.7664 6.32888 28.7039 6.28125 28.5938Z" fill="#4C1A19"/>
<path opacity="0.467" fill-rule="evenodd" clip-rule="evenodd" d="M6.53125 28.7812C6.65025 28.7961 6.73362 28.8586 6.78125 28.9688C6.66225 28.9539 6.57888 28.8914 6.53125 28.7812Z" fill="#471817"/>
<path opacity="0.016" fill-rule="evenodd" clip-rule="evenodd" d="M25.3438 28.8436C25.3142 28.9315 25.2517 28.9732 25.1562 28.9686C25.1858 28.8807 25.2483 28.839 25.3438 28.8436Z" fill="#210D0A"/>
<path opacity="0.365" fill-rule="evenodd" clip-rule="evenodd" d="M6.78125 28.9686C6.87669 28.964 6.93919 29.0057 6.96875 29.0936C6.87331 29.0982 6.81081 29.0565 6.78125 28.9686Z" fill="#411716"/>
<path opacity="0.396" fill-rule="evenodd" clip-rule="evenodd" d="M6.96875 29.0938C7.08775 29.1086 7.17112 29.1711 7.21875 29.2812C7.09975 29.2664 7.01638 29.2039 6.96875 29.0938Z" fill="#3C1515"/>
<path opacity="0.329" fill-rule="evenodd" clip-rule="evenodd" d="M7.34375 29.3436C7.43919 29.339 7.50169 29.3807 7.53125 29.4686C7.43581 29.4732 7.37331 29.4315 7.34375 29.3436Z" fill="#411615"/>
<path opacity="0.243" fill-rule="evenodd" clip-rule="evenodd" d="M7.53125 29.4686C7.62669 29.464 7.68919 29.5057 7.71875 29.5936C7.62331 29.5982 7.56081 29.5565 7.53125 29.4686Z" fill="#321211"/>
<path opacity="0.01" fill-rule="evenodd" clip-rule="evenodd" d="M24.2188 29.5936C24.1892 29.6815 24.1267 29.7232 24.0312 29.7186C24.0608 29.6307 24.1233 29.589 24.2188 29.5936Z" fill="#180807"/>
<path opacity="0.227" fill-rule="evenodd" clip-rule="evenodd" d="M7.84375 29.6561C7.93919 29.6515 8.00169 29.6932 8.03125 29.7811C7.93581 29.7857 7.87331 29.744 7.84375 29.6561Z" fill="#321211"/>
<path opacity="0.204" fill-rule="evenodd" clip-rule="evenodd" d="M8.28125 29.9061C8.37669 29.9015 8.43919 29.9432 8.46875 30.0311C8.37331 30.0357 8.31081 29.994 8.28125 29.9061Z" fill="#301110"/>
<path opacity="0.204" fill-rule="evenodd" clip-rule="evenodd" d="M22.7188 30.4064C22.6388 30.4958 22.5346 30.5375 22.4062 30.5314C22.4862 30.4419 22.5904 30.4002 22.7188 30.4064Z" fill="#2E1110"/>
<path opacity="0.173" fill-rule="evenodd" clip-rule="evenodd" d="M22.2812 30.5938C22.1609 30.7058 22.0151 30.7683 21.8438 30.7812C21.9641 30.6692 22.1099 30.6067 22.2812 30.5938Z" fill="#2D1110"/>
<path opacity="0.663" fill-rule="evenodd" clip-rule="evenodd" d="M10.2812 30.8438C10.8772 31.0078 11.4605 31.1953 12.0312 31.4062C11.4185 31.2922 10.8352 31.1047 10.2812 30.8438Z" fill="#4A1919"/>
<path opacity="0.173" fill-rule="evenodd" clip-rule="evenodd" d="M21.6562 30.8438C21.513 30.9542 21.3464 31.0167 21.1562 31.0312C21.2995 30.9208 21.4661 30.8583 21.6562 30.8438Z" fill="#321211"/>
<path opacity="0.067" fill-rule="evenodd" clip-rule="evenodd" d="M20.7812 31.1562C20.5312 31.2868 20.2603 31.3701 19.9688 31.4062C20.2182 31.2746 20.489 31.1913 20.7812 31.1562Z" fill="#2A110F"/>
<path opacity="0.051" fill-rule="evenodd" clip-rule="evenodd" d="M19.0938 31.5936C18.9007 31.6739 18.6924 31.7155 18.4688 31.7186C18.659 31.6241 18.8674 31.5824 19.0938 31.5936Z" fill="#1F0C0A"/>
</g>
<defs>
<clipPath id="clip0_42_144">
<rect width="32" height="32" fill="white"/>
</clipPath>
</defs>
</svg>
