<svg width="32" height="32" viewBox="0 0 32 32" fill="none" xmlns="http://www.w3.org/2000/svg">
<path d="M13.916 15.9833C14.836 15.6191 15.0987 15.1095 15.0987 13.7257C15.0987 11.1038 13.4338 10.6667 9.46889 10.6667H6.99422C2.52578 10.6667 0.575998 10.9764 0.575998 13.9442V14.8002H4.78178V14.0716C4.78178 13.6345 4.78178 13.4343 5.96444 13.4343H9.6C10.8049 13.4343 10.8924 13.6891 10.8924 14.0899C10.8924 14.5816 10.8924 14.7456 9.86311 14.7456H6.052V17.4221H10.192C11.1338 17.4221 11.1338 17.604 11.1338 18.0777C11.1338 18.6056 11.1338 18.6968 10.2356 18.6968H5.85511C4.69422 18.6968 4.65022 18.5511 4.65022 17.9496V17.2024H0.444443V18.5679C0.444443 20.4796 1.89022 21.4629 4.73778 21.4629H10.8267C14.2 21.4629 15.3391 20.6981 15.3391 18.4405C15.34 17.1123 15.1209 16.3827 13.916 15.9833Z" fill="#BE1E2D"/>
<path d="M30.2133 15.9833C31.1333 15.6191 31.396 15.1095 31.396 13.7257C31.396 11.1038 29.7311 10.6667 25.7662 10.6667H23.3129C18.8444 10.6667 16.8947 10.9764 16.8947 13.9442V14.8002H21.1004V14.0716C21.1004 13.6345 21.1004 13.4343 22.2831 13.4343H25.9196C27.1244 13.4343 27.212 13.6891 27.212 14.0899C27.212 14.5816 27.212 14.7456 26.1827 14.7456H22.3929V17.4221H26.5329C27.4747 17.4221 27.4747 17.604 27.4747 18.0777C27.4747 18.6056 27.4747 18.6968 26.5764 18.6968H22.1956C21.0347 18.6968 20.9907 18.5511 20.9907 17.9496V17.2024H16.7418V18.5679C16.7418 20.4796 18.1876 21.4629 21.0351 21.4629H27.124C30.4973 21.4629 31.6364 20.6981 31.6364 18.4405C31.6591 17.1123 31.4182 16.3827 30.2133 15.9833Z" fill="#BE1E2D"/>
</svg>
