<svg width="32" height="32" viewBox="0 0 33 33" fill="none" xmlns="http://www.w3.org/2000/svg">
    <path opacity="0.998" fill-rule="evenodd" clip-rule="evenodd"
        d="M18.9462 0.5C20.3854 0.5 21.8242 0.5 23.2634 0.5C24.3101 0.884384 25.3565 1.26877 26.4032 1.65315C26.4256 1.97285 26.5563 2.26114 26.7957 2.51802C26.7957 2.71021 26.9264 2.80631 27.1881 2.80631C27.2556 3.09218 27.1246 3.28437 26.7957 3.38288C26.4946 3.57661 26.2329 3.81684 26.0107 4.1036C24.9722 4.247 23.9255 4.29505 22.8709 4.24775C21.8242 4.05554 20.7779 3.86337 19.7312 3.67117C18.8948 3.43655 17.9792 3.29241 16.9839 3.23874C17.6762 2.33509 18.3304 1.42217 18.9462 0.5Z"
        fill="#B7E3F2" />
    <path opacity="0.995" fill-rule="evenodd" clip-rule="evenodd"
        d="M17.3763 0.5C17.8995 0.5 18.423 0.5 18.9462 0.5C18.3304 1.42217 17.6762 2.33509 16.9838 3.23874C17.9792 3.29241 18.8948 3.43655 19.7311 3.67117C15.0313 3.41972 11.9571 4.95725 10.508 8.28378C10.1874 9.87409 10.2525 11.4116 10.7043 12.8964C10.8157 13.4484 10.685 13.9288 10.3118 14.3378C6.22931 7.95951 8.58414 3.3469 17.3763 0.5Z"
        fill="#4DC0DE" />
    <path fill-rule="evenodd" clip-rule="evenodd"
        d="M19.7312 3.67104C20.7779 3.86324 21.8242 4.05541 22.8709 4.24761C22.5927 4.50823 22.2002 4.60431 21.6935 4.5359C20.9086 4.43982 20.1236 4.3437 19.3387 4.24761C18.144 3.86439 16.9666 3.91245 15.8064 4.39176C14.8908 4.87225 13.9748 5.35271 13.0591 5.8332C12.5399 6.06841 12.2785 6.40476 12.2742 6.84221C11.5936 7.3007 11.136 7.87728 10.9005 8.57194C10.7047 10.0102 10.6391 11.4516 10.7043 12.8963C10.2525 11.4115 10.1874 9.87396 10.508 8.28365C11.9571 4.95712 15.0313 3.41959 19.7312 3.67104Z"
        fill="#2E8AA5" />
    <path fill-rule="evenodd" clip-rule="evenodd"
        d="M26.7957 3.38281C26.8376 4.07563 26.4452 4.60415 25.6182 4.9684C24.5715 5.1606 23.5252 5.1606 22.4785 4.9684C22.119 4.88814 21.8576 4.74399 21.6935 4.53597C22.2002 4.60438 22.5927 4.50829 22.8709 4.24768C23.9255 4.29499 24.9722 4.24693 26.0107 4.10353C26.2328 3.81677 26.4946 3.57654 26.7957 3.38281Z"
        fill="#5FB7CF" />
    <path opacity="0.993" fill-rule="evenodd" clip-rule="evenodd"
        d="M19.3387 4.24782C15.7676 4.33535 14.525 5.68067 15.6102 8.28386C16.6887 9.75799 17.801 11.1994 18.9462 12.6082C18.3465 12.8415 17.6926 13.0337 16.9838 13.1848C16.5227 13.2479 16.1302 13.1518 15.8064 12.8965C14.0846 11.0406 12.9072 9.02257 12.2742 6.84242C12.2785 6.40497 12.5399 6.06862 13.0591 5.83341C13.9748 5.35292 14.8908 4.87246 15.8064 4.39197C16.9666 3.91266 18.144 3.8646 19.3387 4.24782Z"
        fill="#90C54A" />
    <path opacity="0.941" fill-rule="evenodd" clip-rule="evenodd"
        d="M26.4032 1.65308C31.2216 3.63788 33.1839 6.61688 32.2903 10.59C31.9477 9.90207 31.3589 9.32549 30.5242 8.86028C29.7902 10.6943 28.2859 12.0397 26.0107 12.8963C25.0723 12.3595 24.0256 11.9751 22.8709 11.7432C25.006 11.1485 26.7066 10.1395 27.9731 8.71614C27.8424 8.62005 27.7113 8.52393 27.5806 8.42785C28.5061 7.82876 28.8985 7.05998 28.758 6.12154C28.7321 4.86221 28.209 3.75709 27.1881 2.80623C26.9264 2.80623 26.7957 2.71013 26.7957 2.51794C26.5563 2.26106 26.4256 1.97277 26.4032 1.65308Z"
        fill="#62ACC1" />
    <path fill-rule="evenodd" clip-rule="evenodd"
        d="M12.2742 6.84229C12.9072 9.02244 14.0847 11.0405 15.8064 12.8963C16.1302 13.1517 16.5227 13.2478 16.9838 13.1846C14.5862 13.5795 12.2314 14.1561 9.91934 14.9144C10.05 14.7222 10.1811 14.53 10.3118 14.3378C10.6851 13.9288 10.8157 13.4483 10.7043 12.8963C10.6391 11.4517 10.7047 10.0103 10.9005 8.57201C11.136 7.87735 11.5936 7.30078 12.2742 6.84229Z"
        fill="#469F90" />
    <path fill-rule="evenodd" clip-rule="evenodd"
        d="M22.8709 11.7432C24.0256 11.9751 25.0723 12.3595 26.0107 12.8963C24.6889 13.3817 23.3808 13.8622 22.086 14.3378C18.4697 15.1498 14.8068 15.8705 11.0968 16.4999C8.62888 17.4028 6.66652 18.7001 5.20966 20.3918C4.72418 20.8141 4.3317 21.2946 4.03225 21.8332C3.57109 21.4084 3.17862 20.9279 2.85483 20.3918C2.26416 21.1502 2.00277 21.0541 2.06988 20.1035C3.82541 17.6603 6.44203 15.9306 9.91933 14.9143C12.2314 14.1561 14.5862 13.5795 16.9838 13.1846C17.6926 13.0335 18.3465 12.8413 18.9462 12.608C20.2543 12.3197 21.5628 12.0315 22.8709 11.7432Z"
        fill="#53C1DE" />
    <path fill-rule="evenodd" clip-rule="evenodd"
        d="M32.2903 10.5901C32.1341 11.943 31.5454 13.1922 30.5242 14.3378C29.4625 15.069 28.4813 15.8378 27.5806 16.6441C26.4613 17.1028 25.2839 17.4871 24.0484 17.7973C23.3796 16.7733 22.4636 15.8604 21.3011 15.0585C21.8242 14.8663 22.3478 14.6742 22.8709 14.482C22.6378 14.3481 22.376 14.3001 22.086 14.3378C23.3808 13.8623 24.6889 13.3818 26.0107 12.8964C28.2859 12.0397 29.7902 10.6944 30.5242 8.86035C31.359 9.32556 31.9477 9.90214 32.2903 10.5901Z"
        fill="#3F94AC" />
    <path fill-rule="evenodd" clip-rule="evenodd"
        d="M22.086 14.3379C22.376 14.3001 22.6378 14.3482 22.8709 14.482C22.3478 14.6742 21.8242 14.8664 21.301 15.0586C22.4636 15.8605 23.3796 16.7734 24.0484 17.7974C24.0484 17.9896 23.9177 18.0856 23.6559 18.0856C22.7402 18.2779 21.8242 18.47 20.9086 18.6622C18.9388 19.0779 17.1071 19.6544 15.414 20.392C14.4355 20.3427 13.7161 20.631 13.2554 21.2568C12.7079 20.8778 12.3154 20.974 12.0779 21.5451C11.6792 21.2182 11.4174 21.3142 11.293 21.8334C10.906 21.6399 10.448 21.6399 9.91934 21.8334C9.50646 21.8765 9.11399 21.8284 8.74193 21.6893C7.99898 21.0253 7.21403 20.4007 6.38709 19.8154C5.96165 20.1513 5.63472 20.5356 5.40591 20.9685C5.2238 20.7972 5.15826 20.605 5.20967 20.392C6.66653 18.7003 8.62889 17.403 11.0968 16.5001C14.8068 15.8706 18.4698 15.1499 22.086 14.3379Z"
        fill="#3991A9" />
    <path opacity="0.01" fill-rule="evenodd" clip-rule="evenodd"
        d="M27.5806 16.644C28.1038 16.8362 28.1038 16.8362 27.5806 16.644Z" fill="#8BC457" />
    <path fill-rule="evenodd" clip-rule="evenodd"
        d="M23.6559 18.0857C23.6559 18.1818 23.6559 18.2779 23.6559 18.374C23.9934 19.508 24.1241 20.6612 24.0483 21.8334C23.4867 22.2026 23.2249 22.6831 23.2634 23.2749C22.4086 21.7779 21.6237 20.2404 20.9086 18.6623C21.8242 18.4701 22.7402 18.2779 23.6559 18.0857Z"
        fill="#B3D582" />
    <path opacity="0.994" fill-rule="evenodd" clip-rule="evenodd"
        d="M9.91933 21.8332C9.96133 22.3748 9.76509 22.4709 9.33062 22.1215C8.68108 22.2087 8.15792 22.5931 7.76073 23.2746C7.63004 23.1786 7.49895 23.0824 7.36826 22.9864C4.75753 25.209 4.5613 27.5153 6.77955 29.9053C6.77955 30.0976 6.77955 30.2896 6.77955 30.4818C3.27909 28.0753 2.36345 25.1924 4.03224 21.8332C4.3317 21.2946 4.72417 20.8141 5.20966 20.3918C5.15825 20.6048 5.22379 20.797 5.4059 20.9683C5.63471 20.5354 5.96164 20.1511 6.38708 19.8152C7.21402 20.4005 7.99896 21.0251 8.74192 21.6891C9.11398 21.8282 9.50645 21.8763 9.91933 21.8332Z"
        fill="#60A4B5" />
    <path opacity="0.982" fill-rule="evenodd" clip-rule="evenodd"
        d="M20.9086 18.6621C21.6237 20.2403 22.4086 21.7778 23.2634 23.2747C22.4459 24.5483 21.1378 25.4132 19.3387 25.8693C18.1982 24.1024 16.8897 22.2766 15.414 20.3918C17.1071 19.6543 18.9388 19.0777 20.9086 18.6621Z"
        fill="#6DAD9E" />
    <path opacity="0.998" fill-rule="evenodd" clip-rule="evenodd"
        d="M23.6559 18.3738C27.1968 22.6896 26.6081 26.7256 21.8898 30.4819C20.6825 31.0371 19.44 31.5174 18.1613 31.9233C18.049 30.2631 18.1801 28.6296 18.5538 27.0224C21.8894 26.1608 23.721 24.431 24.0484 21.8332C24.1241 20.661 23.9934 19.5078 23.6559 18.3738Z"
        fill="#4CC1E0" />
    <path opacity="0.989" fill-rule="evenodd" clip-rule="evenodd"
        d="M2.06989 20.1035C2.00278 21.0541 2.26416 21.1502 2.85484 20.3918C3.17863 20.9279 3.5711 21.4084 4.03225 21.8332C2.36346 25.1924 3.2791 28.0753 6.77956 30.4819C6.91025 30.4819 7.04134 30.4819 7.17203 30.4819C7.43381 30.7702 7.6952 31.0585 7.95698 31.3468C7.42832 31.1533 6.9703 31.1533 6.58332 31.3468C4.55503 30.2025 2.98514 28.7612 1.87365 27.0224C1.50473 25.9843 1.04671 24.9753 0.5 23.9954C0.892473 22.9383 1.28495 21.8813 1.67742 20.8242C1.25904 20.4901 1.38974 20.2499 2.06989 20.1035Z"
        fill="#6EB9CC" />
    <path opacity="0.999" fill-rule="evenodd" clip-rule="evenodd"
        d="M10.3118 26.1577C10.9661 26.1577 11.6199 26.1577 12.2742 26.1577C12.3908 28.297 12.2601 30.4111 11.8817 32.5001C11.2275 32.5001 10.5736 32.5001 9.91935 32.5001C9.19367 32.185 8.53942 31.8007 7.95699 31.3469C7.69521 31.0586 7.43382 30.7704 7.17204 30.4821C7.23955 30.1961 7.10846 30.0041 6.77957 29.9055C6.77957 29.8095 6.77957 29.7132 6.77957 29.6172C6.84001 28.3858 7.49387 27.3287 8.74193 26.446C9.20858 26.1783 9.73175 26.0822 10.3118 26.1577Z"
        fill="#BAE4F4" />
    <path fill-rule="evenodd" clip-rule="evenodd"
        d="M24.0484 21.8333C23.721 24.431 21.8894 26.1608 18.5537 27.0224C16.0831 27.0011 13.7283 26.6167 11.4892 25.8693C11.0081 25.8749 10.6156 25.971 10.3118 26.1576C9.73174 26.082 9.20858 26.1781 8.74193 26.4459C7.49386 27.3286 6.84001 28.3856 6.77956 29.617C6.34706 28.0546 6.87062 26.6612 8.34945 25.4369C9.23016 25.1758 10.1458 25.0316 11.0968 25.0044C13.7848 25.5986 16.5321 25.8868 19.3387 25.8693C21.1378 25.4131 22.4459 24.5483 23.2634 23.2747C23.2249 22.6829 23.4867 22.2024 24.0484 21.8333Z"
        fill="#53A3B8" />
    <path fill-rule="evenodd" clip-rule="evenodd"
        d="M10.3118 26.1577C10.6156 25.9711 11.0081 25.875 11.4892 25.8694C13.7283 26.6168 16.0831 27.0012 18.5538 27.0225C18.1801 28.6297 18.049 30.2632 18.1613 31.9234C17.5745 32.0644 17.051 32.2564 16.5914 32.5C15.0215 32.5 13.4516 32.5 11.8817 32.5C12.2601 30.4111 12.3908 28.2969 12.2742 26.1577C11.6199 26.1577 10.9661 26.1577 10.3118 26.1577Z"
        fill="#87D3E9" />
</svg>