<svg width="32" height="32" viewBox="0 0 32 32" fill="none" xmlns="http://www.w3.org/2000/svg">
<g clip-path="url(#clip0_19_3000)">
<mask id="mask0_19_3000" style="mask-type:luminance" maskUnits="userSpaceOnUse" x="0" y="0" width="32" height="32">
<path d="M32 0H0V32H32V0Z" fill="white"/>
</mask>
<g mask="url(#mask0_19_3000)">
<mask id="mask1_19_3000" style="mask-type:luminance" maskUnits="userSpaceOnUse" x="0" y="0" width="32" height="32">
<path d="M31.2382 0.761963H0.761963V31.2382H31.2382V0.761963Z" fill="white"/>
</mask>
<g mask="url(#mask1_19_3000)">
<path fill-rule="evenodd" clip-rule="evenodd" d="M17.7525 1.29529C17.9556 1.29529 18.1589 1.29529 18.362 1.29529C18.7041 1.46635 19.0598 1.64413 19.4287 1.82862C19.6025 1.94157 19.6025 2.06854 19.4287 2.20957C19.6641 2.35462 19.9181 2.40541 20.1906 2.36195C20.1578 2.10614 20.2595 1.95376 20.4953 1.90481C20.8225 2.34688 21.2797 2.57545 21.8668 2.59053C21.6637 2.69212 21.6637 2.79369 21.8668 2.89529C21.6781 2.88351 21.5257 2.90891 21.4096 2.97148C22.0108 3.12247 22.6203 3.17326 23.2382 3.12386C23.3906 3.12386 23.543 3.12386 23.6953 3.12386C24.1595 3.53033 24.6166 3.93669 25.0668 4.34291C25.2594 4.78985 25.5641 5.14542 25.9811 5.40957C25.8476 5.52398 25.6952 5.60017 25.5239 5.63814C25.8171 5.92848 26.1726 6.10626 26.5906 6.17148C26.8914 6.75173 27.3232 7.20887 27.8858 7.54291C27.9594 7.68736 27.9847 7.83974 27.962 8.00005C28.1144 8.00005 28.2668 8.00005 28.4192 8.00005C28.656 8.57936 28.8083 9.18888 28.8763 9.82862C29.0794 9.82862 29.2827 9.82862 29.4858 9.82862C29.4858 9.93021 29.4858 10.0318 29.4858 10.1334C29.4608 10.5429 29.4863 10.9493 29.562 11.3525C29.7811 11.5658 29.9081 11.8198 29.943 12.1144C30.0056 12.5374 29.8787 12.639 29.562 12.4191C29.3839 12.4966 29.2569 12.6236 29.1811 12.8001C29.3293 13.624 29.3802 14.462 29.3334 15.3144C29.6059 15.3578 29.8599 15.3071 30.0953 15.162C29.93 14.6633 29.9046 14.1553 30.0192 13.6382C30.1737 14.2082 30.3006 14.7669 30.4001 15.3144C30.5507 16.0976 30.6014 16.9104 30.5525 17.7525C30.5525 17.9556 30.5525 18.1589 30.5525 18.362C30.1542 18.8848 30.0018 19.4943 30.0953 20.1906C29.953 20.3533 29.9021 20.5564 29.943 20.8001C29.7912 20.787 29.6643 20.8379 29.562 20.9525C29.5241 21.3604 29.3717 21.7159 29.1049 22.0191C29.0294 22.3198 29.004 22.6245 29.0287 22.9334C28.5219 23.4911 28.014 24.0499 27.5049 24.6096C27.0985 24.6096 26.6922 24.6096 26.2858 24.6096C26.305 24.8687 26.4067 25.0972 26.5906 25.2953C26.5398 25.3715 26.4889 25.4477 26.4382 25.5239C26.1895 25.4024 25.9609 25.2501 25.7525 25.0668C25.6763 25.1175 25.6001 25.1684 25.5239 25.2191C25.8296 25.4477 26.0835 25.727 26.2858 26.0572C26.2351 26.1334 26.1842 26.2096 26.1334 26.2858C25.5926 26.0197 25.1862 25.6133 24.9144 25.0668C24.7501 25.3677 24.8009 25.647 25.0668 25.9048C24.851 26.25 24.5462 26.4277 24.1525 26.4382C24.1958 26.1464 24.145 25.8925 24.0001 25.6763C24.0505 21.3834 23.9998 17.1167 23.8477 12.8763C23.7461 12.4699 23.6446 12.0636 23.543 11.6572C23.5609 11.018 23.434 10.4084 23.162 9.82862C23.008 9.70114 22.8301 9.65033 22.6287 9.67624C22.3128 9.09602 21.9573 8.53728 21.562 8.00005C21.2419 6.87016 20.48 6.31142 19.2763 6.32386C19.1913 6.1273 19.0389 6.00032 18.8192 5.94291C19.1774 5.81431 19.5329 5.71272 19.8858 5.63814C19.1736 5.58734 18.4626 5.61274 17.7525 5.71433C16.4588 5.53804 15.1381 5.51264 13.7906 5.63814C12.9165 5.83056 12.1038 6.1607 11.3525 6.62862C11.12 6.53648 10.9676 6.35869 10.8953 6.09529C10.7509 6.02172 10.5985 5.99632 10.4382 6.0191C10.4382 6.22227 10.4382 6.42545 10.4382 6.62862C10.5906 6.62862 10.743 6.62862 10.8953 6.62862C10.8953 6.83179 10.8953 7.03497 10.8953 7.23814C10.5906 7.23814 10.2858 7.23814 9.98106 7.23814C10.0087 7.55683 9.95793 7.8616 9.82868 8.15243C9.71075 8.33699 9.58377 8.33699 9.44773 8.15243C9.36951 8.30886 9.29332 8.46124 9.21915 8.60957C8.97471 8.48965 8.87311 8.28648 8.91439 8.00005C9.11756 8.00005 9.32075 8.00005 9.52392 8.00005C9.50565 7.65955 9.55645 7.3294 9.6763 7.00957C9.41471 6.54144 9.21152 6.0589 9.06677 5.56195C8.81934 5.58327 8.64157 5.48169 8.53344 5.25719C8.42411 5.40204 8.29711 5.42743 8.15249 5.33338C8.31618 5.22082 8.41777 5.06844 8.45725 4.87624C8.32491 4.61811 8.27412 4.38953 8.30487 4.19052C7.95656 4.59273 7.65179 5.02448 7.39058 5.48576C7.19352 5.56043 6.99034 5.58583 6.78106 5.56195C6.59808 6.1499 6.19174 6.45466 5.56201 6.47624C5.56201 6.17148 5.56201 5.86672 5.56201 5.56195C5.56201 5.51116 5.56201 5.46036 5.56201 5.40957C5.72232 5.43235 5.8747 5.40695 6.01915 5.33338C6.46405 4.71139 6.97198 4.17806 7.54296 3.73338C7.90635 3.32461 8.36349 3.01984 8.91439 2.8191C10.182 2.26125 11.5027 1.85489 12.8763 1.60005C14.4954 1.39727 16.1208 1.29568 17.7525 1.29529Z" fill="#4E7DFC"/>
<path fill-rule="evenodd" clip-rule="evenodd" d="M7.54296 3.7334C6.97197 4.17808 6.46404 4.71141 6.01915 5.3334C5.87469 5.40697 5.72231 5.43237 5.56201 5.40959C5.54205 5.29699 5.56745 5.1954 5.6382 5.10483C6.2149 4.5515 6.84983 4.09436 7.54296 3.7334Z" fill="#6D8BD6"/>
<path fill-rule="evenodd" clip-rule="evenodd" d="M9.21903 8.6096C9.21903 8.86357 9.21903 9.11753 9.21903 9.3715C8.91927 9.40798 8.63991 9.35719 8.38094 9.21912C8.2932 9.5052 8.3186 9.78458 8.45713 10.0573C8.30821 10.2854 8.15582 10.5139 7.99998 10.743C7.9858 15.9178 8.0112 21.0988 8.07617 26.2858C8.17839 26.4004 8.30537 26.4513 8.45713 26.4382C8.43791 26.6973 8.33633 26.9258 8.15237 27.1239C8.60289 27.4567 8.55211 27.6346 7.99998 27.6573C8.04774 27.2387 7.99694 26.8323 7.8476 26.4382C7.63724 26.5144 7.53565 26.6668 7.54284 26.8954C7.7609 27.6231 7.50693 27.8262 6.78094 27.5049C6.73015 27.5049 6.67934 27.5049 6.62856 27.5049C6.46328 27.1869 6.20933 26.9837 5.86665 26.8954C5.65236 26.8233 5.55077 26.6709 5.56189 26.4382C5.38502 26.1818 5.23264 25.9024 5.10475 25.6001C5.14063 25.4671 5.19142 25.34 5.25713 25.2192C4.39517 25.1102 4.31898 24.7547 5.02856 24.1525C5.13015 23.8985 5.13015 23.6446 5.02856 23.3906C4.87618 23.1875 4.72379 23.1875 4.57141 23.3906C4.49621 23.6396 4.47081 23.8936 4.49522 24.1525C3.86315 24.1016 3.60917 23.7461 3.73332 23.0858C3.93649 23.0858 4.13967 23.0858 4.34284 23.0858C4.34284 22.9334 4.34284 22.7811 4.34284 22.6287C3.89969 22.5924 3.54414 22.7448 3.27618 23.0858C3.25624 22.4574 2.95148 22.0512 2.36189 21.8668C2.37481 21.3869 2.22243 20.9805 1.90475 20.6477C1.92975 20.2383 1.90435 19.8319 1.82856 19.4287C1.72062 19.2944 1.59365 19.193 1.4476 19.1239C1.4476 18.6668 1.4476 18.2096 1.4476 17.7525C1.4476 16.9398 1.4476 16.127 1.4476 15.3144C1.59998 15.3144 1.75237 15.3144 1.90475 15.3144C1.57682 14.5487 1.42445 13.736 1.4476 12.8763C1.65077 12.8763 1.85396 12.8763 2.05713 12.8763C2.30089 12.8775 2.2501 12.4204 1.90475 11.5049C2.17506 10.9827 2.32744 10.424 2.36189 9.82865C2.8148 9.48151 3.06877 9.02436 3.12379 8.45722C3.15928 8.21923 3.26086 8.01606 3.42856 7.84769C4.15284 7.17457 4.76236 6.41266 5.25713 5.56198C5.35872 5.56198 5.4603 5.56198 5.56189 5.56198C5.56189 5.86674 5.56189 6.1715 5.56189 6.47627C6.19162 6.45469 6.59796 6.14993 6.78094 5.56198C6.99022 5.58586 7.1934 5.56046 7.39046 5.48579C7.65167 5.0245 7.95643 4.59276 8.30475 4.19055C8.274 4.38956 8.32478 4.61813 8.45713 4.87627C8.41765 5.06846 8.31605 5.22084 8.15237 5.33341C8.29699 5.42746 8.42398 5.40207 8.53332 5.25722C8.64145 5.48172 8.81921 5.5833 9.06665 5.56198C9.2114 6.05892 9.41458 6.54147 9.67617 7.0096C9.55633 7.32943 9.50552 7.65958 9.52379 8.00007C9.32062 8.00007 9.11744 8.00007 8.91427 8.00007C8.87299 8.28651 8.97458 8.48967 9.21903 8.6096Z" fill="#4F7CFD"/>
<path fill-rule="evenodd" clip-rule="evenodd" d="M19.2763 6.32391C19.0032 6.34433 18.7493 6.29354 18.5143 6.17153C18.2815 6.04822 18.0276 5.94663 17.7524 5.86677C17.7524 5.81598 17.7524 5.76517 17.7524 5.71438C18.4625 5.61279 19.1735 5.58739 19.8858 5.63819C19.5329 5.71277 19.1774 5.81436 18.8191 5.94296C19.0388 6.00037 19.1912 6.12735 19.2763 6.32391Z" fill="#5C83E8"/>
<path fill-rule="evenodd" clip-rule="evenodd" d="M11.3526 6.62859C11.1849 6.79695 11.0833 7.00012 11.0478 7.23811C10.9279 7.48256 10.7247 7.58415 10.4383 7.54287C10.4383 7.69525 10.4383 7.84764 10.4383 8.00002C10.0251 8.45833 9.61875 8.91548 9.21924 9.37145C9.21924 9.11747 9.21924 8.86351 9.21924 8.60954C9.2934 8.46121 9.36959 8.30883 9.44781 8.1524C9.58386 8.33696 9.71083 8.33696 9.82876 8.1524C9.95801 7.86156 10.0088 7.5568 9.98114 7.23811C10.2859 7.23811 10.5907 7.23811 10.8954 7.23811C10.8954 7.03494 10.8954 6.83176 10.8954 6.62859C10.743 6.62859 10.5907 6.62859 10.4383 6.62859C10.4383 6.42542 10.4383 6.22223 10.4383 6.01906C10.5986 5.99628 10.751 6.02169 10.8954 6.09526C10.9677 6.35866 11.1201 6.53644 11.3526 6.62859Z" fill="#577FE8"/>
<path fill-rule="evenodd" clip-rule="evenodd" d="M17.7524 5.71441C17.7524 5.7652 17.7524 5.816 17.7524 5.86679C15.3155 5.40894 13.0805 5.86609 11.0476 7.23822C11.0831 7.00023 11.1847 6.79706 11.3524 6.62869C12.1037 6.16078 12.9164 5.83063 13.7905 5.63822C15.138 5.51272 16.4587 5.53812 17.7524 5.71441Z" fill="#6A86D4"/>
<path fill-rule="evenodd" clip-rule="evenodd" d="M19.2764 6.32381C20.48 6.31138 21.2419 6.87011 21.5621 8C20.9355 7.67833 20.4783 7.22118 20.1907 6.62857C19.8082 6.69661 19.5034 6.59502 19.2764 6.32381Z" fill="#6184DF"/>
<path fill-rule="evenodd" clip-rule="evenodd" d="M25.0667 4.34302C26.4902 5.25953 27.6076 6.47857 28.419 8.00016C28.2667 8.00016 28.1143 8.00016 27.9619 8.00016C27.9846 7.83985 27.9593 7.68747 27.8857 7.54302C27.3231 7.20898 26.8913 6.75184 26.5905 6.17159C26.1725 6.10637 25.817 5.92859 25.5238 5.63825C25.6951 5.60028 25.8475 5.52409 25.9809 5.40968C25.564 5.14553 25.2593 4.78996 25.0667 4.34302Z" fill="#6482DD"/>
<path fill-rule="evenodd" clip-rule="evenodd" d="M5.25728 5.56201C4.76252 6.41269 4.15299 7.1746 3.42871 7.84773C3.92348 6.99704 4.533 6.23514 5.25728 5.56201Z" fill="#7C96CF"/>
<path fill-rule="evenodd" clip-rule="evenodd" d="M3.12397 8.45715C3.06894 9.0243 2.81497 9.48144 2.36206 9.82858C2.50068 9.29644 2.75465 8.83929 3.12397 8.45715Z" fill="#6A87CD"/>
<path fill-rule="evenodd" clip-rule="evenodd" d="M28.4192 8C28.928 8.50818 29.2835 9.1177 29.4859 9.82857C29.2827 9.82857 29.0795 9.82857 28.8763 9.82857C28.8084 9.18883 28.656 8.57931 28.4192 8Z" fill="#6E88DA"/>
<path fill-rule="evenodd" clip-rule="evenodd" d="M15.3145 10.2858C15.4854 10.1859 15.6885 10.1351 15.924 10.1335C16.2871 10.1123 16.5919 10.2139 16.8383 10.4382C16.3343 10.3543 15.8265 10.3035 15.3145 10.2858Z" fill="#7F96D7"/>
<path fill-rule="evenodd" clip-rule="evenodd" d="M22.6287 9.67624C22.8301 9.65033 23.0079 9.70114 23.162 9.82862C23.434 10.4084 23.5609 11.018 23.5429 11.6572C23.3906 11.3525 23.2382 11.0477 23.0858 10.7429C22.9048 10.4043 22.7524 10.0488 22.6287 9.67624Z" fill="#5E86D4"/>
<path fill-rule="evenodd" clip-rule="evenodd" d="M2.36204 9.82861C2.32759 10.424 2.17521 10.9827 1.9049 11.5048C1.75252 11.8096 1.60013 12.1143 1.44775 12.4191C1.57449 11.4794 1.87925 10.6159 2.36204 9.82861Z" fill="#778FD9"/>
<path fill-rule="evenodd" clip-rule="evenodd" d="M15.3144 10.2858C15.8264 10.3035 16.3343 10.3543 16.8382 10.4382C17.2521 10.4208 17.5568 10.5732 17.7525 10.8953C17.7525 10.9969 17.7525 11.0985 17.7525 11.2001C17.3866 11.1165 17.031 10.9895 16.6858 10.8191C16.2314 10.7433 15.7744 10.7179 15.3144 10.7429C15.2344 11.3271 15.082 11.8858 14.8573 12.4191C13.9293 12.5181 13.7262 12.1879 14.2477 11.4287C14.1969 11.4033 14.1461 11.3779 14.0953 11.3525C13.882 11.8432 13.6027 12.3004 13.2573 12.7239C13.155 12.8386 13.0281 12.8894 12.8763 12.8763C12.8329 12.5845 12.8838 12.3306 13.0287 12.1144C13.1804 12.1275 13.3074 12.0766 13.4096 11.962C13.6506 11.4415 13.9808 10.9843 14.4001 10.5906C14.7049 10.489 15.0096 10.3874 15.3144 10.2858Z" fill="#527FEF"/>
<path fill-rule="evenodd" clip-rule="evenodd" d="M14.4 10.5906C13.9807 10.9844 13.6505 11.4415 13.4095 11.962C13.3073 12.0767 13.1803 12.1275 13.0286 12.1144C13.2732 11.4128 13.7303 10.9049 14.4 10.5906Z" fill="#708ACD"/>
<path fill-rule="evenodd" clip-rule="evenodd" d="M17.7524 10.8954C18.3617 11.1459 18.7172 11.6031 18.8191 12.2668C18.586 12.1584 18.3828 12.006 18.2096 11.8096C18.2724 11.4329 18.12 11.2297 17.7524 11.2001C17.7524 11.0985 17.7524 10.997 17.7524 10.8954Z" fill="#738EC9"/>
<path fill-rule="evenodd" clip-rule="evenodd" d="M29.4859 10.1334C29.9979 10.9581 30.3026 11.8724 30.4001 12.8762C30.314 12.5836 30.1617 12.3297 29.943 12.1143C29.9081 11.8198 29.7812 11.5658 29.562 11.3524C29.4863 10.9492 29.4609 10.5429 29.4859 10.1334Z" fill="#6B8AD3"/>
<path fill-rule="evenodd" clip-rule="evenodd" d="M17.7524 11.2001C18.12 11.2297 18.2723 11.4329 18.2096 11.8096C18.2096 12.0636 18.2096 12.3176 18.2096 12.5715C18.0572 12.5715 17.9048 12.5715 17.7524 12.5715C17.7524 12.3684 17.7524 12.1652 17.7524 11.962C17.0988 11.9992 16.9972 12.2532 17.4476 12.7239C17.7366 12.8711 18.0413 12.9218 18.3619 12.8763C18.3019 13.8672 18.4034 14.8323 18.6667 15.7716C18.5143 15.7716 18.3619 15.7716 18.2096 15.7716C18.0297 15.4039 17.725 15.2515 17.2953 15.3144C16.6525 14.8343 15.9159 14.5803 15.0857 14.5525C14.7974 14.6485 14.5435 14.8009 14.3238 15.0096C14.2731 14.9588 14.2222 14.908 14.1715 14.8573C14.0308 15.0491 13.9038 15.2522 13.7905 15.4668C13.4997 15.3376 13.1949 15.2867 12.8762 15.3144C12.8762 14.5017 12.8762 13.689 12.8762 12.8763C13.028 12.8894 13.155 12.8386 13.2572 12.7239C13.6026 12.3004 13.8819 11.8432 14.0953 11.3525C14.1461 11.3779 14.1969 11.4033 14.2476 11.4287C13.7261 12.188 13.9293 12.5181 14.8572 12.4192C15.082 11.8858 15.2343 11.3271 15.3143 10.743C15.7742 10.7179 16.2313 10.7433 16.6857 10.8192C17.0309 10.9895 17.3865 11.1165 17.7524 11.2001Z" fill="#4E7CFB"/>
<path fill-rule="evenodd" clip-rule="evenodd" d="M29.9428 12.1144C30.1615 12.3298 30.3139 12.5838 30.4 12.8763C30.4 13.689 30.4 14.5017 30.4 15.3144C30.3005 14.7669 30.1735 14.2082 30.019 13.6382C29.9044 14.1553 29.9299 14.6633 30.0952 15.162C29.8598 15.3071 29.6057 15.3578 29.3333 15.3144C29.3801 14.4621 29.3292 13.624 29.1809 12.8001C29.2568 12.6237 29.3837 12.4967 29.5619 12.4192C29.8785 12.6391 30.0054 12.5375 29.9428 12.1144Z" fill="#507EF3"/>
<path fill-rule="evenodd" clip-rule="evenodd" d="M18.2097 11.8097C18.3829 12.0061 18.586 12.1584 18.8192 12.2668C18.8192 13.5875 18.8192 14.9081 18.8192 16.2287C18.4424 16.2915 18.2392 16.1391 18.2097 15.7716C18.362 15.7716 18.5144 15.7716 18.6668 15.7716C18.4035 14.8323 18.302 13.8673 18.362 12.8763C18.0414 12.9219 17.7367 12.8711 17.4478 12.724C16.9973 12.2532 17.099 11.9993 17.7525 11.9621C17.7525 12.1652 17.7525 12.3684 17.7525 12.5716C17.9049 12.5716 18.0573 12.5716 18.2097 12.5716C18.2097 12.3176 18.2097 12.0636 18.2097 11.8097Z" fill="#4F7FEF"/>
<path fill-rule="evenodd" clip-rule="evenodd" d="M12.8762 12.8762C12.8762 13.6889 12.8762 14.5016 12.8762 15.3143C12.8762 15.6698 12.8762 16.0255 12.8762 16.381C13.0286 16.381 13.181 16.381 13.3334 16.381C13.1571 16.6306 12.9793 16.8844 12.8 17.1429C12.6744 15.6939 12.6998 14.2716 12.8762 12.8762Z" fill="#9BA7C4"/>
<path fill-rule="evenodd" clip-rule="evenodd" d="M1.90479 11.5049C2.25014 12.4204 2.30093 12.8775 2.05717 12.8763C1.854 12.8763 1.65082 12.8763 1.44764 12.8763C1.42449 13.736 1.57686 14.5487 1.90479 15.3144C1.75241 15.3144 1.60003 15.3144 1.44764 15.3144C1.44764 16.127 1.44764 16.9398 1.44764 17.7525C1.34605 17.7525 1.24447 17.7525 1.14288 17.7525C0.872333 15.9321 0.973919 14.1544 1.44764 12.4191C1.60003 12.1144 1.75241 11.8096 1.90479 11.5049Z" fill="#6083E4"/>
<path fill-rule="evenodd" clip-rule="evenodd" d="M9.2192 9.3715C9.12628 9.50727 9.07549 9.65965 9.06682 9.82864C8.77246 10.3918 8.56929 11.0013 8.45729 11.6573C8.30519 16.4566 8.2544 21.2819 8.30491 26.1334C9.8012 26.2849 11.325 26.3356 12.8763 26.2858C12.093 26.4364 11.2803 26.4871 10.4382 26.4382C10.3875 26.4382 10.3367 26.4382 10.2859 26.4382C9.67634 26.4382 9.06682 26.4382 8.45729 26.4382C8.30554 26.4513 8.17856 26.4004 8.07634 26.2858C8.01137 21.0988 7.98596 15.9178 8.00015 10.743C8.15599 10.5139 8.30837 10.2854 8.45729 10.0573C8.31876 9.78457 8.29336 9.5052 8.3811 9.21912C8.64007 9.35719 8.91943 9.40798 9.2192 9.3715Z" fill="#6E85DC"/>
<path fill-rule="evenodd" clip-rule="evenodd" d="M23.0857 10.7429C23.2381 11.0476 23.3904 11.3524 23.5428 11.6571C23.5428 16.5333 23.5428 21.4095 23.5428 26.2857C22.0422 26.3355 20.5693 26.2848 19.1238 26.1333C20.546 26.1333 21.9683 26.1333 23.3904 26.1333C23.4159 21.3585 23.3904 16.5839 23.3143 11.8095C23.1654 11.4682 23.0892 11.1126 23.0857 10.7429Z" fill="#C0D5F6"/>
<path fill-rule="evenodd" clip-rule="evenodd" d="M17.2953 15.3144C17.1429 15.3144 16.9905 15.3144 16.8381 15.3144C16.0745 15.2891 15.3126 15.3145 14.5524 15.3906C14.3893 15.5204 14.2369 15.6473 14.0953 15.7715C13.6248 15.7253 13.3708 15.9285 13.3334 16.381C13.181 16.381 13.0286 16.381 12.8762 16.381C12.8762 16.0255 12.8762 15.6699 12.8762 15.3144C13.1949 15.2866 13.4997 15.3375 13.7905 15.4668C13.9038 15.2522 14.0308 15.049 14.1715 14.8572C14.2222 14.908 14.2731 14.9588 14.3238 15.0096C14.5435 14.8008 14.7974 14.6485 15.0857 14.5525C15.9159 14.5803 16.6525 14.8342 17.2953 15.3144Z" fill="#537FEF"/>
<path fill-rule="evenodd" clip-rule="evenodd" d="M23.5429 11.6572C23.6445 12.0635 23.746 12.4699 23.8476 12.8762C23.8731 17.3463 23.8476 21.8163 23.7714 26.2857C22.9708 26.3855 22.158 26.4363 21.3333 26.4381C20.4882 26.4374 19.701 26.3357 18.9714 26.1334C19.0222 26.1334 19.0731 26.1334 19.1238 26.1334C20.5693 26.2848 22.0422 26.3356 23.5429 26.2857C23.5429 21.4095 23.5429 16.5334 23.5429 11.6572Z" fill="#5581D1"/>
<path fill-rule="evenodd" clip-rule="evenodd" d="M30.5525 13.3335C30.7664 14.1105 30.8681 14.9232 30.8573 15.7716C30.8569 16.2571 30.8062 16.7142 30.7049 17.143C30.7076 15.8705 30.6569 14.6006 30.5525 13.3335Z" fill="#BACEEF"/>
<path fill-rule="evenodd" clip-rule="evenodd" d="M30.4001 12.8762C30.5379 12.9843 30.5886 13.1366 30.5525 13.3334C30.6569 14.6005 30.7077 15.8704 30.7049 17.1429C30.7457 17.3865 30.6949 17.5897 30.5525 17.7524C30.6014 16.9104 30.5507 16.0976 30.4001 15.3143C30.4001 14.5016 30.4001 13.6889 30.4001 12.8762Z" fill="#6883CC"/>
<path fill-rule="evenodd" clip-rule="evenodd" d="M18.8191 12.2667C18.9957 13.8146 19.021 15.3893 18.8953 16.9905C18.3171 16.2839 17.6314 15.7253 16.8381 15.3143C16.9905 15.3143 17.1429 15.3143 17.2953 15.3143C17.725 15.2513 18.0298 15.4037 18.2096 15.7714C18.2391 16.139 18.4422 16.2913 18.8191 16.2286C18.8191 14.9079 18.8191 13.5873 18.8191 12.2667Z" fill="#718ECF"/>
<path fill-rule="evenodd" clip-rule="evenodd" d="M14.0954 15.7714C13.8451 15.97 13.5912 16.1731 13.3335 16.381C13.371 15.9284 13.6249 15.7253 14.0954 15.7714Z" fill="#6D89CF"/>
<path fill-rule="evenodd" clip-rule="evenodd" d="M1.14304 17.7524C1.24463 17.7524 1.34621 17.7524 1.4478 17.7524C1.4478 18.2095 1.4478 18.6667 1.4478 19.1238C1.20124 18.7168 1.09965 18.2597 1.14304 17.7524Z" fill="#6F90D4"/>
<path fill-rule="evenodd" clip-rule="evenodd" d="M30.5524 18.3619C30.3988 18.9861 30.2465 19.5956 30.0953 20.1905C30.0017 19.4943 30.1541 18.8848 30.5524 18.3619Z" fill="#708FDA"/>
<path fill-rule="evenodd" clip-rule="evenodd" d="M1.44775 19.1239C1.5938 19.193 1.72077 19.2945 1.82871 19.4287C1.9045 19.8319 1.9299 20.2383 1.9049 20.6477C1.66098 20.183 1.50861 19.6749 1.44775 19.1239Z" fill="#6582CC"/>
<path fill-rule="evenodd" clip-rule="evenodd" d="M1.90479 20.6477C2.22247 20.9805 2.37485 21.3869 2.36193 21.8668C2.09266 21.5175 1.94027 21.1113 1.90479 20.6477Z" fill="#6883CC"/>
<path fill-rule="evenodd" clip-rule="evenodd" d="M20.4954 1.90491C21.5139 2.10769 22.4282 2.51405 23.2382 3.12395C22.6203 3.17335 22.0108 3.12257 21.4096 2.97157C21.5258 2.909 21.6781 2.8836 21.8668 2.89538C21.6637 2.79379 21.6637 2.69221 21.8668 2.59062C21.2797 2.57555 20.8225 2.34698 20.4954 1.90491Z" fill="#597EE7"/>
<path fill-rule="evenodd" clip-rule="evenodd" d="M18.3621 1.29529C19.1231 1.38031 19.8341 1.58349 20.4954 1.90481C20.2595 1.95376 20.1579 2.10614 20.1906 2.36195C19.9182 2.40541 19.6642 2.35462 19.4287 2.20957C19.6026 2.06854 19.6026 1.94157 19.4287 1.82862C19.0598 1.64413 18.7042 1.46635 18.3621 1.29529Z" fill="#5E84E2"/>
<path fill-rule="evenodd" clip-rule="evenodd" d="M17.7524 1.29534C16.1207 1.29574 14.4953 1.39732 12.8762 1.60011C11.5026 1.85495 10.1819 2.2613 8.91431 2.81915C11.6787 1.19155 14.6248 0.683611 17.7524 1.29534Z" fill="#7890D7"/>
<path fill-rule="evenodd" clip-rule="evenodd" d="M29.9429 20.8001C29.6353 21.5163 29.3305 22.2274 29.0286 22.9334C29.004 22.6245 29.0294 22.3198 29.1048 22.0191C29.3717 21.7159 29.524 21.3604 29.562 20.9525C29.6642 20.8379 29.7912 20.787 29.9429 20.8001Z" fill="#6B84CC"/>
<path fill-rule="evenodd" clip-rule="evenodd" d="M22.6288 26.743C21.8214 26.9472 21.0086 27.0488 20.1907 27.0477C21.3576 27.2067 22.5259 27.2067 23.6954 27.0477C23.6954 27.2001 23.6954 27.3525 23.6954 27.5049C23.0502 27.4905 22.6947 27.7953 22.6288 28.4192C22.2065 28.4071 21.8003 28.4833 21.4097 28.6477C21.5328 28.6947 21.6345 28.7709 21.7145 28.8763C21.4996 29.0392 21.3472 29.2425 21.2573 29.4858C20.8288 29.5265 20.4733 29.6789 20.1907 29.943C19.399 30.2259 18.5862 30.4291 17.7526 30.5525C16.125 30.5571 14.4996 30.5062 12.8764 30.4001C12.5287 30.2723 12.1732 30.1199 11.8097 29.943C11.6748 29.8173 11.624 29.6649 11.6573 29.4858C10.8085 29.3624 9.9958 29.1593 9.21924 28.8763C9.65195 28.6817 10.0583 28.4278 10.4383 28.1144C10.2832 27.9084 10.0801 27.756 9.82876 27.6573C10.0567 27.2804 10.2091 26.874 10.2859 26.4382C10.3367 26.4382 10.3875 26.4382 10.4383 26.4382C13.6682 26.5392 13.6682 26.7425 10.4383 27.0477C10.6158 27.2129 10.819 27.3398 11.0478 27.4287C11.8546 27.36 12.6673 27.3854 13.4859 27.5049C13.4859 25.8794 13.4859 24.2541 13.4859 22.6287C13.9423 22.6601 14.3486 22.5586 14.705 22.3239C15.6206 22.2494 16.5094 22.3509 17.3716 22.6287C17.4893 22.6066 17.5909 22.5558 17.6764 22.4763C17.7271 23.3398 17.778 24.2032 17.8288 25.0668C17.9328 23.9451 17.9075 22.8275 17.7526 21.7144C17.905 21.7144 18.0573 21.7144 18.2097 21.7144C18.3027 22.9313 18.3789 24.1504 18.4383 25.3715C18.4793 25.8061 18.6064 26.2124 18.8192 26.5906C20.1059 26.5697 21.3759 26.6205 22.6288 26.743Z" fill="#4E7DFD"/>
<path fill-rule="evenodd" clip-rule="evenodd" d="M12.8763 21.1049C13.0281 21.0918 13.1551 21.1427 13.2573 21.2573C13.3428 21.5963 13.4952 21.9011 13.7144 22.1716C13.7775 22.1019 13.8537 22.051 13.943 22.0192C14.1831 22.1649 14.437 22.2665 14.7049 22.3239C14.3486 22.5586 13.9422 22.6601 13.4859 22.6287C13.4859 24.2542 13.4859 25.8794 13.4859 27.5049C12.6673 27.3854 11.8546 27.36 11.0478 27.4287C10.8189 27.3399 10.6158 27.2129 10.4382 27.0478C13.6681 26.7425 13.6681 26.5393 10.4382 26.4382C11.2803 26.4871 12.093 26.4364 12.8763 26.2858C12.8763 24.5589 12.8763 22.8318 12.8763 21.1049Z" fill="#4F7DF5"/>
<path fill-rule="evenodd" clip-rule="evenodd" d="M18.6668 20.4952C18.9685 22.317 19.07 24.1963 18.9715 26.1333C18.9196 24.3247 18.7672 22.5469 18.5144 20.8C18.5651 20.6984 18.616 20.5969 18.6668 20.4952Z" fill="#6988D8"/>
<path fill-rule="evenodd" clip-rule="evenodd" d="M19.1238 26.1334C19.073 26.1334 19.0221 26.1334 18.9714 26.1334C19.0698 24.1964 18.9683 22.317 18.6666 20.4953C18.6537 20.2675 18.7552 20.1151 18.9714 20.0382C19.1236 22.0674 19.1745 24.0991 19.1238 26.1334Z" fill="#C9DBF2"/>
<path fill-rule="evenodd" clip-rule="evenodd" d="M2.36206 21.8667C2.95165 22.0511 3.25641 22.4573 3.27635 23.0857C3.54431 22.7447 3.89986 22.5923 4.34301 22.6286C4.34301 22.781 4.34301 22.9334 4.34301 23.0857C4.13984 23.0857 3.93666 23.0857 3.73349 23.0857C3.60934 23.746 3.86332 24.1015 4.49539 24.1524C4.47098 23.8935 4.49638 23.6395 4.57158 23.3905C4.72397 23.1874 4.87635 23.1874 5.02873 23.3905C5.13032 23.6445 5.13032 23.8984 5.02873 24.1524C4.31915 24.7546 4.39534 25.1101 5.2573 25.2191C5.19159 25.3399 5.1408 25.467 5.10492 25.6C5.23281 25.9024 5.38519 26.1817 5.56206 26.4381C4.70906 25.6561 3.92177 24.7926 3.20016 23.8477C2.83661 23.2223 2.55725 22.5619 2.36206 21.8667Z" fill="#577FE7"/>
<path fill-rule="evenodd" clip-rule="evenodd" d="M29.0287 22.9333C28.5975 23.6922 28.0896 24.4032 27.5049 25.0667C27.5049 24.9143 27.5049 24.762 27.5049 24.6096C28.014 24.0499 28.5219 23.4911 29.0287 22.9333Z" fill="#6C84CC"/>
<path fill-rule="evenodd" clip-rule="evenodd" d="M12.724 20.1906C13.0214 20.3864 13.2753 20.6403 13.4859 20.9525C13.3208 20.9466 13.1684 20.8957 13.0287 20.8001C12.9072 20.8698 12.8564 20.9714 12.8764 21.1049C12.8764 22.8318 12.8764 24.5589 12.8764 26.2858C11.325 26.3357 9.80122 26.2849 8.30493 26.1334C9.77795 26.1334 11.251 26.1334 12.724 26.1334C12.724 24.1525 12.724 22.1715 12.724 20.1906Z" fill="#98AED3"/>
<path fill-rule="evenodd" clip-rule="evenodd" d="M23.8477 12.8762C23.9998 17.1167 24.0505 21.3833 24.0001 25.6762C24.0365 25.976 23.9858 26.2554 23.8477 26.5143C23.4571 26.6787 23.0509 26.7549 22.6287 26.7429C21.3758 26.6204 20.1058 26.5696 18.8191 26.5905C18.6063 26.2123 18.4792 25.806 18.4382 25.3715C18.3787 24.1503 18.3026 22.9312 18.2096 21.7143C18.0572 21.7143 17.9048 21.7143 17.7525 21.7143C17.9074 22.8275 17.9327 23.945 17.8287 25.0667C17.7779 24.2032 17.727 23.3398 17.6763 22.4762C17.5908 22.5558 17.4891 22.6065 17.3715 22.6286C16.5093 22.3508 15.6205 22.2493 14.7049 22.3238C14.437 22.2664 14.183 22.1648 13.943 22.0191C13.8537 22.0509 13.7775 22.1018 13.7144 22.1715C13.4951 21.901 13.3427 21.5962 13.2572 21.2572C13.155 21.1426 13.028 21.0917 12.8763 21.1048C12.8563 20.9713 12.9071 20.8697 13.0287 20.8C13.1684 20.8956 13.3208 20.9465 13.4858 20.9524C13.922 21.8448 14.6585 22.251 15.6953 22.1715C16.5581 22.1885 17.3453 21.96 18.0572 21.4857C18.3073 21.3137 18.4597 21.0851 18.5144 20.8C18.7672 22.5469 18.9195 24.3248 18.9715 26.1334C19.7011 26.3357 20.4883 26.4374 21.3334 26.4381C22.1581 26.4363 22.9709 26.3856 23.7715 26.2857C23.8477 21.8163 23.8731 17.3463 23.8477 12.8762Z" fill="#4E7FEE"/>
<path fill-rule="evenodd" clip-rule="evenodd" d="M18.5144 20.8C18.4597 21.0851 18.3073 21.3138 18.0573 21.4858C17.3453 21.96 16.5581 22.1885 15.6954 22.1714C14.6586 22.251 13.9221 21.8447 13.4858 20.9524C13.689 21.1047 13.8922 21.2571 14.0954 21.4095C14.7928 21.9908 15.6055 22.1686 16.5335 21.9429C17.1055 21.7455 17.6134 21.4659 18.0573 21.1047C18.2096 21.0031 18.362 20.9016 18.5144 20.8Z" fill="#6A87D0"/>
<path fill-rule="evenodd" clip-rule="evenodd" d="M5.8667 26.8954C6.20937 26.9837 6.46333 27.1869 6.6286 27.5049C6.28593 27.4165 6.03197 27.2134 5.8667 26.8954Z" fill="#8AA5DB"/>
<path fill-rule="evenodd" clip-rule="evenodd" d="M27.505 24.6096C27.505 24.7619 27.505 24.9143 27.505 25.0667C26.8404 26.036 26.0278 26.8486 25.0669 27.5048C24.8416 27.4649 24.6385 27.5156 24.4573 27.6572C24.1139 28.0258 23.7075 28.3051 23.2383 28.4953C23.1237 28.5975 23.0728 28.7245 23.0859 28.8762C23.0352 28.8762 22.9843 28.8762 22.9335 28.8762C22.3787 29.0752 21.8201 29.2785 21.2573 29.4857C21.3472 29.2424 21.4996 29.0391 21.7145 28.8762C21.6345 28.7708 21.5328 28.6946 21.4097 28.6477C21.8003 28.4832 22.2065 28.407 22.6288 28.4191C22.6948 27.7952 23.0503 27.4905 23.6954 27.5048C23.6954 27.3524 23.6954 27.2 23.6954 27.0477C22.5259 27.2066 21.3576 27.2066 20.1907 27.0477C21.0087 27.0487 21.8215 26.9471 22.6288 26.7429C23.051 26.7549 23.4573 26.6787 23.8478 26.5143C23.9859 26.2554 24.0366 25.976 24.0002 25.6762C24.1451 25.8925 24.1959 26.1463 24.1526 26.4381C24.5463 26.4276 24.8511 26.2499 25.0669 25.9048C24.801 25.647 24.7502 25.3677 24.9145 25.0667C25.1863 25.6133 25.5927 26.0197 26.1335 26.2857C26.1843 26.2096 26.2352 26.1334 26.2859 26.0572C26.0836 25.727 25.8297 25.4477 25.524 25.2191C25.6002 25.1683 25.6764 25.1174 25.7526 25.0667C25.961 25.25 26.1896 25.4024 26.4383 25.5238C26.489 25.4477 26.5399 25.3715 26.5907 25.2953C26.4068 25.0972 26.3051 24.8686 26.2859 24.6096C26.6923 24.6096 27.0986 24.6096 27.505 24.6096Z" fill="#527DF4"/>
<path fill-rule="evenodd" clip-rule="evenodd" d="M8.4572 26.4381C9.06672 26.4381 9.67624 26.4381 10.2858 26.4381C10.2089 26.8739 10.0566 27.2803 9.82863 27.6572C10.0799 27.7559 10.2831 27.9083 10.4381 28.1143C10.0582 28.4277 9.65182 28.6816 9.2191 28.8762C9.03745 28.7138 9.08824 28.5868 9.37148 28.4953C8.91714 28.4194 8.46 28.3939 8.00005 28.4191C7.78683 28.2073 7.53287 28.0549 7.23815 27.9619C6.9877 27.9147 6.83531 27.7623 6.78101 27.5048C7.50699 27.8261 7.76097 27.623 7.54291 26.8953C7.53572 26.6667 7.63731 26.5143 7.84767 26.4381C7.99701 26.8322 8.04781 27.2386 8.00005 27.6572C8.55218 27.6345 8.60296 27.4566 8.15243 27.1238C8.3364 26.9257 8.43798 26.6972 8.4572 26.4381Z" fill="#4F7DF5"/>
<path fill-rule="evenodd" clip-rule="evenodd" d="M25.0667 27.5049C24.6603 27.8604 24.2541 28.216 23.8477 28.5715C23.5758 28.6314 23.3219 28.7329 23.0858 28.8763C23.0726 28.7245 23.1235 28.5976 23.2381 28.4953C23.7073 28.3052 24.1137 28.0259 24.4572 27.6572C24.6384 27.5157 24.8415 27.4649 25.0667 27.5049Z" fill="#6280C9"/>
<path fill-rule="evenodd" clip-rule="evenodd" d="M7.23828 27.9619C7.533 28.0549 7.78696 28.2072 8.00019 28.4191C8.00019 28.4698 8.00019 28.5207 8.00019 28.5714C7.65672 28.4764 7.40276 28.2732 7.23828 27.9619Z" fill="#91A3DC"/>
<path fill-rule="evenodd" clip-rule="evenodd" d="M22.9335 28.8762C22.8388 29.1558 22.6355 29.3337 22.324 29.4096C21.6389 29.6972 20.9277 29.8751 20.1907 29.9429C20.4733 29.6788 20.8288 29.5264 21.2573 29.4857C21.8201 29.2785 22.3787 29.0752 22.9335 28.8762Z" fill="#6786D8"/>
<path fill-rule="evenodd" clip-rule="evenodd" d="M8 28.419C8.45995 28.3939 8.91709 28.4193 9.37143 28.4952C9.08818 28.5868 9.03739 28.7137 9.21905 28.8762C9.99561 29.1592 10.8083 29.3623 11.6571 29.4857C11.6238 29.6648 11.6746 29.8171 11.8095 29.9429C12.173 30.1198 12.5285 30.2721 12.8762 30.4C11.0902 30.1777 9.46478 29.5681 8 28.5714C8 28.5207 8 28.4698 8 28.419Z" fill="#5E81E3"/>
<path fill-rule="evenodd" clip-rule="evenodd" d="M20.1905 29.943C19.482 30.4233 18.6693 30.6773 17.7524 30.7049C17.7524 30.6541 17.7524 30.6032 17.7524 30.5525C18.5861 30.4291 19.3989 30.2259 20.1905 29.943Z" fill="#7C98D2"/>
<path fill-rule="evenodd" clip-rule="evenodd" d="M12.8762 30.4C14.4994 30.5061 16.1248 30.557 17.7524 30.5524C17.7524 30.6031 17.7524 30.654 17.7524 30.7048C16.6393 30.8598 15.5217 30.8851 14.4 30.781C13.8193 30.7936 13.3113 30.6667 12.8762 30.4Z" fill="#7994D8"/>
</g>
</g>
</g>
<defs>
<clipPath id="clip0_19_3000">
<rect width="32" height="32" fill="white"/>
</clipPath>
</defs>
</svg>
