<svg width="32" height="32" viewBox="0 0 33 33" fill="none" xmlns="http://www.w3.org/2000/svg">
    <path
        d="M1.07264 31.024C0.691029 31.6906 1.67231 32.3349 2.40827 31.8906L14.865 24.0696C15.2194 23.8474 15.2467 23.4475 14.9468 23.1809L8.56851 17.4929L1.07264 31.024Z"
        fill="#07C0F8" />
    <path
        d="M27.7579 15.982L19.6079 0.473434C19.308 -0.104249 18.3267 -0.104249 17.9997 0.451216L8.56848 17.4929L18.2995 21.4478C18.5721 21.5589 18.8992 21.5367 19.1445 21.3811L27.7579 15.982Z"
        fill="#0C9ECE" />
    <path
        d="M32.9097 25.847L27.7307 15.9819L22.3882 22.3142C22.1701 22.5809 22.2519 22.9586 22.579 23.1363C22.6062 23.1585 22.6335 23.1585 22.6608 23.1808L31.7103 26.758C32.4735 27.0468 33.2368 26.4469 32.9097 25.847Z"
        fill="#107DA5" />
</svg>