<svg width="32" height="32" viewBox="0 0 33 33" fill="none" xmlns="http://www.w3.org/2000/svg">
    <path
        d="M27.3084 0.0585938H5.30095C2.5436 0.0585938 0.304688 2.29439 0.304688 5.03018V27.0415C0.304688 29.7773 2.5436 32.016 5.30095 32.0586H27.3084C30.0658 32.0586 32.3047 29.7972 32.3047 27.0614V5.05291C32.3047 2.29439 30.0458 0.0585938 27.3084 0.0585938ZM12.0576 24.5955H7.20659C6.23241 24.5955 5.61143 23.5188 6.10707 22.6893L14.6041 8.38814C15.3106 7.18643 17.051 7.20632 17.7346 8.41087L19.7257 11.7887C19.9308 12.141 19.9308 12.5955 19.7257 12.9478L13.1343 23.9734C12.9064 24.3484 12.4906 24.5955 12.0576 24.5955ZM25.5053 24.5955H19.7855C19.6203 24.5955 19.4551 24.4933 19.3725 24.3484L17.5068 21.1978C17.1535 20.5955 17.1535 19.8711 17.5068 19.2915L20.3467 14.5444C20.5945 14.1296 21.1956 14.1296 21.4434 14.5444L26.4795 22.8768C26.9353 23.6211 26.3969 24.5955 25.5053 24.5955Z"
        fill="url(#paint0_linear_1203_55)" />
    <defs>
        <linearGradient id="paint0_linear_1203_55" x1="-11.3518" y1="16.0576" x2="43.7424"
            y2="16.0576" gradientUnits="userSpaceOnUse">
            <stop offset="0.1953" stop-color="#006C00" />
            <stop offset="0.8418" stop-color="#7EC02D" />
        </linearGradient>
    </defs>
</svg>