<svg width="32" height="32" viewBox="0 0 32 32" fill="none" xmlns="http://www.w3.org/2000/svg">
<g clip-path="url(#clip0_16_1325)">
<path fill-rule="evenodd" clip-rule="evenodd" d="M-0.0800781 -0.0800171C10.5866 -0.0800171 21.2532 -0.0800171 31.9199 -0.0800171C31.9199 10.5867 31.9199 21.2533 31.9199 31.92C21.2532 31.92 10.5866 31.92 -0.0800781 31.92C-0.0800781 21.2533 -0.0800781 10.5867 -0.0800781 -0.0800171Z" fill="#1AB4E5"/>
<path fill-rule="evenodd" clip-rule="evenodd" d="M22.3199 10.96C21.5156 10.9605 20.7156 11.0138 19.9199 11.12C20.3497 10.8815 20.8297 10.7748 21.3599 10.8C21.7113 10.8007 22.0313 10.8541 22.3199 10.96Z" fill="#CEF9FB"/>
<path fill-rule="evenodd" clip-rule="evenodd" d="M26.4801 14.64C26.5861 14.9826 26.6396 15.356 26.6401 15.76C26.662 16.3915 26.5553 16.9783 26.3201 17.52C26.4386 16.5647 26.4921 15.6047 26.4801 14.64Z" fill="#D1FBFD"/>
<path fill-rule="evenodd" clip-rule="evenodd" d="M25.84 13.04C26.4611 13.1537 26.8611 13.5271 27.04 14.16C26.9814 14.5456 26.9014 14.9456 26.8 15.36C26.8532 15.6 26.9067 15.84 26.96 16.08C27.1638 15.6213 27.2971 15.1413 27.36 14.64C27.5038 14.3174 27.7172 14.0507 28 13.84C27.6969 15.3061 27.4569 16.7993 27.28 18.32C27.44 18.32 27.6 18.32 27.76 18.32C27.8628 18.9441 27.7028 19.4774 27.28 19.92C27.128 19.5843 27.128 19.2376 27.28 18.88C27.0787 18.2701 26.892 17.6568 26.72 17.04C26.5654 17.6189 26.6454 18.1521 26.96 18.64C26.7124 19.2893 26.3392 19.8493 25.84 20.32C25.6089 20.4449 25.3956 20.4182 25.2 20.24C25.4891 20.0968 25.7024 19.8835 25.84 19.6C25.8004 19.4059 25.6937 19.2992 25.52 19.28C25.8624 18.7254 26.1289 18.1387 26.32 17.52C26.5552 16.9782 26.6619 16.3915 26.64 15.76C26.6395 15.3559 26.586 14.9826 26.48 14.64C26.3548 14.0699 26.1414 13.5365 25.84 13.04Z" fill="#27B4E1"/>
<path fill-rule="evenodd" clip-rule="evenodd" d="M12.0801 11.12C12.3812 11.3202 12.7012 11.5069 13.0401 11.68C13.342 11.8048 13.6087 11.7781 13.8401 11.6C15.3164 11.3573 16.7831 11.4106 18.2401 11.76C18.8103 11.568 19.3703 11.3547 19.9201 11.12C20.7158 11.0138 21.5158 10.9605 22.3201 10.96C23.7972 11.1643 24.9707 11.8577 25.8401 13.04C26.1415 13.5366 26.355 14.0699 26.4801 14.64C26.4921 15.6047 26.4387 16.5647 26.3201 17.52C26.1291 18.1387 25.8625 18.7255 25.5201 19.28C23.067 21.4736 20.5335 21.5802 17.9201 19.6C16.5923 17.9519 16.1923 16.0851 16.7201 14C16.2401 14 15.7601 14 15.2801 14C15.8811 16.7603 15.0278 18.9203 12.7201 20.48C9.96228 21.6223 7.69563 21.009 5.92009 18.64C4.38192 15.2542 5.26192 12.7209 8.56009 11.04C9.74353 10.7121 10.9169 10.7388 12.0801 11.12Z" fill="#F8FDFC"/>
<path fill-rule="evenodd" clip-rule="evenodd" d="M8.39999 14C8.39694 14.2497 8.34361 14.4897 8.23999 14.72C8.30369 15.1638 8.51702 15.2971 8.87999 15.12C8.66348 14.9562 8.55682 14.7429 8.55999 14.48C8.89593 14.4837 9.18926 14.377 9.43999 14.16C9.76314 14.2451 9.89647 14.4585 9.83999 14.8C10.3872 14.8682 10.8406 14.7082 11.2 14.32C11.5808 14.4412 11.9008 14.6546 12.16 14.96C12.24 14.9067 12.32 14.8534 12.4 14.8C11.7878 13.7635 11.0144 13.6035 10.08 14.32C10.1454 14.044 10.1187 13.7773 9.99999 13.52C9.56602 13.8017 9.08602 13.9084 8.55999 13.84C10.0681 12.866 11.4281 13.0793 12.64 14.48C13.3757 16.2906 12.869 17.6506 11.12 18.56C8.4285 18.7479 7.28183 17.4946 7.67999 14.8C7.84785 14.4612 8.08785 14.1946 8.39999 14Z" fill="#26B4E4"/>
<path fill-rule="evenodd" clip-rule="evenodd" d="M20.88 13.2C23.2241 13.2237 24.3174 14.3971 24.16 16.72C23.3622 18.4269 22.0555 18.9869 20.24 18.4C18.5278 17.0215 18.3678 15.4748 19.76 13.76C20.159 13.5949 20.5325 13.4083 20.88 13.2Z" fill="#23B4E5"/>
<path fill-rule="evenodd" clip-rule="evenodd" d="M8.39999 14C8.39999 13.8933 8.45332 13.84 8.55999 13.84C9.08602 13.9083 9.56602 13.8017 9.99999 13.52C10.1187 13.7773 10.1454 14.044 10.08 14.32C11.0144 13.6034 11.7878 13.7634 12.4 14.8C12.32 14.8533 12.24 14.9067 12.16 14.96C11.9008 14.6545 11.5808 14.4412 11.2 14.32C10.8406 14.7082 10.3872 14.8682 9.83999 14.8C9.89647 14.4585 9.76314 14.2451 9.43999 14.16C9.18925 14.377 8.89593 14.4837 8.55999 14.48C8.55682 14.7429 8.66348 14.9562 8.87999 15.12C8.51701 15.2971 8.30369 15.1638 8.23999 14.72C8.34361 14.4897 8.39693 14.2497 8.39999 14Z" fill="#1FB1EB"/>
<path fill-rule="evenodd" clip-rule="evenodd" d="M12.0801 11.12C12.6797 11.2332 13.2664 11.3932 13.8401 11.6C13.6087 11.7781 13.342 11.8047 13.0401 11.68C12.7012 11.5069 12.3812 11.3202 12.0801 11.12Z" fill="#42B5CF"/>
</g>
<defs>
<clipPath id="clip0_16_1325">
<rect width="32" height="32" fill="white"/>
</clipPath>
</defs>
</svg>
