<?xml version="1.0" encoding="UTF-8"?>
<!-- Generator: Adobe Illustrator 22.0.1, SVG Export Plug-In . SVG Version: 6.00 Build 0)  -->
<svg version="1.1" id="mu_x5F_cc_x5F_app_x5F_RGB.svg" xmlns="http://www.w3.org/2000/svg"
    xmlns:xlink="http://www.w3.org/1999/xlink" x="0px" y="0px" width="32" height="32"
    viewBox="0 0 240 234" style="enable-background:new 0 0 240 234;" xml:space="preserve">
<rect style="fill:#C1E800;" width="240" height="234"/>
<rect x="10" y="10" style="fill:#1F2600;" width="220" height="214"/>
<path style="fill:#C1E800;" d="M40.8,53.3h23.4c0.8,0,1.2,0.2,1.3,1c4.1,15.3,16,65.2,18.8,82h0.2c3.1-15.3,17-65.8,21.3-82  c0.2-0.8,0.5-1,1.3-1h22.6c0.8,0,1,0.2,1.2,0.8l4,108.1c0.2,1-0.3,1.3-1.2,1.3h-16c-1,0-1.2-0.5-1.2-1.3c-0.7-35.3-0.7-85.2-0.7-94  h-0.2c-2.8,14-17.3,70.4-23.6,94c-0.2,1-0.7,1.3-1.3,1.3H76.2c-0.8,0-1.3-0.3-1.5-1.1c-6.1-24.6-17.3-75.5-21.1-94.1h-0.3  c0,13-1.3,58.2-2.6,94c0,1-0.5,1.3-1.2,1.3H35c-1,0-1.3-0.3-1.3-1.2l5.9-108.1C39.8,53.4,39.9,53.3,40.8,53.3z M206.5,146.8  c0,1.2,0.2,4.6,0.5,10.2c0,0.7-0.1,1-0.7,1.2c-8.7,3.3-18.4,6.8-30.6,6.8c-15,0-29.4-5.8-29.4-28.9V83.3c0-0.8,0.3-1.3,1.2-1.3h15.7  c0.8,0,1.2,0.5,1.2,1.3v50.6c0,9.7,3.7,15,13.9,15c4.1,0,7.9-0.8,10.3-1.8V83.3c0-0.8,0.3-1.3,1.2-1.3h15.7c1,0,1.2,0.5,1.2,1.3  v63.5H206.5z"/>
<script xmlns="" id="bw-fido2-page-script"/></svg>