<svg width="32" height="32" viewBox="0 0 32 32" fill="none" xmlns="http://www.w3.org/2000/svg">
<mask id="mask0_24_552" style="mask-type:luminance" maskUnits="userSpaceOnUse" x="0" y="0" width="32" height="32">
<path d="M32 0H0V32H32V0Z" fill="white"/>
</mask>
<g mask="url(#mask0_24_552)">
<mask id="mask1_24_552" style="mask-type:luminance" maskUnits="userSpaceOnUse" x="0" y="0" width="32" height="32">
<path d="M31.7217 0.278259H0.417358V31.5826H31.7217V0.278259Z" fill="white"/>
</mask>
<g mask="url(#mask1_24_552)">
<path fill-rule="evenodd" clip-rule="evenodd" d="M14.1217 1.32169C20.66 0.93811 25.5991 3.53522 28.9391 9.113C31.5279 14.7812 30.9714 20.1146 27.2695 25.113C22.8549 29.9213 17.4984 31.4285 11.2 29.6347C7.62392 28.3078 4.93407 25.9657 3.1304 22.6086C3.36518 22.4601 3.59706 22.4833 3.82605 22.6782C5.58838 24.3478 7.35068 26.0173 9.11301 27.6869C9.97475 27.925 10.6936 27.7163 11.2695 27.0608C13.1353 23.0976 15.0368 19.1554 16.9739 15.2347C17.7305 14.1739 18.7276 13.4782 19.9652 13.1478C21.117 13.2557 21.8823 13.8587 22.2608 14.9565C22.4527 15.7573 22.6846 16.5458 22.9565 17.3217C23.1773 17.4924 23.3629 17.4461 23.513 17.1826C24.8225 14.6099 26.1675 12.0591 27.5478 9.53039C27.6434 9.19365 27.5738 8.8922 27.3391 8.62604C24.6956 7.21154 22.0521 5.79706 19.4087 4.38256C19.2389 4.43639 19.1461 4.55233 19.1304 4.73039C19.4375 5.69759 19.7157 6.67151 19.9652 7.65213C19.9422 8.62636 19.5248 9.36838 18.713 9.87821C17.6133 10.2922 16.5003 10.6632 15.3739 10.9913C15.0784 11.1473 14.8233 11.356 14.6087 11.6173C12.9697 15.0352 11.2306 18.3744 9.39127 21.6347C8.7762 22.0118 8.17329 21.9885 7.58257 21.5652C6.00983 20.1317 4.47939 18.6476 2.99127 17.113C2.51501 16.8481 2.00486 16.7322 1.46083 16.7652C1.41974 9.68008 4.66612 4.78732 11.2 2.08691C12.1844 1.80294 13.1583 1.54788 14.1217 1.32169Z" fill="#2D97DD"/>
</g>
</g>
</svg>
