<svg width="32" height="32" viewBox="0 0 32 32" fill="none" xmlns="http://www.w3.org/2000/svg">
<g clip-path="url(#clip0_17_1637)">
<mask id="mask0_17_1637" style="mask-type:luminance" maskUnits="userSpaceOnUse" x="0" y="0" width="32" height="32">
<path d="M32 0H0V32H32V0Z" fill="white"/>
</mask>
<g mask="url(#mask0_17_1637)">
<path fill-rule="evenodd" clip-rule="evenodd" d="M31.8745 -0.0194092C31.9104 -0.0194092 31.9462 -0.0194092 31.9821 -0.0194092C31.9821 0.00644942 31.9821 0.032308 31.9821 0.0581666C31.9582 0.0840253 31.9343 0.109884 31.9104 0.135742C31.8988 0.0756933 31.863 0.0498346 31.8027 0.0581666C31.8267 0.032308 31.8506 0.00644942 31.8745 -0.0194092Z" fill="#C8A7D0"/>
<path fill-rule="evenodd" clip-rule="evenodd" d="M31.8029 0.0581635C31.8631 0.0498314 31.899 0.0756902 31.9105 0.135739C30.5826 2.87809 29.2552 5.61911 27.9285 8.35877C27.8928 6.31872 27.8808 4.27588 27.8926 2.23029C27.943 2.21194 27.9669 2.17315 27.9643 2.11392C28.0059 1.9723 28.0657 1.84301 28.1437 1.72604C28.1941 1.70769 28.2181 1.66891 28.2154 1.60968C29.4004 1.0704 30.5962 0.553227 31.8029 0.0581635Z" fill="#82439A"/>
<path fill-rule="evenodd" clip-rule="evenodd" d="M28.2153 1.60974C28.2179 1.66897 28.1939 1.70775 28.1435 1.7261C28.1409 1.66688 28.1648 1.62809 28.2153 1.60974Z" fill="#D0B2D5"/>
<path fill-rule="evenodd" clip-rule="evenodd" d="M26.852 2.30792C26.852 2.2562 26.8281 2.23034 26.7803 2.23034C26.821 2.16875 26.8688 2.15582 26.9238 2.19155C26.9079 2.2396 26.884 2.27839 26.852 2.30792Z" fill="#DFC9E2"/>
<path fill-rule="evenodd" clip-rule="evenodd" d="M27.9643 2.11389C27.9669 2.17312 27.943 2.2119 27.8925 2.23026C27.8899 2.17103 27.9138 2.13224 27.9643 2.11389Z" fill="#CFB1D5"/>
<path fill-rule="evenodd" clip-rule="evenodd" d="M26.7805 2.23035C26.8283 2.23035 26.8522 2.25621 26.8522 2.30792C26.0448 3.97658 25.2197 5.63154 24.3769 7.27277C24.3653 5.94324 24.3294 4.62445 24.2693 3.31641C25.0955 2.93228 25.9326 2.57026 26.7805 2.23035Z" fill="#84469B"/>
<path fill-rule="evenodd" clip-rule="evenodd" d="M27.8925 2.23035C27.8807 4.27594 27.8927 6.31878 27.9284 8.35883C27.298 9.73506 26.6403 11.0926 25.9553 12.4316C25.9255 10.3915 25.9076 8.34863 25.9015 6.30307C25.8877 6.32464 25.8698 6.33756 25.8477 6.34186C25.8534 6.27775 25.8773 6.22604 25.9194 6.18671C25.9698 6.16836 25.9938 6.12958 25.9912 6.07035C26.0327 5.92873 26.0925 5.79941 26.1705 5.68247C26.221 5.66412 26.2449 5.62533 26.2423 5.5661C26.2839 5.42449 26.3437 5.29517 26.4216 5.17823C26.4721 5.15988 26.496 5.12109 26.4934 5.06186C26.8579 4.2735 27.2406 3.49773 27.6414 2.73459C27.6918 2.71624 27.7157 2.67745 27.7131 2.61823C27.7547 2.4766 27.8145 2.34731 27.8925 2.23035Z" fill="#884098"/>
<path fill-rule="evenodd" clip-rule="evenodd" d="M27.7131 2.61816C27.7157 2.67739 27.6917 2.71618 27.6413 2.73453C27.6387 2.6753 27.6626 2.63651 27.7131 2.61816Z" fill="#CFB1D5"/>
<path fill-rule="evenodd" clip-rule="evenodd" d="M24.2693 3.31641C24.3294 4.62445 24.3653 5.94324 24.3769 7.27277C23.9976 8.10617 23.591 8.92071 23.1572 9.71641C23.1215 7.76685 23.1095 5.81454 23.1213 3.85944C23.0854 3.85944 23.0495 3.85944 23.0137 3.85944C23.4185 3.64873 23.837 3.46772 24.2693 3.31641Z" fill="#894098"/>
<path fill-rule="evenodd" clip-rule="evenodd" d="M23.0136 3.85938C23.0494 3.85938 23.0853 3.85938 23.1212 3.85938C23.1094 5.81448 23.1214 7.76679 23.157 9.71634C22.9838 10.1168 22.7925 10.5047 22.5831 10.88C22.5472 8.77907 22.5353 6.67161 22.5472 4.55756C22.5472 4.53169 22.5472 4.50585 22.5472 4.47998C22.5648 4.39003 22.6007 4.31246 22.6548 4.24725C22.7052 4.22891 22.7292 4.19012 22.7266 4.13089C22.755 3.95793 22.8507 3.86743 23.0136 3.85938Z" fill="#8E3E98"/>
<path fill-rule="evenodd" clip-rule="evenodd" d="M22.7265 4.13086C22.7291 4.19009 22.7052 4.22888 22.6547 4.24722C22.6521 4.18799 22.676 4.14921 22.7265 4.13086Z" fill="#D0B2D5"/>
<path fill-rule="evenodd" clip-rule="evenodd" d="M22.5473 4.47998C22.5473 4.50585 22.5473 4.53168 22.5473 4.55756C22.5234 4.57047 22.4995 4.58343 22.4755 4.59634C22.4729 4.53712 22.4968 4.49833 22.5473 4.47998Z" fill="#DCC0DD"/>
<path fill-rule="evenodd" clip-rule="evenodd" d="M22.5472 4.55762C22.5353 6.67167 22.5472 8.77913 22.5831 10.88C22.2664 11.565 21.9315 12.2373 21.5786 12.897C21.5548 10.7599 21.5309 8.62654 21.5068 6.49701C21.5696 6.34826 21.6414 6.20606 21.7221 6.07034C21.7725 6.052 21.7965 6.01321 21.7938 5.95398C22.0069 5.49147 22.2341 5.03894 22.4754 4.59641C22.4994 4.58349 22.5233 4.57053 22.5472 4.55762Z" fill="#943E97"/>
<path fill-rule="evenodd" clip-rule="evenodd" d="M26.4933 5.06177C26.4959 5.121 26.472 5.15978 26.4216 5.17813C26.419 5.1189 26.4429 5.08011 26.4933 5.06177Z" fill="#D0B2D5"/>
<path fill-rule="evenodd" clip-rule="evenodd" d="M26.2424 5.56604C26.245 5.62527 26.221 5.66406 26.1706 5.6824C26.168 5.62317 26.1919 5.58439 26.2424 5.56604Z" fill="#D0B2D5"/>
<path fill-rule="evenodd" clip-rule="evenodd" d="M21.7939 5.95398C21.7965 6.01321 21.7726 6.052 21.7221 6.07034C21.7195 6.01111 21.7434 5.97233 21.7939 5.95398Z" fill="#DCC0DD"/>
<path fill-rule="evenodd" clip-rule="evenodd" d="M25.9911 6.07031C25.9938 6.12954 25.9698 6.16833 25.9194 6.18668C25.9168 6.12745 25.9407 6.08866 25.9911 6.07031Z" fill="#CFB1D5"/>
<path fill-rule="evenodd" clip-rule="evenodd" d="M25.9552 12.4315C25.6625 13.0904 25.3515 13.7369 25.0225 14.3709C25.0225 12.2763 25.0225 10.1818 25.0225 8.08722C25.0225 8.06135 25.0225 8.03552 25.0225 8.00965C25.064 7.86803 25.1238 7.73871 25.2018 7.62177C25.2523 7.60342 25.2762 7.56463 25.2736 7.5054C25.4468 7.10492 25.6381 6.71704 25.8476 6.34177C25.8697 6.33746 25.8876 6.32454 25.9014 6.30298C25.9075 8.34853 25.9255 10.3914 25.9552 12.4315Z" fill="#8E3F98"/>
<path fill-rule="evenodd" clip-rule="evenodd" d="M21.5068 6.49695C21.5309 8.62648 21.5548 10.7598 21.5786 12.8969C21.3666 13.3942 21.1275 13.8726 20.8611 14.3321C20.873 12.1663 20.861 10.0072 20.8252 7.85452C20.8548 7.73874 20.9026 7.63533 20.9687 7.54422C21.0191 7.52587 21.0431 7.48709 21.0404 7.42786C21.1778 7.10487 21.3332 6.79457 21.5068 6.49695Z" fill="#9A3D97"/>
<path fill-rule="evenodd" clip-rule="evenodd" d="M21.0404 7.42786C21.0431 7.48709 21.0191 7.52587 20.9687 7.54422C20.9661 7.48499 20.99 7.4462 21.0404 7.42786Z" fill="#DCC0DD"/>
<path fill-rule="evenodd" clip-rule="evenodd" d="M25.2736 7.50549C25.2762 7.56472 25.2523 7.60351 25.2019 7.62186C25.1992 7.56263 25.2232 7.52384 25.2736 7.50549Z" fill="#DCC0DD"/>
<path fill-rule="evenodd" clip-rule="evenodd" d="M20.8251 7.85449C20.861 10.0071 20.8729 12.1663 20.861 14.3321C20.6251 14.881 20.3621 15.4111 20.0717 15.9224C20.0478 13.8149 20.0239 11.7074 20 9.59995C20.2477 8.99967 20.5227 8.41785 20.8251 7.85449Z" fill="#A03C96"/>
<path fill-rule="evenodd" clip-rule="evenodd" d="M25.0226 8.00964C25.0226 8.03552 25.0226 8.06135 25.0226 8.08722C24.9987 8.10014 24.9748 8.11309 24.9509 8.12601C24.9483 8.06678 24.9722 8.02799 25.0226 8.00964Z" fill="#DABFDC"/>
<path fill-rule="evenodd" clip-rule="evenodd" d="M25.0226 8.08728C25.0226 10.1818 25.0226 12.2764 25.0226 14.3709C24.5265 15.4437 24.0123 16.5039 23.48 17.5515C23.4562 15.4403 23.4323 13.3328 23.4082 11.2291C23.9043 10.1821 24.4185 9.14778 24.9508 8.12607C24.9747 8.11315 24.9986 8.1002 25.0226 8.08728Z" fill="#943E97"/>
<path fill-rule="evenodd" clip-rule="evenodd" d="M20.0002 9.59998C20.0241 11.7074 20.048 13.8149 20.0719 15.9224C19.8241 16.4972 19.5491 17.0531 19.2468 17.5903C19.223 15.5049 19.1991 13.4233 19.175 11.3454C19.4227 10.7451 19.6978 10.1633 20.0002 9.59998Z" fill="#A63B96"/>
<path fill-rule="evenodd" clip-rule="evenodd" d="M23.4083 11.2291C23.4323 13.3328 23.4562 15.4403 23.48 17.5516C23.1155 18.3399 22.7328 19.1157 22.332 19.8788C22.3439 17.7389 22.332 15.6056 22.2961 13.4788C22.5052 13.0008 22.7324 12.5353 22.9778 12.0825C23.0282 12.0641 23.0521 12.0253 23.0495 11.9661C23.0911 11.8245 23.1509 11.6952 23.2289 11.5782C23.2793 11.5599 23.3032 11.5211 23.3006 11.4619C23.3183 11.3719 23.3542 11.2943 23.4083 11.2291Z" fill="#9A3D97"/>
<path fill-rule="evenodd" clip-rule="evenodd" d="M19.1749 11.3455C19.199 13.4233 19.2229 15.5049 19.2466 17.5903C18.9299 18.2753 18.5951 18.9476 18.2422 19.6073C18.2184 17.5607 18.1945 15.5178 18.1704 13.4788C18.4779 12.7492 18.8127 12.0381 19.1749 11.3455Z" fill="#AC3A95"/>
<path fill-rule="evenodd" clip-rule="evenodd" d="M23.3005 11.4618C23.3031 11.521 23.2791 11.5598 23.2287 11.5782C23.2261 11.5189 23.25 11.4801 23.3005 11.4618Z" fill="#DCC0DD"/>
<path fill-rule="evenodd" clip-rule="evenodd" d="M23.0495 11.9661C23.0521 12.0253 23.0282 12.0641 22.9777 12.0824C22.9751 12.0232 22.999 11.9844 23.0495 11.9661Z" fill="#DCC0DD"/>
<path fill-rule="evenodd" clip-rule="evenodd" d="M13.9731 12.9358C13.9014 12.9358 13.8296 12.9358 13.7579 12.9358C13.5307 12.9358 13.3035 12.9358 13.0763 12.9358C12.3578 12.9104 11.6522 12.9363 10.9597 13.0134C10.9272 12.9859 10.9153 12.9471 10.9238 12.897C11.9464 12.8842 12.9628 12.8971 13.9731 12.9358Z" fill="#EED0E6"/>
<path fill-rule="evenodd" clip-rule="evenodd" d="M6.65479 12.9358C7.12115 12.9358 7.58752 12.9358 8.05389 12.9358C8.06576 13.8475 8.05382 14.7526 8.01801 15.6509C7.69407 15.0277 7.3712 14.4071 7.0494 13.7891C6.91843 13.5059 6.78687 13.2214 6.65479 12.9358Z" fill="#DE2D8F"/>
<path fill-rule="evenodd" clip-rule="evenodd" d="M6.6189 12.9358C7.71296 12.8906 8.81312 12.8841 9.91935 12.9164C9.9789 12.9741 10.0148 13.0452 10.027 13.1297C10.0389 15.2825 10.0269 17.4288 9.99109 19.5685C9.94327 19.5168 9.89542 19.465 9.8476 19.4133C9.8585 19.3881 9.87045 19.3623 9.88347 19.3358C9.6792 18.9454 9.4759 18.5576 9.27361 18.1721C9.14424 17.8777 9.00074 17.5932 8.84311 17.3188C8.77739 17.1506 8.69369 16.9955 8.59199 16.8533C8.56806 16.8016 8.54417 16.7499 8.52024 16.6982C8.52795 16.6331 8.50403 16.5943 8.44849 16.5818C8.40067 16.4784 8.35282 16.375 8.305 16.2715C8.31271 16.2064 8.28878 16.1676 8.23325 16.1552C8.19737 16.0776 8.1615 16 8.12562 15.9224C8.13179 15.884 8.11981 15.8581 8.08975 15.8449C8.07565 15.7757 8.05176 15.711 8.018 15.6509C8.0538 14.7526 8.06575 13.8475 8.05387 12.9358C7.58751 12.9358 7.12114 12.9358 6.65477 12.9358C6.64282 12.9358 6.63084 12.9358 6.6189 12.9358Z" fill="#D73391"/>
<path fill-rule="evenodd" clip-rule="evenodd" d="M13.0763 12.9357C13.088 14.4125 13.0761 15.8864 13.0404 17.3575C12.5651 16.3942 12.0987 15.4245 11.6413 14.4484C11.649 14.3833 11.6251 14.3445 11.5696 14.3321C11.3652 13.8918 11.1619 13.4522 10.9597 13.0133C11.6523 12.9362 12.3578 12.9103 13.0763 12.9357Z" fill="#D93592"/>
<path fill-rule="evenodd" clip-rule="evenodd" d="M13.0764 12.9358C13.3036 12.9358 13.5308 12.9358 13.758 12.9358C13.7699 14.8817 13.758 16.8211 13.7221 18.754C13.6594 18.709 13.6235 18.6444 13.6145 18.56C13.6222 18.4949 13.5983 18.4561 13.5428 18.4437C13.3988 18.1323 13.2553 17.822 13.1123 17.5128C13.12 17.4476 13.0961 17.4088 13.0405 17.3964C13.0405 17.3835 13.0405 17.3705 13.0405 17.3576C13.0762 15.8865 13.0881 14.4126 13.0764 12.9358Z" fill="#D13291"/>
<path fill-rule="evenodd" clip-rule="evenodd" d="M13.758 12.9358C13.8298 12.9358 13.9015 12.9358 13.9733 12.9358C14.2903 13.5178 14.5893 14.1126 14.8701 14.72C14.8821 16.847 14.8701 18.9674 14.8343 21.0812C14.7364 20.9231 14.6527 20.755 14.5832 20.577C14.5909 20.5119 14.5669 20.4731 14.5114 20.4606C14.3674 20.1493 14.2239 19.839 14.0809 19.5297C14.0886 19.4646 14.0647 19.4258 14.0092 19.4134C13.9038 19.1984 13.8081 18.9786 13.7222 18.754C13.758 16.8211 13.77 14.8817 13.758 12.9358Z" fill="#CB3492"/>
<path fill-rule="evenodd" clip-rule="evenodd" d="M6.61885 12.9358C6.63079 12.9358 6.64278 12.9358 6.65472 12.9358C6.78681 13.2214 6.91836 13.5059 7.04934 13.7891C7.02541 14.3902 7.01347 14.9979 7.01347 15.6122C7.0135 16.2333 7.03739 16.841 7.08521 17.4352C6.85881 17.8089 6.61967 18.1709 6.36773 18.5212C6.33189 16.8212 6.31994 15.1145 6.33185 13.4012C6.37131 13.3584 6.39524 13.3067 6.4036 13.2461C6.41214 13.1722 6.44801 13.1205 6.51122 13.0909C6.56166 13.0726 6.58559 13.0338 6.58297 12.9746C6.58297 12.9487 6.59492 12.9358 6.61885 12.9358Z" fill="#4E307A"/>
<path fill-rule="evenodd" clip-rule="evenodd" d="M6.58317 12.9745C6.58579 13.0337 6.56186 13.0725 6.51142 13.0909C6.50881 13.0316 6.53273 12.9928 6.58317 12.9745Z" fill="#B79DC5"/>
<path fill-rule="evenodd" clip-rule="evenodd" d="M10.0271 13.1296C10.416 13.8929 10.7867 14.6687 11.1392 15.4569C11.1629 17.5648 11.139 19.6593 11.0674 21.7405C10.7561 21.1189 10.4452 20.4983 10.1347 19.8787C10.1424 19.8136 10.1185 19.7748 10.063 19.7624C10.0292 19.7022 10.0053 19.6376 9.99121 19.5684C10.027 17.4287 10.039 15.2825 10.0271 13.1296Z" fill="#D13492"/>
<path fill-rule="evenodd" clip-rule="evenodd" d="M6.40377 13.2461C6.39541 13.3067 6.37148 13.3584 6.33202 13.4012C6.32007 13.4012 6.30809 13.4012 6.29614 13.4012C6.30468 13.3274 6.34056 13.2757 6.40377 13.2461Z" fill="#B196C1"/>
<path fill-rule="evenodd" clip-rule="evenodd" d="M6.29602 13.4012C6.30797 13.4012 6.31995 13.4012 6.3319 13.4012C6.31999 15.1145 6.33193 16.8212 6.36777 18.5212C6.22696 18.8131 6.05954 19.0846 5.86553 19.3358C5.82969 17.5969 5.81774 15.8515 5.82965 14.0994C5.87579 13.9979 5.93559 13.9074 6.00903 13.8279C6.07224 13.7984 6.10811 13.7466 6.11665 13.6728C6.12519 13.5989 6.16106 13.5472 6.22427 13.5176C6.27471 13.4993 6.29864 13.4605 6.29602 13.4012Z" fill="#5D3583"/>
<path fill-rule="evenodd" clip-rule="evenodd" d="M6.29606 13.4012C6.29868 13.4605 6.27475 13.4993 6.22431 13.5176C6.2217 13.4584 6.24562 13.4196 6.29606 13.4012Z" fill="#B69AC3"/>
<path fill-rule="evenodd" clip-rule="evenodd" d="M18.1705 13.4788C18.1945 15.5178 18.2185 17.5606 18.2422 19.6072C17.8777 20.3956 17.495 21.1714 17.0942 21.9345C17.1061 19.8851 17.0942 17.8423 17.0583 15.806C17.4109 15.0178 17.7816 14.2421 18.1705 13.4788Z" fill="#B33995"/>
<path fill-rule="evenodd" clip-rule="evenodd" d="M22.296 13.4788C22.3318 15.6055 22.3438 17.7389 22.3318 19.8788C21.9314 20.7447 21.5129 21.598 21.0762 22.4388C21.0465 20.3211 21.0286 18.2007 21.0224 16.0775C21.0087 16.0991 20.9907 16.112 20.9686 16.1163C20.9624 16.0779 20.9744 16.052 21.0045 16.0388C21.0549 16.0204 21.0789 15.9816 21.0762 15.9224C21.4556 15.089 21.8621 14.2745 22.296 13.4788Z" fill="#A03C96"/>
<path fill-rule="evenodd" clip-rule="evenodd" d="M6.11666 13.6727C6.10812 13.7466 6.07224 13.7983 6.00903 13.8279C6.01757 13.754 6.05345 13.7023 6.11666 13.6727Z" fill="#B094C0"/>
<path fill-rule="evenodd" clip-rule="evenodd" d="M7.04955 13.7891C7.37134 14.4071 7.69421 15.0277 8.01816 15.6509C8.05191 15.711 8.07581 15.7756 8.08991 15.8448C8.06598 15.8448 8.05403 15.8577 8.05403 15.8836C7.73116 16.4008 7.40829 16.918 7.08542 17.4351C7.0376 16.8409 7.01371 16.2333 7.01367 15.6121C7.01367 14.9978 7.02562 14.3901 7.04955 13.7891Z" fill="#3D2C6F"/>
<path fill-rule="evenodd" clip-rule="evenodd" d="M5.82969 14.0994C5.81778 15.8514 5.82973 17.5969 5.86556 19.3357C5.68573 19.6216 5.50635 19.9061 5.32745 20.1891C5.25588 18.457 5.23195 16.7116 5.2557 14.9527C5.30614 14.9344 5.33007 14.8956 5.32745 14.8363C5.33599 14.7625 5.37186 14.7107 5.43507 14.6812C5.48551 14.6628 5.50944 14.624 5.50682 14.5648C5.50682 14.5389 5.51877 14.526 5.54269 14.526C5.59313 14.5077 5.61706 14.4689 5.61444 14.4097C5.66915 14.2909 5.7409 14.1874 5.82969 14.0994Z" fill="#6A3A8B"/>
<path fill-rule="evenodd" clip-rule="evenodd" d="M11.5696 14.3322C11.6251 14.3446 11.649 14.3834 11.6413 14.4485C11.609 14.4179 11.5851 14.3791 11.5696 14.3322Z" fill="#E9A2C9"/>
<path fill-rule="evenodd" clip-rule="evenodd" d="M5.61442 14.4097C5.61704 14.4689 5.59311 14.5077 5.54267 14.526C5.54006 14.4668 5.56398 14.428 5.61442 14.4097Z" fill="#BF9DC9"/>
<path fill-rule="evenodd" clip-rule="evenodd" d="M5.50676 14.5648C5.50938 14.624 5.48545 14.6628 5.43501 14.6812C5.43239 14.622 5.45632 14.5832 5.50676 14.5648Z" fill="#C6AAD0"/>
<path fill-rule="evenodd" clip-rule="evenodd" d="M14.8701 14.72C15.1269 15.1716 15.3661 15.637 15.5876 16.1163C15.5995 18.2821 15.5876 20.4413 15.5517 22.5939C15.3872 22.2771 15.2318 21.9538 15.0853 21.6242C15.0931 21.5591 15.0691 21.5203 15.0136 21.5078C14.9441 21.3704 14.8843 21.2282 14.8342 21.0812C14.8701 18.9674 14.882 16.8469 14.8701 14.72Z" fill="#C53593"/>
<path fill-rule="evenodd" clip-rule="evenodd" d="M5.32756 14.8363C5.33018 14.8955 5.30625 14.9343 5.25581 14.9527C5.25319 14.8934 5.27712 14.8547 5.32756 14.8363Z" fill="#BF9BC8"/>
<path fill-rule="evenodd" clip-rule="evenodd" d="M5.25582 14.9528C5.23207 16.7116 5.256 18.4571 5.32757 20.1891C5.17295 20.4593 5.00552 20.7179 4.82532 20.9649C4.81374 19.1531 4.82568 17.343 4.8612 15.5346C4.91164 15.5162 4.93557 15.4774 4.93295 15.4182C4.98766 15.2994 5.0594 15.196 5.14819 15.1079C5.19863 15.0896 5.22256 15.0508 5.21994 14.9915C5.21994 14.9657 5.23189 14.9528 5.25582 14.9528Z" fill="#793F95"/>
<path fill-rule="evenodd" clip-rule="evenodd" d="M5.21989 14.9915C5.22251 15.0507 5.19858 15.0895 5.14814 15.1078C5.14552 15.0486 5.16945 15.0098 5.21989 14.9915Z" fill="#C6AAD0"/>
<path fill-rule="evenodd" clip-rule="evenodd" d="M4.93278 15.4182C4.9354 15.4774 4.91147 15.5162 4.86103 15.5346C4.85841 15.4753 4.88234 15.4366 4.93278 15.4182Z" fill="#C1A3CC"/>
<path fill-rule="evenodd" clip-rule="evenodd" d="M11.1391 15.4569C11.7428 16.6587 12.3287 17.8741 12.897 19.103C12.9089 21.1524 12.8969 23.1952 12.8611 25.2315C12.8372 25.2315 12.8252 25.2185 12.8252 25.1927C12.8329 25.1275 12.809 25.0888 12.7535 25.0763C12.4932 24.5782 12.2421 24.074 12.0001 23.5636C12.0078 23.4985 11.9839 23.4597 11.9284 23.4472C11.749 23.0852 11.5696 22.7232 11.3903 22.3612C11.398 22.296 11.374 22.2572 11.3185 22.2448C11.2439 22.0705 11.1602 21.9024 11.0674 21.7405C11.139 19.6593 11.1629 17.5648 11.1391 15.4569Z" fill="#CB3492"/>
<path fill-rule="evenodd" clip-rule="evenodd" d="M4.8612 15.5345C4.82568 17.343 4.81374 19.1531 4.82533 20.9648C4.76201 21.0893 4.69026 21.2057 4.61008 21.3139C4.56226 20.4481 4.53833 19.5689 4.53833 18.6764C4.53869 17.7697 4.55064 16.8647 4.5742 15.9612C4.64237 15.7971 4.73804 15.6548 4.8612 15.5345Z" fill="#814199"/>
<path fill-rule="evenodd" clip-rule="evenodd" d="M8.05396 15.8836C8.05396 15.8578 8.0659 15.8448 8.08983 15.8448C8.11989 15.8581 8.13187 15.8839 8.1257 15.9224C8.10178 15.9095 8.07788 15.8966 8.05396 15.8836Z" fill="#F0D1E6"/>
<path fill-rule="evenodd" clip-rule="evenodd" d="M17.0583 15.806C17.0941 17.8423 17.1061 19.8851 17.0942 21.9345C16.864 22.4194 16.6248 22.8978 16.3767 23.3697C16.3529 21.3877 16.329 19.4095 16.3049 17.4351C16.5378 16.8798 16.7889 16.3367 17.0583 15.806Z" fill="#BA3894"/>
<path fill-rule="evenodd" clip-rule="evenodd" d="M21.0763 15.9224C21.079 15.9816 21.055 16.0204 21.0046 16.0387C21.002 15.9795 21.0259 15.9407 21.0763 15.9224Z" fill="#DCC0DD"/>
<path fill-rule="evenodd" clip-rule="evenodd" d="M4.57402 15.9612C4.55045 16.8646 4.5385 17.7697 4.53815 18.6763C4.53815 19.5688 4.56207 20.448 4.60989 21.3139C4.45528 21.5841 4.28785 21.8427 4.10765 22.0897C4.11956 20.2859 4.10762 18.4888 4.07178 16.6982C4.08032 16.6243 4.11619 16.5726 4.1794 16.543C4.22984 16.5247 4.25377 16.4859 4.25115 16.4266C4.3323 16.2486 4.43992 16.0934 4.57402 15.9612Z" fill="#884098"/>
<path fill-rule="evenodd" clip-rule="evenodd" d="M21.0764 22.4387C20.6429 23.3373 20.2005 24.2294 19.749 25.1151C19.7609 22.9493 19.749 20.7902 19.7131 18.6375C20.1227 17.7906 20.5412 16.9502 20.9687 16.1163C20.9909 16.112 21.0088 16.0991 21.0226 16.0775C21.0287 18.2006 21.0466 20.3211 21.0764 22.4387Z" fill="#A63B96"/>
<path fill-rule="evenodd" clip-rule="evenodd" d="M8.2334 16.1552C8.28893 16.1676 8.31286 16.2064 8.30515 16.2715C8.27282 16.2409 8.2489 16.2021 8.2334 16.1552Z" fill="#E9A3CA"/>
<path fill-rule="evenodd" clip-rule="evenodd" d="M15.5876 16.1163C15.8114 16.5354 16.0267 16.9621 16.2334 17.3963C16.2409 17.471 16.2648 17.4839 16.3051 17.4351C16.3292 19.4095 16.3531 21.3877 16.3769 23.3697C16.3228 23.5382 16.2451 23.6934 16.1437 23.8351C16.0945 23.7804 16.0646 23.7158 16.054 23.6412C16.0617 23.5761 16.0378 23.5373 15.9823 23.5248C15.8383 23.2135 15.6948 22.9032 15.5518 22.5939C15.5876 20.4413 15.5995 18.2821 15.5876 16.1163Z" fill="#C03693"/>
<path fill-rule="evenodd" clip-rule="evenodd" d="M4.25114 16.4266C4.25376 16.4859 4.22983 16.5247 4.17939 16.543C4.17677 16.4838 4.2007 16.445 4.25114 16.4266Z" fill="#C6AAD0"/>
<path fill-rule="evenodd" clip-rule="evenodd" d="M8.44849 16.5818C8.50402 16.5942 8.52795 16.633 8.52024 16.6982C8.48791 16.6675 8.46398 16.6287 8.44849 16.5818Z" fill="#EBACD1"/>
<path fill-rule="evenodd" clip-rule="evenodd" d="M4.07196 16.6981C4.1078 18.4887 4.11975 20.2859 4.10784 22.0896C4.0617 22.1911 4.0019 22.2816 3.92847 22.3612C3.92847 20.564 3.92847 18.7668 3.92847 16.9696C3.95035 16.9351 3.9623 16.8963 3.96434 16.8533C4.02755 16.8237 4.06343 16.772 4.07196 16.6981Z" fill="#8D3D97"/>
<path fill-rule="evenodd" clip-rule="evenodd" d="M4.07198 16.6981C4.06344 16.772 4.02757 16.8237 3.96436 16.8533C3.97289 16.7794 4.00877 16.7277 4.07198 16.6981Z" fill="#C89FCC"/>
<path fill-rule="evenodd" clip-rule="evenodd" d="M8.59206 16.8533C8.69377 16.9954 8.77746 17.1505 8.84318 17.3187C8.81925 17.9198 8.80731 18.5275 8.80731 19.1418C8.80734 19.7629 8.83124 20.3706 8.87906 20.9648C8.77983 21.1411 8.67221 21.3091 8.55619 21.469C8.48465 20.0215 8.46073 18.5605 8.48444 17.086C8.48444 17.0601 8.48444 17.0343 8.48444 17.0084C8.50331 16.9413 8.53918 16.8896 8.59206 16.8533Z" fill="#5D3583"/>
<path fill-rule="evenodd" clip-rule="evenodd" d="M3.96428 16.8533C3.96223 16.8963 3.95029 16.9351 3.9284 16.9696C3.91646 16.9696 3.90447 16.9696 3.89253 16.9696C3.88991 16.9104 3.91384 16.8716 3.96428 16.8533Z" fill="#C69EC9"/>
<path fill-rule="evenodd" clip-rule="evenodd" d="M3.89245 16.9697C3.9044 16.9697 3.91638 16.9697 3.92832 16.9697C3.92832 18.7669 3.92832 20.5641 3.92832 22.3612C3.88316 22.498 3.81141 22.6143 3.71308 22.7103C3.68111 22.734 3.64524 22.7469 3.60545 22.7491C3.61736 20.9712 3.60542 19.1999 3.56958 17.4352C3.65073 17.2571 3.75835 17.102 3.89245 16.9697Z" fill="#943D97"/>
<path fill-rule="evenodd" clip-rule="evenodd" d="M8.48454 17.0084C8.48454 17.0343 8.48454 17.0601 8.48454 17.086C8.46061 17.0989 8.43672 17.1119 8.41279 17.1248C8.41017 17.0656 8.4341 17.0268 8.48454 17.0084Z" fill="#D2B5D7"/>
<path fill-rule="evenodd" clip-rule="evenodd" d="M8.48454 17.0861C8.46083 18.5606 8.48476 20.0216 8.55629 21.4691C8.43672 21.663 8.31711 21.857 8.19754 22.0509C8.12601 20.5776 8.10208 19.0907 8.1258 17.5903C8.15593 17.499 8.20379 17.4215 8.26929 17.3576C8.31973 17.3392 8.34366 17.3004 8.34104 17.2412C8.39148 17.2229 8.41541 17.1841 8.41279 17.1248C8.43672 17.1119 8.46061 17.099 8.48454 17.0861Z" fill="#6A3A8B"/>
<path fill-rule="evenodd" clip-rule="evenodd" d="M8.41276 17.1249C8.41538 17.1841 8.39145 17.2229 8.34101 17.2412C8.3384 17.182 8.36232 17.1432 8.41276 17.1249Z" fill="#C6AAD0"/>
<path fill-rule="evenodd" clip-rule="evenodd" d="M8.34099 17.2412C8.3436 17.3004 8.31968 17.3392 8.26924 17.3576C8.26662 17.2983 8.29055 17.2596 8.34099 17.2412Z" fill="#C6A6CF"/>
<path fill-rule="evenodd" clip-rule="evenodd" d="M8.84325 17.3187C9.00088 17.5931 9.14438 17.8776 9.27374 18.1721C9.22592 18.8832 9.22592 19.5943 9.27374 20.3054C9.15729 20.5349 9.02574 20.7547 8.87912 20.9648C8.8313 20.3706 8.80741 19.7629 8.80737 19.1418C8.80737 18.5275 8.81932 17.9198 8.84325 17.3187Z" fill="#4F307B"/>
<path fill-rule="evenodd" clip-rule="evenodd" d="M13.0405 17.3964C13.0961 17.4088 13.12 17.4476 13.1123 17.5127C13.08 17.4821 13.056 17.4433 13.0405 17.3964Z" fill="#EAA3CA"/>
<path fill-rule="evenodd" clip-rule="evenodd" d="M3.56972 17.4352C3.60556 19.1999 3.61751 20.9712 3.6056 22.7491C3.52189 22.7491 3.43818 22.7491 3.35448 22.7491C3.36639 21.1005 3.35443 19.4585 3.3186 17.8231C3.35209 17.7117 3.41188 17.6212 3.49798 17.5515C3.54843 17.5332 3.57234 17.4944 3.56972 17.4352Z" fill="#993B96"/>
<path fill-rule="evenodd" clip-rule="evenodd" d="M16.2334 17.3964C16.2573 17.4093 16.2812 17.4222 16.3051 17.4352C16.2649 17.4839 16.241 17.471 16.2334 17.3964Z" fill="#EFCBE3"/>
<path fill-rule="evenodd" clip-rule="evenodd" d="M3.5695 17.4352C3.57212 17.4944 3.5482 17.5332 3.49775 17.5515C3.49513 17.4923 3.51905 17.4535 3.5695 17.4352Z" fill="#D7A5CF"/>
<path fill-rule="evenodd" clip-rule="evenodd" d="M8.12579 17.5903C8.10208 19.0907 8.12601 20.5776 8.19754 22.0509C8.04167 22.2851 7.88619 22.5179 7.73117 22.7491C7.73716 21.2622 7.73117 19.7753 7.71324 18.2885C7.6995 18.3101 7.68156 18.323 7.65942 18.3273C7.68956 18.236 7.73741 18.1585 7.80292 18.0946C7.85336 18.0762 7.87729 18.0374 7.87467 17.9782C7.92511 17.9599 7.94904 17.9211 7.94642 17.8618C7.99686 17.8435 8.02079 17.8047 8.01817 17.7455C8.06861 17.7271 8.09254 17.6883 8.08992 17.6291C8.08992 17.6032 8.10186 17.5903 8.12579 17.5903Z" fill="#7B4096"/>
<path fill-rule="evenodd" clip-rule="evenodd" d="M8.08976 17.629C8.09238 17.6883 8.06846 17.727 8.01802 17.7454C8.0154 17.6862 8.03933 17.6474 8.08976 17.629Z" fill="#D2B6D7"/>
<path fill-rule="evenodd" clip-rule="evenodd" d="M8.01799 17.7455C8.02061 17.8047 7.99668 17.8435 7.94624 17.8618C7.94362 17.8026 7.96755 17.7638 8.01799 17.7455Z" fill="#C6AAD0"/>
<path fill-rule="evenodd" clip-rule="evenodd" d="M3.28264 17.8618C3.28525 17.921 3.26134 17.9598 3.21089 17.9782C3.20827 17.919 3.23219 17.8802 3.28264 17.8618Z" fill="#D7A5CF"/>
<path fill-rule="evenodd" clip-rule="evenodd" d="M7.94621 17.8618C7.94883 17.921 7.9249 17.9598 7.87446 17.9782C7.87184 17.919 7.89577 17.8802 7.94621 17.8618Z" fill="#C6AAD0"/>
<path fill-rule="evenodd" clip-rule="evenodd" d="M7.87443 17.9781C7.87705 18.0374 7.85312 18.0762 7.80268 18.0945C7.80007 18.0353 7.82399 17.9965 7.87443 17.9781Z" fill="#C5A3CD"/>
<path fill-rule="evenodd" clip-rule="evenodd" d="M9.27366 18.1721C9.47595 18.5576 9.67925 18.9454 9.88352 19.3358C9.8705 19.3622 9.85856 19.3881 9.84765 19.4133C9.68273 19.7314 9.49142 20.0287 9.27366 20.3055C9.22584 19.5944 9.22584 18.8832 9.27366 18.1721Z" fill="#402F72"/>
<path fill-rule="evenodd" clip-rule="evenodd" d="M3.31861 17.823C3.35443 19.4584 3.36639 21.1005 3.35448 22.7491C3.16315 22.7491 2.97182 22.7491 2.78049 22.7491C2.78647 21.3914 2.78049 20.0338 2.76255 18.6763C2.74883 18.6979 2.73089 18.7108 2.70874 18.7151C2.84998 18.4484 3.01739 18.2028 3.21098 17.9781C3.26143 17.9598 3.28535 17.921 3.28273 17.8618C3.28273 17.8359 3.29469 17.823 3.31861 17.823Z" fill="#A33A95"/>
<path fill-rule="evenodd" clip-rule="evenodd" d="M7.73099 22.7491C7.62337 22.7491 7.51575 22.7491 7.40812 22.7491C7.41412 21.4302 7.40812 20.1114 7.39019 18.7927C7.37645 18.8143 7.35851 18.8272 7.33638 18.8315C7.33376 18.7723 7.35768 18.7335 7.40812 18.7151C7.45856 18.6968 7.48249 18.658 7.47987 18.5988C7.53031 18.5804 7.55424 18.5416 7.55162 18.4824C7.60206 18.464 7.62599 18.4253 7.62337 18.366C7.62337 18.3402 7.63532 18.3272 7.65925 18.3272C7.68138 18.3229 7.69932 18.31 7.71306 18.2885C7.73099 19.7753 7.73699 21.2621 7.73099 22.7491Z" fill="#863E97"/>
<path fill-rule="evenodd" clip-rule="evenodd" d="M7.62346 18.3661C7.62608 18.4253 7.60215 18.4641 7.55171 18.4825C7.54909 18.4232 7.57302 18.3844 7.62346 18.3661Z" fill="#D7B7D9"/>
<path fill-rule="evenodd" clip-rule="evenodd" d="M13.5427 18.4436C13.5983 18.4561 13.6222 18.4948 13.6145 18.56C13.5822 18.5293 13.5582 18.4905 13.5427 18.4436Z" fill="#EBABD1"/>
<path fill-rule="evenodd" clip-rule="evenodd" d="M7.55168 18.4824C7.5543 18.5417 7.53037 18.5804 7.47993 18.5988C7.47731 18.5396 7.50124 18.5008 7.55168 18.4824Z" fill="#C6AAD0"/>
<path fill-rule="evenodd" clip-rule="evenodd" d="M2.78038 22.7491C2.67275 22.7491 2.56513 22.7491 2.45751 22.7491C2.4694 21.5401 2.45744 20.3376 2.42163 19.1418C2.49106 18.9787 2.58673 18.8365 2.70863 18.7152C2.73078 18.7109 2.74871 18.698 2.76244 18.6764C2.78038 20.0339 2.78636 21.3915 2.78038 22.7491Z" fill="#AB3894"/>
<path fill-rule="evenodd" clip-rule="evenodd" d="M7.4799 18.5988C7.48252 18.658 7.45859 18.6968 7.40815 18.7151C7.40553 18.6559 7.42946 18.6171 7.4799 18.5988Z" fill="#C6A4CE"/>
<path fill-rule="evenodd" clip-rule="evenodd" d="M19.7132 18.6376C19.7491 20.7902 19.761 22.9494 19.7491 25.1151C19.2319 26.1689 18.7058 27.2162 18.1706 28.257C18.1826 26.1041 18.1706 23.9579 18.1348 21.8182C18.6428 20.7453 19.169 19.6851 19.7132 18.6376Z" fill="#AC3A95"/>
<path fill-rule="evenodd" clip-rule="evenodd" d="M7.40808 22.7491C7.30045 22.7491 7.19283 22.7491 7.08521 22.7491C7.08521 21.5984 7.08521 20.4477 7.08521 19.297C7.08521 19.2711 7.08521 19.2453 7.08521 19.2194C7.13564 19.201 7.15957 19.1623 7.15695 19.103C7.20739 19.0847 7.23132 19.0459 7.2287 18.9867C7.24757 18.9196 7.28345 18.8678 7.33633 18.8315C7.35846 18.8272 7.3764 18.8143 7.39014 18.7927C7.40808 20.1114 7.41407 21.4302 7.40808 22.7491Z" fill="#913C96"/>
<path fill-rule="evenodd" clip-rule="evenodd" d="M7.22893 18.9867C7.23154 19.0459 7.20762 19.0847 7.15718 19.1031C7.15456 19.0438 7.17849 19.005 7.22893 18.9867Z" fill="#D8B8D9"/>
<path fill-rule="evenodd" clip-rule="evenodd" d="M2.4216 19.1418C2.45741 20.3376 2.46937 21.5401 2.45748 22.7491C2.23028 22.7491 2.00307 22.7491 1.77586 22.7491C1.78773 21.8762 1.77577 21.0099 1.73999 20.1503C1.93972 19.7922 2.16692 19.456 2.4216 19.1418Z" fill="#B53794"/>
<path fill-rule="evenodd" clip-rule="evenodd" d="M7.15715 19.103C7.15977 19.1623 7.13584 19.201 7.0854 19.2194C7.08278 19.1602 7.10671 19.1214 7.15715 19.103Z" fill="#D2A9D1"/>
<path fill-rule="evenodd" clip-rule="evenodd" d="M12.897 19.103C13.2978 19.8922 13.6805 20.6938 14.0449 21.5079C14.0332 23.4837 13.9973 25.449 13.9373 27.4036C13.5599 26.6909 13.2011 25.9669 12.8611 25.2315C12.8969 23.1953 12.9089 21.1524 12.897 19.103Z" fill="#C53693"/>
<path fill-rule="evenodd" clip-rule="evenodd" d="M7.08537 19.2194C7.08537 19.2452 7.08537 19.2711 7.08537 19.2969C7.06144 19.3099 7.03755 19.3228 7.01362 19.3357C7.011 19.2765 7.03493 19.2377 7.08537 19.2194Z" fill="#D7A3CE"/>
<path fill-rule="evenodd" clip-rule="evenodd" d="M14.009 19.4133C14.0646 19.4258 14.0885 19.4646 14.0808 19.5297C14.0485 19.4991 14.0245 19.4603 14.009 19.4133Z" fill="#EAA3CA"/>
<path fill-rule="evenodd" clip-rule="evenodd" d="M7.08532 19.297C7.08532 20.4477 7.08532 21.5984 7.08532 22.7491C6.9777 22.7491 6.87007 22.7491 6.76245 22.7491C6.76245 21.7665 6.76245 20.7839 6.76245 19.8012C6.76245 19.7754 6.76245 19.7495 6.76245 19.7237C6.81289 19.7053 6.83682 19.6665 6.8342 19.6073C6.88123 19.5051 6.94103 19.4146 7.01357 19.3358C7.0375 19.3229 7.06139 19.3099 7.08532 19.297Z" fill="#9D3A95"/>
<path fill-rule="evenodd" clip-rule="evenodd" d="M6.83415 19.6073C6.83677 19.6665 6.81284 19.7053 6.7624 19.7237C6.75978 19.6644 6.78371 19.6256 6.83415 19.6073Z" fill="#D8B8D9"/>
<path fill-rule="evenodd" clip-rule="evenodd" d="M6.76237 19.7236C6.76237 19.7495 6.76237 19.7753 6.76237 19.8012C6.73844 19.8141 6.71455 19.8271 6.69062 19.84C6.688 19.7808 6.71193 19.742 6.76237 19.7236Z" fill="#D2A9D1"/>
<path fill-rule="evenodd" clip-rule="evenodd" d="M10.063 19.7625C10.1185 19.7749 10.1425 19.8137 10.1347 19.8788C10.1024 19.8482 10.0785 19.8094 10.063 19.7625Z" fill="#E9A2C9"/>
<path fill-rule="evenodd" clip-rule="evenodd" d="M6.69059 19.84C6.69321 19.8992 6.66929 19.938 6.61885 19.9563C6.61623 19.8971 6.64016 19.8583 6.69059 19.84Z" fill="#D7A3CE"/>
<path fill-rule="evenodd" clip-rule="evenodd" d="M6.76254 19.8011C6.76254 20.7838 6.76254 21.7664 6.76254 22.749C6.63099 22.749 6.49947 22.749 6.36792 22.749C6.36792 21.9733 6.36792 21.1975 6.36792 20.4218C6.36792 20.3959 6.36792 20.37 6.36792 20.3442C6.43407 20.201 6.51777 20.0717 6.61904 19.9563C6.66948 19.938 6.69341 19.8992 6.69079 19.8399C6.71472 19.827 6.73861 19.8141 6.76254 19.8011Z" fill="#A93995"/>
<path fill-rule="evenodd" clip-rule="evenodd" d="M1.74005 20.1503C1.77583 21.0098 1.78779 21.8761 1.77592 22.7491C1.62047 22.7491 1.46501 22.7491 1.30956 22.7491C1.32139 22.1087 1.30943 21.4752 1.27368 20.8485C1.40161 20.5938 1.55706 20.3611 1.74005 20.1503Z" fill="#C13793"/>
<path fill-rule="evenodd" clip-rule="evenodd" d="M6.36784 20.3442C6.36784 20.3701 6.36784 20.3959 6.36784 20.4218C6.34391 20.4347 6.32002 20.4477 6.29609 20.4606C6.29347 20.4014 6.3174 20.3626 6.36784 20.3442Z" fill="#DFB8D9"/>
<path fill-rule="evenodd" clip-rule="evenodd" d="M6.36776 20.4218C6.36776 21.1975 6.36776 21.9733 6.36776 22.749C6.23621 22.749 6.1047 22.749 5.97314 22.749C5.97314 22.1801 5.97314 21.6113 5.97314 21.0424C5.97314 21.0165 5.97314 20.9907 5.97314 20.9648C6.0393 20.8216 6.12299 20.6923 6.22427 20.5769C6.27471 20.5586 6.29863 20.5198 6.29601 20.4605C6.31994 20.4476 6.34384 20.4347 6.36776 20.4218Z" fill="#B53794"/>
<path fill-rule="evenodd" clip-rule="evenodd" d="M14.5112 20.4606C14.5668 20.473 14.5907 20.5118 14.583 20.5769C14.5507 20.5463 14.5267 20.5075 14.5112 20.4606Z" fill="#EAA3CA"/>
<path fill-rule="evenodd" clip-rule="evenodd" d="M6.29606 20.4606C6.29868 20.5198 6.27475 20.5586 6.22431 20.5769C6.2217 20.5177 6.24562 20.4789 6.29606 20.4606Z" fill="#D7A5CF"/>
<path fill-rule="evenodd" clip-rule="evenodd" d="M1.27366 20.8485C1.3094 21.4752 1.32136 22.1088 1.30953 22.7491C1.09428 22.7491 0.879037 22.7491 0.66379 22.7491C0.669759 22.4385 0.663779 22.1282 0.645853 21.8182C0.632127 21.8398 0.61419 21.8527 0.592041 21.857C0.791768 21.4989 1.01898 21.1627 1.27366 20.8485Z" fill="#CD3793"/>
<path fill-rule="evenodd" clip-rule="evenodd" d="M5.97331 20.9648C5.97331 20.9907 5.97331 21.0165 5.97331 21.0424C5.94938 21.0553 5.92549 21.0683 5.90156 21.0812C5.89894 21.022 5.92287 20.9832 5.97331 20.9648Z" fill="#E6ACD2"/>
<path fill-rule="evenodd" clip-rule="evenodd" d="M5.97325 21.0424C5.97325 21.6113 5.97325 22.1801 5.97325 22.749C5.86562 22.749 5.758 22.749 5.65038 22.749C5.66214 22.3412 5.65016 21.9404 5.6145 21.5466C5.65967 21.4099 5.73142 21.2935 5.82975 21.1975C5.88019 21.1792 5.90412 21.1404 5.9015 21.0811C5.92543 21.0682 5.94932 21.0553 5.97325 21.0424Z" fill="#C13593"/>
<path fill-rule="evenodd" clip-rule="evenodd" d="M5.90153 21.0812C5.90415 21.1404 5.88022 21.1792 5.82978 21.1975C5.82716 21.1383 5.85109 21.0995 5.90153 21.0812Z" fill="#EAA7CF"/>
<path fill-rule="evenodd" clip-rule="evenodd" d="M15.0137 21.5078C15.0692 21.5203 15.0931 21.5591 15.0854 21.6242C15.0531 21.5935 15.0292 21.5547 15.0137 21.5078Z" fill="#EBABD1"/>
<path fill-rule="evenodd" clip-rule="evenodd" d="M14.0449 21.5078C14.4696 22.3487 14.8762 23.202 15.2646 24.0678C15.2425 24.0635 15.2245 24.0506 15.2108 24.029C15.2166 25.943 15.1868 27.8436 15.1211 29.7308C15.0817 29.688 15.0577 29.6363 15.0494 29.5757C15.0571 29.5106 15.0331 29.4718 14.9776 29.4593C14.7169 28.9602 14.4658 28.456 14.2243 27.9466C14.232 27.8815 14.208 27.8427 14.1525 27.8302C14.0808 27.688 14.009 27.5458 13.9373 27.4036C13.9973 25.4489 14.0331 23.4836 14.0449 21.5078Z" fill="#C03793"/>
<path fill-rule="evenodd" clip-rule="evenodd" d="M5.57853 21.5854C5.58115 21.6447 5.55723 21.6835 5.50679 21.7018C5.50417 21.6426 5.52809 21.6038 5.57853 21.5854Z" fill="#EABADA"/>
<path fill-rule="evenodd" clip-rule="evenodd" d="M5.50676 21.7018C5.50938 21.761 5.48545 21.7998 5.43501 21.8181C5.43239 21.7589 5.45632 21.7201 5.50676 21.7018Z" fill="#EAA7CF"/>
<path fill-rule="evenodd" clip-rule="evenodd" d="M0.663806 22.749C0.44823 22.7555 0.232982 22.749 0.0180664 22.7296C0.06552 22.698 0.0894364 22.6527 0.0898153 22.5939C0.140266 22.5755 0.164182 22.5367 0.161564 22.4775C0.161564 22.4516 0.173522 22.4387 0.197439 22.4387C0.24789 22.4204 0.271806 22.3816 0.269187 22.3224C0.350339 22.1443 0.457962 21.9892 0.592057 21.8569C0.614206 21.8526 0.632144 21.8397 0.645869 21.8181C0.663796 22.1281 0.669776 22.4384 0.663806 22.749Z" fill="#D93993"/>
<path fill-rule="evenodd" clip-rule="evenodd" d="M18.1345 21.8181C18.1704 23.9578 18.1823 26.1041 18.1704 28.2569C17.5815 29.44 16.9836 30.6166 16.3767 31.7866C16.3827 29.6661 16.3767 27.5458 16.3587 25.4254C16.345 25.447 16.3271 25.4599 16.3049 25.4642C16.4542 25.1154 16.6216 24.7792 16.8072 24.4557C16.8576 24.4373 16.8815 24.3986 16.8789 24.3393C17.2702 23.4801 17.6888 22.6397 18.1345 21.8181Z" fill="#B33994"/>
<path fill-rule="evenodd" clip-rule="evenodd" d="M5.43498 21.8181C5.4376 21.8773 5.41367 21.9161 5.36323 21.9345C5.36061 21.8752 5.38454 21.8365 5.43498 21.8181Z" fill="#E9A5CE"/>
<path fill-rule="evenodd" clip-rule="evenodd" d="M5.61445 21.5466C5.65011 21.9404 5.66209 22.3412 5.65032 22.7491C5.38058 22.7617 5.11751 22.7487 4.86108 22.7103C4.87995 22.6432 4.91583 22.5914 4.96871 22.5551C5.01915 22.5368 5.04308 22.498 5.04046 22.4388C5.0909 22.4204 5.11482 22.3816 5.11221 22.3224C5.16264 22.304 5.18657 22.2653 5.18395 22.206C5.23099 22.1038 5.29079 22.0133 5.36333 21.9345C5.41377 21.9162 5.43769 21.8774 5.43508 21.8181C5.48551 21.7998 5.50944 21.761 5.50682 21.7018C5.55726 21.6834 5.58119 21.6446 5.57857 21.5854C5.57857 21.5595 5.59052 21.5466 5.61445 21.5466Z" fill="#D13693"/>
<path fill-rule="evenodd" clip-rule="evenodd" d="M11.3186 22.2449C11.3741 22.2573 11.3981 22.2961 11.3904 22.3612C11.358 22.3306 11.3341 22.2918 11.3186 22.2449Z" fill="#EBACD1"/>
<path fill-rule="evenodd" clip-rule="evenodd" d="M5.184 22.2061C5.18662 22.2653 5.16269 22.3041 5.11225 22.3224C5.10964 22.2632 5.13356 22.2244 5.184 22.2061Z" fill="#EABADA"/>
<path fill-rule="evenodd" clip-rule="evenodd" d="M0.269208 22.3224C0.271826 22.3816 0.24791 22.4204 0.197459 22.4388C0.194841 22.3795 0.218757 22.3407 0.269208 22.3224Z" fill="#EAA7CF"/>
<path fill-rule="evenodd" clip-rule="evenodd" d="M5.11223 22.3224C5.11484 22.3816 5.09092 22.4204 5.04048 22.4388C5.03786 22.3795 5.06179 22.3407 5.11223 22.3224Z" fill="#EAA7CF"/>
<path fill-rule="evenodd" clip-rule="evenodd" d="M5.04045 22.4387C5.04307 22.4979 5.01914 22.5367 4.9687 22.5551C4.96608 22.4959 4.99001 22.4571 5.04045 22.4387Z" fill="#E9A5CE"/>
<path fill-rule="evenodd" clip-rule="evenodd" d="M0.161542 22.4775C0.16416 22.5368 0.140244 22.5756 0.0897934 22.5939C0.0871752 22.5347 0.111091 22.4959 0.161542 22.4775Z" fill="#EBA8D0"/>
<path fill-rule="evenodd" clip-rule="evenodd" d="M0.0898011 22.5939C0.0894222 22.6527 0.0655058 22.698 0.0180522 22.7296C0.232967 22.749 0.448215 22.7555 0.663792 22.749C0.879039 22.749 1.09429 22.749 1.30953 22.749C1.46499 22.749 1.62045 22.749 1.7759 22.749C2.0031 22.749 2.23031 22.749 2.45751 22.749C2.56514 22.749 2.67276 22.749 2.78038 22.749C2.97171 22.749 3.16305 22.749 3.35438 22.749C3.43808 22.749 3.52179 22.749 3.6055 22.749C3.64528 22.7468 3.68116 22.7339 3.71312 22.7102C2.48201 22.7875 1.23836 22.8134 -0.0178223 22.7878C-0.0178223 22.749 -0.0178223 22.7102 -0.0178223 22.6714C0.0180522 22.6456 0.0539266 22.6197 0.0898011 22.5939Z" fill="#F3E2F0"/>
<path fill-rule="evenodd" clip-rule="evenodd" d="M4.86107 22.7103C5.1175 22.7488 5.38057 22.7617 5.65031 22.7491C5.75793 22.7491 5.86555 22.7491 5.97318 22.7491C6.10473 22.7491 6.23624 22.7491 6.3678 22.7491C6.49935 22.7491 6.63086 22.7491 6.76242 22.7491C6.87004 22.7491 6.97766 22.7491 7.08529 22.7491C7.19291 22.7491 7.30053 22.7491 7.40816 22.7491C7.51578 22.7491 7.6234 22.7491 7.73103 22.7491C6.7683 22.8007 5.79969 22.8007 4.8252 22.7491C4.82964 22.7256 4.84159 22.7127 4.86107 22.7103Z" fill="#F1E4F1"/>
<path fill-rule="evenodd" clip-rule="evenodd" d="M11.9285 23.4473C11.984 23.4597 12.0079 23.4985 12.0002 23.5636C11.9679 23.533 11.944 23.4942 11.9285 23.4473Z" fill="#EBACD1"/>
<path fill-rule="evenodd" clip-rule="evenodd" d="M15.9822 23.5248C16.0377 23.5372 16.0616 23.576 16.0539 23.6411C16.0216 23.6105 15.9977 23.5717 15.9822 23.5248Z" fill="#EBABD1"/>
<path fill-rule="evenodd" clip-rule="evenodd" d="M15.2646 24.0678C15.5477 24.6153 15.8228 25.1712 16.0897 25.7357C16.1136 25.7874 16.1375 25.7874 16.1615 25.7357C16.2012 25.6365 16.249 25.546 16.305 25.4642C16.3271 25.4599 16.345 25.447 16.3588 25.4254C16.3767 27.5458 16.3827 29.6662 16.3767 31.7866C16.3429 31.8467 16.319 31.9114 16.305 31.9806C16.281 31.9806 16.2571 31.9806 16.2332 31.9806C16.051 31.5737 15.8597 31.1729 15.6592 30.7781C15.6669 30.713 15.643 30.6742 15.5875 30.6618C15.4707 30.4481 15.3631 30.2283 15.2646 30.0024C15.2723 29.9373 15.2484 29.8985 15.1928 29.886C15.1689 29.8343 15.145 29.7826 15.1211 29.7309C15.1867 27.8436 15.2166 25.943 15.2108 24.0291C15.2245 24.0506 15.2425 24.0635 15.2646 24.0678Z" fill="#BA3794"/>
<path fill-rule="evenodd" clip-rule="evenodd" d="M16.8791 24.3394C16.8817 24.3986 16.8578 24.4374 16.8073 24.4557C16.8047 24.3965 16.8286 24.3577 16.8791 24.3394Z" fill="#E4C1DD"/>
<path fill-rule="evenodd" clip-rule="evenodd" d="M12.7534 25.0763C12.809 25.0887 12.8329 25.1275 12.8252 25.1927C12.7928 25.162 12.7689 25.1232 12.7534 25.0763Z" fill="#EBACD1"/>
<path fill-rule="evenodd" clip-rule="evenodd" d="M14.1526 27.8303C14.2081 27.8428 14.232 27.8816 14.2243 27.9467C14.192 27.916 14.1681 27.8773 14.1526 27.8303Z" fill="#E9A2C9"/>
<path fill-rule="evenodd" clip-rule="evenodd" d="M14.9778 29.4594C15.0333 29.4718 15.0572 29.5106 15.0495 29.5757C15.0172 29.5451 14.9933 29.5063 14.9778 29.4594Z" fill="#E9A2C9"/>
<path fill-rule="evenodd" clip-rule="evenodd" d="M15.1929 29.886C15.2484 29.8984 15.2723 29.9372 15.2646 30.0023C15.2323 29.9717 15.2084 29.9329 15.1929 29.886Z" fill="#E9A2C9"/>
<path fill-rule="evenodd" clip-rule="evenodd" d="M15.5876 30.6617C15.6432 30.6742 15.6671 30.713 15.6594 30.7781C15.6271 30.7475 15.6031 30.7087 15.5876 30.6617Z" fill="#DBA4CD"/>
</g>
</g>
<defs>
<clipPath id="clip0_17_1637">
<rect width="32" height="32" fill="white"/>
</clipPath>
</defs>
</svg>
