<svg width="32" height="32" viewBox="0 0 32 32" fill="none" xmlns="http://www.w3.org/2000/svg">
<path opacity="0.38" fill-rule="evenodd" clip-rule="evenodd" d="M0 1.34741C0.336842 1.34741 0.673684 1.34741 1.01053 1.34741C1.1008 1.88603 0.988295 2.33515 0.673684 2.69478C0.664589 2.12239 0.439916 1.67327 0 1.34741Z" fill="#2F3E5F"/>
<path opacity="0.918" fill-rule="evenodd" clip-rule="evenodd" d="M20.5474 11.7896C20.7721 12.351 20.9964 12.9124 21.2211 13.4738C19.3671 14.0936 17.9076 15.2164 16.8422 16.8422C16.1553 15.5736 15.5942 14.2262 15.158 12.8001C16.8641 12.0374 18.6604 11.7006 20.5474 11.7896Z" fill="#E77903"/>
<path opacity="0.962" fill-rule="evenodd" clip-rule="evenodd" d="M20.5474 11.7895C21.8553 11.6579 23.0905 11.8824 24.2526 12.4632C25.0445 11.8809 25.9429 11.6563 26.9474 11.7895C27.362 13.8214 28.0357 15.7302 28.9684 17.5159C27.8137 19.9385 26.5785 22.2964 25.2632 24.5895C24.2526 21.6702 23.2421 18.751 22.2316 15.8316C22.3976 15.055 22.5098 14.269 22.5684 13.4737C22.1194 13.4737 21.6701 13.4737 21.221 13.4737C20.9964 12.9123 20.772 12.351 20.5474 11.7895Z" fill="#E77F02"/>
<path opacity="0.92" fill-rule="evenodd" clip-rule="evenodd" d="M26.9473 11.7896C28.5193 11.7896 30.091 11.7896 31.6631 11.7896C30.8634 13.7265 29.9654 15.6352 28.9683 17.5159C28.0356 15.7302 27.3619 13.8214 26.9473 11.7896Z" fill="#E78502"/>
<path opacity="0.932" fill-rule="evenodd" clip-rule="evenodd" d="M15.1578 12.8C15.594 14.2261 16.1552 15.5735 16.842 16.8422C14.9193 19.7892 13.3476 22.933 12.1262 26.2737C12.4762 27.503 13.2621 27.896 14.4841 27.4527C15.1945 27.0683 15.812 26.563 16.3368 25.9369C17.1038 24.7309 17.9459 23.6081 18.8631 22.5685C19.8291 25.2423 20.7275 27.937 21.5578 30.6527C18.725 31.0189 17.3214 29.7838 17.3473 26.9474C14.3053 30.3042 10.6563 31.2586 6.39993 29.8106C4.87706 28.2533 4.3718 26.4006 4.88414 24.2527C6.58317 18.9037 10.0078 15.0861 15.1578 12.8Z" fill="#E77303"/>
<path opacity="0.954" fill-rule="evenodd" clip-rule="evenodd" d="M22.2315 15.8317C23.242 18.751 24.2525 21.6702 25.263 24.5896C25.0899 25.2182 24.8656 25.8358 24.5894 26.4422C24.7015 26.6106 24.814 26.779 24.9262 26.9475C26.3362 25.8183 27.5714 24.527 28.6315 23.0738C29.5881 22.9094 29.9808 23.3024 29.8104 24.2527C27.7762 27.3585 25.0252 29.4919 21.5578 30.6527C20.7275 27.9371 19.8291 25.2423 18.863 22.5685C19.9925 20.3098 21.1152 18.0642 22.2315 15.8317Z" fill="#E77A03"/>
</svg>
