<svg width="32" height="32" viewBox="0 0 32 32" fill="none" xmlns="http://www.w3.org/2000/svg">
<circle cx="16" cy="16" r="16" fill="#A8FCE5"/>
<path d="M22.6776 11.379L18.124 8.31642C16.7873 7.41746 15.1165 8.54083 15.1165 10.3401V10.6543C15.1165 10.9381 15.2468 11.2008 15.4575 11.342L16.3173 11.9202C16.5699 12.0905 16.8847 11.8779 16.8847 11.5387V10.7572C16.8847 10.3665 17.2472 10.1223 17.5372 10.3176L21.4814 12.971C21.7714 13.1663 21.7714 13.6548 21.4814 13.8488L17.5372 16.5021C17.2472 16.6975 16.8847 16.4533 16.8847 16.0625V15.6467C16.8847 13.8475 15.214 12.7228 13.8762 13.6231L9.32255 16.6856C7.98591 17.5846 7.98591 19.834 9.32255 20.7329L13.8762 23.7955C15.2128 24.6944 16.8847 23.5711 16.8847 21.7718V21.4577C16.8847 21.1738 16.7545 20.9124 16.5437 20.7699L15.684 20.1904C15.4314 20.0201 15.1165 20.2327 15.1165 20.5719V21.3534C15.1165 21.7441 14.7541 21.9883 14.4641 21.7929L10.5199 19.1396C10.2299 18.9442 10.2299 18.4558 10.5199 18.2604L14.4641 15.6071C14.7541 15.4118 15.1165 15.656 15.1165 16.0467V16.4625C15.1165 18.2617 16.7873 19.3865 18.124 18.4862L22.6776 15.4236C24.0142 14.5273 24.0142 12.2779 22.6776 11.379Z" fill="black"/>
</svg>
