<svg width="32" height="32" viewBox="0 0 32 32" fill="none" xmlns="http://www.w3.org/2000/svg">
<path fill-rule="evenodd" clip-rule="evenodd" d="M0.333252 1.93335C0.666585 1.93335 0.999919 1.93335 1.33325 1.93335C1.33325 2.26668 1.33325 2.60002 1.33325 2.93335C0.999919 2.93335 0.666585 2.93335 0.333252 2.93335C0.333252 2.60002 0.333252 2.26668 0.333252 1.93335Z" fill="#FEFFFE"/>
<path fill-rule="evenodd" clip-rule="evenodd" d="M3.59985 2.00002C3.59985 1.97779 3.59985 1.95557 3.59985 1.93335C5.84432 1.93335 8.08872 1.93335 10.3332 1.93335C10.3332 2.17779 10.3332 2.42224 10.3332 2.66668C10.1626 2.64658 10.007 2.6688 9.86652 2.73335C8.11192 2.49698 6.35632 2.26365 4.59985 2.03335C4.26725 2.00007 3.93392 1.98895 3.59985 2.00002Z" fill="#ECEEED"/>
<path fill-rule="evenodd" clip-rule="evenodd" d="M10.3334 1.93335C10.6667 1.93335 11 1.93335 11.3334 1.93335C11.3424 2.28075 11.3424 2.61408 11.3334 2.93335C10.845 2.85787 10.356 2.7912 9.8667 2.73335C10.0072 2.6688 10.1628 2.64658 10.3334 2.66668C10.3334 2.42224 10.3334 2.17779 10.3334 1.93335Z" fill="#FCFCFC"/>
<path fill-rule="evenodd" clip-rule="evenodd" d="M11.3333 1.93335C11.6666 1.93335 11.9999 1.93335 12.3333 1.93335C12.3333 2.26668 12.3333 2.60002 12.3333 2.93335C12.6666 2.93335 12.9999 2.93335 13.3333 2.93335C13.3333 2.60002 13.3333 2.26668 13.3333 1.93335C13.6666 1.93335 13.9999 1.93335 14.3333 1.93335C14.3333 2.26668 14.3333 2.60002 14.3333 2.93335C14.6666 2.93335 14.9999 2.93335 15.3333 2.93335C15.3333 2.60002 15.3333 2.26668 15.3333 1.93335C15.6666 1.93335 15.9999 1.93335 16.3333 1.93335C16.3333 2.26668 16.3333 2.60002 16.3333 2.93335C16.6666 2.93335 16.9999 2.93335 17.3333 2.93335C17.3333 2.60002 17.3333 2.26668 17.3333 1.93335C17.6666 1.93335 17.9999 1.93335 18.3333 1.93335C18.3333 2.26668 18.3333 2.60002 18.3333 2.93335C18.6666 2.93335 18.9999 2.93335 19.3333 2.93335C19.3333 3.24446 19.3333 3.55557 19.3333 3.86668C19.2056 3.84772 19.0945 3.86994 18.9999 3.93335C16.4465 3.58688 13.8909 3.25355 11.3333 2.93335C11.3423 2.61408 11.3423 2.28075 11.3333 1.93335Z" fill="#EAEBEA"/>
<path fill-rule="evenodd" clip-rule="evenodd" d="M12.3333 1.93335C12.6666 1.93335 12.9999 1.93335 13.3333 1.93335C13.3333 2.26668 13.3333 2.60002 13.3333 2.93335C12.9999 2.93335 12.6666 2.93335 12.3333 2.93335C12.3333 2.60002 12.3333 2.26668 12.3333 1.93335Z" fill="#FEFFFE"/>
<path fill-rule="evenodd" clip-rule="evenodd" d="M14.3333 1.93335C14.6666 1.93335 14.9999 1.93335 15.3333 1.93335C15.3333 2.26668 15.3333 2.60002 15.3333 2.93335C14.9999 2.93335 14.6666 2.93335 14.3333 2.93335C14.3333 2.60002 14.3333 2.26668 14.3333 1.93335Z" fill="#FEFFFE"/>
<path fill-rule="evenodd" clip-rule="evenodd" d="M30.3333 1.93335C30.7777 1.93335 31.2221 1.93335 31.6666 1.93335C31.6666 3.26668 31.6666 4.60002 31.6666 5.93335C31.5555 5.93335 31.4444 5.93335 31.3333 5.93335C31.3333 5.60002 31.3333 5.26668 31.3333 4.93335C30.9999 4.93335 30.6666 4.93335 30.3333 4.93335C30.3333 4.60002 30.3333 4.26668 30.3333 3.93335C30.6666 3.93335 30.9999 3.93335 31.3333 3.93335C31.3333 3.60002 31.3333 3.26668 31.3333 2.93335C30.9999 2.93335 30.6666 2.93335 30.3333 2.93335C30.3333 2.60002 30.3333 2.26668 30.3333 1.93335Z" fill="#FAFAFA"/>
<path fill-rule="evenodd" clip-rule="evenodd" d="M16.3333 1.93335C16.6666 1.93335 16.9999 1.93335 17.3333 1.93335C17.3333 2.26668 17.3333 2.60002 17.3333 2.93335C16.9999 2.93335 16.6666 2.93335 16.3333 2.93335C16.3333 2.60002 16.3333 2.26668 16.3333 1.93335Z" fill="#FEFFFE"/>
<path fill-rule="evenodd" clip-rule="evenodd" d="M18.3333 1.93335C18.6666 1.93335 18.9999 1.93335 19.3333 1.93335C19.3333 2.26668 19.3333 2.60002 19.3333 2.93335C18.9999 2.93335 18.6666 2.93335 18.3333 2.93335C18.3333 2.60002 18.3333 2.26668 18.3333 1.93335Z" fill="#FEFFFE"/>
<path fill-rule="evenodd" clip-rule="evenodd" d="M19.3333 1.93335C19.6666 1.93335 19.9999 1.93335 20.3333 1.93335C20.3333 2.26668 20.3333 2.60002 20.3333 2.93335C19.9999 2.93335 19.6666 2.93335 19.3333 2.93335C19.3333 2.60002 19.3333 2.26668 19.3333 1.93335Z" fill="#E5E6E5"/>
<path fill-rule="evenodd" clip-rule="evenodd" d="M20.3333 1.93335C20.6666 1.93335 20.9999 1.93335 21.3333 1.93335C21.3333 2.26668 21.3333 2.60002 21.3333 2.93335C20.9999 2.93335 20.6666 2.93335 20.3333 2.93335C20.3333 2.60002 20.3333 2.26668 20.3333 1.93335Z" fill="#FEFFFE"/>
<path fill-rule="evenodd" clip-rule="evenodd" d="M21.3333 1.93335C21.6666 1.93335 21.9999 1.93335 22.3333 1.93335C22.3333 2.26668 22.3333 2.60002 22.3333 2.93335C21.9999 2.93335 21.6666 2.93335 21.3333 2.93335C21.3333 2.60002 21.3333 2.26668 21.3333 1.93335Z" fill="#E5E6E5"/>
<path fill-rule="evenodd" clip-rule="evenodd" d="M22.3333 1.93335C22.6666 1.93335 22.9999 1.93335 23.3333 1.93335C23.3333 2.26668 23.3333 2.60002 23.3333 2.93335C22.9999 2.93335 22.6666 2.93335 22.3333 2.93335C22.3333 2.60002 22.3333 2.26668 22.3333 1.93335Z" fill="#FEFFFE"/>
<path fill-rule="evenodd" clip-rule="evenodd" d="M23.3333 1.93335C23.6666 1.93335 23.9999 1.93335 24.3333 1.93335C24.3333 2.26668 24.3333 2.60002 24.3333 2.93335C23.9999 2.93335 23.6666 2.93335 23.3333 2.93335C23.3333 2.60002 23.3333 2.26668 23.3333 1.93335Z" fill="#E5E6E5"/>
<path fill-rule="evenodd" clip-rule="evenodd" d="M24.3333 1.93335C24.6666 1.93335 24.9999 1.93335 25.3333 1.93335C25.3333 2.26668 25.3333 2.60002 25.3333 2.93335C24.9999 2.93335 24.6666 2.93335 24.3333 2.93335C24.3333 2.60002 24.3333 2.26668 24.3333 1.93335Z" fill="#FEFFFE"/>
<path fill-rule="evenodd" clip-rule="evenodd" d="M25.3333 1.93335C25.6666 1.93335 25.9999 1.93335 26.3333 1.93335C26.3333 2.26668 26.3333 2.60002 26.3333 2.93335C25.9999 2.93335 25.6666 2.93335 25.3333 2.93335C25.3333 2.60002 25.3333 2.26668 25.3333 1.93335Z" fill="#E5E6E5"/>
<path fill-rule="evenodd" clip-rule="evenodd" d="M26.3333 1.93335C26.6666 1.93335 26.9999 1.93335 27.3333 1.93335C27.3333 2.26668 27.3333 2.60002 27.3333 2.93335C26.9999 2.93335 26.6666 2.93335 26.3333 2.93335C26.3333 2.60002 26.3333 2.26668 26.3333 1.93335Z" fill="#FEFFFE"/>
<path fill-rule="evenodd" clip-rule="evenodd" d="M27.3333 1.93335C27.6666 1.93335 27.9999 1.93335 28.3333 1.93335C28.3333 2.26668 28.3333 2.60002 28.3333 2.93335C27.9999 2.93335 27.6666 2.93335 27.3333 2.93335C27.3333 2.60002 27.3333 2.26668 27.3333 1.93335Z" fill="#E5E6E5"/>
<path fill-rule="evenodd" clip-rule="evenodd" d="M28.3333 1.93335C28.6666 1.93335 28.9999 1.93335 29.3333 1.93335C29.3333 2.26668 29.3333 2.60002 29.3333 2.93335C28.9999 2.93335 28.6666 2.93335 28.3333 2.93335C28.3333 2.60002 28.3333 2.26668 28.3333 1.93335Z" fill="#FEFFFE"/>
<path fill-rule="evenodd" clip-rule="evenodd" d="M29.3333 1.93335C29.6666 1.93335 29.9999 1.93335 30.3333 1.93335C30.3333 2.26668 30.3333 2.60002 30.3333 2.93335C29.9999 2.93335 29.6666 2.93335 29.3333 2.93335C29.3333 2.60002 29.3333 2.26668 29.3333 1.93335Z" fill="#E5E6E5"/>
<path fill-rule="evenodd" clip-rule="evenodd" d="M3.59981 1.99999C3.93388 1.98893 4.26721 2.00004 4.59981 2.03332C6.35628 2.26362 8.11188 2.49695 9.86648 2.73332C10.3558 2.79118 10.8447 2.85784 11.3331 2.93332C13.8907 3.25352 16.4463 3.58686 18.9998 3.93332C22.8038 4.41326 26.6038 4.92436 30.3998 5.46666C31.0114 5.78955 31.4336 6.27844 31.6665 6.93332C31.6665 12.1778 31.6665 17.4222 31.6665 22.6667C31.4588 23.4463 30.9699 23.9686 30.1998 24.2333C27.8231 24.4962 25.4454 24.7517 23.0665 25C22.8741 24.9796 22.6963 25.0018 22.5331 25.0667C22.1769 25.0877 21.8213 25.1211 21.4665 25.1667C21.384 25.1821 21.3173 25.2155 21.2665 25.2667C21.2183 25.2388 21.185 25.1944 21.1665 25.1333C20.9887 25.1778 20.8109 25.2222 20.6331 25.2667C18.7313 25.4002 16.8313 25.6002 14.9331 25.8667C14.5735 25.8511 14.2179 25.8733 13.8665 25.9333C13.6523 25.9127 13.4523 25.9349 13.2665 26C12.7767 26.0357 12.2878 26.0802 11.7998 26.1333C11.6292 26.1132 11.4736 26.1355 11.3331 26.2C10.8209 26.2386 10.3099 26.283 9.79981 26.3333C9.65081 26.3137 9.51748 26.3359 9.39981 26.4C7.54415 26.5704 5.68861 26.7481 3.83315 26.9333C3.56581 26.9331 3.31021 26.8776 3.06648 26.7667C2.81168 26.6113 2.56728 26.4447 2.33315 26.2667C2.26815 26.1137 2.17928 25.9803 2.06648 25.8667C1.94761 25.5911 1.88095 25.3022 1.86648 25C1.85535 17.8444 1.86648 10.6889 1.89981 3.53332C2.16248 2.68165 2.72915 2.17054 3.59981 1.99999Z" fill="#099848"/>
<path fill-rule="evenodd" clip-rule="evenodd" d="M19.3333 2.93335C19.6667 2.93335 20 2.93335 20.3333 2.93335C20.3333 3.26668 20.3333 3.60002 20.3333 3.93335C20.6667 3.93335 21 3.93335 21.3333 3.93335C21.3333 3.60002 21.3333 3.26668 21.3333 2.93335C21.6667 2.93335 22 2.93335 22.3333 2.93335C22.3333 3.26668 22.3333 3.60002 22.3333 3.93335C22.6667 3.93335 23 3.93335 23.3333 3.93335C23.3333 3.60002 23.3333 3.26668 23.3333 2.93335C23.6667 2.93335 24 2.93335 24.3333 2.93335C24.3333 3.26668 24.3333 3.60002 24.3333 3.93335C24.6667 3.93335 25 3.93335 25.3333 3.93335C25.3333 3.60002 25.3333 3.26668 25.3333 2.93335C25.6667 2.93335 26 2.93335 26.3333 2.93335C26.3333 3.26668 26.3333 3.60002 26.3333 3.93335C26.6667 3.93335 27 3.93335 27.3333 3.93335C27.3333 4.26668 27.3333 4.60002 27.3333 4.93335C27.6667 4.93335 28 4.93335 28.3333 4.93335C28.3333 4.60002 28.3333 4.26668 28.3333 3.93335C28.6667 3.93335 29 3.93335 29.3333 3.93335C29.3333 4.26668 29.3333 4.60002 29.3333 4.93335C29.6667 4.93335 30 4.93335 30.3333 4.93335C30.3028 5.12627 30.3473 5.29294 30.4667 5.43335C30.4515 5.45994 30.4292 5.47104 30.4 5.46668C26.604 4.92439 22.804 4.41328 19 3.93335C19.0946 3.86994 19.2057 3.84772 19.3333 3.86668C19.3333 3.55557 19.3333 3.24446 19.3333 2.93335Z" fill="#F8F8F8"/>
<path fill-rule="evenodd" clip-rule="evenodd" d="M20.3333 2.93335C20.6666 2.93335 20.9999 2.93335 21.3333 2.93335C21.3333 3.26668 21.3333 3.60002 21.3333 3.93335C20.9999 3.93335 20.6666 3.93335 20.3333 3.93335C20.3333 3.60002 20.3333 3.26668 20.3333 2.93335Z" fill="#E5E6E5"/>
<path fill-rule="evenodd" clip-rule="evenodd" d="M22.3333 2.93335C22.6666 2.93335 22.9999 2.93335 23.3333 2.93335C23.3333 3.26668 23.3333 3.60002 23.3333 3.93335C22.9999 3.93335 22.6666 3.93335 22.3333 3.93335C22.3333 3.60002 22.3333 3.26668 22.3333 2.93335Z" fill="#E5E6E5"/>
<path fill-rule="evenodd" clip-rule="evenodd" d="M24.3333 2.93335C24.6666 2.93335 24.9999 2.93335 25.3333 2.93335C25.3333 3.26668 25.3333 3.60002 25.3333 3.93335C24.9999 3.93335 24.6666 3.93335 24.3333 3.93335C24.3333 3.60002 24.3333 3.26668 24.3333 2.93335Z" fill="#E5E6E5"/>
<path fill-rule="evenodd" clip-rule="evenodd" d="M26.3333 2.93335C26.6666 2.93335 26.9999 2.93335 27.3333 2.93335C27.3333 3.26668 27.3333 3.60002 27.3333 3.93335C26.9999 3.93335 26.6666 3.93335 26.3333 3.93335C26.3333 3.60002 26.3333 3.26668 26.3333 2.93335Z" fill="#E5E6E5"/>
<path fill-rule="evenodd" clip-rule="evenodd" d="M27.3333 2.93335C27.6666 2.93335 27.9999 2.93335 28.3333 2.93335C28.3333 3.26668 28.3333 3.60002 28.3333 3.93335C27.9999 3.93335 27.6666 3.93335 27.3333 3.93335C27.3333 3.60002 27.3333 3.26668 27.3333 2.93335Z" fill="#FEFFFE"/>
<path fill-rule="evenodd" clip-rule="evenodd" d="M28.3333 2.93335C28.6666 2.93335 28.9999 2.93335 29.3333 2.93335C29.3333 3.26668 29.3333 3.60002 29.3333 3.93335C28.9999 3.93335 28.6666 3.93335 28.3333 3.93335C28.3333 3.60002 28.3333 3.26668 28.3333 2.93335Z" fill="#E5E6E5"/>
<path fill-rule="evenodd" clip-rule="evenodd" d="M29.3333 2.93335C29.6666 2.93335 29.9999 2.93335 30.3333 2.93335C30.3333 3.26668 30.3333 3.60002 30.3333 3.93335C29.9999 3.93335 29.6666 3.93335 29.3333 3.93335C29.3333 3.60002 29.3333 3.26668 29.3333 2.93335Z" fill="#FEFFFE"/>
<path fill-rule="evenodd" clip-rule="evenodd" d="M30.3333 2.93335C30.6666 2.93335 30.9999 2.93335 31.3333 2.93335C31.3333 3.26668 31.3333 3.60002 31.3333 3.93335C30.9999 3.93335 30.6666 3.93335 30.3333 3.93335C30.3333 3.60002 30.3333 3.26668 30.3333 2.93335Z" fill="#E5E6E5"/>
<path fill-rule="evenodd" clip-rule="evenodd" d="M0.333252 3.93335C0.666585 3.93335 0.999919 3.93335 1.33325 3.93335C1.33325 4.26668 1.33325 4.60002 1.33325 4.93335C0.999919 4.93335 0.666585 4.93335 0.333252 4.93335C0.333252 4.60002 0.333252 4.26668 0.333252 3.93335Z" fill="#FEFFFE"/>
<path fill-rule="evenodd" clip-rule="evenodd" d="M27.3333 3.93335C27.6666 3.93335 27.9999 3.93335 28.3333 3.93335C28.3333 4.26668 28.3333 4.60002 28.3333 4.93335C27.9999 4.93335 27.6666 4.93335 27.3333 4.93335C27.3333 4.60002 27.3333 4.26668 27.3333 3.93335Z" fill="#E5E6E5"/>
<path fill-rule="evenodd" clip-rule="evenodd" d="M29.3333 3.93335C29.6666 3.93335 29.9999 3.93335 30.3333 3.93335C30.3333 4.26668 30.3333 4.60002 30.3333 4.93335C29.9999 4.93335 29.6666 4.93335 29.3333 4.93335C29.3333 4.60002 29.3333 4.26668 29.3333 3.93335Z" fill="#E5E6E5"/>
<path fill-rule="evenodd" clip-rule="evenodd" d="M1.33325 1.93335C2.08879 1.93335 2.84439 1.93335 3.59992 1.93335C3.59992 1.95557 3.59992 1.97779 3.59992 2.00002C2.72925 2.17056 2.16259 2.68168 1.89992 3.53335C1.86659 10.6889 1.85545 17.8444 1.86659 25C1.79999 18.989 1.77772 12.9668 1.79992 6.93335C1.64439 6.93335 1.48879 6.93335 1.33325 6.93335C1.33325 6.60002 1.33325 6.26668 1.33325 5.93335C0.999919 5.93335 0.666585 5.93335 0.333252 5.93335C0.333252 5.60002 0.333252 5.26668 0.333252 4.93335C0.666585 4.93335 0.999919 4.93335 1.33325 4.93335C1.33325 4.60002 1.33325 4.26668 1.33325 3.93335C0.999919 3.93335 0.666585 3.93335 0.333252 3.93335C0.333252 3.60002 0.333252 3.26668 0.333252 2.93335C0.666585 2.93335 0.999919 2.93335 1.33325 2.93335C1.33325 2.60002 1.33325 2.26668 1.33325 1.93335Z" fill="#E5EAE7"/>
<path fill-rule="evenodd" clip-rule="evenodd" d="M30.3333 4.93335C30.6666 4.93335 31 4.93335 31.3333 4.93335C31.3333 5.26668 31.3333 5.60002 31.3333 5.93335C31.4444 5.93335 31.5555 5.93335 31.6666 5.93335C31.6666 6.26668 31.6666 6.60002 31.6666 6.93335C31.4338 6.27847 31.0116 5.78958 30.4 5.46668C30.4292 5.47104 30.4514 5.45994 30.4666 5.43335C30.3472 5.29294 30.3028 5.12627 30.3333 4.93335Z" fill="#E6E6E6"/>
<path fill-rule="evenodd" clip-rule="evenodd" d="M0.333252 5.93335C0.666585 5.93335 0.999919 5.93335 1.33325 5.93335C1.33325 6.26668 1.33325 6.60002 1.33325 6.93335C0.999919 6.93335 0.666585 6.93335 0.333252 6.93335C0.333252 6.60002 0.333252 6.26668 0.333252 5.93335Z" fill="#FEFFFE"/>
<path fill-rule="evenodd" clip-rule="evenodd" d="M0.333252 6.93335C0.666585 6.93335 0.999919 6.93335 1.33325 6.93335C1.33325 7.26668 1.33325 7.60002 1.33325 7.93335C0.999919 7.93335 0.666585 7.93335 0.333252 7.93335C0.333252 7.60002 0.333252 7.26668 0.333252 6.93335Z" fill="#E5E6E5"/>
<path fill-rule="evenodd" clip-rule="evenodd" d="M25 22C24.7916 21.9347 24.5694 21.9125 24.3333 21.9333C24.3333 21.6 24.3333 21.2667 24.3333 20.9333C24.3333 20.6 24.3333 20.2667 24.3333 19.9333C24 19.9333 23.6666 19.9333 23.3333 19.9333C23.3333 19.6 23.3333 19.2667 23.3333 18.9333C23.6666 18.9333 24 18.9333 24.3333 18.9333C24.3333 18.6 24.3333 18.2667 24.3333 17.9333C24 17.9333 23.6666 17.9333 23.3333 17.9333C23.3333 17.6 23.3333 17.2667 23.3333 16.9333C23.6666 16.9333 24 16.9333 24.3333 16.9333C24.3333 16.6 24.3333 16.2667 24.3333 15.9333C24 15.9333 23.6666 15.9333 23.3333 15.9333C23.3333 15.6 23.3333 15.2667 23.3333 14.9333C23.6666 14.9333 24 14.9333 24.3333 14.9333C24.3333 14.6 24.3333 14.2667 24.3333 13.9333C24 13.9333 23.6666 13.9333 23.3333 13.9333C23.3333 13.6 23.3333 13.2667 23.3333 12.9333C23.6666 12.9333 24 12.9333 24.3333 12.9333C24.3333 12.6 24.3333 12.2667 24.3333 11.9333C24 11.9333 23.6666 11.9333 23.3333 11.9333C23.3333 11.6 23.3333 11.2667 23.3333 10.9333C23.6666 10.9333 24 10.9333 24.3333 10.9333C24.3333 10.6 24.3333 10.2667 24.3333 9.93334C24 9.93334 23.6666 9.93334 23.3333 9.93334C23.3333 9.6 23.3333 9.26667 23.3333 8.93334C23 8.93334 22.6666 8.93334 22.3333 8.93334C22.2254 8.73014 22.1587 8.50792 22.1333 8.26667C22.2302 7.86334 22.4746 7.58556 22.8666 7.43334C23.513 7.30648 24.1574 7.30648 24.8 7.43334C24.9032 7.51427 24.981 7.61427 25.0333 7.73334C25.0888 12.5001 25.0776 17.2557 25 22Z" fill="#F6F6F6"/>
<path fill-rule="evenodd" clip-rule="evenodd" d="M23.3333 8.93335C23.3333 8.60002 23.3333 8.26668 23.3333 7.93335C23.6666 7.93335 23.9999 7.93335 24.3333 7.93335C24.3333 8.26668 24.3333 8.60002 24.3333 8.93335C23.9999 8.93335 23.6666 8.93335 23.3333 8.93335Z" fill="#E5E6E5"/>
<path fill-rule="evenodd" clip-rule="evenodd" d="M0.333252 8.93335C0.666585 8.93335 0.999919 8.93335 1.33325 8.93335C1.33325 9.26668 1.33325 9.60002 1.33325 9.93335C0.999919 9.93335 0.666585 9.93335 0.333252 9.93335C0.333252 9.60002 0.333252 9.26668 0.333252 8.93335Z" fill="#E5E6E5"/>
<path fill-rule="evenodd" clip-rule="evenodd" d="M22.3333 8.93335C22.6666 8.93335 22.9999 8.93335 23.3333 8.93335C23.3333 9.26668 23.3333 9.60002 23.3333 9.93335C22.9999 9.93335 22.6666 9.93335 22.3333 9.93335C22.3333 9.60002 22.3333 9.26668 22.3333 8.93335Z" fill="#E5E6E5"/>
<path fill-rule="evenodd" clip-rule="evenodd" d="M26.7998 8.93335C26.9776 8.93335 27.1553 8.93335 27.3331 8.93335C27.3331 9.26668 27.3331 9.60002 27.3331 9.93335C27.1553 9.93335 26.9776 9.93335 26.7998 9.93335C26.7998 9.60002 26.7998 9.26668 26.7998 8.93335Z" fill="#E7E6E7"/>
<path fill-rule="evenodd" clip-rule="evenodd" d="M27.3333 8.93335C27.6666 8.93335 27.9999 8.93335 28.3333 8.93335C28.3333 9.26668 28.3333 9.60002 28.3333 9.93335C27.9999 9.93335 27.6666 9.93335 27.3333 9.93335C27.3333 9.60002 27.3333 9.26668 27.3333 8.93335Z" fill="#FEFFFE"/>
<path fill-rule="evenodd" clip-rule="evenodd" d="M29.7333 10.9334C29.6 10.9334 29.4667 10.9334 29.3333 10.9334C29.3333 10.6 29.3333 10.2667 29.3333 9.93335C29 9.93335 28.6667 9.93335 28.3333 9.93335C28.3333 9.60002 28.3333 9.26669 28.3333 8.93335C28 8.93335 27.6667 8.93335 27.3333 8.93335C27.1555 8.93335 26.9778 8.93335 26.8 8.93335C26.6954 8.15239 27.0065 7.63016 27.7333 7.36668C28.3375 7.30794 28.9375 7.33016 29.5333 7.43335C29.5889 7.4889 29.6445 7.54446 29.7 7.60002C29.7333 8.71088 29.7445 9.82202 29.7333 10.9334Z" fill="#EEEEEE"/>
<path fill-rule="evenodd" clip-rule="evenodd" d="M28.3333 8.93335C28.3333 8.60002 28.3333 8.26668 28.3333 7.93335C28.6666 7.93335 28.9999 7.93335 29.3333 7.93335C29.3333 8.26668 29.3333 8.60002 29.3333 8.93335C28.9999 8.93335 28.6666 8.93335 28.3333 8.93335Z" fill="#FEFFFE"/>
<path fill-rule="evenodd" clip-rule="evenodd" d="M5.33325 9.93335C5.33325 10.2667 5.33325 10.6 5.33325 10.9333C4.99992 10.9333 4.66659 10.9333 4.33325 10.9333C4.33325 10.6 4.33325 10.2667 4.33325 9.93335C4.66659 9.93335 4.99992 9.93335 5.33325 9.93335Z" fill="#FEFFFE"/>
<path fill-rule="evenodd" clip-rule="evenodd" d="M5.33325 9.93335C5.66659 9.93335 5.99992 9.93335 6.33325 9.93335C6.33325 10.2667 6.33325 10.6 6.33325 10.9333C5.99992 10.9333 5.66659 10.9333 5.33325 10.9333C5.33325 10.6 5.33325 10.2667 5.33325 9.93335Z" fill="#E5E6E5"/>
<path fill-rule="evenodd" clip-rule="evenodd" d="M6.73325 9.20001C6.73325 10.0222 6.73325 10.8445 6.73325 11.6667C6.66779 11.4359 6.64559 11.1914 6.66659 10.9333C6.55545 10.9333 6.44439 10.9333 6.33325 10.9333C6.33325 10.6 6.33325 10.2667 6.33325 9.93335C6.44439 9.93335 6.55545 9.93335 6.66659 9.93335C6.64559 9.67528 6.66779 9.43081 6.73325 9.20001Z" fill="#FEFCFD"/>
<path fill-rule="evenodd" clip-rule="evenodd" d="M23.3333 9.93335C23.6666 9.93335 23.9999 9.93335 24.3333 9.93335C24.3333 10.2667 24.3333 10.6 24.3333 10.9333C23.9999 10.9333 23.6666 10.9333 23.3333 10.9333C23.3333 10.6 23.3333 10.2667 23.3333 9.93335Z" fill="#E5E6E5"/>
<path fill-rule="evenodd" clip-rule="evenodd" d="M26.7998 9.93335C26.9776 9.93335 27.1553 9.93335 27.3331 9.93335C27.3331 10.2667 27.3331 10.6 27.3331 10.9333C27.1553 10.9333 26.9776 10.9333 26.7998 10.9333C26.7998 10.6 26.7998 10.2667 26.7998 9.93335Z" fill="#FEFFFE"/>
<path fill-rule="evenodd" clip-rule="evenodd" d="M27.3333 9.93335C27.6666 9.93335 27.9999 9.93335 28.3333 9.93335C28.3333 10.2667 28.3333 10.6 28.3333 10.9333C27.9999 10.9333 27.6666 10.9333 27.3333 10.9333C27.3333 10.6 27.3333 10.2667 27.3333 9.93335Z" fill="#E5E6E5"/>
<path fill-rule="evenodd" clip-rule="evenodd" d="M28.3333 9.93335C28.6666 9.93335 28.9999 9.93335 29.3333 9.93335C29.3333 10.2667 29.3333 10.6 29.3333 10.9333C28.9999 10.9333 28.6666 10.9333 28.3333 10.9333C28.3333 10.6 28.3333 10.2667 28.3333 9.93335Z" fill="#FEFFFE"/>
<path fill-rule="evenodd" clip-rule="evenodd" d="M0.333252 10.9333C0.666585 10.9333 0.999919 10.9333 1.33325 10.9333C1.33325 11.2667 1.33325 11.6 1.33325 11.9333C0.999919 11.9333 0.666585 11.9333 0.333252 11.9333C0.333252 11.6 0.333252 11.2667 0.333252 10.9333Z" fill="#E5E6E5"/>
<path fill-rule="evenodd" clip-rule="evenodd" d="M6.73316 9.2C6.6677 9.4308 6.6455 9.67527 6.6665 9.93334C6.55536 9.93334 6.4443 9.93334 6.33316 9.93334C6.33316 9.6 6.33316 9.26667 6.33316 8.93334C5.99983 8.93334 5.6665 8.93334 5.33316 8.93334C5.33316 9.26667 5.33316 9.6 5.33316 9.93334C4.99983 9.93334 4.6665 9.93334 4.33316 9.93334C4.33316 10.2667 4.33316 10.6 4.33316 10.9333C4.6665 10.9333 4.99983 10.9333 5.33316 10.9333C5.33316 11.2667 5.33316 11.6 5.33316 11.9333C4.99983 11.9333 4.6665 11.9333 4.33316 11.9333C4.33316 12.2667 4.33316 12.6 4.33316 12.9333C4.15536 12.9333 3.97763 12.9333 3.79983 12.9333C3.7887 11.8887 3.79983 10.8442 3.83316 9.8C3.8675 9.29934 4.12303 8.97707 4.59983 8.83334C5.19983 8.78887 5.79983 8.78887 6.39983 8.83334C6.57176 8.90507 6.6829 9.02727 6.73316 9.2Z" fill="#EEEEEE"/>
<path fill-rule="evenodd" clip-rule="evenodd" d="M6.33325 9.93335C5.99992 9.93335 5.66659 9.93335 5.33325 9.93335C5.33325 9.60002 5.33325 9.26668 5.33325 8.93335C5.66659 8.93335 5.99992 8.93335 6.33325 8.93335C6.33325 9.26668 6.33325 9.60002 6.33325 9.93335Z" fill="#FEFFFE"/>
<path fill-rule="evenodd" clip-rule="evenodd" d="M5.33325 10.9333C5.66659 10.9333 5.99992 10.9333 6.33325 10.9333C6.33325 11.2667 6.33325 11.6 6.33325 11.9333C5.99992 11.9333 5.66659 11.9333 5.33325 11.9333C5.33325 11.6 5.33325 11.2667 5.33325 10.9333Z" fill="#FEFFFE"/>
<path fill-rule="evenodd" clip-rule="evenodd" d="M23.3333 10.9333C23.3333 11.2667 23.3333 11.6 23.3333 11.9333C22.9999 11.9333 22.6666 11.9333 22.3333 11.9333C22.3333 11.6 22.3333 11.2667 22.3333 10.9333C22.6666 10.9333 22.9999 10.9333 23.3333 10.9333Z" fill="#E5E6E5"/>
<path fill-rule="evenodd" clip-rule="evenodd" d="M26.7998 10.9333C26.9776 10.9333 27.1553 10.9333 27.3331 10.9333C27.3331 11.2667 27.3331 11.6 27.3331 11.9333C27.1553 11.9333 26.9776 11.9333 26.7998 11.9333C26.7998 11.6 26.7998 11.2667 26.7998 10.9333Z" fill="#E7E6E7"/>
<path fill-rule="evenodd" clip-rule="evenodd" d="M27.3333 10.9333C27.6666 10.9333 27.9999 10.9333 28.3333 10.9333C28.3333 11.2667 28.3333 11.6 28.3333 11.9333C27.9999 11.9333 27.6666 11.9333 27.3333 11.9333C27.3333 11.6 27.3333 11.2667 27.3333 10.9333Z" fill="#FEFFFE"/>
<path fill-rule="evenodd" clip-rule="evenodd" d="M28.3333 10.9333C28.6666 10.9333 28.9999 10.9333 29.3333 10.9333C29.3333 11.2667 29.3333 11.6 29.3333 11.9333C28.9999 11.9333 28.6666 11.9333 28.3333 11.9333C28.3333 11.6 28.3333 11.2667 28.3333 10.9333Z" fill="#E5E6E5"/>
<path fill-rule="evenodd" clip-rule="evenodd" d="M5.33325 11.9333C5.33325 12.2667 5.33325 12.6 5.33325 12.9333C4.99992 12.9333 4.66659 12.9333 4.33325 12.9333C4.33325 12.6 4.33325 12.2667 4.33325 11.9333C4.66659 11.9333 4.99992 11.9333 5.33325 11.9333Z" fill="#FEFFFE"/>
<path fill-rule="evenodd" clip-rule="evenodd" d="M5.33325 11.9333C5.66659 11.9333 5.99992 11.9333 6.33325 11.9333C6.33325 12.2667 6.33325 12.6 6.33325 12.9333C5.99992 12.9333 5.66659 12.9333 5.33325 12.9333C5.33325 12.6 5.33325 12.2667 5.33325 11.9333Z" fill="#E5E6E5"/>
<path fill-rule="evenodd" clip-rule="evenodd" d="M6.33325 11.9333C6.66659 11.9333 6.99992 11.9333 7.33325 11.9333C7.33325 12.2667 7.33325 12.6 7.33325 12.9333C6.99992 12.9333 6.66659 12.9333 6.33325 12.9333C6.33325 12.6 6.33325 12.2667 6.33325 11.9333Z" fill="#FEFFFE"/>
<path fill-rule="evenodd" clip-rule="evenodd" d="M6.33325 10.9333C6.44439 10.9333 6.55545 10.9333 6.66659 10.9333C6.64559 11.1914 6.66779 11.4359 6.73325 11.6667C7.69365 11.6367 8.64919 11.6701 9.59992 11.7667C9.67999 11.8269 9.73559 11.9046 9.76659 12C9.79985 12.3103 9.81099 12.6214 9.79992 12.9333C9.64439 12.9333 9.48879 12.9333 9.33325 12.9333C9.33325 12.6 9.33325 12.2667 9.33325 11.9333C8.99992 11.9333 8.66659 11.9333 8.33325 11.9333C8.33325 12.2667 8.33325 12.6 8.33325 12.9333C7.99992 12.9333 7.66659 12.9333 7.33325 12.9333C7.33325 12.6 7.33325 12.2667 7.33325 11.9333C6.99992 11.9333 6.66659 11.9333 6.33325 11.9333C6.33325 11.6 6.33325 11.2667 6.33325 10.9333Z" fill="#E8E8E8"/>
<path fill-rule="evenodd" clip-rule="evenodd" d="M9.33325 12.9333C8.99992 12.9333 8.66659 12.9333 8.33325 12.9333C8.33325 12.6 8.33325 12.2667 8.33325 11.9333C8.66659 11.9333 8.99992 11.9333 9.33325 11.9333C9.33325 12.2667 9.33325 12.6 9.33325 12.9333Z" fill="#FEFFFE"/>
<path fill-rule="evenodd" clip-rule="evenodd" d="M20.8 15.4667C20.7351 15.3035 20.7129 15.1257 20.7333 14.9334C20.6 14.9334 20.4667 14.9334 20.3333 14.9334C20.3333 14.6 20.3333 14.2667 20.3333 13.9334C20 13.9334 19.6667 13.9334 19.3333 13.9334C19.3333 13.6 19.3333 13.2667 19.3333 12.9334C19 12.9334 18.6667 12.9334 18.3333 12.9334C18.3333 12.6 18.3333 12.2667 18.3333 11.9334C18 11.9334 17.6667 11.9334 17.3333 11.9334C17.3333 12.2667 17.3333 12.6 17.3333 12.9334C17 12.9334 16.6667 12.9334 16.3333 12.9334C16.3333 12.6 16.3333 12.2667 16.3333 11.9334C16 11.9334 15.6667 11.9334 15.3333 11.9334C15.3333 12.2667 15.3333 12.6 15.3333 12.9334C15 12.9334 14.6667 12.9334 14.3333 12.9334C14.3333 12.6 14.3333 12.2667 14.3333 11.9334C14 11.9334 13.6667 11.9334 13.3333 11.9334C13.3333 12.2667 13.3333 12.6 13.3333 12.9334C13 12.9334 12.6667 12.9334 12.3333 12.9334C12.3333 13.2667 12.3333 13.6 12.3333 13.9334C12 13.9334 11.6667 13.9334 11.3333 13.9334C11.3333 14.2667 11.3333 14.6 11.3333 14.9334C11.1555 14.9334 10.9778 14.9334 10.8 14.9334C10.8105 15.0249 10.7993 15.1138 10.7667 15.2C10.7357 15.1604 10.7246 15.116 10.7333 15.0667C11.1719 12.9285 12.483 11.7618 14.6667 11.5667C16.1701 11.4023 17.6367 11.5579 19.0667 12.0334C20.4673 12.7568 21.0451 13.9012 20.8 15.4667Z" fill="#F9FAF9"/>
<path fill-rule="evenodd" clip-rule="evenodd" d="M14.3333 12.9333C13.9999 12.9333 13.6666 12.9333 13.3333 12.9333C13.3333 12.6 13.3333 12.2667 13.3333 11.9333C13.6666 11.9333 13.9999 11.9333 14.3333 11.9333C14.3333 12.2667 14.3333 12.6 14.3333 12.9333Z" fill="#E5E6E5"/>
<path fill-rule="evenodd" clip-rule="evenodd" d="M16.3333 12.9333C15.9999 12.9333 15.6666 12.9333 15.3333 12.9333C15.3333 12.6 15.3333 12.2667 15.3333 11.9333C15.6666 11.9333 15.9999 11.9333 16.3333 11.9333C16.3333 12.2667 16.3333 12.6 16.3333 12.9333Z" fill="#E5E6E5"/>
<path fill-rule="evenodd" clip-rule="evenodd" d="M18.3333 12.9333C17.9999 12.9333 17.6666 12.9333 17.3333 12.9333C17.3333 12.6 17.3333 12.2667 17.3333 11.9333C17.6666 11.9333 17.9999 11.9333 18.3333 11.9333C18.3333 12.2667 18.3333 12.6 18.3333 12.9333Z" fill="#E5E6E5"/>
<path fill-rule="evenodd" clip-rule="evenodd" d="M23.3333 11.9333C23.6666 11.9333 23.9999 11.9333 24.3333 11.9333C24.3333 12.2667 24.3333 12.6 24.3333 12.9333C23.9999 12.9333 23.6666 12.9333 23.3333 12.9333C23.3333 12.6 23.3333 12.2667 23.3333 11.9333Z" fill="#E5E6E5"/>
<path fill-rule="evenodd" clip-rule="evenodd" d="M26.7998 11.9333C26.9776 11.9333 27.1553 11.9333 27.3331 11.9333C27.3331 12.2667 27.3331 12.6 27.3331 12.9333C27.1553 12.9333 26.9776 12.9333 26.7998 12.9333C26.7998 12.6 26.7998 12.2667 26.7998 11.9333Z" fill="#FEFFFE"/>
<path fill-rule="evenodd" clip-rule="evenodd" d="M27.3333 11.9333C27.6666 11.9333 27.9999 11.9333 28.3333 11.9333C28.3333 12.2667 28.3333 12.6 28.3333 12.9333C27.9999 12.9333 27.6666 12.9333 27.3333 12.9333C27.3333 12.6 27.3333 12.2667 27.3333 11.9333Z" fill="#E5E6E5"/>
<path fill-rule="evenodd" clip-rule="evenodd" d="M4.33325 12.9333C4.66659 12.9333 4.99992 12.9333 5.33325 12.9333C5.33325 13.2667 5.33325 13.6 5.33325 13.9333C4.99992 13.9333 4.66659 13.9333 4.33325 13.9333C4.33325 13.6 4.33325 13.2667 4.33325 12.9333Z" fill="#E5E6E5"/>
<path fill-rule="evenodd" clip-rule="evenodd" d="M5.33325 12.9333C5.66659 12.9333 5.99992 12.9333 6.33325 12.9333C6.33325 13.2667 6.33325 13.6 6.33325 13.9333C5.99992 13.9333 5.66659 13.9333 5.33325 13.9333C5.33325 13.6 5.33325 13.2667 5.33325 12.9333Z" fill="#FEFFFE"/>
<path fill-rule="evenodd" clip-rule="evenodd" d="M6.33325 12.9333C6.66659 12.9333 6.99992 12.9333 7.33325 12.9333C7.33325 13.2667 7.33325 13.6 7.33325 13.9333C6.99992 13.9333 6.66659 13.9333 6.33325 13.9333C6.33325 13.6 6.33325 13.2667 6.33325 12.9333Z" fill="#E5E6E5"/>
<path fill-rule="evenodd" clip-rule="evenodd" d="M13.3333 12.9333C13.3333 13.2667 13.3333 13.6 13.3333 13.9333C12.9999 13.9333 12.6666 13.9333 12.3333 13.9333C12.3333 13.6 12.3333 13.2667 12.3333 12.9333C12.6666 12.9333 12.9999 12.9333 13.3333 12.9333Z" fill="#E5E6E5"/>
<path fill-rule="evenodd" clip-rule="evenodd" d="M13.3333 12.9333C13.6666 12.9333 13.9999 12.9333 14.3333 12.9333C14.3333 13.2667 14.3333 13.6 14.3333 13.9333C13.9999 13.9333 13.6666 13.9333 13.3333 13.9333C13.3333 13.6 13.3333 13.2667 13.3333 12.9333Z" fill="#FEFFFE"/>
<path fill-rule="evenodd" clip-rule="evenodd" d="M14.3333 12.9333C14.6666 12.9333 14.9999 12.9333 15.3333 12.9333C15.3333 13.2667 15.3333 13.6 15.3333 13.9333C14.9999 13.9333 14.6666 13.9333 14.3333 13.9333C14.3333 13.6 14.3333 13.2667 14.3333 12.9333Z" fill="#E5E6E5"/>
<path fill-rule="evenodd" clip-rule="evenodd" d="M15.3333 12.9333C15.6666 12.9333 15.9999 12.9333 16.3333 12.9333C16.3333 13.2667 16.3333 13.6 16.3333 13.9333C16.6666 13.9333 16.9999 13.9333 17.3333 13.9333C17.3617 14.0426 17.3617 14.1315 17.3333 14.2C16.65 14.074 15.9611 14.0407 15.2666 14.1C14.9088 14.1282 14.5755 14.2282 14.2666 14.4C14.3145 14.2491 14.3367 14.0935 14.3333 13.9333C14.6666 13.9333 14.9999 13.9333 15.3333 13.9333C15.3333 13.6 15.3333 13.2667 15.3333 12.9333Z" fill="#FBFCFB"/>
<path fill-rule="evenodd" clip-rule="evenodd" d="M16.3333 12.9333C16.6666 12.9333 16.9999 12.9333 17.3333 12.9333C17.3333 13.2667 17.3333 13.6 17.3333 13.9333C16.9999 13.9333 16.6666 13.9333 16.3333 13.9333C16.3333 13.6 16.3333 13.2667 16.3333 12.9333Z" fill="#E5E6E5"/>
<path fill-rule="evenodd" clip-rule="evenodd" d="M17.3333 12.9333C17.6666 12.9333 17.9999 12.9333 18.3333 12.9333C18.3333 13.2667 18.3333 13.6 18.3333 13.9333C17.9999 13.9333 17.6666 13.9333 17.3333 13.9333C17.3333 13.6 17.3333 13.2667 17.3333 12.9333Z" fill="#FEFFFE"/>
<path fill-rule="evenodd" clip-rule="evenodd" d="M18.3333 12.9333C18.6666 12.9333 18.9999 12.9333 19.3333 12.9333C19.3333 13.2667 19.3333 13.6 19.3333 13.9333C18.9999 13.9333 18.6666 13.9333 18.3333 13.9333C18.3333 13.6 18.3333 13.2667 18.3333 12.9333Z" fill="#E5E6E5"/>
<path fill-rule="evenodd" clip-rule="evenodd" d="M23.3333 12.9333C23.3333 13.2667 23.3333 13.6 23.3333 13.9333C22.9999 13.9333 22.6666 13.9333 22.3333 13.9333C22.3333 13.6 22.3333 13.2667 22.3333 12.9333C22.6666 12.9333 22.9999 12.9333 23.3333 12.9333Z" fill="#E5E6E5"/>
<path fill-rule="evenodd" clip-rule="evenodd" d="M26.7998 12.9333C26.9776 12.9333 27.1553 12.9333 27.3331 12.9333C27.3331 13.2667 27.3331 13.6 27.3331 13.9333C27.1553 13.9333 26.9776 13.9333 26.7998 13.9333C26.7998 13.6 26.7998 13.2667 26.7998 12.9333Z" fill="#E7E6E7"/>
<path fill-rule="evenodd" clip-rule="evenodd" d="M27.3333 12.9333C27.6666 12.9333 27.9999 12.9333 28.3333 12.9333C28.3333 13.2667 28.3333 13.6 28.3333 13.9333C27.9999 13.9333 27.6666 13.9333 27.3333 13.9333C27.3333 13.6 27.3333 13.2667 27.3333 12.9333Z" fill="#FEFFFE"/>
<path fill-rule="evenodd" clip-rule="evenodd" d="M28.3333 12.9333C28.6666 12.9333 28.9999 12.9333 29.3333 12.9333C29.3333 13.2667 29.3333 13.6 29.3333 13.9333C28.9999 13.9333 28.6666 13.9333 28.3333 13.9333C28.3333 13.6 28.3333 13.2667 28.3333 12.9333Z" fill="#E5E6E5"/>
<path fill-rule="evenodd" clip-rule="evenodd" d="M5.33325 13.9333C5.66659 13.9333 5.99992 13.9333 6.33325 13.9333C6.33325 14.2667 6.33325 14.6 6.33325 14.9333C5.99992 14.9333 5.66659 14.9333 5.33325 14.9333C5.33325 14.6 5.33325 14.2667 5.33325 13.9333Z" fill="#E5E6E5"/>
<path fill-rule="evenodd" clip-rule="evenodd" d="M12.3333 13.9333C12.3333 14.2667 12.3333 14.6 12.3333 14.9333C11.9999 14.9333 11.6666 14.9333 11.3333 14.9333C11.3333 14.6 11.3333 14.2667 11.3333 13.9333C11.6666 13.9333 11.9999 13.9333 12.3333 13.9333Z" fill="#E5E6E5"/>
<path fill-rule="evenodd" clip-rule="evenodd" d="M12.3333 13.9333C12.6666 13.9333 12.9999 13.9333 13.3333 13.9333C13.3333 14.2667 13.3333 14.6 13.3333 14.9333C12.9999 14.9333 12.6666 14.9333 12.3333 14.9333C12.3333 14.6 12.3333 14.2667 12.3333 13.9333Z" fill="#FEFFFE"/>
<path fill-rule="evenodd" clip-rule="evenodd" d="M13.3333 13.9333C13.6666 13.9333 13.9999 13.9333 14.3333 13.9333C14.3367 14.0935 14.3145 14.2491 14.2666 14.4C13.9965 14.6059 13.8077 14.8726 13.6999 15.2C13.6443 15.5223 13.5888 15.8445 13.5333 16.1667C13.5555 16.2445 13.5777 16.3222 13.5999 16.4C14.8418 16.1432 16.0863 15.8988 17.3333 15.6667C17.3333 15.7555 17.3333 15.8445 17.3333 15.9333C16.9999 15.9333 16.6666 15.9333 16.3333 15.9333C16.3333 16.2667 16.3333 16.6 16.3333 16.9333C15.9999 16.9333 15.6666 16.9333 15.3333 16.9333C15.3333 17.2667 15.3333 17.6 15.3333 17.9333C14.9999 17.9333 14.6666 17.9333 14.3333 17.9333C14.3333 17.6 14.3333 17.2667 14.3333 16.9333C13.9999 16.9333 13.6666 16.9333 13.3333 16.9333C13.3333 16.6 13.3333 16.2667 13.3333 15.9333C12.9999 15.9333 12.6666 15.9333 12.3333 15.9333C12.3333 15.6 12.3333 15.2667 12.3333 14.9333C12.6666 14.9333 12.9999 14.9333 13.3333 14.9333C13.3333 14.6 13.3333 14.2667 13.3333 13.9333Z" fill="#EAEAEA"/>
<path fill-rule="evenodd" clip-rule="evenodd" d="M17.3333 13.9333C17.6666 13.9333 17.9999 13.9333 18.3333 13.9333C18.3333 14.2667 18.3333 14.6 18.3333 14.9333C18.1999 14.9333 18.0666 14.9333 17.9333 14.9333C17.9432 14.8632 17.9321 14.7965 17.8999 14.7333C17.8859 14.8372 17.8526 14.9261 17.7999 15C17.8482 14.6069 17.6927 14.3403 17.3333 14.2C17.3617 14.1315 17.3617 14.0426 17.3333 13.9333Z" fill="#E5E6E5"/>
<path fill-rule="evenodd" clip-rule="evenodd" d="M18.3333 13.9333C18.6666 13.9333 18.9999 13.9333 19.3333 13.9333C19.3333 14.2667 19.3333 14.6 19.3333 14.9333C18.9999 14.9333 18.6666 14.9333 18.3333 14.9333C18.3333 14.6 18.3333 14.2667 18.3333 13.9333Z" fill="#FEFFFE"/>
<path fill-rule="evenodd" clip-rule="evenodd" d="M19.3333 13.9333C19.6666 13.9333 19.9999 13.9333 20.3333 13.9333C20.3333 14.2667 20.3333 14.6 20.3333 14.9333C19.9999 14.9333 19.6666 14.9333 19.3333 14.9333C19.3333 14.6 19.3333 14.2667 19.3333 13.9333Z" fill="#E5E6E5"/>
<path fill-rule="evenodd" clip-rule="evenodd" d="M23.3333 13.9333C23.6666 13.9333 23.9999 13.9333 24.3333 13.9333C24.3333 14.2667 24.3333 14.6 24.3333 14.9333C23.9999 14.9333 23.6666 14.9333 23.3333 14.9333C23.3333 14.6 23.3333 14.2667 23.3333 13.9333Z" fill="#E5E6E5"/>
<path fill-rule="evenodd" clip-rule="evenodd" d="M26.7998 13.9333C26.9776 13.9333 27.1553 13.9333 27.3331 13.9333C27.3331 14.2667 27.3331 14.6 27.3331 14.9333C27.1553 14.9333 26.9776 14.9333 26.7998 14.9333C26.7998 14.6 26.7998 14.2667 26.7998 13.9333Z" fill="#FEFFFE"/>
<path fill-rule="evenodd" clip-rule="evenodd" d="M27.3333 13.9333C27.6666 13.9333 27.9999 13.9333 28.3333 13.9333C28.3333 14.2667 28.3333 14.6 28.3333 14.9333C27.9999 14.9333 27.6666 14.9333 27.3333 14.9333C27.3333 14.6 27.3333 14.2667 27.3333 13.9333Z" fill="#E5E6E5"/>
<path fill-rule="evenodd" clip-rule="evenodd" d="M17.3332 14.2C17.6926 14.3403 17.8481 14.607 17.7999 15C17.775 15.3172 17.6195 15.5394 17.3332 15.6667C16.0862 15.8988 14.8417 16.1432 13.5999 16.4C13.5777 16.3222 13.5554 16.2445 13.5332 16.1667C13.5887 15.8445 13.6443 15.5223 13.6999 15.2C13.8076 14.8726 13.9965 14.606 14.2665 14.4C14.5754 14.2282 14.9087 14.1282 15.2665 14.1C15.961 14.0407 16.6499 14.074 17.3332 14.2Z" fill="#0C9848"/>
<path fill-rule="evenodd" clip-rule="evenodd" d="M3.79983 12.9333C3.97763 12.9333 4.15536 12.9333 4.33316 12.9333C4.33316 13.2667 4.33316 13.6 4.33316 13.9333C4.6665 13.9333 4.99983 13.9333 5.33316 13.9333C5.33316 14.2667 5.33316 14.6 5.33316 14.9333C4.99983 14.9333 4.6665 14.9333 4.33316 14.9333C4.33316 15.2667 4.33316 15.6 4.33316 15.9333C4.6665 15.9333 4.99983 15.9333 5.33316 15.9333C5.33316 16.2667 5.33316 16.6 5.33316 16.9333C4.99983 16.9333 4.6665 16.9333 4.33316 16.9333C4.33316 17.2667 4.33316 17.6 4.33316 17.9333C4.6665 17.9333 4.99983 17.9333 5.33316 17.9333C5.33316 18.2667 5.33316 18.6 5.33316 18.9333C4.99983 18.9333 4.6665 18.9333 4.33316 18.9333C4.33316 19.2667 4.33316 19.6 4.33316 19.9333C4.22203 19.9333 4.11096 19.9333 3.99983 19.9333C3.99983 20.0222 3.99983 20.1111 3.99983 20.2C3.90943 19.9949 3.8539 19.7727 3.83316 19.5333C3.79983 17.3335 3.7887 15.1335 3.79983 12.9333Z" fill="#FAF9FA"/>
<path fill-rule="evenodd" clip-rule="evenodd" d="M5.33325 14.9333C5.33325 15.2667 5.33325 15.6 5.33325 15.9333C4.99992 15.9333 4.66659 15.9333 4.33325 15.9333C4.33325 15.6 4.33325 15.2667 4.33325 14.9333C4.66659 14.9333 4.99992 14.9333 5.33325 14.9333Z" fill="#E5E6E5"/>
<path fill-rule="evenodd" clip-rule="evenodd" d="M11.3332 14.9333C11.3332 15.2667 11.3332 15.6 11.3332 15.9333C11.111 15.9333 10.8887 15.9333 10.6665 15.9333C10.6844 15.8267 10.6621 15.7379 10.5999 15.6667C10.6237 15.4541 10.6682 15.2541 10.7332 15.0667C10.7245 15.1159 10.7356 15.1604 10.7665 15.2C10.7992 15.1138 10.8103 15.0249 10.7999 14.9333C10.9777 14.9333 11.1554 14.9333 11.3332 14.9333Z" fill="#E5E5E5"/>
<path fill-rule="evenodd" clip-rule="evenodd" d="M11.3333 14.9333C11.6666 14.9333 11.9999 14.9333 12.3333 14.9333C12.3333 15.2667 12.3333 15.6 12.3333 15.9333C11.9999 15.9333 11.6666 15.9333 11.3333 15.9333C11.3333 15.6 11.3333 15.2667 11.3333 14.9333Z" fill="#FEFFFE"/>
<path fill-rule="evenodd" clip-rule="evenodd" d="M18.3333 14.9333C18.3333 15.2667 18.3333 15.6 18.3333 15.9333C17.9999 15.9333 17.6666 15.9333 17.3333 15.9333C17.3333 15.8445 17.3333 15.7555 17.3333 15.6667C17.6195 15.5394 17.7751 15.3172 17.7999 15C17.8526 14.9261 17.8859 14.8372 17.8999 14.7333C17.9321 14.7965 17.9432 14.8632 17.9333 14.9333C18.0666 14.9333 18.1999 14.9333 18.3333 14.9333Z" fill="#FDFDFD"/>
<path fill-rule="evenodd" clip-rule="evenodd" d="M18.3333 14.9333C18.6666 14.9333 18.9999 14.9333 19.3333 14.9333C19.3333 15.2667 19.3333 15.6 19.3333 15.9333C18.9999 15.9333 18.6666 15.9333 18.3333 15.9333C18.3333 15.6 18.3333 15.2667 18.3333 14.9333Z" fill="#E5E6E5"/>
<path fill-rule="evenodd" clip-rule="evenodd" d="M19.3333 14.9333C19.6666 14.9333 19.9999 14.9333 20.3333 14.9333C20.3333 15.2667 20.3333 15.6 20.3333 15.9333C19.9999 15.9333 19.6666 15.9333 19.3333 15.9333C19.3333 15.6 19.3333 15.2667 19.3333 14.9333Z" fill="#FEFFFE"/>
<path fill-rule="evenodd" clip-rule="evenodd" d="M22.1331 8.26666C22.1585 8.50792 22.2252 8.73013 22.3331 8.93333C22.3331 9.26666 22.3331 9.6 22.3331 9.93333C22.6665 9.93333 22.9998 9.93333 23.3331 9.93333C23.3331 10.2667 23.3331 10.6 23.3331 10.9333C22.9998 10.9333 22.6665 10.9333 22.3331 10.9333C22.3331 11.2667 22.3331 11.6 22.3331 11.9333C22.6665 11.9333 22.9998 11.9333 23.3331 11.9333C23.3331 12.2667 23.3331 12.6 23.3331 12.9333C22.9998 12.9333 22.6665 12.9333 22.3331 12.9333C22.3331 13.2667 22.3331 13.6 22.3331 13.9333C22.6665 13.9333 22.9998 13.9333 23.3331 13.9333C23.3331 14.2667 23.3331 14.6 23.3331 14.9333C22.9998 14.9333 22.6665 14.9333 22.3331 14.9333C22.3331 15.2667 22.3331 15.6 22.3331 15.9333C22.6665 15.9333 22.9998 15.9333 23.3331 15.9333C23.3331 16.2667 23.3331 16.6 23.3331 16.9333C22.9998 16.9333 22.6665 16.9333 22.3331 16.9333C22.3331 17.2667 22.3331 17.6 22.3331 17.9333C22.6665 17.9333 22.9998 17.9333 23.3331 17.9333C23.3331 18.2667 23.3331 18.6 23.3331 18.9333C22.9998 18.9333 22.6665 18.9333 22.3331 18.9333C22.3331 19.2667 22.3331 19.6 22.3331 19.9333C22.6665 19.9333 22.9998 19.9333 23.3331 19.9333C23.3331 20.2667 23.3331 20.6 23.3331 20.9333C23.6665 20.9333 23.9998 20.9333 24.3331 20.9333C24.3331 21.2667 24.3331 21.6 24.3331 21.9333C24.5693 21.9125 24.7915 21.9347 24.9998 22C25.003 22.1861 24.9141 22.3083 24.7331 22.3667C23.9553 22.4111 23.1776 22.4111 22.3998 22.3667C22.2458 22.2575 22.1458 22.1131 22.0998 21.9333C22.0447 17.3751 22.0558 12.8195 22.1331 8.26666Z" fill="#F6F9F7"/>
<path fill-rule="evenodd" clip-rule="evenodd" d="M23.3333 14.9333C23.3333 15.2667 23.3333 15.6 23.3333 15.9333C22.9999 15.9333 22.6666 15.9333 22.3333 15.9333C22.3333 15.6 22.3333 15.2667 22.3333 14.9333C22.6666 14.9333 22.9999 14.9333 23.3333 14.9333Z" fill="#E5E6E5"/>
<path fill-rule="evenodd" clip-rule="evenodd" d="M26.7998 14.9333C26.9776 14.9333 27.1553 14.9333 27.3331 14.9333C27.3331 15.2667 27.3331 15.6 27.3331 15.9333C27.1553 15.9333 26.9776 15.9333 26.7998 15.9333C26.7998 15.6 26.7998 15.2667 26.7998 14.9333Z" fill="#E7E6E7"/>
<path fill-rule="evenodd" clip-rule="evenodd" d="M27.3333 14.9333C27.6666 14.9333 27.9999 14.9333 28.3333 14.9333C28.3333 15.2667 28.3333 15.6 28.3333 15.9333C27.9999 15.9333 27.6666 15.9333 27.3333 15.9333C27.3333 15.6 27.3333 15.2667 27.3333 14.9333Z" fill="#FEFFFE"/>
<path fill-rule="evenodd" clip-rule="evenodd" d="M28.3333 14.9333C28.6666 14.9333 28.9999 14.9333 29.3333 14.9333C29.3333 15.2667 29.3333 15.6 29.3333 15.9333C28.9999 15.9333 28.6666 15.9333 28.3333 15.9333C28.3333 15.6 28.3333 15.2667 28.3333 14.9333Z" fill="#E5E6E5"/>
<path fill-rule="evenodd" clip-rule="evenodd" d="M5.33325 15.9333C5.66659 15.9333 5.99992 15.9333 6.33325 15.9333C6.33325 16.2667 6.33325 16.6 6.33325 16.9333C5.99992 16.9333 5.66659 16.9333 5.33325 16.9333C5.33325 16.6 5.33325 16.2667 5.33325 15.9333Z" fill="#E5E6E5"/>
<path fill-rule="evenodd" clip-rule="evenodd" d="M10.5999 15.6667C10.6622 15.7379 10.6844 15.8268 10.6666 15.9334C10.8888 15.9334 11.111 15.9334 11.3332 15.9334C11.3332 16.2667 11.3332 16.6 11.3332 16.9334C11.0599 16.9158 10.7932 16.938 10.5332 17C10.5223 16.5532 10.5445 16.1088 10.5999 15.6667Z" fill="#FCFDFC"/>
<path fill-rule="evenodd" clip-rule="evenodd" d="M11.3333 15.9333C11.6666 15.9333 11.9999 15.9333 12.3333 15.9333C12.3333 16.2667 12.3333 16.6 12.3333 16.9333C11.9999 16.9333 11.6666 16.9333 11.3333 16.9333C11.3333 16.6 11.3333 16.2667 11.3333 15.9333Z" fill="#E5E6E5"/>
<path fill-rule="evenodd" clip-rule="evenodd" d="M12.3333 15.9333C12.6666 15.9333 12.9999 15.9333 13.3333 15.9333C13.3333 16.2667 13.3333 16.6 13.3333 16.9333C12.9999 16.9333 12.6666 16.9333 12.3333 16.9333C12.3333 16.6 12.3333 16.2667 12.3333 15.9333Z" fill="#FEFFFE"/>
<path fill-rule="evenodd" clip-rule="evenodd" d="M17.3333 15.9333C17.3333 16.2667 17.3333 16.6 17.3333 16.9333C16.9999 16.9333 16.6666 16.9333 16.3333 16.9333C16.3333 16.6 16.3333 16.2667 16.3333 15.9333C16.6666 15.9333 16.9999 15.9333 17.3333 15.9333Z" fill="#FEFFFE"/>
<path fill-rule="evenodd" clip-rule="evenodd" d="M17.3333 15.9333C17.6666 15.9333 17.9999 15.9333 18.3333 15.9333C18.3333 16.2667 18.3333 16.6 18.3333 16.9333C17.9999 16.9333 17.6666 16.9333 17.3333 16.9333C17.3333 16.6 17.3333 16.2667 17.3333 15.9333Z" fill="#E5E6E5"/>
<path fill-rule="evenodd" clip-rule="evenodd" d="M18.3333 15.9333C18.6666 15.9333 18.9999 15.9333 19.3333 15.9333C19.3333 16.2667 19.3333 16.6 19.3333 16.9333C18.9999 16.9333 18.6666 16.9333 18.3333 16.9333C18.3333 16.6 18.3333 16.2667 18.3333 15.9333Z" fill="#FEFFFE"/>
<path fill-rule="evenodd" clip-rule="evenodd" d="M20.3333 14.9333C20.4666 14.9333 20.5999 14.9333 20.7333 14.9333C20.7129 15.1257 20.7351 15.3035 20.7999 15.4667C20.557 16.7543 19.8015 17.5765 18.5333 17.9333C18.486 17.8731 18.4193 17.8509 18.3333 17.8667C18.3333 17.5555 18.3333 17.2445 18.3333 16.9333C18.6666 16.9333 18.9999 16.9333 19.3333 16.9333C19.3333 16.6 19.3333 16.2667 19.3333 15.9333C19.6666 15.9333 19.9999 15.9333 20.3333 15.9333C20.3333 15.6 20.3333 15.2667 20.3333 14.9333Z" fill="#E9E9E9"/>
<path fill-rule="evenodd" clip-rule="evenodd" d="M23.3333 15.9333C23.6666 15.9333 23.9999 15.9333 24.3333 15.9333C24.3333 16.2667 24.3333 16.6 24.3333 16.9333C23.9999 16.9333 23.6666 16.9333 23.3333 16.9333C23.3333 16.6 23.3333 16.2667 23.3333 15.9333Z" fill="#E5E6E5"/>
<path fill-rule="evenodd" clip-rule="evenodd" d="M26.7998 15.9333C26.9776 15.9333 27.1553 15.9333 27.3331 15.9333C27.3331 16.2667 27.3331 16.6 27.3331 16.9333C27.1553 16.9333 26.9776 16.9333 26.7998 16.9333C26.7998 16.6 26.7998 16.2667 26.7998 15.9333Z" fill="#FEFFFE"/>
<path fill-rule="evenodd" clip-rule="evenodd" d="M27.3333 15.9333C27.6666 15.9333 27.9999 15.9333 28.3333 15.9333C28.3333 16.2667 28.3333 16.6 28.3333 16.9333C27.9999 16.9333 27.6666 16.9333 27.3333 16.9333C27.3333 16.6 27.3333 16.2667 27.3333 15.9333Z" fill="#E5E6E5"/>
<path fill-rule="evenodd" clip-rule="evenodd" d="M5.33325 16.9333C5.33325 17.2667 5.33325 17.6 5.33325 17.9333C4.99992 17.9333 4.66659 17.9333 4.33325 17.9333C4.33325 17.6 4.33325 17.2667 4.33325 16.9333C4.66659 16.9333 4.99992 16.9333 5.33325 16.9333Z" fill="#E5E6E5"/>
<path fill-rule="evenodd" clip-rule="evenodd" d="M11.3333 16.9334C11.3333 17.2667 11.3333 17.6 11.3333 17.9334C11.1111 17.9334 10.8888 17.9334 10.6666 17.9334C10.6776 17.71 10.6665 17.4878 10.6333 17.2667C10.6002 17.4207 10.5891 17.5762 10.6 17.7334C10.5345 17.5026 10.5123 17.2581 10.5333 17C10.7933 16.938 11.06 16.9158 11.3333 16.9334Z" fill="#E5E5E5"/>
<path fill-rule="evenodd" clip-rule="evenodd" d="M11.3333 16.9333C11.6666 16.9333 11.9999 16.9333 12.3333 16.9333C12.3333 17.2667 12.3333 17.6 12.3333 17.9333C11.9999 17.9333 11.6666 17.9333 11.3333 17.9333C11.3333 17.6 11.3333 17.2667 11.3333 16.9333Z" fill="#FEFFFE"/>
<path fill-rule="evenodd" clip-rule="evenodd" d="M12.3333 16.9333C12.6666 16.9333 12.9999 16.9333 13.3333 16.9333C13.3333 17.2667 13.3333 17.6 13.3333 17.9333C12.9999 17.9333 12.6666 17.9333 12.3333 17.9333C12.3333 17.6 12.3333 17.2667 12.3333 16.9333Z" fill="#E5E6E5"/>
<path fill-rule="evenodd" clip-rule="evenodd" d="M13.3333 16.9333C13.6666 16.9333 13.9999 16.9333 14.3333 16.9333C14.3333 17.2667 14.3333 17.6 14.3333 17.9333C13.9999 17.9333 13.6666 17.9333 13.3333 17.9333C13.3333 17.6 13.3333 17.2667 13.3333 16.9333Z" fill="#FEFFFE"/>
<path fill-rule="evenodd" clip-rule="evenodd" d="M23.3333 16.9333C23.3333 17.2667 23.3333 17.6 23.3333 17.9333C22.9999 17.9333 22.6666 17.9333 22.3333 17.9333C22.3333 17.6 22.3333 17.2667 22.3333 16.9333C22.6666 16.9333 22.9999 16.9333 23.3333 16.9333Z" fill="#E5E6E5"/>
<path fill-rule="evenodd" clip-rule="evenodd" d="M26.7998 16.9333C26.9776 16.9333 27.1553 16.9333 27.3331 16.9333C27.3331 17.2667 27.3331 17.6 27.3331 17.9333C27.1553 17.9333 26.9776 17.9333 26.7998 17.9333C26.7998 17.6 26.7998 17.2667 26.7998 16.9333Z" fill="#E7E6E7"/>
<path fill-rule="evenodd" clip-rule="evenodd" d="M27.3333 16.9333C27.6666 16.9333 27.9999 16.9333 28.3333 16.9333C28.3333 17.2667 28.3333 17.6 28.3333 17.9333C27.9999 17.9333 27.6666 17.9333 27.3333 17.9333C27.3333 17.6 27.3333 17.2667 27.3333 16.9333Z" fill="#FEFFFE"/>
<path fill-rule="evenodd" clip-rule="evenodd" d="M28.3333 16.9333C28.6666 16.9333 28.9999 16.9333 29.3333 16.9333C29.3333 17.2667 29.3333 17.6 29.3333 17.9333C28.9999 17.9333 28.6666 17.9333 28.3333 17.9333C28.3333 17.6 28.3333 17.2667 28.3333 16.9333Z" fill="#E5E6E5"/>
<path fill-rule="evenodd" clip-rule="evenodd" d="M29.3334 10.9333C29.4667 10.9333 29.6 10.9333 29.7334 10.9333C29.7445 14.6667 29.7334 18.4001 29.7 22.1334C29.6222 22.2112 29.5445 22.2889 29.4667 22.3667C28.6889 22.4112 27.9112 22.4112 27.1334 22.3667C26.9599 22.3044 26.8599 22.1822 26.8334 22C26.8001 21.6452 26.789 21.2896 26.8 20.9334C26.9778 20.9334 27.1556 20.9334 27.3334 20.9334C27.6667 20.9334 28 20.9334 28.3334 20.9334C28.3334 20.6 28.3334 20.2667 28.3334 19.9334C28.6667 19.9334 29 19.9334 29.3334 19.9334C29.3334 19.6 29.3334 19.2667 29.3334 18.9334C29 18.9334 28.6667 18.9334 28.3334 18.9334C28.3334 18.6 28.3334 18.2667 28.3334 17.9333C28.6667 17.9333 29 17.9333 29.3334 17.9333C29.3334 17.6 29.3334 17.2667 29.3334 16.9333C29 16.9333 28.6667 16.9333 28.3334 16.9333C28.3334 16.6 28.3334 16.2667 28.3334 15.9333C28.6667 15.9333 29 15.9333 29.3334 15.9333C29.3334 15.6 29.3334 15.2667 29.3334 14.9333C29 14.9333 28.6667 14.9333 28.3334 14.9333C28.3334 14.6 28.3334 14.2667 28.3334 13.9333C28.6667 13.9333 29 13.9333 29.3334 13.9333C29.3334 13.6 29.3334 13.2667 29.3334 12.9333C29 12.9333 28.6667 12.9333 28.3334 12.9333C28.3334 12.6 28.3334 12.2667 28.3334 11.9333C28.6667 11.9333 29 11.9333 29.3334 11.9333C29.3334 11.6 29.3334 11.2667 29.3334 10.9333Z" fill="#F9F8F9"/>
<path fill-rule="evenodd" clip-rule="evenodd" d="M5.33325 17.9333C5.66659 17.9333 5.99992 17.9333 6.33325 17.9333C6.33325 18.2667 6.33325 18.6 6.33325 18.9333C5.99992 18.9333 5.66659 18.9333 5.33325 18.9333C5.33325 18.6 5.33325 18.2667 5.33325 17.9333Z" fill="#E5E6E5"/>
<path fill-rule="evenodd" clip-rule="evenodd" d="M7.33325 12.9333C7.66659 12.9333 7.99992 12.9333 8.33325 12.9333C8.33325 13.2667 8.33325 13.6 8.33325 13.9333C8.66659 13.9333 8.99992 13.9333 9.33325 13.9333C9.33325 13.6 9.33325 13.2667 9.33325 12.9333C9.48879 12.9333 9.64439 12.9333 9.79992 12.9333C9.81099 13.2674 9.79985 13.6007 9.76659 13.9333C9.71105 14.0333 9.63325 14.1111 9.53325 14.1667C8.60019 14.2 7.66685 14.2111 6.73325 14.2C6.70172 15.9821 6.73505 17.7599 6.83325 19.5333C6.94845 19.7635 7.13739 19.8857 7.39992 19.9C7.84525 19.9316 8.28965 19.9205 8.73325 19.8667C8.94659 19.9025 9.13552 19.9247 9.29992 19.9333C9.33319 20.2659 9.34432 20.5993 9.33325 20.9334C8.99992 20.9334 8.66659 20.9334 8.33325 20.9334C8.33325 20.6222 8.33325 20.3111 8.33325 20C7.99992 20 7.66659 20 7.33325 20C7.33325 20.3111 7.33325 20.6222 7.33325 20.9334C6.99992 20.9334 6.66659 20.9334 6.33325 20.9334C6.33325 20.6 6.33325 20.2667 6.33325 19.9333C5.99992 19.9333 5.66659 19.9333 5.33325 19.9333C5.33325 19.6 5.33325 19.2667 5.33325 18.9333C5.66659 18.9333 5.99992 18.9333 6.33325 18.9333C6.33325 18.6 6.33325 18.2667 6.33325 17.9333C5.99992 17.9333 5.66659 17.9333 5.33325 17.9333C5.33325 17.6 5.33325 17.2667 5.33325 16.9333C5.66659 16.9333 5.99992 16.9333 6.33325 16.9333C6.33325 16.6 6.33325 16.2667 6.33325 15.9333C5.99992 15.9333 5.66659 15.9333 5.33325 15.9333C5.33325 15.6 5.33325 15.2667 5.33325 14.9333C5.66659 14.9333 5.99992 14.9333 6.33325 14.9333C6.33325 14.6 6.33325 14.2667 6.33325 13.9333C6.66659 13.9333 6.99992 13.9333 7.33325 13.9333C7.33325 13.6 7.33325 13.2667 7.33325 12.9333Z" fill="#FAFAFA"/>
<path fill-rule="evenodd" clip-rule="evenodd" d="M8.33325 12.9333C8.66659 12.9333 8.99992 12.9333 9.33325 12.9333C9.33325 13.2667 9.33325 13.6 9.33325 13.9333C8.99992 13.9333 8.66659 13.9333 8.33325 13.9333C8.33325 13.6 8.33325 13.2667 8.33325 12.9333Z" fill="#E5E6E5"/>
<path fill-rule="evenodd" clip-rule="evenodd" d="M11.3333 17.9333C11.3333 18.2667 11.3333 18.6 11.3333 18.9333C11.1333 18.9333 10.9333 18.9333 10.7333 18.9333C10.6453 18.5393 10.6008 18.1393 10.6 17.7333C10.5891 17.5762 10.6002 17.4207 10.6333 17.2667C10.6665 17.4878 10.6776 17.71 10.6666 17.9333C10.8888 17.9333 11.1111 17.9333 11.3333 17.9333Z" fill="#FEFDFD"/>
<path fill-rule="evenodd" clip-rule="evenodd" d="M11.3333 17.9333C11.6666 17.9333 11.9999 17.9333 12.3333 17.9333C12.3333 18.2667 12.3333 18.6 12.3333 18.9333C11.9999 18.9333 11.6666 18.9333 11.3333 18.9333C11.3333 18.6 11.3333 18.2667 11.3333 17.9333Z" fill="#E5E6E5"/>
<path fill-rule="evenodd" clip-rule="evenodd" d="M12.3333 17.9333C12.6666 17.9333 12.9999 17.9333 13.3333 17.9333C13.3333 18.2667 13.3333 18.6 13.3333 18.9333C12.9999 18.9333 12.6666 18.9333 12.3333 18.9333C12.3333 18.6 12.3333 18.2667 12.3333 17.9333Z" fill="#FEFFFE"/>
<path fill-rule="evenodd" clip-rule="evenodd" d="M13.3333 17.9333C13.6666 17.9333 13.9999 17.9333 14.3333 17.9333C14.3525 18.1737 14.3303 18.4071 14.2666 18.6333C14.3298 18.6655 14.3965 18.6766 14.4666 18.6667C14.2379 18.709 14.0157 18.7757 13.7999 18.8667C13.6521 18.9246 13.4966 18.9468 13.3333 18.9333C13.3333 18.6 13.3333 18.2667 13.3333 17.9333Z" fill="#E6E6E6"/>
<path fill-rule="evenodd" clip-rule="evenodd" d="M16.3333 16.9333C16.3333 17.2667 16.3333 17.6 16.3333 17.9333C16.6666 17.9333 16.9999 17.9333 17.3333 17.9333C17.3333 17.6 17.3333 17.2667 17.3333 16.9333C17.6666 16.9333 17.9999 16.9333 18.3333 16.9333C18.3333 17.2445 18.3333 17.5555 18.3333 17.8667C18.4193 17.8509 18.486 17.8731 18.5333 17.9333C17.1839 18.2095 15.8283 18.454 14.4666 18.6667C14.3965 18.6766 14.3298 18.6655 14.2666 18.6333C14.3303 18.4071 14.3525 18.1737 14.3333 17.9333C14.6666 17.9333 14.9999 17.9333 15.3333 17.9333C15.3333 17.6 15.3333 17.2667 15.3333 16.9333C15.6666 16.9333 15.9999 16.9333 16.3333 16.9333Z" fill="#F9F9F9"/>
<path fill-rule="evenodd" clip-rule="evenodd" d="M16.3333 16.9333C16.6666 16.9333 16.9999 16.9333 17.3333 16.9333C17.3333 17.2667 17.3333 17.6 17.3333 17.9333C16.9999 17.9333 16.6666 17.9333 16.3333 17.9333C16.3333 17.6 16.3333 17.2667 16.3333 16.9333Z" fill="#E5E6E5"/>
<path fill-rule="evenodd" clip-rule="evenodd" d="M23.3333 17.9333C23.6666 17.9333 23.9999 17.9333 24.3333 17.9333C24.3333 18.2667 24.3333 18.6 24.3333 18.9333C23.9999 18.9333 23.6666 18.9333 23.3333 18.9333C23.3333 18.6 23.3333 18.2667 23.3333 17.9333Z" fill="#E5E6E5"/>
<path fill-rule="evenodd" clip-rule="evenodd" d="M26.7998 17.9333C26.9776 17.9333 27.1553 17.9333 27.3331 17.9333C27.3331 18.2667 27.3331 18.6 27.3331 18.9333C27.1553 18.9333 26.9776 18.9333 26.7998 18.9333C26.7998 18.6 26.7998 18.2667 26.7998 17.9333Z" fill="#FEFFFE"/>
<path fill-rule="evenodd" clip-rule="evenodd" d="M27.3333 17.9333C27.6666 17.9333 27.9999 17.9333 28.3333 17.9333C28.3333 18.2667 28.3333 18.6 28.3333 18.9333C27.9999 18.9333 27.6666 18.9333 27.3333 18.9333C27.3333 18.6 27.3333 18.2667 27.3333 17.9333Z" fill="#E5E6E5"/>
<path fill-rule="evenodd" clip-rule="evenodd" d="M5.33325 18.9333C5.33325 19.2667 5.33325 19.6 5.33325 19.9333C4.99992 19.9333 4.66659 19.9333 4.33325 19.9333C4.33325 19.6 4.33325 19.2667 4.33325 18.9333C4.66659 18.9333 4.99992 18.9333 5.33325 18.9333Z" fill="#E5E6E5"/>
<path fill-rule="evenodd" clip-rule="evenodd" d="M11.3333 18.9333C11.6666 18.9333 11.9999 18.9333 12.3333 18.9333C12.3333 19.2667 12.3333 19.6 12.3333 19.9333C11.9999 19.9333 11.6666 19.9333 11.3333 19.9333C11.3333 19.6 11.3333 19.2667 11.3333 18.9333Z" fill="#FEFFFE"/>
<path fill-rule="evenodd" clip-rule="evenodd" d="M12.3333 18.9333C12.6666 18.9333 12.9999 18.9333 13.3333 18.9333C13.3333 19.2667 13.3333 19.6 13.3333 19.9333C12.9999 19.9333 12.6666 19.9333 12.3333 19.9333C12.3333 19.6 12.3333 19.2667 12.3333 18.9333Z" fill="#E5E6E5"/>
<path fill-rule="evenodd" clip-rule="evenodd" d="M23.3333 18.9333C23.3333 19.2667 23.3333 19.6 23.3333 19.9333C22.9999 19.9333 22.6666 19.9333 22.3333 19.9333C22.3333 19.6 22.3333 19.2667 22.3333 18.9333C22.6666 18.9333 22.9999 18.9333 23.3333 18.9333Z" fill="#E5E6E5"/>
<path fill-rule="evenodd" clip-rule="evenodd" d="M26.7998 18.9333C26.9776 18.9333 27.1553 18.9333 27.3331 18.9333C27.3331 19.2667 27.3331 19.6 27.3331 19.9333C27.1553 19.9333 26.9776 19.9333 26.7998 19.9333C26.7998 19.6 26.7998 19.2667 26.7998 18.9333Z" fill="#E7E6E7"/>
<path fill-rule="evenodd" clip-rule="evenodd" d="M27.3333 18.9333C27.6666 18.9333 27.9999 18.9333 28.3333 18.9333C28.3333 19.2667 28.3333 19.6 28.3333 19.9333C27.9999 19.9333 27.6666 19.9333 27.3333 19.9333C27.3333 19.6 27.3333 19.2667 27.3333 18.9333Z" fill="#FEFFFE"/>
<path fill-rule="evenodd" clip-rule="evenodd" d="M28.3333 18.9333C28.6666 18.9333 28.9999 18.9333 29.3333 18.9333C29.3333 19.2667 29.3333 19.6 29.3333 19.9333C28.9999 19.9333 28.6666 19.9333 28.3333 19.9333C28.3333 19.6 28.3333 19.2667 28.3333 18.9333Z" fill="#E5E6E5"/>
<path fill-rule="evenodd" clip-rule="evenodd" d="M13.7999 18.8667C14.0064 19.3375 14.3619 19.6375 14.8666 19.7667C16.3893 19.8475 17.9116 19.8142 19.4333 19.6667C19.8106 19.6216 20.055 19.7772 20.1666 20.1334C20.5741 21.8251 19.9185 22.6028 18.1999 22.4667C18.1084 22.4772 18.0195 22.466 17.9333 22.4334C18.0648 22.4004 18.1981 22.3892 18.3333 22.4C18.3333 22.2445 18.3333 22.0889 18.3333 21.9334C18.6666 21.9334 18.9999 21.9334 19.3333 21.9334C19.3333 21.6 19.3333 21.2667 19.3333 20.9334C18.9999 20.9334 18.6666 20.9334 18.3333 20.9334C18.3333 20.6 18.3333 20.2667 18.3333 19.9334C17.9999 19.9334 17.6666 19.9334 17.3333 19.9334C17.3333 20.2667 17.3333 20.6 17.3333 20.9334C16.9999 20.9334 16.6666 20.9334 16.3333 20.9334C16.3333 20.6 16.3333 20.2667 16.3333 19.9334C15.9999 19.9334 15.6666 19.9334 15.3333 19.9334C15.3333 20.2667 15.3333 20.6 15.3333 20.9334C14.9999 20.9334 14.6666 20.9334 14.3333 20.9334C14.3333 20.6 14.3333 20.2667 14.3333 19.9334C13.9999 19.9334 13.6666 19.9334 13.3333 19.9334C13.3333 19.6 13.3333 19.2667 13.3333 18.9334C13.4966 18.9468 13.6521 18.9246 13.7999 18.8667Z" fill="#F8F8F8"/>
<path fill-rule="evenodd" clip-rule="evenodd" d="M4.33325 19.9333C4.66659 19.9333 4.99992 19.9333 5.33325 19.9333C5.33325 20.2667 5.33325 20.6 5.33325 20.9333C4.99992 20.9333 4.66659 20.9333 4.33325 20.9333C4.33325 20.6 4.33325 20.2667 4.33325 19.9333Z" fill="#FEFFFE"/>
<path fill-rule="evenodd" clip-rule="evenodd" d="M5.33325 19.9333C5.66659 19.9333 5.99992 19.9333 6.33325 19.9333C6.33325 20.2667 6.33325 20.6 6.33325 20.9333C5.99992 20.9333 5.66659 20.9333 5.33325 20.9333C5.33325 20.6 5.33325 20.2667 5.33325 19.9333Z" fill="#E5E6E5"/>
<path fill-rule="evenodd" clip-rule="evenodd" d="M8.73315 19.8667C9.13482 19.7668 9.53482 19.8002 9.93315 19.9667C10.1697 20.1394 10.2586 20.3728 10.1998 20.6667C10.1376 20.7379 10.1153 20.8268 10.1332 20.9334C9.86649 20.9334 9.59982 20.9334 9.33315 20.9334C9.34422 20.5993 9.33309 20.266 9.29982 19.9334C9.13542 19.9247 8.94649 19.9025 8.73315 19.8667Z" fill="#E7E7E7"/>
<path fill-rule="evenodd" clip-rule="evenodd" d="M12.3333 19.9333C12.6666 19.9333 12.9999 19.9333 13.3333 19.9333C13.3333 20.2667 13.3333 20.6 13.3333 20.9333C12.9999 20.9333 12.6666 20.9333 12.3333 20.9333C12.3333 20.6 12.3333 20.2667 12.3333 19.9333Z" fill="#FEFFFE"/>
<path fill-rule="evenodd" clip-rule="evenodd" d="M13.3333 19.9333C13.6666 19.9333 13.9999 19.9333 14.3333 19.9333C14.3333 20.2667 14.3333 20.6 14.3333 20.9333C13.9999 20.9333 13.6666 20.9333 13.3333 20.9333C13.3333 20.6 13.3333 20.2667 13.3333 19.9333Z" fill="#E5E6E5"/>
<path fill-rule="evenodd" clip-rule="evenodd" d="M16.3333 20.9333C15.9999 20.9333 15.6666 20.9333 15.3333 20.9333C15.3333 20.6 15.3333 20.2667 15.3333 19.9333C15.6666 19.9333 15.9999 19.9333 16.3333 19.9333C16.3333 20.2667 16.3333 20.6 16.3333 20.9333Z" fill="#E5E6E5"/>
<path fill-rule="evenodd" clip-rule="evenodd" d="M18.3333 20.9333C17.9999 20.9333 17.6666 20.9333 17.3333 20.9333C17.3333 20.6 17.3333 20.2667 17.3333 19.9333C17.6666 19.9333 17.9999 19.9333 18.3333 19.9333C18.3333 20.2667 18.3333 20.6 18.3333 20.9333Z" fill="#E5E6E5"/>
<path fill-rule="evenodd" clip-rule="evenodd" d="M23.3333 19.9333C23.6666 19.9333 23.9999 19.9333 24.3333 19.9333C24.3333 20.2667 24.3333 20.6 24.3333 20.9333C23.9999 20.9333 23.6666 20.9333 23.3333 20.9333C23.3333 20.6 23.3333 20.2667 23.3333 19.9333Z" fill="#E5E6E5"/>
<path fill-rule="evenodd" clip-rule="evenodd" d="M26.7998 19.9333C26.9776 19.9333 27.1553 19.9333 27.3331 19.9333C27.3331 20.2667 27.3331 20.6 27.3331 20.9333C27.1553 20.9333 26.9776 20.9333 26.7998 20.9333C26.7998 20.6 26.7998 20.2667 26.7998 19.9333Z" fill="#FEFFFE"/>
<path fill-rule="evenodd" clip-rule="evenodd" d="M27.3333 19.9333C27.6666 19.9333 27.9999 19.9333 28.3333 19.9333C28.3333 20.2667 28.3333 20.6 28.3333 20.9333C27.9999 20.9333 27.6666 20.9333 27.3333 20.9333C27.3333 20.6 27.3333 20.2667 27.3333 19.9333Z" fill="#E5E6E5"/>
<path fill-rule="evenodd" clip-rule="evenodd" d="M8.33325 20.9333C7.99992 20.9333 7.66659 20.9333 7.33325 20.9333C7.33325 20.6222 7.33325 20.3111 7.33325 20C7.66659 20 7.99992 20 8.33325 20C8.33325 20.3111 8.33325 20.6222 8.33325 20.9333Z" fill="#E5E6E5"/>
<path fill-rule="evenodd" clip-rule="evenodd" d="M4.33333 19.9333C4.33333 20.2667 4.33333 20.6 4.33333 20.9333C4.66667 20.9333 5 20.9333 5.33333 20.9333C5.33333 21.2667 5.33333 21.6 5.33333 21.9333C5.66667 21.9333 6 21.9333 6.33333 21.9333C6.33333 22.0889 6.33333 22.2445 6.33333 22.4C5.46587 22.2493 4.78807 21.8049 4.3 21.0667C4.12653 20.8017 4.02653 20.5129 4 20.2C4 20.1111 4 20.0222 4 19.9333C4.11113 19.9333 4.2222 19.9333 4.33333 19.9333Z" fill="#E7E7E7"/>
<path fill-rule="evenodd" clip-rule="evenodd" d="M5.33325 20.9333C5.66659 20.9333 5.99992 20.9333 6.33325 20.9333C6.33325 21.2667 6.33325 21.6 6.33325 21.9333C5.99992 21.9333 5.66659 21.9333 5.33325 21.9333C5.33325 21.6 5.33325 21.2667 5.33325 20.9333Z" fill="#FEFFFE"/>
<path fill-rule="evenodd" clip-rule="evenodd" d="M6.33325 20.9333C6.66659 20.9333 6.99992 20.9333 7.33325 20.9333C7.33325 21.2667 7.33325 21.6 7.33325 21.9333C6.99992 21.9333 6.66659 21.9333 6.33325 21.9333C6.33325 21.6 6.33325 21.2667 6.33325 20.9333Z" fill="#E5E6E5"/>
<path fill-rule="evenodd" clip-rule="evenodd" d="M7.33325 20.9333C7.66659 20.9333 7.99992 20.9333 8.33325 20.9333C8.33325 21.2667 8.33325 21.6 8.33325 21.9333C7.99992 21.9333 7.66659 21.9333 7.33325 21.9333C7.33325 21.6 7.33325 21.2667 7.33325 20.9333Z" fill="#FEFFFE"/>
<path fill-rule="evenodd" clip-rule="evenodd" d="M8.33325 20.9333C8.66659 20.9333 8.99992 20.9333 9.33325 20.9333C9.33325 21.2667 9.33325 21.6 9.33325 21.9333C8.99992 21.9333 8.66659 21.9333 8.33325 21.9333C8.33325 21.6 8.33325 21.2667 8.33325 20.9333Z" fill="#E5E6E5"/>
<path fill-rule="evenodd" clip-rule="evenodd" d="M10.7332 18.9333C10.9332 18.9333 11.1332 18.9333 11.3332 18.9333C11.3332 19.2667 11.3332 19.6 11.3332 19.9333C11.6665 19.9333 11.9998 19.9333 12.3332 19.9333C12.3332 20.2667 12.3332 20.6 12.3332 20.9333C12.6665 20.9333 12.9998 20.9333 13.3332 20.9333C13.3332 21.2667 13.3332 21.6 13.3332 21.9333C13.6665 21.9333 13.9998 21.9333 14.3332 21.9333C14.3466 22.0967 14.3244 22.2522 14.2665 22.4C12.3414 22.0083 11.1636 20.8527 10.7332 18.9333Z" fill="#E8E8E8"/>
<path fill-rule="evenodd" clip-rule="evenodd" d="M13.3333 20.9333C13.6666 20.9333 13.9999 20.9333 14.3333 20.9333C14.3333 21.2667 14.3333 21.6 14.3333 21.9333C13.9999 21.9333 13.6666 21.9333 13.3333 21.9333C13.3333 21.6 13.3333 21.2667 13.3333 20.9333Z" fill="#FEFFFE"/>
<path fill-rule="evenodd" clip-rule="evenodd" d="M14.3333 20.9333C14.6666 20.9333 14.9999 20.9333 15.3333 20.9333C15.3333 21.2667 15.3333 21.6 15.3333 21.9333C14.9999 21.9333 14.6666 21.9333 14.3333 21.9333C14.3333 21.6 14.3333 21.2667 14.3333 20.9333Z" fill="#E5E6E5"/>
<path fill-rule="evenodd" clip-rule="evenodd" d="M15.3333 20.9333C15.6666 20.9333 15.9999 20.9333 16.3333 20.9333C16.3333 21.2667 16.3333 21.6 16.3333 21.9333C15.9999 21.9333 15.6666 21.9333 15.3333 21.9333C15.3333 21.6 15.3333 21.2667 15.3333 20.9333Z" fill="#FEFFFE"/>
<path fill-rule="evenodd" clip-rule="evenodd" d="M16.3333 20.9333C16.6666 20.9333 16.9999 20.9333 17.3333 20.9333C17.3333 21.2667 17.3333 21.6 17.3333 21.9333C16.9999 21.9333 16.6666 21.9333 16.3333 21.9333C16.3333 21.6 16.3333 21.2667 16.3333 20.9333Z" fill="#E5E6E5"/>
<path fill-rule="evenodd" clip-rule="evenodd" d="M17.3333 20.9333C17.6666 20.9333 17.9999 20.9333 18.3333 20.9333C18.3333 21.2667 18.3333 21.6 18.3333 21.9333C17.9999 21.9333 17.6666 21.9333 17.3333 21.9333C17.3333 21.6 17.3333 21.2667 17.3333 20.9333Z" fill="#FEFFFE"/>
<path fill-rule="evenodd" clip-rule="evenodd" d="M18.3333 20.9333C18.6666 20.9333 18.9999 20.9333 19.3333 20.9333C19.3333 21.2667 19.3333 21.6 19.3333 21.9333C18.9999 21.9333 18.6666 21.9333 18.3333 21.9333C18.3333 21.6 18.3333 21.2667 18.3333 20.9333Z" fill="#E5E6E5"/>
<path fill-rule="evenodd" clip-rule="evenodd" d="M23.3333 20.9333C23.3333 21.2667 23.3333 21.6 23.3333 21.9333C22.9999 21.9333 22.6666 21.9333 22.3333 21.9333C22.3333 21.6 22.3333 21.2667 22.3333 20.9333C22.6666 20.9333 22.9999 20.9333 23.3333 20.9333Z" fill="#E5E6E5"/>
<path fill-rule="evenodd" clip-rule="evenodd" d="M28.3333 20.9333C28.6666 20.9333 28.9999 20.9333 29.3333 20.9333C29.3333 21.2667 29.3333 21.6 29.3333 21.9333C28.9999 21.9333 28.6666 21.9333 28.3333 21.9333C28.3333 21.6 28.3333 21.2667 28.3333 20.9333Z" fill="#E5E6E5"/>
<path fill-rule="evenodd" clip-rule="evenodd" d="M10.1999 20.6667C10.224 21.0729 10.1907 21.4729 10.0999 21.8667C9.86365 22.2908 9.49699 22.5019 8.99992 22.5C8.10379 22.5698 7.21492 22.5364 6.33325 22.4C6.33325 22.2445 6.33325 22.0889 6.33325 21.9334C6.66659 21.9334 6.99992 21.9334 7.33325 21.9334C7.33325 22.1112 7.33325 22.2889 7.33325 22.4667C7.66659 22.4667 7.99992 22.4667 8.33325 22.4667C8.33325 22.2889 8.33325 22.1112 8.33325 21.9334C8.66659 21.9334 8.99992 21.9334 9.33325 21.9334C9.33325 21.6 9.33325 21.2667 9.33325 20.9334C9.59992 20.9334 9.86659 20.9334 10.1333 20.9334C10.1154 20.8268 10.1377 20.7379 10.1999 20.6667Z" fill="#FBFAFA"/>
<path fill-rule="evenodd" clip-rule="evenodd" d="M7.33325 21.9333C7.66659 21.9333 7.99992 21.9333 8.33325 21.9333C8.33325 22.1111 8.33325 22.2889 8.33325 22.4667C7.99992 22.4667 7.66659 22.4667 7.33325 22.4667C7.33325 22.2889 7.33325 22.1111 7.33325 21.9333Z" fill="#E5E6E5"/>
<path fill-rule="evenodd" clip-rule="evenodd" d="M14.3333 21.9333C14.6666 21.9333 14.9999 21.9333 15.3333 21.9333C15.3333 22.1111 15.3333 22.2889 15.3333 22.4667C15.6666 22.4667 15.9999 22.4667 16.3333 22.4667C16.3333 22.2889 16.3333 22.1111 16.3333 21.9333C16.6666 21.9333 16.9999 21.9333 17.3333 21.9333C17.3333 22.1111 17.3333 22.2889 17.3333 22.4667C17.4399 22.4488 17.5287 22.4711 17.5999 22.5333C16.4831 22.5692 15.372 22.5248 14.2666 22.4C14.3245 22.2522 14.3467 22.0967 14.3333 21.9333Z" fill="#FDFDFD"/>
<path fill-rule="evenodd" clip-rule="evenodd" d="M15.3333 21.9333C15.6666 21.9333 15.9999 21.9333 16.3333 21.9333C16.3333 22.1111 16.3333 22.2889 16.3333 22.4667C15.9999 22.4667 15.6666 22.4667 15.3333 22.4667C15.3333 22.2889 15.3333 22.1111 15.3333 21.9333Z" fill="#E5E6E5"/>
<path fill-rule="evenodd" clip-rule="evenodd" d="M17.3333 21.9333C17.6666 21.9333 17.9999 21.9333 18.3333 21.9333C18.3333 22.0889 18.3333 22.2445 18.3333 22.4C18.1981 22.3892 18.0648 22.4003 17.9333 22.4333C18.0195 22.466 18.1084 22.4771 18.1999 22.4667C18.0141 22.5318 17.8141 22.554 17.5999 22.5333C17.5287 22.4711 17.4399 22.4488 17.3333 22.4667C17.3333 22.2889 17.3333 22.1111 17.3333 21.9333Z" fill="#E4E5E5"/>
<path fill-rule="evenodd" clip-rule="evenodd" d="M0.333252 23.9333C0.333252 23.6 0.333252 23.2667 0.333252 22.9333C0.666585 22.9333 0.999919 22.9333 1.33325 22.9333C1.33325 23.2667 1.33325 23.6 1.33325 23.9333C0.999919 23.9333 0.666585 23.9333 0.333252 23.9333Z" fill="#E5E6E5"/>
<path fill-rule="evenodd" clip-rule="evenodd" d="M31.6666 22.6667C31.6666 25.1112 31.6666 27.5556 31.6666 30C28.8666 30 26.0666 30 23.2666 30C23.0082 29.3017 22.7193 28.6128 22.3999 27.9334C22.711 27.9334 23.0221 27.9334 23.3332 27.9334C23.3332 28.2667 23.3332 28.6 23.3332 28.9334C23.6666 28.9334 23.9999 28.9334 24.3332 28.9334C24.3332 29.2667 24.3332 29.6 24.3332 29.9334C24.6666 29.9334 24.9999 29.9334 25.3332 29.9334C25.3332 29.6 25.3332 29.2667 25.3332 28.9334C25.6666 28.9334 25.9999 28.9334 26.3332 28.9334C26.3332 29.2667 26.3332 29.6 26.3332 29.9334C26.6666 29.9334 26.9999 29.9334 27.3332 29.9334C27.3332 29.6 27.3332 29.2667 27.3332 28.9334C27.6666 28.9334 27.9999 28.9334 28.3332 28.9334C28.3332 29.2667 28.3332 29.6 28.3332 29.9334C28.6666 29.9334 28.9999 29.9334 29.3332 29.9334C29.3332 29.6 29.3332 29.2667 29.3332 28.9334C29.6666 28.9334 29.9999 28.9334 30.3332 28.9334C30.3332 28.6 30.3332 28.2667 30.3332 27.9334C30.6666 27.9334 30.9999 27.9334 31.3332 27.9334C31.3332 27.6 31.3332 27.2667 31.3332 26.9334C30.9999 26.9334 30.6666 26.9334 30.3332 26.9334C30.3332 26.6 30.3332 26.2667 30.3332 25.9334C29.9999 25.9334 29.6666 25.9334 29.3332 25.9334C29.3332 25.6 29.3332 25.2667 29.3332 24.9334C28.9999 24.9334 28.6666 24.9334 28.3332 24.9334C28.3332 25.2667 28.3332 25.6 28.3332 25.9334C27.9999 25.9334 27.6666 25.9334 27.3332 25.9334C27.3332 25.6 27.3332 25.2667 27.3332 24.9334C26.9999 24.9334 26.6666 24.9334 26.3332 24.9334C26.3332 25.2667 26.3332 25.6 26.3332 25.9334C25.9999 25.9334 25.6666 25.9334 25.3332 25.9334C25.3332 25.6 25.3332 25.2667 25.3332 24.9334C25.0213 24.9223 24.7102 24.9334 24.3999 24.9667C24.3353 25.2825 24.313 25.6047 24.3332 25.9334C23.9999 25.9334 23.6666 25.9334 23.3332 25.9334C23.3332 25.6445 23.3332 25.3556 23.3332 25.0667C23.2266 25.0846 23.1378 25.0623 23.0666 25C25.4455 24.7518 27.8232 24.4962 30.1999 24.2334C30.97 23.9686 31.4589 23.4464 31.6666 22.6667Z" fill="#F9FAF9"/>
<path fill-rule="evenodd" clip-rule="evenodd" d="M0.333252 24.9333C0.666585 24.9333 0.999919 24.9333 1.33325 24.9333C1.33325 25.2667 1.33325 25.6 1.33325 25.9333C0.999919 25.9333 0.666585 25.9333 0.333252 25.9333C0.333252 25.6 0.333252 25.2667 0.333252 24.9333Z" fill="#E5E6E5"/>
<path fill-rule="evenodd" clip-rule="evenodd" d="M25.3331 25.9333C24.9998 25.9333 24.6665 25.9333 24.3331 25.9333C24.3129 25.6047 24.3352 25.2825 24.3998 24.9667C24.7101 24.9334 25.0212 24.9223 25.3331 24.9333C25.3331 25.2667 25.3331 25.6 25.3331 25.9333Z" fill="#E5E6E5"/>
<path fill-rule="evenodd" clip-rule="evenodd" d="M27.3333 25.9333C26.9999 25.9333 26.6666 25.9333 26.3333 25.9333C26.3333 25.6 26.3333 25.2667 26.3333 24.9333C26.6666 24.9333 26.9999 24.9333 27.3333 24.9333C27.3333 25.2667 27.3333 25.6 27.3333 25.9333Z" fill="#E5E6E5"/>
<path fill-rule="evenodd" clip-rule="evenodd" d="M29.3333 25.9333C28.9999 25.9333 28.6666 25.9333 28.3333 25.9333C28.3333 25.6 28.3333 25.2667 28.3333 24.9333C28.6666 24.9333 28.9999 24.9333 29.3333 24.9333C29.3333 25.2667 29.3333 25.6 29.3333 25.9333Z" fill="#E5E6E5"/>
<path fill-rule="evenodd" clip-rule="evenodd" d="M30.3333 25.9333C30.3333 25.6 30.3333 25.2667 30.3333 24.9333C30.6666 24.9333 30.9999 24.9333 31.3333 24.9333C31.3333 25.2667 31.3333 25.6 31.3333 25.9333C30.9999 25.9333 30.6666 25.9333 30.3333 25.9333Z" fill="#E5E6E5"/>
<path fill-rule="evenodd" clip-rule="evenodd" d="M22.5333 25.0667C22.6965 25.0018 22.8743 24.9796 23.0666 25C23.1378 25.0623 23.2267 25.0845 23.3333 25.0667C23.3333 25.3555 23.3333 25.6445 23.3333 25.9333C22.9999 25.9333 22.6666 25.9333 22.3333 25.9333C22.3333 25.6667 22.3333 25.4 22.3333 25.1333C22.5566 25.1443 22.7788 25.1332 22.9999 25.1C22.8459 25.0669 22.6904 25.0558 22.5333 25.0667Z" fill="#E3E5E4"/>
<path fill-rule="evenodd" clip-rule="evenodd" d="M21.2667 25.2667C21.5018 25.7943 21.7241 26.3276 21.9333 26.8667C21.9421 26.916 21.9309 26.9604 21.9 27C21.8555 26.9112 21.8111 26.8222 21.7667 26.7334C21.7057 26.979 21.6613 26.9568 21.6333 26.6667C21.6111 26.7334 21.5889 26.8 21.5667 26.8667C21.5385 26.7696 21.4829 26.7363 21.4 26.7667C21.452 26.8382 21.4409 26.916 21.3667 27C21.3445 26.9556 21.3222 26.9112 21.3 26.8667C21.2333 26.9334 21.1667 27 21.1 27.0667C20.9348 27.1298 20.7792 27.1298 20.6333 27.0667C20.5889 27.2445 20.5445 27.2445 20.5 27.0667C20.4778 27.0889 20.4555 27.1112 20.4333 27.1334C20.3874 27.0762 20.3319 27.0318 20.2667 27C20.2645 27.0993 20.2311 27.1882 20.1667 27.2667C20.1057 27.2115 20.0613 27.1448 20.0333 27.0667C19.9889 27.3334 19.9445 27.3334 19.9 27.0667C19.8778 27.1334 19.8555 27.2 19.8333 27.2667C19.8051 27.1696 19.7496 27.1363 19.6667 27.1667C19.7187 27.2382 19.7075 27.316 19.6333 27.4C19.492 27.1212 19.4031 27.1435 19.3667 27.4667C19.3387 27.1766 19.2943 27.1544 19.2333 27.4C19.1889 27.2222 19.1445 27.2222 19.1 27.4C18.9429 27.2434 18.8317 27.2878 18.7667 27.5334C18.7445 27.4667 18.7222 27.4 18.7 27.3334C18.6547 27.4984 18.7102 27.6206 18.8667 27.7C18.8271 27.731 18.7826 27.7421 18.7333 27.7334C18.2653 27.5088 17.7987 27.2866 17.3333 27.0667C16.6973 26.7376 16.0529 26.4265 15.4 26.1334C15.2577 26.0286 15.1021 25.9398 14.9333 25.8667C16.8315 25.6002 18.7315 25.4002 20.6333 25.2667C20.8111 25.2222 20.9889 25.1778 21.1667 25.1334C21.1852 25.1944 21.2185 25.2388 21.2667 25.2667Z" fill="#028436"/>
<path fill-rule="evenodd" clip-rule="evenodd" d="M0.333252 25.9333C0.666585 25.9333 0.999919 25.9333 1.33325 25.9333C1.33325 26.2667 1.33325 26.6 1.33325 26.9333C0.999919 26.9333 0.666585 26.9333 0.333252 26.9333C0.333252 26.6 0.333252 26.2667 0.333252 25.9333Z" fill="#FEFFFE"/>
<path fill-rule="evenodd" clip-rule="evenodd" d="M2.06659 25.8667C2.17939 25.9804 2.26825 26.1137 2.33325 26.2667C2.33325 26.4889 2.33325 26.7112 2.33325 26.9334C1.99992 26.9334 1.66659 26.9334 1.33325 26.9334C1.33325 26.6 1.33325 26.2667 1.33325 25.9334C1.59132 25.9544 1.83579 25.9322 2.06659 25.8667Z" fill="#E6E6E6"/>
<path fill-rule="evenodd" clip-rule="evenodd" d="M13.2666 26C13.4524 25.9349 13.6524 25.9127 13.8666 25.9334C14.0071 25.9979 14.1627 26.0202 14.3333 26C14.3333 26.3112 14.3333 26.6222 14.3333 26.9334C13.9999 26.9334 13.6666 26.9334 13.3333 26.9334C13.3333 26.6445 13.3333 26.3556 13.3333 26.0667C13.6666 26.0332 13.6444 26.011 13.2666 26Z" fill="#E4E5E4"/>
<path fill-rule="evenodd" clip-rule="evenodd" d="M14.9334 25.8667C15.1022 25.9397 15.2577 26.0286 15.4 26.1333C15.3345 26.3865 15.3122 26.6532 15.3334 26.9333C15 26.9333 14.6667 26.9333 14.3334 26.9333C14.3334 26.6222 14.3334 26.3111 14.3334 26C14.1628 26.0201 14.0072 25.9979 13.8667 25.9333C14.2182 25.8733 14.5737 25.8511 14.9334 25.8667Z" fill="#FCFCFC"/>
<path fill-rule="evenodd" clip-rule="evenodd" d="M22.3333 25.9333C22.6666 25.9333 22.9999 25.9333 23.3333 25.9333C23.3333 26.2667 23.3333 26.6 23.3333 26.9333C22.9999 26.9333 22.6666 26.9333 22.3333 26.9333C22.3333 26.6 22.3333 26.2667 22.3333 25.9333Z" fill="#FEFFFE"/>
<path fill-rule="evenodd" clip-rule="evenodd" d="M23.3333 25.9333C23.6666 25.9333 23.9999 25.9333 24.3333 25.9333C24.3333 26.2667 24.3333 26.6 24.3333 26.9333C23.9999 26.9333 23.6666 26.9333 23.3333 26.9333C23.3333 26.6 23.3333 26.2667 23.3333 25.9333Z" fill="#E5E6E5"/>
<path fill-rule="evenodd" clip-rule="evenodd" d="M24.3333 25.9333C24.6666 25.9333 24.9999 25.9333 25.3333 25.9333C25.3333 26.2667 25.3333 26.6 25.3333 26.9333C24.9999 26.9333 24.6666 26.9333 24.3333 26.9333C24.3333 26.6 24.3333 26.2667 24.3333 25.9333Z" fill="#FEFFFE"/>
<path fill-rule="evenodd" clip-rule="evenodd" d="M25.3333 25.9333C25.6666 25.9333 25.9999 25.9333 26.3333 25.9333C26.3333 26.2667 26.3333 26.6 26.3333 26.9333C25.9999 26.9333 25.6666 26.9333 25.3333 26.9333C25.3333 26.6 25.3333 26.2667 25.3333 25.9333Z" fill="#E5E6E5"/>
<path fill-rule="evenodd" clip-rule="evenodd" d="M26.3333 25.9333C26.6666 25.9333 26.9999 25.9333 27.3333 25.9333C27.3333 26.2667 27.3333 26.6 27.3333 26.9333C26.9999 26.9333 26.6666 26.9333 26.3333 26.9333C26.3333 26.6 26.3333 26.2667 26.3333 25.9333Z" fill="#FEFFFE"/>
<path fill-rule="evenodd" clip-rule="evenodd" d="M27.3333 25.9333C27.6666 25.9333 27.9999 25.9333 28.3333 25.9333C28.3333 26.2667 28.3333 26.6 28.3333 26.9333C27.9999 26.9333 27.6666 26.9333 27.3333 26.9333C27.3333 26.6 27.3333 26.2667 27.3333 25.9333Z" fill="#E5E6E5"/>
<path fill-rule="evenodd" clip-rule="evenodd" d="M28.3333 25.9333C28.6666 25.9333 28.9999 25.9333 29.3333 25.9333C29.3333 26.2667 29.3333 26.6 29.3333 26.9333C28.9999 26.9333 28.6666 26.9333 28.3333 26.9333C28.3333 26.6 28.3333 26.2667 28.3333 25.9333Z" fill="#FEFFFE"/>
<path fill-rule="evenodd" clip-rule="evenodd" d="M29.3333 25.9333C29.6666 25.9333 29.9999 25.9333 30.3333 25.9333C30.3333 26.2667 30.3333 26.6 30.3333 26.9333C29.9999 26.9333 29.6666 26.9333 29.3333 26.9333C29.3333 26.6 29.3333 26.2667 29.3333 25.9333Z" fill="#E5E6E5"/>
<path fill-rule="evenodd" clip-rule="evenodd" d="M13.2665 26C13.6443 26.0109 13.6665 26.0331 13.3331 26.0667C13.3331 26.3555 13.3331 26.6445 13.3331 26.9333C12.9998 26.9333 12.6665 26.9333 12.3331 26.9333C12.3331 26.6889 12.3331 26.4445 12.3331 26.2C12.1408 26.2204 11.963 26.1982 11.7998 26.1333C12.2878 26.0802 12.7767 26.0357 13.2665 26Z" fill="#FCFDFC"/>
<path fill-rule="evenodd" clip-rule="evenodd" d="M11.3333 26.2C11.4737 26.1355 11.6293 26.1132 11.7999 26.1333C11.9631 26.1982 12.1409 26.2204 12.3333 26.2C12.3333 26.4445 12.3333 26.6889 12.3333 26.9333C11.9999 26.9333 11.6666 26.9333 11.3333 26.9333C11.3333 26.7111 11.3333 26.4889 11.3333 26.2667C11.8666 26.2445 11.8666 26.2222 11.3333 26.2Z" fill="#E3E5E4"/>
<path fill-rule="evenodd" clip-rule="evenodd" d="M11.3331 26.2C11.8665 26.2222 11.8665 26.2445 11.3331 26.2667C11.3331 26.4889 11.3331 26.7111 11.3331 26.9333C10.9998 26.9333 10.6665 26.9333 10.3331 26.9333C10.3331 26.7555 10.3331 26.5778 10.3331 26.4C10.1408 26.4204 9.963 26.3982 9.7998 26.3333C10.3099 26.283 10.8209 26.2386 11.3331 26.2Z" fill="#FBFCFC"/>
<path fill-rule="evenodd" clip-rule="evenodd" d="M9.39992 26.4C9.51759 26.3359 9.65092 26.3137 9.79992 26.3333C9.96312 26.3982 10.1409 26.4204 10.3333 26.4C10.3333 26.5778 10.3333 26.7555 10.3333 26.9333C9.99992 26.9333 9.66659 26.9333 9.33325 26.9333C9.33325 26.7778 9.33325 26.6222 9.33325 26.4667C9.46839 26.4775 9.60172 26.4663 9.73325 26.4333C9.62432 26.4004 9.51319 26.3893 9.39992 26.4Z" fill="#E3E5E4"/>
<path fill-rule="evenodd" clip-rule="evenodd" d="M21.9332 26.8667C22.1135 27.2061 22.269 27.5616 22.3999 27.9334C22.7193 28.6128 23.0081 29.3017 23.2665 30C23.2443 30 23.2221 30 23.1999 30C22.5988 29.655 21.9766 29.344 21.3332 29.0667C20.7321 28.7217 20.1099 28.4106 19.4665 28.1334C19.2197 27.9996 18.9753 27.8663 18.7332 27.7334C18.7825 27.7421 18.8269 27.731 18.8665 27.7C18.7101 27.6206 18.6545 27.4984 18.6999 27.3334C18.7221 27.4 18.7443 27.4667 18.7665 27.5334C18.8316 27.2878 18.9427 27.2434 19.0999 27.4C19.1443 27.2222 19.1887 27.2222 19.2332 27.4C19.2941 27.1544 19.3386 27.1766 19.3665 27.4667C19.403 27.1435 19.4919 27.1212 19.6332 27.4C19.7074 27.316 19.7185 27.2382 19.6665 27.1667C19.7495 27.1363 19.805 27.1696 19.8332 27.2667C19.8554 27.2 19.8777 27.1334 19.8999 27.0667C19.9443 27.3334 19.9887 27.3334 20.0332 27.0667C20.0611 27.1448 20.1055 27.2115 20.1665 27.2667C20.231 27.1882 20.2643 27.0993 20.2665 27C20.3317 27.0318 20.3873 27.0762 20.4332 27.1334C20.4554 27.1112 20.4777 27.0889 20.4999 27.0667C20.5443 27.2445 20.5887 27.2445 20.6332 27.0667C20.7791 27.1298 20.9347 27.1298 21.0999 27.0667C21.1665 27 21.2332 26.9334 21.2999 26.8667C21.3221 26.9112 21.3443 26.9556 21.3665 27C21.4407 26.916 21.4519 26.8382 21.3999 26.7667C21.4828 26.7363 21.5383 26.7696 21.5665 26.8667C21.5887 26.8 21.611 26.7334 21.6332 26.6667C21.6611 26.9568 21.7056 26.979 21.7665 26.7334C21.811 26.8222 21.8554 26.9112 21.8999 27C21.9308 26.9604 21.9419 26.916 21.9332 26.8667Z" fill="#0E9748"/>
<path fill-rule="evenodd" clip-rule="evenodd" d="M0.333252 26.9333C0.666585 26.9333 0.999919 26.9333 1.33325 26.9333C1.33325 27.2667 1.33325 27.6 1.33325 27.9333C0.999919 27.9333 0.666585 27.9333 0.333252 27.9333C0.333252 27.6 0.333252 27.2667 0.333252 26.9333Z" fill="#E5E6E5"/>
<path fill-rule="evenodd" clip-rule="evenodd" d="M1.33325 26.9333C1.66659 26.9333 1.99992 26.9333 2.33325 26.9333C2.33325 27.2667 2.33325 27.6 2.33325 27.9333C1.99992 27.9333 1.66659 27.9333 1.33325 27.9333C1.33325 27.6 1.33325 27.2667 1.33325 26.9333Z" fill="#FEFFFE"/>
<path fill-rule="evenodd" clip-rule="evenodd" d="M2.33325 26.9333C2.66659 26.9333 2.99992 26.9333 3.33325 26.9333C3.33325 27.2667 3.33325 27.6 3.33325 27.9333C2.99992 27.9333 2.66659 27.9333 2.33325 27.9333C2.33325 27.6 2.33325 27.2667 2.33325 26.9333Z" fill="#E5E6E5"/>
<path fill-rule="evenodd" clip-rule="evenodd" d="M2.33325 26.2667C2.56739 26.4447 2.81179 26.6113 3.06659 26.7667C3.31032 26.8776 3.56592 26.9331 3.83325 26.9333C5.68872 26.7481 7.54425 26.5704 9.39992 26.4C9.51319 26.3893 9.62432 26.4004 9.73325 26.4333C9.60172 26.4663 9.46839 26.4775 9.33325 26.4667C9.33325 26.6222 9.33325 26.7778 9.33325 26.9333C8.99992 26.9333 8.66659 26.9333 8.33325 26.9333C8.33325 27.2667 8.33325 27.6 8.33325 27.9333C7.99992 27.9333 7.66659 27.9333 7.33325 27.9333C7.33325 27.6 7.33325 27.2667 7.33325 26.9333C6.99992 26.9333 6.66659 26.9333 6.33325 26.9333C6.33325 27.2667 6.33325 27.6 6.33325 27.9333C5.99992 27.9333 5.66659 27.9333 5.33325 27.9333C5.33325 27.6 5.33325 27.2667 5.33325 26.9333C5.02132 26.9223 4.71025 26.9334 4.39992 26.9667C4.33532 27.2825 4.31305 27.6047 4.33325 27.9333C3.99992 27.9333 3.66659 27.9333 3.33325 27.9333C3.33325 27.6 3.33325 27.2667 3.33325 26.9333C2.99992 26.9333 2.66659 26.9333 2.33325 26.9333C2.33325 26.7111 2.33325 26.4889 2.33325 26.2667Z" fill="#FBFBFB"/>
<path fill-rule="evenodd" clip-rule="evenodd" d="M5.33314 27.9333C4.9998 27.9333 4.66647 27.9333 4.33314 27.9333C4.31294 27.6047 4.3352 27.2825 4.3998 26.9667C4.71014 26.9334 5.0212 26.9223 5.33314 26.9333C5.33314 27.2667 5.33314 27.6 5.33314 27.9333Z" fill="#E5E6E5"/>
<path fill-rule="evenodd" clip-rule="evenodd" d="M7.33325 27.9333C6.99992 27.9333 6.66659 27.9333 6.33325 27.9333C6.33325 27.6 6.33325 27.2667 6.33325 26.9333C6.66659 26.9333 6.99992 26.9333 7.33325 26.9333C7.33325 27.2667 7.33325 27.6 7.33325 27.9333Z" fill="#E5E6E5"/>
<path fill-rule="evenodd" clip-rule="evenodd" d="M9.33325 26.9333C9.33325 27.2667 9.33325 27.6 9.33325 27.9333C8.99992 27.9333 8.66659 27.9333 8.33325 27.9333C8.33325 27.6 8.33325 27.2667 8.33325 26.9333C8.66659 26.9333 8.99992 26.9333 9.33325 26.9333Z" fill="#E5E6E5"/>
<path fill-rule="evenodd" clip-rule="evenodd" d="M9.33325 26.9333C9.66659 26.9333 9.99992 26.9333 10.3333 26.9333C10.3333 27.2667 10.3333 27.6 10.3333 27.9333C9.99992 27.9333 9.66659 27.9333 9.33325 27.9333C9.33325 27.6 9.33325 27.2667 9.33325 26.9333Z" fill="#FEFFFE"/>
<path fill-rule="evenodd" clip-rule="evenodd" d="M10.3333 26.9333C10.6666 26.9333 10.9999 26.9333 11.3333 26.9333C11.3333 27.2667 11.3333 27.6 11.3333 27.9333C10.9999 27.9333 10.6666 27.9333 10.3333 27.9333C10.3333 27.6 10.3333 27.2667 10.3333 26.9333Z" fill="#E5E6E5"/>
<path fill-rule="evenodd" clip-rule="evenodd" d="M11.3333 26.9333C11.6666 26.9333 11.9999 26.9333 12.3333 26.9333C12.3333 27.2667 12.3333 27.6 12.3333 27.9333C11.9999 27.9333 11.6666 27.9333 11.3333 27.9333C11.3333 27.6 11.3333 27.2667 11.3333 26.9333Z" fill="#FEFFFE"/>
<path fill-rule="evenodd" clip-rule="evenodd" d="M12.3333 26.9333C12.6666 26.9333 12.9999 26.9333 13.3333 26.9333C13.3333 27.2667 13.3333 27.6 13.3333 27.9333C12.9999 27.9333 12.6666 27.9333 12.3333 27.9333C12.3333 27.6 12.3333 27.2667 12.3333 26.9333Z" fill="#E5E6E5"/>
<path fill-rule="evenodd" clip-rule="evenodd" d="M13.3333 26.9333C13.6666 26.9333 13.9999 26.9333 14.3333 26.9333C14.3333 27.2667 14.3333 27.6 14.3333 27.9333C13.9999 27.9333 13.6666 27.9333 13.3333 27.9333C13.3333 27.6 13.3333 27.2667 13.3333 26.9333Z" fill="#FEFFFE"/>
<path fill-rule="evenodd" clip-rule="evenodd" d="M14.3333 26.9333C14.6666 26.9333 14.9999 26.9333 15.3333 26.9333C15.3333 27.2667 15.3333 27.6 15.3333 27.9333C14.9999 27.9333 14.6666 27.9333 14.3333 27.9333C14.3333 27.6 14.3333 27.2667 14.3333 26.9333Z" fill="#E5E6E5"/>
<path fill-rule="evenodd" clip-rule="evenodd" d="M15.3333 26.9333C15.6666 26.9333 15.9999 26.9333 16.3333 26.9333C16.3333 27.2667 16.3333 27.6 16.3333 27.9333C15.9999 27.9333 15.6666 27.9333 15.3333 27.9333C15.3333 27.6 15.3333 27.2667 15.3333 26.9333Z" fill="#FEFFFE"/>
<path fill-rule="evenodd" clip-rule="evenodd" d="M15.3998 26.1334C16.0527 26.4265 16.6972 26.7376 17.3332 27.0667C17.3332 27.3556 17.3332 27.6445 17.3332 27.9334C16.9998 27.9334 16.6665 27.9334 16.3332 27.9334C16.3332 27.6 16.3332 27.2667 16.3332 26.9334C15.9998 26.9334 15.6665 26.9334 15.3332 26.9334C15.312 26.6532 15.3343 26.3866 15.3998 26.1334Z" fill="#E8E8E8"/>
<path fill-rule="evenodd" clip-rule="evenodd" d="M22.5333 25.0667C22.6904 25.0558 22.8459 25.0669 22.9999 25.1C22.7788 25.1332 22.5566 25.1443 22.3333 25.1333C22.3333 25.4 22.3333 25.6667 22.3333 25.9333C22.3333 26.2667 22.3333 26.6 22.3333 26.9333C22.6666 26.9333 22.9999 26.9333 23.3333 26.9333C23.3333 27.2667 23.3333 27.6 23.3333 27.9333C23.0221 27.9333 22.7111 27.9333 22.3999 27.9333C22.2691 27.5616 22.1135 27.2061 21.9333 26.8667C21.724 26.3276 21.5017 25.7943 21.2666 25.2667C21.3175 25.2155 21.3841 25.1821 21.4666 25.1667C21.8214 25.1211 22.177 25.0877 22.5333 25.0667Z" fill="#EAEAEA"/>
<path fill-rule="evenodd" clip-rule="evenodd" d="M23.3333 26.9333C23.6666 26.9333 23.9999 26.9333 24.3333 26.9333C24.3333 27.2667 24.3333 27.6 24.3333 27.9333C23.9999 27.9333 23.6666 27.9333 23.3333 27.9333C23.3333 27.6 23.3333 27.2667 23.3333 26.9333Z" fill="#FEFFFE"/>
<path fill-rule="evenodd" clip-rule="evenodd" d="M24.3333 26.9333C24.6666 26.9333 24.9999 26.9333 25.3333 26.9333C25.3333 27.2667 25.3333 27.6 25.3333 27.9333C24.9999 27.9333 24.6666 27.9333 24.3333 27.9333C24.3333 27.6 24.3333 27.2667 24.3333 26.9333Z" fill="#E5E6E5"/>
<path fill-rule="evenodd" clip-rule="evenodd" d="M25.3333 26.9333C25.6666 26.9333 25.9999 26.9333 26.3333 26.9333C26.3333 27.2667 26.3333 27.6 26.3333 27.9333C25.9999 27.9333 25.6666 27.9333 25.3333 27.9333C25.3333 27.6 25.3333 27.2667 25.3333 26.9333Z" fill="#FEFFFE"/>
<path fill-rule="evenodd" clip-rule="evenodd" d="M26.3333 26.9333C26.6666 26.9333 26.9999 26.9333 27.3333 26.9333C27.3333 27.2667 27.3333 27.6 27.3333 27.9333C26.9999 27.9333 26.6666 27.9333 26.3333 27.9333C26.3333 27.6 26.3333 27.2667 26.3333 26.9333Z" fill="#E5E6E5"/>
<path fill-rule="evenodd" clip-rule="evenodd" d="M27.3333 26.9333C27.6666 26.9333 27.9999 26.9333 28.3333 26.9333C28.3333 27.2667 28.3333 27.6 28.3333 27.9333C27.9999 27.9333 27.6666 27.9333 27.3333 27.9333C27.3333 27.6 27.3333 27.2667 27.3333 26.9333Z" fill="#FEFFFE"/>
<path fill-rule="evenodd" clip-rule="evenodd" d="M28.3333 26.9333C28.6666 26.9333 28.9999 26.9333 29.3333 26.9333C29.3333 27.2667 29.3333 27.6 29.3333 27.9333C28.9999 27.9333 28.6666 27.9333 28.3333 27.9333C28.3333 27.6 28.3333 27.2667 28.3333 26.9333Z" fill="#E5E6E5"/>
<path fill-rule="evenodd" clip-rule="evenodd" d="M29.3333 26.9333C29.6666 26.9333 29.9999 26.9333 30.3333 26.9333C30.3333 27.2667 30.3333 27.6 30.3333 27.9333C29.9999 27.9333 29.6666 27.9333 29.3333 27.9333C29.3333 27.6 29.3333 27.2667 29.3333 26.9333Z" fill="#FEFFFE"/>
<path fill-rule="evenodd" clip-rule="evenodd" d="M30.3333 26.9333C30.6666 26.9333 30.9999 26.9333 31.3333 26.9333C31.3333 27.2667 31.3333 27.6 31.3333 27.9333C30.9999 27.9333 30.6666 27.9333 30.3333 27.9333C30.3333 27.6 30.3333 27.2667 30.3333 26.9333Z" fill="#E5E6E5"/>
<path fill-rule="evenodd" clip-rule="evenodd" d="M0.333252 27.9333C0.666585 27.9333 0.999919 27.9333 1.33325 27.9333C1.33325 28.2667 1.33325 28.6 1.33325 28.9333C0.999919 28.9333 0.666585 28.9333 0.333252 28.9333C0.333252 28.6 0.333252 28.2667 0.333252 27.9333Z" fill="#FEFFFE"/>
<path fill-rule="evenodd" clip-rule="evenodd" d="M1.33325 27.9333C1.66659 27.9333 1.99992 27.9333 2.33325 27.9333C2.33325 28.2667 2.33325 28.6 2.33325 28.9333C1.99992 28.9333 1.66659 28.9333 1.33325 28.9333C1.33325 28.6 1.33325 28.2667 1.33325 27.9333Z" fill="#E5E6E5"/>
<path fill-rule="evenodd" clip-rule="evenodd" d="M2.33325 27.9333C2.66659 27.9333 2.99992 27.9333 3.33325 27.9333C3.33325 28.2667 3.33325 28.6 3.33325 28.9333C2.99992 28.9333 2.66659 28.9333 2.33325 28.9333C2.33325 28.6 2.33325 28.2667 2.33325 27.9333Z" fill="#FEFFFE"/>
<path fill-rule="evenodd" clip-rule="evenodd" d="M3.33325 27.9333C3.66659 27.9333 3.99992 27.9333 4.33325 27.9333C4.33325 28.2667 4.33325 28.6 4.33325 28.9333C3.99992 28.9333 3.66659 28.9333 3.33325 28.9333C3.33325 28.6 3.33325 28.2667 3.33325 27.9333Z" fill="#E5E6E5"/>
<path fill-rule="evenodd" clip-rule="evenodd" d="M4.33325 27.9333C4.66659 27.9333 4.99992 27.9333 5.33325 27.9333C5.33325 28.2667 5.33325 28.6 5.33325 28.9333C4.99992 28.9333 4.66659 28.9333 4.33325 28.9333C4.33325 28.6 4.33325 28.2667 4.33325 27.9333Z" fill="#FEFFFE"/>
<path fill-rule="evenodd" clip-rule="evenodd" d="M5.33325 27.9333C5.66659 27.9333 5.99992 27.9333 6.33325 27.9333C6.33325 28.2667 6.33325 28.6 6.33325 28.9333C5.99992 28.9333 5.66659 28.9333 5.33325 28.9333C5.33325 28.6 5.33325 28.2667 5.33325 27.9333Z" fill="#E5E6E5"/>
<path fill-rule="evenodd" clip-rule="evenodd" d="M6.33325 27.9333C6.66659 27.9333 6.99992 27.9333 7.33325 27.9333C7.33325 28.2667 7.33325 28.6 7.33325 28.9333C6.99992 28.9333 6.66659 28.9333 6.33325 28.9333C6.33325 28.6 6.33325 28.2667 6.33325 27.9333Z" fill="#FEFFFE"/>
<path fill-rule="evenodd" clip-rule="evenodd" d="M7.33325 27.9333C7.66659 27.9333 7.99992 27.9333 8.33325 27.9333C8.33325 28.2667 8.33325 28.6 8.33325 28.9333C7.99992 28.9333 7.66659 28.9333 7.33325 28.9333C7.33325 28.6 7.33325 28.2667 7.33325 27.9333Z" fill="#E5E6E5"/>
<path fill-rule="evenodd" clip-rule="evenodd" d="M8.33325 27.9333C8.66659 27.9333 8.99992 27.9333 9.33325 27.9333C9.33325 28.2667 9.33325 28.6 9.33325 28.9333C8.99992 28.9333 8.66659 28.9333 8.33325 28.9333C8.33325 28.6 8.33325 28.2667 8.33325 27.9333Z" fill="#FEFFFE"/>
<path fill-rule="evenodd" clip-rule="evenodd" d="M9.33325 27.9333C9.66659 27.9333 9.99992 27.9333 10.3333 27.9333C10.3333 28.2667 10.3333 28.6 10.3333 28.9333C9.99992 28.9333 9.66659 28.9333 9.33325 28.9333C9.33325 28.6 9.33325 28.2667 9.33325 27.9333Z" fill="#E5E6E5"/>
<path fill-rule="evenodd" clip-rule="evenodd" d="M10.3333 27.9333C10.6666 27.9333 10.9999 27.9333 11.3333 27.9333C11.3333 28.2667 11.3333 28.6 11.3333 28.9333C10.9999 28.9333 10.6666 28.9333 10.3333 28.9333C10.3333 28.6 10.3333 28.2667 10.3333 27.9333Z" fill="#FEFFFE"/>
<path fill-rule="evenodd" clip-rule="evenodd" d="M11.3333 27.9333C11.6666 27.9333 11.9999 27.9333 12.3333 27.9333C12.3333 28.2667 12.3333 28.6 12.3333 28.9333C11.9999 28.9333 11.6666 28.9333 11.3333 28.9333C11.3333 28.6 11.3333 28.2667 11.3333 27.9333Z" fill="#E5E6E5"/>
<path fill-rule="evenodd" clip-rule="evenodd" d="M12.3333 27.9333C12.6666 27.9333 12.9999 27.9333 13.3333 27.9333C13.3333 28.2667 13.3333 28.6 13.3333 28.9333C12.9999 28.9333 12.6666 28.9333 12.3333 28.9333C12.3333 28.6 12.3333 28.2667 12.3333 27.9333Z" fill="#FEFFFE"/>
<path fill-rule="evenodd" clip-rule="evenodd" d="M13.3333 27.9333C13.6666 27.9333 13.9999 27.9333 14.3333 27.9333C14.3333 28.2667 14.3333 28.6 14.3333 28.9333C13.9999 28.9333 13.6666 28.9333 13.3333 28.9333C13.3333 28.6 13.3333 28.2667 13.3333 27.9333Z" fill="#E5E6E5"/>
<path fill-rule="evenodd" clip-rule="evenodd" d="M14.3333 27.9333C14.6666 27.9333 14.9999 27.9333 15.3333 27.9333C15.3333 28.2667 15.3333 28.6 15.3333 28.9333C14.9999 28.9333 14.6666 28.9333 14.3333 28.9333C14.3333 28.6 14.3333 28.2667 14.3333 27.9333Z" fill="#FEFFFE"/>
<path fill-rule="evenodd" clip-rule="evenodd" d="M15.3333 27.9333C15.6666 27.9333 15.9999 27.9333 16.3333 27.9333C16.3333 28.2667 16.3333 28.6 16.3333 28.9333C15.9999 28.9333 15.6666 28.9333 15.3333 28.9333C15.3333 28.6 15.3333 28.2667 15.3333 27.9333Z" fill="#E5E6E5"/>
<path fill-rule="evenodd" clip-rule="evenodd" d="M16.3333 27.9333C16.6666 27.9333 16.9999 27.9333 17.3333 27.9333C17.3333 28.2667 17.3333 28.6 17.3333 28.9333C16.9999 28.9333 16.6666 28.9333 16.3333 28.9333C16.3333 28.6 16.3333 28.2667 16.3333 27.9333Z" fill="#FEFFFE"/>
<path fill-rule="evenodd" clip-rule="evenodd" d="M17.3333 27.9333C17.6666 27.9333 17.9999 27.9333 18.3333 27.9333C18.3333 28.2667 18.3333 28.6 18.3333 28.9333C17.9999 28.9333 17.6666 28.9333 17.3333 28.9333C17.3333 28.6 17.3333 28.2667 17.3333 27.9333Z" fill="#E5E6E5"/>
<path fill-rule="evenodd" clip-rule="evenodd" d="M17.3333 27.0667C17.7986 27.2866 18.2653 27.5088 18.7333 27.7334C18.9753 27.8663 19.2197 27.9996 19.4666 28.1334C19.3384 28.3686 19.294 28.6353 19.3333 28.9334C18.9999 28.9334 18.6666 28.9334 18.3333 28.9334C18.3333 28.6 18.3333 28.2667 18.3333 27.9334C17.9999 27.9334 17.6666 27.9334 17.3333 27.9334C17.3333 27.6445 17.3333 27.3556 17.3333 27.0667Z" fill="#FCFDFC"/>
<path fill-rule="evenodd" clip-rule="evenodd" d="M23.3333 27.9333C23.6666 27.9333 23.9999 27.9333 24.3333 27.9333C24.3333 28.2667 24.3333 28.6 24.3333 28.9333C23.9999 28.9333 23.6666 28.9333 23.3333 28.9333C23.3333 28.6 23.3333 28.2667 23.3333 27.9333Z" fill="#E5E6E5"/>
<path fill-rule="evenodd" clip-rule="evenodd" d="M24.3333 27.9333C24.6666 27.9333 24.9999 27.9333 25.3333 27.9333C25.3333 28.2667 25.3333 28.6 25.3333 28.9333C24.9999 28.9333 24.6666 28.9333 24.3333 28.9333C24.3333 28.6 24.3333 28.2667 24.3333 27.9333Z" fill="#FEFFFE"/>
<path fill-rule="evenodd" clip-rule="evenodd" d="M25.3333 27.9333C25.6666 27.9333 25.9999 27.9333 26.3333 27.9333C26.3333 28.2667 26.3333 28.6 26.3333 28.9333C25.9999 28.9333 25.6666 28.9333 25.3333 28.9333C25.3333 28.6 25.3333 28.2667 25.3333 27.9333Z" fill="#E5E6E5"/>
<path fill-rule="evenodd" clip-rule="evenodd" d="M26.3333 27.9333C26.6666 27.9333 26.9999 27.9333 27.3333 27.9333C27.3333 28.2667 27.3333 28.6 27.3333 28.9333C26.9999 28.9333 26.6666 28.9333 26.3333 28.9333C26.3333 28.6 26.3333 28.2667 26.3333 27.9333Z" fill="#FEFFFE"/>
<path fill-rule="evenodd" clip-rule="evenodd" d="M27.3333 27.9333C27.6666 27.9333 27.9999 27.9333 28.3333 27.9333C28.3333 28.2667 28.3333 28.6 28.3333 28.9333C27.9999 28.9333 27.6666 28.9333 27.3333 28.9333C27.3333 28.6 27.3333 28.2667 27.3333 27.9333Z" fill="#E5E6E5"/>
<path fill-rule="evenodd" clip-rule="evenodd" d="M28.3333 27.9333C28.6666 27.9333 28.9999 27.9333 29.3333 27.9333C29.3333 28.2667 29.3333 28.6 29.3333 28.9333C28.9999 28.9333 28.6666 28.9333 28.3333 28.9333C28.3333 28.6 28.3333 28.2667 28.3333 27.9333Z" fill="#FEFFFE"/>
<path fill-rule="evenodd" clip-rule="evenodd" d="M29.3333 27.9333C29.6666 27.9333 29.9999 27.9333 30.3333 27.9333C30.3333 28.2667 30.3333 28.6 30.3333 28.9333C29.9999 28.9333 29.6666 28.9333 29.3333 28.9333C29.3333 28.6 29.3333 28.2667 29.3333 27.9333Z" fill="#E5E6E5"/>
<path fill-rule="evenodd" clip-rule="evenodd" d="M19.4665 28.1334C20.1099 28.4106 20.7321 28.7217 21.3332 29.0667C21.3332 29.3556 21.3332 29.6445 21.3332 29.9334C20.9998 29.9334 20.6665 29.9334 20.3332 29.9334C20.3332 29.6 20.3332 29.2667 20.3332 28.9334C19.9998 28.9334 19.6665 28.9334 19.3332 28.9334C19.2939 28.6353 19.3383 28.3686 19.4665 28.1334Z" fill="#E7E7E7"/>
<path fill-rule="evenodd" clip-rule="evenodd" d="M24.3333 28.9333C24.6666 28.9333 24.9999 28.9333 25.3333 28.9333C25.3333 29.2667 25.3333 29.6 25.3333 29.9333C24.9999 29.9333 24.6666 29.9333 24.3333 29.9333C24.3333 29.6 24.3333 29.2667 24.3333 28.9333Z" fill="#E5E6E5"/>
<path fill-rule="evenodd" clip-rule="evenodd" d="M26.3333 28.9333C26.6666 28.9333 26.9999 28.9333 27.3333 28.9333C27.3333 29.2667 27.3333 29.6 27.3333 29.9333C26.9999 29.9333 26.6666 29.9333 26.3333 29.9333C26.3333 29.6 26.3333 29.2667 26.3333 28.9333Z" fill="#E5E6E5"/>
<path fill-rule="evenodd" clip-rule="evenodd" d="M28.3333 28.9333C28.6666 28.9333 28.9999 28.9333 29.3333 28.9333C29.3333 29.2667 29.3333 29.6 29.3333 29.9333C28.9999 29.9333 28.6666 29.9333 28.3333 29.9333C28.3333 29.6 28.3333 29.2667 28.3333 28.9333Z" fill="#E5E6E5"/>
<path fill-rule="evenodd" clip-rule="evenodd" d="M30.3333 28.9333C30.6666 28.9333 30.9999 28.9333 31.3333 28.9333C31.3333 29.2667 31.3333 29.6 31.3333 29.9333C30.9999 29.9333 30.6666 29.9333 30.3333 29.9333C30.3333 29.6 30.3333 29.2667 30.3333 28.9333Z" fill="#E5E6E5"/>
<path fill-rule="evenodd" clip-rule="evenodd" d="M18.3333 28.9333C18.6666 28.9333 18.9999 28.9333 19.3333 28.9333C19.3333 29.2667 19.3333 29.6 19.3333 29.9333C18.9999 29.9333 18.6666 29.9333 18.3333 29.9333C18.3333 29.6 18.3333 29.2667 18.3333 28.9333Z" fill="#E5E6E5"/>
<path fill-rule="evenodd" clip-rule="evenodd" d="M16.3333 28.9333C16.6666 28.9333 16.9999 28.9333 17.3333 28.9333C17.3333 29.2667 17.3333 29.6 17.3333 29.9333C16.9999 29.9333 16.6666 29.9333 16.3333 29.9333C16.3333 29.6 16.3333 29.2667 16.3333 28.9333Z" fill="#E5E6E5"/>
<path fill-rule="evenodd" clip-rule="evenodd" d="M14.3333 28.9333C14.6666 28.9333 14.9999 28.9333 15.3333 28.9333C15.3333 29.2667 15.3333 29.6 15.3333 29.9333C14.9999 29.9333 14.6666 29.9333 14.3333 29.9333C14.3333 29.6 14.3333 29.2667 14.3333 28.9333Z" fill="#E5E6E5"/>
<path fill-rule="evenodd" clip-rule="evenodd" d="M12.3333 28.9333C12.6666 28.9333 12.9999 28.9333 13.3333 28.9333C13.3333 29.2667 13.3333 29.6 13.3333 29.9333C12.9999 29.9333 12.6666 29.9333 12.3333 29.9333C12.3333 29.6 12.3333 29.2667 12.3333 28.9333Z" fill="#E5E6E5"/>
<path fill-rule="evenodd" clip-rule="evenodd" d="M10.3333 28.9333C10.6666 28.9333 10.9999 28.9333 11.3333 28.9333C11.3333 29.2667 11.3333 29.6 11.3333 29.9333C10.9999 29.9333 10.6666 29.9333 10.3333 29.9333C10.3333 29.6 10.3333 29.2667 10.3333 28.9333Z" fill="#E5E6E5"/>
<path fill-rule="evenodd" clip-rule="evenodd" d="M8.33325 28.9333C8.66659 28.9333 8.99992 28.9333 9.33325 28.9333C9.33325 29.2667 9.33325 29.6 9.33325 29.9333C8.99992 29.9333 8.66659 29.9333 8.33325 29.9333C8.33325 29.6 8.33325 29.2667 8.33325 28.9333Z" fill="#E5E6E5"/>
<path fill-rule="evenodd" clip-rule="evenodd" d="M6.33325 28.9333C6.66659 28.9333 6.99992 28.9333 7.33325 28.9333C7.33325 29.2667 7.33325 29.6 7.33325 29.9333C6.99992 29.9333 6.66659 29.9333 6.33325 29.9333C6.33325 29.6 6.33325 29.2667 6.33325 28.9333Z" fill="#E5E6E5"/>
<path fill-rule="evenodd" clip-rule="evenodd" d="M4.33325 28.9333C4.66659 28.9333 4.99992 28.9333 5.33325 28.9333C5.33325 29.2667 5.33325 29.6 5.33325 29.9333C4.99992 29.9333 4.66659 29.9333 4.33325 29.9333C4.33325 29.6 4.33325 29.2667 4.33325 28.9333Z" fill="#E5E6E5"/>
<path fill-rule="evenodd" clip-rule="evenodd" d="M2.33325 28.9333C2.66659 28.9333 2.99992 28.9333 3.33325 28.9333C3.33325 29.2667 3.33325 29.6 3.33325 29.9333C2.99992 29.9333 2.66659 29.9333 2.33325 29.9333C2.33325 29.6 2.33325 29.2667 2.33325 28.9333Z" fill="#E5E6E5"/>
<path fill-rule="evenodd" clip-rule="evenodd" d="M0.333252 28.9333C0.666585 28.9333 0.999919 28.9333 1.33325 28.9333C1.33325 29.2667 1.33325 29.6 1.33325 29.9333C0.999919 29.9333 0.666585 29.9333 0.333252 29.9333C0.333252 29.6 0.333252 29.2667 0.333252 28.9333Z" fill="#E5E6E5"/>
</svg>
