<svg width="32" height="32" viewBox="0 0 32 32" fill="none" xmlns="http://www.w3.org/2000/svg">
<g clip-path="url(#clip0_20_4794)">
<path fill-rule="evenodd" clip-rule="evenodd" d="M-0.0532227 -0.0533447C10.6134 -0.0533447 21.2801 -0.0533447 31.9468 -0.0533447C31.9468 10.6133 31.9468 21.28 31.9468 31.9467C21.2801 31.9467 10.6134 31.9467 -0.0532227 31.9467C-0.0532227 21.28 -0.0532227 10.6133 -0.0532227 -0.0533447Z" fill="#819E32"/>
<path fill-rule="evenodd" clip-rule="evenodd" d="M0.160156 0.160034C10.7202 0.160034 21.2802 0.160034 31.8402 0.160034C31.8402 10.72 31.8402 21.28 31.8402 31.84C21.2802 31.84 10.7202 31.84 0.160156 31.84C0.160156 21.28 0.160156 10.72 0.160156 0.160034Z" fill="#1358D3"/>
<path fill-rule="evenodd" clip-rule="evenodd" d="M17.0133 8.0533C16.5077 7.72984 16.0455 7.78317 15.6266 8.2133C15.5255 8.2648 15.4189 8.28258 15.3066 8.26664C15.7111 7.67314 16.2445 7.51314 16.9066 7.78664C16.9869 7.85819 17.0225 7.94708 17.0133 8.0533Z" fill="#DAE5BC"/>
<path fill-rule="evenodd" clip-rule="evenodd" d="M17.0133 8.05335C16.9847 8.22391 17.0203 8.36614 17.12 8.48002C17.184 9.10817 17.3973 9.67706 17.76 10.1867C17.8706 10.3393 17.9417 10.517 17.9733 10.72C17.9911 11.1651 18.1333 11.5563 18.4 11.8934C18.642 12.6423 18.8375 13.4244 18.9866 14.24C19.0945 14.3293 19.219 14.3648 19.36 14.3467C19.5301 14.6438 19.6368 14.9638 19.68 15.3067C19.7088 15.7182 19.851 16.0737 20.1066 16.3734C20.7039 17.7629 21.2372 19.1852 21.7066 20.64C21.7503 21.0124 21.8569 21.368 22.0266 21.7067C22.2669 21.9296 22.4447 22.1963 22.56 22.5067C23.0703 22.7234 23.6036 22.8124 24.16 22.7734C24.16 22.9155 24.16 23.0578 24.16 23.2C22.2755 23.2 20.3911 23.2 18.5066 23.2C18.3645 23.0578 18.3645 22.9155 18.5066 22.7734C19.7797 22.9399 20.2242 22.4065 19.84 21.1734C19.8103 21.0756 19.757 21.0046 19.68 20.96C19.3768 20.1414 19.0568 19.3236 18.72 18.5067C18.6575 18.2571 18.5508 18.0259 18.4 17.8134C16.5158 17.76 14.6314 17.7422 12.7466 17.76C11.9825 17.7831 11.6269 18.1742 11.68 18.9334C11.4429 19.5963 11.1584 20.2363 10.8266 20.8534C10.6978 20.9316 10.5556 20.9672 10.4 20.96C10.2306 22.3902 10.8706 22.9947 12.32 22.7734C12.32 22.9155 12.32 23.0578 12.32 23.2C10.6489 23.2 8.97776 23.2 7.30664 23.2C7.30664 23.0578 7.30664 22.9155 7.30664 22.7734C7.90113 22.7575 8.47001 22.6508 9.01331 22.4534C9.01331 22.2755 9.01331 22.0978 9.01331 21.92C9.97271 19.7878 10.9327 17.6544 11.8933 15.52C12.1706 15.3516 12.4195 15.3872 12.64 15.6267C12.6829 16.0315 12.7184 16.4226 12.7466 16.8C12.7434 16.9064 12.7968 16.9775 12.9066 17.0134C14.5039 16.9447 16.0861 16.8736 17.6533 16.8C17.7245 16.8 17.7955 16.8 17.8666 16.8C17.9825 16.7872 18.0536 16.7161 18.08 16.5867C17.9978 16.194 17.909 15.8029 17.8133 15.4134C17.7417 15.3331 17.6529 15.2975 17.5466 15.3067C17.6001 14.7747 17.4224 14.3481 17.0133 14.0267C17.0419 13.8561 17.0063 13.7139 16.9066 13.6C16.9016 13.2728 16.8483 12.9528 16.7466 12.64C16.6698 12.474 16.5454 12.3674 16.3733 12.32C16.072 11.6443 15.8943 10.9331 15.84 10.1867C15.9625 10.1556 16.0337 10.0668 16.0533 9.92002C16.0178 9.83114 15.9822 9.74224 15.9466 9.65335C15.7423 9.57354 15.5289 9.57354 15.3066 9.65335C15.3011 9.25889 15.2655 8.86778 15.2 8.48002C15.2894 8.44357 15.325 8.37246 15.3066 8.26669C15.4189 8.28263 15.5255 8.26485 15.6266 8.21335C16.0455 7.78322 16.5077 7.72989 17.0133 8.05335Z" fill="#FCFDF9"/>
<path fill-rule="evenodd" clip-rule="evenodd" d="M17.1201 8.47998C17.3889 9.01944 17.6023 9.58832 17.7601 10.1866C17.3975 9.67702 17.1841 9.10813 17.1201 8.47998Z" fill="#E3EAC5"/>
<path fill-rule="evenodd" clip-rule="evenodd" d="M15.2002 8.47998C15.2657 8.86774 15.3013 9.25885 15.3069 9.65331C15.5292 9.5735 15.7425 9.5735 15.9469 9.65331C15.9824 9.7422 16.018 9.8311 16.0536 9.91998C16.0339 10.0667 15.9628 10.1556 15.8402 10.1866C15.698 10.1866 15.5557 10.1866 15.4136 10.1866C15.3555 10.6318 15.2312 11.0584 15.0402 11.4666C14.519 12.661 13.9501 13.8343 13.3336 14.9866C13.1098 15.5418 12.9142 16.1108 12.7469 16.6933C12.7469 16.7288 12.7469 16.7645 12.7469 16.8C12.7186 16.4226 12.6831 16.0314 12.6402 15.6266C12.4197 15.3872 12.1709 15.3516 11.8936 15.52C12.2572 14.6861 12.6483 13.8682 13.0669 13.0666C13.253 12.9031 13.3597 12.6898 13.3869 12.4266C13.9077 11.0655 14.5121 9.74993 15.2002 8.47998Z" fill="#F8FAF1"/>
<path fill-rule="evenodd" clip-rule="evenodd" d="M17.9731 10.72C18.1973 11.0717 18.3395 11.4627 18.3998 11.8933C18.1331 11.5562 17.991 11.1651 17.9731 10.72Z" fill="#D8E5B6"/>
<path fill-rule="evenodd" clip-rule="evenodd" d="M18.3999 11.8933C18.7804 12.6777 19.1004 13.4956 19.3599 14.3466C19.2189 14.3648 19.0944 14.3293 18.9866 14.24C18.8374 13.4244 18.6419 12.6422 18.3999 11.8933Z" fill="#EFF5DE"/>
<path fill-rule="evenodd" clip-rule="evenodd" d="M16.3735 12.3199C16.5456 12.3673 16.6701 12.474 16.7469 12.6399C16.8485 12.9527 16.9019 13.2727 16.9069 13.5999C16.734 13.1816 16.5561 12.7549 16.3735 12.3199Z" fill="#E7ECCE"/>
<path fill-rule="evenodd" clip-rule="evenodd" d="M13.3869 12.4266C13.3597 12.6898 13.253 12.9031 13.0669 13.0666C13.0941 12.8035 13.2008 12.5902 13.3869 12.4266Z" fill="#CFDBAF"/>
<path fill-rule="evenodd" clip-rule="evenodd" d="M15.8399 10.1866C15.8942 10.9331 16.0719 11.6442 16.3732 12.32C16.5559 12.755 16.7337 13.1816 16.9066 13.6C17.0062 13.7139 17.0418 13.8561 17.0132 14.0266C17.1931 14.4614 17.3709 14.8881 17.5466 15.3066C17.6177 15.5911 17.6888 15.8755 17.7599 16.16C17.7599 16.3378 17.7599 16.5155 17.7599 16.6933C16.0888 16.6933 14.4177 16.6933 12.7466 16.6933C12.9139 16.1108 13.1095 15.5418 13.3332 14.9866C13.9498 13.8343 14.5187 12.661 15.0399 11.4666C15.2308 11.0584 15.3552 10.6318 15.4132 10.1866C15.5554 10.1866 15.6977 10.1866 15.8399 10.1866Z" fill="#1358D3"/>
<path fill-rule="evenodd" clip-rule="evenodd" d="M17.0132 14.0266C17.4223 14.348 17.6 14.7747 17.5465 15.3066C17.3708 14.8881 17.193 14.4614 17.0132 14.0266Z" fill="#E2EAC6"/>
<path fill-rule="evenodd" clip-rule="evenodd" d="M6.34675 15.3067C6.6334 15.2892 6.91784 15.307 7.20008 15.36C7.294 15.4355 7.36512 15.5245 7.41342 15.6267C7.45466 16.0474 7.38355 16.4385 7.20008 16.8C6.82371 17.011 6.43261 17.0465 6.02675 16.9067C5.92806 16.8153 5.85695 16.7086 5.81342 16.5867C5.77999 16.2937 5.81555 16.0092 5.92008 15.7333C6.10014 15.6244 6.24236 15.4821 6.34675 15.3067Z" fill="#FAFBF5"/>
<path fill-rule="evenodd" clip-rule="evenodd" d="M24.4798 15.3066C24.7998 15.3066 25.1198 15.3066 25.4398 15.3066C25.6091 15.6824 25.6624 16.0736 25.5998 16.48C25.1251 16.642 24.6451 16.6775 24.1598 16.5866C24.1598 16.5511 24.1598 16.5155 24.1598 16.48C24.1424 16.2286 24.1601 15.9797 24.2131 15.7333C24.3711 15.6297 24.46 15.4875 24.4798 15.3066Z" fill="#FCFCFC"/>
<path fill-rule="evenodd" clip-rule="evenodd" d="M17.5469 15.3067C17.6531 15.2975 17.742 15.3332 17.8135 15.4134C17.9092 15.8029 17.9981 16.1941 18.0802 16.5867C18.0539 16.7161 17.9827 16.7872 17.8669 16.8C17.8983 16.5616 17.8627 16.3483 17.7602 16.16C17.6891 15.8756 17.618 15.5912 17.5469 15.3067Z" fill="#E7F1D5"/>
<path fill-rule="evenodd" clip-rule="evenodd" d="M24.4801 15.3066C24.4603 15.4875 24.3714 15.6297 24.2134 15.7333C24.1604 15.9797 24.1427 16.2286 24.1601 16.48C23.9487 16.0025 24.0553 15.6114 24.4801 15.3066Z" fill="#E0EDBF"/>
<path fill-rule="evenodd" clip-rule="evenodd" d="M19.6802 15.3066C19.8828 15.6286 20.025 15.9841 20.1068 16.3733C19.8512 16.0737 19.709 15.7182 19.6802 15.3066Z" fill="#E8F0CF"/>
<path fill-rule="evenodd" clip-rule="evenodd" d="M6.34652 15.3066C6.24213 15.4821 6.09991 15.6244 5.91986 15.7333C5.81532 16.0091 5.77976 16.2936 5.81319 16.5866C5.69182 16.2875 5.67404 15.9675 5.75986 15.6266C5.89463 15.4019 6.09018 15.2952 6.34652 15.3066Z" fill="#EAF4CF"/>
<path fill-rule="evenodd" clip-rule="evenodd" d="M7.41353 15.6267C7.51823 15.996 7.5538 16.3871 7.5202 16.8C7.41353 16.8 7.30686 16.8 7.2002 16.8C7.38366 16.4385 7.45477 16.0474 7.41353 15.6267Z" fill="#9AB165"/>
<path fill-rule="evenodd" clip-rule="evenodd" d="M17.7599 16.16C17.8624 16.3483 17.898 16.5616 17.8666 16.8C17.7954 16.8 17.7244 16.8 17.6532 16.8C16.0177 16.8 14.3821 16.8 12.7466 16.8C12.7466 16.7645 12.7466 16.7289 12.7466 16.6934C14.4177 16.6934 16.0888 16.6934 17.7599 16.6934C17.7599 16.5156 17.7599 16.3378 17.7599 16.16Z" fill="#94A75C"/>
<path fill-rule="evenodd" clip-rule="evenodd" d="M25.4402 15.3066C25.8974 15.6397 25.9864 16.0663 25.7068 16.5866C25.1648 17.1415 24.6492 17.1415 24.1602 16.5866C24.6455 16.6775 25.1255 16.642 25.6002 16.48C25.6628 16.0736 25.6094 15.6824 25.4402 15.3066Z" fill="#ECF1DA"/>
<path fill-rule="evenodd" clip-rule="evenodd" d="M12.7467 16.8C14.3822 16.8 16.0179 16.8 17.6534 16.8C16.0861 16.8736 14.5039 16.9447 12.9067 17.0134C12.7969 16.9775 12.7435 16.9064 12.7467 16.8Z" fill="#F0FBDD"/>
<path fill-rule="evenodd" clip-rule="evenodd" d="M12.7469 17.76C14.6317 17.7422 16.5161 17.76 18.4002 17.8133C18.551 18.0259 18.6577 18.257 18.7202 18.5066C18.5071 18.3182 18.2938 18.1405 18.0802 17.9733C16.2417 17.962 14.3929 17.9798 12.5336 18.0266C12.4397 18.1713 12.4041 18.3313 12.4269 18.5066C12.2357 18.4924 12.058 18.5279 11.8936 18.6133C12.0747 18.2189 12.3592 17.9344 12.7469 17.76Z" fill="#819743"/>
<path fill-rule="evenodd" clip-rule="evenodd" d="M12.7466 17.76C12.3589 17.9344 12.0744 18.2189 11.8933 18.6133C11.8472 18.7424 11.7761 18.8491 11.68 18.9333C11.6269 18.1742 11.9825 17.783 12.7466 17.76Z" fill="#EFF4D9"/>
<path fill-rule="evenodd" clip-rule="evenodd" d="M10.7202 22.1333C11.2729 22.3788 11.8417 22.5567 12.4269 22.6666C12.0341 22.6842 11.6431 22.6665 11.2535 22.6133C10.9884 22.5433 10.8106 22.3833 10.7202 22.1333Z" fill="#889B54"/>
<path fill-rule="evenodd" clip-rule="evenodd" d="M19.6802 20.96C19.7572 21.0045 19.8105 21.0756 19.8402 21.1733C20.2244 22.4065 19.7799 22.9398 18.5068 22.7733C18.9162 22.6663 19.3251 22.5241 19.7335 22.3466C19.8006 21.8804 19.7829 21.4182 19.6802 20.96Z" fill="#EEF5D7"/>
<path fill-rule="evenodd" clip-rule="evenodd" d="M10.8266 20.8533C10.6127 21.2794 10.5772 21.7061 10.7199 22.1333C10.8103 22.3833 10.9881 22.5433 11.2533 22.6133C11.6428 22.6665 12.0338 22.6842 12.4266 22.6666C12.566 22.8504 12.566 23.046 12.4266 23.2533C10.6844 23.3244 8.94214 23.3244 7.19993 23.2533C7.05771 23.0755 7.05771 22.8978 7.19993 22.7199C7.62369 22.6103 8.05036 22.5214 8.47993 22.4533C8.47993 22.3466 8.47993 22.2399 8.47993 22.1333C8.69473 22.1448 8.87251 22.0738 9.01326 21.9199C9.01326 22.0978 9.01326 22.2755 9.01326 22.4533C8.46996 22.6507 7.90108 22.7574 7.30659 22.7733C7.30659 22.9155 7.30659 23.0578 7.30659 23.1999C8.97771 23.1999 10.6488 23.1999 12.3199 23.1999C12.3199 23.0578 12.3199 22.9155 12.3199 22.7733C10.8705 22.9946 10.2305 22.3901 10.3999 20.9599C10.5555 20.9671 10.6977 20.9316 10.8266 20.8533Z" fill="#F0F8D6"/>
<path fill-rule="evenodd" clip-rule="evenodd" d="M21.7068 20.64C21.9554 20.9949 22.1509 21.3859 22.2935 21.8133C22.8349 22.4621 23.5283 22.7466 24.3735 22.6667C24.399 22.8765 24.3635 23.0721 24.2668 23.2533C22.3286 23.3418 20.4086 23.324 18.5068 23.2C20.3913 23.2 22.2757 23.2 24.1602 23.2C24.1602 23.0578 24.1602 22.9155 24.1602 22.7733C23.6038 22.8124 23.0705 22.7234 22.5602 22.5067C22.4449 22.1963 22.267 21.9296 22.0268 21.7067C21.8571 21.368 21.7505 21.0124 21.7068 20.64Z" fill="#F1FAD8"/>
</g>
<defs>
<clipPath id="clip0_20_4794">
<rect width="32" height="32" fill="white"/>
</clipPath>
</defs>
</svg>
