<svg width="32" height="32" viewBox="0 0 32 32" fill="none" xmlns="http://www.w3.org/2000/svg">
    <path fill-rule="evenodd" clip-rule="evenodd"
        d="M16.9955 9.03107C17.1427 9.52795 17.3323 10.002 17.5644 10.4533C17.5865 10.8955 17.6813 11.3222 17.8489 11.7333C18.1096 11.9679 18.3466 12.2049 18.56 12.4444C19.3287 13.6025 19.9449 14.8352 20.4089 16.1422C20.4023 16.8069 20.663 17.3285 21.1911 17.7066C21.2884 17.8892 21.2646 18.0552 21.12 18.2044C21.2548 18.2731 21.397 18.2967 21.5466 18.2755C21.5161 18.5143 21.6109 18.6565 21.8311 18.7022C22.2828 19.416 22.6621 20.1745 22.9689 20.9777C23.0671 21.5077 23.2094 22.0292 23.3955 22.5422C23.2665 22.9576 23.2192 23.3843 23.2533 23.8222C23.4486 23.7999 23.6383 23.8236 23.8222 23.8933C22.2841 24.1776 20.767 24.1538 19.2711 23.8222C18.9866 23.4429 18.7022 23.0637 18.4177 22.6844C18.071 21.7981 17.7155 20.8974 17.3511 19.9822C16.7124 18.8943 16.1435 17.7565 15.6444 16.5688C15.4073 16.3793 15.1704 16.3793 14.9333 16.5688C13.8692 19.0501 12.7078 21.4678 11.4489 23.8222C11.2208 23.7954 11.0312 23.8666 10.88 24.0355C9.36367 24.1066 7.84664 24.1304 6.32886 24.1066C6.32886 23.9644 6.32886 23.8222 6.32886 23.68C6.81365 22.5683 7.33514 21.4779 7.8933 20.4088C8.16462 20.2686 8.30684 20.0317 8.31997 19.6977C8.84116 18.6554 9.36264 17.6123 9.88441 16.5688C10.0844 16.5016 10.1792 16.3594 10.1689 16.1422C10.8485 14.735 11.5596 13.3602 12.3022 12.0177C12.6193 11.5405 12.9749 11.0664 13.3689 10.5955C13.4314 10.259 13.5025 9.92718 13.5822 9.59996C13.8886 8.8919 14.1967 8.18079 14.5066 7.46662C14.702 7.07197 14.9627 6.74013 15.2889 6.47107C15.5147 6.54355 15.6807 6.68577 15.7866 6.89774C16.1238 7.6517 16.5269 8.36281 16.9955 9.03107Z"
        fill="#F5941F" />
    <path fill-rule="evenodd" clip-rule="evenodd"
        d="M13.5822 9.59998C13.5025 9.9272 13.4314 10.259 13.3689 10.5955C12.9749 11.0664 12.6194 11.5405 12.3022 12.0178C12.6208 11.1431 13.0474 10.3372 13.5822 9.59998Z"
        fill="#E7A448" />
    <path fill-rule="evenodd" clip-rule="evenodd"
        d="M17.5645 10.4534C17.9497 11.0859 18.2815 11.7496 18.56 12.4445C18.3467 12.205 18.1096 11.9679 17.8489 11.7334C17.6814 11.3222 17.5865 10.8956 17.5645 10.4534Z"
        fill="#E79F3B" />
    <path fill-rule="evenodd" clip-rule="evenodd"
        d="M20.4089 16.1422C20.6059 16.295 20.7717 16.4845 20.9067 16.7111C21.253 17.3565 21.5612 18.0201 21.8312 18.7022C21.611 18.6566 21.5161 18.5143 21.5467 18.2755C21.3971 18.2967 21.2549 18.2731 21.12 18.2044C21.2647 18.0552 21.2884 17.8893 21.1912 17.7067C20.6631 17.3285 20.4024 16.807 20.4089 16.1422Z"
        fill="#EAA74D" />
    <path fill-rule="evenodd" clip-rule="evenodd"
        d="M22.9689 20.9778C23.6399 21.9876 24.1141 23.0778 24.3911 24.2489C22.6845 24.2489 20.9778 24.2489 19.2711 24.2489C19.2711 24.1067 19.2711 23.9644 19.2711 23.8222C20.767 24.1539 22.2841 24.1776 23.8222 23.8933C23.6383 23.8236 23.4486 23.7999 23.2533 23.8222C23.2192 23.3843 23.2666 22.9577 23.3956 22.5422C23.2094 22.0292 23.0672 21.5077 22.9689 20.9778Z"
        fill="#EA9629" />
    <path fill-rule="evenodd" clip-rule="evenodd"
        d="M6.3289 23.6801C6.3289 23.8223 6.3289 23.9645 6.3289 24.1067C7.84668 24.1305 9.36371 24.1067 10.88 24.0356C11.0312 23.8666 11.2209 23.7955 11.4489 23.8223C11.4611 23.9639 11.4137 24.0824 11.3067 24.1778C9.60066 24.2489 7.894 24.2727 6.18668 24.2489C6.14859 24.0215 6.19599 23.8319 6.3289 23.6801Z"
        fill="#DB9628" />
</svg>