<svg width="32" height="32" viewBox="0 0 32 32" fill="none" xmlns="http://www.w3.org/2000/svg">
<g clip-path="url(#clip0_20_4818)">
<path fill-rule="evenodd" clip-rule="evenodd" d="M-0.0712891 -0.071167C10.5954 -0.071167 21.262 -0.071167 31.9287 -0.071167C31.9287 10.5955 31.9287 21.2622 31.9287 31.9288C21.262 31.9288 10.5954 31.9288 -0.0712891 31.9288C-0.0712891 21.2622 -0.0712891 10.5955 -0.0712891 -0.071167Z" fill="#FEFEFE"/>
<path fill-rule="evenodd" clip-rule="evenodd" d="M0.7824 3.91111C10.8803 3.8874 20.9781 3.91111 31.0757 3.98222C31.3364 4.14815 31.5498 4.36149 31.7157 4.62222C31.8106 12.16 31.8106 19.6978 31.7157 27.2356C31.5498 27.4963 31.3364 27.7096 31.0757 27.8756C20.978 27.9704 10.8802 27.9704 0.7824 27.8756C0.52166 27.7096 0.308327 27.4963 0.1424 27.2356C0.0475853 19.6978 0.0475853 12.16 0.1424 4.62222C0.336632 4.35745 0.549965 4.12042 0.7824 3.91111Z" fill="#4299D5"/>
<path fill-rule="evenodd" clip-rule="evenodd" d="M4.05327 10.5956C11.9705 10.5719 19.8874 10.5956 27.8044 10.6667C27.9704 10.8326 28.1362 10.9985 28.3022 11.1644C28.397 15.526 28.397 19.8874 28.3022 24.2489C28.0462 24.5073 27.7381 24.6733 27.3777 24.7467C19.6977 24.8415 12.0177 24.8415 4.33771 24.7467C4.04085 24.634 3.7801 24.4681 3.55549 24.2489C3.46067 19.8874 3.46067 15.526 3.55549 11.1644C3.75113 10.9931 3.91706 10.8034 4.05327 10.5956Z" fill="#FDFDFE"/>
<path fill-rule="evenodd" clip-rule="evenodd" d="M10.7378 19.5555C14.1985 19.5555 17.6593 19.5555 21.12 19.5555C21.12 20.7882 21.12 22.0207 21.12 23.2533C17.6593 23.2533 14.1985 23.2533 10.7378 23.2533C10.7378 22.0207 10.7378 20.7882 10.7378 19.5555Z" fill="#4199D5"/>
<path fill-rule="evenodd" clip-rule="evenodd" d="M16.8535 20.2667C17.0947 20.293 17.2843 20.4116 17.4224 20.6223C16.8802 21.3495 16.2876 22.0368 15.6446 22.6845C15.2232 22.4056 14.844 22.0738 14.5068 21.6889C14.6835 20.9566 14.9917 20.9329 15.4313 21.6178C15.9495 21.2668 16.4237 20.8166 16.8535 20.2667Z" fill="#F3F8FC"/>
<path fill-rule="evenodd" clip-rule="evenodd" d="M8.17765 16.2845C13.3459 16.2371 18.5134 16.2845 23.6799 16.4267C23.6502 16.51 23.6027 16.5812 23.5377 16.64C18.465 16.7349 13.3925 16.7349 8.31988 16.64C8.21287 16.5446 8.16545 16.4261 8.17765 16.2845Z" fill="#F0F0F0"/>
<path fill-rule="evenodd" clip-rule="evenodd" d="M8.17765 14.5778C13.3459 14.5305 18.5134 14.5778 23.6799 14.72C23.6502 14.8034 23.6027 14.8745 23.5377 14.9334C18.465 15.0282 13.3925 15.0282 8.31988 14.9334C8.21287 14.8379 8.16545 14.7195 8.17765 14.5778Z" fill="#EFEFEF"/>
<path fill-rule="evenodd" clip-rule="evenodd" d="M8.31996 12.8711C13.3928 12.8474 18.4654 12.8711 23.5377 12.9422C23.6027 13.0011 23.6502 13.0722 23.68 13.1555C18.5126 13.3451 13.3451 13.3451 8.17773 13.1555C8.22932 13.0583 8.27674 12.9635 8.31996 12.8711Z" fill="#EFEFEF"/>
<path fill-rule="evenodd" clip-rule="evenodd" d="M26.5247 6.1867C28.4622 6.10636 29.1022 6.9597 28.4447 8.7467C27.6771 9.44301 26.8711 9.49043 26.0269 8.88893C25.273 7.81849 25.439 6.91775 26.5247 6.1867Z" fill="#FCFDFE"/>
<path fill-rule="evenodd" clip-rule="evenodd" d="M21.12 6.18667C22.8202 5.93072 23.555 6.64183 23.3245 8.32001C22.9292 9.25142 22.2419 9.55956 21.2622 9.24445C19.7942 8.28461 19.7469 7.26534 21.12 6.18667Z" fill="#FBFCFE"/>
<path fill-rule="evenodd" clip-rule="evenodd" d="M15.8576 6.1867C17.7951 6.10636 18.4351 6.9597 17.7776 8.7467C17.2452 9.28137 16.6052 9.4473 15.8576 9.24448C14.9556 8.76636 14.6475 8.03155 14.9331 7.04004C15.2265 6.7223 15.5346 6.43785 15.8576 6.1867Z" fill="#FAFCFD"/>
</g>
<defs>
<clipPath id="clip0_20_4818">
<rect width="32" height="32" fill="white"/>
</clipPath>
</defs>
</svg>
