<svg width="32" height="32" viewBox="0 0 32 32" fill="none" xmlns="http://www.w3.org/2000/svg">
    <path
        d="M27.2816 26.5397V10.2857L16.0225 4.57141L4.76343 10.2857V26.6032L8.66081 28.5714V19.4286H23.3842V28.5714L27.2816 26.5397ZM8.66081 16V12.254L16.0225 8.50792L23.3842 12.254V16H8.66081Z"
        fill="white" />
    <path
        d="M4.76346 10.2857L0.288695 8C0.144347 8.25397 0 8.57143 0 8.8254V23.1746C0 23.746 0.433042 24.381 0.938258 24.6349L4.69129 26.5397V10.2857H4.76346Z"
        fill="#00B0FF" />
    <path d="M16.0226 15.9999L8.66089 12.2539V15.9999H16.0226Z" fill="#00B0FF" />
    <path
        d="M8.66089 19.4286V28.508L15.0843 31.746C15.373 31.873 15.7339 31.9365 16.0226 31.9365V19.4286H8.66089Z"
        fill="#00B0FF" />
    <path
        d="M16.0226 4.50794L27.2816 10.2222L31.7564 7.93651C31.6121 7.68254 31.3234 7.42857 31.1068 7.30159L16.9608 0.190476C16.4556 -0.0634921 15.5895 -0.0634921 15.0121 0.190476L0.938259 7.36508C0.649565 7.49206 0.433044 7.74603 0.288696 8L4.76346 10.2857L16.0226 4.50794Z"
        fill="#40C4FF" />
    <path d="M16.0226 8.50793L8.66089 12.254L16.0226 16L23.3843 12.254L16.0226 8.50793Z"
        fill="#40C4FF" />
    <path d="M16.0225 15.9999H23.3842V12.2539L16.0225 15.9999Z" fill="#0091EA" />
    <path
        d="M23.3842 19.4286H16.0225V32C16.3833 32 16.7442 31.9365 16.9607 31.8095L23.3842 28.5714V19.4286Z"
        fill="#0091EA" />
    <path
        d="M31.7564 8L27.2816 10.2857V26.6032L31.0346 24.6984C31.5399 24.4444 31.9729 23.746 31.9729 23.2381V8.8254C32.0451 8.57143 31.9729 8.25397 31.7564 8Z"
        fill="#0091EA" />
</svg>