<svg width="32" height="32" viewBox="0 0 32 32" fill="none" xmlns="http://www.w3.org/2000/svg">
<path fill-rule="evenodd" clip-rule="evenodd" d="M23.0148 7.79204C23.364 7.75296 23.6942 7.80376 24.0052 7.94442C24.1069 10.6365 24.1069 13.3285 24.0052 16.0206C23.5463 16.4396 23.1399 16.3889 22.7862 15.8682C22.6846 13.3285 22.6846 10.7889 22.7862 8.24918C22.8644 8.09275 22.9406 7.94037 23.0148 7.79204Z" fill="#25A1D8"/>
<path fill-rule="evenodd" clip-rule="evenodd" d="M7.92933 7.79185C8.36584 7.72402 8.74679 7.82561 9.07219 8.09662C9.17378 10.6871 9.17378 13.2776 9.07219 15.868C8.71851 16.3887 8.31217 16.4395 7.85314 16.0204C7.72837 13.2664 7.75377 10.5235 7.92933 7.79185Z" fill="#24A1D8"/>
<path fill-rule="evenodd" clip-rule="evenodd" d="M4.1203 10.3822C4.55681 10.3143 4.93776 10.4159 5.26315 10.687C5.36475 12.0076 5.36475 13.3282 5.26315 14.6489C4.8568 15.0552 4.45046 15.0552 4.04411 14.6489C3.92531 13.2194 3.95071 11.7972 4.1203 10.3822Z" fill="#139ED6"/>
<path fill-rule="evenodd" clip-rule="evenodd" d="M26.9767 10.2297C27.3429 10.2134 27.6222 10.3658 27.8148 10.6868C27.9164 12.0075 27.9164 13.3281 27.8148 14.6487C27.4084 15.0551 27.0022 15.0551 26.5958 14.6487C26.4941 13.3281 26.4941 12.0075 26.5958 10.6868C26.755 10.5538 26.8819 10.4014 26.9767 10.2297Z" fill="#0F9CD5"/>
<path fill-rule="evenodd" clip-rule="evenodd" d="M11.7384 10.3824C12.0877 10.3433 12.4179 10.3941 12.7288 10.5348C12.8304 11.9062 12.8304 13.2776 12.7288 14.649C12.3225 15.0554 11.9161 15.0554 11.5098 14.649C11.4082 13.3284 11.4082 12.0078 11.5098 10.6871C11.6191 10.6042 11.6953 10.5026 11.7384 10.3824Z" fill="#1C9FD6"/>
<path fill-rule="evenodd" clip-rule="evenodd" d="M19.2051 10.3822C19.6417 10.3143 20.0227 10.4159 20.348 10.687C20.4496 11.9568 20.4496 13.2266 20.348 14.4965C20.0161 15.0398 19.6099 15.0906 19.1289 14.6489C19.0063 13.2148 19.0317 11.7926 19.2051 10.3822Z" fill="#1D9FD7"/>
<path fill-rule="evenodd" clip-rule="evenodd" d="M0.462661 12.2107C0.850379 12.1504 1.18054 12.252 1.45314 12.5155C1.55473 13.2266 1.55473 13.9377 1.45314 14.6488C1.04678 15.0551 0.640444 15.0551 0.23409 14.6488C0.0734118 13.7932 0.149602 12.9806 0.462661 12.2107Z" fill="#189ED6"/>
<path fill-rule="evenodd" clip-rule="evenodd" d="M15.5486 12.2107C15.9362 12.1504 16.2664 12.252 16.539 12.5155C16.6407 13.2266 16.6407 13.9377 16.539 14.6488C16.1326 15.0551 15.7264 15.0551 15.32 14.6488C15.1594 13.7932 15.2356 12.9806 15.5486 12.2107Z" fill="#119DD5"/>
<path fill-rule="evenodd" clip-rule="evenodd" d="M30.6345 12.2107C31.0221 12.1504 31.3524 12.252 31.625 12.5155C31.7266 13.2266 31.7266 13.9377 31.625 14.6488C31.2186 15.0551 30.8123 15.0551 30.4059 14.6488C30.2453 13.7932 30.3215 12.9806 30.6345 12.2107Z" fill="#1C9FD6"/>
<path fill-rule="evenodd" clip-rule="evenodd" d="M5.18671 18.6107C5.85245 18.6057 6.51276 18.6565 7.16767 18.7631C7.19281 19.2735 7.16741 19.7815 7.09148 20.2869C6.15615 19.7933 5.34345 19.9457 4.65338 20.744C4.4269 22.6802 5.26499 23.3404 7.16767 22.725C7.21603 23.1931 7.16524 23.6502 7.01528 24.0964C4.17649 24.6218 2.88125 23.4535 3.12957 20.5916C3.50175 19.5842 4.18746 18.9238 5.18671 18.6107Z" fill="#1A9FD7"/>
<path fill-rule="evenodd" clip-rule="evenodd" d="M13.7201 18.6107C14.3858 18.6057 15.0461 18.6565 15.701 18.7631C15.701 19.1694 15.701 19.5758 15.701 19.9821C15.1477 19.8431 14.5891 19.8177 14.0248 19.9059C13.6185 20.1599 13.6185 20.4139 14.0248 20.6678C15.799 20.8914 16.3831 21.8311 15.7772 23.4869C15.5278 23.8389 15.1975 24.0674 14.7867 24.1726C13.9756 24.2486 13.1629 24.2741 12.3486 24.2488C12.3486 23.8424 12.3486 23.4361 12.3486 23.0297C13.0615 23.055 13.7727 23.0296 14.482 22.9535C14.6892 22.6582 14.6385 22.4044 14.3296 22.1916C12.6563 21.8955 12.0722 20.9558 12.5772 19.3726C12.9468 19.0751 13.3278 18.8211 13.7201 18.6107Z" fill="#199ED6"/>
<path fill-rule="evenodd" clip-rule="evenodd" d="M19.6627 18.6108C20.3266 18.624 20.9869 18.6748 21.6436 18.7632C21.6924 19.2811 21.6416 19.789 21.4912 20.287C20.3929 19.7137 19.5548 19.9677 18.977 21.0489C18.8278 22.2462 19.3611 22.8557 20.577 22.8775C20.8909 22.8665 21.1956 22.8158 21.4912 22.7251C21.9156 23.8777 21.5347 24.3856 20.3484 24.2489C18.4886 24.1924 17.4981 23.2274 17.377 21.3537C17.5915 19.9719 18.3534 19.0576 19.6627 18.6108Z" fill="#1E9FD7"/>
<path fill-rule="evenodd" clip-rule="evenodd" d="M25.1486 18.6109C28.019 18.5665 29.1619 19.938 28.5772 22.7252C27.7481 24.069 26.5545 24.5516 24.9963 24.1728C23.4778 23.5337 22.843 22.3909 23.0915 20.7442C23.501 19.7509 24.1867 19.0398 25.1486 18.6109Z" fill="#1B9FD7"/>
<path fill-rule="evenodd" clip-rule="evenodd" d="M9.14844 18.7632C9.60558 18.7632 10.0627 18.7632 10.5199 18.7632C10.5199 20.5918 10.5199 22.4203 10.5199 24.2489C10.0627 24.2489 9.60558 24.2489 9.14844 24.2489C9.14844 22.4203 9.14844 20.5918 9.14844 18.7632Z" fill="#20A0D7"/>
<path fill-rule="evenodd" clip-rule="evenodd" d="M25.3011 20.1348C27.2929 20.0699 27.8009 20.908 26.8249 22.6491C25.2121 23.1756 24.4755 22.5915 24.6154 20.8968C24.7716 20.5635 25.0001 20.3095 25.3011 20.1348Z" fill="#FAFDFD"/>
</svg>
