<svg width="32" height="32" viewBox="0 0 32 32" fill="none" xmlns="http://www.w3.org/2000/svg">
<g clip-path="url(#clip0_24_303)">
<mask id="mask0_24_303" style="mask-type:luminance" maskUnits="userSpaceOnUse" x="0" y="0" width="32" height="32">
<path d="M32 0H0V32H32V0Z" fill="white"/>
</mask>
<g mask="url(#mask0_24_303)">
<path fill-rule="evenodd" clip-rule="evenodd" d="M13.5821 4.90662C14.0775 5.08472 14.5989 5.20323 15.1466 5.26217C14.8546 5.41581 14.5464 5.53433 14.2221 5.61773C14.1514 5.99405 14.1277 6.37331 14.151 6.75551C13.7718 6.75551 13.3925 6.75551 13.0132 6.75551C13.0132 7.13477 13.0132 7.51402 13.0132 7.89328C12.871 7.89328 12.7288 7.89328 12.5866 7.89328C12.5866 8.27255 12.5866 8.6518 12.5866 9.03106C12.1599 9.03106 11.7332 9.03106 11.3066 9.03106C11.354 9.78957 11.4014 10.5481 11.4488 11.3066C11.0221 11.3066 10.5955 11.3066 10.1688 11.3066C10.1688 11.6859 10.1688 12.0651 10.1688 12.4444C9.78951 12.4444 9.41026 12.4444 9.031 12.4444C9.031 13.2029 9.031 13.9614 9.031 14.7199C8.84137 14.7199 8.65173 14.7199 8.46211 14.7199C8.46211 15.0993 8.46211 15.4784 8.46211 15.8577C7.89322 15.8577 7.32433 15.8577 6.75544 15.8577C6.66062 16.6162 6.56582 17.3748 6.471 18.1333C6.18655 18.1333 5.90211 18.1333 5.61766 18.1333C5.73775 18.9929 5.73775 19.8462 5.61766 20.6933C3.795 16.5933 4.19797 12.7059 6.82655 9.03106C8.5823 6.83789 10.8342 5.46309 13.5821 4.90662Z" fill="#5E1E7B"/>
<path fill-rule="evenodd" clip-rule="evenodd" d="M19.2711 5.19108C19.2553 5.27889 19.208 5.35 19.1289 5.40442C18.8004 5.47505 18.4686 5.49875 18.1334 5.47553C18.1334 6.28146 18.1334 7.08738 18.1334 7.89331C17.754 7.89331 17.3749 7.89331 16.9956 7.89331C16.9956 8.27257 16.9956 8.65182 16.9956 9.03108C16.6163 9.03108 16.2371 9.03108 15.8578 9.03108C15.8578 9.41035 15.8578 9.7896 15.8578 10.1689C15.6682 10.1689 15.4785 10.1689 15.2889 10.1689C15.2889 10.4533 15.2889 10.7378 15.2889 11.0222C15.5709 10.9734 15.7607 11.0682 15.8578 11.3066C13.5854 12.1568 12.0209 13.7213 11.1645 16C11.0696 16.1422 10.9748 16.2844 10.88 16.4266C10.6416 16.3295 10.5468 16.1398 10.5956 15.8578C10.4534 15.8578 10.3111 15.8578 10.1689 15.8578C10.2683 16.3891 10.4105 16.9106 10.5956 17.4222C10.2983 17.9954 10.1561 18.6116 10.1689 19.2711C9.78965 19.2711 9.4104 19.2711 9.03113 19.2711C9.03113 20.0296 9.03113 20.7882 9.03113 21.5466C8.65187 21.5466 8.27262 21.5466 7.89335 21.5466C7.93773 22.1404 7.84291 22.7093 7.60891 23.2533C7.71498 23.4291 7.7624 23.6188 7.75113 23.8222C6.75917 22.9777 6.04806 21.9348 5.6178 20.6933C5.73789 19.8462 5.73789 18.9929 5.6178 18.1333C5.90224 18.1333 6.18669 18.1333 6.47113 18.1333C6.56595 17.3748 6.66076 16.6162 6.75558 15.8578C7.32446 15.8578 7.89335 15.8578 8.46224 15.8578C8.46224 15.4784 8.46224 15.0993 8.46224 14.72C8.65187 14.72 8.84151 14.72 9.03113 14.72C9.03113 13.9615 9.03113 13.2029 9.03113 12.4444C9.4104 12.4444 9.78965 12.4444 10.1689 12.4444C10.1689 12.0652 10.1689 11.6859 10.1689 11.3066C10.5956 11.3066 11.0222 11.3066 11.4489 11.3066C11.4015 10.5481 11.3541 9.7896 11.3067 9.03108C11.7334 9.03108 12.16 9.03108 12.5867 9.03108C12.5867 8.65182 12.5867 8.27257 12.5867 7.89331C12.7289 7.89331 12.8711 7.89331 13.0134 7.89331C13.0134 7.51404 13.0134 7.13479 13.0134 6.75553C13.3926 6.75553 13.7719 6.75553 14.1511 6.75553C14.1278 6.37334 14.1515 5.99407 14.2222 5.61775C14.5465 5.53435 14.8547 5.41584 15.1467 5.2622C14.599 5.20326 14.0776 5.08475 13.5822 4.90664C13.7399 4.79428 13.9295 4.72317 14.1511 4.69331C15.194 4.59849 16.2371 4.59849 17.28 4.69331C17.9862 4.76256 18.6499 4.92849 19.2711 5.19108Z" fill="#681877"/>
<path fill-rule="evenodd" clip-rule="evenodd" d="M19.271 5.19116C20.5273 5.53487 21.665 6.10376 22.6843 6.89783C22.6899 7.05188 22.7374 7.19411 22.8266 7.3245C23.1084 7.42636 23.3455 7.59229 23.5377 7.82227C23.3538 7.89196 23.1641 7.91567 22.9688 7.89338C22.9688 8.27265 22.9688 8.6519 22.9688 9.03116C22.4948 9.03116 22.0206 9.03116 21.5466 9.03116C21.7484 9.98677 21.3691 10.5082 20.4088 10.5956C20.7881 10.6904 21.1673 10.7852 21.5466 10.8801C21.2559 10.9604 21.0189 11.1027 20.8354 11.3067C19.1722 10.7551 17.5129 10.7551 15.8577 11.3067C15.7605 11.0683 15.5708 10.9735 15.2888 11.0223C15.2888 10.7378 15.2888 10.4534 15.2888 10.1689C15.4784 10.1689 15.6681 10.1689 15.8577 10.1689C15.8577 9.78968 15.8577 9.41043 15.8577 9.03116C16.237 9.03116 16.6161 9.03116 16.9954 9.03116C16.9954 8.6519 16.9954 8.27265 16.9954 7.89338C17.3748 7.89338 17.7539 7.89338 18.1332 7.89338C18.1332 7.08745 18.1332 6.28154 18.1332 5.47561C18.4684 5.49883 18.8002 5.47512 19.1288 5.4045C19.2079 5.35008 19.2552 5.27897 19.271 5.19116Z" fill="#771375"/>
<path fill-rule="evenodd" clip-rule="evenodd" d="M20.8355 11.3067C22.6546 12.0251 24.0768 13.2103 25.1022 14.8622C25.4428 15.6393 25.7035 16.4451 25.8844 17.28C26.0231 20.0424 25.9756 22.7921 25.7422 25.5289C25.6237 25.6473 25.5051 25.766 25.3867 25.8844C22.7322 25.9555 20.0775 25.9793 17.4222 25.9555C16.5884 25.8721 15.7824 25.6825 15.0044 25.3867C12.9908 24.248 11.616 22.5889 10.88 20.4089C10.7067 19.2675 10.7067 18.1298 10.88 16.9955C11.1165 16.7199 11.2113 16.388 11.1644 16C12.0209 13.7213 13.5853 12.1569 15.8578 11.3067C17.5129 10.755 19.1723 10.755 20.8355 11.3067Z" fill="#FCFBFC"/>
<path fill-rule="evenodd" clip-rule="evenodd" d="M22.6843 6.89783C25.1901 8.74293 26.7072 11.2081 27.2354 14.2934C26.987 13.8432 26.7736 13.3691 26.5954 12.8712C26.3474 13.0346 26.3237 13.2242 26.5243 13.44C26.2965 13.8293 26.1779 14.256 26.1688 14.72C26.1429 14.3324 26.0718 13.9531 25.9554 13.5823C25.8151 14.0471 25.7677 14.5212 25.8132 15.0045C25.5795 15.0073 25.39 14.9125 25.2443 14.72C25.158 14.7377 25.1106 14.785 25.1021 14.8623C24.0767 13.2103 22.6545 12.0251 20.8354 11.3067C21.0189 11.1027 21.2559 10.9604 21.5466 10.88C21.1672 10.7852 20.7881 10.6904 20.4088 10.5956C21.3691 10.5082 21.7484 9.98677 21.5466 9.03116C22.0206 9.03116 22.4947 9.03116 22.9688 9.03116C22.9688 8.6519 22.9688 8.27265 22.9688 7.89338C23.164 7.91567 23.3538 7.89196 23.5377 7.82227C23.3455 7.59228 23.1084 7.42635 22.8266 7.32449C22.7374 7.1941 22.6899 7.05188 22.6843 6.89783Z" fill="#851070"/>
<path fill-rule="evenodd" clip-rule="evenodd" d="M20.4089 15.2888C19.8387 15.1304 19.2698 15.1304 18.7022 15.2888C18.1581 14.9449 17.5892 14.9212 16.9955 15.2177C17.3832 15.2436 17.7625 15.3147 18.1333 15.4311C17.8792 15.5471 17.6421 15.6893 17.4222 15.8577C17.3273 15.8104 17.2326 15.7629 17.1378 15.7155C16.9978 16.1319 16.9505 16.5586 16.9955 16.9955C16.7585 16.9955 16.5215 16.9955 16.2844 16.9955C16.2844 17.754 16.2844 18.5126 16.2844 19.2711C16.1422 19.2711 16 19.2711 15.8578 19.2711C15.9459 18.7303 15.8273 18.2563 15.5022 17.8488C15.463 18.7677 15.5816 19.6684 15.8578 20.5511C15.7831 20.6495 15.6882 20.7206 15.5733 20.7644C15.8306 21.0827 16.1624 21.2487 16.5689 21.2622C16.5689 21.4044 16.5689 21.5466 16.5689 21.6888C16.7111 21.6888 16.8533 21.6888 16.9955 21.6888C17.2299 21.8918 17.5144 22.0103 17.8489 22.0444C18.3206 22.1152 18.7947 22.139 19.2711 22.1155C16.9088 22.5092 15.3206 21.5611 14.5067 19.2711C14.2411 17.171 15.0709 15.6777 16.9955 14.7911C18.211 14.5807 19.3488 14.7467 20.4089 15.2888Z" fill="#7B1972"/>
<path fill-rule="evenodd" clip-rule="evenodd" d="M20.4088 15.2889C20.3209 15.6491 20.3445 16.0283 20.4799 16.4267C20.6237 16.3076 20.7896 16.2603 20.9776 16.2844C21.0182 16.5387 20.9708 16.7758 20.8354 16.9955C20.6963 16.9277 20.5779 16.833 20.4799 16.7111C20.4089 17.5631 20.3852 18.4165 20.4088 19.2711C20.0295 19.2711 19.6503 19.2711 19.271 19.2711C19.4482 20.1369 19.2111 20.8481 18.5599 21.4044C18.0706 21.6495 17.5492 21.7443 16.9954 21.6889C16.8532 21.6889 16.711 21.6889 16.5688 21.6889C16.5688 21.5467 16.5688 21.4044 16.5688 21.2622C16.1623 21.2487 15.8305 21.0827 15.5732 20.7644C15.6881 20.7206 15.783 20.6495 15.8576 20.5511C15.5815 19.6685 15.4628 18.7678 15.5021 17.8489C15.8272 18.2563 15.9458 18.7304 15.8576 19.2711C15.9999 19.2711 16.1421 19.2711 16.2843 19.2711C16.2843 18.5126 16.2843 17.754 16.2843 16.9955C16.5214 16.9955 16.7583 16.9955 16.9954 16.9955C16.9503 16.5586 16.9977 16.132 17.1376 15.7155C17.2325 15.7629 17.3272 15.8104 17.4221 15.8578C17.642 15.6894 17.8791 15.5471 18.1332 15.4311C17.7624 15.3148 17.3831 15.2436 16.9954 15.2178C17.5891 14.9212 18.158 14.945 18.7021 15.2889C19.2697 15.1304 19.8386 15.1304 20.4088 15.2889Z" fill="#810F72"/>
<path fill-rule="evenodd" clip-rule="evenodd" d="M11.1643 16C11.2112 16.388 11.1164 16.7199 10.8799 16.9956C10.8799 16.806 10.8799 16.6162 10.8799 16.4267C10.9747 16.2844 11.0695 16.1422 11.1643 16Z" fill="#E5B9E7"/>
<path fill-rule="evenodd" clip-rule="evenodd" d="M20.4089 15.2889C21.848 16.2263 22.3932 17.5537 22.0444 19.2712C21.671 20.7587 20.7465 21.7069 19.2711 22.1156C18.7947 22.1391 18.3206 22.1153 17.8489 22.0445C17.5144 22.0104 17.2299 21.8919 16.9955 21.6889C17.5494 21.7444 18.0707 21.6495 18.56 21.4045C19.2112 20.8481 19.4483 20.137 19.2711 19.2712C19.6504 19.2712 20.0296 19.2712 20.4089 19.2712C20.3853 18.4165 20.409 17.5632 20.48 16.7112C20.578 16.833 20.6965 16.9278 20.8355 16.9956C20.9709 16.7759 21.0183 16.5388 20.9778 16.2845C20.7897 16.2603 20.6238 16.3077 20.48 16.4267C20.3446 16.0284 20.321 15.6492 20.4089 15.2889Z" fill="#890F70"/>
<path fill-rule="evenodd" clip-rule="evenodd" d="M27.2355 14.2933C27.3978 18.2239 27.4215 22.1586 27.3066 26.0978C27.1244 26.6292 26.7688 26.9848 26.2399 27.1644C25.3879 27.2354 24.5345 27.2591 23.6799 27.2355C23.0091 26.9884 22.2979 26.8936 21.5466 26.9511C21.5466 26.6666 21.5466 26.3822 21.5466 26.0978C20.146 26.1443 18.7713 26.0969 17.4221 25.9555C20.0774 25.9793 22.7322 25.9555 25.3866 25.8844C25.5051 25.766 25.6237 25.6473 25.7421 25.5289C25.9755 22.7921 26.023 20.0424 25.8844 17.28C25.7035 16.4451 25.4428 15.6393 25.1021 14.8622C25.1107 14.785 25.158 14.7376 25.2444 14.72C25.39 14.9124 25.5796 15.0073 25.8133 15.0044C25.7677 14.5212 25.8151 14.047 25.9555 13.5822C26.0718 13.953 26.1429 14.3323 26.1688 14.72C26.1779 14.2559 26.2965 13.8292 26.5244 13.44C26.3237 13.2242 26.3474 13.0345 26.5955 12.8711C26.7737 13.3691 26.987 13.8431 27.2355 14.2933Z" fill="#9D1C70"/>
<path fill-rule="evenodd" clip-rule="evenodd" d="M10.88 16.4267C10.88 16.6163 10.88 16.806 10.88 16.9956C10.7067 18.1298 10.7067 19.2676 10.88 20.4089C11.0445 20.8139 10.9971 21.1695 10.7378 21.4756C10.9968 21.8249 11.0916 22.2278 11.0222 22.6845C10.7378 22.6845 10.4533 22.6845 10.1689 22.6845C10.1689 23.0638 10.1689 23.4429 10.1689 23.8222C9.97926 23.8222 9.78962 23.8222 9.6 23.8222C9.52754 24.4356 9.62234 25.0045 9.88444 25.5289C9.00847 25.1753 8.29736 24.6064 7.75111 23.8222C7.76237 23.6189 7.71496 23.4291 7.60889 23.2533C7.84288 22.7093 7.9377 22.1405 7.89333 21.5467C8.2726 21.5467 8.65184 21.5467 9.03111 21.5467C9.03111 20.7882 9.03111 20.0296 9.03111 19.2711C9.41037 19.2711 9.78962 19.2711 10.1689 19.2711C10.1561 18.6116 10.2983 17.9954 10.5956 17.4222C10.4105 16.9107 10.2683 16.3891 10.1689 15.8578C10.3111 15.8578 10.4533 15.8578 10.5956 15.8578C10.5467 16.1398 10.6416 16.3295 10.88 16.4267Z" fill="#711675"/>
<path fill-rule="evenodd" clip-rule="evenodd" d="M10.8799 20.4089C11.6159 22.5889 12.9907 24.2481 15.0044 25.3867C15.3879 25.7379 15.2932 25.9512 14.7199 26.0267C15.112 26.1379 15.4676 26.0668 15.7866 25.8134C16.6428 26.0098 16.619 26.1045 15.7155 26.0978C15.7155 26.24 15.7155 26.3823 15.7155 26.5245C15.0849 26.5827 14.4685 26.7249 13.8666 26.9512C13.4947 26.8418 13.1155 26.7943 12.7288 26.8089C12.0867 26.6779 11.4705 26.4646 10.8799 26.1689C10.4904 26.023 10.1586 25.8097 9.8844 25.5289C9.6223 25.0046 9.5275 24.4357 9.59996 23.8223C9.78959 23.8223 9.97922 23.8223 10.1688 23.8223C10.1688 23.443 10.1688 23.0638 10.1688 22.6845C10.4533 22.6845 10.7377 22.6845 11.0221 22.6845C11.0915 22.2278 10.9967 21.8249 10.7377 21.4756C10.9971 21.1695 11.0445 20.814 10.8799 20.4089Z" fill="#7B1372"/>
<path fill-rule="evenodd" clip-rule="evenodd" d="M15.0044 25.3867C15.7824 25.6825 16.5884 25.8721 17.4222 25.9556C18.7713 26.097 20.1461 26.1443 21.5467 26.0978C21.5467 26.3823 21.5467 26.6667 21.5467 26.9512C22.298 26.8937 23.0091 26.9884 23.68 27.2356C20.4086 27.2594 17.1375 27.2356 13.8667 27.1645C13.4572 27.0868 13.0779 26.9684 12.7289 26.8089C13.1155 26.7943 13.4948 26.8418 13.8667 26.9512C14.4685 26.7249 15.0849 26.5827 15.7155 26.5245C15.7155 26.3823 15.7155 26.2401 15.7155 26.0978C16.6191 26.1045 16.6428 26.0098 15.7867 25.8134C15.4677 26.0668 15.1121 26.1379 14.72 26.0267C15.2933 25.9512 15.388 25.7379 15.0044 25.3867Z" fill="#8C0F6D"/>
</g>
</g>
<defs>
<clipPath id="clip0_24_303">
<rect width="32" height="32" fill="white"/>
</clipPath>
</defs>
</svg>
