<svg width="32" height="32" viewBox="0 0 32 32" fill="none" xmlns="http://www.w3.org/2000/svg">
<g clip-path="url(#clip0_24_244)">
<path fill-rule="evenodd" clip-rule="evenodd" d="M-0.071167 -0.071106C10.5955 -0.071106 21.2622 -0.071106 31.9288 -0.071106C31.9288 10.5956 31.9288 21.2622 31.9288 31.9289C21.2622 31.9289 10.5955 31.9289 -0.071167 31.9289C-0.071167 21.2622 -0.071167 10.5956 -0.071167 -0.071106Z" fill="#FDFEFE"/>
<path fill-rule="evenodd" clip-rule="evenodd" d="M19.84 10.5956C19.5427 10.247 19.2109 9.91511 18.8444 9.6C18.6778 8.90299 18.4407 8.23928 18.1333 7.60889C17.8997 7.61171 17.7101 7.5169 17.5644 7.32445C17.4406 6.41771 17.085 5.61179 16.4978 4.90667C16.3082 5.00149 16.1185 5.09629 15.9289 5.19111C15.8815 5.09629 15.834 5.00149 15.7867 4.90667C15.4361 5.51325 15.1279 6.12954 14.8622 6.75556C14.72 6.75556 14.5778 6.75556 14.4355 6.75556C14.8545 5.53828 15.4234 4.4005 16.1422 3.34222C17.4835 5.7083 18.716 8.12608 19.84 10.5956Z" fill="#364C7D"/>
<path fill-rule="evenodd" clip-rule="evenodd" d="M18.8444 9.60001C18.7322 9.80126 18.6374 10.0146 18.56 10.24C18.7665 10.5025 19.0272 10.7158 19.3422 10.88C19.4109 11.0148 19.4345 11.1571 19.4133 11.3067C19.0815 11.3067 18.7496 11.3067 18.4178 11.3067C18.4857 10.9116 18.3435 10.6272 17.9911 10.4533C17.5781 10.7361 17.1514 10.8309 16.7111 10.7378C16.4588 10.7928 16.2217 10.8876 16 11.0222C15.874 10.9049 15.8266 10.7627 15.8578 10.5956C15.4785 10.5956 15.0993 10.5956 14.72 10.5956C14.72 10.4533 14.72 10.3111 14.72 10.1689C14.3407 10.1689 13.9615 10.1689 13.5822 10.1689C13.6035 10.0193 13.5798 9.87706 13.5111 9.74223C13.4293 10.1385 13.216 10.4229 12.8711 10.5956C13.1555 10.1204 13.2977 9.59896 13.2978 9.03112C13.5316 9.06149 13.7449 9.01408 13.9378 8.8889C14.2186 8.25422 14.3371 7.59052 14.2933 6.89779C14.2933 6.80297 14.3407 6.75557 14.4355 6.75557C14.5778 6.75557 14.72 6.75557 14.8622 6.75557C15.1279 6.12955 15.4361 5.51326 15.7866 4.90668C15.834 5.0015 15.8815 5.0963 15.9289 5.19112C16.1185 5.0963 16.3082 5.0015 16.4978 4.90668C17.085 5.6118 17.4406 6.41772 17.5644 7.32446C17.7101 7.51691 17.8996 7.61172 18.1333 7.6089C18.4407 8.23929 18.6777 8.90299 18.8444 9.60001Z" fill="#24498F"/>
<path fill-rule="evenodd" clip-rule="evenodd" d="M18.8444 9.59998C19.2109 9.91508 19.5427 10.2469 19.84 10.5955C20.3972 11.5676 20.9187 12.5631 21.4044 13.5822C21.2622 13.5822 21.12 13.5822 20.9778 13.5822C20.9778 13.3926 20.9778 13.2029 20.9778 13.0133C20.7882 13.0133 20.5985 13.0133 20.4089 13.0133C20.5278 13.4531 20.6226 13.9034 20.6933 14.3644C20.5774 15.379 20.4827 15.3554 20.4089 14.2933C19.5555 14.2933 18.7022 14.2933 17.8489 14.2933C17.9073 14.8225 18.0022 15.344 18.1333 15.8578C17.735 15.1647 17.3083 14.4536 16.8533 13.7244C16.7883 13.611 16.6935 13.5636 16.5689 13.5822C16.3089 12.8727 15.9771 12.2089 15.5733 11.5911C15.1902 12.2637 14.811 12.9274 14.4355 13.5822C14.1939 13.5861 14.0042 13.6809 13.8667 13.8666C13.6512 13.5817 13.5564 13.2499 13.5822 12.8711C13.7808 12.3671 13.923 11.8457 14.0089 11.3066C13.7206 11.2836 13.4361 11.3073 13.1555 11.3778C13.2937 12.0991 13.3411 12.8339 13.2978 13.5822C13.0607 13.5822 12.8237 13.5822 12.5867 13.5822C12.6099 13.247 12.5862 12.9151 12.5155 12.5866C12.4201 12.4796 12.3016 12.4322 12.16 12.4444C12.171 12.2667 12.2658 12.1482 12.4444 12.0889C12.209 11.8835 12.1142 11.6227 12.16 11.3066C12.3022 11.3066 12.4444 11.3066 12.5867 11.3066C12.5727 11.0147 12.6675 10.7776 12.8711 10.5955C13.216 10.4229 13.4293 10.1385 13.5111 9.7422C13.5798 9.87702 13.6035 10.0192 13.5822 10.1689C13.9615 10.1689 14.3407 10.1689 14.72 10.1689C14.72 10.3111 14.72 10.4533 14.72 10.5955C15.0993 10.5955 15.4785 10.5955 15.8578 10.5955C15.8266 10.7626 15.874 10.9049 16 11.0222C16.2217 10.8876 16.4588 10.7928 16.7111 10.7378C17.1514 10.8309 17.5781 10.7361 17.9911 10.4533C18.3435 10.6272 18.4858 10.9116 18.4178 11.3066C18.7496 11.3066 19.0815 11.3066 19.4133 11.3066C19.4345 11.157 19.4109 11.0148 19.3422 10.88C19.0272 10.7158 18.7665 10.5024 18.56 10.24C18.6374 10.0146 18.7322 9.80122 18.8444 9.59998Z" fill="#1C3D7F"/>
<path fill-rule="evenodd" clip-rule="evenodd" d="M14.2934 6.89777C14.3372 7.5905 14.2186 8.2542 13.9378 8.88888C13.7449 9.01406 13.5316 9.06146 13.2978 9.0311C13.2978 9.59894 13.1555 10.1204 12.8711 10.5955C12.6676 10.7776 12.5728 11.0147 12.5867 11.3067C12.4445 11.3067 12.3023 11.3067 12.16 11.3067C12.1142 11.6227 12.209 11.8835 12.4445 12.0889C12.2659 12.1482 12.171 12.2667 12.16 12.4444C11.848 12.6893 11.682 13.0211 11.6623 13.44C11.4694 13.5652 11.2561 13.6126 11.0223 13.5822C11.0767 14.2962 10.8633 14.9124 10.3823 15.4311C10.08 16.3398 9.72444 17.2168 9.31559 18.0622C9.13167 18.1319 8.94203 18.1557 8.7467 18.1333C10.4802 14.3344 12.3291 10.5893 14.2934 6.89777Z" fill="#243566"/>
<path fill-rule="evenodd" clip-rule="evenodd" d="M21.4044 13.5822C21.6761 14.271 21.9132 14.9821 22.1155 15.7155C21.9464 15.8477 21.7569 15.895 21.5467 15.8578C21.4959 15.3038 21.2114 15.1616 20.6933 15.4311C20.8885 15.7326 20.7936 15.8748 20.4089 15.8578C20.4555 16.6222 20.4082 17.3807 20.2667 18.1333C20.0902 17.4327 19.9717 16.7216 19.9111 16C19.7673 15.8809 19.6013 15.8336 19.4133 15.8578C19.4354 16.3151 19.2931 16.6944 18.9867 16.9955C18.7029 16.6047 18.4185 16.2254 18.1333 15.8578C18.0022 15.344 17.9073 14.8225 17.8489 14.2933C18.7022 14.2933 19.5555 14.2933 20.4089 14.2933C20.4827 15.3554 20.5774 15.379 20.6933 14.3644C20.6226 13.9034 20.5278 13.4531 20.4089 13.0133C20.5985 13.0133 20.7882 13.0133 20.9778 13.0133C20.9778 13.2029 20.9778 13.3926 20.9778 13.5822C21.12 13.5822 21.2622 13.5822 21.4044 13.5822Z" fill="#16347B"/>
<path fill-rule="evenodd" clip-rule="evenodd" d="M14.4355 13.5822C13.4285 15.7384 12.3855 17.8718 11.3066 19.9822C11.3066 19.7451 11.3066 19.5082 11.3066 19.2711C11.6661 18.7692 11.6661 18.2477 11.3066 17.7067C11.354 17.5644 11.4015 17.4222 11.4489 17.28C11.7024 17.4966 11.7972 17.781 11.7333 18.1333C11.8755 18.1333 12.0178 18.1333 12.16 18.1333C12.1834 17.7041 12.1597 17.2774 12.0889 16.8533C11.7706 16.596 11.6047 16.2642 11.5911 15.8578C11.8755 15.8578 12.16 15.8578 12.4444 15.8578C12.4444 16 12.4444 16.1422 12.4444 16.2844C12.5866 16.2844 12.7289 16.2844 12.8711 16.2844C12.8743 15.9858 12.7795 15.7251 12.5866 15.5022C12.6688 15.2446 12.7399 14.9838 12.8 14.72C13.0876 14.5371 13.3957 14.3949 13.7244 14.2933C13.8504 14.176 13.8978 14.0338 13.8666 13.8667C14.0042 13.6809 14.1939 13.5861 14.4355 13.5822Z" fill="#142F65"/>
<path fill-rule="evenodd" clip-rule="evenodd" d="M21.4045 13.5822C22.4047 15.3451 23.3528 17.1466 24.2489 18.9867C23.6459 19.092 23.409 18.8076 23.5378 18.1333C23.3956 18.1333 23.2534 18.1333 23.1111 18.1333C23.1178 18.5697 23.1889 18.9963 23.3245 19.4133C23.5917 19.7016 23.7577 20.0334 23.8223 20.4089C23.4087 20.4427 23.0767 20.3005 22.8267 19.9822C22.6863 20.447 22.639 20.9212 22.6845 21.4044C22.5422 21.4044 22.4 21.4044 22.2578 21.4044C22.2578 21.5467 22.2578 21.6889 22.2578 21.8311C22.0607 22.375 21.8 22.8965 21.4756 23.3955C21.391 23.1966 21.4147 23.007 21.5467 22.8267C21.2786 22.7275 21.2312 22.5853 21.4045 22.4C21.3251 22.0264 21.1829 21.6946 20.9778 21.4044C20.8416 21.1965 20.6757 21.0069 20.48 20.8355C19.9511 19.5703 19.4533 18.2903 18.9867 16.9955C19.2932 16.6945 19.4354 16.3152 19.4134 15.8578C19.6014 15.8336 19.7674 15.881 19.9111 16C19.9717 16.7216 20.0902 17.4327 20.2667 18.1333C20.4082 17.3807 20.4556 16.6222 20.4089 15.8578C20.7936 15.8748 20.8885 15.7326 20.6934 15.4311C21.2115 15.1616 21.4959 15.3038 21.5467 15.8578C21.7569 15.895 21.9465 15.8477 22.1156 15.7155C21.9132 14.9821 21.6761 14.271 21.4045 13.5822Z" fill="#112E6F"/>
<path fill-rule="evenodd" clip-rule="evenodd" d="M16.5688 13.5822C16.6934 13.5636 16.7883 13.611 16.8533 13.7245C17.3083 14.4536 17.7349 15.1648 18.1333 15.8578C18.4184 16.2254 18.7029 16.6048 18.9866 16.9956C19.4533 18.2904 19.951 19.5704 20.48 20.8356C20.6757 21.007 20.8415 21.1965 20.9777 21.4045C21.0715 21.8247 21.1188 22.2514 21.12 22.6845C19.6053 19.6553 18.0883 16.6212 16.5688 13.5822Z" fill="#16284F"/>
<path fill-rule="evenodd" clip-rule="evenodd" d="M13.8666 13.8667C13.8978 14.0338 13.8504 14.176 13.7244 14.2933C13.3957 14.3949 13.0876 14.5371 12.8 14.72C12.7399 14.9838 12.6688 15.2447 12.5866 15.5022C12.7795 15.7251 12.8743 15.9858 12.8711 16.2845C12.7288 16.2845 12.5866 16.2845 12.4444 16.2845C12.4444 16.1422 12.4444 16 12.4444 15.8578C12.16 15.8578 11.8755 15.8578 11.5911 15.8578C11.6046 16.2643 11.7706 16.5961 12.0888 16.8533C12.1597 17.2775 12.1834 17.7041 12.16 18.1333C12.0177 18.1333 11.8755 18.1333 11.7333 18.1333C11.7972 17.7811 11.7024 17.4966 11.4488 17.28C11.4014 17.4222 11.354 17.5645 11.3066 17.7067C11.6661 18.2477 11.6661 18.7692 11.3066 19.2711C10.9316 19.3752 10.576 19.3752 10.24 19.2711C10.1713 19.406 10.1476 19.5482 10.1688 19.6978C9.68552 19.6523 9.21145 19.6996 8.74662 19.84C8.67914 20.2983 8.53692 20.7249 8.31996 21.12C8.27255 20.8829 8.22514 20.646 8.17773 20.4089C8.42384 19.871 8.61346 19.3021 8.74662 18.7022C8.74662 18.5127 8.74662 18.3229 8.74662 18.1333C8.94195 18.1557 9.13159 18.1319 9.31551 18.0622C9.72436 17.2169 10.0799 16.3398 10.3822 15.4311C10.8633 14.9124 11.0766 14.2962 11.0222 13.5822C11.256 13.6126 11.4693 13.5652 11.6622 13.44C11.6819 13.0211 11.8479 12.6893 12.16 12.4445C12.3016 12.4323 12.4201 12.4797 12.5155 12.5867C12.5861 12.9152 12.6098 13.247 12.5866 13.5822C12.8237 13.5822 13.0607 13.5822 13.2977 13.5822C13.3411 12.8339 13.2937 12.0991 13.1555 11.3778C13.4361 11.3073 13.7205 11.2836 14.0088 11.3067C13.9229 11.8457 13.7807 12.3672 13.5822 12.8711C13.5564 13.2499 13.6512 13.5818 13.8666 13.8667Z" fill="#132E74"/>
<path fill-rule="evenodd" clip-rule="evenodd" d="M8.74662 18.1334C8.74662 18.3229 8.74662 18.5127 8.74662 18.7023C8.41629 19.077 8.15554 19.5037 7.9644 19.9823C7.917 20.5985 7.86958 21.2149 7.82218 21.8311C7.70094 22.0623 7.55871 22.1096 7.39551 21.9734C7.24371 22.0716 7.07778 22.1427 6.89774 22.1867C6.83028 22.4326 6.68806 22.5984 6.47107 22.6845C7.14854 21.1256 7.90706 19.6086 8.74662 18.1334Z" fill="#19234C"/>
<path fill-rule="evenodd" clip-rule="evenodd" d="M8.74662 18.7022C8.61346 19.3021 8.42384 19.871 8.17773 20.4089C8.22514 20.646 8.27255 20.8829 8.31996 21.12C8.53692 20.7249 8.67914 20.2982 8.74662 19.84C9.21145 19.6996 9.68552 19.6523 10.1688 19.6978C10.1476 19.5481 10.1713 19.4059 10.24 19.2711C10.576 19.3752 10.9316 19.3752 11.3066 19.2711C11.3066 19.5082 11.3066 19.7451 11.3066 19.9822C10.6148 21.6976 9.80891 23.3569 8.88885 24.96C8.74662 24.96 8.6044 24.96 8.46218 24.96C8.47168 25.2304 8.42428 25.491 8.31996 25.7422C7.84063 26.1208 7.65099 26.6186 7.75107 27.2355C7.56144 27.2355 7.3718 27.2355 7.18218 27.2355C7.26413 26.4424 7.45375 25.6839 7.75107 24.96C7.55574 24.9377 7.3661 24.9614 7.18218 25.0311C7.09547 25.308 6.97694 25.5688 6.82662 25.8133C6.75568 25.2464 6.73197 24.6775 6.75551 24.1067C6.61329 24.1067 6.47107 24.1067 6.32885 24.1067C6.3667 24.6856 6.31929 25.2545 6.18662 25.8133C5.56753 25.1996 5.63864 24.536 6.39996 23.8222C6.4707 23.4459 6.49441 23.0666 6.47107 22.6844C6.68806 22.5984 6.83028 22.4326 6.89773 22.1867C7.07777 22.1427 7.2437 22.0716 7.39551 21.9733C7.55871 22.1096 7.70093 22.0622 7.82218 21.8311C7.86958 21.2148 7.917 20.5985 7.9644 19.9822C8.15553 19.5036 8.41628 19.077 8.74662 18.7022Z" fill="#0D2362"/>
<path fill-rule="evenodd" clip-rule="evenodd" d="M24.2489 18.9867C24.4879 19.4646 24.7249 19.9386 24.96 20.4089C24.9854 20.7952 25.0565 21.1745 25.1734 21.5467C25.7369 22.2001 26.0688 22.9585 26.1689 23.8223C26.6149 24.0589 26.7809 24.4382 26.6667 24.96C26.4296 24.96 26.1927 24.96 25.9556 24.96C25.9968 24.391 25.7835 23.9643 25.3156 23.68C25.2906 23.199 25.2194 22.725 25.1023 22.2578C24.937 22.9164 24.9134 23.5802 25.0311 24.2489C25.1023 24.32 25.1734 24.3911 25.2445 24.4623C25.0782 24.7477 24.9835 25.0557 24.96 25.3867C24.6498 25.4174 24.4129 25.2989 24.2489 25.0311C23.5869 24.9602 22.9233 24.9364 22.2578 24.96C22.2578 24.8178 22.2578 24.6756 22.2578 24.5334C22.4 24.5334 22.5423 24.5334 22.6845 24.5334C22.7338 23.5977 22.5916 22.6968 22.2578 21.8311C22.2578 21.6889 22.2578 21.5467 22.2578 21.4045C22.4 21.4045 22.5423 21.4045 22.6845 21.4045C22.639 20.9212 22.6863 20.447 22.8267 19.9823C23.0767 20.3005 23.4087 20.4428 23.8223 20.4089C23.7577 20.0335 23.5917 19.7016 23.3245 19.4134C23.1889 18.9964 23.1178 18.5697 23.1111 18.1334C23.2534 18.1334 23.3956 18.1334 23.5378 18.1334C23.409 18.8076 23.6459 19.0921 24.2489 18.9867Z" fill="#0D276B"/>
<path fill-rule="evenodd" clip-rule="evenodd" d="M21.12 22.8267C21.3096 22.9689 21.3096 23.1111 21.12 23.2533C19.2711 23.2533 17.4223 23.2533 15.5734 23.2533C17.4506 23.205 19.2994 23.0627 21.12 22.8267Z" fill="#8C99B2"/>
<path fill-rule="evenodd" clip-rule="evenodd" d="M15.5733 23.2534C17.4222 23.2534 19.2711 23.2534 21.12 23.2534C19.3912 23.3949 17.6371 23.4424 15.8577 23.3956C15.8895 23.7673 15.7235 24.0044 15.36 24.1067C15.3588 24.5113 15.1928 24.7958 14.8622 24.96C15.0202 24.3594 15.2573 23.7905 15.5733 23.2534Z" fill="#131E40"/>
<path fill-rule="evenodd" clip-rule="evenodd" d="M6.47112 22.6844C6.49446 23.0666 6.47075 23.4459 6.40001 23.8222C5.63869 24.536 5.56758 25.1996 6.18667 25.8133C6.31934 25.2545 6.36676 24.6857 6.3289 24.1067C6.47112 24.1067 6.61334 24.1067 6.75556 24.1067C6.73203 24.6776 6.75573 25.2464 6.82667 25.8133C6.97699 25.5689 7.09552 25.308 7.18223 25.0311C7.36615 24.9614 7.55579 24.9377 7.75112 24.96C7.4538 25.6839 7.26418 26.4424 7.18223 27.2356C7.08741 27.7571 6.99261 28.2785 6.89779 28.8C5.94124 28.842 4.9931 28.7946 4.05334 28.6578C3.8925 28.4339 3.86881 28.1968 3.98223 27.9467C4.21603 27.5004 4.47678 27.0737 4.76445 26.6667C4.93353 26.5345 5.12317 26.4872 5.33334 26.5244C5.35324 25.5474 5.61397 24.6467 6.11556 23.8222C6.25451 23.5036 6.32563 23.1718 6.3289 22.8267C6.3289 22.7318 6.3763 22.6844 6.47112 22.6844Z" fill="#0A1A53"/>
<path fill-rule="evenodd" clip-rule="evenodd" d="M24.96 20.4089C25.7888 21.8769 26.5473 23.394 27.2355 24.96C27.3307 25.7553 27.5203 26.5138 27.8044 27.2355C26.2873 27.2355 24.7704 27.2355 23.2533 27.2355C23.3814 26.7035 23.1919 26.419 22.6844 26.3822C22.715 26.1434 22.6201 26.0012 22.4 25.9555C22.3526 25.9555 22.3051 25.9555 22.2577 25.9555C22.1983 25.8529 22.1036 25.7817 21.9733 25.7422C19.6977 25.6948 17.4222 25.6473 15.1466 25.6C14.9851 25.4371 14.8429 25.2712 14.72 25.1022C14.72 25.0073 14.7673 24.96 14.8622 24.96C15.1929 24.7957 15.3588 24.5113 15.36 24.1067C15.7235 24.0044 15.8895 23.7673 15.8577 23.3955C17.6371 23.4423 19.3913 23.3948 21.12 23.2533C21.3096 23.1111 21.3096 22.9689 21.12 22.8267C21.12 22.7793 21.12 22.7318 21.12 22.6844C21.1188 22.2514 21.0715 21.8247 20.9777 21.4044C21.1828 21.6946 21.3251 22.0264 21.4044 22.4C21.2312 22.5853 21.2785 22.7275 21.5466 22.8267C21.4147 23.007 21.3909 23.1966 21.4755 23.3955C21.7999 22.8965 22.0606 22.375 22.2577 21.8311C22.5915 22.6968 22.7338 23.5976 22.6844 24.5333C22.5422 24.5333 22.4 24.5333 22.2577 24.5333C22.2577 24.6755 22.2577 24.8178 22.2577 24.96C22.9232 24.9364 23.5868 24.9601 24.2489 25.0311C24.4128 25.2989 24.6498 25.4174 24.96 25.3867C24.9834 25.0557 25.0782 24.7476 25.2444 24.4622C25.1733 24.3911 25.1022 24.32 25.0311 24.2489C24.9133 23.5801 24.9369 22.9164 25.1022 22.2578C25.2194 22.725 25.2905 23.199 25.3155 23.68C25.7834 23.9643 25.9968 24.391 25.9555 24.96C26.1926 24.96 26.4296 24.96 26.6666 24.96C26.7808 24.4382 26.6149 24.0589 26.1689 23.8222C26.0687 22.9585 25.7368 22.2 25.1733 21.5467C25.0564 21.1745 24.9853 20.7952 24.96 20.4089Z" fill="#0C2362"/>
<path fill-rule="evenodd" clip-rule="evenodd" d="M14.72 25.1022C14.8429 25.2712 14.9851 25.4372 15.1467 25.6C17.4222 25.6474 19.6978 25.6949 21.9733 25.7422C22.1036 25.7818 22.1983 25.8529 22.2578 25.9556C19.6025 25.9793 16.9478 25.9556 14.2933 25.8845C14.4553 25.6313 14.5975 25.3705 14.72 25.1022Z" fill="#1F274E"/>
<path fill-rule="evenodd" clip-rule="evenodd" d="M27.2356 24.96C27.6576 25.8041 28.0842 26.6574 28.5156 27.52C26.7394 27.6615 24.9378 27.709 23.1111 27.6622C22.8187 27.1171 22.5818 26.5482 22.4 25.9556C22.6202 26.0012 22.715 26.1435 22.6845 26.3822C23.1919 26.4191 23.3815 26.7035 23.2534 27.2356C24.7704 27.2356 26.2874 27.2356 27.8045 27.2356C27.5203 26.5138 27.3307 25.7553 27.2356 24.96Z" fill="#0F1F43"/>
<path fill-rule="evenodd" clip-rule="evenodd" d="M28.5155 27.52C28.5928 27.5286 28.6401 27.5759 28.6578 27.6622C26.786 27.8507 24.9371 27.8507 23.1111 27.6622C24.9378 27.709 26.7393 27.6615 28.5155 27.52Z" fill="#B3B9CD"/>
<path fill-rule="evenodd" clip-rule="evenodd" d="M6.32883 22.8267C6.32556 23.1718 6.25445 23.5036 6.1155 23.8222C5.61391 24.6467 5.35317 25.5474 5.33327 26.5244C5.1231 26.4872 4.93346 26.5345 4.76439 26.6667C4.47671 27.0737 4.21596 27.5004 3.98216 27.9467C3.86874 28.1968 3.89244 28.4339 4.05327 28.6578C4.99304 28.7946 5.94117 28.8419 6.89772 28.8C6.99254 28.2785 7.08734 27.7571 7.18216 27.2355C7.37179 27.2355 7.56143 27.2355 7.75105 27.2355C7.65097 26.6186 7.84061 26.1208 8.31994 25.7422C8.42426 25.4911 8.47166 25.2304 8.46216 24.96C8.60439 24.96 8.74661 24.96 8.88883 24.96C8.34806 26.2973 7.77917 27.6248 7.18216 28.9422C5.87625 28.9887 4.59625 28.9412 3.34216 28.8C4.2843 26.7777 5.27986 24.7866 6.32883 22.8267Z" fill="#12193A"/>
<path fill-rule="evenodd" clip-rule="evenodd" d="M3.34217 28.8C4.59626 28.9412 5.87626 28.9887 7.18217 28.9422C5.8773 29.1302 4.5499 29.1302 3.19995 28.9422C3.21753 28.8559 3.26493 28.8085 3.34217 28.8Z" fill="#C5CAD7"/>
</g>
<defs>
<clipPath id="clip0_24_244">
<rect width="32" height="32" fill="white"/>
</clipPath>
</defs>
</svg>
