<svg width="32" height="32" viewBox="0 0 32 32" fill="none" xmlns="http://www.w3.org/2000/svg">
<g clip-path="url(#clip0_24_850)">
<path d="M7.97371 5.43591C3.74552 5.43591 0.314697 8.86673 0.314697 13.0949H13.1357L15.6222 5.43591H7.97371Z" fill="#0073FF"/>
<path d="M23.7953 5.81358C22.4943 1.79522 18.1717 -0.408062 14.1533 0.903413L18.1192 13.1054H26.1664C26.1664 13.0949 23.7953 5.81358 23.7953 5.81358Z" fill="#0073FF"/>
<path d="M28.3383 20.9742C31.7587 18.4877 32.5141 13.7034 30.0275 10.2831L19.6511 17.8267L22.1377 25.4857L28.3383 20.9742Z" fill="#0073FF"/>
<path d="M15.3076 29.9762C18.7279 32.4628 23.5122 31.7073 25.9987 28.287L15.6223 20.7434L9.10693 25.4752L15.3076 29.9762Z" fill="#0073FF"/>
<path d="M2.72775 20.3762C1.41628 24.3945 3.61956 28.7171 7.63792 30.0181L11.6038 17.8267L5.08841 13.0948L2.72775 20.3762Z" fill="#0073FF"/>
</g>
<defs>
<clipPath id="clip0_24_850">
<rect width="32" height="32" fill="white"/>
</clipPath>
</defs>
</svg>
