<svg width="32" height="32" viewBox="0 0 32 32" fill="none" xmlns="http://www.w3.org/2000/svg">
<path d="M22.8569 0.914276H8.22835C4.18878 0.914276 0.914062 4.18899 0.914062 8.22856V22.8571C0.914062 26.8967 4.18878 30.1714 8.22835 30.1714H22.8569C26.8965 30.1714 30.1712 26.8967 30.1712 22.8571V8.22856C30.1712 4.18899 26.8965 0.914276 22.8569 0.914276Z" fill="#FF9000"/>
<path fill-rule="evenodd" clip-rule="evenodd" d="M8.60777 15.9492H10.3415C10.5257 15.9492 10.6666 15.7762 10.6666 15.5784L10.645 13.0692C10.645 12.8591 10.4932 12.6984 10.3199 12.6984H8.5536C8.36938 12.6984 8.22852 12.8715 8.22852 13.0692L8.2827 15.5784C8.2827 15.7762 8.42356 15.9492 8.60777 15.9492Z" fill="white"/>
<path fill-rule="evenodd" clip-rule="evenodd" d="M8.55799 11.4794H10.3371C10.5238 11.4794 10.6666 11.3063 10.6666 11.1086V8.59939C10.6666 8.38926 10.5129 8.22858 10.3371 8.22858H8.55799C8.37129 8.22858 8.22852 8.40162 8.22852 8.59939V11.1086C8.22852 11.3063 8.38227 11.4794 8.55799 11.4794Z" fill="white"/>
<path fill-rule="evenodd" clip-rule="evenodd" d="M14.83 20.4043C14.1584 20.304 13.5233 20.0656 12.9493 19.6892C12.7295 19.5513 12.5463 19.5889 12.3632 19.7771C11.9724 20.2036 11.5938 20.6301 11.2031 21.0441C11.0076 21.2573 11.0321 21.4581 11.2763 21.6336C11.9479 22.0853 12.6685 22.424 13.4378 22.6247C13.7919 22.7125 14.1584 22.7878 14.5125 22.8506C14.7568 22.8881 14.9399 22.7627 14.9643 22.5495C15.0254 21.9599 15.0865 21.3702 15.1353 20.8308C15.1476 20.5799 15.0377 20.4294 14.83 20.4043Z" fill="white"/>
<path fill-rule="evenodd" clip-rule="evenodd" d="M11.7435 18.6851C11.3892 18.2174 11.1488 17.6882 11.035 17.1222C10.9844 16.8514 10.8452 16.7406 10.5542 16.7652C9.89625 16.8145 9.25099 16.8514 8.59306 16.9006C8.32736 16.9252 8.18819 17.0852 8.23879 17.3436C8.41593 18.4266 8.87141 19.3865 9.56729 20.2479C9.71912 20.4448 9.97218 20.4695 10.1746 20.3341C10.668 20.0018 11.1488 19.6572 11.6423 19.325C11.9333 19.1034 11.9586 18.9681 11.7435 18.6851Z" fill="white"/>
<path fill-rule="evenodd" clip-rule="evenodd" d="M22.8307 15.7476C22.7936 15.3381 22.7067 14.9288 22.5827 14.5443C22.4587 14.1598 22.2975 13.7753 22.099 13.4279C21.9254 13.1178 21.727 12.8077 21.5038 12.5348C21.2805 12.2619 21.0449 12.0014 20.7844 11.7533C20.5241 11.5176 20.2388 11.2943 19.9535 11.0959C19.6559 10.885 19.3335 10.7114 18.9986 10.5501C18.6265 10.3641 18.2297 10.2151 17.8329 10.0911C17.436 9.96707 17.0267 9.88024 16.6051 9.83063C16.5059 9.81822 16.4067 9.80582 16.295 9.79341C16.233 9.78101 16.1834 9.7562 16.171 9.69418C16.1586 9.64456 16.171 9.59494 16.171 9.54532V9.03674C16.171 8.96232 16.1586 8.8879 16.1214 8.81346C16.0842 8.73904 16.0222 8.68942 15.9478 8.66462C15.8486 8.6274 15.7494 8.6274 15.6502 8.65221C15.5509 8.68942 15.4517 8.75145 15.3649 8.81346C14.9805 9.06156 14.5836 9.30964 14.1991 9.55773C13.8023 9.80582 13.4179 10.0539 13.021 10.302C12.8226 10.426 12.6241 10.5501 12.4381 10.6741C12.3389 10.7362 12.2396 10.7982 12.1404 10.8602C12.066 10.9098 11.9917 10.947 11.942 11.0214C11.8428 11.1579 11.88 11.344 12.004 11.4432C12.0784 11.5053 12.1653 11.5425 12.2521 11.5797C12.3513 11.6292 12.4629 11.6789 12.5621 11.7285C12.9838 11.9394 13.393 12.1379 13.8147 12.3487C14.2239 12.5596 14.6456 12.7581 15.0549 12.9689C15.1541 13.0186 15.2657 13.0681 15.3649 13.1178C15.4641 13.1674 15.5633 13.217 15.675 13.2666C15.8114 13.3286 15.985 13.3535 16.109 13.2542C16.1586 13.217 16.2083 13.155 16.233 13.093C16.2702 13.0186 16.2702 12.9317 16.2578 12.8449C16.2578 12.7332 16.2578 12.6092 16.2454 12.4975C16.2454 12.448 16.233 12.3983 16.233 12.3487C16.233 12.3239 16.233 12.2867 16.2578 12.2743C16.3075 12.2247 16.3942 12.2619 16.4439 12.2743C16.5306 12.2867 16.6175 12.3115 16.7043 12.3364C16.8779 12.3859 17.0515 12.4356 17.2128 12.4975C17.5352 12.6216 17.8576 12.7705 18.1429 12.9565C18.4405 13.1426 18.7134 13.3658 18.949 13.614C19.2094 13.8869 19.4451 14.1846 19.6311 14.5195C19.8171 14.842 19.9535 15.1893 20.028 15.5615C20.1024 15.9336 20.1272 16.3057 20.0776 16.6778C20.0404 17.0376 19.9535 17.3849 19.8296 17.7199C19.7179 18.0175 19.5691 18.3028 19.383 18.5757C19.1971 18.8362 18.9862 19.0719 18.7506 19.2827C18.5026 19.506 18.2297 19.6921 17.9445 19.8533C17.5972 20.0518 17.2251 20.2131 16.8407 20.3123C16.7415 20.3372 16.6298 20.362 16.5306 20.3867C16.4439 20.3992 16.357 20.4116 16.2702 20.4488C16.1586 20.486 16.0594 20.5604 16.0346 20.6844C16.0222 20.7588 16.0222 20.8209 16.0346 20.8953C16.047 21.007 16.0594 21.1186 16.0842 21.2303C16.1214 21.466 16.1462 21.6892 16.171 21.9249C16.1834 22.0366 16.1958 22.1482 16.2206 22.2598C16.233 22.359 16.2454 22.4707 16.2702 22.57C16.3075 22.7064 16.3942 22.818 16.5306 22.8428C16.6051 22.8676 16.6795 22.8552 16.7663 22.8428C16.8655 22.8304 16.9647 22.8056 17.0639 22.7932C17.2623 22.756 17.4608 22.7064 17.6468 22.6567C18.0313 22.5451 18.4034 22.4211 18.7754 22.2474C19.1474 22.0861 19.4947 21.8877 19.8296 21.6644C20.1644 21.4535 20.4744 21.2055 20.7597 20.945C21.0449 20.6844 21.3053 20.3992 21.5409 20.089C21.7766 19.7789 21.9998 19.444 22.1734 19.0843C22.3595 18.737 22.4959 18.3649 22.6075 17.9927C22.7192 17.6082 22.7811 17.2237 22.8184 16.8267C22.8307 16.6406 22.8431 16.4546 22.8431 16.2685C22.8679 16.0452 22.8556 15.9087 22.8307 15.7476Z" fill="white"/>
</svg>
