<svg width="32" height="32" viewBox="0 0 32 32" fill="none" xmlns="http://www.w3.org/2000/svg">
    <path fill-rule="evenodd" clip-rule="evenodd"
        d="M19.196 0.0173333L19.1227 0.0146667H15.3947V4.792H19.1227C22.4013 4.848 23.096 7.03867 23.0427 8.76667C22.9293 12.6347 21.244 12.7453 18.344 12.8307H7.64933V32H18.7653C26.2413 32 28.7507 27.632 28.7507 23.072C28.7507 19.1733 27.4267 16.3107 22.0973 15.604V14.856C26.6533 14.2 27.8387 11.0947 27.8387 8.03867C27.8387 4.272 25.3507 0.198667 19.196 0.0173333ZM18.9027 27.172H12.3827V17.492H18.9027C22.8413 17.492 24.1107 18.26 24.1107 22.4107C24.1107 25.9 22.8413 27.168 18.9027 27.168V27.172ZM7.64933 9.584H12.2987V0H3V4.792H7.64933V9.584Z"
        fill="black" />
</svg>