<svg width="32" height="32" viewBox="0 0 33 33" fill="none" xmlns="http://www.w3.org/2000/svg">
    <path
        d="M17.1788 32.4566C26.0025 32.2855 33.0445 24.9286 32.79 16.1173C32.7051 13.0376 31.7718 10.2146 30.2448 7.81934C27.1903 7.81934 24.0512 8.6748 22.9481 9.01697C25.0692 10.7279 26.4268 13.3799 26.5116 16.2884C26.5964 20.3946 24.1359 23.902 20.6574 25.4419C20.318 24.5864 20.1483 24.2443 19.8089 23.3888C16.3304 25.4419 11.3246 27.666 5.55518 27.9228C8.52471 30.8312 12.5973 32.5423 17.1788 32.4566Z"
        fill="#008BDB" />
    <path
        d="M16.4148 0.462398C7.59106 0.633499 0.548923 7.99048 0.80357 16.8017C0.888318 19.8814 1.82162 22.7044 3.34883 25.0997C6.40325 25.0997 9.54241 24.2443 10.6453 23.902C8.52423 22.1912 7.16679 19.5392 7.0819 16.6307C6.99716 12.5244 9.45753 9.01703 12.9361 7.47719C13.2755 8.33265 13.4453 8.67484 13.7846 9.53032C17.2632 7.47719 22.269 5.25299 28.0383 4.99636C25.0688 2.17333 20.9114 0.376862 16.4148 0.462398Z"
        fill="#008BDB" />
</svg>