<svg width="32" height="32" viewBox="0 0 32 32" fill="none" xmlns="http://www.w3.org/2000/svg">
<path fill-rule="evenodd" clip-rule="evenodd" d="M10.2398 8.73474C13.9955 8.69209 17.7501 8.73476 21.5038 8.86274C21.9631 9.65319 22.3898 10.4639 22.7838 11.2947C18.2644 11.5506 13.7417 11.636 9.21582 11.5507C9.49084 10.5767 9.83217 9.63806 10.2398 8.73474Z" fill="black"/>
<path fill-rule="evenodd" clip-rule="evenodd" d="M7.68021 2.07861C8.61888 2.07861 9.55753 2.07861 10.4962 2.07861C8.40576 6.68582 6.10176 11.2085 3.58421 15.6466C6.03072 20.1983 8.33472 24.8063 10.4962 29.4706C9.48841 29.5456 8.50709 29.4604 7.55221 29.2146C5.10782 24.7804 2.76114 20.3004 0.512207 15.7746C2.93881 11.2198 5.32813 6.65441 7.68021 2.07861Z" fill="black"/>
<path fill-rule="evenodd" clip-rule="evenodd" d="M21.248 2.07879C22.2861 1.99579 23.3101 2.08112 24.32 2.33479C26.6343 6.77803 28.9383 11.2154 31.232 15.6468C29.0591 20.2166 26.7551 24.7394 24.32 29.2148C23.3101 29.4685 22.2861 29.5537 21.248 29.4708C23.5485 24.87 25.8525 20.262 28.16 15.6468C25.7872 11.1569 23.4832 6.63426 21.248 2.07879Z" fill="black"/>
<path fill-rule="evenodd" clip-rule="evenodd" d="M7.42389 14.6227C13.1605 14.5402 18.8778 14.6256 24.5759 14.8787C25.2256 15.5195 25.2256 16.2022 24.5759 16.9267C18.8604 17.2252 13.1431 17.2679 7.42389 17.0547C6.74803 16.2149 6.74803 15.4042 7.42389 14.6227Z" fill="black"/>
<path fill-rule="evenodd" clip-rule="evenodd" d="M15.6161 25.1187C16.5326 25.6071 17.3006 26.2896 17.9201 27.1667C17.2401 27.7378 16.6001 28.335 16.0001 28.9587C15.1894 28.4894 14.5494 27.8494 14.0801 27.0387C14.5597 26.3485 15.0717 25.7085 15.6161 25.1187Z" fill="black"/>
<path fill-rule="evenodd" clip-rule="evenodd" d="M9.21582 20.2861C13.7467 20.119 18.184 20.2897 22.5278 20.7981C22.0755 21.4223 21.734 22.105 21.5038 22.8461C17.7291 22.927 13.9745 22.8418 10.2398 22.5901C9.82884 21.8534 9.48749 21.0854 9.21582 20.2861Z" fill="black"/>
<path fill-rule="evenodd" clip-rule="evenodd" d="M8.95996 20.224C8.95996 20.1388 8.95996 20.0533 8.95996 19.968C13.4826 19.968 18.0052 19.968 22.528 19.968C22.528 20.224 22.528 20.48 22.528 20.736C22.4427 20.736 22.3572 20.736 22.272 20.736C17.9282 20.2276 13.4909 20.0568 8.95996 20.224Z" fill="black"/>
</svg>
