<svg width="32" height="32" viewBox="0 0 33 33" fill="none" xmlns="http://www.w3.org/2000/svg">
    <path opacity="0.966" fill-rule="evenodd" clip-rule="evenodd"
        d="M0.5 0.5C1.19565 0.5 1.8913 0.5 2.58696 0.5C3.05073 1.08116 3.51449 1.66232 3.97826 2.24348C3.60497 5.51821 4.06874 8.61774 5.36956 11.542C3.74638 11.542 2.12319 11.542 0.5 11.542C0.5 7.86136 0.5 4.18067 0.5 0.5Z"
        fill="#0067FF" />
    <path opacity="0.951" fill-rule="evenodd" clip-rule="evenodd"
        d="M2.58696 0.5C9.54347 0.5 16.5 0.5 23.4565 0.5C26.5935 3.21751 29.6079 6.02645 32.5 8.9268C29.9823 11.6129 27.1997 14.1312 24.1522 16.4819C26.8188 18.7096 29.4855 20.9374 32.1522 23.1652C32.6159 23.7464 32.6159 24.3275 32.1522 24.9087C29.2536 27.3302 26.3551 29.7516 23.4565 32.1732C15.8078 32.4636 8.15565 32.5605 0.5 32.4637C0.5 28.7831 0.5 25.1024 0.5 21.4217C1.65942 21.4217 2.81884 21.4217 3.97826 21.4217C3.86277 24.5273 3.97871 27.6268 4.32608 30.7203C5.51379 29.8267 6.55727 28.8582 7.45652 27.8145C10.6743 26.0955 13.4569 23.9646 15.8043 21.4217C17.517 19.6992 19.3721 18.0526 21.3696 16.4819C19.3721 14.9111 17.517 13.2645 15.8043 11.542C15.8043 11.1546 15.5725 10.9609 15.1087 10.9609C13.4855 9.21738 11.6304 7.66761 9.54347 6.31159C7.71662 4.96127 5.86156 3.60523 3.97826 2.24348C3.51449 1.66232 3.05073 1.08116 2.58696 0.5Z"
        fill="#006EFF" />
    <path fill-rule="evenodd" clip-rule="evenodd"
        d="M3.97824 2.24341C5.86154 3.60516 7.71661 4.9612 9.54346 6.31152C8.86652 7.73414 8.63466 9.28391 8.84781 10.9608C10.9348 10.9608 13.0217 10.9608 15.1087 10.9608C15.5725 10.9608 15.8043 11.1545 15.8043 11.5419C12.3261 11.5419 8.84781 11.5419 5.36955 11.5419C4.06873 8.61767 3.60496 5.51814 3.97824 2.24341Z"
        fill="#005AFF" />
    <path fill-rule="evenodd" clip-rule="evenodd"
        d="M9.54346 6.31152C11.6304 7.66754 13.4855 9.21732 15.1087 10.9608C13.0217 10.9608 10.9348 10.9608 8.84781 10.9608C8.63466 9.28392 8.86652 7.73414 9.54346 6.31152Z"
        fill="#004BFF" />
    <path opacity="0.973" fill-rule="evenodd" clip-rule="evenodd"
        d="M3.97828 21.4216C5.13771 21.4216 6.29712 21.4216 7.45654 21.4216C7.45654 23.5526 7.45654 25.6834 7.45654 27.8144C6.55729 28.8581 5.51382 29.8266 4.32611 30.7202C3.97874 27.6267 3.86279 24.5272 3.97828 21.4216Z"
        fill="#005CFF" />
    <path opacity="0.946" fill-rule="evenodd" clip-rule="evenodd"
        d="M7.45654 21.4216C10.2392 21.4216 13.0218 21.4216 15.8044 21.4216C13.457 23.9645 10.6743 26.0954 7.45654 27.8144C7.45654 25.6834 7.45654 23.5526 7.45654 21.4216Z"
        fill="#004CFF" />
</svg>