<svg width="32" height="32" viewBox="0 0 32 32" fill="none" xmlns="http://www.w3.org/2000/svg">
<rect width="32" height="32" fill="url(#paint0_linear_32_817)"/>
<path fill-rule="evenodd" clip-rule="evenodd" d="M7.07063 8.22991C7.05801 10.4347 7.07063 12.6393 7.1085 14.8438C7.16282 14.8067 7.20069 14.7613 7.2221 14.7075C8.87167 12.5515 10.5379 10.4036 12.2208 8.264C13.3325 8.20722 14.4433 8.21858 15.5532 8.2981C14.0107 10.209 12.4707 12.1181 10.9332 14.0256C12.5437 17.0504 14.1847 20.0619 15.8562 23.0601C14.7697 23.1169 13.6842 23.1055 12.5995 23.026C11.4508 20.7304 10.3021 18.4349 9.15341 16.1393C8.43682 16.9313 7.7678 17.7495 7.14637 18.594C7.07083 20.0823 7.04558 21.5823 7.07063 23.0942C6.23752 23.0942 5.4044 23.0942 4.57129 23.0942C4.57129 18.1394 4.57129 13.1847 4.57129 8.22991C5.4044 8.22991 6.23752 8.22991 7.07063 8.22991Z" fill="#E9C89A"/>
<line x1="4.57129" y1="9.75586" x2="7.07904" y2="9.75586" stroke="black"/>
<path fill-rule="evenodd" clip-rule="evenodd" d="M21.5194 9.59862C22.7031 9.5097 23.8147 9.74061 24.8543 10.2913C26.188 11.4798 26.3443 12.812 25.3232 14.2878C24.7975 14.7728 24.259 15.2347 23.7079 15.6733C26.561 16.9952 27.2384 19.0556 25.7401 21.8545C24.2915 23.4998 22.5025 24.0859 20.373 23.613C18.1473 22.8442 17.331 21.2988 17.9239 18.977C18.5319 17.7869 19.4177 16.8811 20.5814 16.2594C18.2997 15.2586 17.6918 13.6067 18.7577 11.3038C19.5023 10.4177 20.4229 9.84928 21.5194 9.59862Z" fill="#D99A63"/>
<path fill-rule="evenodd" clip-rule="evenodd" d="M21.3722 11.6074C23.1857 11.6987 23.7702 12.5943 23.126 14.2942C22.9524 14.5491 22.7485 14.7798 22.5142 14.9863C22.1124 14.9772 21.7317 14.8686 21.3722 14.6606C20.1326 14.0155 19.9151 13.1199 20.7195 11.9738C20.9316 11.8277 21.1491 11.7055 21.3722 11.6074Z" fill="black"/>
<path fill-rule="evenodd" clip-rule="evenodd" d="M21.3641 17.6895C22.3372 17.8663 22.9968 18.3604 23.3428 19.1717C23.468 19.832 23.2713 20.3981 22.7527 20.8701C21.5567 21.3213 20.7352 21.0022 20.288 19.9128C20.1649 19.3217 20.3038 18.7864 20.7046 18.3071C20.9386 18.1092 21.1585 17.9034 21.3641 17.6895Z" fill="black"/>
<defs>
<linearGradient id="paint0_linear_32_817" x1="16" y1="0" x2="15.5429" y2="25.1429" gradientUnits="userSpaceOnUse">
<stop/>
<stop offset="1" stop-color="#230603"/>
</linearGradient>
</defs>
</svg>
