<svg width="32" height="32" viewBox="0 0 32 32" fill="none" xmlns="http://www.w3.org/2000/svg">
<g clip-path="url(#clip0_5983_140)">
<path d="M2.52632 16C2.52632 8.55865 8.55865 2.52631 16 2.52631C23.4413 2.52631 29.4737 8.55865 29.4737 16C29.4737 23.4413 23.4413 29.4737 16 29.4737C8.55865 29.4737 2.52632 23.4413 2.52632 16Z" fill="#3C5A7E" stroke="#242F3C" stroke-width="5"/>
<path d="M9.53971 22.4601L13.2937 26.0993L18.3644 24.8247L23.393 23.3932L24.8244 18.3645L26.0991 13.2939L22.4599 9.53987L18.7059 5.90068L13.6353 7.17536L8.60657 8.60682L7.17517 13.6355L5.9005 18.7061L9.53971 22.4601Z" fill="#242F3C" stroke="#242F3C" stroke-width="4" stroke-linejoin="bevel"/>
<path d="M7.7278 22.6121L11.3994 27.7895L17.5144 27.2307L23.61 26.4723L26.2076 20.6186L28.6316 14.6829L25.1142 9.38796L21.4426 4.21053L15.3276 4.76934L9.23209 5.52766L6.63439 11.3814L4.21053 17.3172L7.7278 22.6121Z" fill="white"/>
<path fill-rule="evenodd" clip-rule="evenodd" d="M12.6316 16C12.6316 14.1397 14.1397 12.6316 16 12.6316C17.8603 12.6316 19.3684 14.1397 19.3684 16C19.3684 17.8603 17.8603 19.3684 16 19.3684C14.1397 19.3684 12.6316 17.8603 12.6316 16Z" stroke="#242F3C" stroke-width="8"/>
<path d="M11.6883 16C11.6883 13.6188 13.6187 11.6884 15.9999 11.6884C18.3811 11.6884 20.3115 13.6188 20.3115 16C20.3115 18.3812 18.3811 20.3116 15.9999 20.3116C13.6187 20.3116 11.6883 18.3812 11.6883 16Z" fill="#3C5A7E" stroke="#242F3C" stroke-width="2"/>
</g>
<defs>
<clipPath id="clip0_5983_140">
<rect width="32" height="32" fill="white"/>
</clipPath>
</defs>
</svg>
