<svg width="32" height="32" viewBox="0 0 33 33" fill="none" xmlns="http://www.w3.org/2000/svg">
    <path opacity="0.922" fill-rule="evenodd" clip-rule="evenodd"
        d="M14.9667 0.5C20.1196 1.76217 25.1962 3.48525 30.1965 5.66923C31.8609 7.01963 32.6224 8.98886 32.4809 11.5769C32.5213 13.1459 32.2675 14.6228 31.7194 16.0077C32.9493 19.6871 32.6955 23.1332 30.958 26.3462C26.2014 28.8885 21.3153 30.9398 16.2993 32.5C11.2363 30.646 6.22316 28.5947 1.25999 26.3462C0.497088 24.9476 0.306717 23.3887 0.688871 21.6692C0.964804 21.3943 1.28209 21.2302 1.64073 21.1769C6.53853 23.0964 11.4247 25.0657 16.2993 27.0846C20.2884 25.4875 24.2862 23.9285 28.2928 22.4077C29.4198 20.8071 29.166 19.7404 27.5313 19.2077C24.347 20.3886 21.1742 21.6194 18.0127 22.9C16.8705 23.2282 15.7282 23.2282 14.586 22.9C9.96507 21.1272 5.39615 19.1579 0.879243 16.9923C0.454014 15.4794 0.390557 13.9205 0.688871 12.3154C0.84648 12.0902 1.03685 11.9261 1.25999 11.8231C6.29334 13.9105 11.3065 16.0438 16.2993 18.2231C20.0094 16.5695 23.7533 15.0105 27.5313 13.5462C29.2297 12.4626 29.3566 11.2319 27.912 9.85385C24.0857 11.5215 20.2148 12.9985 16.2993 14.2846C11.1645 12.2626 6.02449 10.2934 0.879243 8.37692C0.879243 7.72053 0.879243 7.06409 0.879243 6.40769C5.70356 4.81025 10.3994 2.84101 14.9667 0.5Z"
        fill="#0D152B" />
</svg>