<svg width="32" height="32" viewBox="0 0 32 32" fill="none" xmlns="http://www.w3.org/2000/svg">
<path fill-rule="evenodd" clip-rule="evenodd" d="M28.721 4.48V8.19436C28.721 8.76876 28.2554 9.23443 27.681 9.23443C27.1066 9.23443 26.6409 8.76876 26.6409 8.19436V6.56006H18.0324C17.5034 6.56006 17.0117 6.80614 16.7033 7.21356L16.0412 8.08851C15.832 8.36499 15.7206 8.69792 15.7206 9.03795V24.201L16.3768 23.6835C17.2156 23.0221 18.2526 22.6625 19.3206 22.6625L26.6409 22.6625V17.8147C26.6409 17.2403 27.1066 16.7747 27.681 16.7747C28.2554 16.7747 28.721 17.2403 28.721 17.8147V24.7425L19.3206 24.7426C18.7199 24.7426 18.1366 24.9449 17.6648 25.3169L14.6806 27.6699L11.6963 25.3169C11.2246 24.9449 10.6412 24.7426 10.0405 24.7426H0.640137V4.48H11.3287C12.5007 4.48 13.6097 5.02451 14.3164 5.95833L14.6806 6.43948L15.0447 5.95833C15.7514 5.02451 16.8605 4.48 18.0324 4.48H28.721ZM13.6405 9.03795C13.6405 8.69792 13.5292 8.36499 13.3199 8.08851L12.6578 7.21356C12.3494 6.80614 11.8577 6.56006 11.3287 6.56006H2.7202V22.6625H10.0405C11.1086 22.6625 12.1455 23.0221 12.9843 23.6835L13.6405 24.201V9.03795Z" fill="#F95F5F"/>
<path fill-rule="evenodd" clip-rule="evenodd" d="M31.4741 9.58816C31.8531 10.0198 31.8104 10.6769 31.3788 11.0559L21.6066 19.6364C21.1947 19.9981 20.5727 19.9779 20.185 19.5902L17.5849 16.9901C17.1787 16.584 17.1787 15.9254 17.5849 15.5193C17.991 15.1132 18.6496 15.1132 19.0557 15.5193L20.9666 17.4302L30.0064 9.4928C30.438 9.11386 31.0952 9.15648 31.4741 9.58816Z" fill="#F95F5F"/>
</svg>
