<svg width="32" height="32" viewBox="0 0 32 32" fill="none" xmlns="http://www.w3.org/2000/svg">
<g clip-path="url(#clip0_1006_1569)">
<path opacity="0.999" fill-rule="evenodd" clip-rule="evenodd" d="M5.38171 -0.0180664C8.69162 -0.0180664 12.0016 -0.0180664 15.3115 -0.0180664C16.2229 2.65396 18.0349 4.37733 20.7475 5.152C22.531 5.56699 24.2463 5.3916 25.8936 4.62592C25.9178 4.62592 25.9419 4.62592 25.9661 4.62592C26.7245 7.3747 28.464 9.1827 31.1847 10.05C31.4373 10.1123 31.691 10.1667 31.9457 10.2132C31.9517 15.728 31.9457 21.2427 31.9276 26.7574C31.6209 29.0229 30.431 30.6253 28.3579 31.5647C27.8368 31.7616 27.3053 31.9007 26.7634 31.9819C19.5758 31.9819 12.3881 31.9819 5.20051 31.9819C3.01789 31.6652 1.44145 30.5162 0.471175 28.5352C0.216261 27.9254 0.0531805 27.2965 -0.0180664 26.6486C-0.0180664 19.5496 -0.0180664 12.4506 -0.0180664 5.35155C0.256651 3.05373 1.4405 1.41503 3.53346 0.435448C4.13342 0.197589 4.7495 0.0464172 5.38171 -0.0180664Z" fill="#2AC8A9"/>
<path fill-rule="evenodd" clip-rule="evenodd" d="M15.3115 -0.0180664C18.9476 -0.0180664 22.5837 -0.0180664 26.2198 -0.0180664C25.6509 1.49681 25.5422 3.04481 25.8936 4.62592C24.2464 5.3916 22.531 5.56699 20.7475 5.152C18.0349 4.37733 16.2229 2.65396 15.3115 -0.0180664Z" fill="#A95DCE"/>
<path opacity="0.996" fill-rule="evenodd" clip-rule="evenodd" d="M26.2198 -0.0180664C26.4131 -0.0180664 26.6064 -0.0180664 26.7997 -0.0180664C27.7899 0.110883 28.6959 0.4616 29.5177 1.03409C28.7213 2.61741 27.5375 3.81468 25.9662 4.62592C25.942 4.62592 25.9178 4.62592 25.8937 4.62592C25.5423 3.04481 25.651 1.49681 26.2198 -0.0180664Z" fill="#984D8C"/>
<path opacity="0.999" fill-rule="evenodd" clip-rule="evenodd" d="M29.5173 1.03418C31.0198 2.15563 31.8413 3.65524 31.9817 5.53305C31.9817 7.09314 31.9817 8.65323 31.9817 10.2133C31.9696 10.2133 31.9575 10.2133 31.9454 10.2133C31.6907 10.1668 31.4371 10.1123 31.1844 10.0501C28.4637 9.18279 26.7242 7.37479 25.9658 4.62602C27.5372 3.81477 28.721 2.6175 29.5173 1.03418Z" fill="#F2F3B8"/>
<path fill-rule="evenodd" clip-rule="evenodd" d="M7.66499 8.39904C8.90777 8.37662 9.60235 8.98132 9.7488 10.2131C9.75485 11.604 9.77297 12.9948 9.80316 14.3854C11.0613 13.2872 12.523 12.8579 14.1882 13.0975C16.1086 13.3841 17.4796 14.4061 18.3015 16.1632C18.8927 17.62 19.0981 19.1317 18.9175 20.6984C18.7778 22.1346 18.2825 23.4286 17.4317 24.5804C16.1481 26.0331 14.5354 26.6439 12.5936 26.4126C11.4554 26.2632 10.495 25.7734 9.71256 24.9433C9.37828 26.1056 8.61119 26.5954 7.41131 26.4126C6.56224 26.1242 6.10924 25.5255 6.05231 24.6167C6.02814 19.8639 6.02814 15.1111 6.05231 10.3582C6.08195 9.6273 6.38999 9.05286 6.97643 8.63487C7.19731 8.51746 7.42682 8.43884 7.66499 8.39904Z" fill="#FEFEFE"/>
<path fill-rule="evenodd" clip-rule="evenodd" d="M12.1222 16.1631C13.3654 16.0324 14.2291 16.5403 14.7133 17.687C15.0121 18.4831 15.1208 19.3055 15.0395 20.1541C15.0328 21.0411 14.755 21.8272 14.206 22.5123C13.4457 23.2814 12.5578 23.4688 11.5423 23.0747C10.7125 22.6542 10.2112 21.983 10.0384 21.0611C9.83219 20.0322 9.8805 19.0163 10.1833 18.0135C10.5219 17.0635 11.1683 16.4467 12.1222 16.1631Z" fill="#2BC8A9"/>
</g>
<defs>
<clipPath id="clip0_1006_1569">
<rect width="32" height="32" fill="white"/>
</clipPath>
</defs>
</svg>

