<svg width="32" height="32" viewBox="0 0 32 32" fill="none" xmlns="http://www.w3.org/2000/svg">
<rect width="32" height="32" fill="#F35A21"/>
<path fill-rule="evenodd" clip-rule="evenodd" d="M16.956 1.6001C19.8651 2.01133 22.7451 2.54464 25.596 3.2001C24.5586 5.8073 23.4386 8.3673 22.236 10.8801C21.9349 10.3804 21.5614 9.95379 21.116 9.6001C17.836 11.3193 14.6891 13.2393 11.676 15.3601C11.5693 16.0001 11.4627 16.6401 11.356 17.2801C9.96935 16.1068 8.58266 14.9334 7.196 13.7601C6.12976 11.2508 6.82311 9.38416 9.276 8.1601C12.182 6.68659 14.9554 5.03325 17.596 3.2001C17.2901 2.69597 17.0766 2.16266 16.956 1.6001Z" fill="#FFFCFB"/>
<path fill-rule="evenodd" clip-rule="evenodd" d="M7.03574 30.4C6.7193 28.648 6.61264 26.8346 6.71574 24.96C6.7736 23.6176 7.30694 22.4976 8.31574 21.6C11.3565 19.7059 14.4498 17.8926 17.5957 16.16C18.1145 15.4669 18.3813 14.6669 18.3957 13.76C20.0809 14.8159 21.574 16.0959 22.8757 17.6C23.3321 19.2821 22.9586 20.7222 21.7557 21.92C16.8021 24.6915 11.8956 27.5184 7.03574 30.4Z" fill="#FFFBFA"/>
<path fill-rule="evenodd" clip-rule="evenodd" d="M6.71589 24.96C6.61278 26.8345 6.71944 28.648 7.03589 30.4C7.01669 30.5737 6.91003 30.6803 6.71589 30.72C6.29457 28.7507 6.29457 26.8307 6.71589 24.96Z" fill="#EF7F52"/>
</svg>
