<svg width="32" height="32" viewBox="0 0 32 32" fill="none" xmlns="http://www.w3.org/2000/svg">
    <path opacity="0.976" fill-rule="evenodd" clip-rule="evenodd"
        d="M9.5625 4.6875C13.8128 4.66666 18.0628 4.6875 22.3125 4.75C25.0676 5.50638 26.5468 7.31888 26.75 10.1875C26.8678 14.3575 26.826 18.5243 26.625 22.6875C26.1181 24.986 24.7224 26.4235 22.4375 27C16.6876 27.0625 10.9377 27.0834 5.1875 27.0625C5.16666 21.104 5.1875 15.1458 5.25 9.1875C5.82279 6.84415 7.26029 5.34415 9.5625 4.6875ZM12.8125 10.6875C14.8546 10.6667 16.8963 10.6875 18.9375 10.75C19.9515 11.1391 20.5556 11.8682 20.75 12.9375C20.8334 14.8541 20.8334 16.7709 20.75 18.6875C20.5025 19.6424 19.94 20.3299 19.0625 20.75C16.3961 20.8125 13.7295 20.8334 11.0625 20.8125C11.0417 18.0621 11.0625 15.3121 11.125 12.5625C11.4113 11.6728 11.9738 11.0478 12.8125 10.6875Z"
        fill="#4E4EAE" />
</svg>