<svg width="32" height="32" viewBox="0 0 32 32" fill="none" xmlns="http://www.w3.org/2000/svg">
<g clip-path="url(#clip0_37_828)">
<path fill-rule="evenodd" clip-rule="evenodd" d="M-0.0712891 -0.0715332C3.8811 -0.0715332 7.83347 -0.0715332 11.7859 -0.0715332C12.2595 3.1445 11.95 6.28735 10.8573 9.35704C10.5716 9.738 10.2859 10.1189 10.0001 10.4999C8.997 11.3604 8.04461 12.2652 7.143 13.2142C5.22518 16.5665 5.79661 19.4236 8.85728 21.7856C9.0196 22.106 9.13864 22.4393 9.21442 22.7856C9.31204 24.1168 9.35967 25.45 9.35728 26.7856C9.03602 26.8685 8.79794 27.0589 8.643 27.357C6.76492 27.0875 5.2173 27.7065 4.00014 29.2142C3.32551 30.0079 2.87314 30.9126 2.643 31.9285C1.73824 31.9285 0.833472 31.9285 -0.0712891 31.9285C-0.0712891 21.2618 -0.0712891 10.5951 -0.0712891 -0.0715332Z" fill="#8F439D"/>
<path fill-rule="evenodd" clip-rule="evenodd" d="M12.2141 -0.0715332C18.7856 -0.0715332 25.357 -0.0715332 31.9284 -0.0715332C31.9284 10.5951 31.9284 21.2618 31.9284 31.9285C27.1666 31.9285 22.4046 31.9285 17.6427 31.9285C16.9694 30.4675 15.9933 29.2293 14.7141 28.2142C14.7179 27.6706 14.4559 27.3849 13.9284 27.357C14.0409 25.5309 14.9933 24.4833 16.7856 24.2142C18.0096 24.271 19.2 24.1758 20.357 23.9285C22.1717 23.8869 23.7193 23.2202 24.9999 21.9285C25.9166 20.5486 26.0117 19.12 25.2856 17.6428C23.8364 15.9552 22.1697 14.5266 20.2856 13.357C20.1567 12.6232 19.871 11.9566 19.4284 11.357C18.926 10.8975 18.4736 10.3975 18.0713 9.85704C17.4704 9.308 16.8276 9.23657 16.1427 9.64275C14.9064 8.78008 13.5493 8.44675 12.0713 8.64275C13.15 6.68304 14.6739 5.18304 16.6427 4.14275C18.4103 3.69915 20.0293 4.00868 21.4999 5.07132C21.4447 5.85715 21.7781 6.38097 22.4999 6.64275C23.3939 6.47467 23.7034 5.95085 23.4284 5.07132C22.8936 4.6459 22.2983 4.52685 21.6427 4.71418C19.185 3.19055 16.804 3.2858 14.4999 4.9999C13.3051 6.0986 12.3289 7.36051 11.5713 8.78561C11.8553 7.17735 12.141 5.55831 12.4284 3.92847C12.5415 2.5831 12.4701 1.24976 12.2141 -0.0715332Z" fill="#8F439D"/>
<path fill-rule="evenodd" clip-rule="evenodd" d="M11.7857 -0.0715332C11.9286 -0.0715332 12.0714 -0.0715332 12.2143 -0.0715332C12.4702 1.24976 12.5416 2.5831 12.4286 3.92847C12.1411 5.55831 11.8554 7.17735 11.5714 8.78561C12.329 7.36051 13.3052 6.0986 14.5 4.9999C16.8041 3.2858 19.1851 3.19055 21.6428 4.71418C22.2984 4.52685 22.8937 4.6459 23.4286 5.07132C23.7036 5.95085 23.394 6.47467 22.5 6.64275C21.7783 6.38097 21.4448 5.85715 21.5 5.07132C20.0294 4.00868 18.4104 3.69915 16.6428 4.14275C14.674 5.18304 13.1501 6.68304 12.0714 8.64275C13.5495 8.44675 14.9066 8.78008 16.1428 9.64275C16.8277 9.23657 17.4706 9.308 18.0714 9.85704C18.4737 10.3975 18.9261 10.8975 19.4286 11.357C19.8711 11.9566 20.1568 12.6232 20.2857 13.357C22.1698 14.5266 23.8366 15.9552 25.2857 17.6428C26.0118 19.12 25.9167 20.5486 25 21.9285C23.7194 23.2202 22.1718 23.8869 20.3571 23.9285C19.7313 23.9102 19.1121 23.9578 18.5 24.0713C18.3474 23.9379 18.157 23.8902 17.9286 23.9285C18.5953 23.8332 19.2618 23.738 19.9286 23.6428C21.9111 23.6868 23.554 22.9725 24.8571 21.4999C25.755 20.126 25.7074 18.7926 24.7143 17.4999C22.8794 15.485 20.7603 13.9612 18.3571 12.9285C18.52 13.1539 18.5914 13.392 18.5714 13.6428C17.8194 11.7963 16.6051 10.3439 14.9286 9.28561C13.8763 8.83212 12.8287 8.83212 11.7857 9.28561C10.1908 10.7376 8.64321 12.2376 7.14284 13.7856C6.10175 15.6918 6.10175 17.5966 7.14284 19.4999C7.88281 20.3349 8.6209 21.1682 9.35713 21.9999C9.46508 22.4079 9.58413 22.8126 9.71427 23.2142C9.76188 24.4999 9.80951 25.7856 9.85713 27.0713C10.7236 27.9212 11.7474 28.1592 12.9286 27.7856C12.9286 27.8809 12.9762 27.9285 13.0714 27.9285C11.6631 28.4576 10.425 28.1719 9.35713 27.0713C9.03484 27.2029 8.89198 27.441 8.92855 27.7856C8.83331 27.6428 8.73808 27.4999 8.64284 27.357C8.79778 27.0589 9.03587 26.8685 9.35713 26.7856C9.45214 26.3358 9.49975 25.8596 9.49998 25.357C9.50914 24.4676 9.41391 23.6105 9.21427 22.7856C9.13848 22.4393 9.01944 22.106 8.85713 21.7856C5.79645 19.4236 5.22503 16.5665 7.14284 13.2142C8.04445 12.2652 8.99684 11.3604 9.99998 10.4999C10.2857 10.1189 10.5714 9.738 10.8571 9.35704C11.9498 6.28735 12.2593 3.1445 11.7857 -0.0715332Z" fill="#150D10"/>
<path fill-rule="evenodd" clip-rule="evenodd" d="M22.2144 5.07132C23.0337 4.97436 23.2719 5.30769 22.9287 6.07132C22.4137 6.29006 22.0804 6.12339 21.9287 5.57132C21.997 5.38523 22.0923 5.21856 22.2144 5.07132Z" fill="#581027"/>
<path fill-rule="evenodd" clip-rule="evenodd" d="M19.9283 23.6428C18.7825 23.6345 17.6396 23.6822 16.4998 23.7857C15.4926 23.1795 14.3973 22.9652 13.2141 23.1428C13.8869 23.1964 14.5536 23.2917 15.2141 23.4285C15.4852 23.5571 15.7232 23.7237 15.9283 23.9285C15.5009 24.1267 15.0962 24.3648 14.7141 24.6428C14.0723 25.4882 13.6438 26.4405 13.4283 27.5C13.2694 27.615 13.1027 27.7102 12.9283 27.7857C11.7472 28.1592 10.7234 27.9212 9.85692 27.0714C9.8093 25.7857 9.76167 24.5 9.71406 23.2142C9.58392 22.8127 9.46487 22.408 9.35692 22C8.62069 21.1682 7.8826 20.335 7.14263 19.5C6.10154 17.5967 6.10154 15.6918 7.14263 13.7857C8.643 12.2377 10.1906 10.7377 11.7855 9.28567C12.8285 8.83219 13.8761 8.83219 14.9283 9.28567C16.6049 10.3439 17.8192 11.7963 18.5712 13.6428C18.5912 13.392 18.5198 13.1539 18.3569 12.9285C20.7601 13.9612 22.8792 15.4851 24.7141 17.5C25.7072 18.7927 25.7548 20.1261 24.8569 21.5C23.5538 22.9725 21.9109 23.6868 19.9283 23.6428Z" fill="#F3BB6C"/>
<path fill-rule="evenodd" clip-rule="evenodd" d="M16.5002 9.64294C16.8369 9.61961 17.1702 9.64342 17.5002 9.71436C18.5028 10.5254 19.2885 11.5016 19.8574 12.6429C19.9527 12.8334 19.9527 13.0239 19.8574 13.2144C19.2005 12.8901 18.5815 12.5091 18.0002 12.0715C17.6642 11.3042 17.1881 10.6375 16.5717 10.0715C16.5027 9.93608 16.4789 9.79322 16.5002 9.64294Z" fill="#EBB468"/>
<path fill-rule="evenodd" clip-rule="evenodd" d="M12.9284 10.0714C14.0005 9.98868 14.8576 10.3696 15.4999 11.2142C15.8211 12.5459 15.3926 13.5221 14.2141 14.1428C12.8484 14.1104 12.1341 13.3961 12.0713 11.9999C12.1246 11.2414 12.4103 10.5986 12.9284 10.0714Z" fill="#0B0B0A"/>
<path fill-rule="evenodd" clip-rule="evenodd" d="M12.9288 10.0715C12.4107 10.5987 12.125 11.2416 12.0717 12.0001C12.1345 13.3963 12.8488 14.1106 14.2145 14.143C15.393 13.5223 15.8215 12.5461 15.5002 11.2144C15.773 11.5214 16.0111 11.8547 16.2145 12.2144C16.2374 12.4505 16.3325 12.641 16.5002 12.7858C16.5138 13.1123 16.6091 13.3981 16.786 13.643C16.8875 15.0095 16.4112 16.1047 15.3574 16.9287C14.3524 16.9535 13.3524 16.906 12.3574 16.7858C11.8694 16.4647 11.5122 16.0361 11.286 15.5001C10.8972 13.8747 11.0401 12.3033 11.7145 10.7858C12.0043 10.3436 12.4091 10.1055 12.9288 10.0715Z" fill="#F9F8F7"/>
<path fill-rule="evenodd" clip-rule="evenodd" d="M13.0714 10.5C14.022 10.5191 14.3315 10.9953 14 11.9286C13.6006 12.3019 13.1959 12.3019 12.7857 11.9286C12.5512 11.3757 12.6465 10.8996 13.0714 10.5Z" fill="#E9E9E9"/>
<path fill-rule="evenodd" clip-rule="evenodd" d="M16.2144 12.2144C16.4435 12.3268 16.5388 12.5173 16.5001 12.7858C16.3324 12.641 16.2372 12.4505 16.2144 12.2144Z" fill="#514C47"/>
<path fill-rule="evenodd" clip-rule="evenodd" d="M16.5 12.7856C16.7543 12.9985 16.8494 13.2842 16.7857 13.6428C16.6089 13.3979 16.5136 13.1122 16.5 12.7856Z" fill="#443425"/>
<path fill-rule="evenodd" clip-rule="evenodd" d="M18.6427 13.7856C18.8353 13.9323 18.9067 14.1228 18.857 14.3571C18.6873 14.2052 18.6159 14.0147 18.6427 13.7856Z" fill="#6B5031"/>
<path fill-rule="evenodd" clip-rule="evenodd" d="M16.7855 13.6428C17.0908 14.7078 16.9004 15.6841 16.2141 16.5714C15.9688 16.7941 15.6831 16.9131 15.3569 16.9285C16.4108 16.1045 16.8871 15.0094 16.7855 13.6428Z" fill="#1A1714"/>
<path fill-rule="evenodd" clip-rule="evenodd" d="M12.3569 16.7856C13.3519 16.9058 14.3519 16.9534 15.3569 16.9285C14.9489 17.1436 14.4965 17.2388 13.9998 17.2142C13.3832 17.2704 12.8356 17.1275 12.3569 16.7856Z" fill="#554F4C"/>
<path fill-rule="evenodd" clip-rule="evenodd" d="M16.5002 23.7857C16.9466 23.9256 17.4228 23.9733 17.9288 23.9286C18.1572 23.8903 18.3476 23.938 18.5002 24.0714C17.8999 24.0262 17.3285 24.0739 16.7859 24.2143C14.9936 24.4834 14.0412 25.531 13.9288 27.3572C14.4562 27.385 14.7182 27.6707 14.7145 28.2143C15.9936 29.2294 16.9698 30.4676 17.6431 31.9286C17.5478 31.9286 17.4526 31.9286 17.3574 31.9286C16.7469 30.7207 15.9374 29.6493 14.9288 28.7143C14.7384 28.619 14.5478 28.619 14.3574 28.7143C12.2472 29.9389 10.3186 29.7246 8.57164 28.0714C7.03882 28.9604 6.01501 30.2462 5.50021 31.9286C4.54782 31.9286 3.59545 31.9286 2.64307 31.9286C2.87321 30.9127 3.32558 30.008 4.00021 29.2143C5.21737 27.7066 6.76499 27.0876 8.64307 27.3572C8.73831 27.5 8.83354 27.6429 8.92878 27.7857C10.6841 29.5794 12.4936 29.6509 14.3574 28C14.3204 27.8199 14.2251 27.677 14.0716 27.5714C13.7611 27.7053 13.4278 27.8244 13.0716 27.9286C12.9764 27.9286 12.9288 27.881 12.9288 27.7857C13.1032 27.7103 13.2698 27.615 13.4288 27.5C13.6442 26.4406 14.0728 25.4883 14.7145 24.6429C15.0966 24.3649 15.5014 24.1267 15.9288 23.9286C15.7236 23.7237 15.4856 23.5572 15.2145 23.4286C14.5541 23.2917 13.8874 23.1964 13.2145 23.1429C14.3978 22.9653 15.4931 23.1796 16.5002 23.7857Z" fill="#0B0607"/>
<path fill-rule="evenodd" clip-rule="evenodd" d="M19.9286 23.6428C19.2619 23.7381 18.5953 23.8332 17.9286 23.9285C17.4226 23.9732 16.9464 23.9255 16.5 23.7856C17.6399 23.6822 18.7827 23.6345 19.9286 23.6428Z" fill="#7A5D38"/>
<path fill-rule="evenodd" clip-rule="evenodd" d="M20.3571 23.9286C19.2001 24.1759 18.0096 24.2712 16.7856 24.2143C17.3282 24.0739 17.8996 24.0262 18.4999 24.0715C19.1121 23.9579 19.7312 23.9103 20.3571 23.9286Z" fill="#5C2B65"/>
<path fill-rule="evenodd" clip-rule="evenodd" d="M9.21436 22.7856C9.414 23.6105 9.50923 24.4676 9.50007 25.3571C9.49984 25.8596 9.45223 26.3358 9.35721 26.7856C9.3596 25.4501 9.31197 24.1168 9.21436 22.7856Z" fill="#512659"/>
<path fill-rule="evenodd" clip-rule="evenodd" d="M13.0713 27.9287C13.4275 27.8245 13.7608 27.7054 14.0713 27.5715C14.2248 27.6771 14.32 27.82 14.357 28.0001C12.4933 29.651 10.6837 29.5795 8.92844 27.7858C8.89187 27.4412 9.03473 27.2031 9.35701 27.0715C10.4249 28.1721 11.663 28.4578 13.0713 27.9287Z" fill="#EFEFEF"/>
<path fill-rule="evenodd" clip-rule="evenodd" d="M17.3571 31.9287C13.4048 31.9287 9.45239 31.9287 5.5 31.9287C6.0148 30.2462 7.03861 28.9605 8.57143 28.0715C10.3184 29.7247 12.247 29.939 14.3571 28.7144C14.5476 28.6191 14.7381 28.6191 14.9286 28.7144C15.9371 29.6494 16.7467 30.7208 17.3571 31.9287Z" fill="#C3564B"/>
</g>
<defs>
<clipPath id="clip0_37_828">
<rect width="32" height="32" fill="white"/>
</clipPath>
</defs>
</svg>
