<svg width="32" height="32" viewBox="0 0 33 33" fill="none" xmlns="http://www.w3.org/2000/svg">
    <path opacity="0.01" fill-rule="evenodd" clip-rule="evenodd"
        d="M30.7222 0.804637C30.7222 0.703091 30.7222 0.601545 30.7222 0.5C31.0777 0.5 31.4333 0.5 31.7888 0.5C31.5367 0.775383 31.1812 0.876929 30.7222 0.804637Z"
        fill="#FEFEFB" />
    <path opacity="0.01" fill-rule="evenodd" clip-rule="evenodd"
        d="M30.7222 0.804688C30.7222 0.906233 30.7222 1.00778 30.7222 1.10932C29.3 1.00778 29.3 0.906233 30.7222 0.804688Z"
        fill="#FEFFFE" />
    <path opacity="0.01" fill-rule="evenodd" clip-rule="evenodd"
        d="M28.2333 1.71845C28.1119 1.97381 27.8748 2.07536 27.5222 2.02309C27.2511 1.78915 26.8956 1.63684 26.4556 1.56613C27.2569 1.21565 28.0865 1.1141 28.9445 1.2615C28.2893 1.30984 28.0523 1.46216 28.2333 1.71845Z"
        fill="#3D3A35" />
    <path opacity="0.01" fill-rule="evenodd" clip-rule="evenodd"
        d="M32.1445 1.41382C32.6186 1.61691 32.6186 1.61691 32.1445 1.41382Z" fill="black" />
    <path opacity="0.012" fill-rule="evenodd" clip-rule="evenodd"
        d="M31.7888 1.71851C31.9073 1.71851 32.0259 1.71851 32.1444 1.71851C32.0785 1.92266 31.9599 1.92266 31.7888 1.71851Z"
        fill="#000002" />
    <path opacity="0.01" fill-rule="evenodd" clip-rule="evenodd"
        d="M26.1001 2.02318C25.6117 1.97545 25.1376 2.02622 24.6778 2.1755C24.8892 2.31695 25.1262 2.36773 25.3889 2.32782C25.1369 2.6032 24.7813 2.70475 24.3223 2.63245C24.0702 2.35707 23.7146 2.25552 23.2556 2.32782C24.1587 1.74515 25.1069 1.64361 26.1001 2.02318Z"
        fill="#18140A" />
    <path opacity="0.01" fill-rule="evenodd" clip-rule="evenodd"
        d="M31.4333 2.02319C31.5519 2.02319 31.6704 2.02319 31.7889 2.02319C31.8499 2.32528 31.7314 2.52837 31.4333 2.63247C31.4333 2.42937 31.4333 2.22629 31.4333 2.02319Z"
        fill="#010100" />
    <path opacity="0.01" fill-rule="evenodd" clip-rule="evenodd"
        d="M23.2556 2.32783C23.2556 2.42938 23.2556 2.53093 23.2556 2.63247C22.5748 2.54581 21.9822 2.64735 21.4778 2.93711C20.3762 2.96375 20.2577 2.81144 21.1223 2.48015C21.8237 2.32922 22.5348 2.27845 23.2556 2.32783Z"
        fill="#010100" />
    <path opacity="0.999" fill-rule="evenodd" clip-rule="evenodd"
        d="M30.7222 1.10937C31.3191 1.04393 31.6747 1.24703 31.7889 1.71865C31.5519 1.71865 31.4333 1.82019 31.4333 2.02328C31.1353 2.12738 31.0168 2.33047 31.0778 2.63256C30.8407 2.63256 30.7222 2.7341 30.7222 2.93719C30.4852 2.93719 30.3667 3.03874 30.3667 3.24183C30.0687 3.34593 29.9501 3.54902 30.0111 3.8511C29.7741 3.8511 29.6556 3.95264 29.6556 4.15574C29.4185 4.15574 29.3 4.25727 29.3 4.46038C29.063 4.46038 28.9445 4.56191 28.9445 4.76501C28.6464 4.86911 28.5279 5.07221 28.5889 5.37429C28.3519 5.37429 28.2333 5.47582 28.2333 5.67892C27.5069 6.00775 27.0329 6.51546 26.8111 7.20211C26.5741 7.20211 26.4556 7.30364 26.4556 7.50674C26.1575 7.61084 26.039 7.81394 26.1 8.11602C25.863 8.11602 25.7445 8.21755 25.7445 8.42065C25.5074 8.42065 25.3889 8.52219 25.3889 8.72529C25.0909 8.82938 24.9723 9.03249 25.0333 9.33456C24.7963 9.33456 24.6778 9.4361 24.6778 9.6392C24.4407 9.6392 24.3222 9.74074 24.3222 9.94384C24.0852 9.94384 23.9667 10.0454 23.9667 10.2485C23.6687 10.3526 23.5501 10.5557 23.6111 10.8577C23.3741 10.8577 23.2556 10.9593 23.2556 11.1624C23.0185 11.1624 22.9 11.2639 22.9 11.467C22.663 11.467 22.5445 11.5686 22.5445 11.7717C22.3074 11.7717 22.1889 11.8732 22.1889 12.0763C22.1889 12.1778 22.1889 12.2794 22.1889 12.3809C21.9519 12.3809 21.8333 12.4825 21.8333 12.6856C21.5963 12.6856 21.4778 12.7871 21.4778 12.9902C21.1798 13.0943 21.0612 13.2974 21.1222 13.5995C20.8852 13.5995 20.7667 13.701 20.7667 13.9041C20.5296 13.9041 20.4111 14.0056 20.4111 14.2088C20.1131 14.3128 19.9946 14.5159 20.0556 14.818C19.8185 14.818 19.7 14.9196 19.7 15.1227C19.463 15.1227 19.3445 15.2242 19.3445 15.4273C19.1074 15.4273 18.9889 15.5288 18.9889 15.7319C18.6684 15.9728 18.4314 16.2774 18.2778 16.6458C18.1593 16.6458 18.0407 16.6458 17.9222 16.6458C15.5728 12.8089 13.0839 9.05174 10.4556 5.37429C11.4361 4.99029 12.5028 4.73641 13.6556 4.61269C13.063 4.51116 12.4704 4.40959 11.8778 4.30806C12.7835 4.10715 13.6723 4.1579 14.5445 4.46038C15.3036 4.26934 16.074 4.11702 16.8556 4.00342C14.5928 3.70451 14.7114 3.5522 17.2111 3.54647C17.5667 3.95264 17.9222 3.95264 18.2778 3.54647C18.6333 3.54647 18.9889 3.54647 19.3445 3.54647C19.463 3.54647 19.5815 3.54647 19.7 3.54647C19.9371 3.54647 20.0556 3.44492 20.0556 3.24183C20.6241 3.32341 21.0982 3.22187 21.4778 2.93719C22.1586 3.02386 22.7511 2.92231 23.2556 2.63256C23.6111 2.63256 23.9667 2.63256 24.3222 2.63256C24.7813 2.70485 25.1368 2.6033 25.3889 2.32792C25.7415 2.38019 25.9785 2.27864 26.1 2.02328C26.5741 2.02328 27.0482 2.02328 27.5222 2.02328C27.8748 2.07555 28.1119 1.97401 28.2333 1.71865C29.1462 1.65117 29.9758 1.44808 30.7222 1.10937Z"
        fill="#EFC754" />
    <path opacity="0.012" fill-rule="evenodd" clip-rule="evenodd"
        d="M31.0779 2.63257C31.1964 2.63257 31.3149 2.63257 31.4334 2.63257C31.3676 2.83672 31.249 2.83672 31.0779 2.63257Z"
        fill="black" />
    <path opacity="0.01" fill-rule="evenodd" clip-rule="evenodd"
        d="M20.0556 3.24186C19.8186 3.24186 19.7001 3.3434 19.7001 3.54649C19.5816 3.54649 19.463 3.54649 19.3445 3.54649C18.989 3.14031 18.6334 3.14031 18.2778 3.54649C17.9223 3.54649 17.5667 3.54649 17.2112 3.54649C18.0976 2.9117 19.0457 2.81016 20.0556 3.24186Z"
        fill="#010100" />
    <path opacity="0.012" fill-rule="evenodd" clip-rule="evenodd"
        d="M30.7222 2.93701C30.8407 2.93701 30.9592 2.93701 31.0777 2.93701C31.0118 3.14116 30.8933 3.14116 30.7222 2.93701Z"
        fill="black" />
    <path opacity="0.012" fill-rule="evenodd" clip-rule="evenodd"
        d="M30.3667 3.2417C30.4852 3.2417 30.6037 3.2417 30.7223 3.2417C30.6564 3.44585 30.5378 3.44585 30.3667 3.2417Z"
        fill="black" />
    <path opacity="0.01" fill-rule="evenodd" clip-rule="evenodd"
        d="M30.0112 3.85107C30.4853 4.05418 30.4853 4.05418 30.0112 3.85107Z" fill="#010200" />
    <path opacity="0.012" fill-rule="evenodd" clip-rule="evenodd"
        d="M29.6555 4.15576C29.774 4.15576 29.8926 4.15576 30.0111 4.15576C29.9452 4.3599 29.8266 4.3599 29.6555 4.15576Z"
        fill="#050501" />
    <path opacity="0.01" fill-rule="evenodd" clip-rule="evenodd"
        d="M29.2999 4.46021C29.4184 4.46021 29.5369 4.46021 29.6554 4.46021C29.6814 4.92535 29.4444 5.22999 28.9443 5.37412C28.9443 5.17101 28.9443 4.96794 28.9443 4.76484C29.1814 4.76484 29.2999 4.66331 29.2999 4.46021Z"
        fill="#010100" />
    <path opacity="0.01" fill-rule="evenodd" clip-rule="evenodd"
        d="M28.5889 5.37427C28.7074 5.37427 28.8259 5.37427 28.9444 5.37427C28.8785 5.5784 28.76 5.5784 28.5889 5.37427Z"
        fill="black" />
    <path opacity="0.016" fill-rule="evenodd" clip-rule="evenodd"
        d="M28.2334 5.67871C28.3519 5.67871 28.4704 5.67871 28.589 5.67871C28.5231 5.88285 28.4045 5.88285 28.2334 5.67871Z"
        fill="black" />
    <path opacity="0.999" fill-rule="evenodd" clip-rule="evenodd"
        d="M10.4556 5.37427C13.0839 9.05172 15.5727 12.8089 17.9222 16.6458C12.1148 16.6458 6.3074 16.6458 0.5 16.6458C2.13093 14.4341 3.90871 12.3016 5.83333 10.2485C6.07038 10.2485 6.18889 10.1469 6.18889 9.94382C7.02558 9.22491 7.73669 8.41256 8.32222 7.50672C8.55927 7.50672 8.67778 7.40519 8.67778 7.20209C9.27038 6.59281 9.86295 5.98354 10.4556 5.37427Z"
        fill="#2FB8B7" />
    <path opacity="0.01" fill-rule="evenodd" clip-rule="evenodd"
        d="M8.67765 7.20205C8.4406 7.20205 8.3221 7.30358 8.3221 7.50668C7.89099 7.20293 7.95026 6.89829 8.49988 6.59277C8.66496 6.77385 8.72423 6.97695 8.67765 7.20205Z"
        fill="#000101" />
    <path opacity="0.016" fill-rule="evenodd" clip-rule="evenodd"
        d="M26.811 7.2019C27.2851 7.40501 27.2851 7.40501 26.811 7.2019Z" fill="black" />
    <path opacity="0.01" fill-rule="evenodd" clip-rule="evenodd"
        d="M26.4556 7.50659C26.5741 7.50659 26.6926 7.50659 26.8111 7.50659C26.8721 7.80867 26.7536 8.01177 26.4556 8.11587C26.4556 7.91276 26.4556 7.70969 26.4556 7.50659Z"
        fill="#010100" />
    <path opacity="0.012" fill-rule="evenodd" clip-rule="evenodd"
        d="M26.1001 8.11597C26.2186 8.11597 26.3371 8.11597 26.4557 8.11597C26.3898 8.3201 26.2712 8.3201 26.1001 8.11597Z"
        fill="#000100" />
    <path opacity="0.012" fill-rule="evenodd" clip-rule="evenodd"
        d="M25.7444 8.42065C25.8629 8.42065 25.9814 8.42065 26.0999 8.42065C26.0341 8.62479 25.9155 8.62479 25.7444 8.42065Z"
        fill="black" />
    <path opacity="0.01" fill-rule="evenodd" clip-rule="evenodd"
        d="M25.3889 8.7251C25.5074 8.7251 25.626 8.7251 25.7445 8.7251C25.8055 9.02718 25.6869 9.23028 25.3889 9.33437C25.3889 9.13127 25.3889 8.9282 25.3889 8.7251Z"
        fill="#010100" />
    <path opacity="0.01" fill-rule="evenodd" clip-rule="evenodd"
        d="M6.18888 9.94375C5.95184 9.94375 5.83333 10.0453 5.83333 10.2484C5.40222 9.94463 5.46149 9.63999 6.01111 9.33447C6.17619 9.51555 6.23546 9.71865 6.18888 9.94375Z"
        fill="#000101" />
    <path opacity="0.01" fill-rule="evenodd" clip-rule="evenodd"
        d="M25.0334 9.33447C25.152 9.33447 25.2705 9.33447 25.389 9.33447C25.3231 9.53861 25.2046 9.53861 25.0334 9.33447Z"
        fill="#010200" />
    <path opacity="0.012" fill-rule="evenodd" clip-rule="evenodd"
        d="M24.6777 9.63916C24.7962 9.63916 24.9148 9.63916 25.0333 9.63916C24.9674 9.8433 24.8489 9.8433 24.6777 9.63916Z"
        fill="#030300" />
    <path opacity="0.012" fill-rule="evenodd" clip-rule="evenodd"
        d="M24.3223 9.94385C24.4408 9.94385 24.5593 9.94385 24.6778 9.94385C24.6119 10.148 24.4934 10.148 24.3223 9.94385Z"
        fill="black" />
    <path opacity="0.01" fill-rule="evenodd" clip-rule="evenodd"
        d="M23.9666 10.2483C24.0851 10.2483 24.2036 10.2483 24.3221 10.2483C24.3831 10.5504 24.2646 10.7535 23.9666 10.8576C23.9666 10.6545 23.9666 10.4514 23.9666 10.2483Z"
        fill="#020200" />
    <path opacity="0.01" fill-rule="evenodd" clip-rule="evenodd"
        d="M23.6111 10.8577C23.7296 10.8577 23.8481 10.8577 23.9666 10.8577C23.9008 11.0618 23.7822 11.0618 23.6111 10.8577Z"
        fill="black" />
    <path opacity="0.012" fill-rule="evenodd" clip-rule="evenodd"
        d="M23.2556 11.1624C23.3741 11.1624 23.4927 11.1624 23.6112 11.1624C23.5453 11.3665 23.4267 11.3665 23.2556 11.1624Z"
        fill="black" />
    <path opacity="0.012" fill-rule="evenodd" clip-rule="evenodd"
        d="M22.8999 11.467C23.0184 11.467 23.137 11.467 23.2555 11.467C23.1896 11.6712 23.071 11.6712 22.8999 11.467Z"
        fill="black" />
    <path opacity="0.01" fill-rule="evenodd" clip-rule="evenodd"
        d="M22.189 12.0761C22.189 11.873 22.3075 11.7715 22.5445 11.7715C22.663 11.7715 22.7816 11.7715 22.9001 11.7715C22.9611 12.0736 22.8425 12.2767 22.5445 12.3808C22.5445 12.1777 22.426 12.0761 22.189 12.0761Z"
        fill="#201B0F" />
    <path opacity="0.012" fill-rule="evenodd" clip-rule="evenodd"
        d="M22.189 12.3809C22.3075 12.3809 22.426 12.3809 22.5445 12.3809C22.4786 12.585 22.3601 12.585 22.189 12.3809Z"
        fill="#020300" />
    <path opacity="0.01" fill-rule="evenodd" clip-rule="evenodd"
        d="M21.8333 12.6855C21.9518 12.6855 22.0704 12.6855 22.1889 12.6855C22.2149 13.1507 21.9778 13.4553 21.4778 13.5995C21.4778 13.3964 21.4778 13.1933 21.4778 12.9902C21.7148 12.9902 21.8333 12.8886 21.8333 12.6855Z"
        fill="#010100" />
    <path opacity="0.01" fill-rule="evenodd" clip-rule="evenodd"
        d="M21.1223 13.5994C21.2408 13.5994 21.3594 13.5994 21.4779 13.5994C21.412 13.8035 21.2934 13.8035 21.1223 13.5994Z"
        fill="#050501" />
    <path opacity="0.012" fill-rule="evenodd" clip-rule="evenodd"
        d="M20.7666 13.9041C20.8851 13.9041 21.0037 13.9041 21.1222 13.9041C21.0563 14.1082 20.9377 14.1082 20.7666 13.9041Z"
        fill="black" />
    <path opacity="0.01" fill-rule="evenodd" clip-rule="evenodd"
        d="M20.4111 14.2087C20.5296 14.2087 20.6482 14.2087 20.7667 14.2087C20.8277 14.5108 20.7092 14.7139 20.4111 14.818C20.4111 14.6149 20.4111 14.4118 20.4111 14.2087Z"
        fill="#010100" />
    <path opacity="0.01" fill-rule="evenodd" clip-rule="evenodd"
        d="M20.0557 14.8179C20.1742 14.8179 20.2927 14.8179 20.4112 14.8179C20.3453 15.022 20.2268 15.022 20.0557 14.8179Z"
        fill="#020300" />
    <path opacity="0.01" fill-rule="evenodd" clip-rule="evenodd"
        d="M30.7223 14.8179C31.1268 15.6719 31.1861 16.5858 30.9 17.5596C30.723 16.6513 30.6637 15.7374 30.7223 14.8179Z"
        fill="black" />
    <path opacity="0.01" fill-rule="evenodd" clip-rule="evenodd"
        d="M19.7 15.1226C19.8185 15.1226 19.937 15.1226 20.0555 15.1226C19.9896 15.3267 19.8711 15.3267 19.7 15.1226Z"
        fill="#040401" />
    <path opacity="0.016" fill-rule="evenodd" clip-rule="evenodd"
        d="M19.3445 15.4272C19.463 15.4272 19.5815 15.4272 19.7 15.4272C19.6342 15.6314 19.5156 15.6314 19.3445 15.4272Z"
        fill="black" />
    <path opacity="0.01" fill-rule="evenodd" clip-rule="evenodd"
        d="M18.989 15.7319C19.1075 15.7319 19.2261 15.7319 19.3446 15.7319C19.2261 16.5443 19.1075 16.5443 18.989 15.7319Z"
        fill="#000100" />
    <path opacity="0.999" fill-rule="evenodd" clip-rule="evenodd"
        d="M0.5 16.6458C6.3074 16.6458 12.1148 16.6458 17.9222 16.6458C15.6075 20.4122 13.1186 24.0678 10.4556 27.6127C10.3371 27.6127 10.2185 27.6127 10.1 27.6127C9.32187 26.4834 8.37371 25.4679 7.25556 24.5663C7.25556 24.4648 7.25556 24.3632 7.25556 24.2617C7.25556 24.0586 7.13705 23.957 6.9 23.957C4.88119 21.7112 2.86636 19.4772 0.855556 17.255C0.737038 17.0519 0.618517 16.8489 0.5 16.6458Z"
        fill="#4C58A6" />
    <path opacity="0.01" fill-rule="evenodd" clip-rule="evenodd"
        d="M0.855466 17.2551C0.902048 17.4802 0.842787 17.6833 0.677688 17.8644C0.431754 17.579 0.491015 17.3759 0.855466 17.2551Z"
        fill="#171717" />
    <path opacity="0.999" fill-rule="evenodd" clip-rule="evenodd"
        d="M17.9222 16.6458C18.0407 16.6458 18.1593 16.6458 18.2778 16.6458C18.881 17.2626 19.4735 17.8719 20.0556 18.4736C20.0556 18.6767 20.1741 18.7782 20.4111 18.7782C22.3185 20.9179 24.2148 23.0504 26.1 25.1756C26.1 25.3787 26.2185 25.4802 26.4556 25.4802C27.7377 27.2891 29.2784 28.9138 31.0778 30.3544C31.0778 30.4559 31.0778 30.5575 31.0778 30.659C31.0778 30.8621 31.1963 30.9637 31.4333 30.9637C31.4333 31.1669 31.5519 31.2683 31.7889 31.2683C31.7995 31.572 31.6218 31.7752 31.2556 31.8776C30.5093 31.6378 29.7389 31.5364 28.9445 31.573C27.4956 31.0799 25.9549 30.7753 24.3222 30.659C23.3364 30.3065 22.2697 30.1034 21.1222 30.0498C20.2473 29.7357 19.2991 29.5326 18.2778 29.4405C18.0257 29.1651 17.6701 29.0636 17.2111 29.1359C16.959 28.8605 16.6035 28.7589 16.1445 28.8312C15.9074 28.8312 15.6704 28.8312 15.4333 28.8312C15.3148 28.8312 15.1963 28.8312 15.0778 28.8312C15.0778 28.6281 14.9593 28.5266 14.7222 28.5266C14.6037 28.5266 14.4852 28.5266 14.3667 28.5266C14.0111 28.5266 13.6556 28.5266 13.3 28.5266C12.2891 28.1171 11.3409 27.8124 10.4556 27.6127C13.1186 24.0678 15.6075 20.4122 17.9222 16.6458Z"
        fill="#C05197" />
    <path opacity="0.01" fill-rule="evenodd" clip-rule="evenodd"
        d="M20.4112 18.7781C20.1742 18.7781 20.0557 18.6766 20.0557 18.4735C20.1434 17.7194 20.3804 17.7194 20.7668 18.4735C20.7228 18.6583 20.6043 18.7598 20.4112 18.7781Z"
        fill="#010101" />
    <path opacity="0.013" fill-rule="evenodd" clip-rule="evenodd"
        d="M31.0777 17.8643C31.4594 18.0929 31.5186 18.3976 31.2555 18.7782C31.0838 18.4894 31.0245 18.1847 31.0777 17.8643Z"
        fill="black" />
    <path opacity="0.01" fill-rule="evenodd" clip-rule="evenodd"
        d="M6.90014 23.957C7.13719 23.957 7.2557 24.0586 7.2557 24.2617C7.2557 24.3632 7.2557 24.4648 7.2557 24.5663C7.14548 24.9435 6.9677 24.9435 6.72237 24.5663C6.47643 24.2809 6.5357 24.0779 6.90014 23.957Z"
        fill="#000001" />
    <path opacity="0.01" fill-rule="evenodd" clip-rule="evenodd"
        d="M26.4557 25.4803C26.2186 25.4803 26.1001 25.3787 26.1001 25.1756C26.1878 24.4216 26.4249 24.4216 26.8112 25.1756C26.7673 25.3605 26.6488 25.462 26.4557 25.4803Z"
        fill="#010000" />
    <path opacity="0.01" fill-rule="evenodd" clip-rule="evenodd"
        d="M10.0999 27.6125C9.86286 27.8157 9.86286 27.8157 10.0999 27.6125Z" fill="#020100" />
    <path opacity="0.01" fill-rule="evenodd" clip-rule="evenodd"
        d="M13.3001 28.5266C13.6556 28.9328 14.0112 28.9328 14.3667 28.5266C14.4852 28.5266 14.6038 28.5266 14.7223 28.5266C14.9593 28.5266 15.0778 28.6282 15.0778 28.8313C15.1964 28.8313 15.3149 28.8313 15.4334 28.8313C15.6704 29.2375 15.9075 29.2375 16.1445 28.8313C16.6035 28.759 16.9591 28.8605 17.2112 29.1359C16.9485 29.096 16.7114 29.1468 16.5001 29.2882C17.0811 29.4386 17.6737 29.4894 18.2778 29.4406C17.642 29.7825 16.9309 29.8333 16.1445 29.5929C14.8253 29.3203 13.5216 29.0157 12.2334 28.679C12.5705 28.5319 12.926 28.4811 13.3001 28.5266Z"
        fill="#0A0306" />
    <path opacity="0.01" fill-rule="evenodd" clip-rule="evenodd"
        d="M21.1223 30.0497C20.608 30.3887 20.0154 30.4395 19.3445 30.202C19.9255 30.0517 20.5181 30.0009 21.1223 30.0497Z"
        fill="#010000" />
    <path opacity="0.01" fill-rule="evenodd" clip-rule="evenodd"
        d="M31.7888 30.9637C31.6703 30.9637 31.5517 30.9637 31.4332 30.9637C31.1962 30.9637 31.0777 30.8622 31.0777 30.6591C31.0777 30.5575 31.0777 30.456 31.0777 30.3544C31.0544 30.2209 31.1137 30.1194 31.2554 30.0498C31.6247 30.2764 31.8025 30.581 31.7888 30.9637Z"
        fill="#010000" />
    <path opacity="0.01" fill-rule="evenodd" clip-rule="evenodd"
        d="M24.3222 30.6591C23.8079 30.9981 23.2153 31.0489 22.5444 30.8114C23.1254 30.661 23.7181 30.6102 24.3222 30.6591Z"
        fill="#010000" />
    <path opacity="0.012" fill-rule="evenodd" clip-rule="evenodd"
        d="M31.7888 30.9636C32.0259 30.9636 32.1444 31.0652 32.1444 31.2683C32.0259 31.1668 31.9073 31.0652 31.7888 30.9636Z"
        fill="black" />
    <path opacity="0.01" fill-rule="evenodd" clip-rule="evenodd"
        d="M28.9444 31.573C28.9444 31.6744 28.9444 31.7762 28.9444 31.8776C27.0481 31.7762 27.0481 31.6744 28.9444 31.573Z"
        fill="#010001" />
    <path opacity="0.01" fill-rule="evenodd" clip-rule="evenodd"
        d="M28.9443 31.8775C29.4327 31.8297 29.9068 31.8805 30.3666 32.0298C29.8099 32.2629 29.3358 32.212 28.9443 31.8775Z"
        fill="#010000" />
    <path opacity="0.01" fill-rule="evenodd" clip-rule="evenodd"
        d="M31.0779 32.4867C31.2189 32.1745 31.4559 32.1236 31.789 32.3344C31.5776 32.4758 31.3406 32.5266 31.0779 32.4867Z"
        fill="#020101" />
</svg>