<svg width="32" height="32" viewBox="0 0 32 32" fill="none" xmlns="http://www.w3.org/2000/svg">
<path d="M31.3846 12.2912C31.3846 12.9619 30.841 13.5054 30.1703 13.5054C29.4998 13.5054 28.9561 12.9619 28.9561 12.2912C28.9561 11.6206 29.4998 11.0769 30.1703 11.0769C30.841 11.0769 31.3846 11.6206 31.3846 12.2912Z" fill="#0395FF"/>
<path d="M24.2059 11.2764L27.7806 18.4107L26.3305 21.2615L21.3143 11.2765L24.2059 11.2764Z" fill="black"/>
<path d="M18.4001 17.3292C18.0074 18.1312 17.1836 18.6836 16.2305 18.6836C14.897 18.6836 13.8159 17.6025 13.8159 16.269C13.8159 14.9354 14.897 13.8544 16.2305 13.8544C17.194 13.8544 18.0254 14.4188 18.4129 15.235L20.7167 14.0764C19.9049 12.4183 18.2011 11.2764 16.2305 11.2764C13.4732 11.2764 11.238 13.5116 11.238 16.269C11.238 19.0263 13.4732 21.2615 16.2305 21.2615C18.1873 21.2615 19.8809 20.1355 20.6995 18.4962L18.4001 17.3292Z" fill="black"/>
<path d="M7.77754 17.3292C7.38486 18.1312 6.56105 18.6836 5.60794 18.6836C4.27439 18.6836 3.19333 17.6025 3.19333 16.269C3.19333 14.9354 4.27439 13.8544 5.60794 13.8544C6.57145 13.8544 7.40283 14.4188 7.79022 15.235L10.0941 14.0764C9.28228 12.4183 7.57853 11.2764 5.60794 11.2764C2.85065 11.2764 0.615387 13.5116 0.615387 16.269C0.615387 19.0263 2.85065 21.2615 5.60794 21.2615C7.56474 21.2615 9.25834 20.1355 10.0769 18.4962L7.77754 17.3292Z" fill="black"/>
</svg>
