<svg width="32" height="32" viewBox="0 0 32 32" fill="none" xmlns="http://www.w3.org/2000/svg">
<g clip-path="url(#clip0_40_810)">
<path fill-rule="evenodd" clip-rule="evenodd" d="M-0.0712891 -0.0712891C10.5954 -0.0712891 21.262 -0.0712891 31.9287 -0.0712891C31.9287 10.5954 31.9287 21.262 31.9287 31.9287C21.262 31.9287 10.5954 31.9287 -0.0712891 31.9287C-0.0712891 21.262 -0.0712891 10.5954 -0.0712891 -0.0712891Z" fill="#FEFEFD"/>
<path fill-rule="evenodd" clip-rule="evenodd" d="M20.4087 6.18646C20.4087 6.37608 20.4087 6.56572 20.4087 6.75535C20.5509 6.75535 20.6931 6.75535 20.8354 6.75535C20.8142 6.90496 20.8378 7.04719 20.9065 7.18201C21.4839 7.6898 22.0765 8.16389 22.6842 8.60423C22.9468 10.0528 23.0416 11.5224 22.9687 13.0131C21.5752 11.6908 20.2003 10.3397 18.8442 8.95979C18.7598 8.89376 18.6649 8.87005 18.5598 8.88868C17.8306 7.94599 17.0248 7.06895 16.142 6.25757C15.6226 6.18666 15.1012 6.16295 14.5776 6.18646C13.6972 6.23238 12.8439 6.18498 12.0176 6.04423C13.2986 4.64471 14.6497 3.31731 16.0709 2.06201C17.5395 3.41213 18.9855 4.78695 20.4087 6.18646Z" fill="#1A1A1A"/>
<path fill-rule="evenodd" clip-rule="evenodd" d="M11.8758 6.04429C11.8758 6.09169 11.8758 6.13911 11.8758 6.18651C10.9276 6.18651 9.97948 6.18651 9.03132 6.18651C8.11783 6.1451 7.21708 6.19251 6.3291 6.32874C8.12447 6.04701 9.97336 5.95219 11.8758 6.04429Z" fill="#E6F0C3"/>
<path fill-rule="evenodd" clip-rule="evenodd" d="M20.4092 6.18652C22.2107 6.18652 24.0121 6.18652 25.8136 6.18652C25.8136 8.03541 25.8136 9.8843 25.8136 11.7332C25.7663 11.7332 25.7188 11.7332 25.6714 11.7332C25.7173 10.8056 25.67 9.90487 25.5292 9.03097C25.576 8.1724 25.5286 7.31907 25.387 6.47097C23.9939 6.28342 22.6192 6.28342 21.2625 6.47097C21.0672 6.44868 20.8775 6.47239 20.6936 6.54208C20.7727 6.59649 20.8201 6.6676 20.8358 6.75541C20.6936 6.75541 20.5514 6.75541 20.4092 6.75541C20.4092 6.56579 20.4092 6.37615 20.4092 6.18652Z" fill="#B64991"/>
<path fill-rule="evenodd" clip-rule="evenodd" d="M7.60857 10.3113C7.32412 10.6432 7.03968 10.975 6.75523 11.3069C6.70783 11.3069 6.66041 11.3069 6.61301 11.3069C6.56561 11.3069 6.51819 11.3069 6.47079 11.3069C6.44711 9.7891 6.47082 8.27208 6.5419 6.75577C6.67594 6.4067 6.93669 6.26448 7.32412 6.32911C7.51375 6.37651 7.70339 6.42393 7.89301 6.47133C7.8183 6.56981 7.7235 6.64092 7.60857 6.68466C7.79249 6.75435 7.98213 6.77806 8.17746 6.75577C8.20852 7.42585 8.16111 8.08955 8.03523 8.74689C8.09477 8.91358 8.18959 9.05581 8.31968 9.17355C8.20961 9.34581 8.0911 9.34581 7.96412 9.17355C7.92498 9.58775 7.80645 9.96701 7.60857 10.3113Z" fill="#99C82F"/>
<path fill-rule="evenodd" clip-rule="evenodd" d="M9.03112 6.18685C9.33084 6.32454 9.66269 6.37196 10.0267 6.32907C10.0389 6.47071 9.99146 6.58922 9.88445 6.68462C8.80442 6.7915 8.85182 6.91003 10.0267 7.04018C10.034 7.33451 9.93917 7.59526 9.74223 7.8224C9.91884 8.02785 10.0374 8.24119 10.0978 8.4624C9.67961 8.51165 9.32406 8.65387 9.03112 8.88907C9.03112 8.93647 9.03112 8.98389 9.03112 9.03129C8.55705 9.45796 8.08297 9.88462 7.6089 10.3113C7.80679 9.96697 7.92531 9.58771 7.96445 9.17351C8.09143 9.34577 8.20994 9.34577 8.32001 9.17351C8.18992 9.05577 8.0951 8.91354 8.03556 8.74684C8.16145 8.08951 8.20885 7.42581 8.17779 6.75573C7.98246 6.77802 7.79282 6.75431 7.6089 6.68462C7.72383 6.64088 7.81863 6.56976 7.89334 6.47129C7.70372 6.42389 7.51408 6.37647 7.32445 6.32907C6.93703 6.26444 6.67628 6.40666 6.54223 6.75573C6.47115 8.27204 6.44744 9.78906 6.47112 11.3068C6.32962 9.673 6.28221 8.01373 6.3289 6.32907C7.21688 6.19285 8.11763 6.14543 9.03112 6.18685Z" fill="#9FBC3F"/>
<path fill-rule="evenodd" clip-rule="evenodd" d="M10.0268 6.32901C10.4637 6.28387 10.8904 6.33128 11.3068 6.47124C11.3336 6.9669 11.3336 7.48838 11.3068 8.03568C11.6861 8.08308 12.0653 8.1305 12.4446 8.1779C12.4446 8.32013 12.4446 8.46235 12.4446 8.60457C11.8555 8.68133 11.2866 8.77613 10.7379 8.88901C10.169 8.88901 9.60014 8.88901 9.03125 8.88901C9.32419 8.65382 9.67974 8.5116 10.0979 8.46235C10.0375 8.24114 9.91897 8.0278 9.74236 7.82235C9.9393 7.5952 10.0341 7.33445 10.0268 7.04013C8.85195 6.90998 8.80455 6.79145 9.88458 6.68457C9.99159 6.58917 10.039 6.47065 10.0268 6.32901Z" fill="#9DA440"/>
<path fill-rule="evenodd" clip-rule="evenodd" d="M11.8751 6.04443C11.9225 6.04443 11.9699 6.04443 12.0173 6.04443C12.8436 6.18518 13.6969 6.23258 14.5773 6.18666C14.5773 6.28148 14.6247 6.32888 14.7195 6.32888C14.5545 6.57104 14.6494 6.66585 15.004 6.61332C14.9607 7.11316 14.9607 7.61094 15.004 8.10666C14.8121 8.32534 14.7173 8.58607 14.7195 8.88888C14.2304 8.85373 13.7564 8.90115 13.2973 9.0311C12.471 8.89036 11.6177 8.84295 10.7373 8.88888C11.286 8.776 11.8548 8.68119 12.444 8.60443C12.8232 8.60443 13.2025 8.60443 13.5817 8.60443C13.5817 7.89332 13.5817 7.18221 13.5817 6.4711C12.9867 6.42119 12.4179 6.32637 11.8751 6.18666C11.8751 6.13925 11.8751 6.09184 11.8751 6.04443Z" fill="#9F7D53"/>
<path fill-rule="evenodd" clip-rule="evenodd" d="M14.5781 6.18651C15.1018 6.163 15.6232 6.18671 16.1426 6.25762C17.0253 7.069 17.8312 7.94604 18.5603 8.88874C17.6597 8.88874 16.7588 8.88874 15.8581 8.88874C15.7546 8.35984 15.8968 7.93317 16.2848 7.60874C16.1675 7.48277 16.0252 7.43537 15.8581 7.46651C15.8581 7.08725 15.8581 6.708 15.8581 6.32874C15.4788 6.32874 15.0997 6.32874 14.7203 6.32874C14.6255 6.32874 14.5781 6.28133 14.5781 6.18651Z" fill="#9D625F"/>
<path fill-rule="evenodd" clip-rule="evenodd" d="M20.8356 6.75537C21.1555 6.83783 21.3924 7.02746 21.5468 7.32426C21.9261 7.75093 22.3052 8.17759 22.6845 8.60426C22.0768 8.16391 21.4842 7.68983 20.9068 7.18204C20.8381 7.04721 20.8144 6.90499 20.8356 6.75537Z" fill="#490C3B"/>
<path fill-rule="evenodd" clip-rule="evenodd" d="M21.2622 6.47124C22.4984 6.4241 23.7311 6.47152 24.96 6.61346C25.089 7.02892 25.1364 7.45558 25.1022 7.89346C24.7931 7.8337 24.5086 7.8337 24.2489 7.89346C24.1067 7.79864 23.9645 7.70383 23.8222 7.60901C23.6211 7.74633 23.5027 7.88855 23.4667 8.03568C22.8864 7.88935 22.3886 7.6049 21.9734 7.18235C21.8429 7.27155 21.7007 7.31897 21.5467 7.32457C21.3924 7.02777 21.1554 6.83814 20.8356 6.75568C20.8198 6.66787 20.7724 6.59676 20.6934 6.54235C20.8773 6.47266 21.067 6.44895 21.2622 6.47124Z" fill="#B2078B"/>
<path fill-rule="evenodd" clip-rule="evenodd" d="M14.7202 6.3291C15.0995 6.3291 15.4786 6.3291 15.8579 6.3291C15.8579 6.70837 15.8579 7.08762 15.8579 7.46688C16.0251 7.43573 16.1673 7.48314 16.2846 7.6091C15.8966 7.93354 15.7544 8.36021 15.8579 8.8891C15.4786 8.8891 15.0995 8.8891 14.7202 8.8891C14.7179 8.5863 14.8128 8.32556 15.0046 8.10688C14.9614 7.61116 14.9614 7.11339 15.0046 6.61355C14.6501 6.66607 14.5552 6.57126 14.7202 6.3291Z" fill="#A2715A"/>
<path fill-rule="evenodd" clip-rule="evenodd" d="M21.2627 6.47123C22.6194 6.28368 23.9941 6.28368 25.3871 6.47123C25.5288 7.31933 25.5762 8.17266 25.5294 9.03123C24.9605 9.03123 24.3916 9.03123 23.8227 9.03123C23.8652 9.33046 23.8179 9.61491 23.6805 9.88456C23.5663 9.52593 23.3767 9.24149 23.1116 9.03123C23.1116 8.74678 22.9694 8.60456 22.6849 8.60456C22.3056 8.17789 21.9264 7.75123 21.5471 7.32456C21.7012 7.31896 21.8434 7.27154 21.9738 7.18234C22.3891 7.6049 22.8869 7.88934 23.4671 8.03567C23.5031 7.88854 23.6216 7.74632 23.8227 7.60901C23.9649 7.70383 24.1071 7.79863 24.2494 7.89345C24.5091 7.83369 24.7935 7.83369 25.1027 7.89345C25.1368 7.45558 25.0895 7.02891 24.9605 6.61345C23.7315 6.47151 22.4989 6.4241 21.2627 6.47123Z" fill="#B60F84"/>
<path fill-rule="evenodd" clip-rule="evenodd" d="M9.03125 6.18652C9.9794 6.18652 10.9275 6.18652 11.8757 6.18652C12.4185 6.32624 12.9874 6.42106 13.5824 6.47097C13.5824 7.18208 13.5824 7.89319 13.5824 8.6043C13.2031 8.6043 12.8238 8.6043 12.4446 8.6043C12.4446 8.46208 12.4446 8.31986 12.4446 8.17763C12.0653 8.13023 11.6861 8.08282 11.3068 8.03541C11.3336 7.48811 11.3336 6.96663 11.3068 6.47097C10.8904 6.33101 10.4637 6.2836 10.0268 6.32875C9.66282 6.37164 9.33097 6.32422 9.03125 6.18652Z" fill="#A09148"/>
<path fill-rule="evenodd" clip-rule="evenodd" d="M9.03077 8.88902C9.59966 8.88902 10.1685 8.88902 10.7374 8.88902C11.6178 8.84309 12.4711 8.8905 13.2974 9.03124C11.8752 10.3586 10.5004 11.7335 9.17299 13.1557C8.98337 13.2505 8.84114 13.3927 8.74632 13.5824C8.03521 14.1986 7.3715 14.8624 6.75521 15.5735C6.6674 15.5892 6.59629 15.6366 6.54188 15.7157C6.47085 16.5202 6.44715 17.3262 6.47077 18.1335C6.47077 18.6075 6.47077 19.0817 6.47077 19.5557C6.47077 19.7453 6.37595 19.8401 6.18632 19.8401C4.81449 18.5631 3.48709 17.2358 2.2041 15.8579C3.67677 14.338 5.14639 12.8209 6.61299 11.3068C6.66039 11.3068 6.70781 11.3068 6.75521 11.3068C7.0532 11.1771 7.33764 11.0112 7.60855 10.809C8.11634 10.2316 8.59042 9.63897 9.03077 9.03124C9.03077 8.98384 9.03077 8.93642 9.03077 8.88902Z" fill="#1A1A1A"/>
<path fill-rule="evenodd" clip-rule="evenodd" d="M14.7195 8.88866C15.0988 8.88866 15.478 8.88866 15.8573 8.88866C16.758 8.88866 17.6588 8.88866 18.5595 8.88866C18.6646 8.87003 18.7595 8.89374 18.844 8.95977C20.2001 10.3396 21.5749 11.6908 22.9684 13.0131C22.9684 13.0605 22.9684 13.1079 22.9684 13.1553C22.9684 14.9569 22.9684 16.7582 22.9684 18.5598C21.6487 19.9743 20.2739 21.3492 18.844 22.6842C18.7491 22.7316 18.6544 22.7791 18.5595 22.8264C17.8484 22.8264 17.1373 22.8264 16.4262 22.8264C15.478 22.8264 14.5299 22.8264 13.5817 22.8264C13.4767 22.8451 13.3818 22.8213 13.2973 22.7553C11.9412 21.3755 10.5664 20.0244 9.17285 18.702C9.17285 18.6546 9.17285 18.6071 9.17285 18.5598C9.17285 16.7582 9.17285 14.9569 9.17285 13.1553C10.5003 11.7331 11.8751 10.3583 13.2973 9.03088C13.7564 8.90093 14.2304 8.85352 14.7195 8.88866Z" fill="#FDFDFC"/>
<path fill-rule="evenodd" clip-rule="evenodd" d="M9.03141 9.03125C8.59107 9.63898 8.11698 10.2316 7.60919 10.809C7.33829 11.0112 7.05384 11.1771 6.75586 11.3068C7.0403 10.975 7.32475 10.6431 7.60919 10.3113C8.08326 9.88458 8.55735 9.45792 9.03141 9.03125Z" fill="#1A2506"/>
<path fill-rule="evenodd" clip-rule="evenodd" d="M22.6846 8.60449C22.969 8.60449 23.1112 8.74671 23.1112 9.03116C23.1112 10.0741 23.1112 11.1171 23.1112 12.16C23.1112 12.4919 23.1112 12.8238 23.1112 13.1556C23.0639 13.1556 23.0164 13.1556 22.969 13.1556C22.969 13.1082 22.969 13.0608 22.969 13.0134C23.042 11.5226 22.9471 10.053 22.6846 8.60449Z" fill="#6E1844"/>
<path fill-rule="evenodd" clip-rule="evenodd" d="M23.1113 9.03125C23.3764 9.24151 23.566 9.52596 23.6802 9.88458C23.8176 9.61493 23.865 9.33049 23.8224 9.03125C24.3913 9.03125 24.9602 9.03125 25.5291 9.03125C25.6699 9.90515 25.7173 10.8059 25.6713 11.7335C25.6713 11.7809 25.6713 11.8283 25.6713 11.8757C25.4305 12.0143 25.2172 12.204 25.0313 12.4446C24.984 12.3024 24.9365 12.1601 24.8891 12.0179C24.8231 12.825 24.7283 12.8724 24.6047 12.1601C24.1019 12.676 23.6752 12.5811 23.3247 11.8757C23.2851 12.0059 23.214 12.1008 23.1113 12.1601C23.1113 11.1172 23.1113 10.0742 23.1113 9.03125Z" fill="#C3267A"/>
<path fill-rule="evenodd" clip-rule="evenodd" d="M25.6713 11.8755C25.6713 12.4918 25.6713 13.1081 25.6713 13.7244C25.452 13.6105 25.2151 13.5631 24.9602 13.5822C25.0194 15.1814 24.8772 15.2288 24.5336 13.7244C24.1171 13.5844 23.6905 13.537 23.2536 13.5822C23.2955 13.9001 23.248 14.1845 23.1113 14.4355C23.1113 14.0088 23.1113 13.5822 23.1113 13.1555C23.1113 12.8236 23.1113 12.4918 23.1113 12.1599C23.214 12.1006 23.2851 12.0057 23.3247 11.8755C23.6752 12.5809 24.1019 12.6757 24.6047 12.1599C24.7283 12.8722 24.8231 12.8248 24.8891 12.0177C24.9365 12.1599 24.984 12.3022 25.0313 12.4444C25.2172 12.2038 25.4305 12.0141 25.6713 11.8755Z" fill="#CC3A71"/>
<path fill-rule="evenodd" clip-rule="evenodd" d="M22.9688 13.1558C23.0161 13.1558 23.0636 13.1558 23.111 13.1558C23.111 13.5824 23.111 14.0091 23.111 14.4358C23.111 15.052 23.111 15.6684 23.111 16.2847C23.0657 16.9292 23.1131 17.5456 23.2532 18.1335C23.1918 18.3056 23.0969 18.4479 22.9688 18.5602C22.9688 16.7587 22.9688 14.9573 22.9688 13.1558Z" fill="#E496A4"/>
<path fill-rule="evenodd" clip-rule="evenodd" d="M25.6713 13.7247C26.07 15.2609 25.596 16.3987 24.2491 17.138C24.2491 16.9009 24.2491 16.664 24.2491 16.4269C23.8475 16.3021 23.4682 16.2548 23.1113 16.2847C23.1113 15.6684 23.1113 15.052 23.1113 14.4358C23.248 14.1848 23.2955 13.9004 23.2536 13.5824C23.6905 13.5373 24.1171 13.5847 24.5336 13.7247C24.8772 15.2291 25.0194 15.1817 24.9602 13.5824C25.2151 13.5634 25.452 13.6108 25.6713 13.7247Z" fill="#D34D68"/>
<path fill-rule="evenodd" clip-rule="evenodd" d="M8.74697 13.582C9.02645 14.6146 9.12127 15.705 9.03141 16.8531C8.2729 16.8531 7.51437 16.8531 6.75586 16.8531C6.75586 16.4265 6.75586 15.9998 6.75586 15.5731C7.37215 14.862 8.03586 14.1983 8.74697 13.582Z" fill="#637A5B"/>
<path fill-rule="evenodd" clip-rule="evenodd" d="M9.17298 13.1558C9.17298 14.9573 9.17298 16.7587 9.17298 18.5602C9.04441 18.4594 8.99701 18.3171 9.03076 18.1335C8.17742 18.1335 7.32409 18.1335 6.47076 18.1335C6.44713 17.3263 6.47084 16.5203 6.54187 15.7158C6.59628 15.6367 6.66739 15.5893 6.7552 15.5735C6.7552 16.0002 6.7552 16.4269 6.7552 16.8535C7.51372 16.8535 8.27224 16.8535 9.03076 16.8535C9.12061 15.7054 9.02579 14.615 8.74631 13.5824C8.84113 13.3928 8.98335 13.2506 9.17298 13.1558Z" fill="#62716D"/>
<path fill-rule="evenodd" clip-rule="evenodd" d="M23.1113 16.2845C23.4681 16.2547 23.8474 16.302 24.2491 16.4268C24.2491 16.6638 24.2491 16.9008 24.2491 17.1379C24.012 17.5645 23.6802 17.8963 23.2535 18.1334C23.1134 17.5455 23.0661 16.9291 23.1113 16.2845Z" fill="#DB5D60"/>
<path fill-rule="evenodd" clip-rule="evenodd" d="M25.6714 11.7334C25.7188 11.7334 25.7663 11.7334 25.8136 11.7334C27.2329 13.0578 28.6077 14.4326 29.9381 15.8578C28.4693 17.3741 26.9996 18.891 25.5292 20.409C25.4818 20.409 25.4343 20.409 25.3869 20.409C24.6353 21.1606 23.8767 21.9192 23.1114 22.6845C22.9941 22.8105 22.8518 22.8579 22.6847 22.8267C22.3054 22.8267 21.9263 22.8267 21.5469 22.8267C20.6194 22.8727 19.7187 22.8253 18.8447 22.6845C20.2746 21.3495 21.6495 19.9746 22.9692 18.5601C23.0973 18.4477 23.1922 18.3055 23.2536 18.1334C23.6803 17.8963 24.0121 17.5645 24.2492 17.1378C25.596 16.3986 26.07 15.2608 25.6714 13.7245C25.6714 13.1082 25.6714 12.4919 25.6714 11.8756C25.6714 11.8282 25.6714 11.7808 25.6714 11.7334Z" fill="#1D1B1A"/>
<path fill-rule="evenodd" clip-rule="evenodd" d="M6.4707 18.1333C7.32404 18.1333 8.17737 18.1333 9.0307 18.1333C8.99695 18.3169 9.04436 18.4591 9.17293 18.56C9.17293 18.6073 9.17293 18.6548 9.17293 18.7022C9.17293 20.0295 9.17293 21.3571 9.17293 22.6844C9.04002 22.5325 8.99262 22.3429 9.0307 22.1155C9.0307 21.5466 9.0307 20.9777 9.0307 20.4089C9.0307 19.9822 9.0307 19.5555 9.0307 19.1289C8.26632 19.0822 7.5078 19.1296 6.75515 19.2711C6.70459 19.4164 6.60977 19.5113 6.4707 19.5555C6.4707 19.0815 6.4707 18.6073 6.4707 18.1333Z" fill="#525968"/>
<path fill-rule="evenodd" clip-rule="evenodd" d="M9.03097 20.4087C8.18824 20.4525 7.35861 20.4051 6.54208 20.2665C6.47105 21.071 6.44734 21.877 6.47097 22.6842C6.47097 23.6324 6.47097 24.5805 6.47097 25.5287C6.37374 23.6464 6.27893 21.7501 6.18652 19.8398C6.37615 19.8398 6.47097 19.7449 6.47097 19.5554C6.61003 19.5111 6.70485 19.4163 6.75541 19.2709C7.50807 19.1294 8.26658 19.082 9.03097 19.1287C9.03097 19.5554 9.03097 19.982 9.03097 20.4087Z" fill="#55597E"/>
<path fill-rule="evenodd" clip-rule="evenodd" d="M9.03076 20.4088C9.03076 20.9777 9.03076 21.5466 9.03076 22.1155C8.27224 22.1155 7.51372 22.1155 6.7552 22.1155C6.7552 22.3051 6.7552 22.4948 6.7552 22.6844C6.66038 22.6844 6.56558 22.6844 6.47076 22.6844C6.44713 21.8771 6.47084 21.0712 6.54187 20.2666C7.35839 20.4053 8.18803 20.4526 9.03076 20.4088Z" fill="#43437D"/>
<path fill-rule="evenodd" clip-rule="evenodd" d="M9.17285 18.7021C10.5664 20.0245 11.9412 21.3756 13.2973 22.7555C13.3818 22.8215 13.4767 22.8452 13.5817 22.8266C13.5631 22.9317 13.5868 23.0266 13.6529 23.111C14.3886 23.827 15.1234 24.5381 15.8573 25.2444C15.8731 25.3321 15.9204 25.4032 15.9995 25.4577C17.3993 25.4819 18.7741 25.553 20.124 25.671C18.8031 27.0364 17.452 28.3637 16.0706 29.6533C14.6231 28.3478 13.2245 26.9967 11.8751 25.5999C11.6912 25.5302 11.5015 25.5065 11.3062 25.5288C11.3062 25.4815 11.3062 25.434 11.3062 25.3866C11.3062 25.2444 11.3062 25.1021 11.3062 24.9599C11.3373 24.7928 11.2899 24.6506 11.164 24.5333C10.4667 23.9352 9.80304 23.319 9.17285 22.6844C9.17285 21.357 9.17285 20.0295 9.17285 18.7021Z" fill="#1B1A1B"/>
<path fill-rule="evenodd" clip-rule="evenodd" d="M9.03141 22.1157C8.99333 22.3431 9.04073 22.5327 9.17364 22.6846C9.80382 23.3192 10.4675 23.9355 11.1647 24.5335C11.2907 24.6508 11.3381 24.7931 11.307 24.9602C11.0968 24.9974 10.9072 24.9501 10.7381 24.8179C10.4378 24.6608 10.2482 24.4238 10.1692 24.1068C10.1218 23.9646 10.027 23.8697 9.88475 23.8224C9.6805 23.6903 9.49086 23.5244 9.31586 23.3246C8.46383 23.2536 7.6105 23.2299 6.75586 23.2535C6.75586 23.0639 6.75586 22.8742 6.75586 22.6846C6.75586 22.495 6.75586 22.3053 6.75586 22.1157C7.51437 22.1157 8.2729 22.1157 9.03141 22.1157Z" fill="#37327A"/>
<path fill-rule="evenodd" clip-rule="evenodd" d="M25.3868 20.4087C25.4342 20.4087 25.4817 20.4087 25.529 20.4087C25.5764 20.4087 25.6239 20.4087 25.6712 20.4087C25.7185 22.0233 25.6711 23.6351 25.529 25.2442C24.5626 25.4308 23.6144 25.4308 22.6846 25.2442C22.9376 24.982 23.2694 24.8873 23.6801 24.9598C23.7195 24.5405 23.6722 24.1376 23.5379 23.7509C23.9095 23.3599 23.9095 22.957 23.5379 22.542C24.0522 21.9397 24.6448 21.4182 25.3157 20.9776C25.3854 20.7937 25.4091 20.604 25.3868 20.4087Z" fill="#F19C41"/>
<path fill-rule="evenodd" clip-rule="evenodd" d="M25.3863 20.4087C25.4087 20.604 25.3849 20.7937 25.3152 20.9776C24.6444 21.4182 24.0517 21.9397 23.5374 22.542C23.9091 22.957 23.9091 23.3599 23.5374 23.7509C23.6717 24.1376 23.7191 24.5405 23.6797 24.9598C23.2689 24.8873 22.9371 24.982 22.6841 25.2442C21.9679 25.2317 21.2568 25.1606 20.5508 25.0309C21.1774 24.9241 21.7463 24.687 22.2574 24.3198C21.822 24.0339 21.5375 23.7021 21.4041 23.3242C21.7379 23.2622 22.0699 23.1911 22.3997 23.1109C22.5722 23.0758 22.667 22.9809 22.6841 22.8265C22.8512 22.8576 22.9934 22.8103 23.1108 22.6842C23.8761 21.9189 24.6347 21.1603 25.3863 20.4087Z" fill="#DA8F4B"/>
<path fill-rule="evenodd" clip-rule="evenodd" d="M6.4707 22.6846C6.56552 22.6846 6.66033 22.6846 6.75515 22.6846C6.75515 22.8742 6.75515 23.0639 6.75515 23.2535C7.60979 23.2299 8.46312 23.2536 9.31515 23.3246C9.49015 23.5244 9.67979 23.6902 9.88404 23.8223C9.74181 23.8223 9.59959 23.8223 9.45737 23.8223C9.45737 24.0594 9.45737 24.2964 9.45737 24.5335C9.31515 24.5335 9.17293 24.5335 9.0307 24.5335C9.0307 24.3912 9.0307 24.249 9.0307 24.1068C8.20543 24.1903 7.42321 24.0954 6.68404 23.8223C6.56919 24.324 6.5929 24.798 6.75515 25.2446C8.24662 25.3859 9.76366 25.4334 11.3063 25.3868C11.3063 25.4342 11.3063 25.4817 11.3063 25.529C9.69441 25.529 8.08255 25.529 6.4707 25.529C6.4707 24.5808 6.4707 23.6328 6.4707 22.6846Z" fill="#393088"/>
<path fill-rule="evenodd" clip-rule="evenodd" d="M16.4263 22.8267C17.1374 22.8267 17.8485 22.8267 18.5596 22.8267C18.5754 22.9144 18.6228 22.9855 18.7019 23.04C18.5218 23.0839 18.3558 23.1551 18.2041 23.2533C18.1331 23.9629 18.1094 24.674 18.133 25.3867C18.8441 25.3867 19.5552 25.3867 20.2663 25.3867C20.2663 25.434 20.2663 25.4815 20.2663 25.5289C20.2663 25.6237 20.219 25.6711 20.1241 25.6711C18.7743 25.5531 17.3994 25.4819 15.9996 25.4578C15.9206 25.4033 15.8732 25.3322 15.8574 25.2444C15.8574 24.486 15.8574 23.7274 15.8574 22.9689C16.0848 23.007 16.2744 22.9595 16.4263 22.8267Z" fill="#9E6765"/>
<path fill-rule="evenodd" clip-rule="evenodd" d="M9.88468 23.8223C10.0269 23.8696 10.1217 23.9645 10.1691 24.1067C10.0151 24.1012 9.87284 24.0537 9.74245 23.9645C9.69505 24.0356 9.64764 24.1067 9.60023 24.1778C9.79876 24.4276 10.0358 24.6409 10.3113 24.8178C9.89938 25.0182 9.52012 24.9709 9.17357 24.6756C8.33771 24.8542 7.53178 25.044 6.75579 25.2445C6.59354 24.7979 6.56983 24.3239 6.68468 23.8223C7.42385 24.0953 8.20607 24.1902 9.03134 24.1067C9.03134 24.2489 9.03134 24.3912 9.03134 24.5334C9.17357 24.5334 9.31579 24.5334 9.45801 24.5334C9.45801 24.2963 9.45801 24.0594 9.45801 23.8223C9.60023 23.8223 9.74245 23.8223 9.88468 23.8223Z" fill="#30278F"/>
<path fill-rule="evenodd" clip-rule="evenodd" d="M13.5823 22.8267C14.5305 22.8267 15.4786 22.8267 16.4268 22.8267C16.2749 22.9595 16.0853 23.007 15.8579 22.9689C15.8579 23.7274 15.8579 24.486 15.8579 25.2444C15.124 24.5382 14.3891 23.8271 13.6534 23.1111C13.5874 23.0266 13.5637 22.9318 13.5823 22.8267Z" fill="#825B69"/>
<path fill-rule="evenodd" clip-rule="evenodd" d="M25.6716 20.4087C25.8606 22.0777 25.8606 23.7607 25.6716 25.4576C23.8707 25.5287 22.0692 25.5524 20.2671 25.5287C20.2671 25.4813 20.2671 25.4338 20.2671 25.3865C20.3443 25.3779 20.3917 25.3306 20.4093 25.2442C18.9039 25.0568 18.9039 24.9619 20.4093 24.9598C20.4093 24.3436 20.4093 23.7272 20.4093 23.1109C20.8258 23.1017 21.2051 23.0068 21.5471 22.8265C21.9264 22.8265 22.3056 22.8265 22.6849 22.8265C22.6678 22.9809 22.573 23.0758 22.4005 23.1109C22.0706 23.1911 21.7387 23.2622 21.4049 23.3242C21.5383 23.7021 21.8227 24.0339 22.2582 24.3198C21.7471 24.687 21.1782 24.9241 20.5516 25.0309C21.2576 25.1606 21.9687 25.2317 22.6849 25.2442C23.6147 25.4308 24.5629 25.4308 25.5293 25.2442C25.6714 23.6351 25.7188 22.0233 25.6716 20.4087Z" fill="#D39061"/>
<path fill-rule="evenodd" clip-rule="evenodd" d="M10.1692 24.1066C10.2482 24.4236 10.4378 24.6605 10.7381 24.8177C10.9072 24.9498 11.0968 24.9972 11.307 24.9599C11.307 25.1021 11.307 25.2444 11.307 25.3866C9.76437 25.4332 8.24733 25.3857 6.75586 25.2444C7.53185 25.0438 8.33778 24.8541 9.17364 24.6755C9.52019 24.9707 9.89945 25.0181 10.3114 24.8177C10.0359 24.6408 9.79883 24.4274 9.6003 24.1777C9.64771 24.1066 9.69512 24.0355 9.74253 23.9644C9.87292 24.0535 10.0151 24.101 10.1692 24.1066Z" fill="#311E97"/>
<path fill-rule="evenodd" clip-rule="evenodd" d="M18.844 22.6846C19.7179 22.8254 20.6186 22.8727 21.5462 22.8268C21.2041 23.0071 20.8248 23.102 20.4084 23.1112C20.4084 23.7275 20.4084 24.3439 20.4084 24.9601C18.903 24.9623 18.903 25.0571 20.4084 25.2446C20.3908 25.3309 20.3434 25.3783 20.2662 25.3868C19.5551 25.3868 18.844 25.3868 18.1329 25.3868C18.1092 24.6741 18.133 23.963 18.204 23.2535C18.3557 23.1552 18.5217 23.0841 18.7017 23.0401C18.6227 22.9857 18.5753 22.9145 18.5595 22.8268C18.6544 22.7794 18.7491 22.7319 18.844 22.6846Z" fill="#B6755B"/>
</g>
<defs>
<clipPath id="clip0_40_810">
<rect width="32" height="32" fill="white"/>
</clipPath>
</defs>
</svg>
