<svg width="32" height="32" viewBox="0 0 32 32" fill="none" xmlns="http://www.w3.org/2000/svg">
<path fill-rule="evenodd" clip-rule="evenodd" d="M19.6252 2.66895H12.3752C7.01269 2.66895 2.66895 7.01269 2.66895 12.3752V19.6252C2.66895 24.9877 7.01269 29.3314 12.3752 29.3314H19.6252C24.9877 29.3314 29.3314 24.9877 29.3314 19.6252V12.3752C29.3314 7.01269 24.9877 2.66895 19.6252 2.66895ZM23.3814 19.0939C23.7814 18.1439 24.0064 17.1002 24.0064 16.0064C24.0064 11.6002 20.4127 8.0002 16.0064 8.0002C11.5877 8.0002 8.00019 11.5814 8.00644 16.0064C8.00644 20.4064 11.6064 24.0002 16.0064 24.0002C17.1064 24.0002 18.1502 23.7814 19.1002 23.3814C19.6939 23.1314 20.3502 23.0877 20.9752 23.2439L22.7127 23.6752C23.3002 23.8252 23.8252 23.2939 23.6814 22.7064L23.2439 20.9689C23.0939 20.3439 23.1377 19.6877 23.3814 19.1002V19.0939ZM20.7002 17.6439C19.7939 19.3127 18.0314 20.4502 16.0002 20.4502H15.9939C13.9689 20.4502 12.2002 19.3127 11.3002 17.6439C11.2002 17.4564 11.2689 17.2252 11.4502 17.1127L12.8814 16.2564C13.0877 16.1377 13.3439 16.2127 13.4502 16.4252C13.9252 17.3502 14.8877 17.9814 16.0002 17.9814C17.1127 17.9814 18.0689 17.3502 18.5502 16.4252C18.6564 16.2127 18.9127 16.1377 19.1127 16.2564L20.5502 17.1127C20.7314 17.2252 20.8002 17.4564 20.7002 17.6439Z" fill="#602FF8"/>
</svg>
