<svg width="32" height="32" viewBox="0 0 32 32" fill="none" xmlns="http://www.w3.org/2000/svg">
<g clip-path="url(#clip0_42_75)">
<path fill-rule="evenodd" clip-rule="evenodd" d="M19.2708 5.33342C20.5416 5.79146 21.7031 6.45517 22.7553 7.32453C22.611 7.92409 22.2555 8.39818 21.6886 8.74675C18.26 8.48936 14.7993 8.37084 11.3064 8.39119C11.2286 8.2597 11.1338 8.14118 11.0219 8.03564C10.8264 8.20791 10.6131 8.35013 10.3819 8.46231C10.3108 8.4149 10.2397 8.36749 10.1686 8.32008C10.2634 8.22526 10.3582 8.13046 10.453 8.03564C10.2772 7.92461 10.1349 7.78238 10.0264 7.60897C10.0973 7.26892 10.1447 6.93706 10.1686 6.61342C10.4056 6.42379 10.6427 6.23415 10.8797 6.04453C13.5845 4.80907 16.3816 4.57203 19.2708 5.33342Z" fill="#409ADB"/>
<path fill-rule="evenodd" clip-rule="evenodd" d="M10.1691 6.61328C10.1452 6.93692 10.0978 7.26878 10.0269 7.60884C10.1355 7.78225 10.2777 7.92447 10.4536 8.0355C10.3587 8.13032 10.2639 8.22513 10.1691 8.31995C10.2402 8.36735 10.3113 8.41477 10.3825 8.46217C10.6136 8.35 10.827 8.20778 11.0225 8.0355C11.1344 8.14105 11.2292 8.25956 11.3069 8.39106C14.7999 8.37071 18.2606 8.48922 21.6891 8.74661C20.882 9.67224 20.0049 10.5256 19.058 11.3066C17.0059 10.0349 14.9201 9.98745 12.8002 11.1644C11.5262 10.0328 10.2936 8.84759 9.10246 7.60884C9.03029 7.39606 9.1014 7.23014 9.31579 7.11106C9.58669 6.90892 9.87114 6.74299 10.1691 6.61328Z" fill="#3F95D4"/>
<path fill-rule="evenodd" clip-rule="evenodd" d="M10.7378 11.7331C10.7322 11.8872 10.6848 12.0294 10.5956 12.1598C10.8765 12.27 10.995 12.4597 10.9511 12.7287C10.7141 12.539 10.4771 12.3494 10.24 12.1598C10.3299 12.5191 10.3062 12.8746 10.1689 13.2264C8.65262 13.2975 7.13559 13.3212 5.61781 13.2976C5.65156 13.114 5.60415 12.9717 5.47559 12.8709C5.66986 11.9124 6.02542 11.0116 6.54225 10.1687C6.82476 9.64743 7.20403 9.22076 7.68003 8.88867C7.85421 8.9402 8.02014 9.01131 8.17781 9.10201C8.96063 10.0507 9.81396 10.9278 10.7378 11.7331Z" fill="#3B8FCD"/>
<path fill-rule="evenodd" clip-rule="evenodd" d="M26.6663 13.582C26.7861 14.3339 26.8336 15.0924 26.8086 15.8576C26.6924 16.2087 26.6213 16.5879 26.5952 16.9953C26.464 15.8025 26.298 14.6174 26.0974 13.4398C24.4883 13.2977 22.8765 13.2503 21.2619 13.2976C21.2983 12.9509 21.3932 12.6191 21.5463 12.302C21.499 12.1598 21.4041 12.065 21.2619 12.0176C21.1491 12.5014 21.0542 13.0228 20.9774 13.582C20.8826 13.582 20.8352 13.5346 20.8352 13.4398C20.7621 13.1743 20.6674 12.9136 20.5508 12.6576C21.6731 11.3098 22.9057 10.0536 24.2486 8.88867C24.4831 9.0519 24.6964 9.24153 24.8886 9.45756C25.7752 10.7016 26.3678 12.0765 26.6663 13.582Z" fill="#3C8FCB"/>
<path fill-rule="evenodd" clip-rule="evenodd" d="M26.8086 15.8576C26.8482 16.8516 26.706 17.7998 26.382 18.702C26.157 18.2219 26.0621 17.7005 26.0975 17.1376C24.5452 17.0921 23.0045 17.1394 21.4753 17.2798C21.4358 17.1495 21.3647 17.0548 21.262 16.9954C21.5036 15.8264 21.4088 14.6887 20.9775 13.582C21.0543 13.0228 21.1492 12.5014 21.262 12.0176C21.4042 12.065 21.4991 12.1598 21.5464 12.302C21.3933 12.6191 21.2984 12.951 21.262 13.2976C22.8766 13.2503 24.4884 13.2977 26.0975 13.4398C26.2981 14.6174 26.464 15.8025 26.5953 16.9954C26.6213 16.5879 26.6925 16.2087 26.8086 15.8576Z" fill="#3787C2"/>
<path fill-rule="evenodd" clip-rule="evenodd" d="M10.7377 11.7334C10.9673 12.0116 11.2043 12.296 11.4488 12.5867C11.2216 12.8993 11.0319 13.2312 10.8799 13.5823C10.5615 14.2908 10.4193 15.0495 10.4533 15.8578C10.3991 16.6119 10.5414 17.323 10.8799 17.9912C10.7921 17.9754 10.721 17.928 10.6666 17.849C10.4968 18.5817 10.3309 18.5817 10.1688 17.849C8.59161 17.7594 7.05087 17.8542 5.54661 18.1334C5.42867 16.6193 5.35756 16.6193 5.33328 18.1334C5.10932 17.1706 5.0145 16.175 5.04884 15.1467C5.02024 14.3389 5.16246 13.5803 5.4755 12.8712C5.60407 12.972 5.65148 13.1142 5.61773 13.2978C7.13551 13.3215 8.65254 13.2978 10.1688 13.2267C10.3061 12.8749 10.3298 12.5193 10.2399 12.1601C10.477 12.3497 10.714 12.5393 10.9511 12.729C10.995 12.46 10.8764 12.2703 10.5955 12.1601C10.6847 12.0297 10.7321 11.8875 10.7377 11.7334Z" fill="#3686C0"/>
<path fill-rule="evenodd" clip-rule="evenodd" d="M21.2625 16.9956C21.3652 17.0551 21.4363 17.1498 21.4758 17.28C23.005 17.1397 24.5457 17.0923 26.0981 17.1378C26.0627 17.7007 26.1575 18.2221 26.3825 18.7023C26.3295 19.1395 26.2347 19.5661 26.0981 19.9823C25.6892 20.7507 25.2388 21.5092 24.747 22.2578C24.602 22.4266 24.4361 22.5689 24.2492 22.6845C23.3995 21.9553 22.5937 21.1968 21.8314 20.4089C21.3871 19.8932 20.9131 19.3955 20.4092 18.9156C20.5702 18.6646 20.7124 18.4039 20.8358 18.1334C21.0308 17.7869 21.1731 17.4076 21.2625 16.9956Z" fill="#2F7FBA"/>
<path fill-rule="evenodd" clip-rule="evenodd" d="M10.8797 17.9909C10.961 18.2004 11.0796 18.3901 11.2352 18.5598C11.3461 18.8282 11.3224 19.0653 11.1641 19.2709C10.0222 20.4238 8.86073 21.5615 7.67967 22.6842C6.41262 21.4304 5.63039 19.9135 5.33301 18.1331C5.35729 16.619 5.4284 16.619 5.54634 18.1331C7.0506 17.8539 8.59133 17.7591 10.1686 17.8487C10.3306 18.5814 10.4966 18.5814 10.6663 17.8487C10.7208 17.9278 10.7919 17.9751 10.8797 17.9909Z" fill="#2C7EB9"/>
<path fill-rule="evenodd" clip-rule="evenodd" d="M19.8395 20.8355C20.8351 21.8784 21.8306 22.9215 22.8262 23.9644C22.3766 23.8264 21.9737 23.5893 21.6173 23.2533C21.5452 23.466 21.6163 23.632 21.8306 23.751C17.801 23.8459 13.7714 23.8459 9.74174 23.751C9.99354 23.675 10.041 23.5563 9.88396 23.3955C9.67921 23.602 9.44216 23.7442 9.17285 23.8222C9.36248 23.5851 9.55212 23.3481 9.74174 23.111C10.5477 22.3999 11.3062 21.6415 12.0173 20.8355C12.257 20.6199 12.5178 20.4302 12.7995 20.2666C14.8977 21.5819 17.0073 21.5819 19.1284 20.2666C19.3682 20.4596 19.6051 20.6492 19.8395 20.8355Z" fill="#2279B6"/>
<path fill-rule="evenodd" clip-rule="evenodd" d="M12.4443 26.0977C13.214 26.139 13.9725 26.2575 14.7199 26.4532C15.5719 26.5242 16.4253 26.5479 17.2799 26.5243C15.6335 26.7958 14.0216 26.6536 12.4443 26.0977Z" fill="#48779D"/>
<path fill-rule="evenodd" clip-rule="evenodd" d="M22.8268 23.9645C22.6273 24.3309 22.3428 24.6391 21.9735 24.889C21.339 25.1825 20.7228 25.5145 20.1246 25.8845C19.2138 26.2705 18.2656 26.4839 17.2802 26.5245C16.4255 26.5481 15.5722 26.5244 14.7202 26.4534C13.9728 26.2577 13.2142 26.1392 12.4446 26.0979C12.1201 25.9713 11.7882 25.9477 11.449 26.0268C10.5956 26.6434 9.69486 27.1886 8.74682 27.6623C8.62852 26.4248 8.69963 25.1922 8.96015 23.9645C9.01457 23.8855 9.08568 23.8381 9.17349 23.8223C9.4428 23.7444 9.67984 23.6021 9.8846 23.3956C10.0416 23.5565 9.99418 23.6751 9.74238 23.7512C13.772 23.8461 17.8017 23.8461 21.8313 23.7512C21.6169 23.6322 21.5458 23.4662 21.6179 23.2534C21.9743 23.5895 22.3773 23.8266 22.8268 23.9645Z" fill="#1B75B5"/>
</g>
<defs>
<clipPath id="clip0_42_75">
<rect width="32" height="32" fill="white"/>
</clipPath>
</defs>
</svg>
