<svg width="32" height="32" viewBox="0 0 32 32" fill="none" xmlns="http://www.w3.org/2000/svg">
    <path opacity="0.998" fill-rule="evenodd" clip-rule="evenodd"
        d="M4.57585 2.87628C12.1783 2.87286 19.7808 2.87628 27.3833 2.88652C29.1933 3.07934 30.5071 3.98359 31.3244 5.59925C31.5768 6.15201 31.7202 6.73209 31.7544 7.33949C31.7681 14.396 31.7681 21.4525 31.7544 28.509C31.6542 29.0323 31.3506 29.3769 30.8433 29.5429C30.6181 29.5567 30.3929 29.5567 30.1677 29.5429C30.0538 29.5065 29.9441 29.4585 29.8401 29.3996C29.6906 29.2842 29.5471 29.1612 29.4101 29.0311C28.1516 27.8117 26.889 26.5968 25.6226 25.3868C25.0204 24.8402 24.3106 24.5536 23.4933 24.527C17.1738 24.5202 10.8544 24.5132 4.5349 24.5065C2.88607 24.3327 1.64061 23.5377 0.7985 22.1213C0.492258 21.5575 0.301179 20.957 0.225243 20.3197C0.201618 18.1018 0.191381 15.8838 0.194533 13.6658C0.19136 11.4543 0.201596 9.24318 0.225243 7.03239C0.49365 5.29063 1.41835 4.03833 2.9994 3.27551C3.5055 3.05543 4.03099 2.92235 4.57585 2.87628ZM7.9335 8.83406C8.8062 8.76635 9.52617 9.05982 10.0934 9.71441C10.6754 10.5014 10.7778 11.3476 10.4005 12.2531C9.94729 13.1285 9.22388 13.5858 8.23036 13.6248C7.16982 13.5804 6.42595 13.0754 5.99876 12.1098C5.65454 11.088 5.86269 10.1974 6.6232 9.43802C7.0031 9.11239 7.43986 8.91106 7.9335 8.83406ZM23.3705 8.83406C24.4259 8.77307 25.2278 9.18935 25.7761 10.0829C26.2513 11.0787 26.1387 12 25.4383 12.8469C24.7098 13.5749 23.85 13.7899 22.8586 13.4918C21.8374 13.0634 21.3051 12.2922 21.2617 11.1783C21.3389 10.1084 21.8712 9.37136 22.8586 8.96713C23.03 8.91595 23.2005 8.87158 23.3705 8.83406ZM12.7243 16.4297C14.8467 16.4263 16.9691 16.4297 19.0915 16.4399C19.4654 16.5479 19.6394 16.797 19.6136 17.1872C19.2624 18.6371 18.3787 19.596 16.9623 20.0637C15.3124 20.4601 13.9509 20.0063 12.8778 18.7023C12.5199 18.2188 12.2912 17.6797 12.192 17.0849C12.2148 16.7382 12.3922 16.5198 12.7243 16.4297Z"
        fill="#42B75C" />
</svg>