<svg width="32" height="32" viewBox="0 0 32 32" fill="none" xmlns="http://www.w3.org/2000/svg">
    <rect width="32" height="32" rx="10" fill="black" />
    <path
        d="M16.8607 19.8702L12.0412 27.9401C11.9601 28.0997 11.8535 28.2292 11.7302 28.3175C11.607 28.4059 11.4707 28.4507 11.3329 28.4481C11.2236 28.4516 11.115 28.424 11.0133 28.3669C10.9116 28.3098 10.8188 28.2244 10.7403 28.1156C10.6619 28.0067 10.5993 27.8767 10.5562 27.7329C10.5131 27.5892 10.4903 27.4346 10.4893 27.2782C10.489 26.9457 10.5765 26.6254 10.7342 26.3814L15.7715 18.2329L10.9249 10.2796C10.7447 10.0341 10.6375 9.69872 10.6256 9.34304C10.6276 9.18358 10.6518 9.02631 10.697 8.88054C10.7422 8.73476 10.8073 8.60344 10.8886 8.49436C10.9698 8.38528 11.0655 8.30065 11.17 8.24548C11.2745 8.19031 11.3857 8.16572 11.4969 8.17318C11.6302 8.17595 11.7612 8.22333 11.8793 8.31153C11.9975 8.39973 12.0997 8.5263 12.1776 8.68112L16.8607 16.5558L21.5437 8.68112C21.6217 8.5263 21.7238 8.39973 21.842 8.31153C21.9602 8.22333 22.0911 8.17595 22.2244 8.17318C22.3357 8.16572 22.4468 8.19031 22.5513 8.24548C22.6558 8.30065 22.7515 8.38528 22.8328 8.49436C22.914 8.60344 22.9792 8.73476 23.0243 8.88054C23.0695 9.02631 23.0938 9.18358 23.0957 9.34304C23.0838 9.69872 22.9766 10.0341 22.7964 10.2796L17.9498 18.2329L22.9871 26.3814C23.1448 26.6254 23.2324 26.9457 23.2321 27.2782C23.231 27.4346 23.2083 27.5892 23.1652 27.7329C23.1221 27.8767 23.0595 28.0067 22.981 28.1156C22.9025 28.2244 22.8097 28.3098 22.708 28.3669C22.6063 28.424 22.4977 28.4516 22.3885 28.4481C22.2506 28.4507 22.1144 28.4059 21.9911 28.3175C21.8679 28.2292 21.7612 28.0997 21.6801 27.9401L16.8607 19.8702Z"
        fill="#FAFAFA" />
    <path
        d="M17.4424 6.5633C18.2105 6.5633 18.8331 5.67176 18.8331 4.57199C18.8331 3.47223 18.2105 2.58069 17.4424 2.58069C16.6744 2.58069 16.0518 3.47223 16.0518 4.57199C16.0518 5.67176 16.6744 6.5633 17.4424 6.5633Z"
        fill="#FAFAFA" />
</svg>