<svg width="32" height="32" viewBox="0 0 32 32" fill="none" xmlns="http://www.w3.org/2000/svg">
<g clip-path="url(#clip0_5987_863)">
<mask id="mask0_5987_863" style="mask-type:luminance" maskUnits="userSpaceOnUse" x="0" y="0" width="32" height="32">
<path d="M31.5147 0.484375H0.484375V31.5147H31.5147V0.484375Z" fill="white"/>
</mask>
<g mask="url(#mask0_5987_863)">
<path fill-rule="evenodd" clip-rule="evenodd" d="M13.7239 14.1615C13.0394 15.4281 12.0645 16.045 10.6128 16.045C8.25855 16.045 7.02441 14.3047 7.02441 11.97C7.02441 9.60226 8.32075 7.92813 10.6024 7.92813C11.8985 7.92813 12.946 8.39073 13.6929 9.6352L12.2512 10.4062C11.9297 9.72354 11.3386 9.32682 10.6128 9.32682C9.27493 9.32682 8.63193 10.4943 8.63193 11.97C8.63193 13.4348 9.337 14.6463 10.6541 14.6463C11.4319 14.6463 11.9919 14.2939 12.3446 13.4128L13.7239 14.1615Z" fill="#00B140"/>
<path fill-rule="evenodd" clip-rule="evenodd" d="M14.4004 15.8691H15.8107V10.3406H14.4004V15.8691Z" fill="#00B140"/>
<path fill-rule="evenodd" clip-rule="evenodd" d="M17.1669 11.3098H16.3164V10.3407H16.4825C17.4366 10.3407 17.5399 9.66429 17.6855 8.70312H18.5669V10.3407H19.8193L20.1058 11.3098H18.5669V14.2064C18.5669 14.6469 18.6811 14.8892 19.1166 14.8892C19.2515 14.8892 19.4277 14.867 19.6144 14.7791L19.7181 15.8363C19.3758 15.9904 19.0233 16.0457 18.6602 16.0457C17.478 16.0457 17.1669 15.3516 17.1669 14.4046V11.3098Z" fill="#00B140"/>
<path fill-rule="evenodd" clip-rule="evenodd" d="M20.1036 16.8174C20.3213 16.8944 20.5806 16.9495 20.7881 16.9495C21.1485 16.9495 21.3097 16.8016 21.4696 16.2748C21.4753 16.256 21.536 16.0704 21.5417 16.0507L19.7021 10.3406H21.2164L22.2534 14.3714L23.2803 10.3406H24.7942L23.0624 15.682C23.0382 15.7563 22.9597 15.9954 22.9364 16.0664C22.5192 17.3415 22.2065 18.0908 20.8314 18.0908C20.5928 18.0908 20.1243 18.0508 19.9168 17.9848L20.1036 16.8174Z" fill="#00B140"/>
<path fill-rule="evenodd" clip-rule="evenodd" d="M18.3432 22.2978L17.441 22.4739C16.8187 22.5951 16.5593 22.8263 16.5593 23.2559C16.5593 23.6745 16.8187 24.0047 17.2648 24.0047C17.8559 24.0047 18.3432 23.4871 18.3432 22.6612V22.2978ZM18.6205 24.897C18.5375 24.6986 18.4857 24.3794 18.465 24.1149C18.2471 24.6546 17.739 25.0732 16.9405 25.0732C15.8723 25.0732 15.25 24.3351 15.25 23.3109C15.25 22.1767 16.0487 21.7251 17.2309 21.5377L18.382 21.3508V21.1414C18.382 20.4915 18.0501 20.3484 17.5833 20.3484C16.8887 20.3484 16.4221 20.6679 16.0694 21.0533L15.3954 20.0623C15.8205 19.6217 16.6191 19.2031 17.7597 19.2031C19.2116 19.2031 19.8027 19.8638 19.8027 21.2516V23.322C19.8027 24.159 19.8236 24.4453 19.9998 24.897H18.6205Z" fill="#00B140"/>
<path fill-rule="evenodd" clip-rule="evenodd" d="M20.8018 24.8964H22.2121V19.3677H20.8018V24.8964Z" fill="#00B140"/>
<path fill-rule="evenodd" clip-rule="evenodd" d="M15.9324 8.68972C15.9324 9.17467 15.5622 9.56799 15.1053 9.56799C14.6486 9.56799 14.2783 9.17467 14.2783 8.68972C14.2783 8.20457 14.6486 7.81146 15.1053 7.81146C15.5622 7.81146 15.9324 8.20457 15.9324 8.68972Z" fill="#00B140"/>
<path fill-rule="evenodd" clip-rule="evenodd" d="M23.1973 24.896H24.6076V17.1208H23.1973V24.896Z" fill="#00B140"/>
<path fill-rule="evenodd" clip-rule="evenodd" d="M7.47949 17.127H9.24807C9.8584 18.7305 10.7168 21.059 11.0271 22.0146C11.3269 21.059 12.1855 18.7525 12.8059 17.127H14.5229V24.8812H13.106C13.106 23.014 13.106 20.5428 13.1576 19.3786C12.7527 20.5711 11.8182 22.8825 11.0942 24.7935H10.9596C10.2151 22.8605 9.21045 20.4853 8.8344 19.3786C8.89646 20.5537 8.88618 23.0579 8.89646 24.8812H7.47949V17.127Z" fill="#00B140"/>
<path fill-rule="evenodd" clip-rule="evenodd" d="M4.75897 28.5411H27.2797V4.62547H4.75897V28.5411ZM8.95904 0.609375L8.82731 3.25202L2.19357 3.68972L2.60287 10.6793L0.484375 10.9127L2.19138 28.3684L3.62889 28.2098L3.8036 31.1924L11.107 30.7101L28.7734 31.4668L28.9931 25.6847L30.2576 25.7559L31.4479 1.87375L8.95904 0.609375Z" fill="#FC4C02"/>
</g>
</g>
<defs>
<clipPath id="clip0_5987_863">
<rect width="32" height="32" fill="white"/>
</clipPath>
</defs>
</svg>
