<svg width="32" height="32" viewBox="0 0 32 32" fill="none" xmlns="http://www.w3.org/2000/svg">
<path opacity="0.925" fill-rule="evenodd" clip-rule="evenodd" d="M4.65497 2.90921C8.94821 3.89212 12.8272 5.83153 16.2913 8.72736C13.1885 7.95162 10.0851 7.17583 6.98224 6.40009C6.27941 5.97297 5.50384 5.77905 4.65497 5.81827C4.2669 5.81827 4.07315 6.01225 4.07315 6.40009C4.80974 9.96652 4.80974 13.4574 4.07315 16.8728C3.10617 13.3887 2.13628 9.8978 1.16406 6.40009C1.17046 4.0663 2.3341 2.90266 4.65497 2.90921Z" fill="#166188"/>
<path opacity="0.88" fill-rule="evenodd" clip-rule="evenodd" d="M5.81793 0.582031C6.78782 0.582031 7.75713 0.582031 8.72702 0.582031C11.9468 2.67598 15.244 4.61538 18.6179 6.40021C20.9516 8.53933 23.667 10.0908 26.7634 11.0548C26.7634 11.4427 26.9571 11.6366 27.3452 11.6366C26.9019 12.662 26.1257 13.2438 25.0179 13.382C22.1187 11.8472 19.2096 10.2957 16.2907 8.72749C12.8265 5.8316 8.94753 3.89222 4.6543 2.9093C4.78986 2.00061 5.17793 1.22486 5.81793 0.582031Z" fill="#82C45A"/>
<path opacity="0.965" fill-rule="evenodd" clip-rule="evenodd" d="M18.6182 6.40039C22.1993 6.90774 25.6902 7.78046 29.0909 9.01857C29.6279 10.2059 29.8217 11.4666 29.6727 12.8004C28.7028 13.3822 27.9273 14.1579 27.3454 15.1277C27.3454 15.3216 27.3454 15.5156 27.3454 15.7095C24.5166 17.6079 21.6075 19.3534 18.6182 20.9458C20.6132 18.3167 22.7467 15.7955 25.0182 13.3822C26.1259 13.244 26.9021 12.6622 27.3454 11.6368C26.9574 11.6368 26.7636 11.4428 26.7636 11.0549C23.6672 10.091 20.9518 8.5395 18.6182 6.40039Z" fill="#165F89"/>
<path opacity="0.785" fill-rule="evenodd" clip-rule="evenodd" d="M4.65415 5.81843C5.50302 5.77919 6.27858 5.97312 6.98141 6.40024C6.98141 9.89115 6.98141 13.3821 6.98141 16.873C6.98141 20.17 6.98141 23.4669 6.98141 26.7639C6.98141 27.1518 7.17516 27.3457 7.56323 27.3457C8.16658 28.1779 8.55465 29.1476 8.72687 30.2548C6.58461 30.7055 5.13008 29.9298 4.36324 27.9275C4.07233 24.2477 3.97575 20.5629 4.07233 16.873C4.80891 13.4576 4.80891 9.96667 4.07233 6.40024C4.46041 6.40024 4.65415 6.20632 4.65415 5.81843Z" fill="#7EC25A"/>
<path opacity="0.854" fill-rule="evenodd" clip-rule="evenodd" d="M29.6731 12.7998C29.6731 13.1877 29.8668 13.3816 30.2549 13.3816C30.2549 14.5453 30.2549 15.7089 30.2549 16.8725C26.668 19.3453 22.9833 21.6725 19.2003 23.8543C16.5426 24.9614 14.021 26.3189 11.6367 27.9271C11.2486 27.9271 11.0549 28.121 11.0549 28.5089C10.0582 27.8483 9.67015 26.8786 9.89124 25.5998C12.7904 24.065 15.6995 22.5134 18.6185 20.9453C21.6079 19.3528 24.517 17.6073 27.3458 15.7089C28.1214 15.515 28.1214 15.321 27.3458 15.1271C27.9276 14.1574 28.7032 13.3816 29.6731 12.7998Z" fill="#83C659"/>
<path opacity="0.919" fill-rule="evenodd" clip-rule="evenodd" d="M6.98145 16.873C8.04966 19.6897 9.01955 22.5988 9.89054 25.6003C9.66945 26.8792 10.0575 27.8488 11.0542 28.5094C11.4422 28.5094 11.636 28.3155 11.636 27.9276C14.0203 26.3194 16.5419 24.9619 19.1996 23.8549C17.2849 26.5468 15.1513 29.068 12.7996 31.4185C11.636 31.4185 10.4724 31.4185 9.30872 31.4185C9.11497 31.0306 8.92065 30.6428 8.7269 30.2549C8.55468 29.1477 8.16661 28.1779 7.56326 27.3458C7.17519 27.3458 6.98145 27.1519 6.98145 26.764C6.98145 23.467 6.98145 20.17 6.98145 16.873Z" fill="#135E8A"/>
</svg>
