<svg width="32" height="32" viewBox="0 0 32 32" fill="none" xmlns="http://www.w3.org/2000/svg">
<g clip-path="url(#clip0_44_1894)">
<path fill-rule="evenodd" clip-rule="evenodd" d="M-0.0712891 -0.0712891C10.548 -0.0712891 21.1672 -0.0712891 31.7865 -0.0712891C31.7865 10.548 31.7865 21.1672 31.7865 31.7865C21.1672 31.7865 10.548 31.7865 -0.0712891 31.7865C-0.0712891 21.1672 -0.0712891 10.548 -0.0712891 -0.0712891Z" fill="#445CC3"/>
<path fill-rule="evenodd" clip-rule="evenodd" d="M13.5825 7.3248C14.7943 7.11852 15.8609 7.40296 16.7825 8.17813C17.5984 9.82404 17.5984 11.4833 16.7825 13.1559C16.1883 13.9043 15.4772 14.0465 14.6492 13.5826C14.5381 13.4078 14.467 13.2182 14.4359 13.0137C14.8126 12.4013 15.0734 11.7376 15.2181 11.0226C15.5399 9.69071 15.0421 9.14553 13.7247 9.38702C12.5284 10.2333 11.6514 11.3474 11.0936 12.7292C10.0905 14.8546 9.75866 17.0827 10.0981 19.4137C11.0727 22.4373 12.9453 23.1248 15.7159 21.4759C16.3004 21.0764 16.8455 20.6261 17.3514 20.1248C16.8434 16.3598 17.5545 12.8517 19.4847 9.60035C20.0494 8.89274 20.7367 8.34755 21.547 7.9648C23.0797 7.53369 24.0515 8.07889 24.4625 9.60035C24.5168 12.0466 23.9006 14.3221 22.6136 16.427C21.7757 17.7363 20.9459 19.0399 20.1247 20.3381C20.265 20.9279 20.6443 21.236 21.2625 21.2626C21.7088 21.2102 22.1355 21.0918 22.5425 20.907C22.8797 20.5222 23.2589 20.1904 23.6803 19.9115C24.3321 19.7786 24.5454 20.0395 24.3203 20.6937C23.1444 23.0126 21.3666 23.7 18.987 22.7559C18.6724 22.4654 18.3879 22.1573 18.1336 21.8315C17.1404 22.7056 16.0499 23.4403 14.8625 24.0359C11.0955 25.317 8.65398 24.0607 7.53808 20.267C6.83006 15.7071 8.08636 11.796 11.307 8.53369C12.0156 8.01372 12.7741 7.61077 13.5825 7.3248Z" fill="#F5F5F5"/>
<path fill-rule="evenodd" clip-rule="evenodd" d="M21.9733 9.74229C22.2071 9.71193 22.4204 9.75933 22.6133 9.88451C22.7419 11.8826 22.2678 13.7315 21.1911 15.4312C20.7049 16.2613 20.1836 17.0673 19.6266 17.849C19.5332 14.8831 20.3154 12.1809 21.9733 9.74229Z" fill="#455DC3"/>
<path fill-rule="evenodd" clip-rule="evenodd" d="M31.7865 -0.0712891C31.8338 -0.0712891 31.8814 -0.0712891 31.9287 -0.0712891C31.9287 10.5954 31.9287 21.262 31.9287 31.9287C21.262 31.9287 10.5954 31.9287 -0.0712891 31.9287C-0.0712891 31.8814 -0.0712891 31.8338 -0.0712891 31.7865C10.548 31.7865 21.1672 31.7865 31.7865 31.7865C31.7865 21.1672 31.7865 10.548 31.7865 -0.0712891Z" fill="#5167C9"/>
</g>
<defs>
<clipPath id="clip0_44_1894">
<rect width="32" height="32" fill="white"/>
</clipPath>
</defs>
</svg>
