<svg width="32" height="32" viewBox="0 0 32 32" fill="none" xmlns="http://www.w3.org/2000/svg">
<rect width="32" height="32" fill="#1A2B57"/>
<path d="M20.7983 27.1695L20.6931 24.1965C19.3913 24.7344 17.4444 24.6903 17.4444 24.6903C16.8402 24.6903 16.2699 24.5836 15.7472 24.3718C15.2227 24.16 14.7611 23.8598 14.3724 23.4788C13.982 23.0964 13.6714 22.6377 13.4473 22.115C13.2233 21.5924 13.1079 20.9006 13.1079 20.2682C13.1079 19.6358 13.2216 18.8663 13.4473 18.336C13.6714 17.8088 13.9854 17.347 14.3825 16.9646C14.778 16.5836 15.2516 16.2834 15.7862 16.0716C15.7947 16.0686 16.6807 15.7501 17.5565 15.7501C17.5565 15.7501 18.9941 15.648 20.6897 16.2179L20.8 13.2526C19.5135 12.8061 17.6838 12.8 17.6838 12.8C16.4838 12.8183 15.3687 12.992 14.3707 13.3135C13.2963 13.661 12.3526 14.1654 11.5685 14.813C10.7843 15.4621 10.1631 16.2575 9.7252 17.1779C9.2873 18.0983 9.06665 19.1375 9.06665 20.2666C9.06665 21.3958 9.28899 22.4365 9.7252 23.3554C10.1631 24.2773 10.7843 25.0727 11.5685 25.7203C12.3526 26.368 13.2946 26.8723 14.3707 27.2198C15.3704 27.5413 16.4838 27.715 17.6872 27.7333C17.6872 27.7333 19.4897 27.747 20.8 27.168L20.7983 27.1695Z" fill="white"/>
<path d="M30.6593 12.2893L15.8448 4.8L1.33847 12.2893C1.24465 12.3439 1.06665 12.6515 1.06665 13.4122V18.1333L2.17163 18.1135V15.2395C2.17163 15.1254 2.20648 15.0923 2.21452 15.0873L15.8448 8.0395L29.786 15.0873C29.8015 15.0956 29.8283 15.1287 29.8283 15.2395V18.1135L30.9333 18.1333V13.4122C30.9333 12.6499 30.7553 12.3439 30.6599 12.2877L30.6593 12.2893Z" fill="white"/>
</svg>
