<svg width="32" height="32" viewBox="0 0 32 32" fill="none" xmlns="http://www.w3.org/2000/svg">
<g clip-path="url(#clip0_10_602)">
<path fill-rule="evenodd" clip-rule="evenodd" d="M-0.0266113 -0.0266113C10.6401 -0.0266113 21.3067 -0.0266113 31.9734 -0.0266113C31.9734 4.70228 31.9734 9.43115 31.9734 14.1601C31.2445 14.1601 30.5156 14.1601 29.7867 14.1601C29.769 14.1601 29.7511 14.1601 29.7334 14.1601C29.7155 16.054 29.6622 17.9385 29.5734 19.8134C27.9922 18.8968 26.3566 18.7901 24.6667 19.4934C24.524 18.8962 24.2929 18.3362 23.9734 17.8134C25.8467 16.939 26.9044 15.4724 27.1467 13.4134C27.1734 9.96454 27.1823 6.51568 27.1734 3.06672C26.4445 3.06672 25.7156 3.06672 24.9867 3.06672C24.9956 6.51568 24.9867 9.96454 24.9601 13.4134C24.5932 15.061 23.571 15.8699 21.8934 15.8401C20.8343 15.461 19.7499 15.3543 18.6401 15.5201C16.6334 16.0333 15.3179 17.2778 14.6934 19.2534C13.6977 19.206 12.7377 19.366 11.8134 19.7334C10.5691 20.3556 9.77798 21.3422 9.44006 22.6934C9.41339 25.0044 9.40448 27.3155 9.41339 29.6267C10.1423 29.6267 10.8711 29.6267 11.6001 29.6267C11.5911 27.9733 11.6001 26.3199 11.6267 24.6667C11.6667 24.1642 11.7379 23.6664 11.8401 23.1734C12.101 22.4147 12.6254 21.9613 13.4134 21.8134C13.834 21.7106 14.2607 21.6661 14.6934 21.6801C15.2993 23.8414 16.7037 25.1481 18.9067 25.6001C19.9148 25.7389 20.8748 25.5878 21.7867 25.1467C22.2061 26.8724 23.2194 28.108 24.8267 28.8534C25.241 29.0103 25.6677 29.117 26.1067 29.1734C27.2057 29.3015 28.2724 29.1771 29.3067 28.8001C30.6198 28.1085 31.4286 27.033 31.7334 25.5734C31.8379 24.8748 31.9179 24.1815 31.9734 23.4934C31.9734 26.3201 31.9734 29.1467 31.9734 31.9734C21.3067 31.9734 10.6401 31.9734 -0.0266113 31.9734C-0.0266113 23.9378 -0.0266113 15.9023 -0.0266113 7.86672C0.223856 9.97606 1.32608 11.4605 3.28006 12.3201C4.45387 12.6895 5.60054 12.6273 6.72006 12.1334C6.82971 12.5364 6.9719 12.9276 7.14672 13.3067C7.1823 15.3511 7.1823 17.3956 7.14672 19.4401C6.90203 20.5641 6.19979 21.1685 5.04006 21.2534C3.87188 21.1252 3.16966 20.4852 2.93339 19.3334C2.90672 17.3602 2.89783 15.3868 2.90672 13.4134C2.18727 13.3603 1.45838 13.3425 0.720055 13.3601C0.702354 15.5025 0.72013 17.6358 0.773389 19.7601C1.07552 21.3694 1.98218 22.4983 3.49339 23.1467C3.66798 23.2108 3.84576 23.2642 4.02672 23.3067C4.77503 23.3503 5.52171 23.3325 6.26672 23.2534C8.29366 22.8259 9.36923 21.5725 9.49339 19.4934C9.49435 18.1956 9.49435 16.8978 9.49339 15.6001C11.8983 16.6007 13.9783 16.1385 15.7334 14.2134C16.5015 13.0938 16.8748 11.8494 16.8534 10.4801C16.8919 9.29744 16.883 8.1152 16.8267 6.93339C16.8436 5.79702 17.3769 5.01481 18.4267 4.58672C20.0997 4.27137 21.122 4.93803 21.4934 6.58672C21.5201 8.4711 21.529 10.3555 21.5201 12.2401C22.249 12.2401 22.9778 12.2401 23.7067 12.2401C23.7156 10.2311 23.7067 8.22219 23.6801 6.21339C23.3039 4.13054 22.0861 2.84165 20.0267 2.34672C17.6541 2.04353 15.9919 2.97686 15.0401 5.14672C14.855 5.69147 14.695 6.24256 14.5601 6.80006C13.4602 6.02886 12.2425 5.75328 10.9067 5.97339C8.9463 6.36955 7.60406 7.49846 6.88006 9.36006C5.89755 10.4028 4.76868 10.6073 3.49339 9.97339C2.47119 9.18347 2.05341 8.14347 2.24006 6.85339C2.51714 5.4471 3.36158 4.66485 4.77339 4.50672C5.62544 4.53127 6.31878 4.87794 6.85339 5.54672C7.67099 5.57339 8.48875 5.5823 9.30672 5.57339C8.70246 3.94601 7.5647 2.88823 5.89339 2.40006C3.32024 2.01996 1.48024 3.00663 0.373389 5.36006C0.172587 5.86518 0.039254 6.38075 -0.0266113 6.90672C-0.0266113 4.59561 -0.0266113 2.2845 -0.0266113 -0.0266113Z" fill="#221F20"/>
<path fill-rule="evenodd" clip-rule="evenodd" d="M0.773389 19.76C0.773389 17.6444 0.773389 15.5289 0.773389 13.4133C1.4845 13.4133 2.19561 13.4133 2.90672 13.4133C2.89783 15.3868 2.90672 17.3601 2.93339 19.3333C3.16966 20.4852 3.87188 21.1252 5.04006 21.2533C6.19979 21.1685 6.90203 20.564 7.14672 19.44C7.1823 17.3956 7.1823 15.3511 7.14672 13.3066C6.9719 12.9275 6.82971 12.5364 6.72006 12.1333C5.60054 12.6272 4.45387 12.6895 3.28006 12.32C1.32608 11.4604 0.223856 9.97598 -0.0266113 7.86665C-0.0266113 7.54665 -0.0266113 7.22665 -0.0266113 6.90665C0.039254 6.38068 0.172587 5.8651 0.373389 5.35998C1.48024 3.00655 3.32024 2.01989 5.89339 2.39998C7.5647 2.88815 8.70246 3.94594 9.30672 5.57332C8.48875 5.58222 7.67099 5.57332 6.85339 5.54665C6.31878 4.87787 5.62544 4.5312 4.77339 4.50665C3.36158 4.66478 2.51714 5.44702 2.24006 6.85332C2.05341 8.1434 2.47119 9.1834 3.49339 9.97332C4.76868 10.6072 5.89755 10.4028 6.88006 9.35998C7.60406 7.49838 8.9463 6.36948 10.9067 5.97332C12.2425 5.75321 13.4602 6.02878 14.5601 6.79998C14.695 6.24249 14.855 5.6914 15.0401 5.14665C15.9919 2.97679 17.6541 2.04346 20.0267 2.34665C22.0861 2.84158 23.3039 4.13047 23.6801 6.21332C23.7067 8.22212 23.7156 10.231 23.7067 12.24C22.9778 12.24 22.249 12.24 21.5201 12.24C21.529 10.3555 21.5201 8.47102 21.4934 6.58665C21.122 4.93796 20.0997 4.2713 18.4267 4.58665C17.3769 5.01474 16.8436 5.79694 16.8267 6.93332C16.883 8.11513 16.8919 9.29737 16.8534 10.48C16.8748 11.8493 16.5015 13.0937 15.7334 14.2133C13.9783 16.1384 11.8983 16.6006 9.49339 15.6C9.49435 16.8977 9.49435 18.1955 9.49339 19.4933C9.36923 21.5725 8.29366 22.8258 6.26672 23.2533C5.52171 23.3325 4.77503 23.3502 4.02672 23.3066C3.84576 23.2641 3.66798 23.2108 3.49339 23.1466C1.98218 22.4982 1.07552 21.3693 0.773389 19.76Z" fill="#E1D4BB"/>
<path opacity="0.999" fill-rule="evenodd" clip-rule="evenodd" d="M29.5733 19.8133C29.591 19.8666 29.6266 19.9022 29.6799 19.92C29.6831 19.9489 29.7009 19.9667 29.7333 19.9733C29.7866 18.0359 29.8043 16.0981 29.7866 14.16C30.5155 14.16 31.2443 14.16 31.9733 14.16C31.9733 17.2711 31.9733 20.3822 31.9733 23.4933C31.9178 24.1814 31.8378 24.8748 31.7333 25.5733C31.4285 27.0329 30.6197 28.1085 29.3066 28.8C28.2722 29.177 27.2056 29.3014 26.1066 29.1733C25.6675 29.1169 25.2409 29.0102 24.8266 28.8533C23.2193 28.1079 22.2059 26.8724 21.7866 25.1466C20.8747 25.5878 19.9147 25.7389 18.9066 25.6C16.7036 25.148 15.2991 23.8413 14.6933 21.68C14.2606 21.6661 13.8339 21.7105 13.4133 21.8133C12.6253 21.9613 12.1008 22.4146 11.8399 23.1733C11.7377 23.6663 11.6666 24.1641 11.6266 24.6666C11.5999 26.3199 11.591 27.9732 11.5999 29.6266C10.871 29.6266 10.1422 29.6266 9.41325 29.6266C9.40435 27.3154 9.41325 25.0044 9.43992 22.6933C9.77784 21.3422 10.5689 20.3555 11.8133 19.7333C12.7376 19.3659 13.6976 19.2059 14.6933 19.2533C15.3177 17.2777 16.6333 16.0333 18.6399 15.52C19.7497 15.3543 20.8342 15.4609 21.8933 15.84C23.5709 15.8698 24.5931 15.0609 24.9599 13.4133C24.9866 9.96446 24.9955 6.51561 24.9866 3.06665C25.7155 3.06665 26.4443 3.06665 27.1733 3.06665C27.1822 6.51561 27.1733 9.96446 27.1466 13.4133C26.9043 15.4723 25.8465 16.939 23.9733 17.8133C24.2928 18.3361 24.5239 18.8961 24.6666 19.4933C26.3565 18.7901 27.992 18.8967 29.5733 19.8133Z" fill="#E1D4BB"/>
<path fill-rule="evenodd" clip-rule="evenodd" d="M11.3334 8.13335C12.818 8.06423 13.858 8.70423 14.4534 10.0533C14.8467 11.5859 14.3756 12.7681 13.04 13.6C11.5628 14.2221 10.3272 13.9111 9.33338 12.6667C8.59813 11.423 8.66922 10.2319 9.54672 9.09335C10.0529 8.59356 10.6485 8.27356 11.3334 8.13335Z" fill="#221E20"/>
<path opacity="0.953" fill-rule="evenodd" clip-rule="evenodd" d="M2.90667 13.4134C2.19556 13.4134 1.48445 13.4134 0.773336 13.4134C0.773336 15.529 0.773336 17.6445 0.773336 19.7601C0.720078 17.6358 0.702302 15.5025 0.720003 13.3601C1.45832 13.3425 2.18721 13.3603 2.90667 13.4134Z" fill="#CBBEA8"/>
<path fill-rule="evenodd" clip-rule="evenodd" d="M29.7332 14.16C29.7509 16.0892 29.7331 18.0092 29.6799 19.92C29.6266 19.9023 29.591 19.8667 29.5732 19.8134C29.662 17.9384 29.7154 16.054 29.7332 14.16Z" fill="#010101"/>
<path fill-rule="evenodd" clip-rule="evenodd" d="M29.7333 14.16C29.751 14.16 29.7688 14.16 29.7866 14.16C29.8044 16.0981 29.7866 18.0359 29.7333 19.9734C29.7009 19.9668 29.6831 19.949 29.6799 19.92C29.7332 18.0092 29.751 16.0892 29.7333 14.16Z" fill="#847C6E"/>
<path fill-rule="evenodd" clip-rule="evenodd" d="M22.1599 19.1734C20.4801 19.2266 18.7913 19.2444 17.0933 19.2267C17.8552 17.9214 18.9752 17.4325 20.4533 17.76C21.0072 17.9234 21.4783 18.2167 21.8666 18.64C22.0063 18.795 22.1041 18.9728 22.1599 19.1734Z" fill="#231F21"/>
<path fill-rule="evenodd" clip-rule="evenodd" d="M22.1599 19.1733C22.1955 19.1733 22.2133 19.1911 22.2133 19.2267C20.5066 19.2978 18.7999 19.2978 17.0933 19.2267C18.7913 19.2444 20.4801 19.2266 22.1599 19.1733Z" fill="#000007"/>
<path opacity="0.925" fill-rule="evenodd" clip-rule="evenodd" d="M17.0934 19.2267C18.8 19.2978 20.5067 19.2978 22.2134 19.2267C22.2423 19.2299 22.2601 19.2476 22.2667 19.28C20.5245 19.3511 18.7823 19.3511 17.04 19.28C17.0467 19.2476 17.0644 19.2299 17.0934 19.2267Z" fill="#59524B"/>
<path fill-rule="evenodd" clip-rule="evenodd" d="M26.3733 21.2534C28.5692 21.2361 29.6803 22.3205 29.7066 24.5067C29.3229 26.2677 28.2296 27.1121 26.4266 27.04C24.8384 26.6783 24.0029 25.6828 23.9199 24.0534C24.0701 22.5259 24.8879 21.5926 26.3733 21.2534Z" fill="#221E20"/>
<path opacity="0.937" fill-rule="evenodd" clip-rule="evenodd" d="M22.3733 21.6267C20.5778 21.5556 18.7823 21.5556 16.9867 21.6267C16.9577 21.6235 16.94 21.6057 16.9333 21.5733C18.7644 21.5022 20.5956 21.5022 22.4267 21.5733C22.4201 21.6057 22.4023 21.6235 22.3733 21.6267Z" fill="#433E3A"/>
<path fill-rule="evenodd" clip-rule="evenodd" d="M22.3732 21.6267C22.2124 22.1183 21.928 22.5183 21.5199 22.8267C20.0811 23.7403 18.7389 23.6248 17.4932 22.48C17.2834 22.2205 17.1146 21.9361 16.9866 21.6267C18.7821 21.5556 20.5777 21.5556 22.3732 21.6267Z" fill="#221E20"/>
</g>
<defs>
<clipPath id="clip0_10_602">
<rect width="32" height="32" fill="white"/>
</clipPath>
</defs>
</svg>
