<svg width="32" height="32" viewBox="0 0 32 32" fill="none" xmlns="http://www.w3.org/2000/svg">
<g clip-path="url(#clip0_16_19)">
<path d="M0.581787 15.879C0.581787 7.43095 7.43037 0.581787 15.879 0.581787C24.3275 0.581787 31.1767 7.43037 31.1767 15.879V16.5306C31.1767 24.9786 24.3275 31.8277 15.879 31.8277C7.43095 31.8277 0.581787 24.9786 0.581787 16.5294V15.879Z" fill="#0068E5"/>
<path d="M18.7614 22.2039C18.5725 22.0753 18.4112 21.9103 18.287 21.7187C18.1627 21.527 18.0779 21.3123 18.0376 21.0875C17.9974 20.8626 18.0024 20.6319 18.0525 20.409C18.1025 20.1861 18.1966 19.9754 18.3291 19.7893L22.776 13.5417C23.3345 12.7575 24.4323 12.5666 25.23 13.1159C25.4189 13.2444 25.5802 13.4094 25.7045 13.6011C25.8288 13.7928 25.9135 14.0074 25.9538 14.2322C25.9941 14.4571 25.989 14.6878 25.939 14.9107C25.8889 15.1337 25.7948 15.3443 25.6623 15.5304L21.2155 21.7785C20.657 22.5623 19.5585 22.7531 18.7614 22.2039ZM12.9339 20.7121C12.745 20.5835 12.5836 20.4187 12.4593 20.227C12.335 20.0353 12.2502 19.8207 12.2099 19.5958C12.1695 19.3709 12.1745 19.1402 12.2245 18.9173C12.2745 18.6944 12.3685 18.4837 12.5011 18.2975L16.9484 12.0494C17.507 11.2651 18.6054 11.0748 19.4025 11.6235C19.5914 11.752 19.7528 11.917 19.8772 12.1086C20.0015 12.3003 20.0863 12.5149 20.1266 12.7398C20.1669 12.9646 20.162 13.1953 20.1119 13.4183C20.062 13.6412 19.9679 13.8519 19.8354 14.038L15.3886 20.2868C14.83 21.0705 13.7316 21.2613 12.9345 20.7115L12.9339 20.7121ZM7.10586 19.2197C6.91694 19.0912 6.75566 18.9262 6.63139 18.7345C6.50711 18.5428 6.42234 18.3282 6.38208 18.1033C6.34182 17.8784 6.34688 17.6478 6.39692 17.4249C6.44695 17.202 6.54103 16.9913 6.67357 16.8052L11.1204 10.557C11.679 9.77273 12.7774 9.58247 13.5745 10.1317C13.7634 10.2603 13.9247 10.4252 14.0489 10.6169C14.1732 10.8087 14.258 11.0232 14.2982 11.2481C14.3385 11.473 14.3334 11.7037 14.2834 11.9266C14.2334 12.1495 14.1393 12.3602 14.0067 12.5463L9.55997 18.7944C9.00142 19.5787 7.90295 19.7689 7.10586 19.2197Z" fill="#E8F2FE"/>
</g>
<defs>
<clipPath id="clip0_16_19">
<rect width="32" height="32" fill="white"/>
</clipPath>
</defs>
</svg>
