<svg width="32" height="32" viewBox="0 0 32 32" fill="none" xmlns="http://www.w3.org/2000/svg">
<path d="M26.2035 9.5687L24.5098 8.58813C24.6748 9.35217 24.8 10.1243 24.8846 10.9013C24.9517 11.5458 25.0522 12.9531 25.0522 13.0201V22.5325C25.0522 22.7359 24.81 23.1573 24.634 23.2586L16.4191 28.0152C16.3688 28.0449 16.2096 28.0914 16.0016 28.0914C15.7928 28.0914 15.6343 28.0449 15.5833 28.0152L7.36614 23.2586C7.19014 23.1565 6.94786 22.7359 6.94786 22.5318V13.0209C6.94786 12.8175 7.19167 12.3961 7.3669 12.2948L11.9292 9.65327C12.461 8.91804 13.0698 8.13556 13.7235 7.29597C14.4948 6.31495 15.2502 5.32155 15.9894 4.31616C15.2656 4.31769 14.5646 4.49445 14.0122 4.81369L5.79662 9.56947C4.64614 10.2354 3.80957 11.6876 3.80957 13.0209V22.5318C3.80957 23.8651 4.64538 25.3173 5.79662 25.9839L14.0122 30.7405C14.5669 31.062 15.2732 31.238 16.0008 31.238C16.7269 31.238 17.4332 31.062 17.9879 30.7398L26.2035 25.9839C27.3555 25.3173 28.1905 23.8658 28.1905 22.5325V13.0209C28.1905 11.6876 27.3555 10.2361 26.2035 9.5687Z" fill="#37BFA7"/>
<path d="M13.923 25.8636C16.3116 22.3208 17.6099 16.9547 18.2293 13.5894C16.6598 16.5227 13.9017 21.0484 10.5402 23.9116C10.5219 23.8819 10.5112 23.8934 13.923 25.8636Z" fill="#37BFA7"/>
<path d="M19.3768 0.957777C15.8797 6.96159 11.1818 11.1063 10.8854 13.8522C10.6088 16.4183 11.5223 18.5364 13.0202 19.8545C13.6138 19.1012 14.1789 18.3262 14.7147 17.5307C14.6873 16.9997 14.4892 12.8564 14.9212 11.6907C15.168 13.4896 15.6793 15.1498 15.869 15.7303C15.9315 15.6267 15.9947 15.5246 16.0541 15.4241C16.4344 14.7901 16.8017 14.1484 17.1559 13.4995C17.117 12.445 17.0088 8.73377 17.3715 7.88272C17.4675 9.10939 17.917 10.6698 18.1867 11.5201C18.5448 10.794 18.7414 10.3528 18.7452 10.3429L20.0145 7.47816L19.6808 10.5943C19.6793 10.6103 19.568 11.6382 19.2968 13.2031C20.0404 12.589 21.2206 11.5574 21.7943 10.7452C21.8439 11.7242 19.7113 14.3437 18.8915 15.3143C18.7381 16.0358 18.5704 16.7542 18.3886 17.469C19.0987 17.0682 20.7284 16.1067 21.6381 15.2328C21.5002 16.2302 18.6096 18.765 17.8446 19.4202C17.6522 20.0572 17.4434 20.689 17.2183 21.3151C18.9738 21.2138 20.8176 20.3155 22.3612 18.3932C26.9753 12.6477 20.5349 -1.03079 19.3768 0.957777Z" fill="#37BFA7"/>
</svg>
