<svg width="32" height="32" viewBox="0 0 32 32" fill="none" xmlns="http://www.w3.org/2000/svg">
<rect width="32" height="32" fill="#2056AE"/>
<mask id="mask0_17_161" style="mask-type:luminance" maskUnits="userSpaceOnUse" x="0" y="3" width="29" height="26">
<path d="M0.391846 3.65723H28.7288V28.4736H0.391846V3.65723Z" fill="white"/>
</mask>
<g mask="url(#mask0_17_161)">
<path fill-rule="evenodd" clip-rule="evenodd" d="M19.0647 28.4454C17.8288 28.4454 16.6377 28.2809 15.5208 27.9526C15.4164 27.9227 15.3569 27.8481 15.3274 27.7585C15.3125 27.6541 15.342 27.5645 15.4164 27.4899C15.5358 27.3854 15.6103 27.2362 15.6103 27.0572C15.6103 26.7439 15.3569 26.4753 15.0296 26.4753H9.68377C9.37097 26.4753 9.10266 26.2216 9.10266 25.893C9.10266 25.5798 9.35599 25.3111 9.68377 25.3111H11.3813C11.6941 25.3111 11.9619 25.0575 11.9619 24.7289C11.9619 24.4157 11.7086 24.147 11.3813 24.147H9.72827H9.71329H7.73296C7.42016 24.147 7.1523 23.8933 7.1523 23.5647C7.1523 23.2515 7.40518 22.9828 7.73296 22.9828H9.29652C9.60931 22.9828 9.87718 22.7292 9.87718 22.4006C9.87718 22.0874 9.62385 21.8187 9.29652 21.8187H6.88399C6.57163 21.8187 6.30333 21.565 6.30333 21.2368C6.30333 20.9232 6.55665 20.6545 6.88399 20.6545H11.3663C11.6791 20.6545 11.9469 20.4009 11.9469 20.0727C11.9469 19.7591 11.6941 19.4904 11.3663 19.4904H5.55877C5.24597 19.4904 4.97811 19.2367 4.97811 18.9085C4.97811 18.5949 5.23143 18.3262 5.55877 18.3262H7.52457C7.83737 18.3262 8.10523 18.0726 8.10523 17.7444C8.10523 17.4308 7.85191 17.1621 7.52457 17.1621H5.45479C5.142 17.1621 4.8737 16.9085 4.8737 16.5803C4.8737 16.2666 5.12702 15.998 5.45479 15.998H9.41547C9.72827 15.998 9.99613 15.7443 9.99613 15.4161C9.99613 15.1025 9.74324 14.8338 9.41547 14.8338H6.54167C6.22887 14.8338 5.96101 14.5802 5.96101 14.252C5.96101 13.9383 6.21389 13.6701 6.54167 13.6701H7.64352C7.95632 13.6701 8.22418 13.416 8.22418 13.0878C8.22418 12.7746 7.9713 12.506 7.64352 12.506H5.38035C5.06754 12.506 4.79924 12.2519 4.79924 11.9237C4.79924 11.6105 5.05256 11.3418 5.38035 11.3418H11.6196C11.932 11.3418 12.2003 11.0877 12.2003 10.7595C12.2003 10.4759 11.9914 10.2372 11.7236 10.1927H9.95163C9.92167 10.1927 9.89215 10.1927 9.84722 10.1777H9.47493C9.44543 10.1777 9.41547 10.1927 9.37097 10.1927H4.59086C4.27806 10.1927 4.0102 9.93859 4.0102 9.61039C4.0102 9.29719 4.26352 9.02854 4.59086 9.02854H9.37097C9.41547 9.02854 9.4604 9.02854 9.5049 9.0431H9.80272C9.84722 9.02854 9.89215 9.02854 9.93665 9.02854H10.2195C10.4728 8.96855 10.6517 8.74489 10.6517 8.46124C10.6517 8.1776 10.4429 7.93894 10.175 7.89395H9.51988C9.20708 7.89395 8.93922 7.6403 8.93922 7.3121C8.93922 6.99844 9.19209 6.7298 9.51988 6.7298H14.0317C14.3445 6.7298 14.6124 6.47615 14.6124 6.14795C14.6124 5.8643 14.4039 5.62565 14.136 5.58065H11.2473C10.9345 5.58065 10.6662 5.327 10.6662 4.9988C10.6662 4.68515 10.9195 4.4165 11.2473 4.4165H14.8508C16.2059 3.9242 17.6799 3.68555 19.273 3.68555C20.3749 3.68555 21.3878 3.7751 22.3108 3.9542C23.2192 4.1333 24.0532 4.38695 24.7978 4.70015C25.5423 5.01379 26.2273 5.40155 26.8675 5.84931C27.4332 6.25249 27.9544 6.68525 28.4461 7.16299C28.55 7.2671 28.55 7.43165 28.4605 7.53574L25.4829 10.9686C25.4379 11.0282 25.3784 11.0582 25.3039 11.0582C25.2295 11.0582 25.17 11.0432 25.1105 10.9986C24.2466 10.2522 23.3681 9.65539 22.4896 9.20763C21.5367 8.72989 20.4493 8.49124 19.2585 8.49124C18.2606 8.49124 17.3372 8.6849 16.5037 9.07309C15.6547 9.4613 14.9252 9.98359 14.3146 10.67C13.7038 11.3564 13.2277 12.1328 12.8849 13.0283C12.5426 13.9238 12.3787 14.8788 12.3787 15.8939V15.9684C12.3787 16.983 12.5426 17.9531 12.8849 18.8486C13.2277 19.7591 13.6893 20.5501 14.2851 21.2219C14.8807 21.9083 15.6103 22.4456 16.4587 22.8338C17.3077 23.2365 18.2307 23.4306 19.2585 23.4306C20.6132 23.4306 21.76 23.1769 22.6981 22.6843C23.5764 22.2215 24.4404 21.5951 25.3039 20.8187C25.4084 20.7141 25.5718 20.7291 25.6762 20.8336L28.6245 23.8188C28.7288 23.923 28.7288 24.0874 28.6245 24.1915C28.0738 24.7739 27.4931 25.2961 26.912 25.7589C26.2569 26.2812 25.5423 26.7289 24.7678 27.1022C23.9937 27.475 23.1297 27.7585 22.2068 27.9526C21.2539 28.3558 20.2115 28.4454 19.0647 28.4454ZM1.43422 14.9534H1.64261C1.9554 14.9534 2.22326 15.207 2.22326 15.5357C2.22326 15.8489 1.97039 16.1175 1.64261 16.1175H1.43422C1.12142 16.1175 0.853556 15.8639 0.853556 15.5357C0.868095 15.207 1.12142 14.9534 1.43422 14.9534ZM3.26564 14.9534H4.11461C4.42697 14.9534 4.69527 15.207 4.69527 15.5357C4.69527 15.8489 4.44195 16.1175 4.11461 16.1175H3.26564C2.95284 16.1175 2.68498 15.8639 2.68498 15.5357C2.68498 15.207 2.9383 14.9534 3.26564 14.9534ZM3.42953 6.89435H4.17408C4.48688 6.89435 4.75474 7.148 4.75474 7.4762C4.75474 7.78984 4.50142 8.05849 4.17408 8.05849H3.42953C3.11673 8.05849 2.84887 7.8044 2.84887 7.4762C2.84887 7.16299 3.11673 6.89435 3.42953 6.89435ZM5.72267 6.89435H7.89684C8.2092 6.89435 8.4775 7.148 8.4775 7.4762C8.4775 7.78984 8.22418 8.05849 7.89684 8.05849H5.72267C5.40986 8.05849 5.142 7.8044 5.142 7.4762C5.142 7.16299 5.39488 6.89435 5.72267 6.89435ZM6.86946 25.3408H7.52457C7.83737 25.3408 8.10523 25.5948 8.10523 25.9231C8.10523 26.2363 7.85191 26.5049 7.52457 26.5049H6.86946C6.55665 26.5049 6.28835 26.2513 6.28835 25.9231C6.28835 25.5948 6.55665 25.3408 6.86946 25.3408ZM2.29773 18.4159H3.71237C4.02518 18.4159 4.29304 18.6695 4.29304 18.9981C4.29304 19.3113 4.04015 19.58 3.71237 19.58H2.29773C1.98492 19.58 1.71706 19.3263 1.71706 18.9981C1.71706 18.6695 1.98492 18.4159 2.29773 18.4159ZM8.95375 4.5956H9.80272C10.1155 4.5956 10.3834 4.84969 10.3834 5.17789C10.3834 5.4911 10.1305 5.75974 9.80272 5.75974H8.95375C8.64139 5.75974 8.37309 5.5061 8.37309 5.17789C8.37309 4.86425 8.64139 4.5956 8.95375 4.5956ZM0.972509 11.4759H3.20616C3.51896 11.4759 3.78682 11.7296 3.78682 12.0582C3.78682 12.3714 3.53395 12.6401 3.20616 12.6401H0.972509C0.644729 12.6401 0.391846 12.3714 0.391846 12.0582C0.391846 11.7446 0.644729 11.4759 0.972509 11.4759ZM2.71494 20.7141H3.45948C3.77184 20.7141 4.04015 20.9683 4.04015 21.2964C4.04015 21.6096 3.78682 21.8782 3.45948 21.8782H2.71494C2.40214 21.8782 2.13383 21.6246 2.13383 21.2964C2.13383 20.9828 2.38716 20.7141 2.71494 20.7141Z" fill="white"/>
</g>
<mask id="mask1_17_161" style="mask-type:luminance" maskUnits="userSpaceOnUse" x="18" y="12" width="14" height="8">
<path d="M18.1692 12.1787H31.4777V19.9704H18.1692V12.1787Z" fill="white"/>
</mask>
<g mask="url(#mask1_17_161)">
<path d="M31.3641 15.755C31.2548 15.5512 31.0354 15.4577 30.8482 15.3443C28.6053 14.0227 26.024 13.2948 23.426 13.2503C22.9978 12.6089 22.2488 12.1973 21.48 12.1951C20.5086 12.1946 19.5367 12.1845 18.5649 12.1902C18.267 12.2004 18.1247 12.6309 18.36 12.818C18.9366 13.256 19.5279 13.6742 20.1081 14.1074C20.5059 14.4171 20.7501 14.9169 20.7487 15.4228C20.7514 15.8653 20.7504 16.3073 20.7523 16.7497C20.7504 17.2451 20.5152 17.7352 20.124 18.0378C19.5433 18.472 18.9503 18.8893 18.3723 19.3264C18.1318 19.5237 18.2992 19.9657 18.6089 19.9523C19.5658 19.9586 20.5232 19.9573 21.48 19.9612C22.2488 19.9648 23.0022 19.5629 23.4357 18.9236C26.1434 18.8769 28.8423 18.1133 31.1534 16.6849C31.454 16.4939 31.547 16.0585 31.3641 15.755Z" fill="white"/>
</g>
<path d="M19.2044 16.4431C19.3648 16.4576 19.5265 16.3588 19.5794 16.2044C19.652 16.0196 19.5446 15.792 19.3561 15.7315C18.7643 15.6883 18.1657 15.721 17.5709 15.7082C17.3674 15.7196 17.1157 15.6508 16.9651 15.833C16.7664 16.0403 16.9259 16.4329 17.2127 16.4343C17.8766 16.4426 18.5401 16.4387 19.2044 16.4431Z" fill="white"/>
<path d="M19.3277 14.535C18.2381 14.5094 17.1468 14.5275 16.0565 14.5165C15.8926 14.501 15.7172 14.5844 15.6596 14.7467C15.5608 14.9647 15.7396 15.2439 15.9776 15.2426C17.0538 15.2501 18.1302 15.2487 19.2069 15.2536C19.3678 15.2668 19.5316 15.1698 19.5845 15.0132C19.6598 14.8186 19.5321 14.5769 19.3277 14.535Z" fill="white"/>
<path d="M19.3277 16.9291C18.2381 16.9035 17.1468 16.9216 16.0565 16.9105C15.8926 16.8951 15.7172 16.978 15.6596 17.1408C15.5608 17.3583 15.7396 17.6375 15.9776 17.6366C17.0538 17.6442 18.1302 17.6423 19.2069 17.6477C19.3678 17.6605 19.5316 17.5638 19.5845 17.4068C19.6598 17.2122 19.5321 16.971 19.3277 16.9291Z" fill="white"/>
</svg>
