<svg width="32" height="32" viewBox="0 0 33 32" fill="none" xmlns="http://www.w3.org/2000/svg">
    <path
        d="M32.8232 15.9999L27.5796 12.3185L29.7309 6.08847L23.4115 6.37167L21.7981 0L16.8233 4.10617L11.8485 0L10.235 6.37167L3.91568 6.08847L6.06696 12.3185L0.823242 15.9999L6.06696 19.6813L3.91568 25.9114L10.235 25.6282L11.8485 32L16.8233 27.8937L21.7981 32L23.4115 25.6282L29.7309 25.9114L27.5796 19.6813L32.8232 15.9999ZM21.2603 20.8141C20.8569 21.3805 20.1846 21.9468 19.5124 22.23C18.8401 22.5132 18.0334 22.6548 16.9577 22.6548C15.7476 22.6548 14.672 22.5132 13.8653 22.0884C13.0586 21.6636 12.3863 21.0973 11.8485 20.1061C11.3107 19.115 11.0417 17.8406 11.0417 16.4247C11.0417 14.4424 11.5796 12.8849 12.5208 11.7522C13.5964 10.6194 14.9409 10.1947 16.8233 10.1947C18.3023 10.1947 19.3779 10.4778 20.3191 11.1858C21.2603 11.8938 21.7981 12.7433 22.2014 14.0177L19.109 14.584C18.9745 14.1592 18.8401 13.8761 18.7056 13.7345C18.5712 13.4513 18.3023 13.1681 18.0334 13.0265C17.7645 12.8849 17.3611 12.7433 17.0922 12.7433C16.2855 12.7433 15.6132 13.0265 15.2098 13.7345C14.9409 14.3008 14.672 15.0088 14.672 16.1415C14.672 17.5575 14.8065 18.407 15.2098 18.9734C15.6132 19.5398 16.151 19.6813 16.8233 19.6813C17.4955 19.6813 18.0334 19.5398 18.4367 19.115C18.8401 18.6902 18.9745 18.1238 19.2434 17.4159L22.3359 18.407C22.067 19.3982 21.7981 20.1061 21.2603 20.8141Z"
        fill="#007EA7" />
</svg>