<svg width="32" height="32" viewBox="0 0 32 32" fill="none" xmlns="http://www.w3.org/2000/svg">
    <g clip-path="url(#clip0_792_1717)">
        <path opacity="0.982" fill-rule="evenodd" clip-rule="evenodd"
            d="M14.8299 -0.0253906C15.5931 -0.0253906 16.3562 -0.0253906 17.1193 -0.0253906C22.5003 0.522939 26.6635 3.0497 29.609 7.5549C30.9848 9.79149 31.7734 12.2165 31.9746 14.8299C31.9746 15.22 31.9746 15.61 31.9746 16C30.7706 16 29.5666 16 28.3625 16C28.2093 11.2569 26.1235 7.65329 22.105 5.18924C18.4373 3.24154 14.6896 3.07197 10.8617 4.68049C6.5866 6.79163 4.17005 10.2256 3.61213 14.9826C3.58671 15.3213 3.57823 15.6605 3.58669 16C2.38266 16 1.17864 16 -0.0253906 16C-0.0253906 15.61 -0.0253906 15.22 -0.0253906 14.8299C0.556653 9.21152 3.253 4.94654 8.06364 2.03502C10.1721 0.850992 12.4275 0.164187 14.8299 -0.0253906Z"
            fill="#015BBB" />
        <path opacity="0.985" fill-rule="evenodd" clip-rule="evenodd"
            d="M-0.0253906 16C1.17864 16 2.38266 16 3.58669 16C3.58669 16.0339 3.58669 16.0678 3.58669 16.1017C2.38266 16.1017 1.17864 16.1017 -0.0253906 16.1017C-0.0253906 16.0678 -0.0253906 16.0339 -0.0253906 16Z"
            fill="#3A7290" />
        <path opacity="0.984" fill-rule="evenodd" clip-rule="evenodd"
            d="M28.3625 16C29.5666 16 30.7706 16 31.9746 16C31.9746 16.0339 31.9746 16.0678 31.9746 16.1017C30.7706 16.1017 29.5666 16.1017 28.3625 16.1017C28.3625 16.0678 28.3625 16.0339 28.3625 16Z"
            fill="#3A7290" />
        <path opacity="0.982" fill-rule="evenodd" clip-rule="evenodd"
            d="M-0.0253906 16.1016C1.17864 16.1016 2.38266 16.1016 3.58669 16.1016C3.78056 20.6564 5.78162 24.1582 9.58987 26.6071C12.9795 28.5486 16.5237 28.8878 20.2226 27.6246C24.442 25.9317 27.079 22.8707 28.1336 18.4418C28.2939 17.6699 28.3702 16.8898 28.3625 16.1016C29.5666 16.1016 30.7706 16.1016 31.9746 16.1016C31.9746 16.4407 31.9746 16.7799 31.9746 17.1191C31.5063 21.9995 29.3356 25.9254 25.4627 28.8965C22.9673 30.6921 20.1862 31.7181 17.1193 31.9744C16.3562 31.9744 15.5931 31.9744 14.8299 31.9744C9.44895 31.4261 5.28574 28.8993 2.34027 24.3941C0.964442 22.1575 0.175889 19.7325 -0.0253906 17.1191C-0.0253906 16.7799 -0.0253906 16.4407 -0.0253906 16.1016Z"
            fill="#FDD400" />
    </g>
    <defs>
        <clipPath id="clip0_792_1717">
            <rect width="32" height="32" fill="white" />
        </clipPath>
    </defs>
</svg>