<svg width="32" height="32" viewBox="0 0 32 32" fill="none" xmlns="http://www.w3.org/2000/svg">
<g clip-path="url(#clip0_18_620)">
<path fill-rule="evenodd" clip-rule="evenodd" d="M17.4379 3.50098C24.4452 3.50098 30.1239 9.17967 30.1239 16.187C30.1239 23.1942 24.4452 28.8729 17.4379 28.8729C10.4306 28.8729 4.75195 23.1942 4.75195 16.187C4.75195 9.17967 10.4306 3.50098 17.4379 3.50098ZM17.436 9.36975C21.2 9.36975 24.2512 12.421 24.2512 16.185C24.2512 19.947 21.2 22.9982 17.436 22.9982C13.6719 22.9982 10.6207 19.947 10.6207 16.185C10.6207 12.421 13.6719 9.36975 17.436 9.36975Z" fill="#FFAD1A" stroke="#FDA11B" stroke-width="2.95611" stroke-miterlimit="22.9256"/>
<path fill-rule="evenodd" clip-rule="evenodd" d="M17.244 0.562744C17.2816 0.562744 17.3173 0.564724 17.3549 0.564724V6.186C17.3173 6.186 17.2816 6.18402 17.244 6.18402C11.797 6.18402 7.37957 10.6014 7.37957 16.0485C7.37957 21.4975 11.797 25.9129 17.244 25.9129C17.2816 25.9129 17.3173 25.9109 17.3549 25.9109V31.5342C17.3173 31.5342 17.2816 31.5342 17.244 31.5342C8.69233 31.5342 1.7583 24.6021 1.7583 16.0485C1.7583 7.49677 8.69233 0.562744 17.244 0.562744Z" fill="#0B95C5" stroke="#1194C9" stroke-width="2.36488" stroke-miterlimit="22.9256"/>
</g>
<defs>
<clipPath id="clip0_18_620">
<rect width="32" height="32" fill="white"/>
</clipPath>
</defs>
</svg>
