<svg width="32" height="32" viewBox="0 0 32 32" fill="none" xmlns="http://www.w3.org/2000/svg">
<mask id="mask0_18_630" style="mask-type:alpha" maskUnits="userSpaceOnUse" x="1" y="1" width="30" height="30">
<path d="M29.1044 16.4276C29.9793 16.4264 30.6894 17.1347 30.6905 18.0095C30.6906 18.0468 30.6893 18.0842 30.6867 18.1214C30.2287 24.7112 29.5532 28.2882 28.6602 28.8525C26.8383 30.0039 23.302 30.6273 18.0517 30.7228C17.2565 30.7372 16.6002 30.1044 16.5857 29.3092C16.5855 29.3005 16.5855 29.2918 16.5855 29.283V17.7384C16.5855 17.0232 17.1647 16.4433 17.8798 16.4424L29.1044 16.4276ZM15.57 2.61378L15.5702 2.62687L15.5703 29.0351C15.5703 29.91 14.8611 30.6191 13.9863 30.6191C13.9689 30.6191 13.9515 30.6189 13.9343 30.6183C8.61986 30.4437 5.14033 29.829 3.49555 28.774C0.783586 27.0346 0.515506 4.95365 3.49555 3.07045C5.31751 1.91908 8.85371 1.29567 14.1041 1.20019C14.8992 1.18574 15.5555 1.81862 15.57 2.61378ZM18.0517 1.20019C23.302 1.29567 26.8383 1.91908 28.6602 3.07045C29.5532 3.63477 30.2287 7.21181 30.6867 13.8016C30.6893 13.8388 30.6906 13.8761 30.6905 13.9135C30.6894 14.7883 29.9793 15.4965 29.1044 15.4954L17.8798 15.4806C17.1647 15.4797 16.5855 14.8997 16.5855 14.1846V2.63995C16.5855 2.63123 16.5855 2.62251 16.5857 2.61378C16.6002 1.81862 17.2565 1.18574 18.0517 1.20019Z" fill="white"/>
</mask>
<g mask="url(#mask0_18_630)">
<path d="M29.1044 16.4276C29.9793 16.4264 30.6894 17.1347 30.6905 18.0095C30.6906 18.0468 30.6893 18.0842 30.6867 18.1214C30.2287 24.7112 29.5532 28.2882 28.6602 28.8525C26.8383 30.0039 23.302 30.6273 18.0517 30.7228C17.2565 30.7372 16.6002 30.1044 16.5857 29.3092C16.5855 29.3005 16.5855 29.2918 16.5855 29.283V17.7384C16.5855 17.0232 17.1647 16.4433 17.8798 16.4424L29.1044 16.4276ZM15.57 2.61378L15.5702 2.62687L15.5703 29.0351C15.5703 29.91 14.8611 30.6191 13.9863 30.6191C13.9689 30.6191 13.9515 30.6189 13.9343 30.6183C8.61986 30.4437 5.14033 29.829 3.49555 28.774C0.783586 27.0346 0.515506 4.95365 3.49555 3.07045C5.31751 1.91908 8.85371 1.29567 14.1041 1.20019C14.8992 1.18574 15.5555 1.81862 15.57 2.61378ZM18.0517 1.20019C23.302 1.29567 26.8383 1.91908 28.6602 3.07045C29.5532 3.63477 30.2287 7.21181 30.6867 13.8016C30.6893 13.8388 30.6906 13.8761 30.6905 13.9135C30.6894 14.7883 29.9793 15.4965 29.1044 15.4954L17.8798 15.4806C17.1647 15.4797 16.5855 14.8997 16.5855 14.1846V2.63995C16.5855 2.63123 16.5855 2.62251 16.5857 2.61378C16.6002 1.81862 17.2565 1.18574 18.0517 1.20019Z" fill="#2CAE5C"/>
<path fill-rule="evenodd" clip-rule="evenodd" d="M27.5875 20.9048C27.7466 20.9048 27.8755 21.0337 27.8755 21.1928V23.6867C27.8755 23.7737 27.8362 23.856 27.7685 23.9108L25.9501 25.3796C25.9156 25.4074 25.888 25.4428 25.8695 25.4831C25.8029 25.6276 25.8661 25.7986 26.0105 25.8652C26.9298 26.2888 27.5514 26.7974 27.8755 27.3908C28.2218 28.0249 28.3578 28.8106 28.2835 29.7479C28.2734 29.8756 28.1802 29.9812 28.0547 30.0072L24.9626 30.646C25.1354 29.5752 24.9192 28.7992 24.3141 28.318C23.7485 27.8683 22.6398 27.8388 20.9878 28.2298C20.9662 28.235 20.9438 28.2376 20.9215 28.2376C20.7625 28.2376 20.6335 28.1086 20.6335 27.9496V26.1276C20.6335 26.0438 20.6701 25.9642 20.7335 25.9095L23.1542 23.8243H19.4016C19.2426 23.8243 19.1136 23.6953 19.1136 23.5363V21.1928C19.1136 21.0337 19.2426 20.9048 19.4016 20.9048H27.5875ZM11.471 9.97636C11.4811 10.0249 11.4862 10.0743 11.4862 10.1239V22.0306C11.4862 22.4283 11.1639 22.7506 10.7662 22.7506H8.75633C8.35873 22.7506 8.03633 22.4283 8.03633 22.0306V13.266L6.17268 13.6562C5.78347 13.7376 5.40191 13.4882 5.32045 13.099C5.31029 13.0504 5.30518 13.001 5.30518 12.9515V11.1163C5.30518 10.7755 5.5441 10.4814 5.87766 10.4116L10.6187 9.41916C11.008 9.33772 11.3895 9.58716 11.471 9.97636ZM23.3027 -0.328201C24.9921 -0.494319 26.2393 -0.464743 27.0444 -0.239471C27.1173 -0.219084 27.1792 -0.17084 27.2168 -0.105169L27.2435 -0.0579649C27.9323 1.1685 28.0714 2.32831 27.6607 3.42147C27.2337 4.55833 26.0546 6.12251 24.1234 8.11404H27.5725C27.7315 8.11404 27.8605 8.24292 27.8605 8.40204V10.7076C27.8605 10.8666 27.7315 10.9956 27.5725 10.9956H19.511C19.3519 10.9956 19.223 10.8666 19.223 10.7076V8.83596C19.223 8.5922 19.3259 8.35972 19.5066 8.19596C20.5402 7.25868 21.4047 6.44303 22.0999 5.74914L22.1842 5.66478C22.6292 5.21812 23.0021 4.82336 23.3027 4.4805C24.5348 3.07563 25.0254 2.7461 24.8834 2.0583C24.8429 1.86168 24.4358 1.68604 23.5958 1.56604C23.0891 1.49423 22.3742 0.997216 21.4277 0.034016L21.3886 -0.00596002L21.444 -0.0197817C21.9874 -0.153338 22.5779 -0.253206 23.2155 -0.319386L23.3027 -0.328201ZM21.3482 -0.0472801L21.3881 -0.00637368L21.3886 -0.00596002L21.3702 -0.00136086C20.9291 0.110416 20.5195 0.244752 20.1414 0.401632C20.1351 0.404264 20.1278 0.401256 20.1252 0.394912C20.1228 0.389056 20.1252 0.382304 20.1307 0.379248L21.0031 -0.099224C21.1167 -0.161551 21.258 -0.140291 21.3482 -0.0472801Z" fill="#FCFFFC"/>
</g>
</svg>
