<svg width="32" height="32" viewBox="0 0 32 32" fill="none" xmlns="http://www.w3.org/2000/svg">
<path opacity="0.757" fill-rule="evenodd" clip-rule="evenodd" d="M7.96875 1.78125C8.38544 1.78125 8.80206 1.78125 9.21875 1.78125C9.21875 3.23958 9.21875 4.69792 9.21875 6.15625C8.80206 6.15625 8.38544 6.15625 7.96875 6.15625C7.96875 4.69792 7.96875 3.23958 7.96875 1.78125Z" fill="black"/>
<path opacity="0.366" fill-rule="evenodd" clip-rule="evenodd" d="M14.0938 1.78125C14.5312 1.78125 14.9688 1.78125 15.4062 1.78125C15.4062 3.23958 15.4062 4.69792 15.4062 6.15625C14.9688 6.15625 14.5312 6.15625 14.0938 6.15625C14.0938 4.69792 14.0938 3.23958 14.0938 1.78125Z" fill="#030808"/>
<path opacity="0.366" fill-rule="evenodd" clip-rule="evenodd" d="M20.2188 1.78125C20.6562 1.78125 21.0938 1.78125 21.5312 1.78125C21.5312 3.23958 21.5312 4.69792 21.5312 6.15625C21.0938 6.15625 20.6562 6.15625 20.2188 6.15625C20.2188 4.69792 20.2188 3.23958 20.2188 1.78125Z" fill="#010303"/>
<path fill-rule="evenodd" clip-rule="evenodd" d="M8.03125 1.90625C8.38544 1.90625 8.73956 1.90625 9.09375 1.90625C9.09375 3.28125 9.09375 4.65625 9.09375 6.03125C8.73956 6.03125 8.38544 6.03125 8.03125 6.03125C8.03125 4.65625 8.03125 3.28125 8.03125 1.90625Z" fill="#66D1C9"/>
<path fill-rule="evenodd" clip-rule="evenodd" d="M8.03125 1.90613C8.39437 1.84428 8.76937 1.82345 9.15625 1.84363C9.15625 3.2603 9.15625 4.67696 9.15625 6.09363C8.76937 6.11381 8.39437 6.09298 8.03125 6.03113C8.38544 6.03113 8.73956 6.03113 9.09375 6.03113C9.09375 4.65613 9.09375 3.28113 9.09375 1.90613C8.73956 1.90613 8.38544 1.90613 8.03125 1.90613Z" fill="#3E817D"/>
<path fill-rule="evenodd" clip-rule="evenodd" d="M15.2812 1.90613C14.9271 1.90613 14.5729 1.90613 14.2188 1.90613C14.2188 3.28113 14.2188 4.65613 14.2188 6.03113C14.5729 6.03113 14.9271 6.03113 15.2812 6.03113C14.9181 6.09298 14.5431 6.11381 14.1562 6.09363C14.1562 4.67696 14.1562 3.2603 14.1562 1.84363C14.5431 1.82345 14.9181 1.84428 15.2812 1.90613Z" fill="#346C69"/>
<path fill-rule="evenodd" clip-rule="evenodd" d="M15.2812 1.90625C15.2812 3.28125 15.2812 4.65625 15.2812 6.03125C14.9271 6.03125 14.5729 6.03125 14.2188 6.03125C14.2188 4.65625 14.2188 3.28125 14.2188 1.90625C14.5729 1.90625 14.9271 1.90625 15.2812 1.90625Z" fill="#65D0C9"/>
<path fill-rule="evenodd" clip-rule="evenodd" d="M20.3438 1.90613C20.7069 1.84428 21.0819 1.82345 21.4688 1.84363C21.4688 3.2603 21.4688 4.67696 21.4688 6.09363C21.0819 6.11381 20.7069 6.09298 20.3438 6.03113C20.6979 6.03113 21.0521 6.03113 21.4062 6.03113C21.4062 4.65613 21.4062 3.28113 21.4062 1.90613C21.0521 1.90613 20.6979 1.90613 20.3438 1.90613Z" fill="#36716E"/>
<path opacity="0.797" fill-rule="evenodd" clip-rule="evenodd" d="M11.0312 3.65625C11.4479 3.65625 11.8646 3.65625 12.2812 3.65625C12.2812 4.48958 12.2812 5.32292 12.2812 6.15625C11.8646 6.15625 11.4479 6.15625 11.0312 6.15625C11.0312 5.32292 11.0312 4.48958 11.0312 3.65625Z" fill="#0A100F"/>
<path opacity="0.455" fill-rule="evenodd" clip-rule="evenodd" d="M17.1562 3.65625C17.5938 3.65625 18.0312 3.65625 18.4688 3.65625C18.4688 4.48958 18.4688 5.32292 18.4688 6.15625C18.0312 6.15625 17.5938 6.15625 17.1562 6.15625C17.1562 5.32292 17.1562 4.48958 17.1562 3.65625Z" fill="black"/>
<path fill-rule="evenodd" clip-rule="evenodd" d="M20.3438 1.90625C20.6979 1.90625 21.0521 1.90625 21.4062 1.90625C21.4062 3.28125 21.4062 4.65625 21.4062 6.03125C21.0521 6.03125 20.6979 6.03125 20.3438 6.03125C20.3438 4.65625 20.3438 3.28125 20.3438 1.90625Z" fill="#5FC7C0"/>
<path opacity="0.797" fill-rule="evenodd" clip-rule="evenodd" d="M23.3438 3.65625C23.7604 3.65625 24.1771 3.65625 24.5938 3.65625C24.5938 4.48958 24.5938 5.32292 24.5938 6.15625C24.1771 6.15625 23.7604 6.15625 23.3438 6.15625C23.3438 5.32292 23.3438 4.48958 23.3438 3.65625Z" fill="#080F0E"/>
<path fill-rule="evenodd" clip-rule="evenodd" d="M17.2811 3.71875C17.2811 4.48958 17.2811 5.26042 17.2811 6.03125C17.6353 6.03125 17.9894 6.03125 18.3436 6.03125C18.3436 5.26042 18.3436 4.48958 18.3436 3.71875C18.4058 4.49931 18.4267 5.29098 18.4061 6.09375C18.0103 6.09375 17.6144 6.09375 17.2186 6.09375C17.198 5.29098 17.2189 4.49931 17.2811 3.71875Z" fill="#244B48"/>
<path fill-rule="evenodd" clip-rule="evenodd" d="M11.0938 3.71875C11.4688 3.71875 11.8438 3.71875 12.2188 3.71875C12.2188 4.48958 12.2188 5.26042 12.2188 6.03125C11.8438 6.03125 11.4688 6.03125 11.0938 6.03125C11.0938 5.26042 11.0938 4.48958 11.0938 3.71875Z" fill="#64CEC7"/>
<path fill-rule="evenodd" clip-rule="evenodd" d="M17.2812 3.71875C17.6354 3.71875 17.9896 3.71875 18.3438 3.71875C18.3438 4.48958 18.3438 5.26042 18.3438 6.03125C17.9896 6.03125 17.6354 6.03125 17.2812 6.03125C17.2812 5.26042 17.2812 4.48958 17.2812 3.71875Z" fill="#61CAC4"/>
<path fill-rule="evenodd" clip-rule="evenodd" d="M23.4062 3.71875C23.7812 3.71875 24.1562 3.71875 24.5312 3.71875C24.5312 4.48958 24.5312 5.26042 24.5312 6.03125C24.1562 6.03125 23.7812 6.03125 23.4062 6.03125C23.4062 5.26042 23.4062 4.48958 23.4062 3.71875Z" fill="#58BCB6"/>
<path opacity="0.851" fill-rule="evenodd" clip-rule="evenodd" d="M7.34375 7.34375C13.0938 7.34375 18.8438 7.34375 24.5938 7.34375C24.5938 13.0938 24.5938 18.8438 24.5938 24.5938C18.8438 24.5938 13.0938 24.5938 7.34375 24.5938C7.34375 18.8438 7.34375 13.0938 7.34375 7.34375Z" fill="black"/>
<path opacity="0.797" fill-rule="evenodd" clip-rule="evenodd" d="M25.7812 7.34375C26.6146 7.34375 27.4479 7.34375 28.2812 7.34375C28.2812 7.76044 28.2812 8.17706 28.2812 8.59375C27.4479 8.59375 26.6146 8.59375 25.7812 8.59375C25.7812 8.17706 25.7812 7.76044 25.7812 7.34375Z" fill="black"/>
<path fill-rule="evenodd" clip-rule="evenodd" d="M17.2188 7.46875C18.3646 7.46875 19.5104 7.46875 20.6562 7.46875C19.3564 8.79994 18.0439 10.1228 16.7188 11.4375C17.7602 11.4688 18.8019 11.4792 19.8438 11.4688C20.0857 11.4491 20.3149 11.4699 20.5312 11.5312C18.4688 11.5312 16.4062 11.5312 14.3438 11.5312C14.3438 12.3646 14.3438 13.1979 14.3438 14.0312C14.2957 13.9836 14.2645 13.9211 14.25 13.8438C14.1042 13.9896 13.9583 14.1354 13.8125 14.2812C13.7812 16.2186 13.7708 18.1561 13.7812 20.0938C13.792 20.1557 13.7711 20.1974 13.7188 20.2188C13.7395 17.3123 13.7187 14.4165 13.6562 11.5312C13.5442 11.4807 13.4192 11.4494 13.2812 11.4375C14.6064 10.1228 15.9189 8.79994 17.2188 7.46875Z" fill="#5EC4BE"/>
<path fill-rule="evenodd" clip-rule="evenodd" d="M25.8438 7.40625C26.6354 7.40625 27.4271 7.40625 28.2188 7.40625C28.2188 7.78125 28.2188 8.15625 28.2188 8.53125C27.4271 8.53125 26.6354 8.53125 25.8438 8.53125C25.8438 8.15625 25.8438 7.78125 25.8438 7.40625Z" fill="#4EADA8"/>
<path opacity="0.757" fill-rule="evenodd" clip-rule="evenodd" d="M1.78125 7.96875C3.23958 7.96875 4.69792 7.96875 6.15625 7.96875C6.15625 8.38544 6.15625 8.80206 6.15625 9.21875C4.69792 9.21875 3.23958 9.21875 1.78125 9.21875C1.78125 8.80206 1.78125 8.38544 1.78125 7.96875Z" fill="black"/>
<path fill-rule="evenodd" clip-rule="evenodd" d="M1.90637 8.03125C1.90637 8.38544 1.90637 8.73956 1.90637 9.09375C3.28137 9.09375 4.65637 9.09375 6.03137 9.09375C6.03137 8.73956 6.03137 8.38544 6.03137 8.03125C6.09322 8.39437 6.11405 8.76937 6.09387 9.15625C4.6772 9.15625 3.26054 9.15625 1.84387 9.15625C1.82369 8.76937 1.84452 8.39437 1.90637 8.03125Z" fill="#3E817D"/>
<path fill-rule="evenodd" clip-rule="evenodd" d="M1.90625 8.03125C3.28125 8.03125 4.65625 8.03125 6.03125 8.03125C6.03125 8.38544 6.03125 8.73956 6.03125 9.09375C4.65625 9.09375 3.28125 9.09375 1.90625 9.09375C1.90625 8.73956 1.90625 8.38544 1.90625 8.03125Z" fill="#66D1C9"/>
<path opacity="0.366" fill-rule="evenodd" clip-rule="evenodd" d="M25.7812 10.4062C27.2396 10.4062 28.6979 10.4062 30.1562 10.4062C30.1562 10.8438 30.1562 11.2812 30.1562 11.7188C28.6979 11.7188 27.2396 11.7188 25.7812 11.7188C25.7812 11.2812 25.7812 10.8438 25.7812 10.4062Z" fill="#010202"/>
<path fill-rule="evenodd" clip-rule="evenodd" d="M24.4688 10.4688C24.4688 11.3229 24.4688 12.1771 24.4688 13.0312C22.8837 14.5954 21.3004 16.1579 19.7188 17.7188C18.8646 17.7188 18.0104 17.7188 17.1562 17.7188C19.5539 15.2586 21.9914 12.8419 24.4688 10.4688Z" fill="#4FB1AC"/>
<path fill-rule="evenodd" clip-rule="evenodd" d="M30.0314 11.5938C30.0314 11.2396 30.0314 10.8854 30.0314 10.5312C28.6564 10.5312 27.2814 10.5312 25.9064 10.5312C25.9064 10.8854 25.9064 11.2396 25.9064 11.5938C25.8445 11.2306 25.8237 10.8556 25.8439 10.4688C27.2606 10.4688 28.6772 10.4688 30.0939 10.4688C30.1141 10.8556 30.0933 11.2306 30.0314 11.5938Z" fill="#2C6462"/>
<path fill-rule="evenodd" clip-rule="evenodd" d="M30.0312 11.5938C28.6562 11.5938 27.2812 11.5938 25.9062 11.5938C25.9062 11.2396 25.9062 10.8854 25.9062 10.5312C27.2812 10.5312 28.6562 10.5312 30.0312 10.5312C30.0312 10.8854 30.0312 11.2396 30.0312 11.5938Z" fill="#4BABA7"/>
<path opacity="0.797" fill-rule="evenodd" clip-rule="evenodd" d="M3.65625 11.0312C4.48958 11.0312 5.32292 11.0312 6.15625 11.0312C6.15625 11.4479 6.15625 11.8646 6.15625 12.2812C5.32292 12.2812 4.48958 12.2812 3.65625 12.2812C3.65625 11.8646 3.65625 11.4479 3.65625 11.0312Z" fill="#0A100F"/>
<path fill-rule="evenodd" clip-rule="evenodd" d="M3.71875 11.0938C4.48958 11.0938 5.26042 11.0938 6.03125 11.0938C6.03125 11.4688 6.03125 11.8438 6.03125 12.2188C5.26042 12.2188 4.48958 12.2188 3.71875 12.2188C3.71875 11.8438 3.71875 11.4688 3.71875 11.0938Z" fill="#64CEC7"/>
<path fill-rule="evenodd" clip-rule="evenodd" d="M13.6563 11.5313C13.7187 14.4165 13.7395 17.3123 13.7188 20.2188C13.2507 20.291 12.7716 20.3014 12.2813 20.25C11.9913 20.1467 11.7205 20.0113 11.4688 19.8438C10.8828 19.1908 10.5911 18.42 10.5938 17.5313C10.5938 16.4063 10.5938 15.2813 10.5938 14.1563C10.6921 12.2036 11.713 11.3286 13.6563 11.5313Z" fill="#FEFEFE"/>
<path opacity="0.455" fill-rule="evenodd" clip-rule="evenodd" d="M25.7812 13.4688C26.6146 13.4688 27.4479 13.4688 28.2812 13.4688C28.2812 13.9062 28.2812 14.3438 28.2812 14.7812C27.4479 14.7812 26.6146 14.7812 25.7812 14.7812C25.7812 14.3438 25.7812 13.9062 25.7812 13.4688Z" fill="black"/>
<path fill-rule="evenodd" clip-rule="evenodd" d="M28.2188 13.5938C28.2188 13.9479 28.2188 14.3021 28.2188 14.6562C27.4479 14.6562 26.6771 14.6562 25.9062 14.6562C25.9062 14.3021 25.9062 13.9479 25.9062 13.5938C26.6771 13.5938 27.4479 13.5938 28.2188 13.5938Z" fill="#49A7A3"/>
<path opacity="0.366" fill-rule="evenodd" clip-rule="evenodd" d="M1.78125 14.0938C3.23958 14.0938 4.69792 14.0938 6.15625 14.0938C6.15625 14.5312 6.15625 14.9688 6.15625 15.4062C4.69792 15.4062 3.23958 15.4062 1.78125 15.4062C1.78125 14.9688 1.78125 14.5312 1.78125 14.0938Z" fill="#030808"/>
<path fill-rule="evenodd" clip-rule="evenodd" d="M14.3438 14.0312C16.4271 14.0312 18.5104 14.0312 20.5938 14.0312C20.3555 14.0828 20.1055 14.114 19.8438 14.125C18.6164 15.2899 17.408 16.4774 16.2188 17.6875C16.5306 17.7187 16.8431 17.7291 17.1563 17.7188C18.0104 17.7188 18.8646 17.7188 19.7188 17.7188C20.0227 17.6988 20.3144 17.7196 20.5938 17.7812C18.5104 17.7812 16.4271 17.7812 14.3438 17.7812C14.3438 18.6146 14.3438 19.4479 14.3438 20.2812C14.2924 20.0849 14.2612 19.8766 14.25 19.6562C14.1019 19.8149 13.9456 19.9607 13.7813 20.0938C13.7708 18.1561 13.7813 16.2186 13.8125 14.2812C13.9583 14.1354 14.1042 13.9896 14.25 13.8438C14.2645 13.9211 14.2958 13.9836 14.3438 14.0312Z" fill="#5ABBB5"/>
<path fill-rule="evenodd" clip-rule="evenodd" d="M6.03137 15.2812C6.03137 14.9271 6.03137 14.5729 6.03137 14.2188C4.65637 14.2188 3.28137 14.2188 1.90637 14.2188C1.90637 14.5729 1.90637 14.9271 1.90637 15.2812C1.84452 14.9181 1.82369 14.5431 1.84387 14.1562C3.26054 14.1562 4.6772 14.1562 6.09387 14.1562C6.11405 14.5431 6.09322 14.9181 6.03137 15.2812Z" fill="#346C69"/>
<path fill-rule="evenodd" clip-rule="evenodd" d="M6.03125 15.2812C4.65625 15.2812 3.28125 15.2812 1.90625 15.2812C1.90625 14.9271 1.90625 14.5729 1.90625 14.2188C3.28125 14.2188 4.65625 14.2188 6.03125 14.2188C6.03125 14.5729 6.03125 14.9271 6.03125 15.2812Z" fill="#65D0C9"/>
<path fill-rule="evenodd" clip-rule="evenodd" d="M28.2188 13.5938C27.4479 13.5938 26.6771 13.5938 25.9062 13.5938C25.9062 13.948 25.9062 14.3021 25.9062 14.6563C26.6771 14.6563 27.4479 14.6563 28.2188 14.6563C27.4382 14.7185 26.6465 14.7394 25.8438 14.7188C25.8438 14.323 25.8438 13.9271 25.8438 13.5313C26.6465 13.5108 27.4382 13.5316 28.2188 13.5938Z" fill="#183837"/>
<path fill-rule="evenodd" clip-rule="evenodd" d="M10.5938 14.1562C10.5938 15.2812 10.5938 16.4062 10.5938 17.5312C9.57106 18.554 8.52937 19.554 7.46875 20.5312C7.46875 19.4062 7.46875 18.2812 7.46875 17.1562C8.49144 16.1335 9.53313 15.1335 10.5938 14.1562Z" fill="#5DC4BE"/>
<path fill-rule="evenodd" clip-rule="evenodd" d="M24.4688 13.0312C24.4688 14.5312 24.4688 16.0312 24.4688 17.5312C22.1337 19.8454 19.8004 22.1579 17.4688 24.4688C15.9688 24.4688 14.4688 24.4688 12.9688 24.4688C14.3438 23.0729 15.7188 21.6771 17.0938 20.2812C18.2604 20.2812 19.4271 20.2812 20.5938 20.2812C20.5938 19.4479 20.5938 18.6146 20.5938 17.7812C20.3144 17.7196 20.0227 17.6988 19.7188 17.7188C21.3004 16.1579 22.8837 14.5954 24.4688 13.0312Z" fill="#4AA9A5"/>
<path opacity="0.366" fill-rule="evenodd" clip-rule="evenodd" d="M25.7812 16.5312C27.2396 16.5312 28.6979 16.5312 30.1562 16.5312C30.1562 16.9688 30.1562 17.4062 30.1562 17.8438C28.6979 17.8438 27.2396 17.8438 25.7812 17.8438C25.7812 17.4062 25.7812 16.9688 25.7812 16.5312Z" fill="#020706"/>
<path opacity="0.455" fill-rule="evenodd" clip-rule="evenodd" d="M3.65625 17.1562C4.48958 17.1562 5.32292 17.1562 6.15625 17.1562C6.15625 17.5938 6.15625 18.0312 6.15625 18.4688C5.32292 18.4688 4.48958 18.4688 3.65625 18.4688C3.65625 18.0312 3.65625 17.5938 3.65625 17.1562Z" fill="black"/>
<path fill-rule="evenodd" clip-rule="evenodd" d="M3.71875 17.2812C4.48958 17.2812 5.26042 17.2812 6.03125 17.2812C6.03125 17.6354 6.03125 17.9896 6.03125 18.3438C5.26042 18.3438 4.48958 18.3438 3.71875 18.3438C3.71875 17.9896 3.71875 17.6354 3.71875 17.2812Z" fill="#61CAC4"/>
<path fill-rule="evenodd" clip-rule="evenodd" d="M10.5938 17.5312C10.5911 18.42 10.8828 19.1908 11.4688 19.8438C11.3168 19.9219 11.1709 20.0156 11.0313 20.125C9.8542 21.3021 8.67707 22.4792 7.50001 23.6562C7.46876 22.6148 7.45832 21.5731 7.46876 20.5312C8.52938 19.554 9.57107 18.554 10.5938 17.5312Z" fill="#59BEB8"/>
<path fill-rule="evenodd" clip-rule="evenodd" d="M24.4688 17.5312C24.4688 19.8438 24.4688 22.1562 24.4688 24.4688C22.1354 24.4688 19.8021 24.4688 17.4688 24.4688C19.8004 22.1579 22.1337 19.8454 24.4688 17.5312Z" fill="#46A4A0"/>
<path fill-rule="evenodd" clip-rule="evenodd" d="M25.9064 16.6562C25.9064 17.0104 25.9064 17.3646 25.9064 17.7188C27.2814 17.7188 28.6564 17.7188 30.0314 17.7188C30.0314 17.3646 30.0314 17.0104 30.0314 16.6562C30.0933 17.0194 30.1141 17.3944 30.0939 17.7812C28.6772 17.7812 27.2606 17.7812 25.8439 17.7812C25.8237 17.3944 25.8445 17.0194 25.9064 16.6562Z" fill="#235351"/>
<path fill-rule="evenodd" clip-rule="evenodd" d="M25.9062 16.6562C27.2812 16.6562 28.6562 16.6562 30.0312 16.6562C30.0312 17.0104 30.0312 17.3646 30.0312 17.7188C28.6562 17.7188 27.2812 17.7188 25.9062 17.7188C25.9062 17.3646 25.9062 17.0104 25.9062 16.6562Z" fill="#45A29E"/>
<path fill-rule="evenodd" clip-rule="evenodd" d="M20.5938 17.7812C20.5938 18.6146 20.5938 19.4479 20.5938 20.2812C19.4271 20.2812 18.2604 20.2812 17.0938 20.2812C16.2188 20.2812 15.3438 20.2812 14.4688 20.2812C14.4271 20.2812 14.3854 20.2812 14.3438 20.2812C14.3438 19.4479 14.3438 18.6146 14.3438 17.7812C16.4271 17.7812 18.5104 17.7812 20.5938 17.7812Z" fill="#FEFEFE"/>
<path fill-rule="evenodd" clip-rule="evenodd" d="M3.71875 17.2813C4.49931 17.2191 5.29098 17.1983 6.09375 17.2188C6.09375 17.6146 6.09375 18.0105 6.09375 18.4063C5.29098 18.4269 4.49931 18.406 3.71875 18.3438C4.48958 18.3438 5.26042 18.3438 6.03125 18.3438C6.03125 17.9896 6.03125 17.6355 6.03125 17.2813C5.26042 17.2813 4.48958 17.2813 3.71875 17.2813Z" fill="#244B48"/>
<path opacity="0.797" fill-rule="evenodd" clip-rule="evenodd" d="M25.7812 19.6562C26.6146 19.6562 27.4479 19.6562 28.2812 19.6562C28.2812 20.0729 28.2812 20.4896 28.2812 20.9062C27.4479 20.9062 26.6146 20.9062 25.7812 20.9062C25.7812 20.4896 25.7812 20.0729 25.7812 19.6562Z" fill="black"/>
<path fill-rule="evenodd" clip-rule="evenodd" d="M25.9062 19.7188C26.6771 19.7188 27.4479 19.7188 28.2188 19.7188C28.2188 20.0729 28.2188 20.4271 28.2188 20.7812C27.4479 20.7812 26.6771 20.7812 25.9062 20.7812C25.9062 20.4271 25.9062 20.0729 25.9062 19.7188Z" fill="#44A19D"/>
<path fill-rule="evenodd" clip-rule="evenodd" d="M24.4688 7.40625C24.4688 8.42706 24.4688 9.44794 24.4688 10.4688C21.9914 12.8419 19.5539 15.2586 17.1562 17.7188C16.8431 17.7291 16.5306 17.7187 16.2188 17.6875C17.408 16.4774 18.6164 15.2899 19.8438 14.125C20.1055 14.114 20.3555 14.0828 20.5938 14.0312C20.6143 13.1869 20.5935 12.3535 20.5312 11.5312C20.3149 11.4699 20.0857 11.4491 19.8438 11.4688C21.1436 10.1376 22.4561 8.81469 23.7812 7.5C22.7398 7.46875 21.6981 7.45831 20.6562 7.46875C19.5104 7.46875 18.3646 7.46875 17.2188 7.46875C16.0521 7.46875 14.8854 7.46875 13.7188 7.46875C11.6354 7.46875 9.55206 7.46875 7.46875 7.46875C7.46875 9.53125 7.46875 11.5938 7.46875 13.6562C7.46875 14.8229 7.46875 15.9896 7.46875 17.1562C7.46875 18.2812 7.46875 19.4062 7.46875 20.5312C7.45831 21.5731 7.46875 22.6148 7.5 23.6562C8.67706 22.4792 9.85419 21.3021 11.0312 20.125C11.1709 20.0156 11.3168 19.9219 11.4688 19.8438C11.7205 20.0113 11.9913 20.1467 12.2812 20.25C12.7716 20.3014 13.2507 20.291 13.7188 20.2188C13.7711 20.1974 13.792 20.1557 13.7812 20.0938C13.9456 19.9607 14.1019 19.8149 14.25 19.6562C14.2612 19.8766 14.2924 20.0849 14.3438 20.2812C14.3854 20.2812 14.4271 20.2812 14.4688 20.2812C13.0938 21.6771 11.7188 23.0729 10.3438 24.4688C9.36456 24.4688 8.38544 24.4688 7.40625 24.4688C7.40625 18.7812 7.40625 13.0938 7.40625 7.40625C13.0938 7.40625 18.7812 7.40625 24.4688 7.40625Z" fill="#54B6B1"/>
<path fill-rule="evenodd" clip-rule="evenodd" d="M20.5312 11.5312C20.5935 12.3535 20.6143 13.1869 20.5938 14.0312C18.5104 14.0312 16.4271 14.0312 14.3438 14.0312C14.3438 13.1979 14.3438 12.3646 14.3438 11.5312C16.4062 11.5312 18.4688 11.5312 20.5312 11.5312Z" fill="#FEFEFE"/>
<path fill-rule="evenodd" clip-rule="evenodd" d="M20.6562 7.46876C21.6981 7.45832 22.7398 7.46876 23.7812 7.50001C22.4561 8.8147 21.1436 10.1376 19.8438 11.4688C18.8019 11.4792 17.7602 11.4688 16.7188 11.4375C18.0439 10.1228 19.3564 8.79995 20.6562 7.46876Z" fill="#58BEB8"/>
<path fill-rule="evenodd" clip-rule="evenodd" d="M13.7188 7.46875C14.8854 7.46875 16.0521 7.46875 17.2188 7.46875C15.9189 8.79994 14.6064 10.1228 13.2812 11.4375C13.4192 11.4494 13.5442 11.4807 13.6562 11.5312C11.713 11.3286 10.6921 12.2036 10.5938 14.1562C9.53313 15.1335 8.49144 16.1335 7.46875 17.1562C7.46875 15.9896 7.46875 14.8229 7.46875 13.6562C9.55375 11.5921 11.6371 9.52956 13.7188 7.46875Z" fill="#61CAC4"/>
<path fill-rule="evenodd" clip-rule="evenodd" d="M13.7188 7.46875C11.6371 9.52956 9.55375 11.5921 7.46875 13.6562C7.46875 11.5938 7.46875 9.53125 7.46875 7.46875C9.55206 7.46875 11.6354 7.46875 13.7188 7.46875Z" fill="#65CFC8"/>
<path opacity="0.366" fill-rule="evenodd" clip-rule="evenodd" d="M1.78125 20.2188C3.23958 20.2188 4.69792 20.2188 6.15625 20.2188C6.15625 20.6562 6.15625 21.0938 6.15625 21.5312C4.69792 21.5312 3.23958 21.5312 1.78125 21.5312C1.78125 21.0938 1.78125 20.6562 1.78125 20.2188Z" fill="#010303"/>
<path fill-rule="evenodd" clip-rule="evenodd" d="M14.4688 20.2812C15.3438 20.2812 16.2188 20.2812 17.0938 20.2812C15.7188 21.6771 14.3438 23.0729 12.9688 24.4688C12.0938 24.4688 11.2188 24.4688 10.3438 24.4688C11.7188 23.0729 13.0938 21.6771 14.4688 20.2812Z" fill="#4FB1AC"/>
<path fill-rule="evenodd" clip-rule="evenodd" d="M25.9064 19.7188C25.9064 20.0729 25.9064 20.4271 25.9064 20.7812C26.6772 20.7812 27.4481 20.7812 28.2189 20.7812C27.4383 20.8434 26.6466 20.8643 25.8439 20.8438C25.8237 20.4569 25.8445 20.0819 25.9064 19.7188Z" fill="#2F706D"/>
<path fill-rule="evenodd" clip-rule="evenodd" d="M1.90637 20.3438C1.90637 20.6979 1.90637 21.0521 1.90637 21.4062C3.28137 21.4062 4.65637 21.4062 6.03137 21.4062C6.03137 21.0521 6.03137 20.6979 6.03137 20.3438C6.09322 20.7069 6.11405 21.0819 6.09387 21.4688C4.6772 21.4688 3.26054 21.4688 1.84387 21.4688C1.82369 21.0819 1.84452 20.7069 1.90637 20.3438Z" fill="#36716E"/>
<path fill-rule="evenodd" clip-rule="evenodd" d="M1.90625 20.3438C3.28125 20.3438 4.65625 20.3438 6.03125 20.3438C6.03125 20.6979 6.03125 21.0521 6.03125 21.4062C4.65625 21.4062 3.28125 21.4062 1.90625 21.4062C1.90625 21.0521 1.90625 20.6979 1.90625 20.3438Z" fill="#5EC6C0"/>
<path opacity="0.763" fill-rule="evenodd" clip-rule="evenodd" d="M25.7812 22.7188C27.2396 22.7188 28.6979 22.7188 30.1562 22.7188C30.1562 23.1354 30.1562 23.5521 30.1562 23.9688C28.6979 23.9688 27.2396 23.9688 25.7812 23.9688C25.7812 23.5521 25.7812 23.1354 25.7812 22.7188Z" fill="black"/>
<path fill-rule="evenodd" clip-rule="evenodd" d="M30.0314 23.9062C30.0314 23.5521 30.0314 23.1979 30.0314 22.8438C28.6564 22.8438 27.2814 22.8438 25.9064 22.8438C25.9064 23.1979 25.9064 23.5521 25.9064 23.9062C25.8445 23.5431 25.8237 23.1681 25.8439 22.7812C27.2606 22.7812 28.6772 22.7812 30.0939 22.7812C30.1141 23.1681 30.0933 23.5431 30.0314 23.9062Z" fill="#2B6664"/>
<path fill-rule="evenodd" clip-rule="evenodd" d="M30.0312 23.9062C28.6562 23.9062 27.2812 23.9062 25.9062 23.9062C25.9062 23.5521 25.9062 23.1979 25.9062 22.8438C27.2812 22.8438 28.6562 22.8438 30.0312 22.8438C30.0312 23.1979 30.0312 23.5521 30.0312 23.9062Z" fill="#45A29D"/>
<path opacity="0.797" fill-rule="evenodd" clip-rule="evenodd" d="M3.65625 23.3438C4.48958 23.3438 5.32292 23.3438 6.15625 23.3438C6.15625 23.7604 6.15625 24.1771 6.15625 24.5938C5.32292 24.5938 4.48958 24.5938 3.65625 24.5938C3.65625 24.1771 3.65625 23.7604 3.65625 23.3438Z" fill="#080F0E"/>
<path fill-rule="evenodd" clip-rule="evenodd" d="M3.71875 23.4062C4.48958 23.4062 5.26042 23.4062 6.03125 23.4062C6.03125 23.7812 6.03125 24.1562 6.03125 24.5312C5.26042 24.5312 4.48958 24.5312 3.71875 24.5312C3.71875 24.1562 3.71875 23.7812 3.71875 23.4062Z" fill="#58BCB6"/>
<path fill-rule="evenodd" clip-rule="evenodd" d="M24.4688 7.40625C24.5312 13.1041 24.5521 18.8124 24.5312 24.5312C18.8124 24.5521 13.1041 24.5312 7.40625 24.4688C8.38544 24.4688 9.36456 24.4688 10.3438 24.4688C11.2188 24.4688 12.0938 24.4688 12.9688 24.4688C14.4688 24.4688 15.9688 24.4688 17.4688 24.4688C19.8021 24.4688 22.1354 24.4688 24.4688 24.4688C24.4688 22.1562 24.4688 19.8438 24.4688 17.5312C24.4688 16.0312 24.4688 14.5312 24.4688 13.0312C24.4688 12.1771 24.4688 11.3229 24.4688 10.4688C24.4688 9.44794 24.4688 8.42706 24.4688 7.40625Z" fill="#3B8885"/>
<path opacity="0.797" fill-rule="evenodd" clip-rule="evenodd" d="M7.34375 25.7812C7.76044 25.7812 8.17706 25.7812 8.59375 25.7812C8.59375 26.6146 8.59375 27.4479 8.59375 28.2812C8.17706 28.2812 7.76044 28.2812 7.34375 28.2812C7.34375 27.4479 7.34375 26.6146 7.34375 25.7812Z" fill="black"/>
<path opacity="0.366" fill-rule="evenodd" clip-rule="evenodd" d="M10.4062 25.7812C10.8438 25.7812 11.2812 25.7812 11.7188 25.7812C11.7188 27.2396 11.7188 28.6979 11.7188 30.1562C11.2812 30.1562 10.8438 30.1562 10.4062 30.1562C10.4062 28.6979 10.4062 27.2396 10.4062 25.7812Z" fill="#010202"/>
<path opacity="0.455" fill-rule="evenodd" clip-rule="evenodd" d="M13.4688 25.7812C13.9062 25.7812 14.3438 25.7812 14.7812 25.7812C14.7812 26.6146 14.7812 27.4479 14.7812 28.2812C14.3438 28.2812 13.9062 28.2812 13.4688 28.2812C13.4688 27.4479 13.4688 26.6146 13.4688 25.7812Z" fill="black"/>
<path opacity="0.366" fill-rule="evenodd" clip-rule="evenodd" d="M16.5312 25.7812C16.9688 25.7812 17.4062 25.7812 17.8438 25.7812C17.8438 27.2396 17.8438 28.6979 17.8438 30.1562C17.4062 30.1562 16.9688 30.1562 16.5312 30.1562C16.5312 28.6979 16.5312 27.2396 16.5312 25.7812Z" fill="#020706"/>
<path opacity="0.797" fill-rule="evenodd" clip-rule="evenodd" d="M19.6562 25.7812C20.0729 25.7812 20.4896 25.7812 20.9062 25.7812C20.9062 26.6146 20.9062 27.4479 20.9062 28.2812C20.4896 28.2812 20.0729 28.2812 19.6562 28.2812C19.6562 27.4479 19.6562 26.6146 19.6562 25.7812Z" fill="black"/>
<path opacity="0.763" fill-rule="evenodd" clip-rule="evenodd" d="M22.7188 25.7812C23.1354 25.7812 23.5521 25.7812 23.9688 25.7812C23.9688 27.2396 23.9688 28.6979 23.9688 30.1562C23.5521 30.1562 23.1354 30.1562 22.7188 30.1562C22.7188 28.6979 22.7188 27.2396 22.7188 25.7812Z" fill="black"/>
<path fill-rule="evenodd" clip-rule="evenodd" d="M14.6561 28.2188C14.6561 27.4479 14.6561 26.6771 14.6561 25.9062C14.3019 25.9062 13.9478 25.9062 13.5936 25.9062C13.5936 26.6771 13.5936 27.4479 13.5936 28.2188C13.5314 27.4382 13.5105 26.6465 13.5311 25.8438C13.9269 25.8438 14.3228 25.8438 14.7186 25.8438C14.7392 26.6465 14.7183 27.4382 14.6561 28.2188Z" fill="#183837"/>
<path fill-rule="evenodd" clip-rule="evenodd" d="M19.7188 25.9062C20.0729 25.9062 20.4271 25.9062 20.7812 25.9062C20.7812 26.6771 20.7812 27.4479 20.7812 28.2188C20.4271 28.2188 20.0729 28.2188 19.7188 28.2188C19.7188 27.4479 19.7188 26.6771 19.7188 25.9062Z" fill="#44A19D"/>
<path fill-rule="evenodd" clip-rule="evenodd" d="M19.7188 25.9061C20.0819 25.8443 20.4569 25.8234 20.8438 25.8436C20.8643 26.6464 20.8434 27.4381 20.7812 28.2186C20.7812 27.4478 20.7812 26.6769 20.7812 25.9061C20.4271 25.9061 20.0729 25.9061 19.7188 25.9061Z" fill="#2F706D"/>
<path fill-rule="evenodd" clip-rule="evenodd" d="M23.9062 25.9061C23.5521 25.9061 23.1979 25.9061 22.8438 25.9061C22.8438 27.2811 22.8438 28.6561 22.8438 30.0311C23.1979 30.0311 23.5521 30.0311 23.9062 30.0311C23.5431 30.093 23.1681 30.1138 22.7812 30.0936C22.7812 28.6769 22.7812 27.2603 22.7812 25.8436C23.1681 25.8234 23.5431 25.8443 23.9062 25.9061Z" fill="#2B6664"/>
<path fill-rule="evenodd" clip-rule="evenodd" d="M23.9062 25.9062C23.9062 27.2812 23.9062 28.6562 23.9062 30.0312C23.5521 30.0312 23.1979 30.0312 22.8438 30.0312C22.8438 28.6562 22.8438 27.2812 22.8438 25.9062C23.1979 25.9062 23.5521 25.9062 23.9062 25.9062Z" fill="#45A29D"/>
<path fill-rule="evenodd" clip-rule="evenodd" d="M14.6562 28.2188C14.3021 28.2188 13.9479 28.2188 13.5938 28.2188C13.5938 27.4479 13.5938 26.6771 13.5938 25.9062C13.9479 25.9062 14.3021 25.9062 14.6562 25.9062C14.6562 26.6771 14.6562 27.4479 14.6562 28.2188Z" fill="#48A7A3"/>
<path fill-rule="evenodd" clip-rule="evenodd" d="M16.6562 25.9061C17.0194 25.8443 17.3944 25.8234 17.7812 25.8436C17.7812 27.2603 17.7812 28.6769 17.7812 30.0936C17.3944 30.1138 17.0194 30.093 16.6562 30.0311C17.0104 30.0311 17.3646 30.0311 17.7188 30.0311C17.7188 28.6561 17.7188 27.2811 17.7188 25.9061C17.3646 25.9061 17.0104 25.9061 16.6562 25.9061Z" fill="#235351"/>
<path fill-rule="evenodd" clip-rule="evenodd" d="M7.40625 25.8438C7.78125 25.8438 8.15625 25.8438 8.53125 25.8438C8.53125 26.6354 8.53125 27.4271 8.53125 28.2188C8.15625 28.2188 7.78125 28.2188 7.40625 28.2188C7.40625 27.4271 7.40625 26.6354 7.40625 25.8438Z" fill="#4EADA8"/>
<path fill-rule="evenodd" clip-rule="evenodd" d="M11.5938 25.9062C11.5938 27.2812 11.5938 28.6562 11.5938 30.0312C11.2396 30.0312 10.8854 30.0312 10.5312 30.0312C10.5312 28.6562 10.5312 27.2812 10.5312 25.9062C10.8854 25.9062 11.2396 25.9062 11.5938 25.9062Z" fill="#4BABA6"/>
<path fill-rule="evenodd" clip-rule="evenodd" d="M11.5938 25.9061C11.2396 25.9061 10.8854 25.9061 10.5312 25.9061C10.5312 27.2811 10.5312 28.6561 10.5312 30.0311C10.8854 30.0311 11.2396 30.0311 11.5938 30.0311C11.2306 30.093 10.8556 30.1138 10.4688 30.0936C10.4688 28.6769 10.4688 27.2603 10.4688 25.8436C10.8556 25.8234 11.2306 25.8443 11.5938 25.9061Z" fill="#2C6462"/>
<path fill-rule="evenodd" clip-rule="evenodd" d="M16.6562 25.9062C17.0104 25.9062 17.3646 25.9062 17.7188 25.9062C17.7188 27.2812 17.7188 28.6562 17.7188 30.0312C17.3646 30.0312 17.0104 30.0312 16.6562 30.0312C16.6562 28.6562 16.6562 27.2812 16.6562 25.9062Z" fill="#45A29E"/>
</svg>
