<svg width="32" height="32" viewBox="0 0 32 32" fill="none" xmlns="http://www.w3.org/2000/svg">
    <g clip-path="url(#clip0_811_58)">
        <path opacity="0.989" fill-rule="evenodd" clip-rule="evenodd"
            d="M5.86672 -0.059082C12.6223 -0.059082 19.3778 -0.059082 26.1334 -0.059082C29.0839 0.797533 31.0197 2.69383 31.9408 5.62981C31.9408 12.5039 31.9408 19.378 31.9408 26.252C31.0412 29.0873 29.1844 30.9836 26.3704 31.9409C19.4173 31.9409 12.4643 31.9409 5.51117 31.9409C2.69504 30.9816 0.838248 29.0853 -0.0592041 26.252C-0.0592041 19.4174 -0.0592041 12.5829 -0.0592041 5.74833C0.818569 2.69775 2.79388 0.761954 5.86672 -0.059082Z"
            fill="#3B62B2" />
        <path fill-rule="evenodd" clip-rule="evenodd"
            d="M27.3185 12.3852C27.341 12.7828 27.4595 13.1384 27.674 13.4519C28.5201 18.1374 27.2164 22.1078 23.7629 25.363C23.183 25.8305 22.5508 26.2059 21.8666 26.4889C21.779 26.5044 21.7 26.4846 21.6296 26.4296C21.7339 26.2689 21.7735 26.0912 21.7481 25.8963C21.9371 25.4541 21.8977 25.0393 21.6296 24.6519C20.6763 24.8202 19.7084 24.9189 18.7259 24.9482C17.6953 24.9324 16.6878 24.7744 15.7037 24.4741C11.4018 22.5101 9.40677 19.1521 9.71848 14.4C10.412 10.7646 12.4861 8.31521 15.9407 7.05187C19.5606 6.06549 22.7408 6.85562 25.4814 9.42224C26.2746 10.2973 26.887 11.2849 27.3185 12.3852Z"
            fill="#FDFEFE" />
        <path fill-rule="evenodd" clip-rule="evenodd"
            d="M15.9407 7.052C12.4862 8.31534 10.412 10.7647 9.71851 14.4002C9.4068 19.1523 11.4019 22.5103 15.7037 24.4742C10.7367 25.6943 7.08239 24.035 4.74073 19.4964C3.00899 14.9464 4.0559 11.1736 7.88147 8.17793C10.3909 6.50246 13.0773 6.12716 15.9407 7.052Z"
            fill="#9CAFD7" />
        <path fill-rule="evenodd" clip-rule="evenodd"
            d="M27.3185 12.3853C27.5522 12.6915 27.6707 13.0471 27.674 13.4519C27.4595 13.1384 27.341 12.7829 27.3185 12.3853Z"
            fill="#C3CEE7" />
        <path fill-rule="evenodd" clip-rule="evenodd"
            d="M19.4963 21.5113C19.9163 21.7565 20.3508 21.7959 20.8 21.6298C21.7348 21.5442 22.3867 21.0701 22.7555 20.2076C23.092 19.8628 23.3488 19.9024 23.5259 20.3261C22.7328 22.0463 21.3896 22.7377 19.4963 22.4001C19.1598 22.3123 18.9228 22.1149 18.7852 21.8076C18.9097 21.4174 19.1468 21.3187 19.4963 21.5113Z"
            fill="#4569B5" />
        <path fill-rule="evenodd" clip-rule="evenodd"
            d="M19.4963 21.5112C19.9272 21.584 20.3618 21.6236 20.8 21.6297C20.3509 21.7959 19.9164 21.7564 19.4963 21.5112Z"
            fill="#9FB1D9" />
        <path fill-rule="evenodd" clip-rule="evenodd"
            d="M21.7481 25.8965C21.7735 26.0913 21.7339 26.2691 21.6296 26.4298C21.7 26.4848 21.7791 26.5046 21.8667 26.4891C21.7826 26.5962 21.6641 26.6357 21.5111 26.6076C21.5224 26.3367 21.6014 26.0996 21.7481 25.8965Z"
            fill="#C9D3EA" />
    </g>
    <defs>
        <clipPath id="clip0_811_58">
            <rect width="32" height="32" fill="white" />
        </clipPath>
    </defs>
</svg>