<svg width="32" height="32" viewBox="0 0 32 32" fill="none" xmlns="http://www.w3.org/2000/svg">
<g clip-path="url(#clip0_24_311)">
<path opacity="0.992" fill-rule="evenodd" clip-rule="evenodd" d="M16.48 0.586669C16.3617 0.670933 16.2195 0.724266 16.0533 0.746669C18.4974 4.86221 20.8974 9.00443 23.2533 13.1733C23.5314 13.2398 23.7981 13.3109 24.0533 13.3867C23.3896 13.2995 22.7851 13.4417 22.24 13.8133C21.8113 13.0655 21.3847 12.3188 20.96 11.5733C21.4035 9.52867 20.5858 8.42646 18.5067 8.26667C17.1319 5.83778 15.7274 3.42001 14.2933 1.01334C14.2418 0.912214 14.2241 0.805547 14.24 0.693336C14.9773 0.590707 15.724 0.555151 16.48 0.586669Z" fill="#B93995"/>
<path opacity="0.996" fill-rule="evenodd" clip-rule="evenodd" d="M16.4799 0.586713C16.9472 0.573034 17.4095 0.608589 17.8666 0.693379C17.9933 0.785499 18.1178 0.892165 18.2399 1.01338C20.6542 5.20679 23.072 9.40235 25.4932 13.6C25.6008 13.7627 25.6542 13.9405 25.6532 14.1334C25.2101 13.7007 24.6768 13.4519 24.0532 13.3867C23.798 13.311 23.5313 13.2398 23.2532 13.1734C20.8973 9.00447 18.4973 4.86225 16.0532 0.746713C16.2194 0.724309 16.3616 0.670976 16.4799 0.586713Z" fill="#C33995"/>
<path opacity="0.996" fill-rule="evenodd" clip-rule="evenodd" d="M14.2401 0.693359C14.2242 0.805571 14.2419 0.912237 14.2934 1.01336C15.7275 3.42004 17.132 5.83781 18.5068 8.26669C17.9658 8.37707 17.5036 8.62596 17.1201 9.01336C15.5923 6.31358 14.0634 3.61136 12.5334 0.906693C13.0995 0.818149 13.6685 0.747037 14.2401 0.693359Z" fill="#AD3896"/>
<path opacity="0.997" fill-rule="evenodd" clip-rule="evenodd" d="M17.8667 0.693359C18.276 0.739318 18.667 0.810429 19.04 0.906693C19.4617 1.0976 19.7639 1.4176 19.9467 1.86669C23.469 8.05946 27.0424 14.2106 30.6667 20.32C30.5851 20.6582 30.4784 20.9782 30.3467 21.28C30.1941 21.3207 30.1052 21.4273 30.08 21.6C28.8135 19.421 27.5513 17.2521 26.2934 15.0934C26.0836 14.7758 25.8702 14.4558 25.6534 14.1334C25.6543 13.9405 25.601 13.7627 25.4934 13.6C23.0721 9.40233 20.6543 5.20677 18.24 1.01336C18.1179 0.892146 17.9934 0.785479 17.8667 0.693359Z" fill="#CB3995"/>
<path opacity="0.994" fill-rule="evenodd" clip-rule="evenodd" d="M19.04 0.906616C19.6552 1.00504 20.2597 1.14727 20.8534 1.33328C24.1281 7.27952 27.506 13.1817 30.9867 19.0399C30.9338 19.4828 30.8271 19.9095 30.6667 20.32C27.0424 14.2105 23.4691 8.05938 19.9467 1.86662C19.7639 1.41753 19.4617 1.09753 19.04 0.906616Z" fill="#D13994"/>
<path opacity="0.993" fill-rule="evenodd" clip-rule="evenodd" d="M12.5332 0.906616C14.0632 3.61129 15.5921 6.31351 17.1199 9.01328C16.7666 9.43771 16.3755 9.82881 15.9466 10.1866C15.4821 9.79326 15.0555 9.36659 14.6666 8.90662C14.7695 8.77637 14.7517 8.63415 14.6132 8.47995C13.2907 6.25161 11.993 4.01161 10.7199 1.75995C10.6319 1.66547 10.5252 1.62992 10.3999 1.65328C11.0738 1.32187 11.7849 1.07297 12.5332 0.906616Z" fill="#A23896"/>
<path opacity="0.991" fill-rule="evenodd" clip-rule="evenodd" d="M20.8533 1.33337C21.3674 1.52781 21.8652 1.74114 22.3466 1.97337C22.3299 2.11987 22.3477 2.2621 22.3999 2.40004C25.3656 7.44405 28.2989 12.4929 31.1999 17.5467C31.1749 18.0524 31.1037 18.5502 30.9866 19.04C27.5059 13.1818 24.128 7.27961 20.8533 1.33337Z" fill="#D73994"/>
<path opacity="0.993" fill-rule="evenodd" clip-rule="evenodd" d="M10.3999 1.65331C10.5253 1.62995 10.6319 1.6655 10.7199 1.75998C11.993 4.01163 13.2907 6.25163 14.6133 8.47998C14.7517 8.63417 14.7695 8.77639 14.6666 8.90664C14.1949 8.54659 13.6616 8.33326 13.0666 8.26664C11.8846 6.15144 10.6758 4.05366 9.43994 1.97331C9.74947 1.83638 10.0695 1.72971 10.3999 1.65331Z" fill="#993796"/>
<path opacity="0.982" fill-rule="evenodd" clip-rule="evenodd" d="M22.3467 1.97339C22.9707 2.20882 23.5396 2.52882 24.0533 2.93339C23.9745 2.91942 23.9034 2.9372 23.84 2.98672C26.2644 7.02611 28.6288 11.0972 30.9333 15.2001C31.0143 15.3668 31.1388 15.4734 31.3067 15.5201C31.3411 16.2157 31.3056 16.8913 31.2 17.5467C28.299 12.493 25.3657 7.44407 22.4 2.40006C22.3477 2.26211 22.3299 2.11988 22.3467 1.97339Z" fill="#DD3A94"/>
<path opacity="0.99" fill-rule="evenodd" clip-rule="evenodd" d="M9.44009 1.97339C10.6759 4.05374 11.8848 6.15152 13.0668 8.26672C12.3375 8.29367 11.733 8.57811 11.2534 9.12006C11.0551 8.61623 10.824 8.11844 10.5601 7.62672C9.62545 6.0773 8.71879 4.51287 7.84009 2.93339C8.31654 2.53447 8.84987 2.21447 9.44009 1.97339Z" fill="#8E3696"/>
<path opacity="0.97" fill-rule="evenodd" clip-rule="evenodd" d="M24.0534 2.93332C27.4973 5.05118 29.7551 8.0734 30.8268 12C31.1028 13.1584 31.2628 14.3317 31.3068 15.52C31.1389 15.4734 31.0144 15.3667 30.9334 15.2C28.6289 11.0972 26.2645 7.02605 23.8401 2.98666C23.9034 2.93713 23.9746 2.91935 24.0534 2.93332Z" fill="#E53A93"/>
<path opacity="0.991" fill-rule="evenodd" clip-rule="evenodd" d="M7.83997 2.93335C8.71867 4.51283 9.62533 6.07726 10.56 7.62668C10.8239 8.11841 11.055 8.61619 11.2533 9.12002C10.5717 10.0613 10.554 11.0213 11.2 12C11.6994 12.4816 12.1794 12.9793 12.64 13.4933C12.4244 13.7801 12.1755 14.0289 11.8933 14.24C10.0016 10.8478 8.08157 7.47004 6.1333 4.10668C6.64299 3.63307 7.21188 3.24196 7.83997 2.93335Z" fill="#823697"/>
<path opacity="0.996" fill-rule="evenodd" clip-rule="evenodd" d="M6.13325 4.10669C8.08152 7.47005 10.0015 10.8478 11.8932 14.24C11.6466 14.5578 11.3622 14.8423 11.0399 15.0934C10.4575 14.474 9.81749 13.9407 9.11992 13.4934C9.19873 13.5073 9.26985 13.4895 9.33325 13.44C7.73436 10.7931 6.20547 8.10866 4.74658 5.38669C5.14195 4.88453 5.60417 4.45787 6.13325 4.10669Z" fill="#753597"/>
<path opacity="0.992" fill-rule="evenodd" clip-rule="evenodd" d="M4.74677 5.38672C6.20566 8.10869 7.73455 10.7931 9.33344 13.4401C9.27004 13.4895 9.19892 13.5074 9.12011 13.4934C8.38991 13.3186 7.67881 13.3541 6.98677 13.6001C5.81624 11.4366 4.60735 9.30335 3.36011 7.20005C3.74129 6.53432 4.20352 5.92988 4.74677 5.38672Z" fill="#693497"/>
<path opacity="0.99" fill-rule="evenodd" clip-rule="evenodd" d="M3.3601 7.19995C4.60734 9.30325 5.81623 11.4365 6.98677 13.6C6.37373 13.9639 5.91151 14.4616 5.6001 15.0933C4.51591 13.0666 3.37814 11.0755 2.18677 9.11995C2.47114 8.40788 2.86226 7.76788 3.3601 7.19995Z" fill="#5C3398"/>
<path fill-rule="evenodd" clip-rule="evenodd" d="M13.0666 8.26672C13.6616 8.33334 14.1949 8.54667 14.6666 8.90672C15.0555 9.3667 15.4822 9.79337 15.9466 10.1867C16.3755 9.82892 16.7667 9.43782 17.1199 9.01339C17.5034 8.62599 17.9656 8.3771 18.5066 8.26672C20.5858 8.42651 21.4035 9.52873 20.9599 11.5734C20.4732 12.2209 19.9222 12.8252 19.3066 13.3867C19.7109 14.0237 20.2264 14.5927 20.8533 15.0934C21.3205 14.6614 21.7827 14.2347 22.2399 13.8134C22.785 13.4418 23.3895 13.2996 24.0533 13.3867C24.6769 13.4519 25.2102 13.7008 25.6533 14.1334C25.8701 14.4558 26.0835 14.7758 26.2933 15.0934C26.4455 16.0833 26.2322 16.9721 25.6533 17.7601C25.2305 18.0957 24.7682 18.3446 24.2666 18.5067C23.6775 18.5527 23.1086 18.4815 22.5599 18.2934C21.9643 17.8408 21.3954 17.3431 20.8533 16.8001C20.4955 17.0868 20.1755 17.4068 19.8933 17.7601C19.6467 17.9356 19.4333 18.149 19.2533 18.4001C19.7139 18.9141 20.1939 19.4118 20.6933 19.8934C21.0775 20.6019 21.1663 21.3485 20.9599 22.1334C20.6631 22.8217 20.1653 23.2839 19.4666 23.5201C18.5073 23.7336 17.6894 23.4846 17.0133 22.7734C16.6955 22.3845 16.34 22.029 15.9466 21.7067C15.4822 22.1001 15.0555 22.5268 14.6666 22.9867C14.1256 23.3686 13.5211 23.5819 12.8533 23.6267C11.2104 23.1875 10.5349 22.1208 10.8266 20.4267C11.349 19.7436 11.9356 19.1036 12.5866 18.5067C12.6578 18.4356 12.6578 18.3645 12.5866 18.2934C12.0841 17.7551 11.5508 17.2573 10.9866 16.8001C10.467 17.2274 9.98703 17.6895 9.54661 18.1867C8.97134 18.4405 8.3669 18.5471 7.73328 18.5067C5.99774 18.0243 5.28663 16.8865 5.59995 15.0934C5.91136 14.4617 6.37358 13.964 6.98661 13.6001C7.67865 13.3541 8.38975 13.3186 9.11995 13.4934C9.81753 13.9408 10.4575 14.4741 11.0399 15.0934C11.3622 14.8423 11.6467 14.5578 11.8933 14.2401C12.1755 14.029 12.4244 13.7801 12.6399 13.4934C12.1794 12.9794 11.6994 12.4817 11.1999 12.0001C10.5539 11.0214 10.5717 10.0614 11.2533 9.12006C11.7329 8.57812 12.3373 8.29367 13.0666 8.26672Z" fill="#FCF9FC"/>
<path fill-rule="evenodd" clip-rule="evenodd" d="M12.5333 9.44004C12.9395 9.40412 13.3306 9.45745 13.7067 9.60004C14.1883 10.0639 14.6506 10.5439 15.0933 11.04C14.5955 11.6089 14.0622 12.1422 13.4933 12.64C12.8795 12.1511 12.364 11.5822 11.9467 10.9334C11.8755 10.6845 11.8755 10.4356 11.9467 10.1867C12.1244 9.9205 12.32 9.67162 12.5333 9.44004Z" fill="#923A98"/>
<path opacity="0.993" fill-rule="evenodd" clip-rule="evenodd" d="M2.18656 9.12C3.37793 11.0755 4.5157 13.0667 5.5999 15.0933C5.28657 16.8864 5.99769 18.0242 7.73323 18.5067C10.1314 22.8052 12.5847 27.0719 15.0932 31.3067C14.1874 31.2446 13.2986 31.1023 12.4266 30.88C8.68721 24.3949 4.95388 17.9237 1.22656 11.4667C1.4653 10.642 1.7853 9.85975 2.18656 9.12Z" fill="#503398"/>
<path fill-rule="evenodd" clip-rule="evenodd" d="M18.2934 9.44005C19.7465 9.37979 20.2265 10.0198 19.7334 11.36C19.3051 11.8061 18.8606 12.2328 18.4 12.64C17.8102 12.1391 17.2768 11.588 16.8 10.9867C17.2435 10.4188 17.7413 9.90325 18.2934 9.44005Z" fill="#AB3D98"/>
<path fill-rule="evenodd" clip-rule="evenodd" d="M15.7333 11.8933C16.4279 12.3021 17.0323 12.8354 17.5467 13.4933C17.0489 14.0622 16.5155 14.5955 15.9467 15.0933C15.3778 14.5955 14.8445 14.0622 14.3467 13.4933C14.7714 12.9264 15.2337 12.393 15.7333 11.8933Z" fill="#953A97"/>
<path fill-rule="evenodd" clip-rule="evenodd" d="M20.96 11.5734C21.3846 12.3189 21.8113 13.0655 22.24 13.8134C21.7827 14.2347 21.3205 14.6614 20.8533 15.0934C20.2264 14.5927 19.7109 14.0237 19.3066 13.3867C19.9222 12.8252 20.4733 12.2208 20.96 11.5734Z" fill="#AE3B97"/>
<path opacity="0.995" fill-rule="evenodd" clip-rule="evenodd" d="M1.22667 11.4667C4.95399 17.9237 8.68732 24.3949 12.4267 30.88C11.5245 30.7118 10.6712 30.4274 9.86667 30.0267C6.84504 25.0449 3.87614 19.9605 0.960003 14.7733C0.879053 14.6066 0.754608 14.5 0.58667 14.4533C0.713401 13.4401 0.926734 12.4445 1.22667 11.4667Z" fill="#433298"/>
<path opacity="0.995" fill-rule="evenodd" clip-rule="evenodd" d="M0.58667 14.4534C0.754608 14.5 0.879053 14.6066 0.960003 14.7734C3.87614 19.9606 6.84504 25.0449 9.86667 30.0267C8.86423 29.7213 7.97534 29.2235 7.2 28.5334C7.30289 28.4031 7.28512 28.2609 7.14667 28.1067C5.03444 24.4424 2.9011 20.7801 0.74667 17.12C0.705861 17.1793 0.652528 17.2149 0.58667 17.2267C0.58667 16.3022 0.58667 15.3778 0.58667 14.4534Z" fill="#3B3198"/>
<path fill-rule="evenodd" clip-rule="evenodd" d="M13.3866 14.3467C14.0183 14.8001 14.5872 15.3335 15.0933 15.9467C14.5955 16.5155 14.0622 17.0489 13.4933 17.5467C12.9034 17.0458 12.3701 16.4946 11.8933 15.8933C12.38 15.3616 12.8778 14.8461 13.3866 14.3467Z" fill="#813898"/>
<path fill-rule="evenodd" clip-rule="evenodd" d="M23.3068 14.4534C24.9359 14.498 25.4869 15.2801 24.9601 16.8C24.4489 17.3972 23.8267 17.5572 23.0935 17.28C22.5799 16.8909 22.1177 16.4464 21.7068 15.9467C22.178 15.3682 22.7114 14.8705 23.3068 14.4534Z" fill="#B83C97"/>
<path fill-rule="evenodd" clip-rule="evenodd" d="M7.62665 14.4533C8.18152 14.374 8.6793 14.4985 9.11998 14.8267C9.495 15.1839 9.85057 15.5572 10.1867 15.9467C9.72058 16.6091 9.11613 17.0891 8.37332 17.3867C7.09803 17.3548 6.54692 16.697 6.71998 15.4133C6.97195 15.0371 7.27417 14.7171 7.62665 14.4533Z" fill="#65389A"/>
<path fill-rule="evenodd" clip-rule="evenodd" d="M18.2934 14.3467C18.9251 14.8001 19.4939 15.3335 20 15.9467C19.5022 16.5155 18.9689 17.0489 18.4 17.5467C17.8312 17.0489 17.2979 16.5155 16.8 15.9467C17.3001 15.4112 17.7979 14.8779 18.2934 14.3467Z" fill="#9A3896"/>
<path opacity="0.997" fill-rule="evenodd" clip-rule="evenodd" d="M26.2933 15.0934C27.5512 17.2521 28.8134 19.4211 30.08 21.6001C30.1052 21.4274 30.194 21.3207 30.3467 21.2801C30.0549 22.1606 29.6638 22.9784 29.1733 23.7334C27.9478 21.7812 26.7745 19.7901 25.6533 17.7601C26.2322 16.9721 26.4455 16.0833 26.2933 15.0934Z" fill="#C13995"/>
<path opacity="0.973" fill-rule="evenodd" clip-rule="evenodd" d="M7.2 28.5333C4.3248 26.5911 2.35147 23.9601 1.28 20.64C0.927478 19.5259 0.696367 18.388 0.58667 17.2267C0.652528 17.2148 0.705861 17.1793 0.74667 17.12C2.9011 20.78 5.03444 24.4423 7.14667 28.1067C7.28512 28.2609 7.30289 28.4031 7.2 28.5333Z" fill="#323098"/>
<path opacity="0.996" fill-rule="evenodd" clip-rule="evenodd" d="M22.56 18.2934C24.1144 21.0105 25.6433 23.7483 27.1466 26.5067C26.722 26.9667 26.2598 27.3933 25.76 27.7867C23.8079 24.4467 21.8524 21.1044 19.8933 17.76C20.1756 17.4068 20.4956 17.0868 20.8533 16.8C21.3954 17.3431 21.9644 17.8408 22.56 18.2934Z" fill="#A13796"/>
<path fill-rule="evenodd" clip-rule="evenodd" d="M10.8266 20.4267C10.5333 19.6978 10.1777 18.9866 9.75996 18.2934C9.71123 18.2083 9.64011 18.1727 9.54663 18.1867C9.98705 17.6895 10.467 17.2274 10.9866 16.8C11.5508 17.2573 12.0841 17.7551 12.5866 18.2934C12.6578 18.3645 12.6578 18.4356 12.5866 18.5067C11.9356 19.1036 11.349 19.7436 10.8266 20.4267Z" fill="#6B3798"/>
<path fill-rule="evenodd" clip-rule="evenodd" d="M15.84 16.8C16.4717 17.2535 17.0405 17.7868 17.5467 18.4C17.0489 18.9689 16.5155 19.5022 15.9467 20C15.3778 19.5022 14.8445 18.9689 14.3467 18.4C14.8467 17.8646 15.3445 17.3312 15.84 16.8Z" fill="#843797"/>
<path opacity="0.996" fill-rule="evenodd" clip-rule="evenodd" d="M19.8934 17.76C21.8525 21.1043 23.808 24.4466 25.7601 27.7867C25.5434 28.0024 25.2945 28.1802 25.0134 28.32C24.9072 28.3108 24.8183 28.3465 24.7468 28.4267C23.6019 26.5342 22.4997 24.6142 21.4401 22.6667C21.3263 22.4329 21.1663 22.2552 20.9601 22.1333C21.1665 21.3485 21.0776 20.6018 20.6934 19.8933C20.194 19.4117 19.714 18.914 19.2534 18.4C19.4335 18.1489 19.6468 17.9356 19.8934 17.76Z" fill="#9A3896"/>
<path opacity="0.991" fill-rule="evenodd" clip-rule="evenodd" d="M25.6533 17.76C26.7744 19.7901 27.9478 21.7811 29.1733 23.7333C28.9415 24.1976 28.657 24.6242 28.3199 25.0133C28.1137 24.8915 27.9537 24.7138 27.8399 24.48C26.7463 22.6129 25.6796 20.7284 24.6399 18.8267C24.559 18.66 24.4345 18.5533 24.2666 18.5067C24.7681 18.3445 25.2304 18.0957 25.6533 17.76Z" fill="#B73895"/>
<path opacity="0.994" fill-rule="evenodd" clip-rule="evenodd" d="M22.5601 18.2933C23.1088 18.4815 23.6776 18.5526 24.2667 18.5067C24.4346 18.5533 24.5591 18.6599 24.6401 18.8267C25.6797 20.7284 26.7464 22.6129 27.8401 24.48C27.9539 24.7138 28.1139 24.8915 28.3201 25.0133C27.9664 25.5443 27.5752 26.0421 27.1467 26.5067C25.6434 23.7483 24.1145 21.0105 22.5601 18.2933Z" fill="#AD3896"/>
<path opacity="0.994" fill-rule="evenodd" clip-rule="evenodd" d="M9.54673 18.1867C9.64021 18.1727 9.71133 18.2082 9.76007 18.2933C10.1778 18.9866 10.5334 19.6977 10.8267 20.4267C10.535 22.1208 11.2105 23.1874 12.8534 23.6267C14.1235 25.8765 15.4213 28.1165 16.7467 30.3467C16.9304 30.6431 17.0549 30.9631 17.1201 31.3067C16.4445 31.3067 15.7689 31.3067 15.0934 31.3067C12.5849 27.0719 10.1316 22.8052 7.7334 18.5067C8.36702 18.5471 8.97146 18.4404 9.54673 18.1867Z" fill="#5D3398"/>
<path fill-rule="evenodd" clip-rule="evenodd" d="M18.2934 19.2533C18.9268 19.6909 19.4779 20.2243 19.9467 20.8533C20.0307 22.1562 19.444 22.6362 18.1867 22.2933C17.7051 21.8295 17.2428 21.3495 16.8 20.8533C17.3001 20.3178 17.7979 19.7845 18.2934 19.2533Z" fill="#8D3998"/>
<path fill-rule="evenodd" clip-rule="evenodd" d="M13.3866 19.2533C14.0183 19.7067 14.5871 20.2401 15.0933 20.8533C14.6505 21.3495 14.1882 21.8295 13.7066 22.2933C12.4493 22.6362 11.8627 22.1562 11.9466 20.8533C12.4092 20.3019 12.8892 19.7686 13.3866 19.2533Z" fill="#703798"/>
<path opacity="0.993" fill-rule="evenodd" clip-rule="evenodd" d="M17.0134 22.7733C16.9975 22.8855 17.0152 22.9922 17.0667 23.0933C18.3752 25.3194 19.6552 27.5594 20.9067 29.8133C21.0408 30.0529 21.2363 30.1951 21.4934 30.24C20.8328 30.5835 20.1218 30.7968 19.3601 30.88C18.041 28.635 16.7432 26.3595 15.4667 24.0533C15.2216 23.6641 14.955 23.3086 14.6667 22.9867C15.0557 22.5267 15.4823 22.1001 15.9467 21.7067C16.3401 22.0289 16.6957 22.3844 17.0134 22.7733Z" fill="#753597"/>
<path opacity="0.993" fill-rule="evenodd" clip-rule="evenodd" d="M17.0134 22.7733C17.6896 23.4846 18.5074 23.7335 19.4668 23.52C19.5734 23.52 19.6801 23.52 19.7868 23.52C19.7709 23.6322 19.7886 23.7389 19.8401 23.84C20.9644 25.7346 22.0844 27.6191 23.2001 29.4933C22.6656 29.7955 22.0968 30.0445 21.4934 30.24C21.2364 30.1951 21.0409 30.0529 20.9068 29.8133C19.6553 27.5593 18.3753 25.3193 17.0668 23.0933C17.0153 22.9922 16.9976 22.8855 17.0134 22.7733Z" fill="#823597"/>
<path opacity="0.993" fill-rule="evenodd" clip-rule="evenodd" d="M20.9599 22.1333C21.1661 22.2551 21.3261 22.4328 21.4399 22.6666C22.4995 24.6142 23.6017 26.5342 24.7466 28.4266C24.8181 28.3464 24.907 28.3108 25.0132 28.32C24.4652 28.7902 23.8607 29.1812 23.1999 29.4933C22.0842 27.6191 20.9642 25.7346 19.8399 23.84C19.7884 23.7388 19.7707 23.6322 19.7866 23.52C19.6799 23.52 19.5732 23.52 19.4666 23.52C20.1652 23.2838 20.663 22.8216 20.9599 22.1333Z" fill="#8E3696"/>
<path opacity="0.991" fill-rule="evenodd" clip-rule="evenodd" d="M14.6666 22.9867C14.9548 23.3086 15.2215 23.6641 15.4666 24.0534C16.7431 26.3595 18.0409 28.635 19.3599 30.88C18.6372 31.0778 17.8905 31.2201 17.1199 31.3067C17.0548 30.9631 16.9303 30.6431 16.7466 30.3467C15.4212 28.1165 14.1234 25.8765 12.8533 23.6267C13.5211 23.5819 14.1256 23.3686 14.6666 22.9867Z" fill="#693497"/>
</g>
<defs>
<clipPath id="clip0_24_311">
<rect width="32" height="32" fill="white"/>
</clipPath>
</defs>
</svg>
