<svg width="32" height="32" viewBox="0 0 32 32" fill="none" xmlns="http://www.w3.org/2000/svg">
<path d="M8.51149 29.6759C7.56672 29.9197 6.65244 29.7368 5.76863 29.3101C4.94577 28.853 4.33625 28.0606 4.06196 27.1159C3.81815 26.1711 4.00101 25.2568 4.42768 24.373C4.88482 23.5501 5.6772 22.9406 6.62196 22.6663C7.56672 22.4225 8.48101 22.6054 9.36482 23.032C10.1877 23.4892 10.7972 24.2816 11.0715 25.2263C11.3153 26.1711 11.1324 27.0854 10.7058 27.9692C10.1572 28.792 9.48672 29.4016 8.51149 29.6759ZM7.17053 24.6473C6.77434 24.7692 6.40863 25.013 6.19529 25.4397C5.95149 25.8359 5.92101 26.293 6.01244 26.6892C6.13434 27.0854 6.37815 27.4511 6.80482 27.6644C7.62768 28.1216 8.66387 27.8473 9.02958 27.0549C9.27339 26.6587 9.30387 26.2016 9.21244 25.8054C9.09053 25.4092 8.84672 25.0435 8.42006 24.8301C7.99339 24.5863 7.56672 24.5254 7.17053 24.6473Z" fill="#55D4DA"/>
<path d="M16.7706 24.7083C16.283 24.8302 15.7039 24.5559 15.5515 24.0073C15.003 21.9349 13.662 20.1673 11.742 19.0397C9.822 17.9121 7.68867 17.6378 5.52486 18.2168C5.03724 18.3387 4.45819 18.0644 4.30581 17.5159C4.18391 17.0283 4.45819 16.4492 5.00677 16.2968C7.62772 15.5959 10.3096 15.9921 12.6258 17.333C14.942 18.674 16.6487 20.8683 17.3496 23.4892C17.502 24.0073 17.2277 24.5863 16.7706 24.7083Z" fill="#55D4DA"/>
<path d="M23.3839 22.9407C22.8963 23.0626 22.3173 22.7883 22.1649 22.2397C21.0982 18.3388 18.5992 15.0778 15.1553 13.0969C11.7115 11.1159 7.62773 10.5978 3.72678 11.634C3.23916 11.7559 2.6601 11.4816 2.50772 10.9331C2.38581 10.4454 2.6601 9.86639 3.20868 9.71401C7.59725 8.52544 12.1992 9.10449 16.1306 11.3597C20.062 13.615 22.8658 17.3331 24.0544 21.7216C24.2068 22.2093 23.8715 22.7883 23.3839 22.9407Z" fill="#55D4DA"/>
<path d="M30.3934 21.0512C29.9058 21.1731 29.3267 20.8988 29.1743 20.3502C27.6201 14.6207 23.9324 9.775 18.782 6.81881C13.6315 3.86262 7.5972 3.07024 1.86769 4.59405C1.38007 4.71596 0.801023 4.44167 0.648643 3.8931C0.496262 3.34453 0.801024 2.82643 1.34959 2.67405C7.65815 0.967382 14.1496 1.88167 19.7877 5.08167C25.3648 8.28167 29.4182 13.5236 31.1247 19.8321C31.2161 20.3198 30.8809 20.8988 30.3934 21.0512Z" fill="#55D4DA"/>
</svg>
