<svg width="32" height="32" viewBox="0 0 32 32" fill="none" xmlns="http://www.w3.org/2000/svg">
<g clip-path="url(#clip0_27_2)">
<path fill-rule="evenodd" clip-rule="evenodd" d="M28.5333 13.0667C28.6551 14.545 28.7143 16.0265 28.7111 17.5111C28.2331 21.7778 26.2183 25.0963 22.6667 27.4667C22.3952 27.4537 22.2174 27.5723 22.1333 27.8222C21.957 27.7916 21.8386 27.851 21.7778 28C21.5063 27.987 21.3285 28.1056 21.2444 28.3555C21.1852 28.3555 21.1259 28.3555 21.0667 28.3555C20.5943 28.4329 20.1794 28.6107 19.8222 28.8889C19.2624 28.8738 18.7883 29.0515 18.4 29.4222C17.9189 29.4355 17.4448 29.4947 16.9778 29.6C15.0608 29.8734 13.1645 29.7548 11.2889 29.2444C10.9005 28.8738 10.4265 28.696 9.86667 28.7111C9.68646 28.5024 9.44943 28.384 9.15556 28.3555C8.30726 27.9609 7.47762 27.5164 6.66667 27.0222C5.75586 26.0405 4.86697 25.0627 4 24.0889C3.79915 23.7662 3.68064 23.4107 3.64445 23.0222C3.85334 22.9833 4.03111 23.0425 4.17778 23.2C4.37556 23.5411 4.61259 23.8375 4.88889 24.0889C4.99197 24.4887 5.229 24.7849 5.6 24.9778C6.21584 25.5043 6.80845 26.0674 7.37778 26.6667C8.00998 26.9525 8.60256 27.2784 9.15556 27.6444C9.61572 28.0163 10.1491 28.2533 10.7556 28.3555C11.0606 28.3785 11.3569 28.4377 11.6444 28.5333C12.0894 28.6882 12.5635 28.8066 13.0667 28.8889C14.4573 29.0944 15.8796 29.1241 17.3333 28.9778C17.5533 28.9365 17.7311 28.8476 17.8667 28.7111C21.5614 27.8012 24.4059 25.7273 26.4 22.4889C26.7102 22.2163 26.888 21.8608 26.9333 21.4222C29.4983 14.4899 27.7797 8.91956 21.7778 4.7111C20.3022 3.82324 18.7022 3.28991 16.9778 3.1111C16.0639 2.93543 15.1158 2.87618 14.1333 2.93332C15.0491 2.78635 15.9972 2.69746 16.9778 2.66665C15.079 2.55812 13.1827 2.58775 11.2889 2.75554C17.4845 1.31043 22.5511 3.08822 26.4889 8.08887C27.4204 9.65421 28.1019 11.3135 28.5333 13.0667Z" fill="#305F9A"/>
<path fill-rule="evenodd" clip-rule="evenodd" d="M14.1333 2.93333C13.168 2.93971 12.2198 3.05824 11.2889 3.28889C10.8808 3.23482 10.8215 3.05705 11.1111 2.75555C11.1704 2.75555 11.2296 2.75555 11.2889 2.75555C13.1827 2.58777 15.079 2.55813 16.9778 2.66666C15.9972 2.69747 15.049 2.78636 14.1333 2.93333Z" fill="#1A569E"/>
<path fill-rule="evenodd" clip-rule="evenodd" d="M14.1333 2.93333C15.1158 2.87619 16.0639 2.93544 16.9778 3.11111C15.066 3.04709 13.1697 3.16561 11.2889 3.46666C11.2889 3.40741 11.2889 3.34814 11.2889 3.28888C12.2198 3.05824 13.168 2.93971 14.1333 2.93333Z" fill="#A0BCDD"/>
<path fill-rule="evenodd" clip-rule="evenodd" d="M11.1111 2.75555C10.8215 3.05705 10.8808 3.23483 11.2889 3.28889C11.2889 3.34814 11.2889 3.40741 11.2889 3.46667C10.2514 3.90814 9.18476 4.35259 8.08889 4.8C7.69847 5.1021 7.34291 5.42803 7.02222 5.77778C6.56192 5.94123 6.20636 6.23751 5.95555 6.66667C5.30539 7.31799 4.7128 8.0291 4.17778 8.8C4.03111 8.95746 3.85333 9.01671 3.64444 8.97778C3.62062 8.65929 3.67987 8.36298 3.82222 8.08889C4.03568 7.66053 4.33198 7.30498 4.71111 7.02222C5.06667 6.78519 5.36297 6.48889 5.6 6.13333C5.85977 5.64355 6.27459 5.31762 6.84444 5.15555C8.01589 3.94665 9.43812 3.14665 11.1111 2.75555Z" fill="#316099"/>
<path fill-rule="evenodd" clip-rule="evenodd" d="M7.02223 5.77777C6.77142 6.20693 6.41586 6.50321 5.95556 6.66666C6.20637 6.2375 6.56192 5.94122 7.02223 5.77777Z" fill="#ABC8ED"/>
<path fill-rule="evenodd" clip-rule="evenodd" d="M5.6 6.13333C5.36297 6.48889 5.06667 6.78519 4.71111 7.02222C4.82964 6.54814 5.12592 6.25186 5.6 6.13333Z" fill="#7CA5CF"/>
<path fill-rule="evenodd" clip-rule="evenodd" d="M12.5333 4.35556C13.9763 4.64975 15.4578 4.82752 16.9778 4.88889C15.4359 4.85931 13.8952 4.88893 12.3556 4.97778C11.5259 5.33334 10.6963 5.68889 9.86667 6.04445C9.71013 6.17037 9.59161 6.31851 9.51111 6.48889C8.40866 6.802 7.57904 7.45385 7.02222 8.44445C6.75246 8.44633 6.54505 8.56484 6.4 8.8C5.35767 10.267 4.58729 11.867 4.08889 13.6C3.97036 14.9037 3.97036 16.2074 4.08889 17.5111C4.3517 18.4432 4.49984 19.3913 4.53333 20.3556C4.0962 20.3893 3.79991 20.2116 3.64444 19.8222C2.73189 16.6433 2.96892 13.5619 4.35556 10.5778C6.15716 7.29536 8.88309 5.2213 12.5333 4.35556Z" fill="#41B2DC"/>
<path fill-rule="evenodd" clip-rule="evenodd" d="M12.5333 6.3111C12.5926 6.3111 12.6519 6.3111 12.7111 6.3111C12.3228 6.68173 11.8487 6.85951 11.2889 6.84443C11.6313 6.52573 12.0461 6.34795 12.5333 6.3111Z" fill="#6E9ABF"/>
<path fill-rule="evenodd" clip-rule="evenodd" d="M16.9778 4.88889C16.9778 4.94815 16.9778 5.00742 16.9778 5.06667C15.5506 5.00783 14.1284 5.06708 12.7111 5.24445C12.5333 5.39259 12.3556 5.54075 12.1778 5.68889C11.2428 5.84322 10.3539 6.10989 9.51111 6.48889C9.59161 6.31851 9.71013 6.17037 9.86666 6.04445C10.6963 5.68889 11.5259 5.33334 12.3556 4.97778C13.8952 4.88893 15.4359 4.85931 16.9778 4.88889Z" fill="#D5F7FB"/>
<path fill-rule="evenodd" clip-rule="evenodd" d="M14.1333 4.17777C15.0833 4.14826 16.0315 4.17787 16.9778 4.26666C17.9545 4.48431 18.9028 4.75098 19.8222 5.06666C20.1211 5.33466 20.4766 5.51243 20.8889 5.59999C20.7675 5.89803 20.5303 6.01656 20.1778 5.95555C19.7483 5.69453 19.2741 5.57601 18.7556 5.59999C18.2231 5.29014 17.6305 5.11236 16.9778 5.06666C16.9778 5.0074 16.9778 4.94813 16.9778 4.88888C15.4578 4.82751 13.9763 4.64973 12.5333 4.35555C13.0474 4.1951 13.5807 4.13583 14.1333 4.17777Z" fill="#29A9DF"/>
<path fill-rule="evenodd" clip-rule="evenodd" d="M14.1333 4.17779C15.2866 3.97263 16.4717 3.94302 17.6889 4.0889C18.4537 4.33231 19.1648 4.65825 19.8222 5.06668C18.9028 4.751 17.9545 4.48433 16.9778 4.26668C16.0315 4.1779 15.0833 4.14828 14.1333 4.17779Z" fill="#BDF0FA"/>
<path fill-rule="evenodd" clip-rule="evenodd" d="M18.7556 5.60001C19.2741 5.57603 19.7483 5.69455 20.1778 5.95557C21.0709 6.5745 21.9598 7.22636 22.8444 7.91112C23.0089 8.06346 23.1275 8.24124 23.2 8.44446C22.5556 8.12067 21.963 7.70586 21.4222 7.20001C21.0457 6.94296 20.6309 6.82444 20.1778 6.84446C20.0233 6.11523 19.6677 5.99671 19.1111 6.4889C20.2046 6.90236 21.2121 7.46533 22.1333 8.17779C22.5588 8.76231 22.9143 9.38453 23.2 10.0445C22.6763 10.2498 22.1429 10.2794 21.6 10.1333C21.2971 9.64325 20.8821 9.40622 20.3556 9.42223C20.6014 9.64815 20.7792 9.91482 20.8889 10.2222C20.0329 9.78031 19.2032 9.30623 18.4 8.80001C18.8363 8.7681 19.2215 8.88663 19.5556 9.15557C19.6444 9.09631 19.7333 9.03704 19.8222 8.97779C19.4212 8.81407 19.2434 8.51777 19.2889 8.0889C18.7232 8.07397 18.3084 7.83694 18.0444 7.37779C19.6128 7.83599 20.9164 8.69525 21.9556 9.95557C22.1854 10.0427 22.4226 10.0723 22.6667 10.0445C22.645 9.39605 22.3488 8.89235 21.7778 8.53335C19.0917 6.46519 16.0695 5.72444 12.7111 6.31112C12.6519 6.31112 12.5926 6.31112 12.5333 6.31112C12.91 5.91706 13.3841 5.68001 13.9556 5.60001C15.3613 5.68298 16.7539 5.86076 18.1333 6.13335C18.3758 5.97855 18.5831 5.80078 18.7556 5.60001Z" fill="#E3F3F9"/>
<path fill-rule="evenodd" clip-rule="evenodd" d="M18.0444 7.37778C17.7285 7.18213 17.3729 7.03399 16.9778 6.93333C15.2383 6.75977 13.5198 6.87828 11.8222 7.28889C11.6319 7.44032 11.4541 7.58846 11.2889 7.73333C10.6281 7.91598 10.0355 8.2419 9.51111 8.71111C7.76338 10.1683 6.63744 11.9757 6.13333 14.1333C6.16259 13.5967 6.13298 13.0634 6.04444 12.5333C6.03563 12.9323 5.88748 13.2286 5.6 13.4222C5.68176 12.6559 5.91879 11.9447 6.31111 11.2889C6.59827 10.7645 6.95383 10.2905 7.37778 9.86667C7.79259 9.57036 8.14814 9.21481 8.44444 8.8C9.1437 7.79758 10.0918 7.14572 11.2889 6.84444C11.8487 6.85952 12.3228 6.68174 12.7111 6.31111C16.0695 5.72443 19.0917 6.46517 21.7778 8.53333C22.3488 8.89234 22.645 9.39604 22.6667 10.0444C22.4226 10.0723 22.1854 10.0427 21.9556 9.95556C20.9164 8.69524 19.6128 7.83598 18.0444 7.37778Z" fill="#2E609D"/>
<path fill-rule="evenodd" clip-rule="evenodd" d="M18.0444 7.37779C16.3886 7.20287 14.7293 7.17325 13.0667 7.2889C12.9185 7.43704 12.7704 7.5852 12.6222 7.73334C12.1967 7.62029 11.7522 7.62029 11.2889 7.73334C11.4541 7.58847 11.6319 7.44033 11.8222 7.2889C13.5198 6.87828 15.2383 6.75978 16.9778 6.93334C17.3729 7.034 17.7285 7.18214 18.0444 7.37779Z" fill="#D6EBF7"/>
<path fill-rule="evenodd" clip-rule="evenodd" d="M8.44444 8.79999C8.14814 9.2148 7.79259 9.57035 7.37778 9.86665C7.55555 9.33332 7.91111 8.97777 8.44444 8.79999Z" fill="#739AC2"/>
<path fill-rule="evenodd" clip-rule="evenodd" d="M15.7333 9.15555C16.6428 9.17208 17.5317 9.32022 18.4 9.59999C18.7883 9.84237 19.1438 10.109 19.4667 10.4C18.9826 10.2485 18.5084 10.0411 18.0444 9.77777C17.3436 9.60125 16.6325 9.48273 15.9111 9.42221C15.8123 9.3542 15.753 9.26531 15.7333 9.15555Z" fill="#D7FAFE"/>
<path fill-rule="evenodd" clip-rule="evenodd" d="M24.2667 9.86667C25.1799 10.8647 25.7132 12.0499 25.8667 13.4222C25.32 12.5073 24.8164 11.5592 24.3556 10.5778C24.2684 10.3479 24.2388 10.1108 24.2667 9.86667Z" fill="#D6F9FD"/>
<path fill-rule="evenodd" clip-rule="evenodd" d="M20.8889 5.60001C23.3266 7.04249 25.1044 9.0573 26.2222 11.6445C27.1035 14.3467 27.1627 17.0726 26.4 19.8222C24.8624 23.8044 22.018 26.3822 17.8667 27.5556C16.6334 27.7845 15.389 27.8734 14.1333 27.8222C14.1333 27.5852 14.1333 27.3481 14.1333 27.1111C15.1158 27.1682 16.0639 27.109 16.9778 26.9333C17.7861 26.6421 18.6158 26.4052 19.4667 26.2222C24.7394 23.499 26.8727 19.2324 25.8667 13.4222C25.7132 12.0499 25.1799 10.8647 24.2667 9.86667C23.9972 9.32745 23.6416 8.85339 23.2 8.44445C23.1275 8.24123 23.0089 8.06345 22.8444 7.91112C21.9598 7.22635 21.0709 6.57449 20.1778 5.95556C20.5303 6.01657 20.7675 5.89805 20.8889 5.60001Z" fill="#3AB0DD"/>
<path fill-rule="evenodd" clip-rule="evenodd" d="M5.6 13.6C5.44496 14.718 5.38571 15.844 5.42222 16.9778C5.21734 15.9433 5.1877 14.8767 5.33334 13.7778C5.40135 13.6789 5.49024 13.6197 5.6 13.6Z" fill="#90B3D9"/>
<path fill-rule="evenodd" clip-rule="evenodd" d="M6.13333 14.1333C6.13333 15.2592 6.13333 16.3852 6.13333 17.5111C6.16237 17.9301 6.13273 18.3449 6.04445 18.7555C5.97033 18.5323 5.82219 18.4137 5.6 18.4C5.49483 17.933 5.43557 17.4589 5.42222 16.9778C5.38571 15.8439 5.44496 14.718 5.6 13.6C5.6 13.5407 5.6 13.4815 5.6 13.4222C5.88749 13.2286 6.03563 12.9323 6.04445 12.5333C6.13298 13.0634 6.1626 13.5967 6.13333 14.1333Z" fill="#2C5C9F"/>
<path fill-rule="evenodd" clip-rule="evenodd" d="M28.5333 13.0667C28.7918 13.9418 28.9104 14.8603 28.8889 15.8222C28.8885 16.4181 28.8293 16.9811 28.7111 17.5111C28.7143 16.0265 28.6551 14.545 28.5333 13.0667Z" fill="#89A9CA"/>
<path fill-rule="evenodd" clip-rule="evenodd" d="M26.2222 11.6444C26.5196 11.7943 26.7271 12.0313 26.8444 12.3556C27.0304 13.472 27.1193 14.5979 27.1111 15.7333C27.2519 17.1988 27.0149 18.5618 26.4 19.8222C27.1627 17.0726 27.1035 14.3466 26.2222 11.6444Z" fill="#C5F5FB"/>
<path fill-rule="evenodd" clip-rule="evenodd" d="M18.4 8.80001C19.2032 9.30624 20.0329 9.78032 20.8889 10.2222C21.4633 10.9135 22.0263 11.6246 22.5778 12.3556C22.7186 12.9918 22.9556 13.5844 23.2889 14.1333C23.6053 16.0728 23.3387 17.9099 22.4889 19.6445C22.0606 20.0715 21.7051 20.5456 21.4222 21.0667C20.7803 21.7965 20.0098 22.3595 19.1111 22.7556C18.3195 22.8802 17.6083 23.1469 16.9778 23.5556C16.563 23.5556 16.1481 23.5556 15.7333 23.5556C15.7333 23.3186 15.7333 23.0814 15.7333 22.8445C16.4551 22.8471 17.1662 22.7582 17.8667 22.5778C21.4761 20.8999 23.0169 18.085 22.4889 14.1333C21.9383 12.4881 20.931 11.2436 19.4667 10.4C19.1438 10.1091 18.7883 9.8424 18.4 9.60001C17.5317 9.32024 16.6428 9.1721 15.7333 9.15557C15.7333 8.91854 15.7333 8.68149 15.7333 8.44446C16.6375 8.46684 17.5264 8.58536 18.4 8.80001Z" fill="#44B2DC"/>
<path fill-rule="evenodd" clip-rule="evenodd" d="M23.5556 21.2444C23.4524 21.6443 23.2155 21.9404 22.8444 22.1333C22.9476 21.7335 23.1845 21.4373 23.5556 21.2444Z" fill="#87ADD5"/>
<path fill-rule="evenodd" clip-rule="evenodd" d="M6.13333 17.5111C6.60032 19.4279 7.48921 21.1168 8.8 22.5778C8.90567 22.6603 9.02419 22.69 9.15555 22.6667C9.86979 23.6151 10.818 24.2076 12 24.4444C12.293 24.6981 12.6486 24.8462 13.0667 24.8889C14.369 24.9778 15.6727 25.0073 16.9778 24.9778C17.6842 24.8037 18.3954 24.626 19.1111 24.4444C19.1756 24.323 19.2348 24.2044 19.2889 24.0889C19.504 24.0121 19.6818 23.8935 19.8222 23.7333C20.5225 23.2423 21.2039 22.709 21.8667 22.1333C22.414 21.4535 22.9177 20.7424 23.3778 20C23.5892 19.8348 23.8261 19.7756 24.0889 19.8222C24.0492 20.3572 23.8715 20.8313 23.5556 21.2444C23.1845 21.4373 22.9476 21.7335 22.8444 22.1333C22.7072 22.3456 22.5294 22.5234 22.3111 22.6667C22.0612 22.7508 21.9426 22.9285 21.9556 23.2C21.4907 23.3689 21.1351 23.6652 20.8889 24.0889C20.4766 24.1764 20.1211 24.3541 19.8222 24.6222C17.4604 25.84 14.9715 26.1362 12.3556 25.5111C11.249 25.1925 10.2416 24.6889 9.33333 24C8.64699 23.5207 8.0544 22.9577 7.55555 22.3111C6.9491 21.3954 6.38615 20.4473 5.86667 19.4667C5.77696 19.1079 5.68807 18.7524 5.6 18.4C5.82219 18.4137 5.97033 18.5323 6.04444 18.7556C6.13273 18.3449 6.16236 17.9301 6.13333 17.5111Z" fill="#31619E"/>
<path fill-rule="evenodd" clip-rule="evenodd" d="M26.9333 21.4222C26.888 21.8608 26.7102 22.2163 26.4 22.4889C26.4453 22.0503 26.6231 21.6947 26.9333 21.4222Z" fill="#7CA4CE"/>
<path fill-rule="evenodd" clip-rule="evenodd" d="M22.3111 22.6667C22.3241 22.9381 22.2055 23.1159 21.9556 23.2C21.9426 22.9285 22.0612 22.7507 22.3111 22.6667Z" fill="#83A8C6"/>
<path fill-rule="evenodd" clip-rule="evenodd" d="M9.15556 22.6667C9.50786 22.7547 9.86341 22.8435 10.2222 22.9333C10.5265 23.6199 11.0599 24.0051 11.8222 24.0889C11.8867 24.2103 11.946 24.3289 12 24.4444C10.818 24.2076 9.8698 23.6151 9.15556 22.6667Z" fill="#D3E7F3"/>
<path fill-rule="evenodd" clip-rule="evenodd" d="M21.4222 21.0667C21.4153 21.2592 21.3559 21.437 21.2444 21.6C20.6162 22.12 19.9644 22.5941 19.2889 23.0222C18.5106 23.1799 17.7402 23.3577 16.9778 23.5556C17.6083 23.1469 18.3195 22.8802 19.1111 22.7556C20.0098 22.3595 20.7803 21.7965 21.4222 21.0667Z" fill="#B4EBF7"/>
<path fill-rule="evenodd" clip-rule="evenodd" d="M3.64444 23.0222C3.68064 23.4107 3.79914 23.7662 4 24.0889C3.49353 23.8364 3.375 23.4809 3.64444 23.0222Z" fill="#7DA4C0"/>
<path fill-rule="evenodd" clip-rule="evenodd" d="M20.8889 24.0889C20.638 24.4514 20.2825 24.6292 19.8222 24.6222C20.1211 24.3541 20.4766 24.1764 20.8889 24.0889Z" fill="#99BFE2"/>
<path fill-rule="evenodd" clip-rule="evenodd" d="M12 24.4444C13.7727 24.4101 15.5505 24.4693 17.3333 24.6222C17.2148 24.7408 17.0963 24.8592 16.9778 24.9778C15.6727 25.0073 14.369 24.9778 13.0667 24.8889C12.6486 24.8462 12.293 24.6981 12 24.4444Z" fill="#E0F0F7"/>
<path fill-rule="evenodd" clip-rule="evenodd" d="M19.2889 24.0889C19.2348 24.2045 19.1756 24.323 19.1111 24.4445C18.3954 24.626 17.6842 24.8037 16.9778 24.9778C17.0963 24.8592 17.2148 24.7408 17.3333 24.6222C17.9952 24.4805 18.6471 24.3028 19.2889 24.0889Z" fill="#4E78A9"/>
<path fill-rule="evenodd" clip-rule="evenodd" d="M4.88889 24.0889C5.25989 24.2818 5.49692 24.578 5.6 24.9778C5.22899 24.7849 4.99196 24.4887 4.88889 24.0889Z" fill="#83AACF"/>
<path fill-rule="evenodd" clip-rule="evenodd" d="M9.15556 27.6444C9.80702 27.6448 10.3404 27.8818 10.7556 28.3556C10.149 28.2533 9.61572 28.0164 9.15556 27.6444Z" fill="#A9C6DF"/>
<path fill-rule="evenodd" clip-rule="evenodd" d="M22.6667 27.4667C22.5826 27.7166 22.4048 27.8352 22.1333 27.8222C22.2174 27.5723 22.3952 27.4537 22.6667 27.4667Z" fill="#8DAEDE"/>
<path fill-rule="evenodd" clip-rule="evenodd" d="M21.7778 28C21.6937 28.25 21.5159 28.3685 21.2444 28.3556C21.3285 28.1056 21.5063 27.987 21.7778 28Z" fill="#9CBCEE"/>
<path fill-rule="evenodd" clip-rule="evenodd" d="M9.15556 28.3556C9.44942 28.384 9.68645 28.5024 9.86667 28.7111C9.5325 28.7593 9.29547 28.6407 9.15556 28.3556Z" fill="#7FA5C7"/>
<path fill-rule="evenodd" clip-rule="evenodd" d="M21.0667 28.3556C20.7687 28.7705 20.354 28.9483 19.8222 28.8889C20.1794 28.6107 20.5943 28.4329 21.0667 28.3556Z" fill="#9CBFDC"/>
<path fill-rule="evenodd" clip-rule="evenodd" d="M9.86667 28.7111C10.4265 28.696 10.9005 28.8738 11.2889 29.2444C10.7291 29.2596 10.255 29.0818 9.86667 28.7111Z" fill="#7395BB"/>
<path fill-rule="evenodd" clip-rule="evenodd" d="M17.8667 28.7111C17.7311 28.8476 17.5533 28.9365 17.3333 28.9778C15.8796 29.1241 14.4573 29.0944 13.0667 28.8889C14.6717 28.9209 16.2717 28.8617 17.8667 28.7111Z" fill="#7BA4C5"/>
<path fill-rule="evenodd" clip-rule="evenodd" d="M19.8222 28.8889C19.4148 29.203 18.9408 29.3808 18.4 29.4222C18.7883 29.0516 19.2624 28.8738 19.8222 28.8889Z" fill="#8CA9D5"/>
<path fill-rule="evenodd" clip-rule="evenodd" d="M16.9778 29.6C16.0223 29.6583 15.0741 29.5991 14.1333 29.4222C14.6074 29.363 15.0815 29.3036 15.5556 29.2444C16.1049 29.2484 16.579 29.3668 16.9778 29.6Z" fill="#1654A1"/>
</g>
<defs>
<clipPath id="clip0_27_2">
<rect width="32" height="32" fill="white"/>
</clipPath>
</defs>
</svg>
