<svg width="32" height="32" viewBox="0 0 32 32" fill="none" xmlns="http://www.w3.org/2000/svg">
<path fill-rule="evenodd" clip-rule="evenodd" d="M10.1818 3.81818C9.41089 5.17778 8.68362 6.57172 7.99998 8C7.87877 8 7.81817 8.0606 7.81817 8.18181C6.12121 8.18181 4.42423 8.18181 2.72726 8.18181C3.77935 6.7954 4.87026 5.43176 5.99999 4.09091C7.37348 3.83052 8.7674 3.73961 10.1818 3.81818Z" fill="#49A619"/>
<path fill-rule="evenodd" clip-rule="evenodd" d="M10.1818 3.81818C11.3939 3.81818 12.606 3.81818 13.8182 3.81818C13.5461 5.26689 13.3037 6.72143 13.0909 8.18181C11.3609 8.24125 9.66393 8.18065 7.99998 7.99999C8.68362 6.57172 9.41089 5.17778 10.1818 3.81818Z" fill="#C6EFD2"/>
<path fill-rule="evenodd" clip-rule="evenodd" d="M13.8182 3.81818C15.1515 3.81818 16.4848 3.81818 17.8182 3.81818C17.9469 5.28016 18.1287 6.7347 18.3636 8.18181C16.606 8.18181 14.8485 8.18181 13.0909 8.18181C13.3037 6.72143 13.5461 5.26689 13.8182 3.81818Z" fill="#49A619"/>
<path fill-rule="evenodd" clip-rule="evenodd" d="M24.7272 3.81818C23.6363 3.81818 22.5454 3.81818 21.4545 3.81818C22.0682 5.22745 22.7347 6.62139 23.4545 7.99999C21.7905 8.18065 20.0936 8.24125 18.3636 8.18181C18.1287 6.7347 17.9469 5.28016 17.8182 3.81818C20.1523 3.69369 22.4552 3.69369 24.7272 3.81818Z" fill="#C6EED1"/>
<path fill-rule="evenodd" clip-rule="evenodd" d="M24.7272 3.81818C25.2172 3.8969 25.6112 4.13932 25.9091 4.54545C26.8876 5.73499 27.8269 6.9471 28.7272 8.18181C27.0303 8.18181 25.3332 8.18181 23.6363 8.18181C23.6363 8.06059 23.5758 7.99999 23.4545 7.99999C22.7347 6.62139 22.0681 5.22745 21.4545 3.81818C22.5454 3.81818 23.6363 3.81818 24.7272 3.81818Z" fill="#49A619"/>
<path fill-rule="evenodd" clip-rule="evenodd" d="M2.72727 8.18182C4.42423 8.18182 6.12121 8.18182 7.81817 8.18182C7.81817 8.8485 7.81817 9.51515 7.81817 10.1818C7.5051 11.6427 6.59601 12.3699 5.0909 12.3636C4.18512 12.2749 3.48816 11.8506 2.99999 11.0909C2.75654 10.1388 2.66563 9.16913 2.72727 8.18182Z" fill="#2E7609"/>
<path fill-rule="evenodd" clip-rule="evenodd" d="M7.99999 8C9.66394 8.18065 11.3609 8.24125 13.0909 8.18182C13.0909 8.96969 13.0909 9.75758 13.0909 10.5455C12.1478 12.3492 10.7539 12.8037 8.90908 11.9091C8.42496 11.3923 8.06132 10.8165 7.81818 10.1818C7.81818 9.51515 7.81818 8.84849 7.81818 8.18182C7.81818 8.0606 7.87878 8 7.99999 8Z" fill="#A1D7B0"/>
<path fill-rule="evenodd" clip-rule="evenodd" d="M13.0909 8.18182C14.8485 8.18182 16.606 8.18182 18.3636 8.18182C18.3636 8.9091 18.3636 9.63637 18.3636 10.3636C17.5049 12.3076 16.1109 12.8228 14.1818 11.9091C13.7053 11.5247 13.3417 11.0702 13.0909 10.5455C13.0909 9.75759 13.0909 8.9697 13.0909 8.18182Z" fill="#2E7609"/>
<path fill-rule="evenodd" clip-rule="evenodd" d="M23.4545 8C23.5758 8 23.6363 8.0606 23.6363 8.18182C23.6363 8.84849 23.6363 9.51515 23.6363 10.1818C22.8722 12.2255 21.4782 12.8012 19.4545 11.9091C18.9282 11.4869 18.5645 10.9718 18.3636 10.3636C18.3636 9.63636 18.3636 8.90909 18.3636 8.18182C20.0936 8.24125 21.7905 8.18065 23.4545 8Z" fill="#A1D8B1"/>
<path fill-rule="evenodd" clip-rule="evenodd" d="M23.6363 8.18182C25.3332 8.18182 27.0303 8.18182 28.7272 8.18182C29.02 9.30559 28.8685 10.3965 28.2727 11.4546C27.7625 12.0188 27.1262 12.3218 26.3636 12.3636C24.856 12.3691 23.9469 11.6418 23.6363 10.1818C23.6363 9.51515 23.6363 8.8485 23.6363 8.18182Z" fill="#31770D"/>
<path fill-rule="evenodd" clip-rule="evenodd" d="M7.81817 10.1818C8.06132 10.8165 8.42495 11.3923 8.90908 11.9091C10.7539 12.8037 12.1478 12.3492 13.0909 10.5455C13.3417 11.0702 13.7053 11.5247 14.1818 11.9091C16.1109 12.8228 17.5048 12.3076 18.3636 10.3636C18.5645 10.9718 18.9282 11.487 19.4545 11.9091C21.4782 12.8012 22.8722 12.2255 23.6363 10.1818C23.9469 11.6418 24.856 12.3691 26.3636 12.3636C26.394 16.6671 26.3636 20.9702 26.2727 25.2727C25.9494 26.7409 25.0707 27.6804 23.6363 28.0909C18.3636 28.2122 13.0909 28.2122 7.81817 28.0909C6.38383 27.6804 5.50505 26.7409 5.18181 25.2727C5.0909 20.9702 5.06061 16.6671 5.0909 12.3636C6.59601 12.3699 7.5051 11.6427 7.81817 10.1818Z" fill="#49A519"/>
<path fill-rule="evenodd" clip-rule="evenodd" d="M10.5454 14C12.7252 13.786 13.604 14.7556 13.1818 16.9091C12.569 17.8818 11.6902 18.2152 10.5454 17.9091C8.85845 16.6066 8.85845 15.3036 10.5454 14Z" fill="#FBFDFA"/>
<path fill-rule="evenodd" clip-rule="evenodd" d="M19.2727 14C21.7372 13.9062 22.5554 14.9972 21.7272 17.2727C21.1098 17.946 20.3522 18.1581 19.4545 17.9091C18.3449 17.3563 17.951 16.4775 18.2727 15.2727C18.4485 14.7054 18.7818 14.2811 19.2727 14Z" fill="#FCFDFB"/>
</svg>
