<svg width="32" height="32" viewBox="0 0 32 32" fill="none" xmlns="http://www.w3.org/2000/svg">
<g clip-path="url(#clip0_27_246)">
<path opacity="0.978" fill-rule="evenodd" clip-rule="evenodd" d="M13.0667 -0.0888672C14.963 -0.0888672 16.8593 -0.0888672 18.7556 -0.0888672C25.8075 1.62965 30.1926 6.01483 31.9111 13.0667C31.9111 14.9037 31.9111 16.7408 31.9111 18.5778C30.2718 25.7282 25.8866 30.1726 18.7556 31.9111C16.8593 31.9111 14.963 31.9111 13.0667 31.9111C6.01483 30.1926 1.62965 25.8075 -0.0888672 18.7556C-0.0888672 16.8593 -0.0888672 14.963 -0.0888672 13.0667C1.62965 6.01483 6.01483 1.62965 13.0667 -0.0888672Z" fill="#CF2989"/>
<path fill-rule="evenodd" clip-rule="evenodd" d="M16.9777 6.48889C17.9852 6.48889 18.9925 6.48889 19.9999 6.48889C19.9999 11.8222 19.9999 17.1556 19.9999 22.4889C18.9925 22.4889 17.9852 22.4889 16.9777 22.4889C17.0309 22.1148 16.9716 21.7593 16.7999 21.4222C15.9139 22.3527 14.8176 22.7675 13.5111 22.6667C10.9805 22.5559 9.26195 21.3115 8.3555 18.9333C7.19802 14.9929 8.4721 12.1781 12.1777 10.4889C13.5995 10.2594 14.9625 10.4372 16.2666 11.0222C16.474 11.2296 16.6814 11.437 16.8888 11.6444C16.9777 9.92695 17.0073 8.20843 16.9777 6.48889Z" fill="#FEFCFD"/>
<path fill-rule="evenodd" clip-rule="evenodd" d="M13.0667 13.2445C16.1457 13.1539 17.4197 14.6354 16.8889 17.6889C15.9712 19.8212 14.4601 20.3842 12.3556 19.3778C10.8971 17.7409 10.749 15.9927 11.9112 14.1333C12.3246 13.855 12.7098 13.5587 13.0667 13.2445Z" fill="#D02E8B"/>
<path fill-rule="evenodd" clip-rule="evenodd" d="M23.7333 19.2889C23.7333 20.2963 23.7333 21.3036 23.7333 22.3111C22.7258 22.3111 21.7185 22.3111 20.7111 22.3111C20.7111 21.3036 20.7111 20.2963 20.7111 19.2889C21.7185 19.2889 22.7258 19.2889 23.7333 19.2889Z" fill="#01BCB4"/>
<path fill-rule="evenodd" clip-rule="evenodd" d="M23.7333 19.2889C23.9093 20.3218 23.9685 21.3884 23.9111 22.4889C22.8106 22.5463 21.7439 22.4871 20.7111 22.3111C21.7185 22.3111 22.7258 22.3111 23.7333 22.3111C23.7333 21.3036 23.7333 20.2963 23.7333 19.2889Z" fill="#339BAB"/>
</g>
<defs>
<clipPath id="clip0_27_246">
<rect width="32" height="32" fill="white"/>
</clipPath>
</defs>
</svg>
