<svg width="32" height="32" viewBox="0 0 32 32" fill="none" xmlns="http://www.w3.org/2000/svg">
<rect width="32" height="32" fill="black"/>
<path d="M13.9566 0.00109395L3.93692 0.020294V8.44361C4.2813 8.59172 4.62477 8.74136 4.96732 8.89252C7.26309 9.89824 9.57075 10.8829 11.8802 11.8585V7.61984H13.7472C19.2521 7.61984 22.6048 10.5529 22.6048 15.3721C22.6048 20.1337 19.2713 23.0292 13.8277 23.0292H11.8802V19.8475L10.9257 20.3696C10.5051 20.6009 10.0864 20.8358 9.66583 21.0672L6.97052 22.5437C6.30492 22.9094 5.63901 23.273 4.97281 23.6345C4.62903 23.8173 4.28343 24.0066 3.93783 24.1913V30.7056H13.9566C24.395 30.7056 30.7794 24.9154 30.7794 15.3913C30.7794 5.79127 24.3986 -0.0363918 13.9566 0.00109395Z" fill="white"/>
<path d="M16.5486 15.6052L0 8.54236L4.88411 15.8128L1.21234 24.1081L16.5486 15.6052Z" fill="white"/>
</svg>
