<svg width="32" height="32" viewBox="0 0 32 32" fill="none" xmlns="http://www.w3.org/2000/svg">
<path d="M12.2372 12.2703C12.772 13.1793 13.0111 14.232 12.9214 15.2828V15.6138C12.9867 16.5578 12.7468 17.4978 12.2372 18.2952C11.9684 18.5888 11.6353 18.8163 11.2639 18.9599C10.8925 19.1034 10.493 19.1592 10.0965 19.1228C9.7101 19.1467 9.32416 19.0686 8.97746 18.8962C8.63077 18.7238 8.33552 18.4633 8.12138 18.1407C7.63646 17.2776 7.41043 16.293 7.47034 15.3048C7.40736 14.2926 7.6413 13.2839 8.14344 12.4028C8.34976 12.0807 8.63622 11.8178 8.97475 11.6399C9.31327 11.4619 9.69223 11.375 10.0745 11.3876C10.4789 11.3553 10.8853 11.4183 11.2609 11.5716C11.6365 11.725 11.9709 11.9643 12.2372 12.2703Z" fill="#00B8F9"/>
<path d="M16 0C12.8355 0 9.74207 0.938383 7.11088 2.69649C4.4797 4.45459 2.42894 6.95345 1.21793 9.87706C0.00693249 12.8007 -0.309921 16.0177 0.307443 19.1214C0.924806 22.2251 2.44866 25.0761 4.6863 27.3137C6.92394 29.5513 9.77486 31.0752 12.8786 31.6926C15.9823 32.3099 19.1993 31.9931 22.1229 30.7821C25.0466 29.5711 27.5454 27.5203 29.3035 24.8891C31.0616 22.2579 32 19.1645 32 16C32 11.7565 30.3143 7.68687 27.3137 4.68629C24.3131 1.68571 20.2435 0 16 0ZM15.2055 20.8441H13.3407L12.9214 19.3765H12.811C12.4461 19.9125 11.9508 20.3467 11.3716 20.6382C10.7924 20.9298 10.1486 21.069 9.50069 21.0428C8.86671 21.0771 8.23391 20.9563 7.65709 20.691C7.08027 20.4257 6.57683 20.0237 6.19035 19.52C5.33718 18.27 4.92555 16.7711 5.0207 15.2607C4.94028 13.759 5.35933 12.2729 6.21242 11.0345C6.59771 10.5287 7.10063 10.1247 7.67752 9.85736C8.25441 9.59007 8.88782 9.46763 9.52276 9.50069C10.1634 9.46015 10.8041 9.57903 11.3876 9.84669C11.971 10.1144 12.4791 10.5224 12.8662 11.0345H12.9876C12.8832 10.4069 12.8242 9.77261 12.811 9.13655V5.0869H15.2055V20.8441ZM25.7876 20.5903C25.4035 21.0981 24.9011 21.5043 24.3241 21.7736C23.7472 22.0428 23.1131 22.167 22.4772 22.1352C21.8422 22.1692 21.2084 22.0472 20.6314 21.7798C20.0543 21.5124 19.5515 21.1079 19.1669 20.6014H19.0235C19.1117 21.5503 19.1669 22.1241 19.1669 22.3228V26.9131H16.8276V10.7365H18.7586L19.0897 12.2372H19.211C19.5641 11.6874 20.0563 11.2406 20.6376 10.9422C21.2189 10.6438 21.8688 10.5043 22.5214 10.5379C23.1549 10.4985 23.7884 10.6158 24.3658 10.8794C24.9432 11.1431 25.4467 11.545 25.8317 12.0497C26.6826 13.3007 27.094 14.7988 27.0014 16.309C27.0861 17.8316 26.6588 19.3387 25.7876 20.5903ZM21.9255 12.48C21.5408 12.4463 21.1535 12.5037 20.795 12.6475C20.4365 12.7912 20.1169 13.0174 19.8621 13.3076C19.3652 14.097 19.1368 15.026 19.211 15.9559V16.309C19.1328 17.3408 19.3592 18.3729 19.8621 19.2772C20.1128 19.5922 20.4372 19.8406 20.8068 20.0003C21.1763 20.1601 21.5795 20.2263 21.9807 20.1931C22.3592 20.2019 22.7337 20.1131 23.068 19.9353C23.4023 19.7575 23.6853 19.4967 23.8897 19.1779C24.382 18.3013 24.6118 17.3016 24.5517 16.2979C24.6165 15.3009 24.3862 14.307 23.8897 13.44C23.6738 13.1232 23.3792 12.868 23.0348 12.6997C22.6904 12.5314 22.3081 12.4556 21.9255 12.48Z" fill="#00B8F9"/>
</svg>
