<svg width="32" height="32" viewBox="0 0 32 32" fill="none" xmlns="http://www.w3.org/2000/svg">
<g clip-path="url(#clip0_1_562)">
<path opacity="0.997" fill-rule="evenodd" clip-rule="evenodd" d="M31.9688 14.8527C31.9688 15.4522 31.9688 16.0516 31.9688 16.6511C31.8562 17.3491 31.6583 18.0312 31.375 18.6976C29.8525 22.0316 27.9983 25.153 25.8125 28.062C24.7443 29.2072 23.4423 29.9617 21.9062 30.3256C19.9363 30.5883 17.9571 30.702 15.9688 30.6666C13.9804 30.702 12.0012 30.5883 10.0312 30.3256C8.12925 29.8635 6.61881 28.8403 5.5 27.2558C3.60045 24.5628 1.95462 21.7101 0.5625 18.6976C0.279234 18.0312 0.0813169 17.3491 -0.03125 16.6511C-0.03125 16.031 -0.03125 15.4108 -0.03125 14.7907C0.0943369 14.1163 0.292254 13.4547 0.5625 12.8062C2.07976 9.50348 3.91309 6.4027 6.0625 3.50385C7.74112 1.73641 9.814 0.87853 12.2812 0.930207C15.4986 0.69133 18.707 0.774021 21.9062 1.17827C23.8082 1.64028 25.3187 2.66353 26.4375 4.24804C28.3371 6.94106 29.9829 9.79377 31.375 12.8062C31.6583 13.4726 31.8562 14.1548 31.9688 14.8527Z" fill="#C3C3C3"/>
<path fill-rule="evenodd" clip-rule="evenodd" d="M10.7812 9.64341C12.7814 9.63305 14.7814 9.64341 16.7812 9.67442C20.0097 10.2213 21.7388 12.1127 21.9688 15.3488C21.9037 18.1724 20.5287 20.0432 17.8438 20.9612C17.3705 21.0774 16.8914 21.1601 16.4062 21.2093C14.5314 21.2403 12.6564 21.2507 10.7812 21.2403C10.7812 17.3747 10.7812 13.509 10.7812 9.64341Z" fill="black"/>
<path fill-rule="evenodd" clip-rule="evenodd" d="M14.4062 12.6821C15.0316 12.6718 15.6566 12.6821 16.2812 12.7131C17.4352 13.0049 18.1123 13.7388 18.3125 14.9147C18.4826 16.199 18.0347 17.2016 16.9688 17.9225C16.7231 18.014 16.4731 18.0864 16.2188 18.1395C15.6146 18.1395 15.0104 18.1395 14.4062 18.1395C14.4062 16.3204 14.4062 14.5012 14.4062 12.6821Z" fill="#C3C3C3"/>
<path fill-rule="evenodd" clip-rule="evenodd" d="M14.4062 12.6822C14.4062 14.5013 14.4062 16.3205 14.4062 18.1396C15.0104 18.1396 15.6145 18.1396 16.2187 18.1396C15.605 18.2012 14.98 18.2218 14.3437 18.2016C14.323 16.3512 14.3439 14.5113 14.4062 12.6822Z" fill="#616161"/>
</g>
<defs>
<clipPath id="clip0_1_562">
<rect width="32" height="32" fill="white"/>
</clipPath>
</defs>
</svg>
