<svg width="32" height="32" viewBox="0 0 32 32" fill="none" xmlns="http://www.w3.org/2000/svg">
<g clip-path="url(#clip0_11_239)">
<path fill-rule="evenodd" clip-rule="evenodd" d="M16.8 3.94668C16.5078 4.36923 16.2115 4.79589 15.9111 5.22668C16.0432 5.37213 16.1617 5.51436 16.2667 5.65334C15.5254 5.54514 14.9921 5.9007 14.6667 6.72001C14.878 6.91813 15.1151 6.98924 15.3778 6.93334C14.0741 8.64001 12.7111 10.2756 11.2889 11.84C11.0148 11.6692 10.7185 11.5981 10.4 11.6267C10.4 10.8444 10.4 10.0622 10.4 9.28001C11.7863 7.50971 13.2085 5.76748 14.6667 4.05334C15.389 3.68778 16.1001 3.65223 16.8 3.94668Z" fill="#14A4E4"/>
<path fill-rule="evenodd" clip-rule="evenodd" d="M16.8 3.94666C17.907 4.70503 18.8551 5.7006 19.6445 6.93332C19.4075 7.43109 19.1703 7.92888 18.9334 8.42666C18.8148 8.35555 18.6964 8.28443 18.5778 8.21332C17.9152 7.20432 17.1449 6.35099 16.2667 5.65332C16.1617 5.51434 16.0432 5.37211 15.9111 5.22666C16.2115 4.79587 16.5078 4.3692 16.8 3.94666Z" fill="#32BBF0"/>
<path fill-rule="evenodd" clip-rule="evenodd" d="M16.2667 5.65333C17.1449 6.351 17.9152 7.20433 18.5778 8.21333C18.3956 8.29794 18.3659 8.44015 18.4889 8.64C19.0509 9.13854 19.4361 9.77854 19.6445 10.56C18.5545 9.35883 17.4878 8.11439 16.4445 6.82667C16.0716 6.68211 15.716 6.71767 15.3778 6.93333C15.1151 6.98923 14.878 6.91812 14.6667 6.72C14.9921 5.90069 15.5254 5.54513 16.2667 5.65333Z" fill="#2270AC"/>
<path fill-rule="evenodd" clip-rule="evenodd" d="M19.6445 6.93335C21.0075 8.42668 22.3111 9.99112 23.5556 11.6267C23.2196 12.0699 22.8046 12.3543 22.3111 12.48C21.1259 11.2 20 9.84891 18.9333 8.42668C19.1703 7.92891 19.4075 7.43112 19.6445 6.93335Z" fill="#91D8F6"/>
<path fill-rule="evenodd" clip-rule="evenodd" d="M10.4 9.28003C10.4 10.0623 10.4 10.8445 10.4 11.6267C9.80742 12.4089 9.21481 13.1911 8.62223 13.9734C8.5037 14.0445 8.3852 14.1156 8.26667 14.1867C8.16704 13.6959 8.07816 13.1981 8 12.6934C7.93199 12.5747 7.8431 12.5036 7.73334 12.48C8.56297 11.3423 9.45186 10.2756 10.4 9.28003Z" fill="#1585C9"/>
<path fill-rule="evenodd" clip-rule="evenodd" d="M18.5778 8.21338C18.6964 8.28448 18.8148 8.35561 18.9333 8.42671C20 9.84894 21.1259 11.2 22.3111 12.48C23.0809 13.4396 23.8217 14.4352 24.5333 15.4667C24.6421 16.1303 24.494 16.6992 24.0889 17.1734C23.7102 17.5205 23.3547 17.9116 23.0222 18.3467C23.3552 18.7102 23.6516 19.1013 23.9111 19.52C23.6741 19.4489 23.437 19.3778 23.2 19.3067C23.2 19.1645 23.1408 19.0934 23.0222 19.0934C22.8444 18.7378 22.6075 18.4534 22.3111 18.24C22.6468 17.5149 23.0912 16.8749 23.6444 16.32C23.763 16.0356 23.763 15.7511 23.6444 15.4667C22.2752 13.8592 20.9419 12.2237 19.6444 10.56C19.4361 9.77858 19.0508 9.13858 18.4889 8.64005C18.3659 8.44019 18.3956 8.29799 18.5778 8.21338Z" fill="#1D3F5E"/>
<path fill-rule="evenodd" clip-rule="evenodd" d="M14.6667 12.48C14.8225 12.4521 14.941 12.5232 15.0222 12.6934C14.6351 13.3664 14.5166 14.0775 14.6667 14.8267C14.8103 14.4164 14.8992 13.9897 14.9334 13.5467C14.9777 13.7865 15.0666 13.9998 15.2 14.1867C15.6396 13.9165 16.0544 13.9165 16.4445 14.1867C16.1424 14.1525 15.8461 14.1881 15.5556 14.2934C14.4481 15.5878 13.3222 16.8322 12.1778 18.0267C12.1068 17.2552 11.929 16.5441 11.6445 15.8934C12.5399 14.6053 13.5473 13.4675 14.6667 12.48Z" fill="#31B5EC"/>
<path fill-rule="evenodd" clip-rule="evenodd" d="M7.73334 12.48C7.8431 12.5036 7.93199 12.5747 8.00001 12.6933C8.07816 13.198 8.16705 13.6958 8.26668 14.1866C7.86008 14.6377 7.5638 15.171 7.37779 15.7866C7.40003 16.1337 7.48892 16.4537 7.64446 16.7466C8.06618 17.2167 8.45137 17.7144 8.80001 18.24C8.56298 18.5955 8.32593 18.9511 8.0889 19.3066C8.01839 19.5253 7.89989 19.5609 7.73334 19.4133C7.22965 18.8089 6.72593 18.2044 6.22223 17.6C5.86668 16.4622 5.86668 15.3244 6.22223 14.1866C6.70273 13.5741 7.20643 13.0052 7.73334 12.48Z" fill="#1E76BB"/>
<path fill-rule="evenodd" clip-rule="evenodd" d="M10.4 11.6266C10.7185 11.598 11.0148 11.6691 11.2889 11.84C10.8148 12.5511 10.2814 13.1911 9.68886 13.76C9.32178 13.7636 8.96623 13.8347 8.62219 13.9733C9.21478 13.1911 9.80738 12.4089 10.4 11.6266Z" fill="#5EC6F2"/>
<path fill-rule="evenodd" clip-rule="evenodd" d="M17.5111 12.6933C17.5152 13.1412 17.3966 13.5323 17.1556 13.8667C17.2252 14.0822 17.3437 14.1889 17.5111 14.1867C17.3116 14.6094 17.3116 15.0361 17.5111 15.4667C17.0963 15.1111 16.7407 14.6844 16.4444 14.1867C16.0543 13.9165 15.6395 13.9165 15.2 14.1867C15.0665 13.9998 14.9776 13.7864 14.9333 13.5467C14.8992 13.9897 14.8103 14.4163 14.6667 14.8267C14.5166 14.0775 14.6351 13.3664 15.0222 12.6933C14.941 12.5232 14.8225 12.4521 14.6667 12.48C15.6288 11.9119 16.5769 11.983 17.5111 12.6933Z" fill="#54C4F1"/>
<path fill-rule="evenodd" clip-rule="evenodd" d="M23.5555 11.6267C24.3196 12.4366 25.0603 13.2899 25.7778 14.1867C26.163 14.8879 26.2519 15.599 26.0444 16.32C26.0709 16.0956 26.0414 15.8823 25.9555 15.68C25.4206 16.5052 24.7984 17.003 24.0889 17.1734C24.494 16.6992 24.6421 16.1303 24.5333 15.4667C23.8217 14.4352 23.0809 13.4396 22.3111 12.48C22.8046 12.3544 23.2195 12.0699 23.5555 11.6267Z" fill="#42C0F1"/>
<path fill-rule="evenodd" clip-rule="evenodd" d="M9.68892 13.76C9.34028 14.2856 8.95509 14.7833 8.53336 15.2533C8.50373 15.4667 8.47411 15.68 8.44447 15.8933C8.71215 16.7854 9.18623 17.4966 9.8667 18.0267C9.8667 18.0978 9.8667 18.1689 9.8667 18.24C9.45189 18.6667 9.03706 19.0933 8.62225 19.52C8.62225 19.4489 8.62225 19.3778 8.62225 19.3067C8.88179 18.8879 9.17809 18.4968 9.51114 18.1333C9.25719 18.0098 9.02015 18.0454 8.80003 18.24C8.45139 17.7145 8.0662 17.2167 7.64447 16.7467C7.48894 16.4537 7.40005 16.1337 7.37781 15.7867C7.56382 15.171 7.8601 14.6377 8.2667 14.1867C8.38522 14.1156 8.50373 14.0444 8.62225 13.9733C8.96629 13.8348 9.32184 13.7637 9.68892 13.76Z" fill="#93D4F2"/>
<path fill-rule="evenodd" clip-rule="evenodd" d="M17.5111 12.6934C18.5778 13.8311 19.5853 15.04 20.5334 16.32C20.1021 16.6866 19.6279 16.7933 19.1111 16.64C19.3238 16.5004 19.3238 16.3938 19.1111 16.32C18.8217 16.5409 18.5254 16.5409 18.2222 16.32C17.9259 16.1067 17.6889 15.8223 17.5111 15.4667C17.3116 15.0361 17.3116 14.6094 17.5111 14.1867C17.3438 14.1889 17.2252 14.0823 17.1556 13.8667C17.3967 13.5324 17.5152 13.1413 17.5111 12.6934Z" fill="#8DD6F5"/>
<path fill-rule="evenodd" clip-rule="evenodd" d="M26.0444 16.3201C26.0672 16.7797 25.9783 17.2064 25.7778 17.6001C25.227 18.3696 24.6048 19.0096 23.9111 19.5201C23.6516 19.1013 23.3552 18.7102 23.0222 18.3467C23.3547 17.9116 23.7102 17.5205 24.0889 17.1734C24.7984 17.003 25.4206 16.5052 25.9555 15.6801C26.0414 15.8823 26.0709 16.0956 26.0444 16.3201Z" fill="#0FB1EE"/>
<path fill-rule="evenodd" clip-rule="evenodd" d="M11.6444 15.8933C11.929 16.544 12.1068 17.2551 12.1777 18.0266C12.1185 18.1689 12.0592 18.3111 12 18.4533C11.4191 18.8645 10.8858 19.3622 10.4 19.9466C10.2219 19.3767 10.0442 18.8078 9.86664 18.24C9.86664 18.1689 9.86664 18.0977 9.86664 18.0266C10.4 17.2444 10.9926 16.5333 11.6444 15.8933Z" fill="#1D91D2"/>
<path fill-rule="evenodd" clip-rule="evenodd" d="M18.2222 16.3199C18.5253 16.5408 18.8217 16.5408 19.1111 16.3199C19.3237 16.3937 19.3237 16.5004 19.1111 16.6399C19.6279 16.7932 20.1021 16.6866 20.5333 16.3199C21.1259 16.9599 21.7186 17.5999 22.3111 18.2399C22.6075 18.4533 22.8445 18.7377 23.0222 19.0933C22.8297 19.0849 22.6519 19.0137 22.4889 18.8799C22.1925 19.1644 21.8964 19.4488 21.6 19.7333C21.5408 19.5911 21.4814 19.4488 21.4222 19.3066C21.2043 19.4907 20.9671 19.4907 20.7111 19.3066C19.8222 18.3822 18.9925 17.3866 18.2222 16.3199Z" fill="#50C0ED"/>
<path fill-rule="evenodd" clip-rule="evenodd" d="M16.4444 17.3867C17.1472 17.6297 17.6805 18.1275 18.0444 18.8801C17.5826 19.1318 17.2863 19.5585 17.1556 20.1601C16.4814 19.1721 15.7703 19.101 15.0222 19.9467C15.0222 19.2356 15.0222 18.5245 15.0222 17.8134C15.5329 17.7489 16.007 17.6067 16.4444 17.3867Z" fill="#FDD296"/>
<path fill-rule="evenodd" clip-rule="evenodd" d="M8.6222 19.3067C8.44442 19.3067 8.26664 19.3067 8.08887 19.3067C8.3259 18.9511 8.56295 18.5956 8.79998 18.24C9.0201 18.0454 9.25713 18.0098 9.51109 18.1333C9.17804 18.4968 8.88174 18.888 8.6222 19.3067Z" fill="#113753"/>
<path fill-rule="evenodd" clip-rule="evenodd" d="M16.4445 17.3867C16.007 17.6066 15.5329 17.7489 15.0222 17.8133C15.0222 18.5244 15.0222 19.2356 15.0222 19.9467C14.8445 20.3022 14.6074 20.5867 14.3111 20.8C14.3152 20.3521 14.1967 19.961 13.9556 19.6267C14.0932 19.1671 14.2117 18.7049 14.3111 18.24C14.8776 17.5093 15.5887 17.2248 16.4445 17.3867Z" fill="#FABA5D"/>
<path fill-rule="evenodd" clip-rule="evenodd" d="M9.86664 18.24C10.0442 18.8078 10.2219 19.3767 10.4 19.9467C10.2222 20.2311 10.0444 20.5156 9.86664 20.8C9.65539 20.9842 9.44799 21.1976 9.24442 21.44C8.69885 21.0104 8.40257 20.4416 8.35553 19.7333C8.42355 19.6147 8.51244 19.5436 8.6222 19.52C9.03701 19.0933 9.45183 18.6667 9.86664 18.24Z" fill="#207ABE"/>
<path fill-rule="evenodd" clip-rule="evenodd" d="M23.0222 19.0933C23.1408 19.0933 23.2 19.1644 23.2 19.3067C23.3405 19.5828 23.5182 19.8317 23.7333 20.0533C23.3481 20.5156 22.963 20.9778 22.5778 21.44C21.8665 20.8352 21.2443 20.1241 20.7111 19.3067C20.9671 19.4908 21.2043 19.4908 21.4222 19.3067C21.4814 19.4489 21.5408 19.5911 21.6 19.7333C21.8964 19.4489 22.1925 19.1644 22.4889 18.88C22.6519 19.0138 22.8297 19.0849 23.0222 19.0933Z" fill="#20A8E2"/>
<path fill-rule="evenodd" clip-rule="evenodd" d="M12 18.4534C11.3965 19.3915 10.6854 20.1738 9.86664 20.8C10.0444 20.5156 10.2222 20.2311 10.4 19.9467C10.8858 19.3623 11.4191 18.8645 12 18.4534Z" fill="#A7DBF3"/>
<path fill-rule="evenodd" clip-rule="evenodd" d="M18.0445 18.88C18.4 19.1644 18.6964 19.52 18.9334 19.9467C18.4992 20.2925 18.2622 20.7902 18.2222 21.44C17.8075 21.0844 17.4519 20.6578 17.1556 20.16C17.2863 19.5584 17.5826 19.1317 18.0445 18.88Z" fill="#FAB959"/>
<path fill-rule="evenodd" clip-rule="evenodd" d="M14.3111 18.24C14.2117 18.7049 14.0932 19.1671 13.9555 19.6267C14.1966 19.961 14.3151 20.3521 14.3111 20.8C13.4259 22.0045 12.4778 23.1422 11.4666 24.2133C11.1703 23.7867 10.8741 23.36 10.5778 22.9333C11.7012 21.2296 12.9457 19.6652 14.3111 18.24Z" fill="#F6962B"/>
<path fill-rule="evenodd" clip-rule="evenodd" d="M18.9333 19.9467C19.9037 20.7198 20.7333 21.6798 21.4222 22.8267C21.0933 23.2572 20.7378 23.6482 20.3556 24C19.5815 23.2132 18.8704 22.3599 18.2222 21.44C18.2622 20.7902 18.4992 20.2924 18.9333 19.9467Z" fill="#F6992B"/>
<path fill-rule="evenodd" clip-rule="evenodd" d="M13.0666 23.1467C12.9636 23.6265 12.7265 23.9819 12.3555 24.2134C12.4586 23.7336 12.6956 23.3782 13.0666 23.1467Z" fill="#214B7E"/>
<path fill-rule="evenodd" clip-rule="evenodd" d="M13.2444 22.72C13.3149 22.5014 13.4334 22.4658 13.6 22.6134C13.9921 23.0479 14.3477 23.51 14.6666 24C14.5382 24.2243 14.3605 24.3666 14.1333 24.4267C13.4828 24.0248 13.1865 23.456 13.2444 22.72Z" fill="#6FCCF3"/>
<path fill-rule="evenodd" clip-rule="evenodd" d="M18.7555 22.9334C18.5546 23.7468 18.1399 24.3868 17.5111 24.8534C17.346 24.5997 17.2867 24.3154 17.3333 24.0001C17.5928 23.5813 17.8892 23.1902 18.2222 22.8267C18.4442 22.6689 18.622 22.7045 18.7555 22.9334Z" fill="#1A4C6F"/>
<path fill-rule="evenodd" clip-rule="evenodd" d="M14.6667 24C14.986 24.2758 15.2823 24.5958 15.5556 24.96C15.7855 25.0645 16.0225 25.1002 16.2667 25.0667C16.2175 25.542 16.0397 25.8976 15.7334 26.1333C15.3936 26.0107 15.0973 25.7973 14.8445 25.4933C14.6074 25.1377 14.3704 24.7823 14.1334 24.4267C14.3605 24.3665 14.5383 24.2242 14.6667 24Z" fill="#25ADE7"/>
<path fill-rule="evenodd" clip-rule="evenodd" d="M18.7556 22.9333C20.0331 23.8112 20.0924 24.7358 18.9333 25.7067C17.9724 25.3048 17.0836 25.4825 16.2667 26.24C16.0446 26.3979 15.8668 26.3623 15.7333 26.1333C16.0397 25.8976 16.2174 25.542 16.2667 25.0667C16.6222 24.7111 16.9778 24.3556 17.3333 24C17.2868 24.3153 17.346 24.5997 17.5111 24.8533C18.1399 24.3868 18.5547 23.7468 18.7556 22.9333Z" fill="#0F7BAD"/>
<path fill-rule="evenodd" clip-rule="evenodd" d="M13.2444 22.72C13.1865 23.456 13.4828 24.0247 14.1333 24.4266C14.3704 24.7823 14.6074 25.1377 14.8444 25.4933C14.1926 25.4933 13.5407 25.4933 12.8889 25.4933C12.3432 25.2151 12.1654 24.7885 12.3555 24.2133C12.7265 23.9818 12.9636 23.6264 13.0667 23.1466C13.0361 22.935 13.0954 22.7929 13.2444 22.72Z" fill="#0B78AB"/>
<path fill-rule="evenodd" clip-rule="evenodd" d="M12.8889 25.4933C13.5408 25.4933 14.1926 25.4933 14.8445 25.4933C15.0973 25.7973 15.3936 26.0106 15.7334 26.1333C15.8668 26.3622 16.0446 26.3978 16.2667 26.24C17.0836 25.4824 17.9725 25.3047 18.9334 25.7066C18.637 26.2043 18.2814 26.631 17.8667 26.9866C16.596 26.775 15.2923 26.704 13.9556 26.7733C13.5408 26.4177 13.1852 25.991 12.8889 25.4933Z" fill="#0B5077"/>
<path fill-rule="evenodd" clip-rule="evenodd" d="M13.9556 26.7734C15.2923 26.704 16.596 26.7751 17.8667 26.9867C17.8075 27.129 17.7482 27.2711 17.6889 27.4134C16.5461 28.2392 15.4202 28.2392 14.3111 27.4134C14.1926 27.2 14.0741 26.9867 13.9556 26.7734Z" fill="#163D5D"/>
</g>
<defs>
<clipPath id="clip0_11_239">
<rect width="32" height="32" fill="white"/>
</clipPath>
</defs>
</svg>
