<svg width="32" height="32" viewBox="0 0 32 32" fill="none" xmlns="http://www.w3.org/2000/svg">
<g clip-path="url(#clip0_3_567)">
<path fill-rule="evenodd" clip-rule="evenodd" d="M-0.0134277 -0.0133057C10.6532 -0.0133057 21.3199 -0.0133057 31.9866 -0.0133057C31.9866 10.6534 31.9866 21.32 31.9866 31.9867C21.3199 31.9867 10.6532 31.9867 -0.0134277 31.9867C-0.0134277 21.32 -0.0134277 10.6534 -0.0134277 -0.0133057Z" fill="#004AAD"/>
<path fill-rule="evenodd" clip-rule="evenodd" d="M4.51995 6.38666C4.71539 6.37333 4.89315 6.42221 5.05328 6.53333C6.47107 7.64888 7.88883 8.76445 9.30661 9.88C14.4365 7.44258 19.4276 7.69592 24.2799 10.64C26.0834 11.7934 27.7234 13.1578 29.1999 14.7333C29.6023 15.1613 29.989 15.6013 30.3599 16.0533C29.4871 17.2196 28.4917 18.2774 27.3733 19.2267C26.3602 20.0843 25.2847 20.8533 24.1466 21.5333C25.3783 22.5293 26.6183 23.516 27.8666 24.4933C28.0957 24.858 28.0469 25.1825 27.7199 25.4667C27.4837 25.6121 27.2437 25.621 26.9999 25.4933C25.6006 24.4006 24.205 23.3029 22.8133 22.2C18.4535 24.2254 14.0802 24.2565 9.69328 22.2933C8.00285 21.4933 6.4384 20.5067 4.99995 19.3333C3.79232 18.3526 2.66344 17.2815 1.61328 16.12C1.94812 15.665 2.30812 15.2295 2.69328 14.8133C4.26659 13.1321 6.03992 11.7143 8.01328 10.56C6.71269 9.55186 5.41936 8.53408 4.13328 7.50666C3.8412 6.98282 3.97008 6.60949 4.51995 6.38666Z" fill="#FDFEFE"/>
<path fill-rule="evenodd" clip-rule="evenodd" d="M19.2933 17.7466C20.2953 16.9509 20.7442 15.9109 20.64 14.6266C20.6072 14.451 20.5539 14.2821 20.48 14.12C20.4327 13.9981 20.366 13.8914 20.28 13.8C20.1484 13.5884 19.9795 13.4106 19.7733 13.2666C19.9143 12.2025 19.5499 11.3625 18.68 10.7466C18.3888 10.5785 18.0777 10.4629 17.7467 10.4C16.3867 10.3822 15.0267 10.3822 13.6667 10.4C13.1326 10.5607 12.7993 10.9118 12.6667 11.4533C12.6246 11.7711 12.5668 12.0822 12.4933 12.3866C11.8767 11.9079 11.2633 11.4235 10.6533 10.9333C14.9272 9.0993 19.0783 9.34821 23.1067 11.68C25.0838 12.8871 26.8528 14.3582 28.4133 16.0933C26.8093 17.8984 24.9471 19.3651 22.8267 20.4933C21.6449 19.5826 20.4671 18.667 19.2933 17.7466Z" fill="#014AAD"/>
<path fill-rule="evenodd" clip-rule="evenodd" d="M19.7734 13.2667C19.4985 13.0817 19.1963 12.9617 18.8667 12.9067C17.7201 12.8889 16.5734 12.8889 15.4267 12.9067C15.1269 12.9843 14.9447 13.1754 14.8801 13.4801C14.8402 13.7103 14.8091 13.9414 14.7867 14.1734C14.0124 13.5906 13.248 12.9951 12.4934 12.3867C12.5669 12.0823 12.6247 11.7712 12.6667 11.4534C12.7994 10.9119 13.1327 10.5608 13.6667 10.4001C15.0267 10.3823 16.3867 10.3823 17.7467 10.4001C18.0778 10.463 18.3889 10.5786 18.6801 10.7467C19.55 11.3626 19.9144 12.2026 19.7734 13.2667Z" fill="#0794FE"/>
<path fill-rule="evenodd" clip-rule="evenodd" d="M12.2533 13.9067C11.9543 15.6839 11.6565 17.4617 11.3599 19.24C11.3028 19.8333 11.5651 20.1844 12.1466 20.2933C12.5644 20.3111 12.9822 20.3111 13.3999 20.2933C13.5714 20.2571 13.6959 20.1638 13.7733 20.0133C13.7319 20.2793 13.6964 20.5459 13.6666 20.8133C13.6409 21.1577 13.7831 21.4021 14.0933 21.5467C14.5185 21.5895 14.9452 21.5983 15.3733 21.5733C15.607 21.5085 15.7625 21.3619 15.8399 21.1333C15.962 20.4323 16.0776 19.7301 16.1866 19.0267C16.2771 18.6962 16.486 18.4784 16.8133 18.3733C17.1692 18.3644 17.5247 18.3511 17.8799 18.3333C19.0744 19.2654 20.2655 20.2032 21.4533 21.1467C17.8325 22.6483 14.2236 22.6216 10.6266 21.0667C9.13584 20.4018 7.74917 19.5751 6.46661 18.5867C5.4632 17.8013 4.51211 16.9524 3.61328 16.04C5.2676 14.2426 7.16093 12.7582 9.29328 11.5867C10.2887 12.3513 11.2754 13.1246 12.2533 13.9067Z" fill="#014AAD"/>
<path fill-rule="evenodd" clip-rule="evenodd" d="M19.7733 13.2667C19.5498 14.6926 18.7854 15.7059 17.48 16.3067C16.5666 15.6145 15.6688 14.9034 14.7866 14.1733C14.8089 13.9413 14.8401 13.7102 14.88 13.48C14.9446 13.1754 15.1268 12.9843 15.4266 12.9067C16.5733 12.8889 17.72 12.8889 18.8666 12.9067C19.1961 12.9616 19.4984 13.0816 19.7733 13.2667Z" fill="#156CDD"/>
<path fill-rule="evenodd" clip-rule="evenodd" d="M19.7733 13.2667C19.9795 13.4107 20.1484 13.5885 20.28 13.8001C19.9306 15.1001 19.1661 16.069 17.9866 16.7067C17.8094 16.5827 17.6406 16.4494 17.48 16.3067C18.7854 15.706 19.5499 14.6926 19.7733 13.2667Z" fill="#C9CFD8"/>
<path fill-rule="evenodd" clip-rule="evenodd" d="M20.2799 13.8C20.3659 13.8915 20.4326 13.9982 20.4799 14.12C20.5538 14.2822 20.6071 14.4511 20.6399 14.6267C20.7441 15.911 20.2953 16.951 19.2932 17.7467C18.8518 17.4062 18.4162 17.0595 17.9866 16.7067C19.1661 16.069 19.9305 15.1001 20.2799 13.8Z" fill="#CBD7E4"/>
<path fill-rule="evenodd" clip-rule="evenodd" d="M12.2533 13.9066C13.0172 14.4928 13.7727 15.0884 14.52 15.6933C14.4412 16.107 14.3701 16.5248 14.3066 16.9466C14.1255 17.9714 13.9477 18.9936 13.7733 20.0133C13.6959 20.1637 13.5714 20.257 13.4 20.2933C12.9822 20.3111 12.5644 20.3111 12.1466 20.2933C11.5651 20.1843 11.3028 19.8332 11.36 19.2399C11.6565 17.4616 11.9543 15.6838 12.2533 13.9066Z" fill="#0794FE"/>
<path fill-rule="evenodd" clip-rule="evenodd" d="M14.52 15.6934C14.9111 15.9956 15.3022 16.2978 15.6933 16.6C15.3602 16.6222 15.0224 16.6355 14.68 16.64C14.5161 16.699 14.3916 16.8013 14.3066 16.9467C14.3701 16.5249 14.4413 16.1071 14.52 15.6934Z" fill="#186DDD"/>
<path fill-rule="evenodd" clip-rule="evenodd" d="M15.6934 16.6C15.9341 16.7963 16.1741 16.9919 16.4134 17.1866C15.8893 17.2078 15.3648 17.2167 14.8401 17.2133C14.6984 18.2144 14.5251 19.2099 14.3201 20.2C14.2 20.5112 13.9822 20.7157 13.6667 20.8133C13.6965 20.5459 13.7321 20.2792 13.7734 20.0133C13.9478 18.9936 14.1256 17.9714 14.3067 16.9466C14.3917 16.8012 14.5162 16.699 14.6801 16.64C15.0225 16.6355 15.3603 16.6221 15.6934 16.6Z" fill="#C9CFD8"/>
<path fill-rule="evenodd" clip-rule="evenodd" d="M16.4134 17.1866C16.9106 17.5595 17.3995 17.9417 17.8801 18.3333C17.5249 18.3511 17.1693 18.3644 16.8134 18.3733C16.4862 18.4784 16.2773 18.6961 16.1868 19.0266C16.0777 19.7301 15.9622 20.4323 15.8401 21.1333C15.7627 21.3618 15.6071 21.5085 15.3734 21.5733C14.9453 21.5983 14.5187 21.5894 14.0934 21.5466C13.7833 21.4021 13.6411 21.1577 13.6668 20.8133C13.9823 20.7157 14.2 20.5112 14.3201 20.2C14.5251 19.2099 14.6984 18.2144 14.8401 17.2133C15.3648 17.2167 15.8893 17.2078 16.4134 17.1866Z" fill="#CBD7E4"/>
</g>
<defs>
<clipPath id="clip0_3_567">
<rect width="32" height="32" fill="white"/>
</clipPath>
</defs>
</svg>
