<svg width="32" height="32" viewBox="0 0 32 32" fill="none" xmlns="http://www.w3.org/2000/svg">
<path opacity="0.983" fill-rule="evenodd" clip-rule="evenodd" d="M15.0859 1.37134C15.6954 1.37134 16.3049 1.37134 16.9144 1.37134C19.7162 2.69265 22.6114 3.91169 25.6002 5.02848C27.3155 7.69632 28.9155 10.4392 30.4002 13.2571C30.4434 16.9627 29.9863 20.6199 29.0287 24.2285C26.4377 26.4685 23.9234 28.7542 21.4859 31.0856C17.8287 31.0856 14.1716 31.0856 10.5144 31.0856C8.23234 28.8055 5.79426 26.6721 3.20015 24.6856C2.52411 22.206 1.91458 19.768 1.37158 17.3713C1.37158 15.9999 1.37158 14.6285 1.37158 13.2571C3.01959 10.5323 4.69578 7.78949 6.40015 5.02848C9.34132 3.7979 12.2366 2.57885 15.0859 1.37134ZM15.0859 9.14277C19.9836 9.16462 22.7265 11.6027 23.3144 16.4571C21.9601 22.6699 18.3029 24.727 12.343 22.6285C8.43165 19.6544 7.74594 16.0734 10.2859 11.8856C11.6887 10.5391 13.2887 9.62482 15.0859 9.14277Z" fill="#1833D0"/>
</svg>
