<svg width="32" height="32" viewBox="0 0 32 32" fill="none" xmlns="http://www.w3.org/2000/svg">
<g clip-path="url(#clip0_3_5)">
<path opacity="0.982" fill-rule="evenodd" clip-rule="evenodd" d="M13.17 -0.108826C14.9841 -0.108826 16.7981 -0.108826 18.6122 -0.108826C25.9169 1.68113 30.3434 6.25256 31.8911 13.6055C31.8911 15.1293 31.8911 16.6531 31.8911 18.1769C30.302 25.7163 25.7306 30.2877 18.1768 31.8912C16.653 31.8912 15.1292 31.8912 13.6054 31.8912C6.2525 30.3434 1.68106 25.917 -0.108887 18.6123C-0.108887 16.7982 -0.108887 14.9841 -0.108887 13.1701C1.48748 5.91386 5.9138 1.48755 13.17 -0.108826Z" fill="#AA314D"/>
<path fill-rule="evenodd" clip-rule="evenodd" d="M12.2993 6.85713C18.2956 6.21698 21.706 8.86549 22.5306 14.8027C22.4109 16.4083 21.9391 17.8958 21.1156 19.2653C20.8019 21.3475 21.6364 22.1094 23.619 21.551C24.4075 20.6798 24.4802 19.7365 23.8367 18.7211C23.4912 18.5333 23.1284 18.3882 22.7483 18.2857C24.5431 17.3315 25.704 17.8757 26.2313 19.9184C27.8544 20.705 28.1809 21.866 27.2109 23.4013C26.8184 21.7365 25.8388 21.1923 24.2721 21.7687C21.6102 24.4034 18.4175 25.4193 14.6939 24.8163C9.54865 23.4449 6.7913 20.107 6.42175 14.8027C6.67194 10.8883 8.63112 8.23983 12.2993 6.85713Z" fill="#FEFDFD"/>
</g>
<defs>
<clipPath id="clip0_3_5">
<rect width="32" height="32" fill="white"/>
</clipPath>
</defs>
</svg>
