<svg width="32" height="32" viewBox="0 0 32 32" fill="none" xmlns="http://www.w3.org/2000/svg">
<g clip-path="url(#clip0_4_1023)">
<path d="M16 32C24.8366 32 32 24.8366 32 16C32 7.16344 24.8366 0 16 0C7.16344 0 0 7.16344 0 16C0 24.8366 7.16344 32 16 32Z" fill="url(#paint0_radial_4_1023)"/>
<path d="M14.5117 7.81406C14.5117 7.41931 14.6685 7.04074 14.9477 6.76162C15.2268 6.48249 15.6054 6.32568 16.0001 6.32568C16.3948 6.32568 16.7734 6.48249 17.0525 6.76162C17.3317 7.04074 17.4885 7.41931 17.4885 7.81406V24.1861C17.4885 24.5809 17.3317 24.9595 17.0525 25.2386C16.7734 25.5177 16.3948 25.6745 16.0001 25.6745C15.6054 25.6745 15.2268 25.5177 14.9477 25.2386C14.6685 24.9595 14.5117 24.5809 14.5117 24.1861V7.81406Z" fill="white"/>
<path d="M6.32568 16.0001C6.32568 15.6054 6.48249 15.2268 6.76162 14.9477C7.04074 14.6685 7.41931 14.5117 7.81406 14.5117H24.1861C24.5809 14.5117 24.9595 14.6685 25.2386 14.9477C25.5177 15.2268 25.6745 15.6054 25.6745 16.0001C25.6745 16.3948 25.5177 16.7734 25.2386 17.0525C24.9595 17.3317 24.5809 17.4885 24.1861 17.4885H7.81406C7.41931 17.4885 7.04074 17.3317 6.76162 17.0525C6.48249 16.7734 6.32568 16.3948 6.32568 16.0001Z" fill="white"/>
</g>
<defs>
<radialGradient id="paint0_radial_4_1023" cx="0" cy="0" r="1" gradientUnits="userSpaceOnUse" gradientTransform="translate(12.2791) rotate(56.5138) scale(28.9994)">
<stop stop-color="#1EE4FF"/>
<stop offset="1" stop-color="#1CADFF"/>
</radialGradient>
<clipPath id="clip0_4_1023">
<rect width="32" height="32" fill="white"/>
</clipPath>
</defs>
</svg>
