<svg width="32" height="32" viewBox="0 0 32 32" fill="none" xmlns="http://www.w3.org/2000/svg">
<g clip-path="url(#clip0_11_376)">
<path fill-rule="evenodd" clip-rule="evenodd" d="M-0.0200195 -0.0200195C10.6467 -0.0200195 21.3133 -0.0200195 31.98 -0.0200195C31.98 10.6467 31.98 21.3133 31.98 31.98C21.3133 31.98 10.6467 31.98 -0.0200195 31.98C-0.0200195 21.3133 -0.0200195 10.6467 -0.0200195 -0.0200195Z" fill="#ED1B4E"/>
<path fill-rule="evenodd" clip-rule="evenodd" d="M17.7 6.09992C17.5933 6.09992 17.4866 6.09992 17.38 6.09992C16.4028 5.98144 15.4294 6.00808 14.46 6.17992C14.42 6.17992 14.38 6.17992 14.34 6.17992C14.3444 6.15524 14.3577 6.13524 14.38 6.11992C15.2296 6.00332 16.0829 5.94996 16.94 5.95992C17.2001 5.99512 17.4534 6.0418 17.7 6.09992Z" fill="#D5345A"/>
<path fill-rule="evenodd" clip-rule="evenodd" d="M17.38 6.09989C16.4044 6.08133 15.431 6.10801 14.46 6.17989C15.4294 6.00805 16.4028 5.98141 17.38 6.09989Z" fill="#FEE7EF"/>
<path fill-rule="evenodd" clip-rule="evenodd" d="M17.38 6.09995C17.4867 6.09995 17.5933 6.09995 17.7 6.09995C20.0246 6.34699 21.9913 7.30699 23.6 8.97995C25.0044 10.6665 25.6644 12.6132 25.58 14.8199C25.5345 15.1438 25.4545 15.4638 25.34 15.78C25.019 16.3674 24.539 16.7674 23.9 16.98C23.6058 17.0734 23.3125 17.1534 23.02 17.22C22.8993 17.2281 22.7793 17.2414 22.66 17.26C21.8116 17.3725 20.9716 17.5058 20.14 17.66C19.8424 17.6796 19.5491 17.7196 19.26 17.78C19.0105 17.7943 18.7705 17.8343 18.54 17.9C18.4867 17.9 18.4333 17.9 18.38 17.9C17.8926 17.9673 17.4126 18.0473 16.94 18.14C16.1299 18.2278 15.3299 18.3478 14.54 18.5C14.2186 18.5294 13.8986 18.5694 13.58 18.62C13.2646 18.6525 12.958 18.7058 12.66 18.78C12.6304 18.7747 12.6038 18.7814 12.58 18.8C13.0925 20.291 14.1192 21.2243 15.66 21.6C15.8957 21.6722 16.1357 21.7189 16.38 21.74C16.8088 21.8369 17.2488 21.8769 17.7 21.86C18.0819 21.867 18.4553 21.8404 18.82 21.78C20.428 21.644 21.9347 21.1773 23.34 20.38C24.1783 20.9633 24.645 21.7633 24.74 22.78C24.7274 23.6118 24.4074 24.2984 23.78 24.84C22.7704 25.5924 21.637 26.0524 20.38 26.22C19.8679 26.2873 19.3613 26.3539 18.86 26.42C17.8998 26.4688 16.9398 26.4688 15.98 26.42C14.2087 26.2602 12.542 25.7469 10.98 24.88C9.04903 23.6799 7.73571 21.9933 7.03999 19.82C6.91843 19.3906 6.80507 18.964 6.69999 18.54C6.63155 17.894 6.56487 17.254 6.49999 16.62C6.38915 14.7546 6.70251 12.9679 7.43999 11.2599C8.85735 8.38611 11.1574 6.69275 14.34 6.17995C14.38 6.17995 14.42 6.17995 14.46 6.17995C15.4311 6.10807 16.4044 6.08139 17.38 6.09995Z" fill="#FEFEFE"/>
<path fill-rule="evenodd" clip-rule="evenodd" d="M16.82 10.5801C16.3241 10.5698 15.8308 10.5964 15.34 10.6601C15.4905 10.6068 15.6505 10.5735 15.82 10.5601C16.1604 10.5272 16.4937 10.5338 16.82 10.5801Z" fill="#DE5372"/>
<path fill-rule="evenodd" clip-rule="evenodd" d="M16.82 10.58C18.1349 10.6606 19.0616 11.3006 19.6 12.5C19.73 12.7933 19.8033 13.1 19.82 13.42C17.4067 13.8029 14.9934 14.1896 12.58 14.58C12.4733 14.58 12.3667 14.58 12.26 14.58C12.2948 14.3426 12.3348 14.1026 12.38 13.86C12.4607 13.8222 12.474 13.7622 12.42 13.68C12.4628 13.5291 12.4894 13.3758 12.5 13.22C12.9396 11.9206 13.8196 11.0739 15.14 10.68C15.2054 10.6603 15.272 10.6536 15.34 10.66C15.8308 10.5964 16.3242 10.5697 16.82 10.58Z" fill="#ED1C4E"/>
<path fill-rule="evenodd" clip-rule="evenodd" d="M12.5001 13.22C12.4895 13.3757 12.4628 13.529 12.4201 13.68C12.4741 13.7622 12.4607 13.8222 12.3801 13.86C12.3348 14.1025 12.2948 14.3425 12.2601 14.58C12.3667 14.58 12.4734 14.58 12.5801 14.58C12.455 14.6232 12.3217 14.6499 12.1801 14.66C12.2109 14.1584 12.3176 13.6784 12.5001 13.22Z" fill="#E14668"/>
<path fill-rule="evenodd" clip-rule="evenodd" d="M25.58 14.8201C25.576 15.1209 25.5294 15.4143 25.44 15.7001C25.4116 15.7353 25.3783 15.7619 25.34 15.7801C25.4545 15.4639 25.5345 15.1439 25.58 14.8201Z" fill="#D74062"/>
<path fill-rule="evenodd" clip-rule="evenodd" d="M23.9 16.98C23.8281 17.05 23.7414 17.1034 23.64 17.14C23.4386 17.2048 23.2319 17.2315 23.02 17.22C23.3125 17.1534 23.6059 17.0734 23.9 16.98Z" fill="#DD3F61"/>
<path fill-rule="evenodd" clip-rule="evenodd" d="M6.50005 16.6201C6.56493 17.2542 6.63161 17.8942 6.70005 18.5401C6.60453 18.1929 6.54453 17.8329 6.52005 17.4601C6.50005 17.1804 6.49341 16.9004 6.50005 16.6201Z" fill="#DB4869"/>
<path fill-rule="evenodd" clip-rule="evenodd" d="M22.66 17.26C22.6556 17.2847 22.6423 17.3047 22.62 17.32C22.4471 17.3548 22.2737 17.3881 22.1 17.42C22.2503 17.4779 22.2503 17.5179 22.1 17.54C21.6576 17.4224 21.2376 17.4757 20.84 17.7C20.7711 17.6956 20.7645 17.6756 20.82 17.64C20.5933 17.6303 20.3667 17.637 20.14 17.66C20.9716 17.5059 21.8116 17.3726 22.66 17.26Z" fill="#E1325A"/>
<path fill-rule="evenodd" clip-rule="evenodd" d="M19.26 17.78C19.2433 17.8089 19.2167 17.8289 19.18 17.84C18.9677 17.8732 18.7544 17.8932 18.54 17.9C18.7706 17.8343 19.0106 17.7943 19.26 17.78Z" fill="#D7506E"/>
<path fill-rule="evenodd" clip-rule="evenodd" d="M18.3799 17.8999C18.3834 17.9397 18.37 17.9731 18.3399 17.9999C17.8729 18.044 17.4063 18.0907 16.9399 18.1399C17.4125 18.0473 17.8925 17.9673 18.3799 17.8999Z" fill="#DD4466"/>
<path fill-rule="evenodd" clip-rule="evenodd" d="M16.94 18.1399C16.7051 18.1927 16.4651 18.246 16.22 18.2999C16.3311 18.3711 16.3178 18.4111 16.18 18.4199C16.0629 18.3814 15.9429 18.3547 15.82 18.3399C15.7667 18.3532 15.7134 18.3666 15.66 18.3799C15.9796 18.4198 15.9796 18.4598 15.66 18.4999C15.5568 18.4411 15.4434 18.4144 15.32 18.4199C15.061 18.4575 14.801 18.4842 14.54 18.4999C15.33 18.3477 16.13 18.2277 16.94 18.1399Z" fill="#E33A5E"/>
<path fill-rule="evenodd" clip-rule="evenodd" d="M13.58 18.6201C13.5756 18.6448 13.5623 18.6648 13.54 18.6801C13.2489 18.7353 12.9556 18.7687 12.66 18.7801C12.958 18.706 13.2646 18.6526 13.58 18.6201Z" fill="#DE4C6C"/>
<path fill-rule="evenodd" clip-rule="evenodd" d="M16.38 21.74C17.1927 21.776 18.006 21.7893 18.82 21.78C18.4553 21.8404 18.0819 21.8671 17.7 21.86C17.2488 21.8769 16.8088 21.8369 16.38 21.74Z" fill="#D84664"/>
<path fill-rule="evenodd" clip-rule="evenodd" d="M20.38 26.22C20.3563 26.246 20.3297 26.2727 20.3 26.3C19.8229 26.3745 19.3429 26.4145 18.86 26.42C19.3613 26.3539 19.8679 26.2873 20.38 26.22Z" fill="#E04668"/>
<path fill-rule="evenodd" clip-rule="evenodd" d="M15.98 26.4199C16.9397 26.4688 17.8997 26.4688 18.86 26.4199C18.7612 26.4526 18.6546 26.4726 18.54 26.4799C17.78 26.5066 17.02 26.5066 16.26 26.4799C16.1585 26.4725 16.0652 26.4525 15.98 26.4199Z" fill="#D23259"/>
</g>
<defs>
<clipPath id="clip0_11_376">
<rect width="32" height="32" fill="white"/>
</clipPath>
</defs>
</svg>
