<svg width="32" height="32" viewBox="0 0 32 32" fill="none" xmlns="http://www.w3.org/2000/svg">
<g clip-path="url(#clip0_6_265)">
<mask id="mask0_6_265" style="mask-type:luminance" maskUnits="userSpaceOnUse" x="0" y="0" width="32" height="32">
<path d="M32 0H0V32H32V0Z" fill="white"/>
</mask>
<g mask="url(#mask0_6_265)">
<mask id="mask1_6_265" style="mask-type:luminance" maskUnits="userSpaceOnUse" x="0" y="0" width="32" height="32">
<path d="M32 0H0V32H32V0Z" fill="white"/>
</mask>
<g mask="url(#mask1_6_265)">
<path fill-rule="evenodd" clip-rule="evenodd" d="M2.21387 1.78592C11.4525 1.73831 20.6906 1.78592 29.9282 1.92878C29.98 2.02642 30.0276 2.12165 30.071 2.21449C30.071 2.40496 30.071 2.59545 30.071 2.78592C30.0234 2.78592 29.9757 2.78592 29.9282 2.78592C29.9282 2.73831 29.9282 2.69068 29.9282 2.64306C29.9482 2.41109 29.8529 2.24444 29.6424 2.14306C20.4997 2.07164 11.3569 2.04782 2.21387 2.07164C2.21387 1.97639 2.21387 1.88116 2.21387 1.78592Z" fill="#E0E9D5"/>
<path fill-rule="evenodd" clip-rule="evenodd" d="M2.21425 2.07143C11.3572 2.04762 20.5001 2.07143 29.6429 2.14286C29.8533 2.24423 29.9486 2.41089 29.9286 2.64286C29.8333 2.59524 29.7381 2.54762 29.6429 2.5C29.594 2.38026 29.4989 2.33263 29.3571 2.35714C20.3094 2.33333 11.2617 2.35714 2.21425 2.42857C2.0717 11.2517 2.02409 20.085 2.07139 28.9286C2.07139 29.1667 2.07139 29.4047 2.07139 29.6429C2.02378 29.6429 1.97615 29.6429 1.92853 29.6429C1.8346 20.4217 1.92985 11.2312 2.21425 2.07143Z" fill="#B1CB89"/>
<path fill-rule="evenodd" clip-rule="evenodd" d="M29.3574 2.35732C29.4991 2.33281 29.5943 2.38044 29.6431 2.50018C29.6431 2.54779 29.6431 2.59542 29.6431 2.64304C20.786 2.64304 11.9288 2.64304 3.0717 2.64304C2.83217 9.63154 2.68932 16.6315 2.64313 23.6431C2.69075 23.9288 2.73837 24.2145 2.78599 24.5002C2.7546 23.7438 3.04032 23.1724 3.64313 22.7859C3.67403 23.0975 3.55499 23.3355 3.28599 23.5002C3.2152 23.7821 3.1914 24.0678 3.21456 24.3574C3.09089 24.6898 2.94803 25.0232 2.78599 25.3574C2.69075 25.4049 2.59552 25.4526 2.50027 25.5002C2.45266 17.8806 2.50029 10.2615 2.64313 2.64304C11.5661 2.54831 20.4708 2.45306 29.3574 2.35732Z" fill="#80B132"/>
<path fill-rule="evenodd" clip-rule="evenodd" d="M29.3571 2.35756C20.4706 2.45331 11.5658 2.54855 2.64282 2.64328C2.49998 10.2617 2.45235 17.8808 2.49996 25.5004C2.49996 25.7386 2.49996 25.9766 2.49996 26.2147C2.58932 27.2267 2.49409 28.179 2.21425 29.0719C2.21425 28.9766 2.16663 28.929 2.07139 28.929C2.02409 20.0854 2.0717 11.2521 2.21425 2.42899C11.2617 2.35756 20.3094 2.33375 29.3571 2.35756Z" fill="#8CB450"/>
<path fill-rule="evenodd" clip-rule="evenodd" d="M29.6424 2.64307C29.6424 2.83354 29.6424 3.02402 29.6424 3.2145C29.3573 11.7846 29.262 20.4036 29.3567 29.0716C20.3333 29.2144 11.2856 29.2619 2.21387 29.2145C2.21387 29.1669 2.21387 29.1192 2.21387 29.0716C2.49371 28.1788 2.58894 27.2265 2.49958 26.2145C3.3105 26.2382 4.12002 26.2144 4.92815 26.1431C5.03564 26.0472 5.08327 25.9282 5.07101 25.7859C5.01674 25.4719 5.11198 25.2338 5.35672 25.0716C6.20538 24.9412 7.06252 24.8936 7.92815 24.9288C7.92815 24.9764 7.92815 25.0241 7.92815 25.0716C7.98911 25.4302 8.08434 25.7635 8.21387 26.0716C9.04387 26.2131 9.90101 26.2606 10.7853 26.2145C10.8457 25.8886 10.7504 25.6505 10.4996 25.5002C10.369 24.8956 10.1786 24.3242 9.92815 23.7859C9.94108 23.4071 9.84584 23.0738 9.64244 22.7859C9.49998 22.7902 9.40474 22.7188 9.35672 22.5716C9.21538 22.0792 9.12014 21.5792 9.07101 21.0716C8.97775 20.4125 8.73967 19.8411 8.35672 19.3574C8.32105 19.0468 8.1782 18.8086 7.92815 18.6431C7.92815 18.5955 7.92815 18.5478 7.92815 18.5002C7.0969 18.3355 6.23975 18.3118 5.35672 18.4288C5.24924 18.5246 5.20161 18.6436 5.21387 18.7859C4.94288 19.0999 4.80002 19.4808 4.7853 19.9288C4.79492 20.1372 4.74731 20.3276 4.64244 20.5002C4.37382 20.8224 4.23097 21.2034 4.21387 21.6431C3.96301 21.7934 3.86777 22.0315 3.92815 22.3574C3.707 22.4032 3.61175 22.5461 3.64244 22.7859C3.03962 23.1724 2.75391 23.7438 2.7853 24.5002C2.73768 24.2145 2.69005 23.9288 2.64244 23.6431C2.68862 16.6315 2.83148 9.63157 3.07101 2.64307C11.9282 2.64307 20.7853 2.64307 29.6424 2.64307Z" fill="#79AF27"/>
<path fill-rule="evenodd" clip-rule="evenodd" d="M29.6424 3.21436C29.6424 3.26197 29.6424 3.3096 29.6424 3.35721C29.5471 11.9286 29.452 20.5001 29.3567 29.0715C29.262 20.4035 29.3573 11.7845 29.6424 3.21436Z" fill="#6D9C26"/>
<path fill-rule="evenodd" clip-rule="evenodd" d="M30.3573 29.6429C30.1713 20.8962 30.1713 12.1343 30.3573 3.35721C30.4454 3.3414 30.5168 3.29378 30.5716 3.21436C30.5954 7.61911 30.6191 12.0239 30.643 16.4286C30.643 20.8821 30.5477 25.2868 30.3573 29.6429Z" fill="#F1F2ED"/>
<path fill-rule="evenodd" clip-rule="evenodd" d="M29.6424 3.35742C29.6424 11.9289 29.6424 20.5003 29.6424 29.0717C29.5949 29.2146 29.4996 29.3099 29.3567 29.3574C20.285 29.4049 11.2374 29.3573 2.21387 29.2146C11.2856 29.262 20.3333 29.2144 29.3567 29.0717C29.452 20.5003 29.5472 11.9289 29.6424 3.35742Z" fill="#608A22"/>
<path fill-rule="evenodd" clip-rule="evenodd" d="M6.78613 5.50044C8.85895 5.4534 10.9066 5.50103 12.929 5.6433C12.929 6.07187 12.929 6.50044 12.929 6.92901C11.6648 6.88239 10.4267 6.93001 9.2147 7.07187C9.12068 7.25663 9.07306 7.47091 9.07185 7.71473C9.08166 7.99837 9.17689 8.21266 9.35756 8.35759C10.5004 8.35759 11.6433 8.35759 12.7861 8.35759C12.7861 8.83377 12.7861 9.30997 12.7861 9.78616C11.617 9.73963 10.4741 9.78724 9.35756 9.92901C9.08788 10.2844 8.99263 10.713 9.07185 11.2147C10.349 11.4965 11.6823 11.5917 13.0718 11.5004C13.0718 12.0243 13.0718 12.5481 13.0718 13.0719C10.9766 13.0719 8.88138 13.0719 6.78613 13.0719C6.78613 10.5481 6.78613 8.02426 6.78613 5.50044Z" fill="#FBFDF9"/>
<path fill-rule="evenodd" clip-rule="evenodd" d="M14.7856 5.5C15.357 5.5 15.9285 5.5 16.4999 5.5C16.4999 5.54761 16.4999 5.59524 16.4999 5.64286C16.4999 8.11904 16.4999 10.5952 16.4999 13.0714C15.8903 13.1139 15.295 13.0662 14.7142 12.9286C14.6427 10.5005 14.6189 8.0719 14.6427 5.64286C14.738 5.64286 14.7856 5.59524 14.7856 5.5Z" fill="#FDFEFC"/>
<path fill-rule="evenodd" clip-rule="evenodd" d="M18.0713 5.64307C18.1189 5.64307 18.1666 5.64307 18.2141 5.64307C18.7856 5.64307 19.357 5.64307 19.9284 5.64307C19.9284 6.88117 19.9284 8.11925 19.9284 9.35735C20.2117 9.40638 20.4023 9.31114 20.4999 9.07164C20.9551 8.80824 21.2409 8.42728 21.357 7.92878C21.5474 7.92878 21.6427 7.83354 21.6427 7.64307C22.5139 7.55497 23.3234 7.65021 24.0713 7.92878C23.8809 8.11925 23.6903 8.30974 23.4999 8.50021C23.2689 8.57707 23.0307 8.62468 22.7856 8.64307C22.7856 8.78592 22.7856 8.92878 22.7856 9.07164C22.4681 9.08002 22.3253 9.24668 22.357 9.57164C22.3447 9.90757 22.4876 10.1219 22.7856 10.2145C23.2167 10.9821 23.6453 11.744 24.0713 12.5002C24.0713 12.6907 24.0713 12.8812 24.0713 13.0716C23.5177 13.0922 22.9701 13.0445 22.4284 12.9288C22.1654 12.7771 21.9036 12.6343 21.6427 12.5002C21.6427 12.4526 21.6427 12.405 21.6427 12.3574C21.454 11.885 21.1921 11.4564 20.857 11.0716C20.5173 11.197 20.303 11.4351 20.2141 11.7859C20.0746 12.1841 20.027 12.6126 20.0713 13.0716C19.4046 13.0716 18.738 13.0716 18.0713 13.0716C18.0713 10.5955 18.0713 8.11925 18.0713 5.64307Z" fill="#FBFDF9"/>
<path fill-rule="evenodd" clip-rule="evenodd" d="M14.7862 5.5C14.7862 5.59524 14.7386 5.64286 14.6433 5.64286C14.4773 8.09454 14.4534 10.5707 14.5719 13.0714C15.2006 13.2095 15.8434 13.2571 16.5004 13.2143C15.8242 13.4034 15.1337 13.4034 14.429 13.2143C14.3576 10.6433 14.3337 8.07187 14.3576 5.5C14.5004 5.5 14.6433 5.5 14.7862 5.5Z" fill="#A7C971"/>
<path fill-rule="evenodd" clip-rule="evenodd" d="M14.6424 5.64307C14.6186 8.07211 14.6424 10.5007 14.7139 12.9288C15.2947 13.0665 15.89 13.1141 16.4996 13.0716C16.4996 10.5955 16.4996 8.11925 16.4996 5.64307C16.642 8.0943 16.6896 10.5705 16.6424 13.0716C16.6424 13.1669 16.5949 13.2145 16.4996 13.2145C15.8426 13.2574 15.1997 13.2097 14.571 13.0716C14.4526 10.5709 14.4764 8.09475 14.6424 5.64307Z" fill="#DBEAC4"/>
<path fill-rule="evenodd" clip-rule="evenodd" d="M16.5 5.64286C16.5 5.59524 16.5 5.54761 16.5 5.5C16.6903 6.71054 16.7854 7.97244 16.7857 9.28571C16.7857 10.5723 16.738 11.8343 16.6429 13.0714C16.69 10.5703 16.6424 8.09409 16.5 5.64286Z" fill="#97BB56"/>
<path fill-rule="evenodd" clip-rule="evenodd" d="M18.0716 5.64307C18.0716 8.11925 18.0716 10.5955 18.0716 13.0716C18.7383 13.0716 19.4049 13.0716 20.0716 13.0716C20.0273 12.6126 20.0749 12.1841 20.2144 11.7859C20.2144 12.2621 20.2144 12.7383 20.2144 13.2145C19.4526 13.2145 18.6906 13.2145 17.9287 13.2145C17.8816 10.6658 17.9292 8.14194 18.0716 5.64307Z" fill="#D3E7B4"/>
<path fill-rule="evenodd" clip-rule="evenodd" d="M12.9282 5.64307C13.0681 6.08947 13.1157 6.56565 13.071 7.07164C11.7853 7.07164 10.4996 7.07164 9.21387 7.07164C10.4259 6.92978 11.664 6.88215 12.9282 6.92878C12.9282 6.50021 12.9282 6.07164 12.9282 5.64307Z" fill="#ECF7DE"/>
<path fill-rule="evenodd" clip-rule="evenodd" d="M9.21415 7.07178C10.4999 7.07178 11.7856 7.07178 13.0713 7.07178C11.8116 7.21368 10.5259 7.26129 9.21415 7.21463C9.17106 7.58025 9.21869 7.91358 9.357 8.21463C9.357 8.26225 9.357 8.30988 9.357 8.35749C9.17633 8.21256 9.0811 7.99828 9.07129 7.71463C9.0725 7.47082 9.12012 7.25653 9.21415 7.07178Z" fill="#C5DF9D"/>
<path fill-rule="evenodd" clip-rule="evenodd" d="M6.78613 5.50023C8.90438 5.33436 11.0472 5.31056 13.2147 5.4288C13.4052 6.04784 13.4052 6.6669 13.2147 7.28594C11.9299 7.35734 10.6442 7.38114 9.35756 7.35737C9.35756 7.64309 9.35756 7.9288 9.35756 8.21452C9.21925 7.91346 9.17162 7.58013 9.2147 7.21452C10.5264 7.26117 11.8122 7.21356 13.0718 7.07166C13.1165 6.56567 13.0689 6.08949 12.929 5.64309C10.9066 5.50082 8.85895 5.45319 6.78613 5.50023Z" fill="#93BA52"/>
<path fill-rule="evenodd" clip-rule="evenodd" d="M21.6426 7.64328C22.4726 7.50191 23.3297 7.45429 24.214 7.50042C24.2479 7.68485 24.2003 7.82771 24.0711 7.92899C23.3233 7.65042 22.5137 7.55518 21.6426 7.64328Z" fill="#B4D089"/>
<path fill-rule="evenodd" clip-rule="evenodd" d="M9.35742 8.35721C9.35742 8.3096 9.35742 8.26197 9.35742 8.21436C10.5955 8.21436 11.8336 8.21436 13.0717 8.21436C13.1559 8.85303 13.0607 9.42446 12.786 9.92864C11.6431 9.92864 10.5003 9.92864 9.35742 9.92864C10.474 9.78687 11.6168 9.73926 12.786 9.78578C12.786 9.3096 12.786 8.8334 12.786 8.35721C11.6431 8.35721 10.5003 8.35721 9.35742 8.35721Z" fill="#B0CE7E"/>
<path fill-rule="evenodd" clip-rule="evenodd" d="M21.3571 7.92871C21.241 8.42721 20.9553 8.80817 20.5 9.07157C20.7317 8.64944 21.0174 8.2685 21.3571 7.92871Z" fill="#CEE4B1"/>
<path fill-rule="evenodd" clip-rule="evenodd" d="M18.2139 5.6432C18.8424 5.45422 19.4853 5.45422 20.1424 5.6432C20.1224 6.84263 20.2414 7.98549 20.4996 9.07178C20.402 9.31128 20.2114 9.40652 19.9282 9.35749C19.9282 8.11939 19.9282 6.8813 19.9282 5.6432C19.3567 5.6432 18.7853 5.6432 18.2139 5.6432Z" fill="#DCECC9"/>
<path fill-rule="evenodd" clip-rule="evenodd" d="M23.5004 8.5C23.3454 8.79813 23.1074 8.9886 22.7861 9.07143C22.7861 8.92857 22.7861 8.78571 22.7861 8.64286C23.0313 8.62447 23.2694 8.57686 23.5004 8.5Z" fill="#C8DDA5"/>
<path fill-rule="evenodd" clip-rule="evenodd" d="M22.7854 9.07178C22.624 9.45702 22.624 9.83796 22.7854 10.2146C22.4874 10.122 22.3446 9.90771 22.3569 9.57178C22.3251 9.24682 22.468 9.08016 22.7854 9.07178Z" fill="#B6D18B"/>
<path fill-rule="evenodd" clip-rule="evenodd" d="M9.35761 9.92871C10.5005 9.92871 11.6433 9.92871 12.7862 9.92871C11.6696 10.0705 10.5268 10.1181 9.35761 10.0716C9.35761 10.4525 9.35761 10.8335 9.35761 11.2144C10.5743 11.1678 11.7648 11.2155 12.929 11.3573C11.6313 11.4008 10.3456 11.3532 9.0719 11.2144C8.99268 10.7127 9.08793 10.2841 9.35761 9.92871Z" fill="#A1C969"/>
<path fill-rule="evenodd" clip-rule="evenodd" d="M21.643 12.3575C21.3546 12.1782 21.0689 12.1305 20.7859 12.2146C21.1617 12.4296 21.114 12.5248 20.643 12.5003C20.6743 12.3325 20.6267 12.1896 20.5001 12.0718C20.3596 12.4901 20.312 12.9186 20.3573 13.3575C19.5204 13.4035 18.7109 13.3559 17.9287 13.2146C18.6906 13.2146 19.4526 13.2146 20.2144 13.2146C20.2144 12.7384 20.2144 12.2622 20.2144 11.7861C20.3033 11.4352 20.5176 11.1971 20.8573 11.0718C21.1924 11.4565 21.4543 11.8851 21.643 12.3575Z" fill="#8DB94C"/>
<path fill-rule="evenodd" clip-rule="evenodd" d="M9.07185 11.2144C10.3456 11.3531 11.6313 11.4007 12.929 11.3572C13.2047 11.9105 13.3 12.5295 13.2147 13.2144C11.0467 13.2614 8.90385 13.2138 6.78613 13.0715C8.88138 13.0715 10.9766 13.0715 13.0718 13.0715C13.0718 12.5477 13.0718 12.0239 13.0718 11.5001C11.6823 11.5913 10.349 11.4961 9.07185 11.2144Z" fill="#D3E4BA"/>
<path fill-rule="evenodd" clip-rule="evenodd" d="M21.6426 12.5C21.9034 12.634 22.1653 12.7769 22.4283 12.9286C22.97 13.0443 23.5176 13.0919 24.0711 13.0714C24.0711 12.881 24.0711 12.6905 24.0711 12.5C24.1909 12.5488 24.2386 12.6441 24.214 12.7857C24.214 12.9286 24.214 13.0714 24.214 13.2143C23.4981 13.238 22.7839 13.2142 22.0711 13.1429C21.9934 13.0404 21.8981 12.969 21.7854 12.9286C21.6983 12.8013 21.6507 12.6584 21.6426 12.5Z" fill="#DEECC5"/>
<path fill-rule="evenodd" clip-rule="evenodd" d="M24.2146 12.7861C24.3481 12.9386 24.3958 13.1291 24.3575 13.3576C23.5466 13.3813 22.7371 13.3575 21.9289 13.2861C21.8215 13.1903 21.7738 13.0713 21.7861 12.929C21.8988 12.9694 21.9941 13.0408 22.0718 13.1433C22.7845 13.2146 23.4988 13.2384 24.2146 13.2147C24.2146 13.0718 24.2146 12.929 24.2146 12.7861Z" fill="#A4C46F"/>
<path fill-rule="evenodd" clip-rule="evenodd" d="M29.6426 2.5C29.7379 2.54761 29.833 2.59524 29.9283 2.64286C29.9283 2.69047 29.9283 2.7381 29.9283 2.78571C29.9283 2.97619 29.9283 3.16667 29.9283 3.35714C29.7856 11.9044 29.738 20.4759 29.7854 29.0714C29.7379 29.0714 29.6901 29.0714 29.6426 29.0714C29.6426 20.5 29.6426 11.9286 29.6426 3.35714C29.6426 3.30953 29.6426 3.2619 29.6426 3.21429C29.6426 3.02381 29.6426 2.83333 29.6426 2.64286C29.6426 2.59524 29.6426 2.54761 29.6426 2.5Z" fill="#2B3711"/>
<path fill-rule="evenodd" clip-rule="evenodd" d="M7.92906 18.5003C7.11814 18.4766 6.30862 18.5005 5.50049 18.5718C5.42274 18.6742 5.3275 18.7456 5.21477 18.786C5.20252 18.6438 5.25014 18.5248 5.35763 18.4289C6.24066 18.3119 7.0978 18.3356 7.92906 18.5003Z" fill="#37550C"/>
<path fill-rule="evenodd" clip-rule="evenodd" d="M7.92871 18.6431C8.17875 18.8086 8.32161 19.0468 8.35728 19.3574C8.35728 19.4526 8.35728 19.5478 8.35728 19.6431C8.13368 19.3561 7.99083 19.0226 7.92871 18.6431Z" fill="#2C440D"/>
<path fill-rule="evenodd" clip-rule="evenodd" d="M19.3571 20.5C19.2619 19.9023 19.1666 19.2831 19.0713 18.6429C18.5568 18.926 18.0329 19.1879 17.4999 19.4286C17.4505 19.8486 17.3076 20.2057 17.0713 20.5C17.0028 20.045 17.0979 19.6401 17.3571 19.2857C18.0126 18.9797 18.6793 18.7179 19.3571 18.5C19.3571 19.1667 19.3571 19.8333 19.3571 20.5Z" fill="#3F5716"/>
<path fill-rule="evenodd" clip-rule="evenodd" d="M8.35742 19.3574C8.74036 19.8411 8.97845 20.4126 9.07171 21.0717C8.78371 20.6469 8.54562 20.1707 8.35742 19.6431C8.35742 19.5479 8.35742 19.4527 8.35742 19.3574Z" fill="#567A1D"/>
<path fill-rule="evenodd" clip-rule="evenodd" d="M5.2147 18.7861C5.15716 19.2127 5.0143 19.5936 4.78613 19.929C4.80086 19.481 4.94372 19.1001 5.2147 18.7861Z" fill="#55771C"/>
<path fill-rule="evenodd" clip-rule="evenodd" d="M26.2147 20.6432C25.0704 20.4785 23.9276 20.4785 22.7861 20.6432C23.3151 20.4211 23.8866 20.3258 24.5004 20.3575C25.1143 20.3258 25.6857 20.4211 26.2147 20.6432Z" fill="#3E5C17"/>
<path fill-rule="evenodd" clip-rule="evenodd" d="M15.6424 20.6432C15.1663 20.6432 14.69 20.6432 14.2139 20.6432C14.2139 20.5956 14.2139 20.5479 14.2139 20.5003C14.7287 20.2818 15.2049 20.3293 15.6424 20.6432Z" fill="#2A4011"/>
<path fill-rule="evenodd" clip-rule="evenodd" d="M19.3571 20.5002C19.7069 20.6392 20.0879 20.6868 20.5 20.6431C20.5 21.1192 20.5 21.5955 20.5 22.0716C20.0714 22.0716 19.6429 22.0716 19.2143 22.0716C19.1681 23.0034 19.2157 23.9081 19.3571 24.7859C19.6581 24.9242 19.9916 24.9719 20.3571 24.9288C20.3571 25.3098 20.3571 25.6906 20.3571 26.0716C19.6413 26.0954 18.927 26.0715 18.2143 26.0002C17.9057 25.8099 17.62 25.5956 17.3571 25.3574C17.3571 25.3098 17.3571 25.2621 17.3571 25.2145C17.3571 24.1669 17.3571 23.1192 17.3571 22.0716C17.0761 22.1058 16.8141 22.0582 16.5714 21.9288C16.5003 21.5028 16.4764 21.0742 16.5 20.6431C16.7284 20.6814 16.9189 20.6336 17.0714 20.5002C17.3077 20.2059 17.4506 19.8488 17.5 19.4288C18.033 19.1881 18.5569 18.9262 19.0714 18.6431C19.1667 19.2834 19.262 19.9025 19.3571 20.5002Z" fill="#090D04"/>
<path fill-rule="evenodd" clip-rule="evenodd" d="M29.9282 3.35742C29.952 12.1671 29.9282 20.9766 29.8567 29.786C29.802 29.8654 29.7306 29.913 29.6424 29.9289C20.4754 29.9763 11.3326 29.9287 2.21387 29.786C11.3569 29.8099 20.4997 29.786 29.6424 29.7146C29.7682 29.5209 29.8159 29.3066 29.7853 29.0717C29.7379 20.4761 29.7854 11.9047 29.9282 3.35742Z" fill="#313629"/>
<path fill-rule="evenodd" clip-rule="evenodd" d="M14.2146 20.5C14.2146 20.5476 14.2146 20.5953 14.2146 20.6429C13.9283 20.8104 13.714 21.0486 13.5717 21.3571C13.4276 21.1393 13.3562 20.9011 13.3574 20.6429C13.6524 20.6404 13.9381 20.5929 14.2146 20.5Z" fill="#4A6A1C"/>
<path fill-rule="evenodd" clip-rule="evenodd" d="M19.3574 20.5C19.786 20.5 20.2146 20.5 20.6431 20.5C20.6881 21.053 20.6406 21.5769 20.5003 22.0714C20.5003 21.5953 20.5003 21.119 20.5003 20.6429C20.0881 20.6866 19.7071 20.639 19.3574 20.5Z" fill="#446317"/>
<path fill-rule="evenodd" clip-rule="evenodd" d="M22.7856 20.6431C22.62 20.8931 22.3819 21.0359 22.0713 21.0716C22.2369 20.8216 22.475 20.6788 22.7856 20.6431Z" fill="#405A15"/>
<path fill-rule="evenodd" clip-rule="evenodd" d="M7.92899 18.5001C7.92899 18.5477 7.92899 18.5954 7.92899 18.6429C7.9911 19.0225 8.13396 19.3559 8.35756 19.6429C8.54576 20.1705 8.78385 20.6467 9.07185 21.0715C9.12098 21.5791 9.21622 22.0791 9.35756 22.5715C9.40558 22.7187 9.50082 22.7901 9.64328 22.7858C9.62012 23.0754 9.64392 23.3611 9.7147 23.6429C9.76936 23.7224 9.84079 23.7699 9.92899 23.7858C10.1794 24.3241 10.3699 24.8955 10.5004 25.5001C10.5004 25.6429 10.5004 25.7858 10.5004 25.9287C9.69545 26.0054 8.93353 25.9101 8.2147 25.6429C8.26373 25.3597 8.16849 25.1691 7.92899 25.0715C7.92899 25.0239 7.92899 24.9762 7.92899 24.9287C7.14548 24.7641 6.33595 24.7404 5.50042 24.8572C5.42099 24.9119 5.37338 24.9834 5.35756 25.0715C5.11282 25.2337 5.01758 25.4718 5.07185 25.7858C4.9766 25.8334 4.88138 25.8811 4.78613 25.9287C4.0549 26.0148 3.38823 25.9195 2.78613 25.6429C2.78613 25.5477 2.78613 25.4525 2.78613 25.3572C2.94818 25.0231 3.09103 24.6897 3.2147 24.3572C3.57778 23.7485 3.81588 23.0819 3.92899 22.3572C4.17985 22.2069 4.27509 21.9688 4.2147 21.6429C4.48332 21.3208 4.62618 20.9398 4.64328 20.5001C4.74815 20.3275 4.79576 20.1371 4.78613 19.9287C5.0143 19.5932 5.15716 19.2124 5.2147 18.7858C5.32743 18.7454 5.42268 18.6739 5.50042 18.5715C6.30855 18.5002 7.11808 18.4764 7.92899 18.5001Z" fill="#0A0E04"/>
<path fill-rule="evenodd" clip-rule="evenodd" d="M6.78528 20.7857C6.60983 20.9009 6.46698 21.0437 6.3567 21.2143C6.3245 20.8977 6.44355 20.6596 6.71385 20.5C6.78018 20.5849 6.80399 20.6801 6.78528 20.7857Z" fill="#385013"/>
<path fill-rule="evenodd" clip-rule="evenodd" d="M4.64244 20.5C4.62534 20.9397 4.48248 21.3207 4.21387 21.6429C4.23097 21.2031 4.37382 20.8221 4.64244 20.5Z" fill="#2A3B10"/>
<path fill-rule="evenodd" clip-rule="evenodd" d="M6.78613 20.9287C7.03087 21.0909 7.12611 21.329 7.07184 21.643C6.82098 21.4927 6.72574 21.2546 6.78613 20.9287Z" fill="#3E5B15"/>
<path fill-rule="evenodd" clip-rule="evenodd" d="M13.3571 20.6431C13.3559 20.9014 13.4273 21.1395 13.5714 21.3574C13.7137 21.0488 13.928 20.8106 14.2143 20.6431C14.6904 20.6431 15.1667 20.6431 15.6429 20.6431C15.6429 20.7859 15.6429 20.9288 15.6429 21.0716C15.3516 21.2732 15.2087 21.5589 15.2143 21.9288C15.113 22.0579 14.9701 22.1055 14.7857 22.0716C14.6284 21.9148 14.438 21.8909 14.2143 22.0002C13.8004 22.2452 13.6099 22.6024 13.6429 23.0716C13.6429 23.1669 13.6429 23.2621 13.6429 23.3574C13.5247 24.1409 13.4533 24.9505 13.4286 25.7859C12.7998 25.9241 12.1569 25.9716 11.5 25.9288C11.5 24.1669 11.5 22.4049 11.5 20.6431C12.119 20.6431 12.7381 20.6431 13.3571 20.6431Z" fill="#090D04"/>
<path fill-rule="evenodd" clip-rule="evenodd" d="M15.6426 21.0718C15.5723 21.4031 15.4295 21.6888 15.214 21.9289C15.2085 21.5591 15.3513 21.2733 15.6426 21.0718Z" fill="#24390F"/>
<path fill-rule="evenodd" clip-rule="evenodd" d="M6.78585 20.7861C6.78585 20.8337 6.78585 20.8814 6.78585 20.929C6.72547 21.2548 6.82071 21.493 7.07157 21.6433C7.08995 21.8884 7.13757 22.1266 7.21443 22.3576C7.21443 22.5957 7.21443 22.8337 7.21443 23.0718C6.78585 23.0718 6.35728 23.0718 5.92871 23.0718C5.92871 22.9766 5.92871 22.8814 5.92871 22.7861C5.99474 22.2428 6.1376 21.7191 6.35728 21.2147C6.46755 21.0441 6.61041 20.9013 6.78585 20.7861Z" fill="#73A425"/>
<path fill-rule="evenodd" clip-rule="evenodd" d="M26.2146 20.6431C26.4051 20.8335 26.5956 21.0241 26.7861 21.2145C27.0172 21.5349 27.2076 21.8684 27.3575 22.2145C27.3518 22.6975 27.3994 23.1736 27.5004 23.6431C26.0718 23.6431 24.6432 23.6431 23.2146 23.6431C23.1669 24.0704 23.3098 24.4036 23.6432 24.6431C24.0345 25.0036 24.5106 25.1465 25.0718 25.0716C25.0518 24.8396 25.1471 24.6731 25.3575 24.5716C26.0252 24.5241 26.6918 24.5478 27.3575 24.6431C27.3914 24.8275 27.3438 24.9704 27.2146 25.0716C26.7246 25.4679 26.2009 25.8012 25.6432 26.0716C24.6858 26.0951 23.7334 26.0475 22.7861 25.9288C22.4615 25.7944 22.1758 25.6039 21.9289 25.3574C21.9289 25.1669 21.8336 25.0716 21.6432 25.0716C21.4019 24.5071 21.2591 23.9118 21.2146 23.2859C21.1904 22.7956 21.2855 22.3432 21.5004 21.9288C21.7421 21.6852 21.9325 21.3995 22.0718 21.0716C22.3824 21.0359 22.6205 20.8931 22.7861 20.6431C23.9275 20.4784 25.0704 20.4784 26.2146 20.6431Z" fill="#0A0F04"/>
<path fill-rule="evenodd" clip-rule="evenodd" d="M23.9287 21.7859C24.089 21.6922 24.2794 21.6446 24.5001 21.6431C24.762 21.6552 24.9524 21.7505 25.0716 21.9288C24.7007 21.8195 24.3197 21.7718 23.9287 21.7859Z" fill="#426315"/>
<path fill-rule="evenodd" clip-rule="evenodd" d="M4.21442 21.6431C4.27481 21.9689 4.17956 22.2071 3.92871 22.3574C3.86832 22.0315 3.96356 21.7934 4.21442 21.6431Z" fill="#1E300B"/>
<path fill-rule="evenodd" clip-rule="evenodd" d="M26.7861 21.2144C26.9766 21.2144 27.1671 21.2144 27.3576 21.2144C27.2904 21.6209 27.4094 21.9542 27.7147 22.2144C27.8307 22.8128 27.8068 23.3842 27.6433 23.9286C27.6864 23.3158 27.5913 22.7444 27.3576 22.2144C27.2077 21.8682 27.0173 21.5348 26.7861 21.2144Z" fill="#5B7F23"/>
<path fill-rule="evenodd" clip-rule="evenodd" d="M23.9285 21.7861C24.3195 21.772 24.7005 21.8197 25.0714 21.929C25.1947 22.2034 25.2898 22.4891 25.3571 22.7861C24.7381 22.7861 24.119 22.7861 23.5 22.7861C23.45 22.3643 23.5928 22.0308 23.9285 21.7861Z" fill="#72A328"/>
<path fill-rule="evenodd" clip-rule="evenodd" d="M14.7861 22.0718C14.22 22.1618 13.8867 22.4951 13.7862 23.0718C13.7385 23.0718 13.6909 23.0718 13.6433 23.0718C13.6103 22.6025 13.8008 22.2454 14.2147 22.0004C14.4384 21.8911 14.6289 21.915 14.7861 22.0718Z" fill="#314B0F"/>
<path fill-rule="evenodd" clip-rule="evenodd" d="M25.0713 21.9287C25.2499 21.9397 25.3689 22.035 25.4284 22.2144C25.5377 22.4381 25.5139 22.6286 25.357 22.7859C25.2897 22.4889 25.1946 22.2031 25.0713 21.9287Z" fill="#364F15"/>
<path fill-rule="evenodd" clip-rule="evenodd" d="M17.0717 20.5C16.9191 20.6334 16.7287 20.6811 16.5003 20.6429C16.4767 21.074 16.5006 21.5026 16.5717 21.9286C16.8144 22.058 17.0764 22.1056 17.3574 22.0714C17.3574 23.119 17.3574 24.1667 17.3574 25.2143C17.2693 25.1984 17.1979 25.1509 17.1431 25.0714C17.0717 24.1203 17.048 23.1679 17.0717 22.2143C16.8336 22.2143 16.5956 22.2143 16.3574 22.2143C16.3574 21.6429 16.3574 21.0714 16.3574 20.5C16.5956 20.5 16.8336 20.5 17.0717 20.5Z" fill="#364C11"/>
<path fill-rule="evenodd" clip-rule="evenodd" d="M20.5 22.0718C20.1503 22.2108 19.7693 22.2583 19.3572 22.2146C19.3572 23.0718 19.3572 23.9289 19.3572 24.7861C19.2157 23.9082 19.1682 23.0035 19.2143 22.0718C19.6429 22.0718 20.0714 22.0718 20.5 22.0718Z" fill="#49611F"/>
<path fill-rule="evenodd" clip-rule="evenodd" d="M7.21443 22.3574C7.39134 22.6023 7.48657 22.888 7.50014 23.2146C6.94708 23.2596 6.42327 23.212 5.92871 23.0717C6.35728 23.0717 6.78585 23.0717 7.21443 23.0717C7.21443 22.8336 7.21443 22.5956 7.21443 22.3574Z" fill="#456015"/>
<path fill-rule="evenodd" clip-rule="evenodd" d="M5.92904 22.7861C5.92904 22.8814 5.92904 22.9766 5.92904 23.0718C6.4236 23.2121 6.94742 23.2597 7.50047 23.2147C6.95602 23.3783 6.38459 23.4021 5.78619 23.2861C5.57404 23.0353 5.62167 22.8686 5.92904 22.7861Z" fill="#1B2A06"/>
<path fill-rule="evenodd" clip-rule="evenodd" d="M3.92891 22.3574C3.81579 23.0821 3.57769 23.7487 3.21462 24.3574C3.19146 24.0679 3.21526 23.7821 3.28605 23.5003C3.55505 23.3356 3.67409 23.0976 3.64319 22.786C3.61251 22.5461 3.70775 22.4033 3.92891 22.3574Z" fill="#4D6E1C"/>
<path fill-rule="evenodd" clip-rule="evenodd" d="M9.64333 22.7861C9.84673 23.074 9.94197 23.4073 9.92904 23.7861C9.84084 23.7703 9.76942 23.7227 9.71476 23.6433C9.64397 23.3614 9.62017 23.0757 9.64333 22.7861Z" fill="#2E4310"/>
<path fill-rule="evenodd" clip-rule="evenodd" d="M27.3569 22.2144C27.5906 22.7444 27.6858 23.3158 27.6426 23.9286C26.2616 23.9286 24.8808 23.9286 23.4998 23.9286C23.5182 24.1738 23.5658 24.4119 23.6426 24.6429C23.3092 24.4035 23.1663 24.0702 23.214 23.6429C24.6426 23.6429 26.0712 23.6429 27.4998 23.6429C27.3988 23.1735 27.3512 22.6974 27.3569 22.2144Z" fill="#314514"/>
<path fill-rule="evenodd" clip-rule="evenodd" d="M13.6429 23.3574C13.6429 24.2621 13.6429 25.167 13.6429 26.0717C12.9286 26.0717 12.2143 26.0717 11.5 26.0717C11.5 26.0241 11.5 25.9764 11.5 25.9289C12.1569 25.9717 12.7998 25.9241 13.4286 25.786C13.4533 24.9506 13.5247 24.141 13.6429 23.3574Z" fill="#1D2809"/>
<path fill-rule="evenodd" clip-rule="evenodd" d="M13.6429 23.0718C13.6905 23.0718 13.7381 23.0718 13.7857 23.0718C13.7857 24.1193 13.7857 25.1671 13.7857 26.2146C12.9963 26.2605 12.2344 26.2129 11.5 26.0718C12.2143 26.0718 12.9286 26.0718 13.6429 26.0718C13.6429 25.1671 13.6429 24.2622 13.6429 23.3575C13.6429 23.2622 13.6429 23.1671 13.6429 23.0718Z" fill="#53791A"/>
<path fill-rule="evenodd" clip-rule="evenodd" d="M7.92885 24.9289C7.06322 24.8938 6.20608 24.9414 5.35742 25.0718C5.37324 24.9836 5.42085 24.9122 5.50028 24.8575C6.33581 24.7406 7.14534 24.7644 7.92885 24.9289Z" fill="#4B6820"/>
<path fill-rule="evenodd" clip-rule="evenodd" d="M21.4999 21.9287C21.285 22.3431 21.1899 22.7956 21.2142 23.2859C21.2586 23.9117 21.4015 24.507 21.6428 25.0716C21.4539 25.0959 21.2872 25.0483 21.1428 24.9287C21.0475 24.024 21.0475 23.1191 21.1428 22.2144C21.2439 22.0886 21.363 21.9934 21.4999 21.9287Z" fill="#5A8021"/>
<path fill-rule="evenodd" clip-rule="evenodd" d="M21.6426 25.0718C21.833 25.0718 21.9283 25.1671 21.9283 25.3575C21.7379 25.3575 21.6426 25.2622 21.6426 25.0718Z" fill="#3B5416"/>
<path fill-rule="evenodd" clip-rule="evenodd" d="M19.3574 24.7861C19.7384 24.7861 20.1193 24.7861 20.5003 24.7861C20.5446 25.2451 20.497 25.6737 20.3574 26.0718C20.3574 25.6908 20.3574 25.31 20.3574 24.929C19.9919 24.9721 19.6584 24.9244 19.3574 24.7861Z" fill="#2B3C16"/>
<path fill-rule="evenodd" clip-rule="evenodd" d="M27.214 25.0718C27.075 25.4482 26.8369 25.7339 26.4997 25.9289C26.2047 25.9313 25.919 25.9789 25.6426 26.0718C26.2003 25.8013 26.724 25.4681 27.214 25.0718Z" fill="#2F460E"/>
<path fill-rule="evenodd" clip-rule="evenodd" d="M7.92871 25.0718C8.16821 25.1693 8.26345 25.3599 8.21443 25.6432C8.21443 25.7861 8.21443 25.9289 8.21443 26.0718C8.0849 25.7636 7.98967 25.4303 7.92871 25.0718Z" fill="#52751E"/>
<path fill-rule="evenodd" clip-rule="evenodd" d="M21.9287 25.3574C22.1756 25.604 22.4613 25.7944 22.7859 25.9289C22.8811 26.0241 22.9763 26.1193 23.0716 26.2146C22.7139 26.0519 22.333 25.9566 21.9287 25.9289C21.9287 25.7384 21.9287 25.5479 21.9287 25.3574Z" fill="#5C841D"/>
<path fill-rule="evenodd" clip-rule="evenodd" d="M2.78527 25.6431C3.38737 25.9196 4.05404 26.0149 4.78527 25.9288C4.09878 26.0698 3.3845 26.1175 2.64241 26.0716C2.60851 25.8872 2.65612 25.7444 2.78527 25.6431Z" fill="#1B2E02"/>
<path fill-rule="evenodd" clip-rule="evenodd" d="M10.4996 25.5C10.7504 25.6503 10.8457 25.8884 10.7853 26.2143C9.90101 26.2604 9.04387 26.2129 8.21387 26.0714C8.21387 25.9286 8.21387 25.7857 8.21387 25.6429C8.9327 25.91 9.69461 26.0053 10.4996 25.9286C10.4996 25.7857 10.4996 25.6429 10.4996 25.5Z" fill="#2C420F"/>
<path fill-rule="evenodd" clip-rule="evenodd" d="M2.78571 25.3574C2.78571 25.4527 2.78571 25.5479 2.78571 25.6431C2.65657 25.7444 2.60896 25.8873 2.64286 26.0717C3.38494 26.1176 4.09923 26.0699 4.78571 25.9289C4.88096 25.8813 4.97619 25.8336 5.07143 25.786C5.08369 25.9283 5.03606 26.0473 4.92857 26.1431C4.12044 26.2144 3.31091 26.2383 2.5 26.2146C2.5 25.9764 2.5 25.7384 2.5 25.5003C2.59524 25.4527 2.69047 25.405 2.78571 25.3574Z" fill="#4D6821"/>
<path fill-rule="evenodd" clip-rule="evenodd" d="M17.3574 25.3574C17.6203 25.5957 17.906 25.81 18.2146 26.0003C18.9273 26.0716 19.6416 26.0954 20.3574 26.0717C19.671 26.2127 18.9567 26.2604 18.2146 26.2146C17.7924 26.0781 17.5067 25.7924 17.3574 25.3574Z" fill="#293710"/>
<path fill-rule="evenodd" clip-rule="evenodd" d="M22.7861 25.9287C23.7334 26.0474 24.6858 26.095 25.6433 26.0716C24.8611 26.2129 24.0516 26.2604 23.2147 26.2144C23.1671 26.2144 23.1194 26.2144 23.0718 26.2144C22.9766 26.1191 22.8814 26.024 22.7861 25.9287Z" fill="#24310F"/>
<path fill-rule="evenodd" clip-rule="evenodd" d="M20.4996 24.7861C20.6882 25.2717 20.6882 25.7717 20.4996 26.2861C20.0333 26.4203 19.5572 26.4917 19.071 26.5004C18.7207 26.4948 18.435 26.3996 18.2139 26.2147C18.956 26.2606 19.6703 26.2128 20.3567 26.0718C20.4963 25.6737 20.5439 25.2451 20.4996 24.7861Z" fill="#5C8420"/>
<path fill-rule="evenodd" clip-rule="evenodd" d="M26.4996 25.9287C26.1049 26.1443 25.7239 26.3823 25.3567 26.643C24.5829 26.6099 23.8686 26.467 23.2139 26.2144C24.0507 26.2604 24.8603 26.2129 25.6424 26.0716C25.9189 25.9787 26.2046 25.9311 26.4996 25.9287Z" fill="#659223"/>
<path fill-rule="evenodd" clip-rule="evenodd" d="M2.07129 28.9287C2.16653 28.9287 2.21415 28.9763 2.21415 29.0716C2.21415 29.1191 2.21415 29.1669 2.21415 29.2144C11.2376 29.3571 20.2853 29.4047 29.357 29.3573C29.2973 29.4604 29.2021 29.5319 29.0713 29.5716C20.119 29.643 11.1667 29.6669 2.21415 29.643C2.16653 29.643 2.1189 29.643 2.07129 29.643C2.07129 29.4049 2.07129 29.1669 2.07129 28.9287Z" fill="#3D5A18"/>
<path fill-rule="evenodd" clip-rule="evenodd" d="M29.6424 29.0718C29.69 29.0718 29.7377 29.0718 29.7853 29.0718C29.8159 29.3066 29.7682 29.5209 29.6424 29.7146C20.4997 29.7861 11.3569 29.8099 2.21387 29.7861C2.21387 29.7385 2.21387 29.6908 2.21387 29.6432C11.1664 29.6671 20.1187 29.6432 29.071 29.5718C29.2019 29.5321 29.297 29.4606 29.3567 29.3575C29.4996 29.3099 29.5949 29.2146 29.6424 29.0718Z" fill="#050504"/>
<path fill-rule="evenodd" clip-rule="evenodd" d="M1.92871 29.6431C1.97633 29.6431 2.02395 29.6431 2.07157 29.6431C2.11918 29.6431 2.16681 29.6431 2.21443 29.6431C2.21443 29.6906 2.21443 29.7384 2.21443 29.7859C11.3332 29.9286 20.476 29.9762 29.643 29.9288C20.4766 30.0715 11.2862 30.1191 2.07157 30.0716C1.98445 29.9444 1.93684 29.8015 1.92871 29.6431Z" fill="#A8A8A8"/>
</g>
</g>
</g>
<defs>
<clipPath id="clip0_6_265">
<rect width="32" height="32" fill="white"/>
</clipPath>
</defs>
</svg>
