<svg width="32" height="32" viewBox="0 0 32 32" fill="none" xmlns="http://www.w3.org/2000/svg">
<path d="M7.2513 8.74805C5.32978 8.7534 3.48849 9.51918 2.12977 10.878C0.77105 12.2369 0.00535742 14.0784 0 16.0001C0.00624509 17.9215 0.772223 19.7625 2.13075 21.1212C3.48928 22.4798 5.33006 23.2459 7.2513 23.2521H8.7469V8.74805H7.2513Z" fill="#4AC7EB"/>
<path d="M24.7461 8.74805H23.2539V23.2521H24.7495C26.671 23.2468 28.5123 22.481 29.871 21.1221C31.2298 19.7633 31.9954 17.9218 32.0008 16.0001C31.9954 14.0778 31.2293 12.2358 29.8698 10.8768C28.5104 9.51788 26.6682 8.75251 24.7461 8.74805Z" fill="#485DAA"/>
<path d="M23.2526 7.25205C23.2472 5.33033 22.4815 3.48886 21.1228 2.13C19.7641 0.771135 17.9228 0.00535797 16.0013 0C14.0798 0.00535797 12.2385 0.771135 10.8798 2.13C9.52105 3.48886 8.75536 5.33033 8.75 7.25205V8.7478H23.2526V7.25205Z" fill="#4AC7EB"/>
<path d="M8.9707 26.4905C9.3633 28.0594 10.2674 29.4527 11.5401 30.4504C12.8128 31.4481 14.3816 31.9932 15.9987 31.9998C17.9208 31.9953 19.7629 31.2299 21.1224 29.8709C22.4818 28.512 23.248 26.67 23.2534 24.7477V23.252H12.2089L8.9707 26.4905Z" fill="#485DAA"/>
<path d="M8.74609 8.74805V24.7479C8.74923 25.3358 8.82422 25.921 8.96941 26.4907L12.2076 23.2521H23.2521V8.74805H8.74609Z" fill="#0C3B5D"/>
</svg>
