<svg width="32" height="32" viewBox="0 0 32 32" fill="none" xmlns="http://www.w3.org/2000/svg">
<rect width="32" height="32" fill="white"/>
<mask id="mask0_5994_831" style="mask-type:luminance" maskUnits="userSpaceOnUse" x="0" y="2" width="32" height="28">
<path d="M31.4865 2H0V29.5951H31.4865V2Z" fill="white"/>
</mask>
<g mask="url(#mask0_5994_831)">
<path d="M4.94987 21.9354C2.50763 19.3474 1.07867 15.7721 1.08229 11.5063C1.079 7.73371 2.26426 4.49098 4.30197 2.02348L4.29875 2.02473H0.015625V21.9358H4.9469L4.94987 21.9354ZM27.5074 21.9372C28.5595 20.8103 29.5023 19.4832 30.3564 17.9655L25.6157 15.5952C23.9507 18.3019 21.5159 20.7933 18.149 20.8099C13.2488 20.7933 11.3236 16.6032 11.3342 11.2099H29.6453C29.6698 10.601 29.6698 10.3179 29.6453 10.0248C29.7648 6.81617 28.9144 4.11913 27.3676 2.0188L27.3595 2.02473H31.4823V21.9358H27.4983L27.5074 21.9372ZM11.6305 6.58769C11.8332 4.14587 13.7584 2.50382 16.0157 2.4988C18.2884 2.50382 19.9303 4.14587 19.986 6.58769H11.6305Z" fill="#A90432"/>
<path d="M2.62334 25.3135V24.4841H0.0751953V29.4024H2.62334V28.5728H1.02334V27.2693H2.56408V26.4395H1.02334V25.3135H2.62334ZM6.94927 27.3284C7.58449 27.2341 7.93331 26.6046 7.95668 25.9656C7.93331 24.9197 7.25544 24.4871 6.29742 24.4841H4.99371V29.4024H5.94186V27.4471L7.12705 29.4024H8.31223L6.94927 27.3284ZM5.94186 25.2543H6.06038C6.57767 25.2738 6.9659 25.3918 6.94927 26.0247C6.9659 26.6046 6.59083 26.762 6.06038 26.7358H5.94186V25.2543ZM11.2752 24.4841H10.3271V29.4024H12.6382V28.5728H11.2752V24.4841ZM17.4975 28.395L17.9123 29.4024H18.9197L17.0826 24.3654H16.3123L14.3567 29.4024H15.3641L15.7789 28.395H17.4975ZM17.2604 27.6248H16.0752L16.6086 25.7878L17.2604 27.6248ZM20.6975 29.4024H21.7049V26.0839L24.3123 29.5209H25.0234V24.4841H24.016V27.8026L21.4086 24.3654H20.6975V29.4024ZM29.1715 26.795V27.5654H30.2382C30.2161 28.1847 29.7094 28.7091 29.1123 28.6913C28.1695 28.7091 27.7021 27.7979 27.6901 26.9728C27.7021 26.1588 28.1627 25.2083 29.1123 25.1952C29.6106 25.2083 30.0318 25.5492 30.2382 25.9656L31.0678 25.5506C30.703 24.7822 29.966 24.3559 29.1123 24.3654C27.6428 24.3559 26.702 25.5687 26.6826 26.9728C26.702 28.3419 27.6166 29.5614 29.053 29.5802C30.6042 29.5614 31.3217 28.3223 31.3049 26.9135V26.795H29.1715Z" fill="#231F20"/>
</g>
</svg>
