<svg width="32" height="32" viewBox="0 0 32 32" fill="none" xmlns="http://www.w3.org/2000/svg">
<path opacity="0.966" fill-rule="evenodd" clip-rule="evenodd" d="M17.0625 3.56249C22.6292 2.91922 26.8584 4.96089 29.75 9.68749C31.9997 14.4064 31.5831 18.8646 28.5 23.0625C24.4921 27.2885 19.7629 28.3927 14.3125 26.375C13.3197 25.848 12.3823 25.2437 11.5 24.5625C6.16329 25.4379 2.53829 23.3546 0.624991 18.3125C-0.336042 13.759 1.14312 10.2799 5.06249 7.87499C6.89942 6.86551 8.83692 6.55301 10.875 6.93749C12.6501 5.26896 14.7126 4.14396 17.0625 3.56249ZM18.4375 7.18749C22.5217 7.08185 25.3551 8.89435 26.9375 12.625C27.849 15.4684 27.4531 18.1141 25.75 20.5625C22.7524 23.7985 19.2315 24.486 15.1875 22.625C17.358 20.869 18.3996 18.619 18.3125 15.875C18.3967 12.7934 17.1884 10.3767 14.6875 8.62499C15.8387 7.85976 17.0887 7.3806 18.4375 7.18749ZM7.81249 10.6875C7.98417 10.6679 8.15084 10.6887 8.31249 10.75C6.89099 14.2891 7.01599 17.7266 8.68749 21.0625C6.15872 20.5962 4.63788 19.0962 4.12499 16.5625C3.96424 13.7149 5.1934 11.7565 7.81249 10.6875ZM12.0625 11.3125C14.673 13.1301 15.3189 15.5051 14 18.4375C13.6334 19.0751 13.1542 19.6169 12.5625 20.0625C12.2372 19.7679 11.9872 19.4137 11.8125 19C11.8542 18.9584 11.8958 18.9166 11.9375 18.875C11.125 17.271 10.8959 15.5835 11.25 13.8125C11.4843 12.9639 11.7551 12.1306 12.0625 11.3125Z" fill="#8F4FA5"/>
<path fill-rule="evenodd" clip-rule="evenodd" d="M27.6875 9.4375C29.0534 9.49135 29.4909 10.158 29 11.4375C27.918 12.2408 27.1889 11.9908 26.8125 10.6875C26.911 10.1314 27.2026 9.71477 27.6875 9.4375Z" fill="#FBF8FB"/>
<path fill-rule="evenodd" clip-rule="evenodd" d="M2.68747 18.0626C4.00676 18.0274 4.52758 18.6524 4.24997 19.9376C3.53265 20.5967 2.82431 20.5967 2.12497 19.9376C1.94287 19.5793 1.90121 19.2043 1.99997 18.8126C2.25492 18.5788 2.48408 18.3288 2.68747 18.0626Z" fill="#FBF9FC"/>
</svg>
