<svg width="32" height="32" viewBox="0 0 32 32" fill="none" xmlns="http://www.w3.org/2000/svg">
<g clip-path="url(#clip0_12_786)">
<path opacity="0.943" fill-rule="evenodd" clip-rule="evenodd" d="M15.2653 0.408109C16.5066 0.148554 16.8059 0.529506 16.1632 1.55097C15.8556 3.96633 16.9167 5.35408 19.3469 5.71423C17.9745 8.61763 18.6276 10.9578 21.3061 12.7346C23.0077 13.5391 24.6676 13.4574 26.2857 12.4897C26.9548 13.6756 27.9616 14.3831 29.3061 14.6122C29.9562 14.5183 30.5549 14.3006 31.102 13.9591C31.8088 21.3359 28.87 26.6964 22.2857 30.0408C15.969 32.4886 10.2547 31.509 5.14284 27.102C0.402733 21.9586 -0.712914 16.1084 1.7959 9.55097C4.58705 4.0054 9.07685 0.957784 15.2653 0.408109ZM12.8163 3.51015C13.0322 3.48239 13.2226 3.53683 13.3877 3.67341C13.7504 5.21343 14.5667 6.46514 15.8367 7.42852C15.8228 12.6126 18.4078 15.4425 23.5918 15.9183C24.199 15.9126 24.7977 15.8582 25.3877 15.755C26.2736 16.5516 27.3076 17.0414 28.4898 17.2244C27.8519 22.0264 25.3486 25.4822 20.9796 27.5918C14.8091 29.7611 9.66624 28.319 5.551 23.2653C2.27048 18.0372 2.43375 12.9215 6.0408 7.91831C7.87239 5.76617 10.1309 4.29678 12.8163 3.51015Z" fill="#EE534F"/>
<path opacity="0.926" fill-rule="evenodd" clip-rule="evenodd" d="M25.2245 0.408203C27.4175 0.753777 28.016 1.92384 27.0204 3.91841C25.8867 4.7437 24.8255 4.66206 23.8368 3.67351C23.2007 2.06531 23.6632 0.976876 25.2245 0.408203Z" fill="#EE534F"/>
<path opacity="0.906" fill-rule="evenodd" clip-rule="evenodd" d="M22.9388 6.93876C24.7935 6.80978 25.3377 7.59891 24.5715 9.30611C22.9244 9.88944 22.1897 9.31801 22.3674 7.59182C22.48 7.28975 22.6704 7.07205 22.9388 6.93876Z" fill="#EE534F"/>
<path opacity="0.887" fill-rule="evenodd" clip-rule="evenodd" d="M13.1429 8.08167C14.2802 8.15713 14.7972 8.75577 14.6939 9.87758C14.3646 10.7632 13.7387 11.0625 12.8163 10.7755C12.0705 10.3606 11.8256 9.73478 12.0816 8.89799C12.3763 8.51829 12.7301 8.24619 13.1429 8.08167Z" fill="#EE534F"/>
<path opacity="0.888" fill-rule="evenodd" clip-rule="evenodd" d="M29.7959 8.08167C31.3064 8.33975 31.7146 9.15608 31.0204 10.5306C29.3621 11.226 28.6002 10.6817 28.7347 8.89799C28.9964 8.4841 29.35 8.21198 29.7959 8.08167Z" fill="#EE534F"/>
<path opacity="0.943" fill-rule="evenodd" clip-rule="evenodd" d="M8.7347 12C11.8263 12.0886 12.7787 13.558 11.5918 16.4082C10.4625 17.3174 9.23798 17.4536 7.91837 16.8163C6.9931 15.9479 6.69377 14.8867 7.02042 13.6327C7.36014 12.83 7.93157 12.2858 8.7347 12Z" fill="#EE534F"/>
<path opacity="0.898" fill-rule="evenodd" clip-rule="evenodd" d="M15.2653 14.6122C17.12 14.4832 17.6641 15.2724 16.8979 16.9796C15.1778 17.6321 14.4431 17.0607 14.6939 15.2653C14.8065 14.9632 14.9969 14.7455 15.2653 14.6122Z" fill="#EE534F"/>
<path opacity="0.919" fill-rule="evenodd" clip-rule="evenodd" d="M10.8572 19.6735C13.1316 19.7417 13.8663 20.83 13.0612 22.9388C11.9728 24.0273 10.8844 24.0273 9.79594 22.9388C9.12404 21.4989 9.47779 20.4104 10.8572 19.6735Z" fill="#EE534F"/>
<path opacity="0.925" fill-rule="evenodd" clip-rule="evenodd" d="M19.6735 20.9796C21.2367 20.7489 22.162 21.402 22.449 22.9388C22.1561 24.5842 21.1765 25.21 19.5102 24.8163C17.9535 23.4647 18.0078 22.1857 19.6735 20.9796Z" fill="#EE534F"/>
</g>
<defs>
<clipPath id="clip0_12_786">
<rect width="32" height="32" fill="white"/>
</clipPath>
</defs>
</svg>
