<svg width="32" height="32" viewBox="0 0 33 33" fill="none" xmlns="http://www.w3.org/2000/svg">
    <path fill-rule="evenodd" clip-rule="evenodd"
        d="M32.5 31.9562C29.2285 32.2254 25.9182 32.3155 22.569 32.2265C20.5911 29.0823 18.5312 26.0183 16.3897 23.0344C14.2414 26.0248 12.1817 29.089 10.2103 32.2265C6.93469 32.3155 3.6979 32.2254 0.5 31.9562C4.09945 26.5542 7.70406 21.1471 11.3138 15.7349C7.85631 10.6882 4.39886 5.64161 0.941379 0.594979C4.24927 0.279692 7.55962 0.23465 10.8724 0.459802C18.1282 10.9242 25.3373 21.4231 32.5 31.9562Z"
        fill="#030303" />
    <path fill-rule="evenodd" clip-rule="evenodd"
        d="M21.907 0.324632C25.1524 0.149036 28.3156 0.329282 31.3966 0.865342C28.5478 5.17085 25.6788 9.49653 22.7897 13.8424C21.05 11.5762 19.4317 9.18808 17.9346 6.67797C19.2254 4.51313 20.5495 2.39533 21.907 0.324632Z"
        fill="#15C9FB" />
</svg>