<svg width="32" height="32" viewBox="0 0 32 32" fill="none" xmlns="http://www.w3.org/2000/svg">
    <path
        d="M28.1495 19.4538C27.5839 19.4185 26.3004 17.9736 25.7348 17.6917C25.4085 17.5154 24.2991 16.4934 23.9728 16.282C23.6465 16.1058 23.3637 15.5771 23.3637 15.1542C23.3637 14.5903 23.6465 14.0969 24.0163 14.0969C24.3861 14.0969 24.6689 14.5551 24.6689 15.1542C24.6689 15.4361 24.6906 15.5066 25.7131 14.8723C26.0611 14.6608 26.3874 15.3657 26.7573 15.2599C27.1053 15.1895 27.5622 14.2379 27.6927 13.8855C27.8232 13.5331 28.0625 13.4626 27.5187 12.5463C27.1271 11.8767 27.2794 11.63 27.0183 10.9604C26.8008 10.4317 26.3439 10.0088 26.1482 9.79738C25.7348 9.51544 25.6696 9.4802 25.7131 9.19826C25.8436 8.21148 25.4085 7.85905 25.278 8.00002C25.1475 8.14099 24.5601 8.91632 22.9068 9.37447C22.0367 9.62117 20.6662 9.40972 19.3609 10.1146C15.9673 11.9472 16.2719 11.0309 10.7246 10.5375C10.0285 10.467 8.54924 10.9604 7.74435 10.3613C7.15699 9.90311 6.89594 9.65641 6.76542 9.65641C6.46087 9.65641 6.19982 10.2203 6.78717 11.2423C7.50505 12.4758 8.37521 12.1939 8.17942 12.511C7.96189 12.8282 7.85312 13.1102 7.65733 13.6035C6.93945 15.4714 5.76474 16.0705 5.32966 16.1762C4.89458 16.2467 4.74231 15.8943 4.56828 16.3172C4.39424 16.6696 4.416 17.5154 2.67569 18.1146C1.78378 18.4317 1.52273 19.7709 1.6315 20.511C1.71851 21.2511 2.58867 21.0044 2.95849 20.9339C3.74163 20.8282 4.80757 19.1013 5.13388 18.8546C5.78649 18.3613 5.46019 18.467 6.78717 18.2908C9.04958 17.9383 9.54992 19.2776 12.0081 17.6917C14.8796 15.8238 14.1182 18.3613 17.4031 18.7489C18.7301 18.9251 19.9048 18.4317 20.862 18.0793C21.036 18.0088 21.0795 18.0793 21.1012 18.1146C22.0802 19.2071 22.4717 19.7709 23.2331 19.7709C24.1468 19.7709 25.278 19.7005 26.4745 20.652C26.866 20.9692 26.8443 21.5331 27.2358 21.7093C27.6274 21.8855 27.7579 21.956 28.2365 21.956C28.8891 21.956 29.4983 21.4273 29.4983 20.3348C29.433 19.7709 29.1067 19.5243 28.1495 19.4538Z"
        fill="#CC202D" />
</svg>
    