<svg width="32" height="32" viewBox="0 0 32 32" fill="none" xmlns="http://www.w3.org/2000/svg">
    <path
        d="M28 7.24225H25.1344C24.8269 5.22304 22.9698 3.66536 20.7314 3.66536H10.8063C8.56792 3.66536 6.71081 5.22304 6.40334 7.24225H3.53772C3.85749 3.74613 7.00598 1 10.8063 1H20.7314C24.544 1 27.6802 3.74613 28 7.24225Z"
        fill="#478791" />
    <path
        d="M28 8.44238C27.6802 11.9385 24.5317 14.6846 20.7314 14.6846H10.8063C6.99368 14.6846 3.85749 11.9385 3.53772 8.44238H6.40334C6.71081 10.4616 8.56792 12.0193 10.8063 12.0193H20.7314C22.9698 12.0193 24.8269 10.4616 25.1344 8.44238H28Z"
        fill="#478791" />
    <path
        d="M27.8032 21.123C27.9016 23.996 25.4295 26.3614 22.3917 26.3614H14.0408C13.8195 26.3614 13.635 26.5345 13.635 26.7422V30.9998L7.54709 26.4191C6.78456 25.9114 6.07124 25.3576 5.3825 24.7576C4.3617 23.8576 3.72217 22.6114 3.72217 21.2961C3.72217 21.2153 3.72217 21.1461 3.72217 21.0653C3.83286 18.3192 6.31721 16.1846 9.24432 16.1846H22.281C25.2327 16.1961 27.7171 18.3538 27.8032 21.123Z"
        fill="#478791" />
    <path
        d="M13.918 7.84219C13.918 8.04988 13.8811 8.25757 13.8196 8.44218C13.549 9.23833 12.7496 9.81525 11.8149 9.81525C10.8802 9.81525 10.0808 9.23833 9.81018 8.44218C9.74869 8.25757 9.71179 8.04988 9.71179 7.84219C9.71179 7.6345 9.74869 7.42681 9.81018 7.24219C10.0808 6.44605 10.8802 5.86914 11.8149 5.86914C12.7496 5.86914 13.549 6.44605 13.8196 7.24219C13.8811 7.42681 13.918 7.6345 13.918 7.84219Z"
        fill="#478791" />
    <path
        d="M21.8384 7.84219C21.8384 8.04988 21.8015 8.25757 21.74 8.44218C21.4694 9.23833 20.67 9.81525 19.7353 9.81525C18.8006 9.81525 18.0012 9.23833 17.7306 8.44218C17.6691 8.25757 17.6322 8.04988 17.6322 7.84219C17.6322 7.6345 17.6691 7.42681 17.7306 7.24219C18.0012 6.44605 18.8006 5.86914 19.7353 5.86914C20.67 5.86914 21.4694 6.44605 21.74 7.24219C21.8015 7.42681 21.8384 7.6345 21.8384 7.84219Z"
        fill="#478791" />
</svg>