<svg width="32" height="32" viewBox="0 0 33 33" fill="none" xmlns="http://www.w3.org/2000/svg">
    <path opacity="0.998" fill-rule="evenodd" clip-rule="evenodd"
        d="M19.3788 0.5C20.1564 0.5 20.9338 0.5 21.7114 0.5C21.7114 11.1667 21.7114 21.8333 21.7114 32.5C20.9895 32.5 20.2674 32.5 19.5454 32.5C19.3371 32.0188 19.1148 31.5339 18.8789 31.0455C19.1003 21.2231 19.1003 11.4292 18.8789 1.66364C19.0455 1.27576 19.2121 0.887879 19.3788 0.5Z"
        fill="#FB5300" />
    <path opacity="0.938" fill-rule="evenodd" clip-rule="evenodd"
        d="M21.7119 0.5C22.545 0.5 23.3781 0.5 24.2112 0.5C24.2112 2.92424 24.2112 5.34849 24.2112 7.77273C24.3865 7.72924 24.5531 7.77773 24.7111 7.91818C24.505 7.9857 24.3383 8.13116 24.2112 8.35455C24.0446 8.35455 23.878 8.35455 23.7114 8.35455C23.7114 9.71213 23.7114 11.0697 23.7114 12.4273C23.7632 12.7117 23.8743 12.9057 24.0446 13.0091C24.2109 15.5229 24.2664 18.0441 24.2112 20.5727C25.5683 20.7396 26.9013 20.9335 28.2101 21.1545C26.7105 21.1545 25.2109 21.1545 23.7114 21.1545C23.739 23.8714 23.7114 26.5866 23.628 29.3C23.3751 30.5652 22.9586 31.6319 22.3784 32.5C22.1563 32.5 21.934 32.5 21.7119 32.5C21.7119 21.8333 21.7119 11.1667 21.7119 0.5Z"
        fill="#FD5A00" />
    <path opacity="0.953" fill-rule="evenodd" clip-rule="evenodd"
        d="M24.2119 0.5C26.7112 0.5 29.2105 0.5 31.7098 0.5C32.5433 2.17168 32.7655 4.11108 32.3763 6.31818C32.0007 7.22983 31.5009 7.86012 30.8767 8.20909C28.6558 8.35452 26.4341 8.40301 24.2119 8.35455C24.339 8.13116 24.5057 7.9857 24.7118 7.91818C24.5538 7.77773 24.3872 7.72924 24.2119 7.77273C24.2119 5.34849 24.2119 2.92424 24.2119 0.5Z"
        fill="#FE5F00" />
    <path opacity="0.913" fill-rule="evenodd" clip-rule="evenodd"
        d="M18.8793 1.6637C19.1007 11.4292 19.1007 21.2232 18.8793 31.0455C17.2824 30.7625 15.6718 30.6656 14.0473 30.7546C14.1654 30.4916 14.3321 30.3948 14.5472 30.4637C14.5472 29.397 14.5472 28.3304 14.5472 27.2637C15.769 27.2637 16.991 27.2637 18.2128 27.2637C18.2128 26.8758 18.2128 26.4879 18.2128 26.1001C16.9342 26.1485 15.6567 26.1 14.3805 25.9546C13.4969 24.8195 13.4969 23.6558 14.3805 22.4637C15.6567 22.3183 16.9342 22.2698 18.2128 22.3182C18.2128 21.9304 18.2128 21.5425 18.2128 21.1546C17.3797 21.1546 16.5466 21.1546 15.7135 21.1546C15.8246 19.991 15.9356 18.8273 16.0467 17.6637C16.7687 17.6637 17.4908 17.6637 18.2128 17.6637C18.2128 17.1788 18.2128 16.694 18.2128 16.2092C17.1576 16.2092 16.1022 16.2092 15.047 16.2092C14.9289 15.9462 14.7623 15.8492 14.5472 15.9182C14.5472 14.7546 14.5472 13.591 14.5472 12.4273C15.769 12.4273 16.991 12.4273 18.2128 12.4273C18.2128 12.0395 18.2128 11.6516 18.2128 11.2637C17.1576 11.2637 16.1022 11.2637 15.047 11.2637C14.9289 11.0007 14.7623 10.9038 14.5472 10.9728C14.5472 10.0031 14.5472 9.03338 14.5472 8.0637C14.3321 8.13273 14.1654 8.03577 14.0473 7.77279C14.2624 7.84182 14.429 7.74486 14.5472 7.48188C15.756 7.39077 16.95 7.48773 18.1295 7.77279C18.2118 7.29741 18.2395 6.81255 18.2128 6.31824C17.4352 6.31824 16.6577 6.31824 15.8801 6.31824C15.9126 5.31298 15.9126 4.24633 15.8801 3.11824C15.5611 3.201 15.2834 3.10403 15.047 2.82733C16.2187 2.92343 17.385 2.82646 18.546 2.53642C18.6197 2.17608 18.7308 1.88517 18.8793 1.6637Z"
        fill="#F74A00" />
    <path opacity="0.843" fill-rule="evenodd" clip-rule="evenodd"
        d="M6.04916 2.82727C7.11103 2.78877 7.52758 3.66151 7.29881 5.44545C6.6956 6.60545 6.08465 6.60545 5.46599 5.44545C5.24353 4.25037 5.43793 3.37764 6.04916 2.82727Z"
        fill="#E91C00" />
    <path opacity="0.903" fill-rule="evenodd" clip-rule="evenodd"
        d="M9.38236 2.82727C10.2173 2.77899 11.0504 2.82748 11.8817 2.97272C12.4702 3.95887 12.5258 5.02555 12.0483 6.17272C11.1041 6.36667 10.1599 6.36667 9.21574 6.17272C8.56179 4.9786 8.61734 3.86345 9.38236 2.82727Z"
        fill="#EF2F00" />
    <path opacity="0.9" fill-rule="evenodd" clip-rule="evenodd"
        d="M15.0477 2.82727C15.2841 3.10397 15.5618 3.20094 15.8809 3.11818C15.9133 4.24627 15.9133 5.31291 15.8809 6.31818C15.3227 6.36618 14.7673 6.31769 14.2146 6.17273C13.4318 4.31582 13.7095 3.20066 15.0477 2.82727Z"
        fill="#F54000" />
    <path opacity="0.862" fill-rule="evenodd" clip-rule="evenodd"
        d="M1.21771 7.48178C2.08395 7.34052 2.91705 7.53447 3.71701 8.0636C4.19868 9.17444 4.14314 10.1926 3.55039 11.1181C2.66176 11.3121 1.77311 11.3121 0.884471 11.1181C0.51938 10.1786 0.463839 9.16039 0.717851 8.0636C0.924243 7.9349 1.09086 7.74095 1.21771 7.48178Z"
        fill="#E40900" />
    <path opacity="0.862" fill-rule="evenodd" clip-rule="evenodd"
        d="M14.5479 7.48177C14.4298 7.74475 14.2631 7.84171 14.048 7.77268C12.9913 7.72433 11.9361 7.77282 10.8823 7.91813C11.0422 9.00322 11.0978 10.1184 11.0489 11.2636C9.32624 11.312 7.6045 11.2635 5.88365 11.1181C5.21717 10.0515 5.21717 8.98481 5.88365 7.91813C8.75601 7.48992 11.6441 7.34446 14.5479 7.48177Z"
        fill="#EF2600" />
    <path opacity="0.897" fill-rule="evenodd" clip-rule="evenodd"
        d="M14.0476 7.77274C14.1658 8.03572 14.3324 8.13268 14.5475 8.06365C14.5475 9.03334 14.5475 10.0031 14.5475 10.9727C14.7626 10.9037 14.9292 11.0007 15.0473 11.2637C13.7144 11.2637 12.3814 11.2637 11.0485 11.2637C11.0974 10.1184 11.0418 9.00329 10.8818 7.9182C11.9356 7.77289 12.9909 7.72439 14.0476 7.77274Z"
        fill="#F23900" />
    <path opacity="0.838" fill-rule="evenodd" clip-rule="evenodd"
        d="M8.8829 12.4272C9.61042 12.4826 10.1103 13.1129 10.3825 14.3182C10.1565 15.8787 9.60109 16.4606 8.71628 16.0636C8.37265 15.6178 8.15049 15.036 8.0498 14.3182C8.29962 13.6409 8.57732 13.0106 8.8829 12.4272Z"
        fill="#EE2700" />
    <path opacity="0.85" fill-rule="evenodd" clip-rule="evenodd"
        d="M14.5468 12.4272C14.5468 13.5909 14.5468 14.7545 14.5468 15.9181C14.7619 15.8491 14.9285 15.9461 15.0467 16.209C14.1009 16.2574 13.1567 16.2089 12.2141 16.0636C11.3362 14.9525 11.3362 13.7888 12.2141 12.5727C12.9897 12.4275 13.7673 12.379 14.5468 12.4272Z"
        fill="#F33900" />
    <path opacity="0.942" fill-rule="evenodd" clip-rule="evenodd"
        d="M23.7109 12.4273C25.3225 12.3789 26.9332 12.4274 28.5429 12.5728C30.1428 13.6272 30.726 15.6151 30.2924 18.5364C29.8209 19.9426 29.1266 20.8154 28.2097 21.1546C26.9009 20.9335 25.5679 20.7396 24.2108 20.5728C24.2659 18.0441 24.2105 15.5229 24.0442 13.0092C23.8739 12.9057 23.7628 12.7118 23.7109 12.4273Z"
        fill="#FE6000" />
    <path opacity="0.921" fill-rule="evenodd" clip-rule="evenodd"
        d="M5.38399 17.6636C6.27436 17.6153 7.16301 17.6638 8.04992 17.809C8.96459 19.1394 8.85351 20.206 7.71668 21.009C6.99466 21.203 6.27263 21.203 5.55061 21.009C4.91886 20.4119 4.72448 19.4907 4.96744 18.2454C5.13318 18.0808 5.27203 17.8868 5.38399 17.6636Z"
        fill="#E91D00" />
    <path opacity="0.685" fill-rule="evenodd" clip-rule="evenodd"
        d="M16.0469 17.6637C15.9358 18.8273 15.8248 19.9909 15.7137 21.1546C14.213 21.203 12.7135 21.1545 11.2149 21.0091C10.2651 20.1854 10.154 19.1187 10.8817 17.8091C12.6025 17.6637 14.3243 17.6152 16.0469 17.6637Z"
        fill="#F23A00" />
    <path opacity="0.855" fill-rule="evenodd" clip-rule="evenodd"
        d="M8.71618 22.3181C9.60654 22.2698 10.4952 22.3183 11.3821 22.4636C12.0336 23.6053 12.0336 24.7689 11.3821 25.9545C10.4935 26.1484 9.60481 26.1484 8.71618 25.9545C8.05555 24.7214 8.05555 23.5093 8.71618 22.3181Z"
        fill="#EF2D00" />
    <path opacity="0.812" fill-rule="evenodd" clip-rule="evenodd"
        d="M3.71701 27.2636C4.71708 27.1196 5.18917 27.8954 5.13328 29.5909C4.79126 30.694 4.26363 31.0332 3.55039 30.6091C3.08067 29.416 3.13621 28.3008 3.71701 27.2636Z"
        fill="#E61100" />
    <path opacity="0.835" fill-rule="evenodd" clip-rule="evenodd"
        d="M7.71609 27.2637C8.55104 27.2154 9.38414 27.2639 10.2154 27.4091C11.0324 28.361 11.0879 29.4276 10.382 30.6091C9.43782 30.8032 8.49366 30.8032 7.54947 30.6091C6.66432 29.3752 6.71987 28.2601 7.71609 27.2637Z"
        fill="#ED2800" />
    <path opacity="0.826" fill-rule="evenodd" clip-rule="evenodd"
        d="M14.5469 27.2637C14.5469 28.3304 14.5469 29.397 14.5469 30.4637C14.3318 30.3947 14.1652 30.4916 14.047 30.7546C13.5441 30.8026 13.0442 30.754 12.5474 30.6091C11.8416 29.4276 11.8971 28.361 12.7141 27.4091C13.3225 27.2641 13.9334 27.2156 14.5469 27.2637Z"
        fill="#F33A00" />
</svg>