<svg width="32" height="32" viewBox="0 0 32 32" fill="none" xmlns="http://www.w3.org/2000/svg">
<g clip-path="url(#clip0_15_193)">
<path d="M0.00295 15.9857C0.00870714 7.15714 7.16429 0 16 0C24.8357 0 32 7.16429 32 16C32 24.8357 24.8429 31.9929 16.0071 32H3.63786C1.63143 32 0.00594286 30.3786 0.00297143 28.3714H0V15.9857H0.00295ZM24.4714 11.4786C24.4714 8.64286 21.9286 6.58571 19.2429 6.58571C16.75 6.58571 14.5429 8.46429 14.2357 10.8643C14.2214 11.1357 14.2071 11.2214 14.2071 11.4714C14.2 12.9786 14.2071 14.5286 14.15 16.0714C14.2143 17.9357 14.2214 19.7929 14.15 21.5429C14.15 23.4786 12.7643 24.7929 10.9571 24.7929C9.15 24.7929 7.68571 23.35 7.68571 21.5429C7.72143 19.5643 9.3 18.3071 11.15 18.25H11.1643L13.0429 18.2357V15.5714L11.1643 15.5857C7.8 15.5571 5.12286 18.1929 5.02571 21.5429C5.02571 24.8 7.70714 27.4643 10.9571 27.4643C14.0286 27.4643 16.5786 25.0643 16.8571 22.0643L16.8714 18.2429L19.2 18.2214C21.0071 18.2357 20.9857 15.5214 19.1857 15.5571L16.8714 15.5786C16.8714 15.1214 16.8786 14.6643 16.8786 14.2071C16.8857 13.3 16.8857 12.3929 16.8714 11.4786C16.8786 10.3 18 9.25 19.2429 9.25C20.4929 9.25 21.8071 9.87143 21.8071 11.4786C21.8071 11.7071 21.8 11.8429 21.7857 11.9286C21.65 12.6786 22.1571 13.3857 22.9071 13.4929C23.6643 13.6 24.35 13.0571 24.4214 12.3071C24.4643 12.0071 24.4714 11.7429 24.4714 11.4786Z" fill="#44A3D7"/>
</g>
<defs>
<clipPath id="clip0_15_193">
<rect width="32" height="32" fill="white"/>
</clipPath>
</defs>
</svg>
