<svg width="32" height="32" viewBox="0 0 32 32" fill="none" xmlns="http://www.w3.org/2000/svg">
<rect width="32" height="32" fill="black"/>
<path opacity="0.016" fill-rule="evenodd" clip-rule="evenodd" d="M11.7327 7.4541C11.9328 7.16784 12.1995 7.12341 12.5327 7.32077C12.2799 7.44952 12.0132 7.49397 11.7327 7.4541Z" fill="black"/>
<path opacity="0.016" fill-rule="evenodd" clip-rule="evenodd" d="M7.19935 7.72088C7.00231 7.75582 6.82452 7.71136 6.66602 7.58755C6.91583 7.4031 7.09359 7.44755 7.19935 7.72088Z" fill="black"/>
<path opacity="0.846" fill-rule="evenodd" clip-rule="evenodd" d="M11.7326 7.4541C12.0173 7.7033 12.3729 7.79218 12.7993 7.72077C13.6786 8.25021 14.5675 8.78354 15.4659 9.32077C16.1847 10.1276 16.8958 10.9276 17.5993 11.7208C17.5993 11.9874 17.5993 12.2541 17.5993 12.5208C17.2437 12.6986 16.977 12.9652 16.7993 13.3208C16.5326 13.6763 16.2659 13.6763 15.9993 13.3208C15.7959 13.116 15.5293 12.9827 15.1993 12.9208C15.5295 12.7368 15.5295 12.6034 15.1993 12.5208C15.2187 12.1136 15.0409 11.8469 14.6659 11.7208C14.4626 11.2508 14.1071 10.9841 13.5993 10.9208C13.4731 10.5458 13.2064 10.368 12.7993 10.3874C12.2291 10.2706 11.6069 10.2261 10.9326 10.2541C11.1104 10.1652 11.2881 10.0763 11.4659 9.98744C9.96811 9.45914 8.54587 9.59248 7.19925 10.3874C6.79208 10.368 6.52541 10.5458 6.39925 10.9208C5.99208 10.9013 5.72541 11.0791 5.59925 11.4541C5.42146 11.4541 5.33258 11.543 5.33258 11.7208C4.95757 11.8469 4.77978 12.1136 4.79925 12.5208C4.45528 12.6695 4.23306 12.9362 4.13258 13.3208C3.47986 14.8768 3.43541 16.3879 3.99925 17.8541C3.97314 18.4015 4.1509 18.846 4.53258 19.1874C4.86786 19.9681 5.4012 20.5903 6.13258 21.0541C7.23613 21.9408 8.52501 22.3853 9.99925 22.3874C11.1339 22.4264 12.1561 22.1597 13.0659 21.5874C14.1326 21.0541 14.9326 20.2541 15.4659 19.1874C16.5648 16.9897 17.6759 14.7675 18.7993 12.5208C19.8177 11.2762 21.0177 10.2984 22.3993 9.58744C24.4801 9.2213 26.4358 9.57685 28.2659 10.6541C28.7105 11.2763 29.2438 11.8096 29.8659 12.2541C31.0227 14.3978 31.2003 16.62 30.3993 18.9208C30.1758 19.0119 30.0867 19.1897 30.1326 19.4541C29.9547 19.4541 29.8659 19.543 29.8659 19.7208C29.6425 19.8119 29.5534 19.9897 29.5993 20.2541C29.4214 20.2541 29.3326 20.343 29.3326 20.5208C29.1547 20.5208 29.0659 20.6096 29.0659 20.7874C28.8881 20.7874 28.7993 20.8763 28.7993 21.0541C28.6214 21.0541 28.5326 21.143 28.5326 21.3208C28.1254 21.3013 27.8587 21.4791 27.7326 21.8541C27.4681 21.8083 27.2905 21.8973 27.1993 22.1208C26.9347 22.075 26.7571 22.1639 26.6659 22.3874C25.0675 22.8292 23.5118 22.7403 21.9993 22.1208C21.9104 22.2986 21.8215 22.4763 21.7326 22.6541C21.6583 22.4099 21.525 22.2321 21.3326 22.1208C21.2064 21.7458 20.9398 21.568 20.5326 21.5874C20.3293 21.1175 19.9738 20.8508 19.4659 20.7874C19.3225 20.3562 19.2336 19.9117 19.1993 19.4541C19.5548 19.2763 19.8215 19.0096 19.9993 18.6541C20.3548 18.743 20.7104 18.8319 21.0659 18.9208C21.0659 19.0986 21.1548 19.1874 21.3326 19.1874C21.4587 19.5624 21.7254 19.7402 22.1326 19.7208C24.6302 20.9398 26.6745 20.362 28.2659 17.9874C28.1771 17.8986 28.0881 17.8096 27.9993 17.7208C28.9486 16.4499 28.9486 15.161 27.9993 13.8541C27.9993 13.6763 27.9105 13.5874 27.7326 13.5874C27.6438 12.9652 27.2881 12.6097 26.6659 12.5208C26.5747 12.2973 26.3971 12.2083 26.1326 12.2541C25.9297 12.0165 25.663 11.8387 25.3326 11.7208C25.0137 11.813 25.0137 11.9463 25.3326 12.1208C24.7105 12.2986 24.0881 12.2986 23.4659 12.1208C24.8102 11.8521 24.7214 11.7187 23.1993 11.7208C23.2577 12.0341 23.1689 12.3008 22.9326 12.5208C22.8437 12.343 22.7548 12.1652 22.6659 11.9874C22.3933 12.0822 22.2155 12.26 22.1326 12.5208C21.8682 12.475 21.6904 12.5639 21.5993 12.7874C21.4215 12.7874 21.3326 12.8763 21.3326 13.0541C20.9576 13.1803 20.7798 13.4469 20.7993 13.8541C20.6215 13.8541 20.5326 13.943 20.5326 14.1208C20.3091 14.2119 20.2202 14.3897 20.2659 14.6541C20.0424 14.7452 19.9535 14.923 19.9993 15.1874C19.5212 15.7011 19.2545 16.3233 19.1993 17.0541C18.9757 17.1452 18.8868 17.323 18.9326 17.5874C18.2638 18.5694 17.7305 19.636 17.3326 20.7874C16.9576 20.9136 16.7798 21.1803 16.7993 21.5874C16.6215 21.5874 16.5326 21.6763 16.5326 21.8541C16.3548 21.8541 16.2659 21.943 16.2659 22.1208C16.0881 22.1208 15.9993 22.2097 15.9993 22.3874C15.8215 22.3874 15.7326 22.4763 15.7326 22.6541C15.5548 22.6541 15.4659 22.743 15.4659 22.9208C15.0587 22.9013 14.7921 23.0791 14.6659 23.4541C14.0477 23.5854 13.5143 23.8521 13.0659 24.2541C12.5154 24.304 11.9821 24.4373 11.4659 24.6541C11.7326 24.743 11.9993 24.8319 12.2659 24.9208C11.7382 25.1031 11.2938 24.9697 10.9326 24.5208C10.5169 24.6737 10.1169 24.8515 9.73259 25.0541C9.16315 24.5798 8.49648 24.4021 7.73258 24.5208C6.67626 23.9926 5.6096 23.4593 4.53258 22.9208C3.90264 22.2029 3.28042 21.4918 2.66592 20.7874C2.12125 19.5233 1.58792 18.2788 1.06592 17.0541C1.1696 13.4693 2.68072 10.6248 5.59925 8.52077C6.21752 8.38944 6.75085 8.12277 7.19925 7.72077C8.70064 7.5096 10.2118 7.42072 11.7326 7.4541ZM6.39925 10.9208C6.31037 11.0986 6.22146 11.2763 6.13258 11.4541C5.9548 11.4541 5.77704 11.4541 5.59925 11.4541C5.72541 11.0791 5.99208 10.9013 6.39925 10.9208ZM15.1993 12.5208C15.2187 12.1136 15.0409 11.8469 14.6659 11.7208C14.6465 12.1279 14.8242 12.3946 15.1993 12.5208ZM27.7326 13.5874C27.6438 12.9652 27.2881 12.6097 26.6659 12.5208C26.9326 12.9652 27.2881 13.3208 27.7326 13.5874ZM19.9993 18.6541C20.4335 18.2934 20.789 18.3822 21.0659 18.9208C20.7104 18.8319 20.3548 18.743 19.9993 18.6541Z" fill="white"/>
<path opacity="0.016" fill-rule="evenodd" clip-rule="evenodd" d="M12.7993 7.72088C12.9051 7.44755 13.0828 7.4031 13.3326 7.58755C13.1741 7.71136 12.9964 7.75582 12.7993 7.72088Z" fill="black"/>
<path opacity="0.016" fill-rule="evenodd" clip-rule="evenodd" d="M6.13257 7.7207C6.48812 7.89849 6.48812 7.89849 6.13257 7.7207Z" fill="black"/>
<path opacity="0.016" fill-rule="evenodd" clip-rule="evenodd" d="M14.1327 7.98749C13.9357 8.02242 13.7579 7.97797 13.5994 7.85415C13.8492 7.6697 14.0269 7.71415 14.1327 7.98749Z" fill="black"/>
<path opacity="0.016" fill-rule="evenodd" clip-rule="evenodd" d="M5.59937 7.98755C5.95491 8.16534 5.95491 8.16534 5.59937 7.98755Z" fill="black"/>
<path opacity="0.016" fill-rule="evenodd" clip-rule="evenodd" d="M14.1326 7.98755C14.4881 8.16534 14.4881 8.16534 14.1326 7.98755Z" fill="black"/>
<path opacity="0.016" fill-rule="evenodd" clip-rule="evenodd" d="M5.59935 8.25415C5.59935 8.34303 5.59935 8.43194 5.59935 8.52082C5.42066 8.39247 5.42066 8.30356 5.59935 8.25415Z" fill="black"/>
<path opacity="0.016" fill-rule="evenodd" clip-rule="evenodd" d="M23.7327 9.05402C24.1183 8.75725 24.5628 8.7128 25.066 8.92069C24.6303 9.05229 24.1857 9.09674 23.7327 9.05402Z" fill="black"/>
<path opacity="0.016" fill-rule="evenodd" clip-rule="evenodd" d="M15.4658 9.32086C15.6436 8.96531 15.8214 8.96531 15.9992 9.32086C15.8214 9.32086 15.6436 9.32086 15.4658 9.32086Z" fill="black"/>
<path opacity="0.016" fill-rule="evenodd" clip-rule="evenodd" d="M22.666 9.3208C22.8662 9.03454 23.1329 8.99011 23.466 9.18747C23.2132 9.31622 22.9465 9.36067 22.666 9.3208Z" fill="black"/>
<path opacity="0.016" fill-rule="evenodd" clip-rule="evenodd" d="M25.3325 9.3208C25.5328 9.03454 25.7995 8.99011 26.1325 9.18747C25.8797 9.31622 25.6131 9.36067 25.3325 9.3208Z" fill="black"/>
<path opacity="0.016" fill-rule="evenodd" clip-rule="evenodd" d="M3.73267 9.3208C4.08821 9.49859 4.08821 9.49859 3.73267 9.3208Z" fill="black"/>
<path opacity="0.016" fill-rule="evenodd" clip-rule="evenodd" d="M15.9993 9.3208C16.1771 9.3208 16.2659 9.40968 16.2659 9.58747C16.1771 9.49859 16.0881 9.40968 15.9993 9.3208Z" fill="black"/>
<path opacity="0.016" fill-rule="evenodd" clip-rule="evenodd" d="M22.3993 9.58734C22.2023 9.62227 22.0245 9.57782 21.866 9.45401C22.1158 9.26955 22.2935 9.31401 22.3993 9.58734Z" fill="black"/>
<path opacity="0.016" fill-rule="evenodd" clip-rule="evenodd" d="M26.3992 9.58734C26.505 9.31401 26.6826 9.26955 26.9325 9.45401C26.7741 9.57782 26.5962 9.62227 26.3992 9.58734Z" fill="black"/>
<path opacity="0.016" fill-rule="evenodd" clip-rule="evenodd" d="M3.73271 9.5874C3.55492 9.76519 3.55492 9.76519 3.73271 9.5874Z" fill="black"/>
<path opacity="0.016" fill-rule="evenodd" clip-rule="evenodd" d="M16.2659 9.5874C16.4437 9.5874 16.5325 9.67628 16.5325 9.85407C16.4437 9.76519 16.3547 9.67628 16.2659 9.5874Z" fill="black"/>
<path opacity="0.016" fill-rule="evenodd" clip-rule="evenodd" d="M21.3325 9.5874C21.6881 9.76519 21.6881 9.76519 21.3325 9.5874Z" fill="black"/>
<path opacity="0.016" fill-rule="evenodd" clip-rule="evenodd" d="M3.46586 9.854C3.28807 10.0318 3.28807 10.0318 3.46586 9.854Z" fill="black"/>
<path opacity="0.016" fill-rule="evenodd" clip-rule="evenodd" d="M16.5327 9.854C16.8883 10.0318 16.8883 10.0318 16.5327 9.854Z" fill="black"/>
<path opacity="0.016" fill-rule="evenodd" clip-rule="evenodd" d="M8.26587 10.3875C8.65158 10.0907 9.09603 10.0463 9.5992 10.2542C9.16344 10.3858 8.71899 10.4302 8.26587 10.3875Z" fill="black"/>
<path opacity="0.016" fill-rule="evenodd" clip-rule="evenodd" d="M10.1326 10.1208C10.4881 10.2986 10.4881 10.2986 10.1326 10.1208Z" fill="black"/>
<path opacity="0.016" fill-rule="evenodd" clip-rule="evenodd" d="M7.19922 10.6541C7.19922 10.5652 7.19922 10.4763 7.19922 10.3875C7.91034 10.4763 7.91034 10.5652 7.19922 10.6541Z" fill="black"/>
<path opacity="0.016" fill-rule="evenodd" clip-rule="evenodd" d="M12.7992 10.3875C12.7992 10.4763 12.7992 10.5652 12.7992 10.6541C12.0881 10.5652 12.0881 10.4763 12.7992 10.3875Z" fill="black"/>
<path opacity="0.016" fill-rule="evenodd" clip-rule="evenodd" d="M28.2659 10.3875C28.6213 10.5652 28.6213 10.5652 28.2659 10.3875Z" fill="black"/>
<path opacity="0.016" fill-rule="evenodd" clip-rule="evenodd" d="M7.19926 10.6541C7.02147 10.8318 7.02147 10.8318 7.19926 10.6541Z" fill="black"/>
<path opacity="0.016" fill-rule="evenodd" clip-rule="evenodd" d="M12.7993 10.6541C13.1549 10.8318 13.1549 10.8318 12.7993 10.6541Z" fill="black"/>
<path opacity="0.016" fill-rule="evenodd" clip-rule="evenodd" d="M19.7327 10.6541C20.0882 10.8318 20.0882 10.8318 19.7327 10.6541Z" fill="black"/>
<path opacity="0.016" fill-rule="evenodd" clip-rule="evenodd" d="M13.5994 10.9209C13.5994 11.0098 13.5994 11.0987 13.5994 11.1876C13.4207 11.0592 13.4207 10.9703 13.5994 10.9209Z" fill="black"/>
<path opacity="0.016" fill-rule="evenodd" clip-rule="evenodd" d="M19.7327 10.9209C19.5549 11.0987 19.5549 11.0987 19.7327 10.9209Z" fill="black"/>
<path opacity="0.016" fill-rule="evenodd" clip-rule="evenodd" d="M29.0659 10.9209C29.4214 11.0987 29.4214 11.0987 29.0659 10.9209Z" fill="black"/>
<path opacity="0.016" fill-rule="evenodd" clip-rule="evenodd" d="M13.5994 11.1875C13.9549 11.3653 13.9549 11.3653 13.5994 11.1875Z" fill="black"/>
<path opacity="0.016" fill-rule="evenodd" clip-rule="evenodd" d="M17.5992 11.7208C17.5642 11.5238 17.6087 11.346 17.7325 11.1875C17.917 11.4373 17.8725 11.6151 17.5992 11.7208Z" fill="black"/>
<path opacity="0.016" fill-rule="evenodd" clip-rule="evenodd" d="M19.4659 11.1875C19.2881 11.3653 19.2881 11.3653 19.4659 11.1875Z" fill="black"/>
<path opacity="0.016" fill-rule="evenodd" clip-rule="evenodd" d="M5.59919 11.4541C5.77697 11.4541 5.95473 11.4541 6.13252 11.4541C5.94025 11.9559 5.67359 12.0448 5.33252 11.7208C5.51031 11.7208 5.59919 11.6319 5.59919 11.4541Z" fill="black"/>
<path opacity="0.016" fill-rule="evenodd" clip-rule="evenodd" d="M30.1327 12.2542C29.9548 11.8987 29.9548 11.8987 30.1327 12.2542Z" fill="black"/>
<path opacity="0.016" fill-rule="evenodd" clip-rule="evenodd" d="M5.06592 12.2542C5.42146 12.4319 5.42146 12.4319 5.06592 12.2542Z" fill="black"/>
<path opacity="0.016" fill-rule="evenodd" clip-rule="evenodd" d="M26.1327 12.2542C26.0268 12.5275 25.8492 12.572 25.5994 12.3875C25.7578 12.2637 25.9356 12.2193 26.1327 12.2542Z" fill="black"/>
<path opacity="0.016" fill-rule="evenodd" clip-rule="evenodd" d="M30.1326 12.2542C30.488 12.4319 30.488 12.4319 30.1326 12.2542Z" fill="black"/>
<path opacity="0.016" fill-rule="evenodd" clip-rule="evenodd" d="M4.79932 12.5208C4.8882 12.5208 4.9771 12.5208 5.06598 12.5208C5.11174 12.7852 5.02284 12.963 4.79932 13.0541C4.79932 12.8763 4.79932 12.6985 4.79932 12.5208Z" fill="black"/>
<path opacity="0.016" fill-rule="evenodd" clip-rule="evenodd" d="M17.5994 12.5208C17.9549 12.6985 17.9549 12.6985 17.5994 12.5208Z" fill="black"/>
<path opacity="0.016" fill-rule="evenodd" clip-rule="evenodd" d="M22.1326 12.5208C22.4881 12.6985 22.4881 12.6985 22.1326 12.5208Z" fill="black"/>
<path opacity="0.016" fill-rule="evenodd" clip-rule="evenodd" d="M1.33257 12.7874C1.60591 12.8931 1.65036 13.0709 1.46591 13.3207C1.34209 13.1622 1.29764 12.9844 1.33257 12.7874Z" fill="black"/>
<path opacity="0.016" fill-rule="evenodd" clip-rule="evenodd" d="M21.5992 12.7874C21.777 12.7874 21.9547 12.7874 22.1325 12.7874C21.9403 13.2892 21.6736 13.3781 21.3325 13.054C21.5103 13.054 21.5992 12.9651 21.5992 12.7874Z" fill="black"/>
<path opacity="0.016" fill-rule="evenodd" clip-rule="evenodd" d="M30.3992 12.7874C30.7546 12.9651 30.7546 12.9651 30.3992 12.7874Z" fill="black"/>
<path opacity="0.016" fill-rule="evenodd" clip-rule="evenodd" d="M4.79936 13.0542C4.62157 13.232 4.62157 13.232 4.79936 13.0542Z" fill="black"/>
<path opacity="0.016" fill-rule="evenodd" clip-rule="evenodd" d="M17.866 13.0542C18.2215 13.232 18.2215 13.232 17.866 13.0542Z" fill="black"/>
<path opacity="0.016" fill-rule="evenodd" clip-rule="evenodd" d="M15.9993 13.3208C15.8215 13.4986 15.8215 13.4986 15.9993 13.3208Z" fill="black"/>
<path opacity="0.016" fill-rule="evenodd" clip-rule="evenodd" d="M16.7993 13.3208C17.1549 13.4986 17.1549 13.4986 16.7993 13.3208Z" fill="black"/>
<path opacity="0.016" fill-rule="evenodd" clip-rule="evenodd" d="M30.666 13.3208C31.0215 13.4986 31.0215 13.4986 30.666 13.3208Z" fill="black"/>
<path opacity="0.016" fill-rule="evenodd" clip-rule="evenodd" d="M4.26592 13.5874C4.53926 13.6932 4.58371 13.8709 4.39926 14.1207C4.27544 13.9622 4.23099 13.7844 4.26592 13.5874Z" fill="black"/>
<path opacity="0.016" fill-rule="evenodd" clip-rule="evenodd" d="M17.5994 13.5874C17.9549 13.7652 17.9549 13.7652 17.5994 13.5874Z" fill="black"/>
<path opacity="0.016" fill-rule="evenodd" clip-rule="evenodd" d="M21.0659 13.5874C21.4215 13.7652 21.4215 13.7652 21.0659 13.5874Z" fill="black"/>
<path opacity="0.016" fill-rule="evenodd" clip-rule="evenodd" d="M1.06597 13.854C1.33931 13.9598 1.38376 14.1375 1.19931 14.3873C1.07549 14.2288 1.03104 14.051 1.06597 13.854Z" fill="black"/>
<path opacity="0.016" fill-rule="evenodd" clip-rule="evenodd" d="M17.5993 13.854C17.6342 14.051 17.5898 14.2288 17.466 14.3873C17.2815 14.1375 17.326 13.9598 17.5993 13.854Z" fill="black"/>
<path opacity="0.016" fill-rule="evenodd" clip-rule="evenodd" d="M20.7993 13.854C20.8882 13.854 20.9771 13.854 21.066 13.854C21.0166 14.0327 20.9277 14.0327 20.7993 13.854Z" fill="black"/>
<path opacity="0.016" fill-rule="evenodd" clip-rule="evenodd" d="M27.9992 13.854C28.0342 14.051 27.9896 14.2288 27.8659 14.3873C27.6814 14.1375 27.7259 13.9598 27.9992 13.854Z" fill="black"/>
<path opacity="0.016" fill-rule="evenodd" clip-rule="evenodd" d="M30.9325 13.854C31.2187 14.0542 31.2632 14.3208 31.0659 14.654C30.9371 14.4012 30.8928 14.1345 30.9325 13.854Z" fill="black"/>
<path opacity="0.016" fill-rule="evenodd" clip-rule="evenodd" d="M20.5327 14.1208C20.6216 14.1208 20.7105 14.1208 20.7994 14.1208C20.8451 14.3853 20.7562 14.5631 20.5327 14.6542C20.5327 14.4764 20.5327 14.2986 20.5327 14.1208Z" fill="black"/>
<path opacity="0.016" fill-rule="evenodd" clip-rule="evenodd" d="M3.99932 14.3875C4.27266 14.4932 4.31711 14.671 4.13266 14.9208C4.00884 14.7623 3.96439 14.5845 3.99932 14.3875Z" fill="black"/>
<path opacity="0.016" fill-rule="evenodd" clip-rule="evenodd" d="M20.2659 14.6541C20.3547 14.6541 20.4437 14.6541 20.5325 14.6541C20.5783 14.9185 20.4894 15.0963 20.2659 15.1874C20.2659 15.0096 20.2659 14.8318 20.2659 14.6541Z" fill="black"/>
<path opacity="0.016" fill-rule="evenodd" clip-rule="evenodd" d="M27.9993 14.6541C28.3036 15.4914 28.3481 16.3803 28.1326 17.3207C27.9998 16.4362 27.9553 15.5474 27.9993 14.6541Z" fill="black"/>
<path opacity="0.016" fill-rule="evenodd" clip-rule="evenodd" d="M1.06594 17.0542C0.76351 16.3965 0.719084 15.6854 0.932604 14.9209C1.06524 15.6265 1.1097 16.3376 1.06594 17.0542Z" fill="black"/>
<path opacity="0.016" fill-rule="evenodd" clip-rule="evenodd" d="M31.1993 14.9209C31.5027 15.6685 31.5473 16.4685 31.3326 17.3209C31.1998 16.5258 31.1553 15.7258 31.1993 14.9209Z" fill="black"/>
<path opacity="0.016" fill-rule="evenodd" clip-rule="evenodd" d="M19.9993 15.1875C20.0881 15.1875 20.1771 15.1875 20.2659 15.1875C20.1771 15.8986 20.0881 15.8986 19.9993 15.1875Z" fill="black"/>
<path opacity="0.016" fill-rule="evenodd" clip-rule="evenodd" d="M19.7327 16.5209C19.6978 16.3238 19.7422 16.1461 19.8661 15.9875C20.0505 16.2374 20.0061 16.4151 19.7327 16.5209Z" fill="black"/>
<path opacity="0.016" fill-rule="evenodd" clip-rule="evenodd" d="M19.7327 16.5208C19.7784 16.7852 19.6895 16.963 19.466 17.0541C19.4202 16.7897 19.5092 16.6119 19.7327 16.5208Z" fill="black"/>
<path opacity="0.016" fill-rule="evenodd" clip-rule="evenodd" d="M3.99924 17.8542C3.95938 17.5737 4.00383 17.307 4.13258 17.0542C4.32994 17.3874 4.28551 17.654 3.99924 17.8542Z" fill="black"/>
<path opacity="0.016" fill-rule="evenodd" clip-rule="evenodd" d="M15.9993 17.0542C16.3548 17.232 16.3548 17.232 15.9993 17.0542Z" fill="black"/>
<path opacity="0.016" fill-rule="evenodd" clip-rule="evenodd" d="M19.1992 17.0542C19.2881 17.0542 19.377 17.0542 19.4659 17.0542C19.4165 17.2329 19.3276 17.2329 19.1992 17.0542Z" fill="black"/>
<path opacity="0.016" fill-rule="evenodd" clip-rule="evenodd" d="M1.06589 17.5874C1.35216 17.7876 1.39659 18.0542 1.19923 18.3874C1.07048 18.1346 1.02603 17.8679 1.06589 17.5874Z" fill="black"/>
<path opacity="0.016" fill-rule="evenodd" clip-rule="evenodd" d="M15.7327 17.5874C16.0882 17.7652 16.0882 17.7652 15.7327 17.5874Z" fill="black"/>
<path opacity="0.016" fill-rule="evenodd" clip-rule="evenodd" d="M18.9326 17.5874C19.2882 17.7652 19.2882 17.7652 18.9326 17.5874Z" fill="black"/>
<path opacity="0.016" fill-rule="evenodd" clip-rule="evenodd" d="M30.9327 17.5874C31.206 17.6932 31.2505 17.8709 31.066 18.1207C30.9423 17.9622 30.8977 17.7844 30.9327 17.5874Z" fill="black"/>
<path opacity="0.016" fill-rule="evenodd" clip-rule="evenodd" d="M15.4658 18.1208C15.8214 18.2986 15.8214 18.2986 15.4658 18.1208Z" fill="black"/>
<path opacity="0.016" fill-rule="evenodd" clip-rule="evenodd" d="M18.666 18.3875C19.0216 18.5652 19.0216 18.5652 18.666 18.3875Z" fill="black"/>
<path opacity="0.016" fill-rule="evenodd" clip-rule="evenodd" d="M30.666 18.3875C31.0215 18.5652 31.0215 18.5652 30.666 18.3875Z" fill="black"/>
<path opacity="0.016" fill-rule="evenodd" clip-rule="evenodd" d="M4.79938 19.1874C4.7105 19.1874 4.62159 19.1874 4.53271 19.1874C4.62159 18.4763 4.7105 18.4763 4.79938 19.1874Z" fill="black"/>
<path opacity="0.016" fill-rule="evenodd" clip-rule="evenodd" d="M15.4659 19.1874C15.377 19.1874 15.2881 19.1874 15.1992 19.1874C15.2881 18.4763 15.377 18.4763 15.4659 19.1874Z" fill="black"/>
<path opacity="0.016" fill-rule="evenodd" clip-rule="evenodd" d="M18.3992 18.9209C18.7547 19.0987 18.7547 19.0987 18.3992 18.9209Z" fill="black"/>
<path opacity="0.016" fill-rule="evenodd" clip-rule="evenodd" d="M21.3325 18.9209C21.6881 19.0987 21.6881 19.0987 21.3325 18.9209Z" fill="black"/>
<path opacity="0.016" fill-rule="evenodd" clip-rule="evenodd" d="M30.3992 18.9209C30.7546 19.0987 30.7546 19.2764 30.3992 19.4542C30.3992 19.2764 30.3992 19.0987 30.3992 18.9209Z" fill="black"/>
<path opacity="0.016" fill-rule="evenodd" clip-rule="evenodd" d="M4.79932 19.1875C5.15486 19.3653 5.15486 19.3653 4.79932 19.1875Z" fill="black"/>
<path opacity="0.016" fill-rule="evenodd" clip-rule="evenodd" d="M15.1993 19.1875C15.0215 19.3653 15.0215 19.3653 15.1993 19.1875Z" fill="black"/>
<path opacity="0.016" fill-rule="evenodd" clip-rule="evenodd" d="M19.1993 19.4542C19.0215 19.0986 19.0215 19.0986 19.1993 19.4542Z" fill="black"/>
<path opacity="0.016" fill-rule="evenodd" clip-rule="evenodd" d="M22.1326 19.4542C21.9548 19.0986 21.9548 19.0986 22.1326 19.4542Z" fill="black"/>
<path opacity="0.016" fill-rule="evenodd" clip-rule="evenodd" d="M18.1326 19.4541C18.4881 19.6319 18.4881 19.6319 18.1326 19.4541Z" fill="black"/>
<path opacity="0.016" fill-rule="evenodd" clip-rule="evenodd" d="M18.9326 19.4541C18.9725 19.7346 18.928 20.0013 18.7993 20.2541C18.6019 19.9209 18.6464 19.6543 18.9326 19.4541Z" fill="black"/>
<path opacity="0.016" fill-rule="evenodd" clip-rule="evenodd" d="M22.1326 19.7208C22.1326 19.6319 22.1326 19.543 22.1326 19.4541C22.8437 19.543 22.8437 19.6319 22.1326 19.7208Z" fill="black"/>
<path opacity="0.016" fill-rule="evenodd" clip-rule="evenodd" d="M30.1326 19.4541C30.2214 19.4541 30.3104 19.4541 30.3992 19.4541C30.3499 19.6328 30.2608 19.6328 30.1326 19.4541Z" fill="black"/>
<path opacity="0.016" fill-rule="evenodd" clip-rule="evenodd" d="M22.9326 19.9876C23.1329 19.7013 23.3996 19.6569 23.7326 19.8542C23.4798 19.983 23.2132 20.0274 22.9326 19.9876Z" fill="black"/>
<path opacity="0.016" fill-rule="evenodd" clip-rule="evenodd" d="M29.866 19.7207C29.9548 19.7207 30.0438 19.7207 30.1326 19.7207C30.0833 19.8994 29.9942 19.8994 29.866 19.7207Z" fill="black"/>
<path opacity="0.016" fill-rule="evenodd" clip-rule="evenodd" d="M17.866 19.9875C18.2215 20.1653 18.2215 20.1653 17.866 19.9875Z" fill="black"/>
<path opacity="0.016" fill-rule="evenodd" clip-rule="evenodd" d="M29.5994 20.2542C29.9548 20.4319 29.9548 20.4319 29.5994 20.2542Z" fill="black"/>
<path opacity="0.016" fill-rule="evenodd" clip-rule="evenodd" d="M17.5994 20.5208C17.9549 20.6985 17.9549 20.6985 17.5994 20.5208Z" fill="black"/>
<path opacity="0.016" fill-rule="evenodd" clip-rule="evenodd" d="M29.3325 20.5208C29.4213 20.5208 29.5104 20.5208 29.5992 20.5208C29.5499 20.6994 29.4608 20.6994 29.3325 20.5208Z" fill="black"/>
<path opacity="0.016" fill-rule="evenodd" clip-rule="evenodd" d="M2.66605 20.7874C2.48827 20.9651 2.48827 20.9651 2.66605 20.7874Z" fill="black"/>
<path opacity="0.016" fill-rule="evenodd" clip-rule="evenodd" d="M6.13257 20.7874C6.48812 20.9651 6.48812 20.9651 6.13257 20.7874Z" fill="black"/>
<path opacity="0.016" fill-rule="evenodd" clip-rule="evenodd" d="M17.3325 20.7874C17.4214 20.7874 17.5103 20.7874 17.5992 20.7874C17.5498 20.966 17.4609 20.966 17.3325 20.7874Z" fill="black"/>
<path opacity="0.016" fill-rule="evenodd" clip-rule="evenodd" d="M19.4658 20.7874C19.4658 20.8762 19.4658 20.9651 19.4658 21.054C19.2871 20.9257 19.2871 20.8368 19.4658 20.7874Z" fill="black"/>
<path opacity="0.016" fill-rule="evenodd" clip-rule="evenodd" d="M29.0659 20.7874C29.1547 20.7874 29.2438 20.7874 29.3326 20.7874C29.2833 20.966 29.1942 20.966 29.0659 20.7874Z" fill="black"/>
<path opacity="0.016" fill-rule="evenodd" clip-rule="evenodd" d="M6.66602 21.0542C7.02156 21.232 7.02156 21.232 6.66602 21.0542Z" fill="black"/>
<path opacity="0.016" fill-rule="evenodd" clip-rule="evenodd" d="M13.0659 21.0542C13.4215 21.232 13.4215 21.232 13.0659 21.0542Z" fill="black"/>
<path opacity="0.016" fill-rule="evenodd" clip-rule="evenodd" d="M19.4658 21.0542C19.6436 21.0542 19.7325 21.1431 19.7325 21.3209C19.6436 21.232 19.5547 21.1431 19.4658 21.0542Z" fill="black"/>
<path opacity="0.016" fill-rule="evenodd" clip-rule="evenodd" d="M28.7993 21.0542C28.8881 21.0542 28.9772 21.0542 29.066 21.0542C29.0166 21.2329 28.9276 21.2329 28.7993 21.0542Z" fill="black"/>
<path opacity="0.016" fill-rule="evenodd" clip-rule="evenodd" d="M2.66602 21.3208C3.02156 21.4986 3.02156 21.4986 2.66602 21.3208Z" fill="black"/>
<path opacity="0.016" fill-rule="evenodd" clip-rule="evenodd" d="M7.19922 21.5873C7.30498 21.314 7.48274 21.2696 7.73255 21.454C7.57405 21.5778 7.39626 21.6223 7.19922 21.5873Z" fill="black"/>
<path opacity="0.016" fill-rule="evenodd" clip-rule="evenodd" d="M13.0661 21.3208C13.0661 21.4097 13.0661 21.4986 13.0661 21.5875C12.3549 21.4986 12.3549 21.4097 13.0661 21.3208Z" fill="black"/>
<path opacity="0.016" fill-rule="evenodd" clip-rule="evenodd" d="M17.0659 21.3208C17.4215 21.4986 17.4215 21.4986 17.0659 21.3208Z" fill="black"/>
<path opacity="0.016" fill-rule="evenodd" clip-rule="evenodd" d="M19.7327 21.3208C20.0882 21.4986 20.0882 21.4986 19.7327 21.3208Z" fill="black"/>
<path opacity="0.016" fill-rule="evenodd" clip-rule="evenodd" d="M28.5327 21.3208C28.6215 21.3208 28.7106 21.3208 28.7994 21.3208C28.75 21.4995 28.661 21.4995 28.5327 21.3208Z" fill="black"/>
<path opacity="0.016" fill-rule="evenodd" clip-rule="evenodd" d="M11.4658 21.854C11.666 21.5677 11.9326 21.5233 12.2658 21.7207C12.013 21.8494 11.7464 21.8939 11.4658 21.854Z" fill="black"/>
<path opacity="0.016" fill-rule="evenodd" clip-rule="evenodd" d="M16.7993 21.5874C16.8882 21.5874 16.9771 21.5874 17.066 21.5874C17.0166 21.7661 16.9277 21.7661 16.7993 21.5874Z" fill="black"/>
<path opacity="0.016" fill-rule="evenodd" clip-rule="evenodd" d="M20.5325 21.5874C20.5325 21.6763 20.5325 21.7652 20.5325 21.8541C20.3538 21.7257 20.3538 21.6368 20.5325 21.5874Z" fill="black"/>
<path opacity="0.016" fill-rule="evenodd" clip-rule="evenodd" d="M28.5326 21.5874C28.3547 21.7652 28.3547 21.7652 28.5326 21.5874Z" fill="black"/>
<path opacity="0.016" fill-rule="evenodd" clip-rule="evenodd" d="M16.5327 21.854C16.6216 21.854 16.7105 21.854 16.7994 21.854C16.75 22.0327 16.6611 22.0327 16.5327 21.854Z" fill="black"/>
<path opacity="0.016" fill-rule="evenodd" clip-rule="evenodd" d="M20.5327 21.854C20.8883 22.0318 20.8883 22.0318 20.5327 21.854Z" fill="black"/>
<path opacity="0.016" fill-rule="evenodd" clip-rule="evenodd" d="M27.7327 21.854C28.0881 22.0318 28.0881 22.0318 27.7327 21.854Z" fill="black"/>
<path opacity="0.016" fill-rule="evenodd" clip-rule="evenodd" d="M16.2659 22.1208C16.3547 22.1208 16.4437 22.1208 16.5325 22.1208C16.4831 22.2995 16.3942 22.2995 16.2659 22.1208Z" fill="black"/>
<path opacity="0.016" fill-rule="evenodd" clip-rule="evenodd" d="M21.3326 22.1208C21.1548 22.2986 21.1548 22.2986 21.3326 22.1208Z" fill="black"/>
<path opacity="0.016" fill-rule="evenodd" clip-rule="evenodd" d="M27.1992 22.3875C27.1992 22.2986 27.1992 22.2097 27.1992 22.1208C27.3771 22.1208 27.5547 22.1208 27.7326 22.1208C27.6414 22.3444 27.4638 22.4333 27.1992 22.3875Z" fill="black"/>
<path opacity="0.016" fill-rule="evenodd" clip-rule="evenodd" d="M15.9993 22.3875C16.0881 22.3875 16.1771 22.3875 16.2659 22.3875C16.2165 22.5661 16.1276 22.5661 15.9993 22.3875Z" fill="black"/>
<path opacity="0.016" fill-rule="evenodd" clip-rule="evenodd" d="M26.666 22.6541C26.666 22.5652 26.666 22.4763 26.666 22.3875C26.8439 22.3875 27.0215 22.3875 27.1993 22.3875C27.1081 22.611 26.9305 22.6999 26.666 22.6541Z" fill="black"/>
<path opacity="0.016" fill-rule="evenodd" clip-rule="evenodd" d="M15.7327 22.6541C15.8215 22.6541 15.9105 22.6541 15.9993 22.6541C15.9499 22.8327 15.861 22.8327 15.7327 22.6541Z" fill="black"/>
<path opacity="0.016" fill-rule="evenodd" clip-rule="evenodd" d="M22.1326 22.9208C22.2383 22.6475 22.4161 22.603 22.6659 22.7875C22.5074 22.9113 22.3296 22.9558 22.1326 22.9208Z" fill="black"/>
<path opacity="0.016" fill-rule="evenodd" clip-rule="evenodd" d="M25.866 22.9207C26.055 22.6796 26.3217 22.5907 26.666 22.654C26.4769 22.8951 26.2102 22.984 25.866 22.9207Z" fill="black"/>
<path opacity="0.016" fill-rule="evenodd" clip-rule="evenodd" d="M4.53251 22.9209C4.35472 23.0987 4.35472 23.0987 4.53251 22.9209Z" fill="black"/>
<path opacity="0.016" fill-rule="evenodd" clip-rule="evenodd" d="M15.4658 22.9209C15.5547 22.9209 15.6436 22.9209 15.7325 22.9209C15.6831 23.0996 15.5942 23.0996 15.4658 22.9209Z" fill="black"/>
<path opacity="0.016" fill-rule="evenodd" clip-rule="evenodd" d="M25.8659 22.9207C25.0286 23.2249 24.1398 23.2694 23.1992 23.054C24.0838 22.9212 24.9726 22.8767 25.8659 22.9207Z" fill="black"/>
<path opacity="0.016" fill-rule="evenodd" clip-rule="evenodd" d="M15.4659 23.1875C15.2881 23.3653 15.2881 23.3653 15.4659 23.1875Z" fill="black"/>
<path opacity="0.016" fill-rule="evenodd" clip-rule="evenodd" d="M14.666 23.4541C15.0216 23.6319 15.0216 23.6319 14.666 23.4541Z" fill="black"/>
<path opacity="0.016" fill-rule="evenodd" clip-rule="evenodd" d="M14.6661 23.7207C14.4883 23.8985 14.4883 23.8985 14.6661 23.7207Z" fill="black"/>
<path opacity="0.016" fill-rule="evenodd" clip-rule="evenodd" d="M13.866 23.9875C14.2215 24.1653 14.2215 24.1653 13.866 23.9875Z" fill="black"/>
<path opacity="0.016" fill-rule="evenodd" clip-rule="evenodd" d="M13.0659 24.5208C13.0659 24.4319 13.0659 24.343 13.0659 24.2542C13.777 24.343 13.777 24.4319 13.0659 24.5208Z" fill="black"/>
<path opacity="0.016" fill-rule="evenodd" clip-rule="evenodd" d="M7.73262 24.5208C7.73262 24.6096 7.73262 24.6985 7.73262 24.7874C6.66595 24.6985 6.66595 24.6096 7.73262 24.5208Z" fill="black"/>
<path opacity="0.016" fill-rule="evenodd" clip-rule="evenodd" d="M13.066 24.5208C12.9603 24.7941 12.7825 24.8386 12.5327 24.6541C12.6912 24.5303 12.869 24.4859 13.066 24.5208Z" fill="black"/>
<path opacity="0.016" fill-rule="evenodd" clip-rule="evenodd" d="M7.73267 24.7874C8.09891 24.7456 8.45448 24.7901 8.79933 24.9207C8.38181 25.1247 8.02624 25.0803 7.73267 24.7874Z" fill="black"/>
</svg>
