<svg width="32" height="32" viewBox="0 0 32 32" fill="none" xmlns="http://www.w3.org/2000/svg">
<mask id="mask0_16_1541" style="mask-type:luminance" maskUnits="userSpaceOnUse" x="0" y="4" width="32" height="25">
<path d="M31.6033 4.09912H0.396729V28.033H31.6033V4.09912Z" fill="white"/>
</mask>
<g mask="url(#mask0_16_1541)">
<path opacity="0.999" fill-rule="evenodd" clip-rule="evenodd" d="M15.8017 4.16523C14.5235 5.53162 13.2012 6.85393 11.8348 8.13217C10.6006 6.85393 9.36648 5.5757 8.13232 4.29746C10.6658 4.16563 13.2223 4.12155 15.8017 4.16523Z" fill="#48ACEC"/>
<path opacity="0.999" fill-rule="evenodd" clip-rule="evenodd" d="M15.9338 4.16524C18.5573 4.12155 21.1579 4.16562 23.7355 4.29747C22.4944 5.67106 21.1721 6.9493 19.7685 8.13218C18.4903 6.80987 17.2121 5.48755 15.9338 4.16524Z" fill="#48ACEC"/>
<path opacity="0.999" fill-rule="evenodd" clip-rule="evenodd" d="M8.13222 4.29749C9.36637 5.57573 10.6005 6.85395 11.8347 8.1322C10.5565 9.45451 9.27823 10.7768 7.99999 12.0991C5.48759 12.0991 2.97519 12.0991 0.462798 12.0991C0.462798 12.2314 0.462798 12.3636 0.462798 12.4958C0.418721 12.4958 0.374643 12.4958 0.330566 12.4958C0.330566 12.2314 0.330566 11.9669 0.330566 11.7024C2.77226 9.32692 5.1965 6.92471 7.60329 4.49583C7.76792 4.39118 7.94423 4.32507 8.13222 4.29749Z" fill="#41A5E5"/>
<path fill-rule="evenodd" clip-rule="evenodd" d="M15.8017 4.16528C15.8457 4.16528 15.8899 4.16528 15.9339 4.16528C17.2122 5.4876 18.4903 6.80991 19.7686 8.13223C19.7686 8.1763 19.7686 8.22038 19.7686 8.26446C18.5345 9.5427 17.3002 10.8209 16.0661 12.0992C16.0221 12.0992 15.9779 12.0992 15.9339 12.0992C15.8899 12.0992 15.8457 12.0992 15.8017 12.0992C13.2011 12.0992 10.6006 12.0992 8 12.0992C9.27824 10.7769 10.5565 9.45454 11.8347 8.13223C13.2011 6.85398 14.5234 5.53167 15.8017 4.16528Z" fill="#54B8F8"/>
<path opacity="0.999" fill-rule="evenodd" clip-rule="evenodd" d="M23.7355 4.29749C23.9235 4.32507 24.0998 4.39118 24.2644 4.49583C26.6712 6.92471 29.0955 9.32692 31.5371 11.7024C31.5371 11.8347 31.5371 11.9669 31.5371 12.0991C29.6314 12.0574 27.7362 12.1015 25.8512 12.2314C25.4196 11.8238 24.9568 11.4271 24.4628 11.0413C24.2644 10.7328 24.0661 10.4242 23.8677 10.1157C23.6468 10.5113 23.3823 10.8639 23.0743 11.1735C21.9725 10.2038 20.8704 9.23412 19.7686 8.26443C19.7686 8.22035 19.7686 8.17627 19.7686 8.1322C21.1721 6.94932 22.4944 5.67108 23.7355 4.29749Z" fill="#79CAFE"/>
<path fill-rule="evenodd" clip-rule="evenodd" d="M19.7686 8.2644C20.8705 9.2341 21.9725 10.2038 23.0744 11.1735C22.7156 11.5326 22.3189 11.8411 21.8843 12.0991C19.9449 12.0991 18.0056 12.0991 16.0662 12.0991C17.3003 10.8209 18.5345 9.54265 19.7686 8.2644Z" fill="#8FD3FF"/>
<path fill-rule="evenodd" clip-rule="evenodd" d="M25.8512 12.2313C24.9394 12.5699 24.2782 13.187 23.8677 14.0825C23.6769 13.7419 23.4565 13.4333 23.2066 13.1569C22.8141 12.7408 22.3733 12.3881 21.8843 12.0991C22.3188 11.8411 22.7155 11.5325 23.0744 11.1735C23.3823 10.8639 23.6468 10.5113 23.8677 10.1156C24.0661 10.4241 24.2644 10.7327 24.4628 11.0412C24.9568 11.427 25.4196 11.8237 25.8512 12.2313Z" fill="#FDFEFE"/>
<path fill-rule="evenodd" clip-rule="evenodd" d="M8.00008 12.0991C8.7791 13.8776 9.66064 15.5966 10.6447 17.2561C12.4106 15.5784 14.1295 13.8594 15.8017 12.0991C15.8458 12.0991 15.8899 12.0991 15.934 12.0991C17.6042 13.8356 19.3012 15.5546 21.0249 17.2561C21.0862 17.3347 21.1083 17.4229 21.091 17.5206C20.7508 18.4218 20.31 19.2593 19.7687 20.033C17.1681 20.033 14.5676 20.033 11.967 20.033C11.5396 19.1341 11.0768 18.2526 10.5786 17.3884C9.69229 18.2525 8.83278 19.1341 8.00008 20.033C5.44361 17.5646 2.93121 15.0522 0.462891 12.4958C0.462891 12.3636 0.462891 12.2314 0.462891 12.0991C2.97529 12.0991 5.48768 12.0991 8.00008 12.0991Z" fill="#2C90D0"/>
<path fill-rule="evenodd" clip-rule="evenodd" d="M8 12.0991C10.6006 12.0991 13.2011 12.0991 15.8017 12.0991C14.1295 13.8594 12.4105 15.5784 10.6446 17.2561C9.66056 15.5966 8.77901 13.8776 8 12.0991Z" fill="#3A9EDE"/>
<path fill-rule="evenodd" clip-rule="evenodd" d="M15.9338 12.0991C15.9779 12.0991 16.022 12.0991 16.0661 12.0991C18.0055 12.0991 19.9448 12.0991 21.8843 12.0991C22.3732 12.3882 22.8141 12.7408 23.2066 13.157C22.5326 14.6369 21.8274 16.0915 21.0909 17.5206C21.1082 17.4229 21.0861 17.3347 21.0247 17.2561C19.3011 15.5546 17.6041 13.8356 15.9338 12.0991Z" fill="#3B9FDF"/>
<path opacity="0.999" fill-rule="evenodd" clip-rule="evenodd" d="M31.5371 12.0991C31.5371 12.2313 31.5371 12.3635 31.5371 12.4958C26.4241 17.5646 21.3112 22.6335 16.1982 27.7024C17.3875 25.1474 18.5776 22.5908 19.7685 20.033C20.3098 19.2593 20.7506 18.4217 21.0908 17.5206C21.8273 16.0914 22.5325 14.6369 23.2065 13.1569C23.4564 13.4333 23.6769 13.7419 23.8677 14.0825C24.2781 13.187 24.9393 12.5699 25.8511 12.2313C27.7361 12.1014 29.6314 12.0574 31.5371 12.0991Z" fill="#56BAF9"/>
<path fill-rule="evenodd" clip-rule="evenodd" d="M11.9669 20.0331C10.6446 20.0331 9.32231 20.0331 8 20.0331C8.8327 19.1341 9.6922 18.2526 10.5785 17.3884C11.0767 18.2527 11.5395 19.1341 11.9669 20.0331Z" fill="#1A7EBE"/>
<path fill-rule="evenodd" clip-rule="evenodd" d="M8 20.033C9.32231 20.033 10.6446 20.033 11.9669 20.033C13.1994 22.4978 14.4335 24.9661 15.6694 27.4379C15.653 27.5182 15.609 27.5622 15.5372 27.5701C12.9807 25.1018 10.4683 22.5894 8 20.033Z" fill="#2D91D1"/>
<path fill-rule="evenodd" clip-rule="evenodd" d="M11.967 20.033C14.5676 20.033 17.1681 20.033 19.7687 20.033C18.5778 22.5908 17.3877 25.1474 16.1984 27.7024C15.9452 27.7399 15.7249 27.6959 15.5373 27.5701C15.6091 27.5622 15.6531 27.5182 15.6695 27.4379C14.4336 24.9661 13.1995 22.4978 11.967 20.033Z" fill="#3CA0E0"/>
</g>
</svg>
