<svg width="32" height="32" viewBox="0 0 32 32" fill="none" xmlns="http://www.w3.org/2000/svg">
<g clip-path="url(#clip0_16_1612)">
<path fill-rule="evenodd" clip-rule="evenodd" d="M12.1429 0.71434C12.7049 0.645931 13.2287 0.741171 13.7143 1.00005C14.3447 3.22454 15.059 5.41503 15.8572 7.57148C16.6621 5.4012 17.424 3.21071 18.1429 1.00005C18.5844 0.728085 19.0606 0.632848 19.5715 0.71434C19.3325 3.39277 19.0943 6.05943 18.8572 8.71434C20.3747 6.76797 21.9461 4.8632 23.5715 3.00005C24.1605 2.63979 24.6367 2.78265 25 3.42863C23.8346 5.75994 22.5965 8.04565 21.2857 10.2858C23.5952 9.15443 25.9285 7.96394 28.2857 6.71434C28.928 7.06763 29.0709 7.5438 28.7143 8.14291C26.8512 9.76828 24.9464 11.3397 23 12.8572C25.2256 12.6417 27.4637 12.4036 29.7143 12.1429C30.9309 11.8837 31.4546 12.3599 31.2857 13.5715C28.6817 14.1512 26.1104 14.8655 23.5715 15.7143C26.0056 16.6096 28.4818 17.4191 31 18.1429C31.1577 18.5722 31.1577 19.0484 31 19.5715C28.3367 19.2003 25.6701 18.9622 23 18.8572C25.1018 20.4851 27.1018 22.1993 29 24.0001C28.8772 24.4098 28.6389 24.7431 28.2857 25.0001C26.0132 23.6022 23.6799 22.4118 21.2857 21.4286C22.5601 23.6437 23.7982 25.8818 25 28.1429C24.7581 28.5271 24.4248 28.8129 24 29.0001C22.381 27.0953 20.7619 25.1905 19.1429 23.2858C19.1364 25.8616 19.2792 28.433 19.5715 31.0001C19.0953 31.0001 18.6191 31.0001 18.1429 31.0001C17.5535 28.4699 16.7915 25.9937 15.8572 23.5715C15.0558 25.8228 14.3415 28.1085 13.7143 30.4286C13.3141 30.9121 12.7903 31.1026 12.1429 31.0001C12.3258 28.3153 12.5639 25.6486 12.8572 23.0001C11.1905 25.0001 9.52383 27.0001 7.85718 29.0001C7.3628 28.8498 6.98183 28.5642 6.71432 28.1429C7.91618 25.8818 9.15426 23.6437 10.4286 21.4286C8.03446 22.4118 5.70112 23.6022 3.4286 25.0001C3.119 24.6672 2.88092 24.2862 2.71432 23.8572C4.66549 22.1452 6.66549 20.4785 8.71432 18.8572C6.03515 18.9062 3.36849 19.1443 0.714318 19.5715C0.714318 19.0001 0.714318 18.4286 0.714318 17.8572C3.16975 17.3628 5.55069 16.6485 7.85718 15.7143C5.57146 15.0477 3.28575 14.381 1.00003 13.7143C0.74115 13.2288 0.64591 12.705 0.714318 12.1429C3.47918 12.4499 6.24106 12.6881 9.00003 12.8572C6.7346 11.2962 4.63938 9.53425 2.71432 7.57148C2.9048 7.19054 3.19052 6.90483 3.57146 6.71434C5.83255 7.9162 8.07063 9.15428 10.2857 10.4286C9.3026 8.03448 8.11215 5.70114 6.71432 3.42863C6.97123 3.07543 7.30458 2.83732 7.71432 2.71434C9.51503 4.61257 11.2293 6.61257 12.8572 8.71434C12.6559 6.05197 12.4179 3.38531 12.1429 0.71434Z" fill="#C22523"/>
</g>
<defs>
<clipPath id="clip0_16_1612">
<rect width="32" height="32" fill="white"/>
</clipPath>
</defs>
</svg>
