<svg width="32" height="32" viewBox="0 0 32 32" fill="none" xmlns="http://www.w3.org/2000/svg">
<g clip-path="url(#clip0_19_59)">
<path fill-rule="evenodd" clip-rule="evenodd" d="M14.6666 3.57892C15.7894 3.57892 16.9123 3.57892 18.0351 3.57892C18.0126 4.21674 18.0126 4.82493 18.0351 5.40348C16.8178 5.38013 15.6014 5.40351 14.3859 5.47366C14.3079 5.52735 14.2612 5.59753 14.2456 5.68418C13.9774 5.69461 13.8136 5.83496 13.7544 6.10523C13.7307 8.09439 13.6605 10.0593 13.5438 12C13.5672 10.0813 13.5438 8.16314 13.4737 6.24559C13.0828 6.04984 12.6851 5.86271 12.2807 5.68418C12.1073 5.80205 11.967 5.9424 11.8596 6.10523C12.1389 4.51528 13.0746 3.67318 14.6666 3.57892Z" fill="#7042F3"/>
<path fill-rule="evenodd" clip-rule="evenodd" d="M14.6666 3.57892C17.3093 3.41579 19.976 3.39241 22.6666 3.50874C23.1083 3.63234 23.5294 3.79607 23.9298 3.99997C24.0398 4.82055 23.7124 5.33516 22.9473 5.54383C22.8537 5.54383 22.7602 5.54383 22.6666 5.54383C21.1479 5.40424 19.604 5.35746 18.035 5.40348C18.0126 4.82493 18.0126 4.21674 18.035 3.57892C16.9122 3.57892 15.7894 3.57892 14.6666 3.57892Z" fill="#5059F1"/>
<path fill-rule="evenodd" clip-rule="evenodd" d="M18.0351 5.40353C19.6041 5.35751 21.1479 5.40429 22.6667 5.54388C19.8532 5.50044 17.0462 5.54722 14.2456 5.68423C14.2612 5.59758 14.3079 5.5274 14.386 5.47371C15.6014 5.40356 16.8178 5.38018 18.0351 5.40353Z" fill="#ACABC3"/>
<path fill-rule="evenodd" clip-rule="evenodd" d="M9.75439 8.21055C10.193 8.07309 10.6608 8.0263 11.1579 8.0702C11.2027 8.75277 11.156 9.40774 11.0176 10.0351C11.0176 9.42693 11.0176 8.81873 11.0176 8.21055C10.5965 8.21055 10.1754 8.21055 9.75439 8.21055Z" fill="#7396BF"/>
<path fill-rule="evenodd" clip-rule="evenodd" d="M20.7018 8.21051C20.872 8.81103 20.872 9.37243 20.7018 9.89472C18.5965 9.89472 16.4912 9.89472 14.386 9.89472C14.386 9.33332 14.386 8.77191 14.386 8.21051C16.4912 8.21051 18.5965 8.21051 20.7018 8.21051Z" fill="#3575F3"/>
<path fill-rule="evenodd" clip-rule="evenodd" d="M23.9299 4C25.7364 5.45197 25.947 7.13618 24.5614 9.05263C24.1094 9.50087 23.5714 9.78157 22.9474 9.89474C22.1989 9.89474 21.4503 9.89474 20.7018 9.89474C20.872 9.37245 20.872 8.81105 20.7018 8.21053C21.3379 8.25519 21.9461 8.20841 22.5263 8.07018C23.8296 7.4033 23.97 6.56119 22.9474 5.54386C23.7124 5.33519 24.0399 4.82058 23.9299 4Z" fill="#3A6BF1"/>
<path fill-rule="evenodd" clip-rule="evenodd" d="M9.75433 8.21051C10.1754 8.21051 10.5964 8.21051 11.0175 8.21051C11.0175 8.81869 11.0175 9.42689 11.0175 10.0351C10.2691 9.86739 9.70766 10.1013 9.33328 10.7368C8.84928 10.5299 8.35805 10.3427 7.85959 10.1754C7.8144 9.86821 7.88457 9.58751 8.07012 9.33332C8.29486 9.00306 8.57556 8.69896 8.91222 8.42104C9.17121 8.26272 9.45191 8.19254 9.75433 8.21051Z" fill="#3890ED"/>
<path fill-rule="evenodd" clip-rule="evenodd" d="M13.5439 12C12.9357 12 12.3275 12 11.7194 12C11.6732 10.0103 11.7199 8.04538 11.8597 6.10526C11.9671 5.94242 12.1074 5.80207 12.2808 5.6842C12.6852 5.86273 13.0829 6.04986 13.4737 6.24561C13.5439 8.16317 13.5673 10.0813 13.5439 12Z" fill="#8D2BF6"/>
<path fill-rule="evenodd" clip-rule="evenodd" d="M22.5263 8.07019C21.9461 8.20842 21.3378 8.2552 20.7017 8.21054C18.5965 8.21054 16.4912 8.21054 14.386 8.21054C14.386 8.77194 14.386 9.33335 14.386 9.89475C16.4912 9.89475 18.5965 9.89475 20.7017 9.89475C21.4502 9.89475 22.1989 9.89475 22.9474 9.89475C20.0711 10.0347 17.1705 10.0815 14.2456 10.0351C14.2456 9.38013 14.2456 8.72517 14.2456 8.07019C17.0059 8.07019 19.766 8.07019 22.5263 8.07019Z" fill="#517BD0"/>
<path fill-rule="evenodd" clip-rule="evenodd" d="M8.07018 9.33331C7.88464 9.5875 7.81446 9.8682 7.85966 10.1754C8.35811 10.3427 8.84934 10.5299 9.33334 10.7368C9.05376 11.5354 9.28767 12.1436 10.0351 12.5614C10.0351 12.6082 10.0351 12.655 10.0351 12.7017C9.94521 13.174 9.82825 13.6418 9.68422 14.1052C9.49389 14.2288 9.28336 14.2756 9.05264 14.2456C8.69387 14.0992 8.38979 13.8652 8.14036 13.5438C7.39223 12.469 7.20509 11.2994 7.57895 10.0351C7.61029 9.70092 7.77404 9.467 8.07018 9.33331Z" fill="#389CEC"/>
<path fill-rule="evenodd" clip-rule="evenodd" d="M10.0351 12.7018C11.5359 12.6725 13.033 12.7192 14.5263 12.8421C14.5255 13.4223 14.4787 13.9603 14.3859 14.4561C12.8896 14.5263 11.3925 14.5498 9.89472 14.5263C9.58628 14.4737 9.30558 14.3801 9.05261 14.2456C9.28334 14.2757 9.49386 14.2288 9.68419 14.1053C9.82822 13.6419 9.94519 13.174 10.0351 12.7018Z" fill="#2FAAED"/>
<path fill-rule="evenodd" clip-rule="evenodd" d="M10.0351 12.7017C10.0351 12.655 10.0351 12.6082 10.0351 12.5614C13.2635 12.538 16.4915 12.5614 19.7193 12.6316C20.1881 12.7724 20.6092 12.9829 20.9825 13.2631C20.797 13.287 20.6332 13.2402 20.4913 13.1228C20.3094 13.6072 20.0988 14.0751 19.8597 14.5263C19.957 14.6692 20.0504 14.8095 20.1404 14.9473C19.9641 14.9528 19.8238 14.8826 19.7193 14.7368C16.4205 14.7132 13.1457 14.6431 9.89478 14.5263C11.3926 14.5497 12.8897 14.5263 14.386 14.4561C14.4788 13.9603 14.5255 13.4223 14.5264 12.8421C13.033 12.7192 11.536 12.6724 10.0351 12.7017Z" fill="#48C1E1"/>
<path fill-rule="evenodd" clip-rule="evenodd" d="M20.9824 13.2632C21.245 13.3135 21.4555 13.4539 21.614 13.6842C22.6602 15.2486 22.6133 16.7924 21.4737 18.3158C21.3591 18.5015 21.1953 18.5949 20.9824 18.5965C20.9837 18.3427 20.9135 18.1088 20.7719 17.8947C20.5426 17.5667 20.2853 17.286 20 17.0526C20.4774 16.3709 20.5242 15.6692 20.1403 14.9474C20.0504 14.8095 19.9569 14.6692 19.8596 14.5263C20.0988 14.0751 20.3093 13.6072 20.4912 13.1228C20.6331 13.2402 20.7969 13.287 20.9824 13.2632Z" fill="#39CEE4"/>
<path fill-rule="evenodd" clip-rule="evenodd" d="M10.035 17.3333C10.3786 17.1968 10.7529 17.15 11.1578 17.193C11.1578 17.8947 11.1578 18.5965 11.1578 19.2982C10.7836 19.2982 10.4093 19.2982 10.035 19.2982C10.3308 19.1624 10.6583 19.1155 11.0175 19.1579C11.0175 18.5497 11.0175 17.9415 11.0175 17.3333C10.69 17.3333 10.3625 17.3333 10.035 17.3333Z" fill="#8D98BD"/>
<path fill-rule="evenodd" clip-rule="evenodd" d="M15.5088 17.3333C15.5791 17.9864 15.4855 18.5945 15.2281 19.1579C14.9006 19.1579 14.573 19.1579 14.2456 19.1579C14.2456 18.5497 14.2456 17.9415 14.2456 17.3333C14.6667 17.3333 15.0877 17.3333 15.5088 17.3333Z" fill="#4EA2EC"/>
<path fill-rule="evenodd" clip-rule="evenodd" d="M15.5087 17.3333C16.1637 17.3333 16.8186 17.3333 17.4736 17.3333C17.544 17.9864 17.4503 18.5945 17.1929 19.1579C16.5379 19.1579 15.883 19.1579 15.228 19.1579C15.4854 18.5945 15.579 17.9864 15.5087 17.3333Z" fill="#44AFEC"/>
<path fill-rule="evenodd" clip-rule="evenodd" d="M20 17.0526C20.2853 17.286 20.5426 17.5667 20.7719 17.8947C20.9136 18.1088 20.9837 18.3427 20.9825 18.5965C20.6192 18.8947 20.1982 19.0818 19.7193 19.1579C18.8772 19.1579 18.0351 19.1579 17.193 19.1579C17.4504 18.5945 17.544 17.9864 17.4737 17.3333C18.1562 17.3781 18.8112 17.3313 19.4386 17.193C19.6434 17.2024 19.8305 17.1556 20 17.0526Z" fill="#39C2E9"/>
<path fill-rule="evenodd" clip-rule="evenodd" d="M13.5438 15.3684C13.5438 18.5965 13.5438 21.8245 13.5438 25.0526C12.9824 25.0526 12.421 25.0526 11.8596 25.0526C11.8596 21.8245 11.8596 18.5965 11.8596 15.3684C12.421 15.3684 12.9824 15.3684 13.5438 15.3684Z" fill="#AE16FC"/>
<path fill-rule="evenodd" clip-rule="evenodd" d="M10.0351 17.3333C10.3626 17.3333 10.6901 17.3333 11.0176 17.3333C11.0176 17.9415 11.0176 18.5497 11.0176 19.1579C10.6584 19.1155 10.3309 19.1624 10.0351 19.2982C9.9314 19.2798 9.83783 19.3033 9.7544 19.3684C9.54709 19.6227 9.35996 19.88 9.193 20.1403C8.69231 19.8158 8.20108 19.5351 7.71932 19.2982C7.68674 19.4718 7.61656 19.6122 7.50879 19.7193C7.804 18.348 8.64611 17.5528 10.0351 17.3333Z" fill="#6B7AEE"/>
<path fill-rule="evenodd" clip-rule="evenodd" d="M19.4386 17.193C18.8112 17.3314 18.1562 17.3781 17.4736 17.3333C16.8186 17.3333 16.1638 17.3333 15.5087 17.3333C15.0877 17.3333 14.6666 17.3333 14.2456 17.3333C14.2456 17.9415 14.2456 18.5498 14.2456 19.1579C14.573 19.1579 14.9006 19.1579 15.228 19.1579C15.883 19.1579 16.5379 19.1579 17.1929 19.1579C18.035 19.1579 18.8772 19.1579 19.7193 19.1579C17.8728 19.2977 16.0014 19.3444 14.1052 19.2983C14.1052 18.5965 14.1052 17.8947 14.1052 17.193C15.883 17.193 17.6607 17.193 19.4386 17.193Z" fill="#9AB1BE"/>
<path fill-rule="evenodd" clip-rule="evenodd" d="M9.19299 20.1403C9.19299 21.7778 9.19299 23.4151 9.19299 25.0526C9.05401 24.1901 9.00723 23.3013 9.05264 22.3859C8.49123 22.3859 7.92983 22.3859 7.36843 22.3859C7.33316 21.4888 7.37994 20.6 7.50878 19.7193C7.61655 19.6122 7.68673 19.4718 7.7193 19.2982C8.20107 19.5351 8.6923 19.8158 9.19299 20.1403Z" fill="#736BF2"/>
<path fill-rule="evenodd" clip-rule="evenodd" d="M13.5438 15.3684C12.9824 15.3684 12.421 15.3684 11.8596 15.3684C11.8596 18.5965 11.8596 21.8246 11.8596 25.0526C11.8837 25.1919 11.8369 25.2853 11.7192 25.3333C11.7192 21.9649 11.7192 18.5965 11.7192 15.2281C12.3554 15.1834 12.9635 15.2302 13.5438 15.3684Z" fill="#9F55CA"/>
<path fill-rule="evenodd" clip-rule="evenodd" d="M7.36837 22.386C7.92977 22.386 8.49118 22.386 9.05258 22.386C9.00718 23.3014 9.05396 24.1902 9.19293 25.0527C9.25471 25.4569 9.39506 25.831 9.61398 26.1755C9.3356 26.159 9.10167 26.2527 8.91223 26.4562C8.80629 26.8527 8.66594 27.2268 8.49118 27.579C7.88767 27.0745 7.53679 26.4195 7.43854 25.6141C7.36841 24.5391 7.34501 23.463 7.36837 22.386Z" fill="#8155F5"/>
<path fill-rule="evenodd" clip-rule="evenodd" d="M11.8596 25.0526C12.421 25.0526 12.9824 25.0526 13.5438 25.0526C13.529 26.7245 12.7337 27.8004 11.1579 28.2807C10.5429 28.2986 9.93476 28.2519 9.33332 28.1403C8.99906 28.0209 8.71835 27.8338 8.49121 27.5789C8.66598 27.2268 8.80633 26.8526 8.91226 26.4561C9.10171 26.2526 9.33563 26.159 9.61402 26.1754C10.6291 26.6638 11.3308 26.3831 11.7193 25.3333C11.8369 25.2853 11.8837 25.1918 11.8596 25.0526Z" fill="#923CF7"/>
<path fill-rule="evenodd" clip-rule="evenodd" d="M9.33337 28.1404C9.93482 28.252 10.543 28.2987 11.1579 28.2807C10.8811 28.3738 10.577 28.4205 10.2457 28.4211C9.8793 28.4165 9.5752 28.3228 9.33337 28.1404Z" fill="#BBAECB"/>
</g>
<defs>
<clipPath id="clip0_19_59">
<rect width="32" height="32" fill="white"/>
</clipPath>
</defs>
</svg>
