<svg width="32" height="32" viewBox="0 0 32 32" fill="none" xmlns="http://www.w3.org/2000/svg">
<g clip-path="url(#clip0_19_712)">
<path fill-rule="evenodd" clip-rule="evenodd" d="M-0.0799561 -0.0800781C10.5867 -0.0800781 21.2533 -0.0800781 31.92 -0.0800781C31.92 10.5866 31.92 21.2532 31.92 31.9199C21.2533 31.9199 10.5867 31.9199 -0.0799561 31.9199C-0.0799561 21.2532 -0.0799561 10.5866 -0.0799561 -0.0800781Z" fill="#FEFEFC"/>
<path fill-rule="evenodd" clip-rule="evenodd" d="M9.04004 7.12003C13.9205 6.90726 18.8271 6.90726 23.76 7.12003C23.7402 7.2171 23.6869 7.27043 23.6 7.28003C18.7741 7.12033 13.9208 7.06699 9.04004 7.12003Z" fill="#ABAAA8"/>
<path fill-rule="evenodd" clip-rule="evenodd" d="M9.04006 7.12012C8.98694 13.814 9.04028 20.4806 9.20006 27.1201C9.19046 27.207 9.13713 27.2603 9.04006 27.2801C8.82714 20.5337 8.82714 13.8138 9.04006 7.12012Z" fill="#9E9E9C"/>
<path fill-rule="evenodd" clip-rule="evenodd" d="M9.04002 7.11993C13.9208 7.06689 18.7741 7.12024 23.6 7.27993C22.8515 8.1596 22.1583 9.09292 21.52 10.0799C18.5872 10.1599 15.6538 10.1866 12.72 10.1599C12.5614 11.3035 12.508 12.4769 12.56 13.6799C14.6684 13.6273 16.7483 13.6807 18.8 13.8399C18.1437 14.7816 17.4503 15.6882 16.72 16.5599C15.3333 16.5599 13.9467 16.5599 12.56 16.5599C12.56 18.4799 12.56 20.3999 12.56 22.3199C11.44 23.9199 10.32 25.5199 9.20002 27.1199C9.04024 20.4804 8.9869 13.8138 9.04002 7.11993Z" fill="#1C1A18"/>
<path fill-rule="evenodd" clip-rule="evenodd" d="M12.72 10.1599C12.72 11.2799 12.72 12.3999 12.72 13.5199C14.8028 13.4667 16.8827 13.5201 18.96 13.6799C18.9402 13.777 18.8869 13.8303 18.8 13.8399C16.7483 13.6806 14.6684 13.6273 12.56 13.6799C12.508 12.4769 12.5614 11.3035 12.72 10.1599Z" fill="#9A9A98"/>
<path fill-rule="evenodd" clip-rule="evenodd" d="M16.7201 16.5601C15.4161 16.7189 14.0827 16.7722 12.7201 16.7201C12.7726 18.6153 12.7192 20.482 12.5601 22.3201C12.5601 20.4001 12.5601 18.4801 12.5601 16.5601C13.9467 16.5601 15.3334 16.5601 16.7201 16.5601Z" fill="#848381"/>
</g>
<defs>
<clipPath id="clip0_19_712">
<rect width="32" height="32" fill="white"/>
</clipPath>
</defs>
</svg>
