<svg width="32" height="32" viewBox="0 0 32 32" fill="none" xmlns="http://www.w3.org/2000/svg">
<g clip-path="url(#clip0_19_731)">
<path opacity="0.999" fill-rule="evenodd" clip-rule="evenodd" d="M0.916646 0.0834143C10.9168 0.0556373 20.9168 0.0834151 30.9166 0.166748C31.2221 0.361193 31.4721 0.611193 31.6666 0.916748C31.7778 10.9167 31.7778 20.9167 31.6666 30.9167C31.4721 31.2222 31.2221 31.4722 30.9166 31.6667C20.9166 31.7779 10.9166 31.7779 0.916646 31.6667C0.611091 31.4722 0.361091 31.2222 0.166646 30.9167C0.0555352 20.9167 0.0555352 10.9167 0.166646 0.916748C0.394261 0.606471 0.644261 0.328693 0.916646 0.0834143Z" fill="#AA0402"/>
<path fill-rule="evenodd" clip-rule="evenodd" d="M26.75 1.91657C28.4458 1.62329 29.5015 2.28995 29.9166 3.91657C29.8955 4.39778 29.7288 4.81445 29.4166 5.16657C28.0418 6.05087 26.7918 5.91197 25.6666 4.7499C25.1043 3.43285 25.4653 2.4884 26.75 1.91657Z" fill="#FDF9F9"/>
<path fill-rule="evenodd" clip-rule="evenodd" d="M17.0833 3.41673C17.9833 3.29755 18.7333 3.57531 19.3333 4.25006C19.3673 5.52236 18.7283 6.18903 17.4167 6.25006C16.2175 6.19063 15.7453 5.57951 16 4.41673C16.2489 3.94781 16.61 3.61448 17.0833 3.41673Z" fill="#FCF7F7"/>
<path fill-rule="evenodd" clip-rule="evenodd" d="M21.4166 3.91675C22.8086 3.66645 23.892 4.11089 24.6666 5.25009C24.8265 5.90365 24.632 6.43144 24.0833 6.83342C23.104 7.2536 22.1873 7.78139 21.3333 8.41675C21.1491 9.02059 20.9825 9.6317 20.8333 10.2501C19.619 11.2053 18.5635 11.0386 17.6666 9.75009C17.469 8.2242 18.1633 7.4742 19.75 7.50009C20.0476 7.36934 20.2976 7.17489 20.5 6.91675C20.4845 6.19574 20.4845 5.4735 20.5 4.75009C20.7883 4.4331 21.0938 4.15532 21.4166 3.91675Z" fill="#FDFAFA"/>
<path fill-rule="evenodd" clip-rule="evenodd" d="M11.9167 6.41662C12.9182 6.38892 13.9182 6.41671 14.9167 6.49996C17.0128 7.40004 17.2907 8.67781 15.75 10.3333C15.2103 10.5612 14.6547 10.6168 14.0833 10.5C12.1549 9.07039 10.2104 9.07039 8.24999 10.5C6.94444 10.75 6.41665 10.2222 6.66665 8.91662C7.34392 8.20234 8.14947 7.67457 9.08332 7.33329C10.0423 7.00416 10.9868 6.69861 11.9167 6.41662Z" fill="#FEFBFB"/>
<path fill-rule="evenodd" clip-rule="evenodd" d="M25.75 7.24994C27.1611 7.18811 27.6611 7.82699 27.25 9.16661C26.144 9.72168 25.4218 9.41613 25.0833 8.24994C25.1443 7.79063 25.3666 7.45729 25.75 7.24994Z" fill="#FCF4F4"/>
<path fill-rule="evenodd" clip-rule="evenodd" d="M4.91664 10.5832C5.83555 10.4849 6.3911 10.8738 6.5833 11.7499C6.3826 12.6517 6.1326 13.5406 5.8333 14.4166C5.77775 15.2499 5.72219 16.0832 5.66664 16.9166C5.17984 18.0629 4.31872 18.5351 3.0833 18.3332C2.65709 18.2191 2.35154 17.9691 2.16664 17.5832C1.8234 16.3826 1.93452 15.2159 2.49997 14.0832C2.9826 12.6668 3.78817 11.5002 4.91664 10.5832Z" fill="#FDFBFB"/>
<path fill-rule="evenodd" clip-rule="evenodd" d="M22.0833 10.5833C23.641 10.864 24.53 11.8084 24.75 13.4166C24.7543 14.1019 24.421 14.5186 23.75 14.6666C22.3945 14.9255 21.4778 14.3977 21 13.0833C20.6442 11.9082 21.0053 11.0749 22.0833 10.5833Z" fill="#FDFAFA"/>
<path fill-rule="evenodd" clip-rule="evenodd" d="M11.0833 10.75C12.999 10.8051 13.6935 11.7496 13.1666 13.5833C13.0278 13.7222 12.8889 13.8611 12.75 14C12.0216 14.1532 11.2994 14.3199 10.5833 14.5C10.0187 15.0646 9.46318 15.6201 8.91665 16.1667C8.00062 16.3643 7.41728 16.0032 7.16665 15.0833C6.97583 14.0446 7.28138 13.1835 8.08332 12.5C9.1759 12.0384 10.1759 11.4551 11.0833 10.75Z" fill="#FDF9F9"/>
<path fill-rule="evenodd" clip-rule="evenodd" d="M15.9167 11.25C18.0275 11.024 18.9442 11.9685 18.6667 14.0833C19.7222 14.6945 20.5555 15.5278 21.1667 16.5833C21.4318 17.7085 21.1818 18.6807 20.4167 19.5C19.5057 19.9247 18.7 19.7857 18 19.0833C17.8283 18.5083 17.6062 17.9528 17.3333 17.4167C16.8262 17.0153 16.2985 16.9877 15.75 17.3333C15.112 18.1398 14.3342 18.751 13.4167 19.1667C11.9265 19.2613 11.0377 18.567 10.75 17.0833C10.8118 16.3749 11.1451 15.8472 11.75 15.5C14.0097 15.5736 15.0931 14.4903 15 12.25C15.2266 11.8296 15.5322 11.4962 15.9167 11.25Z" fill="#FEFBFB"/>
<path fill-rule="evenodd" clip-rule="evenodd" d="M23.5833 15.5834C24.5983 15.3563 25.3483 15.6896 25.8333 16.5834C26.2567 19.2773 25.7567 21.7773 24.3333 24.0834C23.2383 25.5556 21.9605 25.7778 20.5 24.7501C20.117 24.1304 20.0058 23.4638 20.1667 22.7501C20.9615 21.9554 21.6282 21.0666 22.1667 20.0834C22.6013 18.9001 22.8237 17.6779 22.8333 16.4168C23.061 16.1065 23.311 15.8287 23.5833 15.5834Z" fill="#FEFCFC"/>
<path fill-rule="evenodd" clip-rule="evenodd" d="M7.91665 17.75C9.72835 17.924 10.5339 18.924 10.3333 20.75C9.7138 22.076 8.79713 22.3537 7.58332 21.5833C6.38167 20.1673 6.49278 18.8895 7.91665 17.75Z" fill="#FDFAFA"/>
<path fill-rule="evenodd" clip-rule="evenodd" d="M15.4167 19.2499C16.5426 18.9536 17.2927 19.3426 17.6667 20.4166C17.7222 20.9166 17.7778 21.4166 17.8333 21.9166C18.8572 22.7631 18.8293 23.5686 17.75 24.3332C15.6122 24.9749 14.6955 24.1694 15 21.9166C14.3325 20.8662 14.4714 19.9774 15.4167 19.2499Z" fill="#FDF9F9"/>
<path fill-rule="evenodd" clip-rule="evenodd" d="M3.58335 19.5832C4.58149 19.3441 5.27592 19.6774 5.66669 20.5832C5.65835 21.7167 5.93614 22.7722 6.50002 23.7499C7.25264 24.8091 8.22485 25.1146 9.41669 24.6666C9.81667 23.8671 10.2611 23.0892 10.75 22.3332C11.7673 21.4989 12.684 21.5822 13.5 22.5832C13.238 23.6507 13.4324 24.6229 14.0834 25.4999C15.3008 26.2662 16.523 26.2662 17.75 25.4999C19.6089 25.0271 20.4144 25.7214 20.1667 27.5832C19.9237 27.9932 19.6182 28.3544 19.25 28.6666C12.8558 31.2197 7.60582 29.7476 3.50002 24.2499C2.92522 23.3516 2.5641 22.3792 2.41669 21.3332C2.50082 20.5532 2.8897 19.9699 3.58335 19.5832Z" fill="#FEFCFB"/>
</g>
<defs>
<clipPath id="clip0_19_731">
<rect width="32" height="32" fill="white"/>
</clipPath>
</defs>
</svg>
