<svg width="32" height="32" viewBox="0 0 32 32" fill="none" xmlns="http://www.w3.org/2000/svg">
<path d="M27.2846 18.2199L25.9951 14.13L26.6568 13.5178L27.791 14.4917L28.7605 13.4622L28.3709 12.7148L28.5457 12.1805L27.0085 11.8688C27.0197 11.1075 26.6668 10.945 25.5516 11.5739L15.6449 14.9486L10.6858 13.6948L6.07887 15.8897L0.222595 14.2942L5.03317 16.3878L10.0096 15.4356L8.9867 18.0685L6.49459 19.3056L1.29835 18.7675L5.1556 19.9712L8.08569 20.3936L12.7165 17.0423L20.4522 19.2556L22.9086 16.9866L27.7209 19.6023L31.774 20.7648L27.2846 18.2199Z" fill="#FAA31E"/>
<path d="M28.5484 12.1811L25.5538 11.5745L26.6574 13.5178L28.5484 12.1811Z" fill="url(#paint0_linear_19_1247)"/>
<path d="M28.5484 12.1812L26.6573 13.5179L27.791 14.4918L28.5484 12.1812Z" fill="url(#paint1_linear_19_1247)"/>
<path d="M28.3731 12.7148L27.791 14.4918L28.761 13.4623L28.3731 12.7148Z" fill="url(#paint2_linear_19_1247)"/>
<path d="M27.0107 11.8695C26.8382 11.2139 26.5065 11.2139 25.5538 11.5745Z" fill="url(#paint3_linear_19_1247)"/>
<path d="M27.7203 19.6005L25.9951 14.1299L22.9081 16.9854L27.7203 19.6005Z" fill="url(#paint4_linear_19_1247)"/>
<path d="M31.7735 20.7633L27.2846 18.22L27.7204 19.6007L31.7735 20.7633Z" fill="url(#paint5_linear_19_1247)"/>
<path d="M26.6573 13.5178L15.6449 14.9486L20.4516 19.2578L26.6573 13.5178Z" fill="url(#paint6_linear_19_1247)"/>
<path d="M25.5538 11.5745L15.6449 14.9487L26.6573 13.5178L25.5538 11.5745Z" fill="url(#paint7_linear_19_1247)"/>
<path d="M15.6449 14.9487L12.7165 17.0446L20.4516 19.2579L15.6449 14.9487Z" fill="url(#paint8_linear_19_1247)"/>
<path d="M10.6858 13.6948L8.08405 20.3937L15.645 14.9487L10.6858 13.6948Z" fill="url(#paint9_linear_19_1247)"/>
<path d="M10.6857 13.6948L5.03314 16.3878L10.0096 15.4356L10.6857 13.6948Z" fill="url(#paint10_linear_19_1247)"/>
<path d="M6.07887 15.8897L0.222595 14.2942L5.03317 16.3878L6.07887 15.8897Z" fill="url(#paint11_linear_19_1247)"/>
<path d="M8.9867 18.0691L5.15393 19.9713L8.08402 20.3937L8.9867 18.0691Z" fill="url(#paint12_linear_19_1247)"/>
<path d="M6.49458 19.3062L1.29834 18.7686L5.15392 19.9712L6.49458 19.3062Z" fill="url(#paint13_linear_19_1247)"/>
<path d="M11.0066 14.8177C11.115 14.7093 11.1361 14.5546 11.0538 14.4722C10.9714 14.3899 10.8167 14.411 10.7083 14.5195C10.5998 14.6279 10.5787 14.7826 10.661 14.865C10.7434 14.9473 10.8981 14.9262 11.0066 14.8177Z" fill="#DF3D27"/>
<path d="M11.579 15.391C11.659 15.311 11.6745 15.1968 11.6136 15.136C11.5528 15.0751 11.4386 15.0906 11.3586 15.1706C11.2786 15.2506 11.2631 15.3648 11.324 15.4256C11.3848 15.4865 11.499 15.471 11.579 15.391Z" fill="#DF3D27"/>
<path d="M12.1613 15.9725C12.2207 15.9132 12.2321 15.8285 12.1869 15.7832C12.1417 15.738 12.057 15.7495 11.9976 15.8088C11.9383 15.8682 11.9268 15.9529 11.972 15.9981C12.0173 16.0433 12.102 16.0319 12.1613 15.9725Z" fill="#DF3D27"/>
<path d="M12.6841 16.4962C12.7202 16.4602 12.7273 16.4087 12.6999 16.3813C12.6725 16.354 12.6211 16.361 12.585 16.3971C12.5489 16.4332 12.5419 16.4846 12.5692 16.512C12.5966 16.5394 12.6481 16.5323 12.6841 16.4962Z" fill="#DF3D27"/>
<path d="M10.7698 15.681C10.8783 15.5726 10.8994 15.4179 10.817 15.3355C10.7347 15.2531 10.58 15.2743 10.4715 15.3827C10.3631 15.4912 10.3419 15.6459 10.4243 15.7282C10.5067 15.8106 10.6614 15.7895 10.7698 15.681Z" fill="#DF3D27"/>
<path d="M11.3417 16.253C11.4217 16.1731 11.4372 16.0589 11.3764 15.998C11.3155 15.9372 11.2014 15.9527 11.1214 16.0327C11.0414 16.1127 11.0259 16.2268 11.0867 16.2877C11.1476 16.3485 11.2618 16.333 11.3417 16.253Z" fill="#DF3D27"/>
<path d="M11.9241 16.8353C11.9835 16.776 11.9949 16.6912 11.9497 16.646C11.9045 16.6008 11.8198 16.6123 11.7604 16.6716C11.7011 16.731 11.6897 16.8157 11.7349 16.8609C11.7801 16.9061 11.8648 16.8947 11.9241 16.8353Z" fill="#DF3D27"/>
<path d="M10.4793 16.4904C10.5592 16.4104 10.5747 16.2962 10.5139 16.2353C10.453 16.1745 10.3389 16.19 10.2589 16.27C10.1789 16.35 10.1634 16.4641 10.2243 16.525C10.2851 16.5858 10.3993 16.5703 10.4793 16.4904Z" fill="#DF3D27"/>
<path d="M11.0617 17.0724C11.121 17.0131 11.1324 16.9283 11.0872 16.8831C11.042 16.8379 10.9573 16.8493 10.898 16.9087C10.8386 16.968 10.8272 17.0528 10.8724 17.098C10.9176 17.1432 11.0023 17.1317 11.0617 17.0724Z" fill="#DF3D27"/>
<path d="M10.2425 17.3527C10.3225 17.2727 10.338 17.1585 10.2771 17.0977C10.2163 17.0368 10.1021 17.0523 10.0221 17.1323C9.94216 17.2123 9.92665 17.3264 9.98751 17.3873C10.0484 17.4481 10.1625 17.4326 10.2425 17.3527Z" fill="#DF3D27"/>
<path d="M10.8245 17.9352C10.8838 17.8758 10.8953 17.7911 10.8501 17.7459C10.8049 17.7007 10.7201 17.7121 10.6608 17.7715C10.6014 17.8308 10.59 17.9156 10.6352 17.9608C10.6804 18.006 10.7651 17.9945 10.8245 17.9352Z" fill="#DF3D27"/>
<path d="M9.96199 18.1718C10.0213 18.1124 10.0328 18.0277 9.98757 17.9825C9.94237 17.9373 9.85762 17.9487 9.79829 18.008C9.73896 18.0674 9.7275 18.1521 9.77271 18.1973C9.81791 18.2425 9.90266 18.2311 9.96199 18.1718Z" fill="#DF3D27"/>
<path d="M13.2611 14.8732C13.3204 14.8138 13.3318 14.7291 13.2866 14.6839C13.2414 14.6387 13.1567 14.6501 13.0974 14.7095C13.038 14.7688 13.0266 14.8535 13.0718 14.8987C13.117 14.944 13.2017 14.9325 13.2611 14.8732Z" fill="#DF3D27"/>
<path d="M13.7839 15.3961C13.82 15.3601 13.827 15.3086 13.7996 15.2812C13.7722 15.2539 13.7208 15.2609 13.6847 15.297C13.6486 15.3331 13.6416 15.3845 13.669 15.4119C13.6964 15.4393 13.7478 15.4322 13.7839 15.3961Z" fill="#DF3D27"/>
<path d="M11.8695 14.5809C11.9779 14.4725 11.9991 14.3178 11.9167 14.2354C11.8343 14.153 11.6796 14.1742 11.5712 14.2826C11.4627 14.3911 11.4416 14.5458 11.524 14.6281C11.6063 14.7105 11.761 14.6894 11.8695 14.5809Z" fill="#DF3D27"/>
<path d="M12.4415 15.1537C12.5215 15.0737 12.537 14.9595 12.4761 14.8987C12.4153 14.8378 12.3011 14.8533 12.2211 14.9333C12.1411 15.0133 12.1256 15.1275 12.1865 15.1883C12.2473 15.2492 12.3615 15.2337 12.4415 15.1537Z" fill="#DF3D27"/>
<path d="M13.0238 15.7352C13.0832 15.6759 13.0946 15.5912 13.0494 15.5459C13.0042 15.5007 12.9194 15.5122 12.8601 15.5715C12.8008 15.6309 12.7893 15.7156 12.8345 15.7608C12.8797 15.806 12.9645 15.7946 13.0238 15.7352Z" fill="#DF3D27"/>
<path d="M13.5466 16.2589C13.5827 16.2229 13.5898 16.1714 13.5624 16.144C13.535 16.1166 13.4835 16.1237 13.4475 16.1598C13.4114 16.1959 13.4043 16.2473 13.4317 16.2747C13.4591 16.3021 13.5106 16.295 13.5466 16.2589Z" fill="#DF3D27"/>
<path d="M20.9243 15.4481C21.0368 15.4364 21.1208 15.3575 21.1119 15.2719C21.1029 15.1863 21.0045 15.1264 20.892 15.1382C20.7795 15.1499 20.6955 15.2288 20.7045 15.3144C20.7134 15.4 20.8118 15.4599 20.9243 15.4481Z" fill="#DF3D27"/>
<path d="M21.01 16.2675C21.0934 16.2588 21.1557 16.2001 21.1491 16.1366C21.1424 16.073 21.0694 16.0285 20.9859 16.0372C20.9025 16.0459 20.8402 16.1045 20.8469 16.1681C20.8535 16.2317 20.9265 16.2762 21.01 16.2675Z" fill="#DF3D27"/>
<path d="M21.0865 17.0029C21.1372 16.9976 21.1751 16.9621 21.1711 16.9236C21.1671 16.8851 21.1227 16.8582 21.0719 16.8635C21.0212 16.8688 20.9833 16.9043 20.9873 16.9428C20.9913 16.9813 21.0357 17.0082 21.0865 17.0029Z" fill="#DF3D27"/>
<path d="M20.1124 15.1644C20.2649 15.1485 20.3788 15.0417 20.3667 14.9258C20.3546 14.8099 20.2211 14.7289 20.0686 14.7448C19.916 14.7608 19.8022 14.8676 19.8143 14.9835C19.8264 15.0993 19.9598 15.1803 20.1124 15.1644Z" fill="#DF3D27"/>
<path d="M20.1971 15.9694C20.3096 15.9576 20.3936 15.8787 20.3846 15.7931C20.3757 15.7075 20.2772 15.6477 20.1648 15.6594C20.0523 15.6711 19.9683 15.7501 19.9772 15.8356C19.9862 15.9212 20.0846 15.9811 20.1971 15.9694Z" fill="#DF3D27"/>
<path d="M20.2822 16.7882C20.3657 16.7795 20.4279 16.7209 20.4213 16.6573C20.4147 16.5937 20.3416 16.5492 20.2582 16.558C20.1747 16.5667 20.1124 16.6253 20.1191 16.6889C20.1257 16.7524 20.1987 16.7969 20.2822 16.7882Z" fill="#DF3D27"/>
<path d="M20.3587 17.5244C20.4094 17.5191 20.4473 17.4836 20.4433 17.4451C20.4393 17.4066 20.3949 17.3796 20.3441 17.3849C20.2934 17.3902 20.2555 17.4258 20.2595 17.4643C20.2636 17.5028 20.308 17.5297 20.3587 17.5244Z" fill="#DF3D27"/>
<path d="M19.3774 15.61C19.4898 15.5982 19.5738 15.5193 19.5649 15.4337C19.5559 15.3481 19.4575 15.2883 19.345 15.3C19.2325 15.3118 19.1485 15.3907 19.1575 15.4763C19.1664 15.5619 19.2649 15.6217 19.3774 15.61Z" fill="#DF3D27"/>
<path d="M19.4624 16.4284C19.5458 16.4196 19.6081 16.361 19.6015 16.2974C19.5948 16.2339 19.5218 16.1894 19.4383 16.1981C19.3549 16.2068 19.2926 16.2654 19.2993 16.329C19.3059 16.3926 19.3789 16.4371 19.4624 16.4284Z" fill="#DF3D27"/>
<path d="M19.5395 17.165C19.5902 17.1598 19.6281 17.1242 19.6241 17.0857C19.6201 17.0472 19.5757 17.0203 19.5249 17.0256C19.4742 17.0309 19.4363 17.0664 19.4403 17.1049C19.4443 17.1434 19.4887 17.1703 19.5395 17.165Z" fill="#DF3D27"/>
<path d="M18.5659 15.3253C18.7184 15.3094 18.8323 15.2025 18.8202 15.0867C18.8081 14.9708 18.6746 14.8898 18.5221 14.9057C18.3695 14.9217 18.2557 15.0285 18.2678 15.1444C18.2798 15.2602 18.4133 15.3412 18.5659 15.3253Z" fill="#DF3D27"/>
<path d="M18.6501 16.1307C18.7626 16.119 18.8466 16.0401 18.8376 15.9545C18.8287 15.8689 18.7303 15.809 18.6178 15.8208C18.5053 15.8325 18.4213 15.9114 18.4302 15.997C18.4392 16.0826 18.5376 16.1425 18.6501 16.1307Z" fill="#DF3D27"/>
<path d="M17.7119 15.823C17.8239 15.8117 17.9077 15.7334 17.8991 15.6482C17.8904 15.563 17.7927 15.5031 17.6807 15.5144C17.5687 15.5257 17.4849 15.604 17.4935 15.6892C17.5022 15.7744 17.5999 15.8343 17.7119 15.823Z" fill="#DF3D27"/>
<path d="M17.9159 16.5902C17.9994 16.5815 18.0617 16.5229 18.055 16.4593C18.0484 16.3957 17.9753 16.3512 17.8919 16.36C17.8084 16.3687 17.7462 16.4273 17.7528 16.4909C17.7594 16.5544 17.8325 16.5989 17.9159 16.5902Z" fill="#DF3D27"/>
<path d="M22.4709 15.2872C22.5834 15.2755 22.6673 15.1966 22.6584 15.111C22.6494 15.0254 22.551 14.9655 22.4385 14.9773C22.326 14.989 22.242 15.0679 22.251 15.1535C22.2599 15.2391 22.3584 15.299 22.4709 15.2872Z" fill="#DF3D27"/>
<path d="M22.5564 16.1056C22.6399 16.0969 22.7022 16.0383 22.6955 15.9747C22.6889 15.9111 22.6159 15.8666 22.5324 15.8753C22.4489 15.8841 22.3867 15.9427 22.3933 16.0062C22.3999 16.0698 22.473 16.1143 22.5564 16.1056Z" fill="#DF3D27"/>
<path d="M21.6594 15.003C21.812 14.9871 21.9258 14.8803 21.9137 14.7644C21.9016 14.6486 21.7682 14.5675 21.6156 14.5835C21.4631 14.5994 21.3492 14.7062 21.3613 14.8221C21.3734 14.9379 21.5069 15.019 21.6594 15.003Z" fill="#DF3D27"/>
<path d="M21.7436 15.808C21.8561 15.7962 21.9401 15.7173 21.9311 15.6317C21.9222 15.5461 21.8238 15.4863 21.7113 15.498C21.5988 15.5098 21.5148 15.5887 21.5237 15.6743C21.5327 15.7599 21.6311 15.8197 21.7436 15.808Z" fill="#DF3D27"/>
<path d="M21.8292 16.6264C21.9127 16.6176 21.9749 16.559 21.9683 16.4954C21.9617 16.4319 21.8886 16.3874 21.8052 16.3961C21.7217 16.4048 21.6594 16.4634 21.6661 16.527C21.6727 16.5906 21.7457 16.6351 21.8292 16.6264Z" fill="#DF3D27"/>
<path d="M21.9058 17.3628C21.9565 17.3575 21.9944 17.322 21.9904 17.2835C21.9863 17.2449 21.9419 17.218 21.8912 17.2233C21.8405 17.2286 21.8026 17.2641 21.8066 17.3027C21.8106 17.3412 21.855 17.3681 21.9058 17.3628Z" fill="#DF3D27"/>
<path d="M25.4429 12.6642C25.5244 12.6239 25.5657 12.5409 25.535 12.4789C25.5044 12.4169 25.4134 12.3994 25.3319 12.4397C25.2503 12.48 25.2091 12.5629 25.2397 12.6249C25.2704 12.6869 25.3613 12.7045 25.4429 12.6642Z" fill="#DF3D27"/>
<path d="M25.736 13.2576C25.7966 13.2276 25.8273 13.1661 25.8045 13.12C25.7818 13.074 25.7142 13.061 25.6536 13.091C25.593 13.121 25.5623 13.1826 25.585 13.2286C25.6078 13.2746 25.6753 13.2876 25.736 13.2576Z" fill="#DF3D27"/>
<path d="M24.7518 12.6771C24.8622 12.6225 24.9181 12.51 24.8766 12.426C24.835 12.342 24.7118 12.3181 24.6013 12.3728C24.4908 12.4274 24.4349 12.5398 24.4765 12.6238C24.518 12.7079 24.6413 12.7317 24.7518 12.6771Z" fill="#DF3D27"/>
<path d="M25.0403 13.2601C25.1219 13.2198 25.1632 13.1369 25.1325 13.0749C25.1019 13.0129 25.0109 12.9953 24.9293 13.0356C24.8478 13.076 24.8065 13.1589 24.8372 13.2209C24.8678 13.2829 24.9588 13.3004 25.0403 13.2601Z" fill="#DF3D27"/>
<path d="M24.3226 13.2186C24.4042 13.1783 24.4454 13.0954 24.4148 13.0334C24.3841 12.9714 24.2932 12.9538 24.2116 12.9941C24.1301 13.0344 24.0888 13.1174 24.1195 13.1794C24.1501 13.2414 24.2411 13.2589 24.3226 13.2186Z" fill="#DF3D27"/>
<path d="M24.8799 14.3453C24.9168 14.3271 24.9355 14.2895 24.9216 14.2614C24.9077 14.2333 24.8665 14.2253 24.8296 14.2436C24.7927 14.2618 24.774 14.2994 24.7879 14.3275C24.8018 14.3556 24.843 14.3636 24.8799 14.3453Z" fill="#DF3D27"/>
<path d="M23.6315 13.2313C23.7419 13.1766 23.7978 13.0642 23.7563 12.9802C23.7147 12.8962 23.5915 12.8723 23.481 12.927C23.3705 12.9816 23.3146 13.094 23.3562 13.178C23.3977 13.2621 23.521 13.2859 23.6315 13.2313Z" fill="#DF3D27"/>
<path d="M23.9193 13.8141C24.0009 13.7738 24.0421 13.6908 24.0115 13.6288C23.9808 13.5668 23.8899 13.5493 23.8083 13.5896C23.7268 13.6299 23.6855 13.7129 23.7161 13.7748C23.7468 13.8368 23.8378 13.8544 23.9193 13.8141Z" fill="#DF3D27"/>
<path d="M24.2129 14.4068C24.2735 14.3768 24.3042 14.3152 24.2814 14.2692C24.2587 14.2232 24.1911 14.2102 24.1305 14.2402C24.0699 14.2701 24.0392 14.3317 24.0619 14.3777C24.0847 14.4238 24.1523 14.4368 24.2129 14.4068Z" fill="#DF3D27"/>
<path d="M24.4768 14.9413C24.5138 14.923 24.5324 14.8854 24.5185 14.8573C24.5046 14.8292 24.4634 14.8213 24.4265 14.8395C24.3896 14.8578 24.3709 14.8953 24.3848 14.9234C24.3987 14.9515 24.4399 14.9595 24.4768 14.9413Z" fill="#DF3D27"/>
<path d="M23.2016 13.7721C23.2832 13.7318 23.3244 13.6488 23.2938 13.5868C23.2631 13.5248 23.1722 13.5073 23.0906 13.5476C23.009 13.5879 22.9678 13.6709 22.9984 13.7329C23.0291 13.7948 23.12 13.8124 23.2016 13.7721Z" fill="#DF3D27"/>
<path d="M23.4952 14.3655C23.5558 14.3356 23.5865 14.274 23.5637 14.228C23.541 14.1819 23.4734 14.1689 23.4128 14.1989C23.3522 14.2289 23.3215 14.2905 23.3442 14.3365C23.367 14.3825 23.4346 14.3955 23.4952 14.3655Z" fill="#DF3D27"/>
<path d="M23.7589 14.8988C23.7958 14.8805 23.8145 14.843 23.8006 14.8149C23.7867 14.7868 23.7455 14.7788 23.7086 14.797C23.6717 14.8153 23.653 14.8529 23.6669 14.881C23.6808 14.9091 23.722 14.917 23.7589 14.8988Z" fill="#DF3D27"/>
<path d="M26.8568 12.7032C26.9174 12.6732 26.9481 12.6116 26.9253 12.5656C26.9026 12.5196 26.835 12.5066 26.7744 12.5366C26.7137 12.5665 26.6831 12.6281 26.7058 12.6741C26.7286 12.7201 26.7961 12.7331 26.8568 12.7032Z" fill="#DF3D27"/>
<path d="M25.8728 12.1229C25.9833 12.0683 26.0392 11.9558 25.9976 11.8718C25.9561 11.7878 25.8328 11.7639 25.7223 11.8186C25.6118 11.8732 25.556 11.9856 25.5975 12.0696C25.6391 12.1537 25.7623 12.1775 25.8728 12.1229Z" fill="#DF3D27"/>
<path d="M26.1611 12.7062C26.2427 12.6658 26.2839 12.5829 26.2533 12.5209C26.2226 12.4589 26.1317 12.4413 26.0501 12.4817C25.9686 12.522 25.9273 12.6049 25.958 12.6669C25.9886 12.7289 26.0796 12.7465 26.1611 12.7062Z" fill="#DF3D27"/>
<defs>
<linearGradient id="paint0_linear_19_1247" x1="25.6626" y1="12.5923" x2="28.5589" y2="12.2822" gradientUnits="userSpaceOnUse">
<stop stop-color="#DF3C26" stop-opacity="0.9"/>
<stop offset="0.66" stop-color="#DF3D27" stop-opacity="0"/>
</linearGradient>
<linearGradient id="paint1_linear_19_1247" x1="26.6549" y1="13.4969" x2="28.6658" y2="13.2817" gradientUnits="userSpaceOnUse">
<stop stop-color="#DF3C26"/>
<stop offset="0.8" stop-color="#DF3D27" stop-opacity="0"/>
</linearGradient>
<linearGradient id="paint2_linear_19_1247" x1="27.7004" y1="13.643" x2="28.7679" y2="13.5288" gradientUnits="userSpaceOnUse">
<stop stop-color="#DF3C26"/>
<stop offset="0.69" stop-color="#DF3D27" stop-opacity="0"/>
</linearGradient>
<linearGradient id="paint3_linear_19_1247" x1="25.5694" y1="11.7224" x2="26.9789" y2="11.5716" gradientUnits="userSpaceOnUse">
<stop stop-color="#DF3C26"/>
<stop offset="0.78" stop-color="#DF3D27" stop-opacity="0"/>
</linearGradient>
<linearGradient id="paint4_linear_19_1247" x1="22.9403" y1="17.2834" x2="27.4209" y2="16.8037" gradientUnits="userSpaceOnUse">
<stop stop-color="#DF3D27" stop-opacity="0.8"/>
<stop offset="0.69" stop-color="#DF3D27" stop-opacity="0"/>
</linearGradient>
<linearGradient id="paint5_linear_19_1247" x1="27.4446" y1="19.713" x2="31.6136" y2="19.2667" gradientUnits="userSpaceOnUse">
<stop stop-color="#DF3C26"/>
<stop offset="0.62" stop-color="#DF3D27" stop-opacity="0"/>
</linearGradient>
<linearGradient id="paint6_linear_19_1247" x1="15.8864" y1="17.2076" x2="26.9256" y2="16.0277" gradientUnits="userSpaceOnUse">
<stop stop-color="#DF3D27"/>
<stop offset="0.65" stop-color="#DF3D27" stop-opacity="0"/>
</linearGradient>
<linearGradient id="paint7_linear_19_1247" x1="20.2771" y1="16.6339" x2="22.5198" y2="10.4694" gradientUnits="userSpaceOnUse">
<stop stop-color="#DF3D27"/>
<stop offset="0.78" stop-color="#DF3D27" stop-opacity="0"/>
</linearGradient>
<linearGradient id="paint8_linear_19_1247" x1="12.783" y1="17.6662" x2="20.1963" y2="16.8726" gradientUnits="userSpaceOnUse">
<stop stop-color="#DF3C26"/>
<stop offset="0.68" stop-color="#DF3D27" stop-opacity="0"/>
</linearGradient>
<linearGradient id="paint9_linear_19_1247" x1="7.74437" y1="17.2199" x2="15.7958" y2="16.358" gradientUnits="userSpaceOnUse">
<stop stop-color="#DF3C26"/>
<stop offset="0.64" stop-color="#DF3D27" stop-opacity="0"/>
</linearGradient>
<linearGradient id="paint10_linear_19_1247" x1="4.92258" y1="15.3559" x2="10.7959" y2="14.7272" gradientUnits="userSpaceOnUse">
<stop stop-color="#DF3C26"/>
<stop offset="0.7" stop-color="#DF3D27" stop-opacity="0"/>
</linearGradient>
<linearGradient id="paint11_linear_19_1247" x1="0.360337" y1="15.5845" x2="5.98137" y2="14.9828" gradientUnits="userSpaceOnUse">
<stop stop-color="#DF3C26"/>
<stop offset="0.7" stop-color="#DF3D27" stop-opacity="0"/>
</linearGradient>
<linearGradient id="paint12_linear_19_1247" x1="5.11421" y1="19.5981" x2="9.10505" y2="19.1709" gradientUnits="userSpaceOnUse">
<stop stop-color="#DF3C26"/>
<stop offset="0.67" stop-color="#DF3D27" stop-opacity="0"/>
</linearGradient>
<linearGradient id="paint13_linear_19_1247" x1="1.38395" y1="19.568" x2="6.46435" y2="19.0242" gradientUnits="userSpaceOnUse">
<stop stop-color="#DF3C26"/>
<stop offset="0.57" stop-color="#DF3D27" stop-opacity="0"/>
</linearGradient>
</defs>
</svg>
