<svg width="32" height="32" viewBox="0 0 32 32" fill="none" xmlns="http://www.w3.org/2000/svg">
    <g clip-path="url(#clip0_1432_116)">
        <path fill-rule="evenodd" clip-rule="evenodd"
            d="M31.96 0.0400391C31.96 10.68 31.96 21.32 31.96 31.96C21.32 31.96 10.68 31.96 0.0400391 31.96C0.0400391 21.32 0.0400391 10.68 0.0400391 0.0400391C10.68 0.0400391 21.32 0.0400391 31.96 0.0400391Z"
            fill="#E62028" />
        <path fill-rule="evenodd" clip-rule="evenodd"
            d="M15.9099 14.0538C17.6063 14.5126 19.3663 14.6672 21.1899 14.5182C21.1899 15.1371 21.1899 15.7566 21.1899 16.3756C21.2161 17.0396 21.1061 17.659 20.8599 18.233C18.7814 18.6954 16.6915 18.8505 14.5899 18.6973C14.6071 19.8131 14.4971 20.8965 14.2599 21.9477C13.7901 22.8834 13.5701 23.9667 13.5999 25.1982C13.2861 25.8571 13.1761 26.6307 13.2699 27.5199C11.6199 27.5199 9.96995 27.5199 8.31995 27.5199C9.74994 20.4001 11.18 13.2798 12.6099 6.15991C16.46 6.15991 20.3099 6.15991 24.1599 6.15991C23.8777 7.65093 23.5477 9.12152 23.1699 10.5712C20.8626 10.8034 18.5526 10.8805 16.2399 10.8034C16.2571 11.9192 16.1471 13.0025 15.9099 14.0538Z"
            fill="#F5F5F6" />
    </g>
    <defs>
        <clipPath id="clip0_1432_116">
            <rect width="32" height="32" fill="white" />
        </clipPath>
    </defs>
</svg>