<svg width="32" height="32" viewBox="0 0 32 32" fill="none" xmlns="http://www.w3.org/2000/svg">
<g clip-path="url(#clip0_19_1287)">
<path opacity="0.996" fill-rule="evenodd" clip-rule="evenodd" d="M2.1875 -0.0625C5.10416 -0.0625 8.02084 -0.0625 10.9375 -0.0625C10.9375 1.10417 10.9375 2.27084 10.9375 3.4375C7.27134 3.36012 3.60466 3.31846 -0.0625 3.3125C-0.0625 2.9375 -0.0625 2.5625 -0.0625 2.1875C0.395834 1.14583 1.14583 0.395834 2.1875 -0.0625Z" fill="#4E1FC9"/>
<path fill-rule="evenodd" clip-rule="evenodd" d="M10.9375 -0.0625C17.1875 -0.0625 23.4375 -0.0625 29.6875 -0.0625C30.7291 0.395834 31.4791 1.14583 31.9375 2.1875C31.9375 2.89584 31.9375 3.60416 31.9375 4.3125C25.0206 4.23909 18.104 4.15575 11.1875 4.0625C11.1194 3.60355 11.0778 3.64521 11.0625 4.1875C10.9424 3.96692 10.9007 3.71692 10.9375 3.4375C10.9375 2.27084 10.9375 1.10417 10.9375 -0.0625Z" fill="#592DCC"/>
<path fill-rule="evenodd" clip-rule="evenodd" d="M31.9375 4.31239C31.9375 6.06239 31.9375 7.81239 31.9375 9.56239C29.3536 9.523 26.7703 9.50218 24.1875 9.49989C24.0658 9.83295 23.9824 9.85379 23.9375 9.56239C24.0711 9.2538 24.2377 8.96213 24.4375 8.68739C18.7715 8.5624 13.1048 8.52073 7.4375 8.56239C8.70731 8.4586 9.99899 8.3961 11.3125 8.37489C11.1127 6.99282 11.0293 5.59698 11.0625 4.18739C11.0777 3.6451 11.1194 3.60344 11.1875 4.06239C18.104 4.15564 25.0206 4.23898 31.9375 4.31239Z" fill="#6432D4"/>
<path fill-rule="evenodd" clip-rule="evenodd" d="M-0.0625 3.3125C3.60466 3.31846 7.27134 3.36012 10.9375 3.4375C10.9007 3.71692 10.9423 3.96692 11.0625 4.1875C11.0293 5.59709 11.1127 6.99293 11.3125 8.375C9.99899 8.39621 8.70731 8.45871 7.4375 8.5625C7.76096 9.08425 8.05263 9.62593 8.3125 10.1875C8.26759 10.4789 8.18425 10.4581 8.0625 10.125C5.35558 9.99675 2.64725 9.93425 -0.0625 9.9375C-0.0625 7.72916 -0.0625 5.52084 -0.0625 3.3125Z" fill="#5C25D2"/>
<path fill-rule="evenodd" clip-rule="evenodd" d="M7.4375 8.5625C13.1048 8.52083 18.7715 8.56251 24.4375 8.6875C24.2377 8.96223 24.0711 9.25391 23.9375 9.5625C23.4926 10.2424 23.076 10.9507 22.6875 11.6875C19.48 11.7916 16.2716 11.8541 13.0625 11.875C13.4204 12.5007 13.7954 13.1049 14.1875 13.6875C14.166 13.8115 14.2078 13.8947 14.3125 13.9375C16.6041 14.0209 18.8959 14.1041 21.1875 14.1875C20.7791 14.8794 20.4041 15.5877 20.0625 16.3125C19.8988 16.5544 19.7321 16.8044 19.5625 17.0625C18.4375 17.1459 17.3125 17.2291 16.1875 17.3125C16.7459 18.2417 17.2875 19.1792 17.8125 20.125C17.6277 20.4324 17.461 20.7449 17.3125 21.0625C16.8885 21.7006 16.4926 22.3672 16.125 23.0625C16.0353 23.1814 15.9311 23.2021 15.8125 23.125C15.0231 21.6902 14.1898 20.2944 13.3125 18.9375C12.5857 17.4839 11.794 16.0672 10.9375 14.6875C10.0606 13.1831 9.18563 11.6831 8.3125 10.1875C8.05263 9.62592 7.76096 9.08425 7.4375 8.5625Z" fill="#FDFCFE"/>
<path fill-rule="evenodd" clip-rule="evenodd" d="M31.9375 9.5625C31.9375 10.7708 31.9375 11.9792 31.9375 13.1875C27.0204 13.2067 22.1036 13.1651 17.1875 13.0625C16.1459 13.1041 15.1041 13.1459 14.0625 13.1875C14.1557 13.342 14.1974 13.5088 14.1875 13.6875C13.7954 13.1049 13.4204 12.5008 13.0625 11.875C16.2716 11.8541 19.48 11.7916 22.6875 11.6875C23.076 10.9507 23.4926 10.2424 23.9375 9.5625C23.9824 9.8539 24.0658 9.83306 24.1875 9.5C26.7703 9.50229 29.3536 9.52311 31.9375 9.5625Z" fill="#7137DC"/>
<path fill-rule="evenodd" clip-rule="evenodd" d="M-0.0625 9.93762C2.64725 9.93437 5.35558 9.99687 8.0625 10.1251C8.18425 10.4582 8.26759 10.479 8.3125 10.1876C9.18563 11.6832 10.0606 13.1832 10.9375 14.6876C7.28005 14.8115 3.61339 14.8532 -0.0625 14.8126C-0.0625 13.1876 -0.0625 11.5626 -0.0625 9.93762Z" fill="#6B2CDC"/>
<path fill-rule="evenodd" clip-rule="evenodd" d="M14.3125 13.9375C16.6474 13.8959 18.9806 13.9375 21.3125 14.0625C21.297 14.1384 21.2554 14.18 21.1875 14.1875C18.8959 14.1041 16.6041 14.0209 14.3125 13.9375Z" fill="#E8DEF9"/>
<path fill-rule="evenodd" clip-rule="evenodd" d="M31.9375 13.1875C31.9375 14.3125 31.9375 15.4375 31.9375 16.5625C27.958 16.5232 23.9996 16.44 20.0625 16.3125C20.4041 15.5878 20.7791 14.8794 21.1875 14.1875C21.2554 14.18 21.297 14.1384 21.3125 14.0625C18.9806 13.9375 16.6474 13.8959 14.3125 13.9375C14.2078 13.8947 14.166 13.8115 14.1875 13.6875C14.1974 13.5088 14.1557 13.342 14.0625 13.1875C15.1041 13.1459 16.1459 13.1041 17.1875 13.0625C22.1036 13.1651 27.0204 13.2067 31.9375 13.1875Z" fill="#783AE1"/>
<path fill-rule="evenodd" clip-rule="evenodd" d="M10.9375 14.6875C11.794 16.0673 12.5857 17.4839 13.3125 18.9375C13.3125 18.9791 13.3125 19.0209 13.3125 19.0625C11.6319 19.227 9.92359 19.3103 8.1875 19.3125C5.43707 19.2854 2.68707 19.2437 -0.0625 19.1875C-0.0625 17.7291 -0.0625 16.2709 -0.0625 14.8125C3.61339 14.8531 7.28005 14.8114 10.9375 14.6875Z" fill="#7732E4"/>
<path fill-rule="evenodd" clip-rule="evenodd" d="M20.0625 16.3125C23.9996 16.44 27.958 16.5232 31.9375 16.5625C31.9375 18.2709 31.9375 19.9791 31.9375 21.6875C27.0202 21.6748 22.1036 21.6123 17.1875 21.5C17.2921 21.3736 17.3338 21.2278 17.3125 21.0625C17.461 20.7449 17.6277 20.4324 17.8125 20.125C17.2875 19.1793 16.7459 18.2418 16.1875 17.3125C17.3125 17.2291 18.4375 17.1459 19.5625 17.0625C19.7321 16.8044 19.8988 16.5544 20.0625 16.3125Z" fill="#8440E9"/>
<path fill-rule="evenodd" clip-rule="evenodd" d="M13.3125 19.0625C13.8009 20.7878 14.4259 22.4544 15.1875 24.0625C10.1254 24.121 5.04203 24.121 -0.0625 24.0625C-0.0625 22.4375 -0.0625 20.8125 -0.0625 19.1875C2.68707 19.2437 5.43707 19.2854 8.1875 19.3125C9.92359 19.3103 11.6319 19.227 13.3125 19.0625Z" fill="#8437ED"/>
<path fill-rule="evenodd" clip-rule="evenodd" d="M13.3125 18.9375C14.1898 20.2944 15.0231 21.6903 15.8125 23.125C15.9311 23.2021 16.0353 23.1814 16.125 23.0625C16.4926 22.3673 16.8885 21.7006 17.3125 21.0625C17.3338 21.2278 17.2921 21.3736 17.1875 21.5C22.1036 21.6123 27.0202 21.6748 31.9375 21.6875C31.9375 23.1875 31.9375 24.6875 31.9375 26.1875C26.7919 26.059 21.6669 26.059 16.5625 26.1875C16.073 25.5005 15.6147 24.7921 15.1875 24.0625C14.4259 22.4544 13.8009 20.7878 13.3125 19.0625C13.3125 19.0209 13.3125 18.9791 13.3125 18.9375Z" fill="#9146F2"/>
<path fill-rule="evenodd" clip-rule="evenodd" d="M31.9375 26.1874C31.9375 27.1874 31.9375 28.1874 31.9375 29.1874C27.5903 28.9206 23.2569 28.8789 18.9375 29.0624C18.008 28.2164 17.2164 27.2581 16.5625 26.1874C21.6669 26.0589 26.7919 26.0589 31.9375 26.1874Z" fill="#9848F7"/>
<path fill-rule="evenodd" clip-rule="evenodd" d="M-0.0625 24.0625C5.04203 24.121 10.1254 24.121 15.1875 24.0625C15.6147 24.7921 16.073 25.5005 16.5625 26.1875C17.2164 27.2581 18.008 28.2165 18.9375 29.0625C18.9375 29.1041 18.9375 29.1459 18.9375 29.1875C12.6055 29.0849 6.27217 29.0015 -0.0625 28.9375C-0.0625 27.3125 -0.0625 25.6875 -0.0625 24.0625Z" fill="#913DF5"/>
<path opacity="0.994" fill-rule="evenodd" clip-rule="evenodd" d="M-0.0625 28.9375C6.27217 29.0015 12.6055 29.0849 18.9375 29.1875C20.2888 30.3624 21.7888 31.2791 23.4375 31.9375C16.3541 31.9375 9.27084 31.9375 2.1875 31.9375C1.14583 31.4791 0.395834 30.7291 -0.0625 29.6875C-0.0625 29.4375 -0.0625 29.1875 -0.0625 28.9375Z" fill="#9A41FB"/>
<path fill-rule="evenodd" clip-rule="evenodd" d="M31.9375 29.1876C31.9375 29.396 31.9375 29.6042 31.9375 29.8126C31.6953 30.2741 31.4036 30.7116 31.0625 31.1251C30.6334 31.464 30.175 31.7347 29.6875 31.9376C27.6041 31.9376 25.5209 31.9376 23.4375 31.9376C21.7888 31.2792 20.2888 30.3625 18.9375 29.1876C18.9375 29.146 18.9375 29.1042 18.9375 29.0626C23.2569 28.8791 27.5903 28.9207 31.9375 29.1876Z" fill="#A04DFB"/>
</g>
<defs>
<clipPath id="clip0_19_1287">
<rect width="32" height="32" fill="white"/>
</clipPath>
</defs>
</svg>
