<svg width="32" height="32" viewBox="0 0 32 32" fill="none" xmlns="http://www.w3.org/2000/svg">
<rect width="32" height="32" fill="#64548C"/>
<path fill-rule="evenodd" clip-rule="evenodd" d="M17.0834 1.58332C16.9015 1.92236 16.6238 2.14459 16.25 2.24999C15.5973 2.03126 14.9306 1.86459 14.25 1.74999C12.7809 1.66174 11.3364 1.80062 9.91669 2.16666C8.89014 2.70759 7.89014 3.29092 6.91669 3.91666C6.68332 3.81664 6.51665 3.64997 6.41669 3.41666C9.63614 0.833834 13.1917 0.222722 17.0834 1.58332Z" fill="#9C95C3"/>
<path fill-rule="evenodd" clip-rule="evenodd" d="M14.25 1.75002C14.718 3.23319 15.1069 4.73319 15.4167 6.25002C14.8112 6.24052 14.7834 6.40719 15.3334 6.75002C15.4161 7.13499 15.4439 7.52389 15.4167 7.91669C14.491 7.67794 13.9354 8.01127 13.75 8.91669C13.2968 9.24405 12.7968 9.24405 12.25 8.91669C12.0274 9.35687 12.083 9.74577 12.4167 10.0834C12.8133 10.6468 13.3133 11.0912 13.9167 11.4167C14.3345 11.6486 14.7789 11.8153 15.25 11.9167C14.2831 17.6875 11.1164 21.7154 5.75002 24C4.94587 24.3159 4.11254 24.4547 3.25002 24.4167C3.22769 24.7154 3.28324 24.993 3.41669 25.25C3.58824 25.8152 3.92157 26.2595 4.41669 26.5834C4.96552 27.0997 5.63219 27.3219 6.41669 27.25C8.55295 27.3265 10.553 26.8822 12.4167 25.9167C13.775 25.3887 15.0528 24.722 16.25 23.9167C17.184 23.4259 18.073 22.8702 18.9167 22.25C19.7449 21.7537 20.5225 21.1982 21.25 20.5834C22.0254 20.0299 22.7475 19.4189 23.4167 18.75C25.0214 17.451 26.4937 16.0065 27.8334 14.4167C28.0674 14.0602 28.2062 13.6713 28.25 13.25C28.1079 12.4672 27.83 11.745 27.4167 11.0834C27.801 11.0013 28.1899 10.9457 28.5834 10.9167C29.9247 12.6451 29.8969 14.3673 28.5 16.0834C27.8329 16.8892 27.1384 17.667 26.4167 18.4167C25.2459 19.4215 24.0792 20.4215 22.9167 21.4167C21.635 22.311 20.3572 23.1999 19.0834 24.0834C16.461 25.6999 13.6833 27.0054 10.75 28C8.94602 28.4954 7.11269 28.7175 5.25002 28.6667C4.78172 28.5157 4.33729 28.3212 3.91669 28.0834C1.77474 26.0582 1.55252 23.836 3.25002 21.4167C5.0347 19.4097 6.97915 17.5764 9.08335 15.9167C10.1509 16.0132 10.8731 15.5687 11.25 14.5834C10.5069 13.9606 9.67359 13.4606 8.75002 13.0834C7.70354 12.6712 6.70354 12.1712 5.75002 11.5834C4.8127 11.1177 4.0627 10.4511 3.50002 9.58335C3.41725 9.19839 3.38947 8.80949 3.41669 8.41669C3.79764 7.54502 4.26985 6.71169 4.83335 5.91669C5.51037 5.21149 6.20482 4.54482 6.91669 3.91669C7.89014 3.29095 8.89014 2.70762 9.91669 2.16669C11.3364 1.80065 12.7809 1.66177 14.25 1.75002Z" fill="#FDFDFE"/>
<path fill-rule="evenodd" clip-rule="evenodd" d="M14.25 1.75C14.9306 1.8646 15.5973 2.03127 16.25 2.25C16.3611 2.25 16.4167 2.30555 16.4167 2.41667C16.9162 3.90995 17.1383 5.40995 17.0833 6.91667C17.0278 6.91667 16.9722 6.91667 16.9167 6.91667C16.5347 6.62215 16.0903 6.45548 15.5833 6.41667C15.5833 6.30555 15.5278 6.25 15.4167 6.25C15.1069 4.73317 14.718 3.23317 14.25 1.75Z" fill="#EDECF5"/>
<path opacity="0.935" fill-rule="evenodd" clip-rule="evenodd" d="M17.0833 1.58331C20.4503 3.11928 23.4503 5.17483 26.0833 7.74998C25.9722 7.74998 25.8612 7.74998 25.75 7.74998C24.6108 6.75021 23.4442 5.77798 22.25 4.83331C21.7187 4.61401 21.163 4.53068 20.5833 4.58331C20.2188 4.37365 19.83 4.20698 19.4167 4.08331C18.5255 3.3593 17.5255 2.80375 16.4167 2.41665C16.4167 2.30553 16.3611 2.24998 16.25 2.24998C16.6238 2.14458 16.9015 1.92235 17.0833 1.58331Z" fill="#8A84B9"/>
<path fill-rule="evenodd" clip-rule="evenodd" d="M16.4167 2.41669C17.5255 2.80379 18.5255 3.35934 19.4167 4.08335C20.9484 12.6533 18.615 19.931 12.4167 25.9167C10.553 26.8822 8.55295 27.3265 6.41669 27.25C8.06767 26.6742 9.62324 25.8687 11.0834 24.8334C15.0807 21.3947 17.4697 17.0614 18.25 11.8334C18.194 11.6617 18.0829 11.5784 17.9167 11.5834C19.5495 10.4891 19.6607 9.2669 18.25 7.91669C17.9542 7.46487 17.5652 7.13154 17.0834 6.91669C17.1384 5.40997 16.9162 3.90997 16.4167 2.41669Z" fill="#D5D3E7"/>
<path fill-rule="evenodd" clip-rule="evenodd" d="M19.4167 4.08331C19.83 4.20698 20.2189 4.37365 20.5834 4.58331C20.6389 4.74998 20.75 4.8611 20.9167 4.91665C21.8644 11.9036 20.3087 18.2368 16.25 23.9166C15.0528 24.722 13.775 25.3886 12.4167 25.9166C18.615 19.931 20.9484 12.6532 19.4167 4.08331Z" fill="#C6C3DE"/>
<path fill-rule="evenodd" clip-rule="evenodd" d="M20.9167 4.91669C21.3612 5.25002 21.8055 5.58335 22.25 5.91669C22.6232 11.673 21.4565 17.0897 18.75 22.1667C18.788 22.2332 18.8437 22.2609 18.9167 22.25C18.073 22.8702 17.184 23.4259 16.25 23.9167C20.3087 18.2369 21.8643 11.9036 20.9167 4.91669Z" fill="#BDB9D9"/>
<path opacity="0.786" fill-rule="evenodd" clip-rule="evenodd" d="M6.41665 3.41669C6.51662 3.65 6.68328 3.81667 6.91665 3.91669C6.20478 4.54482 5.51033 5.21149 4.83332 5.91669C4.26982 6.71169 3.7976 7.54502 3.41665 8.41669C2.62432 8.60185 2.37432 9.10185 2.66665 9.91669C3.0894 10.8677 3.7283 11.6454 4.58332 12.25C4.10982 12.4449 3.60982 12.6116 3.08332 12.75C1.98468 11.3944 1.79025 9.89435 2.49998 8.25002C3.41408 6.3095 4.71963 4.69839 6.41665 3.41669Z" fill="#8D86BB"/>
<path fill-rule="evenodd" clip-rule="evenodd" d="M22.25 5.91669C22.6395 6.27775 23.0562 6.61109 23.5 6.91669C23.8347 11.6308 23.0292 16.1308 21.0833 20.4167C21.104 20.5179 21.1595 20.5734 21.25 20.5834C20.5225 21.1982 19.7448 21.7537 18.9167 22.25C18.8437 22.2609 18.788 22.2332 18.75 22.1667C21.4565 17.0897 22.6232 11.673 22.25 5.91669Z" fill="#B6B1D4"/>
<path fill-rule="evenodd" clip-rule="evenodd" d="M15.5833 6.41669C16.0903 6.4555 16.5347 6.62217 16.9166 6.91669C16.944 7.36457 16.9161 7.80902 16.8333 8.25002C16.5418 8.42555 16.2918 8.37 16.0833 8.08335C16.1904 7.42784 16.0237 6.87229 15.5833 6.41669Z" fill="#B4AED2"/>
<path fill-rule="evenodd" clip-rule="evenodd" d="M15.4166 6.25002C15.5278 6.25002 15.5833 6.30557 15.5833 6.41668C16.0237 6.87228 16.1904 7.42783 16.0833 8.08335C15.8168 8.12798 15.5946 8.07243 15.4166 7.91668C15.4439 7.52388 15.4161 7.13498 15.3333 6.75002C14.7833 6.40718 14.8111 6.24052 15.4166 6.25002Z" fill="#D8D6E8"/>
<path opacity="0.992" fill-rule="evenodd" clip-rule="evenodd" d="M16.9167 6.91669C16.9722 6.91669 17.0279 6.91669 17.0834 6.91669C17.5652 7.13154 17.9542 7.46487 18.25 7.91669C17.9542 8.65579 17.7597 9.43355 17.6667 10.25C17.4874 10.6799 17.1819 10.9576 16.75 11.0834C16.0792 10.537 15.3014 10.3425 14.4167 10.5C14.8209 10.7021 15.2098 10.8966 15.5834 11.0834C14.987 11.0915 14.4314 11.2026 13.9167 11.4167C13.3133 11.0912 12.8133 10.6468 12.4167 10.0834C12.8247 9.92117 13.2691 9.86562 13.75 9.91669C13.75 9.58335 13.75 9.25002 13.75 8.91669C13.9354 8.01127 14.491 7.67794 15.4167 7.91669C15.5946 8.07244 15.8169 8.12799 16.0834 8.08335C16.2918 8.37 16.5418 8.42555 16.8334 8.25002C16.9162 7.80902 16.944 7.36457 16.9167 6.91669ZM16.75 11.0834C16.3611 11.0834 15.9722 11.0834 15.5834 11.0834C15.2098 10.8966 14.8209 10.7021 14.4167 10.5C15.3014 10.3425 16.0792 10.537 16.75 11.0834Z" fill="#8F88BB"/>
<path fill-rule="evenodd" clip-rule="evenodd" d="M20.5833 4.58334C21.163 4.5307 21.7186 4.61404 22.25 4.83334C23.4441 5.778 24.6108 6.75024 25.75 7.75C25.75 7.80555 25.75 7.86112 25.75 7.91667C25.43 8.01087 25.1521 8.17754 24.9166 8.41667C24.9943 11.9501 24.4943 15.3946 23.4166 18.75C22.7475 19.4188 22.0253 20.0298 21.25 20.5833C21.1595 20.5733 21.104 20.5178 21.0833 20.4167C23.0291 16.1308 23.8346 11.6308 23.5 6.91667C23.0561 6.61107 22.6395 6.27773 22.25 5.91667C21.8055 5.58334 21.3611 5.25 20.9166 4.91667C20.75 4.86112 20.6388 4.75 20.5833 4.58334Z" fill="#AFA7CE"/>
<path opacity="0.978" fill-rule="evenodd" clip-rule="evenodd" d="M18.25 7.91669C19.6607 9.2669 19.5495 10.4891 17.9167 11.5834C17.5417 11.6884 17.2084 11.8551 16.9167 12.0834C16.5834 12.0834 16.25 12.0834 15.9167 12.0834C15.6736 12.0946 15.4513 12.039 15.25 11.9167C14.7789 11.8153 14.3345 11.6486 13.9167 11.4167C14.4314 11.2026 14.987 11.0915 15.5834 11.0834C15.9722 11.0834 16.3611 11.0834 16.75 11.0834C17.1819 10.9576 17.4874 10.6799 17.6667 10.25C17.7597 9.43355 17.9542 8.65579 18.25 7.91669Z" fill="#545079"/>
<path fill-rule="evenodd" clip-rule="evenodd" d="M24.9167 8.41669C25.5324 8.9212 26.0879 9.47675 26.5834 10.0834C26.8629 10.4233 27.1407 10.7567 27.4167 11.0834C27.83 11.745 28.1079 12.4672 28.25 13.25C28.2062 13.6713 28.0674 14.0602 27.8334 14.4167C26.4937 16.0065 25.0214 17.451 23.4167 18.75C24.4944 15.3946 24.9944 11.9501 24.9167 8.41669Z" fill="#A29BC7"/>
<path fill-rule="evenodd" clip-rule="evenodd" d="M25.75 7.91669C26.5279 8.36114 27.1389 8.97224 27.5834 9.75002C27.153 9.67092 26.8197 9.78204 26.5834 10.0834C26.0879 9.47675 25.5324 8.9212 24.9167 8.41669C25.1522 8.17755 25.43 8.01089 25.75 7.91669Z" fill="#CFCCE3"/>
<path fill-rule="evenodd" clip-rule="evenodd" d="M13.75 8.91669C13.75 9.25002 13.75 9.58335 13.75 9.91669C13.2691 9.86562 12.8247 9.92117 12.4167 10.0834C12.083 9.74577 12.0274 9.35687 12.25 8.91669C12.7968 9.24405 13.2968 9.24405 13.75 8.91669Z" fill="#B9B4D5"/>
<path fill-rule="evenodd" clip-rule="evenodd" d="M27.5833 9.75001C28.0333 10.0391 28.3666 10.428 28.5833 10.9167C28.1898 10.9457 27.801 11.0012 27.4166 11.0833C27.1406 10.7566 26.8628 10.4233 26.5833 10.0833C26.8196 9.78203 27.153 9.67091 27.5833 9.75001Z" fill="#E2E0EE"/>
<path fill-rule="evenodd" clip-rule="evenodd" d="M3.41664 8.41669C3.38943 8.80949 3.41721 9.19839 3.49998 9.58335C4.06266 10.4511 4.81266 11.1177 5.74998 11.5834C5.74998 11.75 5.74998 11.9167 5.74998 12.0834C5.37741 12.0342 5.04408 12.0898 4.74998 12.25C4.69443 12.25 4.63886 12.25 4.58331 12.25C3.72829 11.6454 3.08939 10.8677 2.66664 9.91669C2.37431 9.10185 2.62431 8.60185 3.41664 8.41669Z" fill="#B1ABD0"/>
<path fill-rule="evenodd" clip-rule="evenodd" d="M17.9167 11.5833C18.0829 11.5784 18.194 11.6617 18.25 11.8333C17.4697 17.0613 15.0807 21.3947 11.0834 24.8333C9.62324 25.8687 8.06767 26.6742 6.41669 27.25C5.63219 27.3218 4.96552 27.0997 4.41669 26.5833C9.76547 25.265 13.5155 22.0428 15.6667 16.9167C16.4182 15.34 16.8349 13.7289 16.9167 12.0833C17.2084 11.855 17.5417 11.6884 17.9167 11.5833Z" fill="#E2E0EF"/>
<path fill-rule="evenodd" clip-rule="evenodd" d="M15.25 11.9167C15.4513 12.039 15.6735 12.0946 15.9166 12.0834C14.9155 17.6635 11.9155 21.7469 6.91665 24.3334C5.79643 24.8217 4.62976 25.1274 3.41665 25.25C3.2832 24.993 3.22765 24.7154 3.24998 24.4167C4.1125 24.4547 4.94583 24.3159 5.74998 24C11.1164 21.7154 14.2831 17.6875 15.25 11.9167Z" fill="#F6F5F9"/>
<path fill-rule="evenodd" clip-rule="evenodd" d="M15.9167 12.0833C16.25 12.0833 16.5834 12.0833 16.9167 12.0833C16.8349 13.7289 16.4182 15.34 15.6667 16.9166C13.5155 22.0428 9.76547 25.265 4.41669 26.5833C3.92157 26.2595 3.58824 25.8151 3.41669 25.25C4.6298 25.1273 5.79647 24.8216 6.91669 24.3333C11.9156 21.7468 14.9156 17.6635 15.9167 12.0833Z" fill="#ECEBF4"/>
<path fill-rule="evenodd" clip-rule="evenodd" d="M5.75 11.5833C6.70352 12.1712 7.70352 12.6712 8.75 13.0833C8.41195 13.4197 8.02305 13.6975 7.58333 13.9166C6.5513 13.4926 5.60685 12.9371 4.75 12.25C5.0441 12.0897 5.37743 12.0342 5.75 12.0833C5.75 11.9166 5.75 11.75 5.75 11.5833Z" fill="#CBC8E1"/>
<path opacity="0.943" fill-rule="evenodd" clip-rule="evenodd" d="M4.58331 12.25C4.63886 12.25 4.69443 12.25 4.74998 12.25C5.60683 12.9371 6.55128 13.4927 7.58331 13.9167C8.35815 14.3041 9.13593 14.693 9.91665 15.0833C9.68635 15.4248 9.40858 15.7026 9.08331 15.9167C6.97911 17.5763 5.03466 19.4097 3.24998 21.4167C3.24998 21.3612 3.24998 21.3055 3.24998 21.25C4.72178 19.4172 6.38845 17.7782 8.24998 16.3333C6.91665 15.5556 5.58331 14.7778 4.24998 14C3.71011 13.7106 3.32121 13.2939 3.08331 12.75C3.60981 12.6116 4.10981 12.4449 4.58331 12.25Z" fill="#998FC0"/>
<path fill-rule="evenodd" clip-rule="evenodd" d="M8.74998 13.0833C9.67355 13.4605 10.5069 13.9605 11.25 14.5833C10.873 15.5687 10.1508 16.0131 9.08331 15.9166C9.40858 15.7025 9.68635 15.4247 9.91665 15.0833C9.13593 14.6929 8.35815 14.3041 7.58331 13.9166C8.02303 13.6975 8.41193 13.4197 8.74998 13.0833Z" fill="#EAE9F3"/>
<path opacity="0.939" fill-rule="evenodd" clip-rule="evenodd" d="M25.75 7.91667C25.75 7.86112 25.75 7.80555 25.75 7.75C25.8612 7.75 25.9722 7.75 26.0833 7.75C27.8552 9.21588 29.2163 10.9937 30.1667 13.0833C30.2778 14.0278 30.2778 14.9722 30.1667 15.9167C29.9713 16.6431 29.6102 17.2542 29.0833 17.75C28.1758 17.9092 27.2868 18.1313 26.4167 18.4167C27.1383 17.667 27.8328 16.8892 28.5 16.0833C29.8968 14.3673 29.9247 12.6451 28.5833 10.9167C28.3667 10.428 28.0333 10.0391 27.5833 9.75C27.1388 8.97222 26.5278 8.36112 25.75 7.91667Z" fill="#9993C0"/>
<path opacity="0.934" fill-rule="evenodd" clip-rule="evenodd" d="M29.0834 17.75C28.2005 18.9107 27.2005 19.9663 26.0834 20.9167C25.8119 20.6567 25.6174 20.7122 25.5 21.0833C24.9779 21.0943 24.45 21.0943 23.9167 21.0833C23.6369 21.3507 23.3035 21.4618 22.9167 21.4167C24.0792 20.4215 25.2459 19.4215 26.4167 18.4167C27.2869 18.1313 28.1759 17.9092 29.0834 17.75Z" fill="#8983AF"/>
<path opacity="0.946" fill-rule="evenodd" clip-rule="evenodd" d="M26.0833 20.9167C25.24 21.8153 24.2956 22.5932 23.25 23.25C21.8691 23.5742 20.4803 23.852 19.0833 24.0833C20.3571 23.1998 21.635 22.311 22.9166 21.4167C23.3035 21.4618 23.6368 21.3507 23.9166 21.0833C24.45 21.0943 24.9778 21.0943 25.5 21.0833C25.6173 20.7122 25.8118 20.6567 26.0833 20.9167Z" fill="#7C76A2"/>
<path opacity="0.97" fill-rule="evenodd" clip-rule="evenodd" d="M23.25 23.25C21.2109 25.0098 18.9885 26.5098 16.5834 27.75C12.462 28.4748 8.35085 29.2527 4.25002 30.0833C3.46867 29.6353 2.85757 29.0242 2.41669 28.25C2.8986 28.0995 3.3986 28.044 3.91669 28.0833C4.33729 28.3212 4.78172 28.5157 5.25002 28.6667C7.11269 28.7175 8.94602 28.4953 10.75 28C13.6833 27.0053 16.461 25.6998 19.0834 24.0833C20.4804 23.852 21.8692 23.5742 23.25 23.25Z" fill="#6B6590"/>
<path opacity="0.896" fill-rule="evenodd" clip-rule="evenodd" d="M3.25002 21.25C3.25002 21.3055 3.25002 21.3612 3.25002 21.4167C1.55252 23.836 1.77474 26.0582 3.91669 28.0833C3.39861 28.044 2.89861 28.0995 2.41669 28.25C2.02724 27.8392 1.77724 27.3392 1.66669 26.75C1.20558 24.608 1.73336 22.7747 3.25002 21.25Z" fill="#7C76A2"/>
<path opacity="0.947" fill-rule="evenodd" clip-rule="evenodd" d="M16.5833 27.75C13.4308 29.9395 9.93085 30.9673 6.08333 30.8333C5.38533 30.761 4.77422 30.511 4.25 30.0833C8.35083 29.2527 12.4619 28.4748 16.5833 27.75Z" fill="#5E5A85"/>
</svg>
