<svg width="32" height="32" viewBox="0 0 32 32" fill="none" xmlns="http://www.w3.org/2000/svg">
<g clip-path="url(#clip0_20_432)">
<rect width="32" height="32" fill="white"/>
<path opacity="0.979" fill-rule="evenodd" clip-rule="evenodd" d="M13.125 -0.125C14.9583 -0.125 16.7917 -0.125 18.625 -0.125C25.794 1.54389 30.2105 5.96055 31.875 13.125C31.875 14.9583 31.875 16.7917 31.875 18.625C30.206 25.794 25.7895 30.2105 18.625 31.875C16.7917 31.875 14.9583 31.875 13.125 31.875C5.95612 30.206 1.53945 25.7895 -0.125 18.625C-0.125 16.7917 -0.125 14.9583 -0.125 13.125C1.54389 5.95612 5.96055 1.53945 13.125 -0.125Z" fill="#FDFDFD"/>
<path fill-rule="evenodd" clip-rule="evenodd" d="M15.625 5.37497C16.1318 5.33445 16.6318 5.3761 17.125 5.49997C20.2317 7.192 23.2734 8.98367 26.25 10.875C26.4167 11.2083 26.4167 11.5416 26.25 11.875C23.8959 13.3647 21.5209 14.823 19.125 16.25C18.26 16.7662 17.3434 17.1412 16.375 17.375C15.8558 17.3269 15.3558 17.2019 14.875 17C12.875 15.8333 10.875 14.6666 8.87497 13.5C7.86169 13.3603 7.07002 13.7353 6.49997 14.625C5.87857 17.1814 6.67022 19.1397 8.87497 20.5C11.1062 21.6501 13.2729 22.9001 15.375 24.25C16.5698 24.5074 17.6532 24.2574 18.625 23.5C20.764 22.1506 22.9307 20.8589 25.125 19.625C25.4582 18.875 25.4582 18.125 25.125 17.375C22.2083 19.0416 19.2916 20.7083 16.375 22.375C13.6462 20.9488 11.0212 19.3654 8.49997 17.625C8.31044 17.0576 8.35212 16.5159 8.62497 16C11.1567 17.2452 13.6983 18.5369 16.25 19.875C19.46 18.3323 22.585 16.6239 25.625 14.75C26.1922 14.5604 26.734 14.6021 27.25 14.875C27.4167 16.625 27.4167 18.375 27.25 20.125C27.0537 20.5715 26.7622 20.9465 26.375 21.25C23.9583 22.6666 21.5416 24.0833 19.125 25.5C16.8695 26.7397 14.7028 26.573 12.625 25C10.7499 23.7705 8.83329 22.6038 6.87497 21.5C3.47139 17.6985 3.55474 13.9902 7.12497 10.375C9.97407 8.7017 12.8074 7.03505 15.625 5.37497Z" fill="#1B1F22"/>
</g>
<defs>
<clipPath id="clip0_20_432">
<rect width="32" height="32" fill="white"/>
</clipPath>
</defs>
</svg>
