<svg width="32" height="32" viewBox="0 0 32 32" fill="none" xmlns="http://www.w3.org/2000/svg">
<path d="M21.852 0H10.148C4.54341 0 0 4.54341 0 10.148V21.852C0 27.4566 4.54341 32 10.148 32H21.852C27.4566 32 32 27.4566 32 21.852V10.148C32 4.54341 27.4566 0 21.852 0Z" fill="black"/>
<path fill-rule="evenodd" clip-rule="evenodd" d="M10.1729 10.8793C9.0156 12.2893 8.50942 14.182 8.50949 15.9949C8.50949 17.8078 9.01567 19.7006 10.1729 21.1105C11.2898 22.4712 13.129 23.5273 16.1414 23.5273C19.3174 23.5273 20.8988 22.147 21.7306 20.8347C22.3158 19.9114 22.5254 19.2367 22.6005 18.7821C22.6508 18.4779 22.8956 18.2267 23.2078 18.2267H24.9037C25.2161 18.2267 25.4727 18.4767 25.4461 18.7837C25.376 19.5915 25.1055 20.7704 24.127 22.3142C22.8173 24.3807 20.3624 26.3171 16.1414 26.3171C12.3698 26.3171 9.68639 24.9496 7.97665 22.8666C6.30734 20.8329 5.68286 18.2621 5.68286 15.9949C5.68286 13.7278 6.30731 11.1569 7.97665 9.12325C9.59959 7.14601 12.0999 5.81344 15.5755 5.68325C15.8875 5.67157 16.1414 5.92258 16.1414 6.23072V7.90461C16.1414 8.21277 15.888 8.46099 15.5761 8.4754C12.8961 8.59927 11.2182 9.60589 10.1729 10.8793Z" fill="white"/>
<path fill-rule="evenodd" clip-rule="evenodd" d="M10.4344 11.0939C9.33913 12.4283 8.8477 14.2382 8.84777 15.9949C8.84777 17.7516 9.3392 19.5615 10.4344 20.8959C11.4799 22.1696 13.2184 23.189 16.1414 23.189C19.1946 23.189 20.6713 21.8741 21.4449 20.6536L21.7306 20.8347C20.8988 22.147 19.3174 23.5273 16.1414 23.5273C13.129 23.5273 11.2898 22.4712 10.173 21.1105C9.01568 19.7006 8.5095 17.8078 8.5095 15.9949C8.50943 14.182 9.01561 12.2893 10.173 10.8793C11.2182 9.60587 12.8961 8.59926 15.5761 8.47539L15.5917 8.81325C12.9994 8.93313 11.414 9.90057 10.4344 11.0939ZM22.6005 18.7821C22.5254 19.2367 22.3158 19.9114 21.7306 20.8347L21.4449 20.6536C22.009 19.7636 22.2 19.1312 22.2668 18.727M22.6005 18.7821C22.6508 18.4779 22.8956 18.2267 23.2078 18.2267H24.9037C25.2161 18.2267 25.4727 18.4766 25.4461 18.7836C25.376 19.5915 25.1055 20.7704 24.127 22.3142C22.8173 24.3807 20.3624 26.317 16.1414 26.317C12.3698 26.317 9.6864 24.9496 7.97666 22.8666C6.30735 20.8329 5.68287 18.262 5.68287 15.9949C5.68287 13.7278 6.30732 11.1569 7.97666 9.12323C9.5996 7.146 12.0999 5.81343 15.5755 5.68324C15.8875 5.67156 16.1414 5.92256 16.1414 6.23071V7.9046C16.1414 8.21276 15.888 8.46098 15.5761 8.47539L15.5917 8.81325C16.0698 8.79119 16.4797 8.4076 16.4797 7.9046V6.23071C16.4797 5.73439 16.07 5.32621 15.5628 5.34521C12.0001 5.47866 9.40543 6.84941 7.71518 8.90857C5.98367 11.0181 5.3446 13.6718 5.3446 15.9949C5.3446 18.318 5.9837 20.9718 7.71518 23.0813C9.49649 25.2514 12.2807 26.6553 16.1414 26.6553C20.4855 26.6553 23.0449 24.6533 24.4127 22.4953C25.4203 20.9057 25.7084 19.6746 25.7831 18.8128" fill="white"/>
<path fill-rule="evenodd" clip-rule="evenodd" d="M7.97666 9.12324L7.64434 8.85046C9.35279 6.7691 11.973 5.388 15.5594 5.25366C16.1195 5.23268 16.5713 5.68342 16.5713 6.23071V7.9046C16.5713 8.46037 16.1189 8.88063 15.596 8.90478C13.0274 9.02351 11.467 9.9804 10.5052 11.1521C9.42674 12.4659 8.9393 14.2535 8.93936 15.9949C8.93936 17.7364 9.42681 19.5239 10.5053 20.8377C11.5314 22.0879 13.2427 23.0974 16.1414 23.0974C19.1613 23.0974 20.6098 21.8001 21.3675 20.6045L21.7306 20.8347C20.8988 22.147 19.3174 23.5273 16.1414 23.5273C13.129 23.5273 11.2898 22.4712 10.173 21.1105C9.01568 19.7006 8.50949 17.8078 8.50949 15.9949C8.50943 14.182 9.01561 12.2893 10.173 10.8793C11.2182 9.60587 12.8961 8.59926 15.5761 8.47539C15.888 8.46098 16.1414 8.21276 16.1414 7.9046V6.23071C16.1414 5.92257 15.8875 5.67156 15.5755 5.68324C12.0999 5.81343 9.59959 7.146 7.97666 9.12324ZM24.127 22.3142C22.8173 24.3807 20.3624 26.317 16.1414 26.317C12.3698 26.317 9.68639 24.9496 7.97666 22.8666C6.30735 20.8329 5.68287 18.262 5.68287 15.9949C5.68287 13.7278 6.30731 11.1569 7.97666 9.12324L7.64434 8.85046C5.89601 10.9805 5.25299 13.6567 5.25299 15.9949C5.25299 18.3331 5.89605 21.0094 7.64434 23.1394C9.44507 25.3332 12.2566 26.7469 16.1414 26.7469C20.5189 26.7469 23.1066 24.7272 24.49 22.5444C25.5055 20.9423 25.7984 19.6972 25.8743 18.8209C25.9256 18.2307 25.4349 17.7969 24.9037 17.7969H23.2078C22.6456 17.7969 22.2541 18.242 22.1764 18.712C22.1119 19.1026 21.9259 19.7236 21.3675 20.6045L21.7306 20.8347C22.3158 19.9114 22.5254 19.2367 22.6005 18.7821C22.6508 18.4779 22.8956 18.2267 23.2078 18.2267H24.9037C25.2161 18.2267 25.4727 18.4766 25.4461 18.7836C25.376 19.5915 25.1055 20.7704 24.127 22.3142Z" fill="white"/>
<path fill-rule="evenodd" clip-rule="evenodd" d="M24.0558 15.3089C25.5368 15.3089 26.747 14.1225 26.747 12.6472C26.747 11.1719 25.5368 9.9855 24.0558 9.9855C22.5749 9.9855 21.3647 11.1719 21.3647 12.6472C21.3647 14.1225 22.5749 15.3089 24.0558 15.3089Z" fill="white"/>
</svg>
