<svg width="32" height="32" viewBox="0 0 32 32" fill="none" xmlns="http://www.w3.org/2000/svg">
<path d="M15.5511 29.8221C23.4328 29.8221 29.8222 23.4328 29.8222 15.5511C29.8222 7.66937 23.4328 1.28 15.5511 1.28C7.6694 1.28 1.28003 7.66937 1.28003 15.5511C1.28003 23.4328 7.6694 29.8221 15.5511 29.8221Z" fill="#BC2328"/>
<path d="M16.8951 7.23105H14.2071C13.5355 7.23105 12.9911 7.77547 12.9911 8.44705V22.655C12.9911 23.3266 13.5355 23.871 14.2071 23.871H16.8951C17.5667 23.871 18.1111 23.3266 18.1111 22.655V8.44705C18.1111 7.77547 17.5667 7.23105 16.8951 7.23105Z" fill="white"/>
<path d="M7.23108 14.207V16.8951C7.23108 17.5666 7.7755 18.1111 8.44708 18.1111H22.6551C23.3267 18.1111 23.8711 17.5666 23.8711 16.8951V14.207C23.8711 13.5355 23.3267 12.9911 22.6551 12.9911H8.44708C7.7755 12.9911 7.23108 13.5355 7.23108 14.207Z" fill="white"/>
</svg>
