<svg width="32" height="32" viewBox="0 0 32 32" fill="none" xmlns="http://www.w3.org/2000/svg">
<path opacity="0.947" fill-rule="evenodd" clip-rule="evenodd" d="M12.5127 0.777012C15.2003 0.521812 17.5639 1.24908 19.6036 2.95883C19.9745 2.45319 20.2776 1.90774 20.5127 1.32247C22.4521 1.08003 24.3915 1.08003 26.3309 1.32247C27.4689 4.02352 26.6204 5.17505 23.7854 4.77701C23.846 11.0812 23.7854 17.3842 23.6036 23.6861C23.3105 27.4945 21.3105 29.8581 17.6036 30.777C14.5148 31.1646 11.4844 30.9221 8.51269 30.0497C8.12055 29.8046 7.87811 29.441 7.78542 28.9588C7.86517 27.8628 8.28942 26.9537 9.05815 26.2316C11.3399 27.1883 13.7036 27.4912 16.1491 27.1406C17.8682 26.633 18.7773 25.4817 18.8763 23.6861C19.1188 22.3526 19.1188 21.0196 18.8763 19.6861C16.6438 21.7094 14.0378 22.3759 11.0581 21.6861C8.08553 20.781 6.32793 18.781 5.78542 15.6861C5.17044 12.2461 5.41284 8.8521 6.51269 5.50428C7.75262 2.92003 9.75262 1.34428 12.5127 0.777012ZM13.24 4.77701C15.4627 4.38079 17.3415 4.98683 18.8763 6.59519C19.1188 9.38308 19.1188 12.1709 18.8763 14.9588C17.3317 18.1851 14.968 18.973 11.7854 17.3225C11.2151 16.4846 10.7908 15.5755 10.5127 14.5952C10.1031 11.8514 10.3456 9.18472 11.24 6.59519C11.8689 5.90359 12.5356 5.29752 13.24 4.77701Z" fill="#ED543B"/>
</svg>
