<svg width="32" height="32" viewBox="0 0 32 32" fill="none" xmlns="http://www.w3.org/2000/svg">
    <path opacity="0.012" fill-rule="evenodd" clip-rule="evenodd"
        d="M5.59998 5.36588C5.79074 5.14686 6.00407 5.11435 6.23998 5.26832C6.02955 5.365 5.81622 5.39751 5.59998 5.36588Z"
        fill="#F8F9F8" />
    <path opacity="0.012" fill-rule="evenodd" clip-rule="evenodd"
        d="M6.66669 5.36588C6.85745 5.14686 7.07078 5.11435 7.30669 5.26832C7.09627 5.365 6.88293 5.39751 6.66669 5.36588Z"
        fill="#F8F9F8" />
    <path opacity="0.035" fill-rule="evenodd" clip-rule="evenodd"
        d="M5.60003 5.36584C5.60003 5.43088 5.60003 5.49593 5.60003 5.56097C5.17336 5.49593 5.17336 5.43088 5.60003 5.36584Z"
        fill="#DADADA" />
    <path opacity="0.035" fill-rule="evenodd" clip-rule="evenodd"
        d="M4.96002 5.75616C5.00233 5.55616 5.07343 5.52363 5.17336 5.65859C5.10995 5.74919 5.03884 5.78172 4.96002 5.75616Z"
        fill="#D0D0D0" />
    <path opacity="0.989" fill-rule="evenodd" clip-rule="evenodd"
        d="M5.59999 5.56102C6.28029 5.52094 6.95584 5.58598 7.62666 5.75614C7.71098 5.93201 7.81764 6.06208 7.94666 6.14639C8.16311 6.60658 8.37645 7.06186 8.58666 7.51224C8.70336 8.36496 8.72114 9.21048 8.63999 10.0488C8.74609 9.93841 8.83498 9.80832 8.90666 9.65858C9.56084 9.23727 10.2364 9.04215 10.9333 9.07322C11.3031 9.45136 11.6943 9.58145 12.1067 9.46346C11.9993 9.63823 11.9993 9.7683 12.1067 9.8537C12.3935 10.4146 12.4646 10.3495 12.32 9.65858C12.3333 8.96342 12.5111 8.47562 12.8533 8.19517C13.5781 7.52609 14.3248 7.03829 15.0933 6.73175C15.9123 6.51019 16.73 6.51019 17.5467 6.73175C17.7642 6.94215 17.9953 7.13727 18.24 7.31712C18.2842 7.22787 18.3375 7.16284 18.4 7.122C18.3484 7.37191 18.4195 7.56703 18.6133 7.70736C19.1366 8.5697 19.4566 9.64287 19.5733 10.9269C19.6092 11.1278 19.6803 11.2254 19.7867 11.2196C19.8578 11.2196 19.9288 11.2196 20 11.2196C20.0756 11.3959 20.1823 11.461 20.32 11.4147C20.4043 11.5905 20.5109 11.7206 20.64 11.8049C20.64 11.935 20.6755 12 20.7467 12C20.7822 12.2602 20.8178 12.2602 20.8533 12C20.9245 12 20.96 11.935 20.96 11.8049C21.4629 11.4922 21.9252 11.6223 22.3467 12.1952C22.4197 12.6398 22.5264 12.8999 22.6667 12.9757C22.7378 12.9757 22.7733 12.9106 22.7733 12.7805C22.9748 12.5651 23.1525 12.305 23.3067 12C23.554 11.9039 23.7674 11.7088 23.9467 11.4147C24.2647 11.3244 24.5847 11.2593 24.9067 11.2196C24.9823 11.3959 25.089 11.461 25.2267 11.4147C25.3648 11.6075 25.507 11.8027 25.6533 12C25.8654 12.3834 26.0254 12.8387 26.1333 13.3659C26.1848 13.1809 26.2026 12.9858 26.1867 12.7805C26.2973 12.5015 26.3684 12.1762 26.4 11.8049C26.55 11.7126 26.6211 11.5175 26.6133 11.2196C27.1823 9.62194 27.8933 9.42682 28.7467 10.6342C28.8952 11.1253 29.1086 11.4505 29.3867 11.6098C29.642 11.7102 29.891 11.8403 30.1333 12C30.1333 12.1301 30.1688 12.1952 30.24 12.1952C30.6241 12.8041 30.8018 13.5846 30.7733 14.5366C30.6406 17.7252 29.8229 20.0992 28.32 21.6586C27.824 21.9696 27.3263 22.0346 26.8267 21.8537C26.481 23.8947 26.1432 25.9435 25.8133 28C25.5334 28.4291 25.2311 28.4941 24.9067 28.1952C24.8355 27.9351 24.7288 27.7399 24.5867 27.6098C24.5511 27.4797 24.5155 27.3497 24.48 27.2196C24.48 27.0894 24.4445 27.0244 24.3733 27.0244C24.3733 26.8943 24.3378 26.8293 24.2667 26.8293C24.1294 25.4648 24.1294 24.099 24.2667 22.7318C24.3863 22.4289 24.4397 22.1039 24.4267 21.7561C23.4995 22.8658 22.6285 22.7357 21.8133 21.3659C21.7591 21.0278 21.6703 20.9628 21.5467 21.1708C21.4808 20.9856 21.4986 20.8231 21.6 20.683C21.5396 20.4888 21.4685 20.3263 21.3867 20.1952C21.3373 19.6133 21.3018 19.0279 21.28 18.4391C21.4433 18.1611 21.4078 18.031 21.1733 18.0488C20.9676 17.7272 20.7542 17.402 20.5333 17.0732C19.8131 18.3427 19.4043 19.9037 19.3067 21.7561C19.0204 22.5782 18.647 22.7407 18.1867 22.2439C17.9204 21.9189 17.6716 21.561 17.44 21.1708C17.3437 20.6067 17.3082 20.0213 17.3333 19.4147C17.4686 18.9454 17.5397 18.4251 17.5467 17.8537C17.6431 17.7154 17.6786 17.5202 17.6533 17.2683C17.7427 17.2017 17.7783 17.0716 17.76 16.8781C17.8797 16.5753 17.933 16.2501 17.92 15.9025C17.1127 16.9649 16.2239 17.3551 15.2533 17.0732C14.7927 18.8851 14.4372 20.7714 14.1867 22.7318C13.8745 23.3727 13.5012 23.5029 13.0667 23.122C12.8205 22.7374 12.5715 22.3472 12.32 21.9513C12.282 21.6839 12.1931 21.4888 12.0533 21.3659C10.2093 22.7665 8.66265 22.051 7.41332 19.2196C6.84511 20.6816 6.16956 21.9499 5.38666 23.0244C4.03227 24.0315 2.82338 23.6086 1.75999 21.7561C1.75999 21.626 1.72444 21.561 1.65332 21.561C1.60723 21.3249 1.53613 21.1298 1.43999 20.9757C1.33202 20.4377 1.22535 19.9173 1.11999 19.4147C0.927065 15.0425 1.63818 11.2376 3.25332 8.00005C3.78326 7.19041 4.35215 6.50748 4.95999 5.95127C5.2038 5.93273 5.41713 5.80266 5.59999 5.56102ZM12.1067 9.8537C12.3935 10.4146 12.4646 10.3495 12.32 9.65858C12.2835 9.82213 12.2125 9.88719 12.1067 9.8537ZM23.9467 11.4147C24.2647 11.3244 24.5847 11.2593 24.9067 11.2196C24.5731 10.963 24.2531 11.028 23.9467 11.4147ZM26.4 11.8049C26.55 11.7126 26.6211 11.5175 26.6133 11.2196C26.4634 11.3119 26.3922 11.507 26.4 11.8049Z"
        fill="#F6F5F3" />
    <path opacity="0.035" fill-rule="evenodd" clip-rule="evenodd"
        d="M7.62665 5.56104C7.76887 5.69112 7.76887 5.69112 7.62665 5.56104Z" fill="#BCBDBC" />
    <path opacity="0.012" fill-rule="evenodd" clip-rule="evenodd"
        d="M4.95998 5.7561C4.95998 5.82114 4.95998 5.88619 4.95998 5.95123C4.67553 5.88619 4.67553 5.82114 4.95998 5.7561Z"
        fill="#F8F9F8" />
    <path opacity="0.012" fill-rule="evenodd" clip-rule="evenodd"
        d="M4.4267 6.14629C4.469 5.94629 4.5401 5.91377 4.64003 6.04873C4.57663 6.13933 4.50551 6.17185 4.4267 6.14629Z"
        fill="#F8F9F8" />
    <path opacity="0.035" fill-rule="evenodd" clip-rule="evenodd"
        d="M4.42669 6.14636C4.35557 6.27645 4.35557 6.27645 4.42669 6.14636Z" fill="#BCBDBC" />
    <path opacity="0.012" fill-rule="evenodd" clip-rule="evenodd"
        d="M15.9467 6.34151C16.2816 6.11891 16.6371 6.08639 17.0133 6.24395C16.6595 6.34118 16.304 6.3737 15.9467 6.34151Z"
        fill="#F8F9F8" />
    <path opacity="0.035" fill-rule="evenodd" clip-rule="evenodd"
        d="M15.2 6.53653C15.3907 6.31751 15.6041 6.285 15.84 6.43897C15.6296 6.53566 15.4162 6.56816 15.2 6.53653Z"
        fill="#DADADA" />
    <path opacity="0.012" fill-rule="evenodd" clip-rule="evenodd"
        d="M17.5467 6.53653C17.4002 6.5671 17.2579 6.53458 17.12 6.43897C17.287 6.2897 17.4292 6.32223 17.5467 6.53653Z"
        fill="#EBEBEB" />
    <path opacity="0.012" fill-rule="evenodd" clip-rule="evenodd"
        d="M15.0934 6.73172C14.9469 6.7623 14.8046 6.72977 14.6667 6.63416C14.8337 6.48489 14.9759 6.51742 15.0934 6.73172Z"
        fill="#F8F9F8" />
    <path opacity="0.012" fill-rule="evenodd" clip-rule="evenodd"
        d="M17.5467 6.73174C17.5467 6.66671 17.5467 6.60166 17.5467 6.53662C17.9734 6.60166 17.9734 6.66671 17.5467 6.73174Z"
        fill="#F8F9F8" />
    <path opacity="0.012" fill-rule="evenodd" clip-rule="evenodd"
        d="M3.78668 6.73169C3.9289 6.86178 3.9289 6.86178 3.78668 6.73169Z" fill="#F8F9F8" />
    <path opacity="0.012" fill-rule="evenodd" clip-rule="evenodd"
        d="M14.1334 6.92681C14.2135 6.71735 14.3201 6.68484 14.4534 6.82925C14.3522 6.92345 14.2456 6.95598 14.1334 6.92681Z"
        fill="#F8F9F8" />
    <path opacity="0.012" fill-rule="evenodd" clip-rule="evenodd"
        d="M17.9733 6.92681C18.0157 6.72681 18.0867 6.69428 18.1867 6.82925C18.1233 6.91984 18.0522 6.95237 17.9733 6.92681Z"
        fill="#F8F9F8" />
    <path opacity="0.012" fill-rule="evenodd" clip-rule="evenodd"
        d="M13.28 7.51214C13.3224 7.31214 13.3934 7.27961 13.4934 7.41458C13.43 7.50517 13.3589 7.5377 13.28 7.51214Z"
        fill="#F8F9F8" />
    <path opacity="0.012" fill-rule="evenodd" clip-rule="evenodd"
        d="M12.5333 8.09753C12.6755 8.22762 12.6755 8.22762 12.5333 8.09753Z" fill="#F8F9F8" />
    <path fill-rule="evenodd" clip-rule="evenodd"
        d="M3.67999 12.3902C3.25761 12.3701 2.86649 12.305 2.50665 12.1951C3.10162 9.57861 4.13272 7.78999 5.59999 6.82925C6.29713 6.63202 6.97268 6.7621 7.62665 7.21949C8.22027 8.60285 8.14916 9.90366 7.41332 11.1219C7.03216 11.2276 6.78326 10.9349 6.66665 10.2439C6.84256 9.82439 7.03811 9.43414 7.25332 9.07315C7.42984 7.51071 7.09207 6.95785 6.23999 7.41461C5.10689 8.60878 4.25355 10.2673 3.67999 12.3902Z"
        fill="#49C129" />
    <path opacity="0.133" fill-rule="evenodd" clip-rule="evenodd"
        d="M8.90666 9.65849C8.8537 8.91513 8.74703 8.1997 8.58666 7.51215C8.37645 7.06177 8.16311 6.60649 7.94666 6.14629C7.98896 5.94629 8.06006 5.91377 8.15999 6.04873C8.70733 6.81882 8.99176 7.82694 9.01332 9.07312C9.12554 9.04395 9.2322 9.07648 9.33332 9.17068C9.13922 9.20978 8.997 9.37238 8.90666 9.65849Z"
        fill="#5F5F5F" />
    <path opacity="0.243" fill-rule="evenodd" clip-rule="evenodd"
        d="M8.58667 7.51221C8.74704 8.19976 8.85371 8.91519 8.90667 9.65855C8.83499 9.80828 8.7461 9.93837 8.64 10.0488C8.72116 9.21045 8.70337 8.36493 8.58667 7.51221Z"
        fill="#090909" />
    <path opacity="0.012" fill-rule="evenodd" clip-rule="evenodd"
        d="M10.08 8.87809C10.2708 8.65906 10.4841 8.62655 10.72 8.78053C10.5096 8.87721 10.2963 8.90972 10.08 8.87809Z"
        fill="#F8F9F8" />
    <path opacity="0.012" fill-rule="evenodd" clip-rule="evenodd"
        d="M12.2133 8.68298C12.3227 8.76037 12.3405 8.89044 12.2667 9.07323C12.2172 8.95725 12.1994 8.82716 12.2133 8.68298Z"
        fill="#F8F9F8" />
    <path opacity="0.012" fill-rule="evenodd" clip-rule="evenodd"
        d="M9.44 9.07315C9.55743 8.85885 9.69966 8.82632 9.86667 8.97559C9.72873 9.0712 9.5865 9.10373 9.44 9.07315Z"
        fill="#F8F9F8" />
    <path opacity="0.012" fill-rule="evenodd" clip-rule="evenodd"
        d="M10.9333 9.07315C11.0508 8.85885 11.193 8.82632 11.36 8.97559C11.2221 9.0712 11.0798 9.10373 10.9333 9.07315Z"
        fill="#F8F9F8" />
    <path opacity="0.012" fill-rule="evenodd" clip-rule="evenodd"
        d="M11.4667 9.26824C11.509 9.06824 11.5801 9.03571 11.68 9.17068C11.6166 9.26127 11.5455 9.2938 11.4667 9.26824Z"
        fill="#F8F9F8" />
    <path fill-rule="evenodd" clip-rule="evenodd"
        d="M18.2933 13.7562C18.262 13.1745 18.1197 13.0444 17.8666 13.3659C18.5071 12.4249 18.6671 11.2541 18.3466 9.85372C18.1782 9.55299 17.9826 9.32536 17.76 9.17079C17.3348 9.07346 16.9081 9.04094 16.48 9.07323C16.2111 10.5124 15.8556 11.8782 15.4133 13.1708C15.3335 12.7347 15.2447 12.7997 15.1466 13.3659C14.9688 13.2358 14.7911 13.1058 14.6133 12.9757C14.5778 13.1058 14.5422 13.2358 14.5066 13.3659C14.4641 13.3213 14.4464 13.2563 14.4533 13.1708C14.663 12.0794 14.8408 10.9737 14.9866 9.85372C14.4754 10.1098 13.9954 10.5001 13.5466 11.0244C12.8303 9.83255 12.9546 9.01953 13.92 8.58542C15.264 7.77941 16.6151 7.71438 17.9733 8.3903C18.7793 9.33629 19.046 10.6696 18.7733 12.3903C18.6639 12.9247 18.5039 13.38 18.2933 13.7562Z"
        fill="#D76916" />
    <path opacity="0.012" fill-rule="evenodd" clip-rule="evenodd"
        d="M12.1067 9.26831C12.2489 9.3984 12.2489 9.3984 12.1067 9.26831Z" fill="#F8F9F8" />
    <path fill-rule="evenodd" clip-rule="evenodd"
        d="M17.8667 13.3659C17.0213 14.0762 16.1325 14.4665 15.2 14.5366C15.2403 14.0642 15.3115 13.609 15.4133 13.1708C15.8556 11.8782 16.2111 10.5123 16.48 9.07322C16.9082 9.04093 17.3348 9.07346 17.76 9.17078C17.9826 9.32536 18.1783 9.55299 18.3467 9.85371C18.6671 11.2541 18.5071 12.4249 17.8667 13.3659Z"
        fill="#FCF8F6" />
    <path opacity="0.012" fill-rule="evenodd" clip-rule="evenodd"
        d="M27.4667 9.46338C27.6089 9.59347 27.6089 9.59347 27.4667 9.46338Z" fill="#F8F9F8" />
    <path opacity="0.012" fill-rule="evenodd" clip-rule="evenodd"
        d="M27.7867 9.85369C27.8668 9.64423 27.9735 9.61172 28.1067 9.75613C28.0056 9.85033 27.8989 9.88286 27.7867 9.85369Z"
        fill="#F8F9F8" />
    <path opacity="0.176" fill-rule="evenodd" clip-rule="evenodd"
        d="M19.8933 10.8293C19.6897 10.5992 19.6542 10.6642 19.7867 11.0244C19.7867 11.0894 19.7867 11.1545 19.7867 11.2195C19.6803 11.2254 19.6092 11.1278 19.5733 10.9268C19.4566 9.64284 19.1366 8.56967 18.6133 7.70733C18.6557 7.50733 18.7267 7.4748 18.8267 7.60977C19.3821 8.46276 19.7376 9.53593 19.8933 10.8293Z"
        fill="#2D2D2D" />
    <path opacity="0.012" fill-rule="evenodd" clip-rule="evenodd"
        d="M28.2133 10.0488C28.2557 9.84876 28.3267 9.81623 28.4267 9.9512C28.3633 10.0418 28.2921 10.0743 28.2133 10.0488Z"
        fill="#F8F9F8" />
    <path fill-rule="evenodd" clip-rule="evenodd"
        d="M10.72 10.6341C10.6489 10.6341 10.6133 10.6991 10.6133 10.8292C10.2706 10.8897 9.95059 10.8247 9.65332 10.6341C10.0233 10.4 10.3789 10.4 10.72 10.6341Z"
        fill="#A3D59B" />
    <path opacity="0.024" fill-rule="evenodd" clip-rule="evenodd"
        d="M29.3866 11.6097C29.1086 11.4504 28.8952 11.1252 28.7466 10.6341C28.753 10.5281 28.7886 10.4631 28.8533 10.439C29.0614 10.8531 29.3104 11.1458 29.6 11.317C29.5023 11.3713 29.4312 11.4689 29.3866 11.6097Z"
        fill="#535353" />
    <path fill-rule="evenodd" clip-rule="evenodd"
        d="M9.65333 10.6342C9.9506 10.8247 10.2706 10.8898 10.6133 10.8293C11.2317 10.8744 11.7294 11.3297 12.1067 12.1951C12.0408 12.2167 11.9875 12.2818 11.9467 12.3903C11.9376 12.6994 11.9199 12.9596 11.8933 13.1707C11.68 12.9756 11.4667 12.7805 11.2533 12.5854C9.60338 12.8069 8.75004 14.4329 8.69333 17.4634C8.03712 14.8544 8.46378 13.0983 9.97333 12.1951C10.4063 12.208 10.833 12.2405 11.2533 12.2927C10.9964 11.9597 10.712 11.797 10.4 11.8049C8.67992 12.0885 7.96881 13.7795 8.26666 16.8781C8.0852 16.7871 7.9252 16.7871 7.78666 16.8781C7.76426 16.574 7.71093 16.3139 7.62666 16.0976C7.66327 15.7106 7.59216 15.4504 7.41333 15.3171C7.5233 15.171 7.64774 15.0409 7.78666 14.9268C7.83952 14.5419 7.85729 14.1517 7.84 13.7561C7.69778 13.7561 7.55555 13.7561 7.41333 13.7561C7.53157 13.602 7.6738 13.5044 7.84 13.4634C8.23449 12.0581 8.83894 11.115 9.65333 10.6342Z"
        fill="#D8DBD7" />
    <path opacity="0.035" fill-rule="evenodd" clip-rule="evenodd"
        d="M19.8933 10.8293C19.9645 10.8293 20 10.8943 20 11.0244C19.9288 11.0244 19.8578 11.0244 19.7867 11.0244C19.6542 10.6642 19.6897 10.5991 19.8933 10.8293Z"
        fill="#A3A3A3" />
    <path opacity="0.035" fill-rule="evenodd" clip-rule="evenodd"
        d="M20 11.2195C20 11.1545 20 11.0894 20 11.0244C20.2845 11.0894 20.2845 11.1545 20 11.2195Z"
        fill="#D0D0D0" />
    <path opacity="0.012" fill-rule="evenodd" clip-rule="evenodd"
        d="M20.32 11.2195C20.4622 11.3496 20.4622 11.3496 20.32 11.2195Z" fill="#F8F9F8" />
    <path opacity="0.012" fill-rule="evenodd" clip-rule="evenodd"
        d="M21.28 11.4146C21.3975 11.2003 21.5397 11.1678 21.7067 11.317C21.5688 11.4126 21.4265 11.4452 21.28 11.4146Z"
        fill="#F8F9F8" />
    <path opacity="0.012" fill-rule="evenodd" clip-rule="evenodd"
        d="M25.2267 11.2195C25.3689 11.3496 25.3689 11.3496 25.2267 11.2195Z" fill="#F8F9F8" />
    <path opacity="0.012" fill-rule="evenodd" clip-rule="evenodd"
        d="M21.92 11.6098C21.9623 11.4098 22.0334 11.3773 22.1333 11.5122C22.07 11.6028 21.9988 11.6354 21.92 11.6098Z"
        fill="#F8F9F8" />
    <path opacity="0.012" fill-rule="evenodd" clip-rule="evenodd"
        d="M23.4133 11.6098C23.4557 11.4098 23.5267 11.3773 23.6267 11.5122C23.5633 11.6028 23.4922 11.6354 23.4133 11.6098Z"
        fill="#F8F9F8" />
    <path opacity="0.012" fill-rule="evenodd" clip-rule="evenodd"
        d="M29.7067 11.6098C29.7868 11.4003 29.8934 11.3678 30.0267 11.5122C29.9255 11.6064 29.8189 11.639 29.7067 11.6098Z"
        fill="#F8F9F8" />
    <path opacity="0.012" fill-rule="evenodd" clip-rule="evenodd"
        d="M23.4133 11.6097C23.3422 11.7398 23.3422 11.7398 23.4133 11.6097Z" fill="#F8F9F8" />
    <path opacity="0.035" fill-rule="evenodd" clip-rule="evenodd"
        d="M23.3067 11.8049C23.3067 11.87 23.3067 11.935 23.3067 12.0001C23.2352 11.9061 23.2352 11.8411 23.3067 11.8049Z"
        fill="#BCBDBC" />
    <path fill-rule="evenodd" clip-rule="evenodd"
        d="M10.4 11.8048C10.712 11.797 10.9964 11.9596 11.2533 12.2926C10.833 12.2405 10.4063 12.2079 9.97333 12.1951C10.1155 12.065 10.2578 11.9349 10.4 11.8048Z"
        fill="#93BD8C" />
    <path opacity="0.067" fill-rule="evenodd" clip-rule="evenodd"
        d="M20.64 11.8049C20.7467 11.5447 20.8533 11.5447 20.96 11.8049C20.8889 11.8049 20.8533 11.8699 20.8533 12C20.8178 12.2601 20.7822 12.2601 20.7467 12C20.6755 12 20.64 11.9349 20.64 11.8049Z"
        fill="#565656" />
    <path opacity="0.012" fill-rule="evenodd" clip-rule="evenodd"
        d="M22.9867 12C23.1289 12.1301 23.1289 12.1301 22.9867 12Z" fill="#F8F9F8" />
    <path fill-rule="evenodd" clip-rule="evenodd"
        d="M10.4 11.8049C10.2578 11.935 10.1156 12.0651 9.97336 12.1952C8.46381 13.0984 8.03715 14.8545 8.69336 17.4635C8.7584 17.6373 8.79396 17.8324 8.80003 18.0488C8.57141 17.7306 8.39363 17.3404 8.26669 16.8781C7.96884 13.7795 8.67995 12.0885 10.4 11.8049Z"
        fill="#44B02F" />
    <path opacity="0.153" fill-rule="evenodd" clip-rule="evenodd"
        d="M22.7733 12.7805C22.7022 12.7805 22.6667 12.8455 22.6667 12.9756C22.5264 12.8999 22.4197 12.6397 22.3467 12.1951C22.3899 11.9903 22.4609 11.9903 22.56 12.1951C22.6587 12.3623 22.7298 12.5575 22.7733 12.7805Z"
        fill="#383838" />
    <path opacity="0.302" fill-rule="evenodd" clip-rule="evenodd"
        d="M26.1867 12.7805C26.2025 12.9858 26.1848 13.1809 26.1333 13.3659C26.0254 12.8387 25.8654 12.3834 25.6533 12.0001C25.6464 11.9146 25.6641 11.8495 25.7067 11.8049C25.803 12.0394 25.9273 12.202 26.08 12.2927C26.1602 12.4236 26.1958 12.5862 26.1867 12.7805Z"
        fill="#515151" />
    <path fill-rule="evenodd" clip-rule="evenodd"
        d="M12.1066 12.1951C12.9484 13.6572 13.1794 15.4133 12.8 17.4634C12.5753 18.3524 12.2732 19.1329 11.8933 19.8048C12.206 19.4944 12.4904 19.1042 12.7466 18.6341C12.517 19.4765 12.1615 20.0944 11.68 20.4878C11.0721 20.8173 10.4677 21.045 9.86665 21.1707C9.31864 21.0597 8.85641 20.637 8.47998 19.9024C8.78569 20.148 9.10569 20.3432 9.43998 20.4878C8.38224 19.639 7.77779 18.1756 7.62665 16.0975C7.71091 16.3138 7.76425 16.574 7.78665 16.878C7.92519 16.787 8.08519 16.787 8.26665 16.878C8.39358 17.3403 8.57136 17.7305 8.79998 18.0487C8.79391 17.8323 8.75836 17.6372 8.69331 17.4634C8.75003 14.4329 9.60336 12.8069 11.2533 12.5853C11.4666 12.7804 11.68 12.9756 11.8933 13.1707C11.9199 12.9595 11.9376 12.6994 11.9466 12.3902C11.9875 12.2817 12.0408 12.2167 12.1066 12.1951Z"
        fill="#E9EAE9" />
    <path fill-rule="evenodd" clip-rule="evenodd"
        d="M10.6133 10.8293C10.6133 10.6992 10.6489 10.6342 10.72 10.6342C11.9561 10.9104 12.7561 12.1462 13.12 14.3415C13.185 15.3876 13.1672 16.4282 13.0667 17.4634C12.9058 17.7915 12.7992 18.1818 12.7467 18.6342C12.4905 19.1042 12.206 19.4945 11.8933 19.8049C12.2732 19.1329 12.5754 18.3524 12.8 17.4634C13.1794 15.4134 12.9484 13.6573 12.1067 12.1951C11.7294 11.3297 11.2317 10.8744 10.6133 10.8293Z"
        fill="#38B621" />
    <path opacity="0.012" fill-rule="evenodd" clip-rule="evenodd"
        d="M1.11997 13.7561C1.23448 13.9026 1.25225 14.0977 1.17331 14.3415C1.12181 14.1565 1.10403 13.9614 1.11997 13.7561Z"
        fill="#F8F9F8" />
    <path fill-rule="evenodd" clip-rule="evenodd"
        d="M25.3333 14.9268C25.2607 14.6032 25.1717 14.278 25.0667 13.9512C25.0032 14.2241 25.021 14.4843 25.12 14.7317C25.0246 14.735 24.918 14.8001 24.8 14.9268C24.8 14.6666 24.8 14.4065 24.8 14.1463C23.9978 14.5075 23.4644 15.418 23.2 16.878C23.123 16.7965 23.0696 16.6665 23.04 16.4878C22.8711 16.4864 22.6934 16.5514 22.5067 16.6829C22.4917 16.3404 22.5451 16.0151 22.6667 15.7073C22.6534 15.5889 22.6179 15.5239 22.56 15.5122C22.9552 13.8777 23.6308 12.9021 24.5867 12.5853C25.4175 12.7039 25.6664 13.4844 25.3333 14.9268Z"
        fill="#D46717" />
    <path fill-rule="evenodd" clip-rule="evenodd"
        d="M7.41334 13.7561C7.55555 13.7561 7.69778 13.7561 7.84 13.7561C7.85729 14.1517 7.83952 14.5419 7.78667 14.9268C7.64775 15.0409 7.52331 15.171 7.41334 15.3171C7.2978 16.4209 7.08447 17.4616 6.77334 18.439C6.67245 18.1598 6.548 17.8997 6.4 17.6585C6.35919 17.767 6.30586 17.8321 6.24 17.8537C6.31543 17.2125 6.35099 16.5621 6.34667 15.9024C5.6286 16.1658 4.91748 16.491 4.21333 16.8781C3.81451 16.9032 3.72562 16.643 3.94667 16.0976C5.00371 14.8351 6.15927 14.0546 7.41334 13.7561Z"
        fill="#3BA122" />
    <path fill-rule="evenodd" clip-rule="evenodd"
        d="M15.4133 13.1707C15.3114 13.6089 15.2403 14.0642 15.2 14.5366C16.1325 14.4664 17.0213 14.0762 17.8666 13.3658C18.1197 13.0443 18.2619 13.1744 18.2933 13.7561C17.3848 15.7242 16.2648 16.3096 14.9333 15.5122C14.8424 15.7211 14.7536 15.9162 14.6666 16.0975C14.6781 15.731 14.6247 15.666 14.5066 15.9024C14.3863 16.2625 14.333 16.6527 14.3466 17.0732C14.0737 17.132 13.8247 17.067 13.6 16.878C13.6711 16.4878 13.7422 16.0975 13.8133 15.7073C14.0283 14.8476 14.2417 14.0021 14.4533 13.1707C14.4464 13.2562 14.4641 13.3213 14.5066 13.3658C14.5422 13.2358 14.5778 13.1057 14.6133 12.9756C14.7911 13.1057 14.9688 13.2358 15.1466 13.3658C15.2447 12.7997 15.3335 12.7346 15.4133 13.1707Z"
        fill="#BC5A17" />
    <path fill-rule="evenodd" clip-rule="evenodd"
        d="M24.8 14.9269C24.4111 16.3208 23.8244 17.3615 23.04 18.0488C22.9964 17.6205 23.0497 17.2302 23.2 16.8781C23.4644 15.4181 23.9978 14.5075 24.8 14.1464C24.8 14.4065 24.8 14.6667 24.8 14.9269Z"
        fill="#F8EFEC" />
    <path opacity="0.012" fill-rule="evenodd" clip-rule="evenodd"
        d="M1.01334 14.5366C1.12785 14.6831 1.14562 14.8782 1.06668 15.122C1.01518 14.937 0.997401 14.7419 1.01334 14.5366Z"
        fill="#F8F9F8" />
    <path fill-rule="evenodd" clip-rule="evenodd"
        d="M20.4267 15.5122C20.3912 15.3821 20.3555 15.252 20.32 15.1219C20.6575 14.4716 20.9775 13.7886 21.28 13.0732C21.4543 12.9769 21.6321 12.9443 21.8133 12.9756C21.6954 14.0855 21.6777 15.1912 21.76 16.2927C21.6533 16.4878 21.5467 16.6829 21.44 16.878C21.147 16.4893 20.9158 16.0015 20.7467 15.4146C20.6318 15.323 20.5251 15.3555 20.4267 15.5122Z"
        fill="#CD6215" />
    <path fill-rule="evenodd" clip-rule="evenodd"
        d="M26.6133 18.8292C26.6225 18.6349 26.5869 18.4723 26.5067 18.3414C26.3359 18.2881 26.1759 18.1905 26.0267 18.0487C25.9681 18.4896 25.8436 18.8148 25.6533 19.0244C26.1324 16.4916 26.6835 14.0201 27.3067 11.6097C27.6907 11.1392 28.064 11.2042 28.4267 11.8048C27.9404 12.9976 27.6027 14.2984 27.4133 15.7073C27.7473 14.9009 28.1206 14.1529 28.5333 13.4634C29.9725 12.4531 30.4525 13.3311 29.9733 16.0975C29.6747 18.3378 28.9458 19.8663 27.7867 20.6829C27.5231 20.8206 27.2741 20.7557 27.04 20.4878C28.0625 19.059 28.7558 17.2053 29.12 14.9268C29.1989 14.4047 29.2344 13.8844 29.2267 13.3658C28.1438 14.8582 27.2726 16.6793 26.6133 18.8292Z"
        fill="#CB6217" />
    <path fill-rule="evenodd" clip-rule="evenodd"
        d="M2.50664 12.1951C2.86648 12.305 3.2576 12.3701 3.67997 12.3902C3.13859 14.416 2.92525 16.5623 3.03997 18.8292C2.95186 17.8894 2.89852 16.9138 2.87997 15.9024C2.87048 16.5909 2.79938 17.2413 2.66664 17.8536C2.47208 17.7095 2.25875 17.6445 2.02664 17.6585C1.99109 17.1382 1.95553 16.6178 1.91997 16.0975C1.90128 16.9794 1.84794 17.8249 1.75997 18.6341C1.69406 16.8311 1.81851 15.075 2.13331 13.3658C2.2097 12.9016 2.33414 12.5113 2.50664 12.1951Z"
        fill="#389F1F" />
    <path opacity="0.035" fill-rule="evenodd" clip-rule="evenodd"
        d="M0.906671 15.317C1.02539 15.5992 1.04316 15.9245 0.960004 16.2926C0.907363 15.9738 0.889585 15.6486 0.906671 15.317Z"
        fill="#D8D8D8" />
    <path fill-rule="evenodd" clip-rule="evenodd"
        d="M19.68 15.9024C19.4067 16.3225 19.1044 16.3875 18.7733 16.0975C18.7424 16.5696 18.6534 16.8297 18.5067 16.878C18.7112 15.3326 19.0312 13.8692 19.4667 12.4878C19.8476 12.4274 20.1676 12.655 20.4267 13.1707C20.0641 13.9767 19.8152 14.8873 19.68 15.9024Z"
        fill="#CC6215" />
    <path fill-rule="evenodd" clip-rule="evenodd"
        d="M20.32 15.1219C20.3555 15.252 20.3911 15.3821 20.4267 15.5122C19.4418 16.9682 18.873 18.8544 18.72 21.1707C18.3634 21.1705 18.1144 20.8779 17.9733 20.2927C18.0786 19.0928 18.2564 17.9546 18.5067 16.878C18.6534 16.8298 18.7424 16.5696 18.7733 16.0976C19.1044 16.3876 19.4067 16.3225 19.68 15.9024C19.6731 15.9879 19.6908 16.053 19.7333 16.0976C19.9151 15.732 20.1106 15.4068 20.32 15.1219Z"
        fill="#B3551B" />
    <path opacity="0.012" fill-rule="evenodd" clip-rule="evenodd"
        d="M0.80003 16.4878C0.920997 16.969 0.938775 17.4894 0.853364 18.0488C0.800306 17.5325 0.782528 17.0121 0.80003 16.4878Z"
        fill="#F8F9F8" />
    <path opacity="0.012" fill-rule="evenodd" clip-rule="evenodd"
        d="M17.44 17.8536C17.4559 18.0589 17.4382 18.254 17.3867 18.439C17.3078 18.1952 17.3256 18.0001 17.44 17.8536Z"
        fill="#F8F9F8" />
    <path opacity="0.2" fill-rule="evenodd" clip-rule="evenodd"
        d="M21.1733 18.0488C21.4078 18.031 21.4433 18.1611 21.28 18.439C21.2445 18.439 21.2089 18.439 21.1733 18.439C21.1733 18.3089 21.1733 18.1789 21.1733 18.0488Z"
        fill="#0B0B0B" />
    <path opacity="0.012" fill-rule="evenodd" clip-rule="evenodd"
        d="M20.96 18.0488C21.0312 18.0488 21.1022 18.0488 21.1734 18.0488C21.1734 18.1789 21.1734 18.3089 21.1734 18.439C21.1901 18.707 21.1723 18.9672 21.12 19.2195C21.0864 18.8126 21.0331 18.4223 20.96 18.0488Z"
        fill="#E3E3E3" />
    <path fill-rule="evenodd" clip-rule="evenodd"
        d="M25.3333 14.9268C24.8498 16.8204 24.0498 18.0562 22.9333 18.6341C22.8803 19.0848 22.8626 19.54 22.88 20C22.7932 19.5841 22.7398 19.1288 22.72 18.6341C22.5754 18.8058 22.4154 18.8709 22.24 18.8292C22.2851 18.3841 22.214 18.0589 22.0267 17.8536C22.052 17.2395 22.1408 16.6541 22.2933 16.0975C22.3336 15.8161 22.4224 15.621 22.56 15.5121C22.6179 15.5239 22.6534 15.5889 22.6667 15.7073C22.5451 16.0151 22.4917 16.3403 22.5067 16.6829C22.6934 16.5514 22.8712 16.4864 23.04 16.4878C23.0697 16.6664 23.123 16.7965 23.2 16.878C23.0497 17.2302 22.9964 17.6204 23.04 18.0487C23.8244 17.3614 24.4111 16.3208 24.8 14.9268C24.918 14.8001 25.0246 14.735 25.12 14.7317C25.021 14.4843 25.0032 14.2241 25.0667 13.9512C25.1717 14.278 25.2607 14.6032 25.3333 14.9268Z"
        fill="#B75516" />
    <path fill-rule="evenodd" clip-rule="evenodd"
        d="M8.79999 18.0488C9.01803 18.1524 9.1958 18.38 9.33332 18.7317C9.26221 18.8618 9.1911 18.8618 9.11999 18.7317C8.95328 18.5836 8.84661 18.356 8.79999 18.0488Z"
        fill="#77CC62" />
    <path fill-rule="evenodd" clip-rule="evenodd"
        d="M13.8133 15.7074C13.7422 16.0976 13.6711 16.4879 13.6 16.8781C13.3446 18.0074 13.0602 19.1131 12.7466 20.1952C12.7606 20.051 12.7428 19.9208 12.6933 19.8049C11.8606 20.9513 10.9184 21.4065 9.86664 21.1708C10.4677 21.0451 11.0721 20.8174 11.68 20.4879C12.1615 20.0945 12.517 19.4766 12.7466 18.6342C12.7991 18.1818 12.9058 17.7916 13.0666 17.4635C13.2767 16.9613 13.3833 16.3759 13.3866 15.7074C13.3137 14.984 13.2603 14.2686 13.2266 13.561C13.3736 14.3591 13.5691 15.0745 13.8133 15.7074Z"
        fill="#ACA9A6" />
    <path opacity="0.012" fill-rule="evenodd" clip-rule="evenodd"
        d="M17.3333 19.4146C17.2162 19.1998 17.1984 18.9397 17.28 18.6342C17.3322 18.8865 17.3501 19.1467 17.3333 19.4146Z"
        fill="#F8F9F8" />
    <path opacity="0.012" fill-rule="evenodd" clip-rule="evenodd"
        d="M0.906671 18.2439C1.02539 18.5261 1.04316 18.8513 0.960004 19.2195C0.907363 18.9007 0.889585 18.5754 0.906671 18.2439Z"
        fill="#F3F3F3" />
    <path fill-rule="evenodd" clip-rule="evenodd"
        d="M14.6667 16.0975C14.2264 18.0589 13.8707 20.0753 13.6 22.1463C13.009 21.8548 12.7245 21.2045 12.7467 20.1951C13.0603 19.113 13.3447 18.0073 13.6 16.878C13.8248 17.0669 14.0737 17.132 14.3467 17.0731C14.333 16.6527 14.3864 16.2625 14.5067 15.9024C14.6248 15.6659 14.6781 15.731 14.6667 16.0975Z"
        fill="#A34B18" />
    <path fill-rule="evenodd" clip-rule="evenodd"
        d="M26.6133 18.8293C26.3692 20.1779 26.1559 21.5438 25.9733 22.9268C25.8914 22.7779 25.838 22.5828 25.8133 22.3414C25.6355 22.4716 25.4578 22.6015 25.28 22.7317C25.2444 22.6667 25.2088 22.6015 25.1733 22.5366C25.0886 23.1163 25.0175 23.7016 24.96 24.2927C24.9084 24.1077 24.8907 23.9126 24.9066 23.7073C25.0567 22.088 25.3056 20.527 25.6533 19.0244C25.8436 18.8149 25.9681 18.4897 26.0266 18.0488C26.1759 18.1905 26.3359 18.2881 26.5066 18.3415C26.5868 18.4723 26.6225 18.6349 26.6133 18.8293Z"
        fill="#B55515" />
    <path opacity="0.012" fill-rule="evenodd" clip-rule="evenodd"
        d="M1.11997 19.4146C1.13592 19.6199 1.11814 19.815 1.06664 20C0.987692 19.7563 1.00547 19.5611 1.11997 19.4146Z"
        fill="#F8F9F8" />
    <path opacity="0.012" fill-rule="evenodd" clip-rule="evenodd"
        d="M21.28 20.1951C21.1655 20.0486 21.1477 19.8534 21.2267 19.6097C21.2782 19.7947 21.2959 19.9898 21.28 20.1951Z"
        fill="#F8F9F8" />
    <path fill-rule="evenodd" clip-rule="evenodd"
        d="M22.0267 17.8536C22.214 18.0589 22.2851 18.3841 22.24 18.8292C22.4154 18.8709 22.5754 18.8059 22.72 18.6341C22.7399 19.1289 22.7932 19.5842 22.88 20C23.0017 20.3373 23.1794 20.5325 23.4133 20.5853C24.0453 20.2667 24.5787 19.6488 25.0133 18.7317C25.1021 18.5975 25.1731 18.63 25.2267 18.8292C24.7653 20.1286 24.1253 20.974 23.3067 21.3658C22.2451 20.983 21.8185 19.8123 22.0267 17.8536Z"
        fill="#A04719" />
    <path opacity="0.035" fill-rule="evenodd" clip-rule="evenodd"
        d="M17.12 19.6097C17.2345 19.7563 17.2523 19.9514 17.1733 20.1951C17.1218 20.0101 17.1041 19.815 17.12 19.6097Z"
        fill="#DADADA" />
    <path fill-rule="evenodd" clip-rule="evenodd"
        d="M11.8934 19.8049C11.7421 20.2357 11.5288 20.3984 11.2534 20.2927C11.4568 20.0737 11.6701 19.9112 11.8934 19.8049Z"
        fill="#5EAF4F" />
    <path opacity="0.012" fill-rule="evenodd" clip-rule="evenodd"
        d="M21.28 20.1951C21.3155 20.1951 21.3512 20.1951 21.3867 20.1951C21.3512 20.7155 21.3155 20.7155 21.28 20.1951Z"
        fill="#E4E4E4" />
    <path opacity="0.101" fill-rule="evenodd" clip-rule="evenodd"
        d="M30.1333 12.0001C30.1757 11.8001 30.2467 11.7675 30.3467 11.9025C31.0594 13.0857 31.2906 14.5491 31.04 16.2927C30.6544 19.7946 29.5166 21.9409 27.6267 22.7318C27.4704 22.5698 27.3104 22.5374 27.1467 22.6342C26.8173 24.6213 26.4795 26.6051 26.1333 28.5854C25.7408 29.0871 25.3675 29.0871 25.0133 28.5854C24.9778 28.4553 24.9422 28.3253 24.9067 28.1952C25.2312 28.4941 25.5335 28.4291 25.8133 28.0001C26.1433 25.9435 26.481 23.8947 26.8267 21.8537C27.3263 22.0346 27.824 21.9696 28.32 21.6586C29.8229 20.0992 30.6407 17.7252 30.7733 14.5366C30.8018 13.5846 30.6241 12.8041 30.24 12.1952C30.1689 12.1952 30.1333 12.1301 30.1333 12.0001Z"
        fill="#181818" />
    <path opacity="0.012" fill-rule="evenodd" clip-rule="evenodd"
        d="M17.12 20.5854C17.2294 20.6629 17.2472 20.7928 17.1734 20.9756C17.1239 20.8597 17.1061 20.7296 17.12 20.5854Z"
        fill="#F8F9F8" />
    <path fill-rule="evenodd" clip-rule="evenodd"
        d="M3.04001 18.8293C3.18765 19.5682 3.3832 20.2837 3.62668 20.9756C3.95866 21.6045 4.33199 21.7021 4.74668 21.2683C5.38858 20.3237 5.88636 19.1856 6.24001 17.8537C6.30587 17.8321 6.3592 17.7671 6.40001 17.6586C6.54801 17.8997 6.67246 18.1599 6.77334 18.4391C6.24184 20.5819 5.35295 21.9477 4.10668 22.5366C2.74458 22.3858 1.96235 21.0851 1.76001 18.6342C1.84798 17.825 1.90131 16.9794 1.92001 16.0976C1.95556 16.6179 1.99112 17.1382 2.02668 17.6586C2.25878 17.6446 2.47212 17.7096 2.66668 17.8537C2.79941 17.2414 2.87052 16.5909 2.88001 15.9025C2.89856 16.9139 2.95189 17.8895 3.04001 18.8293Z"
        fill="#348523" />
    <path opacity="0.024" fill-rule="evenodd" clip-rule="evenodd"
        d="M17.76 16.8781C17.6706 16.9447 17.635 17.0748 17.6533 17.2683C17.5569 17.4067 17.5214 17.6018 17.5467 17.8537C17.5111 17.8537 17.4755 17.8537 17.44 17.8537C17.4559 17.6484 17.4382 17.4533 17.3867 17.2683C16.7928 17.7191 16.1707 17.9467 15.52 17.9512C15.0768 19.6679 14.739 21.4564 14.5067 23.3171C14.0782 24.0016 13.6338 24.0666 13.1733 23.5122C13.22 23.5249 13.2557 23.4925 13.28 23.4147C13.1823 23.3604 13.1112 23.2629 13.0667 23.122C13.5012 23.5029 13.8745 23.3727 14.1867 22.7317C14.4372 20.7713 14.7927 18.8851 15.2533 17.0732C16.2239 17.3551 17.1127 16.9649 17.92 15.9025C17.933 16.2501 17.8797 16.5753 17.76 16.8781Z"
        fill="#1A1A1A" />
    <path opacity="0.012" fill-rule="evenodd" clip-rule="evenodd"
        d="M1.44003 20.9756C1.454 21.1198 1.43622 21.2499 1.38669 21.3658C1.31291 21.183 1.33069 21.053 1.44003 20.9756Z"
        fill="#E4E4E4" />
    <path opacity="0.012" fill-rule="evenodd" clip-rule="evenodd"
        d="M1.65331 21.561C1.72443 21.561 1.75998 21.6259 1.75998 21.7561C1.75998 21.8862 1.75998 22.0162 1.75998 22.1463C1.55926 22.0057 1.52369 21.8105 1.65331 21.561Z"
        fill="#E0E0E0" />
    <path opacity="0.069" fill-rule="evenodd" clip-rule="evenodd"
        d="M21.1733 18.0488C21.1022 18.0488 21.0311 18.0488 20.96 18.0488C20.8537 18.0655 20.7649 18.0005 20.6933 17.8537C20.1116 19.1566 19.756 20.6525 19.6266 22.3415C19.1628 23.2576 18.6472 23.3551 18.08 22.6342C17.7997 22.3169 17.5508 21.9266 17.3333 21.4634C17.3926 21.3887 17.4281 21.2911 17.44 21.1707C17.6716 21.561 17.9204 21.9188 18.1866 22.2439C18.647 22.7407 19.0204 22.5782 19.3066 21.7561C19.4042 19.9036 19.8131 18.3426 20.5333 17.0732C20.7542 17.402 20.9676 17.7272 21.1733 18.0488Z"
        fill="#1C1C1C" />
    <path opacity="0.024" fill-rule="evenodd" clip-rule="evenodd"
        d="M12.32 21.9512C12.2489 21.9512 12.2133 22.0162 12.2133 22.1463C10.4355 23.3654 8.90659 22.7151 7.62668 20.1951C7.2188 20.9742 6.82769 21.7873 6.45334 22.6341C4.80685 24.9588 3.2424 24.7961 1.76001 22.1463C1.76001 22.0162 1.76001 21.8862 1.76001 21.7561C2.8234 23.6086 4.03229 24.0314 5.38668 23.0244C6.16958 21.9498 6.84513 20.6815 7.41334 19.2195C8.66267 22.0509 10.2093 22.7664 12.0533 21.3658C12.1931 21.4888 12.282 21.6839 12.32 21.9512Z"
        fill="#1E1E1E" />
    <path opacity="0.118" fill-rule="evenodd" clip-rule="evenodd"
        d="M21.8133 21.3658C22.6285 22.7356 23.4995 22.8657 24.4267 21.7561C24.4397 22.1038 24.3863 22.4289 24.2667 22.7317C24.1847 22.8806 24.1314 23.0757 24.1067 23.3171C24.0711 23.1869 24.0355 23.057 24 22.9268C23.091 23.3877 22.3266 22.8999 21.7067 21.4634C21.731 21.3855 21.7666 21.3532 21.8133 21.3658Z"
        fill="#272727" />
    <path opacity="0.094" fill-rule="evenodd" clip-rule="evenodd"
        d="M12.32 21.9512C12.5715 22.3471 12.8205 22.7374 13.0667 23.122C13.1112 23.2628 13.1823 23.3604 13.28 23.4146C13.2557 23.4925 13.22 23.5249 13.1733 23.5122C12.7613 23.2792 12.4413 22.824 12.2133 22.1464C12.2133 22.0162 12.2488 21.9512 12.32 21.9512Z"
        fill="#6D6D6D" />
    <path fill-rule="evenodd" clip-rule="evenodd"
        d="M25.9734 22.9269C25.7099 24.3331 25.4787 25.7641 25.28 27.2195C24.8157 26.1532 24.6912 24.9825 24.9067 23.7073C24.8908 23.9126 24.9085 24.1077 24.96 24.2927C25.0175 23.7017 25.0887 23.1163 25.1734 22.5366C25.2089 22.6016 25.2445 22.6668 25.28 22.7317C25.4578 22.6016 25.6355 22.4716 25.8134 22.3415C25.8381 22.5829 25.8914 22.778 25.9734 22.9269Z"
        fill="#A14A18" />
    <path opacity="0.012" fill-rule="evenodd" clip-rule="evenodd"
        d="M23.9467 23.7073C24.069 24.5163 24.0868 25.362 24 26.2439C23.9468 25.4008 23.929 24.5553 23.9467 23.7073Z"
        fill="#EAEAEA" />
    <path opacity="0.012" fill-rule="evenodd" clip-rule="evenodd"
        d="M24.0533 26.439C24.1955 26.5692 24.1955 26.5692 24.0533 26.439Z" fill="#F8F9F8" />
    <path opacity="0.043" fill-rule="evenodd" clip-rule="evenodd"
        d="M24.2666 26.8293C24.3378 26.8293 24.3733 26.8943 24.3733 27.0244C24.4445 27.0244 24.48 27.0894 24.48 27.2195C24.3342 27.4835 24.2275 27.4184 24.16 27.0244C24.1732 26.906 24.2087 26.841 24.2666 26.8293Z"
        fill="#686868" />
    <path opacity="0.012" fill-rule="evenodd" clip-rule="evenodd"
        d="M24.5866 27.6097C24.7288 27.7399 24.8355 27.935 24.9066 28.1951C24.9422 28.3253 24.9778 28.4552 25.0133 28.5854C24.6799 28.4414 24.5376 28.1161 24.5866 27.6097Z"
        fill="#8A8A8A" />
</svg>