<svg width="32" height="32" viewBox="0 0 32 32" fill="none" xmlns="http://www.w3.org/2000/svg">
<path d="M21.2288 17.0186C19.2539 18.9974 16.8763 19.9877 14.0944 19.9877C11.3125 19.9877 8.93489 18.9991 6.95997 17.0186C4.98666 15.0398 4 12.6606 4 9.88118C4 7.1925 4.98666 4.87333 6.96157 2.92367C8.93489 0.974021 11.3125 0 14.0944 0H27.1054V5.89111H23.2919C23.8904 7.16009 24.1888 8.49065 24.1888 9.87958C24.1904 12.6606 23.2021 15.0398 21.2288 17.0186ZM22.8893 16.5437L28.1386 18.9909C26.0754 23.5239 23.1588 26.7183 19.3902 28.5772C15.6217 30.4361 10.7317 31.3647 4.71873 31.3647L4.8535 25.4266C7.3049 25.4266 9.37768 25.3051 11.067 25.0636C12.7564 24.8205 14.3719 24.3845 15.9121 23.7492C17.4522 23.1139 18.7758 22.2144 19.8828 21.0524C20.9881 19.8888 21.9908 18.3864 22.8893 16.5437ZM16.9436 7.25247C16.1511 6.49724 15.2014 6.11962 14.0944 6.11962C12.9874 6.11962 12.0376 6.49724 11.2451 7.25247C10.4526 8.0077 10.0563 8.88447 10.0563 9.88118C10.0563 10.9687 10.4526 11.9054 11.2451 12.6914C12.0376 13.4775 12.9874 13.8697 14.0944 13.8697C15.2014 13.8697 16.1511 13.4775 16.9436 12.6914C17.7362 11.907 18.1324 10.9687 18.1324 9.88118C18.1324 8.88285 17.7362 8.0077 16.9436 7.25247Z" fill="#6E56FE"/>
</svg>
