<svg width="32" height="32" viewBox="0 0 32 32" fill="none" xmlns="http://www.w3.org/2000/svg">
<g clip-path="url(#clip0_27_1294)">
<rect width="32" height="32" fill="white"/>
<path opacity="0.984" fill-rule="evenodd" clip-rule="evenodd" d="M14.0311 -0.03125C15.1769 -0.03125 16.3228 -0.03125 17.4686 -0.03125C17.4686 0.03125 17.4686 0.09375 17.4686 0.15625C19.9961 0.756831 21.767 2.26725 22.7811 4.6875C22.9199 5.08639 23.0345 5.49264 23.1249 5.90625C23.1567 6.42894 23.2297 6.89769 23.3436 7.3125C23.2449 7.87837 23.1616 8.45125 23.0936 9.03125C23.1353 9.05206 23.1769 9.07294 23.2186 9.09375C23.0016 9.307 22.9391 9.557 23.0311 9.84375C22.9847 9.89294 22.9327 9.93456 22.8749 9.96875C22.011 12.166 20.4797 13.6973 18.2811 14.5625C14.7949 15.5437 11.9094 14.6583 9.62487 11.9062C8.39968 10.087 7.98299 8.087 8.37487 5.90625C9.11524 2.88621 10.9798 0.959125 13.9686 0.125C14.0156 0.0830775 14.0365 0.030994 14.0311 -0.03125Z" fill="black"/>
<path opacity="0.98" fill-rule="evenodd" clip-rule="evenodd" d="M18.1562 31.9688C16.6146 31.9688 15.0729 31.9688 13.5312 31.9688C13.5366 31.9065 13.5157 31.8545 13.4687 31.8125C10.0047 31.1706 7.20268 29.4728 5.06249 26.7188C4.89882 26.392 4.69048 26.1004 4.43749 25.8438C4.05536 25.2254 3.72203 24.5795 3.43749 23.9063C3.31981 23.4966 3.17398 23.1008 2.99999 22.7188C2.87988 22.2848 2.77571 21.8473 2.68749 21.4063C2.62429 21.354 2.55138 21.3331 2.46874 21.3438C2.45834 20.656 2.46876 19.9685 2.49999 19.2813C2.64424 19.21 2.75883 19.1058 2.84374 18.9688C3.15858 18.8828 3.47108 18.8931 3.78124 19C8.36462 21.7983 13.3438 22.913 18.7187 22.3438C18.7051 22.2703 18.7259 22.2078 18.7812 22.1563C18.856 22.1779 18.856 22.2091 18.7812 22.25C19.0937 22.257 19.4062 22.2362 19.7187 22.1875C20.441 22.0123 21.1702 21.8456 21.9062 21.6875C22.1172 21.5566 22.3464 21.4732 22.5937 21.4375C22.5181 21.3817 22.5181 21.3296 22.5937 21.2813C22.6385 21.332 22.6906 21.3736 22.75 21.4063C22.9858 21.3207 23.2254 21.2478 23.4687 21.1875C24.3173 20.8699 25.1506 20.5158 25.9687 20.125C26.1084 20.0479 26.2021 19.9333 26.25 19.7813C26.2692 19.8318 26.3005 19.8735 26.3437 19.9063C26.8981 19.5352 27.4814 19.2123 28.0937 18.9375C28.3437 18.8958 28.5937 18.8958 28.8437 18.9375C28.9214 19.091 29.0464 19.1639 29.2187 19.1563C29.2395 19.9074 29.2187 20.6574 29.1562 21.4063C29.1196 21.3932 29.0884 21.3723 29.0625 21.3438C29.0434 21.4941 28.9913 21.6296 28.9062 21.75C28.9371 21.8414 28.9579 21.9351 28.9687 22.0313C28.8702 22.1441 28.7868 22.3108 28.7187 22.5313C28.7514 22.6005 28.7722 22.6734 28.7812 22.75C28.3641 23.6574 27.937 24.5636 27.5 25.4688C25.2984 28.942 22.163 31.0773 18.0937 31.875C18.1285 31.899 18.1493 31.9302 18.1562 31.9688Z" fill="black"/>
<path opacity="0.01" fill-rule="evenodd" clip-rule="evenodd" d="M25.7812 20.0312C25.8646 20.0729 25.8646 20.0729 25.7812 20.0312Z" fill="#008000"/>
</g>
<defs>
<clipPath id="clip0_27_1294">
<rect width="32" height="32" fill="white"/>
</clipPath>
</defs>
</svg>
