<svg width="32" height="32" viewBox="0 0 32 32" fill="none" xmlns="http://www.w3.org/2000/svg">
    <path
        d="M15.3259 31.9428C12.7522 31.9428 10.2071 31.2565 7.91933 29.941L11.0364 24.5934C13.0382 25.7373 15.3545 26.0518 17.5851 25.4799C19.8157 24.8794 21.6745 23.4495 22.8469 21.4477L28.1946 24.5362C26.2214 27.9678 23.0185 30.4272 19.1865 31.4281C17.8997 31.7712 16.6128 31.9428 15.3259 31.9428Z"
        fill="#5B38F4" />
    <path
        d="M27.88 0.543342C27.0793 0.543342 26.4502 0.686327 25.9926 0.972297C25.5351 1.25827 25.1347 1.74441 24.8487 2.45934C24.5628 3.14567 24.3054 4.14656 24.1338 5.43342L23.5047 5.40483C23.0471 4.34674 22.4752 3.40304 21.7317 2.68811C19.8157 0.886505 16.956 0 13.0954 0C11.1508 0 9.34917 0.400357 7.69055 1.22967C6.03192 2.05898 4.74506 3.26005 3.77276 4.86148C2.77187 6.46291 2.28572 8.37891 2.28572 10.6381C2.28572 14.3843 3.20082 17.1582 5.05963 18.9312C6.91843 20.7042 9.72093 21.5907 13.5243 21.5907C15.5833 21.5907 17.4421 21.1903 19.1007 20.3896C20.7594 19.5889 22.0748 18.3878 23.0471 16.815C24.0194 15.2422 24.5056 13.3262 24.5056 11.067C24.5056 9.92315 24.3912 8.92225 24.2196 7.94996C24.9631 7.37802 26.1356 6.69169 26.7933 6.40572C27.3653 6.14835 27.9658 6.03396 28.5949 6.00536V0.600536C28.3662 0.571939 28.0802 0.543342 27.88 0.543342ZM16.7272 13.8123C16.4412 14.4701 16.0123 14.9276 15.4975 15.185C14.9828 15.4424 14.325 15.5853 13.5529 15.5853C12.3804 15.5853 11.4367 15.2136 10.6932 14.4415C9.94971 13.6693 9.57795 12.4111 9.57795 10.6667C9.57795 9.49419 9.72093 8.57909 10.0355 7.89276C10.3501 7.23503 10.7504 6.77748 11.2938 6.52011C11.8371 6.26273 12.4948 6.11975 13.267 6.11975C14.4394 6.11975 15.3831 6.49151 16.1267 7.26363C16.8702 8.03575 17.2133 9.29401 17.2133 11.067C17.1847 12.2395 17.0418 13.126 16.7272 13.8123Z"
        fill="#120036" />
</svg>