<svg width="32" height="32" viewBox="0 0 32 32" fill="none" xmlns="http://www.w3.org/2000/svg">
<path d="M14.1593 2.68028C18.9508 2.04881 23.9513 3.94037 27.1812 7.5201C28.3047 8.7361 29.2249 10.137 29.9019 11.6474C32.1888 16.5839 31.5929 22.7094 28.3957 27.1126C27.8581 27.8522 27.285 28.5775 26.6023 29.1862C26.2525 29.4678 25.8301 29.1493 25.6594 28.825C25.1289 27.919 24.8914 26.8837 24.597 25.8867C23.7863 22.9171 23.0709 19.8892 21.7227 17.1045C20.9362 15.5343 19.898 13.9727 18.3136 13.118C16.7677 12.2817 14.7737 12.367 13.306 13.3356C11.8638 14.2771 10.9124 15.7818 10.1757 17.3036C8.73779 20.3471 8.04801 23.6609 7.11361 26.8751C6.8633 27.6289 6.66276 28.4396 6.14934 29.0653C5.95308 29.3356 5.53921 29.3697 5.30881 29.1222C3.69601 27.5478 2.4729 25.5937 1.67361 23.4917C0.312543 19.8152 0.393609 15.6225 1.92392 12.0115C3.97903 7.03513 8.78756 3.28757 14.1593 2.68028Z" fill="#E33611"/>
</svg>
