<svg width="32" height="32" viewBox="0 0 32 32" fill="none" xmlns="http://www.w3.org/2000/svg">
<g clip-path="url(#clip0_30_3229)">
<path fill-rule="evenodd" clip-rule="evenodd" d="M13.0775 -0.0695801C13.2723 -0.0695801 13.4671 -0.0695801 13.662 -0.0695801C14.2398 0.334101 14.5564 0.890623 14.6117 1.59999C14.6848 2.75848 14.7091 3.9179 14.6848 5.07825C13.9935 6.95118 13.0681 8.7135 11.9085 10.3652C11.8842 7.5822 11.9085 4.7996 11.9816 2.01738C11.9753 1.1234 12.3406 0.427749 13.0775 -0.0695801Z" fill="#54CFE1"/>
<path fill-rule="evenodd" clip-rule="evenodd" d="M19.2148 18.713C16.7768 20.849 14.0005 22.4955 10.886 23.6521C9.79622 24.0105 8.67597 24.2192 7.5253 24.2782C6.98086 24.3231 6.44509 24.2767 5.91799 24.1391C5.7293 23.9962 5.7293 23.857 5.91799 23.7217C9.16487 21.8871 11.5271 19.3363 13.0048 16.0695C10.7955 18.428 8.1897 20.2831 5.1874 21.6347C4.67506 20.264 4.18801 18.8727 3.72621 17.4608C3.70709 17.3389 3.7558 17.2461 3.87233 17.1825C4.77654 16.8223 5.60455 16.3586 6.35635 15.7912C7.41628 16.3049 7.90334 15.9803 7.81754 14.8173C8.84272 13.9802 9.81685 13.099 10.7399 12.1738C10.7639 12.6154 10.9101 13.0096 11.1783 13.3565C11.451 13.4554 11.6702 13.3858 11.8358 13.1478C11.9088 12.2214 11.9332 11.2938 11.9089 10.3652C13.0684 8.71345 13.9939 6.95113 14.6851 5.07819C14.8735 7.39675 14.8735 9.71559 14.6851 12.0347C14.0009 13.0357 13.1729 13.94 12.2011 14.7478C13.3825 14.6956 14.308 14.2086 14.9774 13.2869C16.0072 13.8515 16.6647 13.5732 16.95 12.4521C17.5726 9.87935 18.0596 7.28224 18.4111 4.6608C18.6465 3.64068 19.1093 2.73634 19.7993 1.94776C20.5937 1.71751 21.2024 1.92621 21.6258 2.57385C21.599 6.96739 20.6736 11.1877 18.8495 15.2347C18.7089 16.4222 18.8307 17.5816 19.2148 18.713Z" fill="#0A68DC"/>
<path fill-rule="evenodd" clip-rule="evenodd" d="M10.7399 12.174C9.81683 13.0991 8.8427 13.9803 7.81752 14.8175C7.84163 14.3514 7.81727 13.8877 7.74446 13.4262C7.03466 10.5774 6.45018 7.70207 5.99103 4.8001C5.89361 4.1972 5.89361 3.59429 5.99103 2.9914C6.3128 2.26414 6.87292 1.9627 7.6714 2.08705C8.19805 2.46376 8.56335 2.95072 8.76729 3.54792C9.52601 6.40178 10.1835 9.27713 10.7399 12.174Z" fill="#54CFE1"/>
<path fill-rule="evenodd" clip-rule="evenodd" d="M6.35598 15.7912C5.60419 16.3586 4.77617 16.8223 3.87196 17.1825C3.75543 17.2461 3.70672 17.3389 3.72584 17.4608C3.40643 16.625 3.04113 15.7902 2.62995 14.9564C1.65721 13.308 0.756142 11.6385 -0.0732422 9.94773C-0.0732422 9.57671 -0.0732422 9.20571 -0.0732422 8.83469C0.834925 8.22537 1.63858 8.3645 2.33772 9.25208C3.67884 11.4356 5.01825 13.6153 6.35598 15.7912Z" fill="#54CFE1"/>
<path fill-rule="evenodd" clip-rule="evenodd" d="M14.6847 12.0347C14.805 12.4466 14.9024 12.864 14.9769 13.2868C14.3075 14.2086 13.3821 14.6955 12.2007 14.7477C13.1725 13.9399 14.0005 13.0356 14.6847 12.0347Z" fill="#F2C620"/>
<path fill-rule="evenodd" clip-rule="evenodd" d="M5.91761 23.7218C5.6089 23.0602 5.36536 22.3645 5.18701 21.6348C8.18931 20.2831 10.7951 18.4281 13.0044 16.0696C11.5267 19.3364 9.16448 21.8872 5.91761 23.7218Z" fill="#F5EE1F"/>
<path fill-rule="evenodd" clip-rule="evenodd" d="M31.9267 17.4608C31.9267 17.6462 31.9267 17.8318 31.9267 18.0173C31.6311 18.5097 31.2416 18.9502 30.7578 19.339C27.7718 20.881 25.1173 22.8521 22.7943 25.2521C21.1914 27.4743 19.1701 29.2597 16.7304 30.6086C15.6234 31.1211 14.5031 31.5616 13.3696 31.9303C12.7852 31.9303 12.2007 31.9303 11.6162 31.9303C11.6162 31.884 11.6162 31.8375 11.6162 31.7912C19.1577 29.1975 24.4668 24.3743 27.5432 17.3216C28.3442 16.9362 29.1966 16.7043 30.1002 16.626C30.838 16.6642 31.4467 16.9425 31.9267 17.4608Z" fill="#57CEE1"/>
<path fill-rule="evenodd" clip-rule="evenodd" d="M27.5434 17.3218C24.467 24.3744 19.158 29.1977 11.6165 31.7913C11.2195 31.7666 10.8299 31.697 10.4475 31.5826C8.86848 30.704 7.79694 29.4286 7.23291 27.7566C9.35767 27.6567 11.2572 26.9842 12.9315 25.7392C15.4163 23.7682 17.5594 21.5191 19.3608 18.9913C19.8953 20.2431 20.8693 20.7301 22.2831 20.4522C22.7094 20.2396 23.1477 20.0542 23.5982 19.8957C24.8709 18.9662 26.186 18.1083 27.5434 17.3218Z" fill="#F70F9F"/>
<path fill-rule="evenodd" clip-rule="evenodd" d="M19.2146 18.7131C19.3371 18.7607 19.3859 18.8534 19.3608 18.9914C17.5594 21.5191 15.4163 23.7683 12.9315 25.7392C11.2572 26.9843 9.35767 27.6567 7.23291 27.7566C6.73393 26.7433 6.34429 25.6766 6.06396 24.5566C6.57206 24.4638 7.05914 24.371 7.52515 24.2784C8.67582 24.2194 9.79607 24.0107 10.8859 23.6523C14.0003 22.4957 16.7767 20.8492 19.2146 18.7131Z" fill="#FBF011"/>
</g>
<defs>
<clipPath id="clip0_30_3229">
<rect width="32" height="32" fill="white"/>
</clipPath>
</defs>
</svg>
