<svg width="32" height="32" viewBox="0 0 32 32" fill="none" xmlns="http://www.w3.org/2000/svg">
<path d="M16.0597 16.6046C16.1856 16.6046 16.3086 16.5674 16.4132 16.4977C16.5178 16.4279 16.5993 16.3288 16.6473 16.2129C16.6954 16.0969 16.7079 15.9694 16.6832 15.8463C16.6586 15.7233 16.5978 15.6103 16.5087 15.5217C16.4197 15.4331 16.3062 15.3729 16.1827 15.3486C16.0593 15.3243 15.9314 15.3371 15.8152 15.3854C15.6991 15.4336 15.5999 15.5151 15.5302 15.6196C15.4605 15.7241 15.4235 15.8468 15.4239 15.9723C15.4239 16.0555 15.4403 16.1379 15.4723 16.2147C15.5043 16.2915 15.5511 16.3613 15.6102 16.42C15.6693 16.4788 15.7394 16.5253 15.8165 16.557C15.8937 16.5887 15.9763 16.6049 16.0597 16.6046Z" fill="#F39700"/>
<path d="M19.3652 13.5118C19.5535 13.5118 19.7376 13.4561 19.8942 13.3518C20.0507 13.2475 20.1728 13.0993 20.2448 12.9258C20.3169 12.7523 20.3358 12.5615 20.299 12.3773C20.2623 12.1932 20.1716 12.024 20.0384 11.8912C19.9053 11.7585 19.7356 11.6681 19.5509 11.6314C19.3663 11.5948 19.1748 11.6136 19.0008 11.6855C18.8269 11.7573 18.6782 11.879 18.5735 12.0351C18.4689 12.1912 18.4131 12.3747 18.4131 12.5625C18.4129 12.6872 18.4373 12.8108 18.4851 12.9261C18.5329 13.0413 18.603 13.1461 18.6915 13.2343C18.7799 13.3225 18.885 13.3924 19.0006 13.44C19.1162 13.4876 19.2401 13.512 19.3652 13.5118Z" fill="#DFECF5"/>
<path d="M20.8892 16.925C21.0776 16.925 21.2616 16.8693 21.4182 16.765C21.5748 16.6607 21.6968 16.5124 21.7689 16.339C21.8409 16.1655 21.8598 15.9746 21.8231 15.7905C21.7863 15.6063 21.6956 15.4372 21.5625 15.3044C21.4293 15.1717 21.2597 15.0812 21.075 15.0446C20.8903 15.008 20.6989 15.0268 20.5249 15.0986C20.3509 15.1705 20.2022 15.2922 20.0976 15.4483C19.993 15.6044 19.9371 15.7879 19.9371 15.9757C19.9371 16.2275 20.0374 16.4689 20.216 16.647C20.3946 16.825 20.6367 16.925 20.8892 16.925Z" fill="#DFECF5"/>
<path d="M19.3652 20.3499C19.554 20.3503 19.7386 20.2947 19.8957 20.1904C20.0528 20.086 20.1753 19.9375 20.2477 19.7636C20.3201 19.5898 20.3392 19.3984 20.3024 19.2138C20.2657 19.0292 20.1748 18.8596 20.0413 18.7265C19.9078 18.5934 19.7377 18.5028 19.5525 18.4661C19.3674 18.4295 19.1755 18.4485 19.0011 18.5206C18.8267 18.5928 18.6778 18.715 18.5731 18.8716C18.4685 19.0283 18.4128 19.2124 18.4131 19.4006C18.4131 19.6524 18.5134 19.8938 18.692 20.0719C18.8705 20.2499 19.1127 20.3499 19.3652 20.3499Z" fill="#DFECF5"/>
<path d="M16.0597 21.742C16.2482 21.7417 16.4323 21.6856 16.5888 21.5809C16.7452 21.4761 16.867 21.3274 16.9386 21.1537C17.0103 20.9799 17.0286 20.7888 16.9913 20.6046C16.9539 20.4204 16.8626 20.2515 16.7289 20.1191C16.5952 19.9867 16.425 19.8968 16.2401 19.8609C16.0551 19.825 15.8636 19.8446 15.6898 19.9173C15.516 19.9899 15.3678 20.1124 15.2638 20.2691C15.1599 20.4259 15.1049 20.6098 15.1059 20.7977C15.1059 20.9225 15.1306 21.0461 15.1786 21.1614C15.2265 21.2767 15.2968 21.3814 15.3854 21.4696C15.474 21.5578 15.5791 21.6277 15.6949 21.6753C15.8106 21.7229 15.9346 21.7473 16.0597 21.747V21.742Z" fill="#DFECF5"/>
<path d="M12.6752 20.4002C12.8637 20.4002 13.048 20.3444 13.2047 20.2399C13.3613 20.1353 13.4834 19.9868 13.5553 19.813C13.6272 19.6393 13.6458 19.4481 13.6086 19.2638C13.5715 19.0796 13.4803 18.9104 13.3466 18.7779C13.213 18.6453 13.0428 18.5553 12.8578 18.5192C12.6728 18.4832 12.4812 18.5027 12.3073 18.5753C12.1334 18.6479 11.9851 18.7704 11.8811 18.9272C11.7771 19.0839 11.7221 19.268 11.7231 19.4559C11.7231 19.7077 11.8234 19.9492 12.0019 20.1272C12.1805 20.3052 12.4227 20.4053 12.6752 20.4053V20.4002Z" fill="#DFECF5"/>
<path d="M11.247 16.925C11.4353 16.925 11.6194 16.8693 11.776 16.765C11.9326 16.6607 12.0546 16.5124 12.1267 16.339C12.1987 16.1655 12.2176 15.9746 12.1808 15.7905C12.1441 15.6063 12.0534 15.4372 11.9203 15.3044C11.7871 15.1717 11.6175 15.0812 11.4328 15.0446C11.2481 15.008 11.0567 15.0268 10.8827 15.0986C10.7087 15.1705 10.56 15.2922 10.4554 15.4483C10.3508 15.6044 10.2949 15.7879 10.2949 15.9757C10.2949 16.2275 10.3952 16.4689 10.5738 16.647C10.7523 16.825 10.9945 16.925 11.247 16.925Z" fill="#DFECF5"/>
<path d="M12.6668 13.5118C12.8551 13.5118 13.0392 13.4561 13.1957 13.3518C13.3523 13.2475 13.4743 13.0993 13.5464 12.9258C13.6185 12.7523 13.6373 12.5615 13.6006 12.3773C13.5639 12.1932 13.4732 12.024 13.34 11.8912C13.2069 11.7585 13.0372 11.6681 12.8525 11.6314C12.6678 11.5948 12.4764 11.6136 12.3024 11.6855C12.1284 11.7573 11.9797 11.879 11.8751 12.0351C11.7705 12.1912 11.7147 12.3747 11.7147 12.5625C11.7144 12.6872 11.7389 12.8108 11.7867 12.9261C11.8345 13.0413 11.9046 13.1461 11.993 13.2343C12.0815 13.3225 12.1865 13.3924 12.3022 13.44C12.4178 13.4876 12.5417 13.512 12.6668 13.5118Z" fill="#DFECF5"/>
<path d="M16.0597 12.17C16.248 12.1697 16.4319 12.1137 16.5882 12.0092C16.7446 11.9047 16.8663 11.7563 16.9382 11.5828C17.01 11.4093 17.0286 11.2185 16.9916 11.0345C16.9547 10.8504 16.8639 10.6814 16.7307 10.5488C16.5975 10.4163 16.4278 10.326 16.2432 10.2895C16.0585 10.253 15.8672 10.2719 15.6933 10.3438C15.5194 10.4157 15.3708 10.5374 15.2663 10.6935C15.1617 10.8495 15.1059 11.033 15.1059 11.2207C15.1059 11.3455 15.1306 11.4691 15.1786 11.5844C15.2265 11.6997 15.2968 11.8044 15.3854 11.8926C15.474 11.9807 15.5791 12.0506 15.6948 12.0982C15.8106 12.1459 15.9345 12.1702 16.0597 12.17Z" fill="#DFECF5"/>
<path d="M22.7918 10.585C23.051 10.5854 23.3045 10.509 23.5202 10.3657C23.736 10.2223 23.9042 10.0184 24.0036 9.77964C24.1031 9.54093 24.1293 9.27817 24.0789 9.02461C24.0285 8.77105 23.9038 8.53808 23.7206 8.35519C23.5374 8.17229 23.304 8.04769 23.0497 7.99714C22.7955 7.94659 22.5319 7.97236 22.2924 8.0712C22.0528 8.17005 21.8481 8.33751 21.704 8.55241C21.5599 8.76731 21.483 9.01999 21.483 9.27848C21.483 9.62471 21.6209 9.95678 21.8662 10.2018C22.1116 10.4467 22.4445 10.5846 22.7918 10.585Z" fill="#A3BDE0"/>
<path d="M25.7373 17.2755C25.9965 17.2755 26.2499 17.1989 26.4655 17.0552C26.681 16.9116 26.849 16.7074 26.9481 16.4686C27.0472 16.2298 27.0731 15.967 27.0224 15.7135C26.9717 15.46 26.8467 15.2272 26.6633 15.0445C26.4798 14.8618 26.2462 14.7375 25.9919 14.6873C25.7376 14.6371 25.474 14.6632 25.2346 14.7624C24.9952 14.8615 24.7907 15.0292 24.6469 15.2443C24.5031 15.4594 24.4265 15.7122 24.4269 15.9707C24.4269 16.1422 24.4608 16.312 24.5266 16.4704C24.5925 16.6288 24.6891 16.7728 24.8108 16.894C24.9325 17.0151 25.0769 17.1112 25.2359 17.1767C25.3949 17.2422 25.5653 17.2758 25.7373 17.2755Z" fill="#A3BDE0"/>
<path d="M22.7918 24.1522C23.0511 24.1525 23.3047 24.0761 23.5204 23.9327C23.7362 23.7893 23.9044 23.5852 24.0038 23.3464C24.1032 23.1076 24.1293 22.8447 24.0788 22.5911C24.0283 22.3375 23.9034 22.1046 23.72 21.9217C23.5367 21.7389 23.303 21.6144 23.0487 21.5641C22.7943 21.5137 22.5307 21.5397 22.2912 21.6388C22.0517 21.7379 21.847 21.9057 21.7032 22.1208C21.5593 22.3359 21.4827 22.5888 21.483 22.8473C21.483 23.1934 21.6209 23.5253 21.8664 23.77C22.1118 24.0147 22.4447 24.1522 22.7918 24.1522Z" fill="#A3BDE0"/>
<path d="M9.20653 24.117C9.46571 24.117 9.71906 24.0404 9.93456 23.8968C10.1501 23.7532 10.318 23.5492 10.4172 23.3104C10.5164 23.0717 10.5423 22.809 10.4918 22.5555C10.4412 22.3021 10.3164 22.0693 10.1331 21.8865C9.94987 21.7038 9.71638 21.5794 9.46218 21.529C9.20799 21.4785 8.94451 21.5044 8.70506 21.6033C8.46561 21.7022 8.26095 21.8697 8.11696 22.0845C7.97297 22.2994 7.89612 22.552 7.89612 22.8104C7.8959 22.9821 7.92964 23.1521 7.99542 23.3107C8.06119 23.4693 8.15771 23.6134 8.27944 23.7348C8.40116 23.8562 8.54571 23.9524 8.7048 24.018C8.86388 24.0836 9.03438 24.1172 9.20653 24.117Z" fill="#A3BDE0"/>
<path d="M16.0597 26.8609C16.319 26.8609 16.5724 26.7843 16.7879 26.6406C17.0034 26.497 17.1714 26.2928 17.2705 26.054C17.3697 25.8151 17.3955 25.5524 17.3448 25.2989C17.2941 25.0454 17.1692 24.8126 16.9857 24.6299C16.8023 24.4472 16.5686 24.3229 16.3143 24.2727C16.06 24.2225 15.7965 24.2486 15.5571 24.3477C15.3177 24.4469 15.1131 24.6146 14.9693 24.8297C14.8255 25.0448 14.749 25.2976 14.7493 25.556C14.7493 25.7275 14.7832 25.8974 14.8491 26.0558C14.915 26.2142 15.0115 26.3581 15.1332 26.4793C15.2549 26.6005 15.3994 26.6966 15.5584 26.7621C15.7173 26.8276 15.8877 26.8612 16.0597 26.8609Z" fill="#A3BDE0"/>
<path d="M6.42928 17.2755C6.68853 17.2755 6.94195 17.1989 7.15748 17.0552C7.37301 16.9116 7.54097 16.7074 7.6401 16.4686C7.73924 16.2298 7.76509 15.967 7.71439 15.7135C7.66369 15.46 7.53872 15.2272 7.35529 15.0445C7.17185 14.8618 6.9382 14.7375 6.6839 14.6873C6.42959 14.6371 6.16606 14.6632 5.92664 14.7624C5.68722 14.8615 5.48268 15.0292 5.33889 15.2443C5.19511 15.4594 5.11853 15.7122 5.11887 15.9707C5.11887 16.1422 5.15277 16.312 5.21865 16.4704C5.28452 16.6288 5.38107 16.7728 5.50278 16.894C5.62448 17.0151 5.76896 17.1112 5.92793 17.1767C6.08691 17.2422 6.25727 17.2758 6.42928 17.2755Z" fill="#A3BDE0"/>
<path d="M9.22673 10.585C9.48591 10.585 9.73927 10.5084 9.95476 10.3648C10.1703 10.2213 10.3382 10.0172 10.4374 9.77848C10.5366 9.53973 10.5625 9.27703 10.512 9.02358C10.4614 8.77013 10.3366 8.53732 10.1533 8.35459C9.97007 8.17187 9.73658 8.04743 9.48238 7.99701C9.22819 7.9466 8.96471 7.97247 8.72526 8.07137C8.48581 8.17026 8.28116 8.33772 8.13717 8.55259C7.99318 8.76745 7.91632 9.02006 7.91632 9.27848C7.9161 9.45012 7.94984 9.62012 8.01562 9.77874C8.0814 9.93736 8.17791 10.0815 8.29964 10.2029C8.42137 10.3242 8.56591 10.4205 8.725 10.486C8.88409 10.5516 9.05459 10.5853 9.22673 10.585Z" fill="#A3BDE0"/>
<path d="M16.0597 7.81425C16.319 7.81425 16.5724 7.73757 16.7879 7.59393C17.0034 7.45029 17.1714 7.24613 17.2705 7.00729C17.3697 6.76845 17.3955 6.50566 17.3448 6.25216C17.2941 5.99867 17.1692 5.76586 16.9857 5.5832C16.8023 5.40054 16.5686 5.27624 16.3143 5.22601C16.06 5.17579 15.7965 5.2019 15.5571 5.30105C15.3177 5.4002 15.1131 5.56793 14.9693 5.78301C14.8255 5.99809 14.749 6.25087 14.7493 6.50936C14.7493 6.68086 14.7832 6.85068 14.8491 7.0091C14.915 7.16753 15.0115 7.31145 15.1332 7.43265C15.2549 7.55384 15.3994 7.64992 15.5584 7.7154C15.7173 7.78088 15.8877 7.81447 16.0597 7.81425Z" fill="#A3BDE0"/>
<path d="M26.2318 7.41841C26.5555 7.41841 26.872 7.3227 27.1411 7.14338C27.4103 6.96406 27.6201 6.70918 27.744 6.41098C27.8679 6.11278 27.9003 5.78465 27.8371 5.46808C27.774 5.15152 27.6181 4.86073 27.3892 4.6325C27.1603 4.40427 26.8686 4.24884 26.5511 4.18587C26.2336 4.1229 25.9045 4.15522 25.6055 4.27874C25.3064 4.40225 25.0508 4.61143 24.8709 4.8798C24.6911 5.14817 24.5951 5.46369 24.5951 5.78646C24.5951 6.00077 24.6374 6.21299 24.7197 6.41098C24.8019 6.60898 24.9225 6.78889 25.0745 6.94043C25.3814 7.24648 25.7977 7.41841 26.2318 7.41841Z" fill="#2A2E6E"/>
<path d="M30.3633 17.611C30.687 17.611 31.0034 17.5153 31.2726 17.3359C31.5418 17.1566 31.7515 16.9017 31.8754 16.6035C31.9993 16.3053 32.0317 15.9772 31.9686 15.6607C31.9054 15.3441 31.7495 15.0533 31.5206 14.8251C31.2917 14.5968 31.0001 14.4414 30.6826 14.3784C30.3651 14.3155 30.036 14.3478 29.7369 14.4713C29.4378 14.5948 29.1822 14.804 29.0023 15.0724C28.8225 15.3407 28.7265 15.6563 28.7265 15.979C28.7265 16.4118 28.8989 16.8269 29.2059 17.133C29.5128 17.439 29.9292 17.611 30.3633 17.611Z" fill="#2A2E6E"/>
<path d="M26.1999 27.8874C26.5241 27.8877 26.8411 27.7922 27.1108 27.6128C27.3805 27.4334 27.5907 27.1783 27.7149 26.8797C27.8392 26.5811 27.8717 26.2525 27.8086 25.9355C27.7454 25.6184 27.5893 25.3272 27.3601 25.0986C27.1309 24.8701 26.8388 24.7144 26.5208 24.6515C26.2028 24.5885 25.8732 24.621 25.5738 24.7448C25.2743 24.8687 25.0184 25.0783 24.8385 25.3472C24.6586 25.6161 24.5628 25.9322 24.5631 26.2555C24.5631 26.6883 24.7356 27.1034 25.0425 27.4094C25.3495 27.7155 25.7658 27.8874 26.1999 27.8874Z" fill="#2A2E6E"/>
<path d="M5.76816 27.8304C6.09188 27.8304 6.40833 27.7347 6.6775 27.5553C6.94666 27.376 7.15645 27.1211 7.28033 26.8229C7.40421 26.5247 7.43662 26.1966 7.37347 25.88C7.31032 25.5635 7.15443 25.2727 6.92553 25.0445C6.69662 24.8162 6.40498 24.6608 6.08748 24.5978C5.76998 24.5349 5.44088 24.5672 5.1418 24.6907C4.84273 24.8142 4.5871 25.0234 4.40725 25.2918C4.2274 25.5601 4.13141 25.8757 4.13141 26.1984C4.13185 26.6311 4.30444 27.0459 4.6113 27.3519C4.91815 27.6578 5.33421 27.8299 5.76816 27.8304Z" fill="#2A2E6E"/>
<path d="M16.0597 32C16.3834 31.9997 16.6997 31.9037 16.9686 31.7241C17.2375 31.5446 17.4471 31.2896 17.5707 30.9914C17.6943 30.6932 17.7265 30.3651 17.6632 30.0486C17.5998 29.7322 17.4438 29.4415 17.2148 29.2135C16.9858 28.9854 16.6942 28.8302 16.3767 28.7673C16.0593 28.7045 15.7303 28.7369 15.4313 28.8605C15.1323 28.984 14.8768 29.1932 14.697 29.4615C14.5172 29.7299 14.4213 30.0453 14.4213 30.368C14.4213 30.5825 14.4637 30.7948 14.546 30.9929C14.6284 31.1911 14.7491 31.371 14.9013 31.5226C15.0534 31.6742 15.2341 31.7943 15.4329 31.8762C15.6316 31.9582 15.8446 32.0002 16.0597 32Z" fill="#2A2E6E"/>
<path d="M1.63676 17.611C1.96033 17.611 2.27665 17.5154 2.54574 17.3362C2.81483 17.157 3.02462 16.9023 3.1486 16.6043C3.27258 16.3063 3.30519 15.9784 3.24231 15.6619C3.17942 15.3454 3.02387 15.0546 2.7953 14.8263C2.56674 14.5979 2.27541 14.4422 1.95813 14.3788C1.64085 14.3155 1.31186 14.3473 1.01273 14.4703C0.713591 14.5933 0.457733 14.802 0.27748 15.0699C0.0972276 15.3379 0.000668568 15.653 3.45802e-06 15.9757C-0.000438937 16.1903 0.0415705 16.4028 0.123627 16.6012C0.205684 16.7996 0.326176 16.9799 0.478207 17.1318C0.630238 17.2837 0.810822 17.4042 1.00962 17.4864C1.20842 17.5687 1.42153 17.611 1.63676 17.611Z" fill="#2A2E6E"/>
<path d="M5.76816 7.41841C6.09188 7.41841 6.40833 7.3227 6.6775 7.14338C6.94666 6.96406 7.15645 6.70918 7.28033 6.41098C7.40421 6.11278 7.43662 5.78465 7.37347 5.46808C7.31032 5.15152 7.15443 4.86073 6.92553 4.6325C6.69662 4.40427 6.40498 4.24884 6.08748 4.18587C5.76998 4.1229 5.44088 4.15522 5.1418 4.27874C4.84273 4.40225 4.5871 4.61143 4.40725 4.8798C4.2274 5.14817 4.13141 5.46369 4.13141 5.78646C4.13141 6.00077 4.17374 6.21299 4.256 6.41098C4.33825 6.60898 4.45882 6.78889 4.6108 6.94043C4.91775 7.24648 5.33407 7.41841 5.76816 7.41841Z" fill="#2A2E6E"/>
<path d="M16.0311 3.2639C16.3549 3.2639 16.6713 3.16819 16.9405 2.98887C17.2096 2.80955 17.4194 2.55467 17.5433 2.25647C17.6672 1.95827 17.6996 1.63014 17.6364 1.31357C17.5733 0.997007 17.4174 0.706221 17.1885 0.477988C16.9596 0.249756 16.6679 0.0943274 16.3504 0.0313582C16.0329 -0.031611 15.7039 0.000707096 15.4048 0.124226C15.1057 0.247744 14.8501 0.456915 14.6702 0.725288C14.4904 0.993661 14.3944 1.30918 14.3944 1.63195C14.3944 2.06477 14.5668 2.47987 14.8738 2.78592C15.1807 3.09197 15.597 3.2639 16.0311 3.2639Z" fill="#2A2E6E"/>
</svg>
