<svg width="32" height="32" viewBox="0 0 32 32" fill="none" xmlns="http://www.w3.org/2000/svg">
<g clip-path="url(#clip0_38_26)">
<path opacity="0.93" fill-rule="evenodd" clip-rule="evenodd" d="M31.918 12.2886C31.918 13.2783 31.918 14.268 31.918 15.2576C31.0452 18.1208 29.2859 20.2927 26.6396 21.7731C23.4975 23.4521 20.1436 24.3318 16.5778 24.4123C14.8313 27.6461 12.1372 29.0757 8.49529 28.7009C8.18256 28.4027 8.10009 28.0453 8.24787 27.6288C9.49842 26.6802 10.4056 25.4704 10.9695 23.9999C8.26251 23.3642 5.78829 22.2371 3.54683 20.6185C1.76806 19.2006 0.558437 17.4135 -0.0820312 15.2576C-0.0820312 14.268 -0.0820312 13.2783 -0.0820312 12.2886C0.844565 9.46284 2.60402 7.29101 5.19632 5.7731C10.164 3.262 15.3874 2.54722 20.8664 3.62877C24.3462 4.30985 27.3426 5.87686 29.8561 8.32981C30.8547 9.50287 31.5421 10.8225 31.918 12.2886Z" fill="#5E5A5B"/>
<path fill-rule="evenodd" clip-rule="evenodd" d="M12.783 4.70097C17.6505 4.15552 22.2141 5.06273 26.4738 7.42262C28.3769 8.56459 29.669 10.1866 30.35 12.2886C30.7116 15.7166 29.4196 18.3282 26.4738 20.1236C23.2091 21.9846 19.6901 22.9194 15.9171 22.9278C15.7659 22.9895 15.6285 23.0719 15.5047 23.1752C14.7067 25.1829 13.2771 26.5025 11.216 27.134C11.1335 27.1064 11.0511 27.079 10.9686 27.0515C12.0282 25.8411 12.5506 24.439 12.5356 22.8453C9.33142 22.2464 6.44482 20.9542 3.87581 18.969C1.12253 16.3853 0.655174 13.4437 2.47375 10.1443C4.05325 8.23651 6.00515 6.83445 8.32942 5.93808C9.82631 5.49181 11.3108 5.07944 12.783 4.70097Z" fill="#FE7E2A"/>
</g>
<defs>
<clipPath id="clip0_38_26">
<rect width="32" height="32" fill="white"/>
</clipPath>
</defs>
</svg>
