<svg width="32" height="32" viewBox="0 0 32 32" fill="none" xmlns="http://www.w3.org/2000/svg">
<g clip-path="url(#clip0_38_105)">
<path opacity="0.995" fill-rule="evenodd" clip-rule="evenodd" d="M6.25033 -0.083252C12.6948 -0.083252 19.1392 -0.083252 25.5837 -0.083252C28.8658 0.865581 30.977 2.9767 31.917 6.25008C31.917 12.6945 31.917 19.1389 31.917 25.5834C30.9682 28.8656 28.857 30.9767 25.5837 31.9167C19.1392 31.9167 12.6948 31.9167 6.25033 31.9167C2.96816 30.9679 0.857046 28.8567 -0.0830078 25.5834C-0.0830078 19.1389 -0.0830078 12.6945 -0.0830078 6.25008C0.865826 2.96791 2.97694 0.856801 6.25033 -0.083252Z" fill="black"/>
<path fill-rule="evenodd" clip-rule="evenodd" d="M9.75021 8.91677C12.3015 8.84864 12.9404 9.95974 11.6669 12.2501C10.8218 13.291 9.73843 13.7077 8.41688 13.5001C7.41023 12.5039 7.3269 11.4206 8.16688 10.2501C8.62936 9.70349 9.15715 9.25905 9.75021 8.91677Z" fill="#FAFAFA"/>
<path fill-rule="evenodd" clip-rule="evenodd" d="M17.583 9.08326C19.4114 8.80161 20.3557 9.57939 20.4164 11.4166C20.2222 12.4702 20.0555 13.5258 19.9164 14.5833C20.0917 14.6082 20.2584 14.5804 20.4164 14.4999C21.4827 13.4385 22.7605 12.8829 24.2497 12.8333C24.7635 12.9643 25.1245 13.2698 25.333 13.7499C25.4442 14.4721 25.4442 15.1944 25.333 15.9166C25.1039 16.7126 24.8817 17.4903 24.6664 18.2499C24.7354 18.3261 24.8187 18.3818 24.9164 18.4166C25.733 17.7721 26.6497 17.3278 27.6664 17.0833C28.031 17.0589 28.2532 17.2256 28.333 17.5833C28.3964 18.6168 28.1185 19.5613 27.4997 20.4166C26.5592 21.7464 25.3649 22.7741 23.9164 23.4999C21.2107 24.1123 20.2107 23.0844 20.9164 20.4166C20.741 20.3918 20.5744 20.4194 20.4164 20.4999C19.1892 22.3214 17.4947 23.4048 15.333 23.7499C13.8244 23.6861 13.1577 22.9084 13.333 21.4166C13.6175 21.0151 13.7564 20.5708 13.7497 20.0833C13.5744 20.0584 13.4077 20.0861 13.2497 20.1666C11.4906 22.7683 9.04617 23.9349 5.91636 23.6666C4.35664 23.1028 3.57886 21.9916 3.58302 20.3333C3.88732 17.6409 5.27621 15.7521 7.74969 14.6666C9.17307 14.2784 9.81196 14.8062 9.66636 16.2499C9.78594 16.4084 9.92484 16.4361 10.083 16.3333C12.0744 13.3693 14.5744 10.9526 17.583 9.08326Z" fill="#FCFCFC"/>
</g>
<defs>
<clipPath id="clip0_38_105">
<rect width="32" height="32" fill="white"/>
</clipPath>
</defs>
</svg>
