<svg width="32" height="32" viewBox="0 0 32 32" fill="none" xmlns="http://www.w3.org/2000/svg">
<mask id="mask0_38_123" style="mask-type:luminance" maskUnits="userSpaceOnUse" x="0" y="4" width="30" height="18">
<path d="M29.7822 4.43555H0V21.8613H29.7822V4.43555Z" fill="white"/>
</mask>
<g mask="url(#mask0_38_123)">
<mask id="mask1_38_123" style="mask-type:luminance" maskUnits="userSpaceOnUse" x="0" y="4" width="30" height="18">
<path d="M29.7577 4.43555H0V21.8613H29.7577V4.43555Z" fill="white"/>
</mask>
<g mask="url(#mask1_38_123)">
<path d="M22.3918 4.43555H17.75V17.7733H22.3918V4.43555Z" fill="#2443E2"/>
<path d="M16.4506 9.11938H11.7432V20.5804H16.4506V9.11938Z" fill="#21CFB2"/>
<path d="M10.5688 13.2993H5.86133V21.638H10.5688V13.2993Z" fill="#D3F005"/>
<path d="M11.7078 8.51039C11.7078 8.51039 -1.13261 14.0833 1.63991 18.8445C4.41242 23.6053 21.86 17.276 25.4168 11.6752L24.1005 10.7791L29.7578 7.67041L29.5338 14.0955L28.0214 13.3011C28.0214 13.3011 21.7621 21.428 8.36147 21.8481C-5.03917 22.2683 -1.16081 12.5223 11.7078 8.51039Z" fill="#2443E2"/>
</g>
</g>
</svg>
