<svg width="32" height="32" viewBox="0 0 32 32" fill="none" xmlns="http://www.w3.org/2000/svg">
<path fill-rule="evenodd" clip-rule="evenodd" d="M13.452 30.268V26.3587H18.5694V30.3027C23.3 29.172 26.82 24.892 26.82 19.7853C26.82 15.6293 23.8707 9.78134 20.4507 7.97201C20.9107 9.59468 20.22 11.7093 19.3 11.524C18.9534 11.4547 18.9174 10.9067 18.8614 10.0213C18.744 8.16801 18.5334 4.83468 15.1547 1.33334C14.8854 3.77868 11.008 8.76001 8.48535 12.0027C8.14002 12.4453 7.82135 12.856 7.53869 13.2227C6.10651 15.1106 5.33194 17.4156 5.33335 19.7853C5.32843 22.1868 6.124 24.5213 7.59431 26.42C9.06462 28.3187 11.1258 29.6718 13.452 30.268ZM18.92 21.9627C18.9212 22.3385 18.8484 22.711 18.7057 23.0587C18.5629 23.4064 18.3531 23.7226 18.0881 23.9892C17.8231 24.2557 17.5082 24.4675 17.1614 24.6124C16.8145 24.7572 16.4426 24.8323 16.0667 24.8333C15.6908 24.8323 15.3188 24.7572 14.972 24.6124C14.6252 24.4675 14.3103 24.2557 14.0453 23.9892C13.7803 23.7226 13.5705 23.4064 13.4277 23.0587C13.285 22.711 13.2121 22.3385 13.2134 21.9627C13.2134 21.308 13.4387 20.692 13.8 20.22L14.0507 19.896C14.7214 19.0347 15.7507 17.712 15.8227 17.0627C17.9467 18.4973 18.92 20.8587 18.92 21.9627Z" fill="#F25533"/>
</svg>
