<svg width="32" height="32" viewBox="0 0 32 32" fill="none" xmlns="http://www.w3.org/2000/svg">
    <g clip-path="url(#clip0_1495_410)">
        <path opacity="0.981" fill-rule="evenodd" clip-rule="evenodd"
            d="M0.544018 -0.0253906C10.8267 -0.0253906 21.1093 -0.0253906 31.392 -0.0253906C31.4139 0.0168517 31.4565 0.0336496 31.52 0.0250031C31.6251 0.0906656 31.7318 0.157857 31.84 0.226578C31.8353 0.303526 31.878 0.35392 31.968 0.377759C31.968 10.7756 31.968 21.1736 31.968 31.5715C31.9144 31.5887 31.893 31.6223 31.904 31.6722C31.8613 31.6722 31.84 31.689 31.84 31.7226C31.7973 31.7226 31.776 31.7394 31.776 31.773C31.7333 31.773 31.712 31.7898 31.712 31.8234C31.6693 31.8234 31.648 31.8402 31.648 31.8738C31.6053 31.8738 31.584 31.8906 31.584 31.9242C31.5205 31.9155 31.4779 31.9324 31.456 31.9746C21.1307 31.9746 10.8053 31.9746 0.480018 31.9746C0.449742 31.9038 0.385742 31.8701 0.288018 31.8738C0.200742 31.7886 0.115409 31.7046 0.0320176 31.6219C0.0429987 31.5719 0.0216653 31.5383 -0.0319824 31.5211C-0.0319824 21.1567 -0.0319824 10.7925 -0.0319824 0.428153C0.138684 0.260174 0.330684 0.108993 0.544018 -0.0253906ZM1.63202 1.38563C1.63202 11.162 1.63202 20.9384 1.63202 30.7148C11.1893 30.7148 20.7467 30.7148 30.304 30.7148C20.7725 30.7652 11.1938 30.7819 1.56802 30.7652C1.56802 20.9384 1.56802 11.1116 1.56802 1.28485C11.168 1.27644 20.768 1.28485 30.368 1.31004C20.7786 1.31845 11.2 1.34365 1.63202 1.38563ZM1.69602 1.38563C11.232 1.38563 20.768 1.38563 30.304 1.38563C30.304 11.1452 30.304 20.9048 30.304 30.6644C20.768 30.6644 11.232 30.6644 1.69602 30.6644C1.69602 20.9048 1.69602 11.1452 1.69602 1.38563Z"
            fill="#3B4F66" />
        <path opacity="0.012" fill-rule="evenodd" clip-rule="evenodd"
            d="M31.52 -0.0253906C31.5413 -0.0253906 31.5627 -0.0253906 31.584 -0.0253906C31.5722 0.00838036 31.5508 0.00838036 31.52 -0.0253906Z"
            fill="#3E546C" />
        <path opacity="0.01" fill-rule="evenodd" clip-rule="evenodd"
            d="M0.160034 0.0756836C0.245367 0.10928 0.245367 0.10928 0.160034 0.0756836Z"
            fill="#547091" />
        <path opacity="0.01" fill-rule="evenodd" clip-rule="evenodd"
            d="M0.160052 0.125977C0.117385 0.159573 0.117385 0.159573 0.160052 0.125977Z"
            fill="#536F90" />
        <path opacity="0.01" fill-rule="evenodd" clip-rule="evenodd"
            d="M31.904 0.226663C31.8613 0.159472 31.8613 0.159472 31.904 0.226663Z" fill="#577597" />
        <path opacity="0.01" fill-rule="evenodd" clip-rule="evenodd"
            d="M31.9041 0.226562C31.9254 0.226562 31.9467 0.226562 31.9681 0.226562C31.9681 0.24336 31.9681 0.260158 31.9681 0.276956C31.9467 0.260158 31.9254 0.24336 31.9041 0.226562Z"
            fill="#6182A9" />
        <path fill-rule="evenodd" clip-rule="evenodd"
            d="M25.3759 4.40967C25.3759 12.2879 25.3759 20.1661 25.3759 28.0443C22.8799 28.0443 20.3839 28.0443 17.8879 28.0443C17.8879 20.1661 17.8879 12.2879 17.8879 4.40967C20.3839 4.40967 22.8799 4.40967 25.3759 4.40967Z"
            fill="#A1A1A1" />
        <path fill-rule="evenodd" clip-rule="evenodd"
            d="M17.952 4.45996C20.4053 4.45996 22.8587 4.45996 25.312 4.45996C25.312 12.3046 25.312 20.1492 25.312 27.9938C22.8586 28.0022 20.4053 27.9938 17.952 27.9686C20.3839 27.9434 22.8159 27.935 25.248 27.9434C25.248 20.1324 25.248 12.3214 25.248 4.51035C22.8373 4.51035 20.4267 4.51035 18.016 4.51035C18.0267 12.3046 18.016 20.0988 17.984 27.893C17.952 20.082 17.9413 12.271 17.952 4.45996Z"
            fill="#ACACAC" />
        <path opacity="0.454" fill-rule="evenodd" clip-rule="evenodd"
            d="M13.984 15.3447C13.984 19.5778 13.984 23.8109 13.984 28.0439C11.488 28.0439 8.99197 28.0439 6.49597 28.0439C6.49597 23.8109 6.49597 19.5778 6.49597 15.3447C8.99197 15.3447 11.488 15.3447 13.984 15.3447Z"
            fill="#A1A1A1" />
        <path fill-rule="evenodd" clip-rule="evenodd"
            d="M6.56006 15.3955C9.01337 15.3955 11.4667 15.3955 13.9201 15.3955C13.9201 19.595 13.9201 23.7945 13.9201 27.9939C11.4667 27.9939 9.01337 27.9939 6.56006 27.9939C6.56006 23.7945 6.56006 19.595 6.56006 15.3955Z"
            fill="#ADADAD" />
        <path opacity="0.999" fill-rule="evenodd" clip-rule="evenodd"
            d="M6.62402 15.4458C9.03471 15.4458 11.4453 15.4458 13.856 15.4458C13.856 19.6117 13.856 23.7775 13.856 27.9434C11.4453 27.9434 9.03471 27.9434 6.62402 27.9434C6.62402 23.7775 6.62402 19.6117 6.62402 15.4458Z"
            fill="#A0A1A0" />
        <path opacity="0.016" fill-rule="evenodd" clip-rule="evenodd"
            d="M1.63196 1.38574C1.65329 1.38574 1.67463 1.38574 1.69596 1.38574C1.69596 11.1453 1.69596 20.9049 1.69596 30.6645C11.232 30.6645 20.768 30.6645 30.304 30.6645C30.304 30.6813 30.304 30.6981 30.304 30.7149C20.7466 30.7149 11.1893 30.7149 1.63196 30.7149C1.63196 20.9385 1.63196 11.1621 1.63196 1.38574Z"
            fill="#4C6684" />
        <path opacity="0.012" fill-rule="evenodd" clip-rule="evenodd"
            d="M-0.0319824 31.6221C-0.0106491 31.6221 0.0106843 31.6221 0.0320176 31.6221C0.0201571 31.6558 -0.00117625 31.6558 -0.0319824 31.6221Z"
            fill="#3E536C" />
        <path opacity="0.01" fill-rule="evenodd" clip-rule="evenodd"
            d="M31.9041 31.6724C31.9254 31.6724 31.9467 31.6724 31.9681 31.6724C31.9681 31.6891 31.9681 31.706 31.9681 31.7228C31.9467 31.706 31.9254 31.6891 31.9041 31.6724Z"
            fill="#587598" />
        <path opacity="0.01" fill-rule="evenodd" clip-rule="evenodd"
            d="M31.84 31.7227C31.8613 31.7227 31.8827 31.7227 31.904 31.7227C31.8921 31.7564 31.8707 31.7564 31.84 31.7227Z"
            fill="#4D6786" />
        <path opacity="0.01" fill-rule="evenodd" clip-rule="evenodd"
            d="M31.776 31.7734C31.7973 31.7734 31.8187 31.7734 31.84 31.7734C31.8282 31.8072 31.8068 31.8072 31.776 31.7734Z"
            fill="#3F556E" />
        <path opacity="0.01" fill-rule="evenodd" clip-rule="evenodd"
            d="M31.712 31.8237C31.7333 31.8237 31.7547 31.8237 31.776 31.8237C31.7642 31.8575 31.7428 31.8575 31.712 31.8237Z"
            fill="#415871" />
        <path opacity="0.01" fill-rule="evenodd" clip-rule="evenodd"
            d="M0.288026 31.874C0.288026 31.8908 0.288026 31.9076 0.288026 31.9244C0.245137 31.9002 0.245137 31.8833 0.288026 31.874Z"
            fill="#547091" />
        <path opacity="0.01" fill-rule="evenodd" clip-rule="evenodd"
            d="M31.6479 31.874C31.6693 31.874 31.6906 31.874 31.7119 31.874C31.7001 31.9078 31.6787 31.9078 31.6479 31.874Z"
            fill="#4F6A8A" />
        <path opacity="0.01" fill-rule="evenodd" clip-rule="evenodd"
            d="M0.287964 31.9243C0.330631 31.9243 0.351964 31.9411 0.351964 31.9747C0.330631 31.9579 0.309297 31.9411 0.287964 31.9243Z"
            fill="#5A799D" />
        <path opacity="0.012" fill-rule="evenodd" clip-rule="evenodd"
            d="M31.584 31.9243C31.6053 31.9243 31.6267 31.9243 31.648 31.9243C31.648 31.9411 31.648 31.9579 31.648 31.9747C31.6267 31.9579 31.6053 31.9411 31.584 31.9243Z"
            fill="#3B4F67" />
    </g>
    <defs>
        <clipPath id="clip0_1495_410">
            <rect width="32" height="32" fill="white" />
        </clipPath>
    </defs>
</svg>