<svg width="32" height="32" viewBox="0 0 32 32" fill="none" xmlns="http://www.w3.org/2000/svg">
<g clip-path="url(#clip0_38_1633)">
<path fill-rule="evenodd" clip-rule="evenodd" d="M-0.0712891 -0.0712891C10.5954 -0.0712891 21.262 -0.0712891 31.9287 -0.0712891C31.9287 10.5954 31.9287 21.262 31.9287 31.9287C21.262 31.9287 10.5954 31.9287 -0.0712891 31.9287C-0.0712891 21.262 -0.0712891 10.5954 -0.0712891 -0.0712891Z" fill="#FDFEFE"/>
<path fill-rule="evenodd" clip-rule="evenodd" d="M7.18199 3.05772C6.72501 3.01363 6.29835 3.06103 5.90199 3.19994C5.82475 3.19141 5.77734 3.14401 5.75977 3.05772C6.25467 2.87204 6.72875 2.87204 7.18199 3.05772Z" fill="#91DBF9"/>
<path fill-rule="evenodd" clip-rule="evenodd" d="M7.18234 3.05793C7.57171 3.10786 7.95097 3.20268 8.32012 3.34237C8.50975 3.532 8.50975 3.72163 8.32012 3.91126C7.82035 3.68133 7.29887 3.53911 6.75568 3.48459C6.76792 3.79421 6.86274 4.07866 7.04012 4.33793C6.69757 4.51171 6.43681 4.4169 6.2579 4.05348C6.12445 3.77067 6.00592 3.48623 5.90234 3.20015C6.2987 3.06124 6.72537 3.01384 7.18234 3.05793Z" fill="#31C2F5"/>
<path fill-rule="evenodd" clip-rule="evenodd" d="M4.19522 3.20006C4.7126 3.09149 4.92593 3.28111 4.83522 3.76895C4.1832 4.04096 3.96987 3.85134 4.19522 3.20006Z" fill="#15BFF5"/>
<path fill-rule="evenodd" clip-rule="evenodd" d="M16.9956 3.05762C16.9483 5.71413 16.9956 8.36893 17.1379 11.0221C17.2242 11.0045 17.2715 10.9571 17.2801 10.8798C18.71 9.60483 20.393 8.98854 22.329 9.03095C25.9363 9.03239 28.6859 10.5494 30.5779 13.5821C31.7189 15.8222 32.0981 18.1925 31.7156 20.6932C30.9926 25.019 28.5037 27.6975 24.249 28.7287C21.305 29.3923 18.8397 28.6101 16.8534 26.3821C16.7123 26.9912 16.6648 27.6074 16.7112 28.231C14.9097 28.231 13.1082 28.231 11.3067 28.231C11.283 23.1107 11.3067 17.9907 11.3779 12.871C13.2153 10.4393 13.4997 7.83192 12.2312 5.04873C11.6812 4.4816 11.3731 3.81789 11.3067 3.05762C13.203 3.05762 15.0994 3.05762 16.9956 3.05762Z" fill="#09BEF5"/>
<path fill-rule="evenodd" clip-rule="evenodd" d="M16.9953 3.05762C17.0902 5.66502 17.1849 8.27244 17.2797 10.8798C17.2712 10.9571 17.2238 11.0045 17.1375 11.0221C16.9953 8.36893 16.9479 5.71413 16.9953 3.05762Z" fill="#C5ECFC"/>
<path fill-rule="evenodd" clip-rule="evenodd" d="M3.34196 3.62664C3.48379 3.62239 3.57861 3.6935 3.62641 3.83998C3.40238 4.75029 3.30757 5.67473 3.34196 6.61331C3.13851 6.60205 2.94889 6.64946 2.77307 6.75553C2.63176 6.04209 2.60805 5.33098 2.70196 4.6222C2.2678 5.10721 1.81744 5.51018 1.35085 5.83109C1.22901 5.73308 1.1342 5.61457 1.06641 5.47553C1.66254 4.6407 2.42106 4.02441 3.34196 3.62664Z" fill="#2BC1F5"/>
<path fill-rule="evenodd" clip-rule="evenodd" d="M9.17347 3.91113C9.99613 4.18673 10.6361 4.70822 11.0935 5.47558C11.1632 5.29166 11.1869 5.10202 11.1646 4.90669C11.3542 4.90669 11.5438 4.90669 11.7335 4.90669C11.7752 5.46657 11.7278 6.01176 11.5913 6.54224C11.0243 6.61318 10.4554 6.63689 9.88458 6.61336C9.89585 6.40991 9.84843 6.22028 9.74236 6.04447C9.9794 5.94965 10.2164 5.85484 10.4535 5.76002C10.0268 5.23854 9.55274 4.76447 9.03125 4.3378C9.12045 4.20741 9.16787 4.06519 9.17347 3.91113Z" fill="#3CC4F5"/>
<path fill-rule="evenodd" clip-rule="evenodd" d="M6.75592 4.90661C7.01021 4.86604 7.24726 4.91345 7.46703 5.04883C7.73922 5.59252 7.92884 6.1614 8.03592 6.75549C6.85398 6.7821 5.71621 7.01913 4.62259 7.46661C4.00321 6.96688 4.09803 6.65873 4.90703 6.54216C5.51782 6.41247 6.13411 6.31766 6.75592 6.25772C6.01883 5.97816 5.26031 5.74112 4.48037 5.54661C4.83786 5.20863 5.26452 5.11382 5.76037 5.26216C6.21728 5.34832 6.64395 5.51425 7.04037 5.75994C7.08777 5.73623 7.13519 5.71254 7.18259 5.68883C7.00372 5.44123 6.86149 5.1805 6.75592 4.90661Z" fill="#29C1F5"/>
<path fill-rule="evenodd" clip-rule="evenodd" d="M0.639998 6.3291C0.849537 6.41045 1.03917 6.52898 1.20889 6.68466C0.953903 7.24622 0.787976 7.83882 0.71111 8.46243C0.566117 8.63128 0.400192 8.7735 0.213332 8.8891C0.0610871 7.99048 0.203309 7.13715 0.639998 6.3291Z" fill="#2EC2F5"/>
<path fill-rule="evenodd" clip-rule="evenodd" d="M9.17315 7.04004C9.4215 7.14663 9.56372 7.33626 9.59981 7.60893C9.4872 8.30311 9.25016 8.94311 8.8887 9.52893C9.1681 9.61767 9.40513 9.54656 9.59981 9.31559C9.78944 9.55264 9.78944 9.78966 9.59981 10.0267C9.06954 10.1947 8.54807 10.3844 8.03537 10.5956C7.81275 9.80128 7.74164 8.99535 7.82204 8.17782C7.96587 8.05883 8.13178 8.01142 8.31981 8.03559C8.3814 8.4147 8.45251 8.79397 8.53315 9.17337C8.90105 8.50749 9.11438 7.79638 9.17315 7.04004Z" fill="#2DC1F5"/>
<path fill-rule="evenodd" clip-rule="evenodd" d="M11.4492 7.18213C11.9567 7.21901 12.1463 7.50345 12.0181 8.03546C11.1706 8.13818 10.9809 7.85373 11.4492 7.18213Z" fill="#46C5F6"/>
<path fill-rule="evenodd" clip-rule="evenodd" d="M3.34201 7.18213C3.60023 8.02942 3.78985 8.93017 3.9109 9.88435C3.9566 10.3127 3.76697 10.5023 3.34201 10.4532C3.2395 9.78908 3.12098 9.12538 2.98645 8.46213C2.64388 9.0348 2.40684 9.65109 2.27534 10.311C1.79489 9.63888 1.866 8.99888 2.48868 8.39102C2.24192 8.29837 2.00488 8.32208 1.77757 8.46213C1.60019 8.24789 1.60019 8.03455 1.77757 7.82213C2.31901 7.61898 2.84048 7.40565 3.34201 7.18213Z" fill="#2DC1F5"/>
<path fill-rule="evenodd" clip-rule="evenodd" d="M11.8753 8.60449C11.9815 9.80983 11.6971 10.9476 11.022 12.0178C10.8513 11.8712 10.6617 11.7527 10.4531 11.6623C10.8952 11.1351 11.1559 10.5425 11.2353 9.88449C10.6828 10.283 10.5169 10.1407 10.7376 9.45783C11.1631 9.22014 11.5424 8.9357 11.8753 8.60449Z" fill="#2CC1F5"/>
<path fill-rule="evenodd" clip-rule="evenodd" d="M0.355522 9.60007C1.07897 9.56943 1.22119 9.83016 0.782189 10.3823C0.218554 10.399 0.0763313 10.1383 0.355522 9.60007Z" fill="#33C2F5"/>
<path fill-rule="evenodd" clip-rule="evenodd" d="M6.04473 10.4535C6.52314 10.3524 6.85499 10.5184 7.04029 10.9513C6.33247 11.1088 5.62136 11.251 4.90695 11.3779C5.50887 11.6339 6.12516 11.8472 6.75584 12.0179C6.59923 12.2457 6.38589 12.388 6.11584 12.4446C5.51187 12.3086 4.99039 12.0242 4.5514 11.5913C4.54511 11.9127 4.66364 12.1971 4.90695 12.4446C4.78921 12.5747 4.64699 12.6695 4.48029 12.7291C4.08684 12.1659 3.8024 11.5496 3.62695 10.8802C4.45432 10.7474 5.26023 10.6051 6.04473 10.4535Z" fill="#30C2F5"/>
<path fill-rule="evenodd" clip-rule="evenodd" d="M0.782227 11.1646C1.26276 11.2197 1.73684 11.3146 2.20445 11.449C2.28128 11.6265 2.3761 11.7924 2.48889 11.9468C2.26353 11.9588 2.0739 11.9825 1.92 12.0179C2.29927 12.3971 2.67852 12.7764 3.05778 13.1557C2.99825 13.3224 2.90343 13.4646 2.77334 13.5823C2.3083 13.3311 1.90533 12.9992 1.56445 12.5868C1.41526 12.8153 1.20193 12.9101 0.924449 12.8712C0.877042 12.3023 0.829633 11.7334 0.782227 11.1646Z" fill="#37C2F5"/>
<path fill-rule="evenodd" clip-rule="evenodd" d="M8.74689 11.3066C8.99839 11.8107 9.11692 12.3796 9.10244 13.0133C9.52382 12.7345 9.90307 12.4026 10.2402 12.0178C10.3855 12.1392 10.5041 12.2814 10.5958 12.4444C10.02 13.1826 9.30892 13.7515 8.46244 14.1511C8.32075 13.2553 8.27333 12.3546 8.32022 11.4489C8.50383 11.4826 8.64605 11.4352 8.74689 11.3066Z" fill="#27C1F5"/>
<path fill-rule="evenodd" clip-rule="evenodd" d="M4.48038 13.4399C4.73473 13.2803 5.01917 13.2566 5.33371 13.3688C5.59113 13.7449 5.87558 14.1004 6.18704 14.4355C5.24309 14.6073 4.34235 14.4651 3.48482 14.0088C3.30975 13.8452 3.30975 13.6792 3.48482 13.511C3.82692 13.4899 4.15877 13.561 4.48038 13.7244C4.82252 13.6803 4.82252 13.5854 4.48038 13.4399Z" fill="#25C0F5"/>
<path fill-rule="evenodd" clip-rule="evenodd" d="M6.89809 13.7243C7.55551 13.569 7.81625 13.8061 7.68031 14.4354C6.98046 14.6597 6.71973 14.4226 6.89809 13.7243Z" fill="#2EC1F5"/>
<path fill-rule="evenodd" clip-rule="evenodd" d="M20.5507 14.2931C23.4094 13.955 25.282 15.1402 26.1685 17.8487C26.4793 21.8044 24.6541 23.7244 20.693 23.6087C18.0836 22.7317 16.9221 20.9066 17.2085 18.1331C17.5979 16.2042 18.7119 14.9242 20.5507 14.2931Z" fill="#FDFEFE"/>
<path fill-rule="evenodd" clip-rule="evenodd" d="M3.62695 15.5732C5.52324 15.5732 7.41955 15.5732 9.31584 15.5732C9.31584 19.7925 9.31584 24.0117 9.31584 28.231C7.41955 28.231 5.52324 28.231 3.62695 28.231C3.62695 24.0117 3.62695 19.7925 3.62695 15.5732Z" fill="#03BEF5"/>
</g>
<defs>
<clipPath id="clip0_38_1633">
<rect width="32" height="32" fill="white"/>
</clipPath>
</defs>
</svg>
