<svg width="32" height="32" viewBox="0 0 32 32" fill="none" xmlns="http://www.w3.org/2000/svg">
<path opacity="0.997" fill-rule="evenodd" clip-rule="evenodd" d="M16.0625 0.312496C16.0625 2.39583 16.0625 4.47916 16.0625 6.5625C16.0209 6.5625 15.9791 6.5625 15.9375 6.5625C15.6459 6.5625 15.3541 6.5625 15.0625 6.5625C15.0625 4.47916 15.0625 2.39583 15.0625 0.312496C15.422 0.275961 15.7554 0.275961 16.0625 0.312496Z" fill="#02CCB1"/>
<path opacity="0.99" fill-rule="evenodd" clip-rule="evenodd" d="M15.0625 0.312496C15.0625 2.39583 15.0625 4.47916 15.0625 6.5625C14.8524 6.75093 14.6024 6.87593 14.3125 6.9375C14.3125 4.77083 14.3125 2.60416 14.3125 0.437496C14.5331 0.317323 14.7831 0.275656 15.0625 0.312496Z" fill="#03C8B8"/>
<path opacity="0.992" fill-rule="evenodd" clip-rule="evenodd" d="M14.3125 0.437485C14.3125 2.60415 14.3125 4.77082 14.3125 6.93749C14.0656 7.14211 13.8156 7.35044 13.5625 7.56249C13.4379 5.25092 13.3962 2.91759 13.4375 0.562485C13.7205 0.472658 14.0121 0.430992 14.3125 0.437485Z" fill="#02C5BE"/>
<path opacity="0.99" fill-rule="evenodd" clip-rule="evenodd" d="M16.9375 0.312485C17.2709 0.395819 17.6041 0.479151 17.9375 0.562485C17.8125 0.562485 17.6875 0.562485 17.5625 0.562485C17.6038 2.70935 17.5621 4.83435 17.4375 6.93748C17.0011 6.73655 16.5428 6.61155 16.0625 6.56248C16.0625 4.47915 16.0625 2.39582 16.0625 0.312485C16.3408 0.155441 16.6324 0.155441 16.9375 0.312485Z" fill="#0ED1A7"/>
<path opacity="0.845" fill-rule="evenodd" clip-rule="evenodd" d="M16.9375 0.3125C21.5834 0.769984 24.4791 3.26999 25.625 7.8125C25.9664 9.69246 25.7996 11.5258 25.125 13.3125C24.5735 14.4571 23.9902 15.5821 23.375 16.6875C20.6999 20.3291 18.5124 24.2457 16.8125 28.4375C16.8286 28.223 16.8703 28.0146 16.9375 27.8125C17.1629 27.1361 17.4129 26.4695 17.6875 25.8125C17.9789 25.1464 18.2705 24.4797 18.5625 23.8125C18.9256 23.2116 19.259 22.5866 19.5625 21.9375C19.8523 21.4419 20.144 20.9419 20.4375 20.4375C20.7329 20.0564 20.9829 19.6398 21.1875 19.1875C21.5086 18.7549 21.8004 18.2965 22.0625 17.8125C22.3836 17.3799 22.6754 16.9215 22.9375 16.4375C23.2329 15.8521 23.5245 15.2688 23.8125 14.6875C25.6424 11.3878 25.6424 8.09616 23.8125 4.8125C23.5824 4.3521 23.2907 3.93544 22.9375 3.5625C22.6875 3.22916 22.3959 2.9375 22.0625 2.6875C21.775 2.377 21.4416 2.127 21.0625 1.9375C20.9176 1.71871 20.7093 1.59371 20.4375 1.5625C20.1776 1.26588 19.8442 1.0992 19.4375 1.0625C19.151 0.841615 18.8178 0.716615 18.4375 0.6875C18.2865 0.595736 18.1199 0.554069 17.9375 0.5625C17.6041 0.479166 17.2709 0.395834 16.9375 0.3125Z" fill="#969A98"/>
<path opacity="0.992" fill-rule="evenodd" clip-rule="evenodd" d="M13.4375 0.5625C13.3962 2.9176 13.4379 5.25094 13.5625 7.5625C12.5625 8.9375 12.5625 10.3125 13.5625 11.6875C13.4377 15.7911 13.396 19.9161 13.4375 24.0625C13.116 23.5451 12.8244 23.0034 12.5625 22.4375C12.5625 15.2709 12.5625 8.10416 12.5625 0.9375C12.8214 0.756869 13.113 0.631869 13.4375 0.5625Z" fill="#04C2C4"/>
<path opacity="0.982" fill-rule="evenodd" clip-rule="evenodd" d="M17.9375 0.562496C18.1199 0.554065 18.2865 0.595732 18.4375 0.687496C18.4375 3.0625 18.4375 5.4375 18.4375 7.8125C18.101 7.51721 17.7676 7.22555 17.4375 6.9375C17.5621 4.83436 17.6038 2.70936 17.5625 0.562496C17.6875 0.562496 17.8125 0.562496 17.9375 0.562496Z" fill="#01D69F"/>
<path opacity="0.982" fill-rule="evenodd" clip-rule="evenodd" d="M18.4375 0.6875C18.8177 0.716615 19.151 0.841615 19.4375 1.0625C19.396 8.04198 19.4376 15.0002 19.5625 21.9375C19.259 22.5866 18.9256 23.2116 18.5625 23.8125C18.4377 19.7089 18.396 15.5839 18.4375 11.4375C19.1041 10.2292 19.1041 9.02084 18.4375 7.8125C18.4375 5.4375 18.4375 3.0625 18.4375 0.6875Z" fill="#02D999"/>
<path opacity="0.989" fill-rule="evenodd" clip-rule="evenodd" d="M12.5625 0.9375C12.5625 8.10416 12.5625 15.2709 12.5625 22.4375C12.2311 21.8586 11.8977 21.2753 11.5625 20.6875C11.7292 14.2291 11.7292 7.77084 11.5625 1.3125C11.8692 1.11753 12.2025 0.99253 12.5625 0.9375Z" fill="#02BFCB"/>
<path fill-rule="evenodd" clip-rule="evenodd" d="M19.4375 1.0625C19.8443 1.0992 20.1776 1.26588 20.4375 1.5625C20.2709 7.85416 20.2709 14.1459 20.4375 20.4375C20.144 20.9419 19.8523 21.4419 19.5625 21.9375C19.4376 15.0002 19.396 8.04198 19.4375 1.0625Z" fill="#02DD92"/>
<path opacity="0.991" fill-rule="evenodd" clip-rule="evenodd" d="M11.5625 1.3125C11.7292 7.77084 11.7292 14.2291 11.5625 20.6875C11.2672 20.3064 11.0172 19.8898 10.8125 19.4375C10.9788 13.5747 10.9788 7.69971 10.8125 1.8125C11.0256 1.60099 11.2756 1.43433 11.5625 1.3125Z" fill="#02BCD0"/>
<path fill-rule="evenodd" clip-rule="evenodd" d="M20.4375 1.5625C20.7092 1.59371 20.9176 1.71871 21.0625 1.9375C21.021 7.70871 21.0626 13.4587 21.1875 19.1875C20.9829 19.6398 20.7329 20.0564 20.4375 20.4375C20.2709 14.1459 20.2709 7.85416 20.4375 1.5625Z" fill="#02E08C"/>
<path opacity="0.988" fill-rule="evenodd" clip-rule="evenodd" d="M10.8125 1.8125C10.9788 7.69971 10.9788 13.5747 10.8125 19.4375C10.4913 19.0049 10.1997 18.5465 9.9375 18.0625C10.1037 12.8836 10.1037 7.71696 9.9375 2.5625C10.1524 2.22256 10.4441 1.97256 10.8125 1.8125Z" fill="#02B8D7"/>
<path fill-rule="evenodd" clip-rule="evenodd" d="M21.0625 1.9375C21.4416 2.127 21.775 2.377 22.0625 2.6875C21.8959 7.72916 21.8959 12.7709 22.0625 17.8125C21.8004 18.2965 21.5086 18.7549 21.1875 19.1875C21.0626 13.4587 21.021 7.70871 21.0625 1.9375Z" fill="#03E386"/>
<path opacity="0.977" fill-rule="evenodd" clip-rule="evenodd" d="M9.9375 2.5625C10.1037 7.71696 10.1037 12.8836 9.9375 18.0625C9.64216 17.6814 9.39216 17.2648 9.1875 16.8125C9.35416 12.2708 9.35416 7.72916 9.1875 3.1875C9.36385 2.88575 9.61385 2.67742 9.9375 2.5625Z" fill="#03B5DD"/>
<path opacity="0.981" fill-rule="evenodd" clip-rule="evenodd" d="M9.1875 3.1875C9.35416 7.72916 9.35416 12.2708 9.1875 16.8125C8.75918 16.248 8.42585 15.623 8.1875 14.9375C8.1875 11.4792 8.1875 8.02084 8.1875 4.5625C8.42943 4.03667 8.76276 3.57834 9.1875 3.1875Z" fill="#03B1E3"/>
<path fill-rule="evenodd" clip-rule="evenodd" d="M22.0625 2.6875C22.3959 2.9375 22.6875 3.22916 22.9375 3.5625C22.7709 7.85416 22.7709 12.1458 22.9375 16.4375C22.6754 16.9215 22.3836 17.3799 22.0625 17.8125C21.8959 12.7709 21.8959 7.72916 22.0625 2.6875Z" fill="#03E77F"/>
<path fill-rule="evenodd" clip-rule="evenodd" d="M22.9375 3.5625C23.2907 3.93544 23.5824 4.3521 23.8125 4.8125C23.6459 8.10416 23.6459 11.3958 23.8125 14.6875C23.5245 15.2688 23.2329 15.8521 22.9375 16.4375C22.7709 12.1458 22.7709 7.85416 22.9375 3.5625Z" fill="#04EA79"/>
<path opacity="0.967" fill-rule="evenodd" clip-rule="evenodd" d="M8.1875 4.5625C8.1875 8.02084 8.1875 11.4792 8.1875 14.9375C6.66197 12.5059 6.26614 9.88089 7 7.0625C7.24265 6.14221 7.63847 5.30888 8.1875 4.5625Z" fill="#03ADEC"/>
<path fill-rule="evenodd" clip-rule="evenodd" d="M23.8125 4.8125C25.6424 8.09616 25.6424 11.3878 23.8125 14.6875C23.6459 11.3958 23.6459 8.10416 23.8125 4.8125Z" fill="#0DEC73"/>
<path opacity="0.868" fill-rule="evenodd" clip-rule="evenodd" d="M15.0625 6.5625C15.3541 6.5625 15.6459 6.5625 15.9375 6.5625C13.8166 7.30425 13.0874 8.76259 13.75 10.9375C14.2796 11.7806 15.0089 12.364 15.9375 12.6875C15.6459 12.6875 15.3541 12.6875 15.0625 12.6875C14.8524 12.4991 14.6024 12.3741 14.3125 12.3125C14.0656 12.1079 13.8156 11.8996 13.5625 11.6875C12.5625 10.3125 12.5625 8.9375 13.5625 7.5625C13.8156 7.35045 14.0656 7.14212 14.3125 6.9375C14.6024 6.87594 14.8524 6.75094 15.0625 6.5625Z" fill="#959A99"/>
<path opacity="0.99" fill-rule="evenodd" clip-rule="evenodd" d="M18.4375 11.4375C18.396 15.5839 18.4377 19.7089 18.5625 23.8125C18.2705 24.4797 17.9789 25.1464 17.6875 25.8125C17.6041 21.3125 17.5209 16.8125 17.4375 12.3125C17.7676 12.0245 18.101 11.7328 18.4375 11.4375Z" fill="#02D69F"/>
<path opacity="0.989" fill-rule="evenodd" clip-rule="evenodd" d="M13.5625 11.6875C13.8156 11.8996 14.0656 12.1079 14.3125 12.3125C14.354 16.8755 14.3122 21.4171 14.1875 25.9375C13.9032 25.3271 13.6532 24.7021 13.4375 24.0625C13.396 19.9161 13.4377 15.7911 13.5625 11.6875Z" fill="#02C5BE"/>
<path opacity="0.996" fill-rule="evenodd" clip-rule="evenodd" d="M17.4375 12.3125C17.5209 16.8125 17.6041 21.3125 17.6875 25.8125C17.4129 26.4695 17.1629 27.1361 16.9375 27.8125C16.8126 22.7504 16.771 17.6671 16.8125 12.5625C17.0063 12.4449 17.2145 12.3616 17.4375 12.3125Z" fill="#03D2A6"/>
<path opacity="0.985" fill-rule="evenodd" clip-rule="evenodd" d="M14.3125 12.3125C14.6024 12.3741 14.8524 12.4991 15.0625 12.6875C15.0625 17.8541 15.0625 23.0209 15.0625 28.1875C14.7733 27.4464 14.4816 26.6964 14.1875 25.9375C14.3123 21.4171 14.354 16.8755 14.3125 12.3125Z" fill="#02C8B8"/>
<path opacity="0.997" fill-rule="evenodd" clip-rule="evenodd" d="M16.8125 12.5625C16.771 17.6671 16.8126 22.7504 16.9375 27.8125C16.8702 28.0146 16.8286 28.223 16.8125 28.4375C16.6345 28.6894 16.5512 28.981 16.5625 29.3125C16.5464 29.527 16.5047 29.7354 16.4375 29.9375C16.2416 30.0851 16.1374 30.2934 16.125 30.5625C16.0215 24.5954 16.0424 18.637 16.1875 12.6875C16.3896 12.6203 16.598 12.5786 16.8125 12.5625Z" fill="#07CFAB"/>
<path opacity="0.987" fill-rule="evenodd" clip-rule="evenodd" d="M15.0625 12.6875C15.3541 12.6875 15.6459 12.6875 15.9375 12.6875C16.0209 12.6875 16.1041 12.6875 16.1875 12.6875C16.0424 18.637 16.0215 24.5954 16.125 30.5625C16.1374 30.2934 16.2416 30.0851 16.4375 29.9375C16.2923 30.5185 16.1464 31.1019 16 31.6875C15.6889 30.5267 15.3764 29.36 15.0625 28.1875C15.0625 23.0209 15.0625 17.8541 15.0625 12.6875Z" fill="#07CCB1"/>
<path opacity="0.333" fill-rule="evenodd" clip-rule="evenodd" d="M16.8125 28.4375C16.8237 28.769 16.7405 29.0606 16.5625 29.3125C16.5512 28.981 16.6345 28.6894 16.8125 28.4375Z" fill="#8D9E9A"/>
</svg>
