<svg width="32" height="32" viewBox="0 0 33 33" fill="none" xmlns="http://www.w3.org/2000/svg">
    <path fill-rule="evenodd" clip-rule="evenodd"
        d="M31.7736 1.76816C31.899 2.47252 31.767 3.14307 31.3777 3.77983C31.5066 2.92507 31.3086 2.08688 30.7839 1.26525C29.9155 0.873509 28.9259 0.817635 27.8149 1.09761C28.2602 0.657053 29.0519 0.51736 30.1901 0.678511C31.0475 0.959809 31.5754 1.32303 31.7736 1.76816Z"
        fill="#BF2E3E" />
    <path fill-rule="evenodd" clip-rule="evenodd"
        d="M31.3777 3.78012C31.4206 4.11771 31.1567 4.39711 30.5859 4.61831C28.9007 4.76968 27.911 4.49029 27.6169 3.78012C27.376 2.88136 27.442 1.98729 27.8149 1.0979C28.9258 0.817923 29.9155 0.873797 30.7839 1.26554C31.3086 2.08717 31.5065 2.92536 31.3777 3.78012Z"
        fill="#E1051C" />
    <path fill-rule="evenodd" clip-rule="evenodd"
        d="M27.8149 1.09766C27.442 1.98705 27.376 2.88112 27.6169 3.77988C27.911 4.49005 28.9007 4.76943 30.5859 4.61807C30.3349 4.86061 29.873 4.97236 29.2004 4.95335C28.2828 4.76021 27.557 4.48083 27.0231 4.11516C26.3171 3.0442 26.581 2.03836 27.8149 1.09766Z"
        fill="#BD323E" />
    <path fill-rule="evenodd" clip-rule="evenodd"
        d="M29.3982 16.1852C29.5964 19.4246 28.3428 22.5539 25.6374 25.5729C25.4796 25.5347 25.4136 25.4787 25.4395 25.4053C25.4395 25.2377 25.4395 25.07 25.4395 24.9024C27.1354 21.9395 27.4652 18.922 26.4292 15.8499C26.3286 15.009 25.8668 14.2266 25.0436 13.5029C25.0436 13.4471 25.0436 13.3911 25.0436 13.3353C24.2223 12.0807 22.9687 10.9072 21.2829 9.81488C21.0129 9.40612 21.2108 9.04292 21.8767 8.72523C21.7448 8.64141 21.6128 8.55759 21.4808 8.47377C20.3487 9.2032 18.8971 9.28702 17.1263 8.72523C11.7737 8.2834 8.21092 9.14952 6.43792 11.3236C4.58969 12.9474 3.66601 14.6796 3.66685 16.5204C3.33806 18.3911 3.14012 20.2911 3.07305 22.2202C1.2817 18.831 0.951805 15.4224 2.08339 11.9942C3.19459 9.12488 6.22957 6.69411 11.1883 4.70189C14.8299 3.99394 18.1288 4.21747 21.085 5.37245C24.9791 7.46664 27.4203 9.84153 28.4085 12.4971C28.9988 13.7145 29.3287 14.9438 29.3982 16.1852Z"
        fill="#0A0A0A" />
    <path fill-rule="evenodd" clip-rule="evenodd"
        d="M31.7733 1.76807C33.0022 2.995 32.6723 4.16847 30.7837 5.28848C29.9371 5.50123 29.0794 5.50123 28.2105 5.28848C27.4846 4.95349 27.0888 4.56234 27.0229 4.11501C27.5569 4.48068 28.2826 4.76007 29.2002 4.95321C29.8728 4.97222 30.3347 4.86047 30.5857 4.61793C31.1565 4.39673 31.4204 4.11732 31.3775 3.77973C31.7668 3.14297 31.8988 2.47242 31.7733 1.76807Z"
        fill="#E6C7C5" />
    <path fill-rule="evenodd" clip-rule="evenodd"
        d="M25.0437 13.3352C24.4205 13.2619 23.9586 13.0943 23.6582 12.8322C23.0439 11.8115 22.1202 10.8616 20.8871 9.98238C19.9351 9.85256 18.9454 9.76874 17.9181 9.73092C15.1483 9.17347 12.3773 9.22935 9.60492 9.89856C9.0534 10.0949 8.72352 10.3463 8.61525 10.6529C7.96176 10.9396 7.23598 11.1632 6.43799 11.3235C8.21099 9.14939 11.7738 8.28326 17.1264 8.72509C18.8972 9.28688 20.3487 9.20306 21.4809 8.47363C21.6129 8.55745 21.7448 8.64127 21.8768 8.72509C21.2109 9.04278 21.013 9.40599 21.283 9.81474C22.9687 10.9071 24.2223 12.0806 25.0437 13.3352Z"
        fill="#CDCDCD" />
    <path fill-rule="evenodd" clip-rule="evenodd"
        d="M16.7306 20.879C16.4669 20.0706 16.335 19.2324 16.3347 18.3644C16.309 16.8409 16.5729 15.3321 17.1265 13.8381C17.1265 13.6705 17.1265 13.5029 17.1265 13.3352C17.772 12.6333 18.2338 11.9068 18.512 11.1559C18.3605 11.2491 18.1626 11.3049 17.9182 11.3235C18.2829 11.027 18.7448 10.7477 19.3037 10.4854C19.8055 10.8079 19.8055 11.0872 19.3037 11.3235C17.2777 14.4517 16.42 17.6368 16.7306 20.879Z"
        fill="#F9E4E6" />
    <path fill-rule="evenodd" clip-rule="evenodd"
        d="M17.1266 13.3351C16.7909 13.1465 16.3951 13.1465 15.939 13.3351C16.3872 12.6209 17.047 11.9504 17.9183 11.3234C18.1627 11.3048 18.3606 11.249 18.5121 11.1558C18.2339 11.9066 17.7721 12.6332 17.1266 13.3351Z"
        fill="#B75463" />
    <path fill-rule="evenodd" clip-rule="evenodd"
        d="M17.1263 13.3353C17.1263 13.5029 17.1263 13.6706 17.1263 13.8382C16.3534 14.7389 15.9575 15.6889 15.9387 16.6881C15.675 17.5244 15.543 18.3906 15.5428 19.2865C15.47 20.582 15.7339 21.8393 16.3345 23.0583C16.3345 23.1702 16.4665 23.226 16.7304 23.226C16.8286 23.9646 17.0925 24.6912 17.5221 25.4053C16.6967 24.9662 16.1029 24.4633 15.7407 23.8965C15.2741 21.219 15.0102 18.5368 14.949 15.8499C14.7517 16.1925 14.2899 16.4162 13.5635 16.5204C13.8801 15.3919 14.6718 14.3302 15.9387 13.3353C16.3948 13.1467 16.7907 13.1467 17.1263 13.3353Z"
        fill="#CA1C2E" />
    <path fill-rule="evenodd" clip-rule="evenodd"
        d="M17.1264 13.8384C16.5729 15.3324 16.3089 16.8411 16.3347 18.3646C16.335 19.2327 16.4669 20.0709 16.7306 20.8792C16.7306 21.6616 16.7306 22.4438 16.7306 23.2262C16.4666 23.2262 16.3347 23.1703 16.3347 23.0585C16.0333 20.9376 15.9013 18.8141 15.9388 16.6882C15.9577 15.6891 16.3535 14.7391 17.1264 13.8384Z"
        fill="#FCC5CE" />
    <path fill-rule="evenodd" clip-rule="evenodd"
        d="M11.9802 18.8672C11.8227 21.2254 12.0866 23.5723 12.772 25.908C12.2198 25.2668 11.758 24.5962 11.3864 23.8964C11.1225 22.5552 11.1225 21.2141 11.3864 19.873C11.462 19.5029 11.6599 19.1676 11.9802 18.8672Z"
        fill="#FCC8CF" />
    <path fill-rule="evenodd" clip-rule="evenodd"
        d="M13.5637 16.5205C12.7879 19.3583 12.5899 22.2082 12.9699 25.0701C13.2338 25.1819 13.4977 25.2936 13.7616 25.4054C14.3361 26.67 15.1279 27.8993 16.1368 29.0934C16.7888 30.0966 18.3063 30.6833 20.6893 30.8536C22.6714 31.1229 24.1229 30.8714 25.0438 30.0993C25.5332 29.9742 26.061 29.9184 26.6273 29.9316C25.226 30.9551 23.1147 31.458 20.2934 31.4404C20.1615 31.4404 20.0295 31.4404 19.8975 31.4404C18.7346 31.0323 17.613 30.5852 16.5327 30.0993C15.2134 28.6944 13.9599 27.2973 12.7719 25.9083C12.0866 23.5726 11.8227 21.2256 11.9802 18.8675C12.1896 18.0487 12.7174 17.2663 13.5637 16.5205Z"
        fill="#C62332" />
    <path fill-rule="evenodd" clip-rule="evenodd"
        d="M29.3981 16.1851C30.5603 19.4207 29.6367 22.5498 26.627 25.5728C26.0914 25.7715 25.6295 25.9951 25.2415 26.2434C24.9329 25.9271 24.9988 25.6476 25.4394 25.4052C25.4135 25.4786 25.4795 25.5346 25.6373 25.5728C28.3427 22.5538 29.5963 19.4245 29.3981 16.1851Z"
        fill="#DCDCDC" />
    <path fill-rule="evenodd" clip-rule="evenodd"
        d="M2.08347 11.9941C0.951885 15.4224 1.28178 18.831 3.07313 22.2201C3.1402 20.2911 3.33814 18.3911 3.66693 16.5204C3.9495 18.7535 4.08148 20.9888 4.0628 23.2259C3.53943 23.2544 3.07759 23.1986 2.67727 23.0583C2.59164 22.7425 2.32772 22.463 1.88553 22.2201C1.38444 19.9585 0.922599 17.6954 0.5 15.4307C0.681711 14.3332 1.0116 13.2436 1.48967 12.1618C1.64112 12.0686 1.83905 12.0127 2.08347 11.9941Z"
        fill="#E2E2E2" />
    <path fill-rule="evenodd" clip-rule="evenodd"
        d="M25.0439 13.5029C25.8671 14.2266 26.3289 15.009 26.4295 15.8499C27.4655 18.922 27.1357 21.9395 25.4398 24.9024C25.0434 24.3322 25.1754 23.7735 25.8357 23.226C25.3363 22.8781 25.4023 22.5429 26.0336 22.2202C26.5193 19.2903 26.1893 16.3846 25.0439 13.5029Z"
        fill="#D8D8D8" />
    <path fill-rule="evenodd" clip-rule="evenodd"
        d="M15.9389 16.688C15.9014 18.8138 16.0334 20.9373 16.3348 23.0583C15.7341 21.8392 15.4702 20.5819 15.5431 19.2864C15.5433 18.3905 15.6753 17.5243 15.9389 16.688Z"
        fill="#C64958" />
    <path fill-rule="evenodd" clip-rule="evenodd"
        d="M17.5225 25.405C17.5225 25.4609 17.5225 25.5168 17.5225 25.5727C18.0266 26.7143 18.6864 27.8318 19.5019 28.9254C20.2871 28.9058 20.9469 29.0176 21.4812 29.2607C22.1397 29.0302 22.6675 29.086 23.0647 29.4284C24.2211 29.2763 25.4087 29.2205 26.6275 29.2607C26.6275 29.4842 26.6275 29.7078 26.6275 29.9313C26.0612 29.918 25.5334 29.9739 25.044 30.0989C24.1231 30.8711 22.6716 31.1225 20.6895 30.8533C18.3065 30.683 16.789 30.0962 16.137 29.0931C15.1281 27.899 14.3363 26.6697 13.7618 25.405C13.4979 25.2932 13.234 25.1816 12.9701 25.0697C12.5901 22.2078 12.7881 19.358 13.5639 16.5202C14.2903 16.4159 14.7521 16.1923 14.9494 15.8496C15.0106 18.5365 15.2745 21.2187 15.7411 23.8963C16.1033 24.4631 16.6971 24.966 17.5225 25.405Z"
        fill="#E6021C" />
    <path fill-rule="evenodd" clip-rule="evenodd"
        d="M12.772 25.9082C13.9599 27.2973 15.2135 28.6944 16.5328 30.0992C17.6131 30.5852 18.7347 31.0323 19.8976 31.4403C18.3925 31.2259 17.139 30.8348 16.1369 30.2668C15.6325 29.7822 15.0387 29.3351 14.3555 28.9257C13.103 28.0012 12.5752 26.9953 12.772 25.9082Z"
        fill="#F0C0C3" />
    <path fill-rule="evenodd" clip-rule="evenodd"
        d="M20.2935 27.9199C21.2745 28.0364 22.0662 28.2879 22.6687 28.6743C23.9817 28.7578 25.3012 28.7858 26.6273 28.7581C23.9828 29.1903 21.8715 28.9108 20.2935 27.9199Z"
        fill="#F9BDC4" />
    <path fill-rule="evenodd" clip-rule="evenodd"
        d="M17.5225 25.5728C18.2913 26.3779 19.215 27.1603 20.2935 27.9197C21.8716 28.9106 23.9828 29.1901 26.6274 28.7579C26.8913 28.7021 27.1552 28.6461 27.4191 28.5903C28.0803 28.5482 28.6741 28.4364 29.2005 28.255C29.2777 28.4761 29.2117 28.6997 29.0026 28.9255C28.0681 29.2095 27.2764 29.5448 26.6274 29.9314C26.6274 29.7079 26.6274 29.4843 26.6274 29.2608C25.4086 29.2206 24.221 29.2764 23.0646 29.4284C22.6675 29.0861 22.1396 29.0303 21.4811 29.2608C20.9468 29.0177 20.287 28.9059 19.5018 28.9255C18.6863 27.8319 18.0266 26.7144 17.5225 25.5728Z"
        fill="#CF1E2E" />
    <path fill-rule="evenodd" clip-rule="evenodd"
        d="M14.3555 28.9259C15.0387 29.3353 15.6325 29.7824 16.1369 30.267C17.1389 30.835 18.3925 31.2261 19.8976 31.4405C20.0295 31.4405 20.1615 31.4405 20.2935 31.4405C24.8405 31.703 27.7436 30.8648 29.0025 28.9259C29.2117 28.7001 29.2777 28.4765 29.2005 28.2554C28.6741 28.4367 28.0803 28.5486 27.4191 28.5906C28.2139 28.2943 29.0716 28.015 29.9922 27.7524C30.2792 28.2347 30.0812 28.6817 29.3984 29.0936C29.7882 29.3614 29.8542 29.6409 29.5963 29.9317C28.5931 30.2786 28.1313 30.7255 28.2108 31.2729C27.683 31.2729 27.1551 31.2729 26.6273 31.2729C26.6946 31.4945 26.5626 31.6901 26.2315 31.8596C25.2138 32.0106 24.2901 32.2341 23.4604 32.5302C22.0089 32.642 20.5574 32.642 19.1059 32.5302C18.3988 32.3986 17.805 32.2031 17.3245 31.9434C16.5732 31.2514 15.7154 30.5808 14.7513 29.9317C14.4918 29.6043 14.3599 29.2691 14.3555 28.9259Z"
        fill="#EBE8E7" />
    <path fill-rule="evenodd" clip-rule="evenodd"
        d="M29.0025 28.9258C27.7435 30.8647 24.8405 31.7029 20.2935 31.4404C23.1147 31.458 25.226 30.9551 26.6273 29.9316C27.2763 29.545 28.068 29.2098 29.0025 28.9258Z"
        fill="#DEAAAF" />
</svg>