<svg width="32" height="32" viewBox="0 0 32 32" fill="none" xmlns="http://www.w3.org/2000/svg">
<rect width="32" height="32" fill="white"/>
<path d="M13.3867 5.84518C12.6934 6.04073 11.8579 6.32518 11.5201 6.50296C5.77785 9.41851 3.84007 16.4763 7.30674 21.8096C9.61785 25.3474 14.0801 27.1607 18.3467 26.2896C20.0712 25.9341 22.1512 24.7963 23.449 23.4985C25.5112 21.4185 26.5423 18.9296 26.5423 15.9963C26.5423 11.4452 23.8045 7.5874 19.5556 6.11184C17.7245 5.47184 15.1823 5.36518 13.3867 5.84518ZM22.3645 9.6674C22.4534 10.4496 21.1379 19.0541 20.8712 19.4985C20.6223 19.9074 20.5867 19.9074 15.929 19.9074C11.7156 19.9074 11.2001 19.8718 10.8801 19.5874C10.5423 19.3029 8.35563 13.0807 8.35563 12.4229C8.35563 12.2629 8.49785 12.0141 8.67563 11.8541C9.01341 11.5518 20.889 9.06296 21.7779 9.11629C22.2223 9.15185 22.329 9.24073 22.3645 9.6674ZM14.329 21.7741C14.6845 22.3074 14.5245 22.8052 13.9379 23.0896C12.9956 23.5163 12.1779 22.3429 12.9067 21.6141C13.3156 21.1874 13.9912 21.2585 14.329 21.7741ZM19.3601 21.5785C19.7156 21.9874 19.5201 22.8052 19.0401 23.0541C18.5245 23.3029 18.0623 23.1252 17.7779 22.5563C17.3156 21.7207 18.7556 20.8496 19.3601 21.5785Z" fill="#ED2525"/>
<path d="M20.4988 10.3455C19.7699 10.5055 19.7344 10.5411 19.7344 11.1633V11.8388L20.4277 11.7677C21.0855 11.6966 21.1388 11.6611 21.2455 10.9855C21.3166 10.6122 21.3344 10.2566 21.2988 10.2388C21.281 10.2211 20.9077 10.2566 20.4988 10.3455Z" fill="#ED2525"/>
<path d="M18.4016 10.7674C18.3128 10.7852 18.0105 10.8563 17.7439 10.9097C17.3172 11.0163 17.2461 11.1052 17.2461 11.6563V12.2785L17.9216 12.1541C18.2772 12.083 18.5972 12.0119 18.6328 11.9941C18.775 11.8697 18.5616 10.7141 18.4016 10.7674Z" fill="#ED2525"/>
<path d="M15.4314 11.3254C14.9869 11.3965 14.9336 11.4854 14.9336 12.0365C14.9336 12.6054 14.9691 12.6587 15.3425 12.552C15.5558 12.4987 15.8403 12.4454 15.9647 12.4454C16.0891 12.4454 16.178 12.1965 16.178 11.8232C16.178 11.4854 16.1247 11.2188 16.0536 11.2188C15.9647 11.2365 15.698 11.2898 15.4314 11.3254Z" fill="#ED2525"/>
<path d="M12.9417 11.8579C12.5683 11.9468 12.4794 12.9779 12.8528 12.9779C13.5461 12.9601 13.8661 12.7468 13.8661 12.249C13.8661 11.7334 13.7061 11.6623 12.9417 11.8579Z" fill="#ED2525"/>
<path d="M10.4875 12.3554C9.59857 12.5332 9.50968 12.5865 9.56301 12.9776C9.58079 13.2087 9.61635 13.4221 9.6519 13.4399C9.70524 13.4932 11.4297 13.1732 11.5008 13.0843C11.5541 13.0487 11.5541 12.8176 11.5186 12.5865C11.4652 12.1776 11.4475 12.1776 10.4875 12.3554Z" fill="#ED2525"/>
<path d="M19.8588 12.9214C19.7877 12.9747 19.7344 13.4192 19.7344 13.8992C19.7344 14.6992 19.7699 14.7525 20.1788 14.7525C20.6766 14.7525 20.7122 14.6814 20.8722 13.5436C20.9788 12.8147 20.9788 12.7969 20.481 12.7969C20.1966 12.7969 19.9122 12.8503 19.8588 12.9214Z" fill="#ED2525"/>
<path d="M17.4772 13.2737C17.335 13.3093 17.2461 13.6649 17.2461 14.056C17.2461 14.7493 17.2461 14.7493 17.9572 14.7493H18.6683V13.9493C18.6683 13.1849 18.6505 13.1493 18.1883 13.1671C17.9039 13.1671 17.5839 13.2204 17.4772 13.2737Z" fill="#ED2525"/>
<path d="M15.2536 13.6315C15.0403 13.6848 14.9336 13.8804 14.9336 14.2359C14.9336 14.7159 14.9869 14.7515 15.5558 14.7515C16.1425 14.7515 16.178 14.7159 16.178 14.1293C16.178 13.4893 16.0536 13.4182 15.2536 13.6315Z" fill="#ED2525"/>
<path d="M12.9411 13.9934C12.7455 14.0468 12.6211 14.2423 12.6211 14.5268C12.6211 14.9001 12.6744 14.9534 13.03 14.8645C13.2433 14.8112 13.5278 14.7579 13.6522 14.7579C13.7589 14.7579 13.8655 14.5623 13.8655 14.3134C13.8655 13.869 13.67 13.7979 12.9411 13.9934Z" fill="#ED2525"/>
<path d="M10.5442 14.3404C9.70859 14.4471 9.97526 14.9271 10.8642 14.9271C11.433 14.9271 11.5575 14.8738 11.5575 14.5715C11.5575 14.376 11.4508 14.2338 11.3442 14.2515C11.2197 14.2515 10.8642 14.3049 10.5442 14.3404Z" fill="#ED2525"/>
<path d="M12.8522 15.9447C12.7278 15.9803 12.6211 16.2291 12.6211 16.4603C12.6211 16.8336 12.71 16.8869 13.2433 16.8869C13.8122 16.8869 13.8655 16.8514 13.8655 16.3536C13.8655 15.9091 13.7944 15.8203 13.4744 15.838C13.2433 15.838 12.9589 15.8914 12.8522 15.9447Z" fill="#ED2525"/>
<path d="M14.9336 16.3536C14.9336 16.8514 14.9869 16.8869 15.5558 16.8869C16.1247 16.8869 16.178 16.8514 16.178 16.3536C16.178 15.8558 16.1247 15.8203 15.5558 15.8203C14.9869 15.8203 14.9336 15.8558 14.9336 16.3536Z" fill="#ED2525"/>
<path d="M17.2461 16.3536C17.2461 16.8514 17.2816 16.8869 17.9572 16.8869C18.6328 16.8869 18.6683 16.8514 18.6683 16.3536C18.6683 15.8558 18.6328 15.8203 17.9572 15.8203C17.2816 15.8203 17.2461 15.8558 17.2461 16.3536Z" fill="#ED2525"/>
<path d="M19.7344 16.2648C19.7344 16.5848 19.8233 16.7092 20.0899 16.7092C20.3566 16.7092 20.4455 16.5848 20.4455 16.2648C20.4455 15.9448 20.3566 15.8203 20.0899 15.8203C19.8233 15.8203 19.7344 15.9448 19.7344 16.2648Z" fill="#ED2525"/>
<path d="M10.6839 16.5256C10.8084 16.8633 11.0039 17.0589 11.2172 17.0589C11.4661 17.0589 11.555 16.9345 11.555 16.5256C11.555 16.0456 11.5017 15.9922 11.0395 15.9922C10.5239 15.9922 10.5061 16.01 10.6839 16.5256Z" fill="#ED2525"/>
<path d="M19.7344 18.3067C19.7344 18.5912 19.8233 18.8401 19.9122 18.8401C20.0188 18.8401 20.0899 18.7334 20.0899 18.5912C20.0899 18.4489 20.1433 18.2178 20.1966 18.0578C20.2677 17.8623 20.2144 17.7734 20.0188 17.7734C19.8233 17.7734 19.7344 17.9334 19.7344 18.3067Z" fill="#ED2525"/>
<path d="M11.4141 18.3067C11.4141 18.5556 11.4496 18.6445 11.503 18.5201C11.5385 18.4134 11.5385 18.2001 11.503 18.0756C11.4496 17.969 11.4141 18.0579 11.4141 18.3067Z" fill="#ED2525"/>
<path d="M12.4453 18.3975C12.4453 18.7886 12.5164 18.842 13.1564 18.842C13.7964 18.842 13.8675 18.7886 13.8675 18.3975C13.8675 17.9886 13.7964 17.9531 13.1564 17.9531C12.5164 17.9531 12.4453 17.9886 12.4453 18.3975Z" fill="#ED2525"/>
<path d="M14.9336 18.3975C14.9336 18.7886 15.0047 18.842 15.5558 18.842C16.1069 18.842 16.178 18.7886 16.178 18.3975C16.178 18.0064 16.1069 17.9531 15.5558 17.9531C15.0047 17.9531 14.9336 18.0064 14.9336 18.3975Z" fill="#ED2525"/>
<path d="M17.2461 18.3975C17.2461 18.7886 17.3172 18.842 17.9572 18.842C18.5972 18.842 18.6683 18.7886 18.6683 18.3975C18.6683 17.9886 18.5972 17.9531 17.9572 17.9531C17.3172 17.9531 17.2461 17.9886 17.2461 18.3975Z" fill="#ED2525"/>
</svg>
