<svg width="32" height="32" viewBox="0 0 32 32" fill="none" xmlns="http://www.w3.org/2000/svg">
<g clip-path="url(#clip0_48_163)">
<rect width="32" height="32" fill="black"/>
<path fill-rule="evenodd" clip-rule="evenodd" d="M20 3.18367C20.2158 3.15591 20.4064 3.21034 20.5714 3.34693C21.1662 4.4221 21.3838 5.56496 21.2245 6.7755C21.0207 7.2782 20.7215 7.71358 20.3265 8.08162C20.7566 8.83908 20.9198 9.6554 20.8163 10.5306C22.4371 10.3847 23.4439 11.0922 23.8367 12.6531C24.2082 15.3358 23.7184 17.8392 22.3673 20.1633C22.0681 20.6803 21.6599 21.0885 21.1429 21.3877C20.7202 21.6583 20.2847 21.7128 19.8367 21.551C18.1471 23.9108 15.8614 24.8361 12.9796 24.3265C12.3271 24.055 11.7285 23.7014 11.1837 23.2653C10.48 23.6695 9.90862 24.2139 9.46938 24.898C9.09307 25.7502 8.76654 26.6209 8.48979 27.5102C7.44243 25.2965 7.22475 23.0108 7.83673 20.6531C8.34027 19.2178 9.29266 18.7553 10.6939 19.2653C11.3252 19.7058 11.9783 20.114 12.6531 20.4898C12.9395 20.2988 13.1028 20.0266 13.1429 19.6735C11.6474 18.3226 11.0215 16.6356 11.2653 14.6122C11.7839 13.3046 12.7363 12.5155 14.1224 12.2449C14.6011 12.0892 15.0909 12.0076 15.5918 12C15.5291 10.8426 15.6107 9.69978 15.8367 8.57142C16.4562 7.68166 17.2997 7.11023 18.3673 6.85713C19.7451 6.02007 20.2893 4.79558 20 3.18367Z" fill="#9C9C9E"/>
<path fill-rule="evenodd" clip-rule="evenodd" d="M20.4898 5.46936C20.6803 6.02118 20.5987 6.56539 20.2449 7.10201C20.2712 6.55805 20.3528 6.01383 20.4898 5.46936Z" fill="#DEDEDF"/>
<path fill-rule="evenodd" clip-rule="evenodd" d="M19.3469 6.77549C19.4676 6.7541 19.5765 6.78132 19.6734 6.85712C19.3404 7.49621 18.9866 8.12207 18.6122 8.73467C17.9226 9.19211 17.1879 9.57306 16.4081 9.87753C16.2282 9.4383 16.2554 9.00294 16.4898 8.57141C17.2592 7.9872 18.1027 7.5246 19.0204 7.18365C19.1642 7.06801 19.273 6.93196 19.3469 6.77549Z" fill="#F9F9F9"/>
<path fill-rule="evenodd" clip-rule="evenodd" d="M19.8368 8.73468C20.3692 9.19515 20.4508 9.73937 20.0817 10.3673C19.2346 10.6089 18.9081 10.2824 19.1021 9.38774C19.3742 9.1864 19.6191 8.96872 19.8368 8.73468Z" fill="#F8F8F8"/>
<path fill-rule="evenodd" clip-rule="evenodd" d="M18.0408 9.71429C18.3641 9.93429 18.5546 10.2608 18.6123 10.6939C18.8441 11.0077 19.1434 11.2254 19.5102 11.3469C18.8537 12.6814 17.9014 13.0079 16.6531 12.3265C16.2326 11.7967 16.0966 11.2253 16.2449 10.6123C16.8477 10.2952 17.4462 9.99585 18.0408 9.71429Z" fill="#FBFBFB"/>
<path fill-rule="evenodd" clip-rule="evenodd" d="M21.7959 11.3469C22.5549 11.5349 23.0175 12.0247 23.1837 12.8163C23.3056 14.0215 23.2512 15.2187 23.0204 16.4081C22.5551 15.1759 22.1197 13.9242 21.7143 12.653C21.5964 12.2024 21.6237 11.767 21.7959 11.3469Z" fill="#FAFAFA"/>
<path fill-rule="evenodd" clip-rule="evenodd" d="M20.8163 11.5102C21.3399 13.22 21.857 14.9615 22.3673 16.7347C22.4976 17.0219 22.4704 17.294 22.2857 17.551C20.6731 16.0697 18.7685 15.2533 16.5714 15.102C15.0582 15.1519 13.8065 15.7233 12.8163 16.8163C12.8707 16.8979 12.9252 16.9796 12.9796 17.0612C14.7351 16.2734 16.3678 16.4638 17.8775 17.6326C16.3384 18.1948 14.7602 18.5213 13.1428 18.6122C12.114 17.4088 11.7603 16.0211 12.0816 14.449C12.4819 13.9068 12.9989 13.4986 13.6326 13.2245C14.3837 12.9823 15.1456 12.7918 15.9184 12.653C16.4911 13.3217 17.1985 13.621 18.0408 13.551C19.0351 12.947 19.9603 12.2667 20.8163 11.5102Z" fill="#FCFCFC"/>
<path fill-rule="evenodd" clip-rule="evenodd" d="M15.5918 15.7551C17.9234 15.6342 19.9369 16.3688 21.6326 17.9592C20.9673 18.2954 20.2597 18.4043 19.5102 18.2857C18.7951 17.6248 18.0333 17.0261 17.2244 16.4898C16.6071 16.1915 15.954 16.0283 15.2653 16C15.4148 15.9546 15.5236 15.8729 15.5918 15.7551Z" fill="#F9F9F9"/>
<path fill-rule="evenodd" clip-rule="evenodd" d="M17.8775 18.2041C18.3086 18.2782 18.6895 18.4688 19.0204 18.7755C19.2872 18.8562 19.5593 18.8833 19.8367 18.8572C19.3954 21.5572 17.8171 23.1626 15.102 23.6735C13.6656 23.8839 12.4139 23.5029 11.3469 22.5306C12.6306 21.9272 13.5558 20.9749 14.1224 19.6735C15.4033 19.2111 16.655 18.7213 17.8775 18.2041Z" fill="#FCFCFC"/>
<path fill-rule="evenodd" clip-rule="evenodd" d="M22.2857 18.3674C22.3743 18.3772 22.4287 18.4315 22.4489 18.5306C22.0391 19.5395 21.3861 20.3558 20.4897 20.9796C20.3265 20.9252 20.2176 20.8164 20.1632 20.6531C20.4235 20.0831 20.5324 19.4844 20.4897 18.8572C21.1394 18.8177 21.7381 18.6544 22.2857 18.3674Z" fill="#FAFAFA"/>
<path fill-rule="evenodd" clip-rule="evenodd" d="M9.38773 19.8367C9.67917 20.5824 9.81522 21.3987 9.79589 22.2857C9.87752 22.585 10.068 22.7755 10.3673 22.8571C9.56506 23.4973 8.9392 24.2864 8.48977 25.2245C8.17561 23.8676 8.17561 22.5071 8.48977 21.1429C8.69767 20.6372 8.99698 20.2018 9.38773 19.8367Z" fill="#FCFCFC"/>
<path fill-rule="evenodd" clip-rule="evenodd" d="M10.6939 20.3265C11.2197 20.5239 11.7095 20.7961 12.1633 21.1429C11.7168 21.6379 11.1726 21.9644 10.5306 22.1225C10.5392 21.5187 10.5936 20.92 10.6939 20.3265Z" fill="#F9F9F9"/>
</g>
<defs>
<clipPath id="clip0_48_163">
<rect width="32" height="32" fill="white"/>
</clipPath>
</defs>
</svg>
