<svg width="32" height="32" viewBox="0 0 32 32" fill="none" xmlns="http://www.w3.org/2000/svg">
<g clip-path="url(#clip0_58_719)">
<path d="M32 0H0V32H32V0Z" fill="white"/>
<mask id="mask0_58_719" style="mask-type:luminance" maskUnits="userSpaceOnUse" x="0" y="1" width="32" height="30">
<path d="M31.5429 1.37143H0.457153V30.6286H31.5429V1.37143Z" fill="white"/>
</mask>
<g mask="url(#mask0_58_719)">
<path fill-rule="evenodd" clip-rule="evenodd" d="M0.380981 1.29524C10.7429 1.29524 21.1048 1.29524 31.4667 1.29524C31.4667 11.0476 31.4667 20.8 31.4667 30.5524C21.1048 30.5524 10.7429 30.5524 0.380981 30.5524C0.380981 20.8 0.380981 11.0476 0.380981 1.29524Z" fill="#FEFEFE"/>
<path fill-rule="evenodd" clip-rule="evenodd" d="M6.32385 7.39048C7.49211 7.39048 8.66036 7.39048 9.82861 7.39048C9.77787 10.6428 9.82866 13.8937 9.981 17.1429C10.0734 17.124 10.1242 17.0732 10.1334 16.9905C11.8802 15.4219 13.6072 13.8218 15.3143 12.1905C16.7365 12.0889 18.1588 12.0889 19.581 12.1905C17.8265 13.9196 16.0994 15.6719 14.4 17.4476C16.23 19.7888 18.0586 22.1253 19.8858 24.4571C18.5421 24.6085 17.1706 24.6594 15.7715 24.6095C14.4035 22.9871 13.0321 21.3617 11.6572 19.7333C11.1419 20.3502 10.5832 20.909 9.981 21.4095C9.82996 22.4477 9.77917 23.5144 9.82861 24.6095C8.66036 24.6095 7.49211 24.6095 6.32385 24.6095C6.32385 18.8698 6.32385 13.1302 6.32385 7.39048Z" fill="#010101"/>
<path fill-rule="evenodd" clip-rule="evenodd" d="M6.32385 7.39048C7.51485 7.23925 8.73389 7.18847 9.981 7.2381C9.93062 10.5153 9.98141 13.7661 10.1334 16.9905C10.1242 17.0732 10.0734 17.124 9.981 17.1429C9.82866 13.8937 9.77787 10.6429 9.82861 7.39048C8.66036 7.39048 7.49211 7.39048 6.32385 7.39048Z" fill="#767676"/>
<path fill-rule="evenodd" clip-rule="evenodd" d="M22.6286 20.0381C23.9756 19.9116 24.9152 20.4704 25.4476 21.7143C25.4661 24.2584 24.2725 25.0965 21.8667 24.2286C20.7129 23.0528 20.662 21.8338 21.7143 20.5714C22.0087 20.3491 22.3135 20.1714 22.6286 20.0381Z" fill="#E00D03"/>
<path fill-rule="evenodd" clip-rule="evenodd" d="M9.981 21.4095C9.981 22.5269 9.981 23.6445 9.981 24.7619C8.73389 24.8116 7.51485 24.7607 6.32385 24.6095C7.49211 24.6095 8.66036 24.6095 9.82861 24.6095C9.77917 23.5144 9.82996 22.4477 9.981 21.4095Z" fill="#848484"/>
<path fill-rule="evenodd" clip-rule="evenodd" d="M19.8858 24.4571C20.006 24.5003 20.1076 24.5765 20.1905 24.6857C18.6908 24.8114 17.2177 24.786 15.7715 24.6095C17.1706 24.6594 18.5421 24.6085 19.8858 24.4571Z" fill="#919191"/>
</g>
</g>
<defs>
<clipPath id="clip0_58_719">
<rect width="32" height="32" fill="white"/>
</clipPath>
</defs>
</svg>
