<svg width="32" height="32" viewBox="0 0 32 32" fill="none" xmlns="http://www.w3.org/2000/svg">
<g clip-path="url(#clip0_53_495)">
<path opacity="0.922" fill-rule="evenodd" clip-rule="evenodd" d="M4.44446 0.414817C12.1483 0.395064 19.852 0.414817 27.5556 0.474076C28.1804 0.608349 28.7335 0.865139 29.2148 1.24445C28.7563 1.03532 28.2822 0.857543 27.7926 0.711113C19.9694 0.730555 12.1868 0.63179 4.44446 0.414817Z" fill="#1988D2"/>
<path fill-rule="evenodd" clip-rule="evenodd" d="M4.44447 0.414795C12.1868 0.631768 19.9694 0.730533 27.7926 0.711091C28.2822 0.857521 28.7563 1.0353 29.2148 1.24442C29.5617 1.39344 29.8384 1.63047 30.0445 1.95554C30.1132 2.22206 30.2712 2.41958 30.5185 2.54813C30.6833 2.71397 30.8018 2.91149 30.8741 3.14072C30.8768 3.42833 30.9361 3.70487 31.0519 3.97035C31.1111 11.6739 31.1309 19.3776 31.1111 27.0815C31.089 27.6045 31.0099 28.118 30.8741 28.6222C30.7948 29.0191 30.5972 29.3352 30.2815 29.5703C30.005 29.7679 29.768 30.005 29.5704 30.2815C29.4161 30.5567 29.179 30.7146 28.8593 30.7555C28.3232 30.9538 27.7701 31.0921 27.2 31.1703C19.5754 31.2494 11.9506 31.2494 4.32595 31.1703C3.8887 31.0694 3.45414 30.9706 3.02224 30.8741C1.62967 30.2506 0.780288 29.184 0.474096 27.6741C0.375479 19.7925 0.395232 11.9306 0.533355 4.08887C0.791573 3.65005 0.989104 3.17598 1.12595 2.66665C1.8577 1.39018 2.96387 0.639566 4.44447 0.414795Z" fill="#016CC8"/>
<path opacity="0.749" fill-rule="evenodd" clip-rule="evenodd" d="M30.0444 1.95557C30.2918 2.08411 30.4498 2.28163 30.5185 2.54816C30.2712 2.41961 30.1132 2.22209 30.0444 1.95557Z" fill="#459CDB"/>
<path opacity="0.804" fill-rule="evenodd" clip-rule="evenodd" d="M1.12592 2.66669C0.989074 3.17602 0.791544 3.65009 0.533325 4.08891C0.561362 3.7159 0.660127 3.36034 0.829621 3.02224C0.874273 2.8513 0.97304 2.73278 1.12592 2.66669Z" fill="#3997D9"/>
<path fill-rule="evenodd" clip-rule="evenodd" d="M12.5036 4.68146C13.4158 4.64225 14.3243 4.68175 15.2296 4.79997C13.4446 11.9887 11.7063 19.1789 10.0148 26.3703C9.14562 26.3703 8.27648 26.3703 7.40735 26.3703C9.04255 19.1278 10.7413 11.8982 12.5036 4.68146Z" fill="#FAFCFD"/>
<path fill-rule="evenodd" clip-rule="evenodd" d="M21.3926 4.79999C22.0247 4.79999 22.6568 4.79999 23.2889 4.79999C23.2889 5.66912 23.2889 6.53826 23.2889 7.4074C23.0619 7.37368 22.8645 7.41319 22.6963 7.52591C21.9478 7.41602 21.4144 7.69256 21.0963 8.35554C21.0501 9.85857 20.9712 11.3598 20.8593 12.8592C20.634 14.0613 20.0216 15.0094 19.0222 15.7037C19.8448 16.2687 20.4176 17.0194 20.7408 17.9555C20.9227 19.7339 21.0808 21.5117 21.2148 23.2889C21.5447 23.7598 21.999 23.9572 22.5778 23.8815C22.787 23.9954 23.024 24.035 23.2889 24C23.2889 24.8691 23.2889 25.7383 23.2889 26.6074C22.6963 26.6074 22.1037 26.6074 21.5111 26.6074C19.736 26.5895 18.6495 25.7204 18.2519 24C18.1158 22.5421 18.0368 21.0804 18.0148 19.6148C17.9827 18.0222 17.1728 17.1925 15.5852 17.1259C15.5852 16.1778 15.5852 15.2296 15.5852 14.2815C17.0472 14.2623 17.8571 13.5116 18.0148 12.0296C18.0543 10.6469 18.0939 9.26419 18.1334 7.88147C18.3899 5.98549 19.4764 4.95833 21.3926 4.79999Z" fill="#FBFDFD"/>
<path fill-rule="evenodd" clip-rule="evenodd" d="M21.3926 4.80002C22.0415 4.68281 22.7131 4.64331 23.4074 4.6815C23.4074 5.62964 23.4074 6.57779 23.4074 7.52594C23.1704 7.52594 22.9333 7.52594 22.6963 7.52594C22.8645 7.41322 23.0619 7.3737 23.2889 7.40742C23.2889 6.53829 23.2889 5.66915 23.2889 4.80002C22.6568 4.80002 22.0246 4.80002 21.3926 4.80002Z" fill="#A5D2EE"/>
<path opacity="0.906" fill-rule="evenodd" clip-rule="evenodd" d="M30.874 3.14075C31.0847 3.54398 31.2427 3.97854 31.3481 4.44445C31.269 11.9902 31.1901 19.5358 31.1111 27.0815C31.1309 19.3777 31.1111 11.674 31.0518 3.97038C30.936 3.7049 30.8767 3.42836 30.874 3.14075Z" fill="#0F7FCF"/>
<path opacity="0.141" fill-rule="evenodd" clip-rule="evenodd" d="M31.3481 4.44446C31.3679 12.1483 31.3481 19.852 31.2888 27.5556C31.2029 27.9455 31.0646 28.3011 30.874 28.6222C31.0098 28.1181 31.0889 27.6045 31.1111 27.0815C31.1901 19.5358 31.269 11.9902 31.3481 4.44446Z" fill="#219CD9"/>
<path fill-rule="evenodd" clip-rule="evenodd" d="M22.5778 23.8815C22.8543 23.8815 23.1309 23.8815 23.4074 23.8815C23.4074 24.8296 23.4074 25.7778 23.4074 26.7259C22.7525 26.764 22.1203 26.7245 21.5111 26.6074C22.1037 26.6074 22.6963 26.6074 23.2889 26.6074C23.2889 25.7383 23.2889 24.8691 23.2889 24C23.024 24.035 22.787 23.9954 22.5778 23.8815Z" fill="#95C9EA"/>
<path opacity="0.251" fill-rule="evenodd" clip-rule="evenodd" d="M30.2814 29.5704C30.1629 29.9259 29.9259 30.163 29.5703 30.2815C29.7679 30.005 30.0049 29.7679 30.2814 29.5704Z" fill="#33A0DB"/>
<path opacity="0.576" fill-rule="evenodd" clip-rule="evenodd" d="M28.8593 30.7556C28.7931 30.9084 28.6746 31.0072 28.5037 31.0519C28.1876 31.1309 27.8716 31.2098 27.5555 31.2889C19.7333 31.3679 11.9111 31.3679 4.08888 31.2889C3.69007 31.229 3.33451 31.0907 3.02222 30.8741C3.45411 30.9707 3.88867 31.0694 4.32592 31.1704C11.9506 31.2494 19.5753 31.2494 27.2 31.1704C27.7701 31.0921 28.3232 30.9538 28.8593 30.7556Z" fill="#1C8ED5"/>
</g>
<defs>
<clipPath id="clip0_53_495">
<rect width="32" height="32" fill="white"/>
</clipPath>
</defs>
</svg>
