<svg width="32" height="32" viewBox="0 0 32 32" fill="none" xmlns="http://www.w3.org/2000/svg">
<g clip-path="url(#clip0_6013_32)">
<path fill-rule="evenodd" clip-rule="evenodd" d="M-0.0711136 -0.0711136C10.5956 -0.0711136 21.2622 -0.0711136 31.9289 -0.0711136C31.9289 10.5956 31.9289 21.2622 31.9289 31.9289C21.2622 31.9289 10.5956 31.9289 -0.0711136 31.9289C-0.0711136 21.2622 -0.0711136 10.5956 -0.0711136 -0.0711136Z" fill="#FEFEFE"/>
<path fill-rule="evenodd" clip-rule="evenodd" d="M21.12 6.04444C20.9304 5.94962 20.7882 5.8074 20.6933 5.61778C22.4695 4.32027 24.0815 4.4862 25.5289 6.11555C26.5896 6.66029 27.6799 6.7551 28.8 6.4C29.1847 6.86108 29.5167 7.35886 29.7956 7.89333C28.5234 9.12505 27.1012 9.33838 25.5289 8.53333C24.9893 8.01724 24.4679 7.47204 23.9644 6.89778C23.1511 6.18438 22.203 5.89993 21.12 6.04444Z" fill="#F37245"/>
<path fill-rule="evenodd" clip-rule="evenodd" d="M20.6933 5.61778C20.7882 5.8074 20.9304 5.94962 21.12 6.04444C21.3835 6.42964 21.5258 6.8563 21.5467 7.32444C21.5467 7.75111 21.5467 8.17778 21.5467 8.60444C21.4054 9.76354 21.3581 10.9487 21.4044 12.16C20.4089 12.16 19.4133 12.16 18.4178 12.16C18.4515 11.9764 18.4041 11.8342 18.2756 11.7333C18.0244 11.3511 17.7873 10.9481 17.5644 10.5244C15.2893 10.4533 13.0138 10.4296 10.7378 10.4533C10.5956 10.4533 10.4533 10.4533 10.3111 10.4533C10.3111 10.3111 10.3111 10.1689 10.3111 10.0267C12.5413 10.074 14.7695 10.0266 16.9956 9.88444C16.9779 9.79816 16.9306 9.75075 16.8533 9.74222C15.4772 8.60628 13.9128 8.29814 12.16 8.81778C11.686 8.95993 11.2594 9.17326 10.88 9.45778C12.1434 6.39505 14.4427 4.92542 17.7778 5.04889C18.8161 4.94535 19.7881 5.13497 20.6933 5.61778Z" fill="#112649"/>
<path fill-rule="evenodd" clip-rule="evenodd" d="M21.5467 7.32445C22.0594 7.36692 22.5335 7.53285 22.9689 7.82223C23.4738 8.37442 23.9242 8.96701 24.32 9.6C25.0611 10.4564 25.9856 10.7646 27.0933 10.5244C28.1683 10.0937 29.2349 9.64331 30.2933 9.17334C30.6822 9.59525 30.943 10.093 31.0756 10.6667C30.9305 10.9548 30.6934 11.1444 30.3644 11.2356C29.2582 11.6228 28.1678 12.0495 27.0933 12.5156C25.946 12.8983 24.9267 12.6849 24.0356 11.8756C23.5257 11.093 23.0515 10.2871 22.6133 9.45778C22.371 9.19134 22.1103 8.9543 21.8311 8.74667C21.7825 8.62746 21.6878 8.58004 21.5467 8.60445C21.5467 8.17778 21.5467 7.75111 21.5467 7.32445Z" fill="#F27043"/>
<path fill-rule="evenodd" clip-rule="evenodd" d="M16.8533 9.74222C14.8874 9.88385 12.8962 9.93125 10.88 9.88445C10.88 9.74222 10.88 9.6 10.88 9.45778C11.2594 9.17326 11.686 8.95993 12.16 8.81778C13.9128 8.29814 15.4772 8.60628 16.8533 9.74222Z" fill="#E6AA69"/>
<path fill-rule="evenodd" clip-rule="evenodd" d="M21.5467 8.60444C21.6878 8.58004 21.7825 8.62745 21.8311 8.74666C21.7363 10.5956 21.6415 12.4444 21.5467 14.2933C21.5467 14.246 21.5467 14.1985 21.5467 14.1511C21.5467 12.3022 21.5467 10.4533 21.5467 8.60444Z" fill="#C6C5CC"/>
<path fill-rule="evenodd" clip-rule="evenodd" d="M16.8533 9.74222C16.9306 9.75075 16.9779 9.79815 16.9956 9.88444C14.7695 10.0266 12.5413 10.074 10.3111 10.0267C10.4629 9.89376 10.6526 9.84635 10.88 9.88444C12.8962 9.93125 14.8874 9.88384 16.8533 9.74222Z" fill="#5B4D56"/>
<path fill-rule="evenodd" clip-rule="evenodd" d="M10.7378 10.4533C13.0138 10.4296 15.2893 10.4533 17.5644 10.5244C17.7873 10.9481 18.0244 11.3511 18.2756 11.7333C18.2756 11.8756 18.2756 12.0178 18.2756 12.16C16.5215 12.16 14.7674 12.16 13.0133 12.16C13.0367 11.7778 13.013 11.3985 12.9422 11.0222C12.6912 11.3823 12.4778 11.7616 12.3022 12.16C11.7333 12.16 11.1644 12.16 10.5956 12.16C10.5956 12.0178 10.5956 11.8756 10.5956 11.7333C10.8503 11.7524 11.0874 11.705 11.3067 11.5911C11.4632 11.7473 11.6529 11.771 11.8756 11.6622C12.0397 11.0897 11.8026 10.829 11.1644 10.88C11.0222 10.88 10.88 10.88 10.7378 10.88C10.7378 10.7378 10.7378 10.5956 10.7378 10.4533Z" fill="#E5AA6A"/>
<path fill-rule="evenodd" clip-rule="evenodd" d="M11.1644 10.88C11.8026 10.829 12.0397 11.0897 11.8756 11.6622C11.6529 11.771 11.4632 11.7473 11.3067 11.5911C11.3257 11.3363 11.2783 11.0993 11.1644 10.88Z" fill="#F6EFE8"/>
<path fill-rule="evenodd" clip-rule="evenodd" d="M13.0133 12.16C12.7763 12.16 12.5393 12.16 12.3022 12.16C12.4778 11.7616 12.6912 11.3823 12.9422 11.0222C13.013 11.3985 13.0367 11.7778 13.0133 12.16Z" fill="#DD7E2A"/>
<path fill-rule="evenodd" clip-rule="evenodd" d="M16.2844 10.88C16.4467 11.1714 16.4467 11.4558 16.2844 11.7333C15.561 11.764 15.4187 11.5032 15.8578 10.9511C15.9926 10.8824 16.1348 10.8587 16.2844 10.88Z" fill="#191616"/>
<path fill-rule="evenodd" clip-rule="evenodd" d="M16.2844 10.88C16.9471 10.811 17.1366 11.0717 16.8533 11.6622C16.6694 11.7319 16.4797 11.7556 16.2844 11.7333C16.4467 11.4558 16.4467 11.1714 16.2844 10.88Z" fill="#F4F2F0"/>
<path fill-rule="evenodd" clip-rule="evenodd" d="M10.7378 10.88C10.88 10.88 11.0222 10.88 11.1644 10.88C11.2783 11.0993 11.3257 11.3363 11.3067 11.5911C11.0874 11.705 10.8503 11.7524 10.5956 11.7333C10.4015 11.4132 10.4489 11.1288 10.7378 10.88Z" fill="#151213"/>
<path fill-rule="evenodd" clip-rule="evenodd" d="M21.5467 14.1511C21.5467 14.1985 21.5467 14.246 21.5467 14.2933C21.5467 14.3407 21.5467 14.3882 21.5467 14.4356C20.5511 14.4356 19.5556 14.4356 18.56 14.4356C18.56 13.8193 18.56 13.203 18.56 12.5867C19.5082 12.5867 20.4562 12.5867 21.4044 12.5867C21.3596 13.1373 21.407 13.6588 21.5467 14.1511Z" fill="#0B2548"/>
<path fill-rule="evenodd" clip-rule="evenodd" d="M13.0133 12.7289C13.0133 13.2504 13.0133 13.7718 13.0133 14.2933C12.3496 14.2933 11.6859 14.2933 11.0222 14.2933C11.3051 13.8232 11.5895 13.3491 11.8756 12.8711C12.2434 12.7317 12.6227 12.6843 13.0133 12.7289Z" fill="#E07E27"/>
<path fill-rule="evenodd" clip-rule="evenodd" d="M10.3111 12.5867C13.0381 12.5397 15.7403 12.5871 18.4178 12.7289C16.6162 12.7289 14.8149 12.7289 13.0133 12.7289C12.6227 12.6843 12.2434 12.7317 11.8756 12.8711C11.5895 13.3491 11.3051 13.8232 11.0222 14.2933C10.88 14.2933 10.7378 14.2933 10.5956 14.2933C10.6644 13.6779 10.5696 13.109 10.3111 12.5867Z" fill="#CE9A68"/>
<path fill-rule="evenodd" clip-rule="evenodd" d="M13.0133 12.7289C14.8149 12.7289 16.6163 12.7289 18.4178 12.7289C18.4178 13.1556 18.4178 13.5822 18.4178 14.0089C16.6517 14.2862 14.8501 14.3811 13.0133 14.2933C13.0133 13.7718 13.0133 13.2504 13.0133 12.7289Z" fill="#E9AB69"/>
<path fill-rule="evenodd" clip-rule="evenodd" d="M18.4178 14.0089C18.4178 14.1511 18.4178 14.2933 18.4178 14.4356C15.8104 14.4356 13.203 14.4356 10.5956 14.4356C10.5956 14.3882 10.5956 14.3407 10.5956 14.2933C10.7378 14.2933 10.88 14.2933 11.0222 14.2933C11.6859 14.2933 12.3496 14.2933 13.0133 14.2933C14.8501 14.3811 16.6517 14.2862 18.4178 14.0089Z" fill="#A5785A"/>
<path fill-rule="evenodd" clip-rule="evenodd" d="M21.5467 8.60445C21.5467 10.4533 21.5467 12.3022 21.5467 14.1511C21.407 13.6588 21.3596 13.1373 21.4044 12.5867C20.4562 12.5867 19.5082 12.5867 18.56 12.5867C18.56 13.203 18.56 13.8193 18.56 14.4356C19.5556 14.4356 20.5511 14.4356 21.5467 14.4356C21.5467 14.5304 21.5467 14.6251 21.5467 14.72C21.4181 14.8208 21.3707 14.9631 21.4044 15.1467C20.4447 14.8289 19.4492 14.7816 18.4178 15.0044C18.3467 15.1467 18.2756 15.2889 18.2044 15.4311C18.1477 15.3987 18.1241 15.3512 18.1333 15.2889C18.1333 15.1467 18.1333 15.0044 18.1333 14.8622C15.6207 14.8622 13.1082 14.8622 10.5956 14.8622C10.2163 14.72 10.2163 14.5778 10.5956 14.4356C13.203 14.4356 15.8104 14.4356 18.4178 14.4356C18.4178 14.2933 18.4178 14.1511 18.4178 14.0089C18.4178 13.5822 18.4178 13.1556 18.4178 12.7289C15.7403 12.5871 13.0381 12.5397 10.3111 12.5867C10.2806 12.3479 10.3754 12.2057 10.5956 12.16C11.1644 12.16 11.7333 12.16 12.3022 12.16C12.5393 12.16 12.7763 12.16 13.0133 12.16C14.7674 12.16 16.5215 12.16 18.2756 12.16C18.2756 12.0178 18.2756 11.8756 18.2756 11.7333C18.4041 11.8342 18.4515 11.9764 18.4178 12.16C19.4133 12.16 20.4089 12.16 21.4044 12.16C21.3581 10.9487 21.4054 9.76354 21.5467 8.60445Z" fill="#0E204A"/>
<path fill-rule="evenodd" clip-rule="evenodd" d="M21.4044 15.1467C20.7467 17.8664 19.04 19.5019 16.2844 20.0533C15.0044 20.1482 13.7244 20.1482 12.4444 20.0533C11.6684 19.7741 11.0995 19.2764 10.7378 18.56C10.7378 18.4178 10.7378 18.2756 10.7378 18.1333C10.6959 17.8155 10.7433 17.531 10.88 17.28C12.8343 18.6239 14.778 18.6001 16.7111 17.2089C14.7679 17.1378 12.8243 17.114 10.88 17.1378C10.7852 17.1378 10.6904 17.1378 10.5956 17.1378C10.4411 17.1207 10.3463 17.0258 10.3111 16.8533C10.3463 16.6808 10.4411 16.586 10.5956 16.5689C12.8716 16.5926 15.1471 16.5689 17.4222 16.4978C17.6471 16.0695 17.884 15.6666 18.1333 15.2889C18.1241 15.3512 18.1477 15.3987 18.2044 15.4311C18.2756 15.2889 18.3467 15.1467 18.4178 15.0044C19.4492 14.7816 20.4447 14.8289 21.4044 15.1467Z" fill="#122649"/>
<path fill-rule="evenodd" clip-rule="evenodd" d="M10.5956 14.8622C13.1082 14.8622 15.6207 14.8622 18.1333 14.8622C18.1333 15.0044 18.1333 15.1467 18.1333 15.2889C17.884 15.6666 17.6471 16.0695 17.4222 16.4978C15.1471 16.5689 12.8716 16.5926 10.5956 16.5689C10.5956 16 10.5956 15.4311 10.5956 14.8622Z" fill="#E8AC6A"/>
<path fill-rule="evenodd" clip-rule="evenodd" d="M15.4311 15.1467C15.5982 15.1155 15.7404 15.1629 15.8578 15.2889C15.3422 16.0447 14.6311 16.424 13.7244 16.4267C13.7244 16.2844 13.7244 16.1422 13.7244 16C14.4528 16.0114 15.0217 15.7269 15.4311 15.1467Z" fill="#FDF8F3"/>
<path fill-rule="evenodd" clip-rule="evenodd" d="M21.5467 14.72C21.5231 15.8588 21.5467 16.9966 21.6178 18.1333C21.7126 18.3229 21.8074 18.5126 21.9022 18.7022C23.3825 19.9518 24.8758 21.1844 26.3822 22.4C26.2022 22.5226 26.0126 22.6175 25.8133 22.6844C23.7497 23.518 21.7112 24.3713 19.6978 25.2444C19.5025 25.2668 19.3128 25.243 19.1289 25.1733C17.3643 23.6159 15.5866 22.075 13.7956 20.5511C12.5867 21.76 11.3778 22.9689 10.1689 24.1778C9.74196 24.1553 9.31529 24.0842 8.88889 23.9644C8.3822 23.6055 7.81331 23.3684 7.18223 23.2533C6.95464 23.0906 6.7176 22.9247 6.47112 22.7556C7.87461 21.3282 9.29683 19.9297 10.7378 18.56C11.0996 19.2764 11.6684 19.7742 12.4444 20.0533C13.7244 20.1482 15.0044 20.1482 16.2844 20.0533C19.04 19.5019 20.7467 17.8664 21.4044 15.1467C21.3707 14.9631 21.4181 14.8208 21.5467 14.72Z" fill="#0B0405"/>
<path fill-rule="evenodd" clip-rule="evenodd" d="M10.5956 17.1378C10.6904 17.1378 10.7852 17.1378 10.88 17.1378C10.88 17.1851 10.88 17.2326 10.88 17.28C10.7433 17.531 10.6959 17.8155 10.7378 18.1333C10.6001 17.8337 10.5527 17.5017 10.5956 17.1378Z" fill="#797A89"/>
<path fill-rule="evenodd" clip-rule="evenodd" d="M10.88 17.28C10.88 17.2326 10.88 17.1851 10.88 17.1378C12.8243 17.114 14.7679 17.1378 16.7111 17.2089C14.778 18.6001 12.8343 18.6239 10.88 17.28Z" fill="#E3A869"/>
<path fill-rule="evenodd" clip-rule="evenodd" d="M19.6978 25.2444C20.8673 26.9035 21.531 28.7524 21.6889 30.7911C17.955 32.0791 14.2098 32.1028 10.4533 30.8622C10.0879 30.7345 9.7561 30.5685 9.45777 30.3644C9.25598 28.2294 9.06634 26.0961 8.88889 23.9644C9.31528 24.0842 9.74195 24.1553 10.1689 24.1778C11.3778 22.9689 12.5867 21.76 13.7956 20.5511C15.5866 22.075 17.3643 23.6159 19.1289 25.1733C19.3128 25.243 19.5025 25.2668 19.6978 25.2444Z" fill="#F26F43"/>
<path fill-rule="evenodd" clip-rule="evenodd" d="M25.8133 22.6844C26.0905 23.5236 26.4461 24.3294 26.88 25.1022C27.1734 25.7424 27.3156 26.406 27.3067 27.0933C25.7149 28.7569 23.8423 29.9894 21.6889 30.7911C21.531 28.7524 20.8673 26.9035 19.6978 25.2444C21.7112 24.3713 23.7497 23.518 25.8133 22.6844Z" fill="#0D2649"/>
<path fill-rule="evenodd" clip-rule="evenodd" d="M7.18222 23.2533C7.81331 23.3684 8.38219 23.6055 8.88889 23.9644C9.06634 26.0961 9.25598 28.2294 9.45778 30.3644C7.91019 29.6971 6.51167 28.7964 5.26222 27.6622C5.58639 26.0648 6.22639 24.5951 7.18222 23.2533Z" fill="#0F2649"/>
</g>
<defs>
<clipPath id="clip0_6013_32">
<rect width="32" height="32" fill="white"/>
</clipPath>
</defs>
</svg>
