<svg width="32" height="32" viewBox="0 0 32 32" fill="none" xmlns="http://www.w3.org/2000/svg">
<path d="M3.61543 24.8029C3.89907 24.8146 4.18562 24.8538 4.45252 24.952V24.9491L4.49325 24.9637L8.01471 21.5287L8.14416 21.7011C8.32671 21.9484 8.52089 22.1746 8.72598 22.4007L8.80089 22.4873C8.85471 22.5411 8.89761 22.5949 8.95143 22.6487L9.03871 22.7346L9.1238 22.8211L9.19943 22.896L9.28525 22.9826L9.36089 23.0575L9.45761 23.144L9.54489 23.2197C11.1776 24.6093 13.2379 25.3962 15.3813 25.4487C17.1465 25.4931 18.8888 25.0416 20.4103 24.1455L20.6794 24.4255C20.9922 24.7593 21.3151 25.0931 21.6278 25.4269C19.7553 26.6307 17.5636 27.2425 15.3383 27.1826C12.8282 27.1226 10.4129 26.2111 8.48889 24.5978L8.4998 24.576L6.24016 26.8037C6.41162 27.3707 6.39994 27.9773 6.2068 28.5373C6.01366 29.0973 5.64888 29.5822 5.16434 29.9229C4.67979 30.2637 4.10014 30.443 3.50782 30.4354C2.9155 30.4278 2.34065 30.2337 1.86501 29.8806C1.38938 29.5275 1.03718 29.0334 0.858484 28.4686C0.679791 27.9038 0.683706 27.2971 0.86967 26.7347C1.05564 26.1722 1.41418 25.6828 1.89433 25.3358C2.37448 24.9889 2.95179 24.8022 3.54416 24.8022H3.61689L3.61543 24.8029ZM25.1493 10.2742C26.2551 12.0956 26.8122 14.1973 26.7536 16.3273C26.6902 18.9277 25.7101 21.4221 23.9863 23.3702L23.9973 23.3811L25.3863 24.8567C25.9463 24.7811 26.5063 24.9746 26.894 25.384C27.2113 25.7202 27.3826 26.1683 27.3705 26.6305C27.3583 27.0926 27.1638 27.5311 26.8293 27.8502C26.4931 28.1673 26.0451 28.3385 25.5832 28.3263C25.1212 28.3142 24.6829 28.1198 24.3638 27.7855C24.1736 27.5843 24.0342 27.3407 23.9573 27.0747C23.8804 26.8088 23.8682 26.5284 23.9216 26.2567C23.1099 25.3888 22.2954 24.5236 21.478 23.6611L21.3369 23.5106L21.4983 23.3811C21.9195 23.048 22.309 22.6767 22.662 22.272C24.134 20.6194 24.97 18.4969 25.0205 16.2844C25.0672 14.6151 24.6654 12.9638 23.8569 11.5026L25.1493 10.2742ZM5.52525 3.69165C6.0198 3.68438 6.48525 3.88001 6.82998 4.23274C7.02006 4.43408 7.1593 4.67793 7.23609 4.94396C7.31287 5.21 7.32499 5.49053 7.27143 5.7622L9.94271 8.5622L9.78052 8.69165C9.36089 9.02547 8.97325 9.39129 8.61761 9.80074C7.32774 11.2529 6.51928 13.0689 6.30336 14.9991C6.08744 16.9294 6.47466 18.8791 7.4118 20.5804L6.12961 21.8298C5.00971 20.0025 4.4485 17.8876 4.51507 15.7455C4.57034 13.1527 5.58052 10.648 7.27725 8.69747L5.80671 7.16292C5.53148 7.20081 5.25119 7.17261 4.98902 7.08067C4.72686 6.98873 4.49035 6.83568 4.29907 6.6342C3.98186 6.29791 3.81067 5.84973 3.82294 5.3876C3.8352 4.92547 4.02992 4.487 4.36452 4.16801C4.63811 3.91126 4.98631 3.74825 5.35871 3.70256C5.41398 3.69674 5.46998 3.69529 5.52598 3.69092L5.52525 3.69165ZM27.9987 1.45456C28.4062 1.45463 28.8088 1.5431 29.1788 1.71389C29.5487 1.88467 29.8773 2.13369 30.1416 2.44377C30.406 2.75384 30.6 3.11759 30.7101 3.5099C30.8203 3.90222 30.844 4.31376 30.7796 4.71613C30.7153 5.1185 30.5644 5.50212 30.3374 5.84051C30.1104 6.1789 29.8126 6.46401 29.4647 6.67616C29.1168 6.88831 28.727 7.02244 28.3222 7.06932C27.9175 7.11619 27.5073 7.07468 27.1202 6.94765V6.95129L27.0765 6.93601L23.2533 10.5651L23.1238 10.3927C22.9202 10.1237 22.6933 9.85456 22.4562 9.60729L22.4125 9.55274L22.2947 9.4342L22.0794 9.21892L22.0038 9.1542L21.9289 9.0902L21.8322 9.00365L21.7565 8.93892L21.6591 8.85311C20.0336 7.48385 17.9903 6.70896 15.8656 6.65601C14.0882 6.61238 12.3543 7.05456 10.8474 7.95929L9.61907 6.67711C11.4916 5.4733 13.6833 4.86151 15.9085 4.92147C18.4208 4.98048 20.8375 5.8963 22.758 7.51711H22.7798L25.3107 5.11347C25.1785 4.69156 25.1475 4.24445 25.2202 3.80832C25.2928 3.3722 25.4672 2.95931 25.729 2.60305C25.9909 2.2468 26.3329 1.9572 26.7275 1.75767C27.122 1.55815 27.558 1.45431 28.0002 1.45456H27.9987Z" fill="#2E3234"/>
<path d="M15.7215 7.74255C16.04 7.74401 16.3578 7.76874 16.6735 7.8051C21.2182 8.37601 24.4378 12.5222 23.8778 17.0669C23.3069 21.6124 19.1607 24.832 14.616 24.272C10.0713 23.7011 6.85091 19.5542 7.41091 15.0102C7.95345 10.7942 11.4953 7.7571 15.7215 7.74255ZM15.5971 11.3018C13.7571 11.4495 12.4262 12.8407 12.3789 14.6902C12.408 15.9746 12.9622 16.8815 14.0124 17.5913L14.2655 17.7287L13.6255 20.7389H17.9171L17.2778 17.728C18.456 17.1215 19.1302 16.008 19.1636 14.6902C19.1389 12.7818 17.6625 11.3447 15.7716 11.2975L15.5971 11.3018Z" fill="#047AED"/>
</svg>
