<svg width="32" height="32" viewBox="0 0 32 32" fill="none" xmlns="http://www.w3.org/2000/svg">
<path fill-rule="evenodd" clip-rule="evenodd" d="M29.979 11.2622C29.7969 10.8809 29.5722 10.516 29.3053 10.1675C29.0028 10.094 28.7783 10.2063 28.6316 10.5043C29.5042 12.0458 30.2902 13.6458 30.9895 15.3043C30.6838 16.1401 30.2909 16.9261 29.8105 17.6622C29.6982 17.6622 29.586 17.6622 29.4737 17.6622C29.1005 17.6242 28.8197 17.7646 28.6316 18.0833C28.1294 18.1671 27.6241 18.1952 27.1158 18.1675C27.1158 17.999 27.1158 17.8306 27.1158 17.6622C26.9474 17.6622 26.779 17.6622 26.6105 17.6622C26.6793 16.8978 26.8477 16.168 27.1158 15.4727C27.2504 14.9793 27.3065 14.474 27.2842 13.9569C25.6543 13.8538 24.0261 13.7135 22.4 13.5359C21.4053 12.3387 21.1808 11.0193 21.7263 9.578C21.8387 9.578 21.9508 9.578 22.0632 9.578C22.2944 9.60439 22.5191 9.57631 22.7369 9.49379C23.7752 8.75002 24.898 8.18862 26.1053 7.80957C27.0868 7.66209 28.0411 7.7463 28.9684 8.06221C28.8253 8.90071 29.134 9.23755 29.8948 9.07273C30.1193 9.18502 30.2877 9.35344 30.4 9.578C30.7589 10.5064 30.9273 11.4608 30.9053 12.4412C30.5848 12.1142 30.4445 11.7213 30.4842 11.2622C30.3158 11.2622 30.1474 11.2622 29.979 11.2622Z" fill="#82CFA1"/>
<path fill-rule="evenodd" clip-rule="evenodd" d="M29.979 11.2622C30.1474 11.2622 30.3158 11.2622 30.4842 11.2622C30.4445 11.7213 30.5848 12.1143 30.9053 12.4412C30.9273 11.4608 30.7589 10.5064 30.4 9.57801C30.2877 9.35345 30.1193 9.18503 29.8947 9.07274C29.134 9.23756 28.8253 8.90072 28.9684 8.06222C28.0411 7.74631 27.0868 7.6621 26.1053 7.80959C24.898 8.18863 23.7752 8.75003 22.7369 9.4938C22.5191 9.57632 22.2944 9.6044 22.0632 9.57801C22.1395 9.41659 22.2516 9.27625 22.4 9.15695C23.595 8.50324 24.8302 7.94184 26.1053 7.47274C28.7134 6.8212 30.3695 7.80365 31.0737 10.4201C31.4801 11.5775 31.5643 12.7564 31.3263 13.957C30.7168 13.1393 30.2678 12.241 29.979 11.2622Z" fill="#8DCCA9"/>
<path fill-rule="evenodd" clip-rule="evenodd" d="M6.9053 7.89378C7.95346 8.36231 8.96399 8.92371 9.93688 9.57799C9.99796 10.1656 10.0541 10.7551 10.1053 11.3464C10.049 13.1597 9.12266 13.8615 7.32635 13.4517C6.6462 13.4434 5.97251 13.3873 5.3053 13.2833C4.32234 13.3891 3.84515 13.9505 3.87372 14.9675C4.09827 14.9675 4.32285 14.9675 4.5474 14.9675C4.88985 15.4766 5.22669 15.9818 5.55793 16.4833C5.55793 17.1008 5.55793 17.7183 5.55793 18.3359C4.88313 18.4207 4.20945 18.4488 3.53687 18.4201C3.04052 18.4013 2.81597 18.1486 2.86319 17.6622C2.69477 17.6622 2.52635 17.6622 2.35793 17.6622C2.40827 17.3078 2.35213 16.971 2.18951 16.6517C1.52269 16.2727 1.27006 15.7113 1.43161 14.9675C1.78737 14.4351 2.09613 13.8737 2.35793 13.2833C2.59321 13.9273 2.53706 14.5449 2.18951 15.1359C2.32765 15.4072 2.55222 15.5195 2.86319 15.4727C2.64793 14.0869 3.15319 13.0483 4.37898 12.3569C4.04674 12.2735 3.70989 12.2454 3.36845 12.2727C3.37335 11.7412 3.65405 11.4606 4.21056 11.4306C4.35485 11.6387 4.46713 11.8633 4.5474 12.1043C4.68635 12.2535 4.85477 12.3096 5.05266 12.2727C5.05266 11.3745 5.05266 10.4762 5.05266 9.57799C5.25056 9.61488 5.41898 9.55874 5.55793 9.40957C4.46787 9.17446 3.40121 9.23059 2.35793 9.57799C2.06422 10.5039 1.67124 11.4021 1.17898 12.2727C1.12284 12.1324 1.0667 11.992 1.01056 11.8517C1.14662 11.0957 1.2589 10.3378 1.3474 9.57799C1.55155 8.50182 2.16909 7.74393 3.20003 7.30431C4.49644 7.1286 5.73154 7.32509 6.9053 7.89378Z" fill="#81CFA1"/>
<path fill-rule="evenodd" clip-rule="evenodd" d="M2.35791 17.6622C1.63919 16.8984 1.19007 16.0002 1.01055 14.9675C1.91077 13.4482 2.66867 11.8762 3.28423 10.2517C2.9579 10.0226 2.67719 10.0787 2.44213 10.4201C1.84246 11.5355 1.30913 12.6864 0.842125 13.8727C0.785517 14.0462 0.673236 14.1304 0.505283 14.1254C0.503299 13.0524 0.58751 11.9857 0.757915 10.9254C0.823166 10.4033 1.01966 9.95423 1.34739 9.57798C1.25888 10.3378 1.14661 11.0957 1.01055 11.8517C1.06669 11.992 1.12283 12.1324 1.17897 12.2727C1.67123 11.4021 2.06421 10.5039 2.35791 9.57798C3.4012 9.23058 4.46786 9.17445 5.55792 9.40956C5.41897 9.55873 5.25055 9.61487 5.05265 9.57798C5.05265 10.4762 5.05265 11.3745 5.05265 12.2727C4.85476 12.3096 4.68634 12.2535 4.54739 12.1043C4.46712 11.8633 4.35483 11.6387 4.21055 11.4306C3.65403 11.4605 3.37334 11.7412 3.36844 12.2727C3.70988 12.2454 4.04672 12.2735 4.37897 12.3569C3.15318 13.0483 2.64792 14.0869 2.86318 15.4727C2.55221 15.5195 2.32763 15.4072 2.18949 15.1359C2.53705 14.5449 2.5932 13.9273 2.35791 13.2832C2.09612 13.8737 1.78736 14.4351 1.4316 14.9675C1.27005 15.7113 1.52268 16.2727 2.18949 16.6517C2.35212 16.971 2.40826 17.3078 2.35791 17.6622Z" fill="#89CCA4"/>
<path fill-rule="evenodd" clip-rule="evenodd" d="M1.01054 14.9675C0.885746 14.6552 0.717325 14.3745 0.50528 14.1254C0.673232 14.1304 0.785514 14.0462 0.842122 13.8727C1.30913 12.6864 1.84246 11.5355 2.44212 10.4201C2.67719 10.0787 2.95789 10.0226 3.28423 10.2517C2.66866 11.8762 1.91077 13.4482 1.01054 14.9675Z" fill="#ECFCEF"/>
<path fill-rule="evenodd" clip-rule="evenodd" d="M9.93686 9.578C10.4001 9.9231 10.6247 10.4003 10.6105 11.0096C10.5528 11.9666 10.216 12.8087 9.60002 13.5359C7.91521 13.6814 6.231 13.8218 4.54739 13.957C4.54739 14.2938 4.54739 14.6306 4.54739 14.9675C4.32284 14.9675 4.09826 14.9675 3.87371 14.9675C3.84514 13.9505 4.32233 13.3891 5.30529 13.2833C5.9725 13.3873 6.64619 13.4435 7.32634 13.4517C9.12265 13.8615 10.049 13.1597 10.1053 11.3464C10.0541 10.7551 9.99795 10.1656 9.93686 9.578Z" fill="#8EC9A7"/>
<path fill-rule="evenodd" clip-rule="evenodd" d="M6.90529 7.8938C8.26054 7.97191 9.46756 8.42104 10.5263 9.24117C10.5751 9.65412 10.6874 10.0471 10.8632 10.4201C11.145 10.0131 11.4538 10.0131 11.7895 10.4201C11.396 10.685 11.396 10.9096 11.7895 11.0938C12.3578 10.7264 12.9753 10.4738 13.6421 10.3359C15.4796 10.3058 17.3041 10.2216 19.1158 10.0833C19.292 10.3511 19.4885 10.6038 19.7053 10.8412C20.427 10.8608 20.7638 11.2257 20.7158 11.9359C20.1516 11.5871 19.5903 11.2222 19.0316 10.8412C16.8326 10.6859 14.6431 10.742 12.4632 11.0096C11.93 11.3464 11.4809 11.7675 11.1158 12.2727C10.758 12.7086 10.5334 13.2138 10.4421 13.7885C12.0186 13.8091 13.5344 14.1179 14.9895 14.7149C15.607 14.8271 16.2246 14.8271 16.8421 14.7149C18.4287 14.3423 20.0005 13.9213 21.5579 13.4517C21.3555 13.0676 21.1871 12.6746 21.0527 12.2727C21.2002 12.2948 21.3125 12.2386 21.3895 12.1043C21.2042 11.4403 21.1761 10.7666 21.3053 10.0833C21.345 9.81055 21.4853 9.64213 21.7263 9.57801C21.1808 11.0194 21.4053 12.3387 22.4 13.5359C24.0261 13.7135 25.6543 13.8538 27.2842 13.957C27.3065 14.474 27.2504 14.9793 27.1158 15.4727C26.3756 16.2011 26.0948 17.0993 26.2737 18.1675C26.976 18.4587 27.7058 18.543 28.4632 18.4201C28.9228 18.3248 29.2596 18.0721 29.4737 17.6622C29.586 17.6622 29.6982 17.6622 29.8106 17.6622C29.5059 18.3027 29.0006 18.6957 28.2948 18.8412C27.3267 18.9515 26.3722 18.8392 25.4316 18.5043C25.7336 17.5592 25.7897 16.6049 25.6 15.6412C24.9747 14.8317 24.1326 14.4387 23.0737 14.4622C21.4687 14.1954 19.8968 14.3919 18.3579 15.0517C17.8461 15.8881 17.7338 16.7583 18.0211 17.6622C18.2454 19.262 19.1436 20.2444 20.7158 20.6096C21.5611 20.6935 22.4032 20.6654 23.2421 20.5254C23.3125 20.6469 23.4247 20.7311 23.579 20.778C23.3434 20.8782 23.1188 20.8501 22.9053 20.6938C22.4561 20.8622 22.4561 21.0306 22.9053 21.1991C22.799 21.5322 22.799 21.8971 22.9053 22.2938C22.5157 22.4053 22.1228 22.4895 21.7263 22.5464C21.8761 22.1698 22.1006 21.833 22.4 21.5359C21.7319 21.3722 21.0582 21.2319 20.379 21.1149C19.7738 20.8149 19.1562 20.5623 18.5263 20.357C18.2767 19.7458 17.9399 19.1844 17.5158 18.6727C17.3316 18.1368 17.1069 17.6316 16.8421 17.157C16.8421 17.1008 16.8421 17.0447 16.8421 16.9885C16.6449 16.3012 16.1958 15.9925 15.4948 16.0622C15.14 17.0602 14.7471 18.0426 14.3158 19.0096C13.8685 19.363 13.4756 19.7841 13.1369 20.2727C12.7165 20.4547 12.3235 20.6793 11.9579 20.9464C11.1422 21.0759 10.3562 21.2724 9.60003 21.5359C9.94121 22.0442 10.2781 22.5494 10.6106 23.0517C10.3337 23.0877 10.0811 23.0315 9.85266 22.8833C9.48476 22.3746 9.23213 21.8132 9.09476 21.1991C9.41958 21.2444 9.70029 21.1602 9.93687 20.9464C9.78263 20.8995 9.67034 20.8153 9.60003 20.6938C12.9247 20.6253 14.3843 18.9411 13.979 15.6412C13.1981 14.7247 12.1875 14.3317 10.9474 14.4622C9.87324 14.4276 8.80658 14.4838 7.74739 14.6306C6.37933 15.0062 5.87406 15.9045 6.2316 17.3254C6.11949 16.8997 6.0072 16.4505 5.89476 15.978C5.65586 16.063 5.54357 16.2314 5.55792 16.4833C5.22669 15.9819 4.88984 15.4766 4.54739 14.9675C4.54739 14.6306 4.54739 14.2938 4.54739 13.957C6.231 13.8218 7.91521 13.6814 9.60003 13.5359C10.216 12.8087 10.5528 11.9666 10.6106 11.0096C10.6247 10.4003 10.4001 9.9231 9.93687 9.57801C8.96398 8.92373 7.95346 8.36233 6.90529 7.8938Z" fill="#EEF8F2"/>
<path fill-rule="evenodd" clip-rule="evenodd" d="M20.8842 12.2727C20.9403 12.2727 20.9966 12.2727 21.0527 12.2727C21.1871 12.6746 21.3555 13.0676 21.5579 13.4517C20.0005 13.9213 18.4287 14.3423 16.8421 14.7148C16.2246 14.8271 15.6071 14.8271 14.9895 14.7148C13.5344 14.1179 12.0186 13.8091 10.4421 13.7885C10.5334 13.2138 10.758 12.7086 11.1158 12.2727C11.8354 12.0797 12.453 11.7148 12.9685 11.178C14.9895 11.0657 17.0106 11.0657 19.0316 11.178C19.5146 11.763 20.1322 12.1279 20.8842 12.2727Z" fill="#83CEA2"/>
<path fill-rule="evenodd" clip-rule="evenodd" d="M20.7158 11.9359C20.7719 12.0482 20.8282 12.1605 20.8842 12.2727C20.1322 12.1279 19.5146 11.763 19.0316 11.178C17.0106 11.0657 14.9895 11.0657 12.9684 11.178C12.4529 11.7148 11.8354 12.0798 11.1158 12.2727C11.4809 11.7675 11.93 11.3464 12.4632 11.0096C14.6431 10.742 16.8326 10.6859 19.0316 10.8412C19.5903 11.2222 20.1516 11.5871 20.7158 11.9359Z" fill="#91C8A8"/>
<path fill-rule="evenodd" clip-rule="evenodd" d="M25.6 14.6306C25.993 14.6306 26.3861 14.6306 26.779 14.6306C26.8076 14.8533 26.7515 15.0498 26.6106 15.2201C26.2783 15.3035 25.9414 15.3316 25.6 15.3043C25.6 15.0797 25.6 14.8552 25.6 14.6306Z" fill="#161717"/>
<path fill-rule="evenodd" clip-rule="evenodd" d="M5.05266 14.6306C5.4496 14.6031 5.84259 14.6312 6.23161 14.7148C6.45617 14.8833 6.45617 15.0517 6.23161 15.2201C5.89477 15.3324 5.55793 15.3324 5.22108 15.2201C5.08018 15.0498 5.02403 14.8533 5.05266 14.6306Z" fill="#1B1818"/>
<path fill-rule="evenodd" clip-rule="evenodd" d="M23.0737 14.4622C24.1326 14.4387 24.9747 14.8317 25.6 15.6412C25.4712 15.8366 25.3028 16.005 25.0948 16.1464C24.89 16.0619 24.6934 16.0058 24.5053 15.978C23.1338 16.1952 21.7583 16.4198 20.379 16.6517C20.1922 16.5186 19.9677 16.4344 19.7053 16.3991C20.012 15.9854 20.1243 15.5082 20.0421 14.9675C20.5779 15.0514 21.0269 14.9111 21.3895 14.5464C21.9482 14.4625 22.5095 14.4344 23.0737 14.4622Z" fill="#3A3938"/>
<path fill-rule="evenodd" clip-rule="evenodd" d="M7.7474 14.6306C7.71956 15.2507 7.74763 15.8682 7.83161 16.4832C7.99913 16.5786 8.13948 16.6908 8.25266 16.8201C7.55233 17.0174 6.93478 17.3543 6.40003 17.8306C6.24777 17.7112 6.19164 17.5428 6.23161 17.3254C5.87406 15.9045 6.37933 15.0062 7.7474 14.6306Z" fill="#606060"/>
<path fill-rule="evenodd" clip-rule="evenodd" d="M10.9474 14.4622C11.0498 14.6811 11.162 14.9057 11.2842 15.1359C11.1214 15.5168 11.0091 15.9098 10.9474 16.3148C10.0489 16.4833 9.15066 16.6518 8.25266 16.8201C8.13948 16.6908 7.99913 16.5786 7.83161 16.4832C7.74763 15.8682 7.71956 15.2507 7.7474 14.6306C8.80658 14.4837 9.87324 14.4276 10.9474 14.4622Z" fill="#454544"/>
<path fill-rule="evenodd" clip-rule="evenodd" d="M23.0737 14.4622C22.5095 14.4344 21.9482 14.4625 21.3895 14.5464C21.0269 14.9111 20.5779 15.0514 20.0421 14.9675C20.1243 15.5082 20.012 15.9854 19.7053 16.399C19.9677 16.4344 20.1922 16.5186 20.379 16.6517C19.5219 16.7989 18.7359 17.1358 18.0211 17.6622C17.7338 16.7582 17.8461 15.8881 18.3579 15.0517C19.8968 14.3919 21.4687 14.1954 23.0737 14.4622Z" fill="#5C5B5C"/>
<path fill-rule="evenodd" clip-rule="evenodd" d="M10.9474 14.4622C12.1875 14.3317 13.1981 14.7247 13.979 15.6411C13.6071 16.0645 13.158 16.1768 12.6316 15.978C12.1204 16.2813 11.559 16.3936 10.9474 16.3148C11.0091 15.9098 11.1214 15.5168 11.2842 15.1359C11.162 14.9057 11.0498 14.6811 10.9474 14.4622Z" fill="#323130"/>
<path fill-rule="evenodd" clip-rule="evenodd" d="M13.979 15.6411C14.3843 18.9411 12.9247 20.6253 9.60002 20.6938C7.7365 20.6266 6.66983 19.6722 6.40002 17.8306C6.93478 17.3543 7.55233 17.0174 8.25266 16.8201C9.15066 16.6518 10.0489 16.4833 10.9474 16.3148C11.559 16.3936 12.1204 16.2813 12.6316 15.978C13.158 16.1768 13.6071 16.0645 13.979 15.6411Z" fill="#1D1D1B"/>
<path fill-rule="evenodd" clip-rule="evenodd" d="M25.6 15.6411C25.7897 16.6048 25.7336 17.5592 25.4316 18.5043C25.0232 19.5304 24.2933 20.2041 23.2421 20.5254C22.4032 20.6654 21.5611 20.6935 20.7158 20.6096C19.1436 20.2444 18.2454 19.2619 18.0211 17.6622C18.7359 17.1358 19.5219 16.7989 20.379 16.6517C21.7584 16.4198 23.1338 16.1952 24.5053 15.978C24.6934 16.0058 24.89 16.0619 25.0948 16.1464C25.3028 16.005 25.4712 15.8365 25.6 15.6411Z" fill="#1D1C1B"/>
<path fill-rule="evenodd" clip-rule="evenodd" d="M16.8421 16.9885C16.8421 17.0446 16.8421 17.1008 16.8421 17.1569C16.8421 17.3253 16.8421 17.4938 16.8421 17.6622C16.3369 17.6622 15.8316 17.6622 15.3263 17.6622C15.4074 16.3948 15.9126 16.1702 16.8421 16.9885Z" fill="#7FCFA1"/>
<path fill-rule="evenodd" clip-rule="evenodd" d="M27.1158 15.4727C26.8477 16.168 26.6793 16.8978 26.6105 17.6622C26.779 17.6622 26.9474 17.6622 27.1158 17.6622C27.1158 17.8306 27.1158 17.999 27.1158 18.1675C27.6241 18.1952 28.1294 18.1671 28.6316 18.0832C28.8197 17.7646 29.1005 17.6242 29.4737 17.6622C29.2596 18.0721 28.9228 18.3247 28.4632 18.4201C27.7058 18.5429 26.976 18.4587 26.2737 18.1675C26.0948 17.0993 26.3756 16.2011 27.1158 15.4727Z" fill="#94C7A8"/>
<path fill-rule="evenodd" clip-rule="evenodd" d="M16.8421 16.9885C15.9126 16.1702 15.4073 16.3948 15.3263 17.6622C15.8316 17.6622 16.3368 17.6622 16.8421 17.6622C16.8421 17.4938 16.8421 17.3253 16.8421 17.1569C17.1069 17.6315 17.3315 18.1368 17.5158 18.6727C17.3763 19.7653 17.2921 20.8881 17.2632 22.0411C17.1069 22.4681 16.7981 22.6365 16.3368 22.5464C16.717 22.3946 16.9696 22.1139 17.0947 21.7043C17.229 20.5168 17.2008 19.3379 17.0105 18.1675C16.3621 17.7502 15.6884 17.7221 14.9895 18.0832C14.8267 18.8245 14.7705 19.5824 14.8211 20.3569C14.7259 19.8845 14.5574 19.4354 14.3158 19.0096C14.747 18.0426 15.14 17.0602 15.4947 16.0622C16.1958 15.9924 16.6449 16.3012 16.8421 16.9885Z" fill="#9FCAB2"/>
<path fill-rule="evenodd" clip-rule="evenodd" d="M16.3369 22.5464C15.8346 22.613 15.3855 22.5007 14.9895 22.2096C14.8336 21.6043 14.7774 20.9868 14.8211 20.3569C14.7706 19.5824 14.8267 18.8245 14.9895 18.0832C15.6885 17.7221 16.3621 17.7502 17.0106 18.1675C17.2009 19.3379 17.229 20.5168 17.0948 21.7043C16.9697 22.1139 16.717 22.3946 16.3369 22.5464Z" fill="#F4FDF8"/>
<path fill-rule="evenodd" clip-rule="evenodd" d="M17.5158 18.6727C17.9399 19.1844 18.2768 19.7458 18.5264 20.3569C19.1562 20.5623 19.7738 20.8149 20.379 21.1148C21.0582 21.2319 21.7319 21.3722 22.4 21.5359C22.1006 21.833 21.8761 22.1698 21.7264 22.5464C20.8573 23.628 19.7344 24.3297 18.3579 24.6517C16.6176 24.764 14.8772 24.764 13.1369 24.6517C12.0849 24.4071 11.2428 23.8739 10.6106 23.0517C10.2781 22.5494 9.94122 22.0441 9.60004 21.5359C10.3562 21.2724 11.1422 21.0759 11.9579 20.9464C12.3235 20.6793 12.7165 20.4547 13.1369 20.2727C13.4756 19.784 13.8686 19.363 14.3158 19.0096C14.5575 19.4354 14.7259 19.8845 14.8211 20.3569C14.7774 20.9868 14.8336 21.6043 14.9895 22.2096C15.3855 22.5008 15.8346 22.613 16.3369 22.5464C16.7981 22.6366 17.1069 22.4681 17.2632 22.0412C17.2922 20.8881 17.3764 19.7653 17.5158 18.6727Z" fill="#84CEA3"/>
</svg>
