<svg width="32" height="32" viewBox="0 0 32 32" fill="none" xmlns="http://www.w3.org/2000/svg">
<rect width="32" height="32" fill="#383433"/>
<path opacity="0.998" fill-rule="evenodd" clip-rule="evenodd" d="M15.9996 1.71865C23.6674 1.47842 28.752 4.96288 31.2529 12.172C32.7394 19.7584 30.0727 25.3406 23.2529 28.9187C22.3413 29.2461 21.4169 29.5307 20.4796 29.772C13.7313 30.1178 6.97575 30.1891 0.212891 29.9853C1.244 28.9543 2.27512 27.923 3.30622 26.892C3.37733 22.5543 3.44845 18.2164 3.51956 13.8787C4.91868 6.96817 9.07868 2.91483 15.9996 1.71865ZM17.0662 5.77198C23.4359 6.2042 26.9916 9.58197 27.7329 15.9053C27.1215 21.8501 23.8504 25.1924 17.9196 25.932C14.5062 26.0743 11.0929 26.0743 7.67956 25.932C7.43247 22.2144 7.39691 18.4811 7.57289 14.732C8.64749 9.49657 11.812 6.50991 17.0662 5.77198Z" fill="#448FC0"/>
</svg>
