<svg width="32" height="32" viewBox="0 0 32 32" fill="none" xmlns="http://www.w3.org/2000/svg">
<g clip-path="url(#clip0_65_298)">
<ellipse cx="16" cy="16" rx="15" ry="14" fill="white"/>
<path fill-rule="evenodd" clip-rule="evenodd" d="M14.4356 1.20888C21.7098 1.03913 26.8062 4.26284 29.7245 10.88C31.1593 15.1269 30.7802 19.204 28.5867 23.1111C28.4378 22.75 28.3667 22.3708 28.3733 21.9733C28.486 20.8175 28.6993 19.6797 29.0133 18.56C29.5847 16.2386 28.684 15.0535 26.3111 15.0044C24.6867 15.1588 23.3593 15.8699 22.3289 17.1378C21.2538 18.4822 20.519 19.9993 20.1245 21.6889C18.981 22.6871 17.6536 23.3034 16.1422 23.5378C15.4596 23.4573 14.9382 23.1255 14.5778 22.5422C15.9899 22.0379 17.1988 21.2319 18.2045 20.1244C19.0656 18.9258 19.2078 17.6458 18.6311 16.2844C17.6698 15.1723 16.461 14.7693 15.0045 15.0756C13.1841 16.0922 12.0701 17.6328 11.6622 19.6978C11.6148 20.3615 11.5674 21.0251 11.52 21.6889C10.6907 22.4712 9.71888 22.9217 8.60446 23.04C8.40631 22.8735 8.2878 22.6601 8.2489 22.4C8.03191 21.0115 8.31636 19.7315 9.10224 18.56C10.7433 15.8942 12.1181 13.0972 13.2267 10.1689C13.742 8.64179 13.9317 7.07734 13.7956 5.47555C13.1117 4.03042 12.0924 3.72228 10.7378 4.55111C8.82058 6.41619 7.42207 8.62064 6.54224 11.1644C5.37405 14.3337 4.89998 17.6048 5.12001 20.9778C5.29492 22.5331 5.81641 23.9553 6.68446 25.2444C7.32688 25.7766 8.0617 25.9426 8.8889 25.7422C10.1205 25.3871 11.2583 24.842 12.3022 24.1067C13.3676 25.5603 14.7898 26.1056 16.5689 25.7422C17.9261 25.4953 19.1824 24.9975 20.3378 24.2489C21.3723 25.8459 22.7708 26.2488 24.5333 25.4578C25.2521 25.118 25.8921 24.6677 26.4533 24.1067C26.7027 24.4629 26.916 24.8421 27.0933 25.2444C24.6995 28.1493 21.6181 29.8796 17.8489 30.4356C10.7382 30.9515 5.59451 28.036 2.41779 21.6889C0.0850917 15.4025 1.24657 9.87955 5.90224 5.11999C8.35611 2.9515 11.2006 1.6478 14.4356 1.20888Z" fill="#2FA2C5"/>
<path fill-rule="evenodd" clip-rule="evenodd" d="M11.0222 7.04004C11.1644 7.04004 11.3066 7.04004 11.4489 7.04004C11.4532 8.51161 11.1925 9.93383 10.6666 11.3067C9.9272 13.1174 9.07387 14.8715 8.10664 16.5689C7.99449 13.5938 8.65819 10.7967 10.0978 8.17782C10.3823 7.77523 10.6904 7.39596 11.0222 7.04004Z" fill="#33A3C6"/>
<path fill-rule="evenodd" clip-rule="evenodd" d="M15.8578 17.1378C16.8973 17.1614 17.2528 17.683 16.9244 18.7023C16.3787 19.7927 15.5017 20.4089 14.2933 20.5512C14.056 19.0362 14.5775 17.8984 15.8578 17.1378Z" fill="#33A3C6"/>
<path fill-rule="evenodd" clip-rule="evenodd" d="M25.9555 17.1378C26.1657 17.1005 26.3553 17.1479 26.5244 17.28C26.195 19.0033 25.792 20.71 25.3155 22.4C25.0176 23.271 24.4249 23.6739 23.5378 23.6089C23.1818 23.2054 22.9922 22.7314 22.9689 22.1867C23.0643 19.9418 24.0599 18.2589 25.9555 17.1378Z" fill="#32A3C5"/>
</g>
<defs>
<clipPath id="clip0_65_298">
<rect width="32" height="32" fill="white"/>
</clipPath>
</defs>
</svg>
