<svg width="32" height="32" viewBox="0 0 32 32" fill="none" xmlns="http://www.w3.org/2000/svg">
    <path
        d="M7.1026 6.49212L7.92856 9.96238C9.14876 8.33373 10.8508 7.0893 12.822 6.43439L15.4394 3.1897L12.1677 0.465332C8.08878 1.46929 4.62702 4.03537 2.45123 7.49378L7.1026 6.49212Z"
        fill="#0952C2" />
    <path
        d="M17.8976 2.94305L15.5061 5.9316C15.6713 5.92357 15.8365 5.91898 16.0036 5.91898C18.0754 5.91898 20.0011 6.54445 21.6022 7.61646L25.7075 7.57975L25.7369 3.30242C23.0392 1.23258 19.6665 0 16.0036 0C15.4844 0 14.972 0.0263801 14.4649 0.074934L17.8976 2.94305Z"
        fill="#59B5FF" />
    <path
        d="M32 15.727C31.9293 11.5097 30.2277 7.6904 27.497 4.87122L27.4588 9.32211L23.5967 9.37182C24.9641 10.9359 25.8551 12.9247 26.0455 15.115L28.7214 18.3516L32 15.727Z"
        fill="#4FA2EF" />
    <path
        d="M8.7292 26.9641L12.2105 25.3408C10.1586 24.5066 8.44432 23.0186 7.32621 21.133L3.6897 19.4493L1.79956 23.3684C3.63541 26.8983 6.74575 29.6605 10.5241 31.0373L8.7292 26.9641Z"
        fill="#2E6AC0" />
    <path
        d="M28.4719 20.8091L25.9301 17.759C25.5604 19.8591 24.5428 21.7343 23.0886 23.1711L22.1223 27.3008L26.2081 28.3243C29.2408 25.8121 31.3264 22.2015 31.8644 18.1031L28.4719 20.8091Z"
        fill="#458FDF" />
    <path
        d="M2.85376 17.1252L6.28875 18.6988C6.05052 17.8394 5.92089 16.9352 5.92089 16.0001C5.92089 14.675 6.179 13.4107 6.64399 12.2519L5.78553 8.58167L1.3613 9.54356C0.488309 11.5186 0 13.7016 0 16.0001C0 17.8253 0.310499 19.5778 0.873373 21.2118L2.85376 17.1252Z"
        fill="#2058B0" />
    <path
        d="M20.0145 28.5905L20.8798 24.8232C19.4348 25.6238 17.7729 26.081 16.0036 26.081C15.6495 26.081 15.2996 26.0623 14.9555 26.0267L11.0414 27.8332L12.7392 31.6662C13.793 31.8842 14.8851 32 16.0036 32C19.0478 32 21.8928 31.1501 24.3144 29.6755L20.0145 28.5905Z"
        fill="#3A7CCF" />
</svg>