<svg width="32" height="33" viewBox="0 0 32 33" fill="none" xmlns="http://www.w3.org/2000/svg">
<g clip-path="url(#clip0_65_494)">
<ellipse cx="16" cy="16" rx="15" ry="13" fill="white"/>
<path d="M13.6688 0.584901C10.5826 1.06704 7.48036 2.56168 5.05322 4.73131C2.86718 6.70809 1.03477 9.90629 0.311447 13.0402C-0.154693 15.0331 -0.0903977 18.4884 0.456111 20.5295C1.17943 23.2777 2.6743 25.8812 4.69959 27.8741C6.80526 29.9634 9.61818 31.5062 12.5758 32.1812C14.2957 32.583 17.7033 32.583 19.4232 32.1812C25.3544 30.8151 29.9998 26.3312 31.5428 20.5295C32.1215 18.3759 32.1536 14.8723 31.6232 12.7349C30.932 9.95451 29.3247 7.12595 27.3476 5.16524C25.2741 3.1081 22.7022 1.64561 19.8411 0.9224C18.282 0.520616 15.1797 0.359902 13.6688 0.584901ZM14.7136 14.5027V22.1205H18.3302H21.9468L21.9789 23.0366C21.995 24.0491 21.995 24.5473 21.9629 24.7402C21.9629 24.8044 19.6643 24.8527 16.8835 24.8527L11.8203 24.8366V15.8527V6.8688L12.2704 6.82059C12.5115 6.78845 13.1544 6.80452 13.717 6.82059L14.7136 6.88488V14.5027Z" fill="#500A7E"/>
</g>
<defs>
<clipPath id="clip0_65_494">
<rect width="32" height="33" fill="white"/>
</clipPath>
</defs>
</svg>
