<?xml version="1.0" encoding="UTF-8"?>
<svg xmlns="http://www.w3.org/2000/svg" xmlns:xlink="http://www.w3.org/1999/xlink" width="32px" height="32px" viewBox="0 0 32 32" version="1.1">
<g id="surface1">
<path style=" stroke:none;fill-rule:nonzero;fill:rgb(9.411765%,5.098039%,21.960784%);fill-opacity:1;" d="M 8.035156 29.875 C 10.675781 28.617188 12.765625 26.386719 13.835938 23.644531 C 10.503906 22.703125 8.054688 19.632812 8.054688 16 C 8.054688 11.617188 11.617188 8.054688 16 8.054688 C 16.410156 8.054688 16.8125 8.082031 17.203125 8.144531 C 17.730469 6.8125 18.464844 5.585938 19.371094 4.503906 C 18.621094 3.707031 18.15625 2.636719 18.15625 1.457031 C 18.15625 1.011719 18.222656 0.578125 18.347656 0.171875 C 17.582031 0.0585938 16.796875 0 16 0 C 7.164062 0 0 7.164062 0 16 C 0 21.9375 3.234375 27.113281 8.035156 29.875 Z M 8.035156 29.875 "/>
<path style=" stroke:none;fill-rule:nonzero;fill:rgb(93.72549%,22.352941%,22.352941%);fill-opacity:1;" d="M 22.601562 4.140625 C 23.617188 4.140625 24.5 3.574219 24.957031 2.742188 C 23.488281 1.746094 21.847656 0.992188 20.089844 0.53125 C 19.980469 0.820312 19.917969 1.128906 19.917969 1.457031 C 19.917969 2.9375 21.121094 4.140625 22.601562 4.140625 Z M 22.601562 4.140625 "/>
<path style=" stroke:none;fill-rule:nonzero;fill:rgb(9.411765%,5.098039%,21.960784%);fill-opacity:1;" d="M 26.363281 3.816406 C 25.574219 5.066406 24.1875 5.902344 22.601562 5.902344 C 22.253906 5.902344 21.917969 5.859375 21.589844 5.78125 C 21.324219 5.71875 21.0625 5.632812 20.816406 5.527344 C 20.03125 6.441406 19.382812 7.480469 18.914062 8.609375 C 21.859375 9.773438 23.945312 12.648438 23.945312 16 C 23.945312 20.382812 20.382812 23.945312 16 23.945312 C 15.871094 23.945312 15.742188 23.945312 15.613281 23.9375 C 14.578125 26.824219 12.566406 29.253906 9.984375 30.824219 C 11.839844 31.582031 13.871094 32 16 32 C 24.835938 32 32 24.835938 32 16 C 32 11.117188 29.8125 6.75 26.363281 3.816406 Z M 26.363281 3.816406 "/>
<path style=" stroke:none;fill-rule:nonzero;fill:rgb(93.72549%,22.352941%,22.352941%);fill-opacity:1;" d="M 22.183594 16 C 22.183594 19.414062 19.414062 22.183594 16 22.183594 C 12.585938 22.183594 9.816406 19.414062 9.816406 16 C 9.816406 12.585938 12.585938 9.816406 16 9.816406 C 19.414062 9.816406 22.183594 12.585938 22.183594 16 Z M 22.183594 16 "/>
<path style=" stroke:none;fill-rule:nonzero;fill:rgb(100%,100%,100%);fill-opacity:1;" d="M 21.589844 5.78125 C 21.917969 5.859375 22.253906 5.902344 22.601562 5.902344 C 24.1875 5.902344 25.578125 5.066406 26.363281 3.816406 C 25.914062 3.433594 25.445312 3.070312 24.957031 2.742188 C 24.5 3.574219 23.617188 4.140625 22.601562 4.140625 C 21.121094 4.140625 19.917969 2.9375 19.917969 1.457031 C 19.917969 1.128906 19.980469 0.820312 20.089844 0.53125 C 19.519531 0.378906 18.9375 0.261719 18.347656 0.171875 C 18.222656 0.578125 18.15625 1.011719 18.15625 1.457031 C 18.15625 2.636719 18.621094 3.707031 19.371094 4.503906 C 18.464844 5.585938 17.730469 6.8125 17.203125 8.144531 C 16.8125 8.082031 16.410156 8.054688 16 8.054688 C 11.617188 8.054688 8.054688 11.617188 8.054688 16 C 8.054688 19.632812 10.503906 22.703125 13.835938 23.644531 C 12.765625 26.386719 10.675781 28.617188 8.035156 29.875 C 8.660156 30.234375 9.308594 30.550781 9.984375 30.824219 C 12.566406 29.253906 14.578125 26.824219 15.613281 23.9375 C 15.742188 23.945312 15.871094 23.949219 16 23.949219 C 20.382812 23.949219 23.945312 20.382812 23.945312 16 C 23.945312 12.648438 21.859375 9.773438 18.914062 8.609375 C 19.382812 7.480469 20.03125 6.441406 20.816406 5.527344 C 21.0625 5.632812 21.324219 5.71875 21.589844 5.78125 Z M 22.183594 16 C 22.183594 19.410156 19.410156 22.183594 16 22.183594 C 12.589844 22.183594 9.816406 19.410156 9.816406 16 C 9.816406 12.589844 12.589844 9.816406 16 9.816406 C 19.410156 9.816406 22.183594 12.589844 22.183594 16 Z M 22.183594 16 "/>
</g>
</svg>
