<svg width="32" height="32" viewBox="0 0 32 32" fill="none" xmlns="http://www.w3.org/2000/svg">
<g clip-path="url(#clip0_66_730)">
<path fill-rule="evenodd" clip-rule="evenodd" d="M-0.071106 -0.071106C3.72149 -0.071106 7.51407 -0.071106 11.3067 -0.071106C11.3067 0.308154 11.3067 0.687412 11.3067 1.06667C10.9274 1.06667 10.5482 1.06667 10.1689 1.06667C10.1689 1.44594 10.1689 1.82519 10.1689 2.20445C9.78963 2.20445 9.41038 2.20445 9.03112 2.20445C9.03112 2.58371 9.03112 2.96296 9.03112 3.34223C8.65185 3.34223 8.2726 3.34223 7.89334 3.34223C7.89334 3.72149 7.89334 4.10074 7.89334 4.48001C8.42573 4.4742 8.44944 4.56902 7.96445 4.76445C7.86963 4.85927 7.86963 4.95407 7.96445 5.04889C8.14917 4.98259 8.3625 4.98259 8.60445 5.04889C8.60445 5.19112 8.60445 5.33334 8.60445 5.47556C8.21015 5.43574 7.8546 5.53054 7.53778 5.76001C6.92671 5.68794 6.28671 5.64054 5.61778 5.61778C5.61778 5.99705 5.61778 6.3763 5.61778 6.75556C5.23852 6.75556 4.85927 6.75556 4.48001 6.75556C4.48001 7.13482 4.48001 7.51407 4.48001 7.89334C4.10074 7.89334 3.72149 7.89334 3.34223 7.89334C3.34223 8.2726 3.34223 8.65185 3.34223 9.03112C2.96296 9.03112 2.58371 9.03112 2.20445 9.03112C2.20445 9.41038 2.20445 9.78963 2.20445 10.1689C1.82519 10.1689 1.44594 10.1689 1.06667 10.1689C1.06667 10.5482 1.06667 10.9274 1.06667 11.3067C0.687412 11.3067 0.308154 11.3067 -0.071106 11.3067C-0.071106 7.51407 -0.071106 3.72149 -0.071106 -0.071106Z" fill="#3360D0"/>
<path fill-rule="evenodd" clip-rule="evenodd" d="M16.9956 -0.071106C18.8918 -0.071106 20.7882 -0.071106 22.6844 -0.071106C22.6844 0.308154 22.6844 0.687412 22.6844 1.06667C22.3051 1.06667 21.926 1.06667 21.5467 1.06667C21.5467 1.44594 21.5467 1.82519 21.5467 2.20445C21.1674 2.20445 20.7882 2.20445 20.4089 2.20445C20.4089 2.58371 20.4089 2.96296 20.4089 3.34223C20.0296 3.34223 19.6504 3.34223 19.2711 3.34223C19.2711 3.72149 19.2711 4.10074 19.2711 4.48001C18.8918 4.48001 18.5126 4.48001 18.1333 4.48001C18.1333 4.85927 18.1333 5.23852 18.1333 5.61778C17.9437 5.61778 17.754 5.61778 17.5644 5.61778C17.5644 5.76001 17.5644 5.90223 17.5644 6.04445C17.3274 6.04445 17.0904 6.04445 16.8533 6.04445C16.0292 5.39695 15.318 5.49176 14.72 6.32889C14.4782 6.31096 14.2649 6.21615 14.08 6.04445C13.9181 6.11401 13.7521 6.16143 13.5822 6.18667C12.9132 5.66251 12.1547 5.37807 11.3067 5.33334C11.3067 5.28594 11.3067 5.23852 11.3067 5.19112C11.6889 5.21446 12.0681 5.19075 12.4444 5.12001C11.7019 4.94474 10.9434 4.84994 10.1689 4.83556C10.9585 4.66167 11.7407 4.63796 12.5156 4.76445C12.6528 4.5141 12.8188 4.46668 13.0133 4.62223C12.9386 4.7207 12.8438 4.79181 12.7289 4.83556C12.9341 4.98734 13.1238 5.15326 13.2978 5.33334C13.5419 4.69466 13.6368 4.03095 13.5822 3.34223C13.9615 3.34223 14.3407 3.34223 14.72 3.34223C14.72 2.96296 14.72 2.58371 14.72 2.20445C15.0993 2.20445 15.4785 2.20445 15.8578 2.20445C15.8578 1.82519 15.8578 1.44594 15.8578 1.06667C16.2371 1.06667 16.6162 1.06667 16.9956 1.06667C16.9956 0.687412 16.9956 0.308154 16.9956 -0.071106Z" fill="#356DD2"/>
<path fill-rule="evenodd" clip-rule="evenodd" d="M22.6845 -0.071106C24.2015 -0.071106 25.7185 -0.071106 27.2356 -0.071106C27.2356 0.308154 27.2356 0.687412 27.2356 1.06667C26.8563 1.06667 26.4771 1.06667 26.0978 1.06667C26.0978 1.44594 26.0978 1.82519 26.0978 2.20445C25.7185 2.20445 25.3393 2.20445 24.96 2.20445C24.96 2.58371 24.96 2.96296 24.96 3.34223C24.5807 3.34223 24.2015 3.34223 23.8222 3.34223C23.8222 3.72149 23.8222 4.10074 23.8222 4.48C22.3559 4.57795 20.8862 4.74388 19.4133 4.97778C19.6184 5.03137 19.7607 5.14989 19.84 5.33334C18.3923 5.78496 17.3968 6.73312 16.8533 8.17778C16.6111 8.34279 16.5164 8.24797 16.5689 7.89334C17.0151 7.34352 17.1098 6.72722 16.8533 6.04445C17.0904 6.04445 17.3274 6.04445 17.5645 6.04445C17.5645 5.90223 17.5645 5.76 17.5645 5.61778C17.754 5.61778 17.9438 5.61778 18.1333 5.61778C18.1333 5.23852 18.1333 4.85927 18.1333 4.48C18.5127 4.48 18.8918 4.48 19.2711 4.48C19.2711 4.10074 19.2711 3.72149 19.2711 3.34223C19.6504 3.34223 20.0296 3.34223 20.4089 3.34223C20.4089 2.96296 20.4089 2.58371 20.4089 2.20445C20.7882 2.20445 21.1674 2.20445 21.5467 2.20445C21.5467 1.82519 21.5467 1.44594 21.5467 1.06667C21.926 1.06667 22.3052 1.06667 22.6845 1.06667C22.6845 0.687412 22.6845 0.308154 22.6845 -0.071106Z" fill="#3573D4"/>
<path fill-rule="evenodd" clip-rule="evenodd" d="M27.2356 -0.071106C28.7526 -0.071106 30.2696 -0.071106 31.7867 -0.071106C31.7867 1.82519 31.7867 3.72149 31.7867 5.61778C31.4074 5.61778 31.0282 5.61778 30.6489 5.61778C30.6489 5.99705 30.6489 6.3763 30.6489 6.75556C30.2696 6.75556 29.8904 6.75556 29.5111 6.75556C29.5111 7.13482 29.5111 7.51407 29.5111 7.89334C29.1318 7.89334 28.7526 7.89334 28.3733 7.89334C28.3733 8.2726 28.3733 8.65185 28.3733 9.03112C27.994 9.03112 27.6149 9.03112 27.2356 9.03112C27.2356 9.41038 27.2356 9.78963 27.2356 10.1689C26.8089 10.1689 26.3822 10.1689 25.9556 10.1689C25.927 9.70979 25.9745 9.25941 26.0978 8.81778C26.0312 8.34437 25.9127 7.89401 25.7422 7.46667C25.6438 7.54138 25.5727 7.63619 25.5289 7.75112C25.7114 8.18134 25.7587 8.60801 25.6711 9.03112C25.5758 8.77634 25.481 8.5393 25.3867 8.32001C25.0547 6.82642 24.154 5.85457 22.6844 5.40445C21.7375 5.3334 20.7893 5.30969 19.84 5.33334C19.7606 5.14989 19.6184 5.03137 19.4133 4.97778C20.8862 4.74388 22.3559 4.57795 23.8222 4.48001C23.8222 4.10074 23.8222 3.72149 23.8222 3.34223C24.2015 3.34223 24.5807 3.34223 24.96 3.34223C24.96 2.96296 24.96 2.58371 24.96 2.20445C25.3393 2.20445 25.7185 2.20445 26.0978 2.20445C26.0978 1.82519 26.0978 1.44594 26.0978 1.06667C26.4771 1.06667 26.8562 1.06667 27.2356 1.06667C27.2356 0.687412 27.2356 0.308154 27.2356 -0.071106Z" fill="#3679D6"/>
<path fill-rule="evenodd" clip-rule="evenodd" d="M11.3067 5.19112C11.3067 5.23853 11.3067 5.28594 11.3067 5.33335C10.543 5.318 9.78445 5.36542 9.03113 5.47557C9.13957 5.36635 9.28179 5.29524 9.45779 5.26223C10.0723 5.19127 10.6886 5.16756 11.3067 5.19112Z" fill="#88A4DE"/>
<path fill-rule="evenodd" clip-rule="evenodd" d="M11.3067 -0.071106C13.203 -0.071106 15.0993 -0.071106 16.9956 -0.071106C16.9956 0.308154 16.9956 0.687412 16.9956 1.06667C16.6163 1.06667 16.2371 1.06667 15.8578 1.06667C15.8578 1.44594 15.8578 1.82519 15.8578 2.20445C15.4785 2.20445 15.0993 2.20445 14.72 2.20445C14.72 2.58371 14.72 2.96296 14.72 3.34223C14.3407 3.34223 13.9615 3.34223 13.5822 3.34223C13.6368 4.03095 13.542 4.69466 13.2978 5.33334C13.1238 5.15326 12.9341 4.98734 12.7289 4.83556C12.8438 4.79181 12.9386 4.7207 13.0133 4.62223C12.8188 4.46668 12.6528 4.5141 12.5156 4.76445C11.7407 4.63796 10.9585 4.66167 10.1689 4.83556C10.9434 4.84994 11.702 4.94474 12.4444 5.12001C12.0681 5.19075 11.6889 5.21446 11.3067 5.19112C10.6886 5.16755 10.0723 5.19126 9.45778 5.26223C9.28178 5.29524 9.13956 5.36635 9.03112 5.47556C7.71327 5.79804 6.85994 6.60397 6.47112 7.89334C6.35329 8.86348 6.28217 9.85903 6.25778 10.88C6.22234 11.0399 6.15123 11.1821 6.04445 11.3067C5.99705 11.2119 5.94963 11.117 5.90223 11.0222C6.16205 10.3681 6.20946 9.70442 6.04445 9.03112C5.68751 10.1373 5.54529 11.2751 5.61778 12.4444C5.23852 12.4444 4.85927 12.4444 4.48001 12.4444C4.48001 12.8237 4.48001 13.203 4.48001 13.5822C4.10074 13.5822 3.72149 13.5822 3.34223 13.5822C3.34223 13.9615 3.34223 14.3407 3.34223 14.72C2.96296 14.72 2.58371 14.72 2.20445 14.72C2.20445 15.0993 2.20445 15.4785 2.20445 15.8578C1.82519 15.8578 1.44594 15.8578 1.06667 15.8578C1.06667 16.2371 1.06667 16.6163 1.06667 16.9956C0.687412 16.9956 0.308154 16.9956 -0.071106 16.9956C-0.071106 15.0993 -0.071106 13.203 -0.071106 11.3067C0.308154 11.3067 0.687412 11.3067 1.06667 11.3067C1.06667 10.9274 1.06667 10.5482 1.06667 10.1689C1.44594 10.1689 1.82519 10.1689 2.20445 10.1689C2.20445 9.78963 2.20445 9.41038 2.20445 9.03112C2.58371 9.03112 2.96296 9.03112 3.34223 9.03112C3.34223 8.65185 3.34223 8.2726 3.34223 7.89334C3.72149 7.89334 4.10074 7.89334 4.48001 7.89334C4.48001 7.51407 4.48001 7.13482 4.48001 6.75556C4.85927 6.75556 5.23852 6.75556 5.61778 6.75556C5.61778 6.3763 5.61778 5.99705 5.61778 5.61778C6.28671 5.64054 6.92671 5.68794 7.53778 5.76001C7.8546 5.53054 8.21015 5.43574 8.60445 5.47556C8.60445 5.33334 8.60445 5.19112 8.60445 5.04889C8.3625 4.98259 8.14917 4.98259 7.96445 5.04889C7.86963 4.95407 7.86963 4.85927 7.96445 4.76445C8.44944 4.56902 8.42573 4.4742 7.89334 4.48001C7.89334 4.10074 7.89334 3.72149 7.89334 3.34223C8.2726 3.34223 8.65185 3.34223 9.03112 3.34223C9.03112 2.96296 9.03112 2.58371 9.03112 2.20445C9.41038 2.20445 9.78963 2.20445 10.1689 2.20445C10.1689 1.82519 10.1689 1.44594 10.1689 1.06667C10.5482 1.06667 10.9274 1.06667 11.3067 1.06667C11.3067 0.687412 11.3067 0.308154 11.3067 -0.071106Z" fill="#3467D1"/>
<path fill-rule="evenodd" clip-rule="evenodd" d="M31.7867 -0.071106C31.834 -0.071106 31.8815 -0.071106 31.9289 -0.071106C31.9289 3.34223 31.9289 6.75556 31.9289 10.1689C31.7878 11.2805 31.7403 12.4183 31.7867 13.5822C31.4074 13.5822 31.0282 13.5822 30.6489 13.5822C30.6489 13.9615 30.6489 14.3407 30.6489 14.72C30.2696 14.72 29.8904 14.72 29.5111 14.72C29.5111 15.0993 29.5111 15.4785 29.5111 15.8578C29.1318 15.8578 28.7526 15.8578 28.3733 15.8578C28.3733 16.2371 28.3733 16.6163 28.3733 16.9956C27.994 16.9956 27.6149 16.9956 27.2356 16.9956C27.1407 18.5126 27.046 18.5126 26.9511 16.9956C26.8089 16.9956 26.6667 16.9956 26.5244 16.9956C26.5478 17.3777 26.524 17.757 26.4533 18.1333C26.4165 17.5094 26.2507 16.9405 25.9556 16.4267C25.8953 15.3419 25.4211 14.4649 24.5333 13.7956C23.9164 13.5344 23.3 13.2737 22.6844 13.0133C24.8257 12.1979 25.7266 10.6334 25.3867 8.32001C25.481 8.5393 25.5758 8.77634 25.6711 9.03112C25.7587 8.60801 25.7114 8.18134 25.5289 7.75112C25.5727 7.63619 25.6438 7.54138 25.7422 7.46667C25.9128 7.89401 26.0312 8.34437 26.0978 8.81778C25.9745 9.25941 25.927 9.70979 25.9556 10.1689C26.3822 10.1689 26.8089 10.1689 27.2356 10.1689C27.2356 9.78963 27.2356 9.41038 27.2356 9.03112C27.6149 9.03112 27.994 9.03112 28.3733 9.03112C28.3733 8.65185 28.3733 8.2726 28.3733 7.89334C28.7526 7.89334 29.1318 7.89334 29.5111 7.89334C29.5111 7.51407 29.5111 7.13482 29.5111 6.75556C29.8904 6.75556 30.2696 6.75556 30.6489 6.75556C30.6489 6.3763 30.6489 5.99705 30.6489 5.61778C31.0282 5.61778 31.4074 5.61778 31.7867 5.61778C31.7867 3.72149 31.7867 1.82519 31.7867 -0.071106Z" fill="#3680D6"/>
<path fill-rule="evenodd" clip-rule="evenodd" d="M11.3066 5.33332C12.1547 5.37805 12.9132 5.6625 13.5822 6.18666C14.3068 6.95783 14.7808 7.85856 15.0044 8.88888C15.0044 9.36295 15.0044 9.83703 15.0044 10.3111C15.4784 10.3111 15.9526 10.3111 16.4266 10.3111C16.6963 9.66203 16.8385 8.95091 16.8533 8.17777C17.3967 6.7331 18.3923 5.78495 19.84 5.33332C20.7893 5.30967 21.7375 5.33338 22.6844 5.40443C24.154 5.85455 25.0547 6.8264 25.3866 8.31999C25.7266 10.6334 24.8257 12.1979 22.6844 13.0133C23.3 13.2736 23.9164 13.5344 24.5333 13.7955C25.4211 14.4648 25.8952 15.3419 25.9555 16.4267C26.1029 20.5687 24.1118 22.3465 19.9822 21.76C19.5402 21.5098 19.0661 21.3913 18.56 21.4044C18.56 23.1111 18.56 24.8178 18.56 26.5244C17.9437 26.5244 17.3273 26.5244 16.7111 26.5244C16.7111 24.6755 16.7111 22.8267 16.7111 20.9778C16.1896 20.9778 15.6682 20.9778 15.1466 20.9778C15.1466 22.8267 15.1466 24.6755 15.1466 26.5244C14.5304 26.5244 13.914 26.5244 13.2978 26.5244C13.2978 24.8178 13.2978 23.1111 13.2978 21.4044C13.043 21.3854 12.8059 21.4327 12.5866 21.5467C11.4188 21.824 10.2336 21.8951 9.03109 21.76C8.34394 21.6486 7.72765 21.3878 7.1822 20.9778C6.5163 20.1129 6.04222 19.1647 5.75998 18.1333C5.42419 15.4813 6.51457 13.7746 9.03109 13.0133C8.65911 12.8339 8.27986 12.668 7.89331 12.5155C6.64308 11.2415 6.16901 9.70072 6.47109 7.89332C6.85991 6.60395 7.71324 5.79802 9.03109 5.47554C9.78441 5.36539 10.5429 5.31798 11.3066 5.33332Z" fill="#FAFCFC"/>
<path fill-rule="evenodd" clip-rule="evenodd" d="M22.8267 14.2934C22.8388 14.506 22.7441 14.6482 22.5422 14.72C22.2275 14.3531 21.9193 14.3531 21.6178 14.72C21.5471 15.0963 21.5234 15.4756 21.5467 15.8578C21.1674 15.8578 20.7882 15.8578 20.4089 15.8578C20.4089 16.2371 20.4089 16.6163 20.4089 16.9956C20.0296 16.9956 19.6504 16.9956 19.2711 16.9956C19.3528 13.9469 19.2581 10.9128 18.9867 7.89335C19.4326 6.50814 20.3808 5.96294 21.8311 6.2578C22.7044 6.46733 23.2495 7.01251 23.4667 7.89335C23.688 9.19453 23.4984 10.4271 22.8978 11.5911C22.3067 12.3498 21.5245 12.6817 20.5511 12.5867C20.5511 12.9185 20.5511 13.2504 20.5511 13.5822C21.4002 13.5828 22.1587 13.8198 22.8267 14.2934Z" fill="#3779D6"/>
<path fill-rule="evenodd" clip-rule="evenodd" d="M13.2977 15.8578C13.0433 16.5557 12.9248 17.3141 12.9422 18.1333C12.8948 15.0993 12.8474 12.0652 12.8 9.03111C12.7758 10.573 12.7047 12.09 12.5866 13.5822C12.6103 12.7276 12.5866 11.8742 12.5155 11.0222C12.1662 11.2812 11.7633 11.3761 11.3066 11.3067C11.3098 11.8888 11.4046 12.4577 11.5911 13.0133C11.5789 13.274 11.4841 13.4636 11.3066 13.5822C11.3066 13.2504 11.3066 12.9185 11.3066 12.5867C10.4496 12.7039 9.71481 12.4669 9.10219 11.8756C8.15218 10.2418 8.08106 8.58257 8.88886 6.89778C10.1321 5.9196 11.3409 5.96702 12.5155 7.04C12.796 7.68789 13.0331 8.3516 13.2266 9.03111C13.2977 11.3062 13.3214 13.5817 13.2977 15.8578Z" fill="#376ED2"/>
<path fill-rule="evenodd" clip-rule="evenodd" d="M16.8533 6.04445C17.1097 6.72721 17.015 7.34352 16.5689 7.89333C15.1532 8.27786 14.5369 7.75639 14.72 6.32889C15.318 5.49176 16.0291 5.39695 16.8533 6.04445Z" fill="#F6F8FA"/>
<path fill-rule="evenodd" clip-rule="evenodd" d="M14.72 6.32888C14.537 7.75638 15.1532 8.27785 16.5689 7.89332C16.5164 8.24795 16.6111 8.34277 16.8533 8.17777C16.8385 8.95092 16.6963 9.66203 16.4267 10.3111C16.4564 9.58251 16.3615 8.8714 16.1422 8.17777C16.0499 8.47986 15.9313 8.76431 15.7867 9.0311C15.718 8.89627 15.6944 8.75405 15.7155 8.60443C15.526 8.60443 15.3362 8.60443 15.1467 8.60443C15.169 8.40911 15.1452 8.21947 15.0755 8.03554C15.0051 8.31611 14.9814 8.60055 15.0044 8.88888C14.7809 7.85856 14.3068 6.95783 13.5822 6.18666C13.7521 6.16141 13.9181 6.11399 14.08 6.04443C14.2649 6.21614 14.4782 6.31094 14.72 6.32888Z" fill="#4679CF"/>
<path fill-rule="evenodd" clip-rule="evenodd" d="M16.4266 10.3111C15.9526 10.3111 15.4784 10.3111 15.0044 10.3111C15.0044 9.83707 15.0044 9.36299 15.0044 8.88892C14.9814 8.60059 15.0051 8.31615 15.0755 8.03558C15.1452 8.21951 15.169 8.40914 15.1466 8.60447C15.3362 8.60447 15.526 8.60447 15.7155 8.60447C15.6943 8.75409 15.718 8.89631 15.7866 9.03114C15.9313 8.76434 16.0499 8.4799 16.1422 8.17781C16.3615 8.87144 16.4564 9.58255 16.4266 10.3111Z" fill="#4076D6"/>
<path fill-rule="evenodd" clip-rule="evenodd" d="M18.7022 8.60443C18.9525 9.05963 19.0711 9.58111 19.0578 10.1689C19.1841 12.8281 19.1367 15.4829 18.9155 18.1333C18.8602 15.0984 18.7891 12.0644 18.7022 9.0311C18.7022 8.88888 18.7022 8.74665 18.7022 8.60443Z" fill="#3577D9"/>
<path fill-rule="evenodd" clip-rule="evenodd" d="M6.47112 7.89331C6.16904 9.70071 6.64311 11.2414 7.89334 12.5155C8.27988 12.668 8.65913 12.8339 9.03112 13.0133C6.51459 13.7746 5.42422 15.4813 5.76001 18.1333C5.33334 18.1333 4.90667 18.1333 4.48001 18.1333C4.48001 18.5126 4.48001 18.8918 4.48001 19.2711C4.10074 19.2711 3.72149 19.2711 3.34223 19.2711C3.34223 19.6504 3.34223 20.0296 3.34223 20.4089C2.96296 20.4089 2.58371 20.4089 2.20445 20.4089C2.20445 20.7882 2.20445 21.1673 2.20445 21.5466C1.82519 21.5466 1.44594 21.5466 1.06667 21.5466C1.06667 21.926 1.06667 22.3051 1.06667 22.6844C0.687412 22.6844 0.308154 22.6844 -0.071106 22.6844C-0.071106 20.7882 -0.071106 18.8918 -0.071106 16.9955C0.308154 16.9955 0.687412 16.9955 1.06667 16.9955C1.06667 16.6162 1.06667 16.2371 1.06667 15.8578C1.44594 15.8578 1.82519 15.8578 2.20445 15.8578C2.20445 15.4784 2.20445 15.0993 2.20445 14.72C2.58371 14.72 2.96296 14.72 3.34223 14.72C3.34223 14.3407 3.34223 13.9615 3.34223 13.5822C3.72149 13.5822 4.10074 13.5822 4.48001 13.5822C4.48001 13.2029 4.48001 12.8237 4.48001 12.4444C4.85927 12.4444 5.23852 12.4444 5.61778 12.4444C5.54529 11.2751 5.68751 10.1373 6.04445 9.03109C6.20946 9.7044 6.16205 10.3681 5.90223 11.0222C5.94963 11.117 5.99705 11.2118 6.04445 11.3066C6.15123 11.1821 6.22234 11.0398 6.25778 10.88C6.28217 9.85901 6.35329 8.86345 6.47112 7.89331Z" fill="#366DD1"/>
<path fill-rule="evenodd" clip-rule="evenodd" d="M12.5866 13.5822C12.4461 14.3132 12.3987 15.0719 12.4444 15.8578C12.0652 15.8578 11.6859 15.8578 11.3066 15.8578C11.3066 16.2371 11.3066 16.6162 11.3066 16.9956C10.9274 16.9956 10.5481 16.9956 10.1689 16.9956C10.1689 17.3749 10.1689 17.754 10.1689 18.1333C9.7422 18.1333 9.31554 18.1333 8.88887 18.1333C8.91228 18.5626 8.88859 18.9892 8.81776 19.4133C8.39344 19.7272 8.36973 19.6561 8.74665 19.2C8.61862 18.6806 8.4764 18.1591 8.31998 17.6356C8.50286 17.2552 8.43175 16.9944 8.10665 16.8533C8.03602 16.5248 8.01231 16.193 8.03554 15.8578C8.49076 14.2211 9.58112 13.4625 11.3066 13.5822C11.4841 13.4636 11.5789 13.274 11.5911 13.0133C11.4046 12.4577 11.3098 11.8888 11.3066 11.3067C11.7633 11.3761 12.1662 11.2812 12.5155 11.0222C12.5866 11.8742 12.6103 12.7276 12.5866 13.5822Z" fill="#3674D4"/>
<path fill-rule="evenodd" clip-rule="evenodd" d="M31.9289 10.1689C31.9289 12.8237 31.9289 15.4785 31.9289 18.1333C31.7878 19.2449 31.7403 20.3827 31.7866 21.5467C31.4073 21.5467 31.0282 21.5467 30.6489 21.5467C30.6489 21.926 30.6489 22.3051 30.6489 22.6844C30.2696 22.6844 29.8904 22.6844 29.5111 22.6844C29.5111 23.0637 29.5111 23.4429 29.5111 23.8222C29.1318 23.8222 28.7526 23.8222 28.3733 23.8222C28.3733 24.2015 28.3733 24.5807 28.3733 24.96C27.994 24.96 27.6148 24.96 27.2355 24.96C27.2355 25.3393 27.2355 25.7185 27.2355 26.0978C26.8562 26.0978 26.4771 26.0978 26.0978 26.0978C26.0978 26.4771 26.0978 26.8562 26.0978 27.2356C25.7184 27.2356 25.3393 27.2356 24.96 27.2356C24.96 27.6149 24.96 27.994 24.96 28.3733C24.5807 28.3733 24.2015 28.3733 23.8222 28.3733C23.8222 28.7526 23.8222 29.1318 23.8222 29.5111C23.4429 29.5111 23.0637 29.5111 22.6844 29.5111C22.6844 29.8904 22.6844 30.2696 22.6844 30.6489C22.3051 30.6489 21.9259 30.6489 21.5466 30.6489C21.5466 31.0282 21.5466 31.4074 21.5466 31.7867C21.1363 31.7431 20.757 31.7905 20.4089 31.9289C17.6593 31.9289 14.9096 31.9289 12.16 31.9289C12.6044 31.7896 13.0785 31.7421 13.5822 31.7867C13.5822 31.4074 13.5822 31.0282 13.5822 30.6489C13.9615 30.6489 14.3407 30.6489 14.72 30.6489C14.72 30.2696 14.72 29.8904 14.72 29.5111C15.0993 29.5111 15.4784 29.5111 15.8578 29.5111C15.8578 29.1318 15.8578 28.7526 15.8578 28.3733C16.2371 28.3733 16.6162 28.3733 16.9955 28.3733C16.9955 27.994 16.9955 27.6149 16.9955 27.2356C16.8533 27.2356 16.7111 27.2356 16.5689 27.2356C16.5689 27.046 16.5689 26.8562 16.5689 26.6667C17.2605 26.712 17.9242 26.6647 18.56 26.5244C18.56 24.8178 18.56 23.1111 18.56 21.4044C19.0661 21.3914 19.5402 21.5098 19.9822 21.76C24.1118 22.3465 26.1029 20.5687 25.9555 16.4267C26.2506 16.9405 26.4165 17.5094 26.4533 18.1333C26.524 17.757 26.5477 17.3777 26.5244 16.9956C26.6666 16.9956 26.8089 16.9956 26.9511 16.9956C27.0459 18.5126 27.1407 18.5126 27.2355 16.9956C27.6148 16.9956 27.994 16.9956 28.3733 16.9956C28.3733 16.6162 28.3733 16.2371 28.3733 15.8578C28.7526 15.8578 29.1318 15.8578 29.5111 15.8578C29.5111 15.4785 29.5111 15.0993 29.5111 14.72C29.8904 14.72 30.2696 14.72 30.6489 14.72C30.6489 14.3407 30.6489 13.9615 30.6489 13.5822C31.0282 13.5822 31.4073 13.5822 31.7866 13.5822C31.7403 12.4183 31.7878 11.2805 31.9289 10.1689Z" fill="#3786D7"/>
<path fill-rule="evenodd" clip-rule="evenodd" d="M18.9867 7.89331C19.258 10.9127 19.3528 13.9468 19.2711 16.9955C19.6504 16.9955 20.0296 16.9955 20.4089 16.9955C20.4089 16.6162 20.4089 16.2371 20.4089 15.8578C20.7882 15.8578 21.1674 15.8578 21.5467 15.8578C21.5234 15.4756 21.5471 15.0963 21.6178 14.72C21.9193 14.353 22.2275 14.353 22.5422 14.72C22.7441 14.6482 22.8388 14.5059 22.8267 14.2933C23.3915 14.662 23.747 15.1835 23.8934 15.8578C24.5453 20.1844 22.7911 21.7015 18.6311 20.4089C18.5131 16.5922 18.5367 12.7995 18.7022 9.03109C18.7891 12.0644 18.8603 15.0984 18.9156 18.1333C19.1367 15.4829 19.1841 12.8281 19.0578 10.1689C19.0712 9.5811 18.9526 9.05962 18.7022 8.60442C18.7443 8.33377 18.8392 8.09673 18.9867 7.89331Z" fill="#367FD5"/>
<path fill-rule="evenodd" clip-rule="evenodd" d="M13.2978 15.8578C13.345 17.3777 13.2976 18.8948 13.1555 20.4089C8.99384 21.6516 7.28717 20.1346 8.03553 15.8578C8.01231 16.193 8.03601 16.5248 8.10664 16.8534C8.43175 16.9944 8.50286 17.2553 8.31998 17.6356C8.47639 18.1591 8.61861 18.6806 8.74664 19.2C8.36972 19.6561 8.39343 19.7272 8.81775 19.4134C8.88858 18.9892 8.91227 18.5626 8.88886 18.1334C9.31553 18.1334 9.7422 18.1334 10.1689 18.1334C10.1689 17.754 10.1689 17.3749 10.1689 16.9956C10.5481 16.9956 10.9274 16.9956 11.3066 16.9956C11.3066 16.6163 11.3066 16.2371 11.3066 15.8578C11.6859 15.8578 12.0652 15.8578 12.4444 15.8578C12.3987 15.0719 12.4461 14.3133 12.5866 13.5822C12.7047 12.09 12.7759 10.573 12.8 9.03113C12.8474 12.0652 12.8948 15.0993 12.9422 18.1334C12.9248 17.3142 13.0433 16.5557 13.2978 15.8578Z" fill="#3677D4"/>
<path fill-rule="evenodd" clip-rule="evenodd" d="M5.76001 18.1334C6.04225 19.1648 6.51633 20.113 7.18223 20.9778C6.81296 21.4979 6.29148 21.6875 5.61778 21.5467C5.61778 21.926 5.61778 22.3052 5.61778 22.6845C5.23852 22.6845 4.85927 22.6845 4.48001 22.6845C4.48001 23.0638 4.48001 23.4429 4.48001 23.8223C4.10074 23.8223 3.72149 23.8223 3.34223 23.8223C3.34223 24.2016 3.34223 24.5807 3.34223 24.96C2.96296 24.96 2.58371 24.96 2.20445 24.96C2.20445 25.3393 2.20445 25.7185 2.20445 26.0978C1.82519 26.0978 1.44594 26.0978 1.06667 26.0978C1.06667 26.4771 1.06667 26.8563 1.06667 27.2356C0.687412 27.2356 0.308154 27.2356 -0.071106 27.2356C-0.071106 25.7185 -0.071106 24.2016 -0.071106 22.6845C0.308154 22.6845 0.687412 22.6845 1.06667 22.6845C1.06667 22.3052 1.06667 21.926 1.06667 21.5467C1.44594 21.5467 1.82519 21.5467 2.20445 21.5467C2.20445 21.1674 2.20445 20.7882 2.20445 20.4089C2.58371 20.4089 2.96296 20.4089 3.34223 20.4089C3.34223 20.0296 3.34223 19.6504 3.34223 19.2711C3.72149 19.2711 4.10074 19.2711 4.48001 19.2711C4.48001 18.8918 4.48001 18.5127 4.48001 18.1334C4.90667 18.1334 5.33334 18.1334 5.76001 18.1334Z" fill="#3474D4"/>
<path fill-rule="evenodd" clip-rule="evenodd" d="M7.18223 20.9778C7.72768 21.3878 8.34397 21.6486 9.03112 21.76C10.2337 21.8951 11.4189 21.824 12.5867 21.5467C12.4971 23.1239 12.5919 24.6646 12.8711 26.1689C12.7363 26.2376 12.5941 26.2612 12.4444 26.24C12.4444 25.8133 12.4444 25.3867 12.4444 24.96C12.0652 24.96 11.6859 24.96 11.3067 24.96C11.3067 25.3393 11.3067 25.7185 11.3067 26.0978C10.9274 26.0978 10.5482 26.0978 10.1689 26.0978C10.1689 26.4771 10.1689 26.8563 10.1689 27.2356C9.78963 27.2356 9.41038 27.2356 9.03112 27.2356C9.03112 27.6149 9.03112 27.994 9.03112 28.3733C8.65185 28.3733 8.2726 28.3733 7.89334 28.3733C7.89334 28.7526 7.89334 29.1318 7.89334 29.5111C7.51407 29.5111 7.13482 29.5111 6.75556 29.5111C6.75556 29.8904 6.75556 30.2696 6.75556 30.6489C6.3763 30.6489 5.99705 30.6489 5.61778 30.6489C5.61778 31.0282 5.61778 31.4074 5.61778 31.7867C5.20742 31.7432 4.82815 31.7905 4.48001 31.9289C2.96296 31.9289 1.44594 31.9289 -0.071106 31.9289C-0.071106 30.3645 -0.071106 28.8 -0.071106 27.2356C0.308154 27.2356 0.687412 27.2356 1.06667 27.2356C1.06667 26.8563 1.06667 26.4771 1.06667 26.0978C1.44594 26.0978 1.82519 26.0978 2.20445 26.0978C2.20445 25.7185 2.20445 25.3393 2.20445 24.96C2.58371 24.96 2.96296 24.96 3.34223 24.96C3.34223 24.5807 3.34223 24.2015 3.34223 23.8222C3.72149 23.8222 4.10074 23.8222 4.48001 23.8222C4.48001 23.4429 4.48001 23.0638 4.48001 22.6844C4.85927 22.6844 5.23852 22.6844 5.61778 22.6844C5.61778 22.3051 5.61778 21.926 5.61778 21.5467C6.29148 21.6875 6.81296 21.4979 7.18223 20.9778Z" fill="#3579D6"/>
<path fill-rule="evenodd" clip-rule="evenodd" d="M31.9289 18.1334C31.9289 22.7318 31.9289 27.3304 31.9289 31.9289C28.0889 31.9289 24.2489 31.9289 20.4089 31.9289C20.757 31.7905 21.1363 31.7432 21.5467 31.7867C21.5467 31.4074 21.5467 31.0282 21.5467 30.6489C21.926 30.6489 22.3051 30.6489 22.6844 30.6489C22.6844 30.2696 22.6844 29.8904 22.6844 29.5111C23.0637 29.5111 23.4429 29.5111 23.8222 29.5111C23.8222 29.1318 23.8222 28.7527 23.8222 28.3734C24.2015 28.3734 24.5807 28.3734 24.96 28.3734C24.96 27.9941 24.96 27.6149 24.96 27.2356C25.3393 27.2356 25.7185 27.2356 26.0978 27.2356C26.0978 26.8563 26.0978 26.4771 26.0978 26.0978C26.4771 26.0978 26.8562 26.0978 27.2355 26.0978C27.2355 25.7185 27.2355 25.3393 27.2355 24.96C27.6148 24.96 27.994 24.96 28.3733 24.96C28.3733 24.5807 28.3733 24.2016 28.3733 23.8223C28.7526 23.8223 29.1318 23.8223 29.5111 23.8223C29.5111 23.4429 29.5111 23.0638 29.5111 22.6845C29.8904 22.6845 30.2696 22.6845 30.6489 22.6845C30.6489 22.3052 30.6489 21.926 30.6489 21.5467C31.0282 21.5467 31.4073 21.5467 31.7867 21.5467C31.7403 20.3827 31.7878 19.245 31.9289 18.1334Z" fill="#358CD9"/>
<path fill-rule="evenodd" clip-rule="evenodd" d="M18.56 26.5245C17.9243 26.6647 17.2605 26.712 16.5689 26.6667C16.5689 24.8178 16.5689 22.9689 16.5689 21.12C16.1422 21.12 15.7156 21.12 15.2889 21.12C15.2889 22.9689 15.2889 24.8178 15.2889 26.6667C14.5973 26.712 13.9335 26.6647 13.2978 26.5245C13.9141 26.5245 14.5304 26.5245 15.1467 26.5245C15.1467 24.6756 15.1467 22.8267 15.1467 20.9778C15.6682 20.9778 16.1896 20.9778 16.7111 20.9778C16.7111 22.8267 16.7111 24.6756 16.7111 26.5245C17.3274 26.5245 17.9438 26.5245 18.56 26.5245Z" fill="#7DA9E1"/>
<path fill-rule="evenodd" clip-rule="evenodd" d="M16.5689 26.6667C16.5689 26.8562 16.5689 27.046 16.5689 27.2356C16.7111 27.2356 16.8533 27.2356 16.9955 27.2356C16.9955 27.6149 16.9955 27.994 16.9955 28.3733C16.6162 28.3733 16.2371 28.3733 15.8578 28.3733C15.8578 28.7526 15.8578 29.1318 15.8578 29.5111C15.4785 29.5111 15.0993 29.5111 14.72 29.5111C14.72 29.8904 14.72 30.2696 14.72 30.6489C14.3407 30.6489 13.9615 30.6489 13.5822 30.6489C13.5822 31.0282 13.5822 31.4074 13.5822 31.7867C13.0785 31.7421 12.6044 31.7896 12.16 31.9289C9.59998 31.9289 7.03998 31.9289 4.47998 31.9289C4.82813 31.7905 5.20739 31.7431 5.61776 31.7867C5.61776 31.4074 5.61776 31.0282 5.61776 30.6489C5.99702 30.6489 6.37627 30.6489 6.75554 30.6489C6.75554 30.2696 6.75554 29.8904 6.75554 29.5111C7.1348 29.5111 7.51405 29.5111 7.89331 29.5111C7.89331 29.1318 7.89331 28.7526 7.89331 28.3733C8.27258 28.3733 8.65183 28.3733 9.03109 28.3733C9.03109 27.994 9.03109 27.6149 9.03109 27.2356C9.41036 27.2356 9.78961 27.2356 10.1689 27.2356C10.1689 26.8562 10.1689 26.4771 10.1689 26.0978C10.5481 26.0978 10.9274 26.0978 11.3066 26.0978C11.3066 25.7185 11.3066 25.3393 11.3066 24.96C11.6859 24.96 12.0652 24.96 12.4444 24.96C12.4444 25.3867 12.4444 25.8133 12.4444 26.24C12.594 26.2612 12.7363 26.2376 12.8711 26.1689C12.5919 24.6646 12.4971 23.1239 12.5866 21.5467C12.8059 21.4327 13.043 21.3854 13.2978 21.4044C13.2978 23.1111 13.2978 24.8178 13.2978 26.5244C13.9335 26.6647 14.5972 26.712 15.2889 26.6667C15.2889 24.8178 15.2889 22.9689 15.2889 21.12C15.7155 21.12 16.1422 21.12 16.5689 21.12C16.5689 22.9689 16.5689 24.8178 16.5689 26.6667Z" fill="#3580D6"/>
</g>
<defs>
<clipPath id="clip0_66_730">
<rect width="32" height="32" fill="white"/>
</clipPath>
</defs>
</svg>
