<svg width="32" height="32" viewBox="0 0 32 33" fill="none" xmlns="http://www.w3.org/2000/svg">
    <path fill-rule="evenodd" clip-rule="evenodd"
        d="M29.6922 18.7405C26.8856 15.074 23.8803 12.9309 21.5842 9.2644C19.9164 5.44852 21.247 2.08384 25.6243 0.019043C20.1382 1.59075 14.719 4.43311 11.7496 7.9503C9.2941 10.8582 8.17493 13.33 8.53182 16.7508C8.78129 19.1411 9.70758 21.1048 12.5015 22.8725C9.62674 21.9084 8.31468 19.7314 7.80534 17.2075C7.55124 15.9859 7.16779 14.8511 6.01974 13.8033C4.87169 12.8432 3.72249 12.5817 1.9369 12.1447C6.01974 13.8041 2.96483 17.8215 1.80985 19.39C-0.377678 22.358 -0.562474 25.0684 1.1492 27.4548C1.94152 28.5595 4.78507 30.8369 9.84041 32.019C9.72491 31.8752 9.62096 31.7322 9.53318 31.5908C8.11256 29.3173 10.6547 27.1072 13.2349 25.6793C14.525 24.9491 15.8821 24.0751 16.2898 22.8582C16.6005 21.9313 16.5589 20.7152 15.5344 19.9519C17.0486 20.5493 18.2544 21.4296 19.4325 22.6575C21.7124 25.036 21.6015 27.7377 17.6943 30.0285C19.9649 30.2119 23.6389 28.6346 23.4426 26.3596C24.0039 26.957 24.7731 28.0459 24.9013 29.0329C25.0722 30.3596 24.7535 31.1459 23.8399 31.9914C27.8153 30.8282 30.4163 28.6117 31.2803 26.897C33.0335 23.4177 31.2225 21.01 29.6922 18.7405Z"
        fill="#E26037" />
    <path fill-rule="evenodd" clip-rule="evenodd"
        d="M23.3837 16.6425C21.2493 15.2502 19.004 13.5852 18.3283 11.2644C17.8155 9.49831 17.8836 7.18065 19.578 5.7251C17.0717 6.86457 15.0771 8.54138 13.1286 10.8835C9.35645 15.4153 8.20032 19.5789 14.6647 23.9456C10.9064 24.2933 6.16756 22.2751 6.49211 17.94C5.56466 19.0787 4.29072 21.1538 4.07936 23.0345C3.73749 26.0846 4.57138 27.6745 6.89288 29.7346C7.952 30.6749 8.43478 31.4572 9.84039 32.0183C8.70851 29.831 11.8812 27.6611 14.3771 26.2838C15.6672 25.5568 17.0243 24.6852 17.4321 23.4714C17.7439 22.5485 17.7012 21.3363 16.6767 20.5754C18.1909 21.1712 19.362 22.1376 20.1312 23.5054C21.7609 26.4023 21.2851 27.5102 17.6942 30.0285C19.9649 30.2103 23.9577 29.3205 23.7613 27.0534C24.3215 27.6492 24.817 28.6141 24.9452 29.5979C25.0549 30.445 24.1598 31.4296 23.8399 31.9922C25.6717 30.9396 28.8028 29.2502 29.5085 27.9503C31.86 23.6168 27.6524 19.364 23.3837 16.6425Z"
        fill="#EB8D30" />
</svg>