<svg width="32" height="32" viewBox="0 0 32 32" fill="none" xmlns="http://www.w3.org/2000/svg">
<path fill-rule="evenodd" clip-rule="evenodd" d="M11.3292 3.65088C12.0341 4.13456 12.6728 4.70941 13.2454 5.37543C13.5702 5.98291 13.666 6.62165 13.5328 7.2916C11.5315 7.67378 9.58343 8.18476 7.68849 8.82453C7.36912 8.82453 7.04978 8.82453 6.73041 8.82453C6.73041 6.07803 6.73041 3.33151 6.73041 0.58501C6.93199 0.556364 7.12361 0.588306 7.30526 0.680819C8.65792 1.67435 9.99924 2.66438 11.3292 3.65088Z" fill="#797979"/>
<path fill-rule="evenodd" clip-rule="evenodd" d="M24.7424 5.37543C24.9969 6.26058 25.1245 7.21867 25.1256 8.24968C25.0936 9.20776 25.0618 10.1658 25.0298 11.1239C24.4529 11.8942 23.7184 12.4371 22.8262 12.7527C19.6197 13.5543 16.426 14.3527 13.2454 15.1479C11.6758 15.3213 10.1429 15.6405 8.64659 16.106C8.0855 16.1184 7.57453 16.2462 7.11366 16.4892C5.75038 16.7822 4.40906 17.1654 3.0897 17.6389C2.89832 15.5349 2.83445 13.4272 2.89809 11.3155C2.97874 10.8538 3.23422 10.5025 3.66455 10.2617C5.1858 9.84935 6.71873 9.49806 8.26336 9.20776C8.90207 9.08001 9.54081 8.95228 10.1795 8.82453C11.1227 8.75355 12.0169 8.56194 12.8622 8.24968C13.3579 8.01041 13.8689 7.81879 14.3951 7.67483C17.491 6.97146 20.5569 6.26888 23.5927 5.56704C23.9759 5.50318 24.3592 5.43929 24.7424 5.37543Z" fill="#C3C3C3"/>
<path fill-rule="evenodd" clip-rule="evenodd" d="M14.7783 15.7227C15.1384 15.8839 15.5216 15.9479 15.928 15.9143C16.376 16.2094 16.8871 16.3371 17.4609 16.2976C17.6656 16.4766 17.921 16.5406 18.2274 16.4892C21.5267 17.2461 24.8482 18.0446 28.1915 18.8844C28.5655 18.9545 28.8848 19.1142 29.1496 19.3635C29.2412 20.0989 29.0495 20.7375 28.5747 21.2796C25.3301 21.8771 22.1364 22.6435 18.9939 23.579C18.5656 23.6355 18.1824 23.5715 17.8442 23.3874C17.0344 22.9168 16.1401 22.7252 15.1615 22.8126C15.0337 22.8126 14.9061 22.8126 14.7783 22.8126C14.5307 21.6448 14.4031 20.4313 14.3951 19.1718C14.3958 17.9509 14.5237 16.8012 14.7783 15.7227Z" fill="#C3C3C3"/>
<path fill-rule="evenodd" clip-rule="evenodd" d="M13.6286 15.7227C13.7545 20.709 13.6269 25.627 13.2454 30.4772C12.7137 29.8823 12.075 29.4352 11.3292 29.1359C10.269 28.1738 9.11926 27.3115 7.88014 26.5491C7.59942 26.2092 7.34393 25.8577 7.11367 25.4952C6.94288 22.7528 6.87901 20.0063 6.92205 17.2557C7.28894 17.3101 7.60829 17.2463 7.88014 17.064C8.99513 16.681 10.1448 16.3298 11.3292 16.0102C12.0976 15.9142 12.8641 15.8183 13.6286 15.7227Z" fill="#797979"/>
<path fill-rule="evenodd" clip-rule="evenodd" d="M5.77232 17.4473C6.14522 18.3854 6.27297 19.4073 6.15555 20.5132C5.96393 20.5132 5.77232 20.5132 5.5807 20.5132C5.45295 20.5132 5.32522 20.5132 5.19747 20.5132C4.67608 20.4244 4.16509 20.2968 3.66453 20.1299C3.02206 19.7365 2.7985 19.1617 2.99387 18.4054C3.83446 17.8671 4.7606 17.5477 5.77232 17.4473Z" fill="#C3C3C3"/>
<path fill-rule="evenodd" clip-rule="evenodd" d="M29.1496 26.6449C29.331 27.5499 29.0756 28.2844 28.3831 28.8485C27.7619 28.9263 27.187 29.0859 26.6585 29.3275C26.0847 29.2881 25.5736 29.4157 25.1256 29.7108C22.5737 30.2848 20.0186 30.8597 17.4609 31.4353C16.6351 31.5465 15.8048 31.6105 14.9699 31.6269C14.7145 31.4991 14.5229 31.3075 14.3951 31.0521C14.2082 29.0878 14.1444 27.1076 14.2035 25.112C16.2005 24.7381 18.1805 24.2911 20.1436 23.7706C23.1682 23.1707 26.1703 22.468 29.1496 21.6629C29.1496 23.3236 29.1496 24.9842 29.1496 26.6449Z" fill="#797979"/>
</svg>
