<svg width="32" height="32" viewBox="0 0 32 32" fill="none" xmlns="http://www.w3.org/2000/svg">
<g clip-path="url(#clip0_67_1703)">
<path opacity="0.991" fill-rule="evenodd" clip-rule="evenodd" d="M0.444553 -0.444336C10.5186 -0.444336 20.5927 -0.444336 30.6668 -0.444336C30.6668 0.148257 30.963 0.444553 31.5557 0.444553C31.5557 10.5186 31.5557 20.5927 31.5557 30.6668C30.963 30.6668 30.6668 30.963 30.6668 31.5557C20.5927 31.5557 10.5186 31.5557 0.444553 31.5557C0.444553 30.963 0.148257 30.6668 -0.444336 30.6668C-0.444336 20.5927 -0.444336 10.5186 -0.444336 0.444553C0.148257 0.444553 0.444553 0.148257 0.444553 -0.444336Z" fill="#2C97DE"/>
<path fill-rule="evenodd" clip-rule="evenodd" d="M6.6665 7.55566C7.85169 7.55566 9.0369 7.55566 10.2221 7.55566C10.2221 11.7038 10.2221 15.8519 10.2221 20.0001C12.8887 20.0001 15.5554 20.0001 18.2221 20.0001C18.2221 21.1853 18.2221 22.3705 18.2221 23.5557C14.3702 23.5557 10.5183 23.5557 6.6665 23.5557C6.6665 18.2223 6.6665 12.889 6.6665 7.55566Z" fill="#FDFEFD"/>
<path fill-rule="evenodd" clip-rule="evenodd" d="M20 7.55566C21.1852 7.55566 22.3704 7.55566 23.5556 7.55566C23.5556 12.889 23.5556 18.2223 23.5556 23.5557C22.3704 23.5557 21.1852 23.5557 20 23.5557C20 18.2223 20 12.889 20 7.55566Z" fill="#FDFEFD"/>
</g>
<defs>
<clipPath id="clip0_67_1703">
<rect width="32" height="32" fill="white"/>
</clipPath>
</defs>
</svg>
