<svg width="32" height="32" viewBox="0 0 32 32" fill="none" xmlns="http://www.w3.org/2000/svg">
<g clip-path="url(#clip0_68_2)">
<path opacity="0.994" fill-rule="evenodd" clip-rule="evenodd" d="M15.1663 0.312146C20.1972 0.127449 24.4192 1.86388 27.8324 5.52145C30.6779 8.7984 31.9974 12.6186 31.7915 16.9819C31.381 21.9177 29.2029 25.852 25.2575 28.7847C21.2477 31.5287 16.8719 32.3324 12.1301 31.1959C7.43597 29.865 4.01768 27.0123 1.87517 22.6377C0.332013 19.2071 0.0144918 15.6648 0.922613 12.0108C2.25349 7.31666 5.10622 3.89838 9.48075 1.75587C11.2901 0.923998 13.1853 0.442756 15.1663 0.312146Z" fill="#FEFEFE"/>
<path fill-rule="evenodd" clip-rule="evenodd" d="M16.8034 2.66417C16.7804 2.72037 16.7804 2.77991 16.8034 2.84277C16.8922 2.83507 16.9467 2.87476 16.9672 2.96184C16.9771 2.95192 16.987 2.942 16.9969 2.93208C17.0418 2.98191 17.0963 3.01167 17.1607 3.02138C17.1607 3.06106 17.1607 3.10077 17.1607 3.14045C17.2236 3.16295 17.2831 3.16792 17.3393 3.15533C17.3293 3.16524 17.3194 3.17519 17.3095 3.1851C17.3576 3.25577 17.4072 3.31033 17.4583 3.34882C17.4427 3.36942 17.4228 3.3843 17.3988 3.39347C17.4896 3.41973 17.5591 3.47432 17.6072 3.55719C17.6014 3.52183 17.6163 3.48212 17.6518 3.43812C17.6667 3.45301 17.6816 3.46789 17.6965 3.48277C17.6662 3.514 17.6612 3.54874 17.6816 3.58696C17.6915 3.57705 17.7014 3.5671 17.7114 3.55719C17.7232 3.63852 17.7679 3.69308 17.8453 3.72091C17.8354 3.73083 17.8255 3.74077 17.8155 3.75068C17.8932 3.83727 17.9726 3.85713 18.0537 3.81022C18.0438 3.83998 18.0338 3.86975 18.0239 3.89952C18.0537 3.90943 18.0834 3.91937 18.1132 3.92929C18.0789 3.95649 18.0838 3.98129 18.1281 4.0037C18.1367 3.95774 18.1566 3.91806 18.1876 3.88463C18.1902 3.93182 18.1951 3.9715 18.2025 4.0037C18.2516 3.96953 18.2963 3.92985 18.3365 3.88463C18.3464 3.92431 18.3563 3.96402 18.3662 4.0037C18.4297 4.03689 18.4843 4.07657 18.53 4.12277C18.0273 4.03017 17.5213 3.96072 17.0118 3.9144C16.5912 3.86671 16.1645 3.84192 15.7318 3.83998C15.5832 3.74627 15.4741 3.62226 15.4044 3.46789C15.3205 3.17864 15.3999 2.94547 15.6425 2.76835C15.7282 2.73989 15.8075 2.7002 15.8807 2.64929C16.1886 2.63261 16.4962 2.63757 16.8034 2.66417Z" fill="#2E3CEA"/>
<path fill-rule="evenodd" clip-rule="evenodd" d="M16.8034 2.66406C17.1193 2.70862 17.4369 2.74335 17.756 2.76825C17.9927 2.82248 18.2308 2.86713 18.4704 2.9022C18.542 2.93995 18.6214 2.9598 18.7086 2.96174C20.8212 3.45004 22.7065 4.38277 24.3644 5.75988C24.4161 5.84153 24.4856 5.90106 24.5727 5.93848C24.9216 6.27747 25.2689 6.61486 25.6146 6.95057C25.6319 7.01752 25.6715 7.06711 25.7337 7.09941C27.387 8.93761 28.4388 11.0809 28.889 13.5292C28.8937 13.57 28.8887 13.6098 28.8741 13.6482C28.7939 13.6633 28.7493 13.698 28.7402 13.7524C28.7685 13.7738 28.7734 13.7986 28.7551 13.8269C28.698 13.7201 28.6137 13.6457 28.502 13.6036C28.5284 13.547 28.5185 13.4924 28.4723 13.4399C28.4246 13.4711 28.3998 13.4513 28.3979 13.3803C28.3879 13.3903 28.378 13.4002 28.3681 13.4101C28.3617 13.354 28.3418 13.3044 28.3086 13.2613C28.2872 13.2896 28.2624 13.2945 28.2341 13.2762C28.2242 13.2464 28.2143 13.2166 28.2044 13.1869C28.1338 13.185 28.0644 13.1553 27.996 13.0976C28.021 13.048 28.0061 13.043 27.9513 13.0827C27.9016 13.065 27.852 13.0253 27.8025 12.9636C27.7638 12.9919 27.7291 12.9919 27.6983 12.9636C27.7349 12.9403 27.7746 12.9255 27.8174 12.9189C27.7968 12.8872 27.7819 12.8524 27.7727 12.8148C27.7379 12.8777 27.6932 12.8976 27.6388 12.8743C27.6544 12.8537 27.6743 12.8388 27.6983 12.8296C27.6696 12.756 27.6646 12.6816 27.6834 12.6064C27.6562 12.631 27.6364 12.6608 27.6239 12.6957C27.5938 12.6708 27.5591 12.6609 27.5197 12.6659C27.4602 12.4476 27.4006 12.2293 27.3411 12.011C27.2937 11.8367 27.2292 11.668 27.1476 11.505C26.9628 11.1354 26.7792 10.7682 26.5969 10.4036C25.5944 8.453 24.1655 6.88026 22.3104 5.68546C21.823 5.40758 21.3269 5.13967 20.822 4.88174C20.2777 4.65565 19.722 4.46216 19.1551 4.30127C19.0974 4.25177 19.0279 4.23194 18.9467 4.24174C18.8021 4.21066 18.6632 4.17098 18.5299 4.12267C18.4843 4.07647 18.4297 4.03679 18.3662 4.0036C18.3563 3.96392 18.3464 3.92421 18.3365 3.88453C18.2962 3.92974 18.2516 3.96942 18.2025 4.0036C18.1951 3.97139 18.1902 3.93171 18.1876 3.88453C18.1565 3.91796 18.1367 3.95764 18.1281 4.0036C18.0838 3.98118 18.0789 3.95639 18.1132 3.92918C18.0834 3.91927 18.0537 3.90932 18.0239 3.89941C18.0338 3.86964 18.0438 3.83988 18.0537 3.81011C17.9726 3.85702 17.8932 3.83717 17.8155 3.75057C17.8254 3.74066 17.8354 3.73072 17.8453 3.72081C17.7678 3.69297 17.7232 3.63841 17.7113 3.55709C17.7014 3.567 17.6915 3.57694 17.6816 3.58685C17.6612 3.54863 17.6662 3.51389 17.6965 3.48267C17.6816 3.46778 17.6667 3.4529 17.6518 3.43802C17.6163 3.48201 17.6014 3.52172 17.6072 3.55709C17.5591 3.47421 17.4896 3.41962 17.3988 3.39336C17.4228 3.3842 17.4427 3.36931 17.4583 3.34871C17.4072 3.31022 17.3576 3.25566 17.3095 3.18499C17.3194 3.17508 17.3293 3.16514 17.3392 3.15523C17.2831 3.16782 17.2235 3.16285 17.1606 3.14034C17.1606 3.10066 17.1606 3.06095 17.1606 3.02127C17.0963 3.01157 17.0418 2.9818 16.9969 2.93197C16.987 2.94189 16.9771 2.95182 16.9672 2.96174C16.9467 2.87465 16.8921 2.83496 16.8034 2.84267C16.7804 2.7798 16.7804 2.72027 16.8034 2.66406Z" fill="#2E37E9"/>
<path fill-rule="evenodd" clip-rule="evenodd" d="M18.4707 2.90245C18.5599 2.89632 18.6392 2.91616 18.7088 2.96199C18.6217 2.96005 18.5423 2.94021 18.4707 2.90245Z" fill="#8F90F3"/>
<path fill-rule="evenodd" clip-rule="evenodd" d="M15.4046 3.46777C15.4744 3.62215 15.5835 3.74616 15.7321 3.83987C16.1648 3.8418 16.5914 3.8666 17.0121 3.91429C16.9025 3.90937 16.7933 3.91431 16.6846 3.92917C17.239 4.43379 17.7401 4.98448 18.1879 5.58126C19.2973 7.11515 20.1655 8.78213 20.7925 10.5822C21.0704 10.5921 21.3482 10.602 21.626 10.612C23.2731 10.5912 24.9202 10.5763 26.5674 10.5673C26.595 10.5558 26.6149 10.5359 26.627 10.5078C26.6124 10.4739 26.6025 10.4392 26.5972 10.4036C26.7795 10.7682 26.9631 11.1354 27.1479 11.505C27.2295 11.668 27.294 11.8367 27.3414 12.011C25.2775 12.011 23.2136 12.011 21.1497 12.011C21.3993 13.4814 21.4539 14.9599 21.3135 16.4464C21.2631 17.0438 21.1986 17.6392 21.12 18.2324C20.8051 17.4997 20.4479 16.7853 20.0483 16.0892C20.1694 14.7279 20.0702 13.3784 19.7507 12.0408C19.2347 12.0408 18.7187 12.0408 18.2028 12.0408C18.343 11.5853 18.4224 11.1189 18.4409 10.6417C18.7386 10.6417 19.0363 10.6417 19.3339 10.6417C18.779 9.06503 18.0001 7.61634 16.9972 6.29568C16.7875 6.03069 16.5543 5.81241 16.2976 5.6408C15.8531 5.13657 15.4661 4.59081 15.1367 4.00359C15.2027 3.98266 15.2572 3.94298 15.3004 3.88452C15.3325 3.74387 15.3672 3.60497 15.4046 3.46777Z" fill="#C0C1D5"/>
<path fill-rule="evenodd" clip-rule="evenodd" d="M17.012 3.91394C17.5215 3.96026 18.0275 4.02971 18.5302 4.12232C18.6635 4.17063 18.8023 4.21031 18.9469 4.24139C19.0094 4.27449 19.0789 4.29434 19.1553 4.30092C19.7222 4.46181 20.2779 4.6553 20.8222 4.88139C21.3271 5.13932 21.8232 5.40723 22.3106 5.68511C24.1657 6.87991 25.5946 8.45265 26.5971 10.4032C26.6024 10.4388 26.6123 10.4736 26.6269 10.5074C26.6148 10.5356 26.595 10.5554 26.5674 10.567C24.9202 10.576 23.273 10.5908 21.626 10.6116C21.3481 10.6017 21.0703 10.5918 20.7925 10.5819C20.1654 8.78178 19.2972 7.11481 18.1878 5.58092C17.74 4.98414 17.2389 4.43345 16.6846 3.92883C16.7933 3.91397 16.9024 3.90903 17.012 3.91394Z" fill="#FEFEFE"/>
<path fill-rule="evenodd" clip-rule="evenodd" d="M15.137 4.00331C15.4664 4.59053 15.8533 5.13629 16.2979 5.64052C17.0248 6.5383 17.6152 7.52063 18.0691 8.58749C18.3086 9.25083 18.4327 9.93548 18.4412 10.6414C18.4226 11.1186 18.3432 11.585 18.203 12.0405C18.1675 12.1624 18.1229 12.2815 18.0691 12.3977C18.0453 12.4501 18.0503 12.4997 18.084 12.5466C18.4553 12.6801 18.7877 12.8786 19.0812 13.1419C19.3248 13.8243 19.4538 14.5288 19.4681 15.2554C19.6696 15.53 19.8631 15.8078 20.0486 16.0889C20.4482 16.785 20.8054 17.4994 21.1202 18.2321C21.3603 18.7837 21.5885 19.3393 21.8049 19.8991C21.998 20.3992 22.1964 20.8954 22.4002 21.3875C22.5859 21.8004 22.7397 22.2271 22.8616 22.6675C22.9165 22.8651 22.8521 23.0041 22.6681 23.0842C22.6053 23.0677 22.5458 23.0429 22.4895 23.0098C22.2393 22.7732 21.9863 22.54 21.7305 22.3103C21.9599 23.0097 22.1484 23.7241 22.2961 24.4535C22.3291 24.7424 22.3638 25.0301 22.4002 25.3168C22.4002 25.6046 22.4002 25.8923 22.4002 26.1801C22.4002 26.1999 22.3903 26.2098 22.3705 26.2098C22.1095 26.0192 21.8713 25.8009 21.6561 25.5549C21.6461 25.5698 21.6362 25.5847 21.6263 25.5996C21.7174 25.8776 21.7868 26.1604 21.8347 26.448C21.8425 26.492 21.8325 26.5316 21.8049 26.567C21.2818 26.8584 20.746 27.1164 20.1975 27.341C19.6835 27.5193 19.1676 27.678 18.6495 27.8173C18.2981 27.884 17.9509 27.9534 17.6077 28.0256C17.1214 28.0684 16.6352 28.1081 16.1491 28.1447C15.3673 28.1677 14.5934 28.1082 13.8272 27.9661C13.2588 27.8612 12.6932 27.7421 12.1305 27.6089C12.1305 27.5791 12.1305 27.5494 12.1305 27.5196C12.233 27.1284 12.3472 26.7414 12.4728 26.3587C12.5023 26.1412 12.5619 25.9328 12.6514 25.7335C12.6848 25.5541 12.7195 25.3755 12.7556 25.1977C12.9234 24.6474 13.0871 24.0917 13.2468 23.5307C13.2682 23.4828 13.2632 23.4381 13.2319 23.3968C13.2767 23.287 13.3065 23.1728 13.3212 23.0545C13.4801 22.4784 13.6388 21.9029 13.7975 21.328C13.9105 20.9413 13.9899 20.5444 14.0356 20.1373C13.6643 20.1011 13.2922 20.0714 12.9193 20.048C11.8078 20.0809 10.6964 20.1206 9.58536 20.167C9.36121 20.1496 9.13795 20.1248 8.91559 20.0926C8.77429 20.0199 8.69493 19.9058 8.67745 19.7503C8.54847 19.1648 8.41452 18.5794 8.27559 17.994C8.08234 17.3852 7.91368 16.7701 7.76955 16.1484C7.69391 15.8913 7.71376 15.6432 7.82908 15.4042C8.44143 14.9547 9.10125 14.5826 9.80862 14.288C9.99344 14.161 10.172 14.027 10.3444 13.8861C10.6688 13.6041 10.9962 13.3213 11.3268 13.0377C11.5527 12.8168 11.771 12.5935 11.9816 12.368C12.3572 12.2372 12.7442 12.1479 13.1426 12.1001C13.5193 12.0806 13.8964 12.0707 14.2737 12.0703C14.6888 12.1149 15.1056 12.1347 15.524 12.1298C15.5537 12.1298 15.5835 12.1298 15.6133 12.1298C15.6097 11.5772 15.57 11.0315 15.4942 10.4926C15.4739 10.1154 15.4491 9.73836 15.4198 9.36145C15.4135 9.31507 15.3986 9.27539 15.3751 9.24238C15.3194 8.77777 15.2847 8.31143 15.2709 7.84331C15.2334 7.63124 15.1987 7.42287 15.1668 7.21819C15.1367 6.86732 15.0871 6.52002 15.0179 6.17633C14.8972 5.49716 14.8278 4.8125 14.8095 4.12238C14.8205 3.95401 14.9098 3.89945 15.0775 3.95866C15.0936 3.98 15.1135 3.99488 15.137 4.00331Z" fill="#2558FD"/>
<path fill-rule="evenodd" clip-rule="evenodd" d="M18.9473 4.24169C19.0285 4.23189 19.0979 4.25172 19.1556 4.30122C19.0792 4.29464 19.0097 4.27479 18.9473 4.24169Z" fill="#8A8EF2"/>
<path fill-rule="evenodd" clip-rule="evenodd" d="M14.8097 4.12305C14.8279 4.81318 14.8974 5.49783 15.0181 6.177C14.8113 6.37225 14.6327 6.59053 14.4823 6.83188C14.1086 6.551 13.7414 6.26324 13.3809 5.96863C13.8017 5.40343 14.2631 4.86762 14.765 4.36119C14.7705 4.2759 14.7854 4.19654 14.8097 4.12305Z" fill="#BFC0D5"/>
<path fill-rule="evenodd" clip-rule="evenodd" d="M12.3085 5.19445C12.1838 5.1988 12.159 5.24842 12.2341 5.34329C12.2832 5.37746 12.3278 5.41714 12.3681 5.46236C12.402 5.48989 12.402 5.51472 12.3681 5.53678C12.4884 5.62281 12.5976 5.72205 12.6955 5.83445C12.6617 5.8647 12.6717 5.88455 12.7253 5.89399C12.6154 5.90661 12.6104 5.93143 12.7104 5.96841C12.7203 5.95849 12.7302 5.94855 12.7401 5.93864C12.7637 6.00076 12.7985 6.05536 12.8443 6.10236C12.8218 6.14296 12.8367 6.1777 12.889 6.20655C12.9616 6.16588 12.9764 6.18077 12.9336 6.2512C12.9702 6.31514 13.0199 6.36476 13.0825 6.40003C13.0626 6.40995 13.0428 6.41989 13.0229 6.4298C13.0542 6.47103 13.0939 6.5008 13.142 6.5191C13.1284 6.53143 13.1185 6.54631 13.1122 6.56375C13.1755 6.59227 13.235 6.62701 13.2908 6.66794C13.2475 6.68053 13.2326 6.70533 13.2462 6.74236C13.3096 6.70179 13.3245 6.71173 13.2908 6.77213C13.356 6.86208 13.4354 6.9365 13.529 6.99538C13.5091 7.00529 13.4893 7.01524 13.4694 7.02515C13.5545 7.11749 13.619 7.21176 13.6629 7.30794C13.6728 7.29803 13.6828 7.28809 13.6927 7.27817C13.7071 7.30639 13.712 7.33616 13.7076 7.36748C13.7374 7.36748 13.7671 7.36748 13.7969 7.36748C13.7927 7.41582 13.8126 7.45053 13.8564 7.47166C13.8159 7.53504 13.8258 7.54992 13.8862 7.51631C13.9629 7.55748 13.9529 7.58231 13.8564 7.59073C13.9592 7.66324 14.0287 7.75749 14.0648 7.87352C14.1663 7.87007 14.206 7.91966 14.1839 8.02236C14.288 8.01519 14.2979 8.03998 14.2136 8.09678C14.2449 8.13009 14.2797 8.14497 14.3178 8.14143C14.3362 8.16968 14.3312 8.19447 14.3029 8.21585C14.3873 8.22082 14.4319 8.26547 14.4369 8.3498C14.4468 8.33989 14.4567 8.32995 14.4667 8.32003C14.482 8.39529 14.5167 8.45979 14.5708 8.51352C14.5609 8.52343 14.551 8.53338 14.5411 8.54329C14.5862 8.59345 14.6359 8.6381 14.6899 8.67724C14.6496 8.71222 14.6545 8.74199 14.7048 8.76655C14.7174 8.7232 14.7422 8.70832 14.7792 8.72189C14.7543 8.75199 14.7444 8.78673 14.7494 8.82608C14.8846 8.82105 14.8945 8.8409 14.7792 8.88561C14.7895 8.92122 14.8044 8.92122 14.8239 8.88561C14.8851 8.98873 14.9595 9.083 15.0471 9.16841C15.0372 9.17832 15.0273 9.18826 15.0174 9.19817C15.1379 9.27048 15.252 9.39449 15.3597 9.57027C15.3745 9.46156 15.3795 9.35243 15.3746 9.24282C15.3981 9.27584 15.413 9.31552 15.4192 9.36189C15.4485 9.73881 15.4733 10.1158 15.4936 10.4931C15.5088 10.5981 15.489 10.6924 15.4341 10.7758C15.4685 10.8031 15.4635 10.8279 15.4192 10.8503C15.375 10.8279 15.37 10.8031 15.4043 10.7758C15.3845 10.7659 15.3647 10.756 15.3448 10.7461C15.3547 10.7163 15.3647 10.6865 15.3746 10.6568C15.3463 10.6384 15.3215 10.6434 15.3001 10.6717C15.2867 10.5634 15.2321 10.4939 15.1364 10.4633C15.1388 10.4207 15.1289 10.381 15.1067 10.3442C15.0475 10.2573 14.978 10.1779 14.8983 10.1061C14.9181 10.0962 14.938 10.0862 14.9578 10.0763C14.9181 10.0565 14.8784 10.0366 14.8388 10.0168C14.845 9.99933 14.8549 9.98445 14.8685 9.97213C14.7649 9.90274 14.6855 9.82832 14.6304 9.74887C14.6262 9.70711 14.6262 9.66246 14.6304 9.61492C14.6006 9.605 14.5708 9.59506 14.5411 9.58515C14.551 9.57524 14.5609 9.56529 14.5708 9.55538C14.4989 9.50588 14.4443 9.4414 14.4071 9.36189C14.3873 9.40157 14.3674 9.40157 14.3476 9.36189C14.2804 9.28876 14.2506 9.20937 14.2583 9.12375C14.0798 8.93098 13.9211 8.70278 13.782 8.4391C13.7721 8.44902 13.7622 8.45896 13.7522 8.46887C13.715 8.42419 13.6852 8.37457 13.6629 8.32003C13.6082 8.35971 13.5933 8.35474 13.6183 8.30515C13.5534 8.2199 13.4939 8.13059 13.4397 8.03724C13.4496 8.02733 13.4595 8.01739 13.4694 8.00748C13.4422 7.99634 13.4174 7.98146 13.395 7.96282C13.3247 7.85307 13.2552 7.74391 13.1867 7.63538C13.1661 7.70656 13.1363 7.70656 13.0974 7.63538C13.0693 7.47854 12.985 7.36441 12.8443 7.29306C12.8815 7.24858 12.8815 7.20393 12.8443 7.1591C12.8168 7.12514 12.792 7.12514 12.7699 7.1591C12.7409 7.10278 12.7211 7.04325 12.7104 6.9805C12.7005 7.00035 12.6905 7.02018 12.6806 7.04003C12.6623 6.93242 12.6078 6.84806 12.5169 6.78701C12.5367 6.7771 12.5566 6.76716 12.5764 6.75724C12.5273 6.70896 12.4579 6.65937 12.3681 6.60841C12.378 6.59849 12.3879 6.58855 12.3978 6.57864C12.3762 6.53699 12.3613 6.49234 12.3532 6.44468C12.3433 6.4546 12.3333 6.46454 12.3234 6.47445C12.3134 6.4276 12.2886 6.38789 12.249 6.35538C12.2085 6.42924 12.1787 6.41932 12.1597 6.32561C12.1987 6.30305 12.2136 6.27328 12.2043 6.23631C12.1741 6.27007 12.1542 6.26016 12.1448 6.20655C12.09 6.24623 12.0751 6.24125 12.1001 6.19166C12.0361 6.11817 11.9914 6.03383 11.9662 5.93864C11.9563 5.95849 11.9463 5.97832 11.9364 5.99817C11.9161 5.95995 11.921 5.92521 11.9513 5.89399C11.9194 5.85577 11.8797 5.84585 11.8322 5.86422C11.8322 5.8146 11.8322 5.765 11.8322 5.71538C11.7836 5.70068 11.734 5.69574 11.6834 5.7005C11.6081 5.52008 11.5238 5.34147 11.4304 5.16468C11.3908 4.96846 11.3759 4.77 11.3857 4.56934C11.5032 4.5936 11.6123 4.63825 11.7132 4.70329C11.9173 4.86296 12.1157 5.02668 12.3085 5.19445Z" fill="#2B9FFA"/>
<path fill-rule="evenodd" clip-rule="evenodd" d="M8.28998 6.35561C8.2364 6.32271 8.20166 6.34254 8.18579 6.41514C8.14239 6.37802 8.09774 6.37802 8.05184 6.41514C8.02418 6.37975 8.01427 6.34007 8.02207 6.29607C7.93458 6.28363 7.86514 6.23898 7.8137 6.16212C7.84805 6.13491 7.84308 6.11011 7.79882 6.0877C7.76687 6.11092 7.73214 6.10595 7.69463 6.07282C7.71928 6.04558 7.74904 6.02575 7.78393 6.01328C7.74113 6.00676 7.70145 5.99188 7.66486 5.96863C7.73178 5.9441 7.73672 5.91433 7.67975 5.87933C7.62185 5.92937 7.56231 5.94922 7.50114 5.93886C7.47137 5.88924 7.43169 5.84956 7.38207 5.81979C7.39761 5.77368 7.39264 5.72903 7.36719 5.68584C7.4172 5.67536 7.44696 5.63071 7.45649 5.55189C7.63355 5.37376 7.84192 5.2398 8.08161 5.15002C8.41768 5.10231 8.65085 5.23626 8.78114 5.55189C8.82058 5.66881 8.8305 5.78788 8.81091 5.90909C8.67475 6.10339 8.50112 6.25222 8.28998 6.35561Z" fill="#2E61F0"/>
<path fill-rule="evenodd" clip-rule="evenodd" d="M12.3092 5.19434C12.676 5.43745 13.0332 5.69544 13.3808 5.96829C13.7414 6.2629 14.1085 6.55066 14.4822 6.83155C14.6905 7.01982 14.9088 7.19843 15.1371 7.36736C15.1654 7.32137 15.1753 7.27175 15.1668 7.21852C15.1988 7.4232 15.2335 7.63158 15.271 7.84364C15.2847 8.31176 15.3195 8.7781 15.3752 9.24271C15.3801 9.35231 15.3752 9.46144 15.3603 9.57015C15.2526 9.39437 15.1385 9.27036 15.018 9.19806C15.0279 9.18814 15.0379 9.1782 15.0478 9.16829C14.9601 9.08289 14.8857 8.98861 14.8245 8.8855C14.805 8.9211 14.7902 8.9211 14.7799 8.8855C14.8952 8.84079 14.8853 8.82093 14.7501 8.82596C14.745 8.78661 14.7549 8.75187 14.7799 8.72178C14.7428 8.7082 14.718 8.72309 14.7054 8.76643C14.6552 8.74187 14.6502 8.7121 14.6906 8.67713C14.6365 8.63798 14.5869 8.59333 14.5417 8.54317C14.5516 8.53326 14.5616 8.52332 14.5715 8.51341C14.5173 8.45968 14.4826 8.39517 14.4673 8.31992C14.4574 8.32983 14.4474 8.33977 14.4375 8.34968C14.4326 8.26535 14.3879 8.2207 14.3036 8.21573C14.3319 8.19436 14.3368 8.16956 14.3185 8.14131C14.2803 8.14486 14.2456 8.12997 14.2143 8.09666C14.2986 8.03987 14.2887 8.01507 14.1845 8.02224C14.2067 7.91955 14.1669 7.86995 14.0654 7.87341C14.0294 7.75737 13.9599 7.66313 13.8571 7.59062C13.9536 7.58219 13.9635 7.55736 13.8868 7.5162C13.8264 7.5498 13.8165 7.53492 13.8571 7.47155C13.8132 7.45041 13.7934 7.4157 13.7975 7.36736C13.7678 7.36736 13.738 7.36736 13.7082 7.36736C13.7127 7.33604 13.7077 7.30628 13.6933 7.27806C13.6834 7.28797 13.6735 7.29791 13.6636 7.30782C13.6196 7.21165 13.5551 7.11737 13.4701 7.02503C13.4899 7.01512 13.5098 7.00518 13.5296 6.99527C13.436 6.93639 13.3566 6.86197 13.2915 6.77201C13.3251 6.71161 13.3102 6.70167 13.2468 6.74224C13.2333 6.70521 13.2481 6.68042 13.2915 6.66782C13.2356 6.62689 13.1761 6.59216 13.1129 6.56364C13.1191 6.54619 13.129 6.53131 13.1426 6.51899C13.0945 6.50068 13.0549 6.47091 13.0236 6.42968C13.0434 6.41977 13.0633 6.40983 13.0831 6.39992C13.0205 6.36464 12.9709 6.31502 12.9343 6.25108C12.9771 6.18065 12.9622 6.16577 12.8896 6.20643C12.8373 6.17758 12.8224 6.14285 12.845 6.10224C12.7991 6.05524 12.7644 6.00065 12.7408 5.93852C12.7309 5.94843 12.7209 5.95838 12.711 5.96829C12.6111 5.93132 12.6161 5.90649 12.7259 5.89387C12.6723 5.88443 12.6624 5.86458 12.6961 5.83434C12.5982 5.72193 12.4891 5.62269 12.3687 5.53666C12.4027 5.5146 12.4027 5.48978 12.3687 5.46224C12.3285 5.41703 12.2838 5.37735 12.2347 5.34317C12.1596 5.2483 12.1844 5.19868 12.3092 5.19434Z" fill="#2DA3FA"/>
<path fill-rule="evenodd" clip-rule="evenodd" d="M11.6836 5.69999C11.7342 5.69523 11.7838 5.70017 11.8324 5.71488C11.8324 5.7645 11.8324 5.81409 11.8324 5.86372C11.8799 5.84535 11.9196 5.85526 11.9515 5.89348C11.9212 5.92471 11.9163 5.95945 11.9366 5.99767C11.9465 5.97781 11.9565 5.95799 11.9664 5.93813C11.9916 6.03333 12.0363 6.11766 12.1003 6.19116C12.0753 6.24075 12.0902 6.24572 12.145 6.20604C12.1544 6.25965 12.1743 6.26956 12.2045 6.23581C12.2138 6.27278 12.1989 6.30255 12.1599 6.32511C12.1789 6.41882 12.2087 6.42873 12.2492 6.35488C12.2888 6.38738 12.3136 6.42709 12.3236 6.47395C12.3335 6.46404 12.3434 6.45409 12.3534 6.44418C12.3615 6.49184 12.3764 6.53649 12.398 6.57813C12.3881 6.58805 12.3782 6.59799 12.3682 6.6079C12.4581 6.65886 12.5275 6.70846 12.5766 6.75674C12.5568 6.76665 12.5369 6.77659 12.5171 6.78651C12.608 6.84756 12.6625 6.93192 12.6808 7.03953C12.6907 7.01967 12.7007 6.99985 12.7106 6.97999C12.7213 7.04274 12.7411 7.10228 12.7701 7.1586C12.7922 7.12463 12.817 7.12463 12.8445 7.1586C12.8816 7.20343 12.8816 7.24808 12.8445 7.29255C12.9852 7.36391 13.0695 7.47803 13.0975 7.63488C13.1365 7.70605 13.1663 7.70605 13.1868 7.63488C13.2554 7.74341 13.3249 7.85257 13.3952 7.96232C13.4175 7.98095 13.4424 7.99584 13.4696 8.00697C13.4597 8.01688 13.4498 8.02683 13.4399 8.03674C13.494 8.13009 13.5536 8.21939 13.6185 8.30465C13.5935 8.35424 13.6084 8.35921 13.6631 8.31953C13.6854 8.37406 13.7152 8.42369 13.7524 8.46837C13.7623 8.45845 13.7723 8.44851 13.7822 8.4386C13.9212 8.70228 14.08 8.93048 14.2585 9.12325C14.2508 9.20886 14.2806 9.28825 14.3478 9.36139C14.3676 9.40107 14.3875 9.40107 14.4073 9.36139C14.4445 9.4409 14.4991 9.50538 14.571 9.55488C14.5611 9.56479 14.5512 9.57473 14.5413 9.58465C14.571 9.59456 14.6008 9.6045 14.6306 9.61441C14.6264 9.66195 14.6264 9.7066 14.6306 9.74837C14.6857 9.82782 14.7651 9.90223 14.8687 9.97162C14.8551 9.98395 14.8452 9.99883 14.8389 10.0163C14.8786 10.0361 14.9183 10.056 14.958 10.0758C14.9382 10.0857 14.9183 10.0957 14.8985 10.1056C14.9782 10.1774 15.0477 10.2568 15.1068 10.3437C15.1291 10.3805 15.139 10.4202 15.1366 10.4628C15.2323 10.4934 15.2869 10.5629 15.3003 10.6712C15.3217 10.6428 15.3465 10.6379 15.3748 10.6563C15.3648 10.686 15.3549 10.7158 15.345 10.7456C15.3648 10.7555 15.3847 10.7654 15.4045 10.7753C15.3702 10.8026 15.3751 10.8273 15.4194 10.8498C15.4637 10.8273 15.4686 10.8026 15.4343 10.7753C15.4892 10.6919 15.509 10.5976 15.4938 10.4926C15.5696 11.0314 15.6093 11.5771 15.6129 12.1298C15.5831 12.1298 15.5534 12.1298 15.5236 12.1298C15.5101 12.1012 15.4903 12.0764 15.4641 12.0553C15.474 12.0454 15.4839 12.0355 15.4938 12.0256C15.4195 11.9934 15.35 11.9537 15.2855 11.9065C15.3612 11.86 15.3612 11.8153 15.2855 11.7726C15.325 11.6729 15.3102 11.6629 15.2408 11.7428C15.157 11.6481 15.1024 11.5488 15.0771 11.4451C15.051 11.4228 15.0212 11.4079 14.9878 11.4005C14.9977 11.3905 15.0076 11.3806 15.0175 11.3707C14.997 11.3389 14.9821 11.3042 14.9729 11.2665C14.9188 11.2418 14.8643 11.217 14.8092 11.1921C14.829 11.1722 14.8489 11.1524 14.8687 11.1326C14.8141 11.0683 14.7596 11.0038 14.705 10.9391C14.6951 10.8994 14.6851 10.8597 14.6752 10.82C14.6513 10.8915 14.6265 10.8865 14.6008 10.8051C14.6346 10.7749 14.6246 10.755 14.571 10.7456C14.596 10.696 14.5812 10.691 14.5264 10.7307C14.508 10.7024 14.513 10.6776 14.5413 10.6563C14.5016 10.6364 14.4619 10.6166 14.4222 10.5967C14.4421 10.5868 14.4619 10.5769 14.4817 10.567C14.4003 10.5216 14.3408 10.4571 14.3031 10.3735C14.2857 10.3797 14.2708 10.3896 14.2585 10.4033C14.2498 10.3303 14.23 10.2608 14.1989 10.1949C14.189 10.2048 14.1791 10.2147 14.1692 10.2246C14.1403 10.1218 14.0808 10.0424 13.9906 9.98651C13.9498 9.94206 13.9449 9.89741 13.9757 9.85255C13.9468 9.80022 13.9121 9.78534 13.8715 9.8079C13.7793 9.78442 13.7743 9.74968 13.8566 9.70372C13.8196 9.60379 13.7948 9.60876 13.7822 9.7186C13.7684 9.676 13.7435 9.64129 13.7078 9.61441C13.6905 9.57199 13.6905 9.52237 13.7078 9.46558C13.6506 9.43218 13.5911 9.40735 13.5292 9.39116C13.5377 9.33793 13.5277 9.28831 13.4994 9.24232C13.4321 9.17377 13.3677 9.12414 13.3059 9.09348C13.2923 9.05645 13.3072 9.03166 13.3506 9.01906C13.2795 9.01061 13.2597 8.98084 13.291 8.92976C13.2391 8.91574 13.1894 8.89589 13.1422 8.87023C13.1558 8.8579 13.1657 8.84302 13.172 8.82558C13.0998 8.74086 13.0304 8.6565 12.9636 8.57255C12.9772 8.56023 12.9871 8.54535 12.9934 8.5279C12.9636 8.50311 12.9338 8.47828 12.9041 8.45348C12.914 8.44357 12.9239 8.43363 12.9338 8.42372C12.8704 8.39639 12.8505 8.35671 12.8743 8.30465C12.8346 8.3245 12.7949 8.34433 12.7552 8.36418C12.7651 8.35427 12.7751 8.34433 12.785 8.33441C12.7056 8.30465 12.7056 8.27488 12.785 8.24511C12.6941 8.18406 12.6395 8.0997 12.6213 7.99209C12.6114 8.002 12.6014 8.01194 12.5915 8.02186C12.5597 8.00129 12.525 7.9864 12.4873 7.9772C12.5103 7.91773 12.4904 7.86811 12.4278 7.82837C12.4133 7.74067 12.3687 7.65631 12.2938 7.57534C12.28 7.59303 12.275 7.61288 12.2789 7.63488C12.0574 6.99997 11.859 6.355 11.6836 5.69999Z" fill="#2B98F9"/>
<path fill-rule="evenodd" clip-rule="evenodd" d="M18.4411 10.6416C18.4326 9.93559 18.3086 9.25094 18.069 8.5876C17.6152 7.52074 17.0248 6.53841 16.2979 5.64062C16.5545 5.81223 16.7877 6.03052 16.9974 6.29551C18.0003 7.61617 18.7792 9.06486 19.3341 10.6416C19.0365 10.6416 18.7388 10.6416 18.4411 10.6416Z" fill="#FCFCFE"/>
<path fill-rule="evenodd" clip-rule="evenodd" d="M7.45646 5.55176C7.44694 5.63058 7.41717 5.67523 7.36716 5.68571C7.39261 5.7289 7.39758 5.77356 7.38205 5.81966C7.43167 5.84943 7.47135 5.88911 7.50112 5.93873C7.56229 5.94909 7.62182 5.92924 7.67972 5.8792C7.7367 5.91421 7.73175 5.94397 7.66484 5.9685C7.70142 5.99175 7.7411 6.00663 7.78391 6.01315C7.74902 6.02563 7.71925 6.04545 7.6946 6.07269C7.73211 6.10582 7.76685 6.11079 7.79879 6.08757C7.84305 6.10999 7.84803 6.13478 7.81367 6.16199C7.86511 6.23885 7.93456 6.2835 8.02205 6.29594C8.01425 6.33994 8.02416 6.37962 8.05181 6.41501C8.09771 6.37789 8.14237 6.37789 8.18577 6.41501C8.20163 6.34241 8.23637 6.32259 8.28995 6.35548C7.97415 6.6116 7.66653 6.8795 7.36716 7.1592C7.25229 7.15149 7.15802 7.09196 7.08437 6.9806C7.04737 7.00548 7.01263 6.99557 6.98019 6.95083C7.00477 6.92252 7.00971 6.89275 6.99507 6.86153C6.98516 6.87144 6.97521 6.88138 6.9653 6.89129C6.92503 6.85602 6.89029 6.81631 6.86112 6.77222C6.84367 6.77844 6.82879 6.78839 6.81646 6.80199C6.77964 6.75424 6.74493 6.70462 6.71228 6.65315C6.69483 6.65937 6.67995 6.66932 6.66763 6.68292C6.62062 6.63705 6.56603 6.60231 6.50391 6.57873C6.63971 6.52816 6.64962 6.46862 6.53367 6.40013C6.57306 6.37584 6.59288 6.3411 6.59321 6.29594C6.75568 6.18807 6.8946 6.05411 7.00995 5.89408C7.16358 5.78496 7.31242 5.67086 7.45646 5.55176Z" fill="#2E68F1"/>
<path fill-rule="evenodd" clip-rule="evenodd" d="M24.3643 5.75977C24.4514 5.79718 24.5209 5.85672 24.5726 5.93837C24.4855 5.90095 24.416 5.84142 24.3643 5.75977Z" fill="#A5A6F5"/>
<path fill-rule="evenodd" clip-rule="evenodd" d="M15.0173 6.17676C15.0864 6.52045 15.136 6.86775 15.1661 7.21862C15.1746 7.27184 15.1647 7.32146 15.1363 7.36746C14.9081 7.19853 14.6898 7.01992 14.4814 6.83164C14.6319 6.59029 14.8105 6.372 15.0173 6.17676Z" fill="#FAFBFE"/>
<path fill-rule="evenodd" clip-rule="evenodd" d="M6.59341 6.2959C6.59309 6.34106 6.57326 6.37579 6.53388 6.40008C6.64982 6.46858 6.63991 6.52811 6.50411 6.57869C6.56624 6.60226 6.62083 6.637 6.66783 6.68288C6.68016 6.66927 6.69504 6.65933 6.71248 6.65311C6.74514 6.70458 6.77985 6.7542 6.81667 6.80194C6.82899 6.78834 6.84388 6.7784 6.86132 6.77218C6.89049 6.81626 6.92523 6.85597 6.96551 6.89125C6.97542 6.88133 6.98536 6.87139 6.99528 6.86148C7.00992 6.89271 7.00498 6.92247 6.98039 6.95078C7.01284 6.99552 7.04758 7.00544 7.08458 6.98055C7.15822 7.09191 7.2525 7.15144 7.36737 7.15915C7.19079 7.4251 6.97247 7.65332 6.71248 7.84381C6.65441 7.85193 6.60976 7.83211 6.57853 7.78427C6.53257 7.86655 6.49783 7.86158 6.47435 7.76939C6.54719 7.7328 6.55213 7.68815 6.48923 7.63543C6.46937 7.67511 6.44955 7.71482 6.42969 7.7545C6.39248 7.61171 6.33792 7.6018 6.26597 7.72474C6.27172 7.68937 6.25683 7.64966 6.22132 7.60567C6.18581 7.6635 6.14116 7.65853 6.08737 7.59078C6.19486 7.51014 6.175 7.45061 6.02783 7.41218C6.15738 7.3997 6.16729 7.37985 6.0576 7.35264C6.01295 7.26831 5.94844 7.20381 5.86411 7.15915C5.84974 7.13093 5.84479 7.10117 5.84923 7.06985C6.07725 6.79221 6.32533 6.53425 6.59341 6.2959Z" fill="#2E6EF2"/>
<path fill-rule="evenodd" clip-rule="evenodd" d="M25.6152 6.95117C25.6774 6.98347 25.717 7.03306 25.7343 7.10001C25.6722 7.06771 25.6325 7.01812 25.6152 6.95117Z" fill="#9B9DF4"/>
<path fill-rule="evenodd" clip-rule="evenodd" d="M5.84973 7.06934C5.84529 7.10065 5.85023 7.13042 5.86461 7.15864C5.94894 7.20329 6.01345 7.2678 6.0581 7.35213C6.16779 7.37933 6.15788 7.39919 6.02833 7.41166C6.1755 7.45009 6.19536 7.50963 6.08787 7.59027C6.14165 7.65802 6.18631 7.66299 6.22182 7.60515C6.25733 7.64915 6.27221 7.68886 6.26647 7.72422C6.33842 7.60128 6.39298 7.61119 6.43019 7.75399C6.45005 7.71431 6.46987 7.6746 6.48973 7.63492C6.55262 7.68764 6.54768 7.73229 6.47484 7.76887C6.49833 7.86106 6.53307 7.86603 6.57903 7.78375C6.61025 7.83159 6.65491 7.85142 6.71298 7.84329C6.4835 8.09253 6.26522 8.35053 6.0581 8.61724C5.99127 8.61602 5.97141 8.5912 5.99856 8.54282C5.96382 8.50809 5.92912 8.47338 5.89438 8.43864C5.87232 8.4726 5.84749 8.4726 5.81996 8.43864C5.78331 8.40438 5.78331 8.36967 5.81996 8.33445C5.75006 8.32415 5.6955 8.28941 5.65624 8.23027C5.63418 8.26423 5.60935 8.26423 5.58182 8.23027C5.55556 8.19276 5.5258 8.15805 5.49252 8.12608C5.56399 8.10212 5.55902 8.07732 5.47763 8.05166C5.46772 8.06157 5.45778 8.07152 5.44787 8.08143C5.37294 7.98835 5.29852 7.89904 5.22461 7.81352C5.42619 7.55886 5.63457 7.31081 5.84973 7.06934Z" fill="#2D75F3"/>
<path fill-rule="evenodd" clip-rule="evenodd" d="M15.5233 12.1306C15.1049 12.1355 14.6881 12.1156 14.273 12.0711C13.9624 11.5985 13.6746 11.1123 13.4098 10.6125C13.249 10.2517 13.0903 9.89449 12.9335 9.54082C12.7136 8.90332 12.4953 8.26829 12.2786 7.63571C12.2747 7.61371 12.2797 7.59385 12.2935 7.57617C12.3683 7.65714 12.413 7.7415 12.4275 7.8292C12.4901 7.86893 12.51 7.91856 12.487 7.97803C12.5247 7.98723 12.5594 8.00211 12.5912 8.02268C12.6011 8.01277 12.611 8.00283 12.621 7.99292C12.6392 8.10053 12.6938 8.18489 12.7847 8.24594C12.7053 8.27571 12.7053 8.30547 12.7847 8.33524C12.7748 8.34515 12.7648 8.3551 12.7549 8.36501C12.7946 8.34515 12.8343 8.32533 12.874 8.30547C12.8502 8.35754 12.87 8.39722 12.9335 8.42454C12.9236 8.43446 12.9137 8.4444 12.9037 8.45431C12.9335 8.47911 12.9633 8.50393 12.993 8.52873C12.9868 8.54617 12.9769 8.56106 12.9633 8.57338C13.03 8.65733 13.0995 8.74169 13.1717 8.8264C13.1654 8.84385 13.1555 8.85873 13.1419 8.87106C13.1891 8.89672 13.2387 8.91657 13.2907 8.93059C13.2594 8.98167 13.2792 9.01144 13.3503 9.01989C13.3069 9.03248 13.292 9.05728 13.3056 9.09431C13.3673 9.12497 13.4318 9.17459 13.4991 9.24315C13.5274 9.28914 13.5373 9.33876 13.5289 9.39199C13.5908 9.40818 13.6503 9.43301 13.7075 9.4664C13.6902 9.5232 13.6902 9.57282 13.7075 9.61524C13.7432 9.64212 13.768 9.67683 13.7819 9.71943C13.7945 9.60959 13.8193 9.60461 13.8563 9.70454C13.774 9.7505 13.779 9.78524 13.8712 9.80873C13.9118 9.78617 13.9465 9.80105 13.9754 9.85338C13.9446 9.89824 13.9495 9.94289 13.9903 9.98733C14.0805 10.0432 14.14 10.1226 14.1689 10.2255C14.1788 10.2156 14.1887 10.2056 14.1986 10.1957C14.2297 10.2616 14.2495 10.3311 14.2582 10.4041C14.2705 10.3905 14.2854 10.3805 14.3028 10.3743C14.3404 10.4579 14.4 10.5224 14.4814 10.5678C14.4616 10.5777 14.4417 10.5877 14.4219 10.5976C14.4616 10.6174 14.5013 10.6372 14.541 10.6571C14.5126 10.6785 14.5077 10.7033 14.5261 10.7315C14.5808 10.6918 14.5957 10.6968 14.5707 10.7464C14.6243 10.7558 14.6342 10.7757 14.6005 10.8059C14.6261 10.8873 14.6509 10.8923 14.6749 10.8208C14.6848 10.8605 14.6948 10.9002 14.7047 10.9399C14.7593 11.0047 14.8138 11.0691 14.8684 11.1334C14.8485 11.1532 14.8287 11.1731 14.8089 11.1929C14.864 11.2178 14.9185 11.2427 14.9726 11.2673C14.9818 11.305 14.9967 11.3398 15.0172 11.3715C15.0073 11.3814 14.9974 11.3914 14.9875 11.4013C15.0209 11.4087 15.0507 11.4236 15.0768 11.4459C15.1021 11.5496 15.1567 11.6489 15.2405 11.7436C15.3098 11.6638 15.3247 11.6737 15.2851 11.7734C15.3609 11.8162 15.3609 11.8608 15.2851 11.9073C15.3497 11.9545 15.4192 11.9943 15.4935 12.0264C15.4836 12.0363 15.4737 12.0463 15.4637 12.0562C15.49 12.0772 15.5098 12.1021 15.5233 12.1306Z" fill="#2B91F7"/>
<path fill-rule="evenodd" clip-rule="evenodd" d="M12.2786 7.63574C12.4953 8.26833 12.7136 8.90336 12.9335 9.54086C12.7429 9.9025 12.5842 10.2795 12.4572 10.672C12.7862 10.6912 13.1038 10.6713 13.4098 10.6125C13.6746 11.1123 13.9624 11.5986 14.2731 12.0711C13.8957 12.0715 13.5186 12.0814 13.1419 12.1009C12.7696 12.0614 12.3926 12.0614 12.0107 12.1009C11.9647 12.1924 11.9548 12.2817 11.981 12.3688C11.7703 12.5943 11.552 12.8176 11.3261 13.0385C10.9956 13.3221 10.6681 13.6049 10.3438 13.8869C10.3522 13.8634 10.3671 13.8436 10.3884 13.8274C10.4356 13.2495 10.5001 12.674 10.5819 12.1009C9.58778 12.1151 8.59555 12.1002 7.60515 12.0562C7.19201 11.7594 7.10768 11.3873 7.35213 10.9399C7.46706 10.8255 7.60102 10.7461 7.75399 10.7018C8.84592 10.7214 9.92746 10.7016 10.9986 10.6423C11.3252 9.64787 11.7469 8.69531 12.2638 7.78458C12.2785 7.73594 12.2834 7.68632 12.2786 7.63574Z" fill="#BFC0D5"/>
<path fill-rule="evenodd" clip-rule="evenodd" d="M5.22378 7.81348C5.2977 7.899 5.37212 7.9883 5.44704 8.08138C5.45695 8.07147 5.4669 8.06153 5.47681 8.05162C5.55819 8.07728 5.56316 8.10207 5.49169 8.12603C5.52497 8.158 5.55474 8.19271 5.58099 8.23022C5.60853 8.26419 5.63335 8.26419 5.65541 8.23022C5.69468 8.28937 5.74924 8.32411 5.81913 8.33441C5.78249 8.36962 5.78249 8.40433 5.81913 8.43859C5.84667 8.47256 5.87149 8.47256 5.89355 8.43859C5.92829 8.47333 5.963 8.50804 5.99774 8.54278C5.97059 8.59115 5.99045 8.61598 6.05727 8.6172C5.89331 8.88567 5.71471 9.14363 5.52146 9.39115C5.50309 9.39446 5.48821 9.40437 5.47681 9.42092C5.46192 9.36635 5.42719 9.33162 5.37262 9.31673C5.42534 9.30081 5.43525 9.27598 5.40239 9.24231C5.36244 9.28405 5.33762 9.27414 5.32797 9.21255C5.2732 9.25223 5.25831 9.24726 5.28332 9.19766C5.26704 9.17013 5.24721 9.14533 5.22378 9.12324C5.18818 9.13354 5.18818 9.14843 5.22378 9.1679C5.20393 9.18775 5.1841 9.18775 5.16425 9.1679C5.08804 9.08696 5.0186 9.00263 4.95588 8.91487C4.92834 8.88091 4.90352 8.88091 4.88146 8.91487C4.84234 8.82673 4.79272 8.74734 4.73262 8.67673C4.7192 8.74904 4.69437 8.75401 4.6582 8.69162C4.71917 8.65512 4.72908 8.61047 4.68797 8.55766C4.84371 8.29282 5.02232 8.04477 5.22378 7.81348Z" fill="#2E7AF4"/>
<path fill-rule="evenodd" clip-rule="evenodd" d="M4.68861 8.55859C4.72972 8.6114 4.7198 8.65605 4.65884 8.69255C4.69501 8.75494 4.71983 8.74997 4.73326 8.67766C4.79336 8.74827 4.84298 8.82766 4.8821 8.9158C4.90415 8.88184 4.92898 8.88184 4.95651 8.9158C5.01923 9.00356 5.08868 9.08789 5.16489 9.16883C5.18474 9.18868 5.20457 9.18868 5.22442 9.16883C5.18882 9.14936 5.18882 9.13447 5.22442 9.12418C5.24785 9.14626 5.26767 9.17106 5.28396 9.19859C5.25895 9.24819 5.27384 9.25316 5.32861 9.21348C5.33825 9.27507 5.36308 9.28498 5.40303 9.24324C5.43589 9.27691 5.42598 9.30174 5.37326 9.31766C5.42782 9.33255 5.46256 9.36729 5.47744 9.42185C5.48885 9.4053 5.50373 9.39539 5.5221 9.39208C5.33236 9.73018 5.14381 10.0676 4.95651 10.4042C4.83036 10.3538 4.71129 10.2893 4.5993 10.2107C4.50325 10.0646 4.39412 9.92569 4.27186 9.79394C4.30017 9.77257 4.30511 9.74777 4.28675 9.71952C4.25552 9.7498 4.22078 9.75477 4.18256 9.73441C4.22429 9.69446 4.21438 9.66963 4.15279 9.65999C4.08031 9.71295 4.05054 9.69312 4.06349 9.60045C4.2446 9.23417 4.45297 8.88687 4.68861 8.55859Z" fill="#2F81F5"/>
<path fill-rule="evenodd" clip-rule="evenodd" d="M12.9343 9.54004C13.0911 9.89371 13.2498 10.2509 13.4106 10.6117C13.1045 10.6705 12.787 10.6903 12.458 10.6712C12.5849 10.2787 12.7437 9.90168 12.9343 9.54004Z" fill="#FBFBFD"/>
<path fill-rule="evenodd" clip-rule="evenodd" d="M4.06319 9.59961C4.05024 9.69228 4.08001 9.7121 4.1525 9.65914C4.21408 9.66879 4.224 9.69361 4.18226 9.73356C4.22048 9.75392 4.25522 9.74895 4.28645 9.71868C4.30482 9.74693 4.29987 9.77172 4.27157 9.7931C4.39382 9.92485 4.50295 10.0638 4.59901 10.2098C4.71099 10.2884 4.83006 10.3529 4.95622 10.4033C4.82729 10.681 4.69831 10.9589 4.56924 11.2368C4.52122 11.25 4.48649 11.2798 4.46505 11.3261C4.45562 11.2725 4.43576 11.2626 4.40552 11.2964C4.37783 11.2112 4.32824 11.1418 4.25668 11.088C4.23531 11.1163 4.21051 11.1212 4.18226 11.1029C4.22194 11.0481 4.21697 11.0332 4.16738 11.0582C4.13562 11.0376 4.10088 11.0228 4.06319 11.0136C4.0915 10.9922 4.09644 10.9674 4.07808 10.9391C4.03643 10.9175 3.99178 10.9026 3.94412 10.8945C3.95773 10.8822 3.96767 10.8673 3.97389 10.8498C3.93921 10.8176 3.89953 10.7928 3.85482 10.7754C3.89087 10.7488 3.89087 10.724 3.85482 10.701C3.83422 10.7166 3.81934 10.7365 3.81017 10.7605C3.77189 10.6606 3.70738 10.6159 3.61668 10.6266C3.60677 10.6167 3.59683 10.6067 3.58691 10.5968C3.64576 10.536 3.67553 10.4616 3.67622 10.3736C3.7904 10.1055 3.91939 9.84754 4.06319 9.59961Z" fill="#2D87F6"/>
<path fill-rule="evenodd" clip-rule="evenodd" d="M3.67647 10.374C3.67579 10.462 3.64602 10.5365 3.58717 10.5973C3.59708 10.6072 3.60703 10.6171 3.61694 10.627C3.70764 10.6164 3.77215 10.661 3.81043 10.761C3.8196 10.7369 3.83448 10.7171 3.85508 10.7015C3.89113 10.7245 3.89113 10.7493 3.85508 10.7759C3.89979 10.7932 3.93947 10.818 3.97415 10.8503C3.96793 10.8677 3.95799 10.8826 3.94438 10.895C3.99204 10.9031 4.03669 10.918 4.07833 10.9396C4.0967 10.9679 4.09176 10.9927 4.06345 11.014C4.10114 11.0232 4.13588 11.0381 4.16764 11.0587C4.21723 11.0337 4.2222 11.0486 4.18252 11.1033C4.21077 11.1217 4.23557 11.1168 4.25694 11.0884C4.3285 11.1422 4.37809 11.2117 4.40578 11.2968C4.43602 11.2631 4.45588 11.273 4.46531 11.3266C4.48674 11.2803 4.52148 11.2505 4.5695 11.2373C4.41417 11.6242 4.26533 12.0111 4.12299 12.3982C4.10114 12.3623 4.09122 12.3226 4.09322 12.2791C4.02877 12.2906 3.97915 12.2707 3.94438 12.2196C3.96001 12.199 3.97986 12.1841 4.00392 12.175C3.96424 12.1551 3.92453 12.1353 3.88485 12.1154C3.89476 12.1055 3.9047 12.0956 3.91461 12.0857C3.87988 12.041 3.84517 11.9963 3.81043 11.9517C3.79245 12.0168 3.75774 12.0217 3.70624 11.9666C3.67243 11.921 3.64266 11.8814 3.61694 11.8475C3.62685 11.8376 3.63679 11.8277 3.64671 11.8177C3.60968 11.8042 3.58488 11.8191 3.57229 11.8624C3.51996 11.8336 3.50507 11.7988 3.52764 11.7582C3.43113 11.7498 3.42119 11.725 3.49787 11.6838C3.47578 11.6604 3.45099 11.6405 3.42345 11.6243C3.40294 11.6498 3.37815 11.6696 3.34903 11.6838C3.35511 11.6532 3.34022 11.6234 3.30438 11.5945C3.25211 11.6387 3.21737 11.6288 3.2002 11.5647C3.30992 11.147 3.4687 10.7501 3.67647 10.374Z" fill="#2E8DF7"/>
<path fill-rule="evenodd" clip-rule="evenodd" d="M10.9995 10.6416C9.92835 10.701 8.84681 10.7208 7.75488 10.7011C8.83354 10.6811 9.91508 10.6613 10.9995 10.6416Z" fill="#DEDEE9"/>
<path fill-rule="evenodd" clip-rule="evenodd" d="M3.19998 11.5645C3.21716 11.6285 3.2519 11.6384 3.30417 11.5942C3.34001 11.6231 3.35489 11.6529 3.34882 11.6835C3.37793 11.6693 3.40273 11.6495 3.42324 11.624C3.45077 11.6403 3.47557 11.6601 3.49766 11.6835C3.42098 11.7247 3.43092 11.7495 3.52742 11.7579C3.50486 11.7985 3.51974 11.8333 3.57208 11.8621C3.58467 11.8188 3.60946 11.8039 3.64649 11.8175C3.63658 11.8274 3.62664 11.8373 3.61673 11.8472C3.64245 11.8811 3.67221 11.9208 3.70603 11.9663C3.75753 12.0214 3.79224 12.0165 3.81022 11.9514C3.84495 11.9961 3.87966 12.0407 3.9144 12.0854C3.90449 12.0953 3.89455 12.1052 3.88463 12.1152C3.92431 12.135 3.96402 12.1548 4.0037 12.1747C3.97965 12.1839 3.9598 12.1987 3.94417 12.2193C3.97894 12.2704 4.02856 12.2903 4.09301 12.2789C4.09101 12.3223 4.10092 12.362 4.12277 12.3979C4.02362 12.8244 3.9244 13.2511 3.8251 13.6779C3.7825 13.6362 3.74776 13.5866 3.72091 13.5291C3.711 13.549 3.70106 13.5688 3.69115 13.5886C3.67867 13.5538 3.65885 13.524 3.63161 13.4993C3.58904 13.5051 3.54439 13.5051 3.49766 13.4993C3.53424 13.4761 3.57392 13.4612 3.61673 13.4547C3.51977 13.4411 3.4503 13.3915 3.40835 13.3058C3.44181 13.2984 3.47158 13.2836 3.49766 13.2612C3.49269 13.2513 3.48774 13.2413 3.48277 13.2314C3.34236 13.2944 3.29771 13.2448 3.34882 13.0826C3.33394 13.0528 3.31905 13.0231 3.30417 12.9933C3.24291 13.0114 3.21811 13.0412 3.22975 13.0826C3.13411 13.076 3.07954 13.0264 3.06603 12.9338C3.02686 13.009 2.99212 13.009 2.96184 12.9338C2.92504 12.9115 2.88536 12.9016 2.84277 12.904C2.84458 12.8281 2.88427 12.7834 2.96184 12.77C2.91185 12.6937 2.89201 12.6093 2.90231 12.517C2.96063 12.1834 3.05987 11.8659 3.19998 11.5645Z" fill="#2D93F9"/>
<path fill-rule="evenodd" clip-rule="evenodd" d="M27.3415 12.0107C27.401 12.229 27.4606 12.4473 27.5201 12.6656C27.7036 13.3995 27.8326 14.1437 27.9071 14.8982C27.9448 15.6231 27.9448 16.3474 27.9071 17.0712C27.8829 17.2592 27.8631 17.4477 27.8476 17.6368C27.7908 17.9913 27.7263 18.3485 27.6541 18.7084C27.5347 19.1013 27.4305 19.4983 27.3415 19.8991C27.3217 19.8991 27.3117 19.909 27.3117 19.9289C25.4761 19.92 23.6404 19.9101 21.8048 19.8991C21.5884 19.3393 21.3601 18.7837 21.1201 18.2321C21.1987 17.6389 21.2632 17.0435 21.3136 16.4461C21.454 14.9596 21.3995 13.4811 21.1499 12.0107C23.2138 12.0107 25.2776 12.0107 27.3415 12.0107Z" fill="#FEFEFE"/>
<path fill-rule="evenodd" clip-rule="evenodd" d="M18.2024 12.041C18.7184 12.041 19.2343 12.041 19.7503 12.041C20.0698 13.3786 20.169 14.7281 20.048 16.0894C19.8625 15.8083 19.669 15.5305 19.4675 15.2559C19.4532 14.5293 19.3242 13.8248 19.0805 13.1424C18.7871 12.8791 18.4547 12.6806 18.0833 12.5471C18.0497 12.5002 18.0447 12.4506 18.0684 12.3982C18.1222 12.282 18.1669 12.1629 18.2024 12.041Z" fill="#FDFDFE"/>
<path fill-rule="evenodd" clip-rule="evenodd" d="M13.142 12.1009C12.7436 12.1487 12.3566 12.238 11.981 12.3688C11.9549 12.2817 11.9648 12.1924 12.0108 12.1009C12.3926 12.0614 12.7697 12.0614 13.142 12.1009Z" fill="#EEF0FC"/>
<path fill-rule="evenodd" clip-rule="evenodd" d="M28.8888 13.5292C28.9784 13.9479 29.0429 14.3745 29.0823 14.8092C29.1154 15.1856 29.1302 15.5626 29.127 15.9404C29.1023 16.1335 29.0874 16.332 29.0823 16.5357C29.0126 16.5171 28.9481 16.4873 28.8888 16.4464C28.9352 16.3809 28.9699 16.3809 28.993 16.4464C29.0104 16.398 29.0353 16.3533 29.0674 16.3125C29.0542 16.26 29.0393 16.265 29.0228 16.3274C29.0102 16.284 28.9854 16.2692 28.9484 16.2827C28.9928 16.3171 28.9878 16.342 28.9335 16.3571C28.8502 16.3352 28.8452 16.3104 28.9186 16.2827C28.8987 16.2728 28.8789 16.2629 28.8591 16.253C28.8738 16.1952 28.8887 16.1307 28.9037 16.0595C28.846 16.1 28.7964 16.09 28.7549 16.0297C28.6834 16.1473 28.609 16.1473 28.5316 16.0297C28.4991 16.0704 28.509 16.1052 28.5614 16.1339C28.5005 16.2233 28.431 16.2283 28.353 16.1488C28.3852 16.1414 28.4249 16.1364 28.4721 16.1339C28.4317 16.0794 28.4217 16.0248 28.4423 15.9702C28.407 15.9398 28.3772 15.9051 28.353 15.866C28.4084 15.8354 28.4481 15.7907 28.4721 15.732C28.4494 15.7198 28.4196 15.7149 28.3828 15.7171C28.3927 15.7072 28.4026 15.6973 28.4126 15.6874C28.3136 15.6033 28.2491 15.4992 28.2191 15.3748C28.1853 15.4257 28.1407 15.4406 28.0851 15.4195C28.1248 15.3996 28.1546 15.3698 28.1744 15.3302C28.1172 15.3194 28.0676 15.2946 28.0256 15.2557C28.0679 15.1686 28.0381 15.1289 27.9363 15.1367C27.9454 15.0508 27.9355 14.9714 27.9065 14.8985C27.832 14.1441 27.703 13.3999 27.5195 12.666C27.5589 12.6609 27.5936 12.6708 27.6237 12.6957C27.6362 12.6609 27.656 12.6311 27.6833 12.6064C27.6644 12.6816 27.6694 12.7561 27.6981 12.8297C27.6741 12.8389 27.6542 12.8538 27.6386 12.8744C27.693 12.8976 27.7377 12.8778 27.7726 12.8148C27.7818 12.8525 27.7966 12.8872 27.8172 12.919C27.7744 12.9255 27.7347 12.9404 27.6981 12.9637C27.7289 12.992 27.7636 12.992 27.8023 12.9637C27.8518 13.0254 27.9014 13.065 27.9512 13.0827C28.0059 13.043 28.0208 13.048 27.9958 13.0976C28.0642 13.1553 28.1337 13.1851 28.2042 13.1869C28.2141 13.2167 28.224 13.2464 28.2339 13.2762C28.2622 13.2946 28.287 13.2896 28.3084 13.2613C28.3416 13.3045 28.3615 13.3541 28.3679 13.4102C28.3778 13.4003 28.3878 13.3903 28.3977 13.3804C28.3996 13.4513 28.4244 13.4712 28.4721 13.4399C28.5183 13.4925 28.5282 13.547 28.5019 13.6037C28.6135 13.6458 28.6978 13.7202 28.7549 13.8269C28.7732 13.7987 28.7683 13.7739 28.74 13.7525C28.7491 13.6981 28.7938 13.6634 28.8739 13.6483C28.8885 13.6098 28.8935 13.5701 28.8888 13.5292Z" fill="#2D3CEA"/>
<path fill-rule="evenodd" clip-rule="evenodd" d="M2.90188 12.5176C2.89158 12.6099 2.91143 12.6942 2.96142 12.7706C2.88385 12.784 2.84416 12.8286 2.84235 12.9046C2.88493 12.9022 2.92462 12.9121 2.96142 12.9343C2.99169 13.0096 3.02643 13.0096 3.06561 12.9343C3.07912 13.027 3.13368 13.0766 3.22933 13.0832C3.21769 13.0418 3.24248 13.012 3.30374 12.9939C3.31863 13.0236 3.33351 13.0534 3.3484 13.0832C3.29729 13.2453 3.34194 13.295 3.48235 13.232C3.48732 13.2419 3.49226 13.2519 3.49723 13.2618C3.47116 13.2841 3.44139 13.299 3.40793 13.3064C3.44987 13.3921 3.51935 13.4417 3.6163 13.4553C3.5735 13.4618 3.53382 13.4767 3.49723 13.4999C3.54397 13.5057 3.58862 13.5057 3.63119 13.4999C3.65842 13.5246 3.67825 13.5543 3.69072 13.5892C3.70063 13.5694 3.71058 13.5495 3.72049 13.5297C3.74734 13.5872 3.78208 13.6367 3.82468 13.6785C3.76193 14.1244 3.70239 14.5709 3.64607 15.018C3.61711 14.9796 3.58734 14.9796 3.55677 15.018C3.53254 14.9506 3.51765 14.8811 3.51212 14.8097C3.49953 14.853 3.47473 14.8679 3.4377 14.8543C3.44761 14.8444 3.45755 14.8345 3.46747 14.8246C3.43273 14.8097 3.40793 14.7849 3.39305 14.7501C3.3628 14.7839 3.34295 14.774 3.33351 14.7204C3.31366 14.76 3.29383 14.76 3.27398 14.7204C3.28708 14.5867 3.23748 14.5668 3.12514 14.6608C3.10281 14.6422 3.07799 14.6273 3.05072 14.6162C3.07477 14.607 3.09463 14.5921 3.11026 14.5715C3.07629 14.544 3.07629 14.5192 3.11026 14.4971C3.05944 14.4913 3.00982 14.4913 2.96142 14.4971C2.98464 14.4652 2.97967 14.4304 2.94654 14.3929C2.85132 14.4148 2.84635 14.39 2.93165 14.3185C2.92173 14.3086 2.91181 14.2987 2.90188 14.2887C2.85227 14.2987 2.80266 14.3086 2.75305 14.3185C2.76666 14.3062 2.77658 14.2913 2.78281 14.2739C2.75305 14.2491 2.72328 14.2242 2.69351 14.1994C2.7332 14.1447 2.72824 14.1298 2.67863 14.1548C2.65878 14.0754 2.63894 14.0754 2.61909 14.1548C2.61405 14.016 2.61901 13.8771 2.63398 13.738C2.67445 13.3171 2.76375 12.9103 2.90188 12.5176Z" fill="#2D9AFA"/>
<path fill-rule="evenodd" clip-rule="evenodd" d="M2.63398 13.7373C2.61902 13.8764 2.61405 14.0153 2.6191 14.154C2.63894 14.0747 2.65879 14.0747 2.67863 14.154C2.72824 14.129 2.7332 14.1439 2.69352 14.1987C2.72328 14.2235 2.75305 14.2483 2.78282 14.2731C2.77659 14.2906 2.76667 14.3054 2.75305 14.3178C2.80266 14.3079 2.85227 14.2979 2.90189 14.288C2.91181 14.2979 2.92173 14.3079 2.93166 14.3178C2.84636 14.3893 2.85132 14.4141 2.94654 14.3922C2.97967 14.4297 2.98464 14.4644 2.96142 14.4964C3.00982 14.4906 3.05945 14.4906 3.11026 14.4964C3.0763 14.5184 3.0763 14.5433 3.11026 14.5708C3.09463 14.5914 3.07478 14.6063 3.05072 14.6154C3.07799 14.6266 3.10282 14.6415 3.12514 14.6601C3.23749 14.5661 3.28708 14.5859 3.27398 14.7196C3.29384 14.7593 3.31366 14.7593 3.33352 14.7196C3.34295 14.7732 3.36281 14.7832 3.39305 14.7494C3.40793 14.7841 3.43273 14.8089 3.46747 14.8238C3.45756 14.8337 3.44761 14.8437 3.4377 14.8536C3.47473 14.8672 3.49953 14.8523 3.51212 14.8089C3.51766 14.8804 3.53254 14.9499 3.55677 15.0173C3.58734 14.9789 3.61711 14.9789 3.64607 15.0173C3.61812 15.4928 3.60821 15.969 3.61631 16.4461C3.62122 16.536 3.61625 16.6253 3.60142 16.714C3.58654 16.6992 3.57166 16.6843 3.55677 16.6694C3.57064 16.6307 3.57064 16.5861 3.55677 16.5354C3.50783 16.5418 3.46318 16.5319 3.42282 16.5057C3.40924 16.4686 3.42413 16.4438 3.46747 16.4313C3.42779 16.4114 3.38808 16.3916 3.3484 16.3717C3.35831 16.3618 3.36825 16.3519 3.37817 16.342C3.3367 16.3071 3.31187 16.2624 3.30375 16.208C3.27734 16.3035 3.22775 16.3035 3.15491 16.208C3.14259 16.2216 3.1277 16.2315 3.11026 16.2378C3.07382 16.1685 3.07382 16.099 3.11026 16.0294C3.0429 15.9952 2.97344 15.9654 2.90189 15.9401C2.92173 15.9302 2.94158 15.9202 2.96142 15.9103C2.95519 15.8929 2.94527 15.878 2.93166 15.8657C2.84947 15.8312 2.76017 15.8163 2.66375 15.821C2.6277 15.7847 2.6277 15.75 2.66375 15.7168C2.62799 15.69 2.60318 15.6553 2.58933 15.6127C2.55956 15.6127 2.52979 15.6127 2.50003 15.6127C2.45982 15.4468 2.44494 15.2781 2.45538 15.1066C2.46835 14.6391 2.52789 14.1827 2.63398 13.7373Z" fill="#2DA0FB"/>
<path fill-rule="evenodd" clip-rule="evenodd" d="M15.107 14.75C15.1467 14.75 15.1864 14.75 15.2261 14.75C15.1009 15.0747 14.9322 15.3773 14.7201 15.6579C14.2665 15.6854 13.815 15.73 13.3656 15.7919C13.2634 15.7827 13.2436 15.743 13.3061 15.6728C13.5095 15.4694 13.7129 15.266 13.9163 15.0626C14.3147 14.9481 14.7116 14.8439 15.107 14.75Z" fill="#34E5AC"/>
<path fill-rule="evenodd" clip-rule="evenodd" d="M27.9072 14.8984C27.9362 14.9713 27.9461 15.0507 27.937 15.1366C28.0388 15.1288 28.0686 15.1685 28.0263 15.2556C28.0683 15.2945 28.118 15.3193 28.1751 15.3301C28.1553 15.3697 28.1255 15.3995 28.0858 15.4194C28.1414 15.4405 28.1861 15.4256 28.2198 15.3747C28.2498 15.4991 28.3143 15.6032 28.4133 15.6873C28.4034 15.6972 28.3934 15.7071 28.3835 15.717C28.4204 15.7148 28.4501 15.7197 28.4728 15.7319C28.4488 15.7906 28.4091 15.8353 28.3537 15.8659C28.3779 15.905 28.4077 15.9397 28.443 15.9701C28.4224 16.0247 28.4324 16.0793 28.4728 16.1338C28.4256 16.1363 28.3859 16.1413 28.3537 16.1487C28.4318 16.2282 28.5012 16.2232 28.5621 16.1338C28.5097 16.1051 28.4998 16.0703 28.5323 16.0296C28.6097 16.1472 28.6841 16.1472 28.7556 16.0296C28.7972 16.0899 28.8467 16.0999 28.9044 16.0594C28.8894 16.1306 28.8745 16.1951 28.8598 16.2529C28.8796 16.2628 28.8995 16.2727 28.9193 16.2826C28.8459 16.3103 28.8509 16.3351 28.9342 16.357C28.9886 16.3419 28.9935 16.317 28.9491 16.2826C28.9861 16.269 29.0109 16.2839 29.0235 16.3273C29.0401 16.2649 29.0549 16.2599 29.0682 16.3124C29.036 16.3532 29.0112 16.3979 28.9937 16.4463C28.9706 16.3808 28.9359 16.3808 28.8896 16.4463C28.9488 16.4872 29.0133 16.517 29.083 16.5356C29.0882 16.3319 29.103 16.1334 29.1277 15.9403C29.1374 16.4193 29.1076 16.8956 29.0384 17.3691C28.9738 17.4069 28.9093 17.4069 28.8449 17.3691C28.83 17.384 28.8151 17.3989 28.8002 17.4138C28.8357 17.4707 28.8655 17.5302 28.8896 17.5924C28.8247 17.5973 28.7702 17.5725 28.7258 17.518C28.6875 17.6476 28.6131 17.6723 28.5026 17.5924C28.5365 17.5703 28.5365 17.5455 28.5026 17.518C28.554 17.5535 28.6085 17.5535 28.6663 17.518C28.7474 17.4363 28.7474 17.4065 28.6663 17.4287C28.6522 17.2761 28.6224 17.2761 28.577 17.4287C28.5307 17.3797 28.4811 17.3698 28.4282 17.3989C28.4098 17.3707 28.4147 17.3459 28.443 17.3245C28.3587 17.2699 28.3637 17.2253 28.4579 17.1905C28.4738 17.2432 28.4987 17.2532 28.5323 17.2203C28.4965 17.1335 28.437 17.069 28.3537 17.0268C28.3537 16.997 28.3537 16.9673 28.3537 16.9375C28.329 16.917 28.3091 16.922 28.2942 16.9524C28.275 16.9891 28.2701 17.0287 28.2793 17.0715C28.267 17.0579 28.2521 17.0479 28.2347 17.0417C28.2024 17.0764 28.1776 17.1161 28.1602 17.1608C28.1178 17.1396 28.0732 17.1346 28.0263 17.1459C28.0211 17.0965 28.0409 17.0469 28.0858 16.997C28.0709 16.9822 28.0561 16.9673 28.0412 16.9524C28.01 17.0085 27.9653 17.0482 27.9072 17.0715C27.945 16.3477 27.945 15.6233 27.9072 14.8984Z" fill="#3144EB"/>
<path fill-rule="evenodd" clip-rule="evenodd" d="M2.45535 15.1074C2.44491 15.2789 2.4598 15.4476 2.5 15.6135C2.52977 15.6135 2.55954 15.6135 2.5893 15.6135C2.60315 15.6561 2.62796 15.6908 2.66372 15.7177C2.62767 15.7508 2.62767 15.7855 2.66372 15.8218C2.76014 15.8171 2.84944 15.832 2.93163 15.8665C2.94525 15.8788 2.95517 15.8937 2.9614 15.9111C2.94155 15.9211 2.92171 15.931 2.90186 15.9409C2.97342 15.9662 3.04287 15.996 3.11023 16.0302C3.0738 16.0998 3.0738 16.1693 3.11023 16.2386C3.12768 16.2324 3.14256 16.2224 3.15489 16.2088C3.22773 16.3043 3.27732 16.3043 3.30372 16.2088C3.31185 16.2633 3.33668 16.3079 3.37814 16.3428C3.36823 16.3527 3.35829 16.3626 3.34837 16.3725C3.38805 16.3924 3.42776 16.4122 3.46744 16.4321C3.4241 16.4447 3.40922 16.4695 3.42279 16.5065C3.46316 16.5327 3.50781 16.5426 3.55675 16.5363C3.57062 16.5869 3.57062 16.6315 3.55675 16.6702C3.57163 16.6851 3.58651 16.7 3.6014 16.7149C3.61622 16.6261 3.62119 16.5368 3.61628 16.447C3.64533 16.7496 3.67013 17.0572 3.6907 17.3697C3.74729 17.6658 3.79194 17.9635 3.82465 18.2628C3.82948 18.3231 3.8245 18.3826 3.80977 18.4414C3.76018 18.4164 3.75521 18.4313 3.79489 18.486C3.77926 18.5066 3.7594 18.5215 3.73535 18.5307C3.73208 18.4831 3.72216 18.4335 3.70558 18.3818C3.69567 18.3719 3.68573 18.362 3.67582 18.3521C3.63783 18.5063 3.61798 18.5063 3.61628 18.3521C3.57541 18.3567 3.5357 18.3518 3.49721 18.3372C3.51707 18.3273 3.53689 18.3173 3.55675 18.3074C3.51707 18.2777 3.51707 18.2479 3.55675 18.2181C3.49108 18.2266 3.42657 18.2316 3.36326 18.233C3.34367 18.1851 3.35855 18.1504 3.40791 18.1288C3.34331 18.0816 3.27384 18.0419 3.19954 18.0097C3.20945 17.9998 3.21939 17.9899 3.2293 17.98C3.15637 18.0135 3.09684 17.9936 3.0507 17.9204C3.11556 17.9073 3.13539 17.8775 3.11023 17.8311C3.06183 17.8369 3.01221 17.8369 2.9614 17.8311C3.04079 17.8113 3.04079 17.7915 2.9614 17.7716C2.97132 17.7617 2.98125 17.7518 2.99117 17.7418C2.97061 17.7101 2.95573 17.6753 2.94651 17.6377C2.90682 17.6575 2.86713 17.6773 2.82744 17.6972C2.81256 17.6625 2.78776 17.6377 2.75303 17.6228C2.79271 17.6029 2.83241 17.5831 2.8721 17.5632C2.85721 17.5484 2.84233 17.5335 2.82744 17.5186C2.80252 17.5634 2.76779 17.5783 2.72326 17.5632C2.69936 17.504 2.68448 17.4396 2.67861 17.3697C2.67275 17.509 2.64298 17.5189 2.5893 17.3995C2.56395 17.4314 2.53914 17.4612 2.51489 17.4888C2.42691 16.6922 2.40707 15.8984 2.45535 15.1074Z" fill="#2FA6FC"/>
<path fill-rule="evenodd" clip-rule="evenodd" d="M3.82539 18.2622C3.93386 18.7058 4.04796 19.1524 4.16772 19.6017C4.19308 19.7137 4.23773 19.813 4.30167 19.8994C4.44575 20.3816 4.62435 20.8479 4.83749 21.2984C4.84138 21.3245 4.83147 21.3444 4.80772 21.358C4.77941 21.3334 4.74964 21.3284 4.71842 21.3431C4.74869 21.3743 4.75366 21.4091 4.7333 21.4473C4.71621 21.388 4.68147 21.3433 4.62911 21.3133C4.65992 21.2685 4.65495 21.2238 4.61423 21.1794C4.55734 21.1721 4.49781 21.1721 4.43562 21.1794C4.39511 21.1339 4.36037 21.0843 4.33144 21.0305C4.35368 21.0235 4.37847 21.0136 4.40586 21.0008C4.42571 20.9809 4.42571 20.9611 4.40586 20.9412C4.36421 20.9413 4.31956 20.9512 4.2719 20.971C4.24142 20.9307 4.20174 20.9109 4.15283 20.9115C4.15632 20.8524 4.13646 20.8028 4.0933 20.7626C4.09952 20.7452 4.10946 20.7303 4.12307 20.718C4.06862 20.7099 4.02397 20.685 3.98911 20.6436C3.96253 20.6796 3.93773 20.6796 3.91469 20.6436C3.98161 20.619 3.98655 20.5893 3.92958 20.5543C3.90234 20.5789 3.88252 20.6087 3.87004 20.6436C3.79021 20.5403 3.71082 20.4213 3.6319 20.2863C3.62199 20.2963 3.61205 20.3062 3.60214 20.3161C3.55251 20.2566 3.50292 20.197 3.4533 20.1375C3.3562 20.1774 3.34131 20.1675 3.40865 20.1077C3.38561 20.0717 3.36081 20.0717 3.33423 20.1077C3.31914 20.0632 3.33402 20.0285 3.37888 20.0036C3.364 19.9887 3.34911 19.9738 3.33423 19.9589C3.28839 20.0802 3.24871 20.0901 3.21516 19.9887C3.18858 20.0247 3.16378 20.0247 3.14074 19.9887C3.14696 19.9712 3.1569 19.9563 3.17051 19.944C3.12404 19.9346 3.0893 19.9098 3.06632 19.8696C3.05492 19.8862 3.04004 19.8961 3.02167 19.8994C2.76472 19.1185 2.59603 18.3148 2.51562 17.4882C2.53988 17.4606 2.56469 17.4308 2.59004 17.3989C2.64372 17.5183 2.67349 17.5084 2.67935 17.3691C2.68522 17.4389 2.7001 17.5034 2.724 17.5626C2.76853 17.5777 2.80326 17.5628 2.82818 17.518C2.84307 17.5329 2.85795 17.5477 2.87283 17.5626C2.83315 17.5825 2.79345 17.6023 2.75376 17.6222C2.78849 17.637 2.8133 17.6618 2.82818 17.6966C2.86787 17.6767 2.90756 17.6569 2.94725 17.637C2.95647 17.6747 2.97135 17.7095 2.9919 17.7412C2.98199 17.7511 2.97206 17.7611 2.96214 17.771C3.04153 17.7909 3.04153 17.8107 2.96214 17.8305C3.01295 17.8363 3.06257 17.8363 3.11097 17.8305C3.13613 17.8769 3.1163 17.9067 3.05144 17.9198C3.09758 17.993 3.15711 18.0129 3.23004 17.9794C3.22013 17.9893 3.21019 17.9992 3.20028 18.0091C3.27458 18.0413 3.34405 18.081 3.40865 18.1282C3.35929 18.1498 3.34441 18.1845 3.364 18.2324C3.42731 18.231 3.49182 18.226 3.55749 18.2175C3.51781 18.2473 3.51781 18.277 3.55749 18.3068C3.53763 18.3167 3.51781 18.3267 3.49795 18.3366C3.53644 18.3512 3.57615 18.3561 3.61702 18.3515C3.61872 18.5057 3.63857 18.5057 3.67656 18.3515C3.68647 18.3614 3.69641 18.3713 3.70632 18.3812C3.7229 18.4329 3.73282 18.4825 3.73609 18.5301C3.76014 18.5209 3.78 18.506 3.79562 18.4854C3.75594 18.4306 3.76092 18.4158 3.81051 18.4408C3.82524 18.382 3.83021 18.3225 3.82539 18.2622Z" fill="#2EACFD"/>
<path fill-rule="evenodd" clip-rule="evenodd" d="M29.0382 17.3698C29.0042 17.8417 28.9348 18.308 28.8299 18.7688C28.803 18.7899 28.793 18.8197 28.8001 18.8581C28.7353 18.8607 28.6758 18.8806 28.6215 18.9177C28.5991 18.8916 28.5843 18.8618 28.5768 18.8284C28.5451 18.8489 28.5103 18.8638 28.4727 18.873C28.5109 18.9116 28.5059 18.9464 28.4578 18.9772C28.39 18.9234 28.3851 18.8788 28.4429 18.8433C28.4501 18.7968 28.4352 18.7521 28.3982 18.7093C28.3714 18.7451 28.3367 18.7699 28.2941 18.7837C28.409 18.8007 28.409 18.8255 28.2941 18.8581C28.3097 18.8787 28.3295 18.8936 28.3536 18.9028C28.3147 18.9273 28.27 18.9422 28.2196 18.9474C28.2061 18.9104 28.2209 18.8856 28.2643 18.873C28.2217 18.8592 28.187 18.8344 28.1601 18.7986C28.1502 18.8085 28.1402 18.8185 28.1303 18.8284C28.0759 18.7791 28.0362 18.7195 28.0113 18.6498C27.982 18.7181 27.9572 18.7081 27.9368 18.62C27.946 18.596 27.9609 18.5761 27.9815 18.5605C28.057 18.5681 28.1264 18.588 28.1899 18.62C28.2341 18.5976 28.2391 18.5728 28.2048 18.5456C28.2671 18.529 28.2721 18.5142 28.2196 18.5009C28.1915 18.513 28.1717 18.5328 28.1601 18.5605C28.0972 18.5078 28.1021 18.4631 28.175 18.4265C28.1171 18.4356 28.0576 18.4356 27.9964 18.4265C28.0261 18.4166 28.0559 18.4067 28.0857 18.3967C28.0534 18.3321 28.0137 18.2726 27.9666 18.2181C27.9815 18.2033 27.9964 18.1884 28.0113 18.1735C28.0423 18.2069 28.0622 18.2466 28.0708 18.2926C28.0907 18.233 28.0907 18.1735 28.0708 18.114C28.0185 18.1249 27.9738 18.1001 27.9368 18.0395C27.9468 18.0296 27.9567 18.0197 27.9666 18.0098C27.8613 17.9089 27.8216 17.7849 27.8475 17.6377C27.8631 17.4486 27.8829 17.2601 27.9071 17.0721C27.9652 17.0488 28.0098 17.0091 28.041 16.953C28.0559 16.9679 28.0708 16.9828 28.0857 16.9977C28.0408 17.0475 28.0209 17.0971 28.0261 17.1465C28.073 17.1352 28.1177 17.1402 28.1601 17.1614C28.1775 17.1167 28.2023 17.077 28.2345 17.0423C28.252 17.0486 28.2668 17.0585 28.2792 17.0721C28.2699 17.0294 28.2749 16.9897 28.2941 16.953C28.309 16.9226 28.3288 16.9177 28.3536 16.9381C28.3536 16.9679 28.3536 16.9977 28.3536 17.0274C28.4368 17.0697 28.4964 17.1342 28.5322 17.2209C28.4985 17.2538 28.4737 17.2439 28.4578 17.1912C28.3635 17.2259 28.3586 17.2706 28.4429 17.3251C28.4146 17.3465 28.4096 17.3713 28.428 17.3995C28.481 17.3704 28.5306 17.3803 28.5768 17.4293C28.6223 17.2767 28.652 17.2767 28.6661 17.4293C28.7473 17.4071 28.7473 17.4369 28.6661 17.5186C28.6084 17.5542 28.5538 17.5542 28.5024 17.5186C28.5364 17.5461 28.5364 17.571 28.5024 17.593C28.6129 17.673 28.6873 17.6482 28.7257 17.5186C28.77 17.5731 28.8246 17.5979 28.8894 17.593C28.8654 17.5309 28.8356 17.4713 28.8001 17.4144C28.815 17.3995 28.8299 17.3847 28.8448 17.3698C28.9091 17.4075 28.9736 17.4075 29.0382 17.3698Z" fill="#2D47EC"/>
<path fill-rule="evenodd" clip-rule="evenodd" d="M8.67757 19.751C8.69505 19.9065 8.77441 20.0206 8.91571 20.0933C9.13807 20.1255 9.36133 20.1503 9.58548 20.1677C10.6965 20.1213 11.8079 20.0816 12.9194 20.0487C13.2923 20.072 13.6644 20.1018 14.0357 20.138C13.99 20.5451 13.9107 20.942 13.7976 21.3287C13.7976 21.2989 13.7976 21.2691 13.7976 21.2393C13.3906 21.2344 12.9838 21.2393 12.5771 21.2542C12.773 21.8789 13.0211 22.4792 13.3213 23.0552C13.3066 23.1735 13.2769 23.2876 13.232 23.3975C13.2634 23.4388 13.2683 23.4835 13.2469 23.5314C13.0872 24.0924 12.9235 24.6481 12.7557 25.1984C12.2325 24.3004 11.8306 23.3478 11.5501 22.3407C11.4365 21.9658 11.3324 21.5887 11.2376 21.2096C9.41176 21.2153 7.586 21.2054 5.76036 21.1798C5.44283 21.1848 5.12533 21.1897 4.8078 21.1947C4.83272 21.2248 4.84263 21.2595 4.83757 21.2989C4.62444 20.8484 4.44583 20.382 4.30176 19.8998C4.3738 19.8278 4.4631 19.793 4.56966 19.7956C5.94397 19.7907 7.31327 19.7758 8.67757 19.751Z" fill="#BFC1D5"/>
<path fill-rule="evenodd" clip-rule="evenodd" d="M21.8047 19.8994C23.6403 19.9104 25.476 19.9203 27.3117 19.9292C27.1932 20.2876 27.0692 20.6448 26.9396 21.0008C26.8692 21.1348 26.7948 21.2638 26.7163 21.3878C25.2876 21.3358 23.8488 21.3061 22.4 21.2985C22.4 21.3283 22.4 21.358 22.4 21.3878C22.1962 20.8957 21.9978 20.3995 21.8047 19.8994Z" fill="#C0C1D5"/>
<path fill-rule="evenodd" clip-rule="evenodd" d="M4.8373 21.299C5.91792 23.4367 7.47574 25.1483 9.51079 26.4338C9.91917 26.6331 10.326 26.8415 10.7313 27.059C10.9861 27.1498 11.2341 27.254 11.4754 27.3715C11.4226 27.4052 11.373 27.4399 11.3266 27.4757C11.3662 27.5243 11.386 27.569 11.3861 27.6097C11.4228 27.5754 11.4228 27.5407 11.3861 27.5055C11.4159 27.4856 11.4457 27.4856 11.4754 27.5055C11.4471 27.5268 11.4422 27.5516 11.4606 27.5799C11.5517 27.5314 11.6013 27.5611 11.6094 27.6692C11.6392 27.6593 11.6689 27.6493 11.6987 27.6394C11.7474 27.6993 11.7722 27.7588 11.7731 27.818C11.7544 27.8704 11.7247 27.915 11.6838 27.952C11.7686 27.9613 11.8529 27.996 11.9368 28.0562C11.9492 28.0426 11.964 28.0326 11.9815 28.0264C12.0139 28.0629 12.0536 28.0877 12.1006 28.1008C12.0765 28.11 12.0566 28.1249 12.041 28.1455C12.0728 28.1496 12.1076 28.1496 12.1452 28.1455C12.1975 28.1729 12.2024 28.2076 12.1601 28.2497C12.2082 28.2821 12.228 28.3168 12.2196 28.3538C12.276 28.3211 12.2959 28.2814 12.2792 28.2348C12.3218 28.286 12.3466 28.3455 12.3536 28.4134C12.3635 28.4035 12.3734 28.3935 12.3833 28.3836C12.4063 28.4238 12.4411 28.4486 12.4875 28.458C12.4991 28.5034 12.4991 28.553 12.4875 28.6069C12.5312 28.6258 12.5709 28.6506 12.6066 28.6813C12.6989 28.6398 12.7287 28.6646 12.6959 28.7557C12.7505 28.7833 12.7604 28.818 12.7257 28.8599C12.8196 28.9363 12.9188 28.9958 13.0233 29.0385C11.1295 28.6342 9.40297 27.8652 7.84381 26.7315C5.52013 24.9587 3.91269 22.6815 3.02148 19.8999C3.03985 19.8966 3.05473 19.8867 3.06614 19.8701C3.08912 19.9103 3.12385 19.9351 3.17032 19.9445C3.15672 19.9569 3.14678 19.9717 3.14055 19.9892C3.16359 20.0252 3.18839 20.0252 3.21497 19.9892C3.24852 20.0906 3.2882 20.0807 3.33404 19.9594C3.34893 19.9743 3.36381 19.9892 3.37869 20.0041C3.33383 20.029 3.31895 20.0637 3.33404 20.1083C3.36062 20.0722 3.38542 20.0722 3.40846 20.1083C3.34113 20.168 3.35601 20.1779 3.45311 20.138C3.50273 20.1976 3.55233 20.2571 3.60195 20.3166C3.61186 20.3067 3.6218 20.2968 3.63172 20.2869C3.71063 20.4218 3.79002 20.5408 3.86986 20.6441C3.88233 20.6092 3.90215 20.5794 3.92939 20.5548C3.98637 20.5898 3.98142 20.6195 3.91451 20.6441C3.93755 20.6801 3.96234 20.6801 3.98893 20.6441C4.02378 20.6855 4.06844 20.7104 4.12288 20.7185C4.10928 20.7308 4.09933 20.7457 4.09311 20.7631C4.13628 20.8033 4.15613 20.8529 4.15265 20.912C4.20156 20.9114 4.24124 20.9312 4.27172 20.9715C4.31937 20.9517 4.36403 20.9418 4.40567 20.9417C4.42553 20.9616 4.42553 20.9814 4.40567 21.0013C4.37828 21.0141 4.35349 21.024 4.33125 21.031C4.36019 21.0848 4.39492 21.1344 4.43544 21.1799C4.49762 21.1726 4.55716 21.1726 4.61404 21.1799C4.65476 21.2243 4.65974 21.269 4.62893 21.3138C4.68129 21.3438 4.71603 21.3885 4.73311 21.4478C4.75347 21.4096 4.7485 21.3748 4.71823 21.3436C4.74945 21.329 4.77922 21.3339 4.80753 21.3585C4.83129 21.3449 4.8412 21.325 4.8373 21.299Z" fill="#2FB2FE"/>
<path fill-rule="evenodd" clip-rule="evenodd" d="M27.8478 17.6377C27.8219 17.785 27.8616 17.909 27.9669 18.0098C27.957 18.0197 27.9471 18.0296 27.9371 18.0396C27.9741 18.1001 28.0188 18.1249 28.0711 18.114C28.091 18.1735 28.091 18.233 28.0711 18.2926C28.0625 18.2466 28.0426 18.2069 28.0116 18.1735C27.9967 18.1884 27.9818 18.2033 27.9669 18.2182C28.014 18.2726 28.0537 18.3321 28.086 18.3968C28.0562 18.4067 28.0264 18.4166 27.9967 18.4265C28.0579 18.4356 28.1174 18.4356 28.1753 18.4265C28.1024 18.4631 28.0975 18.5078 28.1604 18.5605C28.172 18.5329 28.1918 18.513 28.2199 18.501C28.2724 18.5142 28.2674 18.5291 28.2051 18.5456C28.2394 18.5728 28.2344 18.5976 28.1902 18.62C28.1267 18.588 28.0573 18.5681 27.9818 18.5605C27.9612 18.5761 27.9463 18.596 27.9371 18.62C27.9575 18.7082 27.9823 18.7181 28.0116 18.6498C28.0365 18.7196 28.0762 18.7791 28.1306 18.8284C28.1405 18.8185 28.1505 18.8085 28.1604 18.7986C28.1873 18.8344 28.222 18.8592 28.2646 18.873C28.2212 18.8856 28.2064 18.9104 28.2199 18.9475C28.2703 18.9422 28.315 18.9273 28.3539 18.9028C28.3298 18.8936 28.31 18.8788 28.2944 18.8582C28.4093 18.8255 28.4093 18.8007 28.2944 18.7837C28.337 18.7699 28.3717 18.7451 28.3985 18.7093C28.4355 18.7521 28.4504 18.7968 28.4432 18.8433C28.3854 18.8788 28.3903 18.9234 28.4581 18.9772C28.5062 18.9464 28.5112 18.9117 28.473 18.873C28.5106 18.8638 28.5454 18.849 28.5771 18.8284C28.5846 18.8619 28.5994 18.8916 28.6218 18.9177C28.6761 18.8806 28.7356 18.8607 28.8004 18.8582C28.7933 18.8197 28.8033 18.79 28.8302 18.7689C28.6837 19.5291 28.4555 20.2634 28.1455 20.9716C28.1064 21.0007 28.0667 21.0305 28.0264 21.061C28.009 21.0547 27.9941 21.0448 27.9818 21.0312C27.9093 21.0888 27.9043 21.1434 27.9669 21.1949C27.9506 21.2224 27.9308 21.2472 27.9074 21.2693C27.8856 21.2266 27.8559 21.1919 27.8181 21.1651C27.8421 21.156 27.862 21.1411 27.8776 21.1205C27.8374 21.0753 27.7927 21.0356 27.7437 21.0014C27.7437 21.0411 27.7437 21.0808 27.7437 21.1205C27.7095 21.092 27.6797 21.1019 27.6544 21.1503C27.6544 21.1106 27.6544 21.0709 27.6544 21.0312C27.6243 21.0561 27.5895 21.066 27.5502 21.061C27.5453 21.0006 27.5503 20.9411 27.5651 20.8823C27.6255 20.9539 27.6702 20.9391 27.699 20.8377C27.6271 20.7846 27.5875 20.7201 27.5799 20.6442C27.5428 20.6281 27.508 20.6083 27.4758 20.5847C27.4578 20.6497 27.4231 20.6547 27.3716 20.5996C27.4424 20.5706 27.4324 20.5507 27.3418 20.54C27.3896 20.4995 27.4342 20.4549 27.4758 20.4061C27.503 20.4404 27.5278 20.4354 27.5502 20.3912C27.5039 20.3122 27.4692 20.2278 27.446 20.1382C27.4142 20.1176 27.3795 20.1027 27.3418 20.0935C27.3747 20.0304 27.3747 19.9659 27.3418 19.9C27.4308 19.4992 27.535 19.1023 27.6544 18.7093C27.7266 18.3494 27.7911 17.9922 27.8478 17.6377Z" fill="#2D50ED"/>
<path fill-rule="evenodd" clip-rule="evenodd" d="M12.7555 25.1983C12.7195 25.3761 12.6847 25.5547 12.6513 25.7341C12.5618 25.9334 12.5023 26.1417 12.4727 26.3592C12.3471 26.7419 12.233 27.1289 12.1304 27.5202C12.0738 27.5502 12.0143 27.5552 11.9518 27.535C11.7956 27.4717 11.6368 27.4172 11.4755 27.3713C11.2342 27.2538 10.9861 27.1496 10.7313 27.0588C10.3261 26.8413 9.91925 26.6329 9.51087 26.4336C7.47582 25.1481 5.918 23.4365 4.83738 21.2988C4.84245 21.2594 4.83253 21.2247 4.80762 21.1946C5.12515 21.1896 5.44265 21.1847 5.76018 21.1797C7.58581 21.2053 9.41157 21.2152 11.2374 21.2095C11.3322 21.5886 11.4364 21.9656 11.5499 22.3406C11.8304 23.3477 12.2323 24.3003 12.7555 25.1983Z" fill="#FEFEFE"/>
<path fill-rule="evenodd" clip-rule="evenodd" d="M27.3413 19.8994C27.3742 19.9653 27.3742 20.0298 27.3413 20.0929C27.379 20.1021 27.4137 20.117 27.4455 20.1376C27.4687 20.2272 27.5034 20.3115 27.5496 20.3906C27.5272 20.4348 27.5024 20.4398 27.4752 20.4055C27.4337 20.4543 27.389 20.4989 27.3413 20.5394C27.4319 20.5501 27.4418 20.57 27.371 20.5989C27.4225 20.6541 27.4572 20.6491 27.4752 20.5841C27.5075 20.6077 27.5423 20.6275 27.5794 20.6436C27.5869 20.7194 27.6266 20.784 27.6985 20.8371C27.6697 20.9384 27.625 20.9533 27.5645 20.8817C27.5498 20.9405 27.5448 21 27.5496 21.0603C27.589 21.0654 27.6237 21.0555 27.6538 21.0306C27.6538 21.0703 27.6538 21.11 27.6538 21.1496C27.6792 21.1013 27.709 21.0914 27.7431 21.1199C27.7431 21.0802 27.7431 21.0405 27.7431 21.0008C27.7922 21.035 27.8369 21.0747 27.8771 21.1199C27.8615 21.1405 27.8416 21.1554 27.8175 21.1645C27.8553 21.1913 27.8851 21.226 27.9068 21.2687C27.9303 21.2466 27.9501 21.2218 27.9664 21.1943C27.9038 21.1428 27.9088 21.0882 27.9813 21.0306C27.9936 21.0442 28.0085 21.0541 28.0259 21.0603C28.0662 21.0299 28.1058 21.0001 28.145 20.971C28.0877 21.1653 28.0132 21.3538 27.9217 21.5366C27.7249 21.9206 27.5215 22.2976 27.3115 22.6678C27.2356 22.6649 27.1562 22.6699 27.0734 22.6827C27.0833 22.6728 27.0932 22.6628 27.1031 22.6529C27.0671 22.598 27.0274 22.5732 26.9841 22.5785C27.0039 22.5586 27.0237 22.5388 27.0436 22.5189C27.0209 22.5067 26.9911 22.5018 26.9543 22.5041C26.9903 22.4775 26.9903 22.4527 26.9543 22.4296C26.9152 22.4538 26.8804 22.4836 26.8501 22.5189C26.7958 22.4818 26.8008 22.4471 26.865 22.4148C26.8396 22.3843 26.8098 22.3595 26.7757 22.3403C26.7552 22.2856 26.7453 22.236 26.7459 22.1915C26.7236 22.2176 26.7087 22.2474 26.7013 22.2808C26.6814 22.2411 26.6616 22.2014 26.6417 22.1617C26.5788 22.2145 26.5838 22.2591 26.6566 22.2957C26.6189 22.3049 26.5842 22.3198 26.5524 22.3403C26.5104 22.1856 26.4757 22.0367 26.4482 21.8938C26.5451 21.7299 26.6344 21.5612 26.7161 21.3878C26.7946 21.2638 26.869 21.1348 26.9394 21.0008C27.069 20.6448 27.1931 20.2876 27.3115 19.9292C27.3115 19.9093 27.3214 19.8994 27.3413 19.8994Z" fill="#2D5AEF"/>
<path fill-rule="evenodd" clip-rule="evenodd" d="M13.7976 21.3285C13.639 21.9034 13.4802 22.4789 13.3213 23.055C13.0211 22.479 12.7731 21.8787 12.5771 21.2541C12.9839 21.2392 13.3907 21.2342 13.7976 21.2392C13.7976 21.2689 13.7976 21.2987 13.7976 21.3285Z" fill="#FDFDFE"/>
<path fill-rule="evenodd" clip-rule="evenodd" d="M26.7165 21.3881C26.6348 21.5615 26.5455 21.7302 26.4486 21.8942C26.2605 22.1908 26.072 22.4885 25.883 22.7872C25.6772 23.0925 25.4589 23.3902 25.2281 23.6802C25.0297 23.9085 24.8313 24.1366 24.6328 24.3649C24.3947 24.5832 24.1664 24.8114 23.9481 25.0495C23.6636 25.2465 23.3957 25.4648 23.1444 25.7044C22.9259 25.8533 22.7076 26.0022 22.4895 26.1509C22.4402 25.8794 22.4104 25.6016 22.4002 25.3174C22.3638 25.0308 22.3291 24.743 22.2961 24.4542C22.1484 23.7248 21.9599 23.0104 21.7305 22.3109C21.9863 22.5406 22.2393 22.7738 22.4895 23.0105C22.5458 23.0436 22.6053 23.0684 22.6681 23.0849C22.852 23.0047 22.9165 22.8658 22.8616 22.6681C22.7397 22.2277 22.5859 21.801 22.4002 21.3881C22.4002 21.3584 22.4002 21.3286 22.4002 21.2988C23.849 21.3064 25.2878 21.3362 26.7165 21.3881Z" fill="#FEFEFE"/>
<path fill-rule="evenodd" clip-rule="evenodd" d="M26.4484 21.8936C26.4758 22.0365 26.5106 22.1853 26.5526 22.3401C26.5843 22.3195 26.6191 22.3046 26.6568 22.2954C26.5839 22.2588 26.579 22.2142 26.6419 22.1615C26.6617 22.2011 26.6816 22.2409 26.7014 22.2805C26.7088 22.2471 26.7237 22.2173 26.7461 22.1912C26.7454 22.2357 26.7553 22.2854 26.7758 22.3401C26.8099 22.3593 26.8397 22.3841 26.8651 22.4145C26.8009 22.4468 26.796 22.4815 26.8503 22.5187C26.8806 22.4833 26.9153 22.4536 26.9544 22.4294C26.9905 22.4524 26.9905 22.4772 26.9544 22.5038C26.9913 22.5015 27.0211 22.5064 27.0437 22.5187C27.0239 22.5385 27.0041 22.5584 26.9842 22.5782C27.0275 22.5729 27.0672 22.5977 27.1033 22.6526C27.0934 22.6625 27.0834 22.6725 27.0735 22.6824C27.1564 22.6696 27.2357 22.6647 27.3116 22.6675C27.1235 22.9939 26.9251 23.3114 26.7163 23.6201C26.6778 23.5965 26.643 23.5668 26.6121 23.5308C26.5499 23.5692 26.5102 23.5493 26.493 23.4712C26.4831 23.4911 26.4732 23.5109 26.4633 23.5308C26.4484 23.496 26.4236 23.4712 26.3889 23.4563C26.4382 23.4348 26.4531 23.4 26.4335 23.3522C26.3789 23.3174 26.3244 23.2827 26.2698 23.248C26.3355 23.2195 26.3306 23.1847 26.2549 23.1438C26.2351 23.1636 26.2152 23.1835 26.1954 23.2033C26.1088 23.1268 26.0344 23.0425 25.9721 22.9503C26.0155 22.9377 26.0303 22.9129 26.0168 22.8759C26.0069 22.8858 25.9969 22.8957 25.987 22.9056C25.9386 22.8749 25.9039 22.8352 25.8828 22.7866C26.0717 22.4878 26.2603 22.1902 26.4484 21.8936Z" fill="#2E61F0"/>
<path fill-rule="evenodd" clip-rule="evenodd" d="M25.8829 22.7871C25.9039 22.8357 25.9386 22.8755 25.9871 22.9062C25.997 22.8963 26.0069 22.8863 26.0168 22.8764C26.0304 22.9134 26.0155 22.9382 25.9722 22.9508C26.0345 23.043 26.1089 23.1274 26.1955 23.2039C26.2153 23.184 26.2351 23.1642 26.255 23.1443C26.3307 23.1853 26.3356 23.22 26.2699 23.2485C26.3244 23.2832 26.379 23.318 26.4336 23.3527C26.4532 23.4006 26.4383 23.4353 26.3889 23.4569C26.4237 23.4718 26.4485 23.4966 26.4634 23.5313C26.4733 23.5114 26.4832 23.4916 26.4931 23.4718C26.5103 23.5499 26.55 23.5697 26.6122 23.5313C26.6431 23.5673 26.6779 23.5971 26.7164 23.6206C26.5121 23.9104 26.2938 24.1882 26.0615 24.4541C25.9382 24.4917 25.8489 24.447 25.7936 24.3201C25.8688 24.3002 25.8688 24.2754 25.7936 24.2457C25.7761 24.2519 25.7613 24.2619 25.7489 24.2755C25.7354 24.2385 25.7502 24.2137 25.7936 24.2011C25.7647 24.1487 25.73 24.1338 25.6894 24.1564C25.664 24.108 25.6342 24.0981 25.6001 24.1266C25.546 24.102 25.4915 24.0771 25.4364 24.0522C25.4463 24.0423 25.4562 24.0324 25.4661 24.0225C25.3791 24.0163 25.3246 23.9716 25.3024 23.8885C25.2925 23.8984 25.2826 23.9084 25.2727 23.9183C25.2538 23.8746 25.2289 23.8349 25.1982 23.7992C25.2204 23.7624 25.2304 23.7227 25.228 23.6801C25.4587 23.3901 25.6771 23.0924 25.8829 22.7871Z" fill="#2D68F1"/>
<path fill-rule="evenodd" clip-rule="evenodd" d="M25.2284 23.6797C25.2307 23.7223 25.2208 23.762 25.1986 23.7988C25.2293 23.8345 25.2541 23.8742 25.273 23.9178C25.2829 23.9079 25.2929 23.898 25.3028 23.8881C25.3249 23.9712 25.3795 24.0159 25.4665 24.022C25.4566 24.0319 25.4467 24.0419 25.4367 24.0518C25.4918 24.0767 25.5464 24.1015 25.6005 24.1262C25.6346 24.0977 25.6644 24.1076 25.6898 24.156C25.7304 24.1334 25.7651 24.1483 25.7939 24.2006C25.7506 24.2132 25.7357 24.238 25.7493 24.275C25.7616 24.2614 25.7765 24.2515 25.7939 24.2453C25.8692 24.275 25.8692 24.2998 25.7939 24.3197C25.8492 24.4466 25.9385 24.4912 26.0619 24.4536C25.8642 24.7207 25.6459 24.9687 25.407 25.1978C25.3698 25.1955 25.345 25.1757 25.3326 25.1383C25.308 25.195 25.2732 25.2049 25.2284 25.1681C25.2119 25.1233 25.2119 25.0737 25.2284 25.0192C25.1986 25.0192 25.1688 25.0192 25.1391 25.0192C25.1434 24.9465 25.1186 24.9267 25.0646 24.9597C25.0148 24.9271 24.98 24.8824 24.9605 24.8257C24.8392 24.7684 24.7549 24.6741 24.7074 24.5429C24.6909 24.6053 24.676 24.6103 24.6628 24.5578C24.6748 24.5297 24.6947 24.5098 24.7223 24.4983C24.652 24.4808 24.6222 24.4361 24.633 24.3643C24.8315 24.1361 25.0299 23.9079 25.2284 23.6797Z" fill="#2D6EF2"/>
<path fill-rule="evenodd" clip-rule="evenodd" d="M24.6329 24.3643C24.6221 24.436 24.6518 24.4807 24.7222 24.4982C24.6945 24.5098 24.6747 24.5296 24.6626 24.5577C24.6758 24.6102 24.6907 24.6052 24.7073 24.5429C24.7547 24.674 24.8391 24.7683 24.9603 24.8257C24.9799 24.8824 25.0146 24.927 25.0645 24.9596C25.1185 24.9266 25.1433 24.9464 25.1389 25.0191C25.1687 25.0191 25.1984 25.0191 25.2282 25.0191C25.2118 25.0736 25.2118 25.1232 25.2282 25.168C25.2731 25.2049 25.3078 25.1949 25.3324 25.1382C25.3448 25.1756 25.3696 25.1955 25.4068 25.1977C25.2896 25.3299 25.1656 25.4588 25.0347 25.5847C25.0203 25.6129 25.0154 25.6427 25.0198 25.674C24.9169 25.6972 24.8276 25.7469 24.7519 25.8229C24.6843 25.7876 24.6148 25.7579 24.5436 25.7336C24.5461 25.6413 24.5313 25.6314 24.4989 25.7038C24.4689 25.6514 24.4242 25.6167 24.365 25.5996C24.3749 25.5897 24.3848 25.5798 24.3947 25.5698C24.3383 25.5371 24.3185 25.4974 24.3352 25.4508C24.2844 25.445 24.2347 25.445 24.1863 25.4508C24.1863 25.421 24.1863 25.3912 24.1863 25.3615C24.0678 25.3512 23.9685 25.2916 23.8887 25.1829C23.9169 25.1645 23.9417 25.1694 23.9631 25.1977C23.9837 25.1821 23.9986 25.1623 24.0077 25.1382C23.9771 25.1443 23.9473 25.1294 23.9184 25.0936C23.935 25.0822 23.9449 25.0673 23.9482 25.0489C24.1665 24.8108 24.3947 24.5825 24.6329 24.3643Z" fill="#2D74F3"/>
<path fill-rule="evenodd" clip-rule="evenodd" d="M23.9483 25.0488C23.9449 25.0672 23.935 25.0821 23.9185 25.0935C23.9474 25.1293 23.9772 25.1442 24.0078 25.1381C23.9986 25.1622 23.9837 25.182 23.9631 25.1977C23.9418 25.1694 23.917 25.1644 23.8887 25.1828C23.9686 25.2916 24.0678 25.3511 24.1864 25.3614C24.1864 25.3912 24.1864 25.4209 24.1864 25.4507C24.2348 25.4449 24.2844 25.4449 24.3352 25.4507C24.3185 25.4973 24.3384 25.537 24.3948 25.5698C24.3849 25.5797 24.3749 25.5896 24.365 25.5995C24.4243 25.6166 24.4689 25.6514 24.4989 25.7037C24.5313 25.6313 24.5462 25.6413 24.5436 25.7335C24.6149 25.7578 24.6844 25.7875 24.752 25.8228C24.7202 25.8994 24.6706 25.9639 24.6031 26.0163C24.3801 26.175 24.1618 26.3387 23.9483 26.5074C23.8459 26.4421 23.7666 26.3578 23.7101 26.2544C23.72 26.2445 23.73 26.2346 23.7399 26.2246C23.6953 26.2096 23.6606 26.2244 23.6357 26.2693C23.6173 26.241 23.6223 26.2162 23.6506 26.1949C23.5867 26.1283 23.5172 26.0688 23.4422 26.0163C23.4521 26.0064 23.4621 25.9964 23.472 25.9865C23.3788 25.9449 23.2895 25.8953 23.2041 25.8377C23.2474 25.8251 23.2623 25.8003 23.2487 25.7632C23.2186 25.7882 23.1839 25.7981 23.1445 25.793C23.1445 25.7632 23.1445 25.7335 23.1445 25.7037C23.3958 25.4641 23.6637 25.2458 23.9483 25.0488Z" fill="#2E7AF4"/>
<path fill-rule="evenodd" clip-rule="evenodd" d="M22.4004 25.3174C22.4106 25.6015 22.4404 25.8793 22.4897 26.1509C22.4686 26.1778 22.4388 26.1877 22.4004 26.1806C22.4004 25.8929 22.4004 25.6051 22.4004 25.3174Z" fill="#B4C6FE"/>
<path fill-rule="evenodd" clip-rule="evenodd" d="M22.3702 26.2105C22.3106 26.2602 22.2511 26.3098 22.1916 26.3594C22.0933 26.4073 21.9941 26.4569 21.8939 26.5082C21.8736 26.4861 21.8537 26.4663 21.8343 26.4487C21.7865 26.1612 21.7171 25.8784 21.626 25.6003C21.6359 25.5854 21.6458 25.5705 21.6557 25.5557C21.871 25.8017 22.1092 26.0199 22.3702 26.2105Z" fill="#F9FBFE"/>
<path fill-rule="evenodd" clip-rule="evenodd" d="M23.144 25.7041C23.144 25.7339 23.144 25.7636 23.144 25.7934C23.1833 25.7985 23.2181 25.7886 23.2482 25.7636C23.2617 25.8007 23.2468 25.8255 23.2035 25.8381C23.289 25.8957 23.3783 25.9452 23.4714 25.9869C23.4615 25.9968 23.4516 26.0067 23.4416 26.0167C23.5167 26.0691 23.5861 26.1287 23.65 26.1953C23.6217 26.2166 23.6168 26.2414 23.6351 26.2697C23.66 26.2248 23.6948 26.2099 23.7393 26.225C23.7294 26.2349 23.7195 26.2449 23.7095 26.2548C23.766 26.3582 23.8454 26.4425 23.9477 26.5078C23.8561 26.5987 23.7569 26.683 23.65 26.7608C23.4364 26.8907 23.2281 27.0247 23.0249 27.1627C22.987 27.1422 22.987 27.1174 23.0249 27.0883C22.9604 27.0635 22.9157 27.0188 22.8909 26.9543C22.8499 27.0305 22.8052 27.0305 22.757 26.9543C22.7332 26.9074 22.7183 26.8578 22.7123 26.8055C22.6925 26.9642 22.6727 26.9642 22.6528 26.8055C22.6032 26.8305 22.5982 26.8156 22.6379 26.7608C22.4997 26.7547 22.4005 26.6803 22.3402 26.5376C22.3696 26.4225 22.3547 26.4225 22.2956 26.5376C22.2807 26.483 22.246 26.4483 22.1914 26.4334C22.2241 26.4105 22.2241 26.3857 22.1914 26.359C22.2509 26.3094 22.3105 26.2598 22.37 26.2101C22.3899 26.2101 22.3998 26.2002 22.3998 26.1804C22.4382 26.1874 22.468 26.1775 22.4891 26.1506C22.7071 26.0019 22.9254 25.853 23.144 25.7041Z" fill="#2D80F5"/>
<path fill-rule="evenodd" clip-rule="evenodd" d="M22.1917 26.3594C22.2244 26.3861 22.2244 26.4109 22.1917 26.4338C22.2462 26.4487 22.281 26.4834 22.2959 26.538C22.355 26.4229 22.3699 26.4229 22.3405 26.538C22.4008 26.6807 22.5 26.7551 22.6382 26.7612C22.5985 26.816 22.6035 26.8309 22.6531 26.8059C22.6729 26.9646 22.6928 26.9646 22.7126 26.8059C22.7186 26.8582 22.7335 26.9078 22.7573 26.9547C22.8055 27.0309 22.8501 27.0309 22.8912 26.9547C22.916 27.0192 22.9607 27.0639 23.0252 27.0887C22.9872 27.1178 22.9872 27.1426 23.0252 27.1631C22.5112 27.5243 21.9655 27.8319 21.388 28.0859C21.2933 28.0787 21.204 28.0787 21.1201 28.0859C21.1037 27.9971 21.0542 27.9177 20.9712 27.8477C20.9481 27.9065 20.9084 27.9314 20.8521 27.9222C20.872 27.9023 20.8918 27.8825 20.9117 27.8626C20.8691 27.8488 20.8344 27.824 20.8075 27.7882C20.7861 27.8165 20.7613 27.8215 20.7331 27.8031C20.738 27.7698 20.7479 27.7351 20.7628 27.6989C20.7504 27.664 20.7305 27.6343 20.7033 27.6096C20.6619 27.6437 20.6222 27.6437 20.5842 27.6096C20.6041 27.5997 20.6239 27.5898 20.6438 27.5798C20.614 27.555 20.5842 27.5302 20.5545 27.5054C20.5644 27.4955 20.5743 27.4856 20.5842 27.4757C20.4867 27.4342 20.4073 27.3896 20.3461 27.3417C20.3014 27.3581 20.2518 27.3581 20.1973 27.3417C20.7458 27.1171 21.2816 26.8591 21.8047 26.5677C21.8324 26.5324 21.8423 26.4927 21.8345 26.4487C21.8539 26.4663 21.8737 26.4861 21.894 26.5082C21.9942 26.4569 22.0935 26.4072 22.1917 26.3594Z" fill="#2C8AF7"/>
<path fill-rule="evenodd" clip-rule="evenodd" d="M20.1973 27.3418C20.2518 27.3582 20.3014 27.3582 20.3462 27.3418C20.4073 27.3897 20.4867 27.4343 20.5843 27.4758C20.5744 27.4857 20.5644 27.4956 20.5545 27.5055C20.5843 27.5303 20.6141 27.5551 20.6438 27.5799C20.624 27.5898 20.6042 27.5998 20.5843 27.6097C20.6223 27.6438 20.662 27.6438 20.7034 27.6097C20.7306 27.6344 20.7504 27.6641 20.7629 27.699C20.748 27.7352 20.738 27.7699 20.7331 27.8032C20.7614 27.8216 20.7862 27.8166 20.8076 27.7883C20.8344 27.8241 20.8691 27.8489 20.9117 27.8627C20.8919 27.8826 20.8721 27.9024 20.8522 27.9223C20.9085 27.9315 20.9482 27.9066 20.9713 27.8478C21.0542 27.9178 21.1038 27.9972 21.1201 28.086C21.204 28.0788 21.2933 28.0788 21.388 28.086C21.0078 28.252 20.6208 28.4108 20.2271 28.5623C20.1477 28.5424 20.0683 28.5226 19.9889 28.5027C19.9889 28.5325 19.9889 28.5623 19.9889 28.592C19.819 28.5923 19.8091 28.5774 19.9592 28.5474C19.9195 28.5375 19.8798 28.5275 19.8401 28.5176C19.8704 28.5022 19.8902 28.4773 19.8996 28.4432C19.8878 28.3927 19.8729 28.3431 19.855 28.2944C19.8217 28.2993 19.787 28.3092 19.7508 28.3241C19.7409 28.3092 19.731 28.2944 19.721 28.2795C19.7327 28.2494 19.7526 28.2345 19.7806 28.2348C19.6652 28.2055 19.6652 28.1707 19.7806 28.1306C19.7329 28.0495 19.6634 27.995 19.5722 27.9669C19.6047 27.9339 19.6047 27.9041 19.5722 27.8776C19.5339 27.9364 19.4842 27.9364 19.4234 27.8776C19.3943 27.8918 19.3695 27.9116 19.3489 27.9371C19.3023 27.8457 19.2477 27.8358 19.1852 27.9074C19.1475 27.8798 19.1078 27.8748 19.0662 27.8925C19.1196 27.9363 19.1692 27.9611 19.215 27.9669C19.1814 27.9896 19.1467 28.0095 19.1108 28.0264C19.081 27.9967 19.0513 27.9669 19.0215 27.9371C19.0116 27.957 19.0017 27.9768 18.9917 27.9967C18.9489 27.955 18.9241 27.9054 18.9173 27.8478C18.8286 27.8341 18.7393 27.8241 18.6494 27.8181C19.1675 27.6788 19.6834 27.5201 20.1973 27.3418Z" fill="#2B92F8"/>
<path fill-rule="evenodd" clip-rule="evenodd" d="M11.475 27.3711C11.6363 27.4169 11.795 27.4715 11.9513 27.5348C12.0137 27.555 12.0733 27.55 12.1299 27.5199C12.1299 27.5497 12.1299 27.5795 12.1299 27.6092C12.6926 27.7425 13.2582 27.8615 13.8266 27.9664C13.944 27.9847 14.0383 28.0442 14.1094 28.145C14.1278 28.1168 14.1229 28.092 14.0945 28.0706C14.1342 28.0508 14.1739 28.0508 14.2136 28.0706C14.2897 28.1567 14.3542 28.251 14.4071 28.3534C14.4369 28.3336 14.4666 28.3137 14.4964 28.2939C14.51 28.3309 14.4951 28.3557 14.4518 28.3683C14.5183 28.3856 14.5878 28.4203 14.6601 28.4725C14.634 28.4948 14.6043 28.5097 14.5708 28.5171C14.6083 28.5503 14.6431 28.5552 14.675 28.532C14.6849 28.5816 14.6949 28.6312 14.7048 28.6809C14.7147 28.6511 14.7246 28.6213 14.7345 28.5916C14.7652 28.6867 14.8297 28.7462 14.928 28.7702C14.9218 28.7876 14.9119 28.8025 14.8983 28.8148C14.9117 28.8628 14.9514 28.8926 15.0173 28.9041C15.0006 28.9507 15.0205 28.9904 15.0769 29.0232C15.067 29.0331 15.057 29.043 15.0471 29.053C15.1525 29.0708 15.2319 29.1254 15.2852 29.2167C15.3162 29.1425 15.341 29.1425 15.3597 29.2167C15.3696 29.1968 15.3795 29.177 15.3894 29.1571C15.4025 29.2041 15.4273 29.2438 15.4638 29.2762C15.6172 29.2961 15.766 29.3159 15.9104 29.3357C14.9337 29.3365 13.9712 29.2373 13.0229 29.0381C12.9184 28.9954 12.8192 28.9358 12.7252 28.8595C12.76 28.8176 12.7501 28.7829 12.6955 28.7553C12.7283 28.6642 12.6985 28.6394 12.6062 28.6809C12.5705 28.6502 12.5307 28.6253 12.4871 28.6064C12.4987 28.5526 12.4987 28.503 12.4871 28.4576C12.4406 28.4481 12.4059 28.4233 12.3829 28.3832C12.373 28.3931 12.3631 28.403 12.3531 28.413C12.3462 28.3451 12.3214 28.2855 12.2787 28.2343C12.2954 28.281 12.2756 28.3206 12.2192 28.3534C12.2276 28.3164 12.2078 28.2817 12.1597 28.2492C12.202 28.2072 12.197 28.1725 12.1448 28.145C12.1072 28.1492 12.0724 28.1492 12.0406 28.145C12.0562 28.1244 12.0761 28.1096 12.1001 28.1004C12.0532 28.0873 12.0135 28.0625 11.9811 28.026C11.9636 28.0322 11.9487 28.0421 11.9364 28.0557C11.8525 27.9956 11.7682 27.9609 11.6834 27.9516C11.7242 27.9146 11.754 27.8699 11.7727 27.8176C11.7717 27.7584 11.7469 27.6989 11.6983 27.639C11.6685 27.6489 11.6387 27.6589 11.609 27.6688C11.6009 27.5607 11.5513 27.5309 11.4601 27.5795C11.4418 27.5512 11.4467 27.5264 11.475 27.505C11.4452 27.4852 11.4155 27.4852 11.3857 27.505C11.4224 27.5403 11.4224 27.575 11.3857 27.6092C11.3856 27.5685 11.3658 27.5239 11.3262 27.4753C11.3725 27.4395 11.4222 27.4048 11.475 27.3711Z" fill="#2DACFD"/>
<path fill-rule="evenodd" clip-rule="evenodd" d="M18.6493 27.8174C18.7391 27.8235 18.8284 27.8334 18.9172 27.8472C18.924 27.9047 18.9488 27.9543 18.9916 27.996C19.0015 27.9761 19.0115 27.9563 19.0214 27.9365C19.0511 27.9662 19.0809 27.996 19.1107 28.0258C19.1465 28.0088 19.1813 27.9889 19.2149 27.9662C19.169 27.9604 19.1194 27.9356 19.066 27.8918C19.1077 27.8741 19.1474 27.8791 19.1851 27.9067C19.2475 27.8351 19.3021 27.845 19.3488 27.9365C19.3693 27.9109 19.3941 27.8911 19.4232 27.8769C19.4841 27.9357 19.5337 27.9357 19.5721 27.8769C19.6045 27.9034 19.6045 27.9332 19.5721 27.9662C19.6633 27.9943 19.7328 28.0489 19.7804 28.1299C19.6651 28.17 19.6651 28.2048 19.7804 28.2341C19.7524 28.2338 19.7326 28.2487 19.7209 28.2788C19.7308 28.2937 19.7408 28.3085 19.7507 28.3234C19.7869 28.3085 19.8216 28.2986 19.8549 28.2937C19.8728 28.3424 19.8876 28.392 19.8995 28.4425C19.89 28.4766 19.8702 28.5015 19.84 28.5169C19.8797 28.5268 19.9194 28.5368 19.959 28.5467C19.809 28.5767 19.8189 28.5916 19.9888 28.5913C19.9888 28.5616 19.9888 28.5318 19.9888 28.502C20.0682 28.5219 20.1476 28.5417 20.227 28.5616C20.0502 28.6258 19.8716 28.6903 19.6911 28.7551C19.437 28.8348 19.179 28.8993 18.9172 28.9485C18.7264 29.0213 18.5924 28.9618 18.5153 28.7699C18.5054 28.7898 18.4955 28.8096 18.4856 28.8295C18.4761 28.783 18.4513 28.7483 18.4111 28.7253C18.4361 28.6757 18.4213 28.6707 18.3665 28.7104C18.3237 28.6576 18.2939 28.598 18.2772 28.5318C18.2078 28.6116 18.1929 28.6017 18.2325 28.502C18.2105 28.4786 18.1857 28.4588 18.1581 28.4425C18.1367 28.4708 18.112 28.4757 18.0837 28.4574C18.1083 28.4301 18.1381 28.4103 18.173 28.3978C18.1544 28.3755 18.1395 28.3507 18.1284 28.3234C18.1192 28.3475 18.1043 28.3673 18.0837 28.383C18.0469 28.3608 18.0072 28.3508 17.9646 28.3532C17.9145 28.2723 17.8798 28.183 17.8604 28.0853C17.8278 28.1315 17.7881 28.1712 17.7414 28.2044C17.7644 28.1034 17.7198 28.0438 17.6074 28.0258C17.9506 27.9536 18.2979 27.8841 18.6493 27.8174Z" fill="#2C99FA"/>
<path fill-rule="evenodd" clip-rule="evenodd" d="M17.6075 28.0264C17.7199 28.0444 17.7645 28.104 17.7415 28.205C17.7882 28.1718 17.8279 28.1321 17.8605 28.0859C17.8799 28.1837 17.9146 28.273 17.9647 28.3538C18.0073 28.3515 18.047 28.3614 18.0838 28.3836C18.1044 28.3679 18.1193 28.3481 18.1284 28.324C18.1396 28.3513 18.1545 28.3761 18.1731 28.3985C18.1382 28.4109 18.1084 28.4308 18.0838 28.458C18.112 28.4764 18.1368 28.4714 18.1582 28.4431C18.1857 28.4594 18.2105 28.4792 18.2326 28.5026C18.193 28.6023 18.2079 28.6122 18.2773 28.5324C18.294 28.5986 18.3237 28.6582 18.3666 28.711C18.4214 28.6713 18.4362 28.6763 18.4112 28.7259C18.4514 28.7489 18.4762 28.7836 18.4857 28.8301C18.4956 28.8102 18.5055 28.7904 18.5154 28.7706C18.5925 28.9624 18.7265 29.0219 18.9173 28.9492C18.5833 29.021 18.246 29.0954 17.9052 29.1724C17.8164 29.1872 17.7271 29.1922 17.6373 29.1873C17.4924 29.1916 17.3584 29.1816 17.2354 29.1575C17.2133 29.2214 17.1885 29.2263 17.161 29.1724C17.1687 29.1349 17.1886 29.1051 17.2205 29.0831C17.1854 29.0332 17.1506 29.0381 17.1163 29.098C17.072 29.0737 17.0273 29.0489 16.9824 29.0236C17.0023 29.0137 17.0221 29.0037 17.0419 28.9938C17.0072 28.9789 16.9824 28.9541 16.9675 28.9194C16.9576 28.9492 16.9477 28.9789 16.9377 29.0087C16.8645 28.9261 16.805 28.8368 16.7591 28.7408C16.7432 28.7935 16.7184 28.8034 16.6847 28.7706C16.6989 28.7414 16.7187 28.7166 16.7443 28.6961C16.6996 28.6515 16.655 28.6068 16.6103 28.5622C16.5754 28.6377 16.5308 28.6526 16.4763 28.6068C16.5591 28.6024 16.574 28.5776 16.521 28.5324C16.4813 28.5324 16.4416 28.5324 16.4019 28.5324C16.4189 28.4671 16.409 28.4076 16.3722 28.3538C16.2372 28.3876 16.1528 28.333 16.1191 28.1901C16.1357 28.1787 16.1456 28.1638 16.1489 28.1454C16.635 28.1088 17.1212 28.0691 17.6075 28.0264Z" fill="#2C9FFB"/>
<path fill-rule="evenodd" clip-rule="evenodd" d="M13.8271 27.9668C14.5933 28.1089 15.3673 28.1684 16.149 28.1454C16.1457 28.1638 16.1358 28.1787 16.1192 28.1901C16.1529 28.333 16.2373 28.3876 16.3723 28.3538C16.4091 28.4076 16.419 28.4671 16.402 28.5324C16.4417 28.5324 16.4814 28.5324 16.5211 28.5324C16.5741 28.5775 16.5592 28.6024 16.4765 28.6068C16.5309 28.6526 16.5755 28.6377 16.6104 28.5621C16.6551 28.6068 16.6997 28.6514 16.7444 28.6961C16.7188 28.7166 16.699 28.7414 16.6848 28.7705C16.7185 28.8034 16.7433 28.7935 16.7592 28.7408C16.8051 28.8368 16.8646 28.9261 16.9378 29.0087C16.9478 28.9789 16.9577 28.9491 16.9676 28.9194C16.9825 28.9541 17.0073 28.9789 17.042 28.9938C17.0222 29.0037 17.0024 29.0136 16.9825 29.0235C17.0274 29.0488 17.0721 29.0736 17.1165 29.098C17.1507 29.0381 17.1855 29.0331 17.2206 29.0831C17.1887 29.1051 17.1688 29.1348 17.1611 29.1724C17.1886 29.2263 17.2134 29.2213 17.2355 29.1575C17.3585 29.1816 17.4925 29.1915 17.6374 29.1873C17.07 29.2822 16.4945 29.3318 15.9109 29.3361C15.7665 29.3163 15.6177 29.2964 15.4644 29.2766C15.4278 29.2441 15.403 29.2044 15.3899 29.1575C15.38 29.1773 15.3701 29.1972 15.3602 29.217C15.3415 29.1429 15.3167 29.1429 15.2858 29.217C15.2324 29.1258 15.153 29.0712 15.0476 29.0533C15.0575 29.0434 15.0675 29.0335 15.0774 29.0235C15.021 28.9908 15.0011 28.9511 15.0178 28.9045C14.9519 28.8929 14.9122 28.8632 14.8988 28.8152C14.9124 28.8028 14.9223 28.788 14.9285 28.7705C14.8302 28.7466 14.7657 28.687 14.7351 28.5919C14.7251 28.6217 14.7152 28.6514 14.7053 28.6812C14.6954 28.6316 14.6854 28.582 14.6755 28.5324C14.6436 28.5556 14.6088 28.5506 14.5713 28.5175C14.6048 28.5101 14.6346 28.4952 14.6606 28.4728C14.5883 28.4207 14.5188 28.3859 14.4523 28.3687C14.4956 28.3561 14.5105 28.3313 14.4969 28.2942C14.4671 28.3141 14.4374 28.3339 14.4076 28.3538C14.3547 28.2513 14.2902 28.1571 14.2141 28.071C14.1744 28.0511 14.1347 28.0511 14.0951 28.071C14.1234 28.0924 14.1283 28.1172 14.1099 28.1454C14.0388 28.0445 13.9446 27.985 13.8271 27.9668Z" fill="#2BA5FC"/>
</g>
<defs>
<clipPath id="clip0_68_2">
<rect width="32" height="32" fill="white"/>
</clipPath>
</defs>
</svg>
