<svg width="32" height="32" viewBox="0 0 32 32" fill="none" xmlns="http://www.w3.org/2000/svg">
<path d="M16.0242 0.639999C13.1322 0.639999 10.3587 1.84077 8.31375 3.97816C6.26882 6.11554 5.12 9.01446 5.12 12.0372C5.12 19.1709 16.0242 31.36 16.0242 31.36C16.0242 31.36 26.9283 19.1709 26.9283 12.0372C26.9283 10.5405 26.6463 9.05843 26.0983 7.67565C25.5503 6.2929 24.7471 5.03648 23.7345 3.97816C22.722 2.91983 21.5199 2.08032 20.197 1.50756C18.874 0.934794 17.4561 0.639999 16.0242 0.639999ZM21.9076 16.5116L16.0242 20.0574L10.1408 16.5116V9.41664L16.0242 5.87087L21.3648 9.09414L16.0242 12.3023L14.1083 11.1355L12.9985 11.8109L16.0242 13.6412L21.9076 10.0954V16.5116Z" fill="#E8111C"/>
</svg>
