<svg width="32" height="32" viewBox="0 0 32 32" fill="none" xmlns="http://www.w3.org/2000/svg">
<path opacity="0.933" fill-rule="evenodd" clip-rule="evenodd" d="M20.799 1.79203C17.4008 2.86697 14.0186 3.99433 10.6527 5.17415C9.53214 4.91461 8.40478 4.78453 7.27057 4.7839C6.22867 5.09042 5.36147 5.65412 4.66895 6.47496C5.59218 4.55558 7.06645 3.2114 9.09171 2.44244C12.35 0.673735 15.8188 -0.0200327 19.4982 0.361137C20.2532 0.714968 20.6868 1.19194 20.799 1.79203Z" fill="#4CC4D6"/>
<path opacity="0.981" fill-rule="evenodd" clip-rule="evenodd" d="M20.7982 1.79199C19.7419 4.51139 18.6146 7.19976 17.4161 9.85703C15.4253 9.63571 13.7776 10.2427 12.473 11.6782C12.3019 11.9119 12.1285 12.1721 11.9527 12.4587C10.1561 13.314 8.33501 14.0945 6.48926 14.8001C7.6193 11.5752 9.00683 8.36656 10.6519 5.17411C14.0178 3.99429 17.3999 2.86693 20.7982 1.79199Z" fill="#046E96"/>
<path opacity="0.962" fill-rule="evenodd" clip-rule="evenodd" d="M17.4167 9.85685C18.7131 9.83406 19.9271 10.1376 21.059 10.7674C21.4909 11.1545 21.751 11.6314 21.8395 12.1983C21.592 12.5674 21.5053 13.001 21.5793 13.4991C21.5793 14.6265 21.5793 15.7539 21.5793 16.8812C20.0803 17.5985 18.5627 18.2923 17.0265 18.9625C15.5152 18.3144 13.9976 17.7074 12.4736 17.1414C12.4736 15.3203 12.4736 13.4991 12.4736 11.678C13.7782 10.2426 15.4259 9.63553 17.4167 9.85685Z" fill="#F9E60A"/>
<path fill-rule="evenodd" clip-rule="evenodd" d="M14.8154 10.6373C16.2922 10.5941 17.7665 10.6374 19.2382 10.7674C20.0232 10.8986 20.6303 11.2889 21.0593 11.9381C20.439 12.8272 19.5718 13.3042 18.4577 13.369C17.0551 13.549 15.6675 13.4622 14.2951 13.1088C13.0007 12.8615 12.7405 12.2544 13.5146 11.2877C13.9867 11.0908 14.4203 10.874 14.8154 10.6373Z" fill="#FED500"/>
<path opacity="0.946" fill-rule="evenodd" clip-rule="evenodd" d="M12.4734 11.6777C12.4734 13.4989 12.4734 15.32 12.4734 17.1411C13.9974 17.7072 15.515 18.3142 17.0262 18.9623C18.5625 18.292 20.0801 17.5983 21.5791 16.881C22.8732 16.3211 24.174 15.7574 25.4815 15.1899C24.2409 14.4828 22.9401 13.9191 21.5791 13.4989C21.5051 13.0007 21.5918 12.5672 21.8392 12.1981C23.8823 13.0898 25.8769 14.0438 27.823 15.0598C24.2343 16.8062 20.592 18.4539 16.8962 20.0029C13.387 18.3814 9.83139 16.777 6.22949 15.1899C6.37414 15.0904 6.46085 14.9603 6.48965 14.7997C8.3354 14.0941 10.1565 13.3136 11.9531 12.4582C12.1289 12.1716 12.3023 11.9115 12.4734 11.6777Z" fill="#56D0D2"/>
<path opacity="0.998" fill-rule="evenodd" clip-rule="evenodd" d="M11.6932 13.499C12.1935 14.4172 12.3669 15.4579 12.2136 16.621C10.9787 16.2212 9.76458 15.7443 8.57129 15.1901C9.61839 14.5988 10.659 14.0351 11.6932 13.499Z" fill="#057097"/>
<path fill-rule="evenodd" clip-rule="evenodd" d="M12.9941 13.2393C15.5916 14.2659 18.1932 14.2659 20.799 13.2393C20.8857 13.326 20.9725 13.4127 21.0592 13.4994C19.9152 14.47 18.5711 14.9036 17.0267 14.8002C15.8137 14.8114 14.643 14.5945 13.5145 14.1498C13.1703 13.9376 12.9969 13.634 12.9941 13.2393Z" fill="#FED600"/>
<path opacity="0.997" fill-rule="evenodd" clip-rule="evenodd" d="M21.5791 13.499C22.9401 13.9193 24.2409 14.4829 25.4815 15.1901C24.174 15.7576 22.8732 16.3213 21.5791 16.8811C21.5791 15.7538 21.5791 14.6264 21.5791 13.499Z" fill="#087196"/>
<path opacity="0.966" fill-rule="evenodd" clip-rule="evenodd" d="M27.8233 15.0605C28.1254 19.0049 28.1688 22.9941 27.9534 27.028C24.3644 28.845 20.6788 30.406 16.8965 31.711C16.8965 27.8085 16.8965 23.9061 16.8965 20.0036C20.5923 18.4546 24.2346 16.8069 27.8233 15.0605Z" fill="#4DC4D6"/>
<path opacity="0.976" fill-rule="evenodd" clip-rule="evenodd" d="M10.6524 5.17442C9.00736 8.36688 7.61984 11.5755 6.48979 14.8004C6.46099 14.9611 6.37428 15.0911 6.22963 15.1907C9.83153 16.7778 13.3871 18.3821 16.8963 20.0037C16.8963 23.9061 16.8963 27.8086 16.8963 31.711C13.226 30.3316 9.62702 28.7707 6.09955 27.0281C6.01284 23.0389 5.9261 19.0498 5.83939 15.0606C3.73579 12.4012 3.34555 9.53941 4.66866 6.47524C5.36118 5.6544 6.22838 5.0907 7.27028 4.78418C8.40449 4.7848 9.53185 4.91489 10.6524 5.17442Z" fill="#0089AD"/>
<path fill-rule="evenodd" clip-rule="evenodd" d="M23.4005 21.0439C23.6606 21.0439 23.9208 21.0439 24.1809 21.0439C24.2241 22.1746 24.1807 23.302 24.0509 24.4261C23.0424 25.0169 22.0018 25.5372 20.9289 25.987C20.7555 24.7729 20.7555 23.5589 20.9289 22.3448C21.8223 22.0069 22.6461 21.5733 23.4005 21.0439Z" fill="#F3F9FA"/>
<path fill-rule="evenodd" clip-rule="evenodd" d="M22.8801 22.085C23.2047 22.3019 23.3782 22.6488 23.4004 23.1256C23.2882 24.184 22.6812 24.7043 21.5792 24.6866C21.5368 24.0734 21.5801 23.4664 21.7093 22.8654C22.139 22.6315 22.5293 22.3713 22.8801 22.085Z" fill="#147999"/>
</svg>
