<svg width="32" height="32" viewBox="0 0 32 32" fill="none" xmlns="http://www.w3.org/2000/svg">
    <g clip-path="url(#clip0_1120_66)">
        <path opacity="0.969" fill-rule="evenodd" clip-rule="evenodd"
            d="M14.9062 -0.03125C15.2812 -0.03125 15.6562 -0.03125 16.0312 -0.03125C15.7632 1.35903 15.1486 2.56736 14.1875 3.59375C14.1381 3.67156 14.1068 3.75489 14.0938 3.84375C13.7134 3.98598 13.3176 4.10056 12.9062 4.1875C12.517 4.37177 12.1211 4.53844 11.7188 4.6875C11.3841 4.89779 11.0508 5.10612 10.7188 5.3125C10.432 5.56892 10.1404 5.8085 9.84375 6.03125C9.10312 6.06104 8.35312 6.02979 7.59375 5.9375C6.86263 5.83728 6.17514 5.61853 5.53125 5.28125C5.78203 4.91649 6.04244 4.56233 6.3125 4.21875C6.7415 3.76886 7.18938 3.34178 7.65625 2.9375C7.84981 2.85791 8.0165 2.74333 8.15625 2.59375C9.7295 2.76099 11.0107 2.24016 12 1.03125C12.104 0.854556 12.1769 0.667056 12.2188 0.46875C13.1156 0.26845 14.0114 0.101784 14.9062 -0.03125Z"
            fill="#F4D129" />
        <path opacity="0.962" fill-rule="evenodd" clip-rule="evenodd"
            d="M16.0312 -0.03125C16.3438 -0.03125 16.6562 -0.03125 16.9688 -0.03125C17.0355 0.0271547 17.1188 0.0479881 17.2188 0.03125C17.0257 1.37459 16.5257 2.58292 15.7188 3.65625C15.1746 3.69824 14.6329 3.76074 14.0938 3.84375C14.1068 3.75489 14.1381 3.67156 14.1875 3.59375C15.1486 2.56736 15.7632 1.35903 16.0312 -0.03125Z"
            fill="#F4CD2B" />
        <path opacity="0.961" fill-rule="evenodd" clip-rule="evenodd"
            d="M17.2188 0.03125C18.0964 0.119328 18.9506 0.285994 19.7812 0.53125C19.4988 1.65912 19.0925 2.74245 18.5625 3.78125C18.5319 3.86208 18.5214 3.94541 18.5312 4.03125C17.6127 3.76799 16.6752 3.64299 15.7188 3.65625C16.5257 2.58292 17.0257 1.37459 17.2188 0.03125Z"
            fill="#F4C92C" />
        <path opacity="0.893" fill-rule="evenodd" clip-rule="evenodd"
            d="M12.2188 0.46875C12.1769 0.667056 12.104 0.854556 12 1.03125C11.0107 2.24016 9.7295 2.76099 8.15625 2.59375C9.39262 1.67336 10.7467 0.965031 12.2188 0.46875Z"
            fill="#F5D529" />
        <path opacity="0.962" fill-rule="evenodd" clip-rule="evenodd"
            d="M19.7813 0.53125C20.7804 0.853956 21.7387 1.27062 22.6563 1.78125C22.7443 1.86553 22.8277 1.94887 22.9063 2.03125C22.5594 3.23807 22.101 4.40473 21.5313 5.53125C20.6295 4.84634 19.6295 4.34634 18.5313 4.03125C18.5215 3.94541 18.5319 3.86208 18.5625 3.78125C19.0925 2.74245 19.4988 1.65912 19.7813 0.53125Z"
            fill="#F4C42C" />
        <path opacity="0.96" fill-rule="evenodd" clip-rule="evenodd"
            d="M22.9062 2.03125C23.368 2.27418 23.8055 2.55542 24.2188 2.875C24.646 3.23325 25.0418 3.61867 25.4062 4.03125C25.0701 4.89529 24.7055 5.74946 24.3125 6.59375C24.0922 6.95194 23.8734 7.30606 23.6562 7.65625C23.3065 7.23313 22.9419 6.8165 22.5625 6.40625C22.2306 6.09129 21.8868 5.79963 21.5312 5.53125C22.101 4.40473 22.5594 3.23807 22.9062 2.03125Z"
            fill="#F4BE2D" />
        <path opacity="0.959" fill-rule="evenodd" clip-rule="evenodd"
            d="M25.4062 4.03125C25.8469 4.44091 26.2324 4.89924 26.5625 5.40625C26.7761 5.77106 27.0053 6.12523 27.25 6.46875C27.354 6.64544 27.4269 6.83294 27.4688 7.03125C27.0168 7.93244 26.548 8.82831 26.0625 9.71875C25.7484 10.1808 25.4046 10.6183 25.0312 11.0312C24.9449 10.6626 24.8511 10.2876 24.75 9.90625C24.4341 9.12869 24.0695 8.37869 23.6562 7.65625C23.8734 7.30606 24.0922 6.95194 24.3125 6.59375C24.7055 5.74946 25.0701 4.89529 25.4062 4.03125Z"
            fill="#F4B82F" />
        <path opacity="0.957" fill-rule="evenodd" clip-rule="evenodd"
            d="M5.53125 5.28125C6.17514 5.61853 6.86263 5.83728 7.59375 5.9375C8.35312 6.02979 9.10312 6.06104 9.84375 6.03125C9.465 6.40969 9.11088 6.80556 8.78125 7.21875C7.37612 7.25506 6.06365 6.94256 4.84375 6.28125C5.04285 5.92386 5.27202 5.59053 5.53125 5.28125Z"
            fill="#F4CD2B" />
        <path opacity="0.958" fill-rule="evenodd" clip-rule="evenodd"
            d="M4.84375 6.28125C6.06365 6.94256 7.37612 7.25506 8.78125 7.21875C8.15344 7.99575 7.67425 8.84994 7.34375 9.78125C6.62612 9.57563 5.89695 9.37769 5.15625 9.1875C4.77751 9.071 4.42335 8.90438 4.09375 8.6875C3.99162 8.65663 3.88745 8.64625 3.78125 8.65625C3.88595 8.30031 4.00054 7.94619 4.125 7.59375C4.36724 7.15038 4.60682 6.71288 4.84375 6.28125Z"
            fill="#F4C92C" />
        <path opacity="0.953" fill-rule="evenodd" clip-rule="evenodd"
            d="M27.4688 7.03125C27.5983 7.14688 27.6816 7.29269 27.7188 7.46875C27.664 7.46056 27.6223 7.48138 27.5938 7.53125C26.9482 8.99063 26.1148 10.324 25.0938 11.5312C25.0729 11.3646 25.0521 11.1979 25.0312 11.0312C25.4046 10.6183 25.7484 10.1808 26.0625 9.71875C26.548 8.82831 27.0168 7.93244 27.4688 7.03125Z"
            fill="#F2B62F" />
        <path opacity="0.96" fill-rule="evenodd" clip-rule="evenodd"
            d="M27.7188 7.46877C28.413 8.96759 28.8089 10.551 28.9062 12.2188C27.5469 14.0656 26.0052 15.7635 24.2812 17.3125C24.222 17.3427 24.1595 17.3531 24.0938 17.3438C24.8117 15.9438 25.1867 14.4542 25.2188 12.875C25.2213 12.4215 25.1796 11.9736 25.0938 11.5313C26.1148 10.324 26.9482 8.99065 27.5938 7.53127C27.6223 7.4814 27.664 7.46059 27.7188 7.46877Z"
            fill="#F3B130" />
        <path opacity="0.96" fill-rule="evenodd" clip-rule="evenodd"
            d="M3.78125 8.65627C3.88745 8.64627 3.99162 8.65664 4.09375 8.68752C4.42335 8.90439 4.77751 9.07102 5.15625 9.18752C5.89695 9.3777 6.62612 9.57564 7.34375 9.78127C7.00156 10.8345 6.83494 11.9178 6.84375 13.0313C5.72081 12.8963 4.63748 12.6151 3.59375 12.1875C3.41051 12.128 3.22301 12.0967 3.03125 12.0938C3.13956 11.2356 3.27498 10.3814 3.4375 9.53127C3.52318 9.22102 3.63777 8.92933 3.78125 8.65627Z"
            fill="#F4C42C" />
        <path opacity="0.937" fill-rule="evenodd" clip-rule="evenodd"
            d="M17.9687 9.78135C17.1851 10.3441 16.3726 10.8753 15.5312 11.3751C14.953 11.6332 14.3696 11.8727 13.7812 12.0938C13.6274 11.2211 13.8566 10.4711 14.4687 9.84385C15.1177 9.22785 15.8885 9.0091 16.7812 9.1876C17.2559 9.23703 17.6518 9.43497 17.9687 9.78135Z"
            fill="#F4C22C" />
        <path opacity="0.964" fill-rule="evenodd" clip-rule="evenodd"
            d="M17.9688 9.78125C18.4252 10.1464 18.6857 10.6256 18.75 11.2188C18.8326 11.7911 18.7597 12.3327 18.5312 12.8438C18.5302 12.7483 18.4885 12.717 18.4062 12.75C17.7237 13.2444 16.9945 13.661 16.2188 14C16.1361 14.051 16.0944 14.1239 16.0938 14.2188C14.8027 14.0648 14.0319 13.3564 13.7812 12.0938C14.3697 11.8726 14.9531 11.6331 15.5312 11.375C16.3727 10.8753 17.1852 10.344 17.9688 9.78125Z"
            fill="#F4BE2D" />
        <path opacity="0.961" fill-rule="evenodd" clip-rule="evenodd"
            d="M3.0313 12.0938C3.22306 12.0967 3.41056 12.1279 3.5938 12.1875C4.63752 12.6151 5.72085 12.8963 6.8438 13.0312C6.87373 14.0558 7.04042 15.0558 7.3438 16.0312C5.96492 15.9096 4.61075 15.6596 3.2813 15.2812C3.06325 14.2313 2.97992 13.1688 3.0313 12.0938Z"
            fill="#F4BE2D" />
        <path opacity="0.964" fill-rule="evenodd" clip-rule="evenodd"
            d="M28.9062 12.2188C28.9651 14.1838 28.6423 16.0796 27.9374 17.9062C27.707 18.4093 27.4466 18.8884 27.1562 19.3438C26.5661 19.7567 26.0036 20.2046 25.4687 20.6875C24.861 21.1493 24.236 21.5868 23.5937 22C22.5276 22.6581 21.4235 23.2519 20.2812 23.7812C20.2709 23.5719 20.2813 23.3636 20.3124 23.1562C20.5483 22.7407 20.7358 22.3032 20.8749 21.8438C21.1358 21.4471 21.365 21.0305 21.5624 20.5938C22.0535 19.9457 22.5743 19.3207 23.1249 18.7188C23.4629 18.267 23.7858 17.8087 24.0937 17.3438C24.1594 17.3531 24.2219 17.3427 24.2812 17.3125C26.0051 15.7635 27.5468 14.0656 28.9062 12.2188Z"
            fill="#F2AB30" />
        <path opacity="0.784" fill-rule="evenodd" clip-rule="evenodd"
            d="M18.5312 12.8438C17.9926 13.7765 17.1801 14.2348 16.0938 14.2188C16.0944 14.124 16.1361 14.051 16.2188 14C16.9945 13.661 17.7237 13.2444 18.4062 12.75C18.4885 12.717 18.5302 12.7483 18.5312 12.8438Z"
            fill="#F4BB2E" />
        <path opacity="0.962" fill-rule="evenodd" clip-rule="evenodd"
            d="M3.28125 15.2812C4.6107 15.6596 5.96487 15.9096 7.34375 16.0312C7.78431 17.166 8.40931 18.1869 9.21875 19.0938C7.62731 19.1924 6.04395 19.0674 4.46875 18.7188C4.28261 18.4723 4.12636 18.2014 4 17.9062C3.66294 17.058 3.42336 16.183 3.28125 15.2812Z"
            fill="#F4B82F" />
        <path opacity="0.934" fill-rule="evenodd" clip-rule="evenodd"
            d="M18.0937 16.9688C17.3691 17.216 16.6608 17.5181 15.9687 17.875C15.411 18.0089 14.8693 18.1859 14.3437 18.4062C14.1001 16.8906 14.7356 16.0572 16.25 15.9062C17.0556 15.941 17.6701 16.2952 18.0937 16.9688Z"
            fill="#F4B72F" />
        <path opacity="0.975" fill-rule="evenodd" clip-rule="evenodd"
            d="M18.0938 16.9688C18.1146 17.0938 18.1354 17.2188 18.1562 17.3438C17.6619 17.4554 17.2036 17.6534 16.7812 17.9375C15.9813 18.2331 15.1688 18.4935 14.3438 18.7188C14.3438 18.6146 14.3438 18.5104 14.3438 18.4062C14.8693 18.1859 15.411 18.0089 15.9688 17.875C16.6608 17.5181 17.3691 17.216 18.0938 16.9688Z"
            fill="#F2B62F" />
        <path opacity="0.973" fill-rule="evenodd" clip-rule="evenodd"
            d="M18.1562 17.3438C18.2179 18.5473 18.2387 19.7557 18.2188 20.9688C16.9636 21.4983 15.6719 21.9149 14.3438 22.2188C14.3438 21.0521 14.3438 19.8854 14.3438 18.7188C15.1688 18.4935 15.9813 18.2331 16.7812 17.9375C17.2036 17.6534 17.6619 17.4554 18.1562 17.3438Z"
            fill="#F3B230" />
        <path opacity="0.959" fill-rule="evenodd" clip-rule="evenodd"
            d="M4.46875 18.7188C6.04395 19.0674 7.62731 19.1924 9.21875 19.0938C9.32262 19.2102 9.42681 19.3352 9.53125 19.4688C7.94344 19.5573 6.3705 19.4323 4.8125 19.0938C4.72653 19.1053 4.67444 19.1469 4.65625 19.2188C4.55642 19.072 4.49392 18.9054 4.46875 18.7188Z"
            fill="#F2B62F" />
        <path opacity="0.96" fill-rule="evenodd" clip-rule="evenodd"
            d="M9.53125 19.4688C10.4067 20.4268 11.0942 21.5101 11.5938 22.7188C10.2224 22.8958 8.84738 22.9374 7.46875 22.8438C7.19787 22.5206 6.9375 22.1872 6.6875 21.8438C5.9041 21.0461 5.22702 20.1711 4.65625 19.2188C4.67444 19.1469 4.72653 19.1053 4.8125 19.0938C6.3705 19.4323 7.94344 19.5573 9.53125 19.4688Z"
            fill="#F3B230" />
        <path opacity="0.924" fill-rule="evenodd" clip-rule="evenodd"
            d="M27.1562 19.3438C26.5959 20.358 25.8979 21.2746 25.0625 22.0938C24.6328 22.7239 24.2578 23.3906 23.9375 24.0938C23.457 25.6597 22.8528 27.1805 22.125 28.6562C21.8902 28.9531 21.6819 29.2656 21.5 29.5938C21.2552 29.7498 21.0677 29.9581 20.9375 30.2188C20.7476 30.2832 20.5913 30.3978 20.4688 30.5625C20.4095 30.5927 20.347 30.6031 20.2812 30.5938C20.2812 28.3229 20.2812 26.0521 20.2812 23.7812C21.4236 23.2519 22.5277 22.6581 23.5938 22C24.2361 21.5868 24.8611 21.1493 25.4688 20.6875C26.0037 20.2046 26.5662 19.7567 27.1562 19.3438Z"
            fill="#F1A630" />
        <path opacity="0.973" fill-rule="evenodd" clip-rule="evenodd"
            d="M18.2188 20.9688C18.2188 22.1979 18.2188 23.4271 18.2188 24.6562C16.9426 25.069 15.6509 25.4232 14.3438 25.7188C14.3438 24.5521 14.3438 23.3854 14.3438 22.2188C15.6719 21.9149 16.9636 21.4983 18.2188 20.9688Z"
            fill="#F2AB30" />
        <path opacity="0.96" fill-rule="evenodd" clip-rule="evenodd"
            d="M11.5938 22.7188C12.0126 23.8082 12.4084 24.9124 12.7812 26.0312C11.5143 26.1649 10.2434 26.2483 8.96875 26.2812C8.58794 25.0822 8.08794 23.9364 7.46875 22.8438C8.84738 22.9374 10.2224 22.8958 11.5938 22.7188Z"
            fill="#F2AB30" />
        <path opacity="0.963" fill-rule="evenodd" clip-rule="evenodd"
            d="M18.2188 24.6562C18.2292 26.9897 18.2188 29.323 18.1875 31.6562C17.7624 31.7964 17.3353 31.9006 16.9062 31.9688C16.3438 31.9688 15.7812 31.9688 15.2188 31.9688C12.9451 31.8793 11.2055 30.8793 10 28.9688C9.55056 28.1118 9.20681 27.216 8.96875 26.2812C10.2434 26.2483 11.5143 26.1649 12.7812 26.0312C12.9555 26.6819 13.268 27.2549 13.7188 27.75C13.9062 27.8438 14.0938 27.9375 14.2812 28.0312C14.3437 27.2616 14.3645 26.4907 14.3438 25.7188C15.6509 25.4232 16.9426 25.069 18.2188 24.6562Z"
            fill="#F1A630" />
    </g>
    <defs>
        <clipPath id="clip0_1120_66">
            <rect width="32" height="32" fill="white" />
        </clipPath>
    </defs>
</svg>