<svg width="32" height="32" viewBox="0 0 32 32" fill="none" xmlns="http://www.w3.org/2000/svg">
<g clip-path="url(#clip0_74_414)">
<path fill-rule="evenodd" clip-rule="evenodd" d="M20.1568 3.08346C19.9918 3.05854 19.835 3.08633 19.6863 3.16679C19.9437 3.52729 20.2574 3.77729 20.6274 3.91679C18.4163 3.25756 16.168 3.09089 13.8823 3.41679C13.8689 3.25081 13.9212 3.11193 14.0392 3.00013C13.7829 2.91788 13.5214 2.89009 13.2549 2.91679C14.1623 2.50619 15.1296 2.33953 16.1568 2.41679C17.5542 2.35474 18.8875 2.57696 20.1568 3.08346Z" fill="#6ECFF5"/>
<path fill-rule="evenodd" clip-rule="evenodd" d="M13.2548 2.91704C13.5214 2.89034 13.7828 2.91812 14.0391 3.00037C13.9211 3.11217 13.8688 3.25106 13.8823 3.41704C12.1261 3.93321 10.5052 4.76654 9.01953 5.91704C9.05139 5.65966 9.15597 5.43742 9.33326 5.25037C9.26159 5.11746 9.15701 5.06189 9.01953 5.08371C9.39806 4.68584 9.81636 4.32472 10.2744 4.00037C11.2282 3.52366 12.2217 3.16254 13.2548 2.91704Z" fill="#5CC0EC"/>
<path fill-rule="evenodd" clip-rule="evenodd" d="M20.1571 3.08305C21.6782 3.4903 23.0377 4.21252 24.2355 5.24972C24.1419 5.28892 24.0897 5.37225 24.0787 5.49972C24.2733 5.7882 24.4302 6.09375 24.5493 6.41639C23.3623 5.37889 22.055 4.54555 20.6277 3.91639C20.2577 3.77689 19.9439 3.52689 19.6865 3.16639C19.8352 3.08592 19.9921 3.05814 20.1571 3.08305Z" fill="#5ABFEC"/>
<path fill-rule="evenodd" clip-rule="evenodd" d="M12.7842 7.25C11.7709 8.02088 10.882 8.93755 10.1175 10C9.45449 10.1807 9.27148 9.98623 9.56851 9.41667C10.0918 8.72203 10.6409 8.05537 11.2156 7.41667C11.6381 7.0788 12.0041 6.68992 12.3136 6.25C12.7243 5.9449 13.1426 5.6949 13.5685 5.5C13.3071 5.77778 13.0456 6.05555 12.7842 6.33333C12.8843 6.61778 12.8843 6.92333 12.7842 7.25Z" fill="#5AC2EE"/>
<path fill-rule="evenodd" clip-rule="evenodd" d="M20.3135 10.2503C20.1856 10.0954 20.055 9.92878 19.9213 9.75033C19.8601 10.0706 19.7033 10.4039 19.4507 10.7503C19.2261 11.0735 18.9386 11.2957 18.588 11.417C18.6774 10.4752 18.5205 9.58628 18.1174 8.75033C18.3789 8.75033 18.6402 8.75033 18.9017 8.75033C18.2434 7.01239 17.0407 6.20684 15.2939 6.33366C15.4283 6.44851 15.5328 6.58739 15.6076 6.75033C14.645 6.83836 13.7038 7.00503 12.7841 7.25033C12.8842 6.92366 12.8842 6.61811 12.7841 6.33366C13.0455 6.05588 13.3069 5.77811 13.5684 5.50033C13.1425 5.69523 12.7242 5.94523 12.3135 6.25033C12.9796 5.28564 13.8685 4.75786 14.9801 4.66699C14.3878 5.04121 14.3878 5.34676 14.9801 5.58366C16.4153 5.11926 17.8793 4.98038 19.3723 5.16699C20.5954 5.64944 20.4907 5.87166 19.0586 5.83366C18.9869 5.90266 18.9345 5.98599 18.9017 6.08366C19.2398 6.23539 19.5535 6.42984 19.8429 6.66699C19.7161 6.71826 19.6115 6.80159 19.5292 6.91699C19.8888 7.10468 20.2288 7.32689 20.5488 7.58366C20.707 7.83781 20.7855 8.11559 20.7841 8.41699C20.6272 8.41699 20.4703 8.41699 20.3135 8.41699C20.1152 8.96474 20.1152 9.57586 20.3135 10.2503Z" fill="#65CDF5"/>
<path fill-rule="evenodd" clip-rule="evenodd" d="M9.01976 5.08371C9.15723 5.0619 9.26181 5.11746 9.33348 5.25038C9.1562 5.43743 9.05162 5.65966 9.01976 5.91705C7.90884 6.8747 6.96766 7.9858 6.19623 9.25038C6.00948 8.74995 6.11405 8.30551 6.50995 7.91705C6.49057 7.81593 6.43828 7.76038 6.35309 7.75038C7.04023 6.63135 7.92911 5.74245 9.01976 5.08371Z" fill="#48ACDF"/>
<path fill-rule="evenodd" clip-rule="evenodd" d="M8.86229 8.08301C8.72049 8.20117 8.6682 8.36784 8.70543 8.58301C8.37724 8.59324 8.14195 8.75991 7.99955 9.08301C7.93699 9.04494 7.91086 8.98937 7.92111 8.91634C7.98265 8.63652 8.06108 8.35876 8.15641 8.08301C8.68734 7.46349 9.15793 6.79682 9.56817 6.08301C9.67275 6.30522 9.67275 6.52746 9.56817 6.74967C9.22984 7.13586 8.99454 7.58031 8.86229 8.08301Z" fill="#60BAE5"/>
<path fill-rule="evenodd" clip-rule="evenodd" d="M24.235 5.25C25.7255 6.33295 26.8759 7.72183 27.686 9.41667C27.3821 9.30082 27.2253 9.46748 27.2154 9.91667C26.8402 9.40037 26.5004 8.84482 26.1958 8.25C25.6442 7.62647 25.0952 7.01535 24.5487 6.41667C24.4297 6.09403 24.2728 5.78848 24.0781 5.5C24.0891 5.37253 24.1413 5.2892 24.235 5.25Z" fill="#49ACDF"/>
<path fill-rule="evenodd" clip-rule="evenodd" d="M8.8629 8.08301C8.83598 8.24827 8.88828 8.35939 9.01976 8.41634C8.60145 8.74967 8.23545 9.13856 7.92172 9.58301C7.73573 9.33946 7.73573 9.11724 7.92172 8.91634C7.91146 8.98937 7.9376 9.04494 8.00015 9.08301C8.14255 8.75991 8.37785 8.59324 8.70603 8.58301C8.66881 8.36784 8.72109 8.20117 8.8629 8.08301Z" fill="#B7DEF0"/>
<path fill-rule="evenodd" clip-rule="evenodd" d="M11.0584 7.25C10.3837 7.99538 9.7301 8.77315 9.09762 9.58333C9.02021 9.85568 8.99406 10.1335 9.01919 10.4167C9.42276 10.3581 9.78879 10.4414 10.1172 10.6667C9.41563 10.9623 9.12803 11.49 9.25448 12.25C9.53752 11.0478 10.0342 10.9367 10.7447 11.9167C10.5435 12.1966 10.2821 12.4188 9.96036 12.5833C9.8865 12.3499 9.78192 12.1276 9.64664 11.9167C9.2793 13.2771 9.01785 13.2493 8.86232 11.8333C8.63026 11.5301 8.42112 11.2245 8.23487 10.9167C8.39345 10.5996 8.41959 10.2663 8.3133 9.91667C8.28775 10.2793 8.15702 10.5849 7.92115 10.8333C7.74858 10.9053 7.644 10.822 7.60742 10.5833C7.68218 10.2339 7.78676 9.90058 7.92115 9.58333C8.23487 9.13888 8.60088 8.75 9.01919 8.41667C10.2486 7.75032 10.9545 6.69477 11.1368 5.25C11.4326 5.91895 11.4065 6.58562 11.0584 7.25Z" fill="#4DB1E2"/>
<path fill-rule="evenodd" clip-rule="evenodd" d="M6.35327 7.75C6.43846 7.76 6.49074 7.81555 6.51013 7.91667C6.11422 8.30513 6.00966 8.74957 6.1964 9.25C5.53747 10.4817 5.01458 11.7595 4.62778 13.0833C4.48597 13.2015 4.43369 13.3682 4.47091 13.5833C4.31405 13.5833 4.15719 13.5833 4.00033 13.5833C3.86365 14.9666 3.81135 16.3555 3.84346 17.75C3.36279 14.0575 4.19938 10.7242 6.35327 7.75Z" fill="#459BD1"/>
<path fill-rule="evenodd" clip-rule="evenodd" d="M17.4899 9.24967C18.3373 10.3873 18.3111 11.4984 17.4115 12.583C17.3771 12.3433 17.2987 12.1211 17.1762 11.9163C16.5953 13.3113 15.6542 14.3113 14.3527 14.9163C14.3874 14.7105 14.492 14.5439 14.6664 14.4163C14.5365 14.2639 14.3797 14.1528 14.1958 14.083C14.0034 14.2268 13.7943 14.2268 13.5684 14.083C14.4028 13.8126 15.1349 13.3404 15.7644 12.6663C15.3088 12.0467 15.0735 11.3522 15.0586 10.583C15.6197 10.8484 16.0118 11.1817 16.235 11.583C16.5304 11.5204 16.7657 11.3537 16.9409 11.083C17.0124 10.8757 16.934 10.7368 16.7056 10.6663C16.7928 10.6026 16.8451 10.5192 16.8625 10.4163C16.9669 9.99506 17.0714 9.55061 17.1762 9.08301C17.2833 9.14346 17.388 9.19902 17.4899 9.24967Z" fill="#62C7F0"/>
<path fill-rule="evenodd" clip-rule="evenodd" d="M20.3139 10.25C20.3015 10.4884 20.3538 10.7106 20.4708 10.9167C20.3884 11.0321 20.2838 11.1154 20.1571 11.1667C20.4138 12.327 20.2308 13.4103 19.608 14.4167C19.5795 13.9623 19.5011 13.5179 19.3727 13.0833C19.2604 13.4137 19.0774 13.6915 18.8237 13.9167C18.7847 13.7293 18.7062 13.5627 18.5884 13.4167C18.288 13.6785 18.1312 14.0119 18.1178 14.4167C17.9616 14.431 17.8309 14.3754 17.7257 14.25C16.985 14.4962 16.2267 14.774 15.4512 15.0833C15.8943 14.4772 16.3387 13.8661 16.7845 13.25C16.8206 13.9138 17.0297 14.0249 17.412 13.5833C17.9075 12.9195 18.2996 12.1973 18.5884 11.4167C18.939 11.2954 19.2265 11.0731 19.4512 10.75C19.7037 10.4036 19.8606 10.0703 19.9218 9.75C20.0554 9.92845 20.1861 10.0951 20.3139 10.25Z" fill="#55BDEA"/>
<path fill-rule="evenodd" clip-rule="evenodd" d="M14.3531 11.2497C14.523 11.2431 14.6799 11.1875 14.8237 11.083C14.9085 11.6219 15.1177 12.0942 15.4512 12.4997C15.2483 12.5813 15.0391 12.6091 14.8237 12.583C14.5926 13.4053 14.122 13.5997 13.4119 13.1663C14.0179 13.0659 14.3055 12.7048 14.2747 12.083C13.7299 12.1736 13.207 12.3402 12.7061 12.583C12.7367 12.2088 12.9197 11.9033 13.2551 11.6663C13.6772 11.6404 14.0432 11.5015 14.3531 11.2497Z" fill="#6AC7EF"/>
<path fill-rule="evenodd" clip-rule="evenodd" d="M8.23528 10.9163C8.42152 11.2241 8.63066 11.5297 8.86273 11.833C9.01826 13.2489 9.2797 13.2767 9.64704 11.9163C9.78232 12.1273 9.8869 12.3495 9.96077 12.583C9.32855 13.4574 9.0671 14.4297 9.17645 15.4996C9.28103 15.6107 9.3856 15.7218 9.49018 15.833C8.93261 15.9318 8.46202 15.7651 8.07841 15.333C8.09578 15.046 8.17421 15.0183 8.31371 15.2496C8.38944 15.0916 8.41559 14.925 8.39214 14.7496C8.549 14.7496 8.70586 14.7496 8.86273 14.7496C8.88861 14.1913 8.86246 13.6358 8.78429 13.083C8.7266 12.848 8.59589 12.6813 8.39214 12.583C7.92842 13.0134 7.48397 13.4578 7.0588 13.9163C6.91448 14.3843 7.0452 14.7454 7.45096 14.9996C7.06848 15.1133 6.72862 15.03 6.43135 14.7496C6.31223 14.9406 6.20765 15.1073 6.11763 15.2496C5.70651 15.1184 5.41891 14.8407 5.25488 14.4163C5.61829 13.9467 6.01044 13.5023 6.43135 13.083C6.31145 12.2751 6.52061 11.5529 7.0588 10.9163C7.39747 10.5069 7.52818 10.618 7.45096 11.2496C7.76685 11.2677 8.02829 11.1566 8.23528 10.9163Z" fill="#389BD3"/>
<path fill-rule="evenodd" clip-rule="evenodd" d="M27.6864 9.41649C29.138 12.1143 29.6086 15.0032 29.0982 18.0832C29.1242 16.7487 29.0982 15.4153 29.0197 14.0832C28.9548 14.1594 28.8764 14.2149 28.7844 14.2498C28.6798 15.164 28.5753 16.0529 28.4707 16.9165C28.69 14.4416 28.2718 12.1083 27.2158 9.91649C27.2257 9.46731 27.3826 9.30064 27.6864 9.41649Z" fill="#4299D0"/>
<path fill-rule="evenodd" clip-rule="evenodd" d="M18.5886 11.4166C18.2998 12.1972 17.9077 12.9194 17.4121 13.5832C17.0299 14.0248 16.8208 13.9137 16.7847 13.2499C16.3389 13.866 15.8945 14.4771 15.4514 15.0832C14.7493 15.2761 14.1741 15.665 13.7259 16.2499C12.9776 16.8937 12.5071 17.7271 12.3141 18.7499C12.3666 20.4199 13.1509 21.5311 14.667 22.0832C14.33 22.4134 14.4346 22.6357 14.9808 22.7499C15.2885 23.0027 15.6546 23.1139 16.0788 23.0832C16.372 23.0821 16.6335 23.0266 16.8631 22.9166C17.158 22.9617 17.3671 22.8506 17.4906 22.5832C17.9133 22.5111 18.2532 22.2889 18.5102 21.9166C18.5585 22.0512 18.6369 22.1624 18.7455 22.2499C18.9337 22.0781 19.143 21.9391 19.3729 21.8332C20.3583 20.8412 21.2995 19.7857 22.1964 18.6666C22.6041 18.3674 23.0225 18.1174 23.4514 17.9166C24.9982 17.7271 25.7301 18.4492 25.6474 20.0832C25.5342 20.1529 25.4557 20.2639 25.4121 20.4166C25.3792 20.1569 25.3008 19.9347 25.1768 19.7499C25.0399 18.8992 24.5693 18.5382 23.7651 18.6666C22.2956 19.5331 21.0407 20.6721 20.0004 22.0832C19.3666 22.6441 18.687 23.1441 17.9612 23.5832C17.8526 23.4957 17.7742 23.3846 17.7259 23.2499C16.6192 23.8817 15.495 23.9096 14.3533 23.3332C13.6688 22.7486 12.989 22.1652 12.3141 21.5832C11.929 21.0419 11.6675 20.4307 11.5298 19.7499C11.3501 18.3334 11.7684 17.1667 12.7847 16.2499C13.2661 15.7371 13.789 15.2926 14.3533 14.9166C15.6548 14.3115 16.596 13.3115 17.1768 11.9166C17.2994 12.1214 17.3778 12.3436 17.4121 12.5832C18.3117 11.4987 18.3379 10.3875 17.4906 9.24992C17.3715 8.92728 17.2146 8.62173 17.02 8.33325C17.1348 8.039 17.3439 7.84455 17.6474 7.74992C17.5651 7.63452 17.4604 7.55118 17.3337 7.49992C15.309 7.13423 13.5312 7.66202 12.0004 9.08325C11.2367 9.58942 10.6093 10.2283 10.118 10.9999C10.4568 11.2219 10.7706 11.4719 11.0592 11.7499C11.0056 11.8896 10.901 11.9452 10.7455 11.9166C10.035 10.9366 9.53832 11.0477 9.25527 12.2499C9.12883 11.4899 9.41642 10.9622 10.118 10.6666C9.78958 10.4413 9.42356 10.358 9.01998 10.4166C8.99485 10.1334 9.021 9.8556 9.09841 9.58325C9.7309 8.77307 10.3845 7.9953 11.0592 7.24992C11.0592 7.36103 11.1115 7.41658 11.2161 7.41658C10.6413 8.05528 10.0923 8.72195 9.569 9.41658C9.27196 9.98615 9.45497 10.1806 10.118 9.99992C10.8825 8.93747 11.7714 8.0208 12.7847 7.24992C13.7044 7.00462 14.6456 6.83795 15.6082 6.74992C15.5334 6.58698 15.4289 6.4481 15.2945 6.33325C17.0413 6.20643 18.244 7.01198 18.9023 8.74992C18.6408 8.74992 18.3795 8.74992 18.118 8.74992C18.5212 9.58587 18.678 10.4747 18.5886 11.4166Z" fill="#EEF5F8"/>
<path fill-rule="evenodd" clip-rule="evenodd" d="M14.3534 11.2503C13.7498 11.2818 13.1746 11.2818 12.6279 11.2503C12.8371 10.917 13.0985 10.6392 13.4122 10.417C13.7647 10.5627 14.1307 10.6183 14.5103 10.5837C14.5209 10.8268 14.4686 11.049 14.3534 11.2503Z" fill="#71CCF2"/>
<path fill-rule="evenodd" clip-rule="evenodd" d="M12.9407 10.0837C12.2596 10.5863 11.6322 11.1419 11.0584 11.7503C10.7697 11.4723 10.456 11.2223 10.1172 11.0003C10.6085 10.2287 11.2359 9.58983 11.9995 9.08366C12.2239 9.09686 12.4331 9.04129 12.627 8.91699C12.9297 9.28399 13.0343 9.67288 12.9407 10.0837Z" fill="#56BDEB"/>
<path fill-rule="evenodd" clip-rule="evenodd" d="M17.4902 9.24995C17.3882 9.1993 17.2836 9.14373 17.1765 9.08328C17.0717 9.55088 16.9672 9.99533 16.8627 10.4166C16.9093 9.8793 16.8047 9.3793 16.549 8.91661C16.4196 8.769 16.2627 8.71345 16.0784 8.74995C16.1031 8.97885 16.0769 9.20108 16 9.41661C15.8769 9.11895 15.694 8.86895 15.451 8.66661C14.563 8.47136 13.8309 8.74915 13.2549 9.49995C13.4805 9.53643 13.6896 9.61976 13.8824 9.74995C13.5826 9.91273 13.2689 10.0238 12.9412 10.0833C13.0347 9.6725 12.9301 9.28361 12.6275 8.91661C12.4335 9.04091 12.2244 9.09648 12 9.08328C13.5309 7.66205 15.3086 7.13426 17.3333 7.49995C17.4601 7.55121 17.5647 7.63455 17.6471 7.74995C17.3435 7.84458 17.1344 8.03903 17.0196 8.33328C17.2143 8.62176 17.3711 8.92731 17.4902 9.24995Z" fill="#76D6F9"/>
<path fill-rule="evenodd" clip-rule="evenodd" d="M4.62746 13.083C3.76497 19.4433 5.90876 24.2488 11.0588 27.4997C16.3084 29.8257 21.0143 28.9645 25.1765 24.9163C25.3079 24.8593 25.3603 24.7483 25.3333 24.583C26.3751 23.4833 27.1856 22.2055 27.7647 20.7497C28.1148 19.495 28.3501 18.2172 28.4706 16.9163C28.5752 16.0528 28.6797 15.1639 28.7843 14.2497C28.8762 14.2148 28.9547 14.1592 29.0196 14.083C29.098 15.4152 29.1241 16.7485 29.098 18.083C28.0424 23.9278 24.8005 27.65 19.3726 29.2497C18.0753 29.4797 16.7682 29.5907 15.451 29.583C15.0327 29.5275 14.6144 29.4718 14.1961 29.4163C13.7248 29.1202 13.2019 28.9535 12.6275 28.9163C7.65711 27.023 4.729 23.3007 3.84315 17.7497C3.81104 16.3552 3.86333 14.9663 4.00001 13.583C4.15687 13.583 4.31373 13.583 4.4706 13.583C4.43337 13.3678 4.48566 13.2012 4.62746 13.083Z" fill="#247BBE"/>
<path fill-rule="evenodd" clip-rule="evenodd" d="M22.8239 23.9167C22.6148 23.9722 22.4056 24.0278 22.1965 24.0833C22.1718 23.8545 22.198 23.6322 22.2749 23.4167C22.4343 23.2277 22.5389 23.2832 22.5886 23.5833C22.8616 23.3807 23.0184 23.103 23.0592 22.75C23.1547 23.1775 23.0763 23.5665 22.8239 23.9167Z" fill="#3F87C2"/>
<path fill-rule="evenodd" clip-rule="evenodd" d="M12.3136 21.5835C12.9886 22.1655 13.6683 22.7488 14.3528 23.3335C15.4946 23.9098 16.6187 23.882 17.7254 23.2502C17.7737 23.3848 17.8521 23.496 17.9607 23.5835C18.6865 23.1443 19.3662 22.6443 19.9999 22.0835C20.2934 22.0237 20.5287 21.857 20.7058 21.5835C20.8954 21.609 21.0783 21.6645 21.2548 21.7502C20.3663 23.2215 19.1638 24.3048 17.647 25.0002C17.8231 25.1742 18.0322 25.2852 18.2744 25.3335C17.5105 25.668 17.615 25.8347 18.5881 25.8335C17.9822 26.0592 17.3547 26.1425 16.7058 26.0835C16.5277 25.8188 16.3185 25.7633 16.0783 25.9168C16.1607 26.0322 16.2653 26.1155 16.3921 26.1668C15.7779 26.2675 15.255 26.073 14.8234 25.5835C14.814 25.493 14.7617 25.4375 14.6666 25.4168C14.3493 25.6957 13.9833 25.8068 13.5685 25.7502C13.3646 25.529 13.1554 25.3068 12.9411 25.0835C12.9934 24.9723 13.0457 24.8613 13.0979 24.7502C11.8311 24.0155 10.8899 22.9598 10.2744 21.5835C10.546 21.1482 10.7813 21.2037 10.9803 21.7502C11.0326 21.639 11.0849 21.528 11.1372 21.4168C11.5144 21.9363 11.9066 21.9918 12.3136 21.5835Z" fill="#1979BD"/>
<path fill-rule="evenodd" clip-rule="evenodd" d="M14.9805 22.75C15.6026 22.8603 16.23 22.9158 16.8628 22.9167C16.6332 23.0267 16.3717 23.0822 16.0785 23.0833C15.6543 23.114 15.2882 23.0028 14.9805 22.75Z" fill="#6FA3CD"/>
<path fill-rule="evenodd" clip-rule="evenodd" d="M12.3135 18.75C12.7014 18.8848 13.0674 18.9403 13.4115 18.9167C13.6155 19.2407 13.7724 19.574 13.8821 19.9167C14.6227 21.5428 15.5377 21.654 16.6272 20.25C16.7645 20.9332 16.6336 21.5443 16.235 22.0833C16.5693 22.219 16.9353 22.3023 17.3331 22.3333C17.4203 22.3972 17.4725 22.4805 17.4899 22.5833C17.3665 22.8507 17.1574 22.9618 16.8625 22.9167C16.2297 22.9158 15.6022 22.8603 14.9801 22.75C14.434 22.6358 14.3294 22.4135 14.6664 22.0833C13.1503 21.5312 12.366 20.42 12.3135 18.75Z" fill="#2485C5"/>
<path fill-rule="evenodd" clip-rule="evenodd" d="M25.4902 17.4163C25.9385 17.4321 26.3045 17.6266 26.5882 17.9996C26.3217 19.0984 26.1387 20.2373 26.0392 21.4163C25.8552 22.0558 25.5415 22.6114 25.098 23.0829C25.0458 22.9163 24.9934 22.7496 24.9412 22.5829C24.5103 23.1253 24.0135 23.5696 23.451 23.9163C23.2703 24.1038 23.1134 24.1038 22.9804 23.9163C23.7481 23.5198 24.2447 22.9088 24.4706 22.0829C24.1589 22.3476 23.819 22.4864 23.451 22.4996C23.9573 22.2391 24.2973 21.8224 24.4706 21.2496C24.7851 20.0846 24.3929 19.6123 23.2941 19.8329C22.5879 20.4446 21.9082 21.0834 21.2549 21.7496C21.0784 21.6639 20.8955 21.6084 20.7059 21.5829C20.5288 21.8564 20.2935 22.0231 20 22.0829C21.0403 20.6718 22.2952 19.5328 23.7647 18.6663C24.5689 18.5379 25.0395 18.8989 25.1765 19.7496C25.1371 20.4379 25.1371 21.1046 25.1765 21.7496C25.4006 21.3404 25.6097 20.9238 25.8039 20.4996C25.7658 20.3493 25.7134 20.2104 25.6471 20.0829C25.7297 18.4489 24.9978 17.7268 23.451 17.9163C23.3823 17.9271 23.3299 17.8994 23.2941 17.8329C23.9818 17.4649 24.7139 17.3261 25.4902 17.4163Z" fill="#2981C1"/>
<path fill-rule="evenodd" clip-rule="evenodd" d="M25.4903 17.4167C24.7139 17.3265 23.9819 17.4653 23.2942 17.8333C23.3299 17.8998 23.3823 17.9275 23.451 17.9167C23.0222 18.1175 22.6038 18.3675 22.1961 18.6667C21.2992 19.7858 20.358 20.8413 19.3726 21.8333C19.1426 21.9392 18.9334 22.0782 18.7452 22.25C18.6366 22.1625 18.5582 22.0513 18.5099 21.9167C18.2529 22.289 17.913 22.5112 17.4903 22.5833C17.4728 22.4805 17.4206 22.3972 17.3334 22.3333C16.9356 22.3023 16.5696 22.219 16.2354 22.0833C17.6959 22.1 18.4802 21.3223 18.5883 19.75C18.8029 20.1062 18.9597 20.495 19.0589 20.9167C20.1757 19.9883 20.8032 18.7662 20.9412 17.25C21.2302 17.6442 21.5179 18.033 21.804 18.4167C22.3533 17.7208 22.9546 17.082 23.6079 16.5C23.972 16.3606 24.3381 16.305 24.7059 16.3333C24.2801 16.4791 24.071 16.7847 24.0785 17.25C24.5825 17.1983 25.0531 17.2538 25.4903 17.4167Z" fill="#388FCA"/>
<path fill-rule="evenodd" clip-rule="evenodd" d="M11.5296 19.7495C11.6673 20.4304 11.9288 21.0415 12.3139 21.5829C11.9068 21.9912 11.5147 21.9357 11.1374 21.4162C11.0851 21.5274 11.0328 21.6384 10.9805 21.7495C10.7816 21.203 10.5463 21.1475 10.2747 21.5829C10.0804 21.2972 9.97583 20.9639 9.96093 20.5829C9.93141 19.6182 10.036 18.6737 10.2747 17.7495C10.4765 17.5382 10.6334 17.5937 10.7452 17.9162C10.9392 18.0405 11.1483 18.096 11.3727 18.0829C11.3236 18.6732 11.3759 19.2287 11.5296 19.7495Z" fill="#2084C5"/>
<path fill-rule="evenodd" clip-rule="evenodd" d="M25.176 19.75C25.2999 19.9348 25.3784 20.157 25.4113 20.4167C25.4549 20.264 25.5333 20.153 25.6466 20.0833C25.713 20.2108 25.7653 20.3497 25.8035 20.5C25.6093 20.9242 25.4002 21.3408 25.176 21.75C25.1366 21.105 25.1366 20.4383 25.176 19.75Z" fill="#A5C7DF"/>
<path fill-rule="evenodd" clip-rule="evenodd" d="M10.2743 17.75C10.0356 18.6742 9.93107 19.6187 9.96059 20.5833C9.70735 19.6002 9.81193 18.6558 10.2743 17.75Z" fill="#84B8D9"/>
<path fill-rule="evenodd" clip-rule="evenodd" d="M18.5885 17.75C18.6931 17.9722 18.7976 18.1945 18.9022 18.4167C18.8368 18.7742 18.68 18.8853 18.4316 18.75C18.5647 18.4318 18.6171 18.0985 18.5885 17.75Z" fill="#9BC3DD"/>
<path fill-rule="evenodd" clip-rule="evenodd" d="M13.7252 16.25C14.2166 16.3933 14.6872 16.56 15.137 16.75C14.1132 17.508 13.695 18.5637 13.8821 19.9167C13.7724 19.574 13.6155 19.2407 13.4115 18.9167C13.0674 18.9403 12.7014 18.8848 12.3135 18.75C12.5064 17.7272 12.977 16.8938 13.7252 16.25Z" fill="#3A9CD4"/>
<path fill-rule="evenodd" clip-rule="evenodd" d="M12.7842 16.2496C11.768 17.1664 11.3497 18.3331 11.5293 19.7496C11.3757 19.2287 11.3234 18.6732 11.3725 18.0829C11.1481 18.0961 10.9389 18.0406 10.745 17.9162C10.6332 17.5937 10.4763 17.5382 10.2744 17.7496C10.5626 16.8887 11.0332 16.1665 11.6862 15.5829C12.2379 15.4047 12.6039 15.6269 12.7842 16.2496Z" fill="#3D9DD4"/>
<path fill-rule="evenodd" clip-rule="evenodd" d="M19.8428 16.4163C19.8778 16.7233 19.9302 17.0288 19.9997 17.333C19.9982 17.567 19.9198 17.7613 19.7644 17.9163C19.7586 17.504 19.6279 17.1707 19.3722 16.9163C19.0387 16.812 18.7772 16.5899 18.5879 16.2497C18.6401 16.1941 18.6925 16.1386 18.7448 16.083C19.077 16.324 19.4429 16.4351 19.8428 16.4163Z" fill="#49A7DB"/>
<path fill-rule="evenodd" clip-rule="evenodd" d="M19.0587 17.0837C19.1824 17.1308 19.2871 17.2142 19.3724 17.3337C19.1336 17.653 18.9768 18.0142 18.9018 18.417C18.7972 18.1948 18.6927 17.9725 18.5881 17.7503C18.2482 17.634 17.9606 17.4118 17.7253 17.0837C17.3605 17.3025 17.1514 17.6358 17.0979 18.0837C16.3349 17.1675 16.4657 16.612 17.49 16.417C17.6169 16.1183 17.6954 15.785 17.7253 15.417C18.1354 16.0154 18.5799 16.571 19.0587 17.0837Z" fill="#4EA8DB"/>
<path fill-rule="evenodd" clip-rule="evenodd" d="M19.5298 15.5833C19.9067 15.5655 20.1943 15.7322 20.3925 16.0833C20.4874 16.4392 20.409 16.4948 20.1572 16.25C19.823 16.1144 19.457 16.031 19.0592 16C19.007 15.9444 18.9546 15.8889 18.9023 15.8333C19.1467 15.7983 19.3558 15.715 19.5298 15.5833Z" fill="#4CACDE"/>
<path fill-rule="evenodd" clip-rule="evenodd" d="M18.4311 15.417C18.7929 15.4991 19.1588 15.5546 19.5292 15.5837C19.3552 15.7153 19.1461 15.7987 18.9017 15.8337C18.954 15.8892 19.0063 15.9448 19.0586 16.0003C19.4564 16.0314 19.8223 16.1147 20.1566 16.2503C20.001 16.2217 19.8965 16.2773 19.8429 16.417C19.443 16.4358 19.0771 16.3246 18.7449 16.0837C18.6926 16.1392 18.6402 16.1948 18.588 16.2503C18.7773 16.5905 19.0388 16.8127 19.3723 16.917C19.2167 16.8883 19.1122 16.944 19.0586 17.0837C18.5798 16.571 18.1353 16.0154 17.7252 15.417C17.6953 15.785 17.6169 16.1183 17.49 16.417C17.57 15.9357 17.4655 15.5468 17.1762 15.2503C17.1557 15.1043 17.2079 14.9931 17.3331 14.917C17.7124 15.0765 18.0521 15.2987 18.3527 15.5837C18.4153 15.5456 18.4413 15.49 18.4311 15.417Z" fill="#C5DFED"/>
<path fill-rule="evenodd" clip-rule="evenodd" d="M18.1177 14.4167C18.2446 14.5781 18.4015 14.717 18.5883 14.8333C18.239 14.9507 18.1868 15.1451 18.4315 15.4167C18.4417 15.4897 18.4156 15.5453 18.353 15.5833C18.0525 15.2984 17.7127 15.0762 17.3334 14.9167C17.2083 14.9928 17.156 15.1039 17.1766 15.25C16.4694 15.7089 15.7897 16.2089 15.1374 16.75C14.6875 16.56 14.2169 16.3933 13.7256 16.25C14.1739 15.6651 14.749 15.2762 15.4511 15.0833C16.2266 14.774 16.9849 14.4962 17.7256 14.25C17.8308 14.3754 17.9615 14.431 18.1177 14.4167Z" fill="#49AFE1"/>
<path fill-rule="evenodd" clip-rule="evenodd" d="M13.5689 14.083C13.7948 14.2268 14.004 14.2268 14.1963 14.083C14.3802 14.1528 14.537 14.2639 14.6669 14.4163C14.4925 14.5439 14.3879 14.7105 14.3532 14.9163C13.7889 15.2924 13.266 15.7368 12.7846 16.2497C12.6043 15.627 12.2383 15.4048 11.6865 15.583C12.2004 14.9212 12.8278 14.4212 13.5689 14.083Z" fill="#48AFE1"/>
<path fill-rule="evenodd" clip-rule="evenodd" d="M23.6083 24.083C23.8174 24.083 24.0267 24.083 24.2358 24.083C24.1835 24.1942 24.1311 24.3052 24.0789 24.4163C23.9937 24.4263 23.9415 24.4818 23.922 24.583C24.0789 24.6942 24.2358 24.8052 24.3926 24.9163C24.3103 25.0317 24.2056 25.115 24.0789 25.1663C23.3013 25.3387 22.5692 25.2553 21.8828 24.9163C22.475 24.6852 23.0502 24.4073 23.6083 24.083Z" fill="#307EBE"/>
<path fill-rule="evenodd" clip-rule="evenodd" d="M22.8233 23.917C22.8755 23.917 22.9279 23.917 22.9801 23.917C23.1131 24.1045 23.27 24.1045 23.4507 23.917C23.4507 24.0282 23.5029 24.0837 23.6076 24.0837C23.0495 24.408 22.4742 24.6858 21.8821 24.917C21.7583 24.8698 21.6537 24.7865 21.5684 24.667C21.7622 24.4357 21.9713 24.2413 22.1958 24.0837C22.4049 24.0282 22.6142 23.9725 22.8233 23.917Z" fill="#86AECE"/>
<path fill-rule="evenodd" clip-rule="evenodd" d="M24.235 24.083C24.6458 24.1538 25.0119 24.3205 25.333 24.583C25.36 24.7483 25.3076 24.8593 25.1762 24.9163C24.9352 24.4843 24.5693 24.3177 24.0781 24.4163C24.1304 24.3052 24.1828 24.1942 24.235 24.083Z" fill="#91B5D0"/>
<path fill-rule="evenodd" clip-rule="evenodd" d="M11.2156 24.417C11.637 24.611 12.0031 24.9165 12.3137 25.3337C11.8949 25.4242 11.5027 25.3408 11.1372 25.0837C10.8779 25.137 10.721 25.3037 10.6666 25.5837C10.6001 25.0583 10.7831 24.6693 11.2156 24.417Z" fill="#3780BE"/>
<path fill-rule="evenodd" clip-rule="evenodd" d="M12.3133 25.7503C12.2959 25.8532 12.2437 25.9365 12.1564 26.0003C11.847 26.0828 11.5333 26.1107 11.2153 26.0837C11.2573 26.3502 11.205 26.5723 11.0584 26.7503C11.0327 26.3025 11.0588 25.858 11.1368 25.417C11.4863 25.6858 11.8784 25.797 12.3133 25.7503Z" fill="#237BBE"/>
<path fill-rule="evenodd" clip-rule="evenodd" d="M14.8235 25.5837C14.6074 25.7578 14.4506 25.98 14.3529 26.2503C13.97 26.4597 13.604 26.4597 13.2549 26.2503C14.0943 26.3455 14.1989 26.1788 13.5686 25.7503C13.9834 25.807 14.3494 25.6958 14.6666 25.417C14.7618 25.4377 14.8141 25.4932 14.8235 25.5837Z" fill="#83ADCC"/>
<path fill-rule="evenodd" clip-rule="evenodd" d="M13.5689 25.7502C14.1991 26.1787 14.0946 26.3454 13.2552 26.2502C12.8562 26.393 12.4902 26.6152 12.1571 26.9169C12.328 27.1017 12.328 27.2684 12.1571 27.4169C11.9439 27.2295 11.787 27.0072 11.6865 26.7502C12.0472 26.4782 12.3609 26.1449 12.6277 25.7502C12.9239 25.621 13.2376 25.621 13.5689 25.7502Z" fill="#2A7DBE"/>
<path fill-rule="evenodd" clip-rule="evenodd" d="M15.6074 26.7502C15.4012 26.9129 15.192 27.0795 14.98 27.2502C14.8221 27.1772 14.8221 27.0662 14.98 26.9169C14.6859 26.7654 14.4768 26.543 14.3525 26.2502C14.9449 25.962 15.3633 26.1287 15.6074 26.7502Z" fill="#3A82C1"/>
<path fill-rule="evenodd" clip-rule="evenodd" d="M14.8231 25.583C15.2547 26.0725 15.7776 26.267 16.3918 26.1663C16.265 26.115 16.1604 26.0317 16.078 25.9163C16.3182 25.7628 16.5274 25.8183 16.7055 26.083C16.3709 26.3342 16.0048 26.5563 15.6074 26.7497C15.3633 26.1282 14.9449 25.9615 14.3525 26.2497C14.4502 25.9793 14.607 25.7572 14.8231 25.583Z" fill="#C7D8E5"/>
<path fill-rule="evenodd" clip-rule="evenodd" d="M12.3135 25.75C12.4181 25.75 12.5226 25.75 12.6272 25.75C12.3604 26.1447 12.0467 26.478 11.686 26.75C11.5656 26.6228 11.4872 26.4562 11.4508 26.25C11.4164 26.4897 11.338 26.7118 11.2155 26.9167C11.1203 26.896 11.068 26.8405 11.0586 26.75C11.2052 26.572 11.2575 26.3498 11.2155 26.0833C11.5335 26.1103 11.8472 26.0825 12.1566 26C12.2438 25.9362 12.2961 25.8528 12.3135 25.75Z" fill="#B8CFDF"/>
<path fill-rule="evenodd" clip-rule="evenodd" d="M12.6279 28.917C13.2024 28.9542 13.7252 29.1208 14.1966 29.417C13.6221 29.3798 13.0992 29.2132 12.6279 28.917Z" fill="#71A2CC"/>
<path fill-rule="evenodd" clip-rule="evenodd" d="M19.3727 29.25C18.8444 29.5098 18.2692 29.6487 17.6473 29.6667C16.8862 29.8025 16.1541 29.7747 15.4512 29.5833C16.7683 29.591 18.0755 29.48 19.3727 29.25Z" fill="#D0DFE9"/>
</g>
<defs>
<clipPath id="clip0_74_414">
<rect width="32" height="32" fill="white"/>
</clipPath>
</defs>
</svg>
