<svg width="32" height="32" viewBox="0 0 32 32" fill="none" xmlns="http://www.w3.org/2000/svg">
<path d="M13.7509 31.8405C14.4125 31.6 14.9836 31.1611 15.3861 30.5838C15.7886 30.0065 16.0029 29.319 15.9996 28.6153C15.9963 27.9116 15.7756 27.2261 15.3677 26.6526C14.9597 26.0791 14.3845 25.6456 13.7207 25.4113C12.5374 24.9944 11.4916 24.2605 10.6975 23.2896C9.90335 22.3187 9.39158 21.1482 9.21809 19.9062C9.04459 18.6641 9.21606 17.3984 9.71374 16.2472C10.2114 15.096 11.0162 14.1037 12.04 13.3789C13.0638 12.654 14.2673 12.2244 15.5188 12.1372C16.7704 12.0499 18.0219 12.3082 19.1365 12.884C20.2511 13.4597 21.1859 14.3307 21.8386 15.4016C22.4914 16.4726 22.8371 17.7023 22.8378 18.9564C22.8374 21.7784 21.9641 24.5312 20.3375 26.8377C18.7109 29.1443 16.4106 30.8917 13.7518 31.8405M15.9127 10.4609C15.2361 10.4609 14.5746 10.2603 14.0119 9.88451C13.4493 9.50873 13.0108 8.97462 12.7518 8.34971C12.4929 7.72481 12.4251 7.03719 12.5571 6.37379C12.6891 5.7104 13.015 5.10104 13.4935 4.62276C13.972 4.14448 14.5816 3.81876 15.2453 3.68681C15.909 3.55485 16.5969 3.62258 17.222 3.88142C17.8472 4.14026 18.3816 4.5786 18.7575 5.14099C19.1334 5.70339 19.3341 6.36459 19.3341 7.04098C19.3341 7.49009 19.2456 7.93479 19.0737 8.34971C18.9017 8.76463 18.6497 9.14164 18.332 9.45921C18.0143 9.77677 17.6371 10.0287 17.222 10.2005C16.8069 10.3724 16.362 10.4609 15.9127 10.4609Z" fill="white"/>
<path d="M15.9931 0C11.9446 0.00349667 8.0479 1.54025 5.08766 4.30075C2.12742 7.06125 0.3236 10.8404 0.0394906 14.8772C-0.244619 18.9139 1.01209 22.9083 3.55651 26.0559C6.10093 29.2035 9.74405 31.2704 13.7521 31.8405C14.4137 31.6 14.9848 31.161 15.3873 30.5837C15.7899 30.0064 16.0041 29.3189 16.0008 28.6152C15.9975 27.9115 15.7768 27.2261 15.3689 26.6525C14.961 26.079 14.3858 25.6455 13.7219 25.4112C12.5382 24.995 11.4918 24.2614 10.6971 23.2907C9.90237 22.32 9.39001 21.1496 9.21602 19.9074C9.04202 18.6652 9.2131 17.3991 9.71054 16.2476C10.208 15.0961 11.0126 14.1034 12.0365 13.3782C13.0603 12.6531 14.264 12.2233 15.5158 12.1359C16.7676 12.0484 18.0193 12.3068 19.1341 12.8826C20.2489 13.4585 21.1838 14.3296 21.8366 15.4008C22.4893 16.472 22.8349 17.702 22.8354 18.9563C22.8352 21.778 21.9622 24.5306 20.3362 26.8371C18.7101 29.1436 16.4104 30.8911 13.7521 31.8405C14.4945 31.9455 15.2433 31.9988 15.9931 32C20.2384 32 24.3098 30.3143 27.3117 27.3137C30.3136 24.3131 32 20.2435 32 16C32 11.7565 30.3136 7.68687 27.3117 4.68629C24.3098 1.68571 20.2384 0 15.9931 0ZM15.9126 10.4608C15.2359 10.4613 14.5742 10.2611 14.0113 9.88562C13.4484 9.51015 13.0095 8.97625 12.7501 8.35144C12.4908 7.72663 12.4227 7.03898 12.5544 6.37547C12.686 5.71195 13.0116 5.10237 13.4899 4.62382C13.9682 4.14528 14.5778 3.81927 15.2414 3.68702C15.9051 3.55477 16.5931 3.62224 17.2185 3.88087C17.8438 4.13951 18.3783 4.5777 18.7545 5.14003C19.1306 5.70235 19.3315 6.36355 19.3317 7.04C19.3319 7.94677 18.9719 8.81652 18.3307 9.45801C17.6896 10.0995 16.8198 10.4602 15.9126 10.4608Z" fill="#004690"/>
</svg>
