<svg width="32" height="32" viewBox="0 0 32 32" fill="none" xmlns="http://www.w3.org/2000/svg">
<path d="M22.7343 14.8542C19.0083 20.1005 16.4934 24.9181 16.4665 24.9614C16.3829 25.0951 16.198 25.4494 15.9916 25.4494H15.9788C15.7776 25.4494 15.5928 25.1056 15.5023 24.9776C15.4456 24.8973 9.83728 16.8609 6.87185 13.7724C6.73748 13.6325 6.76924 13.2964 6.87185 13.1939C6.97437 13.0913 7.1207 13.0041 7.27425 13.0041C7.34858 13.0041 7.42353 12.9984 7.4946 13.0213C9.39169 13.6321 12.1081 14.9327 14.3837 16.0766C15.8969 14.286 21.3626 8.88672 27.0381 4.41758C24.1671 1.68063 20.2797 0 16 0C7.16342 0 0 7.1633 0 16C0 20.1006 1.54322 23.84 4.07969 26.6715L5.82858 16.8995C5.86198 16.7015 6.00513 16.5415 6.19386 16.4875C6.23953 16.4743 6.28715 16.4676 6.33499 16.4676C6.48163 16.4676 6.62144 16.5305 6.71884 16.6402C7.29779 17.2933 7.98431 18.4254 8.75891 19.3982C8.86338 19.5293 8.89709 19.7035 8.8494 19.864L5.94416 28.4443C8.69181 30.6675 12.1901 32 16 32C19.4837 32 22.7069 30.8859 25.3343 28.9956L22.5109 19.9128C22.4658 19.7626 22.4911 19.6027 22.5802 19.4736C22.8423 19.0946 24.1275 17.0478 24.5966 16.417C24.6928 16.2875 24.8467 16.2102 25.0081 16.2102C25.049 16.2102 25.0896 16.2151 25.1292 16.2247C25.329 16.2731 25.4802 16.4357 25.5139 16.639L27.3396 27.2873C30.2197 24.3937 32 20.4048 32 15.9998C32 12.5493 30.9077 9.35399 29.0501 6.74054C26.7123 9.50141 24.4899 12.382 22.7343 14.8542Z" fill="#2D51A0"/>
</svg>
