<svg width="32" height="32" viewBox="0 0 32 32" fill="none" xmlns="http://www.w3.org/2000/svg">
<g clip-path="url(#clip0_74_989)">
<path fill-rule="evenodd" clip-rule="evenodd" d="M-0.0712891 -0.0712891C0.0715681 -0.0712891 0.214425 -0.0712891 0.357282 -0.0712891C0.262044 0.119187 0.119187 0.262044 -0.0712891 0.357282C-0.0712891 0.214425 -0.0712891 0.0715681 -0.0712891 -0.0712891Z" fill="#E6F5FC"/>
<path fill-rule="evenodd" clip-rule="evenodd" d="M0.357282 -0.0712891C10.6906 -0.0712891 21.024 -0.0712891 31.3573 -0.0712891C31.5954 0.0715681 31.7859 0.262044 31.9287 0.50014C31.9287 10.8335 31.9287 21.1669 31.9287 31.5001C31.7383 31.5954 31.5954 31.7383 31.5001 31.9287C21.1669 31.9287 10.8335 31.9287 0.50014 31.9287C0.315137 31.7876 0.124661 31.6447 -0.0712891 31.5001C-0.0712891 21.1191 -0.0712891 10.7382 -0.0712891 0.357282C0.119187 0.262044 0.262044 0.119187 0.357282 -0.0712891Z" fill="#066FFD"/>
<path fill-rule="evenodd" clip-rule="evenodd" d="M31.3574 -0.0712891C31.5479 -0.0712891 31.7384 -0.0712891 31.9289 -0.0712891C31.9289 0.119187 31.9289 0.309664 31.9289 0.50014C31.786 0.262044 31.5956 0.0715681 31.3574 -0.0712891Z" fill="#D2EAF9"/>
<path fill-rule="evenodd" clip-rule="evenodd" d="M25.7854 9.21396C25.246 9.40322 24.6507 9.49846 23.9997 9.49967C23.3787 9.49953 22.7834 9.45192 22.214 9.35682C22.4029 9.09809 22.4743 8.81237 22.4283 8.49967C19.382 5.83687 15.9296 5.1464 12.0711 6.42824C10.6756 7.06254 9.43751 7.91969 8.35686 8.99967C7.44836 9.11833 6.54361 9.09452 5.64258 8.92824C8.79514 4.5669 13.0332 2.87643 18.3569 3.85682C20.3886 4.37256 22.1981 5.30113 23.7854 6.64253C24.0159 6.41063 24.254 6.24396 24.4997 6.14253C24.9983 7.13833 25.4269 8.16214 25.7854 9.21396Z" fill="#F8FBFD"/>
<path fill-rule="evenodd" clip-rule="evenodd" d="M25.7856 9.21387C25.9147 9.31515 25.9623 9.45801 25.9284 9.64244C24.6391 9.6898 23.3534 9.64218 22.0713 9.49958C22.089 9.41291 22.1366 9.3653 22.2141 9.35672C22.7836 9.45182 23.3789 9.49944 23.9999 9.49958C24.6509 9.49837 25.2461 9.40312 25.7856 9.21387Z" fill="#BCDFF4"/>
<path fill-rule="evenodd" clip-rule="evenodd" d="M18.9287 20.9285C18.9763 18.7359 18.9286 16.5455 18.7859 14.357C18.6719 14.4223 18.6243 14.5176 18.643 14.6428C17.7503 16.1076 16.798 17.5362 15.7859 18.9285C14.7786 17.5395 13.8261 16.1109 12.9287 14.6428C12.9201 14.5652 12.8725 14.5176 12.7859 14.4999C12.6431 16.6406 12.5955 18.7835 12.643 20.9285C12.0716 20.9285 11.5001 20.9285 10.9287 20.9285C10.9287 17.6428 10.9287 14.357 10.9287 11.0713C11.5021 11.0477 12.0735 11.0715 12.643 11.1428C13.6748 12.708 14.7224 14.2556 15.7859 15.7856C16.8493 14.2556 17.8969 12.708 18.9287 11.1428C19.4504 11.0715 19.9741 11.0477 20.5001 11.0713C20.5001 14.357 20.5001 17.6428 20.5001 20.9285C19.9763 20.9285 19.4526 20.9285 18.9287 20.9285Z" fill="#F9FBFD"/>
<path fill-rule="evenodd" clip-rule="evenodd" d="M12.9285 14.6429C12.8333 16.7381 12.738 18.8333 12.6428 20.9286C12.5953 18.7836 12.6429 16.6407 12.7857 14.5C12.8723 14.5177 12.9199 14.5653 12.9285 14.6429Z" fill="#7DB0F6"/>
<path fill-rule="evenodd" clip-rule="evenodd" d="M18.9283 20.9289C18.8331 18.8336 18.7379 16.7384 18.6426 14.6431C18.6239 14.518 18.6715 14.4227 18.7855 14.3574C18.9282 16.5459 18.9759 18.7363 18.9283 20.9289Z" fill="#9EC6F3"/>
<path fill-rule="evenodd" clip-rule="evenodd" d="M20.9281 20.2146C21.2519 20.1633 21.5137 20.2586 21.7139 20.5003C21.7579 20.3849 21.8293 20.2896 21.9281 20.2146C22.0641 20.4353 22.1117 20.6735 22.071 20.9289C21.8329 20.9289 21.5949 20.9289 21.3567 20.9289C21.343 20.3845 21.2479 20.3845 21.071 20.9289C20.935 20.7082 20.8874 20.4701 20.9281 20.2146Z" fill="#95C6F0"/>
<path fill-rule="evenodd" clip-rule="evenodd" d="M5.64258 22.3575C6.95328 22.1686 8.28661 22.1686 9.64258 22.3575C9.62492 22.4442 9.57731 22.4917 9.49972 22.5003C8.24004 22.3585 6.95432 22.3107 5.64258 22.3575Z" fill="#2C78DF"/>
<path fill-rule="evenodd" clip-rule="evenodd" d="M5.64258 22.3572C6.95432 22.3105 8.24004 22.3582 9.49972 22.5C9.32805 22.7703 9.13758 23.0323 8.92829 23.2858C12.0565 26.1506 15.6279 26.8649 19.6426 25.4286C20.9872 24.8919 22.13 24.0825 23.0712 23C24.0272 22.8813 24.9794 22.9052 25.9283 23.0715C22.284 27.7949 17.5697 29.3425 11.7854 27.7143C10.2777 27.1158 8.92061 26.2825 7.71401 25.2143C7.55786 25.4785 7.36739 25.7166 7.14258 25.9286C6.56198 24.7679 6.06198 23.5775 5.64258 22.3572Z" fill="#F8FCFD"/>
<path fill-rule="evenodd" clip-rule="evenodd" d="M-0.0712891 31.5C0.124661 31.6446 0.315137 31.7874 0.50014 31.9286C0.309664 31.9286 0.119187 31.9286 -0.0712891 31.9286C-0.0712891 31.7857 -0.0712891 31.6429 -0.0712891 31.5Z" fill="#D3E7F9"/>
<path fill-rule="evenodd" clip-rule="evenodd" d="M31.9286 31.5C31.9286 31.6429 31.9286 31.7857 31.9286 31.9286C31.7857 31.9286 31.6429 31.9286 31.5 31.9286C31.5953 31.7381 31.7381 31.5953 31.9286 31.5Z" fill="#E2F3FC"/>
</g>
<defs>
<clipPath id="clip0_74_989">
<rect width="32" height="32" fill="white"/>
</clipPath>
</defs>
</svg>
