<svg width="32" height="32" viewBox="0 0 32 32" fill="none" xmlns="http://www.w3.org/2000/svg">
    <g clip-path="url(#clip0_1492_381)">
        <path
            d="M20.2381 5.05237V5.06231L26.4882 17.3054H29.0727H31.6484L30.356 14.7792L24.1148 2.52619L22.8226 0H17.6626V0.00994469L18.9548 2.52619L20.2381 5.05237Z"
            fill="url(#paint0_linear_1492_381)" />
        <path
            d="M22.0758 25.9585H9.57563L8.28342 28.4845L7 31.0108H9.57563H22.0758H24.6514L27.227 25.9585H24.6514H22.0758Z"
            fill="url(#paint1_linear_1492_381)" />
        <path
            d="M20.2352 22.3577H25.3952L25.9401 23.4219L27.2324 25.9481H24.6568H22.0811L20.2352 22.3577ZM11.4094 5.05237L13.2466 8.64274V8.65268L14.5388 11.1789L15.831 13.705V13.715V13.7249L17.6683 17.3153H17.6771H22.8371L19.69 11.1789L18.3979 8.65268V8.64274L15.8222 3.6003L15.2772 2.52619L13.985 0H8.82495V0.00994469L10.1172 2.53612L11.4094 5.05237Z"
            fill="url(#paint2_linear_1492_381)" />
        <path
            d="M5.16006 17.3091L11.4101 5.06604V5.0561L10.1179 2.52992L8.82573 0.0136719L7.5423 2.52992L1.29221 14.7829L0 17.3091L2.29434 22.3614H2.58442L3.86784 19.8353L5.16006 17.3091Z"
            fill="url(#paint3_linear_1492_381)" />
        <path
            d="M18.407 8.65269L15.8226 3.60032L16.3677 2.52619L17.6598 0L18.9521 2.52619L20.2443 5.05237V5.06231L18.407 8.65269ZM9.57254 25.958L11.4098 22.3676H11.4186L12.7108 19.8414L14.003 17.3153L15.8226 13.715V13.7051L14.5304 11.1789L13.2382 8.65269L11.9548 11.1789L8.83412 17.3054H8.82534L6.24971 22.3577L5.70468 23.4219L4.41248 25.9481L6.70681 31.0005H6.99691L8.28911 28.4743L9.57254 25.958Z"
            fill="url(#paint4_linear_1492_381)" />
        <path
            d="M26.4852 22.358H25.3953H20.2351H13.9851H11.4094L12.7017 19.8319L13.9939 17.3057H17.6595H17.6683H22.8284H26.5028H29.0785H31.6454L29.0697 22.358H26.4852ZM5.15937 17.3057L3.86716 19.8319L2.57495 22.358H5.15058H6.2406L8.81623 17.3057H5.15937Z"
            fill="url(#paint5_linear_1492_381)" />
        <path
            d="M5.15937 17.3057L3.86716 19.8319L2.57495 22.358H5.15058H6.2406L8.81623 17.3057H5.15937Z"
            fill="url(#paint6_linear_1492_381)" />
    </g>
    <defs>
        <linearGradient id="paint0_linear_1492_381" x1="30.045" y1="18.4345" x2="17.2531"
            y2="0.289423" gradientUnits="userSpaceOnUse">
            <stop stop-color="#49506A" />
            <stop offset="0.9998" stop-color="#353952" />
        </linearGradient>
        <linearGradient id="paint1_linear_1492_381" x1="6.99805" y1="28.4817" x2="27.2314"
            y2="28.4817" gradientUnits="userSpaceOnUse">
            <stop stop-color="#C6AEA6" />
            <stop offset="0.212" stop-color="#D6C2BC" />
            <stop offset="0.4732" stop-color="#E4D6D0" />
            <stop offset="0.7358" stop-color="#EDE2DE" />
            <stop offset="0.9998" stop-color="#F1E7E2" />
        </linearGradient>
        <linearGradient id="paint2_linear_1492_381" x1="25.751" y1="26.9945" x2="7.42086"
            y2="0.993793" gradientUnits="userSpaceOnUse">
            <stop offset="1.30208e-05" stop-color="#22223B" />
            <stop offset="1" stop-color="#C6AEA6" />
        </linearGradient>
        <linearGradient id="paint3_linear_1492_381" x1="0" y1="11.1871" x2="11.408" y2="11.1871"
            gradientUnits="userSpaceOnUse">
            <stop stop-color="#832247" />
            <stop offset="0.9996" stop-color="#9B8C96" />
        </linearGradient>
        <linearGradient id="paint4_linear_1492_381" x1="4.41228" y1="15.5079" x2="20.2376"
            y2="15.5079" gradientUnits="userSpaceOnUse">
            <stop stop-color="#49506A" />
            <stop offset="1" stop-color="#F1E7E2" />
        </linearGradient>
        <linearGradient id="paint5_linear_1492_381" x1="2.58199" y1="19.8326" x2="31.6454"
            y2="19.8326" gradientUnits="userSpaceOnUse">
            <stop stop-color="#353952" />
            <stop offset="0.9999" stop-color="#9B8C96" />
        </linearGradient>
        <linearGradient id="paint6_linear_1492_381" x1="2.58199" y1="19.8326" x2="8.82462"
            y2="19.8326" gradientUnits="userSpaceOnUse">
            <stop offset="1.30208e-05" stop-color="#832247" />
            <stop offset="1" stop-color="#353952" />
        </linearGradient>
        <clipPath id="clip0_1492_381">
            <rect width="32" height="32" fill="white" />
        </clipPath>
    </defs>
</svg>