<svg width="32" height="32" viewBox="0 0 32 32" fill="none" xmlns="http://www.w3.org/2000/svg">
    <path
        d="M16.5042 13.7239L23.3324 0.42395C23.3969 0.3071 23.4825 0.208361 23.5834 0.134797C23.6842 0.061232 23.7977 0.014659 23.9157 -0.00159125C24.0336 -0.0178415 24.1532 -0.00336737 24.2659 0.0407958C24.3786 0.0849591 24.4815 0.15772 24.5673 0.253875V13.8599C24.008 11.3088 16.6568 26.7602 15.8505 25.8673V14.1576C15.9829 14.1619 16.1137 14.1238 16.229 14.0474C16.3442 13.9709 16.4394 13.8591 16.5042 13.7239Z"
        fill="url(#paint0_linear_1263_176)" />
    <path
        d="M15.1968 13.7239L8.36855 0.42395C8.30412 0.3071 8.21843 0.208361 8.11761 0.134797C8.01678 0.061232 7.90332 0.014659 7.78533 -0.00159125C7.66734 -0.0178415 7.54774 -0.00336737 7.43509 0.0407958C7.32243 0.0849591 7.2195 0.15772 7.13367 0.253875V13.8599C7.693 11.3088 15.0442 26.7602 15.8505 25.8673V14.1576C15.7181 14.1619 15.5872 14.1238 15.472 14.0474C15.3568 13.9709 15.2616 13.8591 15.1968 13.7239Z"
        fill="#BF2F07" />
    <path
        d="M24.5601 0.491943C24.5601 9.32737 24.5601 22.6528 24.5601 31.4457C24.5611 31.5443 24.5846 31.6408 24.6281 31.7251C24.6717 31.8095 24.7337 31.8787 24.8078 31.9255C24.8819 31.9724 24.9654 31.9952 25.0495 31.9915C25.1337 31.9879 25.2155 31.958 25.2865 31.9049C34.5626 24.9998 34.1413 6.80175 24.5601 0.491943Z"
        fill="#052275" />
    <path
        d="M7.43871 0.491943C-2.12077 6.80175 -2.56388 24.9998 6.68325 31.9049C6.75464 31.9552 6.83601 31.9829 6.91933 31.9852C7.00265 31.9875 7.08504 31.9643 7.15838 31.918C7.23171 31.8716 7.29346 31.8037 7.33752 31.7208C7.38158 31.638 7.40644 31.5432 7.40965 31.4457C7.43144 23.8093 7.43871 7.99228 7.43871 0.491943Z"
        fill="url(#paint1_linear_1263_176)" />
    <defs>
        <linearGradient id="paint0_linear_1263_176" x1="24.5673" y1="12.933" x2="15.8505"
            y2="12.933" gradientUnits="userSpaceOnUse">
            <stop stop-color="#0096DF" />
            <stop offset="0.26" stop-color="#0080C2" />
            <stop offset="0.31" stop-color="#0377BB" />
            <stop offset="0.62" stop-color="#124B97" />
            <stop offset="0.86" stop-color="#1B3080" />
            <stop offset="1" stop-color="#1E2678" />
        </linearGradient>
        <linearGradient id="paint1_linear_1263_176" x1="0.000329602" y1="16.2494" x2="7.43871"
            y2="16.2494" gradientUnits="userSpaceOnUse">
            <stop stop-color="#E98D00" />
            <stop offset="0.29" stop-color="#E77D09" />
            <stop offset="0.85" stop-color="#E15322" />
            <stop offset="1" stop-color="#DF4729" />
        </linearGradient>
    </defs>
</svg>