<svg width="32" height="32" viewBox="0 0 32 32" fill="none" xmlns="http://www.w3.org/2000/svg">
<rect width="32" height="32" fill="#393A3D"/>
<path opacity="0.891" fill-rule="evenodd" clip-rule="evenodd" d="M4.24099 6.98242C5.27054 9.94277 6.29866 12.8986 7.32532 15.8499C6.68274 17.135 6.0402 18.4202 5.39761 19.7053C4.31609 16.9749 3.15946 14.2761 1.92773 11.6089C2.41267 10.3474 2.86248 9.06219 3.27713 7.75351C3.43786 7.26927 3.75914 7.01226 4.24099 6.98242Z" fill="#BEBEBE"/>
<path opacity="0.945" fill-rule="evenodd" clip-rule="evenodd" d="M4.24121 6.98242C6.55446 6.98242 8.86772 6.98242 11.181 6.98242C12.2076 9.93371 13.2358 12.8895 14.2653 15.8499C15.5096 18.5961 16.5377 21.4234 17.3496 24.3318C15.1612 24.3959 12.9764 24.3316 10.7954 24.139C9.59304 21.3595 8.43641 18.5965 7.32555 15.8499C6.29889 12.8986 5.27076 9.94277 4.24121 6.98242Z" fill="white"/>
<path opacity="0.889" fill-rule="evenodd" clip-rule="evenodd" d="M18.5056 6.98242C19.5323 9.93371 20.5604 12.8895 21.59 15.8499C20.9474 17.135 20.3048 18.4202 19.6623 19.7053C18.4305 17.0382 17.2739 14.3394 16.1924 11.6089C16.5825 9.80027 17.3536 8.2581 18.5056 6.98242Z" fill="#BEBEBE"/>
<path opacity="0.938" fill-rule="evenodd" clip-rule="evenodd" d="M18.5059 6.98227C20.7904 6.86344 23.0394 6.99195 25.2528 7.36781C27.5668 12.9614 29.6872 18.616 31.6143 24.3317C29.4258 24.3957 27.241 24.3314 25.0601 24.1389C23.8479 21.3939 22.6912 18.6308 21.5902 15.8497C20.5606 12.8894 19.5325 9.93356 18.5059 6.98227Z" fill="white"/>
<path opacity="0.898" fill-rule="evenodd" clip-rule="evenodd" d="M16.1924 11.6094C17.2739 14.3398 18.4305 17.0386 19.6622 19.7058C19.4575 20.761 19.1362 21.7891 18.6984 22.7901C18.5063 23.5783 18.0565 24.0923 17.349 24.3323C16.5371 21.4239 15.5089 18.5966 14.2646 15.8503C14.9819 14.4691 15.6245 13.0555 16.1924 11.6094Z" fill="white"/>
<path opacity="0.866" fill-rule="evenodd" clip-rule="evenodd" d="M1.92791 11.6094C3.15964 14.2765 4.31627 16.9753 5.39779 19.7058C5.16677 21.449 4.52419 22.9911 3.47008 24.3323C2.24984 21.6348 1.22171 18.8717 0.385742 16.0431C0.709174 14.4944 1.22322 13.0164 1.92791 11.6094Z" fill="white"/>
</svg>
