<svg width="32" height="32" viewBox="0 0 32 32" fill="none" xmlns="http://www.w3.org/2000/svg">
<path opacity="0.997" fill-rule="evenodd" clip-rule="evenodd" d="M4.4001 0.00197575C4.4001 10.6621 4.4001 21.3222 4.4001 31.9823C3.83216 32.0476 3.31468 31.9323 2.84766 31.6366C2.84766 21.2069 2.84766 10.7774 2.84766 0.347709C3.32607 0.0984267 3.84355 -0.0168148 4.4001 0.00197575Z" fill="#494BA3"/>
<path opacity="0.999" fill-rule="evenodd" clip-rule="evenodd" d="M4.40137 0.00195312C5.26384 0.00195312 6.1263 0.00195312 6.98877 0.00195312C6.96057 3.26386 6.98938 6.51954 7.07502 9.76892C6.90253 9.95657 6.74435 10.1582 6.60066 10.374C6.51743 11.8327 6.73305 13.2445 7.24751 14.6092C7.25312 14.647 7.2388 14.6759 7.20439 14.6956C7.14686 14.5804 7.08942 14.4651 7.0319 14.3499C6.98877 20.2273 6.97437 26.1047 6.98877 31.9823C6.1263 31.9823 5.26384 31.9823 4.40137 31.9823C4.40137 21.3222 4.40137 10.662 4.40137 0.00195312Z" fill="#4C4EA6"/>
<path opacity="0.999" fill-rule="evenodd" clip-rule="evenodd" d="M6.98801 0.00195312C7.85047 0.00195312 8.71294 0.00195312 9.57541 0.00195312C9.63251 4.555 9.57507 9.0784 9.40292 13.572C9.03844 12.5092 8.82282 11.4144 8.75607 10.2875C8.33242 9.64955 7.77182 9.47669 7.07425 9.76892C6.98861 6.51954 6.9598 3.26386 6.98801 0.00195312Z" fill="#5052AA"/>
<path opacity="0.999" fill-rule="evenodd" clip-rule="evenodd" d="M9.57581 0.00195312C10.5821 0.00195312 11.5882 0.00195312 12.5945 0.00195312C12.5945 5.70655 12.5945 11.4112 12.5945 17.1157C11.1381 16.2901 10.0744 15.1089 9.40332 13.572C9.57547 9.0784 9.63291 4.555 9.57581 0.00195312Z" fill="#5355AF"/>
<path opacity="0.999" fill-rule="evenodd" clip-rule="evenodd" d="M12.5947 0.00195312C13.601 0.00195312 14.6071 0.00195312 15.6134 0.00195312C15.6134 5.96585 15.6134 11.9298 15.6134 17.8936C15.9758 17.8662 16.3208 17.8951 16.6483 17.9801C15.1994 18.1273 13.8482 17.8391 12.5947 17.1157C12.5947 11.4112 12.5947 5.70655 12.5947 0.00195312Z" fill="#5759B3"/>
<path opacity="0.999" fill-rule="evenodd" clip-rule="evenodd" d="M15.6123 0.00195312C16.1011 0.00195312 16.5897 0.00195312 17.0785 0.00195312C17.0785 5.93707 17.0785 11.8721 17.0785 17.8072C17.1898 17.7867 17.2761 17.8155 17.3372 17.8937C17.1107 17.9448 16.8807 17.9736 16.6473 17.9801C16.3197 17.8951 15.9747 17.8663 15.6123 17.8937C15.6123 11.9298 15.6123 5.96585 15.6123 0.00195312Z" fill="#5A5CB6"/>
<path opacity="0.999" fill-rule="evenodd" clip-rule="evenodd" d="M17.0791 0.00195312C18.574 0.00195312 20.069 0.00195312 21.5639 0.00195312C21.5639 3.1712 21.5639 6.34037 21.5639 9.50962C22.2826 9.50962 23.0014 9.50962 23.7201 9.50962C24.1038 9.48058 24.4201 9.50936 24.6688 9.59605C22.9149 9.58162 21.1613 9.59605 19.4078 9.63927C18.5279 10.0259 18.3123 10.6453 18.7609 11.4976C18.9102 11.6806 19.0971 11.8102 19.3215 11.8865C20.5862 11.9298 21.8511 11.9442 23.1164 11.9298C22.5047 15.1934 20.5786 17.1814 17.3378 17.8937C17.2767 17.8155 17.1904 17.7867 17.0791 17.8072C17.0791 11.8721 17.0791 5.93707 17.0791 0.00195312Z" fill="#5E60BA"/>
<path opacity="0.999" fill-rule="evenodd" clip-rule="evenodd" d="M21.5645 0.00195312C22.2831 0.00195312 23.0019 0.00195312 23.7206 0.00195312C23.7206 3.1712 23.7206 6.34037 23.7206 9.50962C23.0019 9.50962 22.2831 9.50962 21.5645 9.50962C21.5645 6.34037 21.5645 3.1712 21.5645 0.00195312Z" fill="#6264BF"/>
<path opacity="0.999" fill-rule="evenodd" clip-rule="evenodd" d="M23.7194 0.00195312C24.7543 0.00195312 25.7893 0.00195312 26.8243 0.00195312C26.8243 10.662 26.8243 21.3222 26.8243 31.9823C25.7893 31.9823 24.7543 31.9823 23.7194 31.9823C23.7766 26.8819 23.719 21.8112 23.5469 16.77C25.0405 14.8693 25.6874 12.7084 25.4874 10.2875C25.3011 9.94135 25.0279 9.71092 24.6681 9.59605C24.4193 9.50936 24.1031 9.48058 23.7194 9.50962C23.7194 6.34037 23.7194 3.1712 23.7194 0.00195312Z" fill="#6668C4"/>
<path opacity="0.999" fill-rule="evenodd" clip-rule="evenodd" d="M26.8252 0.00195312C27.314 0.00195312 27.8026 0.00195312 28.2914 0.00195312C28.2914 10.662 28.2914 21.3222 28.2914 31.9823C27.8026 31.9823 27.314 31.9823 26.8252 31.9823C26.8252 21.3222 26.8252 10.662 26.8252 0.00195312Z" fill="#696BC7"/>
<path opacity="0.996" fill-rule="evenodd" clip-rule="evenodd" d="M28.291 0.00195312C30.1964 0.427706 31.4183 1.58016 31.9565 3.45929C32.0143 11.8145 32.0143 20.1697 31.9565 28.5249C31.4157 30.4065 30.1941 31.5589 28.291 31.9823C28.291 21.3222 28.291 10.662 28.291 0.00195312Z" fill="#6C6ECB"/>
<path opacity="0.965" fill-rule="evenodd" clip-rule="evenodd" d="M2.84831 0.347656C2.84831 10.7773 2.84831 21.2069 2.84831 31.6365C1.42265 31.0331 0.517054 29.9671 0.131531 28.4385C0.0328643 24.2916 -0.0102591 20.1428 0.0021604 15.9921C-0.0105179 11.87 0.0326056 7.75006 0.131531 3.63212C0.495579 2.07293 1.40117 0.978101 2.84831 0.347656Z" fill="#4648A0"/>
<path fill-rule="evenodd" clip-rule="evenodd" d="M9.40244 13.5722C10.0735 15.109 11.1372 16.2902 12.5936 17.1159C13.847 17.8393 15.1982 18.1275 16.6472 17.9803C16.8806 17.9738 17.1106 17.945 17.3372 17.8938C20.5779 17.1815 22.504 15.1936 23.1157 11.9299C21.8505 11.9444 20.5855 11.9299 19.3208 11.8867C19.0964 11.8104 18.9095 11.6807 18.7602 11.4978C18.3116 10.6454 18.5272 10.0261 19.4071 9.63945C21.1606 9.59623 22.9142 9.5818 24.6681 9.59623C25.028 9.7111 25.3011 9.94154 25.4875 10.2877C25.6874 12.7086 25.0406 14.8694 23.5469 16.7702C22.9661 17.5541 22.2762 18.2167 21.477 18.7582C20.8664 19.1505 20.2339 19.4962 19.5796 19.7954C18.2421 20.278 16.8622 20.4797 15.4397 20.4004C14.5514 20.3491 13.6889 20.1763 12.8523 19.8818C11.8377 19.4744 10.889 18.9558 10.0062 18.326C9.46031 17.7645 8.92851 17.1883 8.4106 16.5973C7.97669 15.9576 7.58858 15.295 7.24627 14.6094C6.7318 13.2447 6.51619 11.8329 6.59942 10.3741C6.7431 10.1584 6.90128 9.95675 7.07377 9.7691C7.77134 9.47687 8.33194 9.64974 8.75559 10.2877C8.82234 11.4146 9.03796 12.5094 9.40244 13.5722Z" fill="#FCFCFE"/>
<path fill-rule="evenodd" clip-rule="evenodd" d="M7.24754 14.6099C7.58986 15.2955 7.97797 15.9582 8.41187 16.5979C8.92979 17.1888 9.46159 17.765 10.0074 18.3265C9.84607 18.2955 9.7167 18.2091 9.61933 18.0672C9.57621 22.7057 9.5618 27.3443 9.57621 31.983C8.71374 31.983 7.85127 31.983 6.9888 31.983C6.9744 26.1054 6.9888 20.228 7.03192 14.3506C7.08945 14.4658 7.14689 14.5811 7.20442 14.6963C7.23883 14.6766 7.25315 14.6477 7.24754 14.6099Z" fill="#4F51AA"/>
<path fill-rule="evenodd" clip-rule="evenodd" d="M23.5475 16.7705C23.7196 21.8116 23.7771 26.8824 23.72 31.9828C23.0013 31.9828 22.2825 31.9828 21.5638 31.9828C21.5924 27.5601 21.5637 23.152 21.4775 18.7585C22.2767 18.2171 22.9667 17.5544 23.5475 16.7705Z" fill="#6264BF"/>
<path fill-rule="evenodd" clip-rule="evenodd" d="M21.4775 18.7578C21.5637 23.1513 21.5924 27.5594 21.5638 31.9821C20.9313 31.9821 20.2988 31.9821 19.6663 31.9821C19.695 27.9051 19.6662 23.8427 19.5801 19.795C20.2344 19.4959 20.8669 19.1501 21.4775 18.7578Z" fill="#6062BC"/>
<path fill-rule="evenodd" clip-rule="evenodd" d="M10.0069 18.3257C10.8898 18.9555 11.8385 19.4741 12.8531 19.8815C12.7919 19.9596 12.7057 19.9884 12.5944 19.9679C12.5944 23.9727 12.5944 27.9775 12.5944 31.9822C11.5881 31.9822 10.582 31.9822 9.57572 31.9822C9.56131 27.3435 9.57572 22.7049 9.61884 18.0664C9.71621 18.2082 9.84558 18.2947 10.0069 18.3257Z" fill="#5355AE"/>
<path opacity="0.999" fill-rule="evenodd" clip-rule="evenodd" d="M12.8535 19.8818C13.6901 20.1763 14.5525 20.3492 15.4409 20.4004C15.8562 20.4718 16.2875 20.515 16.7346 20.5301C16.3619 20.5732 15.9882 20.5877 15.6134 20.5733C15.6134 24.3764 15.6134 28.1794 15.6134 31.9825C14.6071 31.9825 13.601 31.9825 12.5947 31.9825C12.5947 27.9778 12.5947 23.973 12.5947 19.9683C12.7061 19.9888 12.7923 19.96 12.8535 19.8818Z" fill="#585AB3"/>
<path fill-rule="evenodd" clip-rule="evenodd" d="M13.8016 21.3516C15.2454 21.4289 15.6623 22.1204 15.0522 23.426C14.3 23.957 13.6388 23.8706 13.0685 23.1667C12.744 22.32 12.9884 21.715 13.8016 21.3516Z" fill="#FBFBFD"/>
<path opacity="0.999" fill-rule="evenodd" clip-rule="evenodd" d="M19.5803 19.7959C19.6664 23.8436 19.6952 27.9059 19.6665 31.983C18.3153 31.983 16.9642 31.983 15.6129 31.983C15.6129 28.1799 15.6129 24.3769 15.6129 20.5738C15.9878 20.5881 16.3615 20.5737 16.7341 20.5306C16.287 20.5155 15.8558 20.4723 15.4404 20.4009C16.8629 20.4802 18.2428 20.2785 19.5803 19.7959Z" fill="#5C5EB8"/>
<path fill-rule="evenodd" clip-rule="evenodd" d="M17.5966 21.3516C18.9557 21.3433 19.4301 21.9771 19.0197 23.2532C18.3742 23.8954 17.7131 23.9242 17.036 23.3396C16.5496 22.4831 16.7365 21.8204 17.5966 21.3516Z" fill="#FAFAFD"/>
</svg>
