<svg width="32" height="32" viewBox="0 0 32 32" fill="none" xmlns="http://www.w3.org/2000/svg">
    <path
        d="M15.2321 0.0203641C15.1838 0.0303656 14.9359 0.0653706 14.6881 0.095375C12.6813 0.360413 10.7471 1.40056 9.56238 2.85077C9.25411 3.23083 8.84913 3.94093 8.64362 4.47101C8.53482 4.74605 8.37766 5.04609 8.29908 5.13611C8.01499 5.44615 7.91828 5.46615 6.31649 5.50116C4.92626 5.52616 4.84768 5.53616 4.4427 5.66118C3.42118 5.99123 2.6354 6.73134 2.38757 7.60646C2.30295 7.90151 0 30.5148 0 31.0449C0 31.4799 0.187379 31.735 0.634671 31.905C0.870406 31.995 1.4265 32 16.0118 32C31.117 32 31.1533 32 31.4072 31.9C31.6792 31.79 31.9391 31.5149 31.9995 31.2749C32.0297 31.1599 30.6395 17.0128 29.7993 8.87665C29.6663 7.62647 29.5817 7.29642 29.2735 6.86136C28.9047 6.34128 28.2338 5.87121 27.5085 5.64118C27.2062 5.54116 27.0249 5.52616 25.7193 5.49616C24.4983 5.47616 24.2384 5.45615 24.0752 5.38114C23.7307 5.23112 23.5795 5.04609 23.3922 4.53602C22.3706 1.81562 19.3303 -0.0296431 15.9272 0.000361219C15.5948 0.00536194 15.2805 0.0153634 15.2321 0.0203641ZM17.0878 1.92064C18.8588 2.23068 20.3034 3.18082 21.0348 4.51602C21.2645 4.93108 21.2706 5.18611 21.059 5.35114L20.9018 5.47115L16.0723 5.48616C11.7868 5.49616 11.2186 5.49116 11.0554 5.42115C10.6987 5.26612 10.6806 5.01109 11.001 4.45601C11.7263 3.18082 13.1891 2.22068 14.8392 1.93064C15.3893 1.83063 16.5619 1.82563 17.0878 1.92064ZM26.8738 7.42144C27.2002 7.55646 27.4299 7.79649 27.4782 8.05153C27.5206 8.27156 28.0343 13.3173 28.0162 13.3373C28.0041 13.3473 27.6898 13.4073 27.315 13.4723C25.7858 13.7324 24.734 14.1774 23.8153 14.9425C23.3257 15.3476 22.8119 15.9527 22.4674 16.5278C22.2498 16.8828 22.2498 16.8828 22.3162 17.2529C22.3827 17.6329 22.3465 18.423 22.2437 18.7731C22.2135 18.8831 22.1954 18.9781 22.2074 18.9831C22.2135 18.9881 22.5399 18.6081 22.9267 18.133C23.3136 17.6629 23.8153 17.0928 24.045 16.8678C24.7461 16.1927 25.6165 15.6726 26.6018 15.3426C27.1397 15.1626 28.0948 14.9675 28.1613 15.0275C28.1915 15.0575 29.5031 27.8394 29.6966 30.0447L29.7087 30.1697L16.0179 30.1547C8.48646 30.1447 2.32108 30.1347 2.30899 30.1247C2.29691 30.1197 2.42988 28.7395 2.59309 27.0693C2.76233 25.394 2.93158 23.7188 2.9618 23.3487C2.99807 22.9787 3.04038 22.6036 3.05851 22.5136C3.08873 22.3336 3.03433 22.3486 4.01958 22.2486C5.16804 22.1336 6.31044 21.8135 7.18085 21.3685C7.74903 21.0734 8.57713 20.3983 8.97002 19.9082C9.13322 19.7032 9.48985 19.1781 9.76185 18.7381L10.2575 17.943L10.2998 18.268C10.4872 19.8082 11.7263 21.2134 13.5034 21.9035C14.4101 22.2536 14.809 22.3186 16.0179 22.3186C16.9971 22.3186 17.118 22.3086 17.6197 22.1786C19.2577 21.7635 20.4908 20.9184 21.1859 19.7282C22.2074 17.973 21.7541 15.9677 20.0314 14.5925C19.3182 14.0274 18.4659 13.6423 17.4383 13.4173C16.9185 13.3023 16.707 13.2873 15.9574 13.2873C14.5793 13.2873 13.588 13.5073 12.5907 14.0424C11.5994 14.5725 10.7411 15.3926 9.39918 17.0928C8.20841 18.6031 7.5133 19.2582 6.54014 19.7882C5.69995 20.2433 4.62403 20.5683 3.6146 20.6734L3.26402 20.7084V20.5433C3.26402 20.4483 3.54811 17.5829 3.89265 14.1674C4.36412 9.52174 4.53941 7.92651 4.61194 7.81649C4.73888 7.61146 4.96857 7.45144 5.24057 7.37143C5.43399 7.31142 7.2413 7.30142 16.0239 7.29642H26.5716L26.8738 7.42144ZM16.9548 15.0025C17.9159 15.2476 18.7137 15.9327 19.0704 16.8178C19.838 18.7231 18.2725 20.7484 16.0179 20.7484C15.1112 20.7484 14.4765 20.5233 13.8117 19.9733C13.0803 19.3732 12.7418 18.6881 12.7478 17.8029C12.7478 17.0478 13.0198 16.3927 13.5517 15.8627C13.9023 15.5176 14.2106 15.3176 14.7183 15.1176C15.4316 14.8375 16.1569 14.7975 16.9548 15.0025Z"
        fill="#195284" />
</svg>