<svg width="32" height="32" viewBox="0 0 32 32" fill="none" xmlns="http://www.w3.org/2000/svg">
<g clip-path="url(#clip0_78_2845)">
<path fill-rule="evenodd" clip-rule="evenodd" d="M-0.0703125 -0.0703125C10.5964 -0.0703125 21.263 -0.0703125 31.9297 -0.0703125C31.9297 10.5964 31.9297 21.263 31.9297 31.9297C21.263 31.9297 10.5964 31.9297 -0.0703125 31.9297C-0.0703125 21.263 -0.0703125 10.5964 -0.0703125 -0.0703125Z" fill="#1D9C9F"/>
<path fill-rule="evenodd" clip-rule="evenodd" d="M10.8809 3.62656C12.0409 3.46207 13.226 3.43837 14.4364 3.55545C14.658 3.58531 14.8476 3.65643 15.0053 3.76878C13.6335 3.65687 12.2587 3.60946 10.8809 3.62656Z" fill="#CFE4E4"/>
<path fill-rule="evenodd" clip-rule="evenodd" d="M10.8799 3.62645C12.2577 3.60935 13.6325 3.65675 15.0044 3.76867C16.7402 4.10727 18.352 4.74727 19.8399 5.68867C20.4552 6.40609 20.3605 7.0224 19.5555 7.53756C19.3184 7.63238 19.0815 7.63238 18.8444 7.53756C17.1981 6.45943 15.3966 5.81943 13.4399 5.61756C13.0875 5.52311 12.7083 5.47569 12.3021 5.47533C11.6938 5.45211 11.1249 5.54691 10.5955 5.75978C8.57146 6.26733 6.76997 7.19177 5.19103 8.53311C4.57474 9.1494 3.95844 9.76571 3.34214 10.382C2.52469 10.5421 2.05062 10.2102 1.91992 9.38645C2.00959 8.91765 2.22293 8.51468 2.55992 8.17756C4.81601 5.71034 7.58934 4.1933 10.8799 3.62645Z" fill="#FAFCFC"/>
<path fill-rule="evenodd" clip-rule="evenodd" d="M13.4401 5.61831C12.4878 5.6028 11.5397 5.65021 10.5957 5.76053C11.1252 5.54766 11.694 5.45286 12.3024 5.47608C12.7085 5.47644 13.0877 5.52386 13.4401 5.61831Z" fill="#A7CACA"/>
<path fill-rule="evenodd" clip-rule="evenodd" d="M11.5909 7.18275C14.6071 6.78009 17.1907 7.63343 19.342 9.74275C19.6027 10.999 19.1049 11.4968 17.8486 11.2361C16.8505 10.1601 15.618 9.5438 14.1509 9.3872C10.5912 8.98693 7.84158 10.2669 5.90198 13.2272C4.95819 13.7101 4.3893 13.4494 4.19531 12.445C4.23269 12.0855 4.3512 11.7536 4.55087 11.4494C6.36665 9.13201 8.71331 7.70979 11.5909 7.18275Z" fill="#F7FBFB"/>
<path fill-rule="evenodd" clip-rule="evenodd" d="M12.0176 11.3057C12.7976 11.1419 13.6035 11.1182 14.4354 11.2346C14.8309 11.3088 15.1628 11.4748 15.4309 11.7324C14.3288 11.355 13.1911 11.2128 12.0176 11.3057Z" fill="#89C1C1"/>
<path fill-rule="evenodd" clip-rule="evenodd" d="M29.3691 16.7105C29.4125 20.3181 29.3652 23.921 29.2269 27.5194C28.7149 28.2403 28.0512 28.4063 27.2358 28.0172C27.0155 27.8445 26.8497 27.6312 26.738 27.3772C26.6907 23.9638 26.6432 20.5505 26.5958 17.1372C26.2863 15.4305 25.3145 14.3401 23.6803 13.8661C23.472 13.7722 23.235 13.7248 22.9691 13.7238C22.5445 13.707 22.1653 13.8018 21.8314 14.0083C20.6347 14.4706 19.8525 15.324 19.4847 16.5683C19.4809 20.2275 19.386 23.8779 19.2003 27.5194C18.5755 28.307 17.8408 28.4255 16.9958 27.8749C16.8169 27.6273 16.6747 27.3666 16.5691 27.0927C16.5929 23.5842 16.5691 20.076 16.498 16.5683C16.465 16.3924 16.3939 16.2501 16.2847 16.1416C15.8998 15.2583 15.2835 14.5709 14.4358 14.0794C14.2005 13.993 13.9635 13.9219 13.7247 13.8661C13.5165 13.7722 13.2794 13.7248 13.0136 13.7238C12.589 13.707 12.2097 13.8018 11.8758 14.0083C10.7958 14.448 10.0136 15.2066 9.52914 16.2838C9.34613 19.9284 9.25133 23.5787 9.2447 27.2349C8.94556 28.0839 8.35297 28.3921 7.46692 28.1594C7.06396 27.9461 6.75581 27.6379 6.54248 27.2349C6.42443 23.6552 6.44814 20.0997 6.61359 16.5683C6.81608 16.2817 6.9109 15.9499 6.89803 15.5727C7.78903 13.1642 9.49569 11.7419 12.018 11.3061C13.1916 11.2131 14.3293 11.3553 15.4314 11.7327C16.3952 12.1262 17.2485 12.6951 17.9914 13.4394C21.2771 10.4082 24.5718 10.4082 27.8758 13.4394C28.6347 14.4129 29.1325 15.5033 29.3691 16.7105Z" fill="#FBFCFC"/>
<path fill-rule="evenodd" clip-rule="evenodd" d="M13.7239 13.8668C13.1025 13.8621 12.4862 13.9095 11.875 14.009C12.2089 13.8025 12.5881 13.7077 13.0128 13.7246C13.2786 13.7255 13.5157 13.7729 13.7239 13.8668Z" fill="#B5D8D7"/>
<path fill-rule="evenodd" clip-rule="evenodd" d="M23.6809 13.8668C23.0596 13.8621 22.4433 13.9095 21.832 14.009C22.166 13.8025 22.5451 13.7077 22.9698 13.7246C23.2356 13.7255 23.4727 13.7729 23.6809 13.8668Z" fill="#B5D7D7"/>
<path fill-rule="evenodd" clip-rule="evenodd" d="M6.89693 15.5742C6.9098 15.9514 6.81498 16.2832 6.61248 16.5698C6.59961 16.1926 6.69443 15.8608 6.89693 15.5742Z" fill="#AED1D0"/>
<path fill-rule="evenodd" clip-rule="evenodd" d="M29.3688 16.7109C29.5342 20.195 29.5579 23.703 29.4399 27.2354C29.4004 27.3657 29.3292 27.4604 29.2266 27.5198C29.3648 23.9215 29.4122 20.3185 29.3688 16.7109Z" fill="#93BDBE"/>
<path fill-rule="evenodd" clip-rule="evenodd" d="M16.2852 16.1426C16.3944 16.2511 16.4655 16.3933 16.4985 16.5692C16.5696 20.077 16.5934 23.5852 16.5696 27.0937C16.4696 23.4642 16.3748 19.8138 16.2852 16.1426Z" fill="#5BA7A8"/>
</g>
<defs>
<clipPath id="clip0_78_2845">
<rect width="32" height="32" fill="white"/>
</clipPath>
</defs>
</svg>
