<svg width="32" height="32" viewBox="0 0 33 32" fill="none" xmlns="http://www.w3.org/2000/svg">
    <path
        d="M16.9395 25.4766C12.9164 25.4766 9.07667 27.0797 7.7113 29.3034C10.2961 31.0525 13.4327 32 16.9395 32C20.409 32 23.583 31.0156 26.166 29.3034C24.8006 27.0797 20.8149 25.4766 16.9395 25.4766Z"
        fill="#001447" />
    <path
        d="M16.9395 0C7.82341 0 0.920044 6.6693 0.920044 16C0.920044 20.0448 2.24981 23.6537 4.4999 26.3872C6.3459 24.7471 9.11401 23.216 12.3628 22.5972C10.5541 21.212 9.33652 18.9163 9.33652 15.7082C9.33652 10.1323 12.952 7.61679 16.9021 7.61679C20.8504 7.61679 24.4677 10.1692 24.4677 15.7082C24.4677 18.9163 23.2501 21.2103 21.477 22.5972C24.7258 23.216 27.4939 24.7471 29.3399 26.3503C31.5918 23.6168 32.9199 20.0448 32.9199 15.9631C32.9571 6.6693 26.0911 0 16.9395 0Z"
        fill="#001447" />
</svg>