<svg width="32" height="32" viewBox="0 0 32 32" fill="none" xmlns="http://www.w3.org/2000/svg">
<g clip-path="url(#clip0_77_1841)">
<path fill-rule="evenodd" clip-rule="evenodd" d="M11.75 -0.25C14.4167 -0.25 17.0833 -0.25 19.75 -0.25C22.5057 0.630205 25.0057 2.04687 27.25 4C29.0934 6.248 30.5934 8.6647 31.75 11.25C31.75 14.25 31.75 17.25 31.75 20.25C30.5934 22.8353 29.0934 25.252 27.25 27.5C25.0057 29.4532 22.5057 30.8698 19.75 31.75C17.0833 31.75 14.4167 31.75 11.75 31.75C8.9943 30.8698 6.4943 29.4532 4.25 27.5C2.40655 25.252 0.90655 22.8353 -0.25 20.25C-0.25 17.25 -0.25 14.25 -0.25 11.25C0.90655 8.6647 2.40655 6.248 4.25 4C6.4943 2.04687 8.9943 0.630205 11.75 -0.25Z" fill="#8B8988"/>
<path fill-rule="evenodd" clip-rule="evenodd" d="M10.25 14.75C10.8603 15.0141 11.4437 15.3475 12 15.75C12.4521 17.1167 13.2021 18.2833 14.25 19.25C11.5436 19.4221 11.2102 20.2555 13.25 21.75C12.7521 21.7929 12.3354 21.6262 12 21.25C11.5834 22.0834 11.1666 22.9166 10.75 23.75C12.165 24.6608 13.165 25.9109 13.75 27.5C15.0833 28.5 16.4167 28.5 17.75 27.5C18.335 25.9109 19.335 24.6608 20.75 23.75C20.3334 22.9166 19.9166 22.0834 19.5 21.25C18.8267 22.233 18.0767 22.3997 17.25 21.75C18.1968 21.4762 19.0301 20.9762 19.75 20.25C19.3787 19.9091 19.0453 19.5757 18.75 19.25C18.25 19.25 17.75 19.25 17.25 19.25C18.2979 18.2833 19.0479 17.1167 19.5 15.75C20.0563 15.3475 20.6397 15.0141 21.25 14.75C21.7307 15.6323 21.8973 16.6323 21.75 17.75C19.7634 19.6067 19.7634 21.5234 21.75 23.5C23.073 23.7487 24.4064 23.8321 25.75 23.75C24.6168 24.8813 23.2834 25.048 21.75 24.25C19.9835 24.9334 18.8168 26.1834 18.25 28C16.5833 29 14.9167 29 13.25 28C11.9617 24.6892 9.62835 23.5225 6.25 24.5C5.972 24.3087 5.80535 24.0587 5.75 23.75C8.8254 24.5782 10.6587 23.4949 11.25 20.5C11.1934 19.3007 10.6934 18.3839 9.75 17.75C9.60265 16.6323 9.7693 15.6323 10.25 14.75Z" fill="#686A6C"/>
<path fill-rule="evenodd" clip-rule="evenodd" d="M1.25 19.75C1.69546 20.1307 2.02879 20.6306 2.25 21.25C2.66248 21.6928 3.16248 21.8595 3.75 21.75C3.9784 22.8864 4.64507 23.553 5.75 23.75C5.80535 24.0587 5.972 24.3087 6.25 24.5C9.62835 23.5225 11.9617 24.6892 13.25 28C14.9167 29 16.5833 29 18.25 28C18.8168 26.1834 19.9835 24.9334 21.75 24.25C23.2834 25.048 24.6168 24.8813 25.75 23.75C26.8549 23.553 27.5216 22.8864 27.75 21.75C28.5694 21.5371 29.2361 21.5371 29.75 21.75C26.9364 27.8815 22.103 31.0482 15.25 31.25C7.84885 30.6775 3.18217 26.8441 1.25 19.75Z" fill="#81BBF1"/>
<path fill-rule="evenodd" clip-rule="evenodd" d="M13.25 21.75C14.4907 22.1292 15.824 22.1292 17.25 21.75C18.0767 22.3997 18.8267 22.233 19.5 21.25C19.9166 22.0834 20.3334 22.9166 20.75 23.75C19.335 24.6608 18.335 25.9109 17.75 27.5C16.4167 28.5 15.0833 28.5 13.75 27.5C13.165 25.9109 12.165 24.6608 10.75 23.75C11.1666 22.9166 11.5834 22.0834 12 21.25C12.3354 21.6262 12.7521 21.7929 13.25 21.75Z" fill="#B5B7BB"/>
<path fill-rule="evenodd" clip-rule="evenodd" d="M4.7497 18.25C3.92726 20.3038 4.2606 22.1371 5.7497 23.75C4.64477 23.553 3.97811 22.8864 3.7497 21.75C3.66864 20.7364 3.75197 19.7363 3.9997 18.75C4.19099 18.472 4.44099 18.3053 4.7497 18.25Z" fill="#69696B"/>
<path fill-rule="evenodd" clip-rule="evenodd" d="M27.7497 21.7504C27.5213 22.8868 26.8547 23.5534 25.7497 23.7504C26.5796 22.8394 27.0796 21.7561 27.2497 20.5004C26.5996 18.9455 26.0996 17.3621 25.7497 15.7504C25.6471 14.3862 26.0638 13.2195 26.9997 12.2504C26.8358 7.85245 24.7524 6.6858 20.7497 8.7504C20.5797 9.8399 20.0797 10.7566 19.2497 11.5004C17.6153 12.0319 15.9486 12.4486 14.2497 12.7504C12.2497 11.7504 10.7497 10.2504 9.74971 8.2504C6.85271 7.0674 5.01936 7.98405 4.24971 11.0004C4.89978 12.5554 5.39981 14.1387 5.74971 15.7504C5.66636 16.4171 5.58306 17.0838 5.49971 17.7504C5.30841 18.0284 5.05841 18.1951 4.74971 18.2504C5.58381 16.2569 5.33381 14.4236 3.99971 12.7504C3.31046 10.5514 3.89379 8.80135 5.74971 7.5004C7.64346 7.4206 9.47681 7.08725 11.2497 6.5004C12.5417 3.02025 14.875 2.02025 18.2497 3.5004C19.0831 4.66707 19.9164 5.83375 20.7497 7.0004C27.6191 6.7831 29.4525 9.69975 26.2497 15.7504C27.3254 17.5803 27.8254 19.5803 27.7497 21.7504Z" fill="#6B6C6D"/>
<path fill-rule="evenodd" clip-rule="evenodd" d="M20.75 8.7499C24.7527 6.6853 26.8361 7.85195 27 12.2499C26.0641 13.219 25.6474 14.3856 25.75 15.7499C26.0999 17.3616 26.5999 18.9449 27.25 20.4999C27.0799 21.7555 26.5799 22.8389 25.75 23.7499C24.4064 23.8319 23.073 23.7486 21.75 23.4999C19.7634 21.5232 19.7634 19.6066 21.75 17.7499C22.3985 16.6532 22.3985 15.4865 21.75 14.2499C21.4466 14.3117 21.28 14.4783 21.25 14.7499C20.6397 15.014 20.0563 15.3474 19.5 15.7499C19.0479 17.1166 18.2979 18.2832 17.25 19.2499C16.25 19.2499 15.25 19.2499 14.25 19.2499C13.2021 18.2832 12.4521 17.1166 12 15.7499C11.4437 15.3474 10.8603 15.014 10.25 14.7499C10.22 14.4783 10.0534 14.3117 9.75 14.2499C9.10155 15.4865 9.10155 16.6532 9.75 17.7499C10.6934 18.3838 11.1934 19.3005 11.25 20.4999C10.6587 23.4948 8.8254 24.5781 5.75 23.7499C4.2609 22.137 3.92756 20.3036 4.75 18.2499C5.0587 18.1945 5.3087 18.0279 5.5 17.7499C5.58335 17.0832 5.66665 16.4165 5.75 15.7499C5.4001 14.1382 4.90008 12.5548 4.25 10.9999C5.01965 7.98355 6.853 7.0669 9.75 8.2499C10.75 10.2499 12.25 11.7499 14.25 12.7499C15.9489 12.448 17.6156 12.0313 19.25 11.4999C20.08 10.756 20.58 9.8394 20.75 8.7499Z" fill="#FBFBFB"/>
<path fill-rule="evenodd" clip-rule="evenodd" d="M17.25 21.7502C15.824 22.1293 14.4907 22.1293 13.25 21.7502C14.6537 21.1718 15.9871 21.1718 17.25 21.7502Z" fill="#807C79"/>
<path fill-rule="evenodd" clip-rule="evenodd" d="M29.7504 21.7499C29.2364 21.537 28.5698 21.537 27.7504 21.7499C27.8261 19.5797 27.3261 17.5797 26.2504 15.7499C29.4531 9.69921 27.6198 6.78256 20.7504 6.99986C19.917 5.83321 19.0837 4.66653 18.2504 3.49986C14.8756 2.01971 12.5423 3.01971 11.2504 6.49986C9.47746 7.08671 7.64411 7.42006 5.75036 7.49986C3.89444 8.80081 3.31111 10.5508 4.00036 12.7499C5.33446 14.423 5.58446 16.2564 4.75036 18.2499C4.44165 18.3052 4.19165 18.4719 4.00036 18.7499C3.75263 19.7362 3.6693 20.7362 3.75036 21.7499C3.16284 21.8594 2.66284 21.6927 2.25036 21.2499C2.02915 20.6305 1.69582 20.1305 1.25036 19.7499C-0.770981 11.5364 2.06235 5.45306 9.75036 1.49986C20.2998 -1.28191 27.3832 2.46809 31.0004 12.7499C31.5701 15.9602 31.1534 18.9602 29.7504 21.7499Z" fill="#80BAF0"/>
<path fill-rule="evenodd" clip-rule="evenodd" d="M14.2505 19.25C15.2505 19.25 16.2505 19.25 17.2505 19.25C17.7505 19.25 18.2505 19.25 18.7505 19.25C19.0458 19.5757 19.3791 19.9091 19.7505 20.25C19.0306 20.9762 18.1973 21.4762 17.2505 21.75C15.9875 21.1716 14.6542 21.1716 13.2505 21.75C11.2107 20.2555 11.5441 19.4221 14.2505 19.25Z" fill="#7BABD6"/>
<path fill-rule="evenodd" clip-rule="evenodd" d="M18.75 19.25C19.2557 18.3142 19.6724 17.3142 20 16.25C20.3752 16.5629 20.7919 16.8129 21.25 17C20.6746 18.1001 19.8412 18.8501 18.75 19.25Z" fill="#BDBFC3"/>
<path fill-rule="evenodd" clip-rule="evenodd" d="M10.7495 16.25C11.5433 16.8206 12.21 17.5706 12.7495 18.5C12.4995 18.75 12.2495 19 11.9995 19.25C11.0464 18.2959 10.6298 17.2959 10.7495 16.25Z" fill="#BCBEC2"/>
<path fill-rule="evenodd" clip-rule="evenodd" d="M21.25 14.75C21.28 14.4785 21.4466 14.3118 21.75 14.25C22.3985 15.4866 22.3985 16.6533 21.75 17.75C21.8973 16.6323 21.7307 15.6323 21.25 14.75Z" fill="#BEBAB6"/>
<path fill-rule="evenodd" clip-rule="evenodd" d="M10.25 14.75C9.76931 15.6323 9.60266 16.6323 9.75001 17.75C9.10156 16.6533 9.10156 15.4866 9.75001 14.25C10.0534 14.3118 10.22 14.4785 10.25 14.75Z" fill="#BDBAB6"/>
<path fill-rule="evenodd" clip-rule="evenodd" d="M12.75 10.2504C14.7773 10.0883 16.7773 10.2549 18.75 10.7504C17.2255 11.7334 15.5589 11.9834 13.75 11.5004C13.122 11.2919 12.7887 10.8753 12.75 10.2504Z" fill="#7FB9EC"/>
<path fill-rule="evenodd" clip-rule="evenodd" d="M20.75 8.74984C20.1051 9.02869 19.6884 9.52869 19.5 10.2498C18.9031 9.78469 18.2364 9.45139 17.5 9.24984C16.4246 9.86589 15.3412 9.86589 14.25 9.24984C13.4064 9.38009 12.6564 9.71344 12 10.2498C11.5834 9.41649 11.1666 8.58319 10.75 7.74984C12.1452 6.80629 13.1452 5.55629 13.75 3.99984C15.2301 2.97376 16.6467 3.05709 18 4.24984C18.6729 5.96379 19.5896 7.46379 20.75 8.74984Z" fill="#B6B8BC"/>
</g>
<defs>
<clipPath id="clip0_77_1841">
<rect width="32" height="32" fill="white"/>
</clipPath>
</defs>
</svg>
