<svg width="32" height="32" viewBox="0 0 32 32" fill="none" xmlns="http://www.w3.org/2000/svg">
    <path fill-rule="evenodd" clip-rule="evenodd"
        d="M23.1587 20.0771L26.7072 12.3604C26.7905 12.1789 26.8446 11.9785 26.8663 11.7705C26.8881 11.5626 26.8771 11.3512 26.8338 11.1487C26.7906 10.9462 26.7161 10.7564 26.6145 10.5904C26.5129 10.4243 26.3863 10.2853 26.242 10.1812C25.6343 9.74086 24.8573 10.0022 24.5064 10.7652L20.9578 18.4816C20.8744 18.6631 20.8204 18.8635 20.7986 19.0715C20.7769 19.2795 20.7879 19.4908 20.8312 19.6933C20.8744 19.8958 20.9489 20.0856 21.0505 20.2516C21.1521 20.4177 21.2786 20.5568 21.423 20.6608C22.0306 21.1014 22.8077 20.8401 23.1587 20.0771ZM27.0253 8.47772C25.6684 7.49429 23.9331 8.07782 23.1497 9.78179L19.6013 17.4982C18.8177 19.2022 19.2826 21.3806 20.6396 22.3643C21.9966 23.348 23.7319 22.7642 24.5153 21.0605L28.0639 13.3438C28.8473 11.6401 28.3823 9.4614 27.0253 8.47772ZM15.924 20.0921L19.4726 12.3754C19.556 12.1939 19.6101 11.9935 19.6318 11.7855C19.6535 11.5776 19.6425 11.3663 19.5992 11.1637C19.556 10.9612 19.4815 10.7714 19.3799 10.6054C19.2783 10.4393 19.1517 10.3003 19.0074 10.1962C18.3998 9.75588 17.6227 10.0172 17.2717 10.7802L13.7232 18.4969C13.6399 18.6783 13.5858 18.8788 13.5641 19.0867C13.5424 19.2946 13.5535 19.5059 13.5966 19.7084C13.6399 19.9109 13.7144 20.1006 13.816 20.2667C13.9175 20.4327 14.0441 20.5717 14.1884 20.6758C14.7961 21.1164 15.5731 20.8551 15.924 20.0921ZM19.7908 8.493C18.4338 7.50931 16.6985 8.0931 15.9149 9.7968L12.3667 17.5134C11.5833 19.2172 12.0483 21.3959 13.4052 22.3793C14.7622 23.363 16.4975 22.7792 17.2809 21.0755L20.8293 13.3588C21.6129 11.6551 21.1478 9.47642 19.7908 8.493ZM8.67848 20.0921L12.2271 12.3754C12.3105 12.1939 12.3646 11.9935 12.3864 11.7855C12.4081 11.5776 12.397 11.3663 12.3538 11.1637C12.3106 10.9612 12.236 10.7714 12.1344 10.6054C12.0328 10.4393 11.9063 10.3003 11.7619 10.1962C11.1543 9.75588 10.3772 10.0172 10.0264 10.7802L6.47778 18.4969C6.39443 18.6783 6.34034 18.8788 6.31862 19.0867C6.2969 19.2946 6.30797 19.5059 6.3512 19.7084C6.39443 19.9109 6.46897 20.1006 6.57053 20.2667C6.67209 20.4327 6.79866 20.5717 6.94297 20.6758C7.55062 21.1164 8.32764 20.8551 8.67848 20.0921ZM12.5453 8.493C11.1883 7.50931 9.45303 8.0931 8.66945 9.7968L5.12123 17.5134C4.33785 19.2172 4.80283 21.3959 6.16 22.3793C7.51695 23.363 9.25206 22.7792 10.0354 21.0755L13.5837 13.3588C14.3672 11.6551 13.9023 9.47642 12.5453 8.493Z"
        fill="#FF8762" />
</svg>
    