<svg width="32" height="32" viewBox="0 0 32 32" fill="none" xmlns="http://www.w3.org/2000/svg">
    <g clip-path="url(#clip0_1193_53)">
        <path fill-rule="evenodd" clip-rule="evenodd"
            d="M-1 -1C3 -1 7 -1 11 -1C6.33334 2.33334 2.33334 6.33334 -1 11C-1 7 -1 3 -1 -1Z"
            fill="#23A0FC" />
        <path fill-rule="evenodd" clip-rule="evenodd"
            d="M19 -1C23 -1 27 -1 31 -1C31 3 31 7 31 11C27.6666 6.33334 23.6666 2.33334 19 -1Z"
            fill="#23A0FC" />
        <path fill-rule="evenodd" clip-rule="evenodd"
            d="M11 -1C13.6667 -1 16.3333 -1 19 -1C23.6666 2.33334 27.6666 6.33334 31 11C31 13.6667 31 16.3333 31 19C27.6666 23.6666 23.6666 27.6666 19 31C16.3333 31 13.6667 31 11 31C6.33334 27.6666 2.33334 23.6666 -1 19C-1 16.3333 -1 13.6667 -1 11C2.33334 6.33334 6.33334 2.33334 11 -1Z"
            fill="#EBF3F7" />
        <path fill-rule="evenodd" clip-rule="evenodd"
            d="M-1 19C2.33334 23.6666 6.33334 27.6666 11 31C7 31 3 31 -1 31C-1 27 -1 23 -1 19Z"
            fill="#23A0FC" />
        <path fill-rule="evenodd" clip-rule="evenodd"
            d="M31 19C31 23 31 27 31 31C27 31 23 31 19 31C23.6666 27.6666 27.6666 23.6666 31 19Z"
            fill="#23A0FC" />
        <path fill-rule="evenodd" clip-rule="evenodd"
            d="M19.6733 25C19.726 20.9051 19.6733 16.812 19.5149 12.7208C19.4187 12.7438 19.3659 12.8058 19.3564 12.9068C17.9396 15.5333 16.4874 18.138 15 20.7209C13.5068 18.1428 12.0547 15.5381 10.6436 12.9068C10.6341 12.8058 10.5813 12.7438 10.4851 12.7208C10.3268 16.812 10.274 20.9051 10.3267 25C9.21782 25 8.10891 25 7 25C7 18.6743 7 12.3487 7 6.02301C8.26842 5.99205 9.53575 6.02307 10.802 6.11604C12.2013 8.75174 13.6007 11.3874 15 14.0231C16.4389 11.4499 17.8383 8.84513 19.198 6.20906C20.4609 6.02344 21.7282 5.96143 23 6.02301C23 12.3487 23 18.6743 23 25C21.8911 25 20.7822 25 19.6733 25Z"
            fill="#191919" />
    </g>
    <defs>
        <clipPath id="clip0_1193_53">
            <rect width="32" height="32" fill="white" />
        </clipPath>
    </defs>
</svg>