<svg width="32" height="32" viewBox="0 0 32 32" fill="none" xmlns="http://www.w3.org/2000/svg">
<g clip-path="url(#clip0_77_2234)">
<path opacity="0.769" fill-rule="evenodd" clip-rule="evenodd" d="M9.77844 -0.0595703C10.0945 -0.0595703 10.4105 -0.0595703 10.7266 -0.0595703C11.5821 0.641975 12.4512 1.33333 13.334 2.0145C13.7924 2.59106 14.2863 3.12439 14.8155 3.6145C15.5043 3.01461 16.1562 2.36276 16.771 1.65895C17.5096 1.05717 18.2602 0.484331 19.0229 -0.0595703C19.2994 -0.0595703 19.576 -0.0595703 19.8525 -0.0595703C20.3776 0.776139 20.8713 1.64527 21.334 2.54784C21.5732 3.24535 21.7509 3.95647 21.8673 4.68117C22.793 4.35606 23.583 3.82273 24.2377 3.08117C24.5303 2.84155 24.787 2.86131 25.0081 3.14043C25.359 4.31065 25.4577 5.49583 25.3044 6.69599C26.0636 6.91524 26.8142 7.15228 27.5562 7.4071C27.474 9.148 27.3555 10.8863 27.2007 12.6219C26.8451 12.6219 26.4896 12.6219 26.134 12.6219C26.134 12.5824 26.134 12.5429 26.134 12.5034C26.2305 12.2508 26.2897 11.9743 26.3118 11.6738C26.3815 10.5265 26.4211 9.38082 26.4303 8.23673C25.7084 8.01178 24.9775 7.81424 24.2377 7.64413C24.1335 7.33395 24.1533 7.01789 24.297 6.69599C24.3561 5.98596 24.3759 5.27485 24.3562 4.56265C24.1572 4.53719 24.0387 4.61621 24.0007 4.79969C23.395 5.12275 22.8024 5.4783 22.2229 5.86636C21.9224 6.03228 21.6064 6.1508 21.2747 6.22191C21.1562 6.22191 21.0377 6.22191 20.9192 6.22191C20.9381 5.62152 20.8789 5.02893 20.7414 4.44413C20.3784 3.33826 19.9636 2.27159 19.497 1.24413C19.344 1.21601 19.2254 1.25551 19.1414 1.36265C18.4347 1.79641 17.763 2.29024 17.1266 2.84413C16.3697 3.55924 15.7575 4.36911 15.2896 5.27376C15.1557 5.46828 14.978 5.58679 14.7562 5.62932C13.695 3.89647 12.3123 2.47425 10.6081 1.36265C10.524 1.25551 10.4055 1.21601 10.2525 1.24413C9.96594 1.77808 9.70915 2.33117 9.48215 2.90339C9.15395 4.04297 8.81813 5.14915 8.47474 6.22191C8.14155 6.18331 7.8255 6.08454 7.52659 5.92562C6.93066 5.54903 6.33806 5.17372 5.74881 4.79969C5.71075 4.61621 5.59223 4.53719 5.39326 4.56265C5.37761 5.59271 5.41712 6.61986 5.51178 7.64413C4.75521 7.77174 4.00459 7.92978 3.25992 8.11821C3.424 11.4029 3.66104 14.6819 3.97104 17.9552C3.9401 18.7341 4.01912 19.4848 4.20807 20.2071C4.41345 22.3794 4.61098 24.5522 4.80067 26.7256C5.78343 26.8331 6.77108 26.8726 7.76363 26.8441C8.84827 26.9619 9.95444 27.0014 11.0821 26.9627C15.4927 27.1506 19.9173 27.0716 24.3562 26.7256C24.3562 26.2515 24.3562 25.7775 24.3562 25.3034C24.5538 25.3034 24.7512 25.3034 24.9488 25.3034C25.0195 27.3886 26.0861 28.5738 28.1488 28.8589C28.234 29.1273 28.2735 29.4038 28.2673 29.6886C27.6779 29.6536 27.1051 29.5351 26.5488 29.333C25.7227 28.8811 25.0313 28.2885 24.4747 27.5552C23.9676 27.647 23.4539 27.7062 22.934 27.733C23.4058 28.437 23.5836 29.2074 23.4673 30.0441C23.2151 30.3177 22.9188 30.5151 22.5784 30.6367C22.4501 30.6413 22.3316 30.6809 22.2229 30.7552C22.0474 30.5598 21.8498 30.4018 21.6303 30.2812C22.0403 30.1702 22.3761 29.9332 22.6377 29.5701C22.667 29.1731 22.5683 28.8176 22.3414 28.5034C22.2293 28.2201 22.0713 27.9634 21.8673 27.733C19.9714 27.6738 18.0751 27.654 16.1784 27.6738C16.1784 28.701 16.1784 29.728 16.1784 30.7552C16.8105 30.7552 17.4427 30.7552 18.0747 30.7552C17.9751 30.9779 17.9355 31.215 17.9562 31.4664C17.0871 31.4664 16.2179 31.4664 15.3488 31.4664C15.3488 30.2812 15.3488 29.096 15.3488 27.9108C15.0723 27.9108 14.7957 27.9108 14.5192 27.9108C14.5192 29.096 14.5192 30.2812 14.5192 31.4664C13.6105 31.4664 12.7019 31.4664 11.7933 31.4664C11.8329 31.1478 11.7539 30.8713 11.5562 30.6367C12.2279 30.6367 12.8994 30.6367 13.571 30.6367C13.571 29.6886 13.571 28.7404 13.571 27.7923C11.91 27.8186 10.2507 27.779 8.59326 27.6738C7.96876 27.6272 7.5737 27.9037 7.40807 28.5034C6.7672 29.427 7.00423 30.0196 8.11918 30.2812C7.80078 30.5189 7.48474 30.756 7.17104 30.9923C6.95287 30.5941 6.65657 30.2385 6.28215 29.9256C6.25777 29.1291 6.47505 28.3981 6.934 27.733C6.66024 27.6741 6.38369 27.6544 6.10437 27.6738C6.10437 28.1873 6.10437 28.701 6.10437 29.2145C5.95802 29.1883 5.8395 29.1093 5.74881 28.9775C5.59531 29.1941 5.47679 29.4312 5.39326 29.6886C5.22139 29.5286 5.14238 29.3311 5.15622 29.096C4.83773 29.0765 4.52167 29.0963 4.20807 29.1552C4.10892 29.2751 4.06941 29.4134 4.08955 29.5701C4.00395 29.4455 3.88543 29.3664 3.734 29.333C3.72088 29.2599 3.68138 29.2006 3.61548 29.1552C3.1019 29.0762 2.58832 29.0762 2.07474 29.1552C1.94743 29.4463 1.82891 29.7426 1.71918 30.0441C1.56116 29.6095 1.40313 29.175 1.24511 28.7404C0.875389 28.6387 0.519834 28.5202 0.178443 28.3849C0.238908 28.7272 0.159896 29.0037 -0.0585938 29.2145C-0.0585938 28.6614 -0.0585938 28.1084 -0.0585938 27.5552C0.238232 27.7501 0.554281 27.9279 0.889554 28.0886C1.04283 28.1467 1.20086 28.1664 1.36363 28.1478C1.69809 28.2672 2.05364 28.3659 2.4303 28.4441C3.37763 28.5034 4.32577 28.5231 5.27474 28.5034C5.27474 28.1478 5.27474 27.7923 5.27474 27.4367C4.82317 27.4511 4.44786 27.2931 4.14881 26.9627C3.87032 24.31 3.57402 21.6631 3.25992 19.0219C2.68984 19.4329 2.25527 19.9465 1.95622 20.5627C1.52048 21.038 1.20443 21.5912 1.00807 22.2219C0.60847 22.8676 0.371433 23.5787 0.296962 24.3552C0.177724 24.9986 0.0592052 25.6307 -0.0585938 26.2515C-0.0585938 24.9873 -0.0585938 23.7232 -0.0585938 22.4589C0.23851 21.7455 0.574312 21.0344 0.948814 20.3256C1.53594 19.5013 2.20755 18.7507 2.96363 18.0738C2.93663 16.6839 2.79835 15.3011 2.54881 13.9256C2.34493 11.7555 2.18689 9.58268 2.07474 7.4071C2.83363 7.11522 3.62375 6.91769 4.44511 6.8145C4.30926 5.53001 4.42778 4.26582 4.80067 3.02191C5.04359 2.88411 5.28063 2.90386 5.51178 3.08117C5.88389 3.34523 6.19994 3.66128 6.45992 4.02932C6.93928 4.23943 7.3936 4.49622 7.82289 4.79969C8.14244 3.02797 8.79429 1.40822 9.77844 -0.0595703Z" fill="#6E4ABA"/>
<path fill-rule="evenodd" clip-rule="evenodd" d="M10.6075 1.36328C12.3117 2.47488 13.6945 3.8971 14.7557 5.62995C14.8409 5.89825 14.8804 6.17479 14.8742 6.45958C13.9227 6.40506 13.0142 6.56309 12.1483 6.93365C12.0302 6.94382 11.9315 6.90431 11.852 6.81513C10.9415 5.07284 10.5267 3.25556 10.6075 1.36328Z" fill="#A28AD3"/>
<path fill-rule="evenodd" clip-rule="evenodd" d="M10.6079 1.36264C10.5271 3.25492 10.9419 5.0722 11.8524 6.81449C11.9319 6.90367 12.0306 6.94318 12.1487 6.93301C11.9295 7.06255 11.732 7.22057 11.5561 7.40709C11.5166 7.40709 11.4771 7.40709 11.4376 7.40709C10.4324 7.05878 9.44471 6.66371 8.47461 6.2219C8.818 5.14914 9.15382 4.04296 9.48202 2.90338C9.70902 2.33116 9.96581 1.77807 10.2524 1.24412C10.4054 1.216 10.5239 1.2555 10.6079 1.36264Z" fill="#9376CD"/>
<path fill-rule="evenodd" clip-rule="evenodd" d="M19.141 1.36264C19.225 1.2555 19.3435 1.216 19.4965 1.24412C19.9631 2.27158 20.3779 3.33825 20.741 4.44412C20.8785 5.02892 20.9377 5.62151 20.9187 6.2219C21.0373 6.2219 21.1558 6.2219 21.2743 6.2219C20.7243 6.4655 20.1711 6.7223 19.615 6.99227C18.9859 7.09068 18.3539 7.14994 17.7188 7.17005C18.1445 6.51559 18.4802 5.80448 18.7262 5.03672C18.9727 3.98168 19.1505 2.91501 19.2595 1.83672C19.2582 1.65359 19.2187 1.49557 19.141 1.36264Z" fill="#7C5CC2"/>
<path fill-rule="evenodd" clip-rule="evenodd" d="M5.74756 4.80028C5.62828 4.9756 5.62828 5.17313 5.74756 5.39288C6.18327 6.00479 6.51906 6.6764 6.75496 7.40769C7.01285 7.68916 7.26964 7.9657 7.52533 8.23732C7.33873 8.37135 7.14119 8.3911 6.93274 8.29658C6.41563 8.15011 5.94156 7.93283 5.51052 7.64473C5.41586 6.62046 5.37636 5.5933 5.392 4.56325C5.59097 4.53779 5.70949 4.6168 5.74756 4.80028Z" fill="#9275CD"/>
<path fill-rule="evenodd" clip-rule="evenodd" d="M5.74865 4.7998C6.3379 5.17384 6.9305 5.54915 7.52643 5.92573C7.82534 6.08465 8.14139 6.18343 8.47458 6.22203C9.44468 6.66384 10.4323 7.05891 11.4375 7.40721C10.8428 8.00507 10.4478 8.71618 10.2524 9.54055C10.1757 10.2334 10.0177 10.9248 9.77828 11.6146C9.80286 11.8457 9.92138 11.9839 10.1338 12.0294C9.48 12.6276 9.00592 13.3387 8.71162 14.1628C8.31001 14.8879 8.15197 15.678 8.23754 16.5331C8.19227 17.5257 8.35029 18.4739 8.71162 19.3776C8.35388 19.358 7.99833 19.3778 7.64495 19.4368C7.43326 19.4601 7.27523 19.5588 7.17088 19.7331C9.38884 19.992 10.8506 21.1772 11.5561 23.2887C11.5632 23.353 11.6027 23.3925 11.6746 23.4072C11.8201 22.9647 12.0177 22.9449 12.2672 23.348C13.0774 23.6482 13.907 23.8654 14.7561 23.9998C14.7561 24.948 14.7561 25.8961 14.7561 26.8443C12.4252 26.8443 10.0943 26.8443 7.76347 26.8443C6.77092 26.8727 5.78327 26.8332 4.80051 26.7257C4.61082 24.5523 4.41329 22.3795 4.20791 20.2072C4.22724 19.4295 4.14824 18.6789 3.97088 17.9554C3.66088 14.682 3.42384 11.403 3.25977 8.11832C4.00443 7.92989 4.75505 7.77186 5.51162 7.64425C5.94266 7.93236 6.41673 8.14964 6.93384 8.2961C7.14229 8.39062 7.33982 8.37087 7.52643 8.23684C7.27074 7.96522 7.01395 7.68868 6.75606 7.40721C6.52016 6.67592 6.18436 6.00431 5.74865 5.3924C5.62938 5.17265 5.62938 4.97512 5.74865 4.7998Z" fill="#A28AD3"/>
<path fill-rule="evenodd" clip-rule="evenodd" d="M19.1403 1.36328C19.2181 1.49621 19.2575 1.65423 19.2588 1.83736C19.1498 2.91565 18.972 3.98232 18.7255 5.03736C18.4796 5.80512 18.1438 6.51623 17.7181 7.17069C18.3532 7.15058 18.9853 7.09132 19.6144 6.99291C20.1705 6.72294 20.7236 6.46614 21.2736 6.22254C21.6053 6.15143 21.9213 6.03291 22.2218 5.86698C22.8013 5.47893 23.3939 5.12338 23.9996 4.80032C23.7069 6.05607 23.1144 7.20175 22.2218 8.23736C22.4083 8.37139 22.6059 8.39113 22.8144 8.29661C23.2792 8.04653 23.7533 7.82925 24.2366 7.64476C24.9764 7.81487 25.7073 8.01241 26.4292 8.23736C26.42 9.38145 26.3804 10.5271 26.3107 11.6744C26.2886 11.975 26.2294 12.2515 26.1329 12.504C25.4602 12.4843 24.7885 12.5041 24.1181 12.5633C24.0522 12.6087 24.0127 12.6679 23.9996 12.7411C23.7154 12.7125 23.4783 12.7915 23.2885 12.9781C23.1257 12.9595 22.9676 12.9793 22.8144 13.0374C22.2416 13.3561 21.6885 13.6918 21.1551 14.0448C20.2968 12.3178 18.9536 11.1326 17.1255 10.4892C16.8089 10.2974 16.4534 10.2184 16.0588 10.2522C15.1897 10.0941 14.3205 10.0941 13.4514 10.2522C12.8634 10.2906 12.3499 10.4881 11.9107 10.8448C11.2557 11.1438 10.6631 11.5388 10.1329 12.0299C9.92044 11.9844 9.80192 11.8462 9.77734 11.6151C10.0167 10.9253 10.1747 10.2339 10.2514 9.54106C10.2319 9.8988 10.2517 10.2544 10.3107 10.6077C11.2957 9.17638 12.6586 8.3665 14.3996 8.1781C15.1492 8.1189 15.8998 8.09914 16.6514 8.11884C17.364 8.29062 17.4429 8.11284 16.8885 7.5855C16.5237 7.2593 16.1286 6.98277 15.7033 6.75587C15.4374 6.62121 15.1609 6.52245 14.8736 6.45958C14.8798 6.17479 14.8403 5.89825 14.7551 5.62995C14.9769 5.58742 15.1546 5.4689 15.2885 5.27439C15.7564 4.36974 16.3686 3.55987 17.1255 2.84476C17.7619 2.29087 18.4336 1.79704 19.1403 1.36328Z" fill="#9376CD"/>
<path fill-rule="evenodd" clip-rule="evenodd" d="M14.8732 6.45971C15.1605 6.52258 15.437 6.62134 15.7028 6.756C16.1282 6.98289 16.5232 7.25943 16.888 7.58563C17.4425 8.11297 17.3635 8.29075 16.651 8.11897C16.6058 7.94935 16.4873 7.85058 16.2954 7.82267C15.0083 7.67668 13.7441 7.77544 12.5028 8.11897C12.3216 8.11555 12.1833 8.03654 12.088 7.88193C12.0641 7.67386 12.0048 7.47632 11.9102 7.28934C11.8016 7.36367 11.6831 7.40319 11.5547 7.40785C11.7306 7.22134 11.9281 7.06332 12.1473 6.93378C13.0132 6.56322 13.9217 6.40519 14.8732 6.45971Z" fill="#6D4AB9"/>
<path fill-rule="evenodd" clip-rule="evenodd" d="M24.2375 7.64473C23.7542 7.82921 23.2801 8.04649 22.8152 8.29658C22.6068 8.3911 22.4092 8.37135 22.2227 8.23732C23.1152 7.20172 23.7078 6.05603 24.0004 4.80028C24.0385 4.6168 24.157 4.53779 24.356 4.56325C24.3757 5.27545 24.3559 5.98656 24.2967 6.69658C24.1531 7.01849 24.1333 7.33454 24.2375 7.64473Z" fill="#7D5DC2"/>
<path fill-rule="evenodd" clip-rule="evenodd" d="M16.6514 8.11869C15.8998 8.09899 15.1492 8.11875 14.3996 8.17795C12.6586 8.36636 11.2957 9.17623 10.3107 10.6076C10.2516 10.2542 10.2319 9.89865 10.2514 9.54091C10.4468 8.71655 10.8419 8.00544 11.4366 7.40758C11.4761 7.40758 11.5156 7.40758 11.5551 7.40758C11.6835 7.40291 11.802 7.3634 11.9107 7.28906C12.0052 7.47605 12.0645 7.67358 12.0884 7.88166C12.1837 8.03626 12.322 8.11528 12.5033 8.11869C13.7445 7.77517 15.0087 7.6764 16.2959 7.8224C16.4877 7.85031 16.6063 7.94908 16.6514 8.11869Z" fill="#6141A9"/>
<path fill-rule="evenodd" clip-rule="evenodd" d="M19.7331 8.00044C20.0908 7.98093 20.4463 8.00067 20.7997 8.05969C21.2738 8.57327 21.2738 9.08686 20.7997 9.60044C19.6853 9.93933 19.231 9.52451 19.4368 8.35599C19.5606 8.25248 19.6594 8.13396 19.7331 8.00044Z" fill="#7D5CC2"/>
<path fill-rule="evenodd" clip-rule="evenodd" d="M5.74718 9.4218C7.33703 9.33086 7.94938 10.042 7.58421 11.5551C6.36638 12.7753 5.37873 12.6172 4.62125 11.0811C4.50176 10.1705 4.87706 9.61741 5.74718 9.4218Z" fill="#9477CE"/>
<path fill-rule="evenodd" clip-rule="evenodd" d="M23.408 10.0145C24.3635 9.98275 24.6005 10.3778 24.1191 11.1996C23.7288 11.3737 23.3929 11.2947 23.1117 10.9626C22.9953 10.5745 23.094 10.2584 23.408 10.0145Z" fill="#7E5EC3"/>
<path fill-rule="evenodd" clip-rule="evenodd" d="M16.0586 10.2517C16.4531 10.218 16.8087 10.297 17.1253 10.4888C16.7428 10.4679 16.3872 10.3889 16.0586 10.2517Z" fill="#B9BAE1"/>
<path fill-rule="evenodd" clip-rule="evenodd" d="M13.451 10.37C15.3681 10.2506 16.9285 10.9222 18.1325 12.3848C18.4968 13.0123 18.6549 13.684 18.6066 14.3996C18.4459 14.2953 18.2681 14.2557 18.0733 14.2811C17.0706 14.0612 16.1224 14.1797 15.2288 14.6366C14.9842 14.7028 14.7867 14.8411 14.6362 15.0514C14.958 15.2579 15.2741 15.4751 15.5844 15.7033C15.6249 15.8026 15.7038 15.8422 15.8214 15.8218C16.1127 16.7214 15.8757 17.4523 15.1103 18.0144C14.9571 18.0725 14.7989 18.0923 14.6362 18.0737C14.2724 18.0893 13.9168 18.0498 13.5696 17.9551C13.3541 17.7681 13.2356 17.8274 13.214 18.1329C13.2955 18.6403 13.4141 19.134 13.5696 19.6144C11.2186 19.8901 9.53961 18.9419 8.53252 16.77C8.4249 15.8838 8.48416 15.0147 8.7103 14.1626C9.0046 13.3385 9.47868 12.6274 10.1325 12.0292C10.6628 11.5381 11.2554 11.143 11.9103 10.844C12.4166 10.6886 12.9301 10.5306 13.451 10.37Z" fill="#FDFDFD"/>
<path fill-rule="evenodd" clip-rule="evenodd" d="M16.0586 10.2523C16.3872 10.3895 16.7428 10.4685 17.1252 10.4893C18.9534 11.1327 20.2966 12.318 21.1549 14.0449C20.7508 14.5279 20.3164 14.9625 19.8512 15.3486C19.6442 15.141 19.4072 14.983 19.1401 14.8745C18.8212 14.6103 18.4657 14.4128 18.0734 14.2819C18.2682 14.2566 18.446 14.2962 18.6067 14.4005C18.6551 13.6848 18.497 13.0132 18.1327 12.3856C16.9286 10.923 15.3682 10.2514 13.4512 10.3708C13.4512 10.3313 13.4512 10.2918 13.4512 10.2523C14.3203 10.0943 15.1895 10.0943 16.0586 10.2523Z" fill="#D1E4EC"/>
<path fill-rule="evenodd" clip-rule="evenodd" d="M13.4509 10.252C13.4509 10.2915 13.4509 10.331 13.4509 10.3705C12.93 10.5311 12.4165 10.6891 11.9102 10.8445C12.3494 10.4879 12.8629 10.2904 13.4509 10.252Z" fill="#D7D1EB"/>
<path fill-rule="evenodd" clip-rule="evenodd" d="M26.1333 12.5035C26.1333 12.5429 26.1333 12.5825 26.1333 12.622C25.4152 12.5928 24.7041 12.6323 24 12.7405C24.0132 12.6674 24.0526 12.6081 24.1185 12.5627C24.789 12.5036 25.4606 12.4838 26.1333 12.5035Z" fill="#6F609A"/>
<path opacity="0.992" fill-rule="evenodd" clip-rule="evenodd" d="M27.1991 12.6221C27.7072 12.7088 28.1813 12.8668 28.6214 13.0961C28.6058 13.2 28.6453 13.279 28.7399 13.3332C28.8806 13.4698 28.9991 13.4698 29.0954 13.3332C29.3531 13.3628 29.5507 13.4813 29.688 13.6887C29.7079 13.9911 29.8265 14.0701 30.0436 13.9258C30.2376 14.1598 30.4352 14.3969 30.6362 14.6369C30.6362 14.8739 30.7547 14.9924 30.9917 14.9924C31.3374 15.4862 31.6535 15.9997 31.9399 16.5332C31.9399 18.1134 31.9399 19.6937 31.9399 21.2739C31.8134 21.566 31.6554 21.8425 31.4658 22.1036C31.2378 22.1286 31.1983 22.2075 31.3473 22.3406C31.3078 22.4196 31.2682 22.4986 31.2288 22.5776C30.9404 22.5507 30.743 22.6692 30.6362 22.9332C30.1596 23.4095 29.6461 23.8441 29.0954 24.2369C28.9526 24.3645 28.8736 24.5225 28.8584 24.711C28.3238 24.6503 27.8101 24.7688 27.3177 25.0665C27.2048 25.2496 27.1654 25.4472 27.1991 25.6591C27.1124 25.5041 27.0135 25.346 26.9028 25.185C26.262 25.3004 25.6102 25.3399 24.9473 25.3036C24.7497 25.3036 24.5523 25.3036 24.3547 25.3036C22.1959 24.8419 20.5761 23.6567 19.4954 21.748C19.4842 21.4771 19.4051 21.24 19.2584 21.0369C19.1642 20.5657 19.0851 20.0916 19.0214 19.6147C18.9779 18.6892 19.0568 17.7805 19.2584 16.8887C19.3766 16.8923 19.4556 16.833 19.4954 16.711C19.6597 16.3872 19.7782 16.0514 19.851 15.7036C19.851 15.585 19.851 15.4665 19.851 15.348C20.3162 14.9619 20.7507 14.5273 21.1547 14.0443C21.688 13.6913 22.2411 13.3556 22.8139 13.0369C22.9672 12.9788 23.1253 12.959 23.288 12.9776C24.6042 12.8147 25.9079 12.6961 27.1991 12.6221Z" fill="#3D4252"/>
<path fill-rule="evenodd" clip-rule="evenodd" d="M26.1335 12.6226C26.4891 12.6226 26.8446 12.6226 27.2002 12.6226C25.9089 12.6966 24.6052 12.8152 23.2891 12.9781C23.4789 12.7916 23.716 12.7125 24.0002 12.7411C24.7043 12.6329 25.4154 12.5934 26.1335 12.6226Z" fill="#484764"/>
<path opacity="0.029" fill-rule="evenodd" clip-rule="evenodd" d="M28.6224 13.0967C28.8183 13.1156 28.9763 13.1946 29.0965 13.3337C29.0001 13.4704 28.8816 13.4704 28.7409 13.3337C28.6464 13.2796 28.6069 13.2005 28.6224 13.0967Z" fill="#4F437C"/>
<path fill-rule="evenodd" clip-rule="evenodd" d="M24.2378 13.4521C23.999 13.6209 23.7225 13.6998 23.4082 13.6892C23.647 13.5204 23.9235 13.4415 24.2378 13.4521Z" fill="#808C98"/>
<path fill-rule="evenodd" clip-rule="evenodd" d="M29.2154 14.6369C29.413 14.9134 29.65 15.1504 29.9265 15.348C30.2514 15.6413 30.4884 15.9969 30.6376 16.4146C30.6423 16.543 30.6818 16.6615 30.7561 16.7702C30.6376 16.8097 30.5191 16.8493 30.4006 16.8887C30.1807 16.9077 30.0228 16.8286 29.9265 16.6517C30.1076 16.6497 30.1669 16.5706 30.1043 16.4146C29.2853 15.2572 28.1989 14.5065 26.845 14.1628C26.7561 16.1078 26.598 18.0437 26.371 19.9702C26.4895 19.9702 26.608 19.9702 26.7265 19.9702C26.4104 20.0493 26.0945 20.1282 25.7784 20.2072C25.6993 20.3652 25.5808 20.4837 25.4228 20.5628C24.8834 20.3291 24.3303 20.1316 23.7636 19.9702C23.6602 18.8904 23.0676 18.436 21.9858 18.6072C21.9199 18.6526 21.8804 18.7119 21.8673 18.785C21.6004 18.8343 21.4226 18.9923 21.3339 19.2591C21.2414 19.6522 21.3006 20.0078 21.5117 20.3258C21.3307 20.7463 21.0937 21.1413 20.8006 21.5109C20.7028 21.616 20.5843 21.6554 20.445 21.6295C20.4654 21.5119 20.4258 21.433 20.3265 21.3924C20.2125 20.9308 20.0544 20.4963 19.8524 20.0887C19.6132 18.8891 19.7317 17.7434 20.208 16.6517C20.3746 16.5956 20.4537 16.4771 20.445 16.2961C20.9495 15.3104 21.7001 14.5598 22.6969 14.0443C22.9893 14.0141 23.2263 13.8955 23.408 13.6887C23.7223 13.6994 23.9988 13.6205 24.2376 13.4517C26.0672 13.1067 27.7265 13.5017 29.2154 14.6369Z" fill="#D0E5EB"/>
<path opacity="0.01" fill-rule="evenodd" clip-rule="evenodd" d="M29.6895 13.6891C29.8704 13.6805 29.9889 13.7595 30.045 13.9262C29.8279 14.0705 29.7094 13.9915 29.6895 13.6891Z" fill="#5C4496"/>
<path fill-rule="evenodd" clip-rule="evenodd" d="M23.4084 13.6885C23.2267 13.8953 22.9897 14.0138 22.6973 14.044C22.879 13.8372 23.116 13.7187 23.4084 13.6885Z" fill="#7B8894"/>
<path fill-rule="evenodd" clip-rule="evenodd" d="M4.80075 14.0448C5.6941 13.9472 5.93113 14.283 5.51186 15.0522C4.58542 15.1936 4.34838 14.8577 4.80075 14.0448Z" fill="#9578CD"/>
<path fill-rule="evenodd" clip-rule="evenodd" d="M29.9266 16.652C29.9266 16.5729 29.8872 16.5335 29.8081 16.5335C29.7291 16.1384 29.492 15.9014 29.097 15.8223C29.0008 15.6454 28.8428 15.5663 28.6229 15.5853C28.284 15.5918 28.0075 15.7103 27.7933 15.9409C27.6267 15.9969 27.5476 16.1154 27.5563 16.2964C27.3698 16.7663 27.4488 17.201 27.7933 17.6001C27.4401 18.3859 27.0846 19.1759 26.7266 19.9705C26.6081 19.9705 26.4896 19.9705 26.3711 19.9705C26.5982 18.044 26.7563 16.1081 26.8452 14.1631C28.199 14.5068 29.2855 15.2575 30.1044 16.4149C30.167 16.5709 30.1077 16.65 29.9266 16.652Z" fill="#FBFAFB"/>
<path fill-rule="evenodd" clip-rule="evenodd" d="M24.4739 13.9262C24.8316 13.9067 25.1871 13.9265 25.5406 13.9855C22.5425 14.6133 20.8635 16.4503 20.5035 19.4966C20.221 17.5328 20.8728 15.9722 22.4591 14.8151C23.0958 14.413 23.7673 14.1167 24.4739 13.9262Z" fill="#F6FAFB"/>
<path fill-rule="evenodd" clip-rule="evenodd" d="M18.0737 14.2819C18.466 14.4128 18.8215 14.6104 19.1403 14.8745C19.012 14.8699 18.8935 14.8303 18.7848 14.756C18.5531 15.2153 18.5531 15.6499 18.7848 16.0597C18.7453 16.0597 18.7057 16.0597 18.6663 16.0597C18.6268 16.0597 18.5872 16.0597 18.5477 16.0597C17.6989 15.3859 16.7902 15.3069 15.8218 15.8227C15.7042 15.8431 15.6253 15.8035 15.5848 15.7042C15.4954 15.3971 15.2978 15.1798 14.9922 15.0523C15.0876 14.9204 15.1666 14.7822 15.2292 14.6375C16.1229 14.1806 17.071 14.0621 18.0737 14.2819Z" fill="#E96577"/>
<path fill-rule="evenodd" clip-rule="evenodd" d="M29.2148 14.6367C29.5704 14.7552 29.8074 14.9923 29.926 15.3478C29.6495 15.1503 29.4124 14.9132 29.2148 14.6367Z" fill="#6E7A83"/>
<path fill-rule="evenodd" clip-rule="evenodd" d="M15.2293 14.6367C15.1667 14.7814 15.0877 14.9196 14.9923 15.0515C15.2979 15.1791 15.4955 15.3963 15.5849 15.7034C15.2746 15.4752 14.9585 15.258 14.6367 15.0515C14.7872 14.8412 14.9847 14.7029 15.2293 14.6367Z" fill="#F08997"/>
<path fill-rule="evenodd" clip-rule="evenodd" d="M18.5478 16.0588C18.0108 16.9837 17.3392 17.8332 16.533 18.607C16.0518 18.8071 15.6172 19.064 15.2293 19.3773C15.1503 19.3379 15.0713 19.2983 14.9923 19.2588C14.7573 18.9488 14.6387 18.5932 14.6367 18.1921C14.6367 18.1527 14.6367 18.1131 14.6367 18.0736C14.7994 18.0922 14.9575 18.0724 15.1108 18.0144C15.8762 17.4522 16.1132 16.7213 15.8219 15.8218C16.7903 15.306 17.699 15.385 18.5478 16.0588Z" fill="#363435"/>
<path fill-rule="evenodd" clip-rule="evenodd" d="M29.0967 15.8218C28.6541 15.8008 28.2195 15.8403 27.793 15.9403C28.0071 15.7098 28.2836 15.5913 28.6226 15.5848C28.8425 15.5658 29.0004 15.6449 29.0967 15.8218Z" fill="#EE7585"/>
<path fill-rule="evenodd" clip-rule="evenodd" d="M19.1407 14.8744C19.4078 14.9828 19.6448 15.1408 19.8518 15.3485C19.8518 15.467 19.8518 15.5855 19.8518 15.704C19.6352 16.0461 19.3982 16.362 19.1407 16.6522C19.0725 16.4257 18.954 16.2281 18.7851 16.0596C18.5534 15.6497 18.5534 15.2151 18.7851 14.7559C18.8938 14.8302 19.0123 14.8698 19.1407 14.8744Z" fill="#E44D62"/>
<path fill-rule="evenodd" clip-rule="evenodd" d="M29.096 15.8219C29.491 15.9009 29.7281 16.138 29.8071 16.533C29.831 16.8233 29.7916 17.0999 29.6886 17.3626C29.5306 17.4417 29.4121 17.5602 29.333 17.7182C29.0254 17.8088 28.7093 17.8484 28.3849 17.8367C28.1734 17.7901 27.976 17.7112 27.7923 17.5996C27.4478 17.2005 27.3688 16.7659 27.5553 16.2959C27.7219 16.2399 27.8009 16.1214 27.7923 15.9404C28.2188 15.8404 28.6534 15.8009 29.096 15.8219Z" fill="#EA5468"/>
<path fill-rule="evenodd" clip-rule="evenodd" d="M19.8517 15.7041C19.779 16.052 19.6604 16.3877 19.4962 16.7115C19.4564 16.8336 19.3773 16.8928 19.2591 16.8893C19.2197 16.8102 19.1801 16.7313 19.1406 16.6522C19.3982 16.3621 19.6352 16.0461 19.8517 15.7041Z" fill="#61414E"/>
<path fill-rule="evenodd" clip-rule="evenodd" d="M18.549 16.0596C18.5885 16.0596 18.628 16.0596 18.6675 16.0596C18.7362 16.3261 18.8942 16.5236 19.1416 16.6522C19.181 16.7312 19.2206 16.8101 19.2601 16.8892C19.0585 17.7809 18.9796 18.6896 19.0231 19.6151C18.5881 19.8202 18.1535 20.0374 17.7194 20.267C17.3659 20.326 17.0104 20.3458 16.6527 20.3262C16.4798 20.3342 16.3218 20.2947 16.1786 20.2077C15.7952 20.0227 15.4791 19.7462 15.2305 19.3781C15.6184 19.0647 16.053 18.8079 16.5342 18.6077C17.3403 17.8339 18.012 16.9845 18.549 16.0596Z" fill="#252323"/>
<path fill-rule="evenodd" clip-rule="evenodd" d="M18.666 16.0596C18.7055 16.0596 18.7451 16.0596 18.7845 16.0596C18.9534 16.2281 19.0719 16.4257 19.1401 16.6522C18.8927 16.5236 18.7348 16.3261 18.666 16.0596Z" fill="#5A2E34"/>
<path fill-rule="evenodd" clip-rule="evenodd" d="M27.7924 15.9404C27.801 16.1214 27.722 16.2399 27.5553 16.296C27.5467 16.115 27.6257 15.9965 27.7924 15.9404Z" fill="#F298A4"/>
<path fill-rule="evenodd" clip-rule="evenodd" d="M20.4447 16.2959C20.4534 16.4769 20.3743 16.5954 20.2077 16.6515C20.199 16.4705 20.2781 16.352 20.4447 16.2959Z" fill="#828E99"/>
<path fill-rule="evenodd" clip-rule="evenodd" d="M8.71146 14.1631C8.48533 15.0152 8.42607 15.8843 8.53368 16.7705C9.54077 18.9425 11.2198 19.8906 13.5707 19.6149C13.7287 19.7729 13.8868 19.931 14.0448 20.089C14.1873 20.3132 14.3452 20.5306 14.5189 20.7409C15.9924 21.8048 17.5332 21.9035 19.1411 21.0372C19.1806 21.0372 19.2201 21.0372 19.2596 21.0372C19.4063 21.2403 19.4854 21.4773 19.4966 21.7483C19.07 21.9391 18.6748 22.1761 18.3115 22.4594C17.8336 22.5909 17.3991 22.7885 17.0078 23.052C15.1477 23.5118 13.37 23.3143 11.6744 22.4594C11.4537 21.8993 11.1969 21.3461 10.9041 20.8001C10.2751 20.1483 9.54428 19.6742 8.71146 19.3779C8.35013 18.4742 8.19211 17.526 8.23739 16.5335C8.15182 15.6783 8.30985 14.8882 8.71146 14.1631Z" fill="#D1E4EC"/>
<path fill-rule="evenodd" clip-rule="evenodd" d="M30.6376 16.415C30.7107 16.4282 30.77 16.4677 30.8154 16.5336C30.8826 16.8498 30.9418 17.1657 30.9932 17.4817C30.8352 17.4817 30.6771 17.4817 30.5191 17.4817C30.2694 17.367 29.9927 17.3274 29.6895 17.3632C29.7924 17.1004 29.8319 16.8239 29.808 16.5336C29.887 16.5336 29.9265 16.573 29.9265 16.6521C30.0227 16.829 30.1807 16.9081 30.4006 16.8891C30.5191 16.8496 30.6376 16.8101 30.7561 16.7706C30.6818 16.6619 30.6422 16.5434 30.6376 16.415Z" fill="#9D9A9C"/>
<path fill-rule="evenodd" clip-rule="evenodd" d="M29.6883 17.3633C29.9915 17.3275 30.2682 17.3671 30.5179 17.4819C30.6518 18.3416 30.6715 19.2107 30.5771 20.0893C30.3646 20.5885 30.1869 21.102 30.0438 21.63C29.2072 21.2509 28.3776 20.836 27.5549 20.3856C27.4973 20.1453 27.4973 19.8886 27.5549 19.6152C27.7709 19.0253 28.0474 18.4723 28.3845 17.9559C28.7636 18.0195 29.0797 17.9404 29.3327 17.7189C29.4117 17.5609 29.5303 17.4424 29.6883 17.3633Z" fill="#FDFDFD"/>
<path fill-rule="evenodd" clip-rule="evenodd" d="M27.7922 17.5996C27.9759 17.7111 28.1733 17.7901 28.3848 17.8366C28.3848 17.8761 28.3848 17.9157 28.3848 17.9552C28.0476 18.4716 27.7711 19.0246 27.5551 19.6144C27.3426 19.8427 27.2241 20.1192 27.1996 20.4441C26.7626 20.2256 26.2885 20.1466 25.7773 20.207C26.0934 20.128 26.4094 20.049 26.7255 19.97C27.0834 19.1754 27.439 18.3854 27.7922 17.5996Z" fill="#A1A3A7"/>
<path fill-rule="evenodd" clip-rule="evenodd" d="M29.3329 17.7188C29.0799 17.9403 28.7638 18.0193 28.3848 17.9558C28.3848 17.9163 28.3848 17.8767 28.3848 17.8373C28.7092 17.849 29.0252 17.8094 29.3329 17.7188Z" fill="#F8CCD2"/>
<path fill-rule="evenodd" clip-rule="evenodd" d="M13.5703 17.9551C13.9176 18.0498 14.2731 18.0892 14.637 18.0736C14.637 18.1131 14.637 18.1526 14.637 18.1921C14.3185 18.2116 14.0024 18.1918 13.6888 18.1329C13.6229 18.0875 13.5835 18.0282 13.5703 17.9551Z" fill="#F0B0B9"/>
<path fill-rule="evenodd" clip-rule="evenodd" d="M13.5704 17.9551C13.5836 18.0283 13.623 18.0875 13.6889 18.1329C14.0025 18.1918 14.3186 18.2116 14.6371 18.1922C14.6391 18.5933 14.7576 18.9488 14.9926 19.2589C14.9926 19.2983 14.9926 19.3379 14.9926 19.3774C14.6905 19.497 14.3745 19.5957 14.0445 19.6737C14.124 19.7905 14.124 19.9288 14.0445 20.0885C13.8865 19.9305 13.7284 19.7724 13.5704 19.6144C13.4149 19.1341 13.2964 18.6403 13.2148 18.1329C13.2364 17.8274 13.3549 17.7681 13.5704 17.9551Z" fill="#E96779"/>
<path fill-rule="evenodd" clip-rule="evenodd" d="M23.7636 19.9704C23.6639 20.1394 23.5454 20.2975 23.408 20.4445C22.9812 20.799 22.5072 20.8779 21.9858 20.6815C21.8045 20.5972 21.6465 20.4787 21.5117 20.3259C21.4214 19.746 21.5399 19.2325 21.8673 18.7852C21.8804 18.7121 21.9199 18.6528 21.9858 18.6074C23.0676 18.4362 23.6602 18.8906 23.7636 19.9704Z" fill="#2AC189"/>
<path fill-rule="evenodd" clip-rule="evenodd" d="M8.71066 19.3774C9.54348 19.6737 10.2743 20.1478 10.9033 20.7996C11.1961 21.3456 11.4529 21.8988 11.6736 22.4589C11.7094 22.7622 11.6699 23.0388 11.5551 23.2885C10.8496 21.177 9.38789 19.9918 7.16992 19.733C7.27428 19.5586 7.43231 19.4599 7.644 19.4367C7.99737 19.3776 8.35293 19.3579 8.71066 19.3774Z" fill="#7756BF"/>
<path fill-rule="evenodd" clip-rule="evenodd" d="M21.8667 18.7852C21.5393 19.2324 21.4208 19.746 21.5111 20.3259C21.3 20.0079 21.2408 19.6524 21.3333 19.2592C21.422 18.9924 21.5998 18.8345 21.8667 18.7852Z" fill="#5ECCA7"/>
<path fill-rule="evenodd" clip-rule="evenodd" d="M3.96942 17.9551C4.14678 18.6786 4.22579 19.4292 4.20645 20.2069C4.0175 19.4847 3.93848 18.734 3.96942 17.9551Z" fill="#8466C4"/>
<path fill-rule="evenodd" clip-rule="evenodd" d="M14.9922 19.2588C15.0712 19.2983 15.1502 19.3378 15.2292 19.3773C15.4779 19.7454 15.794 20.0219 16.1774 20.2069C15.909 20.1217 15.6325 20.0823 15.3477 20.0884C15.3341 19.7984 15.2156 19.5614 14.9922 19.3773C14.9922 19.3378 14.9922 19.2983 14.9922 19.2588Z" fill="#B44453"/>
<path fill-rule="evenodd" clip-rule="evenodd" d="M19.0227 19.6152C19.0865 20.0922 19.1655 20.5662 19.2598 21.0375C19.2203 21.0375 19.1807 21.0375 19.1412 21.0375C18.9279 20.7615 18.7896 20.4455 18.7264 20.0893C18.0493 20.4235 17.3579 20.5026 16.6523 20.3263C17.01 20.3459 17.3656 20.3261 17.719 20.2671C18.1531 20.0375 18.5878 19.8203 19.0227 19.6152Z" fill="#CF4A5D"/>
<path fill-rule="evenodd" clip-rule="evenodd" d="M31.2292 17.9551C31.3659 18.6447 31.3856 19.3558 31.2885 20.0884C31.2423 20.397 31.1434 20.6737 30.9922 20.918C31.1914 19.9425 31.2704 18.9549 31.2292 17.9551Z" fill="#606A76"/>
<path fill-rule="evenodd" clip-rule="evenodd" d="M14.9931 19.3779C15.2165 19.562 15.335 19.799 15.3486 20.089C15.6334 20.0829 15.9099 20.1223 16.1783 20.2076C16.3214 20.2946 16.4794 20.334 16.6523 20.3261C17.3579 20.5023 18.0493 20.4233 18.7264 20.089C18.7896 20.4452 18.9279 20.7613 19.1412 21.0372C17.5333 21.9036 15.9925 21.8048 14.519 20.7409C14.3454 20.5306 14.1874 20.3133 14.0449 20.089C14.1244 19.9294 14.1244 19.7911 14.0449 19.6742C14.375 19.5962 14.691 19.4975 14.9931 19.3779Z" fill="#E95267"/>
<path fill-rule="evenodd" clip-rule="evenodd" d="M23.7638 19.9707C24.3305 20.1321 24.8836 20.3296 25.423 20.5633C25.3651 20.7405 25.2861 20.8986 25.186 21.0374C24.6057 20.8067 24.0131 20.6092 23.4082 20.4448C23.5456 20.2978 23.6641 20.1397 23.7638 19.9707Z" fill="#9BA0A2"/>
<path fill-rule="evenodd" clip-rule="evenodd" d="M25.7781 20.2071C26.2893 20.1467 26.7634 20.2258 27.2004 20.4442C27.7722 21.2556 27.6142 21.9074 26.7263 22.3997C25.7152 22.5148 25.2017 22.0605 25.1855 21.0368C25.2857 20.898 25.3646 20.7399 25.4226 20.5627C25.5806 20.4836 25.6991 20.3651 25.7781 20.2071Z" fill="#3A92EE"/>
<path fill-rule="evenodd" clip-rule="evenodd" d="M19.8516 20.0889C20.0535 20.4965 20.2116 20.9309 20.3256 21.3926C20.0305 21.0221 19.8725 20.5876 19.8516 20.0889Z" fill="#7B8793"/>
<path fill-rule="evenodd" clip-rule="evenodd" d="M30.5186 17.4814C30.6766 17.4814 30.8347 17.4814 30.9927 17.4814C31.1913 17.5624 31.2704 17.7205 31.2297 17.9555C31.2708 18.9553 31.1919 19.943 30.9927 20.9185C30.2343 22.4666 29.0491 23.5727 27.4371 24.237C27.1228 24.2263 26.8463 24.3053 26.6075 24.474C25.8569 24.474 25.1062 24.474 24.3556 24.474C24.1658 24.2875 23.9287 24.2084 23.6445 24.237C22.5824 23.9251 21.7131 23.3325 21.0371 22.4592C21.2004 21.8568 21.5165 21.3433 21.9853 20.9185C22.465 20.9309 22.9391 20.8915 23.4075 20.8C23.4075 20.6814 23.4075 20.5629 23.4075 20.4444C24.0124 20.6088 24.605 20.8064 25.1853 21.037C25.2014 22.0608 25.7149 22.515 26.726 22.4C27.6139 21.9076 27.7719 21.2558 27.2001 20.4444C27.2246 20.1195 27.3431 19.843 27.5556 19.6148C27.498 19.8882 27.498 20.1449 27.5556 20.3851C28.3783 20.8356 29.2079 21.2505 30.0445 21.6296C30.1876 21.1016 30.3653 20.5881 30.5778 20.0889C30.6722 19.2103 30.6525 18.3412 30.5186 17.4814Z" fill="#CFE4EB"/>
<path fill-rule="evenodd" clip-rule="evenodd" d="M1.95622 20.5625C2.02939 20.5757 2.08865 20.6151 2.134 20.681C2.59743 22.3435 2.77521 24.0422 2.66733 25.7773C1.68296 25.827 1.44593 26.301 1.95622 27.1995C2.49303 27.3765 2.65105 27.732 2.4303 28.2662C2.08408 28.1587 1.72852 28.1192 1.36363 28.1477C1.20086 28.1663 1.04283 28.1465 0.889554 28.0884C0.554281 27.9277 0.238232 27.7499 -0.0585938 27.5551C-0.0585938 27.1205 -0.0585938 26.686 -0.0585938 26.2514C0.0592053 25.6306 0.177724 24.9984 0.296962 24.3551C0.555199 23.6594 0.792237 22.9483 1.00807 22.2218C1.20443 21.591 1.52048 21.0379 1.95622 20.5625Z" fill="#A28AD3"/>
<path fill-rule="evenodd" clip-rule="evenodd" d="M21.512 20.3262C21.6467 20.4789 21.8047 20.5975 21.9861 20.6817C21.9861 20.7608 21.9861 20.8397 21.9861 20.9188C21.5173 21.3435 21.2012 21.8571 21.0379 22.4595C20.8127 22.2084 20.6153 21.9317 20.4453 21.6299C20.5846 21.6558 20.7031 21.6164 20.8009 21.5114C21.094 21.1417 21.331 20.7467 21.512 20.3262Z" fill="#9BA0A1"/>
<path fill-rule="evenodd" clip-rule="evenodd" d="M23.4066 20.4443C23.4066 20.5629 23.4066 20.6814 23.4066 20.7999C22.9382 20.8914 22.4641 20.9309 21.9844 20.9184C21.9844 20.8394 21.9844 20.7604 21.9844 20.6814C22.5057 20.8778 22.9798 20.7988 23.4066 20.4443Z" fill="#A1D6D2"/>
<path fill-rule="evenodd" clip-rule="evenodd" d="M8.11798 22.3412C8.276 22.5783 8.43403 22.8153 8.59205 23.0523C8.71551 23.2053 8.85378 23.2053 9.00687 23.0523C9.03176 23.237 9.09102 23.395 9.18465 23.5264C10.1408 24.2216 11.2074 24.4192 12.3846 24.119C12.412 24.5083 12.2539 24.8046 11.9106 25.0079C10.1623 25.1117 8.75988 24.4599 7.70317 23.0523C7.45763 22.6456 7.37863 22.2111 7.46613 21.7486C7.58599 21.6494 7.72425 21.61 7.88094 21.6301C7.82802 21.9276 7.90704 22.1646 8.11798 22.3412Z" fill="#7350BC"/>
<path fill-rule="evenodd" clip-rule="evenodd" d="M9.06667 22.3404C9.08153 22.7087 8.92351 22.9457 8.59259 23.0515C8.43457 22.8144 8.27654 22.5774 8.11852 22.3404C8.11385 22.212 8.07433 22.0935 8 21.9848C8.34703 21.8682 8.70259 21.8287 9.06667 21.8663C9.06667 22.0243 9.06667 22.1824 9.06667 22.3404Z" fill="#EFECF6"/>
<path fill-rule="evenodd" clip-rule="evenodd" d="M19.4968 21.748C20.5775 23.6568 22.1973 24.842 24.3561 25.3036C24.3561 25.7777 24.3561 26.2518 24.3561 26.7258C19.9172 27.0718 15.4926 27.1508 11.082 26.9629C12.3857 26.9629 13.6894 26.9629 14.9931 26.9629C14.9931 25.9752 14.9931 24.9875 14.9931 23.9999C15.2853 23.8855 15.5816 23.767 15.882 23.6443C15.994 23.6923 16.0731 23.7714 16.1191 23.8814C16.1896 23.4568 16.3477 23.4173 16.5931 23.7629C16.6504 23.6505 16.6701 23.532 16.6524 23.4073C16.8612 23.3904 17.0588 23.4299 17.245 23.5258C17.3534 23.2319 17.5312 23.1528 17.7783 23.2888C17.8364 23.1355 17.8562 22.9774 17.8376 22.8147C18.0693 22.7793 18.2274 22.6608 18.3117 22.4592C18.675 22.1759 19.0702 21.9389 19.4968 21.748Z" fill="#9275CD"/>
<path opacity="0.024" fill-rule="evenodd" clip-rule="evenodd" d="M31.4666 22.1035C31.487 22.2211 31.4474 22.3 31.3481 22.3406C31.1991 22.2075 31.2386 22.1285 31.4666 22.1035Z" fill="#524381"/>
<path fill-rule="evenodd" clip-rule="evenodd" d="M9.18439 23.5261C9.09076 23.3946 9.0315 23.2367 9.00661 23.052C8.85352 23.205 8.71526 23.205 8.5918 23.052C8.92271 22.9463 9.08073 22.7092 9.06587 22.3409C9.28129 22.1539 9.39981 22.2131 9.42143 22.5187C9.32952 22.8531 9.25051 23.189 9.18439 23.5261Z" fill="#8465C5"/>
<path fill-rule="evenodd" clip-rule="evenodd" d="M18.3115 22.459C18.2272 22.6606 18.0691 22.7791 17.8374 22.8145C17.5609 22.8936 17.2843 22.9725 17.0078 23.0516C17.3992 22.7881 17.8336 22.5905 18.3115 22.459Z" fill="#ACA1DA"/>
<path opacity="0.732" fill-rule="evenodd" clip-rule="evenodd" d="M31.2293 22.578C31.4611 22.7692 31.6982 22.9668 31.9404 23.1705C31.9404 24.7113 31.9404 26.252 31.9404 27.7928C31.7949 27.8883 31.6764 28.0068 31.5849 28.1483C31.4668 28.1381 31.3681 28.1777 31.2886 28.2668C31.1677 27.979 31.0295 27.7023 30.8738 27.4372C30.9923 27.4372 31.1108 27.4372 31.2293 27.4372C31.2697 27.0798 31.4079 26.7638 31.6441 26.4891C31.7232 25.8174 31.7232 25.1459 31.6441 24.4742C31.5334 24.3133 31.4346 24.1552 31.3478 24.0002C31.1108 23.6446 30.8738 23.2891 30.6367 22.9335C30.7435 22.6696 30.941 22.551 31.2293 22.578Z" fill="#6F4BBA"/>
<path fill-rule="evenodd" clip-rule="evenodd" d="M11.6748 22.459C13.3703 23.3139 15.1481 23.5114 17.0081 23.0516C17.2846 22.9725 17.5612 22.8936 17.8377 22.8145C17.8564 22.9773 17.8366 23.1354 17.7785 23.2886C17.5314 23.1527 17.3536 23.2317 17.2452 23.5257C17.059 23.4298 16.8614 23.3902 16.6526 23.4071C16.6702 23.5318 16.6505 23.6503 16.5933 23.7627C16.3478 23.4171 16.1897 23.4567 16.1192 23.8812C16.0732 23.7712 15.9942 23.6922 15.8822 23.6442C15.5817 23.7668 15.2854 23.8854 14.9933 23.9997C14.9933 24.9873 14.9933 25.9751 14.9933 26.9627C13.6896 26.9627 12.3859 26.9627 11.0822 26.9627C9.95449 27.0014 8.84832 26.962 7.76367 26.8442C10.0945 26.8442 12.4254 26.8442 14.7563 26.8442C14.7563 25.896 14.7563 24.9479 14.7563 23.9997C13.9072 23.8653 13.0776 23.6481 12.2674 23.3479C12.0179 22.9448 11.8203 22.9646 11.6748 23.4071C11.6029 23.3924 11.5634 23.353 11.5563 23.2886C11.671 23.0389 11.7105 22.7623 11.6748 22.459Z" fill="#987ECF"/>
<path fill-rule="evenodd" clip-rule="evenodd" d="M1.00799 22.2227C0.79215 22.9492 0.555113 23.6603 0.296875 24.356C0.371346 23.5795 0.608383 22.8683 1.00799 22.2227Z" fill="#8B6DC7"/>
<path fill-rule="evenodd" clip-rule="evenodd" d="M30.6372 22.9336C30.8742 23.2891 31.1112 23.6447 31.3483 24.0003C31.3678 24.3973 31.348 24.7923 31.289 25.1854C31.0498 25.4047 30.8326 25.6417 30.6372 25.8966C30.5562 25.8535 30.4772 25.8141 30.4001 25.778C30.2241 25.2701 29.9278 24.8356 29.5112 24.4743C29.302 24.6085 29.0848 24.727 28.8594 24.8299C28.8594 24.7904 28.8594 24.7508 28.8594 24.7114C28.8745 24.5229 28.9536 24.3649 29.0964 24.2373C29.647 23.8445 30.1606 23.4099 30.6372 22.9336Z" fill="#9E87CE"/>
<path fill-rule="evenodd" clip-rule="evenodd" d="M1.36328 28.1484C1.72818 28.1199 2.08373 28.1594 2.42995 28.2669C2.6507 27.7327 2.49268 27.3772 1.95587 27.2002C1.44558 26.3017 1.68262 25.8277 2.66698 25.778C2.77486 24.0429 2.59708 22.3442 2.13365 20.6817C2.08831 20.6158 2.02905 20.5764 1.95587 20.5632C2.25492 19.947 2.68949 19.4335 3.25958 19.0225C3.57368 21.6636 3.86997 24.3105 4.14847 26.9632C4.44751 27.2936 4.82282 27.4516 5.27439 27.4373C5.27439 27.7928 5.27439 28.1484 5.27439 28.5039C4.32543 28.5236 3.37728 28.5039 2.42995 28.4447C2.0533 28.3665 1.69774 28.2677 1.36328 28.1484Z" fill="#9275CD"/>
<path fill-rule="evenodd" clip-rule="evenodd" d="M23.6445 24.2371C23.9287 24.2086 24.1658 24.2876 24.3556 24.4742C24.0714 24.5027 23.8344 24.4237 23.6445 24.2371Z" fill="#7F8B97"/>
<path fill-rule="evenodd" clip-rule="evenodd" d="M27.4371 24.2373C27.2074 24.4344 26.9307 24.5133 26.6074 24.4743C26.8462 24.3055 27.1227 24.2266 27.4371 24.2373Z" fill="#6A7581"/>
<path fill-rule="evenodd" clip-rule="evenodd" d="M28.8584 24.7107C28.8584 24.7502 28.8584 24.7898 28.8584 24.8292C28.4708 25.1257 28.135 25.4812 27.851 25.8959C27.7633 26.0439 27.7831 26.1625 27.9103 26.2515C27.964 26.365 28.0429 26.4638 28.1473 26.5478C27.9135 26.6064 27.6765 26.6262 27.4362 26.607C27.3207 26.3028 27.2416 25.9868 27.1992 25.6589C27.1654 25.447 27.2049 25.2494 27.3177 25.0663C27.8101 24.7686 28.3238 24.65 28.8584 24.7107Z" fill="#2F333F"/>
<path fill-rule="evenodd" clip-rule="evenodd" d="M31.348 24C31.4348 24.155 31.5336 24.3131 31.6443 24.4741C31.7234 25.1457 31.7234 25.8172 31.6443 26.4889C31.4081 26.7636 31.2699 27.0796 31.2295 27.437C31.111 27.437 30.9925 27.437 30.8739 27.437C30.811 27.1948 30.6727 26.9972 30.4591 26.8444C30.4001 26.491 30.3803 26.1355 30.3999 25.7778C30.4769 25.8138 30.556 25.8533 30.6369 25.8963C30.8323 25.6415 31.0496 25.4044 31.2888 25.1852C31.3478 24.7921 31.3676 24.397 31.348 24Z" fill="#9173CB"/>
<path fill-rule="evenodd" clip-rule="evenodd" d="M7.52539 24.8301C7.81085 25.0514 8.08739 25.3082 8.35502 25.6004C8.77933 25.8675 9.2139 26.0848 9.65872 26.2523C8.41583 26.5911 7.70472 26.1171 7.52539 24.8301Z" fill="#7553BD"/>
<path fill-rule="evenodd" clip-rule="evenodd" d="M8.5918 24.9482C9.41562 25.3401 10.2848 25.5573 11.1992 25.6001C10.4443 25.8436 9.69373 25.8042 8.94735 25.4816C8.75284 25.3478 8.63432 25.17 8.5918 24.9482Z" fill="#9579CE"/>
<path fill-rule="evenodd" clip-rule="evenodd" d="M27.1991 25.6596C27.2415 25.9876 27.3206 26.3035 27.4362 26.6078C27.4362 26.6472 27.4362 26.6868 27.4362 26.7263C27.1493 26.7016 26.8728 26.7412 26.6065 26.8448C26.485 27.4494 26.643 27.9827 27.0806 28.4448C27.391 28.6458 27.7071 28.6656 28.0287 28.5041C28.0355 28.6355 28.075 28.754 28.1473 28.8596C26.0846 28.5745 25.0179 27.3893 24.9473 25.3041C25.6101 25.3405 26.262 25.3009 26.9028 25.1855C27.0135 25.3465 27.1124 25.5046 27.1991 25.6596Z" fill="#9074CA"/>
<path fill-rule="evenodd" clip-rule="evenodd" d="M27.9116 26.252C28.3842 26.3109 28.7794 26.5281 29.0968 26.9038C29.2091 26.961 29.3276 26.9807 29.4523 26.9631C29.5011 27.2562 29.3826 27.4141 29.0968 27.4371C29.1328 27.3601 29.1723 27.281 29.2153 27.2001C29.0291 26.9731 28.792 26.8546 28.5042 26.8445C28.5404 27.1865 28.501 27.5026 28.3856 27.7927C28.3856 27.4371 28.3856 27.0816 28.3856 26.726C28.0696 26.726 27.7536 26.726 27.4375 26.726C27.4375 26.6866 27.4375 26.647 27.4375 26.6075C27.6777 26.6267 27.9148 26.6069 28.1486 26.5482C28.0442 26.4643 27.9653 26.3655 27.9116 26.252Z" fill="#533A8E"/>
<path fill-rule="evenodd" clip-rule="evenodd" d="M27.4376 26.7258C27.7537 26.7258 28.0697 26.7258 28.3857 26.7258C28.3857 27.0814 28.3857 27.437 28.3857 27.7925C28.3067 27.9505 28.2278 28.1086 28.1487 28.2666C28.0494 28.3071 28.0098 28.3861 28.0302 28.5036C27.7085 28.6652 27.3924 28.6454 27.082 28.4444C26.6445 27.9823 26.4865 27.4489 26.608 26.8444C26.8743 26.7408 27.1508 26.7012 27.4376 26.7258Z" fill="#6241AC"/>
<path fill-rule="evenodd" clip-rule="evenodd" d="M22.3407 28.504C21.0355 28.5042 19.7317 28.5436 18.4296 28.6226C18.3581 29.2293 18.4372 29.7823 18.6666 30.2818C18.4954 30.4671 18.2979 30.6251 18.074 30.7559C17.442 30.7559 16.8098 30.7559 16.1777 30.7559C16.1777 29.7287 16.1777 28.7016 16.1777 27.6744C18.0744 27.6546 19.9707 27.6744 21.8666 27.7337C22.0706 27.9641 22.2286 28.2208 22.3407 28.504Z" fill="#7C5BC2"/>
<path fill-rule="evenodd" clip-rule="evenodd" d="M29.0966 27.4373C28.7841 27.6722 28.6261 27.9882 28.6225 28.3855C28.449 28.2782 28.2909 28.2782 28.1484 28.3855C28.1484 28.346 28.1484 28.3064 28.1484 28.2669C28.2275 28.109 28.3064 27.9509 28.3855 27.7929C28.5008 27.5027 28.5403 27.1867 28.504 26.8447C28.7919 26.8548 29.0289 26.9733 29.2151 27.2003C29.1721 27.2812 29.1326 27.3603 29.0966 27.4373Z" fill="#34324C"/>
<path opacity="0.921" fill-rule="evenodd" clip-rule="evenodd" d="M30.4007 25.7773C30.3811 26.135 30.4009 26.4906 30.4599 26.844C30.6735 26.9968 30.8118 27.1943 30.8747 27.4366C31.0305 27.7017 31.1687 27.9783 31.2895 28.2662C31.3691 28.1771 31.4678 28.1375 31.5858 28.1477C31.4124 28.522 31.2743 28.917 31.171 29.3329C31.0915 29.422 30.9928 29.4616 30.8747 29.4514C30.7433 29.4447 30.6248 29.4052 30.5192 29.3329C30.2804 29.1641 30.0039 29.0852 29.6895 29.0959C29.2693 28.9514 28.9137 28.7143 28.6229 28.3847C28.6264 27.9875 28.7844 27.6715 29.0969 27.4366C29.3828 27.4136 29.5013 27.2556 29.4525 26.9625C29.3278 26.9802 29.2093 26.9605 29.0969 26.9033C28.7796 26.5276 28.3844 26.3103 27.9118 26.2514C27.7846 26.1624 27.7648 26.0439 27.8525 25.8959C28.1365 25.4812 28.4722 25.1256 28.8599 24.8292C29.0853 24.7263 29.3026 24.6078 29.5118 24.4736C29.9284 24.8349 30.2247 25.2694 30.4007 25.7773Z" fill="#6140A9"/>
<path fill-rule="evenodd" clip-rule="evenodd" d="M7.40752 28.5039C8.71272 28.504 10.0164 28.5435 11.3186 28.6224C11.3383 29.2163 11.3185 29.8089 11.2594 30.4002C11.214 30.3343 11.1548 30.2948 11.0816 30.2817C10.8852 30.1543 10.6679 30.0752 10.4297 30.0446C10.0335 30.1935 9.65815 30.3911 9.30382 30.6372C8.96475 30.3433 8.56969 30.2248 8.11863 30.2817C7.00368 30.0201 6.76664 29.4275 7.40752 28.5039Z" fill="#9275CC"/>
<path fill-rule="evenodd" clip-rule="evenodd" d="M22.3409 28.5039C22.5677 28.8181 22.6664 29.1737 22.6372 29.5706C22.3756 29.9337 22.0397 30.1708 21.6297 30.2817C21.19 30.2191 20.8147 30.3376 20.5038 30.6372C20.1137 30.3929 19.6988 30.1953 19.2594 30.0446C19.046 30.0923 18.8485 30.1713 18.6668 30.2817C18.4373 29.7821 18.3583 29.2291 18.4297 28.6224C19.7319 28.5435 21.0356 28.504 22.3409 28.5039Z" fill="#9275CC"/>
<path opacity="0.999" fill-rule="evenodd" clip-rule="evenodd" d="M28.6225 28.3851C28.9134 28.7147 29.2689 28.9518 29.6892 29.0962C29.9189 29.2933 30.1955 29.3723 30.5188 29.3333C30.6244 29.4056 30.7429 29.445 30.8744 29.4518C30.8744 29.5703 30.8744 29.6888 30.8744 29.8074C30.7164 29.8074 30.6373 29.8864 30.6373 30.0444C30.5374 30.2427 30.3794 30.381 30.1633 30.4592C29.6977 30.6162 29.2236 30.6557 28.741 30.5777C28.543 30.3593 28.4245 30.1026 28.3855 29.8074C28.4054 29.3146 28.3265 28.8405 28.1484 28.3851C28.2909 28.2779 28.449 28.2779 28.6225 28.3851Z" fill="#2E323E"/>
<path opacity="0.822" fill-rule="evenodd" clip-rule="evenodd" d="M3.734 29.3329C3.26653 30.1014 2.59492 30.615 1.71918 30.8737C1.36299 30.5759 1.06669 30.2204 0.830295 29.807C0.557528 29.969 0.261232 30.0481 -0.0585938 30.044C-0.0585938 29.7675 -0.0585938 29.4909 -0.0585938 29.2144C0.159896 29.0036 0.238908 28.727 0.178443 28.3848C0.519834 28.5201 0.875389 28.6386 1.24511 28.7403C1.40313 29.1749 1.56116 29.6094 1.71918 30.044C1.82891 29.7425 1.94743 29.4462 2.07474 29.1551C2.58832 29.0761 3.1019 29.0761 3.61548 29.1551C3.68138 29.2005 3.72088 29.2598 3.734 29.3329Z" fill="#603FA9"/>
<path fill-rule="evenodd" clip-rule="evenodd" d="M28.1491 28.2666C28.1491 28.3061 28.1491 28.3457 28.1491 28.3851C28.3271 28.8405 28.4061 29.3145 28.3861 29.8073C28.3071 29.8073 28.2676 29.7679 28.2676 29.6888C28.2738 29.404 28.2343 29.1275 28.1491 28.8592C28.0768 28.7536 28.0373 28.6351 28.0306 28.5036C28.0102 28.3861 28.0498 28.3071 28.1491 28.2666Z" fill="#604B94"/>
<path fill-rule="evenodd" clip-rule="evenodd" d="M11.5564 30.6369C11.3246 30.6015 11.1666 30.483 11.0823 30.2814C11.1555 30.2945 11.2147 30.334 11.2601 30.3999C11.3192 29.8086 11.339 29.216 11.3193 28.6221C10.0171 28.5432 8.7134 28.5037 7.4082 28.5036C7.57383 27.9039 7.96889 27.6274 8.59339 27.674C10.2509 27.7792 11.9101 27.8188 13.5712 27.7925C13.5712 28.7406 13.5712 29.6888 13.5712 30.6369C12.8995 30.6369 12.228 30.6369 11.5564 30.6369Z" fill="#7B5BC1"/>
<path opacity="0.792" fill-rule="evenodd" clip-rule="evenodd" d="M6.1039 29.2146C6.18408 30.4999 5.6705 30.8357 4.56316 30.222C4.33038 30.05 4.17236 29.8328 4.08909 29.5701C4.06894 29.4135 4.10845 29.2751 4.20761 29.1553C4.52121 29.0964 4.83726 29.0766 5.15575 29.0961C5.14191 29.3312 5.22093 29.5287 5.39279 29.6887C5.47632 29.4312 5.59484 29.1942 5.74835 28.9775C5.83904 29.1093 5.95756 29.1884 6.1039 29.2146Z" fill="#6140AA"/>
<path opacity="0.949" fill-rule="evenodd" clip-rule="evenodd" d="M29.6895 29.0967C30.0038 29.086 30.2803 29.1649 30.5191 29.3337C30.1958 29.3727 29.9191 29.2938 29.6895 29.0967Z" fill="#433667"/>
<path opacity="0.01" fill-rule="evenodd" clip-rule="evenodd" d="M30.8738 29.8076C30.8738 29.9656 30.7947 30.0447 30.6367 30.0447C30.6367 29.8867 30.7158 29.8076 30.8738 29.8076Z" fill="#6549A9"/>
<path opacity="0.622" fill-rule="evenodd" clip-rule="evenodd" d="M11.0813 30.282C11.1656 30.4836 11.3236 30.6021 11.5553 30.6375C11.753 30.8721 11.832 31.1486 11.7924 31.4671C10.2121 31.4671 8.63186 31.4671 7.05162 31.4671C7.01988 31.2776 7.05938 31.1196 7.17014 30.9931C7.48385 30.7567 7.79989 30.5197 8.11829 30.282C8.56935 30.2251 8.9644 30.3436 9.30347 30.6375C9.65781 30.3914 10.0331 30.1938 10.4294 30.0449C10.6675 30.0755 10.8848 30.1546 11.0813 30.282Z" fill="#6140AB"/>
<path opacity="0.608" fill-rule="evenodd" clip-rule="evenodd" d="M21.6306 30.282C21.8501 30.4026 22.0477 30.5606 22.2232 30.756C22.3319 30.6817 22.4504 30.6421 22.5787 30.6375C22.5787 30.914 22.5787 31.1906 22.5787 31.4671C21.038 31.4671 19.4973 31.4671 17.9565 31.4671C17.9358 31.2158 17.9754 30.9787 18.075 30.756C18.2989 30.6252 18.4964 30.4672 18.6676 30.282C18.8493 30.1716 19.0469 30.0926 19.2602 30.0449C19.6997 30.1956 20.1145 30.3931 20.5047 30.6375C20.8155 30.3379 21.1909 30.2194 21.6306 30.282Z" fill="#6141AA"/>
</g>
<defs>
<clipPath id="clip0_77_2234">
<rect width="32" height="32" fill="white"/>
</clipPath>
</defs>
</svg>
