<svg width="32" height="32" viewBox="0 0 32 32" fill="none" xmlns="http://www.w3.org/2000/svg">
<g clip-path="url(#clip0_77_2452)">
<path d="M32 0H0V32H32V0Z" fill="#FF7A27"/>
<path d="M26.7624 26.8067V16.8515C26.7624 14.7702 25.9027 13.7295 24.1835 13.7294C22.4643 13.7292 21.6043 14.7699 21.6034 16.8515V26.8067H16.5356V16.8515C16.5356 14.7702 15.691 13.7295 14.0018 13.7294C12.2821 13.7294 11.4225 14.7701 11.4232 16.8515V26.8067H6.35547V16.264C6.35547 14.0918 7.10962 12.4479 8.61793 11.3324C9.94548 10.3366 11.7404 9.83841 14.0026 9.83789C16.2958 9.83789 17.985 10.4262 19.0703 11.603C20.0052 10.4262 21.7097 9.83789 24.184 9.83789C26.4465 9.83789 28.2411 10.336 29.5682 11.3324C31.0762 12.4469 31.8304 14.0908 31.8306 16.264V26.8067H26.7624Z" fill="white"/>
<path d="M16.1985 9.07196L21.2328 5.39653L21.1681 5.17188C12.0868 6.2826 7.95427 7.07176 0.130859 11.6066L0.203219 11.813L0.825455 11.8187C0.767725 12.4457 0.668721 13.9932 0.796198 16.3204C-0.0721121 18.8329 0.773994 20.5397 1.56838 22.3955C1.69377 20.4624 1.6807 18.3488 1.08772 16.2447C0.964427 13.9336 1.0663 12.413 1.12195 11.8216L6.30856 11.8712C6.30856 11.8712 6.27434 13.4386 6.46216 14.9122C11.0971 16.5406 15.7578 14.9064 18.2306 10.8919C17.5457 10.1221 16.1985 9.07196 16.1985 9.07196Z" fill="#333333"/>
</g>
<defs>
<clipPath id="clip0_77_2452">
<rect width="32" height="32" fill="white"/>
</clipPath>
</defs>
</svg>
