<svg width="32" height="32" viewBox="0 0 32 32" fill="none" xmlns="http://www.w3.org/2000/svg">
<g clip-path="url(#clip0_77_2548)">
<rect width="32" height="32" fill="#0080CC"/>
<path d="M3.61333 32L5.30182 25.94C2.04606 23.216 0 19.2693 0 14.8773C0 6.66667 7.16364 0 16 0C24.8364 0 32 6.66667 32 14.8773C32 18.9707 30.4703 21.288 27.5939 23.9787L29.3333 29.7547L25.5067 27.1693C23.0158 28.6573 19.1794 29.7547 16 29.7547C13.5138 29.7663 11.0515 29.222 8.76242 28.1547L3.61333 32ZM1.29091 14.856C1.29091 15.0587 1.29091 15.256 1.30545 15.46C1.30325 15.5345 1.30772 15.6091 1.31879 15.6827C1.32291 15.8045 1.33262 15.926 1.34788 16.0467C1.35758 16.1667 1.36364 16.2293 1.37333 16.332C1.39273 16.4987 1.41576 16.664 1.44121 16.828C1.59515 13.48 3.5297 10.5867 5.81818 8.43867C9.37212 5.09067 15.8327 1.96 20.0412 5.86667C20.5923 6.38935 21.0861 6.9809 21.5127 7.62933C23.3037 8.28946 24.9803 9.27807 26.4715 10.5533C27.8909 11.772 29.4921 14.2867 30.2024 16.228V14.856C30.2024 7.41333 23.7309 1.37867 15.7467 1.37867C7.76242 1.37867 1.29091 7.41333 1.29091 14.856ZM19.4727 24.616C17.04 25.6493 13.1079 26.952 10.4933 26.7587L9.40242 27.332C10.0836 27.588 11.3261 27.8653 12.0339 28.0227C12.2606 28.0747 13.2 28.2347 13.4194 28.268L14.1297 28.34L15.0303 28.4C15.297 28.4 15.5406 28.4187 15.8 28.4187C15.9737 28.4187 16.2634 28.4133 16.6691 28.4027C16.7903 28.4027 17.0145 28.3907 17.3479 28.3667C17.4909 28.3533 17.7709 28.32 18.1903 28.2653L18.8667 28.1547C18.9964 28.132 19.2691 28.0733 19.6848 27.9813L20.6545 27.7147C20.7685 27.6782 21.2024 27.5258 21.9564 27.2573C22.3503 27.0987 24.2873 26.2813 24.4085 26.2147L22.3794 24.6147C21.5309 24.6787 20.3261 24.6493 19.4776 24.616H19.4727ZM28.943 18.0307C29.0061 15.0973 26.8752 12.8013 24.8291 11.336C24.6752 11.2253 24.5152 11.1147 24.3515 11.0067C23.843 10.6669 23.3169 10.3601 22.7758 10.088C25.1467 14.256 25.3745 20.9867 21.2533 23.444C21.1042 23.532 20.9491 23.6187 20.7952 23.7H21.4679C21.6824 23.7 21.9079 23.688 22.1115 23.6733C22.9952 23.6187 23.3333 23.9627 24.0812 24.5347L24.4158 24.7893L24.4933 24.74L24.4182 24.792L27.1345 26.8773L25.9224 23.6347L25.8655 23.6853L25.9224 23.6333L25.7939 23.2907C25.8037 23.28 25.8166 23.2734 25.8303 23.272C27.3188 22.1533 28.9055 20.1613 28.9479 18.0307H28.943ZM18.2739 5.81867C14.92 3.776 10.8679 5.952 8.1503 8.25333C5.53818 10.46 2.69576 13.8013 3.1103 17.6067C3.42182 20.4333 4.97212 23.056 7.12849 24.776H7.11273C7.14182 24.7933 7.16 24.8067 7.15758 24.8173L5.65576 29.2L9.33333 26.1467C10.303 25.3387 10.7879 25.32 11.9697 25.3467C16.9927 25.504 22.7042 23.2547 22.8352 17.1187C22.9224 13.2613 21.7127 7.912 18.2739 5.81867Z" fill="white"/>
<path fill-rule="evenodd" clip-rule="evenodd" d="M9.81836 8.36599C9.81836 8.36599 12.9953 4.82332 17.0559 6.66599C21.4317 8.64332 21.8184 15.7327 21.8184 15.7327C17.1153 4.17665 9.81836 8.36599 9.81836 8.36599Z" fill="white"/>
</g>
<defs>
<clipPath id="clip0_77_2548">
<rect width="32" height="32" fill="white"/>
</clipPath>
</defs>
</svg>
