<svg width="32" height="32" viewBox="0 0 32 32" fill="none" xmlns="http://www.w3.org/2000/svg">
<path fill-rule="evenodd" clip-rule="evenodd" d="M21.7101 16.5334C21.7101 16.2398 21.4728 16.0016 21.1794 16H11.6293C11.3347 16 11.0957 16.2389 11.0957 16.5334C11.0957 16.5478 11.0965 16.5621 11.0975 16.5762C11.3851 19.2501 13.6506 21.3344 16.403 21.3344C19.1547 21.3344 21.4199 19.251 21.7081 16.5779C21.7094 16.5633 21.7101 16.5485 21.7101 16.5334Z" fill="#3DD172"/>
<path fill-rule="evenodd" clip-rule="evenodd" d="M16.4025 21.3344C19.1542 21.3344 21.4193 19.251 21.7076 16.5779C21.7089 16.5633 21.7096 16.5485 21.7096 16.5334C21.7096 16.2398 21.4723 16.0016 21.1789 16H16.4023L16.4025 21.3344Z" fill="#3DD172"/>
<mask id="mask0_77_2646" style="mask-type:luminance" maskUnits="userSpaceOnUse" x="0" y="0" width="32" height="32">
<path d="M0 0H32V32H0V0Z" fill="white"/>
</mask>
<g mask="url(#mask0_77_2646)">
<path fill-rule="evenodd" clip-rule="evenodd" d="M26.6569 10.1107C26.3664 4.48058 21.7056 0 15.9986 0C10.291 0 5.62971 4.48175 5.34027 10.1128C5.33984 10.1203 5.33984 10.1278 5.33984 10.1354C5.33984 10.4299 5.5787 10.6688 5.87337 10.6688C5.8739 10.6688 5.87433 10.6688 5.87475 10.6688H10.16C10.4333 10.6651 10.6569 10.4561 10.6836 10.189C10.9264 7.46891 13.2133 5.3344 15.9986 5.3344C18.7835 5.3344 21.0701 7.46827 21.3134 10.1876C21.3397 10.4577 21.5675 10.6688 21.8446 10.6688H26.1238C26.4186 10.6688 26.6574 10.4299 26.6574 10.1354C26.6574 10.1271 26.6572 10.1189 26.6569 10.1107Z" fill="#3DD172"/>
</g>
<mask id="mask1_77_2646" style="mask-type:luminance" maskUnits="userSpaceOnUse" x="0" y="0" width="32" height="32">
<path d="M0 0H32V32H0V0Z" fill="white"/>
</mask>
<g mask="url(#mask1_77_2646)">
<path fill-rule="evenodd" clip-rule="evenodd" d="M31.4742 16.0039H27.1903C26.9076 16.0057 26.677 16.2272 26.661 16.5062C26.3986 22.1625 21.7258 26.6727 15.9999 26.6727C10.2763 26.6727 5.60504 22.1658 5.3394 16.5125C5.32659 16.2322 5.09713 16.0083 4.81463 16.0039H0.530215C0.237039 16.0058 0 16.2438 0 16.5373C0 16.5394 0 16.5413 0 16.5433C0.284745 25.1277 7.33923 32.0071 15.9999 32.0071C24.6603 32.0071 31.7144 25.1285 32 16.5448C32 16.5423 32 16.5398 32 16.5373C32 16.2453 31.7653 16.0082 31.4742 16.0039Z" fill="#3DD172"/>
</g>
<mask id="mask2_77_2646" style="mask-type:luminance" maskUnits="userSpaceOnUse" x="0" y="0" width="27" height="32">
<path d="M0 0H26.6588V32H0V0Z" fill="white"/>
</mask>
<g mask="url(#mask2_77_2646)">
<path fill-rule="evenodd" clip-rule="evenodd" d="M16 5.3344C18.7849 5.3344 21.0715 7.46827 21.3149 10.1876C21.3411 10.4577 21.569 10.6688 21.846 10.6688H26.1252C26.42 10.6688 26.6588 10.4299 26.6588 10.1354C26.6588 10.1271 26.6586 10.1189 26.6583 10.1107C26.3678 4.48058 21.7071 0 16 0V5.3344Z" fill="#3DD172"/>
</g>
</svg>
