<svg width="32" height="32" viewBox="0 0 33 33" fill="none" xmlns="http://www.w3.org/2000/svg">
    <path d="M26.1098 4.75244H6.27979V27.6936H26.1098V4.75244Z" fill="white" />
    <path
        d="M9.64528 24.6139C9.63513 24.2614 9.72912 23.9138 9.91522 23.6157C10.1013 23.3175 10.3711 23.0824 10.6899 22.9403C11.0088 22.7982 11.3623 22.7557 11.7052 22.8181C12.0481 22.8806 12.3648 23.0451 12.6148 23.2908C12.8647 23.5365 13.0366 23.8521 13.1084 24.1972C13.1802 24.5423 13.1486 24.9012 13.0177 25.2281C12.8869 25.5549 12.6626 25.8348 12.3737 26.0319C12.0848 26.229 11.7444 26.3344 11.396 26.3345C10.9395 26.3377 10.5001 26.159 10.1726 25.8371C9.84507 25.5152 9.65568 25.0759 9.64528 24.6139ZM9.64528 20.7598V11.635C9.64528 11.1787 9.82436 10.741 10.1431 10.4184C10.4619 10.0957 10.8942 9.91441 11.345 9.91441C11.5974 9.90555 11.8486 9.95224 12.0814 10.0513C12.3142 10.1503 12.5231 10.2993 12.6934 10.4879L19.1637 16.9573V12.1053C19.3265 11.8216 19.5662 11.5909 19.8543 11.4405C20.1424 11.2901 20.467 11.2263 20.7897 11.2565H21.0107C21.3335 11.2263 21.6581 11.2901 21.9462 11.4405C22.2343 11.5909 22.4739 11.8216 22.6368 12.1053V21.1269C22.6368 21.3553 22.5919 21.5814 22.5047 21.792C22.4175 22.0027 22.2898 22.1936 22.129 22.3538C21.9681 22.5139 21.7774 22.6401 21.5679 22.7248C21.3584 22.8096 21.1343 22.8513 20.9087 22.8475C20.6629 22.8513 20.419 22.8021 20.1934 22.7032C19.9677 22.6044 19.7654 22.458 19.5999 22.2739L13.0787 15.7873V20.7598C12.9202 21.0466 12.6825 21.2803 12.3946 21.4321C12.1067 21.5839 11.7813 21.6473 11.4583 21.6144H11.2487C10.9253 21.644 10.6003 21.5793 10.3122 21.4279C10.024 21.2764 9.78472 21.0446 9.62262 20.7598M19.0957 8.14221C19.0912 7.79076 19.19 7.44589 19.3797 7.15145C19.5693 6.85702 19.8411 6.6263 20.1606 6.48864C20.4801 6.35098 20.8328 6.3126 21.1738 6.37837C21.5149 6.44414 21.829 6.61109 22.0761 6.858C22.3232 7.1049 22.4922 7.42062 22.5616 7.765C22.631 8.10939 22.5977 8.46689 22.4659 8.79206C22.3341 9.11722 22.1097 9.39537 21.8214 9.59113C21.533 9.7869 21.1936 9.89144 20.8464 9.89147C20.6178 9.89374 20.391 9.85021 20.179 9.76339C19.9671 9.67657 19.7742 9.54817 19.6115 9.38559C19.4488 9.223 19.3194 9.02944 19.2309 8.81605C19.1424 8.60266 19.0964 8.37365 19.0957 8.14221ZM26.1835 31.6569C27.4959 31.4686 28.7131 30.8559 29.6535 29.9102C30.5939 28.9645 31.2071 27.7364 31.4016 26.4091C31.8758 23.0851 32.1125 19.7308 32.1098 16.3723C32.1108 12.9928 31.8722 9.61751 31.396 6.27251C31.1875 4.96829 30.5744 3.76508 29.6455 2.83708C28.7165 1.90908 27.5199 1.30445 26.2288 1.11075C19.4996 0.143421 12.6691 0.143421 5.9399 1.11075C4.67157 1.3134 3.49777 1.91299 2.58324 2.82538C1.66871 3.73776 1.05938 4.91713 0.840757 6.19795C-0.122242 12.8624 -0.133691 19.6324 0.806762 26.3001V26.455C1.007 27.7692 1.61785 28.9839 2.54977 29.9211C3.48169 30.8582 4.68567 31.4686 5.98523 31.6626C9.33337 32.1447 12.711 32.3862 16.0929 32.3853C19.4632 32.3852 22.8293 32.1456 26.1665 31.6683"
        fill="url(#paint0_linear_990_515)" />
    <defs>
        <linearGradient id="paint0_linear_990_515" x1="6.85775" y1="32.6376" x2="25.7547"
            y2="0.301058" gradientUnits="userSpaceOnUse">
            <stop stop-color="#E08031" />
            <stop offset="0.57" stop-color="#E70D1B" />
            <stop offset="1" stop-color="#D41B64" />
        </linearGradient>
    </defs>
</svg>