<svg width="32" height="32" viewBox="0 0 33 33" fill="none" xmlns="http://www.w3.org/2000/svg">
    <path fill-rule="evenodd" clip-rule="evenodd"
        d="M3.67902 0.876331C12.4247 0.86367 21.1703 0.876331 29.916 0.91424C31.4636 1.27392 32.4368 2.22165 32.8354 3.75742C32.886 12.4259 32.886 21.0945 32.8354 29.763C32.5377 31.4255 31.5646 32.449 29.916 32.8337C21.1956 32.8842 12.4752 32.8842 3.75485 32.8337C2.25093 32.4419 1.30307 31.4942 0.911255 29.9905C0.860677 21.2461 0.860677 12.5017 0.911255 3.75742C1.31088 2.28397 2.23349 1.32358 3.67902 0.876331Z"
        fill="#3457A6" />
    <path fill-rule="evenodd" clip-rule="evenodd"
        d="M3.90649 2.01329C12.551 2.00063 21.1956 2.01329 29.8401 2.0512C30.7853 2.33916 31.4046 2.95837 31.6979 3.90875C31.7485 12.5268 31.7485 21.1447 31.6979 29.7627C31.4238 30.8203 30.7539 31.4648 29.6885 31.6961C21.1956 31.7466 12.7027 31.7466 4.20981 31.6961C3.07738 31.5149 2.357 30.8704 2.04868 29.7627C1.9981 21.1447 1.9981 12.5268 2.04868 3.90875C2.35533 2.95784 2.97455 2.32597 3.90649 2.01329Z"
        fill="#7849AB" />
    <path fill-rule="evenodd" clip-rule="evenodd"
        d="M4.05818 3.07531C12.5511 3.06264 21.0439 3.07531 29.5368 3.11321C30.0751 3.27236 30.4416 3.61354 30.6363 4.13676C30.6869 12.6536 30.6869 21.1706 30.6363 29.6875C30.4396 30.2127 30.0732 30.5539 29.5368 30.711C21.0692 30.7616 12.6016 30.7616 4.13401 30.711C3.59767 30.5539 3.23119 30.2127 3.03449 29.6875C2.98391 21.1706 2.98391 12.6536 3.03449 4.13676C3.23824 3.6425 3.57947 3.28866 4.05818 3.07531Z"
        fill="#FEFEFE" />
    <path fill-rule="evenodd" clip-rule="evenodd"
        d="M9.36622 8.07899C9.29046 10.9724 9.26521 13.8788 9.29039 16.7981C9.18946 13.8789 9.18946 10.9473 9.29039 8.00317C9.33642 8.01258 9.36167 8.03782 9.36622 8.07899Z"
        fill="#BEC9E2" />
    <path fill-rule="evenodd" clip-rule="evenodd"
        d="M9.36623 8.07886C13.4204 11.8093 17.4141 15.4739 21.3473 19.0725C21.3518 19.1136 21.3771 19.1389 21.4231 19.1483C21.4988 18.3918 21.5241 17.6336 21.4989 16.8738C21.4006 14.7085 21.4006 12.5098 21.4989 10.2776C22.4502 9.56231 23.3854 8.82938 24.3046 8.07886C24.2487 13.9281 24.2487 19.7914 24.3046 25.6687C20.3063 22.0749 16.2873 18.5114 12.2477 14.9783C12.2198 15.6041 12.144 16.2233 12.0203 16.8358C12.1709 19.0302 12.2215 21.2415 12.1719 23.4699C11.2383 24.2384 10.2904 24.9966 9.32832 25.7445C9.29131 22.7393 9.27872 19.757 9.2904 16.7979C9.26523 13.8786 9.29048 10.9723 9.36623 8.07886Z"
        fill="#3658A6" />
    <path fill-rule="evenodd" clip-rule="evenodd"
        d="M12.2478 14.9785C12.2729 17.822 12.2476 20.6525 12.1719 23.4701C12.2215 21.2417 12.1709 19.0304 12.0203 16.8361C12.144 16.2235 12.2198 15.6043 12.2478 14.9785Z"
        fill="#6F88BF" />
    <path fill-rule="evenodd" clip-rule="evenodd"
        d="M21.4989 16.8743C21.5241 17.6341 21.4988 18.3923 21.4231 19.1488C21.3771 19.1394 21.3518 19.1142 21.3473 19.073C21.3978 18.3401 21.4483 17.6072 21.4989 16.8743Z"
        fill="#93A5CF" />
    <path fill-rule="evenodd" clip-rule="evenodd"
        d="M24.3046 8.07899C24.3092 8.03782 24.3344 8.01258 24.3805 8.00317C24.4816 13.917 24.4816 19.8308 24.3805 25.7446C24.3344 25.7352 24.3092 25.71 24.3046 25.6688C24.2488 19.7915 24.2488 13.9283 24.3046 8.07899Z"
        fill="#9BADD3" />
    <path fill-rule="evenodd" clip-rule="evenodd"
        d="M16.6459 16.6465C16.7702 16.7087 16.8966 16.7718 17.025 16.836C16.9522 16.9436 16.8891 17.0573 16.8354 17.1772C16.8102 17.1266 16.7849 17.0761 16.7596 17.0256C16.5238 17.1145 16.5111 17.0766 16.7217 16.9118C16.6711 16.8866 16.6206 16.8613 16.57 16.836C16.6271 16.7852 16.6524 16.722 16.6459 16.6465Z"
        fill="#8496C8" />
</svg>