<svg width="32" height="32" viewBox="0 0 32 32" fill="none" xmlns="http://www.w3.org/2000/svg">
<path opacity="0.996" fill-rule="evenodd" clip-rule="evenodd" d="M18.2177 4.50994C18.3252 4.54759 18.4408 4.56044 18.5647 4.54849C18.6852 4.58625 18.8137 4.5991 18.9502 4.58704C19.0446 4.62456 19.1474 4.63741 19.2587 4.6256C19.4425 4.67915 19.6353 4.70486 19.837 4.70271C19.905 4.73977 19.9821 4.75262 20.0683 4.74126C20.1364 4.77831 20.2135 4.79119 20.2996 4.77982C20.4449 4.82974 20.5991 4.85542 20.7623 4.85692C20.817 4.89359 20.8812 4.90643 20.9551 4.89548C21.0098 4.93214 21.074 4.94498 21.1478 4.93403C21.6989 5.08011 22.2258 5.22149 22.7286 5.35813C22.7697 5.39414 22.8211 5.40702 22.8828 5.39668C22.9101 5.43154 22.9487 5.44438 22.9984 5.43524C23.1143 5.50375 23.2428 5.5423 23.384 5.5509C23.4113 5.58575 23.4499 5.59859 23.4996 5.58945C23.527 5.62431 23.5655 5.63715 23.6153 5.62801C23.6426 5.66286 23.6812 5.6757 23.731 5.66656C23.7583 5.70142 23.7969 5.71425 23.8466 5.70512C23.8598 5.73743 23.8855 5.7503 23.9237 5.74367C24.4151 5.92071 24.8649 6.11348 25.2731 6.32198C25.2863 6.35429 25.312 6.36717 25.3502 6.36054C25.3634 6.39285 25.3891 6.40572 25.4273 6.39909C25.4405 6.4314 25.4662 6.44428 25.5045 6.43765C25.5176 6.46996 25.5433 6.48283 25.5816 6.4762C25.5948 6.50851 25.6204 6.52139 25.6587 6.51476C25.6719 6.54706 25.6975 6.55994 25.7358 6.55331C26.2163 6.80904 26.6661 7.07892 27.0852 7.36295C27.1351 7.40104 27.1865 7.43959 27.2394 7.47861C27.2893 7.5167 27.3407 7.55526 27.3936 7.59427C27.4068 7.62658 27.4325 7.63946 27.4707 7.63283C27.6396 7.80177 27.8194 7.95599 28.0105 8.09548C28.1509 8.2229 28.2922 8.3514 28.4346 8.48102C28.6659 8.73806 28.9101 8.98223 29.1671 9.21355C29.1895 9.30026 29.2409 9.36449 29.3213 9.40632C29.4491 9.59686 29.5905 9.77679 29.7454 9.94608C29.7426 10.005 29.7683 10.0435 29.8225 10.0617C29.8317 10.1352 29.8703 10.1866 29.9382 10.216C29.9316 10.2542 29.9444 10.2799 29.9767 10.2931C29.9739 10.3519 29.9996 10.3905 30.0539 10.4087C30.2823 10.816 30.5136 11.2401 30.7478 11.681C30.7387 11.7308 30.7515 11.7693 30.7864 11.7967C30.7798 11.8349 30.7926 11.8606 30.8249 11.8738C30.8183 11.912 30.8312 11.9377 30.8635 11.9509C30.8544 12.0007 30.8672 12.0392 30.902 12.0666C30.8954 12.1048 30.9083 12.1305 30.9406 12.1437C30.9699 12.3088 31.0214 12.4631 31.0948 12.6063C31.0857 12.6561 31.0985 12.6947 31.1334 12.722C31.3304 13.2919 31.4846 13.8702 31.596 14.4569C31.5847 14.5431 31.5975 14.6202 31.6346 14.6882C31.6439 14.8885 31.6695 15.0813 31.7117 15.2666C31.6996 15.4031 31.7125 15.5316 31.7502 15.6521C31.7379 15.8652 31.7507 16.0708 31.7888 16.269C31.7888 16.7316 31.7888 17.1943 31.7888 17.6569C31.7507 17.8551 31.7379 18.0607 31.7502 18.2738C31.7126 18.3812 31.6997 18.4969 31.7117 18.6208C31.6668 18.8187 31.6411 19.0243 31.6346 19.2376C31.5975 19.3057 31.5847 19.3828 31.596 19.469C31.5332 19.6653 31.4947 19.8709 31.4804 20.0858C31.3831 20.4616 31.2674 20.8343 31.1334 21.2039C31.0599 21.3472 31.0085 21.5014 30.9792 21.6666C30.9468 21.6797 30.934 21.7054 30.9406 21.7437C30.9057 21.771 30.8929 21.8096 30.902 21.8593C30.8697 21.8725 30.8569 21.8982 30.8635 21.9364C30.8286 21.9638 30.8158 22.0023 30.8249 22.0521C30.7926 22.0653 30.7798 22.091 30.7864 22.1292C30.7541 22.1424 30.7412 22.1681 30.7478 22.2063C30.4832 22.6536 30.2518 23.0906 30.0539 23.5172C30.0281 23.5172 30.0153 23.53 30.0153 23.5557C29.983 23.5689 29.9701 23.5946 29.9767 23.6328C29.951 23.6328 29.9382 23.6457 29.9382 23.6714C29.9059 23.6846 29.893 23.7102 29.8996 23.7485C29.8739 23.7485 29.8611 23.7613 29.8611 23.787C29.8288 23.8002 29.8159 23.8259 29.8225 23.8642C29.7968 23.8642 29.784 23.877 29.784 23.9027C29.7517 23.9159 29.7388 23.9416 29.7454 23.9798C29.5904 24.1504 29.4491 24.3304 29.3213 24.5196C29.2956 24.5196 29.2828 24.5324 29.2828 24.5581C29.2571 24.5581 29.2442 24.571 29.2442 24.5967C29.2185 24.5967 29.2057 24.6095 29.2057 24.6352C29.1799 24.6352 29.1671 24.6481 29.1671 24.6738C29.1414 24.6738 29.1286 24.6866 29.1286 24.7123C29.0962 24.7255 29.0834 24.7512 29.09 24.7895C29.0643 24.7895 29.0514 24.8023 29.0514 24.828C29.0257 24.828 29.0129 24.8408 29.0129 24.8666C28.9872 24.8666 28.9743 24.8794 28.9743 24.9051C28.7816 25.0722 28.6016 25.2521 28.4346 25.4449C28.4089 25.4449 28.396 25.4577 28.396 25.4834C28.3703 25.4834 28.3575 25.4963 28.3575 25.522C28.3318 25.522 28.3189 25.5348 28.3189 25.5605C28.2932 25.5605 28.2804 25.5734 28.2804 25.5991C28.2546 25.5991 28.2418 25.6119 28.2418 25.6376C28.2161 25.6376 28.2033 25.6505 28.2033 25.6762C28.1775 25.6762 28.1647 25.689 28.1647 25.7148C28.1265 25.7081 28.1008 25.721 28.0876 25.7533C28.0619 25.7533 28.049 25.7661 28.049 25.7919C27.858 25.9314 27.6781 26.0856 27.5093 26.2545C27.471 26.2479 27.4454 26.2608 27.4322 26.2931C27.4065 26.2931 27.3936 26.3059 27.3936 26.3316C27.3679 26.3316 27.3551 26.3445 27.3551 26.3702C27.3168 26.3635 27.2911 26.3764 27.278 26.4087C27.2522 26.4087 27.2394 26.4216 27.2394 26.4473C27.2137 26.4473 27.2008 26.4601 27.2008 26.4858C27.1626 26.4792 27.1369 26.4921 27.1237 26.5244C27.098 26.5244 27.0852 26.5372 27.0852 26.5629C27.0469 26.5563 27.0213 26.5692 27.0081 26.6015C26.8834 26.6615 26.7742 26.7386 26.6804 26.8328C26.6203 26.8003 26.5817 26.8259 26.5647 26.9099C26.5519 26.8971 26.539 26.8842 26.5261 26.8714C26.4837 26.9272 26.4387 26.9786 26.3912 27.0256C26.353 27.019 26.3273 27.0318 26.3141 27.0642C26.2759 27.0575 26.2502 27.0704 26.237 27.1027C26.2113 27.1027 26.1984 27.1155 26.1984 27.1413C26.1602 27.1346 26.1345 27.1475 26.1213 27.1798C25.9698 27.2042 25.8412 27.2685 25.7358 27.3726C25.6975 27.366 25.6719 27.3788 25.6587 27.4111C25.6204 27.4045 25.5948 27.4174 25.5816 27.4497C25.5433 27.4431 25.5176 27.4559 25.5045 27.4883C25.4662 27.4816 25.4405 27.4945 25.4273 27.5268C25.3891 27.5202 25.3634 27.5331 25.3502 27.5654C25.2636 27.6022 25.1737 27.6279 25.0804 27.6425C25.1726 27.4452 25.2754 27.2525 25.3888 27.0642C25.5252 26.8364 25.6666 26.6115 25.8129 26.3895C25.7692 26.3503 25.782 26.3246 25.8514 26.3123C25.8386 26.2995 25.8257 26.2866 25.8129 26.2738C25.9616 26.0726 26.0644 25.8477 26.1213 25.5991C26.1536 25.5859 26.1665 25.5602 26.1599 25.522C26.1947 25.4947 26.2076 25.4561 26.1984 25.4063C26.2333 25.379 26.2461 25.3404 26.237 25.2907C26.2693 25.2775 26.2822 25.2518 26.2755 25.2136C26.3104 25.1862 26.3232 25.1477 26.3141 25.0979C26.3887 24.9284 26.4401 24.7485 26.4683 24.5581C26.5032 24.5308 26.516 24.4922 26.5069 24.4425C26.7076 23.8856 26.8361 23.2944 26.8924 22.669C26.9496 22.4076 26.9753 22.1377 26.9695 21.8593C26.9952 21.4933 27.0081 21.1206 27.0081 20.7413C27.0161 20.2194 26.9904 19.7053 26.931 19.1991C26.9329 18.972 26.9072 18.7536 26.8539 18.5437C26.836 18.2096 26.7718 17.9012 26.6611 17.6184C26.6652 17.5821 26.6781 17.5499 26.6996 17.522C26.6605 17.502 26.6348 17.4698 26.6225 17.4256C26.5753 17.1973 26.511 16.9788 26.4298 16.7702C26.4389 16.7204 26.4261 16.6818 26.3912 16.6545C26.4003 16.6047 26.3875 16.5662 26.3527 16.5389C26.3618 16.4891 26.3489 16.4505 26.3141 16.4232C26.3232 16.3734 26.3104 16.3349 26.2755 16.3075C26.2682 16.1782 26.2297 16.0625 26.1599 15.9605C26.1665 15.9223 26.1536 15.8966 26.1213 15.8834C26.1305 15.8337 26.1176 15.7951 26.0828 15.7678C26.0894 15.7295 26.0765 15.7038 26.0442 15.6907C26.0508 15.6524 26.038 15.6267 26.0057 15.6136C26.0148 15.5638 26.002 15.5252 25.9671 15.4979C25.8611 15.273 25.7455 15.0546 25.6201 14.8425C25.6268 14.8042 25.6139 14.7785 25.5816 14.7654C25.5649 14.7187 25.5392 14.6802 25.5045 14.6497C25.5111 14.6114 25.4982 14.5858 25.4659 14.5726C25.4176 14.4141 25.3405 14.2728 25.2346 14.1485C25.2179 14.1018 25.1922 14.0633 25.1575 14.0328C25.1408 13.9862 25.1151 13.9476 25.0804 13.9172C24.9224 13.6891 24.7425 13.4578 24.5406 13.2232C24.5016 13.1703 24.463 13.1189 24.4249 13.069C24.2078 12.7876 23.9637 12.5306 23.6924 12.2979C23.6742 12.2437 23.6356 12.218 23.5767 12.2208C23.3037 11.9347 23.0081 11.6777 22.69 11.4497C22.6768 11.4174 22.6511 11.4045 22.6129 11.4111C22.5835 11.3432 22.5321 11.3047 22.4587 11.2955C22.4404 11.2413 22.4019 11.2156 22.343 11.2184C22.1865 11.1016 22.0194 10.9987 21.8418 10.9099C21.7485 10.8466 21.665 10.7694 21.5912 10.6786C21.552 10.7223 21.5263 10.7095 21.5141 10.6401C21.5013 10.6529 21.4884 10.6658 21.4755 10.6786C21.3693 10.555 21.2343 10.4779 21.0707 10.4473C21.0575 10.415 21.0319 10.4021 20.9936 10.4087C20.9804 10.3764 20.9548 10.3635 20.9165 10.3702C20.9033 10.3379 20.8776 10.325 20.8394 10.3316C20.8262 10.2993 20.8005 10.2864 20.7623 10.2931C20.7491 10.2608 20.7234 10.2479 20.6852 10.2545C20.672 10.2222 20.6463 10.2093 20.6081 10.216C20.4001 10.0991 20.1817 9.99628 19.9527 9.90753C19.926 9.88729 19.9067 9.86157 19.8948 9.83042C19.8556 9.87414 19.8299 9.8613 19.8177 9.79186C19.7639 9.84256 19.7254 9.82969 19.702 9.75331C19.6892 9.76615 19.6763 9.77903 19.6635 9.79186C19.5201 9.69147 19.3594 9.6272 19.1816 9.59909C19.1684 9.56679 19.1427 9.55391 19.1045 9.56054C19.0771 9.52569 19.0386 9.51285 18.9888 9.52199C18.9615 9.48713 18.9229 9.47429 18.8731 9.48343C18.8458 9.44858 18.8072 9.43574 18.7575 9.44488C18.6399 9.38315 18.5113 9.3446 18.3719 9.32921C18.3446 9.29436 18.306 9.28152 18.2563 9.29066C18.2289 9.25581 18.1904 9.24297 18.1406 9.25211C18.0994 9.2161 18.048 9.20322 17.9864 9.21355C17.7262 9.11944 17.4563 9.04233 17.1767 8.98223C17.1325 8.96997 17.1004 8.94429 17.0804 8.90512C17.0143 8.96006 16.9629 8.94722 16.9261 8.86656C16.8982 8.88811 16.8661 8.90095 16.8298 8.90512C16.6224 8.81475 16.4039 8.76331 16.1743 8.7509C15.9657 8.68397 15.7472 8.64542 15.5189 8.63524C15.4509 8.59819 15.3738 8.58531 15.2876 8.59668C15.1172 8.53993 14.9373 8.51425 14.7478 8.51958C14.6534 8.48206 14.5506 8.46922 14.4394 8.48102C14.2168 8.42527 13.9855 8.39959 13.7454 8.40391C13.445 8.34913 13.1366 8.32345 12.8201 8.3268C12.2494 8.2655 11.6711 8.23983 11.0852 8.2497C10.5197 8.1983 9.95427 8.1983 9.38879 8.2497C9.02195 8.23709 8.66212 8.24993 8.30928 8.28825C8.08343 8.27584 7.86494 8.28867 7.65385 8.3268C7.35028 8.3253 7.05472 8.35102 6.76711 8.40391C6.63055 8.39185 6.50205 8.40472 6.38157 8.44247C6.25769 8.43051 6.14203 8.44335 6.03458 8.48102C5.93592 8.46938 5.84593 8.48225 5.7647 8.51958C5.66604 8.50793 5.57605 8.52081 5.49482 8.55813C5.30536 8.55281 5.12543 8.57849 4.95506 8.63524C4.88123 8.62429 4.817 8.63713 4.76229 8.67379C4.31861 8.70969 3.90091 8.79963 3.50928 8.94367C3.11984 9.02649 2.7407 9.12927 2.37193 9.25211C2.31028 9.24177 2.25889 9.25465 2.21771 9.29066C2.16794 9.28152 2.12938 9.29436 2.10205 9.32921C2.05227 9.32008 2.01372 9.33292 1.98638 9.36777C1.93661 9.35863 1.89806 9.37147 1.87072 9.40632C1.72953 9.41492 1.60102 9.45347 1.48518 9.52199C1.44695 9.51535 1.42125 9.52823 1.40807 9.56054C1.3583 9.5514 1.31974 9.56424 1.29241 9.59909C1.24264 9.58996 1.20408 9.60279 1.17675 9.63765C0.911601 9.73874 0.654575 9.8544 0.405662 9.98464C0.367431 9.978 0.341727 9.99088 0.328553 10.0232C0.289999 10.0232 0.251445 10.0232 0.212891 10.0232C0.212891 9.99747 0.212891 9.9718 0.212891 9.94608C0.245207 9.9329 0.258061 9.90722 0.251445 9.86897C1.21317 8.65031 2.35693 7.63506 3.68277 6.82319C3.75733 6.79967 3.8216 6.76112 3.87554 6.70753C3.91379 6.71416 3.93946 6.70128 3.95265 6.66897C4.11192 6.59896 4.26613 6.52185 4.4153 6.43765C4.45355 6.44428 4.47922 6.4314 4.49241 6.39909C4.53065 6.40572 4.55633 6.39285 4.56952 6.36054C4.60776 6.36717 4.63344 6.35429 4.64663 6.32198C4.68487 6.32862 4.71055 6.31574 4.72373 6.28343C4.96493 6.16025 5.20913 6.04459 5.45626 5.93644C5.50604 5.94558 5.54459 5.93274 5.57193 5.89789C5.61017 5.90452 5.63585 5.89164 5.64904 5.85933C5.69881 5.86847 5.73736 5.85563 5.7647 5.82078C5.80294 5.82741 5.82862 5.81453 5.84181 5.78223C5.98299 5.77363 6.11149 5.73507 6.22735 5.66656C6.26559 5.67319 6.29127 5.66032 6.30446 5.62801C6.35423 5.63715 6.39278 5.62431 6.42012 5.58945C6.46989 5.59859 6.50845 5.58575 6.53578 5.5509C6.58556 5.56004 6.62411 5.5472 6.65144 5.51235C6.70122 5.52148 6.73977 5.50864 6.76711 5.47379C7.09312 5.41392 7.39516 5.32397 7.67313 5.20391C7.86806 5.16655 8.05443 5.11512 8.23217 5.0497C8.48516 5.01843 8.72932 4.96704 8.9647 4.89548C9.03853 4.90643 9.10276 4.89359 9.15747 4.85692C9.24364 4.8683 9.32075 4.85542 9.38879 4.81837C9.55199 4.81687 9.70621 4.79119 9.85145 4.74126C9.93761 4.75262 10.0147 4.73977 10.0828 4.70271C10.1814 4.71434 10.2714 4.70148 10.3526 4.66415C10.5667 4.66311 10.7723 4.63741 10.9695 4.58704C11.2341 4.58174 11.4912 4.55603 11.7406 4.50994C13.8996 4.35606 16.0587 4.35606 18.2177 4.50994Z" fill="#AB0021"/>
<path opacity="0.01" fill-rule="evenodd" clip-rule="evenodd" d="M11.74 4.50926C11.7143 4.45785 11.7143 4.45785 11.74 4.50926Z" fill="#FE0000"/>
<path opacity="0.01" fill-rule="evenodd" clip-rule="evenodd" d="M18.2168 4.4707C18.2682 4.49641 18.2682 4.49641 18.2168 4.4707Z" fill="#FE0000"/>
<path opacity="0.01" fill-rule="evenodd" clip-rule="evenodd" d="M18.5645 4.50977C18.6158 4.53547 18.6158 4.53547 18.5645 4.50977Z" fill="black"/>
<path opacity="0.01" fill-rule="evenodd" clip-rule="evenodd" d="M10.9685 4.58738C10.9428 4.53598 10.9428 4.53598 10.9685 4.58738Z" fill="#FE0000"/>
<path opacity="0.01" fill-rule="evenodd" clip-rule="evenodd" d="M18.9492 4.54883C19.0006 4.57453 19.0006 4.57453 18.9492 4.54883Z" fill="black"/>
<path opacity="0.01" fill-rule="evenodd" clip-rule="evenodd" d="M19.2578 4.58789C19.3092 4.61359 19.3092 4.61359 19.2578 4.58789Z" fill="#FE0000"/>
<path opacity="0.01" fill-rule="evenodd" clip-rule="evenodd" d="M10.3533 4.66355C10.3276 4.61215 10.3276 4.61215 10.3533 4.66355Z" fill="black"/>
<path opacity="0.01" fill-rule="evenodd" clip-rule="evenodd" d="M10.0818 4.70262C10.0561 4.65121 10.0561 4.65121 10.0818 4.70262Z" fill="#FE0000"/>
<path opacity="0.01" fill-rule="evenodd" clip-rule="evenodd" d="M19.8359 4.66406C19.8873 4.68977 19.8873 4.68977 19.8359 4.66406Z" fill="black"/>
<path opacity="0.01" fill-rule="evenodd" clip-rule="evenodd" d="M9.85132 4.74168C9.8256 4.69027 9.8256 4.69027 9.85132 4.74168Z" fill="#FE0000"/>
<path opacity="0.01" fill-rule="evenodd" clip-rule="evenodd" d="M20.0684 4.70312C20.1198 4.72883 20.1198 4.72883 20.0684 4.70312Z" fill="#FE0000"/>
<path opacity="0.01" fill-rule="evenodd" clip-rule="evenodd" d="M20.2988 4.74219C20.3502 4.7679 20.3502 4.7679 20.2988 4.74219Z" fill="#FE0000"/>
<path opacity="0.01" fill-rule="evenodd" clip-rule="evenodd" d="M9.38843 4.81784C9.36271 4.76645 9.36271 4.76645 9.38843 4.81784Z" fill="black"/>
<path opacity="0.01" fill-rule="evenodd" clip-rule="evenodd" d="M9.15796 4.8569C9.13224 4.80551 9.13224 4.80551 9.15796 4.8569Z" fill="#FE0000"/>
<path opacity="0.01" fill-rule="evenodd" clip-rule="evenodd" d="M20.7617 4.81836C20.8131 4.84408 20.8131 4.84408 20.7617 4.81836Z" fill="black"/>
<path opacity="0.01" fill-rule="evenodd" clip-rule="evenodd" d="M8.9646 4.89597C8.93888 4.84457 8.93888 4.84457 8.9646 4.89597Z" fill="#FE0000"/>
<path opacity="0.01" fill-rule="evenodd" clip-rule="evenodd" d="M20.9551 4.85742C21.0065 4.88314 21.0065 4.88314 20.9551 4.85742Z" fill="#FE0000"/>
<path opacity="0.01" fill-rule="evenodd" clip-rule="evenodd" d="M21.1484 4.89453C21.1998 4.92025 21.1998 4.92025 21.1484 4.89453Z" fill="#FE0000"/>
<path opacity="0.01" fill-rule="evenodd" clip-rule="evenodd" d="M8.23218 5.05026C8.20646 4.99887 8.20646 4.99887 8.23218 5.05026Z" fill="black"/>
<path opacity="0.01" fill-rule="evenodd" clip-rule="evenodd" d="M22.7285 5.32031C22.7799 5.34603 22.7799 5.34603 22.7285 5.32031Z" fill="black"/>
<path opacity="0.01" fill-rule="evenodd" clip-rule="evenodd" d="M22.8828 5.35742C22.9342 5.38314 22.9342 5.38314 22.8828 5.35742Z" fill="#FE0000"/>
<path opacity="0.01" fill-rule="evenodd" clip-rule="evenodd" d="M22.998 5.39648C23.0494 5.4222 23.0494 5.4222 22.998 5.39648Z" fill="#FE0000"/>
<path opacity="0.01" fill-rule="evenodd" clip-rule="evenodd" d="M6.76733 5.47409C6.74162 5.4227 6.74162 5.4227 6.76733 5.47409Z" fill="black"/>
<path opacity="0.01" fill-rule="evenodd" clip-rule="evenodd" d="M6.6521 5.51315C6.62638 5.46176 6.62638 5.46176 6.6521 5.51315Z" fill="#FE0000"/>
<path opacity="0.01" fill-rule="evenodd" clip-rule="evenodd" d="M6.53491 5.55026C6.5092 5.49887 6.5092 5.49887 6.53491 5.55026Z" fill="#FE0000"/>
<path opacity="0.01" fill-rule="evenodd" clip-rule="evenodd" d="M23.3828 5.51172C23.4342 5.53743 23.4342 5.53743 23.3828 5.51172Z" fill="black"/>
<path opacity="0.01" fill-rule="evenodd" clip-rule="evenodd" d="M6.41968 5.58933C6.39396 5.53793 6.39396 5.53793 6.41968 5.58933Z" fill="#FE0000"/>
<path opacity="0.01" fill-rule="evenodd" clip-rule="evenodd" d="M23.5 5.55078C23.5514 5.5765 23.5514 5.5765 23.5 5.55078Z" fill="#FE0000"/>
<path opacity="0.01" fill-rule="evenodd" clip-rule="evenodd" d="M6.30444 5.62839C6.27873 5.577 6.27873 5.577 6.30444 5.62839Z" fill="#FE0000"/>
<path opacity="0.01" fill-rule="evenodd" clip-rule="evenodd" d="M23.6152 5.58984C23.6666 5.61556 23.6666 5.61556 23.6152 5.58984Z" fill="#FE0000"/>
<path opacity="0.01" fill-rule="evenodd" clip-rule="evenodd" d="M6.22632 5.66745C6.2006 5.61606 6.2006 5.61606 6.22632 5.66745Z" fill="black"/>
<path opacity="0.01" fill-rule="evenodd" clip-rule="evenodd" d="M23.7305 5.62891C23.7819 5.65462 23.7819 5.65462 23.7305 5.62891Z" fill="#FE0000"/>
<path opacity="0.01" fill-rule="evenodd" clip-rule="evenodd" d="M23.8457 5.66602C23.8971 5.69173 23.8971 5.69173 23.8457 5.66602Z" fill="#FE0000"/>
<path opacity="0.01" fill-rule="evenodd" clip-rule="evenodd" d="M23.9238 5.70508C23.9752 5.73079 23.9752 5.73079 23.9238 5.70508Z" fill="#FE0000"/>
<path opacity="0.01" fill-rule="evenodd" clip-rule="evenodd" d="M5.84155 5.78269C5.81584 5.73129 5.81584 5.73129 5.84155 5.78269Z" fill="black"/>
<path opacity="0.01" fill-rule="evenodd" clip-rule="evenodd" d="M5.76538 5.82175C5.73966 5.77035 5.73966 5.77035 5.76538 5.82175Z" fill="black"/>
<path opacity="0.01" fill-rule="evenodd" clip-rule="evenodd" d="M5.64819 5.85886C5.62248 5.80746 5.62248 5.80746 5.64819 5.85886Z" fill="black"/>
<path opacity="0.01" fill-rule="evenodd" clip-rule="evenodd" d="M5.57202 5.89792C5.54631 5.84653 5.54631 5.84653 5.57202 5.89792Z" fill="black"/>
<path opacity="0.01" fill-rule="evenodd" clip-rule="evenodd" d="M5.45679 5.93698C5.43107 5.88559 5.43107 5.88559 5.45679 5.93698Z" fill="black"/>
<path opacity="0.01" fill-rule="evenodd" clip-rule="evenodd" d="M4.72436 6.28269C4.69865 6.23129 4.69865 6.23129 4.72436 6.28269Z" fill="black"/>
<path opacity="0.01" fill-rule="evenodd" clip-rule="evenodd" d="M4.64624 6.32175C4.62052 6.27035 4.62052 6.27035 4.64624 6.32175Z" fill="#FE0000"/>
<path opacity="0.01" fill-rule="evenodd" clip-rule="evenodd" d="M25.2734 6.2832C25.3248 6.30892 25.3248 6.30892 25.2734 6.2832Z" fill="black"/>
<path opacity="0.01" fill-rule="evenodd" clip-rule="evenodd" d="M4.57007 6.36081C4.54435 6.30942 4.54435 6.30942 4.57007 6.36081Z" fill="#FE0000"/>
<path opacity="0.01" fill-rule="evenodd" clip-rule="evenodd" d="M25.3496 6.32227C25.401 6.34798 25.401 6.34798 25.3496 6.32227Z" fill="#FE0000"/>
<path opacity="0.01" fill-rule="evenodd" clip-rule="evenodd" d="M4.49194 6.39987C4.46623 6.34848 4.46623 6.34848 4.49194 6.39987Z" fill="#FE0000"/>
<path opacity="0.01" fill-rule="evenodd" clip-rule="evenodd" d="M25.4277 6.36133C25.4791 6.38704 25.4791 6.38704 25.4277 6.36133Z" fill="#FE0000"/>
<path opacity="0.01" fill-rule="evenodd" clip-rule="evenodd" d="M4.41577 6.43698C4.39006 6.38559 4.39006 6.38559 4.41577 6.43698Z" fill="black"/>
<path opacity="0.01" fill-rule="evenodd" clip-rule="evenodd" d="M25.5039 6.39844C25.5553 6.42415 25.5553 6.42415 25.5039 6.39844Z" fill="#FE0000"/>
<path opacity="0.01" fill-rule="evenodd" clip-rule="evenodd" d="M25.582 6.4375C25.6334 6.46322 25.6334 6.46322 25.582 6.4375Z" fill="#FE0000"/>
<path opacity="0.01" fill-rule="evenodd" clip-rule="evenodd" d="M25.6582 6.47656C25.7096 6.50228 25.7096 6.50228 25.6582 6.47656Z" fill="#FE0000"/>
<path opacity="0.01" fill-rule="evenodd" clip-rule="evenodd" d="M25.7363 6.51562C25.7877 6.54134 25.7877 6.54134 25.7363 6.51562Z" fill="#FE0000"/>
<path opacity="0.01" fill-rule="evenodd" clip-rule="evenodd" d="M3.95288 6.6694C3.92716 6.61801 3.92716 6.61801 3.95288 6.6694Z" fill="#FE0000"/>
<path opacity="0.01" fill-rule="evenodd" clip-rule="evenodd" d="M3.87476 6.70847C3.84904 6.65707 3.84904 6.65707 3.87476 6.70847Z" fill="#FE0000"/>
<path opacity="0.01" fill-rule="evenodd" clip-rule="evenodd" d="M3.68335 6.8237C3.65763 6.77231 3.65763 6.77231 3.68335 6.8237Z" fill="black"/>
<path opacity="0.01" fill-rule="evenodd" clip-rule="evenodd" d="M27.084 7.32422C27.1354 7.34993 27.1354 7.34993 27.084 7.32422Z" fill="#FE0000"/>
<path opacity="0.01" fill-rule="evenodd" clip-rule="evenodd" d="M27.2383 7.43945C27.2897 7.46517 27.2897 7.46517 27.2383 7.43945Z" fill="#FE0000"/>
<path opacity="0.01" fill-rule="evenodd" clip-rule="evenodd" d="M27.3926 7.55664C27.444 7.58236 27.444 7.58236 27.3926 7.55664Z" fill="#FE0000"/>
<path opacity="0.01" fill-rule="evenodd" clip-rule="evenodd" d="M27.4707 7.59375C27.5221 7.61947 27.5221 7.61947 27.4707 7.59375Z" fill="black"/>
<path opacity="0.01" fill-rule="evenodd" clip-rule="evenodd" d="M28.0098 8.05664C28.0612 8.08236 28.0612 8.08236 28.0098 8.05664Z" fill="black"/>
<path opacity="0.01" fill-rule="evenodd" clip-rule="evenodd" d="M9.38867 8.25C9.44006 8.27572 9.44006 8.27572 9.38867 8.25Z" fill="black"/>
<path opacity="0.01" fill-rule="evenodd" clip-rule="evenodd" d="M11.0857 8.25C11.06 8.27572 11.06 8.27572 11.0857 8.25Z" fill="black"/>
<path opacity="0.01" fill-rule="evenodd" clip-rule="evenodd" d="M8.30859 8.28906C8.35999 8.31478 8.35999 8.31478 8.30859 8.28906Z" fill="black"/>
<path opacity="0.01" fill-rule="evenodd" clip-rule="evenodd" d="M7.6543 8.32617C7.70569 8.35189 7.70569 8.35189 7.6543 8.32617Z" fill="#FE0000"/>
<path opacity="0.01" fill-rule="evenodd" clip-rule="evenodd" d="M12.8201 8.32617C12.7944 8.35189 12.7944 8.35189 12.8201 8.32617Z" fill="#FE0000"/>
<path opacity="0.01" fill-rule="evenodd" clip-rule="evenodd" d="M6.76758 8.4043C6.81897 8.43001 6.81897 8.43001 6.76758 8.4043Z" fill="#FE0000"/>
<path opacity="0.01" fill-rule="evenodd" clip-rule="evenodd" d="M13.7458 8.4043C13.7201 8.43001 13.7201 8.43001 13.7458 8.4043Z" fill="#FE0000"/>
<path opacity="0.01" fill-rule="evenodd" clip-rule="evenodd" d="M6.38086 8.44336C6.43225 8.46908 6.43225 8.46908 6.38086 8.44336Z" fill="black"/>
<path opacity="0.01" fill-rule="evenodd" clip-rule="evenodd" d="M28.4336 8.44336C28.485 8.46908 28.485 8.46908 28.4336 8.44336Z" fill="black"/>
<path opacity="0.01" fill-rule="evenodd" clip-rule="evenodd" d="M6.03516 8.48047C6.08655 8.50618 6.08655 8.50618 6.03516 8.48047Z" fill="black"/>
<path opacity="0.01" fill-rule="evenodd" clip-rule="evenodd" d="M14.4392 8.48047C14.4135 8.50618 14.4135 8.50618 14.4392 8.48047Z" fill="#FE0000"/>
<path opacity="0.01" fill-rule="evenodd" clip-rule="evenodd" d="M5.76367 8.51953C5.81506 8.54525 5.81506 8.54525 5.76367 8.51953Z" fill="#FE0000"/>
<path opacity="0.01" fill-rule="evenodd" clip-rule="evenodd" d="M14.7478 8.51953C14.7221 8.54525 14.7221 8.54525 14.7478 8.51953Z" fill="#FE0000"/>
<path opacity="0.01" fill-rule="evenodd" clip-rule="evenodd" d="M5.49414 8.55859C5.54553 8.58431 5.54553 8.58431 5.49414 8.55859Z" fill="black"/>
<path opacity="0.01" fill-rule="evenodd" clip-rule="evenodd" d="M15.2869 8.59766C15.2611 8.62337 15.2611 8.62337 15.2869 8.59766Z" fill="#FE0000"/>
<path opacity="0.01" fill-rule="evenodd" clip-rule="evenodd" d="M4.95508 8.63477C5.00647 8.66048 5.00647 8.66048 4.95508 8.63477Z" fill="#FE0000"/>
<path opacity="0.01" fill-rule="evenodd" clip-rule="evenodd" d="M15.5193 8.63477C15.4936 8.66048 15.4936 8.66048 15.5193 8.63477Z" fill="#FE0000"/>
<path opacity="0.01" fill-rule="evenodd" clip-rule="evenodd" d="M4.76172 8.67383C4.81311 8.69954 4.81311 8.69954 4.76172 8.67383Z" fill="#FE0000"/>
<path opacity="0.01" fill-rule="evenodd" clip-rule="evenodd" d="M16.1736 8.75C16.1479 8.77572 16.1479 8.77572 16.1736 8.75Z" fill="black"/>
<path opacity="0.01" fill-rule="evenodd" clip-rule="evenodd" d="M29.166 9.17578C29.2174 9.2015 29.2174 9.2015 29.166 9.17578Z" fill="#FE0000"/>
<path opacity="0.01" fill-rule="evenodd" clip-rule="evenodd" d="M17.9861 9.21289C17.9604 9.23861 17.9604 9.23861 17.9861 9.21289Z" fill="#FE0000"/>
<path opacity="0.01" fill-rule="evenodd" clip-rule="evenodd" d="M2.37109 9.25195C2.42249 9.27767 2.42249 9.27767 2.37109 9.25195Z" fill="#FE0000"/>
<path opacity="0.01" fill-rule="evenodd" clip-rule="evenodd" d="M18.1404 9.25195C18.1147 9.27767 18.1147 9.27767 18.1404 9.25195Z" fill="#FE0000"/>
<path opacity="0.01" fill-rule="evenodd" clip-rule="evenodd" d="M2.2168 9.29102C2.26819 9.31673 2.26819 9.31673 2.2168 9.29102Z" fill="#FE0000"/>
<path opacity="0.01" fill-rule="evenodd" clip-rule="evenodd" d="M18.2556 9.29102C18.2299 9.31673 18.2299 9.31673 18.2556 9.29102Z" fill="#FE0000"/>
<path opacity="0.01" fill-rule="evenodd" clip-rule="evenodd" d="M2.10156 9.33008C2.15296 9.35579 2.15296 9.35579 2.10156 9.33008Z" fill="#FE0000"/>
<path opacity="0.01" fill-rule="evenodd" clip-rule="evenodd" d="M18.3708 9.33008C18.3451 9.35579 18.3451 9.35579 18.3708 9.33008Z" fill="black"/>
<path opacity="0.01" fill-rule="evenodd" clip-rule="evenodd" d="M1.98633 9.36719C2.03772 9.3929 2.03772 9.3929 1.98633 9.36719Z" fill="#FE0000"/>
<path opacity="0.01" fill-rule="evenodd" clip-rule="evenodd" d="M29.3203 9.36719C29.3717 9.3929 29.3717 9.3929 29.3203 9.36719Z" fill="black"/>
<path opacity="0.01" fill-rule="evenodd" clip-rule="evenodd" d="M1.87109 9.40625C1.92249 9.43197 1.92249 9.43197 1.87109 9.40625Z" fill="black"/>
<path opacity="0.01" fill-rule="evenodd" clip-rule="evenodd" d="M18.7576 9.44531C18.7319 9.47103 18.7319 9.47103 18.7576 9.44531Z" fill="black"/>
<path opacity="0.01" fill-rule="evenodd" clip-rule="evenodd" d="M18.8728 9.48438C18.8471 9.51009 18.8471 9.51009 18.8728 9.48438Z" fill="#FE0000"/>
<path opacity="0.01" fill-rule="evenodd" clip-rule="evenodd" d="M1.48438 9.52148C1.53578 9.5472 1.53578 9.5472 1.48438 9.52148Z" fill="#FE0000"/>
<path opacity="0.01" fill-rule="evenodd" clip-rule="evenodd" d="M18.988 9.52148C18.9623 9.5472 18.9623 9.5472 18.988 9.52148Z" fill="#FE0000"/>
<path opacity="0.01" fill-rule="evenodd" clip-rule="evenodd" d="M1.4082 9.56055C1.45961 9.58626 1.45961 9.58626 1.4082 9.56055Z" fill="#FE0000"/>
<path opacity="0.01" fill-rule="evenodd" clip-rule="evenodd" d="M19.1033 9.56055C19.0776 9.58626 19.0776 9.58626 19.1033 9.56055Z" fill="#FE0000"/>
<path opacity="0.01" fill-rule="evenodd" clip-rule="evenodd" d="M1.29297 9.59961C1.34437 9.62533 1.34437 9.62533 1.29297 9.59961Z" fill="#FE0000"/>
<path opacity="0.01" fill-rule="evenodd" clip-rule="evenodd" d="M19.1814 9.59961C19.1557 9.62533 19.1557 9.62533 19.1814 9.59961Z" fill="#FE0000"/>
<path opacity="0.01" fill-rule="evenodd" clip-rule="evenodd" d="M1.17578 9.63672C1.22719 9.66243 1.22719 9.66243 1.17578 9.63672Z" fill="black"/>
<path opacity="0.01" fill-rule="evenodd" clip-rule="evenodd" d="M0.2517 9.86862C0.225996 9.81723 0.225996 9.81723 0.2517 9.86862Z" fill="black"/>
<path opacity="0.01" fill-rule="evenodd" clip-rule="evenodd" d="M0.212637 9.94675C0.186933 9.89535 0.186933 9.89535 0.212637 9.94675Z" fill="#FE0000"/>
<path opacity="0.01" fill-rule="evenodd" clip-rule="evenodd" d="M0.40625 9.98438C0.457654 10.0101 0.457654 10.0101 0.40625 9.98438Z" fill="black"/>
<path opacity="0.01" fill-rule="evenodd" clip-rule="evenodd" d="M0.212637 10.0234C0.186933 10.0492 0.186933 10.0492 0.212637 10.0234Z" fill="black"/>
<path opacity="0.01" fill-rule="evenodd" clip-rule="evenodd" d="M0.328125 10.0234C0.379529 10.0492 0.379529 10.0492 0.328125 10.0234Z" fill="black"/>
<path opacity="0.01" fill-rule="evenodd" clip-rule="evenodd" d="M20.6072 10.2168C20.5815 10.2425 20.5815 10.2425 20.6072 10.2168Z" fill="#FE0000"/>
<path opacity="0.01" fill-rule="evenodd" clip-rule="evenodd" d="M20.6853 10.2539C20.6596 10.2796 20.6596 10.2796 20.6853 10.2539Z" fill="#FE0000"/>
<path opacity="0.01" fill-rule="evenodd" clip-rule="evenodd" d="M20.7615 10.293C20.7358 10.3187 20.7358 10.3187 20.7615 10.293Z" fill="#FE0000"/>
<path opacity="0.01" fill-rule="evenodd" clip-rule="evenodd" d="M20.8396 10.332C20.8139 10.3577 20.8139 10.3577 20.8396 10.332Z" fill="#FE0000"/>
<path opacity="0.01" fill-rule="evenodd" clip-rule="evenodd" d="M20.9158 10.3711C20.8901 10.3968 20.8901 10.3968 20.9158 10.3711Z" fill="#FE0000"/>
<path opacity="0.01" fill-rule="evenodd" clip-rule="evenodd" d="M20.9939 10.4082C20.9682 10.4339 20.9682 10.4339 20.9939 10.4082Z" fill="#FE0000"/>
<path opacity="0.01" fill-rule="evenodd" clip-rule="evenodd" d="M21.0701 10.4473C21.0444 10.473 21.0444 10.473 21.0701 10.4473Z" fill="black"/>
<path opacity="0.01" fill-rule="evenodd" clip-rule="evenodd" d="M21.8416 10.9102C21.8158 10.9359 21.8158 10.9359 21.8416 10.9102Z" fill="black"/>
<path opacity="0.01" fill-rule="evenodd" clip-rule="evenodd" d="M22.3435 11.2188C22.3178 11.2445 22.3178 11.2445 22.3435 11.2188Z" fill="black"/>
<path opacity="0.01" fill-rule="evenodd" clip-rule="evenodd" d="M22.4587 11.2949C22.433 11.3206 22.433 11.3206 22.4587 11.2949Z" fill="#FE0000"/>
<path opacity="0.01" fill-rule="evenodd" clip-rule="evenodd" d="M22.613 11.4121C22.5873 11.4378 22.5873 11.4378 22.613 11.4121Z" fill="#FE0000"/>
<path opacity="0.01" fill-rule="evenodd" clip-rule="evenodd" d="M22.6892 11.4492C22.6635 11.4749 22.6635 11.4749 22.6892 11.4492Z" fill="black"/>
<path opacity="0.01" fill-rule="evenodd" clip-rule="evenodd" d="M23.5759 12.2207C23.5502 12.2464 23.5502 12.2464 23.5759 12.2207Z" fill="#FE0000"/>
<path opacity="0.01" fill-rule="evenodd" clip-rule="evenodd" d="M23.6931 12.2988C23.6674 12.3245 23.6674 12.3245 23.6931 12.2988Z" fill="black"/>
<path opacity="0.01" fill-rule="evenodd" clip-rule="evenodd" d="M24.4255 13.0684C24.3998 13.0941 24.3998 13.0941 24.4255 13.0684Z" fill="#FE0000"/>
<path opacity="0.01" fill-rule="evenodd" clip-rule="evenodd" d="M24.5408 13.2227C24.5151 13.2484 24.5151 13.2484 24.5408 13.2227Z" fill="black"/>
<path opacity="0.01" fill-rule="evenodd" clip-rule="evenodd" d="M25.0798 13.918C25.0541 13.9437 25.0541 13.9437 25.0798 13.918Z" fill="#FE0000"/>
<path opacity="0.01" fill-rule="evenodd" clip-rule="evenodd" d="M25.158 14.0332C25.1322 14.0589 25.1322 14.0589 25.158 14.0332Z" fill="#FE0000"/>
<path opacity="0.01" fill-rule="evenodd" clip-rule="evenodd" d="M25.2341 14.1484C25.2084 14.1742 25.2084 14.1742 25.2341 14.1484Z" fill="black"/>
<path opacity="0.01" fill-rule="evenodd" clip-rule="evenodd" d="M25.4666 14.5723C25.4408 14.598 25.4408 14.598 25.4666 14.5723Z" fill="black"/>
<path opacity="0.01" fill-rule="evenodd" clip-rule="evenodd" d="M25.5037 14.6504C25.4779 14.6761 25.4779 14.6761 25.5037 14.6504Z" fill="black"/>
<path opacity="0.01" fill-rule="evenodd" clip-rule="evenodd" d="M25.5818 14.7656C25.5561 14.7913 25.5561 14.7913 25.5818 14.7656Z" fill="black"/>
<path opacity="0.01" fill-rule="evenodd" clip-rule="evenodd" d="M25.6208 14.8418C25.5951 14.8675 25.5951 14.8675 25.6208 14.8418Z" fill="black"/>
<path opacity="0.01" fill-rule="evenodd" clip-rule="evenodd" d="M7.57593 15.4214C7.55021 15.37 7.55021 15.37 7.57593 15.4214Z" fill="#FE0000"/>
<path opacity="0.01" fill-rule="evenodd" clip-rule="evenodd" d="M7.73047 15.3828C7.78186 15.4085 7.78186 15.4085 7.73047 15.3828Z" fill="#FE0000"/>
<path opacity="0.01" fill-rule="evenodd" clip-rule="evenodd" d="M7.34546 15.4585C7.31974 15.4071 7.31974 15.4071 7.34546 15.4585Z" fill="#FE0000"/>
<path opacity="0.996" fill-rule="evenodd" clip-rule="evenodd" d="M7.57645 15.4199C7.62784 15.4199 7.67928 15.4199 7.73067 15.4199C7.73067 15.5099 7.73067 15.5999 7.73067 15.6898C7.66798 15.9376 7.64226 16.1947 7.65356 16.4609C7.60217 16.795 7.60217 17.1291 7.65356 17.4633C7.6413 17.638 7.65414 17.8051 7.69211 17.9645C7.68074 18.0507 7.69362 18.1278 7.73067 18.1958C7.71929 18.282 7.73217 18.3591 7.76922 18.4272C7.78206 18.7213 7.85917 18.9783 8.00055 19.1982C7.99249 19.2208 7.97961 19.2401 7.96199 19.2561C8.06227 19.4629 8.17794 19.6621 8.30898 19.8537C8.30235 19.8919 8.31523 19.9176 8.34754 19.9308C8.34472 19.9896 8.37044 20.0282 8.42464 20.0464C8.42183 20.1053 8.44755 20.1439 8.50175 20.1621C8.49894 20.221 8.52465 20.2595 8.57886 20.2778C8.61048 20.341 8.64259 20.4053 8.67525 20.4705C8.85526 20.6185 9.02875 20.7727 9.19573 20.9332C9.25903 20.9834 9.3233 21.0348 9.3885 21.0874C9.41896 21.1221 9.45751 21.1478 9.50416 21.1645C9.70237 21.3235 9.92086 21.452 10.1596 21.55C10.1728 21.5824 10.1984 21.5952 10.2367 21.5886C10.2499 21.6209 10.2756 21.6338 10.3138 21.6272C10.327 21.6595 10.3527 21.6723 10.3909 21.6657C10.4041 21.698 10.4298 21.7109 10.468 21.7043C10.6067 21.7906 10.761 21.8421 10.9307 21.8585C10.958 21.8933 10.9966 21.9062 11.0463 21.897C11.0737 21.9319 11.1122 21.9447 11.162 21.9356C11.2032 21.9716 11.2546 21.9845 11.3162 21.9741C11.7832 22.1001 12.2523 22.2158 12.7234 22.3211C12.7709 22.2977 12.8223 22.2848 12.8777 22.2826C13.316 22.3706 13.7594 22.4156 14.2078 22.4175C15.3189 22.4629 16.4113 22.4051 17.4849 22.244C17.4621 22.3453 17.4492 22.4481 17.4463 22.5525C17.4115 22.5798 17.3986 22.6183 17.4078 22.6681C17.3718 22.7093 17.3589 22.7607 17.3692 22.8223C17.3344 22.8497 17.3215 22.8882 17.3307 22.938C17.2984 22.9512 17.2855 22.9769 17.2921 23.0151C17.2085 23.188 17.1313 23.3679 17.0608 23.5549C16.8681 23.803 16.6754 24.0729 16.4825 24.3645C16.4568 24.3645 16.4439 24.3773 16.4439 24.4031C16.4116 24.4162 16.3987 24.4419 16.4054 24.4802C16.3797 24.4802 16.3668 24.493 16.3668 24.5187C16.3411 24.5187 16.3283 24.5316 16.3283 24.5573C16.3025 24.5573 16.2897 24.5701 16.2897 24.5958C16.2515 24.5892 16.2258 24.6021 16.2126 24.6344C15.9586 24.8145 15.7272 24.9944 15.5186 25.1741C15.3231 25.2774 15.1304 25.3802 14.9403 25.4826C14.8905 25.4734 14.852 25.4863 14.8246 25.5211C14.7864 25.5145 14.7607 25.5274 14.7475 25.5597C14.7093 25.553 14.6836 25.5659 14.6704 25.5982C14.6207 25.5891 14.5821 25.6019 14.5548 25.6368C14.505 25.6277 14.4664 25.6405 14.4391 25.6753C14.3032 25.7027 14.1747 25.7413 14.0536 25.791C13.8918 25.8186 13.7376 25.87 13.5909 25.9452C13.5546 25.9411 13.5225 25.9282 13.4945 25.9067C13.3749 25.985 13.2399 26.03 13.0897 26.0416C12.6992 26.1041 12.3137 26.1619 11.9331 26.2151C11.7328 26.2027 11.54 26.2156 11.3548 26.2537C10.6094 26.2537 9.86399 26.2537 9.11862 26.2537C8.81736 26.2101 8.50892 26.1843 8.19332 26.1765C7.90979 26.124 7.62063 26.0726 7.32585 26.0223C7.27473 26.0125 7.23617 25.9868 7.21019 25.9452C7.18223 25.9668 7.15012 25.9796 7.1138 25.9838C6.89076 25.8958 6.65944 25.8316 6.41982 25.791C6.39249 25.7562 6.35394 25.7433 6.30416 25.7525C6.16093 25.679 6.00672 25.6276 5.84151 25.5982C5.81418 25.5634 5.77562 25.5505 5.72585 25.5597C5.71266 25.5274 5.68699 25.5145 5.64874 25.5211C5.63555 25.4888 5.60988 25.4759 5.57163 25.4826C5.55845 25.4503 5.53277 25.4374 5.49452 25.444C5.48134 25.4117 5.45566 25.3988 5.41742 25.4055C5.40423 25.3732 5.37855 25.3603 5.34031 25.3669C5.05948 25.2351 4.81531 25.0808 4.60778 24.9043C4.56595 24.8238 4.50171 24.7724 4.41501 24.75C4.27374 24.5767 4.11309 24.4224 3.93308 24.2874C3.89691 24.1811 3.83908 24.0912 3.75958 24.0175C3.72057 23.9646 3.68201 23.9132 3.64392 23.8633C3.62727 23.8166 3.60155 23.7781 3.56681 23.7476C3.57344 23.7094 3.56057 23.6837 3.52826 23.6705C3.39902 23.4635 3.28336 23.2322 3.18127 22.9765C3.19041 22.9268 3.17757 22.8882 3.14272 22.8609C3.15185 22.8111 3.13902 22.7726 3.10416 22.7452C3.1133 22.6954 3.10046 22.6569 3.06561 22.6296C3.05026 22.4402 3.01171 22.2602 2.94995 22.0898C2.96159 21.9911 2.94871 21.9012 2.91139 21.8199C2.87893 21.2165 2.86609 20.6125 2.87284 20.0079C2.92145 19.7447 2.96001 19.4748 2.9885 19.1982C3.02451 19.1571 3.03739 19.1057 3.02705 19.044C3.06306 19.0028 3.07594 18.9514 3.06561 18.8898C3.14507 18.6829 3.22218 18.4709 3.29693 18.2537C3.46453 17.9462 3.6637 17.6185 3.89452 17.2705C4.10156 17.07 4.30073 16.8644 4.49211 16.6537C4.63446 16.5826 4.76296 16.4926 4.87766 16.3838C5.22036 16.2195 5.5288 16.0588 5.80296 15.9018C5.96546 15.8543 6.11968 15.7964 6.26561 15.7284C6.31538 15.7375 6.35394 15.7247 6.38127 15.6898C6.44292 15.7001 6.49431 15.6873 6.53549 15.6512C6.58526 15.6604 6.62382 15.6475 6.65115 15.6127C6.82819 15.598 6.99525 15.5594 7.15236 15.497C7.22619 15.508 7.29042 15.4951 7.34513 15.4585C7.43129 15.4698 7.5084 15.457 7.57645 15.4199Z" fill="#AB0021"/>
<path opacity="0.01" fill-rule="evenodd" clip-rule="evenodd" d="M7.1521 15.4975C7.12638 15.4461 7.12638 15.4461 7.1521 15.4975Z" fill="#FE0000"/>
<path opacity="0.01" fill-rule="evenodd" clip-rule="evenodd" d="M25.9666 15.498C25.9408 15.5238 25.9408 15.5238 25.9666 15.498Z" fill="black"/>
<path opacity="0.01" fill-rule="evenodd" clip-rule="evenodd" d="M6.6521 15.6128C6.62638 15.5614 6.62638 15.5614 6.6521 15.6128Z" fill="#FE0000"/>
<path opacity="0.01" fill-rule="evenodd" clip-rule="evenodd" d="M6.53491 15.6518C6.5092 15.6004 6.5092 15.6004 6.53491 15.6518Z" fill="#FE0000"/>
<path opacity="0.01" fill-rule="evenodd" clip-rule="evenodd" d="M26.0056 15.6133C25.9799 15.639 25.9799 15.639 26.0056 15.6133Z" fill="#FE0000"/>
<path opacity="0.01" fill-rule="evenodd" clip-rule="evenodd" d="M6.38061 15.6909C6.3549 15.6395 6.3549 15.6395 6.38061 15.6909Z" fill="#FE0000"/>
<path opacity="0.01" fill-rule="evenodd" clip-rule="evenodd" d="M6.26538 15.73C6.23966 15.6786 6.23966 15.6786 6.26538 15.73Z" fill="black"/>
<path opacity="0.01" fill-rule="evenodd" clip-rule="evenodd" d="M7.73047 15.6914C7.78186 15.7171 7.78186 15.7171 7.73047 15.6914Z" fill="#FE0000"/>
<path opacity="0.01" fill-rule="evenodd" clip-rule="evenodd" d="M26.0447 15.6914C26.019 15.7171 26.019 15.7171 26.0447 15.6914Z" fill="#FE0000"/>
<path opacity="0.01" fill-rule="evenodd" clip-rule="evenodd" d="M26.0818 15.7676C26.0561 15.7933 26.0561 15.7933 26.0818 15.7676Z" fill="#FE0000"/>
<path opacity="0.01" fill-rule="evenodd" clip-rule="evenodd" d="M26.1208 15.8828C26.0951 15.9085 26.0951 15.9085 26.1208 15.8828Z" fill="#FE0000"/>
<path opacity="0.01" fill-rule="evenodd" clip-rule="evenodd" d="M26.1599 15.9609C26.1342 15.9867 26.1342 15.9867 26.1599 15.9609Z" fill="black"/>
<path opacity="0.01" fill-rule="evenodd" clip-rule="evenodd" d="M26.2751 16.3066C26.2494 16.3324 26.2494 16.3324 26.2751 16.3066Z" fill="black"/>
<path opacity="0.01" fill-rule="evenodd" clip-rule="evenodd" d="M4.87866 16.3842C4.85295 16.3329 4.85295 16.3329 4.87866 16.3842Z" fill="#FE0000"/>
<path opacity="0.01" fill-rule="evenodd" clip-rule="evenodd" d="M26.3142 16.4238C26.2885 16.4495 26.2885 16.4495 26.3142 16.4238Z" fill="#FE0000"/>
<path opacity="0.01" fill-rule="evenodd" clip-rule="evenodd" d="M7.6543 16.4609C7.70569 16.4867 7.70569 16.4867 7.6543 16.4609Z" fill="#FE0000"/>
<path opacity="0.01" fill-rule="evenodd" clip-rule="evenodd" d="M26.3533 16.5391C26.3276 16.5648 26.3276 16.5648 26.3533 16.5391Z" fill="#FE0000"/>
<path opacity="0.01" fill-rule="evenodd" clip-rule="evenodd" d="M4.49194 16.6538C4.46623 16.6024 4.46623 16.6024 4.49194 16.6538Z" fill="black"/>
<path opacity="0.01" fill-rule="evenodd" clip-rule="evenodd" d="M26.3904 16.6543C26.3647 16.68 26.3647 16.68 26.3904 16.6543Z" fill="#FE0000"/>
<path opacity="0.01" fill-rule="evenodd" clip-rule="evenodd" d="M26.4294 16.7695C26.4037 16.7952 26.4037 16.7952 26.4294 16.7695Z" fill="black"/>
<path opacity="0.01" fill-rule="evenodd" clip-rule="evenodd" d="M7.6543 17.4258C7.70569 17.4515 7.70569 17.4515 7.6543 17.4258Z" fill="#FE0000"/>
<path opacity="0.01" fill-rule="evenodd" clip-rule="evenodd" d="M7.69141 17.9277C7.7428 17.9535 7.7428 17.9535 7.69141 17.9277Z" fill="#FE0000"/>
<path opacity="0.01" fill-rule="evenodd" clip-rule="evenodd" d="M7.73047 18.1582C7.78186 18.1839 7.78186 18.1839 7.73047 18.1582Z" fill="#FE0000"/>
<path opacity="0.01" fill-rule="evenodd" clip-rule="evenodd" d="M7.76953 18.3887C7.82092 18.4144 7.82092 18.4144 7.76953 18.3887Z" fill="black"/>
<path opacity="0.01" fill-rule="evenodd" clip-rule="evenodd" d="M26.8533 18.543C26.8276 18.5687 26.8276 18.5687 26.8533 18.543Z" fill="black"/>
<path opacity="0.01" fill-rule="evenodd" clip-rule="evenodd" d="M3.06616 18.8901C3.04045 18.8387 3.04045 18.8387 3.06616 18.8901Z" fill="#FE0000"/>
<path opacity="0.01" fill-rule="evenodd" clip-rule="evenodd" d="M3.0271 19.0444C3.00138 18.993 3.00138 18.993 3.0271 19.0444Z" fill="#FE0000"/>
<path opacity="0.01" fill-rule="evenodd" clip-rule="evenodd" d="M2.98804 19.1987C2.96232 19.1473 2.96232 19.1473 2.98804 19.1987Z" fill="#FE0000"/>
<path opacity="0.01" fill-rule="evenodd" clip-rule="evenodd" d="M26.9314 19.1992C26.9057 19.2249 26.9057 19.2249 26.9314 19.1992Z" fill="#FE0000"/>
<path opacity="0.01" fill-rule="evenodd" clip-rule="evenodd" d="M8.30859 19.8164C8.35999 19.8421 8.35999 19.8421 8.30859 19.8164Z" fill="#FE0000"/>
<path opacity="0.01" fill-rule="evenodd" clip-rule="evenodd" d="M8.34766 19.8926C8.39905 19.9183 8.39905 19.9183 8.34766 19.8926Z" fill="#FE0000"/>
<path opacity="0.01" fill-rule="evenodd" clip-rule="evenodd" d="M2.8728 20.0092C2.84709 19.9579 2.84709 19.9579 2.8728 20.0092Z" fill="#FE0000"/>
<path opacity="0.01" fill-rule="evenodd" clip-rule="evenodd" d="M8.42383 20.0078C8.47522 20.0335 8.47522 20.0335 8.42383 20.0078Z" fill="#FE0000"/>
<path opacity="0.01" fill-rule="evenodd" clip-rule="evenodd" d="M8.50195 20.125C8.55335 20.1507 8.55335 20.1507 8.50195 20.125Z" fill="#FE0000"/>
<path opacity="0.01" fill-rule="evenodd" clip-rule="evenodd" d="M8.57812 20.2402C8.62952 20.266 8.62952 20.266 8.57812 20.2402Z" fill="black"/>
<path opacity="0.01" fill-rule="evenodd" clip-rule="evenodd" d="M9.19531 20.8945C9.24671 20.9202 9.24671 20.9202 9.19531 20.8945Z" fill="#FE0000"/>
<path opacity="0.01" fill-rule="evenodd" clip-rule="evenodd" d="M9.38867 21.0488C9.44006 21.0745 9.44006 21.0745 9.38867 21.0488Z" fill="#FE0000"/>
<path opacity="0.01" fill-rule="evenodd" clip-rule="evenodd" d="M9.50391 21.127C9.5553 21.1527 9.5553 21.1527 9.50391 21.127Z" fill="black"/>
<path opacity="0.01" fill-rule="evenodd" clip-rule="evenodd" d="M10.1602 21.5117C10.2115 21.5374 10.2115 21.5374 10.1602 21.5117Z" fill="#FE0000"/>
<path opacity="0.01" fill-rule="evenodd" clip-rule="evenodd" d="M10.2363 21.5508C10.2877 21.5765 10.2877 21.5765 10.2363 21.5508Z" fill="#FE0000"/>
<path opacity="0.01" fill-rule="evenodd" clip-rule="evenodd" d="M10.3145 21.5898C10.3658 21.6156 10.3658 21.6156 10.3145 21.5898Z" fill="#FE0000"/>
<path opacity="0.01" fill-rule="evenodd" clip-rule="evenodd" d="M10.3906 21.6289C10.442 21.6546 10.442 21.6546 10.3906 21.6289Z" fill="#FE0000"/>
<path opacity="0.01" fill-rule="evenodd" clip-rule="evenodd" d="M10.4688 21.666C10.5201 21.6917 10.5201 21.6917 10.4688 21.666Z" fill="#FE0000"/>
<path opacity="0.01" fill-rule="evenodd" clip-rule="evenodd" d="M2.91186 21.8203C2.88615 21.846 2.88615 21.846 2.91186 21.8203Z" fill="#FE0000"/>
<path opacity="0.01" fill-rule="evenodd" clip-rule="evenodd" d="M10.9316 21.8203C10.983 21.846 10.983 21.846 10.9316 21.8203Z" fill="#FE0000"/>
<path opacity="0.01" fill-rule="evenodd" clip-rule="evenodd" d="M26.9685 21.8589C26.9428 21.8075 26.9428 21.8075 26.9685 21.8589Z" fill="#FE0000"/>
<path opacity="0.01" fill-rule="evenodd" clip-rule="evenodd" d="M11.0469 21.8594C11.0983 21.8851 11.0983 21.8851 11.0469 21.8594Z" fill="#FE0000"/>
<path opacity="0.01" fill-rule="evenodd" clip-rule="evenodd" d="M11.1621 21.8984C11.2135 21.9242 11.2135 21.9242 11.1621 21.8984Z" fill="#FE0000"/>
<path opacity="0.01" fill-rule="evenodd" clip-rule="evenodd" d="M11.3164 21.9355C11.3678 21.9613 11.3678 21.9613 11.3164 21.9355Z" fill="black"/>
<path opacity="0.01" fill-rule="evenodd" clip-rule="evenodd" d="M2.95093 22.0898C2.92521 22.1156 2.92521 22.1156 2.95093 22.0898Z" fill="#FE0000"/>
<path opacity="0.01" fill-rule="evenodd" clip-rule="evenodd" d="M17.4473 22.5527C17.4987 22.5785 17.4987 22.5785 17.4473 22.5527Z" fill="black"/>
<path opacity="0.01" fill-rule="evenodd" clip-rule="evenodd" d="M3.06616 22.6309C3.04045 22.6566 3.04045 22.6566 3.06616 22.6309Z" fill="black"/>
<path opacity="0.01" fill-rule="evenodd" clip-rule="evenodd" d="M26.8923 22.6694C26.8666 22.618 26.8666 22.618 26.8923 22.6694Z" fill="#FE0000"/>
<path opacity="0.01" fill-rule="evenodd" clip-rule="evenodd" d="M17.4082 22.6699C17.4596 22.6956 17.4596 22.6956 17.4082 22.6699Z" fill="#FE0000"/>
<path opacity="0.01" fill-rule="evenodd" clip-rule="evenodd" d="M3.10327 22.7461C3.07756 22.7718 3.07756 22.7718 3.10327 22.7461Z" fill="black"/>
<path opacity="0.01" fill-rule="evenodd" clip-rule="evenodd" d="M17.3691 22.8223C17.4205 22.848 17.4205 22.848 17.3691 22.8223Z" fill="#FE0000"/>
<path opacity="0.01" fill-rule="evenodd" clip-rule="evenodd" d="M3.14233 22.8613C3.11662 22.887 3.11662 22.887 3.14233 22.8613Z" fill="black"/>
<path opacity="0.01" fill-rule="evenodd" clip-rule="evenodd" d="M17.3301 22.9395C17.3815 22.9652 17.3815 22.9652 17.3301 22.9395Z" fill="#FE0000"/>
<path opacity="0.01" fill-rule="evenodd" clip-rule="evenodd" d="M3.1814 22.9766C3.15568 23.0023 3.15568 23.0023 3.1814 22.9766Z" fill="black"/>
<path opacity="0.01" fill-rule="evenodd" clip-rule="evenodd" d="M17.293 23.0156C17.3444 23.0413 17.3444 23.0413 17.293 23.0156Z" fill="#FE0000"/>
<path opacity="0.01" fill-rule="evenodd" clip-rule="evenodd" d="M3.52905 23.6719C3.50334 23.6976 3.50334 23.6976 3.52905 23.6719Z" fill="black"/>
<path opacity="0.01" fill-rule="evenodd" clip-rule="evenodd" d="M3.56616 23.748C3.54045 23.7738 3.54045 23.7738 3.56616 23.748Z" fill="#FE0000"/>
<path opacity="0.01" fill-rule="evenodd" clip-rule="evenodd" d="M3.64429 23.8633C3.61857 23.889 3.61857 23.889 3.64429 23.8633Z" fill="#FE0000"/>
<path opacity="0.01" fill-rule="evenodd" clip-rule="evenodd" d="M3.75952 24.0176C3.73381 24.0433 3.73381 24.0433 3.75952 24.0176Z" fill="black"/>
<path opacity="0.01" fill-rule="evenodd" clip-rule="evenodd" d="M16.4824 24.3652C16.5338 24.391 16.5338 24.391 16.4824 24.3652Z" fill="black"/>
<path opacity="0.01" fill-rule="evenodd" clip-rule="evenodd" d="M16.4434 24.4043C16.4562 24.4043 16.4691 24.4043 16.4819 24.4043C16.4748 24.4301 16.4619 24.4301 16.4434 24.4043Z" fill="black"/>
<path opacity="0.01" fill-rule="evenodd" clip-rule="evenodd" d="M26.5076 24.4428C26.4819 24.3914 26.4819 24.3914 26.5076 24.4428Z" fill="black"/>
<path opacity="0.01" fill-rule="evenodd" clip-rule="evenodd" d="M16.4062 24.4805C16.4576 24.5062 16.4576 24.5062 16.4062 24.4805Z" fill="#FE0000"/>
<path opacity="0.01" fill-rule="evenodd" clip-rule="evenodd" d="M16.3672 24.5195C16.38 24.5195 16.3929 24.5195 16.4057 24.5195C16.3986 24.5454 16.3857 24.5454 16.3672 24.5195Z" fill="#FE0000"/>
<path opacity="0.01" fill-rule="evenodd" clip-rule="evenodd" d="M26.4685 24.5581C26.4428 24.5067 26.4428 24.5067 26.4685 24.5581Z" fill="black"/>
<path opacity="0.01" fill-rule="evenodd" clip-rule="evenodd" d="M29.3203 24.5195C29.3717 24.5452 29.3717 24.5452 29.3203 24.5195Z" fill="black"/>
<path opacity="0.01" fill-rule="evenodd" clip-rule="evenodd" d="M16.3281 24.5586C16.341 24.5586 16.3538 24.5586 16.3667 24.5586C16.3595 24.5844 16.3467 24.5844 16.3281 24.5586Z" fill="#FE0000"/>
<path opacity="0.01" fill-rule="evenodd" clip-rule="evenodd" d="M29.2832 24.5586C29.296 24.5586 29.3089 24.5586 29.3218 24.5586C29.3146 24.5844 29.3017 24.5844 29.2832 24.5586Z" fill="#FE0000"/>
<path opacity="0.01" fill-rule="evenodd" clip-rule="evenodd" d="M16.2891 24.5977C16.3019 24.5977 16.3148 24.5977 16.3276 24.5977C16.3205 24.6235 16.3076 24.6235 16.2891 24.5977Z" fill="#FE0000"/>
<path opacity="0.01" fill-rule="evenodd" clip-rule="evenodd" d="M29.2441 24.5977C29.257 24.5977 29.2699 24.5977 29.2827 24.5977C29.2756 24.6235 29.2627 24.6235 29.2441 24.5977Z" fill="#FE0000"/>
<path opacity="0.01" fill-rule="evenodd" clip-rule="evenodd" d="M16.2129 24.6348C16.2643 24.6605 16.2643 24.6605 16.2129 24.6348Z" fill="black"/>
<path opacity="0.01" fill-rule="evenodd" clip-rule="evenodd" d="M29.2051 24.6348C29.2179 24.6348 29.2308 24.6348 29.2436 24.6348C29.2365 24.6606 29.2236 24.6606 29.2051 24.6348Z" fill="#FE0000"/>
<path opacity="0.01" fill-rule="evenodd" clip-rule="evenodd" d="M29.166 24.6738C29.1789 24.6738 29.1917 24.6738 29.2046 24.6738C29.1974 24.6997 29.1846 24.6997 29.166 24.6738Z" fill="#FE0000"/>
<path opacity="0.01" fill-rule="evenodd" clip-rule="evenodd" d="M29.1289 24.7129C29.1417 24.7129 29.1546 24.7129 29.1675 24.7129C29.1603 24.7387 29.1475 24.7387 29.1289 24.7129Z" fill="#FE0000"/>
<path opacity="0.01" fill-rule="evenodd" clip-rule="evenodd" d="M4.41577 24.75C4.39006 24.7757 4.39006 24.7757 4.41577 24.75Z" fill="black"/>
<path opacity="0.01" fill-rule="evenodd" clip-rule="evenodd" d="M29.0898 24.7891C29.1412 24.8148 29.1412 24.8148 29.0898 24.7891Z" fill="#FE0000"/>
<path opacity="0.01" fill-rule="evenodd" clip-rule="evenodd" d="M29.0508 24.8281C29.0636 24.8281 29.0765 24.8281 29.0893 24.8281C29.0822 24.854 29.0693 24.854 29.0508 24.8281Z" fill="#FE0000"/>
<path opacity="0.01" fill-rule="evenodd" clip-rule="evenodd" d="M29.0117 24.8672C29.0246 24.8672 29.0374 24.8672 29.0503 24.8672C29.0431 24.893 29.0303 24.893 29.0117 24.8672Z" fill="#FE0000"/>
<path opacity="0.01" fill-rule="evenodd" clip-rule="evenodd" d="M4.60718 24.9043C4.58146 24.93 4.58146 24.93 4.60718 24.9043Z" fill="black"/>
<path opacity="0.01" fill-rule="evenodd" clip-rule="evenodd" d="M28.9746 24.9043C28.9874 24.9043 29.0003 24.9043 29.0132 24.9043C29.006 24.9301 28.9932 24.9301 28.9746 24.9043Z" fill="black"/>
<path opacity="0.01" fill-rule="evenodd" clip-rule="evenodd" d="M26.3142 25.0971C26.2885 25.0457 26.2885 25.0457 26.3142 25.0971Z" fill="black"/>
<path opacity="0.01" fill-rule="evenodd" clip-rule="evenodd" d="M26.2751 25.2143C26.2494 25.1629 26.2494 25.1629 26.2751 25.2143Z" fill="#FE0000"/>
<path opacity="0.01" fill-rule="evenodd" clip-rule="evenodd" d="M26.2361 25.2905C26.2104 25.2391 26.2104 25.2391 26.2361 25.2905Z" fill="#FE0000"/>
<path opacity="0.01" fill-rule="evenodd" clip-rule="evenodd" d="M5.3396 25.3672C5.31388 25.3929 5.31388 25.3929 5.3396 25.3672Z" fill="black"/>
<path opacity="0.01" fill-rule="evenodd" clip-rule="evenodd" d="M26.199 25.4057C26.1733 25.3543 26.1733 25.3543 26.199 25.4057Z" fill="#FE0000"/>
<path opacity="0.01" fill-rule="evenodd" clip-rule="evenodd" d="M5.41772 25.4062C5.39201 25.432 5.39201 25.432 5.41772 25.4062Z" fill="#FE0000"/>
<path opacity="0.01" fill-rule="evenodd" clip-rule="evenodd" d="M5.4939 25.4453C5.46818 25.471 5.46818 25.471 5.4939 25.4453Z" fill="#FE0000"/>
<path opacity="0.01" fill-rule="evenodd" clip-rule="evenodd" d="M28.4336 25.4453C28.485 25.471 28.485 25.471 28.4336 25.4453Z" fill="black"/>
<path opacity="0.01" fill-rule="evenodd" clip-rule="evenodd" d="M5.57202 25.4844C5.54631 25.5101 5.54631 25.5101 5.57202 25.4844Z" fill="#FE0000"/>
<path opacity="0.01" fill-rule="evenodd" clip-rule="evenodd" d="M14.9395 25.4844C14.9908 25.5101 14.9908 25.5101 14.9395 25.4844Z" fill="#FE0000"/>
<path opacity="0.01" fill-rule="evenodd" clip-rule="evenodd" d="M26.1599 25.5229C26.1342 25.4715 26.1342 25.4715 26.1599 25.5229Z" fill="#FE0000"/>
<path opacity="0.01" fill-rule="evenodd" clip-rule="evenodd" d="M28.3965 25.4844C28.4093 25.4844 28.4222 25.4844 28.435 25.4844C28.4279 25.5102 28.415 25.5102 28.3965 25.4844Z" fill="#FE0000"/>
<path opacity="0.01" fill-rule="evenodd" clip-rule="evenodd" d="M5.64819 25.5215C5.62248 25.5472 5.62248 25.5472 5.64819 25.5215Z" fill="#FE0000"/>
<path opacity="0.01" fill-rule="evenodd" clip-rule="evenodd" d="M14.8242 25.5215C14.8756 25.5472 14.8756 25.5472 14.8242 25.5215Z" fill="#FE0000"/>
<path opacity="0.01" fill-rule="evenodd" clip-rule="evenodd" d="M28.3574 25.5215C28.3703 25.5215 28.3831 25.5215 28.396 25.5215C28.3888 25.5473 28.376 25.5473 28.3574 25.5215Z" fill="#FE0000"/>
<path opacity="0.01" fill-rule="evenodd" clip-rule="evenodd" d="M5.72632 25.5605C5.7006 25.5863 5.7006 25.5863 5.72632 25.5605Z" fill="#FE0000"/>
<path opacity="0.01" fill-rule="evenodd" clip-rule="evenodd" d="M14.748 25.5605C14.7994 25.5863 14.7994 25.5863 14.748 25.5605Z" fill="#FE0000"/>
<path opacity="0.01" fill-rule="evenodd" clip-rule="evenodd" d="M26.1208 25.5991C26.0951 25.5477 26.0951 25.5477 26.1208 25.5991Z" fill="#FE0000"/>
<path opacity="0.01" fill-rule="evenodd" clip-rule="evenodd" d="M28.3184 25.5605C28.3312 25.5605 28.3441 25.5605 28.3569 25.5605C28.3498 25.5864 28.3369 25.5864 28.3184 25.5605Z" fill="#FE0000"/>
<path opacity="0.01" fill-rule="evenodd" clip-rule="evenodd" d="M5.84155 25.5996C5.81584 25.6253 5.81584 25.6253 5.84155 25.5996Z" fill="black"/>
<path opacity="0.01" fill-rule="evenodd" clip-rule="evenodd" d="M14.6699 25.5996C14.7213 25.6253 14.7213 25.6253 14.6699 25.5996Z" fill="#FE0000"/>
<path opacity="0.01" fill-rule="evenodd" clip-rule="evenodd" d="M28.2793 25.5996C28.2921 25.5996 28.305 25.5996 28.3179 25.5996C28.3107 25.6254 28.2978 25.6254 28.2793 25.5996Z" fill="#FE0000"/>
<path opacity="0.01" fill-rule="evenodd" clip-rule="evenodd" d="M14.5547 25.6367C14.6061 25.6624 14.6061 25.6624 14.5547 25.6367Z" fill="#FE0000"/>
<path opacity="0.01" fill-rule="evenodd" clip-rule="evenodd" d="M28.2422 25.6367C28.255 25.6367 28.2679 25.6367 28.2807 25.6367C28.2736 25.6626 28.2607 25.6626 28.2422 25.6367Z" fill="#FE0000"/>
<path opacity="0.01" fill-rule="evenodd" clip-rule="evenodd" d="M14.4395 25.6758C14.4908 25.7015 14.4908 25.7015 14.4395 25.6758Z" fill="black"/>
<path opacity="0.01" fill-rule="evenodd" clip-rule="evenodd" d="M28.2031 25.6758C28.216 25.6758 28.2288 25.6758 28.2417 25.6758C28.2345 25.7016 28.2217 25.7016 28.2031 25.6758Z" fill="#FE0000"/>
<path opacity="0.01" fill-rule="evenodd" clip-rule="evenodd" d="M28.1641 25.7148C28.1769 25.7148 28.1898 25.7148 28.2026 25.7148C28.1955 25.7407 28.1826 25.7407 28.1641 25.7148Z" fill="#FE0000"/>
<path opacity="0.01" fill-rule="evenodd" clip-rule="evenodd" d="M6.30444 25.7539C6.27873 25.7796 6.27873 25.7796 6.30444 25.7539Z" fill="#FE0000"/>
<path opacity="0.01" fill-rule="evenodd" clip-rule="evenodd" d="M28.0879 25.7539C28.1393 25.7796 28.1393 25.7796 28.0879 25.7539Z" fill="#FE0000"/>
<path opacity="0.01" fill-rule="evenodd" clip-rule="evenodd" d="M6.41968 25.791C6.39396 25.8167 6.39396 25.8167 6.41968 25.791Z" fill="#FE0000"/>
<path opacity="0.01" fill-rule="evenodd" clip-rule="evenodd" d="M14.0527 25.791C14.1041 25.8167 14.1041 25.8167 14.0527 25.791Z" fill="black"/>
<path opacity="0.01" fill-rule="evenodd" clip-rule="evenodd" d="M28.0488 25.791C28.0617 25.791 28.0745 25.791 28.0874 25.791C28.0802 25.8168 28.0674 25.8168 28.0488 25.791Z" fill="black"/>
<path opacity="0.01" fill-rule="evenodd" clip-rule="evenodd" d="M8.19311 26.1777C8.1674 26.2035 8.1674 26.2035 8.19311 26.1777Z" fill="black"/>
<path opacity="0.01" fill-rule="evenodd" clip-rule="evenodd" d="M11.9336 26.2168C11.985 26.2425 11.985 26.2425 11.9336 26.2168Z" fill="black"/>
<path opacity="0.01" fill-rule="evenodd" clip-rule="evenodd" d="M9.1189 26.2539C9.09318 26.2796 9.09318 26.2796 9.1189 26.2539Z" fill="#FE0000"/>
<path opacity="0.01" fill-rule="evenodd" clip-rule="evenodd" d="M11.3555 26.2539C11.4069 26.2796 11.4069 26.2796 11.3555 26.2539Z" fill="black"/>
<path opacity="0.01" fill-rule="evenodd" clip-rule="evenodd" d="M27.5098 26.2539C27.5612 26.2796 27.5612 26.2796 27.5098 26.2539Z" fill="black"/>
<path opacity="0.01" fill-rule="evenodd" clip-rule="evenodd" d="M27.4316 26.293C27.483 26.3187 27.483 26.3187 27.4316 26.293Z" fill="#FE0000"/>
<path opacity="0.01" fill-rule="evenodd" clip-rule="evenodd" d="M27.3926 26.332C27.4054 26.332 27.4183 26.332 27.4311 26.332C27.424 26.3579 27.4111 26.3579 27.3926 26.332Z" fill="#FE0000"/>
<path opacity="0.01" fill-rule="evenodd" clip-rule="evenodd" d="M27.3555 26.3711C27.3683 26.3711 27.3812 26.3711 27.394 26.3711C27.3869 26.3969 27.374 26.3969 27.3555 26.3711Z" fill="#FE0000"/>
<path opacity="0.01" fill-rule="evenodd" clip-rule="evenodd" d="M27.2773 26.4082C27.3287 26.4339 27.3287 26.4339 27.2773 26.4082Z" fill="#FE0000"/>
<path opacity="0.01" fill-rule="evenodd" clip-rule="evenodd" d="M27.2383 26.4473C27.2511 26.4473 27.264 26.4473 27.2768 26.4473C27.2697 26.4731 27.2568 26.4731 27.2383 26.4473Z" fill="#FE0000"/>
<path opacity="0.01" fill-rule="evenodd" clip-rule="evenodd" d="M27.2012 26.4863C27.214 26.4863 27.2269 26.4863 27.2397 26.4863C27.2326 26.5122 27.2197 26.5122 27.2012 26.4863Z" fill="#FE0000"/>
<path opacity="0.01" fill-rule="evenodd" clip-rule="evenodd" d="M27.123 26.5254C27.1744 26.5511 27.1744 26.5511 27.123 26.5254Z" fill="#FE0000"/>
<path opacity="0.01" fill-rule="evenodd" clip-rule="evenodd" d="M27.084 26.5625C27.0968 26.5625 27.1097 26.5625 27.1225 26.5625C27.1154 26.5883 27.1025 26.5883 27.084 26.5625Z" fill="#FE0000"/>
<path opacity="0.01" fill-rule="evenodd" clip-rule="evenodd" d="M27.0078 26.6016C27.0592 26.6273 27.0592 26.6273 27.0078 26.6016Z" fill="black"/>
<path opacity="0.01" fill-rule="evenodd" clip-rule="evenodd" d="M25.3884 27.0639C25.3627 27.0125 25.3627 27.0125 25.3884 27.0639Z" fill="#FE0000"/>
<path opacity="0.01" fill-rule="evenodd" clip-rule="evenodd" d="M26.3906 27.0254C26.442 27.0511 26.442 27.0511 26.3906 27.0254Z" fill="black"/>
<path opacity="0.01" fill-rule="evenodd" clip-rule="evenodd" d="M26.3145 27.0645C26.3658 27.0902 26.3658 27.0902 26.3145 27.0645Z" fill="black"/>
<path opacity="0.01" fill-rule="evenodd" clip-rule="evenodd" d="M26.2363 27.1035C26.2877 27.1292 26.2877 27.1292 26.2363 27.1035Z" fill="black"/>
<path opacity="0.01" fill-rule="evenodd" clip-rule="evenodd" d="M26.1973 27.1406C26.2101 27.1406 26.223 27.1406 26.2358 27.1406C26.2287 27.1665 26.2158 27.1665 26.1973 27.1406Z" fill="black"/>
<path opacity="0.01" fill-rule="evenodd" clip-rule="evenodd" d="M26.1211 27.1797C26.1725 27.2054 26.1725 27.2054 26.1211 27.1797Z" fill="black"/>
<path opacity="0.01" fill-rule="evenodd" clip-rule="evenodd" d="M25.7363 27.373C25.7877 27.3988 25.7877 27.3988 25.7363 27.373Z" fill="#FE0000"/>
<path opacity="0.01" fill-rule="evenodd" clip-rule="evenodd" d="M25.6582 27.4121C25.7096 27.4378 25.7096 27.4378 25.6582 27.4121Z" fill="#FE0000"/>
<path opacity="0.01" fill-rule="evenodd" clip-rule="evenodd" d="M25.582 27.4492C25.6334 27.4749 25.6334 27.4749 25.582 27.4492Z" fill="#FE0000"/>
<path opacity="0.01" fill-rule="evenodd" clip-rule="evenodd" d="M25.5039 27.4883C25.5553 27.514 25.5553 27.514 25.5039 27.4883Z" fill="#FE0000"/>
<path opacity="0.01" fill-rule="evenodd" clip-rule="evenodd" d="M25.4277 27.5273C25.4791 27.5531 25.4791 27.5531 25.4277 27.5273Z" fill="#FE0000"/>
<path opacity="0.01" fill-rule="evenodd" clip-rule="evenodd" d="M25.3496 27.5645C25.401 27.5902 25.401 27.5902 25.3496 27.5645Z" fill="black"/>
</svg>
