<svg width="32" height="32" viewBox="0 0 32 32" fill="none" xmlns="http://www.w3.org/2000/svg">
    <path
        d="M0.526176 0C0.613872 0.0123237 0.714096 0.0246474 0.801792 0.0308093C0.914545 0.0369711 1.03982 0.0369711 1.15258 0.0369711C1.67876 0.043133 2.21745 0.0616185 2.74363 0.0862657C3.18211 0.110914 3.60807 0.129399 4.04654 0.154047C4.42239 0.178694 4.79823 0.209503 5.16154 0.240312C6.20136 0.33274 7.22866 0.455978 8.2309 0.603864C11.9016 1.1461 15.209 2.02725 18.1531 3.23498C20.0699 4.01753 21.7361 4.91716 23.1769 5.91537C23.2269 5.95233 23.3146 5.98318 23.3146 6.03864C23.2645 6.08177 23.1642 6.10022 23.0891 6.11873C22.0368 6.41451 21.0221 6.74108 20.0574 7.09843C17.2636 8.13983 14.946 9.39064 13.0917 10.851C11.6009 12.0279 10.4985 13.285 9.78437 14.6221C9.54634 15.0719 9.3459 15.5279 9.19556 15.99C9.10786 16.255 9.05775 16.5199 8.99512 16.7849C8.86983 17.3025 8.81972 17.8263 8.8573 18.35C8.86983 18.6273 8.90741 18.8984 8.94499 19.1757C8.98259 19.416 9.02017 19.6625 9.08281 19.9028C9.14545 20.1554 9.22061 20.4019 9.32084 20.6484C9.53381 21.2276 9.82196 21.8007 10.1853 22.3614C10.9871 23.5999 12.1145 24.7584 13.5803 25.8367C13.6305 25.8736 13.6681 25.9106 13.7056 25.9414C13.6681 25.9969 13.5678 26.003 13.5052 26.0277C12.8537 26.2063 12.1772 26.3666 11.5007 26.5083C10.0349 26.8226 8.53157 27.0813 6.9781 27.2662C6.13872 27.371 5.28682 27.4572 4.42239 27.5127C3.8461 27.5496 3.26981 27.5867 2.69352 27.6174C2.30516 27.636 1.91678 27.6421 1.54094 27.6482C1.27785 27.6544 1.01477 27.6544 0.751681 27.6606C0.651456 27.6606 0.563761 27.6606 0.463536 27.6606C0.350785 27.6544 0.300672 27.636 0.300672 27.5805C0.300672 27.5312 0.300672 27.4881 0.300672 27.4388C0.25056 24.8261 0.238032 22.2011 0.225504 19.57C0.212976 15.9777 0.18792 12.3853 0.162864 8.7868C0.150336 6.22349 0.137809 3.66014 0.112752 1.09065C0.112752 0.918118 0.0876961 0.745585 0.0626401 0.579215C0.0626401 0.548405 0.025056 0.517596 0 0.486787C0 0.326578 0 0.160208 0 0C0.175392 0 0.350785 0 0.526176 0Z"
        fill="#0C1A6F" />
    <path
        d="M18.2961 6.05871C18.548 5.99096 18.7621 5.9355 18.9763 5.88003C20.79 5.42405 22.6794 5.06666 24.6569 4.80786C25.4756 4.70311 26.2943 4.61068 27.1382 4.54906C27.768 4.49977 28.4103 4.45664 29.0402 4.4135C29.4306 4.38886 29.8337 4.38886 30.2367 4.37037C30.6524 4.35189 31.0681 4.35189 31.4963 4.34572C31.5971 4.34572 31.6853 4.3334 31.7986 4.37037C31.8113 4.38886 31.8238 4.41966 31.8238 4.44431C31.8238 4.49361 31.8238 4.53674 31.8238 4.58604C31.8364 6.43458 31.8364 8.277 31.849 10.1255C31.8615 13.6317 31.8868 17.1439 31.912 20.65C31.9372 24.1807 31.9498 27.7115 31.9749 31.2422C31.9749 31.4456 31.9875 31.6489 32.0002 31.8584C32.0002 32.0001 31.9875 32.0063 31.7105 32.0001C31.4207 32.0001 31.1311 31.9878 30.8414 31.9817C30.7405 31.9817 30.6524 31.9755 30.5516 31.9755C30.1359 31.9632 29.7204 31.9632 29.3047 31.9385C28.6245 31.9015 27.9569 31.8584 27.2893 31.8091C25.6519 31.6797 24.0649 31.4764 22.503 31.2053C19.2659 30.6446 16.3437 29.8188 13.7237 28.7344C11.8722 27.9703 10.2474 27.1015 8.84921 26.1279C8.79893 26.0909 8.74852 26.0601 8.69812 26.0231C8.68555 26.0169 8.68555 26.0047 8.68555 25.9923C8.71069 25.9492 8.8115 25.9369 8.87447 25.9184C9.61762 25.7089 10.3482 25.4871 11.0409 25.2468C14.5426 24.0514 17.3639 22.5478 19.4926 20.7363C20.8908 19.547 21.8858 18.2838 22.5156 16.9529C22.7045 16.5647 22.8431 16.1703 22.9564 15.776C23.032 15.5048 23.095 15.2275 23.1328 14.9564C23.1958 14.5313 23.2462 14.1 23.2209 13.6748C23.2083 13.379 23.1579 13.0832 23.1328 12.7936C23.1076 12.4917 23.0194 12.1898 22.9313 11.8878C22.8179 11.4688 22.6416 11.056 22.4401 10.6431C21.6591 9.04724 20.3366 7.56223 18.4723 6.19426C18.3968 6.14497 18.3591 6.10801 18.2961 6.05871Z"
        fill="#0C1A6F" />
</svg>