<svg width="32" height="32" viewBox="0 0 33 32" fill="none" xmlns="http://www.w3.org/2000/svg">
    <path fill-rule="evenodd" clip-rule="evenodd"
        d="M8.86883 3.71831C10.2907 4.58321 11.7553 5.40951 13.2625 6.19718C17.9984 8.59727 22.7408 11.001 27.4895 13.4085C28.6889 13.8656 29.8746 14.3915 31.0462 14.9859C31.314 15.3085 31.6628 15.4587 32.0923 15.4366C32.6359 15.6557 32.6359 15.8811 32.0923 16.1127C30.5156 16.7583 28.9812 17.5096 27.4895 18.3662C22.6973 20.6465 17.9549 23.0501 13.2625 25.5775C11.5707 26.2258 9.96667 27.0522 8.45039 28.0563C5.78038 29.3994 3.13026 30.7139 0.5 32C2.70029 30.103 4.93197 28.2625 7.19506 26.4789C8.35107 25.4452 9.53664 24.4685 10.7518 23.5493C13.916 21.0064 17.0544 18.4149 20.1668 15.7746C17.0969 13.1463 13.9586 10.6299 10.7518 8.22535C9.5117 7.34222 8.32613 6.36568 7.19506 5.29577C5.07124 3.58684 2.97904 1.82159 0.918442 0C3.57636 1.16726 6.2265 2.40669 8.86883 3.71831Z"
        fill="#060608" />
    <path fill-rule="evenodd" clip-rule="evenodd"
        d="M18.9114 4.84512C22.7872 5.71317 25.6464 8.0418 27.4895 11.831C27.6813 12.3955 27.6813 12.9213 27.4895 13.4085C22.7408 11.0011 17.9984 8.59732 13.2625 6.19723C13.6967 5.69834 14.2547 5.36032 14.9362 5.18314C16.2497 4.9154 17.5749 4.80273 18.9114 4.84512Z"
        fill="#F6F9F8" />
    <path fill-rule="evenodd" clip-rule="evenodd"
        d="M28.954 6.64804C28.954 6.79828 28.954 6.9485 28.954 7.09875C28.1108 7.56378 27.204 7.86427 26.2341 8.00015C27.2967 9.01593 27.7152 10.2929 27.4894 11.8311C25.6464 8.04191 22.7872 5.71328 18.9114 4.84523C17.5749 4.80284 16.2497 4.91551 14.9362 5.18325C14.2546 5.36043 13.6967 5.69845 13.2624 6.19734C11.7552 5.40966 10.2907 4.58337 8.86877 3.71846C14.2245 0.115738 19.734 -0.147181 25.3972 2.92973C25.8368 3.55384 26.3948 4.00455 27.071 4.28184C27.8256 4.97992 28.4533 5.76865 28.954 6.64804Z"
        fill="#3E75A3" />
    <path fill-rule="evenodd" clip-rule="evenodd"
        d="M18.9115 4.84497C18.393 4.69532 17.835 4.62018 17.2377 4.61962C15.5217 4.66866 13.8479 4.89401 12.2164 5.29568C12.2036 4.82419 11.9943 4.48617 11.5887 4.28159C14.1432 4.18032 16.6887 3.99253 19.2253 3.71821C20.4034 4.21579 21.6238 4.2909 22.8867 3.94356C22.7632 3.65085 22.554 3.46307 22.259 3.38018C21.8406 3.30507 21.4221 3.22994 21.0037 3.15483C21.2826 3.00459 21.2826 2.85437 21.0037 2.70413C19.7517 2.54674 18.4964 2.43406 17.2377 2.3661C16.318 2.49946 15.4114 2.61214 14.5178 2.70413C14.1817 2.46773 14.0422 2.1297 14.0994 1.69004C16.5268 1.11634 18.9678 1.11634 21.4221 1.69004C22.999 2.5768 24.6029 3.4031 26.2342 4.16892C26.1057 4.79456 26.0708 5.39548 26.1296 5.97173C25.8547 5.78857 25.6105 5.56321 25.3973 5.29568C25.1421 5.5686 24.8979 5.5686 24.665 5.29568C24.5625 5.5871 24.5276 5.88759 24.5604 6.19708C23.3411 5.71756 22.0858 5.30442 20.7945 4.95765C20.1706 4.84542 19.5429 4.80788 18.9115 4.84497Z"
        fill="#3473AB" />
    <path fill-rule="evenodd" clip-rule="evenodd"
        d="M28.954 7.09863C29.023 7.68667 29.3369 8.06226 29.8955 8.22539C30.9958 10.3233 31.5885 12.5768 31.6739 14.986C31.4646 14.986 31.2554 14.986 31.0462 14.986C29.8746 14.3915 28.6889 13.8657 27.4895 13.4085C27.6813 12.9213 27.6813 12.3955 27.4895 11.831C27.7152 10.2928 27.2968 9.01582 26.2341 8.00004C27.2041 7.86415 28.1108 7.56367 28.954 7.09863Z"
        fill="#3572A9" />
    <path fill-rule="evenodd" clip-rule="evenodd"
        d="M10.7518 8.22559C13.9586 10.6302 17.0969 13.1466 20.1668 15.7749C17.0544 18.4151 13.916 21.0067 10.7518 23.5495C10.5317 23.5831 10.3225 23.5457 10.1242 23.4369C7.0037 19.1804 6.58526 14.6357 8.86884 9.80305C9.3171 9.01876 9.94476 8.49292 10.7518 8.22559Z"
        fill="#FAFBFB" />
    <path fill-rule="evenodd" clip-rule="evenodd"
        d="M28.954 6.64795C29.8128 7.46176 30.4754 8.4383 30.9416 9.57753C31.7224 11.4393 32.1059 13.3923 32.0923 15.4367C31.6628 15.4587 31.314 15.3085 31.0462 14.986C31.2554 14.986 31.4646 14.986 31.6738 14.986C31.5885 12.5769 30.9958 10.3233 29.8955 8.22541C29.3369 8.06228 29.023 7.68669 28.954 7.09865C28.954 6.94841 28.954 6.79819 28.954 6.64795Z"
        fill="#547895" />
    <path fill-rule="evenodd" clip-rule="evenodd"
        d="M7.19501 5.2959C8.32608 6.3658 9.51165 7.34234 10.7518 8.22548C9.94469 8.49281 9.31703 9.01865 8.86878 9.80294C8.59216 9.84125 8.34809 9.76612 8.1365 9.57759C7.58929 10.2516 7.41494 11.0028 7.61345 11.8311C7.06992 13.1041 6.79094 14.4562 6.77657 15.8874C7.09412 17.2858 7.26849 18.7129 7.29962 20.1691C7.56257 20.6753 7.94613 20.9757 8.45033 21.0705C8.5876 22.0414 8.93631 22.9051 9.49644 23.6621C9.4267 23.8498 9.35695 24.0378 9.28722 24.2255C8.75264 24.5094 8.22958 24.81 7.71806 25.1269C7.61705 25.3405 7.58217 25.5659 7.61345 25.8029C7.40423 25.8029 7.19501 25.8029 6.98579 25.8029C7.02378 25.3317 6.95403 24.881 6.77657 24.4508C7.24752 24.1538 7.66597 23.7784 8.03189 23.3241C7.44651 22.993 6.81885 22.8053 6.14891 22.7607C5.97456 22.573 5.8002 22.385 5.62585 22.1973C5.57372 22.4506 5.46911 22.676 5.31202 22.8734C3.71303 20.1058 3.18998 16.9509 3.74287 13.4086C3.99784 12.025 4.31168 10.6729 4.68436 9.35224C5.31642 7.83668 6.1533 6.48456 7.19501 5.2959Z"
        fill="#3573AB" />
    <path fill-rule="evenodd" clip-rule="evenodd"
        d="M27.4895 18.3662C27.629 18.3662 27.6987 18.4413 27.6987 18.5916C27.6987 18.7419 27.6987 18.892 27.6987 19.0423C26.1578 23.4763 23.2287 26.1055 18.9114 26.9296C17.5728 26.9875 16.2478 26.8748 14.9362 26.5916C14.27 26.4216 13.712 26.0836 13.2625 25.5775C17.9549 23.0502 22.6973 20.6465 27.4895 18.3662Z"
        fill="#F5F8F8" />
    <path fill-rule="evenodd" clip-rule="evenodd"
        d="M27.6986 19.0421C27.6986 18.8917 27.6986 18.7417 27.6986 18.5913C28.2566 18.5913 28.8144 18.5913 29.3724 18.5913C29.4088 19.1234 29.4785 19.6492 29.5816 20.1688C29.7908 20.1688 30.0001 20.1688 30.2093 20.1688C30.3124 19.6492 30.3821 19.1234 30.4185 18.5913C29.7331 18.5053 29.7331 18.2049 30.4185 17.6899C30.7556 17.8747 30.8951 18.1753 30.8369 18.5913C31.0462 18.5913 31.2554 18.5913 31.4646 18.5913C31.6134 19.4533 31.3694 20.1294 30.7323 20.6195C30.5704 21.8574 30.152 22.9841 29.477 23.9998C29.2442 24.2727 29 24.2727 28.7447 23.9998C28.5315 24.2673 28.2874 24.4926 28.0125 24.6759C27.6683 24.6324 27.2846 24.5947 26.8618 24.5632C26.3169 23.3053 26.4914 22.1411 27.3848 21.0702C27.5304 20.3991 27.635 19.7231 27.6986 19.0421Z"
        fill="#3473AB" />
    <path fill-rule="evenodd" clip-rule="evenodd"
        d="M4.68439 9.35205C4.3117 10.6727 3.99787 12.0248 3.7429 13.4084C3.19001 16.9507 3.71306 20.1056 5.31205 22.8732C5.46913 22.6758 5.57374 22.4504 5.62588 22.1971C5.80023 22.3848 5.97459 22.5728 6.14893 22.7605C6.81888 22.8051 7.44654 22.9928 8.03192 23.3239C7.66599 23.7782 7.24755 24.1536 6.7766 24.4506C6.95406 24.8808 7.02381 25.3315 6.98582 25.8028C7.19504 25.8028 7.40426 25.8028 7.61348 25.8028C7.5822 25.5657 7.61708 25.3403 7.71809 25.1267C8.22961 24.8099 8.75267 24.5092 9.28725 24.2253C9.35698 24.0376 9.42673 23.8496 9.49647 23.6619C8.93634 22.905 8.58763 22.0412 8.45036 21.0704C7.94616 20.9755 7.5626 20.6751 7.29965 20.169C7.26852 18.7127 7.09415 17.2856 6.7766 15.8873C6.79097 14.4561 7.06995 13.1039 7.61348 11.8309C7.41497 11.0026 7.58931 10.2514 8.13653 9.5774C8.34812 9.76593 8.59219 9.84106 8.8688 9.80275C6.58522 14.6355 7.00366 19.1801 10.1241 23.4366C10.3225 23.5454 10.5317 23.5828 10.7518 23.5492C9.53662 24.4684 8.35105 25.4451 7.19504 26.4788C3.42358 21.9048 2.3426 16.6467 3.95212 10.7042C4.14899 10.2022 4.39309 9.75151 4.68439 9.35205Z"
        fill="#42749E" />
    <path fill-rule="evenodd" clip-rule="evenodd"
        d="M32.0924 16.1128C31.5396 23.7198 27.8435 28.5648 21.0037 30.648C18.7719 31.0987 16.5404 31.0987 14.3086 30.648C13.2392 30.4281 12.2628 30.015 11.3795 29.4086C12.6581 29.2594 13.8437 29.5224 14.9363 30.1973C17.4042 30.4127 19.845 30.225 22.259 29.6339C22.0757 29.4647 21.8665 29.352 21.6313 29.2959C21.8665 29.2398 22.0757 29.1271 22.259 28.9579C20.6074 28.6633 20.6074 28.5132 22.259 28.5072C22.259 27.9814 22.259 27.4554 22.259 26.9297C21.1508 27.1043 20.035 27.1794 18.9115 27.155C18.9115 27.08 18.9115 27.0047 18.9115 26.9297C23.2287 26.1056 26.1578 23.4764 27.6987 19.0424C27.6351 19.7234 27.5305 20.3994 27.3849 21.0705C26.4915 22.1414 26.317 23.3056 26.8619 24.5635C27.2847 24.595 27.6684 24.6327 28.0126 24.6762C28.2875 24.493 28.5316 24.2676 28.7448 24.0001C29.0001 24.273 29.2442 24.273 29.4771 24.0001C30.1521 22.9845 30.5705 21.8577 30.7324 20.6198C31.3695 20.1297 31.6135 19.4536 31.4647 18.5917C31.2555 18.5917 31.0463 18.5917 30.837 18.5917C30.8952 18.1757 30.7557 17.875 30.4186 17.6903C29.7332 18.2052 29.7332 18.5056 30.4186 18.5917C30.3822 19.1237 30.3125 19.6495 30.2094 20.1691C30.0002 20.1691 29.7909 20.1691 29.5817 20.1691C29.4786 19.6495 29.4089 19.1237 29.3725 18.5917C28.8145 18.5917 28.2567 18.5917 27.6987 18.5917C27.6987 18.4414 27.6291 18.3663 27.4895 18.3663C28.9813 17.5098 30.5157 16.7584 32.0924 16.1128Z"
        fill="#3C74A5" />
    <path fill-rule="evenodd" clip-rule="evenodd"
        d="M13.2625 25.5776C13.7121 26.0838 14.27 26.4218 14.9363 26.5917C16.2478 26.875 17.5729 26.9877 18.9115 26.9297C18.9115 27.0048 18.9115 27.0801 18.9115 27.1551C16.7812 27.2468 14.6889 27.0215 12.6349 26.479C11.7164 26.5796 10.9144 26.9552 10.2288 27.6058C10.1799 28.3199 10.4937 28.7707 11.1703 28.9579C11.1444 29.0947 11.0747 29.1697 10.9611 29.1833C10.313 29.0219 9.75508 28.6839 9.28732 28.1692C9.01676 28.0588 8.73778 28.0211 8.45044 28.0565C9.96673 27.0523 11.5708 26.226 13.2625 25.5776Z"
        fill="#436F94" />
    <path fill-rule="evenodd" clip-rule="evenodd"
        d="M18.9114 27.1551C20.0349 27.1794 21.1507 27.1044 22.2589 26.9297C22.2589 27.4555 22.2589 27.9814 22.2589 28.5072C20.6073 28.5133 20.6073 28.6633 22.2589 28.9579C22.0756 29.1271 21.8664 29.2398 21.6312 29.2959C21.8664 29.352 22.0756 29.4647 22.2589 29.6339C19.8449 30.225 17.4041 30.4128 14.9362 30.1973C13.8436 29.5224 12.658 29.2594 11.3794 29.4086C11.172 29.4473 11.0325 29.3721 10.961 29.1832C11.0746 29.1697 11.1443 29.0947 11.1702 28.9579C10.4936 28.7706 10.1798 28.3199 10.2287 27.6058C10.9143 26.9552 11.7163 26.5795 12.6347 26.479C14.6888 27.0214 16.7811 27.2468 18.9114 27.1551Z"
        fill="#3473AB" />
</svg>