<svg width="32" height="32" viewBox="0 0 32 32" fill="none" xmlns="http://www.w3.org/2000/svg">
<rect width="32" height="32" fill="white"/>
<path opacity="0.868" fill-rule="evenodd" clip-rule="evenodd" d="M21.893 5.61328C23.7641 5.61328 25.6358 5.61328 27.507 5.61328C27.507 6.73609 27.507 7.8589 27.507 8.9817C28.6298 8.9817 29.7526 8.9817 30.8754 8.9817C30.8754 10.2916 30.8754 11.6016 30.8754 12.9115C29.7526 12.9115 28.6298 12.9115 27.507 12.9115C27.507 15.7185 27.507 18.5256 27.507 21.3326C28.6298 21.3326 29.7526 21.3326 30.8754 21.3326C30.8754 22.8297 30.8754 24.3267 30.8754 25.8238C28.8083 25.9166 26.7502 25.823 24.7 25.5431C23.8966 25.2819 23.242 24.8141 22.7351 24.1396C21.989 20.4388 21.7083 16.6962 21.893 12.9115C20.9391 13.0015 20.0033 12.9079 19.0859 12.6308C20.9891 10.6487 21.9244 8.30948 21.893 5.61328Z" fill="black"/>
<path opacity="0.885" fill-rule="evenodd" clip-rule="evenodd" d="M12.35 25.8243C10.8529 25.8243 9.35589 25.8243 7.85879 25.8243C4.1161 24.7015 1.68335 22.2688 0.560547 18.526C0.560547 17.4032 0.560547 16.2804 0.560547 15.1576C1.87319 10.5788 4.96091 8.14601 9.8237 7.85938C17.0085 8.56048 20.0026 12.4903 18.8062 19.6488C17.8212 22.9739 15.6692 25.0324 12.35 25.8243ZM8.4202 12.3506C10.5842 11.9831 12.1749 12.7317 13.1921 14.5962C14.6871 19.2597 13.0964 21.4118 8.4202 21.0524C5.45681 18.1533 5.45681 15.2527 8.4202 12.3506Z" fill="black"/>
</svg>
