<svg width="32" height="32" viewBox="0 0 32 32" fill="none" xmlns="http://www.w3.org/2000/svg">
<rect width="32" height="32" fill="white"/>
<path fill-rule="evenodd" clip-rule="evenodd" d="M25.5394 6.3238C26.0536 6.76392 26.6225 7.14318 27.246 7.46158C27.6631 8.86485 27.1703 9.35787 25.7669 8.94069C25.4499 8.6742 25.2602 8.33287 25.198 7.91669C22.1165 5.4717 18.7411 4.8649 15.0718 6.09625C11.2146 7.41318 8.82532 10.068 7.90381 14.0607C7.439 17.5894 8.34922 20.6992 10.6345 23.3905C11.4366 23.9867 12.271 24.5175 13.1376 24.9834C13.2894 25.2867 13.2894 25.5902 13.1376 25.8936C12.8998 26.0922 12.7102 26.3198 12.5687 26.5762C12.4929 26.5762 12.417 26.5762 12.3411 26.5762C6.92174 22.8441 5.21508 17.7619 7.22114 11.33C8.93311 7.68012 11.7017 5.3287 15.5269 4.2758C19.1614 3.54121 22.4988 4.22387 25.5394 6.3238Z" fill="#0E0E0E"/>
<path fill-rule="evenodd" clip-rule="evenodd" d="M15.0729 6.0957C15.0948 6.38816 15.0948 6.69158 15.0729 7.00593C15.4382 6.46457 15.7415 6.46457 15.9832 7.00593C15.6434 7.19072 15.4917 7.49415 15.5281 7.91615C15.544 8.20551 15.6198 8.471 15.7556 8.71259C21.1059 7.95338 24.633 10.1152 26.3369 15.1979C27.0485 19.9572 25.2661 23.4086 20.9894 25.5517C20.3975 25.7611 19.7906 25.9128 19.1689 26.0068C17.8359 26.1468 16.5464 26.071 15.3005 25.7793C14.9155 26.0981 14.7637 26.5152 14.8454 27.0308C14.6656 26.7785 14.5518 26.4751 14.5041 26.1206C14.1372 27.0231 13.7579 27.0231 13.3663 26.1206C13.1806 26.4216 12.915 26.5732 12.5698 26.5757C12.7113 26.3192 12.9009 26.0917 13.1387 25.893C13.2905 25.5897 13.2905 25.2861 13.1387 24.9828C12.2721 24.517 11.4377 23.9861 10.6356 23.3899C8.35037 20.6986 7.44014 17.5889 7.90495 14.0601C8.82646 10.0674 11.2158 7.41264 15.0729 6.0957Z" fill="#FAFAFA"/>
<path fill-rule="evenodd" clip-rule="evenodd" d="M25.5418 6.32472C25.6897 6.25556 25.8415 6.1797 25.9969 6.09716C26.3355 6.50007 26.7526 6.80347 27.2484 7.00738C27.77 6.75687 28.1113 6.94649 28.2724 7.57627C27.7133 7.9204 27.7133 8.2238 28.2724 8.48649C28.0112 8.86166 27.7079 9.203 27.3622 9.51049C26.8368 9.18447 26.4955 9.33619 26.3382 9.9656C26.0431 9.67351 25.7775 9.71145 25.5418 10.0794C25.7693 10.1552 25.9969 10.2311 26.2244 10.3069C26.0183 10.6937 25.9425 11.1108 25.9969 11.5585C23.4198 8.45068 20.0823 6.93365 15.9844 7.00738C15.7428 6.46603 15.4394 6.46603 15.0742 7.00738C15.0961 6.69304 15.0961 6.38962 15.0742 6.09716C18.7436 4.86581 22.1189 5.47261 25.2004 7.91761C25.2626 8.33378 25.4523 8.67511 25.7693 8.94161C27.1727 9.35878 27.6656 8.86576 27.2484 7.46249C26.6249 7.1441 26.056 6.76483 25.5418 6.32472Z" fill="#EFEFEF"/>
<path fill-rule="evenodd" clip-rule="evenodd" d="M14.1619 2.45472C14.2181 3.13852 13.9906 3.70741 13.4793 4.16138C12.7686 4.20837 12.086 4.36009 11.4313 4.6165C5.31891 8.9991 3.61225 14.7259 6.31126 21.7969C7.59383 24.179 9.37634 26.0752 11.6588 27.4858C13.6545 28.9868 15.8543 29.4419 18.2579 28.8512C19.474 29.0434 19.8911 29.7261 19.5095 30.8992C19.0066 31.534 18.3617 31.7236 17.5753 31.4681C11.632 30.6045 7.27054 27.5325 4.49082 22.2521C1.81629 15.1849 3.2954 9.15455 8.92815 4.16138C10.0462 3.56558 11.0322 2.80707 11.8864 1.88583C12.8381 1.3652 13.5967 1.55483 14.1619 2.45472Z" fill="#0E0E0E"/>
<path fill-rule="evenodd" clip-rule="evenodd" d="M14.1611 2.45508C14.3245 2.85234 14.552 3.00406 14.8438 2.91019C14.6587 3.20917 14.4312 3.47464 14.1611 3.70663C14.4376 4.18348 14.6273 4.14554 14.73 3.59286C14.8399 3.80858 14.8777 4.03613 14.8438 4.27552C15.0713 4.27552 15.2989 4.27552 15.5264 4.27552C11.7012 5.32842 8.93261 7.67984 7.22064 11.3297C5.21458 17.7616 6.92124 22.8438 12.3406 26.576C12.1131 26.8793 11.8855 27.1829 11.658 27.4862C9.3755 26.0756 7.59299 24.1794 6.31042 21.7973C3.6114 14.7262 5.31807 8.99946 11.4304 4.61686C12.0851 4.36045 12.7678 4.20874 13.4784 4.16174C13.9897 3.70777 14.2173 3.13888 14.1611 2.45508Z" fill="#EFEFEF"/>
<path fill-rule="evenodd" clip-rule="evenodd" d="M24.1735 14.5168C24.8723 14.3859 25.3274 14.6513 25.5388 15.3132C25.8435 20.1756 23.7198 23.3614 19.1673 24.8706C17.1345 25.1778 15.2383 24.7987 13.4784 23.7328C12.429 22.8071 11.405 21.8589 10.4064 20.8883C10.2408 19.8536 10.658 19.4743 11.6579 19.7506C12.1034 21.7521 13.3171 23.0795 15.2988 23.7328C21.1928 24.752 24.2648 22.2869 24.5148 16.3372C23.6483 15.8332 23.5345 15.2263 24.1735 14.5168Z" fill="#161616"/>
<path fill-rule="evenodd" clip-rule="evenodd" d="M15.9834 7.00452C20.0813 6.93079 23.4188 8.44781 25.9959 11.5556C28.9832 17.2898 27.9215 22.1065 22.8101 26.0054C20.2176 27.2497 17.5627 27.591 14.8457 27.0294C14.764 26.5138 14.9157 26.0967 15.3008 25.7778C16.5466 26.0696 17.8362 26.1454 19.1692 26.0054C19.7909 25.9114 20.3978 25.7596 20.9897 25.5503C25.2663 23.4072 27.0488 19.9558 26.3372 15.1965C24.6333 10.1137 21.1062 7.95197 15.7559 8.71118C15.62 8.46959 15.5443 8.2041 15.5283 7.91474C15.4919 7.49274 15.6437 7.18931 15.9834 7.00452Z" fill="#414141"/>
</svg>
