<svg width="32" height="32" viewBox="0 0 32 32" fill="none" xmlns="http://www.w3.org/2000/svg">
<path fill-rule="evenodd" clip-rule="evenodd" d="M11.32 5.95484C10.3219 6.50965 9.37867 7.15544 8.49052 7.89222C8.23805 7.52569 8.38306 7.3822 8.92582 7.46169C8.88882 7.1771 8.96133 6.92597 9.14347 6.70827C8.93711 6.60435 8.71946 6.56845 8.49052 6.60064C8.49052 6.02659 8.49052 5.45258 8.49052 4.87853C8.70817 4.87853 8.92582 4.87853 9.14347 4.87853C9.08321 4.24404 9.15572 3.63412 9.36112 3.04879C8.9382 3.1145 8.5029 3.1145 8.0552 3.04879C8.5618 2.76378 9.06961 2.47675 9.57878 2.18773C8.88773 2.18036 8.23478 2.35973 7.6199 2.72589C8.33082 2.01337 9.20142 1.51111 10.2317 1.21905C10.7428 1.18256 11.2507 1.1108 11.7553 1.00379C12.6089 1.1579 12.6089 1.30141 11.7553 1.43431C11.8532 2.97681 11.7081 4.48365 11.32 5.95484Z" fill="#E55AE6"/>
<path fill-rule="evenodd" clip-rule="evenodd" d="M15.2376 4.87811C14.3596 4.88166 13.5615 5.09692 12.8434 5.5239C12.3965 5.50283 12.0339 5.64632 11.7552 5.95443C11.61 5.95443 11.465 5.95443 11.3199 5.95443C11.708 4.48323 11.8531 2.97639 11.7552 1.4339C12.6088 1.301 12.6088 1.15747 11.7552 1.00337C11.2506 1.11038 10.7428 1.18214 10.2316 1.21863C10.67 0.912137 11.178 0.768623 11.7552 0.788105C12.2819 0.832799 12.7898 0.761022 13.2787 0.572842C13.4715 0.750434 13.544 0.965697 13.4964 1.21863C14.0768 1.29038 14.6571 1.36215 15.2376 1.4339C15.2376 2.58196 15.2376 3.73004 15.2376 4.87811Z" fill="#EA60DE"/>
<path fill-rule="evenodd" clip-rule="evenodd" d="M19.1568 0.356907C19.3966 0.624883 19.6143 0.911923 19.8097 1.21796C19.6381 2.4267 19.5292 3.64652 19.4833 4.87744C19.3372 5.0394 19.156 5.11117 18.9391 5.0927C17.7257 4.88768 16.4925 4.81594 15.2391 4.87744C15.2391 3.72937 15.2391 2.58129 15.2391 1.43322C14.6586 1.36147 14.0783 1.28971 13.4979 1.21796C13.5455 0.965026 13.473 0.749762 13.2802 0.57217C12.7912 0.76035 12.2834 0.832114 11.7567 0.787433C14.1641 -0.0909493 16.6309 -0.234449 19.1568 0.356907Z" fill="#EF6BD1"/>
<path fill-rule="evenodd" clip-rule="evenodd" d="M8.48958 7.89097C7.60124 8.91149 6.80318 9.98781 6.09549 11.12C5.68541 11.0743 5.39522 10.8591 5.22488 10.4742C5.06147 10.6627 4.95264 10.8779 4.89841 11.12C4.74163 10.7728 4.77791 10.4499 5.00723 10.1513C4.24354 10.1557 3.5543 9.97637 2.93955 9.61311C2.87259 9.78707 2.76377 9.93049 2.61307 10.0436C1.94654 9.5893 1.80143 9.01535 2.17777 8.32153C3.39953 5.89331 5.21331 4.02767 7.61905 2.72464C8.23384 2.35848 8.88679 2.1791 9.57784 2.18649C9.06881 2.4755 8.561 2.76253 8.05435 3.04754C8.50196 3.11323 8.93726 3.11323 9.36018 3.04754C9.15478 3.63287 9.08227 4.24279 9.14253 4.87728C8.92488 4.87728 8.70723 4.87728 8.48958 4.87728C8.48958 5.45132 8.48958 6.02534 8.48958 6.59939C8.71866 6.5672 8.93631 6.60308 9.14253 6.70702C8.96052 6.92472 8.88788 7.17585 8.92488 7.46044C8.38225 7.38094 8.23711 7.52444 8.48958 7.89097Z" fill="#E455F0"/>
<path fill-rule="evenodd" clip-rule="evenodd" d="M19.1558 0.357363C20.5364 0.453787 21.8423 0.812564 23.0735 1.43368C23.0896 1.84503 23.3072 2.09618 23.7265 2.1871C23.5088 2.25885 23.2912 2.33063 23.0735 2.40236C23.341 2.73156 23.6675 2.9827 24.053 3.15579C24.1981 4.30385 24.1981 5.45195 24.053 6.6C23.6734 6.84739 23.637 7.13439 23.9441 7.46105C23.9078 7.5328 23.8716 7.60458 23.8353 7.67632C23.6577 7.39158 23.4037 7.24808 23.0735 7.24579C21.8442 6.24326 20.4657 5.52569 18.9382 5.09316C19.155 5.11163 19.3362 5.03987 19.4823 4.87789C19.5283 3.64698 19.6371 2.42717 19.8088 1.21842C19.6133 0.912379 19.3956 0.625352 19.1558 0.357363Z" fill="#F576C0"/>
<path fill-rule="evenodd" clip-rule="evenodd" d="M23.0723 1.43211C26.442 3.04249 28.8361 5.5539 30.2548 8.96638C30.6651 9.8464 30.8827 10.7792 30.9078 11.7648C30.717 11.7929 30.5719 11.7212 30.4725 11.5495C30.2695 11.0554 30.0883 10.5531 29.9283 10.0427C29.8886 10.6296 29.7798 11.2035 29.6019 11.7648C29.3945 11.4321 29.3222 11.0733 29.3842 10.6885C28.7312 10.6885 28.0783 10.6885 27.4253 10.6885C27.4577 10.9149 27.4215 11.1302 27.3165 11.3343C27.1156 10.8124 26.7891 10.3819 26.3371 10.0427C26.1706 10.282 25.9529 10.4255 25.6841 10.4732C25.4179 9.876 25.0914 9.30205 24.7047 8.75112C24.1176 8.27754 23.5735 7.77527 23.0723 7.24422C23.4025 7.2465 23.6564 7.38999 23.8341 7.67474C23.8704 7.60299 23.9065 7.53123 23.9429 7.45948C23.6358 7.13282 23.6721 6.8458 24.0518 6.59843C24.1969 5.45036 24.1969 4.30228 24.0518 3.15421C23.6662 2.98113 23.3398 2.72997 23.0723 2.40079C23.29 2.32904 23.5076 2.25728 23.7253 2.18553C23.306 2.09461 23.0884 1.84346 23.0723 1.43211Z" fill="#F67EB5"/>
<path fill-rule="evenodd" clip-rule="evenodd" d="M15.2374 4.87733C16.491 4.81583 17.7241 4.88757 18.9375 5.09259C20.465 5.52512 21.8437 6.24268 23.0729 7.24523C21.6608 6.85248 20.2099 6.70898 18.7198 6.8147C18.1292 6.76088 17.5487 6.725 16.9786 6.70707C17.4991 6.98875 17.4991 7.20402 16.9786 7.35286C16.5433 7.49637 16.108 7.49637 15.6727 7.35286C15.963 7.28111 16.2533 7.20935 16.5433 7.1376C16.8335 6.99408 16.8335 6.85058 16.5433 6.70707C16.1158 6.57274 15.7531 6.68038 15.4551 7.02996C14.8741 6.61629 14.2211 6.36514 13.4962 6.27654C14.0497 6.24647 14.5577 6.10297 15.0198 5.84601C14.4542 5.68048 13.91 5.71636 13.3874 5.95365C13.2967 5.68328 13.1153 5.53978 12.8433 5.52312C13.5614 5.09615 14.3595 4.88088 15.2374 4.87733Z" fill="#D58244"/>
<path fill-rule="evenodd" clip-rule="evenodd" d="M12.8437 5.52288C13.1156 5.53953 13.2971 5.68303 13.3878 5.9534C13.9103 5.71612 14.4544 5.68024 15.0202 5.84577C14.558 6.10273 14.0501 6.24623 13.4966 6.2763C14.2214 6.36491 14.8744 6.61605 15.4555 7.02972C15.7534 6.68013 16.1161 6.5725 16.5437 6.70683C16.8338 6.85034 16.8338 6.99384 16.5437 7.13735C16.2536 7.2091 15.9633 7.28087 15.6731 7.35262C16.1084 7.49613 16.5437 7.49613 16.9791 7.35262C17.4994 7.20379 17.4994 6.98853 16.9791 6.70683C17.549 6.72476 18.1295 6.76064 18.7203 6.81446C16.7822 7.51101 15.4038 8.80264 14.5849 10.6892C14.1413 10.1284 13.8875 9.48261 13.8231 8.75179C13.2435 9.22819 12.6268 9.22819 11.9731 8.75179C11.7881 8.23435 11.5704 7.73209 11.3201 7.24498C11.1047 7.69441 11.1773 8.12497 11.5378 8.53653C11.4651 8.60837 11.3926 8.68008 11.3201 8.75179C11.0973 8.46051 10.807 8.31709 10.4495 8.32126C10.7163 7.43442 11.1516 6.64511 11.7554 5.9534C12.034 5.6453 12.3968 5.50181 12.8437 5.52288Z" fill="#ECAB63"/>
<path fill-rule="evenodd" clip-rule="evenodd" d="M14.5839 10.6889C14.5559 11.0583 14.4834 11.417 14.3663 11.7652C14.0948 11.9447 13.9496 12.2317 13.931 12.6263C14.0493 13.0942 14.0493 13.5247 13.931 13.9178C13.7716 13.127 13.6266 12.3377 13.4957 11.5499C12.186 11.3885 10.8801 11.2449 9.57797 11.1194C9.69033 10.1141 9.98049 9.18137 10.4486 8.32099C10.8062 8.31669 11.0964 8.46024 11.3192 8.75152C11.3918 8.67967 11.4643 8.60796 11.5368 8.53626C11.1765 8.12456 11.1038 7.69406 11.3192 7.24465C11.5695 7.73174 11.7871 8.23408 11.9721 8.75152C12.626 9.22779 13.2427 9.22779 13.8222 8.75152C13.8865 9.4822 14.1405 10.128 14.5839 10.6889Z" fill="#F2BE6C"/>
<path fill-rule="evenodd" clip-rule="evenodd" d="M2.17988 8.32207C1.80354 9.01575 1.94866 9.58983 2.61519 10.0442C2.76588 9.93103 2.87471 9.78761 2.94166 9.61365C3.55642 9.9769 4.24565 10.1562 5.00935 10.1518C4.78002 10.4505 4.74374 10.7734 4.90052 11.1205C4.95476 10.8785 5.06358 10.6632 5.227 10.4747C5.39734 10.8596 5.68752 11.0749 6.0976 11.1205C5.59748 12.1738 5.23475 13.2501 5.00935 14.3494C4.79428 15.4559 4.72175 16.6041 4.7917 17.7937C3.63089 17.7937 2.47008 17.7937 1.30928 17.7937C1.34338 18.0891 1.3071 18.3763 1.20045 18.6547C0.982804 16.3584 0.765153 16.3584 0.547502 18.6547C0.438745 16.9341 0.402465 15.212 0.438677 13.4884C0.511223 12.9143 0.583782 12.3402 0.656327 11.7663C0.916094 10.4871 1.42394 9.33892 2.17988 8.32207Z" fill="#D55DF0"/>
<path fill-rule="evenodd" clip-rule="evenodd" d="M30.9102 11.7653C30.9102 12.124 30.9102 12.4828 30.9102 12.8417C29.7496 12.8417 28.5886 12.8417 27.4278 12.8417C27.4626 12.4758 27.4266 12.117 27.319 11.7653C27.2794 12.3522 27.1706 12.9262 26.9925 13.4875C26.8291 13.2988 26.7203 13.0836 26.666 12.8417C26.6119 13.0836 26.503 13.2988 26.3395 13.4875C26.1943 12.8835 26.0492 12.3094 25.9042 11.7653C25.8319 11.3348 25.7591 10.9043 25.6866 10.4738C25.9554 10.426 26.173 10.2826 26.3395 10.0432C26.7917 10.3824 27.1182 10.8129 27.319 11.3348C27.4241 11.1307 27.4603 10.9155 27.4278 10.689C28.0807 10.689 28.7337 10.689 29.3867 10.689C29.3246 11.0738 29.3971 11.4326 29.6043 11.7653C29.7824 11.204 29.8912 10.6301 29.9308 10.0432C30.0908 10.5537 30.2721 11.0559 30.4749 11.5501C30.5745 11.7218 30.7196 11.7935 30.9102 11.7653Z" fill="#F787AC"/>
<path fill-rule="evenodd" clip-rule="evenodd" d="M0.655807 11.767C0.583261 12.341 0.510702 12.915 0.438156 13.4891C0.36561 13.4891 0.293051 13.4891 0.220505 13.4891C0.175629 12.8443 0.320733 12.2703 0.655807 11.767Z" fill="#602871"/>
<path fill-rule="evenodd" clip-rule="evenodd" d="M25.9029 11.767C26.0477 12.311 26.1927 12.8851 26.3382 13.4891C26.5015 13.3004 26.6104 13.0852 26.6646 12.8433C26.7188 13.0852 26.8276 13.3004 26.9911 13.4891C27.1692 12.9279 27.278 12.3538 27.3176 11.767C27.4251 12.1188 27.4612 12.4775 27.4264 12.8433C28.5872 12.8433 29.7481 12.8433 30.9088 12.8433C30.9088 13.0585 30.9088 13.2738 30.9088 13.4891C30.7961 14.2379 30.5784 14.9554 30.2559 15.6417C30.0846 13.4011 29.7581 13.4011 29.2765 15.6417C28.551 15.3547 27.8254 15.0676 27.0999 14.7806C26.5921 15.0676 26.0842 15.3547 25.5764 15.6417C25.4753 15.5138 25.439 15.3702 25.4676 15.2112C25.7538 14.0824 25.8989 12.9342 25.9029 11.767Z" fill="#F38FA0"/>
<path fill-rule="evenodd" clip-rule="evenodd" d="M30.2565 8.96867C30.4733 8.95023 30.6546 9.02194 30.8006 9.18393C31.2246 10.5997 31.5511 12.0348 31.78 13.4892C31.8142 13.7848 31.7779 14.0719 31.6712 14.3503C31.3625 13.8118 31.1449 13.8835 31.0182 14.5655C30.9108 14.2137 30.8746 13.855 30.9094 13.4892C30.9094 13.2739 30.9094 13.0587 30.9094 12.8434C30.9094 12.4846 30.9094 12.1259 30.9094 11.7671C30.8844 10.7815 30.6667 9.84869 30.2565 8.96867Z" fill="#2B1575"/>
<path fill-rule="evenodd" clip-rule="evenodd" d="M9.57877 11.1205C10.8809 11.2462 12.1868 11.3897 13.4965 11.551C13.6273 12.3388 13.7724 13.1281 13.9318 13.9189C14.0501 13.5259 14.0501 13.0954 13.9318 12.6273C13.9504 12.2329 14.0956 11.9459 14.3671 11.7663C14.3762 13.8067 15.1017 15.5288 16.5436 16.9326C16.5436 17.2196 16.5436 17.5068 16.5436 17.7937C18.2848 18.0806 18.2848 18.3679 16.5436 18.6547C16.57 19.4151 16.2798 20.0251 15.673 20.4845C15.8181 20.5562 15.9633 20.6281 16.1083 20.6997C15.8602 20.8593 15.8602 21.0388 16.1083 21.2379C15.784 21.3981 15.4575 21.5414 15.1289 21.6684C14.9006 21.3225 14.5741 21.1792 14.1494 21.2379C10.7436 18.7516 9.22005 15.3792 9.57877 11.1205Z" fill="#F4CC5F"/>
<path fill-rule="evenodd" clip-rule="evenodd" d="M30.2556 15.6416C30.2349 16.1337 30.0898 16.5642 29.8203 16.9331C29.6284 16.5922 29.447 16.2334 29.2762 15.8568C29.1947 16.3731 29.1947 16.8753 29.2762 17.3637C27.9467 17.0558 26.532 16.8406 25.032 16.7179C24.69 16.8921 24.3272 16.964 23.9437 16.9331C24.4578 16.3537 24.9657 15.7797 25.4673 15.211C25.4387 15.3702 25.475 15.5136 25.5761 15.6416C26.0839 15.3546 26.5919 15.0676 27.0997 14.7805C27.8251 15.0676 28.5507 15.3546 29.2762 15.6416C29.7579 13.4009 30.0843 13.4009 30.2556 15.6416Z" fill="#F59797"/>
<path fill-rule="evenodd" clip-rule="evenodd" d="M0.220515 13.4881C0.29306 13.4881 0.36562 13.4881 0.438165 13.4881C0.40194 15.2117 0.438233 16.9338 0.546991 18.6544C0.764642 16.3583 0.982293 16.3583 1.19994 18.6544C1.30659 18.3761 1.34287 18.089 1.30877 17.7934C2.46957 17.7934 3.63038 17.7934 4.79118 17.7934C4.72122 16.6038 4.79377 15.4558 5.00884 14.3492C5.00884 15.4255 5.00884 16.5018 5.00884 17.5781C4.96698 18.4685 5.11207 19.3296 5.44414 20.1613C5.34164 20.5372 5.19653 20.896 5.00884 21.2376C5.04799 21.4644 5.12056 21.6797 5.22649 21.8834C5.15394 21.9551 5.08138 22.0269 5.00884 22.0987C4.80671 21.8428 4.73416 21.5558 4.79118 21.2376C3.55782 21.2376 2.32448 21.2376 1.09112 21.2376C1.16581 20.8107 1.02071 20.5236 0.655816 20.3766C0.411911 19.8483 0.230527 19.2741 0.111689 18.6544C-0.0673966 16.8943 -0.031117 15.172 0.220515 13.4881Z" fill="#BB64E8"/>
<path fill-rule="evenodd" clip-rule="evenodd" d="M29.82 16.9321C29.548 17.4846 29.294 18.0584 29.0583 18.6542C28.3834 19.406 27.6941 20.1235 26.9906 20.8068C26.4961 21.0093 26.0608 21.2963 25.6847 21.6679C24.5521 22.1918 23.3912 22.6581 22.2023 23.0671C20.857 23.2433 19.5511 23.2075 18.2845 22.9594C19.4294 22.9455 20.5176 22.6941 21.5493 22.206C21.2917 21.952 21.1465 21.6291 21.114 21.2373C21.2666 20.31 21.3391 19.3772 21.3317 18.4389C20.8452 18.5024 20.4099 18.4304 20.0258 18.2236C21.4971 18.2647 22.803 17.8342 23.9435 16.9321C24.3271 16.9627 24.6899 16.8909 25.0317 16.7168C26.5319 16.8395 27.9466 17.0548 29.2759 17.3626C29.1946 16.8741 29.1946 16.3718 29.2759 15.8558C29.4468 16.2322 29.6281 16.591 29.82 16.9321Z" fill="#F3A08B"/>
<path fill-rule="evenodd" clip-rule="evenodd" d="M16.5447 16.933C17.0224 17.3473 17.5301 17.7061 18.0683 18.0093C18.1968 18.1495 18.3418 18.2931 18.5036 18.4399C17.9407 19.6628 17.6505 20.9544 17.633 22.3146C16.9761 22.2707 16.3231 22.199 15.6741 22.0993C15.0579 21.9747 14.5501 21.6878 14.1505 21.2383C14.5751 21.1796 14.9016 21.3229 15.13 21.6688C15.4585 21.5418 15.785 21.3985 16.1094 21.2383C15.8611 21.0392 15.8611 20.8597 16.1094 20.7001C15.9643 20.6285 15.8191 20.5566 15.6741 20.4849C16.2808 20.0255 16.571 19.4155 16.5447 18.6551C18.2859 18.3683 18.2859 18.081 16.5447 17.7941C16.5447 17.5072 16.5447 17.22 16.5447 16.933Z" fill="#F3BD6C"/>
<path fill-rule="evenodd" clip-rule="evenodd" d="M30.9088 13.4881C30.874 13.8539 30.9102 14.2126 31.0177 14.5644C31.1443 13.8826 31.362 13.8107 31.6706 14.3492C31.7773 14.0708 31.8136 13.7837 31.7794 13.4881C32.0311 15.172 32.0674 16.8943 31.8883 18.6544C31.8472 19.5729 31.6656 20.434 31.3441 21.2376C31.3441 20.8071 31.3441 20.3765 31.3441 19.946C30.706 19.8995 30.1257 20.0432 29.6029 20.3766C29.0238 20.3036 28.4433 20.2319 27.8617 20.1613C27.669 20.3389 27.5965 20.5541 27.6441 20.8071C27.4264 20.8071 27.2088 20.8071 26.9911 20.8071C27.6945 20.1239 28.3839 19.4064 29.0588 18.6544C29.2945 18.0588 29.5485 17.4849 29.8206 16.9323C30.0901 16.5634 30.2352 16.1328 30.2559 15.6408C30.5784 14.9545 30.7961 14.237 30.9088 13.4881Z" fill="#6243AD"/>
<path fill-rule="evenodd" clip-rule="evenodd" d="M18.067 18.0078C18.7102 18.1496 19.3632 18.2214 20.0259 18.2231C20.4101 18.4299 20.8454 18.5019 21.3318 18.4384C21.3392 19.3766 21.2668 20.3094 21.1142 21.2368C21.1465 21.6286 21.2918 21.9515 21.5495 22.2055C20.5178 22.6937 19.4295 22.9449 18.2847 22.9589C17.3523 22.795 16.4817 22.5079 15.6729 22.0978C16.3219 22.1975 16.9748 22.2691 17.6317 22.3131C17.6494 20.9528 17.9394 19.6612 18.5023 18.4384C18.3406 18.2916 18.1957 18.1479 18.067 18.0078Z" fill="#F3B17B"/>
<path fill-rule="evenodd" clip-rule="evenodd" d="M31.3448 21.2367C31.0466 22.0824 30.7202 22.9434 30.3654 23.8198C30.1371 24.2758 29.8107 24.6343 29.386 24.8961C29.3618 24.7633 29.2894 24.6557 29.1683 24.5732C28.5924 24.4663 28.0119 24.4304 27.4271 24.4656C27.4891 24.0807 27.4166 23.7219 27.2095 23.3893C26.7485 23.7006 26.2406 23.8442 25.6859 23.8198C25.72 24.1154 25.6837 24.4025 25.5771 24.6809C25.3827 24.4201 25.2014 24.4201 25.033 24.6809C25.5534 24.9626 25.5534 25.1779 25.033 25.3267C24.3346 25.6707 23.7543 25.5273 23.2917 24.8961C22.9979 25.2083 22.6353 25.3518 22.2035 25.3267C23.7371 24.4557 24.8977 23.2358 25.6859 21.6672C26.062 21.2956 26.4973 21.0087 26.9918 20.8061C27.2095 20.8061 27.4271 20.8061 27.6448 20.8061C27.5972 20.5532 27.6695 20.3379 27.8624 20.1603C28.444 20.231 29.0244 20.3027 29.6036 20.3756C30.1264 20.0422 30.7067 19.8985 31.3448 19.9451C31.3448 20.3756 31.3448 20.8061 31.3448 21.2367Z" fill="#8160CE"/>
<path fill-rule="evenodd" clip-rule="evenodd" d="M5.00927 17.5769C5.31976 18.4672 5.57369 19.3999 5.77105 20.3753C6.80044 22.4828 8.2877 24.2049 10.2328 25.5417C10.0344 25.8081 9.99803 26.0953 10.124 26.4027C10.4491 26.1342 10.7756 26.1342 11.1034 26.4027C10.8133 26.5463 10.5231 26.6896 10.2328 26.8332C10.1036 27.5501 9.95858 28.2677 9.79752 28.9859C9.37446 29.1341 8.93916 29.2418 8.49162 29.3088C8.73307 29.6989 8.58793 29.8783 8.05631 29.8469C4.3828 27.6445 1.9161 24.4873 0.65625 20.3753C1.02114 20.5223 1.16625 20.8095 1.09155 21.2364C2.32491 21.2364 3.55824 21.2364 4.79162 21.2364C4.73459 21.5544 4.80713 21.8414 5.00927 22.0974C5.0818 22.0257 5.15437 21.9538 5.22692 21.8822C5.12098 21.6785 5.04842 21.4632 5.00927 21.2364C5.19697 20.8947 5.34207 20.5358 5.44457 20.1601C5.11249 19.3282 4.96741 18.4672 5.00927 17.5769Z" fill="#B06EEC"/>
<path fill-rule="evenodd" clip-rule="evenodd" d="M29.3864 24.8963C26.9582 28.8291 23.4032 31.1611 18.7215 31.8923C16.9803 32.0359 15.2391 32.0359 13.4979 31.8923C12.8543 31.8322 12.274 31.6527 11.7567 31.3542C12.2022 31.3565 12.6375 31.4282 13.0626 31.5694C14.3229 31.1085 15.6288 30.8932 16.9803 30.9236C16.9803 29.7038 16.9803 28.484 16.9803 27.2642C17.951 26.9464 18.9666 26.6955 20.0274 26.5107C20.8645 26.2769 21.5901 25.8823 22.2039 25.3268C22.6357 25.352 22.9983 25.2084 23.2922 24.8963C23.7547 25.5274 24.335 25.6708 25.0334 25.3268C25.5538 25.178 25.5538 24.9627 25.0334 24.681C25.2018 24.4203 25.3831 24.4203 25.5775 24.681C25.6841 24.4026 25.7205 24.1155 25.6863 23.82C26.241 23.8443 26.7489 23.7006 27.2099 23.3894C27.417 23.722 27.4895 24.0808 27.4275 24.4657C28.0123 24.4304 28.5928 24.4664 29.1687 24.5734C29.2898 24.6559 29.3622 24.7635 29.3864 24.8963Z" fill="#916DDC"/>
<path fill-rule="evenodd" clip-rule="evenodd" d="M10.2321 25.5441C12.2923 26.8209 14.5414 27.3949 16.9793 27.2662C16.9793 28.4862 16.9793 29.7058 16.9793 30.9257C15.6278 30.8954 14.3219 31.1107 13.0616 31.5715C12.6365 31.4303 12.2012 31.3586 11.7557 31.3562C11.3858 31.3906 11.0232 31.355 10.6674 31.2486C9.70488 30.908 8.83428 30.4416 8.05563 29.8494C8.58725 29.8808 8.73239 29.7015 8.49093 29.3112C8.93848 29.2443 9.37378 29.1367 9.79684 28.9883C9.95777 28.2703 10.1029 27.5525 10.2321 26.8357C10.5223 26.6921 10.8126 26.5488 11.1027 26.4051C10.7749 26.1367 10.4484 26.1367 10.1233 26.4051C9.99722 26.0978 10.0335 25.8106 10.2321 25.5441Z" fill="#A46EE6"/>
</svg>
