<svg width="32" height="32" viewBox="0 0 32 32" fill="none" xmlns="http://www.w3.org/2000/svg">
<path fill-rule="evenodd" clip-rule="evenodd" d="M14.1429 0C15.0953 0 16.0476 0 17 0C25.4341 1.14828 30.4341 5.91019 32 14.2857C32 15.381 32 16.4761 32 17.5714C30.9097 24.5437 27.005 29.139 20.2857 31.3571C19.2684 31.5841 18.2684 31.7984 17.2857 32C16.381 32 15.4761 32 14.5714 32C7.34691 30.8949 2.65644 26.8473 0.5 19.8571C0.270466 18.7983 0.103799 17.7507 0 16.7143C0 15.9047 0 15.0953 0 14.2857C1.45861 6.30329 6.1729 1.54137 14.1429 0Z" fill="#42B670"/>
<path fill-rule="evenodd" clip-rule="evenodd" d="M7.00403 8C12.8495 8.44051 16.3495 11.5358 17.504 17.2857C17.5752 17.7117 17.599 18.1403 17.5755 18.5714C13.2025 18.4091 9.98816 16.4091 7.9326 12.5714C7.26999 11.1196 6.96046 9.59576 7.00403 8Z" fill="white"/>
<path fill-rule="evenodd" clip-rule="evenodd" d="M22 8C24.0991 10.0097 25.1943 12.4859 25.2857 15.4286C24.9917 20.6647 22.3727 24.1171 17.4286 25.7857C13.4461 26.7783 9.96991 25.8736 7 23.0714C9.95904 20.2449 13.4353 19.34 17.4286 20.3571C18.9664 20.7804 20.3236 21.5186 21.5 22.5714C20.8979 21.6244 20.3264 20.6244 19.7857 19.5714C18.2797 15.2689 19.0177 11.4118 22 8Z" fill="white"/>
</svg>
