<svg width="32" height="32" viewBox="0 0 33 33" fill="none" xmlns="http://www.w3.org/2000/svg">
    <path opacity="0.713" fill-rule="evenodd" clip-rule="evenodd"
        d="M28.2895 20.392C26.9558 22.9223 25.2716 25.2285 23.2369 27.3109C19.4713 28.7948 15.5415 29.3714 11.4474 29.0407C11.1597 28.3157 10.5982 28.0274 9.76321 28.1758C9.47546 27.4509 8.91405 27.1625 8.079 27.3109C8.079 26.7343 7.7983 26.4461 7.23689 26.4461C7.23689 25.8695 6.95619 25.5812 6.39479 25.5812C6.39479 25.0046 6.11409 24.7163 5.55268 24.7163C4.63378 22.3189 3.79167 19.8684 3.02637 17.365C3.30707 16.9326 3.58777 16.5001 3.86847 16.0677C5.71911 24.9375 10.7717 28.397 19.0264 26.4461C19.8614 26.5945 20.4228 26.3061 20.7106 25.5812C21.9964 25.6443 22.8385 25.0677 23.2369 23.8515C23.9427 23.556 24.2235 22.9794 24.079 22.1218C25.3846 20.5648 26.2267 18.691 26.6053 16.5001C26.101 15.0969 25.5395 13.7996 24.9211 12.6082C25.0656 11.7506 24.7849 11.174 24.079 10.8785C24.079 10.3019 23.7983 10.0136 23.2369 10.0136C23.2369 8.86049 22.6755 8.28392 21.5527 8.28392C20.8899 6.89648 19.7672 6.3199 18.1843 6.55419C17.2852 5.74599 16.1624 5.4577 14.8158 5.68932C14.8158 4.82446 14.8158 3.95959 14.8158 3.09473C25.1622 3.92829 29.6535 9.69408 28.2895 20.392ZM20.7106 25.5812C21.9964 25.6443 22.8385 25.0677 23.2369 23.8515C21.9511 23.7883 21.109 24.365 20.7106 25.5812Z"
        fill="#683794" />
    <path opacity="0.747" fill-rule="evenodd" clip-rule="evenodd"
        d="M18.1843 6.5539C19.0379 7.56902 20.1607 8.1456 21.5527 8.28363C21.8334 9.1485 22.3948 9.7251 23.2369 10.0134C23.7983 10.0134 24.079 10.3016 24.079 10.8782C23.9345 11.7358 24.2153 12.3124 24.9211 12.608C25.0704 15.8376 24.7897 19.0087 24.079 22.1215C23.3732 22.417 23.0924 22.9936 23.2369 23.8512C21.9511 23.7881 21.109 24.3647 20.7106 25.5809C19.8756 25.4325 19.3141 25.7209 19.0264 26.4458C15.1186 27.1066 11.7502 26.0976 8.92111 23.4188C10.8964 24.095 13.0017 24.8157 15.2369 25.5809C22.5841 24.0386 24.8297 19.7143 21.9737 12.608C17.2279 7.84315 12.7366 8.13144 8.50006 13.4728C6.29969 12.1599 6.44004 10.5743 8.92111 8.71607C11.7594 6.91909 14.8471 6.19838 18.1843 6.5539Z"
        fill="#39B994" />
    <path opacity="0.74" fill-rule="evenodd" clip-rule="evenodd"
        d="M13.9737 0.5C14.8158 0.5 15.6579 0.5 16.5 0.5C11.0509 1.80926 6.70002 4.98043 3.44737 10.0135C1.33581 15.4593 2.03756 20.3602 5.55263 24.7162C6.11404 24.7162 6.39474 25.0045 6.39474 25.5811C6.95614 25.5811 7.23684 25.8693 7.23684 26.4459C7.79825 26.4459 8.07895 26.7342 8.07895 27.3108C8.3667 28.0357 8.92811 28.3241 9.76316 28.1757C10.0509 28.9006 10.6123 29.189 11.4474 29.0405C14.3218 31.0857 17.4095 31.2299 20.7105 29.473C21.9251 29.1471 22.7672 28.4264 23.2368 27.3108C26.4917 26.2676 28.1759 23.9613 28.2895 20.3919C29.0904 19.1649 29.3712 17.7235 29.1316 16.0676C30.376 15.841 31.4989 16.1292 32.5 16.9324C31.3534 24.441 27.4235 29.6302 20.7105 32.5C17.9035 32.5 15.0965 32.5 12.2895 32.5C6.39474 30.482 2.46491 26.4459 0.5 20.3919C0.5 18.0856 0.5 15.7793 0.5 13.473C2.55649 6.45941 7.04771 2.13509 13.9737 0.5ZM23.2368 27.3108C26.4917 26.2676 28.1759 23.9613 28.2895 20.3919C26.9557 22.9221 25.2715 25.2284 23.2368 27.3108ZM23.2368 23.8514C22.8384 25.0676 21.9963 25.6442 20.7105 25.5811C21.1089 24.3648 21.951 23.7882 23.2368 23.8514ZM23.2368 27.3108C22.7672 28.4264 21.9251 29.1471 20.7105 29.473C17.4095 31.2299 14.3218 31.0857 11.4474 29.0405C15.5414 29.3713 19.4713 28.7947 23.2368 27.3108Z"
        fill="#3AB994" />
</svg>