<svg width="32" height="32" viewBox="0 0 32 32" fill="none" xmlns="http://www.w3.org/2000/svg">
<path fill-rule="evenodd" clip-rule="evenodd" d="M13.7561 0.0718488C20.4855 -0.465674 25.7555 2.01283 29.5666 7.50741C32.2476 12.1303 32.6703 16.9465 30.8348 21.956C32.7145 24.983 32.32 27.6868 29.6511 30.0676C27.5758 31.3936 25.4621 31.4781 23.31 30.3211C16.0709 33.4154 9.64524 32.2325 4.03312 26.7723C-0.0966604 21.7016 -1.05488 16.0686 1.15849 9.87327C3.67827 4.43365 7.87748 1.1665 13.7561 0.0718488Z" fill="#7E67EE"/>
<path fill-rule="evenodd" clip-rule="evenodd" d="M13.6312 3.05016C21.0569 2.54807 25.9324 5.81521 28.258 12.8516C28.8534 15.2894 28.7971 17.7117 28.0889 20.1181C25.4446 19.6664 23.2463 20.4551 21.4942 22.484C20.4221 24.4446 20.2812 26.4725 21.0714 28.5676C14.3395 30.897 8.95667 29.1508 4.92277 23.329C2.05658 17.9282 2.39477 12.7459 5.93734 7.78188C8.01775 5.388 10.5824 3.81077 13.6312 3.05016Z" fill="#FEFEFE"/>
<ellipse cx="26.1567" cy="24.9533" rx="3.56687" ry="3.56463" fill="white"/>
</svg>
