<svg width="32" height="32" viewBox="0 0 32 32" fill="none" xmlns="http://www.w3.org/2000/svg">
<path d="M2.66594 13.334L0 16L2.66594 18.6661L5.33189 16L2.66594 13.334Z" fill="#5555FF"/>
<path d="M5.99993 10L3.33398 12.666L5.99993 15.3321L8.66587 12.666L5.99993 10Z" fill="#5555FF"/>
<path d="M9.33193 6.66602L6.66602 9.33204L9.33193 11.9981L11.9979 9.33204L9.33193 6.66602Z" fill="#5555FF"/>
<path d="M16 0L13.334 2.66605L16 5.33208L18.6659 2.66604L16 0Z" fill="#5555FF"/>
<path d="M12.6659 3.33398L10 6.00002L12.6659 8.66606L15.3319 6.00002L12.6659 3.33398Z" fill="#5555FF"/>
<path d="M26.668 16.0019L29.3339 18.668L31.9999 16.0019L29.3339 13.3359L26.668 16.0019Z" fill="#5555FF"/>
<path d="M23.334 12.668L25.9999 15.334L28.6659 12.668L25.9999 10.002L23.334 12.668Z" fill="#5555FF"/>
<path d="M20.002 9.33398L22.6679 12.0001L25.3339 9.33398L22.6679 6.66797L20.002 9.33398Z" fill="#5555FF"/>
<path d="M16.668 6.00198L19.3339 8.66802L21.9999 6.00198L19.3339 3.33594L16.668 6.00198Z" fill="#5555FF"/>
<path d="M16.0003 6.93359L13.4668 9.46721L16.0003 12.0008L18.5338 9.46721L16.0003 6.93359Z" fill="#5555FF"/>
<path d="M12.6686 10.5293L10.2676 12.9304L12.6686 15.3316L15.0697 12.9304L12.6686 10.5293Z" fill="#5555FF"/>
<path d="M19.3347 10.5293L16.9336 12.9304L19.3347 15.3316L21.7358 12.9304L19.3347 10.5293Z" fill="#5555FF"/>
<path d="M9.33453 14.1328L7.06836 16.399L9.33453 18.6653L11.6007 16.399L9.33453 14.1328Z" fill="#5555FF"/>
<path d="M16.0006 14.1328L13.7344 16.3991L16.0006 18.6654L18.2668 16.3991L16.0006 14.1328Z" fill="#5555FF"/>
<path d="M22.6665 14.1328L20.4004 16.3991L22.6665 18.6654L24.9327 16.3991L22.6665 14.1328Z" fill="#5555FF"/>
<path d="M6.00092 17.7324L3.86719 19.8662L6.00092 22L8.13466 19.8662L6.00092 17.7324Z" fill="#5555FF"/>
<path d="M12.6689 17.7344L10.5352 19.8682L12.6689 22.002L14.8026 19.8682L12.6689 17.7344Z" fill="#5555FF"/>
<path d="M19.3349 17.7344L17.2012 19.8682L19.3349 22.002L21.4686 19.8682L19.3349 17.7344Z" fill="#5555FF"/>
<path d="M26.0029 17.7344L23.8691 19.8682L26.0029 22.002L28.1366 19.8682L26.0029 17.7344Z" fill="#5555FF"/>
<path d="M9.33317 21.5996L7.4668 23.4661L9.33317 25.3326L11.1996 23.4661L9.33317 21.5996Z" fill="#5555FF"/>
<path d="M15.9992 21.6016L14.1328 23.468L15.9992 25.3345L17.8656 23.468L15.9992 21.6016Z" fill="#5555FF"/>
<path d="M22.6652 21.6016L20.7988 23.468L22.6652 25.3345L24.5316 23.468L22.6652 21.6016Z" fill="#5555FF"/>
<path d="M12.6655 25.4648L11.0664 27.0639L12.6655 28.663L14.2646 27.0639L12.6655 25.4648Z" fill="#5555FF"/>
<path d="M19.3335 25.4648L17.7344 27.064L19.3335 28.6631L20.9325 27.064L19.3335 25.4648Z" fill="#5555FF"/>
<path d="M16.0002 29.332L14.666 30.6662L16.0002 32.0005L17.3344 30.6662L16.0002 29.332Z" fill="#5555FF"/>
</svg>
