<svg width="32" height="32" viewBox="0 0 32 32" fill="none" xmlns="http://www.w3.org/2000/svg">
<path d="M14.9531 13.8853C14.8143 13.7066 13.3926 11.9512 13.3926 11.9512V23.076C13.3926 23.9851 14.1298 24.7224 15.0457 24.7224C15.9616 24.7224 16.6989 23.9851 16.6989 23.076L16.6758 15.7432C16.1665 15.287 15.6839 14.7778 14.9531 13.8853Z" fill="url(#paint0_linear_90_326)"/>
<path d="M30.0239 20.44C29.4553 20.44 28.9196 20.3176 28.4369 20.0928C28.4005 20.44 28.5427 21.5442 26.7969 22.8203C26.6679 22.9096 19.6782 27.3396 18.2134 28.0769C16.3222 29.0356 14.2094 28.7413 12.9662 28.1033C12.4835 27.9017 6.35345 24.2584 6.10547 24.0798C5.64919 23.7558 4.89863 23.1277 4.66058 22.3178C4.44236 21.6169 4.45228 20.5226 4.45228 20.5226V11.2657C4.45228 9.83414 4.87549 7.26536 7.48424 6.12147C10.2881 5.08668 11.8123 6.70994 13.2705 8.48859C13.3828 8.62745 16.2263 12.3831 17.4795 13.4972C19.0963 14.9387 20.7297 15.6759 22.697 15.6759C27.9905 15.6759 30.0041 11.4905 30.0041 8.40264C30.0007 4.39572 26.7209 1.14258 22.6937 1.14258C20.194 1.14258 17.8961 2.4088 16.5669 4.47506C16.8116 4.75608 17.4365 5.52638 17.5324 5.63878C17.5588 5.66523 18.6102 7.02402 18.6665 7.10336C18.8483 6.88186 20.3594 4.47837 22.6903 4.47837C25.0775 4.47837 26.6283 6.33636 26.6283 8.40264C26.6283 10.5615 24.8725 12.3071 22.7564 12.3071C21.5034 12.3071 20.6933 11.8607 19.698 10.9714C18.7028 10.0821 16.2098 6.77606 16.2098 6.77606C15.9916 6.48513 14.269 4.40233 13.0357 3.58243C11.4949 2.54434 9.32921 1.9228 6.44273 2.88817C3.55625 3.85353 1.14258 6.97112 1.14258 11.2657L1.1558 20.5226C1.1558 20.8763 1.12935 22.0301 1.41701 23.1178C1.88652 24.9097 2.74288 25.9213 4.51841 27.0256C5.36484 27.5016 10.2418 30.4209 10.9956 30.8242C12.4273 31.5845 13.8491 31.9681 15.7569 31.9714C17.2282 31.9747 18.6598 31.6144 19.8733 30.9828C21.8274 29.9877 28.1756 25.9213 28.5757 25.67C30.4372 24.4138 31.9548 22.4334 31.7995 20.0035C31.2705 20.2779 30.6653 20.44 30.0239 20.44Z" fill="url(#paint1_linear_90_326)"/>
<path d="M30.0306 18.6533C31.102 18.6533 31.9714 17.7904 31.9714 16.7192C31.9714 15.6546 31.102 14.7852 30.0306 14.7852C28.9593 14.7852 28.0898 15.6481 28.0898 16.7192C28.0898 17.7904 28.9593 18.6533 30.0306 18.6533Z" fill="url(#paint2_linear_90_326)"/>
<defs>
<linearGradient id="paint0_linear_90_326" x1="3.67421" y1="28.3295" x2="29.7909" y2="4.31111" gradientUnits="userSpaceOnUse">
<stop stop-color="#A6009C"/>
<stop offset="1" stop-color="#FF009C"/>
</linearGradient>
<linearGradient id="paint1_linear_90_326" x1="3.80436" y1="37.0877" x2="21.6073" y2="6.249" gradientUnits="userSpaceOnUse">
<stop offset="0.00901231" stop-color="#A6009C"/>
<stop offset="1" stop-color="#FF009C"/>
</linearGradient>
<linearGradient id="paint2_linear_90_326" x1="9.6145" y1="35.4895" x2="36.7289" y2="10.5535" gradientUnits="userSpaceOnUse">
<stop stop-color="#A6009C"/>
<stop offset="1" stop-color="#FF009C"/>
</linearGradient>
</defs>
</svg>
