<svg width="32" height="32" viewBox="0 0 32 32" fill="none" xmlns="http://www.w3.org/2000/svg">
    <g clip-path="url(#clip0_544_45)">
        <path
            d="M0 16V32H16H32V16V1.01328e-06H16H0V16ZM17.5626 5.80187C19.6935 6.10841 21.7346 7.14766 23.2897 8.71028C25.1664 10.5794 26.1832 12.9047 26.2953 15.5514C26.415 18.5271 25.3682 21.2112 23.2897 23.2897C21.8766 24.7103 20.1869 25.6374 18.1682 26.1009C17.2262 26.3178 15.5813 26.3701 14.5196 26.2131C14.0561 26.1458 13.6299 26.071 13.5701 26.0486C13.4729 26.0112 13.4579 25.5925 13.4579 23.0206V20.0449L13.9514 20.4187C14.8935 21.129 15.6262 21.3832 16.7178 21.3832C18.0785 21.3832 19.0505 20.972 20 20.0075C20.6654 19.3421 21.1065 18.557 21.3533 17.6449C21.5402 16.9645 21.5402 15.3346 21.3533 14.6168C21.129 13.7421 20.6804 12.9196 20.0748 12.2766C19.185 11.3346 18.2355 10.8785 16.9944 10.7963C15.843 10.7215 14.9159 11.0056 13.9664 11.7234L13.4579 12.1047V11.5888V11.0654H12.2617H11.0654V18.0561C11.0654 21.8991 11.043 25.0467 11.0131 25.0467C10.9907 25.0467 10.6243 24.8224 10.2131 24.5458C8.85234 23.6411 7.51402 22.1308 6.76635 20.643C6.11589 19.3495 5.77196 17.9664 5.70467 16.4486C5.58505 13.4729 6.63178 10.7888 8.71028 8.71028C9.4729 7.94019 10.4523 7.22243 11.3645 6.76636C12.2766 6.3028 13.7121 5.86916 14.7664 5.73458C15.3421 5.65981 16.8449 5.6972 17.5626 5.80187ZM17.0467 12.9794C19.0804 13.585 19.8056 16.5757 18.3551 18.3551C17.3533 19.5738 15.3869 19.686 14.2654 18.5869C13.2561 17.585 12.9944 15.6935 13.6897 14.3402C14.0112 13.7047 14.7888 13.1065 15.514 12.9271C15.9103 12.8299 16.6355 12.8598 17.0467 12.9794Z"
            fill="#1D419E" />
    </g>
    <defs>
        <clipPath id="clip0_544_45">
            <rect width="32" height="32" fill="white" />
        </clipPath>
    </defs>
</svg>