<svg width="32" height="32" viewBox="0 0 33 33" fill="none" xmlns="http://www.w3.org/2000/svg">
    <path fill-rule="evenodd" clip-rule="evenodd"
        d="M17.8794 1.46973C17.7956 1.6556 17.6725 1.81726 17.5096 1.95457C16.9795 2.10992 16.4864 2.07753 16.0305 1.8576C16.6989 1.92451 17.3151 1.79516 17.8794 1.46973Z"
        fill="#E98382" />
    <path fill-rule="evenodd" clip-rule="evenodd"
        d="M18.2492 3.40922C18.1355 2.50702 17.6426 2.21611 16.7701 2.5365C17.0618 2.9684 17.3698 3.38847 17.6945 3.7971C17.9336 4.21135 17.9336 4.59923 17.6945 4.96073C17.4671 3.90803 16.9124 3.0677 16.0305 2.43953C15.6428 2.53204 15.273 2.6612 14.9212 2.82741C14.3541 2.90091 14.1693 2.70697 14.3665 2.24559C14.8504 1.71761 15.405 1.58831 16.0305 1.85771C16.4865 2.07764 16.9795 2.11003 17.5096 1.95468C17.6725 1.81738 17.7956 1.65571 17.8794 1.46984C18.0769 1.2886 18.3233 1.22396 18.6189 1.2759C18.6657 2.03517 18.5426 2.74615 18.2492 3.40922Z"
        fill="#E03837" />
    <path fill-rule="evenodd" clip-rule="evenodd"
        d="M21.5771 3.21514C21.3928 3.22096 21.2695 3.12399 21.2073 2.92423C21.3214 2.36491 21.4447 1.81549 21.5771 1.27575C21.7581 1.03036 21.943 0.771785 22.1318 0.5C22.1867 1.43432 22.0018 2.33931 21.5771 3.21514Z"
        fill="#F7ECE8" />
    <path fill-rule="evenodd" clip-rule="evenodd"
        d="M21.2073 0.887939C21.4538 0.887939 21.5771 1.01724 21.5771 1.27582C21.4447 1.81555 21.3214 2.36498 21.2073 2.92429C21.2695 3.12405 21.3928 3.22102 21.5771 3.2152C22.0101 3.35309 22.0717 3.61161 21.762 3.99096C20.9677 3.80419 20.1666 3.772 19.3585 3.89399C20.8607 4.73102 22.4631 4.95716 24.1655 4.57277C24.2271 4.44341 24.2889 4.31425 24.3504 4.18489C23.9357 3.996 23.5044 3.93122 23.0562 3.99096C23.5088 3.80225 24.0019 3.73767 24.5353 3.79702C24.6814 3.97176 24.8663 4.10111 25.09 4.18489C25.09 4.37883 25.09 4.57277 25.09 4.76671C24.8513 4.72075 24.6664 4.78533 24.5353 4.96065C24.412 4.96065 24.3504 5.02523 24.3504 5.15459C23.4876 5.15459 22.6249 5.15459 21.762 5.15459C21.762 5.47788 21.762 5.80098 21.762 6.12428C21.762 6.18886 21.762 6.25364 21.762 6.31822C21.5091 5.91793 21.3242 5.46528 21.2073 4.96065C21.0313 5.26028 20.9698 5.58358 21.0225 5.93034C20.8376 5.93034 20.6527 5.93034 20.4678 5.93034C20.5231 5.52229 20.4615 5.13442 20.2829 4.76671C19.7469 4.54523 19.1923 4.41607 18.6189 4.37883C18.7374 4.18838 18.8606 3.99445 18.9887 3.79702C18.7208 3.66669 18.4743 3.53733 18.2491 3.40914C19.0018 3.46073 19.7414 3.39615 20.4678 3.2152C20.6972 2.42684 20.9439 1.65111 21.2073 0.887939Z"
        fill="#D94D4E" />
    <path fill-rule="evenodd" clip-rule="evenodd"
        d="M17.6945 4.96065C16.95 5.61229 16.272 6.32346 15.6608 7.09398C15.3087 7.14014 15.0621 7.33407 14.9212 7.67579C14.4969 7.79914 14.1889 8.05766 13.9968 8.45155C13.086 9.01824 12.2849 9.72941 11.5932 10.5849C10.4212 11.4913 9.25036 12.3963 8.08039 13.3C7.48506 13.7079 6.9304 14.1603 6.41641 14.6576C5.96029 14.707 5.59052 14.901 5.30709 15.2394C4.70084 15.4318 4.08462 15.4642 3.45822 15.3364C3.2345 15.1349 3.04962 14.9085 2.90356 14.6576C2.84698 14.0981 2.90855 13.5808 3.08844 13.1061C3.20862 13.0471 3.33194 12.9825 3.45822 12.9121C3.83798 13.2921 4.26932 13.583 4.75243 13.7849C4.57715 13.8785 4.39227 13.9107 4.19777 13.8818C4.15395 14.1322 4.21552 14.3261 4.38265 14.4636C4.81862 14.5115 5.18839 14.3824 5.49198 14.0758C5.96029 13.8508 6.39182 13.5923 6.78619 13.3C6.83037 12.9185 6.76881 12.5629 6.6013 12.2333C6.15757 12.1973 5.72604 12.1003 5.30709 11.9424C5.55724 11.7438 5.68056 11.4853 5.67686 11.1667C5.29729 11.1477 4.98908 11.277 4.75243 11.5546C4.58529 11.6921 4.52372 11.886 4.56754 12.1364C4.38265 12.1364 4.19777 12.1364 4.01288 12.1364C4.32109 11.49 4.62911 10.8434 4.93731 10.197C7.77903 7.56951 10.799 5.21006 13.9968 3.11824C14.3447 3.07984 14.6528 2.98287 14.9212 2.82733C15.2731 2.66112 15.6428 2.53196 16.0305 2.43945C16.9124 3.06762 17.4671 3.90796 17.6945 4.96065Z"
        fill="#FCF7F7" />
    <path fill-rule="evenodd" clip-rule="evenodd"
        d="M21.762 3.99087C22.1933 3.99087 22.6249 3.99087 23.0562 3.99087C23.5044 3.93113 23.9357 3.99591 24.3504 4.1848C24.2888 4.31416 24.2271 4.44332 24.1655 4.57268C22.4631 4.95707 20.8607 4.73093 19.3585 3.8939C20.1666 3.77191 20.9677 3.8041 21.762 3.99087Z"
        fill="#F9EBEB" />
    <path fill-rule="evenodd" clip-rule="evenodd"
        d="M25.09 4.18481C25.383 4.28217 25.4755 4.47611 25.3673 4.76663C25.1166 4.9373 24.8393 5.00207 24.5353 4.96057C24.6664 4.78525 24.8513 4.72067 25.09 4.76663C25.09 4.57269 25.09 4.37875 25.09 4.18481Z"
        fill="#EFA5AA" />
    <path fill-rule="evenodd" clip-rule="evenodd"
        d="M18.2492 3.40906C18.4744 3.53726 18.7208 3.66661 18.9887 3.79694C18.8606 3.99437 18.7375 4.18831 18.619 4.37876C18.619 5.02515 18.619 5.67174 18.619 6.31814C18.3276 6.44284 18.0809 6.63678 17.8794 6.89996C17.7309 7.07896 17.7001 7.2729 17.787 7.48177C18.1946 7.97438 18.6569 8.39464 19.1736 8.74237C20.2127 9.08351 21.1987 9.53616 22.1318 10.0999C22.5632 10.1645 22.9947 10.2293 23.426 10.2939C24.6553 10.7991 25.888 11.2839 27.1238 11.7484C27.6605 12.0868 27.5989 12.2808 26.9389 12.3302C26.3463 12.0845 25.7301 11.9552 25.09 11.9424C24.2682 11.8076 23.4671 11.5812 22.6865 11.2636C21.3886 10.77 20.1559 10.156 18.9887 9.42116C18.9453 9.30538 18.8528 9.24079 18.7114 9.22722C18.5245 9.33505 18.3705 9.46421 18.2492 9.6151C17.8972 9.56894 17.6505 9.375 17.5096 9.03328C17.7561 9.03328 18.0027 9.03328 18.2492 9.03328C17.9033 8.50402 17.5951 7.92221 17.3248 7.28783C16.7893 6.92575 16.2347 6.86097 15.6608 7.09389C16.272 6.32338 16.95 5.6122 17.6945 4.96057C17.9336 4.59907 17.9336 4.21119 17.6945 3.79694C17.3699 3.38831 17.0618 2.96824 16.7701 2.53634C17.6426 2.21595 18.1355 2.50686 18.2492 3.40906Z"
        fill="#E1292A" />
    <path fill-rule="evenodd" clip-rule="evenodd"
        d="M24.3504 5.15454C23.5861 5.34557 22.7848 5.41015 21.9469 5.34848C21.9965 5.65859 21.9347 5.91711 21.762 6.12423C21.762 5.80094 21.762 5.47784 21.762 5.15454C22.6249 5.15454 23.4876 5.15454 24.3504 5.15454Z"
        fill="#F49FA5" />
    <path fill-rule="evenodd" clip-rule="evenodd"
        d="M18.619 4.37866C19.1923 4.4159 19.747 4.54506 20.2829 4.76654C20.4615 5.13425 20.5231 5.52212 20.4678 5.93017C20.4678 5.99475 20.4678 6.05953 20.4678 6.12411C19.8603 6.26122 19.2441 6.3258 18.619 6.31805C18.619 5.67165 18.619 5.02506 18.619 4.37866Z"
        fill="#F8EBE9" />
    <path fill-rule="evenodd" clip-rule="evenodd"
        d="M21.762 6.31826C21.7174 6.781 21.8406 7.16888 22.1318 7.48189C21.9469 7.48189 21.762 7.48189 21.5771 7.48189C21.3138 7.09693 21.1289 6.57969 21.0224 5.93039C20.9697 5.58362 21.0313 5.26033 21.2073 4.96069C21.3242 5.46532 21.5091 5.91797 21.762 6.31826Z"
        fill="#F1A7A6" />
    <path fill-rule="evenodd" clip-rule="evenodd"
        d="M20.4678 6.12427C20.4678 6.25362 20.4678 6.38279 20.4678 6.51214C19.5648 7.00378 19.5031 7.61779 20.2829 8.35456C20.5499 8.50603 20.7964 8.47364 21.0225 8.25759C20.7111 8.13153 20.4647 7.93759 20.2829 7.67578C20.9136 7.56581 21.2834 7.82433 21.3922 8.45153C21.3054 8.6829 21.1205 8.81226 20.8376 8.83941C20.6527 8.80702 20.4678 8.77483 20.2829 8.74244C19.6349 8.25643 19.2036 7.60984 18.9887 6.80305C18.6106 6.70802 18.2408 6.74041 17.8794 6.90002C18.0809 6.63685 18.3276 6.44291 18.6189 6.31821C19.244 6.32596 19.8603 6.26138 20.4678 6.12427Z"
        fill="#D35B5E" />
    <path fill-rule="evenodd" clip-rule="evenodd"
        d="M20.4678 6.51221C20.9925 6.86246 20.9309 7.0564 20.2829 7.09402C20.2829 7.28796 20.2829 7.4819 20.2829 7.67584C20.4647 7.93766 20.7111 8.13159 21.0225 8.25765C20.7963 8.4737 20.5499 8.50609 20.2829 8.35462C19.5031 7.61785 19.5648 7.00384 20.4678 6.51221Z"
        fill="#F8B7B1" />
    <path fill-rule="evenodd" clip-rule="evenodd"
        d="M20.4678 5.93018C20.6527 5.93018 20.8376 5.93018 21.0224 5.93018C21.1289 6.57948 21.3138 7.09672 21.5771 7.48168C21.762 7.48168 21.9469 7.48168 22.1318 7.48168C21.9469 7.61104 21.762 7.7402 21.5771 7.86956C21.5666 8.08464 21.505 8.27858 21.3922 8.45138C21.2833 7.82418 20.9135 7.56566 20.2829 7.67562C20.2829 7.48168 20.2829 7.28775 20.2829 7.09381C20.9309 7.05618 20.9925 6.86224 20.4678 6.51199C20.4678 6.38263 20.4678 6.25347 20.4678 6.12411C20.4678 6.05953 20.4678 5.99476 20.4678 5.93018Z"
        fill="#D82527" />
    <path fill-rule="evenodd" clip-rule="evenodd"
        d="M14.9212 7.67578C14.7217 8.072 14.4135 8.33052 13.9968 8.45154C14.1889 8.05765 14.4969 7.79913 14.9212 7.67578Z"
        fill="#E36F75" />
    <path fill-rule="evenodd" clip-rule="evenodd"
        d="M22.1318 7.48169C23.3794 8.13546 24.6736 8.68488 26.0144 9.13017C26.566 9.44726 27.0589 9.80275 27.4935 10.1968C25.4809 9.5289 23.5087 8.75315 21.5771 7.86957C21.762 7.74021 21.9469 7.61105 22.1318 7.48169Z"
        fill="#DA666B" />
    <path fill-rule="evenodd" clip-rule="evenodd"
        d="M14.3665 2.24536C14.1692 2.70674 14.3541 2.90068 14.9212 2.82718C14.6527 2.98272 14.3447 3.07968 13.9967 3.11808C10.7989 5.20991 7.77898 7.56936 4.93727 10.1968C4.09215 10.998 3.47592 11.9677 3.0884 13.1059C2.9085 13.5807 2.84693 14.0979 2.90351 14.6574C2.75745 14.4423 2.665 14.1838 2.62618 13.8817C2.46533 13.9996 2.37288 14.1611 2.34885 14.3665C2.4241 15.1045 2.60898 15.7832 2.90351 16.4029C2.35698 18.0017 1.86389 19.6178 1.42441 21.2513C1.25968 21.3696 1.07479 21.4342 0.869751 21.4453C1.39557 19.9196 1.88866 18.3681 2.34885 16.7907C2.45923 16.7452 2.52079 16.6482 2.53373 16.4998C2.33276 15.5736 2.20944 14.6363 2.16396 13.6877C2.43408 12.7237 2.83473 11.8186 3.36573 10.9726C4.06941 10.2345 4.77826 9.4909 5.49193 8.7423C7.58023 7.06376 9.67555 5.3829 11.7781 3.6999C12.6239 3.16502 13.4868 2.68017 14.3665 2.24536Z"
        fill="#DA4D4E" />
    <path fill-rule="evenodd" clip-rule="evenodd"
        d="M21.3922 8.4514C21.505 8.2786 21.5666 8.08466 21.5771 7.86958C23.5086 8.75317 25.4808 9.52892 27.4935 10.1968C27.6349 10.7003 27.6967 11.2175 27.6784 11.7484C27.4935 11.7484 27.3086 11.7484 27.1237 11.7484C25.8879 11.2839 24.6553 10.799 23.426 10.2938C22.9946 10.2292 22.5631 10.1645 22.1318 10.0999C21.1986 9.5361 20.2126 9.08344 19.1736 8.74231C18.6568 8.39458 18.1946 7.97431 17.7869 7.48171C17.7 7.27283 17.7309 7.0789 17.8794 6.89989C18.2408 6.74028 18.6106 6.70789 18.9887 6.80292C19.2035 7.60971 19.6349 8.2563 20.2829 8.74231C20.4678 8.77469 20.6527 8.80689 20.8376 8.83928C21.1204 8.81212 21.3053 8.68277 21.3922 8.4514Z"
        fill="#FBF1F0" />
    <path fill-rule="evenodd" clip-rule="evenodd"
        d="M27.4935 10.197C27.74 10.197 27.9866 10.197 28.233 10.197C28.1829 10.5616 28.3063 10.8201 28.6028 10.9728C28.6028 11.1021 28.5413 11.1667 28.4179 11.1667C28.3039 11.1452 28.2114 11.0806 28.1406 10.9728C28.0716 11.3991 27.9792 11.8193 27.8633 12.2334C27.9661 12.4294 28.0892 12.591 28.233 12.7182C27.1099 12.7031 26.0623 12.4446 25.09 11.9425C25.73 11.9553 26.3463 12.0846 26.9388 12.3303C27.5989 12.2809 27.6605 12.087 27.1237 11.7485C27.3086 11.7485 27.4935 11.7485 27.6784 11.7485C27.6967 11.2177 27.6349 10.7005 27.4935 10.197Z"
        fill="#DA4745" />
    <path fill-rule="evenodd" clip-rule="evenodd"
        d="M11.5932 10.5847C10.7592 11.9745 9.58832 12.8794 8.08038 13.2999C9.25035 12.3961 10.4212 11.4912 11.5932 10.5847Z"
        fill="#D94546" />
    <path fill-rule="evenodd" clip-rule="evenodd"
        d="M6.78614 13.2999C6.40897 13.4976 6.03919 13.4976 5.67682 13.2999C5.82935 13.1281 6.01423 13.0635 6.23148 13.106C6.23148 12.9121 6.23148 12.7181 6.23148 12.5242C5.36713 12.7494 4.87422 12.4261 4.75238 11.5545C4.98904 11.277 5.29724 11.1476 5.67682 11.1666C5.68051 11.4853 5.55719 11.7438 5.30704 11.9424C5.726 12.1002 6.15752 12.1972 6.60125 12.2333C6.76876 12.5628 6.83033 12.9185 6.78614 13.2999Z"
        fill="#D94147" />
    <path fill-rule="evenodd" clip-rule="evenodd"
        d="M28.4179 11.1666C28.402 11.3598 28.4638 11.5213 28.6028 11.6514C29.2488 11.9577 29.8651 12.3134 30.4517 12.7181C30.6155 12.8781 30.6771 13.072 30.6366 13.2999C30.1398 13.3317 29.6467 13.2993 29.1575 13.2029C28.8968 12.9369 28.5886 12.7753 28.2331 12.7181C28.0892 12.5909 27.9661 12.4293 27.8633 12.2333C27.9792 11.8192 28.0716 11.3989 28.1406 10.9727C28.2114 11.0805 28.3039 11.1451 28.4179 11.1666Z"
        fill="#DF2928" />
    <path fill-rule="evenodd" clip-rule="evenodd"
        d="M28.6029 10.9727C29.4678 11.2484 30.2382 11.7011 30.9139 12.3302C30.9448 12.4918 30.9755 12.6535 31.0064 12.8151C30.9724 13.0819 30.849 13.2435 30.6366 13.2999C30.6771 13.072 30.6155 12.8781 30.4517 12.7181C29.8651 12.3134 29.2489 11.9577 28.6029 11.6514C28.4638 11.5213 28.4021 11.3598 28.418 11.1666C28.5413 11.1666 28.6029 11.102 28.6029 10.9727Z"
        fill="#E47274" />
    <path fill-rule="evenodd" clip-rule="evenodd"
        d="M16.4003 10.3909C16.9159 10.8885 17.4706 11.3412 18.0643 11.7484C18.2551 11.4498 18.5015 11.3528 18.8038 11.4575C19.3369 12.34 20.0455 13.0187 20.93 13.4939C21.0114 13.9527 21.1038 14.4052 21.2074 14.8515C21.084 14.9808 20.9609 15.11 20.8376 15.2393C20.6987 15.4474 20.5138 15.4798 20.2829 15.3363C19.4999 14.4822 18.6988 13.6741 17.8794 12.9121C17.4013 12.0865 16.7849 11.3753 16.0305 10.7787C16.277 10.7787 16.4003 10.6494 16.4003 10.3909Z"
        fill="#DB4143" />
    <path fill-rule="evenodd" clip-rule="evenodd"
        d="M4.93731 10.197C4.6291 10.8434 4.32108 11.49 4.01288 12.1364C4.19776 12.1364 4.38265 12.1364 4.56754 12.1364C4.52372 11.886 4.58529 11.6921 4.75242 11.5546C4.87426 12.4262 5.36717 12.7494 6.23152 12.5243C6.23152 12.7182 6.23152 12.9122 6.23152 13.1061C6.01428 13.0636 5.82939 13.1282 5.67686 13.3C6.03924 13.4977 6.40901 13.4977 6.78618 13.3C6.39182 13.5923 5.96029 13.8508 5.49197 14.0758C5.35608 13.3402 4.98631 12.7584 4.38265 12.3303C4.32108 12.4273 4.25933 12.5243 4.19776 12.6213C4.57179 13.0431 4.81843 13.5279 4.93731 14.0758C4.62689 14.0341 4.442 14.1635 4.38265 14.4637C4.21551 14.3262 4.15394 14.1322 4.19776 13.8819C4.39226 13.9107 4.57715 13.8786 4.75242 13.7849C4.26931 13.583 3.83797 13.2921 3.45821 12.9122C3.33194 12.9826 3.20862 13.0471 3.08844 13.1061C3.47596 11.9679 4.09219 10.9982 4.93731 10.197Z"
        fill="#FBD6D3" />
    <path fill-rule="evenodd" clip-rule="evenodd"
        d="M5.49196 14.0758C5.18838 14.3824 4.8186 14.5115 4.38264 14.4636C4.44199 14.1634 4.62688 14.0341 4.9373 14.0758C4.81842 13.5279 4.57178 13.043 4.19775 12.6212C4.25932 12.5243 4.32107 12.4273 4.38264 12.3303C4.9863 12.7583 5.35607 13.3402 5.49196 14.0758Z"
        fill="#D8353D" />
    <path fill-rule="evenodd" clip-rule="evenodd"
        d="M18.434 12.1362C18.9646 12.6579 19.5502 13.1106 20.1904 13.4938C20.467 13.872 20.4979 14.2599 20.2829 14.6574C19.8148 13.9377 19.2601 13.2913 18.6189 12.718C18.503 12.5402 18.4412 12.3463 18.434 12.1362Z"
        fill="#F8DBD5" />
    <path fill-rule="evenodd" clip-rule="evenodd"
        d="M14.3666 14.2695C14.7363 14.2695 14.9212 14.4635 14.9212 14.8513C14.8071 14.8298 14.7147 14.7652 14.6439 14.6574C14.552 15.1054 14.5213 15.5579 14.5514 16.015C14.3738 15.6727 14.312 15.2848 14.3666 14.8513C14.1279 14.8973 13.943 14.8327 13.8119 14.6574C14.1223 14.6991 14.3072 14.5697 14.3666 14.2695Z"
        fill="#E77E7E" />
    <path fill-rule="evenodd" clip-rule="evenodd"
        d="M15.6607 11.9423C16.9211 13.5569 18.1537 15.2054 19.3585 16.8878C18.5965 17.3311 17.9803 17.9453 17.5096 18.7302C16.2738 17.6955 15.4109 16.4025 14.9212 14.8514C14.9212 14.4635 14.7363 14.2696 14.3665 14.2696C14.2205 14.0545 14.128 13.796 14.0892 13.4939C13.1267 13.1549 12.8802 12.5083 13.3496 11.5545C13.5682 11.1943 13.8764 11.0004 14.2741 10.9727C14.8332 11.1744 15.2954 11.4975 15.6607 11.9423Z"
        fill="#FAF6F5" />
    <path fill-rule="evenodd" clip-rule="evenodd"
        d="M2.164 13.6877C2.20948 14.6363 2.3328 15.5736 2.53377 16.4999C2.52083 16.6482 2.45926 16.7452 2.34889 16.7908C1.98947 15.747 1.9279 14.7125 2.164 13.6877Z"
        fill="#FBC0C0" />
    <path fill-rule="evenodd" clip-rule="evenodd"
        d="M11.4084 14.6574C11.4084 14.7868 11.4699 14.8514 11.5932 14.8514C11.7704 15.1349 11.9859 15.3934 12.2403 15.6271C12.5441 16.4913 12.883 17.3317 13.2572 18.1483C13.2731 18.3415 13.2114 18.503 13.0723 18.6332C12.7702 18.729 12.462 18.7612 12.1479 18.7301C11.6119 17.8644 11.1806 16.9595 10.8537 16.015C10.5416 15.2323 10.2334 14.4565 9.92926 13.6877C10.4126 13.9953 10.9055 14.3184 11.4084 14.6574Z"
        fill="#FAF3F1" />
    <path fill-rule="evenodd" clip-rule="evenodd"
        d="M17.5096 9.03336C16.7801 8.49383 16.3485 8.71996 16.2154 9.71215C16.2428 9.95573 16.3045 10.1821 16.4003 10.3909C16.4003 10.6495 16.277 10.7788 16.0305 10.7788C15.8462 10.773 15.7229 10.87 15.6607 11.0697C15.7635 11.2658 15.8867 11.4273 16.0305 11.5546C16.0305 11.8131 15.9072 11.9424 15.6607 11.9424C15.2954 11.4975 14.8332 11.1744 14.2741 10.9727C13.8764 11.0005 13.5682 11.1944 13.3497 11.5546C12.8802 12.5084 13.1267 13.1549 14.0892 13.4939C14.128 13.7961 14.2205 14.0546 14.3665 14.2697C14.3072 14.5699 14.1223 14.6993 13.8119 14.6576C13.8119 14.3991 13.8119 14.1403 13.8119 13.8818C13.5654 13.8818 13.3188 13.8818 13.0723 13.8818C13.1128 13.6539 13.0512 13.46 12.8874 13.3C12.6375 13.4986 12.391 13.6925 12.1479 13.8818C12.0606 14.2757 11.8757 14.599 11.5932 14.8515C11.4699 14.8515 11.4083 14.7869 11.4083 14.6576C11.4083 14.4636 11.4083 14.2697 11.4083 14.0758C10.8836 13.6505 10.2674 13.3919 9.55947 13.3C9.25626 13.7536 8.88648 13.9152 8.45015 13.7849C8.6049 13.9809 8.66647 14.2073 8.63504 14.4636C8.33108 14.4221 8.05375 14.4869 7.80305 14.6576C7.67436 15.2351 7.58192 15.8169 7.52571 16.403C7.4024 16.8555 7.27926 17.3081 7.15594 17.7606C6.91023 17.3141 6.66377 16.8615 6.41639 16.403C6.16643 16.6016 5.91997 16.7956 5.67684 16.9848C5.53171 17.5046 5.34682 18.0216 5.12218 18.5363C4.95394 18.8309 4.79992 19.154 4.65997 19.506C4.57066 19.3222 4.53997 19.1283 4.56752 18.9242C4.62206 18.4908 4.56031 18.1029 4.38263 17.7606C4.38263 17.3727 4.38263 16.9848 4.38263 16.597C4.14395 16.551 3.95906 16.6156 3.82797 16.7909C3.70465 16.6615 3.58152 16.5324 3.4582 16.403C3.27331 16.403 3.08843 16.403 2.90354 16.403C2.60901 15.7834 2.42413 15.1046 2.34888 14.3667C2.37291 14.1613 2.46536 13.9997 2.62621 13.8818C2.66503 14.184 2.75748 14.4425 2.90354 14.6576C3.0496 14.9085 3.23449 15.1349 3.4582 15.3364C4.0846 15.4642 4.70083 15.4318 5.30707 15.2394C5.76319 15.1899 6.13296 14.996 6.41639 14.6576C6.93038 14.1603 7.48504 13.7079 8.08038 13.3C9.58831 12.8796 10.7592 11.9746 11.5932 10.5849C12.2849 9.72941 13.086 9.01824 13.9968 8.45155C14.4135 8.33053 14.7217 8.07201 14.9212 7.67579C15.0621 7.33407 15.3087 7.14014 15.6607 7.09398C16.2346 6.86106 16.7893 6.92583 17.3247 7.28792C17.595 7.92229 17.9032 8.5041 18.2492 9.03336C18.0027 9.03336 17.7561 9.03336 17.5096 9.03336Z"
        fill="#E21A1E" />
    <path fill-rule="evenodd" clip-rule="evenodd"
        d="M6.41639 14.6575C6.13296 14.9959 5.76318 15.1898 5.30707 15.2393C5.5905 14.9009 5.96027 14.7069 6.41639 14.6575Z"
        fill="#DB6C6E" />
    <path fill-rule="evenodd" clip-rule="evenodd"
        d="M17.5096 9.03317C17.6505 9.37489 17.8971 9.56883 18.2492 9.61499C18.8848 10.1842 19.501 10.7982 20.098 11.4574C22.6598 13.1567 25.1249 14.9991 27.4935 16.9847C27.4935 18.0189 27.4935 19.0534 27.4935 20.0877C27.5177 20.2576 27.4562 20.3869 27.3086 20.4755C25.461 18.4101 23.4273 16.5353 21.2073 14.8513C21.1038 14.4051 21.0114 13.9526 20.93 13.4938C20.0455 13.0186 19.3368 12.3398 18.8038 11.4574C18.5015 11.3527 18.2551 11.4496 18.0643 11.7483C17.4706 11.341 16.9159 10.8884 16.4003 10.3907C16.3045 10.1819 16.2428 9.95554 16.2154 9.71196C16.3485 8.71977 16.78 8.49364 17.5096 9.03317Z"
        fill="#FBF4F4" />
    <path fill-rule="evenodd" clip-rule="evenodd"
        d="M18.9887 9.42123C18.8267 9.39583 18.7034 9.46041 18.6189 9.61517C21.8746 11.8713 24.9561 14.3279 27.8633 16.9848C27.74 16.9848 27.6168 16.9848 27.4935 16.9848C25.1249 14.9993 22.6598 13.1569 20.098 11.4576C19.501 10.7984 18.8848 10.1844 18.2491 9.61517C18.3704 9.46429 18.5244 9.33512 18.7114 9.22729C18.8528 9.24087 18.9452 9.30545 18.9887 9.42123Z"
        fill="#DA4749" />
    <path fill-rule="evenodd" clip-rule="evenodd"
        d="M10.4839 16.4029C10.9576 17.333 11.3891 18.3027 11.7781 19.312C10.8563 19.956 10.055 20.7318 9.37458 21.6392C8.87723 20.9891 8.38414 20.3426 7.89548 19.6998C7.55436 18.6438 7.43104 17.5448 7.52571 16.4029C7.71743 15.8573 7.96389 15.3401 8.26525 14.8514C8.92826 15.6589 9.45204 16.564 9.83679 17.5665C10.0217 17.825 10.2066 17.825 10.3915 17.5665C9.97343 16.6897 9.54208 15.7846 9.09725 14.8514C9.00665 14.6006 8.97578 14.3419 9.0048 14.0756C9.22205 14.0332 9.40693 14.0977 9.55946 14.2696C9.91778 14.9567 10.226 15.6679 10.4839 16.4029Z"
        fill="#FBF3F1" />
    <path fill-rule="evenodd" clip-rule="evenodd"
        d="M11.4083 14.6576C10.9054 14.3186 10.4125 13.9955 9.92923 13.6879C10.2334 14.4567 10.5416 15.2325 10.8537 16.0152C10.9219 16.4987 10.7988 16.628 10.4839 16.4031C10.226 15.668 9.91776 14.9569 9.55945 14.2697C9.40692 14.0979 9.22203 14.0333 9.00479 14.0758C8.97577 14.3421 9.00664 14.6008 9.09724 14.8516C9.54207 15.7848 9.97342 16.6899 10.3914 17.5667C10.2066 17.8252 10.0217 17.8252 9.83678 17.5667C9.45203 16.5642 8.92825 15.6591 8.26524 14.8516C7.96388 15.3403 7.71742 15.8575 7.5257 16.4031C7.5819 15.817 7.67435 15.2352 7.80303 14.6576C8.05373 14.487 8.33106 14.4222 8.63502 14.4637C8.66645 14.2073 8.60488 13.981 8.45013 13.7849C8.88646 13.9152 9.25624 13.7537 9.55945 13.3C10.2674 13.392 10.8836 13.6505 11.4083 14.0758C11.4083 14.2697 11.4083 14.4637 11.4083 14.6576Z"
        fill="#DB3738" />
    <path fill-rule="evenodd" clip-rule="evenodd"
        d="M21.2074 14.8516C23.4273 16.5355 25.4611 18.4103 27.3086 20.4758C27.4562 20.3871 27.5177 20.2578 27.4935 20.0879C27.6398 20.4387 27.6398 20.8266 27.4935 21.2515C27.2471 21.1222 27.0004 20.993 26.754 20.8637C26.4149 20.4748 26.1067 20.0545 25.8295 19.6031C24.19 18.1088 22.526 16.6542 20.8376 15.2394C20.9609 15.1101 21.084 14.9809 21.2074 14.8516Z"
        fill="#DD5557" />
    <path fill-rule="evenodd" clip-rule="evenodd"
        d="M16.0305 11.5544C17.3765 13.2914 18.7323 15.0368 20.098 16.7908C20.1565 17.443 20.2182 18.0894 20.2829 18.7302C19.9204 18.9163 19.6123 19.1749 19.3585 19.5059C18.701 19.4574 18.023 19.425 17.3247 19.409C16.3561 18.2975 15.4317 17.1662 14.5514 16.015C14.5213 15.5579 14.552 15.1055 14.6439 14.6575C14.7147 14.7653 14.8071 14.8299 14.9212 14.8514C15.411 16.4025 16.2738 17.6955 17.5096 18.7302C17.9803 17.9453 18.5966 17.3311 19.3585 16.8878C18.1538 15.2053 16.9211 13.5569 15.6607 11.9423C15.9072 11.9423 16.0305 11.813 16.0305 11.5544Z"
        fill="#DD4749" />
    <path fill-rule="evenodd" clip-rule="evenodd"
        d="M19.1736 17.5666C19.3681 17.5377 19.553 17.5699 19.7283 17.6636C19.294 18.0651 18.8933 18.4853 18.5265 18.9242C18.4032 18.7303 18.4032 18.5363 18.5265 18.3424C18.7303 18.0614 18.946 17.8029 19.1736 17.5666Z"
        fill="#F8ABA4" />
    <path fill-rule="evenodd" clip-rule="evenodd"
        d="M7.52569 16.4031C7.43103 17.545 7.55435 18.644 7.89546 19.7C7.83297 20.1566 7.74053 20.609 7.61813 21.0576C7.5843 20.502 7.49185 19.9849 7.3408 19.5061C7.16017 18.9656 7.0986 18.3838 7.15591 17.7606C7.27923 17.3082 7.40237 16.8555 7.52569 16.4031Z"
        fill="#D54042" />
    <path fill-rule="evenodd" clip-rule="evenodd"
        d="M3.82795 16.7908C4.01228 16.785 4.1356 16.8819 4.19772 17.0817C3.75806 18.4418 3.44986 19.8315 3.27329 21.2514C3.06011 21.7226 2.87523 21.7226 2.71863 21.2514C2.91886 19.7088 3.28863 18.2218 3.82795 16.7908Z"
        fill="#FCE4E1" />
    <path fill-rule="evenodd" clip-rule="evenodd"
        d="M13.2572 18.1484C13.4068 18.4448 13.5301 18.7679 13.627 19.1181C13.174 19.079 12.7427 19.1435 12.3328 19.3121C12.3222 19.097 12.2607 18.9031 12.1479 18.7303C12.462 18.7613 12.7702 18.7291 13.0723 18.6333C13.2114 18.5032 13.2731 18.3416 13.2572 18.1484Z"
        fill="#DF9499" />
    <path fill-rule="evenodd" clip-rule="evenodd"
        d="M20.2829 18.7302C20.7296 19.0783 20.7296 19.4662 20.2829 19.8939C20.0827 19.9014 19.8978 19.9662 19.7282 20.0878C19.6032 19.8741 19.4801 19.6801 19.3585 19.506C19.6123 19.1749 19.9203 18.9164 20.2829 18.7302Z"
        fill="#DF2729" />
    <path fill-rule="evenodd" clip-rule="evenodd"
        d="M2.90354 16.4031C3.08842 16.4031 3.27331 16.4031 3.4582 16.4031C2.9651 17.8584 2.56445 19.3453 2.25643 20.8637C2.10205 21.4007 1.82472 21.5298 1.42444 21.2515C1.86392 19.618 2.35701 18.0019 2.90354 16.4031Z"
        fill="#FDE0DE" />
    <path fill-rule="evenodd" clip-rule="evenodd"
        d="M27.8633 18.5364C28.9831 19.1238 29.9693 19.8996 30.8215 20.8636C30.7627 21.3132 30.516 21.5719 30.0819 21.6394C29.4973 21.3004 28.9427 20.9125 28.4179 20.4758C28.0949 19.8874 27.9101 19.2408 27.8633 18.5364Z"
        fill="#FBF3F1" />
    <path fill-rule="evenodd" clip-rule="evenodd"
        d="M4.38261 17.7605C4.56029 18.1028 4.62204 18.4907 4.5675 18.9241C4.30256 19.4637 4.08679 20.0455 3.92039 20.6696C3.89673 19.6747 4.05074 18.705 4.38261 17.7605Z"
        fill="#F6D3D0" />
    <path fill-rule="evenodd" clip-rule="evenodd"
        d="M10.8537 16.0151C11.1806 16.9596 11.6119 17.8645 12.1479 18.7303C12.2607 18.9031 12.3222 19.097 12.3328 19.3121C11.3453 20.0252 10.4824 20.8655 9.74437 21.8333C9.55948 21.8333 9.37459 21.8333 9.18971 21.8333C9.18971 22.0272 9.18971 22.2212 9.18971 22.4151C8.8987 21.9097 8.59049 21.3925 8.26527 20.8636C8.14195 20.6051 8.01882 20.6051 7.8955 20.8636C8.06559 22.1482 8.18891 23.441 8.26527 24.7424C8.20371 24.7424 8.14195 24.7424 8.08039 24.7424C8.06652 23.9418 7.81988 23.8124 7.34084 24.3545C7.27927 24.3545 7.21752 24.3545 7.15595 24.3545C6.20304 22.6234 5.6175 20.7486 5.39952 18.7303C5.32871 18.6224 5.23627 18.5579 5.12219 18.5363C5.34683 18.0216 5.53172 17.5046 5.67685 16.9848C5.64616 17.7633 5.67704 18.5391 5.7693 19.3121C6.24002 20.6305 6.67155 21.9881 7.06351 23.3848C7.18683 23.5142 7.30996 23.6433 7.43328 23.7727C7.48468 22.3501 7.4538 20.928 7.34084 19.506C7.49189 19.9849 7.58433 20.5019 7.61817 21.0575C7.74056 20.609 7.83301 20.1565 7.8955 19.7C8.38415 20.3427 8.87725 20.9893 9.37459 21.6394C10.055 20.7319 10.8563 19.9562 11.7781 19.3121C11.3891 18.3028 10.9576 17.3331 10.4839 16.403C10.7988 16.628 10.9219 16.4986 10.8537 16.0151Z"
        fill="#D76364" />
    <path fill-rule="evenodd" clip-rule="evenodd"
        d="M13.627 19.118C13.9977 19.2643 14.121 19.4906 13.9967 19.7968C13.5654 19.8614 13.1339 19.9262 12.7025 19.9907C12.4359 20.0639 12.251 20.2254 12.1479 20.4756C11.2953 21.0462 10.5558 21.7573 9.92922 22.6089C9.75746 22.3783 9.69589 22.1198 9.74433 21.8332C10.4824 20.8654 11.3453 20.0251 12.3327 19.312C12.7426 19.1434 13.174 19.0789 13.627 19.118Z"
        fill="#F9EAEA" />
    <path fill-rule="evenodd" clip-rule="evenodd"
        d="M27.4935 16.9849C27.6168 16.9849 27.74 16.9849 27.8633 16.9849C27.8633 17.1788 27.8633 17.3727 27.8633 17.5667C28.1098 17.89 28.1098 18.2131 27.8633 18.5364C27.9101 19.2408 28.095 19.8873 28.418 20.4758C28.4021 20.6689 28.4638 20.8305 28.6029 20.9606C28.3706 21.0415 28.2473 21.203 28.2331 21.4454C27.9374 21.4974 27.691 21.4326 27.4935 21.2515C27.6398 20.8266 27.6398 20.4387 27.4935 20.0879C27.4935 19.0536 27.4935 18.0191 27.4935 16.9849Z"
        fill="#DC3133" />
    <path fill-rule="evenodd" clip-rule="evenodd"
        d="M12.1479 13.8818C12.5688 15.2823 13.0926 16.6398 13.7194 17.9545C14.2865 18.5763 14.718 19.2875 15.0136 20.0879C14.8184 20.8879 14.7259 21.7282 14.7363 22.6091C14.649 22.2152 14.4641 21.8919 14.1816 21.6394C14.3371 21.275 14.3989 20.8871 14.3665 20.4757C13.5602 20.4352 12.8207 20.6292 12.1479 21.0576C12.2316 20.8718 12.3548 20.71 12.5176 20.5727C12.4078 20.4827 12.2845 20.4503 12.1479 20.4757C12.251 20.2256 12.4359 20.064 12.7025 19.9909C13.1339 19.9263 13.5654 19.8615 13.9967 19.797C14.121 19.4907 13.9977 19.2644 13.627 19.1182C13.5301 18.7679 13.4068 18.4448 13.2572 18.1485C12.883 17.3318 12.5441 16.4915 12.2403 15.6273C11.9859 15.3936 11.7703 15.1351 11.5932 14.8515C11.8757 14.599 12.0606 14.2757 12.1479 13.8818Z"
        fill="#DE5052" />
    <path fill-rule="evenodd" clip-rule="evenodd"
        d="M23.9807 19.8939C23.3474 19.8681 23.2859 19.9973 23.7958 20.2818C22.6839 20.8849 21.667 21.6607 20.7452 22.609C20.5989 22.8505 20.5065 23.109 20.4678 23.3848C20.2445 23.2424 19.998 23.1778 19.7283 23.1908C20.8154 21.9725 21.9863 20.8411 23.2411 19.7969C23.5307 19.6486 23.7771 19.6809 23.9807 19.8939Z"
        fill="#D3565A" />
    <path fill-rule="evenodd" clip-rule="evenodd"
        d="M3.45819 16.4031C3.58151 16.5324 3.70465 16.6616 3.82797 16.791C3.28865 18.222 2.91888 19.709 2.71864 21.2515C2.87524 21.7228 3.06013 21.7228 3.27331 21.2515C3.39589 21.5506 3.51921 21.8739 3.64308 22.2212C3.80597 21.556 4.02173 20.9096 4.29018 20.2818C4.38078 20.5326 4.41166 20.7913 4.38263 21.0576C4.17777 21.8706 3.99289 22.7109 3.82797 23.5788C3.85219 23.7221 3.82131 23.8515 3.73552 23.9667C3.17661 24.393 2.65283 24.8454 2.16398 25.3242C2.2873 24.5485 1.9791 24.2252 1.23955 24.3546C1.23955 24.807 1.23955 25.2597 1.23955 25.7121C1.06649 24.5822 0.82004 23.451 0.5 22.3182C0.600579 22.0108 0.723898 21.7199 0.869774 21.4455C1.07481 21.4344 1.2597 21.3698 1.42444 21.2515C1.82472 21.5298 2.10205 21.4007 2.25643 20.8637C2.56445 19.3453 2.9651 17.8584 3.45819 16.4031Z"
        fill="#DA4342" />
    <path fill-rule="evenodd" clip-rule="evenodd"
        d="M3.82798 16.7908C3.95906 16.6155 4.14395 16.5509 4.38264 16.5969C4.38264 16.9847 4.38264 17.3726 4.38264 17.7605C4.05077 18.705 3.89675 19.6747 3.92042 20.6696C4.08682 20.0455 4.30258 19.4637 4.56752 18.9241C4.53998 19.1281 4.57067 19.3221 4.65997 19.5059C4.79993 19.1539 4.95394 18.8308 5.12219 18.5362C4.93083 19.4111 4.68437 20.2514 4.38264 21.0574C4.41167 20.7912 4.38079 20.5324 4.29019 20.2817C4.02174 20.9095 3.80598 21.5559 3.64309 22.2211C3.51922 21.8737 3.3959 21.5504 3.27332 21.2514C3.44988 19.8316 3.75809 18.4418 4.19775 17.0817C4.13563 16.8819 4.01231 16.785 3.82798 16.7908Z"
        fill="#DB696A" />
    <path fill-rule="evenodd" clip-rule="evenodd"
        d="M7.15592 17.7606C7.0986 18.3838 7.16017 18.9656 7.34081 19.5061C7.45377 20.928 7.48465 22.3502 7.43325 23.7727C7.30993 23.6434 7.18679 23.5142 7.06347 23.3849C6.67151 21.9881 6.23999 20.6305 5.76927 19.3122C5.67701 18.5391 5.64613 17.7634 5.67682 16.9849C5.91995 16.7956 6.1664 16.6017 6.41637 16.4031C6.66375 16.8615 6.9102 17.3142 7.15592 17.7606Z"
        fill="#FAF3F3" />
    <path fill-rule="evenodd" clip-rule="evenodd"
        d="M14.1816 21.6393C14.1201 21.8979 14.0583 22.1566 13.9967 22.4151C13.4669 22.7898 12.9122 23.1131 12.3328 23.3848C11.755 23.1949 11.1388 23.1302 10.4839 23.1909C10.8267 22.3125 11.3813 21.6015 12.1479 21.0575C12.8207 20.6291 13.5602 20.4352 14.3665 20.4757C14.3989 20.8871 14.3371 21.2749 14.1816 21.6393Z"
        fill="#FBF4F3" />
    <path fill-rule="evenodd" clip-rule="evenodd"
        d="M27.8633 17.5667C29.2076 18.854 30.6249 20.05 32.1157 21.1545C32.4217 21.4346 32.545 21.7902 32.4855 22.2212C31.7825 22.1952 31.1047 22.3245 30.4517 22.6091C30.0657 22.5858 29.819 22.3918 29.7122 22.0272C30.1725 21.9128 30.6656 21.8804 31.1912 21.9303C31.5656 21.484 31.4423 21.1285 30.8215 20.8636C29.9693 19.8995 28.9831 19.1238 27.8633 18.5363C28.1097 18.213 28.1097 17.8899 27.8633 17.5667Z"
        fill="#DA494D" />
    <path fill-rule="evenodd" clip-rule="evenodd"
        d="M23.7957 20.2817C24.4 21.0131 25.0471 21.7243 25.7371 22.4151C25.8276 22.6658 25.8585 22.9245 25.8295 23.1908C24.762 24.1495 23.7758 25.2161 22.8713 26.3908C22.7615 26.4808 22.6382 26.5132 22.5015 26.4878C21.9195 25.3998 21.2415 24.3655 20.4678 23.3848C20.5064 23.109 20.5989 22.8505 20.7451 22.609C21.667 21.6606 22.6838 20.8849 23.7957 20.2817Z"
        fill="#FBF8F6" />
    <path fill-rule="evenodd" clip-rule="evenodd"
        d="M23.9806 19.8938C25.0735 20.6597 25.9364 21.6618 26.5691 22.8999C26.376 23.1276 26.1911 23.3539 26.0144 23.5787C25.8595 23.5124 25.7977 23.3832 25.8295 23.1908C25.8585 22.9245 25.8277 22.6658 25.7371 22.415C25.0471 21.7242 24.4 21.0131 23.7958 20.2817C23.2858 19.9972 23.3474 19.8681 23.9806 19.8938Z"
        fill="#DA4648" />
    <path fill-rule="evenodd" clip-rule="evenodd"
        d="M28.4179 20.4756C28.9426 20.9123 29.4973 21.3002 30.0819 21.6392C30.516 21.5717 30.7627 21.313 30.8215 20.8635C31.4423 21.1284 31.5656 21.4839 31.1912 21.9301C30.6656 21.8803 30.1725 21.9127 29.7121 22.0271C29.2584 21.7245 28.7655 21.5306 28.233 21.4453C28.2473 21.2029 28.3706 21.0413 28.6028 20.9604C28.4638 20.8303 28.402 20.6687 28.4179 20.4756Z"
        fill="#E99894" />
    <path fill-rule="evenodd" clip-rule="evenodd"
        d="M12.1479 20.4757C12.2845 20.4503 12.4078 20.4826 12.5177 20.5726C12.3548 20.7099 12.2316 20.8717 12.1479 21.0575C11.3813 21.6015 10.8267 22.3125 10.4839 23.1908C10.3528 23.3661 10.1679 23.4307 9.92925 23.3847C9.61808 23.1223 9.37163 22.799 9.1897 22.415C9.1897 22.2211 9.1897 22.0272 9.1897 21.8332C9.37458 21.8332 9.55947 21.8332 9.74436 21.8332C9.69592 22.1199 9.75749 22.3784 9.92925 22.609C10.5558 21.7574 11.2954 21.0462 12.1479 20.4757Z"
        fill="#DB3634" />
    <path fill-rule="evenodd" clip-rule="evenodd"
        d="M4.3826 21.0574C4.41311 21.6427 4.38223 22.2245 4.29016 22.8028C4.2676 23.1785 4.11359 23.437 3.82794 23.5786C3.99286 22.7107 4.17775 21.8704 4.3826 21.0574Z"
        fill="#F2A9A9" />
    <path fill-rule="evenodd" clip-rule="evenodd"
        d="M19.3585 19.5059C19.4801 19.68 19.6033 19.874 19.7282 20.0877C19.8978 19.9661 20.0827 19.9013 20.2829 19.8937C19.9521 20.73 19.4282 21.4412 18.7114 22.0271C18.588 22.5443 18.588 23.0613 18.7114 23.5786C18.8423 23.7494 18.9965 23.8786 19.1736 23.9664C19.1736 24.0958 19.1736 24.225 19.1736 24.3543C18.9965 24.2665 18.8423 24.1373 18.7114 23.9664C18.6709 24.2453 18.5784 24.5038 18.434 24.7422C18.3218 24.7182 18.2602 24.6536 18.2491 24.5483C18.3137 23.9445 18.3137 23.2981 18.2491 22.6089C18.0643 22.6089 17.8794 22.6089 17.6945 22.6089C17.6945 22.8674 17.6945 23.1261 17.6945 23.3846C17.5712 23.1907 17.448 22.9968 17.3247 22.8028C17.5116 22.4398 17.6658 22.0519 17.7869 21.6392C18.5037 21.0533 19.0277 20.3421 19.3585 19.5059Z"
        fill="#DA6365" />
    <path fill-rule="evenodd" clip-rule="evenodd"
        d="M1.42442 22.0271C1.71747 22.216 1.90236 22.5069 1.97908 22.8998C2.15436 22.9935 2.33924 23.0257 2.53374 22.9968C2.4853 22.7102 2.54687 22.4516 2.71863 22.221C2.84898 22.6423 3.03386 23.0301 3.27329 23.3847C3.06104 23.7045 2.81459 23.9954 2.53374 24.2574C2.11756 24.2172 1.68604 24.1851 1.23954 24.1604C1.20681 23.4363 1.26838 22.7251 1.42442 22.0271Z"
        fill="#FAECEC" />
    <path fill-rule="evenodd" clip-rule="evenodd"
        d="M13.9967 22.415C14.1095 22.5878 14.1711 22.7818 14.1816 22.9969C13.3461 23.0929 13.0381 23.5455 13.2572 24.3544C13.3835 24.284 13.5068 24.2194 13.627 24.1605C13.6048 24.3711 13.4814 24.5005 13.2572 24.5484C13.0141 24.4215 12.8292 24.4215 12.7025 24.5484C12.3551 23.8678 11.8005 23.6093 11.0385 23.7726C10.9613 23.6326 10.8381 23.5356 10.6688 23.4817C11.2201 23.3851 11.7748 23.3527 12.3327 23.3847C12.9122 23.113 13.4668 22.7897 13.9967 22.415Z"
        fill="#DA4043" />
    <path fill-rule="evenodd" clip-rule="evenodd"
        d="M10.4839 23.1907C11.1388 23.13 11.755 23.1948 12.3328 23.3847C11.7748 23.3527 11.2201 23.3851 10.6688 23.4816C10.8382 23.5356 10.9613 23.6325 11.0386 23.7725C10.5952 23.8193 10.2254 23.6899 9.92926 23.3847C10.1679 23.4306 10.3528 23.3661 10.4839 23.1907Z"
        fill="#DC7B80" />
    <path fill-rule="evenodd" clip-rule="evenodd"
        d="M14.1816 22.9968C14.1478 23.4793 13.9629 23.8672 13.627 24.1605C13.5068 24.2194 13.3835 24.284 13.2572 24.3544C13.0381 23.5455 13.3461 23.0928 14.1816 22.9968Z"
        fill="#FCDBD1" />
    <path fill-rule="evenodd" clip-rule="evenodd"
        d="M18.2492 24.5483C18.0628 24.1519 17.8779 23.764 17.6945 23.3846C17.6945 23.1261 17.6945 22.8674 17.6945 22.6089C17.8794 22.6089 18.0643 22.6089 18.2492 22.6089C18.3137 23.2981 18.3137 23.9445 18.2492 24.5483Z"
        fill="#F4D2CB" />
    <path fill-rule="evenodd" clip-rule="evenodd"
        d="M14.1817 21.6394C14.4642 21.8919 14.6491 22.2152 14.7363 22.6091C14.7363 22.7385 14.7363 22.8676 14.7363 22.997C14.8793 23.7029 15.0026 24.4141 15.1061 25.1303C14.9212 25.1303 14.7363 25.1303 14.5514 25.1303C14.5514 25.3242 14.5514 25.5182 14.5514 25.7121C14.4008 25.8923 14.2468 26.0862 14.0892 26.2939C13.9652 26.1481 13.8112 26.0833 13.627 26.1C13.179 25.6906 12.8708 25.1734 12.7026 24.5485C12.8292 24.4216 13.0141 24.4216 13.2572 24.5485C13.4815 24.5006 13.6048 24.3712 13.627 24.1606C13.963 23.8674 14.1478 23.4795 14.1817 22.997C14.1711 22.7819 14.1096 22.588 13.9968 22.4152C14.0584 22.1566 14.1201 21.8979 14.1817 21.6394Z"
        fill="#E02425" />
    <path fill-rule="evenodd" clip-rule="evenodd"
        d="M14.7363 22.9968C14.8504 23.0184 14.9428 23.0829 15.0136 23.1908C15.1867 23.8917 15.2791 24.6026 15.2909 25.3241C14.9768 25.3293 14.7302 25.4587 14.5514 25.712C14.5514 25.518 14.5514 25.3241 14.5514 25.1301C14.7363 25.1301 14.9212 25.1301 15.1061 25.1301C15.0025 24.4139 14.8792 23.7028 14.7363 22.9968Z"
        fill="#DA4647" />
    <path fill-rule="evenodd" clip-rule="evenodd"
        d="M17.3247 22.803C17.4481 22.9969 17.5712 23.1909 17.6945 23.3848C17.8779 23.7641 18.0628 24.152 18.2492 24.5484C18.2603 24.6537 18.3218 24.7183 18.4341 24.7424C18.5784 24.504 18.6709 24.2455 18.7114 23.9666C18.8423 24.1375 18.9965 24.2666 19.1736 24.3545C19.1736 24.2251 19.1736 24.096 19.1736 23.9666C19.2176 23.5974 19.4025 23.3386 19.7283 23.1909C19.998 23.1779 20.2445 23.2424 20.4678 23.3848C21.2416 24.3655 21.9195 25.3998 22.5016 26.4878C22.7569 26.8319 22.6953 27.1228 22.3167 27.3605C21.8896 27.4569 21.4583 27.4891 21.0225 27.4575C20.5131 27.1749 19.9584 26.981 19.3585 26.8757C18.9791 26.4145 18.6093 25.962 18.2492 25.5181C17.9143 24.9472 17.5754 24.3653 17.2323 23.7727C17.0881 23.4067 17.119 23.0834 17.3247 22.803Z"
        fill="#D9474B" />
    <path fill-rule="evenodd" clip-rule="evenodd"
        d="M20.6527 25.7121C20.357 25.7641 20.1106 25.6993 19.9131 25.5182C19.7018 24.9359 19.7018 24.3541 19.9131 23.7727C20.9984 24.5867 21.6146 25.6855 21.762 27.0697C21.4126 27.109 21.1352 26.9799 20.93 26.6818C20.8934 26.3168 20.801 25.9937 20.6527 25.7121Z"
        fill="#F8DDD9" />
    <path fill-rule="evenodd" clip-rule="evenodd"
        d="M2.164 25.3241C1.92753 25.6088 1.61932 25.7381 1.23956 25.712C1.23956 25.2595 1.23956 24.8068 1.23956 24.3544C1.97911 24.225 2.28732 24.5483 2.164 25.3241Z"
        fill="#E51D20" />
    <path fill-rule="evenodd" clip-rule="evenodd"
        d="M8.08037 24.7422C8.08037 25.1301 8.08037 25.518 8.08037 25.9059C7.83391 25.9059 7.58727 25.9059 7.34082 25.9059C7.34082 25.3886 7.34082 24.8716 7.34082 24.3544C7.81986 23.8123 8.0665 23.9417 8.08037 24.7422Z"
        fill="#E3141E" />
    <path fill-rule="evenodd" clip-rule="evenodd"
        d="M7.15592 24.3545C7.21749 24.3545 7.27924 24.3545 7.34081 24.3545C7.34081 24.8717 7.34081 25.3888 7.34081 25.906C7.58726 25.906 7.8339 25.906 8.08036 25.906C8.08036 25.5181 8.08036 25.1302 8.08036 24.7424C8.14192 24.7424 8.20368 24.7424 8.26524 24.7424C8.32052 25.6011 8.44366 26.4415 8.63502 27.2636C8.63502 27.4575 8.63502 27.6514 8.63502 27.8454C8.38856 27.8454 8.14192 27.8454 7.89547 27.8454C7.74552 28.6308 8.02286 29.1479 8.72746 29.3969C8.85078 29.7202 8.85078 30.0433 8.72746 30.3666C8.55126 29.9874 8.30462 29.6641 7.98791 29.3969C7.95704 29.4939 7.92634 29.5908 7.89547 29.6878C8.16208 30.1953 8.47028 30.6802 8.8199 31.1423C8.90088 30.6003 9.08577 30.1478 9.37456 29.7848C9.44556 30.5584 9.32224 31.2694 9.00479 31.9181C8.8199 31.9181 8.63502 31.9181 8.45013 31.9181C8.49395 31.6677 8.43238 31.4738 8.26524 31.3363C7.72907 30.5724 7.32842 29.7318 7.06348 28.8151C7.08973 27.332 7.12061 25.8453 7.15592 24.3545Z"
        fill="#DC4244" />
    <path fill-rule="evenodd" clip-rule="evenodd"
        d="M25.8295 23.1909C25.7977 23.3833 25.8595 23.5125 26.0144 23.5788C25.0319 24.6104 24.1075 25.7094 23.2411 26.8757C22.6234 27.6342 21.8838 27.8282 21.0225 27.4576C21.4582 27.4892 21.8896 27.457 22.3167 27.3606C22.6953 27.1228 22.7569 26.8319 22.5016 26.4879C22.6382 26.5133 22.7615 26.4809 22.8713 26.3909C23.7758 25.2162 24.762 24.1496 25.8295 23.1909Z"
        fill="#DD656A" />
    <path fill-rule="evenodd" clip-rule="evenodd"
        d="M19.9132 25.5182C20.1106 25.6993 20.3571 25.7641 20.6527 25.7121C20.6527 26.0354 20.6527 26.3585 20.6527 26.6818C19.4807 26.8428 18.926 26.2933 18.9887 25.0333C19.0791 24.8126 19.1407 24.5863 19.1736 24.3545C19.3156 24.2065 19.408 24.0126 19.4509 23.7727C19.5125 24.2899 19.5743 24.807 19.6358 25.3242C19.7066 25.432 19.7991 25.4966 19.9132 25.5182Z"
        fill="#E5181D" />
    <path fill-rule="evenodd" clip-rule="evenodd"
        d="M8.63503 27.2634C9.13552 28.0018 9.38197 28.8421 9.37458 29.7846C9.08579 30.1477 8.9009 30.6001 8.81992 31.1422C8.4703 30.68 8.16209 30.1952 7.89548 29.6877C7.92636 29.5907 7.95705 29.4937 7.98793 29.3968C8.30464 29.664 8.55128 29.9873 8.72747 30.3664C8.85079 30.0431 8.85079 29.72 8.72747 29.3968C8.02287 29.1477 7.74554 28.6307 7.89548 27.8452C8.14194 27.8452 8.38858 27.8452 8.63503 27.8452C8.63503 27.6513 8.63503 27.4574 8.63503 27.2634Z"
        fill="#E97F7D" />
    <path fill-rule="evenodd" clip-rule="evenodd"
        d="M8.26526 31.3362C8.4324 31.4737 8.49396 31.6676 8.45015 31.918C8.63503 31.918 8.81992 31.918 9.00481 31.918C8.90349 32.3121 8.65703 32.506 8.26526 32.4998C8.26526 32.1119 8.26526 31.7241 8.26526 31.3362Z"
        fill="#E6969C" />
</svg>