<svg width="32" height="32" viewBox="0 0 32 33" fill="none" xmlns="http://www.w3.org/2000/svg">
<path d="M31.996 16.5207C31.996 15.2765 31.5557 14.1042 30.7602 13.225L28.0134 10.1893L21.1238 2.57493C19.9281 1.25335 18.3371 0.523438 16.6459 0.523438H5.34852C3.67743 0.523438 2.13141 1.36394 1.10575 2.82377C0.10509 4.26147 -0.240137 6.08072 0.170132 7.82808C0.925627 11.0518 2.37657 14.0323 4.3879 16.5152V16.5373C2.37657 19.0201 0.920624 22.0005 0.170132 25.2243C-0.240137 26.9661 0.10509 28.791 1.11075 30.2232C2.13642 31.6829 3.68243 32.5234 5.35353 32.5234H16.6509C18.3421 32.5234 19.9331 31.7935 21.1288 30.472L28.0184 22.8577L30.7652 19.8219C31.5607 18.9426 32.001 17.7703 32.001 16.5262V16.5152L31.996 16.5207ZM3.75248 6.79957C3.58737 6.10284 3.85755 5.57752 4.03766 5.32869C4.35788 4.87526 4.83318 4.61536 5.35353 4.61536H16.6509C17.3514 4.61536 18.0119 4.91949 18.5072 5.46693L23.3803 10.5431C22.0295 9.8906 19.9081 9.54227 18.5072 9.54227C14.2844 9.54227 10.3168 11.0906 7.11969 13.7504C5.51864 11.7596 4.36287 9.37638 3.75748 6.8051L3.75248 6.79957ZM18.5072 27.58C18.0119 28.1274 17.3514 28.4315 16.6509 28.4315H5.34852C4.83318 28.4315 4.35287 28.1716 4.03266 27.7181C3.85755 27.4693 3.58737 26.944 3.74747 26.2473C4.34787 23.676 5.50862 21.2928 7.10967 19.3021C10.3118 21.9619 14.2744 23.5102 18.4972 23.5102C19.9031 23.5102 22.0195 23.1618 23.3703 22.5093L18.4972 27.5854L18.5072 27.58ZM18.9575 19.5675C15.6653 19.5675 12.5632 18.4505 9.97653 16.5207C12.5632 14.5909 15.6653 13.4739 18.9575 13.4739C22.2496 13.4739 25.2965 14.5521 27.9383 16.5207C25.3015 18.4892 22.1645 19.5675 18.9575 19.5675Z" fill="#1A0637"/>
</svg>

