<svg width="32" height="32" viewBox="0 0 32 32" fill="none" xmlns="http://www.w3.org/2000/svg">
<path fill-rule="evenodd" clip-rule="evenodd" d="M11.378 5.54634C11.6941 5.50055 11.9548 5.59535 12.1602 5.83079C12.5898 6.69233 13.0876 7.49824 13.6535 8.24857C12.9182 7.84372 12.4441 7.22742 12.2313 6.39968C11.958 6.22745 11.6973 6.03782 11.4491 5.83079C10.4311 5.99631 9.45926 6.30446 8.53355 6.75523C8.06183 6.8261 7.58776 6.84981 7.11133 6.82634C8.54022 6.43589 9.96244 6.00922 11.378 5.54634Z" fill="#E8C8A0"/>
<path fill-rule="evenodd" clip-rule="evenodd" d="M21.6166 6.82635C20.7351 6.7781 19.8582 6.6833 18.9855 6.5419C18.4566 6.53923 17.9588 6.63403 17.4922 6.82635C17.5748 6.47116 17.7882 6.23412 18.1322 6.11523C19.3216 6.31036 20.4831 6.54741 21.6166 6.82635Z" fill="#DCB995"/>
<path fill-rule="evenodd" clip-rule="evenodd" d="M13.652 8.24786C13.652 8.5323 13.652 8.81674 13.652 9.10119C13.4418 9.13845 13.2522 9.09105 13.0831 8.95897C13.2904 8.5219 13.1719 8.19006 12.7276 7.96341C12.48 8.15679 12.1719 8.39382 11.8031 8.67452C10.9109 8.53805 10.0102 8.49064 9.10091 8.5323C9.10091 8.72193 9.10091 8.91156 9.10091 9.10119C8.3424 9.19601 7.58387 9.29081 6.82536 9.38563C6.84882 9.86206 6.82511 10.3361 6.75424 10.8079C6.56519 10.4174 6.30445 10.0855 5.97202 9.8123C5.50871 9.68184 5.03464 9.63442 4.5498 9.67008C4.40816 9.68228 4.28965 9.63486 4.19424 9.52786C4.0251 8.99164 3.88288 8.47016 3.76758 7.96341C4.77747 7.74509 5.79673 7.55546 6.82536 7.39452C6.82536 7.2049 6.82536 7.01526 6.82536 6.82563C6.92018 6.82563 7.01498 6.82563 7.1098 6.82563C7.58623 6.8491 8.0603 6.82539 8.53202 6.75452C9.45773 6.30375 10.4296 5.9956 11.4476 5.83008C11.6957 6.03711 11.9565 6.22674 12.2298 6.39897C12.4426 7.22671 12.9167 7.84301 13.652 8.24786Z" fill="#F3BE84"/>
<path fill-rule="evenodd" clip-rule="evenodd" d="M6.40002 6.82812C6.54224 6.82812 6.68446 6.82812 6.82668 6.82812C6.82668 7.01775 6.82668 7.20739 6.82668 7.39701C5.79806 7.55795 4.7788 7.74758 3.76891 7.9659C3.88421 8.47265 4.02643 8.99413 4.19557 9.53035C4.29098 9.63736 4.40949 9.68477 4.55113 9.67257C4.55113 9.86219 4.55113 10.0518 4.55113 10.2415C4.21928 9.86219 3.88742 9.48294 3.55557 9.10368C3.43487 8.74313 3.29265 8.38758 3.12891 8.03701C3.17631 7.9659 3.22373 7.89479 3.27113 7.82368C4.33152 7.48862 5.37448 7.15676 6.40002 6.82812Z" fill="#EAC499"/>
<path fill-rule="evenodd" clip-rule="evenodd" d="M22.7559 6.96875C24.5767 7.20898 26.3781 7.54082 28.1603 7.96431C28.0501 8.23402 27.9079 8.47104 27.7336 8.67542C27.8097 8.28594 27.6675 8.02521 27.307 7.89319C25.8006 7.63377 24.2835 7.51524 22.7559 7.53764C22.7559 7.34801 22.7559 7.15837 22.7559 6.96875Z" fill="#DCB891"/>
<path fill-rule="evenodd" clip-rule="evenodd" d="M17.4922 6.82812C17.4168 7.17283 17.2982 7.50468 17.1366 7.82368C16.806 8.10824 16.5453 8.4401 16.3544 8.81924C16.2517 8.96873 16.1095 9.06355 15.9277 9.10368C16.3124 8.23558 16.834 7.47707 17.4922 6.82812Z" fill="#DDBB92"/>
<path fill-rule="evenodd" clip-rule="evenodd" d="M21.6177 6.82552C22.028 6.78194 22.4073 6.82934 22.7555 6.96774C22.7555 7.15736 22.7555 7.347 22.7555 7.53663C24.2831 7.51423 25.8002 7.63275 27.3066 7.89218C27.6671 8.02419 27.8093 8.28493 27.7332 8.6744C27.5138 9.01969 27.3716 9.39894 27.3066 9.81218C27.1516 10.0052 26.9618 10.1474 26.7377 10.2388C25.7953 10.6146 24.8471 10.9938 23.8932 11.3766C24.1915 11.1054 24.5234 10.8446 24.8888 10.5944C24.6119 10.4534 24.3275 10.406 24.0355 10.4522C24.3667 10.7359 24.2718 10.9018 23.751 10.95C23.3319 10.7678 22.9999 10.4834 22.7555 10.0966C21.2458 9.86045 19.7287 9.71823 18.2044 9.66996C18.2044 9.48033 18.2044 9.2907 18.2044 9.10107C18.0621 9.10107 17.9199 9.10107 17.7777 9.10107C17.8182 8.84678 17.7709 8.60974 17.6355 8.38996C17.4597 8.49603 17.27 8.54345 17.0666 8.53218C17.0666 8.72181 17.0666 8.91145 17.0666 9.10107C16.7422 9.16119 16.5051 9.06637 16.3555 8.81663C16.5463 8.43749 16.807 8.10563 17.1377 7.82107C17.2993 7.50207 17.4179 7.17022 17.4932 6.82552C17.9599 6.6332 18.4577 6.5384 18.9866 6.54107C19.8593 6.68247 20.7362 6.77727 21.6177 6.82552Z" fill="#E6B37B"/>
<path fill-rule="evenodd" clip-rule="evenodd" d="M13.653 9.10262C13.7952 9.10262 13.9374 9.10262 14.0797 9.10262C14.1343 9.63915 14.3712 10.0658 14.7908 10.3826C13.1168 10.9683 11.4101 11.5135 9.67078 12.0182C9.41212 12.1235 9.22248 12.2894 9.10189 12.516C9.10189 12.6108 9.10189 12.7056 9.10189 12.8004C8.66197 12.5715 8.18789 12.4293 7.67967 12.3737C6.79171 12.0537 5.89097 11.7693 4.97745 11.5204C5.08254 11.539 5.17736 11.5153 5.26189 11.4493C5.03922 11.1185 4.80217 10.8104 4.55078 10.5248C4.55078 10.43 4.55078 10.3352 4.55078 10.2404C4.55078 10.0508 4.55078 9.86114 4.55078 9.67151C5.03562 9.63586 5.50969 9.68327 5.973 9.81373C6.30543 10.0869 6.56617 10.4188 6.75523 10.8093C6.8261 10.3376 6.8498 9.8635 6.82634 9.38707C7.58485 9.29225 8.34338 9.19744 9.10189 9.10262C9.10189 8.913 9.10189 8.72336 9.10189 8.53373C10.0112 8.49208 10.9119 8.53948 11.8041 8.67595C12.1729 8.39525 12.481 8.15822 12.7286 7.96484C13.1729 8.19149 13.2914 8.52334 13.0841 8.9604C13.2532 9.09248 13.4428 9.13988 13.653 9.10262Z" fill="#EFB77D"/>
<path fill-rule="evenodd" clip-rule="evenodd" d="M13.6523 8.25C14.1233 8.90418 14.5974 9.56789 15.0746 10.2411C15.3122 9.81557 15.5967 9.43632 15.9279 9.10333C16.1097 9.0632 16.2519 8.96838 16.3546 8.81889C16.5042 9.06863 16.7413 9.16345 17.0657 9.10333C17.0657 8.91371 17.0657 8.72407 17.0657 8.53444C17.2691 8.54571 17.4588 8.49829 17.6346 8.39222C17.77 8.612 17.8173 8.84904 17.7768 9.10333C17.919 9.10333 18.0612 9.10333 18.2035 9.10333C18.2035 9.29296 18.2035 9.4826 18.2035 9.67222C19.7278 9.72049 21.2449 9.86271 22.7546 10.0989C22.999 10.4857 23.331 10.7701 23.7501 10.9522C24.2709 10.9041 24.3658 10.7382 24.0346 10.4544C24.3265 10.4083 24.611 10.4557 24.8879 10.5967C24.5225 10.8469 24.1906 11.1076 23.8923 11.3789C23.3671 11.5461 22.8929 11.8069 22.4701 12.1611C22.2925 12.2664 22.1503 12.2427 22.0435 12.09C22.1275 11.9973 22.2222 11.9025 22.3279 11.8056C20.2008 11.3232 18.0675 10.8966 15.9279 10.5256C15.6282 10.3879 15.2963 10.3404 14.9323 10.3833C14.885 10.3833 14.8375 10.3833 14.7901 10.3833C14.3706 10.0665 14.1336 9.63987 14.079 9.10333C13.9368 9.10333 13.7946 9.10333 13.6523 9.10333C13.6523 8.81889 13.6523 8.53444 13.6523 8.25Z" fill="#E1AB77"/>
<path fill-rule="evenodd" clip-rule="evenodd" d="M26.5955 11.8041C26.5007 11.8041 26.4059 11.8041 26.3111 11.8041C26.3111 11.6619 26.3111 11.5196 26.3111 11.3774C26.1158 11.3997 25.9261 11.376 25.7422 11.3063C26.0551 10.9227 26.3869 10.5672 26.7377 10.2396C26.9619 10.1482 27.1516 10.006 27.3066 9.81298C27.8112 9.66846 28.2853 9.45512 28.7289 9.17298C29.0058 9.032 29.2902 8.98458 29.5822 9.03076C28.8473 9.67076 28.1126 10.3108 27.3777 10.9508C27.309 11.0856 27.2854 11.2278 27.3066 11.3774C26.9606 11.3451 26.7237 11.4874 26.5955 11.8041Z" fill="#CCA377"/>
<path fill-rule="evenodd" clip-rule="evenodd" d="M2.70206 10.81C3.18587 10.9714 3.65994 11.161 4.12428 11.3789C3.88552 11.3484 3.74329 11.4432 3.69761 11.6634C3.27291 11.4774 2.84624 11.2877 2.41761 11.0945C2.37021 11.0471 2.32279 10.9997 2.27539 10.9523C2.39272 10.8263 2.53495 10.7789 2.70206 10.81Z" fill="#BBA384"/>
<path fill-rule="evenodd" clip-rule="evenodd" d="M15.9277 10.5234C18.0673 10.8945 20.2007 11.3211 22.3277 11.8034C22.2221 11.9004 22.1273 11.9952 22.0433 12.0879C21.4923 12.4793 20.9708 12.906 20.4788 13.3679C20.4449 13.0881 20.4922 12.8274 20.6211 12.5857C20.4885 12.2086 20.2989 12.1612 20.0522 12.4434C20.3452 12.6557 20.3925 12.9165 20.1944 13.2257C20.114 12.9399 19.9718 12.7028 19.7677 12.5145C19.7582 12.8321 19.6397 13.1639 19.4122 13.5101C19.3276 13.3111 19.3513 13.1215 19.4833 12.9412C19.1812 12.8489 18.8968 12.7303 18.63 12.5857C18.8623 12.5155 19.0994 12.4918 19.3411 12.5145C19.3411 12.2775 19.3411 12.0405 19.3411 11.8034C18.5089 11.9209 17.7505 11.755 17.0655 11.3057C16.6861 11.225 16.3069 11.1539 15.9277 11.0923C15.9277 10.9027 15.9277 10.7131 15.9277 10.5234Z" fill="#AE693A"/>
<path fill-rule="evenodd" clip-rule="evenodd" d="M14.7915 11.0946C14.8188 11.7327 14.6293 12.3016 14.2226 12.8013C14.1294 13.0791 14.082 13.3636 14.0804 13.6546C13.9382 13.6546 13.796 13.6546 13.6538 13.6546C13.4641 13.6072 13.2745 13.5598 13.0849 13.5124C12.7698 13.2238 12.4142 12.9868 12.0182 12.8013C11.9708 12.8487 11.9234 12.8961 11.876 12.9435C11.6294 12.837 11.3687 12.7659 11.0938 12.7302C11.3222 12.581 11.4171 12.3677 11.3782 12.0902C11.8348 12.0208 12.2378 12.1156 12.5871 12.3746C12.905 12.1325 13.2606 11.9903 13.6538 11.948C13.6538 11.7583 13.6538 11.5687 13.6538 11.3791C13.796 11.3791 13.9382 11.3791 14.0804 11.3791C14.1034 11.0485 14.2693 10.8115 14.5782 10.668C14.6112 10.844 14.6823 10.9862 14.7915 11.0946Z" fill="#BB703F"/>
<path fill-rule="evenodd" clip-rule="evenodd" d="M14.9336 10.5247C14.9336 10.4773 14.9336 10.4299 14.9336 10.3825C15.2975 10.3396 15.6295 10.387 15.9291 10.5247C15.9291 10.7143 15.9291 10.904 15.9291 11.0936C16.3083 11.1552 16.6875 11.2263 17.0669 11.3069C17.7519 11.7562 18.5103 11.9222 19.3425 11.8047C19.3425 12.0417 19.3425 12.2788 19.3425 12.5158C19.1008 12.493 18.8638 12.5167 18.6314 12.5869C18.8982 12.7316 19.1826 12.8501 19.4847 12.9425C19.3527 13.1228 19.329 13.3124 19.4136 13.5114C19.6411 13.1652 19.7596 12.8333 19.7691 12.5158C19.9732 12.7041 20.1155 12.9411 20.1958 13.2269C20.3939 12.9177 20.3466 12.657 20.0536 12.4447C20.3003 12.1624 20.4899 12.2099 20.6225 12.5869C20.4936 12.8286 20.4463 13.0894 20.4803 13.3691C20.0459 13.8983 19.5717 14.3724 19.058 14.7914C18.96 14.6102 18.8414 14.6102 18.7025 14.7914C18.6736 14.3418 18.8869 14.0336 19.3425 13.8669C19.2003 13.7721 19.058 13.7721 18.9158 13.8669C18.788 14.0427 18.622 14.1613 18.418 14.2225C17.9707 14.1528 17.5678 13.9868 17.2091 13.7247C17.4462 13.6773 17.6832 13.6299 17.9203 13.5825C17.6189 13.2422 17.2397 13.0525 16.7825 13.0136C16.6235 12.8609 16.4813 12.695 16.3558 12.5158C16.1823 12.3436 16.0163 12.3436 15.858 12.5158C15.7911 12.2674 15.6962 12.0304 15.5736 11.8047C15.5262 11.8521 15.4787 11.8995 15.4314 11.9469C15.4042 11.6329 15.3331 11.3485 15.218 11.0936C15.2668 10.8115 15.172 10.6219 14.9336 10.5247Z" fill="#A55E31"/>
<path fill-rule="evenodd" clip-rule="evenodd" d="M14.7924 10.3809C14.8398 10.3809 14.8873 10.3809 14.9346 10.3809C14.9346 10.4283 14.9346 10.4757 14.9346 10.5231C14.9346 10.6179 14.9346 10.7127 14.9346 10.8075C14.8154 10.8561 14.7679 10.9509 14.7924 11.092C14.6832 10.9835 14.6121 10.8413 14.5791 10.6653C14.2702 10.8088 14.1043 11.0458 14.0813 11.3764C13.9391 11.3764 13.7968 11.3764 13.6546 11.3764C13.6546 11.566 13.6546 11.7557 13.6546 11.9453C13.2614 11.9876 12.9059 12.1299 12.588 12.372C12.2387 12.1129 11.8357 12.0181 11.3791 12.0875C11.4179 12.365 11.3231 12.5783 11.0946 12.7275C11.3695 12.7632 11.6303 12.8343 11.8768 12.9409C11.9243 12.8935 11.9717 12.846 12.0191 12.7986C12.4151 12.9841 12.7707 13.2211 13.0857 13.5097C11.7517 13.2144 10.4243 12.8825 9.10352 12.5142C9.22411 12.2876 9.41374 12.1217 9.6724 12.0164C11.4117 11.5117 13.1184 10.9665 14.7924 10.3809Z" fill="#C17E47"/>
<path fill-rule="evenodd" clip-rule="evenodd" d="M14.9338 10.5234C15.1722 10.6206 15.267 10.8103 15.2182 11.0923C15.1946 11.9943 15.2182 12.895 15.2894 13.7945C15.2989 14.1568 15.4175 14.465 15.6449 14.719C15.5604 14.785 15.4656 14.8087 15.3605 14.7901C15.1884 14.7287 15.0462 14.6338 14.9338 14.5057C14.8997 13.33 14.8997 12.0974 14.9338 10.8079C14.9338 10.7131 14.9338 10.6183 14.9338 10.5234Z" fill="#7B3911"/>
<path fill-rule="evenodd" clip-rule="evenodd" d="M14.9323 10.8086C14.8982 12.0982 14.8982 13.3307 14.9323 14.5064C14.431 14.3273 14.0044 14.0429 13.6523 13.653C13.7946 13.653 13.9368 13.653 14.079 13.653C14.0806 13.362 14.128 13.0775 14.2212 12.7997C14.6278 12.3 14.8174 11.7311 14.7901 11.093C14.7657 10.952 14.8132 10.8572 14.9323 10.8086Z" fill="#935026"/>
<path fill-rule="evenodd" clip-rule="evenodd" d="M15.2178 11.0938C15.3329 11.3486 15.404 11.6331 15.4312 11.9471C15.4785 11.8997 15.526 11.8523 15.5734 11.8049C15.696 12.0306 15.7908 12.2676 15.8578 12.516C16.0161 12.3437 16.1821 12.3437 16.3556 12.516C16.4811 12.6951 16.6233 12.8611 16.7823 13.0138C17.2395 13.0527 17.6187 13.2423 17.9201 13.5826C17.683 13.63 17.446 13.6775 17.2089 13.7249C17.5676 13.987 17.9705 14.1529 18.4178 14.2226C18.6218 14.1614 18.7878 14.0429 18.9156 13.8671C19.0578 13.7723 19.2001 13.7723 19.3423 13.8671C18.8867 14.0338 18.6734 14.342 18.7023 14.7915C18.8412 14.6103 18.9598 14.6103 19.0578 14.7915C18.5363 15.2182 18.0623 15.6922 17.6356 16.2138C16.8756 15.8515 16.1171 15.3773 15.3601 14.7915C15.4652 14.8102 15.56 14.7864 15.6445 14.7204C15.4171 14.4664 15.2985 14.1582 15.2889 13.796C15.2178 12.8965 15.1942 11.9957 15.2178 11.0938Z" fill="#964F24"/>
<path fill-rule="evenodd" clip-rule="evenodd" d="M22.7556 13.9364C22.6679 13.9522 22.5968 13.9996 22.5423 14.0786C22.5197 14.8489 22.4248 15.6075 22.2579 16.3542C21.9135 16.562 21.558 16.7516 21.1912 16.9231C21.0527 16.6041 21.0052 16.2723 21.049 15.9275C21.1657 15.4808 21.2368 15.0066 21.2623 14.5053C22.2131 13.6255 23.1849 12.7722 24.1779 11.9453C24.4056 12.0214 24.4767 12.1636 24.3912 12.372C23.7958 12.8462 23.2507 13.3677 22.7556 13.9364Z" fill="#AD7C4E"/>
<path fill-rule="evenodd" clip-rule="evenodd" d="M26.7389 10.2402C26.3881 10.5678 26.0563 10.9233 25.7434 11.3069C25.9273 11.3766 26.117 11.4003 26.3123 11.378C26.3123 11.5202 26.3123 11.6625 26.3123 11.8047C26.0551 11.8035 25.8181 11.8746 25.6012 12.018C25.5113 12.3615 25.3691 12.6697 25.1745 12.9425C24.881 12.9691 24.5965 13.0402 24.3212 13.1558C23.9151 13.2908 23.5832 13.5279 23.3256 13.8669C23.1417 13.9366 22.952 13.9603 22.7567 13.938C23.2518 13.3693 23.7969 12.8478 24.3923 12.3736C24.4778 12.1652 24.4066 12.0229 24.1789 11.9469C23.1859 12.7738 22.2141 13.6271 21.2634 14.5069C21.2379 15.0082 21.1668 15.4824 21.0501 15.9291C21.0501 15.6447 21.0501 15.3602 21.0501 15.0758C20.3984 15.102 19.8057 15.2917 19.2723 15.6447C19.2134 15.5797 19.1423 15.5322 19.0589 15.5025C18.6418 15.86 18.1678 16.0969 17.6367 16.2136C18.0634 15.692 18.5374 15.218 19.0589 14.7913C19.5726 14.3724 20.0468 13.8983 20.4812 13.3691C20.9731 12.9072 21.4946 12.4806 22.0456 12.0891C22.1524 12.2418 22.2946 12.2655 22.4723 12.1602C22.8951 11.806 23.3693 11.5452 23.8945 11.378C24.8484 10.9952 25.7966 10.616 26.7389 10.2402Z" fill="#C99868"/>
<path fill-rule="evenodd" clip-rule="evenodd" d="M7.68128 12.3731C8.1895 12.4286 8.66359 12.5708 9.10351 12.7997C9.43375 13.1075 9.81301 13.3445 10.2413 13.5108C10.8027 13.7928 11.3242 14.1483 11.8057 14.5775C12.0226 14.721 12.2596 14.7921 12.5168 14.7908C12.5168 15.6442 12.5168 16.4975 12.5168 17.3508C11.948 17.2086 11.3791 17.0664 10.8102 16.9242C10.781 16.1109 10.6862 15.305 10.5257 14.5064C9.48734 13.8915 8.49178 13.2041 7.53906 12.4442C7.57155 12.3875 7.61896 12.3638 7.68128 12.3731Z" fill="#8E6439"/>
<path fill-rule="evenodd" clip-rule="evenodd" d="M25.1738 12.9434C25.158 14.6816 25.158 16.4356 25.1738 18.2056C25.0798 18.0324 24.9849 17.8428 24.8893 17.6367C24.453 17.8061 24.0737 18.0432 23.7516 18.3478C23.5493 18.3775 23.3597 18.4486 23.1827 18.5611C23.0265 18.6706 23.0265 18.7891 23.1827 18.9167C23.0405 19.0116 22.8982 19.1063 22.756 19.2011C22.7104 18.981 22.5681 18.8861 22.3293 18.9167C22.4327 19.691 22.2905 20.4021 21.9027 21.05C21.8055 20.9984 21.7107 20.951 21.6182 20.9078C21.4405 20.8969 21.322 20.802 21.2627 20.6234C20.9067 20.905 20.646 21.2368 20.4805 21.6189C20.0447 21.9773 19.5469 22.2618 18.9871 22.4722C18.9634 22.5196 18.9398 22.5671 18.916 22.6145C20.1932 22.8178 20.1457 23.0074 18.7738 23.1834C18.5462 23.1761 18.3329 23.1287 18.1338 23.0411C18.0864 23.3256 18.0389 23.61 17.9916 23.8945C17.9442 23.7996 17.8967 23.7049 17.8493 23.61C17.7267 23.8357 17.6319 24.0728 17.5649 24.3211C17.4938 21.9038 17.47 19.486 17.4938 17.0678C17.4882 16.9138 17.4407 16.7716 17.3516 16.6411C17.5097 16.5323 17.6046 16.3901 17.636 16.2145C18.1671 16.0978 18.6411 15.8609 19.0582 15.5034C19.1416 15.5331 19.2127 15.5806 19.2716 15.6456C19.805 15.2926 20.3977 15.1029 21.0493 15.0767C21.0493 15.3611 21.0493 15.6456 21.0493 15.93C21.0055 16.2748 21.053 16.6066 21.1916 16.9256C21.5584 16.7541 21.9139 16.5645 22.2582 16.3567C22.4252 15.61 22.5201 14.8514 22.5427 14.0811C22.5971 14.0021 22.6683 13.9547 22.756 13.9389C22.9513 13.9612 23.141 13.9375 23.3249 13.8678C23.5825 13.5288 23.9144 13.2917 24.3205 13.1567C24.5958 13.0411 24.8802 12.97 25.1738 12.9434Z" fill="#DCAA76"/>
<path fill-rule="evenodd" clip-rule="evenodd" d="M9.10352 12.5156C10.4243 12.884 11.7517 13.2158 13.0857 13.5112C13.2754 13.5586 13.465 13.606 13.6546 13.6534C14.0067 14.0432 14.4333 14.3277 14.9346 14.5067C15.047 14.6349 15.1892 14.7297 15.3613 14.7912C16.1183 15.377 16.8768 15.8512 17.6368 16.2134C17.6054 16.389 17.5106 16.5313 17.3524 16.6401C17.4416 16.7705 17.4891 16.9127 17.4946 17.0667C17.3614 19.9513 17.3139 22.7957 17.3524 25.6001C17.5763 25.7609 17.8133 25.7847 18.0635 25.6712C18.4814 25.4103 18.908 25.197 19.3435 25.0312C18.9915 25.421 18.5648 25.7055 18.0635 25.8845C17.7583 25.9383 17.4501 25.9858 17.1391 26.0267C16.8585 26.0539 16.6451 25.959 16.4991 25.7423C16.681 25.0566 16.7758 24.3455 16.7835 23.609C16.7834 22.9197 16.736 22.2561 16.6413 21.6178C16.3206 21.3505 15.9413 21.2082 15.5035 21.1912C15.5035 20.9541 15.5035 20.7172 15.5035 20.4801C15.7406 20.4801 15.9775 20.4801 16.2146 20.4801C16.1198 19.7216 16.025 18.963 15.9302 18.2045C14.8356 18.2516 13.7453 18.2041 12.6591 18.0623C12.6117 17.9674 12.5643 17.8727 12.5168 17.7778C12.6961 17.2714 12.8147 16.7499 12.8724 16.2134C13.0432 15.8708 13.2802 15.5863 13.5835 15.3601C14.2668 15.8604 15.049 16.05 15.9302 15.929C15.8156 15.3922 15.4837 15.0367 14.9346 14.8623C14.5472 14.8239 14.1679 14.7528 13.7968 14.649C13.684 14.7103 13.5655 14.7578 13.4413 14.7912C12.6251 14.4021 11.8429 13.9517 11.0946 13.4401C10.8177 13.2991 10.5332 13.2517 10.2413 13.2978C10.6107 13.4087 10.6107 13.4798 10.2413 13.5112C9.81302 13.3449 9.43376 13.1078 9.10352 12.8001C9.10352 12.7052 9.10352 12.6104 9.10352 12.5156Z" fill="#C19163"/>
<path fill-rule="evenodd" clip-rule="evenodd" d="M6.40039 13.5098C6.5873 13.8532 6.68212 14.2562 6.68484 14.7187C6.80181 16.6369 6.84923 18.5569 6.82706 20.4787C6.77965 20.4787 6.73224 20.4787 6.68484 20.4787C6.67865 18.1516 6.58383 15.8287 6.40039 13.5098Z" fill="#B79C80"/>
<path fill-rule="evenodd" clip-rule="evenodd" d="M26.3098 11.8047C26.0253 12.1135 25.7645 12.4453 25.5276 12.8003C25.4564 13.8422 25.4328 14.8851 25.4564 15.9291C25.3616 16.6876 25.2669 17.4462 25.172 18.2047C25.1562 16.4347 25.1562 14.6807 25.172 12.9425C25.3666 12.6697 25.5088 12.3615 25.5987 12.018C25.8156 11.8746 26.0526 11.8035 26.3098 11.8047Z" fill="#D6B38A"/>
<path fill-rule="evenodd" clip-rule="evenodd" d="M4.12589 11.3767C4.41033 11.4241 4.69477 11.4715 4.97922 11.5189C5.89274 11.7678 6.79348 12.0522 7.68144 12.3722C7.61912 12.3629 7.5717 12.3866 7.53922 12.4433C8.49194 13.2032 9.48749 13.8906 10.5259 14.5056C10.6863 15.3041 10.7811 16.1101 10.8103 16.9233C11.3792 17.0656 11.9481 17.2078 12.517 17.35C12.517 16.4967 12.517 15.6433 12.517 14.79C12.2598 14.7913 12.0228 14.7202 11.8059 14.5767C11.3243 14.1475 10.8028 13.792 10.2414 13.51C10.6108 13.4786 10.6108 13.4075 10.2414 13.2967C10.5334 13.2505 10.8178 13.2979 11.0948 13.4389C11.843 13.9505 12.6252 14.4009 13.4414 14.79C13.5656 14.7566 13.6841 14.7091 13.797 14.6478C14.1681 14.7516 14.5474 14.8227 14.9348 14.8611C15.4839 15.0355 15.8157 15.391 15.9303 15.9278C15.0491 16.0488 14.267 15.8592 13.5837 15.3589C13.2804 15.5852 13.0433 15.8696 12.8726 16.2122C12.8148 16.7487 12.6963 17.2702 12.517 17.7767C12.5644 17.8715 12.6118 17.9663 12.6592 18.0611C13.7455 18.2029 14.8358 18.2504 15.9303 18.2033C16.0252 18.9618 16.1199 19.7204 16.2148 20.4789C15.9777 20.4789 15.7407 20.4789 15.5037 20.4789C15.5037 20.716 15.5037 20.9529 15.5037 21.19C15.9414 21.2071 16.3207 21.3493 16.6414 21.6167C16.6878 22.2402 16.6403 22.8564 16.4992 23.4656C16.3539 23.4151 16.259 23.3202 16.2148 23.1811C16.0265 22.8062 16.0265 22.4271 16.2148 22.0433C16.1238 21.5956 15.9815 21.5483 15.7881 21.9011C15.9622 22.2338 15.9622 22.5656 15.7881 22.8967C15.5202 22.8092 15.3779 22.6196 15.3614 22.3278C15.5074 22.0088 15.4836 21.7243 15.2903 21.4745C15.2192 21.5456 15.1481 21.6167 15.077 21.6878C15.2447 22.0854 15.2447 22.4884 15.077 22.8967C14.8874 22.2329 14.6977 21.5693 14.5081 20.9056C14.1219 20.682 13.6953 20.5398 13.2281 20.4789C13.0763 20.3461 12.8866 20.2986 12.6592 20.3367C12.6592 21.0004 12.6592 21.664 12.6592 22.3278C12.4696 22.3278 12.28 22.3278 12.0903 22.3278C11.991 21.9421 11.8014 21.6101 11.5214 21.3322C11.4137 21.5187 11.2715 21.5898 11.0948 21.5456C10.7156 21.2405 10.4311 20.8849 10.2414 20.4789C9.10366 20.4789 7.96589 20.4789 6.82811 20.4789C6.85028 18.5572 6.80286 16.6372 6.68589 14.7189C6.68317 14.2565 6.58835 13.8535 6.40144 13.51C5.87432 12.9832 5.25803 12.5565 4.55255 12.23C4.26287 12.0385 3.97843 11.8489 3.69922 11.6611C3.7449 11.4409 3.88712 11.3461 4.12589 11.3767Z" fill="#BC8E62"/>
<path fill-rule="evenodd" clip-rule="evenodd" d="M23.7511 18.3477C23.7031 18.9338 23.7505 19.4079 23.8933 19.7699C24.1105 19.7803 24.2527 19.6854 24.3199 19.4854C24.4148 19.4854 24.5095 19.4854 24.6044 19.4854C24.8679 19.327 24.939 19.4217 24.8177 19.7699C24.7704 19.7225 24.7229 19.675 24.6755 19.6277C24.4262 19.7879 24.1654 19.9302 23.8933 20.0543C23.7673 20.1717 23.7199 20.3139 23.7511 20.481C23.3641 20.5722 22.9848 20.6433 22.6133 20.6943C22.8918 20.4095 22.9391 20.1014 22.7555 19.7699C22.8504 19.7699 22.9451 19.7699 23.0399 19.7699C23.0471 20.1471 23.1893 20.2893 23.4666 20.1965C23.6562 19.675 23.6562 19.1536 23.4666 18.6321C23.4798 18.8611 23.4325 19.098 23.3244 19.3432C23.3581 19.1596 23.3107 19.0174 23.1822 18.9165C23.026 18.789 23.026 18.6705 23.1822 18.561C23.3592 18.4485 23.5488 18.3774 23.7511 18.3477Z" fill="#A57D4E"/>
<path fill-rule="evenodd" clip-rule="evenodd" d="M23.041 19.7686C23.241 19.7014 23.3358 19.5591 23.3255 19.342C23.4335 19.0968 23.4809 18.8598 23.4677 18.6309C23.6573 19.1524 23.6573 19.6738 23.4677 20.1953C23.1903 20.288 23.0481 20.1458 23.041 19.7686Z" fill="#CDAA7A"/>
<path fill-rule="evenodd" clip-rule="evenodd" d="M25.1733 18.2056C25.1969 19.297 25.1733 20.3874 25.1022 21.4767C25.0067 21.5837 24.8883 21.6312 24.7466 21.6189C23.8158 21.982 22.9151 22.4087 22.0444 22.8989C21.8519 23.0446 21.7571 23.2342 21.7599 23.4678C21.6103 23.4466 21.4681 23.4702 21.3333 23.5389C20.7378 23.9813 20.1214 24.3842 19.4844 24.7478C19.8763 24.1405 20.303 23.548 20.7644 22.9701C20.6695 22.9227 20.5748 22.8752 20.4799 22.8278C20.8592 22.7805 21.2384 22.733 21.6177 22.6856C21.719 22.4829 21.7427 22.2696 21.6888 22.0456C21.8326 22.1646 21.9986 22.212 22.1866 22.1878C22.2094 21.9462 22.1857 21.7091 22.1155 21.4767C21.8209 21.391 21.655 21.2014 21.6177 20.9078C21.7102 20.9511 21.805 20.9984 21.9022 21.0501C22.29 20.4021 22.4322 19.691 22.3288 18.9167C22.5676 18.8861 22.7098 18.981 22.7555 19.2012C22.7555 19.3907 22.7555 19.5805 22.7555 19.7701C22.9391 20.1016 22.8917 20.4096 22.6133 20.6945C22.9847 20.6434 23.3641 20.5723 23.751 20.4812C23.7199 20.3141 23.7673 20.1718 23.8933 20.0545C24.1653 19.9303 24.4262 19.7881 24.6755 19.6278C24.7228 19.6752 24.7703 19.7227 24.8177 19.7701C24.939 19.4219 24.8679 19.3272 24.6044 19.4856C24.6278 19.0564 24.6041 18.6297 24.5333 18.2056C24.4119 18.4367 24.2697 18.4841 24.1066 18.3478C24.0713 18.8341 24.0002 19.3083 23.8933 19.7701C23.7505 19.4081 23.7031 18.9339 23.751 18.3478C24.0732 18.0432 24.4525 17.8061 24.8888 17.6367C24.9844 17.8428 25.0793 18.0324 25.1733 18.2056Z" fill="#C4986B"/>
<path fill-rule="evenodd" clip-rule="evenodd" d="M24.3205 20.1944C24.5331 20.1823 24.6753 20.277 24.7472 20.4788C24.5344 20.8106 24.2736 21.0951 23.9649 21.3322C23.8938 21.1662 23.7753 21.0477 23.6094 20.9766C23.8787 20.82 23.9736 20.6304 23.8938 20.4077C24.0697 20.3747 24.212 20.3036 24.3205 20.1944Z" fill="#835D3C"/>
<path fill-rule="evenodd" clip-rule="evenodd" d="M24.6056 19.4831C24.5108 19.4831 24.4161 19.4831 24.3212 19.4831C24.2539 19.6831 24.1117 19.778 23.8945 19.7676C24.0015 19.3058 24.0726 18.8316 24.1079 18.3453C24.271 18.4816 24.4132 18.4342 24.5345 18.2031C24.6054 18.6272 24.6291 19.0539 24.6056 19.4831Z" fill="#7A4E2F"/>
<path fill-rule="evenodd" clip-rule="evenodd" d="M23.1825 18.916C23.3111 19.0169 23.3585 19.1591 23.3247 19.3427C23.3351 19.5599 23.2403 19.7021 23.0403 19.7693C22.9454 19.7693 22.8507 19.7693 22.7559 19.7693C22.7559 19.5798 22.7559 19.39 22.7559 19.2005C22.8981 19.1056 23.0403 19.0109 23.1825 18.916Z" fill="#492C10"/>
<path fill-rule="evenodd" clip-rule="evenodd" d="M24.3196 19.4842C24.1357 19.2191 24.1357 18.9346 24.3196 18.6309C24.4235 18.9012 24.4235 19.1857 24.3196 19.4842Z" fill="#BF9374"/>
<path fill-rule="evenodd" clip-rule="evenodd" d="M6.82812 20.4805C7.9659 20.4805 9.10368 20.4805 10.2415 20.4805C10.4311 20.8865 10.7156 21.2421 11.0948 21.5471C11.2715 21.5914 11.4137 21.5203 11.5215 21.3338C11.8014 21.6117 11.991 21.9437 12.0903 22.3294C12.28 22.3294 12.4696 22.3294 12.6592 22.3294C12.6827 22.853 12.659 23.3744 12.5881 23.8938C12.2153 23.9228 11.8123 23.9228 11.3792 23.8938C11.3123 23.7241 11.1701 23.6293 10.9526 23.6094C10.3429 23.4221 9.72661 23.2798 9.10368 23.1827C9.10368 23.0405 9.10368 22.8982 9.10368 22.756C8.72442 22.756 8.34517 22.756 7.9659 22.756C7.99705 22.5889 7.94965 22.4467 7.82368 22.3294C7.49227 22.1201 7.16041 22.0728 6.82812 22.1871C6.82812 21.6182 6.82812 21.0494 6.82812 20.4805Z" fill="#B18459"/>
<path fill-rule="evenodd" clip-rule="evenodd" d="M17.4931 17.0664C17.4693 19.4846 17.4931 21.9024 17.5642 24.3197C17.6312 24.0714 17.726 23.8343 17.8486 23.6086C17.896 23.7035 17.9435 23.7982 17.9908 23.8931C18.0382 23.6086 18.0857 23.3242 18.1331 23.0397C18.3322 23.1273 18.5455 23.1747 18.7731 23.182C20.1449 23.006 20.1924 22.8165 18.9153 22.6131C18.939 22.5657 18.9626 22.5182 18.9864 22.4709C19.5462 22.2604 20.044 21.9759 20.4797 21.6175C20.6453 21.2354 20.906 20.9036 21.262 20.622C21.3213 20.8006 21.4397 20.8955 21.6175 20.9064C21.6548 21.2 21.8207 21.3895 22.1153 21.4753C22.1855 21.7077 22.2092 21.9448 22.1864 22.1864C21.9984 22.2106 21.8324 22.1632 21.6886 22.0442C21.7425 22.2682 21.7188 22.4815 21.6175 22.6842C21.2382 22.7315 20.859 22.779 20.4797 22.8264C20.5746 22.8738 20.6693 22.9213 20.7642 22.9686C20.3028 23.5466 19.8761 24.1391 19.4842 24.7464C19.4842 24.8413 19.5315 24.8886 19.6264 24.8886C19.6264 24.936 19.6264 24.9835 19.6264 25.0309C19.5315 25.0309 19.4368 25.0309 19.342 25.0309C18.9065 25.1967 18.4798 25.41 18.062 25.6709C17.8118 25.7843 17.5747 25.7606 17.3508 25.5997C17.3123 22.7954 17.3598 19.951 17.4931 17.0664Z" fill="#D09E6C"/>
<path fill-rule="evenodd" clip-rule="evenodd" d="M22.8992 21.0485C23.0488 21.0273 23.191 21.0509 23.3258 21.1196C23.151 21.3371 22.9377 21.5031 22.6858 21.6174C22.6432 21.3947 22.7143 21.2051 22.8992 21.0485Z" fill="#4A250F"/>
<path fill-rule="evenodd" clip-rule="evenodd" d="M16.212 23.1832C15.8405 23.0594 15.4612 22.9646 15.0742 22.8988C15.2419 22.4905 15.2419 22.0875 15.0742 21.6899C15.1453 21.6188 15.2164 21.5477 15.2876 21.4766C15.4808 21.7264 15.5046 22.0109 15.3587 22.3299C15.3752 22.6217 15.5174 22.8113 15.7853 22.8988C15.9594 22.5677 15.9594 22.2359 15.7853 21.9032C15.9788 21.5504 16.121 21.5977 16.212 22.0455C16.0237 22.4292 16.0237 22.8083 16.212 23.1832Z" fill="#49220B"/>
<path fill-rule="evenodd" clip-rule="evenodd" d="M13.227 20.4805C13.6942 20.5413 14.1208 20.6836 14.507 20.9071C14.6383 21.5274 14.6383 22.1436 14.507 22.756C13.8823 22.5815 13.8349 22.6289 14.3648 22.8982C14.4732 23.0587 14.568 23.2246 14.6493 23.396C14.6202 23.7688 14.6202 24.1718 14.6493 24.6049C14.3648 24.5576 14.0804 24.5101 13.7959 24.4627C13.7959 24.2731 13.7959 24.0834 13.7959 23.8938C13.8501 23.6903 13.9923 23.5718 14.2226 23.5382C13.991 23.0902 13.6591 22.9718 13.227 23.1827C13.5479 23.3137 13.6901 23.5508 13.6537 23.8938C13.4122 24.267 13.1515 24.267 12.8715 23.8938C12.8478 23.6331 12.8241 23.3723 12.8004 23.1116C12.8146 22.7842 12.9095 22.4997 13.0848 22.2582C12.8162 21.7127 12.7214 21.12 12.8004 20.4805C12.9426 20.4805 13.0848 20.4805 13.227 20.4805Z" fill="#A9845E"/>
<path fill-rule="evenodd" clip-rule="evenodd" d="M24.7466 21.6191C24.1157 22.1577 23.4519 22.6318 22.7555 23.0414C21.7086 23.6593 20.6657 24.2756 19.6266 24.8903C19.5317 24.8903 19.4844 24.8429 19.4844 24.748C20.1214 24.3844 20.7378 23.9815 21.3333 23.5391C21.4681 23.4704 21.6103 23.4468 21.7599 23.468C21.7571 23.2344 21.8519 23.0448 22.0444 22.8991C22.9151 22.4089 23.8158 21.9822 24.7466 21.6191Z" fill="#B28E6D"/>
<path fill-rule="evenodd" clip-rule="evenodd" d="M11.3792 23.8923C12.4812 24.3626 13.619 24.7655 14.7925 25.1012C14.9711 25.1605 15.066 25.279 15.0769 25.4567C12.3494 24.5676 9.64713 23.5958 6.97027 22.5412C6.86326 22.4458 6.81584 22.3273 6.82805 22.1856C7.16033 22.0713 7.49219 22.1187 7.8236 22.3279C7.94957 22.4452 7.99697 22.5874 7.96582 22.7545C8.34509 22.7545 8.72434 22.7545 9.1036 22.7545C9.1036 22.8967 9.1036 23.039 9.1036 23.1812C9.72653 23.2783 10.3428 23.4206 10.9525 23.6079C11.17 23.6278 11.3123 23.7226 11.3792 23.8923Z" fill="#8C735B"/>
<path fill-rule="evenodd" clip-rule="evenodd" d="M13.2278 20.4811C13.0856 20.4811 12.9434 20.4811 12.8011 20.4811C12.7221 21.1207 12.8169 21.7133 13.0856 22.2589C12.9102 22.5004 12.8154 22.7848 12.8011 23.1122C12.8248 23.3729 12.8485 23.6338 12.8722 23.8945C13.1522 24.2676 13.413 24.2676 13.6545 23.8945C13.7019 23.8945 13.7493 23.8945 13.7967 23.8945C13.7967 24.084 13.7967 24.2738 13.7967 24.4633C14.0811 24.5107 14.3656 24.5582 14.65 24.6056C14.621 24.1725 14.621 23.7694 14.65 23.3967C14.5688 23.2253 14.4739 23.0593 14.3656 22.8989C13.8356 22.6295 13.883 22.5822 14.5078 22.7567C14.6391 22.1443 14.6391 21.528 14.5078 20.9078C14.6974 21.5715 14.8871 22.2352 15.0767 22.8989C15.4637 22.9648 15.843 23.0595 16.2145 23.1833C16.2587 23.3224 16.3536 23.4173 16.4989 23.4678C16.64 22.8587 16.6875 22.2424 16.6411 21.6189C16.7358 22.2572 16.7832 22.9208 16.7834 23.61C16.7757 24.3466 16.6808 25.0577 16.4989 25.7433C16.645 25.9601 16.8583 26.055 17.1389 26.0278C17.4499 25.9868 17.7581 25.9393 18.0634 25.8856C17.8568 26.1131 17.5962 26.2553 17.2811 26.3122C16.5019 26.1016 15.767 25.8172 15.0767 25.4589C15.0657 25.2811 14.9709 25.1627 14.7922 25.1033C13.6187 24.7677 12.481 24.3648 11.3789 23.8945C11.812 23.9235 12.215 23.9235 12.5878 23.8945C12.6587 23.3751 12.6824 22.8537 12.6589 22.33C12.6589 21.6663 12.6589 21.0027 12.6589 20.3389C12.8863 20.3008 13.076 20.3483 13.2278 20.4811Z" fill="#926D49"/>
<path fill-rule="evenodd" clip-rule="evenodd" d="M13.7955 23.8944C13.748 23.8944 13.7006 23.8944 13.6532 23.8944C13.6896 23.5514 13.5474 23.3143 13.2266 23.1833C13.6587 22.9724 13.9905 23.0909 14.2221 23.5389C13.9918 23.5724 13.8496 23.6909 13.7955 23.8944Z" fill="#482312"/>
<path fill-rule="evenodd" clip-rule="evenodd" d="M13.2266 20.9062C13.3358 21.0148 13.4069 21.157 13.4399 21.3329C13.4753 21.1731 13.5464 21.0308 13.6532 20.9062C13.829 21.0123 14.0187 21.0597 14.2221 21.0485C14.1425 21.5054 13.9765 21.9321 13.7243 22.3285C13.5169 21.8634 13.3509 21.3894 13.2266 20.9062Z" fill="#3F200A"/>
<path fill-rule="evenodd" clip-rule="evenodd" d="M15.5012 23.75C15.9767 23.8218 16.3085 24.0827 16.4968 24.5322C16.3399 24.5531 16.174 24.6716 15.999 24.8878C15.7646 24.7147 15.5039 24.5962 15.2168 24.5322C15.2959 24.4778 15.3432 24.4066 15.359 24.3189C15.3209 24.0915 15.3684 23.9019 15.5012 23.75Z" fill="#6C4A2E"/>
<path fill-rule="evenodd" clip-rule="evenodd" d="M15.3599 24.321C15.3441 24.4088 15.2967 24.4799 15.2176 24.5343C15.5048 24.5983 15.7655 24.7168 15.9999 24.8899C16.1748 24.6737 16.3408 24.5553 16.4976 24.5343C16.3093 24.0848 15.9775 23.8239 15.5021 23.7521C15.3155 23.7462 15.1258 23.7462 14.9332 23.7521C14.7436 23.515 14.7436 23.2781 14.9332 23.041C15.4965 23.2605 16.0654 23.45 16.6399 23.6099C16.6399 24.1788 16.6399 24.7477 16.6399 25.3166C16.0592 25.1712 15.4903 24.9815 14.9332 24.7477C14.665 24.0529 14.8072 23.9107 15.3599 24.321Z" fill="#AB865F"/>
</svg>
