<svg width="32" height="32" viewBox="0 0 32 32" fill="none" xmlns="http://www.w3.org/2000/svg">
<g clip-path="url(#clip0_90_327)">
<path fill-rule="evenodd" clip-rule="evenodd" d="M-0.0800781 -0.0839844C10.5866 -0.0839844 21.2532 -0.0839844 31.9199 -0.0839844C31.9199 10.5827 31.9199 21.2493 31.9199 31.916C21.2532 31.916 10.5866 31.916 -0.0800781 31.916C-0.0800781 21.2493 -0.0800781 10.5827 -0.0800781 -0.0839844Z" fill="black"/>
<path fill-rule="evenodd" clip-rule="evenodd" d="M16.7207 8.54929C19.1482 8.32472 21.6015 8.32472 24.0807 8.54929C24.3196 8.65784 24.4796 8.82715 24.5607 9.05723C24.0591 8.79931 23.5258 8.68643 22.9607 8.7186C20.909 8.55005 18.829 8.49362 16.7207 8.54929Z" fill="#2C0200"/>
<path fill-rule="evenodd" clip-rule="evenodd" d="M25.5191 10.0747C25.8157 11.0885 25.9757 12.1326 25.9991 13.2069C26.0255 14.0252 25.8655 14.7871 25.5191 15.4926C25.5191 15.7184 25.5191 15.9442 25.5191 16.1699C25.4123 16.1699 25.3058 16.1699 25.1991 16.1699C25.0923 16.1699 24.9858 16.1699 24.8791 16.1699C23.7853 16.5163 22.6653 16.742 21.5191 16.8471C20.768 16.7872 20.0215 16.759 19.2791 16.7625C19.1215 18.3569 19.0682 19.9654 19.1191 21.5879C18.4258 21.5879 17.7323 21.5879 17.0391 21.5879C17.0391 17.3551 17.0391 13.1223 17.0391 8.88947C19.0131 8.86128 20.9864 8.88949 22.9591 8.97413C23.8346 9.29213 24.6879 9.65896 25.5191 10.0747Z" fill="#E5452F"/>
<path fill-rule="evenodd" clip-rule="evenodd" d="M19.4395 10.9207C20.3476 10.8926 21.2543 10.9208 22.1595 11.0053C22.306 11.0525 22.4126 11.1371 22.4795 11.2593C21.7862 11.2593 21.0927 11.2593 20.3995 11.2593C20.4459 11.9457 20.3391 12.0304 20.0795 11.5133C19.9276 11.4088 19.7943 11.437 19.6795 11.5979C19.5996 12.5557 19.5729 13.5152 19.5995 14.4762C20.7233 14.4872 21.8433 14.4308 22.9595 14.3069C22.9081 14.569 22.7481 14.6819 22.4795 14.6456C21.4662 14.6456 20.4527 14.6456 19.4395 14.6456C19.4395 13.4039 19.4395 12.1623 19.4395 10.9207Z" fill="#200301"/>
<path fill-rule="evenodd" clip-rule="evenodd" d="M19.2793 10.9203C20.5833 10.7522 21.9166 10.6957 23.2793 10.7509C23.2793 10.9203 23.2793 11.0896 23.2793 11.2589C23.1726 11.2589 23.066 11.2589 22.9593 11.2589C22.7993 11.2589 22.6393 11.2589 22.4793 11.2589C22.4124 11.1367 22.3059 11.052 22.1593 11.0049C21.2542 10.9204 20.3475 10.8921 19.4393 10.9203C19.386 10.9203 19.3326 10.9203 19.2793 10.9203Z" fill="#B24D48"/>
<path fill-rule="evenodd" clip-rule="evenodd" d="M22.9609 11.2598C23.0677 11.2598 23.1742 11.2598 23.2809 11.2598C23.3342 11.4291 23.4409 11.542 23.6009 11.5984C23.6513 12.2539 23.5981 12.8747 23.4409 13.4608C23.5629 12.6324 23.4029 11.8987 22.9609 11.2598Z" fill="#540E0F"/>
<path fill-rule="evenodd" clip-rule="evenodd" d="M23.5993 11.5977C23.698 11.6164 23.778 11.6728 23.8393 11.767C23.9951 12.7299 23.9151 13.6611 23.5993 14.5606C22.866 14.9949 22.066 15.1924 21.1993 15.1532C20.6126 15.125 20.026 15.0968 19.4393 15.0686C19.3503 15.0038 19.2971 14.9191 19.2793 14.8146C20.3759 14.8694 21.4427 14.813 22.4793 14.6453C22.7479 14.6816 22.9079 14.5688 22.9593 14.3067C23.1873 14.0659 23.3473 13.7837 23.4393 13.4601C23.5964 12.8739 23.6497 12.2531 23.5993 11.5977Z" fill="#BF493E"/>
<path fill-rule="evenodd" clip-rule="evenodd" d="M25.5195 10.0742C25.6728 10.1509 25.8063 10.2638 25.9195 10.4128C26.0704 10.8786 26.2037 11.3301 26.3195 11.7673C26.3797 12.9224 26.2464 14.0511 25.9195 15.1536C25.8063 15.3027 25.6728 15.4155 25.5195 15.4922C25.8659 14.7867 26.0259 14.0248 25.9995 13.2065C25.9762 12.1322 25.8162 11.0881 25.5195 10.0742Z" fill="#A9483F"/>
<path fill-rule="evenodd" clip-rule="evenodd" d="M22.4798 11.2598C22.6398 11.2598 22.7998 11.2598 22.9598 11.2598C23.4017 11.8987 23.5617 12.6324 23.4398 13.4608C23.3478 13.7844 23.1878 14.0666 22.9598 14.3074C21.8436 14.4313 20.7236 14.4877 19.5998 14.4767C19.5732 13.5156 19.5999 12.5562 19.6798 11.5984C19.7947 11.4374 19.9279 11.4092 20.0798 11.5137C20.3395 12.0308 20.4462 11.9462 20.3998 11.2598C21.0931 11.2598 21.7865 11.2598 22.4798 11.2598Z" fill="#050203"/>
<path fill-rule="evenodd" clip-rule="evenodd" d="M26.3195 11.7676C26.4351 11.8383 26.5151 11.9511 26.5595 12.1062C26.5989 12.9311 26.6789 13.7494 26.7995 14.5612C26.665 15.1115 26.345 15.4219 25.8395 15.4924C25.8944 15.8282 25.7877 16.054 25.5195 16.1697C25.5195 15.944 25.5195 15.7182 25.5195 15.4924C25.6728 15.4158 25.8063 15.3029 25.9195 15.1538C26.2464 14.0513 26.3797 12.9226 26.3195 11.7676Z" fill="#200604"/>
<path fill-rule="evenodd" clip-rule="evenodd" d="M22.9592 8.72019C23.5243 8.68803 24.0576 8.80091 24.5592 9.05882C24.9358 9.34458 25.2558 9.68321 25.5192 10.0747C24.688 9.659 23.8347 9.29217 22.9592 8.97416C20.9865 8.88952 19.0133 8.86132 17.0392 8.88951C17.0392 13.1223 17.0392 17.3551 17.0392 21.5879C16.8795 17.3279 16.8262 13.0386 16.8792 8.72019C18.9059 8.72019 20.9325 8.72019 22.9592 8.72019Z" fill="#CB4D40"/>
<path fill-rule="evenodd" clip-rule="evenodd" d="M19.2793 10.9199C19.3326 10.9199 19.386 10.9199 19.4393 10.9199C19.4393 12.1615 19.4393 13.4032 19.4393 14.6448C20.4526 14.6448 21.466 14.6448 22.4793 14.6448C21.4427 14.8125 20.3759 14.869 19.2793 14.8141C19.2793 13.516 19.2793 12.218 19.2793 10.9199Z" fill="#54140F"/>
<path fill-rule="evenodd" clip-rule="evenodd" d="M12.7207 13.7988C13.574 13.7988 14.4274 13.7988 15.2807 13.7988C15.2807 16.3949 15.2807 18.9911 15.2807 21.5872C14.4582 21.7545 13.6049 21.8108 12.7207 21.7565C12.7207 19.1039 12.7207 16.4514 12.7207 13.7988Z" fill="#E44632"/>
<path fill-rule="evenodd" clip-rule="evenodd" d="M12.7207 13.7982C12.7207 13.7418 12.7207 13.6853 12.7207 13.6289C13.6274 13.6289 14.534 13.6289 15.4407 13.6289C15.4934 16.3112 15.4401 18.9638 15.2807 21.5866C15.2807 18.9905 15.2807 16.3943 15.2807 13.7982C14.4274 13.7982 13.574 13.7982 12.7207 13.7982Z" fill="#BD5446"/>
<path fill-rule="evenodd" clip-rule="evenodd" d="M12.7207 13.6289C13.6503 13.4614 14.6103 13.405 15.6007 13.4596C15.6007 16.3379 15.6007 19.2162 15.6007 22.0945C14.5725 22.1995 13.6125 22.0866 12.7207 21.7559C13.6049 21.8103 14.4582 21.7539 15.2807 21.5866C15.4401 18.9638 15.4934 16.3112 15.4407 13.6289C14.534 13.6289 13.6274 13.6289 12.7207 13.6289Z" fill="#7E2D23"/>
<path fill-rule="evenodd" clip-rule="evenodd" d="M16.7198 8.55003C18.8281 8.49436 20.9081 8.55079 22.9598 8.71934C20.9331 8.71934 18.9065 8.71934 16.8798 8.71934C16.8269 13.0377 16.8801 17.327 17.0398 21.5871C17.7331 21.5871 18.4265 21.5871 19.1198 21.5871C19.1731 21.5871 19.2265 21.5871 19.2798 21.5871C19.2798 21.7 19.2798 21.8128 19.2798 21.9257C18.4574 22.093 17.604 22.1494 16.7198 22.095C16.5101 17.5564 16.5101 13.0414 16.7198 8.55003Z" fill="#86312B"/>
<path fill-rule="evenodd" clip-rule="evenodd" d="M24.8802 16.1699C24.7084 16.4044 24.4951 16.6019 24.2402 16.7625C22.6669 17.1438 21.0669 17.2848 19.4402 17.1858C19.4924 18.684 19.4391 20.1515 19.2802 21.5879C19.2269 21.5879 19.1735 21.5879 19.1202 21.5879C19.0693 19.9654 19.1226 18.3569 19.2802 16.7625C20.0226 16.759 20.7692 16.7872 21.5202 16.8472C22.6664 16.7421 23.7864 16.5163 24.8802 16.1699Z" fill="#B0443C"/>
<path fill-rule="evenodd" clip-rule="evenodd" d="M9.03934 16.6777C8.987 18.3451 9.04033 19.9817 9.19934 21.5878C9.98266 21.9173 10.836 22.0302 11.7593 21.9264C10.8418 22.1508 9.9085 22.1508 8.95934 21.9264C8.8273 20.1473 8.85398 18.3976 9.03934 16.6777Z" fill="#68221B"/>
<path fill-rule="evenodd" clip-rule="evenodd" d="M9.04093 16.6777C9.9476 16.6777 10.8543 16.6777 11.7609 16.6777C11.7609 16.7342 11.7609 16.7906 11.7609 16.847C11.7609 18.5402 11.7609 20.2333 11.7609 21.9264C10.8376 22.0302 9.98425 21.9173 9.20093 21.5878C9.04192 19.9817 8.98859 18.3451 9.04093 16.6777Z" fill="#AF5045"/>
<path fill-rule="evenodd" clip-rule="evenodd" d="M24.8793 16.1699C24.986 16.1699 25.0926 16.1699 25.1993 16.1699C25.1086 16.4289 25.002 16.6829 24.8793 16.9318C23.1691 17.5505 21.4091 17.6915 19.5993 17.3551C19.7014 18.9458 19.5947 20.4696 19.2793 21.9265C19.2793 21.8136 19.2793 21.7008 19.2793 21.5879C19.4382 20.1515 19.4915 18.684 19.4393 17.1858C21.066 17.2848 22.666 17.1438 24.2393 16.7625C24.4942 16.6019 24.7075 16.4044 24.8793 16.1699Z" fill="#260504"/>
<path fill-rule="evenodd" clip-rule="evenodd" d="M8.08074 18.3704C8.08074 19.612 8.08074 20.8537 8.08074 22.0953C7.06741 22.0953 6.05406 22.0953 5.04074 22.0953C4.98874 20.8223 5.04208 19.5807 5.20074 18.3704C6.16074 18.1447 7.12074 18.1447 8.08074 18.3704Z" fill="#511008"/>
<path fill-rule="evenodd" clip-rule="evenodd" d="M5.19922 18.3711C6.10589 18.3711 7.01255 18.3711 7.91922 18.3711C7.91922 19.5563 7.91922 20.7415 7.91922 21.9266C7.01255 21.9266 6.10589 21.9266 5.19922 21.9266C5.19922 20.7415 5.19922 19.5563 5.19922 18.3711Z" fill="#BA4D42"/>
<path fill-rule="evenodd" clip-rule="evenodd" d="M5.99953 18.5394C6.54328 18.4853 7.0766 18.5416 7.59953 18.7088C7.75224 19.6576 7.80556 20.6171 7.75953 21.5871C7.01286 21.5871 6.2662 21.5871 5.51953 21.5871C5.51953 20.6276 5.51953 19.6682 5.51953 18.7088C5.72609 18.7489 5.88609 18.6925 5.99953 18.5394Z" fill="#E54531"/>
<path fill-rule="evenodd" clip-rule="evenodd" d="M11.7591 16.6779C10.8524 16.6779 9.94573 16.6779 9.03906 16.6779C8.8537 18.3977 8.82703 20.1474 8.95906 21.9265C9.90823 22.1509 10.8416 22.1509 11.7591 21.9265C11.7591 20.2334 11.7591 18.5403 11.7591 16.8472C11.9635 18.6278 12.1235 20.4339 12.2391 22.2652C11.306 22.328 10.3727 22.3844 9.43906 22.4345C9.12169 22.3937 8.82836 22.2807 8.55906 22.0958C8.31892 22.3078 8.05226 22.4771 7.75906 22.6038C6.85785 22.3369 5.95119 22.1676 5.03906 22.0958C6.05239 22.0958 7.06573 22.0958 8.07906 22.0958C8.07906 20.8543 8.07906 19.6125 8.07906 18.371C8.23749 19.4114 8.29082 20.4837 8.23906 21.5879C8.39906 21.5879 8.55906 21.5879 8.71906 21.5879C8.71757 19.9461 8.6909 18.3094 8.63906 16.6779C8.77239 16.5368 8.90573 16.3957 9.03906 16.2546C9.94898 16.3398 10.8557 16.3116 11.7591 16.1699C11.7591 16.3392 11.7591 16.5085 11.7591 16.6779Z" fill="#1A0100"/>
<path fill-rule="evenodd" clip-rule="evenodd" d="M11.2794 21.587C11.2794 20.1196 11.2794 18.6523 11.2794 17.1849C10.6877 17.1937 10.1011 17.2502 9.51943 17.3542C9.41959 18.7627 9.36625 20.1736 9.35943 21.587C9.3061 21.587 9.25276 21.587 9.19943 21.587C9.17281 20.1186 9.19946 18.6511 9.27943 17.1849C10.0261 16.9592 10.7728 16.9592 11.5194 17.1849C11.5461 17.9185 11.5728 18.6523 11.5994 19.386C11.5982 20.1854 11.4915 20.9191 11.2794 21.587Z" fill="#DD4839"/>
<path fill-rule="evenodd" clip-rule="evenodd" d="M11.2794 21.5877C10.6394 21.5877 9.99937 21.5877 9.35938 21.5877C9.36619 20.1742 9.41953 18.7634 9.51937 17.3549C10.101 17.2509 10.6877 17.1944 11.2794 17.1855C11.2794 18.653 11.2794 20.1202 11.2794 21.5877Z" fill="#E9452D"/>
</g>
<defs>
<clipPath id="clip0_90_327">
<rect width="32" height="32" fill="white"/>
</clipPath>
</defs>
</svg>
