<svg width="32" height="32" viewBox="0 0 32 32" fill="none" xmlns="http://www.w3.org/2000/svg">
<g clip-path="url(#clip0_90_561)">
<path fill-rule="evenodd" clip-rule="evenodd" d="M-0.0703125 -0.0703125C10.5964 -0.0703125 21.263 -0.0703125 31.9297 -0.0703125C31.9297 10.5964 31.9297 21.263 31.9297 31.9297C21.263 31.9297 10.5964 31.9297 -0.0703125 31.9297C-0.0703125 21.263 -0.0703125 10.5964 -0.0703125 -0.0703125Z" fill="#C8A6FA"/>
<path fill-rule="evenodd" clip-rule="evenodd" d="M24.9591 10.3109C24.9591 10.2635 24.9591 10.2161 24.9591 10.1687C25.3598 9.7526 25.7628 9.32594 26.168 8.8887C26.8023 6.58389 25.9253 5.42241 23.5369 5.40426C23.3142 5.49076 23.1245 5.60927 22.968 5.75981C22.5038 5.98653 22.1245 6.31839 21.8303 6.75537C21.7829 6.75537 21.7354 6.75537 21.688 6.75537C21.6365 6.19705 21.8736 5.8178 22.3991 5.61759C22.6482 4.62238 22.3875 4.48015 21.6169 5.19092C21.4245 5.02235 21.2585 4.83272 21.1191 4.62204C21.6321 4.48135 22.1537 4.43393 22.6836 4.47981C22.6836 4.71685 22.6836 4.95388 22.6836 5.19092C23.068 5.12614 23.4473 5.03134 23.8214 4.90648C24.4333 5.15817 25.0496 5.27668 25.6703 5.26204C25.9294 5.6632 26.2376 6.01876 26.5947 6.3287C26.7378 7.24764 26.7615 8.14839 26.6658 9.03092C26.5236 9.03092 26.3814 9.03092 26.2391 9.03092C26.2172 9.88998 25.7906 10.3166 24.9591 10.3109Z" fill="#BDA8F2"/>
<path fill-rule="evenodd" clip-rule="evenodd" d="M9.88494 6.61346C10.122 6.80308 10.359 6.99272 10.5961 7.18235C10.5738 7.37768 10.5975 7.56731 10.6672 7.75124C11.9922 9.31174 12.8218 11.1132 13.1561 13.1557C11.2514 12.8067 9.54476 12.0482 8.03606 10.8801C8.09661 10.7339 8.09661 10.5443 8.03606 10.3112C7.61038 10.171 7.18372 10.0288 6.75606 9.88457C6.53772 9.49607 6.27698 9.11683 5.97383 8.74679C5.88393 7.88552 5.93134 7.07959 6.11606 6.32901C6.28261 6.13087 6.49595 6.01236 6.75606 5.97346C7.41976 5.87864 8.08346 5.87864 8.74717 5.97346C8.96468 6.22816 9.20172 6.46521 9.45828 6.68457C9.63597 6.78983 9.77819 6.76613 9.88494 6.61346Z" fill="#032652"/>
<path fill-rule="evenodd" clip-rule="evenodd" d="M22.9698 5.76077C23.6352 5.73719 24.2989 5.76089 24.9609 5.83189C26.1792 6.6225 26.4399 7.68917 25.7431 9.03189C25.2688 9.69592 24.6288 10.0989 23.8231 10.2408C24.0127 10.383 24.0127 10.5252 23.8231 10.6674C23.0056 10.4174 22.6265 10.7255 22.6853 11.5919C21.4346 12.2781 20.1073 12.7995 18.7031 13.1563C19.1823 10.7286 20.2253 8.59531 21.832 6.75633C22.1263 6.31935 22.5056 5.98749 22.9698 5.76077Z" fill="#032653"/>
<path fill-rule="evenodd" clip-rule="evenodd" d="M7.18164 5.47623C8.01666 5.30745 8.86999 5.33116 9.74164 5.54734C10.1894 5.82221 10.3791 6.22518 10.3105 6.75623C10.6257 6.72417 10.8627 6.84268 11.0216 7.11178C11.8628 7.30801 12.7161 7.47394 13.5816 7.60956C13.5816 7.46734 13.5816 7.32511 13.5816 7.18289C15.0987 7.18289 16.6157 7.18289 18.1328 7.18289C18.1328 7.41993 18.1328 7.65696 18.1328 7.894C16.6157 7.894 15.0987 7.894 13.5816 7.894C13.5816 8.08363 13.5816 8.27327 13.5816 8.46289C12.5337 8.15208 11.5381 7.72541 10.595 7.18289C10.3579 6.99327 10.1209 6.80363 9.88386 6.614C9.23122 5.6843 8.33048 5.30503 7.18164 5.47623Z" fill="#C1A8F6"/>
<path fill-rule="evenodd" clip-rule="evenodd" d="M21.6887 6.75471C21.2856 7.07465 20.859 7.38279 20.4087 7.67915C18.2072 8.76599 15.9317 9.02674 13.582 8.46137C15.1072 8.49088 16.6243 8.39608 18.1331 8.17693C18.9549 7.89789 19.7607 7.58974 20.5509 7.25248C20.8109 6.83401 21.1902 6.66808 21.6887 6.75471Z" fill="#BEA7F2"/>
<path fill-rule="evenodd" clip-rule="evenodd" d="M7.18198 5.47548C8.33083 5.30428 9.23156 5.68355 9.88421 6.61326C9.77745 6.76593 9.63523 6.78963 9.45754 6.68437C9.20098 6.465 8.96394 6.22796 8.74643 5.97326C8.08272 5.87844 7.41903 5.87844 6.75532 5.97326C6.49521 6.01215 6.28187 6.13067 6.11532 6.32881C5.9306 7.07939 5.8832 7.88532 5.97309 8.74659C6.27624 9.11662 6.53698 9.49587 6.75532 9.88437C7.18298 10.0286 7.60965 10.1708 8.03532 10.311C8.09587 10.5441 8.09587 10.7337 8.03532 10.8799C7.9405 10.8325 7.84569 10.7851 7.75087 10.7377C7.56321 10.5326 7.32617 10.4378 7.03976 10.4533C6.56603 9.95555 6.11566 9.43406 5.68865 8.88881C4.98394 7.21726 5.48172 6.07948 7.18198 5.47548Z" fill="#16255C"/>
<path fill-rule="evenodd" clip-rule="evenodd" d="M24.9592 10.1687C24.4946 10.4428 24.0679 10.7747 23.6792 11.1643C23.3608 11.3475 23.029 11.4897 22.6837 11.591C22.6248 10.7246 23.004 10.4164 23.8214 10.6665C24.011 10.5243 24.011 10.3821 23.8214 10.2399C24.6271 10.098 25.2671 9.695 25.7414 9.03096C26.4382 7.68824 26.1775 6.62158 24.9592 5.83096C24.2972 5.75997 23.6336 5.73627 22.9681 5.75985C23.1246 5.60931 23.3143 5.4908 23.537 5.4043C25.9253 5.42244 26.8024 6.58393 26.1681 8.88874C25.7629 9.32597 25.3599 9.75264 24.9592 10.1687Z" fill="#0E2558"/>
<path fill-rule="evenodd" clip-rule="evenodd" d="M21.6893 6.75586C21.7367 6.75586 21.7842 6.75586 21.8315 6.75586C20.2249 8.59484 19.1818 10.7282 18.7027 13.1559C16.8518 13.5116 15.0029 13.5116 13.156 13.1559C12.8218 11.1134 11.9921 9.31192 10.6671 7.75141C10.5974 7.56749 10.5737 7.37785 10.596 7.18253C11.5391 7.72505 12.5347 8.15171 13.5827 8.46253C15.9323 9.02789 18.2079 8.76714 20.4093 7.6803C20.8596 7.38394 21.2863 7.0758 21.6893 6.75586Z" fill="#6466A6"/>
<path fill-rule="evenodd" clip-rule="evenodd" d="M24.9591 10.168C24.9591 10.2154 24.9591 10.2628 24.9591 10.3102C23.2583 12.6484 22.713 15.2558 23.3236 18.1324C23.6157 19.408 24.161 20.5458 24.9591 21.5457C24.9591 21.5931 24.9591 21.6406 24.9591 21.688C24.6385 21.5578 24.3541 21.3683 24.1058 21.1191C22.488 19.9315 20.6866 19.1256 18.7013 18.7013C18.5504 17.7615 18.4557 16.8133 18.4169 15.8569C18.4015 15.0931 18.4489 14.3347 18.5591 13.5813C18.5672 13.4236 18.6146 13.2814 18.7013 13.1546C20.1055 12.7978 21.4328 12.2764 22.6836 11.5902C23.0289 11.4889 23.3607 11.3467 23.6791 11.1635C24.0678 10.7739 24.4945 10.4421 24.9591 10.168Z" fill="#6466A6"/>
<path fill-rule="evenodd" clip-rule="evenodd" d="M7.04066 10.4528C7.32707 10.4374 7.56411 10.5322 7.75177 10.7372C7.75177 10.9269 7.75177 11.1165 7.75177 11.3061C7.9414 11.3061 8.13103 11.3061 8.32066 11.3061C8.34484 11.4942 8.29742 11.6601 8.17844 11.8039C8.40212 12.1452 8.61546 12.5008 8.81844 12.8706C9.12012 12.5922 9.47567 12.5211 9.8851 12.6572C10.058 12.9047 10.2951 13.0469 10.5962 13.0839C10.4772 13.2277 10.4298 13.3936 10.454 13.5817C10.8609 13.6042 11.2401 13.5094 11.5918 13.2972C11.8317 13.3343 12.045 13.4291 12.2318 13.5817C12.3502 15.1009 12.3264 16.618 12.1607 18.1328C12.0184 18.2039 11.8762 18.275 11.734 18.3461C11.7814 18.3935 11.8288 18.441 11.8762 18.4883C10.9399 18.3842 10.2051 18.6923 9.67177 19.4128C9.43473 19.3654 9.1977 19.3179 8.96066 19.2706C8.83694 19.357 8.76583 19.4755 8.74733 19.6261C8.83943 19.8309 8.88683 20.0443 8.88955 20.2661C8.88955 20.3135 8.88955 20.361 8.88955 20.4083C8.17501 20.765 7.51132 21.1917 6.89844 21.6883C8.9395 18.6693 9.29505 15.4456 7.9651 12.0172C7.76335 11.6627 7.55001 11.3308 7.3251 11.0217C7.23028 10.8321 7.13548 10.6424 7.04066 10.4528Z" fill="#6665A6"/>
<path fill-rule="evenodd" clip-rule="evenodd" d="M7.75195 10.7383C7.84677 10.7857 7.94158 10.8331 8.0364 10.8805C9.54511 12.0486 11.2518 12.8071 13.1564 13.1561C13.53 15.0025 13.53 16.8514 13.1564 18.7027C11.6445 19.001 10.2223 19.5225 8.88973 20.2672C8.88701 20.0453 8.83961 19.832 8.74751 19.6272C8.76601 19.4766 8.83712 19.3581 8.96084 19.2716C9.19788 19.319 9.43491 19.3665 9.67195 19.4138C10.2053 18.6933 10.9401 18.3853 11.8764 18.4894C11.829 18.442 11.7816 18.3945 11.7342 18.3472C11.8764 18.2761 12.0186 18.2049 12.1608 18.1338C12.3266 16.619 12.3503 15.1019 12.232 13.5827C12.0452 13.4301 11.8319 13.3353 11.592 13.2983C11.2403 13.5104 10.8611 13.6053 10.4542 13.5827C10.43 13.3947 10.4774 13.2288 10.5964 13.0849C10.2952 13.0479 10.0582 12.9057 9.88529 12.6583C9.47586 12.5221 9.1203 12.5932 8.81862 12.8716C8.61564 12.5018 8.40231 12.1463 8.17862 11.8049C8.2976 11.6611 8.34502 11.4952 8.32084 11.3072C8.13122 11.3072 7.94158 11.3072 7.75195 11.3072C7.75195 11.1175 7.75195 10.9279 7.75195 10.7383Z" fill="#6267A5"/>
<path fill-rule="evenodd" clip-rule="evenodd" d="M7.32472 11.0215C7.54963 11.3306 7.76297 11.6625 7.96472 12.017C9.29467 15.4454 8.93911 18.6691 6.89806 21.6882C4.99561 23.0314 4.85338 24.5248 6.47139 26.1682C6.64846 26.2806 6.83808 26.3518 7.04028 26.3815C7.5639 26.405 8.08538 26.3813 8.60472 26.3104C9.24998 25.7827 9.86629 25.2376 10.4536 24.6748C10.6432 24.6275 10.8329 24.58 11.0225 24.5326C10.9025 24.8539 10.6654 24.9961 10.3114 24.9593C10.2501 25.6846 9.87086 26.1586 9.17361 26.3815C9.04765 26.4988 9.00024 26.641 9.03139 26.8082C7.93999 26.7845 6.84961 26.8082 5.76028 26.8793C5.82533 26.9381 5.87273 27.0093 5.9025 27.0926C5.43767 27.233 4.96361 27.2803 4.48028 27.2348C4.42266 26.7302 4.49377 26.2562 4.69361 25.8126C4.84725 26.1046 4.96577 26.4128 5.04917 26.737C5.916 26.7729 6.10562 26.4173 5.61806 25.6704C5.38569 25.6038 5.21976 25.4616 5.12028 25.2437C5.02633 24.6538 4.86041 24.0849 4.6225 23.537C4.73093 23.4786 4.87315 23.455 5.04917 23.4659C5.00176 23.4186 4.95435 23.3711 4.90694 23.3237C5.15031 23.1626 5.22143 22.9492 5.12028 22.6837C5.07287 22.7786 5.02546 22.8733 4.97806 22.9682C4.87713 22.7587 4.71122 22.6638 4.48028 22.6837C4.44346 22.2599 4.63308 21.9992 5.04917 21.9015C5.6078 21.3185 6.17669 20.7734 6.75583 20.2659C6.88016 19.9464 6.92758 19.6146 6.89806 19.2704C7.69197 19.3334 8.02382 19.0016 7.89361 18.2748C7.67383 18.1394 7.43679 18.0921 7.1825 18.1326C7.1825 16.6155 7.1825 15.0986 7.1825 13.5815C7.42416 13.6043 7.66121 13.5806 7.89361 13.5104C7.85197 13.0098 7.63863 12.6069 7.25361 12.3015C7.20621 12.3489 7.15879 12.3963 7.11139 12.4437C6.57638 11.8478 6.64749 11.3738 7.32472 11.0215Z" fill="#C3A7F5"/>
<path fill-rule="evenodd" clip-rule="evenodd" d="M18.5598 13.582C18.4496 14.3354 18.4022 15.0939 18.4176 15.8576C18.1408 16.5539 18.046 17.3124 18.1331 18.1331C16.6161 18.1331 15.0991 18.1331 13.582 18.1331C13.582 16.6161 13.582 15.0991 13.582 13.582C15.2413 13.582 16.9005 13.582 18.5598 13.582Z" fill="#C9A7F9"/>
<path fill-rule="evenodd" clip-rule="evenodd" d="M13.1562 13.1562C15.0031 13.512 16.852 13.512 18.7029 13.1562C18.6162 13.283 18.5688 13.4252 18.5607 13.5829C16.9014 13.5829 15.2422 13.5829 13.5829 13.5829C13.5829 15.1 13.5829 16.6169 13.5829 18.134C15.1 18.134 16.6169 18.134 18.134 18.134C18.0468 17.3133 18.1417 16.5548 18.4185 15.8585C18.4573 16.8149 18.552 17.7631 18.7029 18.7029C16.8505 18.3471 15.0016 18.3471 13.1562 18.7029C13.5299 16.8516 13.5299 15.0027 13.1562 13.1562Z" fill="#BBA7F1"/>
<path fill-rule="evenodd" clip-rule="evenodd" d="M7.03981 26.3814C6.83762 26.3516 6.64799 26.2805 6.47092 26.168C4.85292 24.5246 4.99514 23.0313 6.89759 21.688C7.51047 21.1914 8.17416 20.7647 8.8887 20.408C9.70365 20.3082 10.5096 20.166 11.3065 19.9814C11.4053 20.3484 11.4527 20.6804 11.4487 20.9769C11.7138 20.5372 11.8797 20.063 11.9465 19.5547C12.1452 19.6579 12.2637 19.8239 12.302 20.0525C12.1319 20.5892 11.8948 21.087 11.5909 21.5458C11.4515 21.9136 11.4041 22.2929 11.4487 22.6836C11.1495 22.6411 10.865 22.6884 10.5954 22.8258C10.9334 23.075 10.9571 23.3594 10.6665 23.6791C10.1713 24.4046 9.62617 25.092 9.03092 25.7414C8.29515 25.782 7.63144 25.9954 7.03981 26.3814Z" fill="#032653"/>
<path fill-rule="evenodd" clip-rule="evenodd" d="M18.702 18.7024C19.1128 20.5077 19.8239 22.1668 20.8353 23.6802C21.0761 24.0619 21.3132 24.4412 21.5465 24.818C20.4748 24.212 19.337 23.7142 18.1331 23.3246C15.5629 22.7027 13.1925 23.1056 11.022 24.5335C10.8324 24.5809 10.6427 24.6284 10.4531 24.6758C11.7328 22.8737 12.6335 20.8826 13.1553 18.7024C15.0007 18.3466 16.8496 18.3466 18.702 18.7024Z" fill="#6466A6"/>
<path fill-rule="evenodd" clip-rule="evenodd" d="M24.9609 21.6891C24.9609 21.6417 24.9609 21.5942 24.9609 21.5469C25.2706 21.5591 25.555 21.654 25.8143 21.8313C26.0181 22.3383 26.2789 22.8124 26.5965 23.2535C26.6753 24.0625 26.6515 24.8685 26.5254 25.6713C26.3358 25.6713 26.1461 25.6713 25.9565 25.6713C26.7858 24.048 26.454 22.7206 24.9609 21.6891Z" fill="#B5A8ED"/>
<path fill-rule="evenodd" clip-rule="evenodd" d="M13.1546 18.7031C12.6328 20.8832 11.7321 22.8744 10.4524 24.6765C9.86508 25.2392 9.24877 25.7844 8.60351 26.312C8.08417 26.383 7.56268 26.4066 7.03906 26.3831C7.63069 25.9971 8.2944 25.7838 9.03017 25.7431C9.62542 25.0937 10.1706 24.4064 10.6657 23.6809C10.9564 23.3612 10.9327 23.0767 10.5946 22.8276C10.8643 22.6902 11.1487 22.6428 11.448 22.6853C11.4034 22.2947 11.4508 21.9154 11.5902 21.5476C11.8941 21.0888 12.1311 20.591 12.3013 20.0542C12.263 19.8257 12.1445 19.6597 11.9457 19.5565C11.879 20.0648 11.7131 20.5389 11.448 20.9787C11.452 20.6821 11.4046 20.3502 11.3057 19.9831C10.5088 20.1677 9.7029 20.31 8.88795 20.4098C8.88795 20.3624 8.88795 20.3149 8.88795 20.2676C10.2205 19.5229 11.6427 19.0014 13.1546 18.7031Z" fill="#092456"/>
<path fill-rule="evenodd" clip-rule="evenodd" d="M18.7031 18.7031C20.6884 19.1274 22.4898 19.9333 24.1076 21.1209C23.9618 21.1774 23.938 21.2721 24.0365 21.4053C24.3314 21.772 24.687 22.0564 25.1031 22.2587C25.2291 22.376 25.2765 22.5182 25.2453 22.6853C25.4556 22.6481 25.6451 22.6954 25.8142 22.8276C26.0965 23.5118 26.1677 24.2229 26.0276 24.9609C25.9091 25.1742 25.7431 25.3402 25.5298 25.4587C25.5772 25.506 25.6247 25.5535 25.672 25.6009C25.4951 25.6658 25.3766 25.5946 25.3165 25.3876C25.1338 25.54 25.0865 25.7296 25.1742 25.9565C24.0894 26.2878 23.1174 26.027 22.2587 25.1742C22.306 25.1269 22.3535 25.0794 22.4009 25.032C22.217 24.9623 22.0273 24.9386 21.832 24.9609C21.7847 24.5816 21.7372 24.2024 21.6898 23.8231C21.3469 23.8748 21.1336 23.7325 21.0498 23.3965C20.9478 23.4738 20.8767 23.5687 20.8365 23.6809C19.825 22.1675 19.1139 20.5084 18.7031 18.7031Z" fill="#022652"/>
<path fill-rule="evenodd" clip-rule="evenodd" d="M24.107 21.1191C24.3554 21.3683 24.6398 21.5579 24.9604 21.688C26.4534 22.7196 26.7852 24.0469 25.9559 25.6703C25.181 26.3415 24.2801 26.5549 23.2537 26.3103C22.6537 25.8449 22.0848 25.3471 21.547 24.8169C21.3138 24.4402 21.0767 24.0609 20.8359 23.6791C20.8762 23.5669 20.9473 23.4721 21.0493 23.3947C21.133 23.7308 21.3464 23.873 21.6893 23.8214C21.7366 24.2007 21.7841 24.5798 21.8315 24.9591C22.0268 24.9368 22.2165 24.9606 22.4004 25.0303C22.353 25.0776 22.3055 25.1251 22.2582 25.1725C23.1169 26.0252 24.0888 26.2861 25.1737 25.9547C25.086 25.7279 25.1333 25.5383 25.3159 25.3858C25.3761 25.5929 25.4946 25.664 25.6715 25.5991C25.6241 25.5518 25.5766 25.5043 25.5293 25.4569C25.7426 25.3384 25.9086 25.1725 26.027 24.9591C26.1671 24.2211 26.096 23.51 25.8137 22.8258C25.6446 22.6937 25.455 22.6463 25.2448 22.6836C25.276 22.5165 25.2286 22.3743 25.1026 22.2569C24.6865 22.0547 24.3309 21.7702 24.0359 21.4036C23.9375 21.2703 23.9613 21.1756 24.107 21.1191Z" fill="#112256"/>
</g>
<defs>
<clipPath id="clip0_90_561">
<rect width="32" height="32" fill="white"/>
</clipPath>
</defs>
</svg>
