<svg width="32" height="32" viewBox="0 0 32 32" fill="none" xmlns="http://www.w3.org/2000/svg">
<path opacity="0.954" fill-rule="evenodd" clip-rule="evenodd" d="M4.76562 0.689573C9.86433 -0.0972594 15.0842 -0.210735 20.4252 0.349147C25.2184 3.24647 26.9205 7.44505 25.5316 12.9449C24.1627 16.1809 21.7798 18.2235 18.3826 19.0726C18.1557 19.0726 17.9287 19.0726 17.7018 19.0726C13.6325 12.7404 9.32045 6.61277 4.76562 0.689573Z" fill="#2AB6D9"/>
<path fill-rule="evenodd" clip-rule="evenodd" d="M4.76562 0.689453C9.32045 6.61265 13.6325 12.7403 17.7018 19.0724C13.3898 19.0724 9.07768 19.0724 4.76562 19.0724C4.76562 12.9448 4.76562 6.81711 4.76562 0.689453Z" fill="#B22F76"/>
<path opacity="0.971" fill-rule="evenodd" clip-rule="evenodd" d="M4.76562 19.0723C9.07768 19.0723 13.3898 19.0723 17.7018 19.0723C17.9287 19.0723 18.1557 19.0723 18.3826 19.0723C20.8618 22.6913 23.3582 26.3224 25.872 29.9659C18.8511 30.6458 11.8157 30.8727 4.76562 30.6467C4.76562 26.7886 4.76562 22.9304 4.76562 19.0723Z" fill="#434951"/>
</svg>
