<svg width="32" height="32" viewBox="0 0 32 32" fill="none" xmlns="http://www.w3.org/2000/svg">
<g clip-path="url(#clip0_91_704)">
<path fill-rule="evenodd" clip-rule="evenodd" d="M-0.0703125 -0.0703125C10.5964 -0.0703125 21.263 -0.0703125 31.9297 -0.0703125C31.9297 10.5964 31.9297 21.263 31.9297 31.9297C21.263 31.9297 10.5964 31.9297 -0.0703125 31.9297C-0.0703125 21.263 -0.0703125 10.5964 -0.0703125 -0.0703125Z" fill="#0139BE"/>
<path fill-rule="evenodd" clip-rule="evenodd" d="M21.5459 14.0088C19.3901 14.1505 17.2094 14.1979 15.0037 14.1511C15.1516 13.4365 15.2701 12.7253 15.3593 12.0177C14.5972 12.9455 13.8624 13.8937 13.1548 14.8622C16.2352 14.9806 19.3167 15.0517 22.3993 15.0755C19.3008 19.0751 16.1482 23.0335 12.9415 26.9511C13.4502 24.1952 14.0428 21.4455 14.7193 18.7022C13.2121 18.3628 11.6951 18.0784 10.1681 17.8488C12.3713 17.7072 14.5995 17.6597 16.8526 17.7066C16.7047 18.4211 16.5862 19.1322 16.497 19.8399C17.2622 18.8551 18.0444 17.8832 18.8437 16.9244C15.7148 16.877 12.5859 16.8295 9.45703 16.7822C12.5793 12.884 15.6845 8.9729 18.7726 5.04883C18.3472 7.76826 17.8021 10.4705 17.137 13.1555C18.5917 13.485 20.0613 13.7695 21.5459 14.0088Z" fill="#FAFBFD"/>
<path fill-rule="evenodd" clip-rule="evenodd" d="M21.5461 14.0098C21.8033 14.0086 22.0404 14.0797 22.2572 14.2231C19.815 14.3409 17.3972 14.3173 15.0039 14.152C17.2096 14.1989 19.3903 14.1515 21.5461 14.0098Z" fill="#93A1DC"/>
<path fill-rule="evenodd" clip-rule="evenodd" d="M16.8529 17.7072C14.5999 17.6602 12.3717 17.7077 10.1685 17.8494C9.9663 17.8197 9.77668 17.7485 9.59961 17.636C12.0418 17.5183 14.4596 17.5419 16.8529 17.7072Z" fill="#8091D7"/>
</g>
<defs>
<clipPath id="clip0_91_704">
<rect width="32" height="32" fill="white"/>
</clipPath>
</defs>
</svg>
