<svg width="32" height="32" viewBox="0 0 32 32" fill="none" xmlns="http://www.w3.org/2000/svg">
<g clip-path="url(#clip0_91_779)">
<rect width="32" height="32" fill="white"/>
<path fill-rule="evenodd" clip-rule="evenodd" d="M19.8642 0.101615C20.3774 0.46495 20.9715 0.635083 21.6469 0.611989C26.1221 1.95491 29.2632 4.76196 31.0695 9.03315C31.1785 9.87133 31.4332 10.6369 31.8335 11.3298C32.7987 19.3909 29.5729 25.0476 22.1562 28.2997C21.3268 28.5659 20.478 28.6935 19.6095 28.6825C17.3766 28.7757 15.1694 28.6057 12.9882 28.1721C12.9033 28.1721 12.8184 28.1721 12.7335 28.1721C12.7335 28.0019 12.6487 27.917 12.4789 27.917C12.4789 25.1949 12.4789 22.4731 12.4789 19.751C9.72323 19.4971 6.92189 19.4121 4.07487 19.4958C4.1353 19.1664 4.05042 18.9112 3.82021 18.7302C3.28586 16.1037 3.20096 13.4668 3.56554 10.8195C4.04938 10.0494 4.38895 9.19871 4.58421 8.26759C7.82178 2.14482 12.9151 -0.577181 19.8642 0.101615Z" fill="#1A1A1A"/>
<path fill-rule="evenodd" clip-rule="evenodd" d="M0 20.0059C1.44312 20.0059 2.88621 20.0059 4.32933 20.0059C4.28563 20.259 4.37054 20.429 4.584 20.5162C6.02806 23.8347 8.40494 26.2163 11.7147 27.6615C11.7147 27.8317 11.7995 27.9166 11.9693 27.9166C12.211 29.2538 12.2959 30.6147 12.224 31.9996C8.14933 31.9996 4.07467 31.9996 0 31.9996C0 28.0016 0 24.0039 0 20.0059Z" fill="#1A1A1A"/>
</g>
<defs>
<clipPath id="clip0_91_779">
<rect width="32" height="32" fill="white"/>
</clipPath>
</defs>
</svg>
