<svg width="32" height="32" viewBox="0 0 32 32" fill="none" xmlns="http://www.w3.org/2000/svg">
<path opacity="0.858" fill-rule="evenodd" clip-rule="evenodd" d="M12.8592 1.00662C13.3226 0.978512 13.7572 1.07728 14.1629 1.30292C14.8644 1.93707 15.4373 2.66792 15.8814 3.49551C16.4147 2.80416 16.9481 2.11279 17.4814 1.42144C18.3865 0.792246 19.1964 0.891011 19.911 1.71774C20.314 2.44418 20.6499 3.1948 20.9184 3.96959C23.0383 3.9728 24.7173 4.84193 25.9555 6.577C26.2357 7.01772 26.4134 7.49179 26.4888 7.99922C30.4795 8.02425 31.1906 9.54524 28.6221 12.5622C32.325 13.4569 32.6609 15.0569 29.6296 17.3622C30.334 20.088 29.6032 22.3398 27.437 24.1177C28.5375 27.8553 27.2931 28.922 23.7036 27.3177C23.7382 28.1592 23.6987 28.9888 23.5851 29.8066C23.3 30.7099 22.6877 31.0852 21.7481 30.9325C20.943 30.5497 20.1528 30.1349 19.3777 29.6881C17.758 30.8535 15.9803 31.1498 14.0444 30.577C13.4571 30.4021 12.9436 30.1058 12.5036 29.6881C11.7285 30.1349 10.9384 30.5497 10.1333 30.9325C9.25727 31.0773 8.64493 30.7415 8.29622 29.9251C8.16176 29.0621 8.08275 28.193 8.05919 27.3177C4.49325 28.848 3.28831 27.7616 4.44437 24.0585C2.88415 22.8546 2.05452 21.2546 1.95548 19.2585C2.00333 18.6069 2.1021 17.9748 2.25178 17.3622C1.77379 16.8445 1.26022 16.3704 0.711038 15.94C-0.0393303 15.0313 0.0199289 14.182 0.888816 13.3918C1.65146 13.0429 2.44157 12.7664 3.25919 12.5622C0.68339 9.61471 1.355 8.07397 5.274 7.93996C6.22817 5.36808 8.08495 4.02488 10.8444 3.91033C11.2761 3.10601 11.6909 2.29613 12.0888 1.4807C12.3631 1.33454 12.6199 1.17651 12.8592 1.00662ZM18.5481 2.19181C18.9304 2.59839 19.2267 3.07246 19.437 3.61403C20.0652 4.94678 20.5986 6.30975 21.037 7.70292C20.9539 8.26806 20.7761 8.8014 20.5036 9.30292C19.3197 10.8016 18.1938 12.3423 17.1259 13.9251C17.4525 14.3154 17.8476 14.5723 18.311 14.6955C19.4435 13.2075 20.5298 11.6865 21.5703 10.1326C22.1872 9.48827 22.9378 9.0932 23.8221 8.94737C25.4595 9.17631 27.0989 9.39359 28.7407 9.59922C28.8563 9.85367 28.8365 10.1105 28.6814 10.3696C28.2271 10.9622 27.7727 11.5548 27.3184 12.1474C26.2332 11.7593 25.1269 11.4432 23.9999 11.1992C23.2932 11.3097 22.6217 11.527 21.9851 11.8511C20.7033 12.955 19.4391 14.0809 18.1925 15.2288C18.6083 15.5627 18.7663 15.9972 18.6666 16.5326C19.8143 16.5999 20.9599 16.6987 22.1036 16.8288C23.9401 17.2569 25.4611 16.7631 26.6666 15.3474C26.9901 14.6968 27.4246 14.1437 27.9703 13.6881C28.536 13.8898 29.1088 14.0676 29.6888 14.2214C30.5282 14.4757 30.6072 14.8707 29.9259 15.4066C28.824 16.3108 27.7573 17.2589 26.7259 18.2511C26.2376 18.5622 25.7042 18.74 25.1259 18.7844C23.0203 18.1154 20.9067 17.4833 18.7851 16.8881C18.7151 17.2958 18.5965 17.6908 18.4296 18.0733C18.469 18.1128 18.5086 18.1523 18.5481 18.1918C20.5368 18.8482 22.512 19.5395 24.474 20.2659C25.0347 20.6162 25.4101 21.1101 25.5999 21.7474C25.9545 23.2841 26.2903 24.8248 26.6073 26.3696C26.5936 26.6128 26.4751 26.7708 26.2518 26.8437C25.3986 26.6383 24.5689 26.3618 23.7629 26.014C23.7168 24.8985 23.6575 23.7923 23.5851 22.6955C23.3656 21.9211 22.9508 21.2693 22.3407 20.74C20.879 19.8905 19.4172 19.0412 17.9555 18.1918C17.7317 18.6725 17.3762 19.0084 16.8888 19.1992C17.288 20.9176 17.7028 22.6361 18.1333 24.3548C18.48 25.0317 18.9738 25.5651 19.6147 25.9548C20.502 26.3446 21.4105 26.6805 22.3407 26.9622C22.4867 27.8724 22.4867 28.7811 22.3407 29.6881C21.994 29.6928 21.678 29.5941 21.3925 29.3918C20.2864 28.7597 19.1801 28.1276 18.074 27.4955C17.3462 27.084 16.8919 26.4717 16.711 25.6585C16.6518 23.565 16.632 21.4712 16.6518 19.377C16.1777 19.377 15.7036 19.377 15.2296 19.377C15.2493 21.4317 15.2296 23.486 15.1703 25.54C14.9878 26.3141 14.573 26.9265 13.9259 27.377C12.577 28.2095 11.1942 28.9798 9.7777 29.6881C9.64173 29.6504 9.54297 29.5715 9.48141 29.4511C9.38514 28.5922 9.40489 27.7427 9.54067 26.9029C10.677 26.6308 11.7437 26.1962 12.7407 25.5992C13.2181 25.1385 13.5933 24.6052 13.8666 23.9992C14.1973 22.3849 14.5726 20.7849 14.9925 19.1992C14.7739 19.0306 14.5368 18.8923 14.2814 18.7844C14.2015 18.5453 14.0632 18.3479 13.8666 18.1918C12.6308 18.9976 11.3469 19.7285 10.0147 20.3844C9.1217 20.9212 8.54887 21.6915 8.29622 22.6955C8.17958 23.7992 8.0808 24.9054 7.99993 26.014C7.15267 26.476 6.26378 26.6735 5.33326 26.6066C5.54719 24.9348 5.86323 23.2755 6.28141 21.6288C6.57075 20.9049 7.06457 20.3716 7.76289 20.0288C9.68559 19.4495 11.5819 18.7977 13.4518 18.0733C13.3077 17.6204 13.1299 17.1858 12.9184 16.7696C11.24 17.3328 9.56096 17.9056 7.88141 18.4881C6.86921 18.8124 5.92106 18.6939 5.03696 18.1325C3.87154 17.0461 2.7061 15.9598 1.54067 14.8733C1.46165 14.7548 1.46165 14.6363 1.54067 14.5177C2.35201 14.1155 3.20138 13.8587 4.08882 13.7474C4.71028 14.6853 5.42139 15.5545 6.22215 16.3548C6.59169 16.5791 6.98675 16.7371 7.40733 16.8288C8.19746 16.9079 8.98758 16.9079 9.7777 16.8288C10.9214 16.6987 12.067 16.5999 13.2147 16.5326C13.1217 16.0471 13.26 15.652 13.6296 15.3474C13.7086 15.2683 13.7086 15.1894 13.6296 15.1103C12.4318 14.1107 11.2664 13.0638 10.1333 11.9696C9.44528 11.5361 8.69467 11.2793 7.88141 11.1992C6.72432 11.4072 5.5984 11.7232 4.50363 12.1474C4.09801 11.5337 3.66345 10.9411 3.19993 10.3696C3.04569 10.1486 3.00618 9.91156 3.08141 9.65848C4.7323 9.39836 6.39156 9.16133 8.05919 8.94737C8.93465 9.07886 9.66551 9.47392 10.2518 10.1326C11.3198 11.7153 12.4457 13.2561 13.6296 14.7548C14.0633 14.5285 14.4387 14.2322 14.7555 13.8659C13.6296 12.3449 12.5036 10.8239 11.3777 9.30292C10.8895 8.52232 10.771 7.69269 11.0221 6.81403C11.6633 5.33451 12.3349 3.87278 13.037 2.42885C13.1613 2.3083 13.2996 2.28854 13.4518 2.36959C14.048 3.06856 14.6012 3.79942 15.111 4.56218C14.5483 5.33183 14.015 6.12196 13.511 6.93255C13.116 7.95972 13.116 8.98687 13.511 10.014C14.1417 11.3332 14.7145 12.6764 15.2296 14.0437C15.6932 13.9301 16.1475 13.8907 16.5925 13.9251C17.2477 12.4732 17.8797 11.0114 18.4888 9.53996C18.7181 8.79051 18.7181 8.03989 18.4888 7.28811C18.0076 6.33427 17.4347 5.44538 16.7703 4.62144C17.2496 3.72751 17.8422 2.91764 18.5481 2.19181ZM10.1333 5.15477C10.2208 5.13925 10.2998 5.159 10.3703 5.21403C10.098 5.95597 9.70291 6.62758 9.18511 7.22885C8.40412 7.70274 7.57449 7.88052 6.69622 7.76218C7.44338 6.3443 8.58905 5.47516 10.1333 5.15477ZM21.511 5.15477C23.1556 5.46363 24.3803 6.35252 25.1851 7.82144C23.2041 7.97644 21.9793 7.08755 21.511 5.15477ZM15.8221 5.74737C16.9621 6.6059 17.4559 7.75159 17.3036 9.1844C16.8488 10.1731 16.3945 11.1607 15.9407 12.1474C15.5382 11.2773 15.1234 10.4081 14.6962 9.53996C14.4592 8.82885 14.4592 8.11774 14.6962 7.40662C15.0978 6.86764 15.4731 6.31455 15.8221 5.74737ZM7.1703 12.5029C7.83885 12.4329 8.47094 12.5316 9.06659 12.7992C10.0498 13.5846 10.998 14.4143 11.911 15.2881C10.7697 15.4576 9.62407 15.5958 8.474 15.7029C7.637 15.6944 6.94565 15.3783 6.39993 14.7548C6.11287 14.2992 5.79682 13.8647 5.45178 13.4511C5.39456 13.3387 5.3748 13.2202 5.39252 13.0955C6.03504 13.013 6.62764 12.8155 7.1703 12.5029ZM23.5259 12.5029C24.5596 12.5775 25.5472 12.8342 26.4888 13.2733C26.0435 13.9266 25.5695 14.5587 25.0666 15.1696C24.5619 15.5024 24.0088 15.6802 23.4073 15.7029C22.295 15.6036 21.1889 15.4653 20.0888 15.2881C21.1222 14.1929 22.2679 13.2645 23.5259 12.5029ZM3.25919 18.4288C4.98085 19.3455 5.47466 20.7282 4.74067 22.577C3.52895 21.4596 3.03511 20.0768 3.25919 18.4288ZM28.3851 18.4288C28.8646 20.023 28.4696 21.4057 27.1999 22.577C26.6764 21.4726 26.7357 20.406 27.3777 19.377C27.7727 19.1202 28.1085 18.8041 28.3851 18.4288ZM13.2147 19.9696C13.3186 19.9541 13.3976 19.9935 13.4518 20.0881C13.1933 21.3609 12.897 22.6251 12.5629 23.8807C11.7501 24.8503 10.7032 25.4034 9.42215 25.54C9.40244 24.7488 9.4222 23.9587 9.48141 23.1696C9.64938 22.4191 10.0642 21.8463 10.7259 21.4511C11.6066 21.0206 12.4363 20.5267 13.2147 19.9696ZM18.4296 19.9696C19.5816 20.5951 20.7075 21.2667 21.8073 21.9844C22.101 22.3742 22.2985 22.8088 22.3999 23.2881C22.479 24.0783 22.479 24.8683 22.3999 25.6585C21.2457 25.4568 20.2579 24.9431 19.437 24.1177C19 22.7611 18.6642 21.3783 18.4296 19.9696ZM15.5851 28.0288C16.5284 28.0461 17.358 28.3622 18.074 28.977C16.6339 29.8993 15.1722 29.9191 13.6888 29.0363C14.2806 28.6024 14.9128 28.2666 15.5851 28.0288Z" fill="#1AAFCD"/>
</svg>
