<svg width="32" height="32" viewBox="0 0 32 32" fill="none" xmlns="http://www.w3.org/2000/svg">
<g clip-path="url(#clip0_94_485)">
<path fill-rule="evenodd" clip-rule="evenodd" d="M18.8007 4.39982C18.59 4.34846 18.3765 4.29513 18.1607 4.23982C17.6132 4.33218 17.1332 4.54551 16.7207 4.87982C17.2879 4.05359 17.9812 3.89359 18.8007 4.39982Z" fill="#66AAD8"/>
<path fill-rule="evenodd" clip-rule="evenodd" d="M18.8002 4.40023C18.959 4.37278 19.0655 4.42612 19.1202 4.56023C19.2529 5.35271 19.3063 6.15271 19.2802 6.96023C18.6546 7.63948 17.9079 7.77281 17.0402 7.36023C16.8466 7.19398 16.6866 7.00731 16.5602 6.80023C16.5585 6.55745 16.4519 6.37078 16.2402 6.24023C16.6447 6.07745 16.6447 5.89078 16.2402 5.68023C16.349 5.46265 16.4558 5.24932 16.5602 5.04023C16.5602 4.93356 16.6135 4.88023 16.7202 4.88023C17.1327 4.54593 17.6127 4.3326 18.1602 4.24023C18.3761 4.29555 18.5895 4.34887 18.8002 4.40023Z" fill="#2995EF"/>
<path fill-rule="evenodd" clip-rule="evenodd" d="M15.2802 5.51943C14.9602 5.51943 14.6402 5.51943 14.3202 5.51943C14.3552 5.33143 14.3019 5.17143 14.1602 5.03943C14.0116 5.22964 13.9583 5.44298 14.0002 5.67943C13.5286 5.72376 13.0752 5.67044 12.6402 5.51943C12.5021 5.87925 12.5821 6.17258 12.8802 6.39943C12.7598 6.50676 12.7065 6.64009 12.7202 6.79943C12.0491 6.07168 12.1024 5.37834 12.8802 4.71943C13.243 4.55234 13.6163 4.52567 14.0002 4.63943C14.4148 4.97812 14.8415 5.27144 15.2802 5.51943Z" fill="#3D98E6"/>
<path fill-rule="evenodd" clip-rule="evenodd" d="M15.2798 5.51906C15.3407 5.74804 15.5007 5.88138 15.7598 5.91906C15.3757 5.94879 15.0024 6.02879 14.6398 6.15906C14.4233 6.32285 14.3166 6.53618 14.3198 6.79906C13.7865 6.79906 13.2531 6.79906 12.7198 6.79906C12.7061 6.63972 12.7594 6.50639 12.8798 6.39906C12.5817 6.17221 12.5017 5.87889 12.6398 5.51906C13.0749 5.67007 13.5282 5.7234 13.9998 5.67906C13.9579 5.44261 14.0112 5.22927 14.1598 5.03906C14.3015 5.17106 14.3548 5.33106 14.3198 5.51906C14.6398 5.51906 14.9598 5.51906 15.2798 5.51906Z" fill="#2197F5"/>
<path fill-rule="evenodd" clip-rule="evenodd" d="M19.1191 4.56055C19.5598 4.82791 19.7731 5.22791 19.7591 5.76055C19.7668 6.24752 19.6068 6.64752 19.2791 6.96055C19.3052 6.15303 19.2518 5.35303 19.1191 4.56055Z" fill="#3A99E3"/>
<path fill-rule="evenodd" clip-rule="evenodd" d="M9.03981 5.04065C9.73603 4.88593 10.1094 5.15259 10.1598 5.84065C9.91211 5.89205 9.80544 6.05205 9.83981 6.32065C9.47091 6.39947 9.09757 6.4528 8.71981 6.48065C8.65026 5.94665 8.75691 5.46665 9.03981 5.04065Z" fill="#2795F1"/>
<path fill-rule="evenodd" clip-rule="evenodd" d="M9.04039 5.03906C8.7575 5.46506 8.65084 5.94506 8.72039 6.47906C9.09815 6.45121 9.4715 6.39788 9.84039 6.31906C9.80603 6.05045 9.9127 5.89045 10.1604 5.83906C9.90811 6.82892 9.34811 7.04226 8.48039 6.47906C8.37372 6.15906 8.37372 5.83906 8.48039 5.51906C8.54798 5.21095 8.73465 5.05095 9.04039 5.03906Z" fill="#4C9BDB"/>
<path fill-rule="evenodd" clip-rule="evenodd" d="M16.5607 5.03906C16.4562 5.24815 16.3495 5.46148 16.2407 5.67906C16.6452 5.88961 16.6452 6.07628 16.2407 6.23906C16.4524 6.36961 16.5589 6.55628 16.5607 6.79906C16.1213 6.3502 15.5881 6.21687 14.9607 6.39906C14.2715 7.13693 13.5248 7.27026 12.7207 6.79906C13.254 6.79906 13.7874 6.79906 14.3207 6.79906C14.3175 6.53618 14.4242 6.32285 14.6407 6.15906C15.0033 6.02879 15.3766 5.94879 15.7607 5.91906C15.5016 5.88138 15.3416 5.74804 15.2807 5.51906C15.7031 5.3673 16.1298 5.2073 16.5607 5.03906Z" fill="#439ADF"/>
<path fill-rule="evenodd" clip-rule="evenodd" d="M24.2397 9.51977C23.945 9.48404 23.6517 9.43072 23.3597 9.35977C22.8283 9.6524 22.2683 9.86572 21.6797 9.99977C22.2531 9.2723 22.9997 9.0323 23.9197 9.27977C24.0662 9.32432 24.1728 9.40432 24.2397 9.51977Z" fill="#5EA5DF"/>
<path fill-rule="evenodd" clip-rule="evenodd" d="M18.8007 9.83942C18.4826 9.78708 18.1626 9.73375 17.8407 9.67942C17.4333 9.76849 17.0601 9.92849 16.7207 10.1594C17.145 9.54911 17.7317 9.36244 18.4807 9.59942C18.6273 9.64396 18.7338 9.72396 18.8007 9.83942Z" fill="#67A9DB"/>
<path fill-rule="evenodd" clip-rule="evenodd" d="M24.2398 9.51937C24.2931 9.67937 24.3998 9.78605 24.5598 9.83937C24.9076 10.4296 25.0676 11.0696 25.0398 11.7594C24.6796 12.0228 24.4129 12.3694 24.2398 12.7994C23.6219 12.9455 23.0353 12.8922 22.4798 12.6394C22.8783 12.5392 22.8783 12.4059 22.4798 12.2394C21.8779 12.1598 21.3446 11.9464 20.8798 11.5994C20.0415 11.5653 19.4015 11.912 18.9598 12.6394C18.4436 12.8312 17.9103 12.9112 17.3598 12.8794C16.3822 12.15 16.1687 11.2434 16.7198 10.1594C17.0591 9.92845 17.4324 9.76845 17.8398 9.67937C18.1617 9.73371 18.4817 9.78704 18.7998 9.83937C18.9585 9.81192 19.0651 9.86526 19.1198 9.99937C19.9063 11.2015 20.7596 11.2548 21.6798 10.1594C21.6798 10.106 21.6798 10.0527 21.6798 9.99937C22.2684 9.86533 22.8284 9.652 23.3598 9.35938C23.6518 9.43032 23.9451 9.48365 24.2398 9.51937Z" fill="#2595F0"/>
<path fill-rule="evenodd" clip-rule="evenodd" d="M19.1191 10C19.5523 10.2996 20.0057 10.5662 20.4791 10.8C20.8987 10.6199 21.2987 10.4066 21.6791 10.16C20.759 11.2554 19.9057 11.2021 19.1191 10Z" fill="#5EAADE"/>
<path fill-rule="evenodd" clip-rule="evenodd" d="M24.5605 9.83984C24.8282 9.97472 25.0149 10.1881 25.1205 10.4798C25.2487 10.9386 25.222 11.3652 25.0405 11.7598C25.0684 11.0701 24.9084 10.4301 24.5605 9.83984Z" fill="#539DD7"/>
<path fill-rule="evenodd" clip-rule="evenodd" d="M14.1601 12.2409C13.565 12.3205 13.0317 12.1872 12.5601 11.8409C12.4124 11.5144 12.3591 11.1677 12.4001 10.8009C12.3552 10.3388 12.5686 10.0988 13.0401 10.0809C14.4502 9.78436 15.0102 10.3444 14.7201 11.7609C14.5538 11.9545 14.3672 12.1145 14.1601 12.2409Z" fill="#2D95EC"/>
<path fill-rule="evenodd" clip-rule="evenodd" d="M12.3999 10.8008C12.3589 11.1676 12.4122 11.5143 12.5599 11.8408C13.0315 12.1871 13.5648 12.3204 14.1599 12.2408C14.03 12.4797 13.8166 12.5863 13.5199 12.5608C13.0963 12.486 12.723 12.2994 12.3999 12.0008C12.1896 11.584 12.1896 11.184 12.3999 10.8008Z" fill="#6BABE0"/>
<path fill-rule="evenodd" clip-rule="evenodd" d="M20.8794 11.5999C20.9327 11.7066 20.9861 11.8133 21.0394 11.9199C20.7119 11.9217 20.3919 11.975 20.0794 12.0799C19.7944 12.3758 19.4744 12.6425 19.1194 12.8799C18.509 13.0892 17.9224 13.0892 17.3594 12.8799C17.9099 12.9118 18.4432 12.8318 18.9594 12.6399C19.4011 11.9126 20.0411 11.5659 20.8794 11.5999Z" fill="#D8F3FA"/>
<path fill-rule="evenodd" clip-rule="evenodd" d="M20.8809 11.5996C21.3457 11.9467 21.8789 12.16 22.4809 12.2396C22.8794 12.4061 22.8794 12.5395 22.4809 12.6396C23.0364 12.8924 23.6229 12.9457 24.2409 12.7996C24.414 12.3697 24.6807 12.023 25.0409 11.7596C24.4649 13.2442 23.4516 13.5908 22.0009 12.7996C21.7017 12.4733 21.3817 12.1799 21.0409 11.9196C20.9876 11.8129 20.9341 11.7063 20.8809 11.5996Z" fill="#4F9EE0"/>
<path fill-rule="evenodd" clip-rule="evenodd" d="M18.6405 14.64C18.1577 14.6137 17.6777 14.6403 17.2005 14.72C17.1041 15.0514 16.8908 15.2381 16.5605 15.28C16.8135 15.0173 16.9201 14.6973 16.8805 14.32C17.1993 14.3474 17.4658 14.2408 17.6805 14C18.0858 14.1286 18.4058 14.342 18.6405 14.64Z" fill="#D8EFF9"/>
<path fill-rule="evenodd" clip-rule="evenodd" d="M10.1596 16.0806C9.73785 15.7446 9.28452 15.638 8.79961 15.7606C8.50511 16.7197 8.85179 17.0929 9.83961 16.8806C9.35798 17.3248 8.90465 17.2713 8.47961 16.7206C8.23961 15.6806 8.63961 15.2806 9.67961 15.5206C9.92967 15.642 10.0897 15.8287 10.1596 16.0806Z" fill="#519CD6"/>
<path fill-rule="evenodd" clip-rule="evenodd" d="M18.6402 14.6407C20.0743 15.6416 20.1277 16.7349 18.8002 17.9207C17.7554 18.2268 16.9554 17.9335 16.4002 17.0407C16.1178 16.5688 15.7445 16.4623 15.2802 16.7207C14.8795 16.9837 14.4528 17.2237 14.0002 17.4407C13.6269 17.5474 13.2535 17.5474 12.8802 17.4407C12.2368 16.8808 12.1034 16.2141 12.4802 15.4407C12.7557 15.1296 13.1024 14.9696 13.5202 14.9607C14.1953 15.1873 14.8086 15.5073 15.3602 15.9207C15.7986 15.7683 16.1986 15.555 16.5602 15.2807C16.8905 15.2388 17.1037 15.0521 17.2002 14.7207C17.6773 14.641 18.1573 14.6143 18.6402 14.6407Z" fill="#2C96ED"/>
<path fill-rule="evenodd" clip-rule="evenodd" d="M15.2793 16.7192C15.7436 16.4608 16.1169 16.5674 16.3993 17.0392C16.07 16.81 15.6967 16.7032 15.2793 16.7192Z" fill="#60A7D8"/>
<path fill-rule="evenodd" clip-rule="evenodd" d="M10.1607 16.0801C10.2215 16.4318 10.1148 16.6985 9.84067 16.8801C8.85284 17.0925 8.50617 16.7192 8.80067 15.7601C9.28558 15.6375 9.73891 15.7442 10.1607 16.0801Z" fill="#2594F0"/>
<path fill-rule="evenodd" clip-rule="evenodd" d="M14.1598 22.9595C13.9529 22.0247 13.9529 21.1182 14.1598 20.2395C13.9309 20.3158 13.7176 20.4223 13.5198 20.5595C13.7536 20.9292 13.8069 21.3025 13.6798 21.6795C13.4665 21.2527 13.2532 21.2527 13.0398 21.6795C12.9128 21.3025 12.9661 20.9292 13.1998 20.5595C13.0678 20.4177 12.9078 20.3644 12.7198 20.3995C12.7677 20.7361 12.7143 21.0561 12.5598 21.3595C12.4181 21.2275 12.3648 21.0675 12.3998 20.8795C11.7837 21.078 11.1437 21.238 10.4798 21.3595C10.1089 21.1526 9.89554 20.8326 9.83984 20.3995C10.6086 21.0073 11.4086 21.034 12.2398 20.4795C13.0907 19.5499 13.9707 19.5233 14.8798 20.3995C14.9925 20.6839 15.0725 20.9774 15.1198 21.2795C14.8955 21.9014 14.5755 22.4614 14.1598 22.9595Z" fill="#3597E9"/>
<path fill-rule="evenodd" clip-rule="evenodd" d="M8.72005 20.4004C8.42089 20.957 8.52754 21.4103 9.04005 21.7604C8.98673 21.8137 8.93338 21.8671 8.88005 21.9204C9.14151 21.9994 9.40818 22.026 9.68005 22.0004C8.51567 22.4087 8.06234 21.9822 8.32005 20.7204C8.43338 20.5794 8.56671 20.4729 8.72005 20.4004Z" fill="#499CE0"/>
<path fill-rule="evenodd" clip-rule="evenodd" d="M11.5996 21.8398C12.314 21.9144 12.794 22.2878 13.0396 22.9598C12.6018 22.5208 12.1218 22.1475 11.5996 21.8398Z" fill="#51A2DB"/>
<path fill-rule="evenodd" clip-rule="evenodd" d="M9.99946 25.5191C9.46032 25.2697 8.95365 25.323 8.47946 25.6791C8.37827 27.0446 8.93827 27.418 10.1595 26.7991C10.1804 26.9393 10.1271 27.046 9.99946 27.1191C9.61016 27.3159 9.21016 27.4759 8.79946 27.5991C8.63946 27.4391 8.47946 27.2791 8.31946 27.1191C8.21878 26.4198 8.24546 25.7265 8.39946 25.0391C8.8824 25.0127 9.3624 25.0395 9.83946 25.1191C9.95984 25.2265 10.0132 25.3598 9.99946 25.5191Z" fill="#D6F1FB"/>
<path fill-rule="evenodd" clip-rule="evenodd" d="M13.2002 23.4395C13.299 23.4572 13.379 23.5105 13.4402 23.5995C13.5373 24.0318 13.5106 24.4583 13.3602 24.8795C13.4272 25.067 13.5339 25.227 13.6802 25.3595C13.3602 25.4927 13.0402 25.6262 12.7202 25.7595C12.4438 26.3996 12.6572 26.7729 13.3602 26.8795C13.2264 27.0412 13.173 27.2279 13.2002 27.4395C12.6309 27.1867 12.3109 26.7334 12.2402 26.0795C12.4891 25.6124 12.7825 25.1591 13.1202 24.7195C13.1998 24.2961 13.2265 23.8694 13.2002 23.4395Z" fill="#449BE5"/>
<path fill-rule="evenodd" clip-rule="evenodd" d="M9.84009 20.4002C9.89579 20.8334 10.1091 21.1534 10.4801 21.3602C11.1439 21.2388 11.7839 21.0788 12.4001 20.8802C12.3651 21.0682 12.4184 21.2282 12.5601 21.3602C12.7146 21.0569 12.7679 20.7369 12.7201 20.4002C12.9081 20.3652 13.0681 20.4185 13.2001 20.5602C12.9663 20.93 12.913 21.3033 13.0401 21.6802C13.2534 21.2535 13.4668 21.2535 13.6801 21.6802C13.8072 21.3033 13.7539 20.93 13.5201 20.5602C13.7178 20.4231 13.9311 20.3166 14.1601 20.2402C13.9531 21.119 13.9531 22.0255 14.1601 22.9602C14.0282 23.4825 13.9749 24.0159 14.0001 24.5602C13.9046 24.5978 13.8513 24.6778 13.8401 24.8002C14.0532 25.3247 14.2665 25.858 14.4801 26.4002C14.4173 26.915 14.1506 27.2617 13.6801 27.4402C13.5201 27.4402 13.3601 27.4402 13.2001 27.4402C13.1729 27.2287 13.2262 27.042 13.3601 26.8802C12.657 26.7737 12.4437 26.4004 12.7201 25.7602C13.0401 25.627 13.3601 25.4935 13.6801 25.3602C13.5337 25.2278 13.4271 25.0678 13.3601 24.8802C13.5105 24.4591 13.5371 24.0326 13.4401 23.6002C13.3789 23.5113 13.2989 23.458 13.2001 23.4402C13.191 23.2628 13.1377 23.1028 13.0401 22.9602C12.7944 22.2882 12.3144 21.9148 11.6001 21.8402C10.9524 21.8234 10.3124 21.8767 9.68009 22.0002C9.40822 22.0258 9.14155 21.9993 8.88009 21.9202C8.93342 21.867 8.98676 21.8135 9.04009 21.7602C8.52758 21.4102 8.42092 20.9569 8.72009 20.4002C9.09342 20.187 9.46676 20.187 9.84009 20.4002Z" fill="#2995F1"/>
<path fill-rule="evenodd" clip-rule="evenodd" d="M13.9997 24.5605C14.3713 25.0121 14.638 25.5188 14.7997 26.0805C14.8839 26.9359 14.5105 27.3893 13.6797 27.4405C14.1502 27.262 14.4169 26.9153 14.4797 26.4005C14.2661 25.8583 14.0528 25.325 13.8397 24.8005C13.8509 24.6781 13.9042 24.5981 13.9997 24.5605Z" fill="#469ADF"/>
<path fill-rule="evenodd" clip-rule="evenodd" d="M10.0004 25.5194C10.1424 25.928 10.1958 26.3547 10.1604 26.7994C8.93918 27.4183 8.37918 27.0448 8.48036 25.6794C8.95456 25.3232 9.46123 25.2699 10.0004 25.5194Z" fill="#3095E8"/>
</g>
<defs>
<clipPath id="clip0_94_485">
<rect width="32" height="32" fill="white"/>
</clipPath>
</defs>
</svg>
