<svg width="32" height="32" viewBox="0 0 32 32" fill="none" xmlns="http://www.w3.org/2000/svg">
    <g clip-path="url(#clip0_504_112)">
        <path
            d="M23.7288 23.2949C23.9325 21.5987 23.8713 21.3512 25.1338 21.6249L25.455 21.6537C26.4263 21.6974 27.6963 21.4974 28.455 21.1512C30.0613 20.4062 31.0138 19.1612 29.43 19.4887C25.8175 20.2337 25.555 19.0099 25.555 19.0099C29.3713 13.3474 30.9675 6.15993 29.5888 4.40118C25.8338 -0.398823 19.3325 1.87118 19.2238 1.93118L19.1888 1.93743C18.4763 1.78743 17.6888 1.69993 16.7763 1.68743C15.1413 1.66243 13.9013 2.11618 12.9588 2.82993C12.9588 2.82993 1.36251 -1.94757 1.90126 8.83868C2.01626 11.1337 5.18876 26.2137 8.97626 21.6512C10.3625 19.9837 11.7 18.5749 11.7 18.5749C12.3625 19.0162 13.1588 19.2412 13.9925 19.1599L14.0575 19.1049C14.0383 19.321 14.0471 19.5386 14.0838 19.7524C13.1088 20.8424 13.3963 21.0337 11.4463 21.4349C9.47376 21.8412 10.6338 22.5649 11.3888 22.7549C12.3063 22.9849 14.4288 23.3099 15.8638 21.3024L15.8063 21.5312C16.1888 21.8374 16.1625 23.7312 16.2188 25.0837C16.275 26.4362 16.3638 27.6999 16.64 28.4437C16.9163 29.1874 17.24 31.1062 19.8025 30.5687C21.9438 30.1099 23.5813 29.4487 23.7313 23.3062"
            fill="black" />
        <path
            d="M23.7288 23.2949C23.9325 21.5987 23.8713 21.3512 25.1338 21.6249L25.455 21.6537C26.4263 21.6974 27.6963 21.4974 28.455 21.1512C30.0613 20.4062 31.0138 19.1612 29.43 19.4887C25.8175 20.2337 25.555 19.0099 25.555 19.0099C29.3713 13.3474 30.9675 6.15993 29.5888 4.40118C25.8338 -0.398823 19.3325 1.87118 19.2238 1.93118L19.1888 1.93743C18.4763 1.78743 17.6888 1.69993 16.7763 1.68743C15.1413 1.66243 13.9013 2.11618 12.9588 2.82993C12.9588 2.82993 1.36251 -1.94757 1.90126 8.83868C2.01626 11.1337 5.18876 26.2137 8.97626 21.6512C10.3625 19.9837 11.7 18.5749 11.7 18.5749C12.3625 19.0162 13.1588 19.2412 13.9925 19.1599L14.0575 19.1049C14.0383 19.321 14.0471 19.5386 14.0838 19.7524C13.1088 20.8424 13.3963 21.0337 11.4463 21.4349C9.47376 21.8412 10.6338 22.5649 11.3888 22.7549C12.3063 22.9849 14.4288 23.3099 15.8638 21.3024L15.8063 21.5312C16.1888 21.8374 16.1625 23.7312 16.2188 25.0837C16.275 26.4362 16.3638 27.6999 16.64 28.4437C16.9163 29.1874 17.24 31.1062 19.8025 30.5687C21.9438 30.1099 23.5813 29.4487 23.7313 23.3062"
            stroke="black" stroke-width="5.3725" />
        <path
            d="M29.4187 19.4999C25.8062 20.2449 25.5437 19.0212 25.5437 19.0212C29.3599 13.3587 30.9562 6.17117 29.5787 4.41242C25.8237 -0.387582 19.3224 1.88367 19.2137 1.94242L19.1787 1.94867C18.3846 1.78934 17.5773 1.70522 16.7674 1.69742C15.1324 1.67242 13.8924 2.12617 12.9499 2.83992C12.9499 2.83992 1.35243 -1.93758 1.89243 8.84867C2.00743 11.1437 5.17993 26.2237 8.96743 21.6612C10.3624 19.9837 11.6999 18.5749 11.6999 18.5749C12.3624 19.0162 13.1587 19.2412 13.9924 19.1599L14.0574 19.1049C14.0383 19.321 14.0472 19.5386 14.0837 19.7524C13.1087 20.8424 13.3962 21.0337 11.4462 21.4349C9.47368 21.8412 10.6337 22.5649 11.3887 22.7549C12.3062 22.9849 14.4287 23.3099 15.8637 21.3024L15.8062 21.5312C16.1887 21.8374 16.4562 23.5224 16.4112 25.0499C16.3662 26.5774 16.3362 27.6249 16.6362 28.4449C16.9362 29.2649 17.2362 31.1074 19.7987 30.5699C21.9399 30.1112 23.0487 28.9199 23.2049 26.9374C23.3149 25.5274 23.5624 25.7349 23.5799 24.4749L23.7799 23.8774C24.0087 21.9649 23.8174 21.3487 25.1362 21.6362L25.4574 21.6649C26.4287 21.7087 27.6999 21.5087 28.4449 21.1624C30.0512 20.4174 31.0024 19.1724 29.4187 19.4999Z"
            fill="#336791" />
        <path
            d="M16.0175 20.5837C15.9175 24.1412 16.0425 27.7237 16.39 28.5837C16.7375 29.4437 17.4837 31.1462 20.0475 30.5987C22.1887 30.14 22.9687 29.2512 23.3062 27.29L24.0975 21.0187M12.945 2.74995C12.945 2.74995 1.33997 -1.99505 1.87997 8.7912C1.99497 11.0862 5.16747 26.1662 8.95497 21.6037C10.3375 19.9375 11.5875 18.6337 11.5875 18.6337M19.2125 1.8837C18.8125 2.0087 25.6675 -0.622546 29.565 4.3562C30.94 6.11495 29.3462 13.3025 25.53 18.965"
            stroke="white" stroke-width="1.79" stroke-linecap="round" stroke-linejoin="round" />
        <path
            d="M25.5312 18.9625C25.5312 18.9625 25.7812 20.1875 29.4062 19.44C30.99 19.1125 30.0362 20.3575 28.4312 21.1025C27.1137 21.715 24.1587 21.8712 24.11 21.0275C23.985 18.8462 25.665 19.5087 25.5437 18.9625C25.4337 18.47 24.6812 17.9875 24.1862 16.7825C23.7525 15.7325 18.2362 7.66997 25.7162 8.86622C25.9912 8.80997 23.7662 1.74122 16.7662 1.63872C9.76623 1.53622 9.98748 10.245 9.98748 10.245"
            stroke="white" stroke-width="1.79" stroke-linecap="round" stroke-linejoin="bevel" />
        <path
            d="M14.0588 19.71C13.0838 20.8 13.3713 20.9912 11.4213 21.3925C9.44882 21.7987 10.6088 22.5225 11.3638 22.7125C12.2813 22.9425 14.4038 23.2675 15.8388 21.2587C16.2763 20.6462 15.8363 19.6712 15.2363 19.4237C14.9463 19.3037 14.5588 19.1537 14.0613 19.7112L14.0588 19.71Z"
            stroke="white" stroke-width="1.79" stroke-linejoin="round" />
        <path
            d="M13.995 19.6913C13.895 19.05 14.205 18.2888 14.5363 17.3963C15.0338 16.0588 16.1813 14.7213 15.2638 10.475C14.58 7.31251 9.98877 9.81626 9.98877 10.245C9.98877 10.6738 10.1963 12.42 9.91377 14.4513C9.54252 17.1038 11.6013 19.3463 13.9713 19.1175"
            stroke="white" stroke-width="1.79" stroke-linecap="round" stroke-linejoin="round" />
        <path
            d="M12.9025 10.1812C12.8812 10.3275 13.1712 10.7187 13.5475 10.7712C13.9237 10.8237 14.245 10.5187 14.2662 10.3712C14.2875 10.2237 13.9975 10.0637 13.6212 10.0112C13.245 9.95871 12.9212 10.0362 12.9025 10.1812Z"
            fill="white" stroke="white" stroke-width="0.5975" />
        <path
            d="M24.3574 9.8825C24.3774 10.0288 24.0887 10.42 23.7124 10.4725C23.3362 10.525 23.0124 10.22 22.9937 10.0725C22.9749 9.925 23.2624 9.765 23.6387 9.7125C24.0149 9.66 24.3387 9.7375 24.3574 9.8825Z"
            fill="white" stroke="white" stroke-width="0.2975" />
        <path
            d="M25.7024 8.86865C25.7649 10.0187 25.4549 10.7999 25.4149 12.0237C25.3574 13.8012 26.2624 15.8362 24.8987 17.8737"
            stroke="white" stroke-width="1.79" stroke-linecap="round" stroke-linejoin="round" />
    </g>
    <defs>
        <clipPath id="clip0_504_112">
            <rect width="32" height="32" fill="white" />
        </clipPath>
    </defs>
</svg>