<svg width="32" height="32" viewBox="0 0 32 32" fill="none" xmlns="http://www.w3.org/2000/svg">
<g clip-path="url(#clip0_94_530)">
<path d="M17.0688 17.4715H13.3506V23.888H10.873V8.80375C10.873 8.16454 11.4793 7.57031 12.1437 7.57031H17.0688C20.2596 7.57031 22.3018 9.67915 22.3018 12.5209C22.3018 15.3627 20.2596 17.4715 17.0688 17.4715ZM16.9318 9.7935H13.3525V15.2259H16.9318C18.653 15.2259 19.8223 14.2399 19.8223 12.5209C19.8223 10.802 18.653 9.7935 16.9318 9.7935Z" fill="black"/>
<path d="M22.6356 23.8907L18.8761 18.4883C18.8761 18.4883 18.4575 18.6889 17.1887 18.6889H15.9668L19.5499 23.8925L22.6337 23.8888L22.6356 23.8907Z" fill="black"/>
<path d="M2.3894 16.0584C2.38001 12.6505 3.4724 9.71121 5.70408 7.13374L3.89658 5.57227C1.2745 8.6015 -0.00933364 12.0581 5.10758e-05 16.064C0.0225744 24.8874 7.20376 32.0218 16.0367 31.9993L16.031 29.6149C8.51574 29.6318 2.40817 23.5639 2.3894 16.0584Z" fill="#6BBBAE"/>
<path d="M29.4795 17.8809C28.5467 24.6404 22.8652 29.5985 16.0331 29.6154H16.0312L16.0369 31.9998C24.0664 31.9792 30.7446 26.1513 31.8426 18.207L29.4795 17.8809Z" fill="#F2A900"/>
<path d="M24.4372 2.45312L23.1777 4.47761H23.1796C27.8213 7.35875 30.2257 12.4743 29.4786 17.8805L31.8417 18.2066C32.7201 11.852 29.8934 5.83852 24.4372 2.45312Z" fill="#5BC2E7"/>
<path d="M23.1792 4.47818L24.4386 2.4537C20.3488 -0.0844102 15.8816 -0.659889 11.2812 0.757251L11.9851 3.03667C15.8985 1.83135 19.6993 2.3206 23.1773 4.47818H23.1792Z" fill="#84BD00"/>
<path d="M11.9842 3.03723L11.2804 0.757812C8.21533 1.70257 5.99491 3.15158 3.89648 5.57346L5.70398 7.13494C7.48895 5.07297 9.37716 3.8414 11.9842 3.03723Z" fill="#E03C31"/>
</g>
<defs>
<clipPath id="clip0_94_530">
<rect width="32" height="32" fill="white"/>
</clipPath>
</defs>
</svg>
