<svg width="32" height="32" viewBox="0 0 32 32" fill="none" xmlns="http://www.w3.org/2000/svg">
<rect width="32" height="32" fill="#3D1461"/>
<path opacity="0.129" fill-rule="evenodd" clip-rule="evenodd" d="M7.64431 4.09014C8.8211 4.07627 9.76922 4.55037 10.4888 5.51236C13.5051 4.11702 15.2829 5.06518 15.8221 8.35681C18.6678 9.00765 19.0234 10.3706 16.8888 12.4457C20.0622 12.8894 23.2622 13.1264 26.4888 13.1568C30.3471 14.6503 31.8286 17.4355 30.9332 21.5124C30.0137 23.6785 28.4137 24.9822 26.1332 25.4235C26.2739 26.3281 26.0368 27.0985 25.4221 27.7346C23.1703 27.9716 20.9184 27.9716 18.6665 27.7346C17.91 27.1419 17.4359 26.3715 17.2443 25.4235C17.0409 26.2829 16.6853 27.0533 16.1776 27.7346C13.8073 27.9716 11.4369 27.9716 9.06654 27.7346C8.88876 27.5568 8.71098 27.379 8.5332 27.2013C8.4147 25.1864 8.29615 23.1716 8.17765 21.1568C7.41217 21.848 6.52328 22.0257 5.51098 21.6901C4.1988 20.9188 3.60623 19.7929 3.7332 18.3124C1.69808 18.053 0.631418 16.8678 0.533203 14.7568C0.689797 13.7919 1.16387 13.0215 1.95543 12.4457C0.828115 10.5146 1.18367 8.85537 3.02209 7.46792C3.60311 7.29245 4.19571 7.23321 4.79987 7.29014C4.99166 5.5573 5.93982 4.49064 7.64431 4.09014ZM8.71098 10.8457C10.1635 10.5466 11.2302 11.0207 11.911 12.2679C9.37583 11.9022 8.13139 12.9689 8.17765 15.4679C6.68975 13.8003 6.86753 12.2596 8.71098 10.8457Z" fill="#0E0F0E"/>
<path fill-rule="evenodd" clip-rule="evenodd" d="M14.0438 12.9785C13.8068 12.9785 13.5698 12.9785 13.3327 12.9785C12.5438 9.52336 10.529 8.51593 7.28827 9.95625C5.38058 11.5514 5.08429 13.3884 6.39939 15.4674C7.229 16.0029 7.99939 16.5955 8.7105 17.2451C7.88899 18.1178 7.29638 19.1252 6.93272 20.2674C6.15021 20.5607 5.49837 20.3829 4.97716 19.734C4.85866 18.9044 4.74011 18.0748 4.62161 17.2451C2.09335 17.2841 1.20446 16.0989 1.95493 13.6896C2.54752 13.334 3.02159 12.86 3.37715 12.2674C2.82914 11.6615 2.35507 11.0096 1.95493 10.3118C2.14315 9.75753 2.38019 9.2242 2.66604 8.71181C3.59299 8.42082 4.54115 8.24304 5.5105 8.17847C5.81027 7.54324 5.86954 6.89136 5.68827 6.22292C6.33659 5.63024 7.10694 5.27469 7.99939 5.15625C8.76579 5.72176 9.53617 6.31437 10.3105 6.93403C11.0083 6.53389 11.6602 6.05982 12.2661 5.51181C12.9176 5.77794 13.5102 6.13349 14.0438 6.57847C14.1912 7.47863 14.3097 8.36752 14.3994 9.24514C15.2206 9.42171 16.0503 9.48098 16.8883 9.42292C16.3457 10.9156 15.3975 12.1008 14.0438 12.9785Z" fill="#F2F2F3"/>
<path fill-rule="evenodd" clip-rule="evenodd" d="M13.3331 12.9785C13.5701 12.9785 13.8071 12.9785 14.0442 12.9785C14.9219 13.269 15.8701 13.4468 16.8886 13.5118C17.7371 13.9361 18.5668 14.3509 19.3775 14.7563C21.616 18.1277 21.1419 21.0315 17.9553 23.4674C17.1811 23.8949 16.3515 24.0726 15.4664 24.0007C15.4664 24.8304 15.4664 25.66 15.4664 26.4896C13.3331 26.4896 11.1997 26.4896 9.06641 26.4896C9.06641 22.1045 9.06641 17.7192 9.06641 13.3341C10.5603 13.4467 11.9825 13.3282 13.3331 12.9785Z" fill="#88A9B0"/>
<path fill-rule="evenodd" clip-rule="evenodd" d="M25.423 24.0005C24.7675 24.633 24.5304 25.4626 24.7118 26.4894C22.697 26.4894 20.6822 26.4894 18.6674 26.4894C18.3664 24.7094 18.8997 23.2872 20.2674 22.2227C22.1755 19.4078 21.8792 16.919 19.3785 14.756C19.3392 14.5365 19.2206 14.3587 19.023 14.2227C21.5118 13.9857 24.0007 13.9857 26.4896 14.2227C29.2646 15.567 30.272 17.7596 29.5118 20.8005C28.8215 22.7361 27.4585 23.8028 25.423 24.0005Z" fill="#8DA432"/>
<path opacity="0.635" fill-rule="evenodd" clip-rule="evenodd" d="M25.4224 24C25.2214 24.8719 24.9844 25.7015 24.7113 26.4889C24.5299 25.4621 24.767 24.6325 25.4224 24Z" fill="#3C4419"/>
</svg>
