<svg width="32" height="32" viewBox="0 0 33 33" fill="none" xmlns="http://www.w3.org/2000/svg">
    <path opacity="0.964" fill-rule="evenodd" clip-rule="evenodd"
        d="M32.5 5.77979C30.3294 5.72345 28.1961 5.78079 26.1 5.95178C26.0313 5.95178 25.9623 5.95178 25.8935 5.95178C19.6313 5.95178 13.3688 5.95178 7.10645 5.95178C7.10645 13.0032 7.10645 20.0546 7.10645 27.106C4.90429 27.106 2.70216 27.106 0.5 27.106C0.5 18.22 0.5 9.33416 0.5 0.448251C9.10243 0.419582 17.7046 0.448251 26.3065 0.534244C28.4127 2.2601 30.4772 4.00862 32.5 5.77979Z"
        fill="#70BE43" />
    <path fill-rule="evenodd" clip-rule="evenodd"
        d="M26.1 5.95172C28.1961 5.78073 30.3293 5.72339 32.5 5.77973C32.5 5.83706 32.5 5.8944 32.5 5.95172C32.3623 6.00904 32.2248 6.06638 32.0871 6.1237C30.1287 5.95278 28.1331 5.89546 26.1 5.95172Z"
        fill="#659F41" />
    <path opacity="0.952" fill-rule="evenodd" clip-rule="evenodd"
        d="M25.8936 5.95156C25.9623 5.95156 26.0313 5.95156 26.1 5.95156C28.1331 5.89531 30.1287 5.95263 32.0871 6.12355C30.1493 7.9101 28.0848 9.57254 25.8936 11.1111C25.8936 9.39127 25.8936 7.67141 25.8936 5.95156Z"
        fill="#619440" />
    <path opacity="0.969" fill-rule="evenodd" clip-rule="evenodd"
        d="M32.5 5.95166C32.5 13.0031 32.5 20.0544 32.5 27.1058C28.2329 27.0771 23.9661 27.1058 19.7 27.1918C17.601 28.9404 15.5022 30.6888 13.4032 32.4374C13.3 28.8262 13.2656 25.2145 13.3 21.6023C17.4978 21.6023 21.6958 21.6023 25.8936 21.6023C25.8936 18.1053 25.8936 14.6082 25.8936 11.1112C28.0848 9.57264 30.1493 7.91019 32.0871 6.12365C32.2248 6.06632 32.3623 6.00898 32.5 5.95166Z"
        fill="#70BE43" />
    <path opacity="0.969" fill-rule="evenodd" clip-rule="evenodd"
        d="M13.3 11.1113C15.5022 11.1113 17.7042 11.1113 19.9064 11.1113C19.9064 12.8885 19.9064 14.6657 19.9064 16.4429C17.7042 16.4429 15.5022 16.4429 13.3 16.4429C13.3 14.6657 13.3 12.8885 13.3 11.1113Z"
        fill="#70BF43" />
</svg>