<svg width="32" height="32" viewBox="0 0 33 33" fill="none" xmlns="http://www.w3.org/2000/svg">
    <path opacity="0.992" fill-rule="evenodd" clip-rule="evenodd"
        d="M19.2552 0.5C21.1893 0.5 23.1234 0.5 25.0575 0.5C28.2205 0.729546 30.5019 2.8624 31.9017 6.89856C32.5482 9.24589 32.6708 11.6502 32.2694 14.1115C31.5176 17.6443 29.9309 20.0777 27.5091 21.4116C26.7932 21.7551 26.0577 21.949 25.3026 21.9933C23.9952 22.0224 22.6876 22.0321 21.38 22.0224C21.2376 21.9837 21.0878 21.9643 20.9305 21.9642C20.6625 21.9591 20.4037 21.9978 20.1542 22.0806C18.8095 22.2112 17.5972 22.8413 16.5175 23.9711C16.2639 24.2449 16.0459 24.5648 15.8637 24.9308C15.5951 25.334 15.3908 25.7994 15.2508 26.3269C15.089 26.7396 14.9937 27.1856 14.9648 27.6648C14.8946 27.8594 14.8674 28.0726 14.8831 28.3046C14.8695 28.3046 14.8558 28.3046 14.8422 28.3046C14.8422 27.2382 14.8422 26.1718 14.8422 25.1054C14.8422 24.9115 14.8422 24.7175 14.8422 24.5237C15.2671 20.7005 16.7381 18.0636 19.2552 16.6127C19.7444 16.3659 20.2484 16.2011 20.7671 16.1183C22.1836 16.0989 23.6001 16.0795 25.0166 16.0601C26.499 15.8504 27.4728 14.7355 27.9382 12.7154C28.282 10.8052 27.9892 9.12804 27.0597 7.68383C26.5737 7.04718 26.0016 6.65937 25.3435 6.52046C23.3141 6.49137 21.2847 6.48166 19.2552 6.49137C19.2552 4.51364 19.2552 2.5359 19.2552 0.558169C19.2552 0.538779 19.2552 0.51939 19.2552 0.5Z"
        fill="#FEFEFE" />
    <path opacity="0.992" fill-rule="evenodd" clip-rule="evenodd"
        d="M19.2552 0.558105C19.2552 2.53584 19.2552 4.51358 19.2552 6.49131C19.2552 8.60475 19.2552 10.7183 19.2552 12.8317C17.3855 13.9327 16.1256 15.8523 15.4755 18.5904C15.0532 20.5201 14.8422 22.4978 14.8422 24.5236C14.8422 24.7175 14.8422 24.9114 14.8422 25.1053C14.8286 25.1053 14.8149 25.1053 14.8013 25.1053C14.8013 18.8812 14.8013 12.6572 14.8013 6.43314C14.8421 4.48473 14.8558 2.52639 14.8422 0.558105C16.3132 0.558105 17.7842 0.558105 19.2552 0.558105Z"
        fill="#F47800" />
    <path fill-rule="evenodd" clip-rule="evenodd"
        d="M19.2552 12.8315C19.2552 14.0919 19.2552 15.3522 19.2552 16.6125C16.7381 18.0634 15.2671 20.7003 14.8422 24.5234C14.8422 22.4977 15.0533 20.5199 15.4756 18.5902C16.1256 15.8521 17.3855 13.9326 19.2552 12.8315Z"
        fill="#D86101" />
    <path opacity="0.994" fill-rule="evenodd" clip-rule="evenodd"
        d="M7.6507 16.0894C9.1353 16.0894 10.6199 16.0894 12.1045 16.0894C12.1045 21.5572 12.1045 27.0251 12.1045 32.4929C10.6199 32.4929 9.1353 32.4929 7.6507 32.4929C7.6507 27.0251 7.6507 21.5572 7.6507 16.0894Z"
        fill="#F47900" />
    <path fill-rule="evenodd" clip-rule="evenodd"
        d="M20.1541 22.0806C19.0478 24.0217 17.6177 24.9718 15.8637 24.9308C16.0459 24.5648 16.2638 24.2448 16.5175 23.971C17.5972 22.8413 18.8094 22.2112 20.1541 22.0806Z"
        fill="#BABBBC" />
    <path fill-rule="evenodd" clip-rule="evenodd"
        d="M21.3799 22.0225C20.0882 22.1938 19.38 23.202 19.2552 25.0473C18.0189 26.0741 16.6841 26.5007 15.2508 26.327C15.3907 25.7994 15.595 25.3341 15.8637 24.9309C17.6177 24.9719 19.0478 24.0218 20.1541 22.0807C20.4037 21.9979 20.6625 21.9591 20.9305 21.9643C21.0877 21.9644 21.2376 21.9838 21.3799 22.0225Z"
        fill="#C9C9CA" />
    <path fill-rule="evenodd" clip-rule="evenodd"
        d="M19.2552 25.0474C19.2552 25.6291 19.2552 26.2107 19.2552 26.7924C17.9233 27.7095 16.5204 28.0488 15.0465 27.8104C14.9952 27.7861 14.9679 27.7377 14.9648 27.665C14.9937 27.1858 15.089 26.7398 15.2508 26.3271C16.6841 26.5008 18.0189 26.0742 19.2552 25.0474Z"
        fill="#D5D5D6" />
    <path opacity="0.986" fill-rule="evenodd" clip-rule="evenodd"
        d="M0.5 26.1523C1.98461 26.1523 3.46923 26.1523 4.95385 26.1523C4.95385 28.2658 4.95385 30.3793 4.95385 32.4927C3.46923 32.4927 1.98461 32.4927 0.5 32.4927C0.5 30.3793 0.5 28.2658 0.5 26.1523Z"
        fill="#F47900" />
    <path fill-rule="evenodd" clip-rule="evenodd"
        d="M19.2552 26.7925C19.2552 27.1027 19.2552 27.413 19.2552 27.7232C17.86 28.5969 16.4026 28.9072 14.8831 28.6539C14.8831 28.5375 14.8831 28.4212 14.8831 28.3049C14.8674 28.0728 14.8946 27.8596 14.9648 27.665C14.968 27.7377 14.9952 27.7862 15.0465 27.8104C16.5204 28.0489 17.9233 27.7096 19.2552 26.7925Z"
        fill="#DDDDDE" />
    <path fill-rule="evenodd" clip-rule="evenodd"
        d="M19.2552 27.7231C19.2552 28.0915 19.2552 28.46 19.2552 28.8283C17.832 29.6222 16.361 29.8937 14.8422 29.6427C14.8422 29.1967 14.8422 28.7508 14.8422 28.3048C14.8558 28.3048 14.8695 28.3048 14.8831 28.3048C14.8831 28.4212 14.8831 28.5375 14.8831 28.6538C16.4026 28.9072 17.86 28.5969 19.2552 27.7231Z"
        fill="#E3E3E4" />
    <path fill-rule="evenodd" clip-rule="evenodd"
        d="M19.2552 28.8281C19.2552 29.2159 19.2552 29.6037 19.2552 29.9915C17.8214 30.7208 16.3504 30.9535 14.8422 30.6895C14.8422 30.3405 14.8422 29.9915 14.8422 29.6425C16.361 29.8935 17.832 29.622 19.2552 28.8281Z"
        fill="#EAEAEA" />
    <path fill-rule="evenodd" clip-rule="evenodd"
        d="M19.2552 29.9917C19.2552 30.8061 19.2552 31.6204 19.2552 32.4348C17.7842 32.4348 16.3132 32.4348 14.8422 32.4348C14.8422 31.8531 14.8422 31.2714 14.8422 30.6897C16.3504 30.9537 17.8214 30.721 19.2552 29.9917Z"
        fill="#F1F1F1" />
    <path opacity="0.784" fill-rule="evenodd" clip-rule="evenodd"
        d="M14.8013 25.1055C14.8149 25.1055 14.8286 25.1055 14.8422 25.1055C14.8422 26.1719 14.8422 27.2383 14.8422 28.3047C14.8422 28.7507 14.8422 29.1966 14.8422 29.6426C14.8422 29.9916 14.8422 30.3407 14.8422 30.6897C14.8422 31.2713 14.8422 31.853 14.8422 32.4347C16.3132 32.4347 17.7842 32.4347 19.2552 32.4347C17.7775 32.4928 16.2929 32.5122 14.8013 32.4929C14.8013 30.0304 14.8013 27.5679 14.8013 25.1055Z"
        fill="#F6CEA8" />
</svg>