<svg width="32" height="32" viewBox="0 0 32 32" fill="none" xmlns="http://www.w3.org/2000/svg">
<path opacity="0.915" fill-rule="evenodd" clip-rule="evenodd" d="M13.8659 0C15.2881 0 16.7102 0 18.1324 0C23.1819 0.958526 27.1284 3.58963 29.9718 7.89333C33.2358 14.6661 32.5602 20.995 27.9452 26.88C25.1991 29.6339 21.9282 31.3406 18.1324 32C16.7102 32 15.2881 32 13.8659 32C5.13882 30.2775 0.516835 24.9442 0 16C0.605073 7.14818 5.22705 1.81484 13.8659 0ZM30.0784 14.08C29.8384 14.4275 29.5539 14.7475 29.2251 15.04C26.4656 15.7821 23.7634 16.671 21.1189 17.7067C21.2206 17.9152 21.3627 18.093 21.5455 18.24C24.532 18.3111 27.5186 18.3822 30.5051 18.4533C30.1757 18.5151 29.8913 18.6573 29.6518 18.88C27.16 18.9157 24.6711 19.0224 22.1855 19.2C23.709 21.2571 25.2733 23.2838 26.8786 25.28C26.3965 25.2894 25.9698 25.1117 25.5987 24.7467C24.2174 22.832 22.7954 20.9475 21.3322 19.0933C20.957 18.9232 20.6015 18.9587 20.2656 19.2C21.3222 22.0951 22.3175 25.0108 23.2521 27.9467C22.9603 28.1801 22.7113 28.1088 22.5055 27.7333C21.4463 24.8467 20.4864 21.9311 19.6256 18.9867C19.4123 18.9867 19.199 18.9867 18.9857 18.9867C19.0212 22.6852 18.9856 26.3829 18.879 30.08C18.6839 29.9034 18.5417 29.69 18.4524 29.44C18.3813 26.169 18.3101 22.8977 18.239 19.6267C17.026 23.1317 15.7816 26.6161 14.5059 30.08C14.28 29.3664 14.3155 28.6554 14.6126 27.9467C15.7092 25.1117 16.5981 22.2673 17.2791 19.4133C14.8614 22.6133 12.4438 25.8133 10.0261 29.0133C9.95504 28.9423 9.88392 28.871 9.81282 28.8C9.95233 28.4555 10.059 28.0998 10.1328 27.7333C12.0171 25.28 13.9015 22.8267 15.7858 20.3733C15.5725 20.2311 15.3592 20.2311 15.1459 20.3733C12.1387 22.3925 9.1877 24.4902 6.293 26.6667C6.24262 26.2827 6.34928 25.9273 6.61299 25.6C9.51628 23.6919 12.3606 21.7009 15.1459 19.6267C15.0748 19.5556 15.0036 19.4844 14.9325 19.4133C11.1066 20.724 7.26675 21.8974 3.41315 22.9333C3.69758 22.649 3.98202 22.3644 4.26644 22.08C7.26419 21.1399 10.2507 20.1799 13.226 19.2C9.38814 19.0223 5.54834 18.9156 1.70658 18.88C2.03597 18.8182 2.32039 18.676 2.55987 18.4533C7.25295 18.3822 11.946 18.3111 16.6391 18.24C17.4113 18.1795 17.9446 17.7884 18.239 17.0667C18.3813 16.3556 18.3813 15.6444 18.239 14.9333C15.3073 11.1315 12.4274 7.2915 9.5995 3.41333C9.63506 3.34223 9.6706 3.2711 9.70616 3.2C10.0784 3.51055 10.4694 3.79499 10.8794 4.05333C12.7846 6.88203 14.8467 9.58426 17.0658 12.16C17.1369 12.0889 17.208 12.0178 17.2791 11.9467C16.1146 8.78302 15.048 5.58302 14.0793 2.34667C14.3553 2.51518 14.6042 2.72851 14.8259 2.98667C15.8983 6.28122 17.036 9.55232 18.239 12.8C18.3101 9.24444 18.3813 5.6889 18.4524 2.13333C18.5946 2.41777 18.7368 2.70223 18.879 2.98667C18.9501 6.75556 19.0212 10.5244 19.0923 14.2933C20.341 10.6462 21.6208 7.01954 22.9321 3.41333C23.0744 4.12444 23.0744 4.83556 22.9321 5.54667C21.7623 8.51179 20.8023 11.4985 20.0523 14.5067C22.1842 11.7687 24.2818 8.99535 26.3453 6.18667C26.4876 6.54223 26.4876 6.89777 26.3453 7.25333C24.1764 10.1689 22.0078 13.0844 19.839 16C19.9101 16.0711 19.9812 16.1422 20.0523 16.2133C22.9966 14.227 25.8764 12.1648 28.6918 10.0267C28.8062 10.4677 28.6995 10.8588 28.3718 11.2C25.6818 12.9659 23.0507 14.8148 20.4789 16.7467C20.5856 16.8533 20.6922 16.96 20.7989 17.0667C23.8633 15.9893 26.9564 14.9937 30.0784 14.08ZM7.03963 8.74667C7.25208 8.72836 7.42984 8.79949 7.57294 8.96C8.00016 10.1073 8.35568 11.245 8.63955 12.3733C7.8093 12.667 6.99155 12.987 6.18634 13.3333C5.8308 13.4756 5.47527 13.4756 5.11973 13.3333C4.82605 12.503 4.50607 11.6852 4.15978 10.88C3.98966 10.5048 4.0252 10.1492 4.26644 9.81333C5.27379 9.58863 6.19818 9.23307 7.03963 8.74667ZM11.946 13.2267C12.5048 13.1694 13.0381 13.2405 13.546 13.44C14.104 14.8529 13.6419 15.5285 12.1594 15.4667C11.3989 14.7806 11.3278 14.034 11.946 13.2267Z" fill="#3065C2"/>
</svg>
