<svg width="32" height="32" viewBox="0 0 32 32" fill="none" xmlns="http://www.w3.org/2000/svg">
<g clip-path="url(#clip0_96_992)">
<path fill-rule="evenodd" clip-rule="evenodd" d="M-0.0839844 -0.0839844C10.5827 -0.0839844 21.2493 -0.0839844 31.916 -0.0839844C31.916 10.5827 31.916 21.2493 31.916 31.916C21.2493 31.916 10.5827 31.916 -0.0839844 31.916C-0.0839844 21.2493 -0.0839844 10.5827 -0.0839844 -0.0839844Z" fill="#1C79CA"/>
<path fill-rule="evenodd" clip-rule="evenodd" d="M10.5835 7.41732C10.5835 12.1951 10.5835 16.9728 10.5835 21.7507C10.4752 21.8013 10.3641 21.8568 10.2502 21.9173C10.0558 17.0293 10.028 12.1405 10.1669 7.25065C10.2224 7.1951 10.278 7.13953 10.3335 7.08398C10.3799 7.23662 10.4633 7.34773 10.5835 7.41732Z" fill="#1874CA"/>
<path fill-rule="evenodd" clip-rule="evenodd" d="M17.9173 7.41666C15.5284 7.41666 13.1395 7.41666 10.7507 7.41666C10.7507 12.25 10.7507 17.0833 10.7507 21.9167C10.6395 21.9167 10.584 21.8612 10.584 21.75C10.584 16.9722 10.584 12.1944 10.584 7.41666C13.0284 7.19445 15.4729 7.19445 17.9173 7.41666Z" fill="#4A92D0"/>
<path fill-rule="evenodd" clip-rule="evenodd" d="M17.9167 7.41726C18.1832 7.37262 18.4053 7.42817 18.5833 7.58392C16.0278 7.58392 13.4722 7.58392 10.9167 7.58392C10.9167 12.3061 10.9167 17.0284 10.9167 21.7506C10.9167 21.8061 10.9167 21.8618 10.9167 21.9173C10.8611 21.9173 10.8056 21.9173 10.75 21.9173C10.75 17.0839 10.75 12.2506 10.75 7.41726C13.1389 7.41726 15.5278 7.41726 17.9167 7.41726Z" fill="#9EC2E4"/>
<path fill-rule="evenodd" clip-rule="evenodd" d="M18.5827 7.58398C18.7493 7.58398 18.916 7.58398 19.0827 7.58398C19.1382 7.6951 19.1938 7.8062 19.2493 7.91732C16.5329 7.75803 13.8107 7.70247 11.0827 7.75065C11.0827 12.4173 11.0827 17.084 11.0827 21.7507C11.0271 21.7507 10.9716 21.7507 10.916 21.7507C10.916 17.0285 10.916 12.3062 10.916 7.58398C13.4716 7.58398 16.0271 7.58398 18.5827 7.58398Z" fill="#EBF3F7"/>
<path fill-rule="evenodd" clip-rule="evenodd" d="M19.2507 7.91587C19.8085 8.10077 20.3085 8.37854 20.7507 8.74921C20.8523 8.89771 20.9078 9.06437 20.9173 9.24921C21.0853 9.58986 21.252 9.92319 21.4173 10.2492C21.7892 11.7979 21.567 13.2423 20.7507 14.5825C20.5285 14.6937 20.3618 14.8603 20.2507 15.0825C19.7382 15.3788 19.2382 15.6566 18.7507 15.9159C18.6395 15.9159 18.5285 15.9159 18.4173 15.9159C16.5284 15.9159 14.6395 15.9159 12.7507 15.9159C12.5848 17.8305 12.5293 19.775 12.584 21.7492C12.084 21.7492 11.584 21.7492 11.084 21.7492C11.084 17.0825 11.084 12.4159 11.084 7.74921C13.812 7.70102 16.5343 7.75659 19.2507 7.91587Z" fill="#F9FBFD"/>
<path fill-rule="evenodd" clip-rule="evenodd" d="M19.084 7.58398C19.5118 7.79232 19.9562 7.98677 20.4173 8.16732C20.6378 8.3033 20.7488 8.49775 20.7507 8.75065C20.3085 8.37998 19.8085 8.10222 19.2507 7.91732C19.1952 7.8062 19.1395 7.6951 19.084 7.58398Z" fill="#77AAD9"/>
<path fill-rule="evenodd" clip-rule="evenodd" d="M12.75 8.91674C14.3913 8.86222 16.0024 8.91777 17.5833 9.0834C15.9975 9.02892 14.442 9.08447 12.9167 9.25007C12.8611 9.25007 12.8056 9.25007 12.75 9.25007C12.75 9.13895 12.75 9.02785 12.75 8.91674Z" fill="#87B3DD"/>
<path fill-rule="evenodd" clip-rule="evenodd" d="M12.916 9.2494C14.4413 9.0838 15.9968 9.02825 17.5827 9.08273C17.896 9.03758 18.1182 9.1487 18.2493 9.41607C16.4801 9.2571 14.7024 9.20155 12.916 9.2494Z" fill="#488FD0"/>
<path fill-rule="evenodd" clip-rule="evenodd" d="M12.7507 8.91602C12.7507 9.02713 12.7507 9.13823 12.7507 9.24935C12.6961 10.9461 12.7517 12.6128 12.9173 14.2493C12.9173 14.3049 12.9173 14.3605 12.9173 14.416C12.6959 13.562 12.5848 12.6454 12.584 11.666C12.5841 10.7198 12.6396 9.80317 12.7507 8.91602Z" fill="#A7CAE7"/>
<path fill-rule="evenodd" clip-rule="evenodd" d="M20.916 9.25C21.2097 9.37705 21.3763 9.59927 21.416 9.91667C21.416 10.0278 21.416 10.1389 21.416 10.25C21.2507 9.92398 21.084 9.59065 20.916 9.25Z" fill="#ABCCE9"/>
<path fill-rule="evenodd" clip-rule="evenodd" d="M12.916 9.24903C14.7024 9.20118 16.4801 9.25673 18.2493 9.4157C18.8438 9.51035 19.2328 9.84368 19.416 10.4157C19.6373 11.5867 19.4707 12.6978 18.916 13.749C18.7143 13.821 18.5477 13.9321 18.416 14.0824C18.1938 14.0824 17.9715 14.0824 17.7493 14.0824C16.1382 14.0824 14.5271 14.0824 12.916 14.0824C12.916 12.4712 12.916 10.8601 12.916 9.24903Z" fill="#1D78CA"/>
<path fill-rule="evenodd" clip-rule="evenodd" d="M21.4167 9.91602C21.537 9.9856 21.6203 10.0967 21.6667 10.2493C21.848 11.5573 21.7368 12.8351 21.3333 14.0827C21.1602 14.2844 20.9657 14.451 20.75 14.5827C21.5663 13.2424 21.7885 11.798 21.4167 10.2493C21.4167 10.1382 21.4167 10.0271 21.4167 9.91602Z" fill="#5B9BD6"/>
<path fill-rule="evenodd" clip-rule="evenodd" d="M19.416 10.416C19.5188 10.4345 19.6022 10.49 19.666 10.5827C19.8247 11.5596 19.7135 12.504 19.3327 13.416C19.2147 13.5628 19.0757 13.6739 18.916 13.7493C19.4707 12.6982 19.6373 11.5871 19.416 10.416Z" fill="#7AABDB"/>
<path fill-rule="evenodd" clip-rule="evenodd" d="M12.7507 9.25C12.8063 9.25 12.8619 9.25 12.9174 9.25C12.9174 10.8611 12.9174 12.4722 12.9174 14.0833C14.5285 14.0833 16.1396 14.0833 17.7507 14.0833C16.1698 14.249 14.5587 14.3045 12.9174 14.25C12.7517 12.6134 12.6962 10.9468 12.7507 9.25Z" fill="#428BCF"/>
<path fill-rule="evenodd" clip-rule="evenodd" d="M17.7493 14.084C17.9715 14.084 18.1938 14.084 18.416 14.084C18.2888 14.212 18.1222 14.2953 17.916 14.334C16.2503 14.4173 14.5836 14.4451 12.916 14.4173C12.916 14.3618 12.916 14.3062 12.916 14.2507C14.5573 14.3052 16.1684 14.2496 17.7493 14.084Z" fill="#8AB8E3"/>
<path fill-rule="evenodd" clip-rule="evenodd" d="M20.25 15.084C19.9172 15.6411 19.4172 15.9189 18.75 15.9173C19.2375 15.6581 19.7375 15.3803 20.25 15.084Z" fill="#659FD7"/>
<path fill-rule="evenodd" clip-rule="evenodd" d="M12.75 15.916C14.6389 15.916 16.5278 15.916 18.4167 15.916C16.6132 16.0818 14.7799 16.1373 12.9167 16.0827C12.9714 18.0568 12.9158 20.0013 12.75 21.916C12.75 19.916 12.75 17.916 12.75 15.916Z" fill="#6BA4D9"/>
<path fill-rule="evenodd" clip-rule="evenodd" d="M12.7493 15.916C12.7493 17.916 12.7493 19.916 12.7493 21.916C12.1382 21.916 11.5271 21.916 10.916 21.916C10.916 21.8605 10.916 21.8048 10.916 21.7493C10.9716 21.7493 11.0271 21.7493 11.0827 21.7493C11.5827 21.7493 12.0827 21.7493 12.5827 21.7493C12.528 19.7752 12.5835 17.8307 12.7493 15.916Z" fill="#ACCDE8"/>
<path fill-rule="evenodd" clip-rule="evenodd" d="M29.0827 27.4162C28.4272 27.309 27.8717 27.4757 27.416 27.9162C27.4178 27.6634 27.5288 27.4689 27.7493 27.3329C28.2272 27.1994 28.6717 27.2272 29.0827 27.4162Z" fill="#6DA5DA"/>
<path fill-rule="evenodd" clip-rule="evenodd" d="M25.4166 27.4162C24.2461 27.2545 23.6349 27.7545 23.5832 28.9162C23.2816 28.27 23.4482 27.7424 24.0832 27.3329C24.5611 27.1994 25.0056 27.2272 25.4166 27.4162Z" fill="#82B1DE"/>
<path fill-rule="evenodd" clip-rule="evenodd" d="M29.084 27.416C29.846 27.5138 30.1793 27.9583 30.084 28.7493C29.8175 28.794 29.5953 28.7383 29.4173 28.5827C29.584 28.5827 29.7507 28.5827 29.9173 28.5827C29.8337 28.0545 29.5558 27.6657 29.084 27.416Z" fill="#73A8DA"/>
<path fill-rule="evenodd" clip-rule="evenodd" d="M22.0827 27.5827C21.8605 27.5827 21.7494 27.6939 21.7494 27.916C21.3565 27.8889 20.9677 27.9165 20.5827 27.9994C20.49 28.0632 20.4345 28.1465 20.416 28.2494C20.3049 28.3049 20.1939 28.3605 20.0827 28.416C20.031 28.2097 19.9477 28.2097 19.8327 28.416C19.6329 28.9537 19.5495 29.5092 19.5827 30.0827C19.142 28.9445 19.4754 28.0834 20.5827 27.4994C21.1154 27.3652 21.6154 27.393 22.0827 27.5827Z" fill="#C1D8ED"/>
<path fill-rule="evenodd" clip-rule="evenodd" d="M22.0833 27.584C22.25 27.6952 22.4167 27.8062 22.5833 27.9173C22.5898 28.0978 22.6455 28.2645 22.75 28.4173C22.6738 28.5503 22.5627 28.6058 22.4167 28.584C22.4288 28.3295 22.3177 28.1628 22.0833 28.084C22.0263 27.9443 21.9153 27.8887 21.75 27.9173C21.75 27.6952 21.8612 27.584 22.0833 27.584Z" fill="#E4EEF6"/>
<path fill-rule="evenodd" clip-rule="evenodd" d="M21.7493 27.9163C21.9147 27.8877 22.0257 27.9433 22.0827 28.083C21.5157 28.0567 20.96 28.1123 20.416 28.2497C20.4345 28.1468 20.49 28.0635 20.5827 27.9997C20.9677 27.9168 21.3565 27.8892 21.7493 27.9163Z" fill="#619DD5"/>
<path fill-rule="evenodd" clip-rule="evenodd" d="M22.5827 27.916C22.8682 28.1052 22.9793 28.383 22.916 28.7493C22.7008 28.7888 22.5342 28.7333 22.416 28.5827C22.562 28.6045 22.6732 28.549 22.7493 28.416C22.6448 28.2632 22.5892 28.0965 22.5827 27.916Z" fill="#AECCE8"/>
<path fill-rule="evenodd" clip-rule="evenodd" d="M28.0831 27.9163C28.0276 28.0274 27.9719 28.1384 27.9164 28.2496C27.7657 28.3678 27.7102 28.5344 27.7497 28.7496C27.5667 28.5661 27.5389 28.3439 27.6664 28.0829C27.7782 27.9576 27.9171 27.9019 28.0831 27.9163Z" fill="#93BDE2"/>
<path fill-rule="evenodd" clip-rule="evenodd" d="M22.0829 28.084C22.3173 28.1628 22.4284 28.3295 22.4163 28.584C22.1819 28.5052 22.0708 28.3385 22.0829 28.084Z" fill="#6DA6D9"/>
<path fill-rule="evenodd" clip-rule="evenodd" d="M24.2494 28.084C24.2494 28.3618 24.2494 28.6395 24.2494 28.9173C23.8049 28.6395 23.8049 28.3618 24.2494 28.084Z" fill="#66A0D8"/>
<path fill-rule="evenodd" clip-rule="evenodd" d="M26.25 28.084C26.4057 28.262 26.4613 28.4842 26.4167 28.7507C26.1945 28.7507 25.9722 28.7507 25.75 28.7507C25.75 28.584 25.75 28.4173 25.75 28.2507C26.051 28.7237 26.2177 28.6682 26.25 28.084Z" fill="#7BADDC"/>
<path fill-rule="evenodd" clip-rule="evenodd" d="M27.9173 28.25C27.9019 28.7333 28.1241 29.0112 28.5839 29.0833C28.2176 29.1467 27.9398 29.0355 27.7506 28.75C27.7111 28.5348 27.7666 28.3682 27.9173 28.25Z" fill="#649ED7"/>
<path fill-rule="evenodd" clip-rule="evenodd" d="M20.0833 28.4165C19.8808 29.05 19.8808 29.661 20.0833 30.2498C20.0711 30.5043 20.1823 30.671 20.4166 30.7498C20.4351 30.8526 20.4906 30.936 20.5833 30.9998C21.0611 31.1333 21.5056 31.1055 21.9166 30.9165C22.0833 30.6943 22.2499 30.472 22.4166 30.2498C22.6993 29.9783 22.8659 30.0338 22.9166 30.4165C22.9166 30.472 22.9166 30.5276 22.9166 30.5831C22.6823 30.662 22.5711 30.8286 22.5833 31.0831C22.4721 31.0831 22.4166 31.1386 22.4166 31.2498C21.6944 31.472 20.9721 31.472 20.2499 31.2498C20.1944 31.0831 20.0833 30.972 19.9166 30.9165C19.9288 30.662 19.8176 30.4953 19.5833 30.4165C19.5833 30.3053 19.5833 30.1943 19.5833 30.0831C19.5501 29.5096 19.6334 28.9541 19.8333 28.4165C19.9483 28.2101 20.0316 28.2101 20.0833 28.4165Z" fill="#DFEAF4"/>
<path fill-rule="evenodd" clip-rule="evenodd" d="M24.25 28.9159C24.7047 28.8611 25.0937 28.9721 25.4167 29.2493C24.962 29.3041 24.573 29.1931 24.25 28.9159Z" fill="#77ACDB"/>
<path fill-rule="evenodd" clip-rule="evenodd" d="M20.4168 28.25C20.2735 28.9057 20.218 29.5723 20.2502 30.25C20.1947 30.25 20.139 30.25 20.0835 30.25C19.881 29.6612 19.881 29.0502 20.0835 28.4167C20.1947 28.3612 20.3057 28.3055 20.4168 28.25Z" fill="#68A0D7"/>
<path fill-rule="evenodd" clip-rule="evenodd" d="M25.916 29.416C26.1688 29.4178 26.3633 29.5288 26.4993 29.7493C26.632 30.1725 26.6042 30.5613 26.416 30.916C26.512 30.314 26.3453 29.814 25.916 29.416Z" fill="#7FAFDE"/>
<path fill-rule="evenodd" clip-rule="evenodd" d="M29.416 29.25C29.7908 29.3467 30.0685 29.5688 30.2493 29.9167C30.2967 30.2358 30.2412 30.5135 30.0827 30.75C30.1093 30.4668 30.0817 30.189 29.9993 29.9167C29.77 29.7158 29.5757 29.4937 29.416 29.25Z" fill="#7AACDC"/>
<path fill-rule="evenodd" clip-rule="evenodd" d="M23.916 30.2493C23.7493 30.2493 23.5827 30.2493 23.416 30.2493C23.416 30.416 23.416 30.5827 23.416 30.7493C23.2957 30.5742 23.129 30.463 22.916 30.416C22.8653 30.0333 22.6987 29.9778 22.416 30.2493C22.4645 30.0578 22.6033 29.9467 22.8327 29.916C23.2327 29.9663 23.5937 30.0773 23.916 30.2493Z" fill="#629DD5"/>
<path fill-rule="evenodd" clip-rule="evenodd" d="M27.5839 30.4163C27.2343 30.1806 27.0676 30.2916 27.0839 30.7496C26.9283 30.5716 26.8726 30.3494 26.9173 30.0829C27.2478 30.0258 27.4701 30.1369 27.5839 30.4163Z" fill="#68A3D9"/>
<path fill-rule="evenodd" clip-rule="evenodd" d="M20.0829 30.25C20.1384 30.25 20.1941 30.25 20.2496 30.25C20.3513 30.3985 20.4068 30.5652 20.4163 30.75C20.1819 30.6712 20.0708 30.5045 20.0829 30.25Z" fill="#96BEE3"/>
<path fill-rule="evenodd" clip-rule="evenodd" d="M19.5829 30.416C19.8173 30.4948 19.9284 30.6615 19.9163 30.916C19.6819 30.8372 19.5708 30.6705 19.5829 30.416Z" fill="#8BB7E2"/>
<path fill-rule="evenodd" clip-rule="evenodd" d="M22.9163 30.584C22.9284 30.8385 22.8173 31.0052 22.5829 31.084C22.5708 30.8295 22.6819 30.6628 22.9163 30.584Z" fill="#81B0DF"/>
<path fill-rule="evenodd" clip-rule="evenodd" d="M25.416 27.4163C25.8667 27.4447 26.1445 27.6668 26.2493 28.083C26.217 28.6672 26.0503 28.7227 25.7493 28.2497C25.2705 27.8952 24.7705 27.8397 24.2493 28.083C23.8048 28.3608 23.8048 28.6385 24.2493 28.9163C24.5723 29.1935 24.9613 29.3045 25.416 29.2497C25.5645 29.3513 25.7312 29.4068 25.916 29.4163C26.3453 29.8143 26.512 30.3143 26.416 30.9163C26.179 31.1538 25.9012 31.3205 25.5827 31.4163C24.7188 31.5772 23.9967 31.355 23.416 30.7497C23.416 30.583 23.416 30.4163 23.416 30.2497C23.5827 30.2497 23.7493 30.2497 23.916 30.2497C24.0045 30.8113 24.3378 31.0892 24.916 31.083C25.7487 31.114 26.0265 30.7528 25.7493 29.9997C25.0647 29.8285 24.398 29.6063 23.7493 29.333C23.624 29.2212 23.5683 29.0823 23.5827 28.9163C23.6343 27.7547 24.2455 27.2547 25.416 27.4163Z" fill="#D2E3F1"/>
<path fill-rule="evenodd" clip-rule="evenodd" d="M20.416 30.75C20.9043 30.8832 21.4043 30.9387 21.916 30.9167C21.505 31.1057 21.0605 31.1335 20.5827 31C20.49 30.9362 20.4345 30.8528 20.416 30.75Z" fill="#79ADDC"/>
<path fill-rule="evenodd" clip-rule="evenodd" d="M29.0831 27.4162C29.555 27.6659 29.8328 28.0547 29.9165 28.5829C29.7498 28.5829 29.5831 28.5829 29.4165 28.5829C29.4146 28.3301 29.3036 28.1356 29.0831 27.9996C28.7543 27.9171 28.421 27.8892 28.0831 27.9162C27.9171 27.9019 27.7783 27.9576 27.6665 28.0829C27.539 28.3439 27.5668 28.5661 27.7498 28.7496C27.939 29.0351 28.2168 29.1462 28.5831 29.0829C28.8196 29.2414 29.0973 29.2969 29.4165 29.2496C29.5761 29.4932 29.7705 29.7154 29.9998 29.9162C30.0821 30.1886 30.1098 30.4664 30.0831 30.7496C29.9023 31.0974 29.6246 31.3196 29.2498 31.4162C28.5853 31.4979 27.9741 31.3869 27.4165 31.0829C27.2498 31.0274 27.1386 30.9162 27.0831 30.7496C27.0668 30.2916 27.2335 30.1806 27.5831 30.4162C27.6855 30.9606 28.0188 31.1827 28.5831 31.0829C29.4158 31.1139 29.6936 30.7527 29.4165 29.9996C28.7146 29.8426 28.048 29.5926 27.4165 29.2496C26.9975 28.7652 26.9975 28.3207 27.4165 27.9162C27.8721 27.4757 28.4276 27.3091 29.0831 27.4162Z" fill="#D0E1F1"/>
<path fill-rule="evenodd" clip-rule="evenodd" d="M20.25 31.25C20.9722 31.4722 21.6945 31.4722 22.4167 31.25C22.3982 31.3528 22.3427 31.4362 22.25 31.5C21.6388 31.6112 21.0278 31.6112 20.4167 31.5C20.324 31.4362 20.2685 31.3528 20.25 31.25Z" fill="#7DADDA"/>
<path fill-rule="evenodd" clip-rule="evenodd" d="M23.416 30.75C23.9967 31.3553 24.7188 31.5775 25.5827 31.4167C25.0593 31.6068 24.5038 31.6347 23.916 31.5C23.6425 31.3118 23.4758 31.0618 23.416 30.75Z" fill="#7CADD9"/>
<path fill-rule="evenodd" clip-rule="evenodd" d="M27.4163 31.084C27.9739 31.388 28.5851 31.499 29.2496 31.4173C29.2496 31.4728 29.2496 31.5285 29.2496 31.584C28.6913 31.6115 28.1358 31.5837 27.5829 31.5007C27.4576 31.3888 27.4019 31.25 27.4163 31.084Z" fill="#7CACD9"/>
<path fill-rule="evenodd" clip-rule="evenodd" d="M30.25 29.916C30.5617 30.8315 30.2283 31.3872 29.25 31.5827C29.25 31.5272 29.25 31.4715 29.25 31.416C29.6248 31.3193 29.9025 31.0972 30.0833 30.7493C30.2418 30.5128 30.2973 30.2352 30.25 29.916Z" fill="#3F89D0"/>
</g>
<defs>
<clipPath id="clip0_96_992">
<rect width="32" height="32" fill="white"/>
</clipPath>
</defs>
</svg>
