<svg width="32" height="32" viewBox="0 0 32 32" fill="none" xmlns="http://www.w3.org/2000/svg">
<path fill-rule="evenodd" clip-rule="evenodd" d="M8.39123 2.856C8.39123 4.284 8.39123 5.712 8.39123 7.13999C10.976 7.09286 13.536 7.14045 16.0713 7.28279C13.4638 7.28279 10.8564 7.28279 8.24901 7.28279C8.20242 5.78147 8.24983 4.30587 8.39123 2.856Z" fill="#A7BDCF"/>
<path fill-rule="evenodd" clip-rule="evenodd" d="M14.08 0C15.1229 0 16.166 0 17.2089 0C18.5067 0.0750806 19.7867 0.336881 21.0489 0.785399C22.1505 1.15813 22.9801 1.84833 23.5378 2.856C23.6992 4.51233 23.7703 6.17834 23.7511 7.85399C23.7689 9.57529 23.6978 11.2889 23.5378 12.9948C22.914 14.3918 21.8473 15.2247 20.3378 15.4938C17.0667 15.5413 13.7956 15.589 10.5244 15.6366C8.76782 16.1629 7.70115 17.329 7.32444 19.1352C7.25335 20.7528 7.22965 22.3713 7.25333 23.9904C6.11457 24.0141 4.9768 23.9904 3.84 23.919C2.97469 23.6152 2.23989 23.1154 1.63556 22.4196C0.625674 20.7879 0.0804888 19.0268 0 17.136C0 16.3744 0 15.6127 0 14.8512C0.109679 13.9572 0.275604 13.0528 0.497778 12.138C1.0941 10.2064 2.35039 8.94505 4.26667 8.35379C8.2012 8.28239 12.136 8.2586 16.0711 8.28239C16.0711 7.9492 16.0711 7.61599 16.0711 7.28279C13.5359 7.14045 10.9759 7.09285 8.39111 7.13999C8.39111 5.71199 8.39111 4.284 8.39111 2.856C8.63047 2.25745 9.00974 1.75765 9.52889 1.3566C10.9762 0.605863 12.4932 0.153663 14.08 0Z" fill="#3570A2"/>
<path fill-rule="evenodd" clip-rule="evenodd" d="M11.2356 2.4276C12.6841 2.47537 13.2293 3.18936 12.8711 4.5696C11.8867 5.57875 11.0334 5.48354 10.3111 4.284C10.165 3.43491 10.4732 2.81611 11.2356 2.4276Z" fill="#EEEFF0"/>
<path fill-rule="evenodd" clip-rule="evenodd" d="M32 13.1376C32 14.8987 32 16.66 32 18.4212C31.7427 19.7408 31.245 20.9784 30.5067 22.134C29.8738 22.8637 29.0916 23.3635 28.16 23.6334C24.1307 23.7048 20.101 23.7286 16.0711 23.7048C16.0711 24.0856 16.0711 24.4663 16.0711 24.8472C18.6311 24.8472 21.1911 24.8472 23.7511 24.8472C24.9489 28.8604 23.5267 31.1691 19.4845 31.773C17.9738 31.9603 16.4567 32.0317 14.9333 31.9872C14.169 31.9839 13.4105 31.9125 12.6577 31.773C8.60278 30.7995 7.18056 28.2529 8.39107 24.1332C8.37167 22.41 8.44278 20.6964 8.6044 18.9924C9.20979 17.6758 10.2291 16.8904 11.6622 16.6362C14.8385 16.5886 18.0149 16.5409 21.1911 16.4934C23.3522 16.086 24.5611 14.7771 24.8178 12.5664C24.8889 11.0915 24.9125 9.61593 24.8889 8.13956C26.0277 8.1158 27.1655 8.13961 28.3022 8.21096C28.7457 8.36215 29.1724 8.55256 29.5822 8.78216C30.8928 9.96306 31.6988 11.4149 32 13.1376Z" fill="#FDD041"/>
<path fill-rule="evenodd" clip-rule="evenodd" d="M19.9109 26.8465C21.2549 26.6499 21.8949 27.2211 21.8309 28.5601C21.2488 29.6515 20.4428 29.8419 19.4131 29.1313C18.8339 28.1908 18.9998 27.4293 19.9109 26.8465Z" fill="#F4F3F1"/>
</svg>
