<svg width="32" height="32" viewBox="0 0 32 32" fill="none" xmlns="http://www.w3.org/2000/svg">
<g clip-path="url(#clip0_99_9)">
<path fill-rule="evenodd" clip-rule="evenodd" d="M-0.0703125 -0.0703125C10.5964 -0.0703125 21.263 -0.0703125 31.9297 -0.0703125C31.9297 10.5964 31.9297 21.263 31.9297 31.9297C21.263 31.9297 10.5964 31.9297 -0.0703125 31.9297C-0.0703125 21.263 -0.0703125 10.5964 -0.0703125 -0.0703125Z" fill="#FE9106"/>
<path fill-rule="evenodd" clip-rule="evenodd" d="M14.4346 2.91602C19.1534 2.96599 22.0216 5.28896 23.0391 9.8849C23.1102 12.0177 23.1339 14.151 23.1102 16.2849C25.7325 16.56 27.368 17.9822 28.0168 20.5516C28.2763 22.665 27.7547 24.5612 26.4524 26.2405C25.6464 27.0938 24.8406 27.9471 24.0346 28.8005C23.9873 27.5678 23.9398 26.3353 23.8924 25.1027C23.4673 24.496 22.922 24.3775 22.2568 24.7471C20.5468 25.5699 18.7927 26.281 16.9946 26.8805C12.716 27.6685 9.61077 26.1278 7.67907 22.2582C7.42278 21.5649 7.23316 20.8538 7.11018 20.1249C7.01536 16.7116 7.01536 13.2982 7.11018 9.8849C7.97064 5.87127 10.4121 3.54829 14.4346 2.91602Z" fill="#030100"/>
<path fill-rule="evenodd" clip-rule="evenodd" d="M15.8581 5.04883C17.505 7.15463 18.9035 9.43018 20.0537 11.8755C20.7477 13.5141 21.0084 15.2207 20.8359 16.9955C20.3307 13.1107 18.1027 11.3566 14.1514 11.7333C16.2134 12.8701 17.1142 14.6242 16.8537 16.9955C17.233 16.7111 17.5648 16.3792 17.8492 15.9999C18.0608 16.8517 18.0135 17.6813 17.707 18.4888C16.5829 19.0274 15.4451 19.5252 14.2937 19.9822C15.0208 18.9055 15.5186 17.7203 15.787 16.4266C16.257 13.6714 15.0956 12.1307 12.3025 11.8044C11.5455 11.7334 10.787 11.7097 10.027 11.7333C9.93217 11.7333 9.88477 11.6859 9.88477 11.5911C12.0421 11.5811 13.5591 10.6092 14.4359 8.67549C14.4259 8.56672 14.3786 8.49561 14.2937 8.46216C14.1233 8.04599 13.9811 7.61932 13.867 7.18216C13.8577 7.11984 13.8814 7.07242 13.9381 7.03994C14.417 7.56653 14.9385 8.04061 15.5025 8.46216C15.5729 8.1816 15.5967 7.89716 15.5737 7.60883C15.5737 7.4192 15.5737 7.22956 15.5737 7.03994C15.6685 6.37623 15.7632 5.71254 15.8581 5.04883Z" fill="#EB8A2A"/>
<path fill-rule="evenodd" clip-rule="evenodd" d="M15.8574 5.04883C18.4072 7.05743 20.2323 9.61743 21.333 12.7288C21.7254 14.0768 21.9387 15.4515 21.973 16.8533C21.5937 16.9006 21.2145 16.9481 20.8352 16.9955C21.0077 15.2207 20.747 13.5141 20.053 11.8755C18.9028 9.43018 17.5044 7.15463 15.8574 5.04883Z" fill="#E37028"/>
<path fill-rule="evenodd" clip-rule="evenodd" d="M15.8584 5.04847C15.7635 5.71218 15.6688 6.37587 15.5739 7.03958C15.5274 6.32221 15.5748 5.6111 15.7161 4.90625C15.8025 4.92383 15.8498 4.97123 15.8584 5.04847Z" fill="#A36025"/>
<path fill-rule="evenodd" clip-rule="evenodd" d="M15.5729 7.60884C15.5959 7.89716 15.5722 8.18161 15.5018 8.46217C14.9377 8.04062 14.4162 7.56654 13.9373 7.03995C13.8806 7.07243 13.8569 7.11985 13.8662 7.18217C13.5992 6.99316 13.5755 6.80353 13.7951 6.61328C14.407 6.91829 14.9995 7.25014 15.5729 7.60884Z" fill="#E27028"/>
<path fill-rule="evenodd" clip-rule="evenodd" d="M14.2935 8.46289C14.3784 8.49634 14.4258 8.56745 14.4357 8.67622C13.559 10.6099 12.0419 11.5818 9.88461 11.5918C9.71221 11.3409 9.75963 11.1039 10.0268 10.8807C11.6078 10.742 12.9589 10.1257 14.0802 9.03178C14.1927 8.85471 14.2638 8.66509 14.2935 8.46289Z" fill="#EDE9E5"/>
<path fill-rule="evenodd" clip-rule="evenodd" d="M14.8626 9.17318C15.1705 9.11855 15.4076 9.21337 15.5737 9.45762C15.379 9.68859 15.1419 9.7597 14.8626 9.67096C14.6942 9.50804 14.6942 9.34213 14.8626 9.17318Z" fill="#1B1109"/>
<path fill-rule="evenodd" clip-rule="evenodd" d="M10.0273 11.7334C10.7873 11.7098 11.5459 11.7335 12.3029 11.8046C15.096 12.1308 16.2574 13.6716 15.7873 16.4268C15.519 17.7204 15.0212 18.9057 14.294 19.9823C14.1992 20.0297 14.1044 20.0772 14.0096 20.1246C13.9301 19.6491 13.7404 19.2224 13.4407 18.8446C13.0626 19.2469 12.707 19.6736 12.374 20.1246C12.4004 19.5579 12.4004 18.9891 12.374 18.4179C12.1906 18.7439 11.9535 19.0283 11.6629 19.2712C11.6771 18.5386 11.4164 18.3964 10.8807 18.8446C10.7944 18.8269 10.747 18.7796 10.7385 18.7023C10.9936 18.3757 11.2781 18.0676 11.5918 17.7779C12.5543 17.1424 13.4787 16.4551 14.3651 15.7157C14.9279 14.6949 14.8094 13.7705 14.0096 12.9423C12.6709 12.5237 11.3435 12.1207 10.0273 11.7334Z" fill="#E77228"/>
<path fill-rule="evenodd" clip-rule="evenodd" d="M25.3857 25.5283C25.5081 24.9688 25.5554 24.3999 25.528 23.8216C25.6702 23.7743 25.7651 23.6794 25.8124 23.5372C26.4932 22.0215 26.3036 20.6231 25.2435 19.3416C23.4134 18.121 21.5645 18.121 19.6969 19.3416C20.3381 19.6211 21.0019 19.8582 21.688 20.0528C20.8729 20.5541 20.0671 21.0519 19.2702 21.5461C19.1753 21.5461 19.128 21.5935 19.128 21.6883C18.0465 22.018 16.9562 22.3262 15.8569 22.6128C14.8139 22.7076 13.7709 22.7076 12.728 22.6128C11.3028 22.2071 10.4494 21.2827 10.168 19.8394C11.0188 20.8705 12.1092 21.2736 13.4391 21.0483C14.0821 20.9446 14.6983 20.7549 15.288 20.4794C17.2147 19.5398 19.1583 18.6391 21.1191 17.7772C23.0975 17.1571 24.7806 17.6075 26.168 19.1283C27.1611 20.8438 27.2085 22.5978 26.3102 24.3905C26.0334 24.8058 25.7252 25.1851 25.3857 25.5283Z" fill="#EB8A2B"/>
<path fill-rule="evenodd" clip-rule="evenodd" d="M25.8137 23.5369C25.5708 22.9307 25.3101 22.3143 25.0315 21.688C24.342 21.1051 23.536 20.8207 22.6137 20.8346C21.4707 20.9487 20.3565 21.1856 19.2715 21.5457C20.0684 21.0515 20.8742 20.5537 21.6893 20.0524C21.0032 19.8579 20.3394 19.6208 19.6982 19.3413C21.5658 18.1206 23.4147 18.1206 25.2448 19.3413C26.3049 20.6227 26.4945 22.0212 25.8137 23.5369Z" fill="#FEFBF9"/>
<path fill-rule="evenodd" clip-rule="evenodd" d="M14.009 20.1246C12.486 20.6647 11.3482 20.238 10.5957 18.8446C10.6133 18.7583 10.6607 18.7109 10.7379 18.7024C10.7465 18.7796 10.7939 18.827 10.8801 18.8446C11.4158 18.3965 11.6766 18.5387 11.6624 19.2713C11.953 19.0284 12.19 18.7439 12.3735 18.418C12.3999 18.9891 12.3999 19.558 12.3735 20.1246C12.7065 19.6736 13.062 19.247 13.4401 18.8446C13.7399 19.2225 13.9295 19.6492 14.009 20.1246Z" fill="#EC8A2A"/>
<path fill-rule="evenodd" clip-rule="evenodd" d="M10.1692 19.8395C10.4507 21.2828 11.304 22.2072 12.7292 22.6128C13.7722 22.7077 14.8152 22.7077 15.8581 22.6128C16.9575 22.3262 18.0478 22.018 19.1292 21.6884C19.7996 21.6419 20.4633 21.6894 21.1203 21.8306C20.6824 22.481 20.3031 23.0974 19.9825 23.6795C21.0055 23.0964 22.096 22.7171 23.2537 22.5417C24.2811 22.5329 25.0395 22.9596 25.5292 23.8217C25.5567 24.4 25.5093 24.9689 25.387 25.5284C25.4056 25.653 25.3583 25.7478 25.2448 25.8128C25.1917 24.0282 24.291 23.246 22.5425 23.4662C20.5769 24.4254 18.5384 25.1841 16.427 25.7417C12.5336 26.1365 10.3529 24.4061 9.88477 20.5506C9.93217 20.2662 9.97959 19.9817 10.027 19.6973C10.1133 19.7149 10.1607 19.7623 10.1692 19.8395Z" fill="#E77028"/>
<path fill-rule="evenodd" clip-rule="evenodd" d="M25.8134 23.5386C25.766 23.6809 25.6711 23.7757 25.5289 23.8231C25.0392 22.9609 24.2808 22.5343 23.2534 22.5431C22.0957 22.7185 21.0052 23.0978 19.9822 23.6809C20.3028 23.0988 20.6821 22.4824 21.12 21.832C20.463 21.6908 19.7993 21.6433 19.1289 21.6898C19.1289 21.5949 19.1763 21.5475 19.2711 21.5475C20.3561 21.1874 21.4703 20.9505 22.6134 20.8364C23.5357 20.8225 24.3416 21.1069 25.0311 21.6898C25.3097 22.3161 25.5704 22.9325 25.8134 23.5386Z" fill="#D1D2D2"/>
</g>
<defs>
<clipPath id="clip0_99_9">
<rect width="32" height="32" fill="white"/>
</clipPath>
</defs>
</svg>
