<svg width="32" height="32" viewBox="0 0 32 32" fill="none" xmlns="http://www.w3.org/2000/svg">
    <g clip-path="url(#clip0_1458_576)">
        <path fill-rule="evenodd" clip-rule="evenodd"
            d="M-0.0935669 -0.09375C10.5731 -0.09375 21.2398 -0.09375 31.9064 -0.09375C31.9064 10.5729 31.9064 21.2396 31.9064 31.9063C21.2398 31.9063 10.5731 31.9063 -0.0935669 31.9063C-0.0935669 21.2396 -0.0935669 10.5729 -0.0935669 -0.09375Z"
            fill="#0099CB" />
        <path fill-rule="evenodd" clip-rule="evenodd"
            d="M7.95325 7.95312C13.2554 7.95312 18.5575 7.95312 23.8597 7.95312C23.8597 10.6354 23.8597 13.3177 23.8597 15.9999C21.2398 15.9999 18.6199 15.9999 16 15.9999C16 18.6198 16 21.2397 16 23.8596C13.3178 23.8596 10.6355 23.8596 7.95325 23.8596C7.95325 18.5574 7.95325 13.2553 7.95325 7.95312Z"
            fill="#EDF3F9" />
        <path fill-rule="evenodd" clip-rule="evenodd"
            d="M19.9298 19.9297C21.2398 19.9297 22.5497 19.9297 23.8596 19.9297C23.8596 21.2396 23.8596 22.5496 23.8596 23.8595C22.5497 23.8595 21.2398 23.8595 19.9298 23.8595C19.9298 22.5496 19.9298 21.2396 19.9298 19.9297Z"
            fill="#EDF3F9" />
    </g>
    <defs>
        <clipPath id="clip0_1458_576">
            <rect width="32" height="32" fill="white" />
        </clipPath>
    </defs>
</svg>