<svg width="32" height="32" viewBox="0 0 32 32" fill="none" xmlns="http://www.w3.org/2000/svg">
<path fill-rule="evenodd" clip-rule="evenodd" d="M13.9037 0.455169C15.8178 0.418441 17.7305 0.455224 19.6417 0.565513C22.25 0.824619 24.1259 2.11197 25.2692 4.42758C25.5533 6.80814 25.0384 9.01504 23.7244 11.0483C22.7059 12.582 21.6025 14.0532 20.4141 15.4621C18.9796 16.7494 17.5451 18.0368 16.1106 19.3241C14.5768 20.3427 13.1057 21.4461 11.6968 22.6345C16.7716 22.1317 21.8475 21.5065 26.9244 20.7586C27.0716 20.8322 27.2186 20.9058 27.3658 20.9793C23.5298 22.6009 19.5574 23.8147 15.4486 24.6207C13.6224 24.9868 11.7833 25.1338 9.93132 25.0621C6.35195 24.379 5.98406 22.9077 8.82787 20.6483C11.9826 18.3493 14.6675 15.5906 16.883 12.3724C18.4815 10.1719 19.0701 7.74433 18.6486 5.08965C18.4813 4.55788 18.1134 4.33719 17.5451 4.42758C16.398 4.57043 15.2579 4.75434 14.1244 4.97931C13.4487 5.21341 12.8969 5.618 12.4692 6.1931C12.2494 7.44207 11.5507 8.28804 10.3727 8.73103C8.59306 9.20697 6.90125 8.98628 5.29683 8.06896C5.01788 7.65835 4.79719 7.21697 4.63477 6.74482C5.58263 4.32573 7.27443 2.63379 9.71063 1.66896C11.108 1.1694 12.5057 0.764798 13.9037 0.455169Z" fill="#FC6F06"/>
<path fill-rule="evenodd" clip-rule="evenodd" d="M15.2273 26.9386C16.8935 26.8197 18.3279 27.3345 19.5307 28.4834C19.6161 29.2923 19.2851 29.9175 18.5376 30.3593C16.1372 31.8123 13.8934 31.6285 11.8066 29.8076C11.615 28.8869 11.946 28.1882 12.7997 27.711C13.6076 27.3595 14.4169 27.1021 15.2273 26.9386Z" fill="#FC6E06"/>
</svg>
