<svg width="32" height="32" viewBox="0 0 32 32" fill="none" xmlns="http://www.w3.org/2000/svg">
    <g clip-path="url(#clip0_1080_354)">
        <path fill-rule="evenodd" clip-rule="evenodd"
            d="M-0.0800781 -0.0800781C10.5866 -0.0800781 21.2532 -0.0800781 31.9199 -0.0800781C31.9199 10.5866 31.9199 21.2532 31.9199 31.9199C21.2532 31.9199 10.5866 31.9199 -0.0800781 31.9199C-0.0800781 21.2532 -0.0800781 10.5866 -0.0800781 -0.0800781Z"
            fill="#729D34" />
        <path fill-rule="evenodd" clip-rule="evenodd"
            d="M8.72002 4.24017C8.08002 4.24017 7.44002 4.24017 6.80002 4.24017C6.80002 12.0802 6.80002 19.9202 6.80002 27.7602C6.64019 19.8939 6.58686 12.0006 6.64002 4.08017C7.36518 4.02926 8.05851 4.08259 8.72002 4.24017Z"
            fill="#CCDCB6" />
        <path fill-rule="evenodd" clip-rule="evenodd"
            d="M8.72005 4.24023C12.8414 4.33734 15.4281 6.36401 16.48 10.3202C16.8239 12.5604 16.5039 14.6937 15.52 16.7202C14.9615 17.5978 14.2949 18.3713 13.52 19.0402C14.8239 21.8876 16.1039 24.7409 17.36 27.6002C16.3092 27.8097 15.2425 27.8097 14.16 27.6002C13.2381 25.1154 12.2248 22.6622 11.12 20.2402C10.5928 20.0961 10.0595 20.0961 9.52005 20.2402C9.52005 22.747 9.52005 25.2535 9.52005 27.7602C8.61338 27.7602 7.70672 27.7602 6.80005 27.7602C6.80005 19.9202 6.80005 12.0802 6.80005 4.24023C7.44005 4.24023 8.08005 4.24023 8.72005 4.24023Z"
            fill="#FCFDFB" />
        <path fill-rule="evenodd" clip-rule="evenodd"
            d="M9.52002 7.12012C12.3665 7.52666 13.7532 9.17999 13.68 12.0801C13.7454 13.5631 13.3454 14.8964 12.48 16.0801C11.6335 16.8332 10.6469 17.26 9.52002 17.3601C9.52002 13.9468 9.52002 10.5334 9.52002 7.12012Z"
            fill="#739E36" />
        <path fill-rule="evenodd" clip-rule="evenodd"
            d="M19.5999 21.04C20.1332 21.1468 20.6667 21.2533 21.1999 21.36C20.6038 21.4117 20.0171 21.3583 19.4399 21.2C19.4598 21.1029 19.5131 21.0496 19.5999 21.04Z"
            fill="#CADAB3" />
        <path fill-rule="evenodd" clip-rule="evenodd"
            d="M19.5999 21.04C20.2399 21.04 20.8799 21.04 21.5199 21.04C21.5466 22.9074 21.5199 24.7741 21.4399 26.64C20.8895 27.7143 20.0095 28.1143 18.7999 27.84C18.5242 27.7564 18.311 27.5964 18.1599 27.36C18.3926 27.0946 18.6058 27.1479 18.7999 27.52C20.0262 27.8272 20.7994 27.374 21.1199 26.16C21.1999 24.561 21.2265 22.961 21.1999 21.36C20.6666 21.2533 20.1332 21.1468 19.5999 21.04Z"
            fill="#F4F7EE" />
        <path fill-rule="evenodd" clip-rule="evenodd"
            d="M23.6 20.8796C24.4881 20.6996 25.1814 20.9663 25.68 21.6796C25.6533 21.7863 25.6267 21.8929 25.6 21.9996C25.1544 21.337 24.5411 21.097 23.76 21.2796C23.2217 21.7638 23.1417 22.3238 23.52 22.9596C24.1728 23.4327 24.8395 23.886 25.52 24.3196C26.3496 25.1111 26.5361 26.0446 26.08 27.1196C25.2725 27.9132 24.3392 28.0999 23.28 27.6796C22.7611 27.4311 22.5211 27.0311 22.56 26.4796C23.0979 27.4943 23.9245 27.8409 25.04 27.5196C26.0265 26.9346 26.2665 26.1081 25.76 25.0396C25.1072 24.5665 24.4405 24.1132 23.76 23.6796C22.7702 22.7818 22.7169 21.8486 23.6 20.8796Z"
            fill="#EDF2E6" />
        <path fill-rule="evenodd" clip-rule="evenodd"
            d="M14.1599 27.5996C15.2424 27.809 16.309 27.809 17.3599 27.5996C17.4468 27.6092 17.5001 27.6625 17.5199 27.7596C16.9599 27.8129 16.3999 27.8663 15.8399 27.9196C15.2156 27.9177 14.6556 27.811 14.1599 27.5996Z"
            fill="#92B362" />
    </g>
    <defs>
        <clipPath id="clip0_1080_354">
            <rect width="32" height="32" fill="white" />
        </clipPath>
    </defs>
</svg>