<svg width="32" height="32" viewBox="0 0 32 32" fill="none" xmlns="http://www.w3.org/2000/svg">
<rect width="32" height="32" fill="#6F67F9"/>
<path d="M15.9518 19.5268C18.0605 20.1455 18.5944 20.8556 18.5944 23.0076V25.5266H22.7148V21.633C22.7148 19.5497 21.721 18.3581 19.564 17.8779L16.873 17.2593C21.1401 17.0992 23.273 15.496 23.273 12.4497V12.3125C23.273 9.10619 20.8725 7 16.0729 7H8V25.5266H12.1219V18.4052L15.9518 19.5268ZM15.976 9.84053C18.0847 9.84053 19.1027 10.825 19.1027 12.5425V12.6797C19.1027 14.3972 18.0847 15.3817 15.976 15.3817H12.1219V9.83918H15.976V9.84053Z" fill="black"/>
</svg>
