<svg width="32" height="32" viewBox="0 0 33 33" fill="none" xmlns="http://www.w3.org/2000/svg">
    <path
        d="M16.0601 32.5C24.8966 32.5 32.0601 25.3366 32.0601 16.5C32.0601 7.66344 24.8966 0.5 16.0601 0.5C7.2235 0.5 0.0600586 7.66344 0.0600586 16.5C0.0600586 25.3366 7.2235 32.5 16.0601 32.5Z"
        fill="#006EF2" />
    <path
        d="M20.8069 20.6947C20.8069 20.4233 20.9147 20.1631 21.1065 19.9713C21.2984 19.7794 21.5586 19.6716 21.8299 19.6716C22.1012 19.6716 22.3614 19.7794 22.5533 19.9713C22.7451 20.1631 22.8529 20.4233 22.8529 20.6947C22.8529 20.966 22.7451 21.2262 22.5533 21.418C22.3614 21.6099 22.1012 21.7177 21.8299 21.7177C21.5586 21.7177 21.2984 21.6099 21.1065 21.418C20.9147 21.2262 20.8069 20.966 20.8069 20.6947Z"
        fill="white" />
    <path
        d="M23.7736 20.6947C23.7736 20.4233 23.8813 20.1631 24.0732 19.9713C24.265 19.7794 24.5253 19.6716 24.7966 19.6716C25.0679 19.6716 25.3281 19.7794 25.52 19.9713C25.7118 20.1631 25.8196 20.4233 25.8196 20.6947C25.8251 20.8307 25.8033 20.9665 25.7556 21.094C25.708 21.2215 25.6353 21.3383 25.5419 21.4373C25.4486 21.5364 25.3364 21.6159 25.2119 21.6711C25.0874 21.7262 24.9532 21.756 24.817 21.7586C24.5508 21.7536 24.2965 21.6469 24.1063 21.4606C23.9162 21.2742 23.8044 21.0221 23.794 20.756"
        fill="white" />
    <path
        d="M20.8069 23.5999C20.8069 23.3286 20.9147 23.0684 21.1065 22.8765C21.2984 22.6847 21.5586 22.5769 21.8299 22.5769C22.1014 22.5873 22.3587 22.7012 22.5489 22.8952C22.7391 23.0893 22.8479 23.3487 22.8529 23.6204C22.8425 23.8865 22.7308 24.1385 22.5406 24.3249C22.3504 24.5113 22.0962 24.6179 21.8299 24.6229C21.5586 24.6229 21.2984 24.5152 21.1065 24.3233C20.9147 24.1314 20.8069 23.8712 20.8069 23.5999Z"
        fill="white" />
    <path
        d="M23.7736 23.5994C23.7762 23.4651 23.8053 23.3326 23.8592 23.2095C23.9131 23.0864 23.9907 22.9751 24.0876 22.882C24.1845 22.7889 24.2988 22.7158 24.424 22.6669C24.5491 22.618 24.6827 22.5942 24.817 22.5969C24.9504 22.5969 25.0825 22.6235 25.2055 22.6751C25.3285 22.7268 25.4399 22.8025 25.5333 22.8977C25.6267 22.993 25.7001 23.106 25.7492 23.23C25.7984 23.354 25.8223 23.4865 25.8196 23.6199C25.8196 23.8912 25.7118 24.1514 25.52 24.3433C25.3281 24.5351 25.0679 24.6429 24.7966 24.6429C24.5253 24.6429 24.265 24.5351 24.0732 24.3433C23.8813 24.1514 23.7736 23.8912 23.7736 23.6199"
        fill="white" />
    <path
        d="M17.3286 9.4414C17.491 9.44278 17.6514 9.47808 17.7993 9.54502C17.9473 9.61197 18.0797 9.70908 18.188 9.83014C18.412 10.0926 18.5353 10.4262 18.5358 10.7713V12.49C18.5366 12.8415 18.4134 13.182 18.188 13.4516C18.0797 13.5727 17.9473 13.6698 17.7993 13.7367C17.6514 13.8037 17.491 13.839 17.3286 13.8404H6.28003V18.5872H7.54858V14.9452H16.633L18.188 18.5463H19.5997L18.2084 15.3135L18.0038 14.8634L18.3516 14.6792C18.8007 14.4719 19.173 14.1282 19.4156 13.6972C19.6835 13.2375 19.8247 12.7151 19.8248 12.1831V11.0987C19.8439 10.3792 19.5794 9.68107 19.0882 9.15495C18.8735 8.89852 18.6039 8.69366 18.2993 8.55554C17.9947 8.41741 17.663 8.34956 17.3286 8.357H6.28003V9.46186L17.3286 9.4414Z"
        fill="white" />
</svg>