<svg width="32" height="32" viewBox="0 0 32 32" fill="none" xmlns="http://www.w3.org/2000/svg">
<rect width="32" height="32" fill="white"/>
<g clip-path="url(#clip0_0_1)">
<rect width="32" height="32" fill="white"/>
<path fill-rule="evenodd" clip-rule="evenodd" d="M32 16C32 24.8365 24.8365 32 16 32C7.16345 32 0 24.8365 0 16C0 7.16344 7.16345 0 16 0C24.8365 0 32 7.16344 32 16ZM12.399 13.9973L12.2051 13.7891C11.6524 13.2519 10.9314 12.9589 10.1697 12.9589C8.55169 12.9589 7.21665 14.3013 7.21665 15.9724C7.21665 17.6435 8.55169 18.986 10.1697 18.986C10.9346 18.986 11.6583 18.6905 12.2121 18.1487L18.3567 11.9328L18.3629 11.9265L18.3693 11.9204C19.3947 10.9399 20.7383 10.3975 22.1505 10.3975C25.2013 10.3975 27.6644 12.9174 27.6644 15.9942C27.6644 19.0709 25.2013 21.591 22.1505 21.591C20.7383 21.591 19.3947 21.0486 18.3693 20.068L18.3646 20.0637L18.3601 20.0591L18.3453 20.0443L18.34 20.039L18.3347 20.0336L18.0009 19.6844L17.5826 19.2469L18.0068 18.8152L18.9347 17.8712L19.3864 17.4119L19.8315 17.8777L20.1478 18.2088C20.6959 18.7253 21.4052 19.0076 22.1505 19.0076C23.7684 19.0076 25.1033 17.6651 25.1033 15.9939C25.1033 14.3228 23.7684 12.9804 22.1505 12.9804C21.4033 12.9804 20.6923 13.264 20.1436 13.7833L14.0123 19.9864L14.0092 19.9895L14.006 19.9926C12.9737 21.0076 11.61 21.5693 10.1697 21.5693C7.11871 21.5693 4.6556 19.0492 4.6556 15.9724C4.6556 12.8956 7.11871 10.3756 10.1697 10.3756C11.61 10.3756 12.9737 10.9372 14.006 11.9521L14.0146 11.9605L14.0244 11.9702L14.0337 11.9802L14.2409 12.2028L14.6479 12.6401L14.2291 13.066L13.3012 14.0095L12.8437 14.4747L12.399 13.9973Z" fill="#1B2140"/>
</g>
<defs>
<clipPath id="clip0_0_1">
<rect width="32" height="32" fill="white"/>
</clipPath>
</defs>
</svg>
