<svg width="32" height="32" viewBox="0 0 32 32" fill="none" xmlns="http://www.w3.org/2000/svg">
    <g clip-path="url(#clip0_1106_45)">
        <path opacity="0.991" fill-rule="evenodd" clip-rule="evenodd"
            d="M3.04 -0.160156C11.5733 -0.160156 20.1067 -0.160156 28.64 -0.160156C30.0267 0.586509 31.0933 1.65318 31.84 3.03984C31.84 11.5732 31.84 20.1065 31.84 28.6398C31.0933 30.0265 30.0267 31.0932 28.64 31.8398C26.2933 31.8398 23.9467 31.8398 21.6 31.8398C20.3644 29.5294 19.0844 27.2361 17.76 24.9598C20.5912 23.0798 21.6045 20.4665 20.8 17.1198C20.5171 15.0242 19.3971 13.5842 17.44 12.7998C13.4948 12.6399 9.54809 12.5866 5.6 12.6398C5.6 19.0398 5.6 25.4398 5.6 31.8398C4.74665 31.8398 3.89334 31.8398 3.04 31.8398C1.65333 31.0932 0.586662 30.0265 -0.160004 28.6398C-0.160004 20.1065 -0.160004 11.5732 -0.160004 3.03984C0.586662 1.65318 1.65333 0.586509 3.04 -0.160156Z"
            fill="#FEFEFE" />
        <path fill-rule="evenodd" clip-rule="evenodd"
            d="M22.88 2.3999C23.7334 2.3999 24.5867 2.3999 25.44 2.3999C25.44 3.6799 25.44 4.9599 25.44 6.2399C26.72 6.2399 28 6.2399 29.28 6.2399C29.28 7.09325 29.28 7.94656 29.28 8.7999C28 8.7999 26.72 8.7999 25.44 8.7999C25.44 10.0799 25.44 11.3599 25.44 12.6399C24.5867 12.6399 23.7334 12.6399 22.88 12.6399C22.88 11.3599 22.88 10.0799 22.88 8.7999C21.6 8.7999 20.32 8.7999 19.04 8.7999C19.04 7.94656 19.04 7.09325 19.04 6.2399C20.32 6.2399 21.6 6.2399 22.88 6.2399C22.88 4.9599 22.88 3.6799 22.88 2.3999Z"
            fill="#4A90E2" />
        <path fill-rule="evenodd" clip-rule="evenodd"
            d="M21.6 31.8401C19.68 31.8401 17.76 31.8401 15.84 31.8401C14.8309 29.8219 13.8176 27.7953 12.8 25.7601C11.9299 25.4581 11.0232 25.3514 10.08 25.4401C10.08 27.5734 10.08 29.7067 10.08 31.8401C8.58666 31.8401 7.09335 31.8401 5.60001 31.8401C5.60001 25.4401 5.60001 19.0401 5.60001 12.6401C9.5481 12.5868 13.4948 12.6401 17.44 12.8001C19.3972 13.5844 20.5172 15.0244 20.8 17.1201C21.6045 20.4667 20.5912 23.08 17.76 24.9601C19.0845 27.2363 20.3645 29.5296 21.6 31.8401Z"
            fill="#4C90E2" />
        <path fill-rule="evenodd" clip-rule="evenodd"
            d="M10.4 16.8002C12.11 16.747 13.8167 16.8003 15.52 16.9602C17.2266 18.3468 17.2266 19.7335 15.52 21.1202C13.8167 21.28 12.11 21.3333 10.4 21.2802C10.4 19.7868 10.4 18.2935 10.4 16.8002Z"
            fill="#FDFDFE" />
        <path fill-rule="evenodd" clip-rule="evenodd"
            d="M15.84 31.8399C13.92 31.8399 12 31.8399 10.08 31.8399C10.08 29.7065 10.08 27.5732 10.08 25.4399C11.0232 25.3512 11.9299 25.4578 12.8 25.7599C13.8176 27.795 14.8309 29.8217 15.84 31.8399Z"
            fill="#FDFDFE" />
    </g>
    <defs>
        <clipPath id="clip0_1106_45">
            <rect width="32" height="32" fill="white" />
        </clipPath>
    </defs>
</svg>