<svg width="32" height="32" viewBox="0 0 32 32" fill="none" xmlns="http://www.w3.org/2000/svg">
<rect width="32" height="32" fill="#439A46"/>
<path fill-rule="evenodd" clip-rule="evenodd" d="M3.48438 0.724089C9.16267 0.610795 14.8364 0.724293 20.5057 1.06451C26.1033 3.07105 28.2593 7.04266 26.9737 12.9794C25.8722 15.7836 23.9431 17.8262 21.1865 19.1071C23.0006 22.7167 25.0432 26.121 27.3142 29.3198C24.9571 29.9882 22.4606 30.2152 19.8248 30.0007C18.7531 26.7193 17.1644 23.769 15.0588 21.1496C13.605 19.8771 11.7895 19.4233 9.61203 19.7879C9.61203 23.1922 9.61203 26.5964 9.61203 30.0007C7.56948 30.0007 5.52693 30.0007 3.48438 30.0007C3.48438 20.2418 3.48438 10.4829 3.48438 0.724089Z" fill="white"/>
<path fill-rule="evenodd" clip-rule="evenodd" d="M18.4643 6.85201C15.7409 6.85201 13.0175 6.85201 10.2941 6.85201C10.2941 9.12149 10.2941 11.391 10.2941 13.6605C13.0175 13.6605 15.7409 13.6605 18.4643 13.6605C15.6494 14.3311 12.6991 14.558 9.61328 14.3414C9.61328 11.618 9.61328 8.89456 9.61328 6.17116C12.6991 5.95451 15.6494 6.18144 18.4643 6.85201Z" fill="white"/>
<path opacity="0.996" fill-rule="evenodd" clip-rule="evenodd" d="M18.4632 6.85156C20.9979 7.88693 21.6788 9.70256 20.5057 12.2984C19.9223 12.9283 19.2415 13.3822 18.4632 13.6601C15.7398 13.6601 13.0164 13.6601 10.293 13.6601C10.293 11.3906 10.293 9.12104 10.293 6.85156C13.0164 6.85156 15.7398 6.85156 18.4632 6.85156Z" fill="#439A46"/>
<path fill-rule="evenodd" clip-rule="evenodd" d="M3.48708 0.724609C3.48708 10.4835 3.48708 20.2424 3.48708 30.0012C5.52963 30.0012 7.57218 30.0012 9.61473 30.0012C9.61473 26.5969 9.61473 23.1927 9.61473 19.7884C11.7922 19.4238 13.6077 19.8776 15.0615 21.1501C13.5521 20.5588 11.9634 20.3318 10.2956 20.4693C10.2956 23.8735 10.2956 27.2778 10.2956 30.6821C7.79911 30.6821 5.3027 30.6821 2.80622 30.6821C2.58202 20.5763 2.80895 10.5905 3.48708 0.724609Z" fill="white"/>
<path fill-rule="evenodd" clip-rule="evenodd" d="M27.3175 29.3203C27.6873 29.3612 27.9142 29.5881 27.9983 30.0012C25.1733 30.8927 22.4499 30.8927 19.8281 30.0012C22.464 30.2156 24.9604 29.9886 27.3175 29.3203Z" fill="white"/>
</svg>
