<svg width="32" height="32" viewBox="0 0 32 32" fill="none" xmlns="http://www.w3.org/2000/svg">
<g clip-path="url(#clip0_101_465)">
<path fill-rule="evenodd" clip-rule="evenodd" d="M-0.0703125 -0.0722656C10.5964 -0.0722656 21.263 -0.0722656 31.9297 -0.0722656C31.9297 10.5944 31.9297 21.261 31.9297 31.9277C21.263 31.9277 10.5964 31.9277 -0.0703125 31.9277C-0.0703125 21.261 -0.0703125 10.5944 -0.0703125 -0.0722656Z" fill="#4598D3"/>
<path fill-rule="evenodd" clip-rule="evenodd" d="M24.9297 25.9287C23.0978 26.0709 21.2407 26.1186 19.3583 26.0716C18.5024 24.1249 17.6453 22.1725 16.7868 20.2145C15.9828 20.0246 15.1257 19.9293 14.2154 19.9287C13.3331 19.9287 12.4759 19.9765 11.644 20.0716C11.3594 22.0623 11.1689 24.0623 11.0725 26.0716C9.35826 26.0716 7.64397 26.0716 5.92969 26.0716C5.92969 25.8335 5.92969 25.5955 5.92969 25.3573C6.50164 18.8273 7.1445 12.3036 7.85826 5.78589C11.6813 5.62001 15.5147 5.59619 19.3583 5.71446C22.7844 6.09362 24.9987 7.92695 26.0011 11.2145C26.3118 14.7119 25.0023 17.4023 22.0725 19.2859C23.0857 21.4783 24.0381 23.6926 24.9297 25.9287Z" fill="#FDFEFE"/>
<path fill-rule="evenodd" clip-rule="evenodd" d="M12.5006 10.9288C14.7867 10.905 17.0724 10.9289 19.3577 11.0003C20.781 11.4558 21.1858 12.3844 20.572 13.786C20.1074 14.3383 19.5121 14.6478 18.7863 14.7146C16.5963 14.786 14.4058 14.8098 12.2148 14.786C12.2929 13.4989 12.3881 12.2132 12.5006 10.9288Z" fill="#4598D3"/>
<path fill-rule="evenodd" clip-rule="evenodd" d="M11.6445 20.0706C12.4765 19.9754 13.3336 19.9277 14.216 19.9277C15.1262 19.9283 15.9834 20.0236 16.7874 20.2134C15.0845 20.0736 13.3703 20.026 11.6445 20.0706Z" fill="#6BACDC"/>
<path fill-rule="evenodd" clip-rule="evenodd" d="M5.92721 25.3574C5.92721 25.5956 5.92721 25.8336 5.92721 26.0717C7.64149 26.0717 9.35578 26.0717 11.0701 26.0717C9.33358 26.2139 7.57168 26.2616 5.78435 26.2146C5.74225 25.8953 5.78986 25.6096 5.92721 25.3574Z" fill="#AED2EB"/>
<path fill-rule="evenodd" clip-rule="evenodd" d="M24.9269 25.9277C25.0045 25.9363 25.052 25.9839 25.0698 26.0706C23.142 26.2599 21.2373 26.2599 19.3555 26.0706C21.2379 26.1176 23.095 26.0699 24.9269 25.9277Z" fill="#AFD2EB"/>
</g>
<defs>
<clipPath id="clip0_101_465">
<rect width="32" height="32" fill="white"/>
</clipPath>
</defs>
</svg>
