<svg width="32" height="32" viewBox="0 0 32 32" fill="none" xmlns="http://www.w3.org/2000/svg">
<path d="M15.9996 0C11.7562 0 7.68666 1.68571 4.68616 4.68629C1.68566 7.68687 0 11.7565 0 16C0 20.2435 1.68566 24.3131 4.68616 27.3137C7.68666 30.3143 11.7562 32 15.9996 32C24.8362 32 32 24.836 32 16.0009C32 11.7572 30.3142 7.68731 27.3136 4.68656C24.3129 1.6858 20.2431 0 15.9996 0ZM16.6049 26.5207L8.23941 24.2216C3.09271 22.8045 1.40897 16.3477 5.20976 12.6L11.3871 6.50721C15.1879 2.75676 21.6174 4.52703 22.9687 9.69279L25.1569 18.0892C26.502 23.2541 21.7507 27.9405 16.6049 26.5207Z" fill="#FFBA4A"/>
</svg>
