<svg width="32" height="32" viewBox="0 0 33 33" fill="none" xmlns="http://www.w3.org/2000/svg">
    <path fill-rule="evenodd" clip-rule="evenodd"
        d="M2.65051 0.452648C12.0331 0.412255 21.4152 0.452648 30.7972 0.573802C31.3928 0.890936 31.874 1.33516 32.2406 1.9065C32.5608 11.4772 32.5608 21.008 32.2406 30.499C32.3205 21.573 32.2401 12.6883 32 3.84497C31.8035 3.24681 31.6832 2.60064 31.6392 1.9065C31.4684 1.54951 31.1879 1.38798 30.7972 1.42188C22.3926 1.24858 13.9728 1.08706 5.53735 0.937266C4.8504 0.937872 4.2089 1.01866 3.61279 1.17957C2.8803 1.18149 2.15859 1.26227 1.44766 1.42188C1.73353 1.21263 2.01418 0.970317 2.28966 0.694957C2.55592 0.988611 2.6762 0.90785 2.65051 0.452648Z"
        fill="#2B2645" />
    <path fill-rule="evenodd" clip-rule="evenodd"
        d="M30.7972 1.42212C31.3459 2.16012 31.4263 2.96781 31.0378 3.84521C29.5922 3.88548 28.1488 3.84509 26.7075 3.72405C27.9881 3.60305 29.271 3.56268 30.5566 3.6029C30.5566 3.03752 30.5566 2.47212 30.5566 1.90674C29.2737 1.90674 27.9905 1.90674 26.7075 1.90674C26.7075 2.22981 26.7075 2.5529 26.7075 2.87597C20.2922 2.87597 13.8771 2.87597 7.46191 2.87597C7.46191 2.63366 7.46191 2.39135 7.46191 2.14905C6.17638 2.10882 4.89332 2.14919 3.61279 2.2702C2.09453 3.71916 1.53321 5.53648 1.9288 7.72215C1.68823 7.72215 1.44766 7.72215 1.20709 7.72215C1.16709 6.02408 1.20719 4.32791 1.32738 2.63366C1.65287 2.34645 1.93354 2.02338 2.16937 1.66443C2.52241 1.3748 2.88326 1.3748 3.25194 1.66443C3.4997 1.58299 3.61998 1.42144 3.61279 1.17981C4.2089 1.01889 4.8504 0.938106 5.53735 0.9375C13.9728 1.0873 22.3926 1.24882 30.7972 1.42212Z"
        fill="#1A1346" />
    <path fill-rule="evenodd" clip-rule="evenodd"
        d="M3.61278 1.17969C3.61998 1.42132 3.49969 1.58287 3.25193 1.66431C2.88326 1.37467 2.5224 1.37467 2.16937 1.66431C1.93353 2.02326 1.65286 2.34633 1.32737 2.63354C1.20718 4.32779 1.16708 6.02395 1.20709 7.72203C1.44766 7.72203 1.68823 7.72203 1.9288 7.72203C1.5332 5.53636 2.09452 3.71904 3.61278 2.27008C4.89331 2.14907 6.17637 2.1087 7.4619 2.14892C7.4619 2.39123 7.4619 2.63354 7.4619 2.87585C13.8771 2.87585 20.2922 2.87585 26.7075 2.87585C26.7075 2.55278 26.7075 2.22969 26.7075 1.90661C27.9904 1.90661 29.2736 1.90661 30.5566 1.90661C30.5566 2.47199 30.5566 3.0374 30.5566 3.60278C29.271 3.56255 27.988 3.60292 26.7075 3.72393C28.1487 3.84497 29.5922 3.88536 31.0377 3.84509C31.4263 2.96769 31.3459 2.16 30.7972 1.422C31.1879 1.3881 31.4684 1.54962 31.6392 1.90661C31.6832 2.60076 31.8035 3.24692 32 3.84509C31.84 12.8971 31.7599 21.9434 31.7595 30.9837C31.5189 30.9837 31.2783 30.9837 31.0377 30.9837C31.0377 31.226 31.0377 31.4683 31.0377 31.7106C21.4948 31.7511 11.9522 31.7106 2.40994 31.5895C1.45078 31.156 1.00975 30.3888 1.0868 29.2875C0.966516 20.484 0.926413 11.6801 0.966516 2.87585C1.1269 2.39123 1.28727 1.90661 1.44766 1.422C2.15859 1.26239 2.8803 1.1816 3.61278 1.17969Z"
        fill="#1A1343" />
    <path fill-rule="evenodd" clip-rule="evenodd"
        d="M2.65051 0.452637C2.6762 0.907839 2.55592 0.9886 2.28965 0.694946C2.01418 0.970306 1.73353 1.21261 1.44766 1.42187C1.28727 1.90649 1.12691 2.39111 0.966518 2.87573C0.726309 11.9614 0.646127 21.0884 0.725949 30.2567C0.445805 20.8475 0.405702 11.3974 0.605664 1.90649C1.06251 1.09165 1.74414 0.607036 2.65051 0.452637Z"
        fill="#302C44" />
    <path fill-rule="evenodd" clip-rule="evenodd"
        d="M0.96651 2.87598C0.926407 11.6803 0.96651 20.4841 1.0868 29.2877C1.00974 30.389 1.45078 31.1561 2.40993 31.5896C11.9522 31.7108 21.4948 31.7512 31.0377 31.7108C31.0377 31.4684 31.0377 31.2261 31.0377 30.9838C31.2783 30.9838 31.5189 30.9838 31.7595 30.9838C31.7599 21.9435 31.84 12.8972 32 3.84521C32.2401 12.6886 32.3205 21.5733 32.2406 30.4992C32.0332 31.4166 31.4717 32.0224 30.5566 32.3165C21.0943 32.4781 11.6318 32.4781 2.16936 32.3165C1.26099 31.9276 0.779852 31.2412 0.72594 30.2569C0.646119 21.0887 0.726301 11.9617 0.96651 2.87598Z"
        fill="#282142" />
    <path fill-rule="evenodd" clip-rule="evenodd"
        d="M17.0847 15.4759C16.8889 15.9054 16.568 16.0265 16.1224 15.8393C12.66 13.8542 9.2118 11.8754 5.77793 9.90274C5.60736 9.6837 5.36679 9.60294 5.05622 9.66044C5.05622 14.1028 5.05622 18.5452 5.05622 22.9874C5.36679 23.0449 5.60736 22.9642 5.77793 22.7451C8.4242 21.2913 11.0705 19.8374 13.7167 18.3836C13.6477 19.1066 13.2468 19.4296 12.5139 19.3528C12.5139 19.5951 12.5139 19.8374 12.5139 20.0797C12.1282 20.0342 11.8074 20.1553 11.5516 20.4432C12.0556 20.5779 12.0957 20.6991 11.6719 20.8067C11.2191 20.5387 10.778 20.5387 10.3488 20.8067C9.50907 21.5292 8.62697 22.2157 7.70249 22.8663C7.99011 23.0247 7.99011 23.1459 7.70249 23.2297C7.42489 22.6589 7.10412 22.6184 6.74021 23.1086C5.7008 23.2295 4.65834 23.27 3.6128 23.2297C3.556 22.5692 3.75647 22.0039 4.21422 21.5336C4.2944 17.495 4.37461 13.4566 4.45479 9.41813C5.6888 9.23879 6.81146 9.56186 7.82277 10.3874C8.13198 10.2782 8.41265 10.1167 8.66477 9.90274C9.40113 10.22 9.72188 10.7855 9.62704 11.5989C10.3447 11.5826 10.7457 11.8249 10.8299 12.3258C12.0935 12.1885 13.2161 12.7136 14.1979 13.9008C14.7273 14.1007 15.1684 13.9796 15.521 13.5374C15.8687 14.1651 16.1493 14.8112 16.363 15.4759C16.6036 15.4759 16.8441 15.4759 17.0847 15.4759Z"
        fill="#201A3C" />
    <path fill-rule="evenodd" clip-rule="evenodd"
        d="M24.5424 21.5337C25.5912 22.0299 26.6336 22.5145 27.6698 22.9875C27.9096 18.5874 27.9897 14.1451 27.9103 9.66052C27.4792 9.62805 27.0784 9.70881 26.7075 9.90283C26.7075 9.49897 26.7075 9.09514 26.7075 8.69128C27.1951 8.65201 27.6763 8.69238 28.1509 8.81244C28.1954 9.25129 28.3556 9.7359 28.632 10.2663C28.3371 13.3212 28.3371 16.5116 28.632 19.8375C28.2438 20.9342 28.0833 22.0648 28.1509 23.2298C26.4801 23.5497 25.2773 22.9841 24.5424 21.5337Z"
        fill="#1C1737" />
    <path fill-rule="evenodd" clip-rule="evenodd"
        d="M27.6698 22.9873C27.7499 18.6228 27.6698 14.2612 27.4292 9.90261C27.2086 10.0546 26.968 10.1354 26.7075 10.1449C26.7075 10.0642 26.7075 9.98337 26.7075 9.90261C27.0784 9.7086 27.4792 9.62783 27.9103 9.6603C27.9897 14.1449 27.9096 18.5872 27.6698 22.9873Z"
        fill="#8B899E" />
    <path fill-rule="evenodd" clip-rule="evenodd"
        d="M5.77792 9.90282C5.4576 11.9561 5.29722 14.0965 5.29678 16.324C5.29722 18.5516 5.4576 20.6919 5.77792 22.7452C5.60736 22.9642 5.36679 23.0449 5.05621 22.9875C5.05621 18.5453 5.05621 14.1028 5.05621 9.66051C5.36679 9.60301 5.60736 9.68377 5.77792 9.90282Z"
        fill="#BBB9CA" />
    <path fill-rule="evenodd" clip-rule="evenodd"
        d="M5.77792 9.90283C9.21179 11.8754 12.66 13.8543 16.1224 15.8394C16.568 16.0266 16.8889 15.9055 17.0847 15.4759C17.1648 15.4759 17.2452 15.4759 17.3253 15.4759C19.5308 14.2443 21.6959 12.952 23.8207 11.599C24.7829 11.1144 25.7452 10.6298 26.7075 10.1451C26.968 10.1356 27.2086 10.0548 27.4292 9.90283C27.6698 14.2614 27.7499 18.6231 27.6698 22.9875C26.6336 22.5145 25.5913 22.0299 24.5424 21.5337C24.4601 21.3306 24.2999 21.2497 24.0612 21.2914C21.5343 19.5353 18.888 18.041 16.1224 16.8086C15.9887 16.9014 15.9085 17.0226 15.8819 17.1721C15.0746 17.4413 14.3529 17.845 13.7167 18.3836C11.0705 19.8375 8.42419 21.2914 5.77792 22.7452C5.4576 20.6919 5.29722 18.5516 5.29678 16.324C5.29722 14.0965 5.4576 11.9561 5.77792 9.90283Z"
        fill="#FAFAFB" />
    <path fill-rule="evenodd" clip-rule="evenodd"
        d="M24.0612 21.2913C23.2233 20.9879 22.3414 20.7859 21.4149 20.6855C20.9853 20.4953 20.6244 20.2128 20.3324 19.8375C20.0641 20.2009 19.8637 20.6048 19.731 21.049C19.5325 21.2637 19.2919 21.3444 19.0092 21.2913C19.0092 20.6451 19.0092 19.9991 19.0092 19.3528C18.448 19.3528 17.8865 19.3528 17.3253 19.3528C17.3399 18.8459 17.5805 18.4825 18.047 18.2624C17.3698 17.7599 16.6481 17.3964 15.8818 17.1721C15.9085 17.0226 15.9886 16.9014 16.1224 16.8086C18.888 18.041 21.5343 19.5353 24.0612 21.2913Z"
        fill="#1E183D" />
    <path fill-rule="evenodd" clip-rule="evenodd"
        d="M23.8206 11.5988C21.6959 12.9518 19.5308 14.2441 17.3253 15.4757C17.4857 14.9103 17.6459 14.3449 17.8064 13.7795C19.7018 13.6331 21.3858 12.9465 22.8584 11.7199C23.1694 11.6012 23.4903 11.5608 23.8206 11.5988Z"
        fill="#201B3C" />
</svg>