<svg width="32" height="32" viewBox="0 0 32 33" fill="none" xmlns="http://www.w3.org/2000/svg">
    <path fill-rule="evenodd" clip-rule="evenodd"
        d="M20.2274 20.6895C19.9048 19.6353 20.4491 18.5099 21.4368 18.168C22.4312 17.8261 23.4929 18.4031 23.8154 19.4502L26.0663 26.7438C26.3889 27.798 25.8446 28.9234 24.8569 29.2653C24.4134 29.422 23.9565 29.3864 23.5533 29.2083L16.8409 26.8364L9.1341 32.4848C8.27404 33.1116 7.10492 32.8837 6.51363 31.9791C6.16424 31.4449 6.09704 30.7967 6.27173 30.2269L8.83842 21.9146L1.29287 19.2507C0.305156 18.9017 -0.232374 17.7763 0.0968638 16.7293C0.311876 16.0312 0.862834 15.5469 1.49444 15.4044V15.3973L11.553 13.1322L14.9193 2.22016C15.2418 1.16599 16.3034 0.596151 17.2978 0.938044C17.8958 1.1446 18.3259 1.63609 18.5073 2.22016L21.2151 10.9598L29.7216 9.04373C30.7428 8.81584 31.744 9.50673 31.959 10.5894C32.174 11.6721 31.5222 12.7334 30.501 12.9613L18.6753 15.6252C18.6753 15.6252 17.0089 10.2262 16.7133 9.2717C16.1556 11.088 14.4691 16.5725 14.4758 16.5512L9.0602 17.7905L13.6158 19.3575L11.6067 25.8321L16.243 22.4346L21.3226 24.2224L20.2274 20.6895Z"
        fill="#25E85F" />
</svg>