<svg width="32" height="32" viewBox="0 0 33 33" fill="none" xmlns="http://www.w3.org/2000/svg">
    <path
        d="M31.5532 32.5C31.4506 32.5001 31.3491 32.4827 31.2543 32.4489C31.1596 32.4151 31.0735 32.3656 31.001 32.3032L26.0385 28.0335H16.3337C12.0917 28.0294 8.02479 26.5776 5.02521 23.9967C2.02568 21.4159 0.338421 17.9167 0.333618 14.2668V1.17171C0.333629 0.993563 0.415885 0.822719 0.562282 0.696747C0.708678 0.570784 0.907236 0.50001 1.11428 0.5H16.3337C20.5757 0.504133 24.6425 1.95587 27.642 4.53674C30.6416 7.11767 32.3288 10.6168 32.3336 14.2668V31.8283C32.3336 32.0064 32.2513 32.1772 32.105 32.3031C31.9587 32.4291 31.7602 32.4999 31.5532 32.5ZM1.89497 1.84341V14.2668C1.89929 17.5605 3.42185 20.7183 6.12878 23.0473C8.83559 25.3763 12.5056 26.6864 16.3337 26.6902H26.362C26.569 26.6902 26.7675 26.761 26.9139 26.8869L30.7724 30.2065V14.2668C30.768 10.973 29.2454 7.8153 26.5385 5.4862C23.8317 3.15722 20.1617 1.84714 16.3337 1.84343L1.89497 1.84341Z"
        fill="#3A783B" />
    <path
        d="M13.8427 9.11096V5.38034C13.8427 5.29123 13.8015 5.20579 13.7283 5.14288C13.6552 5.07988 13.5559 5.04443 13.4523 5.04443H7.64972C7.57247 5.04443 7.49701 5.06418 7.43286 5.10108C7.36871 5.13797 7.31866 5.19047 7.28911 5.25184C7.25955 5.3132 7.25182 5.38073 7.26694 5.44585C7.28194 5.51097 7.31911 5.57079 7.37375 5.6178L13.2836 10.7027C13.3409 10.7524 13.4148 10.7853 13.4951 10.7969C13.5752 10.8085 13.6576 10.7982 13.7307 10.7675C13.8038 10.7367 13.8639 10.687 13.9025 10.6255C13.9411 10.5638 13.9562 10.4934 13.9459 10.424C13.8771 9.98883 13.8426 9.55014 13.8427 9.11096Z"
        fill="#98C941" />
    <path
        d="M15.5157 12.6256L20.1818 16.6404C20.2391 16.69 20.3131 16.723 20.3933 16.7345C20.4734 16.7462 20.5559 16.7359 20.6289 16.7051C20.702 16.6744 20.762 16.6247 20.8007 16.5632C20.8393 16.5015 20.8545 16.4311 20.8441 16.3616C20.7753 15.9265 20.7408 15.4878 20.7409 15.0486V6.08414C20.7412 6.01844 20.7192 5.95409 20.6774 5.89918C20.6356 5.84418 20.5761 5.80093 20.506 5.77482C19.1857 5.2922 17.7658 5.04376 16.3313 5.04443H15.7917C15.6882 5.04443 15.5889 5.07989 15.5157 5.14289C15.4425 5.20579 15.4014 5.29124 15.4014 5.38034V12.3882C15.4014 12.4322 15.4114 12.4759 15.431 12.5167C15.4506 12.5574 15.4794 12.5944 15.5157 12.6256Z"
        fill="#98C941" />
    <path
        d="M12.1789 11.6525L6.2691 6.56765C6.21446 6.52064 6.14494 6.48866 6.06925 6.47566C5.99346 6.46275 5.91497 6.46939 5.84366 6.49483C5.77234 6.52026 5.71143 6.56322 5.66855 6.61852C5.62567 6.67371 5.60272 6.73864 5.60272 6.80511V11.7978C5.60272 11.8419 5.6128 11.8855 5.6325 11.9263C5.6521 11.967 5.68087 12.0041 5.71703 12.0352C5.75331 12.0664 5.7963 12.0912 5.84366 12.1081C5.89102 12.1249 5.94184 12.1336 5.99312 12.1336H10.3289C10.8393 12.1335 11.3492 12.1632 11.8549 12.2225C11.9356 12.2314 12.0175 12.2183 12.0891 12.1851C12.1607 12.1519 12.2184 12.1002 12.2542 12.0373C12.2899 11.9744 12.3019 11.9035 12.2883 11.8346C12.2749 11.7655 12.2366 11.7018 12.1789 11.6525Z"
        fill="#98C941" />
    <path
        d="M22.4187 18.5632L26.3975 21.9867C26.4521 22.0337 26.5216 22.0657 26.5973 22.0786C26.6731 22.0916 26.7516 22.085 26.8229 22.0596C26.8942 22.0341 26.9551 21.9911 26.998 21.9359C27.041 21.8806 27.0638 21.8156 27.0638 21.7493V14.2771C27.0639 12.8753 26.6925 11.492 25.9778 10.2322C25.2632 8.97247 24.2242 7.86948 22.9397 7.00712C22.8823 6.96763 22.813 6.94287 22.7399 6.93574C22.6668 6.92861 22.5928 6.93931 22.5265 6.96666C22.4601 6.99402 22.4041 7.03699 22.3648 7.09045C22.3255 7.14401 22.3046 7.20595 22.3043 7.26924V18.3258C22.3043 18.4149 22.3455 18.5002 22.4187 18.5632Z"
        fill="#98C941" />
    <path
        d="M19.0797 17.5902L14.4137 13.5754C14.3775 13.5442 14.3345 13.5195 14.2871 13.5026C14.2397 13.4857 14.1889 13.4771 14.1377 13.4771H5.99312C5.94185 13.4771 5.89102 13.4857 5.84366 13.5026C5.7963 13.5195 5.75331 13.5442 5.71703 13.5754C5.68087 13.6066 5.6521 13.6436 5.6325 13.6844C5.6128 13.7251 5.60272 13.7687 5.60272 13.8129V14.2772C5.60194 15.5115 5.89057 16.7331 6.45159 17.8692C6.48193 17.9295 6.5322 17.9807 6.59602 18.0167C6.65995 18.0526 6.73473 18.0716 6.81109 18.0713H17.2298C17.7402 18.0712 18.2501 18.1009 18.7558 18.1601C18.8365 18.169 18.9184 18.156 18.9899 18.1227C19.0616 18.0895 19.1192 18.0379 19.155 17.975C19.1908 17.9121 19.2026 17.8412 19.1892 17.7722C19.1756 17.7032 19.1375 17.6395 19.0797 17.5902Z"
        fill="#98C941" />
    <path
        d="M21.0389 19.4146H8.1888C8.11525 19.4147 8.04326 19.4328 7.98101 19.4666C7.91876 19.5004 7.86894 19.5486 7.83714 19.6057C7.80534 19.6628 7.79292 19.7265 7.8012 19.7894C7.80949 19.8522 7.83826 19.9118 7.88416 19.9613C8.88641 21.0665 10.1683 21.9605 11.6324 22.5754C13.0965 23.1903 14.7043 23.5098 16.3335 23.5098H25.0177C25.0949 23.5098 25.1704 23.49 25.2346 23.4531C25.2988 23.4162 25.3488 23.3638 25.3783 23.3024C25.4079 23.241 25.4156 23.1735 25.4006 23.1084C25.3855 23.0433 25.3483 22.9834 25.2938 22.9364L21.3149 19.5129C21.2417 19.4499 21.1424 19.4146 21.0389 19.4146Z"
        fill="#98C941" />
</svg>