<svg width="32" height="32" viewBox="0 0 32 32" fill="none" xmlns="http://www.w3.org/2000/svg">
<g clip-path="url(#clip0_108_375)">
<rect width="32" height="32" fill="#493487"/>
<path opacity="0.989" fill-rule="evenodd" clip-rule="evenodd" d="M2.86425 0.296875C10.4692 0.296875 18.0741 0.296875 25.6791 0.296875C28.4083 0.638832 30.2026 2.12031 31.0618 4.74132C31.5509 6.80743 31.1229 8.65106 29.7778 10.2722C27.404 12.6625 25.0172 15.0329 22.6173 17.3833C20.5761 15.408 18.5679 13.3998 16.5926 11.3586C17.5274 10.3744 18.4821 9.40321 19.4568 8.44502C15.9342 8.37918 12.4116 8.37918 8.88894 8.44502C10.6537 10.1933 12.3986 11.9547 14.1235 13.729C16.1038 15.8081 18.1449 17.8163 20.247 19.7537C22.976 22.5321 25.725 25.2976 28.4939 28.05C29.1639 29.4292 28.884 30.565 27.6544 31.4574C27.4675 31.5535 27.27 31.6193 27.0618 31.6549C25.7607 31.6716 24.4768 31.721 23.2099 31.803C22.3869 31.803 21.5638 31.803 20.7408 31.803C20.3244 31.6907 19.9293 31.5096 19.5556 31.2598C15.9507 27.6549 12.3457 24.05 8.74079 20.445C8.70787 23.6714 8.67494 26.8977 8.64202 30.124C8.32698 31.0157 7.71792 31.5753 6.81486 31.803C5.39923 31.803 3.98358 31.803 2.56795 31.803C1.6211 31.5475 0.995586 30.9549 0.691406 30.0253C0.691406 20.8072 0.691406 11.589 0.691406 2.37095C0.965222 1.20826 1.6895 0.516898 2.86425 0.296875ZM16.5926 11.3586C15.7696 12.1487 14.9465 12.9388 14.1235 13.729C12.3986 11.9547 10.6537 10.1933 8.88894 8.44502C12.4116 8.37918 15.9342 8.37918 19.4568 8.44502C18.4821 9.40321 17.5274 10.3744 16.5926 11.3586Z" fill="#FEFEFE"/>
<path fill-rule="evenodd" clip-rule="evenodd" d="M16.5941 11.3594C18.5694 13.4006 20.5776 15.4088 22.6188 17.3841C21.8616 18.2071 21.0715 18.9972 20.2485 19.7544C18.1464 17.8171 16.1052 15.8089 14.125 13.7297C14.948 12.9396 15.7711 12.1495 16.5941 11.3594Z" fill="#D5D2DB"/>
<path d="M11.928 15.136L6.03764 9.01973L18.0364 9.23742L11.928 15.136Z" fill="#493487"/>
</g>
<defs>
<clipPath id="clip0_108_375">
<rect width="32" height="32" fill="white"/>
</clipPath>
</defs>
</svg>
