<svg width="32" height="32" viewBox="0 0 32 32" fill="none" xmlns="http://www.w3.org/2000/svg">
<rect width="32" height="32" fill="white"/>
<path fill-rule="evenodd" clip-rule="evenodd" d="M21.182 5.98337C25.6999 5.37432 27.5806 7.33244 26.8245 11.8578C27.0295 12.9898 27.6735 13.737 28.7569 14.0993C29.7347 14.1765 30.7137 14.2023 31.6941 14.1766C31.6941 15.1041 31.6941 16.0317 31.6941 16.9592C30.1026 16.6936 28.6855 17.0543 27.4429 18.0413C27.1479 18.4611 26.9419 18.9248 26.8245 19.4326C26.773 20.6179 26.7214 21.803 26.6699 22.9882C26.4867 24.2538 25.7911 25.1041 24.583 25.5389C23.8785 25.7666 23.1572 25.8954 22.4187 25.9254C19.5239 25.6924 16.6383 25.3833 13.7617 24.9979C13.7617 24.328 13.7617 23.658 13.7617 22.9882C16.3791 23.3308 19.0071 23.4597 21.6458 23.3747C22.2425 23.1903 22.629 22.8038 22.8052 22.2153C22.402 20.0767 22.9946 18.2989 24.583 16.8819C25.2528 16.4954 25.9228 16.109 26.5926 15.7225C25.2502 15.2716 24.1424 14.4986 23.269 13.4037C23.1659 13.0945 23.0629 12.7853 22.9598 12.4761C22.9083 11.4971 22.8567 10.518 22.8052 9.53893C22.6317 9.21061 22.3999 8.9272 22.1095 8.68868C19.3123 8.62442 16.5296 8.80478 13.7617 9.22975C13.7617 8.55987 13.7617 7.88997 13.7617 7.22009C16.2811 6.95755 18.7545 6.5453 21.182 5.98337Z" fill="#676767"/>
<path fill-rule="evenodd" clip-rule="evenodd" d="M9.74079 7.83789C9.99845 7.83789 10.2561 7.83789 10.5137 7.83789C10.5137 8.45625 10.5137 9.07461 10.5137 9.69296C8.81244 9.85279 7.11195 10.0332 5.41229 10.234C4.90896 10.4794 4.57401 10.8658 4.40746 11.3934C4.38272 12.4853 4.27966 13.5674 4.09828 14.6398C3.74413 15.3285 3.25461 15.8954 2.62968 16.3403C3.30395 16.6796 3.79349 17.1949 4.09828 17.8862C4.28445 18.8528 4.38752 19.8319 4.40746 20.8234C4.45436 21.1926 4.58318 21.5276 4.79393 21.8282C5.34558 22.2183 5.96394 22.4243 6.649 22.4466C7.93519 22.5673 9.22344 22.6446 10.5137 22.6785C10.5137 23.2968 10.5137 23.9152 10.5137 24.5335C8.59113 24.4392 6.68453 24.2074 4.79393 23.8379C4.23552 23.6618 3.72022 23.4041 3.24804 23.0649C2.92648 22.5645 2.69459 22.0235 2.55239 21.4418C2.53649 20.2446 2.43343 19.0594 2.24321 17.8862C1.65815 17.3507 0.962495 17.1445 0.15625 17.2678C0.15625 16.701 0.15625 16.1342 0.15625 15.5674C1.3033 15.7042 2.05048 15.2404 2.3978 14.1761C2.41992 12.9813 2.52297 11.7961 2.70697 10.6205C3.26643 9.3919 4.21974 8.69625 5.56688 8.53354C6.99001 8.36297 8.38132 8.13108 9.74079 7.83789Z" fill="#686868"/>
<path fill-rule="evenodd" clip-rule="evenodd" d="M19.7891 10.3112C20.0619 10.1626 20.3711 10.1111 20.7166 10.1567C20.7668 11.319 20.7154 12.4527 20.562 13.5576C20.562 12.4755 20.562 11.3934 20.562 10.3112C20.3043 10.3112 20.0468 10.3112 19.7891 10.3112Z" fill="#959595"/>
<path fill-rule="evenodd" clip-rule="evenodd" d="M19.7907 10.3125C20.0484 10.3125 20.306 10.3125 20.5637 10.3125C20.5637 11.3946 20.5637 12.4768 20.5637 13.5589C19.314 13.4231 18.1287 13.6292 17.0081 14.1772C16.8537 16.5454 16.802 18.9157 16.8535 21.2883C15.8229 21.2369 14.7924 21.1852 13.7617 21.1338C13.7617 17.7328 13.7617 14.3318 13.7617 10.9309C14.7887 10.8207 15.8191 10.7692 16.8535 10.7763C16.828 11.2429 16.8538 11.7066 16.9308 12.1676C17.7065 11.2607 18.6599 10.6423 19.7907 10.3125Z" fill="#676767"/>
<path fill-rule="evenodd" clip-rule="evenodd" d="M11.9042 11.2403C12.1104 11.2403 12.3165 11.2403 12.5226 11.2403C12.5226 12.2193 12.5226 13.1984 12.5226 14.1774C11.4848 13.9152 10.5057 14.0698 9.5854 14.6412C9.43149 16.675 9.37996 18.7363 9.43081 20.8248C8.96704 20.8248 8.50327 20.8248 8.0395 20.8248C7.73032 20.8248 7.42114 20.8248 7.11197 20.8248C7.06242 17.7727 7.11394 14.7326 7.26656 11.704C7.98574 11.627 8.70716 11.5755 9.43081 11.5494C9.38236 11.9741 9.4339 12.3863 9.5854 12.7861C10.078 12.3191 10.5933 11.8811 11.1313 11.4721C11.367 11.3162 11.6247 11.2389 11.9042 11.2403Z" fill="#656565"/>
<path fill-rule="evenodd" clip-rule="evenodd" d="M11.9062 11.2401C12.1256 11.0931 12.3832 11.0415 12.6792 11.0855C12.7293 12.1451 12.6778 13.1757 12.5246 14.1773C12.5246 13.1982 12.5246 12.2192 12.5246 11.2401C12.3185 11.2401 12.1124 11.2401 11.9062 11.2401Z" fill="#979797"/>
<path fill-rule="evenodd" clip-rule="evenodd" d="M7.26621 11.7031C7.1136 14.7317 7.06207 17.7718 7.11162 20.8239C7.00859 19.3304 6.95706 17.8103 6.95703 16.2635C6.95725 14.6882 7.06031 13.1681 7.26621 11.7031Z" fill="#969696"/>
<path fill-rule="evenodd" clip-rule="evenodd" d="M9.58496 14.6406C9.58496 16.7534 9.58496 18.866 9.58496 20.9788C9.03742 21.0272 8.52212 20.9755 8.03906 20.8242C8.50283 20.8242 8.9666 20.8242 9.43037 20.8242C9.37952 18.7357 9.43105 16.6744 9.58496 14.6406Z" fill="#D4D4D4"/>
</svg>
