<svg width="32" height="32" viewBox="0 0 32 32" fill="none" xmlns="http://www.w3.org/2000/svg">
<rect width="32" height="32" fill="white"/>
<path d="M14.2589 5.16909C13.2159 5.59576 11.8411 6.30687 11.1774 6.82835L9.99219 7.72909L11.0352 8.48761C11.604 8.86687 14.2114 12.0906 16.8663 15.5513C19.4737 19.0595 22.4603 22.615 23.4559 23.4209C25.6366 25.0802 28.5759 26.4076 29.4292 26.0758C29.7611 25.9809 30.4722 24.6535 31.0411 23.1839C34.3596 14.3187 28.5285 5.12169 19.284 4.64761C17.2929 4.5528 15.4914 4.74243 14.2589 5.16909Z" fill="black"/>
<path d="M1.50771 8.1074C0.1803 10.7622 -0.00932944 15.6452 0.986226 18.6792C3.404 26.0274 12.0796 29.7726 19.0484 26.5489C20.3759 25.9326 21.6084 25.2215 21.7507 24.9844C21.9403 24.7 21.3714 23.8941 20.5655 23.1355C19.7596 22.377 17.3418 19.3904 15.2084 16.5459C9.89882 9.4348 6.34326 6.35332 3.45141 6.35332C2.64549 6.35332 2.124 6.8274 1.50771 8.1074Z" fill="black"/>
</svg>
