<svg width="32" height="32" viewBox="0 0 32 32" fill="none" xmlns="http://www.w3.org/2000/svg">
<path fill-rule="evenodd" clip-rule="evenodd" d="M24.7099 0.403965C22.8503 0.337819 21.0275 0.405322 19.2416 0.606497C19.1316 0.594345 19.0642 0.526841 19.0391 0.403965C20.9615 0.136178 22.8517 0.136178 24.7099 0.403965Z" fill="#FECB58"/>
<path fill-rule="evenodd" clip-rule="evenodd" d="M24.7095 0.403459C25.1583 0.545758 25.5296 0.815793 25.8234 1.21359C26.3498 2.3456 26.9574 3.42578 27.6462 4.45409C27.8016 5.28316 27.7341 6.09328 27.4437 6.88447C25.5713 9.82041 23.9172 12.8584 22.4817 15.9984C22.6117 16.8673 22.9155 17.6774 23.393 18.4288C24.8648 20.9003 26.2826 23.3981 27.6462 25.9224C27.7813 26.4626 27.7813 27.0025 27.6462 27.5427C26.9013 29.0345 26.0576 30.4523 25.1146 31.7959C22.1268 26.8334 19.1901 21.8376 16.3044 16.8085C16.1694 16.336 16.1694 15.8633 16.3044 15.3908C18.1108 12.3859 19.8662 9.34797 21.5703 6.27688C21.7054 5.73679 21.7054 5.19671 21.5703 4.65662C20.8428 3.2678 20.0663 1.91759 19.2412 0.605991C21.0271 0.404816 22.8499 0.337312 24.7095 0.403459Z" fill="#FEBF14"/>
<path fill-rule="evenodd" clip-rule="evenodd" d="M18.6331 31.5942C16.8471 31.7953 15.0244 31.8629 13.1647 31.7967C12.8348 31.5689 12.531 31.2987 12.2533 30.9866C9.92521 26.7346 7.49483 22.5489 4.96217 18.4296C4.48454 17.6782 4.18075 16.8681 4.05078 15.9992C4.05388 15.567 4.15515 15.162 4.35458 14.784C7.13898 9.95741 9.97443 5.16416 12.8609 0.404297C13.8393 1.68543 14.7171 3.03565 15.4938 4.45493C15.6289 5.13003 15.6289 5.80515 15.4938 6.48025C13.7255 9.26277 12.0377 12.0982 10.4305 14.9866C10.1355 15.567 10.068 16.1746 10.228 16.8094C13.137 21.6829 15.9388 26.6111 18.6331 31.5942Z" fill="#634493"/>
<path fill-rule="evenodd" clip-rule="evenodd" d="M18.6324 31.5938C18.7424 31.6059 18.8098 31.6733 18.8349 31.7963C16.9125 32.064 15.0223 32.064 13.1641 31.7963C15.0237 31.8625 16.8465 31.7949 18.6324 31.5938Z" fill="#8069A7"/>
</svg>
