<svg width="32" height="32" viewBox="0 0 32 32" fill="none" xmlns="http://www.w3.org/2000/svg">
<path d="M31.6522 21.5588L30.1206 8.79081C29.7086 5.35321 26.7866 2.76001 23.3238 2.76001H8.69543C5.23263 2.76001 2.31063 5.35321 1.89863 8.79081L0.368628 21.5588C0.135828 23.5008 0.746229 25.454 2.04503 26.9168C3.34223 28.3808 5.20903 29.2192 7.16543 29.2192H24.8554C26.8102 29.2192 28.677 28.3808 29.9758 26.9168C31.273 25.4544 31.885 23.5012 31.6522 21.5588ZM27.4566 24.698C26.7614 25.4812 25.8022 25.912 24.7566 25.912H7.26463C6.21743 25.912 5.25783 25.4812 4.56463 24.698C3.86943 23.9148 3.55663 22.9116 3.68063 21.872L5.19343 9.24721C5.41063 7.43561 6.95143 6.06721 8.77743 6.06721H23.2422C25.0678 6.06721 26.609 7.43521 26.8262 9.24721L28.3406 21.872C28.4646 22.9116 28.1498 23.9148 27.4566 24.698Z" fill="#004956"/>
<path d="M24.799 17.6396C24.5582 17.2704 24.1882 17.0172 23.757 16.9264C23.325 16.8356 22.885 16.9184 22.5158 17.1588C18.1114 20.0312 13.825 20.0308 9.41222 17.1584C9.04302 16.918 8.60182 16.8352 8.17102 16.9268C7.73982 17.018 7.37022 17.2716 7.12982 17.6408C6.88942 18.01 6.80702 18.4508 6.89822 18.882C6.98942 19.3132 7.24302 19.6828 7.61222 19.9232C10.3698 21.7184 13.181 22.6284 15.9678 22.6284C18.755 22.6284 21.5642 21.718 24.3178 19.9224C24.687 19.6816 24.9402 19.3116 25.031 18.8804C25.1222 18.4496 25.0398 18.0088 24.799 17.6396Z" fill="#004956"/>
</svg>
