<svg width="32" height="32" viewBox="0 0 32 32" fill="none" xmlns="http://www.w3.org/2000/svg">
<path d="M31.986 17.5299V5.7753C31.986 2.58805 29.1546 0 25.6505 0L6.34954 2.89402C2.84538 2.89402 0 5.46932 0 8.66932V26.2247C0 29.412 2.84538 32 6.34954 32H25.6505C29.1546 32 32 29.412 32 26.2247V19.353C31.986 19.0598 31.972 18.7538 31.972 18.4478C31.958 18.1418 31.972 17.8359 31.986 17.5299ZM24.5291 28.2008C22.2865 29.6032 19.5953 30.3044 16.4275 30.3044C11.8721 30.3044 7.6671 28.8128 3.81253 25.8295L7.93342 22.043C10.4845 24.5291 13.4279 25.7785 16.7499 25.7785C18.0254 25.7785 19.2028 25.5363 20.2961 25.039C21.6557 24.4398 22.3285 23.6239 22.3285 22.5657C22.3285 21.0231 21.095 20.0414 18.6281 19.6207L15.2221 19.0343C12.1805 18.5116 9.90977 17.8359 8.45204 17.0327C6.25142 15.8088 5.15813 14.0494 5.15813 11.7673C5.15813 9.16653 6.32151 7.1012 8.63425 5.55857C10.6807 4.15618 13.1897 3.45498 16.1612 3.45498C19.9457 3.45498 23.6461 4.62789 27.2764 6.98645L23.8283 10.8367C21.3473 8.93705 18.8384 7.99363 16.2733 7.99363C15.0399 7.99363 13.9185 8.23586 12.9093 8.73307C11.7039 9.33227 11.1152 10.1482 11.1152 11.2064C11.1152 12.5705 12.3487 13.4629 14.8156 13.8964L20.8848 14.9418C25.8187 15.7833 28.2996 18.0526 28.2996 21.7371C28.2996 24.4653 27.0381 26.6199 24.5291 28.2008Z" fill="#00D28B"/>
</svg>
