<svg width="32" height="32" viewBox="0 0 32 32" fill="none" xmlns="http://www.w3.org/2000/svg">
<path d="M16 0C12.8355 0 9.74207 0.938383 7.11088 2.69649C4.4797 4.45459 2.42894 6.95345 1.21793 9.87706C0.00693254 12.8007 -0.309921 16.0177 0.307443 19.1214C0.924806 22.2251 2.44866 25.0761 4.6863 27.3137C6.92394 29.5513 9.77487 31.0752 12.8786 31.6926C15.9823 32.3099 19.1993 31.9931 22.1229 30.7821C25.0466 29.5711 27.5454 27.5203 29.3035 24.8891C31.0616 22.2579 32 19.1645 32 16C32 11.7565 30.3143 7.68687 27.3137 4.68629C24.3131 1.68571 20.2435 0 16 0V0ZM21.0633 17.2139C21.0158 18.5898 20.5533 19.9193 19.7366 21.0276C18.996 22.0958 17.9153 22.8815 16.6708 23.2565H16.6411H5.9566V23.0399C5.89724 21.829 6.39288 20.437 7.30997 19.2202C8.1855 18.0627 9.32518 17.2257 10.361 16.9794H10.3877H21.0722L21.0633 17.2139ZM26.0582 8.97496C26.0107 10.3509 25.5483 11.6803 24.7316 12.7887C23.991 13.8569 22.9103 14.6426 21.6657 15.0176H21.6361H10.9516V14.801C10.8922 13.5901 11.3879 12.1981 12.305 10.9813C13.1805 9.82378 14.3202 8.98683 15.356 8.74049H15.3827H26.0672L26.0582 8.97496Z" fill="black"/>
</svg>
