<svg width="32" height="32" viewBox="0 0 32 32" fill="none" xmlns="http://www.w3.org/2000/svg">
    <g clip-path="url(#clip0_1393_57)">
        <path fill-rule="evenodd" clip-rule="evenodd"
            d="M-0.039978 -0.0400391C10.6267 -0.0400391 21.2934 -0.0400391 31.96 -0.0400391C31.96 10.6266 31.96 21.2933 31.96 31.96C21.2934 31.96 10.6267 31.96 -0.039978 31.96C-0.039978 21.2933 -0.039978 10.6266 -0.039978 -0.0400391Z"
            fill="#FEFEFE" />
        <path fill-rule="evenodd" clip-rule="evenodd"
            d="M13.56 4.36C13.9725 4.30671 14.3991 4.28005 14.84 4.28C15.4454 4.26318 16.0321 4.31652 16.6 4.44C15.5882 4.3721 14.575 4.34543 13.56 4.36Z"
            fill="#E37449" />
        <path fill-rule="evenodd" clip-rule="evenodd"
            d="M13.56 4.35994C14.575 4.34537 15.5883 4.37204 16.6 4.43994C17.4217 4.60258 18.1951 4.88258 18.92 5.27994C17.6689 5.85307 16.5489 6.6264 15.56 7.59994C15.4842 7.63856 15.4042 7.6519 15.32 7.63994C15.0138 8.17474 14.6538 8.68138 14.24 9.15994C13.4033 10.4609 12.83 11.8743 12.52 13.3999C12.4623 13.4334 12.4223 13.4867 12.4 13.5599C12.2694 14.2893 12.1494 15.0227 12.04 15.7599C12.0667 15.9066 12.0934 16.0533 12.12 16.1999C12.194 16.1087 12.2608 16.1087 12.32 16.1999C12.3822 16.5777 12.3688 16.9511 12.28 17.3199C12.3077 17.4156 12.3477 17.4156 12.4 17.3199C12.4901 17.6599 12.5434 18.0065 12.56 18.3599C12.7139 18.5443 12.8605 18.731 13 18.9199C13.2125 19.4232 13.4259 19.9299 13.64 20.4399C13.6302 20.687 13.7102 20.9003 13.88 21.0799C13.814 21.1508 13.734 21.1775 13.64 21.1599C13.64 21.2666 13.64 21.3733 13.64 21.4799C13.3467 21.4799 13.0534 21.4799 12.76 21.4799C12.7776 21.3859 12.7509 21.3059 12.68 21.2399C12.5783 21.2836 12.4716 21.3103 12.36 21.3199C12.0564 21.2539 11.763 21.1739 11.48 21.0799C9.21451 20.1611 7.62787 18.5611 6.72003 16.2799C6.50958 15.8489 6.38958 15.3955 6.36003 14.9199C6.2434 13.9107 6.19006 12.8974 6.20003 11.8799C6.23273 11.5299 6.28607 11.1831 6.36003 10.8399C7.44754 7.21899 9.84755 5.05899 13.56 4.35994Z"
            fill="#F0592A" />
        <path fill-rule="evenodd" clip-rule="evenodd"
            d="M17.88 10.2C17.7214 10.1726 17.6147 10.226 17.56 10.36C17.4987 10.3063 17.4453 10.2396 17.4 10.16C17.577 10.0969 17.737 10.1103 17.88 10.2Z"
            fill="#CF9B8F" />
        <path fill-rule="evenodd" clip-rule="evenodd"
            d="M17.88 10.2C21.3252 10.6191 23.7652 12.4057 25.2 15.56C25.4903 16.3216 25.6903 17.0949 25.8 17.88C25.826 18.5081 25.7994 19.1214 25.72 19.72C25.6383 20.0784 25.5851 20.4517 25.56 20.84C25.56 20.8933 25.56 20.9466 25.56 21C24.6255 24.3213 22.4921 26.4679 19.16 27.44C18.8168 27.5138 18.4702 27.5538 18.12 27.56C17.1852 27.5708 16.2519 27.5441 15.32 27.48C14.714 27.3773 14.1274 27.2039 13.56 26.96C13.3725 26.893 13.2125 26.7863 13.08 26.64C14.2716 26.0043 15.365 25.2309 16.36 24.32C16.4359 24.2813 16.5159 24.2681 16.6 24.28C16.6087 24.0973 16.6753 23.9373 16.8 23.8C17.5755 22.9323 18.2023 21.9723 18.68 20.92C18.8399 20.8114 18.9332 20.8648 18.96 21.08C19.0101 20.9029 18.9967 20.7296 18.92 20.56C19.0559 20.2403 19.1359 19.9069 19.16 19.56C20.0155 16.2394 19.4823 13.1727 17.56 10.36C17.6147 10.2259 17.7214 10.1725 17.88 10.2Z"
            fill="#F0592A" />
        <path fill-rule="evenodd" clip-rule="evenodd"
            d="M6.35999 10.84C6.28603 11.1832 6.2327 11.5299 6.19999 11.88C6.1207 12.425 6.09403 12.985 6.11999 13.56C6.0029 12.7273 6.02956 11.8873 6.19999 11.04C6.21473 10.9299 6.26807 10.8632 6.35999 10.84Z"
            fill="#FEE4D0" />
        <path fill-rule="evenodd" clip-rule="evenodd"
            d="M6.20002 11.88C6.19005 12.8974 6.24339 13.9108 6.36002 14.92C6.20907 14.4902 6.12907 14.0369 6.12002 13.56C6.09406 12.985 6.12072 12.425 6.20002 11.88Z"
            fill="#DF6641" />
        <path fill-rule="evenodd" clip-rule="evenodd"
            d="M12.52 13.4C12.2287 15.2806 12.3887 17.1206 13 18.92C12.8605 18.7311 12.7138 18.5444 12.56 18.36C12.5433 18.0066 12.4901 17.6599 12.4 17.32C12.3477 17.4157 12.3077 17.4157 12.28 17.32C12.3688 16.9511 12.3821 16.5778 12.32 16.2C12.2607 16.1087 12.194 16.1087 12.12 16.2C12.0933 16.0534 12.0666 15.9067 12.04 15.76C12.1493 15.0227 12.2693 14.2894 12.4 13.56C12.4222 13.4867 12.4622 13.4335 12.52 13.4Z"
            fill="#EA6137" />
        <path fill-rule="evenodd" clip-rule="evenodd"
            d="M25.72 19.72C25.7332 20.0145 25.7199 20.3078 25.68 20.6C25.6614 20.6989 25.6214 20.7789 25.56 20.84C25.585 20.4517 25.6383 20.0784 25.72 19.72Z"
            fill="#D96D4B" />
        <path fill-rule="evenodd" clip-rule="evenodd"
            d="M19.16 19.5601C19.1359 19.907 19.0559 20.2404 18.92 20.5601C18.9967 20.7297 19.0101 20.903 18.96 21.0801C18.9332 20.8649 18.8399 20.8115 18.68 20.9201C18.8101 20.4496 18.9701 19.9962 19.16 19.5601Z"
            fill="#E46A47" />
        <path fill-rule="evenodd" clip-rule="evenodd"
            d="M25.8 17.88C25.905 18.0594 25.9582 18.2728 25.96 18.52C25.9158 19.2398 25.8758 19.9598 25.84 20.68C25.8002 20.8435 25.7068 20.9502 25.56 21C25.56 20.9466 25.56 20.8934 25.56 20.84C25.6214 20.779 25.6614 20.699 25.68 20.6C25.7199 20.3078 25.7332 20.0146 25.72 19.72C25.7994 19.1214 25.826 18.5082 25.8 17.88Z"
            fill="#FDEEDC" />
        <path fill-rule="evenodd" clip-rule="evenodd"
            d="M13.64 20.4399C13.8849 20.8485 14.1516 21.2485 14.44 21.6399C13.3837 21.7687 12.397 21.582 11.48 21.0799C11.7629 21.1739 12.0563 21.2539 12.36 21.3199C12.4715 21.3103 12.5782 21.2836 12.68 21.2399C12.7509 21.3059 12.7775 21.3859 12.76 21.4799C13.0533 21.4799 13.3466 21.4799 13.64 21.4799C13.64 21.3733 13.64 21.2666 13.64 21.1599C13.734 21.1775 13.814 21.1508 13.88 21.0799C13.7101 20.9003 13.6301 20.687 13.64 20.4399Z"
            fill="#EB6137" />
        <path fill-rule="evenodd" clip-rule="evenodd"
            d="M15.32 27.48C16.2518 27.5441 17.1852 27.5708 18.12 27.56C17.761 27.6133 17.3877 27.6399 17 27.64C16.4216 27.6533 15.8616 27.6001 15.32 27.48Z"
            fill="#E06B40" />
    </g>
    <defs>
        <clipPath id="clip0_1393_57">
            <rect width="32" height="32" fill="white" />
        </clipPath>
    </defs>
</svg>