<svg width="32" height="32" viewBox="0 0 32 32" fill="none" xmlns="http://www.w3.org/2000/svg">
    <path
        d="M22.584 10.0611C22.584 10.0611 19.4596 7.43054 17.9256 6.40169C16.6609 5.55387 15.335 5.51451 14.35 6.65919C13.9355 7.15925 13.74 7.79584 13.8053 8.43306C13.8707 9.07027 14.1916 9.65752 14.6997 10.0695C15.7348 11.0253 22.5834 16.4996 22.5834 16.4996C27.3041 20.42 26.7644 25.0661 25.4974 28.0812C25.5458 28.2066 25.6361 28.1285 25.7888 28.0295C26.3995 27.5492 26.9721 27.0254 27.5017 26.4626C29.0715 24.8603 29.9506 22.7418 29.9604 20.5371C29.9702 18.3325 29.1102 16.2068 27.5547 14.5915C26.0027 12.9777 24.3422 11.4643 22.584 10.0611Z"
        fill="#3860FB" />
    <path opacity="0.5"
        d="M22.584 10.0611C22.584 10.0611 19.4596 7.43054 17.9256 6.40169C16.6609 5.55387 15.335 5.51451 14.35 6.65919C13.9355 7.15925 13.74 7.79584 13.8053 8.43306C13.8707 9.07027 14.1916 9.65752 14.6997 10.0695C15.7348 11.0253 22.5834 16.4996 22.5834 16.4996C27.3041 20.42 26.7644 25.0661 25.4974 28.0812C25.5458 28.2066 25.6361 28.1285 25.7888 28.0295C26.3995 27.5492 26.9721 27.0254 27.5017 26.4626C29.0715 24.8603 29.9506 22.7418 29.9604 20.5371C29.9702 18.3325 29.1102 16.2068 27.5547 14.5915C26.0027 12.9777 24.3422 11.4643 22.584 10.0611Z"
        fill="#3860FB" />
    <g style="mix-blend-mode:screen" opacity="0.86">
        <path
            d="M22.584 10.0611C22.584 10.0611 19.4596 7.43054 17.9256 6.40169C16.6609 5.55387 15.335 5.51451 14.35 6.65919C13.9355 7.15925 13.74 7.79584 13.8053 8.43306C13.8707 9.07027 14.1916 9.65752 14.6997 10.0695C15.7348 11.0253 22.5834 16.4996 22.5834 16.4996C27.3041 20.42 26.7644 25.0661 25.4974 28.0812C25.5458 28.2066 25.6361 28.1285 25.7888 28.0295C26.3995 27.5492 26.9721 27.0254 27.5017 26.4626C29.0715 24.8603 29.9506 22.7418 29.9604 20.5371C29.9702 18.3325 29.1102 16.2068 27.5547 14.5915C26.0027 12.9777 24.3422 11.4643 22.584 10.0611Z"
            fill="#3860FB" />
    </g>
    <path
        d="M9.75008 22.142L14.2214 25.6513C14.4737 25.8609 14.7663 26.0205 15.0826 26.121C15.3989 26.2216 15.7325 26.261 16.0646 26.2371C16.3966 26.2132 16.7205 26.1265 17.0178 25.9818C17.3151 25.8372 17.58 25.6374 17.7972 25.3941C18.0145 25.1507 18.1799 24.8684 18.2842 24.5634C18.3884 24.2583 18.4292 23.9364 18.4044 23.6161C18.3797 23.2958 18.2898 22.9833 18.1399 22.6965C17.9899 22.4098 17.7829 22.1542 17.5306 21.9446L9.32642 15.3712C4.60568 11.4509 5.16634 6.95207 6.4357 3.93916C6.41588 3.83852 6.29116 3.87619 6.14429 3.99088C5.53381 4.47125 4.96143 4.995 4.43199 5.55778C2.88145 7.16953 2.0154 9.28456 2.00558 11.4834C1.99575 13.6822 2.84287 15.8043 4.37896 17.429C6.05818 19.1139 7.85259 20.6885 9.75008 22.142Z"
        fill="#3860FB" />
    <g style="mix-blend-mode:screen" opacity="0.5">
        <path
            d="M9.75008 22.142L14.2214 25.6513C14.4737 25.8609 14.7663 26.0205 15.0826 26.121C15.3989 26.2216 15.7325 26.261 16.0646 26.2371C16.3966 26.2132 16.7205 26.1265 17.0178 25.9818C17.3151 25.8372 17.58 25.6374 17.7972 25.3941C18.0145 25.1507 18.1799 24.8684 18.2842 24.5634C18.3884 24.2583 18.4292 23.9364 18.4044 23.6161C18.3797 23.2958 18.2898 22.9833 18.1399 22.6965C17.9899 22.4098 17.7829 22.1542 17.5306 21.9446L9.32642 15.3712C4.60568 11.4509 5.16634 6.95207 6.4357 3.93916C6.41588 3.83852 6.29116 3.87619 6.14429 3.99088C5.53381 4.47125 4.96143 4.995 4.43199 5.55778C2.88145 7.16953 2.0154 9.28456 2.00558 11.4834C1.99575 13.6822 2.84287 15.8043 4.37896 17.429C6.05818 19.1139 7.85259 20.6885 9.75008 22.142Z"
            fill="#3860FB" />
    </g>
    <path
        d="M6.29452 20.6998C1.14484 16.8317 0.542804 13.6305 0.542222 13.2224C0.542222 13.0177 0.217005 12.989 0.171546 13.242C0.0604582 13.8664 0.00334136 14.4986 0.000784362 15.1322C-0.0120374 17.6801 0.388365 20.3653 1.82906 22.7063C2.59875 24.0249 3.60515 25.2009 4.80137 26.1797C4.80137 26.1797 5.13589 26.4563 5.68315 26.8948C5.70566 26.913 5.7335 26.924 5.76276 26.9261C5.79203 26.9283 5.82128 26.9217 5.84643 26.907C5.87157 26.8924 5.89136 26.8706 5.90306 26.8447C5.91475 26.8187 5.91775 26.7899 5.91163 26.7622C5.16739 23.25 6.04741 21.1288 6.29452 20.6998Z"
        fill="#3860FB" />
    <path
        d="M25.7064 11.236C30.8555 15.104 31.4558 18.2766 31.4791 18.7096C31.4902 18.9136 31.7839 18.9468 31.8288 18.6938C31.9401 18.0694 31.9974 17.4372 32.0002 16.8037C32.0124 14.2551 31.6126 11.5705 30.1719 9.2295C29.4022 7.91099 28.3958 6.73497 27.1996 5.75613C27.1996 5.75613 26.865 5.47952 26.3178 5.04099C26.2953 5.02282 26.2674 5.01188 26.2381 5.00969C26.2089 5.00749 26.1797 5.01417 26.1545 5.02878C26.1293 5.04338 26.1096 5.06519 26.0979 5.09116C26.0862 5.11714 26.0832 5.14598 26.0893 5.17368C26.8335 8.6858 25.9535 10.8071 25.7064 11.236Z"
        fill="#3860FB" />
    <path
        d="M22.2378 2.32617C21.9121 2.09116 21.5851 1.86065 21.2635 1.63857C17.3219 -0.680558 13.4766 -0.329174 10.8929 1.38052C10.8929 1.38052 10.4063 1.56549 9.23953 2.84227C7.70267 4.52892 5.09227 10.4321 10.4115 14.8933L18.1978 21.1159C18.9349 21.7017 19.4028 22.5442 19.4998 23.4607C19.5969 24.3772 19.3153 25.2936 18.7162 26.011C18.1172 26.7284 17.249 27.1889 16.3 27.2927C15.3512 27.3964 14.3981 27.1348 13.6479 26.5649C11.9718 25.4258 8.30992 22.3343 7.39028 21.5533C7.36584 21.5325 7.33642 21.5179 7.30464 21.5107C7.27287 21.5036 7.23974 21.5042 7.20828 21.5125C7.17681 21.5208 7.14799 21.5366 7.12442 21.5583C7.10084 21.5801 7.08324 21.6072 7.07323 21.6371C6.63763 23.0725 6.66153 24.6013 7.14175 26.0234C7.62199 27.4456 8.53614 28.6946 9.76464 29.607C10.091 29.842 10.4174 30.0726 10.7397 30.2946C14.7762 32.67 18.8756 32.3748 21.4587 30.5589C22.0327 30.141 22.5466 29.6513 22.9868 29.1027C24.4292 27.351 25.1015 25.1231 24.8591 22.8982C24.6167 20.6732 23.4791 18.6289 21.6906 17.2046L14.7972 11.6988C12.2463 9.66193 12.1192 7.58399 13.3599 6.13966L13.4946 5.9828C14.0894 5.28834 14.9416 4.84519 15.87 4.74764C16.7983 4.6501 17.7295 4.90586 18.4653 5.46051C20.1392 6.59787 23.7106 9.61526 24.6128 10.3838C24.6371 10.4046 24.6664 10.4192 24.6979 10.4263C24.7296 10.4334 24.7625 10.4328 24.7938 10.4245C24.8251 10.4163 24.8538 10.4006 24.8772 10.379C24.9007 10.3574 24.9181 10.3304 24.9281 10.3006C25.3641 8.86503 25.3406 7.33587 24.8604 5.91344C24.3803 4.49101 23.466 3.24164 22.2373 2.32898L22.2378 2.32617Z"
        fill="#3860FB" />
    <path
        d="M9.75084 22.142L14.2222 25.6513C14.4744 25.8609 14.7671 26.0205 15.0833 26.121C15.3995 26.2216 15.7332 26.261 16.0652 26.2371C16.3973 26.2132 16.7212 26.1265 17.0185 25.9818C17.3158 25.8372 17.5806 25.6374 17.798 25.3941C18.0152 25.1507 18.1807 24.8684 18.2849 24.5634C18.3891 24.2583 18.43 23.9364 18.4052 23.6161C18.3804 23.2958 18.2905 22.9833 18.1406 22.6965C17.9907 22.4098 17.7836 22.1542 17.5313 21.9446L9.32717 15.3712C4.60641 11.4509 5.16708 6.95207 6.43644 3.93916C6.41662 3.83852 6.29189 3.87619 6.14503 3.99088C5.53455 4.47125 4.96217 4.995 4.43273 5.55778C2.88219 7.16953 2.01614 9.28456 2.00631 11.4834C1.99649 13.6822 2.84361 15.8043 4.37969 17.429C6.05892 19.1139 7.85333 20.6885 9.75084 22.142Z"
        fill="#3860FB" />
    <path
        d="M22.584 10.0607C22.584 10.0607 19.4596 7.43006 17.9256 6.4012C16.6609 5.55338 15.335 5.51403 14.35 6.65869C13.9355 7.15876 13.74 7.79536 13.8053 8.43252C13.8707 9.06972 14.1916 9.65705 14.6997 10.0691C15.7348 11.0249 22.5834 16.4991 22.5834 16.4991C27.3041 20.4194 26.7644 25.0656 25.4974 28.0808C25.5365 28.2039 25.667 28.1218 25.7888 28.029C26.3995 27.5487 26.9721 27.025 27.5017 26.4622C29.0715 24.8598 29.9506 22.7413 29.9604 20.5367C29.9702 18.332 29.1102 16.2063 27.5547 14.591C26.0027 12.9772 24.3422 11.4638 22.584 10.0607Z"
        fill="#3860FB" />
    <path
        d="M22.2378 2.32617C21.9121 2.09116 21.5851 1.86065 21.2635 1.63857C17.3219 -0.680558 13.4766 -0.329174 10.8929 1.38052C10.8929 1.38052 10.4063 1.56549 9.23953 2.84227C7.70267 4.52892 5.09227 10.4321 10.4115 14.8933L18.1978 21.1159C18.9349 21.7017 19.4028 22.5442 19.4998 23.4607C19.5969 24.3772 19.3153 25.2936 18.7162 26.011C18.1172 26.7284 17.249 27.1889 16.3 27.2927C15.3512 27.3964 14.3981 27.1348 13.6479 26.5649C11.9718 25.4258 8.30992 22.3343 7.39028 21.5533C7.36584 21.5325 7.33642 21.5179 7.30464 21.5107C7.27287 21.5036 7.23974 21.5042 7.20828 21.5125C7.17681 21.5208 7.14799 21.5366 7.12442 21.5583C7.10084 21.5801 7.08324 21.6072 7.07323 21.6371C6.63763 23.0725 6.66153 24.6013 7.14175 26.0234C7.62199 27.4456 8.53614 28.6946 9.76464 29.607C10.091 29.842 10.4174 30.0726 10.7397 30.2946C14.7762 32.67 18.8756 32.3748 21.4587 30.5589C22.0327 30.141 22.5466 29.6513 22.9868 29.1027C24.4292 27.351 25.1015 25.1231 24.8591 22.8982C24.6167 20.6732 23.4791 18.6289 21.6906 17.2046L14.7972 11.6988C12.2463 9.66193 12.1192 7.58399 13.3599 6.13966L13.4975 5.97887C14.0922 5.28477 14.9442 4.84202 15.8721 4.74489C16.8002 4.64775 17.7308 4.90391 18.4659 5.45882C20.1409 6.5973 23.7112 9.61924 24.6152 10.3833C24.6393 10.4038 24.6683 10.4182 24.6996 10.4252C24.731 10.4322 24.7637 10.4316 24.7947 10.4234C24.8258 10.4152 24.8543 10.3997 24.8775 10.3783C24.9007 10.3568 24.9182 10.3301 24.9281 10.3006C25.3646 8.86488 25.3413 7.33536 24.8612 5.9126C24.3812 4.48983 23.4668 3.24014 22.2378 2.32729V2.32617Z"
        fill="#3860FB" />
</svg>