<svg width="32" height="32" viewBox="0 0 32 32" fill="none" xmlns="http://www.w3.org/2000/svg">
<g clip-path="url(#clip0_3468_243)">
<g clip-path="url(#clip1_3468_243)">
<path d="M32 17.8987V23.5467H25.4133C24.8609 23.5247 24.3196 23.3895 23.8226 23.1503L23.6587 23.0667L22.0587 22.1387C21.5903 21.8969 21.0396 21.8807 20.5602 22.0903L20.4587 22.1387L18.4107 23.3387C18.2296 23.4289 18.1152 23.6137 18.1152 23.816C18.1152 23.9958 18.2056 24.1618 18.3529 24.2599L18.4107 24.2933L22.72 26.8213C23.2049 27.0837 23.7381 27.2429 24.2862 27.2899L24.4693 27.3013H32V31.0667C31.9945 31.5547 31.6193 31.9531 31.1418 31.9962L31.0613 32H0.938667C0.456412 31.9975 0.0583431 31.6331 0.00555602 31.1621L0 31.0827V27.3173H7.50933C8.06024 27.2955 8.60005 27.1603 9.09528 26.921L9.25867 26.8373L23.6587 18.3787C24.1462 18.1186 24.6806 17.9597 25.2298 17.9109L25.4133 17.8987H32ZM32 8.46933V14.1173H24.4907C23.9401 14.1415 23.4008 14.2768 22.905 14.5144L22.7413 14.5973L8.34133 23.0613C7.85379 23.3214 7.31939 23.4803 6.77022 23.5291L6.58667 23.5413H0V17.8933H7.50933C8.05988 17.8691 8.59919 17.7338 9.09504 17.4963L9.25867 17.4133L23.6587 8.94933C24.1462 8.68924 24.6806 8.53038 25.2298 8.48153L25.4133 8.46933H32ZM31.0613 0C31.5466 0 31.947 0.36844 31.9953 0.84269L32 0.922667V4.688H24.4907C23.9398 4.70987 23.4 4.84506 22.9047 5.08438L22.7413 5.168L8.34133 13.6267C7.85465 13.8889 7.31989 14.0481 6.77035 14.0952L6.58667 14.1067H0V8.45867H6.58667C7.13872 8.48296 7.67957 8.61824 8.17713 8.85573L8.34133 8.93867L9.94133 9.872C10.4097 10.1138 10.9604 10.1299 11.4398 9.92036L11.5413 9.872L13.5893 8.66667C13.7674 8.57542 13.8795 8.39213 13.8795 8.192C13.8795 8.01411 13.791 7.84952 13.6462 7.75106L9.28 5.184C8.7942 4.92384 8.26137 4.76494 7.71372 4.71617L7.53067 4.704H0V0.938667C0 0.446176 0.37928 0.0422709 0.861681 0.00311165L0.938667 0H31.0613Z" fill="#77E8B9"/>
</g>
</g>
<defs>
<clipPath id="clip0_3468_243">
<rect width="32" height="32" fill="white"/>
</clipPath>
<clipPath id="clip1_3468_243">
<rect width="32" height="32" fill="white"/>
</clipPath>
</defs>
</svg>
