<svg width="32" height="32" viewBox="0 0 32 32" fill="none" xmlns="http://www.w3.org/2000/svg">
    <path fill-rule="evenodd" clip-rule="evenodd"
        d="M0 0C10.6667 0 21.3333 0 32 0C32 10.6667 32 21.3333 32 32C21.3333 32 10.6667 32 0 32C0 21.3333 0 10.6667 0 0Z"
        fill="#301558" />
    <path fill-rule="evenodd" clip-rule="evenodd"
        d="M10.3593 3.66447C14.1254 3.50669 17.8784 3.66542 21.6185 4.13972C25.112 5.33639 26.0503 7.5539 24.4333 10.7932C21.6814 11.0745 19.0229 10.5993 16.4581 9.36744C15.6762 9.68396 14.8943 10.0014 14.1124 10.3179C17.723 12.39 21.3197 14.6085 24.9025 16.9714C27.4406 22.7637 25.7205 26.7244 19.742 28.8526C14.0913 30.112 9.24356 28.6863 5.19888 24.5754C4.18574 21.9739 4.96769 20.3894 7.54455 19.8229C10.7694 21.6174 14.2097 22.5679 17.8655 22.6744C18.071 21.5575 17.7582 20.607 16.9272 19.8229C12.3787 19.0901 8.78193 16.8726 6.13715 13.1694C5.27103 8.90835 6.67843 5.7394 10.3593 3.66447Z"
        fill="#F2F0F3" />
</svg>