<svg width="32" height="32" viewBox="0 0 33 33" fill="none" xmlns="http://www.w3.org/2000/svg">
    <path fill-rule="evenodd" clip-rule="evenodd"
        d="M0.5 0.5C11.1667 0.5 21.8333 0.5 32.5 0.5C32.5 0.974075 32.5 1.44815 32.5 1.92222C30.1357 1.73616 27.7654 1.61764 25.3889 1.56667C23.4822 1.58386 21.586 1.70238 19.7 1.92222C19.0054 1.68913 18.2943 1.57061 17.5667 1.56667C17.5667 1.27037 17.5667 0.974075 17.5667 0.677778C16.1444 0.677778 14.7222 0.677778 13.3 0.677778C13.3 0.974075 13.3 1.27037 13.3 1.56667C9.03333 1.56667 4.76666 1.56667 0.5 1.56667C0.5 1.21111 0.5 0.855556 0.5 0.5Z"
        fill="#1CB6FA" />
    <path fill-rule="evenodd" clip-rule="evenodd"
        d="M32.5 1.92218C32.5 2.98885 32.5 4.05551 32.5 5.12218C32.263 5.12218 32.0258 5.12218 31.7889 5.12218C31.7889 4.9444 31.7889 4.76662 31.7889 4.58885C21.3592 4.58885 10.9296 4.58885 0.5 4.58885C0.5 3.58143 0.5 2.57404 0.5 1.56662C4.76666 1.56662 9.03333 1.56662 13.3 1.56662C13.3 1.27033 13.3 0.974031 13.3 0.677734C14.7222 0.677734 16.1444 0.677734 17.5667 0.677734C17.5667 0.974031 17.5667 1.27033 17.5667 1.56662C18.2943 1.57056 19.0054 1.68908 19.7 1.92218C21.586 1.70234 23.4822 1.58382 25.3889 1.56662C27.7654 1.6176 30.1357 1.73612 32.5 1.92218Z"
        fill="#1CB7F6" />
    <path fill-rule="evenodd" clip-rule="evenodd"
        d="M0.5 4.58887C10.9296 4.58887 21.3592 4.58887 31.7889 4.58887C31.7889 4.76664 31.7889 4.94442 31.7889 5.1222C32.0258 5.1222 32.263 5.1222 32.5 5.1222C32.5 5.71479 32.5 6.30739 32.5 6.89998C31.3211 7.04771 30.1359 7.10697 28.9444 7.07776C28.9444 6.78145 28.9444 6.48517 28.9444 6.18887C27.0481 6.18887 25.1519 6.18887 23.2555 6.18887C23.2555 6.48517 23.2555 6.78145 23.2555 7.07776C19.4651 6.78151 15.6725 6.72225 11.8778 6.89998C11.8778 6.66295 11.8778 6.4259 11.8778 6.18887C10.9296 6.18887 9.98147 6.18887 9.03333 6.18887C9.03333 6.36665 9.03333 6.54442 9.03333 6.7222C8.55925 6.7222 8.08519 6.7222 7.61111 6.7222C7.61111 6.54442 7.61111 6.36665 7.61111 6.18887C6.66296 6.18887 5.71481 6.18887 4.76666 6.18887C4.76666 6.4259 4.76666 6.66295 4.76666 6.89998C3.81852 6.84073 2.87036 6.78145 1.92222 6.7222C1.92222 6.54442 1.92222 6.36665 1.92222 6.18887C1.44815 6.18887 0.974074 6.18887 0.5 6.18887C0.5 5.65553 0.5 5.1222 0.5 4.58887Z"
        fill="#1DB8F1" />
    <path fill-rule="evenodd" clip-rule="evenodd"
        d="M0.5 6.18896C0.974074 6.18896 1.44815 6.18896 1.92222 6.18896C1.92222 6.36674 1.92222 6.54452 1.92222 6.7223C2.87036 6.78155 3.81852 6.84082 4.76666 6.90008C4.76666 6.66304 4.76666 6.426 4.76666 6.18896C5.71481 6.18896 6.66296 6.18896 7.61111 6.18896C7.61111 6.36674 7.61111 6.54452 7.61111 6.7223C8.08519 6.7223 8.55925 6.7223 9.03333 6.7223C9.03333 6.54452 9.03333 6.36674 9.03333 6.18896C9.98147 6.18896 10.9296 6.18896 11.8778 6.18896C11.8778 6.426 11.8778 6.66304 11.8778 6.90008C15.6725 6.72235 19.4651 6.78161 23.2555 7.07785C23.2555 6.78155 23.2555 6.48527 23.2555 6.18896C25.1519 6.18896 27.0481 6.18896 28.9444 6.18896C28.9444 6.48527 28.9444 6.78155 28.9444 7.07785C30.1359 7.10706 31.3211 7.04781 32.5 6.90008C32.5 7.90749 32.5 8.91489 32.5 9.9223C28.2868 9.97624 24.0794 9.91698 19.8778 9.74452C19.8778 9.50749 19.8778 9.27044 19.8778 9.03341C19.1149 9.25522 18.3445 9.49225 17.5667 9.74452C17.0926 9.74452 16.6185 9.74452 16.1444 9.74452C16.3966 9.57544 16.6929 9.51617 17.0333 9.56674C17.0333 9.38897 17.0333 9.21119 17.0333 9.03341C16.4872 8.97698 15.9539 9.03624 15.4333 9.21119C15.5448 9.37417 15.6041 9.55195 15.6111 9.74452C15.5518 9.74452 15.4926 9.74452 15.4333 9.74452C14.7496 9.68584 14.1867 9.92287 13.7444 10.4556C13.6072 10.4299 13.4887 10.3706 13.3889 10.2779C13.2712 9.86671 13.1823 9.4519 13.1222 9.03341C12.8852 9.03341 12.6481 9.03341 12.4111 9.03341C12.4226 9.56168 12.2744 10.0358 11.9667 10.4556C11.8808 10.2871 11.8512 10.1093 11.8778 9.9223C10.6333 9.9223 9.38888 9.9223 8.14444 9.9223C8.14444 9.626 8.14444 9.32971 8.14444 9.03341C7.96666 9.03341 7.78888 9.03341 7.61111 9.03341C7.61111 9.32971 7.61111 9.626 7.61111 9.9223C5.24074 9.9223 2.87036 9.9223 0.5 9.9223C0.5 8.67785 0.5 7.43341 0.5 6.18896Z"
        fill="#20BAEB" />
    <path fill-rule="evenodd" clip-rule="evenodd"
        d="M16.1442 9.74445C15.9664 9.74445 15.7887 9.74445 15.6109 9.74445C15.6039 9.55188 15.5446 9.3741 15.4331 9.21112C15.9537 9.03616 16.487 8.97691 17.0331 9.03334C17.0331 9.21112 17.0331 9.38889 17.0331 9.56667C16.6927 9.51609 16.3964 9.57536 16.1442 9.74445Z"
        fill="#26BCDA" />
    <path fill-rule="evenodd" clip-rule="evenodd"
        d="M15.4333 9.74431C15.3148 9.86284 15.1963 9.98135 15.0778 10.0999C14.3908 10.4923 13.976 11.0849 13.8333 11.8776C13.7741 11.8776 13.7148 11.8776 13.6555 11.8776C13.5963 11.8776 13.537 11.8776 13.4778 11.8776C13.3593 12.7988 13.2408 13.7469 13.1222 14.7221C12.9454 13.7813 12.8861 12.8331 12.9444 11.8776C12.7074 11.8776 12.4704 11.8776 12.2333 11.8776C12.2905 12.8601 12.2312 13.8082 12.0555 14.7221C11.881 14.1066 11.8218 13.4548 11.8778 12.7665C11.8778 12.174 11.8778 11.5813 11.8778 10.9888C10.9296 10.9888 9.98147 10.9888 9.03333 10.9888C9.03333 10.811 9.03333 10.6332 9.03333 10.4554C6.18888 10.4554 3.34444 10.4554 0.5 10.4554C0.5 10.2776 0.5 10.0999 0.5 9.92209C2.87036 9.92209 5.24074 9.92209 7.61111 9.92209C7.61111 9.62579 7.61111 9.32951 7.61111 9.0332C7.78888 9.0332 7.96666 9.0332 8.14444 9.0332C8.14444 9.32951 8.14444 9.62579 8.14444 9.92209C9.38888 9.92209 10.6333 9.92209 11.8778 9.92209C11.8512 10.1091 11.8808 10.2869 11.9667 10.4554C12.2744 10.0356 12.4226 9.56147 12.4111 9.0332C12.6481 9.0332 12.8852 9.0332 13.1222 9.0332C13.1823 9.45169 13.2712 9.8665 13.3889 10.2776C13.4887 10.3704 13.6072 10.4297 13.7444 10.4554C14.1867 9.92266 14.7496 9.68563 15.4333 9.74431Z"
        fill="#27BAE5" />
    <path fill-rule="evenodd" clip-rule="evenodd"
        d="M15.4332 9.74463C15.4924 9.74463 15.5517 9.74463 15.611 9.74463C15.7887 9.74463 15.9665 9.74463 16.1443 9.74463C16.6184 9.74463 17.0924 9.74463 17.5665 9.74463C17.5665 9.80388 17.5665 9.86315 17.5665 9.92241C16.7305 9.91124 15.9008 9.9705 15.0776 10.1002C15.1962 9.98166 15.3147 9.86315 15.4332 9.74463Z"
        fill="#BDF2FB" />
    <path fill-rule="evenodd" clip-rule="evenodd"
        d="M0.5 10.4556C3.34444 10.4556 6.18889 10.4556 9.03333 10.4556C9.03333 10.6333 9.03333 10.8111 9.03333 10.9889C9.98147 10.9889 10.9296 10.9889 11.8778 10.9889C11.8778 11.5815 11.8778 12.1741 11.8778 12.7667C8.08519 12.7667 4.29258 12.7667 0.5 12.7667C0.5 11.9963 0.5 11.2259 0.5 10.4556Z"
        fill="#21BCE3" />
    <path fill-rule="evenodd" clip-rule="evenodd"
        d="M32.5002 9.92209C32.5002 10.8702 32.5002 11.8184 32.5002 12.7665C28.3233 12.8772 24.1752 12.7587 20.0558 12.411C19.9504 11.8242 19.8318 11.2317 19.7002 10.6332C19.4823 10.4798 19.2451 10.4798 18.9891 10.6332C18.7287 10.4133 18.4323 10.2356 18.1002 10.0999C17.9418 9.99146 17.764 9.93221 17.5669 9.92209C17.5669 9.86284 17.5669 9.80357 17.5669 9.74431C18.3448 9.49205 19.1152 9.25502 19.878 9.0332C19.878 9.27023 19.878 9.50728 19.878 9.74431C24.0796 9.91678 28.2871 9.97603 32.5002 9.92209Z"
        fill="#22BCE3" />
    <path fill-rule="evenodd" clip-rule="evenodd"
        d="M15.0779 10.1001C14.8456 10.3315 14.8456 10.5685 15.0779 10.8112C14.6517 11.18 14.2369 11.5356 13.8335 11.8779C13.9761 11.0851 14.3909 10.4925 15.0779 10.1001Z"
        fill="#D6FAFB" />
    <path fill-rule="evenodd" clip-rule="evenodd"
        d="M17.5666 9.92223C17.7638 9.93234 17.9415 9.99159 18.0999 10.1C17.9041 10.383 18.0226 10.5312 18.4555 10.5444C19.0317 11.2368 19.2688 12.0368 19.1666 12.9444C18.8646 12.9729 18.5682 12.9433 18.2777 12.8556C18.0585 12.5593 17.8214 12.2926 17.5666 12.0556C17.5666 11.9963 17.5666 11.937 17.5666 11.8778C17.4989 11.6234 17.3211 11.4752 17.0333 11.4333C16.5712 11.2966 16.1268 11.3263 15.6999 11.5222C15.6112 12.3497 15.5816 13.1794 15.611 14.0111C15.611 14.2481 15.611 14.4852 15.611 14.7222C15.4333 14.7222 15.2555 14.7222 15.0777 14.7222C15.1056 14.4781 15.0759 14.241 14.9888 14.0111C14.6558 13.9064 14.3595 14.0249 14.0999 14.3667C14.0319 14.2678 13.943 14.2086 13.8333 14.1889C13.6582 13.4539 13.5989 12.6835 13.6555 11.8778C13.7147 11.8778 13.774 11.8778 13.8333 11.8778C14.2367 11.5355 14.6515 11.18 15.0777 10.8111C14.8454 10.5684 14.8454 10.3314 15.0777 10.1C15.9009 9.97031 16.7305 9.91106 17.5666 9.92223Z"
        fill="#F8FBF7" />
    <path fill-rule="evenodd" clip-rule="evenodd"
        d="M17.389 11.8779C17.4482 11.8779 17.5075 11.8779 17.5667 11.8779C17.5667 11.9372 17.5667 11.9965 17.5667 12.0557C17.5667 12.1742 17.5667 12.2927 17.5667 12.4113C17.0918 12.7397 16.914 13.2138 17.0334 13.8335C16.7411 13.8714 16.4745 13.8122 16.2334 13.6557C16.2619 13.0614 16.3508 12.4688 16.5001 11.8779C16.7964 11.8779 17.0927 11.8779 17.389 11.8779Z"
        fill="#28BCE4" />
    <path fill-rule="evenodd" clip-rule="evenodd"
        d="M20.0554 12.4114C20.3029 12.9804 20.4213 13.573 20.411 14.1892C20.174 14.1892 19.9369 14.1892 19.6999 14.1892C19.6999 13.9521 19.6999 13.7151 19.6999 13.4781C19.8346 12.4234 19.5975 11.4753 18.9888 10.6336C19.2448 10.4802 19.4819 10.4802 19.6999 10.6336C19.8314 11.2321 19.95 11.8246 20.0554 12.4114Z"
        fill="#33BCCE" />
    <path fill-rule="evenodd" clip-rule="evenodd"
        d="M0.5 12.7666C4.29258 12.7666 8.08519 12.7666 11.8778 12.7666C11.8218 13.4549 11.881 14.1067 12.0555 14.7222C11.9401 15.0662 11.8808 15.4217 11.8778 15.7888C10.9296 15.7888 9.98147 15.7888 9.03333 15.7888C9.03333 15.4333 9.03333 15.0777 9.03333 14.7222C8.08519 14.7222 7.13703 14.7222 6.18889 14.7222C6.18889 15.0777 6.18889 15.4333 6.18889 15.7888C4.29258 15.7888 2.3963 15.7888 0.5 15.7888C0.5 14.7814 0.5 13.774 0.5 12.7666Z"
        fill="#24BEDD" />
    <path fill-rule="evenodd" clip-rule="evenodd"
        d="M20.0558 12.4111C24.1752 12.7588 28.3233 12.8774 32.5002 12.7667C32.5002 13.4185 32.5002 14.0704 32.5002 14.7222C32.2632 14.7222 32.0261 14.7222 31.7891 14.7222C31.7891 15.0778 31.7891 15.4334 31.7891 15.7889C30.841 15.7889 29.8928 15.7889 28.9447 15.7889C28.9447 15.4334 28.9447 15.0778 28.9447 14.7222C27.9966 14.7222 27.0483 14.7222 26.1002 14.7222C26.1002 15.0778 26.1002 15.4334 26.1002 15.7889C24.2039 15.7889 22.3077 15.7889 20.4113 15.7889C20.4113 15.6111 20.4113 15.4334 20.4113 15.2556C20.2336 15.2556 20.0558 15.2556 19.878 15.2556C19.878 15.0778 19.878 14.9 19.878 14.7222C19.576 14.6938 19.2796 14.7234 18.9891 14.8111C19.2323 15.0494 19.4693 15.2864 19.7002 15.5222C19.6359 15.74 19.547 15.9474 19.4336 16.1445C19.1109 15.8058 18.7553 15.5095 18.3669 15.2556C18.2811 15.087 18.2514 14.9093 18.278 14.7222C18.0153 14.7688 17.7782 14.7096 17.5669 14.5445C17.9907 14.1494 18.4648 14.0901 18.9891 14.3667C18.9891 14.0704 18.9891 13.7741 18.9891 13.4778C19.2261 13.4778 19.4632 13.4778 19.7002 13.4778C19.7002 13.7148 19.7002 13.9519 19.7002 14.1889C19.9372 14.1889 20.1744 14.1889 20.4113 14.1889C20.4216 13.5727 20.3032 12.9801 20.0558 12.4111Z"
        fill="#25BEDD" />
    <path fill-rule="evenodd" clip-rule="evenodd"
        d="M18.1002 10.1001C18.4323 10.2358 18.7287 10.4136 18.9891 10.6334C19.5978 11.4751 19.835 12.4232 19.7002 13.4779C19.4632 13.4779 19.2261 13.4779 18.9891 13.4779C18.5744 13.4779 18.1595 13.4779 17.7447 13.4779C17.7971 13.0805 17.7378 12.7249 17.5669 12.4112C17.5669 12.2927 17.5669 12.1742 17.5669 12.0557C17.8217 12.2927 18.0588 12.5594 18.278 12.8557C18.5685 12.9434 18.8648 12.973 19.1669 12.9445C19.2691 12.0369 19.032 11.2369 18.4558 10.5445C18.0229 10.5312 17.9044 10.3831 18.1002 10.1001Z"
        fill="#DBFBFD" />
    <path fill-rule="evenodd" clip-rule="evenodd"
        d="M17.5667 11.8778C17.5074 11.8778 17.4482 11.8778 17.3889 11.8778C16.9391 11.651 16.465 11.651 15.9667 11.8778C15.6876 12.8806 15.8061 13.8288 16.3222 14.7223C16.0069 14.5677 15.7699 14.3306 15.6111 14.0112C15.5816 13.1794 15.6113 12.3498 15.7 11.5223C16.1268 11.3263 16.5713 11.2967 17.0333 11.4334C17.3212 11.4753 17.499 11.6234 17.5667 11.8778Z"
        fill="#CFF7FB" />
    <path fill-rule="evenodd" clip-rule="evenodd"
        d="M13.4778 11.8779C13.4483 12.8279 13.4779 13.7761 13.5667 14.7224C13.887 15.589 14.124 16.4778 14.2778 17.389C14.3514 17.4704 14.4403 17.5296 14.5444 17.5668C15.0418 16.8677 15.2788 16.9862 15.2555 17.9224C14.5651 17.9359 13.9133 17.8174 13.3 17.5668C13.232 16.8765 12.9061 16.3431 12.3222 15.9668C12.3492 16.4907 12.3788 17.0241 12.4111 17.5668C12.2333 17.5668 12.0555 17.5668 11.8778 17.5668C10.9296 17.5668 9.98147 17.5668 9.03333 17.5668C9.03333 17.0927 9.03333 16.6187 9.03333 16.1446C8.55925 16.1446 8.08519 16.1446 7.61111 16.1446C7.61111 16.3224 7.61111 16.5002 7.61111 16.6779C7.13703 16.6779 6.66296 16.6779 6.18888 16.6779C6.18888 16.9742 6.18888 17.2705 6.18888 17.5668C4.29258 17.6261 2.3963 17.6853 0.5 17.7446C0.5 17.0927 0.5 16.4409 0.5 15.789C2.3963 15.789 4.29258 15.789 6.18888 15.789C6.18888 15.4335 6.18888 15.0779 6.18888 14.7224C7.13703 14.7224 8.08519 14.7224 9.03333 14.7224C9.03333 15.0779 9.03333 15.4335 9.03333 15.789C9.98147 15.789 10.9296 15.789 11.8778 15.789C11.8808 15.422 11.9401 15.0664 12.0555 14.7224C12.2312 13.8085 12.2905 12.8604 12.2333 11.8779C12.4704 11.8779 12.7074 11.8779 12.9444 11.8779C12.8861 12.8334 12.9454 13.7816 13.1222 14.7224C13.2408 13.7472 13.3593 12.799 13.4778 11.8779Z"
        fill="#25BFD8" />
    <path fill-rule="evenodd" clip-rule="evenodd"
        d="M15.6113 14.011C15.77 14.3304 16.0071 14.5675 16.3224 14.7221C16.8978 15.2286 17.4311 15.7619 17.9224 16.3221C17.2368 16.082 16.6739 15.6671 16.2335 15.0776C16.1446 15.1665 16.0557 15.2554 15.9668 15.3443C16.4064 15.664 16.7027 16.0788 16.8557 16.5887C15.95 16.8479 16.0093 16.9961 17.0335 17.0332C17.0335 17.211 17.0335 17.3887 17.0335 17.5665C17.2705 17.5665 17.5076 17.5665 17.7446 17.5665C17.7215 18.3431 17.7808 19.1135 17.9224 19.8776C17.8975 20.1496 17.779 20.3274 17.5668 20.411C17.596 19.9333 17.5664 19.4591 17.4779 18.9887C16.5356 17.8684 15.5282 16.8017 14.4557 15.7887C14.1495 15.2947 13.9421 14.7614 13.8335 14.1887C13.9433 14.2084 14.0321 14.2677 14.1002 14.3665C14.3597 14.0248 14.656 13.9062 14.9891 14.011C15.0762 14.2409 15.1058 14.4779 15.0779 14.7221C15.2557 14.7221 15.4335 14.7221 15.6113 14.7221C15.6113 14.485 15.6113 14.248 15.6113 14.011Z"
        fill="#EEFBFB" />
    <path fill-rule="evenodd" clip-rule="evenodd"
        d="M17.389 11.8776C17.0927 11.8776 16.7964 11.8776 16.5001 11.8776C16.3508 12.4685 16.2619 13.0611 16.2334 13.6554C16.4745 13.8119 16.7412 13.8711 17.0334 13.8332C16.914 13.2134 17.0918 12.7394 17.5667 12.4109C17.7377 12.7247 17.7969 13.0802 17.7445 13.4776C18.1593 13.4776 18.5742 13.4776 18.989 13.4776C18.989 13.7739 18.989 14.0702 18.989 14.3665C18.4647 14.09 17.9905 14.1492 17.5667 14.5443C17.7781 14.7094 18.0151 14.7686 18.2779 14.7221C18.2513 14.9091 18.2809 15.0869 18.3667 15.2554C18.7552 15.5093 19.1107 15.8056 19.4334 16.1443C19.5468 15.9472 19.6357 15.7398 19.7001 15.5221C19.4691 15.2863 19.2322 15.0492 18.989 14.8109C19.2795 14.7232 19.5758 14.6936 19.8779 14.7221C19.8779 14.8998 19.8779 15.0776 19.8779 15.2554C20.0556 15.2554 20.2334 15.2554 20.4112 15.2554C20.4112 15.4332 20.4112 15.6109 20.4112 15.7887C22.3075 15.7887 24.2037 15.7887 26.1001 15.7887C26.1001 15.4332 26.1001 15.0776 26.1001 14.7221C27.0482 14.7221 27.9964 14.7221 28.9445 14.7221C28.9445 15.0776 28.9445 15.4332 28.9445 15.7887C29.8926 15.7887 30.8409 15.7887 31.789 15.7887C31.789 15.4332 31.789 15.0776 31.789 14.7221C32.0259 14.7221 32.2631 14.7221 32.5001 14.7221C32.5001 15.7295 32.5001 16.7369 32.5001 17.7443C28.4704 17.7443 24.4409 17.7443 20.4112 17.7443C20.4533 17.9738 20.3941 18.1516 20.2334 18.2776C20.1954 17.9854 20.2547 17.7187 20.4112 17.4776C20.2222 17.2664 19.9851 17.1775 19.7001 17.2109C19.7001 17.685 19.7001 18.1591 19.7001 18.6332C19.3228 17.7026 18.7301 16.9322 17.9223 16.3221C17.431 15.7619 16.8977 15.2286 16.3223 14.7221C15.8062 13.8286 15.6877 12.8804 15.9667 11.8776C16.4651 11.6508 16.9391 11.6508 17.389 11.8776Z"
        fill="#2ABFD5" />
    <path fill-rule="evenodd" clip-rule="evenodd"
        d="M17.9224 16.3223C18.7302 16.9324 19.3229 17.7028 19.7001 18.6334C19.7001 18.6926 19.7001 18.752 19.7001 18.8112C19.7561 19.4993 19.6969 20.1512 19.5224 20.7667C19.5517 20.1712 19.522 19.5786 19.4335 18.9889C19.3005 18.5888 19.0338 18.3517 18.6335 18.2778C18.6623 17.9174 18.6326 17.5619 18.5446 17.2112C18.2242 16.9819 18.0168 16.6857 17.9224 16.3223Z"
        fill="#D3F9FC" />
    <path fill-rule="evenodd" clip-rule="evenodd"
        d="M11.8778 17.5668C11.8778 17.7445 11.8778 17.9223 11.8778 18.1001C12.2333 18.1001 12.5889 18.1001 12.9444 18.1001C12.9799 18.6805 12.7133 19.0361 12.1444 19.1668C9.45132 19.0409 6.75502 18.9223 4.05555 18.8112C3.34871 18.9292 2.6376 18.9884 1.92222 18.989C1.92222 19.226 1.92222 19.4631 1.92222 19.7001C1.44815 19.7001 0.974074 19.7001 0.5 19.7001C0.5 19.0482 0.5 18.3964 0.5 17.7445C2.3963 17.6853 4.29258 17.626 6.18889 17.5668C6.18889 17.2705 6.18889 16.9742 6.18889 16.6779C6.66296 16.6779 7.13703 16.6779 7.61111 16.6779C7.61111 16.5001 7.61111 16.3223 7.61111 16.1445C8.08519 16.1445 8.55925 16.1445 9.03333 16.1445C9.03333 16.6186 9.03333 17.0927 9.03333 17.5668C9.98147 17.5668 10.9296 17.5668 11.8778 17.5668Z"
        fill="#28C0D2" />
    <path fill-rule="evenodd" clip-rule="evenodd"
        d="M32.4999 17.7446C32.4999 18.1594 32.4999 18.5743 32.4999 18.9891C28.4699 19.0188 24.4402 18.9891 20.411 18.9002C20.2622 18.7205 20.203 18.513 20.2332 18.278C20.394 18.1519 20.4532 17.9741 20.411 17.7446C24.4407 17.7446 28.4702 17.7446 32.4999 17.7446Z"
        fill="#28C0D2" />
    <path fill-rule="evenodd" clip-rule="evenodd"
        d="M17.9224 16.3221C18.0168 16.6855 18.2242 16.9818 18.5446 17.211C18.6326 17.5617 18.6623 17.9172 18.6335 18.2776C18.5305 19.1208 18.3527 19.9505 18.1001 20.7665C17.9371 20.878 17.7594 20.9374 17.5668 20.9443C17.5668 20.7665 17.5668 20.5887 17.5668 20.411C17.779 20.3274 17.8975 20.1496 17.9224 19.8776C17.7808 19.1135 17.7215 18.3431 17.7446 17.5665C17.5075 17.5665 17.2705 17.5665 17.0335 17.5665C17.0335 17.3887 17.0335 17.211 17.0335 17.0332C16.0093 16.9961 15.95 16.8479 16.8557 16.5887C16.7027 16.0788 16.4064 15.664 15.9668 15.3443C16.0557 15.2554 16.1446 15.1665 16.2335 15.0776C16.6738 15.6671 17.2368 16.082 17.9224 16.3221Z"
        fill="#FBFBFA" />
    <path fill-rule="evenodd" clip-rule="evenodd"
        d="M13.4778 11.8779C13.537 11.8779 13.5963 11.8779 13.6555 11.8779C13.599 12.6837 13.6582 13.454 13.8333 14.189C13.9419 14.7616 14.1493 15.295 14.4555 15.789C15.528 16.802 16.5354 17.8687 17.4778 18.989C17.5662 19.4594 17.5958 19.9336 17.5667 20.4113C17.5667 20.589 17.5667 20.7668 17.5667 20.9446C17.3889 21.0038 17.2704 21.1224 17.2111 21.3002C17.0926 21.3002 16.9741 21.3002 16.8555 21.3002C16.4032 21.3706 16.018 21.252 15.7 20.9446C15.4869 20.3711 15.398 19.7786 15.4333 19.1668C14.7815 19.1668 14.1296 19.1668 13.4778 19.1668C13.4778 19.5816 13.4778 19.9965 13.4778 20.4113C13.3592 20.4113 13.2407 20.4113 13.1222 20.4113C13.1317 19.956 12.9539 19.6004 12.5889 19.3446C12.3025 19.858 12.0654 20.3914 11.8778 20.9446C10.9296 20.9446 9.98147 20.9446 9.03333 20.9446C9.03333 20.7668 9.03333 20.589 9.03333 20.4113C7.13703 20.4113 5.24074 20.4113 3.34444 20.4113C3.34444 20.589 3.34444 20.7668 3.34444 20.9446C2.3963 20.9446 1.44815 20.9446 0.5 20.9446C0.5 20.5298 0.5 20.1149 0.5 19.7002C0.974074 19.7002 1.44815 19.7002 1.92222 19.7002C1.92222 19.4632 1.92222 19.226 1.92222 18.989C2.6376 18.9885 3.34871 18.9293 4.05555 18.8113C6.75502 18.9224 9.45132 19.041 12.1444 19.1668C12.7133 19.0362 12.9799 18.6806 12.9444 18.1002C12.5889 18.1002 12.2333 18.1002 11.8778 18.1002C11.8778 17.9224 11.8778 17.7446 11.8778 17.5668C12.0555 17.5668 12.2333 17.5668 12.4111 17.5668C12.3788 17.0241 12.3492 16.4907 12.3222 15.9668C12.9061 16.3431 13.232 16.8765 13.3 17.5668C13.9133 17.8174 14.5651 17.9359 15.2555 17.9224C15.2788 16.9862 15.0418 16.8677 14.5444 17.5668C14.4403 17.5296 14.3514 17.4704 14.2778 17.389C14.124 16.4778 13.887 15.589 13.5667 14.7224C13.4779 13.7761 13.4483 12.8279 13.4778 11.8779Z"
        fill="#2FC1CE" />
    <path fill-rule="evenodd" clip-rule="evenodd"
        d="M20.2335 18.2776C20.2033 18.5127 20.2625 18.7201 20.4113 18.8999C24.4405 18.9887 28.4701 19.0184 32.5002 18.9887C32.5002 19.4629 32.5002 19.9368 32.5002 20.411C30.3669 20.411 28.2335 20.411 26.1002 20.411C26.1002 20.5887 26.1002 20.7665 26.1002 20.9443C25.1521 20.9443 24.2038 20.9443 23.2557 20.9443C23.2557 20.7665 23.2557 20.5887 23.2557 20.411C22.1299 20.411 21.0038 20.411 19.878 20.411C19.9331 19.8398 19.8739 19.3064 19.7002 18.811C19.7002 18.7518 19.7002 18.6924 19.7002 18.6332C19.7002 18.1591 19.7002 17.685 19.7002 17.211C19.9852 17.1775 20.2223 17.2664 20.4113 17.4776C20.2549 17.7187 20.1955 17.9854 20.2335 18.2776Z"
        fill="#2AC2D0" />
    <path fill-rule="evenodd" clip-rule="evenodd"
        d="M16.8553 21.2998C16.2893 21.5281 15.7264 21.4689 15.1664 21.1221C15.0778 20.5324 15.0482 19.9398 15.0775 19.3443C14.6466 19.2895 14.2318 19.3489 13.8331 19.5221C13.6534 20.1681 13.6534 20.82 13.8331 21.4776C13.6129 21.1729 13.4944 20.8173 13.4775 20.4109C13.4775 19.9962 13.4775 19.5813 13.4775 19.1665C14.1294 19.1665 14.7812 19.1665 15.4331 19.1665C15.3977 19.7782 15.4866 20.3708 15.6998 20.9443C16.0178 21.2517 16.403 21.3702 16.8553 21.2998Z"
        fill="#D1FAFB" />
    <path fill-rule="evenodd" clip-rule="evenodd"
        d="M18.6334 18.2778C19.0338 18.3517 19.3005 18.5888 19.4334 18.9889C19.522 19.5786 19.5517 20.1712 19.5223 20.7667C19.5374 21.3265 19.3597 21.8007 18.989 22.1889C18.8464 21.9308 18.7575 21.6346 18.7223 21.3001C17.9919 21.8803 17.1919 22.3545 16.3223 22.7223C16.1035 22.5177 16.1035 22.3104 16.3223 22.1001C16.7094 21.8864 17.1243 21.7975 17.5668 21.8334C17.605 21.5349 17.4864 21.3571 17.2112 21.3001C17.2705 21.1223 17.389 21.0037 17.5668 20.9445C17.7593 20.9376 17.9371 20.8782 18.1001 20.7667C18.3526 19.9507 18.5305 19.121 18.6334 18.2778Z"
        fill="#F3FCF7" />
    <path fill-rule="evenodd" clip-rule="evenodd"
        d="M13.1222 20.4109C12.9573 20.9361 12.8091 21.4694 12.6778 22.0109C12.5164 22.3556 12.2497 22.5334 11.8778 22.5442C11.8778 22.7812 11.8778 23.0184 11.8778 23.2554C10.9296 23.2554 9.98147 23.2554 9.03333 23.2554C9.03333 23.0184 9.03333 22.7812 9.03333 22.5442C7.13335 22.4852 5.23705 22.5444 3.34444 22.722C3.81852 22.8406 4.29258 22.959 4.76666 23.0776C3.34937 23.255 1.92714 23.3142 0.5 23.2554C0.5 22.485 0.5 21.7146 0.5 20.9442C1.44815 20.9442 2.3963 20.9442 3.34444 20.9442C3.34444 20.7665 3.34444 20.5887 3.34444 20.4109C5.24074 20.4109 7.13703 20.4109 9.03333 20.4109C9.03333 20.5887 9.03333 20.7665 9.03333 20.9442C9.98147 20.9442 10.9296 20.9442 11.8778 20.9442C12.0654 20.391 12.3025 19.8577 12.5889 19.3442C12.9539 19.6001 13.1317 19.9556 13.1222 20.4109Z"
        fill="#2BC3CB" />
    <path fill-rule="evenodd" clip-rule="evenodd"
        d="M19.7 18.811C19.8737 19.3065 19.9329 19.8398 19.8777 20.411C21.0036 20.411 22.1297 20.411 23.2555 20.411C23.2555 20.5888 23.2555 20.7666 23.2555 20.9444C24.2036 20.9444 25.1519 20.9444 26.1 20.9444C26.1 20.7666 26.1 20.5888 26.1 20.411C28.2333 20.411 30.3666 20.411 32.5 20.411C32.5 21.1221 32.5 21.8333 32.5 22.5444C30.3666 22.5444 28.2333 22.5444 26.1 22.5444C26.1 22.7813 26.1 23.0185 26.1 23.2555C24.6728 23.3143 23.2505 23.2551 21.8333 23.0777C22.3074 22.9591 22.7814 22.8407 23.2555 22.7221C22.3147 22.5453 21.3666 22.4861 20.4111 22.5444C20.4111 22.7813 20.4111 23.0185 20.4111 23.2555C20.0932 23.3061 19.7969 23.2469 19.5222 23.0777C20.0694 22.6704 20.1583 22.1963 19.7889 21.6555C19.5883 21.9835 19.4994 22.339 19.5222 22.7221C19.2258 22.7221 18.9297 22.7221 18.6333 22.7221C18.6333 22.6629 18.6333 22.6036 18.6333 22.5444C18.8111 22.4852 18.9297 22.3666 18.9889 22.1888C19.3595 21.8005 19.5373 21.3264 19.5222 20.7666C19.6968 20.1511 19.756 19.4992 19.7 18.811Z"
        fill="#2CC3CA" />
    <path fill-rule="evenodd" clip-rule="evenodd"
        d="M16.8557 21.3C16.9742 21.3 17.0927 21.3 17.2113 21.3C17.4865 21.357 17.605 21.5348 17.5668 21.8333C17.1243 21.7974 16.7095 21.8863 16.3224 22.1C16.1035 22.3103 16.1035 22.5176 16.3224 22.7222C17.192 22.3544 17.992 21.8802 18.7224 21.3C18.7576 21.6345 18.8465 21.9307 18.989 22.1889C18.9298 22.3666 18.8113 22.4852 18.6335 22.5444C17.8755 22.6337 17.1348 22.8114 16.4113 23.0777C15.8613 22.8882 15.2983 22.7698 14.7224 22.7222C14.2997 22.415 14.0034 22.0002 13.8335 21.4777C13.6538 20.8201 13.6538 20.1682 13.8335 19.5222C14.2322 19.349 14.647 19.2897 15.0779 19.3444C15.0486 19.94 15.0782 20.5325 15.1668 21.1222C15.7268 21.469 16.2897 21.5282 16.8557 21.3Z"
        fill="#F9F9FA" />
    <path fill-rule="evenodd" clip-rule="evenodd"
        d="M13.1222 20.4111C13.2407 20.4111 13.3592 20.4111 13.4778 20.4111C13.4947 20.8175 13.6132 21.1731 13.8333 21.4778C14.0033 22.0003 14.2996 22.415 14.7222 22.7222C15.2187 23.1525 15.8113 23.3302 16.5 23.2556C17.2764 23.2922 17.9875 23.1144 18.6333 22.7222C18.9297 22.7222 19.2259 22.7222 19.5222 22.7222C19.4995 22.3391 19.5883 21.9836 19.7889 21.6556C20.1583 22.1964 20.0694 22.6705 19.5222 23.0778C19.7969 23.247 20.0932 23.3062 20.4111 23.2556C20.4111 23.0186 20.4111 22.7814 20.4111 22.5445C21.3667 22.4862 22.3147 22.5454 23.2555 22.7222C22.7814 22.8408 22.3075 22.9592 21.8333 23.0778C23.2506 23.2552 24.6728 23.3144 26.1 23.2556C26.1 23.0186 26.1 22.7814 26.1 22.5445C28.2333 22.5445 30.3666 22.5445 32.5 22.5445C32.5 23.5519 32.5 24.5592 32.5 25.5667C23.2555 25.5667 14.0111 25.5667 4.76666 25.5667C4.64814 26.2778 4.52963 26.2778 4.41111 25.5667C3.10741 25.5667 1.8037 25.5667 0.5 25.5667C0.5 24.7964 0.5 24.0259 0.5 23.2556C1.92714 23.3144 3.34937 23.2552 4.76666 23.0778C4.29258 22.9592 3.81852 22.8408 3.34444 22.7222C5.23705 22.5446 7.13335 22.4854 9.03333 22.5445C9.03333 22.7814 9.03333 23.0186 9.03333 23.2556C9.98147 23.2556 10.9296 23.2556 11.8778 23.2556C11.8778 23.0186 11.8778 22.7814 11.8778 22.5445C12.2497 22.5336 12.5164 22.3558 12.6778 22.0111C12.8091 21.4696 12.9573 20.9363 13.1222 20.4111Z"
        fill="#2DC4C4" />
    <path fill-rule="evenodd" clip-rule="evenodd"
        d="M18.6333 22.5444C18.6333 22.6036 18.6333 22.663 18.6333 22.7222C17.9874 23.1144 17.2763 23.2922 16.4999 23.2555C15.8112 23.3302 15.2186 23.1524 14.7222 22.7222C15.2981 22.7699 15.8611 22.8883 16.4111 23.0778C17.1346 22.8115 17.8753 22.6337 18.6333 22.5444Z"
        fill="#DCF9FB" />
    <path fill-rule="evenodd" clip-rule="evenodd"
        d="M0.5 25.5669C1.8037 25.5669 3.10741 25.5669 4.41111 25.5669C4.52963 26.278 4.64814 26.278 4.76666 25.5669C14.0111 25.5669 23.2555 25.5669 32.5 25.5669C32.5 26.041 32.5 26.515 32.5 26.9891C21.8333 26.9891 11.1667 26.9891 0.5 26.9891C0.5 26.515 0.5 26.041 0.5 25.5669Z"
        fill="#2EC4C1" />
    <path fill-rule="evenodd" clip-rule="evenodd"
        d="M0.5 26.9888C11.1667 26.9888 21.8333 26.9888 32.5 26.9888C32.5 27.6999 32.5 28.411 32.5 29.1221C21.8333 29.1221 11.1667 29.1221 0.5 29.1221C0.5 28.411 0.5 27.6999 0.5 26.9888Z"
        fill="#2FC6BF" />
    <path fill-rule="evenodd" clip-rule="evenodd"
        d="M0.5 29.1221C11.1667 29.1221 21.8333 29.1221 32.5 29.1221C32.5 29.4184 32.5 29.7146 32.5 30.011C21.8244 29.9036 11.1578 30.0222 0.5 30.3665C0.5 29.9518 0.5 29.5368 0.5 29.1221Z"
        fill="#30C8BB" />
    <path fill-rule="evenodd" clip-rule="evenodd"
        d="M32.5 30.0109C32.5 30.8406 32.5 31.6701 32.5 32.4998C21.8333 32.4998 11.1667 32.4998 0.5 32.4998C0.5 31.7887 0.5 31.0776 0.5 30.3665C11.1578 30.0221 21.8244 29.9036 32.5 30.0109Z"
        fill="#30C8B8" />
</svg>