<svg width="32" height="32" viewBox="0 0 32 32" fill="none" xmlns="http://www.w3.org/2000/svg">
    <g clip-path="url(#clip0_1010_1582)">
        <path opacity="0.97" fill-rule="evenodd" clip-rule="evenodd"
            d="M14.6668 0.0581055C14.8214 0.0581055 14.976 0.0581055 15.1306 0.0581055C15.1306 2.18371 15.1306 4.30932 15.1306 6.43492C12.9663 6.43492 10.8021 6.43492 8.63782 6.43492C8.63782 8.44458 8.63782 10.4542 8.63782 12.4639C9.64265 12.4639 10.6475 12.4639 11.6523 12.4639C11.7302 11.4539 11.8462 10.4491 12.0001 9.44941C12.5798 9.44941 13.1596 9.44941 13.7393 9.44941C13.7393 12.2706 13.7393 15.092 13.7393 17.9132C12.8503 17.9132 11.9615 17.9132 11.0726 17.9132C11.0726 18.9953 11.0726 20.0775 11.0726 21.1596C12.4253 21.1596 13.7779 21.1596 15.1306 21.1596C15.1692 24.0591 15.1306 26.9577 15.0146 29.8552C10.2143 22.2267 5.44134 14.5745 0.695787 6.89869C0.387853 6.47622 0.175293 6.01245 0.0581055 5.50738C4.97088 3.77996 9.84045 1.96353 14.6668 0.0581055Z"
            fill="#4BAD4B" />
        <path opacity="0.972" fill-rule="evenodd" clip-rule="evenodd"
            d="M20.4639 12.4638C21.4863 12.5789 22.5297 12.6176 23.5943 12.5797C23.6326 10.5112 23.594 8.46285 23.4784 6.43478C21.2369 6.43478 18.9952 6.43478 16.7537 6.43478C16.7537 4.85023 16.7537 3.2657 16.7537 1.68115C21.7574 3.45865 26.743 5.2944 31.7103 7.1884C31.7708 7.25348 31.8094 7.33078 31.8262 7.42028C26.8655 15.4924 21.88 23.5504 16.8697 31.5942C16.7537 28.1167 16.7151 24.6385 16.7537 21.1594C18.2224 21.1594 19.6909 21.1594 21.1595 21.1594C21.1595 20.0773 21.1595 18.9951 21.1595 17.913C20.232 17.913 19.3045 17.913 18.3769 17.913C18.3769 15.0918 18.3769 12.2705 18.3769 9.44927C18.9617 9.4113 19.5414 9.44995 20.1161 9.56521C20.2984 10.522 20.4144 11.4882 20.4639 12.4638Z"
            fill="#036837" />
        <path opacity="0.133" fill-rule="evenodd" clip-rule="evenodd"
            d="M23.4784 6.43457C23.594 8.46264 23.6326 10.511 23.5943 12.5795C22.5297 12.6174 21.4862 12.5787 20.4639 12.4636C21.4687 12.4636 22.4735 12.4636 23.4784 12.4636C23.4784 10.4539 23.4784 8.44423 23.4784 6.43457Z"
            fill="#A5CAB8" />
    </g>
    <defs>
        <clipPath id="clip0_1010_1582">
            <rect width="32" height="32" fill="white" />
        </clipPath>
    </defs>
</svg>