<svg width="32" height="32" viewBox="0 0 32 32" fill="none" xmlns="http://www.w3.org/2000/svg">
<path fill-rule="evenodd" clip-rule="evenodd" d="M11.2821 6.5249C11.5365 4.8159 14.4865 2.96203 17.8646 3.10553C15.028 3.90553 13.5746 7.18565 12.3225 7.63653C11.5538 7.91365 11.1873 7.16478 11.2821 6.5249Z" fill="#E363A4"/>
<path fill-rule="evenodd" clip-rule="evenodd" d="M11.2821 6.5249C11.5365 4.8159 14.4865 2.96202 17.8646 3.10552C14.971 3.80002 13.9611 4.91352 13.3052 5.76065C12.9347 6.2384 12.1582 7.22815 11.4051 7.0319C11.266 6.99577 11.2352 6.84452 11.2821 6.5249Z" fill="#F071A8"/>
<path fill-rule="evenodd" clip-rule="evenodd" d="M13.0197 4.57743C12.057 5.36756 11.5137 6.23568 11.4784 7.04706C11.454 7.04331 11.4292 7.03818 11.4052 7.03193C11.3418 7.01531 11.3005 6.97443 11.2797 6.90468C11.2637 6.78481 11.2637 6.66106 11.2803 6.54068C11.2809 6.53531 11.2822 6.52993 11.2822 6.52481C11.3633 5.98081 11.7172 5.42243 12.2708 4.91856C12.5028 4.82593 12.7527 4.70868 13.0197 4.57743Z" fill="#F28DB9"/>
<path fill-rule="evenodd" clip-rule="evenodd" d="M11.8529 3.43431C12.8265 2.00719 16.2894 1.62431 19.2665 3.22544C16.3654 2.70919 13.628 5.02819 12.3043 4.88881C11.4916 4.80281 11.4885 3.96894 11.8529 3.43431Z" fill="#E363A4"/>
<path fill-rule="evenodd" clip-rule="evenodd" d="M11.8529 3.43431C12.8265 2.00719 16.2894 1.62431 19.2665 3.22544C16.3598 2.58931 14.9658 3.15119 14.0058 3.62819C13.4649 3.89769 12.3348 4.44931 11.7425 3.94456C11.6331 3.85131 11.6701 3.70169 11.8529 3.43431Z" fill="#F071A8"/>
<path fill-rule="evenodd" clip-rule="evenodd" d="M12.6862 0.695176C14.1355 -0.246574 17.4778 0.735801 19.607 3.36118C17.1295 1.76593 13.7099 2.85005 12.5419 2.2108C11.8253 1.81818 12.1435 1.0478 12.6862 0.695176Z" fill="#E363A4"/>
<path fill-rule="evenodd" clip-rule="evenodd" d="M12.6862 0.695176C14.1355 -0.246574 17.4778 0.735801 19.607 3.36118C16.7724 0.893051 13.9677 2.3933 12.8003 1.75418C12.0837 1.36168 12.1435 1.0478 12.6862 0.695176Z" fill="#F28DB9"/>
<path fill-rule="evenodd" clip-rule="evenodd" d="M13.3251 0.752865C14.8899 0.21074 17.5926 1.19074 19.6072 3.36111C16.7724 0.89299 13.9677 2.39336 12.8003 1.75424C11.9236 1.27411 12.7896 0.938365 13.3251 0.752865Z" fill="#F071A8"/>
<path fill-rule="evenodd" clip-rule="evenodd" d="M14.2653 2.43901C13.0545 2.73076 12.1864 3.27538 11.8021 3.99051C11.7815 3.97626 11.7619 3.96101 11.7425 3.94451C11.6924 3.90213 11.6731 3.84751 11.6845 3.77513C11.7221 3.66038 11.7768 3.54913 11.844 3.44788C11.8468 3.44351 11.8498 3.43901 11.8528 3.43438C12.1624 2.98038 12.7243 2.63188 13.4424 2.41938C13.6914 2.43776 13.968 2.44101 14.2653 2.43901Z" fill="#F28DB9"/>
<path fill-rule="evenodd" clip-rule="evenodd" d="M25.0012 9.98412C25.636 10.7024 26.9646 11.1626 28.8492 10.4727C28.5335 12.619 25.7546 13.1404 24.3589 12.7055C24.5731 11.7985 24.7869 10.8915 25.0012 9.98412Z" fill="#E363A4"/>
<path fill-rule="evenodd" clip-rule="evenodd" d="M25.0012 9.98413C25.636 10.7024 26.9646 11.1626 28.8492 10.4728C28.5335 12.619 25.0595 12.2218 23.6631 11.7868C23.8776 10.8795 24.7868 10.8915 25.0012 9.98413Z" fill="#F071A8"/>
<path fill-rule="evenodd" clip-rule="evenodd" d="M2.15174 31.0478C4.41873 32.5217 9.65111 30.9845 12.9842 26.8745C9.10574 29.3713 3.75261 27.6752 1.92524 28.6755C0.803485 29.29 1.30199 30.4956 2.15174 31.0478Z" fill="#41B349"/>
<path fill-rule="evenodd" clip-rule="evenodd" d="M23.074 3.43598C25.4273 2.59948 31.0897 5.16211 30.7491 10.4579C29.1993 9.13698 26.2848 10.5352 24.4983 9.84648C23.972 7.86411 23.6003 5.41798 23.074 3.43598Z" fill="#F28DB9"/>
<path fill-rule="evenodd" clip-rule="evenodd" d="M22.8457 4.31548C25.1997 3.47973 30.4708 6.17223 30.7493 10.4579C29.1993 9.13686 26.2848 10.5354 24.4983 9.84648C23.972 7.86411 23.3721 6.29748 22.8457 4.31548Z" fill="#F071A8"/>
<path fill-rule="evenodd" clip-rule="evenodd" d="M13.9189 29.6884C14.7852 26.3461 18.4879 25.8599 19.7073 28.107C20.4981 29.5637 19.5413 30.937 18.4836 29.791C17.6027 28.8367 16.3596 26.8891 13.9189 29.6884Z" fill="#E363A4"/>
<path fill-rule="evenodd" clip-rule="evenodd" d="M13.9189 29.6884C14.9322 26.5805 18.0947 26.0572 19.1664 28.2177C19.9077 29.7124 19.4321 30.7044 18.3744 29.5581C17.4936 28.604 16.3596 26.8891 13.9189 29.6884Z" fill="#F071A8"/>
<path fill-rule="evenodd" clip-rule="evenodd" d="M12.6518 10.1481C12.9442 1.25513 20.8413 0.48213 23.4146 4.85713C24.0683 5.96913 24.6213 7.27888 24.6982 8.55975C24.7868 10.0298 24.5637 10.3031 24.1267 11.9108C23.5002 12.1443 24.3252 13.5363 24.4705 14.1204C26.8612 24.8674 22.1177 28.7833 13.9055 29.1235C8.38409 29.3521 9.45646 28.7839 9.91434 27.0053C10.8587 23.3323 11.3833 19.6506 12.0311 15.9699C12.3963 13.8924 12.5841 12.2214 12.6518 10.1481Z" fill="#4BB649"/>
<path d="M12.6519 10.1483C12.584 12.2214 12.3964 13.8923 12.031 15.9699C11.3832 19.6506 10.8589 23.3325 9.91425 27.0053C9.45637 28.784 7.92425 29.2474 13.4239 28.7033C22.365 27.8189 26.4521 25.1035 23.8216 12.6804C24.5421 10.6038 25.5549 9.99538 25.4414 8.11438C25.3639 6.8325 25.0889 5.07713 24.4344 3.9645C23.5335 2.433 21.8555 1.64163 20.0417 1.64163C16.6751 1.64175 12.8417 4.3685 12.6519 10.1483Z" fill="url(#paint0_linear_3965_173)"/>
<path fill-rule="evenodd" clip-rule="evenodd" d="M20.5121 4.12398C18.9737 4.12398 17.7257 5.3721 17.7257 6.91073C17.7257 8.4496 18.9737 9.6976 20.5121 9.6976C22.0506 9.6976 23.2985 8.4496 23.2985 6.91073C23.2985 5.3721 22.0506 4.12398 20.5121 4.12398Z" fill="white"/>
<path d="M19.7589 6.5869V7.5709C19.9071 7.99127 20.2404 8.32452 20.6608 8.47302H21.6445C22.2189 8.27015 22.6309 7.72252 22.6309 7.07877C22.6309 6.26265 21.9686 5.60102 21.1526 5.60102C20.5089 5.60102 19.9615 6.01252 19.7589 6.5869" fill="url(#paint1_radial_3965_173)"/>
<path fill-rule="evenodd" clip-rule="evenodd" d="M21.3986 6.37201C21.0398 6.37201 20.7473 6.66364 20.7473 7.02326C20.7473 7.38226 21.0398 7.67389 21.3986 7.67389C21.7582 7.67389 22.0486 7.38226 22.0486 7.02326C22.0486 6.66364 21.7582 6.37201 21.3986 6.37201Z" fill="black"/>
<path fill-rule="evenodd" clip-rule="evenodd" d="M21.7239 6.37203C21.5445 6.37203 21.3985 6.51791 21.3985 6.69741C21.3985 6.87753 21.5445 7.02328 21.7239 7.02328C21.9035 7.02328 22.0486 6.87753 22.0486 6.69741C22.0486 6.51791 21.9035 6.37203 21.7239 6.37203Z" fill="white"/>
<path fill-rule="evenodd" clip-rule="evenodd" d="M14.1152 13.0087C10.2631 14.7916 11.4197 22.9487 8.56061 31.1208C13.182 29.2007 22.254 19.8154 18.4436 14.292C17.3502 12.7079 15.9546 12.1579 14.1152 13.0087Z" fill="#50B748"/>
<path fill-rule="evenodd" clip-rule="evenodd" d="M11.168 18.5394C11.6271 16.1574 12.2396 14.3084 13.526 13.3582C13.5863 13.3136 13.6477 13.2714 13.7102 13.2312C13.8386 13.1486 13.9733 13.0743 14.1152 13.0087C15.9546 12.1579 17.3502 12.7078 18.4436 14.2919C19.457 15.7612 19.559 17.5038 19.0765 19.3068C18.5887 20.1418 17.9837 20.7181 17.0206 21.3333C17.0768 20.4368 17.2895 19.5558 17.0021 18.6297C16.5106 19.5044 15.6653 20.0303 14.7578 20.4063C14.7971 19.6973 15.0585 18.8293 15.0972 18.1202C14.1467 18.8557 13.1953 19.5921 12.2441 20.3284C12.2402 20.3311 12.2365 20.3339 12.2328 20.3372C12.1248 19.3726 12.2001 18.4456 12.532 17.4376C12.0773 17.8052 11.6223 18.1722 11.168 18.5394Z" fill="#ABD598"/>
<path fill-rule="evenodd" clip-rule="evenodd" d="M1.36572 30.1123C4.1406 31.0494 7.21847 30.1174 10.1355 28.9809C10.0541 29.2304 9.88572 29.4424 9.79922 29.6918C6.74922 31.7258 3.73322 32.0767 2.15172 31.0478C1.7991 30.8188 1.50672 30.4773 1.36572 30.1123Z" fill="#06A44B"/>
<path fill-rule="evenodd" clip-rule="evenodd" d="M12.2441 20.3284L15.0971 18.1201L14.7578 20.4063C13.1801 24.4358 11.2334 27.7173 9.34489 30.3328C9.17839 30.5625 9.01501 30.7823 8.85464 30.9915C8.75439 31.0376 8.65651 31.0809 8.56064 31.1209C10.159 26.5518 10.5024 21.9873 11.168 18.5394L12.532 17.4375L12.3326 19.3708L12.2328 20.3371L12.2441 20.3284Z" fill="#41B349"/>
<path fill-rule="evenodd" clip-rule="evenodd" d="M16.9443 12.8945C16.623 15.0865 15.7231 17.7207 14.8105 20.0505L15.0972 18.1202L12.2441 20.3284L12.2328 20.3372L12.3326 19.3708L12.532 17.4375L11.168 18.5394C11.6271 16.1575 12.2396 14.3085 13.526 13.3582C13.5863 13.3135 13.6477 13.2715 13.7103 13.2312C13.8386 13.1485 13.9733 13.0743 14.1152 13.0088C15.2037 12.5049 16.1371 12.4923 16.9443 12.8945Z" fill="#95CD8D"/>
<path fill-rule="evenodd" clip-rule="evenodd" d="M12.811 30.0904C13.6767 26.7481 17.3802 26.262 18.5995 28.5089C19.3903 29.9661 18.4334 31.3391 17.3757 30.1931C16.4948 29.2389 15.2525 27.2912 12.811 30.0904Z" fill="#E363A4"/>
<path fill-rule="evenodd" clip-rule="evenodd" d="M12.811 30.0904C13.6767 26.7481 16.5208 26.9421 17.8372 28.5089C18.8619 29.7289 18.4334 31.3391 17.3757 30.1931C16.4948 29.2389 15.2525 27.2912 12.811 30.0904Z" fill="#F071A8"/>
<path fill-rule="evenodd" clip-rule="evenodd" d="M11.5479 29.3027C14.6444 26.9387 18.0866 22.9964 19.0765 19.3069C19.5591 17.5037 19.457 15.7612 18.4436 14.292C18.0991 13.7927 17.7245 13.3965 17.3155 13.1142C17.8577 12.3172 18.4505 11.5975 18.5302 11.957C18.7752 13.0584 18.8214 13.8226 19.299 15.6255C19.6191 15.1857 19.8697 14.8265 20.079 14.5122C20.6732 16.8655 19.7707 20.0646 18.6312 22.1674C17.7282 23.833 16.704 25.5486 17.3604 26.73C17.3997 26.7999 17.4415 26.8684 17.486 26.936C17.8151 27.4314 18.3585 27.9026 18.9521 28.2899C18.8265 28.3265 18.6775 28.3834 18.5475 28.4175C18.0002 27.5419 17.0192 27.0762 16.0415 27.1381C15.9356 27.1447 15.8304 27.1567 15.7242 27.1746C15.2246 27.2584 14.7269 27.4657 14.2822 27.7974C13.8302 28.0825 13.425 28.5397 13.1211 29.2031C12.5009 29.2609 11.9812 29.2932 11.5479 29.3027Z" fill="#06A44B"/>
<path fill-rule="evenodd" clip-rule="evenodd" d="M13.526 13.3582C12.9616 13.775 12.5266 14.3656 12.1776 15.0984C12.4476 13.4049 12.5929 11.924 12.6519 10.1482C12.6582 9.95373 12.6684 9.76273 12.683 9.57573C12.7755 9.50986 12.8714 9.44836 12.9696 9.39136C12.9924 11.267 13.2201 12.099 13.5326 12.7446C13.7622 12.4326 14.9754 11.4725 16.004 10.5039C15.943 11.2486 15.9411 11.9815 15.9856 12.6216C15.4174 12.5701 14.7972 12.6932 14.1152 13.0087C13.9734 13.0744 13.8386 13.1486 13.7102 13.2311C13.6477 13.2715 13.5862 13.3136 13.526 13.3582Z" fill="#06A44B"/>
<path fill-rule="evenodd" clip-rule="evenodd" d="M18.1499 12.0483C17.9159 12.2759 17.6084 12.6837 17.3154 13.1143C17.1948 13.0313 17.0713 12.9574 16.9443 12.8945C16.6431 12.7439 16.3236 12.6518 15.9856 12.6215C15.9411 11.9814 15.9431 11.2487 16.004 10.5038C14.9753 11.4725 13.7621 12.4325 13.5326 12.7445C13.2201 12.099 12.9924 11.267 12.9696 9.39129C12.8713 9.44829 12.7755 9.50991 12.683 9.57579C13.2771 1.87591 19.9344 -0.107961 23.2281 2.62429C17.7809 2.63066 14.3989 6.06329 18.1499 12.0483Z" fill="#969796"/>
<path fill-rule="evenodd" clip-rule="evenodd" d="M20.5254 4.12398C18.3154 4.93448 17.7821 7.10348 18.6934 9.02161C18.1011 8.51073 17.7258 7.75448 17.7258 6.91073C17.7258 5.37211 18.9738 4.12398 20.5121 4.12398H20.5254Z" fill="#E4E4E4"/>
<path fill-rule="evenodd" clip-rule="evenodd" d="M21.4176 12.8188C21.5281 13.6665 21.762 14.3754 22.1058 15.0829C22.6193 14.5304 23.1382 13.4777 23.3728 12.5938C23.5058 13.4262 23.979 13.8562 24.4495 14.0465C24.3246 13.5202 24.293 13.0445 24.7952 12.8034C24.825 12.7889 24.8566 12.7755 24.8908 12.7632C24.953 12.5323 25.0113 12.3015 25.064 12.0723C25.2011 11.479 25.3043 10.8919 25.3716 10.3144C25.3823 10.2207 25.3918 10.1275 25.4013 10.0344C25.4642 9.37917 25.4786 8.73755 25.4413 8.1143C25.3703 6.92942 25.1287 5.33905 24.5763 4.2268C24.5313 4.13605 24.4837 4.04855 24.4343 3.96455C24.2897 3.71817 24.1247 3.4908 23.9416 3.28317C23.7253 3.0358 23.4837 2.81642 23.2212 2.6243C21.8336 2.62667 20.58 2.8513 19.5445 3.2843C19.5426 3.28567 19.54 3.28642 19.5381 3.2873C19.5342 3.2888 19.5305 3.29043 19.5266 3.29205C19.5216 3.29455 19.5152 3.2968 19.5095 3.29955C16.5101 4.5733 15.3672 7.60867 18.1498 12.0483C17.9158 12.2759 17.6083 12.6837 17.3155 13.1143C17.7245 13.3965 18.0991 13.7928 18.4436 14.2919C18.7656 14.7592 18.9952 15.2539 19.1437 15.7688C20.1772 14.9869 20.9958 13.816 21.4176 12.8188ZM25.0736 10.0577C25.0812 10.0405 25.0888 10.0242 25.0971 10.007C25.0888 10.0242 25.0812 10.0409 25.0736 10.0577ZM20.5121 9.69755C19.8171 9.69755 19.1817 9.44267 18.6933 9.02155C18.1012 8.5108 17.7257 7.75455 17.7257 6.91067C17.7257 5.37205 18.9737 4.12392 20.5121 4.12392H20.5253C22.0575 4.13167 23.2986 5.37642 23.2986 6.91067C23.2986 8.44955 22.0505 9.69755 20.5121 9.69755Z" fill="#CDCBCA"/>
<defs>
<linearGradient id="paint0_linear_3965_173" x1="15.375" y1="17.0938" x2="-12.3092" y2="38.9236" gradientUnits="userSpaceOnUse">
<stop stop-color="#21B14B"/>
<stop offset="0.00317986" stop-color="#21B14B"/>
<stop offset="1" stop-color="#0F1010"/>
</linearGradient>
<radialGradient id="paint1_radial_3965_173" cx="0" cy="0" r="1" gradientUnits="userSpaceOnUse" gradientTransform="translate(21.4731 6.93616) rotate(180) scale(1.15274)">
<stop stop-color="white"/>
<stop offset="1" stop-color="#996631"/>
</radialGradient>
</defs>
</svg>
