<svg width="32" height="32" viewBox="0 0 33 33" fill="none" xmlns="http://www.w3.org/2000/svg">
    <path fill-rule="evenodd" clip-rule="evenodd"
        d="M26.465 3.28224C27.8641 4.53184 29.1205 5.92301 30.2341 7.45575C30.3916 8.24657 30.7266 8.94215 31.2392 9.54251C31.4226 10.2569 31.6181 10.9525 31.8255 11.6293C31.1906 11.7244 30.8556 11.4345 30.8204 10.7598C30.3891 10.3428 29.8865 10.053 29.3128 9.89031C29.1399 10.3586 28.8608 10.4746 28.4752 10.2381C27.8388 8.82312 26.9454 7.60584 25.7949 6.58627C23.8124 4.36806 21.3556 3.00588 18.4242 2.4997C16.2033 2.2821 14.0256 2.48499 11.8911 3.10834C11.8911 2.93444 11.8911 2.76055 11.8911 2.58665C12.0586 2.58665 12.2261 2.58665 12.3937 2.58665C12.3937 2.41275 12.3937 2.23886 12.3937 2.06496C13.3824 2.18934 14.3596 2.07341 15.3252 1.71717C15.8906 2.10471 16.4769 2.22065 17.0841 2.06496C17.9639 2.16642 18.8295 2.34031 19.6806 2.58665C20.1495 2.45849 20.1775 2.31357 19.7644 2.15191C19.8523 2.03151 19.964 1.94456 20.0994 1.89106C20.4192 2.03857 20.7542 2.09653 21.1045 2.06496C21.1045 1.89106 21.1045 1.71717 21.1045 1.54327C21.5836 1.47096 21.9464 1.64486 22.1933 2.06496C22.3516 1.99447 22.4634 1.87854 22.5284 1.71717C22.8855 1.9397 23.2484 1.9397 23.6172 1.71717C23.6933 2.34669 24.0283 2.72346 24.6223 2.8475C24.5665 2.90546 24.5106 2.96343 24.4548 3.02139C25.1019 3.2568 25.772 3.34374 26.465 3.28224Z"
        fill="#D6E2EC" />
    <path fill-rule="evenodd" clip-rule="evenodd"
        d="M10.7186 0.5C14.6273 0.5 18.536 0.5 22.4447 0.5C23.0487 0.958339 23.7188 1.27715 24.4549 1.45643C25.1606 2.04553 25.8307 2.65416 26.4651 3.28234C25.772 3.34385 25.102 3.2569 24.4549 3.0215C24.5106 2.96354 24.5666 2.90556 24.6224 2.8476C24.0284 2.72356 23.6933 2.3468 23.6173 1.71728C23.2484 1.93981 22.8856 1.93981 22.5284 1.71728C22.4634 1.87865 22.3517 1.99458 22.1934 2.06507C21.9465 1.64497 21.5836 1.47107 21.1045 1.54338C21.1045 1.71728 21.1045 1.89117 21.1045 2.06507C20.7543 2.09664 20.4192 2.03867 20.0995 1.89117C19.9641 1.94467 19.8524 2.03161 19.7644 2.15202C20.1775 2.31368 20.1495 2.4586 19.6807 2.58676C18.8295 2.34042 17.964 2.16653 17.0842 2.06507C16.477 2.22075 15.8907 2.10482 15.3253 1.71728C14.3597 2.07352 13.3825 2.18945 12.3937 2.06507C12.3937 2.23897 12.3937 2.41286 12.3937 2.58676C12.2262 2.58676 12.0587 2.58676 11.8912 2.58676C11.8912 2.76065 11.8912 2.93455 11.8912 3.10845C11.7724 3.26565 11.6049 3.32361 11.3886 3.28234C10.1458 3.4329 8.97322 3.83866 7.8708 4.49962C7.72243 4.64308 7.66659 4.81698 7.70328 5.02131C7.21636 5.03439 6.76965 5.17931 6.36315 5.45605C6.48268 5.68961 6.42684 5.92147 6.19564 6.15164C5.80856 6.12461 5.41769 6.12461 5.02303 6.15164C4.96371 6.43431 4.96371 6.75311 5.02303 7.10807C4.61047 7.15695 4.24751 7.33085 3.93417 7.62976C4.05259 8.03721 3.99674 8.44299 3.76666 8.84703C3.31689 8.79012 2.84227 8.79012 2.34277 8.84703C2.34597 8.5757 2.40181 8.31486 2.51029 8.0645C3.04284 7.57192 3.34995 6.96328 3.43163 6.23859C4.18176 5.5174 4.87975 4.73487 5.52557 3.89098C6.45025 3.49613 7.23197 2.8875 7.8708 2.06507C8.88608 1.63918 9.83534 1.11749 10.7186 0.5Z"
        fill="#DEE7EE" />
    <path fill-rule="evenodd" clip-rule="evenodd"
        d="M25.795 6.58655C25.2893 6.66868 25.1218 6.92953 25.2925 7.36908C24.7899 7.42704 24.2874 7.48502 23.7848 7.54298C23.6932 7.70377 23.5816 7.84867 23.4498 7.97772C23.0325 7.90653 22.6975 7.70364 22.4447 7.36908C22.0765 7.30424 21.7135 7.21729 21.3558 7.10824C19.8467 7.22369 18.339 7.28167 16.8329 7.28214C16.2558 7.04054 15.6974 6.75071 15.1578 6.41265C15.1496 6.91974 14.9541 7.09363 14.5714 6.93434C14.3287 7.12859 14.0495 7.24452 13.7339 7.28214C12.143 7.02633 10.5516 6.85244 8.95967 6.76045C8.63058 7.00129 8.32346 6.97232 8.03833 6.6735C8.22655 6.24194 8.50575 6.15499 8.87591 6.41265C9.36891 6.28336 9.87146 6.19641 10.3836 6.15181C10.1153 6.10427 9.86405 6.01732 9.62973 5.89096C9.03744 6.19071 8.56282 6.07477 8.20585 5.54317C9.17955 4.6607 10.2405 3.90715 11.3886 3.28252C11.6049 3.32378 11.7724 3.26582 11.8912 3.10862C14.0257 2.48527 16.2034 2.28238 18.4243 2.49998C21.3557 3.00616 23.8125 4.36834 25.795 6.58655Z"
        fill="#385869" />
    <path fill-rule="evenodd" clip-rule="evenodd"
        d="M8.20582 5.54297C8.5628 6.07457 9.03742 6.19051 9.62971 5.89076C9.86403 6.01712 10.1153 6.10406 10.3835 6.15161C9.87143 6.19621 9.36889 6.28316 8.87589 6.41245C8.50573 6.15479 8.22653 6.24174 8.03831 6.6733C8.32344 6.97212 8.63056 7.00109 8.95965 6.76024C10.5515 6.85224 12.1429 7.02613 13.7338 7.28193C14.0494 7.24432 14.3286 7.12838 14.5714 6.93414C14.9541 7.09343 15.1496 6.91953 15.1577 6.41245C15.6974 6.75051 16.2557 7.04034 16.8329 7.28193C18.339 7.28146 19.8467 7.22349 21.3558 7.10804C21.7135 7.21709 22.0765 7.30404 22.4447 7.36888C22.6975 7.70344 23.0325 7.90633 23.4498 7.97752C23.5816 7.84847 23.6932 7.70356 23.7848 7.54278C24.2873 7.48482 24.7899 7.42684 25.2924 7.36888C25.1217 6.92932 25.2893 6.66848 25.795 6.58635C26.9455 7.60592 27.8388 8.8232 28.4752 10.2382C28.7975 11.1549 29.1048 12.0824 29.3966 13.0205C29.6102 14.4024 29.6939 15.7936 29.6479 17.194C29.5921 17.194 29.5361 17.194 29.4803 17.194C29.5217 15.9094 29.438 14.6341 29.2291 13.3683C29.1461 13.7114 29.1182 14.0592 29.1453 14.4117C28.0844 14.4117 27.0234 14.4117 25.9625 14.4117C25.8444 13.4743 25.8444 12.5468 25.9625 11.6293C25.795 11.6293 25.6275 11.6293 25.46 11.6293C25.4064 12.4227 25.211 13.1763 24.8737 13.89C24.8179 13.1365 24.7619 12.3829 24.7061 11.6293C24.6755 12.1275 24.5917 12.5912 24.4549 13.0205C24.7246 10.0548 23.4402 8.37383 20.602 7.97752C19.4607 7.80515 18.2881 7.74719 17.0842 7.80362C17.7227 7.66037 18.3928 7.57342 19.0944 7.54278C16.6818 7.31645 14.3365 7.60629 12.0587 8.41226C12.0795 8.58092 12.0795 8.72583 12.0587 8.847C12.0014 8.99276 11.8898 9.05074 11.7237 9.0209C11.3671 8.82455 10.9763 8.79556 10.551 8.93395C8.0992 9.87795 7.14994 11.7039 7.70328 14.4117C6.29308 14.4642 4.8971 14.4062 3.51538 14.2378C3.62572 13.7239 3.68157 13.2022 3.6829 12.6727C4.4621 9.78097 5.96974 7.40439 8.20582 5.54297Z"
        fill="#324D5A" />
    <path fill-rule="evenodd" clip-rule="evenodd"
        d="M17.0841 7.80354C15.9642 7.73878 14.9032 7.91267 13.9013 8.32523C13.2776 8.46377 12.6633 8.63767 12.0586 8.84692C12.0794 8.72574 12.0794 8.58084 12.0586 8.41217C14.3364 7.6062 16.6817 7.31637 19.0943 7.54269C18.3927 7.57333 17.7226 7.66028 17.0841 7.80354Z"
        fill="#203339" />
    <path fill-rule="evenodd" clip-rule="evenodd"
        d="M17.0842 7.80359C18.2881 7.74716 19.4607 7.80512 20.602 7.97749C18.3565 7.90591 16.1229 8.02185 13.9014 8.32528C14.9033 7.91273 15.9643 7.73883 17.0842 7.80359Z"
        fill="#A3AEB3" />
    <path fill-rule="evenodd" clip-rule="evenodd"
        d="M20.602 7.97752C23.4402 8.37383 24.7245 10.0548 24.4548 13.0205C24.3262 14.7312 24.0471 16.4121 23.6172 18.0635C23.3006 18.5456 23.0214 19.0673 22.7797 19.6286C22.5455 19.4065 22.4339 19.1168 22.4446 18.7591C22.7901 17.918 23.0413 17.0485 23.1985 16.1507C23.2722 15.037 23.4117 13.9356 23.6172 12.8466C23.4978 12.4509 23.4141 12.0451 23.366 11.6293C23.3355 12.1034 23.2517 12.5672 23.1147 13.0205C22.9594 12.7401 22.8197 12.4502 22.6959 12.151C22.6473 12.5774 22.5358 12.9832 22.3609 13.3683C22.3051 13.2524 22.2491 13.1365 22.1934 13.0205C22.0392 13.4729 21.9275 13.9366 21.8583 14.4117C21.756 13.7557 21.5885 13.7557 21.3558 14.4117C21.3226 14.0845 21.2389 13.7946 21.1045 13.5422C20.288 11.8146 18.9479 11.148 17.0841 11.5424C16.3702 12.0104 16.0352 12.677 16.079 13.5422C16.0144 13.9659 15.8189 14.3137 15.4927 14.5856C15.5351 14.1277 15.5351 13.664 15.4927 13.1944C15.3561 12.9644 15.1606 12.8485 14.9064 12.8466C14.7246 11.5518 14.0824 11.146 12.98 11.6293C12.8973 11.9135 12.8694 12.2033 12.8962 12.4988C12.9072 12.575 12.8793 12.633 12.8125 12.6727C12.2791 12.5152 12.1395 12.1964 12.3937 11.7163C12.1771 11.6311 11.9537 11.6021 11.7236 11.6293C11.7041 11.2844 11.8157 10.9946 12.0587 10.7599C11.8185 10.633 11.623 10.4591 11.4723 10.2382C11.4097 10.3975 11.3259 10.5424 11.2211 10.6729C10.7539 10.7149 10.3072 10.8308 9.88095 11.0207C9.49008 11.4555 9.0992 11.8902 8.70834 12.3249C8.78057 12.4629 8.8364 12.6078 8.87585 12.7597C8.71138 12.8259 8.5997 12.9708 8.54082 13.1944C8.71644 14.0796 8.93981 14.9491 9.21088 15.8029C9.40364 16.0169 9.59907 16.0169 9.79719 15.8029C9.88051 16.263 9.90844 16.7267 9.88095 17.194C9.59347 17.1717 9.31427 17.1137 9.04337 17.0201C8.6324 16.0016 8.26944 14.9582 7.95451 13.89C7.82261 12.3953 8.35307 11.207 9.54592 10.3251C10.2217 9.80046 10.9476 9.36572 11.7236 9.0209C11.8897 9.05074 12.0014 8.99277 12.0587 8.84701C12.6634 8.63776 13.2776 8.46386 13.9013 8.32532C16.1229 8.02188 18.3564 7.90595 20.602 7.97752Z"
        fill="#F4F5F5" />
    <path fill-rule="evenodd" clip-rule="evenodd"
        d="M11.3885 3.28223C10.2403 3.90686 9.17936 4.66041 8.20566 5.54288C5.96957 7.4043 4.46193 9.78088 3.68273 12.6726C3.41072 12.6483 3.21529 12.7642 3.09642 13.0204C2.49047 12.5962 2.12751 12.0166 2.00757 11.2815C1.76501 12.4254 1.56958 12.4254 1.42127 11.2815C1.38854 11.9406 1.19311 12.5203 0.834961 13.0204C1.01442 11.4728 1.51697 10.0816 2.3426 8.84692C2.8421 8.79 3.31672 8.79 3.76649 8.84692C3.99657 8.44287 4.05242 8.0371 3.934 7.62964C4.24734 7.33073 4.6103 7.15683 5.02286 7.10795C4.96354 6.75299 4.96354 6.43419 5.02286 6.15152C5.41752 6.1245 5.80839 6.1245 6.19547 6.15152C6.42667 5.92135 6.48251 5.68949 6.36298 5.45593C6.76948 5.17919 7.21619 5.03427 7.70311 5.02119C7.66642 4.81686 7.72226 4.64297 7.87063 4.4995C8.97305 3.83854 10.1457 3.43279 11.3885 3.28223Z"
        fill="#CBDAE7" />
    <path fill-rule="evenodd" clip-rule="evenodd"
        d="M12.8963 12.4989C13.7271 13.9895 14.5646 15.4966 15.409 17.0202C15.6512 16.9036 15.7629 16.7007 15.7441 16.4116C15.3435 15.2516 15.0643 14.0634 14.9065 12.8467C15.1607 12.8486 15.3561 12.9645 15.4928 13.1945C15.5352 13.6641 15.5352 14.1278 15.4928 14.5857C15.819 14.3138 16.0144 13.966 16.0791 13.5423C16.4401 14.4611 17.0264 14.635 17.838 14.064C18.0556 13.3323 17.8043 12.8685 17.0842 12.6728C17.9861 11.9251 18.7957 12.041 19.5132 13.0206C19.6396 13.5081 19.5839 13.9718 19.3456 14.4118C18.4848 14.8831 17.6472 15.4048 16.8329 15.9769C16.4421 16.4775 16.5259 16.8253 17.0842 17.0202C17.2765 16.7335 17.4998 16.4727 17.7542 16.2377C18.5918 16.0638 19.4294 15.8899 20.267 15.716C20.9865 15.1781 21.2657 14.4536 21.1046 13.5423C21.2389 13.7947 21.3227 14.0846 21.3558 14.4118C21.5885 13.7558 21.756 13.7558 21.8584 14.4118C21.9276 13.9367 22.0393 13.473 22.1934 13.0206C22.2492 13.1366 22.3051 13.2525 22.3609 13.3684C22.5358 12.9833 22.6474 12.5775 22.696 12.1511C22.8198 12.4503 22.9595 12.7402 23.1148 13.0206C23.2518 12.5673 23.3355 12.1035 23.366 11.6295C23.4141 12.0452 23.4979 12.451 23.6173 12.8467C23.4118 13.9357 23.2722 15.0371 23.1985 16.1508C23.0414 17.0486 22.7901 17.9181 22.4447 18.7592C22.434 19.1169 22.5455 19.4066 22.7797 19.6287C21.9731 21.568 20.633 22.9013 18.7593 23.6283C16.8708 24.0151 15.1398 23.6382 13.5663 22.498C13.1334 22.0005 12.6588 21.5657 12.1425 21.1938C11.0579 21.6417 9.96908 22.0765 8.87591 22.498C8.20149 22.63 7.97814 22.3691 8.20584 21.7155C9.05012 21.0131 9.77604 20.2015 10.3835 19.2809C10.2563 18.9575 10.0887 18.6676 9.881 18.4114C9.6018 17.9477 9.32262 17.484 9.04342 17.0202C9.31433 17.1138 9.59353 17.1718 9.881 17.1941C9.90849 16.7268 9.88057 16.2631 9.79724 15.803C9.59912 16.017 9.4037 16.017 9.21094 15.803C8.93986 14.9492 8.7165 14.0797 8.54087 13.1945C8.59976 12.9709 8.71144 12.826 8.87591 12.7598C8.83646 12.6079 8.78062 12.463 8.70839 12.325C9.09925 11.8903 9.49014 11.4556 9.881 11.0208C10.3072 10.8309 10.7539 10.715 11.2211 10.673C11.326 10.5425 11.4097 10.3976 11.4724 10.2383C11.6231 10.4592 11.8185 10.6331 12.0587 10.76C11.8158 10.9947 11.7041 11.2845 11.7237 11.6295C11.9537 11.6022 12.1771 11.6312 12.3937 11.7164C12.1396 12.1965 12.2792 12.5153 12.8125 12.6728C12.8793 12.6331 12.9072 12.5751 12.8963 12.4989Z"
        fill="#EFEFF0" />
    <path fill-rule="evenodd" clip-rule="evenodd"
        d="M14.9063 12.8465C15.0641 14.0631 15.3433 15.2514 15.7439 16.4113C15.7627 16.7004 15.651 16.9033 15.4088 17.02C14.5645 15.4964 13.7269 13.9893 12.8961 12.4987C12.8693 12.2032 12.8972 11.9134 12.9799 11.6292C14.0823 11.1459 14.7244 11.5516 14.9063 12.8465Z"
        fill="#272526" />
    <path fill-rule="evenodd" clip-rule="evenodd"
        d="M21.1045 13.5424C21.2656 14.4537 20.9864 15.1782 20.2669 15.7161C19.4293 15.89 18.5917 16.0639 17.7542 16.2378C17.4997 16.4728 17.2764 16.7336 17.0841 17.0203C16.5258 16.8254 16.442 16.4776 16.8328 15.9769C17.6471 15.4049 18.4847 14.8832 19.3456 14.4119C19.5838 13.9719 19.6395 13.5082 19.5131 13.0207C18.7956 12.0411 17.986 11.9251 17.0841 12.6729C17.8042 12.8686 18.0555 13.3323 17.8379 14.0641C17.0263 14.6351 16.44 14.4612 16.079 13.5424C16.0352 12.6771 16.3702 12.0105 17.0841 11.5426C18.9479 11.1482 20.288 11.8148 21.1045 13.5424Z"
        fill="#252324" />
    <path fill-rule="evenodd" clip-rule="evenodd"
        d="M3.6828 12.6729C3.68148 13.2024 3.62563 13.7241 3.51529 14.238C3.51529 14.3539 3.45945 14.4119 3.34777 14.4119C3.26316 15.5701 3.06773 16.7294 2.76146 17.8898C2.70563 17.542 2.64978 17.1942 2.59395 16.8464C2.46613 17.2922 2.38238 17.2922 2.34267 16.8464C2.4819 16.5033 2.50982 16.1555 2.42643 15.803C2.10948 16.235 1.69069 16.4669 1.17006 16.4986C1.07836 17.1592 1.02252 17.8258 1.00255 18.4984C1.35198 19.8894 1.57533 21.3095 1.67261 22.7589C1.15405 21.6152 0.791103 20.3979 0.583758 19.1071C0.472081 17.3102 0.472081 15.5132 0.583758 13.7163C0.618942 13.4453 0.7027 13.2135 0.835032 13.0207C1.19318 12.5205 1.38861 11.9409 1.42134 11.2817C1.56966 12.4257 1.76508 12.4257 2.00764 11.2817C2.12758 12.0168 2.49054 12.5965 3.0965 13.0207C3.21537 12.7645 3.41079 12.6486 3.6828 12.6729Z"
        fill="#BACCDB" />
    <path fill-rule="evenodd" clip-rule="evenodd"
        d="M31.8254 11.6296C32.0578 12.0429 32.1975 12.5066 32.2442 13.0208C32.7535 16.3502 32.5022 19.5963 31.4904 22.759C31.3229 22.9908 31.1554 23.2228 30.9878 23.4546C31.3219 22.2543 31.6011 21.095 31.8254 19.9766C31.8254 18.8173 31.8254 17.658 31.8254 16.4987C31.6021 16.4987 31.3786 16.4987 31.1554 16.4987C31.1554 16.6726 31.1554 16.8465 31.1554 17.0204C30.6558 17.1009 30.1533 17.1588 29.6477 17.1943C29.6938 15.7938 29.61 14.4027 29.3964 13.0208C29.1046 12.0826 28.7974 11.1552 28.4751 10.2384C28.8607 10.4749 29.1398 10.359 29.3127 9.89062C29.8864 10.0533 30.389 10.3431 30.8203 10.7601C30.8555 11.4348 31.1905 11.7247 31.8254 11.6296Z"
        fill="#BCCCDA" />
    <path fill-rule="evenodd" clip-rule="evenodd"
        d="M29.4802 17.1941C29.5308 17.9402 29.4193 18.6357 29.1452 19.2808C29.1891 19.0238 29.1333 18.792 28.9777 18.5853C28.9686 18.7917 28.9129 19.0235 28.8102 19.2808C28.6984 19.1649 28.5869 19.049 28.4751 18.933C28.279 19.3403 28.0835 19.7462 27.8888 20.1503C26.5626 20.0213 25.1945 19.9634 23.7847 19.9764C23.8276 19.321 23.7718 18.6833 23.6172 18.0636C24.047 16.4122 24.3261 14.7312 24.4548 13.0206C24.5916 12.5913 24.6754 12.1276 24.706 11.6294C24.7618 12.3829 24.8178 13.1365 24.8736 13.89C25.2109 13.1763 25.4063 12.4228 25.4599 11.6294C25.6274 11.6294 25.7949 11.6294 25.9624 11.6294C25.8443 12.5469 25.8443 13.4743 25.9624 14.4117C27.0233 14.4117 28.0843 14.4117 29.1452 14.4117C29.1181 14.0592 29.146 13.7114 29.229 13.3684C29.4379 14.6342 29.5216 15.9094 29.4802 17.1941Z"
        fill="#243843" />
    <path fill-rule="evenodd" clip-rule="evenodd"
        d="M11.7237 9.02091C10.9476 9.36573 10.2217 9.80047 9.54599 10.3251C8.35314 11.207 7.82268 12.3953 7.95458 13.89C8.26951 14.9582 8.63247 16.0016 9.04344 17.0201C9.32264 17.4839 9.60182 17.9476 9.88102 18.4113C9.3279 18.7765 9.16038 19.2693 9.37847 19.8894C9.01481 20.0936 8.65185 20.2964 8.28962 20.4981C7.13252 20.0499 5.87615 19.8761 4.52051 19.9764C4.15754 19.013 3.85041 17.7958 3.59917 16.3246C3.51585 16.7847 3.48793 17.2484 3.51541 17.7157C3.34954 16.6472 3.29371 15.5459 3.3479 14.4117C3.45958 14.4117 3.51541 14.3537 3.51541 14.2378C4.89714 14.4062 6.29311 14.4642 7.70331 14.4117C7.14997 11.7039 8.09923 9.87796 10.5511 8.93396C10.9763 8.79557 11.3672 8.82456 11.7237 9.02091Z"
        fill="#243741" />
    <path fill-rule="evenodd" clip-rule="evenodd"
        d="M15.744 17.3682C16.9415 17.4034 17.2206 17.9541 16.5815 19.0202C15.23 19.0478 14.9508 18.4971 15.744 17.3682Z"
        fill="#1C1C1C" />
    <path fill-rule="evenodd" clip-rule="evenodd"
        d="M23.6172 18.0635C23.7719 18.6832 23.8276 19.3209 23.7848 19.9763C25.1946 19.9633 26.5627 20.0212 27.8889 20.1502C28.0836 19.7461 28.279 19.3402 28.4752 18.933C28.5869 19.0489 28.6985 19.1648 28.8102 19.2808C28.9129 19.0234 28.9687 18.7916 28.9778 18.5852C29.1334 18.7919 29.1892 19.0237 29.1453 19.2808C28.9025 20.6761 28.4 21.9513 27.6376 23.1065C27.5902 22.9693 27.5065 22.8533 27.3864 22.7587C26.2211 22.771 25.0205 22.771 23.7848 22.7587C23.7848 22.5848 23.7848 22.4109 23.7848 22.237C23.5055 22.237 23.2264 22.237 22.9472 22.237C22.9472 22.4109 22.9472 22.5848 22.9472 22.7587C22.7172 22.786 22.4937 22.7569 22.2771 22.6717C22.2476 22.3775 22.1639 22.1167 22.0258 21.8892C21.8025 22.0052 21.635 22.1791 21.5233 22.4109C21.4116 22.1791 21.3 22.1791 21.1883 22.4109C21.1517 22.9197 21.068 23.4125 20.937 23.889C20.6732 23.8231 20.4219 23.8521 20.1832 23.976C19.7997 23.6216 19.3809 23.6216 18.9268 23.976C18.7931 23.8965 18.7373 23.7805 18.7593 23.6282C20.6329 22.9011 21.9731 21.5678 22.7797 19.6285C23.0214 19.0672 23.3006 18.5455 23.6172 18.0635Z"
        fill="#1B2C34" />
    <path fill-rule="evenodd" clip-rule="evenodd"
        d="M3.34766 14.4116C3.29347 15.5458 3.34931 16.6471 3.51518 17.7157C3.82463 20.9086 5.10893 23.5751 7.36804 25.7149C7.88319 26.3656 8.44159 26.9452 9.0432 27.4539C8.92309 28.235 8.47638 28.5247 7.70308 28.3233C7.70308 28.4972 7.70308 28.6711 7.70308 28.845C7.40356 28.8946 7.12436 28.8367 6.8655 28.6711C6.48336 27.9003 5.92498 27.3205 5.19034 26.9322C4.97796 27.0935 4.75461 27.1226 4.52027 27.0191C4.27042 26.5633 4.15874 26.0705 4.18524 25.541C3.93769 25.5866 3.71432 25.5287 3.51518 25.3671C2.87421 24.5955 2.48335 23.726 2.34257 22.7587C2.11922 22.7587 1.89585 22.7587 1.6725 22.7587C1.57523 21.3092 1.35188 19.8892 1.00244 18.4982C1.02242 17.8256 1.07825 17.159 1.16996 16.4984C1.69058 16.4666 2.10937 16.2348 2.42633 15.8028C2.50972 16.1553 2.48179 16.5031 2.34257 16.8462C2.38227 17.292 2.46603 17.292 2.59384 16.8462C2.64968 17.194 2.70552 17.5418 2.76136 17.8896C3.06763 16.7292 3.26305 15.5699 3.34766 14.4116Z"
        fill="#9FB9CF" />
    <path fill-rule="evenodd" clip-rule="evenodd"
        d="M9.88096 18.4115C10.0887 18.6676 10.2562 18.9575 10.3835 19.2809C9.77599 20.2016 9.05008 21.0131 8.2058 21.7155C7.97809 22.3692 8.20144 22.63 8.87586 22.498C9.96904 22.0765 11.0579 21.6418 12.1424 21.1938C12.6587 21.5658 13.1333 22.0005 13.5663 22.498C15.1398 23.6383 16.8707 24.0151 18.7593 23.6284C18.7374 23.7807 18.7931 23.8967 18.9268 23.9762C19.3809 23.6218 19.7997 23.6218 20.1832 23.9762C20.4219 23.8523 20.6732 23.8233 20.937 23.8892C21.068 23.4127 21.1518 22.9199 21.1883 22.4111C21.3 22.1793 21.4116 22.1793 21.5233 22.4111C21.635 22.1793 21.8026 22.0054 22.0259 21.8894C22.1639 22.1169 22.2476 22.3777 22.2771 22.6719C22.4937 22.7571 22.7172 22.7862 22.9472 22.7589C22.9472 22.585 22.9472 22.4111 22.9472 22.2372C23.2264 22.2372 23.5055 22.2372 23.7848 22.2372C23.7848 22.4111 23.7848 22.585 23.7848 22.7589C25.0205 22.7712 26.2211 22.7712 27.3864 22.7589C27.5065 22.8535 27.5902 22.9695 27.6376 23.1067C27.4442 23.624 27.1649 24.0878 26.8001 24.4978C26.0722 25.4271 25.2346 26.2387 24.2873 26.9324C24.1883 26.8192 24.0768 26.7032 23.9523 26.5846C24.3677 26.4255 24.4795 26.1646 24.2873 25.8021C24.3991 25.7442 24.5106 25.6861 24.6224 25.6282C23.8901 25.4842 23.1641 25.5132 22.4446 25.7151C21.9567 25.8963 21.5101 26.1281 21.1045 26.4107C19.7644 26.5846 18.4243 26.7585 17.0841 26.9324C15.4809 26.6011 13.8615 26.3984 12.2262 26.3238C11.2061 26.0144 10.3126 25.4927 9.54592 24.7587C9.17069 24.5888 8.77983 24.5018 8.37331 24.4978C8.37331 24.3239 8.37331 24.1501 8.37331 23.9762C8.15184 23.9466 7.95642 24.0045 7.78701 24.1501C7.6874 23.9068 7.71533 23.675 7.87077 23.4545C7.75908 23.3966 7.64742 23.3385 7.53574 23.2806C7.20543 23.4446 6.89832 23.5025 6.6144 23.4545C6.38227 23.8452 6.4102 24.2509 6.69816 24.6717C7.01496 24.9354 7.34999 25.1673 7.70325 25.3673C7.57884 25.4859 7.46715 25.6019 7.36822 25.7151C5.1091 23.5753 3.82481 20.9088 3.51535 17.7159C3.48787 17.2486 3.51579 16.7848 3.59911 16.3247C3.85035 17.7959 4.15748 19.0131 4.52045 19.9765C5.87609 19.8762 7.13246 20.0501 8.28956 20.4982C8.65179 20.2965 9.01475 20.0937 9.37841 19.8896C9.16032 19.2695 9.32784 18.7766 9.88096 18.4115Z"
        fill="#17242B" />
    <path fill-rule="evenodd" clip-rule="evenodd"
        d="M31.8256 19.9765C31.4165 19.9102 31.3048 20.0262 31.4905 20.3243C31.1319 21.2816 30.8247 22.267 30.5692 23.2805C29.9862 23.9114 29.6792 24.6649 29.6479 25.5412C29.0237 25.485 28.4094 25.5431 27.8052 25.7151C27.9305 26.0336 28.098 26.3235 28.3077 26.5845C27.8529 27.0292 27.4899 27.5509 27.2189 28.1496C27.0495 28.2952 26.854 28.3531 26.6326 28.3235C27.0326 27.8109 27.3676 27.2601 27.6377 26.6715C27.4879 26.0411 27.1529 25.5485 26.6326 25.1934C26.6884 24.9616 26.7443 24.7296 26.8001 24.4978C27.1649 24.0877 27.4442 23.6239 27.6377 23.1066C28.4 21.9514 28.9026 20.6762 29.1453 19.2809C29.4194 18.6357 29.5309 17.9402 29.4803 17.1941C29.5361 17.1941 29.5921 17.1941 29.6479 17.1941C30.1534 17.1587 30.656 17.1007 31.1555 17.0202C31.1555 16.8463 31.1555 16.6724 31.1555 16.4985C31.3788 16.4985 31.6023 16.4985 31.8256 16.4985C31.8256 17.6579 31.8256 18.8171 31.8256 19.9765Z"
        fill="#9FB9CE" />
    <path fill-rule="evenodd" clip-rule="evenodd"
        d="M24.2873 26.9321C20.9005 29.3686 17.1593 30.1511 13.0637 29.2797C11.6595 28.7855 10.3194 28.1769 9.04337 27.4538C8.44175 26.9451 7.88335 26.3655 7.36821 25.7148C7.46714 25.6016 7.57883 25.4856 7.70324 25.367C7.34998 25.1671 7.01495 24.9351 6.69814 24.6714C6.41018 24.2506 6.38226 23.8449 6.61439 23.4542C6.89831 23.5022 7.20542 23.4443 7.53572 23.2803C7.64741 23.3382 7.75907 23.3963 7.87076 23.4542C7.71532 23.6747 7.68739 23.9065 7.787 24.1498C7.95641 24.0042 8.15183 23.9463 8.3733 23.9759C8.3733 24.1498 8.3733 24.3237 8.3733 24.4975C8.77981 24.5015 9.17068 24.5885 9.54591 24.7584C10.3126 25.4924 11.2061 26.0141 12.2262 26.3235C13.8615 26.3981 15.4808 26.6008 17.0841 26.9321C18.4243 26.7582 19.7644 26.5843 21.1045 26.4104C21.5101 26.1278 21.9567 25.896 22.4446 25.7148C23.1641 25.5129 23.8901 25.4839 24.6223 25.6279C24.5106 25.6858 24.399 25.7439 24.2873 25.8018C24.4794 26.1643 24.3677 26.4252 23.9523 26.5843C24.0767 26.7029 24.1883 26.8189 24.2873 26.9321Z"
        fill="#111A21" />
    <path fill-rule="evenodd" clip-rule="evenodd"
        d="M1.67261 22.7588C1.89596 22.7588 2.11932 22.7588 2.34267 22.7588C2.48345 23.7262 2.87432 24.5957 3.51528 25.3672C3.71442 25.5288 3.93779 25.5867 4.18535 25.5411C4.15884 26.0706 4.27053 26.5635 4.52038 27.0193C4.75471 27.1227 4.97806 27.0937 5.19044 26.9323C5.92508 27.3206 6.48346 27.9004 6.8656 28.6713C7.12446 28.8368 7.40366 28.8947 7.70318 28.8452C7.70318 28.6713 7.70318 28.4974 7.70318 28.3235C8.47648 28.5249 8.9232 28.2351 9.0433 27.454C10.3193 28.1771 11.6594 28.7857 13.0637 29.2799C17.1593 30.1513 20.9004 29.3688 24.2872 26.9323C25.2345 26.2386 26.0721 25.4271 26.8 24.4978C26.7442 24.7296 26.6883 24.9615 26.6325 25.1933C26.504 25.3102 26.3923 25.4551 26.2974 25.6281C26.5028 26.3642 26.2793 26.9438 25.6274 27.367C25.6832 27.425 25.7391 27.483 25.7949 27.5409C25.2108 28.0473 24.5407 28.3082 23.7847 28.3235C23.811 28.5622 23.783 28.7942 23.7009 29.0191C23.607 28.9283 23.4952 28.8704 23.3659 28.8452C22.7129 28.9158 22.1266 29.1476 21.607 29.5408C21.4953 29.4828 21.3837 29.4248 21.272 29.3669C20.5282 29.5816 19.7744 29.7555 19.0105 29.8885C17.2519 29.659 15.4929 29.659 13.7337 29.8885C13.1819 29.8494 12.6514 29.7334 12.1423 29.5408C12.0865 29.5987 12.0307 29.6567 11.9748 29.7147C11.4817 29.415 10.9513 29.2411 10.3834 29.193C10.3834 28.9031 10.3834 28.6134 10.3834 28.3235C9.88393 28.3803 9.40931 28.3803 8.95955 28.3235C8.87746 28.5483 8.84954 28.7803 8.87579 29.0191C8.53618 28.9909 8.20115 29.0199 7.87069 29.106C7.73055 29.2818 7.6747 29.4848 7.70318 29.7147C7.28362 29.6312 6.89275 29.4573 6.53057 29.193C6.39697 29.2724 6.34112 29.3884 6.36305 29.5408C5.91634 29.1351 5.46964 28.7292 5.02292 28.3235C4.6366 27.8065 4.1899 27.3427 3.6828 26.9323C3.13844 25.8595 2.55213 24.8162 1.92388 23.8022C1.83935 23.4512 1.75559 23.1035 1.67261 22.7588Z"
        fill="#92ABBD" />
    <path fill-rule="evenodd" clip-rule="evenodd"
        d="M26.6325 25.1934C27.1529 25.5485 27.4879 26.0411 27.6376 26.6715C27.3676 27.2601 27.0326 27.8109 26.6325 28.3235C26.4732 28.5703 26.4175 28.86 26.465 29.193C25.469 29.7107 24.5198 30.3193 23.6173 31.0189C22.6319 31.2632 21.6826 31.611 20.7695 32.0623C17.6247 32.6991 14.4977 32.6412 11.3886 31.8884C10.6791 31.3721 9.89735 31.0243 9.04338 30.845C8.54243 30.5033 8.09571 30.1265 7.70326 29.7147C7.67478 29.4848 7.73063 29.2818 7.87077 29.106C8.20123 29.02 8.53626 28.9909 8.87587 29.0191C8.84962 28.7803 8.87754 28.5483 8.95963 28.3235C9.40939 28.3804 9.88401 28.3804 10.3835 28.3235C10.3835 28.6134 10.3835 28.9031 10.3835 29.193C10.9514 29.2411 11.4818 29.415 11.9749 29.7147C12.0307 29.6568 12.0866 29.5987 12.1424 29.5408C12.6515 29.7335 13.182 29.8494 13.7338 29.8886C15.493 29.659 17.252 29.659 19.0106 29.8886C19.7744 29.7555 20.5283 29.5816 21.272 29.3669C21.3838 29.4248 21.4953 29.4829 21.6071 29.5408C22.1267 29.1476 22.713 28.9158 23.366 28.8452C23.4953 28.8704 23.607 28.9283 23.701 29.0191C23.7831 28.7942 23.8111 28.5623 23.7848 28.3235C24.5408 28.3082 25.2108 28.0473 25.795 27.541C25.7392 27.4831 25.6832 27.425 25.6275 27.3671C26.2794 26.9438 26.5029 26.3642 26.2975 25.6281C26.3923 25.4551 26.5041 25.3102 26.6325 25.1934Z"
        fill="#8BABC6" />
</svg>