<svg width="32" height="32" viewBox="0 0 32 32" fill="none" xmlns="http://www.w3.org/2000/svg">
    <g clip-path="url(#clip0_1069_686)">
        <path opacity="0.949" fill-rule="evenodd" clip-rule="evenodd"
            d="M13.7455 -0.0751953C15.2001 -0.0751953 16.6546 -0.0751953 18.1092 -0.0751953C24.1119 1.06793 28.2574 4.58994 30.5455 10.4908C32.5455 17.494 30.9697 23.4563 25.8183 28.3776C23.5249 30.222 20.9553 31.4044 18.1092 31.9248C16.6546 31.9248 15.2001 31.9248 13.7455 31.9248C7.74283 30.7817 3.59738 27.2596 1.30918 21.3588C-0.690787 14.3555 0.88497 8.39327 6.03645 3.47197C8.32976 1.62766 10.8995 0.445261 13.7455 -0.0751953ZM14.1819 3.24556C20.3457 2.83164 24.7335 5.4983 27.3455 11.2456C29.2698 17.6323 27.6455 22.7896 22.4728 26.7173C16.8321 29.8234 11.6685 29.1441 6.9819 24.6795C3.66894 20.7073 2.84469 16.2293 4.50917 11.2456C6.38277 6.80979 9.60702 4.14311 14.1819 3.24556Z"
            fill="#EC164A" />
        <path opacity="0.949" fill-rule="evenodd" clip-rule="evenodd"
            d="M13.3091 8.07538C14.7185 8.02529 16.1245 8.07562 17.5272 8.22632C17.3333 9.23261 17.1393 10.2389 16.9454 11.2452C18.0077 11.3957 19.0744 11.446 20.1454 11.3961C20.1022 12.3487 19.9568 13.2795 19.7091 14.1886C18.6435 14.264 17.5768 14.2892 16.5091 14.2641C16.0352 16.6106 15.72 18.9755 15.5636 21.3584C15.947 22.3881 16.6743 22.8912 17.7454 22.8678C18.2381 22.8058 18.7229 22.7053 19.2 22.5659C19.4597 22.7768 19.6293 23.0535 19.7091 23.3961C18.4526 24.1985 17.0708 24.5759 15.5636 24.5282C14.0215 24.6493 12.7124 24.146 11.6363 23.0188C11.2764 22.1006 11.1794 21.1447 11.3454 20.1508C11.9846 16.1208 12.6391 12.0957 13.3091 8.07538Z"
            fill="#EC164A" />
    </g>
    <defs>
        <clipPath id="clip0_1069_686">
            <rect width="32" height="32" fill="white" />
        </clipPath>
    </defs>
</svg>