<svg width="32" height="32" viewBox="0 0 33 33" fill="none" xmlns="http://www.w3.org/2000/svg">
    <path
        d="M6.9539 1.51009C7.31312 1.86299 7.58738 2.2979 7.86675 2.73128L7.95945 2.87443C8.09298 3.08065 8.2261 3.28721 8.35882 3.4941C8.61742 3.89698 8.88103 4.2952 9.14697 4.69183C9.61495 5.39038 10.0716 6.09784 10.5266 6.8075C10.9155 7.4136 11.3077 8.01612 11.7074 8.61293C12.1753 9.31155 12.6321 10.0189 13.0871 10.7286C13.4759 11.3347 13.8681 11.9372 14.2678 12.534C14.7399 13.2389 15.201 13.9526 15.6597 14.669C15.7351 14.7868 15.8106 14.9045 15.8861 15.0222C15.9573 15.133 16.0283 15.244 16.0992 15.3551L16.1961 15.506L16.2811 15.6388C16.3605 15.754 16.4446 15.8555 16.5373 15.9567L16.5973 15.863C17.0035 15.2289 17.4137 14.5989 17.8321 13.9754C18.1082 13.5636 18.3794 13.1496 18.6403 12.7252C18.859 12.3722 19.0892 12.0297 19.3196 11.6867C19.6103 11.2537 19.8965 10.818 20.1743 10.3741C20.4868 9.87486 20.8108 9.38671 21.1379 8.89977C21.3845 8.53174 21.6258 8.15916 21.8618 7.78219C22.1732 7.28487 22.4955 6.79812 22.8211 6.31284C23.2162 5.72288 23.6015 5.12494 23.9858 4.52568C24.3884 3.89817 24.7918 3.2716 25.2042 2.65233L25.2937 2.51735C25.9258 1.57316 26.6831 0.8342 27.7296 0.569293C28.8913 0.399556 29.9338 0.57368 30.9115 1.34029C31.8273 2.15541 32.2965 3.16646 32.4818 4.45922C32.5045 4.79903 32.5055 5.13764 32.504 5.47818C32.5054 5.84795 32.5056 6.21773 32.5046 6.58751C32.5042 6.8802 32.5048 7.17282 32.5053 7.46551C32.5061 8.03772 32.5059 8.61007 32.5054 9.18235C32.505 9.64763 32.505 10.113 32.5051 10.5783L32.5052 10.7795L32.5054 11.184C32.5059 12.447 32.5053 13.7099 32.5044 14.9728C32.5036 16.055 32.5038 17.1374 32.5045 18.2196C32.5057 19.6793 32.5059 21.139 32.5051 22.5986C32.5049 23.0632 32.5052 23.5276 32.5056 23.9921C32.5061 24.5585 32.5059 25.125 32.505 25.6914C32.5045 25.9802 32.5044 26.2689 32.505 26.5576C32.5055 26.8224 32.5052 27.0873 32.5043 27.3521C32.5041 27.4473 32.5041 27.5425 32.5046 27.6378C32.5106 29.0862 32.1629 30.2303 31.2961 31.2963C30.5035 32.1517 29.4733 32.4929 28.4084 32.505C27.3425 32.4342 26.4107 31.9167 25.6734 31.0429C24.89 29.997 24.6575 28.8484 24.659 27.4967L24.6572 27.2017C24.6555 26.9378 24.655 26.674 24.6547 26.4101C24.6541 26.1332 24.6526 25.8563 24.6512 25.5794C24.6488 25.0564 24.6469 24.5335 24.6457 24.0105C24.644 23.4145 24.6415 22.8185 24.6388 22.2226C24.6335 20.9979 24.6293 19.7732 24.6259 18.5486L24.2329 19.1249L24.121 19.2889C23.8774 19.6464 23.6373 20.0059 23.4039 20.3721L23.1998 20.6901L22.9966 21.0076C22.537 21.7257 22.0708 22.4381 21.598 23.1449C21.341 23.5292 21.087 23.9161 20.8362 24.3056L20.7363 24.4606C20.5644 24.7281 20.3932 24.9962 20.2227 25.2649C19.2285 26.8276 19.2285 26.8276 18.5158 27.3212L18.3824 27.4141C17.4809 27.9832 16.4068 28.0828 15.421 27.7799C13.922 27.2686 13.1525 25.9034 12.2872 24.5227C12.0152 24.0888 11.7356 23.662 11.4545 23.236C11.2082 22.8619 10.9639 22.486 10.7218 22.1083C10.3959 21.601 10.0631 21.1 9.7283 20.6004C9.36111 20.0514 9.0019 19.496 8.64489 18.9384C8.56081 18.8078 8.47561 18.6783 8.39048 18.5486L8.33229 22.6026C7.30014 22.6079 7.30014 22.6079 6.85637 22.6091C6.55488 22.6099 6.25339 22.6108 5.9519 22.6126C5.70854 22.6141 5.46519 22.6149 5.22183 22.6152C5.12948 22.6154 5.03719 22.6159 4.94484 22.6166C3.67195 22.6262 2.57109 22.3402 1.62931 21.3025C0.8929 20.4528 0.525828 19.3478 0.526002 18.1592L0.52542 17.9819C0.52478 17.7861 0.524547 17.5904 0.524314 17.3947L0.52315 16.9731C0.521986 16.5119 0.521346 16.0506 0.520764 15.5894L0.520008 15.112C0.518902 14.3644 0.518087 13.6167 0.517622 12.869C0.51704 12.0074 0.515527 11.1459 0.513141 10.2844C0.511396 9.61753 0.510523 8.95067 0.510348 8.28375C0.510232 7.886 0.509708 7.48817 0.508253 7.09034C0.506857 6.71565 0.506625 6.34095 0.507206 5.96625C0.507206 5.82935 0.506915 5.69251 0.506042 5.55567C0.497837 4.06272 0.763598 2.82997 1.70363 1.72429C3.18169 0.133918 5.36521 0.168743 6.9539 1.51009Z"
        fill="#0F59E7" />
    <path
        d="M6.95402 1.5102C7.31323 1.8631 7.58749 2.29801 7.86687 2.73139L7.95957 2.87455C8.09309 3.08076 8.22622 3.28732 8.35894 3.49421C8.61754 3.89709 8.88115 4.29531 9.14708 4.69194C9.61506 5.3905 10.0717 6.09796 10.5267 6.80761C10.9156 7.41372 11.3078 8.01624 11.7075 8.61304C12.1754 9.31166 12.6322 10.0191 13.0872 10.7287C13.476 11.3348 13.8682 11.9373 14.2679 12.5341C14.6665 13.1291 15.0575 13.7299 15.4452 14.3343C15.5552 14.5055 15.6654 14.6765 15.7759 14.8473L15.8891 15.0223L16.1044 15.3552L16.2019 15.5061L16.2878 15.6389C16.4796 15.9417 16.4796 15.9417 16.4765 16.0793C16.395 16.29 16.2589 16.4313 16.1155 16.5882L16.0311 16.6835C15.5515 17.2195 15.5515 17.2195 15.3736 17.2195V17.3524C15.2077 17.4594 15.0415 17.5659 14.8753 17.6723L14.7343 17.7633C14.2823 18.0519 13.8365 18.2592 13.3369 18.4158L13.1743 18.4703C12.3998 18.7061 11.5112 18.7618 10.7183 18.6152L10.5693 18.5879C9.41098 18.3483 8.21881 17.7065 7.39022 16.7382C7.28617 16.6058 7.28618 16.6058 7.11038 16.5549C7.00546 16.3979 6.90478 16.2372 6.80848 16.0731C6.533 15.616 6.24652 15.1712 5.95016 14.7314C5.66176 14.3028 5.37801 13.8713 5.10277 13.4313C4.79133 12.934 4.469 12.4471 4.14331 11.9617C3.88733 11.5796 3.63492 11.1944 3.38612 10.8062C3.09925 10.3597 2.80828 9.91657 2.51324 9.47701C2.20791 9.02064 1.90386 8.5632 1.604 8.1021L1.506 7.95284C1.17693 7.44442 0.886439 6.93906 0.720186 6.33269L0.649949 6.08214C0.362948 4.93924 0.530657 3.75626 1.01824 2.71664C1.62431 1.58005 2.51627 0.902169 3.63163 0.565752C4.8419 0.359994 5.97238 0.681391 6.95402 1.5102Z"
        fill="#155FEF" />
    <path
        d="M4.29584 23.5919H4.4284C4.57231 23.5919 4.71616 23.5924 4.86007 23.5929L5.16022 23.5932C5.42301 23.5934 5.6858 23.5941 5.9486 23.5948C6.21692 23.5955 6.4853 23.5958 6.75368 23.5962C7.27985 23.5968 7.80607 23.598 8.33224 23.5994C8.33631 24.1962 8.3394 24.7932 8.34126 25.39C8.34219 25.6673 8.34341 25.9446 8.34539 26.2218C8.34731 26.4903 8.3483 26.7588 8.34883 27.0272C8.34913 27.1287 8.34975 27.2302 8.35069 27.3317C8.3639 28.7951 8.09214 30.1035 7.20839 31.2116C6.39394 32.102 5.3821 32.5157 4.25883 32.505C3.15901 32.4279 2.23842 31.9272 1.48018 31.0182C0.719735 30.0034 0.468929 28.8496 0.523221 27.5445C0.606668 26.392 1.13365 25.3894 1.86204 24.6129C2.55731 23.9586 3.39445 23.5866 4.29584 23.5919Z"
        fill="#125CEB" />
    <path
        d="M26.1971 1.40234L26.3135 1.4688L25.557 2.33277C25.557 2.08701 25.6052 2.04607 25.7461 1.86756L25.8525 1.73045C25.9607 1.60591 26.0719 1.50363 26.1971 1.40234Z"
        fill="#074FDA" />
</svg>