<svg width="32" height="32" viewBox="0 0 32 32" fill="none" xmlns="http://www.w3.org/2000/svg">
    <g clip-path="url(#clip0_1011_1589)">
        <path opacity="0.884" fill-rule="evenodd" clip-rule="evenodd"
            d="M31.5 3.5C31.5 4.83333 31.5 6.16667 31.5 7.5C27.8333 7.5 24.1667 7.5 20.5 7.5C20.6659 12.5111 20.4993 17.5111 20 22.5C19.2155 24.286 18.0488 25.786 16.5 27C6.37315 29.0426 1.70649 24.8759 2.5 14.5C1.5 14.5 0.5 14.5 -0.5 14.5C-0.5 12.8333 -0.5 11.1667 -0.5 9.5C2.1194 9.23166 4.6194 9.565 7 10.5C7.33333 13.8333 7.66667 17.1667 8 20.5C11.0984 24.4407 13.7651 24.1073 16 19.5C16.4994 14.1771 16.666 8.84372 16.5 3.5C21.5 3.5 26.5 3.5 31.5 3.5Z"
            fill="#172837" />
    </g>
    <defs>
        <clipPath id="clip0_1011_1589">
            <rect width="32" height="32" fill="white" />
        </clipPath>
    </defs>
</svg>