<svg width="32" height="32" viewBox="0 0 33 33" fill="none" xmlns="http://www.w3.org/2000/svg">
    <path fill-rule="evenodd" clip-rule="evenodd"
        d="M26.7989 28.3955C25.3987 26.8303 24.0731 25.196 22.8219 23.4929C22.7039 23.3022 22.5351 23.2061 22.3157 23.2045C22.4122 23.1084 22.5085 23.0123 22.605 22.9161C25.1192 20.1649 25.8182 16.9926 24.7019 13.3993C23.074 9.60612 20.1816 7.63548 16.0249 7.48736C11.3325 7.8395 8.39199 10.2908 7.20322 14.8413C6.69787 18.0634 7.58967 20.8031 9.87865 23.0603C9.87865 23.1084 9.87865 23.1565 9.87865 23.2045C8.58379 24.8569 7.25812 26.491 5.90167 28.1071C5.78722 28.2867 5.71491 28.4789 5.68474 28.6839C0.975571 24.3301 -0.735735 18.9949 0.55082 12.6784C2.61816 5.85871 7.17361 1.84531 14.2172 0.638134C21.0878 0.134166 26.3663 2.75369 30.0528 8.49672C32.9246 14.0751 32.8283 19.6026 29.7635 25.0791C28.9475 26.3487 27.9592 27.4542 26.7989 28.3955Z"
        fill="#05A8F6" />
    <path fill-rule="evenodd" clip-rule="evenodd"
        d="M22.6048 22.9161C22.3342 22.8643 22.1173 22.7201 21.954 22.4835C20.0729 20.104 18.1688 17.7487 16.2416 15.418C14.1172 17.9682 11.9962 20.5157 9.87843 23.0603C7.58945 20.8031 6.69766 18.0634 7.20301 14.8412C8.39178 10.2907 11.3323 7.83944 16.0247 7.4873C20.1814 7.63542 23.0738 9.60607 24.7017 13.3993C25.818 16.9926 25.1189 20.1649 22.6048 22.9161Z"
        fill="#FEFEFE" />
    <path fill-rule="evenodd" clip-rule="evenodd"
        d="M22.6048 22.9161C22.5083 23.0122 22.412 23.1083 22.3155 23.2045C18.1708 26.4666 14.0251 26.4666 9.87842 23.2045C9.87842 23.1564 9.87842 23.1083 9.87842 23.0603C11.9961 20.5157 14.1172 17.9682 16.2416 15.418C18.1688 17.7487 20.0729 20.104 21.954 22.4835C22.1172 22.7201 22.3342 22.8643 22.6048 22.9161Z"
        fill="#48C1F9" />
    <path fill-rule="evenodd" clip-rule="evenodd"
        d="M9.87848 23.2046C14.0252 26.4667 18.1708 26.4667 22.3156 23.2046C22.535 23.2062 22.7037 23.3022 22.8217 23.493C24.073 25.1961 25.3985 26.8304 26.7987 28.3956C23.7943 31.1403 20.227 32.5342 16.097 32.5772C12.1565 32.4857 8.6857 31.1879 5.68457 28.684C5.71474 28.4789 5.78705 28.2867 5.9015 28.1072C7.25795 26.4911 8.58362 24.8569 9.87848 23.2046Z"
        fill="#0287D4" />
</svg>