<svg width="32" height="32" viewBox="0 0 32 32" fill="none" xmlns="http://www.w3.org/2000/svg">
<rect width="32" height="32" fill="#222222"/>
<path d="M0.72728 5.83781C0.72728 5.85454 3.57383 13.8145 3.64873 14.0087C3.66328 14.0451 3.75128 14.0473 5.10401 14.0473C6.45673 14.0473 6.54401 14.0451 6.55928 14.0087C6.62546 13.8385 9.48073 5.85672 9.48073 5.83999C9.48073 5.82472 9.13019 5.82036 8.39564 5.82254L7.31055 5.82909L6.46982 8.25236C5.59419 10.7687 5.59637 10.7578 5.16001 12.4036C5.13382 12.4982 5.0851 12.5265 5.06328 12.4574C5.05673 12.4385 4.95201 12.0414 4.82764 11.5789C4.61164 10.7774 4.56073 10.6204 3.7491 8.2829L2.89746 5.82909L1.81237 5.82254C1.1251 5.82036 0.72728 5.82617 0.72728 5.83781ZM13.0531 5.98399L16.7578 15.9004C18.7607 21.2618 20.4109 25.6735 20.4218 25.7062L20.4436 25.7665H23.8313L27.5404 15.8393C28.7843 12.5165 30.024 9.19209 31.2596 5.86618L31.2727 5.81818H28.1055L28.0407 5.98399C28.0066 6.07709 26.9324 8.92945 25.6553 12.3244L23.3302 18.496L22.7775 20.6327L22.2262 22.7716H22.136C22.0851 22.7716 22.0436 22.7673 22.0436 22.7615C22.0436 22.7542 21.7978 21.7985 21.496 20.6349L20.9506 18.5171L18.56 12.1673L16.1695 5.81818H12.9927L13.0531 5.98399ZM1.88292 21.6407V25.7665H8.3251V24.0647H3.83055V22.2974H7.87637V20.5956H3.83055V19.2174H8.17528V17.5156H1.88292V21.6407Z" fill="white"/>
</svg>
