<svg width="32" height="32" viewBox="0 0 32 33" fill="none" xmlns="http://www.w3.org/2000/svg">
    <path opacity="0.5"
        d="M16.0031 9.63086L21.8289 14.4686C22.9046 15.362 22.9046 16.8023 21.8289 17.6905L26.851 13.5202C27.6608 12.8477 27.8542 11.8491 27.4432 11.0311C27.0504 10.2532 26.1077 9.63086 24.9111 9.63086H16.0091H16.0031Z"
        fill="#72E888" />
    <path
        d="M29.5887 20.9173L16.2508 31.993C16.1117 32.1085 15.8882 32.1085 15.7492 31.993L10.4249 27.5718C10.2859 27.4563 10.2859 27.2707 10.4249 27.1552L26.8449 13.5202C27.6548 12.8477 27.8481 11.8491 27.4372 11.0311C27.0444 10.2532 26.1016 9.63086 24.905 9.63086C26.6636 9.63086 28.3497 10.208 29.5887 11.2418C32.8038 13.9116 32.8038 18.2425 29.5887 20.9173Z"
        fill="#72E888" />
    <path opacity="0.5"
        d="M16.003 22.5282L10.1771 17.6904C9.10138 16.7972 9.10138 15.3569 10.1771 14.4686L5.15502 18.6389C4.34519 19.3114 4.1518 20.31 4.56275 21.1281C4.95558 21.9059 5.89836 22.5282 7.09495 22.5282H15.9969H16.003Z"
        fill="#72E888" />
    <path
        d="M2.41133 11.2418L15.7492 0.166158C15.8882 0.0507338 16.1117 0.0507338 16.2508 0.166158L21.575 4.58739C21.7141 4.70282 21.7141 4.8885 21.575 5.00392L5.15504 18.639C4.34523 19.3115 4.15184 20.3101 4.56279 21.1281C4.95562 21.906 5.89839 22.5283 7.09499 22.5283C5.33634 22.5283 3.65023 21.9512 2.41133 20.9174C-0.803776 18.2475 -0.803776 13.9166 2.41133 11.2418Z"
        fill="#72E888" />
</svg>