<svg width="32" height="32" viewBox="0 0 33 33" fill="none" xmlns="http://www.w3.org/2000/svg">
    <path opacity="0.991" fill-rule="evenodd" clip-rule="evenodd"
        d="M11.4665 0.5C17.6007 0.663553 21.5732 4.74534 23.3837 12.7452C24.345 19.6324 22.8239 25.2295 18.8206 29.537C14.4006 33.4051 9.94087 33.486 5.44149 29.7794C0.835192 24.893 -0.626768 18.6088 1.05561 10.9266C3.00084 4.59512 6.47115 1.11954 11.4665 0.5Z"
        fill="black" />
    <path opacity="0.964" fill-rule="evenodd" clip-rule="evenodd"
        d="M23.6053 1.1062C27.4153 2.49961 30.0881 5.69222 31.6239 10.6842C33.4546 18.5656 31.9631 24.9711 27.1494 29.9007C26.0593 30.8687 24.878 31.5355 23.6053 31.9011C23.5758 30.4843 23.6053 29.0699 23.6939 27.6577C27.299 25.6157 29.2187 21.9179 29.4531 16.5643C29.2412 11.1462 27.3214 7.40789 23.6939 5.3496C23.6053 3.9374 23.5758 2.52301 23.6053 1.1062Z"
        fill="black" />
</svg>