<svg width="32" height="32" viewBox="0 0 32 32" fill="none" xmlns="http://www.w3.org/2000/svg">
    <g clip-path="url(#clip0_892_1950)">
        <path opacity="0.999" fill-rule="evenodd" clip-rule="evenodd"
            d="M5.6899 -0.0429688C12.5063 -0.0429688 19.3227 -0.0429688 26.1391 -0.0429688C29.2663 0.65992 31.2056 2.57079 31.9573 5.68965C31.9573 12.5061 31.9573 19.3224 31.9573 26.1388C31.2544 29.266 29.3435 31.2054 26.2247 31.957C19.4082 31.957 12.5919 31.957 5.77546 31.957C2.64831 31.2541 0.708917 29.3433 -0.0427246 26.2244C-0.0427246 19.408 -0.0427246 12.5916 -0.0427246 5.77521C0.660164 2.64807 2.57103 0.708673 5.6899 -0.0429688Z"
            fill="#623BEA" />
        <path fill-rule="evenodd" clip-rule="evenodd"
            d="M5.5187 12.3638C6.0874 12.2861 6.60077 12.4144 7.05881 12.7488C7.44126 13.1885 7.75498 13.6733 7.99999 14.2033C7.55533 15.0786 7.05622 15.92 6.50266 16.7274C6.31579 17.0154 6.2017 17.3292 6.16041 17.6686C5.53297 16.5848 4.90551 15.5011 4.27806 14.4172C4.14658 13.3959 4.56012 12.7114 5.5187 12.3638Z"
            fill="#FDFCFE" />
        <path fill-rule="evenodd" clip-rule="evenodd"
            d="M10.139 12.3634C11.1545 12.2792 11.8532 12.707 12.2352 13.6469C12.3162 14.1749 12.202 14.6597 11.893 15.1014C11.1014 16.3706 10.3313 17.654 9.58283 18.9517C8.55179 19.8102 7.61061 19.7246 6.7593 18.695C6.56162 18.2872 6.50457 17.8594 6.58817 17.4116C7.42222 15.9429 8.27783 14.4883 9.15502 13.0479C9.45294 12.7622 9.7809 12.534 10.139 12.3634Z"
            fill="#FDFCFE" />
        <path fill-rule="evenodd" clip-rule="evenodd"
            d="M15.3583 12.4493C17.2186 12.274 18.6018 12.987 19.508 14.5883C20.2029 17.0631 19.3331 18.703 16.8984 19.5081C14.7196 19.8099 13.2507 18.94 12.492 16.8985C12.1761 14.592 13.1315 13.1089 15.3583 12.4493Z"
            fill="#FDFCFE" />
        <path fill-rule="evenodd" clip-rule="evenodd"
            d="M23.4866 12.3634C25.5722 12.2993 26.9555 13.2404 27.6363 15.187C27.8549 17.3611 26.928 18.7728 24.8556 19.4222C24.1404 19.6088 23.4416 19.566 22.7593 19.2939C22.7308 20.0355 22.7022 20.7769 22.6738 21.5185C22.3543 22.1132 21.8551 22.3556 21.1764 22.2458C20.6708 22.1107 20.3713 21.7827 20.278 21.2618C20.221 19.3224 20.221 17.3831 20.278 15.4436C20.6959 13.728 21.7654 12.7012 23.4866 12.3634Z"
            fill="#FDFCFE" />
        <path fill-rule="evenodd" clip-rule="evenodd"
            d="M23.5722 14.7593C24.688 14.6917 25.2157 15.2051 25.1551 16.2994C24.7391 17.0852 24.1259 17.2991 23.3156 16.9411C22.4599 16.1002 22.5455 15.3729 23.5722 14.7593Z"
            fill="#653FEA" />
        <path fill-rule="evenodd" clip-rule="evenodd"
            d="M15.7005 14.8449C16.9286 14.8028 17.4278 15.3732 17.1978 16.5562C16.8156 17.1196 16.2879 17.305 15.615 17.1123C14.8897 16.759 14.6758 16.2029 14.9733 15.4439C15.1841 15.1888 15.4265 14.9892 15.7005 14.8449Z"
            fill="#643EEA" />
    </g>
    <defs>
        <clipPath id="clip0_892_1950">
            <rect width="32" height="32" fill="white" />
        </clipPath>
    </defs>
</svg>