<svg width="32" height="32" viewBox="0 0 32 33" fill="none" xmlns="http://www.w3.org/2000/svg">
    <path
        d="M11.5906 27.7604C11.3748 27.869 11.1322 27.9312 10.8831 27.9416C10.634 27.9522 10.3856 27.9108 10.1586 27.8209C9.93173 27.731 9.73288 27.5951 9.57872 27.4248C9.42455 27.2545 9.31955 27.0545 9.2725 26.8418C9.0418 25.8651 8.95871 24.8665 9.0253 23.8712C9.20478 20.953 10.633 18.1983 13.0298 16.1477V6.9209C13.0331 6.68156 12.9615 6.44595 12.8226 6.23919C12.6838 6.03244 12.483 5.86231 12.2416 5.74698L2.34013 0.781664C2.10316 0.662809 1.83436 0.600187 1.56073 0.600098C1.28708 0.599998 1.01823 0.662431 0.781147 0.78112C0.544061 0.89982 0.347083 1.0706 0.209982 1.27633C0.0728811 1.48205 0.000480162 1.71549 4.56104e-05 1.9532V31.2416C-0.00205966 31.4802 0.0687507 31.715 0.205246 31.922C0.341742 32.129 0.539034 32.3009 0.776977 32.42C1.01492 32.5391 1.28499 32.6012 1.55962 32.6001C1.83425 32.5989 2.10358 32.5343 2.34013 32.4132L11.5906 27.7604Z"
        fill="url(#paint0_linear_1454_548)" />
    <path
        d="M31.4842 15.6989C29.5791 14.2332 27.2368 13.2638 24.7262 12.9024C22.2157 12.5408 19.6387 12.8017 17.2911 13.6552C14.9436 14.5085 12.9206 15.9197 11.4546 17.7268C9.98862 19.5338 9.13901 21.6635 9.00332 23.871C8.93591 24.8664 9.019 25.865 9.25052 26.8416C9.2987 27.0538 9.40434 27.253 9.55872 27.4227C9.7131 27.5925 9.91177 27.7278 10.1383 27.8176C10.3648 27.9074 10.6127 27.9489 10.8614 27.939C11.1102 27.929 11.3526 27.8677 11.5686 27.7603L31.2149 17.8869C31.429 17.7799 31.611 17.6304 31.746 17.4506C31.8808 17.2708 31.9648 17.0658 31.9912 16.8525C32.0174 16.6391 31.9851 16.4233 31.897 16.2228C31.8089 16.0224 31.6674 15.8428 31.4842 15.6989Z"
        fill="url(#paint1_linear_1454_548)" />
    <defs>
        <linearGradient id="paint0_linear_1454_548" x1="6.51493" y1="4.97152" x2="6.51493"
            y2="29.5189" gradientUnits="userSpaceOnUse">
            <stop stop-color="#3D6ED0" />
            <stop offset="0.08" stop-color="#3D6DD6" />
            <stop offset="0.41" stop-color="#3F6BED" />
            <stop offset="0.72" stop-color="#4069FA" />
            <stop offset="1" stop-color="#4069FF" />
        </linearGradient>
        <linearGradient id="paint1_linear_1454_548" x1="8.98135" y1="20.3445" x2="32.0005"
            y2="20.3445" gradientUnits="userSpaceOnUse">
            <stop stop-color="#FF9A71" />
            <stop offset="1" stop-color="#FF6E5C" />
        </linearGradient>
    </defs>
</svg>