<svg width="32" height="32" viewBox="0 0 32 32" fill="none" xmlns="http://www.w3.org/2000/svg">
    <g clip-path="url(#clip0_961_106)">
        <path opacity="0.986" fill-rule="evenodd" clip-rule="evenodd"
            d="M13.5832 -0.0834961C15.1387 -0.0834961 16.6943 -0.0834961 18.2498 -0.0834961C25.7498 1.52762 30.3053 6.08317 31.9165 13.5832C31.9165 15.1387 31.9165 16.6943 31.9165 18.2498C30.3053 25.7498 25.7498 30.3053 18.2498 31.9165C16.6943 31.9165 15.1387 31.9165 13.5832 31.9165C6.08317 30.3053 1.52762 25.7498 -0.0834961 18.2498C-0.0834961 16.6943 -0.0834961 15.1387 -0.0834961 13.5832C1.52762 6.08317 6.08317 1.52762 13.5832 -0.0834961Z"
            fill="#047AB8" />
        <path fill-rule="evenodd" clip-rule="evenodd"
            d="M5.0835 11.5831C5.97411 11.5554 6.86301 11.5832 7.75016 11.6664C8.41158 11.8272 8.93935 12.1883 9.3335 12.7498C10.5557 15.4164 11.7779 18.0831 13.0002 20.7498C13.5286 21.2676 14.1397 21.3788 14.8335 21.0831C14.8009 21.4573 14.6065 21.7628 14.2502 21.9998C12.5823 22.7676 10.9156 22.7676 9.25016 21.9998C9.00016 21.7498 8.75016 21.4998 8.50016 21.2498C7.0796 18.1269 5.94071 14.9047 5.0835 11.5831Z"
            fill="#FBFCFC" />
        <path fill-rule="evenodd" clip-rule="evenodd"
            d="M12.7498 11.4165C14.3353 11.2256 15.8353 11.4756 17.2498 12.1665C17.7935 12.5985 18.2102 13.1263 18.4998 13.7498C19.6565 16.1187 20.7677 18.5077 21.8332 20.9165C22.3037 21.4283 22.8592 21.5395 23.4998 21.2498C23.291 22.0095 22.7632 22.4262 21.9165 22.4998C19.6362 23.1107 17.8307 22.4717 16.4998 20.5832C15.2776 18.0277 14.0554 15.4721 12.8332 12.9165C12.2776 12.4721 11.7221 12.4721 11.1665 12.9165C11.1991 12.5423 11.3935 12.2368 11.7498 11.9998C12.1211 11.843 12.4544 11.6486 12.7498 11.4165Z"
            fill="#FBFCFC" />
        <path fill-rule="evenodd" clip-rule="evenodd"
            d="M23.4168 11.5831C24.1967 11.5555 24.9743 11.5832 25.7502 11.6664C26.157 11.6724 26.4903 11.8113 26.7502 12.0831C25.8942 14.54 25.0053 16.9844 24.0835 19.4164C23.1373 17.5514 22.304 15.6348 21.5835 13.6664C21.8698 12.6716 22.4808 11.9772 23.4168 11.5831Z"
            fill="#FBFCFC" />
    </g>
    <defs>
        <clipPath id="clip0_961_106">
            <rect width="32" height="32" fill="white" />
        </clipPath>
    </defs>
</svg>