<svg width="32" height="32" viewBox="0 0 33 33" fill="none" xmlns="http://www.w3.org/2000/svg">
    <path
        d="M14.5131 0.668836L0.0999756 6.71827L8.36931 10.2004L14.5131 7.63306C15.0954 7.39698 15.5322 6.77729 15.5322 6.27563V1.1705C15.5322 0.668836 15.0954 0.432761 14.5131 0.668836Z"
        fill="#0F1928" />
    <path
        d="M14.5131 13.8299L11.5722 12.5906L8.36931 11.2331L0.0999756 7.78052V14.7152L3.30289 16.0432L11.6013 19.5253L14.5422 20.7647C15.1245 21.0007 15.5613 20.7942 15.5613 20.263V16.9579V15.1874C15.5322 14.6857 15.0954 14.066 14.5131 13.8299Z"
        fill="#0F1928" />
    <path
        d="M17.5995 7.63304L23.7433 10.2004L32.0126 6.71825L17.5995 0.668819C17.0171 0.432743 16.5804 0.639309 16.5804 1.17048V6.27561C16.5804 6.77727 17.0463 7.39697 17.5995 7.63304Z"
        fill="#0F1928" />
    <path
        d="M17.5995 20.7942L20.5403 19.5548L28.8388 16.0727L32.0417 14.7447V7.78052L23.7433 11.2626L20.5403 12.6201L17.5995 13.8595C17.0171 14.0955 16.5804 14.7152 16.5804 15.2169V16.9875V20.322C16.5804 20.7942 17.0463 21.0302 17.5995 20.7942Z"
        fill="#0F1928" />
    <path d="M11.5722 20.5287L3.30289 17.076L0.0999756 18.404L8.36931 21.8861L11.5722 20.5287Z"
        fill="#0F1928" />
    <path
        d="M14.5131 25.5157L8.36931 22.9484L0.0999756 19.4663V26.401L14.5131 32.4505C15.0954 32.6865 15.5322 32.48 15.5322 31.9488V26.8732C15.5322 26.3715 15.0954 25.7518 14.5131 25.5157Z"
        fill="#0F1928" />
    <path d="M28.8971 17.076L20.6277 20.5287L23.8307 21.8861L32.1 18.404L28.8971 17.076Z"
        fill="#0F1928" />
    <path
        d="M23.8307 22.9484L17.6869 25.5157C17.1045 25.7518 16.6678 26.3715 16.6678 26.8732V31.9783C16.6678 32.48 17.1337 32.716 17.6869 32.48L32.1 26.4305V19.4663L23.8307 22.9484Z"
        fill="#0F1928" />
</svg>