<svg width="32" height="32" viewBox="0 0 33 33" fill="none" xmlns="http://www.w3.org/2000/svg">
    <path fill-rule="evenodd" clip-rule="evenodd"
        d="M20.966 1.8661C18.0127 0.955595 15.0587 0.955595 12.1053 1.8661C13.2797 0.978136 14.7567 0.522541 16.5357 0.5C18.3146 0.522541 19.7916 0.978136 20.966 1.8661Z"
        fill="#FAD1A0" />
    <path fill-rule="evenodd" clip-rule="evenodd"
        d="M20.966 1.86599C26.2988 3.44998 30.0476 6.86524 32.2123 12.1118C32.7671 15.1991 32.6533 18.1595 31.8715 20.9914C31.9846 18.2497 31.8708 15.5174 31.5307 12.7948C31.194 13.9109 31.0809 15.0496 31.1899 16.2101C29.5807 16.0912 27.9905 15.8638 26.4188 15.527C26.6123 16.8351 26.3854 17.973 25.7372 18.9423C26.2259 14.2265 24.4081 10.8112 20.2845 8.6965C19.6083 7.65416 18.5859 7.19857 17.2173 7.3304C16.2733 7.33996 15.4786 7.5681 14.8317 8.01345C8.98912 9.6999 6.60356 13.5708 7.67502 19.6253C8.33752 20.8582 9.13294 21.9969 10.0606 23.0406C9.81862 23.7387 9.364 24.1942 8.6974 24.4067C8.78669 23.8083 8.55972 23.3527 8.01581 23.0406C6.07669 23.2223 4.48653 23.9053 3.24468 25.0897C-1.39151 16.8214 -0.0283253 9.64935 7.33422 3.57361C8.65719 2.27377 10.2473 1.70479 12.1054 1.86599C15.0587 0.955479 18.0127 0.955479 20.966 1.86599Z"
        fill="#FA9734" />
    <path fill-rule="evenodd" clip-rule="evenodd"
        d="M14.8318 8.01359C15.4786 7.56824 16.2734 7.3401 17.2174 7.33054C18.586 7.19871 19.6084 7.65431 20.2845 8.69664C18.5151 8.17411 16.6973 7.94597 14.8318 8.01359Z"
        fill="#F0B375" />
    <path fill-rule="evenodd" clip-rule="evenodd"
        d="M14.8317 8.01355C16.6972 7.94593 18.515 8.17407 20.2844 8.6966C24.408 10.8113 26.2258 14.2266 25.7371 18.9424C24.4326 22.1281 22.1601 24.2913 18.9212 25.4314C15.9563 25.6827 13.003 26.0242 10.0605 26.4559C8.19366 26.4238 7.73972 25.7408 8.69735 24.4068C9.36395 24.1944 9.81857 23.7388 10.0605 23.0407C9.13289 21.997 8.33747 20.8583 7.67497 19.6254C6.60351 13.5709 8.98907 9.7 14.8317 8.01355Z"
        fill="#FEFBF5" />
    <path fill-rule="evenodd" clip-rule="evenodd"
        d="M31.8716 20.9915C27.7698 30.8343 20.4992 34.3636 10.0607 31.5788C6.99827 30.2168 4.72653 28.0543 3.24475 25.0898C4.48661 23.9054 6.07676 23.2224 8.01589 23.0407C8.5598 23.3528 8.78677 23.8084 8.69748 24.4068C7.73984 25.7408 8.19378 26.4238 10.0607 26.4559C13.0031 26.0243 15.9564 25.6827 18.9213 25.4314C22.1603 24.2914 24.4327 22.1281 25.7373 18.9424C26.3854 17.9731 26.6124 16.8352 26.4188 15.5271C27.9906 15.8639 29.5807 16.0913 31.19 16.2102C31.0809 15.0497 31.1941 13.911 31.5308 12.7949C31.8709 15.5176 31.9847 18.2498 31.8716 20.9915Z"
        fill="#FA810F" />
</svg>