<svg width="32" height="32" viewBox="0 0 32 32" fill="none" xmlns="http://www.w3.org/2000/svg">
<path d="M13.4184 12.7735C13.2762 12.8091 13.0984 12.738 12.9917 12.5957L12.3517 11.778C12.2806 11.6713 12.2451 11.458 12.2806 11.3513L12.6717 10.3913C12.7073 10.2491 12.8851 10.1424 13.0273 10.1068L14.0584 9.96463C14.2006 9.92907 14.3784 10.0002 14.4851 10.1424L15.1251 10.9602C15.1962 11.0668 15.2317 11.2802 15.1962 11.3868L14.8051 12.3468C14.7695 12.4891 14.5917 12.5957 14.4495 12.6313L13.4184 12.7735Z" fill="#06A9EF"/>
<path d="M15.9073 9.57352C15.7651 9.60908 15.5873 9.53797 15.4806 9.39575L14.8762 8.64908C14.8051 8.54241 14.7695 8.32908 14.8051 8.22241L15.1606 7.33352C15.1962 7.1913 15.3739 7.08464 15.5162 7.04908L16.4406 6.90686C16.5828 6.8713 16.7606 6.94241 16.8673 7.08464L17.4717 7.8313C17.5428 7.93797 17.5784 8.1513 17.5428 8.25797L17.1873 9.14686C17.1517 9.28908 16.9739 9.39575 16.8317 9.4313L15.9073 9.57352Z" fill="#06A9EF"/>
<path d="M17.2228 13.4846C17.0806 13.5202 16.9028 13.4491 16.7962 13.3068L16.0495 12.3824C15.9784 12.2757 15.9428 12.0624 15.9784 11.9557L16.4051 10.8535C16.4406 10.7113 16.6184 10.6046 16.7606 10.5691L17.934 10.3913C18.0762 10.3557 18.254 10.4268 18.3606 10.5691L19.1073 11.4935C19.1784 11.6002 19.214 11.8135 19.1784 11.9202L18.7517 13.0224C18.7162 13.1646 18.5384 13.2713 18.3962 13.3068L17.2228 13.4846Z" fill="#06A9EF"/>
<path d="M19.7473 10.1424C19.6051 10.1779 19.4273 10.1068 19.3206 9.96462L18.7517 9.25351C18.6806 9.14684 18.6451 8.93351 18.6806 8.82684L19.0006 8.00906C19.0362 7.86684 19.214 7.76017 19.3562 7.72462L20.2451 7.58239C20.3873 7.54684 20.5651 7.61795 20.6717 7.76017L21.2406 8.47128C21.3117 8.57795 21.3473 8.79128 21.3117 8.89795L20.9917 9.71573C20.9562 9.85795 20.7784 9.96462 20.6362 10.0002L19.7473 10.1424Z" fill="#06A9EF"/>
<path d="M22.4495 7.54685C22.3073 7.5824 22.1295 7.51129 22.0228 7.36907L21.5962 6.83574C21.5251 6.72907 21.4895 6.51573 21.5251 6.40907L21.7739 5.76907C21.8095 5.62685 21.9873 5.52018 22.1295 5.48462L22.8051 5.37796C22.9473 5.3424 23.1251 5.41351 23.2317 5.55574L23.6584 6.08907C23.7295 6.19574 23.7651 6.40907 23.7295 6.51574L23.4806 7.15574C23.4451 7.29796 23.2673 7.40462 23.1251 7.44018L22.4495 7.54685Z" fill="#06A9EF"/>
<path d="M25.1162 5.55574C24.974 5.59129 24.7962 5.52018 24.6895 5.37796L24.4762 5.12907C24.4051 5.02241 24.3695 4.80907 24.4051 4.70241L24.5473 4.38241C24.5828 4.24018 24.7606 4.13352 24.9028 4.09796L25.2228 4.06241C25.3651 4.02685 25.5428 4.09796 25.6495 4.24018L25.8628 4.48907C25.934 4.59574 25.9695 4.80907 25.934 4.91574L25.7917 5.23574C25.7562 5.37796 25.5784 5.48463 25.4362 5.52018L25.1162 5.55574Z" fill="#06A9EF"/>
<path d="M25.9695 8.82687C25.8273 8.86242 25.6495 8.79131 25.5428 8.64909L25.294 8.32909C25.2228 8.22242 25.1873 8.00909 25.2228 7.90242L25.3651 7.54687C25.4006 7.40465 25.5784 7.29798 25.7206 7.26242L26.1117 7.19131C26.254 7.15576 26.4317 7.22687 26.5384 7.36909L26.7873 7.68909C26.8584 7.79576 26.894 8.00909 26.8584 8.11576L26.7162 8.47131C26.6806 8.61353 26.5028 8.7202 26.3606 8.75576L25.9695 8.82687Z" fill="#06A9EF"/>
<path d="M28.2806 7.86686C28.1384 7.90241 27.9606 7.79575 27.854 7.68908L27.7828 7.58241C27.7117 7.47575 27.6762 7.26241 27.7117 7.15575L27.7473 7.04908C27.7828 6.90686 27.9606 6.80019 28.1028 6.76464L28.2451 6.72908C28.3873 6.69353 28.5651 6.80019 28.6717 6.90686L28.7428 7.01353C28.814 7.12019 28.8495 7.33353 28.814 7.44019L28.7784 7.54686C28.7428 7.68908 28.5651 7.79575 28.4228 7.8313L28.2806 7.86686Z" fill="#06A9EF"/>
<path d="M23.3739 11.0313C23.2317 11.0668 23.0539 10.9957 22.9473 10.8535L22.4851 10.2846C22.4139 10.178 22.3784 9.96462 22.4139 9.85795L22.6984 9.1824C22.7339 9.04018 22.9117 8.93351 23.0539 8.89795L23.8006 8.79129C23.9428 8.75573 24.1206 8.82684 24.2273 8.96907L24.6895 9.53795C24.7606 9.64462 24.7962 9.85795 24.7606 9.96462L24.4762 10.6402C24.4406 10.7824 24.2628 10.8891 24.1206 10.9246L23.3739 11.0313Z" fill="#06A9EF"/>
<path d="M26.3251 11.9558C26.1829 11.9913 26.0051 11.9202 25.8984 11.778L25.5784 11.3869C25.5073 11.2802 25.4717 11.0669 25.5073 10.9602L25.6851 10.498C25.7206 10.3558 25.8984 10.2491 26.0406 10.2135L26.5384 10.1424C26.6806 10.1069 26.8584 10.178 26.9651 10.3202L27.2851 10.7113C27.3562 10.818 27.3917 11.0313 27.3562 11.138L27.1784 11.6002C27.1429 11.7424 26.9651 11.8491 26.8229 11.8846L26.3251 11.9558Z" fill="#06A9EF"/>
<path d="M28.9917 11.3869C28.8495 11.4224 28.6717 11.3513 28.5651 11.2091L28.3162 10.8891C28.2451 10.7824 28.2095 10.5691 28.2451 10.4624L28.3873 10.1069C28.4228 9.96464 28.6006 9.85798 28.7428 9.82242L29.1339 9.75131C29.2762 9.71575 29.4539 9.78686 29.5606 9.92909L29.8095 10.2491C29.8806 10.3558 29.9162 10.5691 29.8806 10.6758L29.7384 11.0313C29.7028 11.1735 29.5251 11.2802 29.3828 11.3158L28.9917 11.3869Z" fill="#06A9EF"/>
<path d="M21.5606 3.67131C21.4184 3.70686 21.2406 3.63575 21.134 3.49353L20.9562 3.24464C20.8851 3.13797 20.8495 2.92464 20.8851 2.81797L20.9917 2.53353C21.0273 2.39131 21.2051 2.28464 21.3473 2.24908L21.6317 2.21353C21.774 2.17797 21.9517 2.24908 22.0584 2.39131L22.2362 2.6402C22.3073 2.74686 22.3429 2.9602 22.3073 3.06686L22.2006 3.35131C22.1651 3.49353 21.9873 3.6002 21.8451 3.63575L21.5606 3.67131Z" fill="#06A9EF"/>
<path d="M17.8629 2.88907C17.7206 2.92463 17.5429 2.85352 17.4362 2.7113L17.1162 2.32019C17.0451 2.21352 17.0095 2.00019 17.0451 1.89352L17.2229 1.4313C17.2584 1.28907 17.4362 1.18241 17.5784 1.14685L18.0762 1.07574C18.2184 1.04019 18.3962 1.1113 18.5029 1.25352L18.8229 1.64463C18.894 1.7513 18.9295 1.96463 18.894 2.0713L18.7162 2.53352C18.6806 2.67574 18.5029 2.78241 18.3606 2.81796L17.8629 2.88907Z" fill="#06A9EF"/>
<path d="M13.8451 2.99574C13.7028 3.03129 13.5251 2.96018 13.4184 2.81796L13.0628 2.39129C12.9917 2.28463 12.9562 2.07129 12.9917 1.96463L13.2051 1.46685C13.2406 1.32463 13.4184 1.21796 13.5606 1.18241L14.094 1.11129C14.2362 1.07574 14.414 1.14685 14.5206 1.28907L14.8762 1.71574C14.9473 1.82241 14.9828 2.03574 14.9473 2.14241L14.734 2.64018C14.6984 2.78241 14.5206 2.88907 14.3784 2.92463L13.8451 2.99574Z" fill="#06A9EF"/>
<path d="M10.574 3.1024C10.4317 3.13795 10.254 3.06684 10.1473 2.92462L9.96952 2.71128C9.89841 2.60462 9.86285 2.39128 9.89841 2.28462L10.0051 2.00017C10.0406 1.85795 10.2184 1.75128 10.3606 1.71573L10.6451 1.68017C10.7873 1.64462 10.9651 1.71573 11.0717 1.85795L11.2495 2.07128C11.3206 2.17795 11.3562 2.39128 11.3206 2.49795L11.214 2.7824C11.1784 2.92462 11.0006 3.03128 10.8584 3.06684L10.574 3.1024Z" fill="#06A9EF"/>
<path d="M15.0184 5.98241C14.8762 6.01796 14.6984 5.94685 14.5917 5.80463L14.2006 5.30685C14.1295 5.20018 14.094 4.98685 14.1295 4.88018L14.3784 4.27574C14.414 4.13352 14.5917 4.02685 14.734 3.9913L15.374 3.88463C15.5162 3.84907 15.694 3.95574 15.8006 4.06241L16.1917 4.56018C16.2629 4.66685 16.2984 4.88018 16.2629 4.98685L16.014 5.5913C15.9784 5.73352 15.8006 5.84018 15.6584 5.87574L15.0184 5.98241Z" fill="#06A9EF"/>
<path d="M18.7517 6.58685C18.6095 6.62241 18.4317 6.5513 18.3251 6.40908L17.8984 5.87574C17.8273 5.76908 17.7917 5.55574 17.8273 5.44908L18.0762 4.80908C18.1117 4.66685 18.2895 4.56019 18.4317 4.52463L19.1073 4.41797C19.2495 4.38241 19.4273 4.45352 19.5339 4.59574L19.9606 5.12908C20.0317 5.23574 20.0673 5.44908 20.0317 5.55574L19.7828 6.19574C19.7473 6.33797 19.5695 6.44463 19.4273 6.48019L18.7517 6.58685Z" fill="#06A9EF"/>
<path d="M12.3517 8.96906C12.2095 9.00462 12.0317 8.93351 11.9251 8.79128L11.4628 8.2224C11.3917 8.11573 11.3562 7.9024 11.3917 7.79573L11.6762 7.12017C11.7117 6.97795 11.8895 6.87128 12.0317 6.83573L12.7784 6.72906C12.9206 6.69351 13.0984 6.76462 13.2051 6.90684L13.6673 7.47573C13.7384 7.58239 13.7739 7.79573 13.7384 7.9024L13.4539 8.57795C13.4184 8.72017 13.2406 8.82684 13.0984 8.8624L12.3517 8.96906Z" fill="#06A9EF"/>
<path d="M11.4273 5.76907C11.2851 5.80463 11.1073 5.73352 11.0006 5.5913L10.7162 5.23574C10.6451 5.12907 10.6095 4.91574 10.6451 4.80907L10.8228 4.38241C10.8584 4.24019 11.0362 4.13352 11.1784 4.09796L11.6406 4.02685C11.7828 3.9913 11.9606 4.06241 12.0673 4.20463L12.3517 4.56019C12.4228 4.66685 12.4584 4.88019 12.4228 4.98685L12.2451 5.41352C12.2095 5.55574 12.0317 5.66241 11.8895 5.69796L11.4273 5.76907Z" fill="#06A9EF"/>
<path d="M8.01394 5.52018C7.87172 5.55574 7.69395 5.48463 7.58728 5.34241L7.33839 5.02241C7.26727 4.91574 7.23172 4.70241 7.26728 4.59574L7.4095 4.24018C7.44506 4.09796 7.62283 3.9913 7.76506 3.95574L8.15616 3.88463C8.29839 3.84907 8.47616 3.95574 8.58283 4.06241L8.83172 4.38241C8.90283 4.48907 8.93839 4.70241 8.90283 4.80907L8.76061 5.16463C8.72505 5.30685 8.54727 5.41352 8.40505 5.44907L8.01394 5.52018Z" fill="#06A9EF"/>
<path d="M5.63173 5.55576C5.48951 5.59131 5.31173 5.5202 5.20506 5.37798L5.06284 5.2002C4.99173 5.09353 4.95618 4.8802 4.99173 4.77353L5.06284 4.5602C5.0984 4.41798 5.27618 4.31131 5.4184 4.27576L5.63173 4.2402C5.77396 4.20465 5.95173 4.27576 6.0584 4.41798L6.20062 4.59576C6.27173 4.70242 6.30728 4.91576 6.27173 5.02242L6.20062 5.2002C6.16506 5.34242 5.98729 5.44909 5.84506 5.48465L5.63173 5.55576Z" fill="#06A9EF"/>
<path d="M8.61841 8.57797C8.47619 8.61352 8.29841 8.54241 8.19174 8.40019L7.87174 8.00908C7.80063 7.90241 7.76508 7.68908 7.80063 7.58241L7.97841 7.12019C8.01396 6.97797 8.19174 6.8713 8.33396 6.83575L8.83175 6.76463C8.97397 6.72908 9.15174 6.83575 9.25841 6.94241L9.57841 7.33352C9.64952 7.44019 9.68507 7.65352 9.64952 7.76019L9.47174 8.22241C9.43619 8.36463 9.25841 8.4713 9.11619 8.50686L8.61841 8.57797Z" fill="#06A9EF"/>
<path d="M5.45395 8.36462C5.31172 8.40018 5.13394 8.32906 5.02728 8.18684L4.77839 7.86684C4.70728 7.76018 4.67172 7.54684 4.70728 7.44018L4.8495 7.04906C4.88505 6.90684 5.06283 6.80018 5.20505 6.76462L5.63172 6.69351C5.77395 6.65795 5.95172 6.72906 6.05839 6.87129L6.30728 7.19129C6.37839 7.29795 6.41394 7.51129 6.37839 7.61795L6.23617 8.00906C6.20061 8.15129 6.02283 8.25795 5.88061 8.29351L5.45395 8.36462Z" fill="#06A9EF"/>
<path d="M9.61394 12.1335C9.47172 12.1691 9.29394 12.098 9.18727 11.9557L8.65394 11.2802C8.58283 11.1735 8.54727 10.9602 8.58283 10.8535L8.90283 10.0357C8.93838 9.89351 9.11616 9.78685 9.25838 9.75129L10.1117 9.60907C10.2539 9.57351 10.4317 9.64462 10.5384 9.78684L11.0717 10.4624C11.1428 10.5691 11.1784 10.7824 11.1428 10.8891L10.8228 11.7068C10.7873 11.8491 10.6095 11.9557 10.4673 11.9913L9.61394 12.1335Z" fill="#06A9EF"/>
<path d="M21.134 14.018C20.9917 14.0535 20.814 13.9824 20.7073 13.8402L20.0673 13.0224C19.9962 12.9157 19.9606 12.7024 19.9962 12.5957L20.3873 11.6357C20.4229 11.4935 20.6006 11.3869 20.7429 11.3513L21.774 11.2091C21.9162 11.1735 22.094 11.2446 22.2006 11.3869L22.8406 12.2046C22.9117 12.3113 22.9473 12.5246 22.9117 12.6313L22.5206 13.5913C22.4851 13.7335 22.3073 13.8402 22.1651 13.8757L21.134 14.018Z" fill="#06A9EF"/>
<path d="M24.5828 14.8002C24.4406 14.8357 24.2628 14.7646 24.1562 14.6224L23.6939 14.0535C23.6228 13.9468 23.5873 13.7335 23.6228 13.6268L23.9073 12.9513C23.9428 12.8091 24.1206 12.7024 24.2628 12.6668L25.0095 12.5602C25.1517 12.5246 25.3295 12.5957 25.4362 12.738L25.8984 13.3068C25.9695 13.4135 26.0051 13.6268 25.9695 13.7335L25.6851 14.4091C25.6495 14.5513 25.4717 14.658 25.3295 14.6935L24.5828 14.8002Z" fill="#06A9EF"/>
<path d="M27.9962 15.1913C27.8539 15.2268 27.6762 15.1557 27.5695 15.0135L27.1428 14.4802C27.0717 14.3735 27.0362 14.1602 27.0717 14.0535L27.3206 13.4135C27.3562 13.2713 27.5339 13.1646 27.6762 13.1291L28.3517 13.0224C28.4939 12.9868 28.6717 13.058 28.7784 13.2002L29.2051 13.7335C29.2762 13.8402 29.3117 14.0535 29.2762 14.1602L29.0273 14.8002C28.9917 14.9424 28.8139 15.0491 28.6717 15.0846L27.9962 15.1913Z" fill="#06A9EF"/>
<path d="M30.8762 14.5868C30.734 14.6224 30.5562 14.5513 30.4495 14.4091L30.3428 14.2668C30.2717 14.1602 30.2362 13.9468 30.2717 13.8402L30.3428 13.6624C30.3784 13.5202 30.5562 13.4135 30.6984 13.378L30.8762 13.3424C31.0184 13.3068 31.1962 13.378 31.3028 13.5202L31.4095 13.6624C31.4806 13.7691 31.5162 13.9824 31.4806 14.0891L31.4095 14.2668C31.374 14.4091 31.1962 14.5157 31.054 14.5513L30.8762 14.5868Z" fill="#06A9EF"/>
<path d="M1.1873 12.1335C1.04508 12.1691 0.867293 12.098 0.760626 11.9557V11.9202C0.689515 11.8135 0.653961 11.6002 0.689516 11.4935V11.458C0.725072 11.3157 0.90285 11.2091 1.04507 11.1735H1.08063C1.22285 11.138 1.40063 11.2091 1.5073 11.3513V11.3869C1.57841 11.4935 1.61396 11.7069 1.57841 11.8135V11.8491C1.50729 11.9913 1.32952 12.1335 1.1873 12.1335Z" fill="#06A9EF"/>
<path d="M3.00062 8.43575C2.8584 8.4713 2.68062 8.40019 2.57395 8.25797L2.50284 8.1513C2.43173 8.04464 2.39618 7.8313 2.43173 7.72464L2.46729 7.61797C2.50284 7.47575 2.68062 7.36908 2.82284 7.33353L2.96507 7.29797C3.10729 7.26242 3.28507 7.33353 3.39173 7.47575L3.46284 7.58242C3.53395 7.68908 3.56951 7.90242 3.53395 8.00908L3.4984 8.11575C3.46285 8.25797 3.28507 8.36464 3.14285 8.40019L3.00062 8.43575Z" fill="#06A9EF"/>
<path d="M6.09396 11.7424C5.95174 11.778 5.77397 11.7069 5.6673 11.5646L5.31174 11.1024C5.24063 10.9958 5.20508 10.7824 5.24063 10.6758L5.45397 10.1069C5.48952 9.96464 5.6673 9.85798 5.80952 9.82242L6.37841 9.75131C6.52063 9.71575 6.69841 9.78686 6.80508 9.92909L7.16063 10.3913C7.23174 10.498 7.2673 10.7113 7.23175 10.818L7.01841 11.3869C6.98286 11.5291 6.80508 11.6358 6.66286 11.6713L6.09396 11.7424Z" fill="#06A9EF"/>
<path d="M3.14285 11.4935C3.00063 11.5291 2.82285 11.458 2.71618 11.3157L2.46729 10.9957C2.39618 10.8891 2.36063 10.6757 2.39618 10.5691L2.5384 10.2135C2.57396 10.0713 2.75173 9.96464 2.89396 9.92908L3.28507 9.85797C3.42729 9.82241 3.60507 9.89352 3.71174 10.0357L3.96062 10.3557C4.03173 10.4624 4.06729 10.6757 4.03174 10.7824L3.88951 11.138C3.85396 11.2802 3.67618 11.3869 3.53396 11.4224L3.14285 11.4935Z" fill="#06A9EF"/>
<path d="M7.37394 15.0135C7.23172 15.0491 7.05394 14.978 6.94728 14.8357L6.52061 14.3024C6.4495 14.1957 6.41394 13.9824 6.44949 13.8757L6.69839 13.2357C6.73394 13.0935 6.91172 12.9869 7.05394 12.9513L7.7295 12.8446C7.87172 12.8091 8.0495 12.8802 8.15616 13.0224L8.58283 13.5557C8.65394 13.6624 8.6895 13.8757 8.65394 13.9824L8.40505 14.6224C8.36949 14.7646 8.19172 14.8713 8.04949 14.9069L7.37394 15.0135Z" fill="#06A9EF"/>
<path d="M10.8939 15.5824C10.7517 15.618 10.5739 15.5468 10.4673 15.4046L9.86283 14.658C9.79172 14.5513 9.75616 14.338 9.79172 14.2313L10.1473 13.3424C10.1828 13.2002 10.3606 13.0935 10.5028 13.058L11.4273 12.9157C11.5695 12.8802 11.7473 12.9513 11.8539 13.0935L12.4584 13.8402C12.5295 13.9468 12.5651 14.1602 12.5295 14.2669L12.1739 15.1557C12.1384 15.298 11.9606 15.4046 11.8184 15.4402L10.8939 15.5824Z" fill="#06A9EF"/>
<path d="M14.6984 16.2935C14.5562 16.3291 14.3784 16.2224 14.2717 16.1158L13.6317 15.3335C13.5606 15.2269 13.5251 15.0135 13.5606 14.9069L13.9517 13.9469C13.9873 13.8046 14.1651 13.698 14.3073 13.6624L15.3028 13.5202C15.4451 13.4846 15.6228 13.5558 15.7295 13.698L16.3695 14.4802C16.4406 14.5869 16.4762 14.8002 16.4406 14.9069L16.0495 15.8669C16.0139 16.0091 15.8362 16.1158 15.6939 16.1513L14.6984 16.2935Z" fill="#06A9EF"/>
<path d="M18.6806 17.0046C18.5384 17.0402 18.3606 16.9691 18.254 16.8269L17.5784 15.9735C17.5073 15.8669 17.4717 15.6535 17.5073 15.5469L17.8984 14.5157C17.934 14.3735 18.1117 14.2669 18.254 14.2313L19.3562 14.0535C19.4984 14.018 19.6762 14.0891 19.7828 14.2313L20.4584 15.0846C20.5295 15.1913 20.5651 15.4046 20.5295 15.5113L20.1384 16.5424C20.1028 16.6846 19.9251 16.7913 19.7828 16.8269L18.6806 17.0046Z" fill="#06A9EF"/>
<path d="M22.6273 17.7157C22.4851 17.7513 22.3073 17.6802 22.2006 17.5379L21.6317 16.8268C21.5606 16.7202 21.5251 16.5068 21.5606 16.4002L21.8806 15.5824C21.9162 15.4402 22.0939 15.3335 22.2362 15.2979L23.1251 15.1557C23.2673 15.1202 23.4451 15.1913 23.5517 15.3335L24.1206 16.0446C24.1917 16.1513 24.2273 16.3646 24.1917 16.4713L23.8717 17.2891C23.8362 17.4313 23.6584 17.538 23.5162 17.5735L22.6273 17.7157Z" fill="#06A9EF"/>
<path d="M26.2895 18.2135C26.1473 18.2491 25.9695 18.178 25.8628 18.0357L25.4006 17.4668C25.3295 17.3602 25.2939 17.1468 25.3295 17.0402L25.6139 16.3646C25.6495 16.2224 25.8273 16.1157 25.9695 16.0802L26.7162 15.9735C26.8584 15.938 27.0362 16.0091 27.1428 16.1513L27.6051 16.7202C27.6762 16.8268 27.7117 17.0402 27.6762 17.1468L27.3917 17.8224C27.3562 17.9646 27.1784 18.0713 27.0362 18.1068L26.2895 18.2135Z" fill="#06A9EF"/>
<path d="M29.6673 18.0358C29.5251 18.0713 29.3473 18.0002 29.2406 17.858L28.9917 17.5735C28.9206 17.4669 28.8851 17.2535 28.9206 17.1469L29.0628 16.7913C29.0984 16.6491 29.2762 16.5424 29.4184 16.5069L29.774 16.4358C29.9162 16.4002 30.094 16.4713 30.2006 16.6135L30.4495 16.898C30.5206 17.0046 30.5562 17.218 30.5206 17.3246L30.3784 17.6802C30.3428 17.8224 30.1651 17.9291 30.0228 17.9646L29.6673 18.0358Z" fill="#06A9EF"/>
<path d="M30.0584 21.3424C29.9162 21.378 29.7384 21.3068 29.6317 21.1646L29.3828 20.8802C29.3117 20.7735 29.2762 20.5602 29.3117 20.4535L29.454 20.098C29.4895 19.9557 29.6673 19.8491 29.8095 19.8135L30.2006 19.7424C30.3429 19.7068 30.5206 19.778 30.6273 19.9202L30.8762 20.2046C30.9473 20.3113 30.9829 20.5246 30.9473 20.6313L30.8051 20.9868C30.7695 21.1291 30.5917 21.2357 30.4495 21.2713L30.0584 21.3424Z" fill="#06A9EF"/>
<path d="M27.3917 21.4491C27.2495 21.4846 27.0717 21.4135 26.9651 21.2713L26.6095 20.8091C26.5384 20.7024 26.5028 20.4891 26.5384 20.3824L26.7517 19.8491C26.7873 19.7069 26.9651 19.6002 27.1073 19.5646L27.6762 19.4935C27.8184 19.458 27.9962 19.5291 28.1028 19.6713L28.4584 20.1335C28.5295 20.2402 28.5651 20.4535 28.5295 20.5602L28.3162 21.0935C28.2806 21.2357 28.1028 21.3424 27.9606 21.378L27.3917 21.4491Z" fill="#06A9EF"/>
<path d="M24.1562 21.4491C24.0139 21.4846 23.8362 21.4135 23.7295 21.2713L23.2673 20.6669C23.1962 20.5602 23.1606 20.3469 23.1962 20.2402L23.4806 19.5291C23.5162 19.3869 23.6939 19.2802 23.8362 19.2446L24.5828 19.138C24.7251 19.1024 24.9028 19.1735 25.0095 19.3157L25.4717 19.9202C25.5428 20.0269 25.5784 20.2402 25.5428 20.3469L25.2584 21.058C25.2228 21.2002 25.0451 21.3069 24.9028 21.3424L24.1562 21.4491Z" fill="#06A9EF"/>
<path d="M20.2451 20.6313C20.1029 20.6669 19.9251 20.5957 19.8184 20.4535L19.214 19.7068C19.1429 19.6002 19.1073 19.3868 19.1429 19.2802L19.4984 18.3913C19.534 18.2491 19.7117 18.1424 19.854 18.1068L20.7784 17.9646C20.9206 17.9291 21.0984 18.0002 21.2051 18.1424L21.774 18.8891C21.8451 18.9957 21.8806 19.2091 21.8451 19.3157L21.4895 20.2046C21.454 20.3468 21.2762 20.4535 21.134 20.4891L20.2451 20.6313Z" fill="#06A9EF"/>
<path d="M16.1917 19.7068C16.0495 19.7424 15.8717 19.6713 15.7651 19.5291L15.0895 18.6757C15.0184 18.5691 14.9828 18.3557 15.0184 18.2491L15.4095 17.2535C15.4451 17.1113 15.6229 17.0046 15.7651 16.9691L16.8317 16.8268C16.974 16.7913 17.1517 16.8624 17.2584 17.0046L17.934 17.858C18.0051 17.9646 18.0406 18.178 18.0051 18.2846L17.614 19.2802C17.5784 19.4224 17.4006 19.5291 17.2584 19.5646L16.1917 19.7068Z" fill="#06A9EF"/>
<path d="M12.0317 19.6358C11.8895 19.6713 11.7117 19.6002 11.6051 19.458L10.8229 18.498C10.7517 18.3913 10.7162 18.178 10.7517 18.0713L11.214 16.9335C11.2495 16.7913 11.4273 16.6846 11.5695 16.6491L12.7784 16.4713C12.9206 16.4358 13.0984 16.5069 13.2051 16.6491L13.9873 17.6091C14.0584 17.7158 14.094 17.9291 14.0584 18.0358L13.5962 19.1735C13.5606 19.3158 13.3829 19.4224 13.2406 19.458L12.0317 19.6358Z" fill="#06A9EF"/>
<path d="M8.86728 17.858C8.72506 17.8935 8.54729 17.8224 8.44062 17.6802L8.01395 17.1469C7.94284 17.0402 7.90729 16.8269 7.94284 16.7202L8.19173 16.0802C8.22729 15.938 8.40506 15.8313 8.54729 15.7958L9.22284 15.6891C9.36506 15.6535 9.54284 15.7246 9.64951 15.8669L10.0762 16.4002C10.1473 16.5069 10.1828 16.7202 10.1473 16.8269L9.8984 17.4669C9.86284 17.6091 9.68507 17.7158 9.54284 17.7513L8.86728 17.858Z" fill="#06A9EF"/>
<path d="M4.17395 14.8713C4.03173 14.9068 3.85395 14.8357 3.74729 14.6935L3.42728 14.2668C3.35617 14.1602 3.32062 13.9468 3.35617 13.8402L3.56951 13.3424C3.60506 13.2002 3.78284 13.0935 3.92506 13.058L4.4584 12.9868C4.60062 12.9513 4.7784 13.0224 4.88506 13.1646L5.20506 13.5913C5.27617 13.698 5.31173 13.9113 5.27618 14.018L5.06284 14.5157C5.02729 14.658 4.84951 14.7646 4.70729 14.8002L4.17395 14.8713Z" fill="#06A9EF"/>
<path d="M1.50728 14.9069C1.36506 14.9424 1.18728 14.8713 1.08062 14.7291L0.902838 14.5158C0.831727 14.4091 0.796173 14.1958 0.831728 14.0891L0.938391 13.8046C0.973946 13.6624 1.15172 13.5558 1.29395 13.5202L1.57839 13.4846C1.72061 13.4491 1.89839 13.5202 2.00506 13.6624L2.18284 13.8758C2.25395 13.9824 2.28951 14.1958 2.25395 14.3024L2.14728 14.5869C2.11173 14.7291 1.93395 14.8358 1.79173 14.8713L1.50728 14.9069Z" fill="#06A9EF"/>
<path d="M5.84508 18.4624C5.70285 18.498 5.52508 18.4268 5.41841 18.2846L4.88508 17.6091C4.81397 17.5024 4.77841 17.2891 4.81397 17.1824L5.13396 16.4002C5.16952 16.258 5.3473 16.1513 5.48952 16.1157L6.3073 16.0091C6.44952 15.9735 6.6273 16.0446 6.73396 16.1868L7.2673 16.8624C7.33841 16.9691 7.37396 17.1824 7.33841 17.2891L7.01841 18.0713C6.98285 18.2135 6.80508 18.3202 6.66285 18.3557L5.84508 18.4624Z" fill="#06A9EF"/>
<path d="M8.65396 21.5913C8.51174 21.6269 8.33395 21.5557 8.22729 21.4135L7.55173 20.5957C7.48062 20.4891 7.44507 20.2757 7.48062 20.1691L7.87173 19.1735C7.90729 19.0313 8.08506 18.9246 8.22729 18.8891L9.29395 18.7469C9.43618 18.7113 9.61396 18.7824 9.72062 18.9246L10.3962 19.778C10.4673 19.8846 10.5028 20.098 10.4673 20.2046L10.0762 21.2002C10.0406 21.3424 9.86285 21.4491 9.72062 21.4846L8.65396 21.5913Z" fill="#06A9EF"/>
<path d="M14.2717 22.1246C14.1295 22.1602 13.9517 22.0891 13.8451 21.9468L13.3473 21.3068C13.2762 21.2002 13.2406 20.9868 13.2762 20.8802L13.5606 20.1335C13.5962 19.9913 13.774 19.8846 13.9162 19.8491L14.6984 19.7424C14.8406 19.7068 15.0184 19.778 15.1251 19.9202L15.6228 20.5246C15.694 20.6313 15.7295 20.8446 15.694 20.9513L15.4095 21.698C15.374 21.8402 15.1962 21.9468 15.054 21.9824L14.2717 22.1246Z" fill="#06A9EF"/>
<path d="M11.2851 24.0446C11.1428 24.0802 10.9651 24.0091 10.8584 23.8668L10.2539 23.1202C10.1828 23.0135 10.1473 22.8002 10.1828 22.6935L10.5384 21.8046C10.5739 21.6624 10.7517 21.5557 10.8939 21.5202L11.8539 21.378C11.9962 21.3424 12.1739 21.4135 12.2806 21.5557L12.8851 22.3024C12.9562 22.4091 12.9917 22.6224 12.9562 22.7291L12.6006 23.618C12.5651 23.7602 12.3873 23.8668 12.2451 23.9024L11.2851 24.0446Z" fill="#06A9EF"/>
<path d="M17.6495 23.3335C17.5073 23.3691 17.3295 23.298 17.2229 23.1557L16.6895 22.4802C16.6184 22.3735 16.5829 22.1602 16.6184 22.0535L16.9384 21.2713C16.974 21.1291 17.1517 21.0224 17.294 20.9869L18.1473 20.8446C18.2895 20.8091 18.4673 20.8802 18.574 21.0224L19.1073 21.698C19.1784 21.8046 19.214 22.018 19.1784 22.1246L18.8584 22.9069C18.8229 23.0491 18.6451 23.1557 18.5029 23.1913L17.6495 23.3335Z" fill="#06A9EF"/>
<path d="M21.4895 24.4002C21.3473 24.4357 21.1695 24.3646 21.0629 24.2224L20.494 23.5113C20.4229 23.4046 20.3873 23.1913 20.4229 23.0846L20.7429 22.2313C20.7784 22.0891 20.9562 21.9824 21.0984 21.9468L21.9873 21.8046C22.1295 21.7691 22.3073 21.8402 22.414 21.9824L22.9829 22.6935C23.054 22.8002 23.0895 23.0135 23.054 23.1202L22.734 23.9735C22.6984 24.1157 22.5206 24.2224 22.3784 24.258L21.4895 24.4002Z" fill="#06A9EF"/>
<path d="M25.2939 24.8269C25.1517 24.8624 24.9739 24.7913 24.8673 24.6491L24.5117 24.1869C24.4406 24.0802 24.4051 23.8669 24.4406 23.7602L24.654 23.1913C24.6895 23.0491 24.8673 22.9424 25.0095 22.9069L25.6139 22.8358C25.7562 22.8002 25.9339 22.8713 26.0406 23.0135L26.3962 23.4758C26.4673 23.5824 26.5028 23.7958 26.4673 23.9024L26.254 24.4713C26.2184 24.6135 26.0406 24.7202 25.8984 24.7558L25.2939 24.8269Z" fill="#06A9EF"/>
<path d="M28.2095 24.3646C28.0673 24.4002 27.8895 24.3291 27.7828 24.1868L27.5339 23.8668C27.4628 23.7602 27.4273 23.5468 27.4628 23.4402L27.6051 23.0846C27.6406 22.9424 27.8184 22.8357 27.9606 22.8002L28.3517 22.7291C28.4939 22.6935 28.6717 22.7646 28.7784 22.9068L29.0273 23.2268C29.0984 23.3335 29.1339 23.5468 29.0984 23.6535L28.9562 24.0091C28.9206 24.1513 28.7428 24.258 28.6006 24.2935L28.2095 24.3646Z" fill="#06A9EF"/>
<path d="M22.3784 27.9202C22.2362 27.9557 22.0584 27.8846 21.9517 27.7424L21.4184 27.0669C21.3473 26.9602 21.3117 26.7469 21.3473 26.6402L21.6673 25.858C21.7028 25.7157 21.8806 25.6091 22.0228 25.5735L22.8762 25.4313C23.0184 25.3957 23.1962 25.4669 23.3028 25.6091L23.8362 26.2846C23.9073 26.3913 23.9428 26.6046 23.9073 26.7113L23.5873 27.4935C23.5517 27.6357 23.374 27.7424 23.2317 27.778L22.3784 27.9202Z" fill="#06A9EF"/>
<path d="M25.6495 27.138C25.5073 27.1735 25.3295 27.1024 25.2228 26.9602L25.1873 26.9246C25.1162 26.818 25.0806 26.6046 25.1162 26.498L25.1517 26.4269C25.1873 26.2846 25.3651 26.178 25.5073 26.1424H25.5784C25.7206 26.1069 25.8984 26.178 26.0051 26.3202L26.0406 26.3558C26.1117 26.4624 26.1473 26.6758 26.1117 26.7824L26.0762 26.8535C26.0406 26.9958 25.8629 27.1024 25.7206 27.138H25.6495Z" fill="#06A9EF"/>
<path d="M20.0673 30.2668C19.9251 30.3024 19.7473 30.2313 19.6406 30.0891L19.2495 29.5913C19.1784 29.4846 19.1429 29.2713 19.1784 29.1646L19.3917 28.5957C19.4273 28.4535 19.6051 28.3468 19.7473 28.3113L20.3517 28.2046C20.494 28.1691 20.6717 28.2402 20.7784 28.3824L21.1695 28.8802C21.2406 28.9868 21.2762 29.2002 21.2406 29.3068L21.0273 29.8757C20.9917 30.018 20.814 30.1246 20.6717 30.1602L20.0673 30.2668Z" fill="#06A9EF"/>
<path d="M18.4673 27.138C18.3251 27.1735 18.1473 27.1024 18.0406 26.9602L17.4006 26.1424C17.3295 26.0357 17.2939 25.8224 17.3295 25.7157L17.7206 24.7202C17.7562 24.578 17.9339 24.4713 18.0762 24.4357L19.1073 24.2935C19.2495 24.258 19.4273 24.3291 19.5339 24.4713L20.1739 25.2891C20.2451 25.3957 20.2806 25.6091 20.2451 25.7157L19.8539 26.7113C19.8184 26.8535 19.6406 26.9602 19.4984 26.9957L18.4673 27.138Z" fill="#06A9EF"/>
<path d="M14.7695 25.5735C14.6273 25.6091 14.4495 25.538 14.3428 25.3958L13.8451 24.7913C13.774 24.6846 13.7384 24.4713 13.774 24.3646L14.0584 23.618C14.094 23.4758 14.2717 23.3691 14.414 23.3335L15.1962 23.2269C15.3384 23.1913 15.5162 23.2624 15.6228 23.4046L16.1206 24.0091C16.1917 24.1158 16.2273 24.3291 16.1917 24.4358L15.9073 25.1824C15.8717 25.3246 15.694 25.4313 15.5517 25.4669L14.7695 25.5735Z" fill="#06A9EF"/>
<path d="M11.4273 27.3868C11.2851 27.4224 11.1073 27.3513 11.0006 27.2091L10.4317 26.498C10.3606 26.3913 10.3251 26.178 10.3606 26.0713L10.6806 25.218C10.7162 25.0757 10.894 24.9691 11.0362 24.9335L11.9251 24.7913C12.0673 24.7557 12.2451 24.8268 12.3517 24.9691L12.9206 25.6802C12.9917 25.7868 13.0273 26.0002 12.9917 26.1068L12.6717 26.9602C12.6362 27.1024 12.4584 27.2091 12.3162 27.2446L11.4273 27.3868Z" fill="#06A9EF"/>
<path d="M15.4095 28.8091C15.2673 28.8446 15.0895 28.7735 14.9829 28.6313L14.5562 28.098C14.4851 27.9913 14.4495 27.778 14.4851 27.6713L14.734 27.0313C14.7695 26.8891 14.9473 26.7824 15.0895 26.7469L15.7651 26.6402C15.9073 26.6046 16.0851 26.6758 16.1917 26.818L16.6184 27.3513C16.6895 27.458 16.7251 27.6713 16.6895 27.778L16.4406 28.418C16.4051 28.5602 16.2273 28.6669 16.0851 28.7024L15.4095 28.8091Z" fill="#06A9EF"/>
<path d="M17.5784 30.8002C17.4362 30.8357 17.2584 30.7646 17.1517 30.6224L16.9384 30.338C16.8673 30.2313 16.8317 30.018 16.8673 29.9113L17.0095 29.5913C17.0451 29.4491 17.2228 29.3424 17.3651 29.3069L17.7206 29.2713C17.8628 29.2357 18.0406 29.3069 18.1473 29.4491L18.3606 29.7335C18.4317 29.8402 18.4673 30.0535 18.4317 30.1602L18.2895 30.4802C18.2539 30.6224 18.0762 30.7291 17.9339 30.7646L17.5784 30.8002Z" fill="#06A9EF"/>
<path d="M15.1251 30.8357C14.9828 30.8713 14.8051 30.8002 14.6984 30.658L14.6628 30.6224C14.5917 30.5157 14.5562 30.3024 14.5917 30.1957L14.6273 30.1246C14.6628 29.9824 14.8406 29.8757 14.9828 29.8402H15.054C15.1962 29.8046 15.374 29.8757 15.4806 30.018L15.5162 30.0535C15.5873 30.1602 15.6229 30.3735 15.5873 30.4802L15.5517 30.5513C15.5162 30.6935 15.3384 30.8002 15.1962 30.8357H15.1251Z" fill="#06A9EF"/>
<path d="M12.2806 30.5868C12.1384 30.6224 11.9606 30.5513 11.854 30.4091L11.3562 29.7691C11.2851 29.6624 11.2495 29.4491 11.2851 29.3424L11.5695 28.5957C11.6051 28.4535 11.7828 28.3468 11.9251 28.3113L12.7073 28.2046C12.8495 28.1691 13.0273 28.2402 13.134 28.3824L13.6317 29.0224C13.7028 29.1291 13.7384 29.3424 13.7028 29.4491L13.4184 30.1957C13.3828 30.338 13.2051 30.4446 13.0628 30.4802L12.2806 30.5868Z" fill="#06A9EF"/>
<path d="M8.40506 28.9157C8.26284 28.9513 8.08507 28.8802 7.9784 28.738L7.58729 28.2402C7.51618 28.1335 7.48062 27.9202 7.51618 27.8135L7.76507 27.2091C7.80062 27.0669 7.9784 26.9602 8.12062 26.9246L8.76062 26.818C8.90284 26.7824 9.08062 26.8535 9.18729 26.9957L9.5784 27.4935C9.64951 27.6002 9.68506 27.8135 9.64951 27.9202L9.40062 28.5246C9.36507 28.6668 9.18729 28.7735 9.04507 28.8091L8.40506 28.9157Z" fill="#06A9EF"/>
<path d="M7.90727 25.0402C7.76505 25.0757 7.58727 25.0046 7.48061 24.8624L6.94727 24.1869C6.87616 24.0802 6.84061 23.8669 6.87616 23.7602L7.19616 22.978C7.23172 22.8357 7.40949 22.7291 7.55172 22.6935L8.40505 22.5513C8.54727 22.5157 8.72505 22.5869 8.83172 22.7291L9.36505 23.4046C9.43616 23.5113 9.47172 23.7246 9.43616 23.8313L9.11616 24.6135C9.0806 24.7557 8.90282 24.8624 8.7606 24.898L7.90727 25.0402Z" fill="#06A9EF"/>
<path d="M5.84506 26.6046C5.70284 26.6402 5.52506 26.5691 5.4184 26.4268L5.0984 26.0002C5.02729 25.8935 4.99173 25.6802 5.02728 25.5735L5.20506 25.0757C5.24062 24.9335 5.4184 24.8268 5.56062 24.7913L6.09395 24.7202C6.23617 24.6846 6.41396 24.7557 6.52062 24.898L6.84062 25.3246C6.91173 25.4313 6.94729 25.6446 6.91173 25.7513L6.73395 26.2491C6.6984 26.3913 6.52062 26.498 6.3784 26.5335L5.84506 26.6046Z" fill="#06A9EF"/>
<path d="M3.46285 25.1469C3.32063 25.1824 3.14285 25.1113 3.03618 24.9691L2.8584 24.7557C2.78729 24.6491 2.75174 24.4357 2.78729 24.3291L2.89396 24.0446C2.92951 23.9024 3.10729 23.7957 3.24951 23.7602L3.53396 23.7246C3.67618 23.6891 3.85396 23.7602 3.96062 23.9024L4.1384 24.1157C4.20951 24.2224 4.24507 24.4357 4.20952 24.5424L4.10285 24.8269C4.06729 24.9691 3.88952 25.0757 3.74729 25.1113L3.46285 25.1469Z" fill="#06A9EF"/>
<path d="M5.34727 22.2313C5.20505 22.2668 5.02728 22.1957 4.92061 22.0535L4.42283 21.4135C4.35172 21.3068 4.31616 21.0935 4.35172 20.9868L4.67172 20.2046C4.70727 20.0624 4.88505 19.9557 5.02727 19.9202L5.84505 19.8135C5.98727 19.7779 6.16505 19.8491 6.27172 19.9913L6.7695 20.6313C6.84061 20.7379 6.87616 20.9513 6.84061 21.0579L6.52061 21.8402C6.48505 21.9824 6.30728 22.0891 6.16505 22.1246L5.34727 22.2313Z" fill="#06A9EF"/>
<path d="M3.21396 18.498C3.07173 18.5335 2.89396 18.4624 2.78729 18.3202L2.50284 17.9646C2.43173 17.858 2.39618 17.6446 2.43173 17.538L2.60951 17.1113C2.64507 16.9691 2.82285 16.8624 2.96507 16.8268L3.39173 16.7557C3.53396 16.7202 3.71173 16.7913 3.8184 16.9335L4.10284 17.2891C4.17396 17.3957 4.20951 17.6091 4.17395 17.7157L3.99618 18.1068C3.96062 18.2491 3.78284 18.3557 3.64062 18.3913L3.21396 18.498Z" fill="#06A9EF"/>
<path d="M1.00951 18.818C0.867288 18.8535 0.689506 18.7824 0.582839 18.6402L0.440619 18.4269C0.369508 18.3202 0.333954 18.1069 0.369509 18.0002L0.476177 17.7513C0.511732 17.6091 0.68951 17.5024 0.831732 17.4669L1.08062 17.4313C1.22284 17.3957 1.40062 17.4669 1.50729 17.6091L1.64951 17.8224C1.72062 17.9291 1.75618 18.1424 1.72062 18.2491L1.61395 18.498C1.5784 18.6402 1.40062 18.7469 1.2584 18.7824L1.00951 18.818Z" fill="#06A9EF"/>
<path d="M2.50284 21.9824C2.36061 22.018 2.18284 21.9469 2.07617 21.8046L1.82728 21.4846C1.75617 21.378 1.72061 21.1646 1.75617 21.058L1.89839 20.6669C1.93395 20.5246 2.11173 20.418 2.25395 20.3824L2.68061 20.3113C2.82284 20.2758 3.00061 20.3469 3.10728 20.4891L3.35617 20.8091C3.42728 20.9158 3.46283 21.1291 3.42728 21.2358L3.28506 21.6269C3.2495 21.7691 3.07172 21.8758 2.9295 21.9113L2.50284 21.9824Z" fill="#06A9EF"/>
</svg>
