<svg width="32" height="32" viewBox="0 0 32 33" fill="none" xmlns="http://www.w3.org/2000/svg">
    <path opacity="0.2"
        d="M13.8268 32.9605C16.9093 32.9605 19.4082 32.3255 19.4082 31.5421C19.4082 30.7588 16.9093 30.1238 13.8268 30.1238C10.7442 30.1238 8.24536 30.7588 8.24536 31.5421C8.24536 32.3255 10.7442 32.9605 13.8268 32.9605Z"
        fill="black" />
    <path
        d="M31.7019 15.025C31.1547 13.6524 29.9874 12.5543 28.6741 12.1425L26.4853 6.05722C27.4338 5.50818 27.7986 4.31858 27.3243 3.08323C26.7407 1.61911 25.172 0.704031 23.7858 1.02431C22.3996 1.34458 21.7429 2.76295 22.2901 4.22707C22.7279 5.37092 23.8588 6.24024 24.9896 6.33175L26.996 11.9137C26.8501 11.9137 26.7042 11.9595 26.5583 11.9595C25.4639 12.1882 24.6978 12.9203 24.333 13.8354L20.1378 11.5934C20.1743 11.1816 20.1013 10.7241 19.9189 10.2666C19.2988 8.66519 17.5842 7.65861 16.0886 8.02464C14.5929 8.34491 13.8633 9.90054 14.4834 11.5019C14.7388 12.0967 15.1401 12.6458 15.6143 13.0576L14.1916 17.4499C13.2431 17.1296 12.2582 17.0839 11.3462 17.2669C10.8719 17.3584 10.4342 17.5414 10.0694 17.7702L6.9686 14.3387C7.55228 13.4693 7.6982 12.2797 7.22396 11.0901C6.42141 9.07697 4.23262 7.79587 2.33567 8.20765C0.402236 8.61944 -0.509759 10.6326 0.292797 12.6458C1.09535 14.6589 3.28414 15.94 5.18109 15.5283C5.43645 15.4825 5.65533 15.391 5.87421 15.2995L8.93852 18.731C7.91708 19.9664 7.62524 21.8423 8.35484 23.7182C9.48571 26.6464 12.6595 28.5223 15.4319 27.8818C18.2044 27.2412 19.5541 24.4045 18.3868 21.4762C17.8396 20.1036 16.8546 18.9598 15.6873 18.182L17.11 13.7896C17.5113 13.8811 17.9126 13.8811 18.2773 13.7896C18.8245 13.6524 19.2258 13.3778 19.5541 13.0118L24.0776 15.4367C24.1141 15.8485 24.1871 16.2603 24.3695 16.6721C25.2085 18.7768 27.4703 20.1494 29.5131 19.6919C31.556 19.1886 32.541 17.1296 31.7019 15.025Z"
        fill="#F0654F" />
</svg>