<svg width="32" height="32" viewBox="0 0 33 33" fill="none" xmlns="http://www.w3.org/2000/svg">
    <path fill-rule="evenodd" clip-rule="evenodd"
        d="M13.8292 0.395439C23.5775 -0.0770094 29.779 4.35828 32.4333 13.7013C33.1578 21.9062 29.8312 27.779 22.4537 31.3193C14.3267 33.8866 7.79681 31.7099 2.86391 24.7896C-1.50488 15.9406 0.261069 8.5895 8.16177 2.73629C9.99167 1.7316 11.8808 0.951329 13.8292 0.395439Z"
        fill="#070707" />
    <path fill-rule="evenodd" clip-rule="evenodd"
        d="M14.3221 2.36652C22.8837 2.02153 28.2638 5.96402 30.4621 14.194C30.965 22.2694 27.392 27.5671 19.7432 30.0871C11.2132 31.2455 5.58682 27.7547 2.86394 19.6149C1.82229 10.6046 5.64167 4.85512 14.3221 2.36652Z"
        fill="#FBFBFB" />
    <path fill-rule="evenodd" clip-rule="evenodd"
        d="M26.1499 23.5576C23.2368 23.8027 20.2799 23.8848 17.279 23.804C17.279 25.118 17.279 26.4324 17.279 27.7465C16.7041 27.7465 16.1291 27.7465 15.5542 27.7465C15.5542 26.4324 15.5542 25.118 15.5542 23.804C12.7615 23.804 9.96881 23.804 7.17615 23.804C10.1899 17.5302 13.27 11.2879 16.4166 5.07715C19.6642 11.2439 22.9086 17.404 26.1499 23.5576Z"
        fill="#010101" />
    <path fill-rule="evenodd" clip-rule="evenodd"
        d="M26.1499 23.5576C26.2837 23.5724 26.3657 23.6545 26.3963 23.804C23.4438 24.0502 20.487 24.1322 17.5255 24.0504C17.6047 25.4121 17.5225 26.7264 17.2791 27.9929C17.2791 27.9109 17.2791 27.8286 17.2791 27.7465C17.2791 26.4324 17.2791 25.1181 17.2791 23.804C20.2799 23.8848 23.2368 23.8028 26.1499 23.5576Z"
        fill="#A6A6A6" />
    <path fill-rule="evenodd" clip-rule="evenodd"
        d="M7.17615 23.8042C9.96881 23.8042 12.7615 23.8042 15.5542 23.8042C15.5542 25.1183 15.5542 26.4326 15.5542 27.7467C16.1291 27.7467 16.7041 27.7467 17.279 27.7467C17.279 27.8287 17.279 27.911 17.279 27.9931C16.6219 27.9931 15.9649 27.9931 15.3077 27.9931C15.3077 26.679 15.3077 25.3647 15.3077 24.0506C12.553 24.1314 9.84247 24.0494 7.17615 23.8042Z"
        fill="#717171" />
</svg>