<svg width="64" height="64" viewBox="0 0 64 64" fill="none" xmlns="http://www.w3.org/2000/svg">
<path fill-rule="evenodd" clip-rule="evenodd" d="M33.516 23.5987C33.3507 23.4027 33.116 23.2827 32.8627 23.2613C32.6093 23.24 32.3573 23.3187 32.1613 23.484L26.524 28.24L41.8267 46.3773L47.464 41.6213C47.66 41.456 47.78 41.22 47.8013 40.9667C47.8227 40.7147 47.744 40.4613 47.5787 40.2653L47.1653 39.776L44.224 42.2573C43.8187 42.6 43.2107 42.548 42.868 42.1427C42.5267 41.736 42.5773 41.1293 42.984 40.7867L45.9253 38.3053L45.0973 37.324L42.156 39.8067C41.7507 40.148 41.1427 40.0973 40.8 39.6907C40.4587 39.2853 40.5093 38.6773 40.916 38.336L43.8573 35.8533L43.0293 34.8733L40.088 37.3547C39.6827 37.6973 39.0747 37.6453 38.732 37.24C38.3907 36.8347 38.4413 36.2267 38.848 35.884L41.788 33.4027L40.9613 32.4227L38.02 34.904C37.6147 35.2467 37.0067 35.1947 36.664 34.7893C36.3227 34.3827 36.3733 33.776 36.78 33.4333L39.72 30.952L38.8933 29.9707L35.952 32.4533C35.5467 32.796 34.9387 32.744 34.596 32.3387C34.2533 31.932 34.3053 31.3253 34.7107 30.9827L37.652 28.5013L36.8253 27.52L33.884 30.0013C33.4787 30.344 32.8707 30.2933 32.528 29.8867C32.1853 29.4813 32.2373 28.8733 32.6427 28.5307L35.584 26.0493L34.7573 25.0693L31.816 27.5507C31.4107 27.8933 30.8027 27.8413 30.46 27.436C30.1173 27.0307 30.1693 26.4227 30.5747 26.08L33.516 23.5987ZM27.58 39.936L27.8253 39.7293C28.3667 39.2733 28.4347 38.4627 27.9787 37.9213L23.636 32.7747C23.3627 32.4507 23.2253 32.0293 23.2613 31.6053C23.2973 31.18 23.504 30.788 23.8267 30.5147L24.808 29.688L25.0533 29.4813L40.356 47.6187L40.1107 47.8253L39.1307 48.6533C38.8067 48.9253 38.3853 49.0627 37.9613 49.0267C37.536 48.9907 37.144 48.7853 36.8707 48.4613L32.528 43.3147C32.072 42.7733 31.2613 42.704 30.72 43.1613L30.476 43.368L27.58 39.936ZM57.8133 29.0853C57.8133 27.9307 58.752 26.992 59.9067 26.992C61.0627 26.992 62 27.9307 62 29.0853V57.8133C62 60.124 60.124 62 57.8133 62H6.18667C3.876 62 2 60.124 2 57.8133V44.5587C2 43.4027 2.93733 42.4653 4.09333 42.4653C5.248 42.4653 6.18667 43.4027 6.18667 44.5587V56.4187C6.18667 57.1893 6.81067 57.8133 7.58133 57.8133H56.4187C57.1893 57.8133 57.8133 57.1893 57.8133 56.4187V29.0853ZM6.18667 32C6.18667 33.1547 5.248 34.0933 4.09333 34.0933C2.93733 34.0933 2 33.1547 2 32V6.18665C2 3.87598 3.876 1.99998 6.18667 1.99998H57.8133C60.124 1.99998 62 3.87598 62 6.18665V16.5267C62 17.6827 60.124 18.62 57.8133 18.62V16.5267V7.58132C57.8133 6.81065 57.1893 6.18665 56.4187 6.18665H7.58133C6.81067 6.18665 6.18667 6.81065 6.18667 7.58132V32ZM13.86 18.62C12.7053 18.62 11.768 17.6827 11.768 16.5267C11.768 15.372 12.7053 14.4347 13.86 14.4347H55.7213H57.8133V18.62H55.7213H13.86ZM49.3333 10.6667C49.3333 9.19465 50.528 7.99998 52 7.99998C53.472 7.99998 54.6667 9.19465 54.6667 10.6667C54.6667 12.1387 53.472 13.3333 52 13.3333C50.528 13.3333 49.3333 12.1387 49.3333 10.6667ZM20.0893 50.452C19.684 50.7947 19.076 50.744 18.7333 50.3373C18.3907 49.932 18.4427 49.324 18.848 48.9813C19.2547 48.64 19.8613 48.6907 20.204 49.0973C20.5467 49.5027 20.4947 50.1107 20.0893 50.452ZM21.184 48.2693C20.956 47.9987 21.1 47.5013 21.5067 47.1587L25.9187 43.436C26.324 43.0947 26.8387 43.036 27.0667 43.3067C27.296 43.5773 27.1507 44.0747 26.7453 44.4173L22.3333 48.14C21.928 48.4813 21.4133 48.54 21.184 48.2693ZM26.6 40.764L16.3053 49.4493C16.2413 49.5027 16.1987 49.5813 16.196 49.668C16.184 49.7533 16.2133 49.8373 16.2667 49.9013L18.7493 52.8427C18.8027 52.9067 18.8813 52.9493 18.9667 52.952C19.052 52.964 19.1373 52.9347 19.2013 52.88L29.4947 44.1947L26.6 40.764ZM41.5973 49.0893L48.7053 43.092C49.288 42.6 49.6573 41.8933 49.7173 41.1293C49.7867 40.3667 49.5413 39.608 49.0493 39.0253L34.9867 22.3573C34.4947 21.7747 33.7893 21.4053 33.0253 21.3453C32.2613 21.276 31.5027 21.5213 30.92 22.0133L24.3027 27.5973L23.5667 28.2173L22.5867 29.044C21.8707 29.648 21.424 30.512 21.3453 31.4427C21.2667 32.3733 21.5613 33.3 22.1653 34.016L26.0947 38.672L15.064 47.9787C14.6093 48.3627 14.3253 48.9133 14.28 49.5053C14.2253 50.0973 14.412 50.6867 14.796 51.1413L17.2787 54.0827C17.6627 54.5387 18.212 54.8227 18.8053 54.868C19.396 54.9227 19.9853 54.736 20.4413 54.3507L31.4707 45.0453L35.4 49.7027C36.004 50.4173 36.868 50.864 37.7987 50.9427C38.7293 51.0213 39.656 50.7267 40.372 50.124L41.352 49.296L41.5973 49.0893Z" fill="#9FEF00"/>
</svg>
