<svg width="49" height="48" viewBox="0 0 49 48" fill="none" xmlns="http://www.w3.org/2000/svg">
<path d="M34.0733 16.965L33.2013 16.35L34.4323 14.601L35.3093 15.221L46.5573 23.169C47.2813 23.68 47.8683 24.814 47.8683 25.7V28.395C47.8683 29.281 47.1493 30 46.2633 30H25.9383C25.0523 30 24.3333 29.281 24.3333 28.395V25.662C24.3333 24.776 24.9423 23.675 25.6923 23.204L31.6403 19.468C32.1413 19.152 32.8033 19.302 33.1163 19.802C33.4293 20.303 33.2783 20.963 32.7793 21.276L26.9253 24.96C26.6753 25.117 26.4733 25.485 26.4733 25.78V27.326C26.4733 27.621 26.7123 27.86 27.0073 27.86H45.1933C45.4893 27.86 45.7283 27.621 45.7283 27.326V25.742C45.7283 25.447 45.5333 25.069 45.2923 24.899L34.0733 16.965Z" fill="#9FEF00"/>
<path d="M34.0733 16.965L33.2013 16.35L34.4323 14.601L35.3093 15.221L46.5573 23.169C47.2813 23.68 47.8683 24.814 47.8683 25.7V28.395C47.8683 29.281 47.1493 30 46.2633 30H25.9383C25.0523 30 24.3333 29.281 24.3333 28.395V25.662C24.3333 24.776 24.9423 23.675 25.6923 23.204L31.6403 19.468C32.1413 19.152 32.8033 19.302 33.1163 19.802C33.4293 20.303 33.2783 20.963 32.7793 21.276L26.9253 24.96C26.6753 25.117 26.4733 25.485 26.4733 25.78V27.326C26.4733 27.621 26.7123 27.86 27.0073 27.86H45.1933C45.4893 27.86 45.7283 27.621 45.7283 27.326V25.742C45.7283 25.447 45.5333 25.069 45.2923 24.899L34.0733 16.965Z" fill="#9FEF00"/>
<path d="M14.5773 27.549L13.3913 26.713L15.0643 24.335L16.2573 25.178L31.5513 35.985C32.5353 36.679 33.3333 38.221 33.3333 39.425V43.091C33.3333 44.295 32.3553 45.273 31.1513 45.273H3.51534C2.31134 45.273 1.33334 44.295 1.33334 43.091V39.375C1.33334 38.17 2.16134 36.673 3.18134 36.032L11.2683 30.953C11.9503 30.523 12.8493 30.727 13.2753 31.407C13.7003 32.088 13.4953 32.985 12.8173 33.411L4.85834 38.42C4.51834 38.634 4.24234 39.133 4.24234 39.535V41.636C4.24234 42.038 4.56834 42.364 4.96934 42.364H29.6973C30.0983 42.364 30.4243 42.038 30.4243 41.636V39.484C30.4243 39.082 30.1583 38.568 29.8303 38.336L14.5773 27.549Z" fill="#9FEF00"/>
<path d="M14.5773 27.549L13.3913 26.713L15.0643 24.335L16.2573 25.178L31.5513 35.985C32.5353 36.679 33.3333 38.221 33.3333 39.425V43.091C33.3333 44.295 32.3553 45.273 31.1513 45.273H3.51534C2.31134 45.273 1.33334 44.295 1.33334 43.091V39.375C1.33334 38.17 2.16134 36.673 3.18134 36.032L11.2683 30.953C11.9503 30.523 12.8493 30.727 13.2753 31.407C13.7003 32.088 13.4953 32.985 12.8173 33.411L4.85834 38.42C4.51834 38.634 4.24234 39.133 4.24234 39.535V41.636C4.24234 42.038 4.56834 42.364 4.96934 42.364H29.6973C30.0983 42.364 30.4243 42.038 30.4243 41.636V39.484C30.4243 39.082 30.1583 38.568 29.8303 38.336L14.5773 27.549Z" fill="#9FEF00"/>
<path d="M18.5782 27.3615C21.9339 27.3615 24.6543 24.6411 24.6543 21.2854C24.6543 17.9296 21.9339 15.2093 18.5782 15.2093C15.2224 15.2093 12.5021 17.9296 12.5021 21.2854C12.5021 24.6411 15.2224 27.3615 18.5782 27.3615Z" stroke="#9FEF00" stroke-width="2.948" stroke-linecap="round" stroke-linejoin="round"/>
<path d="M36.9654 16.6493C39.6322 16.6493 41.7941 14.4874 41.7941 11.8206C41.7941 9.15385 39.6322 6.992 36.9654 6.992C34.2987 6.992 32.1368 9.15385 32.1368 11.8206C32.1368 14.4874 34.2987 16.6493 36.9654 16.6493Z" stroke="#9FEF00" stroke-width="2.34275" stroke-linecap="round" stroke-linejoin="round"/>
</svg>
