<svg width="64" height="64" viewBox="0 0 64 64" fill="none" xmlns="http://www.w3.org/2000/svg">
<path fill-rule="evenodd" clip-rule="evenodd" d="M44.3387 17.3653H41.436V22.4466H37.08V17.3653H34.1773V22.4466H29.8227V17.3653H26.92V22.4466H22.564V17.3653H19.6613V22.4466H15.3067V17.3653H13.8547V40.592H21.1133V49.3013H42.8867V40.592H50.1453V17.3653H48.6933V22.4466H44.3387V17.3653ZM7.33334 34.6666C7.33334 35.7706 6.43734 36.6666 5.33334 36.6666C4.22934 36.6666 3.33334 35.7706 3.33334 34.6666V8.66663C3.33334 6.45863 5.12534 4.66663 7.33334 4.66663H56.6667C58.8747 4.66663 60.6667 6.45863 60.6667 8.66663V21.3333C60.6667 22.4373 59.7707 23.3333 58.6667 23.3333C57.5627 23.3333 56.6667 22.4373 56.6667 21.3333V9.99996C56.6667 9.26396 56.0693 8.66663 55.3333 8.66663H8.66667C7.93067 8.66663 7.33334 9.26396 7.33334 9.99996V34.6666ZM12.4027 13.0106H51.5973C53.1987 13.0106 54.5 14.312 54.5 15.9133V42.0426C54.5 43.6453 53.1987 44.9466 51.5973 44.9466H47.2413V50.7533C47.2413 52.3546 45.9413 53.656 44.3387 53.656H19.6613C18.0587 53.656 16.7587 52.3546 16.7587 50.7533V44.9466H12.4027C10.8013 44.9466 9.5 43.6453 9.5 42.0426V15.9133C9.5 14.312 10.8013 13.0106 12.4027 13.0106ZM56.6667 33.3333C56.6667 32.2293 57.5627 31.3333 58.6667 31.3333C59.7707 31.3333 60.6667 32.2293 60.6667 33.3333V58C60.6667 60.208 58.8747 62 56.6667 62H7.33334C5.12534 62 3.33334 60.208 3.33334 58V46.6666C3.33334 45.5626 4.22934 44.6666 5.33334 44.6666C6.43734 44.6666 7.33334 45.5626 7.33334 46.6666V56.6666C7.33334 57.4026 7.93067 58 8.66667 58H55.3333C56.0693 58 56.6667 57.4026 56.6667 56.6666V33.3333Z" fill="#9FEF00"/>
</svg>
