<svg width="64" height="64" viewBox="0 0 64 64" fill="none" xmlns="http://www.w3.org/2000/svg">
<g clip-path="url(#clip0_69_8029)">
<path fill-rule="evenodd" clip-rule="evenodd" d="M21.368 36.2733H17.7574C16.18 36.2733 14.9094 37.5427 14.9094 39.1213C14.9094 40.6987 16.18 41.9693 17.7574 41.9693H21.368C22.3534 43.672 24.1947 44.8186 26.3027 44.8186C28.412 44.8186 30.2534 43.672 31.2374 41.9693H46.2427C47.82 41.9693 49.0907 40.6987 49.0907 39.1213C49.0907 37.5427 47.82 36.2733 46.2427 36.2733H31.2374C30.2534 34.5693 28.412 33.424 26.3027 33.424C24.1947 33.424 22.3534 34.5693 21.368 36.2733ZM42.632 22.0307H46.2427C47.82 22.0307 49.0907 23.3013 49.0907 24.8787C49.0907 26.4573 47.82 27.7267 46.2427 27.7267H42.632C41.6467 29.4307 39.8054 30.576 37.6974 30.576C35.588 30.576 33.7467 29.4307 32.7627 27.7267H17.7574C16.18 27.7267 14.9094 26.4573 14.9094 24.8787C14.9094 23.3013 16.18 22.0307 17.7574 22.0307H32.7627C33.7467 20.328 35.588 19.1813 37.6974 19.1813C39.8054 19.1813 41.6467 20.328 42.632 22.0307ZM13.8267 6.63465C12.18 6.63465 10.8427 5.29732 10.8427 3.65065C10.8427 2.00398 12.18 0.66665 13.8267 0.66665H55.8734C59.9907 0.66665 63.3334 4.00932 63.3334 8.12665V52.6173C63.3334 54.264 61.996 55.6013 60.3494 55.6013C58.7027 55.6013 57.3654 54.264 57.3654 52.6173V11.1107C57.3654 8.63998 55.36 6.63465 52.8894 6.63465H13.8267ZM47.348 57.3653C48.9947 57.3653 50.332 58.7027 50.332 60.3493C50.332 61.996 48.9947 63.3333 47.348 63.3333H8.12669C4.00935 63.3333 0.666687 59.9907 0.666687 55.8733V19.0467C0.666687 17.3987 2.00402 16.0627 3.65069 16.0627C5.29735 16.0627 6.63469 17.3987 6.63469 19.0467V52.8893C6.63469 55.36 8.64002 57.3653 11.1107 57.3653H47.348Z" fill="#9FEF00"/>
</g>
<defs>
<clipPath id="clip0_69_8029">
<rect width="64" height="64" fill="white"/>
</clipPath>
</defs>
</svg>
