<svg width="64" height="64" viewBox="0 0 64 64" fill="none" xmlns="http://www.w3.org/2000/svg">
<path fill-rule="evenodd" clip-rule="evenodd" d="M28 46.6667V56H36V46.6667H28ZM22.6667 46.6667V56H14.6667C13.1947 56 12 57.1947 12 58.6667C12 60.1387 13.1947 61.3333 14.6667 61.3333H49.3333C50.8053 61.3333 52 60.1387 52 58.6667C52 57.1947 50.8053 56 49.3333 56H41.3333V46.6667H54.6667C58.3467 46.6667 61.3333 43.68 61.3333 40V25.3333C61.3333 23.8613 60.1387 22.6666 58.6667 22.6666C57.1947 22.6666 56 23.8613 56 25.3333V40C56 40.736 55.4027 41.3333 54.6667 41.3333H9.33332C8.59732 41.3333 7.99999 40.736 7.99999 40V9.33332C7.99999 8.59732 8.59732 7.99998 9.33332 7.99998H54.6667C55.4027 7.99998 56 8.59732 56 9.33332V13.3333C56 14.8053 57.1947 16 58.6667 16C60.1387 16 61.3333 14.8053 61.3333 13.3333V9.33332C61.3333 5.65332 58.3467 2.66665 54.6667 2.66665H9.33332C5.65332 2.66665 2.66666 5.65332 2.66666 9.33332V40C2.66666 43.68 5.65332 46.6667 9.33332 46.6667H22.6667Z" fill="#9FEF00"/>
</svg>
