<svg width="65" height="64" viewBox="0 0 65 64" fill="none" xmlns="http://www.w3.org/2000/svg">
<path fill-rule="evenodd" clip-rule="evenodd" d="M28.3333 46.6666V56H36.3333V46.6666H28.3333ZM35.7507 18.8333C35.7507 17.5133 36.8213 16.4413 38.1413 16.4413C39.4613 16.4413 40.5333 17.5133 40.5333 18.8333C40.5333 20.1533 39.4613 21.2253 38.1413 21.2253C36.8213 21.2253 35.7507 20.1533 35.7507 18.8333ZM23 46.6666V56H15C13.528 56 12.3333 57.1946 12.3333 58.6666C12.3333 60.1386 13.528 61.3333 15 61.3333H49.6667C51.1387 61.3333 52.3333 60.1386 52.3333 58.6666C52.3333 57.1946 51.1387 56 49.6667 56H41.6667V46.6666H55C58.68 46.6666 61.6667 43.68 61.6667 40V25.3333C61.6667 23.8613 60.472 22.6666 59 22.6666C57.528 22.6666 56.3333 23.8613 56.3333 25.3333V40C56.3333 40.736 55.736 41.3333 55 41.3333H9.66667C8.93067 41.3333 8.33333 40.736 8.33333 40V9.33329C8.33333 8.59729 8.93067 7.99996 9.66667 7.99996H55C55.736 7.99996 56.3333 8.59729 56.3333 9.33329V13.3333C56.3333 14.8053 57.528 16 59 16C60.472 16 61.6667 14.8053 61.6667 13.3333V9.33329C61.6667 5.65329 58.68 2.66663 55 2.66663H9.66667C5.98667 2.66663 3 5.65329 3 9.33329V40C3 43.68 5.98667 46.6666 9.66667 46.6666H23ZM21.4 27.3066L27.5827 22.1493C28.7413 21.1826 30.548 21.2653 31.6133 22.332L34.3267 25.048C34.86 25.5813 35.824 25.7106 36.4787 25.3373L42.6733 21.796C43.0013 21.6093 43.2667 21.1506 43.2667 20.7746V16.7826C43.2667 15.652 42.348 14.7333 41.2173 14.7333H23.4493C22.3187 14.7333 21.4 15.652 21.4 16.7826V27.3066ZM43.2667 27.7173C43.2667 26.9626 43.8787 26.3506 44.6333 26.3506C45.388 26.3506 46 26.9626 46 27.7173V33.8666C46 35.752 44.4693 37.284 42.584 37.284H22.084C20.1973 37.284 18.6667 35.752 18.6667 33.8666V15.4173C18.6667 13.5306 20.1973 12 22.084 12H42.584C44.4693 12 46 13.5306 46 15.4173V21.676C46 22.4306 45.468 23.3466 44.8133 23.72L37.2147 28.0626C35.904 28.8106 33.9747 28.5533 32.9067 27.4866L30.4853 25.068C29.9507 24.5346 29.048 24.4933 28.468 24.976L22.2747 30.136L21.4 30.86V32.5C21.4 33.632 22.3187 34.5506 23.4493 34.5506H41.2173C42.348 34.5506 43.2667 33.632 43.2667 32.5V27.7173Z" fill="#9FEF00"/>
</svg>
