<svg width="65" height="64" viewBox="0 0 65 64" fill="none" xmlns="http://www.w3.org/2000/svg">
<path fill-rule="evenodd" clip-rule="evenodd" d="M27.4587 9.16132C25.9227 9.16132 24.6747 7.91332 24.6747 6.37599C24.6747 4.83865 25.9227 3.59065 27.4587 3.59065H58.096C61.1707 3.59065 63.6667 6.08665 63.6667 9.16132V42.5827C63.6667 45.6573 61.1707 48.1533 58.096 48.1533H48.6827L43.1053 59.296C42.4173 60.6707 41.1107 60.788 40.188 59.5587L31.6373 48.1533H27.4587C25.9227 48.1533 24.6747 46.9053 24.6747 45.368C24.6747 43.8307 25.9227 42.5827 27.4587 42.5827H34.4227L40.912 51.2307L45.2293 42.5827H55.3107C56.848 42.5827 58.096 41.3347 58.096 39.7987V11.9467C58.096 10.4093 56.848 9.16132 55.3107 9.16132H27.4587ZM16.3187 42.5827C17.856 42.5827 19.104 43.8307 19.104 45.368C19.104 46.9053 17.856 48.1533 16.3187 48.1533H6.57067C3.49601 48.1533 1.00001 45.6573 1.00001 42.5827V9.16132C1.00001 6.08665 3.49601 3.59065 6.57067 3.59065H16.3187C17.856 3.59065 19.104 4.83865 19.104 6.37599C19.104 7.91332 17.856 9.16132 16.3187 9.16132H9.35601C7.81867 9.16132 6.57067 10.4093 6.57067 11.9467V39.7987C6.57067 41.3347 7.81867 42.5827 9.35601 42.5827H16.3187ZM39.3893 18.664C38.9093 18.664 38.52 18.2733 38.52 17.7933C38.52 17.3133 38.9093 16.924 39.3893 16.924H48.9573C49.9173 16.924 50.696 17.704 50.696 18.664V29.1C50.696 30.06 49.9173 30.84 48.9573 30.84H46.0173L44.276 34.3187C44.06 34.748 43.652 34.7853 43.364 34.4013L40.6947 30.84H39.3893C38.9093 30.84 38.52 30.4493 38.52 29.9693C38.52 29.4893 38.9093 29.1 39.3893 29.1H41.564L43.5907 31.8L44.9387 29.1H48.0867C48.5667 29.1 48.9573 28.7107 48.9573 28.2307V19.5333C48.9573 19.0533 48.5667 18.664 48.0867 18.664H39.3893ZM35.9107 29.1C36.3907 29.1 36.78 29.4893 36.78 29.9693C36.78 30.4493 36.3907 30.84 35.9107 30.84H32.8667C31.9067 30.84 31.1267 30.06 31.1267 29.1V18.664C31.1267 17.704 31.9067 16.924 32.8667 16.924H35.9107C36.3907 16.924 36.78 17.3133 36.78 17.7933C36.78 18.2733 36.3907 18.664 35.9107 18.664H33.736C33.256 18.664 32.8667 19.0533 32.8667 19.5333V28.2307C32.8667 28.7107 33.256 29.1 33.736 29.1H35.9107Z" fill="#9FEF00"/>
</svg>
