<svg width="64" height="64" viewBox="0 0 64 64" fill="none" xmlns="http://www.w3.org/2000/svg">
<path fill-rule="evenodd" clip-rule="evenodd" d="M57.8133 29.0853C57.8133 27.9306 58.752 26.992 59.9067 26.992C61.0627 26.992 62 27.9306 62 29.0853V57.8133C62 60.124 60.124 62 57.8133 62H6.18667C3.876 62 2 60.124 2 57.8133V44.5586C2 43.4026 2.93733 42.4653 4.09333 42.4653C5.248 42.4653 6.18667 43.4026 6.18667 44.5586V56.4186C6.18667 57.1893 6.81067 57.8133 7.58133 57.8133H56.4187C57.1893 57.8133 57.8133 57.1893 57.8133 56.4186V29.0853ZM6.18667 32C6.18667 33.1546 5.248 34.0933 4.09333 34.0933C2.93733 34.0933 2 33.1546 2 32V6.18664C2 3.87597 3.876 1.99997 6.18667 1.99997H57.8133C60.124 1.99997 62 3.87597 62 6.18664V16.5266C62 17.6826 60.124 18.62 57.8133 18.62V16.5266V7.5813C57.8133 6.81064 57.1893 6.18664 56.4187 6.18664H7.58133C6.81067 6.18664 6.18667 6.81064 6.18667 7.5813V32ZM13.86 18.62C12.7053 18.62 11.768 17.6826 11.768 16.5266C11.768 15.372 12.7053 14.4346 13.86 14.4346H55.7213H57.8133V18.62H55.7213H13.86ZM49.3333 10.6666C49.3333 9.19464 50.528 7.99997 52 7.99997C53.472 7.99997 54.6667 9.19464 54.6667 10.6666C54.6667 12.1386 53.472 13.3333 52 13.3333C50.528 13.3333 49.3333 12.1386 49.3333 10.6666ZM46.188 40.048C46.188 40.1346 46.128 40.2093 46.0413 40.2226L43.2373 40.6893C42.884 40.7493 42.6027 41.0093 42.516 41.3506C42.2627 42.332 41.876 43.272 41.3547 44.1466C41.1747 44.4546 41.188 44.8346 41.3947 45.128L43.044 47.4506C43.0907 47.5173 43.084 47.6186 43.024 47.6786L41.0347 49.6666C40.988 49.7133 40.9413 49.72 40.908 49.72C40.868 49.72 40.8347 49.7066 40.808 49.6866L38.492 48.0386C38.204 47.832 37.8173 47.8186 37.5107 47.9986C36.636 48.5186 35.6947 48.9066 34.7133 49.16C34.3667 49.2466 34.1053 49.5333 34.052 49.8813L33.5787 52.684C33.5653 52.7706 33.492 52.8306 33.4053 52.8306H30.5947C30.508 52.8306 30.4347 52.7706 30.4213 52.684L29.9547 49.8813C29.8933 49.5266 29.6333 49.2466 29.2933 49.16C28.3387 48.9133 27.4173 48.532 26.556 48.0386C26.416 47.9586 26.256 47.9186 26.1027 47.9186C25.9227 47.9186 25.736 47.972 25.5813 48.0853L23.2453 49.748C23.212 49.768 23.1787 49.7813 23.1453 49.7813C23.1187 49.7813 23.0653 49.7746 23.0187 49.728L21.0293 47.7386C20.9693 47.6786 20.9627 47.584 21.0093 47.5106L22.652 45.208C22.8587 44.9146 22.872 44.528 22.692 44.22C22.1707 43.352 21.7707 42.412 21.5173 41.4306C21.424 41.0893 21.1427 40.8293 20.796 40.7693L17.972 40.2893C17.8853 40.276 17.8253 40.2026 17.8253 40.1146V37.3053C17.8253 37.2186 17.8853 37.1453 17.972 37.132L20.756 36.664C21.1093 36.604 21.396 36.344 21.484 35.9973C21.7307 35.016 22.1107 34.068 22.6253 33.1933C22.8053 32.8866 22.7853 32.5053 22.5787 32.2186L20.916 29.8826C20.8693 29.816 20.876 29.716 20.936 29.656L22.9253 27.6666C22.972 27.62 23.0187 27.6133 23.052 27.6133C23.092 27.6133 23.1253 27.6266 23.152 27.6466L25.4547 29.288C25.7493 29.4946 26.136 29.508 26.4427 29.328C27.3107 28.808 28.252 28.4066 29.2333 28.1533C29.5733 28.06 29.8333 27.78 29.8933 27.432L30.3747 24.6093C30.388 24.5226 30.4613 24.4626 30.548 24.4626H33.3587C33.4453 24.4626 33.5187 24.5226 33.532 24.6093L33.9987 27.392C34.0587 27.7466 34.32 28.0333 34.6667 28.12C35.6747 28.3733 36.636 28.768 37.5307 29.2946C37.8373 29.4746 38.2173 29.4613 38.512 29.2546L40.8147 27.6C40.848 27.58 40.8813 27.5666 40.9147 27.5666C40.9413 27.5666 40.9947 27.5733 41.0413 27.62L43.0307 29.6093C43.0907 29.6693 43.0973 29.7626 43.0507 29.836L41.4013 32.152C41.1947 32.4386 41.1813 32.8266 41.3613 33.1333C41.8827 34.008 42.2693 34.9493 42.5227 35.9306C42.6093 36.2773 42.8973 36.5373 43.244 36.5906L46.048 37.0653C46.1347 37.0786 46.1947 37.152 46.1947 37.2386V40.048H46.188ZM46.3413 35.2893L44.0987 34.9093C43.8653 34.1546 43.564 33.4266 43.1973 32.732L44.5187 30.884C45.08 30.096 44.9933 29.0213 44.3053 28.34L42.316 26.3506C41.9427 25.9773 41.448 25.7706 40.9213 25.7706C40.5067 25.7706 40.1133 25.8973 39.78 26.1373L37.924 27.46C37.2027 27.0786 36.4493 26.7653 35.668 26.532L35.2947 24.316C35.1333 23.3613 34.3133 22.6666 33.3453 22.6666H30.5347C29.5667 22.6666 28.7453 23.3613 28.5853 24.316L28.1987 26.5853C27.4507 26.8186 26.7227 27.1253 26.0293 27.5L24.1933 26.1773C23.86 25.9373 23.4587 25.8106 23.0453 25.8106C22.5187 25.8106 22.0173 26.0173 21.6507 26.392L19.6547 28.38C18.9733 29.0613 18.88 30.136 19.4413 30.924L20.776 32.8C20.4093 33.5 20.1147 34.228 19.888 34.9826L17.672 35.356C16.7173 35.516 16.0227 36.3373 16.0227 37.3053V40.1146C16.0227 41.0826 16.7173 41.904 17.672 42.064L19.9413 42.452C20.1747 43.1986 20.4827 43.9266 20.856 44.6213L19.5413 46.4493C18.98 47.2373 19.0667 48.312 19.7547 48.9933L21.744 50.9826C22.1173 51.356 22.612 51.5626 23.1387 51.5626C23.5533 51.5626 23.9467 51.436 24.28 51.196L26.156 49.8613C26.8307 50.2146 27.5373 50.5013 28.2653 50.728L28.6387 52.972C28.7987 53.9253 29.62 54.62 30.588 54.62H33.4053C34.3733 54.62 35.1933 53.9253 35.3547 52.972L35.7347 50.728C36.4893 50.4946 37.216 50.1946 37.9107 49.828L39.76 51.1493C40.0933 51.3893 40.4933 51.516 40.908 51.516C41.4347 51.516 41.9293 51.3093 42.3027 50.936L44.292 48.9466C44.9733 48.2653 45.0667 47.1906 44.5053 46.4026L43.184 44.548C43.5507 43.8466 43.8587 43.1186 44.0853 42.372L46.328 41.9973C47.2827 41.8373 47.976 41.016 47.976 40.048V37.2386C47.9893 36.2706 47.296 35.4493 46.3413 35.2893ZM32.0027 43.7333C29.1933 43.7333 26.9107 41.4506 26.9107 38.64C26.9107 35.8293 29.1933 33.5466 32.0027 33.5466C34.8133 33.5466 37.096 35.8293 37.096 38.64C37.096 41.4506 34.8133 43.7333 32.0027 43.7333ZM32.0027 31.7453C28.1987 31.7453 25.108 34.8346 25.108 38.64C25.108 42.4453 28.1987 45.536 32.0027 45.536C35.808 45.536 38.8987 42.4453 38.8987 38.64C38.8987 34.8346 35.808 31.7453 32.0027 31.7453Z" fill="#9FEF00"/>
</svg>
