<svg width="65" height="64" viewBox="0 0 65 64" fill="none" xmlns="http://www.w3.org/2000/svg">
<path fill-rule="evenodd" clip-rule="evenodd" d="M28.6667 46.6666V56H36.6667V46.6666H28.6667ZM41.776 19.244C41.6147 19.0053 41.6787 18.6813 41.9173 18.52C42.156 18.3586 42.4813 18.4213 42.6427 18.66C43.9627 20.6373 44.6667 22.96 44.6667 25.3333C44.6667 28.516 43.404 31.568 41.1507 33.8173C38.9013 36.0706 35.8493 37.3333 32.6667 37.3333C29.484 37.3333 26.432 36.0706 24.1827 33.8173C21.9293 31.568 20.6667 28.516 20.6667 25.3333C20.6667 22.1506 21.9293 19.0986 24.1827 16.8493C26.432 14.6013 29.484 13.3333 32.6667 13.3333C34.4507 13.3333 36.22 13.7293 37.832 14.5026C38.0907 14.6253 38.2013 14.9373 38.0773 15.196C37.9533 15.4546 37.6427 15.5653 37.3827 15.4413C35.912 14.7426 34.3 14.3773 32.6667 14.3773C29.76 14.3773 26.9747 15.5293 24.9187 17.5853C22.8627 19.6413 21.7107 22.4266 21.7107 25.3333C21.7107 28.24 22.8627 31.0253 24.9187 33.0813C26.9747 35.1373 29.76 36.2893 32.6667 36.2893C35.5733 36.2893 38.3587 35.1373 40.4147 33.0813C42.4707 31.0253 43.6227 28.24 43.6227 25.3333C43.6227 23.1626 42.9813 21.044 41.776 19.244ZM32.7747 17.7213C33.076 17.7213 33.32 17.9653 33.32 18.2666V25.8413C33.32 26.1413 33.076 26.3866 32.7747 26.3866C32.4733 26.3866 32.2293 26.1413 32.2293 25.8413V18.2666C32.2293 17.9653 32.4733 17.7213 32.7747 17.7213ZM23.3333 46.6666V56H15.3333C13.8613 56 12.6667 57.1946 12.6667 58.6666C12.6667 60.1386 13.8613 61.3333 15.3333 61.3333H50C51.472 61.3333 52.6667 60.1386 52.6667 58.6666C52.6667 57.1946 51.472 56 50 56H42V46.6666H55.3333C59.0133 46.6666 62 43.68 62 40V25.3333C62 23.8613 60.8053 22.6666 59.3333 22.6666C57.8613 22.6666 56.6667 23.8613 56.6667 25.3333V40C56.6667 40.736 56.0693 41.3333 55.3333 41.3333H10C9.26401 41.3333 8.66668 40.736 8.66668 40V9.33329C8.66668 8.59729 9.26401 7.99996 10 7.99996H55.3333C56.0693 7.99996 56.6667 8.59729 56.6667 9.33329V13.3333C56.6667 14.8053 57.8613 16 59.3333 16C60.8053 16 62 14.8053 62 13.3333V9.33329C62 5.65329 59.0133 2.66663 55.3333 2.66663H10C6.32001 2.66663 3.33334 5.65329 3.33334 9.33329V40C3.33334 43.68 6.32001 46.6666 10 46.6666H23.3333ZM35.1213 21.3053C34.8533 21.1693 34.7453 20.8426 34.8813 20.5746C35.0173 20.3066 35.344 20.1986 35.612 20.3346C36.692 20.88 37.6027 21.7146 38.236 22.7453C38.8733 23.776 39.212 24.96 39.212 26.1706C39.212 26.4706 39.1907 26.7653 39.152 27.06C38.94 28.6253 38.1653 30.0653 36.976 31.1066C35.7813 32.1493 34.2533 32.7213 32.672 32.7266C32.3773 32.7266 32.0773 32.7053 31.788 32.6666C30.2173 32.4546 28.7773 31.68 27.736 30.4906C26.6933 29.296 26.1213 27.7693 26.1213 26.1866C26.1213 25.8866 26.1373 25.592 26.1813 25.2973C26.4867 23.0226 27.9707 21.076 30.076 20.1653C30.3533 20.048 30.6747 20.176 30.7933 20.452C30.912 20.7266 30.7867 21.048 30.512 21.1693C28.756 21.9266 27.5173 23.552 27.2613 25.4453C27.228 25.6906 27.212 25.936 27.212 26.1866C27.212 27.5013 27.692 28.7773 28.56 29.7706C29.4267 30.7626 30.6267 31.4066 31.9307 31.5813C32.176 31.6146 32.4267 31.636 32.672 31.636C33.992 31.6306 35.2627 31.156 36.256 30.2826C37.248 29.416 37.892 28.216 38.072 26.912C38.1053 26.6666 38.1213 26.4213 38.1213 26.1706C38.1213 24.12 36.9533 22.232 35.1213 21.3053Z" fill="#9FEF00"/>
</svg>
