<svg width="65" height="64" viewBox="0 0 65 64" fill="none" xmlns="http://www.w3.org/2000/svg">
<path fill-rule="evenodd" clip-rule="evenodd" d="M37.2334 54.2867H28.08C28.2414 54.4733 28.4147 54.652 28.6 54.82C29.7067 55.82 31.16 56.38 32.6534 56.38C34.2 56.38 35.68 55.7933 36.8 54.74C36.9534 54.596 37.0974 54.4453 37.2334 54.2867ZM46 31.62C46 30.148 47.1947 28.9533 48.6667 28.9533C50.1387 28.9533 51.3334 30.148 51.3334 31.62C51.3334 33.092 50.1387 34.2867 48.6667 34.2867C47.1947 34.2867 46 33.092 46 31.62ZM36.3894 7.72132C37.9614 8.01065 39.496 8.48798 40.96 9.12665C43.8667 10.4067 46.5067 12.2333 48.7067 14.5267C50.3867 16.2467 51.3334 18.5533 51.3334 20.9533V23.62C51.3334 25.092 50.1387 26.2867 48.6667 26.2867C47.1947 26.2867 46 25.092 46 23.62V20.9533C46 19.94 45.6 18.9667 44.8934 18.2467C43.16 16.4467 41.1067 15.02 38.8267 14.02C36.76 13.1133 34.5467 12.6467 32.2934 12.6333C30.12 12.6333 27.96 13.1 25.9734 13.9933C23.8667 14.9533 21.9734 16.34 20.44 18.0733C19.72 18.86 19.3334 19.8867 19.3334 20.9533V40.9533C19.3334 42.3667 18.7734 43.7267 17.7734 44.7267C16.7734 45.7267 15.4134 46.2867 14 46.2867H10C9.26403 46.2867 8.66669 46.884 8.66669 47.62C8.66669 48.356 9.26403 48.9533 10 48.9533H55.3334C56.0694 48.9533 56.6667 48.356 56.6667 47.62C56.6667 46.884 56.0694 46.2867 55.3334 46.2867H51.3334C49.92 46.2867 48.56 45.7267 47.56 44.7267C46.56 43.7267 46 42.3667 46 40.9533V39.62C46 38.148 47.1947 36.9533 48.6667 36.9533C50.1387 36.9533 51.3334 38.148 51.3334 39.62V40.9533H56.6667C59.6107 40.9533 62 43.3427 62 46.2867V48.9533C62 51.8973 59.6107 54.2867 56.6667 54.2867H43.3174C42.7174 55.9147 41.748 57.3987 40.4667 58.6067C38.3467 60.6067 35.56 61.7133 32.6534 61.7133C29.8267 61.7133 27.0934 60.66 25 58.7533C23.6427 57.5173 22.616 55.9827 21.992 54.2867H8.66669C5.72269 54.2867 3.33336 51.8973 3.33336 48.9533V46.2867C3.33336 43.3427 5.72269 40.9533 8.66669 40.9533H14V20.9533C14 18.58 14.88 16.2867 16.4534 14.5267C18.4934 12.2333 20.9867 10.3933 23.7867 9.12665C25.4187 8.39598 27.1307 7.87732 28.884 7.58132C28.7427 7.17598 28.6667 6.73999 28.6667 6.28665C28.6667 4.07865 30.4587 2.28665 32.6667 2.28665C34.8747 2.28665 36.6667 4.07865 36.6667 6.28665C36.6667 6.79332 36.572 7.27865 36.3894 7.72132ZM26.6534 23.8733C26.5134 24.9693 25.5094 25.7467 24.4134 25.6067C23.3174 25.4667 22.54 24.4627 22.68 23.3667C22.8 22.46 23.0534 21.5667 23.4267 20.7133C23.7867 19.9 24.3067 19.1667 24.9334 18.54C25.56 17.9133 26.3067 17.4067 27.12 17.0467C27.9467 16.6867 28.8267 16.4333 29.72 16.3C30.8094 16.1453 31.8214 16.9067 31.98 18C32.1387 19.0933 31.376 20.112 30.28 20.2733C29.7467 20.34 29.2267 20.4867 28.7334 20.7133C28.3734 20.8733 28.04 21.1 27.7467 21.38C27.4667 21.66 27.24 21.9933 27.0667 22.3533C26.8534 22.8333 26.72 23.3533 26.6534 23.8733Z" fill="#9FEF00"/>
</svg>
