<svg width="64" height="64" viewBox="0 0 64 64" fill="none" xmlns="http://www.w3.org/2000/svg">
<path fill-rule="evenodd" clip-rule="evenodd" d="M18.6667 61.3337H10.6667C6.98667 61.3337 4 58.347 4 54.667V18.667H9.33333V52.0003C9.33333 54.2083 11.1253 56.0003 13.3333 56.0003V8.00033C11.1253 8.00033 9.33333 9.79233 9.33333 12.0003V18.667H4V9.33366C4 5.65366 6.98667 2.66699 10.6667 2.66699H18.6667H21.3333H56C58.944 2.66699 61.3333 5.05633 61.3333 8.00033V37.3337C61.3333 38.8057 60.1387 40.0003 58.6667 40.0003C57.1947 40.0003 56 38.8057 56 37.3337V10.667C56 9.19499 54.8053 8.00033 53.3333 8.00033H21.3333H18.6667V56.0003H21.3333H53.3333C54.8053 56.0003 56 54.8057 56 53.3337V50.667C56 49.195 57.1947 48.0003 58.6667 48.0003C60.1387 48.0003 61.3333 49.195 61.3333 50.667V56.0003C61.3333 58.9443 58.944 61.3337 56 61.3337H21.3333H18.6667ZM27.6587 18.011H27.532C27.3329 18.6074 27.1089 19.2714 26.86 20.003C26.612 20.7337 26.3884 21.4754 26.1893 22.2283H28.8307C28.6316 21.4612 28.4293 20.7123 28.224 19.9817C28.0178 19.2501 27.8293 18.5932 27.6587 18.011ZM39.8 23.8257H35.2413C35.1418 23.6692 35.0498 23.4634 34.9653 23.2083C34.88 22.9523 34.8373 22.6825 34.8373 22.399C34.8373 21.8737 34.9578 21.4937 35.1987 21.259C35.4404 21.0252 35.7529 20.9083 36.136 20.9083H40.6947C40.78 21.0639 40.8684 21.2697 40.96 21.5257C41.0524 21.7808 41.0987 22.0505 41.0987 22.335C41.0987 22.8603 40.9782 23.2399 40.7373 23.4737C40.4956 23.7083 40.1831 23.8257 39.8 23.8257ZM43.4 23.6977L48.2987 17.8617H43.0587C42.9591 17.7052 42.8667 17.4923 42.7813 17.223C42.696 16.9528 42.6533 16.6688 42.6533 16.371C42.6533 15.8172 42.7778 15.4194 43.0267 15.1777C43.2756 14.9368 43.5987 14.8163 43.996 14.8163H51.94C52.5649 15.3274 52.8773 16.0088 52.8773 16.8603C52.8773 17.2159 52.7956 17.5674 52.632 17.915C52.4693 18.2625 52.26 18.5928 52.004 18.9057L47.1693 24.7417H52.6213C52.7209 24.8981 52.8133 25.111 52.8987 25.3803C52.984 25.6505 53.0267 25.9345 53.0267 26.2323C53.0267 26.7861 52.9022 27.1839 52.6533 27.4257C52.4053 27.6665 52.0827 27.787 51.6853 27.787H43.2933C43.0516 27.5888 42.8524 27.319 42.696 26.9777C42.5404 26.6372 42.4627 26.247 42.4627 25.807C42.4627 25.4514 42.5547 25.0892 42.7387 24.7203C42.9236 24.3514 43.144 24.0105 43.4 23.6977ZM34.6667 38.667H50.6667C52.1387 38.667 53.3333 39.8617 53.3333 41.3337C53.3333 42.8057 52.1387 44.0003 50.6667 44.0003H34.6667C33.1947 44.0003 32 42.8057 32 41.3337C32 39.8617 33.1947 38.667 34.6667 38.667ZM24.976 15.263C25.2169 15.1217 25.5822 14.987 26.072 14.859C26.5618 14.731 27.0556 14.667 27.5533 14.667C28.2627 14.667 28.8907 14.7701 29.4373 14.9763C29.984 15.1817 30.3356 15.5043 30.492 15.9443C30.748 16.683 31.0249 17.5421 31.3227 18.5217C31.6204 19.5021 31.9187 20.5141 32.2173 21.5577C32.5151 22.6012 32.8062 23.6305 33.0907 24.6457C33.3742 25.6608 33.6227 26.559 33.836 27.3403C33.6653 27.5385 33.4098 27.6981 33.0693 27.819C32.7289 27.9399 32.324 28.0003 31.8547 28.0003C31.5142 28.0003 31.2267 27.9719 30.992 27.915C30.7582 27.8581 30.5667 27.7728 30.4173 27.659C30.268 27.5461 30.1476 27.3972 30.056 27.2123C29.9636 27.0274 29.8818 26.8145 29.8107 26.5737L29.4267 25.103H25.572C25.4582 25.5297 25.3444 25.9701 25.2307 26.4243C25.1178 26.8785 25.0044 27.3185 24.8907 27.7443C24.6916 27.8154 24.4818 27.8759 24.2613 27.9257C24.0418 27.9754 23.7756 28.0003 23.4627 28.0003C22.7391 28.0003 22.2031 27.8759 21.8547 27.627C21.5071 27.379 21.3333 27.035 21.3333 26.595C21.3333 26.3959 21.3618 26.1968 21.4187 25.9977C21.4756 25.7994 21.5396 25.5652 21.6107 25.295C21.7093 24.9119 21.8476 24.4363 22.0253 23.8683C22.2031 23.3003 22.3982 22.6861 22.6107 22.0257C22.824 21.3652 23.0516 20.6874 23.2933 19.9923C23.5342 19.2963 23.7613 18.6394 23.9747 18.0217C24.1871 17.4039 24.3822 16.8537 24.56 16.371C24.7378 15.8883 24.8764 15.519 24.976 15.263ZM42.6667 48.0003H50.6667C52.1387 48.0003 53.3333 49.195 53.3333 50.667C53.3333 52.139 52.1387 53.3337 50.6667 53.3337H42.6667C41.1947 53.3337 40 52.139 40 50.667C40 49.195 41.1947 48.0003 42.6667 48.0003Z" fill="#9FEF00"/>
</svg>
