<svg width="360" height="360" viewBox="0 0 360 360" fill="none" xmlns="http://www.w3.org/2000/svg">
<g clip-path="url(#clip0_12_944)">
<path d="M32.7273 133.855C32.7273 142.887 25.3964 150.218 16.3636 150.218C7.33091 150.218 0 142.887 0 133.855V40.9091C0 18.3273 18.3273 0 40.9091 0H133.855C142.887 0 150.218 7.33091 150.218 16.3636C150.218 25.3964 142.887 32.7273 133.855 32.7273H57.2727C43.7236 32.7273 32.7273 43.7236 32.7273 57.2727V133.855ZM226.145 32.7273C217.113 32.7273 209.782 25.3964 209.782 16.3636C209.782 7.33091 217.113 0 226.145 0H319.091C341.673 0 360 18.3273 360 40.9091V133.855C360 142.887 352.669 150.218 343.636 150.218C334.604 150.218 327.273 142.887 327.273 133.855V57.2727C327.273 43.7236 316.276 32.7273 302.727 32.7273H226.145ZM327.273 226.145C327.273 217.113 334.604 209.782 343.636 209.782C352.669 209.782 360 217.113 360 226.145V319.091C360 341.673 341.673 360 319.091 360H229.091C220.058 360 212.727 352.669 212.727 343.636C212.727 334.604 220.058 327.273 229.091 327.273H302.727C316.276 327.273 327.273 316.276 327.273 302.727V226.145ZM133.855 327.273C142.887 327.273 150.218 334.604 150.218 343.636C150.218 352.669 142.887 360 133.855 360H40.9091C18.3273 360 0 341.673 0 319.091V226.145C0 217.113 7.33091 209.782 16.3636 209.782C25.3964 209.782 32.7273 217.113 32.7273 226.145V302.727C32.7273 316.276 43.7236 327.273 57.2727 327.273H133.855Z" fill="#9FEF00"/>
<path d="M146.831 118.578C151.318 113.378 154.294 106.8 154.872 100.292C155.238 96.1147 153.895 91.7297 150.985 87.6063C146.42 81.1288 138.58 77.49 131.005 73.9743C125.353 71.351 120.011 68.8738 116.235 65.3351L115.557 64.7042C113.325 62.6271 110.804 60.2731 110.404 58.296C110.004 56.2958 107.383 54.8726 104.518 54.988C101.608 55.1265 99.354 56.7958 99.354 58.8191V127.364C94.7007 125.41 88.9701 124.209 82.6953 124.209C67.3916 124.209 54.9309 131.11 54.9309 139.595C54.9309 148.081 67.3916 154.981 82.6953 154.981C97.9991 154.981 110.46 148.081 110.46 139.595V94.7607C118.8 96.9686 132.449 102.592 136.203 115.724C135.503 116.44 134.837 117.209 134.06 117.824C132.027 119.417 132.249 121.848 134.559 123.248C136.847 124.663 140.357 124.494 142.389 122.902C143.877 121.732 145.199 120.363 146.465 118.932C146.598 118.824 146.721 118.709 146.831 118.578Z" fill="#A4B1CD"/>
<path d="M140.839 266.715C154.723 262.041 155.011 244.769 155.011 244.049C155.011 243.669 154.892 243.299 154.672 242.995C154.266 242.397 144.259 228.604 130.375 233.296C126.545 234.636 122.962 236.638 119.775 239.217C121.167 235.275 121.9 231.115 121.943 226.918C121.943 211.772 106.213 206.149 105.553 205.921C105.201 205.797 104.82 205.797 104.469 205.921C103.809 206.149 88.0788 211.772 88.0788 227.005C88.1259 231.203 88.8588 235.362 90.246 239.305C87.0545 236.692 83.4591 234.66 79.6128 233.296C65.7455 228.604 55.7557 242.397 55.3493 242.995C55.1295 243.299 55.0107 243.669 55.0107 244.049C55.0107 244.769 55.2985 262.041 69.1827 266.715C73.0405 267.976 77.078 268.54 81.1197 268.385C77.7627 270.719 74.8138 273.631 72.3998 276.994C63.8153 289.294 73.3649 303.35 73.7882 303.983C73.9923 304.299 74.2985 304.53 74.6517 304.633C77.3657 305.439 80.1762 305.842 82.9992 305.828C95.0208 305.828 101.624 298.36 105.011 286.5C108.482 298.43 115.051 305.828 127.022 305.828C129.84 305.834 132.645 305.426 135.353 304.615C135.706 304.512 136.012 304.282 136.216 303.965C136.64 303.368 146.189 289.241 137.605 276.977C135.187 273.623 132.245 270.713 128.902 268.367C132.942 268.525 136.979 267.966 140.839 266.715Z" fill="#A4B1CD"/>
<path d="M237.42 318.583C230.715 318.583 224.629 317.32 219.164 314.794C213.698 312.222 209.358 308.524 206.143 303.702C202.928 298.834 201.321 292.955 201.321 286.066C201.321 280.003 202.515 275.089 204.903 271.323C207.291 267.511 210.483 264.525 214.479 262.367C218.475 260.208 222.884 258.601 227.706 257.544C232.575 256.442 237.466 255.569 242.38 254.926C248.81 254.1 254.023 253.48 258.019 253.066C262.06 252.607 265 251.849 266.837 250.793C268.72 249.737 269.662 247.899 269.662 245.282V244.73C269.662 237.933 267.801 232.651 264.081 228.885C260.407 225.119 254.827 223.236 247.341 223.236C239.579 223.236 233.493 224.935 229.084 228.334C224.675 231.733 221.575 235.361 219.784 239.219L204.352 233.708C207.108 227.278 210.782 222.272 215.375 218.689C220.013 215.061 225.065 212.535 230.531 211.111C236.042 209.641 241.462 208.907 246.789 208.907C250.188 208.907 254.092 209.32 258.501 210.147C262.956 210.927 267.25 212.558 271.384 215.038C275.563 217.518 279.031 221.261 281.787 226.267C284.542 231.273 285.92 237.979 285.92 246.384V316.103H269.662V301.773H268.835C267.733 304.069 265.895 306.527 263.324 309.144C260.752 311.762 257.33 313.99 253.059 315.827C248.787 317.664 243.574 318.583 237.42 318.583ZM239.9 303.978C246.33 303.978 251.75 302.715 256.159 300.188C260.614 297.662 263.966 294.402 266.217 290.406C268.513 286.41 269.662 282.208 269.662 277.799V262.918C268.973 263.745 267.457 264.502 265.115 265.191C262.818 265.834 260.154 266.408 257.123 266.914C254.138 267.373 251.221 267.786 248.374 268.154C245.572 268.475 243.299 268.751 241.554 268.98C237.328 269.532 233.378 270.427 229.704 271.667C226.076 272.861 223.136 274.675 220.886 277.11C218.681 279.498 217.579 282.759 217.579 286.892C217.579 292.541 219.669 296.813 223.848 299.706C228.074 302.554 233.424 303.978 239.9 303.978Z" fill="#141D2B"/>
<path d="M253.793 84.7883C265.168 84.7883 274.389 78.5069 274.389 70.7584C274.389 63.0099 265.168 56.7285 253.793 56.7285C242.418 56.7285 233.197 63.0099 233.197 70.7584C233.197 78.5069 242.418 84.7883 253.793 84.7883Z" fill="#A4B1CD"/>
<path d="M231.823 115.186V104.897L215.347 116.121C214.068 116.975 212.346 117.451 210.555 117.444C208.764 117.438 207.05 116.951 205.783 116.088C204.517 115.226 203.802 114.058 203.793 112.838C203.784 111.618 204.482 110.445 205.735 109.574L233.197 90.8675C235.943 88.9968 237.316 88.0615 241.435 88.0615H266.15C270.27 88.0615 271.643 88.9968 274.389 90.8675L301.85 109.574C303.104 110.445 303.802 111.618 303.793 112.838C303.784 114.058 303.068 115.226 301.802 116.088C300.536 116.951 298.821 117.438 297.03 117.444C295.24 117.451 293.518 116.975 292.239 116.121L275.762 104.897V115.186H231.823Z" fill="#A4B1CD"/>
<path d="M248.3 132.022L235.943 140.44L248.3 148.858C249.554 149.729 250.252 150.902 250.243 152.122C250.234 153.341 249.518 154.509 248.252 155.372C246.986 156.235 245.271 156.722 243.48 156.728C241.69 156.734 239.968 156.259 238.689 155.405L218.093 141.375C216.997 140.643 216.126 139.77 215.532 138.807C214.937 137.843 214.631 136.808 214.631 135.763C214.631 134.718 214.937 133.683 215.532 132.719C216.126 131.756 216.997 130.883 218.093 130.151L231.823 120.798L248.3 132.022Z" fill="#A4B1CD"/>
<path d="M259.285 132.022L271.643 140.44L259.285 148.858C258.032 149.729 257.334 150.902 257.343 152.122C257.352 153.341 258.067 154.509 259.333 155.372C260.599 156.235 262.314 156.722 264.105 156.728C265.896 156.734 267.618 156.259 268.896 155.405L289.493 141.375C290.589 140.643 291.459 139.77 292.054 138.807C292.648 137.843 292.954 136.808 292.954 135.763C292.954 134.718 292.648 133.683 292.054 132.719C291.459 131.756 290.589 130.883 289.493 130.151L275.762 120.798L259.285 132.022Z" fill="#A4B1CD"/>
</g>
<defs>
<clipPath id="clip0_12_944">
<rect width="360" height="360" fill="white"/>
</clipPath>
</defs>
</svg>
