<svg width="48" height="48" viewBox="0 0 48 48" fill="none" xmlns="http://www.w3.org/2000/svg">
<g clip-path="url(#clip0_62_3793)">
<path fill-rule="evenodd" clip-rule="evenodd" d="M0.355064 31.8739L17.9491 1.09894C18.3051 0.475942 18.9681 0.0909424 19.6851 0.0909424H43.2801C45.8351 0.0909424 47.9091 2.16494 47.9091 4.71994V43.2799C47.9091 45.8349 45.8351 47.9089 43.2801 47.9089H4.72006C2.16506 47.9089 0.0910645 45.8349 0.0910645 43.2799V32.8659C0.0910645 32.5179 0.182064 32.1759 0.355064 31.8739ZM9.12607 24.5919L4.09106 33.3979V43.2799C4.09106 43.6269 4.37306 43.9089 4.72006 43.9089H20.2781L9.12607 24.5919ZM24.8971 43.9089H29.0771L13.5031 16.9339C13.5031 16.9339 13.0151 17.7889 12.5111 18.6699C11.8381 19.8479 11.8411 21.2949 12.5191 22.4699C15.7311 28.0329 24.8971 43.9089 24.8971 43.9089ZM33.6961 43.9089H37.8761L17.8811 9.27694L15.8011 12.9149L33.6961 43.9089ZM42.4951 43.9089H43.2801C43.6271 43.9089 43.9091 43.6269 43.9091 43.2799V39.1179L23.6861 4.09094H20.8461L20.1791 5.25694L42.4951 43.9089ZM43.9091 31.1179V4.71994C43.9091 4.37294 43.6271 4.09094 43.2801 4.09094H28.3051L43.9091 31.1179Z" fill="#A4B1CD"/>
</g>
<defs>
<clipPath id="clip0_62_3793">
<rect width="48" height="48" fill="white"/>
</clipPath>
</defs>
</svg>
