<svg width="48" height="48" viewBox="0 0 48 48" fill="none" xmlns="http://www.w3.org/2000/svg">
<g clip-path="url(#clip0_2_2046)">
<path fill-rule="evenodd" clip-rule="evenodd" d="M0.35482 31.8738L17.9488 1.09882C18.3048 0.47582 18.9678 0.0908203 19.6848 0.0908203H43.2798C45.8348 0.0908203 47.9088 2.16482 47.9088 4.71982V43.2798C47.9088 45.8348 45.8348 47.9088 43.2798 47.9088H4.71982C2.16482 47.9088 0.0908203 45.8348 0.0908203 43.2798V32.8658C0.0908203 32.5178 0.18182 32.1758 0.35482 31.8738ZM26.4308 4.09082H20.8458L4.09082 33.3978V43.2798C4.09082 43.6268 4.37282 43.9088 4.71982 43.9088H22.5698C22.5698 43.9088 13.6078 28.5388 13.6068 28.5368C13.2468 27.9188 13.2438 27.1578 13.5978 26.5368L26.4308 4.09082ZM27.2008 43.9088H43.2798C43.6268 43.9088 43.9088 43.6268 43.9088 43.2798V32.1798C43.9088 32.1798 35.2468 32.1798 35.2408 32.1798H20.3618L27.2008 43.9088ZM43.9088 28.1798V4.71982C43.9088 4.37282 43.6268 4.09082 43.2798 4.09082H31.0378L26.7368 11.6148L36.3958 28.1798H43.9088ZM24.4448 15.6248C24.4448 15.6248 21.7228 20.3858 19.6308 24.0438C19.1418 24.8998 19.1458 25.9508 19.6398 26.8028C20.1348 27.6558 21.0458 28.1798 22.0308 28.1798C26.2578 28.1798 31.7658 28.1798 31.7658 28.1798L24.4448 15.6248Z" fill="#9FEF00"/>
</g>
<defs>
<clipPath id="clip0_2_2046">
<rect width="48" height="48" fill="white"/>
</clipPath>
</defs>
</svg>
