<svg width="48" height="48" viewBox="0 0 48 48" fill="none" xmlns="http://www.w3.org/2000/svg">
<g clip-path="url(#clip0_62_3790)">
<path fill-rule="evenodd" clip-rule="evenodd" d="M0.355064 31.8739L17.9491 1.09894C18.3051 0.475942 18.9681 0.0909424 19.6851 0.0909424H43.2801C45.8351 0.0909424 47.9091 2.16494 47.9091 4.71994V43.2799C47.9091 45.8349 45.8351 47.9089 43.2801 47.9089H4.72006C2.16506 47.9089 0.0910645 45.8349 0.0910645 43.2799V32.8659C0.0910645 32.5179 0.182064 32.1759 0.355064 31.8739ZM11.4751 20.4819L4.09106 33.3979V43.2799C4.09106 43.3699 4.11006 43.4559 4.14506 43.5339C4.15406 43.5159 4.16406 43.4979 4.17406 43.4799L15.7401 23.2499C15.7781 23.1459 15.8261 23.0439 15.8831 22.9459L17.3051 20.4819H11.4751ZM18.6641 7.90794L13.7621 16.4819H20.7741H23.6141L18.6641 7.90794ZM39.5261 4.09094H21.0791C21.0791 4.09094 28.8121 17.4849 28.8131 17.4869L30.2571 19.9879L39.5261 4.09094ZM43.9091 27.4099V4.71994C43.9091 4.66294 43.9011 4.60694 43.8871 4.55494L30.5601 27.4099H43.9091ZM31.5391 43.9089H43.2801C43.6271 43.9089 43.9091 43.6269 43.9091 43.2799V31.4099C43.9091 31.4099 27.0751 31.4099 27.0731 31.4099H24.2511L31.5391 43.9089ZM8.53706 43.9089H26.9091C26.9091 43.9089 19.0401 30.4139 19.0371 30.4099L17.6321 27.9999L8.53706 43.9089ZM25.9231 20.4819H21.9301L19.9371 23.9679L21.9241 27.4099H25.9231L27.9231 23.9459L25.9231 20.4819Z" fill="#9FEF00"/>
</g>
<defs>
<clipPath id="clip0_62_3790">
<rect width="48" height="48" fill="white"/>
</clipPath>
</defs>
</svg>
