<svg width="64" height="64" viewBox="0 0 64 64" fill="none" xmlns="http://www.w3.org/2000/svg">
<path fill-rule="evenodd" clip-rule="evenodd" d="M18 10.6667C19.472 10.6667 20.6666 9.47204 20.6666 8.00004C20.6666 6.52804 19.472 5.33337 18 5.33337H9.99998C6.31998 5.33337 3.33331 8.32004 3.33331 12V18.6667C3.33331 20.1387 4.52798 21.3334 5.99998 21.3334C7.47198 21.3334 8.66665 20.1387 8.66665 18.6667V14.6667C8.66665 12.4587 10.4586 10.6667 12.6666 10.6667H18ZM55.3333 28C55.3333 29.472 56.528 30.6667 58 30.6667C59.472 30.6667 60.6666 29.472 60.6666 28V12C60.6666 8.32004 57.68 5.33337 54 5.33337H30C28.528 5.33337 27.3333 6.52804 27.3333 8.00004C27.3333 9.47204 28.528 10.6667 30 10.6667H51.3333C53.5413 10.6667 55.3333 12.4587 55.3333 14.6667V28ZM40.6666 42.6667C39.1946 42.6667 38 41.472 38 40C38 38.528 39.1946 37.3334 40.6666 37.3334H54C57.68 37.3334 60.6666 40.32 60.6666 44V52C60.6666 55.68 57.68 58.6667 54 58.6667H9.99998C6.31998 58.6667 3.33331 55.68 3.33331 52V32C3.33331 30.528 4.52798 29.3334 5.99998 29.3334C7.47198 29.3334 8.66665 30.528 8.66665 32V49.3334C8.66665 51.5414 10.4586 53.3334 12.6666 53.3334H51.3333C53.5413 53.3334 55.3333 51.5414 55.3333 49.3334V46.6667C55.3333 44.4587 53.5413 42.6667 51.3333 42.6667H40.6666Z" fill="#9FEF00"/>
<path d="M16.3866 39.4467C15.7253 40.764 14.12 41.2987 12.8066 40.64C11.4933 39.9813 10.9586 38.3827 11.6133 37.0733L20.7133 20.9453C22.16 18.3813 24.508 18.3813 25.9546 20.9453L35.0533 37.0733C35.708 38.3827 35.1733 39.9813 33.86 40.64C32.5466 41.2987 30.9426 40.764 30.28 39.4467L23.3333 28.22L16.3866 39.4467Z" fill="#141D2B"/>
<path d="M24.1533 33.052L28.072 38.076C28.524 38.656 28.624 39.6626 28.2947 40.32L23.9294 49.0506C23.6014 49.7093 23.0667 49.7093 22.7373 49.0506L18.372 40.32C18.0427 39.6626 18.144 38.656 18.596 38.076L22.5134 33.052C22.9667 32.4706 23.7013 32.4706 24.1533 33.052Z" fill="#A4B1CD"/>
</svg>
