<svg width="64" height="64" viewBox="0 0 64 64" fill="none" xmlns="http://www.w3.org/2000/svg">
<g clip-path="url(#clip0_62_3799)">
<path fill-rule="evenodd" clip-rule="evenodd" d="M30.448 19.976C30.128 20.1627 29.8813 20.4534 29.7467 20.8C29.5867 21.2134 29.5867 21.6667 29.76 22.0667C29.9333 22.48 30.2667 22.8 30.68 22.96C31.6267 23.3334 32.6133 23.5867 33.6133 23.72C34.4 23.8134 35.1733 23.8534 35.96 23.8534C36.4267 23.8534 36.88 23.88 37.3467 23.9334C37.5333 23.9467 37.7333 24 37.9067 24.08C38.36 24.52 38.7467 25.0267 39.0533 25.5867C39.52 26.4 39.9467 27.2267 40.3333 28.08C40.7067 28.9067 41.12 29.72 41.56 30.5334C42.0133 31.3867 42.56 32.1867 43.2 32.92C43.88 33.6667 44.6667 34.3067 45.5333 34.8267C46.3333 35.32 47.1467 35.7867 47.9867 36.2267C48.6267 36.56 49.2533 36.9067 49.8533 37.2934C50.04 37.4134 50.2133 37.5467 50.3733 37.6934C50.4 37.72 50.4267 37.7467 50.44 37.7734C50.84 38.56 51.04 39.44 51.0533 40.32C51.0533 41.0134 50.92 41.7067 50.6533 42.3467C50.44 42.9067 50.12 43.4134 49.6933 43.84C49.4133 44.1334 49.0667 44.3467 48.68 44.5067C48.28 44.6534 47.8533 44.72 47.4267 44.72C46.8933 44.7067 46.3733 44.64 45.8667 44.4934C45.2667 44.3334 44.6933 44.1067 44.1333 43.8267C43.2267 43.3867 42.36 42.88 41.52 42.32C40.9333 41.8934 40.36 41.4534 39.8133 40.9734C39.8133 40.9734 39.8 40.9734 39.8 40.96L39.5467 40.7467C39.5333 40.7467 39.5333 40.7334 39.52 40.7334C38.7067 40.0667 37.76 39.56 36.7467 39.2667C35.7067 38.96 34.64 38.8 33.56 38.7867H33.2933C33.2667 38.7867 33.2533 38.7867 33.24 38.7867C32.5067 38.8 31.7733 38.84 31.04 38.92C30.4267 39 29.8133 39.04 29.2 39.04C28.7867 39.0534 28.3867 39 27.9867 38.8934C27.6933 38.8134 27.4267 38.6534 27.2 38.4534C26.8 38.0667 26.52 37.5734 26.3867 37.0267C26.24 36.2667 26.1733 35.4934 26.2 34.72C26.2 34.7067 26.2 34.6934 26.2 34.6667V34.2667L26.2133 33.8934C26.24 32.8134 26.1467 31.7467 25.9333 30.6934C25.8533 30.2667 25.6 29.88 25.2267 29.64C24.8667 29.3867 24.4133 29.3067 23.9733 29.3867C23.5467 29.48 23.16 29.7334 22.92 30.0934C22.6667 30.4667 22.5867 30.92 22.6667 31.3467C22.8267 32.16 22.9067 32.9867 22.88 33.8134C22.88 33.8267 22.88 33.84 22.88 33.8534L22.8667 34.2667V34.64C22.84 35.6667 22.92 36.7067 23.1333 37.72C23.4 38.92 24.0133 40.0267 24.92 40.88C25.5333 41.4534 26.28 41.8667 27.08 42.1067C27.7867 42.3067 28.52 42.3867 29.2667 42.3734C29.34 42.372 29.4133 42.3707 29.4867 42.3667C29.5093 42.3734 29.5347 42.3734 29.56 42.3707V42.3734C29.5867 44 29.7867 45.64 30.1733 47.2267C30.5733 48.96 31.12 50.6667 31.8 52.3067C32.4533 53.92 33.28 55.4534 34.28 56.88C34.7333 57.5334 35.2533 58.16 35.8267 58.72C36.36 59.2667 36.9733 59.7334 37.64 60.1067C38.0267 60.3334 38.48 60.3867 38.9067 60.28C39.3333 60.16 39.6933 59.88 39.92 59.4934C40.1333 59.12 40.2 58.6534 40.08 58.2267C39.96 57.8 39.68 57.44 39.2933 57.2267C38.8933 56.9867 38.52 56.6934 38.1867 56.36C37.7467 55.9334 37.36 55.4667 37.0133 54.9734C36.16 53.7467 35.44 52.4267 34.88 51.04C34.2667 49.56 33.7733 48.0267 33.4267 46.4667C33.0947 45.1254 32.9213 43.744 32.8933 42.3507C32.9053 42.3494 32.916 42.3467 32.928 42.3454C32.9133 42.3294 32.9013 42.3134 32.8947 42.2987C32.8933 42.2494 32.8947 42.1987 32.8987 42.148C32.896 42.14 32.9027 42.1347 32.9067 42.128C33.028 42.1214 33.1467 42.12 33.2667 42.12H33.5067C34.2933 42.1334 35.0667 42.2534 35.8133 42.4667C36.3867 42.64 36.9333 42.92 37.4 43.3067L37.64 43.5067C38.28 44.0534 38.9333 44.5734 39.6133 45.0534C40.5867 45.72 41.6133 46.3067 42.6667 46.8134C43.4 47.1867 44.1733 47.48 44.9733 47.7067C45.76 47.9334 46.5733 48.04 47.4 48.0534C48.24 48.0534 49.0667 47.9067 49.8533 47.6134C50.6933 47.3067 51.44 46.8134 52.0667 46.1867C52.8 45.44 53.3733 44.5467 53.76 43.5734C54.1733 42.5334 54.3867 41.4267 54.3867 40.3067C54.3733 38.8934 54.04 37.4934 53.4 36.2267C53.1867 35.8267 52.9067 35.48 52.5733 35.1867C52.28 34.9334 51.9733 34.6934 51.64 34.48C50.96 34.04 50.24 33.64 49.52 33.2667C48.76 32.8667 48.0133 32.44 47.28 31.9867C46.6933 31.6267 46.1467 31.2 45.68 30.6934C45.2267 30.16 44.8267 29.5734 44.4933 28.9467C44.0933 28.2134 43.7067 27.4534 43.36 26.6934C42.9333 25.76 42.4667 24.84 41.96 23.9467C41.4133 22.96 40.6933 22.08 39.84 21.3334C39.1867 20.9467 38.4667 20.7067 37.7067 20.6134C37.3373 20.5707 36.9627 20.544 36.5867 20.5294C36.6093 20.536 36.632 20.5454 36.6533 20.5734C36.4373 19.6227 36.3493 18.652 36.3733 17.68C36.3733 17.1867 36.3867 16.6934 36.4 16.2C36.4133 15.7734 36.4267 15.3334 36.4267 14.9067C36.4267 14.4534 36.4133 13.9867 36.36 13.5467C36.32 13.0534 36.2 12.5734 36.0133 12.1067C35.72 11.4934 35.3467 10.9067 34.8933 10.3734C34.4533 9.81338 33.9867 9.29338 33.4933 8.78671C33.0533 8.32005 32.5867 7.88005 32.0933 7.46671C31.92 7.32005 31.72 7.17338 31.52 7.02671C31.2 6.78671 30.8 6.62671 30.3867 6.58671C29.8933 6.54671 29.4 6.72005 29.0533 7.06671C28.6933 7.41338 28.4933 7.89338 28.52 8.38671C28.52 8.45338 28.52 8.50671 28.5333 8.57338L28.5467 8.64005C28.5467 8.68005 28.56 8.72005 28.5733 8.76005C28.6667 9.20005 28.7067 9.66671 28.6933 10.1334C28.68 11.2134 28.6 12.2934 28.4667 13.36C28.3467 14.36 28.2133 15.3467 28.0533 16.32C27.6667 16.2934 27.28 16.2667 26.8933 16.2667C26.44 16.28 26 16.3067 25.5467 16.3734C25.2267 15.8934 24.92 15.4 24.6533 14.88C24.1733 14 23.7333 13.1067 23.3067 12.2C22.9867 11.52 22.6533 10.84 22.28 10.1734C22.1467 9.90671 21.9733 9.65338 21.7867 9.41338C21.4667 8.94671 20.9733 8.64005 20.4133 8.54671C20.24 8.52005 20.0533 8.52005 19.88 8.54671H19.84C19.72 8.56005 19.6 8.60005 19.4933 8.64005C19.12 8.77338 18.8 9.01338 18.56 9.33338C18.4133 9.53338 18.28 9.74671 18.1733 9.98671C17.9733 10.4134 17.8267 10.88 17.7333 11.3467C17.4933 12.4534 17.3733 13.5734 17.3867 14.7067C17.3733 15.6667 17.4667 16.64 17.6667 17.5734C17.8133 18.1334 18.0267 18.68 18.2933 19.1867C18.5733 19.8267 18.88 20.4534 19.1867 21.08C19.2133 21.12 19.24 21.1734 19.2533 21.2267C19 21.4534 18.7467 21.68 18.48 21.88C17.9333 22.2934 17.4267 22.7467 16.96 23.24C16.3867 23.8534 15.9333 24.5734 15.6 25.3467C15.36 25.96 15.16 26.5867 15.0133 27.2267C14.8533 27.92 14.72 28.6267 14.6133 29.3334C14.4 30.9334 14.2133 32.5334 14.08 34.1467C13.96 35.4667 13.8267 36.8 13.6667 38.12C13.52 39.4267 13.32 40.7334 13.0667 42.04C12.8267 43.24 12.5067 44.4134 12.1067 45.5734C11.76 46.5734 11.2933 47.5334 10.7067 48.4134C10.4667 48.7867 10.3733 49.2267 10.4533 49.6667C10.5467 50.0934 10.8 50.48 11.1733 50.72C11.5467 50.96 11.9867 51.0534 12.4267 50.9734C12.8533 50.88 13.24 50.6267 13.48 50.2534C14.2267 49.1334 14.8133 47.9334 15.2533 46.6667C15.7067 45.36 16.0667 44.0267 16.3333 42.6667C16.6 41.2934 16.8133 39.9067 16.9867 38.5067C17.1333 37.1467 17.28 35.8 17.4 34.44C17.5333 32.88 17.7067 31.3334 17.92 29.8C18.0133 29.1734 18.12 28.5734 18.2667 27.96C18.36 27.5067 18.5067 27.0667 18.68 26.6267C18.8533 26.2267 19.0933 25.8534 19.3867 25.52C19.7333 25.16 20.12 24.8267 20.5067 24.52C21.52 23.7467 22.44 22.8534 23.2533 21.88C22.9067 21.12 22.5467 20.36 22.1733 19.6134C21.8667 18.9867 21.5733 18.36 21.28 17.72C21.1333 17.4267 21 17.12 20.9067 16.8C20.7733 16.1067 20.7067 15.4134 20.72 14.7067C20.72 14.64 20.72 14.5867 20.72 14.52C21.04 15.16 21.36 15.8 21.7067 16.44C22.4 17.76 23.2533 18.9867 24.2533 20.08C25.1067 19.8 26 19.64 26.9067 19.6C28.0653 19.636 29.2133 19.7894 30.3413 20.064C30.3707 20.0227 30.4053 19.9934 30.448 19.976ZM30.7933 19.8627C31.2053 17.8414 31.532 15.82 31.7733 13.7734C31.8533 13.2 31.9067 12.6134 31.9467 12.0267C32.08 12.1867 32.2 12.3334 32.32 12.48C32.5733 12.7867 32.7867 13.1067 32.96 13.4534C33.0133 13.5867 33.04 13.7067 33.04 13.84C33.08 14.1867 33.0933 14.5334 33.0933 14.88C33.0933 15.28 33.08 15.6934 33.0667 16.1067C33.0533 16.6134 33.0533 17.12 33.04 17.6267C33.0227 18.5254 33.0773 19.4307 33.2187 20.32C33.2187 20.292 33.2333 20.2774 33.2707 20.2787C32.8067 20.1814 32.3507 20.0414 31.9067 19.8667C31.5067 19.7067 31.04 19.7067 30.64 19.88C30.6267 19.8854 30.6147 19.8907 30.6027 19.8987C30.5493 19.92 30.4973 19.9467 30.7933 19.8627Z" fill="#A4B1CD"/>
<path fill-rule="evenodd" clip-rule="evenodd" d="M12.0932 48.7066L13.7998 50.3866C12.9412 51.4292 11.5945 52.7092 11.5945 52.7092C10.5598 53.5239 8.94917 53.2732 8.00117 52.1479L7.99984 52.1466C3.2665 46.5066 0.666504 39.3732 0.666504 31.9999C0.666504 24.3066 3.5065 16.8799 8.6265 11.1466C9.60517 10.0506 11.2905 9.95456 12.3865 10.9332C13.4825 11.9119 13.5785 13.5972 12.5998 14.6932C8.3465 19.4532 5.99984 25.6132 5.99984 31.9999C5.99984 38.1066 8.15984 44.0266 12.0932 48.7066ZM35.3198 6.21323C33.8558 6.02256 32.8185 4.6839 33.0065 3.22656C33.1945 1.76923 34.5292 0.735896 35.9865 0.919896C43.5465 1.89323 50.4932 5.57323 55.5332 11.2932C60.5598 17.0132 63.3332 24.3866 63.3332 31.9999C63.3332 40.3066 60.0265 48.2799 54.1598 54.1599C48.2798 60.0266 40.3065 63.3332 31.9998 63.3332C28.4398 63.3332 24.9065 62.7332 21.5465 61.5466C20.1558 61.0532 19.4265 59.5266 19.9198 58.1399C20.4132 56.7532 21.9358 56.0266 23.3198 56.5199C26.1065 57.4932 29.0398 57.9999 31.9998 57.9999C38.8932 57.9999 45.5065 55.2532 50.3865 50.3866C55.2532 45.5066 57.9998 38.8932 57.9998 31.9999C57.9998 25.6799 55.7065 19.5732 51.5198 14.8266C47.3465 10.0799 41.5865 7.01323 35.3198 6.21323Z" fill="#9FEF00"/>
</g>
<defs>
<clipPath id="clip0_62_3799">
<rect width="64" height="64" fill="white"/>
</clipPath>
</defs>
</svg>
