<svg width="64" height="64" viewBox="0 0 64 64" fill="none" xmlns="http://www.w3.org/2000/svg">
<path fill-rule="evenodd" clip-rule="evenodd" d="M23.976 12.5894L22.832 13.7094L20.732 11.564L21.876 10.444L25.8813 6.52271L51.0866 32.2707L41.36 41.7934L40.216 42.9134L38.116 40.768L39.26 39.648L46.6986 32.3654L25.6933 10.9094L23.976 12.5894ZM17.1253 44.508L18.176 45.5814L15.8866 47.8214L14.8373 46.748L0.133301 31.7294L16.1546 16.0454L17.2986 14.9254L19.3986 17.0707L18.2546 18.1907L4.52263 31.6347L17.1253 44.508ZM34.1106 44.6894L35.2546 43.568L37.3546 45.7147L36.2106 46.8347L25.3386 57.4774L19.0373 51.04L17.988 49.9667L20.276 47.7267L21.3266 48.8L25.528 53.0907L34.1106 44.6894ZM41.8906 14.752L40.5013 13.2534L43.4986 10.4734L44.888 11.972L63.8666 32.4227L44.8333 51.4147L43.3893 52.8587L40.5013 49.9707L41.9453 48.5254L58.1986 32.3134L41.8906 14.752Z" fill="#9FEF00"/>
</svg>
