<svg width="64" height="64" viewBox="0 0 64 64" fill="none" xmlns="http://www.w3.org/2000/svg">
<path fill-rule="evenodd" clip-rule="evenodd" d="M1.75882 17.8094C1.69216 18.0374 1.66016 18.296 1.66016 18.5787V48.8814C1.66016 50.532 2.83082 52.5254 4.27349 53.3294L21.3322 62.8387C22.7442 63.6894 24.5815 63.2334 25.4322 61.8214C26.2815 60.4094 25.8268 58.5654 24.4148 57.7067L7.64416 48.5067V20.6254L31.2988 6.97203L47.9482 16.336C49.2948 17.3027 51.1682 16.9974 52.1295 15.656C53.0922 14.3147 52.7802 12.44 51.4335 11.4747L34.2362 1.36669C32.8135 0.530691 30.4962 0.521358 29.0655 1.34669L2.76816 16.5294C2.62282 16.592 2.48949 16.6734 2.36816 16.7734C2.35349 16.7774 2.34416 16.784 2.34016 16.792C1.91616 17.084 1.71216 17.448 1.75882 17.8094ZM39.5855 57.7067C38.1735 58.5654 37.7188 60.4094 38.5682 61.8214C39.4188 63.2334 41.2562 63.6894 42.6682 62.8387L59.7268 53.3294C61.1695 52.5254 62.3402 50.532 62.3402 48.8814V27.86C62.3402 26.208 61.0148 25.0374 59.3842 25.2454C57.7122 25.46 56.3562 27.0067 56.3562 28.6974V48.5067L39.5855 57.7067ZM25.3335 16C23.9428 16.656 22.3215 17.5147 21.1388 18.5187C18.1428 21.056 16.0348 24.5454 15.1415 28.448C14.8255 29.8307 14.6655 31.248 14.6668 32.6694C14.6628 35.7307 15.4042 38.7414 16.8202 41.4267C16.9162 40.5454 17.1335 39.684 17.4642 38.864C18.5322 41.5387 20.2215 43.8934 22.3855 45.7214C24.5508 47.5494 27.1202 48.7907 29.8628 49.3334C29.3908 48.6974 29.0002 48.0027 28.7015 47.2627C30.1615 47.7534 31.6828 48.024 33.2162 48.0627C33.3522 48.0627 33.4882 48.068 33.6255 48.068C36.0628 48.072 38.4695 47.4934 40.6562 46.3774C40.2922 46.164 39.9415 45.9254 39.6095 45.6614C42.0388 44.6974 44.1895 43.1014 45.8522 41.028C46.6228 40.0694 47.2775 39.0174 47.8082 37.896C46.9828 38.2067 46.1188 38.3907 45.2428 38.4427C45.0562 38.456 44.8682 38.464 44.6802 38.464H44.4922C44.6082 38 44.6868 37.528 44.7322 37.052C44.7615 36.744 44.7762 36.4307 44.7762 36.1147C44.7762 35.7614 44.7575 35.4107 44.7188 35.06C43.8362 35.5134 42.8882 35.8147 41.9122 35.9507C41.6402 35.9894 41.3628 36.0147 41.0842 36.0267C41.1722 35.568 41.2295 35.1027 41.2508 34.636C41.2575 34.48 41.2615 34.3254 41.2615 34.1694C41.2615 33.4987 41.1948 32.8294 41.0575 32.1747C40.3668 32.5974 39.6242 32.9227 38.8495 33.14C38.5695 33.22 38.2855 33.284 37.9948 33.336L37.9868 33.3254C38.0722 32.888 38.1268 32.4454 38.1495 32C38.1588 31.8334 38.1615 31.6667 38.1615 31.492C38.1615 30.9254 38.1135 30.36 38.0162 29.8027C37.0628 30.8387 35.9148 31.664 34.6442 32.2267C33.3735 32.7894 32.0042 33.0774 30.6228 33.076C28.9908 33.0787 27.3815 32.6747 25.9322 31.8987C26.5922 31.6334 27.2202 31.2894 27.8028 30.872C26.2562 30.1027 24.9522 28.896 24.0402 27.3907C23.1268 25.8854 22.6402 24.1454 22.6415 22.3667C22.6402 21.7974 22.6908 21.2294 22.7895 20.6694C22.8868 20.1134 23.0322 19.5694 23.2242 19.0414C23.4135 18.5214 23.6482 18.0187 23.9255 17.5414C24.2375 16.9974 24.9215 16.468 25.3335 16ZM38.7082 16C39.8362 17.5067 40.5482 19.3027 40.7682 21.1947C40.7775 21.2614 40.7828 21.3267 40.7895 21.3934C40.7895 21.3987 40.7895 21.404 40.7895 21.4094C40.7962 21.4774 40.8028 21.5454 40.8082 21.6147V21.6507C40.8135 21.72 40.8162 21.788 40.8202 21.8574C40.8242 21.9254 40.8282 21.9947 40.8308 22.0627C40.8308 22.1107 40.8308 22.16 40.8362 22.208C40.8362 22.216 40.8362 22.224 40.8362 22.232V22.32V22.4787C40.8388 24.6427 40.2002 26.7534 39.0055 28.528C39.1375 29.1734 39.2028 29.828 39.2042 30.4867C39.2042 30.9307 39.1722 31.376 39.1122 31.8147C39.6908 31.6734 40.2548 31.472 40.7948 31.2134C41.1962 31.024 41.5815 30.804 41.9508 30.5547C42.0268 30.8267 42.0908 31.1054 42.1415 31.388C42.2495 31.9734 42.3042 32.568 42.3028 33.164C42.3028 33.6387 42.2695 34.112 42.2015 34.5814C43.0002 34.4947 43.7828 34.2987 44.5322 33.9974C44.9242 33.84 45.3082 33.6547 45.6748 33.44C45.7295 33.7587 45.7695 34.08 45.7922 34.404C45.8095 34.6387 45.8188 34.876 45.8188 35.1147C45.8188 35.768 45.7522 36.4187 45.6228 37.0574C46.5642 37.0174 47.4922 36.824 48.3748 36.4867C49.0095 34.7294 49.3335 32.8694 49.3308 30.992C49.3375 30.58 49.3268 30.1734 49.2975 29.7707C49.2095 28.5734 48.9882 27.3894 48.6388 26.2454C48.5002 26.6334 48.3228 27.008 48.1122 27.36C47.8402 25.4894 47.2082 23.6947 46.2535 22.084C45.2975 20.472 44.0388 19.076 42.5522 17.9787C41.5215 17.2147 40.3935 16.6054 39.1988 16.1667C39.0375 16.1067 38.8735 16.052 38.7082 16Z" fill="#9FEF00"/>
</svg>
