<svg width="64" height="64" viewBox="0 0 64 64" fill="none" xmlns="http://www.w3.org/2000/svg">
<g clip-path="url(#clip0_1_43)">
<path fill-rule="evenodd" clip-rule="evenodd" d="M29.6213 10.1267C20.5187 11.1547 12.9693 17.7267 10.6933 26.58C10.196 28.4987 10.256 29.012 11.0853 30.704C12.2907 33.1507 14.204 35.16 16.36 36.248C17.9867 37.0787 19.132 37.336 21.408 37.412C23.5627 37.4867 25.1 37.3053 27.0147 36.7627L27.7973 36.536V33.5587C27.7973 30.2813 28.0387 28.0907 28.6573 25.7027C30.2093 19.72 33.992 15.52 39.0253 14.2067C40.4867 13.8133 42.536 13.6627 43.6813 13.8587C44.7813 14.04 44.676 13.904 42.808 12.8467C38.8893 10.6107 34.0973 9.628 29.6213 10.1267ZM41.1053 14.7947C38.3173 15.188 35.6187 16.624 33.9467 18.6027C32.4853 20.3547 31.6853 21.836 30.8267 24.4347L30.2387 26.172L32.1533 27.244C35.5293 29.132 37.6987 30.764 39.8093 32.94C42.612 35.8707 44.1333 38.8467 44.556 42.292C44.9173 45.268 43.9827 48.788 42.22 51.0987C41.9187 51.492 41.7373 51.8093 41.7987 51.8093C42.0387 51.8093 44.4653 50.284 45.5653 49.4373C47.028 48.32 49.1827 46.008 50.1773 44.4973C53.2067 39.9347 54.5027 34.5107 53.824 29.3587C53.1453 24.2227 51.0213 19.932 47.3587 16.2907C46.3187 15.248 45.9267 14.9613 45.4747 14.8853C44.42 14.72 42.0547 14.66 41.1053 14.7947ZM10.0907 32.924C10.2867 38.6653 12.3813 43.4693 16.4947 47.5947C19.0867 50.1773 21.7547 51.8547 24.9947 52.9427C27.692 53.8333 28.7627 54 32.032 54C35.228 54 36.2667 53.8493 38.92 53.0027C40.5027 52.4893 40.728 52.2773 41.828 50.3587C42.928 48.44 43.3653 46.9147 43.4413 44.7093C43.516 43.1067 43.4707 42.6093 43.2 41.5507C42.5973 39.1187 41.06 36.5653 38.9947 34.5267L38.0907 33.6493L36.6747 34.5107C33.4787 36.5053 29.4707 38.152 26.3813 38.756C24.3773 39.1493 21.212 39.1187 19.4787 38.696C15.3493 37.668 12.2453 35.2053 10.4667 31.52L10 30.5827L10.0907 32.924Z" fill="#9FEF00"/>
<path d="M57.3467 23.7067C56.8907 22.308 57.6547 20.8027 59.0533 20.3467C60.452 19.8907 61.9573 20.6547 62.4133 22.0533C63.4667 25.2533 64 28.6 64 31.96C64 43.0933 58.2133 53.4667 48.72 59.28C43.7067 62.36 37.92 64 32.04 64C20.9067 64 10.5333 58.2133 4.72 48.72C1.64 43.7067 0 37.9333 0 32.04C0 20.9067 5.78667 10.5333 15.28 4.72C20.2933 1.64 26.0667 0 31.96 0C39.48 0 46.7733 2.64 52.5467 7.45333C53.672 8.40267 53.8213 10.0907 52.88 11.22C51.9387 12.3493 50.2533 12.496 49.12 11.5467C44.3067 7.53333 38.24 5.33333 31.96 5.33333C27.0667 5.33333 22.2533 6.69333 18.0667 9.26667C10.16 14.12 5.33333 22.76 5.33333 32.04C5.33333 36.9467 6.69333 41.7467 9.26667 45.9333C14.12 53.84 22.76 58.6667 32.04 58.6667C36.9333 58.6667 41.7467 57.3067 45.9333 54.7333C53.84 49.88 58.6667 41.24 58.6667 31.96C58.6667 29.16 58.2267 26.3733 57.3467 23.7067Z" fill="#9FEF00"/>
</g>
<defs>
<clipPath id="clip0_1_43">
<rect width="64" height="64" fill="white"/>
</clipPath>
</defs>
</svg>
