<svg width="64" height="64" viewBox="0 0 64 64" fill="none" xmlns="http://www.w3.org/2000/svg">
<path d="M32 16.8799L14 47.1199L29.748 38.2359L32 36.9666V16.8799ZM32 16.8799L50 47.1199L34.252 38.2359L32 36.9666V16.8799Z" fill="#A4B1CD"/>
<path fill-rule="evenodd" clip-rule="evenodd" d="M44.5773 53.9894C45.8547 53.2601 47.4893 53.7014 48.2253 54.9747C48.9627 56.2481 48.5253 57.8801 47.248 58.6174C42.2813 61.4761 36.616 62.8841 30.9 62.6894C25.716 62.5121 20.6573 61.0187 16.1987 58.3587C14.936 57.6014 14.5253 55.9614 15.2827 54.6987C16.04 53.4361 17.68 53.0254 18.9427 53.7827C22.616 55.9894 26.7907 57.2121 31.0813 57.3587C35.812 57.5201 40.4813 56.3587 44.5773 53.9894ZM54.6227 20.7401C53.9613 19.4214 54.4947 17.8161 55.812 17.1587C57.1307 16.5001 58.732 17.0361 59.3867 18.3534C61.6733 22.9147 62.768 27.9814 62.5933 33.0854C62.4613 36.9761 61.5973 40.8027 60.0347 44.3507C59.444 45.7001 57.8693 46.3161 56.5187 45.7254C55.1693 45.1347 54.5547 43.5587 55.1453 42.2094C56.4453 39.2787 57.1533 36.1147 57.264 32.9027C57.4067 28.6921 56.496 24.5121 54.6227 20.7401ZM20.9693 9.21338C19.6453 9.84538 18.0493 9.28272 17.4107 7.95738C16.7707 6.63205 17.3267 5.03738 18.652 4.39738C23.1147 2.25472 28.032 1.22272 32.9893 1.39072C37.76 1.55338 42.44 2.82138 46.6307 5.11205C47.9253 5.81872 48.4013 7.44272 47.6947 8.73605C46.988 10.0307 45.364 10.5067 44.0693 9.80005C40.612 7.90805 36.752 6.85605 32.808 6.72138C28.7173 6.58138 24.6587 7.43072 20.9693 9.21338ZM7.91067 40.0787C8.37867 41.4721 7.624 42.9827 6.228 43.4507C4.83067 43.9187 3.31733 43.1614 2.84933 41.7614C1.70133 38.2934 1.172 34.6467 1.296 30.9947C1.46 26.1707 2.756 21.4387 5.10133 17.2094C5.808 15.9241 7.428 15.4587 8.71867 16.1721C10.008 16.8867 10.476 18.5107 9.76267 19.7974C7.82933 23.2934 6.76133 27.1921 6.62667 31.1774C6.52267 34.2014 6.95467 37.2054 7.91067 40.0787ZM54.8987 12.6641C54.848 14.1347 53.6133 15.2894 52.1427 15.2387C50.672 15.1881 49.5173 13.9534 49.568 12.4827C49.6187 11.0121 50.8533 9.85872 52.324 9.90805C53.7947 9.95872 54.948 11.1934 54.8987 12.6641ZM13.2413 49.6267C13.1907 51.0974 11.956 52.2507 10.4853 52.2001C9.01467 52.1507 7.86133 50.9161 7.91067 49.4441C7.96133 47.9734 9.196 46.8201 10.6667 46.8707C12.1373 46.9201 13.292 48.1547 13.2413 49.6267ZM55.9293 51.0814C55.98 49.6107 54.8267 48.3761 53.356 48.3254C51.8853 48.2761 50.6493 49.4294 50.6 50.9001C50.5493 52.3707 51.7027 53.6054 53.1733 53.6561C54.6453 53.7067 55.88 52.5534 55.9293 51.0814ZM15.1613 11.3094C15.212 9.83872 14.0587 8.60405 12.5867 8.55338C11.116 8.50272 9.88134 9.65738 9.83067 11.1281C9.78134 12.5987 10.9347 13.8334 12.4053 13.8841C13.876 13.9334 15.1107 12.7801 15.1613 11.3094Z" fill="#9FEF00"/>
</svg>
