<svg width="64" height="64" viewBox="0 0 64 64" fill="none" xmlns="http://www.w3.org/2000/svg">
<path fill-rule="evenodd" clip-rule="evenodd" d="M39.7961 28.6011L37.7867 25.5438V13.8038V12.9505C36.7374 12.7051 35.9561 11.7638 35.9561 10.6398C35.9561 9.33046 37.0187 8.26645 38.3294 8.26645H43.3241C43.3401 8.26645 43.3401 8.26645 43.3561 8.26645C44.0201 8.28245 44.6854 8.04512 45.1907 7.63445C45.4921 7.39712 45.6654 7.04779 45.6974 6.68512C45.6654 6.32112 45.4921 5.97312 45.1907 5.73579C44.6854 5.32379 44.0201 5.08645 43.3561 5.10245C43.3401 5.10245 43.3401 5.10245 43.3241 5.10245H20.6761C20.6601 5.10245 20.6601 5.10245 20.6441 5.10245C19.9801 5.08645 19.3147 5.32379 18.8094 5.73579C18.5081 5.97312 18.3347 6.32112 18.3027 6.68512C18.3347 7.04779 18.5081 7.39712 18.8094 7.63445C19.3147 8.04512 19.9801 8.28245 20.6441 8.26645C20.6601 8.26645 20.6601 8.26645 20.6761 8.26645H25.6707C26.9814 8.26645 28.0441 9.33046 28.0441 10.6398C28.0441 11.7638 27.2627 12.7051 26.2134 12.9505V13.8038V25.5438L19.7254 35.4158C19.7987 35.4171 19.8707 35.4171 19.9441 35.4171C21.6681 35.4491 23.4094 35.1958 25.0707 34.6731C26.5254 34.2145 27.8547 33.4545 29.0094 32.4585C30.9881 31.2078 33.1241 30.2118 35.3547 29.4998C36.7947 29.0385 38.2854 28.7371 39.7961 28.6011ZM20.9254 50.1945C20.9254 49.3558 21.2574 48.5491 21.8587 47.9638C22.4441 47.3625 23.2507 47.0305 24.0894 47.0305C24.9281 47.0305 25.7347 47.3625 26.3201 47.9638C26.9214 48.5491 27.2534 49.3558 27.2534 50.1945C27.2534 51.0331 26.9214 51.8398 26.3201 52.4251C25.7347 53.0265 24.9281 53.3585 24.0894 53.3585C23.2507 53.3585 22.4441 53.0265 21.8587 52.4251C21.2574 51.8398 20.9254 51.0331 20.9254 50.1945ZM37.5374 43.8651C37.5374 43.4385 37.7121 43.0425 37.9961 42.7425C38.2974 42.4571 38.6921 42.2838 39.1201 42.2838C39.5467 42.2838 39.9427 42.4571 40.2427 42.7425C40.5281 43.0425 40.7027 43.4385 40.7027 43.8651C40.7027 44.2931 40.5281 44.6891 40.2427 44.9891C39.9427 45.2745 39.5467 45.4478 39.1201 45.4478C38.6921 45.4478 38.2974 45.2745 37.9961 44.9891C37.7121 44.6891 37.5374 44.2931 37.5374 43.8651ZM38.3294 54.9411C38.3294 54.0678 39.0374 53.3585 39.9107 53.3585C40.7841 53.3585 41.4934 54.0678 41.4934 54.9411C41.4934 55.8145 40.7841 56.5238 39.9107 56.5238C39.0374 56.5238 38.3294 55.8145 38.3294 54.9411ZM43.0747 51.7771C43.0747 50.9038 43.7841 50.1945 44.6574 50.1945C45.5307 50.1945 46.2401 50.9038 46.2401 51.7771C46.2401 52.6505 45.5307 53.3585 44.6574 53.3585C43.7841 53.3585 43.0747 52.6505 43.0747 51.7771ZM17.7601 50.1945C17.7601 46.7011 20.5961 43.8651 24.0894 43.8651C27.5827 43.8651 30.4174 46.7011 30.4174 50.1945C30.4174 53.6878 27.5827 56.5238 24.0894 56.5238C20.5961 56.5238 17.7601 53.6878 17.7601 50.1945ZM34.3734 43.8651C34.3734 41.2465 36.5001 39.1198 39.1201 39.1198C41.7401 39.1198 43.8667 41.2465 43.8667 43.8651C43.8667 46.4851 41.7401 48.6118 39.1201 48.6118C36.5001 48.6118 34.3734 46.4851 34.3734 43.8651ZM42.9094 33.3398L55.8587 53.0425C55.8587 53.0425 55.8587 53.0585 55.8747 53.0585C56.2081 53.6118 56.4921 54.2131 56.6974 54.8305C56.8401 55.2731 56.9201 55.7318 56.9201 56.1905C56.9201 56.5385 56.8561 56.9025 56.6974 57.2198C56.5561 57.5198 56.3494 57.7731 56.0961 57.9625C55.7014 58.2638 55.2587 58.4851 54.7841 58.6118C54.0721 58.8171 53.3441 58.9118 52.6001 58.8971C52.5841 58.8971 52.5841 58.8971 52.5681 58.8971H11.4321C11.4161 58.8971 11.4161 58.8971 11.4001 58.8971C10.6561 58.9118 9.92808 58.8171 9.21608 58.6118C8.74141 58.4851 8.29874 58.2638 7.90408 57.9625C7.65074 57.7731 7.44408 57.5198 7.30274 57.2198C7.14408 56.9025 7.08008 56.5385 7.08008 56.1905C7.08008 55.7318 7.16008 55.2731 7.30274 54.8305C7.50808 54.2131 7.79208 53.6118 8.12541 53.0585C8.14141 53.0585 8.14141 53.0425 8.14141 53.0425L16.7161 39.9945C17.7761 40.1051 18.8361 40.1638 19.8961 40.1638C22.1267 40.1945 24.3587 39.8625 26.4947 39.1985C28.4401 38.5811 30.2441 37.5998 31.8107 36.3025C33.3761 35.3385 35.0374 34.5785 36.7947 34.0251C38.3134 33.5345 39.9107 33.2811 41.5094 33.2651C41.9761 33.2651 42.4441 33.2905 42.9094 33.3398ZM42.5334 13.0131V13.8038V24.2145L59.9094 50.5745C60.4481 51.4438 60.8747 52.3625 61.2067 53.3425C61.5081 54.2451 61.6507 55.1945 61.6654 56.1438C61.6814 57.2198 61.4441 58.2798 60.9854 59.2598C60.5267 60.2251 59.8307 61.0798 58.9761 61.7438C58.1067 62.4091 57.1094 62.8998 56.0494 63.1838C54.9107 63.5011 53.7387 63.6585 52.5521 63.6425H11.4481C10.2614 63.6585 9.08941 63.5011 7.95074 63.1838C6.89074 62.8998 5.89341 62.4091 5.02408 61.7438C4.16941 61.0798 3.47341 60.2251 3.01474 59.2598C2.55608 58.2798 2.31874 57.2198 2.33474 56.1438C2.34941 55.1945 2.49208 54.2451 2.79341 53.3425C3.12541 52.3625 3.55208 51.4438 4.09074 50.5745L21.4667 24.2145V13.8038V13.0131H20.6921C18.9201 13.0291 17.2107 12.4438 15.8347 11.3358C14.4267 10.1971 13.5881 8.48779 13.5561 6.68512C13.5881 4.88112 14.4267 3.17179 15.8347 2.03312C17.2107 0.925122 18.9201 0.339788 20.6921 0.355788H43.3081C45.0801 0.339788 46.7894 0.925122 48.1654 2.03312C49.5734 3.17179 50.4121 4.88112 50.4441 6.68512C50.4121 8.48779 49.5734 10.1971 48.1654 11.3358C46.7894 12.4438 45.0801 13.0291 43.3081 13.0131H42.5334ZM32.7907 51.7771C32.7907 50.9038 33.5001 50.1945 34.3734 50.1945C35.2467 50.1945 35.9561 50.9038 35.9561 51.7771C35.9561 52.6505 35.2467 53.3585 34.3734 53.3585C33.5001 53.3585 32.7907 52.6505 32.7907 51.7771Z" fill="#9FEF00"/>
</svg>
