<svg width="64" height="65" viewBox="0 0 64 65" fill="none" xmlns="http://www.w3.org/2000/svg">
<path fill-rule="evenodd" clip-rule="evenodd" d="M31.9947 2.33069C29.3227 8.87869 27.7147 13.1587 24.74 19.512C26.564 21.444 28.7987 23.6974 32.4333 26.2387C28.5253 24.6307 25.8587 23.0147 23.8667 21.34C20.0613 29.2814 14.1013 40.596 2 62.336C11.2827 56.9774 16.3947 53.6387 23.024 52.28C21.0773 50.0907 20 47.264 19.9947 44.3347C19.9947 41.152 21.2587 38.0987 23.5093 35.848C25.7587 33.5974 28.812 32.3334 31.9947 32.3334C38.6213 32.3334 43.9947 37.7067 43.9947 44.3347C43.988 47.2694 42.9053 50.1014 40.9533 52.292C47.5867 53.6667 52.772 57.0094 62 62.336C60.1493 58.9307 58.4973 55.86 56.92 52.9374C54.436 51.012 51.8453 48.5054 46.56 45.7934C50.1933 46.7374 52.7947 47.8227 54.8227 49.04C38.7907 19.1934 37.4933 15.232 31.9947 2.33069ZM31.9947 38.3334L28.9947 44.3347H22.9947L26.996 48.3374L22.9947 56.336L31.9947 53.336L40.9947 56.336L36.992 48.3374L40.9947 44.3347H34.9947L31.9947 38.3334Z" fill="#9FEF00"/>
</svg>
