<svg width="48" height="48" viewBox="0 0 48 48" fill="none" xmlns="http://www.w3.org/2000/svg">
<g clip-path="url(#clip0_62_6744)">
<path d="M30 5C28.9 5 28 4.1 28 3C28 1.9 28.9 1 30 1H40C43.9 1 47 4.1 47 8V40C47 43.9 43.9 47 40 47H8C4.1 47 1 43.9 1 40V8C1 4.1 4.1 1 8 1H18C19.1 1 20 1.9 20 3C20 4.1 19.1 5 18 5H10C7.2 5 5 7.2 5 10V38C5 40.8 7.2 43 10 43H38C40.8 43 43 40.8 43 38V10C43 7.2 40.8 5 38 5H30Z" fill="#9FEF00"/>
<path d="M24 6C24.8 6 25.5 6.9 25.5 8V20H22.5V8C22.5 6.9 23.2 6 24 6Z" fill="#AEB8D4"/>
<path d="M24 6C24.8 6 25.5 6.9 25.5 8V20H22.5V8C22.5 6.9 23.2 6 24 6Z" fill="#141D2B"/>
<path fill-rule="evenodd" clip-rule="evenodd" d="M22.5 22C22.5 21.2 23.2 20.5 24 20.5C24.8 20.5 25.5 21.2 25.5 22C25.5 22.8 24.8 23.5 24 23.5C23.2 23.5 22.5 22.8 22.5 22ZM24 18C26.2 18 28 19.8 28 22V28C28 30.2 26.2 32 24 32C21.8 32 20 30.2 20 28V22C20 19.8 21.8 18 24 18ZM22.5 28C22.5 26.9 23.2 26 24 26C24.8 26 25.5 26.9 25.5 28C25.5 29.1 24.8 30 24 30C23.2 30 22.5 29.1 22.5 28Z" fill="#A4B1CD"/>
</g>
<defs>
<clipPath id="clip0_62_6744">
<rect width="48" height="48" fill="white"/>
</clipPath>
</defs>
</svg>
