<svg width="512" height="512" viewBox="0 0 512 512" fill="none" xmlns="http://www.w3.org/2000/svg">
<path d="M413.082 504.832H98.9184C48.2304 504.832 7.16797 463.77 7.16797 413.082V98.9184C7.16797 48.2304 48.2304 7.16797 98.9184 7.16797H412.979C463.77 7.16797 504.832 48.2304 504.832 98.9184V412.979C504.832 463.77 463.77 504.832 413.082 504.832Z" fill="#A4B1CD"/>
<path d="M98.918 86.6304C124.825 115.098 150.016 131.584 167.116 141.005C207.155 163.021 248.115 171.213 271.052 175.616C306.278 182.374 314.982 179.61 339.148 189.235C357.683 196.608 382.054 206.234 398.438 229.683C420.352 260.813 427.212 314.778 396.288 348.16C374.579 371.61 344.064 374.272 334.131 374.784" stroke="#141D2B" stroke-width="17" stroke-miterlimit="10" stroke-linecap="round" stroke-linejoin="round"/>
<path d="M203.878 378.573C202.035 378.573 200.294 378.265 198.656 377.549L154.828 360.141C151.244 358.707 148.48 356.045 146.944 352.461C145.408 348.979 145.408 344.985 146.739 341.504L148.07 338.227C150.22 332.8 155.545 329.216 161.484 329.216C163.328 329.216 165.068 329.523 166.707 330.24L210.534 347.648C214.118 349.081 216.883 351.744 218.419 355.328C219.955 358.912 219.955 362.803 218.624 366.285L217.292 369.561C215.04 374.886 209.715 378.573 203.878 378.573Z" fill="#9FEF00"/>
<path d="M161.382 333.824C162.611 333.824 163.737 334.029 164.966 334.541L208.793 351.949C213.811 353.894 216.268 359.629 214.22 364.646L212.889 367.923C211.353 371.712 207.667 374.067 203.776 374.067C202.547 374.067 201.42 373.862 200.192 373.35L156.364 355.942C151.347 353.997 148.889 348.262 150.937 343.245L152.268 339.968C153.804 336.179 157.491 333.824 161.382 333.824ZM161.382 324.608C153.497 324.608 146.636 329.318 143.769 336.589L142.438 339.866C140.595 344.576 140.697 349.696 142.643 354.406C144.691 359.014 148.377 362.701 153.088 364.544L196.915 381.952C199.168 382.874 201.523 383.283 203.878 383.283C211.763 383.283 218.624 378.573 221.491 371.302L222.822 368.026C224.665 363.315 224.563 358.195 222.617 353.485C220.569 348.877 216.883 345.19 212.172 343.347L168.345 325.939C166.092 325.017 163.737 324.608 161.382 324.608Z" fill="#141D2B"/>
<path d="M239.206 299.315C237.363 299.315 235.622 299.008 233.984 298.291L190.157 280.883C182.784 277.913 179.2 269.619 182.067 262.246L183.398 258.969C185.549 253.542 190.874 249.958 196.813 249.958C198.656 249.958 200.397 250.265 202.035 250.982L245.862 268.39C253.235 271.36 256.819 279.654 253.952 287.027L252.621 290.304C250.47 295.629 245.043 299.315 239.206 299.315Z" fill="#9FEF00"/>
<path d="M196.71 254.566C197.939 254.566 199.065 254.771 200.294 255.283L244.121 272.691C249.139 274.637 251.596 280.371 249.548 285.389L248.217 288.666C246.681 292.454 242.995 294.81 239.104 294.81C237.875 294.81 236.748 294.605 235.52 294.093L191.692 276.685C186.675 274.739 184.217 269.005 186.265 263.987L187.596 260.71C189.132 256.922 192.819 254.566 196.71 254.566ZM196.71 245.35C188.825 245.35 181.964 250.061 179.097 257.331L177.766 260.608C175.923 265.318 176.025 270.438 177.971 275.149C180.019 279.757 183.705 283.443 188.416 285.286L232.243 302.694C234.496 303.616 236.851 304.026 239.206 304.026C247.091 304.026 253.952 299.315 256.819 292.045L258.15 288.768C259.993 284.058 259.891 278.938 257.945 274.227C255.897 269.619 252.211 265.933 247.5 264.09L203.673 246.682C201.523 245.76 199.168 245.35 196.71 245.35Z" fill="#141D2B"/>
<path d="M257.536 427.213C224.358 427.213 200.294 410.112 193.74 404.787L190.976 402.637L256.716 246.989L260.096 247.296C276.787 249.037 293.068 254.464 306.995 263.066C316.006 268.595 336.998 281.498 347.033 307.098C361.164 343.245 342.323 377.754 338.432 384.307L338.329 384.41L338.227 384.512C331.366 394.24 311.603 417.69 277.299 424.96C270.848 426.598 264.192 427.213 257.536 427.213Z" fill="#9FEF00"/>
<path d="M259.686 251.904C269.619 252.928 286.822 256 304.64 267.059C313.344 272.384 333.312 284.672 342.733 308.838C356.454 343.962 337.305 377.242 334.438 382.054C330.137 388.096 311.398 413.286 276.275 420.659C269.721 421.99 263.475 422.605 257.433 422.605C224.051 422.605 200.294 404.173 196.505 401.203C217.702 351.437 238.694 301.67 259.686 251.904ZM253.849 242.073L251.187 248.32L188.109 397.619L185.344 404.07L190.771 408.473C197.632 414.003 222.822 431.923 257.433 431.923C264.397 431.923 271.36 431.206 278.118 429.773C314.061 422.195 334.643 397.619 341.913 387.481L342.118 387.174L342.323 386.867C344.576 383.078 350.208 372.838 353.689 359.219C358.605 340.275 357.785 322.15 351.232 305.561C340.685 278.528 318.771 265.011 309.35 259.277C294.809 250.265 277.913 244.633 260.505 242.893L253.849 242.073Z" fill="#141D2B"/>
</svg>
