<svg width="64" height="65" viewBox="0 0 64 65" fill="none" xmlns="http://www.w3.org/2000/svg">
<path fill-rule="evenodd" clip-rule="evenodd" d="M49.3092 60.1053L50.0398 62.7173H63.3332L44.3438 1.94934H29.1518L0.666504 55.1213V62.7173H10.1612L23.3478 39.1693C25.2812 39.4147 27.1852 39.848 29.0372 40.48C31.4865 41.316 33.8225 42.4933 35.9492 43.9547C38.2478 45.5693 40.3558 47.4493 42.1972 49.5573C44.3238 52.0067 46.2038 54.6467 47.8185 57.476L49.3092 60.1053ZM42.9198 37.2867L36.7478 15.2427L28.2612 30.3973C29.5572 30.692 30.8372 31.052 32.0945 31.4787C35.3798 32.6187 38.4945 34.176 41.3625 36.1507C41.8892 36.5173 42.4092 36.8973 42.9198 37.2867Z" fill="#9FEF00"/>
</svg>
