<svg width="64" height="64" viewBox="0 0 64 64" fill="none" xmlns="http://www.w3.org/2000/svg">
<path d="M19.3666 35.6855C18.3457 35.6855 17.5239 36.5073 17.5239 37.5281C17.5239 38.549 18.3457 39.3708 19.3666 39.3708H23.0518C24.0726 39.3708 24.8944 38.549 24.8944 37.5281C24.8944 36.5073 24.0726 35.6855 23.0518 35.6855H19.3666Z" fill="#A4B1CD"/>
<path d="M41.4794 17.2592C40.4586 17.2592 39.6367 18.0811 39.6367 19.1019V30.1576C39.6367 31.1785 40.4586 32.0003 41.4794 32.0003C42.5002 32.0003 43.322 31.1785 43.322 30.1576V19.1019C43.322 18.0811 42.5002 17.2592 41.4794 17.2592Z" fill="#A4B1CD"/>
<path d="M41.4794 35.6855C40.4586 35.6855 39.6367 36.5073 39.6367 37.5281C39.6367 38.549 40.4586 39.3708 41.4794 39.3708H45.1646C46.1854 39.3708 47.0072 38.549 47.0072 37.5281C47.0072 36.5073 46.1854 35.6855 45.1646 35.6855H41.4794Z" fill="#A4B1CD"/>
<path d="M13.5736 2.51797C9.49038 2.51797 6.20312 5.80523 6.20312 9.88848V54.1115C6.20312 58.1948 9.49038 61.4821 13.5736 61.4821H31.9999H50.4262C54.5095 61.4821 57.7967 58.1948 57.7967 54.1115V9.88848C57.7967 5.80523 54.5095 2.51797 50.4262 2.51797H31.9999H13.5736ZM16.2061 6.20323H31.9999H47.7937C51.2937 6.20323 54.1114 8.46322 54.1114 11.2705V41.6738C54.1114 44.481 51.2937 46.741 47.7937 46.741H31.9999H16.2061C12.7062 46.741 9.88838 44.481 9.88838 41.6738V11.2705C9.88838 8.46322 12.7062 6.20323 16.2061 6.20323Z" fill="#9FEF00"/>
<path d="M23.0531 17.2592C22.0323 17.2592 21.2104 18.0811 21.2104 19.1019V30.1576C21.2104 31.1785 22.0323 32.0003 23.0531 32.0003C24.0739 32.0003 24.8957 31.1785 24.8957 30.1576V19.1019C24.8957 18.0811 24.0739 17.2592 23.0531 17.2592Z" fill="#A4B1CD"/>
</svg>
