<svg width="512" height="512" viewBox="0 0 512 512" fill="none" xmlns="http://www.w3.org/2000/svg">
<path d="M256 507.6C394.955 507.6 507.6 394.955 507.6 256C507.6 117.045 394.955 4.3999 256 4.3999C117.045 4.3999 4.3999 117.045 4.3999 256C4.3999 394.955 117.045 507.6 256 507.6Z" fill="#141D2B"/>
<path d="M289.4 351.3C275.3 346.5 261.1 341.7 248.2 334.2C235.3 326.8 223.6 316.5 216.8 303.1C210 289.7 209.3 273.1 216.4 259.9C211.9 255.4 210.5 248.4 211.3 242C212.1 235.6 214.8 229.7 217.4 223.8C220 217.9 222.6 211.9 223 205.5C227.3 209.4 233 211.2 238.7 211.8C244.4 212.4 250.1 211.7 255.8 211C257.3 210.8 258.9 210.6 259.9 209.5C260.9 208.4 260.6 206.1 259.1 205.9C262.3 205.1 265.7 206.6 268 209C270.3 211.4 271.5 214.6 272.3 217.8C275.9 231.2 274 246.1 267.1 258.1C266.3 259.6 264.9 261.2 263.2 260.8C261.5 260.4 261 258.1 260.9 256.4C260.5 251.2 259.8 245.8 257.5 241.2C255.1 236.5 250.8 232.6 245.6 232C240.4 231.4 234.8 234.9 234.1 240.1C233.1 247.3 241.2 253.1 241.3 260.4C241.3 264.7 238.6 268.3 236.9 272.2C233 281.2 234.9 291.9 239.6 300.6C244.3 309.3 251.4 316.3 258.4 323.1C265.7 330.2 274 336.4 281.8 343C284.6 345.3 287.5 347.9 288.5 351.4C287.6 351.1 286.7 350.7 285.8 350.4" fill="#9FEF00"/>
<path d="M241 237.6C242.1 237.4 243.2 238.2 244 239.1C246.7 241.8 249.4 244.4 252.1 247.1C252.5 247.5 252.9 247.9 253 248.5C253.1 249.1 252.7 249.7 252.2 250.1C251.7 250.5 251.1 250.6 250.5 250.8C249 251.2 247.5 251.6 246 251.6C244.5 251.6 242.9 251.2 241.8 250.2C240.7 249.3 240.2 247.9 239.9 246.5C239.6 244.4 238.1 238.3 241 237.6Z" fill="#9FEF00"/>
<path d="M297.1 298.5C295.8 289.8 295.2 285.4 294.9 283.8C294.9 283.8 292.3 270.5 285.4 261.4C284.8 260.7 283.9 259.6 282.6 259.5C281.4 259.4 280.4 260.2 279.3 261.4C276 264.6 274.4 267.2 274.4 267.2C271.9 271.1 270.7 273.1 270 275.3C269.5 276.8 268 281.9 269.6 287.2C270.7 291 272.8 292.6 275.8 296.1C276.9 297.4 287.2 314.2 291.5 324.5C292 325.7 293.2 330.9 294.3 331.5C295.3 332 295.3 330.6 295.6 329.7C296.8 325.4 298.3 321.1 298.8 316.7C299.1 313.5 299 311.2 297.1 298.5Z" fill="#9FEF00"/>
<path d="M245.1 278.6C242.9 285.4 242.5 293.1 245.3 299.6C248.1 306.1 253.7 310.8 259 315.5C274.8 329.7 288.9 345.7 300.9 363.2C300.1 359.3 298.7 353.8 296.5 347.4C293.9 339.9 287.2 320.5 272 301.5C265.8 293.7 264.6 292.7 261.9 288C257.8 280.9 256.6 273 255.1 265.1C254 259 251.7 264.6 250.1 267.5C248.1 271.1 246.3 274.8 245.1 278.6Z" fill="#9FEF00"/>
<path d="M69.7999 409.5C69.3999 410.1 70.0999 410.8 70.7999 410.4C92.2999 397.4 118 383.9 148 371.7C172.2 361.9 195 354.6 215.5 349.2C215.9 349.1 216.1 348.7 216 348.3C212.7 338.1 209.9 326.9 206.9 315C202.4 297.1 198.2 277.4 199.5 270.2C199.5 270.2 196.4 267.1 196.2 274.9C196 282.4 197.1 293 197.1 293.8V293.9C197.3 294.6 199.5 303.2 200.5 306.9C201.6 310.8 202 311.4 202.5 312.2C203 313 195.2 299.9 194.8 296.8C194.4 293.6 192.8 280.2 192.4 279.3C192 278.5 191 261.1 191.2 258.5C191.4 255.9 195 233.6 201.5 226.5C201.5 226.5 203.2 225.4 200.8 230.6C198.4 235.8 194.7 247.2 194.7 247.2C194.7 247.2 195.3 246 196 244.7C196.4 244 197.5 244.4 197.3 245.2C195.8 250.4 193.9 258.8 195.1 264.5C195.2 265.1 195.9 270.7 198.5 265.7C198.5 265.6 198.6 265.5 198.6 265.4C198.7 263.6 200.1 245.1 202.4 241.1C202.4 241.1 202.4 241 202.5 241C202.7 240.2 205.5 231.3 209.1 225.8C209.1 225.7 209.2 225.7 209.2 225.6C209.8 223.5 220.6 186.2 235.7 179C236.2 178.8 236.2 178.1 235.8 177.8C230.6 174.6 209.6 161.7 205.7 157.6C205.4 157.2 204.8 157.3 204.6 157.8C186 195.9 166.1 234.8 145.1 274.4C119.9 321.6 94.7999 366.5 69.7999 409.5Z" fill="#9FEF00"/>
<path d="M231.1 335.8C231.4 335.2 231.4 334.4 230.9 334C230.5 333.7 230 333.7 229.6 333.6C227.9 333.3 226.4 332.2 225.6 330.7C225.4 330.3 225.2 329.8 225 329.4C224.8 329 224.3 328.7 223.8 328.7C222.9 328.7 222.5 329.7 222.5 330.6C222.5 331.7 223.1 332.7 223.6 333.7C224.3 334.8 225 336 226.1 336.7C227.8 337.9 230 337.8 231.1 335.8Z" fill="#9FEF00"/>
<path d="M203.9 282.8C204 283.1 204.1 283.4 204.3 283.5C204.7 283.7 205.2 283.2 205.4 282.8C205.9 282 206.4 281.2 206.9 280.4C207.3 279.8 207.7 279.1 207.4 278.4C207.2 278 206.8 277.7 206.3 277.6C205.8 277.5 205.4 277.6 204.9 277.6C205.1 276.6 205.6 273.8 204.6 273.1C203.1 275.9 203.1 279.8 203.9 282.8Z" fill="#9FEF00"/>
<path d="M412.3 355C412.3 355 438.4 402.2 443 412.4C443.2 412.8 442.8 413.1 442.4 412.9C431.3 406.9 332.2 353.4 310.6 352.1C310.3 352.1 310.1 351.8 310.3 351.5C311.7 348.6 317.8 334.9 318.6 318.3C318.6 318.3 319.2 313.4 317 318.2V318.3C316.8 319.7 312.9 347.6 310 350.9C307.3 354 305.6 350.1 305.3 349.4C305.3 349.3 305.3 349.3 305.3 349.2C305.6 347.1 310.6 312.1 311.7 311C311.8 310.9 311.8 310.9 311.8 310.8C312 309.5 313.4 302.3 314.4 304.1C315.4 306 313.4 313.5 314.5 313.9C315.6 314.3 312.8 315.5 314 316.9C315.1 318.3 313.5 319.9 314.5 319C315.5 318.1 317.1 318.6 316.6 316.4C316.1 314.2 315.7 313.9 316.5 312.2C317.3 310.5 316.8 309.4 318.2 307.5C319 306.4 319.8 306.3 320.2 306.5C320.5 306.6 320.7 306.4 320.7 306.1C320.6 300.9 319.8 267.4 309.4 254.1C309.2 253.8 308.6 254 308.7 254.4C308.7 254.9 308.7 255.5 308.4 255.8C307.7 256.6 307.5 259.2 306.6 255.2C305.7 251.2 304.6 253 304.4 250.8C304.2 248.6 306.3 249.5 304.4 246.9C302.5 244.3 303 246.3 302 243.5C301.1 240.7 302.9 244.7 300.7 239.6C298.5 234.5 299.8 238.3 298.7 233.8C297.7 229.3 297.2 229 297.6 226.4C297.9 224.3 294.7 225.2 293.5 225.6C293.3 225.7 293 225.5 293 225.3C292.7 224.3 292.2 221.5 292.6 218.5C293.2 214.7 292.2 217.6 289.8 215.9C287.4 214.2 287.3 213 285.6 210.9C283.8 208.9 284.9 210.4 283.4 207.2C281.9 204 281.5 205.8 281.2 203.4C280.8 201 283.2 202.8 281.2 200.3C279.2 197.8 279.9 200.3 278 198.6C276.1 196.9 275.8 199.1 275.8 196.5C275.8 193.9 277.3 194.7 275.8 191.7C274.3 188.6 275 191.1 274.3 188.6C273.6 186.1 273.4 184.8 272.8 184.6C272.2 184.4 271.3 182.8 270.8 181.1C270.3 179.3 271.2 179.7 270.1 177.8C269 175.9 266.7 176.6 268.6 175.2L270.2 174C270.4 173.9 270.6 173.9 270.7 174C271.2 174.5 272.2 175.3 270.3 173C267.9 170.1 268.1 173.9 267.9 170.1L267.8 153.6C267.8 153.4 267.7 153.3 267.6 153.2L266.5 152.7C266.4 152.6 266.3 152.5 266.3 152.3V124C266.3 123.8 266.5 123.6 266.7 123.6H267.7C267.9 123.6 268.1 123.4 268.1 123.2L268.4 109.4C268.4 109.2 268.5 109.1 268.7 109C269.6 108.7 272.8 106.9 279.8 94.6C280 94.3 280.4 94.3 280.5 94.6C314.7 169.1 353.5 247.2 397.8 327.8C398 328.1 397.6 328.5 397.3 328.4C391.3 325.7 361.6 312.7 350.5 310C350.1 309.9 349.8 310.5 350.2 310.7C360.6 317.4 410.3 348.7 412.3 355Z" fill="#9FEF00"/>
<path d="M232 96.7C229.7 102.1 213.4 139.9 210.3 143.6C210.2 143.8 210.2 144 210.3 144.2L240.3 173.5C240.5 173.7 240.7 173.7 240.9 173.5L263 155.4C263.3 155.1 263.1 154.6 262.7 154.6L246.9 155.1C246.7 155.1 246.5 154.9 246.5 154.7L245.6 124.3C245.6 124.1 245.5 124 245.3 123.9L244.1 123.5C243.9 123.4 243.8 123.3 243.8 123.1L243.5 109.2C243.5 109.1 243.5 109 243.4 108.9L232.8 96.5C232.5 96.3 232.1 96.4 232 96.7Z" fill="#9FEF00"/>
<path d="M247.1 195.8C248.8 194.3 250.9 193.3 253 192.3C253.4 192.1 253.8 191.9 254.2 191.9C254.6 191.9 255.1 192 255.3 192.3C255.7 192.8 255.3 193.6 254.9 194.1C253.4 196.2 251.5 198 249.3 199.3C248.2 200 247 200.5 245.7 200.9C245.3 201 244.3 201.5 244 201.1C243.7 200.8 244.2 199.7 244.4 199.3C245 198 246 196.8 247.1 195.8Z" fill="#9FEF00"/>
<path d="M277.5 212.7C277 211.8 276.9 210.7 277.5 209.9C278.3 208.9 279.9 208.9 280.9 209.6C281.9 210.3 282.5 211.6 282.9 212.8C283.5 214.6 283.8 216.5 283.8 218.4C283.8 219 283.7 219.8 283.1 220.1C282.7 220.3 282.2 220.1 281.9 219.9C281.6 219.6 281.4 219.2 281.2 218.9C280.6 217.7 280 216.5 279.3 215.3C279 214.2 278 213.7 277.5 212.7Z" fill="#9FEF00"/>
<path d="M306 273.1C305.9 272.5 305.8 272 305.5 271.5C305.2 271 304.7 270.6 304.1 270.6C303.4 270.6 302.8 271.3 302.7 272C302.6 272.7 302.8 273.4 302.9 274.1C303.7 276.9 304.6 279.6 305.6 282.3C306.6 284.9 307.5 287.9 309 290.3C309.6 289.9 308.7 287.2 308.6 286.4C308.3 284.9 308 283.4 307.8 282C307.1 279 306.5 276 306 273.1Z" fill="#9FEF00"/>
<path d="M248.1 116.4V149H263.9V116.5H248.1V116.4ZM256.4 123.7C256.3 124.3 256 125 255.4 125.1C254.8 125.2 254.2 124.7 254.1 124C254 123.4 254.2 122.8 254.4 122.2C253.2 124.4 252.9 127 253.5 129.4C251.8 128.7 250.9 126.4 251.7 124.7C250.2 126.6 250.2 129.2 250.5 131.6C250.8 134 251.3 136.4 250.7 138.7C250.6 139 250.4 139.5 250.1 139.5C249.6 139.5 249.4 138.9 249.4 138.4C249.4 134.3 249.3 130.2 249.4 126.2C249.4 123.8 249.2 119.1 251.6 117.9C253 117.2 254.9 117.9 255.8 119.2C256.7 120.4 256.8 122.1 256.4 123.7Z" fill="#9FEF00"/>
<path d="M282 84.8998C282.7 85.1998 282.3 87.4998 281.8 88.9998C281.2 90.4998 280.4 91.3997 279.2 92.6997C276 96.2997 276.7 96.2998 274.5 98.5998C272.5 100.6 269.2 103.3 268.4 102.7C268.1 102.5 268.3 101.8 268.4 101.2C269.5 97.3997 272.5 94.8998 274.5 92.9998C279.5 87.9998 281.1 84.4998 282 84.8998Z" fill="#9FEF00"/>
<path d="M233.8 87.8C233.2 87.1 232.4 86.3 231.5 86.5C230.6 86.7 230.2 87.7 230.4 88.6C230.6 89.5 231.2 90.2 231.7 90.8C234.2 93.8 236.8 96.8 239.3 99.8C240 100.6 241.6 102.3 242.6 101C243.6 99.8 241.7 97.9 241.1 97.1C238.7 93.9 236.3 90.8 233.8 87.8Z" fill="#9FEF00"/>
<path d="M256.3 15.6999L232.2 81.7999C232.2 81.8999 232.2 81.9999 232.2 81.9999L246.1 100.4C246.3 100.6 246.6 100.4 246.5 100.2L241 80.3999V80.2999L250.2 48.9999C250.3 48.6999 250.7 48.7999 250.7 49.0999L245.3 79.1999V79.2999L252.2 102.4C252.2 102.6 252.1 102.7 252 102.7H246.5C246.4 102.7 246.3 102.8 246.3 102.9V115C246.3 115.1 246.4 115.2 246.5 115.2H265.5C265.6 115.2 265.7 115.1 265.7 115V101.4V101.3L280.7 80.1999C280.7 80.0999 280.8 80.0999 280.7 79.9999L256.8 15.5999C256.7 15.4999 256.4 15.4999 256.3 15.6999ZM256 95.4999C256 95.7999 255.6 95.7999 255.5 95.4999C253.7 86.7999 253.8 77.6999 254.4 68.7999C254.7 64.2999 255.1 59.7999 255.4 55.2999C255.7 50.8999 255.4 46.3999 255.8 41.9999C257.1 42.5999 256.7 49.5999 256.7 51.0999C256.8 54.3999 256.8 57.6999 256.9 60.9999C256.9 72.5999 257.1 84.0999 256 95.4999ZM273.7 85.2999C272.6 86.6999 267.3 94.6999 265.7 93.9999C264.4 93.3999 264.5 89.7999 264.3 88.5999C264 86.5999 263.7 84.5999 263.4 82.5999C263.4 82.3999 263.6 82.1999 263.8 82.2999C264.9 82.8999 265.8 83.7999 266.6 84.7999C266.8 84.9999 267.1 84.7999 267 84.5999C265.8 80.3999 264.6 76.1999 263.4 71.9999C263.3 71.6999 263.7 71.5999 263.8 71.7999C265.3 73.5999 266.8 75.3999 268.3 77.1999C268.5 77.3999 268.8 77.1999 268.7 76.9999C266.8 71.9999 264.8 66.9999 262.6 62.0999C262.5 61.7999 262.8 61.5999 263 61.8999C264.7 64.0999 266.3 66.3999 268 68.5999C268.1 68.7999 268.4 68.6999 268.4 68.4999C268.7 67.5999 268.7 66.6999 268.6 65.6999C268.4 64.0999 268 62.8999 267.8 62.3999C266 57.9999 262.3 47.8999 262.4 47.8999C262.5 47.8999 264.6 52.9999 267.9 59.1999C269.7 62.5999 272.3 66.5999 275.6 75.3999C276.2 76.9999 276.8 78.7999 276.5 80.4999C276.1 82.1999 274.9 83.7999 273.7 85.2999Z" fill="#9FEF00"/>
</svg>
