<svg width="65" height="64" viewBox="0 0 65 64" fill="none" xmlns="http://www.w3.org/2000/svg">
<path d="M32.6667 0.399902L5.81201 16.1852V47.8186L32.6667 63.5999L59.5213 47.6772V16.3266L44.6093 7.48657L36.3147 12.7932L50.684 21.3239L50.7227 42.5199L32.6667 53.3066L14.6547 42.6452L14.6053 21.1666L40.8827 5.25324L32.6667 0.399902Z" fill="#9FEF00"/>
<path fill-rule="evenodd" clip-rule="evenodd" d="M32.684 37.2574V53.4814L27.8747 50.1894V43.5334L19.8054 39.108V45.7467L15.0574 42.7374L15.0054 21.3907L32.6747 31.74L50.2854 21.2307V26.5587L43.8894 30.2574V46.6134L39.08 49.3214V33.3227L32.684 37.2574ZM27.84 38.9667L19.876 34.5774V29.568L27.84 33.816V38.9667Z" fill="#A4B1CD"/>
</svg>
