<svg width="64" height="64" viewBox="0 0 64 64" fill="none" xmlns="http://www.w3.org/2000/svg">
<g clip-path="url(#clip0_62_3838)">
<path d="M38.94 19.992C37.4 14.7547 34.864 11.3507 32 11.3507C29.1387 11.3507 26.604 14.748 25.0694 19.9947M38.94 19.992C44.2467 18.7014 48.4534 19.1987 49.8827 21.6747C51.3134 24.152 49.64 28.044 45.868 31.9947M38.94 19.992C39.5774 22.1227 40.044 24.5667 40.2987 27.2094M38.94 19.992C36.7947 20.476 34.4494 21.2854 32.0334 22.4027M25.0694 19.9947C27.24 20.4947 29.604 21.308 32.0334 22.4027M25.0694 19.9947C24.416 22.1254 23.9374 24.5787 23.6707 27.2307M25.0694 19.9947C19.7574 18.7014 15.548 19.1974 14.1174 21.6747C12.6854 24.1547 14.364 28.0547 18.132 32.0054M32.0334 22.4027C30.616 23.016 29.168 23.7574 27.7227 24.592C26.2774 25.4267 24.912 26.3094 23.6707 27.2307M32.0334 22.4027C33.4347 23.0427 34.8574 23.7707 36.2774 24.592C37.712 25.42 39.0667 26.2947 40.2987 27.2094M23.6707 27.2307C21.496 28.764 19.6227 30.3894 18.132 32.0054M23.6707 27.2307C23.5254 28.764 23.4454 30.36 23.4454 32C23.4454 33.656 23.5267 35.2667 23.7014 36.7907M18.132 32.0054C14.36 35.956 12.6867 39.848 14.1174 42.3254C15.5467 44.8014 19.7534 45.2987 25.06 44.008M18.132 32.0054C19.6574 33.624 21.5414 35.2494 23.7014 36.7907M25.06 44.008C26.6 49.2454 29.136 52.6494 32 52.6494C34.8614 52.6494 37.396 49.252 38.9307 44.0054M25.06 44.008C24.4227 41.8774 23.956 39.4334 23.7014 36.7907M25.06 44.008C27.2054 43.524 29.5507 42.7147 31.9667 41.5974M38.9307 44.0054C44.2427 45.2987 48.452 44.8027 49.8827 42.3254C51.3147 39.8454 49.636 35.9454 45.868 31.9947M38.9307 44.0054C36.76 43.5054 34.396 42.692 31.9667 41.5974M38.9307 44.0054C39.584 41.8747 40.0627 39.4214 40.3294 36.7694M45.868 31.9947C44.3427 30.376 42.4587 28.7507 40.2987 27.2094M45.868 31.9947C44.3774 33.6107 42.504 35.236 40.3294 36.7694M31.9667 41.5974C33.384 40.984 34.832 40.2427 36.2774 39.408C37.7227 38.5734 39.088 37.6907 40.3294 36.7694M31.9667 41.5974C30.5654 40.9574 29.1427 40.2294 27.7227 39.408C26.288 38.58 24.9334 37.7054 23.7014 36.7907M40.3294 36.7694C40.4747 35.236 40.5547 33.64 40.5547 32C40.5547 30.344 40.4734 28.7334 40.2987 27.2094" stroke="#A4B1CD" stroke-width="3.33333" stroke-miterlimit="3" stroke-linecap="square"/>
<path d="M32 36C34.2091 36 36 34.2091 36 32C36 29.7909 34.2091 28 32 28C29.7909 28 28 29.7909 28 32C28 34.2091 29.7909 36 32 36Z" fill="#141D2B"/>
<path d="M25.4134 58.76C26.8334 59.1427 27.676 60.6067 27.2934 62.0267C26.9107 63.4467 25.4467 64.2893 24.0267 63.9067C17.2267 62.08 11.2134 58.0533 6.93337 52.4667C2.65337 46.88 0.333374 40.04 0.333374 33C0.333374 24.52 3.70671 16.3733 9.70671 10.3733C15.7067 4.37333 23.8534 1 32.3334 1C40.8134 1 48.96 4.37333 54.96 10.3733C60.96 16.3733 64.3334 24.52 64.3334 33C64.3334 40.0133 62.0267 46.8267 57.7867 52.4C53.5334 57.9733 47.5734 62 40.8134 63.8667C39.3934 64.2573 37.924 63.42 37.5334 62C37.1427 60.58 37.98 59.1107 39.4 58.72C45.0267 57.1733 50 53.8133 53.5467 49.1733C57.08 44.52 59 38.84 59 33C59 25.9333 56.1867 19.1467 51.1867 14.1467C46.1867 9.14667 39.4 6.33333 32.3334 6.33333C25.2667 6.33333 18.48 9.14667 13.48 14.1467C8.48004 19.1467 5.66671 25.9333 5.66671 33C5.66671 38.8667 7.60004 44.5733 11.1734 49.2267C14.7334 53.88 19.7467 57.24 25.4134 58.76Z" fill="#9FEF00"/>
</g>
<defs>
<clipPath id="clip0_62_3838">
<rect width="64" height="64" fill="white"/>
</clipPath>
</defs>
</svg>
