<svg width="512" height="512" viewBox="0 0 512 512" fill="none" xmlns="http://www.w3.org/2000/svg">
<path d="M209.095 293.279C192.074 293.279 178.22 279.417 178.22 262.386V214.167H91.2375V186.146H178.22V102.182C178.22 85.1518 192.074 71.2899 209.095 71.2899H469.152C486.172 71.2899 500.026 85.1518 500.026 102.182V262.287C500.026 279.318 486.172 293.18 469.152 293.18H209.095V293.279Z" fill="#A4B1CD"/>
<path d="M469.152 79.8051C481.521 79.8051 491.615 89.9045 491.615 102.281V262.386C491.615 274.763 481.521 284.863 469.152 284.863H209.095C196.725 284.863 186.632 274.763 186.632 262.386V205.949H99.6489V194.661H186.632V102.38C186.632 90.0035 196.725 79.9041 209.095 79.9041H469.152M469.152 63.1708H209.095C187.522 63.1708 169.908 80.7952 169.908 102.38V177.928H99.5499H82.9253V194.562V205.949V222.583H99.5499H169.908V262.485C169.908 284.07 187.522 301.695 209.095 301.695H469.152C490.724 301.695 508.339 284.07 508.339 262.485V102.38C508.24 80.6962 490.724 63.1708 469.152 63.1708Z" fill="#141D2B"/>
<path d="M105.814 209.139C109.868 184.147 92.9058 160.599 67.9283 156.543C42.9508 152.487 19.4164 169.459 15.3627 194.451C11.309 219.443 28.2711 242.991 53.2486 247.047C78.2261 251.103 101.76 234.131 105.814 209.139Z" fill="#A4B1CD"/>
<path d="M60.5612 164.264C81.2431 164.264 98.0657 181.096 98.0657 201.79C98.0657 222.484 81.2431 239.316 60.5612 239.316C39.8794 239.316 23.0568 222.484 23.0568 201.79C23.0568 181.096 39.8794 164.264 60.5612 164.264ZM60.5612 147.53C30.6764 147.53 6.43213 171.888 6.43213 201.79C6.43213 231.692 30.7754 255.951 60.5612 255.951C90.3471 255.951 114.789 231.692 114.789 201.79C114.789 171.888 90.446 147.53 60.5612 147.53Z" fill="#141D2B"/>
<path opacity="0.34" d="M265.186 321.361C301.396 285.13 301.396 226.388 265.186 190.157C228.976 153.927 170.268 153.927 134.058 190.157C97.8483 226.388 97.8483 285.13 134.058 321.361C170.268 357.592 228.976 357.592 265.186 321.361Z" fill="#141D2B"/>
<path d="M135.867 194.562H77.7795V205.85H135.867V194.562Z" fill="#A4B1CD"/>
<path d="M118.253 336.746L98.4614 337.835L130.127 366.648L131.909 367.44L130.523 343.677L118.253 336.746Z" fill="#9FEF00" stroke="#141D2B" stroke-width="4" stroke-miterlimit="10"/>
<path d="M131.414 350.806C130.227 350.806 129.039 350.41 128.148 349.717L117.164 341.102C116.076 340.211 115.383 339.023 115.185 337.538C114.987 336.152 115.383 334.765 116.274 333.676L117.56 331.993C118.55 330.706 120.133 330.013 121.716 330.013C122.904 330.013 124.091 330.409 124.982 331.102L135.966 339.716C138.242 341.498 138.638 344.865 136.857 347.142L135.57 348.825C134.581 350.113 133.096 350.806 131.414 350.806Z" fill="#9FEF00"/>
<path d="M121.815 331.399C122.607 331.399 123.498 331.696 124.19 332.191L135.174 340.805C136.857 342.092 137.153 344.469 135.768 346.152L134.482 347.835C133.69 348.825 132.601 349.32 131.513 349.32C130.721 349.32 129.831 349.023 129.138 348.528L118.154 339.914C116.472 338.627 116.175 336.251 117.56 334.567L118.847 332.884C119.539 331.894 120.727 331.399 121.815 331.399ZM121.815 328.429C119.737 328.429 117.758 329.419 116.472 331.003L115.185 332.686C114.097 334.072 113.602 335.855 113.8 337.736C113.998 339.518 114.888 341.102 116.373 342.291L127.357 350.905C128.544 351.796 130.029 352.39 131.513 352.39C133.591 352.39 135.57 351.4 136.857 349.816L138.143 348.132C140.419 345.162 139.924 340.904 136.956 338.627L125.971 330.013C124.784 328.924 123.3 328.429 121.815 328.429Z" fill="#141D2B"/>
<path d="M148.237 350.509C146.653 350.509 145.169 350.014 143.883 349.023L116.175 327.24C113.107 324.864 112.612 320.408 114.987 317.339C116.373 315.656 118.352 314.666 120.529 314.666C122.112 314.666 123.597 315.161 124.883 316.151L152.591 337.934C155.658 340.31 156.153 344.766 153.778 347.835C152.492 349.518 150.414 350.509 148.237 350.509Z" fill="#9FEF00"/>
<path d="M120.529 316.844C121.617 316.844 122.607 317.141 123.498 317.834L151.205 339.617C153.283 341.3 153.679 344.37 151.997 346.449C151.007 347.637 149.622 348.33 148.138 348.33C147.049 348.33 146.06 348.033 145.169 347.34L117.461 325.557C115.383 323.874 114.987 320.805 116.67 318.725C117.659 317.438 119.143 316.844 120.529 316.844ZM120.529 312.487C117.659 312.487 115.086 313.775 113.305 315.953C110.138 319.913 110.831 325.755 114.888 328.825L142.596 350.608C144.179 351.895 146.258 352.588 148.237 352.588C151.106 352.588 153.679 351.301 155.46 349.122C156.945 347.241 157.637 344.766 157.341 342.389C157.044 339.914 155.856 337.736 153.877 336.251L126.169 314.468C124.586 313.18 122.607 312.487 120.529 312.487Z" fill="#141D2B"/>
<path d="M198.803 354.865C143.487 354.865 98.4614 309.814 98.4614 254.465C98.4614 199.117 143.487 154.065 198.803 154.065C254.12 154.065 299.145 199.117 299.145 254.465C299.145 309.814 254.12 354.865 198.803 354.865ZM198.803 174.066C153.679 174.066 116.867 210.8 116.867 256.05C116.867 301.299 153.58 338.033 198.803 338.033C244.026 338.033 280.739 301.299 280.739 256.05C280.739 210.8 243.927 174.066 198.803 174.066Z" fill="#9FEF00"/>
<path d="M198.803 156.145C253.031 156.145 297.067 200.206 297.067 254.465C297.067 308.725 253.031 352.786 198.803 352.786C144.575 352.786 100.539 308.725 100.539 254.465C100.539 200.206 144.476 156.145 198.803 156.145ZM198.803 340.013C245.214 340.013 282.817 302.388 282.817 255.951C282.817 209.513 245.214 171.888 198.803 171.888C152.393 171.888 114.789 209.513 114.789 255.951C114.789 302.388 152.393 340.013 198.803 340.013ZM198.803 151.986C142.299 151.986 96.3833 198.027 96.3833 254.465C96.3833 310.903 142.299 356.945 198.803 356.945C255.307 356.945 301.223 311.002 301.223 254.465C301.223 197.928 255.208 151.986 198.803 151.986ZM198.803 335.855C154.768 335.855 118.945 300.012 118.945 255.951C118.945 211.889 154.768 176.046 198.803 176.046C242.839 176.046 278.661 211.889 278.661 255.951C278.661 300.012 242.839 335.855 198.803 335.855Z" fill="#141D2B"/>
<path d="M55.9789 451.568C61.3502 443.783 57.3192 431.68 46.9753 424.535C36.6315 417.39 23.8919 417.908 18.5206 425.693C13.1493 433.478 17.1804 445.581 27.5242 452.726C37.868 459.871 50.6077 459.353 55.9789 451.568Z" fill="#9FEF00" stroke="#141D2B" stroke-width="4" stroke-miterlimit="10"/>
<path d="M18.7028 426.452L50.9625 454.572C52.9416 456.255 55.9103 456.057 57.5926 454.176L133.195 370.212C134.877 368.331 134.779 365.361 132.799 363.677L100.54 335.558C98.5605 333.874 95.5918 334.072 93.9096 335.954L18.3069 419.917C16.5257 421.799 16.7236 424.67 18.7028 426.452Z" fill="#9FEF00" stroke="#141D2B" stroke-width="4" stroke-miterlimit="10"/>
</svg>
