<svg width="64" height="65" viewBox="0 0 64 65" fill="none" xmlns="http://www.w3.org/2000/svg">
<g clip-path="url(#clip0_62_4919)">
<path fill-rule="evenodd" clip-rule="evenodd" d="M52.3211 9.26142C52.2118 9.25608 52.1025 9.25475 51.9945 9.25342C51.2571 9.33075 50.5345 9.47342 49.8265 9.67075C49.3305 9.81342 48.8491 10.0188 48.4025 10.2801C48.0985 10.4508 47.8225 10.6628 47.5665 10.8961C47.3265 11.1161 47.1131 11.3708 46.9438 11.6481C46.7731 11.9174 46.6465 12.2001 46.5545 12.5041C46.4625 12.8094 46.4118 13.1281 46.3985 13.4468C46.3705 14.2281 46.9811 14.8868 47.7611 14.9161C48.5411 14.9454 49.1998 14.3374 49.2318 13.5601C49.2318 13.4748 49.2451 13.3908 49.2665 13.3121C49.2878 13.2561 49.3091 13.1988 49.3451 13.1494C49.3798 13.0854 49.4291 13.0294 49.4865 12.9788C49.5851 12.8801 49.6985 12.8028 49.8265 12.7308C50.0678 12.5894 50.3225 12.4761 50.5985 12.3988C51.1011 12.2561 51.6185 12.1508 52.1358 12.0868C52.3905 12.0908 52.6438 12.1028 52.8971 12.1214L52.9011 12.1428L53.0011 12.1294C53.1918 12.1441 53.3825 12.1628 53.5731 12.1854C53.9425 12.2361 54.3105 12.3068 54.6785 12.4054C55.0118 12.4908 55.3371 12.6041 55.6491 12.7521C55.8825 12.8588 56.1091 12.9868 56.3145 13.1348C56.5278 13.2908 56.7185 13.4681 56.8891 13.6668C57.0518 13.8641 57.1931 14.0774 57.2998 14.3041C57.4345 14.5654 57.5265 14.8494 57.5891 15.1321C57.6745 15.5361 57.7238 15.9468 57.7318 16.3574C57.7385 16.7828 57.7105 17.2148 57.6465 17.6334C57.6038 17.9241 57.5331 18.2134 57.4265 18.4908C57.3491 18.7028 57.2491 18.9081 57.1225 19.1068C57.0158 19.2694 56.8891 19.4254 56.7545 19.5601C56.6051 19.7081 56.4358 19.8361 56.2585 19.9428C56.0385 20.0761 55.7971 20.1828 55.5491 20.2681C55.2731 20.3668 54.9905 20.4374 54.6998 20.4801C54.2891 20.5441 53.8785 20.5801 53.4678 20.5868H48.5225H42.1478H40.7318H35.7878C35.3558 20.5801 34.9305 20.5441 34.5051 20.4734C34.2078 20.4241 33.9171 20.3454 33.6345 20.2468C33.3998 20.1614 33.1811 20.0561 32.9678 19.9281C32.7985 19.8214 32.6425 19.7014 32.5011 19.5601C32.3518 19.4174 32.2238 19.2548 32.1185 19.0774C31.9838 18.8654 31.8771 18.6388 31.7998 18.4054C31.6998 18.1361 31.6358 17.8601 31.6011 17.5761C31.5438 17.1721 31.5158 16.7694 31.5225 16.3574C31.5305 15.9468 31.5798 15.5361 31.6651 15.1401C31.7291 14.8494 31.8211 14.5734 31.9478 14.3041C32.0611 14.0774 32.2025 13.8641 32.3665 13.6734C32.5291 13.4748 32.7198 13.2908 32.9331 13.1428C33.1451 12.9868 33.3718 12.8521 33.6131 12.7454C33.9318 12.6041 34.2638 12.4828 34.6038 12.3988C34.9651 12.2988 35.3265 12.2281 35.7025 12.1854C36.1691 12.1294 36.6438 12.0934 37.1185 12.0868C37.6291 12.1508 38.1465 12.2561 38.6425 12.3988C38.9105 12.4694 39.1731 12.5828 39.4211 12.7174C39.5411 12.7948 39.6625 12.8734 39.7678 12.9721C39.8171 13.0214 39.8678 13.0788 39.9091 13.1428C39.9385 13.1988 39.9665 13.2561 39.9811 13.3121C40.0091 13.3908 40.0225 13.4748 40.0225 13.5601C40.0545 14.3374 40.7131 14.9454 41.4931 14.9161C42.2731 14.8868 42.8838 14.2281 42.8558 13.4468C42.8425 13.1281 42.7931 12.8094 42.7011 12.4974C42.6091 12.1934 42.4745 11.9028 42.3038 11.6334C42.1265 11.3574 41.9145 11.1028 41.6731 10.8828C41.4118 10.6414 41.1278 10.4361 40.8238 10.2588C40.3771 10.0041 39.9025 9.80542 39.4065 9.67075C38.7051 9.47342 37.9905 9.33075 37.2611 9.25342C37.1585 9.25475 37.0571 9.25608 36.9545 9.26142C37.4105 7.83608 38.2518 6.56142 39.3851 5.56942C40.8371 4.29475 42.7078 3.59342 44.6345 3.58675C44.6411 3.58675 44.6411 3.58675 44.6411 3.58675H44.6345C46.6038 3.59342 48.5025 4.32408 49.9611 5.63342C51.0598 6.62142 51.8771 7.87075 52.3211 9.26142ZM47.1785 38.4614C48.2078 38.4614 49.1958 38.8694 49.9238 39.5988C50.6518 40.3268 51.0611 41.3134 51.0611 42.3441C51.0611 43.3734 50.6518 44.3614 49.9238 45.0894C49.1958 45.8174 48.2078 46.2268 47.1785 46.2268C46.1491 46.2268 45.1611 45.8174 44.4331 45.0894C43.7051 44.3614 43.2958 43.3734 43.2958 42.3441C43.2958 41.3134 43.7051 40.3268 44.4331 39.5988C45.1611 38.8694 46.1491 38.4614 47.1785 38.4614ZM55.3825 9.65875C55.3905 9.66008 55.3998 9.66142 55.4078 9.66409C55.8891 9.79209 56.3638 9.96142 56.8251 10.1668C57.2291 10.3588 57.6185 10.5774 57.9798 10.8401C58.3758 11.1308 58.7371 11.4641 59.0558 11.8388C59.3678 12.2148 59.6371 12.6174 59.8491 13.0574C60.0758 13.5321 60.2531 14.0281 60.3598 14.5374C60.4865 15.1188 60.5571 15.7134 60.5651 16.3161C60.5718 16.8961 60.5358 17.4774 60.4518 18.0508C60.3811 18.5321 60.2598 19.0148 60.0825 19.4748C59.9345 19.8788 59.7425 20.2614 59.5091 20.6294C59.2891 20.9761 59.0278 21.3028 58.7305 21.5921C58.4251 21.8908 58.0851 22.1521 57.7171 22.3721C57.3211 22.6054 56.9025 22.8041 56.4705 22.9521C56.0385 23.1014 55.5851 23.2081 55.1318 23.2788C54.5931 23.3628 54.0478 23.4134 53.5025 23.4201C53.4958 23.4201 53.4891 23.4201 53.4811 23.4201H48.5225H47.1065H40.7318H35.7731C35.7665 23.4201 35.7585 23.4201 35.7518 23.4201C35.1851 23.4134 34.6118 23.3628 34.0518 23.2708C33.5771 23.1934 33.1171 23.0734 32.6638 22.9094C32.2598 22.7614 31.8625 22.5694 31.4945 22.3428C31.1411 22.1308 30.8145 21.8761 30.5238 21.5921C30.2131 21.2814 29.9358 20.9414 29.7025 20.5721C29.4625 20.1828 29.2705 19.7654 29.1225 19.3334C28.9665 18.8868 28.8531 18.4334 28.7891 17.9654C28.7185 17.4201 28.6825 16.8681 28.6891 16.3161C28.6971 15.7201 28.7678 15.1254 28.8958 14.5374C29.0011 14.0281 29.1785 13.5321 29.4051 13.0641C29.6171 12.6254 29.8865 12.2148 30.1985 11.8454C30.5105 11.4708 30.8718 11.1374 31.2678 10.8468C31.6358 10.5854 32.0265 10.3508 32.4438 10.1668C32.9038 9.95475 33.3865 9.78408 33.8825 9.65742C33.8878 9.65608 33.8931 9.65475 33.8985 9.65342C34.3918 7.24808 35.6651 5.06008 37.5225 3.43742C39.4918 1.70942 42.0211 0.760085 44.6345 0.753418C44.6345 0.753418 44.6345 0.753418 44.6411 0.753418C47.3051 0.760085 49.8691 1.74542 51.8518 3.52275C53.6571 5.14008 54.8945 7.29475 55.3825 9.65875ZM41.7345 51.4948C42.2811 51.8468 42.8691 52.1254 43.4798 52.3481L43.7771 55.9361H50.5718L50.8718 52.3574C52.0065 51.9361 53.0625 51.3254 53.9931 50.5521L57.2465 52.0841L60.6438 46.1988L57.6905 44.1468C57.7945 43.5521 57.8491 42.9494 57.8531 42.3454C57.8531 41.7401 57.8011 41.1348 57.6971 40.5374L60.6438 38.4934L57.2465 32.6081L54.0011 34.1361C53.0665 33.3668 52.0091 32.7614 50.8731 32.3468L50.5731 28.7601H43.7771L43.7811 28.7534L43.4811 32.3334C42.8371 32.5721 42.2185 32.8708 41.6465 33.2468L41.7345 51.4948ZM5.97314 49.0001H3.97314V45.0001H5.97314H9.65314L16.5865 35.6934L21.4931 48.8134L24.1065 43.6668H35.7065H37.7065V47.6668H35.7065H26.5598L20.9465 57.4134L15.4131 43.9601L11.6665 49.0001H5.97314Z" fill="#9FEF00"/>
<path d="M37.3028 26.4067L40.7322 27.1533L40.8242 30.02L40.1828 31.1667C34.9428 33.6467 29.1962 34.94 23.3962 34.94C20.5828 34.94 17.7962 34.62 15.0628 33.9933C12.3962 33.3667 9.82284 32.3933 7.42284 31.1L5.07617 29.8333L7.60951 25.14L9.95617 26.4067C11.9428 27.4867 14.0628 28.2867 16.2628 28.7933C18.5962 29.34 20.9962 29.6067 23.3962 29.6067C28.4095 29.6067 32.7695 28.5667 37.3028 26.4067Z" fill="#9FEF00"/>
<path fill-rule="evenodd" clip-rule="evenodd" d="M8.68929 55.1134C13.1426 57.3667 18.0626 58.5534 23.0626 58.5801C28.0093 58.5534 32.8893 57.3801 37.3026 55.1267V28.7534V26.4067C40.2453 26.4067 42.636 27.4587 42.636 28.7534V55.4201C42.636 57.2334 41.6226 58.9001 40.0226 59.7267C34.7826 62.4601 28.956 63.8867 23.0493 63.9134C17.1026 63.8867 11.2493 62.4467 5.96929 59.7134C5.19596 59.3001 4.54262 58.6867 4.10262 57.9401C3.63596 57.2067 3.38262 56.3534 3.35596 55.4867C3.35596 55.4734 3.35596 55.4467 3.35596 55.4201V27.1534C3.35596 26.0067 3.52929 24.8601 3.88929 23.7534C4.43596 21.9801 5.27596 20.3001 6.39596 18.7934C7.43596 17.4201 8.72929 16.2334 10.196 15.3001C11.6493 14.3801 13.2093 13.6467 14.8493 13.1134C16.5826 12.5401 18.356 12.0601 20.156 11.6867C21.5986 11.3921 23.008 12.3241 23.3026 13.7667C23.5973 15.2094 22.6653 16.6187 21.2226 16.9134C19.636 17.2467 18.0626 17.6601 16.516 18.1801C15.3026 18.5801 14.1293 19.1267 13.0493 19.8067C12.1293 20.3934 11.316 21.1401 10.6626 21.9934C9.91596 23.0201 9.34262 24.1534 8.96929 25.3534C8.78262 25.9401 8.68929 26.5401 8.68929 27.1534V55.1134Z" fill="#9FEF00"/>
</g>
<defs>
<clipPath id="clip0_62_4919">
<rect width="64" height="64" fill="white" transform="translate(0 0.333374)"/>
</clipPath>
</defs>
</svg>
