<svg width="64" height="65" viewBox="0 0 64 65" fill="none" xmlns="http://www.w3.org/2000/svg">
<path fill-rule="evenodd" clip-rule="evenodd" d="M6.23717 31.0893C6.23717 32.6267 4.98917 33.8747 3.45184 33.8747C1.9145 33.8747 0.666504 32.6267 0.666504 31.0893V10.2C0.666504 7.98533 1.54384 5.85466 3.11717 4.29599C4.67717 2.72133 6.80784 1.84399 9.0225 1.84399H34.0892C35.6265 1.84399 36.8745 3.09199 36.8745 4.62933C36.8745 6.16666 35.6265 7.41466 34.0892 7.41466H9.0225C8.28384 7.41466 7.57317 7.70666 7.0585 8.23599C6.52917 8.75199 6.23717 9.46133 6.23717 10.2V31.0893ZM57.7625 43.3253C57.7625 41.7893 59.0105 40.5413 60.5478 40.5413C62.0852 40.5413 63.3332 41.7893 63.3332 43.3253V54.4667C63.3332 56.6813 62.4558 58.812 60.8825 60.3707C59.3225 61.9453 57.1918 62.8227 54.9772 62.8227H9.0225C6.80784 62.8227 4.67717 61.9453 3.11717 60.3707C1.54384 58.812 0.666504 56.6813 0.666504 54.4667V51.6813C0.666504 50.144 1.9145 48.896 3.45184 48.896C4.98917 48.896 6.23717 50.144 6.23717 51.6813V54.4667C6.23717 55.2053 6.52917 55.9147 7.0585 56.4307C7.57317 56.96 8.28384 57.252 9.0225 57.252H54.9772C55.7158 57.252 56.4265 56.96 56.9412 56.4307C57.4705 55.9147 57.7625 55.2053 57.7625 54.4667V43.3253ZM46.6225 7.41466C45.0852 7.41466 43.8372 6.16666 43.8372 4.62933C43.8372 3.09199 45.0852 1.84399 46.6225 1.84399H54.9772C57.1918 1.84399 59.3225 2.72133 60.8825 4.29599C62.4558 5.85466 63.3332 7.98533 63.3332 10.2V22.7333C63.3332 24.2707 62.0852 25.5187 60.5478 25.5187C59.0105 25.5187 57.7625 24.2707 57.7625 22.7333V10.2C57.7625 9.46133 57.4705 8.75199 56.9412 8.23599C56.4265 7.70666 55.7158 7.41466 54.9772 7.41466H46.6225ZM31.1145 44.3387C30.8972 44.352 30.6798 44.3893 30.4692 44.4453C29.6252 44.672 28.8812 45.244 28.4452 46C28.0078 46.756 27.8852 47.688 28.1118 48.5307C28.3385 49.3747 28.9105 50.1187 29.6665 50.5547C30.4225 50.992 31.3545 51.1147 32.1972 50.888C33.0412 50.6613 33.7852 50.0893 34.2212 49.3333C34.6585 48.5773 34.7812 47.6453 34.5545 46.8027C34.3278 45.9587 33.7558 45.2147 32.9998 44.7787C32.4332 44.4507 31.7678 44.2987 31.1145 44.3387ZM40.4918 31.0027C39.5358 31.028 38.5865 31.3333 37.8118 31.896C36.9145 32.5467 36.2785 33.484 35.5785 34.3427C35.2278 34.7733 34.8558 35.188 34.4265 35.5387C33.9972 35.8893 33.5065 36.176 32.9718 36.32C32.4358 36.4627 31.8678 36.4587 31.3198 36.3693C30.7732 36.28 30.2425 36.1053 29.7238 35.908C28.6865 35.5133 27.6678 35.0187 26.5652 34.9027C25.0425 34.7427 23.4572 35.3747 22.4638 36.536C21.4692 37.6973 21.0932 39.36 21.4892 40.836C21.8852 42.312 23.0412 43.56 24.4838 44.0693C25.9278 44.58 27.6158 44.336 28.8545 43.4373C29.7518 42.7853 30.3878 41.848 31.0878 40.9893C31.4385 40.56 31.8105 40.144 32.2398 39.7933C32.6692 39.4427 33.1598 39.156 33.6945 39.012C34.2305 38.8693 34.7985 38.8733 35.3465 38.9627C35.8932 39.052 36.4238 39.2267 36.9425 39.424C37.9798 39.8187 38.9985 40.3133 40.1012 40.4293C41.6238 40.5893 43.2092 39.9587 44.2025 38.796C45.1972 37.6347 45.5732 35.9733 45.1772 34.4973C44.7812 33.0213 43.6252 31.772 42.1825 31.2627C41.6412 31.072 41.0652 30.9867 40.4918 31.0027ZM40.2105 17.6693C38.9372 17.7027 37.6692 18.1 36.6385 18.8307C35.4412 19.6773 34.5945 20.8987 33.6612 22.016C33.1945 22.5747 32.6972 23.112 32.1252 23.568C31.5518 24.024 30.8998 24.3947 30.1852 24.5813C29.4705 24.7667 28.7145 24.764 27.9838 24.648C27.2545 24.532 26.5452 24.3067 25.8545 24.0493C24.4718 23.536 23.1118 22.8933 21.6398 22.7427C19.6105 22.5333 17.4972 23.3547 16.1718 24.864C14.8465 26.3747 14.3438 28.5347 14.8718 30.4533C15.4012 32.372 16.9452 33.996 18.8692 34.6587C20.7932 35.3213 23.0438 35.004 24.6945 33.836C25.8918 32.9893 26.7385 31.768 27.6718 30.6507C28.1385 30.092 28.6358 29.5547 29.2078 29.0987C29.7812 28.6427 30.4332 28.272 31.1478 28.0853C31.8625 27.9 32.6185 27.9027 33.3492 28.0187C34.0785 28.1347 34.7878 28.36 35.4785 28.6173C36.8612 29.1307 38.2212 29.7733 39.6932 29.924C41.7225 30.1333 43.8358 29.312 45.1612 27.8027C46.4865 26.292 46.9892 24.132 46.4612 22.2133C45.9318 20.2947 44.3878 18.6707 42.4638 18.008C41.7412 17.7587 40.9758 17.6493 40.2105 17.6693Z" fill="#9FEF00"/>
</svg>
