<svg width="64" height="65" viewBox="0 0 64 65" fill="none" xmlns="http://www.w3.org/2000/svg">
<path fill-rule="evenodd" clip-rule="evenodd" d="M59.2442 17.6667C58.7042 17.6721 57.0588 17.7894 51.7268 18.1521C49.7255 18.2881 46.6362 18.4987 44.8602 18.6187C43.0855 18.7401 40.1948 18.9361 38.4362 19.0561C36.6788 19.1747 33.7455 19.3734 31.9188 19.4947C25.6722 19.9134 26.0562 19.8787 25.7628 20.0387C25.3975 20.2387 25.1668 20.6334 25.0562 21.2481C25.0068 21.5214 24.9402 21.8161 24.9068 21.9027C24.8735 21.9881 24.8268 22.2241 24.8015 22.4254C24.7762 22.6281 24.7175 22.8987 24.6722 23.0281C24.6255 23.1574 24.5668 23.4281 24.5415 23.6281C24.5162 23.8294 24.4602 24.0787 24.4175 24.1841C24.3748 24.2881 24.3188 24.5387 24.2948 24.7401C24.2695 24.9427 24.2122 25.2107 24.1682 25.3361C24.1228 25.4614 24.0655 25.7174 24.0388 25.9054C24.0135 26.0934 23.9562 26.3467 23.9122 26.4681C23.8695 26.5907 23.8122 26.8427 23.7855 27.0307C23.7602 27.2187 23.7028 27.4721 23.6588 27.5947C23.6162 27.7161 23.5588 27.9694 23.5322 28.1574C23.5068 28.3454 23.4495 28.5988 23.4055 28.7201C23.3628 28.8414 23.3055 29.0947 23.2802 29.2827C23.2535 29.4707 23.1962 29.7241 23.1535 29.8454C23.1095 29.9681 23.0522 30.2214 23.0268 30.4094C23.0002 30.5961 22.9428 30.8494 22.9002 30.9721C22.8562 31.0934 22.7988 31.3481 22.7735 31.5361C22.7468 31.7241 22.6988 31.9494 22.6655 32.0347C22.6322 32.1214 22.5642 32.4161 22.5148 32.6921C22.4308 33.1574 22.4322 33.2027 22.5402 33.3481C22.7655 33.6561 23.0388 33.7254 25.0068 33.9787C26.0415 34.1107 27.6562 34.3201 28.5962 34.4428C29.5348 34.5654 31.1655 34.7774 32.2188 34.9148C33.2722 35.0508 35.0095 35.2761 36.0788 35.4148C37.1495 35.5534 38.7802 35.7641 39.7028 35.8827C41.7068 36.1387 44.9415 36.5574 46.2362 36.7281C48.3602 37.0081 49.1202 37.1081 50.7775 37.3241C51.7348 37.4494 53.2162 37.6441 54.0682 37.7561C56.0162 38.0147 56.0655 38.0161 56.1802 37.8361C56.2695 37.6974 56.3935 37.1454 56.6628 35.6934C56.7402 35.2814 56.8682 34.6054 56.9482 34.1934C57.0282 33.7801 57.1562 33.1187 57.2308 32.7227C57.3068 32.3267 57.4215 31.7641 57.4868 31.4721C57.5508 31.1801 57.6228 30.8281 57.6455 30.6907C57.6868 30.4347 57.7948 29.8761 58.0802 28.4387C58.1695 27.9907 58.3002 27.3227 58.3722 26.9534C58.4428 26.5841 58.5602 25.9787 58.6308 25.6081C58.7028 25.2387 58.8282 24.5987 58.9095 24.1854C58.9908 23.7721 59.1175 23.1254 59.1908 22.7467C59.3122 22.1214 59.4002 21.6787 59.7655 19.8387C60.0388 18.4627 60.0522 18.3134 59.9148 18.0827C59.8468 17.9667 59.6975 17.8187 59.5842 17.7534C59.4962 17.7027 59.5695 17.6641 59.2442 17.6667ZM21.0015 34.8147C20.7415 34.8121 20.4948 34.8307 20.2415 34.8694C19.8935 34.9227 17.1735 35.3067 14.1975 35.7241C11.2215 36.1401 8.66283 36.5254 8.51216 36.5801C7.87216 36.8094 7.82016 37.6054 8.42416 37.9054C8.5535 37.9694 8.83083 38.0707 9.04016 38.1307C9.2495 38.1907 9.49083 38.2627 9.5775 38.2894C9.6655 38.3161 9.8495 38.3681 9.9895 38.4054C10.3868 38.5121 11.4148 38.7987 11.8095 38.9121C11.9215 38.9441 12.1282 39.0014 12.2682 39.0401C12.4068 39.0788 12.6068 39.1347 12.7108 39.1641C13.0188 39.2521 14.2748 39.6014 14.5148 39.6667C14.6362 39.7001 14.9282 39.7841 15.1628 39.8534C15.3975 39.9214 15.7828 40.0347 16.0175 40.1041C16.2522 40.1734 16.5588 40.2614 16.6975 40.2988C16.8375 40.3374 17.0215 40.3894 17.1095 40.4161C17.1962 40.4427 17.3815 40.4948 17.5202 40.5308C18.1135 40.6881 18.5522 40.8107 19.9882 41.2241C20.8242 41.4641 21.7642 41.7281 22.0775 41.8107C23.0162 42.0601 27.3482 43.2854 27.9948 43.4854C28.3255 43.5867 28.7095 43.7014 28.8495 43.7414C28.9882 43.7801 29.2295 43.8521 29.3855 43.9001C29.5402 43.9494 29.8402 44.0321 30.0495 44.0827C30.2588 44.1347 30.5162 44.2014 30.6215 44.2321C30.7255 44.2627 30.9108 44.3148 31.0322 44.3481C31.1535 44.3814 31.5522 44.4974 31.9188 44.6068C32.8708 44.8908 33.2988 45.0107 33.7215 45.1134C33.8615 45.1467 34.1602 45.2294 34.3868 45.2961C34.6122 45.3627 35.1108 45.5041 35.4935 45.6107C35.8775 45.7174 36.3122 45.8454 36.4628 45.8948C36.6135 45.9441 36.9695 46.0427 37.2535 46.1134C37.5388 46.1841 38.3415 46.4081 39.0375 46.6107C40.8775 47.1467 40.9788 47.1707 41.2068 47.1427C41.3202 47.1281 44.3388 45.6588 47.9148 43.8761C54.9455 40.3708 54.7015 40.5107 54.7015 40.0081C54.7015 39.6654 54.9802 39.7334 51.4428 39.2227C50.5028 39.0867 49.3495 38.9201 48.8788 38.8534C48.4095 38.7854 47.7402 38.6881 47.3922 38.6347C47.0442 38.5814 45.9762 38.4267 45.0188 38.2894C44.0615 38.1521 42.4948 37.9267 41.5375 37.7894C40.5802 37.6507 39.2135 37.4534 38.5002 37.3521C36.8535 37.1161 33.3495 36.6094 31.3802 36.3201C30.5455 36.1974 29.2775 36.0147 28.5642 35.9121C24.2015 35.2907 22.8548 35.0907 22.4882 35.0107C21.9015 34.8827 21.4335 34.8201 21.0015 34.8147ZM17.3228 41.8041C17.2095 41.8281 14.8935 46.7414 14.8935 46.9588C14.8935 47.2054 15.0748 47.4854 15.2935 47.5801C15.5495 47.6908 15.5988 47.6907 15.8895 47.5854C16.0202 47.5374 16.4268 47.4081 16.7922 47.2974C17.1588 47.1881 17.6775 47.0294 17.9468 46.9454C18.4175 46.7987 18.7348 46.7027 19.9882 46.3281C21.0255 46.0174 21.6762 45.7974 21.8455 45.6974C22.1855 45.4974 22.5482 44.8427 22.9348 43.7307C23.0468 43.4094 23.0468 43.3827 22.9468 43.3081C22.8882 43.2641 22.7255 43.2001 22.5855 43.1654C22.0842 43.0414 20.6588 42.6641 19.0495 42.2281C18.1508 41.9841 17.3735 41.7934 17.3228 41.8041ZM46.8668 45.6867C46.8002 45.6881 46.7175 45.7147 46.6242 45.7694C46.5082 45.8347 46.1642 46.0267 45.8588 46.1947C45.3682 46.4641 44.3988 47.0241 43.7535 47.4134C43.6308 47.4868 43.3895 47.6174 43.2148 47.7054C43.0415 47.7921 42.7415 47.9601 42.5508 48.0774C41.6148 48.6521 41.2308 48.7721 40.8295 48.6161C40.7495 48.5854 40.3335 48.4681 39.9055 48.3547C39.2362 48.1787 39.1162 48.1627 39.0455 48.2401C38.9682 48.3227 38.8788 48.5388 38.5562 49.4228C38.4868 49.6121 38.3722 49.9081 38.3015 50.0801C38.2295 50.2521 38.1482 50.4774 38.1188 50.5801C38.0895 50.6841 37.9762 51.0067 37.8655 51.3001C37.7562 51.5921 37.6428 51.9014 37.6135 51.9881C37.5855 52.0734 37.4722 52.3827 37.3628 52.6761C37.1762 53.1734 36.8522 54.3187 36.8575 54.4574C36.8615 54.5961 37.1655 54.8774 37.3975 54.9601C37.7228 55.0734 37.7455 55.0734 38.1695 54.9308C38.7322 54.7428 42.2935 52.9388 43.2468 52.3601C43.7162 52.0748 44.4068 51.6801 44.7802 51.4814C45.1535 51.2827 45.5188 51.0787 45.5935 51.0281C45.8508 50.8494 46.0362 50.4881 46.1655 49.9081C46.2362 49.5894 46.3362 49.1468 46.3868 48.9228C46.4375 48.6988 46.5042 48.3894 46.5362 48.2347C46.5682 48.0801 46.6948 47.5228 46.8188 46.9961C46.9428 46.4694 47.0442 45.9681 47.0442 45.8827C47.0442 45.7507 46.9775 45.6827 46.8668 45.6867ZM56.4935 42.8934C56.9282 41.8774 58.1042 41.4094 59.1202 41.8467C60.1362 42.2841 60.6015 43.4587 60.1602 44.4667C57.7868 49.9734 53.8668 54.6534 48.8535 57.9467C43.8535 61.2401 37.9868 63.0001 32.0002 63.0001C23.8668 63.0001 16.0668 59.7734 10.3202 54.0134C4.56016 48.2667 1.3335 40.4667 1.3335 32.3334C1.3335 24.2001 4.56016 16.4001 10.3202 10.6534C16.0668 4.89341 23.8668 1.66675 32.0002 1.66675C39.0002 1.66675 45.7868 4.06675 51.2402 8.45342C52.0935 9.14542 52.2255 10.4054 51.5335 11.2667C50.8415 12.1281 49.5815 12.2654 48.7202 11.5734C43.9868 7.74675 38.0802 5.66675 32.0002 5.66675C24.9335 5.66675 18.1468 8.48008 13.1468 13.4801C8.14683 18.4801 5.3335 25.2667 5.3335 32.3334C5.3335 39.4001 8.14683 46.1867 13.1468 51.1867C18.1468 56.1867 24.9335 59.0001 32.0002 59.0001C37.2135 59.0001 42.3068 57.4667 46.6535 54.6134C51.0135 51.7467 54.4268 47.6667 56.4935 42.8934Z" fill="#9FEF00"/>
</svg>
