<svg width="64" height="65" viewBox="0 0 64 65" fill="none" xmlns="http://www.w3.org/2000/svg">
<path d="M5.69317 21.9467L3.39984 23.3067C2.13317 22.5814 1.24784 21.1734 0.666504 19L2.97317 17.36L26.5465 3.32002L27.4278 2.75602C29.9065 1.16802 33.9505 1.14002 36.4518 2.69202L60.9998 17.92L63.3332 19L60.6532 23.88L58.3332 22.5467L36.6012 8.94935C34.1052 7.38802 30.0305 7.34935 27.5065 8.86268L5.69317 21.9467Z" fill="#9FEF00"/>
<path fill-rule="evenodd" clip-rule="evenodd" d="M45.3332 37.1093L35.2292 46.2693C33.4465 47.8853 30.5532 47.8853 28.7705 46.2693L18.5452 37H18.6665V35V22.3333C18.6665 21.5973 19.2638 21 19.9998 21H43.9998C44.7358 21 45.3332 21.5973 45.3332 22.3333V36.3333V37.1093ZM57.6358 38.9C57.6358 37.3267 58.9132 36.0507 60.4852 36.0507C62.0572 36.0507 63.3332 37.3267 63.3332 38.9V56.2627C63.3332 60.1933 60.1425 63.384 56.2118 63.384H7.78784C3.85717 63.384 0.666504 60.1933 0.666504 56.2627V38.9C0.666504 37.3267 1.9425 36.0507 3.5145 36.0507C5.0865 36.0507 6.36384 37.3267 6.36384 38.9V53.4147C6.36384 55.7733 8.2785 57.6867 10.6358 57.6867H53.3638C55.7212 57.6867 57.6358 55.7733 57.6358 53.4147V38.9ZM49.3332 33.4827L56.5598 26.932C56.9563 26.5729 59.2141 23.9289 63.3332 19V26.0747C63.3332 27.72 62.3545 29.9107 61.1478 30.9667L37.4625 51.688C34.4478 54.3267 29.5518 54.3267 26.5372 51.688L2.85184 30.9667C1.64517 29.9107 0.666504 27.72 0.666504 26.0747V19C0.666504 19.8227 6.84517 26.3933 7.43984 26.932L14.6665 33.4827V21C14.6665 18.792 16.4585 17 18.6665 17H45.3332C47.5412 17 49.3332 18.792 49.3332 21V33.4827ZM29.9998 21.5453C27.1478 21.7 25.0665 22.8467 23.9998 23.8667V35.4587C23.9998 39.876 27.5812 43.4587 31.9998 43.4587C36.4185 43.4587 39.9998 39.876 39.9998 35.4587C39.9998 31.04 36.4185 27.4587 31.9998 27.4587C31.6425 27.46 31.3532 27.4827 30.9998 27.532V33.7667C31.3185 33.5653 31.6225 33.4587 31.9998 33.4587C33.1038 33.4587 33.9998 34.3533 33.9998 35.4587C33.9998 36.5627 33.1038 37.4587 31.9998 37.4587C30.8958 37.4587 29.9998 36.5627 29.9998 35.4587V27.9347V21.5453Z" fill="#9FEF00"/>
</svg>
