<svg width="64" height="65" viewBox="0 0 64 65" fill="none" xmlns="http://www.w3.org/2000/svg">
<g clip-path="url(#clip0_62_4895)">
<path fill-rule="evenodd" clip-rule="evenodd" d="M30.4748 58.0293C32.0708 58.1613 33.2615 59.5427 33.1295 61.112C32.9988 62.68 31.5908 63.8467 29.9855 63.7147C21.9481 63.0587 14.4468 59.4413 9.00148 53.5893C3.57214 47.7373 0.588143 40.0813 0.661477 32.1667C0.737477 23.8533 4.18548 15.8987 10.2335 10.0627C16.2935 4.24 24.4695 1.00533 32.9495 1.08C41.4295 1.15467 49.5441 4.536 55.4961 10.464C61.4348 16.4053 64.7348 24.4213 64.6588 32.7347C64.6441 34.308 63.3295 35.5747 61.7228 35.56C60.1175 35.5467 58.8255 34.2573 58.8401 32.6827C58.9028 25.8813 56.2001 19.3253 51.3428 14.4627C46.4708 9.61333 39.8348 6.84533 32.8961 6.784C25.9588 6.72267 19.2721 9.372 14.3121 14.1347C9.36548 18.9107 6.54148 25.4173 6.47881 32.2187C6.41881 38.692 8.84948 44.96 13.3001 49.748C17.7495 54.536 23.8908 57.4853 30.4748 58.0293ZM54.6535 44.592C55.3975 43.2053 57.1281 42.684 58.5148 43.428C59.9001 44.1733 60.4215 45.9027 59.6775 47.2893C56.5015 53.1933 51.5095 57.94 45.4508 60.808C44.0281 61.488 42.3241 60.884 41.6495 59.4613C40.9735 58.0387 41.5801 56.332 43.0028 55.652C47.9721 53.3013 52.0428 49.4307 54.6535 44.592ZM44.0001 20.3333C44.0001 20.3333 14.6668 29.636 14.6668 29.6667L25.5268 34.2293L29.3335 35L30.1508 38.8987L34.6668 49.6667L44.0001 20.3333ZM24.3175 37.672C24.1921 37.6827 24.0295 37.7093 23.8801 37.748C22.7428 38.044 21.0895 39.268 20.2028 40.4693C19.1988 41.8307 18.6641 43.4253 18.6668 45.052C18.6668 45.5067 18.6868 45.5853 18.8201 45.6427C18.9721 45.7093 20.2601 45.6293 20.7815 45.524C22.2855 45.216 23.5681 44.512 24.7135 43.364C25.4335 42.6427 25.8588 42.048 26.2761 41.1773C26.5495 40.6067 26.7361 39.9133 26.6401 39.8173C26.6215 39.8 26.4721 39.8893 26.3068 40.0187C25.0655 40.8147 24.0748 41.3907 22.6668 41.6667C23.0321 40.2827 23.4228 39.228 24.1481 38.2347C24.3588 37.9507 24.5308 37.7067 24.5308 37.6933C24.5308 37.6667 24.4428 37.6613 24.3175 37.672Z" fill="#9FEF00"/>
</g>
<defs>
<clipPath id="clip0_62_4895">
<rect width="64" height="64" fill="white" transform="translate(0 0.333374)"/>
</clipPath>
</defs>
</svg>
