<svg width="116" height="116" viewBox="0 0 116 116" fill="none" xmlns="http://www.w3.org/2000/svg">
<path fill-rule="evenodd" clip-rule="evenodd" d="M28.8 7.67969H86.4L88.0567 7.75017L89.6741 7.95774L91.2468 8.29667L92.7688 8.76119L94.2343 9.34551L95.6376 10.0439L96.9731 10.8506L98.2347 11.7598L99.4169 12.7658L100.514 13.8628L101.52 15.045L102.429 16.3066L103.236 17.6421L103.934 19.0454L104.519 20.5109L104.983 22.0329L105.322 23.6056L105.529 25.223L105.6 26.8797V84.4797L105.529 86.1364L105.322 87.7538L104.983 89.3265L104.519 90.8485L103.934 92.314L103.236 93.7173L102.429 95.0528L101.52 96.3144L100.514 97.4966L99.4169 98.5936L98.2347 99.5996L96.9731 100.509L95.6376 101.315L94.2343 102.014L92.7688 102.598L91.2468 103.063L89.6741 103.402L88.0567 103.609L86.4 103.68H28.8L27.1433 103.609L25.5259 103.402L23.9532 103.063L22.4312 102.598L20.9657 102.014L19.5624 101.315L18.2269 100.509L16.9653 99.5996L15.7831 98.5936L14.6861 97.4966L13.6801 96.3144L12.7709 95.0528L11.9642 93.7173L11.2658 92.314L10.6815 90.8485L10.217 89.3265L9.87806 87.7538L9.67049 86.1364L9.60001 84.4797V26.8797L9.67049 25.223L9.87806 23.6056L10.217 22.0329L10.6815 20.5109L11.2658 19.0454L11.9642 17.6421L12.7709 16.3066L13.6801 15.045L14.6861 13.8628L15.7831 12.7658L16.9653 11.7598L18.2269 10.8506L19.5624 10.0439L20.9657 9.34551L22.4312 8.76119L23.9532 8.29667L25.5259 7.95774L27.1433 7.75017L28.8 7.67969ZM30.72 18.9597H84.48L86.2056 19.1144L87.8297 19.5602L89.3253 20.2704L90.6652 21.2174L91.8221 22.3745L92.7693 23.7144L93.4793 25.21L93.9253 26.8341L94.08 28.5597V74.6397L93.9253 76.3653L93.4793 77.9894L92.7693 79.485L91.8221 80.8249L90.6652 81.9818L89.3253 82.929L87.8297 83.639L86.2056 84.085L84.48 84.2397H30.72L28.9944 84.085L27.3703 83.639L25.8747 82.929L24.5348 81.9818L23.3777 80.8249L22.4307 79.485L21.7205 77.9894L21.2747 76.3653L21.12 74.6397V28.5597L21.2747 26.8341L21.7205 25.21L22.4307 23.7144L23.3777 22.3745L24.5348 21.2174L25.8747 20.2704L27.3703 19.5602L28.9944 19.1144L30.72 18.9597ZM86.4 26.6397V75.5997V75.8397H60.48V64.3197V63.1197H74.88V39.3597H60.48V27.8397V26.6397H86.4ZM54.72 26.6397V38.1597V39.3597H41.28V63.1197H54.72V75.5997V76.7997H28.8V27.8397V26.6397H54.72Z" fill="#9FEF00"/>
</svg>
