<svg width="512" height="512" viewBox="0 0 512 512" fill="none" xmlns="http://www.w3.org/2000/svg">
<g filter="url(#filter0_f_15_41)">
<path d="M353.788 16.0276C344.081 12.1884 334.15 8.93918 324.051 6.29785L286.537 48.3347C265.484 45.2369 244.083 45.3553 223.065 48.6858L184.894 6.88981C164.868 12.6863 145.615 20.8783 127.552 31.2881L130.755 87.6118C113.701 100.299 98.671 115.5 86.1779 132.697L29.7301 130.14C24.6024 139.214 20.0269 148.589 16.0285 158.214C12.1893 167.922 8.94012 177.852 6.29883 187.951L48.3356 225.465C45.2369 246.517 45.3543 267.918 48.6836 288.936L6.89207 327.105C12.6871 347.131 20.8776 366.385 31.286 384.449L87.6129 381.247C100.3 398.301 115.501 413.331 132.698 425.824L130.141 482.272C139.214 487.399 148.588 491.974 158.212 495.972C167.92 499.811 177.85 503.061 187.949 505.702L225.466 463.667C246.517 466.764 267.917 466.647 288.934 463.317L327.105 505.113C347.132 499.317 366.386 491.126 384.45 480.716L381.248 424.389C398.301 411.702 413.33 396.5 425.822 379.303L482.269 381.863C487.397 372.79 491.974 363.415 495.973 353.79C499.812 344.081 503.061 334.149 505.701 324.049L463.668 286.536C466.765 265.484 466.646 244.084 463.315 223.067L505.112 184.893C499.316 164.867 491.124 145.614 480.714 127.551L424.387 130.753C411.7 113.7 396.5 98.6719 379.304 86.18L381.863 29.7291C372.788 24.6015 363.413 20.026 353.788 16.0276ZM322.807 92.0546C344.337 100.828 363.928 113.756 380.462 130.1C396.995 146.445 410.148 165.886 419.168 187.313C428.188 208.741 432.899 231.735 433.033 254.984C433.167 278.232 428.72 301.279 419.946 322.809C402.227 366.29 367.962 400.951 324.687 419.167C281.413 437.384 232.674 437.664 189.193 419.945C145.713 402.227 111.052 367.962 92.8351 324.688C74.6184 281.414 74.338 232.676 92.0555 189.195C109.774 145.714 144.039 111.052 187.313 92.8348C230.587 74.6174 279.326 74.3368 322.807 92.0546Z" fill="#9FEF00"/>
</g>
<path d="M353.788 16.0276C344.081 12.1884 334.15 8.93918 324.051 6.29785L286.537 48.3347C265.484 45.237 244.083 45.3553 223.065 48.6858L184.894 6.88981C164.868 12.6863 145.615 20.8783 127.552 31.2881L130.755 87.6118C113.701 100.299 98.671 115.5 86.1779 132.697L29.7301 130.14C24.6024 139.214 20.0269 148.589 16.0285 158.214C12.1893 167.922 8.94012 177.852 6.29883 187.951L48.3356 225.465C45.2369 246.517 45.3543 267.918 48.6836 288.936L6.89207 327.105C12.6871 347.131 20.8776 366.385 31.286 384.449L87.6129 381.247C100.3 398.301 115.501 413.331 132.698 425.824L130.141 482.272C139.214 487.399 148.588 491.974 158.212 495.972C167.92 499.811 177.85 503.061 187.949 505.702L225.466 463.667C246.517 466.764 267.917 466.647 288.934 463.317L327.105 505.113C347.132 499.317 366.386 491.126 384.45 480.716L381.248 424.389C398.301 411.702 413.33 396.5 425.822 379.303L482.269 381.863C487.397 372.79 491.974 363.415 495.973 353.79C499.812 344.081 503.061 334.149 505.701 324.049L463.668 286.536C466.765 265.484 466.646 244.084 463.315 223.067L505.112 184.893C499.316 164.867 491.124 145.614 480.714 127.551L424.387 130.753C411.7 113.7 396.5 98.6719 379.304 86.18L381.863 29.7291C372.788 24.6015 363.413 20.026 353.788 16.0276ZM322.807 92.0546C344.337 100.828 363.928 113.756 380.462 130.1C396.995 146.445 410.148 165.886 419.168 187.313C428.188 208.741 432.9 231.735 433.033 254.984C433.167 278.232 428.72 301.279 419.946 322.809C402.227 366.29 367.962 400.951 324.687 419.168C281.413 437.384 232.674 437.664 189.193 419.945C145.713 402.227 111.052 367.962 92.8351 324.688C74.6184 281.414 74.338 232.676 92.0555 189.195C109.774 145.714 144.039 111.052 187.313 92.8348C230.587 74.6174 279.326 74.3368 322.807 92.0546Z" fill="#9FEF00"/>
<g filter="url(#filter1_f_15_41)">
<path d="M306.075 116.303C297.878 116.303 291.161 123.02 291.161 131.217V165.109C291.161 168.997 292.698 172.544 295.162 175.208C292.69 177.873 291.161 181.416 291.161 185.312V219.175C291.161 221.299 291.61 223.327 292.421 225.164H241.455C241.418 225.164 241.385 225.164 241.347 225.164H215.434C207.236 225.164 200.514 231.91 200.514 240.107V273.97C200.514 277.865 202.043 281.425 204.514 284.097C202.043 286.769 200.514 290.306 200.514 294.202V328.065C200.514 336.262 207.236 343.007 215.434 343.007H241.347C241.385 343.007 241.416 343.007 241.455 343.007H292.136C291.507 344.651 291.161 346.411 291.161 348.267V382.159C291.161 390.357 297.878 397.073 306.075 397.073H331.988C340.186 397.073 346.931 390.357 346.931 382.159V348.267C346.931 344.382 345.397 340.86 342.93 338.197C345.406 335.526 346.931 331.957 346.931 328.065V294.202C346.931 286.004 340.186 279.259 331.988 279.259H306.075C297.878 279.259 291.161 286.004 291.161 294.202V328.065C291.161 330.189 291.61 332.217 292.421 334.054H255.001C255.812 332.217 256.261 330.189 256.261 328.065V294.202C256.261 290.306 254.732 286.769 252.26 284.097C254.732 281.425 256.261 277.865 256.261 273.97V240.107C256.261 237.978 255.788 235.958 254.973 234.118H331.988C340.186 234.118 346.931 227.373 346.931 219.175V185.312C346.931 181.419 345.406 177.872 342.93 175.208C345.397 172.544 346.931 168.994 346.931 165.109V131.217C346.931 123.02 340.186 116.303 331.988 116.303H306.075ZM306.075 125.256H331.988C335.38 125.256 337.978 127.826 337.978 131.217V165.109C337.978 167.652 336.532 169.738 334.371 170.62H303.722C301.568 169.738 300.114 167.652 300.114 165.109V131.217C300.114 127.826 302.684 125.256 306.075 125.256ZM303.699 179.829H334.393C336.541 180.717 337.978 182.778 337.978 185.312V219.175C337.978 222.566 335.38 225.164 331.988 225.164H306.075C302.684 225.164 300.114 222.566 300.114 219.175V185.312C300.114 182.778 301.559 180.716 303.699 179.829ZM215.433 234.118H241.347C244.738 234.118 247.308 236.716 247.308 240.107V273.97C247.308 276.491 245.873 278.578 243.752 279.481H213.023C210.901 278.578 209.472 276.491 209.472 273.97V240.107C209.472 236.716 212.042 234.118 215.433 234.118ZM306.075 288.212H331.988C335.38 288.212 337.978 290.81 337.978 294.202V328.065C337.978 330.585 336.55 332.672 334.422 333.576H303.67C301.549 332.673 300.114 330.586 300.114 328.065V294.202C300.114 290.81 302.684 288.212 306.075 288.212ZM213.051 288.719H243.723C245.858 289.616 247.308 291.672 247.308 294.202V328.065C247.308 331.456 244.738 334.054 241.347 334.054H215.433C212.042 334.054 209.472 331.456 209.472 328.065V294.202C209.472 291.672 210.917 289.616 213.051 288.719ZM334.393 342.814C336.535 343.704 337.978 345.738 337.978 348.267V382.159C337.978 385.55 335.38 388.12 331.988 388.12H306.075C302.684 388.12 300.114 385.55 300.114 382.159V348.267C300.114 345.936 301.33 343.994 303.192 343.007C307.473 343.007 324.315 342.814 334.393 342.814Z" fill="#9FEF00"/>
</g>
<path d="M307.074 116.303C298.876 116.303 292.16 123.02 292.16 131.217V165.109C292.16 168.997 293.697 172.544 296.16 175.208C293.688 177.873 292.16 181.416 292.16 185.312V219.175C292.16 221.299 292.608 223.327 293.419 225.164H242.453C242.416 225.164 242.383 225.164 242.345 225.164H216.432C208.234 225.164 201.512 231.91 201.512 240.107V273.97C201.512 277.865 203.041 281.425 205.513 284.097C203.041 286.769 201.512 290.306 201.512 294.202V328.065C201.512 336.262 208.234 343.007 216.432 343.007H242.345C242.384 343.007 242.415 343.007 242.453 343.007H293.134C292.506 344.651 292.16 346.411 292.16 348.267V382.159C292.16 390.357 298.876 397.073 307.074 397.073H332.987C341.184 397.073 347.93 390.357 347.93 382.159V348.267C347.93 344.382 346.396 340.86 343.929 338.197C346.404 335.526 347.93 331.957 347.93 328.065V294.202C347.93 286.004 341.184 279.259 332.987 279.259H307.074C298.876 279.259 292.16 286.004 292.16 294.202V328.065C292.16 330.189 292.608 332.217 293.419 334.054H256C256.811 332.217 257.259 330.189 257.259 328.065V294.202C257.259 290.306 255.73 286.769 253.259 284.097C255.73 281.425 257.259 277.865 257.259 273.97V240.107C257.259 237.978 256.786 235.959 255.971 234.118H332.987C341.184 234.118 347.93 227.373 347.93 219.175V185.312C347.93 181.419 346.404 177.872 343.929 175.208C346.396 172.544 347.93 168.994 347.93 165.109V131.217C347.93 123.02 341.184 116.303 332.987 116.303H307.074ZM307.074 125.256H332.987C336.378 125.256 338.976 127.826 338.976 131.217V165.109C338.976 167.652 337.53 169.738 335.369 170.62H304.72C302.567 169.738 301.113 167.652 301.113 165.109V131.217C301.113 127.826 303.682 125.256 307.074 125.256ZM304.697 179.829H335.392C337.539 180.717 338.976 182.778 338.976 185.312V219.175C338.976 222.566 336.378 225.164 332.987 225.164H307.074C303.682 225.164 301.113 222.566 301.113 219.175V185.312C301.113 182.778 302.557 180.716 304.697 179.829ZM216.432 234.118H242.345C245.736 234.118 248.306 236.716 248.306 240.107V273.97C248.306 276.491 246.872 278.578 244.75 279.481H214.021C211.899 278.578 210.471 276.491 210.471 273.97V240.107C210.471 236.716 213.041 234.118 216.432 234.118ZM307.074 288.212H332.987C336.378 288.212 338.976 290.81 338.976 294.202V328.065C338.976 330.585 337.549 332.672 335.42 333.576H304.669C302.547 332.673 301.113 330.586 301.113 328.065V294.202C301.113 290.81 303.682 288.212 307.074 288.212ZM214.05 288.719H244.722C246.856 289.617 248.306 291.672 248.306 294.202V328.065C248.306 331.456 245.736 334.054 242.345 334.054H216.432C213.041 334.054 210.471 331.456 210.471 328.065V294.202C210.471 291.672 211.915 289.617 214.05 288.719ZM335.392 342.814C337.533 343.704 338.976 345.738 338.976 348.267V382.159C338.976 385.55 336.378 388.12 332.987 388.12H307.074C303.682 388.12 301.113 385.55 301.113 382.159V348.267C301.113 345.936 302.329 343.994 304.19 343.007C308.471 343.007 325.313 342.814 335.392 342.814Z" fill="#9FEF00"/>
<defs>
<filter id="filter0_f_15_41" x="3.67431" y="3.67333" width="504.651" height="504.653" filterUnits="userSpaceOnUse" color-interpolation-filters="sRGB">
<feFlood flood-opacity="0" result="BackgroundImageFix"/>
<feBlend mode="normal" in="SourceGraphic" in2="BackgroundImageFix" result="shape"/>
<feGaussianBlur stdDeviation="1.31226" result="effect1_foregroundBlur_15_41"/>
</filter>
<filter id="filter1_f_15_41" x="198.106" y="113.895" width="151.233" height="285.586" filterUnits="userSpaceOnUse" color-interpolation-filters="sRGB">
<feFlood flood-opacity="0" result="BackgroundImageFix"/>
<feBlend mode="normal" in="SourceGraphic" in2="BackgroundImageFix" result="shape"/>
<feGaussianBlur stdDeviation="1.2039" result="effect1_foregroundBlur_15_41"/>
</filter>
</defs>
</svg>
