<svg width="64" height="65" viewBox="0 0 64 65" fill="none" xmlns="http://www.w3.org/2000/svg">
<path fill-rule="evenodd" clip-rule="evenodd" d="M7.62663 35.3333V17.7067C7.62663 15.4987 9.39329 13.404 11.5693 13.0293L25.2533 10.68C26.5186 10.4587 27.3706 9.24935 27.1533 7.98001C26.936 6.71068 25.7266 5.85868 24.4533 6.08001L9.53063 8.64401C5.90396 9.26801 2.95996 12.76 2.95996 16.44V36.3333V38.6667V48.2533C2.95996 51.9333 5.90129 55.444 9.52396 56.0893L23.5466 58.5867C24.82 58.8147 26.036 57.9693 26.26 56.7C26.484 55.4307 25.6386 54.2147 24.3733 53.9867L11.5653 51.712C9.39196 51.3267 7.62663 49.2213 7.62663 47.0133V37.6667V35.3333ZM34.2933 36.3733C34.2706 37.6613 33.208 38.6893 31.92 38.6667C30.632 38.644 29.604 37.5813 29.6266 36.2933L30.0386 10.932C30.0986 7.25335 33.0866 4.79335 36.7093 5.44135L54.4373 8.61201C58.06 9.26001 61 12.7733 61 16.4533V25.6667C61 26.9547 59.9546 28 58.6666 28C57.3786 28 56.3333 26.9547 56.3333 25.6667V17.6933C56.3333 15.4853 54.5693 13.3773 52.396 12.988L38.6706 10.532C36.4973 10.1427 34.704 11.6187 34.6666 13.8267L34.2933 36.3733ZM56.3333 40.3333C56.3333 39.0453 57.3786 38 58.6666 38C59.9546 38 61 39.0453 61 40.3333V46.2933C61 46.3067 61 46.32 61 46.3333C60.96 48.72 60.0933 51.0267 58.5333 52.8533C57.0133 54.6933 54.8933 55.96 52.5333 56.4C52.52 56.4 52.5066 56.4133 52.5066 56.4133L38.9733 58.7733C38.4666 58.8667 37.9733 58.9067 37.4666 58.9067C35.3733 58.9333 33.36 58.1067 31.8933 56.6267C30.4266 55.0933 29.6266 53.0533 29.6666 50.9333V47C29.6666 45.712 30.712 44.6667 32 44.6667C33.288 44.6667 34.3333 45.712 34.3333 47V50.96C34.3333 50.9733 34.3333 50.9867 34.3333 51C34.32 51.88 34.64 52.72 35.24 53.3733C35.8266 53.9333 36.6133 54.2533 37.4266 54.24C37.68 54.24 37.92 54.2133 38.16 54.1733L51.68 51.8133C52.9733 51.5733 54.1333 50.8667 54.96 49.84C55.8266 48.8533 56.3066 47.5867 56.3333 46.28V40.3333ZM48 49.6667H45.3333V43.84L51.7733 36.3333H45.3333V29.6667H35.96L45.3333 19.8V13.6667H48V20.8667L42.1733 27H48V33.6667H57.56L48 44.8267V49.6667Z" fill="#9FEF00"/>
</svg>
