<svg width="512" height="512" viewBox="0 0 512 512" fill="none" xmlns="http://www.w3.org/2000/svg">
<g clip-path="url(#clip0_34_1160)">
<path d="M236.96 0L237.68 47.52C237.733 50.5067 236.827 53.1733 234.96 55.52L105.84 213.6C103.44 216.533 104.133 218 107.92 218H234C235.061 218 236.078 218.421 236.828 219.172C237.579 219.922 238 220.939 238 222V326C238 328.667 239.333 330 242 330H328.16C332 330 332.693 331.493 330.24 334.48L240.48 444.64C238.716 446.816 237.731 449.519 237.68 452.32L236.72 512" stroke="#ACACAD" stroke-width="2"/>
<path d="M275.2 0L274.24 59.6C274.24 62.48 273.307 65.04 271.44 67.28L182.24 176.88C181.859 177.336 181.617 177.891 181.54 178.479C181.464 179.068 181.558 179.667 181.81 180.204C182.062 180.742 182.462 181.196 182.963 181.514C183.465 181.833 184.046 182.001 184.64 182H270C272.667 182 274 183.333 274 186V289.92C274 292.533 275.307 293.84 277.92 293.84H348" stroke="#F7BD96" stroke-width="2"/>
<path d="M348 293.84L403.52 294C404.12 294.012 404.707 294.189 405.214 294.511C405.721 294.833 406.127 295.288 406.386 295.822C406.645 296.357 406.746 296.95 406.678 297.533C406.61 298.116 406.375 298.666 406 299.12L334.08 387.44" stroke="#FCC798" stroke-width="2"/>
<path d="M334.08 387.44L276.64 456.56C274.987 458.533 274.187 460.827 274.24 463.44L274.96 512" stroke="#F7BD96" stroke-width="2"/>
<path d="M352.56 0L351.68 289.04C351.68 290.533 350.987 291.547 349.6 292.08C349.013 292.293 348.48 292.88 348 293.84" stroke="#F4842F" stroke-width="2"/>
<path d="M321.36 512L338.8 509.84C340.773 509.627 341.68 508.533 341.52 506.56L334.08 387.44" stroke="#F4842F" stroke-width="2"/>
<path d="M0 0H236.96L237.68 47.52C237.733 50.5067 236.827 53.1733 234.96 55.52L105.84 213.6C103.44 216.533 104.133 218 107.92 218H234C235.061 218 236.078 218.421 236.828 219.172C237.579 219.922 238 220.939 238 222V326C238 328.667 239.333 330 242 330H328.16C332 330 332.693 331.493 330.24 334.48L240.48 444.64C238.716 446.816 237.731 449.519 237.68 452.32L236.72 512H0V0Z" fill="#141D2B"/>
<path d="M236.96 0H275.2L274.24 59.6C274.24 62.48 273.307 65.04 271.44 67.28L182.24 176.88C181.859 177.336 181.617 177.891 181.541 178.479C181.464 179.068 181.558 179.667 181.81 180.204C182.062 180.742 182.462 181.196 182.963 181.514C183.465 181.833 184.046 182.001 184.64 182H270C272.667 182 274 183.333 274 186V289.92C274 292.533 275.307 293.84 277.92 293.84H348L403.52 294C404.12 294.012 404.707 294.189 405.214 294.511C405.721 294.833 406.127 295.288 406.386 295.823C406.645 296.357 406.746 296.95 406.678 297.533C406.61 298.116 406.375 298.666 406 299.12L334.08 387.44L276.64 456.56C274.987 458.533 274.187 460.827 274.24 463.44L274.96 512H236.72L237.68 452.32C237.731 449.519 238.716 446.816 240.48 444.64L330.24 334.48C332.693 331.493 332 330 328.16 330H242C239.333 330 238 328.667 238 326V222C238 220.939 237.579 219.922 236.828 219.172C236.078 218.421 235.061 218 234 218H107.92C104.133 218 103.44 216.533 105.84 213.6L234.96 55.52C236.827 53.1733 237.733 50.5067 237.68 47.52L236.96 0Z" fill="white"/>
<path d="M275.2 0H352.56L351.68 289.04C351.68 290.533 350.987 291.547 349.6 292.08C349.013 292.293 348.48 292.88 348 293.84H277.92C275.307 293.84 274 292.533 274 289.92V186C274 183.333 272.667 182 270 182H184.64C184.046 182.001 183.465 181.833 182.963 181.514C182.462 181.196 182.062 180.742 181.81 180.204C181.558 179.667 181.464 179.068 181.54 178.479C181.617 177.891 181.859 177.336 182.24 176.88L271.44 67.28C273.307 65.04 274.24 62.48 274.24 59.6L275.2 0Z" fill="#9FEF00"/>
<path d="M352.56 0H512V512H321.36L338.8 509.84C340.773 509.627 341.68 508.533 341.52 506.56L334.08 387.44L406 299.12C406.375 298.666 406.61 298.116 406.678 297.533C406.746 296.95 406.645 296.357 406.386 295.823C406.127 295.288 405.721 294.833 405.214 294.511C404.707 294.189 404.12 294.012 403.52 294L348 293.84C348.48 292.88 349.013 292.293 349.6 292.08C350.987 291.547 351.68 290.533 351.68 289.04L352.56 0Z" fill="#9FEF00"/>
<path d="M334.08 387.44L341.52 506.56C341.68 508.533 340.773 509.627 338.8 509.84L321.36 512H274.96L274.24 463.44C274.187 460.827 274.987 458.533 276.64 456.56L334.08 387.44Z" fill="#9FEF00"/>
</g>
<defs>
<clipPath id="clip0_34_1160">
<rect width="512" height="512" fill="white"/>
</clipPath>
</defs>
</svg>
