<svg width="512" height="512" viewBox="0 0 512 512" fill="none" xmlns="http://www.w3.org/2000/svg">
<path d="M500.459 12.442H7.36255V501.829H500.459V12.442Z" fill="#141D2B"/>
<path d="M495.285 17.5769V496.596H12.6358V17.5769H495.285ZM505.732 7.20848H2.18884V506.964H505.732V7.20848Z" fill="#A4B1CD"/>
<path d="M188.841 242.817C188.841 242.817 105.962 281.822 304.354 266.121" stroke="#9FEF00" stroke-width="25" stroke-miterlimit="10" stroke-linecap="round" stroke-linejoin="round"/>
<path d="M320.274 248.643C320.274 248.643 398.178 246.175 337.884 296.832" stroke="#9FEF00" stroke-width="25" stroke-miterlimit="10" stroke-linecap="round" stroke-linejoin="round"/>
<path d="M191.428 269.775C191.428 269.775 160.485 311.742 304.454 293.474" stroke="#9FEF00" stroke-width="25" stroke-miterlimit="10" stroke-linecap="round" stroke-linejoin="round"/>
<path d="M202.87 293.178C202.87 293.178 191.726 333.368 237.991 330.899" stroke="#9FEF00" stroke-width="25" stroke-miterlimit="10" stroke-linecap="round" stroke-linejoin="round"/>
<path d="M144.466 330.998C184.762 345.909 220.878 352.13 251.523 353.907C308.832 357.363 355.097 346.106 361.066 361.116C364.151 369.015 354.699 379.779 349.525 384.42C337.984 394.591 325.447 393.208 288.435 393.208C234.211 393.208 230.231 396.269 208.74 391.727C202.173 390.345 207.844 391.134 167.947 379.285C155.51 375.533 148.844 373.656 142.078 367.534C139.691 365.46 126.06 353.117 130.239 341.86C133.124 334.355 142.277 331.59 144.466 330.998Z" stroke="#9FEF00" stroke-width="25" stroke-miterlimit="10"/>
<path d="M279.083 71.2949C291.52 83.1444 290.226 103.387 283.46 117.903C276.098 133.9 261.87 146.935 250.627 159.475C241.673 169.745 234.111 180.113 232.42 193.444C231.425 203.714 234.509 215.267 240.678 224.253C242.767 227.413 245.354 230.474 248.438 233.535C229.335 231.264 214.909 212.7 213.516 193.642C212.819 184.557 215.108 175.077 219.187 167.079C230.927 142.787 258.189 128.765 272.417 108.522C279.58 97.4627 283.659 84.6256 279.083 71.2949Z" fill="#9FEF00"/>
<path d="M304.056 141.207C296.395 157.994 284.356 172.312 272.317 185.939C268.934 189.988 267.939 193.247 269.034 198.381C270.228 204.306 274.307 212.107 276.496 218.624C278.088 223.463 279.182 228.894 278.685 234.029C278.386 237.683 276.993 241.632 274.406 244.2C273.909 238.473 271.521 234.523 268.835 230.672C266.049 226.722 262.567 223.068 259.482 219.316C251.025 209.441 244.558 194.827 251.324 181.595C254.309 175.472 258.985 171.127 263.761 167.178C276.098 157.007 289.132 147.626 304.056 141.207Z" fill="#9FEF00"/>
<path d="M191.826 362.893V320.926H87.5553V362.893V413.945H202.273V362.893H191.826ZM118.1 341.86H171.23V355.388H118.1V341.86ZM181.777 393.208H118.2V372.471H181.777V393.208Z" fill="#A4B1CD"/>
<path d="M328.731 341.86V320.926H213.118V413.945H328.731V393.208H233.713V341.86H328.731Z" fill="#A4B1CD"/>
<path d="M336.889 321.025C348.132 321.025 359.375 320.926 370.618 320.926L395.691 367.435L421.659 320.926H453.895L396.586 413.945C376.588 382.939 356.689 352.031 336.889 321.025Z" fill="#A4B1CD"/>
</svg>
