<svg width="64" height="64" viewBox="0 0 64 64" fill="none" xmlns="http://www.w3.org/2000/svg">
<path fill-rule="evenodd" clip-rule="evenodd" d="M15.0026 46.6666H10.336C9.87865 46.6666 9.43331 46.7119 9.00264 46.7999V10.6666C9.00264 8.45859 10.7946 6.66659 13.0026 6.66659H15.0026V30.1599C15.0026 32.3679 16.2693 32.8919 17.8306 31.3319L22.336 26.8266L26.84 31.3319C28.4013 32.8919 29.6693 32.3679 29.6693 30.1599V6.66659H45.0026C47.2093 6.66659 49.0026 8.45859 49.0026 10.6666V26.6666C49.0026 28.1386 50.1973 29.3333 51.6693 29.3333C53.14 29.3333 54.336 28.1386 54.336 26.6666V7.99992C54.336 4.31992 51.348 1.33325 47.6693 1.33325H10.336C6.65598 1.33325 3.66931 4.31992 3.66931 7.99992V51.9999V53.3333V54.6666V55.9999C3.66931 59.6799 6.65598 62.6666 10.336 62.6666H31.6693C33.14 62.6666 34.336 61.4719 34.336 59.9999C34.336 58.5279 33.14 57.3333 31.6693 57.3333H11.6693C10.1973 57.3333 9.00264 56.1386 9.00264 54.6666C9.00264 53.1946 10.1973 51.9999 11.6693 51.9999H26.336C27.8066 51.9999 29.0026 50.8053 29.0026 49.3333C29.0026 47.8613 27.8066 46.6666 26.336 46.6666H19.0026V39.9999C19.0026 38.8959 18.1066 37.9999 17.0026 37.9999C15.8986 37.9999 15.0026 38.8959 15.0026 39.9999V46.6666ZM19.0026 6.66659H25.6693V24.5066L23.2786 22.1159C22.7573 21.5959 21.9133 21.5959 21.3933 22.1159L19.0026 24.5066V6.66659Z" fill="#9FEF00"/>
<path fill-rule="evenodd" clip-rule="evenodd" d="M36.0893 45.8546C36.0386 46.5199 35.4559 47.0213 34.7879 46.9733C34.1199 46.9239 33.6173 46.3413 33.6679 45.6733C33.9173 42.3213 35.4279 39.1813 37.8973 36.8906C40.3666 34.6066 43.6133 33.3333 46.9813 33.3333C50.5186 33.3333 53.9173 34.7399 56.4226 37.2359C58.9239 39.7399 60.3306 43.1333 60.3306 46.6666C60.3306 50.1999 58.9239 53.5933 56.4226 56.0973C53.9173 58.5933 50.5186 59.9999 46.9813 59.9999C46.3119 59.9999 45.7679 59.4573 45.7679 58.7879C45.7679 58.1186 46.3119 57.5759 46.9813 57.5759C49.8759 57.5759 52.6546 56.4239 54.7066 54.3813C56.7506 52.3333 57.9039 49.5573 57.9039 46.6666C57.9039 43.7759 56.7506 40.9999 54.7066 38.9519C52.6546 36.9093 49.8759 35.7573 46.9813 35.7573C44.2266 35.7573 41.5679 36.7933 39.5479 38.6666C37.5266 40.5399 36.2959 43.1093 36.0893 45.8546ZM41.9026 56.3266C42.4946 56.6386 42.7239 57.3719 42.4119 57.9639C42.0999 58.5559 41.3666 58.7839 40.7733 58.4733C38.2493 57.1453 36.2106 55.0426 34.9666 52.4786C34.6719 51.8773 34.9213 51.1506 35.5253 50.8573C36.1279 50.5653 36.8559 50.8159 37.1506 51.4186C38.1706 53.5213 39.8333 55.2359 41.9026 56.3266ZM53.1399 47.2746C53.1399 47.3119 53.1133 47.3439 53.0759 47.3506L51.8626 47.5519C51.7093 47.5786 51.5879 47.6906 51.5506 47.8386C51.4399 48.2626 51.2733 48.6706 51.0479 49.0493C50.9693 49.1826 50.9746 49.3466 51.0653 49.4733L51.7786 50.4799C51.7986 50.5079 51.7959 50.5519 51.7693 50.5773L50.9093 51.4386C50.8879 51.4586 50.8679 51.4613 50.8533 51.4613C50.8359 51.4613 50.8226 51.4559 50.8106 51.4479L49.8079 50.7333C49.6839 50.6439 49.5159 50.6386 49.3826 50.7159C49.0039 50.9413 48.5973 51.1093 48.1719 51.2186C48.0226 51.2573 47.9093 51.3813 47.8866 51.5306L47.6813 52.7453C47.6759 52.7826 47.6439 52.8079 47.6066 52.8079H46.3893C46.3519 52.8079 46.3199 52.7826 46.3146 52.7453L46.1119 51.5306C46.0866 51.3786 45.9733 51.2573 45.8266 51.2186C45.4133 51.1119 45.0146 50.9479 44.6413 50.7333C44.5799 50.6986 44.5106 50.6813 44.4453 50.6813C44.3666 50.6813 44.2853 50.7053 44.2199 50.7533L43.2079 51.4733C43.1933 51.4826 43.1786 51.4879 43.1653 51.4879C43.1533 51.4879 43.1306 51.4853 43.1093 51.4653L42.2493 50.6039C42.2226 50.5773 42.2199 50.5373 42.2399 50.5053L42.9506 49.5079C43.0399 49.3813 43.0466 49.2133 42.9679 49.0813C42.7426 48.7053 42.5693 48.2973 42.4599 47.8733C42.4186 47.7253 42.2973 47.6133 42.1479 47.5866L40.9253 47.3786C40.8879 47.3733 40.8613 47.3413 40.8613 47.3039V46.0866C40.8613 46.0493 40.8879 46.0173 40.9253 46.0119L42.1306 45.8093C42.2839 45.7839 42.4079 45.6706 42.4453 45.5213C42.5519 45.0959 42.7173 44.6853 42.9399 44.3066C43.0173 44.1746 43.0093 44.0093 42.9186 43.8853L42.1999 42.8746C42.1799 42.8452 42.1826 42.8013 42.2079 42.7759L43.0693 41.9146C43.0893 41.8946 43.1093 41.8919 43.1239 41.8919C43.1413 41.8919 43.1559 41.8973 43.1679 41.9066L44.1639 42.6173C44.2919 42.7066 44.4586 42.7119 44.5919 42.6346C44.9679 42.4093 45.3746 42.2359 45.7999 42.1253C45.9479 42.0853 46.0599 41.9639 46.0866 41.8133L46.2946 40.5906C46.2999 40.5533 46.3319 40.5279 46.3693 40.5279H47.5853C47.6239 40.5279 47.6546 40.5533 47.6613 40.5906L47.8626 41.7959C47.8893 41.9493 48.0013 42.0733 48.1519 42.1106C48.5879 42.2213 49.0039 42.3919 49.3919 42.6199C49.5253 42.6973 49.6893 42.6919 49.8159 42.6026L50.8133 41.8853C50.8279 41.8773 50.8426 41.8719 50.8573 41.8719C50.8679 41.8719 50.8919 41.8746 50.9119 41.8946L51.7733 42.7559C51.7986 42.7813 51.8013 42.8226 51.7813 42.8533L51.0679 43.8559C50.9786 43.9812 50.9719 44.1479 51.0506 44.2813C51.2759 44.6599 51.4439 45.0666 51.5533 45.4919C51.5906 45.6426 51.7146 45.7546 51.8653 45.7786L53.0786 45.9826C53.1159 45.9893 53.1426 46.0213 53.1426 46.0586V47.2746H53.1399ZM53.2066 45.2146L52.2346 45.0493C52.1346 44.7239 52.0039 44.4079 51.8453 44.1079L52.4173 43.3079C52.6599 42.9666 52.6226 42.5013 52.3253 42.2066L51.4639 41.3453C51.3013 41.1839 51.0879 41.0946 50.8599 41.0946C50.6799 41.0946 50.5106 41.1493 50.3653 41.2533L49.5626 41.8253C49.2506 41.6599 48.9239 41.5239 48.5853 41.4239L48.4239 40.4639C48.3546 40.0506 47.9986 39.7506 47.5799 39.7506H46.3639C45.9439 39.7506 45.5893 40.0506 45.5199 40.4639L45.3519 41.4466C45.0279 41.5479 44.7133 41.6813 44.4133 41.8426L43.6186 41.2706C43.4733 41.1666 43.2999 41.1119 43.1213 41.1119C42.8933 41.1119 42.6759 41.2013 42.5173 41.3626L41.6533 42.2239C41.3586 42.5186 41.3186 42.9839 41.5613 43.3253L42.1386 44.1373C41.9799 44.4399 41.8533 44.7546 41.7546 45.0813L40.7946 45.2439C40.3826 45.3133 40.0813 45.6679 40.0813 46.0866V47.3039C40.0813 47.7226 40.3826 48.0786 40.7946 48.1479L41.7773 48.3146C41.8786 48.6386 42.0119 48.9533 42.1733 49.2546L41.6039 50.0466C41.3613 50.3866 41.3986 50.8519 41.6973 51.1466L42.5573 52.0079C42.7199 52.1693 42.9333 52.2599 43.1613 52.2599C43.3413 52.2599 43.5119 52.2039 43.6559 52.0999L44.4679 51.5226C44.7599 51.6759 45.0666 51.7999 45.3813 51.8986L45.5426 52.8693C45.6119 53.2826 45.9679 53.5826 46.3866 53.5826H47.6066C48.0253 53.5826 48.3799 53.2826 48.4493 52.8693L48.6146 51.8986C48.9413 51.7973 49.2559 51.6666 49.5559 51.5079L50.3573 52.0799C50.5013 52.1839 50.6746 52.2386 50.8533 52.2386C51.0826 52.2386 51.2959 52.1493 51.4573 51.9879L52.3186 51.1266C52.6133 50.8319 52.6546 50.3666 52.4119 50.0253L51.8386 49.2226C51.9986 48.9186 52.1306 48.6039 52.2293 48.2799L53.1999 48.1186C53.6133 48.0493 53.9133 47.6933 53.9133 47.2746V46.0586C53.9199 45.6399 53.6186 45.2839 53.2066 45.2146ZM46.9986 48.8693C45.7826 48.8693 44.7946 47.8813 44.7946 46.6653C44.7946 45.4493 45.7826 44.4599 46.9986 44.4599C48.2159 44.4599 49.2039 45.4493 49.2039 46.6653C49.2039 47.8813 48.2159 48.8693 46.9986 48.8693ZM46.9986 43.6799C45.3519 43.6799 44.0146 45.0186 44.0146 46.6653C44.0146 48.3119 45.3519 49.6506 46.9986 49.6506C48.6466 49.6506 49.9839 48.3119 49.9839 46.6653C49.9839 45.0186 48.6466 43.6799 46.9986 43.6799Z" fill="#A4B1CD" stroke="#A4B1CD" stroke-width="1.33333" stroke-miterlimit="3" stroke-linecap="square"/>
</svg>
