<svg width="64" height="64" viewBox="0 0 64 64" fill="none" xmlns="http://www.w3.org/2000/svg">
<path d="M33.2197 24.612C33.2331 23.772 33.1664 22.9454 33.0331 22.1187C32.9931 18.572 34.3664 15.1454 36.8731 12.612C39.3664 10.092 42.8864 8.67871 46.4331 8.67871L46.3264 12.6654C43.8864 12.6654 41.5397 13.6254 39.8064 15.3454C38.0597 17.052 37.0731 19.3854 37.0331 21.8254C37.1664 22.7454 37.2331 23.6787 37.2197 24.6254" fill="#9FEF00"/>
<path fill-rule="evenodd" clip-rule="evenodd" d="M35.1669 47.3184L35.0069 47.305L35.3402 47.2917L35.2202 47.305L35.1669 47.3184ZM13.3135 35.345C13.2869 35.3317 13.2735 35.3184 13.2602 35.305L13.3135 35.345ZM13.1935 17.0917C13.8735 17.7717 14.5669 18.4384 15.3002 19.065C16.9135 20.4917 18.6869 21.705 20.5935 22.7184C22.6869 23.8117 24.9269 24.625 27.2335 25.145C29.9669 25.7317 32.7402 26.025 35.5402 25.9984H35.6202L35.8335 26.0117L36.3269 25.9984C38.6069 26.0117 40.8069 26.9317 42.4335 28.545C44.0469 30.1717 44.9535 32.3717 44.9535 34.665C44.9535 36.9584 44.0469 39.1584 42.4335 40.7717C40.8202 42.3984 38.6202 43.3184 36.3402 43.3317L35.9135 43.305L35.6735 43.3184L35.5802 43.3317L35.0335 43.305L34.8069 43.3317H34.7802H25.8202C24.7669 43.2917 23.7269 43.105 22.7402 42.745C21.6335 42.3584 20.5802 41.8384 19.5935 41.1984C19.2202 40.945 18.8602 40.6917 18.5135 40.3984C24.4602 41.4384 30.5669 39.6784 35.0602 35.6517C32.7135 37.0784 30.0202 37.8117 27.2735 37.745C24.5269 37.6784 21.8602 36.8384 19.5935 35.2917C18.4202 34.5317 17.3269 33.665 16.3269 32.6917C15.3535 31.785 14.5269 30.7317 13.8602 29.5984C13.8869 29.5984 13.9135 29.5984 13.9402 29.6117C17.5669 30.3717 21.3135 30.2917 24.9002 29.3584C21.9935 28.2917 19.2602 26.7717 16.8069 24.8784C16.0869 24.3184 15.4069 23.705 14.7802 23.0384C14.2335 22.4517 13.7669 21.8117 13.4069 21.105C13.1135 20.5584 12.9669 19.9717 12.9535 19.3584C12.9535 18.5984 13.0335 17.8384 13.1935 17.0917ZM19.4775 45.6864C19.2842 45.7477 19.0349 45.849 18.7535 45.9717C16.7002 46.8784 14.4735 47.3584 12.2202 47.385C8.26021 47.385 4.39354 46.265 1.04688 44.145C5.02021 49.345 10.7002 52.985 17.1002 54.3717C20.1669 55.0384 23.2869 55.3584 26.4335 55.3317C31.3269 55.3717 36.1669 54.345 40.6335 52.3317C44.6202 50.505 48.1669 47.865 51.0869 44.585C53.8202 41.505 55.9802 37.945 57.4469 34.0784C58.8602 30.4117 59.5935 26.5317 59.6202 22.6117C59.6202 22.585 59.6202 22.5717 59.6202 22.545V22.305L59.6069 22.1984L59.6202 22.065C59.6202 22.025 59.6202 21.9984 59.6202 21.9584C59.6202 21.677 59.6109 21.3957 59.5949 21.1157C60.8615 19.973 62.0175 18.6917 62.9535 17.3317C61.7909 17.833 60.4762 18.1477 59.1309 18.357C59.0095 17.9677 58.8802 17.5797 58.7015 17.2117C60.0362 16.1784 61.1575 14.9384 61.6869 13.3317C60.4655 14.0357 59.0442 14.5597 57.5722 14.949C57.2349 14.3504 56.8229 13.7917 56.3669 13.265C54.2735 10.8517 51.3802 9.26504 48.2202 8.81171L47.7802 8.74504L47.3135 8.71837L47.1269 8.69171L46.6335 8.66504H46.4735H46.4335V8.67837H46.5802L46.4735 8.66504L46.4335 8.67837L46.2069 12.665L46.4735 12.6784L46.6069 12.665H46.6602H46.7269H46.4869H46.6069L46.7935 12.6784L46.9802 12.705L47.3402 12.7317L47.6335 12.7717C47.6335 12.7717 47.6335 12.7717 47.6469 12.7717C49.8469 13.0917 51.8602 14.185 53.3269 15.865C54.7935 17.5317 55.6069 19.6784 55.6202 21.905L55.6069 22.145L55.6202 22.4117V22.6117C55.5935 26.0517 54.9535 29.4384 53.7135 32.6384C52.4202 36.0517 50.5135 39.2117 48.0869 41.9317C45.5535 44.785 42.4469 47.0917 38.9802 48.6917C35.0335 50.465 30.7535 51.3717 26.4202 51.3317C23.6069 51.3584 20.7935 51.0784 18.0469 50.4917C18.8335 50.2517 19.6069 49.9584 20.3669 49.625C21.8869 48.9664 23.3482 48.185 24.7335 47.2784C25.0642 47.3024 25.3949 47.3237 25.7269 47.3317C25.7535 47.3317 25.7669 47.3317 25.7935 47.3317H34.9669L35.1669 47.3184L35.5802 47.3317L35.8869 47.3184H35.9402L36.1802 47.3317C36.2202 47.3317 36.2469 47.3317 36.2869 47.3317C39.6469 47.3317 42.8735 45.9984 45.2469 43.625C47.6202 41.2517 48.9535 38.025 48.9535 34.665C48.9535 31.305 47.6202 28.0784 45.2469 25.705C42.8735 23.3317 39.6469 21.9984 36.2869 21.9984C36.2602 21.9984 36.2335 21.9984 36.2202 21.9984L35.8869 22.0117H35.8469L35.6869 21.9984C35.6469 21.9984 35.6069 21.9984 35.5535 21.9984C33.0469 22.025 30.5535 21.7717 28.1002 21.2384C26.1269 20.7984 24.2335 20.105 22.4469 19.185C20.8335 18.3184 19.3135 17.265 17.9402 16.065C15.8869 14.2517 14.0069 12.2517 12.3535 10.0784C10.8602 11.665 9.83354 13.6384 9.38021 15.7717C9.10021 16.9584 8.95354 18.1584 8.95354 19.385C8.96688 20.625 9.27354 21.8517 9.86021 22.945C10.1669 23.545 10.5135 24.105 10.9135 24.6384C10.4069 24.6517 9.92688 24.865 9.56688 25.225C9.22021 25.585 9.00688 26.065 8.99354 26.5717V26.5984V26.7317C8.99354 26.7584 8.99354 26.7984 8.99354 26.825C9.04688 28.5317 9.54021 30.185 10.4202 31.6384C11.2069 32.9717 12.1669 34.2117 13.2602 35.305C12.6069 35.345 11.9669 35.4784 11.3535 35.7184C11.6335 37.9317 12.5802 39.985 14.0602 41.6517C15.0335 42.7584 16.1669 43.7317 17.4069 44.5317C18.0695 44.969 18.7575 45.361 19.4775 45.6864ZM46.9535 18.665C46.9535 17.1944 48.1482 15.9984 49.6202 15.9984C51.0922 15.9984 52.2869 17.1944 52.2869 18.665C52.2869 20.137 51.0922 21.3317 49.6202 21.3317C48.1482 21.3317 46.9535 20.137 46.9535 18.665Z" fill="#9FEF00"/>
</svg>
