<svg width="65" height="64" viewBox="0 0 65 64" fill="none" xmlns="http://www.w3.org/2000/svg">
<path d="M60.3324 26.1612C60.2884 23.1386 59.0884 20.2972 56.951 18.1599C54.739 15.9479 51.7977 14.7452 48.6697 14.7786C46.271 14.8026 43.9977 15.5492 42.0897 16.9132V8.18525H37.6297C33.095 8.18525 28.615 7.45858 24.3137 6.02525C19.6737 4.47858 14.8404 3.69458 9.94836 3.69458H4.91103V7.35858L5.79636 8.66658C8.53369 12.7079 9.98036 17.4252 9.98036 22.3066C9.98036 25.6092 9.08436 28.8506 7.38969 31.6839C3.83769 37.6212 3.35236 44.9573 6.09103 51.3106L9.97103 60.3052H42.099L45.979 51.3106C46.9457 49.0679 47.5084 46.7026 47.679 44.3212L57.183 34.2546C59.2577 32.0572 60.3764 29.1826 60.3324 26.1612ZM12.1524 56.9892L9.13769 49.9959C6.81903 44.6199 7.22969 38.4119 10.2364 33.3879C12.239 30.0399 13.2977 26.2079 13.2977 22.3066C13.2977 16.8426 11.7017 11.5586 8.68036 7.01058H9.94836C14.483 7.01058 18.963 7.73858 23.2644 9.17191C27.9044 10.7186 32.7377 11.5026 37.6297 11.5026H38.7724V22.3066C38.7724 26.2079 39.831 30.0399 41.835 33.3879C44.8404 38.4119 45.251 44.6199 42.9324 49.9959L39.9177 56.9892H12.1524ZM47.511 39.6666C47.1084 36.8786 46.1617 34.1599 44.6804 31.6839C42.9857 28.8506 42.0897 25.6092 42.0897 22.3066V21.4132L42.8484 20.6226C44.3937 19.0159 46.4724 18.1172 48.703 18.0959C50.931 18.0706 53.0284 18.9292 54.6057 20.5066C56.1284 22.0292 56.9844 24.0546 57.0164 26.2079C57.047 28.3626 56.2497 30.4119 54.771 31.9772L47.511 39.6666Z" fill="#9FEF00" stroke="#9FEF00" stroke-width="1.33333"/>
<path fill-rule="evenodd" clip-rule="evenodd" d="M20.9133 33.4587C20.6173 33.2334 20.3266 33.0174 20.096 32.8841C18.1293 31.7481 15.5066 32.6081 14.9933 33.4987C14.4786 34.3894 15.0453 37.0907 17.012 38.2254C17.2426 38.3587 17.576 38.5027 17.9186 38.6467C17.548 38.6961 17.1906 38.7481 16.9346 38.8174C14.74 39.4041 13.4946 41.8667 13.76 42.8601C14.0266 43.8534 16.3373 45.3627 18.5306 44.7747C18.788 44.7067 19.124 44.5721 19.4693 44.4307C19.2426 44.7281 19.0266 45.0174 18.8933 45.2481C17.7573 47.2147 18.6186 49.8374 19.508 50.3521C20.3986 50.8654 23.1 50.2987 24.236 48.3321C24.368 48.1014 24.5106 47.7707 24.6546 47.4254C24.7053 47.7947 24.7573 48.1521 24.8266 48.4094C25.4146 50.6041 27.8773 51.8494 28.8693 51.5841C29.8626 51.3174 31.372 49.0067 30.7853 46.8134C30.712 46.5427 30.5666 46.1827 30.42 45.8227C30.7573 46.1161 31.0346 46.3227 31.2573 46.4507C33.224 47.5867 35.8466 46.7267 36.3613 45.8361C36.8746 44.9454 36.3093 42.2441 34.3413 41.1081C34.1106 40.9761 33.7786 40.8321 33.4333 40.6881C33.804 40.6387 34.1626 40.5867 34.42 40.5174C36.6133 39.9294 37.86 37.4667 37.5933 36.4747C37.328 35.4814 35.0173 33.9721 32.8226 34.5587C32.5746 34.6254 32.2533 34.7534 31.8533 34.9481C32.088 34.6374 32.32 34.3294 32.46 34.0867C33.596 32.1201 32.736 29.4974 31.8453 28.9827C30.9546 28.4694 28.2533 29.0347 27.1186 31.0027C26.9853 31.2334 26.8413 31.5654 26.6973 31.9094C26.648 31.5387 26.596 31.1814 26.528 30.9241C25.94 28.7307 23.4773 27.4841 22.484 27.7507C21.4906 28.0161 19.9813 30.3267 20.5693 32.5214C20.6373 32.7774 20.772 33.1134 20.9133 33.4587Z" fill="#9FEF00"/>
<path d="M21.2764 37.6188C22.679 35.1894 25.7897 34.3561 28.2177 35.7588C30.647 37.1614 31.4804 40.2708 30.0777 42.7001C28.6764 45.1294 25.5657 45.9628 23.1364 44.5601C20.707 43.1574 19.8737 40.0481 21.2764 37.6188Z" fill="#141D2B"/>
</svg>
