<svg width="64" height="64" viewBox="0 0 64 64" fill="none" xmlns="http://www.w3.org/2000/svg">
<g clip-path="url(#clip0_62_4874)">
<path fill-rule="evenodd" clip-rule="evenodd" d="M18.8825 35.7379L18.1385 34.4953L9.23852 19.6219L5.99985 14.2153C7.00518 12.6726 8.19985 11.1806 9.57318 9.79526L9.57852 9.80326C11.5385 7.76726 13.7639 5.99526 16.2052 4.54459L16.2972 4.48992C23.4265 0.255256 31.9398 -1.04741 40.0065 0.85259C44.2332 1.85392 48.1692 3.69526 51.6052 6.22459C54.7332 8.52859 51.1079 12.5046 48.5452 10.5979C45.6612 8.45259 42.3465 6.89126 38.7798 6.04726C32.0638 4.45659 24.9692 5.53259 19.0239 9.07392L18.9439 9.12192C16.4932 10.5753 14.2985 12.4233 12.4358 14.5779L12.4452 14.5953L19.4652 26.3259C21.6092 21.3406 26.5665 17.8459 32.3332 17.8459C33.2452 17.8459 34.1359 17.9339 34.9999 18.1006V18.0726H37.6665H54.9999L61.3025 18.0699C62.1105 19.7246 62.7759 21.5166 63.2599 23.4059H63.2505C63.9919 26.1326 64.3692 28.9539 64.3599 31.7926V31.8993C64.3332 40.1926 61.0799 48.1659 55.3065 54.1126C52.2785 57.2246 48.6759 59.6579 44.7425 61.3059C41.1585 62.8073 39.6079 57.6553 42.5599 56.4353C45.8825 55.0619 48.9239 53.0193 51.4799 50.3926C56.2932 45.4459 59.0132 38.8059 59.0265 31.8859V31.7926C59.0372 28.9433 58.5785 26.1113 57.6865 23.4059H57.6665H43.5012C45.2785 25.7526 46.3332 28.6779 46.3332 31.8459C46.3332 35.3833 45.0185 38.6166 42.8519 41.0819L41.6199 43.1979L32.9025 58.1806L29.7359 63.6286C27.8999 63.4953 26.0159 63.1699 24.1385 62.6379L24.1439 62.6299C21.4132 61.8993 18.7865 60.8073 16.3372 59.3713L16.2452 59.3179C9.08918 55.1233 3.83452 48.3019 1.59718 40.3206C0.430517 36.1379 0.138517 31.8019 0.693184 27.5726C1.19718 23.7193 6.43052 24.9713 5.99985 28.1353C5.51585 31.6979 5.75185 35.3539 6.73718 38.8846C8.59185 45.5326 12.9639 51.2233 18.9385 54.7139L19.0185 54.7606C21.4772 56.2033 24.1545 57.2313 26.9412 57.8206L26.9519 57.8033L33.9639 45.7513C33.4292 45.8139 32.8852 45.8459 32.3332 45.8459C25.9572 45.8459 20.5705 41.5739 18.8825 35.7379ZM23.9705 34.1139L24.0852 34.0459L23.8625 33.6753C23.7332 33.0779 23.6665 32.4646 23.6665 31.8459C23.6665 29.5526 24.5865 27.3393 26.1999 25.7126C27.8265 24.0993 30.0399 23.1793 32.3332 23.1793C34.6265 23.1793 36.8399 24.0993 38.4665 25.7126C40.0799 27.3393 40.9999 29.5526 40.9999 31.8459C40.9999 34.1393 40.0799 36.3526 38.4665 37.9793C36.8399 39.5926 34.6265 40.5126 32.3332 40.5126C30.0399 40.5126 27.8265 39.5926 26.1999 37.9793C25.1292 36.8993 24.3639 35.5619 23.9705 34.1139Z" fill="#9FEF00"/>
</g>
<defs>
<clipPath id="clip0_62_4874">
<rect width="64" height="64" fill="white"/>
</clipPath>
</defs>
</svg>
