<svg width="64" height="64" viewBox="0 0 64 64" fill="none" xmlns="http://www.w3.org/2000/svg">
<path fill-rule="evenodd" clip-rule="evenodd" d="M40.5172 32.1797L33.4252 35.725L33.4225 35.7263C36.2692 40.509 42.2585 42.9997 47.0185 40.341C51.7785 37.681 53.3492 31.8423 50.5025 27.1863L43.0065 30.9357C43.9772 33.8103 43.0132 37.5623 40.5625 41.045C40.5545 41.0437 40.5398 41.045 40.5398 41.045C41.9892 38.3103 41.9745 35.1303 40.5172 32.1797ZM20.9932 30.9357L13.4972 27.1863C10.6505 31.8423 12.2212 37.681 16.9812 40.341C21.7412 42.9997 27.7305 40.509 30.5772 35.7263L30.5745 35.725L23.4825 32.1797C22.0252 35.1303 22.0105 38.3103 23.4598 41.045C23.4598 41.045 23.4452 41.0437 23.4372 41.045C20.9865 37.5623 20.0225 33.8103 20.9932 30.9357ZM31.9998 33.2717C31.9518 33.2357 31.8972 33.2063 31.8438 33.1797L14.7638 24.6397C14.1372 24.3263 13.3972 24.2543 12.7145 24.4543C12.0305 24.6397 11.4478 25.081 11.0772 25.693C9.88118 27.6277 9.24118 29.8623 9.22651 32.1543C9.25585 36.5943 11.7038 40.6943 15.6038 42.829C17.3118 43.7823 19.2332 44.281 21.1972 44.2663C23.5878 44.253 25.9372 43.5543 27.9865 42.2877C29.5385 41.3357 30.9052 40.109 31.9998 38.6583C33.0945 40.109 34.4612 41.3357 36.0132 42.2877C38.0625 43.5543 40.4118 44.253 42.8025 44.2663C44.7665 44.281 46.6879 43.7823 48.3959 42.829C52.2958 40.6943 54.7439 36.5943 54.7732 32.1543C54.7585 29.8623 54.1185 27.6277 52.9225 25.693C52.5518 25.081 51.9692 24.6397 51.2852 24.4543C50.6025 24.2543 49.8625 24.3263 49.2358 24.6397L32.1558 33.1797C32.1025 33.2063 32.0478 33.2357 31.9998 33.2717ZM6.67851 34.0757C6.67851 27.3583 9.34118 20.9103 14.0945 16.1703C18.8345 11.417 25.2812 8.74101 31.9998 8.74101C38.7185 8.74101 45.1652 11.417 49.9052 16.1703C54.6585 20.9103 57.3212 27.3583 57.3212 34.0757C57.3212 40.7943 54.6585 47.2277 49.9052 51.981C45.1652 56.7343 38.7185 59.397 31.9998 59.397C25.2812 59.397 18.8345 56.7343 14.0945 51.981C9.34118 47.2277 6.67851 40.7943 6.67851 34.0757ZM53.8825 14.145C58.8318 19.5823 61.5905 26.6837 61.5905 34.0757C61.5905 41.9183 58.4732 49.4477 52.9225 54.9983C47.3852 60.549 39.8425 63.6663 31.9998 63.6663C24.1572 63.6663 16.6145 60.549 11.0772 54.9983C5.52651 49.4477 2.40918 41.9183 2.40918 34.0757C2.40918 26.9303 4.98785 20.0557 9.63051 14.693L5.32251 0.333008C8.56251 5.19434 13.4545 7.81434 17.7852 8.13834C22.0972 5.75034 26.9878 4.47034 31.9998 4.47034C36.7585 4.47034 41.4065 5.62367 45.5545 7.78501C49.9638 7.76501 55.1265 5.38501 58.6772 0.578341L53.8825 14.145Z" fill="#9FEF00"/>
</svg>
