<svg width="64" height="64" viewBox="0 0 64 64" fill="none" xmlns="http://www.w3.org/2000/svg">
<g clip-path="url(#clip0_62_4883)">
<path d="M28 52.4401L30.6667 50.6667L35.7467 52.4401L33.6533 54.0934L20.8267 64.2401L-0.119995 48.2267L3.38667 9.85338L24.2 -0.199951L37.8133 4.12005L40.3467 4.93338L38.7333 10.0134L36.1867 9.21338L24.6 5.53338L8.41334 13.3467L5.45334 45.7734L20.7733 57.4934L28 52.4401Z" fill="#9FEF00"/>
<path d="M39.0534 12L37.3067 13.3466L32.2667 12.5466L33.8667 10.4133L37.3067 5.7733L56.0001 0.546631L64.4401 19.5466L54.1334 33.28L52.5334 35.4133L49.8667 30.08L58.2934 18.8533L53.0001 6.91996L40.4934 10.4266L39.0534 12Z" fill="#141D2B"/>
<path d="M52.08 39.9999L50.56 38.7733V33.8533L53.0267 34.8666L64.72 39.7199L55.72 64.0933L36.7467 63.1066L30.12 56.5599L28.2267 54.6933L31.9734 50.8933L33.88 52.7733L39.0534 57.8933L52.08 58.5733L57.9467 42.6799L52.08 39.9999Z" fill="#141D2B"/>
<path fill-rule="evenodd" clip-rule="evenodd" d="M49.7613 21.2973C49.7613 22.328 50.5987 23.1667 51.6307 23.1667C52.6627 23.1667 53.5 22.328 53.5 21.2973V15.1733C53.5 12.5947 51.4053 10.5 48.8267 10.5H15.1733C12.5947 10.5 10.5 12.5947 10.5 15.1733V32.9347C10.5 33.9667 11.3373 34.804 12.3693 34.804C13.4013 34.804 14.2387 33.9667 14.2387 32.9347V17.044C14.2387 15.496 15.496 14.2387 17.044 14.2387H46.956C48.504 14.2387 49.7613 15.496 49.7613 17.044V21.2973ZM14.2387 42.7027C14.2387 41.672 13.4013 40.8333 12.3693 40.8333C11.3373 40.8333 10.5 41.672 10.5 42.7027V48.8267C10.5 51.4053 12.5947 53.5 15.1733 53.5H48.8267C51.4053 53.5 53.5 51.4053 53.5 48.8267V30.2987C53.5 29.2667 52.6627 28.4293 51.6307 28.4293C50.5987 28.4293 49.7613 29.2667 49.7613 30.2987V46.956C49.7613 48.504 48.504 49.7613 46.956 49.7613H17.044C15.496 49.7613 14.2387 48.504 14.2387 46.956V42.7027ZM17.1333 44.5H32.1333V47H17.1333V44.5ZM16.8333 25.6C16.7827 23.304 17.672 21.0867 19.296 19.4627C20.92 17.8387 23.1373 16.9493 25.4333 17C28.5333 17 30.4333 18 31.9333 19.6L29.6333 22.3C28.3333 21.1 27.0333 20.4 25.4333 20.4C22.6333 20.4 20.6333 22.7 20.6333 25.6C20.6333 28.4 22.6333 30.8 25.4333 30.8C27.3333 30.8 28.5333 30 29.8333 28.9L32.1333 31.2C30.4333 33 28.5333 34.2 25.3333 34.2C23.0613 34.2 20.884 33.2907 19.2867 31.6747C17.6907 30.06 16.8067 27.872 16.8333 25.6ZM34.6333 17.2H38.3333V30.7H45.5333V33.8H34.6333V17.2Z" fill="#A4B1CD"/>
</g>
<defs>
<clipPath id="clip0_62_4883">
<rect width="64" height="64" fill="white"/>
</clipPath>
</defs>
</svg>
