<svg width="64" height="65" viewBox="0 0 64 65" fill="none" xmlns="http://www.w3.org/2000/svg">
<path fill-rule="evenodd" clip-rule="evenodd" d="M14.5918 27.932C14.5918 25.6253 16.4638 23.7533 18.7705 23.7533C21.0758 23.7533 22.9478 25.6253 22.9478 27.932C22.9478 30.2373 21.0758 32.1093 18.7705 32.1093C16.4638 32.1093 14.5918 30.2373 14.5918 27.932ZM28.5185 27.932C28.5185 25.6253 30.3905 23.7533 32.6958 23.7533C35.0025 23.7533 36.8745 25.6253 36.8745 27.932C36.8745 30.2373 35.0025 32.1093 32.6958 32.1093C30.3905 32.1093 28.5185 30.2373 28.5185 27.932ZM42.4438 27.932C42.4438 25.6253 44.3158 23.7533 46.6225 23.7533C48.9278 23.7533 50.7998 25.6253 50.7998 27.932C50.7998 30.2373 48.9278 32.1093 46.6225 32.1093C44.3158 32.1093 42.4438 30.2373 42.4438 27.932ZM27.1252 9.82799C25.5892 9.82799 24.3412 8.57999 24.3412 7.04266C24.3412 5.50532 25.5892 4.25732 27.1252 4.25732H57.7625C60.8372 4.25732 63.3332 6.75332 63.3332 9.82799V43.2493C63.3332 46.324 60.8372 48.82 57.7625 48.82H48.3492L42.7718 59.9627C42.0838 61.3373 40.7772 61.4547 39.8545 60.2253L31.3038 48.82H27.1252C25.5892 48.82 24.3412 47.572 24.3412 46.0347C24.3412 44.4973 25.5892 43.2493 27.1252 43.2493H34.0892L40.5785 51.8973L44.8958 43.2493H54.9772C56.5145 43.2493 57.7625 42.0013 57.7625 40.4653V12.6133C57.7625 11.076 56.5145 9.82799 54.9772 9.82799H27.1252ZM15.9852 43.2493C17.5225 43.2493 18.7705 44.4973 18.7705 46.0347C18.7705 47.572 17.5225 48.82 15.9852 48.82H6.23717C3.1625 48.82 0.666504 46.324 0.666504 43.2493V9.82799C0.666504 6.75332 3.1625 4.25732 6.23717 4.25732H15.9852C17.5225 4.25732 18.7705 5.50532 18.7705 7.04266C18.7705 8.57999 17.5225 9.82799 15.9852 9.82799H9.0225C7.48517 9.82799 6.23717 11.076 6.23717 12.6133V40.4653C6.23717 42.0013 7.48517 43.2493 9.0225 43.2493H15.9852Z" fill="#9FEF00"/>
</svg>
