<svg width="64" height="64" viewBox="0 0 64 64" fill="none" xmlns="http://www.w3.org/2000/svg">
<path d="M29.9026 8.584L29.6893 6.81067L30.2533 5.92C31.0386 4.67467 32.2733 4.7 33.0066 5.976L33.4493 6.744L60.5426 55.7893C61.6093 57.7227 60.792 58.6787 58.7173 57.924L28.3293 46.8773C27.292 46.5027 26.7546 45.356 27.1293 44.3173C27.5053 43.28 28.652 42.7427 29.6893 43.1173L54.2093 52.0373L29.9026 8.584Z" fill="#A4B1CD"/>
<path d="M42.3426 54.9973C43.4466 54.9973 44.3426 55.8933 44.3426 56.9973C44.3426 58.1013 43.4466 58.9973 42.3426 58.9973H6.30262C2.62395 58.9973 1.89729 57.0453 4.68129 54.64L32.7026 30.4387C34.3733 28.996 36.0253 29.592 36.388 31.7693L37.6493 39.3307C37.8333 40.42 37.0986 41.4533 36.0093 41.6373C34.9213 41.8213 33.8866 41.0867 33.7026 39.9973L32.956 35.504L10.3826 54.9973H42.3426Z" fill="#9FEF00"/>
<path d="M13.4093 43.3307C12.8573 44.288 11.6333 44.616 10.676 44.064C9.71996 43.512 9.39063 42.288 9.94263 41.3307L25.916 13.384L29.6893 6.81067L31.676 11.664L29.436 15.2773L13.4093 43.3307Z" fill="#A4B1CD"/>
</svg>
