<svg width="64" height="65" viewBox="0 0 64 65" fill="none" xmlns="http://www.w3.org/2000/svg">
<g clip-path="url(#clip0_62_4807)">
<path d="M11.8427 11.7526C16.8324 6.94517 23.3757 4.07913 30.2922 3.67158C37.2087 3.26403 44.0429 5.3418 49.5617 9.53003C55.0806 13.7183 58.9207 19.7411 60.3892 26.512C61.8577 33.2829 60.8578 40.3559 57.5701 46.4549C54.2824 52.5539 48.9233 57.2773 42.4597 59.7729C35.996 62.2685 28.8535 62.3719 22.3208 60.0645C15.7881 57.7571 10.2953 53.1908 6.83355 47.1895C3.37179 41.1882 2.16896 34.1471 3.4421 27.3365" stroke="#9FEF00" stroke-width="5.89981" stroke-linecap="round" stroke-linejoin="round"/>
<path d="M19.7368 21.0925C28.3885 18.0295 37.0019 17.7713 45.8566 25.7578C38.9452 20.3238 31.4168 20.4958 25.2486 23.2209C25.2486 23.2209 25.7038 24.9742 27.8076 26.9936C38.7065 37.4552 31.1941 49.0208 31.1941 49.0208C31.1941 49.0208 35.6912 38.687 25.5736 29.179C21.1375 25.0101 19.7368 21.0925 19.7368 21.0925Z" fill="#9FEF00"/>
<path d="M31.9764 12.6583C40.0726 12.6552 51.0418 17.5296 51.0081 27.7492C50.9727 38.4919 38.4699 53.0026 31.9553 52.9954C25.9683 52.9888 13.0326 39.1561 12.9918 27.7356C12.9532 16.9222 23.8953 12.6614 31.9764 12.6583Z" stroke="#9FEF00" stroke-width="2.883"/>
</g>
<defs>
<clipPath id="clip0_62_4807">
<rect width="64" height="64" fill="white" transform="translate(0 0.666626)"/>
</clipPath>
</defs>
</svg>
