<svg width="64" height="64" viewBox="0 0 64 64" fill="none" xmlns="http://www.w3.org/2000/svg">
<path fill-rule="evenodd" clip-rule="evenodd" d="M19.1678 6.66671H25.8345V24.5067L23.4438 22.116C22.9238 21.596 22.0785 21.596 21.5585 22.116L19.1678 24.5067V6.66671ZM15.1678 46.6667H10.5011C10.0438 46.6667 9.59847 46.712 9.16781 46.8V10.6667C9.16781 8.45871 10.9598 6.66671 13.1678 6.66671H15.1678V30.16C15.1678 32.368 16.4345 32.892 17.9958 31.332L22.5011 26.8267L27.0065 31.332C28.5665 32.892 29.8345 32.368 29.8345 30.16V6.66671H45.1678C47.3758 6.66671 49.1678 8.45871 49.1678 10.6667V26.6667C49.1678 28.1387 50.3625 29.3334 51.8345 29.3334C53.3065 29.3334 54.5011 28.1387 54.5011 26.6667V8.00004C54.5011 4.32004 51.5131 1.33337 47.8345 1.33337H10.5011C6.82114 1.33337 3.83447 4.32004 3.83447 8.00004V52V53.3334V54.6667V56C3.83447 59.68 6.82114 62.6667 10.5011 62.6667H31.8345C33.3065 62.6667 34.5011 61.472 34.5011 60C34.5011 58.528 33.3065 57.3334 31.8345 57.3334H11.8345C10.3625 57.3334 9.16781 56.1387 9.16781 54.6667C9.16781 53.1947 10.3625 52 11.8345 52H26.5011C27.9731 52 29.1678 50.8054 29.1678 49.3334C29.1678 47.8614 27.9731 46.6667 26.5011 46.6667H19.1678V40C19.1678 38.896 18.2718 38 17.1678 38C16.0638 38 15.1678 38.896 15.1678 40V46.6667ZM50.8585 56.3294C49.7625 55.2507 48.7011 54.12 47.6918 52.9374C46.8571 51.9454 46.1265 50.8667 45.4838 49.736C44.8225 48.5707 44.3185 47.3187 44.0051 46.0147C43.7651 45.0827 44.3265 44.136 45.2571 43.9014C46.1878 43.6654 47.1398 44.2307 47.3798 45.1627C47.6225 46.1707 48.0051 47.128 48.5105 48.032C49.0491 48.9707 49.6585 49.876 50.3531 50.7107C51.7278 52.3107 53.2065 53.824 54.7891 55.2334C54.8065 55.2334 54.8065 55.2507 54.8238 55.2507L55.0331 55.4414C55.4158 55.8067 55.6238 56.312 55.5891 56.8334C55.5545 57.3734 55.2931 57.8427 54.8585 58.156C52.9625 59.4774 50.7185 60.2254 48.4051 60.2774C47.2918 60.26 46.1958 60.104 45.1358 59.756C43.9358 59.3734 42.7878 58.8334 41.7265 58.156C40.4385 57.216 39.2558 56.1547 38.1598 54.9894C37.1865 53.928 36.3171 52.78 35.5865 51.5454C34.2291 49.1974 33.4985 46.536 33.4985 43.8227C33.5158 41.544 33.9678 39.2827 34.8211 37.1427C35.7945 34.7254 37.0825 32.4294 38.6305 30.3254C39.0651 29.716 39.7611 29.3507 40.4918 29.3334C41.2211 29.3507 41.8998 29.6987 42.3171 30.272C43.7265 32.064 45.4131 33.612 47.3091 34.8654C49.1705 36.0654 51.1011 37.1254 53.1025 38.0654C54.1798 38.5694 55.1718 39.196 56.0931 39.9267C56.9985 40.6574 57.7638 41.5267 58.3891 42.5014C59.0158 43.544 59.4851 44.692 59.7465 45.892C60.0425 47.284 60.1811 48.6934 60.1638 50.1014C60.1638 50.9894 60.1118 51.876 60.0425 52.7454C59.9651 53.7054 59.1278 54.4187 58.1718 54.3374C57.2171 54.256 56.5038 53.4174 56.5811 52.468C56.6505 51.668 56.6851 50.8667 56.6851 50.0667C56.7025 48.9187 56.5811 47.7707 56.3371 46.64C56.1638 45.8227 55.8505 45.04 55.4158 44.3267C55.0158 43.684 54.5105 43.1094 53.9198 42.64C53.2238 42.0827 52.4411 41.6134 51.6238 41.2134C49.4838 40.2054 47.3971 39.056 45.4131 37.7694C43.6225 36.604 42.0038 35.1947 40.5785 33.612C39.5865 35.1254 38.7345 36.76 38.0558 38.448C37.3598 40.1694 36.9945 41.996 36.9771 43.84C36.9771 45.928 37.5518 47.98 38.5958 49.7894C39.1865 50.7974 39.8998 51.7547 40.6998 52.6067C41.6211 53.5814 42.6305 54.4854 43.7091 55.2854C44.4745 55.772 45.3091 56.172 46.1785 56.4507C46.8918 56.66 47.6225 56.7814 48.3705 56.7814C49.2225 56.764 50.0585 56.608 50.8585 56.3294Z" fill="#9FEF00"/>
</svg>
