<svg width="64" height="64" viewBox="0 0 64 64" fill="none" xmlns="http://www.w3.org/2000/svg">
<g clip-path="url(#clip0_11_699)">
<path fill-rule="evenodd" clip-rule="evenodd" d="M18.467 4.66699V27.0937H45.5337V4.66699H59.3337V59.3337H45.5337V36.907H18.467V59.3337H4.66699V4.66699H18.467ZM22.467 0.666992V23.0937H41.5337V0.666992H63.3337V63.3337H41.5337V40.907H22.467V63.3337H0.666992V0.666992H22.467ZM8.00033 11.3337H14.667V18.0003H8.00033V11.3337ZM8.00033 28.667H14.667V35.3337H8.00033V28.667ZM8.00033 46.0003H14.667V52.667H8.00033V46.0003ZM49.3337 11.3337H56.0003V18.0003H49.3337V11.3337ZM49.3337 28.667H56.0003V35.3337H49.3337V28.667ZM49.3337 46.0003H56.0003V52.667H49.3337V46.0003Z" fill="#9FEF00"/>
</g>
<defs>
<clipPath id="clip0_11_699">
<rect width="64" height="64" fill="white"/>
</clipPath>
</defs>
</svg>
