<svg width="48" height="48" viewBox="0 0 48 48" fill="none" xmlns="http://www.w3.org/2000/svg">
<g clip-path="url(#clip0_62_4837)">
<mask id="mask0_62_4837" style="mask-type:luminance" maskUnits="userSpaceOnUse" x="0" y="0" width="48" height="48">
<path d="M48 0H0V48H48V0Z" fill="white"/>
</mask>
<g mask="url(#mask0_62_4837)">
<path d="M40.7 13.56C40.093 12.633 40.351 11.392 41.275 10.79C42.199 10.188 43.443 10.448 44.05 11.37C46.59 15.27 47.94 19.82 47.94 24.47C47.94 30.84 45.41 36.95 40.91 41.44C36.41 45.94 30.3 48.47 23.94 48.47C17.58 48.47 11.47 45.94 6.97 41.44C2.47 36.95 -0.0599976 30.84 -0.0599976 24.47C-0.0599976 18.11 2.47 12 6.97 7.49997C11.47 2.99997 17.58 0.469971 23.94 0.469971C27.36 0.469971 30.74 1.19997 33.86 2.61997C34.864 3.07797 35.31 4.26597 34.855 5.26997C34.4 6.27397 33.214 6.71797 32.21 6.25997C29.61 5.07997 26.79 4.46997 23.94 4.46997C18.64 4.46997 13.55 6.57997 9.8 10.33C6.05 14.08 3.94 19.17 3.94 24.47C3.94 29.78 6.05 34.87 9.8 38.62C13.55 42.37 18.64 44.47 23.94 44.47C29.24 44.47 34.33 42.37 38.08 38.62C41.83 34.87 43.94 29.78 43.94 24.47C43.94 20.6 42.81 16.81 40.7 13.56Z" fill="#9FEF00"/>
<path fill-rule="evenodd" clip-rule="evenodd" d="M15.356 18.1269C14.972 18.1329 14.634 18.3809 14.514 18.7449C14.394 19.1089 14.518 19.5099 14.822 19.7429L20.787 24.4649L13.822 30.1879C13.557 30.3829 13.42 30.7069 13.464 31.0329C13.508 31.3599 13.727 31.6359 14.034 31.7529C14.342 31.8709 14.689 31.8109 14.94 31.5979L22.797 25.1699C23.013 24.9999 23.139 24.7389 23.139 24.4639C23.139 24.1889 23.013 23.9289 22.797 23.7579L15.94 18.3299C15.775 18.1959 15.568 18.1239 15.356 18.1269ZM25.238 29.0119C24.741 29.0119 24.338 29.4149 24.338 29.9119C24.338 30.4099 24.741 30.8129 25.238 30.8129H33.524C34.021 30.8129 34.424 30.4099 34.424 29.9119C34.424 29.4149 34.021 29.0119 33.524 29.0119H25.238Z" fill="#9FEF00" stroke="#9FEF00" stroke-width="2" stroke-linecap="round" stroke-linejoin="round"/>
</g>
</g>
<defs>
<clipPath id="clip0_62_4837">
<rect width="48" height="48" fill="white"/>
</clipPath>
</defs>
</svg>
