<svg width="64" height="64" viewBox="0 0 64 64" fill="none" xmlns="http://www.w3.org/2000/svg">
<path fill-rule="evenodd" clip-rule="evenodd" d="M11.8438 58.232C10.9065 57.7133 10.0238 57.1107 9.2025 56.4333C8.74517 56.056 8.31317 55.6533 7.89584 55.232C7.74917 55.084 7.61717 54.9227 7.4745 54.768C7.42117 54.7093 7.37184 54.648 7.3185 54.5893H23.1785C15.3052 48.8427 13.4158 46.2747 13.4158 46.2747C13.4158 46.2747 14.7812 45.556 16.8545 44.5987C18.9265 43.64 21.3732 43.6707 23.4772 42.0933C23.4772 42.0933 30.4745 50.2067 36.6652 54.5347C36.6918 54.5533 36.7212 54.5707 36.7478 54.5893H46.5225C43.9638 52.9947 41.4758 51.2893 39.0732 49.468C29.3665 42.092 24.1318 29.3267 24.1318 29.3267C24.1318 29.3267 32.4292 19.3307 49.6385 15.1213C52.5692 14.4 55.8572 13.9427 58.9612 13.7373V7.22533C58.9612 6.42 58.3078 5.768 57.5038 5.768H6.49584C5.69184 5.768 5.0385 6.42 5.0385 7.22533V34.1867C5.0385 35.392 4.0585 36.372 2.85317 36.372C1.6465 36.372 0.666504 35.392 0.666504 34.1867V5.768C0.666504 3.35466 2.62517 1.396 5.0385 1.396H58.9612C61.3745 1.396 63.3332 3.35466 63.3332 5.768V16.6973C63.3332 17.904 62.8678 19.0533 62.2958 19.2627C62.2958 19.2627 61.6972 19.268 60.8212 19.1587C57.7185 19.9107 53.2518 21.056 49.5905 22.5493C42.6172 25.3973 35.7652 32.2907 35.7652 32.2907C35.7652 32.2907 35.7652 35.18 42.3692 43.5587C46.8692 49.2693 52.0265 52.8067 54.9932 54.5893H56.6892C56.6185 54.6653 56.5505 54.7427 56.4785 54.82C56.2758 55.0387 56.0732 55.2573 55.8585 55.4653C55.8025 55.52 55.7545 55.58 55.6985 55.6333C55.5372 55.7867 55.3718 55.9253 55.2038 56.0613C54.2612 56.8893 53.2305 57.6187 52.1252 58.232H57.5038C58.3078 58.232 58.9612 57.58 58.9612 56.7747V31.2707L59.0412 30.9773C56.5998 32.672 54.3278 34.7013 52.5505 37.016C52.7372 40.388 54.5038 49.1813 54.5038 49.1813C47.3838 42.012 45.3412 35.4267 45.3412 35.4267C45.3412 35.4267 49.6318 28.4933 60.0745 23.748C60.3465 23.624 60.7652 23.508 61.1132 23.392L61.1158 23.3813C61.1265 23.38 61.1358 23.38 61.1465 23.3813C62.3558 23.344 63.3332 25.2347 63.3332 27.628V31.2707V58.232C63.3332 60.6453 61.3745 62.604 58.9612 62.604H5.0385C2.62517 62.604 0.666504 60.6453 0.666504 58.232V45.8453C0.666504 44.6387 1.6465 43.6587 2.85317 43.6587C4.0585 43.6587 5.0385 44.6387 5.0385 45.8453V56.7747C5.0385 57.58 5.69184 58.232 6.49584 58.232H11.8438Z" fill="#9FEF00"/>
</svg>
