<svg width="64" height="65" viewBox="0 0 64 65" fill="none" xmlns="http://www.w3.org/2000/svg">
<path fill-rule="evenodd" clip-rule="evenodd" d="M44.0129 42.5685L47.1763 52.1275L39.3388 59.336H56.4064C56.9936 59.336 57.5498 59.1052 57.96 58.7016C58.3702 58.298 58.6047 57.7506 58.6047 57.1728V19.6886C58.6047 19.1121 58.3702 18.5634 57.96 18.1598C57.5498 17.7562 56.9936 17.5253 56.4064 17.5253H35.7237L39.3026 28.3388H41.7556V25.4554H44.6858V28.3388H56.4105V31.2248H56.4038V31.2195H51.4563C50.975 34.1847 48.6977 37.4797 46.4551 40.0531C48.128 41.7942 50.4054 43.9627 53.5111 46.6957L51.6251 48.5226C48.7245 45.9043 46.4819 43.7081 44.7434 41.88C44.5263 42.1029 44.3158 42.3152 44.0129 42.5685ZM41.2114 34.1056L40.257 31.2222H44.6858V31.2248H48.7607C48.0087 33.793 46.3466 36.2701 44.726 38.155C42.6926 35.8203 42.1041 34.6174 41.9272 34.1056H41.2114ZM33.3551 52.1275H40.7958L36.4381 56.1413L33.3551 52.1275ZM41.1256 47.8024H6.59355C6.00645 47.8024 5.45017 47.5716 5.04 47.168C4.62983 46.7643 4.39526 46.2156 4.39526 45.6392V8.15494C4.39526 7.57721 4.62983 7.02981 5.04 6.62619C5.45017 6.22256 6.00645 5.99173 6.59355 5.99173H25.8153C26.6235 5.99173 27.4841 6.6064 27.7334 7.36221L39.6605 43.4338L41.1256 47.8024ZM27.8259 52.1275H6.59355C4.84966 52.1275 3.16474 51.4495 1.93423 50.2242C0.688979 49.0133 0 47.3553 0 45.6392V8.15494C0 6.43888 0.688979 4.78086 1.93423 3.56999C3.16474 2.34461 4.84966 1.66663 6.59355 1.66663H27.5444C29.161 1.66663 30.8807 2.89464 31.382 4.40889L34.2921 13.2002H34.4302H56.4064C58.1503 13.2002 59.8353 13.8782 61.0658 15.1036C62.311 16.3145 63 17.9725 63 19.6886V57.1728C63 58.8889 62.311 60.5469 61.0658 61.7578C59.8353 62.9832 58.1503 63.6611 56.4064 63.6611H38.5761C37.5949 63.7047 36.6285 63.4883 35.7639 63.0412C34.7036 62.4555 34.0468 61.3753 34.0347 60.1908L33.8297 59.927L28.2763 52.7184L27.8259 52.1275ZM18.1896 23.1603C21.1573 23.1603 23.4695 25.644 23.4695 28.4219C23.4695 31.1417 21.1305 33.9631 18.1896 33.5753H15.9283V23.1603H18.1896ZM10.6349 37.0483H18.2941C23.8824 37.0483 28.2763 33.2311 28.2763 28.4219C28.2763 23.5349 23.8824 19.6886 18.2941 19.6886H10.6349V37.0483Z" fill="#9FEF00"/>
</svg>
