<svg width="75" height="75" viewBox="0 0 75 75" fill="none" xmlns="http://www.w3.org/2000/svg">
<path fill-rule="evenodd" clip-rule="evenodd" d="M65.4598 50.6667C67.5478 46.5733 68.6665 42.008 68.6665 37.3333C68.6665 29.56 65.5732 22.0933 60.0798 16.5867C54.5732 11.0933 47.1065 8 39.3332 8C37.8318 8 36.3425 8.11467 34.8772 8.34133L32.9465 8.14667C31.9732 8.05333 30.9865 8 29.9998 8C22.2265 8 14.7598 11.0933 9.25317 16.5867C3.75984 22.0933 0.666504 29.56 0.666504 37.3333C0.666504 45.1067 3.75984 52.5733 9.25317 58.08C14.7598 63.5733 22.2265 66.6667 29.9998 66.6667C31.0532 66.6667 32.1065 66.6133 33.1598 66.4933L34.8132 66.316C36.2998 66.548 37.8105 66.6667 39.3332 66.6667C41.5625 66.6667 43.7665 66.412 45.9052 65.92H49.3332H71.3332C72.8052 65.92 73.9998 64.7253 73.9998 63.2533V53.3333C73.9998 51.8613 72.8052 50.6667 71.3332 50.6667H65.4598ZM62.9998 54.6667C62.1212 55.8707 61.1452 57.012 60.0798 58.08C58.6238 59.532 57.0318 60.816 55.3332 61.92H69.9998V54.6667H62.9998ZM22.9745 13.0107C18.8945 14.1707 15.1438 16.3627 12.0932 19.4133C7.33317 24.1733 4.6665 30.6133 4.6665 37.3333C4.6665 44.0533 7.33317 50.4933 12.0932 55.2533C15.1438 58.304 18.8945 60.496 22.9745 61.656C21.4025 60.628 19.9358 59.4253 18.5865 58.08C13.0932 52.5733 9.99984 45.1067 9.99984 37.3333C9.99984 29.56 13.0932 22.0933 18.5865 16.5867C19.9358 15.2413 21.4025 14.0387 22.9745 13.0107ZM32.6665 37.3333C32.6665 35.56 33.3732 33.8667 34.6132 32.6133C35.8665 31.3733 37.5598 30.6667 39.3332 30.6667C41.1065 30.6667 42.7998 31.3733 44.0532 32.6133C45.2932 33.8667 45.9998 35.56 45.9998 37.3333C45.9998 39.1067 45.2932 40.8 44.0532 42.0533C42.7998 43.2933 41.1065 44 39.3332 44C37.5598 44 35.8665 43.2933 34.6132 42.0533C33.3732 40.8 32.6665 39.1067 32.6665 37.3333ZM28.6665 37.3333C28.6665 31.4467 33.4465 26.6667 39.3332 26.6667C45.2198 26.6667 49.9998 31.4467 49.9998 37.3333C49.9998 43.22 45.2198 48 39.3332 48C33.4465 48 28.6665 43.22 28.6665 37.3333ZM13.9998 37.3333C13.9998 30.6133 16.6665 24.1733 21.4132 19.4133C26.1732 14.6667 32.6132 12 39.3332 12C46.0532 12 52.4932 14.6667 57.2532 19.4133C61.9998 24.1733 64.6665 30.6133 64.6665 37.3333C64.6665 44.0533 61.9998 50.4933 57.2532 55.2533C52.4932 60 46.0532 62.6667 39.3332 62.6667C32.6132 62.6667 26.1732 60 21.4132 55.2533C16.6665 50.4933 13.9998 44.0533 13.9998 37.3333Z" fill="#9FEF00"/>
</svg>
