<svg width="64" height="64" viewBox="0 0 64 64" fill="none" xmlns="http://www.w3.org/2000/svg">
<g clip-path="url(#clip0_62_4846)">
<path fill-rule="evenodd" clip-rule="evenodd" d="M27.3065 48.0001C28.7198 48.4121 29.5292 49.8934 29.1132 51.3067C28.6972 52.7201 27.2132 53.5268 25.7998 53.1068C21.2398 51.7734 17.2398 48.9867 14.3865 45.1867C11.5332 41.3867 9.99984 36.7467 9.99984 32.0001C9.99984 26.1734 12.3198 20.5734 16.4398 16.4401C20.5732 12.3201 26.1732 10.0001 31.9998 10.0001C37.6398 10.0001 43.0532 12.1601 47.1465 16.0401C51.2265 19.9201 53.6798 25.2267 53.9732 30.8534C54.0465 32.3174 52.9145 33.5694 51.4465 33.6467C49.9785 33.7241 48.7212 32.5974 48.6398 31.1334C48.4265 26.8667 46.5732 22.8401 43.4798 19.9067C40.3732 16.9734 36.2665 15.3334 31.9998 15.3334C27.5865 15.3334 23.3332 17.0934 20.2132 20.2134C17.0932 23.3334 15.3332 27.5867 15.3332 32.0001C15.3332 35.6001 16.4932 39.1067 18.6532 41.9867C20.8132 44.8801 23.8532 46.9867 27.3065 48.0001ZM9.99984 6.00008H53.9998C56.2078 6.00008 57.9998 7.79208 57.9998 10.0001V54.0001C57.9998 56.2081 56.2078 58.0001 53.9998 58.0001H9.99984C7.79184 58.0001 5.99984 56.2081 5.99984 54.0001V10.0001C5.99984 7.79208 7.79184 6.00008 9.99984 6.00008ZM7.33317 0.666748H56.6665C60.3465 0.666748 63.3332 3.65341 63.3332 7.33341V56.6667C63.3332 60.3467 60.3465 63.3334 56.6665 63.3334H7.33317C3.65317 63.3334 0.666504 60.3467 0.666504 56.6667V7.33341C0.666504 3.65341 3.65317 0.666748 7.33317 0.666748ZM46.9998 39.2668C47.6398 37.9428 49.2358 37.3894 50.5598 38.0334C51.8838 38.6774 52.4398 40.2761 51.7998 41.6001C48.7598 47.8668 42.9198 52.3334 36.0665 53.6268C34.6238 53.8988 33.2318 52.9467 32.9598 51.5001C32.6878 50.0534 33.6372 48.6588 35.0798 48.3868C40.2665 47.4001 44.6932 44.0268 46.9998 39.2668Z" fill="#9FEF00"/>
<path d="M24 32C24 27.5853 27.5853 24 32 24C36.4147 24 40 27.5853 40 32C40 36.4147 36.4147 40 32 40C27.5853 40 24 36.4147 24 32Z" fill="#A4B1CD"/>
</g>
<defs>
<clipPath id="clip0_62_4846">
<rect width="64" height="64" fill="white"/>
</clipPath>
</defs>
</svg>
