<svg width="64" height="64" viewBox="0 0 64 64" fill="none" xmlns="http://www.w3.org/2000/svg">
<g clip-path="url(#clip0_62_4793)">
<path fill-rule="evenodd" clip-rule="evenodd" d="M56.6078 40.3653C55.3425 44.104 53.2252 47.54 50.3865 50.3866C45.5065 55.2533 38.8932 58 31.9998 58C25.9132 58 20.0452 55.8586 15.4078 51.9906C22.8372 51.752 30.2132 50.6093 37.3732 48.5733C44.1012 46.632 50.5585 43.8786 56.6078 40.3653ZM17.3332 20H18.6665V22.6666H17.3332C16.5945 22.6666 15.9998 22.072 15.9998 21.3333C15.9998 20.5946 16.5945 20 17.3332 20ZM21.3332 25.3333H22.6665C23.4052 25.3333 23.9998 25.928 23.9998 26.6666C23.9998 27.4053 23.4052 28.0346 22.6665 28H21.3332V25.3333ZM38.0132 26.48L36.6532 24.1866L43.9998 19.7733L51.3465 24.1866L49.9865 26.48L43.9998 22.8933L38.0132 26.48ZM18.6665 14.6666V17.3333H17.3332C15.1172 17.3333 13.3332 19.1173 13.3332 21.3333C13.3332 23.5493 15.1172 25.3333 17.3332 25.3333H18.6665V28H13.5785C14.1278 29.552 15.5892 30.6666 17.3332 30.6666H18.6665V33.3333H21.3332V30.6666H22.6665C24.8825 30.6666 26.6665 28.8826 26.6665 26.6666C26.6665 24.4506 24.8825 22.6666 22.6665 22.6666H21.3332V20H26.4212C25.8718 18.448 24.4105 17.3333 22.6665 17.3333H21.3332V14.6666H18.6665ZM57.9678 33.2826C57.9892 32.8573 57.9998 32.4293 57.9998 32C57.9998 25.1066 55.2532 18.4933 50.3865 13.6133C45.5065 8.74663 38.8932 5.99996 31.9998 5.99996C25.1065 5.99996 18.4932 8.74663 13.6132 13.6133C8.7465 18.4933 5.99984 25.1066 5.99984 32C5.99984 37.268 7.60384 42.3733 10.5332 46.6653L10.6932 46.6666L12.3198 46.68C20.2932 46.7066 28.2398 45.6266 35.9065 43.4533C43.4398 41.2666 50.6265 38 57.2265 33.76L57.9678 33.2826ZM0.666504 32C0.666504 14.7066 14.7065 0.666626 31.9998 0.666626C49.2932 0.666626 63.3332 14.7066 63.3332 32C63.3332 49.2933 49.2932 63.3333 31.9998 63.3333C14.7065 63.3333 0.666504 49.2933 0.666504 32ZM26.6665 34.6666H37.3332V37.3333H26.6665V34.6666Z" fill="#9FEF00"/>
</g>
<defs>
<clipPath id="clip0_62_4793">
<rect width="64" height="64" fill="white"/>
</clipPath>
</defs>
</svg>
