<svg width="64" height="64" viewBox="0 0 64 64" fill="none" xmlns="http://www.w3.org/2000/svg">
<path fill-rule="evenodd" clip-rule="evenodd" d="M63.3332 44.6666V38V34V26V22V4.66663C63.3332 2.45863 61.5412 0.666626 59.3332 0.666626H4.6665C2.4585 0.666626 0.666504 2.45863 0.666504 4.66663V11.3333V15.3333V55.3333C0.666504 57.5413 2.4585 59.3333 4.6665 59.3333H14.6665H16.6665V56.6666V55.3333V54.6666V48.6666V44.6666V38V34V26V22V5.33329V4.66663H47.3332V5.33329V11.3333V15.3333V54.6666V55.3333V56.6666V59.3333H49.3332H59.3332C61.5412 59.3333 63.3332 57.5413 63.3332 55.3333V48.6666V44.6666ZM59.3332 44.6666V38H51.3332V44.6666H59.3332ZM59.3332 48.6666V55.3333H51.3332V54.6666V48.6666H59.3332ZM59.3332 34V26H51.3332V34H59.3332ZM59.3332 15.3333V22H51.3332V15.3333H59.3332ZM59.3332 11.3333V4.66663H51.3332V5.33329V11.3333H59.3332ZM4.6665 44.6666V38H12.6665V44.6666H4.6665ZM4.6665 48.6666V55.3333H12.6665V54.6666V48.6666H4.6665ZM4.6665 34V26H12.6665V34H4.6665ZM4.6665 15.3333V22H12.6665V15.3333H4.6665ZM4.6665 11.3333V4.66663H12.6665V5.33329V11.3333H4.6665ZM33.5252 19.52C33.5252 18.6786 34.2078 17.9946 35.0505 17.9946C35.8918 17.9946 36.5758 18.6786 36.5758 19.52V20.8186C36.5758 21.66 35.8918 22.344 35.0505 22.344C34.2078 22.344 33.5252 21.66 33.5252 20.8186V19.52ZM33.5252 28.7346C33.5252 27.892 34.2078 27.2093 35.0505 27.2093C35.8918 27.2093 36.5758 27.892 36.5758 28.7346V35.344H41.7812C44.5865 35.344 45.3598 37.0533 43.5065 39.16L35.3572 48.4253C33.5038 50.532 30.4958 50.532 28.6425 48.4253L20.4932 39.16C18.6398 37.0533 19.4132 35.344 22.2185 35.344H27.4238V19.52C27.4238 18.6786 28.1078 17.9946 28.9492 17.9946C29.7918 17.9946 30.4745 18.6786 30.4745 19.52V38.3933H25.5132C24.9518 38.3933 24.7772 38.752 25.1252 39.1933L31.3705 47.132C31.7185 47.5733 32.2812 47.5733 32.6292 47.132L38.8745 39.1933C39.2225 38.752 39.0478 38.3933 38.4865 38.3933H33.5252V28.7346Z" fill="#9FEF00"/>
</svg>
