<svg width="64" height="65" viewBox="0 0 64 65" fill="none" xmlns="http://www.w3.org/2000/svg">
<g clip-path="url(#clip0_62_4844)">
<path fill-rule="evenodd" clip-rule="evenodd" d="M12.0066 24.7426C11.8066 25.932 10.6786 26.7346 9.48927 26.5346C8.29993 26.3346 7.49593 25.2066 7.69593 24.0173L10.7173 6.0613C11.2506 2.8893 14.2586 0.747966 17.4306 1.2813L56.2159 7.80663C59.3879 8.33997 61.5293 11.348 60.9959 14.5186L56.0413 43.968C55.8413 45.1573 54.7133 45.96 53.5239 45.76C52.3346 45.56 51.5319 44.432 51.7319 43.2426L56.6853 13.7946C56.8186 13.0013 56.2839 12.2493 55.4906 12.116L16.7053 5.59063C15.9119 5.4573 15.1599 5.9933 15.0266 6.7853L12.0066 24.7426ZM50.0399 53.2986C50.2399 52.1093 51.3679 51.3053 52.5573 51.5066C53.7466 51.7066 54.5493 52.8346 54.3493 54.0226L53.2626 60.488C52.8626 62.8666 50.6066 64.472 48.2279 64.072L6.56927 57.064C4.1906 56.664 2.58393 54.408 2.98393 52.0293L5.7626 35.5093C5.96393 34.32 7.0906 33.5173 8.27993 33.7173C9.46927 33.9173 10.2733 35.0453 10.0733 36.2346L7.53593 51.3173C7.4026 52.1106 7.93727 52.8626 8.7306 52.996L47.5159 59.5213C48.3093 59.6546 49.0613 59.1186 49.1946 58.3266L50.0399 53.2986ZM40.7159 19.4546L45.2306 23.2466L30.7386 42.7626L19.0106 33.3346L22.7186 28.324L29.5773 33.8813L40.7159 19.4546Z" fill="#9FEF00"/>
</g>
<defs>
<clipPath id="clip0_62_4844">
<rect width="64" height="64" fill="white" transform="translate(0 0.666626)"/>
</clipPath>
</defs>
</svg>
