<svg width="64" height="64" viewBox="0 0 64 64" fill="none" xmlns="http://www.w3.org/2000/svg">
<path fill-rule="evenodd" clip-rule="evenodd" d="M24.7238 49.6245L28.1225 52.0552L28.5278 51.4885L32.5785 45.8245C33.2492 44.8871 34.5545 44.6698 35.4918 45.3405C36.4305 46.0112 36.6465 47.3178 35.9758 48.2552L31.9252 53.9192L31.5212 54.4845L34.0012 56.2592C35.2518 57.1538 36.4905 56.6511 36.7652 55.1392L39.5772 39.7018L25.9158 29.9312L12.2158 37.5818C10.8732 38.3312 10.7985 39.6645 12.0492 40.5592L14.5305 42.3338L14.9345 41.7672L18.9852 36.1031C19.6558 35.1658 20.9625 34.9485 21.8998 35.6192C22.8372 36.2898 23.0545 37.5965 22.3838 38.5338L18.3332 44.1978L17.9278 44.7631L21.3265 47.1938L21.7318 46.6272L23.3518 44.3618C24.0225 43.4245 25.3278 43.2072 26.2652 43.8778C27.2038 44.5485 27.4198 45.8552 26.7492 46.7925L25.1292 49.0578L24.7238 49.6245ZM42.5545 12.7245C43.2252 11.7872 44.5305 11.5698 45.4678 12.2405C46.4065 12.9112 46.6225 14.2178 45.9518 15.1552C45.2812 16.0925 43.9758 16.3098 43.0385 15.6392C42.0998 14.9685 41.8838 13.6632 42.5545 12.7245ZM34.6105 31.0138L36.8758 32.6338L38.0918 30.9352L53.8878 8.84582C54.7825 7.59648 55.0012 6.21782 54.3758 5.77115C53.7505 5.32448 52.5172 5.97648 51.6225 7.22582L49.5972 10.0578C48.9265 10.9952 47.6212 11.2125 46.6838 10.5418C45.7452 9.87115 45.5292 8.56582 46.1998 7.62715L49.0345 3.66315C50.8238 1.16315 54.3052 0.584484 56.8065 2.37248C59.3065 4.16182 59.8852 7.64315 58.0972 10.1445L41.4892 33.3645L40.2745 35.0645L38.5758 33.8485L41.9398 36.2551C43.1892 37.1485 43.9732 39.1018 43.6865 40.6112L40.1052 59.5471C39.5332 62.5672 37.0398 63.5685 34.5385 61.7805L6.65184 41.8352C4.1505 40.0458 4.29184 37.3632 6.96517 35.8458L23.7265 26.3365C25.0638 25.5778 27.1638 25.6885 28.4145 26.5818L31.2118 28.5832L31.6172 28.0165L38.9092 17.8218C39.5798 16.8845 40.8852 16.6672 41.8225 17.3378C42.7612 18.0085 42.9772 19.3152 42.3065 20.2525L35.0158 30.4471L34.6105 31.0138Z" fill="#9FEF00"/>
</svg>
