<svg width="64" height="64" viewBox="0 0 64 64" fill="none" xmlns="http://www.w3.org/2000/svg">
<path fill-rule="evenodd" clip-rule="evenodd" d="M27.5238 48.3955V50.7502C24.4652 51.4755 21.9785 53.0182 19.7212 55.2009C18.2318 56.6422 18.1452 59.3102 19.7212 60.7262C20.5932 61.5022 21.7065 61.8875 22.7958 61.8369C23.7185 61.7942 24.6345 61.4342 25.3665 60.7262C25.6545 60.4449 25.9505 60.1809 26.2558 59.9329C26.3865 59.8475 26.5172 59.7529 26.6478 59.6675C27.1705 59.3275 27.7078 59.0382 28.2745 58.7729C29.0412 58.4915 29.8358 58.2809 30.6372 58.1435C31.1078 58.1009 31.5292 58.0835 31.9998 58.0915C32.4705 58.0835 32.8918 58.1009 33.3625 58.1435C34.1638 58.2809 34.9585 58.4915 35.7252 58.7729C36.2918 59.0382 36.8292 59.3275 37.3518 59.6675C37.4825 59.7529 37.6132 59.8475 37.7438 59.9329C38.0492 60.1809 38.3452 60.4449 38.6332 60.7262C39.3652 61.4342 40.2812 61.7942 41.2038 61.8369C42.2932 61.8875 43.4065 61.5022 44.2785 60.7262C45.8545 59.3102 45.7678 56.6422 44.2785 55.2009C42.0212 53.0182 39.5345 51.4755 36.4758 50.7502V48.3955H46.2158C46.7545 48.3955 47.3025 48.4129 47.8492 48.4129H48.2372C48.5825 48.4129 48.9198 48.4035 49.2652 48.3862C52.3652 48.2342 55.3478 47.1169 57.7478 45.2382C58.2452 44.8569 58.7172 44.4342 59.1638 43.9769C60.0558 43.0702 60.8398 42.0382 61.4625 40.8955C62.6092 38.8209 63.2318 37.1075 63.3078 34.7369C63.3158 34.6022 63.3158 34.4662 63.3158 34.3395C63.3332 32.4262 61.7238 30.5889 59.7705 30.4449C59.6598 30.4449 59.5425 30.4369 59.4332 30.4449H59.3905C59.3492 30.4449 59.2985 30.4542 59.2558 30.4542C58.2878 30.5302 57.4025 30.9449 56.7452 31.5795C56.2492 32.0622 55.8785 32.9875 55.7012 33.6902C55.6252 33.9875 55.5825 34.2995 55.5825 34.6222C55.5825 34.9355 55.5665 35.2395 55.5412 35.5529C55.4318 36.1542 55.2718 36.1409 55.0612 36.7169C54.8505 37.1569 54.6145 37.5875 54.3452 37.9942C54.2852 38.0875 54.2265 38.1729 54.1678 38.2569C53.9745 38.4849 53.7798 38.7062 53.5692 38.9169C53.3585 39.1209 53.1398 39.3155 52.9212 39.5102C52.8278 39.5769 52.7438 39.6369 52.6518 39.6955C52.2385 39.9675 51.8092 40.2035 51.3705 40.4155C50.8065 40.6182 50.2252 40.7795 49.6278 40.8902C49.1225 40.9315 48.6158 40.9489 48.1025 40.9489H47.6985C47.0332 40.9489 46.3758 40.9315 45.7265 40.9315H18.9558C18.1385 40.9315 17.3132 40.9662 16.4785 40.9662H16.1412H16.0905C15.5012 40.9662 14.9118 40.9489 14.3305 40.8982C13.7318 40.7875 13.1505 40.6275 12.5785 40.4235C12.1398 40.2129 11.7105 39.9755 11.2972 39.7049C11.2132 39.6449 11.1292 39.5862 11.0452 39.5262C10.8265 39.3315 10.5985 39.1369 10.3878 38.9262C10.1772 38.7142 9.98384 38.4942 9.7905 38.2742C9.7305 38.1889 9.67184 38.1049 9.61317 38.0115C9.34384 37.6049 9.11584 37.1822 8.90517 36.7502C8.6945 36.1662 8.5345 35.5729 8.41717 34.9635V34.9555C8.34917 34.2782 8.32384 33.5929 8.31584 32.8982V32.8902C8.2985 31.4595 8.3745 29.7289 8.3745 28.3249V18.5475V17.5382V17.4955C8.3665 17.1649 8.3665 16.8355 8.3745 16.5049V16.4542C8.3825 16.1662 8.39184 15.8702 8.41717 15.5822C8.5345 14.9809 8.6945 14.3969 8.90517 13.8222C9.11584 13.3809 9.35184 12.9662 9.61317 12.5609C9.67184 12.4755 9.7305 12.3915 9.7905 12.3062C9.99184 12.0862 10.1852 11.8582 10.3958 11.6462C10.6065 11.4262 10.8265 11.2315 11.0532 11.0369C11.1372 10.9769 11.2225 10.9182 11.3065 10.8582C11.7105 10.5875 12.1318 10.3502 12.5692 10.1395C13.1425 9.92754 13.7318 9.7662 14.3305 9.65687C14.8692 9.6142 15.4172 9.59687 15.9652 9.59687H16.2598H16.2678C16.9252 9.59687 17.5905 9.6142 18.2385 9.6142H45.0278C45.8452 9.6142 46.6705 9.58087 47.4958 9.58087H47.8838C48.4732 9.58887 49.0625 9.6062 49.6518 9.65687C50.2505 9.7662 50.8492 9.92754 51.4212 10.1395C51.8505 10.3502 52.2812 10.5875 52.6852 10.8582C52.7785 10.9182 52.8625 10.9769 52.9465 11.0369C53.1652 11.2315 53.3932 11.4262 53.6038 11.6382C53.8145 11.8409 54.0078 12.0609 54.2012 12.2889C54.2612 12.3822 54.3198 12.4675 54.3785 12.5515C54.6478 12.9582 54.8758 13.3809 55.0865 13.8209C55.3052 14.3969 55.4572 14.9902 55.5745 15.5902C55.5998 15.8702 55.6078 15.5609 55.6172 15.8489V15.9155C55.6252 16.9409 56.0718 18.2369 56.7798 18.9649C57.3945 19.6009 58.2198 20.0315 59.1212 20.0915C59.1798 20.0995 59.2305 20.0995 59.2892 20.0995H59.4745H59.5092C61.4798 19.9902 63.1905 18.5249 63.3252 16.5102C63.3332 16.4169 63.3332 16.3155 63.3332 16.2222C63.2905 11.1182 60.6292 6.9502 56.2985 4.2742C53.8052 2.7422 50.9665 2.1582 48.0852 2.1582H19.4105H15.4678C11.6265 2.1582 7.9865 3.57154 5.18117 6.21287C2.21717 9.01554 0.666504 13.0102 0.666504 17.0649V17.7342V23.8462V31.3129V32.4729C0.674504 34.4275 0.734504 36.3662 1.3745 38.2449C2.08117 40.3529 3.25317 42.2835 4.76917 43.8835C5.22384 44.3662 5.72117 44.8235 6.2345 45.2382C7.83584 46.5329 9.7145 47.4889 11.7692 47.9715C13.4958 48.3782 15.1892 48.3955 16.9332 48.3955H27.5238ZM18.2878 22.1782H23.6212V36.7502H18.2878V22.1782ZM40.3785 27.5115H45.7118V36.7502H40.3785V27.5115ZM29.3332 14.6675H34.6665V36.7502H29.3332V14.6675Z" fill="#9FEF00"/>
</svg>
