<svg width="64" height="64" viewBox="0 0 64 64" fill="none" xmlns="http://www.w3.org/2000/svg">
<path fill-rule="evenodd" clip-rule="evenodd" d="M33.8478 42.168L28.5852 50.0613C28.2732 52.7333 27.0678 55.236 25.1465 57.1466C22.9065 59.4 19.8532 60.6666 16.6665 60.6666C13.4798 60.6666 10.4265 59.4 8.1865 57.1466C5.93317 54.9066 4.6665 51.8533 4.6665 48.6666C4.6665 45.48 5.93317 42.4266 8.1865 40.1866C10.4265 37.9333 13.4798 36.6666 16.6665 36.6666C19.8532 36.6666 22.9065 37.9333 25.1465 40.1866C26.2772 41.3106 27.1598 42.64 27.7585 44.088L32.1158 37.5533L32.0932 37.4933L32.1758 37.4627L40.9998 24.2266C41.6105 23.3066 42.8532 23.056 43.7732 23.6666C44.6932 24.2773 44.9438 25.52 44.3332 26.44L36.5758 38.0746L38.2892 42.6427C38.8078 41.752 39.4438 40.9253 40.1865 40.1866C42.4265 37.9333 45.4798 36.6666 48.6665 36.6666C51.8532 36.6666 54.9065 37.9333 57.1465 40.1866C59.3998 42.4266 60.6665 45.48 60.6665 48.6666C60.6665 51.8533 59.3998 54.9066 57.1465 57.1466C54.9065 59.4 51.8532 60.6666 48.6665 60.6666C45.4798 60.6666 42.4265 59.4 40.1865 57.1466C38.2105 55.1826 36.9932 52.5933 36.7238 49.8373L33.8478 42.168ZM8.6665 48.6666C8.6665 46.5466 9.5065 44.5066 11.0132 43.0133C12.5065 41.5066 14.5465 40.6666 16.6665 40.6666C18.7865 40.6666 20.8265 41.5066 22.3198 43.0133C23.8265 44.5066 24.6665 46.5466 24.6665 48.6666C24.6665 50.7866 23.8265 52.8267 22.3198 54.32C20.8265 55.8267 18.7865 56.6666 16.6665 56.6666C14.5465 56.6666 12.5065 55.8267 11.0132 54.32C9.5065 52.8267 8.6665 50.7866 8.6665 48.6666ZM40.6665 48.6666C40.6665 46.5466 41.5065 44.5066 43.0132 43.0133C44.5065 41.5066 46.5465 40.6666 48.6665 40.6666C50.7865 40.6666 52.8265 41.5066 54.3198 43.0133C55.8265 44.5066 56.6665 46.5466 56.6665 48.6666C56.6665 50.7866 55.8265 52.8267 54.3198 54.32C52.8265 55.8267 50.7865 56.6666 48.6665 56.6666C46.5465 56.6666 44.5065 55.8267 43.0132 54.32C41.5065 52.8267 40.6665 50.7866 40.6665 48.6666ZM33.8398 17.4933L29.9332 9.66665L29.9198 9.65331C29.6132 9.02665 29.1465 8.47998 28.5598 8.09331C28.1198 7.77331 27.5865 7.61331 27.0398 7.59998C26.7598 7.59998 26.4798 7.66665 26.2265 7.78665C25.8798 7.95998 25.5998 8.23998 25.4132 8.58665C25.1732 9.03998 25.0532 9.53332 25.0665 10.04C25.0665 10.6666 25.2132 11.2933 25.5065 11.8666C25.5065 11.8666 25.5065 11.8666 25.5065 11.88L30.8265 22.52L33.8398 17.4933ZM36.2798 13.4266L39.5332 7.54665C40.2398 6.35998 41.2265 5.37331 42.3998 4.66665C43.5332 3.97331 44.8265 3.59998 46.1465 3.58665C47.1065 3.57331 48.0398 3.78665 48.8932 4.21331C49.9732 4.75998 50.8665 5.62665 51.4398 6.70665C51.9998 7.73331 52.2798 8.89332 52.2665 10.0666C52.2665 11.32 51.9598 12.5466 51.3998 13.6666L48.4532 19.56C47.9598 20.5466 46.7598 20.9466 45.7732 20.4533C44.7865 19.96 44.3865 18.76 44.8798 17.7733L47.8265 11.88C47.8265 11.8666 47.8265 11.8666 47.8265 11.8666C48.1198 11.2933 48.2665 10.6666 48.2665 10.04C48.2798 9.53332 48.1598 9.03998 47.9198 8.58665C47.7332 8.25331 47.4532 7.97331 47.1065 7.78665C46.8265 7.65331 46.5065 7.57331 46.1865 7.58665C45.5865 7.58665 44.9998 7.75998 44.4932 8.07998C43.8665 8.45331 43.3465 8.97331 42.9732 9.59998L38.3998 17.6666L31.8798 28.5267C31.1212 29.7893 29.9718 29.744 29.3145 28.428L21.9332 13.6666C21.3732 12.5466 21.0665 11.32 21.0665 10.0666C21.0532 8.89332 21.3332 7.73331 21.8932 6.70665C22.4665 5.62665 23.3465 4.75998 24.4398 4.21331C25.2532 3.79998 26.1598 3.58665 27.0798 3.59998C28.4132 3.61331 29.7198 4.02665 30.8265 4.78665C31.9732 5.57331 32.8932 6.63998 33.5065 7.87998L36.2798 13.4266Z" fill="#9FEF00"/>
</svg>
