<svg width="64" height="64" viewBox="0 0 64 64" fill="none" xmlns="http://www.w3.org/2000/svg">
<path fill-rule="evenodd" clip-rule="evenodd" d="M53.1361 27.224C53.1548 27.228 53.1748 27.232 53.1948 27.2373C54.1415 27.488 55.0735 27.8226 55.9788 28.2266C56.7735 28.6026 57.5388 29.0333 58.2495 29.5493C59.0295 30.12 59.7388 30.7746 60.3655 31.512C60.9788 32.2506 61.5081 33.044 61.9255 33.908C62.3708 34.8413 62.7188 35.816 62.9281 36.8186C63.1788 37.96 63.3175 39.1293 63.3321 40.3133C63.3455 41.4546 63.2761 42.5973 63.1095 43.7253C62.9695 44.672 62.7335 45.6186 62.3855 46.524C62.0921 47.3173 61.7161 48.0693 61.2575 48.7933C60.8255 49.476 60.3095 50.116 59.7255 50.688C59.1268 51.272 58.4575 51.788 57.7335 52.2186C56.9535 52.6786 56.1321 53.0693 55.2828 53.3613C54.4335 53.6533 53.5428 53.8626 52.6508 54.0013C51.5935 54.1693 50.5201 54.2666 49.4481 54.28C49.4348 54.28 49.4201 54.28 49.4068 54.28H39.6588H36.8735H24.3415H14.5935C14.5801 54.28 14.5655 54.28 14.5521 54.28C13.4375 54.2666 12.3095 54.1693 11.2095 53.988C10.2775 53.8346 9.37212 53.5973 8.48012 53.2773C7.68679 52.9853 6.90679 52.6093 6.18279 52.164C5.48679 51.7453 4.84546 51.244 4.27479 50.688C3.66279 50.0746 3.11879 49.4066 2.66012 48.6826C2.18679 47.916 1.81079 47.0946 1.51746 46.2453C1.21212 45.368 0.989457 44.4773 0.864123 43.5573C0.724123 42.4853 0.65479 41.4 0.668123 40.3133C0.68279 39.144 0.821457 37.9733 1.07212 36.8186C1.28146 35.816 1.62946 34.8413 2.07479 33.9213C2.49212 33.0586 3.02146 32.2506 3.63479 31.5266C4.24679 30.788 4.95746 30.1346 5.73746 29.5626C6.46146 29.048 7.22679 28.588 8.04946 28.2266C8.95346 27.808 9.90146 27.4746 10.8761 27.224C10.8828 27.2213 10.8895 27.22 10.8975 27.2186C11.8761 22.492 14.3801 18.188 18.0335 14.9973C21.9041 11.6 26.8761 9.7333 32.0135 9.71997C32.0135 9.71997 32.0135 9.71997 32.0281 9.71997C37.2641 9.7333 42.3041 11.6693 46.2041 15.164C49.7508 18.3426 52.1841 22.5773 53.1361 27.224ZM48.2641 32.112C48.3135 32.124 48.2801 32.1133 48.2681 32.1106L48.2641 32.112ZM48.2641 32.112C48.2801 32.1253 48.2601 32.1253 49.5881 32.1946C50.3121 32.292 51.0361 32.432 51.7601 32.6266C52.4148 32.7933 53.0548 33.016 53.6681 33.3093C54.1268 33.5173 54.5735 33.768 54.9761 34.0613C55.3948 34.3666 55.7708 34.716 56.1041 35.1053C56.4255 35.4946 56.7028 35.9133 56.9121 36.3586C57.1775 36.8733 57.3575 37.4306 57.4828 37.988C57.6508 38.7813 57.7481 39.5893 57.7615 40.3973C57.7761 41.232 57.7201 42.0813 57.5948 42.904C57.5108 43.4746 57.3721 44.0453 57.1628 44.588C57.0095 45.0066 56.8148 45.4093 56.5641 45.8C56.3548 46.12 56.1041 46.4266 55.8401 46.6906C55.5481 46.984 55.2135 47.2346 54.8655 47.4426C54.4335 47.708 53.9601 47.916 53.4721 48.084C52.9295 48.2786 52.3721 48.4173 51.8015 48.5013C50.9935 48.6266 50.1868 48.696 49.3788 48.7106H39.6588H27.1268H24.3415H14.6215C13.7721 48.696 12.9361 48.6266 12.1015 48.488C11.5161 48.3893 10.9455 48.2373 10.3881 48.0413C9.92812 47.8746 9.49746 47.6653 9.07879 47.4146C8.74546 47.2066 8.43879 46.9693 8.16012 46.6906C7.86812 46.412 7.61746 46.092 7.40812 45.744C7.14412 45.3266 6.93479 44.8813 6.78146 44.4213C6.58679 43.892 6.46146 43.3493 6.39212 42.792C6.28012 41.9986 6.22412 41.204 6.23879 40.3973C6.25212 39.5893 6.34946 38.7813 6.51746 38.0013C6.64279 37.4306 6.82279 36.888 7.07346 36.3586C7.29746 35.9133 7.57479 35.4946 7.89612 35.1186C8.21612 34.7293 8.59212 34.3666 9.00946 34.0746C9.42812 33.768 9.87346 33.504 10.3468 33.2946C10.9735 33.016 11.6281 32.78 12.2961 32.6133C13.0068 32.4173 15.0388 31.7773 15.7775 31.6933C15.7415 31.6933 15.7081 31.6866 15.6748 31.676L15.7775 31.6933L16.2508 28.9506C16.8908 25.1626 18.8135 21.7093 21.6961 19.1893C24.5508 16.6826 28.2268 15.304 32.0135 15.2893C32.0281 15.2893 32.0281 15.2893 32.0281 15.2893H32.0135C35.8855 15.304 39.6175 16.7386 42.4855 19.3146C45.3961 21.932 47.3041 25.4826 47.8615 29.3546L48.2641 32.112Z" fill="#9FEF00"/>
<path d="M26.6665 34.6666C26.6665 34.6666 28.7745 36.6666 31.9998 36.6666C35.2252 36.6666 37.3332 34.6666 37.3332 34.6666" stroke="#9FEF00" stroke-width="2.66667"/>
<path d="M27.3333 33.6L27.1173 34.9373L26.2666 35.6" stroke="#9FEF00" stroke-width="2.66667" stroke-linecap="round" stroke-linejoin="round"/>
<path d="M37.0454 33.6L37.2614 34.9373L38.1121 35.6" stroke="#9FEF00" stroke-width="2.66667" stroke-linecap="round" stroke-linejoin="round"/>
</svg>
