<svg width="64" height="65" viewBox="0 0 64 65" fill="none" xmlns="http://www.w3.org/2000/svg">
<path fill-rule="evenodd" clip-rule="evenodd" d="M10.9787 36.0013C10.7733 34.8093 10.6667 33.5839 10.6667 32.3333C10.6667 20.4733 20.2813 10.8586 32.1413 10.8586C37.8427 10.8639 43.308 13.1359 47.3333 17.1746H37.4827L29.6147 32.2119L37.4827 47.4919H47.3307C43.3067 51.5293 37.8413 53.8013 32.1413 53.8079C26.1973 53.8079 20.8187 51.3933 16.9307 47.4919H29.628C31.5173 47.4906 32.7293 45.3613 31.8467 43.5919L25.8227 32.3333L31.348 21.0853C32.2387 19.3146 31.028 17.1759 29.1333 17.1746H21.9307C21.0027 17.1759 20.1493 17.7186 19.7133 18.5879L10.9787 36.0013ZM33.3333 32.3333L38 28.9999L42.6667 25.6666V32.3333V38.9999L38 35.6666L33.3333 32.3333ZM42.6667 32.3333L47.3333 28.9999L52 25.6666V32.3333V38.9999L47.3333 35.6666L42.6667 32.3333ZM7.36 33.4133L8 40.3333L5.33333 45.6666C3.34667 41.3293 2.25867 37.2946 2.02667 33.5199L2 32.3866C2 32.3733 2 32.3466 2 32.3333C2 24.3733 5.16 16.7466 10.7867 11.1199C16.4133 5.49325 24.04 2.33325 32 2.33325C39.96 2.33325 47.5867 5.49325 53.2133 11.1199C58.84 16.7466 62 24.3733 62 32.3333C62 40.2933 58.84 47.9199 53.2133 53.5466C47.5867 59.1733 39.9467 62.3333 32 62.3333C23.6667 62.3333 15.7067 58.8533 10.0267 52.7599C8.616 51.3346 7.06533 49.4279 5.33333 46.9999L12.12 47.1733L13.9333 49.1199C18.6 54.1466 25.1467 56.9999 32 56.9999C38.5333 56.9999 44.8133 54.3999 49.44 49.7733C54.0667 45.1466 56.6667 38.8666 56.6667 32.3333C56.6667 25.7999 54.0667 19.5199 49.44 14.8933C44.8133 10.2666 38.5333 7.66659 32 7.66659C25.4667 7.66659 19.1867 10.2666 14.5733 14.8799C9.94667 19.5066 7.34667 25.7733 7.33333 32.3066L7.36 33.4133Z" fill="#9FEF00"/>
</svg>
