<svg width="72" height="72" viewBox="0 0 72 72" fill="none" xmlns="http://www.w3.org/2000/svg">
<g clip-path="url(#clip0_62_4744)">
<path d="M45.1866 66.0533L47.8 66.5733L46.76 71.8L44.1466 71.28L1.30664 62.72L7.43997 41.2667L8.17331 38.7067L13.2933 40.1733L12.56 42.7333L8.02664 58.6133L45.1866 66.0533Z" fill="#141D2B"/>
<path d="M46.12 57.2133L46.9067 54.6667L53.3333 53.3333L51.2133 58.7867L46.9067 72L31.08 58.8L26.36 54.6667L32.1467 52.9333L34.28 54.5334L44.5733 62.2533L46.12 57.2133Z" fill="#141D2B"/>
<path d="M36.0133 12.0799L34.3453 13.0933L30.6 9.58661L32.68 7.91994L42.52 0.0266113L60.8133 10.4533L65.3333 13.0933L60.08 16.3599L57.8533 14.8799L42.8 6.63994L36.0133 12.0799Z" fill="#141D2B"/>
<path d="M61.4 16.9467L60.8134 14.3467L66.0134 13.1733L66.6 15.7733L72.3734 41.2L64.6667 45.64L62.36 46.9733L59.6934 42.36L62 41.0267L66.2934 38.5467L61.4 16.9467Z" fill="#141D2B"/>
<path d="M17.0933 41.32L19.0933 43.08L17.0933 47.96L13.5733 45.3467L2 35.2133V2.88L66.2533 13.0933L61.6267 56.24L54.4933 53.8667L51.96 53.0133L53.6533 47.96L56.1733 48.8L57.04 49.0933L60.4133 17.5733L7.33333 9.12001V32.7867L17.0933 41.32Z" fill="#9FEF00"/>
<path fill-rule="evenodd" clip-rule="evenodd" d="M51.304 46.2907C51.304 45.364 52.0573 44.6107 52.9853 44.6107C53.9133 44.6107 54.6667 45.364 54.6667 46.2907V51.7974C54.6667 54.1174 52.784 56 50.464 56H20.2027C17.8827 56 16 54.1174 16 51.7974V35.8267C16 34.8987 16.7533 34.1454 17.6813 34.1454C18.6093 34.1454 19.3627 34.8987 19.3627 35.8267V50.116C19.3627 51.508 20.492 52.6374 21.884 52.6374H48.7827C50.1747 52.6374 51.304 51.508 51.304 50.116V46.2907ZM19.3627 27.0427C19.3627 27.9694 18.6093 28.7227 17.6813 28.7227C16.7533 28.7227 16 27.9694 16 27.0427V21.536C16 19.216 17.8827 17.3334 20.2027 17.3334H50.464C52.784 17.3334 54.6667 19.216 54.6667 21.536V38.196C54.6667 39.124 53.9133 39.8774 52.9853 39.8774C52.0573 39.8774 51.304 39.124 51.304 38.196V23.2174C51.304 21.8254 50.1747 20.696 48.7827 20.696H21.884C20.492 20.696 19.3627 21.8254 19.3627 23.2174V27.0427ZM22 45.3334H34V48.6667H22V45.3334ZM30.5187 31.7227C30.5187 28.648 29.1609 27.1107 26.4453 27.1107H24.8293V36.4334H26.132C29.0564 36.4334 30.5187 34.8632 30.5187 31.7227ZM40.78 33.4267V30.9H46.46V38.324C45.5391 38.6245 44.6724 38.8352 43.86 38.956C43.0467 39.076 42.216 39.136 41.368 39.136C39.2062 39.136 37.556 38.5014 36.4173 37.232C35.2778 35.9618 34.708 34.1387 34.708 31.7627C34.708 29.4516 35.3689 27.6494 36.6907 26.356C38.0133 25.0636 39.8467 24.4174 42.1907 24.4174C43.6591 24.4174 45.0756 24.7112 46.44 25.2987L45.432 27.728C44.3876 27.2054 43.3004 26.944 42.1707 26.944C40.8587 26.944 39.8076 27.3849 39.0173 28.2667C38.2271 29.1476 37.832 30.3325 37.832 31.8214C37.832 33.3752 38.1502 34.5618 38.7867 35.3814C39.4231 36.2 40.3489 36.6094 41.564 36.6094C42.1969 36.6094 42.8396 36.5445 43.492 36.4147V33.4267H40.78ZM33.672 31.6454C33.672 34.0018 33.0013 35.8067 31.66 37.06C30.3187 38.3134 28.3813 38.94 25.848 38.94H21.7933V24.6227H26.288C28.6258 24.6227 30.4409 25.2396 31.7333 26.4734C33.0258 27.708 33.672 29.432 33.672 31.6454Z" fill="#A4B1CD"/>
</g>
<defs>
<clipPath id="clip0_62_4744">
<rect width="72" height="72" fill="white"/>
</clipPath>
</defs>
</svg>
