<svg width="64" height="64" viewBox="0 0 64 64" fill="none" xmlns="http://www.w3.org/2000/svg">
<path fill-rule="evenodd" clip-rule="evenodd" d="M7.78808 14.508C7.51742 13.824 7.37608 13.0933 7.37608 12.3627C7.34675 10.4493 8.26142 8.65068 9.83075 7.55202L11.4441 6.45202C12.3574 5.82402 13.4427 5.49601 14.5561 5.51068C16.1014 5.48401 17.5761 6.10802 18.6467 7.20802C14.9441 8.56935 11.5414 10.724 8.70408 13.5613C8.39208 13.872 8.08942 14.1893 7.78808 14.508ZM4.94141 18.256L4.39208 17.272L4.30675 17.116C4.30675 17.116 4.30675 17.116 4.30675 17.1013C3.50808 15.66 3.09341 14.032 3.09341 12.376C3.06541 9.06401 4.66408 5.93868 7.37608 4.04001C7.37608 4.04001 7.39075 4.04002 7.39075 4.02535L9.03208 2.91202C10.6587 1.79868 12.5867 1.21335 14.5414 1.22801C17.5254 1.19868 20.3654 2.52668 22.2641 4.82535C22.2641 4.83868 22.2787 4.83868 22.2787 4.83868L22.4507 5.05335L23.1867 5.96935C24.7987 5.67602 26.4441 5.52402 28.1027 5.52402H35.8974C37.2934 5.52402 38.6814 5.63202 40.0467 5.84135L40.6788 5.05335L40.8507 4.83868C40.8654 4.83868 40.8654 4.83868 40.8654 4.82535C42.7627 2.52668 45.6041 1.19868 48.5881 1.22801C50.5574 1.21335 52.4708 1.79868 54.0974 2.91202C54.0974 2.91202 54.0974 2.91202 54.1121 2.91202L55.7388 4.02535C55.7388 4.04002 55.7534 4.04001 55.7534 4.04001C58.4654 5.93868 60.0641 9.06401 60.0361 12.376C60.0361 14.032 59.6214 15.66 58.8374 17.1013C58.8227 17.116 58.8228 17.116 58.8228 17.116L58.7374 17.272L58.5881 17.54C61.6614 22.0613 63.3334 27.4307 63.3334 32.9747V50.4907C63.3334 51.672 62.3734 52.632 61.1921 52.632C60.0108 52.632 59.0507 51.672 59.0507 50.4907V32.9747C59.0507 26.8374 56.6094 20.9267 52.2707 16.588C47.9307 12.248 42.0347 9.80668 35.8974 9.80668H28.1027C21.9654 9.80668 16.0694 12.248 11.7294 16.588C7.39075 20.9267 4.94941 26.8374 4.94941 32.9747V50.4907C4.94941 51.672 3.98941 52.632 2.80808 52.632C1.62675 52.632 0.666748 51.672 0.666748 50.4907V32.9747C0.666748 27.7214 2.16808 22.624 4.94141 18.256ZM44.7121 6.99068C45.7574 6.02535 47.1347 5.48535 48.5734 5.51068C49.6867 5.49601 50.7721 5.82402 51.6854 6.45202L53.3121 7.55202C54.8681 8.65068 55.7814 10.4493 55.7534 12.3627C55.7614 12.8533 55.6961 13.344 55.5414 13.8133C55.4614 13.728 55.3801 13.644 55.2961 13.5613C52.2961 10.5613 48.6641 8.32402 44.7121 6.99068ZM37.7094 45.5213V51.9173H33.4281V47.6347V46.208H30.5721V47.6347V51.9173H26.2907V45.5213C26.4467 45.5347 26.6054 45.5427 26.7654 45.5427C29.4307 45.5427 31.9654 43.216 31.9654 43.216H32.0387C32.0387 43.216 34.5707 45.5387 37.2347 45.5427C37.3947 45.5427 37.5534 45.5347 37.7094 45.5213ZM17.0121 24.796C17.0121 24.224 17.2401 23.6827 17.6401 23.2827C18.0387 22.8827 18.5814 22.6547 19.1521 22.6547C19.7241 22.6547 20.2667 22.8827 20.6654 23.2827C21.0654 23.6827 21.2934 24.224 21.2934 24.796C21.2934 25.3667 21.0654 25.9094 20.6654 26.308C20.2667 26.708 19.7241 26.9373 19.1521 26.9373C18.5814 26.9373 18.0387 26.708 17.6401 26.308C17.2401 25.9094 17.0121 25.3667 17.0121 24.796ZM42.7067 24.796C42.7067 24.224 42.9347 23.6827 43.3347 23.2827C43.7334 22.8827 44.2761 22.6547 44.8481 22.6547C45.4188 22.6547 45.9614 22.8827 46.3601 23.2827C46.7601 23.6827 46.9881 24.224 46.9881 24.796C46.9881 25.3667 46.7601 25.9094 46.3601 26.308C45.9614 26.708 45.4188 26.9373 44.8481 26.9373C44.2761 26.9373 43.7334 26.708 43.3347 26.308C42.9347 25.9094 42.7067 25.3667 42.7067 24.796ZM40.5654 44.3453V44.78V54.7734H33.4281H30.5721H23.4347V44.78V44.3453C22.2721 43.3853 21.5321 41.9334 21.5321 40.308C21.5321 37.4174 23.0441 32.58 25.9334 32.668L38.1601 33.0387C41.0494 33.1253 42.4681 37.4174 42.4681 40.308C42.4681 41.9334 41.7281 43.3853 40.5654 44.3453ZM12.7294 24.796C12.7294 23.0973 13.4001 21.4547 14.6134 20.256C15.8121 19.0427 17.4534 18.372 19.1521 18.372C20.8507 18.372 22.4934 19.0427 23.6921 20.256C24.9054 21.4547 25.5761 23.0973 25.5761 24.796C25.5761 26.4947 24.9054 28.136 23.6921 29.3347C22.4934 30.548 20.8507 31.2187 19.1521 31.2187C17.4534 31.2187 15.8121 30.548 14.6134 29.3347C13.4001 28.136 12.7294 26.4947 12.7294 24.796ZM38.4241 24.796C38.4241 23.0973 39.0948 21.4547 40.3081 20.256C41.5068 19.0427 43.1494 18.372 44.8481 18.372C46.5468 18.372 48.1881 19.0427 49.3868 20.256C50.6001 21.4547 51.2707 23.0973 51.2707 24.796C51.2707 26.4947 50.6001 28.136 49.3868 29.3347C48.1881 30.548 46.5468 31.2187 44.8481 31.2187C43.1494 31.2187 41.5068 30.548 40.3081 29.3347C39.0948 28.136 38.4241 26.4947 38.4241 24.796Z" fill="#9FEF00"/>
<path d="M38.0839 33.8841C38.7013 36.5907 34.6666 39.6414 32.0639 39.6414C29.4626 39.6414 25.2959 36.6227 25.9146 33.8841C26.3879 31.7841 29.4626 31.9214 32.0639 31.9214C34.6653 31.9214 37.6146 31.8267 38.0839 33.8841Z" fill="#141D2B"/>
</svg>
