<svg width="64" height="65" viewBox="0 0 64 65" fill="none" xmlns="http://www.w3.org/2000/svg">
<g clip-path="url(#clip0_62_4754)">
<path fill-rule="evenodd" clip-rule="evenodd" d="M31.5172 34.3213C32.4466 33.7266 33.6865 33.9986 34.2839 34.928C34.8799 35.8573 34.6106 37.0933 33.6812 37.6866C32.1426 38.6853 30.4399 39.408 28.6666 39.8466C24.3812 40.9053 19.8306 40.2173 16.0532 37.9373C12.2745 35.6573 9.54655 31.9506 8.48655 27.6666C7.42788 23.3813 8.11588 18.8306 10.3959 15.0533C12.6759 11.2746 16.3826 8.54663 20.6666 7.48663C24.9519 6.42796 29.5025 7.11596 33.2799 9.39596C37.0585 11.676 39.7866 15.3826 40.8466 19.6666C41.1572 20.9226 41.3252 22.2133 41.3305 23.5173C41.3452 24.62 40.4612 25.524 39.3572 25.536C38.2532 25.5466 37.3452 24.6613 37.3305 23.5573C37.3199 22.572 37.1999 21.5853 36.9626 20.6266C36.1572 17.3653 34.0879 14.5533 31.2145 12.8186C28.3412 11.084 24.8892 10.564 21.6265 11.3706C18.3652 12.176 15.5532 14.2453 13.8186 17.1186C12.0839 19.992 11.5639 23.444 12.3705 26.7066C13.1759 29.968 15.2452 32.78 18.1185 34.5146C20.9919 36.2493 24.4439 36.7693 27.7066 35.9626C29.0519 35.6306 30.3439 35.0773 31.5172 34.3213ZM36.1679 28.968C36.6266 27.968 37.8132 27.5333 38.8199 27.9973C39.8252 28.4613 40.2639 29.6506 39.7986 30.6533C39.5026 31.2893 39.1746 31.9066 38.7972 32.4933C38.2119 33.4346 36.9746 33.7213 36.0372 33.1346C35.0999 32.548 34.8172 31.3133 35.4039 30.38C35.6906 29.924 35.9465 29.4626 36.1679 28.968ZM29.9066 18.24C30.9226 17.4453 32.3892 17.624 33.1799 18.64C33.9706 19.656 33.7826 21.1253 32.7599 21.92L23.8252 28.8693C22.6625 29.7733 20.9732 29.5746 20.0519 28.4253L16.1732 23.5866C15.3706 22.5786 15.5359 21.1093 16.5399 20.3066C17.5439 19.504 19.0172 19.6653 19.8266 20.6666L22.4932 24L29.9066 18.24ZM12.5332 9.91996C11.5692 10.7733 10.0932 10.684 9.23988 9.71996C8.38655 8.75596 8.47588 7.27996 9.43988 6.42663C13.6399 2.71996 19.0666 0.666626 24.6666 0.666626C30.7599 0.666626 36.6132 3.09329 40.9332 7.39996C45.2399 11.72 47.6666 17.5733 47.6666 23.6666C47.6666 29.76 45.2399 35.6133 40.9332 39.9333C36.6132 44.24 30.7599 46.6666 24.6666 46.6666C18.5999 46.6666 12.7732 44.2666 8.46655 40C4.15988 35.7333 1.71988 29.92 1.66655 23.8533C1.65855 22.5653 2.69855 21.5106 3.98655 21.5C5.27455 21.4893 6.32522 22.5253 6.33322 23.8133C6.37322 28.6533 8.31988 33.28 11.7599 36.68C15.1865 40.0933 19.8266 42 24.6666 42C29.5332 42 34.1999 40.0666 37.6265 36.6266C41.0665 33.2 42.9999 28.5333 42.9999 23.6666C42.9999 18.8 41.0665 14.1333 37.6265 10.7066C34.1999 7.26663 29.5332 5.33329 24.6666 5.33329C20.1999 5.33329 15.8799 6.97329 12.5332 9.91996ZM7.51988 17.1733C7.06388 18.38 5.71322 18.9893 4.50655 18.5333C3.29988 18.0773 2.69055 16.7266 3.14655 15.52C3.47988 14.68 3.85322 13.84 4.26655 13.04C4.86255 11.892 6.27588 11.4466 7.41988 12.0466C8.56388 12.6466 9.00388 14.06 8.39988 15.2C8.06655 15.84 7.77322 16.5066 7.51988 17.1733ZM45.2399 41.1066C44.3719 40.1506 44.4399 38.672 45.3932 37.8066C46.3465 36.9426 47.8252 37.0106 48.6932 37.96L58.3866 48.6533C59.4399 49.8 60.0132 51.2933 60.0132 52.84C60.0132 54.6533 59.2266 56.3866 57.8532 57.56L56.2532 58.9466C55.0799 59.96 53.5866 60.5066 52.0532 60.5066C50.2399 60.5066 48.5066 59.7466 47.2932 58.4133C47.2932 58.4133 47.2932 58.4133 47.2799 58.4133L37.5866 47.72C36.7186 46.764 36.7866 45.2853 37.7399 44.42C38.6932 43.5546 40.1719 43.6306 41.0399 44.5866L50.7332 55.2666C51.0799 55.64 51.5466 55.84 52.0532 55.84C52.4666 55.84 52.8799 55.6933 53.1999 55.4133L54.7999 54.0266C55.1465 53.7333 55.3465 53.3066 55.3465 52.84C55.3465 52.4533 55.1999 52.08 54.9466 51.7866C54.9332 51.7866 54.9332 51.7866 54.9332 51.7866L45.2399 41.1066Z" fill="#9FEF00"/>
</g>
<defs>
<clipPath id="clip0_62_4754">
<rect width="64" height="64" fill="white" transform="translate(0 0.333252)"/>
</clipPath>
</defs>
</svg>
