<svg width="64" height="65" viewBox="0 0 64 65" fill="none" xmlns="http://www.w3.org/2000/svg">
<g clip-path="url(#clip0_62_4756)">
<path d="M17.156 41.5705L19.1467 43.5465L15.18 47.5132L13.204 45.5225L0 32.3332L13.204 19.1439L15.18 17.1532L19.1467 21.1199L17.156 23.0959L7.93333 32.3332L17.156 41.5705Z" fill="#9FEF00"/>
<path d="M30.0238 2.32392L31.9998 0.333252L35.9665 4.29992L33.9758 6.27592L22.7625 17.4893L20.7865 19.4799L16.8198 15.5133L18.8105 13.5373L30.0238 2.32392Z" fill="#9FEF00"/>
<path d="M38.4335 10.7332L40.4095 8.74255L44.3775 12.7106L42.3868 14.6866L31.1735 25.8999L29.1975 27.8906L25.2295 23.9239L27.2202 21.9466L38.4335 10.7332Z" fill="#9FEF00"/>
<path d="M40.9855 35.7119L39.0082 37.7012L35.0415 33.7346L37.0322 31.7586L50.2215 18.5546L62.0095 30.3572L64.0002 32.3332L60.0335 36.2999L58.0575 34.3092L50.2215 26.4879L40.9855 35.7119Z" fill="#9FEF00"/>
<path d="M41.2372 47.1772L43.2132 45.1865L47.1799 49.1532L45.1892 51.1292L33.9759 62.3425L31.9999 64.3332L28.0332 60.3665L30.0239 58.3905L41.2372 47.1772Z" fill="#9FEF00"/>
<path d="M21.6132 31.5066L19.6225 29.5306L23.5905 25.5626L25.5665 27.5533L37.3679 39.3413L24.1652 52.5306L22.1879 54.5213L18.2212 50.5546L20.2119 48.5786L29.4345 39.3413L21.6132 31.5066Z" fill="#9FEF00"/>
<path d="M51.0482 37.3653L53.0255 35.3746L56.9922 39.3413L55.0015 41.3186L50.7962 45.5226L48.8202 47.5133L44.8535 43.5466L46.8442 41.5706L51.0482 37.3653Z" fill="#9FEF00"/>
</g>
<defs>
<clipPath id="clip0_62_4756">
<rect width="64" height="64" fill="white" transform="translate(0 0.333252)"/>
</clipPath>
</defs>
</svg>
