<svg width="64" height="65" viewBox="0 0 64 65" fill="none" xmlns="http://www.w3.org/2000/svg">
<path fill-rule="evenodd" clip-rule="evenodd" d="M7.99984 24.8132C7.99984 26.2852 6.80517 27.4799 5.33317 27.4799C3.86117 27.4799 2.6665 26.2852 2.6665 24.8132V9.66654C2.6665 5.98654 5.65317 2.99988 9.33317 2.99988H24.4798C25.9518 2.99988 27.1465 4.19454 27.1465 5.66654C27.1465 7.13854 25.9518 8.33321 24.4798 8.33321H11.9998C9.79184 8.33321 7.99984 10.1252 7.99984 12.3332V24.8132ZM39.5198 8.33321C38.0478 8.33321 36.8532 7.13854 36.8532 5.66654C36.8532 4.19454 38.0478 2.99988 39.5198 2.99988H54.6665C58.3465 2.99988 61.3332 5.98654 61.3332 9.66654V24.8132C61.3332 26.2852 60.1385 27.4799 58.6665 27.4799C57.1945 27.4799 55.9998 26.2852 55.9998 24.8132V12.3332C55.9998 10.1252 54.2078 8.33321 51.9998 8.33321H39.5198ZM55.9998 39.8532C55.9998 38.3812 57.1945 37.1865 58.6665 37.1865C60.1385 37.1865 61.3332 38.3812 61.3332 39.8532V54.9999C61.3332 58.6799 58.3465 61.6665 54.6665 61.6665H39.9998C38.5278 61.6665 37.3332 60.4719 37.3332 58.9999C37.3332 57.5279 38.5278 56.3332 39.9998 56.3332H51.9998C54.2078 56.3332 55.9998 54.5412 55.9998 52.3332V39.8532ZM24.4798 56.3332C25.9518 56.3332 27.1465 57.5279 27.1465 58.9999C27.1465 60.4719 25.9518 61.6665 24.4798 61.6665H9.33317C5.65317 61.6665 2.6665 58.6799 2.6665 54.9999V39.8532C2.6665 38.3812 3.86117 37.1865 5.33317 37.1865C6.80517 37.1865 7.99984 38.3812 7.99984 39.8532V52.3332C7.99984 54.5412 9.79184 56.3332 11.9998 56.3332H24.4798ZM18.3972 27.9279V22.9945H13.4318C12.6958 22.9945 12.0985 22.3972 12.0985 21.6612V20.7639C12.0985 20.0279 12.6958 19.4305 13.4318 19.4305H18.3972V14.4159C18.3972 13.6799 18.9945 13.0825 19.7305 13.0825H20.6292C21.3652 13.0825 21.9625 13.6799 21.9625 14.4159V19.4305H26.9278C27.6638 19.4305 28.2612 20.0279 28.2612 20.7639V21.6612C28.2612 22.3972 27.6638 22.9945 26.9278 22.9945H21.9625V27.9279C21.9625 28.6639 21.3652 29.2612 20.6292 29.2612H19.7305C18.9945 29.2612 18.3972 28.6639 18.3972 27.9279ZM26.2172 48.8185H13.4772C12.7412 48.8185 12.1438 48.2212 12.1438 47.4852V46.0825C12.1438 45.3465 12.7412 44.7492 13.4772 44.7492H26.2172C26.9532 44.7492 27.5505 45.3465 27.5505 46.0825V47.4852C27.5505 48.2212 26.9532 48.8185 26.2172 48.8185ZM50.2172 48.8185H37.4772C36.7412 48.8185 36.1438 48.2212 36.1438 47.4852V46.0825C36.1438 45.3465 36.7412 44.7492 37.4772 44.7492H50.2172C50.9532 44.7492 51.5505 45.3465 51.5505 46.0825V47.4852C51.5505 48.2212 50.9532 48.8185 50.2172 48.8185ZM50.2172 43.4852H37.4772C36.7412 43.4852 36.1438 42.8879 36.1438 42.1519V40.7492C36.1438 40.0132 36.7412 39.4159 37.4772 39.4159H50.2172C50.9532 39.4159 51.5505 40.0132 51.5505 40.7492V42.1519C51.5505 42.8879 50.9532 43.4852 50.2172 43.4852ZM50.3732 24.8399C50.6932 25.1599 50.8532 25.5243 50.8532 25.9332C50.8532 26.3243 50.7021 26.6754 50.3998 26.9865C50.0976 27.2977 49.7421 27.4532 49.3332 27.4532C48.8887 27.4532 48.5065 27.2665 48.1865 26.8932L44.4265 22.7332L40.6665 26.8932C40.3287 27.2488 39.9465 27.4265 39.5198 27.4265C39.1287 27.4265 38.7821 27.2754 38.4798 26.9732C38.1776 26.671 38.0265 26.3243 38.0265 25.9332C38.0265 25.5243 38.1865 25.1599 38.5065 24.8399L42.3998 20.5999L38.7198 16.5999C38.3998 16.2799 38.2398 15.9154 38.2398 15.5065C38.2398 15.0977 38.391 14.7465 38.6932 14.4532C38.9954 14.1599 39.3421 14.0132 39.7332 14.0132C40.1598 14.0132 40.5421 14.191 40.8798 14.5465L44.4265 18.4399L47.9732 14.5465C48.3109 14.191 48.6932 14.0132 49.1198 14.0132C49.5287 14.0132 49.8798 14.1599 50.1732 14.4532C50.4665 14.7465 50.6132 15.0977 50.6132 15.5065C50.6132 15.9154 50.4532 16.2799 50.1332 16.5999L46.4532 20.5999L50.3732 24.8399Z" fill="#9FEF00"/>
</svg>
