<svg width="64" height="64" viewBox="0 0 64 64" fill="none" xmlns="http://www.w3.org/2000/svg">
<path fill-rule="evenodd" clip-rule="evenodd" d="M34.0733 32.2827C34.0813 32.2374 34.0826 32.192 34.0826 32.1454V23.0267C34.0826 21.908 33.1746 21 32.0573 21C30.9386 21 30.0306 21.908 30.0306 23.0267V32.1454C30.0306 32.1907 30.032 32.2347 30.04 32.2774C29.4906 32.2534 28.944 32.472 28.544 32.9054L22.3493 39.5974C21.5893 40.4187 21.64 41.7014 22.46 42.4614C23.2813 43.2214 24.564 43.1707 25.324 42.3507L31.5186 35.6574C31.7746 35.38 31.9386 35.0507 31.9946 34.704C32.0613 35.0507 32.2253 35.38 32.4813 35.6574L38.676 42.3507C39.436 43.1707 40.7186 43.2214 41.54 42.4614C42.36 41.7014 42.4106 40.4187 41.6506 39.5974L35.456 32.9054C35.084 32.5014 34.584 32.284 34.0733 32.2827ZM4.66663 10V54.6667C4.66663 56.1387 5.86129 57.3334 7.33329 57.3334H25.6666H49.3333H50.6666H56.6666C58.1386 57.3334 59.3333 56.1387 59.3333 54.6667V23.3334V9.33335C59.3333 7.86135 58.1386 6.66669 56.6666 6.66669H7.33329C5.86129 6.66669 4.66663 7.86135 4.66663 9.33335V10ZM0.666626 10V56C0.666626 58.944 3.05596 61.3334 5.99996 61.3334H49.3333H50.6666H58C60.944 61.3334 63.3333 58.944 63.3333 56V23.3334V8.00002C63.3333 5.05602 60.944 2.66669 58 2.66669H5.99996C3.05596 2.66669 0.666626 5.05602 0.666626 8.00002V10ZM14.88 16.0934H49.12C49.856 16.0934 50.4533 16.6907 50.4533 17.4267V46.5734C50.4533 47.3094 49.856 47.9067 49.12 47.9067H14.88C14.144 47.9067 13.5466 47.3094 13.5466 46.5734V17.4267C13.5466 16.6907 14.144 16.0934 14.88 16.0934ZM12.2173 12.096H51.7826C53.2546 12.096 54.4493 13.2907 54.4493 14.7627V49.2374C54.4493 50.7094 53.2546 51.904 51.7826 51.904H12.2173C10.7453 51.904 9.55063 50.7094 9.55063 49.2374V14.7627C9.55063 13.2907 10.7453 12.096 12.2173 12.096Z" fill="#9FEF00"/>
<path d="M28.004 33.6653C28.004 31.428 29.82 29.612 32.0574 29.612C34.2934 29.612 36.1094 31.428 36.1094 33.6653C36.1094 35.9027 34.2934 37.7187 32.0574 37.7187C29.82 37.7187 28.004 35.9027 28.004 33.6653Z" fill="#141D2B"/>
</svg>
