<svg width="64" height="65" viewBox="0 0 64 65" fill="none" xmlns="http://www.w3.org/2000/svg">
<path fill-rule="evenodd" clip-rule="evenodd" d="M32.0135 11.3786L20.3082 29.276C23.0242 26.828 26.6202 25.6813 30.0335 26.1746C31.6055 26.4013 33.1375 26.9733 34.5242 27.9226C37.5762 30.0146 36.1588 34.788 32.4615 34.876C32.4522 34.8773 32.4402 34.88 32.4322 34.88C29.3588 34.9893 26.9228 37.512 26.9202 40.5866C26.9228 43.4866 29.0948 45.9253 31.9748 46.26C32.8362 46.428 33.8082 46.3666 35.0215 46.1693C37.5335 45.7493 41.1868 44.6453 43.1535 42.9733C48.0962 39.0493 47.1922 34.6893 44.2228 30.0813L32.0135 11.3786ZM33.6295 6.95996L48.3268 28.0626C53.3735 35.312 53.3202 43.14 49.9175 49.0506C46.5162 54.9626 39.8188 59 32.0055 59C24.1922 59 17.4908 54.9626 14.0855 49.0506C10.6802 43.14 10.6242 35.312 15.6775 28.068L30.3695 7.00129C31.7828 5.21463 32.3602 5.24263 33.6295 6.95996ZM36.9202 4.67996L51.6002 25.7733C53.1335 27.9333 54.3202 30.3066 55.1602 32.8266C55.9202 35.16 56.3068 37.5866 56.3202 40.04C56.3202 43.9066 55.3068 47.7066 53.3868 51.0533C51.2668 54.68 48.2268 57.68 44.5735 59.7333C40.7335 61.8933 36.4135 63.0133 32.0002 63C27.6002 63.0133 23.2668 61.8933 19.4268 59.7333C15.7735 57.68 12.7335 54.68 10.6268 51.0533C8.69351 47.7066 7.68018 43.9066 7.68018 40.04C7.69351 37.5866 8.08018 35.16 8.84018 32.8266C9.68018 30.3066 10.8802 27.9333 12.4002 25.7733L27.0935 4.70663C27.1068 4.67996 27.1335 4.65329 27.1602 4.62663C27.5868 4.03996 28.0802 3.49329 28.6402 3.01329C29.5735 2.17329 30.7868 1.69329 32.0402 1.66663C33.3335 1.67996 34.5735 2.18663 35.5202 3.06663C36.0402 3.54663 36.5068 4.09329 36.9202 4.67996ZM28.6095 29.8013C25.7202 29.672 22.7442 31.276 20.9748 34.464C18.4028 39.1 18.7268 44.6546 22.4348 48.6333C27.8228 54.4146 35.7535 53.3426 39.6188 49.2946C37.0322 50.084 34.7148 50.4106 32.6535 50.2053C32.6468 50.2053 32.6415 50.2053 32.6348 50.2053C27.3748 50.2053 23.1108 45.9413 23.1108 40.6813C23.1148 35.9946 26.5268 32.0066 31.1575 31.28C31.5562 31.1666 31.9602 31.084 32.3722 31.068C31.2175 30.2773 29.9228 29.86 28.6095 29.8013Z" fill="#9FEF00"/>
</svg>
