<svg width="64" height="65" viewBox="0 0 64 65" fill="none" xmlns="http://www.w3.org/2000/svg">
<g clip-path="url(#clip0_62_4736)">
<path fill-rule="evenodd" clip-rule="evenodd" d="M16.8653 11.5359C17.984 11.0932 19.132 10.7266 20.304 10.4386L17.12 8.19991L16.8653 11.5359ZM27.9947 9.69991C29.7093 9.78524 31.4013 10.0359 33.0493 10.4439L30.4933 7.29324L27.9947 9.69991ZM38.7933 12.5879C40.476 13.4466 42.0693 14.4866 43.5453 15.6932L44.5067 10.9466L38.7933 12.5879ZM47.5627 19.7732C48.6627 21.1599 49.616 22.6466 50.4133 24.2079L53.4933 19.7732H47.5627ZM52.8947 31.5172C53.1693 33.0159 53.3173 34.5439 53.332 36.0866L55.68 33.5999L52.8947 31.5172ZM52.9133 41.0292C52.576 42.9026 52.0373 44.7386 51.3067 46.5066C51.5267 46.5226 51.74 46.5572 51.9453 46.6106L55.52 42.3332L52.9133 41.0292ZM55.08 49.1599C55.5547 49.8186 56 50.5466 56.44 51.2799C56.532 51.4319 56.6253 51.5839 56.716 51.7359L57.36 50.4666L55.08 49.1599ZM49.3333 36.3332C49.3333 39.3959 48.716 42.3119 47.6147 44.9759C50.916 49.7706 56.876 59.0546 56.0307 60.1386C56.004 60.1719 55.9653 60.1986 55.9187 60.2239C52.4667 59.0986 44.5 55.5959 40.9947 52.3332H39.8907C38.7227 55.3039 36.8733 59.0226 34.7453 58.9999C31.0587 58.9612 29.556 53.7826 25.852 53.6666C22.144 53.5506 19.856 58.9279 16.94 58.9999C13.084 59.0946 10.9813 47.9012 10.9813 47.9012H11.0653C10.0627 47.3319 9.19333 46.7572 8.49467 46.1932C8.49467 46.1932 5.616 44.7426 4.51067 41.1359C4.432 40.8799 4.33733 40.6426 4.27867 40.3639C4.096 39.2199 4 38.0466 4 36.8519C4 36.7612 4.012 36.6746 4.01333 36.5852C4.012 36.5012 4 36.4186 4 36.3332C4 23.8146 14.148 13.6666 26.6667 13.6666C39.1853 13.6666 49.3333 23.8146 49.3333 36.3332ZM25.72 57.6666H25.7867H25.6667H25.72ZM12.6973 13.6226C10.9387 14.7052 9.29733 15.9959 7.81333 17.4799C2.81333 22.4799 0 29.2666 0 36.3332C0 36.3999 0 36.4666 0 36.5332L0.0133333 36.5866V36.6666V36.7999V36.3866V36.5199V36.5866L0 36.6666C0 36.7199 0 36.7866 0 36.8532C0 38.2399 0.106667 39.6266 0.333333 40.9999C0.36 41.1599 0.386667 41.3199 0.44 41.4799L0.613333 42.0799L0.693333 42.3466C1.34667 44.4532 2.53333 46.3599 4.12 47.8799C4.77333 48.5199 5.49333 49.0799 6.26667 49.5332C6.64 49.8132 7.02667 50.0932 7.41333 50.3466C7.77333 51.8666 8.21333 53.3466 8.73333 54.7999C9.02667 55.6132 9.34667 56.3999 9.72 57.1732C10.0933 57.9866 10.5333 58.7732 11.04 59.5066C11.6133 60.3599 12.3067 61.0932 13.12 61.7066C14.1733 62.5066 15.4533 62.9599 16.7733 62.9999C16.8267 62.9999 16.8933 62.9999 16.9467 62.9999H16.9867C17.08 62.9999 17.16 62.9999 17.2533 62.9866C18.7467 62.8666 20.16 62.3199 21.3333 61.3999C22.16 60.7732 22.9333 60.0932 23.64 59.3599C24.2 58.7999 24.8 58.2799 25.44 57.8132C25.5333 57.7466 25.6267 57.7066 25.7467 57.6799C25.8 57.6932 25.8533 57.7199 25.9067 57.7599C26.4267 58.1466 26.9067 58.5866 27.36 59.0666C28.1467 59.9199 29.0133 60.6932 29.9467 61.3866C31.3067 62.3732 32.92 62.9332 34.6 62.9999C34.64 62.9999 34.68 62.9999 34.72 62.9999H34.7467C34.8133 62.9999 34.88 62.9999 34.96 62.9999C36.4133 62.9199 37.8133 62.3599 38.92 61.3999C39.7467 60.6932 40.4533 59.8666 41.04 58.9466C41.28 58.5999 41.4933 58.2399 41.7067 57.8666C41.88 57.9866 42.0667 58.0932 42.24 58.1999C43.6933 59.0932 45.1733 59.9199 46.7067 60.6666C48.1333 61.3732 49.5867 62.0399 51.0667 62.6666C52.24 63.1599 53.44 63.6132 54.6533 64.0132C55.9067 64.4399 57.3067 64.1999 58.36 63.3999L58.4667 63.3066C58.8133 63.0399 59.12 62.7199 59.36 62.3466C59.9067 61.5332 60.1733 60.5466 60.1067 59.5732C60.0533 58.7999 59.88 58.0532 59.5867 57.3332C59.424 56.8919 59.24 56.4519 59.036 56.0212L59.0933 55.9066L61.44 51.2479C62.1027 49.9332 61.6027 48.2732 60.3253 47.5426L57.6533 46.0132L60.1107 43.0519C61.0507 41.9199 60.744 40.4652 59.428 39.8079L56.64 38.4132L59.8267 35.0226C60.8347 33.9506 60.6973 32.3639 59.5187 31.4812L53.4133 26.9066L59.6133 17.9652C60.452 16.7546 59.9387 15.7732 58.4667 15.7732H47.9467L49.044 7.28391C49.2333 5.82524 48.2427 4.98391 46.8333 5.40791L36.6133 8.47991L32.5213 3.44257C31.5933 2.30124 29.9813 2.20391 28.9227 3.22791L23.9067 8.07991L15.8347 2.40124C14.6307 1.55457 13.564 2.05857 13.4533 3.52524L12.7333 13.1332L12.6973 13.6226ZM14.6667 28.3332C14.6667 26.8612 15.8613 25.6666 17.3333 25.6666C18.8053 25.6666 20 26.8612 20 28.3332C20 29.8052 18.8053 30.9999 17.3333 30.9999C15.8613 30.9999 14.6667 29.8052 14.6667 28.3332Z" fill="#9FEF00"/>
</g>
<defs>
<clipPath id="clip0_62_4736">
<rect width="64" height="64" fill="white" transform="translate(0 0.333252)"/>
</clipPath>
</defs>
</svg>
