<svg width="64" height="64" viewBox="0 0 64 64" fill="none" xmlns="http://www.w3.org/2000/svg">
<path fill-rule="evenodd" clip-rule="evenodd" d="M22.0837 9.45326C21.8077 9.37846 21.5063 9.36712 21.1997 9.40112C19.5197 9.58246 17.853 9.87712 16.2397 10.2965C14.9863 10.6138 13.7863 11.0785 12.6797 11.6791C11.7597 12.1891 10.933 12.8238 10.2397 13.5378C9.66632 14.1498 9.13299 14.7731 8.63966 15.4305C8.30632 15.8498 7.97299 16.2691 7.62632 16.6885C5.49299 19.6578 3.90632 22.8878 2.91966 26.2651C1.86632 29.9145 1.35966 33.6658 1.39966 37.4171C1.39966 40.3411 1.65299 43.2538 2.13299 46.1438C3.07966 47.1185 4.07966 48.0705 5.11966 48.9771C5.91966 49.6685 6.78632 50.3031 7.73299 50.8471C8.70632 51.4025 9.77299 51.8331 10.893 52.1051C12.1063 52.3885 13.3463 52.5245 14.5863 52.5018C15.7463 52.5018 16.9063 52.4111 18.0397 52.2638C19.4263 52.0825 20.7863 51.8558 22.1463 51.5838C22.9197 51.4365 23.5597 50.9945 23.9197 50.3938L26.3863 46.2005L26.9263 45.2779C28.3303 45.3924 29.7437 45.4468 31.161 45.4411C33.129 45.4333 35.0957 45.3312 37.049 45.1351L37.6797 46.2005L40.1463 50.3938C40.493 50.9945 41.1463 51.4365 41.9063 51.5838C43.2663 51.8558 44.6397 52.0825 46.013 52.2638C47.1597 52.4111 48.3197 52.5018 49.4797 52.5018C50.7197 52.5245 51.9597 52.3885 53.1597 52.1051C54.293 51.8331 55.3597 51.4025 56.333 50.8471C57.2663 50.3031 58.1463 49.6685 58.9463 48.9771C59.9863 48.0705 60.9863 47.1185 61.933 46.1438C62.413 43.2538 62.653 40.3411 62.6663 37.4171C62.7063 33.6658 62.1863 29.9145 61.1463 26.2651C60.1597 22.8878 58.573 19.6578 56.4397 16.6885C56.093 16.2691 55.7463 15.8498 55.4263 15.4305C54.933 14.7731 54.3997 14.1498 53.8263 13.5378C53.1197 12.8238 52.293 12.1891 51.3863 11.6791C50.2797 11.0785 49.0797 10.6138 47.8263 10.2965C46.1997 9.87712 43.213 9.58246 41.533 9.40112C41.2197 9.36599 40.9117 9.37959 40.6303 9.45779C39.173 9.31726 37.925 9.74679 37.5197 10.6025L35.4103 15.0859C33.997 14.9839 32.5783 14.9318 31.161 14.9318C29.8517 14.9261 28.5463 14.9715 27.2477 15.0678L25.1463 10.6025C24.745 9.75699 23.5197 9.32632 22.0837 9.45326ZM20.9983 14.0058C19.9063 14.1554 18.825 14.3685 17.7597 14.6371C16.9997 14.8297 16.2663 15.1131 15.5863 15.4757C15.133 15.7364 14.7197 16.0537 14.3597 16.4164C13.9197 16.8811 13.493 17.3797 13.1197 17.8897C12.773 18.3317 12.4263 18.7624 12.0797 19.1817C10.2797 21.7204 8.93299 24.4744 8.10632 27.3417C7.15966 30.6397 6.69299 34.0057 6.73299 37.3944C6.73299 39.6837 6.89299 41.9617 7.21299 44.2284C7.77299 44.7724 8.34632 45.3051 8.94632 45.8151C9.49299 46.2911 10.0797 46.7217 10.733 47.0957C11.2263 47.3791 11.773 47.5944 12.3463 47.7417C13.053 47.9004 13.7863 47.9797 14.533 47.9684C15.4397 47.9684 16.333 47.9004 17.2397 47.7871C18.0663 47.6737 18.893 47.5491 19.7197 47.4017L21.413 44.514C19.5743 44.1513 17.7623 43.6855 15.9877 43.1177C14.6103 42.6735 13.9183 41.3633 14.441 40.1937C14.9623 39.0241 16.5037 38.4348 17.881 38.8791C22.1077 40.2391 26.6143 40.9304 31.1343 40.9077C33.5877 40.9077 36.041 40.7264 38.4677 40.3977C41.1077 40.0237 43.721 39.5024 46.281 38.8337C47.6863 38.4643 49.1797 39.1352 49.6143 40.3297C50.0477 41.5243 49.2597 42.7936 47.8543 43.1631C46.1117 43.6232 44.3423 44.0176 42.5543 44.3451L44.3463 47.4017C45.173 47.549 45.9997 47.6737 46.8263 47.787C47.7197 47.9003 48.6263 47.9683 49.533 47.9683C50.2663 47.9797 51.013 47.9003 51.7197 47.7417C52.293 47.5943 52.8397 47.379 53.333 47.0957C53.973 46.7217 54.573 46.291 55.1197 45.815C55.7063 45.305 56.2797 44.7723 56.8397 44.2283C57.1597 41.9617 57.3197 39.6837 57.333 37.3943C57.3597 34.0057 56.9063 30.6397 55.9597 27.3417C55.1197 24.4743 53.7863 21.7203 51.9863 19.1817C51.6263 18.7623 51.2797 18.3317 50.9463 17.8897C50.5597 17.3797 50.1463 16.881 49.693 16.4163C49.3463 16.0537 48.933 15.7363 48.4797 15.4757C47.7997 15.113 47.0663 14.8297 46.293 14.637C45.189 14.3559 43.1423 14.1361 41.677 13.9853L40.8557 15.7307C43.2237 16.1126 45.561 16.6033 47.8543 17.2096C49.2597 17.5791 50.0477 18.8484 49.6143 20.0429C49.1797 21.2375 47.6863 21.9084 46.281 21.5389C43.837 20.9009 41.3437 20.3965 38.8263 20.0271L38.813 20.0543L38.6623 20.0033C38.597 19.9931 38.5317 19.984 38.4677 19.9749C36.041 19.6349 33.5877 19.4649 31.1343 19.4649C28.701 19.4524 26.273 19.6474 23.8903 20.0418L23.853 20.0543L23.8503 20.0486C21.8183 20.3863 19.8197 20.8691 17.881 21.4937C16.5037 21.9379 14.9623 21.3486 14.441 20.179C13.9183 19.0094 14.6103 17.6993 15.9877 17.255C17.8957 16.6396 19.849 16.1455 21.8303 15.7737L20.9983 14.0058ZM21.117 30.7525C14.0779 22.0485 7.03832 13.3445 21.117 30.7525Z" fill="#9FEF00"/>
<path fill-rule="evenodd" clip-rule="evenodd" d="M21.1172 31.9762C21.1172 29.4002 23.2079 27.3096 25.7839 27.3096C28.3599 27.3096 30.4505 29.4002 30.4505 31.9762C30.4505 34.5522 28.3599 36.6429 25.7839 36.6429C23.2079 36.6429 21.1172 34.5522 21.1172 31.9762ZM33.5492 31.9762C33.5492 29.4002 35.6399 27.3096 38.2159 27.3096C40.7919 27.3096 42.8825 29.4002 42.8825 31.9762C42.8825 34.5522 40.7919 36.6429 38.2159 36.6429C35.6399 36.6429 33.5492 34.5522 33.5492 31.9762Z" fill="#9FEF00"/>
</svg>
