<svg width="64" height="64" viewBox="0 0 64 64" fill="none" xmlns="http://www.w3.org/2000/svg">
<path fill-rule="evenodd" clip-rule="evenodd" d="M22.0505 10.5099C21.7745 10.4351 21.4731 10.4238 21.1665 10.4578C19.4865 10.6391 17.8198 10.9338 16.2065 11.3531C14.9531 11.6704 13.7531 12.1351 12.6465 12.7358C11.7265 13.2458 10.8998 13.8804 10.2065 14.5944C9.63312 15.2064 9.09979 15.8298 8.60645 16.4871C8.27312 16.9064 7.93979 17.3258 7.59312 17.7451C5.45979 20.7144 3.87312 23.9444 2.88645 27.3218C1.83312 30.9711 1.32645 34.7224 1.36645 38.4738C1.36645 41.3978 1.61979 44.3104 2.09979 47.2004C3.04645 48.1751 4.04645 49.1271 5.08645 50.0338C5.88645 50.7251 6.75312 51.3598 7.69979 51.9038C8.67312 52.4591 9.73979 52.8898 10.8598 53.1618C12.0731 53.4451 13.3131 53.5811 14.5531 53.5584C15.7131 53.5584 16.8731 53.4678 18.0065 53.3204C19.3931 53.1391 20.7531 52.9124 22.1131 52.6404C22.8865 52.4931 23.5265 52.0511 23.8865 51.4504L26.3531 47.2571L26.8931 46.3346C28.2971 46.449 29.7105 46.5034 31.1278 46.4978C33.0958 46.4899 35.0625 46.3878 37.0158 46.1918L37.6465 47.2571L40.1131 51.4504C40.4598 52.0511 41.1131 52.4931 41.8731 52.6404C43.2331 52.9124 44.6065 53.1391 45.9798 53.3204C47.1265 53.4678 48.2865 53.5584 49.4465 53.5584C50.6865 53.5811 51.9265 53.4451 53.1265 53.1618C54.2598 52.8898 55.3265 52.4591 56.2998 51.9038C57.2331 51.3598 58.1131 50.7251 58.9131 50.0338C59.9531 49.1271 60.9531 48.1751 61.8998 47.2004C62.3798 44.3104 62.6198 41.3978 62.6331 38.4738C62.6731 34.7224 62.1531 30.9711 61.1131 27.3218C60.1265 23.9444 58.5398 20.7144 56.4065 17.7451C56.0598 17.3258 55.7131 16.9064 55.3931 16.4871C54.8998 15.8298 54.3665 15.2064 53.7931 14.5944C53.0865 13.8804 52.2598 13.2458 51.3531 12.7358C50.2465 12.1351 49.0465 11.6704 47.7931 11.3531C46.1665 10.9338 43.1798 10.6391 41.4998 10.4578C41.1865 10.4226 40.8785 10.4362 40.5971 10.5144C39.1398 10.3739 37.8918 10.8034 37.4865 11.6591L35.3771 16.1426C33.9638 16.0406 32.5451 15.9884 31.1278 15.9884C29.8185 15.9828 28.5131 16.0281 27.2145 16.1244L25.1131 11.6591C24.7118 10.8136 23.4865 10.383 22.0505 10.5099ZM20.9651 15.0624C19.8731 15.212 18.7918 15.4251 17.7265 15.6937C16.9665 15.8864 16.2331 16.1697 15.5531 16.5324C15.0998 16.793 14.6865 17.1104 14.3265 17.473C13.8865 17.9377 13.4598 18.4364 13.0865 18.9464C12.7398 19.3884 12.3931 19.819 12.0465 20.2384C10.2465 22.777 8.89979 25.531 8.07312 28.3984C7.12645 31.6964 6.65979 35.0624 6.69979 38.451C6.69979 40.7404 6.85979 43.0184 7.17979 45.285C7.73979 45.829 8.31312 46.3617 8.91312 46.8717C9.45979 47.3477 10.0465 47.7784 10.6998 48.1524C11.1931 48.4357 11.7398 48.651 12.3131 48.7984C13.0198 48.957 13.7531 49.0364 14.4998 49.025C15.4065 49.025 16.2998 48.957 17.2065 48.8437C18.0331 48.7304 18.8598 48.6057 19.6865 48.4584L21.3798 45.5706C19.5411 45.208 17.7291 44.7422 15.9545 44.1744C14.5771 43.7301 13.8851 42.42 14.4078 41.2504C14.9291 40.0808 16.4705 39.4914 17.8478 39.9357C22.0745 41.2957 26.5811 41.987 31.1011 41.9644C33.5545 41.9644 36.0078 41.783 38.4345 41.4544C41.0745 41.0804 43.6878 40.559 46.2478 39.8904C47.6531 39.5209 49.1465 40.1918 49.5811 41.3864C50.0145 42.5809 49.2265 43.8502 47.8211 44.2197C46.0785 44.6798 44.3091 45.0742 42.5211 45.4018L44.3131 48.4583C45.1398 48.6056 45.9665 48.7303 46.7931 48.8436C47.6865 48.957 48.5931 49.025 49.4998 49.025C50.2331 49.0363 50.9798 48.957 51.6865 48.7983C52.2598 48.651 52.8065 48.4356 53.2998 48.1523C53.9398 47.7783 54.5398 47.3476 55.0865 46.8716C55.6731 46.3616 56.2465 45.829 56.8065 45.285C57.1265 43.0183 57.2865 40.7403 57.2998 38.451C57.3265 35.0623 56.8731 31.6963 55.9265 28.3983C55.0865 25.531 53.7531 22.777 51.9531 20.2383C51.5931 19.819 51.2465 19.3883 50.9131 18.9463C50.5265 18.4363 50.1131 17.9376 49.6598 17.473C49.3131 17.1103 48.8998 16.793 48.4465 16.5323C47.7665 16.1696 47.0331 15.8863 46.2598 15.6936C45.1558 15.4126 43.1091 15.1927 41.6438 15.042L40.8225 16.7873C43.1905 17.1692 45.5278 17.66 47.8211 18.2662C49.2265 18.6357 50.0145 19.905 49.5811 21.0996C49.1465 22.2941 47.6531 22.965 46.2478 22.5956C43.8038 21.9575 41.3105 21.4532 38.7931 21.0837L38.7798 21.1109L38.6291 21.0599C38.5638 21.0498 38.4985 21.0406 38.4345 21.0316C36.0078 20.6916 33.5545 20.5216 31.1011 20.5216C28.6678 20.5092 26.2398 20.704 23.8571 21.0984L23.8198 21.111L23.8171 21.1052C21.7851 21.443 19.7865 21.9258 17.8478 22.5503C16.4705 22.9946 14.9291 22.4052 14.4078 21.2356C13.8851 20.066 14.5771 18.7559 15.9545 18.3116C17.8625 17.6962 19.8158 17.2021 21.7971 16.8303L20.9651 15.0624Z" fill="#9FEF00"/>
<path fill-rule="evenodd" clip-rule="evenodd" d="M21.1172 31.9762C21.1172 29.4002 23.2079 27.3096 25.7839 27.3096C28.3599 27.3096 30.4505 29.4002 30.4505 31.9762C30.4505 34.5522 28.3599 36.6429 25.7839 36.6429C23.2079 36.6429 21.1172 34.5522 21.1172 31.9762ZM33.5492 31.9762C33.5492 29.4002 35.6399 27.3096 38.2159 27.3096C40.7919 27.3096 42.8825 29.4002 42.8825 31.9762C42.8825 34.5522 40.7919 36.6429 38.2159 36.6429C35.6399 36.6429 33.5492 34.5522 33.5492 31.9762Z" fill="#9FEF00"/>
</svg>
