<svg width="64" height="64" viewBox="0 0 64 64" fill="none" xmlns="http://www.w3.org/2000/svg">
<g clip-path="url(#clip0_62_4738)">
<path d="M53.2988 36.7587C45.5894 39.8427 40.9641 47.0667 40.9641 52.176C40.9641 57.224 45.0108 61.32 50.0374 61.416C47.5254 61.3667 45.5028 59.324 45.5028 56.8C45.5028 54.2467 47.8148 50.6333 51.6694 49.092C51.6694 54.488 55.8068 55.268 54.7521 58.3427C54.1548 60.0853 52.6961 61.408 50.1668 61.4227C50.1814 61.4227 50.1988 61.424 50.2148 61.424C55.3228 61.424 58.2614 58.7627 59.4641 55.2573C61.5748 49.1093 53.2974 47.5493 53.2974 36.7573L53.2988 36.7587Z" fill="#A4B1CD"/>
<path fill-rule="evenodd" clip-rule="evenodd" d="M35.8534 57.72C37.3107 57.4986 38.6694 58.5026 38.8868 59.96C39.1041 61.4173 38.0974 62.7733 36.6401 62.9866C35.1067 63.2133 33.5467 63.3333 32.0001 63.3333C23.6934 63.3333 15.7201 60.0266 9.84008 54.16C3.97341 48.28 0.666748 40.3066 0.666748 32C0.666748 23.6933 3.97341 15.72 9.84008 9.83996C15.7201 3.97329 23.6934 0.666626 32.0001 0.666626C40.3067 0.666626 48.2801 3.97329 54.1601 9.83996C60.0267 15.72 63.3334 23.6933 63.3334 32C63.3334 34.2666 63.0934 36.5333 62.6001 38.76C62.2841 40.1946 60.8614 41.1026 59.4267 40.7866C57.9921 40.4706 57.0774 39.048 57.3868 37.6133C57.8001 35.7733 58.0001 33.8933 58.0001 32C58.0001 25.1066 55.2534 18.4933 50.3868 13.6133C45.5068 8.74663 38.8934 5.99996 32.0001 5.99996C25.1067 5.99996 18.4934 8.74663 13.6134 13.6133C8.74675 18.4933 6.00008 25.1066 6.00008 32C6.00008 38.8933 8.74675 45.5066 13.6134 50.3866C18.4934 55.2533 25.1067 58 32.0001 58C33.2934 58 34.5734 57.9066 35.8534 57.72ZM26.3601 51.88C27.0667 52.0866 27.4761 52.8266 27.2734 53.5333C27.0707 54.24 26.3334 54.652 25.6267 54.4533C20.7467 53.0666 16.4401 50.12 13.3867 46.0666C10.3201 42.0133 8.66675 37.08 8.66675 32C8.66675 28.72 9.36008 25.4666 10.7067 22.4666C11.0014 21.7973 11.7867 21.4946 12.4601 21.7933C13.1334 22.092 13.4347 22.8826 13.1334 23.56C11.9467 26.2133 11.3334 29.0933 11.3334 32C11.3334 36.4933 12.8001 40.8666 15.5067 44.4666C18.2134 48.0533 22.0267 50.6533 26.3601 51.88ZM34.2534 11.4533C33.5254 11.372 32.9961 10.712 33.0734 9.97996C33.1507 9.24796 33.8107 8.71863 34.5467 8.79996C40.2534 9.42663 45.5467 12.1466 49.3734 16.4266C53.2134 20.7066 55.3334 26.2533 55.3334 32C55.3334 32.0133 55.3334 32.0133 55.3334 32.0266L55.3201 32.8933C55.3054 33.6293 54.6961 34.2173 53.9601 34.2066C53.2241 34.196 52.6388 33.5893 52.6534 32.8533L52.6667 31.9866C52.6667 26.8933 50.7868 21.9866 47.3868 18.2C43.9868 14.4133 39.3067 12.0133 34.2534 11.4533ZM26.0001 32C26.0001 30.4133 26.6267 28.88 27.7601 27.76C28.8801 26.6266 30.4134 26 32.0001 26C33.5867 26 35.1201 26.6266 36.2401 27.76C37.3734 28.88 38.0001 30.4133 38.0001 32C38.0001 33.5866 37.3734 35.12 36.2401 36.24C35.1201 37.3733 33.5867 38 32.0001 38C30.4134 38 28.8801 37.3733 27.7601 36.24C26.6267 35.12 26.0001 33.5866 26.0001 32ZM20.6667 32C20.6667 29 21.8667 26.1066 23.9867 23.9866C26.1067 21.8666 29.0001 20.6666 32.0001 20.6666C35.0001 20.6666 37.8934 21.8666 40.0134 23.9866C42.1334 26.1066 43.3334 29 43.3334 32C43.3334 35 42.1334 37.8933 40.0134 40.0133C37.8934 42.1333 35.0001 43.3333 32.0001 43.3333C29.0001 43.3333 26.1067 42.1333 23.9867 40.0133C21.8667 37.8933 20.6667 35 20.6667 32Z" fill="#9FEF00"/>
</g>
<defs>
<clipPath id="clip0_62_4738">
<rect width="64" height="64" fill="white"/>
</clipPath>
</defs>
</svg>
