<svg width="64" height="64" viewBox="0 0 64 64" fill="none" xmlns="http://www.w3.org/2000/svg">
<g clip-path="url(#clip0_54_3511)">
<path fill-rule="evenodd" clip-rule="evenodd" d="M3.92969 0C1.77199 0 0 1.77199 0 3.92969V60.0703C0 62.228 1.77199 64 3.92969 64H20.4922V20.4922H41.5443V0H3.92969ZM43.5078 0V1.1224V64H60.0703C62.228 64 64 62.228 64 60.0703V3.92969C64 1.77199 62.228 0 60.0703 0H43.5078ZM3.92969 2.24479H39.2995V18.2448H18.2448V61.7552H3.92969C2.97721 61.7552 2.24479 61.0228 2.24479 60.0703V3.92969C2.24479 2.97721 2.97721 2.24479 3.92969 2.24479ZM45.7552 2.24479H60.0703C61.0228 2.24479 61.7552 2.97721 61.7552 3.92969V60.0703C61.7552 61.0228 61.0228 61.7552 60.0703 61.7552H45.7552V2.24479ZM22.4557 22.4557V23.5781V64H41.5443V22.4557H22.4557ZM24.7005 24.7005H39.2995V61.7552H24.7005V24.7005Z" fill="#9FEF00"/>
</g>
<defs>
<clipPath id="clip0_54_3511">
<rect width="64" height="64" fill="white"/>
</clipPath>
</defs>
</svg>
