<svg width="64" height="65" viewBox="0 0 64 65" fill="none" xmlns="http://www.w3.org/2000/svg">
<path fill-rule="evenodd" clip-rule="evenodd" d="M27.5682 9.81729C26.0215 9.92262 24.6828 8.75729 24.5788 7.21595C24.4748 5.67595 25.6468 4.33995 27.1922 4.23462H45.8442C47.3895 4.23462 49.2282 5.34395 49.9482 6.70929L63.1855 31.808C63.9055 33.1733 63.8295 35.348 63.0162 36.6613L49.6962 58.1533C48.8828 59.4653 46.9682 60.5213 45.4228 60.5093L35.9295 60.432H22.6362C21.0922 60.432 20.2575 59.2506 20.7762 57.7946L21.1162 56.8373C21.6335 55.3813 23.3082 54.1866 24.8522 54.1693L45.7202 53.944L58.0308 34.0813L45.4188 10.008L27.5682 9.81729ZM14.7122 49.1453C15.4122 50.524 14.8655 52.2133 13.4935 52.9173C12.1228 53.62 10.4375 53.0773 9.73349 51.7053L0.857491 35.74C0.106824 34.3906 0.158824 32.2293 0.972158 30.916L11.6042 13.7626C12.4175 12.4493 14.1548 12.0253 15.4815 12.816H15.4828C16.8095 13.6066 17.2268 15.3146 16.4122 16.628L5.91349 33.5666L14.7122 49.1453ZM25.3335 23L10.6668 39H17.3335L25.3335 29.6666L33.3335 39H40.0002L35.5362 34.1306L38.6668 31L46.6668 39H53.3335L38.6668 24.3333L31.8855 30.1453L25.3335 23ZM24.0002 35L20.0002 39H24.0002V35Z" fill="#9FEF00"/>
</svg>
