<svg width="64" height="65" viewBox="0 0 64 65" fill="none" xmlns="http://www.w3.org/2000/svg">
<path d="M4.46139 2.35058C3.46806 2.43324 2.78939 2.80791 2.36406 3.47991C1.76006 4.43858 1.92139 6.89458 2.74939 9.33991C3.50672 11.5759 5.24006 15.0412 6.94672 18.0199C9.80806 13.6786 13.7654 10.1332 18.4227 7.75724C14.3921 5.31991 10.2134 3.36258 7.37472 2.68124C6.70139 2.51858 6.09872 2.41591 5.56139 2.36658C5.15872 2.33058 4.79206 2.32258 4.46139 2.35058ZM59.5387 2.35058C59.2081 2.32258 58.8414 2.33058 58.4387 2.36658C57.9014 2.41591 57.2987 2.51858 56.6254 2.68124C53.2054 3.50258 47.8214 6.13458 43.1201 9.28524C40.7267 10.8892 40.5707 11.0959 40.5721 12.7212C40.5721 13.8826 40.6641 14.2679 41.2494 15.4839C42.8721 18.8492 46.5001 22.2892 49.6027 23.4012C50.9801 23.8959 52.7427 23.8799 53.3947 23.3679C55.0334 22.0839 59.8454 13.4879 61.2507 9.33991C62.0787 6.89458 62.2401 4.43858 61.6361 3.47991C61.2107 2.80791 60.5321 2.43324 59.5387 2.35058ZM32.0001 6.61858C16.6147 6.61858 4.14272 19.0906 4.14272 34.4759C4.14272 49.8612 16.6147 62.3332 32.0001 62.3332C47.3854 62.3332 59.8574 49.8612 59.8574 34.4759C59.8507 30.2306 58.8747 26.0439 57.0027 22.2346C56.9694 22.2852 56.9307 22.3599 56.8974 22.4106C56.1494 23.5292 55.6401 24.3319 54.7174 25.0546C53.6627 25.8826 52.7427 25.8959 51.7881 25.9052C50.8334 25.9132 49.8481 25.7666 48.8787 25.4186C44.9547 24.0119 41.2374 20.3932 39.3201 16.4172C38.6961 15.1226 38.4294 14.0012 38.4281 12.7252C38.4281 11.8439 38.5267 10.6652 39.2281 9.71991C39.7187 9.05991 40.3121 8.61458 41.0027 8.14258C38.1054 7.14258 35.0641 6.62791 32.0001 6.61858Z" fill="#9FEF00"/>
</svg>
