<svg width="64" height="65" viewBox="0 0 64 65" fill="none" xmlns="http://www.w3.org/2000/svg">
<path fill-rule="evenodd" clip-rule="evenodd" d="M32.0002 4C25.9482 4.00933 20.0562 5.93333 15.1642 9.49733L21.6042 15.936C24.7242 13.9933 28.3242 12.9627 32.0002 12.9587C42.8842 12.9587 51.7082 21.7827 51.7082 32.6667C51.7002 36.34 50.6642 39.9373 48.7202 43.0533L55.1628 49.4947C58.7268 44.6067 60.6535 38.716 60.6668 32.6667C60.6668 16.8347 47.8322 4 32.0002 4ZM8.8375 15.8387C5.2735 20.7267 3.34683 26.6173 3.3335 32.6667C3.3335 48.4987 16.1682 61.3333 32.0002 61.3333C38.0522 61.324 43.9442 59.4 48.8362 55.836L42.3962 49.3973C39.2762 51.34 35.6762 52.3707 32.0002 52.3747C21.1162 52.3747 12.2922 43.5507 12.2922 32.6667C12.3002 28.9933 13.3362 25.396 15.2802 22.28L8.8375 15.8387ZM21.2508 32.6667C21.2508 26.7333 26.0668 21.9173 32.0002 21.9173C37.9335 21.9173 42.7508 26.7333 42.7508 32.6667C42.7508 38.6 37.9335 43.4173 32.0002 43.4173C26.0668 43.4173 21.2508 38.6 21.2508 32.6667Z" fill="#9FEF00"/>
</svg>
