<svg width="64" height="64" viewBox="0 0 64 64" fill="none" xmlns="http://www.w3.org/2000/svg">
<path fill-rule="evenodd" clip-rule="evenodd" d="M32.093 6.66634C38.7863 6.69301 45.213 9.37301 49.9463 14.1197C54.6797 18.8663 57.333 25.293 57.333 31.9997C57.333 38.7197 54.6663 45.1597 49.9197 49.9063C45.173 54.653 38.733 57.333 32.013 57.333H8.34634C7.90634 57.333 7.46634 57.1597 7.15967 56.8397C6.83967 56.533 6.66634 56.093 6.66634 55.653V31.9863C6.66634 25.2797 9.34634 18.8263 14.093 14.0797C18.8397 9.33301 25.293 6.66634 31.9997 6.66634C32.0263 6.66634 32.0663 6.66634 32.093 6.66634ZM31.9063 1.33301C31.933 1.33301 31.973 1.33301 31.9997 1.33301C40.133 1.33301 47.933 4.55967 53.6797 10.3197C59.4397 16.0663 62.6663 23.8663 62.6663 31.9997C62.6663 40.133 59.4397 47.933 53.693 53.6797C47.9463 59.4263 40.1463 62.6663 32.013 62.6663H8.34634C6.47967 62.6663 4.70634 61.933 3.38634 60.613C2.06634 59.293 1.33301 57.5197 1.33301 55.653V31.9863C1.33301 23.8797 4.55967 16.093 10.293 10.3463C16.013 4.59967 23.7863 1.35967 31.9063 1.33301ZM38.2103 15.341C33.4157 15.341 29.529 19.2277 29.529 24.0223V31.937V41.3877V42.353C29.0703 44.5983 26.997 46.2117 24.705 46.2117C22.041 46.2117 19.881 44.0517 19.881 41.3877C19.881 38.7237 22.041 36.5637 24.705 36.5637H27.5997V30.7757H24.705C18.8437 30.7757 14.093 35.5277 14.093 41.3877C14.093 47.249 18.8437 51.9997 24.705 51.9997C30.565 51.9997 35.317 47.249 35.317 41.3877V36.5637H38.2103C39.809 36.5637 41.105 35.269 41.105 33.6703C41.105 32.0717 39.809 30.7757 38.2103 30.7757H35.317V24.0223C35.317 22.425 36.613 21.129 38.2103 21.129C39.809 21.129 41.105 22.425 41.105 24.0223V25.9517C41.105 27.5503 42.401 28.8463 43.9997 28.8463C45.597 28.8463 46.893 27.5503 46.893 25.9517V24.0223C46.893 19.2277 43.0063 15.341 38.2103 15.341Z" fill="#9FEF00"/>
</svg>
