<svg width="64" height="65" viewBox="0 0 64 65" fill="none" xmlns="http://www.w3.org/2000/svg">
<path fill-rule="evenodd" clip-rule="evenodd" d="M12.5065 10.4079C12.0785 10.7865 11.6598 11.1799 11.2532 11.5865C5.75984 17.0932 2.6665 24.5599 2.6665 32.3332C2.6665 39.9079 5.60384 47.1905 10.8398 52.6519C7.4345 56.5505 5.33317 58.9999 5.33317 58.9999H18.6665L18.9598 58.6079C22.9785 60.5999 27.4358 61.6665 31.9998 61.6665C37.7145 61.6665 43.2652 59.9945 47.9798 56.9065C47.9918 57.5959 47.9998 58.2892 47.9998 58.9999H55.9998C55.9998 56.2732 55.6052 53.4879 54.8692 50.6732C59.0372 45.5012 61.3332 39.0305 61.3332 32.3332C61.3332 26.6225 59.6638 21.0785 56.5825 16.3652C57.3665 14.6425 58.6665 13.6665 58.6665 13.6665H54.6318C54.0398 12.9465 53.4105 12.2519 52.7465 11.5865C47.2398 6.09321 39.7732 2.99988 31.9998 2.99988C27.7132 2.99988 23.5212 3.93988 19.6985 5.70521C17.1412 5.82254 14.6332 6.57721 7.99984 10.9999C9.5665 10.6079 11.0638 10.4159 12.5065 10.4079ZM19.5198 11.8332C17.9012 12.8199 16.3905 13.9999 15.0265 15.3599C10.5332 19.8665 7.99984 25.9732 7.99984 32.3332C7.99984 38.3745 10.2852 44.1865 14.3625 48.6172C20.0758 42.0452 28.4652 32.5439 35.4892 24.9639C29.8492 18.8865 24.8985 14.0959 19.5198 11.8332ZM28.4092 8.59588C29.5918 8.42521 30.7918 8.33321 31.9998 8.33321C37.6212 8.33321 43.0452 10.3119 47.3305 13.8905C46.0465 14.4799 43.3838 16.6199 39.5265 20.6599C35.7798 15.5212 31.9838 11.2332 28.4092 8.59588ZM51.0825 17.7852C54.2518 21.9439 55.9998 27.0505 55.9998 32.3332C55.9998 36.5452 54.8892 40.6465 52.8252 44.2412C50.4345 38.1385 46.9492 32.0212 43.2692 26.1999L48.6665 18.9999C48.6665 18.9999 49.6532 18.1772 51.0825 17.7852ZM47.5185 50.6225C43.2025 54.2959 37.7025 56.3332 31.9998 56.3332C28.6025 56.3332 25.2772 55.6105 22.2292 54.2519L39.9558 30.6212C43.8732 36.3079 46.5212 42.1425 47.5185 50.6225Z" fill="#9FEF00"/>
</svg>
