<svg width="64" height="65" viewBox="0 0 64 65" fill="none" xmlns="http://www.w3.org/2000/svg">
<path fill-rule="evenodd" clip-rule="evenodd" d="M31.9962 5.66796C29.6215 11.488 28.1895 15.2946 25.5455 20.9413C27.1668 22.6586 29.1562 24.6586 32.3868 26.9186C28.9135 25.4893 26.5442 24.0546 24.7735 22.5653C21.3908 29.624 16.0895 39.6773 5.3335 59C13.7882 54.12 19.6748 51.112 25.7815 49.964C25.5202 48.836 25.3708 47.616 25.3815 46.344L25.3908 46.0733C25.5242 40.6573 29.0682 36.34 32.3455 36.3333C35.6242 36.3253 38.8122 41.6813 38.6775 47.096C38.6522 48.1146 38.5375 49.0946 38.3362 50.004C44.3775 51.1853 50.3268 54.1866 58.6668 59C57.0228 55.9733 55.5548 53.2453 54.1535 50.6466C51.9455 48.9346 49.6428 46.708 44.9442 44.2973C48.1735 45.1373 50.4855 46.104 52.2868 47.1866C38.0362 20.6586 36.8828 17.1333 31.9948 5.66663" fill="#9FEF00"/>
</svg>
