<svg width="64" height="64" viewBox="0 0 64 64" fill="none" xmlns="http://www.w3.org/2000/svg">
<path fill-rule="evenodd" clip-rule="evenodd" d="M36.972 7.55197C39.2413 11.1666 42.2533 14.8386 44.2493 18.6026C46.7613 23.4413 49.0147 28.4173 50.996 33.488C51.6027 34.9813 52.088 36.508 52.452 38.0706C52.76 39.3386 52.8947 40.6386 52.8693 41.932C52.8467 43.4653 52.3853 44.9546 51.5467 46.2413C50.7107 47.408 49.5667 48.336 48.248 48.9093C46.8773 49.4946 45.4467 49.876 43.972 50.044C42.3093 50.256 40.624 50.348 38.9427 50.3333L35.232 50.3693C31.7867 50.4293 28.344 50.4093 24.9067 50.296C21.616 50.1626 18.3307 49.8826 15.0653 49.4426C11.084 48.908 7.13733 48.1733 3.23866 47.2413C2.552 47.08 1.99866 46.5626 1.78666 45.888C1.58666 45.2253 1.736 44.4973 2.19733 43.9693L33.78 7.28797C34.2 6.82531 34.824 6.57064 35.4493 6.62264C36.0747 6.67464 36.6467 7.01864 36.972 7.55197ZM34.5253 11.936C36.2267 14.7413 39.18 17.5826 40.704 20.46C43.1547 25.176 45.3467 30.016 47.28 34.9786C47.8133 36.2813 48.24 37.6333 48.5573 38.9933C48.7867 39.9373 48.8933 40.9026 48.868 41.8626C48.864 42.6093 48.648 43.348 48.248 43.9853C47.8387 44.5293 47.288 44.96 46.6627 45.2426C45.6573 45.668 44.592 45.9453 43.4933 46.0746C41.9907 46.2666 40.4787 46.352 38.972 46.3306C38.9587 46.3306 38.9453 46.3293 38.932 46.3293L35.1813 46.364L35.168 46.3626C31.7893 46.4253 28.4267 46.4093 25.0547 46.2986C21.884 46.1706 18.7333 45.896 15.588 45.4746C12.8533 45.1093 10.1373 44.6386 7.43733 44.0746L34.5253 11.936Z" fill="#9FEF00"/>
<path fill-rule="evenodd" clip-rule="evenodd" d="M37.28 6.46666C39.2533 8.10666 41.1067 9.86666 42.8533 11.7467C44.7867 13.8133 46.6 15.9867 48.32 18.2533C50.2267 20.76 52.0267 23.3467 53.72 26.0133C55.6 28.96 57.3867 31.96 59.08 35.0267C60.1067 36.8267 60.96 38.72 61.64 40.68C62.1733 42.2133 62.4667 43.8133 62.5067 45.44C62.5333 46.9867 62.16 48.52 61.4 49.8667C60.6533 51.1067 59.6133 52.16 58.36 52.8933C57.0933 53.6533 55.72 54.2 54.28 54.5467C52.7067 54.9333 51.1067 55.2 49.5067 55.32C43.96 55.8 38.4 56.0933 32.8267 56.2267C24.56 56.44 16.2933 56.5867 8.02666 56.6667C7.29333 56.68 6.62666 56.2933 6.26666 55.6667C5.90666 55.04 5.90666 54.2533 6.28 53.64L34.28 6.97332C34.5867 6.46666 35.0933 6.11999 35.6667 6.02666C36.24 5.93332 36.8267 6.09332 37.28 6.46666ZM36.4933 11.08C37.68 12.16 38.8267 13.2933 39.92 14.4667C41.76 16.44 43.4933 18.52 45.1333 20.6667C46.9733 23.0933 48.7067 25.6 50.3467 28.16C52.1867 31.04 53.9333 33.9867 55.5867 36.9733C56.5067 38.5733 57.2667 40.2533 57.8533 41.9867C58.2667 43.12 58.48 44.32 58.5067 45.52C58.52 46.3467 58.32 47.1467 57.9333 47.8667C57.5333 48.52 56.9867 49.0667 56.3333 49.4533C55.4 50 54.3867 50.4133 53.3333 50.6533C51.9733 51 50.5733 51.2267 49.16 51.3467C43.7067 51.8133 38.2267 52.1067 32.7333 52.2267C25.68 52.4 18.6133 52.5333 11.56 52.6267L36.4933 11.08Z" fill="#141D2B"/>
</svg>
