<svg width="64" height="64" viewBox="0 0 64 64" fill="none" xmlns="http://www.w3.org/2000/svg">
<path fill-rule="evenodd" clip-rule="evenodd" d="M7.92408 48.9783V49.1529V49.1676C7.92408 49.3129 7.90941 49.4449 7.90941 49.5756C7.90941 50.1436 7.95341 50.6983 8.02541 51.2516C8.09875 51.7903 8.25875 52.3009 8.49208 52.7823L8.56541 52.9276C8.56541 52.9423 8.56541 52.9423 8.58008 52.9569C8.84274 53.5103 9.17741 54.0356 9.55608 54.5156C10.2267 55.3316 11.0427 56.0169 11.9614 56.5276C12.5441 56.8476 13.1707 57.0956 13.8267 57.2409C14.6281 57.4156 15.4441 57.5036 16.2601 57.5036C16.8281 57.5036 17.4121 57.4596 17.9654 57.3863C20.1801 57.0223 22.3521 56.4103 24.4214 55.5356C26.9427 54.5156 29.3761 53.3209 31.7374 51.9516C36.7067 49.0943 41.4147 45.8009 45.8147 42.1143C48.1321 40.2049 50.3481 38.1503 52.4174 35.9636C53.1601 35.1769 53.8747 34.3609 54.5601 33.5156C54.9534 33.0343 55.3027 32.5249 55.6094 31.9996C55.7694 31.6796 55.8707 31.3289 55.9294 30.9796C56.0321 30.4116 56.0894 29.8423 56.0894 29.2743C56.0894 28.6183 56.0174 27.9769 55.8707 27.3649C55.6961 26.7969 55.4481 26.2729 55.1427 25.7769C54.6321 24.9316 54.0641 24.1303 53.4521 23.3716C51.7761 21.3169 49.9401 19.4076 47.9721 17.6596C45.7134 15.6329 43.3374 13.7396 40.8307 12.0196C38.5281 10.4023 36.0654 8.98761 33.5147 7.79294C31.5481 6.91827 29.4201 6.48094 27.2774 6.49561C26.4174 6.49561 25.5574 6.56894 24.7134 6.72894C22.5561 7.12227 20.4721 7.88094 18.5627 8.95827C16.7414 9.97961 15.0801 11.2609 13.6227 12.7476C12.3254 14.0303 11.2174 15.5023 10.3281 17.1049C9.96408 17.7609 9.65874 18.4316 9.42541 19.1463C9.23608 19.6703 9.10408 20.2103 9.04674 20.7489L9.01741 21.2876C9.03208 21.9436 9.19208 22.5996 9.48275 23.1823C9.71608 23.6783 10.0227 24.1303 10.3867 24.5383C10.7507 24.9316 11.1454 25.2809 11.5681 25.6023C12.1067 26.0103 12.6601 26.3889 13.2294 26.7383C14.5254 27.5116 15.8667 28.2396 17.2214 28.9103C19.2334 29.9303 21.2147 31.0383 23.1387 32.2183C20.3987 34.4476 17.7027 36.7649 15.0801 39.1409C14.0307 40.1023 13.0107 41.1076 12.0187 42.1436C10.8241 43.3676 9.77475 44.7516 8.90008 46.2236C8.58008 46.7623 8.31741 47.3316 8.11341 47.9289C7.99741 48.2636 7.92408 48.6143 7.92408 48.9783L4.95075 48.9049L7.92408 48.9343V48.9783ZM2.09474 49.0943V48.8756L4.95075 48.9049L2.09474 48.8316C2.10941 47.8556 2.29874 46.8943 2.61874 45.9756C2.95474 45.0436 3.37741 44.1396 3.87208 43.2796C4.98008 41.3996 6.30675 39.6649 7.82141 38.0916C8.88541 36.9689 10.0081 35.8769 11.1587 34.8409C11.7427 34.3023 12.3254 33.7783 12.9227 33.2529C12.0041 32.7716 11.1161 32.2623 10.2267 31.7369C9.46941 31.2716 8.74008 30.7756 8.04008 30.2503C7.32675 29.7116 6.67074 29.0996 6.07341 28.4436C5.34408 27.6423 4.73208 26.7383 4.26541 25.7769C3.56674 24.3636 3.18808 22.8183 3.18808 21.2596C3.18808 21.2009 3.18808 21.1423 3.18808 21.0836L3.23075 20.3556C3.23075 20.2969 3.23075 20.2383 3.23075 20.1809C3.34808 19.1756 3.58141 18.1836 3.91608 17.2223C4.26541 16.2169 4.70274 15.2249 5.22808 14.2783C6.36408 12.2089 7.80808 10.3143 9.48275 8.63827C11.3201 6.77294 13.4187 5.17027 15.6921 3.88761C18.1694 2.48761 20.8654 1.51161 23.6494 0.987606C24.8441 0.76894 26.0534 0.666273 27.2774 0.666273C30.2507 0.651606 33.1947 1.26361 35.9201 2.48761C38.8054 3.81427 41.5601 5.41694 44.1681 7.23961C46.8641 9.09027 49.4294 11.1303 51.8494 13.3169C54.0641 15.2689 56.1041 17.4116 57.9694 19.6849C58.7561 20.6463 59.4707 21.6676 60.1121 22.7303C60.6947 23.6783 61.1614 24.7129 61.4814 25.7916C61.7881 26.9276 61.9334 28.1089 61.9187 29.3036C61.9187 30.2076 61.8321 31.1103 61.6707 31.9996C61.5107 32.9476 61.1907 33.8796 60.7534 34.7396C60.2721 35.5996 59.7187 36.4156 59.0921 37.1876C58.3054 38.1503 57.5027 39.0823 56.6441 39.9863C54.4134 42.3329 52.0387 44.5476 49.5321 46.6023C44.8827 50.4943 39.8987 53.9769 34.6521 57.0076C32.0721 58.4943 29.4054 59.8063 26.6507 60.9289C24.1441 61.9769 21.5214 62.7209 18.8401 63.1436C17.9947 63.2743 17.1347 63.3329 16.2747 63.3329C15.0214 63.3329 13.7681 63.2023 12.5441 62.9249C11.3494 62.6623 10.1974 62.2249 9.13341 61.6276C7.54541 60.7383 6.14541 59.5729 5.00941 58.1743C4.36808 57.3583 3.80008 56.4689 3.34808 55.5356L3.27474 55.3903C3.27474 55.3903 3.27474 55.3756 3.26008 55.3756C2.75074 54.3263 2.41474 53.2049 2.25474 52.0529C2.13874 51.2223 2.08008 50.3916 2.08008 49.5609C2.08008 49.4009 2.09474 49.2409 2.09474 49.0943Z" fill="#9FEF00"/>
<path d="M33.0598 22.1893C29.7198 20.5493 28.1185 16.9573 29.4865 14.1746C30.8531 11.392 34.6745 10.4653 38.0132 12.1066C41.3532 13.7466 42.9545 17.3373 41.5865 20.12C40.2198 22.9026 36.3985 23.8306 33.0598 22.1893Z" fill="#9FEF00"/>
</svg>
