<svg width="64" height="64" viewBox="0 0 64 64" fill="none" xmlns="http://www.w3.org/2000/svg">
<g clip-path="url(#clip0_51_560)">
<path fill-rule="evenodd" clip-rule="evenodd" d="M34.1748 57.6957C32.6095 57.8277 31.4428 59.209 31.5708 60.7784C31.6988 62.3464 33.0801 63.513 34.6535 63.381C42.5335 62.725 49.8881 59.1077 55.2255 53.2557C60.5495 47.4037 63.4748 39.7477 63.4028 31.833C63.3281 23.5197 59.9468 15.565 54.0188 9.72905C48.0761 3.90638 40.0615 0.671715 31.7481 0.746382C23.4348 0.821048 15.4801 4.20238 9.64413 10.1304C3.82147 16.0717 0.585465 24.0877 0.661465 32.4011C0.674799 33.9744 1.96547 35.241 3.5388 35.2264C5.11347 35.213 6.3788 33.9237 6.36547 32.349C6.3028 25.5477 8.95347 18.9917 13.7161 14.129C18.4921 9.27972 24.9975 6.51172 31.8001 6.45038C38.6015 6.38905 45.1575 9.03838 50.0201 13.801C54.8695 18.577 57.6375 25.0837 57.6988 31.885C57.7575 38.3584 55.3761 44.6264 51.0121 49.4144C46.6495 54.2024 40.6295 57.1517 34.1748 57.6957ZM9.4108 44.2584C8.66547 42.8717 6.93613 42.3504 5.54947 43.0944C4.1628 43.8397 3.64147 45.569 4.3868 46.9557C7.5628 52.8597 12.5548 57.6064 18.6121 60.4744C20.0348 61.1544 21.7388 60.5504 22.4148 59.1277C23.0908 57.7051 22.4841 55.9984 21.0615 55.3184C16.0921 52.9677 12.0215 49.0971 9.4108 44.2584ZM36.4561 12.5437L46.8148 18.6664L36.4441 24.789L36.4561 12.5437ZM32.0001 15.6917C32.7601 15.6917 33.5028 15.7517 34.2335 15.8544V18.1224C33.5068 18.005 32.7615 17.937 32.0001 17.937C26.0775 17.937 21.0121 21.5677 18.9335 26.733L17.0121 25.5984C19.5068 19.7837 25.2855 15.6917 32.0001 15.6917ZM32.0001 21.2357C32.7615 21.2357 33.5041 21.3264 34.2228 21.4784V23.7824C33.5135 23.5944 32.7695 23.4944 32.0001 23.4944C28.1095 23.4944 24.8615 26.0784 23.8401 29.6277L21.8495 28.4464C23.3228 24.257 27.3228 21.2357 32.0001 21.2357ZM45.0788 22.2664C47.1068 24.9851 48.3081 28.357 48.3081 31.9997C48.3081 35.6984 47.0615 39.1197 44.9748 41.861L43.0415 40.7144C44.9335 38.321 46.0628 35.2984 46.0628 31.9997C46.0628 28.7624 44.9735 25.7837 43.1455 23.4117L45.0788 22.2664ZM40.2521 25.125C41.8148 26.9944 42.7641 29.389 42.7641 31.9997C42.7641 34.669 41.7748 37.1264 40.1481 39.013L38.1695 37.8437C39.6161 36.3237 40.5068 34.2771 40.5068 31.9984C40.5068 29.7851 39.6695 27.7797 38.2961 26.269L40.2521 25.125ZM13.1228 25.8771L23.4815 31.9997L13.1108 38.1224L13.1228 25.8771ZM23.8401 34.3717C24.8628 37.9184 28.1108 40.4944 32.0001 40.4944C32.7695 40.4944 33.5135 40.3917 34.2228 40.205V42.5197C33.5055 42.6717 32.7628 42.7624 32.0015 42.7624C27.3201 42.7624 23.3201 39.7357 21.8508 35.541L23.8401 34.3717ZM18.9335 37.265C21.0108 42.4317 26.0775 46.0611 32.0001 46.0611C32.7548 46.0611 33.4908 46.0024 34.2108 45.8877V48.1451C33.4895 48.2451 32.7521 48.3064 32.0015 48.3064C25.2868 48.3064 19.5081 44.2144 17.0135 38.3984L18.9335 37.265ZM36.4455 39.4064L46.8041 45.5171L36.4335 51.6397L36.4455 39.4064Z" fill="#9FEF00"/>
</g>
<defs>
<clipPath id="clip0_51_560">
<rect width="64" height="64" fill="white"/>
</clipPath>
</defs>
</svg>
