<svg width="64" height="64" viewBox="0 0 64 64" fill="none" xmlns="http://www.w3.org/2000/svg">
<path d="M28.1845 1.66699C16.5512 1.66699 9.90449 6.42966 5.56582 11.7963C8.88982 12.7083 11.2138 13.4683 11.9618 13.715C11.9712 13.2137 12.0512 8.68566 12.0512 8.68566L12.1165 8.54033L12.2845 8.48966C13.3085 8.63766 35.1178 11.863 44.3032 17.2163C45.4405 17.8857 45.9992 18.583 46.7032 19.303C49.2418 21.927 52.6152 32.855 52.9725 35.1137L52.8272 35.3457C52.6952 35.395 52.3752 35.619 51.9578 35.9043C49.8138 37.4017 44.8032 40.911 38.3792 40.339C32.6018 39.8243 25.0632 36.5097 15.9712 30.5217C16.3725 31.4657 18.2605 35.955 18.5778 36.7083L18.7085 36.863C20.0245 37.543 32.6578 43.9843 38.9258 43.8523C43.9832 43.7523 49.3845 41.2843 51.5445 39.9883L52.2325 39.8577C52.4245 40.0097 52.3952 40.3017 52.3352 40.5723C52.2032 41.1923 51.9058 42.3283 51.6992 42.8563L51.5298 43.2963C51.2858 43.9497 51.0445 44.579 50.5845 44.9563C49.3098 46.1163 47.2712 47.0337 44.0872 48.4297C39.1632 50.5803 31.1832 51.935 23.7658 51.8923C21.1112 51.8323 18.5405 51.5403 16.2845 51.283C11.5765 50.7457 7.75115 50.315 5.46582 52.0883C11.0232 58.3697 19.1405 62.3337 28.1885 62.3337C44.9405 62.3337 58.5352 48.7537 58.5352 32.0003C58.5352 15.2497 44.9405 1.66833 28.1885 1.66833L28.1845 1.66699ZM36.2018 17.7217C33.8818 17.755 31.6952 18.6243 29.9885 20.2243C28.1618 21.9163 27.1112 24.2323 27.0232 26.723C26.8552 31.8577 30.8978 36.1923 36.0352 36.3843C38.5365 36.4657 40.9045 35.575 42.7258 33.8683C44.5418 32.1697 45.5898 29.871 45.6818 27.383C45.8578 22.2403 41.8165 17.907 36.6698 17.7217C36.5152 17.7163 36.3565 17.7177 36.2018 17.7217ZM35.9552 20.471C36.1685 20.459 36.3738 20.4643 36.5912 20.471C40.1792 20.5977 43.0005 23.6057 42.8792 27.2003C42.8272 28.931 42.0885 30.5537 40.8192 31.7443C39.5485 32.923 37.8938 33.5323 36.1512 33.479C32.5645 33.3457 29.7538 30.327 29.8725 26.7363C29.9272 24.999 30.6738 23.3923 31.9365 22.2097C33.0432 21.171 34.4578 20.563 35.9552 20.471ZM37.6672 23.7283C36.0685 23.7283 34.7765 24.595 34.7765 25.659C34.7765 26.719 36.0685 27.5923 37.6672 27.5923C39.2618 27.5923 40.5445 26.7217 40.5445 25.659C40.5445 24.595 39.2618 23.7283 37.6672 23.7283Z" fill="#9FEF00"/>
</svg>
