<svg width="64" height="64" viewBox="0 0 64 64" fill="none" xmlns="http://www.w3.org/2000/svg">
<path fill-rule="evenodd" clip-rule="evenodd" d="M19.42 13.6138V40.7098C19.42 44.9684 22.872 48.4524 27.1613 48.4524H44.58C48.8693 48.4524 52.3227 44.9684 52.3227 40.7098V26.1938C52.3227 22.5164 49.2893 19.4204 45.548 19.4204C43.648 19.4204 41.94 20.1938 40.7093 21.5484C39.4787 20.1938 37.772 19.4204 35.8707 19.4204C32.1293 19.4204 29.0973 22.5164 29.0973 26.1938V37.8071H32.968V26.1938C32.968 24.6458 34.268 23.2911 35.8707 23.2911C37.4733 23.2911 38.7747 24.6458 38.7747 26.1938V37.8071H42.6453V26.1938C42.6453 24.6458 43.9453 23.2911 45.548 23.2911C47.1507 23.2911 48.452 24.6458 48.452 26.1938V40.7098C48.452 42.8391 46.7253 44.5804 44.58 44.5804H27.1613C25.0173 44.5804 23.2907 42.8391 23.2907 40.7098V13.6138H19.42ZM5.87067 9.74176H42.8267C51.3627 9.74176 58.1293 16.5084 58.1293 25.0444V54.2591H28.9147C20.38 54.2591 13.6133 47.4924 13.6133 38.9564V21.3551C13.6147 19.3284 11.768 17.4818 9.74133 17.4844H5.87067V9.74176ZM2 5.87109V21.3551H9.74133V38.9564C9.74133 49.5711 18.3 58.1298 28.9147 58.1298H62V25.0444C62 14.4298 53.4413 5.87109 42.8267 5.87109H2Z" fill="#9FEF00"/>
</svg>
