<svg width="64" height="64" viewBox="0 0 64 64" fill="none" xmlns="http://www.w3.org/2000/svg">
<g clip-path="url(#clip0_54_3499)">
<path fill-rule="evenodd" clip-rule="evenodd" d="M20.8171 44.3332H43.1824C44.3691 44.3332 45.3331 45.2292 45.3331 46.3332C45.3331 47.4372 44.3691 48.3332 43.1824 48.3332H20.8171C19.6304 48.3332 18.6664 47.4372 18.6664 46.3332C18.6664 45.2292 19.6304 44.3332 20.8171 44.3332ZM29.1291 21.4426C28.6304 19.6932 27.5784 18.0012 26.1931 16.8719C25.9158 16.6466 25.5838 16.3639 25.1958 16.2519C22.6478 15.4052 23.7558 19.7506 24.1438 20.8786C24.5318 22.0066 25.5838 24.3772 26.7464 25.5612C27.0238 25.8439 27.3011 26.0692 27.6331 26.1266C27.9664 26.1826 28.6304 25.8439 28.9078 25.3932C29.1851 24.9412 29.2398 24.6026 29.2398 24.1506C29.3718 23.2492 29.3331 22.3306 29.1291 21.4426ZM41.2464 41.6279C41.1238 42.1146 40.8198 42.5479 40.3331 42.8186C39.8451 43.0892 38.6878 43.0892 38.0184 42.6012C37.3491 42.1146 37.2264 41.3026 37.4091 40.6532C37.5918 40.0039 38.2011 39.2999 39.0531 39.0839C40.8198 38.5972 41.6118 40.3292 41.2464 41.6279ZM39.2504 36.2559C38.2904 35.8666 38.6104 30.5212 39.5158 24.0079C39.7824 22.2266 40.2091 21.3346 40.6891 20.8892C41.1691 20.4439 42.6091 20.2212 43.4611 20.3892C44.4438 20.5412 45.3571 21.0079 46.0744 21.7252C46.7144 22.3372 46.7678 23.0052 46.5544 23.8399C46.3411 24.6759 45.5944 26.4572 45.0078 27.7372L43.5144 30.6879C40.6358 36.0332 40.0491 36.5906 39.2504 36.2559ZM45.1811 53.9039C46.5131 53.1426 48.2198 53.6039 48.9891 54.9319C49.7584 56.2599 49.3011 57.9639 47.9678 58.7319C42.7851 61.7159 36.8744 63.1852 30.9091 62.9812C25.4998 62.7972 20.2211 61.2386 15.5691 58.4626C14.2518 57.6732 13.8238 55.9612 14.6131 54.6439C15.4038 53.3266 17.1144 52.8986 18.4331 53.6879C22.2664 55.9906 26.6211 57.2666 31.0984 57.4199C36.0358 57.5879 40.9064 56.3759 45.1811 53.9039ZM55.6638 19.2079C54.9731 17.8319 55.5291 16.1572 56.9051 15.4706C58.2811 14.7839 59.9518 15.3426 60.6358 16.7186C63.0198 21.4772 64.1624 26.7652 63.9811 32.0906C63.8424 36.1506 62.9411 40.1426 61.3104 43.8466C60.6944 45.2546 59.0504 45.8972 57.6424 45.2799C56.2344 44.6639 55.5918 43.0199 56.2091 41.6119C57.5664 38.5532 58.3051 35.2519 58.4184 31.9012C58.5691 27.5066 57.6184 23.1452 55.6638 19.2079ZM20.5478 7.1799C19.1651 7.8399 17.5011 7.25324 16.8331 5.87057C16.1664 4.4879 16.7464 2.82257 18.1291 2.1559C22.7851 -0.0800975 27.9171 -1.15743 33.0904 -0.981431C38.0678 -0.812098 42.9518 0.510569 47.3238 2.90124C48.6744 3.63857 49.1718 5.33324 48.4344 6.6839C47.6971 8.03324 46.0024 8.53057 44.6518 7.79324C41.0438 5.81857 37.0158 4.72124 32.9011 4.5799C28.6318 4.43457 24.3971 5.32124 20.5478 7.1799ZM6.91978 39.3879C7.40911 40.8412 6.62244 42.4186 5.16511 42.9066C3.70778 43.3946 2.12778 42.6039 1.63978 41.1439C0.441109 37.5252 -0.110891 33.7199 0.0184427 29.9092C0.190443 24.8759 1.54111 19.9386 3.98911 15.5252C4.72644 14.1826 6.41711 13.6972 7.76378 14.4426C9.11044 15.1879 9.59844 16.8826 8.85311 18.2252C6.83578 21.8732 5.72244 25.9412 5.57978 30.0986C5.47311 33.2559 5.92244 36.3892 6.91978 39.3879ZM55.9518 10.7812C55.8984 12.3172 54.6104 13.5199 53.0758 13.4679C51.5411 13.4159 50.3371 12.1266 50.3891 10.5919C50.4411 9.05724 51.7304 7.85324 53.2651 7.90657C54.7998 7.95857 56.0038 9.24657 55.9518 10.7812ZM12.4824 49.3506C12.4304 50.8852 11.1424 52.0892 9.60778 52.0372C8.07178 51.9839 6.86911 50.6959 6.92111 49.1612C6.97311 47.6266 8.26244 46.4226 9.79711 46.4746C11.3318 46.5266 12.5358 47.8159 12.4824 49.3506ZM57.0278 50.8692C57.0798 49.3346 55.8758 48.0466 54.3411 47.9932C52.8064 47.9412 51.5184 49.1452 51.4651 50.6799C51.4131 52.2146 52.6171 53.5039 54.1518 53.5559C55.6864 53.6079 56.9758 52.4039 57.0278 50.8692ZM35.3891 24.6026C34.0598 27.4799 31.8438 29.7932 28.7411 30.9226L31.4011 37.9759C31.8998 39.2732 32.3424 40.6279 31.9544 41.8692C31.5664 43.1106 29.7944 43.5052 28.5198 42.1519C26.0824 39.4999 17.8838 22.7972 17.2744 21.5559C16.6651 20.3146 15.9998 19.2986 15.9998 18.0572C16.0558 16.1946 18.8811 14.2759 20.2651 13.3172C21.6504 12.3586 24.3651 11.0599 26.7464 11.0039C29.1291 10.9479 30.1264 11.5119 31.5118 12.4146C33.6171 13.8252 35.1118 16.0252 35.6664 18.5652C36.2198 21.1039 36.0544 23.0786 35.3891 24.4892V24.6026ZM14.4864 9.3679C14.5384 7.83324 13.3358 6.5439 11.8011 6.4919C10.2651 6.4399 8.97711 7.6439 8.92511 9.17857C8.87178 10.7132 10.0758 12.0012 11.6104 12.0546C13.1464 12.1066 14.4344 10.9026 14.4864 9.3679Z" fill="#9FEF00"/>
</g>
<defs>
<clipPath id="clip0_54_3499">
<rect width="64" height="64" fill="white"/>
</clipPath>
</defs>
</svg>
