<svg width="64" height="65" viewBox="0 0 64 65" fill="none" xmlns="http://www.w3.org/2000/svg">
<path fill-rule="evenodd" clip-rule="evenodd" d="M33.1226 18.8346C32.4573 18.9373 31.6653 18.9933 30.8066 18.996C31.1586 18.1813 31.5653 17.2453 31.9999 16.2533C32.4079 17.1866 32.7933 18.0706 33.1226 18.8346ZM30.6799 19.288C30.7693 21.6773 31.9999 21.9279 31.9999 28.3333C31.9999 33.6666 30.6666 41.6666 30.6666 41.6666L34.6666 39L37.0759 27.892C40.3959 35.3493 43.1973 40.8119 52.5746 57.4013C52.5746 57.4013 40.2293 50.2 31.9999 50.2C23.7706 50.2 11.4253 57.4013 11.4253 57.4013C23.9079 35.3186 24.7399 32.9506 30.6799 19.288ZM31.3333 44.3333C29.4919 44.3333 27.9999 45.8253 27.9999 47.6666C28.0013 48.5 28.3159 49.304 28.8799 49.9173C29.9519 49.768 31.0039 49.6666 31.9999 49.6666C32.6226 49.6666 33.2666 49.7026 33.9213 49.7626C34.4026 49.1693 34.6653 48.4306 34.6666 47.6666C34.6666 45.8253 33.1746 44.3333 31.3333 44.3333ZM49.5413 62.6906C47.4079 61.456 45.1986 60.3586 42.9266 59.3826C40.9919 58.5146 38.9946 57.7826 36.9533 57.1733C36.0239 56.8986 35.0933 56.6706 34.1639 56.5026C33.4479 56.3799 32.7159 56.304 31.9999 56.304C31.2839 56.304 30.5519 56.3799 29.8359 56.5026C28.9066 56.6706 27.9759 56.8986 27.0466 57.1733C25.0053 57.7826 23.0079 58.5146 21.0733 59.3826C18.8013 60.3586 16.5919 61.456 14.4586 62.6906C13.2999 63.36 11.9586 63.62 10.6333 63.452C9.3066 63.2693 8.07326 62.66 7.12793 61.7293C6.1826 60.7853 5.57326 59.5506 5.3906 58.2239C5.20793 56.8986 5.4666 55.5573 6.1226 54.3999C8.49993 50.2079 10.8466 46.0173 13.1479 41.796C14.6719 39.0213 16.1506 36.2333 17.5826 33.4133C18.6799 31.2346 19.7319 29.0239 20.7226 26.8146C21.8346 24.3306 22.9319 21.8613 23.9986 19.3773C26.6359 13.2813 29.3026 7.21595 31.9999 1.16528C34.6973 7.21595 37.3639 13.2813 40.0013 19.3773C41.0679 21.8613 42.1653 24.3306 43.2773 26.8146C44.2679 29.0239 45.3199 31.2346 46.4173 33.4133C47.8493 36.2333 49.3279 39.0213 50.8519 41.796C53.1533 46.0173 55.4999 50.2079 57.8773 54.3999C58.5333 55.5573 58.7919 56.8986 58.6093 58.2239C58.4266 59.5506 57.8173 60.7853 56.8719 61.7293C55.9266 62.66 54.6933 63.2693 53.3666 63.452C52.0413 63.62 50.6999 63.36 49.5413 62.6906Z" fill="#9FEF00"/>
</svg>
