<svg width="64" height="64" viewBox="0 0 64 64" fill="none" xmlns="http://www.w3.org/2000/svg">
<path d="M49.3988 27.7559C49.4548 29.3465 48.9535 30.1199 48.5015 31.4852L47.6855 31.9092C47.0202 33.2612 47.7522 32.7679 47.2748 33.8425C46.2335 34.8079 44.1202 36.8625 43.4442 37.0505C42.9495 37.0399 43.7788 36.4412 43.8868 36.2079C42.4948 37.2052 42.7695 37.7052 40.6402 38.3132L40.5775 38.1679C35.3282 40.7479 28.0362 35.6359 28.1322 28.6612C28.0762 29.1039 27.9722 28.9932 27.8562 29.1705C27.5855 25.5825 29.4428 21.9785 32.5762 20.5052C35.6415 18.9225 39.2335 19.5705 41.4282 21.7092C40.2228 20.0599 37.8228 18.3105 34.9802 18.4732C32.1935 18.5199 29.5868 20.3692 28.7162 22.3772C27.2895 23.3159 27.1228 25.9959 26.5015 26.4865C25.6642 32.9105 28.0762 35.6852 32.1548 38.9505C32.7948 39.4012 32.3348 39.4705 32.4215 39.8145C31.0655 39.1519 29.8255 38.1519 28.8055 36.9265C29.3468 37.7545 29.9308 38.5585 30.6868 39.1905C29.4082 38.7399 27.7002 35.9572 27.2028 35.8439C29.4055 39.9625 36.1388 43.0679 39.6655 41.5265C38.0335 41.5892 35.9602 41.5612 34.1282 40.8532C33.3562 40.4399 32.3108 39.5839 32.4975 39.4239C37.3095 41.2999 42.2802 40.8439 46.4428 37.3585C47.5028 36.4959 48.6602 35.0305 48.9948 35.0105C48.4908 35.8025 49.0815 35.3919 48.6948 36.0892C49.7482 34.3119 48.2348 35.3652 49.7842 33.0199L50.3562 33.8425C50.1428 32.3652 52.1122 30.5732 51.9108 28.2399C52.3628 27.5265 52.4148 29.0092 51.9362 30.6505C52.6015 28.8292 52.1122 28.5359 52.2815 27.0332C52.4655 27.5385 52.7095 28.0745 52.8335 28.6079C52.4002 26.8479 53.2762 25.6439 53.4948 24.6212C53.2788 24.5225 52.8255 25.3985 52.7215 23.3199C52.7375 22.4172 52.9628 22.8465 53.0495 22.6239C52.8802 22.5225 52.4348 21.8305 52.1642 20.5025C52.3588 20.1892 52.6882 21.3119 52.9562 21.3572C52.7842 20.3012 52.4882 19.4972 52.4748 18.6865C51.6935 16.9812 52.1988 18.9145 51.5655 17.9545C50.7348 15.2465 52.2562 17.3252 52.3588 16.0959C53.6175 18.0012 54.3362 20.9572 54.6668 22.1812C54.4148 20.6892 54.0082 19.2425 53.5108 17.8439C53.8948 18.0132 52.8935 14.7745 54.0095 16.9185C52.8188 12.3479 48.9188 8.07587 45.3295 6.07187C45.7682 6.49187 46.3215 7.01854 46.1242 7.1012C44.3375 5.99187 44.6522 5.9052 44.3962 5.43587C42.9428 4.81854 42.8455 5.48654 41.8855 5.4372C39.1442 3.91854 38.6162 4.07987 36.0922 3.1292L36.2068 3.6892C34.3922 3.0572 34.0922 3.92787 32.1295 3.69054C32.0108 3.59454 32.7588 3.33854 33.3748 3.2452C31.6188 3.48787 31.7015 2.88387 29.9828 3.31187C30.4068 3.0012 30.8548 2.79587 31.3068 2.5332C29.8748 2.62387 27.8882 3.40254 28.5015 2.6932C26.1668 3.7812 22.0188 5.3092 19.6922 7.5892L19.6188 7.07854C18.5522 8.41454 14.9682 11.0705 14.6828 12.8039L14.3975 12.8732C13.8428 13.8545 13.4828 14.9665 13.0428 15.9759C12.3175 17.2679 11.9802 16.4732 12.0828 16.6759C10.6548 19.6999 9.9455 22.2385 9.3335 24.3239C9.7695 25.0052 9.34416 28.4252 9.50816 31.1625C8.79216 44.6852 18.5948 57.8119 29.3095 60.8425C30.8802 61.4305 33.2148 61.4092 35.2015 61.4665C32.8588 60.7665 32.5562 61.0972 30.2722 60.2652C28.6255 59.4545 28.2642 58.5292 27.0975 57.4719L27.5602 58.3239C25.2722 57.4759 26.2295 57.2772 24.3682 56.6599L24.8615 55.9879C24.1202 55.9292 22.8975 54.6839 22.5628 53.9919L21.7508 54.0252C20.7775 52.7705 20.2575 51.8652 20.2962 51.1625L20.0335 51.6505C19.7348 51.1185 16.4455 46.9385 18.1522 47.9132C17.8348 47.6119 17.4135 47.4212 16.9575 46.5532L17.3042 46.1385C16.4855 45.0359 15.7935 43.6212 15.8468 43.1492C16.2842 43.7665 16.5882 43.8825 16.8895 43.9892C14.8162 38.6159 14.6988 43.6932 13.1295 38.5185L13.4602 38.4919C13.2068 38.0892 13.0508 37.6559 12.8468 37.2279L12.9922 35.7239C11.5002 33.9252 12.5748 28.0612 12.7895 24.8439C12.9402 23.5385 14.0362 22.1452 14.8708 19.9625L14.3628 19.8705C15.3348 18.1012 19.9095 12.7625 22.0295 13.0372C23.0562 11.6905 21.8255 13.0319 21.6242 12.6932C23.8802 10.2559 24.5895 10.9719 26.1108 10.5319C27.7508 9.51587 24.7028 10.9305 25.4802 10.1452C28.3175 9.38787 27.4908 8.42387 31.1922 8.03987C31.5828 8.27187 30.2855 8.39854 29.9615 8.69987C32.3242 7.49054 37.4415 7.76654 40.7655 9.3692C44.6215 11.2519 48.9548 16.8159 49.1268 22.0505L49.3215 22.1052C49.2228 24.1865 49.6255 26.5945 48.9255 28.8039L49.3988 27.7572" fill="#9FEF00"/>
</svg>
