<svg width="64" height="65" viewBox="0 0 64 65" fill="none" xmlns="http://www.w3.org/2000/svg">
<path fill-rule="evenodd" clip-rule="evenodd" d="M56.6518 31.816C56.6612 32.1 56.6665 32.3827 56.6665 32.6667C56.6665 34.28 56.5065 35.88 56.5065 35.88C56.3372 36.748 57.0812 37.6267 58.1665 37.84C59.2518 38.0533 60.2945 37.4027 60.4932 36.3867C60.4932 36.3867 60.6665 34.5333 60.6665 32.6667C60.6665 25.0667 57.6398 17.7733 52.2665 12.4C46.8932 7.02667 39.5998 4 31.9998 4C28.7065 4 25.4398 4.56 25.4398 4.56C23.7252 5.17067 22.6345 6.512 23.0065 7.55333C23.3785 8.59467 24.8745 9.00933 26.3465 8.48C26.3465 8.48 29.1598 8 31.9998 8C38.5332 8 44.8132 10.6 49.4398 15.2267C53.8238 19.6107 56.3878 25.4787 56.6492 31.64C55.5652 31.3507 54.5212 30.92 53.8065 30.028C53.6852 29.8787 54.1958 30.0147 54.0905 29.7813C54.0172 29.5827 53.9478 29.4667 53.8465 29.2947C53.4212 28.6653 52.9852 28.04 52.6038 27.3827C52.1598 27.3747 51.7158 27.3693 51.2732 27.3613C50.7158 26.7053 50.0998 26.1067 49.5305 25.4613C49.5785 25.816 49.6425 26.1693 49.6425 26.528C49.2625 26.3107 48.8865 26.0827 48.5465 25.8053C48.1758 25.4693 47.8332 25.1027 47.4692 24.76C47.5158 25.02 47.5665 25.2787 47.6092 25.5387C46.8598 25.2387 46.1572 24.7867 45.6305 24.1693C45.6225 24.3227 45.6158 24.4747 45.6092 24.628C45.1412 24.448 44.6838 24.2467 44.2158 24.0653C43.0385 23.6227 41.8718 23.1133 40.6278 22.888C39.2572 22.8187 37.8092 23.004 36.5132 22.4453C35.6185 22.0973 34.8865 21.3947 34.4585 20.5387C33.6772 19.08 33.7838 17.3467 34.0105 15.7627C33.0145 15.1027 31.9358 14.5787 30.8278 14.136C30.3105 13.9507 29.8265 13.68 29.2865 13.5627C27.3358 12.9187 25.3385 12.4227 23.3198 12.0493C22.4425 11.856 21.5452 11.7653 20.6692 11.5707C19.8305 11.4093 18.9812 11.3227 18.1332 11.2213C14.1038 10.7573 10.0438 10.5813 5.98917 10.6173C5.43584 10.6213 4.87984 10.6107 4.32517 10.6147C3.7705 10.6187 3.21717 10.6387 2.6665 10.708C8.76917 10.8187 14.8878 11.3187 20.8638 12.604C22.0185 12.7547 23.1345 13.0987 24.2598 13.3853C24.8052 13.5133 25.3145 13.756 25.8572 13.896C26.7612 14.1253 27.6438 14.428 28.5385 14.6933C29.0865 14.9307 29.6785 15.0387 30.2212 15.2867C31.0332 15.632 31.8252 16.0187 32.6145 16.4147C32.7158 16.4827 32.8772 16.516 32.9065 16.656C33.1105 17.5147 33.2198 18.3947 33.4692 19.2427C33.9372 20.8293 34.5332 22.392 35.3772 23.82C34.4785 24.248 33.7025 24.8947 33.0238 25.6147C32.0558 26.68 31.3038 27.9653 30.9812 29.3747C30.5892 30.8173 30.6705 32.2147 31.0105 33.6587C31.3798 34.9507 32.0385 35.8933 32.9345 36.896C34.7318 38.9427 37.5292 40.1267 40.2545 39.812C43.5398 39.548 46.9625 40.076 49.8492 41.7267C51.3638 42.6027 52.7958 43.68 53.8772 45.0707C55.3478 46.7413 56.4532 48.8373 57.2972 50.8907C57.4198 51.2 57.5318 51.5173 57.7025 51.8053C57.7025 51.42 57.5612 51.06 57.4318 50.7053C57.0385 49.6573 56.5945 48.492 56.0385 47.5187C55.3838 46.3493 54.6638 45.2067 53.7572 44.2133C52.4345 42.62 50.8198 41.2587 48.9732 40.3093C50.3812 40.4907 51.7518 40.9 53.0878 41.3667C54.5185 41.8787 55.8932 42.556 57.1278 43.4453C58.3465 44.4333 59.4198 45.6147 60.2105 46.976C60.6212 47.6347 60.8812 48.5053 61.2398 49.1907C60.9238 47.6027 60.1292 46.0093 59.1332 44.748C58.5438 43.9827 57.7945 43.3707 57.0598 42.7547C55.3638 41.4173 53.3918 40.4707 51.3518 39.7867C47.6065 38.5573 43.6438 38.0867 39.7132 38.088C38.7638 38.0933 37.8052 37.9693 36.9118 37.636C34.8478 36.8947 33.2225 35.3387 32.7158 33.2053C32.0625 30.8893 32.7878 28.392 34.4918 26.7027C35.8758 25.2893 37.8932 24.484 39.8745 24.6773C41.9225 24.824 43.8692 25.54 45.7812 26.24C47.3452 26.8507 48.9185 27.4547 50.4292 28.1933C50.4692 28.6293 50.5038 29.076 50.6638 29.4893C50.8785 29.912 51.3398 30.1147 51.7505 30.3053C52.5305 30.6547 53.2705 30.9667 53.9345 31.508C54.4265 31.9053 54.8345 32.3893 55.3025 32.812C55.4585 32.5627 55.4838 32.5013 55.5278 32.4147C55.5532 32.388 55.5358 32.416 55.5705 32.3773C55.8598 32.0733 56.2665 31.9693 56.6518 31.816ZM51.0532 51.32C51.8412 52.0933 51.6438 53.5747 50.6145 54.6267C47.0932 58.2267 39.7065 61.3333 31.9998 61.3333C24.3998 61.3333 17.1065 58.3067 11.7332 52.9333C6.35984 47.56 3.33317 40.2667 3.33317 32.6667C3.33317 30.2933 3.6265 27.9333 3.6265 27.9333C3.9425 26.668 5.06917 25.8587 6.13984 26.1267C7.2105 26.3947 7.8585 27.504 7.5865 28.6C7.5865 28.6 7.33317 30.6267 7.33317 32.6667C7.33317 39.2 9.93317 45.48 14.5598 50.1067C19.1865 54.7333 25.4665 57.3333 31.9998 57.3333C38.6265 57.3333 44.9865 54.6533 47.7598 51.824C48.7905 50.7733 50.2652 50.5467 51.0532 51.32ZM32.6012 16.964C25.2105 16.9013 17.7945 17.2413 10.4892 18.4213C8.57584 18.7427 6.6505 19.036 4.7785 19.5547C11.0372 18.6747 17.3425 18.08 23.6638 17.94C26.7425 17.92 29.8278 18.0187 32.8932 18.3253C32.7905 17.8733 32.6852 17.42 32.6012 16.964ZM33.0838 18.9667C28.9252 19.3573 24.8438 20.3453 20.8852 21.656C18.1492 22.5947 15.4625 23.692 12.8745 24.9867C11.9558 25.4493 11.0278 25.896 10.1558 26.4453C11.1398 26.024 12.0985 25.5453 13.0932 25.1507C19.5665 22.4893 26.4252 20.624 33.4372 20.2653C33.3025 19.8373 33.1758 19.4053 33.0838 18.9667ZM41.3278 20.3333C42.0625 20.664 42.8358 20.896 43.5652 21.24C45.7918 22.2133 47.9305 23.4267 49.8118 24.9733C50.4932 25.5387 51.1292 26.16 51.6798 26.852C51.8238 27.0093 52.0638 26.8907 52.2505 26.9187C52.0412 26.5333 51.6585 26.2853 51.3612 25.9733C49.8585 24.4987 48.1332 23.256 46.2678 22.2813C44.6958 21.4653 43.0532 20.752 41.3278 20.3333Z" fill="#9FEF00"/>
</svg>
