<svg width="64" height="65" viewBox="0 0 64 65" fill="none" xmlns="http://www.w3.org/2000/svg">
<path fill-rule="evenodd" clip-rule="evenodd" d="M21.3332 56.6666C22.0404 56.6666 22.7187 56.9475 23.2188 57.4476C23.7189 57.9477 23.9998 58.626 23.9998 59.3333C23.9998 60.0405 23.7189 60.7188 23.2188 61.2189C22.7187 61.719 22.0404 61.9999 21.3332 61.9999H9.33317C5.65317 61.9999 2.6665 59.0133 2.6665 55.3333V9.99992C2.6665 6.31992 5.65317 3.33325 9.33317 3.33325H54.6665C58.3465 3.33325 61.3332 6.31992 61.3332 9.99992V55.3333C61.3332 59.0133 58.3465 61.9999 54.6665 61.9999H42.6665C41.9593 61.9999 41.281 61.719 40.7809 61.2189C40.2808 60.7188 39.9998 60.0405 39.9998 59.3333C39.9998 58.626 40.2808 57.9477 40.7809 57.4476C41.281 56.9475 41.9593 56.6666 42.6665 56.6666H51.9998C54.2078 56.6666 55.9998 54.8746 55.9998 52.6666V12.6666C55.9998 10.4586 54.2078 8.66659 51.9998 8.66659H11.9998C9.79184 8.66659 7.99984 10.4586 7.99984 12.6666V52.6666C7.99984 54.8746 9.79184 56.6666 11.9998 56.6666H21.3332Z" fill="#9FEF00"/>
<path d="M26.7201 57.296L36.3068 44.832M27.3001 45.1693L37.0094 57.396M52.0334 29.3026C52.0334 29.3026 52.1601 27.1853 48.4374 27.1453C44.2028 27.1 43.2401 31.312 48.3414 32.8026C53.7081 34.3706 52.6668 38.6533 48.4854 38.6026C44.0428 38.5493 44.6988 36.6373 44.6988 36.6373M11.7734 27.8013C11.8201 33.0173 11.7934 35.8413 11.7734 38.6493C19.1801 39.7986 19.6534 34.3093 19.6214 33.2733C19.5894 32.2333 18.8454 27.296 11.7734 27.8013ZM29.0134 12.0906C29.0601 17.3066 29.0334 20.1293 29.0134 22.9373C37.9534 24.2306 38.5014 18.1413 32.4988 17.6106C38.2881 17.0933 38.3388 11.2 29.0134 12.0906ZM32.1574 28.076C28.8481 28.0533 27.6934 31.332 27.7108 33.828C27.7268 36.1853 28.8428 39.328 32.2174 39.2453C35.5708 39.164 36.6028 36.0906 36.6268 33.6853C36.6521 31.3186 35.3361 28.0973 32.1574 28.076Z" stroke="#9FEF00" stroke-width="3.1" stroke-linecap="round" stroke-linejoin="round"/>
<path d="M12.6669 52.1413L22.8696 41.968M51.3096 52.0507L40.5402 41.6453M51.3002 13.3467L40.3296 24.8M12.6362 13.1053L23.4762 24.58" stroke="#9FEF00" stroke-width="5" stroke-linecap="round" stroke-linejoin="round"/>
</svg>
