<svg width="64" height="64" viewBox="0 0 64 64" fill="none" xmlns="http://www.w3.org/2000/svg">
<path fill-rule="evenodd" clip-rule="evenodd" d="M46 59.9107C45.7893 59.9707 45.5653 60 45.3333 60H10.6667C6.98667 60 4 57.0133 4 53.3333V28C4 26.528 5.19467 25.3333 6.66667 25.3333C8.13867 25.3333 9.33333 26.528 9.33333 28V50.6667C9.33333 52.8747 11.1253 54.6667 13.3333 54.6667H45.3333C45.5653 54.6667 45.7893 54.696 46 54.756C46.2107 54.696 46.4347 54.6667 46.6667 54.6667H50.6667C52.8747 54.6667 54.6667 52.8747 54.6667 50.6667V46.6667C54.6667 45.1947 55.8613 44 57.3333 44C58.8053 44 60 45.1947 60 46.6667V53.3333C60 57.0133 57.0133 60 53.3333 60H46.6667C46.4347 60 46.2107 59.9707 46 59.9107ZM17.3333 9.33333C18.8053 9.33333 20 8.13867 20 6.66667C20 5.19467 18.8053 4 17.3333 4H10.6667C6.98667 4 4 6.98667 4 10.6667V17.3333C4 18.8053 5.19467 20 6.66667 20C8.13867 20 9.33333 18.8053 9.33333 17.3333V13.3333C9.33333 11.1253 11.1253 9.33333 13.3333 9.33333H17.3333ZM54.6667 34.6667C54.6667 36.1387 55.8613 37.3333 57.3333 37.3333C58.8053 37.3333 60 36.1387 60 34.6667V10.6667C60 6.98667 57.0133 4 53.3333 4H29.3333C27.8613 4 26.6667 5.19467 26.6667 6.66667C26.6667 8.13867 27.8613 9.33333 29.3333 9.33333H50.6667C52.8747 9.33333 54.6667 11.1253 54.6667 13.3333V34.6667ZM22.9773 35.4667L26.8627 28.476C25.832 28.2427 25.0667 27.3253 25.0667 26.2227V19.2893C25.0667 18.008 26.0973 16.9773 27.3773 16.9773H36.6227C37.9027 16.9773 38.9333 18.008 38.9333 19.2893V26.2227C38.9333 27.4573 37.9733 28.46 36.756 28.5293L40.224 35.4667H47.0227C48.3027 35.4667 49.3333 36.4973 49.3333 37.7773V44.7107C49.3333 45.992 48.3027 47.0227 47.0227 47.0227H37.7773C36.4973 47.0227 35.4667 45.992 35.4667 44.7107V37.7773C35.4667 36.5427 36.4267 35.5387 37.644 35.4707L34.1733 28.5333H29.4653L25.6147 35.4667H26.2227C27.5027 35.4667 28.5333 36.4973 28.5333 37.7773V44.7107C28.5333 45.992 27.5027 47.0227 26.2227 47.0227H16.9773C15.6973 47.0227 14.6667 45.992 14.6667 44.7107V37.7773C14.6667 36.4973 15.6973 35.4667 16.9773 35.4667H22.9773Z" fill="#9FEF00"/>
</svg>
