<svg width="64" height="65" viewBox="0 0 64 65" fill="none" xmlns="http://www.w3.org/2000/svg">
<path fill-rule="evenodd" clip-rule="evenodd" d="M32.0001 16.6666L42.6668 7.33325L58.6668 17.3332L48.0001 25.9999L58.6668 34.6666L42.6668 44.6666L32.0001 35.3333L21.3334 44.6666L5.33344 34.6666L16.0001 25.9999L5.33344 17.3332L21.3334 7.33325L32.0001 16.6666ZM32.0001 11.3466L39.2548 5.00525C40.9174 3.55325 43.7868 3.32258 45.6588 4.49192L62.1414 14.7879C64.0134 15.9572 64.1428 18.0372 62.4294 19.4292L54.3468 25.9999L62.4294 32.5706C64.1428 33.9626 64.0134 36.0426 62.1414 37.2119L45.6588 47.5079C43.7868 48.6773 40.9174 48.4466 39.2548 46.9946L32.0001 40.6533L24.7454 46.9946C23.0828 48.4466 20.2134 48.6773 18.3414 47.5079L1.85877 37.2119C-0.0132257 36.0426 -0.142559 33.9626 1.57077 32.5706L9.65344 25.9999L1.57077 19.4292C-0.142559 18.0372 -0.0132257 15.9572 1.85877 14.7879L18.3414 4.49192C20.2134 3.32258 23.0828 3.55325 24.7454 5.00525L32.0001 11.3466Z" fill="#9FEF00"/>
<path fill-rule="evenodd" clip-rule="evenodd" d="M46.6666 25.2226L31.9999 33.7773L22.5212 28.2493L17.3332 25.2226L31.9999 16.6666L46.6666 25.2226ZM54.5999 25.2266L31.9999 38.4132L20.5066 31.7066L9.3999 25.2266L31.9999 12.0399L54.5999 25.2266Z" fill="#9FEF00"/>
<path d="M49.9998 48.6666C49.9998 47.5626 50.8958 46.6666 51.9998 46.6666C53.1038 46.6666 53.9998 47.5626 53.9998 48.6666V58.6666C53.9998 60.8746 52.2078 62.6666 49.9998 62.6666H12.6665C10.4585 62.6666 8.6665 60.8746 8.6665 58.6666V48.6666C8.6665 47.5626 9.5625 46.6666 10.6665 46.6666C11.7705 46.6666 12.6665 47.5626 12.6665 48.6666V57.3333C12.6665 58.0693 13.2638 58.6666 13.9998 58.6666H48.6665C49.4025 58.6666 49.9998 58.0693 49.9998 57.3333V48.6666Z" fill="#9FEF00"/>
</svg>
