<svg width="64" height="64" viewBox="0 0 64 64" fill="none" xmlns="http://www.w3.org/2000/svg">
<g clip-path="url(#clip0_62_4671)">
<path fill-rule="evenodd" clip-rule="evenodd" d="M30.4746 57.696C32.0706 57.828 33.2612 59.2093 33.1292 60.7786C32.9986 62.3466 31.5906 63.5133 29.9852 63.3813C21.9479 62.7253 14.4466 59.108 9.00123 53.256C3.5719 47.404 0.587899 39.748 0.661232 31.8333C0.737232 23.52 4.18523 15.5653 10.2332 9.72929C16.2932 3.90663 24.4692 0.671959 32.9492 0.746626C41.4292 0.821293 49.5439 4.20263 55.4959 10.1306C61.4346 16.072 64.7346 24.088 64.6586 32.4013C64.6439 33.9746 63.3292 35.2413 61.7226 35.2266C60.1172 35.2133 58.8252 33.924 58.8399 32.3493C58.9026 25.548 56.1999 18.992 51.3426 14.1293C46.4706 9.27996 39.8346 6.51196 32.8959 6.45063C25.9586 6.38929 19.2719 9.03863 14.3119 13.8013C9.36523 18.5773 6.54123 25.084 6.47857 31.8853C6.41857 38.3586 8.84923 44.6266 13.2999 49.4146C17.7492 54.2026 23.8906 57.152 30.4746 57.696ZM54.6532 44.2586C55.3972 42.872 57.1279 42.3506 58.5146 43.0946C59.8999 43.84 60.4212 45.5693 59.6772 46.956C56.5012 52.86 51.5092 57.6066 45.4506 60.4746C44.0279 61.1546 42.3239 60.5506 41.6492 59.128C40.9732 57.7053 41.5799 55.9986 43.0026 55.3186C47.9719 52.968 52.0426 49.0973 54.6532 44.2586ZM42.6346 31.2146L46.8319 41.792C47.3772 43.1653 48.9212 43.832 50.2946 43.2866C51.6679 42.7426 52.3346 41.1986 51.7892 39.8253L47.5919 29.2466C48.7332 27.8026 49.0946 25.804 48.3666 23.9693C47.6386 22.1346 46.0066 20.928 44.1839 20.6586L41.9532 15.0386C41.4092 13.6653 39.8652 12.9986 38.4919 13.544C37.1186 14.088 36.4519 15.632 36.9959 17.0053L39.2266 22.6266C38.0852 24.072 37.7239 26.0693 38.4519 27.904C39.1799 29.7386 40.8132 30.9453 42.6346 31.2146ZM33.1919 43.568L34.4386 46.7106C34.9839 48.0826 36.5279 48.7506 37.9012 48.2053C39.2746 47.66 39.9412 46.116 39.3959 44.7426L38.1492 41.6013C39.2919 40.156 39.6519 38.1586 38.9239 36.324C38.1959 34.488 36.5639 33.2826 34.7412 33.0133L29.5612 19.956C29.0159 18.584 27.4719 17.916 26.0986 18.4613C24.7252 19.0066 24.0586 20.5506 24.6039 21.924L29.7839 34.98C28.6426 36.4253 28.2812 38.4226 29.0092 40.2573C29.7386 42.0933 31.3706 43.2986 33.1919 43.568ZM13.4572 29.984L12.2106 26.8413C11.6652 25.468 12.3319 23.924 13.7052 23.38C15.0786 22.8346 16.6226 23.5013 17.1679 24.8746L18.4146 28.016C20.2359 28.2853 21.8692 29.492 22.5972 31.3266C23.3252 33.1613 22.9639 35.16 21.8226 36.604L27.0039 49.6613C27.5479 51.0346 26.8812 52.5786 25.5079 53.1226C24.1346 53.668 22.5906 53.0013 22.0466 51.628L16.8652 38.572C15.0426 38.3026 13.4106 37.096 12.6826 35.2613C11.9546 33.4266 12.3159 31.428 13.4572 29.984Z" fill="#9FEF00"/>
</g>
<defs>
<clipPath id="clip0_62_4671">
<rect width="64" height="64" fill="white"/>
</clipPath>
</defs>
</svg>
