<svg width="64" height="64" viewBox="0 0 64 64" fill="none" xmlns="http://www.w3.org/2000/svg">
<path fill-rule="evenodd" clip-rule="evenodd" d="M57.4067 36.9693H59.3094C60.7814 36.9693 61.9307 37.5386 61.8761 38.2386C61.8761 38.2386 61.6214 39.5066 61.1761 40.7399C59.3574 45.8426 56.0121 50.2546 51.6001 53.3813C47.1761 56.4973 41.8907 58.1813 36.4854 58.1813C29.6001 58.1813 22.9814 55.4666 18.0854 50.6306C13.1881 45.7813 10.3881 39.1999 10.3027 32.3146C10.3027 30.8706 11.4974 29.6973 12.9694 29.6973H14.1814H57.6961C57.1761 24.8839 55.0227 20.3573 51.5641 16.9093C47.5641 12.9093 42.1334 10.6666 36.4854 10.6666C32.0854 10.6666 27.7814 12.0239 24.1934 14.5573C21.3121 16.5946 18.9907 19.2999 17.4201 22.4239H50.5454C51.8841 22.4239 52.9694 23.5106 52.9694 24.8479C52.9694 26.1866 51.8841 27.2733 50.5454 27.2733H15.5761H13.3334C11.8614 27.2733 10.7161 26.7199 10.7761 26.0373C10.7761 26.0373 11.1867 24.7066 11.8187 23.1999C13.6361 18.1213 16.9814 13.7093 21.3934 10.6066C25.8067 7.4906 31.0787 5.8186 36.4854 5.8186C43.4307 5.8186 50.0854 8.58127 54.9934 13.4786C59.9027 18.3879 62.6667 25.0546 62.6667 31.9999C62.6667 32.0119 62.6667 32.0239 62.6667 32.0479L62.6547 32.9333L62.6667 34.5453H60.2227H15.3041C15.8814 39.3119 18.0494 43.7759 21.4907 47.1759C25.4787 51.1146 30.8734 53.3333 36.4854 53.3333C40.8974 53.3333 45.2001 51.9639 48.8001 49.4186C51.5947 47.4426 53.8627 44.8319 55.4241 41.8186H22.6667C21.3294 41.8186 20.2427 40.7319 20.2427 39.3933C20.2427 38.0559 21.3294 36.9693 22.6667 36.9693H57.4067Z" fill="#9FEF00"/>
<path fill-rule="evenodd" clip-rule="evenodd" d="M32.6668 3.93069C31.6215 3.78936 30.5522 3.72803 29.4695 3.72803C13.9415 3.72803 1.3335 16.3347 1.3335 31.864C1.3335 47.392 13.9415 60 29.4695 60C30.5522 60 31.6215 59.9387 32.6668 59.7974C18.6375 58.2267 7.72816 46.3094 7.72816 31.864C7.72816 17.4187 18.6375 5.50136 32.6668 3.93069Z" fill="#A4B1CD"/>
</svg>
