<svg width="64" height="65" viewBox="0 0 64 65" fill="none" xmlns="http://www.w3.org/2000/svg">
<path fill-rule="evenodd" clip-rule="evenodd" d="M60.6668 14.6667V8C60.6668 5.792 58.8748 4 56.6668 4H7.3335C5.1255 4 3.3335 5.792 3.3335 8V16.6667C3.3335 17.7707 4.2295 18.6667 5.3335 18.6667C6.4375 18.6667 7.3335 17.7707 7.3335 16.6667V9.33333C7.3335 8.59733 7.93083 8 8.66683 8H55.3335C56.0695 8 56.6668 8.59733 56.6668 9.33333V14V14.6667H13.3335C12.2295 14.6667 11.3335 15.5627 11.3335 16.6667C11.3335 17.7707 12.2295 18.6667 13.3335 18.6667H58.6668C59.7708 18.6667 60.6668 16.8747 60.6668 14.6667ZM41.7788 36.4067C41.8095 37.2413 41.5348 37.648 41.2868 38.364L40.8402 38.5867C40.4748 39.296 40.8762 39.0373 40.6148 39.6013C40.0442 40.108 38.8855 41.1867 38.5135 41.2853C38.2428 41.28 38.6975 40.9653 38.7562 40.8427C37.9935 41.3667 38.1442 41.6293 36.9762 41.948L36.9428 41.872C34.0655 43.2267 30.0668 40.5427 30.1202 36.8827C30.0895 37.1147 30.0322 37.056 29.9682 37.1493C29.8202 35.2667 30.8388 33.3747 32.5562 32.6013C34.2362 31.7693 36.2055 32.1107 37.4082 33.2333C36.7482 32.3667 35.4322 31.4493 33.8735 31.5347C32.3468 31.5587 30.9175 32.5293 30.4402 33.584C29.6575 34.076 29.5668 35.4827 29.2255 35.74C28.7668 39.112 30.0882 40.568 32.3255 42.2827C32.6762 42.52 32.4242 42.556 32.4708 42.736C31.7282 42.388 31.0482 41.864 30.4882 41.22C30.7855 41.6547 31.1055 42.0773 31.5202 42.408C30.8188 42.172 29.8828 40.7107 29.6108 40.652C30.8175 42.8133 34.5095 44.444 36.4428 43.6347C35.5482 43.668 34.4122 43.6533 33.4068 43.2813C32.9842 43.064 32.4108 42.6147 32.5135 42.5307C35.1508 43.516 37.8762 43.276 40.1575 41.4467C40.7388 40.9947 41.3735 40.2253 41.5575 40.2147C41.2815 40.6307 41.6042 40.4147 41.3922 40.7813C41.9695 39.848 41.1402 40.4013 41.9895 39.1693L42.3042 39.6013C42.1855 38.8267 43.2655 37.8853 43.1562 36.6613C43.4042 36.2867 43.4322 37.064 43.1695 37.9253C43.5335 36.9693 43.2655 36.816 43.3588 36.0267C43.4602 36.292 43.5935 36.5733 43.6615 36.8547C43.4242 35.9293 43.9042 35.2987 44.0242 34.7613C43.9055 34.7093 43.6575 35.1693 43.6002 34.0787C43.6082 33.604 43.7322 33.8307 43.7802 33.7133C43.6868 33.66 43.4428 33.296 43.2948 32.6C43.4015 32.4347 43.5815 33.024 43.7282 33.048C43.6335 32.4947 43.4722 32.072 43.4655 31.6467C43.0362 30.752 43.3135 31.7653 42.9668 31.2627C42.5108 29.8413 43.3442 30.932 43.4015 30.2867C44.0922 31.2867 44.4855 32.8387 44.6668 33.48C44.5282 32.6973 44.3055 31.9387 44.0322 31.204C44.2428 31.2933 43.6948 29.5933 44.3055 30.7187C43.6535 28.3187 41.5148 26.0773 39.5482 25.0253C39.7882 25.2453 40.0908 25.5213 39.9828 25.5653C39.0042 24.9827 39.1762 24.9373 39.0362 24.6907C38.2388 24.3667 38.1855 24.7173 37.6588 24.692C36.1562 23.8947 35.8668 23.9787 34.4842 23.48L34.5468 23.7747C33.5508 23.4427 33.3868 23.9 32.3108 23.7747C32.2455 23.724 32.6562 23.5907 32.9935 23.5413C32.0308 23.668 32.0762 23.3507 31.1348 23.576C31.3668 23.4133 31.6122 23.3053 31.8602 23.1667C31.0748 23.2147 29.9855 23.624 30.3215 23.252C29.0415 23.8227 26.7682 24.6253 25.4922 25.8213L25.4522 25.5533C24.8682 26.2547 22.9028 27.6493 22.7468 28.5587L22.5895 28.5947C22.2868 29.1093 22.0895 29.6933 21.8482 30.2227C21.4495 30.9013 21.2642 30.484 21.3215 30.5907C20.5388 32.1773 20.1495 33.5107 19.8135 34.604C20.0535 34.9613 19.8202 36.7573 19.9095 38.1933C19.5175 45.292 24.8908 52.1827 30.7655 53.7733C31.6268 54.0813 32.9068 54.0707 33.9948 54.1013C32.7108 53.7333 32.5455 53.9067 31.2922 53.4707C30.3895 53.044 30.1922 52.5587 29.5522 52.004L29.8055 52.452C28.5522 52.008 29.0762 51.9027 28.0562 51.5787L28.3268 51.2267C27.9202 51.1947 27.2495 50.5413 27.0668 50.1787L26.6215 50.196C26.0868 49.5373 25.8028 49.0613 25.8228 48.6933L25.6802 48.9493C25.5175 48.6693 23.7135 46.476 24.6495 46.9867C24.4748 46.8293 24.2442 46.7293 23.9935 46.2733L24.1842 46.056C23.7348 45.476 23.3548 44.7347 23.3842 44.4867C23.6242 44.8107 23.7908 44.872 23.9562 44.9267C22.8188 42.1067 22.7548 44.772 21.8948 42.056L22.0762 42.0413C21.9375 41.8307 21.8522 41.6027 21.7402 41.3787L21.8188 40.5893C21.0015 39.644 21.5908 36.5667 21.7095 34.8787C21.7908 34.192 22.3922 33.4613 22.8495 32.316L22.5708 32.268C23.1042 31.3387 25.6122 28.5373 26.7735 28.68C27.3375 27.9733 26.6628 28.6773 26.5522 28.5C27.7882 27.2213 28.1775 27.596 29.0122 27.3653C29.9108 26.832 28.2388 27.5747 28.6655 27.1627C30.2215 26.7653 29.7682 26.2587 31.7975 26.0573C32.0108 26.18 31.3002 26.2453 31.1215 26.404C32.4175 25.7693 35.2228 25.9147 37.0455 26.756C39.1588 27.744 41.5348 30.664 41.6295 33.412L41.7362 33.4413C41.6815 34.5333 41.9028 35.796 41.5188 36.9573L41.7788 36.4067ZM56.6668 24.6667C56.6668 23.5627 57.5628 22.6667 58.6668 22.6667C59.7708 22.6667 60.6668 23.5627 60.6668 24.6667V57.3333C60.6668 59.5413 58.8748 61.3333 56.6668 61.3333H7.3335C5.1255 61.3333 3.3335 59.5413 3.3335 57.3333V24.6667C3.3335 23.5627 4.2295 22.6667 5.3335 22.6667C6.4375 22.6667 7.3335 23.5627 7.3335 24.6667V56C7.3335 56.736 7.93083 57.3333 8.66683 57.3333H55.3335C56.0695 57.3333 56.6668 56.736 56.6668 56V24.6667Z" fill="#9FEF00"/>
</svg>
