<svg width="64" height="65" viewBox="0 0 64 65" fill="none" xmlns="http://www.w3.org/2000/svg">
<path fill-rule="evenodd" clip-rule="evenodd" d="M18.9481 57.4306L6.25075 61.6933C3.95342 62.4653 2.73075 61.232 3.52409 58.9413L7.75209 46.7253L7.50409 46.3013C4.97075 41.9386 3.63875 36.9906 3.63875 31.9546C3.63875 24.3866 6.65475 17.1253 11.9974 11.768C17.3561 6.4253 24.6161 3.4093 32.1854 3.4093C39.3001 3.4093 46.1508 6.0733 51.4054 10.86C52.6014 11.9506 52.6868 13.804 51.5961 14.996C50.5054 16.188 48.6561 16.2693 47.4681 15.1786C43.2814 11.3733 37.8361 9.2653 32.1854 9.2653C26.1681 9.2653 20.4001 11.6506 16.1414 15.9106C11.8814 20.1706 9.49475 25.9386 9.49475 31.9546C9.49475 35.9666 10.5481 39.8893 12.5694 43.3586L13.7548 45.892L12.5694 48.9213L11.0468 53.5186L16.7708 52.1426L18.6668 51.8133L22.0268 53.0133C25.2401 54.6266 28.7868 55.4666 32.3734 55.4666C33.2934 55.4666 34.2001 55.4133 35.1201 55.3066C36.5774 55.1306 37.9001 56.172 38.0734 57.6333C38.2468 59.0946 37.2041 60.424 35.7468 60.6C34.6268 60.7333 33.5068 60.8 32.3734 60.8C27.9468 60.8 23.5868 59.76 19.6268 57.7733L18.9481 57.4306ZM54.1201 23.96C53.6121 22.576 54.3228 21.044 55.7068 20.54C57.0908 20.036 58.6254 20.7493 59.1334 22.1333C60.2934 25.3066 60.8801 28.68 60.8801 32.0666C60.8934 41.4933 56.2801 50.3333 48.5468 55.72C47.3401 56.5666 45.6761 56.2733 44.8334 55.0666C43.9908 53.86 44.2921 52.1933 45.5068 51.3466C51.8001 46.96 55.5601 39.7466 55.5468 32.0666C55.5468 29.3066 55.0668 26.56 54.1201 23.96ZM29.4321 31.9546C29.4321 29.748 31.2254 27.9546 33.4321 27.9546C35.6401 27.9546 37.4321 29.748 37.4321 31.9546C37.4321 34.1626 35.6401 35.9546 33.4321 35.9546C31.2254 35.9546 29.4321 34.1626 29.4321 31.9546ZM15.4588 31.9546C15.4588 29.748 17.2521 27.9546 19.4588 27.9546C21.6668 27.9546 23.4588 29.748 23.4588 31.9546C23.4588 34.1626 21.6668 35.9546 19.4588 35.9546C17.2521 35.9546 15.4588 34.1626 15.4588 31.9546ZM43.4054 31.9546C43.4054 29.748 45.1988 27.9546 47.4054 27.9546C49.6134 27.9546 51.4054 29.748 51.4054 31.9546C51.4054 34.1626 49.6134 35.9546 47.4054 35.9546C45.1988 35.9546 43.4054 34.1626 43.4054 31.9546Z" fill="#9FEF00"/>
</svg>
