<svg width="64" height="64" viewBox="0 0 64 64" fill="none" xmlns="http://www.w3.org/2000/svg">
<g clip-path="url(#clip0_11_409)">
<path fill-rule="evenodd" clip-rule="evenodd" d="M34.1748 6.44181C32.6095 6.30981 31.4428 4.92847 31.5708 3.35914C31.6988 1.78981 33.0801 0.623141 34.6535 0.756475C42.5335 1.41247 49.8881 5.02981 55.2255 10.8818C60.5495 16.7338 63.4748 24.3898 63.4028 32.3031C63.3281 40.6165 59.9468 48.5725 54.0188 54.4085C48.0761 60.2298 40.0615 63.4658 31.7481 63.3911C23.4348 63.3151 15.4801 59.9351 9.64413 54.0071C3.82147 48.0645 0.585465 40.0498 0.661465 31.7365C0.674799 30.1618 1.96547 28.8965 3.5388 28.9098C5.11347 28.9245 6.3788 30.2138 6.36547 31.7885C6.3028 38.5898 8.95347 45.1445 13.7161 50.0085C18.4921 54.8565 24.9975 57.6258 31.8001 57.6871C38.6015 57.7485 45.1575 55.0978 50.0201 50.3365C54.8695 45.5605 57.6375 39.0538 57.6988 32.2525C57.7575 25.7778 55.3761 19.5111 51.0121 14.7218C46.6495 9.93381 40.6295 6.98447 34.1748 6.44181ZM9.4108 19.8791C8.66547 21.2658 6.93613 21.7871 5.54947 21.0418C4.1628 20.2978 3.64147 18.5671 4.3868 17.1818C7.5628 11.2778 12.5548 6.53114 18.6121 3.66314C20.0348 2.98314 21.7388 3.58581 22.4148 5.00847C23.0908 6.43247 22.4841 8.13914 21.0615 8.81914C16.0921 11.1698 12.0215 15.0405 9.4108 19.8791ZM29.0135 13.3338C27.7761 13.3338 26.7748 14.3365 26.7748 15.5725C26.7748 16.8098 27.7761 17.8151 29.0135 17.8151C34.7868 17.8151 39.4681 22.4938 39.4681 28.2671C39.4681 29.5031 40.4695 30.5058 41.7068 30.5058C42.9441 30.5058 43.9468 29.5031 43.9468 28.2671C43.9468 20.0191 37.2615 13.3338 29.0135 13.3338ZM28.2668 20.0538C20.0188 20.0538 13.3335 26.7391 13.3335 34.9871C13.3335 36.2245 14.3361 37.2258 15.5721 37.2258C16.8095 37.2258 17.8148 36.2245 17.8148 34.9871C17.8148 29.2138 22.4935 24.5325 28.2668 24.5325C29.5028 24.5325 30.5055 23.5311 30.5055 22.2938C30.5055 21.0565 29.5028 20.0538 28.2668 20.0538ZM48.4281 26.7751C47.1908 26.7751 46.1855 27.7765 46.1855 29.0138C46.1855 34.7871 41.5068 39.4685 35.7335 39.4685C34.4975 39.4685 33.4948 40.4698 33.4948 41.7071C33.4948 42.9445 34.4975 43.9471 35.7335 43.9471C43.9815 43.9471 50.6668 37.2618 50.6668 29.0138C50.6668 27.7765 49.6641 26.7751 48.4281 26.7751ZM22.2935 33.4951C21.0561 33.4951 20.0535 34.4978 20.0535 35.7338C20.0535 43.9818 26.7388 50.6671 34.9868 50.6671C36.2241 50.6671 37.2255 49.6645 37.2255 48.4285C37.2255 47.1911 36.2241 46.1858 34.9868 46.1858C29.2135 46.1858 24.5321 41.5071 24.5321 35.7338C24.5321 34.4978 23.5308 33.4951 22.2935 33.4951Z" fill="#9FEF00"/>
</g>
<defs>
<clipPath id="clip0_11_409">
<rect width="64" height="64" fill="white"/>
</clipPath>
</defs>
</svg>
