<svg width="64" height="64" viewBox="0 0 64 64" fill="none" xmlns="http://www.w3.org/2000/svg">
<g clip-path="url(#clip0_11_401)">
<path fill-rule="evenodd" clip-rule="evenodd" d="M32.0003 5.33366C28.1323 5.33366 24.4723 6.16433 21.1617 7.63366L25.3337 10.667V14.2217L28.4457 17.3337H30.667V15.599L33.3337 13.3337V11.555L34.667 9.77899V5.46699C33.7897 5.38033 32.9003 5.33366 32.0003 5.33366ZM14.367 12.0003C9.23499 16.5243 5.85633 22.983 5.39366 30.2737L14.667 38.2217V35.555L12.4457 33.779L15.1123 30.711H16.8883L18.667 32.487L18.7217 29.1537L21.3337 26.667H22.667V24.8883L25.3337 23.1123V20.4457L22.9897 18.7217L18.667 18.667V22.667H16.8883L14.667 20.4457V18.667L17.779 16.0003H20.0003V14.2217L18.667 12.0003H14.367ZM45.3337 13.3337L42.667 16.0003V17.3777H45.3337V16.027H46.711V19.123L45.8203 20.0003H41.3337V21.3337H40.0003V24.0003H36.0003V27.9563H41.3337V26.711H44.0003V27.599L46.2217 29.3777H46.667V28.487L46.2217 27.599V26.711H48.0003L50.667 29.3337H53.3337V29.735L52.4457 30.667H50.667L58.0603 37.6483C58.4497 35.8283 58.667 33.9417 58.667 32.0003C58.667 24.7137 55.7643 18.1377 51.0603 13.3337H46.2217H45.3337ZM50.667 30.667H45.3337L44.0003 29.3337H38.2217L34.667 32.8883V36.4457L38.2217 40.0003H40.8883L42.667 41.779V42.667L44.0003 43.555V48.8883L48.071 53.2737C50.0657 51.767 51.835 49.991 53.3337 47.9897V41.779L54.667 40.0003V36.4457L50.667 32.4017V30.667ZM24.227 32.0003C23.971 32.007 23.7257 32.1017 23.535 32.2697L7.02966 45.3937C6.34433 45.9923 6.68566 47.103 7.59366 47.2297L13.9937 48.1337L10.995 53.3283C10.3243 54.4897 10.7217 55.9657 11.883 56.6363L12.5257 57.0083C13.687 57.679 15.1617 57.2817 15.8323 56.1203L18.947 50.7243L23.511 54.4243C24.2137 54.9963 25.2777 54.507 25.279 53.6123L25.3337 33.0603C25.335 32.4657 24.835 31.9857 24.227 32.0003ZM5.89366 40.1203C6.21766 41.1723 5.62566 42.2923 4.57366 42.6203C3.52166 42.9483 2.40433 42.359 2.08033 41.307C1.13366 38.2937 0.666992 35.1603 0.666992 32.0003C0.666992 23.6937 3.97366 15.7203 9.84033 9.84033C15.7203 3.97366 23.6937 0.666992 32.0003 0.666992C40.307 0.666992 48.2803 3.97366 54.1603 9.84033C60.027 15.7203 63.3337 23.6937 63.3337 32.0003C63.3337 40.307 60.027 48.2803 54.1603 54.1603C48.2803 60.027 40.307 63.3337 32.0003 63.3337C28.7203 63.3337 25.4537 62.827 22.3203 61.8137C21.2683 61.4683 20.691 60.335 21.0337 59.287C21.3763 58.239 22.5083 57.6617 23.5603 58.0003C26.2803 58.8803 29.1337 59.3337 32.0003 59.3337C39.2403 59.3337 46.2003 56.4537 51.3337 51.3337C56.4537 46.2003 59.3337 39.2403 59.3337 32.0003C59.3337 24.7603 56.4537 17.8003 51.3337 12.667C46.2003 7.54699 39.2403 4.66699 32.0003 4.66699C24.7603 4.66699 17.8003 7.54699 12.667 12.667C7.54699 17.8003 4.66699 24.7603 4.66699 32.0003C4.66699 34.747 5.08033 37.4937 5.89366 40.1203Z" fill="#9FEF00"/>
</g>
<defs>
<clipPath id="clip0_11_401">
<rect width="64" height="64" fill="white"/>
</clipPath>
</defs>
</svg>
