<svg width="64" height="65" viewBox="0 0 64 65" fill="none" xmlns="http://www.w3.org/2000/svg">
<g clip-path="url(#clip0_62_4658)">
<path fill-rule="evenodd" clip-rule="evenodd" d="M58.6667 30C59.3734 30 60.0534 30.28 60.5467 30.7866C61.0534 31.28 61.3334 31.96 61.3334 32.6666C61.3334 33.3733 61.0534 34.0533 60.5467 34.5466C60.0534 35.0533 59.3734 35.3333 58.6667 35.3333H41.8L33.8134 55.32L28.48 28.6533L25.8 35.3333H5.33336C4.6267 35.3333 3.94669 35.0533 3.45336 34.5466C2.94669 34.0533 2.6667 33.3733 2.6667 32.6666C2.6667 31.96 2.94669 31.28 3.45336 30.7866C3.94669 30.28 4.6267 30 5.33336 30H22.2L30.1867 10.0133L35.52 36.68L38.2 30H58.6667ZM32 5.99996C26.44 5.99996 21.0267 7.73329 16.5067 10.96C11.9867 14.1866 8.57336 18.7466 6.77336 24C6.2947 25.3906 4.77736 26.132 3.38669 25.6533C1.99603 25.1746 1.25469 23.6573 1.73336 22.2666C3.89336 15.96 7.9867 10.4933 13.4 6.62663C18.8267 2.74663 25.3334 0.666626 32 0.666626C38.72 0.666626 45.2667 2.78663 50.72 6.70663C56.16 10.64 60.24 16.1733 62.36 22.5466C62.8307 23.9453 62.0787 25.456 60.68 25.92C59.2814 26.384 57.7707 25.6306 57.3067 24.24C55.5334 18.9333 52.1334 14.3066 47.6 11.04C43.0534 7.75996 37.6 5.99996 32 5.99996ZM57.28 41.1866C57.7507 39.788 59.2654 39.036 60.66 39.5066C62.0547 39.9773 62.804 41.4946 62.3334 42.8933C60.1867 49.24 56.1067 54.7466 50.6667 58.6533C45.2267 62.56 38.6934 64.6666 32 64.6666C25.12 64.6666 18.4134 62.4533 12.8934 58.3466C7.37336 54.24 3.32003 48.4533 1.34669 41.8666C0.920028 40.4613 1.72003 38.976 3.13336 38.5533C4.54669 38.1306 6.03336 38.928 6.45336 40.3333C8.1067 45.8266 11.48 50.64 16.08 54.0666C20.68 57.48 26.2667 59.3333 32 59.3333C37.5867 59.3333 43.0267 57.5866 47.56 54.32C52.0934 51.0666 55.4934 46.4666 57.28 41.1866Z" fill="#9FEF00"/>
</g>
<defs>
<clipPath id="clip0_62_4658">
<rect width="64" height="64" fill="white" transform="translate(0 0.666626)"/>
</clipPath>
</defs>
</svg>
