<svg width="48" height="48" viewBox="0 0 48 48" fill="none" xmlns="http://www.w3.org/2000/svg">
<path d="M42 26C42 24.896 42.896 24 44 24C45.104 24 46 24.896 46 26V41C46 43.76 43.76 46 41 46H7C4.24 46 2 43.76 2 41V26C2 24.896 2.896 24 4 24C5.104 24 6 24.896 6 26V39C6 40.656 7.344 42 9 42H39C40.656 42 42 40.656 42 39V26Z" fill="#9FEF00"/>
<path fill-rule="evenodd" clip-rule="evenodd" d="M4 10H44C45.104 10 46 10.896 46 12V17.04C46 18.144 45.313 19.615 44.466 20.323L27.835 34.232C25.719 36.003 22.281 36.003 20.165 34.232L3.534 20.323C2.687 19.615 2 18.144 2 17.04V12C2 10.896 2.896 10 4 10ZM7 14H41C41.552 14 42 14.448 42 15V15.96C42 16.512 41.661 17.253 41.244 17.615L26.267 30.595C25.016 31.68 22.984 31.68 21.733 30.595L6.756 17.615C6.339 17.253 6 16.512 6 15.96V15C6 14.448 6.448 14 7 14Z" fill="#9FEF00"/>
</svg>
