<svg width="64" height="65" viewBox="0 0 64 65" fill="none" xmlns="http://www.w3.org/2000/svg">
<g clip-path="url(#clip0_62_4656)">
<path fill-rule="evenodd" clip-rule="evenodd" d="M6.36389 30.756C6.24656 32.3227 4.87589 33.5013 3.30522 33.3867C1.73589 33.2733 0.557224 31.9027 0.674557 30.328C1.25989 22.4427 4.81056 15.056 10.6146 9.66534C16.4172 4.28934 24.0466 1.29468 31.9612 1.29468C40.2746 1.29468 48.2599 4.60268 54.1492 10.4787C60.0252 16.368 63.3332 24.3533 63.3332 32.6667C63.3332 40.98 60.0252 48.9653 54.1492 54.8547C48.2599 60.7307 40.2746 64.0387 31.9612 64.0387C30.3866 64.0387 29.1092 62.7613 29.1092 61.1867C29.1092 59.612 30.3866 58.3347 31.9612 58.3347C38.7626 58.3347 45.2946 55.6253 50.1146 50.82C54.9199 46 57.6292 39.4693 57.6292 32.6667C57.6292 25.864 54.9199 19.3333 50.1146 14.5133C45.2946 9.70801 38.7626 6.99868 31.9612 6.99868C25.4866 6.99868 19.2412 9.43735 14.4932 13.844C9.74389 18.2493 6.84922 24.296 6.36389 30.756ZM20.0252 55.3973C21.4186 56.1293 21.9559 57.8547 21.2239 59.248C20.4919 60.64 18.7666 61.1773 17.3732 60.4453C11.4412 57.3227 6.64922 52.3747 3.72656 46.3427C3.03322 44.9253 3.62122 43.216 5.03856 42.528C6.45456 41.8387 8.16789 42.4293 8.85989 43.8467C11.2559 48.7947 15.1626 52.8307 20.0252 55.3973ZM36.0266 32.6667L25.9999 39.8533V25.48L36.0266 32.6667ZM43.9732 32.6667L21.9999 46.8133V18.52L43.9732 32.6667Z" fill="#9FEF00"/>
</g>
<defs>
<clipPath id="clip0_62_4656">
<rect width="64" height="64" fill="white" transform="translate(0 0.666626)"/>
</clipPath>
</defs>
</svg>
