<svg width="64" height="65" viewBox="0 0 64 65" fill="none" xmlns="http://www.w3.org/2000/svg">
<g clip-path="url(#clip0_62_4646)">
<path fill-rule="evenodd" clip-rule="evenodd" d="M32.0001 25.5999C30.4001 25.5999 22.7521 31.5599 21.4428 31.5599C20.0348 31.5599 11.1775 28.1373 10.1601 28.8199C9.58948 30.0506 18.8375 39.7333 21.3548 39.7333C23.8255 39.7333 31.1508 34.5786 32.0001 34.5786C32.8495 34.5786 40.1748 39.7333 42.6455 39.7333C45.1615 39.7333 54.4095 30.0493 53.8401 28.8199C52.8228 28.1266 43.9655 31.5599 42.5575 31.5599C41.2481 31.5599 33.6001 25.5999 32.0001 25.5999ZM30.4748 58.3626C32.0708 58.4946 33.2615 59.8759 33.1295 61.4453C32.9988 63.0133 31.5908 64.1799 29.9855 64.0479C21.9481 63.3919 14.4468 59.7746 9.00148 53.9226C3.57214 48.0706 0.588143 40.4146 0.661477 32.4999C0.737477 24.1866 4.18548 16.2319 10.2335 10.3959C16.2935 4.57325 24.4695 1.33859 32.9495 1.41325C41.4295 1.48792 49.5441 4.86925 55.4961 10.7973C61.4348 16.7386 64.7348 24.7546 64.6588 33.0679C64.6441 34.6413 63.3295 35.9079 61.7228 35.8933C60.1175 35.8799 58.8255 34.5906 58.8401 33.0159C58.9028 26.2146 56.2001 19.6586 51.3428 14.7959C46.4708 9.94659 39.8348 7.17859 32.8961 7.11725C25.9588 7.05592 19.2721 9.70525 14.3121 14.4679C9.36548 19.2439 6.54148 25.7506 6.47881 32.5519C6.41881 39.0253 8.84948 45.2933 13.3001 50.0813C17.7495 54.8693 23.8908 57.8186 30.4748 58.3626ZM54.6535 44.9253C55.3975 43.5386 57.1281 43.0173 58.5148 43.7613C59.9001 44.5066 60.4215 46.2359 59.6775 47.6226C56.5015 53.5266 51.5095 58.2733 45.4508 61.1413C44.0281 61.8213 42.3241 61.2173 41.6495 59.7946C40.9735 58.3719 41.5801 56.6653 43.0028 55.9853C47.9721 53.6346 52.0428 49.7639 54.6535 44.9253Z" fill="#9FEF00"/>
</g>
<defs>
<clipPath id="clip0_62_4646">
<rect width="64" height="64" fill="white" transform="translate(0 0.666626)"/>
</clipPath>
</defs>
</svg>
