<svg width="64" height="65" viewBox="0 0 64 65" fill="none" xmlns="http://www.w3.org/2000/svg">
<path fill-rule="evenodd" clip-rule="evenodd" d="M28.6532 59.9999C29.7572 59.9999 30.6532 60.8959 30.6532 61.9999C30.6532 63.1039 29.7572 63.9999 28.6532 63.9999H3.33317C1.86117 63.9999 0.666504 62.8053 0.666504 61.3333V25.6133C0.666504 24.1413 1.55984 22.1533 2.65984 21.1746L22.7998 3.26659C23.6238 2.53859 24.8905 2.61592 25.6265 3.43992C26.3625 4.26392 26.2852 5.52525 25.4532 6.25325L4.6665 24.7466V59.9999H28.6532ZM36.6798 5.33325C35.5758 5.33325 34.6798 4.43725 34.6798 3.33325C34.6798 2.22925 35.5758 1.33325 36.6798 1.33325H61.9998C62.7358 1.33325 63.3332 1.93059 63.3332 2.66659V41.0533C63.3332 41.7893 62.8865 42.7839 62.3372 43.2719L41.1998 62.0666C40.3758 62.7946 39.1092 62.7173 38.3732 61.8933C37.6372 61.0693 37.7145 59.8079 38.5465 59.0799L59.3332 40.5866V5.33325H36.6798ZM29.9878 35.3666V45.5679H24.6052V19.7653H39.3945V24.2479H29.9878V30.9013H38.7412V35.3666H29.9878Z" fill="#9FEF00"/>
</svg>
