<svg width="64" height="65" viewBox="0 0 64 65" fill="none" xmlns="http://www.w3.org/2000/svg">
<path fill-rule="evenodd" clip-rule="evenodd" d="M16.3332 63.8999C16.5692 63.9666 16.8198 63.9999 17.0798 63.9999H55.8732C59.9905 63.9999 63.3332 60.6573 63.3332 56.5399V28.1906C63.3332 26.5439 61.9958 25.2066 60.3492 25.2066C58.7025 25.2066 57.3652 26.5439 57.3652 28.1906V53.5559C57.3652 56.0266 55.3598 58.0319 52.8892 58.0319H17.0798C16.8198 58.0319 16.5692 58.0653 16.3332 58.1319C16.0972 58.0653 15.8465 58.0319 15.5865 58.0319H11.1105C8.63984 58.0319 6.6345 56.0266 6.6345 53.5559V49.0799C6.6345 47.4319 5.29717 46.0946 3.6505 46.0946C2.00384 46.0946 0.666504 47.4319 0.666504 49.0799V56.5399C0.666504 60.6573 4.00917 63.9999 8.1265 63.9999H15.5865C15.8465 63.9999 16.0972 63.9666 16.3332 63.8999ZM20.9905 14.1519L13.4852 47.4466H19.5825L23.1252 32.5453H39.7718L24.1825 46.5013L28.2478 51.1813L30.3292 50.1093C34.2652 48.0853 35.9158 49.2679 38.9025 50.0973C41.8092 50.9039 44.5398 51.7666 50.2078 48.4999L49.0825 42.7346C42.8972 47.1319 40.9412 43.2079 36.5358 43.0533L49.1452 32.3826L50.5145 26.6853H24.0972L25.7985 19.8479H43.1132L44.2998 14.1519H20.9892H20.9905ZM48.4132 7.30125C46.7652 7.30125 45.4278 5.96392 45.4278 4.31725C45.4278 2.67059 46.7652 1.33325 48.4132 1.33325H55.8732C59.9905 1.33325 63.3332 4.67592 63.3332 8.79325V16.2533C63.3332 17.9013 61.9958 19.2386 60.3492 19.2386C58.7025 19.2386 57.3652 17.9013 57.3652 16.2533V11.7773C57.3652 9.30659 55.3598 7.30125 52.8892 7.30125H48.4132ZM6.6345 35.6506C6.6345 37.2973 5.29717 38.6346 3.6505 38.6346C2.00384 38.6346 0.666504 37.2973 0.666504 35.6506V8.79325C0.666504 4.67592 4.00917 1.33325 8.1265 1.33325H34.9838C36.6305 1.33325 37.9678 2.67059 37.9678 4.31725C37.9678 5.96392 36.6305 7.30125 34.9838 7.30125H11.1105C8.63984 7.30125 6.6345 9.30659 6.6345 11.7773V35.6506Z" fill="#9FEF00"/>
</svg>
