<svg width="128" height="128" viewBox="0 0 128 128" fill="none" xmlns="http://www.w3.org/2000/svg">
<path d="M114.343 89.464C114.792 88.831 115.398 86.8043 115.934 85.8983C119.19 80.6433 119.213 76.4534 119.213 76.3574C121.179 66.5353 121.001 62.5246 119.791 55.1074C118.817 49.1352 114.56 40.5791 110.872 36.459C107.071 32.2141 109.749 33.5972 106.069 30.4965C102.844 26.9211 99.7164 23.3805 98.0132 21.9566C85.7058 11.6673 85.9839 9.48178 86.2209 9.10916C86.1808 9.15295 86.1221 9.21798 86.0471 9.30308C85.9014 8.72203 85.7984 8.2334 85.7984 8.2334C85.7984 8.2334 79.0709 14.961 77.6545 26.1736C76.7299 33.4938 79.4702 41.1249 83.4379 46.0022C85.504 48.5299 87.8389 50.8253 90.4015 52.8478V52.8448C93.3994 57.1501 95.0494 62.4627 95.0494 68.1776C95.0494 82.4878 83.4425 94.0883 69.1244 94.0883C67.1731 94.0893 65.2278 93.8708 63.3253 93.4369C56.5698 92.1495 52.6688 88.7417 50.7232 86.4282C49.6082 85.1023 49.1341 84.1358 49.1341 84.1358C55.1869 86.3041 61.8794 85.8505 65.9493 83.6025C70.0506 81.3287 72.5321 79.6432 74.546 80.3078C76.5313 80.9694 78.1118 79.0488 76.6941 77.0578C75.3048 75.0696 71.6898 72.2222 66.3221 73.0111C62.216 73.6091 58.4547 76.5236 53.0747 73.701C52.7282 73.5209 52.3912 73.3232 52.0651 73.1085C51.7104 72.8994 53.218 73.4265 52.8661 73.189C51.8192 72.6793 49.9658 71.5687 49.4855 71.1738C49.4053 71.108 50.2979 71.4288 50.2172 71.3626C45.1868 67.6507 45.8148 65.1434 45.9731 63.5706C46.0997 62.3125 47.0134 60.7002 48.5531 60.0463C49.2966 60.41 49.76 60.6876 49.76 60.6876C49.76 60.6876 49.4427 60.1069 49.2713 59.8008C49.3313 59.778 49.3886 59.7837 49.4483 59.7608C50.0575 60.0243 51.4047 60.7085 52.1141 61.1264C53.0379 61.7103 53.3323 62.2309 53.3323 62.2309C53.3323 62.2309 53.5756 62.111 53.3956 61.6018C53.3299 61.393 53.0499 60.7295 52.1348 60.0598L52.1921 60.0656C52.7353 60.3425 53.2539 60.6652 53.7423 61.0302C54.0003 60.1897 54.4643 59.3121 54.3623 57.7421C54.2999 56.6383 54.3287 56.3523 54.1116 55.9261C53.9172 55.5602 54.2206 55.4172 54.5579 55.7977C54.4996 55.4976 54.4026 55.2063 54.2695 54.931L54.2724 54.9025C54.6938 53.5873 63.1876 50.1666 63.8059 49.7667C64.8021 49.1414 65.654 48.3114 66.3051 47.3318C66.7772 46.6573 67.133 45.7109 67.2196 44.2755C67.2486 43.6287 67.0495 43.1168 64.8 42.6272C63.4499 42.3333 61.3612 42.0474 58.1394 41.7451C55.7906 41.5378 54.4124 40.0129 53.6293 38.6056C53.4864 38.3024 53.3407 38.0272 53.195 37.7532C53.0564 37.4341 52.9446 37.1041 52.8608 36.7665C54.2663 33.0871 56.7974 29.9453 60.0934 27.7889C60.2823 27.6345 59.3381 27.8285 59.5269 27.6742C59.7474 27.4942 61.1867 26.9747 61.4587 26.8576C61.7907 26.7176 60.0371 26.0503 58.4892 26.2124C56.9127 26.3716 56.5779 26.5401 55.7364 26.8599C56.0857 26.5485 57.196 26.14 56.9357 26.1429C55.2361 26.3764 53.1234 27.2617 51.3176 28.2642C51.3143 28.0884 51.3516 27.9143 51.4267 27.7553C50.5853 28.075 48.5188 29.3692 47.9172 30.464C47.9431 30.2544 47.9547 30.0433 47.9519 29.8321C47.3183 30.3043 46.7403 30.8468 46.2287 31.4491L46.1972 31.4748C41.3171 29.7132 37.0227 29.5992 33.3886 30.389C32.5936 29.6736 31.3154 28.5919 29.5065 25.0305C29.3836 24.816 29.3176 25.4737 29.2232 25.262C28.5203 23.6316 28.0957 20.9606 28.1654 19.1191C28.1654 19.1191 26.7116 19.7817 25.5083 22.549C25.2849 23.0465 25.1416 23.3209 24.9984 23.5953C24.9325 23.6753 25.1477 22.6865 25.1134 22.7403C24.9042 23.0944 24.3632 23.5891 24.1254 24.2296C23.962 24.7042 23.7329 24.97 23.5867 25.5619L23.5523 25.6162C23.5405 25.4417 23.5956 24.8984 23.5555 25.0098C22.9915 26.1494 22.5061 27.3261 22.1028 28.5319C21.455 30.6618 20.7008 33.5611 20.5812 37.3326C20.5524 37.6186 20.578 37.9388 20.5521 38.1962C19.0177 39.9482 17.9722 41.4317 17.5769 42.2007C15.5933 45.266 13.4074 50.043 11.2884 57.5995C12.2312 55.5354 13.3585 53.5607 14.6567 51.6994C12.8947 55.7104 11.1914 62.0089 10.8509 71.7087C11.2786 69.7014 11.8253 67.7213 12.4882 65.7789C12.1839 72.2469 12.9373 80.2657 17.0262 89.3128C19.4541 94.6343 25.0428 105.441 38.6985 113.874L38.6973 113.875C38.6973 113.875 43.3429 117.333 51.3282 119.925C51.9184 120.139 52.5162 120.35 53.1263 120.555C52.9348 120.477 52.7497 120.396 52.5698 120.313C57.8849 121.905 63.4034 122.716 68.952 122.72C89.6281 122.738 95.7261 114.435 95.7261 114.435C95.7261 114.435 95.7046 114.451 95.6656 114.479C95.9573 114.205 96.2383 113.919 96.5086 113.623C93.2465 116.703 85.8018 116.908 83.0181 116.685C87.7655 115.291 90.8894 114.112 96.966 111.785C97.6771 111.521 98.4042 111.221 99.1474 110.883C99.2277 110.848 99.3088 110.81 99.3896 110.773C99.537 110.704 99.683 110.639 99.8318 110.567C102.792 109.172 105.576 107.429 108.125 105.375C114.227 100.501 115.554 95.7493 116.248 92.6165C116.152 92.9168 115.85 93.6168 115.638 94.0701C114.067 97.4318 110.582 99.4946 106.797 101.264C108.598 98.9006 110.268 96.4406 111.8 93.8947C113.035 92.6693 113.421 90.7522 114.343 89.464Z" stroke="url(#paint0_radial_11_299)" stroke-width="7.68411"/>
<defs>
<radialGradient id="paint0_radial_11_299" cx="0" cy="0" r="1" gradientUnits="userSpaceOnUse" gradientTransform="translate(65.7743 65.4768) scale(54.9233 57.2434)">
<stop stop-color="#9FEF00"/>
<stop offset="0.119792" stop-color="#9AE801"/>
<stop offset="0.244792" stop-color="#95E003"/>
<stop offset="0.354167" stop-color="#629313"/>
<stop offset="0.651042" stop-color="#1B2729"/>
<stop offset="0.984375" stop-color="#141D2B"/>
</radialGradient>
</defs>
</svg>
