<svg width="48" height="48" viewBox="0 0 48 48" fill="none" xmlns="http://www.w3.org/2000/svg">
<g clip-path="url(#clip0_11_296)">
<path d="M5.6833 16.8479L5.42738 17.8893M5.42738 17.8893C12.337 6.04309 23.2133 8.32122 23.2133 8.32122C10.9295 16.3923 16.3037 26.416 16.3037 26.416C15.9838 18.0195 21.6139 17.8242 21.6139 17.8242C18.9908 20.8834 20.1424 24.3332 20.1424 24.3332C21.358 29.4752 25.8364 29.8658 25.8364 29.8658C31.4025 31.493 35.4971 27.2622 35.4971 27.2622C40.1675 21.6645 37.6724 15.1556 37.6724 15.1556C35.362 7.60408 29.2897 5.34089 28.2891 4.67886C20.2279 0.765229 12.5408 5.33061 12.5408 5.33061C16.0596 2.9874 19.4935 2.79551 19.4935 2.79551M5.42738 17.8893C5.42738 17.8893 6.38706 12.9425 6.96286 11.055C6.96286 11.055 -0.458609 16.5875 2.42041 30.9072C2.42041 30.9072 4.97954 39.8244 13.6806 44.5108C13.6806 44.5108 22.5096 50.0434 34.0896 44.1203C34.0896 44.1203 40.0396 41.5167 43.4304 34.0966C43.4304 34.0966 47.525 25.3095 44.3261 16.9781C44.3261 16.9781 40.4874 6.82416 31.6584 3.63479C31.6584 3.63479 24.1143 0.705782 16.1757 3.63479M32.8101 29.1489C32.8101 29.1489 46.7572 24.2522 38.2482 7.99516" stroke="#9FEF00" stroke-width="3.52314" stroke-linecap="round" stroke-linejoin="round"/>
</g>
<defs>
<clipPath id="clip0_11_296">
<rect width="48" height="48" fill="white"/>
</clipPath>
</defs>
</svg>
