<svg width="64" height="64" viewBox="0 0 64 64" fill="none" xmlns="http://www.w3.org/2000/svg">
<g clip-path="url(#clip0_62_4628)">
<path d="M34.4387 28.5573C50.0667 25.5226 50.6667 18.6666 50.6667 18.6666C50.6667 18.6666 49.436 39.916 38.0147 41.04C23.5413 42.4653 21.3787 49.3333 21.3787 49.3333C21.3787 49.3333 21.0827 47.128 21.996 44.2506C23.8227 38.492 28.3107 29.748 34.4387 28.5573Z" fill="#9FEF00"/>
<path d="M24.508 28.0174C37.512 22.4374 36.3213 13.3334 36.3213 13.3334C36.3213 13.3334 43.5013 31.9054 32.7373 36.2347C20.7147 41.072 21.2493 49.3334 21.2493 49.3334C21.2493 49.3334 16.8707 31.2947 24.508 28.0174Z" fill="#141D2B"/>
<path d="M17.1666 32.668C24.4453 22.872 22.8079 16 22.8079 16C22.8079 16 32.1333 27.936 25.7879 35.3293C18.6999 43.588 21.3573 49.3333 21.3573 49.3333C21.3573 49.3333 12.9933 38.288 17.1666 32.668Z" fill="#A4B1CD"/>
<path fill-rule="evenodd" clip-rule="evenodd" d="M6.36401 30.0894C6.24668 31.6561 4.87601 32.8347 3.30535 32.7201C1.73601 32.6067 0.557346 31.2361 0.674679 29.6614C1.26001 21.7761 4.81068 14.3894 10.6147 8.99872C16.4173 3.62272 24.0467 0.628052 31.9613 0.628052C40.2747 0.628052 48.26 3.93605 54.1493 9.81205C60.0253 15.7014 63.3333 23.6867 63.3333 32.0001C63.3333 40.3134 60.0253 48.2987 54.1493 54.1881C48.26 60.0641 40.2747 63.3721 31.9613 63.3721C30.3867 63.3721 29.1093 62.0947 29.1093 60.5201C29.1093 58.9454 30.3867 57.6681 31.9613 57.6681C38.7627 57.6681 45.2947 54.9587 50.1147 50.1534C54.92 45.3334 57.6293 38.8027 57.6293 32.0001C57.6293 25.1974 54.92 18.6667 50.1147 13.8467C45.2947 9.04139 38.7627 6.33205 31.9613 6.33205C25.4867 6.33205 19.2413 8.77072 14.4933 13.1774C9.74401 17.5827 6.84935 23.6294 6.36401 30.0894ZM20.0253 54.7307C21.4187 55.4627 21.956 57.1881 21.224 58.5814C20.492 59.9734 18.7667 60.5107 17.3733 59.7787C11.4413 56.6561 6.64935 51.7081 3.72668 45.6761C3.03335 44.2587 3.62135 42.5494 5.03868 41.8614C6.45468 41.1721 8.16801 41.7627 8.86001 43.18C11.256 48.128 15.1627 52.1641 20.0253 54.7307Z" fill="#9FEF00"/>
</g>
<defs>
<clipPath id="clip0_62_4628">
<rect width="64" height="64" fill="white"/>
</clipPath>
</defs>
</svg>
