<svg width="64" height="64" viewBox="0 0 64 64" fill="none" xmlns="http://www.w3.org/2000/svg">
<g clip-path="url(#clip0_11_282)">
<path fill-rule="evenodd" clip-rule="evenodd" d="M4.46533 26.844V18.604C4.46533 17.22 5.016 15.896 5.99867 14.928C6.96533 13.9467 8.29067 13.396 9.67467 13.396H10.4187V5.41733C10.4187 3.98933 10.984 2.604 12.0107 1.592C13.0227 0.565333 14.408 0 15.836 0H58.5827C60.0107 0 61.396 0.565333 62.408 1.592C63.4347 2.604 64 3.98933 64 5.41733V48.164C64 49.592 63.4347 50.9773 62.408 51.9893C61.396 53.016 60.0107 53.5813 58.5827 53.5813H50.604V54.3253C50.604 55.7093 50.0533 57.0347 49.072 58.0013C48.104 58.984 46.78 59.5347 45.396 59.5347H37.156C36.996 60.6427 36.4813 61.6747 35.676 62.4667C34.7093 63.4493 33.384 64 32 64H5.20933C3.82533 64 2.5 63.4493 1.53333 62.4667C0.550667 61.5 0 60.1747 0 58.7907V32C0 30.616 0.550667 29.2907 1.53333 28.324C2.32533 27.5187 3.35733 27.004 4.46533 26.844ZM8.93067 26.7907V18.604C8.93067 18.4107 9.004 18.2173 9.15333 18.084C9.288 17.9347 9.48133 17.86 9.67467 17.86H45.396C45.5893 17.86 45.7827 17.9347 45.916 18.084C46.0653 18.2173 46.14 18.4107 46.14 18.604V54.3253C46.14 54.5187 46.0653 54.712 45.916 54.8467C45.7827 54.996 45.5893 55.0693 45.396 55.0693H37.2093V32C37.2093 30.616 36.6587 29.2907 35.676 28.324C34.7093 27.3413 33.384 26.7907 32 26.7907H8.93067ZM14.884 13.396H45.396C46.78 13.396 48.104 13.9467 49.072 14.928C50.0533 15.896 50.604 17.22 50.604 18.604V49.116H58.5827C58.836 49.116 59.0733 49.012 59.252 48.8333C59.4307 48.6547 59.5347 48.4173 59.5347 48.164V5.41733C59.5347 5.164 59.4307 4.92667 59.252 4.748C59.0733 4.56933 58.836 4.46533 58.5827 4.46533H15.836C15.5827 4.46533 15.3453 4.56933 15.1667 4.748C14.988 4.92667 14.884 5.164 14.884 5.41733V13.396ZM11.1627 36.4653V55.8133H15.628V48.372H26.0467V45.396H15.628V39.4413H26.0467V36.4653H15.628H11.1627ZM5.20933 31.256H32C32.1933 31.256 32.3867 31.3307 32.5213 31.4787C32.6693 31.6133 32.744 31.8067 32.744 32V58.7907C32.744 58.984 32.6693 59.1773 32.5213 59.312C32.3867 59.46 32.1933 59.5347 32 59.5347H5.20933C5.016 59.5347 4.82267 59.46 4.688 59.312C4.54 59.1773 4.46533 58.984 4.46533 58.7907V32C4.46533 31.8067 4.54 31.6133 4.688 31.4787C4.82267 31.3307 5.016 31.256 5.20933 31.256Z" fill="#9FEF00"/>
</g>
<defs>
<clipPath id="clip0_11_282">
<rect width="64" height="64" fill="white"/>
</clipPath>
</defs>
</svg>
