<svg width="64" height="65" viewBox="0 0 64 65" fill="none" xmlns="http://www.w3.org/2000/svg">
<path fill-rule="evenodd" clip-rule="evenodd" d="M12.5332 10.2533C11.5692 11.1067 10.0932 11.0173 9.23988 10.0533C8.38655 9.08933 8.47588 7.61333 9.43988 6.76C13.6399 3.05333 19.0666 1 24.6666 1C30.7599 1 36.6132 3.42667 40.9332 7.73333C45.2399 12.0533 47.6666 17.9067 47.6666 24C47.6666 30.0933 45.2399 35.9467 40.9332 40.2667C36.6132 44.5733 30.7599 47 24.6666 47C18.5999 47 12.7732 44.6 8.46655 40.3333C4.15988 36.0667 1.71988 30.2533 1.66655 24.1867C1.65855 22.8987 2.69855 21.844 3.98655 21.8333C5.27455 21.8227 6.32522 22.8587 6.33322 24.1467C6.37322 28.9867 8.31988 33.6133 11.7599 37.0133C15.1865 40.4267 19.8266 42.3333 24.6666 42.3333C29.5332 42.3333 34.1999 40.4 37.6265 36.96C41.0665 33.5333 42.9999 28.8667 42.9999 24C42.9999 19.1333 41.0665 14.4667 37.6265 11.04C34.1999 7.6 29.5332 5.66667 24.6666 5.66667C20.1999 5.66667 15.8799 7.30667 12.5332 10.2533ZM7.51988 17.5067C7.06388 18.7133 5.71322 19.3227 4.50655 18.8667C3.29988 18.4107 2.69055 17.06 3.14655 15.8533C3.47988 15.0133 3.85322 14.1733 4.26655 13.3733C4.86255 12.2253 6.27588 11.78 7.41988 12.38C8.56388 12.98 9.00388 14.3933 8.39988 15.5333C8.06655 16.1733 7.77322 16.84 7.51988 17.5067ZM45.2399 41.44C44.3719 40.484 44.4399 39.0053 45.3932 38.14C46.3465 37.276 47.8252 37.344 48.6932 38.2933L58.3866 48.9867C59.4399 50.1333 60.0132 51.6267 60.0132 53.1733C60.0132 54.9867 59.2266 56.72 57.8532 57.8933L56.2532 59.28C55.0799 60.2933 53.5866 60.84 52.0532 60.84C50.2399 60.84 48.5066 60.08 47.2932 58.7467C47.2932 58.7467 47.2932 58.7467 47.2799 58.7467L37.5866 48.0533C36.7186 47.0973 36.7866 45.6187 37.7399 44.7533C38.6932 43.888 40.1719 43.964 41.0399 44.92L50.7332 55.6C51.0799 55.9733 51.5466 56.1733 52.0532 56.1733C52.4666 56.1733 52.8799 56.0267 53.1999 55.7467L54.7999 54.36C55.1465 54.0667 55.3465 53.64 55.3465 53.1733C55.3465 52.7867 55.1999 52.4133 54.9466 52.12C54.9332 52.12 54.9332 52.12 54.9332 52.12L45.2399 41.44ZM35.5919 26.0213V25.0107L34.2959 25.0547C33.3217 25.084 32.5963 25.2596 32.1199 25.5813C31.6443 25.904 31.4066 26.3947 31.4066 27.0533C31.4066 27.9982 31.9483 28.4707 33.0319 28.4707C33.8079 28.4707 34.4288 28.2471 34.8946 27.8C35.3594 27.3538 35.5919 26.7609 35.5919 26.0213ZM38.9199 30.7H36.5799L35.9319 29.0307H35.8439C35.2803 29.7409 34.6999 30.2333 34.1026 30.508C33.5061 30.7827 32.7283 30.92 31.7692 30.92C30.5897 30.92 29.6612 30.5831 28.9839 29.9093C28.3066 29.2356 27.9679 28.2764 27.9679 27.032C27.9679 25.728 28.4239 24.7667 29.3359 24.148C30.2479 23.5293 31.623 23.1871 33.4612 23.1213L35.5919 23.0547V22.5173C35.5919 21.272 34.9546 20.6493 33.6799 20.6493C32.6986 20.6493 31.5452 20.9458 30.2199 21.5387L29.1106 19.276C30.5239 18.5364 32.091 18.1667 33.8119 18.1667C35.4599 18.1667 36.723 18.5258 37.6012 19.244C38.4803 19.9613 38.9199 21.0524 38.9199 22.5173V30.7ZM16.4759 24.0213H20.6612C19.5848 20.5582 18.979 18.5996 18.8439 18.1453C18.7079 17.6911 18.611 17.332 18.5532 17.068C18.3114 18.0058 17.619 20.3236 16.4759 24.0213ZM26.3079 30.7H22.6386L21.4746 26.8773H15.6199L14.4559 30.7H10.7866L16.4545 14.5747H20.6172L26.3079 30.7Z" fill="#9FEF00"/>
</svg>
