<svg width="64" height="64" viewBox="0 0 64 64" fill="none" xmlns="http://www.w3.org/2000/svg">
<path fill-rule="evenodd" clip-rule="evenodd" d="M36.9628 42.8667C35.4415 42.8667 34.2068 41.672 34.2068 40.2C34.2068 38.728 35.4415 37.5334 36.9628 37.5334H59.2668C61.5122 37.5334 63.3335 39.3547 63.3335 41.6V47.3334C63.3335 50.52 62.0242 53.5734 59.6962 55.8134C57.3815 58.0667 54.2268 59.3334 50.9335 59.3334H13.7335C10.4402 59.3334 7.2855 58.0667 4.97083 55.8134C2.64283 53.5734 1.3335 50.52 1.3335 47.3334V16.6667C1.3335 13.48 2.64283 10.4267 4.97083 8.18669C7.2855 5.93335 10.4402 4.66669 13.7335 4.66669H50.9335C54.2268 4.66669 57.3815 5.93335 59.6962 8.18669C62.0242 10.4267 63.3335 13.48 63.3335 16.6667V22.4534C63.3335 23.9254 62.0988 25.12 60.5775 25.12C59.0575 25.12 57.8228 23.9254 57.8228 22.4534V16.6667C57.8228 14.8934 57.0922 13.2 55.8108 11.9467C54.5162 10.7067 52.7655 10 50.9335 10H13.7335C11.9015 10 10.1508 10.7067 8.85616 11.9467C7.57483 13.2 6.84416 14.8934 6.84416 16.6667V47.3334C6.84416 49.1067 7.57483 50.8 8.85616 52.0534C10.1508 53.2934 11.9015 54 13.7335 54H50.9335C52.7655 54 54.5162 53.2934 55.8108 52.0534C57.0922 50.8 57.8228 49.1067 57.8228 47.3334V42.8667H36.9628ZM17.1575 16.2C16.6762 16.2 16.2148 16.4254 15.8735 16.8267C15.5335 17.2294 15.3428 17.7747 15.3428 18.3427C15.3428 18.912 15.5335 19.4574 15.8735 19.8587C16.2148 20.2614 16.6762 20.4867 17.1575 20.4867C18.1588 20.4854 18.9708 19.5254 18.9695 18.3427C18.9708 17.16 18.1588 16.2014 17.1575 16.2ZM20.5815 17.6294C19.9468 17.6654 19.4468 18.2934 19.4468 19.056C19.4468 19.436 19.5722 19.7987 19.7948 20.0667C20.0175 20.336 20.3215 20.4867 20.6362 20.4867C20.9535 20.4867 21.2562 20.336 21.4802 20.068C21.7042 19.8 21.8295 19.436 21.8295 19.056C21.8295 18.6774 21.7028 18.3147 21.4802 18.0467C21.2562 17.7787 20.9522 17.6294 20.6362 17.6294C20.6188 17.6294 20.6002 17.6294 20.5815 17.6294ZM23.2255 19.2707C22.7108 19.2894 22.3028 19.768 22.3028 20.3534C22.3042 20.6414 22.4042 20.916 22.5828 21.12C22.7615 21.3227 23.0042 21.4374 23.2562 21.4374C23.5095 21.4374 23.7522 21.3227 23.9308 21.12C24.1095 20.916 24.2095 20.6414 24.2095 20.3534C24.2095 20.0654 24.1095 19.7907 23.9308 19.5867C23.7522 19.384 23.5095 19.2694 23.2562 19.2707C23.2468 19.2694 23.2362 19.2694 23.2255 19.2707ZM25.2935 20.9627C24.8855 20.9907 24.5668 21.3627 24.5668 21.812C24.5668 22.0374 24.6482 22.2547 24.7922 22.4134C24.9375 22.5734 25.1348 22.6627 25.3402 22.6627C25.5455 22.6627 25.7415 22.5734 25.8868 22.4134C26.0322 22.2547 26.1135 22.0374 26.1135 21.812C26.1122 21.3427 25.7668 20.9627 25.3402 20.9627C25.3242 20.9627 25.3082 20.9627 25.2935 20.9627ZM17.3508 21.5334C16.1815 21.5494 15.4108 21.8267 14.6655 22.5587C13.3028 23.8974 13.5802 25.7974 15.3682 27.4267C19.2442 30.9574 19.7095 33.3227 16.0015 35.992C14.4748 37.0907 13.3695 39.672 13.8455 41.0254C14.4442 42.7294 16.7242 43.3827 18.7148 42.4214C20.5815 41.52 22.6975 38.4347 24.1388 34.7494C24.2602 34.4427 24.3775 34.132 24.4882 33.8174C24.8188 32.872 25.1002 31.8987 25.3242 30.9214C26.0002 27.9707 25.8362 25.6734 24.8482 24.2934C24.2308 23.432 21.9455 22.3254 19.9655 21.832C19.5082 21.7187 19.0655 21.636 18.6655 21.5987C18.1735 21.552 17.7402 21.528 17.3508 21.5334ZM26.4108 22.8667C26.0695 22.88 25.7988 23.196 25.7988 23.58C25.7975 23.9747 26.0802 24.2947 26.4308 24.296C26.6002 24.296 26.7615 24.2214 26.8815 24.0867C27.0002 23.952 27.0668 23.7694 27.0668 23.58C27.0668 23.3907 26.9988 23.2094 26.8802 23.0747C26.7615 22.9414 26.5988 22.8667 26.4308 22.8667C26.4242 22.8667 26.4175 22.8667 26.4108 22.8667Z" fill="#9FEF00"/>
</svg>
