<svg width="64" height="64" viewBox="0 0 64 64" fill="none" xmlns="http://www.w3.org/2000/svg">
<g clip-path="url(#clip0_62_4614)">
<path fill-rule="evenodd" clip-rule="evenodd" d="M40.2933 6.65333C41.692 7.10933 43.1973 6.34533 43.6533 4.94667C44.1093 3.548 43.3453 2.04267 41.9467 1.58667C38.7467 0.533333 35.4 0 32.04 0C20.9067 0 10.5333 5.78667 4.72 15.28C1.64 20.2933 0 26.08 0 31.96C0 43.0933 5.78667 53.4667 15.28 59.28C20.2933 62.36 26.0667 64 31.96 64C43.0933 64 53.4667 58.2133 59.28 48.72C62.36 43.7067 64 37.9333 64 32.04C64 24.52 61.36 17.2267 56.5467 11.4533C55.5973 10.328 53.9093 10.1787 52.78 11.12C51.6507 12.0613 51.504 13.7467 52.4533 14.88C56.4667 19.6933 58.6667 25.76 58.6667 32.04C58.6667 36.9333 57.3067 41.7467 54.7333 45.9333C49.88 53.84 41.24 58.6667 31.96 58.6667C27.0533 58.6667 22.2533 57.3067 18.0667 54.7333C10.16 49.88 5.33333 41.24 5.33333 31.96C5.33333 27.0667 6.69333 22.2533 9.26667 18.0667C14.12 10.16 22.76 5.33333 32.04 5.33333C34.84 5.33333 37.6267 5.77333 40.2933 6.65333ZM42.052 40.892C41.5707 40.892 41.0867 40.8653 40.604 40.8107V44.0347C40.604 45.056 41.6933 45.6 43.192 45.6C44.6907 45.6 48.096 45.8733 49.4587 43.4893C50.1587 42.2627 50.6067 40.8933 50.8773 39.7453C48.4947 40.496 45.5067 40.892 42.052 40.892ZM46.6867 30.012C47.6253 30.7427 49.6893 31.432 50.9867 31.4573C50.8413 28.044 50.684 24.1987 50.684 22.92C50.684 20.536 50.7533 18.3907 50.0027 18.3907C48.096 18.3907 48.5733 26.6653 46.1893 28.7093C46.04 28.8373 45.8867 28.9773 45.732 29.1307C46.092 29.4933 46.4227 29.8067 46.6867 30.012ZM13.548 31.416C14.8227 31.2547 16.496 30.648 17.3133 30.012C17.6387 29.7587 18.0653 29.3427 18.524 28.8693C18.464 28.8147 18.4027 28.76 18.344 28.7093C15.96 26.6653 16.436 18.3893 14.5293 18.3893C13.78 18.3893 13.848 20.536 13.848 22.92C13.848 24.1933 13.692 28.0133 13.548 31.416ZM21.948 40.892C18.7653 40.892 15.9787 40.5573 13.6973 39.9173C13.9707 41.028 14.408 42.324 15.0747 43.4893C16.436 45.8733 19.8427 45.6 21.34 45.6C22.8387 45.6 23.9293 45.056 23.9293 44.0347V40.7413C23.268 40.8413 22.6067 40.892 21.948 40.892ZM53.2987 32.968C52.8947 32.968 52.4667 33.1067 52.0253 33.38C51.9613 33.4187 51.7053 33.5453 51.0573 33.5453C49.3067 33.5453 46.7187 32.6827 45.4053 31.66C44.7493 31.1493 43.936 30.2867 43.0747 29.3747C41.2653 27.4547 39.5547 25.64 38.076 25.64C37.024 25.64 35.8133 26.1307 34.6413 26.6053C33.6653 27 32.656 27.408 32 27.408C31.344 27.408 30.3347 27 29.3587 26.6053C28.188 26.1307 26.976 25.64 25.924 25.64C24.4453 25.64 22.7347 27.4547 20.9253 29.3747C20.064 30.288 19.2507 31.1493 18.5947 31.66C17.2813 32.6813 14.6933 33.5453 12.9427 33.5453C12.2947 33.5453 12.0387 33.4187 11.9747 33.38C11.5333 33.1067 11.1053 32.968 10.7013 32.968C10.1307 32.968 9.64933 33.2667 9.44533 33.7467C9.19333 34.3387 9.40267 35.0667 10.0053 35.6933C11.9107 37.6707 16.2627 38.8053 21.948 38.8053C25.68 38.8053 29.0493 36.8467 30.9587 35.0147C31.3467 34.6427 31.8507 34.624 31.948 34.624H31.952L31.9693 34.6307L32.0387 34.624H32.052C32.1493 34.624 32.6547 34.6427 33.0413 35.0147C34.9507 36.8467 38.32 38.8053 42.052 38.8053C47.7373 38.8053 52.0893 37.6707 53.9947 35.6933C54.5973 35.0667 54.8067 34.3387 54.5547 33.7467C54.3507 33.2667 53.8693 32.968 53.2987 32.968Z" fill="#9FEF00"/>
</g>
<defs>
<clipPath id="clip0_62_4614">
<rect width="64" height="64" fill="white"/>
</clipPath>
</defs>
</svg>
