<svg width="64" height="64" viewBox="0 0 64 64" fill="none" xmlns="http://www.w3.org/2000/svg">
<path fill-rule="evenodd" clip-rule="evenodd" d="M38.3321 38.264C39.1748 39.0614 40.0908 39.7814 41.0681 40.4134C41.1001 40.5854 41.1228 40.7574 41.1401 40.9307H22.8481C22.8521 40.8814 22.8548 40.8307 22.8588 40.78C23.1254 40.6147 23.3921 40.4494 23.6534 40.2734C24.5334 39.6774 25.3641 39.0107 26.1268 38.264H38.3321ZM35.3534 34.6707L32.0241 29.66L29.3721 34.0774C29.2521 34.276 29.1294 34.4747 29.0054 34.6707H35.3534ZM40.5068 44.9307C40.4494 45.068 40.3894 45.204 40.3241 45.3374C39.9441 46.1214 39.5094 46.876 39.0254 47.5974H25.1454C24.6134 46.9267 24.1454 46.204 23.7481 45.44C23.6614 45.272 23.5814 45.1027 23.5068 44.9307H40.5068ZM36.3174 51.5974C36.1828 51.8054 36.0441 52.0094 35.9014 52.212C35.5241 52.748 35.1041 53.2414 34.6254 53.6907C34.3054 53.9814 33.9441 54.2134 33.5668 54.4014C33.3054 54.504 33.0294 54.576 32.7548 54.576C32.4348 54.5614 32.1308 54.504 31.8401 54.388C31.3761 54.184 30.9414 53.9227 30.5348 53.604C29.9548 53.14 29.4041 52.632 28.9108 52.0667C28.7774 51.912 28.6454 51.7547 28.5148 51.5974H36.3174ZM25.9481 20.9267H38.1588L38.4934 19.1667C38.6001 18.6067 38.6534 18.0467 38.6534 17.4867C38.6668 15.4467 37.9468 13.4734 36.6134 11.9267C36.0268 11.26 35.3068 10.7134 34.4934 10.3267C33.7201 9.95336 32.8668 9.76669 32.0001 9.76669C31.1334 9.76669 30.2801 9.95336 29.5068 10.3267C28.6934 10.7134 27.9734 11.26 27.3868 11.9267C26.0534 13.4734 25.3334 15.4467 25.3468 17.4867C25.3468 18.2467 25.4401 19.0067 25.6401 19.7534L25.9481 20.9267ZM35.4361 25.8707H54.9788C54.9961 25.8707 54.9961 25.8707 55.0121 25.8707C55.6388 25.8707 56.2481 25.936 56.8574 26.1014C57.2201 26.2 57.5668 26.3654 57.8628 26.596C58.2414 26.892 58.4561 27.3534 58.4561 27.848C58.4561 28.2107 58.3908 28.5894 58.2748 28.936C58.0934 29.4627 57.8468 29.9734 57.5494 30.452C57.5334 30.468 57.5334 30.468 57.5334 30.468L56.7761 31.688C56.7588 31.704 56.7588 31.72 56.7428 31.7374C55.6721 33.516 54.2214 35.0494 52.4908 36.2027C51.1894 37.06 49.6574 37.5374 48.1081 37.5534C46.5588 37.5374 45.0761 37.092 43.7734 36.268C42.0601 35.164 40.5934 33.6974 39.5054 31.984C39.4894 31.968 39.4894 31.9507 39.4734 31.9347L35.4361 25.8707ZM28.5308 25.8707L25.1361 31.5387C25.1361 31.5387 25.1361 31.5387 25.1201 31.556C24.5441 32.528 23.8681 33.4507 23.0934 34.2907C22.4348 35 21.7094 35.6254 20.9014 36.1694C19.5828 37.0427 18.0508 37.5214 16.4694 37.5534C14.9694 37.5214 13.4868 37.092 12.2014 36.3014C10.5041 35.2134 9.05343 33.7974 7.93343 32.116C7.93343 32.1 7.9161 32.0827 7.9161 32.0667L6.59876 30.1387C6.58143 30.1387 6.58143 30.1387 6.58143 30.1214C6.2361 29.644 5.9561 29.1174 5.75743 28.5734C5.62543 28.2267 5.5601 27.8814 5.5441 27.5187C5.5441 27.14 5.72543 26.7774 6.03743 26.5294C6.33476 26.332 6.6481 26.184 6.99343 26.0854C7.58676 25.936 8.1961 25.8707 8.80676 25.8707C8.82276 25.8707 8.82277 25.8707 8.83877 25.8707H28.5308ZM24.0974 9.65203C22.2934 11.8614 21.3214 14.6387 21.3468 17.5C21.3468 18.6067 21.4934 19.7 21.7734 20.7667L21.8148 20.9267H8.8561C7.81743 20.9107 6.7801 21.0427 5.75743 21.3054C4.81876 21.5534 3.9121 21.9654 3.12143 22.5414C1.52276 23.728 0.600098 25.5907 0.600098 27.568C0.616098 28.5067 0.797431 29.4294 1.12676 30.32C1.47343 31.2427 1.95076 32.132 2.5281 32.956L3.82943 34.8507C5.32943 37.1094 7.27343 39.0374 9.58143 40.4867C11.6401 41.772 14.0308 42.464 16.4694 42.4974C17.1481 42.488 17.8241 42.428 18.4868 42.296C18.5948 44.092 19.0628 45.8414 19.8761 47.4414C20.8334 49.2827 22.1094 50.9507 23.6321 52.372C24.2561 53.256 24.9228 54.112 25.6481 54.924C26.3001 55.692 27.0401 56.3894 27.8228 57.012C28.5334 57.5774 29.3321 58.0427 30.1734 58.404C30.5721 58.568 30.9841 58.6934 31.4068 58.78V60.62C31.4068 61.356 32.0041 61.9534 32.7401 61.9534C33.4761 61.9534 34.0734 61.356 34.0734 60.62V58.7814C34.5161 58.6854 34.9494 58.5427 35.3641 58.3614C36.1774 57.984 36.9308 57.476 37.5841 56.8667C38.2948 56.2147 38.9174 55.4894 39.4694 54.692C40.0348 53.88 40.5561 53.0387 41.0201 52.1534C42.2974 50.66 43.3841 48.992 44.2401 47.2227C44.9854 45.6534 45.4241 43.9547 45.5161 42.2227C46.3601 42.3987 47.2228 42.492 48.0908 42.4974C50.6294 42.4814 53.1014 41.7227 55.2268 40.3227C57.5668 38.7734 59.5268 36.6974 60.9774 34.2907L61.7188 33.104C62.2294 32.2974 62.6414 31.424 62.9548 30.5334C63.2348 29.6774 63.4001 28.7867 63.4001 27.8814C63.4161 25.8547 62.4774 23.9267 60.8788 22.6734C60.0708 22.064 59.1481 21.6027 58.1601 21.3387C57.1214 21.0587 56.0508 20.9107 54.9628 20.9267H42.2321L42.4268 19.9C42.5734 19.1134 42.6534 18.3134 42.6534 17.5C42.6788 14.6387 41.7068 11.8614 39.9028 9.65203C40.2508 9.30269 40.5988 8.95469 40.9601 8.62003C41.5601 8.06003 42.2134 7.55336 42.9068 7.11336C43.9201 6.46003 45.0934 6.08669 46.3068 6.04669C46.7201 6.06003 47.1201 6.10003 47.5201 6.20669C48.5948 6.46403 49.6788 5.80403 49.9401 4.73336C50.2014 3.66269 49.5468 2.57869 48.4801 2.31336C47.7468 2.14003 47.0134 2.04669 46.2668 2.04669C44.3068 2.10003 42.4001 2.68669 40.7601 3.75336C39.8534 4.31336 39.0001 4.98003 38.2268 5.70003C37.7574 6.14003 37.3081 6.59603 36.8641 7.05603C36.6548 6.93869 36.4428 6.82936 36.2268 6.72669C34.9068 6.08669 33.4668 5.76669 32.0001 5.75336C30.5334 5.76669 29.0934 6.08669 27.7734 6.72669C27.5574 6.82936 27.3454 6.93869 27.1361 7.05603C26.6921 6.59603 26.2428 6.14003 25.7734 5.70003C25.0001 4.98003 24.1468 4.31336 23.2401 3.75336C21.6001 2.68669 19.6934 2.10003 17.7334 2.04669C16.9868 2.04669 16.2534 2.14003 15.5201 2.31336C14.4534 2.57869 13.7988 3.66269 14.0601 4.73336C14.3214 5.80403 15.4054 6.46403 16.4801 6.20669C16.8801 6.10003 17.2801 6.06003 17.6934 6.04669C18.9068 6.08669 20.0801 6.46003 21.0934 7.11336C21.7868 7.55336 22.4401 8.06003 23.0401 8.62003C23.4014 8.95469 23.7494 9.30269 24.0974 9.65203Z" fill="#9FEF00"/>
</svg>
