<svg width="64" height="64" viewBox="0 0 64 64" fill="none" xmlns="http://www.w3.org/2000/svg">
<path fill-rule="evenodd" clip-rule="evenodd" d="M32.7906 51.7772C32.7906 50.9039 33.4999 50.1946 34.3732 50.1946C35.2466 50.1946 35.9559 50.9039 35.9559 51.7772C35.9559 52.6506 35.2466 53.3586 34.3732 53.3586C33.4999 53.3586 32.7906 52.6506 32.7906 51.7772ZM43.0746 51.7772C43.0746 50.9039 43.7839 50.1946 44.6572 50.1946C45.5306 50.1946 46.2399 50.9039 46.2399 51.7772C46.2399 52.6506 45.5306 53.3586 44.6572 53.3586C43.7839 53.3586 43.0746 52.6506 43.0746 51.7772ZM38.3292 54.9412C38.3292 54.0679 39.0372 53.3586 39.9106 53.3586C40.7839 53.3586 41.4932 54.0679 41.4932 54.9412C41.4932 55.8146 40.7839 56.5239 39.9106 56.5239C39.0372 56.5239 38.3292 55.8146 38.3292 54.9412ZM37.5372 43.8652C37.5372 43.4386 37.7119 43.0426 37.9959 42.7426C38.2972 42.4572 38.6919 42.2839 39.1199 42.2839C39.5466 42.2839 39.9426 42.4572 40.2426 42.7426C40.5279 43.0426 40.7026 43.4386 40.7026 43.8652C40.7026 44.2932 40.5279 44.6892 40.2426 44.9892C39.9426 45.2746 39.5466 45.4479 39.1199 45.4479C38.6919 45.4479 38.2972 45.2746 37.9959 44.9892C37.7119 44.6892 37.5372 44.2932 37.5372 43.8652ZM20.9252 50.1946C20.9252 49.3559 21.2572 48.5492 21.8586 47.9639C22.4439 47.3626 23.2506 47.0306 24.0892 47.0306C24.9279 47.0306 25.7346 47.3626 26.3199 47.9639C26.9212 48.5492 27.2532 49.3559 27.2532 50.1946C27.2532 51.0332 26.9212 51.8399 26.3199 52.4252C25.7346 53.0266 24.9279 53.3586 24.0892 53.3586C23.2506 53.3586 22.4439 53.0266 21.8586 52.4252C21.2572 51.8399 20.9252 51.0332 20.9252 50.1946ZM34.3732 43.8652C34.3732 41.2466 36.4999 39.1199 39.1199 39.1199C41.7399 39.1199 43.8666 41.2466 43.8666 43.8652C43.8666 46.4852 41.7399 48.6119 39.1199 48.6119C36.4999 48.6119 34.3732 46.4852 34.3732 43.8652ZM17.7599 50.1946C17.7599 46.7012 20.5959 43.8652 24.0892 43.8652C27.5826 43.8652 30.4172 46.7012 30.4172 50.1946C30.4172 53.6879 27.5826 56.5239 24.0892 56.5239C20.5959 56.5239 17.7599 53.6879 17.7599 50.1946ZM15.8612 39.8946L13.5039 39.5786L15.8612 35.4172L16.4946 35.1799C17.6332 35.3386 18.7892 35.4172 19.9439 35.4172C21.6679 35.4492 23.4092 35.1959 25.0706 34.6732C26.5252 34.2146 27.8546 33.4546 29.0092 32.4586C30.9879 31.2079 33.1239 30.2119 35.3546 29.4999C37.3319 28.8666 39.4039 28.5346 41.4932 28.5186C42.7119 28.5186 43.9292 28.6452 45.1159 28.8826L45.6972 30.6666L46.5239 33.9932L44.1986 33.5346C43.3119 33.3599 42.4106 33.2652 41.5092 33.2652C39.9106 33.2812 38.3132 33.5346 36.7946 34.0252C35.0372 34.5786 33.3759 35.3386 31.8106 36.3026C30.2439 37.5999 28.4399 38.5812 26.4946 39.1986C24.3586 39.8626 22.1266 40.1946 19.8959 40.1639C18.5519 40.1639 17.2066 40.0692 15.8612 39.8946Z" fill="#9FEF00"/>
<path fill-rule="evenodd" clip-rule="evenodd" d="M37.7867 12.9505V13.8038V25.5438L55.8587 53.0425C55.8587 53.0425 55.8587 53.0585 55.8747 53.0585C56.2081 53.6118 56.4921 54.2131 56.6974 54.8305C56.8401 55.2731 56.9201 55.7318 56.9201 56.1905C56.9201 56.5385 56.8561 56.9025 56.6974 57.2198C56.5561 57.5198 56.3494 57.7731 56.0961 57.9625C55.7014 58.2638 55.2587 58.4851 54.7841 58.6118C54.0721 58.8171 53.3441 58.9118 52.6001 58.8971C52.5841 58.8971 52.5841 58.8971 52.5681 58.8971H11.4321C11.4161 58.8971 11.4161 58.8971 11.4001 58.8971C10.6561 58.9118 9.92808 58.8171 9.21608 58.6118C8.74141 58.4851 8.29874 58.2638 7.90408 57.9625C7.65074 57.7731 7.44408 57.5198 7.30274 57.2198C7.14408 56.9025 7.08008 56.5385 7.08008 56.1905C7.08008 55.7318 7.16008 55.2731 7.30274 54.8305C7.50808 54.2131 7.79208 53.6118 8.12541 53.0585C8.14141 53.0585 8.14141 53.0425 8.14141 53.0425L26.2134 25.5438V13.8038V12.9505C27.2627 12.7051 28.0441 11.7638 28.0441 10.6398C28.0441 9.33045 26.9814 8.26645 25.6707 8.26645H20.6761C20.6601 8.26645 20.6601 8.26645 20.6441 8.26645C19.9801 8.28245 19.3147 8.04512 18.8094 7.63445C18.5081 7.39712 18.3347 7.04779 18.3027 6.68512C18.3347 6.32112 18.5081 5.97312 18.8094 5.73579C19.3147 5.32379 19.9801 5.08645 20.6441 5.10246C20.6601 5.10246 20.6601 5.10246 20.6761 5.10246H43.3241C43.3401 5.10246 43.3401 5.10246 43.3561 5.10246C44.0201 5.08645 44.6854 5.32379 45.1907 5.73579C45.4921 5.97312 45.6654 6.32112 45.6974 6.68512C45.6654 7.04779 45.4921 7.39712 45.1907 7.63445C44.6854 8.04512 44.0201 8.28245 43.3561 8.26645C43.3401 8.26645 43.3401 8.26645 43.3241 8.26645H38.3294C37.0187 8.26645 35.9561 9.33045 35.9561 10.6398C35.9561 11.7638 36.7374 12.7051 37.7867 12.9505ZM42.5334 13.0131V13.8038V24.2145L59.9094 50.5745C60.4481 51.4438 60.8747 52.3625 61.2067 53.3425C61.5081 54.2451 61.6507 55.1945 61.6654 56.1438C61.6814 57.2198 61.4441 58.2798 60.9854 59.2598C60.5267 60.2251 59.8307 61.0798 58.9761 61.7438C58.1067 62.4091 57.1094 62.8998 56.0494 63.1838C54.9107 63.5011 53.7387 63.6585 52.5521 63.6425H11.4481C10.2614 63.6585 9.08941 63.5011 7.95074 63.1838C6.89074 62.8998 5.89341 62.4091 5.02408 61.7438C4.16941 61.0798 3.47341 60.2251 3.01474 59.2598C2.55608 58.2798 2.31874 57.2198 2.33474 56.1438C2.34941 55.1945 2.49208 54.2451 2.79341 53.3425C3.12541 52.3625 3.55208 51.4438 4.09074 50.5745L21.4667 24.2145V13.8038V13.0131H20.6921C18.9201 13.0291 17.2107 12.4438 15.8347 11.3358C14.4267 10.1971 13.5881 8.48779 13.5561 6.68512C13.5881 4.88112 14.4267 3.17179 15.8347 2.03312C17.2107 0.925122 18.9201 0.339788 20.6921 0.355788H43.3081C45.0801 0.339788 46.7894 0.925122 48.1654 2.03312C49.5734 3.17179 50.4121 4.88112 50.4441 6.68512C50.4121 8.48779 49.5734 10.1971 48.1654 11.3358C46.7894 12.4438 45.0801 13.0291 43.3081 13.0131H42.5334Z" fill="#9FEF00"/>
</svg>
