<svg width="64" height="64" viewBox="0 0 64 64" fill="none" xmlns="http://www.w3.org/2000/svg">
<path fill-rule="evenodd" clip-rule="evenodd" d="M27.3335 44.444C27.3335 43.8946 27.5508 43.3653 27.9455 42.9826C28.3295 42.588 28.8575 42.3706 29.4082 42.3706C29.9575 42.3706 30.4855 42.588 30.8695 42.9826C31.2642 43.3653 31.4815 43.8946 31.4815 44.444C31.4815 44.9946 31.2642 45.5226 30.8695 45.9066C30.4855 46.3013 29.9575 46.5186 29.4082 46.5186C28.8575 46.5186 28.3295 46.3013 27.9455 45.9066C27.5508 45.5226 27.3335 44.9946 27.3335 44.444ZM57.0908 30.132C57.2055 31.6626 58.5468 32.816 60.0842 32.704C61.6202 32.592 62.7748 31.252 62.6588 29.7133C62.0868 22.0053 58.6108 14.7853 52.9308 9.51598C47.2508 4.25998 39.7842 1.33331 32.0375 1.33331C23.9015 1.33331 16.0855 4.56665 10.3215 10.3106C4.57083 16.0666 1.3335 23.8733 1.3335 32C1.3335 40.1266 4.57083 47.9333 10.3215 53.6893C16.0855 59.4333 23.9015 62.6666 32.0375 62.6666C33.5788 62.6666 34.8295 61.4173 34.8295 59.8786C34.8295 58.34 33.5788 57.0906 32.0375 57.0906C25.3802 57.0906 18.9882 54.4426 14.2708 49.7453C9.56816 45.0333 6.91616 38.6493 6.91616 32C6.91616 25.3506 9.56816 18.9666 14.2708 14.2546C18.9882 9.55731 25.3802 6.90931 32.0375 6.90931C38.3748 6.90931 44.4868 9.29331 49.1348 13.6C53.7828 17.9066 56.6162 23.8173 57.0908 30.132ZM27.3335 38.5773V28.8893H24.0882C23.0175 28.8893 22.1482 28.02 22.1482 26.9493V26.6813C22.1482 25.6106 23.0175 24.7413 24.0882 24.7413H27.3335V20.592C27.3335 16.5866 30.5868 13.3333 34.5922 13.3333H39.7775C40.9228 13.3333 41.8522 14.2626 41.8522 15.408C41.8522 16.552 40.9228 17.4813 39.7775 17.4813H35.6295C33.3402 17.4813 31.4815 19.34 31.4815 21.6293V24.7413H34.7268C35.7975 24.7413 36.6668 25.6106 36.6668 26.6813V26.9493C36.6668 28.02 35.7975 28.8893 34.7268 28.8893H31.4815V38.5773C32.3482 38.884 33.1455 39.3826 33.8042 40.048C34.9762 41.2093 35.6295 42.796 35.6295 44.444C35.6295 46.0933 34.9762 47.68 33.8042 48.8413C32.6428 50.0133 31.0562 50.6666 29.4082 50.6666C27.7588 50.6666 26.1722 50.0133 25.0108 48.8413C23.8388 47.68 23.1855 46.0933 23.1855 44.444C23.1855 42.796 23.8388 41.2093 25.0108 40.048C25.6695 39.3826 26.4668 38.884 27.3335 38.5773ZM43.7202 54.22C42.3562 54.9346 41.8308 56.6213 42.5468 57.9826C43.2642 59.3453 44.9522 59.8693 46.3162 59.1533C52.1215 56.1013 56.8108 51.264 59.6722 45.368C60.3495 43.9826 59.7748 42.312 58.3882 41.6386C57.0015 40.9653 55.3255 41.544 54.6482 42.928C52.3028 47.7653 48.4788 51.7106 43.7202 54.22Z" fill="#9FEF00"/>
</svg>
