<svg width="64" height="64" viewBox="0 0 64 64" fill="none" xmlns="http://www.w3.org/2000/svg">
<path fill-rule="evenodd" clip-rule="evenodd" d="M8.0052 23.3586C8.04786 18.8013 9.9292 14.3013 14.1692 12.68C15.3332 12.26 16.6052 12.044 17.8719 12.0533C20.6599 12.0733 23.4252 13.188 24.9612 15.64C28.1479 20.7546 29.5985 26.8466 30.5905 32.6626C30.5905 32.6626 28.9372 36.036 28.0612 37.844C26.7665 32.104 25.5385 26.3066 22.6199 21.088C21.0772 18.292 17.4585 16.584 14.4492 18.084C11.3825 19.248 10.4652 22.4013 10.3705 25.6013L8.55853 28.1826L8.28386 26.604C8.09053 25.5453 7.99453 24.4493 8.0052 23.3586ZM29.8572 45.5906L32.1452 40.9373L32.3132 40.596C32.3145 40.6586 32.4665 44.6226 32.5639 48.2133V48.2293C32.6039 49.7013 32.6332 51.1093 32.6412 52.16C32.3825 55.4906 32.2599 59.26 29.9612 61.9053C28.5799 63.136 26.5545 63.588 24.7625 63.196C21.3719 62.5506 20.9785 58.636 21.6332 55.868C23.0852 49.4546 26.4759 43.7093 29.0532 37.7146C30.9225 33.7226 32.7199 29.696 34.5439 25.6826V25.68C35.5999 23.3586 36.6625 21.04 37.7545 18.736C38.8065 16.5173 40.0185 13.9066 41.1399 11.7213L41.1412 11.7173L44.3439 4.48796L45.9612 1.52529L50.9239 2.33063L55.9959 0.666626L49.3479 11.38L45.1625 17.856L40.6252 24.8453C35.7199 32.6666 31.1559 40.7133 27.4065 49.1546C26.3905 51.8693 23.7719 55.2813 25.5785 57.7493C27.5572 60.4506 28.8959 54.3546 29.1785 52.5026C29.2585 52.0093 29.3199 51.5133 29.3705 51.0133C29.3705 51.012 29.3719 51.0106 29.3719 51.0093L29.4665 49.9533C29.5825 48.492 29.6519 47.0226 29.8572 45.5906Z" fill="#9FEF00"/>
</svg>
