<svg width="64" height="64" viewBox="0 0 64 64" fill="none" xmlns="http://www.w3.org/2000/svg">
<path d="M60.8694 16.1573L58.6947 9.00268C50.1107 9.00268 41.4534 8.69468 32.8814 9.07068C28.2054 9.27601 22.8867 10.2867 19.644 13.984C18.1627 15.672 17.228 17.7107 16.6867 19.876C15.2014 25.8173 15.6134 33.7053 20.536 38.024C24.956 41.9013 30.9067 42.6427 36.5294 42.396C38.3627 42.316 40.1867 42.1387 42.0014 41.8373C42.7094 41.72 43.664 41.6987 44.3067 41.3653C44.6414 41.192 44.6974 40.6173 44.8067 40.2893L45.7654 37.4133L49.3427 26.4707C49.7307 25.3053 50.5 23.32 48.9454 22.6453C47.512 22.024 45.5627 22.332 44.0347 22.332H36.8094C35.4774 22.332 34.0454 22.1813 32.7414 22.4893C30.8014 22.9453 29.64 25.0427 30.5867 26.892C31.7547 29.1747 35.632 28.4347 37.7227 28.4347C38.3347 28.4347 40.2 28.124 40.5094 28.7893C40.6894 29.176 40.3427 29.816 40.224 30.188L39.1254 33.6947C39.008 34.052 38.9374 34.804 38.6054 35.0253C38.344 35.1987 37.7494 35.1667 37.4427 35.168C36.6227 35.172 35.8107 35.272 34.988 35.236C31.6427 35.0893 27.792 34.6813 25.384 32.0827C24.0947 30.692 23.6734 28.7893 23.548 26.9613C23.3094 23.4853 24.004 19.268 27.412 17.5093C30.8974 15.7107 39.1267 16.1587 39.1267 16.1587H60.872M3.14138 22.332C3.14138 26.7067 2.97738 31.244 4.04538 35.52C5.07871 39.6507 7.41871 43.4987 10.372 46.5307C18.572 54.948 32.184 56.2187 43.1947 54.396C49.14 53.4107 55.284 50.632 58.3467 45.1307C55.0027 45.1293 51.66 45.124 48.316 45.1507C48.316 45.1507 47.1134 45.828 46.5627 46.0947C45.4547 46.6307 44.256 47.0107 43.056 47.276C40.968 47.7373 38.8667 47.8467 36.7427 47.94C31.1347 48.1853 25.096 47.4267 20.1187 44.6507C15.1734 41.892 11.792 37.2133 11.0094 31.5933C10.6974 29.3547 10.716 27.0067 10.716 24.7493L10.712 23.0373C10.7134 22.86 10.7347 22.3173 10.7347 22.3173L8.61471 22.3333L3.14138 22.332Z" fill="#9FEF00"/>
</svg>
