<svg width="64" height="64" viewBox="0 0 64 64" fill="none" xmlns="http://www.w3.org/2000/svg">
<g clip-path="url(#clip0_62_4586)">
<path d="M40.6334 9.35462C39.6134 9.38662 38.6347 9.52662 37.7374 9.80529C34.1747 10.924 30.8347 13.8373 28.8054 16.4866L27.7027 17.924C27.7027 17.924 26.08 17.2853 25.2294 17.2973C23.908 17.324 23.1347 17.912 22.3054 18.8C21.7267 19.4173 21.332 20.1306 21.084 21.0026C20.0174 24.7386 18.1854 25.9413 12.6147 27.524C10.352 28.1653 8.96004 29.512 8.31471 31.6853C7.89738 33.0893 7.89338 35.3626 8.30538 36.3493C8.75338 37.4213 9.96271 39.128 10.18 38.9946C10.2787 38.9333 10.4294 38.4106 10.516 37.8333C10.6014 37.256 10.8134 36.444 10.9867 36.028L11.3027 35.2733L12.156 36.1093C12.7907 36.7293 13.3974 37.0493 14.516 37.36C15.3427 37.5893 16.0947 37.776 16.188 37.776C16.5147 37.776 16.3534 37.324 15.6974 36.4186C15.044 35.516 14.8547 34.9146 15.2294 34.9146C15.336 34.9146 15.8014 35.0706 16.2627 35.2626C16.8814 35.5213 17.4254 35.5733 18.328 35.4613C19.0027 35.3773 19.6334 35.2613 19.732 35.2C19.8307 35.14 19.504 34.7413 19.0054 34.3146C18.5067 33.888 18.1627 33.4746 18.24 33.3986C18.316 33.3213 19.0067 33.26 19.7734 33.26C21.4027 33.26 22.0827 32.7986 22.7654 31.224C22.9894 30.7093 23.2627 30.2866 23.372 30.2866C23.4827 30.2866 23.6187 30.7666 23.6747 31.3546C23.7334 31.9626 24.124 33.1253 24.584 34.0546C25.3134 35.5333 25.3907 35.8533 25.38 37.448C25.3734 38.416 25.2934 39.8906 25.2 40.724C24.9627 42.86 24.848 42.92 21.4787 42.7426C19.828 42.6546 17.768 42.2 17.768 42.2C17.768 42.2 21.868 46.288 22.9974 46.9666C23.6467 47.356 24.8454 47.8493 25.6587 48.0626C27.1094 48.4426 27.148 48.44 27.7507 48.0026C28.5347 47.4333 29.8067 44.8213 32.028 39.208C32.988 36.7853 33.8654 34.5813 33.9787 34.312C34.096 34.036 34.4534 33.7693 34.8 33.6973C36.528 33.3426 38.5334 32.9506 39.4974 32C41.612 30.1653 41.2347 29.0906 41.1014 27.5413C41.1014 27.5413 42.692 26.3906 44.9587 27.2026C47.3414 28.04 48.6147 29.1373 49.3934 32.1853C50.9907 37.356 49.4334 44.2813 45.8934 47.9186C43.992 49.8733 40.6147 51.7853 37.3494 52.7546C35.748 53.2306 34.86 53.344 32.2187 53.412C28.984 53.4946 27.3787 53.3093 24.6094 52.5333C20.084 51.4693 16.0307 49.2173 11.4347 49.0106C11.9147 49.5906 12.4267 50.1426 12.9534 50.68C13.0467 50.7746 13.1374 50.872 13.232 50.9666C13.748 51.476 14.2854 51.9626 14.8414 52.4293C14.9587 52.528 15.076 52.6266 15.1947 52.724C15.756 53.1786 16.3347 53.6146 16.932 54.024C17.0507 54.1053 17.1734 54.1813 17.2947 54.26C17.9134 54.6693 18.5467 55.06 19.2 55.4173C19.284 55.4626 19.3707 55.504 19.456 55.5493C20.0894 55.8866 20.74 56.1986 21.404 56.484C21.4974 56.524 21.588 56.568 21.6827 56.6066C22.3867 56.9013 23.1067 57.1613 23.8414 57.396C23.9627 57.4346 24.084 57.4733 24.2054 57.5106C24.92 57.7266 25.6467 57.9133 26.3854 58.0706C26.6307 58.1226 26.8774 58.1733 27.1254 58.2186C27.3067 58.252 27.488 58.2853 27.672 58.3146C27.9294 58.3573 28.188 58.3906 28.448 58.424C28.672 58.4546 28.896 58.4866 29.1227 58.5106C29.448 58.5453 29.776 58.5706 30.104 58.5933C30.2387 58.6026 30.372 58.6173 30.508 58.6253C31.0014 58.652 31.4987 58.6666 32 58.6666C46.7734 58.6666 58.6667 46.7733 58.6667 32C58.6667 31.4146 58.6414 30.836 58.604 30.26C58.596 30.128 58.5854 29.9946 58.576 29.8613C58.536 29.3706 58.4854 28.884 58.4187 28.4013C58.408 28.3213 58.4 28.2413 58.388 28.1613C58.3027 27.576 58.2014 26.9946 58.0787 26.4213C58.0774 26.416 58.0774 26.4093 58.076 26.404C57.9387 25.756 57.7667 25.1213 57.584 24.492C57.4574 24.0666 57.3174 23.6453 57.172 23.2293C57.0947 23.0066 57.012 22.788 56.9294 22.568C56.332 20.9946 55.5987 19.4893 54.732 18.0733C54.728 18.0666 54.7254 18.0586 54.7214 18.052C53.532 17.8586 52.5107 17.7186 52.5107 17.7186C52.5107 17.7186 53.1854 17.3306 53.9587 16.8466C53.9374 16.8173 53.9134 16.7893 53.8934 16.76C53.0707 15.5773 52.1534 14.468 51.1534 13.4373C51.1054 13.388 51.064 13.3333 51.016 13.284C47.1454 13.0186 43.0654 13.056 38.1974 16.156C40.7507 11.6133 44.4014 10.9013 48.4694 11.0266C48.2267 10.836 47.976 10.6533 47.7267 10.472C45.768 9.86795 43.664 9.42662 41.664 9.35729C41.316 9.34395 40.972 9.34395 40.6334 9.35462ZM25.3 20L25.3334 23.0186L22.6667 24C23.792 22.936 24.676 21.6106 25.3 20ZM13.3334 29.3333V30.6666C12.444 30.1906 11.556 30.212 10.6667 30.4453L13.3334 29.3333Z" fill="#A4B1CD"/>
<path fill-rule="evenodd" clip-rule="evenodd" d="M34.1853 5.81857C32.5893 5.68391 31.3987 4.27324 31.5293 2.66924C31.6613 1.06657 33.0693 -0.125428 34.6747 0.0105723C42.712 0.679906 50.2133 4.37591 55.6573 10.3546C61.088 16.3332 64.072 24.1546 63.9987 32.2399C63.9213 40.7332 60.4733 48.8599 54.4267 54.8226C48.3653 60.7692 40.1907 64.0759 31.7107 63.9986C23.2307 63.9212 15.116 60.4679 9.164 54.4119C3.22533 48.3412 -0.0760047 40.1532 0.00132866 31.6599C0.0159953 30.0519 1.33066 28.7586 2.936 28.7732C4.54266 28.7879 5.83333 30.1052 5.81866 31.7132C5.756 38.6612 8.46 45.3586 13.3173 50.3266C18.1893 55.2799 24.8253 58.1092 31.7627 58.1719C38.7013 58.2346 45.388 55.5266 50.348 50.6626C55.2947 45.7826 58.1173 39.1359 58.1813 32.1866C58.24 25.5732 55.8107 19.1706 51.36 14.2786C46.9093 9.38657 40.7693 6.37324 34.1853 5.81857ZM10.0067 19.5466C9.26133 20.9626 7.532 21.4959 6.14533 20.7346C4.75866 19.9746 4.23866 18.2066 4.98266 16.7906C8.15866 10.7599 13.1507 5.91057 19.208 2.97991C20.632 2.28524 22.3347 2.90124 23.0107 4.35591C23.6867 5.80924 23.08 7.55324 21.6573 8.24657C16.688 10.6492 12.6173 14.6026 10.0067 19.5466Z" fill="#9FEF00"/>
</g>
<defs>
<clipPath id="clip0_62_4586">
<rect width="64" height="64" fill="white"/>
</clipPath>
</defs>
</svg>
