<svg width="64" height="64" viewBox="0 0 64 64" fill="none" xmlns="http://www.w3.org/2000/svg">
<g clip-path="url(#clip0_62_4578)">
<path fill-rule="evenodd" clip-rule="evenodd" d="M23.7933 46.4467L26.3733 43.7867L26.9067 39.9734L31.8907 34.5574L30.9427 33.6094L25.64 39.3734L25.12 43.16L22.8333 45.5147C22.5787 45.3987 22.2973 45.3334 22 45.3334C20.896 45.3334 20 46.2294 20 47.3334C20 48.4374 20.896 49.3334 22 49.3334C23.104 49.3334 24 48.4374 24 47.3334C24 47.0147 23.9253 46.7134 23.7933 46.4467Z" fill="#141D2B"/>
<path d="M29.0867 31.2934L22.6 36.0001H18.4133L15.9507 37.5561C15.9827 37.6987 16 37.8467 16 38.0001C16 39.1041 15.104 40.0001 14 40.0001C12.896 40.0001 12 39.1041 12 38.0001C12 36.8961 12.896 36.0001 14 36.0001C14.468 36.0001 14.8973 36.1601 15.2387 36.4294L18.0267 34.6667H22.1733L28.1573 30.3361L29.0867 31.2934Z" fill="#141D2B"/>
<path fill-rule="evenodd" clip-rule="evenodd" d="M16.2666 44.2307C15.988 44.084 15.6706 44 15.3333 44C14.2293 44 13.3333 44.896 13.3333 46C13.3333 47.104 14.2293 48 15.3333 48C16.4373 48 17.3333 47.104 17.3333 46C17.3333 45.7227 17.276 45.4574 17.1746 45.2174L30.3906 33.0574L29.4426 32.1094L16.2666 44.2307Z" fill="#141D2B"/>
<path fill-rule="evenodd" clip-rule="evenodd" d="M59.0453 8.81733L39.76 48.84C39.4 49.5867 38.6 50.04 37.76 49.96C36.9333 49.88 36.24 49.28 36.0266 48.4667C35.3466 45.8667 34.3333 43.36 33.0266 41C31.7866 38.7733 30.24 36.7333 28.4266 34.92C26.5466 33.0667 24.44 31.4667 22.1466 30.16C19.6 28.7067 16.9066 27.5333 14.0933 26.68C13.2933 26.4267 12.72 25.6933 12.6933 24.84C12.6533 24 13.16 23.2133 13.9466 22.9067L56.4053 5.988C59.14 4.89733 60.3226 6.16666 59.0453 8.81733ZM53.3066 11.5333L38.28 42.68C37.7733 41.44 37.1733 40.2267 36.52 39.0533C35.0933 36.4933 33.32 34.16 31.2533 32.08C29.12 29.9867 26.7333 28.16 24.1333 26.68C22.8666 25.96 21.56 25.3067 20.2266 24.7067L53.3066 11.5333Z" fill="#9FEF00"/>
<path fill-rule="evenodd" clip-rule="evenodd" d="M4.66669 32C4.66669 39.2534 7.54669 46.2134 12.6667 51.3334C17.7867 56.4667 24.7467 59.3467 32 59.3467C39.2534 59.3467 46.2134 56.4667 51.3334 51.3334C56.4534 46.2134 59.3334 39.2534 59.3334 32C59.3334 28.76 58.76 25.56 57.64 22.52C57.2574 21.4827 57.7894 20.332 58.8267 19.9534C59.864 19.5747 61.0174 20.1027 61.4 21.1334C62.68 24.6134 63.3334 28.2934 63.3334 32C63.3334 40.3067 60.0267 48.2934 54.16 54.16C48.28 60.04 40.3067 63.3467 32 63.3467C23.6934 63.3467 15.72 60.04 9.84002 54.16C3.96002 48.2934 0.666687 40.3067 0.666687 32C0.666687 23.6934 3.96002 15.7067 9.84002 9.84002C15.72 3.96002 23.6934 0.653355 32 0.653355C36.1867 0.640021 40.3334 1.48002 44.1867 3.10669C45.2027 3.54135 45.6774 4.71735 45.2467 5.73336C44.816 6.74936 43.6427 7.22669 42.6267 6.80002C39.2667 5.37335 35.6534 4.64002 32 4.65335C24.7467 4.65335 17.8 7.53336 12.6667 12.6667C7.54669 17.7867 4.66669 24.7467 4.66669 32Z" fill="#9FEF00"/>
</g>
<defs>
<clipPath id="clip0_62_4578">
<rect width="64" height="64" fill="white"/>
</clipPath>
</defs>
</svg>
