<svg width="64" height="64" viewBox="0 0 64 64" fill="none" xmlns="http://www.w3.org/2000/svg">
<path fill-rule="evenodd" clip-rule="evenodd" d="M27.7507 36.02C28.532 36.02 29.1667 36.7107 29.1667 37.564C29.1667 38.416 28.532 39.108 27.7507 39.108C26.968 39.108 26.3333 38.416 26.3333 37.564C26.3333 36.7107 26.968 36.02 27.7507 36.02ZM36.2507 36.02C37.032 36.02 37.6667 36.7107 37.6667 37.564C37.6667 38.416 37.032 39.108 36.2507 39.108C35.468 39.108 34.8333 38.416 34.8333 37.564C34.8333 36.7107 35.468 36.02 36.2507 36.02ZM36.2493 47.8493C39.612 46.3947 43.5467 43.3173 45.5147 40.4973C47.7813 37.2707 49 33.3173 49 29.256C49 22.8947 45.9827 16.9507 41.024 13.5693C40.368 13.1173 39.4947 13.3347 39.076 14.0547C38.6573 14.7747 38.8573 15.7267 39.5227 16.1787C43.6453 19.004 46.1667 23.96 46.1667 29.272C46.1667 32.6533 45.1467 35.9427 43.2627 38.6293C41.8333 40.668 39.9707 42.28 37.8507 43.3293C38.2178 42.3551 38.6284 41.1351 39.0827 39.6693C40.0613 38.64 40.116 37.084 39.116 35.9093L38.5573 35.2547L38.748 34.0547C39.0307 32.2667 39.708 30.9227 40.7093 30.164C41.1613 29.8213 41.62 29.4293 41.728 29.2893C41.9707 28.976 41.9827 27.408 41.7507 26.5053C41.1133 24.0307 37.776 18.76 35.312 16.3387C33.912 14.964 32.8147 14.3387 31.756 14.4093C31.12 14.452 30.5 14.7453 29.8333 15.2773C28.9427 15.988 26.66 18.6 25.58 20.1453C23.2747 23.4453 22.084 26.112 22.084 27.964C22.084 29.1933 22.184 29.3907 23.16 30.096C24.2387 30.8787 24.864 32.0227 25.1907 33.8267L25.4507 35.2693L25.0413 35.6693C24.368 36.332 24.0853 37.0733 24.168 37.9733C24.2227 38.592 24.5147 39.2027 24.9173 39.6653C25.3724 41.1338 25.7836 42.356 26.1507 43.332C24.1253 42.332 22.3293 40.82 20.9213 38.9067C18.924 36.1587 17.8333 32.7613 17.8333 29.272C17.8333 23.9907 20.312 19.0813 24.3787 16.24C25.0347 15.788 25.2293 14.8373 24.8107 14.1173C24.392 13.3973 23.5187 13.1853 22.8627 13.6453C17.9747 17.0427 15 22.9413 15 29.256C15 33.472 16.304 37.548 18.712 40.8213C20.8227 43.704 24.3693 46.6213 27.7507 47.9227V49.364C18.668 47.192 12.188 38.4347 12.1667 28.3C12.1693 26.208 12.4507 24.1267 12.4507 24.1267C12.756 23.0213 12.3453 22.1227 11.5373 22.1227C10.728 22.1227 9.85467 23.0267 9.588 24.14C9.588 24.14 9.34 26.2147 9.33333 28.3C9.33733 41.3413 18.6413 52.132 30.584 52.948V42.036C31.072 42.1187 31.556 42.184 32.0293 42.196C32.5213 42.1747 32.9693 42.1093 33.4173 42.0453V52.9267C45.3507 52.112 54.652 41.332 54.6667 28.3C54.6573 26.2147 54.4053 24.1387 54.4053 24.1387C54.136 23.0267 53.2613 22.1227 52.4533 22.1227C51.6453 22.1227 51.2373 23.0213 51.544 24.1267C51.544 24.1267 51.828 26.2067 51.8333 28.3C51.82 38.4427 45.3387 47.212 36.2493 49.3853V47.8493ZM25.08 57.76C26.5 58.1427 27.3427 59.6067 26.96 61.0267C26.5773 62.4467 25.1133 63.2893 23.6933 62.9067C16.8933 61.08 10.88 57.0533 6.6 51.4667C2.32 45.88 0 39.04 0 32C0 23.52 3.37333 15.3733 9.37333 9.37333C15.3733 3.37333 23.52 0 32 0C40.48 0 48.6267 3.37333 54.6267 9.37333C60.6267 15.3733 64 23.52 64 32C64 39.0133 61.6933 45.8267 57.4533 51.4C53.2 56.9733 47.24 61 40.48 62.8667C39.06 63.2573 37.5907 62.42 37.2 61C36.8093 59.58 37.6467 58.1107 39.0667 57.72C44.6933 56.1733 49.6667 52.8133 53.2133 48.1733C56.7467 43.52 58.6667 37.84 58.6667 32C58.6667 24.9333 55.8533 18.1467 50.8533 13.1467C45.8533 8.14667 39.0667 5.33333 32 5.33333C24.9333 5.33333 18.1467 8.14667 13.1467 13.1467C8.14667 18.1467 5.33333 24.9333 5.33333 32C5.33333 37.8667 7.26667 43.5733 10.84 48.2267C14.4 52.88 19.4133 56.24 25.08 57.76Z" fill="#9FEF00"/>
</svg>
