<svg width="64" height="64" viewBox="0 0 64 64" fill="none" xmlns="http://www.w3.org/2000/svg">
<path fill-rule="evenodd" clip-rule="evenodd" d="M53.2813 32.333V63.4263H1.21464C-0.257358 63.4263 -0.413358 62.8357 0.866642 62.109L53.2813 32.333ZM47.948 41.1863V58.093H20.0146L47.948 41.1863Z" fill="#9FEF00"/>
<path d="M16.0003 41.333C16.0003 42.805 14.8057 43.9997 13.3337 43.9997C11.8617 43.9997 10.667 42.805 10.667 41.333V17.453C10.667 16.717 11.1163 15.7263 11.671 15.2423L21.9963 6.21034C22.551 5.72634 23.5977 5.33301 24.3337 5.33301H57.3337C60.2777 5.33301 62.667 7.72234 62.667 10.6663V50.6663C62.667 52.1383 61.4723 53.333 60.0003 53.333C58.5283 53.333 57.3337 52.1383 57.3337 50.6663V13.333C57.3337 11.861 56.139 10.6663 54.667 10.6663H25.0003L16.0003 18.5463V41.333Z" fill="#9FEF00"/>
</svg>
