<svg width="64" height="64" viewBox="0 0 64 64" fill="none" xmlns="http://www.w3.org/2000/svg">
<g clip-path="url(#clip0_62_4574)">
<path fill-rule="evenodd" clip-rule="evenodd" d="M34.6669 60V52.7093C34.6669 51.5826 33.7509 50.6666 32.6242 50.6666H31.9469C28.8135 50.6666 25.6935 50.1466 22.7202 49.12C20.0135 48.2 17.5069 46.8 15.2802 45C13.2669 43.3733 11.6135 41.3466 10.4002 39.0533C9.26687 36.88 8.6802 34.4533 8.66687 31.9866C8.65887 30.5146 7.45887 29.3253 5.98687 29.3333C4.51487 29.3413 3.32554 30.5413 3.33354 32.0133C3.34687 35.32 4.14687 38.5866 5.6802 41.5333C7.21354 44.4666 9.34687 47.0533 11.9202 49.1466C14.6269 51.3333 17.6935 53.04 20.9869 54.1733C23.6895 55.1013 26.4935 55.6786 29.3335 55.8986V60H23.7135C22.9775 60 22.3802 60.5973 22.3802 61.3333V62.6666C22.3802 63.4026 22.9775 64 23.7135 64H31.3762H32.6242H40.2869C41.0229 64 41.6202 63.4026 41.6202 62.6666V61.3333C41.6202 60.5973 41.0229 60 40.2869 60H34.6669ZM55.3335 32.3466C55.3709 30.8746 56.5922 29.7093 58.0602 29.7466C59.5282 29.784 60.6962 31.008 60.6669 32.48C60.6002 34.9066 60.1202 37.2933 59.2135 39.56C58.3335 41.7866 57.0802 43.8666 55.5469 45.7066C53.9602 47.6 52.1202 49.2533 50.0802 50.6266C47.9602 52.0666 45.6669 53.2266 43.2402 54.08C41.8562 54.5733 40.3335 53.8466 39.8402 52.46C39.3469 51.0733 40.0762 49.5466 41.4669 49.0533C43.4535 48.36 45.3469 47.4 47.0935 46.2133C48.7202 45.1066 50.1869 43.7866 51.4535 42.28C52.6269 40.88 53.5869 39.2933 54.2669 37.5866C54.9202 35.92 55.2802 34.1466 55.3335 32.3466ZM24.3002 29.7453H39.7002C40.4362 29.7453 41.0335 30.3426 41.0335 31.0786V32.412C41.0335 33.148 40.4362 33.7453 39.7002 33.7453H24.3002C23.5642 33.7453 22.9669 33.148 22.9669 32.412V31.0786C22.9669 30.3426 23.5642 29.7453 24.3002 29.7453ZM30.1469 6.66665H33.8535C36.5469 6.66665 39.1202 7.73331 41.0269 9.63998C42.9335 11.5466 44.0002 14.12 44.0002 16.8133V31.1866C44.0002 33.88 42.9335 36.4533 41.0269 38.36C39.1202 40.2666 36.5469 41.3333 33.8535 41.3333H30.1469C27.4535 41.3333 24.8802 40.2666 22.9735 38.36C21.0669 36.4533 20.0002 33.88 20.0002 31.1866V16.8133C20.0002 14.12 21.0669 11.5466 22.9735 9.63998C24.8802 7.73331 27.4535 6.66665 30.1469 6.66665ZM30.1469 1.33331H33.8535C37.9602 1.33331 41.8935 2.95998 44.8002 5.86665C47.7069 8.77331 49.3335 12.7066 49.3335 16.8133V31.1866C49.3335 35.2933 47.7069 39.2266 44.8002 42.1333C41.8935 45.04 37.9602 46.6666 33.8535 46.6666H30.1469C26.0402 46.6666 22.1069 45.04 19.2002 42.1333C16.2935 39.2266 14.6669 35.2933 14.6669 31.1866V16.8133C14.6669 12.7066 16.2935 8.77331 19.2002 5.86665C22.1069 2.95998 26.0402 1.33331 30.1469 1.33331Z" fill="#9FEF00"/>
</g>
<defs>
<clipPath id="clip0_62_4574">
<rect width="64" height="64" fill="white"/>
</clipPath>
</defs>
</svg>
