<svg width="64" height="64" viewBox="0 0 64 64" fill="none" xmlns="http://www.w3.org/2000/svg">
<g clip-path="url(#clip0_11_162)">
<path fill-rule="evenodd" clip-rule="evenodd" d="M54.667 18.2263L60.9697 18.2236C61.7777 19.8783 62.443 21.6703 62.927 23.5596H62.9177C63.659 26.2863 64.0363 29.1076 64.027 31.9463V32.053C64.0003 40.3463 60.747 48.3196 54.9737 54.2663C51.9457 57.3783 48.343 59.8116 44.4097 61.4596C40.8257 62.961 39.275 57.809 42.227 56.589C45.5497 55.2156 48.591 53.173 51.147 50.5463C55.9603 45.5996 58.6803 38.9596 58.6937 32.0396V31.9463C58.7043 29.097 58.2457 26.265 57.3537 23.5596H57.3337H37.3337H34.667V18.2263H37.3337H54.667Z" fill="#9FEF00"/>
<path fill-rule="evenodd" clip-rule="evenodd" d="M32.5698 58.3343L29.4031 63.7823C27.5671 63.649 25.6831 63.3237 23.8058 62.7917L23.8111 62.7837C21.0804 62.053 18.4538 60.961 16.0044 59.525L15.9124 59.4717C8.75642 55.277 3.50175 48.4557 1.26442 40.4743C0.0977535 36.2917 -0.194247 31.9557 0.36042 27.7263C0.86442 23.873 6.09775 25.125 5.66709 28.289C5.18309 31.8517 5.41909 35.5077 6.40442 39.0383C8.25909 45.6863 12.6311 51.377 18.6058 54.8677L18.6858 54.9143C21.1444 56.357 23.8218 57.385 26.6084 57.9743L26.6191 57.957L36.6778 40.6703L38.0178 38.365L42.6284 41.0477L41.2871 43.3517L32.5698 58.3343Z" fill="#9FEF00"/>
<path fill-rule="evenodd" clip-rule="evenodd" d="M8.90566 19.7762L5.66699 14.3696C6.67233 12.8269 7.86699 11.3349 9.24033 9.94955L9.24566 9.95755C11.2057 7.92155 13.431 6.14955 15.8723 4.69889L15.9643 4.64422C23.0937 0.409553 31.607 -0.893113 39.6737 1.00689C43.9003 2.00822 47.8363 3.84955 51.2723 6.37889C54.4003 8.68289 50.775 12.6589 48.2123 10.7522C45.3283 8.60689 42.0137 7.04555 38.447 6.20155C31.731 4.61089 24.6363 5.68689 18.691 9.22822L18.611 9.27622C16.1603 10.7296 13.9657 12.5776 12.103 14.7322L12.1123 14.7496L22.383 31.9109L23.7523 34.2002L19.175 36.9389L17.8057 34.6496L8.90566 19.7762Z" fill="#9FEF00"/>
<path fill-rule="evenodd" clip-rule="evenodd" d="M18 32C18 24.2733 24.2733 18 32 18C39.7267 18 46 24.2733 46 32C46 39.7267 39.7267 46 32 46C24.2733 46 18 39.7267 18 32ZM23.3333 32C23.3333 29.7067 24.2533 27.4933 25.8667 25.8667C27.4933 24.2533 29.7067 23.3333 32 23.3333C34.2933 23.3333 36.5067 24.2533 38.1333 25.8667C39.7467 27.4933 40.6667 29.7067 40.6667 32C40.6667 34.2933 39.7467 36.5067 38.1333 38.1333C36.5067 39.7467 34.2933 40.6667 32 40.6667C29.7067 40.6667 27.4933 39.7467 25.8667 38.1333C24.2533 36.5067 23.3333 34.2933 23.3333 32Z" fill="#9FEF00"/>
</g>
<defs>
<clipPath id="clip0_11_162">
<rect width="64" height="64" fill="white"/>
</clipPath>
</defs>
</svg>
