<svg width="64" height="64" viewBox="0 0 64 64" fill="none" xmlns="http://www.w3.org/2000/svg">
<path fill-rule="evenodd" clip-rule="evenodd" d="M20.3282 33.0787H26.9402C27.5255 33.0787 28.0002 32.604 28.0002 32.02V30.1387C28.0002 29.5534 27.5255 29.0787 26.9402 29.0787H20.0002V26.412H26.9402C27.5255 26.412 28.0002 25.9374 28.0002 25.3534V23.472C28.0002 22.8867 27.5255 22.412 26.9402 22.412H20.0002V19.7454H26.9402C27.5255 19.7454 28.0002 19.2707 28.0002 18.6867V16.8054C28.0002 16.22 27.5255 15.7454 26.9402 15.7454H20.0082C20.1082 13.1987 21.1615 10.7854 22.9735 8.97335C24.8802 7.06669 27.4535 6.00002 30.1469 6.00002H33.8535C36.5469 6.00002 39.1202 7.06669 41.0269 8.97335C42.8389 10.7854 43.8922 13.1987 43.9922 15.7454H37.6589C37.0749 15.7454 36.6002 16.22 36.6002 16.8054V18.6867C36.6002 19.2707 37.0749 19.7454 37.6589 19.7454H44.0002V22.412H37.6589C37.0749 22.412 36.6002 22.8867 36.6002 23.472V25.3534C36.6002 25.9374 37.0749 26.412 37.6589 26.412H44.0002V29.0787H37.6589C37.0749 29.0787 36.6002 29.5534 36.6002 30.1387V32.02C36.6002 32.604 37.0749 33.0787 37.6589 33.0787H43.6722C43.2215 34.8094 42.3162 36.404 41.0269 37.6934C39.1202 39.6 36.5469 40.6667 33.8535 40.6667H30.1469C27.4535 40.6667 24.8802 39.6 22.9735 37.6934C21.6842 36.404 20.7789 34.8094 20.3282 33.0787ZM29.3335 59.3334V55.232C26.4935 55.012 23.6895 54.4347 20.9869 53.5067C17.6935 52.3734 14.6269 50.6667 11.9202 48.48C9.34687 46.3867 7.21354 43.8 5.6802 40.8667C4.14687 37.92 3.34687 34.6534 3.33354 31.3467C3.32554 29.8747 4.51487 28.6747 5.98687 28.6667C7.45887 28.6587 8.65887 29.848 8.66687 31.32C8.6802 33.7867 9.26687 36.2134 10.4002 38.3867C11.6135 40.68 13.2669 42.7067 15.2802 44.3334C17.5069 46.1334 20.0135 47.5334 22.7202 48.4534C25.6935 49.48 28.8135 50 31.9469 50H32.6242C33.7509 50 34.6669 50.916 34.6669 52.0427V59.3334H40.2869C41.0229 59.3334 41.6202 59.9307 41.6202 60.6667V62C41.6202 62.736 41.0229 63.3334 40.2869 63.3334H32.6242H31.3762H23.7135C22.9775 63.3334 22.3802 62.736 22.3802 62V60.6667C22.3802 59.9307 22.9775 59.3334 23.7135 59.3334H29.3335ZM55.3335 31.68C55.3695 30.208 56.5922 29.0427 58.0602 29.08C59.5282 29.1174 60.6962 30.3414 60.6669 31.8134C60.6002 34.24 60.1202 36.6267 59.2135 38.8934C58.3335 41.12 57.0802 43.2 55.5469 45.04C53.9602 46.9334 52.1202 48.5867 50.0802 49.96C47.9602 51.4 45.6669 52.56 43.2402 53.4134C41.8562 53.9067 40.3335 53.18 39.8402 51.7934C39.3469 50.4067 40.0762 48.88 41.4669 48.3867C43.4535 47.6934 45.3469 46.7334 47.0935 45.5467C48.7202 44.44 50.1869 43.12 51.4535 41.6134C52.6269 40.2134 53.5869 38.6267 54.2669 36.92C54.9202 35.2534 55.2802 33.48 55.3335 31.68ZM30.1469 0.666687H33.8535C37.9602 0.666687 41.8935 2.29335 44.8002 5.20002C47.7069 8.10669 49.3335 12.04 49.3335 16.1467V30.52C49.3335 34.6267 47.7069 38.56 44.8002 41.4667C41.8935 44.3734 37.9602 46 33.8535 46H30.1469C26.0402 46 22.1069 44.3734 19.2002 41.4667C16.2935 38.56 14.6669 34.6267 14.6669 30.52V16.1467C14.6669 12.04 16.2935 8.10669 19.2002 5.20002C22.1069 2.29335 26.0402 0.666687 30.1469 0.666687Z" fill="#9FEF00"/>
</svg>
