<svg width="512" height="512" viewBox="0 0 512 512" fill="none" xmlns="http://www.w3.org/2000/svg">
<g clip-path="url(#clip0_34_893)">
<path d="M164.356 90.3637C164.331 90.3372 164.3 90.3161 164.266 90.3017C164.232 90.2873 164.195 90.2799 164.158 90.2799C164.121 90.2799 164.085 90.2873 164.051 90.3017C164.017 90.3161 163.986 90.3372 163.96 90.3637L90.4486 163.868C90.4221 163.894 90.401 163.925 90.3866 163.959C90.3722 163.993 90.3648 164.029 90.3648 164.066C90.3648 164.103 90.3722 164.14 90.3866 164.174C90.401 164.208 90.4221 164.239 90.4486 164.264L159.151 232.967C159.19 233.007 159.239 233.034 159.294 233.046C159.348 233.057 159.404 233.052 159.455 233.031L263.051 189.603C263.092 189.585 263.128 189.558 263.157 189.524C263.185 189.489 263.205 189.448 263.214 189.404C263.223 189.36 263.221 189.315 263.209 189.272C263.196 189.229 263.174 189.189 263.143 189.157L164.356 90.3637Z" stroke="#141D2B" stroke-width="2"/>
<path d="M219.396 293.297C219.435 293.308 219.47 293.328 219.499 293.357C219.527 293.385 219.548 293.421 219.559 293.459L243.73 383.668C243.744 383.714 243.771 383.755 243.808 383.785C243.846 383.815 243.892 383.833 243.94 383.836C243.988 383.839 244.035 383.827 244.076 383.802C244.117 383.777 244.15 383.74 244.169 383.696L326.952 186.244C326.969 186.201 326.973 186.154 326.964 186.109C326.955 186.064 326.933 186.023 326.9 185.991C326.868 185.958 326.827 185.936 326.782 185.927C326.737 185.918 326.69 185.922 326.647 185.939L129.223 268.708C129.179 268.727 129.142 268.759 129.117 268.8C129.092 268.841 129.08 268.889 129.083 268.937C129.086 268.985 129.104 269.031 129.134 269.069C129.164 269.106 129.205 269.133 129.252 269.147L219.396 293.297Z" stroke="#141D2B" stroke-width="2"/>
<path d="M279.86 353.428C279.839 353.481 279.833 353.538 279.844 353.594C279.856 353.649 279.883 353.7 279.924 353.74L348.62 422.428C348.673 422.48 348.744 422.509 348.818 422.509C348.892 422.509 348.963 422.48 349.016 422.428L422.52 348.924C422.572 348.871 422.601 348.8 422.601 348.726C422.601 348.652 422.572 348.581 422.52 348.528L323.741 249.756C323.708 249.723 323.668 249.699 323.623 249.686C323.579 249.673 323.532 249.67 323.487 249.679C323.441 249.689 323.399 249.709 323.363 249.738C323.327 249.767 323.299 249.805 323.281 249.847L279.86 353.428Z" stroke="#141D2B" stroke-width="2"/>
<path d="M250.569 0H261.509C338.026 2.12862 409.84 37.219 457.059 97.5346C492.338 142.596 510.652 194.195 512 252.33V259.755C509.355 399.318 397.578 510.161 258.433 512H253.306C114.005 509.999 3.62077 399.558 0 260.908V251.545C3.34497 112.93 112.244 4.17945 250.569 0ZM164.356 90.3638C164.331 90.3372 164.3 90.3162 164.266 90.3018C164.232 90.2874 164.195 90.2799 164.158 90.2799C164.121 90.2799 164.085 90.2874 164.051 90.3018C164.017 90.3162 163.986 90.3372 163.96 90.3638L90.4486 163.868C90.4221 163.894 90.401 163.925 90.3866 163.959C90.3722 163.993 90.3648 164.029 90.3648 164.066C90.3648 164.103 90.3722 164.14 90.3866 164.174C90.401 164.208 90.4221 164.239 90.4486 164.264L159.151 232.967C159.19 233.007 159.239 233.034 159.294 233.046C159.348 233.057 159.404 233.052 159.455 233.031L263.051 189.603C263.092 189.585 263.128 189.558 263.157 189.524C263.185 189.489 263.205 189.448 263.214 189.404C263.223 189.36 263.221 189.315 263.209 189.272C263.196 189.229 263.174 189.189 263.143 189.157L164.356 90.3638ZM219.396 293.297C219.435 293.308 219.471 293.328 219.499 293.357C219.528 293.385 219.548 293.421 219.559 293.459L243.73 383.668C243.744 383.714 243.771 383.755 243.808 383.785C243.846 383.815 243.892 383.833 243.94 383.836C243.988 383.839 244.035 383.827 244.076 383.802C244.117 383.777 244.15 383.74 244.169 383.696L326.952 186.244C326.969 186.201 326.973 186.154 326.964 186.109C326.955 186.064 326.933 186.023 326.9 185.991C326.868 185.958 326.827 185.936 326.782 185.927C326.737 185.918 326.69 185.922 326.648 185.939L129.223 268.708C129.179 268.727 129.142 268.759 129.117 268.8C129.092 268.841 129.08 268.889 129.083 268.937C129.086 268.985 129.104 269.031 129.134 269.069C129.165 269.106 129.206 269.133 129.252 269.147L219.396 293.297ZM279.86 353.429C279.839 353.481 279.833 353.538 279.844 353.594C279.856 353.649 279.883 353.7 279.924 353.74L348.62 422.428C348.673 422.48 348.744 422.509 348.818 422.509C348.892 422.509 348.963 422.48 349.016 422.428L422.52 348.924C422.572 348.871 422.601 348.8 422.601 348.726C422.601 348.652 422.572 348.581 422.52 348.528L323.741 249.756C323.708 249.723 323.668 249.699 323.623 249.686C323.579 249.673 323.532 249.67 323.487 249.679C323.441 249.689 323.399 249.709 323.363 249.738C323.327 249.767 323.299 249.805 323.281 249.848L279.86 353.429Z" fill="#141D2B"/>
<path d="M164.356 90.3637L263.143 189.157C263.174 189.189 263.196 189.229 263.209 189.272C263.221 189.315 263.223 189.36 263.214 189.404C263.205 189.448 263.185 189.489 263.157 189.524C263.128 189.558 263.092 189.585 263.051 189.603L159.455 233.031C159.404 233.052 159.348 233.057 159.294 233.046C159.239 233.034 159.19 233.007 159.151 232.967L90.4486 164.264C90.4221 164.239 90.401 164.208 90.3866 164.174C90.3722 164.14 90.3648 164.103 90.3648 164.066C90.3648 164.029 90.3722 163.993 90.3866 163.959C90.401 163.925 90.4221 163.894 90.4486 163.868L163.96 90.3637C163.986 90.3372 164.017 90.3161 164.051 90.3017C164.085 90.2873 164.121 90.2799 164.158 90.2799C164.195 90.2799 164.232 90.2873 164.266 90.3017C164.3 90.3161 164.331 90.3372 164.356 90.3637Z" fill="#9FEF00"/>
<path d="M219.396 293.297L129.252 269.147C129.205 269.133 129.164 269.106 129.134 269.069C129.104 269.031 129.086 268.985 129.083 268.937C129.08 268.889 129.092 268.841 129.117 268.8C129.142 268.759 129.179 268.727 129.223 268.708L326.648 185.939C326.69 185.922 326.737 185.918 326.782 185.927C326.827 185.936 326.868 185.958 326.9 185.991C326.933 186.023 326.955 186.064 326.964 186.109C326.973 186.154 326.969 186.201 326.952 186.244L244.169 383.696C244.15 383.74 244.117 383.777 244.076 383.802C244.035 383.827 243.988 383.839 243.94 383.836C243.892 383.833 243.846 383.815 243.808 383.785C243.771 383.755 243.744 383.714 243.73 383.668L219.559 293.459C219.548 293.421 219.527 293.385 219.499 293.357C219.47 293.328 219.435 293.308 219.396 293.297Z" fill="#9FEF00"/>
<path d="M279.86 353.428L323.281 249.847C323.299 249.805 323.327 249.767 323.363 249.738C323.399 249.709 323.441 249.689 323.487 249.679C323.532 249.67 323.579 249.673 323.623 249.686C323.668 249.699 323.708 249.723 323.741 249.756L422.52 348.528C422.572 348.581 422.601 348.652 422.601 348.726C422.601 348.8 422.572 348.871 422.52 348.924L349.016 422.428C348.963 422.48 348.892 422.509 348.818 422.509C348.744 422.509 348.673 422.48 348.62 422.428L279.924 353.74C279.883 353.7 279.856 353.649 279.844 353.594C279.833 353.538 279.839 353.481 279.86 353.428Z" fill="#9FEF00"/>
</g>
<defs>
<clipPath id="clip0_34_893">
<rect width="512" height="512" fill="white"/>
</clipPath>
</defs>
</svg>
