<svg width="512" height="512" viewBox="0 0 512 512" fill="none" xmlns="http://www.w3.org/2000/svg">
<path opacity="0.08" d="M64 506.833C34.6075 506.833 10.5 482.726 10.5 453.333V74.6667C10.5 45.2742 34.6075 21.1667 64 21.1667H448C477.392 21.1667 501.5 45.2742 501.5 74.6667V453.333C501.5 482.726 477.392 506.833 448 506.833H64Z" fill="#141D2B"/>
<path opacity="0.1" d="M64 501.5C37.4847 501.5 15.8334 479.849 15.8334 453.333V74.6667C15.8334 48.1513 37.4847 26.5 64 26.5H448C474.515 26.5 496.167 48.1513 496.167 74.6667V453.333C496.167 479.849 474.515 501.5 448 501.5H64Z" fill="#141D2B"/>
<path opacity="0.2" d="M64 496C40.4847 496 21.3334 476.849 21.3334 453.333V74.6667C21.3334 51.1513 40.4847 32 64 32H448C471.515 32 490.667 51.1513 490.667 74.6667V453.333C490.667 476.849 471.515 496 448 496H64Z" fill="#141D2B"/>
<path opacity="0.3" d="M448 490.667H64C43.3813 490.667 26.6666 473.952 26.6666 453.333V74.6667C26.6666 54.048 43.3813 37.3333 64 37.3333H448C468.619 37.3333 485.333 54.048 485.333 74.6667V453.333C485.333 473.952 468.619 490.667 448 490.667Z" fill="#141D2B"/>
<path opacity="0.45" d="M448 485.333H64C46.3269 485.333 32 471.006 32 453.333V69.3333C32 51.6602 46.3269 37.3333 64 37.3333H448C465.673 37.3333 480 51.6602 480 69.3333V453.333C480 471.006 465.673 485.333 448 485.333Z" fill="#141D2B"/>
<path d="M421.263 61.3333H85.4035C69.0066 61.3333 55.7142 75.273 55.7142 92.4684V426.198C55.7142 443.394 69.0066 457.333 85.4035 457.333H421.263C437.66 457.333 450.952 443.394 450.952 426.198V92.4684C450.952 75.273 437.66 61.3333 421.263 61.3333Z" fill="#141D2B"/>
<path opacity="0.15" d="M101.333 69.3333C83.7898 69.3333 69.3333 83.7898 69.3333 101.333V410.667C69.3333 428.21 83.7898 442.667 101.333 442.667H410.667C428.21 442.667 442.667 428.21 442.667 410.667V101.333C442.667 83.7898 428.21 69.3333 410.667 69.3333H101.333ZM101.333 90.6666H410.667C416.76 90.6666 421.333 95.2395 421.333 101.333V410.667C421.333 416.76 416.76 421.333 410.667 421.333H101.333C95.2394 421.333 90.6666 416.76 90.6666 410.667V101.333C90.6666 95.2395 95.2394 90.6666 101.333 90.6666Z" fill="#141D2B"/>
<path opacity="0.3" d="M90.6666 74.6666C81.8026 74.6666 74.6666 81.8026 74.6666 90.6666V421.333C74.6666 430.197 81.8026 437.333 90.6666 437.333H421.333C430.197 437.333 437.333 430.197 437.333 421.333V90.6666C437.333 81.8026 430.197 74.6666 421.333 74.6666H90.6666ZM90.6666 85H421.333C424.63 85 427 87.3698 427 90.6666V421.333C427 424.63 424.63 427 421.333 427H90.6666C87.3698 427 85 424.63 85 421.333V90.6666C85 87.3698 87.3698 85 90.6666 85Z" fill="#141D2B"/>
<path opacity="0.6" d="M90.6666 74.6666C81.8026 74.6666 74.6666 81.8026 74.6666 90.6666V421.333C74.6666 430.197 81.8026 437.333 90.6666 437.333H421.333C430.197 437.333 437.333 430.197 437.333 421.333V90.6666C437.333 81.8026 430.197 74.6666 421.333 74.6666H90.6666ZM90.6666 79.8333H421.333C427.414 79.8333 432.167 84.5862 432.167 90.6666V421.333C432.167 427.414 427.414 432.167 421.333 432.167H90.6666C84.5862 432.167 79.8333 427.414 79.8333 421.333V90.6666C79.8333 84.5862 84.5862 79.8333 90.6666 79.8333Z" fill="#141D2B"/>
<path opacity="0.08" d="M389.333 64.0001V437.333" stroke="#9FEF00" stroke-width="2"/>
<path opacity="0.08" d="M325.333 64.0001V437.333" stroke="#9FEF00" stroke-width="2"/>
<path opacity="0.08" d="M261.333 64.0001V437.333" stroke="#9FEF00" stroke-width="2"/>
<path opacity="0.08" d="M197.333 64.0001V437.333" stroke="#9FEF00" stroke-width="2"/>
<path opacity="0.08" d="M133.333 64.0001V437.333" stroke="#9FEF00" stroke-width="2"/>
<path opacity="0.08" d="M69.3334 378.667H442.667" stroke="#9FEF00" stroke-width="2"/>
<path opacity="0.08" d="M69.3334 314.667H442.667" stroke="#9FEF00" stroke-width="2"/>
<path opacity="0.08" d="M69.3334 250.667H442.667" stroke="#9FEF00" stroke-width="2"/>
<path opacity="0.08" d="M69.3334 186.667H442.667" stroke="#9FEF00" stroke-width="2"/>
<path opacity="0.08" d="M69.3334 122.667H442.667" stroke="#9FEF00" stroke-width="2"/>
<path opacity="0.08" d="M69.3334 26.6667H442.667" stroke="#9FEF00" stroke-width="2"/>
<g opacity="0.75">
<path opacity="0.15" d="M304 245.333H346.667V256H304V245.333ZM330.667 229.333V272H320V229.333H330.667Z" fill="url(#paint0_radial_34_45)"/>
<path opacity="0.15" d="M304 181.333H346.667V192H304V181.333ZM330.667 165.333V208H320V165.333H330.667Z" fill="url(#paint1_radial_34_45)"/>
<path opacity="0.15" d="M304 117.333H346.667V128H304V117.333ZM330.667 101.333V144H320V101.333H330.667Z" fill="url(#paint2_radial_34_45)"/>
<path opacity="0.15" d="M304 373.333H346.667V384H304V373.333ZM330.667 357.333V400H320V357.333H330.667Z" fill="url(#paint3_radial_34_45)"/>
<path opacity="0.15" d="M304 309.333H346.667V320H304V309.333ZM330.667 293.333V336H320V293.333H330.667Z" fill="url(#paint4_radial_34_45)"/>
<path opacity="0.15" d="M368 245.333H410.667V256H368V245.333ZM394.667 229.333V272H384V229.333H394.667Z" fill="url(#paint5_radial_34_45)"/>
<path opacity="0.15" d="M368 181.333H410.667V192H368V181.333ZM394.667 165.333V208H384V165.333H394.667Z" fill="url(#paint6_radial_34_45)"/>
<path opacity="0.15" d="M368 117.333H410.667V128H368V117.333ZM394.667 101.333V144H384V101.333H394.667Z" fill="url(#paint7_radial_34_45)"/>
<path opacity="0.15" d="M368 373.333H410.667V384H368V373.333ZM394.667 357.333V400H384V357.333H394.667Z" fill="url(#paint8_radial_34_45)"/>
<path opacity="0.15" d="M368 309.333H410.667V320H368V309.333ZM394.667 293.333V336H384V293.333H394.667Z" fill="url(#paint9_radial_34_45)"/>
<path opacity="0.15" d="M240 245.333H282.667V256H240V245.333ZM266.667 229.333V272H256V229.333H266.667Z" fill="url(#paint10_radial_34_45)"/>
<path opacity="0.15" d="M240 181.333H282.667V192H240V181.333ZM266.667 165.333V208H256V165.333H266.667Z" fill="url(#paint11_radial_34_45)"/>
<path opacity="0.15" d="M240 117.333H282.667V128H240V117.333ZM266.667 101.333V144H256V101.333H266.667Z" fill="url(#paint12_radial_34_45)"/>
<path opacity="0.15" d="M240 373.333H282.667V384H240V373.333ZM266.667 357.333V400H256V357.333H266.667Z" fill="url(#paint13_radial_34_45)"/>
<path opacity="0.15" d="M240 309.333H282.667V320H240V309.333ZM266.667 293.333V336H256V293.333H266.667Z" fill="url(#paint14_radial_34_45)"/>
<path opacity="0.15" d="M112 245.333H154.667V256H112V245.333ZM138.667 229.333V272H128V229.333H138.667Z" fill="url(#paint15_radial_34_45)"/>
<path opacity="0.15" d="M112 181.333H154.667V192H112V181.333ZM138.667 165.333V208H128V165.333H138.667Z" fill="url(#paint16_radial_34_45)"/>
<path opacity="0.15" d="M112 117.333H154.667V128H112V117.333ZM138.667 101.333V144H128V101.333H138.667Z" fill="url(#paint17_radial_34_45)"/>
<path opacity="0.15" d="M112 373.333H154.667V384H112V373.333ZM138.667 357.333V400H128V357.333H138.667Z" fill="url(#paint18_radial_34_45)"/>
<path opacity="0.15" d="M112 309.333H154.667V320H112V309.333ZM138.667 293.333V336H128V293.333H138.667Z" fill="url(#paint19_radial_34_45)"/>
<path opacity="0.15" d="M176 245.333H218.667V256H176V245.333ZM202.667 229.333V272H192V229.333H202.667Z" fill="url(#paint20_radial_34_45)"/>
<path opacity="0.15" d="M176 181.333H218.667V192H176V181.333ZM202.667 165.333V208H192V165.333H202.667Z" fill="url(#paint21_radial_34_45)"/>
<path opacity="0.15" d="M176 117.333H218.667V128H176V117.333ZM202.667 101.333V144H192V101.333H202.667Z" fill="url(#paint22_radial_34_45)"/>
<path opacity="0.15" d="M176 373.333H218.667V384H176V373.333ZM202.667 357.333V400H192V357.333H202.667Z" fill="url(#paint23_radial_34_45)"/>
<path opacity="0.15" d="M176 309.333H218.667V320H176V309.333ZM202.667 293.333V336H192V293.333H202.667Z" fill="url(#paint24_radial_34_45)"/>
</g>
<path fill-rule="evenodd" clip-rule="evenodd" d="M160 145.333L136.833 277.333H58.6666V288H145.833L165 178.167L192.5 347.5L197.75 376.548L203 347.5L214.833 267H255.5L261.5 248.333L280.5 317L294.5 287.5H462.5V276.833H287.833L283.167 286.5L262.167 210.833L247.667 256.333H205.667L197.5 311.5L170.5 145.5L165.333 118.274L160 145.333Z" fill="url(#paint25_linear_34_45)"/>
<path d="M235.888 364.314V365.628H232.256V364.314H235.888ZM237.059 368.952V367.739L239.893 365.115C240.134 364.881 240.336 364.671 240.499 364.485C240.665 364.298 240.791 364.115 240.877 363.937C240.962 363.755 241.005 363.559 241.005 363.349C241.005 363.116 240.952 362.915 240.845 362.747C240.739 362.576 240.594 362.445 240.41 362.354C240.226 362.261 240.017 362.214 239.784 362.214C239.54 362.214 239.328 362.263 239.146 362.362C238.965 362.46 238.825 362.602 238.727 362.786C238.628 362.97 238.579 363.189 238.579 363.443H236.981C236.981 362.922 237.099 362.47 237.335 362.086C237.571 361.702 237.901 361.406 238.326 361.196C238.751 360.986 239.241 360.881 239.796 360.881C240.366 360.881 240.862 360.982 241.285 361.184C241.71 361.384 242.04 361.661 242.276 362.016C242.512 362.371 242.63 362.778 242.63 363.237C242.63 363.537 242.57 363.834 242.451 364.127C242.334 364.42 242.126 364.745 241.825 365.103C241.525 365.458 241.101 365.884 240.554 366.382L239.391 367.521V367.576H242.735V368.952H237.059ZM247.077 369.127C246.408 369.124 245.833 368.96 245.35 368.633C244.871 368.306 244.502 367.833 244.242 367.214C243.986 366.595 243.859 365.849 243.861 364.978C243.861 364.11 243.99 363.37 244.246 362.759C244.506 362.147 244.875 361.682 245.354 361.363C245.836 361.041 246.411 360.881 247.077 360.881C247.743 360.881 248.316 361.041 248.795 361.363C249.277 361.684 249.648 362.151 249.907 362.762C250.166 363.372 250.294 364.11 250.292 364.978C250.292 365.852 250.162 366.598 249.903 367.218C249.646 367.837 249.278 368.31 248.799 368.637C248.319 368.963 247.745 369.127 247.077 369.127ZM247.077 367.731C247.533 367.731 247.897 367.502 248.169 367.043C248.441 366.584 248.576 365.896 248.573 364.978C248.573 364.375 248.511 363.872 248.387 363.47C248.265 363.068 248.091 362.766 247.866 362.564C247.643 362.362 247.38 362.261 247.077 362.261C246.623 362.261 246.26 362.488 245.988 362.941C245.716 363.395 245.579 364.074 245.576 364.978C245.576 365.59 245.637 366.101 245.759 366.51C245.883 366.917 246.058 367.223 246.284 367.428C246.509 367.63 246.773 367.731 247.077 367.731ZM256.242 369.049C255.789 369.049 255.378 368.932 255.01 368.699C254.644 368.463 254.354 368.117 254.139 367.661C253.926 367.202 253.82 366.64 253.82 365.974C253.82 365.289 253.93 364.721 254.151 364.267C254.371 363.811 254.664 363.47 255.029 363.245C255.397 363.016 255.8 362.902 256.238 362.902C256.573 362.902 256.851 362.959 257.074 363.073C257.3 363.185 257.481 363.325 257.618 363.493C257.758 363.659 257.865 363.822 257.937 363.983H257.988V360.99H259.64V368.952H258.007V367.995H257.937C257.859 368.161 257.749 368.326 257.607 368.489C257.467 368.65 257.284 368.783 257.059 368.89C256.836 368.996 256.564 369.049 256.242 369.049ZM256.767 367.731C257.034 367.731 257.259 367.658 257.443 367.513C257.63 367.366 257.773 367.16 257.871 366.895C257.972 366.631 258.023 366.321 258.023 365.966C258.023 365.611 257.974 365.302 257.875 365.041C257.777 364.779 257.634 364.577 257.447 364.434C257.261 364.292 257.034 364.22 256.767 364.22C256.495 364.22 256.265 364.294 256.079 364.442C255.892 364.59 255.751 364.794 255.655 365.056C255.559 365.318 255.511 365.621 255.511 365.966C255.511 366.313 255.559 366.62 255.655 366.887C255.754 367.152 255.895 367.359 256.079 367.509C256.265 367.657 256.495 367.731 256.767 367.731ZM261.033 368.952V360.99H264.221C264.807 360.99 265.295 361.076 265.687 361.25C266.078 361.424 266.372 361.665 266.569 361.973C266.766 362.279 266.865 362.632 266.865 363.031C266.865 363.342 266.802 363.615 266.678 363.851C266.554 364.084 266.383 364.276 266.165 364.426C265.95 364.574 265.703 364.679 265.426 364.741V364.819C265.729 364.832 266.013 364.918 266.278 365.076C266.545 365.234 266.761 365.455 266.927 365.74C267.093 366.023 267.176 366.36 267.176 366.751C267.176 367.174 267.071 367.551 266.861 367.883C266.653 368.212 266.346 368.472 265.939 368.664C265.532 368.856 265.031 368.952 264.435 368.952H261.033ZM262.716 367.576H264.089C264.558 367.576 264.9 367.486 265.115 367.307C265.33 367.126 265.438 366.885 265.438 366.584C265.438 366.364 265.385 366.169 265.278 366.001C265.172 365.832 265.02 365.7 264.824 365.604C264.629 365.509 264.397 365.461 264.128 365.461H262.716V367.576ZM262.716 364.321H263.964C264.195 364.321 264.4 364.281 264.579 364.201C264.76 364.118 264.903 364.001 265.006 363.851C265.113 363.701 265.166 363.521 265.166 363.311C265.166 363.023 265.063 362.791 264.859 362.615C264.656 362.438 264.369 362.35 263.995 362.35H262.716V364.321Z" fill="#9FEF00"/>
<path d="M395.2 192H356.8C354.149 192 352 193.592 352 195.556V199.111C352 201.075 354.149 202.667 356.8 202.667H395.2C397.851 202.667 400 201.075 400 199.111V195.556C400 193.592 397.851 192 395.2 192Z" fill="#9FEF00"/>
<path d="M395.2 170.667H356.8C354.149 170.667 352 172.259 352 174.222V177.778C352 179.741 354.149 181.333 356.8 181.333H395.2C397.851 181.333 400 179.741 400 177.778V174.222C400 172.259 397.851 170.667 395.2 170.667Z" fill="#9FEF00"/>
<path opacity="0.5" d="M395.2 149.333H356.8C354.149 149.333 352 150.925 352 152.889V156.444C352 158.408 354.149 160 356.8 160H395.2C397.851 160 400 158.408 400 156.444V152.889C400 150.925 397.851 149.333 395.2 149.333Z" fill="#9FEF00"/>
<path opacity="0.5" d="M395.2 128H356.8C354.149 128 352 129.592 352 131.556V135.111C352 137.075 354.149 138.667 356.8 138.667H395.2C397.851 138.667 400 137.075 400 135.111V131.556C400 129.592 397.851 128 395.2 128Z" fill="#9FEF00"/>
<path opacity="0.5" d="M395.2 106.667H356.8C354.149 106.667 352 108.259 352 110.222V113.778C352 115.741 354.149 117.333 356.8 117.333H395.2C397.851 117.333 400 115.741 400 113.778V110.222C400 108.259 397.851 106.667 395.2 106.667Z" fill="#9FEF00"/>
<path opacity="0.05" fill-rule="evenodd" clip-rule="evenodd" d="M163.333 101.667C163.277 101.721 163.221 101.777 163.167 101.833C159.213 102.455 155.64 104.255 153.333 106.833C151.027 109.411 149.805 112.515 149 115.333C147.39 120.97 147.227 126.46 146.333 129.5C146.265 129.719 146.209 129.941 146.167 130.167C138.011 173.659 130.75 217.213 123 260.667C100.777 260.775 78.291 260.258 55.8334 261C55.4398 261.016 55.0489 261.072 54.6667 261.167C48.124 262.67 44.1772 268.146 42.8334 273.167C41.6195 277.701 41.8835 282.03 42.1667 285.667C42.197 286.056 41.9682 286.63 42 287H42.3334C42.0479 292.645 44.4002 297.911 48.3334 301C52.253 304.078 57.4815 305.293 62.6667 304.5V304.667C91.1784 304.444 120.056 305.118 148.833 304.333C149.402 304.305 149.964 304.193 150.5 304C157.89 301.607 161.316 294.884 162.5 289.333C163.571 284.315 163.813 279.857 164.5 276.833C170.129 312.036 175.235 347.355 182.333 382.333C182.445 382.797 182.612 383.245 182.833 383.667C186.355 391.219 194.794 393.754 201.5 392.167C207.779 390.681 213.287 385.013 213.833 377.5H214.167C214.255 377.059 214.246 376.608 214.333 376.167C220.397 345.38 224.34 314.354 229 283.667C237.102 283.655 245.338 283.66 253.833 283.333C257.721 296.872 260.873 311.008 265.833 324.833C265.967 325.182 266.135 325.517 266.333 325.833C273.729 338.099 292.443 334.096 296.5 321.167L296.667 321.333L304.833 304.167C358.076 304.075 411.392 304.382 464.667 304C465.004 303.974 465.339 303.918 465.667 303.833C471.783 302.672 476.068 298.043 477.833 293.333C479.322 289.361 479.172 285.404 478.833 281.667H479C479.116 281.151 478.933 280.68 479 280.167C479.03 279.938 478.979 279.727 479 279.5C479.992 268.568 470.675 258.777 459.5 260.333V260.167H293.167C287.772 241.378 283.126 222.082 276.833 203.167C276.699 202.818 276.532 202.483 276.333 202.167C268.759 188.798 247.778 194.241 245.667 208.667H245.5L235.833 239.833C225.234 239.916 214.142 239.29 202.667 240.5C202.615 239.791 202.566 239.276 202.5 238.5C202.375 237.019 201.91 235.439 201.333 233.667H201.5C194.695 193.716 189.414 153.23 181 113.167C180.965 112.885 180.909 112.607 180.833 112.333C178.151 105.141 170.782 100.859 163.333 101.667Z" fill="url(#paint26_linear_34_45)"/>
<path opacity="0.08" fill-rule="evenodd" clip-rule="evenodd" d="M164 107.5C152.75 109.27 154.325 122.813 151.874 131.15C143.431 176.169 135.921 221.399 127.833 266.5C103.908 266.729 79.8347 266.046 56 266.833C47.088 268.881 47.211 279.262 47.8333 286.497C46.6783 294.666 55.1558 300.585 62.7394 298.833C91.3716 298.61 120.085 299.28 148.667 298.5C159.076 295.129 156.544 282.189 159.122 273.783C160.915 263.466 162.707 253.15 164.5 242.833C172.358 289.002 178.73 335.485 188 381.167C192.598 391.026 208.842 387.17 208.535 376.331C215.023 343.718 219.08 310.704 224.167 277.833C235.489 277.611 246.899 278.279 258.167 277.5C262.71 292.543 266.052 308.114 271.333 322.833C276.331 331.122 289.472 328.042 291.485 318.911C294.768 312.052 298.051 305.193 301.333 298.333C355.769 298.221 410.277 298.557 464.667 298.167C472.874 296.609 474.381 287.332 473.333 280.373C475.172 272.164 467.81 264.22 459.445 266C402.575 266 345.704 266 288.833 266C282.858 245.731 277.974 224.961 271.333 205C266.207 195.951 251.47 200.265 251.08 210.413C247.387 222.109 243.693 233.804 240 245.5C227.306 245.924 214.375 244.638 201.833 246.167C195.342 252.476 197.883 238.658 195.885 234.596C189.056 194.5 183.687 154.107 175.333 114.333C173.648 109.815 168.784 106.981 164 107.5Z" fill="url(#paint27_linear_34_45)"/>
<path opacity="0.2" fill-rule="evenodd" clip-rule="evenodd" d="M164.667 112.5C163.447 112.649 162.305 113.181 161.407 114.019C160.508 114.858 159.899 115.96 159.667 117.167L154.333 144.167C154.333 144.222 154.333 144.278 154.333 144.333L132 271.5H58.6666C57.8996 271.497 57.1396 271.645 56.4303 271.937C55.721 272.229 55.0766 272.659 54.5342 273.201C53.9919 273.743 53.5623 274.388 53.2704 275.097C52.9784 275.806 52.8299 276.566 52.8333 277.333V288C52.8299 288.767 52.9784 289.527 53.2704 290.236C53.5623 290.946 53.9919 291.59 54.5342 292.132C55.0766 292.675 55.721 293.104 56.4303 293.396C57.1396 293.688 57.8996 293.837 58.6666 293.833H145.833C147.195 293.82 148.508 293.328 149.543 292.445C150.579 291.561 151.272 290.342 151.5 289L164.833 212.833L186.833 348.5L192 377.5C192.289 378.787 193.007 379.938 194.037 380.763C195.067 381.587 196.347 382.036 197.667 382.036C198.986 382.036 200.266 381.587 201.296 380.763C202.326 379.938 203.045 378.787 203.333 377.5L208.667 348.5C208.667 348.444 208.667 348.389 208.667 348.333L219.833 272.833H255.5C256.721 272.829 257.909 272.441 258.897 271.723C259.884 271.005 260.62 269.994 261 268.833L274.833 318.5C275.144 319.642 275.796 320.661 276.702 321.422C277.608 322.183 278.725 322.649 279.903 322.758C281.081 322.866 282.265 322.613 283.295 322.031C284.325 321.448 285.152 320.565 285.667 319.5L298.167 293.333H462.5C463.267 293.337 464.027 293.188 464.736 292.896C465.446 292.604 466.09 292.175 466.632 291.632C467.175 291.09 467.604 290.446 467.896 289.736C468.188 289.027 468.337 288.267 468.333 287.5V276.833C468.337 276.066 468.188 275.306 467.896 274.597C467.604 273.888 467.175 273.243 466.632 272.701C466.09 272.159 465.446 271.729 464.736 271.437C464.027 271.145 463.267 270.997 462.5 271H287.833C286.904 271.006 285.989 271.234 285.167 271.667L267.833 209.333C267.524 208.109 266.824 207.018 265.839 206.227C264.854 205.436 263.638 204.988 262.376 204.95C261.113 204.913 259.873 205.288 258.843 206.018C257.812 206.749 257.048 207.796 256.667 209L243.5 250.5H205.667C204.281 250.52 202.948 251.035 201.909 251.952C200.87 252.869 200.193 254.128 200 255.5L197.167 274.167L176.167 144.5C176.167 144.444 176.167 144.389 176.167 144.333L171 117.167C170.722 115.736 169.917 114.462 168.744 113.598C167.571 112.733 166.115 112.341 164.667 112.5Z" fill="url(#paint28_linear_34_45)"/>
<path opacity="0.5" d="M64 32C46.272 32 32 46.272 32 64V74.6667V437.333V448C32 449.785 32.2205 451.47 32.5 453.167C32.7597 454.743 33.0175 456.35 33.5 457.833C33.5527 457.995 33.6114 458.173 33.6667 458.333C34.1939 459.868 34.9194 461.253 35.6667 462.667C36.4378 464.125 37.35 465.523 38.3333 466.833C39.3167 468.143 40.3268 469.358 41.5 470.5C43.8464 472.783 46.5289 474.844 49.5 476.333C50.9856 477.078 52.5585 477.65 54.1667 478.167C52.8003 477.632 51.5709 476.907 50.3333 476.167C50.2938 476.143 50.206 476.191 50.1667 476.167C49.9964 476.064 49.8344 475.94 49.6667 475.833C49.0246 475.424 48.4345 474.961 47.8333 474.5C47.2671 474.069 46.6958 473.641 46.1667 473.167C45.2177 472.306 44.3135 471.325 43.5 470.333C42.9262 469.639 42.3352 468.918 41.8333 468.167C41.6995 467.962 41.6283 467.709 41.5 467.5C41.1546 466.95 40.8055 466.409 40.5 465.833C39.9613 464.795 39.4031 463.616 39 462.5C38.9575 462.384 38.8742 462.284 38.8333 462.167C38.6636 461.676 38.6424 461.17 38.5 460.667C38.3382 460.098 38.1246 459.584 38 459C37.6113 457.179 37.3333 455.276 37.3333 453.333V442.667V80V69.3333C37.3333 54.4968 49.1635 42.6667 64 42.6667H74.6667H437.333H448C462.837 42.6667 474.667 54.4968 474.667 69.3333V80V442.667V453.333C474.667 455.276 474.389 457.179 474 459C473.765 460.103 473.529 461.121 473.167 462.167C473.126 462.284 473.042 462.384 473 462.5C472.665 463.427 472.262 464.46 471.833 465.333C471.612 465.775 471.412 466.24 471.167 466.667C470.875 467.185 470.491 467.671 470.167 468.167C469.665 468.918 469.074 469.639 468.5 470.333C467.736 471.264 466.883 472.184 466 473C465.94 473.054 465.893 473.113 465.833 473.167C465.095 473.836 464.313 474.417 463.5 475C462.953 475.39 462.41 475.818 461.833 476.167C461.794 476.191 461.706 476.143 461.667 476.167C460.429 476.907 459.2 477.632 457.833 478.167C459.441 477.65 461.014 477.078 462.5 476.333C465.471 474.844 468.154 472.783 470.5 470.5C471.673 469.358 472.683 468.143 473.667 466.833C474.65 465.523 475.562 464.125 476.333 462.667C477.081 461.253 477.806 459.868 478.333 458.333C478.389 458.169 478.447 457.999 478.5 457.833C478.982 456.35 479.24 454.743 479.5 453.167C479.779 451.47 480 449.785 480 448V437.333V74.6667V64C480 46.272 465.728 32 448 32H64Z" fill="url(#paint29_linear_34_45)"/>
<path d="M64 32C46.272 32 32 46.272 32 64V448C32 465.728 46.272 480 64 480H448C465.728 480 480 465.728 480 448V64C480 46.272 465.728 32 448 32H64ZM90.6667 69.3333H421.333C433.152 69.3333 442.667 78.848 442.667 90.6667V421.333C442.667 433.152 433.152 442.667 421.333 442.667H90.6667C78.848 442.667 69.3333 433.152 69.3333 421.333V90.6667C69.3333 78.848 78.848 69.3333 90.6667 69.3333Z" fill="url(#paint30_linear_34_45)"/>
<path opacity="0.5" d="M64 32C46.272 32 32 46.272 32 64V74.6667V437.333V448C32 449.785 32.2205 451.47 32.5 453.167C32.7597 454.743 33.0175 456.35 33.5 457.833C33.5527 457.995 33.6114 458.173 33.6667 458.333C34.1939 459.868 34.9194 461.253 35.6667 462.667C36.4378 464.125 37.35 465.523 38.3333 466.833C39.3167 468.143 40.3268 469.358 41.5 470.5C43.8464 472.783 46.5289 474.844 49.5 476.333C50.9856 477.078 52.5585 477.65 54.1667 478.167C52.8003 477.632 51.5709 476.907 50.3333 476.167C50.2938 476.143 50.206 476.191 50.1667 476.167C49.9964 476.064 49.8344 475.94 49.6667 475.833C49.0246 475.424 48.4345 474.961 47.8333 474.5C47.2671 474.069 46.6958 473.641 46.1667 473.167C45.2177 472.306 44.3135 471.325 43.5 470.333C42.9262 469.639 42.3352 468.918 41.8333 468.167C41.6995 467.962 41.6283 467.709 41.5 467.5C41.1546 466.95 40.8055 466.409 40.5 465.833C39.9613 464.795 39.4031 463.616 39 462.5C38.9575 462.384 38.8742 462.284 38.8333 462.167C38.6636 461.676 38.6424 461.17 38.5 460.667C38.3382 460.098 38.1246 459.584 38 459C37.6113 457.179 37.3333 455.276 37.3333 453.333V442.667V80V69.3333C37.3333 54.4968 49.1635 42.6667 64 42.6667H74.6667H437.333H448C462.837 42.6667 474.667 54.4968 474.667 69.3333V80V442.667V453.333C474.667 455.276 474.389 457.179 474 459C473.765 460.103 473.529 461.121 473.167 462.167C473.126 462.284 473.042 462.384 473 462.5C472.665 463.427 472.262 464.46 471.833 465.333C471.612 465.775 471.412 466.24 471.167 466.667C470.875 467.185 470.491 467.671 470.167 468.167C469.665 468.918 469.074 469.639 468.5 470.333C467.736 471.264 466.883 472.184 466 473C465.94 473.054 465.893 473.113 465.833 473.167C465.095 473.836 464.313 474.417 463.5 475C462.953 475.39 462.41 475.818 461.833 476.167C461.794 476.191 461.706 476.143 461.667 476.167C460.429 476.907 459.2 477.632 457.833 478.167C459.441 477.65 461.014 477.078 462.5 476.333C465.471 474.844 468.154 472.783 470.5 470.5C471.673 469.358 472.683 468.143 473.667 466.833C474.65 465.523 475.562 464.125 476.333 462.667C477.081 461.253 477.806 459.868 478.333 458.333C478.389 458.169 478.447 457.999 478.5 457.833C478.982 456.35 479.24 454.743 479.5 453.167C479.779 451.47 480 449.785 480 448V437.333V74.6667V64C480 46.272 465.728 32 448 32H64Z" fill="url(#paint31_linear_34_45)"/>
<path d="M90.6667 64C75.9856 64 64 75.9856 64 90.6667V421.333C64 436.014 75.9856 448 90.6667 448H421.333C436.014 448 448 436.014 448 421.333V90.6667C448 75.9856 436.014 64 421.333 64H90.6667ZM90.6667 74.6667H421.333C430.29 74.6667 437.333 81.7104 437.333 90.6667V421.333C437.333 430.29 430.29 437.333 421.333 437.333H90.6667C81.7104 437.333 74.6667 430.29 74.6667 421.333V90.6667C74.6667 81.7104 81.7104 74.6667 90.6667 74.6667Z" fill="url(#paint32_linear_34_45)"/>
<path opacity="0.25" d="M64 480C46.272 480 32 465.728 32 448V437.333V74.6666V64C32 62.2148 32.2205 60.5296 32.5 58.8333C32.7597 57.2568 33.0175 55.6498 33.5 54.1666C33.5527 54.0046 33.6114 53.8274 33.6667 53.6666C34.1939 52.1319 34.9194 50.7469 35.6667 49.3333C36.4378 47.8746 37.35 46.4767 38.3333 45.1666C39.3167 43.8566 40.3268 42.6415 41.5 41.5C43.8464 39.217 46.5289 37.1558 49.5 35.6666C50.9856 34.922 52.5585 34.3496 54.1667 33.8333C52.8003 34.3678 51.5709 35.0934 50.3333 35.8333C50.2938 35.8568 50.206 35.8093 50.1667 35.8333C49.9964 35.9362 49.8344 36.06 49.6667 36.1666C49.0246 36.5757 48.4345 37.0387 47.8333 37.5C47.2671 37.9309 46.6958 38.3592 46.1667 38.8333C45.2177 39.6943 44.3135 40.6754 43.5 41.6666C42.9262 42.3613 42.3352 43.0815 41.8333 43.8333C41.6995 44.038 41.6283 44.2913 41.5 44.5C41.1546 45.0495 40.8055 45.5907 40.5 46.1666C39.9613 47.2051 39.4031 48.3837 39 49.5C38.9575 49.6163 38.8742 49.7162 38.8333 49.8333C38.6636 50.3237 38.6424 50.8297 38.5 51.3333C38.3382 51.9019 38.1246 52.4161 38 53C37.6113 54.8214 37.3333 56.7237 37.3333 58.6666V69.3333V432V442.667C37.3333 457.503 49.1635 469.333 64 469.333H74.6667H437.333H448C462.837 469.333 474.667 457.503 474.667 442.667V432V69.3333V58.6666C474.667 56.7237 474.389 54.8214 474 53C473.765 51.8965 473.529 50.8791 473.167 49.8333C473.126 49.7162 473.042 49.6163 473 49.5C472.665 48.5734 472.262 47.5403 471.833 46.6666C471.612 46.225 471.412 45.7602 471.167 45.3333C470.875 44.8149 470.491 44.3288 470.167 43.8333C469.665 43.0815 469.074 42.3613 468.5 41.6666C467.736 40.7362 466.883 39.816 466 39C465.94 38.9456 465.893 38.8872 465.833 38.8333C465.095 38.1637 464.313 37.583 463.5 37C462.953 36.6098 462.41 36.182 461.833 35.8333C461.794 35.8093 461.706 35.8568 461.667 35.8333C460.429 35.0934 459.2 34.3678 457.833 33.8333C459.441 34.3496 461.014 34.922 462.5 35.6666C465.471 37.1558 468.154 39.217 470.5 41.5C471.673 42.6415 472.683 43.8566 473.667 45.1666C474.65 46.4767 475.562 47.8746 476.333 49.3333C477.081 50.7469 477.806 52.1319 478.333 53.6666C478.389 53.8308 478.447 54.0013 478.5 54.1666C478.982 55.6498 479.24 57.2568 479.5 58.8333C479.779 60.5296 480 62.2148 480 64V74.6666V437.333V448C480 465.728 465.728 480 448 480H64Z" fill="url(#paint33_radial_34_45)"/>
<mask id="mask0_34_45" style="mask-type:luminance" maskUnits="userSpaceOnUse" x="32" y="32" width="448" height="448">
<path d="M448 32H64C46.3269 32 32 46.3269 32 64V448C32 465.673 46.3269 480 64 480H448C465.673 480 480 465.673 480 448V64C480 46.3269 465.673 32 448 32Z" fill="white"/>
</mask>
<g mask="url(#mask0_34_45)">
<g opacity="0.1" filter="url(#filter0_f_34_45)">
<path d="M368 80H144C108.654 80 80 108.654 80 144V368C80 403.346 108.654 432 144 432H368C403.346 432 432 403.346 432 368V144C432 108.654 403.346 80 368 80Z" fill="#9FEF00"/>
<path d="M368 80H144C108.654 80 80 108.654 80 144V368C80 403.346 108.654 432 144 432H368C403.346 432 432 403.346 432 368V144C432 108.654 403.346 80 368 80Z" stroke="#9FEF00" stroke-width="0.5" stroke-linecap="round"/>
</g>
</g>
<defs>
<filter id="filter0_f_34_45" x="69.19" y="69.19" width="373.62" height="373.62" filterUnits="userSpaceOnUse" color-interpolation-filters="sRGB">
<feFlood flood-opacity="0" result="BackgroundImageFix"/>
<feBlend mode="normal" in="SourceGraphic" in2="BackgroundImageFix" result="shape"/>
<feGaussianBlur stdDeviation="5.28" result="effect1_foregroundBlur_34_45"/>
</filter>
<radialGradient id="paint0_radial_34_45" cx="0" cy="0" r="1" gradientUnits="userSpaceOnUse" gradientTransform="translate(325.333 250.667) scale(21.3333)">
<stop stop-color="#9FEF00"/>
<stop offset="1" stop-color="#9FEF00"/>
</radialGradient>
<radialGradient id="paint1_radial_34_45" cx="0" cy="0" r="1" gradientUnits="userSpaceOnUse" gradientTransform="translate(325.333 186.667) scale(21.3333)">
<stop stop-color="#9FEF00"/>
<stop offset="1" stop-color="#9FEF00"/>
</radialGradient>
<radialGradient id="paint2_radial_34_45" cx="0" cy="0" r="1" gradientUnits="userSpaceOnUse" gradientTransform="translate(325.333 122.667) scale(21.3333)">
<stop stop-color="#9FEF00"/>
<stop offset="1" stop-color="#9FEF00"/>
</radialGradient>
<radialGradient id="paint3_radial_34_45" cx="0" cy="0" r="1" gradientUnits="userSpaceOnUse" gradientTransform="translate(325.333 378.667) scale(21.3333)">
<stop stop-color="#9FEF00"/>
<stop offset="1" stop-color="#9FEF00"/>
</radialGradient>
<radialGradient id="paint4_radial_34_45" cx="0" cy="0" r="1" gradientUnits="userSpaceOnUse" gradientTransform="translate(325.333 314.667) scale(21.3333)">
<stop stop-color="#9FEF00"/>
<stop offset="1" stop-color="#9FEF00"/>
</radialGradient>
<radialGradient id="paint5_radial_34_45" cx="0" cy="0" r="1" gradientUnits="userSpaceOnUse" gradientTransform="translate(389.333 250.667) scale(21.3333)">
<stop stop-color="#9FEF00"/>
<stop offset="1" stop-color="#9FEF00"/>
</radialGradient>
<radialGradient id="paint6_radial_34_45" cx="0" cy="0" r="1" gradientUnits="userSpaceOnUse" gradientTransform="translate(389.333 186.667) scale(21.3333)">
<stop stop-color="#9FEF00"/>
<stop offset="1" stop-color="#9FEF00"/>
</radialGradient>
<radialGradient id="paint7_radial_34_45" cx="0" cy="0" r="1" gradientUnits="userSpaceOnUse" gradientTransform="translate(389.333 122.667) scale(21.3333)">
<stop stop-color="#9FEF00"/>
<stop offset="1" stop-color="#9FEF00"/>
</radialGradient>
<radialGradient id="paint8_radial_34_45" cx="0" cy="0" r="1" gradientUnits="userSpaceOnUse" gradientTransform="translate(389.333 378.667) scale(21.3333)">
<stop stop-color="#9FEF00"/>
<stop offset="1" stop-color="#9FEF00"/>
</radialGradient>
<radialGradient id="paint9_radial_34_45" cx="0" cy="0" r="1" gradientUnits="userSpaceOnUse" gradientTransform="translate(389.333 314.667) scale(21.3333)">
<stop stop-color="#9FEF00"/>
<stop offset="1" stop-color="#9FEF00"/>
</radialGradient>
<radialGradient id="paint10_radial_34_45" cx="0" cy="0" r="1" gradientUnits="userSpaceOnUse" gradientTransform="translate(261.333 250.667) scale(21.3333)">
<stop stop-color="#9FEF00"/>
<stop offset="1" stop-color="#9FEF00"/>
</radialGradient>
<radialGradient id="paint11_radial_34_45" cx="0" cy="0" r="1" gradientUnits="userSpaceOnUse" gradientTransform="translate(261.333 186.667) scale(21.3333)">
<stop stop-color="#9FEF00"/>
<stop offset="1" stop-color="#9FEF00"/>
</radialGradient>
<radialGradient id="paint12_radial_34_45" cx="0" cy="0" r="1" gradientUnits="userSpaceOnUse" gradientTransform="translate(261.333 122.667) scale(21.3333)">
<stop stop-color="#9FEF00"/>
<stop offset="1" stop-color="#9FEF00"/>
</radialGradient>
<radialGradient id="paint13_radial_34_45" cx="0" cy="0" r="1" gradientUnits="userSpaceOnUse" gradientTransform="translate(261.333 378.667) scale(21.3333)">
<stop stop-color="#9FEF00"/>
<stop offset="1" stop-color="#9FEF00"/>
</radialGradient>
<radialGradient id="paint14_radial_34_45" cx="0" cy="0" r="1" gradientUnits="userSpaceOnUse" gradientTransform="translate(261.333 314.667) scale(21.3333)">
<stop stop-color="#9FEF00"/>
<stop offset="1" stop-color="#9FEF00"/>
</radialGradient>
<radialGradient id="paint15_radial_34_45" cx="0" cy="0" r="1" gradientUnits="userSpaceOnUse" gradientTransform="translate(133.333 250.667) scale(21.3333)">
<stop stop-color="#9FEF00"/>
<stop offset="1" stop-color="#9FEF00"/>
</radialGradient>
<radialGradient id="paint16_radial_34_45" cx="0" cy="0" r="1" gradientUnits="userSpaceOnUse" gradientTransform="translate(133.333 186.667) scale(21.3333)">
<stop stop-color="#9FEF00"/>
<stop offset="1" stop-color="#9FEF00"/>
</radialGradient>
<radialGradient id="paint17_radial_34_45" cx="0" cy="0" r="1" gradientUnits="userSpaceOnUse" gradientTransform="translate(133.333 122.667) scale(21.3333)">
<stop stop-color="#9FEF00"/>
<stop offset="1" stop-color="#9FEF00"/>
</radialGradient>
<radialGradient id="paint18_radial_34_45" cx="0" cy="0" r="1" gradientUnits="userSpaceOnUse" gradientTransform="translate(133.333 378.667) scale(21.3333)">
<stop stop-color="#9FEF00"/>
<stop offset="1" stop-color="#9FEF00"/>
</radialGradient>
<radialGradient id="paint19_radial_34_45" cx="0" cy="0" r="1" gradientUnits="userSpaceOnUse" gradientTransform="translate(133.333 314.667) scale(21.3333)">
<stop stop-color="#9FEF00"/>
<stop offset="1" stop-color="#9FEF00"/>
</radialGradient>
<radialGradient id="paint20_radial_34_45" cx="0" cy="0" r="1" gradientUnits="userSpaceOnUse" gradientTransform="translate(197.333 250.667) scale(21.3333)">
<stop stop-color="#9FEF00"/>
<stop offset="1" stop-color="#9FEF00"/>
</radialGradient>
<radialGradient id="paint21_radial_34_45" cx="0" cy="0" r="1" gradientUnits="userSpaceOnUse" gradientTransform="translate(197.333 186.667) scale(21.3333)">
<stop stop-color="#9FEF00"/>
<stop offset="1" stop-color="#9FEF00"/>
</radialGradient>
<radialGradient id="paint22_radial_34_45" cx="0" cy="0" r="1" gradientUnits="userSpaceOnUse" gradientTransform="translate(197.333 122.667) scale(21.3333)">
<stop stop-color="#9FEF00"/>
<stop offset="1" stop-color="#9FEF00"/>
</radialGradient>
<radialGradient id="paint23_radial_34_45" cx="0" cy="0" r="1" gradientUnits="userSpaceOnUse" gradientTransform="translate(197.333 378.667) scale(21.3333)">
<stop stop-color="#9FEF00"/>
<stop offset="1" stop-color="#9FEF00"/>
</radialGradient>
<radialGradient id="paint24_radial_34_45" cx="0" cy="0" r="1" gradientUnits="userSpaceOnUse" gradientTransform="translate(197.333 314.667) scale(21.3333)">
<stop stop-color="#9FEF00"/>
<stop offset="1" stop-color="#9FEF00"/>
</radialGradient>
<linearGradient id="paint25_linear_34_45" x1="75.5308" y1="250.846" x2="435.618" y2="250.846" gradientUnits="userSpaceOnUse">
<stop stop-color="#9FEF00" stop-opacity="0"/>
<stop offset="0.220197" stop-color="#9FEF00"/>
<stop offset="0.561065" stop-color="#9FEF00"/>
<stop offset="1" stop-color="#9FEF00" stop-opacity="0"/>
</linearGradient>
<linearGradient id="paint26_linear_34_45" x1="75.5308" y1="250.846" x2="435.618" y2="250.846" gradientUnits="userSpaceOnUse">
<stop stop-color="#9FEF00"/>
<stop offset="0.220197" stop-color="#9FEF00"/>
<stop offset="0.561065" stop-color="#9FEF00"/>
<stop offset="1" stop-color="#9FEF00" stop-opacity="0"/>
</linearGradient>
<linearGradient id="paint27_linear_34_45" x1="75.5308" y1="250.846" x2="435.618" y2="250.846" gradientUnits="userSpaceOnUse">
<stop stop-color="#9FEF00" stop-opacity="0"/>
<stop offset="0.220197" stop-color="#9FEF00"/>
<stop offset="0.561065" stop-color="#9FEF00"/>
<stop offset="1" stop-color="#9FEF00" stop-opacity="0"/>
</linearGradient>
<linearGradient id="paint28_linear_34_45" x1="75.5308" y1="250.846" x2="435.618" y2="250.846" gradientUnits="userSpaceOnUse">
<stop stop-color="#9FEF00" stop-opacity="0"/>
<stop offset="0.220197" stop-color="#9FEF00"/>
<stop offset="0.561065" stop-color="#9FEF00"/>
<stop offset="1" stop-color="#9FEF00" stop-opacity="0"/>
</linearGradient>
<linearGradient id="paint29_linear_34_45" x1="193.905" y1="32" x2="193.905" y2="340.763" gradientUnits="userSpaceOnUse">
<stop stop-color="white"/>
<stop offset="1" stop-color="white" stop-opacity="0"/>
</linearGradient>
<linearGradient id="paint30_linear_34_45" x1="256" y1="480" x2="256" y2="31.9345" gradientUnits="userSpaceOnUse">
<stop stop-color="#141D2B"/>
<stop offset="1" stop-color="#A4B1CD"/>
</linearGradient>
<linearGradient id="paint31_linear_34_45" x1="193.905" y1="32" x2="193.905" y2="340.763" gradientUnits="userSpaceOnUse">
<stop stop-color="white"/>
<stop offset="1" stop-color="white" stop-opacity="0"/>
</linearGradient>
<linearGradient id="paint32_linear_34_45" x1="229.529" y1="63.8431" x2="229.529" y2="449.774" gradientUnits="userSpaceOnUse">
<stop stop-color="#141D2B"/>
<stop offset="1" stop-color="#A4B1CD"/>
</linearGradient>
<radialGradient id="paint33_radial_34_45" cx="0" cy="0" r="1" gradientUnits="userSpaceOnUse" gradientTransform="translate(256 480) scale(259.238 223.083)">
<stop stop-color="#9FEF00"/>
<stop offset="1" stop-color="white" stop-opacity="0"/>
</radialGradient>
</defs>
</svg>
