<svg width="64" height="64" viewBox="0 0 64 64" fill="none" xmlns="http://www.w3.org/2000/svg">
<g clip-path="url(#clip0_62_4546)">
<path fill-rule="evenodd" clip-rule="evenodd" d="M30.4614 28.0467C30.9774 28.0467 31.4921 28.2454 31.8881 28.6414L33.3148 30.0694L30.4574 32.9254L29.0308 31.4987C28.2388 30.7067 28.2388 29.4347 29.0308 28.6414C29.4268 28.2454 29.9454 28.0467 30.4614 28.0467ZM45.5041 9.30269V9.30669C45.3868 9.30935 45.2761 9.35735 45.1934 9.44002L43.9628 10.6707C43.8774 10.756 43.8294 10.872 43.8294 10.992V18.056H36.7641C36.6441 18.0574 36.5281 18.1054 36.4428 18.1907L31.8881 22.7454C31.7108 22.9227 31.7108 23.2107 31.8881 23.3894L39.4428 30.9467L38.3374 32.0507L33.4094 27.12C31.7854 25.496 29.1374 25.496 27.5121 27.12C25.8881 28.7454 25.8881 31.392 27.5121 33.0174L32.4401 37.948L30.4974 39.8907L26.6268 39.48C27.8334 37.8494 27.8801 35.5987 26.4041 34.1227C24.7801 32.4974 22.1348 32.4974 20.5108 34.1227L12.6321 42.0014C10.0414 44.592 10.0414 48.8067 12.6321 51.3987C15.2228 53.9894 19.4388 53.9894 22.0294 51.3987C23.2908 50.1374 23.7841 48.484 23.8188 46.8294L24.8868 47.8974C25.0641 48.0747 25.3521 48.0747 25.5308 47.8974L26.4041 47.02C26.5814 46.8427 26.5814 46.5547 26.4041 46.376L22.0294 42.0014C21.8508 41.824 21.5641 41.824 21.3854 42.0014L18.7588 44.628C18.5814 44.8054 18.5814 45.0934 18.7588 45.2707L19.6334 46.1454C19.7188 46.232 19.8361 46.28 19.9574 46.28C20.0788 46.28 20.1948 46.232 20.2801 46.1454L21.3454 45.08C21.9841 46.6947 21.8214 48.568 20.5108 49.8774C18.7521 51.636 15.9121 51.636 14.1534 49.8774C12.3934 48.1187 12.3934 45.2787 14.1534 43.5187L22.0294 35.6427C22.8214 34.8507 24.0934 34.8507 24.8868 35.6427C25.6788 36.436 25.6788 37.708 24.8868 38.5L23.1348 40.2494C23.0481 40.3347 23.0001 40.4507 23.0001 40.572C23.0001 40.6934 23.0481 40.8107 23.1348 40.896L27.5121 45.2707C27.6908 45.448 27.9788 45.448 28.1561 45.2707L29.0308 44.396C29.1174 44.3107 29.1654 44.1947 29.1654 44.0734C29.1654 43.952 29.1174 43.836 29.0308 43.7507L26.9601 41.6787L31.0814 42.1067C31.2188 42.12 31.3548 42.0707 31.4521 41.972L35.1574 38.2667C35.2441 38.1814 35.2921 38.0654 35.2921 37.944C35.2921 37.8227 35.2441 37.7054 35.1574 37.62L31.9788 34.444L34.8361 31.5867L38.0148 34.7654C38.1934 34.9427 38.4814 34.9427 38.6588 34.7654L42.1601 31.2654C42.2454 31.18 42.2948 31.0627 42.2948 30.9414C42.2948 30.82 42.2454 30.704 42.1601 30.6187L38.9801 27.44L41.2854 25.1374C41.4628 24.96 41.4628 24.672 41.2854 24.4947L40.4108 23.6174C40.3254 23.5307 40.2081 23.4827 40.0868 23.4827C39.9654 23.4827 39.8494 23.5307 39.7641 23.6174L37.4628 25.9214L34.6054 23.064L37.4734 20.196H43.8294V28.4934C43.8281 28.6787 43.9401 28.8467 44.1108 28.9174C44.2828 28.988 44.4788 28.948 44.6094 28.816L45.8401 27.5854C45.9254 27.5 45.9734 27.384 45.9734 27.2627V20.196H53.0374C53.1588 20.196 53.2748 20.1494 53.3601 20.0654L54.5908 18.8347C54.7228 18.704 54.7628 18.5067 54.6921 18.336C54.6214 18.164 54.4534 18.0534 54.2681 18.0534H45.9734V9.75869C45.9734 9.63602 45.9241 9.51735 45.8348 9.43202C45.7468 9.34535 45.6268 9.30002 45.5041 9.30269ZM4.97476 21.864V5.79202H22.8708L31.3881 14.7907L41.3481 5.04802L58.8494 5.71869L58.1934 21.8934L49.3414 32.044L58.9374 42.4134V58.2814L41.3481 58.952L31.4028 49.2094L22.0974 58.952L4.97476 58.296V42.5014L14.6308 31.9707L4.97476 21.864ZM0.600098 23.628V1.41735H24.7668L31.5188 8.56269L39.6281 0.614685L63.4001 1.50402L62.4961 23.6L55.2188 31.956L63.3121 40.692V62.496L39.6281 63.3854L31.5041 55.4374L23.9054 63.3854L0.600098 62.496V40.8094L8.6361 32.0294L0.600098 23.628ZM42.2241 36.3747C40.7134 36.3747 39.2014 36.948 38.0534 38.096C35.7574 40.392 35.7574 44.1414 38.0534 46.4374L38.6774 47.064L41.1134 44.632L40.4868 44.004C39.5201 43.0374 39.5201 41.4987 40.4868 40.532C41.4534 39.5654 42.9921 39.5654 43.9588 40.532C44.3588 40.932 44.5788 41.4214 44.6428 41.936V53.028L46.9508 55.3347L47.8161 54.4694L49.9388 52.3467L55.2908 46.9934L52.8588 44.56L48.0761 49.3414C48.0708 46.784 48.0828 44.2254 48.0761 41.6547V41.6027L48.0694 41.552C47.9174 40.296 47.3628 39.0654 46.3948 38.096C45.2468 36.948 43.7361 36.3747 42.2241 36.3747Z" fill="#9FEF00"/>
</g>
<defs>
<clipPath id="clip0_62_4546">
<rect width="64" height="64" fill="white"/>
</clipPath>
</defs>
</svg>
