<svg width="65" height="65" viewBox="0 0 65 65" fill="none" xmlns="http://www.w3.org/2000/svg">
<path fill-rule="evenodd" clip-rule="evenodd" d="M52.572 33.3454H56.6187V53.5841H24.2387V33.3454H40.428V53.5841H8.048V33.3454H12.0947H52.572ZM48.524 33.3454H44.476V53.5841H4V29.2974H12.0947V9.06006H52.572V29.2974H60.6667V53.5841H20.1907V33.3454H16.1427H48.524ZM16.1427 29.2974H20.1907H44.476H48.524V13.1067H16.1427V29.2974Z" fill="#9FEF00"/>
<path fill-rule="evenodd" clip-rule="evenodd" d="M4 45.488H12.0947V57.6307H4V45.488ZM20.1907 45.488H28.2853V57.6307H20.1907V45.488ZM36.3813 45.488H44.476V57.6307H36.3813V45.488ZM28.2853 7.03601H36.3813V19.1787H28.2853V7.03601ZM12.0947 27.2733H20.1907V39.4173H12.0947V27.2733ZM44.476 27.2733H52.572V39.4173H44.476V27.2733ZM52.572 45.488H60.6667V57.6307H52.572V45.488Z" fill="#A4B1CD"/>
</svg>
