<svg width="512" height="512" viewBox="0 0 512 512" fill="none" xmlns="http://www.w3.org/2000/svg">
<path opacity="0.3" d="M408 452C408 469.673 339.948 484 256 484C172.052 484 104 469.672 104 452C104 434.328 172.052 420 256 420C339.948 420 408 434.328 408 452Z" fill="url(#paint0_radial_15_52)"/>
<path d="M190 377.996C190 377.996 191.59 421.352 183.998 431.456C176.406 441.561 161.298 448.003 161.298 448.003C151.604 449.064 151.523 462.003 161.298 462.003H350.702C360.477 462.003 360.398 449.051 350.702 448.003C350.702 448.003 335.595 441.561 328.003 431.456C320.415 421.352 322.003 377.996 322.003 377.996H190.071H190Z" fill="#141D2B" stroke="#141D2B" stroke-width="0.99827" stroke-linecap="round" stroke-linejoin="round"/>
<path d="M162.1 458H349.9" stroke="url(#paint1_linear_15_52)" stroke-linecap="square"/>
<path d="M486 26H26C19.3726 26 14 31.3726 14 38V370C14 376.627 19.3726 382 26 382H486C492.627 382 498 376.627 498 370V38C498 31.3726 492.627 26 486 26Z" fill="#141D2B" stroke="#141D2B" stroke-width="1.0002" stroke-linecap="round" stroke-linejoin="round"/>
<path d="M486 30H26C21.5817 30 18 33.5817 18 38V370C18 374.418 21.5817 378 26 378H486C490.418 378 494 374.418 494 370V38C494 33.5817 490.418 30 486 30Z" stroke="url(#paint2_radial_15_52)" stroke-width="1.0003" stroke-linecap="round" stroke-linejoin="round"/>
<path fill-rule="evenodd" clip-rule="evenodd" d="M46 58H466V350H46V58Z" fill="#141D2B" stroke="#141D2B" stroke-linecap="round" stroke-linejoin="round"/>
<path fill-rule="evenodd" clip-rule="evenodd" d="M46.012 58H466V350H46.008L46 58H46.012Z" fill="#9FEF00" stroke="#141D2B" stroke-width="0.99999" stroke-linecap="round" stroke-linejoin="round"/>
<path opacity="0.6" fill-rule="evenodd" clip-rule="evenodd" d="M46.012 58H466V350H46.008L46 58H46.012Z" fill="#9FEF00" stroke="#9FEF00" stroke-width="0.99999" stroke-linecap="round" stroke-linejoin="round"/>
<path opacity="0.3" fill-rule="evenodd" clip-rule="evenodd" d="M48 60.34V256C67.8094 251.324 457.485 141.964 464 136.184V60L48 60.34Z" fill="url(#paint3_linear_15_52)"/>
<g opacity="0.33333">
<path opacity="0.5" d="M180 72H164V80H180V72Z" fill="#141D2B"/>
<path opacity="0.5" d="M204 72H184V80H204V72Z" fill="#141D2B"/>
<path opacity="0.5" d="M248 72H212V80H248V72Z" fill="#141D2B"/>
<path opacity="0.5" d="M344 72H308V80H344V72Z" fill="#141D2B"/>
<path opacity="0.5" d="M304 72H276V80H304V72Z" fill="#141D2B"/>
<path opacity="0.5" d="M272 72H252V80H272V72Z" fill="#141D2B"/>
<path d="M100 116H68V124H100V116Z" fill="#141D2B"/>
<path d="M128 116H108V124H128V116Z" fill="#141D2B"/>
<path d="M156 116H132V124H156V116Z" fill="#141D2B"/>
<path d="M164 116H160V124H164V116Z" fill="#141D2B"/>
<path d="M184 116H176V124H184V116Z" fill="#141D2B"/>
<path d="M192 120H188V124H192V120Z" fill="#141D2B"/>
<path d="M172 120H168V124H172V120Z" fill="#141D2B"/>
<path d="M204 116H196V124H204V116Z" fill="#141D2B"/>
<path d="M244 116H208V124H244V116Z" fill="#141D2B"/>
<path d="M100 128H68V136H100V128Z" fill="#141D2B"/>
<path d="M128 128H108V136H128V128Z" fill="#141D2B"/>
<path d="M156 128H132V136H156V128Z" fill="#141D2B"/>
<path d="M164 128H160V136H164V128Z" fill="#141D2B"/>
<path d="M184 128H176V136H184V128Z" fill="#141D2B"/>
<path d="M192 132H188V136H192V132Z" fill="#141D2B"/>
<path d="M172 132H168V136H172V132Z" fill="#141D2B"/>
<path d="M204 128H196V136H204V128Z" fill="#141D2B"/>
<path d="M244 128H208V136H244V128Z" fill="#141D2B"/>
<path d="M296 128H252V136H296V128Z" fill="#141D2B"/>
<path d="M324 128H300V136H324V128Z" fill="#141D2B"/>
<path d="M100 140H68V148H100V140Z" fill="#141D2B"/>
<path d="M128 140H108V148H128V140Z" fill="#141D2B"/>
<path d="M156 140H132V148H156V140Z" fill="#141D2B"/>
<path d="M164 140H160V148H164V140Z" fill="#141D2B"/>
<path d="M184 140H176V148H184V140Z" fill="#141D2B"/>
<path d="M192 144H188V148H192V144Z" fill="#141D2B"/>
<path d="M172 144H168V148H172V144Z" fill="#141D2B"/>
<path d="M204 140H196V148H204V140Z" fill="#141D2B"/>
<path d="M244 140H208V148H244V140Z" fill="#141D2B"/>
<path d="M100 152H68V160H100V152Z" fill="#141D2B"/>
<path d="M128 152H108V160H128V152Z" fill="#141D2B"/>
<path d="M156 152H132V160H156V152Z" fill="#141D2B"/>
<path d="M164 152H160V160H164V152Z" fill="#141D2B"/>
<path d="M184 152H176V160H184V152Z" fill="#141D2B"/>
<path d="M192 156H188V160H192V156Z" fill="#141D2B"/>
<path d="M172 156H168V160H172V156Z" fill="#141D2B"/>
<path d="M204 152H196V160H204V152Z" fill="#141D2B"/>
<path d="M244 152H208V160H244V152Z" fill="#141D2B"/>
<path d="M296 152H252V160H296V152Z" fill="#141D2B"/>
<path d="M324 152H300V160H324V152Z" fill="#141D2B"/>
<path d="M108 268H96V276H108V268Z" fill="#141D2B"/>
<path d="M128 268H116V276H128V268Z" fill="#141D2B"/>
<path d="M140 268H132V276H140V268Z" fill="#141D2B"/>
<path d="M160 268H144V276H160V268Z" fill="#141D2B"/>
<path d="M168 268H164V276H168V268Z" fill="#141D2B"/>
<path d="M192 268H172V276H192V268Z" fill="#141D2B"/>
<path d="M208 268H200V276H208V268Z" fill="#141D2B"/>
<path d="M244 268H212V276H244V268Z" fill="#141D2B"/>
<path d="M272 268H248V276H272V268Z" fill="#141D2B"/>
<path d="M304 268H276V276H304V268Z" fill="#141D2B"/>
<path d="M316 268H308V276H316V268Z" fill="#141D2B"/>
<path d="M376 268H320V276H376V268Z" fill="#141D2B"/>
<path d="M120 280H96V288H120V280Z" fill="#141D2B"/>
<path d="M148 280H124V288H148V280Z" fill="#141D2B"/>
<path d="M164 280H152V288H164V280Z" fill="#141D2B"/>
<path d="M188 280H168V288H188V280Z" fill="#141D2B"/>
<path d="M208 280H192V288H208V280Z" fill="#141D2B"/>
<path d="M252 280H212V288H252V280Z" fill="#141D2B"/>
<path d="M272 280H256V288H272V280Z" fill="#141D2B"/>
<path d="M292 280H276V288H292V280Z" fill="#141D2B"/>
<path d="M308 280H296V288H308V280Z" fill="#141D2B"/>
<path d="M332 280H312V288H332V280Z" fill="#141D2B"/>
<path d="M352 280H336V288H352V280Z" fill="#141D2B"/>
<path d="M396 280H356V288H396V280Z" fill="#141D2B"/>
<path d="M408 292H368V300H408V292Z" fill="#141D2B"/>
<path d="M124 292H96V300H124V292Z" fill="#141D2B"/>
<path d="M164 292H128V300H164V292Z" fill="#141D2B"/>
<path d="M180 292H168V300H180V292Z" fill="#141D2B"/>
<path d="M196 292H184V300H196V292Z" fill="#141D2B"/>
<path d="M216 292H200V300H216V292Z" fill="#141D2B"/>
<path d="M228 292H220V300H228V292Z" fill="#141D2B"/>
<path d="M296 292H232V300H296V292Z" fill="#141D2B"/>
<path d="M316 292H300V300H316V292Z" fill="#141D2B"/>
<path d="M332 292H320V300H332V292Z" fill="#141D2B"/>
<path d="M364 292H336V300H364V292Z" fill="#141D2B"/>
<path d="M120 304H96V312H120V304Z" fill="#141D2B"/>
<path d="M56 96V256H456V96H56ZM60 100H452V252H60V100Z" fill="#141D2B"/>
</g>
<path opacity="0.666667" d="M448 104H64V112H448V104Z" fill="#141D2B"/>
<path fill-rule="evenodd" clip-rule="evenodd" d="M262.751 199.632C254.062 197.988 259.405 205.803 261.6 208.578C267.918 219.989 274.555 231.241 280.67 242.754C282.37 250.487 275.688 256.896 270.165 261.23C261.399 267.332 250.352 272.97 239.402 270.316C233.89 268.604 232.525 262.43 229.611 258.109C223.636 247.531 217.746 236.884 211.717 226.35C206.168 226.187 206.148 235.225 205.376 239.608C203.444 258.048 206.987 278.84 221.264 291.872C232.859 302.572 249.655 306.731 265.049 303.941C278.599 308.186 291.565 314.97 301.652 325.095C310.91 315.281 320.168 305.468 329.427 295.654C320.444 286.834 312.979 276.339 308.343 264.59C312.737 248.556 307.088 230.911 295.281 219.462C286.267 210.444 275.015 203.198 262.751 199.632Z" fill="white" stroke="white" stroke-linecap="round" stroke-linejoin="round"/>
<path fill-rule="evenodd" clip-rule="evenodd" d="M262.772 202.945C262.943 203.008 262.836 203.228 262.772 203.229L283.297 239.8C286.066 244.727 284.069 250.545 280.732 255.393C277.361 260.288 272.139 265.031 265.338 268.717C258.522 272.412 251.374 274.186 245.382 274.387C239.404 274.589 233.793 272.891 231.129 268.15L210.602 231.295C210.484 231.277 210.297 231.313 210.316 231.295C210.504 231.096 210.353 231.44 210.316 231.579C206.531 247.801 208.494 266.551 215.447 278.924C224.958 295.849 244.816 303.933 264.48 300.47C284.051 296.986 300.786 280.029 304.96 263.898C307.596 253.451 306.473 242.224 300.969 232.43C294.035 220.09 278.782 208.469 262.772 202.945Z" fill="#A4B1CD"/>
<path opacity="0.7" d="M265.119 205.594C272.153 217.819 279.03 228.81 285.346 241.428C287.46 250.245 280.983 258.319 274.766 263.774C264.306 272.032 250.23 278.269 236.801 274.537C229.972 271.611 227.901 263.951 224.187 258.152L211.207 235.325C207.535 252.613 210.652 271.718 223.251 287.237C233.753 297.897 249.798 301.582 264.266 299.049C275.39 300.164 293.714 313.413 302.481 320.345L326.329 296.855C316.076 286.591 309.025 279.666 303.807 265.906C304.972 257.769 306.085 249.363 303.497 241.357C299.271 226.817 287.684 216.44 274.795 209.827L265.119 205.594Z" stroke="#A4B1CD" stroke-width="0.7" stroke-linecap="round"/>
<path opacity="0.1" fill-rule="evenodd" clip-rule="evenodd" d="M304.473 291.862C303.531 291.94 302.698 292.123 302.106 292.695L297.803 297.067C295.435 299.356 297.161 304.986 301.891 309.559L316.522 323.508L329.432 310.808L315.016 296.859C311.473 293.43 307.303 291.631 304.473 291.862Z" fill="#141D2B"/>
<path opacity="0.25" d="M259.244 478.29C259.244 482.466 255.096 486.471 247.711 489.424C240.327 492.377 230.312 494.036 219.869 494.036C209.426 494.036 199.411 492.377 192.027 489.424C184.643 486.471 180.494 482.466 180.494 478.29C180.494 474.114 184.643 470.109 192.027 467.156C199.411 464.203 209.426 462.544 219.869 462.544C230.312 462.544 240.327 464.203 247.711 467.156C255.096 470.109 259.244 474.114 259.244 478.29Z" fill="url(#paint4_radial_15_52)"/>
<path opacity="0.3" d="M233.803 480.599C233.803 482.177 232.179 483.689 229.29 484.804C226.4 485.919 222.481 486.546 218.395 486.546C214.309 486.546 210.39 485.919 207.5 484.804C204.611 483.689 202.987 482.177 202.987 480.599C202.987 479.022 204.611 477.51 207.5 476.395C210.39 475.28 214.309 474.653 218.395 474.653C222.481 474.653 226.4 475.28 229.29 476.395C232.179 477.51 233.803 479.022 233.803 480.599Z" fill="url(#paint5_radial_15_52)"/>
<path opacity="0.25" d="M500.219 475.25C500.219 479.427 494.688 483.433 484.842 486.387C474.996 489.341 461.643 491 447.719 491C433.795 491 420.441 489.341 410.596 486.387C400.75 483.433 395.219 479.427 395.219 475.25C395.219 471.073 400.75 467.067 410.596 464.113C420.441 461.159 433.795 459.5 447.719 459.5C461.643 459.5 474.996 461.159 484.842 464.113C494.688 467.067 500.219 471.073 500.219 475.25Z" fill="url(#paint6_radial_15_52)"/>
<path opacity="0.3" d="M471.58 477.345C471.58 478.922 469.318 480.435 465.29 481.55C461.262 482.666 455.799 483.292 450.103 483.292C444.407 483.292 438.944 482.666 434.917 481.55C430.889 480.435 428.626 478.922 428.626 477.345C428.626 475.767 430.889 474.254 434.917 473.139C438.944 472.024 444.407 471.397 450.103 471.397C455.799 471.397 461.262 472.024 465.29 473.139C469.318 474.254 471.58 475.767 471.58 477.345Z" fill="url(#paint7_radial_15_52)"/>
<path d="M297.769 321.525L438.715 471.659C447.962 480.883 463.791 479.676 474.362 469.129C484.934 458.583 486.144 442.791 476.898 433.567L326.407 292.956L297.769 321.525ZM445.724 440.563C450.979 435.32 459.56 435.32 464.815 440.563C470.07 445.806 470.07 454.366 464.815 459.609C459.56 464.852 450.979 464.852 445.724 459.609C440.469 454.366 440.469 445.806 445.724 440.563Z" fill="#141D2B" stroke="white" stroke-width="0.99963" stroke-linecap="round" stroke-linejoin="round"/>
<path opacity="0.23106" d="M323.861 319.299C327.536 315.637 334.262 316.444 338.942 321.109L436.298 409.319C440.978 413.984 437.362 425.105 433.687 428.767C430.013 432.43 418.858 436.042 414.178 431.377L325.679 334.331C320.996 329.669 320.186 322.963 323.861 319.299Z" fill="white"/>
<path d="M328.146 347.137L335.792 354.722C346.073 364.922 362.701 364.881 372.931 354.63L480.715 246.631C490.946 236.38 490.905 219.801 480.624 209.601L472.978 202.016C462.697 191.816 446.069 191.857 435.839 202.108L328.054 310.108C317.824 320.359 317.865 336.937 328.146 347.137Z" fill="#9FEF00" stroke="white" stroke-width="1.0002" stroke-linecap="round" stroke-linejoin="round"/>
<path opacity="0.3" d="M331.673 315.141C333.065 313.789 334.915 312.926 337.118 312.603C339.321 312.28 341.832 312.503 344.507 313.258C347.183 314.014 349.97 315.287 352.709 317.006C355.448 318.724 358.085 320.853 360.469 323.272C362.852 325.69 364.935 328.349 366.597 331.097C368.26 333.845 369.47 336.627 370.157 339.284C370.845 341.941 370.997 344.42 370.604 346.58C370.211 348.739 369.282 350.536 367.869 351.867C365.031 354.54 360.417 355.176 355.038 353.636C349.659 352.096 343.951 348.504 339.165 343.648C334.378 338.791 330.903 333.065 329.499 327.723C328.095 322.38 328.876 317.856 331.673 315.141Z" fill="url(#paint8_radial_15_52)"/>
<path opacity="0.6" d="M331.834 344.929L338.02 351.045C346.234 359.165 359.505 359.119 367.662 350.942L477.016 241.327C485.173 233.15 485.127 219.939 476.913 211.819L470.727 205.704C462.513 197.584 449.242 197.63 441.085 205.806L331.731 315.422C323.574 323.598 323.62 336.809 331.834 344.929Z" stroke="url(#paint9_radial_15_52)" stroke-linecap="round" stroke-linejoin="round"/>
<path d="M213.584 483.125L245.891 460.833L249.813 447.373L349.957 347.193C356.768 339.522 343.926 325.911 335.412 332.729L235.227 432.778L221.691 436.611L199.621 469.014L213.584 483.125Z" fill="#A4B1CD" stroke="#A4B1CD" stroke-linecap="round" stroke-linejoin="round"/>
<path opacity="0.2" d="M366.246 342.435L366.593 342.778C368.519 344.676 371.785 344.511 373.889 342.408L478.917 237.419C481.02 235.317 481.164 232.073 479.239 230.174L478.892 229.832C476.966 227.933 473.699 228.098 471.596 230.201L366.568 335.19C364.465 337.293 364.321 340.537 366.246 342.435Z" fill="#141D2B"/>
<path opacity="0.2" d="M355.66 323.854L358.989 327.127C360.914 329.02 364.175 328.852 366.273 326.753L473.567 219.427C475.666 217.328 475.807 214.092 473.883 212.2L470.553 208.926C468.629 207.034 465.368 207.202 463.269 209.301L355.975 316.627C353.876 318.726 353.735 321.962 355.66 323.854Z" fill="#141D2B"/>
<path opacity="0.25" d="M339.998 316.186L340.345 316.529C342.271 318.427 345.537 318.262 347.641 316.159L452.669 211.17C454.772 209.068 454.916 205.824 452.991 203.925L452.643 203.583C450.718 201.684 447.451 201.849 445.348 203.952L340.32 308.941C338.217 311.044 338.072 314.288 339.998 316.186Z" fill="white"/>
<path d="M213.906 478.621L242.663 459.35L245.883 447.087C248.531 444.028 238.148 434.368 235.348 436.54L223.249 439.914L203.999 468.703C207.778 472.487 210.127 474.837 213.906 478.621Z" fill="white"/>
<path opacity="0.7" d="M345.764 342.635C346.269 340.12 342.759 336.97 340.354 336.978C306.352 369.962 272.319 404.645 238.829 438.172L225.434 442.202C219.558 450.829 213.681 459.457 207.805 468.085C210.028 470.377 212.252 472.67 214.475 474.962C223.226 468.944 231.977 462.926 240.727 456.908C241.922 453.139 242.756 449.157 244.17 445.517" stroke="white" stroke-linecap="round" stroke-linejoin="round"/>
<defs>
<radialGradient id="paint0_radial_15_52" cx="0" cy="0" r="1" gradientUnits="userSpaceOnUse" gradientTransform="translate(256 451.987) scale(151.999 31.9987)">
<stop/>
<stop offset="1" stop-opacity="0"/>
</radialGradient>
<linearGradient id="paint1_linear_15_52" x1="-nan" y1="-nan" x2="-nan" y2="-nan" gradientUnits="userSpaceOnUse">
<stop stop-color="white" stop-opacity="0"/>
<stop offset="1" stop-color="white"/>
</linearGradient>
<radialGradient id="paint2_radial_15_52" cx="0" cy="0" r="1" gradientUnits="userSpaceOnUse" gradientTransform="translate(12.7107 122.33) scale(243.285 179.998)">
<stop stop-color="white"/>
<stop offset="1" stop-color="white" stop-opacity="0"/>
</radialGradient>
<linearGradient id="paint3_linear_15_52" x1="179.055" y1="60.0016" x2="247.932" y2="258.795" gradientUnits="userSpaceOnUse">
<stop stop-color="white"/>
<stop offset="0.85613" stop-color="white" stop-opacity="0"/>
<stop offset="1" stop-color="white" stop-opacity="0"/>
</linearGradient>
<radialGradient id="paint4_radial_15_52" cx="0" cy="0" r="1" gradientUnits="userSpaceOnUse" gradientTransform="translate(220.539 478.535) scale(38.7046 16.0279)">
<stop/>
<stop offset="1" stop-opacity="0"/>
</radialGradient>
<radialGradient id="paint5_radial_15_52" cx="0" cy="0" r="1" gradientUnits="userSpaceOnUse" gradientTransform="translate(218.657 480.692) scale(15.1452 6.05234)">
<stop/>
<stop offset="1" stop-opacity="0"/>
</radialGradient>
<radialGradient id="paint6_radial_15_52" cx="0" cy="0" r="1" gradientUnits="userSpaceOnUse" gradientTransform="translate(448.614 475.495) scale(51.606 16.0319)">
<stop/>
<stop offset="1" stop-opacity="0"/>
</radialGradient>
<radialGradient id="paint7_radial_15_52" cx="0" cy="0" r="1" gradientUnits="userSpaceOnUse" gradientTransform="translate(450.47 477.436) scale(21.1117 6.05386)">
<stop/>
<stop offset="1" stop-opacity="0"/>
</radialGradient>
<radialGradient id="paint8_radial_15_52" cx="0" cy="0" r="1" gradientUnits="userSpaceOnUse" gradientTransform="translate(346.474 337.471) rotate(-135.429) scale(20.84 16.4739)">
<stop/>
<stop offset="1" stop-opacity="0"/>
</radialGradient>
<radialGradient id="paint9_radial_15_52" cx="0" cy="0" r="1" gradientUnits="userSpaceOnUse" gradientTransform="translate(381.675 266.15) rotate(-139.299) scale(64.8803 164.314)">
<stop stop-color="white"/>
<stop offset="1" stop-color="white" stop-opacity="0"/>
</radialGradient>
</defs>
</svg>
