<svg width="64" height="64" viewBox="0 0 64 64" fill="none" xmlns="http://www.w3.org/2000/svg">
<path fill-rule="evenodd" clip-rule="evenodd" d="M22.0841 5.66131C21.8081 5.57331 21.5068 5.55997 21.2001 5.59997C19.5201 5.81331 17.8535 6.15997 16.2401 6.65331C14.9868 7.02664 13.7868 7.57331 12.6801 8.27997C11.7601 8.87997 10.9335 9.62664 10.2401 10.4666C9.66681 11.1866 9.13348 11.92 8.64014 12.6933C8.30681 13.1866 7.97348 13.68 7.62681 14.1733C5.49348 17.6666 3.90681 21.4666 2.92014 25.44C1.86681 29.7333 1.36014 34.1466 1.40014 38.56C1.40014 42 1.65348 45.4266 2.13348 48.8266C3.08014 49.9733 4.08014 51.0933 5.12014 52.16C5.92014 52.9733 6.78681 53.72 7.73348 54.36C8.70681 55.0133 9.77348 55.52 10.8935 55.84C12.1068 56.1733 13.3468 56.3333 14.5868 56.3066C15.7468 56.3066 16.9068 56.2 18.0401 56.0266C19.4268 55.8133 20.7868 55.5466 22.1468 55.2266C22.9201 55.0533 23.5601 54.5333 23.9201 53.8266L26.3868 48.8933L26.9268 47.808C28.3308 47.9426 29.7441 48.0066 31.1615 48C33.1295 47.9906 35.0961 47.8706 37.0495 47.64L37.6801 48.8933L40.1468 53.8266C40.4935 54.5333 41.1468 55.0533 41.9068 55.2266C43.2668 55.5466 44.6401 55.8133 46.0135 56.0266C47.1601 56.2 48.3201 56.3066 49.4801 56.3066C50.7201 56.3333 51.9601 56.1733 53.1601 55.84C54.2935 55.52 55.3601 55.0133 56.3335 54.36C57.2668 53.72 58.1468 52.9733 58.9468 52.16C59.9868 51.0933 60.9868 49.9733 61.9335 48.8266C62.4135 45.4266 62.6535 42 62.6668 38.56C62.7068 34.1466 62.1868 29.7333 61.1468 25.44C60.1601 21.4666 58.5735 17.6666 56.4401 14.1733C56.0935 13.68 55.7468 13.1866 55.4268 12.6933C54.9335 11.92 54.4001 11.1866 53.8268 10.4666C53.1201 9.62664 52.2935 8.87997 51.3868 8.27997C50.2801 7.57331 49.0801 7.02664 47.8268 6.65331C46.2001 6.15997 43.2135 5.81331 41.5335 5.59997C41.2201 5.55864 40.9121 5.57464 40.6308 5.66664C39.1735 5.50131 37.9255 6.00664 37.5201 7.01331L35.4108 12.288C33.9975 12.168 32.5788 12.1066 31.1615 12.1066C29.8521 12.1 28.5468 12.1533 27.2481 12.2666L25.1468 7.01331C24.7455 6.01864 23.5201 5.51197 22.0841 5.66131ZM20.9988 11.0173C19.9068 11.1933 18.8255 11.444 17.7601 11.76C17.0001 11.9866 16.2668 12.32 15.5868 12.7466C15.1335 13.0533 14.7201 13.4266 14.3601 13.8533C13.9201 14.4 13.4935 14.9866 13.1201 15.5866C12.7735 16.1066 12.4268 16.6133 12.0801 17.1066C10.2801 20.0933 8.93348 23.3333 8.10681 26.7066C7.16014 30.5866 6.69348 34.5466 6.73348 38.5333C6.73348 41.2266 6.89348 43.9066 7.21348 46.5733C7.77348 47.2133 8.34681 47.84 8.94681 48.44C9.49348 49 10.0801 49.5066 10.7335 49.9466C11.2268 50.28 11.7735 50.5333 12.3468 50.7066C13.0535 50.8933 13.7868 50.9866 14.5335 50.9733C15.4401 50.9733 16.3335 50.8933 17.2401 50.76C18.0668 50.6266 18.8935 50.48 19.7201 50.3066L21.4135 46.9093C19.5748 46.4826 17.7628 45.9346 15.9881 45.2666C14.6108 44.744 13.9188 43.2026 14.4415 41.8266C14.9628 40.4506 16.5041 39.7573 17.8815 40.28C22.1081 41.88 26.6148 42.6933 31.1348 42.6666C33.5881 42.6666 36.0415 42.4533 38.4681 42.0666C41.1081 41.6266 43.7215 41.0133 46.2815 40.2266C47.6868 39.792 49.1801 40.5813 49.6148 41.9866C50.0481 43.392 49.2601 44.8853 47.8548 45.32C46.1121 45.8613 44.3428 46.3253 42.5548 46.7106L44.3468 50.3066C45.1735 50.48 46.0001 50.6266 46.8268 50.76C47.7201 50.8933 48.6268 50.9733 49.5335 50.9733C50.2668 50.9866 51.0135 50.8933 51.7201 50.7066C52.2935 50.5333 52.8401 50.28 53.3335 49.9466C53.9735 49.5066 54.5735 49 55.1201 48.44C55.7068 47.84 56.2801 47.2133 56.8401 46.5733C57.1601 43.9066 57.3201 41.2266 57.3335 38.5333C57.3601 34.5466 56.9068 30.5866 55.9601 26.7066C55.1201 23.3333 53.7868 20.0933 51.9868 17.1066C51.6268 16.6133 51.2801 16.1066 50.9468 15.5866C50.5601 14.9866 50.1468 14.4 49.6935 13.8533C49.3468 13.4266 48.9335 13.0533 48.4801 12.7466C47.8001 12.32 47.0668 11.9866 46.2935 11.76C45.1895 11.4293 43.1428 11.1706 41.6775 10.9933L40.8561 13.0466C43.2241 13.496 45.5615 14.0733 47.8548 14.7866C49.2601 15.2213 50.0481 16.7146 49.6148 18.12C49.1801 19.5253 47.6868 20.3146 46.2815 19.88C43.8375 19.1293 41.3441 18.536 38.8268 18.1013L38.8135 18.1333L38.6628 18.0733C38.5975 18.0613 38.5321 18.0506 38.4681 18.04C36.0415 17.64 33.5881 17.44 31.1348 17.44C28.7015 17.4253 26.2735 17.6546 23.8908 18.1186L23.8535 18.1333L23.8508 18.1266C21.8188 18.524 19.8201 19.092 17.8815 19.8266C16.5041 20.3493 14.9628 19.656 14.4415 18.28C13.9188 16.904 14.6108 15.3626 15.9881 14.84C17.8961 14.116 19.8495 13.5346 21.8308 13.0973L20.9988 11.0173ZM21.1175 30.72C21.1175 28.144 23.2081 26.0533 25.7841 26.0533C28.3601 26.0533 30.4508 28.144 30.4508 30.72C30.4508 33.296 28.3601 35.3866 25.7841 35.3866C23.2081 35.3866 21.1175 33.296 21.1175 30.72ZM33.5495 30.72C33.5495 28.144 35.6401 26.0533 38.2161 26.0533C40.7921 26.0533 42.8828 28.144 42.8828 30.72C42.8828 33.296 40.7921 35.3866 38.2161 35.3866C35.6401 35.3866 33.5495 33.296 33.5495 30.72Z" fill="#9FEF00"/>
</svg>
