<svg width="64" height="64" viewBox="0 0 64 64" fill="none" xmlns="http://www.w3.org/2000/svg">
<path fill-rule="evenodd" clip-rule="evenodd" d="M48.3879 35.0653L49.8239 27.4026H56.5173C58.7266 27.4346 60.7826 26.2733 61.8973 24.364C63.0119 22.4546 63.0119 20.0933 61.8973 18.184C60.7826 16.2746 58.7266 15.1133 56.5173 15.1453H52.1226L53.3479 8.61197C53.7186 6.77731 53.2306 4.87464 52.0253 3.44531C50.8186 2.01464 49.0253 1.21464 47.1559 1.27064C44.2426 1.35731 41.7946 3.48397 41.2986 6.35464L39.6506 15.1453H30.6706L31.8946 8.61197C32.2653 6.77731 31.7786 4.87464 30.5719 3.44531C29.3666 2.01464 27.5733 1.21464 25.7026 1.27064C22.7906 1.35731 20.3413 3.48397 19.8466 6.35464L18.1986 15.1453H12.0799C9.86927 15.1133 7.81327 16.2746 6.6986 18.184C5.58527 20.0933 5.58527 22.4546 6.6986 24.364C7.81327 26.2733 9.86927 27.4346 12.0799 27.4026H15.8999L14.4626 35.0653H7.4826C5.27327 35.0333 3.21727 36.1946 2.1026 38.104C0.987935 40.0133 0.987935 42.3746 2.1026 44.284C3.21727 46.1933 5.27327 47.3546 7.4826 47.3226H12.1653L10.6519 55.3893C10.2146 57.556 10.9773 59.7906 12.6493 61.2373C14.3213 62.684 16.6413 63.1186 18.7239 62.3746C20.8053 61.6306 22.3253 59.824 22.7013 57.6453L24.6373 47.3226H33.6173L32.1053 55.3893C31.6666 57.556 32.4293 59.7906 34.1013 61.2373C35.7733 62.684 38.0946 63.1186 40.1759 62.3746C42.2573 61.6306 43.7773 59.824 44.1533 57.6453L46.0893 47.3226H51.9199C54.1306 47.3546 56.1866 46.1933 57.3013 44.284C58.4146 42.3746 58.4146 40.0133 57.3013 38.104C56.1866 36.1946 54.1306 35.0333 51.9199 35.0653H48.3879ZM35.9159 35.0653L37.3519 27.4026H28.3719L26.9346 35.0653H35.9159Z" fill="#9FEF00"/>
</svg>
