<svg width="1024" height="1024" viewBox="0 0 1024 1024" fill="none" xmlns="http://www.w3.org/2000/svg">
<path d="M587.491 688.658C562.719 688.658 542.615 669.205 542.615 645.237C542.615 621.268 562.719 601.816 587.491 601.816H950.664C987.224 601.816 1016.88 631.472 1016.88 668.032V761.388C1016.88 813.276 995.561 862.993 957.654 899.467C919.965 936.157 868.598 956.782 814.973 956.782H209.251C155.626 956.782 104.259 936.157 66.5694 899.467C28.6629 862.993 7.34326 813.276 7.34326 761.388V262.047C7.34326 210.159 28.6629 160.442 66.5694 123.968C104.259 87.2774 155.626 66.6523 209.251 66.6523H814.973C868.598 66.6523 919.965 87.2774 957.654 123.968C995.561 160.442 1016.88 210.159 1016.88 262.047V356.27C1016.88 380.238 996.777 399.691 972.005 399.691C947.255 399.691 927.151 380.238 927.151 356.27V262.047C927.151 233.172 915.254 205.6 894.39 185.192C873.309 165.001 844.803 153.494 814.973 153.494H209.251C179.42 153.494 150.915 165.001 129.834 185.192C108.97 205.6 97.0726 233.172 97.0726 262.047V761.388C97.0726 790.263 108.97 817.835 129.834 838.243C150.915 858.434 179.42 869.94 209.251 869.94H814.973C844.803 869.94 873.309 858.434 894.39 838.243C915.254 817.835 927.151 790.263 927.151 761.388V688.658H587.491Z" fill="#9FEF00"/>
<path d="M246.429 381.044C227.626 366.294 224.283 339.081 238.989 320.343C253.695 301.605 280.779 298.263 299.474 312.904L464.562 441.916C492.702 463.889 492.702 499.598 464.562 521.571L299.474 650.583C280.779 665.225 253.695 661.883 238.989 643.144C224.283 624.406 227.626 597.193 246.429 582.443L375.376 481.743L246.429 381.044Z" fill="#141D2B"/>
<path d="M819.588 175.226C827.417 165.245 841.862 163.471 851.808 171.277C861.755 179.083 863.529 193.459 855.757 203.382L787.277 291.011C775.614 305.948 756.659 305.948 744.996 291.011L676.516 203.382C668.744 193.459 670.518 179.083 680.465 171.277C690.411 163.471 704.856 165.245 712.685 175.226L766.137 243.671L819.588 175.226Z" fill="#141D2B"/>
</svg>
