<svg width="64" height="64" viewBox="0 0 64 64" fill="none" xmlns="http://www.w3.org/2000/svg">
<path fill-rule="evenodd" clip-rule="evenodd" d="M49.4667 33.8267C49.9307 32.428 51.4413 31.6694 52.84 32.1334C54.2387 32.5974 54.9973 34.108 54.5333 35.5067L53.7067 38V38.0134C52.7867 40.7334 51.6 43.3467 50.16 45.8134C48.72 48.3334 47.0533 50.7334 45.2 52.96C43.44 55.0934 41.48 57.0667 39.3333 58.8134C38.3467 59.6267 37.3067 60.3734 36.2133 61.0534C35.2 61.6934 34.12 62.24 33 62.6934C32.3867 62.9467 31.6933 62.96 31.0667 62.72L29.7067 62.2134C29.6933 62.2134 29.6933 62.2134 29.68 62.2134C26.5867 61.0134 23.7067 59.3067 21.16 57.1734C18.5467 55 16.2533 52.48 14.3333 49.6934C12.3867 46.9067 10.84 43.8667 9.72 40.6667C8.61333 37.5333 8.02667 34.24 8 30.92C8 30.9067 8 30.9067 8 30.8933V14.8133C8 11.8693 9.864 9.53335 12.16 9.60002C15.2133 9.57335 18.2267 8.96002 21.0533 7.80002C22.64 7.14668 24.1733 6.37335 25.64 5.48002C27.8133 4.16002 29.8533 2.62668 31.7467 0.93335C34.1867 2.49335 36.72 3.92002 39.3067 5.21335C41.0533 6.09335 42.8267 6.88002 44.6533 7.57335C46.2 8.16002 47.7733 8.64002 49.3867 9.00002C50.72 9.32002 52.08 9.50668 53.4533 9.56002C54.1333 9.60002 54.7867 9.89335 55.2667 10.3867C55.7333 10.88 56 11.5467 56 12.2267V21.56C56 23.032 54.8053 24.2267 53.3333 24.2267C51.8613 24.2267 50.6667 23.032 50.6667 21.56V14.6667C49.8267 14.5467 49 14.3867 48.1867 14.2C46.3333 13.7733 44.5333 13.2267 42.76 12.56C40.7733 11.8 38.8133 10.9467 36.92 9.98668C35.32 9.18668 33.76 8.34668 32.2133 7.45335C30.9867 8.37335 29.7333 9.22668 28.4267 10.0267C26.72 11.08 24.9333 11.9867 23.0667 12.7334C19.9733 14.0134 16.68 14.7467 13.3333 14.9067V30.88C13.36 33.6133 13.84 36.32 14.7467 38.8933C15.7067 41.6533 17.04 44.2667 18.7067 46.6534C20.36 49.0534 22.3333 51.2134 24.5867 53.08C26.6667 54.84 29.04 56.24 31.5867 57.2267L31.92 57.3467C32.4267 57.1067 32.92 56.8267 33.3867 56.5334C34.28 55.9734 35.1467 55.36 35.96 54.6934C37.8267 53.16 39.5467 51.44 41.08 49.56C42.7467 47.56 44.24 45.4134 45.5467 43.1467C46.8133 40.9867 47.8533 38.6933 48.64 36.32L49.4667 33.8267ZM42.1067 32.7067C42.452 31.6614 43.5813 31.0947 44.6267 31.44C45.672 31.7853 46.2387 32.9147 45.8933 33.96C44.64 37.7867 42.8 40.0667 40.4667 43.3333C38.04 46.6933 37.8267 47.0267 34.5733 49.5734C33.7053 50.2574 32.444 50.108 31.76 49.24C31.076 48.372 31.2253 47.1107 32.0933 46.4267C35.0533 44.1067 35.0133 44.0533 37.2133 41C39.32 38.0533 40.96 36.1467 42.1067 32.7067ZM20.6667 32C20.6667 33.104 19.7707 34 18.6667 34C17.5627 34 16.6667 33.104 16.6667 32V18.6667C16.6667 18.1867 16.84 17.7334 17.1467 17.3733C17.4533 17.0133 17.88 16.7734 18.3467 16.6934C20.6 16.3334 22.8133 15.7334 24.9333 14.8934C27.0267 14.0667 29.0133 13 30.84 11.7067C31.7453 11.0667 32.9973 11.2787 33.6333 12.18C34.2693 13.0814 34.0573 14.3267 33.16 14.96C31.0533 16.4534 28.7867 17.68 26.4 18.6134C24.5467 19.3467 22.6267 19.92 20.6667 20.3334V32ZM34 31.912C34 33.016 33.104 33.912 32 33.912C30.896 33.912 30 33.016 30 31.912V29.2453C30 28.1427 30.896 27.2453 32 27.2453C33.104 27.2453 34 28.1427 34 29.2453V31.912Z" fill="#9FEF00"/>
</svg>
