<svg width="64" height="64" viewBox="0 0 64 64" fill="none" xmlns="http://www.w3.org/2000/svg">
<path fill-rule="evenodd" clip-rule="evenodd" d="M33.4533 52.6294C32.9707 52.6534 32.4853 52.6667 32 52.6667C31.5147 52.6667 31.0293 52.6534 30.5467 52.628C29.884 53.7707 29.144 54.8734 28.3333 55.92C27.956 56.4107 27.552 56.8827 27.124 57.3334H36.876C36.4 56.8347 35.952 56.3094 35.5333 55.76C34.772 54.756 34.0813 53.712 33.4533 52.6294ZM37.7827 52.0027C42.5187 50.9307 46.896 48.5347 50.3867 45.0534C55.2533 40.1734 58 33.56 58 26.6667C58 19.7734 55.2533 13.16 50.3867 8.28002C45.5067 3.41335 38.8933 0.666687 32 0.666687C25.1067 0.666687 18.4933 3.41335 13.6133 8.28002C8.74667 13.16 6 19.7734 6 26.6667C6 27.9467 6.09333 29.24 6.28 30.5067C6.49333 31.964 7.84933 32.9707 9.30667 32.7534C10.764 32.536 11.7733 31.1774 11.56 29.72C11.4133 28.7067 11.3333 27.6934 11.3333 26.6667C11.3333 21.1867 13.5067 15.9334 17.3867 12.0534C21.2667 8.17335 26.52 6.00002 32 6.00002C37.48 6.00002 42.7333 8.17335 46.6133 12.0534C50.4933 15.9334 52.6667 21.1867 52.6667 26.6667C52.6667 32.1467 50.4933 37.4 46.6133 41.28C42.7333 45.16 37.48 47.3334 32 47.3334C26.6 47.3334 21.4 45.2134 17.5467 41.4267C16.4947 40.396 14.804 40.4147 13.7733 41.4667C12.7427 42.5187 12.7613 44.2094 13.8133 45.24C17.2653 48.6254 21.568 50.952 26.2133 52.0054C25.892 52.5134 25.5413 53.0027 25.1733 53.48C24.5067 54.3334 23.7467 55.1067 22.9067 55.8C22.2133 56.36 21.4533 56.8534 20.64 57.24C20.5733 57.272 20.5053 57.3027 20.4373 57.3334H11C9.528 57.3334 8.33333 58.528 8.33333 60C8.33333 61.472 9.528 62.6667 11 62.6667H53C54.472 62.6667 55.6667 61.472 55.6667 60C55.6667 58.528 54.472 57.3334 53 57.3334H43.564C43.46 57.2867 43.356 57.2374 43.2533 57.1867C42.4 56.76 41.6133 56.24 40.88 55.6267C40.08 54.9467 39.36 54.1734 38.72 53.3334C38.3893 52.9014 38.0747 52.4587 37.7827 52.0027ZM37.08 12.16C36.3813 11.924 36.004 11.1654 36.24 10.4667C36.476 9.76802 37.2347 9.39069 37.9333 9.62669C42.7067 11.2267 46.6267 14.6934 48.8133 19.2267C49.1373 19.8894 48.8627 20.6867 48.2 21.0067C47.5373 21.3267 46.7373 21.0494 46.4133 20.3867C44.5333 16.4934 41.1733 13.5334 37.08 12.16ZM30.6667 9.33335C30.6667 8.59735 31.264 8.00002 32 8.00002C32.736 8.00002 33.3333 8.59735 33.3333 9.33335C33.3333 10.0694 32.736 10.6667 32 10.6667C31.264 10.6667 30.6667 10.0694 30.6667 9.33335ZM28.6667 28C28.6667 27.12 29.0133 26.2667 29.64 25.64C30.2667 25.0134 31.12 24.6667 32 24.6667C32.88 24.6667 33.7333 25.0134 34.36 25.64C34.9867 26.2667 35.3333 27.12 35.3333 28C35.3333 28.88 34.9867 29.7334 34.36 30.36C33.7333 30.9867 32.88 31.3334 32 31.3334C31.12 31.3334 30.2667 30.9867 29.64 30.36C29.0133 29.7334 28.6667 28.88 28.6667 28ZM26 28C26 26.4134 26.6267 24.88 27.76 23.76C28.88 22.6267 30.4133 22 32 22C33.5867 22 35.12 22.6267 36.24 23.76C37.3733 24.88 38 26.4134 38 28C38 29.5867 37.3733 31.12 36.24 32.24C35.12 33.3734 33.5867 34 32 34C30.4133 34 28.88 33.3734 27.76 32.24C26.6267 31.12 26 29.5867 26 28ZM23.3333 28C23.3333 25.7067 24.2533 23.4934 25.8667 21.8667C27.4933 20.2534 29.7067 19.3334 32 19.3334C34.2933 19.3334 36.5067 20.2534 38.1333 21.8667C39.7467 23.4934 40.6667 25.7067 40.6667 28C40.6667 30.2934 39.7467 32.5067 38.1333 34.1334C36.5067 35.7467 34.2933 36.6667 32 36.6667C29.7067 36.6667 27.4933 35.7467 25.8667 34.1334C24.2533 32.5067 23.3333 30.2934 23.3333 28ZM20.6667 28C20.6667 25 21.8667 22.1067 23.9867 19.9867C26.1067 17.8667 29 16.6667 32 16.6667C35 16.6667 37.8933 17.8667 40.0133 19.9867C42.1333 22.1067 43.3333 25 43.3333 28C43.3333 31 42.1333 33.8934 40.0133 36.0134C37.8933 38.1334 35 39.3334 32 39.3334C29 39.3334 26.1067 38.1334 23.9867 36.0134C21.8667 33.8934 20.6667 31 20.6667 28Z" fill="#9FEF00"/>
</svg>
