<svg width="64" height="64" viewBox="0 0 64 64" fill="none" xmlns="http://www.w3.org/2000/svg">
<g clip-path="url(#clip0_62_4531)">
<path d="M18.2907 11.8453C18.4467 12.144 18.6027 12.444 18.7467 12.756C19.3094 13.9067 19.8254 15.0813 20.3054 16.2693L20.7601 17.36L21.4441 19.0267L18.1227 20.4053L17.4281 18.7507L16.9721 17.648C16.9721 17.636 16.9721 17.636 16.9721 17.624C16.5161 16.508 16.0374 15.4173 15.5094 14.3267C13.9627 11.1973 12.1281 8.224 10.0427 5.41867C13.0881 6.12667 16.0614 7.07333 18.9627 8.236C20.1254 8.704 21.2641 9.244 22.3667 9.86667C23.3867 10.4667 24.3574 11.1493 25.2441 11.9293C25.2681 11.9413 25.2921 11.9533 25.3041 11.9773C25.7721 10.3347 26.3467 8.716 27.0427 7.14533C28.2294 4.412 30.0161 1.96667 32.2694 0C34.5961 1.99067 36.4414 4.484 37.6774 7.28933C38.4081 8.944 38.9961 10.6587 39.4387 12.408C39.8707 12.0733 40.3027 11.7493 40.7454 11.4253C41.8134 10.6467 42.9161 9.90267 44.0547 9.22C45.0254 8.632 46.0334 8.104 47.0761 7.63733C49.2334 6.67733 51.5961 6.23467 53.9574 6.34267C51.9907 8.944 50.2534 11.7133 48.7787 14.6267C48.1307 15.8853 47.5921 17.204 47.1961 18.5707L46.6801 20.2853L43.2401 19.2653L43.7427 17.54C44.2107 15.9693 44.8227 14.4467 45.5774 12.984C45.6974 12.756 45.8174 12.516 45.9494 12.276C45.9374 12.288 45.9254 12.288 45.9134 12.3C44.8694 12.924 43.8627 13.6067 42.8801 14.3267C40.7574 15.8733 38.7441 17.552 36.8374 19.3373C36.6934 15.6813 35.8547 12.0973 34.3921 8.74C33.8401 7.49333 33.1334 6.30667 32.2934 5.22667C31.5147 6.27067 30.8547 7.39733 30.3401 8.584C28.4694 12.828 27.4987 17.396 27.4867 22.024C26.7067 19.1707 25.1001 16.592 22.8827 14.6267C22.1627 14.0147 21.3961 13.464 20.5814 12.996C19.8374 12.576 19.0707 12.192 18.2907 11.8453Z" fill="#9FEF00"/>
<path fill-rule="evenodd" clip-rule="evenodd" d="M22.4386 35.5159L28.6893 41.4866L22.7906 47.6626L16.5413 41.4133L22.4386 35.5159ZM19.4266 32.6386L15.1626 28.5653C13.9186 30.3986 13.2413 32.5773 13.2413 34.8199V38.1133L13.596 38.4679L19.4266 32.6386ZM31.372 26.5839L37.556 32.2053L31.568 38.4733L25.3866 32.5693L31.372 26.5839ZM28.36 23.7053H24.3573C22.1173 23.7053 19.9413 24.3799 18.1106 25.6199L22.3733 29.6906L28.36 23.7053ZM31.7026 44.3639L37.6746 50.0679L31.512 56.3839L25.7373 50.6093L31.7026 44.3639ZM40.64 35.0079L46.8546 40.6586L40.584 47.0853L34.5813 41.3519L40.64 35.0079ZM19.3786 57.2679C20.9106 58.0333 22.6146 58.4413 24.3573 58.4413H27.6786L22.86 53.6226L19.3786 57.2679ZM16.0493 54.7199C14.244 52.6906 13.2413 50.0559 13.2413 47.3253V44.0053L19.9133 50.6759L16.0493 54.7199ZM47.9173 27.3893C49.744 29.4239 50.7586 32.0746 50.7586 34.8199V38.5706L43.5213 31.9919L47.8266 27.4839L47.9173 27.3893ZM44.5746 24.8559C43.0546 24.1053 41.368 23.7053 39.6426 23.7053H34.4053L40.4373 29.1879L44.5746 24.8559ZM49.9386 43.4626L50.7586 44.2079V47.3253C50.7586 47.3253 50.7586 47.3253 50.7586 47.3399C50.7586 48.8959 50.5493 50.4519 50.1053 51.9533C49.8013 52.9999 49.3693 54.0119 48.8093 54.9413L43.5973 49.9639L49.9386 43.4626ZM33.804 60.0039C33.984 60.3719 34.084 60.7839 34.084 61.2213C34.084 62.7546 32.8386 63.9999 31.3053 63.9999H24.3573C19.9386 63.9999 15.688 62.2346 12.5613 59.1226C9.44796 55.9959 7.68396 51.7439 7.68396 47.3253V34.8199C7.68396 30.4026 9.44796 26.1506 12.5613 23.0239C15.688 19.9119 19.9386 18.1466 24.3573 18.1466H39.6426C44.0613 18.1466 48.312 19.9119 51.4386 23.0239C54.552 26.1506 56.316 30.4026 56.316 34.8199V47.3253C56.316 49.4106 56.024 51.4946 55.4413 53.5093C54.9133 55.3573 54.0786 57.1213 52.9813 58.7199C51.9533 60.2346 50.6186 61.5133 49.0626 62.4853C47.4933 63.4573 45.6866 63.9853 43.8386 63.9999C42.3053 64.0146 41.0466 62.7826 41.032 61.2493C41.016 59.7146 42.2493 58.4573 43.7826 58.4413C44.52 58.4293 45.2346 58.2546 45.8813 57.9066L40.6866 52.9453L34.3893 59.3999L33.804 60.0039Z" fill="#9FEF00"/>
</g>
<defs>
<clipPath id="clip0_62_4531">
<rect width="64" height="64" fill="white"/>
</clipPath>
</defs>
</svg>
