<svg width="64" height="64" viewBox="0 0 64 64" fill="none" xmlns="http://www.w3.org/2000/svg">
<path fill-rule="evenodd" clip-rule="evenodd" d="M31.9998 50.6667C30.5278 50.6667 29.3332 49.472 29.3332 48C29.3332 46.528 30.5278 45.3333 31.9998 45.3333C33.4718 45.3333 34.6665 46.528 34.6665 48C34.6665 49.472 33.4718 50.6667 31.9998 50.6667ZM40.1865 30L37.7865 32.4533C35.8665 34.4 34.6665 36 34.6665 40H29.3332V38.6667C29.3332 35.7333 30.5332 33.0667 32.4532 31.12L35.7598 27.76C36.7465 26.8 37.3332 25.4667 37.3332 24C37.3332 21.0667 34.9332 18.6667 31.9998 18.6667C29.0665 18.6667 26.6665 21.0667 26.6665 24H21.3332C21.3332 18.1067 26.1065 13.3333 31.9998 13.3333C37.8932 13.3333 42.6665 18.1067 42.6665 24C42.6665 26.3467 41.7065 28.48 40.1865 30ZM33.7865 8.06667C32.3225 7.956 31.2198 6.67467 31.3265 5.20667C31.4332 3.73867 32.7145 2.636 34.1865 2.74667C41.5598 3.29333 48.4665 6.61333 53.5065 12.04C58.5332 17.4667 61.3332 24.6 61.3332 32C61.3332 39.7733 58.2398 47.24 52.7465 52.7467C47.2398 58.24 39.7732 61.3333 31.9998 61.3333C24.2265 61.3333 16.7598 58.24 11.2532 52.7467C5.75984 47.24 2.6665 39.7733 2.6665 32C2.6665 30.528 3.86117 29.3333 5.33317 29.3333C6.80517 29.3333 7.99984 30.528 7.99984 32C7.99984 38.36 10.5332 44.4667 15.0265 48.9733C19.5332 53.4667 25.6398 56 31.9998 56C38.3598 56 44.4665 53.4667 48.9732 48.9733C53.4665 44.4667 55.9998 38.36 55.9998 32C55.9998 25.9467 53.7198 20.1067 49.5998 15.6667C45.4798 11.2267 39.8265 8.52 33.7865 8.06667ZM10.7465 20.84C10.0625 22.1427 8.44917 22.644 7.1465 21.96C5.84384 21.276 5.3425 19.6627 6.0265 18.36C8.9465 12.8133 13.5732 8.33333 19.2132 5.6C20.5372 4.952 22.1358 5.50267 22.7798 6.82667C23.4238 8.15067 22.8705 9.752 21.5465 10.4C16.9198 12.64 13.1465 16.2933 10.7465 20.84Z" fill="#9FEF00"/>
</svg>
