<svg width="64" height="64" viewBox="0 0 64 64" fill="none" xmlns="http://www.w3.org/2000/svg">
<g clip-path="url(#clip0_62_4523)">
<path fill-rule="evenodd" clip-rule="evenodd" d="M40.756 32.44H39.6613V40.9587H35.8267V34.5734H28.764V40.9587H25.016V32.44H23.4453L32.2813 24.152L40.756 32.44ZM41.432 46.6694C42.712 45.852 44.4187 46.2254 45.2413 47.5054C46.064 48.784 45.692 50.4854 44.412 51.3027C42.2933 52.6774 39.9493 53.6734 37.5067 54.276C31.608 55.7347 25.3427 54.788 20.1413 51.648C14.94 48.5094 11.1827 43.4054 9.724 37.5067C8.26666 31.608 9.21333 25.3414 12.3533 20.14C15.492 14.94 20.596 11.1814 26.4947 9.72403C32.3933 8.26537 38.66 9.21203 43.86 12.352C49.0613 15.4907 52.8187 20.5947 54.2773 26.4934C54.704 28.2227 54.936 29.9987 54.944 31.7934C54.9653 33.312 53.748 34.5574 52.228 34.5734C50.708 34.5894 49.4573 33.3694 49.436 31.8507C49.4227 30.492 49.2573 29.1334 48.9307 27.8147C47.8213 23.324 44.972 19.452 41.016 17.064C37.06 14.676 32.3067 13.96 27.816 15.0694C23.3253 16.18 19.4533 19.028 17.0653 22.984C14.6773 26.9414 13.96 31.6947 15.0707 36.1854C16.1813 40.676 19.0293 44.548 22.9853 46.936C26.9413 49.324 31.6947 50.04 36.1853 48.9307C38.0387 48.472 39.8173 47.7107 41.432 46.6694ZM22.1333 35.3227H16.152L32.3093 20.1587L47.848 35.3227H42.544V43.8414H32.944V37.456H31.6467V43.8414H22.1333V35.3227ZM47.584 39.1C48.2133 37.7227 49.8493 37.124 51.2333 37.7627C52.6173 38.4014 53.2213 40.04 52.5813 41.4187C52.1747 42.2947 51.7227 43.144 51.204 43.9534C50.3973 45.248 48.6947 45.644 47.404 44.836C46.1133 44.028 45.7227 42.328 46.532 41.0427C46.9253 40.416 47.2787 39.78 47.584 39.1Z" fill="#A4B1CD"/>
<path fill-rule="evenodd" clip-rule="evenodd" d="M15.2946 13.0734C13.968 14.2494 11.936 14.1254 10.76 12.7987C9.58531 11.4707 9.70798 9.43871 11.036 8.26404C16.8186 3.16004 24.2893 0.333374 32 0.333374C40.3893 0.333374 48.448 3.67471 54.396 9.60404C60.3253 15.552 63.6666 23.6107 63.6666 32C63.6666 40.3894 60.3253 48.448 54.396 54.396C48.448 60.3254 40.3893 63.6667 32 63.6667C23.648 63.6667 15.6253 60.3627 9.69598 54.488C3.76664 48.6134 0.406644 40.6094 0.333311 32.2574C0.322644 30.484 1.75464 29.032 3.52798 29.0174C5.29998 29.0014 6.74798 30.4294 6.75864 32.2014C6.81331 38.8654 9.49331 45.236 14.2293 49.9174C18.948 54.616 25.336 57.2414 32 57.2414C38.7 57.2414 45.1253 54.58 49.844 49.844C54.58 45.1254 57.2413 38.7 57.2413 32C57.2413 25.3 54.58 18.8747 49.844 14.156C45.1253 9.42004 38.7 6.75871 32 6.75871C25.8506 6.75871 19.9026 9.01604 15.2946 13.0734ZM8.39198 23.06C7.76398 24.7214 5.90531 25.56 4.24398 24.932C2.58131 24.304 1.74264 22.4454 2.37064 20.784C2.83064 19.6267 3.34398 18.4707 3.91331 17.3694C4.73331 15.788 6.67864 15.176 8.25464 16.0014C9.83064 16.8267 10.4346 18.772 9.60398 20.3427C9.14531 21.224 8.74131 22.1427 8.39198 23.06Z" fill="#9FEF00"/>
</g>
<defs>
<clipPath id="clip0_62_4523">
<rect width="64" height="64" fill="white"/>
</clipPath>
</defs>
</svg>
