<svg width="64" height="64" viewBox="0 0 64 64" fill="none" xmlns="http://www.w3.org/2000/svg">
<path fill-rule="evenodd" clip-rule="evenodd" d="M21.3333 22.6667V13.3333C21.3333 12.5973 20.736 12 20 12H13.3333C12.5973 12 12 12.5973 12 13.3333V24V30.6667V40C12 40.736 12.5973 41.3333 13.3333 41.3333H20C20.736 41.3333 21.3333 40.736 21.3333 40V32H26.6666V40C26.6666 40.736 27.264 41.3333 28 41.3333H50.6666C51.4026 41.3333 52 40.736 52 40V13.3333C52 12.5973 51.4026 12 50.6666 12H28C27.264 12 26.6666 12.5973 26.6666 13.3333V22.6667H21.3333ZM13.3333 45.3333H16C16.736 45.3333 17.3333 45.9307 17.3333 46.6667V49.3334C17.3333 50.0694 16.736 50.6667 16 50.6667H13.3333C12.5973 50.6667 12 50.0694 12 49.3334V46.6667C12 45.9307 12.5973 45.3333 13.3333 45.3333ZM20 45.3333H22.6666C23.4026 45.3333 24 45.9307 24 46.6667V49.3334C24 50.0694 23.4026 50.6667 22.6666 50.6667H20C19.264 50.6667 18.6666 50.0694 18.6666 49.3334V46.6667C18.6666 45.9307 19.264 45.3333 20 45.3333ZM26.6666 45.3333H29.3333C30.0693 45.3333 30.6666 45.9307 30.6666 46.6667V49.3334C30.6666 50.0694 30.0693 50.6667 29.3333 50.6667H26.6666C25.9306 50.6667 25.3333 50.0694 25.3333 49.3334V46.6667C25.3333 45.9307 25.9306 45.3333 26.6666 45.3333ZM33.3333 45.3333H36C36.736 45.3333 37.3333 45.9307 37.3333 46.6667V49.3334C37.3333 50.0694 36.736 50.6667 36 50.6667H33.3333C32.5973 50.6667 32 50.0694 32 49.3334V46.6667C32 45.9307 32.5973 45.3333 33.3333 45.3333ZM40 45.3333H42.6666C43.4026 45.3333 44 45.9307 44 46.6667V49.3334C44 50.0694 43.4026 50.6667 42.6666 50.6667H40C39.264 50.6667 38.6666 50.0694 38.6666 49.3334V46.6667C38.6666 45.9307 39.264 45.3333 40 45.3333ZM46.6666 45.3333H49.3333C50.0693 45.3333 50.6666 45.9307 50.6666 46.6667V49.3334C50.6666 50.0694 50.0693 50.6667 49.3333 50.6667H46.6666C45.9306 50.6667 45.3333 50.0694 45.3333 49.3334V46.6667C45.3333 45.9307 45.9306 45.3333 46.6666 45.3333ZM6.23729 30.756C6.23729 32.2933 4.98929 33.5413 3.45196 33.5413C1.91463 33.5413 0.666626 32.2933 0.666626 30.756V9.86668C0.666626 7.65201 1.54396 5.52135 3.11729 3.96268C4.67729 2.38801 6.80796 1.51068 9.02263 1.51068H34.0893C35.6266 1.51068 36.8746 2.75868 36.8746 4.29601C36.8746 5.83335 35.6266 7.08135 34.0893 7.08135H9.02263C8.28396 7.08135 7.57329 7.37335 7.05863 7.90268C6.52929 8.41868 6.23729 9.12801 6.23729 9.86668V30.756ZM57.7626 42.992C57.7626 41.456 59.0106 40.208 60.548 40.208C62.0853 40.208 63.3333 41.456 63.3333 42.992V54.1333C63.3333 56.348 62.456 58.4787 60.8826 60.0374C59.3226 61.612 57.192 62.4894 54.9773 62.4894H9.02263C6.80796 62.4894 4.67729 61.612 3.11729 60.0374C1.54396 58.4787 0.666626 56.348 0.666626 54.1333V51.348C0.666626 49.8107 1.91463 48.5627 3.45196 48.5627C4.98929 48.5627 6.23729 49.8107 6.23729 51.348V54.1333C6.23729 54.872 6.52929 55.5814 7.05863 56.0974C7.57329 56.6267 8.28396 56.9187 9.02263 56.9187H54.9773C55.716 56.9187 56.4266 56.6267 56.9413 56.0974C57.4706 55.5814 57.7626 54.872 57.7626 54.1333V42.992ZM46.6226 7.08135C45.0853 7.08135 43.8373 5.83335 43.8373 4.29601C43.8373 2.75868 45.0853 1.51068 46.6226 1.51068H54.9773C57.192 1.51068 59.3226 2.38801 60.8826 3.96268C62.456 5.52135 63.3333 7.65201 63.3333 9.86668V22.4C63.3333 23.9373 62.0853 25.1853 60.548 25.1853C59.0106 25.1853 57.7626 23.9373 57.7626 22.4V9.86668C57.7626 9.12801 57.4706 8.41868 56.9413 7.90268C56.4266 7.37335 55.716 7.08135 54.9773 7.08135H46.6226Z" fill="#9FEF00"/>
<path fill-rule="evenodd" clip-rule="evenodd" d="M42.6666 24H34.9746H33.2306H31.692C31.1266 24 30.6666 24.46 30.6666 25.0253V33.3333V36V36.308C30.6666 36.8733 31.1266 37.3333 31.692 37.3333H32H34.9746H46.6666C47.4026 37.3333 48 36.736 48 36V33.3333C48 32.5973 47.4026 32 46.6666 32H36V29.3333H43.692H46.7693H46.9746C47.54 29.3333 48 28.8733 48 28.308V28.1027V25.2307V20V17.3333V17.0253C48 16.46 47.54 16 46.9746 16H46.6666H43.692H32C31.264 16 30.6666 16.5973 30.6666 17.3333V20C30.6666 20.736 31.264 21.3333 32 21.3333H42.6666V24Z" fill="#141D2B"/>
</svg>
