<svg width="64" height="64" viewBox="0 0 64 64" fill="none" xmlns="http://www.w3.org/2000/svg">
<path fill-rule="evenodd" clip-rule="evenodd" d="M17.3333 10C18.8053 10 20 8.80535 20 7.33335C20 5.86135 18.8053 4.66669 17.3333 4.66669H10.6667C6.98667 4.66669 4 7.65335 4 11.3334V18C4 19.472 5.19467 20.6667 6.66667 20.6667C8.13867 20.6667 9.33333 19.472 9.33333 18V14C9.33333 11.792 11.1253 10 13.3333 10H17.3333ZM54.6667 28.6667C54.6667 30.1387 55.8613 31.3334 57.3333 31.3334C58.8053 31.3334 60 30.1387 60 28.6667V11.3334C60 7.65335 57.0133 4.66669 53.3333 4.66669H29.3333C27.8613 4.66669 26.6667 5.86135 26.6667 7.33335C26.6667 8.80535 27.8613 10 29.3333 10H50.6667C52.8747 10 54.6667 11.792 54.6667 14V28.6667ZM24.5733 18.1867C25.5893 17.12 27.28 17.0747 28.3467 18.0867C29.4133 19.0987 29.4613 20.7867 28.4533 21.8534L23.4 27.1867L30.8213 29.4387C32.2293 29.8667 32.552 31.0814 31.5413 32.1507L22.4 41.8134C21.384 42.88 19.6933 42.9254 18.6267 41.9134C17.56 40.9014 17.512 39.2134 18.52 38.1467L23.5733 32.8134L16.152 30.5614C14.744 30.1334 14.4213 28.9187 15.432 27.8494L24.5733 18.1867ZM37.3333 43.3334C35.8613 43.3334 34.6667 42.1387 34.6667 40.6667C34.6667 39.1947 35.8613 38 37.3333 38H53.3333C57.0133 38 60 40.9867 60 44.6667V52.6667C60 56.3467 57.0133 59.3334 53.3333 59.3334H10.6667C6.98667 59.3334 4 56.3467 4 52.6667V32.6667C4 31.1947 5.19467 30 6.66667 30C8.13867 30 9.33333 31.1947 9.33333 32.6667V50C9.33333 52.208 11.1253 54 13.3333 54H50.6667C52.8747 54 54.6667 52.208 54.6667 50V47.3334C54.6667 45.1254 52.8747 43.3334 50.6667 43.3334H37.3333Z" fill="#9FEF00"/>
</svg>
