<svg width="64" height="64" viewBox="0 0 64 64" fill="none" xmlns="http://www.w3.org/2000/svg">
<path fill-rule="evenodd" clip-rule="evenodd" d="M26.0063 44.6934C27.2317 45.5654 27.5183 47.264 26.6463 48.4854C25.7743 49.7067 24.0717 49.9907 22.8477 49.1187L2.57433 33.7614C0.776997 32.4 0.61833 30.0067 2.21966 28.42L29.177 1.72137C30.7783 0.134706 33.377 0.137372 34.9743 1.72804L61.7823 28.4134C63.3797 30.0027 63.221 32.404 61.429 33.7707L41.297 49.1187C40.0797 49.9907 38.381 49.7067 37.505 48.4854C36.6303 47.264 36.913 45.5654 38.1383 44.6934L56.3983 30.872L32.0797 6.55337L7.48766 31.2947L26.0063 44.6934ZM41.6783 52.0054C43.017 51.336 44.649 51.8827 45.321 53.224C45.9943 54.5654 45.4477 56.204 44.1023 56.88L34.3197 62.8774C33.0383 63.6627 30.957 63.6627 29.6757 62.8774L19.893 56.88C18.5477 56.204 18.001 54.5654 18.6743 53.224C19.3463 51.8827 20.9783 51.336 22.3157 52.0054L29.7037 56.7334C30.9703 57.5427 33.025 57.5427 34.2917 56.7334L41.6783 52.0054ZM32.7477 22.5174L38.581 28.0347L41.073 30.392C41.8477 31.1254 40.5743 31.328 40.117 31.3934C38.5583 31.612 37.6143 29.064 36.041 29.0107C33.8903 28.9374 31.8863 31.9747 30.2583 31.8854C28.785 31.804 28.917 28.896 27.625 29.02C26.633 29.1147 27.349 31.2334 26.0583 31.5667C25.5397 31.6747 21.5997 31.28 22.969 30.284C23.0303 30.2254 23.0943 30.164 23.1597 30.1014C23.8197 29.472 24.7023 28.6814 25.3863 28.0347L31.2183 22.5174C31.429 22.3187 31.7023 22.204 31.977 22.204C32.2557 22.2014 32.5343 22.3147 32.7477 22.5174ZM19.4677 26.1C19.8623 25.732 20.257 25.364 20.653 24.9974C20.993 24.684 21.3197 24.384 21.6463 24.0707L27.461 18.5694C28.6583 17.4267 30.2383 16.7867 31.8997 16.7587C31.913 16.7587 31.941 16.7587 31.9543 16.7587H31.9677C31.9943 16.7587 32.0223 16.7587 32.049 16.7587C33.7103 16.772 35.3037 17.4267 36.5023 18.5694L42.3303 24.084L44.6997 26.3307C45.925 27.4067 46.673 28.932 46.7557 30.5654C46.837 32.4587 45.965 34.2827 44.441 35.4267C43.8543 35.8627 43.201 36.2027 42.5063 36.4214C41.9343 36.5987 41.349 36.7347 40.7503 36.8027C40.669 36.816 40.5863 36.816 40.505 36.8294L40.3143 36.8427C40.097 36.8574 39.893 36.8574 39.6877 36.8427C38.2183 36.7894 36.801 36.2707 35.6303 35.3867C35.6037 35.3587 35.5757 35.3454 35.549 35.3187C35.1943 35.5907 34.813 35.836 34.4463 36.08C33.3023 36.816 32.009 37.2387 30.661 37.32C30.497 37.3334 30.3343 37.3334 30.1837 37.3334H30.1157C29.9797 37.32 29.8437 37.32 29.7077 37.3067C29.013 37.2387 28.3317 37.048 27.6783 36.7614C27.529 36.816 27.3783 36.8574 27.229 36.884C26.7117 36.9934 26.1943 37.048 25.677 37.0334C24.7103 37.02 23.7303 36.9107 22.777 36.6934C22.0823 36.544 21.3877 36.3254 20.7477 36.012C20.0943 35.7134 19.4957 35.304 18.977 34.8014C17.7797 33.6294 17.153 32.0094 17.249 30.3347C17.357 28.6734 18.1743 27.148 19.4677 26.1Z" fill="#9FEF00"/>
</svg>
