<svg width="64" height="65" viewBox="0 0 64 65" fill="none" xmlns="http://www.w3.org/2000/svg">
<g clip-path="url(#clip0_62_4502)">
<path fill-rule="evenodd" clip-rule="evenodd" d="M44.0134 19.848C47.392 23.104 49.3014 27.608 49.3014 32.3133C49.3014 36.8973 47.4721 41.3213 44.2347 44.5573C40.9774 47.8146 36.5747 49.6453 31.9894 49.6453C27.2854 49.6453 22.7814 47.7146 19.5241 44.3373C19.9067 44.3573 20.2881 44.3773 20.6907 44.3773C26.8827 44.3773 32.8147 41.904 37.1974 37.5213C41.5801 33.1573 44.0334 27.2066 44.0334 21.0133C44.0334 20.632 44.0334 20.2493 44.0134 19.848ZM33.1361 8.9893C39.1281 9.29196 44.7774 11.8853 48.8987 16.228C53.0214 20.5506 55.3334 26.3213 55.3334 32.3133C55.3334 38.5053 52.8801 44.4573 48.4974 48.82C44.1147 53.204 38.1627 55.6773 31.9894 55.6773C25.9987 55.656 20.2281 53.364 15.8854 49.2426C11.5414 45.1013 8.96805 39.4706 8.66672 33.48C11.8841 36.596 16.2067 38.3453 20.6907 38.3453C25.2747 38.3453 29.6774 36.516 32.9347 33.2586C36.1721 30.0213 38.0014 25.6173 38.0014 21.0133C38.0014 16.5293 36.2521 12.2266 33.1361 8.9893ZM43.2334 56.5386C44.5721 55.9266 46.1547 56.5173 46.7654 57.8546C47.3774 59.192 46.7881 60.7746 45.4494 61.3866C39.0481 64.3186 31.8481 65.0533 24.9881 63.4826C18.1281 61.9106 11.9774 58.124 7.48672 52.7026C2.07605 46.1733 -0.523949 37.748 0.268051 29.3C1.06005 20.852 5.18139 13.056 11.7121 7.64663C18.2414 2.23596 26.6667 -0.364037 35.1147 0.427963C43.5641 1.21996 51.3587 5.3413 56.7694 11.872C61.2427 17.272 63.8134 23.9906 64.1054 30.9866C64.3854 37.992 62.3654 44.8946 58.3507 50.6453C57.5054 51.852 55.8401 52.1453 54.6334 51.3013C53.4267 50.456 53.1334 48.7906 53.9787 47.584C57.3241 42.804 59.0107 37.0426 58.7814 31.2066C58.5334 25.3693 56.3881 19.7706 52.6614 15.2746C48.1534 9.83196 41.6574 6.4013 34.6174 5.7413C27.5774 5.0813 20.5561 7.24396 15.1147 11.7533C9.67339 16.2613 6.24138 22.7573 5.58138 29.7973C4.92138 36.8386 7.08538 43.8586 11.5934 49.3C15.3361 53.8186 20.4654 56.9786 26.1867 58.2826C31.8961 59.5946 37.9001 58.9826 43.2334 56.5386Z" fill="#9FEF00"/>
</g>
<defs>
<clipPath id="clip0_62_4502">
<rect width="64" height="64" fill="white" transform="translate(0 0.333313)"/>
</clipPath>
</defs>
</svg>
