<svg width="64" height="64" viewBox="0 0 64 64" fill="none" xmlns="http://www.w3.org/2000/svg">
<g clip-path="url(#clip0_62_4495)">
<path d="M41.96 11.1467L40.1467 13.1067L36.2267 9.48002L38.04 7.52002L44.8133 0.226685L64 18.16V57.0934L38.0133 64.2134L26.6267 57.3467L24.3467 55.9734L27.0933 51.4L29.3733 52.7734L38.8133 58.4534L58.6667 53.0267V20.48L45.08 7.77335L41.96 11.1467Z" fill="#9FEF00"/>
<path d="M29.1999 48.8267L30.6533 48L39.9999 50.6667L31.0533 53.84L2.85327 64.2533L8.07994 43.3467L8.71994 40.76L13.9066 42.0533L13.2533 44.6533L10.4799 55.7467L29.1999 48.8267Z" fill="#9FEF00"/>
<path d="M15.0667 43.3066L16 44L13.6267 49.0933L11.6 47.36L0.746704 38.0666L4.2267 30.28L5.32004 27.84L10.1867 30.0133L9.1067 32.4533L7.25337 36.6L15.0667 43.3066Z" fill="#141D2B"/>
<path d="M11.44 25.76L13.9867 26.5333L13.6933 32L9.89335 30.8533L-0.946655 27.5733L10.3067 1.18665L28.8533 2.73331L41.3867 10.3866L46.6667 13.3333L40.5133 16.0293L38.6133 14.9466L27.1467 7.93331L13.6933 6.81331L6.28001 24.1866L11.44 25.76Z" fill="#141D2B"/>
<path fill-rule="evenodd" clip-rule="evenodd" d="M47.9706 22.376C47.9706 23.3026 48.724 24.056 49.652 24.056C50.58 24.056 51.3333 23.3026 51.3333 22.376V16.8693C51.3333 14.5493 49.4506 12.6666 47.1306 12.6666H16.8693C14.5493 12.6666 12.6666 14.5493 12.6666 16.8693V32.84C12.6666 33.768 13.42 34.5213 14.348 34.5213C15.276 34.5213 16.0293 33.768 16.0293 32.84V18.5506C16.0293 17.1586 17.1586 16.0293 18.5506 16.0293H45.4493C46.8413 16.0293 47.9706 17.1586 47.9706 18.5506V22.376ZM16.0293 41.624C16.0293 40.6973 15.276 39.944 14.348 39.944C13.42 39.944 12.6666 40.6973 12.6666 41.624V47.1306C12.6666 49.4506 14.5493 51.3333 16.8693 51.3333H47.1306C49.4506 51.3333 51.3333 49.4506 51.3333 47.1306V30.4706C51.3333 29.5426 50.58 28.7893 49.652 28.7893C48.724 28.7893 47.9706 29.5426 47.9706 30.4706V45.4493C47.9706 46.8413 46.8413 47.9706 45.4493 47.9706H18.5506C17.1586 47.9706 16.0293 46.8413 16.0293 45.4493V41.624ZM18.6666 44.6666H30.6666V41.3333H18.6666V44.6666Z" fill="#A4B1CD"/>
<path d="M29.1493 19.6294V21.7187H25.8173V31.4667H29.1493V33.5547H19.8107V31.4667H23.12V21.7187H19.8107V19.6294H29.1493ZM35.708 33.7934C34.5596 33.7934 33.5471 33.5414 32.6707 33.0374C31.7942 32.5334 31.1218 31.8241 30.6533 30.9094L32.9653 29.9347C33.6 31.0085 34.5218 31.5454 35.7307 31.5454C37.4533 31.5454 38.3147 30.5974 38.3147 28.7014V19.6294H40.9893V28.8201C40.9893 29.7614 40.8307 30.5703 40.5133 31.2467C40.196 31.9232 39.7653 32.4374 39.2213 32.7894C38.6773 33.1405 38.1182 33.3956 37.544 33.5547C36.9698 33.7138 36.3578 33.7934 35.708 33.7934Z" fill="#A4B1CD" stroke="#A4B1CD" stroke-width="0.666667" stroke-miterlimit="3" stroke-linecap="square"/>
</g>
<defs>
<clipPath id="clip0_62_4495">
<rect width="64" height="64" fill="white"/>
</clipPath>
</defs>
</svg>
