<svg width="512" height="512" viewBox="0 0 512 512" fill="none" xmlns="http://www.w3.org/2000/svg">
<g clip-path="url(#clip0_38_226)">
<path d="M397.585 397.589C475.755 319.373 475.755 192.559 397.585 114.343C319.414 36.1269 192.675 36.1269 114.505 114.343C36.3342 192.559 36.3341 319.373 114.505 397.589C192.675 475.805 319.414 475.805 397.585 397.589Z" fill="#9FEF00"/>
<path d="M256.05 64.8986C307.04 64.8986 355.037 84.7676 391.06 120.811C427.082 156.855 446.94 204.88 446.94 255.9C446.94 306.92 427.082 354.945 391.06 390.989C355.037 427.033 307.04 446.902 256.05 446.902C205.059 446.902 157.063 427.033 121.04 390.989C85.0173 354.945 65.16 306.92 65.16 255.9C65.16 204.88 85.0173 156.855 121.04 120.811C157.063 84.7676 204.96 64.8986 256.05 64.8986ZM256.05 46.4275C140.398 46.4275 46.5999 140.281 46.5999 256C46.5999 371.719 140.398 465.573 256.05 465.573C371.701 465.573 465.5 371.719 465.5 256C465.5 140.281 371.701 46.4275 256.05 46.4275Z" fill="#141D2B"/>
<path d="M18.3606 222.752H483.661V242.92H497.83V280.362H480.368L479.57 307.02H24.9464H14.1696V285.354L27.441 284.855L40.8123 285.354L40.2136 270.877L23.3498 270.378L24.2479 238.827L18.3606 239.027V222.752Z" fill="#A4B1CD" stroke="#141D2B" stroke-width="9.2531" stroke-miterlimit="10"/>
<path d="M226.114 19.4696H407.824L270.419 183.913H407.824L164.048 492.53L226.114 270.378L135.209 243.819L226.114 19.4696Z" fill="#9FEF00" stroke="#141D2B" stroke-width="8" stroke-miterlimit="10"/>
</g>
<defs>
<clipPath id="clip0_38_226">
<rect width="512" height="512" fill="white"/>
</clipPath>
</defs>
</svg>
