<svg width="512" height="512" viewBox="0 0 512 512" fill="none" xmlns="http://www.w3.org/2000/svg">
<path d="M94.8 186.3V166.4H7.69995V186.3H35.2V309.7H7.69995V329.6H94.8V309.7H63.0999V186.3H94.8Z" fill="#9FEF00"/>
<path d="M166.8 187.3C171.1 187.3 173 187.4 175.1 187.5C181.5 187.9 186.5 188.2 190.9 189.3C194.6 190.2 204.3 192.7 209.5 200.1C213.4 205.7 213.6 212 213.6 215.4V215.9V216.2C213.6 217 213.8 226.6 208.6 234C199 247.7 174.6 249.8 160.9 249.8C160.1 249.8 159.2 249.8 158.4 249.8L155 249.7V187.3H158H158.1H158.2C162 187.3 164.7 187.3 166.8 187.3ZM166.8 166.3C164.6 166.3 161.8 166.3 158.2 166.4H134.2V166.8V268.8V329.6H158.2V270.9C159.1 270.9 160.1 270.9 161.1 270.9C182.7 270.9 211.6 266.7 226 246.2C236 232 234.8 215.1 234.8 215.1C234.7 210 234.3 198.9 226.9 188.2C217.3 174.5 201.9 170.4 196.2 169C189.9 167.4 183.7 167 176.5 166.6C173.7 166.4 171.4 166.3 166.8 166.3Z" fill="#9FEF00"/>
<path d="M317.4 186.2H288.9H281.4H273.8V329.6H281.4H288.9H317.4V317.3H288.9V198.4H317.4V186.2Z" fill="#9FEF00"/>
<path d="M447.4 186.5H439.9H432.3H403.9V198.8H432.3V317.4H403.9V329.6H432.3H439.9H447.4V186.5Z" fill="#9FEF00"/>
<path d="M329.7 214.1H339.4C340.6 214.1 341.6 214.8 342 215.9L362.7 269.1C363.6 271.5 367 271.5 367.9 269.1L388.4 216C388.8 214.9 389.9 214.2 391 214.2H400C401.9 214.2 403.3 216.1 402.7 217.9C394 241 385.3 264 376.7 287.1C375.3 291.1 373.7 295.5 371.7 300.1C369.9 304.2 367.9 308 366.1 311.5L361.2 318.6C356.4 325.5 348.5 329.6 340.1 329.6H332C330.5 329.6 329.2 328.4 329.2 326.8C329.2 322.5 332.5 318.9 336.7 318.5L340 318.2C345.7 317.7 350.8 314.6 353.8 309.8L354.2 309.1C358.6 302.1 359.3 293.3 356.1 285.7L327 217.9C326.3 216.2 327.6 214.1 329.7 214.1Z" fill="#A4B1CD"/>
<path d="M488.4 234.2C495.303 234.2 500.9 228.604 500.9 221.7C500.9 214.796 495.303 209.2 488.4 209.2C481.496 209.2 475.9 214.796 475.9 221.7C475.9 228.604 481.496 234.2 488.4 234.2Z" fill="#9FEF00"/>
<path d="M488.4 305.7C495.303 305.7 500.9 300.104 500.9 293.2C500.9 286.296 495.303 280.7 488.4 280.7C481.496 280.7 475.9 286.296 475.9 293.2C475.9 300.104 481.496 305.7 488.4 305.7Z" fill="#9FEF00"/>
</svg>
