<svg width="64" height="64" viewBox="0 0 64 64" fill="none" xmlns="http://www.w3.org/2000/svg">
<path fill-rule="evenodd" clip-rule="evenodd" d="M44.9169 39.9417H51.6929L59.9769 44.163C60.9995 44.563 62.1515 44.059 62.5475 43.039C62.9435 42.019 62.4395 40.871 61.4235 40.4777L53.3222 36.4217C52.8329 36.1777 51.9915 35.979 51.4449 35.979H44.9169V26.6363C44.9169 22.8083 41.8089 19.7003 37.9809 19.7003H23.0462V11.603C23.0462 9.96299 24.3782 8.63099 26.0182 8.63099H55.7449C57.3862 8.63099 58.7182 9.96299 58.7182 11.603V30.9257C58.7182 32.019 59.6062 32.907 60.6995 32.907C61.7929 32.907 62.6809 32.019 62.6809 30.9257V11.603C62.6809 7.77499 59.5729 4.66699 55.7449 4.66699H26.0182C22.1902 4.66699 19.0822 7.77499 19.0822 11.603V19.7003H8.25421C4.42621 19.7003 1.31821 22.8083 1.31821 26.6363V45.959C1.31821 47.0523 2.20621 47.9403 3.29954 47.9403C4.39288 47.9403 5.28088 47.0523 5.28088 45.959V26.6363C5.28088 24.9963 6.61288 23.6643 8.25421 23.6643H37.9809C39.6209 23.6643 40.9529 24.9963 40.9529 26.6363V48.039C40.9529 49.6803 39.6209 51.0123 37.9809 51.0123H12.5542C12.0075 51.0123 11.1662 51.211 10.6769 51.455L2.57554 55.511C1.55954 55.9043 1.05554 57.0523 1.45154 58.0723C1.84754 59.0923 2.99954 59.5963 4.02221 59.1963L12.3062 54.975H37.9809C41.8089 54.975 44.9169 51.8683 44.9169 48.039V39.9417ZM20.9315 34.7337H26.3982L25.4342 40.2003H19.9675L20.9315 34.7337ZM19.6449 26.5337L18.6795 32.0003H14.9822V34.7337H18.1982L17.2342 40.2003H13.6169V42.9337H16.7529L15.7889 48.4003H18.5222L19.4862 42.9337H24.9529L23.9889 48.4003H26.7222L27.6862 42.9337H31.3835V40.2003H28.1675L29.1315 34.7337H32.7502V32.0003H29.6142L30.5782 26.5337H27.8449L26.8809 32.0003H21.4142L22.3782 26.5337H19.6449Z" fill="#9FEF00"/>
</svg>
