<svg width="64" height="65" viewBox="0 0 64 65" fill="none" xmlns="http://www.w3.org/2000/svg">
<path fill-rule="evenodd" clip-rule="evenodd" d="M55.9985 34.12C56.1092 32.656 57.3932 31.5533 58.8625 31.66C60.3318 31.7667 61.4358 33.048 61.3252 34.52C60.7785 41.8933 57.4545 48.8 52.0212 53.84C46.5878 58.8667 39.4452 61.6667 32.0358 61.6667C24.2532 61.6667 16.7772 58.5733 11.2638 53.08C5.76384 47.5733 2.6665 40.1067 2.6665 32.3333C2.6665 24.56 5.76384 17.0933 11.2638 11.5867C16.7772 6.09333 24.2532 3 32.0358 3C33.5092 3 34.7065 4.19467 34.7065 5.66667C34.7065 7.13867 33.5092 8.33333 32.0358 8.33333C25.6678 8.33333 19.5545 10.8667 15.0412 15.36C10.5425 19.8667 8.0065 25.9733 8.0065 32.3333C8.0065 38.6933 10.5425 44.8 15.0412 49.3067C19.5545 53.8 25.6678 56.3333 32.0358 56.3333C38.0972 56.3333 43.9438 54.0533 48.3892 49.9333C52.8345 45.8133 55.5452 40.16 55.9985 34.12ZM43.2105 11.08C41.9052 10.396 41.4038 8.78267 42.0878 7.48C42.7732 6.17733 44.3892 5.676 45.6932 6.36C51.2465 9.28 55.7318 13.9067 58.4692 19.5467C59.1172 20.8707 58.5665 22.4693 57.2398 23.1133C55.9145 23.7573 54.3105 23.204 53.6625 21.88C51.4198 17.2533 47.7625 13.48 43.2105 11.08ZM27.1012 41.2053C27.1012 41.2053 25.6745 42.0347 28.1172 42.3147C31.0745 42.652 32.5865 42.604 35.8465 41.988C35.8465 41.988 36.7052 42.5253 37.9025 42.9907C30.5932 46.1213 21.3612 42.8093 27.1012 41.2053ZM26.2065 37.1173C26.2065 37.1173 24.6078 38.3027 27.0505 38.5547C30.2118 38.8813 32.7065 38.908 37.0265 38.076C37.0265 38.076 37.6225 38.6813 38.5612 39.0133C29.7252 41.5973 19.8852 39.216 26.2065 37.1173ZM33.7358 30.184C35.5372 32.2573 33.2625 34.1227 33.2625 34.1227C33.2625 34.1227 37.8358 31.7627 35.7358 28.8053C33.7745 26.0493 32.2705 24.68 40.4118 19.9587C40.4118 19.9587 27.6318 23.1493 33.7358 30.184ZM43.4025 44.228C43.4025 44.228 44.4572 45.0987 42.2398 45.7707C38.0212 47.0493 24.6812 47.4347 20.9758 45.8227C19.6452 45.2427 22.1425 44.4387 22.9278 44.2693C23.7465 44.092 24.2145 44.124 24.2145 44.124C22.7332 43.0813 14.6398 46.1733 20.1038 47.06C35.0052 49.4747 47.2678 45.972 43.4025 44.228ZM27.7865 32.8827C27.7865 32.8827 21.0012 34.4947 25.3838 35.08C27.2345 35.328 30.9225 35.2707 34.3598 34.9827C37.1678 34.7467 39.9865 34.2427 39.9865 34.2427C39.9865 34.2427 38.9972 34.668 38.2812 35.156C31.3892 36.9693 18.0785 36.1253 21.9118 34.272C25.1505 32.704 27.7865 32.8827 27.7865 32.8827ZM39.9585 39.6853C46.9638 36.0467 43.7238 32.5493 41.4638 33.02C40.9105 33.136 40.6625 33.2347 40.6625 33.2347C40.6625 33.2347 40.8692 32.912 41.2612 32.7733C45.7332 31.2027 49.1718 37.4107 39.8185 39.8693C39.8185 39.8693 39.9265 39.772 39.9585 39.6853ZM35.7358 12.3333C35.7358 12.3333 39.6145 16.2133 32.0558 22.18C25.9958 26.9667 30.6745 29.696 32.0545 32.8147C28.5158 29.6227 25.9212 26.812 27.6612 24.1973C30.2172 20.3587 37.3012 18.4973 35.7358 12.3333ZM28.4745 49.5493C35.1972 49.98 45.5225 49.3107 45.7678 46.1293C45.7678 46.1293 45.2972 47.3347 40.2118 48.292C34.4732 49.372 27.3945 49.2467 23.1972 48.5533C23.1972 48.5533 24.0572 49.2653 28.4745 49.5493Z" fill="#9FEF00"/>
</svg>
