<svg width="64" height="64" viewBox="0 0 64 64" fill="none" xmlns="http://www.w3.org/2000/svg">
<g clip-path="url(#clip0_62_4475)">
<path fill-rule="evenodd" clip-rule="evenodd" d="M39.1318 46.3133C40.4465 45.292 48.8758 38.1293 49.7225 37.3146C50.8358 36.24 50.8465 35.9586 49.8625 33.0893C47.7118 26.8106 43.9292 19.316 42.2265 17.9626C41.5172 17.3986 40.2092 17.408 39.2905 17.98C38.0092 18.78 38.0665 19.8573 39.5252 22.4146C40.0505 23.336 40.4812 24.152 40.4812 24.228C40.4812 24.3053 40.2985 24.3666 40.0745 24.3666C39.7892 24.3666 39.1372 23.5546 37.8678 21.6226C35.9385 18.6813 35.3825 18.2133 34.1145 18.4706C33.1585 18.664 32.0692 19.404 31.7105 20.1066C31.2958 20.9173 31.4665 21.328 33.3998 24.1453C34.5865 25.8773 34.9105 26.496 34.7252 26.6826C34.5918 26.8186 34.4145 26.9293 34.3318 26.9293C34.2492 26.9293 33.1678 25.536 31.9305 23.8333C31.1385 22.7453 30.5198 21.9453 30.0598 21.4133C29.2678 20.3306 28.5158 20.6666 27.5438 21.0253C26.8492 21.368 26.1452 21.8626 25.7985 22.3226C24.9838 23.4026 25.1038 24.0853 26.4425 25.9706C27.0865 26.8773 28.0412 28.152 28.5652 28.8013C29.4825 29.94 29.7038 30.7413 29.1518 30.9253C28.8305 31.0306 28.9972 31.216 22.8412 23.9533C19.0278 19.456 17.2372 17.5 16.7892 17.3413C15.9465 17.0453 15.0278 17.4333 14.1265 18.472C12.7945 20.0053 12.6385 19.7333 20.1305 28.8946C23.8092 33.3906 26.9118 37.1933 27.0265 37.3426C27.4492 37.8973 26.9225 37.8586 24.9118 37.1853C23.2198 36.6173 22.6078 36.5093 21.4998 36.58C19.6638 36.7333 18.8292 37.7466 18.7878 39.1466C18.7598 40.124 19.6945 41.0666 20.8372 41.6506C21.4905 41.9866 28.7238 44.324 34.6718 46.1213C37.2705 46.908 38.3078 46.9533 39.1318 46.3133ZM24.0398 4.79997C24.0398 4.79997 24.0532 4.79997 24.0665 4.79997H24.0132H24.0398L32.0265 4.8133L40.0132 4.82663C40.4398 4.82663 40.8798 4.87997 41.2932 4.98663C41.8798 5.11997 42.4398 5.30663 42.9865 5.5333C43.5465 5.75997 44.0798 6.03997 44.5865 6.34664C44.9465 6.5733 45.2932 6.83997 45.5998 7.14664L51.2398 12.8L56.8798 18.4533C57.1865 18.76 57.4532 19.1066 57.6665 19.4666C57.9865 19.9733 58.2532 20.5066 58.4798 21.0533C58.7198 21.6133 58.8932 22.1733 59.0265 22.76C59.1332 23.1733 59.1865 23.6133 59.1999 24.04C59.1999 24.04 59.1999 24.0533 59.1999 24.0666V24.0133V24.04L59.1865 32.0266L59.1732 40.04C59.1732 42.12 58.3465 44.12 56.8665 45.5866L51.1999 51.24L45.5465 56.88C45.2398 57.1866 44.8932 57.4533 44.5332 57.6666C44.0265 57.9866 43.4932 58.2533 42.9465 58.48C42.3865 58.72 41.8265 58.8933 41.2398 59.0266C40.8265 59.1333 40.3865 59.1866 39.9598 59.2C39.9598 59.2 39.9465 59.2 39.9332 59.2H39.9865H39.9598L31.9732 59.1866L23.9865 59.1733C23.5598 59.1733 23.1198 59.12 22.7065 59.0133C22.1198 58.88 21.5598 58.6933 21.0132 58.4666C20.4532 58.24 19.9198 57.96 19.4132 57.6533C19.0532 57.4266 18.7065 57.16 18.3998 56.8533L12.7598 51.2L7.11985 45.5466C6.81318 45.24 6.54651 44.8933 6.33318 44.5333C6.01318 44.0266 5.74651 43.4933 5.51985 42.9466C5.27985 42.3866 5.10651 41.8266 4.97318 41.24C4.86651 40.8266 4.81318 40.3866 4.79985 39.96L4.81318 31.9733L4.82651 23.9866C4.82651 23.56 4.87985 23.12 4.98651 22.7066C5.11985 22.12 5.30651 21.56 5.53318 21.0133C5.75985 20.4533 6.03985 19.92 6.34651 19.4133C6.57318 19.0533 6.83985 18.7066 7.14651 18.4L12.7998 12.76L18.4532 7.11997C18.7598 6.8133 19.1065 6.54664 19.4665 6.3333C19.9732 6.0133 20.5065 5.74663 21.0532 5.51997C21.6132 5.27997 22.1732 5.10663 22.7598 4.9733C23.1732 4.86663 23.6132 4.8133 24.0398 4.79997ZM4.79985 39.96C4.79985 39.96 4.79985 39.9466 4.79985 39.9333V39.9866V39.96ZM39.9772 63.1946L31.9678 63.1866L23.9585 63.1786C21.2492 63.176 17.4958 61.616 15.5825 59.6986L9.92518 54.0293L4.26785 48.36C2.35318 46.4426 0.802513 42.6866 0.805179 39.9773L0.813179 31.968L0.821179 23.9586C0.823846 21.2493 2.38385 17.496 4.30118 15.5826L9.97051 9.9253L15.6398 4.26797C17.5572 2.3533 21.3132 0.802635 24.0225 0.805301L32.0318 0.813301L40.0412 0.821301C42.7505 0.823968 46.5038 2.38397 48.4172 4.3013L54.0745 9.97064L59.7318 15.64C61.6465 17.5573 63.1972 21.3133 63.1945 24.0226L63.1865 32.032L63.1785 40.0413C63.1758 42.7506 61.6158 46.504 59.6985 48.4173L54.0292 54.0746L48.3598 59.732C46.4425 61.6466 42.6865 63.1973 39.9772 63.1946Z" fill="#9FEF00"/>
</g>
<defs>
<clipPath id="clip0_62_4475">
<rect width="64" height="64" fill="white"/>
</clipPath>
</defs>
</svg>
