<svg width="64" height="65" viewBox="0 0 64 65" fill="none" xmlns="http://www.w3.org/2000/svg">
<path fill-rule="evenodd" clip-rule="evenodd" d="M46.6798 15.7334C47.8798 16.5947 49.5492 16.3227 50.4065 15.1267C51.2638 13.9307 50.9865 12.2614 49.7865 11.4001L34.4585 2.39075C33.1905 1.64541 31.1252 1.63741 29.8505 2.37341L6.8025 15.6801C5.52783 16.4161 4.49316 18.2081 4.49316 19.6801V43.7734C4.49316 45.2454 5.52516 47.0427 6.79583 47.7854L32.3638 62.7347C33.6345 63.4774 34.6665 62.8854 34.6665 61.4134V45.2934C34.6665 43.8214 33.4718 42.6267 31.9998 42.6267C30.5278 42.6267 29.3332 43.8214 29.3332 45.2934V52.3601C29.3332 53.0961 28.8172 53.3934 28.1798 53.0241L9.8265 42.3601V20.0934L31.8398 7.38675L46.6798 15.7334ZM39.2265 53.9067C37.9678 54.6721 37.5625 56.3147 38.3198 57.5734C39.0772 58.8321 40.7145 59.2374 41.9732 58.4801L57.1772 50.0054C58.4625 49.2881 59.5065 47.5121 59.5065 46.0401V18.7467C59.5065 17.2747 58.4718 16.6774 57.1972 17.4134L33.3012 31.2134C32.6638 31.5814 31.6238 31.5907 30.9798 31.2347L17.3065 23.6667C16.0998 22.8201 14.4292 23.1067 13.5798 24.3067C12.7305 25.5067 13.0198 27.1734 14.2265 28.0267L29.5438 36.8667C30.8185 37.6027 32.8878 37.6027 34.1625 36.8667L54.1732 25.3201V45.7067L39.2265 53.9067Z" fill="#9FEF00"/>
<path d="M37.3335 47.7121V49.9441C37.3335 50.6788 37.8628 50.9988 38.5135 50.6574L49.4868 44.9001C50.1375 44.5574 50.6668 43.6828 50.6668 42.9468V40.7161C50.6668 39.9801 50.1375 39.6601 49.4868 40.0014L38.5135 45.7588C37.8628 46.1014 37.3335 46.9761 37.3335 47.7121Z" fill="#A4B1CD"/>
</svg>
