<svg width="64" height="64" viewBox="0 0 64 64" fill="none" xmlns="http://www.w3.org/2000/svg">
<g clip-path="url(#clip0_11_38)">
<path d="M60.6211 2.15878C58.9011 0.757445 56.6678 0.212112 54.4891 0.664112L25.8545 6.67878C22.4625 7.38011 19.9998 10.4054 19.9998 13.8694V41.3334C17.9811 39.8308 15.4825 38.9401 12.7785 38.9401C6.09713 38.9401 0.661133 44.3761 0.661133 51.0574C0.661133 57.7401 6.09713 63.1748 12.7785 63.1748C19.4411 63.1748 24.8651 57.7694 24.8945 51.1121C24.8945 51.1081 24.8958 51.1028 24.8958 51.0988V23.5508L58.4318 16.4174V33.5001C56.4145 31.9974 53.9145 31.1068 51.2105 31.1068C44.5291 31.1068 39.0931 36.5428 39.0931 43.2241C39.0931 49.9054 44.5291 55.3414 51.2105 55.3414C52.5211 55.3414 53.8105 55.1334 55.0451 54.7214C56.3278 54.2948 57.0211 52.9081 56.5931 51.6255C56.1651 50.3428 54.7785 49.6494 53.4971 50.0774C52.7625 50.3214 51.9945 50.4454 51.2105 50.4454C47.2291 50.4454 43.9891 47.2068 43.9891 43.2241C43.9891 39.2428 47.2291 36.0028 51.2105 36.0028C55.1931 36.0028 58.4318 39.2428 58.4318 43.2241V43.2401C58.4318 44.5921 59.5278 45.6881 60.8798 45.6881C62.2318 45.6881 63.3278 44.5921 63.3278 43.2401V7.85345C63.3278 5.63478 62.3411 3.55878 60.6211 2.15878ZM12.7785 58.2788C8.79713 58.2788 5.55713 55.0401 5.55713 51.0574C5.55713 47.0761 8.79713 43.8361 12.7785 43.8361C16.7598 43.8361 19.9998 47.0761 19.9998 51.0574C19.9998 55.0401 16.7598 58.2788 12.7785 58.2788ZM24.8958 13.8694C24.8958 12.7148 25.7171 11.7068 26.8545 11.4708L55.4878 5.45611C55.6545 5.42145 55.8211 5.40545 55.9878 5.40545C56.5451 5.40545 57.0878 5.59478 57.5291 5.95478C58.1038 6.42145 58.4318 7.11345 58.4318 7.85345V11.4121L24.8958 18.5454V13.8694Z" fill="#9FEF00"/>
</g>
<defs>
<clipPath id="clip0_11_38">
<rect width="64" height="64" fill="white"/>
</clipPath>
</defs>
</svg>
