<svg width="64" height="65" viewBox="0 0 64 65" fill="none" xmlns="http://www.w3.org/2000/svg">
<g clip-path="url(#clip0_62_4434)">
<path fill-rule="evenodd" clip-rule="evenodd" d="M56.1293 24.224C55.6053 22.74 56.3853 21.1093 57.8693 20.5866C59.3533 20.0626 60.9826 20.8427 61.5066 22.3267C63.7319 28.6507 63.8786 35.536 61.9199 41.9466C61.4639 43.456 59.8706 44.3093 58.3639 43.8507C56.8559 43.392 56.0026 41.7947 56.4586 40.2853C58.0679 35.028 57.9479 29.412 56.1293 24.224ZM49.4559 13.5733C50.5399 14.5693 52.2279 14.4973 53.2239 13.4133C54.2199 12.3293 54.1479 10.6413 53.0639 9.64532C47.4066 4.45198 40.0319 1.52132 32.3573 1.40265C24.6733 1.29465 17.2173 3.99998 11.4053 9.02932C10.2906 9.99332 10.1679 11.68 11.1319 12.7946C12.0946 13.9093 13.7826 14.032 14.8973 13.068C19.7119 8.89732 25.9119 6.64532 32.2746 6.74665C38.6466 6.83732 44.7573 9.26932 49.4559 13.5733ZM7.75325 23.0826C8.29992 21.7133 7.63325 20.1573 6.26392 19.6093C4.89459 19.0626 3.33859 19.7293 2.79192 21.0986C0.187919 27.6493 -0.144081 34.8893 1.85459 41.6546C2.27192 43.0653 3.75725 43.872 5.16792 43.4546C6.57859 43.0373 7.38525 41.5533 6.96792 40.1413C5.30525 34.524 5.57992 28.5226 7.75325 23.0826ZM13.6013 51.224C12.5373 50.2067 10.8479 50.2453 9.83059 51.3093C8.81459 52.3733 8.85192 54.0627 9.91592 55.08L10.5519 55.688C10.5613 55.6973 10.5719 55.7053 10.5813 55.7147C16.3586 61.0747 23.9519 64.0627 31.8306 64.0787C39.7093 64.0947 47.3253 61.1387 53.1159 55.7987C54.1933 54.8 54.2613 53.1107 53.2666 52.028C52.2733 50.9467 50.5839 50.8787 49.4973 51.8773C44.6999 56.3027 38.3866 58.7573 31.8479 58.748C25.3093 58.7387 19.0173 56.2667 14.2279 51.8227L13.6013 51.224ZM16.3053 21.8933V43.1667H12.1346V21.8933H16.3053ZM29.1559 37.3426V36.084L27.5426 36.1387C26.3301 36.176 25.4279 36.3951 24.8359 36.796C24.243 37.1969 23.9466 37.8075 23.9466 38.628C23.9466 39.8031 24.6213 40.3906 25.9706 40.3906C26.9368 40.3906 27.7093 40.1129 28.2879 39.5573C28.8666 39.0009 29.1559 38.2626 29.1559 37.3426ZM44.7559 30.9306C43.7257 30.9306 42.9737 31.2471 42.4999 31.88C42.0261 32.5138 41.7799 33.56 41.7613 35.0186V35.4693C41.7613 37.1102 42.0053 38.2862 42.4933 38.9973C42.9804 39.7075 43.7528 40.0627 44.8106 40.0627C45.6675 40.0627 46.3488 39.6684 46.8546 38.88C47.3604 38.0915 47.6133 36.9458 47.6133 35.4427C47.6133 33.9387 47.3581 32.8107 46.8479 32.0587C46.3377 31.3067 45.6404 30.9306 44.7559 30.9306ZM33.2986 43.1667H30.3866L29.5799 41.088H29.4706C28.7684 41.9724 28.0461 42.5858 27.3039 42.928C26.5608 43.2693 25.5924 43.44 24.3986 43.44C22.931 43.44 21.7755 43.0209 20.9319 42.1826C20.0893 41.3435 19.6679 40.1493 19.6679 38.6C19.6679 36.9778 20.2355 35.7818 21.3706 35.012C22.5048 34.2413 24.2159 33.8151 26.5039 33.7333L29.1559 33.6507V32.9813C29.1559 31.432 28.363 30.6573 26.7773 30.6573C25.5559 30.6573 24.1204 31.0262 22.4706 31.764L21.0893 28.948C22.8484 28.0271 24.799 27.5666 26.9413 27.5666C28.9919 27.5666 30.5644 28.0133 31.6586 28.9067C32.7519 29.8 33.2986 31.1582 33.2986 32.9813V43.1667ZM46.0959 27.5946C47.9004 27.5946 49.3128 28.2987 50.3333 29.7067C51.3546 31.1147 51.8653 33.0449 51.8653 35.4973C51.8653 38.0218 51.339 39.9764 50.2866 41.3613C49.2333 42.7471 47.7999 43.44 45.9866 43.44C44.191 43.44 42.7826 42.7884 41.7613 41.4853H41.4746L40.7773 43.1667H37.5919V21.8933H41.7613V26.8426C41.7613 27.4711 41.7066 28.4782 41.5973 29.864H41.7613C42.7364 28.3511 44.1813 27.5946 46.0959 27.5946Z" fill="#9FEF00"/>
</g>
<defs>
<clipPath id="clip0_62_4434">
<rect width="64" height="64" fill="white" transform="translate(0 0.666626)"/>
</clipPath>
</defs>
</svg>
