<svg width="64" height="64" viewBox="0 0 64 64" fill="none" xmlns="http://www.w3.org/2000/svg">
<path fill-rule="evenodd" clip-rule="evenodd" d="M25.6597 36.6997C27.249 36.213 28.709 35.3437 29.9063 34.1463C31.8263 32.2263 32.9063 29.6263 32.9063 26.9063C32.9063 24.1997 31.8263 21.5863 29.9063 19.6663C27.9863 17.7463 25.3863 16.6663 22.6663 16.6663C19.9463 16.6663 17.3463 17.7463 15.4263 19.6663C13.5063 21.5863 12.4263 24.1997 12.4263 26.9063C12.4263 29.6263 13.5063 32.2263 15.4263 34.1463C16.173 34.893 17.021 35.5117 17.9397 35.9903L18.9917 36.7317L39.329 51.1143C39.7663 51.4237 40.121 52.109 40.121 52.645V55.5143C40.121 56.0503 39.6863 56.485 39.1517 56.485H6.18101C5.64634 56.485 5.21167 56.0503 5.21167 55.5143V52.713C5.21167 52.177 5.57967 51.5117 6.03301 51.2263L16.645 44.5477C17.549 43.9797 17.8223 42.7837 17.2557 41.8757C16.6877 40.969 15.489 40.697 14.5797 41.2703L3.79701 48.0423C2.43701 48.897 1.33301 50.893 1.33301 52.4997V57.4543C1.33301 59.0597 2.63701 60.3637 4.24234 60.3637H41.0903C42.6957 60.3637 43.9997 59.0597 43.9997 57.4543V52.5663C43.9997 50.961 42.9357 48.905 41.6237 47.9797L25.6597 36.6997ZM43.6263 15.3997C43.6263 14.3197 44.053 13.2797 44.813 12.5197C45.573 11.7597 46.613 11.333 47.693 11.333C48.773 11.333 49.7997 11.7597 50.5597 12.5197C51.3197 13.2797 51.7463 14.3197 51.7463 15.3997C51.7463 16.4663 51.3197 17.5063 50.5597 18.2663C49.7997 19.0263 48.773 19.453 47.693 19.453C46.613 19.453 45.573 19.0263 44.813 18.2663C44.053 17.5063 43.6263 16.4663 43.6263 15.3997ZM16.4263 26.9063C16.4263 25.253 17.0797 23.6663 18.253 22.493C19.4263 21.3197 21.013 20.6663 22.6663 20.6663C24.3197 20.6663 25.9063 21.3197 27.0797 22.493C28.253 23.6663 28.9063 25.253 28.9063 26.9063C28.9063 28.5597 28.253 30.1463 27.0797 31.3197C25.9063 32.493 24.3197 33.1463 22.6663 33.1463C21.013 33.1463 19.4263 32.493 18.253 31.3197C17.0797 30.1463 16.4263 28.5597 16.4263 26.9063ZM50.429 22.9757C51.5317 22.5797 52.545 21.9423 53.3863 21.093C54.9063 19.5863 55.7463 17.533 55.7463 15.3997C55.7463 13.253 54.9063 11.1997 53.3863 9.69301C51.8797 8.18634 49.8263 7.33301 47.693 7.33301C45.5463 7.33301 43.5063 8.18634 41.9863 9.69301C40.4797 11.1997 39.6263 13.253 39.6263 15.3997C39.6263 17.533 40.4797 19.5863 41.9863 21.093C43.069 22.1757 44.4143 22.913 45.8757 23.2477L59.945 33.1983C60.2663 33.425 60.5263 33.929 60.5263 34.3223V36.4343C60.5263 36.8277 60.2077 37.1463 59.813 37.1463H35.565C35.1717 37.1463 34.853 36.8277 34.853 36.4343V34.373C34.853 33.9797 35.1223 33.489 35.4557 33.2797L43.261 28.3677C43.9263 27.9503 44.1277 27.0703 43.7103 26.4023C43.293 25.7357 42.4103 25.5357 41.7423 25.957L33.8117 30.9383C32.8117 31.5663 31.9997 33.0343 31.9997 34.2157V37.8597C31.9997 39.041 32.9583 39.9997 34.1397 39.9997H61.2397C62.421 39.9997 63.3797 39.041 63.3797 37.8597V34.2663C63.3797 33.085 62.597 31.573 61.6317 30.8917L50.429 22.9757Z" fill="#9FEF00"/>
</svg>
