<svg width="70" height="68" viewBox="0 0 70 68" fill="none" xmlns="http://www.w3.org/2000/svg">
<g filter="url(#filter0_d_62_4447)">
<path d="M19 5.99994L24.3333 11.3333L19 16.6666" stroke="#9FEF00" stroke-width="2.66667" stroke-miterlimit="3" stroke-linecap="square"/>
<path d="M33.6665 5.99994L38.9998 11.3333L33.6665 16.6666" stroke="#9FEF00" stroke-width="2.66667" stroke-miterlimit="3" stroke-linecap="square"/>
<path d="M47 5.99994L52.3333 11.3333L47 16.6666" stroke="#9FEF00" stroke-width="2.66667" stroke-miterlimit="3" stroke-linecap="square"/>
<path fill-rule="evenodd" clip-rule="evenodd" d="M24.684 55.348C25.384 55.348 26.056 55.592 26.5573 56.0333C27.0453 56.464 27.3227 57.0573 27.3227 57.6733C27.3227 58.2906 27.0453 58.884 26.5573 59.3133C26.056 59.756 25.384 60 24.684 60H12.6707C7.88533 60 4 56.1146 4 51.3293V11.3373C4 6.55196 7.88533 2.66663 12.6707 2.66663H57.3293C62.1147 2.66663 66 6.55196 66 11.3373V51.3293C66 56.1146 62.1147 60 57.3293 60H45.316C44.616 60 43.944 59.756 43.4427 59.3133C42.9547 58.884 42.6773 58.2906 42.6773 57.6733C42.6773 57.0573 42.9547 56.464 43.4427 56.0333C43.944 55.592 44.616 55.348 45.316 55.348H54.5307C57.948 55.348 60.724 52.572 60.724 49.1546V13.512C60.724 10.0946 57.948 7.31863 54.5307 7.31863H15.4693C12.052 7.31863 9.276 10.0946 9.276 13.512V49.1546C9.276 52.572 12.052 55.348 15.4693 55.348H24.684ZM36.8507 40.2613L34.848 41.3213C32.2653 42.688 30.168 41.4253 30.168 38.504V37.064C30.168 34.1426 32.2653 32.88 34.848 34.2466L36.8507 35.3066C39.4333 36.6746 39.4333 38.8933 36.8507 40.2613ZM44.0213 41.252L30.612 48.352C28.0293 49.7186 25.9333 48.456 25.9333 45.5346V30.0333C25.9333 27.112 28.0293 25.8493 30.612 27.216L44.0213 34.316C47.6373 36.2306 47.6373 39.3373 44.0213 41.252Z" fill="#9FEF00"/>
<path d="M5.6665 15.3333H64.3332V19.3333H5.6665V15.3333Z" fill="#9FEF00"/>
</g>
<defs>
<filter id="filter0_d_62_4447" x="-1" y="0.666626" width="72" height="72" filterUnits="userSpaceOnUse" color-interpolation-filters="sRGB">
<feFlood flood-opacity="0" result="BackgroundImageFix"/>
<feColorMatrix in="SourceAlpha" type="matrix" values="0 0 0 0 0 0 0 0 0 0 0 0 0 0 0 0 0 0 127 0" result="hardAlpha"/>
<feOffset dy="4"/>
<feGaussianBlur stdDeviation="2"/>
<feComposite in2="hardAlpha" operator="out"/>
<feColorMatrix type="matrix" values="0 0 0 0 0 0 0 0 0 0 0 0 0 0 0 0 0 0 0.25 0"/>
<feBlend mode="normal" in2="BackgroundImageFix" result="effect1_dropShadow_62_4447"/>
<feBlend mode="normal" in="SourceGraphic" in2="effect1_dropShadow_62_4447" result="shape"/>
</filter>
</defs>
</svg>
