<svg width="64" height="64" viewBox="0 0 64 64" fill="none" xmlns="http://www.w3.org/2000/svg">
<path d="M40.0493 20.0013C39.3946 20.0413 38.6893 20.6893 38.6906 21.4067L38.6666 42.5933C38.6666 43.5507 39.9186 44.3827 40.6346 43.8147L54.1266 33.1853C54.848 32.624 54.8453 31.3067 54.1266 30.7427L40.66 20.1853C40.48 20.0453 40.268 19.9893 40.0493 20.0013Z" fill="#A4B1CD"/>
<path fill-rule="evenodd" clip-rule="evenodd" d="M24 17.3334V18.6667H28V17.3334H24ZM20 22.6667V24H28V22.6667H20ZM13.3333 28V29.3334H28V28H13.3333ZM8 33.3334V34.6667H23.8333H28V33.3334H8ZM13.3333 38.6667V40H28V38.6667H13.3333ZM20 44V45.3334H28V44H20Z" fill="#A4B1CD"/>
<path d="M32 9.33337L32.052 54.6667H34.6667V9.33337H32Z" fill="#141D2B"/>
<path d="M41.3334 8H33.3334H25.3334L29.3334 13.3333L33.3334 18.6667L37.3334 13.3333L41.3334 8Z" fill="#141D2B"/>
<path fill-rule="evenodd" clip-rule="evenodd" d="M6.66671 16.7334C6.66671 18.2054 5.47204 19.4 4.00004 19.4C2.52804 19.4 1.33337 18.2054 1.33337 16.7334V8.00004C1.33337 4.32004 4.32004 1.33337 8.00004 1.33337H56C59.68 1.33337 62.6667 4.32004 62.6667 8.00004V33.3334C62.6667 34.8054 61.472 36 60 36C58.528 36 57.3334 34.8054 57.3334 33.3334V10.6667C57.3334 8.45871 55.5414 6.66671 53.3334 6.66671H10.6667C8.45871 6.66671 6.66671 8.45871 6.66671 10.6667V16.7334ZM57.3334 47.2667C57.3334 45.7947 58.528 44.6 60 44.6C61.472 44.6 62.6667 45.7947 62.6667 47.2667V56C62.6667 59.68 59.68 62.6667 56 62.6667H8.00004C4.32004 62.6667 1.33337 59.68 1.33337 56V29.5734C1.33337 28.1014 2.52804 26.9067 4.00004 26.9067C5.47204 26.9067 6.66671 28.1014 6.66671 29.5734V53.3334C6.66671 55.5414 8.45871 57.3334 10.6667 57.3334H53.3334C55.5414 57.3334 57.3334 55.5414 57.3334 53.3334V47.2667Z" fill="#9FEF00"/>
</svg>
