<svg width="64" height="65" viewBox="0 0 64 65" fill="none" xmlns="http://www.w3.org/2000/svg">
<path fill-rule="evenodd" clip-rule="evenodd" d="M54.7761 38.8346C54.5401 39.6999 54.2548 40.5506 53.9228 41.3839L57.3174 44.1039C56.5334 45.8586 55.5694 47.5279 54.4441 49.0853L50.3894 47.5053C49.2681 48.9039 47.9948 50.1706 46.5908 51.2839L48.1814 55.3639C46.6254 56.4906 44.9588 57.4559 43.2068 58.2426L40.4641 54.8199C38.7988 55.4733 37.0641 55.9373 35.2948 56.2026L34.6294 60.5479C32.7201 60.7413 30.7961 60.7386 28.8868 60.5386L28.2201 56.2026C27.3348 56.0799 26.4561 55.9066 25.5894 55.6853C24.7254 55.4479 23.8734 55.1639 23.0401 54.8319L20.3201 58.2266C18.5654 57.4426 16.8961 56.4786 15.3388 55.3533L16.9188 51.2973C15.5201 50.1773 14.2534 48.9039 13.1401 47.4999L9.06009 49.0906C7.93343 47.5346 6.96809 45.8679 6.18143 44.1159L9.60409 41.3733C8.95076 39.7079 8.48676 37.9733 8.22276 36.2039L3.87743 35.5386C3.68276 33.6293 3.68543 31.7053 3.88543 29.7959L8.22143 29.1293C8.34409 28.2439 8.51743 27.3653 8.73876 26.4986C8.97609 25.6333 9.26009 24.7826 9.59209 23.9493L6.19743 21.2293C6.98276 19.4746 7.94543 17.8053 9.07076 16.2479L13.1268 17.8279C14.2468 16.4293 15.5201 15.1626 16.9254 14.0493L15.3334 9.96926C16.8894 8.8426 18.5561 7.87726 20.3094 7.0906L23.0508 10.5133C24.7161 9.85993 26.4508 9.39593 28.2201 9.1306L28.8854 4.78526C30.7948 4.59193 32.7201 4.5946 34.6281 4.7946L35.2948 9.1306C36.1801 9.25326 37.0588 9.4266 37.9254 9.64793C38.7908 9.88526 39.6414 10.1693 40.4748 10.5013L43.1948 7.1066C44.9494 7.8906 46.6188 8.8546 48.1761 9.97993L46.5961 14.0359C47.9948 15.1559 49.2614 16.4293 50.3748 17.8333L54.4548 16.2426C55.5814 17.7986 56.5468 19.4653 57.3334 21.2173L53.9121 23.9599C54.3734 25.1386 54.7414 26.3519 54.7414 26.3519C54.8894 27.0333 54.4134 27.5879 53.6774 27.5879H52.0241C51.2881 27.5879 50.5428 27.0079 50.3614 26.2946C50.2721 25.9399 49.6174 24.3506 48.7534 22.8546C46.1508 18.3466 41.8641 15.0573 36.8374 13.7106C31.8094 12.3639 26.4521 13.0679 21.9454 15.6706C17.4374 18.2733 14.1481 22.5599 12.8014 27.5879C11.4548 32.6146 12.1601 37.9719 14.7614 42.4786C17.3641 46.9866 21.6508 50.2759 26.6788 51.6226C31.7054 52.9693 37.0628 52.2653 41.5694 49.6626C46.0774 47.0599 49.3668 42.7733 50.3681 39.0333C50.5588 38.3226 51.3108 37.7453 52.0468 37.7453H53.6988C54.4348 37.7453 54.9588 38.0719 54.8681 38.4733C54.8681 38.4733 54.8374 38.5937 54.7761 38.8346ZM20.0001 37.6026L27.0228 44.6253L30.5334 34.0919L20.0001 37.6026ZM24.2054 20.1306C23.4761 20.5813 22.5148 20.3559 22.0601 19.6293C21.6054 18.9026 21.8281 17.9426 22.5574 17.4879C25.3934 15.7239 28.6654 14.7919 32.0001 14.7919C35.0228 14.7919 38.0001 15.5613 40.6508 17.0213C41.4014 17.4386 41.6721 18.3853 41.2561 19.1359C40.8401 19.8866 39.8934 20.1586 39.1428 19.7426C36.9588 18.5293 34.5028 17.8999 32.0001 17.8999C29.2414 17.8999 26.5441 18.6693 24.2054 20.1306ZM19.0134 39.6999C19.4254 40.4546 19.1468 41.3999 18.3921 41.8106C17.6361 42.2199 16.6934 41.9399 16.2854 41.1839C14.8628 38.5733 14.1254 35.6426 14.1254 32.6666C14.1254 30.3973 14.5521 28.1506 15.3921 26.0533C15.7094 25.2546 16.6148 24.8653 17.4121 25.1826C18.2108 25.4999 18.6001 26.4053 18.2828 27.2026C17.5828 28.9359 17.2334 30.7933 17.2334 32.6666C17.2334 35.1226 17.8481 37.5399 19.0134 39.6999ZM38.8468 45.7466C39.6068 45.3519 40.5468 45.6479 40.9454 46.4066C41.3441 47.1666 41.0521 48.1066 40.2921 48.5053C37.7361 49.8426 34.8908 50.5413 32.0001 50.5413C29.2174 50.5413 26.4668 49.8973 23.9801 48.6453C23.2121 48.2599 22.9014 47.3226 23.2881 46.5546C23.6734 45.7866 24.6108 45.4773 25.3788 45.8626C27.4308 46.8973 29.7001 47.4333 32.0001 47.4333C34.3854 47.4333 36.7334 46.8586 38.8468 45.7466ZM45.8414 27.5066C45.5414 26.7039 45.9508 25.8093 46.7548 25.5093C47.5588 25.2079 48.4561 25.6199 48.7561 26.4253C49.4948 28.4226 49.8748 30.5373 49.8748 32.6666C49.8748 35.4799 49.2148 38.2626 47.9321 40.7733C47.5468 41.5359 46.6108 41.8386 45.8454 41.4493C45.0801 41.0586 44.7748 40.1213 45.1654 39.3586C46.2228 37.2826 46.7668 34.9906 46.7668 32.6666C46.7668 30.9026 46.4561 29.1613 45.8414 27.5066ZM19.0134 44.4093C19.0134 43.5519 19.7094 42.8559 20.5681 42.8559C21.4254 42.8559 22.1214 43.5519 22.1214 44.4093C22.1214 45.2679 21.4254 45.9639 20.5681 45.9639C19.7094 45.9639 19.0134 45.2679 19.0134 44.4093ZM42.5468 22.0506C42.5468 21.1919 43.2428 20.4959 44.1014 20.4959C44.9588 20.4959 45.6548 21.1919 45.6548 22.0506C45.6548 22.9079 44.9588 23.6053 44.1014 23.6053C43.2428 23.6053 42.5468 22.9079 42.5468 22.0506ZM17.6494 22.0506C17.6494 22.9079 18.3454 23.6053 19.2041 23.6053C20.0614 23.6053 20.7574 22.9079 20.7574 22.0506C20.7574 21.1919 20.0614 20.4959 19.2041 20.4959C18.3454 20.4959 17.6494 21.1919 17.6494 22.0506ZM42.1894 44.4093C42.1894 45.2679 42.8854 45.9639 43.7428 45.9639C44.6014 45.9639 45.2974 45.2679 45.2974 44.4093C45.2974 43.5519 44.6014 42.8559 43.7428 42.8559C42.8854 42.8559 42.1894 43.5519 42.1894 44.4093Z" fill="#9FEF00"/>
</svg>
