<svg width="64" height="64" viewBox="0 0 64 64" fill="none" xmlns="http://www.w3.org/2000/svg">
<g clip-path="url(#clip0_56_3640)">
<path fill-rule="evenodd" clip-rule="evenodd" d="M36.46 35.106C37.308 34.538 38.46 34.7687 39.032 35.6207C39.6027 36.4713 39.372 37.6287 38.5173 38.2033L37.6493 38.774L39.932 41.2567C40.4293 41.798 40.4173 42.666 39.9053 43.194L37.1667 46.0127L39.348 48.3167V55.4233L34.152 60.4113C33.62 60.9207 32.7173 60.9687 32.1347 60.518L25.7187 55.5473V31.8793L22.66 30.346C22.0027 30.0167 21.468 29.1513 21.468 28.4153V18.5433C21.468 17.8073 21.8907 16.7873 22.4107 16.2673L23.7347 14.9433C24.2547 14.4233 25.2747 14.0007 26.0107 14.0007H37.9893C38.7253 14.0007 39.7453 14.4233 40.2653 14.9433L41.5893 16.2673C42.1093 16.7873 42.532 17.8073 42.532 18.5433V28.0433C42.532 28.7793 42.1093 29.7993 41.5893 30.3193L39.868 32.0407C39.1427 32.766 37.9627 32.766 37.2347 32.0407C36.5067 31.3153 36.5093 30.1393 37.2413 29.414L38.8147 27.8287V18.758L37.7733 17.718H26.2267L25.1853 18.758V27.4567L29.4347 29.5753V53.726L32.9293 56.4273L35.6307 53.838V49.7913L32.348 46.3353C31.8413 45.8007 31.82 44.9153 32.3013 44.358L34.1307 42.238L31.8493 39.7553C31.3507 39.214 31.444 38.442 32.0573 38.0353L36.46 35.106ZM25.08 63.094C26.5 63.4767 27.3427 64.9407 26.96 66.3607C26.5773 67.7807 25.1133 68.6233 23.6933 68.2407C16.8933 66.414 10.88 62.3873 6.6 56.8007C2.32 51.214 0 44.374 0 37.334C0 28.854 3.37333 20.7073 9.37333 14.7073C15.3733 8.70732 23.52 5.33398 32 5.33398C40.48 5.33398 48.6267 8.70732 54.6267 14.7073C60.6267 20.7073 64 28.854 64 37.334C64 44.3473 61.6933 51.1607 57.4533 56.734C53.2 62.3073 47.24 66.334 40.48 68.2007C39.06 68.5913 37.5907 67.754 37.2 66.334C36.8093 64.914 37.6467 63.4447 39.0667 63.054C44.6933 61.5073 49.6667 58.1473 53.2133 53.5073C56.7467 48.854 58.6667 43.174 58.6667 37.334C58.6667 30.2673 55.8533 23.4807 50.8533 18.4807C45.8533 13.4807 39.0667 10.6673 32 10.6673C24.9333 10.6673 18.1467 13.4807 13.1467 18.4807C8.14667 23.4807 5.33333 30.2673 5.33333 37.334C5.33333 43.2007 7.26667 48.9073 10.84 53.5607C14.4 58.214 19.4133 61.574 25.08 63.094Z" fill="#9FEF00"/>
</g>
<defs>
<clipPath id="clip0_56_3640">
<rect width="64" height="64" fill="white"/>
</clipPath>
</defs>
</svg>
