<svg width="64" height="65" viewBox="0 0 64 65" fill="none" xmlns="http://www.w3.org/2000/svg">
<g clip-path="url(#clip0_62_4419)">
<path fill-rule="evenodd" clip-rule="evenodd" d="M31.2491 20.3745C32.9584 22.0839 32.9584 24.8545 31.2491 26.5639C30.2104 27.6012 28.7211 28.0479 27.2824 27.7545C27.5758 29.1919 27.1291 30.6825 26.0918 31.7212C24.3824 33.4292 21.6118 33.4292 19.9024 31.7212C18.1944 30.0119 18.1944 27.2412 19.9024 25.5319C20.9424 24.4945 22.4318 24.0479 23.8691 24.3412C23.5758 22.9025 24.0238 21.4132 25.0598 20.3745C26.7691 18.6652 29.5398 18.6652 31.2491 20.3745ZM33.1611 30.5532C33.2144 30.5932 33.2638 30.6412 33.3118 30.6892L40.5318 37.9092L42.5958 35.8465L41.3064 34.5572C40.8784 34.1305 40.8784 33.4372 41.3064 33.0105L41.8211 32.4945C42.2491 32.0679 42.9424 32.0679 43.3691 32.4945L48.0104 37.1359C48.4371 37.5625 48.4371 38.2559 48.0104 38.6839L47.4944 39.1985C47.0678 39.6265 46.3744 39.6265 45.9478 39.1985L44.6584 37.9092L42.5958 39.9732L45.6891 43.0665C46.8278 44.2052 47.0598 45.8239 46.2051 46.6772C45.3518 47.5305 43.7344 47.2999 42.5958 46.1612L38.7278 42.2932L38.2118 41.7772L30.2171 33.7839C30.1691 33.7345 30.1224 33.6852 30.0811 33.6332C25.9878 36.6172 20.8331 36.7772 17.8398 33.7839C14.4224 30.3652 15.1144 24.1319 19.3878 19.8585C23.6598 15.5865 29.8944 14.8932 33.3118 18.3119C36.3064 21.3052 36.1464 26.4599 33.1611 30.5532ZM45.1811 54.5705C46.5131 53.8092 48.2198 54.2705 48.9891 55.5985C49.7584 56.9265 49.3011 58.6305 47.9678 59.3985C42.7851 62.3825 36.8744 63.8519 30.9091 63.6479C25.4998 63.4639 20.2211 61.9052 15.5691 59.1292C14.2518 58.3399 13.8238 56.6279 14.6131 55.3105C15.4038 53.9932 17.1144 53.5652 18.4331 54.3545C22.2664 56.6572 26.6211 57.9332 31.0984 58.0865C36.0358 58.2545 40.9064 57.0425 45.1811 54.5705ZM55.6638 19.8745C54.9731 18.4985 55.5291 16.8239 56.9051 16.1372C58.2811 15.4505 59.9518 16.0092 60.6358 17.3852C63.0198 22.1439 64.1624 27.4319 63.9811 32.7572C63.8424 36.8172 62.9411 40.8092 61.3104 44.5132C60.6944 45.9212 59.0504 46.5639 57.6424 45.9465C56.2344 45.3305 55.5918 43.6865 56.2091 42.2785C57.5664 39.2199 58.3051 35.9185 58.4184 32.5679C58.5691 28.1732 57.6184 23.8119 55.6638 19.8745ZM20.5478 7.84653C19.1651 8.50653 17.5011 7.91986 16.8331 6.53719C16.1664 5.15453 16.7464 3.4892 18.1291 2.82253C22.7851 0.586528 27.9171 -0.490805 33.0904 -0.314805C38.0678 -0.145472 42.9518 1.1772 47.3238 3.56786C48.6744 4.3052 49.1718 5.99986 48.4344 7.35053C47.6971 8.69986 46.0024 9.19719 44.6518 8.45986C41.0438 6.48519 37.0158 5.38786 32.9011 5.24653C28.6318 5.10119 24.3971 5.98786 20.5478 7.84653ZM6.91978 40.0545C7.40911 41.5079 6.62244 43.0852 5.16511 43.5732C3.70778 44.0612 2.12778 43.2705 1.63978 41.8105C0.441109 38.1919 -0.110891 34.3865 0.0184427 30.5759C0.190443 25.5425 1.54111 20.6052 3.98911 16.1919C4.72644 14.8492 6.41711 14.3639 7.76378 15.1092C9.11044 15.8545 9.59844 17.5492 8.85311 18.8919C6.83578 22.5399 5.72244 26.6079 5.57978 30.7652C5.47311 33.9225 5.92244 37.0559 6.91978 40.0545ZM55.9518 11.4479C55.8984 12.9839 54.6104 14.1865 53.0758 14.1345C51.5411 14.0825 50.3371 12.7932 50.3891 11.2585C50.4411 9.72386 51.7304 8.51986 53.2651 8.57319C54.7998 8.62519 56.0038 9.9132 55.9518 11.4479ZM12.4824 50.0172C12.4304 51.5519 11.1424 52.7559 9.60778 52.7039C8.07178 52.6505 6.86911 51.3625 6.92111 49.8279C6.97311 48.2932 8.26244 47.0892 9.79711 47.1412C11.3318 47.1932 12.5358 48.4825 12.4824 50.0172ZM57.0278 51.5359C57.0798 50.0012 55.8758 48.7132 54.3411 48.6599C52.8064 48.6079 51.5184 49.8119 51.4651 51.3465C51.4131 52.8812 52.6171 54.1705 54.1518 54.2225C55.6864 54.2745 56.9758 53.0705 57.0278 51.5359ZM14.4864 10.0345C14.5384 8.49986 13.3358 7.21053 11.8011 7.15853C10.2651 7.10653 8.97711 8.31053 8.92511 9.84519C8.87178 11.3799 10.0758 12.6679 11.6104 12.7212C13.1464 12.7732 14.4344 11.5692 14.4864 10.0345Z" fill="#9FEF00"/>
</g>
<defs>
<clipPath id="clip0_62_4419">
<rect width="64" height="64" fill="white" transform="translate(0 0.666626)"/>
</clipPath>
</defs>
</svg>
