<svg width="64" height="64" viewBox="0 0 64 64" fill="none" xmlns="http://www.w3.org/2000/svg">
<path fill-rule="evenodd" clip-rule="evenodd" d="M20.6663 46.6663H47.9997C49.4717 46.6663 50.6663 45.4717 50.6663 43.9997V41.333C50.6663 39.861 51.861 38.6663 53.333 38.6663C54.805 38.6663 55.9997 39.861 55.9997 41.333V45.333C55.9997 49.013 53.013 51.9997 49.333 51.9997H13.333C11.861 51.9997 10.6663 53.1943 10.6663 54.6663C10.6663 56.1383 11.861 57.333 13.333 57.333H53.333C54.805 57.333 55.9997 58.5277 55.9997 59.9997C55.9997 61.4717 54.805 62.6663 53.333 62.6663H11.9997C8.31967 62.6663 5.33301 59.6797 5.33301 55.9997V54.6663V53.333V51.9997V7.99967C5.33301 4.31967 8.31967 1.33301 11.9997 1.33301H49.333C53.013 1.33301 55.9997 4.31967 55.9997 7.99967V27.9997C55.9997 29.4717 54.805 30.6663 53.333 30.6663C51.861 30.6663 50.6663 29.4717 50.6663 27.9997V10.6663C50.6663 8.45834 48.8743 6.66634 46.6663 6.66634H14.6663C12.4583 6.66634 10.6663 8.45834 10.6663 10.6663V46.7997C11.097 46.7117 11.5437 46.6663 11.9997 46.6663H16.6663V13.333C16.6663 12.229 17.5623 11.333 18.6663 11.333C19.7703 11.333 20.6663 12.229 20.6663 13.333V46.6663ZM33.177 28.5783H38.8823C37.4148 23.8566 36.5886 21.1859 36.4037 20.5663C36.2188 19.9477 36.0868 19.4588 36.0077 19.0997C35.6779 20.377 34.7343 23.5366 33.177 28.5783ZM46.5783 37.6823H41.577L39.9903 32.4717H32.009L30.4223 37.6823H25.421L33.1477 15.6997H38.8223L46.5783 37.6823Z" fill="#9FEF00"/>
</svg>
