<svg width="64" height="64" viewBox="0 0 64 64" fill="none" xmlns="http://www.w3.org/2000/svg">
<path d="M46.6666 22.6667C49.6121 22.6667 51.9999 20.2789 51.9999 17.3333C51.9999 14.3878 49.6121 12 46.6666 12C43.7211 12 41.3333 14.3878 41.3333 17.3333C41.3333 20.2789 43.7211 22.6667 46.6666 22.6667Z" fill="#9FEF00"/>
<path fill-rule="evenodd" clip-rule="evenodd" d="M46.6667 2.76008C46.4454 2.69741 46.2108 2.66675 45.9681 2.66675H9.65075C5.79608 2.66675 2.66675 5.79608 2.66675 9.65075V36.1907C2.66675 37.7321 3.91875 38.9841 5.46008 38.9841C7.00275 38.9841 8.25341 37.7321 8.25341 36.1907V12.4441C8.25341 10.1321 10.1321 8.25341 12.4441 8.25341H45.9681C46.2108 8.25341 46.4454 8.22275 46.6667 8.16008C46.8881 8.22275 47.1227 8.25341 47.3654 8.25341H51.5561C53.8681 8.25341 55.7468 10.1321 55.7468 12.4441V16.6347C55.7468 18.1774 56.9974 19.4281 58.5401 19.4281C60.0814 19.4281 61.3334 18.1774 61.3334 16.6347V9.65075C61.3334 5.79608 58.2041 2.66675 54.3494 2.66675H47.3654C47.1227 2.66675 46.8881 2.69741 46.6667 2.76008ZM16.6347 55.7468C18.1774 55.7468 19.4281 56.9974 19.4281 58.5401C19.4281 60.0814 18.1774 61.3334 16.6347 61.3334H9.65075C5.79608 61.3334 2.66675 58.2041 2.66675 54.3494V47.3654C2.66675 45.8227 3.91875 44.5721 5.46008 44.5721C7.00275 44.5721 8.25341 45.8227 8.25341 47.3654V51.5561C8.25341 53.8681 10.1321 55.7468 12.4441 55.7468H16.6347ZM55.7468 29.2067C55.7468 27.6641 56.9974 26.4134 58.5401 26.4134C60.0814 26.4134 61.3334 27.6641 61.3334 29.2067V54.3494C61.3334 58.2041 58.2041 61.3334 54.3494 61.3334H29.2067C27.6641 61.3334 26.4134 60.0814 26.4134 58.5401C26.4134 56.9974 27.6641 55.7468 29.2067 55.7468H51.5561C53.8681 55.7468 55.7468 53.8681 55.7468 51.5561V29.2067ZM10.6667 12.0001V52.0001H18.6667V42.6667L25.3334 52.0001H34.6667L21.3334 32.0001L34.6667 12.0001H25.3334L18.6667 21.3334V12.0001H10.6667ZM42.6667 25.3334H50.6667V52.0001H42.6667V25.3334Z" fill="#9FEF00"/>
</svg>
