<svg width="64" height="64" viewBox="0 0 64 64" fill="none" xmlns="http://www.w3.org/2000/svg">
<path fill-rule="evenodd" clip-rule="evenodd" d="M56.2318 44.1803C56.2318 42.7723 57.3745 41.6297 58.7825 41.6297C60.1905 41.6297 61.3332 42.7723 61.3332 44.1803V54.9563C61.3332 58.4763 58.4758 61.3337 54.9558 61.3337H9.04384C5.52384 61.3337 2.6665 58.4763 2.6665 54.9563V9.04433C2.6665 5.52433 5.52384 2.66699 9.04384 2.66699H54.9558C58.4758 2.66699 61.3332 5.52433 61.3332 9.04433V27.8297C61.3332 29.2377 60.7625 31.371 60.0598 32.591L50.7052 48.835C49.6518 50.6657 47.2265 51.4617 45.2932 50.6137L15.4585 37.523L11.0452 25.7643L18.4038 12.5763L30.1638 11.1737L50.2252 21.1083C51.4705 21.763 51.9505 23.3057 51.2958 24.5523C50.6412 25.7977 49.0985 26.2777 47.8532 25.623L29.1945 16.4283L21.5932 17.3337L16.6572 26.1843L19.5518 33.9003L46.0278 45.087C46.6758 45.3603 47.4718 45.079 47.8052 44.459L55.6292 29.8723C55.9612 29.2523 56.2318 28.1763 56.2318 27.4723V11.595C56.2318 9.48299 54.5172 7.76833 52.4052 7.76833H11.5945C9.4825 7.76833 7.76784 9.48299 7.76784 11.595V52.4057C7.76784 54.5177 9.4825 56.2323 11.5945 56.2323H52.4052C54.5172 56.2323 56.2318 54.5177 56.2318 52.4057V44.1803ZM39.8012 27.3803L33.2492 24.2163L31.7598 27.299L38.3118 30.463L39.8012 27.3803ZM42.3412 28.607L39.6265 34.231L30.5332 29.8403L29.0692 32.871L38.1625 37.2617L36.9358 39.803L27.8425 35.4123C27.4985 35.2461 27.2038 35.0217 26.9585 34.739C26.7141 34.4563 26.5327 34.1461 26.4145 33.8083C26.2963 33.4697 26.2456 33.1137 26.2625 32.7403C26.2785 32.3661 26.3714 32.0025 26.5412 31.6497L30.7212 22.9963C30.8909 22.6434 31.1172 22.3443 31.3998 22.099C31.6825 21.8537 31.9927 21.6723 32.3305 21.555C32.6692 21.4368 33.0252 21.3857 33.3985 21.4017C33.7727 21.4185 34.1318 21.5097 34.4758 21.675L41.0278 24.839C41.3807 25.0097 41.6794 25.2363 41.9238 25.519C42.1692 25.8017 42.3509 26.1119 42.4692 26.4497C42.5865 26.7874 42.6372 27.1434 42.6212 27.5177C42.6052 27.891 42.5118 28.2541 42.3412 28.607Z" fill="#9FEF00"/>
</svg>
