<svg width="64" height="65" viewBox="0 0 64 65" fill="none" xmlns="http://www.w3.org/2000/svg">
<path fill-rule="evenodd" clip-rule="evenodd" d="M31.2762 10.8639L32.5962 10.4706C35.4162 9.62926 38.3909 11.2359 39.2322 14.0573L40.0175 16.6853L40.9335 16.7733C46.5202 17.3333 51.7069 19.9599 55.4802 24.1199C59.2535 28.2933 61.3335 33.7199 61.3335 39.3333C61.3335 45.3466 58.9469 51.1066 54.6935 55.3599C50.4402 59.6133 44.6802 61.9999 38.6669 61.9999C30.7202 61.9999 23.3335 57.8133 19.2269 50.9999C18.4695 49.7413 18.8775 48.1013 20.1402 47.3399C21.4029 46.5786 23.0429 46.9879 23.8002 48.2533C26.9335 53.4666 32.5869 56.6666 38.6669 56.6666C43.2669 56.6666 47.6802 54.8399 50.9202 51.5866C54.1735 48.3333 56.0002 43.9333 56.0002 39.3333C56.0002 35.0399 54.4002 30.8933 51.5202 27.7066C48.6402 24.5199 44.6802 22.5066 40.4002 22.0799L40.3335 22.0733L27.8255 25.8026L27.5869 25.9999C24.8535 28.2799 22.8802 31.3466 21.9335 34.7866C21.5509 36.1999 20.0869 37.0333 18.6669 36.6466C17.2469 36.2599 16.4042 34.7933 16.7869 33.3733C17.8282 29.6013 19.8082 26.1773 22.5389 23.4079L21.3389 19.3906C20.4975 16.5693 22.1042 13.5973 24.9242 12.7559L27.4389 12.0079L27.3869 11.7866C27.2535 11.1999 27.0669 10.6399 26.8269 10.0933C26.6669 9.71993 26.4669 9.35993 26.2135 9.03993C26.0135 8.75993 25.7735 8.5066 25.4935 8.29326C25.2535 8.09326 24.9735 7.91993 24.6802 7.7866C24.4002 7.6666 24.0935 7.57326 23.7735 7.5066C23.3469 7.4266 22.9202 7.3866 22.4802 7.39993C22.0135 7.39993 21.5602 7.43993 21.0935 7.5066C20.4669 7.61326 19.8269 7.7466 19.2135 7.91993C18.6002 8.09326 18.0002 8.3466 17.4402 8.63993C16.8669 8.95993 16.3335 9.31993 15.8402 9.7466C15.2802 10.2266 14.7869 10.7733 14.3469 11.3599C13.7869 12.1066 13.2935 12.9199 12.8669 13.7599C12.1869 15.1199 11.6535 16.5466 11.2669 18.0266C10.6802 20.2799 10.2535 22.5733 9.98686 24.8933C9.86152 25.9893 8.86952 26.7786 7.77352 26.6533C6.67752 26.5279 5.88819 25.5359 6.01352 24.4399C6.29352 21.9333 6.76019 19.4533 7.40019 17.0133C7.85352 15.2799 8.48019 13.5866 9.29352 11.9733C9.81352 10.9199 10.4402 9.9066 11.1335 8.95993C11.7469 8.1466 12.4535 7.39993 13.2269 6.71993C13.9335 6.1066 14.7069 5.57326 15.5335 5.11993C16.3602 4.67993 17.2269 4.33326 18.1202 4.07993C18.8935 3.85326 19.6802 3.67993 20.4669 3.55993C21.1202 3.45326 21.7869 3.39993 22.4535 3.39993C23.1469 3.3866 23.8402 3.45326 24.5202 3.5866C25.1335 3.69326 25.7202 3.87993 26.2935 4.13326C26.9069 4.39993 27.4935 4.75993 28.0135 5.17326C28.5469 5.61326 29.0269 6.1066 29.4269 6.65326C29.8535 7.2266 30.2135 7.83993 30.4935 8.49326C30.8242 9.26126 31.0895 10.0559 31.2762 10.8639ZM49.8935 34.4533C49.6362 33.7693 49.9829 32.9986 50.6669 32.7333C51.3509 32.4679 52.1215 32.8146 52.3869 33.5066C53.1069 35.3733 53.4669 37.3466 53.4669 39.3466C53.4669 42.4399 52.5869 45.4799 50.9202 48.0933C49.2669 50.7066 46.9069 52.7999 44.1069 54.1199C43.4375 54.4359 42.6402 54.1519 42.3269 53.4866C42.0135 52.8213 42.2975 52.0226 42.9602 51.7066C45.3069 50.5999 47.2802 48.8533 48.6802 46.6666C50.0669 44.4799 50.8002 41.9333 50.8002 39.3466C50.8002 37.6799 50.4935 36.0133 49.8935 34.4533ZM16.1855 41.9999C16.1855 40.5279 17.3802 39.3333 18.8522 39.3333C20.3242 39.3333 21.5189 40.5279 21.5189 41.9999C21.5189 43.4719 20.3242 44.6666 18.8522 44.6666C17.3802 44.6666 16.1855 43.4719 16.1855 41.9999ZM26.4535 17.8666L34.1202 15.5733L34.8802 18.1333L27.2135 20.4266L26.4535 17.8666ZM2.72819 27.6599L3.83619 26.8439C4.32019 26.4879 5.00286 26.5919 5.35886 27.0759L5.39752 27.1293C5.75352 27.6133 5.64952 28.2946 5.16552 28.6506L4.05619 29.4666C3.57219 29.8226 2.89086 29.7186 2.53486 29.2346L2.49619 29.1813C2.14019 28.6973 2.24419 28.0159 2.72819 27.6599ZM12.8789 28.1013L11.6722 27.2133C11.1775 26.8493 10.4789 26.9559 10.1149 27.4506L10.1055 27.4626C9.74152 27.9586 9.84819 28.6559 10.3442 29.0213L11.5509 29.9079C12.0455 30.2733 12.7442 30.1666 13.1082 29.6706L13.1175 29.6599C13.4815 29.1639 13.3749 28.4653 12.8789 28.1013ZM6.66819 30.2026L6.66686 28.6266C6.66686 28.0026 7.16819 27.4959 7.78686 27.4946C8.40686 27.4946 8.90952 28.0013 8.90952 28.6253L8.91086 30.2013C8.91219 30.8253 8.40952 31.3333 7.79086 31.3333C7.17219 31.3333 6.66819 30.8279 6.66819 30.2026Z" fill="#9FEF00"/>
</svg>
