<svg width="64" height="65" viewBox="0 0 64 65" fill="none" xmlns="http://www.w3.org/2000/svg">
<path fill-rule="evenodd" clip-rule="evenodd" d="M20.0001 25.3159V34.6159C20.0001 35.3506 20.5974 35.9493 21.3334 35.9493H26.7694L31.8161 39.7333C32.9934 40.6159 33.9494 40.1386 33.9494 38.6666V20.6666C33.9494 19.1946 33.0307 18.7653 31.9001 19.7066L26.7694 23.9826H21.3334C20.5974 23.9826 20.0001 24.5799 20.0001 25.3159ZM36.7601 25.3866C36.0387 25.2466 35.5694 24.5479 35.7134 23.8266C35.8574 23.1053 36.5587 22.6333 37.2801 22.7733C38.8001 23.0799 40.1601 23.8933 41.1334 25.0933C42.1201 26.2933 42.6534 27.7866 42.6534 29.3333C42.6534 30.6933 42.2401 32.0133 41.4667 33.1199C40.7067 34.2399 39.6134 35.0933 38.3467 35.5733C37.6627 35.8386 36.8947 35.4946 36.6334 34.8066C36.3721 34.1186 36.7161 33.3506 37.4001 33.0933C38.9601 32.4933 39.9867 30.9999 39.9867 29.3333C39.9867 28.3999 39.6667 27.5066 39.0801 26.7866C38.4934 26.0666 37.6667 25.5733 36.7601 25.3866ZM39.2001 21.7866C38.5227 21.5066 38.2001 20.7279 38.4801 20.0466C38.7601 19.3653 39.5427 19.0399 40.2267 19.3199C42.2001 20.1466 43.8934 21.5333 45.0934 23.3066C46.2801 25.0933 46.9201 27.1866 46.9201 29.3333C46.9201 33.3733 44.6534 37.0933 41.0534 38.9466C40.4054 39.2853 39.6054 39.0279 39.2667 38.3733C38.9281 37.7186 39.1854 36.9173 39.8401 36.5866C42.5467 35.1866 44.2534 32.3733 44.2534 29.3333C44.2534 27.7199 43.7734 26.1333 42.8801 24.7999C41.9734 23.4533 40.6934 22.4133 39.2001 21.7866ZM55.9974 41.3333C55.9974 42.8053 57.1934 43.9999 58.6641 43.9999C60.1361 43.9999 61.3307 42.8053 61.3307 41.3333V15.3333C61.3307 10.1826 57.1494 5.99994 51.9974 5.99994H11.9974C6.84673 5.99994 2.66406 10.1826 2.66406 15.3333V44.1333C2.66406 49.2839 6.84673 53.4666 11.9974 53.4666H46.5441L57.6907 59.1466C59.0667 59.6839 60.6174 59.0053 61.1507 57.6333C61.6841 56.2613 61.0067 54.7159 59.6374 54.1866L48.7374 48.7306C48.0787 48.4013 46.9467 48.1333 46.2107 48.1333H11.9974C9.79073 48.1333 7.9974 46.3413 7.9974 44.1333V15.3333C7.9974 13.1253 9.79073 11.3333 11.9974 11.3333H51.9974C54.2054 11.3333 55.9974 13.1253 55.9974 15.3333V41.3333Z" fill="#9FEF00"/>
</svg>
