<svg width="64" height="64" viewBox="0 0 64 64" fill="none" xmlns="http://www.w3.org/2000/svg">
<g clip-path="url(#clip0_54_3552)">
<path fill-rule="evenodd" clip-rule="evenodd" d="M29.3337 25.8857C26.231 25.619 23.2043 24.8897 20.3523 23.7257C20.0323 25.5817 19.8257 27.4537 19.7297 29.3337H29.3337V25.8857ZM34.667 25.887C37.767 25.6203 40.795 24.8937 43.6523 23.7337C43.9697 25.587 44.175 27.4577 44.271 29.3337H34.667V25.887ZM29.3337 39.4483C26.307 39.707 23.3523 40.407 20.5617 41.5203C20.123 39.259 19.8457 36.967 19.7297 34.667H29.3337V39.4483ZM34.667 39.447C37.6937 39.707 40.6483 40.407 43.439 41.5203C43.8777 39.2577 44.155 36.967 44.271 34.667H34.667V39.447ZM29.3337 44.8043C26.7737 45.0683 24.2803 45.711 21.931 46.703C22.4337 48.1937 23.0523 49.6457 23.7737 51.0537C24.3337 52.1337 24.987 53.1737 25.7337 54.147C26.3603 54.9603 27.067 55.707 27.8537 56.3603C28.3123 56.7337 28.8057 57.051 29.3337 57.319V44.8043ZM34.667 44.8043C37.227 45.0697 39.7203 45.715 42.0683 46.7083C41.5657 48.1963 40.9483 49.647 40.227 51.0537C39.667 52.1337 39.0137 53.1737 38.267 54.147C37.6403 54.9603 36.9337 55.707 36.147 56.3603C35.6883 56.7337 35.195 57.051 34.667 57.319V44.8043ZM29.3337 20.5297C26.6323 20.2497 24.0043 19.547 21.5457 18.459C22.1203 16.5617 22.8657 14.719 23.7737 12.947C24.3337 11.867 24.987 10.827 25.7337 9.85366C26.3603 9.04033 27.067 8.29366 27.8537 7.64033C28.3123 7.26699 28.8057 6.94966 29.3337 6.68166V20.5297ZM34.667 20.5297C37.3657 20.251 39.995 19.5537 42.459 18.4723C41.8843 16.5723 41.1377 14.7243 40.227 12.947C39.667 11.867 39.0137 10.827 38.267 9.85366C37.6403 9.04033 36.9337 8.29366 36.147 7.64033C35.6883 7.26699 35.195 6.94966 34.667 6.68166V20.5297ZM57.863 29.3337C57.4217 25.0643 55.9283 20.979 53.5377 17.439L52.8003 18.0937C51.491 19.2577 50.0937 20.3017 48.6177 21.2057C49.155 23.8843 49.4857 26.6043 49.611 29.3337H57.863ZM57.863 34.667C57.387 39.2697 55.6897 43.659 52.967 47.383C51.5377 46.095 50.0003 44.9497 48.3683 43.975C48.3897 43.8857 48.4083 43.7963 48.427 43.707C49.0777 40.735 49.471 37.707 49.611 34.667H57.863ZM6.13766 34.667C6.61366 39.2723 8.31233 43.6617 11.0363 47.387C12.4643 46.099 14.0003 44.9523 15.6337 43.9777C15.611 43.887 15.5923 43.7977 15.5737 43.707C14.923 40.735 14.5297 37.707 14.3897 34.667H6.13766ZM19.8817 54.9937C17.9937 54.0083 16.2243 52.783 14.6177 51.3443C15.4377 50.6043 16.299 49.9217 17.2003 49.3003C17.723 50.727 18.3363 52.1217 19.027 53.4803C19.2923 53.9963 19.575 54.503 19.8817 54.9937ZM46.8003 49.3017C47.7017 49.923 48.5657 50.6043 49.3857 51.3417C47.7777 52.7817 46.0083 54.0083 44.119 54.9937C44.4257 54.503 44.7083 53.9963 44.9737 53.4803C45.6643 52.123 46.2777 50.7283 46.8003 49.3017ZM19.8563 9.04966C17.6897 10.179 15.6963 11.6323 13.935 13.3537C14.8417 14.2323 15.8083 15.039 16.8177 15.7777C17.419 13.975 18.163 12.2203 19.027 10.5203C19.2843 10.019 19.559 9.52699 19.8563 9.04966ZM47.1737 15.755C47.899 15.2523 48.5897 14.6977 49.2537 14.107L50.1137 13.3443C48.323 11.611 46.3097 10.1577 44.1323 9.02966C44.435 9.51366 44.7123 10.0123 44.9737 10.5203C45.8337 12.211 46.575 13.959 47.1737 15.755ZM6.89366 25.227C6.49633 26.6403 5.02299 27.4643 3.60699 27.067C2.19099 26.6697 1.36299 25.1937 1.76033 23.7737L1.90699 23.2403C2.31233 21.8203 3.79099 20.9923 5.20699 21.3937C6.62299 21.795 7.44566 23.267 7.04033 24.6803L6.89366 25.227ZM6.00033 29.3337C3.05633 29.3337 0.666992 30.5283 0.666992 32.0003C0.666992 40.307 3.97366 48.2803 9.84033 54.1603C15.7203 60.027 23.6937 63.3337 32.0003 63.3337C40.307 63.3337 48.2803 60.027 54.1603 54.1603C60.027 48.2803 63.3337 40.307 63.3337 32.0003C63.3337 23.6937 60.027 15.7203 54.1603 9.84033C48.2803 3.97366 40.307 0.666992 32.0003 0.666992C21.2137 0.680326 11.1603 6.24033 5.44033 15.387C4.66033 16.631 5.04033 18.2737 6.28699 19.0537C7.53366 19.8337 9.18033 19.4577 9.96033 18.2137C10.1257 17.9497 10.2963 17.6883 10.4723 17.4323C11.9857 18.863 13.6283 20.1283 15.3817 21.2003C14.8457 23.8843 14.515 26.6003 14.3897 29.3337H6.00033Z" fill="#9FEF00"/>
</g>
<defs>
<clipPath id="clip0_54_3552">
<rect width="64" height="64" fill="white"/>
</clipPath>
</defs>
</svg>
