<svg width="64" height="64" viewBox="0 0 64 64" fill="none" xmlns="http://www.w3.org/2000/svg">
<path fill-rule="evenodd" clip-rule="evenodd" d="M24.8937 28.5457L26.383 29.5963L53.6963 48.9123C54.283 49.3283 54.7603 50.2483 54.7603 50.967V54.8217C54.7603 55.5403 54.1763 56.1243 53.4577 56.1243H9.17899C8.46033 56.1243 7.87633 55.5403 7.87633 54.8217V51.0577C7.87633 50.339 8.36966 49.4457 8.97899 49.0617L23.231 40.0923C24.4457 39.331 24.8137 37.723 24.051 36.5043C23.2897 35.287 21.679 34.9217 20.4563 35.691L5.97499 44.787C4.14966 45.9337 2.66699 48.615 2.66699 50.7723V57.427C2.66699 59.583 4.41766 61.3337 6.57366 61.3337H56.063C58.219 61.3337 59.9697 59.583 59.9697 57.427V50.863C59.9697 48.707 58.539 45.9457 56.779 44.7017L35.3203 29.5403C37.455 28.891 39.4203 27.727 41.027 26.1203C43.6003 23.547 45.0537 20.0403 45.0537 16.4003C45.0537 12.7603 43.6003 9.26699 41.027 6.69366C38.4537 4.12033 34.9603 2.66699 31.3203 2.66699C27.6803 2.66699 24.1737 4.12033 21.6003 6.69366C19.027 9.26699 17.587 12.7603 17.587 16.4003C17.587 20.0403 19.027 23.547 21.6003 26.1203C22.5777 27.0977 23.691 27.9123 24.8937 28.5457ZM22.9203 16.4003C22.9203 14.1737 23.8003 12.0403 25.3737 10.467C26.947 8.88033 29.0937 8.00033 31.3203 8.00033C33.547 8.00033 35.6803 8.88033 37.2537 10.467C38.8403 12.0403 39.7203 14.1737 39.7203 16.4003C39.7203 18.627 38.8403 20.7737 37.2537 22.347C35.6803 23.9203 33.547 24.8003 31.3203 24.8003C29.0937 24.8003 26.947 23.9203 25.3737 22.347C23.8003 20.7737 22.9203 18.627 22.9203 16.4003Z" fill="#9FEF00"/>
</svg>
