<svg width="64" height="65" viewBox="0 0 64 65" fill="none" xmlns="http://www.w3.org/2000/svg">
<path fill-rule="evenodd" clip-rule="evenodd" d="M25.6294 33.3239L41.1534 37.2039C41.9067 37.3933 42.5187 36.9146 42.5187 36.1386V30.5079H45.3334V24.8786H42.5187V19.2493C42.5187 18.4719 41.9067 17.9946 41.1534 18.1826L21.3654 23.1306C20.6121 23.3186 20.0001 24.1026 20.0001 24.8786V30.5079C20.0001 31.2853 20.6121 32.0693 21.3654 32.2573L22.9801 32.6613C22.8747 32.8586 22.8147 33.0839 22.8147 33.3239V38.9533C22.8147 39.7293 23.4454 40.3599 24.2227 40.3599C24.9987 40.3599 25.6294 39.7293 25.6294 38.9533V33.3239ZM8.00007 41.3333C8.00007 42.8053 6.80541 43.9999 5.33341 43.9999C3.86141 43.9999 2.66674 42.8053 2.66674 41.3333V15.3333C2.66674 10.1826 6.84941 5.99994 12.0001 5.99994H52.0001C57.1507 5.99994 61.3334 10.1826 61.3334 15.3333V44.1333C61.3334 49.2839 57.1507 53.4666 52.0001 53.4666H17.4534L6.30674 59.1466C4.93074 59.6839 3.38007 59.0053 2.84674 57.6333C2.31341 56.2613 2.99074 54.7159 4.36007 54.1866L15.2614 48.7306C15.9187 48.4013 17.0507 48.1333 17.7867 48.1333H52.0001C54.2081 48.1333 56.0001 46.3413 56.0001 44.1333V15.3333C56.0001 13.1253 54.2081 11.3333 52.0001 11.3333H12.0001C9.79207 11.3333 8.00007 13.1253 8.00007 15.3333V41.3333Z" fill="#9FEF00" stroke="#9FEF00" stroke-width="1.33333" stroke-miterlimit="3" stroke-linecap="square"/>
</svg>
