<svg width="48" height="48" viewBox="0 0 48 48" fill="none" xmlns="http://www.w3.org/2000/svg">
<path fill-rule="evenodd" clip-rule="evenodd" d="M8 24C8 22.896 8.896 22 10 22C11.104 22 12 22.896 12 24C12 25.104 11.104 26 10 26C8.896 26 8 25.104 8 24ZM8 33C8 31.896 8.896 31 10 31C11.104 31 12 31.896 12 33C12 34.104 11.104 35 10 35C8.896 35 8 34.104 8 33ZM13.235 11.173C13.562 10.851 14.089 10.853 14.413 11.177C14.737 11.501 14.739 12.028 14.417 12.355L9.767 16.999C8.792 17.973 8 17.645 8 16.267V14.261C8 13.801 8.373 13.428 8.832 13.428C9.292 13.428 9.665 13.801 9.665 14.261V14.752L13.235 11.173ZM41.17 42.174C42.18 42.174 43 43.031 43 44.087C43 45.143 42.18 46 41.17 46H8.548C4.934 46 2 43.066 2 39.452V12.522C2 11.466 2.82 10.609 3.83 10.609C4.84 10.609 5.66 11.466 5.66 12.522V39.367C5.66 40.916 6.917 42.174 8.466 42.174H41.17ZM6.83 5.826C5.82 5.826 5 4.969 5 3.913C5 2.857 5.82 2 6.83 2H39.452C43.066 2 46 4.934 46 8.548V35.478C46 36.534 45.18 37.391 44.17 37.391C43.16 37.391 42.34 36.534 42.34 35.478V10.504C42.34 7.922 40.244 5.826 37.663 5.826H6.83ZM19.877 12.369H37.123C38.159 12.369 39 13.21 39 14.246C39 15.282 38.159 16.123 37.123 16.123H19.877C18.841 16.123 18 15.282 18 14.246C18 13.21 18.841 12.369 19.877 12.369ZM19.877 22.246H37.123C38.159 22.246 39 23.087 39 24.123C39 25.159 38.159 26 37.123 26H19.877C18.841 26 18 25.159 18 24.123C18 23.087 18.841 22.246 19.877 22.246ZM19.877 31.246H37.123C38.159 31.246 39 32.087 39 33.123C39 34.159 38.159 35 37.123 35H19.877C18.841 35 18 34.159 18 33.123C18 32.087 18.841 31.246 19.877 31.246Z" fill="#9FEF00"/>
</svg>
