<svg width="64" height="64" viewBox="0 0 64 64" fill="none" xmlns="http://www.w3.org/2000/svg">
<path fill-rule="evenodd" clip-rule="evenodd" d="M32.247 58.3357C33.0603 58.3343 33.723 58.9903 33.7243 59.8023C33.727 60.613 33.0723 61.273 32.2643 61.2757L19.475 61.333C18.6617 61.3343 17.999 60.6783 17.9963 59.8677C17.995 59.0557 18.6497 58.3957 19.4577 58.393L32.247 58.3357ZM12.0003 56.6663C13.1043 56.6663 14.0003 57.5623 14.0003 58.6663C14.0003 59.7703 13.1043 60.6663 12.0003 60.6663H8.66699C6.45899 60.6663 4.66699 58.8743 4.66699 56.6663V7.33301C4.66699 5.12501 6.45899 3.33301 8.66699 3.33301H49.3337H57.3337C58.4377 3.33301 59.3337 4.22901 59.3337 5.33301C59.3337 6.43701 58.4377 7.33301 57.3337 7.33301H10.0003C9.26433 7.33301 8.66699 7.93034 8.66699 8.66634V55.333C8.66699 56.069 9.26433 56.6663 10.0003 56.6663H12.0003ZM55.3337 14.6663C55.3337 13.5623 56.2297 12.6663 57.3337 12.6663C58.4377 12.6663 59.3337 13.5623 59.3337 14.6663V56.6663C59.3337 58.8743 57.5417 60.6663 55.3337 60.6663H40.0003C38.8963 60.6663 38.0003 59.7703 38.0003 58.6663C38.0003 57.5623 38.8963 56.6663 40.0003 56.6663H54.0003C54.7363 56.6663 55.3337 56.069 55.3337 55.333V14.6663ZM27.7083 23.9997C24.9323 23.9997 22.667 26.233 22.667 28.9997C22.667 30.4397 23.275 31.753 24.251 32.6663L31.875 39.9997L39.7497 32.6663C40.7257 31.753 41.3337 30.4397 41.3337 28.9997C41.3337 26.233 39.0683 23.9997 36.2923 23.9997C34.463 23.9997 32.879 24.961 32.0003 26.4157C31.1203 24.961 29.5363 23.9997 27.7057 23.9997H27.7083ZM15.495 18.6663C14.3043 18.6663 13.3337 19.597 13.3337 20.749C13.3337 21.349 13.5937 21.8957 14.0123 22.277L17.2803 25.333L20.655 22.277C21.0737 21.897 21.3337 21.349 21.3337 20.749C21.3337 19.597 20.363 18.6663 19.1723 18.6663C18.3897 18.6663 17.711 19.0663 17.3337 19.673C16.9563 19.0663 16.2777 18.6663 15.495 18.6663ZM16.431 14.3917H18.6217L17.5283 11.209L16.431 14.3917ZM48.5057 45.333C49.6963 45.333 50.667 44.4023 50.667 43.2503C50.667 42.6503 50.407 42.1023 49.9883 41.7223L46.7203 38.6663L43.3457 41.7223C42.927 42.1023 42.667 42.6503 42.667 43.2503C42.667 44.4023 43.6377 45.333 44.8283 45.333C45.611 45.333 46.2897 44.933 46.667 44.3263C47.0443 44.933 47.723 45.333 48.5057 45.333ZM19.1417 15.8757H15.9163L15.407 17.333H13.3337L16.2963 9.33301H18.755L21.7177 17.333H19.6443L19.1403 15.8757H19.1417ZM47.571 49.6077H45.379L46.4723 52.7903L47.5697 49.6077H47.571ZM44.859 48.1237H48.0843L48.5937 46.6663H50.667L47.7043 54.6663H45.2443L42.2817 46.6663H44.355L44.859 48.1237Z" fill="#9FEF00"/>
</svg>
