<svg width="64" height="64" viewBox="0 0 64 64" fill="none" xmlns="http://www.w3.org/2000/svg">
<path fill-rule="evenodd" clip-rule="evenodd" d="M47.5617 55.2426H53.0177C55.3004 55.2426 57.1524 53.3906 57.1524 51.1079V30.9453C57.1524 28.6626 55.3004 26.8106 53.0177 26.8106H10.9831C8.70041 26.8106 6.84841 28.6626 6.84841 30.9453V35.2893C6.84841 35.3426 6.84708 35.3959 6.83775 35.4466C6.84708 35.4973 6.84841 35.5506 6.84841 35.6039V51.1079C6.84841 53.3906 8.70041 55.2426 10.9831 55.2426H17.8164C16.0857 52.4746 15.1484 49.2533 15.1484 45.9413C15.1484 41.2839 16.9911 36.8186 20.2804 33.5279C23.5711 30.2506 28.0364 28.3959 32.6937 28.3959C37.3391 28.3959 41.8044 30.2506 45.0937 33.5279C48.3831 36.8186 50.2377 41.2839 50.2377 45.9413C50.2377 49.2533 49.2951 52.4746 47.5617 55.2426ZM43.0871 60.0666H44.4044H55.0857C58.8884 60.0666 61.9764 56.9786 61.9764 53.1759V34.1319V28.8773C61.9764 25.0746 58.8884 21.9866 55.0857 21.9866H43.5831L40.3377 2.9026C40.0858 1.42393 38.6818 0.426598 37.2031 0.678598L22.8337 3.1226C21.8471 3.28926 21.1831 4.2266 21.3511 5.21193C21.5191 6.19726 22.4551 6.8626 23.4404 6.6946L35.1311 4.7066C36.1164 4.5386 37.0537 5.2026 37.2204 6.18927L37.7657 9.38927C37.6151 9.47326 37.4777 9.5866 37.3631 9.72927L29.3337 17.0839C28.9644 17.4226 28.3351 17.4613 27.9271 17.1719L22.4604 13.2946C21.2364 12.4266 19.4591 12.6546 18.4937 13.8013L11.6031 21.9866H11.4017L9.53375 10.8973C9.36708 9.9106 10.0324 8.9746 11.0177 8.8066L15.9751 7.96393C16.9604 7.79593 17.6244 6.85993 17.4577 5.8746C17.2897 4.88793 16.3524 4.22393 15.3671 4.39193L7.73108 5.6906C6.25241 5.94127 5.26041 7.34526 5.51775 8.82393L7.82175 22.0733C4.53775 22.5973 2.02441 25.4466 2.02441 28.8773V35.2893C2.02441 35.3426 2.02575 35.3959 2.03508 35.4466C2.02575 35.4973 2.02441 35.5506 2.02441 35.6039V53.1759C2.02441 56.9786 5.11241 60.0666 8.91508 60.0666H19.5964H22.2884C25.2831 62.2719 28.9257 63.4853 32.6937 63.4853C36.4524 63.4853 40.0924 62.2719 43.0871 60.0666ZM39.3244 21.9866C39.6231 21.6346 39.7657 21.1546 39.6777 20.6386L38.3057 12.5719L31.1377 19.5053C30.0591 20.5479 28.1911 20.6893 26.9671 19.8213L21.6257 16.0333C21.2191 15.7439 20.6204 15.8146 20.2924 16.1919L15.2377 21.9866H39.3244ZM29.1418 10.0119C28.9324 8.77993 29.7617 7.60927 30.9951 7.39993C32.2271 7.1906 33.3977 8.02127 33.6071 9.25327C33.8164 10.4853 32.9858 11.6559 31.7537 11.8653C30.5217 12.0746 29.3511 11.2439 29.1418 10.0119ZM35.1017 54.2093C36.0137 53.9426 36.9711 54.4679 37.2377 55.3813C37.5044 56.2933 36.9724 57.2506 36.0524 57.5173C34.9631 57.8346 33.8337 57.9999 32.6897 57.9999C29.4924 57.9999 26.4191 56.7319 24.1591 54.4706C21.8977 52.2106 20.6297 49.1373 20.6297 45.9399C20.6297 42.7426 21.8977 39.6693 24.1591 37.4093C26.4191 35.1493 29.4924 33.8813 32.6897 33.8813C35.8871 33.8813 38.9604 35.1493 41.2204 37.4093C43.4804 39.6693 44.7484 42.7426 44.7484 45.9399C44.7484 48.1999 44.1151 50.4186 42.9164 52.3346C42.4137 53.1413 41.3511 53.3853 40.5457 52.8799C39.7391 52.3733 39.4924 51.3079 39.9938 50.5026C40.8484 49.1373 41.3031 47.5533 41.3031 45.9399C41.3031 43.6519 40.3937 41.4613 38.7817 39.8479C37.1684 38.2359 34.9777 37.3266 32.6897 37.3266C30.4017 37.3266 28.2097 38.2359 26.5977 39.8479C24.9857 41.4613 24.0764 43.6519 24.0764 45.9399C24.0764 48.2279 24.9857 50.4186 26.5977 52.0319C28.2097 53.6439 30.4017 54.5533 32.6897 54.5533C33.5031 54.5533 34.3164 54.4439 35.1017 54.2093ZM12.7057 29.1919C13.8097 29.1919 14.7057 30.0879 14.7057 31.1919C14.7057 32.2959 13.8097 33.1919 12.7057 33.1919C11.6017 33.1919 10.7057 32.2959 10.7057 31.1919C10.7057 30.0879 11.6017 29.1919 12.7057 29.1919ZM18.5404 45.9413C18.5404 42.1879 20.0324 38.5813 22.6777 35.9359C25.3337 33.2799 28.9404 31.7879 32.6937 31.7879C36.4458 31.7879 40.0404 33.2799 42.6977 35.9359C45.3537 38.5813 46.8457 42.1879 46.8457 45.9413C46.8457 49.6933 45.3537 53.2999 42.6977 55.9453C40.0404 58.6013 36.4458 60.0933 32.6937 60.0933C28.9404 60.0933 25.3337 58.6013 22.6777 55.9453C20.0324 53.2999 18.5404 49.6933 18.5404 45.9413Z" fill="#9FEF00"/>
</svg>
