<svg width="64" height="64" viewBox="0 0 64 64" fill="none" xmlns="http://www.w3.org/2000/svg">
<path fill-rule="evenodd" clip-rule="evenodd" d="M25.1067 22.6667C25.3627 22.6733 25.608 22.768 25.7987 22.9347L42.304 36.06C42.9893 36.6587 42.648 37.768 41.74 37.896L35.34 38.8L38.3387 43.9947C39.0093 45.156 38.612 46.632 37.4507 47.3013L36.808 47.6747C35.6467 48.344 34.172 47.948 33.5013 46.7867L30.3867 41.3907L25.8227 45.0907C25.12 45.6627 24.056 45.1733 24.0547 44.2787L24 23.7267C23.9987 23.1307 24.4987 22.652 25.1067 22.6667ZM34 15.9533H57.8133V32C57.8133 33.1547 58.752 34.0933 59.9067 34.0933C61.0627 34.0933 62 33.1547 62 32V6.18667C62 3.876 60.124 2 57.8133 2H6.18667C3.876 2 2 3.876 2 6.18667V13.86C2 15.016 3.876 15.9533 6.18667 15.9533V13.86V7.58133C6.18667 6.81067 6.81067 6.18667 7.58133 6.18667H56.4187C57.1893 6.18667 57.8133 6.81067 57.8133 7.58133V11.768H8.27867H6.18667V15.9533H8.27867H30V15.96V22.4133C30 23.5173 30.896 24.4133 32 24.4133C33.104 24.4133 34 23.5173 34 22.4133V15.96V15.9533ZM34 57.8133H56.4187C57.1893 57.8133 57.8133 57.1893 57.8133 56.4187V44.5587C57.8133 43.4027 58.752 42.4653 59.9067 42.4653C61.0627 42.4653 62 43.4027 62 44.5587V57.8133C62 60.124 60.124 62 57.8133 62H6.18667C3.876 62 2 60.124 2 57.8133V25.0853C2 23.9307 2.93733 22.992 4.09333 22.992C5.248 22.992 6.18667 23.9307 6.18667 25.0853V56.4187C6.18667 57.1893 6.81067 57.8133 7.58133 57.8133H30V51.96C30 50.856 30.896 49.96 32 49.96C33.104 49.96 34 50.856 34 51.96V57.8133Z" fill="#9FEF00"/>
</svg>
