<svg width="64" height="64" viewBox="0 0 64 64" fill="none" xmlns="http://www.w3.org/2000/svg">
<path fill-rule="evenodd" clip-rule="evenodd" d="M11.34 37.1657C11.34 31.683 13.5174 26.4363 17.3867 22.5523C21.2707 18.6817 26.5187 16.5057 32 16.5057C37.4814 16.5057 42.7294 18.6817 46.6134 22.5523C50.4827 26.4363 52.66 31.683 52.66 37.1657C52.66 42.647 50.4827 47.8937 46.6134 51.7777C42.7294 55.6483 37.4814 57.8243 32 57.8243C26.5187 57.8243 21.2707 55.6483 17.3867 51.7777C13.5174 47.8937 11.34 42.647 11.34 37.1657ZM51.2507 19.4457C55.544 24.1083 58.168 30.3323 58.168 37.1657C58.168 51.6083 46.4427 63.3337 32 63.3337C17.5574 63.3337 5.83203 51.6083 5.83203 37.1657C5.83203 23.6523 16.096 12.519 29.2454 11.1403V10.3083V6.17633H26.4907C24.9707 6.17633 23.736 4.94166 23.736 3.42166C23.736 1.90166 24.9707 0.666992 26.4907 0.666992H37.5094C39.0294 0.666992 40.264 1.90166 40.264 3.42166C40.264 4.94166 39.0294 6.17633 37.5094 6.17633H34.7547V10.3083V11.1403C39.3134 11.6177 43.524 13.2683 47.0814 15.783L48.996 12.911C49.84 11.6497 51.5494 11.3097 52.8107 12.1537C54.0734 12.9977 54.412 14.707 53.568 15.9683L51.2507 19.4457ZM42.1067 44.191C42.7894 44.7883 42.8574 45.8283 42.26 46.511C41.6614 47.1937 40.6214 47.263 39.9387 46.6643L30.6227 38.5097V25.723C30.6227 24.8163 31.3587 24.0803 32.2654 24.0803C33.1707 24.0803 33.9067 24.8163 33.9067 25.723V37.0203L42.1067 44.191Z" fill="#9FEF00"/>
</svg>
