<svg width="64" height="64" viewBox="0 0 64 64" fill="none" xmlns="http://www.w3.org/2000/svg">
<path fill-rule="evenodd" clip-rule="evenodd" d="M34.6665 20C34.6665 18.528 35.8612 17.3333 37.3332 17.3333C38.8052 17.3333 39.9998 18.528 39.9998 20V31.0133L48.6385 25.2573C51.7012 23.216 55.4878 24.2493 57.0892 27.5613L58.0038 29.452C59.6052 32.764 58.4412 37.14 55.4038 39.2173L36.4012 52.216C33.9718 53.8773 30.0278 53.8773 27.5985 52.216L8.59584 39.2173C5.5585 37.14 4.3945 32.764 5.99584 29.452L6.9105 27.5613C8.51184 24.2493 12.2985 23.216 15.3612 25.2573L23.9998 31.0133V3.99998C23.9998 2.52798 25.1945 1.33331 26.6665 1.33331C28.1385 1.33331 29.3332 2.52798 29.3332 3.99998V38.32C29.3332 39.792 28.3385 40.324 27.1145 39.5066L13.7385 30.5866C12.5145 29.7693 11.2332 30.176 10.8798 31.4933C10.5265 32.8106 11.2265 34.5546 12.4398 35.3866L29.7998 47.2666C31.0132 48.0986 32.9865 48.0986 34.1998 47.2666L51.5598 35.3866C52.7732 34.5546 53.4732 32.8106 53.1198 31.4933C52.7665 30.176 51.4852 29.7693 50.2612 30.5866L36.8852 39.5066C35.6612 40.324 34.6665 39.792 34.6665 38.32V20ZM58.6665 56C60.1385 56 61.3332 57.1946 61.3332 58.6666C61.3332 60.1386 60.1385 61.3333 58.6665 61.3333H5.33317C3.86117 61.3333 2.6665 60.1386 2.6665 58.6666C2.6665 57.1946 3.86117 56 5.33317 56H58.6665ZM34.6665 7.99998C34.6665 6.52798 35.8612 5.33331 37.3332 5.33331C38.8052 5.33331 39.9998 6.52798 39.9998 7.99998C39.9998 9.47198 38.8052 10.6666 37.3332 10.6666C35.8612 10.6666 34.6665 9.47198 34.6665 7.99998Z" fill="#9FEF00"/>
</svg>
