<svg width="64" height="64" viewBox="0 0 64 64" fill="none" xmlns="http://www.w3.org/2000/svg">
<g clip-path="url(#clip0_62_4382)">
<path d="M44.0092 12.776C42.6225 12.776 41.2892 13.1427 40.0132 13.876C38.7639 14.5813 37.5839 15.6107 36.4745 16.964C35.3919 18.2907 34.4065 19.9267 33.5185 21.872C32.6305 23.7893 31.8679 25.96 31.2292 28.3853C30.7852 30.1067 30.3412 31.5587 29.8972 32.744C29.4532 33.928 28.9959 34.9147 28.5239 35.704C27.4972 35.3093 26.4825 34.6133 25.4839 34.36C24.5119 34.0773 23.5145 33.9373 22.4879 33.9373C21.6825 33.9373 20.9465 34.064 20.2812 34.3187C19.6425 34.572 19.0879 34.8813 18.6159 35.248C18.1452 35.6147 17.7705 36.0093 17.4919 36.4333C17.2425 36.856 17.1172 37.6213 17.1172 37.988C17.1172 38.58 17.3959 39.076 17.9505 39.4707C18.5052 39.8653 19.3372 40.0613 20.4479 40.0613C23.3892 40.0613 25.8732 39.2853 27.8985 37.7333C29.1759 38.2973 30.4812 38.8347 31.8132 39.3427C33.1732 39.8213 34.6719 40.0613 36.3092 40.0613C38.1692 40.0613 39.6532 39.6667 40.7639 38.8773C41.8745 38.06 42.5132 37.0133 43.1785 35.4907C43.2065 35.32 43.1665 35.2067 43.0559 35.152C42.9719 35.0667 42.8732 35.0667 42.7625 35.152C42.2905 36.1107 41.9439 36.72 41.2212 37.228C40.4999 37.7347 39.4452 37.988 38.0585 37.988C36.3932 37.988 34.8652 37.8053 33.4772 37.4387C32.1172 37.044 30.8145 36.6067 29.5652 36.128C31.2865 34.0693 32.6319 31.1493 33.6039 27.3707C34.1865 25.0013 34.7532 23.028 35.3092 21.448C35.8639 19.8693 36.4612 18.6147 37.0985 17.684C37.7372 16.7253 38.4332 16.1853 39.1825 15.8187C39.9599 15.424 40.8745 15.228 41.9292 15.228C42.7065 15.228 43.3425 15.3693 43.8425 15.652C44.3705 15.9053 44.7599 16.244 45.0105 16.6667C45.2599 17.0893 45.3972 17.4307 45.4239 17.9387C45.4519 18.4467 45.3852 19.448 45.2185 19.956C45.1905 20.0987 45.2305 20.196 45.3425 20.252C45.4812 20.3093 45.6065 20.2947 45.7172 20.2107C45.9945 19.7307 46.2572 18.628 46.5079 17.8947C46.7572 17.1333 46.8825 16.4693 46.8825 15.9053C46.8825 15.032 46.6185 14.2987 46.0905 13.7067C45.5639 13.0853 44.8705 12.776 44.0092 12.776ZM20.6559 35.3333C21.8492 35.3333 22.9732 35.5013 24.0279 35.84C25.0825 36.1773 26.1239 36.9453 27.1505 37.3973C26.5119 38.0173 25.7892 38.44 24.9852 38.6667C24.2079 38.8627 23.3199 38.9613 22.3199 38.9613C21.1825 38.9613 20.2945 38.7787 19.6559 38.412C19.0452 38.0453 18.7399 37.208 18.7399 36.644C18.7399 35.7693 19.3799 35.3333 20.6559 35.3333ZM24.5585 43.7827C23.1879 43.7827 22.0785 44.8933 22.0785 46.2627C22.0785 47.6333 23.1879 48.7427 24.5585 48.7427C25.9279 48.7427 27.0385 47.6333 27.0385 46.2627C27.0385 44.8933 25.9279 43.7827 24.5585 43.7827ZM39.4412 43.7827C38.0719 43.7827 36.9612 44.8933 36.9612 46.2627C36.9612 47.6333 38.0719 48.7427 39.4412 48.7427C40.8119 48.7427 41.9212 47.6333 41.9212 46.2627C41.9212 44.8933 40.8119 43.7827 39.4412 43.7827ZM31.9999 46.2627C30.6305 46.2627 29.5199 47.3733 29.5199 48.7427C29.5199 50.1133 30.6305 51.224 31.9999 51.224C33.3692 51.224 34.4799 50.1133 34.4799 48.7427C34.4799 47.3733 33.3692 46.2627 31.9999 46.2627Z" fill="#9FEF00" stroke="#9FEF00" stroke-width="2.26667"/>
<path fill-rule="evenodd" clip-rule="evenodd" d="M11.4532 16.0667C10.5558 17.2294 8.8825 17.4414 7.71984 16.54C6.55717 15.6387 6.3425 13.9627 7.23984 12.8C13.1732 5.16002 22.3198 0.666687 31.9998 0.666687C40.3065 0.666687 48.2798 3.97335 54.1598 9.84002C60.0265 15.72 63.3332 23.6934 63.3332 32C63.3332 35.3067 62.8132 38.6 61.7865 41.7467C61.3305 43.1454 59.8252 43.9094 58.4265 43.4534C57.0278 42.9974 56.2638 41.492 56.7198 40.0934C57.5732 37.48 57.9998 34.7467 57.9998 32C57.9998 25.1067 55.2532 18.4934 50.3865 13.6134C45.5065 8.74669 38.8932 6.00002 31.9998 6.00002C23.9732 6.00002 16.3865 9.72002 11.4532 16.0667ZM49.4132 51.3067C50.5025 50.32 52.1865 50.4067 53.1732 51.5C54.1598 52.5934 54.0758 54.28 52.9865 55.2667C47.2265 60.4534 39.7465 63.3334 31.9998 63.3334C23.6932 63.3334 15.7198 60.0267 9.83984 54.16C3.97317 48.28 0.666504 40.3067 0.666504 32C0.666504 31.1067 0.706504 30.2267 0.773171 29.3334C0.898504 27.8694 2.19184 26.7814 3.65984 26.9067C5.12784 27.032 6.2185 28.3227 6.09317 29.7867C6.0265 30.52 5.99984 31.2667 5.99984 32C5.99984 38.8934 8.7465 45.5067 13.6132 50.3867C18.4932 55.2534 25.1065 58 31.9998 58C38.4265 58 44.6398 55.6134 49.4132 51.3067Z" fill="#9FEF00"/>
</g>
<defs>
<clipPath id="clip0_62_4382">
<rect width="64" height="64" fill="white"/>
</clipPath>
</defs>
</svg>
