<svg width="64" height="64" viewBox="0 0 64 64" fill="none" xmlns="http://www.w3.org/2000/svg">
<path fill-rule="evenodd" clip-rule="evenodd" d="M21.7172 39.736C20.3092 37.648 19.4879 35.1347 19.4879 32.4294C19.4879 25.2027 25.3546 19.3347 32.5812 19.3347C35.0026 19.3347 37.2692 19.9934 39.2159 21.14L53.4879 5.19336L61.9999 12.9774L63.5999 14.4467L60.6612 17.6627L59.0466 16.1934L53.7946 11.392L42.5599 23.9534C44.5026 26.2387 45.6759 29.1974 45.6759 32.4294C45.6759 39.656 39.8092 45.5227 32.5812 45.5227C29.6412 45.5227 26.9252 44.5507 24.7372 42.912L10.5119 58.8067L2.01457 51.0227L0.399902 49.5534L3.35324 46.3374L4.95324 47.8067L10.2052 52.608L21.7172 39.736ZM23.8532 32.4294C23.8532 30.116 24.7692 27.8894 26.4132 26.26C28.0426 24.616 30.2692 23.7 32.5812 23.7C34.8946 23.7 37.1212 24.616 38.7506 26.26C40.3946 27.8894 41.3106 30.116 41.3106 32.4294C41.3106 34.7427 40.3946 36.968 38.7506 38.5974C37.1212 40.2414 34.8946 41.1587 32.5812 41.1587C30.2692 41.1587 28.0426 40.2414 26.4132 38.5974C24.7692 36.968 23.8532 34.7427 23.8532 32.4294Z" fill="#9FEF00"/>
</svg>
