<svg width="64" height="64" viewBox="0 0 64 64" fill="none" xmlns="http://www.w3.org/2000/svg">
<g clip-path="url(#clip0_62_4378)">
<path fill-rule="evenodd" clip-rule="evenodd" d="M44.8035 9.26872C43.4115 8.53672 42.8742 6.81139 43.6062 5.41806C44.3382 4.02606 46.0635 3.48872 47.4568 4.22072C53.3888 7.34339 58.1795 12.2914 61.1035 18.3234C61.7955 19.7407 61.2075 21.4501 59.7915 22.1381C58.3742 22.8274 56.6622 22.2367 55.9702 20.8194C53.5742 15.8714 49.6662 11.8354 44.8035 9.26872ZM32.6702 5.99939C34.1408 5.99139 35.3302 4.79139 35.3235 3.31939C35.3155 1.84739 34.1142 0.658056 32.6435 0.666056C24.9635 0.706056 17.5635 3.57272 11.8568 8.70606C6.15017 13.8527 2.52351 20.9061 1.68351 28.5461C1.52084 30.0101 2.57817 31.3314 4.04351 31.4927C5.50751 31.6541 6.82751 30.5967 6.99017 29.1327C7.68351 22.7994 10.6968 16.9327 15.4302 12.6794C20.1635 8.41272 26.2968 6.03939 32.6702 5.99939ZM8.56351 41.3327C8.03284 39.9567 6.48617 39.2701 5.11017 39.7994C3.73284 40.3287 3.04617 41.8767 3.57684 43.2527C6.12351 49.8261 10.8035 55.3594 16.8702 58.9594C18.1355 59.7101 19.7728 59.2914 20.5235 58.0261C21.2742 56.7607 20.8555 55.1234 19.5902 54.3727C14.5502 51.3861 10.6702 46.7994 8.56351 41.3327ZM31.9902 57.9861C30.5182 57.9634 29.3048 59.1407 29.2835 60.6127C29.2608 62.0847 30.4382 63.2967 31.9102 63.3194L32.7902 63.3327C32.8035 63.3327 32.8168 63.3327 32.8302 63.3327C40.7102 63.3327 48.3102 60.3594 54.0968 55.0127C59.8835 49.6661 63.4568 42.3194 64.0702 34.4661C64.1795 33.0021 63.0808 31.7167 61.6168 31.5994C60.1515 31.4821 58.8675 32.5807 58.7502 34.0527C58.2435 40.5594 55.2835 46.6527 50.4835 51.0927C45.6835 55.5327 39.3902 57.9994 32.8568 57.9994L31.9902 57.9861ZM33.1688 13.3327C32.9168 13.3327 32.9675 14.2674 33.2315 14.4794C33.5275 14.7181 33.9622 15.5527 34.0902 16.1301L34.1915 16.5807L33.3742 16.7447C31.4302 17.1367 31.0515 18.4127 32.3062 20.3461C32.7475 21.0247 32.7515 21.0434 32.6662 22.5154C32.6022 23.6194 32.6342 24.1821 32.7955 24.7114C33.0475 25.5314 33.7475 26.2874 34.4808 26.5261C35.2928 26.7901 37.4982 26.6634 38.3168 26.3074C39.2128 25.9167 40.3768 24.7581 40.7022 23.9327C41.0848 22.9594 40.9408 21.6167 40.3302 20.4447C39.7435 19.3194 38.2115 17.7887 37.1475 17.2661C36.5848 16.9887 36.3208 16.7514 36.1315 16.3567C35.8635 15.7927 33.4528 13.3327 33.1688 13.3327ZM22.5648 15.9994C22.5315 15.9967 22.4982 16.0101 22.4702 16.0367C22.1795 16.3141 21.9435 17.7741 21.9702 19.1381C21.9955 20.4287 21.9608 20.6941 21.6915 21.1247C20.8008 22.5541 20.6488 25.1754 21.3715 26.6607C22.0115 27.9754 23.0715 28.7754 24.6862 29.1594C25.8142 29.4274 26.5768 29.3901 27.6368 29.0207C30.5595 28.0034 31.0648 26.0181 28.9675 23.7807C28.1182 22.8741 27.7208 22.1367 27.7208 21.4661C27.7208 20.6501 27.4075 19.8501 26.8795 19.3127C26.4035 18.8287 26.3782 18.8221 25.4675 18.8981C24.9582 18.9421 24.3555 19.0194 24.1315 19.0727C23.7608 19.1607 23.7022 19.1154 23.4342 18.5501C23.2728 18.2087 23.1395 17.6354 23.1368 17.2727C23.1342 16.7141 22.7995 16.0207 22.5648 15.9994ZM48.4075 21.3381C48.0928 21.2687 47.9942 22.0821 48.2462 22.6714C48.3635 22.9434 48.4408 23.4034 48.4182 23.6954L48.3795 24.2261L47.7102 24.2394C47.1888 24.2514 46.9368 24.3421 46.5728 24.6514C46.1448 25.0114 45.4942 26.2354 45.4915 26.6821C45.4902 26.7807 45.0942 27.7434 44.6088 28.8181C44.1235 29.8927 43.6862 30.9847 43.6342 31.2447C43.3608 32.6407 44.1208 33.6887 45.9395 34.4167C46.7075 34.7234 47.5088 34.7474 48.3795 34.4901C49.7942 34.0701 50.7035 33.2754 51.2542 31.9794C51.5448 31.2954 51.5862 31.0194 51.5795 29.7754C51.5728 28.1647 51.2982 27.1474 50.5568 25.9874C50.3248 25.6247 50.0408 24.9207 49.9262 24.4221C49.6928 23.4007 48.7102 21.4047 48.4075 21.3381ZM14.4182 30.6687C14.3835 30.6607 14.3568 30.6674 14.3382 30.6874C14.0595 30.9861 14.4782 33.8901 14.9008 34.5834C15.0035 34.7527 15.1515 35.3327 15.2315 35.8701C15.5915 38.3047 17.2902 40.5781 19.2182 41.2114C19.8768 41.4274 21.3048 41.3501 22.2288 41.0474C22.9928 40.7967 23.2515 40.6221 23.8275 39.9741C25.0235 38.6274 25.2395 37.2994 24.4368 36.2207C24.2248 35.9354 23.5755 35.4021 22.9968 35.0367C22.4168 34.6701 21.4088 33.9981 20.7568 33.5394C18.8475 32.1954 18.6448 32.0687 18.1195 31.9114C17.4515 31.7127 16.7688 31.9234 16.2128 32.5021L15.7782 32.9554L15.5048 32.4741C15.3542 32.2087 15.2315 31.8567 15.2315 31.6954C15.2302 31.4047 14.6608 30.7261 14.4182 30.6687ZM37.5875 33.3327C36.7768 33.3381 35.8408 33.4767 34.7622 33.7501C31.7128 34.5234 30.2702 35.4434 29.6142 37.0367C29.3302 37.7261 29.3075 37.9621 29.3848 39.2807C29.4635 40.6234 29.4422 40.8194 29.1422 41.4901C28.8382 42.1701 28.4902 42.5501 26.8795 43.9741C26.3675 44.4261 26.3222 44.5327 26.2648 45.3621C26.2115 46.1341 26.2622 46.3927 26.6315 47.2181C27.4222 48.9834 28.8502 50.1661 30.6368 50.5341C31.4835 50.7074 32.0422 50.7087 33.4942 50.5394C39.1395 49.8781 45.6302 47.7381 47.4835 45.9274C48.4528 44.9794 48.8382 44.1061 48.9035 42.7181C49.0262 40.0714 47.8928 38.4821 45.8688 38.4741C44.2848 38.4674 42.6915 37.4981 42.0382 36.1461C41.5542 35.1447 40.5728 34.1474 39.6555 33.7234C39.0822 33.4594 38.3982 33.3287 37.5875 33.3327Z" fill="#9FEF00"/>
</g>
<defs>
<clipPath id="clip0_62_4378">
<rect width="64" height="64" fill="white"/>
</clipPath>
</defs>
</svg>
