<svg width="64" height="64" viewBox="0 0 64 64" fill="none" xmlns="http://www.w3.org/2000/svg">
<path fill-rule="evenodd" clip-rule="evenodd" d="M35.9239 47.1883C35.8732 47.8537 35.2905 48.355 34.6212 48.307C33.9532 48.2577 33.4519 47.675 33.5025 47.007C33.7505 43.655 35.2625 40.515 37.7319 38.2243C40.2012 35.9403 43.4479 34.667 46.8159 34.667C50.3532 34.667 53.7519 36.0737 56.2572 38.5697C58.7572 41.0737 60.1652 44.467 60.1652 48.0003C60.1652 51.5337 58.7572 54.927 56.2572 57.431C53.7519 59.927 50.3532 61.3337 46.8159 61.3337C46.1452 61.3337 45.6025 60.791 45.6025 60.1217C45.6025 59.4523 46.1452 58.9097 46.8159 58.9097C49.7105 58.9097 52.4892 57.7577 54.5399 55.715C56.5852 53.667 57.7386 50.891 57.7386 48.0003C57.7386 45.1097 56.5852 42.3337 54.5399 40.2857C52.4892 38.243 49.7105 37.091 46.8159 37.091C44.0612 37.091 41.4025 38.127 39.3825 40.0003C37.3612 41.8737 36.1292 44.443 35.9239 47.1883ZM41.7372 57.6603C42.3292 57.9723 42.5572 58.7057 42.2465 59.2977C41.9345 59.8897 41.2012 60.1177 40.6079 59.807C38.0839 58.479 36.0452 56.3763 34.8012 53.8123C34.5065 53.211 34.7559 52.4843 35.3585 52.191C35.9625 51.899 36.6905 52.1497 36.9852 52.7523C38.0052 54.855 39.6679 56.5697 41.7372 57.6603ZM44.7359 46.9217V42.9297C45.1612 42.9923 45.5879 43.0657 46.0065 43.1443C46.5239 43.2443 47.0265 43.3857 47.5012 43.5643C47.7812 43.6683 48.0465 43.799 48.2905 43.951C48.4305 44.035 48.5559 44.135 48.6612 44.2497C48.7452 44.339 48.8079 44.439 48.8492 44.5377C48.8986 44.6483 48.9199 44.7683 48.9265 44.8843C48.9332 45.0723 48.9052 45.2657 48.8492 45.4497C48.8079 45.575 48.7452 45.6963 48.6546 45.8057C48.5639 45.9163 48.4519 46.0203 48.3185 46.1043C48.1305 46.2297 47.9132 46.3403 47.6839 46.4243C47.5785 46.4657 47.4665 46.503 47.3545 46.539C47.2159 46.5763 47.0759 46.6123 46.9359 46.6443C46.4959 46.7483 46.0412 46.8217 45.5812 46.859C45.3012 46.8843 45.0145 46.9057 44.7359 46.9217ZM44.7359 49.1003C45.0919 49.1217 45.4479 49.159 45.8039 49.2057C46.1679 49.2523 46.5306 49.3203 46.8946 49.4043C47.1386 49.4617 47.3759 49.535 47.6066 49.6243C47.8439 49.7137 48.0599 49.8243 48.2625 49.955C48.4025 50.0443 48.5212 50.1483 48.6199 50.2643C48.7105 50.3737 48.7799 50.4937 48.8292 50.6203C48.8919 50.7923 48.9265 50.9763 48.9265 51.1537C48.9265 51.3377 48.8985 51.5203 48.8425 51.699C48.8012 51.8243 48.7305 51.9403 48.6399 52.0497C48.5492 52.1657 48.4305 52.2643 48.2985 52.3537C48.1025 52.4843 47.8852 52.595 47.6479 52.679C47.5439 52.7203 47.4319 52.7577 47.3199 52.7937C47.1799 52.8363 47.0412 52.8723 46.9012 52.9043C46.4532 53.0083 45.9999 53.0817 45.5385 53.1297C45.2732 53.155 45.0079 53.1763 44.7359 53.1923V49.1003ZM49.5279 48.043C49.7225 48.1417 49.9119 48.2523 50.0932 48.3723C50.4425 48.5923 50.7359 48.855 50.9799 49.143C51.2252 49.431 51.4065 49.7403 51.5252 50.0697C51.6506 50.415 51.7132 50.7723 51.7199 51.1337C51.7279 51.495 51.6652 51.8617 51.5465 52.2123C51.4345 52.543 51.2599 52.8563 51.0225 53.1497C50.7772 53.443 50.4839 53.7057 50.1425 53.931C49.7652 54.1763 49.3532 54.387 48.9052 54.5537C48.7239 54.6217 48.5425 54.6843 48.3532 54.7377C48.1519 54.8003 47.9492 54.8523 47.7386 54.9043C47.1385 55.047 46.5239 55.1457 45.8946 55.2083C45.0506 55.287 44.1972 55.3297 43.3452 55.335C42.9759 55.335 42.6185 55.2243 42.3532 55.031C42.0879 54.831 41.9412 54.5643 41.9412 54.287V41.715C41.9412 41.4163 42.1092 41.1337 42.4092 40.9337C42.7025 40.735 43.1012 40.6403 43.4999 40.6723C44.5745 40.767 45.6439 40.9137 46.6985 41.1123C47.4105 41.2483 48.1025 41.4417 48.7666 41.6937C49.2266 41.867 49.6599 42.0817 50.0585 42.327C50.4079 42.5363 50.7145 42.7883 50.9665 43.0657C51.2039 43.323 51.3852 43.6057 51.5105 43.9043C51.6372 44.203 51.7066 44.5177 51.7199 44.831C51.7346 45.203 51.6785 45.575 51.5665 45.931C51.4625 46.2723 51.2879 46.591 51.0505 46.8843C50.8119 47.183 50.5119 47.451 50.1692 47.6763C49.9679 47.8123 49.7505 47.9323 49.5279 48.043Z" fill="#9FEF00" stroke="#9FEF00" stroke-width="1.33333" stroke-miterlimit="3" stroke-linecap="square"/>
<path fill-rule="evenodd" clip-rule="evenodd" d="M41.3337 8.00033C39.8617 8.00033 38.667 6.80566 38.667 5.33366C38.667 3.86166 39.8617 2.66699 41.3337 2.66699H49.3337C53.0137 2.66699 56.0003 5.65366 56.0003 9.33366V17.3337C56.0003 18.8057 54.8057 20.0003 53.3337 20.0003C51.8617 20.0003 50.667 18.8057 50.667 17.3337V12.0003C50.667 9.79233 48.875 8.00033 46.667 8.00033H41.3337ZM29.3337 56.0003C30.8057 56.0003 32.0003 57.195 32.0003 58.667C32.0003 60.139 30.8057 61.3337 29.3337 61.3337H9.33366C5.65366 61.3337 2.66699 58.347 2.66699 54.667V9.33366C2.66699 5.65366 5.65366 2.66699 9.33366 2.66699H27.6937C29.9017 2.66699 32.927 3.96699 34.447 5.56833L55.1203 27.347C56.2097 28.3337 56.2963 30.0203 55.3137 31.1137C54.331 32.207 52.643 32.299 51.547 31.3203L30.5537 8.97233C30.0497 8.43633 29.043 8.00033 28.307 8.00033H12.0003C9.79233 8.00033 8.00033 9.79233 8.00033 12.0003V52.0003C8.00033 54.2083 9.79233 56.0003 12.0003 56.0003H29.3337ZM10.667 48.0003L12.1737 49.627C13.7337 50.7337 15.4403 51.587 17.2537 52.1603C19.387 52.7737 21.587 53.0537 23.787 53.0003C25.7203 52.987 27.6403 52.867 29.5603 52.6537C30.6563 52.5283 31.4457 51.5363 31.3203 50.4403C31.195 49.3443 30.203 48.555 29.107 48.6803C27.3203 48.8803 25.5337 48.987 23.7337 49.0003C21.9337 49.0403 20.147 48.8137 18.4137 48.3337C17.0137 47.8803 15.6937 47.2137 14.4937 46.3737L14.0003 46.0217V41.4363C15.0363 42.0043 16.1243 42.4697 17.2537 42.827C19.387 43.4403 21.587 43.7203 23.787 43.667C25.7203 43.6537 27.6403 43.5337 29.5603 43.3203C30.6563 43.195 31.4457 42.203 31.3203 41.107C31.195 40.011 30.203 39.2217 29.107 39.347C27.3203 39.547 25.5337 39.6537 23.7337 39.667C21.9337 39.707 20.147 39.4803 18.4137 39.0003C17.0137 38.547 15.6937 37.8803 14.4937 37.0403L14.0003 36.6883V28.0003H10.0003L10.667 48.0003ZM34.0003 28.0003H38.0003V33.3337C38.0003 34.8057 37.1043 36.0003 36.0003 36.0003C34.8963 36.0003 34.0003 34.8057 34.0003 33.3337V28.0003Z" fill="#9FEF00"/>
<path fill-rule="evenodd" clip-rule="evenodd" d="M10 28C10 27.3333 10.2 26.68 10.56 26.12C10.88 25.6133 11.28 25.1867 11.7467 24.84C12.7067 24.1333 13.7867 23.6 14.92 23.2667C16.28 22.8267 17.6533 22.52 19.0667 22.3333C20.6933 22.1067 22.3467 22 24 22C25.6533 22 27.3067 22.1067 28.9333 22.3333C30.3467 22.52 31.72 22.8267 33.08 23.2667C34.2133 23.6 35.2933 24.1333 36.2533 24.84C36.72 25.1867 37.12 25.6133 37.44 26.1067C37.8 26.68 38 27.3333 38 28C38 28.6667 37.8 29.32 37.44 29.8933C37.12 30.3867 36.72 30.8133 36.2533 31.16C35.2933 31.8667 34.2133 32.4 33.08 32.7333C31.72 33.1733 30.3467 33.48 28.9333 33.6667C27.3067 33.8933 25.6533 34 24 34C22.3467 34 20.6933 33.8933 19.0667 33.6667C17.6533 33.48 16.28 33.1733 14.92 32.7333C13.7867 32.4 12.7067 31.8667 11.7467 31.16C11.28 30.8133 10.88 30.3867 10.56 29.8933C10.2 29.32 10 28.6667 10 28ZM14.2 28C14.7867 27.5867 15.4267 27.28 16.1067 27.08C17.24 26.72 18.4133 26.4533 19.6 26.2933C21.0533 26.0933 22.5333 26 24 26C25.4667 26 26.9467 26.0933 28.4 26.2933C29.5867 26.4533 30.76 26.72 31.8933 27.08C32.5733 27.28 33.2133 27.5867 33.8 28C33.2133 28.4133 32.5733 28.72 31.8933 28.92C30.76 29.28 29.5867 29.5467 28.4 29.7067C26.9467 29.9067 25.4667 30 24 30C22.5333 30 21.0533 29.9067 19.6 29.7067C18.4133 29.5467 17.24 29.28 16.1067 28.92C15.4267 28.72 14.7867 28.4133 14.2 28Z" fill="#9FEF00"/>
</svg>
