<svg width="64" height="64" viewBox="0 0 64 64" fill="none" xmlns="http://www.w3.org/2000/svg">
<path fill-rule="evenodd" clip-rule="evenodd" d="M35.9239 47.1883C35.8732 47.8537 35.2905 48.355 34.6212 48.307C33.9532 48.2577 33.4519 47.675 33.5025 47.007C33.7505 43.655 35.2625 40.515 37.7319 38.2243C40.2012 35.9403 43.4479 34.667 46.8159 34.667C50.3532 34.667 53.7519 36.0737 56.2572 38.5697C58.7572 41.0737 60.1652 44.467 60.1652 48.0003C60.1652 51.5337 58.7572 54.927 56.2572 57.431C53.7519 59.927 50.3532 61.3337 46.8159 61.3337C46.1452 61.3337 45.6025 60.791 45.6025 60.1217C45.6025 59.4523 46.1452 58.9097 46.8159 58.9097C49.7105 58.9097 52.4892 57.7577 54.5399 55.715C56.5852 53.667 57.7386 50.891 57.7386 48.0003C57.7386 45.1097 56.5852 42.3337 54.5399 40.2857C52.4892 38.243 49.7105 37.091 46.8159 37.091C44.0612 37.091 41.4025 38.127 39.3825 40.0003C37.3612 41.8737 36.1292 44.443 35.9239 47.1883ZM41.7372 57.6603C42.3292 57.9723 42.5572 58.7057 42.2465 59.2977C41.9345 59.8897 41.2012 60.1177 40.6079 59.807C38.0839 58.479 36.0452 56.3763 34.8012 53.8123C34.5065 53.211 34.7559 52.4843 35.3585 52.191C35.9625 51.899 36.6905 52.1497 36.9852 52.7523C38.0052 54.855 39.6679 56.5697 41.7372 57.6603ZM44.7186 43.5683C45.3532 43.6977 45.9852 43.871 46.5945 44.087C47.1892 44.2977 47.7439 44.6003 48.2359 44.9843C48.4972 45.1843 48.7332 45.415 48.9439 45.671C49.1332 45.907 49.2919 46.159 49.4212 46.431C49.5586 46.7177 49.6612 47.0203 49.7239 47.3337C49.8052 47.723 49.8465 48.1177 49.8465 48.5123C49.8465 48.8763 49.8052 49.2403 49.7239 49.595C49.6612 49.867 49.5639 50.1283 49.4306 50.3697C49.3079 50.6003 49.1545 50.8097 48.9745 51.0003C48.7639 51.215 48.5279 51.4097 48.2719 51.5697C48.0305 51.7177 47.7692 51.851 47.5025 51.9537C47.1439 52.0977 46.7746 52.2097 46.3946 52.303C46.0106 52.3897 45.6159 52.4563 45.2252 52.503C45.0559 52.523 44.8866 52.543 44.7186 52.5537V43.5683ZM43.8199 41.343C44.9946 41.487 46.1532 41.759 47.2772 42.1537C48.0772 42.435 48.8252 42.8403 49.4972 43.3643C49.8772 43.6617 50.2252 44.0003 50.5332 44.3737C50.8252 44.7377 51.0772 45.1337 51.2719 45.5483C51.4825 45.9843 51.6359 46.4457 51.7332 46.9177C51.8412 47.4403 51.8972 47.9737 51.8972 48.5123C51.8972 49.031 51.8412 49.5483 51.7239 50.051C51.6212 50.503 51.4572 50.939 51.2412 51.343C51.0252 51.739 50.7639 52.0977 50.4519 52.4203C50.1279 52.759 49.7586 53.0563 49.3586 53.3083C49.0106 53.5283 48.6412 53.7123 48.2559 53.8617C47.7999 54.0417 47.3332 54.1897 46.8612 54.2977C46.3999 54.4057 45.9332 54.487 45.4612 54.5443C44.8825 54.611 44.3025 54.651 43.7172 54.667C43.4412 54.6723 43.1745 54.5697 42.9745 54.375C42.7799 54.1843 42.6665 53.9177 42.6665 53.6417V42.359C42.6665 42.067 42.7945 41.7843 43.0159 41.5897C43.2359 41.395 43.5279 41.3017 43.8199 41.343Z" fill="#9FEF00" stroke="#9FEF00" stroke-width="1.33333" stroke-miterlimit="3" stroke-linecap="square"/>
<path fill-rule="evenodd" clip-rule="evenodd" d="M41.3337 8.00033C39.8617 8.00033 38.667 6.80566 38.667 5.33366C38.667 3.86166 39.8617 2.66699 41.3337 2.66699H49.3337C53.0137 2.66699 56.0003 5.65366 56.0003 9.33366V17.3337C56.0003 18.8057 54.8057 20.0003 53.3337 20.0003C51.8617 20.0003 50.667 18.8057 50.667 17.3337V12.0003C50.667 9.79233 48.875 8.00033 46.667 8.00033H41.3337ZM29.3337 56.0003C30.8057 56.0003 32.0003 57.195 32.0003 58.667C32.0003 60.139 30.8057 61.3337 29.3337 61.3337H9.33366C5.65366 61.3337 2.66699 58.347 2.66699 54.667V9.33366C2.66699 5.65366 5.65366 2.66699 9.33366 2.66699H27.6937C29.9017 2.66699 32.927 3.96699 34.447 5.56833L55.1203 27.347C56.2097 28.3337 56.2963 30.0203 55.3137 31.1137C54.331 32.207 52.643 32.299 51.547 31.3203L30.5537 8.97233C30.0497 8.43633 29.043 8.00033 28.307 8.00033H12.0003C9.79233 8.00033 8.00033 9.79233 8.00033 12.0003V52.0003C8.00033 54.2083 9.79233 56.0003 12.0003 56.0003H29.3337ZM26.9737 15.1163C27.0923 14.0203 28.079 13.227 29.175 13.3457C30.271 13.4643 31.067 14.4563 30.9497 15.559C30.931 15.7377 30.9417 15.9177 30.9937 16.0977C31.0963 16.5283 31.2123 16.955 31.3523 17.3723C31.507 17.827 31.6323 18.279 31.7617 18.743C31.903 19.2737 31.975 19.815 31.999 20.375C32.0177 21.079 31.8643 21.7763 31.527 22.399C31.1457 23.0963 30.5403 23.6483 29.8177 24.0017C29.5017 24.147 29.1737 24.2977 28.8443 24.4057C28.219 24.6377 27.5803 24.8323 26.9417 25.027C26.2977 25.2083 25.671 25.399 25.047 25.631C24.579 25.7897 24.131 25.999 23.7137 26.2537C23.4563 26.4057 23.2443 26.599 23.075 26.8323C22.9617 26.9883 22.9003 27.167 22.8857 27.3577C22.8643 27.835 22.9563 28.3123 23.1483 28.7537C23.2963 29.1537 23.4697 29.5443 23.6817 29.9217C24.5363 30.7697 25.3363 31.6963 26.0403 32.6723C26.6817 33.5577 27.2123 34.527 27.6097 35.559C27.9563 36.455 28.1403 37.411 28.1603 38.3843C28.1697 39.291 27.9817 40.2003 27.6097 41.035C26.8563 42.6097 25.4963 43.811 23.8457 44.3817C22.8283 44.7457 21.759 44.9283 20.6737 44.919C19.4923 44.9163 18.3177 44.7417 17.1977 44.4043C15.9363 44.0337 14.715 43.5043 13.591 42.8123C12.3123 42.051 11.1337 41.1363 10.0817 40.1043C9.29899 39.3283 9.28966 38.0577 10.0603 37.2683C10.831 36.4803 12.0977 36.4683 12.8883 37.243C13.7217 38.071 14.6577 38.7897 15.6483 39.3897C16.4923 39.9003 17.391 40.2923 18.3337 40.5683C19.1003 40.7963 19.8977 40.9123 20.695 40.915C21.323 40.923 21.9403 40.8217 22.5283 40.6043C23.1617 40.3963 23.679 39.9497 23.983 39.3523C24.1043 39.0657 24.1617 38.7603 24.159 38.4483C24.147 37.955 24.0497 37.4643 23.8777 37.0017C23.6017 36.2937 23.2417 35.631 22.799 35.0137C22.1217 34.0697 21.3457 33.2057 20.5003 32.4243C20.0723 31.731 19.7097 30.983 19.4217 30.2083C19.0217 29.247 18.8523 28.215 18.8883 27.1643C18.9443 26.2043 19.267 25.2737 19.819 24.5003C20.319 23.8163 20.9457 23.243 21.6697 22.8177C22.3097 22.4363 22.987 22.115 23.7043 21.863C24.4083 21.615 25.1177 21.3803 25.8497 21.1657C26.4057 21.0163 26.9523 20.8417 27.4897 20.6417C27.6643 20.5763 27.827 20.5163 27.9977 20.439C27.9857 20.2163 27.9563 19.9843 27.8897 19.7683C27.7937 19.391 27.683 19.019 27.5563 18.6403C27.383 18.135 27.231 17.6083 27.107 17.0857C26.9377 16.4377 26.8897 15.7723 26.9737 15.1163Z" fill="#9FEF00"/>
</svg>
