<svg width="64" height="64" viewBox="0 0 64 64" fill="none" xmlns="http://www.w3.org/2000/svg">
<g clip-path="url(#clip0_10_544)">
<path fill-rule="evenodd" clip-rule="evenodd" d="M33.121 25.5591L31.681 27.4057L29.357 27.7297L30.8023 25.8831L33.121 25.5591ZM35.601 56.3151C35.9223 54.9404 36.4636 53.5164 37.1703 52.7111C38.1383 51.6084 38.3223 50.7297 38.3423 47.1497C38.357 44.1871 38.3903 43.8391 38.7716 42.5111C39.4196 40.2497 40.4916 38.6537 41.2756 37.5084C41.6743 36.9271 42.309 35.8884 42.689 35.2004C43.069 34.5137 43.621 33.5871 43.9156 33.1431C44.6823 31.9831 47.1223 30.3804 47.933 29.9991C48.8383 29.5737 49.8356 28.4284 50.1663 27.4337C50.505 26.4124 50.4023 24.8004 49.9596 24.2084C49.6983 23.8604 49.5316 23.7991 48.8623 23.7991C48.249 23.7991 47.9836 23.7177 47.6783 23.4311C47.2596 23.0377 46.9516 23.0911 46.9516 23.5564C46.9516 23.9217 45.597 24.6164 45.4343 24.4551C45.3663 24.3871 45.4356 24.0004 45.5903 23.5951C46.1596 22.1111 46.345 21.1657 46.2543 20.2057C46.105 18.6244 45.1196 16.2057 44.5823 16.1017C44.4543 16.0777 43.753 16.5564 43.025 17.1684C39.2303 20.3617 36.345 21.7551 34.337 22.9684C33.3783 23.5471 33.3756 23.5457 31.7596 23.5111C29.8463 23.4697 30.1783 23.7724 26.9863 25.7071C25.881 26.3764 24.6356 27.6551 24.2183 27.8124C23.7996 27.9724 22.4716 28.2031 21.2463 28.3284C18.7303 28.5871 18.057 28.7417 17.1156 29.2844C16.185 29.8231 15.949 30.2231 16.1463 30.9404C16.341 31.6431 17.3716 33.0257 18.6103 34.2444L19.5436 35.1617L18.8263 36.2751C18.429 36.8871 17.8303 38.0191 17.4983 38.7897C16.837 40.3204 16.6556 40.6084 15.3383 42.2297C14.361 43.4337 12.8543 45.0884 11.6956 46.9937C8.10097 42.5284 6.09031 36.9564 6.03831 31.1724C5.97964 24.6977 8.36097 18.4311 12.725 13.6417C17.0876 8.85373 23.1076 5.9044 29.5623 5.36173C31.1276 5.22973 32.2943 3.8484 32.1663 2.27906C32.037 0.70973 30.6556 -0.456937 29.0836 -0.323604C21.2036 0.332396 13.849 3.94973 8.51164 9.80173C3.18764 15.6537 0.262306 23.3097 0.334306 31.2231C0.408973 39.5364 3.79031 47.4924 9.71831 53.3284C15.6596 59.1497 23.6756 62.3857 31.989 62.3111C40.3023 62.2351 48.257 58.8551 54.093 52.9271C59.9143 46.9844 63.1503 38.9697 63.0756 30.6564C63.061 29.0817 61.7716 27.8164 60.1983 27.8297C58.6236 27.8444 57.357 29.1337 57.3716 30.7084C57.433 37.5097 54.7836 44.0644 50.021 48.9284C46.1116 52.8977 41.0423 55.4724 35.601 56.3151ZM54.3263 18.7991C55.0703 20.1857 56.801 20.7071 58.1876 19.9617C59.573 19.2177 60.0943 17.4871 59.3503 16.1017C56.1743 10.1977 51.1823 5.45106 45.1236 2.58306C43.701 1.90306 41.997 2.50573 41.3223 3.9284C40.6463 5.3524 41.253 7.05906 42.6756 7.73906C47.645 10.0897 51.7156 13.9604 54.3263 18.7991Z" fill="#9FEF00"/>
</g>
<defs>
<clipPath id="clip0_10_544">
<rect width="64" height="64" fill="white"/>
</clipPath>
</defs>
</svg>
