<svg width="64" height="64" viewBox="0 0 64 64" fill="none" xmlns="http://www.w3.org/2000/svg">
<path fill-rule="evenodd" clip-rule="evenodd" d="M50.667 29.147V52.0003C50.667 54.2083 48.875 56.0003 46.667 56.0003H12.0003C9.79233 56.0003 8.00033 54.2083 8.00033 52.0003V12.0003C8.00033 9.79233 9.79233 8.00033 12.0003 8.00033H28.2803C29.0163 8.00033 30.0483 8.40966 30.5843 8.91366L49.6963 26.9003C50.2323 27.4043 50.667 28.411 50.667 29.147ZM41.3337 8.00033C39.8617 8.00033 38.667 6.80566 38.667 5.33366C38.667 3.86166 39.8617 2.66699 41.3337 2.66699H49.3337C53.0137 2.66699 56.0003 5.65366 56.0003 9.33366V17.3337C56.0003 18.8057 54.8057 20.0003 53.3337 20.0003C51.8617 20.0003 50.667 18.8057 50.667 17.3337V12.0003C50.667 9.79233 48.875 8.00033 46.667 8.00033H41.3337ZM56.0003 28.187V54.667C56.0003 58.347 53.0137 61.3337 49.3337 61.3337H9.33366C5.65366 61.3337 2.66699 58.347 2.66699 54.667V9.33366C2.66699 5.65366 5.65366 2.66699 9.33366 2.66699H29.0537C30.5257 2.66699 32.591 3.48566 33.6617 4.49499L54.059 23.6923C55.1297 24.7017 56.0003 26.715 56.0003 28.187ZM36.0003 38.667C37.4723 38.667 38.667 39.8617 38.667 41.3337C38.667 42.8057 37.4723 44.0003 36.0003 44.0003H22.667C21.195 44.0003 20.0003 42.8057 20.0003 41.3337V22.667C20.0003 21.195 21.195 20.0003 22.667 20.0003C24.139 20.0003 25.3337 21.195 25.3337 22.667V37.3337C25.3337 38.0697 25.931 38.667 26.667 38.667H36.0003Z" fill="#9FEF00"/>
</svg>
