<svg width="64" height="64" viewBox="0 0 64 64" fill="none" xmlns="http://www.w3.org/2000/svg">
<path fill-rule="evenodd" clip-rule="evenodd" d="M18.0268 34.6667C17.9068 34.6667 17.7868 34.64 17.6668 34.5867C17.4268 34.4667 17.2134 34.32 17.0134 34.12C16.6934 33.8 16.4001 33.44 16.1468 33.0533C15.8134 32.52 15.5201 31.9733 15.2668 31.4C14.6134 29.88 14.1468 28.3067 13.8668 26.68C13.5068 24.7067 13.3201 22.6933 13.3334 20.68C13.3468 18.8533 13.8001 17.0667 14.6801 15.4667C15.6401 13.7333 16.9601 12.2133 18.5468 11C20.3468 9.61333 22.3601 8.54667 24.5201 7.84C26.9334 7.05333 29.4668 6.65333 32.0001 6.66667C34.5334 6.65333 37.0668 7.05333 39.4801 7.84C41.6401 8.54667 43.6534 9.61333 45.4534 11C47.0401 12.2133 48.3601 13.7333 49.3201 15.4667C50.2001 17.0667 50.6534 18.8533 50.6668 20.68C50.6801 22.6933 50.4934 24.7067 50.1334 26.68C49.8534 28.3067 49.3868 29.88 48.7334 31.4C48.4801 31.9733 48.1868 32.52 47.8534 33.0533C47.6001 33.44 47.3068 33.8 46.9868 34.12C46.7868 34.32 46.5734 34.4667 46.3334 34.5867C46.2134 34.64 46.0934 34.6667 45.9734 34.6667C44.3334 34.6933 42.7468 35.28 41.4668 36.3067C40.2268 37.32 39.2001 38.5733 38.4534 40C37.6268 41.5333 37.0268 43.1867 36.6401 44.8933C36.4134 45.92 36.2401 46.96 36.1334 48H27.8668C27.7601 46.96 27.5868 45.92 27.3601 44.8933C26.9734 43.1867 26.3734 41.5333 25.5468 40C24.8001 38.5733 23.7734 37.32 22.5334 36.3067C21.2534 35.28 19.6668 34.6933 18.0268 34.6667ZM36.0001 57.3333V54.6667H41.3334V57.3333V58.6667C41.3334 60.8747 39.5414 62.6667 37.3334 62.6667H26.6668C24.4588 62.6667 22.6668 60.8747 22.6668 58.6667V57.3333V54.6667H28.0001V57.3333H36.0001ZM17.9468 40C17.0668 39.9867 16.1868 39.7867 15.3734 39.4C14.6001 39.0267 13.8934 38.5333 13.2801 37.92C12.6668 37.32 12.1201 36.6533 11.6534 35.92C11.1601 35.1467 10.7334 34.3467 10.3601 33.5067C9.5601 31.6133 8.97343 29.64 8.61343 27.6267C8.2001 25.32 7.98677 22.9867 8.0001 20.6533C8.01343 17.9467 8.70677 15.28 10.0134 12.8933C11.3334 10.5067 13.1334 8.42667 15.2934 6.77333C17.5734 5.01333 20.1334 3.66667 22.8801 2.77333C25.8134 1.81333 28.9068 1.32 32.0001 1.33333C35.0934 1.32 38.1868 1.81333 41.1201 2.77333C43.8668 3.66667 46.4268 5.01333 48.7068 6.77333C50.8668 8.42667 52.6668 10.5067 53.9868 12.8933C55.2934 15.28 55.9868 17.9467 56.0001 20.6533C56.0134 22.9867 55.8001 25.32 55.3868 27.6267C55.0268 29.64 54.4401 31.6133 53.6401 33.5067C53.2668 34.3467 52.8401 35.1467 52.3468 35.92C51.8801 36.6533 51.3334 37.32 50.7201 37.92C50.1068 38.5333 49.4001 39.0267 48.6268 39.4C47.8268 39.7867 46.9468 39.9867 46.0534 40C45.6001 40.0133 45.1734 40.1733 44.8268 40.4533C44.1334 41.0133 43.5734 41.7067 43.1734 42.48C42.5734 43.6133 42.1201 44.8133 41.8401 46.0667C41.4934 47.5733 41.3334 49.1067 41.3334 50.6533C41.3334 51.36 41.0534 52.0533 40.5601 52.5467C40.0534 53.0533 39.3734 53.3333 38.6668 53.3333H25.3334C24.6268 53.3333 23.9468 53.0533 23.4401 52.5467C22.9468 52.0533 22.6668 51.36 22.6668 50.6533C22.6668 49.1067 22.5068 47.5733 22.1601 46.0667C21.8801 44.8133 21.4268 43.6133 20.8268 42.48C20.4268 41.7067 19.8668 41.0133 19.1734 40.4533C18.8268 40.1733 18.4001 40.0133 17.9468 40ZM32.7601 12.5867C31.7001 12.2627 31.1001 11.1427 31.4201 10.0867C31.7401 9.03067 32.8548 8.43067 33.9068 8.74667C35.8668 9.34667 37.7601 10.1467 39.5334 11.1467C41.0668 12.0133 42.4801 13.0667 43.7201 14.3067C44.8268 15.3867 45.7334 16.6667 46.3868 18.0533C47.0134 19.3467 47.3334 20.76 47.3468 22.2C47.3468 22.2267 47.3468 22.2533 47.3468 22.28L47.3334 22.7333C47.2961 23.8373 46.3708 24.704 45.2668 24.6667C44.1628 24.6293 43.2961 23.704 43.3334 22.6L43.3468 22.2C43.3334 21.36 43.1468 20.5333 42.7868 19.7733C42.3201 18.8 41.6801 17.9067 40.9068 17.1467C39.9201 16.16 38.8001 15.32 37.5868 14.64C36.0534 13.7733 34.4401 13.0933 32.7601 12.5867Z" fill="#9FEF00"/>
</svg>
