<svg width="512" height="512" viewBox="0 0 512 512" fill="none" xmlns="http://www.w3.org/2000/svg">
<path d="M371.08 242.88C372.547 242.853 372.627 241.933 371.32 240.12" stroke="#B3D89B" stroke-width="2"/>
<path d="M371.4 178.32C326.56 162.44 295.6 123.32 315.72 74.2" stroke="#B3D89B" stroke-width="2"/>
<path d="M319.76 114.28C326.72 151.08 364.16 171.28 399 175.04C400.36 175.2 400.973 175.96 400.84 177.32C399.213 193.693 395.693 209.667 390.28 225.24C389.507 227.427 390.133 227.973 392.16 226.88C429.253 207.2 460.467 181.2 485.8 148.88C534.64 86.5599 474.44 33.1599 412.72 32.4799C368.92 31.9999 309.52 60.0399 319.76 114.28Z" stroke="#AAC6A3" stroke-width="2"/>
<path d="M338.64 66.6398C329.52 77.6398 318.8 96.3998 326.4 111.08C330.613 119.187 332.88 123.68 333.2 124.56C344.053 152.8 366 166.867 399.04 166.76C400.185 166.761 401.315 167.011 402.353 167.494C403.39 167.976 404.309 168.678 405.045 169.551C405.78 170.424 406.315 171.447 406.612 172.547C406.908 173.647 406.959 174.798 406.76 175.92L401.16 207.96C401.044 208.646 401.129 209.352 401.405 209.991C401.682 210.63 402.138 211.175 402.718 211.56C403.298 211.945 403.977 212.154 404.673 212.161C405.369 212.168 406.052 211.973 406.64 211.6C436 192.6 472.64 165.48 488.2 131.88C503.533 98.7332 496.12 72.2132 465.96 52.3198C458.52 47.3998 452.16 47.4798 444 44.4798C411.6 32.4798 361.92 38.6398 338.64 66.6398Z" stroke="#5D9E3E" stroke-width="2"/>
<path d="M29 482.84C29.3733 481.533 29.56 480.253 29.56 479C29.8267 354.2 29.9733 229.4 30 104.6C30.04 71.92 36.36 51.24 66.32 38.52" stroke="#347E29" stroke-width="2"/>
<path d="M189.56 420.2L217 419.12C217.538 419.099 218.046 418.871 218.419 418.483C218.792 418.095 219 417.578 219 417.04V392.04C219 390.68 218.333 390.04 217 390.12C202.707 390.973 194.84 384.32 193.4 370.16C193.267 368.987 193.747 368.147 194.84 367.64C249.72 342.08 248.52 258.28 243.8 208.12" stroke="#B3D89B" stroke-width="2"/>
<path d="M243.8 208.12C248.093 207.4 250.253 208.013 250.28 209.96C250.44 243.453 250.76 276.92 251.24 310.36C251.56 333.64 255.2 360.68 285.32 354.12" stroke="#347E29" stroke-width="2"/>
<path d="M285.32 354.12C300.68 356.947 315.627 354.893 330.16 347.96C331.387 347.373 332 346.4 332 345.04V325.84C332 324.693 331.507 323.827 330.52 323.24L329.6 322.68" stroke="#B3D89B" stroke-width="2"/>
<path d="M329.6 322.68C322.587 321.32 315 322.387 306.84 325.88" stroke="#347E29" stroke-width="2"/>
<path d="M306.84 325.88C303.667 318.84 302.08 311.52 302.08 303.92C302.053 272.773 302 241.453 301.92 209.96C301.92 208.44 302.68 207.72 304.2 207.8L327.28 209.24C327.627 209.268 327.977 209.223 328.306 209.109C328.635 208.994 328.937 208.813 329.193 208.576C329.448 208.34 329.652 208.052 329.791 207.733C329.93 207.413 330.001 207.068 330 206.72V184.68C330 183.107 329.213 182.267 327.64 182.16L304.56 180.36C302.853 180.227 302 179.307 302 177.6V140C302 138.693 301.373 137.867 300.12 137.52C292.733 135.413 285.28 134.867 277.76 135.88" stroke="#B3D89B" stroke-width="2"/>
<path d="M277.76 135.88L266.32 134.96C264.853 134.853 263.947 135.52 263.6 136.96L253.96 176.68" stroke="#347E29" stroke-width="2"/>
<path d="M253.96 176.68C253.533 176.893 253.12 177.093 252.72 177.28" stroke="#B3D89B" stroke-width="2"/>
<path d="M252.72 177.28C247.787 176.267 242.72 176.76 237.52 178.76" stroke="#347E29" stroke-width="2"/>
<path d="M237.52 178.76C225.573 139.027 199.4 119.387 159 119.84" stroke="#B3D89B" stroke-width="2"/>
<path d="M159 119.84C116.84 117.307 91.0266 136.52 81.5599 177.48C69.2399 230.76 62.3599 350.12 132.64 371.12C133.947 371.493 134.787 372.333 135.16 373.64C143.4 401.92 153.08 426.12 189.56 420.2" stroke="#347E29" stroke-width="2"/>
<path d="M159 119.84C113.72 124.6 96.8 159.92 91.16 200.04C84 251.28 83.6 350.92 147.32 370.32C148.627 370.72 149.453 371.6 149.8 372.96C155.6 396.16 162.68 415.76 189.56 420.2" stroke="#81A68E" stroke-width="2"/>
<path d="M237.52 178.76L243.8 208.12" stroke="#81A68E" stroke-width="2"/>
<path d="M306.84 325.88C313.373 328.973 320.96 327.907 329.6 322.68" stroke="#81A68E" stroke-width="2"/>
<path d="M285.32 354.12C269.56 347.64 264.8 333.84 264.84 317.96C264.947 281.48 265.013 244.933 265.04 208.32C265.04 207.705 264.796 207.115 264.36 206.68C263.925 206.244 263.335 206 262.72 206H254C252.773 206 252.173 205.373 252.2 204.12L252.72 177.28" stroke="#81A68E" stroke-width="2"/>
<path d="M277.76 135.88L267.92 176.68C267.547 178.253 266.573 178.907 265 178.64L253.96 176.68" stroke="#81A68E" stroke-width="2"/>
<path d="M482.96 129.16C488.2 126.48 478.72 96 477.6 91.12C471.8 65.64 453.48 64.8 432.4 57.28C403.84 47.12 380.76 55.92 356.84 67.68C330.64 80.52 340.44 113.08 354.08 130.48C368.76 149.2 401.12 157.92 423.76 162.4C425.083 162.66 426.46 162.477 427.68 161.88C439.44 156.04 451.88 152.44 465 151.08C465.754 150.992 466.48 150.744 467.129 150.35C467.777 149.957 468.334 149.428 468.76 148.8L480.92 130.96C481.453 130.187 482.133 129.587 482.96 129.16Z" stroke="#86C443" stroke-width="2"/>
<path d="M163 154.16C152.307 161.28 146.093 171.653 144.36 185.28C139.68 222.12 132.28 312.64 163.2 338.04" stroke="#B3D89B" stroke-width="2"/>
<path d="M163.2 338.04C183.64 349.04 195.48 319.92 197.68 305.12C200.64 285.2 215.64 133.92 163 154.16" stroke="#81A68E" stroke-width="2"/>
<path d="M163.2 338.04C197.48 321.56 187.8 215.08 182.4 180.92C180.64 169.853 174.173 160.933 163 154.16" stroke="#347E29" stroke-width="2"/>
<path d="M512 93.96V115.32C495.08 172.56 431.28 219.2 379.96 242.12C377.32 243.28 374 242.96 371.08 242.88C372.547 242.853 372.627 241.933 371.32 240.12C371.88 240.067 372.387 240.027 372.84 240C373.8 239.92 374.48 239.453 374.88 238.6C383.093 221.667 388.453 203.84 390.96 185.12C391.147 183.787 390.587 182.96 389.28 182.64L371.4 178.32C326.56 162.44 295.6 123.32 315.72 74.2C359.52 0.999962 489.56 6.23996 512 93.96ZM319.76 114.28C326.72 151.08 364.16 171.28 399 175.04C400.36 175.2 400.973 175.96 400.84 177.32C399.213 193.693 395.693 209.667 390.28 225.24C389.507 227.427 390.133 227.973 392.16 226.88C429.253 207.2 460.467 181.2 485.8 148.88C534.64 86.56 474.44 33.16 412.72 32.48C368.92 32 309.52 60.04 319.76 114.28Z" fill="white"/>
<path d="M399 175.04C364.16 171.28 326.72 151.08 319.76 114.28C309.52 60.0399 368.92 31.9999 412.72 32.4799C474.44 33.1599 534.64 86.5599 485.8 148.88C460.467 181.2 429.253 207.2 392.16 226.88C390.133 227.973 389.507 227.427 390.28 225.24C395.693 209.667 399.213 193.693 400.84 177.32C400.973 175.96 400.36 175.2 399 175.04ZM338.64 66.6399C329.52 77.6399 318.8 96.3999 326.4 111.08C330.613 119.187 332.88 123.68 333.2 124.56C344.053 152.8 366 166.867 399.04 166.76C400.185 166.761 401.315 167.012 402.353 167.494C403.39 167.976 404.309 168.678 405.045 169.551C405.78 170.424 406.315 171.447 406.612 172.547C406.908 173.647 406.959 174.799 406.76 175.92L401.16 207.96C401.044 208.646 401.129 209.352 401.405 209.991C401.682 210.63 402.138 211.175 402.718 211.56C403.297 211.945 403.977 212.154 404.673 212.161C405.369 212.168 406.052 211.973 406.64 211.6C436 192.6 472.64 165.48 488.2 131.88C503.533 98.7333 496.12 72.2133 465.96 52.3199C458.52 47.3999 452.16 47.4799 444 44.4799C411.6 32.4799 361.92 38.6399 338.64 66.6399Z" fill="#9FEF00"/>
<path d="M315.72 74.2001C295.6 123.32 326.56 162.44 371.4 178.32L371.32 240.12C372.627 241.933 372.547 242.853 371.08 242.88C371 285.44 370.973 327.987 371 370.52C371 385.773 369.413 397.133 366.24 404.6C353.44 434.92 330.48 433.96 294.52 440.04C268.48 444.44 33.68 486.68 29 482.84C29.3733 481.533 29.56 480.253 29.56 479C29.8267 354.2 29.9733 229.4 30 104.6C30.04 71.9201 36.36 51.2401 66.32 38.5201C75.3867 36.4934 82.9467 35.9867 89 37.0001C164.6 49.5601 240.173 61.9601 315.72 74.2001ZM189.56 420.2L217 419.12C217.538 419.099 218.046 418.871 218.419 418.483C218.792 418.095 219 417.578 219 417.04V392.04C219 390.68 218.333 390.04 217 390.12C202.707 390.973 194.84 384.32 193.4 370.16C193.267 368.987 193.747 368.147 194.84 367.64C249.72 342.08 248.52 258.28 243.8 208.12C248.093 207.4 250.253 208.013 250.28 209.96C250.44 243.453 250.76 276.92 251.24 310.36C251.56 333.64 255.2 360.68 285.32 354.12C300.68 356.947 315.627 354.893 330.16 347.96C331.387 347.373 332 346.4 332 345.04V325.84C332 324.693 331.507 323.827 330.52 323.24L329.6 322.68C322.587 321.32 315 322.387 306.84 325.88C303.667 318.84 302.08 311.52 302.08 303.92C302.053 272.773 302 241.453 301.92 209.96C301.92 208.44 302.68 207.72 304.2 207.8L327.28 209.24C327.627 209.268 327.977 209.223 328.306 209.109C328.635 208.995 328.937 208.813 329.193 208.577C329.448 208.34 329.652 208.053 329.791 207.733C329.93 207.413 330.001 207.069 330 206.72V184.68C330 183.107 329.213 182.267 327.64 182.16L304.56 180.36C302.853 180.227 302 179.307 302 177.6V140C302 138.693 301.373 137.867 300.12 137.52C292.733 135.413 285.28 134.867 277.76 135.88L266.32 134.96C264.853 134.853 263.947 135.52 263.6 136.96L253.96 176.68C253.533 176.893 253.12 177.093 252.72 177.28C247.787 176.267 242.72 176.76 237.52 178.76C225.573 139.027 199.4 119.387 159 119.84C116.84 117.307 91.0267 136.52 81.56 177.48C69.24 230.76 62.36 350.12 132.64 371.12C133.947 371.493 134.787 372.333 135.16 373.64C143.4 401.92 153.08 426.12 189.56 420.2Z" fill="#9FEF00"/>
<path d="M66.32 38.2847C36.36 51.0047 30.04 71.6847 30 104.365C29.9733 229.165 29.8267 353.965 29.56 478.765C29.56 480.018 29.3733 481.298 29 482.605L0 454.845V83.4047C7.97333 50.738 30.08 35.698 66.32 38.2847Z" fill="#141D2B"/>
<path d="M338.64 66.6401C361.92 38.6401 411.6 32.4801 444 44.4801C452.16 47.4801 458.52 47.4001 465.96 52.3201C496.12 72.2134 503.533 98.7334 488.2 131.88C472.64 165.48 436 192.6 406.64 211.6C406.052 211.973 405.369 212.168 404.673 212.161C403.977 212.154 403.298 211.946 402.718 211.56C402.138 211.175 401.682 210.63 401.405 209.991C401.129 209.352 401.044 208.647 401.16 207.96L406.76 175.92C406.959 174.799 406.908 173.647 406.612 172.547C406.315 171.447 405.78 170.424 405.045 169.551C404.309 168.678 403.39 167.976 402.353 167.494C401.315 167.012 400.185 166.761 399.04 166.76C366 166.867 344.053 152.8 333.2 124.56C332.88 123.68 330.613 119.187 326.4 111.08C318.8 96.4001 329.52 77.6401 338.64 66.6401ZM482.96 129.16C488.2 126.48 478.72 96.0001 477.6 91.1201C471.8 65.6401 453.48 64.8001 432.4 57.2801C403.84 47.1201 380.76 55.9201 356.84 67.6801C330.64 80.5201 340.44 113.08 354.08 130.48C368.76 149.2 401.12 157.92 423.76 162.4C425.083 162.66 426.46 162.477 427.68 161.88C439.44 156.04 451.88 152.44 465 151.08C465.754 150.993 466.48 150.744 467.129 150.35C467.778 149.957 468.334 149.428 468.76 148.8L480.92 130.96C481.453 130.187 482.133 129.587 482.96 129.16Z" fill="#9FEF00"/>
<path d="M480.92 130.96L468.76 148.8C468.334 149.428 467.777 149.957 467.129 150.35C466.48 150.744 465.754 150.992 465 151.08C451.88 152.44 439.44 156.04 427.68 161.88C426.46 162.477 425.083 162.66 423.76 162.4C401.12 157.92 368.76 149.2 354.08 130.48C340.44 113.08 330.64 80.52 356.84 67.68C380.76 55.92 403.84 47.12 432.4 57.28C453.48 64.8 471.8 65.64 477.6 91.12C478.72 96 488.2 126.48 482.96 129.16C482.133 129.587 481.453 130.187 480.92 130.96Z" fill="#9FEF00"/>
<path d="M159 119.605C113.72 124.365 96.7999 159.685 91.1599 199.805C83.9999 251.045 83.5999 350.685 147.32 370.085C148.627 370.485 149.453 371.365 149.8 372.725C155.6 395.925 162.68 415.525 189.56 419.965C153.08 425.885 143.4 401.685 135.16 373.405C134.787 372.098 133.947 371.258 132.64 370.885C62.3599 349.885 69.2399 230.525 81.5599 177.245C91.0266 136.285 116.84 117.071 159 119.605Z" fill="#141D2B"/>
<path d="M159 119.84C199.4 119.387 225.573 139.027 237.52 178.76L243.8 208.12C248.52 258.28 249.72 342.08 194.84 367.64C193.747 368.147 193.267 368.987 193.4 370.16C194.84 384.32 202.707 390.973 217 390.12C218.333 390.04 219 390.68 219 392.04V417.04C219 417.578 218.792 418.095 218.419 418.483C218.046 418.871 217.538 419.099 217 419.12L189.56 420.2C162.68 415.76 155.6 396.16 149.8 372.96C149.453 371.6 148.627 370.72 147.32 370.32C83.6 350.92 84 251.28 91.16 200.04C96.8 159.92 113.72 124.6 159 119.84ZM163 154.16C152.307 161.28 146.093 171.653 144.36 185.28C139.68 222.12 132.28 312.64 163.2 338.04C183.64 349.04 195.48 319.92 197.68 305.12C200.64 285.2 215.64 133.92 163 154.16Z" fill="white"/>
<path d="M277.76 135.645L267.92 176.445C267.547 178.018 266.573 178.671 265 178.405L253.96 176.445L263.6 136.725C263.947 135.285 264.853 134.618 266.32 134.725L277.76 135.645Z" fill="#141D2B"/>
<path d="M306.84 325.88C313.373 328.973 320.96 327.907 329.6 322.68L330.52 323.24C331.507 323.827 332 324.693 332 325.84V345.04C332 346.4 331.387 347.373 330.16 347.96C315.627 354.893 300.68 356.947 285.32 354.12C269.56 347.64 264.8 333.84 264.84 317.96C264.947 281.48 265.013 244.933 265.04 208.32C265.04 207.705 264.796 207.115 264.36 206.679C263.925 206.244 263.335 206 262.72 206H254C252.773 206 252.173 205.373 252.2 204.12L252.72 177.28C253.12 177.093 253.533 176.893 253.96 176.68L265 178.64C266.573 178.907 267.547 178.253 267.92 176.68L277.76 135.88C285.28 134.867 292.733 135.413 300.12 137.52C301.373 137.867 302 138.693 302 140V177.6C302 179.307 302.853 180.227 304.56 180.36L327.64 182.16C329.213 182.267 330 183.107 330 184.68V206.72C330.001 207.068 329.93 207.413 329.791 207.733C329.652 208.052 329.448 208.34 329.193 208.576C328.937 208.813 328.635 208.994 328.306 209.109C327.977 209.223 327.627 209.268 327.28 209.24L304.2 207.8C302.68 207.72 301.92 208.44 301.92 209.96C302 241.453 302.053 272.773 302.08 303.92C302.08 311.52 303.667 318.84 306.84 325.88Z" fill="white"/>
<path d="M163.2 338.04C197.48 321.56 187.8 215.08 182.4 180.92C180.64 169.853 174.173 160.933 163 154.16C215.64 133.92 200.64 285.2 197.68 305.12C195.48 319.92 183.64 349.04 163.2 338.04Z" fill="#024C1C"/>
<path d="M163 154.16C174.173 160.933 180.64 169.853 182.4 180.92C187.8 215.08 197.48 321.56 163.2 338.04C132.28 312.64 139.68 222.12 144.36 185.28C146.093 171.653 152.307 161.28 163 154.16Z" fill="#9FEF00"/>
<path d="M252.72 177.045L252.2 203.885C252.173 205.138 252.773 205.765 254 205.765H262.72C263.335 205.765 263.925 206.009 264.36 206.444C264.796 206.879 265.04 207.469 265.04 208.085C265.013 244.698 264.947 281.245 264.84 317.725C264.8 333.605 269.56 347.405 285.32 353.885C255.2 360.445 251.56 333.405 251.24 310.125C250.76 276.685 250.44 243.218 250.28 209.725C250.253 207.778 248.093 207.165 243.8 207.885L237.52 178.525C242.72 176.525 247.787 176.031 252.72 177.045Z" fill="#141D2B"/>
<path d="M329.6 322.445C320.96 327.671 313.373 328.738 306.84 325.645C315 322.151 322.587 321.085 329.6 322.445Z" fill="#141D2B"/>
</svg>
