<svg width="64" height="64" viewBox="0 0 64 64" fill="none" xmlns="http://www.w3.org/2000/svg">
<path fill-rule="evenodd" clip-rule="evenodd" d="M12.4213 18.312L11.2359 15.2827L9.71326 10.6854L15.4373 12.0614L17.3333 12.3907L20.6933 11.1907C23.9066 9.57736 27.4533 8.73736 31.0399 8.73736C31.9599 8.73736 32.8666 8.79069 33.7866 8.89736C35.2439 9.07336 36.5666 8.03203 36.7399 6.57069C36.9133 5.10936 35.8706 3.78003 34.4133 3.60403C33.2933 3.47069 32.1733 3.40403 31.0399 3.40403C26.6133 3.40403 22.2533 4.44403 18.2933 6.43069L17.6146 6.77336L4.91726 2.50936C2.61992 1.73869 1.39726 2.97203 2.19059 5.26269L6.39726 17.416L6.32259 17.5507C3.93592 21.8307 2.69592 26.644 2.69592 31.5374C2.66926 41.404 7.76259 50.6174 16.1359 55.844C17.3866 56.624 19.0359 56.244 19.8159 54.9974C20.5959 53.7494 20.2133 52.104 18.9626 51.324C12.1493 47.0707 8.01592 39.5774 8.02926 31.5374C8.02926 27.5507 9.04259 23.6307 10.9759 20.1374L12.4213 18.312ZM50.4079 45.2254L51.5933 48.2547L53.1159 52.852L47.3919 51.476L45.4959 51.1467L42.1359 52.3467C38.9226 53.96 35.3759 54.8 31.7893 54.8C30.8693 54.8 29.9626 54.7467 29.0426 54.64C27.5853 54.464 26.2613 55.5054 26.0893 56.9667C25.9159 58.428 26.9586 59.7574 28.4159 59.9334C29.5359 60.0667 30.6559 60.1334 31.7893 60.1334C36.2159 60.1334 40.5759 59.0934 44.5359 57.1067L45.2146 56.764L57.9119 61.0267C60.2093 61.7987 61.4306 60.5654 60.6386 58.2747L56.4319 46.1214L56.5066 45.9867C58.8933 41.7067 60.1333 36.8934 60.1333 32C60.1599 22.1334 55.0666 12.92 46.6933 7.69336C45.4426 6.91336 43.7933 7.29336 43.0133 8.54003C42.2333 9.78669 42.6159 11.4334 43.8666 12.2134C50.6799 16.4667 54.8133 23.96 54.7999 32C54.7999 35.9867 53.7866 39.9067 51.8533 43.4L50.4079 45.2254ZM45.9759 38.6747C45.9453 38.3414 45.7479 38.0507 45.4453 37.9147C43.4039 36.9774 41.3519 36.04 39.3106 35.1027C39.0813 34.9987 38.7999 35.0507 38.6333 35.248L35.8626 38.3734C35.6439 38.6227 35.2999 38.7067 34.9973 38.5814C33.5599 37.988 31.6226 36.988 29.6653 35.3C27.3213 33.2907 25.9466 31.1334 25.1759 29.728C25.5613 29.468 26.6133 28.6867 27.0813 27.2387C27.0813 27.228 27.0919 27.2174 27.0919 27.2174C27.3839 26.3214 27.3213 25.3534 26.9986 24.468C26.4466 22.9987 25.3426 20.1547 24.9146 19.7174C24.8426 19.6454 24.7586 19.572 24.7586 19.572C24.4466 19.2907 24.0399 19.1347 23.6133 19.1134C23.4666 19.1027 23.3106 19.1027 23.1439 19.1027C22.6653 19.0934 22.2386 19.0934 21.9253 19.1347C21.0399 19.26 20.3946 19.8534 19.9879 20.3534C19.4986 20.9467 18.9146 21.832 18.5293 22.9987C18.4986 23.1027 18.4679 23.1974 18.4359 23.3014C18.0093 24.78 18.0919 26.364 18.6026 27.8214C19.0813 29.1867 19.7799 30.8107 20.8319 32.5294C22.6133 35.4574 24.5506 37.2694 25.8626 38.4667C27.3426 39.832 29.1746 41.508 32.0813 42.904C34.7693 44.196 37.2066 44.6747 38.8413 44.8734C39.5079 44.936 40.7373 44.9454 42.1439 44.4147C42.7893 44.164 43.3306 43.8627 43.7679 43.54C44.9239 42.7174 45.7373 41.4774 45.9453 40.0814C45.9453 40.0707 45.9453 40.06 45.9453 40.0507C46.0186 39.5187 46.0079 39.0614 45.9759 38.6747Z" fill="#9FEF00"/>
</svg>
