<svg width="64" height="64" viewBox="0 0 64 64" fill="none" xmlns="http://www.w3.org/2000/svg">
<path d="M23.7678 10.6573C22.7972 11.228 21.5452 10.9053 20.9745 9.93464C20.4025 8.96397 20.7265 7.71197 21.6958 7.13997L32.0412 1.04797L63.3332 21.424V57.2546L51.5438 62.952L39.1958 57.2826V44.3346L46.9105 36.62V29.2466L31.9318 18.3706L15.5225 29.3013V36.552L24.7758 44.784V57.296L12.4278 62.856L0.666504 57.268V20.988L12.2918 12.688C13.2092 12.0333 14.4865 12.2466 15.1412 13.164C15.7945 14.0826 15.5812 15.3586 14.6638 16.0133L4.75584 23.1V54.6786L12.4692 58.3453L20.6878 54.652V46.6106L11.4332 38.3786V27.1213L32.0412 13.3826L50.9985 27.1746V38.3106L43.2852 46.024V54.6653L51.5025 58.4266L59.2438 54.692V23.632L31.9318 5.84531L23.7678 10.6573Z" fill="#9FEF00"/>
</svg>
