<svg width="64" height="64" viewBox="0 0 64 64" fill="none" xmlns="http://www.w3.org/2000/svg">
<path fill-rule="evenodd" clip-rule="evenodd" d="M29.1335 48C30.8802 47.84 32.6002 47.4667 34.2535 46.8667C36.3335 46.1067 38.2535 44.96 39.9202 43.5067C41.6135 42.0134 43.0402 40.24 44.1335 38.2667C45.2402 36.28 46.0668 34.1467 46.2882 33.2294C46.4602 32.5147 46.4482 31.356 46.2615 30.644C46.2535 30.6134 45.8268 29.3067 45.3202 28.04C44.8135 26.7867 44.1868 25.5734 43.4668 24.44C42.2268 22.48 40.6002 20.7867 38.6802 19.48C36.7202 18.2 34.5602 17.28 32.2935 16.7734C31.3735 16.56 30.4535 16.3867 29.5335 16.2667C29.8535 16.8667 30.1335 17.48 30.3868 18.1067C31.4268 20.8134 31.9735 23.6667 32.0002 26.5467C32.0002 28.0854 30.8108 29.3214 29.3468 29.3067C27.8828 29.292 26.6815 28.0854 26.6668 26.6134C26.6402 24.3734 26.2135 22.1467 25.4135 20.0534C24.6802 18.2134 23.5602 16.5467 22.1335 15.16C21.3602 14.4 21.1202 13.24 21.5335 12.24C21.9335 11.24 22.9202 10.5867 24.0002 10.5867H24.1335C27.2802 10.5467 30.4135 10.88 33.4668 11.5734C36.3735 12.2267 39.1468 13.4 41.6402 15.04C44.1735 16.76 46.3335 18.9867 47.9735 21.5867C48.8668 23 49.6402 24.4934 50.2668 26.04C51.0268 27.9334 51.6268 29.8934 51.7788 30.5787C51.9375 31.2974 51.9522 32.4667 51.8122 33.1894C51.4535 35.0267 50.3602 38.0534 48.8002 40.8534C47.4135 43.36 45.6002 45.6134 43.4535 47.5067C41.2802 49.4134 38.7735 50.8934 36.0668 51.88C33.1868 52.92 30.1468 53.44 27.0802 53.4134C23.9468 53.4134 20.8402 52.9334 20.8402 52.9334C19.1922 52.4187 19.3655 51.1814 21.2268 50.1734C21.2268 50.1734 23.8668 47.2267 25.2935 43.6667C26.1068 41.5734 26.5735 39.3734 26.6668 37.1334C26.6668 35.772 27.8855 34.672 29.3868 34.68C30.8882 34.688 32.0588 35.888 32.0002 37.36C31.8802 40.1867 31.2802 42.9867 30.2535 45.6267C29.9335 46.44 29.5602 47.2267 29.1335 48ZM4.00016 21.248H20.0002C21.4722 21.248 22.6668 22.4427 22.6668 23.9147C22.6668 25.3854 21.4722 26.5814 20.0002 26.5814H4.00016C2.52816 26.5814 1.3335 25.3854 1.3335 23.9147C1.3335 22.4427 2.52816 21.248 4.00016 21.248ZM57.3335 29.3334H60.0002C61.4722 29.3334 62.6668 30.528 62.6668 32C62.6668 33.472 61.4722 34.6667 60.0002 34.6667H57.3335C55.8615 34.6667 54.6668 33.472 54.6668 32C54.6668 30.528 55.8615 29.3334 57.3335 29.3334ZM4.00016 37.248H20.0002C21.4722 37.248 22.6668 38.4427 22.6668 39.9147C22.6668 41.3854 21.4722 42.5814 20.0002 42.5814H4.00016C2.52816 42.5814 1.3335 41.3854 1.3335 39.9147C1.3335 38.4427 2.52816 37.248 4.00016 37.248ZM32.0002 6.00002C24.7468 6.00002 17.8268 9.04002 12.9068 14.36C11.9055 15.4414 10.2148 15.5107 9.1335 14.5134C8.05216 13.516 7.9855 11.828 8.98683 10.7467C14.9202 4.32002 23.2668 0.666687 32.0002 0.666687C38.2002 0.666687 44.2535 2.50669 49.4135 5.94669C54.5602 9.40002 58.5868 14.2934 60.9602 20.0134C61.5188 21.3747 60.8708 22.9374 59.5135 23.5C58.1562 24.0627 56.5935 23.4147 56.0268 22.0534C54.0668 17.3067 50.7202 13.24 46.4535 10.3867C42.1735 7.53335 37.1468 6.00002 32.0002 6.00002ZM55.7735 42.52C56.3775 41.1734 57.9575 40.5667 59.3002 41.1667C60.6428 41.7667 61.2495 43.3414 60.6535 44.68C58.2002 50.2267 54.1735 54.9467 49.0935 58.2534C44.0135 61.5734 38.0668 63.3334 32.0002 63.3334C23.2402 63.3334 14.8668 59.6534 8.9335 53.2C7.94016 52.1187 8.01216 50.4307 9.0935 49.4334C10.1748 48.436 11.8602 48.5054 12.8535 49.5867C17.7735 54.9467 24.7335 58 32.0002 58C37.0402 58 41.9602 56.5334 46.1868 53.7867C50.4002 51.04 53.7335 47.1334 55.7735 42.52Z" fill="#9FEF00"/>
</svg>
