<svg width="64" height="64" viewBox="0 0 64 64" fill="none" xmlns="http://www.w3.org/2000/svg">
<path fill-rule="evenodd" clip-rule="evenodd" d="M35.6919 55.4973H63.6666V56.552H55.2226V57.608H61.5559V58.664H48.8893V59.7186H55.2226V60.7746H40.4439V61.8306H23.5559V60.7746H8.77725V59.7186H15.1106V58.664H2.44392V57.608H10.8893V56.552H0.333252V55.4973H29.2506H6.66659V54.4413H0.333252V53.3853H24.1319C23.1999 52.788 22.3279 52.088 21.5333 51.2933C18.6266 48.4 16.9999 44.4533 16.9999 40.3467C16.9999 36.3733 18.5333 32.5467 21.2666 29.68C23.9999 26.8 27.7466 25.08 31.7199 24.88C29.6533 27.0266 28.4933 29.88 28.4933 32.8533C28.4933 35.9066 29.7066 38.8266 31.8533 40.9733C34.0133 43.1333 36.9333 44.3466 39.9733 44.3466C42.9466 44.3466 45.8133 43.1867 47.9466 41.12C47.7466 45.0933 46.0399 48.8266 43.1599 51.5733C42.4426 52.2546 41.6666 52.86 40.8439 53.3853H63.6666V54.4413H57.3333V55.4973H35.6919ZM21.4439 61.8306H42.5559V62.8853H21.4439V61.8306ZM30.9719 14.852L31.5319 15.8746L32.5546 16.4346L31.5319 16.9946L30.9719 18.0186L30.4119 16.9946L29.3879 16.4346L30.4119 15.8746L30.9719 14.852ZM45.7439 23.188L46.3026 24.212L47.3266 24.772L46.3026 25.332L45.7439 26.3547L45.1839 25.332L44.1599 24.772L45.1839 24.212L45.7439 23.188ZM11.7333 25.5186L12.2933 26.5426L13.3159 27.1026L12.2933 27.6626L11.7333 28.6853L11.1733 27.6626L10.1493 27.1026L11.1733 26.5426L11.7333 25.5186ZM37.0746 29.644L37.6346 30.668L38.6586 31.2266L37.6346 31.7866L37.0746 32.8106L36.5146 31.7866L35.4919 31.2266L36.5146 30.668L37.0746 29.644ZM49.9439 32.2746L51.0639 34.3213L53.1106 35.4413L51.0639 36.5613L49.9439 38.608L48.8253 36.5613L46.7773 35.4413L48.8253 34.3213L49.9439 32.2746ZM39.3893 35.4413L40.1346 36.8053L41.4999 37.552L40.1346 38.2987L39.3893 39.664L38.6426 38.2987L37.2773 37.552L38.6426 36.8053L39.3893 35.4413ZM12.0079 42.8947L13.1279 44.9413L15.1746 46.0613L13.1279 47.18L12.0079 49.228L10.8893 47.18L8.84125 46.0613L10.8893 44.9413L12.0079 42.8947ZM7.72259 47.052C7.72259 48.8 6.30259 50.2186 4.55592 50.2186C2.80792 50.2186 1.38925 48.8 1.38925 47.052V23.5026C1.38925 21.2946 2.92525 18.58 4.81859 17.444L28.5919 3.17331C30.4839 2.03731 33.5479 2.05465 35.4279 3.21198L59.2053 17.848C61.0853 19.0053 62.6106 21.7373 62.6106 23.9453V47.052C62.6106 48.8 61.1919 50.2186 59.4439 50.2186C57.6973 50.2186 56.2773 48.8 56.2773 47.052V26.1586C56.2773 24.6866 55.2599 22.8666 54.0066 22.0946L34.2506 9.94265C32.9959 9.17198 30.9546 9.15998 29.6919 9.91731L10.0093 21.72C8.74659 22.476 7.72259 24.2867 7.72259 25.7573V47.052ZM24.5066 32.08C22.2666 34.24 20.9999 37.2267 20.9999 40.3467C20.9999 43.3867 22.2133 46.32 24.3599 48.4666C26.5199 50.6266 29.4399 51.84 32.4799 51.84C35.5999 51.84 38.5866 50.56 40.7466 48.32C40.4933 48.3333 40.2399 48.3466 39.9733 48.3466C35.8666 48.3466 31.9333 46.7066 29.0266 43.8C26.1199 40.9066 24.4933 36.96 24.4933 32.8533C24.4933 32.6 24.4933 32.3466 24.5066 32.08Z" fill="#9FEF00"/>
</svg>
