<svg width="64" height="64" viewBox="0 0 64 64" fill="none" xmlns="http://www.w3.org/2000/svg">
<path fill-rule="evenodd" clip-rule="evenodd" d="M55.2322 19.5867L39.8802 34.9547C37.7988 37.0373 34.9548 38.208 32.0002 38.208C29.0455 38.208 26.2015 37.0373 24.1202 34.9547L8.76816 19.5867V44.416L16.3695 36.8133C17.8162 35.3573 20.1682 35.3533 21.6202 36.804C23.0708 38.256 23.0668 40.608 21.6108 42.0547L15.8682 47.7973H48.1322L42.3895 42.0547C40.9335 40.608 40.9295 38.256 42.3802 36.804C43.8322 35.3533 46.1842 35.3573 47.6308 36.8133L55.2322 44.416V19.5867ZM15.8722 16.2027L29.3802 29.696C30.0668 30.3827 31.0148 30.7733 32.0002 30.7733C32.9855 30.7733 33.9335 30.3827 34.6202 29.696L48.1282 16.2027H15.8722ZM8.76816 8.76801H55.2322C59.3362 8.76801 62.6668 12.0987 62.6668 16.2027V47.7973C62.6668 51.9013 59.3362 55.232 55.2322 55.232H8.76816C4.66416 55.232 1.3335 51.9013 1.3335 47.7973V16.2027C1.3335 12.0987 4.66416 8.76801 8.76816 8.76801Z" fill="#9FEF00"/>
</svg>
