<svg width="64" height="64" viewBox="0 0 64 64" fill="none" xmlns="http://www.w3.org/2000/svg">
<path d="M39.4001 40.2066L36.8001 39.58L38.0534 34.3933L40.6401 35.02C42.5734 35.4866 44.4668 36.14 46.2668 36.9933C47.9068 37.7666 49.4534 38.74 50.8401 39.9133C52.1468 41.0066 53.2401 42.3266 54.0667 43.82C54.8934 45.3133 55.3201 46.98 55.3334 48.6866C55.2934 50.9533 54.5468 53.14 53.1734 54.94C52.5068 55.8466 51.7201 56.6866 50.8668 57.4066C49.9468 58.1933 48.9734 58.8733 47.9334 59.4733C45.6534 60.7666 43.2134 61.7266 40.6534 62.3266C37.8267 63.0066 34.9201 63.3533 32.0001 63.34C29.0801 63.3533 26.1734 63.0066 23.3467 62.3266C20.7867 61.7266 18.3467 60.7666 16.0667 59.4733C15.0267 58.8733 14.0534 58.1933 13.1334 57.4066C12.2801 56.6866 11.4934 55.8466 10.8267 54.94C9.45341 53.14 8.70675 50.9533 8.66675 48.6866C8.68008 47.06 9.08008 45.4466 9.84008 43.9933C10.6001 42.5533 11.6134 41.2733 12.8401 40.1933C14.1334 39.0466 15.5734 38.0733 17.1201 37.3C18.8001 36.4466 20.5601 35.7666 22.3867 35.2733L24.9467 34.5666L26.3601 39.7133L23.7867 40.42C22.3067 40.82 20.8801 41.3666 19.5201 42.06C18.3734 42.6333 17.3201 43.3533 16.3601 44.1933C15.6267 44.8466 15.0134 45.62 14.5467 46.4866C14.2001 47.1533 14.0134 47.9 14.0001 48.66C14.0267 49.78 14.4134 50.86 15.0934 51.74C15.5334 52.34 16.0267 52.8733 16.5867 53.3533C17.2534 53.9133 17.9601 54.4066 18.7067 54.8466C20.5467 55.8866 22.5201 56.66 24.5734 57.14C27.0134 57.7266 29.4934 58.02 32.0001 58.0066C34.5067 58.02 36.9867 57.7266 39.4267 57.14C41.4801 56.66 43.4534 55.8866 45.2934 54.8466C46.0401 54.4066 46.7468 53.9133 47.4134 53.3533C47.9734 52.8733 48.4667 52.34 48.9067 51.74C49.5867 50.86 49.9734 49.78 50.0001 48.66C49.9867 47.86 49.7867 47.0866 49.4001 46.3933C48.8934 45.4866 48.2268 44.6733 47.4134 44.0066C46.3734 43.1266 45.2267 42.3933 44.0001 41.82C42.5201 41.1266 40.9867 40.58 39.4001 40.2066Z" fill="#A4B1CD"/>
<path fill-rule="evenodd" clip-rule="evenodd" d="M31.3334 0.693367C30.9987 0.670701 30.6614 0.660034 30.3241 0.660034C26.1347 0.660034 22.1187 2.32137 19.1534 5.2867C16.1867 8.25337 14.5254 12.2694 14.5254 16.4587C14.5254 17.5694 14.6374 18.68 14.8721 19.7707L15.1881 21.2587L15.2014 21.256L31.3334 52.4014V45.3707L18.0654 20.06L17.8694 19.1294C17.6747 18.252 17.5841 17.356 17.5841 16.4587C17.5841 13.084 18.9294 9.83337 21.3147 7.44803C23.6987 5.0627 26.9507 3.71737 30.3241 3.71737C30.6614 3.71737 30.9974 3.7307 31.3334 3.7507C31.6694 3.7307 32.0054 3.71737 32.3427 3.71737C35.7161 3.71737 38.9681 5.0627 41.3521 7.44803C43.7374 9.83337 45.0827 13.084 45.0827 16.4587C45.0827 17.356 44.9921 18.252 44.7974 19.1294L44.6014 20.06L31.3334 45.3707V52.4014L47.4654 21.256L47.4787 21.2587L47.7947 19.7707C48.0294 18.68 48.1414 17.5694 48.1414 16.4587C48.1414 12.2694 46.4801 8.25337 43.5134 5.2867C40.5481 2.32137 36.5321 0.660034 32.3427 0.660034C32.0054 0.660034 31.6681 0.670701 31.3334 0.693367ZM25.8081 17.388C25.8081 15.9307 26.3947 14.5267 27.4214 13.488C28.4601 12.4494 29.8641 11.864 31.3334 11.864C32.8027 11.864 34.2067 12.4494 35.2454 13.488C36.2721 14.5267 36.8587 15.9307 36.8587 17.388C36.8587 18.8587 36.2721 20.2614 35.2454 21.3C34.2067 22.3387 32.8027 22.9134 31.3334 22.9134C29.8641 22.9134 28.4601 22.3387 27.4214 21.3C26.3947 20.2614 25.8081 18.8587 25.8081 17.388ZM21.3894 17.392C21.3894 11.904 25.8454 7.44803 31.3334 7.44803C36.8214 7.44803 41.2774 11.904 41.2774 17.392C41.2774 22.8814 36.8214 27.3374 31.3334 27.3374C25.8454 27.3374 21.3894 22.8814 21.3894 17.392Z" fill="#9FEF00"/>
</svg>
