<svg width="64" height="64" viewBox="0 0 64 64" fill="none" xmlns="http://www.w3.org/2000/svg">
<g clip-path="url(#clip0_62_4331)">
<path fill-rule="evenodd" clip-rule="evenodd" d="M32.0001 5.33329C28.1321 5.33329 24.4721 6.16396 21.1614 7.63329L25.3334 10.6666V14.2213L28.4454 17.3333H30.6667V15.5986L33.3334 13.3333V11.5546L34.6667 9.77863V5.46663C33.7894 5.37996 32.9001 5.33329 32.0001 5.33329ZM14.3667 12C9.23475 16.524 5.85608 22.9826 5.39341 30.2733L14.6667 38.2213V35.5546L12.4454 33.7786L15.1121 30.7106H16.8881L18.6667 32.4866L18.7214 29.1533L21.3334 26.6666H22.6667V24.888L25.3334 23.112V20.4453L22.9894 18.7213L18.6667 18.6666V22.6666H16.8881L14.6667 20.4453V18.6666L17.7787 16H20.0001V14.2213L18.6667 12H14.3667ZM45.3334 13.3333L42.6667 16V17.3773H45.3334V16.0266H46.7108V19.1226L45.8201 20H41.3334V21.3333H40.0001V24H36.0001V27.956H41.3334V26.7106H44.0001V27.5986L46.2214 29.3773H46.6667V28.4866L46.2214 27.5986V26.7106H48.0001L50.6667 29.3333H53.3334V29.7346L52.4454 30.6666H50.6667L58.0601 37.648C58.4494 35.828 58.6667 33.9413 58.6667 32C58.6667 24.7133 55.7641 18.1373 51.0601 13.3333H46.2214H45.3334ZM50.6667 30.6666H45.3334L44.0001 29.3333H38.2214L34.6667 32.888V36.4453L38.2214 40H40.8881L42.6667 41.7786V42.6666L44.0001 43.5546V48.888L48.0708 53.2733C50.0654 51.7666 51.8347 49.9906 53.3334 47.9893V41.7786L54.6667 40V36.4453L50.6667 32.4013V30.6666ZM5.89341 40.12C6.21741 41.172 5.62541 42.292 4.57341 42.62C3.52141 42.948 2.40408 42.3586 2.08008 41.3066C1.13341 38.2933 0.666748 35.16 0.666748 32C0.666748 23.6933 3.97341 15.72 9.84008 9.83996C15.7201 3.97329 23.6934 0.666626 32.0001 0.666626C40.3067 0.666626 48.2801 3.97329 54.1601 9.83996C60.0267 15.72 63.3334 23.6933 63.3334 32C63.3334 40.3066 60.0267 48.28 54.1601 54.16C48.2801 60.0266 40.3067 63.3333 32.0001 63.3333C28.7201 63.3333 25.4534 62.8266 22.3201 61.8133C21.2681 61.468 20.6907 60.3346 21.0334 59.2866C21.3761 58.2386 22.5081 57.6613 23.5601 58C26.2801 58.88 29.1334 59.3333 32.0001 59.3333C39.2401 59.3333 46.2001 56.4533 51.3334 51.3333C56.4534 46.2 59.3334 39.24 59.3334 32C59.3334 24.76 56.4534 17.8 51.3334 12.6666C46.2001 7.54663 39.2401 4.66663 32.0001 4.66663C24.7601 4.66663 17.8001 7.54663 12.6667 12.6666C7.54675 17.8 4.66675 24.76 4.66675 32C4.66675 34.7466 5.08008 37.4933 5.89341 40.12Z" fill="#9FEF00"/>
<path fill-rule="evenodd" clip-rule="evenodd" d="M13.1614 50.8387L29.6454 29.6454L31.876 31.876L34.3547 34.3547L13.1614 50.8387ZM50.8387 13.1614L29.6454 29.6454L34.3547 34.3547L50.8387 13.1614Z" fill="#A4B1CD"/>
</g>
<defs>
<clipPath id="clip0_62_4331">
<rect width="64" height="64" fill="white"/>
</clipPath>
</defs>
</svg>
