<svg width="512" height="512" viewBox="0 0 512 512" fill="none" xmlns="http://www.w3.org/2000/svg">
<path d="M256 508.314C395.349 508.314 508.314 395.349 508.314 256C508.314 116.651 395.349 3.68652 256 3.68652C116.651 3.68652 3.68652 116.651 3.68652 256C3.68652 395.349 116.651 508.314 256 508.314Z" fill="#141D2B"/>
<path d="M95.1299 134.144L256 227.738V292.352L129.843 219.238V276.07L145.511 284.57L146.227 353.382L95.1299 323.584V134.144Z" fill="#9FEF00"/>
<path d="M256 345.6V405.914L160.358 348.365V291.635L256 345.6Z" fill="#9FEF00"/>
<path d="M416.87 134.144L256 227.738V292.352L382.157 219.238V276.07L366.49 284.57L365.773 353.382L416.87 323.584V134.144Z" fill="#9FEF00"/>
<path d="M256 345.6V405.914L351.642 348.365V291.635L256 345.6Z" fill="#9FEF00"/>
</svg>
