<svg width="64" height="64" viewBox="0 0 64 64" fill="none" xmlns="http://www.w3.org/2000/svg">
<path d="M15.6801 38.84L17.1734 37.7734C17.1867 37.7734 17.1867 37.76 17.2001 37.76C18.6401 36.76 20.0534 35.7334 21.4401 34.6667C22.7201 33.68 23.9201 32.6134 25.0401 31.4534C26.1734 30.2667 27.1867 28.96 28.0534 27.56C29.0667 25.8934 29.9067 24.12 30.5601 22.28C31.4134 19.88 32.2001 17.4667 32.8934 15.0134C33.3601 13.3734 33.7867 11.7334 34.1734 10.0667C34.3601 9.26671 34.5601 8.46671 34.7734 7.66671C34.9734 6.93338 35.2001 6.20005 35.4801 5.49338C35.7867 4.74671 36.2534 4.08005 36.8534 3.53338C37.3867 3.05338 38.0001 2.65338 38.6534 2.36005C39.9067 1.81338 41.2534 1.54671 42.6267 1.56005C44.0001 1.54671 45.3601 1.82671 46.6267 2.36005C48.0534 2.96005 49.2534 4.01338 50.0267 5.34671C51.0801 7.24005 51.9601 9.24005 52.6267 11.3067C53.0534 12.6667 53.4001 14.04 53.6934 15.44C54.0667 17.2667 54.3867 19.1067 54.6401 20.96L56.0001 28L50.1467 25.3334L49.3601 21.7067C49.1201 19.96 48.8134 18.2267 48.4667 16.5067C48.2134 15.2934 47.9067 14.0934 47.5467 12.92C46.9867 11.2134 46.2667 9.56005 45.3867 8.00005C45.2001 7.66671 44.9067 7.41338 44.5601 7.28005C43.9467 7.01338 43.2801 6.88005 42.6134 6.89338C41.9867 6.88005 41.3734 7.00005 40.8134 7.24005C40.6667 7.30671 40.5467 7.38671 40.4401 7.49338C40.4267 7.49338 40.4267 7.49338 40.4267 7.49338C40.2267 8.00005 40.0667 8.52005 39.9334 9.04005C39.7334 9.78671 39.5467 10.5334 39.3601 11.2934C38.9601 13.0267 38.5067 14.7467 38.0267 16.4667C37.3067 19.0267 36.4801 21.56 35.5734 24.0667C34.8134 26.2534 33.8134 28.36 32.6001 30.3467C31.5334 32.08 30.2934 33.68 28.8801 35.1467C27.5734 36.4934 26.1734 37.7467 24.6934 38.8934C23.2401 40.0134 21.7601 41.0934 20.2534 42.1334L18.6267 43.28C18.6001 43.2934 18.5867 43.3067 18.5601 43.32C17.6401 43.9334 16.5601 44.2534 15.4667 44.2267C14.9067 44.2267 14.3467 44.1334 13.8267 43.96C13.4134 43.8 13.0267 43.5734 12.6801 43.28C12.4534 43.1067 12.2267 42.9067 12.0134 42.7067C11.4534 42.1867 10.9067 41.6667 10.3601 41.12C9.38673 40.1734 13.0801 36.3334 14.0934 37.32C14.6001 37.8267 15.1201 38.32 15.6401 38.8C15.6534 38.8134 15.6667 38.8267 15.6801 38.84Z" fill="#9FEF00"/>
<path fill-rule="evenodd" clip-rule="evenodd" d="M53.7934 38.2015C53.5747 38.1162 53.3547 38.0348 53.1334 37.9602C52.1734 37.6402 51.1734 37.4668 50.1467 37.4668C47.96 37.4668 45.84 38.2535 44.1734 39.6802C43.9334 39.9068 43.6934 40.1468 43.48 40.4135C43.2667 40.6668 43.0534 40.9335 42.8534 41.2002C42.2934 41.9335 41.7334 42.6668 41.1867 43.4135C40.1867 44.7602 39.1867 46.0935 38.16 47.4268C37.08 48.8268 35.9467 50.2002 34.76 51.5335C33.8267 52.6402 32.7867 53.6402 31.6667 54.5602C31.5067 54.6935 31.3467 54.8002 31.1867 54.9202C30.84 53.6668 30.4267 52.4402 29.9467 51.2268C29.3734 49.8402 28.72 48.4802 27.96 47.1735C27.1734 45.8002 26.28 44.4668 25.3067 43.2135C24.2534 41.8535 23.1067 40.5602 21.8934 39.3335L20.0134 37.4535L16.24 41.2135L18.12 43.1068C19.1734 44.1735 20.1734 45.2935 21.0934 46.4802C21.92 47.5468 22.6667 48.6668 23.3467 49.8402C23.9734 50.9335 24.5334 52.0668 25 53.2402C25.4534 54.3602 25.84 55.5202 26.1334 56.6935C26.3334 57.6802 26.8134 58.6002 27.4934 59.3602C28.2934 60.2002 29.4134 60.6668 30.5867 60.6535C31.4534 60.6135 32.3067 60.3868 33.0667 59.9868C33.7734 59.6268 34.4267 59.1868 35.04 58.6935C36.3867 57.5868 37.64 56.3602 38.7867 55.0402C40.0267 53.6268 41.2267 52.1735 42.3867 50.6802C43.4267 49.3202 44.4667 47.9602 45.48 46.5735C46.0134 45.8668 46.5467 45.1468 47.08 44.4535C47.2534 44.2268 47.44 44.0002 47.6134 43.7868C47.64 43.7468 47.68 43.7068 47.7067 43.6802C48.3867 43.1068 49.2534 42.8002 50.1334 42.8002C50.5734 42.8002 51.0134 42.8802 51.4267 43.0135C52.0267 43.2268 52.6 43.5202 53.12 43.8935C53.9067 44.4535 54.6134 45.1202 55.2534 45.8535C56.16 46.9202 56.9867 48.0802 57.7067 49.2935C58.4494 50.5588 60.084 50.9802 61.3534 50.2335C62.6227 49.4868 63.044 47.8522 62.2934 46.5868C62.124 46.2975 61.9494 46.0108 61.772 45.7255C60.3 41.7868 58.968 36.9815 57.7867 33.2535C57.12 31.1868 56.52 29.1068 55.96 27.0002C55.5067 25.2802 55.12 23.5468 54.8134 21.7868L53.3334 19.1602L49.56 19.9162V22.6935C49.8454 24.5922 50.2454 26.4588 50.8134 28.3735C51.3867 30.5468 52.0134 32.7202 52.7067 34.8668C53.06 35.9815 53.4267 37.0922 53.7934 38.2015ZM12.52 36.0402L16 38.6668L11.2934 41.8802L9.20003 40.2268L4.3067 36.3468C3.41337 35.6802 2.8667 34.6268 2.8667 33.5068C2.9067 32.1202 3.7867 30.8802 5.08003 30.3735L18.8 24.2668C20.1387 23.6628 21.7134 24.2668 22.3134 25.6135C22.9134 26.9602 22.3067 28.5375 20.96 29.1335L11.1907 33.4842C10.5187 33.7842 10.4427 34.3975 11.0187 34.8535L12.52 36.0402Z" fill="#9FEF00"/>
</svg>
