<svg width="64" height="65" viewBox="0 0 64 65" fill="none" xmlns="http://www.w3.org/2000/svg">
<g clip-path="url(#clip0_62_4320)">
<path fill-rule="evenodd" clip-rule="evenodd" d="M6.8735 6.98395C-0.531829 18.2893 -0.494495 29.6119 6.8735 40.8399C8.43617 42.6239 10.2295 44.2639 12.3002 45.6519C16.3295 48.3533 21.1415 50.1466 25.9042 50.0759C30.6655 50.0053 35.4002 48.0479 39.2028 43.2653C43.0922 38.3719 40.3202 30.9906 36.9148 29.0213C34.1615 27.7359 31.7468 29.8613 31.3895 31.2239C32.3775 30.7679 35.5735 30.5493 36.1548 32.4946C36.7655 37.0119 33.7935 40.9186 29.6095 41.3786C22.5442 42.1559 17.0295 35.1013 16.4642 28.4493C15.6682 19.0679 22.9028 9.69995 31.4442 7.01595C23.0868 -0.598721 14.9095 -0.596054 6.8735 6.98395ZM38.5442 14.5906C33.7815 14.6613 29.0468 16.6186 25.2455 21.4013C21.3562 26.2946 24.1268 33.8013 27.5322 35.7719C30.2855 37.0573 32.7002 34.9306 33.0575 33.5679C32.0708 34.0253 28.8868 34.0599 28.3055 32.1159C27.6948 27.5973 30.6535 23.7479 34.8375 23.2879C41.9042 22.5106 47.4188 29.5653 47.9828 36.2173C48.7802 45.5986 41.5442 54.9666 33.0042 57.6506C41.2615 66.5119 49.4775 66.5493 57.5735 57.6826C64.3522 45.4239 64.3775 34.1639 57.5735 23.8266C56.0122 22.0426 54.2175 20.4026 52.1468 19.0146C48.1175 16.3133 43.3055 14.5199 38.5442 14.5906Z" fill="#9FEF00"/>
</g>
<defs>
<clipPath id="clip0_62_4320">
<rect width="64" height="64" fill="white" transform="translate(0 0.333252)"/>
</clipPath>
</defs>
</svg>
