<svg width="64" height="64" viewBox="0 0 64 64" fill="none" xmlns="http://www.w3.org/2000/svg">
<path fill-rule="evenodd" clip-rule="evenodd" d="M13.0534 60.88C11.4934 59.8667 10.0401 58.72 8.69342 57.44C7.49342 56.2934 6.44009 55.0134 5.54675 53.6267C3.85342 50.9467 2.94675 47.8267 2.94675 44.6534C2.97342 42.3067 3.38675 39.9867 4.18675 37.7734C4.90675 35.7867 5.80009 33.8667 6.86675 32.0534C5.78675 30.0534 4.88009 27.9734 4.14675 25.8134C3.32009 23.4534 2.89342 20.9734 2.85342 18.4667C2.84009 15.2534 3.72009 12.0934 5.40009 9.36003C6.29342 7.92003 7.36009 6.5867 8.57342 5.41336C9.98675 4.05336 11.5334 2.84003 13.2001 1.7867C16.0534 0.76003 19.0534 0.213363 22.0801 0.20003C24.5468 0.186696 27.0001 0.586696 29.3201 1.37336C31.5468 2.13336 33.6268 3.28003 35.4401 4.7867C37.2401 6.28003 38.7468 8.1067 39.8534 10.16C40.5468 11.4667 41.0934 12.8534 41.4668 14.28C42.1201 14.2 42.7734 14.16 43.4268 14.16C47.9868 14.1867 52.3601 15.92 55.6934 19.0267C57.3468 20.5467 58.6801 22.3734 59.6401 24.4C60.6268 26.52 61.1468 28.8267 61.1468 31.16C61.1468 31.1867 61.1468 31.2134 61.1468 31.24L61.1201 31.9867C61.0668 34.5867 60.5601 37.16 59.6401 39.6C58.7468 41.8534 57.3601 43.8934 55.5868 45.56C53.7334 47.2267 51.5601 48.52 49.2134 49.3334C47.0401 50.08 44.7868 50.5734 42.5068 50.8134C41.6134 52.4534 40.6001 54.0134 39.4801 55.5067C38.2134 57.1867 36.7334 58.7067 35.0801 60.0134C33.5201 61.2267 31.7868 62.1867 29.9201 62.84C28.0801 63.48 26.1334 63.8134 24.1868 63.8C22.3601 63.7867 20.5334 63.5467 18.7734 63.0667C16.8001 62.5334 14.8801 61.8 13.0534 60.88ZM15.7068 56.24C14.5201 55.4534 13.4134 54.5734 12.3868 53.5867C11.4934 52.7334 10.7068 51.7867 10.0534 50.7467C8.89342 48.9334 8.28009 46.84 8.28009 44.6934C8.29342 42.9467 8.61342 41.2267 9.20009 39.5867C10.1601 36.9467 11.4934 34.4534 11.5801 34.3347C12.4521 33.1494 12.5014 31.1907 11.6894 29.9627C11.4934 29.6667 10.1601 26.9467 9.18675 24.08C8.56009 22.2667 8.21342 20.3467 8.18675 18.4134C8.18675 16.2134 8.78675 14.04 9.94675 12.1467C10.6001 11.0934 11.3868 10.12 12.2801 9.25336C13.2934 8.28003 14.3868 7.3867 15.5601 6.61336C17.6668 5.9067 19.8801 5.5467 22.1068 5.53336C23.9868 5.52003 25.8401 5.8267 27.6134 6.4267C29.2268 6.97336 30.7201 7.81336 32.0401 8.89336C33.3068 9.9467 34.3734 11.24 35.1601 12.68C36.6268 15.4534 37.1201 18.64 37.1201 18.64C36.8188 20.34 37.4641 21.0747 38.5601 20.28C38.5601 20.28 40.9601 19.4934 43.4134 19.4934C46.6268 19.52 49.7201 20.7467 52.0668 22.9334C53.2134 23.9867 54.1468 25.2534 54.8134 26.6667C55.4668 28.0667 55.8001 29.5867 55.8134 31.1334L55.7868 31.84C55.7868 31.8534 55.7868 31.8667 55.7868 31.8667C55.7468 33.8534 55.3734 35.8134 54.6668 37.6667C54.0668 39.1734 53.1468 40.52 51.9734 41.64C50.6668 42.8134 49.1334 43.72 47.4668 44.2934C44.7734 45.2134 41.9468 45.68 41.7734 45.6774C40.3014 45.6574 38.6468 46.6974 38.0801 48C38.0801 48 36.7734 50.24 35.2268 52.2934C34.2268 53.6134 33.0801 54.8 31.7734 55.8267C30.6934 56.68 29.4668 57.3467 28.1601 57.8134C26.8934 58.2534 25.5601 58.4667 24.2134 58.4667C22.8401 58.4534 21.4801 58.2667 20.1734 57.92C18.6268 57.5067 17.1334 56.9334 15.7068 56.24Z" fill="#9FEF00"/>
<path d="M25.4013 26.9C25.4013 28.3066 24.2586 29.4493 22.8519 29.4493C21.4439 29.4493 20.3013 28.3066 20.3013 26.9V22.1386C20.3013 17.448 23.4706 15.752 27.3746 18.3533L40.7706 27.2853C44.6746 29.8866 44.6746 34.1133 40.7706 36.7146L27.3746 45.6466C23.4706 48.248 20.3013 46.552 20.3013 41.8613V37.1C20.3013 35.6933 21.4439 34.5506 22.8519 34.5506C24.2586 34.5506 25.4013 35.6933 25.4013 37.1V40.8413L35.8333 33.8866C37.3946 32.8453 37.3946 31.1546 35.8333 30.1133L25.4013 23.1586V26.9Z" fill="#A4B1CD"/>
</svg>
