<svg width="64" height="65" viewBox="0 0 64 65" fill="none" xmlns="http://www.w3.org/2000/svg">
<path fill-rule="evenodd" clip-rule="evenodd" d="M16.2853 56.6186C17.8627 56.6186 19.1427 57.8986 19.1427 59.4759C19.1427 61.0533 17.8627 62.3333 16.2853 62.3333H9.14267C5.2 62.3333 2 59.1333 2 55.1906V48.0479C2 46.4706 3.28 45.1906 4.85733 45.1906C6.43467 45.1906 7.71467 46.4706 7.71467 48.0479V52.3333C7.71467 54.6986 9.63467 56.6186 12 56.6186H16.2853ZM7.71467 36.6186C7.71467 38.1959 6.43467 39.4759 4.85733 39.4759C3.28 39.4759 2 38.1959 2 36.6186V9.47592C2 5.53325 5.2 2.33325 9.14267 2.33325H34.2853C35.8627 2.33325 37.1427 3.61325 37.1427 5.19059C37.1427 6.76792 35.8627 8.04792 34.2853 8.04792H12C9.63467 8.04792 7.71467 9.96792 7.71467 12.3333V36.6186ZM56.2853 29.4759C56.2853 27.8986 57.5653 26.6186 59.1427 26.6186C60.72 26.6186 62 27.8986 62 29.4759V55.1906C62 59.1333 58.8 62.3333 54.8573 62.3333H29.1427C27.5653 62.3333 26.2853 61.0533 26.2853 59.4759C26.2853 57.8986 27.5653 56.6186 29.1427 56.6186H52C54.3653 56.6186 56.2853 54.6986 56.2853 52.3333V29.4759ZM47.7147 8.04792C46.1373 8.04792 44.8573 6.76792 44.8573 5.19059C44.8573 3.61325 46.1373 2.33325 47.7147 2.33325H54.8573C58.8 2.33325 62 5.53325 62 9.47592V16.6186C62 18.1959 60.72 19.4759 59.1427 19.4759C57.5653 19.4759 56.2853 18.1959 56.2853 16.6186V12.3333C56.2853 9.96792 54.3653 8.04792 52 8.04792H47.7147ZM32 30.5546C33.4733 30.5546 34.6693 31.7679 34.6693 33.2666C34.6693 34.7653 33.4733 35.9799 32 35.9799C30.5253 35.9799 29.3307 34.7653 29.3307 33.2666C29.3307 31.7679 30.5253 30.5546 32 30.5546ZM20.6933 17.6693C18.952 17.7239 17.2707 18.5106 15.9827 19.7013C14.6733 20.9119 13.7347 22.5759 13.5453 24.3653C13.4507 25.2586 13.5427 26.1759 13.8347 27.0253C14.1267 27.8746 14.62 28.6546 15.276 29.2586C16.0493 29.9706 17.016 30.4199 17.904 30.9773C18.348 31.2573 18.7773 31.5666 19.1453 31.9426C19.512 32.3186 19.8187 32.7653 19.9867 33.2666C20.1373 33.7133 20.1733 34.1959 20.1067 34.6639C20.04 35.1306 19.8693 35.5813 19.6213 35.9799C19.1267 36.7786 18.3267 37.3599 17.4507 37.6706C16.4333 38.0306 15.3133 38.0493 14.332 38.5026C13.556 38.8613 12.904 39.4879 12.4973 40.2479C12.0907 41.0093 11.9293 41.9026 12.028 42.7626C12.144 43.7746 12.62 44.7359 13.3333 45.4493C14.048 46.1639 14.992 46.6293 15.9827 46.7826C17.4347 47.0079 18.9867 46.5359 20.0413 45.4973C20.5693 44.9786 20.972 44.3293 21.196 43.6186C21.4213 42.9079 21.468 42.1373 21.3213 41.4066C21.2107 40.8479 20.9907 40.3186 20.7867 39.7879C20.584 39.2559 20.3933 38.7119 20.344 38.1453C20.2573 37.1426 20.6347 36.1226 21.2907 35.3679C21.9453 34.6133 22.86 34.1173 23.8267 33.8973C24.4507 33.7559 25.1 33.7239 25.7293 33.8346C26.36 33.9439 26.9693 34.1959 27.4787 34.5866C27.9893 34.9773 28.3973 35.5079 28.624 36.1159C28.8493 36.7226 28.8907 37.4053 28.7093 38.0279C28.524 38.6666 28.1267 39.2133 27.724 39.7373C27.3213 40.2613 26.9 40.7879 26.66 41.4066C26.396 42.0893 26.3707 42.8586 26.5507 43.5679C26.732 44.2786 27.1147 44.9293 27.6147 45.4573C28.168 46.0413 28.8693 46.4799 29.632 46.7186C30.3947 46.9586 31.1747 46.9999 31.9733 46.9999C32.772 46.9999 33.604 46.9586 34.3667 46.7186C35.1293 46.4799 35.8307 46.0413 36.384 45.4573C36.8853 44.9293 37.2667 44.2786 37.448 43.5679C37.6293 42.8586 37.6027 42.0893 37.3387 41.4066C37.0987 40.7879 36.6773 40.2613 36.2747 39.7373C35.872 39.2133 35.4747 38.6666 35.2893 38.0279C35.1093 37.4053 35.1493 36.7226 35.376 36.1159C35.6013 35.5079 36.0093 34.9773 36.52 34.5866C37.0307 34.1959 37.64 33.9439 38.2693 33.8346C38.8987 33.7239 39.5493 33.7559 40.172 33.8973C41.1387 34.1173 42.0533 34.6133 42.7093 35.3679C43.364 36.1226 43.7413 37.1426 43.6547 38.1453C43.6053 38.7133 43.4147 39.2559 43.212 39.7879C43.008 40.3186 42.7893 40.8479 42.6773 41.4066C42.532 42.1373 42.5773 42.9079 42.8027 43.6186C43.0267 44.3293 43.4293 44.9786 43.9573 45.4973C45.0133 46.5359 46.564 47.0079 48.016 46.7826C49.0067 46.6293 49.9507 46.1639 50.6653 45.4493C51.3787 44.7359 51.8547 43.7746 51.9707 42.7626C52.0693 41.9026 51.9093 41.0093 51.5013 40.2479C51.0947 39.4879 50.4427 38.8613 49.6667 38.5026C48.6867 38.0493 47.5653 38.0306 46.548 37.6706C45.672 37.3599 44.872 36.7786 44.3773 35.9799C44.1293 35.5813 43.9587 35.1306 43.892 34.6639C43.8253 34.1959 43.8627 33.7133 44.012 33.2666C44.18 32.7653 44.4867 32.3186 44.8547 31.9426C45.2213 31.5666 45.6507 31.2573 46.0947 30.9773C46.9827 30.4199 47.9493 29.9706 48.7227 29.2586C49.3787 28.6546 49.872 27.8746 50.164 27.0253C50.456 26.1759 50.5493 25.2586 50.4533 24.3653C50.264 22.5759 49.3253 20.9119 48.016 19.7013C46.728 18.5093 45.0467 17.7239 43.3053 17.6693C42.4347 17.6426 41.5587 17.7973 40.756 18.1413C39.9533 18.4853 39.228 19.0199 38.6733 19.7013C38.036 20.4839 37.6373 21.4333 37.2707 22.3773C36.904 23.3213 36.5587 24.2839 36.004 25.1279C35.0893 26.5186 33.6453 27.8413 31.9987 27.8413C30.3533 27.8413 28.9093 26.5186 27.9947 25.1279C27.44 24.2839 27.0947 23.3213 26.728 22.3773C26.3613 21.4333 25.9613 20.4839 25.3253 19.7013C24.7707 19.0199 24.0453 18.4853 23.2427 18.1413C22.44 17.7973 21.564 17.6426 20.6933 17.6693Z" fill="#9FEF00"/>
</svg>
