<svg width="48" height="49" viewBox="0 0 48 49" fill="none" xmlns="http://www.w3.org/2000/svg">
<path d="M8.54023 30.6533C8.99323 31.6573 8.54223 32.8383 7.53523 33.2883C6.52823 33.7383 5.34323 33.2833 4.89023 32.2733C3.64023 29.4733 2.99023 26.4333 2.99023 23.3633C2.99023 22.2733 3.08023 21.1733 3.24023 20.0933C4.01023 14.8833 6.64023 10.1233 10.6202 6.68326C14.6102 3.24326 19.7102 1.34326 24.9802 1.34326C26.0702 1.34326 27.1602 1.42326 28.2502 1.58326C33.4602 2.36326 38.2202 4.98326 41.6602 8.97326C45.1002 12.9633 47.0002 18.0533 47.0002 23.3233C47.0002 24.4233 46.9202 25.5133 46.7502 26.5933C45.9802 31.7833 43.3802 36.5233 39.4202 39.9633C35.4602 43.4033 30.4002 45.3133 25.1502 45.3433L24.0002 44.3333V42.3333L25.1302 41.3433C29.4202 41.3133 33.5602 39.7533 36.8002 36.9433C40.0402 34.1333 42.1702 30.2533 42.8002 26.0033C42.9302 25.1233 43.0002 24.2233 43.0002 23.3233C43.0002 19.0133 41.4402 14.8433 38.6302 11.5833C35.8102 8.32326 31.9202 6.17326 27.6602 5.54326C26.7702 5.41326 25.8702 5.34326 24.9802 5.34326C20.6702 5.34326 16.5002 6.89326 13.2402 9.71326C9.97023 12.5233 7.83023 16.4233 7.19023 20.6833C7.06023 21.5733 6.99023 22.4633 6.99023 23.3633C6.99023 25.8733 7.52023 28.3533 8.54023 30.6533Z" fill="#9FEF00"/>
<path d="M3 45.3333C1.896 45.3333 1 44.4373 1 43.3333C1 42.2293 1.896 41.3333 3 41.3333H23H26V45.3333H23H3Z" fill="#9FEF00"/>
<path d="M17.2129 27.7932L24.9299 19.9002L27.0009 25.9032L34.7869 18.8732" stroke="#9FEF00" stroke-width="3" stroke-miterlimit="3" stroke-linecap="round" stroke-linejoin="round"/>
</svg>
