<svg width="48" height="48" viewBox="0 0 48 48" fill="none" xmlns="http://www.w3.org/2000/svg">
<g clip-path="url(#clip0_10_461)">
<path d="M22.7954 1.83175C22.5183 1.88315 22.374 1.87713 22.0998 1.87788C21.0471 1.8797 18.5448 2.38569 17.5205 2.71953C15.5016 3.37747 13.5603 4.24983 11.7819 5.41842C7.82808 8.01647 4.81154 11.8254 3.15836 16.2533C2.62856 17.6723 2.08194 19.7928 1.93761 21.2964L1.82227 22.9194L1.85993 23.557V24.0787V24.7743C1.87093 25.5325 1.90049 26.2826 2.00194 27.035C2.60073 31.4781 4.61735 35.6586 7.61824 38.9759C9.86615 41.4604 12.7395 43.3702 15.8395 44.6101C17.502 45.275 19.1673 45.7092 20.9405 45.948L22.3896 46.1056H23.433L24.1866 46.163L25.4618 46.1056C26.5377 46.1035 28.3427 45.7647 29.4035 45.4952C33.1614 44.5439 36.8909 42.5013 39.6147 39.7335C40.5427 38.7909 41.4099 37.799 42.1722 36.7151C42.426 36.3542 42.8846 35.7621 42.9072 35.324C42.937 34.7373 42.4202 34.1426 41.8081 34.2417L39.7214 35.1257C38.4316 35.612 37.0857 35.9157 35.7217 36.0938L34.7943 36.1932L33.7509 36.2461C33.5022 36.2575 33.3956 36.212 33.1712 36.1954H32.6495C32.0038 36.1918 30.3414 35.9214 29.6933 35.7598C24.914 34.5705 20.4182 31.3151 19.1801 26.3387C19.0438 25.7921 18.8601 24.6856 18.8537 24.1361C18.845 23.3581 18.9934 22.5878 19.3093 21.8754C19.5099 21.4233 19.7881 21.0344 20.1052 20.6581C20.5713 20.1046 21.05 19.7487 21.694 19.4269C24.0098 18.2694 26.7608 18.9906 28.2418 21.1219C28.7989 21.9235 29.0418 22.7692 29.1183 23.7302L29.1594 24.194C29.1217 24.9019 28.7844 25.7718 28.4609 26.3967C27.908 27.4662 27.2929 27.6928 27.2611 28.4255C27.2205 29.3443 28.0198 29.9732 28.7658 30.3524C30.3205 31.143 31.8595 31.3846 33.577 31.5029L34.1566 31.5558C35.3067 31.5672 36.5077 31.5936 37.6346 31.3306C41.469 30.4483 44.514 27.7437 45.6907 23.9625C45.9631 23.0866 46.1544 22.0393 46.1555 21.1222V20.0789L46.0976 19.1514C46.0961 18.6227 45.9776 18.1034 45.8808 17.5863C45.5272 15.7031 44.6826 13.8424 43.7204 12.1956C42.6631 10.3859 41.4939 9.01435 39.9584 7.59193L39.6002 7.23667L38.562 6.43505C36.2208 4.67632 33.6181 3.44049 30.7946 2.68009C29.3814 2.29919 27.3184 1.89401 25.8676 1.87719L24.9981 1.83105L22.7954 1.83175ZM3.14503 18.9194C3.0233 18.554 3.37399 17.7393 3.48471 17.3544C3.94032 15.7713 4.68286 14.3082 5.50539 12.891C6.10244 11.861 6.66181 11.1393 7.40783 10.2246L7.85068 9.6449L8.7677 8.71755C11.6138 5.87138 15.1555 3.88898 19.0856 2.99924C20.0855 2.77247 21.85 2.46934 22.8534 2.45725H25.2879L26.3893 2.57328H26.911L29.3455 2.99889C33.0918 3.79993 36.6324 5.43214 39.4895 8.01223L40.2958 8.72286L41.0128 9.52921C42.0806 10.757 42.706 11.6467 43.4973 13.065C44.5041 14.8701 45.1696 16.7541 45.4182 18.8037L45.518 19.6732V21.2962C45.5174 21.7576 45.4107 22.3495 45.3105 22.8034C44.9575 24.4061 44.4619 25.5955 43.4677 26.9189C43.0753 27.4405 42.2076 28.3292 41.6923 28.7349C40.7723 29.4595 39.7185 29.9916 38.6201 30.3841C37.2822 30.8629 35.8528 30.9347 34.4465 30.9185L33.8669 30.8584H33.2872C32.0276 30.7306 30.3611 30.4549 29.2296 29.8892C28.7132 29.631 27.828 29.109 27.9179 28.4262C27.9613 28.0958 28.2709 27.8169 28.4686 27.5566C28.8262 27.086 29.0865 26.6559 29.3108 26.1074C29.6192 25.3522 29.7276 25.0136 29.7797 24.1946C29.8081 23.7465 29.716 23.2434 29.6528 22.8035L29.6099 22.3397C29.4894 21.5688 29.2668 20.7433 28.9717 20.0211C28.2437 18.2372 26.9516 16.6321 25.4619 15.4299C23.4151 13.7778 21.0901 12.8006 18.506 12.3647C17.9165 12.2653 17.3084 12.1444 16.7091 12.1376H14.9121C13.6578 12.1394 11.6945 12.5662 10.5067 12.989C8.26868 13.7854 6.19815 15.1256 4.60409 16.8907C3.93459 17.6315 3.66904 18.1172 3.14503 18.9194ZM28.3601 20.1366L27.0848 19.1339C26.2965 18.6273 25.2485 18.2256 24.3025 18.2238H23.6069C22.2888 18.2389 21.0338 18.9855 19.9551 19.6701C16.9229 21.5939 14.5556 24.8407 13.791 28.3679L13.4652 30.4546V31.0343L13.4055 31.6139L13.4606 32.2516L13.5377 33.4688C13.6409 34.2601 13.8385 35.0293 14.0808 35.7874C15.1132 39.0173 17.0863 41.6709 19.955 43.5143C20.7225 44.0076 22.0424 44.6359 22.9113 44.9257L24.7082 45.4098C24.437 45.5175 23.1704 45.4691 22.7954 45.4676L20.5347 45.2023C17.9013 44.7939 15.6082 43.9624 13.289 42.6518C10.8388 41.267 9.00592 39.6411 7.22521 37.4685C6.72729 36.861 6.23342 36.2268 5.82302 35.5556L4.66719 33.5268L4.27997 32.5993L3.98261 31.9619C3.66206 31.17 3.32296 30.0703 3.11429 29.2374L2.88358 28.0202C2.63665 26.8243 2.58448 26.1484 2.50217 24.9479L2.44942 24.2523L2.51318 23.151V22.5713C2.77055 20.5662 3.72003 18.6708 5.06773 17.1805C5.94649 16.2084 6.89307 15.4445 8.01412 14.7721C12.1581 12.2859 17.5669 12.0696 21.9838 13.9593C22.738 14.2817 23.3808 14.6532 24.0706 15.0909C25.4027 15.936 26.7341 17.2339 27.5729 18.5717C27.8419 18.9999 28.2674 19.6434 28.3601 20.1366ZM18.9117 21.18L18.5181 22.1075C18.292 22.7793 18.208 23.4882 18.2161 24.1944C18.2278 25.1622 18.492 26.4688 18.8137 27.3824C19.4513 29.1921 20.4797 30.8104 21.8198 32.1883L22.2638 32.5766L22.68 32.9786L23.375 33.4962C25.3581 34.9837 27.4512 35.919 29.8672 36.4495L31.7221 36.7923H32.0699L32.7075 36.8676C34.1288 36.9556 35.5374 36.7878 36.939 36.5675L37.3448 36.5202L37.7505 36.3966C38.5163 36.188 39.3423 35.9979 40.0692 35.682L41.0546 35.2492L41.6342 34.9816C41.8684 34.8962 42.1252 34.8614 42.2267 35.1539C42.3142 35.4045 42.0812 35.7092 41.9484 35.9052L40.7114 37.5862C39.7295 38.7623 38.6612 39.8491 37.4607 40.8039L36.997 41.1939C36.0545 41.8964 35.0111 42.4882 33.9828 43.0522C32.9684 43.6093 31.8914 44.0412 30.7947 44.4069C30.2869 44.5755 29.3954 44.8573 28.8818 44.9303L27.5486 45.0055C26.5829 45.007 25.6015 44.9715 24.6503 44.7848C22.7189 44.4013 20.5533 43.4479 19.0276 42.197C18.2237 41.5379 17.4092 40.6661 16.7676 39.847C16.0807 38.9694 15.537 37.9781 15.1179 36.9487C14.7898 36.1436 14.5428 35.4838 14.3458 34.6299C14.2223 34.0944 14.049 32.8522 14.0426 32.3113V30.8622L14.1423 29.8189C14.3875 27.9385 14.9515 26.232 15.9294 24.602C16.538 23.5875 17.0278 22.9505 17.8683 22.1095C18.197 21.7814 18.5071 21.4159 18.9117 21.18Z" stroke="#9FEF00" stroke-width="3.02362"/>
</g>
<defs>
<clipPath id="clip0_10_461">
<rect width="48" height="48" fill="white"/>
</clipPath>
</defs>
</svg>
