<svg width="64" height="65" viewBox="0 0 64 65" fill="none" xmlns="http://www.w3.org/2000/svg">
<path fill-rule="evenodd" clip-rule="evenodd" d="M27.7825 50.9999H13.3665C12.2438 50.9999 11.3332 51.8959 11.3332 52.9999C11.3332 54.1039 12.2438 54.9999 13.3665 54.9999H27.7825C28.5318 56.5759 30.1398 57.6666 31.9998 57.6666C33.8598 57.6666 35.4678 56.5759 36.2172 54.9999H50.6332C51.7558 54.9999 52.6665 54.1039 52.6665 52.9999C52.6665 51.8959 51.7558 50.9999 50.6332 50.9999H36.2172C35.4678 49.4239 33.8598 48.3333 31.9998 48.3333C30.1398 48.3333 28.5318 49.4239 27.7825 50.9999ZM31.3332 25.6666C31.3332 25.4933 31.3998 25.3199 31.5332 25.1999C31.6532 25.0666 31.8265 24.9999 31.9998 24.9999C32.1732 24.9999 32.3465 25.0666 32.4665 25.1999C32.5998 25.3199 32.6665 25.4933 32.6665 25.6666C32.6665 25.8399 32.5998 26.0133 32.4665 26.1333C32.3465 26.2666 32.1732 26.3333 31.9998 26.3333C31.8265 26.3333 31.6532 26.2666 31.5332 26.1333C31.3998 26.0133 31.3332 25.8399 31.3332 25.6666ZM32.5998 15.6799C31.8638 15.6359 31.3025 15.0053 31.3465 14.2733C31.3905 13.5413 32.0185 12.9826 32.7465 13.0266C35.9732 13.2133 38.9998 14.6266 41.2265 16.9733C43.4398 19.3333 44.6665 22.4399 44.6665 25.6666C44.6665 26.6533 44.5598 27.6266 44.3332 28.5733C44.1638 29.2946 43.4438 29.7426 42.7265 29.5733C42.0092 29.4039 41.5638 28.6866 41.7332 27.9733C41.9065 27.2133 41.9998 26.4399 41.9998 25.6666C41.9998 23.1199 41.0265 20.6666 39.2798 18.8133C37.5332 16.9466 35.1332 15.8399 32.5998 15.6799ZM4.6665 45.6666C4.6665 46.7706 3.7705 47.6666 2.6665 47.6666C1.5625 47.6666 0.666504 46.7706 0.666504 45.6666V6.33327C0.666504 3.38927 3.05584 0.999939 5.99984 0.999939H57.9998C60.9438 0.999939 63.3332 3.38927 63.3332 6.33327V32.3333C63.3332 33.4373 62.4372 34.3333 61.3332 34.3333C60.2292 34.3333 59.3332 33.4373 59.3332 32.3333V7.66661C59.3332 6.19461 58.1385 4.99994 56.6665 4.99994H7.33317C5.86117 4.99994 4.6665 6.19461 4.6665 7.66661V45.6666ZM27.3332 25.6666C27.3332 24.4266 27.8265 23.2399 28.7065 22.3733C29.5732 21.4933 30.7598 20.9999 31.9998 20.9999C33.2398 20.9999 34.4265 21.4933 35.2932 22.3733C36.1732 23.2399 36.6665 24.4266 36.6665 25.6666C36.6665 26.9066 36.1732 28.0933 35.2932 28.9599C34.4265 29.8399 33.2398 30.3333 31.9998 30.3333C30.7598 30.3333 29.5732 29.8399 28.7065 28.9599C27.8265 28.0933 27.3332 26.9066 27.3332 25.6666ZM17.3332 25.6666C17.3332 21.7733 18.8798 18.0399 21.6265 15.2933C24.3732 12.5466 28.1065 10.9999 31.9998 10.9999C35.8932 10.9999 39.6265 12.5466 42.3732 15.2933C45.1198 18.0399 46.6665 21.7733 46.6665 25.6666C46.6665 29.5599 45.1198 33.2933 42.3732 36.0399C39.6265 38.7866 35.8932 40.3333 31.9998 40.3333C28.1065 40.3333 24.3732 38.7866 21.6265 36.0399C18.8798 33.2933 17.3332 29.5599 17.3332 25.6666ZM13.3332 25.6666C13.3332 20.7199 15.3065 15.9733 18.7998 12.4666C22.3065 8.97327 27.0532 6.99994 31.9998 6.99994C36.9465 6.99994 41.6932 8.97327 45.1998 12.4666C48.6932 15.9733 50.6665 20.7199 50.6665 25.6666C50.6665 30.6133 48.6932 35.3599 45.1998 38.8666C41.6932 42.3599 36.9465 44.3333 31.9998 44.3333C27.0532 44.3333 22.3065 42.3599 18.7998 38.8666C15.3065 35.3599 13.3332 30.6133 13.3332 25.6666ZM59.3332 42.9999C59.3332 41.8959 60.2292 40.9999 61.3332 40.9999C62.4372 40.9999 63.3332 41.8959 63.3332 42.9999V58.3333C63.3332 61.2773 60.9438 63.6666 57.9998 63.6666H5.99984C3.05584 63.6666 0.666504 61.2773 0.666504 58.3333V56.3333C0.666504 55.2293 1.5625 54.3333 2.6665 54.3333C3.7705 54.3333 4.6665 55.2293 4.6665 56.3333V56.9999C4.6665 58.4719 5.86117 59.6666 7.33317 59.6666H56.6665C58.1385 59.6666 59.3332 58.4719 59.3332 56.9999V42.9999Z" fill="#9FEF00"/>
</svg>
