<svg width="64" height="64" viewBox="0 0 64 64" fill="none" xmlns="http://www.w3.org/2000/svg">
<g clip-path="url(#clip0_54_3556)">
<path fill-rule="evenodd" clip-rule="evenodd" d="M6.564 40H14.6667V17.3333L32 34.6667L49.3333 17.3333V40H57.4387C58.2533 37.4147 58.6667 34.72 58.6667 32C58.6667 24.9333 55.8533 18.1467 50.8533 13.1467C45.8533 8.14667 39.0667 5.33333 32 5.33333C24.9333 5.33333 18.1467 8.14667 13.1467 13.1467C8.14667 18.1467 5.33333 24.9333 5.33333 32C5.33333 34.7373 5.756 37.4333 6.564 40ZM54.2747 46.6667H42.6667V33.3333L32 44L21.3333 33.3333V46.6667H9.73333C10.72 48.1627 11.8613 49.568 13.1467 50.8533C18.1467 55.8533 24.9333 58.6667 32 58.6667C37.0933 58.6667 42.08 57.2 46.3733 54.4667C49.5307 52.4413 52.2227 49.776 54.2747 46.6667ZM62.0667 42.96L62.1733 43L61.3733 44.7467L60.6267 46.5467L60.5333 46.5067C57.8533 51.7733 53.76 56.1867 48.7333 59.28C43.6933 62.36 37.9067 64 32 64C23.52 64 15.3733 60.6267 9.37333 54.6267C3.37333 48.6267 0 40.48 0 32C0 23.52 3.37333 15.3733 9.37333 9.37333C15.3733 3.37333 23.52 0 32 0C40.48 0 48.6267 3.37333 54.6267 9.37333C60.6267 15.3733 64 23.52 64 32C64 35.7333 63.3467 39.44 62.0667 42.96C61.9333 43.3333 61.7867 43.7067 61.64 44.08L61.3733 44.7467L61.0533 45.4267C60.88 45.7867 60.7067 46.1467 60.5333 46.5067H60.52L62.0667 42.96Z" fill="#9FEF00"/>
</g>
<defs>
<clipPath id="clip0_54_3556">
<rect width="64" height="64" fill="white"/>
</clipPath>
</defs>
</svg>
