<svg width="64" height="64" viewBox="0 0 64 64" fill="none" xmlns="http://www.w3.org/2000/svg">
<g clip-path="url(#clip0_62_4299)">
<path d="M32.132 41.656C32.0227 42.0173 32.0427 42.4013 31.988 42.772C31.896 43.6613 31.828 44.556 31.5987 45.4253C31.5147 45.7933 31.3854 46.1507 31.2827 46.5133C31.532 46.996 31.6134 47.5293 31.668 48.06C31.7827 48.6773 31.8107 49.308 31.86 49.932C31.9 50.244 31.7347 50.64 32.012 50.8747C32.3267 50.9787 32.64 51.0907 32.9494 51.2107C32.9094 50.608 32.848 50.0067 32.8654 49.4013C32.84 48.8293 32.9347 48.2627 32.9787 47.6947C33.008 47.4187 33.008 47.1373 33.1187 46.8787C33.2027 46.632 33.3734 46.4227 33.492 46.192C33.3094 46.0693 33.1374 45.924 32.9787 45.7747C32.8414 45.46 32.6654 45.156 32.5534 44.832C32.2814 43.7973 32.1174 42.724 32.132 41.656Z" fill="#A4B1CD"/>
<path fill-rule="evenodd" clip-rule="evenodd" d="M32.0319 35.428C32.0719 29.744 32.0786 24.06 32.0319 18.376C32.0386 16.6653 32.0892 14.956 32.0319 13.252C32.5199 14.124 32.9012 15.0786 33.6359 15.796C36.3999 18.3533 38.5532 21.5333 39.7439 25.056C41.0386 28.4413 41.3119 32.1986 40.4826 35.716C39.6599 39.228 37.7679 42.5053 35.0172 44.948C34.4319 45.2866 33.6852 46.6693 33.0399 45.8373C32.3172 44.716 32.1226 43.3213 32.0319 42.028C32.1346 39.9853 32.0386 37.9413 32.0319 35.8946V42.028V42.4426C31.9332 43.4426 31.8226 44.4426 31.5999 45.4253C31.4386 46.0293 31.3372 47.004 30.6586 46.0053C26.2412 42.516 23.1359 37.2546 23.1079 31.66C23.1306 28.92 23.5559 26.1386 24.6346 23.596C24.9772 22.4946 25.5132 21.4786 26.1039 20.4866C26.9492 18.7773 28.2852 17.3573 29.6359 16.0053C30.4586 15.0466 31.9239 14.2733 32.0319 12.9253V13.252V18.376V35.428Z" fill="#9FEF00"/>
<path fill-rule="evenodd" clip-rule="evenodd" d="M34.1746 57.696C32.6092 57.828 31.4426 59.2093 31.5706 60.7786C31.6986 62.3466 33.0799 63.5133 34.6532 63.3813C42.5332 62.7253 49.8879 59.108 55.2252 53.256C60.5492 47.404 63.4746 39.748 63.4026 31.8333C63.3279 23.52 59.9466 15.5653 54.0186 9.72929C48.0759 3.90663 40.0612 0.671959 31.7479 0.746626C23.4346 0.821293 15.4799 4.20263 9.64389 10.1306C3.82122 16.072 0.585221 24.088 0.661221 32.4013C0.674555 33.9746 1.96522 35.2413 3.53855 35.2266C5.11322 35.2133 6.37856 33.924 6.36522 32.3493C6.30256 25.548 8.95322 18.992 13.7159 14.1293C18.4919 9.27996 24.9972 6.51196 31.7999 6.45063C38.6012 6.38929 45.1572 9.03863 50.0199 13.8013C54.8692 18.5773 57.6372 25.084 57.6986 31.8853C57.7572 38.3586 55.3759 44.6266 51.0119 49.4146C46.6492 54.2026 40.6292 57.152 34.1746 57.696ZM9.41056 44.2586C8.66522 42.872 6.93589 42.3506 5.54922 43.0946C4.16255 43.84 3.64122 45.5693 4.38655 46.956C7.56255 52.86 12.5546 57.6066 18.6119 60.4746C20.0346 61.1546 21.7386 60.5506 22.4146 59.128C23.0906 57.7053 22.4839 55.9986 21.0612 55.3186C16.0919 52.968 12.0212 49.0973 9.41056 44.2586Z" fill="#9FEF00"/>
</g>
<defs>
<clipPath id="clip0_62_4299">
<rect width="64" height="64" fill="white"/>
</clipPath>
</defs>
</svg>
