<svg width="64" height="65" viewBox="0 0 64 65" fill="none" xmlns="http://www.w3.org/2000/svg">
<g clip-path="url(#clip0_62_4285)">
<path fill-rule="evenodd" clip-rule="evenodd" d="M40.2933 6.98659C41.692 7.44259 43.1973 6.67859 43.6533 5.27992C44.1093 3.88125 43.3453 2.37592 41.9467 1.91992C38.7467 0.866585 35.4 0.333252 32.04 0.333252C20.9067 0.333252 10.5333 6.11992 4.72 15.6133C1.64 20.6266 0 26.4133 0 32.2933C0 43.4266 5.78667 53.7999 15.28 59.6133C20.2933 62.6933 26.0667 64.3333 31.96 64.3333C43.0933 64.3333 53.4667 58.5466 59.28 49.0533C62.36 44.0399 64 38.2666 64 32.3733C64 24.8533 61.36 17.5599 56.5467 11.7866C55.5973 10.6613 53.9093 10.5119 52.78 11.4533C51.6507 12.3946 51.504 14.0799 52.4533 15.2133C56.4667 20.0266 58.6667 26.0933 58.6667 32.3733C58.6667 37.2666 57.3067 42.0799 54.7333 46.2666C49.88 54.1733 41.24 58.9999 31.96 58.9999C27.0533 58.9999 22.2533 57.6399 18.0667 55.0666C10.16 50.2133 5.33333 41.5733 5.33333 32.2933C5.33333 27.3999 6.69333 22.5866 9.26667 18.3999C14.12 10.4933 22.76 5.66659 32.04 5.66659C34.84 5.66659 37.6267 6.10659 40.2933 6.98659ZM27.3347 46.5906C26.548 46.3346 25.7013 46.7639 25.4453 47.5506C25.188 48.3373 25.6187 49.1839 26.4053 49.4413C28.2053 50.0333 30.088 50.3333 31.9773 50.3333C38.24 50.3333 44.0747 47.0786 47.3453 41.7386C49.0773 38.9186 50 35.6639 50 32.3559C50 26.0933 46.7453 20.2586 41.4053 16.9879C38.5853 15.2559 35.3373 14.3333 32.0227 14.3333C25.76 14.3333 19.9253 17.5879 16.6547 22.9279C14.9227 25.7479 14 28.9959 14 32.3106C14 36.5413 15.4853 40.6439 18.192 43.8906C18.7267 44.5239 19.676 44.6079 20.3107 44.0786C20.9467 43.5479 21.0293 42.6013 20.4947 41.9639C18.2373 39.2559 17 35.8439 17 32.3106C17 29.5586 17.7653 26.8506 19.212 24.4959C21.9427 20.0479 26.8027 17.3333 32.0227 17.3333C34.7827 17.3333 37.4827 18.0986 39.8373 19.5453C44.2853 22.2759 47 27.1359 47 32.3559C47 35.1079 46.2347 37.8159 44.788 40.1706C42.0573 44.6186 37.1973 47.3333 31.9773 47.3333C30.4027 47.3333 28.8347 47.0853 27.3347 46.5906ZM41.28 33.3266L34.5093 37.1959L27.7387 41.0653C26.7787 41.6133 26 41.1613 26 40.0559V32.3333V24.6106C26 23.5053 26.7787 23.0533 27.7387 23.6013L34.5093 27.4706L41.28 31.3399C42.24 31.8879 42.24 32.7786 41.28 33.3266Z" fill="#9FEF00"/>
</g>
<defs>
<clipPath id="clip0_62_4285">
<rect width="64" height="64" fill="white" transform="translate(0 0.333252)"/>
</clipPath>
</defs>
</svg>
