<svg width="64" height="64" viewBox="0 0 64 64" fill="none" xmlns="http://www.w3.org/2000/svg">
<path fill-rule="evenodd" clip-rule="evenodd" d="M37.4709 1.45505C36.4456 0.716385 35.2015 0.313719 33.9216 0.333719C32.6416 0.360385 31.3882 0.707052 30.2816 1.32039L10.7215 11.5204C7.00155 13.4537 4.66822 17.3204 4.66822 21.5071V43.6271C4.62822 45.0671 5.13488 46.4671 6.09488 47.5471C7.08155 48.6137 8.49488 49.2137 9.96155 49.2004C10.6149 49.1871 11.2682 49.0804 11.8949 48.8671L16.2015 47.4271C17.8149 46.8937 19.2149 45.8671 20.2015 44.4804C21.2015 43.1071 21.7349 41.4537 21.7349 39.7604V23.1471L34.9749 16.4937L35.6549 48.8137H33.5216H20.3749C19.8549 48.8137 19.3482 48.8404 18.8282 48.8937C18.3615 48.9471 17.8949 49.0404 17.4415 49.1737C16.8815 49.3471 16.3615 49.6271 15.9215 50.0004C15.2149 50.6137 14.8015 51.4937 14.8149 52.4271C14.8282 53.1204 15.0415 53.7871 15.4415 54.3471C15.7082 54.7204 16.0282 55.0671 16.3882 55.3471C17.0815 55.8937 17.8282 56.3471 18.6282 56.7071L31.5616 62.8271C32.6282 63.3471 33.7882 63.6404 34.9749 63.6671C36.2029 63.6857 37.3976 63.3297 38.3962 62.6577L38.7349 62.5604L52.2682 58.6937C52.2949 58.6937 52.3082 58.6804 52.3215 58.6804C54.3215 58.0671 56.0682 56.8271 57.2949 55.1337C58.5749 53.4937 59.2949 51.4804 59.3349 49.3871C59.3349 49.3737 59.3349 49.3471 59.3349 49.3337V16.0004C59.3349 15.9871 59.3349 15.9871 59.3349 15.9737C59.3215 14.9204 59.1349 13.8804 58.7749 12.8937C58.4282 11.9204 57.9482 11.0137 57.3482 10.1737C56.7482 9.34705 56.0415 8.60039 55.2282 7.96039C54.4016 7.30705 53.4682 6.80039 52.4682 6.45372H52.4549L37.5082 1.46705L37.4709 1.45505ZM40.1389 7.97105L41.1416 56.3311L50.7749 53.5737C51.6949 53.2937 52.4815 52.7071 53.0415 51.9337C53.6415 51.1871 53.9749 50.2537 54.0015 49.3071V16.0137C54.0015 15.5604 53.9215 15.1204 53.7615 14.6937C53.5882 14.2004 53.3349 13.7204 53.0282 13.2937C52.7082 12.8671 52.3482 12.4804 51.9216 12.1471C51.5749 11.8671 51.1749 11.6537 50.7482 11.5071L40.1389 7.97105ZM10.0149 43.8537C10.0682 43.8537 10.1215 43.8404 10.1749 43.8137C10.1882 43.8137 10.1882 43.8137 10.2015 43.8137L14.5082 42.3737C15.6415 42.0004 16.4015 40.9337 16.4015 39.7604V22.5337C16.4015 21.0617 17.4682 19.3297 18.7842 18.6684L34.1349 10.9471L34.8549 10.5871L34.7882 7.22705C34.7882 7.21372 34.7882 7.20039 34.7882 7.18705C34.7749 6.86705 34.7349 6.53372 34.6282 6.22705C34.5882 6.09372 34.5082 5.96039 34.4149 5.84039C34.3082 5.73372 34.1749 5.66705 34.0149 5.66705C33.6015 5.68039 33.1882 5.80039 32.8282 6.00039C32.8149 6.01372 32.7882 6.01372 32.7749 6.02705L13.1882 16.2404C11.2282 17.2671 10.0015 19.2937 10.0015 21.5071V43.6671C10.0015 43.6937 10.0015 43.7337 10.0015 43.7604C10.0015 43.7871 10.0015 43.8271 10.0149 43.8537ZM35.7615 54.1471H33.5216H25.7082L33.8682 58.0137C33.8815 58.0271 33.9082 58.0404 33.9216 58.0404C34.2815 58.2271 34.6816 58.3204 35.0816 58.3337C35.2416 58.3337 35.3882 58.2671 35.5082 58.1604C35.5882 58.0537 35.6416 57.9337 35.6815 57.8137C35.7749 57.5071 35.8149 57.2004 35.8149 56.8804V56.7471L35.7615 54.1471Z" fill="#9FEF00"/>
</svg>
