<svg width="64" height="65" viewBox="0 0 64 65" fill="none" xmlns="http://www.w3.org/2000/svg">
<path fill-rule="evenodd" clip-rule="evenodd" d="M3.99984 16.3333H0.666504V14.3333V8.33327C0.666504 5.38927 3.05584 2.99994 5.99984 2.99994H57.9998C60.9438 2.99994 63.3332 5.38927 63.3332 8.33327V23.6666V25.6666H59.3332V23.6666V12.3333H54.6665V16.3333H51.9998H49.3332V12.3333H45.3332V16.3333H42.6665V20.3333H38.6665V16.3333H35.9998V20.3333H31.9998V16.3333V12.3333H29.3332V16.3333H25.3332V12.3333V9.66661H22.6665V12.3333V16.3333V20.3333H18.6665V16.3333H15.3332H11.9998V12.3333H9.33317V16.3333H4.6665H3.99984ZM25.6665 57.6666H7.33317C5.86117 57.6666 4.6665 56.4719 4.6665 54.9999V26.3333C4.6665 25.2293 3.7705 24.3333 2.6665 24.3333C1.5625 24.3333 0.666504 25.2293 0.666504 26.3333V56.3333C0.666504 59.2773 3.05584 61.6666 5.99984 61.6666H37.3332C38.8052 61.6666 39.9998 60.7706 39.9998 59.6666C39.9998 58.5626 38.8052 57.6666 37.3332 57.6666H25.6665ZM56.6665 57.6666C58.1385 57.6666 59.3332 56.4719 59.3332 54.9999V39.6666C59.3332 38.5626 60.2292 37.6666 61.3332 37.6666C62.4372 37.6666 63.3332 38.5626 63.3332 39.6666V56.3333C63.3332 59.2773 60.9438 61.6666 57.9998 61.6666H49.3332C47.8612 61.6666 46.6665 60.7706 46.6665 59.6666C46.6665 58.5626 47.8612 57.6666 49.3332 57.6666H56.6665Z" fill="#9FEF00"/>
<path fill-rule="evenodd" clip-rule="evenodd" d="M28.9468 35.4532C28.5068 35.0266 28.0668 34.5999 27.6135 34.1866C26.7068 33.3199 25.7468 32.5199 24.7335 31.7732C23.8668 31.1466 22.9468 30.6132 21.9602 30.1999C21.1202 29.8532 20.2135 29.6799 19.3068 29.6666C18.7868 29.6666 18.2802 29.4399 17.9068 29.0666C17.5335 28.6932 17.3335 28.1732 17.3335 27.6399C17.3335 27.1199 17.5602 26.6132 17.9335 26.2399C18.3068 25.8666 18.8268 25.6666 19.3602 25.6666C20.7735 25.6799 22.1735 25.9599 23.4802 26.5066C24.7735 27.0399 25.9868 27.7332 27.1068 28.5599C28.2402 29.3999 29.3335 30.3066 30.3602 31.2799C30.8135 31.7066 31.2668 32.1332 31.7202 32.5732C32.0535 32.2399 32.3868 31.9066 32.7335 31.5732C33.7868 30.5466 34.9202 29.5866 36.1202 28.7066C37.3335 27.8132 38.6535 27.0799 40.0535 26.5332C41.5202 25.9732 43.0802 25.6666 44.6668 25.6666C47.3202 25.6666 49.8668 26.7199 51.7335 28.5999C53.6135 30.4666 54.6668 33.0132 54.6668 35.6666C54.6668 38.3199 53.6135 40.8666 51.7335 42.7466C49.8535 44.6132 47.3068 45.6666 44.6535 45.6666C43.2402 45.6532 41.8268 45.3732 40.5202 44.8266C39.2268 44.2932 38.0135 43.5999 36.8935 42.7732C35.7602 41.9332 34.6668 41.0266 33.6402 40.0532C33.0135 39.4666 32.3868 38.8799 31.7735 38.2666C31.1068 38.9599 30.4402 39.6399 29.7468 40.3066C28.8002 41.2399 27.8002 42.1066 26.7335 42.9066C25.6802 43.7066 24.5335 44.3599 23.3202 44.8666C22.0535 45.3866 20.7068 45.6532 19.3468 45.6666C18.8135 45.6666 18.3068 45.4666 17.9335 45.0932C17.5468 44.7199 17.3335 44.2132 17.3335 43.6799C17.3335 43.1466 17.5335 42.6399 17.9068 42.2666C18.2802 41.8799 18.7868 41.6666 19.3202 41.6666C20.1735 41.6666 21.0135 41.4932 21.8002 41.1732C22.6935 40.7999 23.5468 40.3066 24.3202 39.7199C25.2535 39.0266 26.1202 38.2666 26.9468 37.4532C27.6268 36.7999 28.2935 36.1332 28.9468 35.4532ZM34.5602 35.3999C35.1602 35.9866 35.7735 36.5732 36.3868 37.1466C37.2935 38.0132 38.2535 38.8132 39.2668 39.5599C40.1335 40.1866 41.0535 40.7199 42.0402 41.1332C42.8802 41.4799 43.7735 41.6532 44.6802 41.6666C46.2668 41.6666 47.7868 41.0266 48.9068 39.9066C50.0402 38.7866 50.6668 37.2532 50.6668 35.6666C50.6668 34.0799 50.0402 32.5466 48.9068 31.4266C47.7868 30.3066 46.2668 29.6666 44.6668 29.6666C43.5868 29.6666 42.5202 29.8666 41.5068 30.2666C40.4402 30.6799 39.4135 31.2399 38.4935 31.9332C37.4402 32.6932 36.4535 33.5332 35.5202 34.4399C35.2002 34.7599 34.8802 35.0799 34.5602 35.3999Z" fill="#9FEF00"/>
<path d="M44.5202 25.6666C45.0535 25.6666 45.5602 25.8666 45.9468 26.2399C46.3202 26.6132 46.5335 27.1199 46.5335 27.6532C46.5335 28.1866 46.3335 28.6932 45.9602 29.0799C45.5868 29.4532 45.0802 29.6666 44.5468 29.6666C43.4935 29.6666 42.4668 29.8666 41.4935 30.2532C40.4402 30.6666 39.4535 31.2266 38.5468 31.8932C37.5068 32.6532 36.5335 33.4932 35.6135 34.3866C34.6135 35.3599 33.6402 36.3466 32.6802 37.3599C31.7468 38.3466 30.8002 39.3066 29.8402 40.2532C28.8802 41.1999 27.8668 42.0799 26.7868 42.8799C25.7335 43.6799 24.5735 44.3466 23.3468 44.8666C22.0802 45.3866 20.7202 45.6532 19.3468 45.6666C16.6935 45.6666 14.1468 44.6132 12.2668 42.7466C10.3868 40.8666 9.3335 38.3199 9.3335 35.6666C9.3335 33.0132 10.3868 30.4666 12.2668 28.5999C14.1335 26.7199 16.6802 25.6666 19.3335 25.6666C19.8668 25.6666 20.3735 25.8799 20.7468 26.2532C21.1202 26.6266 21.3335 27.1332 21.3335 27.6666C21.3335 28.1999 21.1202 28.7066 20.7468 29.0799C20.3735 29.4532 19.8668 29.6666 19.3335 29.6666C17.7468 29.6666 16.2135 30.2932 15.0935 31.4266C13.9602 32.5466 13.3335 34.0799 13.3335 35.6666C13.3335 37.2532 13.9602 38.7866 15.0935 39.9066C16.2135 41.0266 17.7335 41.6666 19.3202 41.6666C20.1868 41.6532 21.0268 41.4932 21.8268 41.1599C22.7335 40.7866 23.5868 40.2932 24.3735 39.6932C25.3202 38.9866 26.2002 38.2266 27.0402 37.3999C27.9602 36.4932 28.8802 35.5599 29.7735 34.6132C30.7602 33.5599 31.7868 32.5332 32.8135 31.5199C33.8668 30.5066 34.9868 29.5466 36.1602 28.6799C37.3468 27.7999 38.6535 27.0799 40.0135 26.5332" fill="#9FEF00"/>
</svg>
