<svg width="64" height="64" viewBox="0 0 64 64" fill="none" xmlns="http://www.w3.org/2000/svg">
<path fill-rule="evenodd" clip-rule="evenodd" d="M39.1663 19.8158C39.1663 17.0478 41.4143 14.7998 44.1837 14.7998C46.9517 14.7998 49.1997 17.0478 49.1997 19.8158C49.1997 22.5851 46.9517 24.8331 44.1837 24.8331C41.4143 24.8331 39.1663 22.5851 39.1663 19.8158ZM9.06634 37.5904L22.0357 26.7718C24.465 24.7438 28.2543 24.9171 30.4903 27.1558L36.1797 32.8531C37.2983 33.9718 39.321 34.2438 40.6943 33.4584L53.689 26.0318C54.3757 25.6398 54.933 24.6784 54.933 23.8878V15.5171C54.933 13.1438 53.0063 11.2158 50.633 11.2158H13.3663C10.993 11.2158 9.06634 13.1438 9.06634 15.5171V37.5904ZM54.933 38.4504C54.933 36.8678 56.217 35.5838 57.7997 35.5838C59.3823 35.5838 60.6663 36.8678 60.6663 38.4504V51.3504C60.6663 55.3051 57.4557 58.5171 53.4997 58.5171H10.4997C6.54367 58.5171 3.33301 55.3051 3.33301 51.3504V12.6491C3.33301 8.69442 6.54367 5.48242 10.4997 5.48242H53.4997C57.4557 5.48242 60.6663 8.69442 60.6663 12.6491V25.7784C60.6663 27.3611 59.5517 29.2824 58.177 30.0678L42.2383 39.1744C39.4903 40.7438 35.4423 40.2038 33.2037 37.9678L28.1223 32.8931C27.0037 31.7758 25.1077 31.6891 23.8917 32.7024L10.901 43.5238L9.06634 45.0424V48.4838C9.06634 50.8558 10.993 52.7838 13.3663 52.7838H50.633C53.0063 52.7838 54.933 50.8558 54.933 48.4838V38.4504Z" fill="#9FEF00"/>
</svg>
