<svg width="48" height="49" viewBox="0 0 48 49" fill="none" xmlns="http://www.w3.org/2000/svg">
<path d="M16.263 41.3443C16.788 41.3443 17.292 41.5273 17.668 41.8583C18.034 42.1813 18.242 42.6263 18.242 43.0883C18.242 43.5513 18.034 43.9963 17.668 44.3183C17.292 44.6503 16.788 44.8333 16.263 44.8333H7.253C3.664 44.8333 0.75 41.9193 0.75 38.3303V10.3363C0.75 6.74725 3.664 3.83325 7.253 3.83325H40.747C44.336 3.83325 47.25 6.74725 47.25 10.3363V38.3303C47.25 41.9193 44.336 44.8333 40.747 44.8333H31.737C31.212 44.8333 30.708 44.6503 30.332 44.3183C29.966 43.9963 29.758 43.5513 29.758 43.0883C29.758 42.6263 29.966 42.1813 30.332 41.8583C30.708 41.5273 31.212 41.3443 31.737 41.3443H38.648C41.211 41.3443 43.293 39.2623 43.293 36.6993V11.9673C43.293 9.40425 41.211 7.32225 38.648 7.32225H9.352C6.789 7.32225 4.707 9.40425 4.707 11.9673V36.6993C4.707 39.2623 6.789 41.3443 9.352 41.3443H16.263Z" fill="#9FEF00"/>
<path fill-rule="evenodd" clip-rule="evenodd" d="M32.584 27.6082L19.919 34.3132C17.48 35.6052 15.5 34.4132 15.5 31.6532V17.0132C15.5 14.2532 17.48 13.0612 19.919 14.3532L32.584 21.0582C35.998 22.8652 35.998 25.8012 32.584 27.6082ZM25.811 26.6722L23.919 27.6742C21.48 28.9652 19.5 27.7732 19.5 25.0132V23.6532C19.5 20.8932 21.48 19.7012 23.919 20.9922L25.811 21.9942C28.25 23.2852 28.25 25.3812 25.811 26.6722Z" fill="#9FEF00"/>
</svg>
