<svg width="64" height="64" viewBox="0 0 64 64" fill="none" xmlns="http://www.w3.org/2000/svg">
<g clip-path="url(#clip0_1_35)">
<path fill-rule="evenodd" clip-rule="evenodd" d="M22.6667 26.6507C19.7093 26.6507 17.92 28.4853 17.24 30.1453C16.5587 31.8067 16.6693 33.3907 16.6693 33.3907L16.6667 33.3173V46.6667C16.6667 47.4027 17.264 48 18 48C18.736 48 19.3333 47.4027 19.3333 46.6667V33.2813L19.3307 33.2453C19.3307 33.2453 19.2933 32.1627 19.7053 31.156C20.1187 30.1507 20.6653 29.3173 22.6667 29.3173C24.668 29.3173 25.212 30.1507 25.6253 31.156C26.0373 32.1627 26.0027 33.2453 26.0027 33.2453L26 33.2813V33.3147L25.9947 38.6667H26V46.6507C26 47.3867 26.5973 47.984 27.3333 47.984C28.0693 47.984 28.6667 47.3867 28.6667 46.6507V33.2813L28.6613 33.2453C28.6613 33.2453 28.624 32.1627 29.036 31.156C29.4493 30.1507 29.9987 29.3173 32 29.3173C34.0013 29.3173 34.5453 30.1507 34.9587 31.156C35.3707 32.1627 35.336 33.2453 35.336 33.2453L35.3307 33.2813V41.3333L35.336 41.26C35.336 41.26 35.2253 42.844 35.9067 44.5053C36.5867 46.1653 38.376 48 41.3333 48C44.2907 48 46.0787 46.1653 46.76 44.5053C47.4413 42.844 47.3307 41.26 47.3307 41.26L47.3333 41.3333V28C47.3333 27.264 46.736 26.6667 46 26.6667C45.264 26.6667 44.6667 27.264 44.6667 28V41.3693L44.6693 41.4067C44.6693 41.4067 44.704 42.4893 44.292 43.4947C43.8787 44.5013 43.3347 45.3333 41.3333 45.3333C39.332 45.3333 38.7853 44.5013 38.372 43.4947C37.96 42.4893 37.9973 41.4067 37.9973 41.4067L38 41.3693V33.3173L37.9973 33.3907C37.9973 33.3907 38.108 31.8067 37.4267 30.1453C36.7467 28.4853 34.9573 26.6507 32 26.6507C29.8107 26.6507 28.2667 27.656 27.3333 28.852C26.4 27.656 24.8547 26.6507 22.6667 26.6507Z" fill="#9FEF00" stroke="#9FEF00" stroke-width="1.33333"/>
<path fill-rule="evenodd" clip-rule="evenodd" d="M6.364 33.9107C6.24666 32.344 4.876 31.1653 3.30533 31.28C1.736 31.3933 0.55733 32.764 0.674664 34.3387C1.26 42.224 4.81066 49.6107 10.6147 55.0013C16.4173 60.3773 24.0467 63.372 31.9613 63.372C40.2747 63.372 48.26 60.064 54.1493 54.188C60.0253 48.2987 63.3333 40.3133 63.3333 32C63.3333 23.6867 60.0253 15.7013 54.1493 9.81199C48.26 3.93599 40.2747 0.627991 31.9613 0.627991C30.3867 0.627991 29.1093 1.90532 29.1093 3.47999C29.1093 5.05466 30.3867 6.33199 31.9613 6.33199C38.7627 6.33199 45.2947 9.04132 50.1147 13.8467C54.92 18.6667 57.6293 25.1973 57.6293 32C57.6293 38.8027 54.92 45.3333 50.1147 50.1533C45.2947 54.9587 38.7627 57.668 31.9613 57.668C25.4867 57.668 19.2413 55.2293 14.4933 50.8227C9.744 46.4173 6.84933 40.3707 6.364 33.9107ZM20.0253 9.26932C21.4187 8.53732 21.956 6.81199 21.224 5.41866C20.492 4.02666 18.7667 3.48932 17.3733 4.22132C11.4413 7.34399 6.64933 12.292 3.72666 18.324C3.03333 19.7413 3.62133 21.4507 5.03866 22.1387C6.45466 22.828 8.168 22.2373 8.86 20.82C11.256 15.872 15.1627 11.836 20.0253 9.26932Z" fill="#9FEF00"/>
<path fill-rule="evenodd" clip-rule="evenodd" d="M39.3333 23.26C39.3333 22.156 40.2293 21.26 41.3333 21.26C42.4373 21.26 43.3333 22.156 43.3333 23.26C43.3333 24.364 42.4373 25.26 41.3333 25.26C40.2293 25.26 39.3333 24.364 39.3333 23.26ZM38.6667 20.56C38.652 21.664 37.744 22.5507 36.64 22.54C35.536 22.5293 34.652 21.624 34.6667 20.52C34.6933 18.76 35.4 17.08 36.64 15.8533C37.8933 14.6133 39.5733 13.92 41.3333 13.92C43.0933 13.92 44.7867 14.6267 46.04 15.88C47.2933 17.12 48 18.8133 48 20.5733C48 21.6773 47.104 22.576 46 22.58C44.896 22.584 44 21.6907 44 20.5867C44 19.88 43.72 19.2 43.2133 18.7067C42.72 18.2133 42.04 17.92 41.3333 17.92C40.6267 17.92 39.96 18.2 39.4533 18.6933C38.96 19.1867 38.68 19.8667 38.6667 20.56Z" fill="#9FEF00"/>
</g>
<defs>
<clipPath id="clip0_1_35">
<rect width="64" height="64" fill="white"/>
</clipPath>
</defs>
</svg>
