<svg width="64" height="65" viewBox="0 0 64 65" fill="none" xmlns="http://www.w3.org/2000/svg">
<path fill-rule="evenodd" clip-rule="evenodd" d="M8.0013 30.5466C7.89064 32.0106 6.60664 33.1133 5.1373 33.0066C3.66797 32.8999 2.56397 31.6186 2.67464 30.1466C3.2213 22.7733 6.5453 15.8666 11.9786 10.8266C17.412 5.79994 24.5546 2.99994 31.964 2.99994C39.7466 2.99994 47.2226 6.09327 52.736 11.5866C58.236 17.0933 61.3333 24.5599 61.3333 32.3333C61.3333 40.1066 58.236 47.5733 52.736 53.0799C47.2226 58.5733 39.7466 61.6666 31.964 61.6666C30.4906 61.6666 29.2933 60.4719 29.2933 58.9999C29.2933 57.5279 30.4906 56.3333 31.964 56.3333C38.332 56.3333 44.4453 53.7999 48.9586 49.3066C53.4573 44.7999 55.9933 38.6933 55.9933 32.3333C55.9933 25.9733 53.4573 19.8666 48.9586 15.3599C44.4453 10.8666 38.332 8.33327 31.964 8.33327C25.9026 8.33327 20.056 10.6133 15.6106 14.7333C11.1653 18.8533 8.45464 24.5066 8.0013 30.5466ZM20.7893 53.5866C22.0946 54.2706 22.596 55.8839 21.912 57.1866C21.2266 58.4893 19.6106 58.9906 18.3066 58.3066C12.7533 55.3866 8.26797 50.7599 5.53064 45.1199C4.88264 43.7959 5.4333 42.1973 6.75997 41.5533C8.0853 40.9093 9.6893 41.4626 10.3373 42.7866C12.58 47.4133 16.2373 51.1866 20.7893 53.5866ZM46.7533 46.8906C46.5546 46.7613 45.4693 46.1426 44.3413 45.5133C41.9933 44.2053 39.6506 42.2039 39.6506 41.5039C39.6506 40.8826 40.4186 40.3866 41.5933 40.2479C42.156 40.1826 42.8946 40.0733 43.2346 40.0079L43.852 39.8866L42.9373 39.2186C42.0706 38.5866 41.4013 38.2719 39.436 37.5786C38.164 37.1306 37.2413 36.0839 36.2013 33.9133C33.492 28.2586 32.9906 27.3293 32.0693 26.2613C31.0333 25.0613 29.5373 23.8093 27.528 22.4626C25.556 21.1399 25.248 21.0213 23.8253 21.0213C22.692 21.0213 22.4533 20.9586 21.748 20.4746C20.6333 19.7119 19.5266 19.2399 18.84 19.2359C17.956 19.2293 18.06 19.8613 19.1706 21.2333C20.248 22.5639 20.5026 23.0213 21.0386 24.5893C21.26 25.2346 21.8573 26.4839 22.3653 27.3653C22.8733 28.2466 23.2893 29.0466 23.2893 29.1413C23.2893 29.2359 23.076 29.9239 22.816 30.6693C22.244 32.3079 22.0853 34.0613 22.392 35.3599C22.9253 37.6146 23.5786 37.9226 23.9506 36.0919C24.2746 34.5039 24.832 33.5439 25.4306 33.5479C25.6133 33.5493 26.2 34.4506 27.0653 36.0599C27.8066 37.4413 28.8786 39.1853 29.4466 39.9373C30.0146 40.6879 30.4426 41.3386 30.3973 41.3826C30.2906 41.4893 28.8213 40.2506 27.7506 39.1519C27.2866 38.6759 26.6213 37.8133 26.272 37.2333C25.6693 36.2333 25.6293 36.2013 25.476 36.6066C25.3866 36.8426 25.2573 37.2933 25.188 37.6079C24.9893 38.5173 24.4346 39.0933 23.7573 39.0933C22.8093 39.0933 22.1293 38.1413 21.576 36.0426C21.2066 34.6413 21.3 31.6573 21.76 30.1693C22.0573 29.2106 22.0573 29.2093 21.616 28.7386C21.0466 28.1333 20.7226 27.4839 20.0226 25.5466C19.58 24.3173 19.1693 23.6093 18.1506 22.3093C17.2346 21.1413 16.8106 20.4359 16.7266 19.9426C16.4666 18.4106 17.0586 17.5199 18.3226 17.5479C19.2986 17.5693 21.2973 18.2373 22.1586 18.8306C22.6666 19.1813 23.1746 19.3333 24.1586 19.4319C26.576 19.6733 29.212 21.2133 31.976 23.9999C34.6533 26.6999 36.6693 29.8826 37.4186 32.5919C37.9213 34.4079 38.7146 35.2653 40.8933 36.3439C42.4933 37.1359 42.9853 37.4959 44.4373 38.9359C45.364 39.8546 46.124 40.7426 46.124 40.9093C46.124 41.2746 45.3706 41.5359 43.876 41.6866C41.78 41.8986 41.796 41.8573 43.3653 42.9706C46.04 44.8679 47.0013 45.7933 47.2853 46.7413C47.4213 47.1946 47.2786 47.2346 46.7533 46.8906ZM23.736 24.1719C23.5893 23.8239 23.308 23.4519 23.1093 23.3466C22.6893 23.1226 22.6453 22.7613 23.004 22.4653C23.388 22.1466 24.504 22.6626 24.6453 23.2239C24.9813 24.5573 24.228 25.3439 23.736 24.1719Z" fill="#9FEF00"/>
</svg>
