<svg width="64" height="65" viewBox="0 0 64 65" fill="none" xmlns="http://www.w3.org/2000/svg">
<path fill-rule="evenodd" clip-rule="evenodd" d="M26.5295 12.4399C26.9468 12.3199 27.3695 12.2133 27.7935 12.1199C29.1802 11.8266 30.5895 11.6666 32.0002 11.6666C33.4108 11.6666 34.8202 11.8266 36.2068 12.1199C36.6308 12.2133 37.0535 12.3199 37.4708 12.4399V11.6666V8.93992C37.4708 8.23725 36.9002 7.66659 36.1975 7.66659H27.8028C27.1002 7.66659 26.5295 8.23725 26.5295 8.93992V11.6666V12.4399ZM13.7268 39.6666H13.8028C15.1242 39.6666 16.1962 40.7386 16.1962 42.0599V42.6066C16.1962 43.9279 15.1242 44.9999 13.8028 44.9999H13.7268C12.4055 44.9999 11.3335 43.9279 11.3335 42.6066V42.0599C11.3335 40.7386 12.4055 39.6666 13.7268 39.6666ZM22.0522 14.3333C21.2402 14.7893 20.4535 15.2946 19.6975 15.8533C18.2508 16.9066 16.9015 18.0933 15.6375 19.3999C12.8895 22.2399 11.3335 26.1999 11.3335 30.3333V34.3333C11.3335 35.8053 12.4228 36.9999 13.7655 36.9999C15.1068 36.9999 16.1962 35.8053 16.1962 34.3333V30.3333C16.1962 27.6666 17.2055 25.1066 18.9682 23.2799C20.0375 22.1866 21.1802 21.1733 22.3962 20.2933C23.4055 19.5466 24.4748 18.9199 25.5935 18.4133C26.6148 17.9466 27.6722 17.5866 28.7548 17.3599C29.8242 17.1199 30.9055 16.9999 32.0002 16.9999C33.0948 16.9999 34.1762 17.1199 35.2455 17.3599C36.3282 17.5866 37.3855 17.9466 38.4068 18.4133C39.5255 18.9199 40.5948 19.5466 41.6042 20.2933C42.8202 21.1733 43.9628 22.1733 45.0202 23.2666C45.4095 23.6799 45.7495 24.1333 46.0295 24.6266C46.3935 25.2399 46.7095 25.8799 46.9655 26.5466C47.2322 27.2133 47.4388 27.9066 47.5975 28.6133C47.7308 29.1733 47.7922 29.7599 47.8042 30.3466V54.4533C47.8042 55.8586 46.6628 56.9999 45.2575 56.9999H18.7428C17.3375 56.9999 16.1962 55.8586 16.1962 54.4533V50.3333C16.1962 48.8613 15.1068 47.6666 13.7655 47.6666C12.4228 47.6666 11.3335 48.8613 11.3335 50.3333V57.2413C11.3335 60.0519 13.6148 62.3333 16.4255 62.3333H47.5748C50.3855 62.3333 52.6668 60.0519 52.6668 57.2413V30.3333C52.6668 30.3199 52.6668 30.3066 52.6668 30.3066C52.6548 29.3066 52.5455 28.3066 52.3148 27.3333C52.0948 26.3466 51.8042 25.3733 51.4268 24.4399C51.0615 23.4933 50.6242 22.5866 50.1135 21.7333C49.6148 20.8933 49.0322 20.1066 48.3748 19.4133C47.1108 18.1066 45.7495 16.9066 44.3028 15.8533C43.5468 15.2946 42.7602 14.7893 41.9482 14.3333H42.3335V11.6666V7.66659C42.3335 6.25325 41.8228 4.89325 40.9108 3.89325C39.9988 2.89325 38.7588 2.33325 37.4708 2.33325H26.5295C25.2415 2.33325 24.0015 2.89325 23.0895 3.89325C22.1775 4.89325 21.6668 6.25325 21.6668 7.66659V11.6666V14.3333H22.0522ZM35.7908 40.1626H41.0322V38.4466H34.9802L42.5668 30.8599L41.3028 29.5773L35.5948 35.2906C35.6068 35.1106 35.6122 34.9279 35.6122 34.7439C35.6122 31.7533 33.9935 29.3253 32.0002 29.3253C30.0068 29.3253 28.3882 31.7533 28.3882 34.7439C28.3882 34.9333 28.3935 35.1199 28.4068 35.3039L22.6975 29.5959L21.4335 30.8599L29.0202 38.4466H22.9682V40.1626H28.2095C27.2762 41.2279 26.6722 42.6839 26.5908 44.3026L21.4335 49.4653L22.6975 50.7293L26.8348 46.5919C27.5308 49.1466 29.5815 50.9999 32.0002 50.9999C34.4188 50.9999 36.4695 49.1466 37.1655 46.5919L41.3028 50.7293L42.5668 49.4653L37.4095 44.3079C37.3295 42.6866 36.7242 41.2293 35.7908 40.1626Z" fill="#9FEF00"/>
</svg>
