<svg width="512" height="512" viewBox="0 0 512 512" fill="none" xmlns="http://www.w3.org/2000/svg">
<path d="M37.012 453.046L38.3054 454.545C65.169 485.021 110.937 489.218 142.874 464.137L157.301 452.846C202.074 452.047 268.735 471.332 309.031 451.747L309.13 451.647C333.009 427.366 331.119 387.797 305.051 366.014L290.326 353.724L296.892 344.431L329.825 365.614L484.042 181.958C501.354 161.374 500.757 131.098 482.749 111.113L413.6 34.6729C397.084 16.3872 368.33 16.5871 352.012 35.0726L268.934 129.499C262.268 137.093 251.821 140.39 241.971 137.992C228.838 134.795 215.108 139.591 206.75 150.183L34.5246 371.11C15.6206 395.391 16.6156 429.864 37.012 453.046Z" fill="#141D2B"/>
<path d="M290.326 353.524L218.69 393.393C217.396 394.092 215.804 393.992 214.71 393.093L193.219 375.906C191.627 374.607 191.428 372.209 192.821 370.61L265.751 292.172C267.939 289.874 266.248 286.077 263.164 286.077H163.072C161.878 286.077 160.784 286.676 160.187 287.575L123.075 340.334L77.606 315.953C5.47226 400.887 -3.68126 421.371 48.3545 463.938C92.4307 500.109 129.542 485.121 157.401 452.746C217.396 462.239 276.197 481.424 309.13 451.647C342.362 421.671 330.721 380.902 290.326 353.524Z" fill="#9FEF00"/>
<path d="M359.773 236.215C360.072 235.916 360.37 235.716 360.669 235.516L387.831 218.629L397.084 227.223L236.997 366.514C235.007 368.212 232.221 368.312 230.131 366.714L221.774 360.219L359.773 236.215Z" fill="#9FEF00"/>
<path d="M280.078 180.859C288.933 171.666 307.24 152.181 315.299 143.488C317.587 141.09 321.269 140.79 323.856 142.888L363.753 174.564C366.738 176.962 367.036 181.358 364.35 184.056L326.542 223.425C324.154 225.924 320.274 226.023 317.687 223.725L280.277 190.052C277.69 187.653 277.591 183.457 280.078 180.859Z" fill="#A4B1CD"/>
<path d="M372.608 51.8595L432.902 100.322C434.295 101.421 434.991 103.319 434.593 105.118L415.988 190.551C415.192 194.148 410.714 195.547 408.028 193.049L331.417 120.906C329.726 119.307 327.139 119.207 325.248 120.606L304.752 136.294C302.564 137.992 299.479 137.493 297.987 135.194L292.614 127.5C291.221 125.502 291.52 122.904 293.211 121.305L366.24 52.2592C368.131 50.4606 370.817 50.3607 372.608 51.8595Z" fill="#A4B1CD"/>
<path d="M365.842 176.062L378.18 185.555C379.573 186.654 379.672 188.853 378.279 190.052L292.714 265.792L316.692 223.725C316.791 223.525 316.99 223.326 317.09 223.126L362.061 176.262C363.056 175.263 364.748 175.163 365.842 176.062Z" fill="#9FEF00"/>
</svg>
