<svg width="64" height="64" viewBox="0 0 64 64" fill="none" xmlns="http://www.w3.org/2000/svg">
<path fill-rule="evenodd" clip-rule="evenodd" d="M17.3198 15.4C16.1198 16.2614 14.4505 15.9894 13.5932 14.7934C12.7358 13.5974 13.0132 11.928 14.2132 11.0667L29.5412 2.05737C30.8092 1.31204 32.8745 1.30404 34.1492 2.04004L57.1972 15.3467C58.4718 16.0827 59.5065 17.8747 59.5065 19.3467V43.44C59.5065 44.912 58.4745 46.7094 57.2038 47.452L31.6358 62.4014C30.3652 63.144 29.3332 62.552 29.3332 61.08V44.96C29.3332 43.488 30.5278 42.2934 31.9998 42.2934C33.4718 42.2934 34.6665 43.488 34.6665 44.96V52.0267C34.6665 52.7627 35.1825 53.06 35.8198 52.6907L54.1732 42.0267V19.76L32.1598 7.05337L17.3198 15.4ZM24.7732 53.5734C26.0318 54.3387 26.4372 55.9814 25.6798 57.24C24.9225 58.4987 23.2852 58.904 22.0265 58.1467L6.8225 49.672C5.53716 48.9547 4.49316 47.1787 4.49316 45.7067V18.4134C4.49316 16.9414 5.52783 16.344 6.8025 17.08L30.6985 30.88C31.3358 31.248 32.3758 31.2574 33.0198 30.9014L46.6932 23.3334C47.8998 22.4867 49.5705 22.7734 50.4198 23.9734C51.2692 25.1734 50.9798 26.84 49.7732 27.6934L34.4558 36.5334C33.1812 37.2694 31.1118 37.2694 29.8372 36.5334L9.8265 24.9867V45.3734L24.7732 53.5734Z" fill="#9FEF00"/>
</svg>
