<svg width="512" height="512" viewBox="0 0 512 512" fill="none" xmlns="http://www.w3.org/2000/svg">
<g clip-path="url(#clip0_15_30)">
<path d="M192 0C174.25 0 160 14.25 160 32V128C160 145.75 174.25 160 192 160H224V224H0V288H64V352H32C14.25 352 0 366.25 0 384V480C0 497.75 14.25 512 32 512H160C177.75 512 192 497.75 192 480V384C192 366.25 177.75 352 160 352H128V288H384V352H352C334.25 352 320 366.25 320 384V480C320 497.75 334.25 512 352 512H480C497.75 512 512 497.75 512 480V384C512 366.25 497.75 352 480 352H448V288H512V224H288V160H320C337.75 160 352 145.75 352 128V32C352 14.25 337.75 0 320 0H192Z" fill="#9FEF00"/>
</g>
<defs>
<clipPath id="clip0_15_30">
<rect width="512" height="512" fill="white"/>
</clipPath>
</defs>
</svg>
