<svg width="64" height="65" viewBox="0 0 64 65" fill="none" xmlns="http://www.w3.org/2000/svg">
<g clip-path="url(#clip0_62_4264)">
<path fill-rule="evenodd" clip-rule="evenodd" d="M27.0118 36.9185H19.5291L31.9998 54.3758L44.4704 36.9185H36.9878V25.7478H44.4704L31.9998 8.29049L19.5291 25.7478H27.0118V36.9185ZM45.1811 54.2372C46.5131 53.4758 48.2198 53.9372 48.9891 55.2652C49.7584 56.5932 49.3011 58.2972 47.9678 59.0652C42.7851 62.0492 36.8744 63.5185 30.9091 63.3145C25.4998 63.1305 20.2211 61.5718 15.5691 58.7958C14.2518 58.0065 13.8238 56.2945 14.6131 54.9772C15.4038 53.6598 17.1144 53.2318 18.4331 54.0212C22.2664 56.3238 26.6211 57.5998 31.0984 57.7532C36.0358 57.9212 40.9064 56.7092 45.1811 54.2372ZM55.6638 19.5412C54.9731 18.1652 55.5291 16.4905 56.9051 15.8038C58.2811 15.1172 59.9518 15.6758 60.6358 17.0518C63.0198 21.8105 64.1624 27.0985 63.9811 32.4238C63.8424 36.4838 62.9411 40.4758 61.3104 44.1798C60.6944 45.5878 59.0504 46.2305 57.6424 45.6132C56.2344 44.9972 55.5918 43.3532 56.2091 41.9452C57.5664 38.8865 58.3051 35.5852 58.4184 32.2345C58.5691 27.8398 57.6184 23.4785 55.6638 19.5412ZM20.5478 7.51315C19.1651 8.17315 17.5011 7.58649 16.8331 6.20382C16.1664 4.82115 16.7464 3.15582 18.1291 2.48915C22.7851 0.253154 27.9171 -0.824179 33.0904 -0.648179C38.0678 -0.478846 42.9518 0.843821 47.3238 3.23449C48.6744 3.97182 49.1718 5.66649 48.4344 7.01715C47.6971 8.36649 46.0024 8.86382 44.6518 8.12649C41.0438 6.15182 37.0158 5.05449 32.9011 4.91315C28.6318 4.76782 24.3971 5.65449 20.5478 7.51315ZM6.91978 39.7212C7.40911 41.1745 6.62244 42.7518 5.16511 43.2398C3.70778 43.7278 2.12778 42.9372 1.63978 41.4772C0.441109 37.8585 -0.110891 34.0532 0.0184427 30.2425C0.190443 25.2092 1.54111 20.2718 3.98911 15.8585C4.72644 14.5158 6.41711 14.0305 7.76378 14.7758C9.11044 15.5212 9.59844 17.2158 8.85311 18.5585C6.83578 22.2065 5.72244 26.2745 5.57978 30.4318C5.47311 33.5892 5.92244 36.7225 6.91978 39.7212ZM55.9518 11.1145C55.8984 12.6505 54.6104 13.8532 53.0758 13.8012C51.5411 13.7492 50.3371 12.4598 50.3891 10.9252C50.4411 9.39049 51.7304 8.18649 53.2651 8.23982C54.7998 8.29182 56.0038 9.57982 55.9518 11.1145ZM12.4824 49.6838C12.4304 51.2185 11.1424 52.4225 9.60778 52.3705C8.07178 52.3172 6.86911 51.0292 6.92111 49.4945C6.97311 47.9598 8.26244 46.7558 9.79711 46.8078C11.3318 46.8598 12.5358 48.1492 12.4824 49.6838ZM57.0278 51.2025C57.0798 49.6678 55.8758 48.3798 54.3411 48.3265C52.8064 48.2745 51.5184 49.4785 51.4651 51.0132C51.4131 52.5478 52.6171 53.8372 54.1518 53.8892C55.6864 53.9412 56.9758 52.7372 57.0278 51.2025ZM14.4864 9.70115C14.5384 8.16649 13.3358 6.87715 11.8011 6.82515C10.2651 6.77315 8.97711 7.97715 8.92511 9.51182C8.87178 11.0465 10.0758 12.3345 11.6104 12.3878C13.1464 12.4398 14.4344 11.2358 14.4864 9.70115Z" fill="#9FEF00"/>
</g>
<defs>
<clipPath id="clip0_62_4264">
<rect width="64" height="64" fill="white" transform="translate(0 0.333252)"/>
</clipPath>
</defs>
</svg>
