<svg width="64" height="65" viewBox="0 0 64 65" fill="none" xmlns="http://www.w3.org/2000/svg">
<g clip-path="url(#clip0_62_4250)">
<path fill-rule="evenodd" clip-rule="evenodd" d="M29.3335 60.6666V56.5653C26.4935 56.3453 23.6895 55.768 20.9869 54.84C17.6935 53.7066 14.6269 52 11.9202 49.8133C9.34687 47.72 7.21354 45.1333 5.6802 42.2C4.14687 39.2533 3.34687 35.9866 3.33354 32.68C3.32554 31.208 4.51487 30.008 5.98687 30C7.45887 29.992 8.65887 31.1813 8.66687 32.6533C8.6802 35.12 9.26687 37.5466 10.4002 39.72C11.6135 42.0133 13.2669 44.04 15.2802 45.6666C17.5069 47.4666 20.0135 48.8666 22.7202 49.7866C25.6935 50.8133 28.8135 51.3333 31.9469 51.3333H32.6242C33.7509 51.3333 34.6669 52.2493 34.6669 53.376V60.6666H40.2869C41.0229 60.6666 41.6202 61.264 41.6202 62V63.3333C41.6202 64.0693 41.0229 64.6666 40.2869 64.6666H32.6242H31.3762H23.7135C22.9775 64.6666 22.3802 64.0693 22.3802 63.3333V62C22.3802 61.264 22.9775 60.6666 23.7135 60.6666H29.3335ZM55.3335 33.0133C55.3709 31.5413 56.5922 30.376 58.0602 30.4133C59.5282 30.4506 60.6962 31.6746 60.6669 33.1466C60.6002 35.5733 60.1202 37.96 59.2135 40.2266C58.3335 42.4533 57.0802 44.5333 55.5469 46.3733C53.9602 48.2666 52.1202 49.92 50.0802 51.2933C47.9602 52.7333 45.6669 53.8933 43.2402 54.7466C41.8562 55.24 40.3335 54.5133 39.8402 53.1266C39.3469 51.74 40.0762 50.2133 41.4669 49.72C43.4535 49.0266 45.3469 48.0666 47.0935 46.88C48.7202 45.7733 50.1869 44.4533 51.4535 42.9466C52.6269 41.5466 53.5869 39.96 54.2669 38.2533C54.9202 36.5866 55.2802 34.8133 55.3335 33.0133ZM24.3002 30.412H39.7002C40.4362 30.412 41.0335 31.0093 41.0335 31.7453V33.0786C41.0335 33.8146 40.4362 34.412 39.7002 34.412H24.3002C23.5642 34.412 22.9669 33.8146 22.9669 33.0786V31.7453C22.9669 31.0093 23.5642 30.412 24.3002 30.412ZM30.1469 7.3333H33.8535C36.5469 7.3333 39.1202 8.39997 41.0269 10.3066C42.9335 12.2133 44.0002 14.7866 44.0002 17.48V31.8533C44.0002 34.5466 42.9335 37.12 41.0269 39.0266C39.1202 40.9333 36.5469 42 33.8535 42H30.1469C27.4535 42 24.8802 40.9333 22.9735 39.0266C21.0669 37.12 20.0002 34.5466 20.0002 31.8533V17.48C20.0002 14.7866 21.0669 12.2133 22.9735 10.3066C24.8802 8.39997 27.4535 7.3333 30.1469 7.3333ZM30.1469 1.99997H33.8535C37.9602 1.99997 41.8935 3.62664 44.8002 6.5333C47.7069 9.43997 49.3335 13.3733 49.3335 17.48V31.8533C49.3335 35.96 47.7069 39.8933 44.8002 42.8C41.8935 45.7066 37.9602 47.3333 33.8535 47.3333H30.1469C26.0402 47.3333 22.1069 45.7066 19.2002 42.8C16.2935 39.8933 14.6669 35.96 14.6669 31.8533V17.48C14.6669 13.3733 16.2935 9.43997 19.2002 6.5333C22.1069 3.62664 26.0402 1.99997 30.1469 1.99997Z" fill="#9FEF00"/>
</g>
<defs>
<clipPath id="clip0_62_4250">
<rect width="64" height="64" fill="white" transform="translate(0 0.666626)"/>
</clipPath>
</defs>
</svg>
