<svg width="64" height="65" viewBox="0 0 64 65" fill="none" xmlns="http://www.w3.org/2000/svg">
<path fill-rule="evenodd" clip-rule="evenodd" d="M15.9998 21.9999H43.9998C45.4718 21.9999 46.6665 20.8053 46.6665 19.3333C46.6665 17.8613 45.4718 16.6666 43.9998 16.6666H15.9998V13.9999V8.66662H47.9998C50.9438 8.66662 53.3332 11.0559 53.3332 13.9999V51.3333C53.3332 54.2773 50.9438 56.6666 47.9998 56.6666H15.9998V54V48.6666H43.9998C45.4718 48.6666 46.6665 47.472 46.6665 46C46.6665 44.528 45.4718 43.3333 43.9998 43.3333H15.9998V21.9999ZM10.6665 17.9999V13.9999V7.33328C10.6665 5.12528 12.4585 3.33328 14.6665 3.33328H49.3332C54.4838 3.33328 58.6665 7.51595 58.6665 12.6666V52.6666C58.6665 57.8173 54.4838 62 49.3332 62H14.6665C12.4585 62 10.6665 60.208 10.6665 58V54V47.3333V17.9999ZM18.6665 27.3333V35.3333H19.9998V28.6666H22.6665C23.4052 28.6666 23.9998 29.2613 23.9998 29.9999V35.3333H25.3332V29.9999C25.3332 28.6666 23.9998 27.3333 22.6665 27.3333H18.6665ZM30.6665 28.6666H33.3332V34H30.6665C29.9998 34 29.3332 33.3026 29.3332 32.6666V29.9999C29.3332 29.3333 29.9998 28.6666 30.6665 28.6666ZM39.9998 28.6666H42.6665V34H39.9998C39.3332 34 38.6665 33.3026 38.6665 32.6666V29.9999C38.6665 29.3333 39.3332 28.6666 39.9998 28.6666ZM30.6665 27.3333C29.1892 27.3333 27.9998 28.5226 27.9998 29.9999V32.6666C27.9998 34.144 29.1892 35.3333 30.6665 35.3333H33.3332V38H34.6665V27.3333H30.6665ZM39.9998 27.3333C38.5225 27.3333 37.3332 28.5226 37.3332 29.9999V32.6666C37.3332 34.144 38.5225 35.3333 39.9998 35.3333H42.6665V38H43.9998V27.3333H39.9998Z" fill="#9FEF00"/>
</svg>
