<svg width="64" height="65" viewBox="0 0 64 65" fill="none" xmlns="http://www.w3.org/2000/svg">
<g clip-path="url(#clip0_62_4237)">
<path fill-rule="evenodd" clip-rule="evenodd" d="M20.456 20.6013L16.2227 29.78L22.1467 44.6573L22.4027 27.1133L22.112 26.1493L20.456 20.6013ZM23.2894 16.4173L37.12 8.27063L37.0934 8.51596L36.5454 13.5053L25.1107 22.516L23.7187 17.8546L23.2894 16.4173ZM40.996 56.488L42.5667 53.3293L47.6627 22.5053L46.668 21.8653L38.6907 16.8106L26.332 26.5413L27.376 29.0746L40.996 56.488ZM36.9507 57.168L25.932 53.4413L25.952 52.4146L26.2 35.5186L36.9507 57.168ZM44.2467 15.6973L40.772 10.9266L40.5107 13.328L44.2467 15.6973ZM53.46 19.4746L47.5947 54.9493L42.776 64.6666L21.6427 57.5093L10.54 29.624L17.9854 13.48L39.7587 0.666626L53.46 19.4746Z" fill="#9FEF00"/>
</g>
<defs>
<clipPath id="clip0_62_4237">
<rect width="64" height="64" fill="white" transform="translate(0 0.666626)"/>
</clipPath>
</defs>
</svg>
