<svg width="64" height="64" viewBox="0 0 64 64" fill="none" xmlns="http://www.w3.org/2000/svg">
<g clip-path="url(#clip0_62_4232)">
<path fill-rule="evenodd" clip-rule="evenodd" d="M47.056 49.364L53.3334 52.1093C53.5747 52.0187 51.5987 54.84 51.236 54.9947C46.332 58.7813 40.292 60.852 34.0987 60.852C28.5027 60.852 23.0294 59.1733 18.396 56.0267C13.832 52.944 10.2867 48.5733 8.20936 43.4813C7.80536 43.4347 7.54536 41.7467 7.86936 41.6173L14.6014 40.6387C16.1574 44.5373 18.8507 47.8947 22.3307 50.2387C25.792 52.5987 29.9014 53.8573 34.0987 53.8573C38.8027 53.8573 43.3667 52.284 47.056 49.364ZM14.548 25.2507L8.02669 22.6973C10.072 17.452 13.6574 12.9573 18.308 9.77466C22.96 6.592 28.468 4.896 34.0987 4.896C37.6654 4.896 41.1974 5.57866 44.5027 6.88933L42.8414 13.64C40.3587 12.6427 36.7734 11.8907 34.0987 11.8907C29.884 11.8907 25.74 13.1667 22.26 15.5453C18.78 17.924 16.088 21.316 14.548 25.2507ZM56.2267 22.4C57.9694 21.5707 60.1827 22.5733 61.1667 24.6387C61.1667 24.6387 62.076 28.7307 62.076 32.8747C62.076 34.2213 61.9894 35.5667 61.7974 36.896H55.0814C55.2214 35.8813 55.0814 33.888 55.0814 32.8747C55.0814 29.7613 54.4 26.7013 54.4 26.7013C53.6667 25.1573 54.4854 23.2293 56.2267 22.4Z" fill="#9FEF00"/>
<path fill-rule="evenodd" clip-rule="evenodd" d="M6.12 26.5973C4.672 26.5973 3.49733 25.4213 3.49733 23.9733C3.49733 22.5267 4.672 21.3507 6.12 21.3507H19.2347C21.1653 21.3507 22.732 22.9173 22.732 24.848V39.8693C22.732 41.7987 21.1653 43.3667 19.2347 43.3667H3.49733C1.56667 43.3667 0 41.7987 0 39.8693V34.6227C0 33.1747 1.17467 32 2.62267 32C4.07067 32 5.24533 33.1747 5.24533 34.6227V36.372C5.24533 37.3373 6.02933 38.12 6.99467 38.12H15.7373C16.7027 38.12 17.4867 37.3373 17.4867 36.372V28.3453C17.4867 27.38 16.7027 26.5973 15.7373 26.5973H6.12ZM50.536 40.7427C49.088 40.7427 47.912 39.568 47.912 38.12C47.912 36.672 49.088 35.4973 50.536 35.4973H60.5027C62.4333 35.4973 64 37.064 64 38.9947V51.2347C64 53.1653 62.4333 54.732 60.5027 54.732H48.9613C47.032 54.732 45.464 53.1653 45.464 51.2347V47.2133C45.464 45.7653 46.64 44.5907 48.088 44.5907C49.5347 44.5907 50.7107 45.7653 50.7107 47.2133V47.7373C50.7107 48.7027 51.4933 49.4867 52.4587 49.4867H57.0053C57.9707 49.4867 58.7547 48.7027 58.7547 47.7373V42.492C58.7547 41.5267 57.9707 40.7427 57.0053 40.7427H50.536ZM46.3387 6.64534H49.836C50.8013 6.64534 51.5853 7.42801 51.5853 8.39334V11.8907C51.5853 12.856 50.8013 13.64 49.836 13.64H46.3387C45.3733 13.64 44.5907 12.856 44.5907 11.8907V8.39334C44.5907 7.42801 45.3733 6.64534 46.3387 6.64534ZM44.5907 3.14801H51.5853C53.5147 3.14801 55.0813 4.71468 55.0813 6.64534V13.64C55.0813 15.5693 53.5147 17.136 51.5853 17.136H44.5907C42.66 17.136 41.0933 15.5693 41.0933 13.64V6.64534C41.0933 4.71468 42.66 3.14801 44.5907 3.14801Z" fill="#A4B1CD"/>
</g>
<defs>
<clipPath id="clip0_62_4232">
<rect width="64" height="64" fill="white"/>
</clipPath>
</defs>
</svg>
