<svg width="64" height="65" viewBox="0 0 64 65" fill="none" xmlns="http://www.w3.org/2000/svg">
<g clip-path="url(#clip0_62_4225)">
<path fill-rule="evenodd" clip-rule="evenodd" d="M17.3335 36.6666C17.3335 37.0266 17.1868 37.3599 16.9468 37.6133C16.6935 37.8533 16.3601 38 16.0001 38C15.6401 38 15.3068 37.8533 15.0535 37.6133C14.8135 37.3599 14.6668 37.0266 14.6668 36.6666V28.6666C14.6668 28.3066 14.8135 27.9733 15.0535 27.72C15.3068 27.48 15.6401 27.3333 16.0001 27.3333C16.3601 27.3333 16.6935 27.48 16.9468 27.72C17.1868 27.9733 17.3335 28.3066 17.3335 28.6666V36.6666ZM22.6668 43.3333C22.6668 43.6933 22.5201 44.0266 22.2801 44.2799C22.0268 44.5199 21.6935 44.6666 21.3335 44.6666C20.9735 44.6666 20.6401 44.5199 20.3868 44.2799C20.1468 44.0266 20.0001 43.6933 20.0001 43.3333V21.9999C20.0001 21.6399 20.1468 21.3066 20.3868 21.0533C20.6401 20.8133 20.9735 20.6666 21.3335 20.6666C21.6935 20.6666 22.0268 20.8133 22.2801 21.0533C22.5201 21.3066 22.6668 21.6399 22.6668 21.9999V43.3333ZM28.0001 40.6666C28.0001 41.0266 27.8535 41.3599 27.6135 41.6133C27.3601 41.8533 27.0268 42 26.6668 42C26.3068 42 25.9735 41.8533 25.7201 41.6133C25.4801 41.3599 25.3335 41.0266 25.3335 40.6666V24.6666C25.3335 24.3066 25.4801 23.9733 25.7201 23.72C25.9735 23.48 26.3068 23.3333 26.6668 23.3333C27.0268 23.3333 27.3601 23.48 27.6135 23.72C27.8535 23.9733 28.0001 24.3066 28.0001 24.6666V40.6666ZM33.3335 44.6666C33.3335 45.0266 33.1868 45.3599 32.9468 45.6133C32.6935 45.8533 32.3601 46 32.0001 46C31.6401 46 31.3068 45.8533 31.0535 45.6133C30.8135 45.3599 30.6668 45.0266 30.6668 44.6666V20.6666C30.6668 20.3066 30.8135 19.9733 31.0535 19.7199C31.3068 19.4799 31.6401 19.3333 32.0001 19.3333C32.3601 19.3333 32.6935 19.4799 32.9468 19.7199C33.1868 19.9733 33.3335 20.3066 33.3335 20.6666V44.6666ZM38.6668 39.3333C38.6668 39.6933 38.5201 40.0266 38.2801 40.2799C38.0268 40.5199 37.6935 40.6666 37.3335 40.6666C36.9735 40.6666 36.6401 40.5199 36.3868 40.2799C36.1468 40.0266 36.0001 39.6933 36.0001 39.3333V25.9999C36.0001 25.6399 36.1468 25.3066 36.3868 25.0533C36.6401 24.8133 36.9735 24.6666 37.3335 24.6666C37.6935 24.6666 38.0268 24.8133 38.2801 25.0533C38.5201 25.3066 38.6668 25.6399 38.6668 25.9999V39.3333ZM44.0001 36.6666C44.0001 37.0266 43.8535 37.3599 43.6135 37.6133C43.3601 37.8533 43.0268 38 42.6668 38C42.3068 38 41.9735 37.8533 41.7201 37.6133C41.4801 37.3599 41.3335 37.0266 41.3335 36.6666V28.6666C41.3335 28.3066 41.4801 27.9733 41.7201 27.72C41.9735 27.48 42.3068 27.3333 42.6668 27.3333C43.0268 27.3333 43.3601 27.48 43.6135 27.72C43.8535 27.9733 44.0001 28.3066 44.0001 28.6666V36.6666ZM49.3335 40.6666C49.3335 41.0266 49.1868 41.3599 48.9468 41.6133C48.6935 41.8533 48.3601 42 48.0001 42C47.6401 42 47.3068 41.8533 47.0535 41.6133C46.8135 41.3599 46.6668 41.0266 46.6668 40.6666V24.6666C46.6668 24.3066 46.8135 23.9733 47.0535 23.72C47.3068 23.48 47.6401 23.3333 48.0001 23.3333C48.3601 23.3333 48.6935 23.48 48.9468 23.72C49.1868 23.9733 49.3335 24.3066 49.3335 24.6666V40.6666ZM29.8895 58.3626C31.4548 58.4946 32.6215 59.876 32.4935 61.4453C32.3641 63.0133 30.9828 64.18 29.4108 64.048C21.5308 63.392 14.1761 59.7746 8.83879 53.9226C3.51479 48.0706 0.589454 40.4146 0.661454 32.5C0.736121 24.1866 4.11745 16.2319 10.0455 10.3959C15.9868 4.57328 24.0028 1.33862 32.3161 1.41328C40.6295 1.48795 48.5841 4.86928 54.4201 10.7973C60.2415 16.7386 63.4775 24.7546 63.4028 33.068C63.3881 34.6413 62.0988 35.908 60.5255 35.8933C58.9508 35.88 57.6841 34.5906 57.6988 33.0159C57.7601 26.2146 55.1108 19.6586 50.3481 14.7959C45.5721 9.94662 39.0655 7.17862 32.2641 7.11728C25.4628 7.05595 18.9068 9.70528 14.0441 14.4679C9.19479 19.2439 6.42679 25.7506 6.36546 32.5519C6.30679 39.0253 8.68812 45.2933 13.0521 50.0813C17.4148 54.8693 23.4348 57.8186 29.8895 58.3626ZM54.6535 44.9253C55.3975 43.5386 57.1281 43.0173 58.5148 43.7613C59.9001 44.5066 60.4215 46.2359 59.6775 47.6226C56.5015 53.5266 51.5095 58.2733 45.4508 61.1413C44.0281 61.8213 42.3241 61.2173 41.6495 59.7946C40.9735 58.372 41.5801 56.6653 43.0028 55.9853C47.9721 53.6346 52.0428 49.764 54.6535 44.9253Z" fill="#9FEF00"/>
</g>
<defs>
<clipPath id="clip0_62_4225">
<rect width="64" height="64" fill="white" transform="translate(0 0.666626)"/>
</clipPath>
</defs>
</svg>
