<svg width="48" height="48" viewBox="0 0 48 48" fill="none" xmlns="http://www.w3.org/2000/svg">
<path fill-rule="evenodd" clip-rule="evenodd" d="M16 9V4C16 2.896 15.104 2 14 2C12.896 2 12 2.896 12 4V9H6.743C4.125 9 2 11.125 2 13.743V39.6C2 40.593 2.896 41.4 4 41.4C5.104 41.4 6 40.593 6 39.6V15.446C6 13.875 7.275 12.6 8.846 12.6H39.154C40.725 12.6 42 13.875 42 15.446V38.554C42 40.125 40.725 41.4 39.154 41.4H14.09C12.986 41.4 12.09 42.207 12.09 43.2C12.09 44.193 12.986 45 14.09 45H41.257C43.875 45 46 42.875 46 40.257V13.743C46 11.125 43.875 9 41.257 9H36V4C36 2.896 35.104 2 34 2C32.896 2 32 2.896 32 4V9H16ZM10 26C10 24.896 10.896 24 12 24C13.104 24 14 24.896 14 26C14 27.104 13.104 28 12 28C10.896 28 10 27.104 10 26ZM18 26C18 24.896 18.896 24 20 24C21.104 24 22 24.896 22 26C22 27.104 21.104 28 20 28C18.896 28 18 27.104 18 26ZM26 26C26 24.896 26.896 24 28 24C29.104 24 30 24.896 30 26C30 27.104 29.104 28 28 28C26.896 28 26 27.104 26 26ZM34 26C34 24.896 34.896 24 36 24C37.104 24 38 24.896 38 26C38 27.104 37.104 28 36 28C34.896 28 34 27.104 34 26ZM18 18C18 16.896 18.896 16 20 16C21.104 16 22 16.896 22 18C22 19.104 21.104 20 20 20C18.896 20 18 19.104 18 18ZM26 18C26 16.896 26.896 16 28 16C29.104 16 30 16.896 30 18C30 19.104 29.104 20 28 20C26.896 20 26 19.104 26 18ZM34 18C34 16.896 34.896 16 36 16C37.104 16 38 16.896 38 18C38 19.104 37.104 20 36 20C34.896 20 34 19.104 34 18ZM10 34C10 32.896 10.896 32 12 32C13.104 32 14 32.896 14 34C14 35.104 13.104 36 12 36C10.896 36 10 35.104 10 34ZM18 34C18 32.896 18.896 32 20 32C21.104 32 22 32.896 22 34C22 35.104 21.104 36 20 36C18.896 36 18 35.104 18 34ZM26 34C26 32.896 26.896 32 28 32C29.104 32 30 32.896 30 34C30 35.104 29.104 36 28 36C26.896 36 26 35.104 26 34ZM34 34C34 32.896 34.896 32 36 32C37.104 32 38 32.896 38 34C38 35.104 37.104 36 36 36C34.896 36 34 35.104 34 34Z" fill="#9FEF00"/>
</svg>
