<svg width="64" height="64" viewBox="0 0 64 64" fill="none" xmlns="http://www.w3.org/2000/svg">
<path fill-rule="evenodd" clip-rule="evenodd" d="M24.2533 47.3333H39.3467C40.8187 47.3333 42.0133 48.528 42.0133 50V56.7867C42.0133 58.2587 40.8187 59.4533 39.3467 59.4533H38V62C38 62.736 37.4027 63.3333 36.6667 63.3333H26C25.264 63.3333 24.6667 62.736 24.6667 62V59.4533H24.2533C22.7813 59.4533 21.5867 58.2587 21.5867 56.7867V50C21.5867 48.528 22.7813 47.3333 24.2533 47.3333ZM26.92 51.3333H36.68C37.416 51.3333 38.0133 51.9307 38.0133 52.6667V54.12C38.0133 54.856 37.416 55.4533 36.68 55.4533H34V59.3333H28.6667V55.4533H26.92C26.184 55.4533 25.5867 54.856 25.5867 54.12V52.6667C25.5867 51.9307 26.184 51.3333 26.92 51.3333Z" fill="#141D2B"/>
<path fill-rule="evenodd" clip-rule="evenodd" d="M50.5 12.6013C53.884 16.4267 55.9987 21.196 56.564 26.2533H45.5907C45.2067 24.352 44.4293 22.5507 43.304 20.9693L50.5 12.6013ZM47.6027 9.82534C43.7253 6.67734 38.98 4.76934 34 4.36534V15.28C36.3787 15.6253 38.6307 16.584 40.5253 18.0653L47.6027 9.82534ZM16.604 9.65867C20.4427 6.61067 25.108 4.76267 30 4.36534V15.28C27.7107 15.612 25.54 16.5133 23.6907 17.9L16.604 9.65867ZM13.6827 12.3973C10.192 16.2573 8.01201 21.1053 7.43601 26.2533H18.4093C18.8107 24.264 19.644 22.3827 20.856 20.7493L13.6827 12.3973ZM56.684 30.2533C56.364 36.532 53.6533 42.4627 49.1307 46.8133L42.7867 37.7107C44.5053 35.5853 45.56 32.9867 45.808 30.2533H56.684ZM7.31601 30.2533C7.63334 36.4947 10.3147 42.392 14.7907 46.736L21.1427 37.6227C19.4613 35.512 18.436 32.948 18.192 30.2533H7.31601ZM51.2213 49.808C57.0067 44.4653 60.3333 36.924 60.3333 29C60.3333 21.488 57.3427 14.2787 52.0387 8.96134C46.7213 3.65734 39.512 0.666672 32 0.666672C24.488 0.666672 17.2787 3.65734 11.9613 8.96134C6.65734 14.2787 3.66667 21.488 3.66667 29C3.66667 37.3187 7.34401 45.24 13.6853 50.6173L15.4547 51.932L15.5187 52.016L16.5547 50.5333L24.9587 38.476L25.6027 37.5547L25.996 36.9933L24.4093 35.8853C22.708 34.0067 21.752 31.5467 21.752 29C21.752 26.2867 22.8373 23.6707 24.7533 21.7533C26.6707 19.8373 29.2867 18.752 32 18.752C34.7133 18.752 37.3293 19.8373 39.2467 21.7533C41.1627 23.6707 42.248 26.2867 42.248 29C42.248 31.688 41.1867 34.2693 39.3067 36.1853L38.3467 37.164L38.04 37.44L38.0573 37.4587L38.04 37.476L38.2133 37.6467L38.908 38.476L46.372 49.1853L46.36 49.1947L46.4813 49.3413L47.312 50.5333L48.6747 51.98L51.3147 49.9427L51.2213 49.808Z" fill="#9FEF00"/>
</svg>
