<svg width="64" height="64" viewBox="0 0 64 64" fill="none" xmlns="http://www.w3.org/2000/svg">
<g clip-path="url(#clip0_55_3566)">
<path fill-rule="evenodd" clip-rule="evenodd" d="M57.1958 22.9999C58.1038 25.8666 58.5224 28.8759 58.4184 31.9012C58.3371 34.3172 57.9291 36.7079 57.1998 38.9999H53.3331V22.9999H57.1958ZM55.4184 18.3012C55.2478 17.1639 55.8224 16.0119 56.9051 15.4706C58.2811 14.7839 59.9518 15.3426 60.6358 16.7186C63.0198 21.4772 64.1624 26.7652 63.9811 32.0906C63.8424 36.1506 62.9411 40.1426 61.3104 43.8466C60.6944 45.2546 59.0504 45.8972 57.6424 45.2799C56.5238 44.7906 55.8878 43.6506 56.0131 42.4946C55.7264 43.1226 55.4038 43.7346 55.0571 44.3332H53.3331H47.9998H34.6664H29.3331H15.9998H10.6664H8.93444C8.19444 43.0626 7.56244 41.7346 7.03044 40.3666C7.02111 41.4946 6.29444 42.5279 5.16511 42.9066C3.70778 43.3946 2.12778 42.6039 1.63978 41.1439C0.441109 37.5252 -0.110891 33.7199 0.0184427 29.9092C0.190443 24.8759 1.54111 19.9386 3.98911 15.5252C4.72644 14.1826 6.41711 13.6972 7.76378 14.4426C8.92911 15.0879 9.45044 16.4439 9.08778 17.6666H55.0651C55.1864 17.8759 55.3064 18.0866 55.4184 18.3012ZM6.79444 38.9999C5.88511 36.1186 5.47711 33.1199 5.57978 30.0986C5.66244 27.6812 6.07444 25.2932 6.80111 22.9999H10.6664V38.9999H6.79444ZM45.1811 53.9039C46.5131 53.1426 48.2198 53.6039 48.9891 54.9319C49.7584 56.2599 49.3011 57.9639 47.9678 58.7319C42.7851 61.7159 36.8744 63.1852 30.9091 62.9812C25.4998 62.7972 20.2211 61.2386 15.5691 58.4626C14.2518 57.6732 13.8238 55.9612 14.6131 54.6439C15.4038 53.3266 17.1144 52.8986 18.4331 53.6879C22.2664 55.9906 26.6211 57.2666 31.0984 57.4199C36.0358 57.5879 40.9064 56.3759 45.1811 53.9039ZM20.5478 7.1799C19.1651 7.8399 17.5011 7.25324 16.8331 5.87057C16.1664 4.4879 16.7464 2.82257 18.1291 2.1559C22.7851 -0.0800975 27.9171 -1.15743 33.0904 -0.981431C38.0678 -0.812098 42.9518 0.510569 47.3238 2.90124C48.6744 3.63857 49.1718 5.33324 48.4344 6.6839C47.6971 8.03324 46.0024 8.53057 44.6518 7.79324C41.0438 5.81857 37.0158 4.72124 32.9011 4.5799C28.6318 4.43457 24.3971 5.32124 20.5478 7.1799ZM55.9518 10.7812C55.8984 12.3172 54.6104 13.5199 53.0758 13.4679C51.5411 13.4159 50.3371 12.1266 50.3891 10.5919C50.4411 9.05724 51.7304 7.85324 53.2651 7.90657C54.7998 7.95857 56.0038 9.24657 55.9518 10.7812ZM12.4824 49.3506C12.4304 50.8852 11.1424 52.0892 9.60778 52.0372C8.07178 51.9839 6.86911 50.6959 6.92111 49.1612C6.97311 47.6266 8.26244 46.4226 9.79711 46.4746C11.3318 46.5266 12.5358 47.8159 12.4824 49.3506ZM57.0278 50.8692C57.0798 49.3346 55.8758 48.0466 54.3411 47.9932C52.8064 47.9412 51.5184 49.1452 51.4651 50.6799C51.4131 52.2146 52.6171 53.5039 54.1518 53.5559C55.6864 53.6079 56.9758 52.4039 57.0278 50.8692ZM14.4864 9.3679C14.5384 7.83324 13.3358 6.5439 11.8011 6.4919C10.2651 6.4399 8.97711 7.6439 8.92511 9.17857C8.87178 10.7132 10.0758 12.0012 11.6104 12.0546C13.1464 12.1066 14.4344 10.9026 14.4864 9.3679ZM9.33311 18.9999H11.9998V21.6666H9.33311V18.9999ZM14.6664 18.9999H17.3331V21.6666H14.6664V18.9999ZM19.9998 18.9999H22.6664V21.6666H19.9998V18.9999ZM25.3331 18.9999H27.9998V21.6666H25.3331V18.9999ZM30.6664 18.9999H33.3331V21.6666H30.6664V18.9999ZM35.9998 18.9999H38.6664V21.6666H35.9998V18.9999ZM41.3331 18.9999H43.9998V21.6666H41.3331V18.9999ZM46.6664 18.9999H49.3331V21.6666H46.6664V18.9999ZM51.9998 18.9999H54.6664V21.6666H51.9998V18.9999ZM15.9998 22.9999H29.3331V38.9999H15.9998V22.9999ZM34.6664 22.9999H47.9998V38.9999H34.6664V22.9999ZM9.33311 40.3332H11.9998V42.9999H9.33311V40.3332ZM14.6664 40.3332H17.3331V42.9999H14.6664V40.3332ZM19.9998 40.3332H22.6664V42.9999H19.9998V40.3332ZM25.3331 40.3332H27.9998V42.9999H25.3331V40.3332ZM30.6664 40.3332H33.3331V42.9999H30.6664V40.3332ZM35.9998 40.3332H38.6664V42.9999H35.9998V40.3332ZM41.3331 40.3332H43.9998V42.9999H41.3331V40.3332ZM46.6664 40.3332H49.3331V42.9999H46.6664V40.3332ZM51.9998 40.3332H54.6664V42.9999H51.9998V40.3332Z" fill="#9FEF00"/>
</g>
<defs>
<clipPath id="clip0_55_3566">
<rect width="64" height="64" fill="white"/>
</clipPath>
</defs>
</svg>
