<svg width="64" height="64" viewBox="0 0 64 64" fill="none" xmlns="http://www.w3.org/2000/svg">
<path d="M18.172 18.2493C18.9533 14.4787 21.5093 11.0773 24.9467 9.37334C24.348 9.98 23.6253 10.4453 23.072 11.1053C20.8067 13.548 19.784 17.084 20.4093 20.336C21.1973 25.3 25.8627 29.3547 30.9173 29.2827C34.8373 29.4587 38.6573 27.2027 40.5747 23.8013C44.6787 23.9413 48.6693 26.06 51.012 29.46C52.212 31.236 53.1493 33.316 53.2133 35.4813C52.4533 32.6067 50.544 30.0493 47.9373 28.608C45.4173 27.188 42.3213 26.8267 39.5587 27.664C36.0947 28.6587 33.232 31.4907 32.2453 34.9773C31.408 37.7533 31.7667 40.8147 33.084 43.356C31.252 46.5307 27.9427 48.7947 24.3493 49.4773C21.588 50.056 18.684 49.6093 16.1133 48.4467C18.4133 49.1187 20.9133 49.236 23.2 48.4227C26.2667 47.4067 28.8013 44.9427 29.916 41.904C31.152 38.5947 30.684 34.6613 28.6027 31.8213C27.048 29.584 24.5987 28.008 21.936 27.448C21.0907 27.2973 20.2387 27.2293 19.3867 27.1507C18.0307 24.4173 17.5333 21.2427 18.2147 18.2747" fill="#9FEF00"/>
<path d="M18.172 18.2493C18.9533 14.4787 21.5093 11.0773 24.9467 9.37334C24.348 9.98 23.6253 10.4453 23.072 11.1053C20.8067 13.548 19.784 17.084 20.4093 20.336C21.1973 25.3 25.8627 29.3547 30.9173 29.2827C34.8373 29.4587 38.6573 27.2027 40.5747 23.8013C44.6787 23.9413 48.6693 26.06 51.012 29.46C52.212 31.236 53.1493 33.316 53.2133 35.4813C52.4533 32.6067 50.544 30.0493 47.9373 28.608C45.4173 27.188 42.3213 26.8267 39.5587 27.664C36.0947 28.6587 33.232 31.4907 32.2453 34.9773C31.408 37.7533 31.7667 40.8147 33.084 43.356C31.252 46.5307 27.9427 48.7947 24.3493 49.4773C21.588 50.056 18.684 49.6093 16.1133 48.4467C18.4133 49.1187 20.9133 49.236 23.2 48.4227C26.2667 47.4067 28.8013 44.9427 29.916 41.904C31.152 38.5947 30.684 34.6613 28.6027 31.8213C27.048 29.584 24.5987 28.008 21.936 27.448C21.0907 27.2973 20.2387 27.2293 19.3867 27.1507C18.0307 24.4173 17.5333 21.2427 18.2147 18.2747" stroke="#9FEF00" stroke-width="1.33333"/>
<path d="M25.08 57.76C26.5 58.1427 27.3427 59.6067 26.96 61.0267C26.5773 62.4467 25.1133 63.2893 23.6933 62.9067C16.8933 61.08 10.88 57.0533 6.6 51.4667C2.32 45.88 0 39.04 0 32C0 23.52 3.37333 15.3733 9.37333 9.37333C15.3733 3.37333 23.52 0 32 0C40.48 0 48.6267 3.37333 54.6267 9.37333C60.6267 15.3733 64 23.52 64 32C64 39.0133 61.6933 45.8267 57.4533 51.4C53.2 56.9733 47.24 61 40.48 62.8667C39.06 63.2573 37.5907 62.42 37.2 61C36.8093 59.58 37.6467 58.1107 39.0667 57.72C44.6933 56.1733 49.6667 52.8133 53.2133 48.1733C56.7467 43.52 58.6667 37.84 58.6667 32C58.6667 24.9333 55.8533 18.1467 50.8533 13.1467C45.8533 8.14667 39.0667 5.33333 32 5.33333C24.9333 5.33333 18.1467 8.14667 13.1467 13.1467C8.14667 18.1467 5.33333 24.9333 5.33333 32C5.33333 37.8667 7.26667 43.5733 10.84 48.2267C14.4 52.88 19.4133 56.24 25.08 57.76Z" fill="#9FEF00"/>
</svg>
