<svg width="64" height="65" viewBox="0 0 64 65" fill="none" xmlns="http://www.w3.org/2000/svg">
<g clip-path="url(#clip0_62_4222)">
<path d="M19.3988 9.19061C16.9735 10.4946 14.7655 12.1679 12.8522 14.1479L49.8522 36.5986L10.1948 17.3439C8.58283 19.6319 7.34016 22.1586 6.5135 24.8333L51.0495 39.5413L5.6775 28.6199C5.46016 29.9586 5.3455 31.3106 5.3335 32.6666C5.33616 34.1399 5.46016 35.6119 5.7055 37.0653L47.4615 41.2053L6.7295 41.0759C7.55216 43.5479 8.7335 45.8853 10.2348 48.0159L48.2402 44.5786L12.5882 50.9239C14.5282 52.9933 16.7842 54.7386 19.2735 56.0959L55.7735 44.6826C56.5895 43.0693 57.2375 41.3773 57.7108 39.6333L19.3988 9.19061Z" fill="#9FEF00"/>
<path d="M38.2855 58.588C39.7161 58.248 41.1535 59.1333 41.4948 60.564C41.8348 61.9946 40.9495 63.4333 39.5175 63.7733C32.6695 65.4066 25.4641 64.732 19.0388 61.86C12.6135 58.9866 7.31479 54.0786 3.96146 47.8893C-0.0798775 40.4333 -0.994544 31.664 1.42146 23.5293C3.83746 15.396 9.39346 8.54796 16.8495 4.50796C24.3041 0.467959 33.0748 -0.448041 41.2081 1.96796C49.3415 4.38529 56.1895 9.93996 60.2295 17.396C63.5708 23.5613 64.7895 30.6506 63.7175 37.572C62.6335 44.4986 59.3121 50.8786 54.2575 55.74C53.1948 56.76 51.5041 56.724 50.4841 55.6613C49.4655 54.5986 49.5001 52.908 50.5628 51.888C54.7735 47.848 57.5441 42.524 58.4521 36.7546C59.3415 30.98 58.3228 25.072 55.5401 19.9373C52.1735 13.724 46.4668 9.09729 39.6881 7.08396C32.9108 5.07063 25.6028 5.83063 19.3895 9.19729C13.1775 12.564 8.55079 18.2706 6.53746 25.0493C4.52279 31.828 5.28279 39.1346 8.65079 45.348C11.4455 50.5053 15.8641 54.6026 21.2228 56.9906C26.5695 59.3853 32.5788 59.9506 38.2855 58.588Z" fill="#9FEF00"/>
</g>
<defs>
<clipPath id="clip0_62_4222">
<rect width="64" height="64" fill="white" transform="translate(0 0.666626)"/>
</clipPath>
</defs>
</svg>
