<svg width="64" height="64" viewBox="0 0 64 64" fill="none" xmlns="http://www.w3.org/2000/svg">
<g clip-path="url(#clip0_62_4190)">
<path fill-rule="evenodd" clip-rule="evenodd" d="M16.3121 15.544L17.4548 16.4027C13.8281 18.0747 23.1415 25.7067 23.1415 25.7067C23.1415 25.7067 24.9535 24.076 27.6095 23.904C30.2428 21.204 41.2055 23.2587 40.7948 25.4733C37.1095 25.532 35.9428 25.06 35.9428 25.06C35.9428 25.06 36.1241 25.2707 36.1988 25.9907C35.9295 26.212 32.1201 25.3587 31.3228 25.4187C29.0561 25.592 27.5268 25.6493 25.9001 25.8293C27.0188 26.1987 35.9335 27.7867 38.7841 30.5413C38.0241 30.8347 37.6908 30.7147 37.4375 30.808C37.2148 30.8907 36.9881 31.3453 36.4988 31.3467C36.1468 31.3493 36.2668 31.036 35.5428 30.6933C31.0321 30.8733 29.5695 28.1213 29.1241 27.7827C27.1321 27.308 23.7775 26.2333 23.7775 26.2333C23.7775 26.2333 26.6188 28.5 28.1761 29.7573C28.3055 29.8627 30.4401 30.26 33.1548 31.584C34.6135 30.3893 38.5468 32.416 37.8161 34.272C37.1641 35.924 32.7975 34.2213 32.9575 31.972C31.9601 31.6613 30.1188 30.772 28.9401 30.3467C30.0695 31.228 34.5081 34.9253 35.4001 35.972C39.3081 35.492 45.2068 36.4667 48.8655 38.812C48.0308 39.032 44.0601 39.7867 43.2655 39.5747C41.7868 39.016 39.5841 37.2053 39.3495 37.0013C38.5015 36.8587 36.5961 36.5853 35.8641 36.5013C36.6068 37.2547 39.0575 40.088 39.8268 41.2787C40.1468 41.212 41.7721 41.6027 42.2228 41.908C43.8921 40.2053 46.5988 43.1947 48.2641 44.6373C47.8268 45.5253 40.9601 44.1587 41.8775 42.1707C41.3868 42.1053 40.4055 41.5653 40.0428 41.5373C40.4135 42.0213 41.2201 42.68 42.2841 43.796C43.3081 43.5053 47.1655 47.6787 47.2681 48.5933C44.3815 47.8893 42.9561 47.2773 42.5095 46.756C41.6281 45.7253 41.9615 44.2453 42.0455 43.9773C40.9108 42.9627 40.6988 42.6613 40.3281 42.46C40.3175 42.4707 40.3295 42.772 40.3468 42.9187C42.2108 44.2933 41.3095 48.0987 40.2375 48.2333C39.7708 48.292 38.6961 42.8653 40.0388 42.6627C40.0695 42.556 40.0881 42.2347 40.0895 42.2227C39.3801 41.4507 35.4508 37.272 35.1948 37.096C35.3228 37.4267 35.5308 37.968 35.7228 38.6373C38.0428 40.1547 38.4268 42.5813 38.2521 45.432C37.6961 44.4573 32.2428 40.0187 34.6281 38.052C34.6455 37.748 34.5548 37.06 34.7548 36.672C33.9988 35.916 31.6441 33.592 31.4335 33.5947C31.6961 34.1333 31.8588 34.4413 31.9895 35.024C33.7841 35.92 33.2628 38.2333 32.4455 38.2827C31.5841 38.3347 29.6761 35.6787 31.4708 35.116C31.3255 34.4467 31.0628 33.5387 30.9561 33.144C30.1788 32.5493 27.6068 30.4933 27.0135 30.0147C27.7428 31.2293 28.4561 33.12 28.8121 34.204C30.9628 36.64 30.3681 40.408 30.1508 44.296C27.6268 42.4227 26.0615 36.0293 27.6655 34.4387C27.1295 32.5893 26.3201 29.4613 26.3201 29.4613C22.8508 26.7693 20.9321 24.7507 20.9321 24.7507C20.9321 24.7507 23.2428 27.748 23.5068 29.3547C25.5308 29.7467 27.2215 33.2733 25.6121 33.876C23.2601 34.7547 20.7348 31.0227 22.7415 29.632C22.7415 29.632 20.9641 26.3587 19.5881 23.488C14.1628 17.532 14.6841 15.7427 16.3108 15.544H16.3121ZM29.8895 57.696C31.4548 57.828 32.6215 59.2093 32.4935 60.7787C32.3641 62.3467 30.9828 63.5133 29.4108 63.3813C21.5308 62.7253 14.1761 59.108 8.83879 53.256C3.51479 47.404 0.589454 39.748 0.661454 31.8333C0.736121 23.52 4.11745 15.5653 10.0455 9.72932C15.9868 3.90666 24.0028 0.67199 32.3161 0.746656C40.6295 0.821323 48.5841 4.20266 54.4201 10.1307C60.2415 16.072 63.4775 24.088 63.4028 32.4013C63.3881 33.9747 62.0988 35.2413 60.5255 35.2267C58.9508 35.2133 57.6841 33.924 57.6988 32.3493C57.7601 25.548 55.1108 18.992 50.3481 14.1293C45.5721 9.27999 39.0655 6.51199 32.2641 6.45066C25.4628 6.38932 18.9068 9.03866 14.0441 13.8013C9.19479 18.5773 6.42679 25.084 6.36546 31.8853C6.30679 38.3587 8.68812 44.6267 13.0521 49.4147C17.4148 54.2027 23.4348 57.152 29.8895 57.696ZM54.6535 44.2587C55.3975 42.872 57.1281 42.3507 58.5148 43.0947C59.9001 43.84 60.4215 45.5693 59.6775 46.956C56.5015 52.86 51.5095 57.6067 45.4508 60.4747C44.0281 61.1547 42.3241 60.5507 41.6495 59.128C40.9735 57.7053 41.5801 55.9987 43.0028 55.3187C47.9721 52.968 52.0428 49.0973 54.6535 44.2587Z" fill="#9FEF00"/>
</g>
<defs>
<clipPath id="clip0_62_4190">
<rect width="64" height="64" fill="white"/>
</clipPath>
</defs>
</svg>
