<svg width="512" height="512" viewBox="0 0 512 512" fill="none" xmlns="http://www.w3.org/2000/svg">
<path d="M432 128H80C62.3268 128 48 142.327 48 160V432C48 449.672 62.3268 464 80 464H432C449.672 464 464 449.672 464 432V160C464 142.327 449.672 128 432 128Z" fill="A4B1CD"/>
<path d="M432 48H80C62.3268 48 48 62.3268 48 80V416C48 433.672 62.3268 448 80 448H432C449.672 448 464 433.672 464 416V80C464 62.3268 449.672 48 432 48Z" fill="#141D2B"/>
<path d="M334 160H178C132.713 160 96 196.713 96 242C96 287.287 132.713 324 178 324H334C379.287 324 416 287.287 416 242C416 196.713 379.287 160 334 160Z" fill="A4B1CD"/>
<path d="M334 172H178C132.713 172 96 208.713 96 254C96 299.287 132.713 336 178 336H334C379.287 336 416 299.287 416 254C416 208.713 379.287 172 334 172Z" fill="#9FEF00"/>
<path d="M280.083 249.307C280.027 250.293 280 256.284 280 257.285C280 287.432 304.475 309.185 334.622 309.185C364.769 309.185 389.245 287.432 389.245 257.285C389.245 256.284 389.218 250.293 389.161 249.307C387.614 278.069 363.769 300.947 334.622 300.947C305.476 300.947 281.63 278.069 280.083 249.307Z" fill="A4B1CD"/>
<path d="M334.622 301.245C364.789 301.245 389.245 276.789 389.245 246.622C389.245 216.455 364.789 192 334.622 192C304.455 192 280 216.455 280 246.622C280 276.789 304.455 301.245 334.622 301.245Z" fill="#141D2B"/>
</svg>
