<svg width="1024" height="1024" viewBox="0 0 1024 1024" fill="none" xmlns="http://www.w3.org/2000/svg">
<path d="M508.457 92.2799C483.631 92.3094 459.956 93.4567 444.87 95.8106C349.778 110.647 272.889 153.572 246.924 206.314C239.041 222.327 237.58 228.583 237.58 246.357C237.58 263.945 239.102 270.609 246.797 286.731C264.346 323.502 306.793 355.584 362.189 376.684C376.238 372.374 388.22 365.794 397.686 357.027C403.825 351.341 406.964 347.332 411.274 339.124C403.596 341.593 396.154 341.998 380.487 341.998C356.358 341.998 351.79 341.083 335.651 333.019C314.969 322.684 299.609 306.453 288.756 283.469C277.704 260.066 277.949 227.692 289.37 202.65C324.673 125.241 433.894 121.749 471.586 198.313C479.935 215.272 481.816 228.866 481.595 242.138C481.783 254.26 480.389 267.265 474.251 280.637C472.488 284.478 468.424 291.31 466.354 294.792C488.246 293.596 544.282 293.671 561.996 295.012C560.736 292.959 558.832 290.246 557.688 288.074C550.353 274.148 545.86 266.171 545.461 245.253C545.211 227.754 549.36 213.336 558.903 195.734C570.018 175.232 587.139 161.127 608.985 151.211C630.683 141.361 667.233 141.847 689.683 152.286C710.074 161.767 728.767 176.562 739.479 198.375C746.549 212.772 750.495 223.559 750.484 246.453C749.938 268.735 740.171 286.283 740.171 286.283C724.445 314.106 703.8 331.23 680.448 338.386C657.247 345.496 634.158 344.886 613.738 337.596C621.927 351.975 632.035 361.066 648.298 369.135C653.808 371.869 660.023 374.164 666.679 376.007C688.627 367.739 708.815 357.711 726.379 346.053C766.306 319.552 788.123 288.03 790.892 252.836C796.335 183.662 713.675 118.423 594.117 97.5336C574.2 94.0534 540.377 92.242 508.457 92.2799Z" fill="#A4B1CD"/>
<path d="M300.581 131.907C300.581 123.623 319.586 102.779 335.068 94.0827C352.677 84.1918 369.952 82.6147 392.262 88.8614L406.14 92.7468L377.504 102.102C361.754 107.248 338.991 116.6 326.919 122.886C314.848 129.171 303.983 134.763 302.776 135.313C301.569 135.863 300.581 134.33 300.581 131.907Z" fill="#A4B1CD"/>
<path d="M727.841 137.005C714.604 127.555 675.269 108.864 654.68 102.24C633.699 95.4897 631.782 93.3418 643.19 89.3652C656.173 84.8393 685.049 85.2353 696.689 90.0988C715.585 97.9939 731.102 115.075 739.54 137.268C742.995 146.356 740.873 146.308 727.841 137.005Z" fill="#A4B1CD"/>
<path d="M495.173 955.074C331.203 917.265 234.237 799.643 201.909 599.335C193.015 544.229 186.537 434.987 190.464 406.336C192.604 390.719 205.879 377.325 220.991 375.535C231.851 374.249 236.95 375.703 249.61 383.697C269.317 396.142 290.596 401.597 319.179 401.533C352.565 401.459 379.681 392.607 397.731 375.89C405.075 369.088 408.104 364.768 414.011 352.674C418.002 344.501 423.836 334.897 426.975 331.331C434.275 323.038 447.085 316.222 459.009 314.288C471.171 312.314 553.94 312.314 566.102 314.288C585.107 317.371 600.877 329.812 609.79 348.755C618.739 367.775 629.348 378.574 648.345 387.999C667.314 397.41 694.474 401.773 720.199 399.542C743.621 397.511 753.788 394.025 782.437 378.203C787.562 375.373 790.192 374.926 799.475 375.306C813.614 375.886 822.524 380.906 829.215 392.063C834.61 401.058 835.575 407.136 835.571 432.088C835.555 522.482 825.133 609.848 806.437 676.323C763.013 830.712 671.31 922.944 529.213 955.146C520.45 957.132 512.628 958.717 511.831 958.669C511.035 958.62 503.539 957.002 495.173 955.074ZM528.489 922.502C577.095 910.876 621.859 889.412 657.407 860.686C671.596 849.219 696.506 823.49 707.641 808.798C741.411 764.241 765.046 712.26 781.244 646.924C794.885 591.902 801.367 538.929 803.932 461.494C805.452 415.629 805.391 410.86 803.265 408.734C801.114 406.583 799.68 407.041 785.297 414.475C757.906 428.631 736.441 433.699 704.484 433.557C664.911 433.381 635.18 423.863 609.311 403.092C597.951 393.971 589.05 382.044 580.801 364.892C571.525 345.606 575.991 346.859 514.794 346.371C477.561 346.074 461.551 346.437 458.635 347.645C453.777 349.657 448.387 360.474 448.387 360.474C448.387 360.474 437.765 382.659 431.012 391.086C414.997 411.076 385.758 426.602 351.771 433.164C339.557 435.522 301.547 435.504 289.548 433.136C269.426 429.163 238.935 417.211 231.304 410.305C226.719 406.156 223.712 408.412 222.306 417.058C220.666 427.138 223.515 509.795 226.524 539.44C235.094 623.881 251.945 689.106 280.038 746.577C325.101 838.762 394.618 896.16 491.552 921.218C510.762 926.184 512.805 926.253 528.489 922.502ZM498.974 875.388C483.705 870.499 476.156 863.222 458.764 836.628C444.761 815.218 444.484 813.07 453.86 798.597C457.428 793.089 460.361 788.063 460.378 787.429C460.394 786.794 457.476 781.189 453.891 774.974C445.11 759.751 445.264 757.313 456.064 740.434C464.542 727.183 464.755 726.605 464.755 716.819C464.755 707.854 465.191 706.3 468.852 702.202C472.283 698.362 474.045 697.592 479.687 697.471C485.463 697.347 487.102 698.002 491.161 702.06C495.752 706.647 495.913 707.218 496.403 720.639L496.909 734.485L488.799 746.672C484.338 753.375 480.688 759.296 480.688 759.829C480.688 760.362 483.189 764.116 486.246 768.172C497.884 783.614 498.067 787.399 487.931 802.927C483.947 809.029 480.688 814.343 480.688 814.736C480.688 815.129 483.331 819.636 486.561 824.75C493.652 835.978 500.427 842.19 508.085 844.484C513.161 846.005 514.499 845.833 520.026 842.952C523.45 841.168 528.221 838.057 530.629 836.039C534.875 832.481 545.857 817.282 545.867 814.951C545.87 814.316 542.938 808.711 539.353 802.496C535.208 795.31 532.835 789.445 532.835 786.389C532.835 783.208 535.039 778.047 539.353 771.125C542.938 765.373 545.871 760.194 545.871 759.616C545.871 759.039 542.612 753.17 538.629 746.576L531.386 734.585V697.585V660.585L489.017 660.051C452.848 659.595 445.653 659.141 439.848 656.947C430.33 653.351 420.749 644.403 415.949 634.627L411.884 626.349L411.459 568.612C411.063 514.744 411.229 510.103 413.947 499.358C421.484 469.549 440.288 446.965 467.875 434.587C482.353 428.09 491.151 426.498 512.556 426.498C535.648 426.498 543.373 428.109 561.081 436.622C587.181 449.169 606.66 473.267 614.047 502.148C616.58 512.052 616.849 518.474 616.848 569.003L616.846 624.901L612.707 633.65C605.357 649.187 592.216 657.888 573.031 659.92L564.702 660.802V694.674V728.546L572.669 741.104C582.778 757.037 582.905 760.047 574.118 775.466C570.533 781.757 567.599 787.057 567.599 787.244C567.599 787.431 570.533 792.342 574.118 798.156C583.292 813.037 583.063 815.397 570.51 835.233C558.855 853.652 545.967 866.664 533.572 872.528C523.184 877.442 509.039 878.611 498.974 875.388ZM575.501 626.174C579.006 624.829 582.709 616.979 580.759 615.029C579.693 613.963 579.187 598.248 579.187 566.212C579.187 538.197 578.542 515.469 577.602 510.372C573.974 490.707 561.405 474.172 543.273 465.215L532.251 459.77H509.004H485.758L476.216 464.439C463.106 470.855 452.56 481.612 446.08 495.179L440.854 506.122L440.414 562.965L439.975 619.808L443.607 623.441L447.24 627.073H510.198C544.825 627.073 574.211 626.669 575.501 626.174ZM477.374 539.596C468.575 531.442 471.792 511.62 483.875 499.538C499.319 484.093 525.907 484.19 541.346 499.747C553.68 512.175 556.495 534.267 546.573 540.768C544.65 542.028 540.07 543.06 536.396 543.06C530.943 543.06 528.936 542.281 525.481 538.825C522.779 536.123 521.247 533.095 521.247 530.457C521.247 524.407 517.528 519.883 512.556 519.883C507.583 519.883 503.864 524.407 503.864 530.457C503.864 533.095 502.332 536.123 499.63 538.825C493.937 544.518 483.09 544.894 477.374 539.596Z" fill="#9FEF00"/>
<path d="M93.6931 555.337C75.765 548.93 62.833 536.147 57.0173 519.085C53.37 508.384 54.1251 488.092 58.5318 478.39C76.035 439.853 125.544 432.265 153.353 463.856C162.652 474.421 168.432 488.369 168.432 500.246C168.432 538.334 128.494 567.773 93.6931 555.337ZM129.277 530.726C145.308 519.922 150.305 500.897 141.595 483.824C135.593 472.059 126.313 467.144 110.102 467.144C97.8196 467.144 96.0695 467.727 88.2389 474.43C70.4748 489.635 72.6933 519.308 92.4971 531.384C102.087 537.231 120.102 536.909 129.277 530.726Z" fill="#A4B1CD"/>
<path d="M153.314 450.057C128.872 427.557 88.3698 427.942 62.1963 450.923L54.531 457.653V444.172C54.531 419.323 66.392 392.682 84.2675 377.38C88.9675 373.356 98.8423 367.094 106.211 363.464C125.84 351.789 149.798 356.488 172.429 356.206L236.839 355.855L210.452 365.749C179.87 377.215 176.429 398.022 177.843 434.495C178.356 447.722 179.919 480.153 179.919 480.153C179.919 480.153 158.735 455.047 153.314 450.057Z" fill="#A4B1CD"/>
<path d="M276.803 557.616C255.257 567.719 241.555 586.32 238.964 608.984C238.168 615.945 237.442 623.888 237.349 626.634C237.201 631.058 236.695 631.319 232.914 628.923C226.346 624.762 137.742 574.284 135.802 573.598C134.861 573.265 138.523 570.437 143.941 567.314C160.134 557.979 168.064 548.86 175.07 531.515C179.947 519.44 181.216 513.573 180.995 504.11C180.84 497.488 180.998 491.934 181.345 491.769C181.691 491.603 204.584 504.307 232.217 520C259.85 535.693 283.548 548.942 284.88 549.443C288.774 550.908 286.757 552.949 276.803 557.616Z" fill="#A4B1CD"/>
<path d="M344.346 653.155C337.445 660.558 320.497 669.242 310.315 670.592C303.911 671.441 297.572 670.316 286.31 666.334C272.86 661.577 270.189 659.88 264.25 652.316C250.996 635.439 247.685 618.931 253.982 601.126C260.407 582.959 274.887 570.393 294.602 565.875C304.307 563.651 307.23 563.988 321.215 568.941C338.005 574.897 343.449 579.516 351.471 594.673C360.255 611.268 356.776 639.821 344.346 653.155ZM335.716 611.476C333.631 599.486 327.832 593.222 314.424 588.48C301.663 583.967 293.602 584.851 284.065 591.806C275.453 598.087 269.301 614.698 271.821 624.867C274.266 634.735 283.756 645.652 292.629 648.803C302.467 652.299 317.028 650.135 324.472 644.074C332.65 637.416 337.686 622.814 335.716 611.476Z" fill="#A4B1CD"/>
<path d="M362.206 774.316C357.228 772.693 328.802 746.977 319.786 735.941C314.737 729.761 306.237 715.819 300.897 704.96C291.27 685.384 291.235 685.214 296.781 684.915C299.858 684.75 307.413 684.03 313.57 683.316C319.727 682.602 324.957 682.418 325.191 682.908C325.425 683.399 327.269 690.743 329.289 699.229C335.518 725.396 345.039 746.359 361.846 770.914C363.517 773.355 363.669 774.793 362.206 774.316Z" fill="#A4B1CD"/>
<path d="M445.296 600.366C424.504 599.339 396.327 601.854 380.018 606.192L370.96 608.601L369.645 603.134C368.921 600.127 366.5 593.713 364.264 588.88C362.027 584.047 360.9 579.529 361.758 578.838C362.616 578.148 370.907 577.741 380.182 577.934C402.178 578.39 431.327 585.147 450.654 594.271L465.701 601.374L445.296 600.366Z" fill="#A4B1CD"/>
<path d="M344.777 295.723C321.394 279.809 313.409 261.457 313.085 240.765C312.858 226.26 317.236 213.262 326.529 201.078C356.486 161.802 416.249 166.168 437.678 210.433C443.415 222.285 444.896 232.968 444.373 240.919C443.843 248.976 441.758 257.551 436.273 268.408C418.229 304.126 375.246 316.46 344.777 295.723ZM422.425 229.769C433.354 221.955 429.701 204.522 416.847 202.707C410.629 201.83 404.461 203.964 400.405 209.532C396.458 218.582 397.663 223.473 402.425 228.671C408.336 235.122 416.743 233.832 422.425 229.769Z" fill="#9FEF00"/>
<path d="M622.78 302.521C578.956 280.926 577.05 219.043 619.246 187.778C635.449 175.772 670.722 175.772 686.926 187.778C718.323 211.041 727.121 251.629 707.14 281.033C689.056 307.647 652.221 317.029 622.78 302.521ZM702.749 220.032C702.749 209.937 700.898 207.879 690.782 206.724C673.09 204.705 665.536 219.949 678.036 232.449C687.949 242.362 702.749 234.926 702.749 220.032Z" fill="#9FEF00"/>
<path d="M929.253 553.964C947.181 547.557 960.113 534.774 965.928 517.712C969.576 507.011 968.821 486.719 964.414 477.017C946.911 438.48 897.401 430.892 869.593 462.483C860.294 473.048 854.514 486.996 854.514 498.873C854.514 536.961 894.452 566.4 929.253 553.964ZM893.669 529.353C877.637 518.549 872.641 499.524 881.351 482.451C887.353 470.686 896.633 465.771 912.844 465.771C925.126 465.771 926.876 466.354 934.707 473.057C952.471 488.262 950.252 517.935 930.449 530.01C920.858 535.858 902.844 535.536 893.669 529.353Z" fill="#A4B1CD"/>
<path d="M869.631 448.683C894.074 426.183 934.576 426.568 960.749 449.549L968.414 456.279V442.798C968.414 417.949 956.553 391.308 938.678 376.006C933.978 371.982 924.103 365.72 916.734 362.09C897.106 350.415 873.147 355.114 850.516 354.832L786.106 354.481L812.494 364.375C843.075 375.841 846.517 396.648 845.102 433.121C844.589 446.348 843.026 478.779 843.026 478.779C843.026 478.779 864.211 453.673 869.631 448.683Z" fill="#A4B1CD"/>
<path d="M746.143 556.243C767.688 566.345 781.391 584.947 783.982 607.61C784.777 614.572 785.504 622.515 785.596 625.261C785.745 629.685 786.25 629.945 790.032 627.55C796.6 623.388 885.203 572.91 887.143 572.224C888.085 571.891 884.422 569.064 879.004 565.94C862.811 556.606 854.882 547.487 847.876 530.141C842.998 518.066 841.73 512.199 841.951 502.737C842.105 496.114 841.948 490.561 841.601 490.395C841.255 490.23 818.362 502.934 790.729 518.627C763.096 534.319 739.398 547.569 738.066 548.07C734.172 549.535 736.188 551.575 746.143 556.243Z" fill="#A4B1CD"/>
<path d="M678.599 651.781C685.501 659.185 702.448 667.869 712.631 669.219C719.034 670.068 725.374 668.944 736.635 664.96C750.085 660.204 752.756 658.506 758.696 650.943C771.949 634.065 775.26 617.557 768.964 599.752C762.539 581.586 748.058 569.019 728.344 564.502C718.638 562.278 715.716 562.615 701.731 567.568C684.94 573.523 679.496 578.143 671.475 593.299C662.691 609.895 666.169 638.448 678.599 651.781ZM687.23 610.102C689.314 598.112 695.113 591.849 708.522 587.107C721.282 582.594 729.344 583.477 738.881 590.433C747.493 596.714 753.645 613.324 751.125 623.493C748.68 633.361 739.189 644.278 730.316 647.43C720.479 650.926 705.917 648.761 698.473 642.701C690.295 636.042 685.259 621.44 687.23 610.102Z" fill="#A4B1CD"/>
<path d="M660.74 772.942C665.718 771.319 694.144 745.604 703.159 734.568C708.208 728.387 716.709 714.446 722.049 703.587C731.676 684.011 731.711 683.841 726.164 683.542C723.088 683.376 715.533 682.656 709.375 681.942C703.218 681.228 697.989 681.045 697.755 681.534C697.521 682.025 695.677 689.369 693.656 697.855C687.428 724.022 677.907 744.985 661.1 769.54C659.429 771.981 659.277 773.42 660.74 772.942Z" fill="#A4B1CD"/>
<path d="M577.65 598.992C598.441 597.965 626.618 600.479 642.928 604.818L651.986 607.227L653.301 601.76C654.024 598.753 656.446 592.339 658.682 587.506C660.918 582.673 662.046 578.154 661.187 577.464C660.329 576.774 652.038 576.367 642.763 576.559C620.768 577.015 591.619 583.773 572.291 592.897L557.244 600L577.65 598.992Z" fill="#A4B1CD"/>
<path d="M78.9843 739.048C42.3547 669.049 23.2219 591.221 23.2219 512.217C23.2219 426.9 45.5332 343.066 87.9414 269.035" stroke="#9FEF00" stroke-width="34.7143" stroke-linecap="round" stroke-linejoin="round"/>
<path d="M132.199 204.395C178.064 147.738 236.009 102.046 301.799 70.6585C367.59 39.2713 439.563 22.9824 512.457 22.9824C576.704 22.9824 640.322 35.6369 699.679 60.2232C759.036 84.8096 812.968 120.846 858.398 166.276C903.828 211.706 939.865 265.639 964.451 324.995C989.037 384.352 1001.69 447.97 1001.69 512.217C1001.69 576.465 989.037 640.083 964.451 699.44C939.865 758.796 903.828 812.729 858.398 858.159C812.968 903.588 759.036 939.625 699.679 964.212C640.322 988.798 576.704 1001.45 512.457 1001.45C436.911 1001.45 362.392 983.957 294.74 950.338C227.087 916.72 168.139 867.89 122.515 807.677" stroke="#9FEF00" stroke-width="34.7143" stroke-linecap="round" stroke-linejoin="round"/>
</svg>
