<svg width="64" height="65" viewBox="0 0 64 65" fill="none" xmlns="http://www.w3.org/2000/svg">
<path fill-rule="evenodd" clip-rule="evenodd" d="M50.8002 43.1519H53.4668V48.4853H50.8002H32.7068L26.4695 57.2213C25.6148 58.4186 24.1162 58.5079 23.1242 57.4199L14.9868 48.4853H6.00016C4.52816 48.4853 3.3335 47.2906 3.3335 45.8186V35.8186C3.3335 34.3466 4.52816 33.1519 6.00016 33.1519C7.47216 33.1519 8.66683 34.3466 8.66683 35.8186V43.1519H17.3468L24.4135 50.9119L29.9602 43.1519H50.8002ZM8.66683 23.3653C8.66683 24.8373 7.47216 26.0319 6.00016 26.0319C4.52816 26.0319 3.3335 24.8373 3.3335 23.3653V9.81861C3.3335 8.34661 4.52816 7.15195 6.00016 7.15195H32.3202H34.9868V12.4853H32.3202H8.66683V23.3653Z" fill="#9FEF00"/>
<path fill-rule="evenodd" clip-rule="evenodd" d="M47.4772 48.4853H57.7038C59.3451 48.4853 60.6665 46.7933 60.6665 45.1519V10.4853C60.6665 8.84395 59.3451 7.15195 57.7038 7.15195H33.5518C26.0745 9.63595 19.7905 15.7426 19.3331 23.8493C18.9011 31.5079 25.1438 40.1479 33.2292 40.4853C38.6105 40.7106 44.1078 36.0573 44.2505 30.3653C44.3438 26.6946 41.6798 23.1733 37.7705 23.1519C35.3398 23.1373 32.8518 24.6959 32.8958 27.2919C32.9305 28.8386 34.0891 30.4279 35.7558 30.3546C36.6958 30.3133 37.6691 29.5826 37.5918 28.5626C37.5491 28.0226 37.1132 27.4599 36.5212 27.5293C36.2278 27.5639 35.9225 27.8053 35.9771 28.1253C36.0118 28.2679 36.1278 28.4239 36.2918 28.3866C36.3545 28.3719 36.4198 28.3093 36.4065 28.2399C36.4065 28.2159 36.3705 28.1919 36.3465 28.2039C36.3465 28.2053 36.3118 28.2146 36.3465 28.2253V28.2453C36.3465 28.2733 36.2985 28.2719 36.2731 28.2586C36.2065 28.2239 36.2158 28.1346 36.2398 28.0813C36.3265 27.9426 36.5225 27.9586 36.6438 28.0426C36.9118 28.2306 36.8611 28.6213 36.6798 28.8493C36.3105 29.3173 35.6052 29.2279 35.1932 28.8759C34.4158 28.2106 34.5865 27.0079 35.2265 26.3133C36.3518 25.0853 38.3038 25.3826 39.4171 26.4559C41.2851 28.2599 40.7905 31.6853 39.0625 33.3933C36.2825 36.1386 31.0771 35.3653 28.5438 32.7053C24.6158 28.5799 25.7918 21.0519 29.7545 17.4093C32.2918 15.0773 36.1118 14.0506 39.2918 14.0813C43.5771 14.1239 47.9105 16.0866 50.8465 19.3706C58.3238 27.7346 55.8718 41.2119 47.8078 48.2253C47.6971 48.3159 47.5865 48.3946 47.4772 48.4853Z" fill="#9FEF00"/>
</svg>
