<svg width="64" height="64" viewBox="0 0 64 64" fill="none" xmlns="http://www.w3.org/2000/svg">
<path fill-rule="evenodd" clip-rule="evenodd" d="M36.8745 9.16133C38.4105 9.16133 39.6585 7.91333 39.6585 6.376C39.6585 4.83867 38.4105 3.59067 36.8745 3.59067H6.23717C3.1625 3.59067 0.666504 6.08667 0.666504 9.16133V42.5827C0.666504 45.6573 3.1625 48.1533 6.23717 48.1533H15.6505L21.2278 59.296C21.9158 60.6707 23.2225 60.788 24.1452 59.5587L32.6958 48.1533H36.8745C38.4105 48.1533 39.6585 46.9053 39.6585 45.368C39.6585 43.8307 38.4105 42.5827 36.8745 42.5827H29.9105L23.4212 51.2307L19.1038 42.5827H9.0225C7.48517 42.5827 6.23717 41.3347 6.23717 39.7987V11.9467C6.23717 10.4093 7.48517 9.16133 9.0225 9.16133H36.8745ZM48.0145 42.5827C46.4772 42.5827 45.2292 43.8307 45.2292 45.368C45.2292 46.9053 46.4772 48.1533 48.0145 48.1533H57.7625C60.8372 48.1533 63.3332 45.6573 63.3332 42.5827V9.16133C63.3332 6.08667 60.8372 3.59067 57.7625 3.59067H48.0145C46.4772 3.59067 45.2292 4.83867 45.2292 6.376C45.2292 7.91333 46.4772 9.16133 48.0145 9.16133H54.9772C56.5145 9.16133 57.7625 10.4093 57.7625 11.9467V39.7987C57.7625 41.3347 56.5145 42.5827 54.9772 42.5827H48.0145ZM13.3798 14.6667C12.4212 14.6533 11.5278 15.1587 11.0438 15.9893C10.5598 16.82 10.5598 17.8467 11.0438 18.6773C11.5278 19.508 12.4212 20.0133 13.3798 20H45.3158C46.2758 20.0133 47.1678 19.508 47.6518 18.6773C48.1358 17.8467 48.1358 16.82 47.6518 15.9893C47.1678 15.1587 46.2758 14.6533 45.3158 14.6667H13.3798ZM13.3798 22.6667C12.4198 22.6533 11.5278 23.1587 11.0438 23.9893C10.5598 24.82 10.5598 25.8467 11.0438 26.6773C11.5278 27.508 12.4198 28.0133 13.3798 28H39.9825C40.9425 28.0133 41.8345 27.508 42.3185 26.6773C42.8025 25.8467 42.8025 24.82 42.3185 23.9893C41.8345 23.1587 40.9425 22.6533 39.9825 22.6667H13.3798ZM13.3785 30.6667C12.4198 30.6533 11.5278 31.1587 11.0438 31.9893C10.5598 32.82 10.5598 33.8467 11.0438 34.6773C11.5278 35.508 12.4198 36.0133 13.3785 36H34.6505C35.6105 36.0133 36.5025 35.508 36.9852 34.6773C37.4692 33.8467 37.4692 32.82 36.9852 31.9893C36.5025 31.1587 35.6105 30.6533 34.6505 30.6667H13.3785Z" fill="#9FEF00"/>
</svg>
