<svg width="65" height="65" viewBox="0 0 65 65" fill="none" xmlns="http://www.w3.org/2000/svg">
<path d="M29.9918 33.7457L28.6347 33.9072L16.4626 35.3555L16.8824 38.9077L30.4116 37.2979L29.9918 33.7457ZM44.5768 19.8139L43.7579 20.9446L38.0831 28.7806L41.2814 31.0969L47.7752 22.1302L44.5768 19.8139ZM48.118 13.4065C45.5215 13.4065 43.3848 15.5425 43.3848 18.1391C43.3848 20.7356 45.5215 22.8722 48.118 22.8722C50.7145 22.8722 52.8511 20.7356 52.8511 18.1391C52.8511 15.5425 50.7145 13.4065 48.118 13.4065ZM48.118 16.3403C49.1289 16.3403 49.9167 17.1282 49.9167 18.1391C49.9167 19.15 49.1289 19.9378 48.118 19.9378C47.1071 19.9378 46.3192 19.15 46.3192 18.1391C46.3192 17.1282 47.1071 16.3403 48.118 16.3403ZM35.7051 27.2233C31.691 27.2233 28.4002 30.5146 28.4002 34.5287C28.4002 38.5428 31.691 41.8336 35.7051 41.8336C39.7192 41.8336 43.0106 38.5428 43.0106 34.5287C43.0106 30.5146 39.7192 27.2233 35.7051 27.2233ZM35.7051 30.6702C37.8563 30.6702 39.563 32.3775 39.563 34.5287C39.563 36.6799 37.8563 38.3866 35.7051 38.3866C33.5539 38.3866 31.8472 36.6799 31.8472 34.5287C31.8472 32.3775 33.5539 30.6702 35.7051 30.6702ZM14.2913 34.3527C12.5877 34.3527 11.187 35.7534 11.187 37.457C11.187 39.1606 12.5877 40.5619 14.2913 40.5619C15.9949 40.5619 17.3962 39.1606 17.3962 37.457C17.3962 35.7534 15.9949 34.3527 14.2913 34.3527ZM14.2913 36.2125C14.9896 36.2125 15.5358 36.7588 15.5358 37.457C15.5358 38.1552 14.9896 38.7015 14.2913 38.7015C13.5931 38.7015 13.0474 38.1552 13.0474 37.457C13.0474 36.7588 13.5931 36.2125 14.2913 36.2125ZM43.1475 43.3276L44.4237 42.0917L46.5328 44.1336L45.3506 45.4367L43.1475 43.3276ZM40.6756 41.1244L42.1399 39.6602L43.9535 41.5543L42.6236 42.9649L40.6756 41.1244ZM28.0075 25.9711L29.5659 24.7351L31.8496 27.5294L30.1569 28.8728L28.0075 25.9711ZM25.7103 23.1231L27.1343 21.9678L29.1763 24.2784L27.6717 25.5412L25.7103 23.1231ZM31.5406 41.4872L33.5288 42.5081L31.7018 45.7323L29.7136 44.8725L31.5406 41.4872ZM49.4347 43.8367C47.2151 43.8367 45.3896 45.6621 45.3896 47.8818C45.3896 50.1014 47.2151 51.9268 49.4347 51.9268C51.6543 51.9268 53.4797 50.1014 53.4797 47.8818C53.4797 45.6621 51.6543 43.8367 49.4347 43.8367ZM29.2299 45.7176C27.7474 45.7176 26.5282 46.9363 26.5282 48.4188C26.5282 49.9012 27.7474 51.1205 29.2299 51.1205C30.7123 51.1205 31.9316 49.9012 31.9316 48.4188C31.9316 46.9363 30.7123 45.7176 29.2299 45.7176ZM24.1791 16.7541C22.4902 16.7541 21.1014 18.1429 21.1014 19.8317C21.1014 21.5206 22.4902 22.9094 24.1791 22.9094C25.868 22.9094 27.2568 21.5206 27.2568 19.8317C27.2568 18.1429 25.868 16.7541 24.1791 16.7541Z" fill="#A4B1CD"/>
<path d="M59.892 13.683C59.892 8.93262 56.0676 5.10828 51.3172 5.10828H13.3502C8.59974 5.10828 4.77539 8.93262 4.77539 13.683V51.6501C4.77539 56.4006 8.59974 60.2249 13.3502 60.2249H51.3172C56.0676 60.2249 59.892 56.4006 59.892 51.6501V25.6878" stroke="#9FEF00" stroke-width="5.333" stroke-linecap="round" stroke-linejoin="round"/>
</svg>
