<svg width="64" height="64" viewBox="0 0 64 64" fill="none" xmlns="http://www.w3.org/2000/svg">
<path fill-rule="evenodd" clip-rule="evenodd" d="M33.3337 20.0004C33.847 30.3364 34.5963 39.4711 35.1483 44.0004H39.4897L42.5283 32.5031L45.7243 44.0004H50.1457C50.699 39.4711 51.487 30.3364 52.0003 20.0004H47.7763C47.6577 22.4391 47.2257 36.9537 47.0683 38.1537H46.9483C45.883 34.2444 45.0163 30.5377 43.951 26.6671H41.5417C40.5163 30.5377 39.8057 33.9737 38.7403 38.1537H38.5843C38.4657 36.9537 37.7923 22.4391 37.7137 20.0004H33.3337ZM21.8617 24.8964L21.071 29.8284C19.599 28.8031 17.8363 27.8577 17.8363 26.9511C17.8363 25.9257 19.4843 24.8964 21.8617 24.8964ZM22.315 35.2297C23.787 36.2551 24.8443 37.1604 24.8443 38.1457C24.8443 39.2111 23.8243 40.1871 21.4843 40.3057L22.315 35.2297ZM22.6537 17.3337L21.9377 21.3497C16.2403 21.8217 13.347 24.7057 13.347 27.3471C13.347 30.0271 17.183 32.0751 20.0883 33.8497L19.031 40.2271C17.6737 40.1484 16.0137 39.9097 14.0883 39.5551L13.3337 43.6151C14.9563 43.8124 16.4643 43.9297 17.823 43.9697L16.995 47.9617L20.6937 48.0004L21.4097 43.8124C27.107 43.2604 29.3337 40.5897 29.3337 37.9484C29.3337 35.2284 26.1643 33.1004 23.2577 31.2484L24.315 25.0137C25.523 25.1311 26.9563 25.3697 28.6537 25.7244L29.1457 21.6644C27.863 21.4671 26.6537 21.3897 25.5217 21.3097L26.391 17.3724L22.6537 17.3337ZM6.23766 31.4231C6.23766 32.9604 4.98966 34.2084 3.45233 34.2084C1.91499 34.2084 0.666992 32.9604 0.666992 31.4231V10.5337C0.666992 8.31907 1.54433 6.1884 3.11766 4.62973C4.67766 3.05507 6.80833 2.17773 9.02299 2.17773H34.0897C35.627 2.17773 36.875 3.42573 36.875 4.96307C36.875 6.5004 35.627 7.7484 34.0897 7.7484H9.02299C8.28433 7.7484 7.57366 8.0404 7.05899 8.56973C6.52966 9.08573 6.23766 9.79507 6.23766 10.5337V31.4231ZM57.763 42.3257C57.763 40.7897 59.011 39.5417 60.5483 39.5417C62.0857 39.5417 63.3337 40.7897 63.3337 42.3257V53.4671C63.3337 55.6817 62.4563 57.8124 60.883 59.3711C59.323 60.9457 57.1923 61.8231 54.9777 61.8231H9.02299C6.80833 61.8231 4.67766 60.9457 3.11766 59.3711C1.54433 57.8124 0.666992 55.6817 0.666992 53.4671V50.6817C0.666992 49.1444 1.91499 47.8964 3.45233 47.8964C4.98966 47.8964 6.23766 49.1444 6.23766 50.6817V53.4671C6.23766 54.2057 6.52966 54.9151 7.05899 55.4311C7.57366 55.9604 8.28433 56.2524 9.02299 56.2524H54.9777C55.7163 56.2524 56.427 55.9604 56.9417 55.4311C57.471 54.9151 57.763 54.2057 57.763 53.4671V42.3257ZM46.623 7.7484C45.0857 7.7484 43.8377 6.5004 43.8377 4.96307C43.8377 3.42573 45.0857 2.17773 46.623 2.17773H54.9777C57.1923 2.17773 59.323 3.05507 60.883 4.62973C62.4563 6.1884 63.3337 8.31907 63.3337 10.5337V23.0671C63.3337 24.6044 62.0857 25.8524 60.5483 25.8524C59.011 25.8524 57.763 24.6044 57.763 23.0671V10.5337C57.763 9.79507 57.471 9.08573 56.9417 8.56973C56.427 8.0404 55.7163 7.7484 54.9777 7.7484H46.623Z" fill="#9FEF00"/>
</svg>
