<svg width="64" height="65" viewBox="0 0 64 65" fill="none" xmlns="http://www.w3.org/2000/svg">
<g clip-path="url(#clip0_62_4170)">
<path fill-rule="evenodd" clip-rule="evenodd" d="M34.784 56.1773C33.8747 56.3013 32.944 56.3546 32 56.3546C18.7547 56.3546 8 45.6013 8 32.3546C8 26.4639 10.1267 21.0666 13.6533 16.8879L13.3333 17.0213C17.332 10.2439 25.3453 3.59059 28.5493 1.71192C30.4533 0.594586 30.9907 0.773253 29.748 2.10925C29.748 2.10925 28.456 4.81325 28.9773 8.55725C29.964 8.41992 30.9747 8.35459 32 8.35459C45.2453 8.35459 56 19.1093 56 32.3546C56 38.2853 53.844 43.7159 50.264 47.8959C46.2213 54.5866 38.3653 61.0999 35.2013 62.9546C33.2973 64.0719 32.76 63.8933 34.0027 62.5573C34.0027 62.5573 35.2787 59.8866 34.784 56.1773ZM27.3333 32.3546C27.3333 31.1146 27.8267 29.9279 28.7067 29.0613C29.5733 28.1813 30.76 27.6879 32 27.6879C33.24 27.6879 34.4267 28.1813 35.2933 29.0613C36.1733 29.9279 36.6667 31.1146 36.6667 32.3546C36.6667 33.5946 36.1733 34.7813 35.2933 35.6479C34.4267 36.5279 33.24 37.0213 32 37.0213C30.76 37.0213 29.5733 36.5279 28.7067 35.6479C27.8267 34.7813 27.3333 33.5946 27.3333 32.3546ZM22 32.3546C22 26.8359 26.4813 22.3546 32 22.3546C37.5187 22.3546 42 26.8359 42 32.3546C42 37.8746 37.5187 42.3546 32 42.3546C26.4813 42.3546 22 37.8746 22 32.3546ZM13.3333 32.3546C13.3333 27.4079 15.3067 22.6613 18.8 19.1546C22.3067 15.6613 27.0533 13.6879 32 13.6879C36.9467 13.6879 41.6933 15.6613 45.2 19.1546C48.6933 22.6613 50.6667 27.4079 50.6667 32.3546C50.6667 37.3013 48.6933 42.0479 45.2 45.5546C41.6933 49.0479 36.9467 51.0213 32 51.0213C27.0533 51.0213 22.3067 49.0479 18.8 45.5546C15.3067 42.0479 13.3333 37.3013 13.3333 32.3546Z" fill="#9FEF00"/>
</g>
<defs>
<clipPath id="clip0_62_4170">
<rect width="64" height="64" fill="white" transform="translate(0 0.333252)"/>
</clipPath>
</defs>
</svg>
