<svg width="64" height="65" viewBox="0 0 64 65" fill="none" xmlns="http://www.w3.org/2000/svg">
<g clip-path="url(#clip0_62_4166)">
<path fill-rule="evenodd" clip-rule="evenodd" d="M51.4761 11.6732C52.5881 12.6572 54.2881 12.5546 55.2721 11.4426C56.2561 10.3319 56.1521 8.63191 55.0414 7.64791C50.2014 3.37591 43.9468 1.00925 37.4934 1.00925C30.4707 1.00925 23.7241 3.80658 18.7454 8.76925C13.7827 13.7479 10.9854 20.4946 10.9854 27.5159C10.9854 34.5386 13.7827 41.2853 18.7454 46.2639C23.7241 51.2266 30.4707 54.0239 37.4934 54.0239C44.4841 54.0239 51.2001 51.2572 56.1628 46.3399C61.1268 41.4226 63.9387 34.7239 64.0001 27.7319C64.0081 26.2479 62.8107 25.0319 61.3267 25.0199C59.8427 25.0066 58.6307 26.2012 58.6214 27.6852C58.5761 33.2639 56.3321 38.5959 52.3681 42.5146C48.4188 46.4479 43.0708 48.6452 37.4934 48.6452C31.8841 48.6452 26.5054 46.4172 22.5574 42.4519C18.5921 38.5039 16.3641 33.1252 16.3641 27.5159C16.3641 21.9079 18.5921 16.5292 22.5574 12.5799C26.5054 8.61591 31.8841 6.38791 37.4934 6.38791C42.6414 6.38791 47.6201 8.27725 51.4761 11.6732ZM57.2548 20.0332C57.7801 21.4239 59.3361 22.1266 60.7267 21.5999C62.1174 21.0746 62.8201 19.5186 62.2948 18.1279C61.9108 17.1599 61.4801 16.1919 61.0041 15.2692C60.3161 13.9466 58.6881 13.4332 57.3694 14.1252C56.0508 14.8159 55.5441 16.4439 56.2401 17.7586C56.6241 18.4959 56.9628 19.2652 57.2548 20.0332ZM13.8881 47.2359C14.6561 46.3999 14.6027 45.0999 13.7694 44.3346C12.9361 43.5706 11.6361 43.6239 10.8694 44.4532L2.29742 53.8039C1.36675 54.8066 0.854749 56.1159 0.846749 57.4759C0.838749 59.0692 1.52142 60.5959 2.72275 61.6346L4.12142 62.8599C5.14808 63.7572 6.45742 64.2439 7.80542 64.2519C9.39875 64.2612 10.9254 63.6012 11.9987 62.4359C11.9987 62.4359 11.9988 62.4359 12.0108 62.4359L20.5814 53.0852C21.3494 52.2492 21.2961 50.9492 20.4628 50.1852C19.6294 49.4199 18.3307 49.4786 17.5627 50.3146L8.99075 59.6533C8.68408 59.9799 8.27342 60.1532 7.82808 60.1506C7.46542 60.1492 7.10275 60.0172 6.82275 59.7706L5.42275 58.5439C5.12008 58.2839 4.94675 57.9079 4.94808 57.4986C4.95075 57.1586 5.08142 56.8306 5.30542 56.5746C5.31742 56.5746 5.31742 56.5746 5.31742 56.5746L13.8881 47.2359ZM50.1041 26.5866C50.1041 25.8132 50.7321 25.1866 51.5054 25.1866C52.2788 25.1866 52.9068 25.8132 52.9068 26.5866V37.0972C52.9068 39.0306 51.3374 40.5999 49.4041 40.5999H25.5827C23.6481 40.5999 22.0787 39.0306 22.0787 37.0972V26.5866C22.0787 25.8132 22.7067 25.1866 23.4801 25.1866C24.2534 25.1866 24.8814 25.8132 24.8814 26.5866V35.6959C24.8814 36.8559 25.8227 37.7972 26.9841 37.7972H48.0027C49.1627 37.7972 50.1041 36.8559 50.1041 35.6959V26.5866ZM25.5827 18.1799H49.4041C49.7908 18.1799 50.1041 18.4932 50.1041 18.8799V19.5532C50.1041 19.9399 49.8667 20.4586 49.5747 20.7119L39.0814 29.8066C38.2054 30.5666 36.7814 30.5666 35.9041 29.8066L25.4107 20.7119C25.1187 20.4586 24.8814 19.9399 24.8814 19.5532V18.8799C24.8814 18.4932 25.1961 18.1799 25.5827 18.1799ZM23.4801 15.3772H51.5054C52.2788 15.3772 52.9068 16.0052 52.9068 16.7786V20.3092C52.9068 21.0826 52.4254 22.1132 51.8321 22.6092L40.1801 32.3546C38.6974 33.5959 36.2894 33.5959 34.8054 32.3546L23.1534 22.6092C22.5601 22.1132 22.0787 21.0826 22.0787 20.3092V16.7786C22.0787 16.0052 22.7067 15.3772 23.4801 15.3772Z" fill="#9FEF00"/>
</g>
<defs>
<clipPath id="clip0_62_4166">
<rect width="64" height="64" fill="white" transform="translate(0 0.333252)"/>
</clipPath>
</defs>
</svg>
