<svg width="64" height="64" viewBox="0 0 64 64" fill="none" xmlns="http://www.w3.org/2000/svg">
<path d="M23.0747 4.91067V10.2213V12.452L18.612 10.2213V4.13733C18.5813 3.14 18.8787 2.15867 19.4893 1.35467C20.1733 0.477332 21.244 -0.0280009 22.36 0.00133243C23.1333 0.0159991 23.892 0.238666 24.5613 0.626666L49.0933 14.3413C51.3987 15.636 52.8267 18.076 52.8267 20.724V53.972C52.856 54.9387 52.5734 55.8907 52.024 56.6653C51.3534 57.5573 50.2973 58.0787 49.1973 58.048C48.3347 58.0187 47.516 57.7507 46.8173 57.2747C46.7867 57.26 46.772 57.2453 46.7574 57.2307L41.8333 53.6147L42.6814 48.6907L44.4813 50.0147L48.364 52.872V20.724C48.364 19.6973 47.8134 18.7453 46.9054 18.24L23.0747 4.91067Z" fill="#141D2B"/>
<path fill-rule="evenodd" clip-rule="evenodd" d="M15.636 10.8613L39.4387 24.1747C39.884 24.4427 40.2267 24.8147 40.464 25.276C40.7467 25.692 40.9107 26.1987 40.9254 26.704V58.9253L17.1094 44.0493C16.2014 43.4693 15.636 42.4733 15.636 41.3867V10.8613ZM17.124 6.576L41.6547 20.292C41.6694 20.3067 41.684 20.3067 41.6987 20.3227C42.8 20.9773 43.6934 21.8987 44.3174 23.0147C44.9867 24.1013 45.3587 25.336 45.388 26.6147C45.388 26.6293 45.388 26.644 45.388 26.6747V59.9227C45.4187 60.8893 45.136 61.8413 44.5854 62.6147C43.916 63.508 42.86 64.028 41.7587 63.9987C40.9254 63.9693 40.108 63.716 39.4227 63.2547L14.744 47.828C12.5267 46.4453 11.1734 44.0053 11.1734 41.3867V10.0867C11.144 9.09067 11.4414 8.10933 12.0507 7.30533C12.7347 6.428 13.8067 5.92133 14.9227 5.952C15.696 5.96667 16.4547 6.18933 17.124 6.576ZM23.8187 26.2427L32.5507 31.1227C32.6094 31.152 32.64 31.212 32.6694 31.2707C32.7147 31.316 32.744 31.3907 32.744 31.4493V43.5587L24.0267 38.1147C23.892 38.0253 23.8187 37.8907 23.8187 37.728V26.2427ZM23.996 21.2293L34.7667 27.24C34.7814 27.2547 34.7974 27.2693 34.812 27.2693C35.5254 27.7013 36.1054 28.296 36.5227 29.0093C36.9534 29.7093 37.1774 30.5267 37.2067 31.3453C37.2067 31.36 37.2067 31.3907 37.2067 31.4053V46.0587C37.236 46.772 37.0134 47.4867 36.5974 48.0813C36.0467 48.8107 35.168 49.2413 34.2467 49.2267C33.6214 49.1973 33.0267 49.0187 32.5054 48.676L21.6614 41.8933C20.2334 41 19.3547 39.4227 19.3547 37.728V23.9667C19.34 23.208 19.564 22.4787 20.024 21.8693C20.5894 21.1547 21.4534 20.7387 22.3747 20.768C22.94 20.784 23.5054 20.932 23.996 21.2293Z" fill="#9FEF00"/>
</svg>
