<svg width="1024" height="1024" viewBox="0 0 1024 1024" fill="none" xmlns="http://www.w3.org/2000/svg">
<path d="M50.0901 686.269C72.8722 765.389 139.478 830.61 248.787 830.61C296.964 830.61 385.744 801.223 426.148 781.327C469.65 800.489 517.501 810.455 566.001 810.455C600.199 810.456 634.17 805.5 666.593 795.782C691.463 802.607 761.281 813.8 787.61 813.956C818.629 814.139 872.898 819.227 924.027 776.073C970.447 736.894 981.125 666.711 978.422 632.413C973.85 580.091 940.088 499.797 874.486 465.314C841.822 336.552 714.146 221 566.395 221C431.844 221.001 311.626 321.212 267.327 434.742C154.225 442.724 64.618 507.184 45.1589 589.302" stroke="#9FEF00" stroke-width="82.0362"/>
<path d="M580.46 441.032C576.209 440.894 571.876 440.897 567.48 441.047C563.328 441.19 559.817 441.36 556.818 441.581C553.819 441.801 551.333 442.071 549.232 442.411C547.13 442.751 545.413 443.16 543.954 443.661C542.495 444.161 541.294 444.751 540.222 445.454L534.628 449.12L535.288 487.006C535.446 496.051 535.58 502.961 535.765 508.344C535.95 513.728 536.185 517.586 536.546 520.524C536.907 523.463 537.394 525.481 538.081 527.19C538.768 528.899 539.655 530.298 540.818 531.993C542.33 534.198 544.057 536.264 546.009 538.2C547.961 540.136 550.138 541.941 552.55 543.622C554.962 545.302 557.609 546.859 560.503 548.299C563.397 549.74 566.536 551.065 569.933 552.28C571.72 552.919 573.79 553.462 576.07 553.913C578.349 554.364 580.838 554.722 583.466 554.989C586.094 555.256 588.86 555.434 591.691 555.522C594.521 555.61 597.417 555.609 600.306 555.522C603.195 555.435 606.078 555.26 608.88 555.003C611.682 554.745 614.405 554.403 616.976 553.979C619.547 553.555 621.965 553.048 624.159 552.461C626.354 551.875 628.322 551.211 629.995 550.467C632.774 549.232 635.404 547.848 637.876 546.323C640.349 544.798 642.666 543.132 644.822 541.335C646.977 539.537 648.971 537.606 650.798 535.553C652.625 533.501 654.284 531.326 655.771 529.036C657.258 526.745 658.572 524.339 659.708 521.829C660.844 519.318 661.802 516.704 662.575 513.991C663.349 511.278 663.936 508.467 664.335 505.569C664.734 502.671 664.945 499.685 664.958 496.62C664.977 492.432 664.807 488.855 664.367 485.69C664.146 484.107 663.856 482.629 663.489 481.227C663.123 479.826 662.678 478.503 662.144 477.233C661.61 475.963 660.989 474.747 660.267 473.559C659.545 472.372 658.723 471.214 657.792 470.059C655.931 467.749 653.634 465.454 650.814 462.977C648.688 461.11 646.339 459.349 643.79 457.698C641.242 456.047 638.493 454.506 635.562 453.081C632.631 451.656 629.518 450.347 626.243 449.159C622.969 447.97 619.534 446.903 615.956 445.962C612.379 445.02 608.657 444.204 604.816 443.52C600.974 442.836 597.011 442.282 592.945 441.866C588.879 441.449 584.711 441.171 580.46 441.032Z" fill="#9FEF00"/>
<path d="M569.466 305.081C514.87 305.09 462.514 326.784 423.912 365.392C385.31 404 363.624 456.36 363.624 510.956C363.625 539.406 369.522 567.547 380.943 593.604C392.364 619.66 409.063 643.067 429.984 662.347C429.972 647.094 429.939 636.555 429.935 617.518C429.927 574.144 429.927 541.205 429.993 516.099C430.059 490.993 430.19 473.72 430.437 461.679C430.56 455.658 430.715 450.945 430.904 447.214C431.093 443.483 431.317 440.735 431.585 438.644C431.853 436.552 432.165 435.117 432.525 434.015C432.885 432.912 433.293 432.144 433.759 431.38C434.968 429.397 436.344 427.547 437.913 425.821C439.483 424.095 441.247 422.493 443.234 421.003C445.221 419.513 447.431 418.136 449.892 416.862C452.353 415.588 455.065 414.418 458.058 413.339C461.051 412.26 464.325 411.272 467.906 410.368C471.486 409.464 475.375 408.643 479.601 407.894C483.827 407.144 488.39 406.465 493.318 405.849C498.246 405.232 503.539 404.678 509.226 404.175C513.887 403.762 518.989 403.432 524.409 403.181C529.83 402.929 535.568 402.755 541.497 402.657C553.356 402.461 565.983 402.563 578.38 402.935C590.778 403.306 602.945 403.949 613.884 404.829C619.353 405.269 624.515 405.769 629.245 406.325C633.975 406.881 638.274 407.493 642.015 408.157C646.794 409.006 651.419 409.931 655.888 410.931C660.357 411.931 664.671 413.006 668.831 414.159C672.992 415.312 676.999 416.542 680.853 417.849C684.706 419.156 688.407 420.54 691.954 422.003C695.502 423.466 698.898 425.007 702.142 426.626C705.386 428.245 708.476 429.942 711.417 431.72C714.358 433.497 717.15 435.355 719.79 437.292C722.43 439.229 724.92 441.248 727.261 443.347C729.602 445.445 731.793 447.623 733.835 449.884C735.878 452.145 737.773 454.487 739.519 456.911C741.265 459.336 742.862 461.843 744.314 464.433C745.765 467.022 747.07 469.694 748.228 472.45C749.386 475.206 750.399 478.046 751.265 480.97C752.131 483.894 752.851 486.902 753.427 489.995C754.003 493.088 754.435 496.268 754.722 499.532C755.009 502.796 755.152 506.145 755.152 509.581C755.152 512.674 755.061 515.698 754.88 518.653C754.699 521.608 754.427 524.493 754.066 527.308C753.705 530.122 753.255 532.867 752.716 535.54C752.177 538.213 751.549 540.812 750.833 543.341C750.117 545.869 749.313 548.326 748.421 550.708C747.53 553.09 746.551 555.4 745.486 557.634C744.421 559.868 743.27 562.026 742.033 564.11C740.795 566.194 739.47 568.202 738.062 570.134C736.653 572.066 735.161 573.921 733.583 575.698C732.005 577.476 730.343 579.177 728.597 580.798C726.851 582.419 725.021 583.962 723.109 585.425C721.196 586.888 719.2 588.272 717.122 589.575C715.045 590.878 712.885 592.101 710.644 593.241C708.403 594.382 706.081 595.441 703.677 596.417C701.274 597.393 698.79 598.287 696.226 599.097C693.662 599.907 691.018 600.634 688.294 601.276C686.186 601.773 683.773 602.207 681.121 602.579C678.468 602.952 675.577 603.262 672.515 603.511C666.391 604.007 659.583 604.256 652.628 604.255C645.674 604.254 638.572 604.005 631.863 603.507C628.508 603.258 625.251 602.946 622.16 602.573C619.068 602.2 616.142 601.766 613.449 601.269C607.875 600.239 601.727 598.86 595.357 597.239C588.987 595.619 582.395 593.757 575.931 591.763C569.468 589.768 563.133 587.641 557.279 585.489C551.424 583.338 546.049 581.163 541.505 579.071L526.857 572.325L526.814 694.929C526.811 702.307 526.791 705.822 526.783 712.349C540.827 715.328 555.143 716.83 569.498 716.831C596.534 716.831 623.305 711.506 648.283 701.16C673.261 690.814 695.957 675.649 715.074 656.532C734.191 637.414 749.356 614.719 759.702 589.741C770.048 564.763 775.373 537.992 775.373 510.956C775.373 483.92 770.048 457.149 759.702 432.171C749.356 407.193 734.191 384.498 715.074 365.38C695.957 346.263 673.261 331.099 648.283 320.752C623.305 310.406 596.534 305.081 569.498 305.081C569.487 305.081 569.477 305.081 569.466 305.081Z" fill="#9FEF00"/>
</svg>
