<svg width="64" height="64" viewBox="0 0 64 64" fill="none" xmlns="http://www.w3.org/2000/svg">
<g clip-path="url(#clip0_62_6375)">
<path d="M19.6413 44.2254C20.128 44.7174 20.388 45.364 20.388 46.044C20.388 46.7067 20.128 47.3534 19.6413 47.8467C19.1387 48.3227 18.4787 48.5947 17.7853 48.5947C17.108 48.5947 16.4493 48.3227 15.9453 47.8467L8.65201 40.6867C7.60134 39.6547 7.60267 37.9814 8.65334 36.952L16.8333 28.9374C17.3587 28.4227 17.3587 27.5867 16.8333 27.0707L15.0587 25.3334C14.5333 24.8174 13.68 24.8174 13.1533 25.3334L4.90934 33.4107C4.42267 33.8867 3.76401 34.1587 3.06934 34.1587C2.37601 34.1587 1.71601 33.8867 1.23067 33.4107C0.744008 32.9347 0.466675 32.2894 0.466675 31.6094C0.466675 30.9294 0.744008 30.2827 1.23067 29.8067L12.2027 19.0414C13.2533 18.0107 14.96 18.0094 16.0107 19.04L23.256 26.1374C24.3067 27.168 24.3067 28.84 23.2547 29.8694L15.06 37.8854C14.5333 38.4 14.5333 39.236 15.06 39.7494L19.6413 44.2254Z" fill="#A4B1CD"/>
<path d="M30.0706 1.54805C30.5573 1.07205 31.216 0.800049 31.9106 0.800049C32.588 0.800049 33.264 1.07205 33.7506 1.54805C34.236 2.02405 34.5133 2.68672 34.5133 3.35072C34.5133 4.03072 34.236 4.67605 33.7506 5.15338L25.488 13.248C24.9626 13.7627 24.9626 14.5987 25.4906 15.112L27.2773 16.8547C27.804 17.368 28.6586 17.3667 29.184 16.852L37.3653 8.82272C38.416 7.79205 40.1213 7.79205 41.172 8.82272L48.4013 15.9174C49.452 16.9494 49.452 18.6214 48.4 19.652L41.7146 26.2014C41.2293 26.6787 40.5693 26.9507 39.876 26.9507C39.1813 26.9507 38.5226 26.6787 38.036 26.2014C37.5506 25.7254 37.2733 25.08 37.2733 24.4C37.2733 23.72 37.5506 23.0734 38.036 22.5974L41.9946 18.7187C42.52 18.204 42.52 17.368 41.9946 16.852L40.2213 15.1147C39.6946 14.5987 38.8413 14.5987 38.316 15.1147L30.136 23.128C29.0853 24.1587 27.3773 24.1587 26.3253 23.1307L19.084 16.0454C18.032 15.0174 18.0306 13.3454 19.0826 12.3147L30.0706 1.54805Z" fill="#A4B1CD"/>
<path d="M25.8027 41.8107C25.2987 42.2867 24.64 42.5414 23.9627 42.5414C23.2693 42.5414 22.6093 42.2867 22.1067 41.8107C21.62 41.3174 21.36 40.6707 21.36 39.9907C21.36 39.328 21.62 38.6814 22.1067 38.1894L33.0933 27.4373C34.1453 26.408 35.8533 26.4094 36.904 27.4387L44.132 34.52C45.1827 35.5507 45.1827 37.224 44.1333 38.2547L35.9507 46.284C35.4253 46.7987 35.424 47.6374 35.948 48.1547L37.7133 49.9013C38.236 50.4187 39.088 50.4214 39.6133 49.9054L47.8587 41.828C48.344 41.352 49.004 41.0787 49.6973 41.0787C50.392 41.0787 51.0507 41.352 51.5373 41.828C52.0227 42.304 52.3 42.9494 52.3 43.6294C52.3 44.3094 52.0227 44.956 51.5373 45.432L40.548 56.1987C39.4973 57.2293 37.7933 57.2254 36.7467 56.1907L29.5387 49.0747C28.492 48.04 28.4947 46.364 29.5467 45.3334L37.7253 37.32C38.252 36.8053 38.252 35.968 37.7253 35.4534L35.952 33.7147C35.4267 33.2 34.5733 33.2 34.048 33.716L25.8027 41.8107Z" fill="#9FEF00"/>
<path d="M20.8613 49.0413C19.5013 50.3733 19.6093 52.6253 21.1053 54.0907L29.2053 62.0267C30.7013 63.492 32.9987 63.5987 34.3587 62.2667L36.8987 59.7773C36.6507 59.6347 36.412 59.4707 36.1987 59.2613L23.3147 46.6373L20.8613 49.0413ZM42.948 27.4013L55.832 40.0253C56.0453 40.2333 56.2133 40.468 56.3587 40.7107L62.5813 34.6147C63.94 33.2827 63.832 31.0307 62.336 29.5653L54.236 21.6293C52.74 20.164 50.4427 20.0573 49.0827 21.3893L42.948 27.4013Z" fill="#141D2B"/>
</g>
<defs>
<clipPath id="clip0_62_6375">
<rect width="64" height="64" fill="white"/>
</clipPath>
</defs>
</svg>
