<svg width="64" height="65" viewBox="0 0 64 65" fill="none" xmlns="http://www.w3.org/2000/svg">
<path fill-rule="evenodd" clip-rule="evenodd" d="M17.9158 54.1866L20.7465 40.3733L24.0532 40.3333C25.6798 40.4933 27.3065 40.6266 28.9332 40.6533C30.2932 40.6666 31.6532 40.6133 32.9998 40.4799C34.4798 40.3466 35.9465 40.0933 37.3732 39.7333C38.5732 39.4399 39.7332 39.0266 40.8398 38.5066C42.0932 37.9333 43.2532 37.1866 44.3065 36.3199C45.2932 35.4933 46.1732 34.5333 46.8932 33.4799C47.6398 32.3733 48.2398 31.1599 48.6532 29.8933C49.1332 28.4399 49.4398 26.9333 49.5732 25.4133C49.6398 24.5599 49.6665 23.7066 49.6132 22.8533C49.5732 22.1066 49.4665 21.3599 49.3065 20.6399C49.1465 19.9866 48.9465 19.3599 48.6798 18.7466C48.4398 18.1599 48.1332 17.5999 47.7732 17.0799C47.4265 16.5599 47.0132 16.0666 46.5732 15.6266C46.1065 15.1733 45.6132 14.7599 45.0798 14.3999C44.4932 13.9999 43.8798 13.6533 43.2265 13.3733C42.5065 13.0533 41.7732 12.7999 41.0132 12.5999C40.4132 12.4399 39.8132 12.3066 39.1998 12.2133C38.5065 12.0933 37.8132 12.0133 37.1065 11.9599C36.5998 11.9199 36.0798 11.8933 35.5732 11.8933C34.9998 11.8799 34.4265 11.8799 33.8532 11.8933C32.2132 11.9333 30.5865 12.0799 28.9598 12.2933C26.7598 12.5999 24.5865 12.9866 22.4265 13.4666C21.3998 13.6933 20.5998 14.5066 20.3865 15.5333L16.3865 35.0399H6.6665H6.0425C6.00784 34.0653 5.99984 33.1306 5.99984 32.3333C5.99984 25.4399 8.7465 18.8266 13.6132 13.9466C18.4932 9.07992 25.1065 6.33326 31.9998 6.33326C38.8932 6.33326 45.5065 9.07992 50.3865 13.9466C55.2532 18.8266 57.9998 25.4399 57.9998 32.3333C57.9998 39.2266 55.2532 45.8399 50.3865 50.7199C45.5065 55.5866 38.8932 58.3333 31.9998 58.3333C26.9838 58.3333 22.0945 56.8813 17.9158 54.1866ZM11.9465 56.3999L12.4132 54.4666L15.3065 40.3733H6.6665H5.84917L1.75984 40.5733C1.03984 37.8933 0.666504 35.1199 0.666504 32.3333C0.666504 24.0266 3.97317 16.0533 9.83984 10.1733C15.7198 4.30659 23.6932 0.999924 31.9998 0.999924C40.3065 0.999924 48.2798 4.30659 54.1598 10.1733C60.0265 16.0533 63.3332 24.0266 63.3332 32.3333C63.3332 40.6399 60.0265 48.6133 54.1598 54.4933C48.2798 60.3599 40.3065 63.6666 31.9998 63.6666C24.6798 63.6666 17.5732 61.0933 11.9465 56.3999ZM21.8398 35.0399L24.4532 35.1733C24.5332 35.1733 24.6265 35.1866 24.7198 35.1866C26.2265 35.3466 27.4798 35.2933 28.9998 35.3199C30.1732 35.3333 31.3332 35.2799 32.4932 35.1733C33.7065 35.0533 34.9065 34.8533 36.0932 34.5599C36.9465 34.3466 37.7865 34.0399 38.5998 33.6666C39.4265 33.2799 40.1998 32.7999 40.9065 32.2133C41.5065 31.7066 42.0398 31.1199 42.4798 30.4799C42.9465 29.7866 43.3198 29.0266 43.5865 28.2266C43.9332 27.1599 44.1598 26.0666 44.2532 24.9466C44.3065 24.3466 44.3198 23.7466 44.2932 23.1333C44.2665 22.7066 44.1998 22.2666 44.1065 21.8399C44.0265 21.4933 43.9198 21.1599 43.7732 20.8399C43.6665 20.5733 43.5198 20.3066 43.3598 20.0666C43.1998 19.8266 43.0132 19.6133 42.8132 19.4133C42.5865 19.1866 42.3465 18.9866 42.0798 18.8133C41.7598 18.5999 41.4398 18.4133 41.0798 18.2533C40.6132 18.0533 40.1332 17.8799 39.6265 17.7466C39.2132 17.6399 38.7865 17.5466 38.3465 17.4799C37.8132 17.3866 37.2532 17.3199 36.7065 17.2799C36.2932 17.2533 35.8798 17.2266 35.4665 17.2266C34.9732 17.2133 34.4932 17.2133 33.9998 17.2266C32.5598 17.2666 31.1198 17.3866 29.6932 17.5866C28.1998 17.7866 26.7332 18.0399 25.2665 18.3199L21.8398 35.0399Z" fill="#9FEF00"/>
</svg>
