<svg width="64" height="65" viewBox="0 0 64 65" fill="none" xmlns="http://www.w3.org/2000/svg">
<path fill-rule="evenodd" clip-rule="evenodd" d="M6.66683 17.4C6.66683 18.872 5.47216 20.0667 4.00016 20.0667C2.52816 20.0667 1.3335 18.872 1.3335 17.4V8.66667C1.3335 4.98667 4.32016 2 8.00016 2H56.0002C59.6802 2 62.6668 4.98667 62.6668 8.66667V34C62.6668 35.472 61.4722 36.6667 60.0002 36.6667C58.5282 36.6667 57.3335 35.472 57.3335 34V11.3333C57.3335 9.12533 55.5415 7.33333 53.3335 7.33333H10.6668C8.45883 7.33333 6.66683 9.12533 6.66683 11.3333V17.4ZM57.3335 47.9333C57.3335 46.4613 58.5282 45.2667 60.0002 45.2667C61.4722 45.2667 62.6668 46.4613 62.6668 47.9333V56.6667C62.6668 60.3467 59.6802 63.3333 56.0002 63.3333H8.00016C4.32016 63.3333 1.3335 60.3467 1.3335 56.6667V30.24C1.3335 28.768 2.52816 27.5733 4.00016 27.5733C5.47216 27.5733 6.66683 28.768 6.66683 30.24V54C6.66683 56.208 8.45883 58 10.6668 58H53.3335C55.5415 58 57.3335 56.208 57.3335 54V47.9333Z" fill="#9FEF00"/>
<path d="M11.3613 34.6386C11.3613 34.6386 19.3613 35.5426 19.3613 30.6386C19.3613 25.7346 11.3613 26.6386 11.3613 26.6386V42.6386" stroke="#9FEF00" stroke-width="4" stroke-linecap="round" stroke-linejoin="bevel"/>
<path d="M38.0162 42.6387V26.6387L32.0162 34.6387L26.0176 26.6387V42.6387" stroke="#A4B1CD" stroke-width="4" stroke-linecap="round" stroke-linejoin="round"/>
<path d="M44.6948 35.972H52.6948M44.6948 42.6387V30.7C44.6948 30.7 44.7162 26.6387 48.6948 26.6387C52.6748 26.6387 52.6948 30.7 52.6948 30.7V42.6387" stroke="#A4B1CD" stroke-width="4" stroke-linecap="round" stroke-linejoin="bevel"/>
</svg>
