<svg width="64" height="64" viewBox="0 0 64 64" fill="none" xmlns="http://www.w3.org/2000/svg">
<g clip-path="url(#clip0_62_4147)">
<path d="M11.9999 47.0667H13.3333L14.6666 52.4H11.9999H3.69328L-0.0933838 11.4667L9.70662 -0.0666504L34.2133 1.26668L36.4933 7.01335L37.4666 9.49335L32.5066 11.4667L31.5333 8.98668L30.5199 6.41335L12.0533 5.40002L5.42662 13.2134L8.55995 47.0667H11.9999Z" fill="#141D2B"/>
<path d="M52.2133 34.3867L51.16 31.9333L56.0666 29.8267L57.12 32.28L64.7466 50.9067L40.5333 64.16L15.8933 58.64V53.3333V50.6667H21.2266V53.3333V54.3733L39.7333 58.5067L57.92 48.56L52.2133 34.3867Z" fill="#9FEF00"/>
<path d="M34.6666 12.2667L32.5066 14.2387L26.8933 12.2667L28.8133 10.4267L38.6266 0.973389L57.8 4.44006L64.2533 27.4001L57.84 36.2401L56.2666 38.3867L51.96 35.2534L53.52 33.0934L58.4133 26.3601L53.56 9.09339L40.36 6.70672L34.6666 12.2667Z" fill="#9FEF00"/>
<path fill-rule="evenodd" clip-rule="evenodd" d="M49.7613 21.2973C49.7613 22.328 50.5987 23.1667 51.6307 23.1667C52.6627 23.1667 53.5 22.328 53.5 21.2973V15.1733C53.5 12.5947 51.4053 10.5 48.8267 10.5H15.1733C12.5947 10.5 10.5 12.5947 10.5 15.1733V32.9347C10.5 33.9667 11.3373 34.804 12.3693 34.804C13.4013 34.804 14.2387 33.9667 14.2387 32.9347V17.044C14.2387 15.496 15.496 14.2387 17.044 14.2387H46.956C48.504 14.2387 49.7613 15.496 49.7613 17.044V21.2973ZM14.2387 42.7027C14.2387 41.672 13.4013 40.8333 12.3693 40.8333C11.3373 40.8333 10.5 41.672 10.5 42.7027V48.8267C10.5 51.4053 12.5947 53.5 15.1733 53.5H48.8267C51.4053 53.5 53.5 51.4053 53.5 48.8267V30.2987C53.5 29.2667 52.6627 28.4293 51.6307 28.4293C50.5987 28.4293 49.7613 29.2667 49.7613 30.2987V46.956C49.7613 48.504 48.504 49.7613 46.956 49.7613H17.044C15.496 49.7613 14.2387 48.504 14.2387 46.956V42.7027ZM17.3333 44.3427H32.1453V46.812H17.3333V44.3427ZM23.6413 25.6C25.4707 25.6 26.476 24.5027 26.476 23.132V23.04C26.476 21.3947 25.3787 20.572 23.5507 20.572H20.808V25.6H23.6413ZM31.048 31.452L33.1507 28.892C34.6133 30.08 36.168 30.9027 38.088 30.9027C39.5507 30.9027 40.4653 30.3547 40.4653 29.348V29.2573C40.4653 28.3427 39.916 27.8853 37.1733 27.1547C33.8813 26.332 31.688 25.4173 31.688 22.1253V22.0347C31.688 19.0173 34.0653 17.0973 37.448 17.0973C39.8253 17.0973 41.928 17.828 43.5733 19.2L41.6533 21.9427C40.1907 20.9373 38.728 20.2973 37.356 20.2973C35.9853 20.2973 35.2533 20.9373 35.2533 21.76V21.852C35.2533 22.948 35.9853 23.3147 38.8187 24.0453C42.1107 24.96 44.0307 26.148 44.0307 28.9827V29.0747C44.0307 32.3653 41.5613 34.1947 37.996 34.1947C35.528 34.1027 33.0587 33.188 31.048 31.452ZM17.1507 17.372H23.8253C27.756 17.372 30.1333 19.6573 30.1333 23.04V23.132C30.1333 26.972 27.208 28.892 23.4587 28.892H20.716V33.828H17.1507V17.372Z" fill="#A4B1CD"/>
</g>
<defs>
<clipPath id="clip0_62_4147">
<rect width="64" height="64" fill="white"/>
</clipPath>
</defs>
</svg>
