<svg width="64" height="64" viewBox="0 0 64 64" fill="none" xmlns="http://www.w3.org/2000/svg">
<path d="M45.5 56H50.6667V53.3333H57.3333V46.6667H60V18.6667H57.3333V12H50.6667V8H45.5" stroke="#9FEF00" stroke-width="5.33333" stroke-miterlimit="3" stroke-linecap="square"/>
<path d="M18.6666 56H13.5V53.3333H6.83329V46.6667H4.16663V18.6667H6.83329V12H13.5V8H18.6666" fill="#A4B1CD"/>
<path d="M18.6666 56H13.5V53.3333H6.83329V46.6667H4.16663V18.6667H6.83329V12H13.5V8H18.6666" stroke="#141D2B" stroke-width="5.33333" stroke-miterlimit="3" stroke-linecap="square"/>
<path d="M36.84 5.33337H39.5066V10.6667H36.84H27.3333H24.6666V5.33337H27.3333H36.84Z" fill="#A4B1CD"/>
<path d="M36.84 53.3334H39.5066V58.6667H36.84H27.3333H24.6666V53.3334H27.3333H36.84Z" fill="#A4B1CD"/>
<path d="M19.8333 15.5V19.1667H16.1666V30.1667H19.8333V33.8333H30.8333V30.1667H34.5V19.1667H30.8333V15.5H19.8333ZM38.1666 41.1667V48.5H45.5V41.1667H38.1666Z" stroke="#9FEF00" stroke-width="2.66667"/>
</svg>
