<svg width="64" height="64" viewBox="0 0 64 64" fill="none" xmlns="http://www.w3.org/2000/svg">
<path fill-rule="evenodd" clip-rule="evenodd" d="M32.0001 6.36398C32.7867 6.36398 33.4241 7.00132 33.4241 7.78798C33.4241 8.57465 32.7867 9.21198 32.0001 9.21198C31.2134 9.21198 30.5761 8.57465 30.5761 7.78798C30.5761 7.00132 31.2134 6.36398 32.0001 6.36398ZM32.0001 3.51465C29.6401 3.51465 27.7281 5.42798 27.7281 7.78798C27.7294 9.59732 28.8694 11.2093 30.5761 11.8133V14.9093H24.8787V17.7573H30.5761V29.152C30.5761 30.576 28.6147 31.42 27.6761 31.296C23.4721 30.7453 20.0587 29.84 18.0961 28.02L20.9761 28.164L18.5201 25.8746L16.0641 23.5853C15.1374 25.684 15.0267 27.7666 14.9094 30.0093L16.4307 28.5093C17.1627 31.524 27.1441 33.424 28.5534 34.6653L32.0001 37.6973L35.4441 34.668C36.8574 33.424 46.8387 31.5186 47.5587 28.5013L49.0908 30.0093C49.0908 27.728 48.5947 25.7293 47.9361 23.5853L45.4814 25.8746L43.3948 28.164L45.9107 28.02C43.9521 29.832 40.5547 30.744 36.3654 31.296C35.4161 31.4213 33.4241 30.576 33.4241 29.152V17.7573H39.1214V14.9093H33.4241V11.8106C35.1294 11.208 36.2707 9.59732 36.2734 7.78798C36.2734 5.42798 34.3601 3.51598 32.0001 3.51598V3.51465ZM3.51475 49.0906H60.4854C62.0574 49.0906 63.3334 50.368 63.3334 51.94V57.636C63.3334 59.208 62.0574 60.4853 60.4854 60.4853H3.51475C1.94275 60.4853 0.666748 59.208 0.666748 57.636V51.94C0.666748 50.368 1.94275 49.0906 3.51475 49.0906Z" fill="#9FEF00"/>
<path fill-rule="evenodd" clip-rule="evenodd" d="M36.5612 43.3947H27.4386C26.8092 43.3947 26.3026 43.9013 26.3026 44.5306V53.652C26.3026 54.2813 26.8092 54.788 27.4386 54.788H36.5612C37.1906 54.788 37.6972 54.2813 37.6972 53.652V44.5306C37.6972 43.9013 37.1906 43.3947 36.5612 43.3947ZM53.6519 43.3947H44.5306C43.8999 43.3947 43.3932 43.9013 43.3932 44.5306V53.652C43.3932 54.2813 43.8999 54.788 44.5306 54.788H53.6519C54.2812 54.788 54.7879 54.2813 54.7879 53.652V44.5306C54.7879 43.9013 54.2812 43.3947 53.6519 43.3947ZM19.4692 43.3947H10.3479C9.71858 43.3947 9.21191 43.9013 9.21191 44.5306V53.652C9.21191 54.2813 9.71858 54.788 10.3479 54.788H19.4692C20.0999 54.788 20.6066 54.2813 20.6066 53.652V44.5306C20.6066 43.9013 20.0999 43.3947 19.4692 43.3947Z" fill="#A4B1CD"/>
</svg>
