<svg width="64" height="65" viewBox="0 0 64 65" fill="none" xmlns="http://www.w3.org/2000/svg">
<path fill-rule="evenodd" clip-rule="evenodd" d="M34.6987 34.7959C43.876 29.7492 61.908 31.1039 56.2587 40.8892C54.7667 43.4679 53.2 44.4706 51.736 44.6386C52.32 45.9919 52.2333 47.8506 50.7467 50.4292C45.6627 59.2426 34.9133 45.2746 34.6907 34.7959M32.1867 30.0932C34.4533 28.8799 38.8267 30.6399 41.3333 30.0932C43.8133 29.5199 44.3867 26.5999 46.9333 26.5866C48.5733 26.5866 50.2133 26.7199 51.8267 26.9999C53.4267 27.2666 54.9867 27.7466 56.4533 28.4266C58.0933 29.1732 59.5467 30.2932 60.68 31.6932C61.9733 33.3466 62.68 35.3999 62.6667 37.5066C62.6533 38.5866 62.48 39.6666 62.1467 40.7066C61.84 41.6799 61.4267 42.6266 60.9067 43.5066C60.0133 45.1466 58.8133 46.5999 57.3733 47.7866C57.3467 47.8132 57.32 47.8266 57.2933 47.8532C57.2 48.5199 57.04 49.1866 56.84 49.8266C56.4667 50.9599 55.9867 52.0399 55.3867 53.0532C54.5333 54.5999 53.3467 55.9332 51.8933 56.9466C50.36 57.9999 48.5333 58.5599 46.6667 58.5466C45.2267 58.5332 43.8 58.2132 42.48 57.6266C41.32 57.1066 40.2267 56.4266 39.24 55.6132C38.28 54.8266 37.3867 53.9599 36.5733 53.0132C35.7467 52.0399 34.9867 51.0266 34.2933 49.9466C32.8667 47.7466 36.76 41.8399 35.92 39.3466C34.7213 33.7292 29.1747 34.5959 29.36 34.9866" fill="#9FEF00"/>
<path fill-rule="evenodd" clip-rule="evenodd" d="M34.0681 29.4866C33.8481 29.0852 33.9321 28.6199 33.7361 28.1879C29.5281 18.8773 31.1534 2.90658 40.3547 8.21858C42.8934 9.68792 43.8787 11.2293 44.0454 12.6706C45.3761 12.0959 47.2067 12.1813 49.7454 13.6453C58.1254 18.4786 45.5761 28.5173 35.4174 29.3879C35.0627 29.4186 34.7094 29.4386 34.3601 29.4452M29.2534 31.7733C28.9601 31.1733 29.4667 28.1199 29.3601 27.4533C28.5601 25.5599 30.1467 25.9999 29.7601 23.9732C29.3201 21.8132 26.2001 19.6133 26.2001 17.3999C26.1867 15.7733 26.3334 14.1599 26.6134 12.5599C26.8667 10.9866 27.3467 9.45325 28.0134 7.99992C28.7467 6.35992 29.8667 4.93325 31.2534 3.79992C32.8934 2.51992 34.9334 1.82658 37.0267 1.82658C38.0934 1.83992 39.1734 2.01325 40.2001 2.33325C41.1601 2.65325 42.0934 3.06658 42.9734 3.57325C44.6001 4.46658 46.0267 5.63992 47.2134 7.06658C47.2267 7.09325 47.2401 7.10658 47.2534 7.11992C47.9067 7.21325 48.5601 7.37325 49.1867 7.57325C50.2934 7.93325 51.3601 8.41325 52.3734 8.99992C53.9067 9.83992 55.2267 11.0266 56.2267 12.4666C57.2667 13.9999 57.8267 15.7999 57.8267 17.6533C57.8134 19.0266 57.5201 20.3866 56.9734 21.6533C56.4934 22.7733 55.8534 23.8266 55.0934 24.7866C53.6001 26.6533 51.8267 28.2666 49.8401 29.5599C47.8001 30.9466 45.6001 32.0799 43.2934 32.9466C40.9334 33.8666 38.4534 34.4533 35.9201 34.6933C35.8534 34.7066 35.7734 34.7066 35.7067 34.7199L34.6534 34.7733M29.9734 28.3333L28.8667 30.3466C28.7867 30.1866 29.9867 28.5466 29.9734 28.3333Z" fill="#9FEF00"/>
<path fill-rule="evenodd" clip-rule="evenodd" d="M29.0281 30.7639C19.8908 35.7853 2.51076 33.4719 7.57342 24.7079C9.05609 22.1453 10.6148 21.1453 12.0708 20.9759C11.4881 19.6306 11.5721 17.7826 13.0521 15.2133C18.6721 5.47992 28.8081 20.3399 29.0241 30.7586M31.5468 35.4666C30.2534 34.9733 27.3894 33.2719 24.1761 35.3919C21.8694 35.8986 20.1068 38.7066 17.7468 38.7066C16.0134 38.7199 14.2934 38.5733 12.6001 38.2666C10.9468 37.9866 9.34676 37.4933 7.81342 36.7999C6.14676 36.0666 4.66676 34.9599 3.49342 33.5733C2.08009 31.8933 1.32009 29.7599 1.33342 27.5599C1.38676 25.6133 1.94676 23.7066 2.96009 22.0266C3.85342 20.4266 5.02676 18.9999 6.44009 17.8266C6.46676 17.8133 6.49342 17.7866 6.50676 17.7733C6.61342 17.1066 6.76009 16.4399 6.97342 15.7999C7.33342 14.6799 7.81342 13.6133 8.40009 12.5866C9.29342 10.9733 10.5201 9.57326 12.0001 8.47993C13.5868 7.33326 15.5068 6.71992 17.4668 6.71992C18.9468 6.73326 20.4134 7.06659 21.7468 7.69326C22.9201 8.25326 24.0134 8.95993 24.9868 9.81326C25.9334 10.6399 26.8001 11.5466 27.5868 12.5199C28.3734 13.5199 29.1068 14.5599 29.7601 15.6533C31.1068 17.9066 32.1868 20.3066 32.9734 22.7999C33.8001 25.3199 34.2668 27.9333 34.3601 30.5733" fill="#9FEF00"/>
<path fill-rule="evenodd" clip-rule="evenodd" d="M30.1654 35.3919C35.1294 44.4279 32.8427 61.6159 24.1761 56.6079C21.6414 55.1413 20.6521 53.6013 20.4854 52.1613C19.1547 52.7373 17.3267 52.6519 14.7867 51.1906C5.1614 45.6333 19.8574 35.6093 30.1587 35.3946M34.8667 32.8799C36.0001 34.9866 36.8267 37.2399 37.3201 39.5866C37.8267 41.8666 38.0801 44.2133 38.0801 46.5466C38.0934 48.2533 37.9467 49.9599 37.6401 51.6399C37.3601 53.2799 36.8801 54.8799 36.1867 56.3866C35.4534 58.0399 34.3601 59.5199 32.9867 60.6933C31.3067 62.0933 29.1867 62.8533 27.0001 62.8399C25.0534 62.7866 23.1601 62.2266 21.4934 61.2266C19.9067 60.3466 18.4934 59.1733 17.3201 57.7599C17.3067 57.7466 17.2934 57.7333 17.2801 57.7066C16.6267 57.6133 15.9734 57.4666 15.3467 57.2666C14.2401 56.9066 13.1734 56.4266 12.1601 55.8399C10.5601 54.9599 9.16007 53.7333 8.08007 52.2666C6.94674 50.6799 6.32007 48.7733 6.32007 46.8266C6.3334 45.3466 6.66674 43.8933 7.30674 42.5599C7.8534 41.3999 8.56007 40.3199 9.40007 39.3466C10.2134 38.4133 11.1201 37.5466 12.0801 36.7733C13.0667 35.9866 14.1067 35.2666 15.2001 34.6266C17.4267 33.2933 19.8001 32.2133 22.2801 31.4399C24.7601 30.6133 27.3601 30.1466 29.9734 30.0666" fill="#9FEF00"/>
</svg>
