<svg width="64" height="64" viewBox="0 0 64 64" fill="none" xmlns="http://www.w3.org/2000/svg">
<g clip-path="url(#clip0_10_180)">
<path fill-rule="evenodd" clip-rule="evenodd" d="M44.8035 9.26872C43.4115 8.53672 42.8742 6.81139 43.6062 5.41806C44.3382 4.02606 46.0635 3.48872 47.4568 4.22072C53.3888 7.34339 58.1795 12.2914 61.1035 18.3234C61.7955 19.7407 61.2075 21.4501 59.7915 22.1381C58.3742 22.8274 56.6622 22.2367 55.9702 20.8194C53.5742 15.8714 49.6662 11.8354 44.8035 9.26872ZM32.6702 5.99939C34.1408 5.99139 35.3302 4.79139 35.3235 3.31939C35.3155 1.84739 34.1142 0.658056 32.6435 0.666056C24.9635 0.706056 17.5635 3.57272 11.8568 8.70606C6.15017 13.8527 2.52351 20.9061 1.68351 28.5461C1.52084 30.0101 2.57817 31.3314 4.04351 31.4927C5.50751 31.6541 6.82751 30.5967 6.99017 29.1327C7.68351 22.7994 10.6968 16.9327 15.4302 12.6794C20.1635 8.41272 26.2968 6.03939 32.6702 5.99939ZM8.56351 41.3327C8.03284 39.9567 6.48617 39.2701 5.11017 39.7994C3.73284 40.3287 3.04617 41.8767 3.57684 43.2527C6.12351 49.8261 10.8035 55.3594 16.8702 58.9594C18.1355 59.7101 19.7728 59.2914 20.5235 58.0261C21.2742 56.7607 20.8555 55.1234 19.5902 54.3727C14.5502 51.3861 10.6702 46.7994 8.56351 41.3327ZM31.9902 57.9861C30.5182 57.9634 29.3048 59.1407 29.2835 60.6127C29.2608 62.0847 30.4382 63.2967 31.9102 63.3194L32.7902 63.3327C32.8035 63.3327 32.8168 63.3327 32.8302 63.3327C40.7102 63.3327 48.3102 60.3594 54.0968 55.0127C59.8835 49.6661 63.4568 42.3194 64.0702 34.4661C64.1795 33.0021 63.0808 31.7167 61.6168 31.5994C60.1515 31.4821 58.8675 32.5807 58.7502 34.0527C58.2435 40.5594 55.2835 46.6527 50.4835 51.0927C45.6835 55.5327 39.3902 57.9994 32.8568 57.9994L31.9902 57.9861ZM23.5808 15.9994H31.5808L44.9142 30.6661L31.5808 47.9994H23.5808L36.9142 30.6661L23.5808 15.9994Z" fill="#9FEF00"/>
</g>
<defs>
<clipPath id="clip0_10_180">
<rect width="64" height="64" fill="white"/>
</clipPath>
</defs>
</svg>
