<svg width="64" height="65" viewBox="0 0 64 65" fill="none" xmlns="http://www.w3.org/2000/svg">
<path fill-rule="evenodd" clip-rule="evenodd" d="M46.6665 3.42662C46.4452 3.36396 46.2105 3.33329 45.9678 3.33329H9.6505C5.79584 3.33329 2.6665 6.46262 2.6665 10.3173V36.8573C2.6665 38.3986 3.9185 39.6506 5.45984 39.6506C7.0025 39.6506 8.25317 38.3986 8.25317 36.8573V13.1106C8.25317 10.7986 10.1318 8.91996 12.4438 8.91996H45.9678C46.2105 8.91996 46.4452 8.88929 46.6665 8.82662C46.8878 8.88929 47.1225 8.91996 47.3652 8.91996H51.5558C53.8678 8.91996 55.7465 10.7986 55.7465 13.1106V17.3013C55.7465 18.844 56.9972 20.0946 58.5398 20.0946C60.0812 20.0946 61.3332 18.844 61.3332 17.3013V10.3173C61.3332 6.46262 58.2038 3.33329 54.3492 3.33329H47.3652C47.1225 3.33329 46.8878 3.36396 46.6665 3.42662ZM16.6345 56.4133C18.1772 56.4133 19.4278 57.664 19.4278 59.2066C19.4278 60.748 18.1772 62 16.6345 62H9.6505C5.79584 62 2.6665 58.8706 2.6665 55.016V48.032C2.6665 46.4893 3.9185 45.2386 5.45984 45.2386C7.0025 45.2386 8.25317 46.4893 8.25317 48.032V52.2226C8.25317 54.5346 10.1318 56.4133 12.4438 56.4133H16.6345ZM55.7465 29.8733C55.7465 28.3306 56.9972 27.08 58.5398 27.08C60.0812 27.08 61.3332 28.3306 61.3332 29.8733V55.016C61.3332 58.8706 58.2038 62 54.3492 62H29.2065C27.6638 62 26.4132 60.748 26.4132 59.2066C26.4132 57.664 27.6638 56.4133 29.2065 56.4133H51.5558C53.8678 56.4133 55.7465 54.5346 55.7465 52.2226V29.8733ZM21.3718 15.3333C19.9652 16.1973 15.6638 17.3053 13.3332 17.9813L13.4065 18.188C14.5145 18.0773 16.0985 17.92 17.2105 17.732V19.3666H13.3492L13.4425 20.748H16.6745C16.1185 23.0306 14.8345 25.324 13.3718 27.0853L13.5932 27.292C14.9652 26.2986 16.3385 25.416 17.2078 24.1066V30H17.5625C18.5052 30 20.0505 29.636 20.0678 29.524V23.544C20.7718 24.1786 20.9065 24.92 21.0358 25.708C21.2758 25.9106 21.5358 26.0053 21.7758 26.0053C22.2745 26.0053 22.6998 25.644 22.6998 25.14C22.6998 24.46 22.4545 23.8293 20.0678 23.2946V20.748H23.1932C23.6932 20.748 23.9332 19.6013 24.0625 19.3986L21.3718 18L20.7732 19.364H20.0678V17.3546C20.9012 17.164 21.6798 16.976 22.3092 16.7866C22.6758 16.796 24.0385 16.6666 24.0385 16.6666L21.3718 15.3333ZM27.9638 20.7133H30.6585V27.3853H27.9638V20.7133ZM45.3332 40.6666C46.8065 40.6666 47.9998 41.86 47.9998 43.3333C47.9998 44.8066 46.8065 46 45.3332 46C43.8598 46 42.6665 44.8066 42.6665 43.3333C42.6665 41.86 43.8598 40.6666 45.3332 40.6666ZM25.3332 18.0413V30C27.0732 30 27.9638 29.372 27.9638 29.3386V28.7186H30.6585V29.7C32.1238 29.7 33.3065 29.2746 33.3065 29.2453V19.552C33.6958 19.4746 33.9932 19.3493 34.1038 19.2053L31.9638 18.052L30.4758 19.3333H28.0572L25.3332 18.0413ZM34.6665 38V42V44.6666V48.6666H37.3332V44.6666H40.1772C40.7838 47.0186 42.9038 48.6626 45.3332 48.6666C48.2785 48.6666 50.6665 46.2786 50.6665 43.3333C50.6665 40.388 48.2785 38 45.3332 38C42.9025 38.0026 40.7812 39.6466 40.1745 42H37.3332V38H34.6665Z" fill="#9FEF00"/>
</svg>
