<svg width="64" height="65" viewBox="0 0 64 65" fill="none" xmlns="http://www.w3.org/2000/svg">
<g clip-path="url(#clip0_62_4109)">
<path fill-rule="evenodd" clip-rule="evenodd" d="M46.2787 17.068C45.4333 17.0946 44.644 17.4213 44.044 18.0213L27.2013 34.864L23.6027 31.2666C40.1733 14.724 43.1987 14.56 46.2787 17.068ZM27.8827 35.4626L44.6707 18.784C45.5973 17.8853 47.0693 17.8853 47.996 18.784C48.4587 19.248 48.704 19.8746 48.6773 20.5013C48.6493 21.156 48.3773 21.7546 47.8867 22.1906L30.144 37.8346L27.8827 35.4626ZM29.136 37.9973L24.9653 39.06C24.884 39.1146 24.8027 39.1146 24.72 39.06C24.6667 38.9786 24.6667 38.8693 24.72 38.788L27.2547 36.2533L29.136 37.9973ZM18.5067 36.2533L22.9493 31.8106L26.3013 35.2453L18.6973 36.88C18.5333 36.908 18.3707 36.7986 18.3427 36.6346C18.316 36.5253 18.3427 36.444 18.4253 36.3626L18.5067 36.2533ZM4.74267 59.336C4.63467 59.3093 4.52533 59.228 4.49733 59.1453C4.47067 59.036 4.47067 58.928 4.49733 58.8453L8.068 55.248L12.7013 59.8546L4.74267 59.336ZM13.9 54.5666C13.5467 54.7573 13.356 55.14 13.4373 55.5213L14.2 58.792C14.2547 59.0093 14.1453 59.228 13.9827 59.336C13.8187 59.4733 13.5733 59.4733 13.4373 59.336L8.804 54.5666L23.0307 40.3146L29.9267 38.8426L33.224 42.14C27.3373 47.0453 20.8507 51.2146 13.928 54.5133V54.5666H13.9ZM40.6067 34.9613C38.5267 37.1426 36.2253 39.3786 33.9053 41.5946L30.744 38.4333L48.4867 22.8173C48.6493 22.6813 48.8133 22.5186 48.9493 22.3266C48.5587 25.792 45.0987 30.2493 40.6067 34.9613ZM47.7507 17.1493C45.1067 14.3973 45.216 10.036 47.968 7.39329C50.476 4.99463 54.3467 4.83063 57.044 7.01063L50.9387 13.0893C50.776 13.28 50.776 13.552 50.9387 13.7426L55.6813 18.4573C53.0107 19.7653 49.7947 19.22 47.7227 17.0946L47.7507 17.1493ZM57.48 17.1493C57.1533 17.4493 56.8267 17.7493 56.444 17.9946L51.8933 13.4426L57.6987 7.63863C60.2053 10.336 60.124 14.5333 57.48 17.1493ZM7.15333 48.2533C5.90667 49.0333 3.94 48.1493 2.76533 46.28C1.69333 44.5733 0 38.68 0 32.6666C0 24.1866 3.37333 16.04 9.37333 10.04C15.3733 4.03996 23.52 0.666626 32 0.666626C36.08 0.666626 40.12 1.43996 40.1827 1.46529C42.2307 2.29063 43.4507 4.06796 42.9067 5.43329C42.3627 6.79863 40.504 7.33863 38.76 6.63996C38.76 6.63996 35.4 5.99996 32 5.99996C24.9333 5.99996 18.1467 8.81329 13.1467 13.8133C8.14667 18.8133 5.33333 25.6 5.33333 32.6666C5.33333 37.68 6.74667 42.5866 7.288 43.4506C8.46133 45.3213 8.4 47.4733 7.15333 48.2533ZM59.78 23.2466C61.1747 22.772 62.808 23.8746 63.4267 25.7066C63.4267 25.7066 64 29.1733 64 32.6666C64 41.1466 60.6267 49.2933 54.6267 55.2933C48.6267 61.2933 40.48 64.6666 32 64.6666C27.4 64.6666 22.8533 63.68 21.1027 62.8746C19.7653 62.26 19.176 60.676 19.7867 59.34C20.3973 58.004 21.98 57.416 23.32 58.0266C24.3733 58.5066 28.1733 59.3333 32 59.3333C39.0667 59.3333 45.8533 56.52 50.8533 51.52C55.8533 46.52 58.6667 39.7333 58.6667 32.6666C58.6667 29.76 58.2 26.8666 58.2 26.8666C57.6773 25.344 58.3853 23.7213 59.78 23.2466Z" fill="#9FEF00"/>
</g>
<defs>
<clipPath id="clip0_62_4109">
<rect width="64" height="64" fill="white" transform="translate(0 0.666626)"/>
</clipPath>
</defs>
</svg>
