<svg width="64" height="64" viewBox="0 0 64 64" fill="none" xmlns="http://www.w3.org/2000/svg">
<path fill-rule="evenodd" clip-rule="evenodd" d="M22.0321 38.1702L5.5468 57.1329C4.58013 58.2435 4.6988 59.9302 5.80947 60.8955C6.92013 61.8609 8.60547 61.7435 9.5708 60.6329L26.0948 41.6275C29.5401 43.8849 33.5961 45.1169 37.7748 45.1169C39.8415 45.1169 41.8815 44.8235 43.8681 44.2369C45.2735 43.8169 46.0735 42.3289 45.6548 40.9169C45.2348 39.5035 43.7535 38.6969 42.3481 39.1169C40.8548 39.5569 39.3215 39.7835 37.7748 39.7835C33.5348 39.7835 29.4548 38.1035 26.4548 35.1035C23.4681 32.1035 21.7748 28.0235 21.7748 23.7835C21.7748 19.5435 23.4681 15.4635 26.4548 12.4635C29.4548 9.47686 33.5348 7.78353 37.7748 7.78353C42.0148 7.78353 46.0948 9.47686 49.0948 12.4635C52.0948 15.4635 53.7748 19.5435 53.7748 23.7835C53.7748 26.8902 52.8681 29.9435 51.1615 32.5435C50.3521 33.7715 50.6948 35.4275 51.9281 36.2369C53.1601 37.0462 54.8188 36.6995 55.6281 35.4635C57.8948 31.9969 59.1081 27.9302 59.1081 23.7835C59.1081 18.1302 56.8548 12.7035 52.8548 8.70353C48.8548 4.70353 43.4281 2.4502 37.7748 2.4502C32.1215 2.4502 26.6948 4.70353 22.6948 8.70353C18.6948 12.7035 16.4415 18.1302 16.4415 23.7835C16.4415 29.1169 18.4468 34.2489 22.0321 38.1702ZM28.4935 22.6395C28.3615 23.7355 27.3628 24.5182 26.2668 24.3862C25.1708 24.2542 24.3881 23.2555 24.5201 22.1595C24.9201 18.9195 26.4801 15.9462 28.9201 13.7862C31.3601 11.6262 34.5068 10.4395 37.7601 10.4395C39.2801 10.4395 40.7868 10.6929 42.2135 11.1995C43.2588 11.5675 43.8055 12.7115 43.4335 13.7529C43.0615 14.7942 41.9175 15.3409 40.8801 14.9729C39.8801 14.6129 38.8268 14.4395 37.7601 14.4395C35.4801 14.4395 33.2801 15.2662 31.5735 16.7862C29.8668 18.2929 28.7735 20.3729 28.4935 22.6395Z" fill="#9FEF00"/>
</svg>
