<svg width="64" height="64" viewBox="0 0 64 64" fill="none" xmlns="http://www.w3.org/2000/svg">
<path fill-rule="evenodd" clip-rule="evenodd" d="M42 24.0002H22V22.6668V16.0135C22 15.6002 22.0533 15.2002 22.1467 14.8002C22.2667 14.2802 22.4133 13.7602 22.6133 13.2668C22.8 12.7735 23.0267 12.2935 23.2933 11.8268C23.4933 11.4668 23.7333 11.1335 24.0133 10.8268C24.7333 10.0402 25.5333 9.30682 26.4 8.65349C27.04 8.17349 27.7467 7.76016 28.48 7.42682C29.12 7.14682 29.8 6.93349 30.48 6.80016C31.16 6.68016 31.8533 6.62682 32.5333 6.66682C33.3067 6.70682 34.0667 6.81349 34.8 7.00016C35.4533 7.17349 36.0933 7.41349 36.6933 7.72016C37.3067 8.02682 37.88 8.41349 38.4 8.85349C39.0133 9.36016 39.5733 9.93349 40.08 10.5602C41.32 12.0935 42 14.0135 42 16.0002V22.6668V24.0002ZM35.7773 45.1228C37.2387 44.2775 38.2227 42.6975 38.2227 40.8895C38.2227 38.1908 36.032 36.0002 33.3333 36.0002C30.6347 36.0002 28.444 38.1908 28.444 40.8895C28.444 42.6975 29.428 44.2775 30.8893 45.1228V49.0375C30.8893 49.9362 31.6187 50.6668 32.5187 50.6668H34.148C35.048 50.6668 35.7773 49.9362 35.7773 49.0375V45.1228ZM8 43.3335C8 41.8615 9.19467 40.6668 10.6667 40.6668C12.1387 40.6668 13.3333 41.8615 13.3333 43.3335C13.3333 44.8055 12.1387 46.0002 10.6667 46.0002C9.19467 46.0002 8 44.8055 8 43.3335ZM47.3333 24.0002H53.3333C56.2773 24.0002 58.6667 26.3895 58.6667 29.3335V57.3335C58.6667 60.2775 56.2773 62.6668 53.3333 62.6668H13.3333C10.3893 62.6668 8 60.2775 8 57.3335V50.6668C8 49.1948 9.19467 48.0002 10.6667 48.0002C12.1387 48.0002 13.3333 49.1948 13.3333 50.6668V54.6668C13.3333 56.1388 14.528 57.3335 16 57.3335H45.3333V47.3762C45.3333 46.2495 46.2293 45.3335 47.3333 45.3335C48.4373 45.3335 49.3333 46.2495 49.3333 47.3762V57.3335H50.6667C52.1387 57.3335 53.3333 56.1388 53.3333 54.6668V32.0002C53.3333 30.5282 52.1387 29.3335 50.6667 29.3335H16C14.528 29.3335 13.3333 30.5282 13.3333 32.0002V36.0002C13.3333 37.4722 12.1387 38.6668 10.6667 38.6668C9.19467 38.6668 8 37.4722 8 36.0002V29.3335C8 26.3895 10.3893 24.0002 13.3333 24.0002H16.6667V22.6668V16.0002C16.6667 15.9868 16.6667 15.9868 16.6667 15.9735C16.68 15.1868 16.7733 14.4002 16.9467 13.6268C17.12 12.8535 17.3467 12.0802 17.64 11.3468C17.92 10.6002 18.2667 9.88016 18.6667 9.18682C19.0533 8.49349 19.52 7.85349 20.0533 7.25349C21 6.21349 22.0533 5.25349 23.1867 4.40016C24.16 3.66682 25.2133 3.05349 26.32 2.56016C27.3333 2.10682 28.4 1.77349 29.4933 1.56016C30.5867 1.36016 31.6933 1.28016 32.8 1.33349C33.92 1.38682 35.04 1.56016 36.1333 1.84016C37.1733 2.10682 38.1733 2.48016 39.12 2.97349C40.08 3.46682 40.9867 4.05349 41.8133 4.74682C42.7067 5.49349 43.5067 6.30682 44.24 7.21349C46.24 9.70682 47.3333 12.8002 47.3333 16.0002V22.6668V24.0002ZM45.3333 40.6668C45.3333 39.5628 46.2293 38.6668 47.3333 38.6668C48.4373 38.6668 49.3333 39.5628 49.3333 40.6668C49.3333 41.7708 48.4373 42.6668 47.3333 42.6668C46.2293 42.6668 45.3333 41.7708 45.3333 40.6668Z" fill="#9FEF00"/>
</svg>
