<svg width="64" height="64" viewBox="0 0 64 64" fill="none" xmlns="http://www.w3.org/2000/svg">
<path fill-rule="evenodd" clip-rule="evenodd" d="M20.0003 37.333H44.0003C44.7363 37.333 45.3337 37.9303 45.3337 38.6663V41.333C45.3337 42.069 44.7363 42.6663 44.0003 42.6663H20.0003C19.2643 42.6663 18.667 42.069 18.667 41.333V38.6663C18.667 37.9303 19.2643 37.333 20.0003 37.333ZM49.3337 37.333H52.0003C52.7363 37.333 53.3337 37.9303 53.3337 38.6663V41.333C53.3337 42.069 52.7363 42.6663 52.0003 42.6663H49.3337C48.5977 42.6663 48.0003 42.069 48.0003 41.333V38.6663C48.0003 37.9303 48.5977 37.333 49.3337 37.333ZM12.0003 37.333H14.667C15.403 37.333 16.0003 37.9303 16.0003 38.6663V41.333C16.0003 42.069 15.403 42.6663 14.667 42.6663H12.0003C11.2643 42.6663 10.667 42.069 10.667 41.333V38.6663C10.667 37.9303 11.2643 37.333 12.0003 37.333ZM14.667 29.333H17.3337C18.0697 29.333 18.667 29.9303 18.667 30.6663V33.333C18.667 34.069 18.0697 34.6663 17.3337 34.6663H14.667C13.931 34.6663 13.3337 34.069 13.3337 33.333V30.6663C13.3337 29.9303 13.931 29.333 14.667 29.333ZM14.667 21.333H17.3337C18.0697 21.333 18.667 21.9303 18.667 22.6663V25.333C18.667 26.069 18.0697 26.6663 17.3337 26.6663H14.667C13.931 26.6663 13.3337 26.069 13.3337 25.333V22.6663C13.3337 21.9303 13.931 21.333 14.667 21.333ZM22.667 29.333H25.3337C26.0697 29.333 26.667 29.9303 26.667 30.6663V33.333C26.667 34.069 26.0697 34.6663 25.3337 34.6663H22.667C21.931 34.6663 21.3337 34.069 21.3337 33.333V30.6663C21.3337 29.9303 21.931 29.333 22.667 29.333ZM22.667 21.333H25.3337C26.0697 21.333 26.667 21.9303 26.667 22.6663V25.333C26.667 26.069 26.0697 26.6663 25.3337 26.6663H22.667C21.931 26.6663 21.3337 26.069 21.3337 25.333V22.6663C21.3337 21.9303 21.931 21.333 22.667 21.333ZM30.667 29.333H33.3337C34.0697 29.333 34.667 29.9303 34.667 30.6663V33.333C34.667 34.069 34.0697 34.6663 33.3337 34.6663H30.667C29.931 34.6663 29.3337 34.069 29.3337 33.333V30.6663C29.3337 29.9303 29.931 29.333 30.667 29.333ZM30.667 21.333H33.3337C34.0697 21.333 34.667 21.9303 34.667 22.6663V25.333C34.667 26.069 34.0697 26.6663 33.3337 26.6663H30.667C29.931 26.6663 29.3337 26.069 29.3337 25.333V22.6663C29.3337 21.9303 29.931 21.333 30.667 21.333ZM38.667 29.333H41.3337C42.0697 29.333 42.667 29.9303 42.667 30.6663V33.333C42.667 34.069 42.0697 34.6663 41.3337 34.6663H38.667C37.931 34.6663 37.3337 34.069 37.3337 33.333V30.6663C37.3337 29.9303 37.931 29.333 38.667 29.333ZM38.667 21.333H41.3337C42.0697 21.333 42.667 21.9303 42.667 22.6663V25.333C42.667 26.069 42.0697 26.6663 41.3337 26.6663H38.667C37.931 26.6663 37.3337 26.069 37.3337 25.333V22.6663C37.3337 21.9303 37.931 21.333 38.667 21.333ZM46.667 29.333H49.3337C50.0697 29.333 50.667 29.9303 50.667 30.6663V33.333C50.667 34.069 50.0697 34.6663 49.3337 34.6663H46.667C45.931 34.6663 45.3337 34.069 45.3337 33.333V30.6663C45.3337 29.9303 45.931 29.333 46.667 29.333ZM46.667 21.333H49.3337C50.0697 21.333 50.667 21.9303 50.667 22.6663V25.333C50.667 26.069 50.0697 26.6663 49.3337 26.6663H46.667C45.931 26.6663 45.3337 26.069 45.3337 25.333V22.6663C45.3337 21.9303 45.931 21.333 46.667 21.333ZM56.0003 33.333C56.0003 31.861 57.195 30.6663 58.667 30.6663C60.139 30.6663 61.3337 31.861 61.3337 33.333V46.6663C61.3337 48.8743 59.5417 50.6663 57.3337 50.6663H6.66699C4.45899 50.6663 2.66699 48.8743 2.66699 46.6663V41.333C2.66699 39.861 3.86166 38.6663 5.33366 38.6663C6.80566 38.6663 8.00033 39.861 8.00033 41.333V43.9997C8.00033 44.7357 8.59766 45.333 9.33366 45.333H54.667C55.403 45.333 56.0003 44.7357 56.0003 43.9997V33.333ZM8.00033 30.6663C8.00033 32.1383 6.80566 33.333 5.33366 33.333C3.86166 33.333 2.66699 32.1383 2.66699 30.6663V17.333C2.66699 15.125 4.45899 13.333 6.66699 13.333H57.3337C59.5417 13.333 61.3337 15.125 61.3337 17.333V22.6663C61.3337 24.1383 60.139 25.333 58.667 25.333C57.195 25.333 56.0003 24.1383 56.0003 22.6663V19.9997C56.0003 19.2637 55.403 18.6663 54.667 18.6663H9.33366C8.59766 18.6663 8.00033 19.2637 8.00033 19.9997V30.6663Z" fill="#9FEF00"/>
</svg>
