<svg width="64" height="65" viewBox="0 0 64 65" fill="none" xmlns="http://www.w3.org/2000/svg">
<path fill-rule="evenodd" clip-rule="evenodd" d="M14.5333 34.4933C14.0693 33.0946 12.5587 32.336 11.16 32.8C9.76133 33.264 9.00267 34.7746 9.46667 36.1733L10.2933 38.6666V38.68C11.2133 41.4 12.4 44.0133 13.84 46.48C15.28 49 16.9467 51.4 18.8 53.6266C20.56 55.76 22.52 57.7333 24.6667 59.48C25.6533 60.2933 26.6933 61.04 27.7867 61.72C28.8 62.36 29.88 62.9066 31 63.36C31.6133 63.6133 32.3067 63.6266 32.9333 63.3866L34.2933 62.88C34.3067 62.88 34.3067 62.88 34.32 62.88C37.4133 61.68 40.2933 59.9733 42.84 57.84C45.4533 55.6666 47.7467 53.1466 49.6667 50.36C51.6133 47.5733 53.16 44.5333 54.28 41.3333C55.3867 38.2 55.9733 34.9066 56 31.5866C56 31.5733 56 31.5733 56 31.56V15.48C56 12.536 54.136 10.2 51.84 10.2666C48.7867 10.24 45.7733 9.62663 42.9467 8.46663C41.36 7.81329 39.8267 7.03996 38.36 6.14663C36.1867 4.82663 34.1467 3.29329 32.2533 1.59996C29.8133 3.15996 27.28 4.58663 24.6933 5.87996C22.9467 6.75996 21.1733 7.54663 19.3467 8.23996C17.8 8.82663 16.2267 9.30663 14.6133 9.66663C13.28 9.98663 11.92 10.1733 10.5467 10.2266C9.86667 10.2666 9.21333 10.56 8.73333 11.0533C8.26667 11.5466 8 12.2133 8 12.8933V22.2266C8 23.6986 9.19467 24.8933 10.6667 24.8933C12.1387 24.8933 13.3333 23.6986 13.3333 22.2266V15.3333C14.1733 15.2133 15 15.0533 15.8133 14.8666C17.6667 14.44 19.4667 13.8933 21.24 13.2266C23.2267 12.4666 25.1867 11.6133 27.08 10.6533C28.68 9.85329 30.24 9.01329 31.7867 8.11996C33.0133 9.03996 34.2667 9.89329 35.5733 10.6933C37.28 11.7466 39.0667 12.6533 40.9333 13.4C44.0267 14.68 47.32 15.4133 50.6667 15.5733V31.5466C50.64 34.28 50.16 36.9866 49.2533 39.56C48.2933 42.32 46.96 44.9333 45.2933 47.32C43.64 49.72 41.6667 51.88 39.4133 53.7466C37.3333 55.5066 34.96 56.9066 32.4133 57.8933L32.08 58.0133C31.5733 57.7733 31.08 57.4933 30.6133 57.2C29.72 56.64 28.8533 56.0266 28.04 55.36C26.1733 53.8266 24.4533 52.1066 22.92 50.2266C21.2533 48.2266 19.76 46.08 18.4533 43.8133C17.1867 41.6533 16.1467 39.36 15.36 36.9866L14.5333 34.4933ZM21.8933 33.3733C21.548 32.328 20.4187 31.7613 19.3733 32.1066C18.328 32.452 17.7613 33.5813 18.1067 34.6266C19.36 38.4533 21.2 40.7333 23.5333 44C25.96 47.36 26.1733 47.6933 29.4267 50.24C30.2947 50.924 31.556 50.7746 32.24 49.9066C32.924 49.0386 32.7747 47.7773 31.9067 47.0933C28.9467 44.7733 28.9867 44.72 26.7867 41.6666C24.68 38.72 23.04 36.8133 21.8933 33.3733ZM43.3333 32.6666C43.3333 33.7706 44.2293 34.6666 45.3333 34.6666C46.4373 34.6666 47.3333 33.7706 47.3333 32.6666V19.3333C47.3333 18.8533 47.16 18.4 46.8533 18.04C46.5467 17.68 46.12 17.44 45.6533 17.36C43.4 17 41.1867 16.4 39.0667 15.56C36.9733 14.7333 34.9867 13.6666 33.16 12.3733C32.2547 11.7333 31.0027 11.9453 30.3667 12.8466C29.7307 13.748 29.9427 14.9933 30.84 15.6266C32.9467 17.12 35.2133 18.3466 37.6 19.28C39.4533 20.0133 41.3733 20.5866 43.3333 21V32.6666ZM34.444 34.3693C35.9053 33.5226 36.8893 31.9426 36.8893 30.1346C36.8893 27.436 34.6987 25.2453 32 25.2453C29.3013 25.2453 27.1107 27.436 27.1107 30.1346C27.1107 31.9426 28.0947 33.5226 29.556 34.3693V38.2826C29.556 39.1826 30.2853 39.912 31.1853 39.912H32.8147C33.7147 39.912 34.444 39.1826 34.444 38.2826V34.3693Z" fill="#9FEF00"/>
</svg>
