<svg width="48" height="48" viewBox="0 0 48 48" fill="none" xmlns="http://www.w3.org/2000/svg">
<g clip-path="url(#clip0_40_5462)">
<path d="M45.3189 19.0138L41.9849 18.4482C41.6376 17.327 41.1911 16.2454 40.6453 15.2134L42.61 12.4649C43.4435 11.294 43.3145 9.69642 42.2925 8.6843L39.3355 5.72733C38.7799 5.17166 38.0456 4.86406 37.2617 4.86406C36.6465 4.86406 36.0611 5.05259 35.5649 5.40981L32.8064 7.3745C31.7348 6.80891 30.6135 6.34254 29.4525 5.99525L28.8969 2.70091C28.6587 1.28196 27.4382 0.25 25.9994 0.25H21.822C20.3832 0.25 19.1627 1.28196 18.9245 2.70091L18.349 6.07463C17.2377 6.42192 16.1561 6.87837 15.1241 7.43404L12.3954 5.46934C11.8993 5.11213 11.3039 4.9236 10.6887 4.9236C9.90479 4.9236 9.16059 5.2312 8.61484 5.78687L5.64795 8.74384C4.63584 9.75595 4.49692 11.3535 5.33043 12.5244L7.31497 15.3127C6.76922 16.3546 6.33262 17.4361 5.99525 18.5574L2.70091 19.1131C1.28196 19.3512 0.25 20.5717 0.25 22.0105V26.188C0.25 27.6267 1.28196 28.8472 2.70091 29.0854L6.07463 29.6609C6.42192 30.7722 6.87837 31.8538 7.43404 32.8858L5.47927 35.6046C4.64576 36.7755 4.77475 38.373 5.79679 39.3852L8.75376 42.3421C9.30943 42.8978 10.0437 43.2054 10.8276 43.2054C11.4428 43.2054 12.0283 43.0169 12.5244 42.6596L15.3127 40.6751C16.3149 41.201 17.3667 41.6277 18.4482 41.9651L19.0039 45.2991C19.2421 46.718 20.4626 47.75 21.9013 47.75H26.0887C27.5275 47.75 28.748 46.718 28.9862 45.2991L29.5518 41.9651C30.673 41.6178 31.7546 41.1712 32.7866 40.6255L35.5351 42.5902C36.0313 42.9474 36.6266 43.1359 37.2419 43.1359C38.0257 43.1359 38.76 42.8283 39.3157 42.2727L42.2727 39.3157C43.2848 38.3036 43.4237 36.706 42.5902 35.5351L40.6255 32.7766C41.1712 31.7347 41.6277 30.6532 41.9651 29.5418L45.2991 28.9862C46.718 28.748 47.75 27.5275 47.75 26.0887V21.9113C47.7698 20.4725 46.7379 19.252 45.3189 19.0138ZM45.0907 26.0887C45.0907 26.2177 45.0014 26.3269 44.8724 26.3467L40.7049 27.0413C40.179 27.1306 39.7622 27.5176 39.6332 28.0237C39.2562 29.4823 38.6806 30.8814 37.9067 32.1813C37.6388 32.6377 37.6586 33.2033 37.9662 33.6399L40.4171 37.093C40.4866 37.1922 40.4767 37.3411 40.3874 37.4304L37.4304 40.3874C37.3609 40.4568 37.2915 40.4667 37.2419 40.4667C37.1823 40.4667 37.1327 40.4469 37.093 40.4171L33.6498 37.9662C33.2232 37.6586 32.6476 37.6388 32.1912 37.9067C30.8913 38.6806 29.4922 39.2562 28.0336 39.6332C27.5176 39.7622 27.1306 40.1889 27.0512 40.7049L26.3467 44.8724C26.3269 45.0014 26.2177 45.0907 26.0887 45.0907H21.9113C21.7823 45.0907 21.6731 45.0014 21.6533 44.8724L20.9587 40.7049C20.8694 40.179 20.4824 39.7622 19.9763 39.6332C18.5574 39.2661 17.1881 38.7005 15.908 37.9662C15.6997 37.8471 15.4615 37.7876 15.2333 37.7876C14.9654 37.7876 14.6875 37.867 14.4593 38.0357L10.9864 40.5064C10.9368 40.5362 10.8871 40.556 10.8375 40.556C10.7978 40.556 10.7185 40.5461 10.649 40.4767L7.69203 37.5197C7.60273 37.4304 7.5928 37.2915 7.66226 37.1823L10.1032 33.759C10.4109 33.3224 10.4307 32.7469 10.1628 32.2904C9.38881 31.0005 8.79345 29.6014 8.41639 28.1427C8.27747 27.6367 7.86072 27.2497 7.34474 27.1604L3.14743 26.4459C3.01844 26.4261 2.92913 26.317 2.92913 26.188V22.0105C2.92913 21.8815 3.01844 21.7724 3.14743 21.7525L7.2852 21.0579C7.8111 20.9686 8.23778 20.5816 8.36677 20.0656C8.73392 18.607 9.29951 17.198 10.0636 15.8981C10.3315 15.4417 10.3017 14.8761 9.9941 14.4494L7.52334 10.9764C7.45389 10.8772 7.46381 10.7284 7.55311 10.6391L10.5101 7.68211C10.5795 7.61265 10.649 7.60273 10.6986 7.60273C10.7581 7.60273 10.8078 7.62257 10.8475 7.65234L14.2708 10.0933C14.7074 10.4009 15.2829 10.4208 15.7393 10.1529C17.0293 9.37889 18.4284 8.78353 19.887 8.40646C20.3931 8.26755 20.7801 7.85079 20.8694 7.33481L21.5838 3.13751C21.6037 3.00851 21.7128 2.91921 21.8418 2.91921H26.0193C26.1483 2.91921 26.2574 3.00851 26.2773 3.13751L26.9718 7.27528C27.0612 7.80118 27.4481 8.22786 27.9641 8.35685C29.4624 8.73391 30.8913 9.31936 32.221 10.1032C32.6774 10.3712 33.243 10.3513 33.6796 10.0437L37.1029 7.58288C37.1525 7.55311 37.2022 7.53327 37.2518 7.53327C37.2915 7.53327 37.3708 7.54319 37.4403 7.61265L40.3973 10.5696C40.4866 10.6589 40.4965 10.7978 40.427 10.907L37.9761 14.3502C37.6685 14.7768 37.6487 15.3524 37.9166 15.8088C38.6906 17.1087 39.2661 18.5078 39.6431 19.9664C39.7721 20.4824 40.1988 20.8694 40.7148 20.9488L44.8823 21.6533C45.0113 21.6731 45.1006 21.7823 45.1006 21.9113V26.0887H45.0907Z" fill="#9FEF00"/>
<path d="M24.005 13.7451C18.3491 13.7451 13.7549 18.3393 13.7549 23.9953C13.7549 29.6512 18.3491 34.2454 24.005 34.2454C29.661 34.2454 34.2552 29.6512 34.2552 23.9953C34.2552 18.3393 29.661 13.7451 24.005 13.7451ZM24.005 31.5663C19.8276 31.5663 16.434 28.1727 16.434 23.9953C16.434 19.8178 19.8276 16.4242 24.005 16.4242C28.1825 16.4242 31.5761 19.8178 31.5761 23.9953C31.5761 28.1727 28.1825 31.5663 24.005 31.5663Z" fill="#9FEF00"/>
</g>
<defs>
<clipPath id="clip0_40_5462">
<rect width="48" height="48" fill="white"/>
</clipPath>
</defs>
</svg>
