<svg width="683" height="683" viewBox="0 0 683 683" fill="none" xmlns="http://www.w3.org/2000/svg">
<path fill-rule="evenodd" clip-rule="evenodd" d="M347.223 296.175L422.476 220.921C432.584 210.812 448.971 210.812 459.08 220.921C469.189 231.029 469.189 247.416 459.08 257.525L383.825 332.78C383.935 333.989 383.991 335.215 383.991 336.452C383.991 358.752 365.848 376.895 343.548 376.895C338.337 376.895 333.355 375.904 328.776 374.101L205.139 497.74C201.981 500.899 197.84 502.479 193.7 502.479C189.56 502.479 185.421 500.897 182.261 497.74C175.944 491.421 175.944 481.179 182.261 474.861L305.899 351.224C304.096 346.647 303.105 341.663 303.105 336.452C303.105 335.215 303.161 333.989 303.271 332.78L193.699 223.208C183.589 213.1 183.589 196.713 193.699 186.604C203.807 176.495 220.193 176.495 230.303 186.604L339.873 296.175C341.084 296.065 342.309 296.009 343.548 296.009C344.787 296.009 346.012 296.065 347.223 296.175ZM155.896 352.629H131.631C122.696 352.629 115.453 345.385 115.453 336.452C115.453 327.519 122.696 320.275 131.631 320.275H155.896C164.831 320.275 172.073 327.519 172.073 336.452C172.073 345.385 164.831 352.629 155.896 352.629ZM343.548 164.976C334.613 164.976 327.371 157.732 327.371 148.799V124.535C327.371 115.601 334.613 108.357 343.548 108.357C352.483 108.357 359.725 115.601 359.725 124.535V148.8C359.725 157.732 352.483 164.976 343.548 164.976ZM555.465 352.629H531.2C522.265 352.629 515.023 345.385 515.023 336.452C515.023 327.519 522.265 320.275 531.2 320.275H555.465C564.4 320.275 571.643 327.519 571.643 336.452C571.643 345.385 564.4 352.629 555.465 352.629ZM343.548 564.547C334.613 564.547 327.371 557.303 327.371 548.369V524.104C327.371 515.171 334.613 507.927 343.548 507.927C352.483 507.927 359.725 515.171 359.725 524.104V548.369C359.725 557.303 352.483 564.547 343.548 564.547ZM620.052 318.071C621.491 335.065 636.512 347.732 653.577 346.339C670.641 344.945 683.328 329.947 681.889 312.867C674.755 227.296 635.412 147.436 571.763 89.476C508.115 31.6706 424.851 -0.0973819 338.779 0.679951C248.365 1.49728 161.844 38.2053 98.372 102.579C35.056 167.105 -0.137332 254.141 0.680001 344.415C1.49867 434.688 38.264 521.075 102.737 584.447C167.365 647.664 254.537 682.803 344.951 681.987C362.069 681.832 375.843 667.829 375.688 650.737C375.532 633.645 361.508 619.895 344.391 620.049C270.415 620.717 199.12 591.939 146.229 540.231C93.492 488.365 63.3827 417.715 62.7147 343.855C62.0453 269.995 90.868 198.811 142.657 146.003C194.603 93.3466 265.365 63.2853 339.34 62.6173C409.748 61.9813 477.915 87.8466 529.991 135.225C582.067 182.605 614.144 247.975 620.052 318.071ZM473.907 575.473C458.828 583.4 453.161 601.817 461.257 616.576C469.355 631.335 488.171 636.883 503.248 628.957C567.456 595.14 619.077 542.003 650.276 477.509C657.669 462.361 651.108 444.223 635.633 437.028C620.159 429.833 601.593 436.291 594.2 451.437C568.633 504.344 526.537 547.681 473.907 575.473Z" fill="#9FEF00"/>
</svg>
