<svg width="64" height="65" viewBox="0 0 64 65" fill="none" xmlns="http://www.w3.org/2000/svg">
<g clip-path="url(#clip0_62_4098)">
<path fill-rule="evenodd" clip-rule="evenodd" d="M33.1998 41.0025L38.9251 22.8599C38.6078 22.6199 38.3264 22.3332 38.0918 22.0105L22.6611 26.5452C22.6238 27.2505 22.4038 27.9079 22.0478 28.4705L32.0571 41.2079C32.4184 41.0865 32.8024 41.0145 33.1998 41.0025ZM45.1811 54.5705C46.5131 53.8092 48.2198 54.2705 48.9891 55.5985C49.7584 56.9265 49.3011 58.6305 47.9678 59.3985C42.7851 62.3825 36.8744 63.8519 30.9091 63.6479C25.4998 63.4639 20.2211 61.9052 15.5691 59.1292C14.2518 58.3399 13.8238 56.6279 14.6131 55.3105C15.4038 53.9932 17.1144 53.5652 18.4331 54.3545C22.2664 56.6572 26.6211 57.9332 31.0984 58.0865C36.0358 58.2545 40.9064 57.0425 45.1811 54.5705ZM55.6638 19.8745C54.9731 18.4985 55.5291 16.8239 56.9051 16.1372C58.2811 15.4505 59.9518 16.0092 60.6358 17.3852C63.0198 22.1439 64.1624 27.4319 63.9811 32.7572C63.8424 36.8172 62.9411 40.8092 61.3104 44.5132C60.6944 45.9212 59.0504 46.5639 57.6424 45.9465C56.2344 45.3305 55.5918 43.6865 56.2091 42.2785C57.5664 39.2199 58.3051 35.9185 58.4184 32.5679C58.5691 28.1732 57.6184 23.8119 55.6638 19.8745ZM20.5478 7.84653C19.1651 8.50653 17.5011 7.91986 16.8331 6.53719C16.1664 5.15453 16.7464 3.4892 18.1291 2.82253C22.7851 0.586528 27.9171 -0.490805 33.0904 -0.314805C38.0678 -0.145472 42.9518 1.1772 47.3238 3.56786C48.6744 4.3052 49.1718 5.99986 48.4344 7.35053C47.6971 8.69986 46.0024 9.19719 44.6518 8.45986C41.0438 6.48519 37.0158 5.38786 32.9011 5.24653C28.6318 5.10119 24.3971 5.98786 20.5478 7.84653ZM6.91978 40.0545C7.40911 41.5079 6.62244 43.0852 5.16511 43.5732C3.70778 44.0612 2.12778 43.2705 1.63978 41.8105C0.441109 38.1919 -0.110891 34.3865 0.0184427 30.5759C0.190443 25.5425 1.54111 20.6052 3.98911 16.1919C4.72644 14.8492 6.41711 14.3639 7.76378 15.1092C9.11044 15.8545 9.59844 17.5492 8.85311 18.8919C6.83578 22.5399 5.72244 26.6079 5.57978 30.7652C5.47311 33.9225 5.92244 37.0559 6.91978 40.0545ZM55.9518 11.4479C55.8984 12.9839 54.6104 14.1865 53.0758 14.1345C51.5411 14.0825 50.3371 12.7932 50.3891 11.2585C50.4411 9.72386 51.7304 8.51986 53.2651 8.57319C54.7998 8.62519 56.0038 9.9132 55.9518 11.4479ZM12.4824 50.0172C12.4304 51.5519 11.1424 52.7559 9.60778 52.7039C8.07178 52.6505 6.86911 51.3625 6.92111 49.8279C6.97311 48.2932 8.26244 47.0892 9.79711 47.1412C11.3318 47.1932 12.5358 48.4825 12.4824 50.0172ZM57.0278 51.5359C57.0798 50.0012 55.8758 48.7132 54.3411 48.6599C52.8064 48.6079 51.5184 49.8119 51.4651 51.3465C51.4131 52.8812 52.6171 54.1705 54.1518 54.2225C55.6864 54.2745 56.9758 53.0705 57.0278 51.5359ZM35.7384 41.8039L41.4691 23.6639C43.6144 23.5919 45.3331 21.8292 45.3331 19.6665C45.3331 17.4585 43.5411 15.6665 41.3331 15.6665C39.1971 15.6665 37.4504 17.3439 37.3384 19.4519L21.9091 23.9919C21.1824 22.9879 19.9998 22.3332 18.6664 22.3332C16.4584 22.3332 14.6664 24.1252 14.6664 26.3332C14.6664 28.5412 16.4584 30.3332 18.6664 30.3332C19.1131 30.3332 19.5424 30.2599 19.9438 30.1252L29.9518 42.8639C29.5598 43.4812 29.3331 44.2145 29.3331 44.9999C29.3331 47.2079 31.1251 48.9999 33.3331 48.9999C35.5411 48.9999 37.3331 47.2079 37.3331 44.9999C37.3331 43.6945 36.7064 42.5345 35.7384 41.8039ZM14.4864 10.0345C14.5384 8.49986 13.3358 7.21053 11.8011 7.15853C10.2651 7.10653 8.97711 8.31053 8.92511 9.84519C8.87178 11.3799 10.0758 12.6679 11.6104 12.7212C13.1464 12.7732 14.4344 11.5692 14.4864 10.0345Z" fill="#9FEF00"/>
</g>
<defs>
<clipPath id="clip0_62_4098">
<rect width="64" height="64" fill="white" transform="translate(0 0.666626)"/>
</clipPath>
</defs>
</svg>
