<svg width="64" height="65" viewBox="0 0 64 65" fill="none" xmlns="http://www.w3.org/2000/svg">
<path fill-rule="evenodd" clip-rule="evenodd" d="M42.6665 35.9533V47.3333C42.6665 48.8106 43.8558 50 45.3332 50C46.8105 50 47.9998 48.8106 47.9998 47.3333V35.9533C49.5945 35.0306 50.6665 33.308 50.6665 31.3333C50.6665 29.3586 49.5945 27.636 47.9998 26.7133V20.6666C47.9998 19.1893 46.8105 18 45.3332 18C43.8558 18 42.6665 19.1893 42.6665 20.6666V26.7133C41.0718 27.636 39.9998 29.3586 39.9998 31.3333C39.9998 33.308 41.0718 35.0306 42.6665 35.9533ZM29.3332 43.9533V47.3333C29.3332 48.8106 30.5225 50 31.9998 50C33.4772 50 34.6665 48.8106 34.6665 47.3333V43.9533C36.2612 43.0306 37.3332 41.308 37.3332 39.3333C37.3332 37.3586 36.2612 35.636 34.6665 34.7133V20.6666C34.6665 19.1893 33.4772 18 31.9998 18C30.5225 18 29.3332 19.1893 29.3332 20.6666V34.7133C27.7385 35.636 26.6665 37.3586 26.6665 39.3333C26.6665 41.308 27.7385 43.0306 29.3332 43.9533ZM15.9998 24.0466V20.6666C15.9998 19.1893 17.1892 18 18.6665 18C20.1438 18 21.3332 19.1893 21.3332 20.6666V24.0466C22.9278 24.9693 23.9998 26.692 23.9998 28.6666C23.9998 30.6413 22.9278 32.364 21.3332 33.2866V47.3333C21.3332 48.8106 20.1438 50 18.6665 50C17.1892 50 15.9998 48.8106 15.9998 47.3333V33.2866C14.4052 32.364 13.3332 30.6413 13.3332 28.6666C13.3332 26.692 14.4052 24.9693 15.9998 24.0466ZM8.25317 42.1906C8.25317 43.732 7.0025 44.984 5.45984 44.984C3.9185 44.984 2.6665 43.732 2.6665 42.1906V10.3173C2.6665 6.46262 5.79584 3.33329 9.6505 3.33329H51.3012C52.8438 3.33329 54.0945 4.58529 54.0945 6.12662C54.0945 7.66929 52.8438 8.91996 51.3012 8.91996H12.4438C10.1318 8.91996 8.25317 10.7986 8.25317 13.1106V42.1906ZM55.7465 24.54C55.7465 22.9973 56.9972 21.7466 58.5398 21.7466C60.0812 21.7466 61.3332 22.9973 61.3332 24.54V55.016C61.3332 58.8706 58.2038 62 54.3492 62H19.8732C18.3305 62 17.0798 60.748 17.0798 59.2066C17.0798 57.664 18.3305 56.4133 19.8732 56.4133H51.5558C53.8678 56.4133 55.7465 54.5346 55.7465 52.2226V24.54Z" fill="#9FEF00"/>
</svg>
