<svg width="62" height="64" viewBox="0 0 62 64" fill="none" xmlns="http://www.w3.org/2000/svg">
<path d="M30.0514 4.66515C17.2072 4.66357 6.79481 15.077 6.79639 27.9217V43.0001V59.4393H21.4498V50.6674V49.5331V49.4502C24.1815 50.5672 27.1004 51.1545 30.0514 51.1797C32.9956 51.1801 35.8059 50.6182 38.3984 49.6205L42.3801 54.2552L46.7453 59.343L57.2038 50.3431L52.8253 45.2701L49.2256 41.0885C51.7996 37.3455 53.3071 32.8092 53.3065 27.9232C53.3081 15.0785 42.8958 4.66505 30.0514 4.66663V4.66515ZM30.0514 8.03828C41.0325 8.03811 49.935 16.9404 49.9349 27.9217C49.935 38.903 41.0325 47.8053 30.0514 47.8051C25.3726 47.7879 20.8513 46.1126 17.283 43.086V56.0676H10.168V43.0001V39.9823V39.9261V27.9232C10.1678 16.9419 19.0704 8.03956 30.0514 8.03976V8.03828ZM30.0514 15.1562C28.3746 15.1559 26.7141 15.486 25.1649 16.1275C23.6156 16.7691 22.2079 17.7096 21.0222 18.8953C19.8365 20.081 18.896 21.4887 18.2544 23.038C17.6128 24.5873 17.2827 26.2478 17.283 27.9247C17.2827 29.6015 17.6128 31.262 18.2544 32.8113C18.896 34.3606 19.8365 35.7683 21.0222 36.954C22.2079 38.1397 23.6156 39.0802 25.1649 39.7218C26.7141 40.3633 28.3746 40.6934 30.0514 40.6931C31.7283 40.6934 33.3888 40.3633 34.938 39.7218C36.4873 39.0802 37.895 38.1397 39.0807 36.954C40.2664 35.7683 41.2069 34.3606 41.8485 32.8113C42.4901 31.262 42.8202 29.6015 42.8199 27.9247C42.8202 26.2478 42.4901 24.5873 41.8485 23.038C41.2069 21.4887 40.2664 20.081 39.0807 18.8953C37.895 17.7096 36.4873 16.7691 34.938 16.1275C33.3888 15.486 31.7283 15.1559 30.0514 15.1562ZM30.0514 19.323C30.127 19.322 30.2025 19.322 30.278 19.323C30.3773 19.3267 30.4765 19.3322 30.5756 19.3393C30.6231 19.3448 30.6705 19.3508 30.7178 19.3571C30.9978 19.3809 31.2765 19.4185 31.5529 19.4696C31.5717 19.4695 31.5904 19.4695 31.6092 19.4696C31.6755 19.4841 31.7417 19.4994 31.8076 19.5155C31.9073 19.5389 32.0065 19.5641 32.1052 19.591C32.2764 19.6327 32.4463 19.6796 32.6146 19.7317C32.772 19.779 32.9281 19.8309 33.0825 19.8872C33.0884 19.8931 33.0944 19.899 33.1003 19.905C33.2333 19.9535 33.3652 20.0054 33.4957 20.0604C33.5239 20.0756 33.552 20.0909 33.5801 20.1063C33.6846 20.1517 33.7883 20.1991 33.891 20.2485C33.9431 20.2761 33.995 20.3042 34.0465 20.3329C34.1954 20.4086 34.342 20.4886 34.4863 20.5728C34.4917 20.5787 34.4971 20.5846 34.5026 20.5905C34.5602 20.623 34.6175 20.656 34.6743 20.6897C34.7648 20.7493 34.8542 20.8105 34.9423 20.8734C35.0338 20.9333 35.1242 20.995 35.2133 21.0585C35.2606 21.0955 35.3075 21.133 35.354 21.171C35.4843 21.2715 35.6117 21.3756 35.736 21.4834C35.7459 21.4928 35.7558 21.5022 35.7656 21.5116C35.8084 21.5486 35.8509 21.5862 35.893 21.6241C35.975 21.7029 36.0555 21.7834 36.1343 21.8654C36.3174 22.0461 36.4923 22.2348 36.6585 22.4311C36.7061 22.4877 36.753 22.545 36.7992 22.6029C36.8091 22.6181 36.819 22.6334 36.8288 22.6488C36.9111 22.7511 36.9911 22.8552 37.0687 22.9612C37.0936 22.9941 37.1183 23.0272 37.1427 23.0604C37.2011 23.1492 37.2579 23.239 37.313 23.3299C37.3467 23.3863 37.3798 23.443 37.4122 23.5002C37.4964 23.6347 37.5769 23.7714 37.6536 23.9103C37.6595 23.9261 37.6655 23.9419 37.6713 23.9577C37.6995 24.0093 37.7272 24.0611 37.7543 24.1132C37.8032 24.2164 37.8501 24.3206 37.8949 24.4256C37.9109 24.4532 37.9267 24.4808 37.9423 24.5086C37.9974 24.6395 38.0492 24.7718 38.0978 24.9054C38.1265 24.981 38.1541 25.057 38.1807 25.1334C38.2098 25.2223 38.2374 25.3117 38.2636 25.4014C38.316 25.5658 38.3634 25.7317 38.4058 25.899C38.4322 25.9972 38.4569 26.096 38.4798 26.1951C38.4965 26.266 38.5123 26.3371 38.5272 26.4083C38.5803 26.6994 38.6184 26.993 38.6412 27.2879C38.647 27.3352 38.6524 27.3826 38.6575 27.4301C38.6651 27.5287 38.671 27.6274 38.6753 27.7262C38.6752 27.7321 38.6752 27.7381 38.6753 27.744C38.6752 27.7499 38.6752 27.7558 38.6753 27.7618C38.6752 27.7672 38.6752 27.7726 38.6753 27.778C38.6752 27.784 38.6752 27.7899 38.6753 27.7958C38.6752 27.8012 38.6752 27.8067 38.6753 27.8121C38.6752 27.818 38.6752 27.8239 38.6753 27.8299C38.6752 27.8358 38.6752 27.8417 38.6753 27.8476C38.6752 27.8531 38.6752 27.8585 38.6753 27.8639C38.6752 27.8698 38.6752 27.8758 38.6753 27.8817C38.6752 27.8871 38.6752 27.8925 38.6753 27.898C38.6752 27.9039 38.6752 27.9098 38.6753 27.9157C38.6752 27.9217 38.6752 27.9276 38.6753 27.9335C38.6752 27.9389 38.6752 27.9444 38.6753 27.9498C38.6752 27.9557 38.6752 27.9616 38.6753 27.9676C38.6752 27.973 38.6752 27.9784 38.6753 27.9838C38.6752 27.9898 38.6752 27.9957 38.6753 28.0016C38.6744 28.491 38.6318 28.9795 38.5479 29.4616C38.5421 29.4893 38.5362 29.5169 38.5301 29.5446C38.4499 29.9776 38.3366 30.4038 38.191 30.8195C38.1756 30.8625 38.1598 30.9055 38.1437 30.9483C37.9812 31.3939 37.7821 31.8253 37.5484 32.238C37.5425 32.2434 37.5366 32.2489 37.5306 32.2543C37.5155 32.2791 37.5002 32.3037 37.4847 32.3283C37.2447 32.7476 36.9698 33.1458 36.6629 33.5189C36.657 33.5248 36.6511 33.5307 36.6451 33.5366C36.3225 33.9214 35.9667 34.2771 35.582 34.5998C35.5765 34.6052 35.5711 34.6107 35.5657 34.6161C35.2265 34.8986 34.8662 35.1545 34.4877 35.3816C34.4724 35.3911 34.4571 35.4004 34.4418 35.4098C34.3903 35.4384 34.3384 35.4666 34.2863 35.4942C34.2705 35.4996 34.2548 35.5051 34.239 35.5104C33.8395 35.7369 33.4226 35.931 32.9922 36.0909C32.9498 36.107 32.9074 36.1228 32.8648 36.1383C32.4583 36.2824 32.0415 36.3958 31.618 36.4774C31.5934 36.4834 31.5687 36.4893 31.544 36.4951C31.5252 36.4952 31.5065 36.4952 31.4877 36.4951C31.0104 36.5782 30.527 36.6208 30.0425 36.6225C29.5773 36.6226 29.1128 36.585 28.6536 36.5099C28.5873 36.4954 28.5211 36.4801 28.4552 36.464C27.9973 36.3778 27.5471 36.2545 27.1092 36.0953C26.6383 35.9275 26.183 35.7189 25.7484 35.4719C25.7429 35.4719 25.7375 35.4719 25.7321 35.4719C25.301 35.2197 24.8928 34.9303 24.512 34.6072C24.1277 34.2845 23.7725 33.9287 23.4503 33.544C22.8095 32.7818 22.3059 31.914 21.9621 30.9794C21.9621 30.9695 21.9621 30.9596 21.9621 30.9498C21.7926 30.4801 21.6642 29.9965 21.5786 29.5046C21.4886 29.0135 21.4415 28.5156 21.4379 28.0164C21.4415 27.5172 21.4886 27.0193 21.5786 26.5283C21.6642 26.0363 21.7926 25.5527 21.9621 25.0831C22.3028 24.138 22.8065 23.26 23.4503 22.4888C23.7725 22.1046 24.1278 21.7494 24.512 21.4271C25.2831 20.7833 26.1612 20.2796 27.1062 19.939C27.5759 19.7694 28.0595 19.6411 28.5514 19.5554C29.0424 19.4654 29.5404 19.4184 30.0396 19.4148L30.0514 19.323Z" fill="#9FEF00"/>
</svg>
