<svg width="64" height="64" viewBox="0 0 64 64" fill="none" xmlns="http://www.w3.org/2000/svg">
<g clip-path="url(#clip0_62_4082)">
<path d="M22.52 56.4533L24.7333 54.9733L30.1653 57.3333L25.48 60.88L20.0533 64.4933L-0.0533447 52.12L1.39999 10.1867L26.92 -0.320007L38.7467 7.06666L41.0133 8.47999L38.1867 13.0133L35.92 11.6L26.4133 5.65333L6.59999 13.8133L5.38666 49.2133L19.9467 58.1733L22.52 56.4533Z" fill="#9FEF00"/>
<path d="M52 16L62.6667 25.3333L58.6667 34.6667" stroke="#9FEF00" stroke-width="5.33333" stroke-miterlimit="3" stroke-linecap="square"/>
<path d="M36.1467 14.2134L33.9334 15.6934L30.9734 11.2667L33.1867 9.78669L48.0934 -0.159973L51.8667 11.16L52.7067 13.68L47.6534 15.3734L46.8001 12.84L45.2401 8.16003L36.1467 14.2134Z" fill="#141D2B"/>
<path d="M52.84 31.8667L50.32 32.7067L48.6267 27.6533L51.16 26.8L57.8933 24.56L65.84 56.36L43.8667 64.2133L22.8667 54.4133L16 50.6667L22.7067 48.4533L25.1333 49.5867L44.1333 58.4533L59.4933 52.9733L54.1067 31.44L52.84 31.8667Z" fill="#141D2B"/>
<path fill-rule="evenodd" clip-rule="evenodd" d="M47.9706 41.624C47.9706 40.6974 48.724 39.944 49.652 39.944C50.58 39.944 51.3333 40.6974 51.3333 41.624V47.1307C51.3333 49.4507 49.4506 51.3334 47.1306 51.3334H16.8693C14.5493 51.3334 12.6666 49.4507 12.6666 47.1307V31.16C12.6666 30.232 13.42 29.4787 14.348 29.4787C15.276 29.4787 16.0293 30.232 16.0293 31.16V45.4494C16.0293 46.8414 17.1586 47.9707 18.5506 47.9707H45.4493C46.8413 47.9707 47.9706 46.8414 47.9706 45.4494V41.624ZM16.0293 22.376C16.0293 23.3027 15.276 24.056 14.348 24.056C13.42 24.056 12.6666 23.3027 12.6666 22.376V16.8694C12.6666 14.5494 14.5493 12.6667 16.8693 12.6667H47.1306C49.4506 12.6667 51.3333 14.5494 51.3333 16.8694V33.5294C51.3333 34.4574 50.58 35.2107 49.652 35.2107C48.724 35.2107 47.9706 34.4574 47.9706 33.5294V18.5507C47.9706 17.1587 46.8413 16.0294 45.4493 16.0294H18.5506C17.1586 16.0294 16.0293 17.1587 16.0293 18.5507V22.376ZM18.6666 40.6667H30.6666V44H18.6666V40.6667ZM21.7173 22.616V26.9454H22.7213C23.6591 26.9454 24.3608 26.7574 24.8266 26.3814C25.2924 26.0062 25.5253 25.4596 25.5253 24.7414C25.5253 24.016 25.3302 23.4805 24.94 23.1347C24.5497 22.7889 23.9382 22.616 23.1053 22.616H21.7173ZM29.3493 27.3947C29.3493 29.8018 29.3493 29.8018 29.3493 27.3947ZM28.6066 24.6307C28.6066 26.2005 28.1226 27.4009 27.1546 28.232C26.1866 29.064 24.8106 29.48 23.0266 29.48H21.7173V34.6667H18.6666V20.0827H23.2626C25.0075 20.0827 26.3342 20.4631 27.2426 21.224C28.152 21.9858 28.6066 23.1214 28.6066 24.6307ZM38.4 32.0987V34.6667H30V20H38.4V22.548H33.092V25.768H38.0306V28.316H33.092V32.0987H38.4Z" fill="#A4B1CD"/>
</g>
<defs>
<clipPath id="clip0_62_4082">
<rect width="64" height="64" fill="white"/>
</clipPath>
</defs>
</svg>
