<svg width="64" height="64" viewBox="0 0 64 64" fill="none" xmlns="http://www.w3.org/2000/svg">
<g clip-path="url(#clip0_62_4077)">
<path d="M52.5781 52.578C47.8058 57.3568 41.5201 60.3271 34.7982 60.9799C28.0762 61.6327 21.3364 59.9274 15.7338 56.1562C10.1312 52.3849 6.01465 46.7826 4.08952 40.3091C2.16438 33.8357 2.55055 26.8943 5.18185 20.6744M11.4182 11.4257C16.1905 6.64556 22.4768 3.67425 29.1997 3.02108C35.9226 2.36791 42.6634 4.07355 48.2665 7.84563C53.8697 11.6177 57.9863 17.2213 59.9107 23.6959C61.8352 30.1705 61.4476 37.1129 58.8144 43.3331" stroke="#9FEF00" stroke-width="5.49554" stroke-linecap="round"/>
<path d="M30.6708 11.8136C25.5116 11.8136 21.313 14.9175 21.3591 18.466C21.4137 20.5506 22.1477 20.3829 31.9879 20.4248C33.0658 20.3829 33.091 21.4315 31.9879 21.3644H18.4608C14.7822 21.3644 11.8126 25.5169 11.8126 30.6719V33.3312C11.8126 38.4819 14.778 42.6386 18.465 42.6386H42.6334V18.466C42.6334 14.7833 38.4809 11.8178 33.3259 11.8178L30.6708 11.8136ZM27.7221 14.4268C28.2349 14.4268 28.7268 14.6305 29.0894 14.9931C29.452 15.3557 29.6558 15.8476 29.6558 16.3604C29.6558 16.8733 29.452 17.365 29.0894 17.7277C28.7268 18.0903 28.2349 18.2941 27.7221 18.2941C27.2093 18.2941 26.7175 18.0903 26.3548 17.7277C25.9922 17.365 25.7885 16.8733 25.7885 16.3604C25.7885 15.8476 25.9922 15.3557 26.3548 14.9931C26.7175 14.6305 27.2093 14.4268 27.7221 14.4268Z" fill="#A4B1CD"/>
<path d="M42.6334 21.3434V26.662C42.6334 29.6065 40.2593 31.9763 37.3148 31.9763H26.6819C26.6819 31.9763 21.3633 31.9763 21.3633 37.3032V45.516C21.3633 49.1987 25.5158 52.1642 30.6708 52.1642H33.3259C38.4851 52.1642 42.6376 49.2113 42.6376 45.516C42.6376 43.3013 42.1678 43.7712 31.5558 43.7922C30.5827 43.7838 30.5617 42.6387 31.56 42.6177H45.5359C49.2145 42.6177 52.1841 38.4652 52.1841 33.306V30.6468C52.1841 25.496 49.2187 21.3434 45.5317 21.3434H42.6334ZM35.9223 45.4154C36.1919 45.403 36.4612 45.4454 36.7139 45.5401C36.9667 45.6347 37.1976 45.7797 37.3928 45.9661C37.588 46.1525 37.7433 46.3765 37.8494 46.6247C37.9556 46.8728 38.0103 47.1399 38.0103 47.4098C38.0103 47.6797 37.9556 47.9469 37.8494 48.195C37.7433 48.4432 37.588 48.6672 37.3928 48.8536C37.1976 49.04 36.9667 49.1849 36.7139 49.2796C36.4612 49.3742 36.1919 49.4166 35.9223 49.4043C35.4091 49.3807 34.9248 49.1603 34.57 48.7888C34.2152 48.4174 34.0172 47.9235 34.0172 47.4098C34.0172 46.8962 34.2152 46.4022 34.57 46.0307C34.9248 45.6593 35.4091 45.4389 35.9223 45.4154Z" fill="#141D2B"/>
</g>
<defs>
<clipPath id="clip0_62_4077">
<rect width="64" height="64" fill="white"/>
</clipPath>
</defs>
</svg>
