<svg width="64" height="64" viewBox="0 0 64 64" fill="none" xmlns="http://www.w3.org/2000/svg">
<path fill-rule="evenodd" clip-rule="evenodd" d="M8.00002 24.48C8.00002 25.952 6.80535 27.1466 5.33335 27.1466C3.86135 27.1466 2.66669 25.952 2.66669 24.48V9.33329C2.66669 5.65329 5.65335 2.66663 9.33335 2.66663H24.48C25.952 2.66663 27.1467 3.86129 27.1467 5.33329C27.1467 6.80529 25.952 7.99996 24.48 7.99996H12C9.79202 7.99996 8.00002 9.79196 8.00002 12V24.48ZM39.52 7.99996C38.048 7.99996 36.8534 6.80529 36.8534 5.33329C36.8534 3.86129 38.048 2.66663 39.52 2.66663H54.6667C58.3467 2.66663 61.3334 5.65329 61.3334 9.33329V24.48C61.3334 25.952 60.1387 27.1466 58.6667 27.1466C57.1947 27.1466 56 25.952 56 24.48V12C56 9.79196 54.208 7.99996 52 7.99996H39.52ZM56 39.52C56 38.048 57.1947 36.8533 58.6667 36.8533C60.1387 36.8533 61.3334 38.048 61.3334 39.52V54.6666C61.3334 58.3466 58.3467 61.3333 54.6667 61.3333H40C38.528 61.3333 37.3334 60.1386 37.3334 58.6666C37.3334 57.1946 38.528 56 40 56H52C54.208 56 56 54.208 56 52V39.52ZM24.48 56C25.952 56 27.1467 57.1946 27.1467 58.6666C27.1467 60.1386 25.952 61.3333 24.48 61.3333H9.33335C5.65335 61.3333 2.66669 58.3466 2.66669 54.6666V39.52C2.66669 38.048 3.86135 36.8533 5.33335 36.8533C6.80535 36.8533 8.00002 38.048 8.00002 39.52V52C8.00002 54.208 9.79202 56 12 56H24.48Z" fill="#9FEF00"/>
<path d="M18.3974 27.5947V22.6614H13.432C12.696 22.6614 12.0987 22.0641 12.0987 21.3281V20.4307C12.0987 19.6947 12.696 19.0974 13.432 19.0974H18.3974V14.0827C18.3974 13.3467 18.9947 12.7494 19.7307 12.7494H20.6294C21.3654 12.7494 21.9627 13.3467 21.9627 14.0827V19.0974H26.928C27.664 19.0974 28.2614 19.6947 28.2614 20.4307V21.3281C28.2614 22.0641 27.664 22.6614 26.928 22.6614H21.9627V27.5947C21.9627 28.3307 21.3654 28.9281 20.6294 28.9281H19.7307C18.9947 28.9281 18.3974 28.3307 18.3974 27.5947Z" fill="#9FEF00"/>
<path d="M26.2173 48.4853H13.4773C12.7413 48.4853 12.144 47.888 12.144 47.152V45.7493C12.144 45.0133 12.7413 44.416 13.4773 44.416H26.2173C26.9533 44.416 27.5506 45.0133 27.5506 45.7493V47.152C27.5506 47.888 26.9533 48.4853 26.2173 48.4853Z" fill="#9FEF00"/>
<path d="M50.2173 48.4853H37.4773C36.7413 48.4853 36.144 47.888 36.144 47.152V45.7493C36.144 45.0133 36.7413 44.416 37.4773 44.416H50.2173C50.9533 44.416 51.5506 45.0133 51.5506 45.7493V47.152C51.5506 47.888 50.9533 48.4853 50.2173 48.4853Z" fill="#141D2B"/>
<path d="M50.2173 43.152H37.4773C36.7413 43.152 36.144 42.5546 36.144 41.8186V40.416C36.144 39.68 36.7413 39.0826 37.4773 39.0826H50.2173C50.9533 39.0826 51.5506 39.68 51.5506 40.416V41.8186C51.5506 42.5546 50.9533 43.152 50.2173 43.152Z" fill="#141D2B"/>
<path d="M50.3733 24.5067C50.6933 24.8267 50.8533 25.1912 50.8533 25.6001C50.8533 25.9912 50.7022 26.3423 50.4 26.6534C50.0978 26.9645 49.7422 27.1201 49.3333 27.1201C48.8889 27.1201 48.5067 26.9334 48.1867 26.5601L44.4267 22.4001L40.6667 26.5601C40.3289 26.9156 39.9467 27.0934 39.52 27.0934C39.1289 27.0934 38.7822 26.9423 38.48 26.6401C38.1778 26.3378 38.0267 25.9912 38.0267 25.6001C38.0267 25.1912 38.1867 24.8267 38.5067 24.5067L42.4 20.2667L38.72 16.2667C38.4 15.9467 38.24 15.5823 38.24 15.1734C38.24 14.7645 38.3911 14.4134 38.6933 14.1201C38.9956 13.8267 39.3422 13.6801 39.7333 13.6801C40.16 13.6801 40.5422 13.8578 40.88 14.2134L44.4267 18.1067L47.9733 14.2134C48.3111 13.8578 48.6933 13.6801 49.12 13.6801C49.5289 13.6801 49.88 13.8267 50.1733 14.1201C50.4667 14.4134 50.6133 14.7645 50.6133 15.1734C50.6133 15.5823 50.4533 15.9467 50.1333 16.2667L46.4533 20.2667L50.3733 24.5067Z" fill="#A4B1CD"/>
</svg>
