<svg width="64" height="65" viewBox="0 0 64 65" fill="none" xmlns="http://www.w3.org/2000/svg">
<g clip-path="url(#clip0_62_4066)">
<path fill-rule="evenodd" clip-rule="evenodd" d="M25.4667 22.912V22C25.4667 21.264 26.064 20.6666 26.8 20.6666H29.4667C30.2027 20.6666 30.8 21.264 30.8 22V22.912V50C30.8 51.472 29.6053 52.6666 28.1333 52.6666C26.6613 52.6666 25.4667 51.472 25.4667 50V22.912ZM38.5333 40.6666V42C38.5333 42.736 37.936 43.3333 37.2 43.3333H34.5333C33.7973 43.3333 33.2 42.736 33.2 42V40.6666V14C33.2 12.528 34.3947 11.3333 35.8667 11.3333C37.3387 11.3333 38.5333 12.528 38.5333 14V40.6666ZM40.2933 58.0133C41.692 57.5573 43.1973 58.3213 43.6533 59.72C44.1093 61.1186 43.3453 62.624 41.9467 63.08C38.7467 64.1333 35.4 64.6666 32.04 64.6666C20.9067 64.6666 10.5333 58.88 4.72 49.3866C1.64 44.3733 0 38.5866 0 32.7066C0 21.5733 5.78667 11.2 15.28 5.38663C20.2933 2.30663 26.0667 0.666626 31.96 0.666626C43.0933 0.666626 53.4667 6.45329 59.28 15.9466C62.36 20.96 64 26.7333 64 32.6266C64 40.1466 61.36 47.44 56.5467 53.2133C55.5973 54.3386 53.9093 54.488 52.78 53.5466C51.6507 52.6053 51.504 50.92 52.4533 49.7866C56.4667 44.9733 58.6667 38.9066 58.6667 32.6266C58.6667 27.7333 57.3067 22.92 54.7333 18.7333C49.88 10.8266 41.24 5.99996 31.96 5.99996C27.0533 5.99996 22.2533 7.35996 18.0667 9.93329C10.16 14.7866 5.33333 23.4266 5.33333 32.7066C5.33333 37.6 6.69333 42.4133 9.26667 46.6C14.12 54.5066 22.76 59.3333 32.04 59.3333C34.84 59.3333 37.6267 58.8933 40.2933 58.0133Z" fill="#9FEF00"/>
<path d="M20.2862 39.484C24.654 39.484 28.1949 35.9432 28.1949 31.5753C28.1949 27.2074 24.654 23.6666 20.2862 23.6666C15.9183 23.6666 12.3774 27.2074 12.3774 31.5753C12.3774 35.9432 15.9183 39.484 20.2862 39.484Z" stroke="#9FEF00" stroke-width="5.18255" stroke-linecap="round" stroke-linejoin="round"/>
<path d="M43.7144 39.7284C48.0823 39.7284 51.6231 36.1875 51.6231 31.8196C51.6231 27.4518 48.0823 23.9109 43.7144 23.9109C39.3465 23.9109 35.8057 27.4518 35.8057 31.8196C35.8057 36.1875 39.3465 39.7284 43.7144 39.7284Z" stroke="#9FEF00" stroke-width="5.18255" stroke-linecap="round" stroke-linejoin="round"/>
</g>
<defs>
<clipPath id="clip0_62_4066">
<rect width="64" height="64" fill="white" transform="translate(0 0.666626)"/>
</clipPath>
</defs>
</svg>
