<svg width="512" height="512" viewBox="0 0 512 512" fill="none" xmlns="http://www.w3.org/2000/svg">
<g clip-path="url(#clip0_34_1485)">
<path d="M343.28 154.32C339.6 154.613 335.787 155.813 331.84 157.92C331.446 158.125 331.005 158.226 330.561 158.212C330.117 158.199 329.683 158.072 329.302 157.843C328.921 157.614 328.605 157.292 328.384 156.906C328.163 156.52 328.045 156.084 328.04 155.64L328 128.08C328.017 127.792 327.933 127.508 327.763 127.275C327.593 127.043 327.347 126.877 327.068 126.806C326.789 126.735 326.493 126.763 326.233 126.886C325.972 127.009 325.763 127.219 325.64 127.48C316.147 144.653 307.253 162.133 298.96 179.92C298.293 181.333 297.187 182.04 295.64 182.04L281.96 181.96C280.52 181.933 279.8 181.2 279.8 179.76L280.08 144C280.107 142.587 279.413 141.827 278 141.72L256.2 139.76" stroke="#9FEF00" stroke-width="2"/>
<path d="M256.2 139.76C252.173 138.56 248.92 138.44 246.44 139.4C245.836 139.622 245.294 139.989 244.862 140.47C244.43 140.951 244.12 141.531 243.96 142.16L235 177.72" stroke="#9FEF00" stroke-width="2"/>
<path d="M235 177.72L232.04 179.04" stroke="#9FEF00" stroke-width="2"/>
<path d="M232.04 179.04L218.92 177.76" stroke="#9FEF00" stroke-width="2"/>
<path d="M218.92 177.76C208.12 143.04 183.733 125.2 145.76 124.24" stroke="#9FEF00" stroke-width="2"/>
<path d="M145.76 124.24C84.12 121.16 71.5201 176.64 69.4001 227C67.3601 274.92 70.5601 338.4 122.32 357.2C123.653 357.68 124.587 358.573 125.12 359.88C135.44 386.04 139.64 407 174.04 403.8" stroke="#9FEF00" stroke-width="2"/>
<path d="M174.04 403.8L200.48 401.84C202.16 401.706 203 400.786 203 399.08V377.24C203 375.693 202.227 374.986 200.68 375.12C187.32 376.213 179.96 370.2 178.6 357.08C178.493 355.906 178.96 355.053 180 354.52C230.24 329.12 230.92 253.28 224.8 206.08" stroke="#9FEF00" stroke-width="2"/>
<path d="M224.8 206.08C230.187 204.613 232.813 207.013 232.68 213.28C231.907 246.4 231.893 276.6 232.64 303.88C233.32 327.44 239.56 347.12 267.04 343.48" stroke="#9FEF00" stroke-width="2"/>
<path d="M267.04 343.48C280.347 343.853 292.853 341.627 304.56 336.8C305.947 336.24 306.627 335.2 306.6 333.68L306.04 311.64" stroke="#9FEF00" stroke-width="2"/>
<path d="M306.04 311.64C298.493 310.893 291.307 312.053 284.48 315.12" stroke="#9FEF00" stroke-width="2"/>
<path d="M284.48 315.12C276.28 307.28 280 224.68 280.04 209.56C280.04 208.841 280.279 208.142 280.72 207.574C281.161 207.005 281.778 206.6 282.475 206.421C283.171 206.242 283.908 206.3 284.568 206.586C285.228 206.872 285.774 207.369 286.12 208C295.773 225.173 305.507 242 315.32 258.48C324.36 273.68 321.52 298.12 320.76 315.36C320.739 315.983 320.928 316.594 321.299 317.095C321.669 317.597 322.198 317.958 322.8 318.12L343.36 323.8" stroke="#9FEF00" stroke-width="2"/>
<path d="M27.84 462.4C28.6 342.44 28.56 222.72 28.12 103C28.0134 77.2932 39.32 59.7599 62.04 50.3999" stroke="#9FEF00" stroke-width="2"/>
<path d="M145.76 124.24C72.32 136.12 76.48 236.2 85.36 288.72C90.56 319.4 104.44 347.72 136.28 357.52C137.587 357.92 138.36 358.8 138.6 360.16C142.56 381.44 151.36 398.68 174.04 403.8" stroke="#9FEF00" stroke-width="2"/>
<path d="M218.92 177.76L224.8 206.08" stroke="#9FEF00" stroke-width="2"/>
<path d="M152.76 156.64C141.987 161.2 135.613 171.12 133.64 186.4C129.36 219.8 122.04 307.96 151.96 327.16" stroke="#9FEF00" stroke-width="2"/>
<path d="M151.96 327.16C197.28 344 185.24 207.96 183.08 190C181.2 174.64 171.92 151.92 152.76 156.64" stroke="#9FEF00" stroke-width="2"/>
<path d="M151.96 327.16C177.96 310.28 174.04 252.28 173.12 224.64C172.16 194.92 172.68 174.52 152.76 156.64" stroke="#9FEF00" stroke-width="2"/>
<path d="M284.48 315.12C290.133 318.347 297.32 317.187 306.04 311.64" stroke="#9FEF00" stroke-width="2"/>
<path d="M267.04 343.48C248.44 338.08 245.16 325.24 245.16 306.4C245.187 273.52 244.907 240.573 244.32 207.56C244.31 206.877 244.031 206.226 243.545 205.747C243.058 205.268 242.403 205 241.72 205H234C232.693 205 232.04 204.346 232.04 203.04V179.04" stroke="#9FEF00" stroke-width="2"/>
<path d="M235 177.72C238.253 178.84 241.573 179.253 244.96 178.96C246.293 178.853 247.107 178.16 247.4 176.88L256.2 139.76" stroke="#9FEF00" stroke-width="2"/>
<path d="M348.96 162.68L320.6 168.52" stroke="#9FEF00" stroke-width="2"/>
<path d="M320.6 168.52C322.547 162.733 322.853 157.187 321.52 151.88C321.12 150.307 320.56 150.24 319.84 151.68L293.12 203.76C292.48 204.987 292.52 206.213 293.24 207.44L319.6 252.52C321.333 255.453 322.16 255.227 322.08 251.84L321.8 238.32C321.789 237.735 321.904 237.155 322.139 236.62C322.373 236.084 322.721 235.606 323.158 235.218C323.596 234.83 324.112 234.542 324.672 234.373C325.231 234.204 325.821 234.159 326.4 234.24L332.36 235.12C333.88 235.36 334.813 234.72 335.16 233.2C338.56 217.68 346.36 201.64 365.08 202.72" stroke="#9FEF00" stroke-width="2"/>
<path d="M365.08 202.72L373.96 206C375.4 206.533 376.12 206.04 376.12 204.52V163.28" stroke="#9FEF00" stroke-width="2"/>
<path d="M376.12 163.28L399.04 158.56C400.347 158.293 401 158.827 401 160.16C401 183.653 401 207.147 401 230.64C401 230.95 401.061 231.257 401.18 231.543C401.298 231.829 401.472 232.09 401.691 232.309C401.91 232.528 402.171 232.702 402.457 232.82C402.743 232.939 403.05 233 403.36 233H407.52C409.173 233 410 232.16 410 230.48V149.4C410.001 149.185 409.953 148.972 409.858 148.779C409.764 148.586 409.626 148.417 409.456 148.285C409.286 148.154 409.088 148.063 408.877 148.021C408.666 147.978 408.448 147.985 408.24 148.04L348.96 162.68" stroke="#A4B1CD" stroke-width="2"/>
<path d="M376.12 163.28C371.24 163.6 348.16 170.2 348.96 162.68" stroke="#9FEF00" stroke-width="2"/>
<path d="M320.6 168.52L299.32 203.2C298.6 204.373 298.547 205.56 299.16 206.76C303.507 215.587 308.32 224.16 313.6 232.48C314.427 233.733 315.573 234.253 317.04 234.04C324.4 232.96 328.96 229.08 332.12 221.56C337.533 208.6 347.427 200.4 361.8 196.96C362.294 196.844 362.808 196.834 363.306 196.932C363.804 197.031 364.276 197.234 364.688 197.53C365.101 197.825 365.446 198.206 365.7 198.646C365.954 199.086 366.111 199.575 366.16 200.08C366.24 200.907 365.88 201.787 365.08 202.72" stroke="#9FEF00" stroke-width="2"/>
<path d="M417.16 245.52L403.36 244.52C401.787 244.413 401 245.16 401 246.76V317.04C401 318.427 400.307 319.16 398.92 319.24C387.96 319.987 382.813 315.293 383.48 305.16C383.64 302.867 382.827 302.453 381.04 303.92L371.6 311.76C370.521 312.66 369.149 313.117 367.76 313.04C321.6 310.8 339.48 244.08 331.04 243.68C330.577 243.658 330.114 243.731 329.68 243.895C329.246 244.058 328.851 244.309 328.517 244.631C328.184 244.953 327.92 245.34 327.741 245.768C327.563 246.196 327.474 246.656 327.48 247.12L328.12 308.2C328.12 309.667 328.827 310.573 330.24 310.92L414.84 331.8C416.382 332.186 417.743 333.095 418.691 334.371C419.639 335.647 420.115 337.212 420.04 338.8L419.04 359.68C418.933 361.76 419.653 362.107 421.2 360.72L489.84 299.68C490.987 298.667 491.053 297.573 490.04 296.4L436.88 235.96" stroke="#A4B1CD" stroke-width="2"/>
<path d="M436.88 235.96L421.52 218.04C420.24 216.546 419.493 216.773 419.28 218.72C418.84 222.64 421.16 244.48 417.16 245.52" stroke="#A4B1CD" stroke-width="2"/>
<path d="M436.88 235.96C435.44 235.88 434.627 236.08 434.44 236.56C434.042 237.62 434.007 238.846 434.339 240.103C434.671 241.36 435.357 242.598 436.32 243.68L480.64 294.04C481.601 295.131 482.085 296.561 481.988 298.016C481.89 299.471 481.218 300.832 480.12 301.8L430.4 345C430.092 345.267 429.719 345.449 429.318 345.526C428.917 345.603 428.504 345.573 428.118 345.439C427.733 345.305 427.389 345.072 427.123 344.763C426.856 344.455 426.676 344.081 426.6 343.68L424.56 332.4C424.448 331.792 424.197 331.221 423.829 330.735C423.46 330.248 422.984 329.859 422.44 329.6L408.84 323.2C407.693 322.64 407.107 321.72 407.08 320.44C406.867 289.533 406.867 270.04 407.08 261.96C407.213 256.76 410.573 251.28 417.16 245.52" stroke="#A4B1CD" stroke-width="2"/>
<path d="M356.6 234H373.16C373.436 234 373.7 233.89 373.895 233.695C374.09 233.5 374.2 233.236 374.2 232.96V232.32C374.2 229.18 373.218 226.168 371.47 223.948C369.722 221.727 367.352 220.48 364.88 220.48C362.408 220.48 360.038 221.727 358.29 223.948C356.542 226.168 355.56 229.18 355.56 232.32V232.96C355.56 233.236 355.67 233.5 355.865 233.695C356.06 233.89 356.324 234 356.6 234Z" stroke="#9FEF00" stroke-width="2"/>
<path d="M373.2 243.72L355 244.32C354.695 244.33 354.396 244.401 354.118 244.527C353.841 244.653 353.591 244.833 353.383 245.056C353.175 245.279 353.012 245.54 352.906 245.826C352.799 246.111 352.749 246.415 352.76 246.72L353.4 265.96C353.67 274.002 355.047 281.675 357.23 287.293C359.412 292.911 362.221 296.014 365.04 295.92L366.64 295.88C369.454 295.765 372.044 292.472 373.844 286.721C375.643 280.97 376.505 273.231 376.24 265.2L375.6 245.96C375.59 245.655 375.519 245.356 375.393 245.078C375.267 244.8 375.087 244.55 374.864 244.342C374.641 244.134 374.38 243.972 374.094 243.866C373.809 243.759 373.505 243.709 373.2 243.72Z" stroke="#A4B1CD" stroke-width="2"/>
<path d="M362.08 287.24H367.44C367.669 287.24 367.896 287.194 368.108 287.105C368.319 287.016 368.51 286.886 368.671 286.722C368.831 286.558 368.957 286.364 369.041 286.15C369.125 285.937 369.165 285.709 369.16 285.48L369.04 266.84C369.026 264.887 368.905 262.954 368.684 261.153C368.463 259.351 368.147 257.716 367.753 256.341C367.359 254.966 366.896 253.878 366.389 253.14C365.882 252.402 365.342 252.028 364.8 252.04H364.24C363.15 252.063 362.116 253.642 361.367 256.431C360.617 259.22 360.212 262.992 360.24 266.92L360.36 285.56C360.37 286.009 360.556 286.436 360.878 286.75C361.199 287.064 361.631 287.24 362.08 287.24Z" stroke="#A4B1CD" stroke-width="2"/>
<path d="M343.28 154.32C339.6 154.613 335.787 155.813 331.84 157.92C331.446 158.125 331.005 158.226 330.561 158.212C330.117 158.199 329.683 158.072 329.302 157.843C328.921 157.614 328.605 157.292 328.384 156.906C328.163 156.52 328.045 156.085 328.04 155.64L328 128.08C328.017 127.792 327.933 127.508 327.763 127.275C327.593 127.043 327.347 126.877 327.068 126.806C326.788 126.735 326.493 126.763 326.233 126.886C325.972 127.009 325.763 127.219 325.64 127.48C316.147 144.653 307.253 162.133 298.96 179.92C298.293 181.333 297.187 182.04 295.64 182.04L281.96 181.96C280.52 181.933 279.8 181.2 279.8 179.76L280.08 144C280.107 142.587 279.413 141.827 278 141.72L256.2 139.76C252.173 138.56 248.92 138.44 246.44 139.4C245.836 139.622 245.294 139.989 244.862 140.47C244.43 140.951 244.12 141.531 243.96 142.16L235 177.72L232.04 179.04L218.92 177.76C208.12 143.04 183.733 125.2 145.76 124.24C84.12 121.16 71.52 176.64 69.4 227C67.36 274.92 70.56 338.4 122.32 357.2C123.653 357.68 124.587 358.573 125.12 359.88C135.44 386.04 139.64 407 174.04 403.8L200.48 401.84C202.16 401.707 203 400.787 203 399.08V377.24C203 375.693 202.227 374.987 200.68 375.12C187.32 376.213 179.96 370.2 178.6 357.08C178.493 355.907 178.96 355.053 180 354.52C230.24 329.12 230.92 253.28 224.8 206.08C230.187 204.613 232.813 207.013 232.68 213.28C231.907 246.4 231.893 276.6 232.64 303.88C233.32 327.44 239.56 347.12 267.04 343.48C280.347 343.853 292.853 341.627 304.56 336.8C305.947 336.24 306.627 335.2 306.6 333.68L306.04 311.64C298.493 310.893 291.307 312.053 284.48 315.12C276.28 307.28 280 224.68 280.04 209.56C280.04 208.841 280.279 208.142 280.72 207.574C281.161 207.005 281.778 206.6 282.475 206.421C283.171 206.242 283.908 206.301 284.568 206.586C285.228 206.872 285.774 207.37 286.12 208C295.773 225.173 305.507 242 315.32 258.48C324.36 273.68 321.52 298.12 320.76 315.36C320.739 315.983 320.928 316.595 321.299 317.096C321.669 317.597 322.198 317.958 322.8 318.12L343.36 323.8C342.28 369.4 351.08 408.2 292.76 417.76C203.827 432.347 115.52 447.227 27.84 462.4C28.6 342.44 28.56 222.72 28.12 103C28.0134 77.2934 39.32 59.76 62.04 50.4C69.88 48.72 75.88 48.2134 80.04 48.88C166.92 63.0667 253.893 77.3334 340.96 91.68C342.32 91.8934 343 92.68 343 94.04L343.28 154.32Z" fill="#9FEF00"/>
<path d="M62.04 50.4C39.32 59.76 28.0133 77.2933 28.12 103C28.56 222.72 28.6 342.44 27.84 462.4L0 435.76V96.6C5.17333 63.5867 25.8533 48.1867 62.04 50.4Z" fill="#141D2B"/>
<path d="M145.76 124.24C72.32 136.12 76.48 236.2 85.36 288.72C90.56 319.4 104.44 347.72 136.28 357.52C137.587 357.92 138.36 358.8 138.6 360.16C142.56 381.44 151.36 398.68 174.04 403.8C139.64 407 135.44 386.04 125.12 359.88C124.587 358.573 123.653 357.68 122.32 357.2C70.56 338.4 67.36 274.92 69.4 227C71.52 176.64 84.12 121.16 145.76 124.24Z" fill="#141D2B"/>
<path d="M145.76 124.24C183.733 125.2 208.12 143.04 218.92 177.76L224.8 206.08C230.92 253.28 230.24 329.12 180 354.52C178.96 355.053 178.493 355.907 178.6 357.08C179.96 370.2 187.32 376.213 200.68 375.12C202.227 374.987 203 375.693 203 377.24V399.08C203 400.787 202.16 401.707 200.48 401.84L174.04 403.8C151.36 398.68 142.56 381.44 138.6 360.16C138.36 358.8 137.587 357.92 136.28 357.52C104.44 347.72 90.56 319.4 85.36 288.72C76.48 236.2 72.32 136.12 145.76 124.24ZM152.76 156.64C141.987 161.2 135.613 171.12 133.64 186.4C129.36 219.8 122.04 307.96 151.96 327.16C197.28 344 185.24 207.96 183.08 190C181.2 174.64 171.92 151.92 152.76 156.64Z" fill="white"/>
<path d="M343.28 154.32L416.08 134.04C416.538 133.91 417.02 133.888 417.487 133.976C417.955 134.063 418.396 134.258 418.776 134.545C419.156 134.832 419.464 135.203 419.676 135.629C419.889 136.055 419.999 136.524 420 137V197.08C420.001 198.421 420.5 199.717 421.4 200.72L512 300.52C512 302.44 512 302.76 512 301.48L412.12 385.2C410.6 386.507 409.84 386.147 409.84 384.12L410.08 344.16C410.078 343.583 409.89 343.023 409.544 342.562C409.198 342.101 408.713 341.763 408.16 341.6L343.36 323.8L322.8 318.12C322.198 317.958 321.669 317.597 321.299 317.096C320.928 316.594 320.739 315.983 320.76 315.36C321.52 298.12 324.36 273.68 315.32 258.48C305.507 242 295.773 225.173 286.12 208C285.774 207.369 285.228 206.872 284.568 206.586C283.908 206.3 283.171 206.242 282.475 206.421C281.778 206.6 281.161 207.005 280.72 207.574C280.279 208.142 280.04 208.841 280.04 209.56C280 224.68 276.28 307.28 284.48 315.12C290.133 318.347 297.32 317.187 306.04 311.64L306.6 333.68C306.627 335.2 305.947 336.24 304.56 336.8C292.853 341.627 280.347 343.853 267.04 343.48C248.44 338.08 245.16 325.24 245.16 306.4C245.187 273.52 244.907 240.573 244.32 207.56C244.309 206.877 244.031 206.226 243.544 205.747C243.058 205.268 242.403 205 241.72 205H234C232.693 205 232.04 204.347 232.04 203.04V179.04L235 177.72C238.253 178.84 241.573 179.253 244.96 178.96C246.293 178.853 247.107 178.16 247.4 176.88L256.2 139.76L278 141.72C279.413 141.827 280.107 142.587 280.08 144L279.8 179.76C279.8 181.2 280.52 181.933 281.96 181.96L295.64 182.04C297.187 182.04 298.293 181.333 298.96 179.92C307.253 162.133 316.147 144.653 325.64 127.48C325.763 127.219 325.972 127.009 326.233 126.886C326.493 126.763 326.788 126.735 327.068 126.806C327.347 126.877 327.593 127.043 327.763 127.275C327.933 127.508 328.017 127.792 328 128.08L328.04 155.64C328.045 156.084 328.163 156.52 328.384 156.906C328.605 157.292 328.921 157.614 329.302 157.843C329.683 158.072 330.117 158.199 330.561 158.212C331.005 158.226 331.446 158.125 331.84 157.92C335.787 155.813 339.6 154.613 343.28 154.32ZM348.96 162.68L320.6 168.52C322.547 162.733 322.853 157.187 321.52 151.88C321.12 150.307 320.56 150.24 319.84 151.68L293.12 203.76C292.48 204.987 292.52 206.213 293.24 207.44L319.6 252.52C321.333 255.453 322.16 255.227 322.08 251.84L321.8 238.32C321.789 237.735 321.904 237.155 322.139 236.62C322.373 236.084 322.721 235.606 323.158 235.218C323.596 234.83 324.112 234.542 324.672 234.373C325.231 234.204 325.821 234.159 326.4 234.24L332.36 235.12C333.88 235.36 334.813 234.72 335.16 233.2C338.56 217.68 346.36 201.64 365.08 202.72L373.96 206C375.4 206.533 376.12 206.04 376.12 204.52V163.28L399.04 158.56C400.347 158.293 401 158.827 401 160.16C401 183.653 401 207.147 401 230.64C401 230.95 401.061 231.257 401.18 231.543C401.298 231.829 401.472 232.09 401.691 232.309C401.91 232.528 402.171 232.702 402.457 232.82C402.743 232.939 403.05 233 403.36 233H407.52C409.173 233 410 232.16 410 230.48V149.4C410.001 149.185 409.953 148.972 409.858 148.779C409.764 148.586 409.626 148.417 409.456 148.285C409.286 148.153 409.088 148.063 408.877 148.02C408.666 147.978 408.448 147.985 408.24 148.04L348.96 162.68ZM417.16 245.52L403.36 244.52C401.787 244.413 401 245.16 401 246.76V317.04C401 318.427 400.307 319.16 398.92 319.24C387.96 319.987 382.813 315.293 383.48 305.16C383.64 302.867 382.827 302.453 381.04 303.92L371.6 311.76C370.521 312.66 369.149 313.117 367.76 313.04C321.6 310.8 339.48 244.08 331.04 243.68C330.577 243.658 330.114 243.731 329.68 243.895C329.246 244.058 328.851 244.309 328.517 244.631C328.184 244.953 327.92 245.34 327.741 245.768C327.563 246.196 327.474 246.656 327.48 247.12L328.12 308.2C328.12 309.667 328.827 310.573 330.24 310.92L414.84 331.8C416.382 332.186 417.743 333.095 418.691 334.371C419.639 335.647 420.115 337.212 420.04 338.8L419.04 359.68C418.933 361.76 419.653 362.107 421.2 360.72L489.84 299.68C490.987 298.667 491.053 297.573 490.04 296.4L436.88 235.96L421.52 218.04C420.24 216.547 419.493 216.773 419.28 218.72C418.84 222.64 421.16 244.48 417.16 245.52ZM356.6 234H373.16C373.436 234 373.7 233.89 373.895 233.695C374.09 233.5 374.2 233.236 374.2 232.96V232.32C374.2 229.18 373.218 226.168 371.47 223.948C369.722 221.727 367.352 220.48 364.88 220.48C362.408 220.48 360.038 221.727 358.29 223.948C356.542 226.168 355.56 229.18 355.56 232.32V232.96C355.56 233.236 355.67 233.5 355.865 233.695C356.06 233.89 356.324 234 356.6 234ZM373.2 243.72L355 244.32C354.695 244.33 354.396 244.4 354.118 244.527C353.84 244.653 353.591 244.833 353.383 245.056C353.174 245.278 353.012 245.54 352.906 245.826C352.799 246.111 352.749 246.415 352.76 246.72L353.4 265.96C353.67 274.002 355.047 281.675 357.23 287.293C359.412 292.911 362.221 296.014 365.04 295.92L366.64 295.88C369.454 295.765 372.044 292.472 373.844 286.721C375.643 280.97 376.505 273.231 376.24 265.2L375.6 245.96C375.59 245.655 375.519 245.355 375.393 245.078C375.267 244.8 375.087 244.55 374.864 244.342C374.641 244.134 374.38 243.972 374.094 243.865C373.809 243.759 373.505 243.709 373.2 243.72Z" fill="white"/>
<path d="M256.2 139.76L247.4 176.88C247.107 178.16 246.293 178.853 244.96 178.96C241.573 179.253 238.253 178.84 235 177.72L243.96 142.16C244.12 141.531 244.43 140.951 244.862 140.47C245.294 139.989 245.836 139.622 246.44 139.4C248.92 138.44 252.173 138.56 256.2 139.76Z" fill="#141D2B"/>
<path d="M376.12 163.28C371.24 163.6 348.16 170.2 348.96 162.68L408.24 148.04C408.448 147.985 408.666 147.978 408.877 148.021C409.088 148.063 409.286 148.154 409.456 148.285C409.626 148.417 409.764 148.586 409.858 148.779C409.953 148.972 410.001 149.185 410 149.4V230.48C410 232.16 409.173 233 407.52 233H403.36C403.05 233 402.743 232.939 402.457 232.82C402.171 232.702 401.91 232.528 401.691 232.309C401.472 232.09 401.298 231.829 401.18 231.543C401.061 231.257 401 230.95 401 230.64C401 207.147 401 183.653 401 160.16C401 158.827 400.347 158.293 399.04 158.56L376.12 163.28Z" fill="#141D2B"/>
<path d="M320.6 168.52L299.32 203.2C298.6 204.373 298.547 205.56 299.16 206.76C303.507 215.587 308.32 224.16 313.6 232.48C314.427 233.733 315.573 234.253 317.04 234.04C324.4 232.96 328.96 229.08 332.12 221.56C337.533 208.6 347.427 200.4 361.8 196.96C362.294 196.843 362.808 196.834 363.306 196.932C363.804 197.031 364.275 197.234 364.688 197.53C365.101 197.825 365.446 198.206 365.7 198.646C365.954 199.085 366.111 199.575 366.16 200.08C366.24 200.907 365.88 201.787 365.08 202.72C346.36 201.64 338.56 217.68 335.16 233.2C334.813 234.72 333.88 235.36 332.36 235.12L326.4 234.24C325.821 234.159 325.231 234.204 324.672 234.373C324.112 234.542 323.596 234.83 323.158 235.218C322.721 235.606 322.373 236.084 322.139 236.62C321.904 237.155 321.789 237.735 321.8 238.32L322.08 251.84C322.16 255.227 321.333 255.453 319.6 252.52L293.24 207.44C292.52 206.213 292.48 204.987 293.12 203.76L319.84 151.68C320.56 150.24 321.12 150.307 321.52 151.88C322.853 157.187 322.547 162.733 320.6 168.52Z" fill="#141D2B"/>
<path d="M151.96 327.16C177.96 310.28 174.04 252.28 173.12 224.64C172.16 194.92 172.68 174.52 152.76 156.64C171.92 151.92 181.2 174.64 183.08 190C185.24 207.96 197.28 344 151.96 327.16Z" fill="#141D2B"/>
<path d="M152.76 156.64C172.68 174.52 172.16 194.92 173.12 224.64C174.04 252.28 177.96 310.28 151.96 327.16C122.04 307.96 129.36 219.8 133.64 186.4C135.613 171.12 141.987 161.2 152.76 156.64Z" fill="#9FEF00"/>
<path d="M348.96 162.68C348.16 170.2 371.24 163.6 376.12 163.28V204.52C376.12 206.04 375.4 206.533 373.96 206L365.08 202.72C365.88 201.787 366.24 200.907 366.16 200.08C366.111 199.575 365.954 199.085 365.7 198.646C365.446 198.206 365.101 197.825 364.688 197.53C364.276 197.234 363.804 197.031 363.306 196.932C362.808 196.834 362.294 196.843 361.8 196.96C347.427 200.4 337.533 208.6 332.12 221.56C328.96 229.08 324.4 232.96 317.04 234.04C315.573 234.253 314.427 233.733 313.6 232.48C308.32 224.16 303.507 215.587 299.16 206.76C298.547 205.56 298.6 204.373 299.32 203.2L320.6 168.52L348.96 162.68Z" fill="#141D2B"/>
<path d="M218.92 177.76L232.04 179.04V203.04C232.04 204.347 232.693 205 234 205H241.72C242.403 205 243.058 205.268 243.544 205.747C244.031 206.226 244.309 206.877 244.32 207.56C244.907 240.573 245.187 273.52 245.16 306.4C245.16 325.24 248.44 338.08 267.04 343.48C239.56 347.12 233.32 327.44 232.64 303.88C231.893 276.6 231.907 246.4 232.68 213.28C232.813 207.013 230.187 204.613 224.8 206.08L218.92 177.76Z" fill="#141D2B"/>
<path d="M436.88 235.96C435.44 235.88 434.627 236.08 434.44 236.56C434.042 237.62 434.007 238.846 434.339 240.103C434.671 241.36 435.356 242.599 436.32 243.68L480.64 294.04C481.6 295.131 482.085 296.561 481.988 298.016C481.89 299.471 481.218 300.832 480.12 301.8L430.4 345C430.092 345.267 429.719 345.449 429.318 345.526C428.917 345.603 428.503 345.573 428.118 345.439C427.733 345.306 427.389 345.072 427.123 344.763C426.856 344.455 426.676 344.081 426.6 343.68L424.56 332.4C424.448 331.792 424.197 331.221 423.829 330.735C423.46 330.248 422.984 329.859 422.44 329.6L408.84 323.2C407.693 322.64 407.107 321.72 407.08 320.44C406.867 289.533 406.867 270.04 407.08 261.96C407.213 256.76 410.573 251.28 417.16 245.52C421.16 244.48 418.84 222.64 419.28 218.72C419.493 216.773 420.24 216.547 421.52 218.04L436.88 235.96Z" fill="#A4B1CD"/>
<path d="M356.6 234C356.324 234 356.06 233.89 355.865 233.695C355.67 233.5 355.56 233.236 355.56 232.96V232.32C355.56 229.18 356.542 226.168 358.29 223.948C360.038 221.727 362.408 220.48 364.88 220.48C367.352 220.48 369.722 221.727 371.47 223.948C373.218 226.168 374.2 229.18 374.2 232.32V232.96C374.2 233.236 374.09 233.5 373.895 233.695C373.7 233.89 373.436 234 373.16 234H356.6Z" fill="#141D2B"/>
<path d="M436.88 235.96L490.04 296.4C491.053 297.573 490.987 298.667 489.84 299.68L421.2 360.72C419.653 362.107 418.933 361.76 419.04 359.68L420.04 338.8C420.115 337.212 419.639 335.647 418.691 334.371C417.743 333.095 416.382 332.186 414.84 331.8L330.24 310.92C328.827 310.573 328.12 309.667 328.12 308.2L327.48 247.12C327.474 246.656 327.563 246.196 327.741 245.768C327.92 245.34 328.184 244.953 328.517 244.631C328.851 244.309 329.246 244.058 329.68 243.895C330.114 243.731 330.577 243.658 331.04 243.68C339.48 244.08 321.6 310.8 367.76 313.04C369.149 313.117 370.521 312.66 371.6 311.76L381.04 303.92C382.827 302.453 383.64 302.867 383.48 305.16C382.813 315.293 387.96 319.987 398.92 319.24C400.307 319.16 401 318.427 401 317.04V246.76C401 245.16 401.787 244.413 403.36 244.52L417.16 245.52C410.573 251.28 407.213 256.76 407.08 261.96C406.867 270.04 406.867 289.533 407.08 320.44C407.107 321.72 407.693 322.64 408.84 323.2L422.44 329.6C422.984 329.859 423.46 330.248 423.829 330.735C424.197 331.221 424.448 331.792 424.56 332.4L426.6 343.68C426.676 344.081 426.856 344.455 427.123 344.763C427.389 345.072 427.733 345.305 428.118 345.439C428.504 345.573 428.917 345.603 429.318 345.526C429.719 345.449 430.092 345.267 430.4 345L480.12 301.8C481.218 300.832 481.89 299.471 481.988 298.016C482.085 296.561 481.6 295.131 480.64 294.04L436.32 243.68C435.356 242.598 434.671 241.36 434.339 240.103C434.007 238.846 434.042 237.62 434.44 236.56C434.627 236.08 435.44 235.88 436.88 235.96Z" fill="#A4B1CD"/>
<path d="M373.2 243.72C373.505 243.709 373.809 243.759 374.094 243.866C374.38 243.972 374.641 244.134 374.864 244.342C375.087 244.55 375.267 244.8 375.393 245.078C375.519 245.356 375.59 245.655 375.6 245.96L376.24 265.2C376.505 273.231 375.643 280.97 373.844 286.721C372.044 292.472 369.454 295.765 366.64 295.88L365.04 295.92C362.221 296.014 359.412 292.911 357.23 287.293C355.047 281.675 353.67 274.002 353.4 265.96L352.76 246.72C352.749 246.415 352.799 246.111 352.906 245.826C353.012 245.54 353.174 245.279 353.382 245.056C353.591 244.833 353.84 244.653 354.118 244.527C354.396 244.401 354.695 244.33 355 244.32L373.2 243.72ZM362.08 287.24H367.44C367.669 287.24 367.896 287.194 368.108 287.105C368.319 287.016 368.51 286.886 368.671 286.722C368.831 286.558 368.957 286.364 369.041 286.15C369.125 285.937 369.165 285.709 369.16 285.48L369.04 266.84C369.026 264.887 368.905 262.954 368.684 261.153C368.463 259.351 368.147 257.716 367.753 256.341C367.359 254.966 366.895 253.878 366.389 253.14C365.882 252.402 365.342 252.028 364.8 252.04H364.24C363.15 252.063 362.116 253.642 361.367 256.431C360.617 259.221 360.212 262.992 360.24 266.92L360.36 285.56C360.37 286.009 360.556 286.436 360.878 286.75C361.199 287.064 361.631 287.24 362.08 287.24Z" fill="#A4B1CD"/>
<path d="M362.08 287.24C361.631 287.24 361.199 287.064 360.878 286.751C360.556 286.437 360.37 286.009 360.36 285.56L360.24 266.92C360.212 262.992 360.617 259.221 361.367 256.432C362.116 253.642 363.15 252.063 364.24 252.04H364.8C365.342 252.028 365.882 252.402 366.389 253.14C366.896 253.878 367.359 254.966 367.753 256.341C368.147 257.716 368.463 259.351 368.684 261.153C368.905 262.954 369.026 264.887 369.04 266.84L369.16 285.48C369.165 285.709 369.125 285.937 369.041 286.151C368.957 286.364 368.831 286.558 368.671 286.722C368.51 286.886 368.319 287.016 368.108 287.105C367.896 287.194 367.669 287.24 367.44 287.24H362.08Z" fill="#A4B1CD"/>
<path d="M306.04 311.64C297.32 317.187 290.133 318.347 284.48 315.12C291.307 312.053 298.493 310.893 306.04 311.64Z" fill="#141D2B"/>
</g>
<defs>
<clipPath id="clip0_34_1485">
<rect width="512" height="512" fill="white"/>
</clipPath>
</defs>
</svg>
