<svg width="64" height="65" viewBox="0 0 64 65" fill="none" xmlns="http://www.w3.org/2000/svg">
<path fill-rule="evenodd" clip-rule="evenodd" d="M57.6358 35.5146C57.6358 33.9426 58.9132 32.6666 60.4852 32.6666C62.0572 32.6666 63.3332 33.9426 63.3332 35.5146V45.2426C63.3332 46.8146 62.4305 48.9933 61.3185 50.1053L52.2865 59.1373C51.1758 60.2493 48.9972 61.152 47.4238 61.152H7.78784C3.85717 61.152 0.666504 57.96 0.666504 54.0306V44.06C0.666504 42.488 1.9425 41.212 3.5145 41.212C5.0865 41.212 6.36384 42.488 6.36384 44.06V51.1813C6.36384 53.54 8.2785 55.4546 10.6358 55.4546H46.4838C47.2705 55.4546 48.3598 55.0026 48.9158 54.448L56.6292 46.7346C57.1852 46.1786 57.6358 45.0893 57.6358 44.3026V35.5146ZM6.36384 29.8186C6.36384 31.3906 5.0865 32.6666 3.5145 32.6666C1.9425 32.6666 0.666504 31.3906 0.666504 29.8186V20.0906C0.666504 18.5186 1.56917 16.34 2.68117 15.228L11.7132 6.19596C12.8238 5.08396 15.0025 4.18129 16.5758 4.18129H56.2118C60.1425 4.18129 63.3332 7.37329 63.3332 11.3026V21.2733C63.3332 22.8453 62.0572 24.1213 60.4852 24.1213C58.9132 24.1213 57.6358 22.8453 57.6358 21.2733V14.152C57.6358 11.7933 55.7212 9.87862 53.3638 9.87862H17.5158C16.7292 9.87862 15.6398 10.3306 15.0838 10.8853L7.3705 18.5986C6.8145 19.1546 6.36384 20.244 6.36384 21.0306V29.8186ZM25.1772 32.5733C25.1772 27.7102 23.0292 25.2786 18.7332 25.2786H16.1772V40.024H18.2372C22.8638 40.024 25.1772 37.5404 25.1772 32.5733ZM43.4852 34.82L47.7758 21.344H52.6252L44.9265 43.9893H39.6905L32.0078 21.344H36.8558L41.1158 34.82C41.3532 35.6146 41.5985 36.5413 41.8518 37.6C42.1043 38.6586 42.2616 39.3946 42.3238 39.808C42.4376 38.8577 42.8247 37.1951 43.4852 34.82ZM30.1638 32.4493C30.1638 36.1773 29.1029 39.0328 26.9812 41.016C24.8594 42.9982 21.7949 43.9893 17.7878 43.9893H11.3745V21.344H18.4852C22.1821 21.344 25.0527 22.3195 27.0972 24.2706C29.1416 26.2226 30.1638 28.9488 30.1638 32.4493Z" fill="#9FEF00"/>
</svg>
