<svg width="64" height="64" viewBox="0 0 64 64" fill="none" xmlns="http://www.w3.org/2000/svg">
<g clip-path="url(#clip0_62_4060)">
<path fill-rule="evenodd" clip-rule="evenodd" d="M34.488 25.3174L42.1654 32.9947H33.2374V42.408L26.8134 35.984L25.3174 34.4574V25.3174H34.488ZM33.3867 27.9867L35.7334 30.3334H30.5734V35.9734L28.7067 34.1067L27.9867 33.3734V27.9867H33.3867Z" fill="#A4B1CD"/>
<path fill-rule="evenodd" clip-rule="evenodd" d="M40.7974 31.6267L49.3827 40.212H40.212V49.3827L31.6267 40.7974V31.6267H40.7974ZM39.6934 34.2934L42.9467 37.5467H37.5467V42.9467L34.2934 39.6934V34.2934H39.6934Z" fill="#141D2B"/>
<path fill-rule="evenodd" clip-rule="evenodd" d="M51.6267 35.5867L52 35.9467L58.0533 42.0133C59.2933 38.8133 59.92 35.4267 59.9333 32C59.9333 30.896 60.8293 30 61.9333 30C63.0373 30 63.9333 30.896 63.9333 32C63.92 37 62.7333 41.9333 60.48 46.3867C60.1867 46.96 59.64 47.3467 59 47.4533C58.3733 47.56 57.7333 47.3467 57.28 46.8933L49.16 38.7867L48.5733 38.1867L48.0267 37.64C47.5333 37.1467 47.3333 36.4267 47.4933 35.7467C47.8 34.52 47.96 33.2533 47.96 32C47.96 27.76 46.28 23.7067 43.28 20.7067C40.2933 17.72 36.2267 16.04 32 16.04C27.7733 16.04 23.7067 17.72 20.72 20.72C17.72 23.7067 16.04 27.7733 16.04 32C16.04 36.2267 17.72 40.2933 20.7067 43.28C23.7067 46.28 27.76 47.96 32 47.96C33.2533 47.96 34.52 47.8 35.7467 47.4933C36.4267 47.3333 37.1467 47.5333 37.64 48.0267L38.24 48.6267L38.7867 49.16L46.92 57.2933C47.36 57.7467 47.5733 58.4 47.48 59.0267C47.3733 59.6667 46.9733 60.2133 46.4 60.4933C41.9333 62.76 37 63.9333 32 63.9333C23.5333 63.9333 15.4 60.5733 9.41332 54.5867C3.43998 48.6 0.0666504 40.4667 0.0666504 32C0.0666504 23.5333 3.43998 15.4 9.41332 9.41332C15.4 3.43998 23.5333 0.0666504 32 0.0666504C33.104 0.0666504 34 0.96265 34 2.06665C34 3.17065 33.104 4.06665 32 4.06665C24.6 4.06665 17.48 7.01332 12.2533 12.2533C7.01332 17.48 4.06665 24.6 4.06665 32C4.06665 39.4 7.01332 46.52 12.2533 51.7467C17.48 56.9867 24.6 59.9333 32 59.9333C35.4267 59.9333 38.8267 59.2933 42.0267 58.0667L35.9467 52L35.5867 51.6267C34.4 51.84 33.2 51.96 32 51.96C26.7067 51.96 21.6267 49.8533 17.8933 46.12C14.1467 42.3733 12.04 37.2933 12.04 32C12.04 26.7067 14.1467 21.6267 17.88 17.88C21.6267 14.1467 26.7067 12.04 32 12.04C37.2933 12.04 42.3733 14.1467 46.12 17.8933C49.8533 21.6267 51.96 26.7067 51.96 32C51.96 33.2 51.84 34.4 51.6267 35.5867ZM38.4667 4.74665C37.392 4.49598 36.7267 3.42132 36.98 2.34665C37.2333 1.27198 38.312 0.60265 39.3867 0.853317C45.16 2.22665 50.44 5.18665 54.6267 9.38665C58.8267 13.5733 61.7733 18.8533 63.1467 24.6267C63.3973 25.7013 62.7307 26.78 61.66 27.0333C60.5893 27.2867 59.5107 26.6213 59.2533 25.5467C58.0533 20.4933 55.48 15.88 51.8 12.2133C48.1333 8.53332 43.52 5.94665 38.4667 4.74665ZM46.24 40.84L60.6667 55.2667V60.6667H55.2667L40.9867 46.3867V40.84H46.24ZM47.332 38.168L47.44 38.2693L63.3333 54.1627V63.3333H54.1627L38.3227 47.4933V38.168H47.332Z" fill="#9FEF00"/>
</g>
<defs>
<clipPath id="clip0_62_4060">
<rect width="64" height="64" fill="white"/>
</clipPath>
</defs>
</svg>
