<svg width="64" height="65" viewBox="0 0 64 65" fill="none" xmlns="http://www.w3.org/2000/svg">
<g clip-path="url(#clip0_62_4054)">
<path fill-rule="evenodd" clip-rule="evenodd" d="M14.8185 12.3213C14.1171 12.2253 13.4665 11.8373 13.0185 11.2186C12.0958 9.94396 12.3865 8.15862 13.6678 7.23729C20.0811 2.61196 28.0211 0.578623 35.8811 1.55462C43.7318 2.53862 50.9318 6.45329 56.0225 12.5133C61.3718 18.8786 63.9758 27.12 63.2665 35.4093C62.5371 43.696 58.5505 51.3653 52.1865 56.7133C45.8211 62.0613 37.5785 64.6666 29.2905 63.956C21.0038 63.2266 13.3331 59.2413 7.98514 52.876C6.97314 51.672 7.12914 49.8706 8.33447 48.8586C9.49714 47.8813 11.2145 47.992 12.2398 49.0906C15.9571 38.664 22.5785 28.6373 28.1798 23.0106C24.0798 18.5933 19.3651 14.9466 14.5078 12.584C14.6105 12.4946 14.7131 12.4053 14.8185 12.3213ZM19.6238 55.1626C22.7251 56.8853 26.1838 57.9533 29.7838 58.2706C35.0038 58.716 40.2011 57.5586 44.6851 54.9906C42.4238 45.3093 38.2785 36.332 33.0931 29.0573C27.5478 35.0346 21.9011 45.444 19.6238 55.1626ZM52.6651 47.9226C55.4425 44.152 57.1611 39.6573 57.5798 34.9146C58.1585 28.1333 56.0318 21.3906 51.6558 16.1826C47.4918 11.2253 41.6065 8.01196 35.1785 7.21196C31.5398 6.75862 27.8798 7.09729 24.4345 8.15862C34.7465 14.48 47.5811 31.7626 52.6651 47.9226ZM6.9238 38.1786C7.25847 39.716 6.2838 41.2373 4.74647 41.5733C3.20914 41.9093 1.6878 40.9333 1.3518 39.396C-0.0735296 32.8453 0.633137 25.9933 3.37047 19.8746C4.00914 18.4333 5.69714 17.784 7.13447 18.4253C8.57314 19.0666 9.22247 20.7586 8.5838 22.2C6.3358 27.2173 5.7598 32.8053 6.9238 38.1786Z" fill="#9FEF00"/>
</g>
<defs>
<clipPath id="clip0_62_4054">
<rect width="64" height="64" fill="white" transform="translate(0 0.666626)"/>
</clipPath>
</defs>
</svg>
