<svg width="64" height="65" viewBox="0 0 64 65" fill="none" xmlns="http://www.w3.org/2000/svg">
<g clip-path="url(#clip0_62_4049)">
<path d="M30.7735 20.6666C28.2402 21.9933 27.1335 24.3906 25.9869 26.6506C25.2575 25.6653 25.0722 24.284 24.7895 23.06C22.5509 26.0093 21.5629 30.9093 20.6615 33.856C19.3855 38.048 17.7602 40.62 15.4375 42.1173C14.0589 43.008 12.8215 43.464 10.1482 44.0693C9.4722 44.2706 8.6322 44.4586 8.33887 44.5253C9.16953 46.78 10.3282 48.8746 11.7562 50.7506C12.1002 51.2026 12.4602 51.6413 12.8362 52.068C12.8775 52.116 12.9215 52.1613 12.9642 52.208C14.0202 53.388 15.1962 54.4546 16.4669 55.404C16.6189 55.5173 16.7655 55.636 16.9202 55.7453C17.2735 55.9973 17.6389 56.2346 18.0069 56.468C18.2122 56.596 18.4202 56.7226 18.6309 56.8453C18.9909 57.0586 19.3509 57.2666 19.7229 57.4613C19.9682 57.5893 20.2215 57.7013 20.4735 57.8213C21.0535 58.0986 21.6469 58.352 22.2535 58.5826C22.6015 58.7146 22.9482 58.848 23.3029 58.964C23.6242 59.0693 23.9509 59.16 24.2775 59.2506C24.6335 59.3506 24.9895 59.4413 25.3509 59.5253C25.7829 59.624 26.2135 59.728 26.6562 59.8026C27.8655 60.012 29.1069 60.1306 30.3735 60.1506H30.3842C30.5135 60.1533 30.6415 60.16 30.7735 60.16C31.1309 60.16 31.4842 60.1493 31.8375 60.136C33.2295 57.972 33.4095 54.592 32.9429 52.608C32.6589 51.4853 31.9215 49.468 31.9709 49.3893C32.0202 49.3106 33.2215 49.432 34.2442 49.432C35.4535 49.432 36.3402 49.476 36.9802 49.2813C37.5215 49.1173 38.1682 48.8506 38.5535 48.8706C40.2602 48.956 42.4229 48.1813 42.9949 46.6626C43.1709 46.1893 43.4775 45.5813 43.6735 45.3106C43.9962 44.8666 44.0069 44.7413 43.8002 44.044C43.5082 43.0573 42.9135 42.2386 41.6549 41.088C40.7015 40.2186 40.3962 40.1293 40.3482 39.1946C40.3135 38.5106 40.4975 38.0306 40.1255 37.6813C39.7055 37.284 38.4655 37.5386 38.3962 37.532C37.9549 37.0173 37.5335 36.4813 38.3469 35.7386C38.9629 35.176 39.0749 34.9653 39.0749 34.3506C39.0749 33.7453 38.9642 33.5293 38.4309 33.0613C38.0789 32.7533 37.7002 32.5013 37.5869 32.5013C37.4762 32.5013 36.9082 32.0493 36.3309 31.4986C35.2082 30.4306 34.3402 30.2413 33.4669 30.2413C32.7589 30.2413 31.9709 30.0666 31.9709 29.044C32.9109 25.6386 36.5442 23.8466 37.9549 23.06C34.3815 22.5533 31.9482 23.3013 29.5775 25.4533C29.4655 24.2026 30.6415 21.4746 30.7735 20.6666Z" fill="#141D2B" stroke="#A4B1CD" stroke-width="4"/>
<path fill-rule="evenodd" clip-rule="evenodd" d="M57.1439 41.8386C56.6385 43.22 57.3505 44.7506 58.7319 45.256C60.1132 45.7613 61.6439 45.0493 62.1492 43.668C63.3132 40.5066 63.9639 37.18 64.0812 33.8226C64.4692 22.696 59.0479 12.1266 49.7639 5.9853C44.8612 2.73196 39.1345 0.891964 33.2585 0.686631C22.1319 0.297298 11.5625 5.71863 5.42121 15.004C2.16921 19.9066 0.327874 25.6186 0.12254 31.5093C-0.26546 42.636 5.15454 53.204 14.4399 59.3453C19.3425 62.5986 25.0545 64.4386 30.9452 64.6453C38.4599 64.9066 45.8412 62.5226 51.7785 57.9146C52.9372 57.0053 53.1452 55.324 52.2439 54.1613C51.3412 53 49.6625 52.7946 48.4972 53.704C43.5465 57.5466 37.4065 59.5333 31.1305 59.3146C26.2412 59.144 21.4772 57.6173 17.3839 54.8986C9.65054 49.772 5.12921 40.9693 5.45321 31.6946C5.62387 26.7906 7.15054 22.0413 9.86787 17.948C14.9945 10.2146 23.7985 5.6933 33.0719 6.01596C37.9625 6.18663 42.7252 7.71463 46.8199 10.432C54.5519 15.5586 59.0745 24.3613 58.7505 33.636C58.6532 36.4346 58.1159 39.204 57.1439 41.8386Z" fill="#9FEF00"/>
</g>
<defs>
<clipPath id="clip0_62_4049">
<rect width="64" height="64" fill="white" transform="translate(0 0.666626)"/>
</clipPath>
</defs>
</svg>
