<svg width="64" height="65" viewBox="0 0 64 65" fill="none" xmlns="http://www.w3.org/2000/svg">
<path fill-rule="evenodd" clip-rule="evenodd" d="M19.1307 31.34H26.624L29.3187 28.6453L26.624 25.9493H19.104C14.3067 25.9773 9.69869 27.904 6.31602 31.3133C2.92002 34.7226 1.02002 39.3306 1.02002 44.1413C1.02002 48.9653 2.93335 53.6013 6.34269 57.0106C9.75202 60.42 14.388 62.3333 19.212 62.3333H29.3187L21.9067 56.9426H19.212C15.816 56.9426 12.5547 55.596 10.156 53.1973C7.75869 50.7986 6.41069 47.5373 6.41069 44.1413C6.41069 40.7586 7.74402 37.512 10.1294 35.1133C12.5147 32.7146 15.7627 31.3533 19.1307 31.34ZM37.4067 54.6053L31.3094 50.2506L27.5494 50.8773L28.176 54.636L34.2947 59.0066C38.2147 61.7733 43.0854 62.884 47.8187 62.076C52.564 61.2746 56.788 58.6293 59.584 54.7146C62.388 50.7893 63.5254 45.904 62.7334 41.1493C61.94 36.3933 59.2814 32.1413 55.3547 29.3373L50.0294 25.9493L48.7734 31.476L52.2227 33.724C54.9854 35.6973 56.856 38.6893 57.4134 42.036C57.9707 45.3813 57.172 48.8186 55.1987 51.5813C53.232 54.3333 50.2587 56.2013 46.924 56.7666C43.5894 57.332 40.156 56.552 37.4067 54.6053ZM42.3027 24.2053L40.4947 31.476L42.4587 34.7413L45.7254 32.7773L47.54 25.48C48.672 20.8186 47.9147 15.8813 45.424 11.776C42.9347 7.65729 38.9214 4.70129 34.2534 3.53996C29.572 2.37463 24.6107 3.11196 20.48 5.59729C16.348 8.08263 13.372 12.1186 12.2067 16.8013C11.8 18.6973 11.26 22.7093 11.632 25.192C13.2907 24.344 15.076 23.772 16.9387 23.4226C16.9107 21.6506 17.112 19.912 17.4374 18.1026C18.2574 14.8066 20.3534 11.968 23.26 10.2186C26.1667 8.47063 29.656 7.95063 32.952 8.77063C36.2334 9.58663 39.0627 11.6653 40.8147 14.5586C42.5667 17.4533 43.104 20.9333 42.3027 24.2053Z" fill="#9FEF00"/>
</svg>
