<svg width="64" height="64" viewBox="0 0 64 64" fill="none" xmlns="http://www.w3.org/2000/svg">
<g clip-path="url(#clip0_62_4025)">
<path fill-rule="evenodd" clip-rule="evenodd" d="M17.9013 20.8001L25.2973 25.7361L17.9013 30.6627V38.2654L36.7 25.7361L17.9013 13.1974V20.8001ZM59.4133 16.8747L54.144 20.3814C56.0427 23.9614 57.0466 27.9481 57.0666 32.0001C57.0666 38.6481 54.4253 45.0241 49.7253 49.7254C45.024 54.4254 38.648 57.0667 32 57.0667C24.5333 57.0507 17.4626 53.7067 12.7133 47.9454L7.46265 51.4401C13.2066 58.6761 22.064 63.3334 32 63.3334C49.2773 63.3334 63.3333 49.2774 63.3333 32.0001C63.3333 26.5147 61.9013 21.3641 59.4133 16.8747Z" fill="#9FEF00"/>
<path fill-rule="evenodd" clip-rule="evenodd" d="M46.1013 50.7987V43.1961L38.7066 38.2694L46.1013 33.3347V25.7321L27.304 38.2694L46.1013 50.7987ZM32 0.666748C14.7226 0.666748 0.666626 14.7227 0.666626 32.0001C0.666626 37.0987 1.89463 41.9148 4.06663 46.1734L9.35996 42.6521C7.77729 39.3227 6.94929 35.6854 6.93329 32.0001C6.93329 25.3521 9.57463 18.9761 14.2746 14.2747C18.976 9.57475 25.352 6.93341 32 6.93341C39.0853 6.94941 45.8333 9.96275 50.5733 15.2294L55.8546 11.7161C50.104 4.96141 41.544 0.666748 32 0.666748Z" fill="#A4B1CD"/>
</g>
<defs>
<clipPath id="clip0_62_4025">
<rect width="64" height="64" fill="white"/>
</clipPath>
</defs>
</svg>
