<svg width="64" height="64" viewBox="0 0 64 64" fill="none" xmlns="http://www.w3.org/2000/svg">
<path fill-rule="evenodd" clip-rule="evenodd" d="M20.1865 7.44C21.7332 8.41333 22.6665 10.12 22.6665 11.9467C22.6665 13.36 22.1065 14.72 21.1065 15.72C20.1065 16.72 18.7465 17.28 17.3332 17.28C15.9198 17.28 14.5598 16.72 13.5598 15.72C12.5598 14.72 11.9998 13.36 11.9998 11.9467C11.9998 10.5333 12.5598 9.17333 13.5598 8.17333C14.5598 7.17333 15.9198 6.61333 17.3332 6.61333C18.0265 6.61333 18.7065 6.74667 19.3465 7L20.1865 7.44ZM21.3332 30.6667V34.6667H23.9998H30.6665H35.3332C40.8878 34.6667 45.3332 30.2213 45.3332 24.6667C45.3332 19.112 40.8878 14.6667 35.3332 14.6667H30.6665C29.9305 14.6667 29.3332 14.0693 29.3332 13.3333C29.3332 12.5973 29.9305 12 30.6665 12H35.3332C42.3292 12 47.9998 17.6707 47.9998 24.6667C47.9998 31.6627 42.3292 37.3333 35.3332 37.3333H21.3332V52C21.3585 53.8027 18.6412 53.8027 18.6665 52V26.6667C18.6665 25.9307 19.2638 25.3333 19.9998 25.3333C20.7358 25.3333 21.3332 25.9307 21.3332 26.6667V28C21.3332 28.8889 21.3332 29.7778 21.3332 30.6667ZM37.1332 24.6667C37.1332 25.1467 36.9465 25.6 36.5998 25.9333C36.2665 26.28 35.8132 26.4667 35.3332 26.4667H32.1998V22.8667H35.3332C35.8132 22.8667 36.2665 23.0533 36.5998 23.4C36.9465 23.7333 37.1332 24.1867 37.1332 24.6667ZM41.5332 24.6667C41.5332 26.3067 40.8798 27.8933 39.7198 29.0533C38.5598 30.2133 36.9732 30.8667 35.3332 30.8667H29.1332C28.3972 30.8667 27.7998 30.2693 27.7998 29.5333V19.8C27.7998 19.064 28.3972 18.4667 29.1332 18.4667H35.3332C36.9732 18.4667 38.5598 19.12 39.7198 20.28C40.8798 21.44 41.5332 23.0267 41.5332 24.6667ZM44.3332 39.1787L44.3198 39.1867L45.7465 41.44L52.8265 51.76L52.8398 51.7733C53.2132 52.36 53.4265 53.0533 53.4265 53.76C53.4132 55.0667 52.7065 56.2533 51.5598 56.8933C51.5598 56.8933 51.5598 56.8933 51.5465 56.9067L51.1598 57.12C50.5065 57.4933 49.7598 57.68 49.0132 57.6667C47.4932 57.6933 46.0532 56.9467 45.1998 55.68L36.0932 42.6133H25.3332V53.28C25.3332 54.3333 24.9065 55.36 24.1598 56.1067C23.4132 56.8533 22.3998 57.28 21.3332 57.28H18.6665C17.5998 57.28 16.5865 56.8533 15.8398 56.1067C15.0932 55.36 14.6665 54.3333 14.6665 53.28V22.272C15.5305 22.4973 16.4265 22.6133 17.3332 22.6133C20.1598 22.6133 22.8798 21.48 24.8798 19.48C26.8798 17.48 27.9998 14.7733 27.9998 11.9467C27.9998 10.5747 27.7358 9.23867 27.2412 8H31.9865H31.9998C36.9065 7.96 41.6532 9.02667 45.2798 12.3333C46.9465 13.8533 48.2932 15.6933 49.2398 17.7333C50.1732 19.8 50.6665 22.04 50.6665 24.2933C50.6798 29.08 48.6932 33.64 45.1732 36.88L43.9998 38.68L44.3332 39.1787ZM50.5465 38.988L57.3198 48.88C58.2532 50.3467 58.7598 52.04 58.7598 53.76C58.7465 57 56.9865 59.9733 54.1732 61.5467L53.7865 61.76C53.7865 61.7733 53.7732 61.7733 53.7732 61.7733C52.3198 62.5867 50.6932 63.0133 49.0265 63C45.7198 63.0267 42.6265 61.4 40.7732 58.6533C40.7732 58.6533 40.7732 58.64 40.7598 58.64L33.2398 47.9467H30.6665V53.28C30.6665 55.7467 29.6798 58.12 27.9332 59.88C26.1865 61.6267 23.8132 62.6133 21.3332 62.6133H18.6665C16.1865 62.6133 13.8132 61.6267 12.0665 59.88C10.3198 58.12 9.33317 55.7467 9.33317 53.28V21.4533V20V18.9973C7.6185 17.056 6.6665 14.552 6.6665 11.9467C6.6665 9.12 7.7865 6.4 9.7865 4.4C11.7865 2.4 14.5065 1.28 17.3332 1.28C18.7732 1.28 20.1998 1.56 21.5198 2.13333C21.5865 2.16 21.6398 2.18667 21.6932 2.21333L22.5772 2.66667H23.9865H26.4932H31.9732C38.2132 2.62667 44.2665 4.18667 48.8798 8.38667C51.0665 10.4 52.8398 12.8133 54.0798 15.5067C55.3465 18.2667 55.9998 21.2533 55.9998 24.2933C56.0118 29.7133 54.0585 34.9333 50.5465 38.988ZM48.8105 51.3093L48.8118 51.3107C49.2012 51.936 49.0092 52.7587 48.3852 53.148L48.3812 53.1507C47.7572 53.54 46.9345 53.3493 46.5452 52.724L46.5438 52.7227L39.1838 41.7627L39.1825 41.76C38.7932 41.136 38.9838 40.3133 39.6078 39.924L39.6118 39.9213C40.2358 39.532 41.0598 39.7227 41.4492 40.3467L41.4505 40.3493L48.8105 51.3093Z" fill="#9FEF00"/>
</svg>
