<svg width="72" height="71" viewBox="0 0 72 71" fill="none" xmlns="http://www.w3.org/2000/svg">
<g filter="url(#filter0_d_17_1053)">
<path fill-rule="evenodd" clip-rule="evenodd" d="M46.5625 14.632C46.3518 14.704 46.1425 14.7813 45.9332 14.8586C42.4705 16.152 39.1438 17.7746 36.0025 19.712C33.1572 17.96 30.1585 16.4626 27.0425 15.2413C27.5878 14.5906 28.1385 13.9426 28.7012 13.308C29.5678 12.3186 30.5105 11.4066 31.5145 10.5546C32.3972 9.83996 33.3398 9.21596 34.3585 8.69863C35.1798 8.27329 36.0478 7.95329 36.9292 7.69463C38.9985 8.25729 40.9452 9.21596 42.6332 10.54C44.1158 11.728 45.4385 13.1053 46.5625 14.632ZM52.6638 12.7293C55.8638 11.876 59.1212 11.2506 62.4212 10.8586C62.4812 10.844 62.5265 10.844 62.5878 10.844L62.7852 10.828C62.8465 10.828 62.9225 10.828 62.9985 10.828C64.1545 10.828 65.2652 11.3 66.0705 12.1213C66.8918 12.9426 67.3332 14.068 67.3332 15.224V34.9813C67.3332 38.5093 66.3905 41.9773 64.5958 45.004C63.0598 47.6506 61.2492 50.1453 59.2118 52.4266C57.3558 54.5253 55.2412 56.3653 52.9292 57.948C50.7398 59.4226 48.3372 60.5786 45.8118 61.3693C43.3025 62.1453 40.6865 62.54 38.0705 62.54C34.3585 62.4946 30.7092 61.796 27.2558 60.472C26.7092 60.2626 26.0678 59.9613 25.3465 59.5733C23.1292 58.796 21.0158 57.7373 19.0705 56.4266C16.7585 54.844 14.6438 53.004 12.7878 50.9053C10.7505 48.624 8.93984 46.1293 7.40384 43.4826C5.60917 40.456 4.6665 36.9893 4.6665 33.46V15.224C4.6665 14.068 5.10784 12.9426 5.92917 12.1213C6.7345 11.3 7.84517 10.828 9.00117 10.828C9.07717 10.828 9.15317 10.828 9.2145 10.828L9.41184 10.844C9.47317 10.844 9.5185 10.844 9.5785 10.8586C13.4345 11.316 17.2332 12.0933 20.9478 13.1813C21.9638 11.8373 23.0238 10.536 24.1385 9.27729C25.2185 8.05996 26.3745 6.91996 27.6212 5.88529C28.8532 4.86663 30.1918 3.98396 31.6065 3.26929C33.2785 2.41729 35.0585 1.80929 36.8985 1.45996C40.3665 2.11329 43.6372 3.58929 46.4198 5.76396C48.8705 7.73729 50.9798 10.0893 52.6638 12.7293ZM14.8972 43.7906C16.5852 39.9173 18.7292 36.26 21.2785 32.8826C23.9545 29.3893 27.0398 26.24 30.4732 23.516C28.3652 22.3893 26.1825 21.3986 23.9372 20.5626C19.6785 18.9653 15.2518 17.8253 10.7505 17.156V33.46C10.7505 35.9093 11.4038 38.312 12.6518 40.4106C13.3318 41.5786 14.0718 42.716 14.8972 43.7906ZM21.0998 50.4013C23.7025 52.1853 26.4985 53.668 29.4305 54.7986C32.1998 55.864 35.1345 56.4266 38.1012 56.4573C40.0932 56.4573 42.0852 56.1533 44.0012 55.56C45.9638 54.9506 47.8198 54.0533 49.5225 52.8973C51.4092 51.62 53.1425 50.0986 54.6638 48.38C56.4438 46.404 58.0092 44.228 59.3478 41.932C60.5958 39.8333 61.2492 37.4293 61.2492 34.9813V17.156C56.7478 17.8253 52.3212 18.9653 48.0625 20.5626C43.6518 22.2053 39.4852 24.4413 35.6825 27.2093C32.0625 29.856 28.8385 33.004 26.1305 36.5626C23.3932 40.1826 21.1718 44.1826 19.5598 48.4266C19.5292 48.4866 19.5145 48.5626 19.5145 48.6386C19.5145 48.7893 19.5505 48.9493 19.6092 49.0946C20.0798 49.5626 20.5878 49.984 21.0998 50.4013Z" fill="#9FEF00"/>
</g>
<defs>
<filter id="filter0_d_17_1053" x="0" y="0" width="72" height="72" filterUnits="userSpaceOnUse" color-interpolation-filters="sRGB">
<feFlood flood-opacity="0" result="BackgroundImageFix"/>
<feColorMatrix in="SourceAlpha" type="matrix" values="0 0 0 0 0 0 0 0 0 0 0 0 0 0 0 0 0 0 127 0" result="hardAlpha"/>
<feOffset dy="4"/>
<feGaussianBlur stdDeviation="2"/>
<feComposite in2="hardAlpha" operator="out"/>
<feColorMatrix type="matrix" values="0 0 0 0 0 0 0 0 0 0 0 0 0 0 0 0 0 0 0.25 0"/>
<feBlend mode="normal" in2="BackgroundImageFix" result="effect1_dropShadow_17_1053"/>
<feBlend mode="normal" in="SourceGraphic" in2="effect1_dropShadow_17_1053" result="shape"/>
</filter>
</defs>
</svg>
