<svg width="64" height="64" viewBox="0 0 64 64" fill="none" xmlns="http://www.w3.org/2000/svg">
<g clip-path="url(#clip0_62_4007)">
<path fill-rule="evenodd" clip-rule="evenodd" d="M26.4853 30.6627H28.824C34.5067 30.6627 36.8467 28.6573 36.8467 25.6493C36.8467 22.3067 34.5067 20.9693 31.164 20.9693C29.828 20.9693 28.156 20.9693 26.4853 21.304V30.6627ZM40.8573 43.0307H44.2V45.704H39.1867L30.8307 33.0027H26.4853V42.696H30.8307V45.3693H19.8V42.696H23.4773V21.304L19.8 20.636V18.296C21.1373 18.6307 22.4733 18.964 23.8107 18.964C26.1507 18.964 28.4907 18.296 30.8307 18.296C35.176 18.296 39.52 20.3013 39.52 25.3147C39.52 29.3267 37.1813 31.6653 33.504 32.668L40.8573 43.0307ZM23.7067 57.3467C22.308 56.8907 20.8027 57.6547 20.3467 59.0533C19.8907 60.452 20.6547 61.9573 22.0533 62.4133C25.2533 63.4667 28.6 64 31.96 64C43.0933 64 53.4667 58.2133 59.28 48.72C62.36 43.7067 64 37.92 64 32.04C64 20.9067 58.2133 10.5333 48.72 4.72C43.7067 1.64 37.9333 0 32.04 0C20.9067 0 10.5333 5.78667 4.72 15.28C1.64 20.2933 0 26.0667 0 31.96C0 39.48 2.64 46.7733 7.45333 52.5467C8.40267 53.672 10.0907 53.8213 11.22 52.88C12.3493 51.9387 12.496 50.2533 11.5467 49.12C7.53333 44.3067 5.33333 38.24 5.33333 31.96C5.33333 27.0667 6.69333 22.2533 9.26667 18.0667C14.12 10.16 22.76 5.33333 32.04 5.33333C36.9467 5.33333 41.7467 6.69333 45.9333 9.26667C53.84 14.12 58.6667 22.76 58.6667 32.04C58.6667 36.9333 57.3067 41.7467 54.7333 45.9333C49.88 53.84 41.24 58.6667 31.96 58.6667C29.16 58.6667 26.3733 58.2267 23.7067 57.3467Z" fill="#9FEF00"/>
</g>
<defs>
<clipPath id="clip0_62_4007">
<rect width="64" height="64" fill="white"/>
</clipPath>
</defs>
</svg>
