<svg width="512" height="512" viewBox="0 0 512 512" fill="none" xmlns="http://www.w3.org/2000/svg">
<path d="M256.576 21.7586C128.318 21.7586 24.3171 127.152 24.3171 257.143C24.3171 261.59 24.731 265.925 24.9856 270.309C31.7525 146.486 132.702 48.0967 256.573 48.0967C380.454 48.0967 481.384 146.483 488.178 270.309C488.402 265.925 488.821 261.59 488.821 257.143C488.808 127.156 384.836 21.7586 256.576 21.7586Z" fill="#9FEF00"/>
<path d="M477.382 334.779C485.552 311.025 489.995 285.536 489.995 259.005C489.995 130.324 385.678 26.011 256.995 26.011C128.316 26.011 24 130.324 24 259.005C24 387.689 128.314 492 256.995 492C293.356 492 327.765 483.669 358.434 468.814C373.656 480.665 392.769 487.752 413.509 487.752C463.058 487.752 503.364 447.45 503.364 397.902C503.362 373.319 493.434 351.017 477.382 334.779Z" fill="#9FEF00"/>
<g opacity="0.4">
<path d="M256.186 59.8883C366.141 59.8883 455.641 147.134 459.351 256.19C459.394 254.482 459.533 252.804 459.533 251.092C459.533 138.783 368.523 47.7468 256.186 47.7468C143.899 47.7468 52.8354 138.79 52.8354 251.092C52.8354 253.13 52.9393 255.146 52.9876 257.15C56.2104 147.672 145.931 59.8883 256.186 59.8883Z" fill="white"/>
</g>
<path d="M412.831 470.271C373.164 470.271 340.895 437.997 340.895 398.333C340.895 358.66 373.168 326.387 412.831 326.387C452.502 326.387 484.771 358.665 484.771 398.333C484.767 437.997 452.501 470.271 412.831 470.271Z" fill="white"/>
<path opacity="0.6" d="M336.43 445.098C335.515 443.932 334.579 442.569 333.734 441.002C309.798 450.932 284.528 456.503 256.994 456.503C201.214 456.503 150.711 434.01 114.025 397.617C106.502 389.115 121.624 356.535 121.624 356.535C121.624 356.535 108.319 367.867 104.833 373.543C98.2057 384.383 101.748 395.421 108.595 404.039C145.706 444.434 197.807 468.62 256.998 468.62C286.041 468.62 313.655 462.526 338.641 451.548C339.171 451.313 339.692 451.091 340.214 450.858C338.885 448.982 337.617 447.072 336.43 445.098Z" fill="white"/>
<path d="M88.3355 285.341C83.6564 253.171 83.5725 191.363 135.883 139.075C170.036 104.916 214.595 87.0029 261.349 88.6171C304.588 90.0963 346.498 108.069 376.329 137.891C408.453 170.007 426.359 212.574 426.754 257.748C426.764 258.272 426.764 258.78 426.764 259.305C426.764 276.39 424.21 293.112 419.297 309.051C430.84 309.88 441.784 312.88 451.713 317.683C457.528 298.362 460.465 278.107 460.334 257.438C459.826 203.424 438.456 152.529 400.085 114.156C364.296 78.3914 314.181 56.8334 262.512 55.0727C206.358 53.1271 152.963 74.5215 112.159 115.332C73.6838 153.803 52.8696 204.963 52.8696 259.117C52.8696 269.387 53.6177 279.749 55.1338 290.181C57.6767 307.606 62.9304 325.283 70.7725 342.692C74.5741 351.138 84.5126 354.899 92.9549 351.111C101.416 347.289 105.183 337.361 101.373 328.911C94.8991 314.548 90.3949 299.49 88.3355 285.341Z" fill="#141D2B"/>
<path d="M324.93 415.268C260.815 443.508 187.437 426.039 141.275 384.189L191.788 333.66C201.477 325.525 206.279 310.252 197.044 295.616C196.744 295.159 168.731 248.142 206.617 210.243C237.666 179.196 282.257 185.315 305.733 208.81C319.132 222.203 326.58 239.634 326.71 257.907C326.71 258.053 326.71 258.231 326.71 258.368C326.71 276.93 318.98 294.855 304.914 308.93C287.893 325.926 264.105 332.309 239.638 326.398C230.637 324.209 221.566 329.756 219.385 338.746C217.216 347.757 222.744 356.828 231.739 359.012C267.319 367.617 303.53 357.786 328.639 332.664C349.24 312.072 360.607 285.501 360.248 257.674C360.08 230.538 349.138 204.734 329.467 185.069C294.576 150.172 228.616 140.8 182.902 186.499C137.446 231.966 154.813 289.08 167.095 310.872L112.927 365.063C100.431 377.55 103.09 393.726 111.961 402.579C172.885 463.497 262.798 478.057 337.183 446.139C331.306 436.858 327.074 426.431 324.93 415.268Z" fill="#141D2B"/>
<path opacity="0.15" d="M322.416 398.64C322.416 348.819 362.796 308.44 412.612 308.44C437.384 308.44 459.818 318.425 476.118 334.593C484.599 310.145 489.232 283.85 489.232 256.459C489.232 235.112 486.406 214.411 481.148 194.755C437.068 260.555 369.652 309.415 287.829 326.799C192.037 347.134 96.7594 320.041 24.5391 260.967C26.9099 388.947 130.005 491.973 256.86 491.973C292.532 491.973 326.324 483.821 356.526 469.257C335.749 452.731 322.416 427.251 322.416 398.64Z" fill="#141D2B"/>
<path d="M399.516 410.527L447.83 371.099L453.839 377.102L399.512 439.769L371.827 403.738L384.103 390.94L399.516 410.527Z" fill="#141D2B"/>
</svg>
