<svg width="72" height="72" viewBox="0 0 72 72" fill="none" xmlns="http://www.w3.org/2000/svg">
<g clip-path="url(#clip0_17_1058)" filter="url(#filter0_d_17_1058)">
<path fill-rule="evenodd" clip-rule="evenodd" d="M22.964 43.7217C20.9467 43.0084 19.8013 41.083 20.3147 39.2684C20.6 38.2604 21.3533 37.4337 22.5147 36.855C23.2907 36.467 23.488 36.2964 23.404 36.079C22.604 34.0217 23.1147 31.6284 24.684 30.0777C26.7933 27.9937 30.1533 27.8697 32.3707 29.7937C32.6827 30.0644 33.0093 30.2857 33.0947 30.2857C33.18 30.2857 33.3787 29.8844 33.5347 29.3937C34.12 27.5617 35.2107 26.103 36.7493 25.0937C41.0413 22.2777 46.6147 23.7524 48.848 28.2937C49.4987 29.6177 49.548 29.819 49.608 31.3764C49.656 32.6004 49.5987 33.2924 49.3947 33.9857C49.2427 34.5057 49.1627 34.975 49.2173 35.031C49.2733 35.0857 49.576 34.8537 49.8893 34.515C50.4973 33.859 50.5493 33.8524 51.968 34.275C53.344 34.6857 54.6573 35.999 55.1373 37.447C55.4627 38.4284 55.388 40.0017 54.972 40.9337C54.5533 41.871 53.4827 43.011 52.552 43.5097C51.916 43.8497 51.6467 43.8684 46.804 43.919C43.5907 43.9524 41.5067 43.907 41.1333 43.799C39.604 43.3524 38.4333 41.679 38.4333 39.9377C38.4333 37.8497 40.1253 36.047 42.084 36.047H42.7053L42.0947 36.6004C41.1293 37.4737 40.8867 38.5124 41.396 39.575C41.6987 40.2044 42.72 40.8204 43.46 40.8204C44.2067 40.8204 45.2613 40.2404 45.644 39.6204C46.0813 38.9137 46.076 37.4884 45.632 36.3177C45.156 35.059 44.1773 34.0284 42.8427 33.379C41.8613 32.9017 41.5733 32.8377 40.3947 32.8417C38.0653 32.8497 37.8507 33.0004 32.1573 38.5777C27.836 42.8124 27.1293 43.439 26.4093 43.6764C25.4387 43.9977 23.808 44.019 22.964 43.7217ZM15.7293 30.3764C15.2307 29.883 15.2133 29.479 15.6667 28.9097C15.9333 28.5737 16.1587 28.475 16.6587 28.475C17.2747 28.475 17.3107 28.447 17.416 27.8577C17.6027 26.8164 18.3347 25.6617 19.1213 25.1684C20.1133 24.5457 21.2747 24.2884 22.0867 24.5097C22.4373 24.6044 22.7813 24.627 22.852 24.5577C22.9213 24.4884 23.056 24.027 23.1507 23.531C23.5093 21.647 24.7787 19.9604 26.5 19.0777C27.524 18.5537 29.9853 18.4324 31.1107 18.8524C32.9547 19.539 34.2253 20.8564 34.8107 22.691C34.9947 23.2657 35.144 23.8337 35.144 23.9524C35.144 24.0724 34.8 24.5644 34.3787 25.047C33.9573 25.5297 33.384 26.319 33.1053 26.8017C32.7427 27.4297 32.5227 27.6537 32.3307 27.591C32.1827 27.543 31.6133 27.3444 31.0627 27.1497C29.572 26.6217 27.4693 26.7377 25.9747 27.4284C24.6947 28.0204 23.832 28.7284 23.1107 29.7764C22.824 30.1924 22.5093 30.5884 22.412 30.6537C22.3147 30.7204 20.8627 30.7764 19.1867 30.7777C16.1707 30.7804 16.1347 30.7764 15.7293 30.3764ZM33.8147 57.627C35.4107 57.7604 36.6013 59.1417 36.4707 60.7097C36.3387 62.279 34.9307 63.4457 33.3253 63.3137C25.288 62.6577 17.7867 59.0404 12.3427 53.187C6.91199 47.335 3.92799 39.679 4.00132 31.7657C4.07865 23.4524 7.52665 15.4964 13.5733 9.66038C19.6347 3.83904 27.8093 0.603043 36.2893 0.679043C44.7693 0.75371 52.884 4.13371 58.836 10.0617C64.7747 16.0044 68.076 24.0204 67.9987 32.3324C67.984 33.907 66.6693 35.1737 65.064 35.159C63.4573 35.1444 62.1667 33.855 62.1813 32.2817C62.244 25.479 59.54 18.9244 54.6827 14.0617C49.8107 9.21238 43.1747 6.44438 36.2373 6.38171C29.2987 6.32038 22.612 8.97104 17.652 13.7324C12.7053 18.5084 9.88265 25.015 9.81865 31.8177C9.75999 38.291 12.1893 44.559 16.64 49.347C21.0907 54.135 27.2307 57.0844 33.8147 57.627ZM57.9933 44.1897C58.7387 42.803 60.468 42.283 61.8547 43.027C63.2413 43.771 63.7613 45.5017 63.0173 46.8884C59.8413 52.791 54.8493 57.5377 48.792 60.407C47.368 61.087 45.6653 60.483 44.9893 59.0604C44.3133 57.6377 44.92 55.931 46.3427 55.251C51.312 52.9004 55.3827 49.0297 57.9933 44.1897Z" fill="#9FEF00"/>
</g>
<defs>
<filter id="filter0_d_17_1058" x="0" y="0" width="72" height="72" filterUnits="userSpaceOnUse" color-interpolation-filters="sRGB">
<feFlood flood-opacity="0" result="BackgroundImageFix"/>
<feColorMatrix in="SourceAlpha" type="matrix" values="0 0 0 0 0 0 0 0 0 0 0 0 0 0 0 0 0 0 127 0" result="hardAlpha"/>
<feOffset dy="4"/>
<feGaussianBlur stdDeviation="2"/>
<feComposite in2="hardAlpha" operator="out"/>
<feColorMatrix type="matrix" values="0 0 0 0 0 0 0 0 0 0 0 0 0 0 0 0 0 0 0.25 0"/>
<feBlend mode="normal" in2="BackgroundImageFix" result="effect1_dropShadow_17_1058"/>
<feBlend mode="normal" in="SourceGraphic" in2="effect1_dropShadow_17_1058" result="shape"/>
</filter>
<clipPath id="clip0_17_1058">
<rect width="64" height="64" fill="white" transform="translate(4)"/>
</clipPath>
</defs>
</svg>
