<svg width="64" height="64" viewBox="0 0 64 64" fill="none" xmlns="http://www.w3.org/2000/svg">
<path fill-rule="evenodd" clip-rule="evenodd" d="M31.3227 35.7347C30.3933 35.14 29.1533 35.412 28.556 36.3413C27.96 37.2707 28.2293 38.5067 29.1587 39.1C30.6973 40.0987 32.4 40.8213 34.1733 41.26C38.4587 42.3187 43.0093 41.6307 46.7867 39.3507C50.5653 37.0707 53.2933 33.364 54.3533 29.08C55.412 24.7947 54.724 20.244 52.444 16.4667C50.164 12.688 46.4573 9.96 42.1733 8.9C37.888 7.84133 33.3373 8.52933 29.56 10.8093C25.7813 13.0893 23.0533 16.796 21.9933 21.08C21.6827 22.336 21.5147 23.6267 21.5093 24.9307C21.4947 26.0333 22.3787 26.9373 23.4827 26.9493C24.5867 26.96 25.4947 26.0747 25.5093 24.9707C25.52 23.9853 25.64 22.9987 25.8773 22.04C26.6827 18.7787 28.752 15.9667 31.6253 14.232C34.4987 12.4973 37.9507 11.9773 41.2133 12.784C44.4747 13.5893 47.2867 15.6587 49.0213 18.532C50.756 21.4053 51.276 24.8573 50.4693 28.12C49.664 31.3813 47.5947 34.1933 44.7213 35.928C41.848 37.6627 38.396 38.1827 35.1333 37.376C33.788 37.044 32.496 36.4907 31.3227 35.7347ZM26.672 30.3813C26.2133 29.3813 25.0267 28.9467 24.02 29.4107C23.0147 29.8747 22.576 31.064 23.0413 32.0667C23.3373 32.7027 23.6653 33.32 24.0427 33.9067C24.628 34.848 25.8653 35.1347 26.8027 34.548C27.74 33.9613 28.0227 32.7267 27.436 31.7933C27.1493 31.3373 26.8933 30.876 26.672 30.3813ZM50.3067 11.3333C51.2707 12.1867 52.7467 12.0973 53.6 11.1333C54.4533 10.1693 54.364 8.69333 53.4 7.84C49.2 4.13333 43.7733 2.08 38.1733 2.08C32.08 2.08 26.2267 4.50667 21.9067 8.81333C17.6 13.1333 15.1733 18.9867 15.1733 25.08C15.1733 31.1733 17.6 37.0267 21.9067 41.3467C26.2267 45.6533 32.08 48.08 38.1733 48.08C44.24 48.08 50.0667 45.68 54.3733 41.4133C58.68 37.1467 61.12 31.3333 61.1733 25.2667C61.1813 23.9787 60.1413 22.924 58.8533 22.9133C57.5653 22.9027 56.5147 23.9387 56.5067 25.2267C56.4667 30.0667 54.52 34.6933 51.08 38.0933C47.6533 41.5067 43.0133 43.4133 38.1733 43.4133C33.3067 43.4133 28.64 41.48 25.2133 38.04C21.7733 34.6133 19.84 29.9467 19.84 25.08C19.84 20.2133 21.7733 15.5467 25.2133 12.12C28.64 8.68 33.3067 6.74667 38.1733 6.74667C42.64 6.74667 46.96 8.38667 50.3067 11.3333ZM55.32 18.5867C55.776 19.7933 57.1267 20.4027 58.3333 19.9467C59.54 19.4907 60.1493 18.14 59.6933 16.9333C59.36 16.0933 58.9867 15.2533 58.5733 14.4533C57.9773 13.3053 56.564 12.86 55.42 13.46C54.276 14.06 53.836 15.4733 54.44 16.6133C54.7733 17.2533 55.0667 17.92 55.32 18.5867ZM17.6 42.52C18.468 41.564 18.4 40.0853 17.4467 39.22C16.4933 38.3547 15.0147 38.424 14.1467 39.3733L4.45333 50.0667C3.39999 51.2133 2.82666 52.7067 2.82666 54.2533C2.82666 56.0667 3.61333 57.8 4.98666 58.9733L6.58666 60.36C7.75999 61.3733 9.25333 61.92 10.7867 61.92C12.6 61.92 14.3333 61.16 15.5467 59.8267C15.5467 59.8267 15.5467 59.8267 15.56 59.8267L25.2533 49.1333C26.1213 48.1773 26.0533 46.6987 25.1 45.8333C24.1467 44.968 22.668 45.044 21.8 46L12.1067 56.68C11.76 57.0533 11.2933 57.2533 10.7867 57.2533C10.3733 57.2533 9.95999 57.1067 9.63999 56.8267L8.03999 55.44C7.69333 55.1467 7.49333 54.72 7.49333 54.2533C7.49333 53.8667 7.63999 53.4933 7.89333 53.2C7.90666 53.2 7.90666 53.2 7.90666 53.2L17.6 42.52Z" fill="#9FEF00"/>
</svg>
