<svg width="68" height="72" viewBox="0 0 68 72" fill="none" xmlns="http://www.w3.org/2000/svg">
<g clip-path="url(#clip0_62_4950)" filter="url(#filter0_d_62_4950)">
<path d="M35.6494 -1.15123e-06C31.0507 -0.00133448 26.4547 0.00666551 21.8534 0.0266655C20.4107 0.0359988 18.948 0.167999 17.536 0.469332C15.8267 0.830666 14.1867 1.44533 12.6814 2.38C11.4334 3.15467 10.264 4.00667 9.26003 5.07333C7.7347 6.68133 6.5587 8.492 5.76003 10.5827C5.2387 11.9507 4.9547 13.3573 4.7707 14.7653C4.46403 17.048 4.88136 18.2347 5.56803 20.416C6.0187 21.8533 6.68136 23.2067 7.5307 24.4733C8.8107 26.384 10.336 28.0547 12.2707 29.312C13.304 29.9853 14.3827 30.5773 15.4574 31.1813C16.328 31.6733 17.208 32.1253 18.0774 32.5973L20.38 33.8373C21.792 34.6013 23.216 35.356 24.608 36.1493C25.028 36.3907 25.6307 36.468 25.712 37.212C25.4774 37.2227 25.272 37.244 25.0774 37.2533C22.8254 37.2533 20.5747 37.2147 18.3334 37.264C16.552 37.304 14.772 37.3947 13.072 38.1187C11.864 38.6307 10.7054 39.2147 9.6827 40.0093C7.78803 41.4773 6.4067 43.3493 5.56803 45.5613C5.0147 47.0187 4.66803 48.544 4.72936 50.1227C4.76003 50.948 4.89336 52.84 5.0467 53.6547C5.18003 54.348 5.3227 55.0627 5.5987 55.7067C6.25336 57.2547 7.1347 58.6827 8.3227 59.92C10.1147 61.7693 12.2934 63.0027 14.8014 63.576C16.0507 63.8667 17.3707 63.972 18.6614 63.972C27.8427 64.0013 37.024 64.012 46.2067 63.9813C48.7347 63.972 51.1907 63.5587 53.5347 62.524C55.1307 61.82 56.5734 60.904 57.8734 59.748C59.224 58.5413 60.372 57.1653 61.232 55.5867C61.744 54.6413 62.1654 53.6333 62.5027 52.608C62.8 51.7333 62.9534 50.7987 63.076 49.884C63.1987 48.968 63.3294 48.0227 63.268 47.108C63.1454 45.348 62.8307 44.688 62.2054 43.0187C61.612 41.4507 60.8454 39.9813 59.852 38.644C58.5214 36.8453 56.932 35.308 54.956 34.192C53.4107 33.3173 51.8774 32.4213 50.3214 31.5667C49.2054 30.9427 48.0467 30.3733 46.92 29.7693C45.528 29.016 44.1254 28.252 42.7427 27.468C42.5587 27.3667 42.48 27.112 42.348 26.932C42.5214 26.8613 42.6947 26.744 42.868 26.744C44.6294 26.7333 46.3987 26.7533 48.16 26.7333C50.0947 26.7133 52.052 26.8813 53.904 26.208C55.0307 25.7947 56.1467 25.3427 57.18 24.7707C58.6027 23.976 59.8107 22.8933 60.7014 21.536C61.356 20.5307 61.98 19.4907 62.4614 18.3947C62.8094 17.6013 62.8707 16.6973 63.0867 15.8427C63.6587 13.6013 63.1454 10.3827 62.3987 8.30133C61.8454 6.75333 60.904 5.38267 59.7587 4.156C57.9867 2.26667 55.7974 1.06133 53.3107 0.437332C52.0614 0.125332 50.7414 0.0266655 49.4507 0.0266655C44.8494 0.0106655 40.248 0.00133218 35.6494 -1.15123e-06ZM35.6494 5.33333C40.2414 5.33467 44.8387 5.344 49.436 5.36C49.4414 5.36 49.4454 5.36 49.4507 5.36C50.4654 5.36 51.368 5.452 52.0187 5.61467C53.6454 6.024 54.824 6.68933 55.868 7.80133C56.652 8.64133 57.136 9.41333 57.3787 10.0933V10.104C58.42 14.004 57.7774 15.9827 56.2374 18.6147C55.8467 19.208 55.3214 19.7 54.5814 20.1133C53.932 20.472 53.076 20.8293 52.0707 21.1973C51.616 21.36 50.376 21.3773 48.1027 21.4H48.0974C44.008 21.4827 40.912 21.332 36.6654 21.332H33.9987C31.332 21.332 31.332 23.916 31.332 23.916V33.8787C27.7494 31.7267 26.132 30.8827 22.916 29.1493C22.912 29.148 22.9094 29.1467 22.9054 29.144L20.604 27.9053L20.624 27.9107C19.6814 27.3987 18.832 26.9627 18.088 26.5413L18.0667 26.5307C16.9654 25.912 15.9934 25.372 15.1814 24.8427H15.176C10.844 21.492 9.58536 16.9267 10.744 12.484C11.2867 11.0653 12.0374 9.89733 13.1294 8.744C13.1347 8.74 13.14 8.73467 13.1454 8.72933C13.704 8.136 14.468 7.54667 15.4947 6.91067C16.4134 6.34 17.4507 5.93867 18.64 5.68667C18.644 5.68533 18.6467 5.684 18.6507 5.68133C19.6334 5.472 20.7374 5.368 21.88 5.35867C26.4707 5.33867 31.0574 5.332 35.6494 5.33333ZM36.6654 30.072C39.228 31.604 41.992 33.156 44.3787 34.4573C44.3854 34.4627 44.392 34.468 44.3987 34.4733C45.6347 35.1347 46.7707 35.6907 47.7227 36.2227C47.732 36.228 47.7427 36.2333 47.7534 36.2387C49.2267 37.048 50.744 37.9333 52.3307 38.832V38.8373C53.5467 39.524 54.5787 40.4813 55.5654 41.816L55.5707 41.8213C56.2334 42.7133 56.7707 43.728 57.216 44.9053C57.8734 46.656 57.8614 46.2653 57.9454 47.4773C57.956 47.6453 57.9134 48.2507 57.7894 49.176C57.6814 49.9853 57.556 50.5853 57.4507 50.8947C57.4454 50.9107 57.44 50.9253 57.4347 50.9413C57.184 51.7027 56.8827 52.42 56.544 53.0453C56.016 54.012 55.2854 54.908 54.3214 55.7693C53.44 56.552 52.4987 57.152 51.384 57.644H51.3787C49.816 58.3347 48.1507 58.6413 46.1907 58.6493C37.024 58.6787 27.8507 58.6693 18.676 58.6387C18.6707 58.6387 18.6654 58.6387 18.66 58.6387C17.6587 58.6387 16.7267 58.5493 16.0147 58.384C16.0067 58.3813 15.9974 58.38 15.9894 58.3787C14.4507 58.0267 13.2747 57.3587 12.1654 56.2173C11.4907 55.5107 10.9534 54.676 10.5094 53.628C10.5067 53.62 10.5027 53.6107 10.5 53.6027C10.5254 53.664 10.4134 53.316 10.2854 52.6493C10.304 52.732 10.0774 50.476 10.0574 49.9253V49.92V49.9147C10.0307 49.2507 10.176 48.4507 10.552 47.456V47.4507C11.056 46.1227 11.7974 45.1187 12.9467 44.228L12.952 44.2227C13.436 43.848 14.1574 43.4533 15.156 43.0293L15.1614 43.024C15.772 42.764 16.7707 42.6347 18.452 42.5973C20.5507 42.5493 22.7627 42.5867 25.0774 42.5867C25.1694 42.5867 25.2614 42.5853 25.3534 42.5813C27.248 42.5867 29.256 42.6653 31.332 42.6653H33.8374C33.8374 42.6653 36.6654 42.664 36.6654 40.1333V37.332V30.072Z" fill="#9FEF00"/>
</g>
<defs>
<filter id="filter0_d_62_4950" x="-2" y="0" width="72" height="72" filterUnits="userSpaceOnUse" color-interpolation-filters="sRGB">
<feFlood flood-opacity="0" result="BackgroundImageFix"/>
<feColorMatrix in="SourceAlpha" type="matrix" values="0 0 0 0 0 0 0 0 0 0 0 0 0 0 0 0 0 0 127 0" result="hardAlpha"/>
<feOffset dy="4"/>
<feGaussianBlur stdDeviation="2"/>
<feComposite in2="hardAlpha" operator="out"/>
<feColorMatrix type="matrix" values="0 0 0 0 0 0 0 0 0 0 0 0 0 0 0 0 0 0 0.25 0"/>
<feBlend mode="normal" in2="BackgroundImageFix" result="effect1_dropShadow_62_4950"/>
<feBlend mode="normal" in="SourceGraphic" in2="effect1_dropShadow_62_4950" result="shape"/>
</filter>
<clipPath id="clip0_62_4950">
<rect width="64" height="64" fill="white" transform="translate(2)"/>
</clipPath>
</defs>
</svg>
