<svg width="64" height="64" viewBox="0 0 64 64" fill="none" xmlns="http://www.w3.org/2000/svg">
<path fill-rule="evenodd" clip-rule="evenodd" d="M19.2278 29.052V22.176H29.0612V29.052H19.2278ZM19.2278 34.948V41.824H29.0612V34.948H19.2278ZM44.7718 29.052V22.176H34.9558V29.052H44.7718ZM44.7718 34.948V41.824H34.9558V34.948H44.7718ZM25.6665 6.66667H7.33317C5.86117 6.66667 4.6665 7.86133 4.6665 9.33333V38C4.6665 39.104 3.7705 40 2.6665 40C1.5625 40 0.666504 39.104 0.666504 38V8C0.666504 5.056 3.05584 2.66667 5.99984 2.66667H37.3332C38.8052 2.66667 39.9998 3.56267 39.9998 4.66667C39.9998 5.77067 38.8052 6.66667 37.3332 6.66667H25.6665ZM56.6665 6.66667C58.1385 6.66667 59.3332 7.86133 59.3332 9.33333V24.6667C59.3332 25.7707 60.2292 26.6667 61.3332 26.6667C62.4372 26.6667 63.3332 25.7707 63.3332 24.6667V8C63.3332 5.056 60.9438 2.66667 57.9998 2.66667H49.3332C47.8612 2.66667 46.6665 3.56267 46.6665 4.66667C46.6665 5.77067 47.8612 6.66667 49.3332 6.66667H56.6665ZM17.2625 16.2813H46.7372C48.9052 16.2813 50.6665 18.0413 50.6665 20.2107V43.7893C50.6665 45.9587 48.9052 47.7187 46.7372 47.7187H17.2625C15.0945 47.7187 13.3332 45.9587 13.3332 43.7893V20.2107C13.3332 18.0413 15.0945 16.2813 17.2625 16.2813ZM59.3332 40.6667C59.3332 39.5627 60.2292 38.6667 61.3332 38.6667C62.4372 38.6667 63.3332 39.5627 63.3332 40.6667V56C63.3332 58.944 60.9438 61.3333 57.9998 61.3333H5.99984C3.05584 61.3333 0.666504 58.944 0.666504 56V54C0.666504 52.896 1.5625 52 2.6665 52C3.7705 52 4.6665 52.896 4.6665 54V54.6667C4.6665 56.1387 5.86117 57.3333 7.33317 57.3333H56.6665C58.1385 57.3333 59.3332 56.1387 59.3332 54.6667V40.6667Z" fill="#9FEF00"/>
</svg>
