<svg width="64" height="64" viewBox="0 0 64 64" fill="none" xmlns="http://www.w3.org/2000/svg">
<path fill-rule="evenodd" clip-rule="evenodd" d="M30.1548 23.9987H39.3322C40.9615 23.9987 42.2842 25.3213 42.2842 26.952V30.2773L46.8828 25.6787C47.2668 25.2947 48.0202 24.9827 48.5628 24.9827H51.6828C52.2255 24.9827 52.6668 25.424 52.6668 25.9667V46.3973C52.6668 46.9413 52.2255 47.3813 51.6828 47.3813H48.5628C48.0202 47.3813 47.2668 47.0707 46.8828 46.6867L42.2842 42.0867V45.4133C42.2842 47.0427 40.9615 48.3667 39.3322 48.3667H14.2855C12.6562 48.3667 11.3335 47.0427 11.3335 45.4133V32.8853C11.3335 31.8 12.2148 30.9173 13.3015 30.9173C14.3882 30.9173 15.2695 31.8 15.2695 32.8853V43.4453C15.2695 43.988 15.7108 44.4293 16.2535 44.4293H37.3642C37.9068 44.4293 38.3482 43.988 38.3482 43.4453V28.92C38.3482 28.376 37.9068 27.936 37.3642 27.936H13.3015C12.2148 27.936 11.3335 27.0533 11.3335 25.9667C11.3335 24.8813 12.2148 23.9987 13.3015 23.9987H26.4642L22.4055 18.5867H15.2695C14.4548 18.5867 13.7935 17.9253 13.7935 17.1107C13.7935 16.296 14.4548 15.6333 15.2695 15.6333H23.8815L30.1548 23.9987ZM42.2842 35.8387V36.5267L42.8548 37.0973L48.7308 42.9733V29.392L42.8548 35.2667L42.2842 35.8387ZM57.3335 16.7333C57.3335 18.2053 58.5282 19.4 60.0002 19.4C61.4722 19.4 62.6668 18.2053 62.6668 16.7333V8C62.6668 4.32 59.6802 1.33333 56.0002 1.33333H8.00016C4.32016 1.33333 1.3335 4.32 1.3335 8V33.3333C1.3335 34.8053 2.52816 36 4.00016 36C5.47216 36 6.66683 34.8053 6.66683 33.3333V10.6667C6.66683 8.45867 8.45883 6.66667 10.6668 6.66667H53.3335C55.5415 6.66667 57.3335 8.45867 57.3335 10.6667V16.7333ZM6.66683 47.2667C6.66683 45.7947 5.47216 44.6 4.00016 44.6C2.52816 44.6 1.3335 45.7947 1.3335 47.2667V56C1.3335 59.68 4.32016 62.6667 8.00016 62.6667H56.0002C59.6802 62.6667 62.6668 59.68 62.6668 56V29.5733C62.6668 28.1013 61.4722 26.9067 60.0002 26.9067C58.5282 26.9067 57.3335 28.1013 57.3335 29.5733V53.3333C57.3335 55.5413 55.5415 57.3333 53.3335 57.3333H10.6668C8.45883 57.3333 6.66683 55.5413 6.66683 53.3333V47.2667Z" fill="#9FEF00"/>
</svg>
