<svg width="72" height="72" viewBox="0 0 72 72" fill="none" xmlns="http://www.w3.org/2000/svg">
<g clip-path="url(#clip0_55_3617)" filter="url(#filter0_d_55_3617)">
<path fill-rule="evenodd" clip-rule="evenodd" d="M39.544 16C32.612 16.0093 26.4747 20.4813 24.3427 27.0773H21.0827L19.852 30.7693H23.5973C23.564 31.1787 23.5467 31.5893 23.544 32C23.5493 32.4107 23.5693 32.8213 23.6053 33.2307H22.3133L21.0827 36.9227H24.3307C26.4653 43.5227 32.608 47.996 39.544 48C44.4693 47.9973 49.1173 45.728 52.148 41.8467H46.9093C44.784 43.44 42.2013 44.304 39.544 44.308C34.6573 44.3013 30.236 41.4027 28.28 36.9227H44.468L45.6987 33.2307H27.312C27.2667 32.8227 27.2413 32.4107 27.2373 32C27.2373 31.5893 27.2587 31.1787 27.3 30.7693H45.6987L46.9293 27.0773H28.2707C30.228 22.5933 34.6533 19.6947 39.544 19.692C42.1987 19.6973 44.7813 20.5613 46.904 22.1533H52.1347C49.1067 18.276 44.464 16.0067 39.544 16ZM14 32C14 26.1733 16.32 20.5733 20.44 16.44C24.5733 12.32 30.1733 10 36 10C41.8267 10 47.4267 12.32 51.56 16.44C55.68 20.5733 58 26.1733 58 32C58 37.8267 55.68 43.4267 51.56 47.56C47.4267 51.68 41.8267 54 36 54C30.1733 54 24.5733 51.68 20.44 47.56C16.32 43.4267 14 37.8267 14 32ZM10 32C10 17.6507 21.6507 6 36 6C50.3493 6 62 17.6507 62 32C62 46.3493 50.3493 58 36 58C21.6507 58 10 46.3493 10 32ZM8 32C8 24.5733 10.9467 17.4533 16.2 12.2C21.4533 6.94667 28.5733 4 36 4C43.4267 4 50.5467 6.94667 55.8 12.2C61.0533 17.4533 64 24.5733 64 32C64 39.4267 61.0533 46.5467 55.8 51.8C50.5467 57.0533 43.4267 60 36 60C28.5733 60 21.4533 57.0533 16.2 51.8C10.9467 46.5467 8 39.4267 8 32ZM4 32C4 14.3387 18.3387 0 36 0C53.6613 0 68 14.3387 68 32C68 49.6613 53.6613 64 36 64C18.3387 64 4 49.6613 4 32Z" fill="#9FEF00"/>
</g>
<defs>
<filter id="filter0_d_55_3617" x="0" y="0" width="72" height="72" filterUnits="userSpaceOnUse" color-interpolation-filters="sRGB">
<feFlood flood-opacity="0" result="BackgroundImageFix"/>
<feColorMatrix in="SourceAlpha" type="matrix" values="0 0 0 0 0 0 0 0 0 0 0 0 0 0 0 0 0 0 127 0" result="hardAlpha"/>
<feOffset dy="4"/>
<feGaussianBlur stdDeviation="2"/>
<feComposite in2="hardAlpha" operator="out"/>
<feColorMatrix type="matrix" values="0 0 0 0 0 0 0 0 0 0 0 0 0 0 0 0 0 0 0.25 0"/>
<feBlend mode="normal" in2="BackgroundImageFix" result="effect1_dropShadow_55_3617"/>
<feBlend mode="normal" in="SourceGraphic" in2="effect1_dropShadow_55_3617" result="shape"/>
</filter>
<clipPath id="clip0_55_3617">
<rect width="64" height="64" fill="white" transform="translate(4)"/>
</clipPath>
</defs>
</svg>
