<svg width="48" height="48" viewBox="0 0 48 48" fill="none" xmlns="http://www.w3.org/2000/svg">
<path d="M38.95 34.02C39.563 33.104 40.806 32.86 41.725 33.475C42.644 34.09 42.888 35.334 42.27 36.25C38.19 42.33 31.33 46 24 46C18.17 46 12.57 43.68 8.44 39.56C4.32 35.43 2 29.83 2 24C2 18.17 4.32 12.57 8.44 8.44C12.57 4.32 18.17 2 24 2C29.83 2 35.43 4.32 39.56 8.44C43.68 12.57 46 18.17 46 24C46 24.01 46 24.02 46 24.03L45.99 24.54C45.979 25.644 45.074 26.529 43.97 26.515C42.866 26.501 41.979 25.594 41.99 24.49L42 23.99C42 19.22 40.1 14.64 36.72 11.27C33.35 7.9 28.77 6 24 6C19.23 6 14.65 7.9 11.27 11.27C7.9 14.65 6 19.23 6 24C6 28.77 7.9 33.35 11.27 36.73C14.65 40.1 19.23 42 24 42C29.99 42 35.61 39 38.95 34.02Z" fill="#9FEF00"/>
<path d="M15.0971 31.6695C14.4101 32.0685 13.5441 31.8045 13.1641 31.0785C12.7831 30.3525 13.0311 29.4395 13.7171 29.0395C14.3341 28.6825 14.9921 28.3985 15.6631 28.1965C16.4311 27.9625 17.2231 27.7915 18.0191 27.6805C19.9001 27.4235 21.8111 27.3805 23.7041 27.5665L23.9111 27.5845C25.8821 27.7565 27.8331 28.1685 29.7191 28.8055C30.5151 29.0655 31.2861 29.4035 32.0241 29.7995C32.6711 30.1375 33.2841 30.5625 33.8331 31.0615C34.4251 31.6005 34.4911 32.5485 33.9801 33.1765C33.4701 33.8045 32.5761 33.8775 31.9841 33.3385C31.6121 32.9945 31.1981 32.7075 30.7611 32.4785C30.1501 32.1545 29.5071 31.8775 28.8601 31.6595C27.1771 31.0915 25.4401 30.7285 23.6771 30.5745L23.6681 30.5735L23.4511 30.5545C21.7641 30.3965 20.0631 30.4285 18.3841 30.6525C17.7221 30.7455 17.0751 30.8895 16.4331 31.0835C15.9671 31.2235 15.5151 31.4145 15.0971 31.6695Z" fill="#9FEF00"/>
<path d="M14.1508 25.5651C13.3538 25.9551 12.3368 25.6771 11.8818 24.9451C11.4268 24.2131 11.7048 23.3021 12.5018 22.9131C13.2188 22.5641 13.9848 22.2901 14.7678 22.0971C15.6638 21.8751 16.5878 21.7151 17.5178 21.6161C19.7158 21.3871 21.9518 21.3721 24.1698 21.5861L24.4128 21.6071C26.7208 21.8091 29.0098 22.2501 31.2258 22.9161C32.1608 23.1881 33.0678 23.5391 33.9358 23.9461C34.6988 24.2941 35.4208 24.7281 36.0698 25.2361C36.7698 25.7851 36.8598 26.7351 36.2708 27.3561C35.6818 27.9781 34.6358 28.0371 33.9368 27.4881C33.4968 27.1381 33.0088 26.8451 32.4938 26.6091C31.7748 26.2751 31.0188 25.9881 30.2578 25.7611C28.2808 25.1671 26.2438 24.7781 24.1788 24.5971L24.1678 24.5961L23.9138 24.5741C21.9378 24.3911 19.9468 24.3971 17.9848 24.5971C17.2118 24.6791 16.4558 24.8141 15.7078 24.9991C15.1638 25.1321 14.6378 25.3171 14.1508 25.5651Z" fill="#9FEF00"/>
<path d="M13.081 19.4507C12.202 19.8337 11.074 19.5457 10.564 18.8087C10.054 18.0727 10.354 17.1637 11.234 16.7807C12.024 16.4387 12.87 16.1717 13.734 15.9857C14.724 15.7717 15.745 15.6207 16.775 15.5297C19.205 15.3207 21.679 15.3267 24.136 15.5617L24.405 15.5857C26.961 15.8097 29.499 16.2727 31.957 16.9587C32.994 17.2407 34 17.5997 34.965 18.0147C35.812 18.3697 36.614 18.8117 37.338 19.3267C38.116 19.8817 38.224 20.8337 37.578 21.4497C36.931 22.0657 35.774 22.1157 34.995 21.5597C34.506 21.2057 33.963 20.9077 33.391 20.6667C32.592 20.3257 31.753 20.0317 30.91 19.7977C28.716 19.1837 26.458 18.7757 24.171 18.5757L24.159 18.5747L23.877 18.5497C21.689 18.3477 19.486 18.3357 17.316 18.5167C16.461 18.5927 15.626 18.7207 14.799 18.8987C14.198 19.0267 13.617 19.2067 13.081 19.4507Z" fill="#9FEF00"/>
</svg>
