<svg width="64" height="64" viewBox="0 0 64 64" fill="none" xmlns="http://www.w3.org/2000/svg">
<path fill-rule="evenodd" clip-rule="evenodd" d="M34.7547 22.312C36.388 19.4693 37.932 16.8413 39.3134 14.5213L24.5854 14.44C25.1587 18.296 25.7267 21.9147 26.0334 23.852L34.7547 22.312ZM36.82 23.1893C38.4854 20.296 40.06 17.62 41.4614 15.2707L50.9227 26.952C48.04 28.0893 44.664 29.456 40.9507 31.0227L36.82 23.1893ZM40.648 34.296C43.172 38.2653 45.608 41.3893 47.748 43.7987L47.5947 44.46L33.7987 51.0653C33.864 48.1467 34.0014 44.7453 34.26 40.9693L40.648 34.296ZM32.016 41.0707C31.7507 45.0147 31.616 48.5573 31.5574 51.572L16.9454 44.372C19.212 42.36 21.6787 39.9587 24.1174 37.1933L32.016 41.0707ZM22.584 35.5627C20.4467 38.0013 18.2827 40.152 16.256 41.9973L13.0774 27.6813C16.1334 27.556 19.752 27.2947 23.8094 26.7973L22.584 35.5627ZM51.0934 29.3293L48.38 41.064C46.552 38.8573 44.5307 36.1213 42.452 32.8467C45.6014 31.532 48.5254 30.348 51.0934 29.3293ZM14.7214 25.3573L22.524 15.916C23.2307 20.4627 23.748 23.6933 23.8827 24.5253C20.4867 24.948 17.4107 25.2067 14.7214 25.3573ZM21.9534 12.2147L10.9934 25.5093C6.24002 25.628 3.29202 25.4067 2.73469 25.3613C2.59602 26.0947 2.48402 26.8333 2.40002 27.5747C2.76136 27.608 5.59069 27.8427 10.24 27.764L13.8667 44.092C11.3734 46.196 9.23469 47.756 7.82402 48.7293C8.25602 49.3347 8.71069 49.924 9.18802 50.4947C10.5174 49.5733 12.4227 48.1827 14.6547 46.3187C14.7427 46.38 14.8334 46.4387 14.932 46.4867L31.516 54.6587C31.5267 54.664 31.536 54.6693 31.548 54.672C31.5094 57.8267 31.568 59.9907 31.6147 61.2307C31.8054 61.2427 31.996 61.252 32.1867 61.26C32.74 61.256 33.2934 61.236 33.8467 61.2013C33.7974 59.912 33.7294 57.4907 33.7534 54.1773L49.4027 46.684C49.6427 46.5693 49.8414 46.3907 49.968 46.1627C50.1654 46.3627 50.3547 46.5493 50.5387 46.7293C53.1934 49.3133 54.888 50.4093 55.156 50.58C55.6267 50.0053 56.076 49.4133 56.5027 48.8053C56.476 48.7893 54.816 47.7813 52.0934 45.1307C51.6374 44.6867 51.1534 44.192 50.644 43.6453L54.24 28.0933C58.3774 26.4827 61.104 25.484 61.6 25.3027C61.46 24.564 61.2934 23.8307 61.0987 23.1053C60.7947 23.2133 58.0374 24.192 53.6374 25.8933L42.9934 12.7173C45.6374 8.33332 47.3827 5.56932 47.48 5.41466C46.8387 5.03599 46.184 4.68132 45.5174 4.35066C45.3534 4.60932 43.6054 7.38132 40.9774 11.744L24.1547 11.6507C23.556 7.93732 23.1667 5.36532 22.7774 2.73999C22.0547 2.97466 21.3414 3.23732 20.6387 3.52666C21.096 6.60266 21.544 9.54932 21.9534 12.2147ZM35.0067 24.532L39.2347 32.548L32.9934 39.0667L24.9014 35.0933L26.1587 26.0933L35.0067 24.532Z" fill="#9FEF00" stroke="#9FEF00" stroke-width="1.33333"/>
<path d="M25.2867 26.6666C21.8561 26.7466 19.3387 29.252 17.4241 31.4106C15.5107 33.5706 14.2321 35.6973 14.2321 35.6973L17.6534 37.7653C17.6534 37.7653 18.7801 35.9106 20.4174 34.064C22.0534 32.2173 24.2321 30.6933 25.3801 30.6666C26.1934 30.6466 26.8707 30.9413 27.7267 31.6346C28.5827 32.328 29.5001 33.408 30.4734 34.5853C31.4481 35.7626 32.4774 37.0373 33.7707 38.0986C35.0641 39.16 36.7374 40.024 38.6934 40C40.2467 39.98 41.4241 39.2426 42.4947 38.424C42.9707 38.06 43.4227 37.6586 43.8574 37.2413C44.6067 37.408 45.3667 37.3133 45.9734 37.124C47.0134 36.8026 47.9307 36.1973 48.7547 35.3746C49.5894 34.5506 50.2014 33.628 50.5267 32.5773C50.8507 31.5253 50.9041 30.0226 49.8027 28.9213C49.2454 28.3653 48.5947 28.108 47.9534 28.028C47.3121 27.9493 46.6801 28.0493 46.1587 28.2106C45.1174 28.5333 44.1987 29.1346 43.3721 29.96H43.3694C42.5387 30.784 41.9281 31.704 41.6041 32.752C41.4894 33.124 41.4347 33.56 41.4267 34.0066C40.9627 34.4773 40.4987 34.9146 40.0654 35.2466C39.3321 35.8066 38.7027 35.9986 38.6401 36C37.8414 36.0093 37.1627 35.7093 36.3067 35.0066C35.4521 34.3053 34.5334 33.216 33.5574 32.036C32.5814 30.8546 31.5454 29.5813 30.2427 28.5253C28.9387 27.4693 27.2494 26.62 25.2867 26.6666Z" fill="#A4B1CD"/>
</svg>
