<svg width="64" height="64" viewBox="0 0 64 64" fill="none" xmlns="http://www.w3.org/2000/svg">
<g clip-path="url(#clip0_62_3952)">
<path fill-rule="evenodd" clip-rule="evenodd" d="M25.732 35.6227C22.2534 35.2787 19.1134 34.6613 16.6094 33.8253C14.872 33.2453 13.56 32.596 12.7867 31.9827C12.628 31.8573 12.512 31.7493 12.4347 31.6653V22.396C17.408 24.428 24.3387 25.4787 32 25.4787C33.424 25.4787 34.8227 25.4413 36.168 25.3507C38.568 24.308 41.2187 23.7387 44 23.7387C44.9014 23.7387 45.788 23.7987 46.6547 23.9213C48.4587 23.5093 50.0974 22.996 51.5654 22.396V25.2213C54.6267 26.4747 57.3094 28.4653 59.3907 30.9733V13.7387C59.3907 6.09067 47.1174 2 32 2C16.8827 2 4.60938 6.09067 4.60938 13.7387V50.2613C4.60938 57.9213 16.8254 62 32 62C33.2427 62 34.464 61.9733 35.652 61.9093C31.9574 60.2147 28.872 57.4227 26.8054 53.9533C22.884 53.66 19.3627 53.0053 16.6094 52.0867C14.872 51.5067 13.56 50.856 12.7867 50.244C12.628 50.1187 12.512 50.0107 12.4347 49.9267V40.6707C15.6027 41.9613 19.5667 42.8547 24.0067 43.3387C24.0587 40.5933 24.6667 37.984 25.732 35.6227ZM16.636 15.5613C20.5827 16.876 26.0854 17.652 32 17.652C37.9147 17.652 43.4174 16.876 47.364 15.5613C49.084 14.988 50.392 14.3467 51.176 13.7387C50.392 13.132 49.084 12.4907 47.364 11.9173C43.4174 10.6013 37.9147 9.82667 32 9.82667C26.0854 9.82667 20.5827 10.6013 16.636 11.9173C14.916 12.4907 13.608 13.132 12.824 13.7387C13.608 14.3467 14.916 14.988 16.636 15.5613Z" fill="#9FEF00"/>
<path fill-rule="evenodd" clip-rule="evenodd" d="M56.4306 44L47.3906 49.0213L38.3519 54.0427V44V33.9573L47.3906 38.9787L56.4306 44ZM28.0532 44C28.0532 39.76 29.7466 35.68 32.7466 32.68C35.7466 29.6933 39.8132 28 44.0532 28C48.2932 28 52.3732 29.6933 55.3732 32.68C58.3732 35.68 60.0532 39.76 60.0532 44C60.0532 48.24 58.3732 52.32 55.3732 55.32C52.3732 58.3067 48.2932 60 44.0532 60C39.8132 60 35.7466 58.3067 32.7466 55.32C29.7466 52.32 28.0532 48.24 28.0532 44ZM24.0532 44C24.0532 38.6933 26.1599 33.6133 29.9199 29.8533C33.6666 26.1067 38.7599 24 44.0532 24C49.3599 24 54.4532 26.1067 58.1999 29.8533C61.9466 33.6133 64.0532 38.6933 64.0532 44C64.0532 49.3067 61.9466 54.3867 58.1999 58.1467C54.4532 61.8933 49.3599 64 44.0532 64C38.7599 64 33.6666 61.8933 29.9199 58.1467C26.1599 54.3867 24.0532 49.3067 24.0532 44Z" fill="#A4B1CD"/>
</g>
<defs>
<clipPath id="clip0_62_3952">
<rect width="64" height="64" fill="white"/>
</clipPath>
</defs>
</svg>
