<svg width="72" height="69" viewBox="0 0 72 69" fill="none" xmlns="http://www.w3.org/2000/svg">
<g filter="url(#filter0_d_62_4955)">
<path fill-rule="evenodd" clip-rule="evenodd" d="M17.4134 3.60803L16.4401 5.38803L14.6601 6.36137L16.4401 7.3347L17.4134 9.1147L18.3868 7.3347L20.1668 6.36137L18.3868 5.38803L17.4134 3.60803ZM32.4881 14.8347L31.5148 16.6147L29.7348 17.588L31.5148 18.5627L32.4881 20.3427L33.4614 18.5627L35.2414 17.588L33.4614 16.6147L32.4881 14.8347ZM10.1068 19.4094L8.1601 22.9694L4.6001 24.9174L8.1601 26.864L10.1068 30.424L12.0548 26.864L15.6148 24.9174L12.0548 22.9694L10.1068 19.4094ZM28.4641 24.9174L27.1654 27.2907L24.7921 28.588L27.1654 29.8867L28.4641 32.26L29.7628 29.8867L32.1361 28.588L29.7628 27.2907L28.4641 24.9174Z" fill="#A4B1CD"/>
<path fill-rule="evenodd" clip-rule="evenodd" d="M54.3453 19.072C58.2413 22.828 60.444 28.0213 60.444 33.448C60.444 38.7347 58.3333 43.836 54.6 47.5693C50.844 51.3253 45.7653 53.436 40.4786 53.436C35.0533 53.436 29.8586 51.2093 26.1026 47.3147C26.5426 47.3373 26.984 47.36 27.448 47.36C34.5893 47.36 41.4293 44.508 46.4853 39.4533C51.54 34.4213 54.368 27.5587 54.368 20.416C54.368 19.976 54.368 19.5347 54.3453 19.072ZM41.8013 6.55066C48.7106 6.89733 55.2266 9.88933 59.98 14.8973C64.7333 19.8827 67.4 26.5373 67.4 33.448C67.4 40.5893 64.5706 47.4533 59.516 52.4853C54.4613 57.54 47.5973 60.392 40.4786 60.392C33.5693 60.3693 26.9146 57.7253 21.9053 52.972C16.8973 48.1947 13.9293 41.7027 13.5813 34.7933C17.292 38.3867 22.2773 40.404 27.448 40.404C32.7346 40.404 37.812 38.2947 41.5693 34.5373C45.3026 30.804 47.412 25.7267 47.412 20.416C47.412 15.2453 45.3946 10.284 41.8013 6.55066Z" fill="#9FEF00"/>
</g>
<defs>
<filter id="filter0_d_62_4955" x="0" y="0" width="72" height="72" filterUnits="userSpaceOnUse" color-interpolation-filters="sRGB">
<feFlood flood-opacity="0" result="BackgroundImageFix"/>
<feColorMatrix in="SourceAlpha" type="matrix" values="0 0 0 0 0 0 0 0 0 0 0 0 0 0 0 0 0 0 127 0" result="hardAlpha"/>
<feOffset dy="4"/>
<feGaussianBlur stdDeviation="2"/>
<feComposite in2="hardAlpha" operator="out"/>
<feColorMatrix type="matrix" values="0 0 0 0 0 0 0 0 0 0 0 0 0 0 0 0 0 0 0.25 0"/>
<feBlend mode="normal" in2="BackgroundImageFix" result="effect1_dropShadow_62_4955"/>
<feBlend mode="normal" in="SourceGraphic" in2="effect1_dropShadow_62_4955" result="shape"/>
</filter>
</defs>
</svg>
