<svg width="64" height="65" viewBox="0 0 64 65" fill="none" xmlns="http://www.w3.org/2000/svg">
<path fill-rule="evenodd" clip-rule="evenodd" d="M7.01338 29.0666C5.86538 29.9932 4.18405 29.8172 3.26005 28.6732C2.33605 27.5292 2.51338 25.8533 3.65338 24.9333L26.9147 5.21725C29.7214 2.83858 34.2787 2.83858 37.0854 5.21725L60.3467 24.9333C61.4867 25.8533 61.6641 27.5292 60.7401 28.6732C59.8161 29.8172 58.1347 29.9932 56.9867 29.0666L35.0441 10.3559C33.3641 8.92258 30.636 8.92258 28.956 10.3559L7.01338 29.0666ZM56.9867 35.5999C58.1347 34.6733 59.8161 34.8493 60.7401 35.9933C61.6641 37.1373 61.4867 38.8132 60.3467 39.7332L37.0854 59.4493C34.2787 61.8279 29.7214 61.8279 26.9147 59.4493L3.65338 39.7332C2.51338 38.8132 2.33605 37.1373 3.26005 35.9933C4.18405 34.8493 5.86538 34.6733 7.01338 35.5999L28.956 54.3106C30.636 55.7439 33.3641 55.7439 35.0441 54.3106L56.9867 35.5999ZM26.8254 28.3333C26.8254 29.4373 25.9294 30.3333 24.8254 30.3333C23.7214 30.3333 22.8254 29.4373 22.8254 28.3333V24.5999C22.8254 20.9199 25.3107 19.5906 28.372 21.6319L38.8787 28.6346C41.9401 30.6759 41.9401 33.9906 38.8787 36.0319L28.372 43.0346C25.3107 45.0759 22.8254 43.7466 22.8254 40.0666V36.3333C22.8254 35.2293 23.7214 34.3333 24.8254 34.3333C25.9294 34.3333 26.8254 35.2293 26.8254 36.3333V39.2666L35.0067 33.8119C36.2307 32.9959 36.2307 31.6706 35.0067 30.8546L26.8254 25.3999V28.3333Z" fill="#9FEF00"/>
</svg>
