<svg width="48" height="48" viewBox="0 0 48 48" fill="none" xmlns="http://www.w3.org/2000/svg">
<path d="M12.5828 36.4651L12.1778 35.9701C11.3978 35.0101 11.0078 34.1477 11.0078 33.3831C11.0078 32.6177 11.6528 31.6051 12.9428 30.3451C13.6921 29.6251 14.4871 29.2651 15.3278 29.2651C16.1678 29.2651 17.3378 30.0151 18.8378 31.5151C19.2578 32.0251 19.8578 32.5127 20.6378 32.9781C21.4171 33.4427 22.1371 33.6751 22.7978 33.6751C25.5871 33.6751 26.9818 32.5351 26.9818 30.2551C26.9818 29.5651 26.5995 28.9877 25.8348 28.5231C25.0701 28.0577 24.1178 27.7201 22.9778 27.5101C21.8378 27.3001 20.6078 26.9627 19.2878 26.4981C17.9678 26.0327 16.7378 25.4851 15.5978 24.8551C14.4578 24.2251 13.5051 23.2277 12.7398 21.8631C11.9751 20.4977 11.5928 18.8551 11.5928 16.9351C11.5928 14.2951 12.5751 11.9927 14.5398 10.0281C16.5051 8.06274 19.1825 7.08008 22.5718 7.08008C24.3725 7.08008 26.0151 7.31274 27.4998 7.77808C28.9851 8.24274 30.0128 8.71508 30.5828 9.19508L31.7078 10.0501C32.6378 10.9201 33.1028 11.6551 33.1028 12.2551C33.1028 12.8551 32.7428 13.6801 32.0228 14.7301C31.0028 16.2301 29.9528 16.9801 28.8728 16.9801C28.2428 16.9801 27.4628 16.6801 26.5328 16.0801C26.4428 16.0201 26.2701 15.8701 26.0148 15.6301C25.7601 15.3901 25.5278 15.1951 25.3178 15.0451C24.6878 14.6551 23.8851 14.4601 22.9098 14.4601C21.9345 14.4601 21.1245 14.6927 20.4798 15.1581C19.8351 15.6227 19.5128 16.2677 19.5128 17.0931C19.5128 17.9177 19.8951 18.5851 20.6598 19.0951C21.4245 19.6051 22.3771 19.9501 23.5178 20.1301C24.6578 20.3101 25.9028 20.5877 27.2528 20.9631C28.6028 21.3377 29.8478 21.7951 30.9878 22.3351C32.1271 22.8751 33.0795 23.8127 33.8448 25.1481C34.6101 26.4827 34.9928 28.1251 34.9928 30.0751C34.9928 32.0251 34.6028 33.7427 33.8228 35.2281C33.0428 36.7127 32.0228 37.8601 30.7628 38.6701C28.3328 40.2601 25.7378 41.0551 22.9778 41.0551C21.5678 41.0551 20.2328 40.8824 18.9728 40.5371C17.7128 40.1924 16.6928 39.7651 15.9128 39.2551C14.3228 38.2951 13.2128 37.3651 12.5828 36.4651Z" fill="#9FEF00"/>
</svg>
