<svg width="64" height="72" viewBox="0 0 64 72" fill="none" xmlns="http://www.w3.org/2000/svg">
<g filter="url(#filter0_d_62_4958)">
<path d="M32.1228 28.036L35.9641 31.8773L24.0174 43.8387C23.5268 44.3293 22.8868 44.6013 22.2054 44.6427C21.5241 44.6693 20.8561 44.4373 20.3388 44.0027C14.7801 39.3427 11.5654 32.4493 11.5654 25.188C11.5654 18.6907 14.1401 12.4373 18.7308 7.83199C23.3361 3.24132 29.5894 0.666656 36.0868 0.666656C43.3481 0.666656 50.2414 3.88132 54.9001 9.43999C55.3361 9.95732 55.5681 10.6253 55.5414 11.3067C55.5001 11.988 55.2281 12.628 54.7374 13.1187L48.3068 19.548L44.4521 15.6933L49.0014 11.1427C45.4868 7.89999 40.8694 6.11599 36.0868 6.11599C31.0334 6.11599 26.1694 8.11866 22.5868 11.688C19.0174 15.2707 17.0148 20.1347 17.0148 25.188C17.0148 29.9707 18.7988 34.588 22.0414 38.1027L32.1228 28.036Z" fill="#A4B1CD"/>
<path d="M38.6893 29.1533L34.8466 25.3107L39.9826 20.1613C40.4733 19.6707 41.1133 19.3987 41.7946 19.3573C42.4759 19.3307 43.1439 19.5627 43.6613 19.9973C49.2199 24.6573 52.4346 31.5507 52.4346 38.812C52.4346 45.3093 49.8599 51.5627 45.2693 56.168C40.6639 60.7587 34.4106 63.3333 27.9133 63.3333C20.6519 63.3333 13.7586 60.1187 9.09995 54.56C8.66395 54.0427 8.43195 53.3747 8.45861 52.6933C8.49995 52.012 8.77195 51.372 9.26261 50.8813L16.6333 43.512L20.4879 47.3667L14.9986 52.8573C18.5133 56.1 23.1306 57.884 27.9133 57.884C32.9666 57.884 37.8306 55.8813 41.4133 52.312C44.9826 48.7293 46.9853 43.8653 46.9853 38.812C46.9853 34.0293 45.2013 29.412 41.9586 25.8973L38.6893 29.1533Z" fill="#9FEF00"/>
</g>
<defs>
<filter id="filter0_d_62_4958" x="-4" y="0" width="72" height="72" filterUnits="userSpaceOnUse" color-interpolation-filters="sRGB">
<feFlood flood-opacity="0" result="BackgroundImageFix"/>
<feColorMatrix in="SourceAlpha" type="matrix" values="0 0 0 0 0 0 0 0 0 0 0 0 0 0 0 0 0 0 127 0" result="hardAlpha"/>
<feOffset dy="4"/>
<feGaussianBlur stdDeviation="2"/>
<feComposite in2="hardAlpha" operator="out"/>
<feColorMatrix type="matrix" values="0 0 0 0 0 0 0 0 0 0 0 0 0 0 0 0 0 0 0.25 0"/>
<feBlend mode="normal" in2="BackgroundImageFix" result="effect1_dropShadow_62_4958"/>
<feBlend mode="normal" in="SourceGraphic" in2="effect1_dropShadow_62_4958" result="shape"/>
</filter>
</defs>
</svg>
