<svg width="69" height="73" viewBox="0 0 69 73" fill="none" xmlns="http://www.w3.org/2000/svg">
<g clip-path="url(#clip0_62_4968)" filter="url(#filter0_d_62_4968)">
<path fill-rule="evenodd" clip-rule="evenodd" d="M36.8106 16.148C36.8106 15.04 37.6226 14.1387 38.6213 14.1387C39.6213 14.1387 40.4319 15.04 40.4319 16.148V24.856H46.2906C49.7999 24.856 50.8786 27.088 48.6986 29.8387L38.9493 42.136C36.7693 44.8867 33.2306 44.8867 31.0506 42.136L21.3013 29.8387C19.1213 27.088 20.1999 24.856 23.7093 24.856H29.5679V4.00933C29.5679 2.9 30.3786 2 31.3786 2C32.3773 2 33.1893 2.9 33.1893 4.00933V28.8747H27.3626C26.6613 28.8747 26.4199 29.3387 26.8266 29.912L34.2639 40.4013C34.6706 40.9747 35.3293 40.9747 35.7359 40.4013L43.1733 29.912C43.5799 29.3387 43.3386 28.8747 42.6373 28.8747H36.8106V16.148Z" fill="#9FEF00"/>
<path fill-rule="evenodd" clip-rule="evenodd" d="M58.7092 20.9066L53.7199 23.7226C52.3505 24.5852 50.5425 24.1759 49.6852 22.8106C48.8265 21.4466 49.2359 19.6453 50.5972 18.7906L56.2905 15.5666L41.9385 7.69325C40.5265 6.83458 40.0705 4.99058 40.9212 3.57858C41.7719 2.16658 43.6092 1.71058 45.0199 2.56125L62.0799 12.0706C63.5212 12.8746 64.6932 14.8679 64.6932 16.5186V37.5399C64.6932 39.1919 63.3679 40.3626 61.7359 40.1546C60.0652 39.9399 58.7092 38.3933 58.7092 36.7026V20.9066ZM9.99718 20.9306V44.7746L30.8359 56.8039L30.9852 50.6733C31.0252 49.0626 32.3652 47.7879 33.9759 47.8279C35.5865 47.8693 36.8625 49.2093 36.8225 50.8199L36.6785 56.7253L50.3012 49.0639C51.6465 48.0973 53.5212 48.4026 54.4825 49.7439C55.4439 51.0853 55.1332 52.9599 53.7865 53.9253L36.5892 64.0333C35.1665 64.8693 32.8492 64.8786 31.4185 64.0533L31.0065 63.8146L30.6638 63.8066L30.6692 63.6199L5.12118 48.8706C4.97585 48.8079 4.84252 48.7266 4.72118 48.6266C4.70652 48.6226 4.69718 48.6159 4.69318 48.6079C4.27718 48.3213 4.07318 47.9666 4.11185 47.6119C4.04652 47.3773 4.01318 47.1119 4.01318 46.8213V16.5186C4.01318 14.8679 5.18385 12.8746 6.62652 12.0706L23.6852 2.56125C25.0972 1.71058 26.9345 2.16658 27.7838 3.57858C28.6345 4.99058 28.1785 6.83458 26.7665 7.69325L12.4359 15.5546L17.9105 19.1119C19.2638 19.9892 19.6492 21.7999 18.7719 23.1532C17.8932 24.5066 16.0825 24.8919 14.7292 24.0146L9.99718 20.9306Z" fill="#A4B1CD"/>
</g>
<defs>
<filter id="filter0_d_62_4968" x="-1" y="0.666626" width="72" height="72" filterUnits="userSpaceOnUse" color-interpolation-filters="sRGB">
<feFlood flood-opacity="0" result="BackgroundImageFix"/>
<feColorMatrix in="SourceAlpha" type="matrix" values="0 0 0 0 0 0 0 0 0 0 0 0 0 0 0 0 0 0 127 0" result="hardAlpha"/>
<feOffset dy="4"/>
<feGaussianBlur stdDeviation="2"/>
<feComposite in2="hardAlpha" operator="out"/>
<feColorMatrix type="matrix" values="0 0 0 0 0 0 0 0 0 0 0 0 0 0 0 0 0 0 0.25 0"/>
<feBlend mode="normal" in2="BackgroundImageFix" result="effect1_dropShadow_62_4968"/>
<feBlend mode="normal" in="SourceGraphic" in2="effect1_dropShadow_62_4968" result="shape"/>
</filter>
<clipPath id="clip0_62_4968">
<rect width="64" height="64" fill="white" transform="translate(3 0.666626)"/>
</clipPath>
</defs>
</svg>
