<svg width="64" height="64" viewBox="0 0 64 64" fill="none" xmlns="http://www.w3.org/2000/svg">
<path fill-rule="evenodd" clip-rule="evenodd" d="M44.645 53.973L43.7463 54.4397C40.1197 56.3463 36.093 57.333 31.9997 57.333C28.053 57.333 24.1597 56.413 20.6397 54.6397C19.3223 53.977 17.7157 54.509 17.053 55.8263C16.3903 57.1437 16.9223 58.7503 18.2397 59.413C22.5063 61.5597 27.2263 62.6663 31.9997 62.6663C36.6397 62.6663 41.2103 61.6157 45.3717 59.5983C45.1517 60.9983 46.077 62.3343 47.4797 62.613C48.9223 62.8997 50.3263 61.9623 50.613 60.5197L51.8237 54.4677C52.1117 53.025 51.277 51.3197 49.9597 50.6623L45.1863 48.2797C43.877 47.625 42.2783 48.1597 41.6197 49.473C40.961 50.7863 41.4957 52.3903 42.813 53.053L44.645 53.973ZM15.6397 6.05967L15.7997 5.95967C20.6663 2.93301 26.2797 1.33301 31.9997 1.33301C37.1863 1.33301 42.293 2.65301 46.8397 5.15967C48.1277 5.87301 48.593 7.49834 47.8797 8.78634C47.1663 10.0743 45.541 10.5397 44.253 9.82634C40.5063 7.74634 36.293 6.66634 31.9997 6.66634C27.2863 6.66634 22.6783 7.97567 18.6757 10.4623L19.653 10.853C21.0223 11.405 21.6877 12.961 21.1397 14.3263C20.5917 15.6917 19.041 16.357 17.6797 15.813L11.4223 13.3103C10.0557 12.7637 9.18101 11.1477 9.47034 9.70501L10.7197 3.47967C11.0063 2.03701 12.4103 1.09967 13.853 1.38634C15.2957 1.67301 16.233 3.07701 15.9463 4.51967L15.6397 6.05967ZM9.71968 44.0663C10.4263 45.361 9.94767 46.9837 8.65301 47.6863C7.35834 48.389 5.73834 47.9077 5.03967 46.613C2.59967 42.133 1.33301 37.1063 1.33301 31.9997C1.33301 28.1063 2.06634 24.253 3.50634 20.653C4.05034 19.2837 5.60367 18.6157 6.97301 19.1597C8.34234 19.7037 9.01034 21.257 8.46634 22.6263C7.26634 25.5997 6.66634 28.7863 6.66634 31.9997C6.66634 36.213 7.71967 40.3597 9.71968 44.0663ZM55.7463 23.1463C55.2317 21.7703 55.933 20.2343 57.313 19.7197C58.693 19.205 60.2317 19.909 60.7463 21.293C62.013 24.7197 62.6663 28.3463 62.6663 31.9997C62.6663 36.8263 61.533 41.5997 59.333 45.9063C58.6703 47.2157 57.0663 47.7357 55.753 47.0663C54.4397 46.397 53.917 44.789 54.5863 43.4797C56.3997 39.9197 57.333 35.9863 57.333 31.9997C57.333 28.973 56.7997 25.9863 55.7463 23.1463ZM9.71968 52.1463C9.71968 50.6743 10.9143 49.4797 12.3863 49.4797C13.8583 49.4797 15.053 50.6743 15.053 52.1463C15.053 53.6183 13.8583 54.813 12.3863 54.813C10.9143 54.813 9.71968 53.6183 9.71968 52.1463ZM50.093 13.7863C50.093 12.3143 51.2877 11.1197 52.7597 11.1197C54.2317 11.1197 55.4263 12.3143 55.4263 13.7863C55.4263 15.2583 54.2317 16.453 52.7597 16.453C51.2877 16.453 50.093 15.2583 50.093 13.7863ZM21.333 31.9997C21.333 29.173 22.453 26.453 24.453 24.453C26.453 22.453 29.173 21.333 31.9997 21.333C34.8263 21.333 37.5463 22.453 39.5463 24.453C41.5463 26.453 42.6663 29.173 42.6663 31.9997C42.6663 34.8263 41.5463 37.5463 39.5463 39.5463C37.5463 41.5463 34.8263 42.6663 31.9997 42.6663C29.173 42.6663 26.453 41.5463 24.453 39.5463C22.453 37.5463 21.333 34.8263 21.333 31.9997ZM15.9997 31.9997C15.9997 27.7597 17.693 23.6797 20.6797 20.6797C23.6797 17.693 27.7597 15.9997 31.9997 15.9997C36.2397 15.9997 40.3197 17.693 43.3197 20.6797C46.3063 23.6797 47.9997 27.7597 47.9997 31.9997C47.9997 36.2397 46.3063 40.3197 43.3197 43.3197C40.3197 46.3063 36.2397 47.9997 31.9997 47.9997C27.7597 47.9997 23.6797 46.3063 20.6797 43.3197C17.693 40.3197 15.9997 36.2397 15.9997 31.9997Z" fill="#9FEF00"/>
</svg>
