<svg width="72" height="72" viewBox="0 0 72 72" fill="none" xmlns="http://www.w3.org/2000/svg">
<g clip-path="url(#clip0_54_3560)" filter="url(#filter0_d_54_3560)">
<path fill-rule="evenodd" clip-rule="evenodd" d="M23.2656 40.2761L25.7723 43.1974L42.1429 29.2041L46.1136 33.8481C46.5629 34.3734 47.0363 34.2494 47.1723 33.5721L49.6056 21.3734C49.7403 20.6948 49.2896 20.1681 48.5989 20.1961L36.1696 20.7014C35.4803 20.7294 35.2829 21.1788 35.7323 21.7041L39.7029 26.3481L30.6616 34.0774C29.8736 34.7508 28.6869 34.6574 28.0136 33.8694C27.3403 33.0814 27.4323 31.8948 28.2203 31.2214L34.4069 25.9334L30.2416 21.0614C27.9963 18.4348 28.9789 16.3414 32.4336 16.3908L47.6256 16.6068C51.0803 16.6561 53.4883 19.4721 52.9989 22.8934L50.8483 37.9334C50.3589 41.3548 48.1389 41.9988 45.8936 39.3721L41.7283 34.4988L26.9176 47.1601C26.4123 47.5921 25.6483 47.5974 24.9136 47.2548C24.4309 47.1054 23.9789 46.8281 23.6269 46.4174L19.7909 41.9494C19.4109 41.5054 19.2016 40.9734 19.1563 40.4348C18.9803 39.6988 19.1176 39.0028 19.5963 38.5948L23.4776 34.8881C24.2656 34.2148 25.4523 34.3081 26.1256 35.0961C26.7989 35.8841 26.7056 37.0708 25.9189 37.7441L23.2656 40.2761ZM61.5136 35.5361C61.7269 33.9788 63.1669 32.8854 64.7269 33.0961C66.2869 33.3054 67.3803 34.7441 67.1669 36.3081C66.1043 44.1441 62.1109 51.3014 55.9896 56.3281C49.8696 61.3414 42.0723 63.8668 34.1723 63.3854C25.8736 62.8788 18.1043 59.0908 12.5829 52.8681C7.0776 46.6334 4.2616 38.4601 4.76693 30.1628C5.27226 21.8641 9.06026 14.0948 15.2829 8.57343C21.5189 3.06809 29.6909 0.250759 37.9896 0.757426C39.5603 0.853426 40.7589 2.20676 40.6629 3.77743C40.5669 5.34809 39.2136 6.54676 37.6429 6.45076C30.8536 6.03609 24.1696 8.34409 19.0656 12.8468C13.9763 17.3654 10.8736 23.7201 10.4603 30.5094C10.0469 37.2988 12.3536 43.9828 16.8576 49.0854C21.3763 54.1761 27.7296 57.2774 34.5189 57.6921C40.9816 58.0854 47.3643 56.0308 52.3723 51.9228C57.3803 47.8134 60.6376 41.9534 61.5136 35.5361ZM49.3776 10.1094C48.0309 9.29343 47.6003 7.53876 48.4163 6.19343C49.2309 4.84676 50.9856 4.41609 52.3323 5.23209C58.0629 8.70943 62.5443 13.9401 65.0949 20.1388C65.7003 21.5948 65.0096 23.2654 63.5536 23.8668C62.0976 24.4681 60.4243 23.7734 59.8189 22.3174C57.7296 17.2321 54.0749 12.9668 49.3776 10.1094Z" fill="#9FEF00"/>
</g>
<defs>
<filter id="filter0_d_54_3560" x="0" y="0" width="72" height="72" filterUnits="userSpaceOnUse" color-interpolation-filters="sRGB">
<feFlood flood-opacity="0" result="BackgroundImageFix"/>
<feColorMatrix in="SourceAlpha" type="matrix" values="0 0 0 0 0 0 0 0 0 0 0 0 0 0 0 0 0 0 127 0" result="hardAlpha"/>
<feOffset dy="4"/>
<feGaussianBlur stdDeviation="2"/>
<feComposite in2="hardAlpha" operator="out"/>
<feColorMatrix type="matrix" values="0 0 0 0 0 0 0 0 0 0 0 0 0 0 0 0 0 0 0.25 0"/>
<feBlend mode="normal" in2="BackgroundImageFix" result="effect1_dropShadow_54_3560"/>
<feBlend mode="normal" in="SourceGraphic" in2="effect1_dropShadow_54_3560" result="shape"/>
</filter>
<clipPath id="clip0_54_3560">
<rect width="64" height="64" fill="white" transform="translate(4)"/>
</clipPath>
</defs>
</svg>
