<svg width="64" height="64" viewBox="0 0 64 64" fill="none" xmlns="http://www.w3.org/2000/svg">
<g clip-path="url(#clip0_53_3357)">
<path fill-rule="evenodd" clip-rule="evenodd" d="M29.8895 57.6957C31.4548 57.8277 32.6215 59.209 32.4935 60.7784C32.3641 62.3464 30.9828 63.513 29.4108 63.381C21.5308 62.725 14.1761 59.1077 8.83879 53.2557C3.51479 47.4037 0.589454 39.7477 0.661454 31.833C0.736121 23.5197 4.11745 15.565 10.0455 9.72905C15.9868 3.90638 24.0028 0.671715 32.3161 0.746382C40.6295 0.821048 48.5841 4.20238 54.4201 10.1304C60.2415 16.0717 63.4775 24.0877 63.4028 32.4011C63.3881 33.9744 62.0988 35.241 60.5255 35.2264C58.9508 35.213 57.6841 33.9237 57.6988 32.349C57.7601 25.5477 55.1108 18.9917 50.3481 14.129C45.5721 9.27972 39.0655 6.51172 32.2641 6.45038C25.4628 6.38905 18.9068 9.03838 14.0441 13.801C9.19479 18.577 6.42679 25.0837 6.36546 31.885C6.30679 38.3584 8.68812 44.6264 13.0521 49.4144C17.4148 54.2024 23.4348 57.1517 29.8895 57.6957ZM54.6535 44.2584C55.3975 42.8717 57.1281 42.3504 58.5148 43.0944C59.9001 43.8397 60.4215 45.569 59.6775 46.9557C56.5015 52.8597 51.5095 57.6064 45.4508 60.4744C44.0281 61.1544 42.3241 60.5504 41.6495 59.1277C40.9735 57.7051 41.5801 55.9984 43.0028 55.3184C47.9721 52.9677 52.0428 49.0971 54.6535 44.2584ZM22.6935 24.0397C22.6935 27.8664 24.2135 31.533 26.9201 34.2264C29.6268 36.933 33.2935 38.453 37.1068 38.453C39.6801 38.453 42.1868 37.7731 44.4001 36.4664C43.4135 38.9464 41.7068 41.0797 39.4935 42.5864C37.2801 44.0931 34.6668 44.893 32.0001 44.893C28.4668 44.893 25.0668 43.4797 22.5735 40.9864C20.0668 38.4797 18.6668 35.093 18.6668 31.5597C18.6668 27.8797 20.1868 24.3597 22.8668 21.8397C22.7468 22.573 22.6935 23.3064 22.6935 24.0397ZM28.0001 17.9597C26.6935 19.7064 26.6935 21.8397 26.6935 24.0264C26.6935 24.0397 26.6935 24.0397 26.6935 24.0397C26.6935 26.7997 27.8001 29.453 29.7468 31.3997C31.7068 33.3597 34.3468 34.453 37.1068 34.453C40.5335 34.453 43.7468 32.7464 45.6668 29.9064C46.1468 29.1864 47.0535 28.853 47.8935 29.1064C48.7335 29.3597 49.3068 30.1197 49.3201 30.9864L49.3335 31.5197C49.3335 31.533 49.3335 31.5464 49.3335 31.5597C49.3335 36.1464 47.5068 40.5597 44.2535 43.8131C41.0135 47.0664 36.6001 48.893 32.0001 48.893C27.4001 48.893 22.9868 47.0664 19.7468 43.8131C16.4935 40.5597 14.6668 36.1464 14.6668 31.5597C14.6668 26.613 16.7735 21.9064 20.4668 18.613C24.1468 15.333 29.3201 16.213 28.0001 17.9597Z" fill="#9FEF00"/>
</g>
<defs>
<clipPath id="clip0_53_3357">
<rect width="64" height="64" fill="white"/>
</clipPath>
</defs>
</svg>
