<svg width="512" height="512" viewBox="0 0 512 512" fill="none" xmlns="http://www.w3.org/2000/svg">
<path d="M451.23 140.192C451.031 132.281 450.831 124.37 450.632 116.459C448.736 112.754 445.543 107.547 440.354 102.44C436.163 98.3344 431.972 95.5306 428.679 93.7281C423.39 90.6239 418.501 88.2206 414.41 86.4181C402.535 81.0107 399.442 81.5114 397.546 82.0121C392.956 83.414 390.261 87.82 388.864 90.724C366.812 130.078 344.759 169.432 322.806 208.785C331.687 211.589 340.568 214.393 349.449 217.097L368.608 175.34L413.611 175.84C416.904 175.64 428.579 174.539 438.757 164.925C449.035 155.312 450.831 143.396 451.23 140.192ZM427.482 140.993C418.8 155.813 385.172 149.604 385.172 149.604L404.431 108.348C404.431 108.248 436.263 126.172 427.482 140.993Z" fill="#A4B1CD"/>
<path d="M156.464 91.2247C156.464 91.2247 125.73 27.838 172.23 29.5403C218.83 31.2427 221.325 65.3894 221.325 65.3894L203.862 69.5951C203.862 69.5951 192.187 42.8585 179.714 49.5677C167.241 56.2769 167.241 77.9065 173.028 83.8145C178.916 89.5223 156.464 91.2247 156.464 91.2247Z" fill="#141D2B"/>
<path d="M71.7458 150.406C104.875 96.6321 208.751 53.8736 323.605 10.8148C343.362 16.7228 352.443 30.742 355.237 49.4676C295.266 95.831 200.07 144.598 95.894 193.765C80.9261 187.556 73.3424 172.536 71.7458 150.406Z" fill="#141D2B"/>
<path d="M185.302 73.4003L196.777 64.9888C198.573 63.687 200.868 63.7872 202.565 65.0889L269.621 118.662C271.517 120.164 272.016 122.768 270.818 124.771L263.933 137.087C262.436 139.691 259.044 140.392 256.748 138.489L239.685 124.67C237.39 122.868 234.097 123.469 232.501 125.872L188.096 199.172C186.998 200.975 185.003 201.776 182.907 201.375L159.358 196.168C155.965 195.467 154.468 191.462 156.464 188.658L206.756 118.162C207.953 116.459 207.953 114.256 206.756 112.554L184.005 80.0093C182.708 77.9065 183.107 74.9024 185.302 73.4003Z" fill="#A4B1CD"/>
<path d="M346.056 110.351C347.753 107.948 348.252 105.845 348.352 104.543C348.85 99.0354 345.158 93.4277 338.972 90.1232C336.278 87.82 326.898 80.4099 312.828 80.1095C299.956 79.8091 290.975 85.5169 287.881 87.6198C282.992 90.9243 250.661 113.755 247.169 154.611C245.273 176.742 252.657 194.065 256.848 202.176H314.524C319.613 202.977 324.603 203.879 329.692 204.68C339.57 186.855 339.87 170.533 332.585 164.725C326.997 160.319 315.522 161.02 312.429 165.927C310.233 169.532 313.726 173.337 311.83 177.342C309.335 182.55 299.956 183.251 292.072 182.95C268.523 175.64 265.13 161.421 277.105 142.094C286.085 124.871 295.565 108.649 309.535 103.742L322.806 112.053C331.089 118.162 338.872 117.561 346.056 110.351Z" fill="#A4B1CD"/>
<path d="M101.547 191.738H390.826C395.815 289.973 396.912 381.197 390.826 459.504C300.719 483.137 208.517 483.637 114.02 459.504C99.4515 379.595 97.5556 288.37 101.547 191.738Z" fill="#9FEF00"/>
<path d="M118.246 487.466C210.548 504.39 302.749 505.691 395.051 491.672V453.62C305.943 478.054 213.541 477.052 118.246 453.62V487.466Z" fill="#A4B1CD"/>
<path d="M155.665 228.412C155.566 261.558 146.984 356.688 167.34 379.319C169.536 381.922 172.429 383.825 175.623 384.826C172.23 384.526 168.737 383.024 166.043 380.721C137.704 355.386 147.184 263.16 155.665 228.412Z" fill="#141D2B"/>
<path d="M225.515 228.412C228.609 265.463 229.307 363.297 251.16 389.132C253.455 391.836 256.349 394.139 259.842 395.441C256.15 394.84 252.657 392.937 249.863 390.434C219.927 362.696 220.227 267.666 225.515 228.412Z" fill="#141D2B"/>
<path d="M286.584 228.412C298.858 239.527 308.337 253.647 315.722 268.567C330.59 298.608 334.781 333.957 327.496 366.701C323.904 383.024 317.917 398.745 309.734 413.065C323.305 376.014 328.893 338.363 320.012 299.61C314.025 273.874 302.65 249.341 286.584 228.412Z" fill="#141D2B"/>
<path d="M336.477 228.412C370.704 280.884 379.285 351.881 348.751 407.958C369.606 345.172 361.922 288.294 336.477 228.412Z" fill="#141D2B"/>
</svg>
