<svg width="64" height="65" viewBox="0 0 64 65" fill="none" xmlns="http://www.w3.org/2000/svg">
<path fill-rule="evenodd" clip-rule="evenodd" d="M21.4639 49.8839C21.3679 49.9106 21.2665 49.9239 21.1625 49.9239H5.47987C3.81453 49.9239 2.46387 48.5733 2.46387 46.9079V35.4479C2.46387 34.7826 3.00387 34.2413 3.6692 34.2413C4.33587 34.2413 4.87587 34.7826 4.87587 35.4479V45.7013C4.87587 46.6999 5.68653 47.5119 6.6852 47.5119H21.1625C21.2665 47.5119 21.3679 47.5253 21.4639 47.5519C21.5585 47.5253 21.6599 47.5119 21.7652 47.5119H23.5745C24.5732 47.5119 25.3839 46.6999 25.3839 45.7013V43.8919C25.3839 43.2266 25.9252 42.6866 26.5905 42.6866C27.2559 42.6866 27.7972 43.2266 27.7972 43.8919V46.9079C27.7972 48.5733 26.4452 49.9239 24.7812 49.9239H21.7652C21.6599 49.9239 21.5585 49.9106 21.4639 49.8839ZM17.2732 34.0426H21.5585V29.7573H8.7012V34.0426H12.9879V44.7573H17.2732V34.0426ZM41.7825 11.0519C41.7825 9.97192 42.2092 8.93192 42.9692 8.17192C43.7292 7.41192 44.7692 6.98525 45.8492 6.98525C46.9292 6.98525 47.9559 7.41192 48.7159 8.17192C49.4759 8.93192 49.9025 9.97192 49.9025 11.0519C49.9025 12.1186 49.4759 13.1586 48.7159 13.9186C47.9559 14.6786 46.9292 15.1053 45.8492 15.1053C44.7692 15.1053 43.7292 14.6786 42.9692 13.9186C42.2092 13.1586 41.7825 12.1186 41.7825 11.0519ZM32.3665 28.2253C32.3665 26.5719 33.0199 24.9853 34.1932 23.8119C35.3665 22.6386 36.9532 21.9853 38.6065 21.9853C40.2599 21.9853 41.8465 22.6386 43.0199 23.8119C44.1932 24.9853 44.8465 26.5719 44.8465 28.2253C44.8465 29.8786 44.1932 31.4653 43.0199 32.6386C41.8465 33.8119 40.2599 34.4653 38.6065 34.4653C36.9532 34.4653 35.3665 33.8119 34.1932 32.6386C33.0199 31.4653 32.3665 29.8786 32.3665 28.2253ZM8.49587 27.0039C9.1612 27.0039 9.7012 26.4626 9.7012 25.7973C9.7012 25.1319 9.1612 24.5906 8.49587 24.5906H5.47987C3.81453 24.5906 2.46387 25.9426 2.46387 27.6066V30.6226C2.46387 31.2879 3.00387 31.8293 3.6692 31.8293C4.33587 31.8293 4.87587 31.2879 4.87587 30.6226V28.8133C4.87587 27.8146 5.68653 27.0039 6.6852 27.0039H8.49587ZM25.3839 38.4639C25.3839 39.1293 25.9252 39.6706 26.5905 39.6706C27.2559 39.6706 27.7972 39.1293 27.7972 38.4639V27.6066C27.7972 25.9426 26.4452 24.5906 24.7812 24.5906H13.9239C13.2585 24.5906 12.7172 25.1319 12.7172 25.7973C12.7172 26.4626 13.2585 27.0039 13.9239 27.0039H23.5745C24.5732 27.0039 25.3839 27.8146 25.3839 28.8133V38.4639ZM33.8799 37.3079L34.9305 38.0506L55.2692 52.4333C55.7065 52.7426 56.0612 53.4279 56.0612 53.9626V56.8333C56.0612 57.3679 55.6265 57.8026 55.0905 57.8026H22.1212C21.5865 57.8026 21.1519 57.3679 21.1519 56.8333V54.3946C21.1519 53.6586 20.5545 53.0506 19.8185 53.0373L18.6065 53.0159C17.8705 53.0039 17.2732 53.5906 17.2732 54.3266V58.7733C17.2732 60.3786 18.5759 61.6813 20.1825 61.6813H57.0305C58.6359 61.6813 59.9399 60.3786 59.9399 58.7733V53.8853C59.9399 52.2799 58.8745 50.2239 57.5639 49.2973L41.5999 38.0173C43.1892 37.5319 44.6492 36.6613 45.8465 35.4653C47.7665 33.5453 48.8465 30.9453 48.8465 28.2253C48.8465 25.5186 47.7665 22.9053 45.8465 20.9853C43.9265 19.0653 41.3265 17.9853 38.6065 17.9853C35.8865 17.9853 33.2865 19.0653 31.3665 20.9853C29.4465 22.9053 28.3665 25.5186 28.3665 28.2253C28.3665 30.9453 29.4465 33.5453 31.3665 35.4653C32.1119 36.2106 32.9612 36.8306 33.8799 37.3079ZM48.5865 18.6279L59.7892 26.5439C60.7532 27.2253 61.5359 28.7373 61.5359 29.9173V33.5119C61.5359 34.6933 60.5772 35.6519 59.3972 35.6519H51.6759C50.9399 35.6519 50.3425 35.0546 50.3425 34.3186V34.1319C50.3425 33.3959 50.9399 32.7986 51.6759 32.7986H57.9705C58.3639 32.7986 58.6839 32.4786 58.6839 32.0853V29.9746C58.6839 29.5813 58.4225 29.0773 58.1012 28.8493L44.0319 18.8999C42.5719 18.5653 41.2252 17.8266 40.1425 16.7453C38.6359 15.2386 37.7825 13.1853 37.7825 11.0519C37.7825 8.90525 38.6359 6.85192 40.1425 5.34525C41.6625 3.83859 43.7025 2.98525 45.8492 2.98525C47.9825 2.98525 50.0359 3.83859 51.5425 5.34525C53.0625 6.85192 53.9025 8.90525 53.9025 11.0519C53.9025 13.1853 53.0625 15.2386 51.5425 16.7453C50.7012 17.5946 49.6879 18.2319 48.5865 18.6279Z" fill="#9FEF00"/>
</svg>
