<svg width="64" height="64" viewBox="0 0 64 64" fill="none" xmlns="http://www.w3.org/2000/svg">
<g clip-path="url(#clip0_1_30)">
<path fill-rule="evenodd" clip-rule="evenodd" d="M43.8893 9.26933C42.4973 8.53733 41.96 6.812 42.692 5.41867C43.424 4.02667 45.1493 3.48933 46.5427 4.22133C52.4747 7.344 57.2653 12.292 60.1893 18.324C60.8813 19.7413 60.2933 21.4507 58.8773 22.1387C57.46 22.828 55.748 22.2373 55.056 20.82C52.66 15.872 48.752 11.836 43.8893 9.26933ZM31.756 6C33.2267 5.992 34.416 4.792 34.4093 3.32C34.4013 1.848 33.2 0.658666 31.7293 0.666666C24.0493 0.706666 16.6493 3.57333 10.9427 8.70667C5.236 13.8533 1.60933 20.9067 0.769333 28.5467C0.606666 30.0107 1.664 31.332 3.12933 31.4933C4.59333 31.6547 5.91333 30.5973 6.076 29.1333C6.76933 22.8 9.78267 16.9333 14.516 12.68C19.2493 8.41333 25.3827 6.04 31.756 6ZM7.64933 41.3333C7.11867 39.9573 5.572 39.2707 4.196 39.8C2.81867 40.3293 2.132 41.8773 2.66267 43.2533C5.20933 49.8267 9.88933 55.36 15.956 58.96C17.2213 59.7107 18.8587 59.292 19.6093 58.0267C20.36 56.7613 19.9413 55.124 18.676 54.3733C13.636 51.3867 9.756 46.8 7.64933 41.3333ZM31.076 57.9867C29.604 57.964 28.3907 59.1413 28.3693 60.6133C28.3467 62.0853 29.524 63.2973 30.996 63.32L31.876 63.3333C31.8893 63.3333 31.9027 63.3333 31.916 63.3333C39.796 63.3333 47.396 60.36 53.1827 55.0133C58.9693 49.6667 62.5427 42.32 63.156 34.4667C63.2653 33.0027 62.1667 31.7173 60.7027 31.6C59.2373 31.4827 57.9533 32.5813 57.836 34.0533C57.3293 40.56 54.3693 46.6533 49.5693 51.0933C44.7693 55.5333 38.476 58 31.9427 58L31.076 57.9867ZM22.6667 28.6667L24 20.6667L9.33333 32.6667L24 43.3333L22.6667 35.3333H41.3333L40 43.3333L54.6667 32.6667L40 20.6667L41.3333 28.6667H32H22.6667Z" fill="#9FEF00"/>
</g>
<defs>
<clipPath id="clip0_1_30">
<rect width="64" height="64" fill="white"/>
</clipPath>
</defs>
</svg>
