<svg width="71" height="70" viewBox="0 0 71 70" fill="none" xmlns="http://www.w3.org/2000/svg">
<g filter="url(#filter0_d_62_4973)">
<path fill-rule="evenodd" clip-rule="evenodd" d="M44.208 9.82799C45.744 9.82799 46.992 8.57999 46.992 7.04266C46.992 5.50532 45.744 4.25732 44.208 4.25732H9.57067C6.496 4.25732 4 6.75332 4 9.82799V43.2493C4 46.324 6.496 48.82 9.57067 48.82H18.984L24.5613 59.9627C25.2493 61.3373 26.556 61.4547 27.4787 60.2253L36.0293 48.82H40.208C41.744 48.82 42.992 47.572 42.992 46.0347C42.992 44.4973 41.744 43.2493 40.208 43.2493H33.244L26.7547 51.8973L22.4373 43.2493H12.356C10.8187 43.2493 9.57067 42.0013 9.57067 40.4653V12.6133C9.57067 11.076 10.8187 9.82799 12.356 9.82799H44.208ZM51.348 43.2493C49.8107 43.2493 48.5627 44.4973 48.5627 46.0347C48.5627 47.572 49.8107 48.82 51.348 48.82H61.096C64.1707 48.82 66.6667 46.324 66.6667 43.2493V23.1613C66.6667 21.6893 65.472 20.4947 64 20.4947H63.7627C62.2907 20.4947 61.096 21.6893 61.096 23.1613V40.4653C61.096 42.0013 59.848 43.2493 58.3107 43.2493H51.348Z" fill="#9FEF00"/>
<path d="M51.3481 10.9293C51.3481 7.24666 54.3361 4.25732 58.0148 4.25732C61.6948 4.25732 64.6815 7.24666 64.6815 10.9293C64.6815 14.612 61.6948 17.6013 58.0148 17.6013C54.3361 17.6013 51.3481 14.612 51.3481 10.9293Z" fill="#A4B1CD"/>
</g>
<defs>
<filter id="filter0_d_62_4973" x="-0.666504" y="0.666626" width="72" height="72" filterUnits="userSpaceOnUse" color-interpolation-filters="sRGB">
<feFlood flood-opacity="0" result="BackgroundImageFix"/>
<feColorMatrix in="SourceAlpha" type="matrix" values="0 0 0 0 0 0 0 0 0 0 0 0 0 0 0 0 0 0 127 0" result="hardAlpha"/>
<feOffset dy="4"/>
<feGaussianBlur stdDeviation="2"/>
<feComposite in2="hardAlpha" operator="out"/>
<feColorMatrix type="matrix" values="0 0 0 0 0 0 0 0 0 0 0 0 0 0 0 0 0 0 0.25 0"/>
<feBlend mode="normal" in2="BackgroundImageFix" result="effect1_dropShadow_62_4973"/>
<feBlend mode="normal" in="SourceGraphic" in2="effect1_dropShadow_62_4973" result="shape"/>
</filter>
</defs>
</svg>
