<svg width="64" height="64" viewBox="0 0 64 64" fill="none" xmlns="http://www.w3.org/2000/svg">
<path d="M46.28 48.4267H46.4667C48.0267 48.4267 49.56 48.16 51.0267 47.64C52.36 47.16 53.5867 46.4533 54.68 45.5333C55.6533 44.7067 56.4667 43.6933 57.0533 42.5467C57.6 41.4533 57.8933 40.2533 57.9067 39.04V38.9467C57.9067 37.5467 57.5333 36.1733 56.8533 34.96C55.6533 32.88 53.76 31.28 52.7587 30.912C52.068 30.6587 51.904 30.0067 52.392 29.4573C53.2133 28.5333 54.16 26.0533 54.1733 23.48C54.1733 22.7333 54.08 21.9867 53.92 21.2667C53.4133 19.0267 52.1333 17.0267 50.3067 15.6267C48.4533 14.2133 46.1867 13.4533 43.84 13.4667C42.92 13.4667 42.0133 13.5733 41.12 13.8C38.4978 14.4489 36.228 16.3004 34.3107 19.3547C33.528 20.6013 32.3453 20.5507 31.672 19.2427C30.7173 17.392 29.3556 16.08 27.5867 15.3067C26.2267 14.7067 24.76 14.4 23.2667 14.4133C22.32 14.4133 21.3733 14.52 20.4533 14.7467C18.0533 15.3333 15.8933 16.68 14.3067 18.5867C12.8533 20.3067 12.0533 22.4667 12.0267 24.7067C12.0267 25.3467 12.0933 25.9733 12.24 26.6C12.44 27.56 12.8933 28.44 12.8933 28.44C13.2467 28.852 12.98 29.4107 12.2973 29.688C11.1333 30.16 9.16001 31.92 7.92001 34.1733C7.10668 35.6533 6.66668 37.3067 6.66668 39C6.66668 39.7067 6.74668 40.4 6.89334 41.0933C7.40001 43.2667 8.64001 45.2 10.4267 46.5467C12.28 47.9333 14.5333 48.6667 16.8533 48.6533C17.3067 48.6533 17.76 48.6267 18.2267 48.5733C19.684 48.3973 21.0107 49.4387 21.1867 50.9C21.3627 52.3613 20.324 53.6907 18.8667 53.8667C18.2 53.9467 17.5333 53.9867 16.8667 53.9867C13.3867 54.0133 10.0133 52.8933 7.22668 50.8133C4.44001 48.7067 2.46668 45.68 1.69334 42.28C1.45334 41.2 1.33334 40.0933 1.33334 38.9867C1.33334 36.4 2.00001 33.8667 3.24001 31.6C4.18668 29.8933 5.42668 28.36 6.89334 27.08C6.76001 26.2933 6.69334 25.48 6.69334 24.68C6.72001 21.2 7.97334 17.8267 10.2267 15.16C12.5333 12.3867 15.68 10.4267 19.1867 9.57333C20.52 9.24 21.88 9.08 23.2533 9.08C25.48 9.06667 27.6933 9.53333 29.7333 10.4267C30.84 10.9067 31.88 11.5333 32.8267 12.2667C34.84 10.5067 37.24 9.26667 39.84 8.62667C41.1467 8.29333 42.48 8.13333 43.84 8.13333C47.3467 8.12 50.76 9.26667 53.5467 11.4C56.3733 13.5467 58.3467 16.6267 59.12 20.0933C59.3733 21.2 59.5067 22.3467 59.5067 23.48C59.4933 25.2533 59.2 27.0133 58.6133 28.6933C59.7467 29.7467 60.7067 30.9733 61.48 32.32C62.6267 34.3333 63.2267 36.6133 63.24 38.9333C63.24 38.9467 63.24 38.9467 63.24 38.96V39.0667C63.24 39.08 63.24 39.08 63.24 39.0933C63.2133 41.1333 62.72 43.1333 61.8133 44.96C60.8933 46.7467 59.64 48.32 58.1067 49.6133C56.5467 50.9333 54.7467 51.9733 52.8133 52.6533C50.7733 53.3867 48.6267 53.76 46.4533 53.76C46.4533 53.76 46.4533 53.76 46.44 53.76H46.2533C45.32 53.7467 44.3867 53.6667 43.48 53.4933C42.0307 53.2213 41.0747 51.8267 41.3467 50.38C41.6187 48.9333 43.0107 47.9813 44.4533 48.2533C45.0533 48.36 45.6667 48.4133 46.28 48.4267Z" fill="#9FEF00"/>
<path d="M22 31.84C20.9987 31.376 20.5627 30.188 21.0267 29.1867C21.4907 28.1853 22.6787 27.7493 23.68 28.2133L30.1467 31.22C32.148 32.1507 32.3373 33.98 30.5693 35.3013L24.4267 39.8933C23.544 40.556 22.2893 40.3733 21.6267 39.4867C20.964 38.6 21.144 37.348 22.0267 36.6933L26.0133 33.7067L22 31.84Z" fill="#9FEF00"/>
<path d="M41.5667 39.1467C42.6413 38.676 43.9213 39.1053 44.424 40.1067C44.9253 41.108 44.4667 42.3027 43.4 42.7733C42.712 43.0667 41.9813 43.3067 41.2507 43.4667C40.52 43.6133 39.7907 43.7067 39.0453 43.7067C38.2867 43.72 37.5267 43.64 36.768 43.4933C35.9507 43.3333 35.164 43.1067 34.3907 42.8C33.2987 42.3733 32.7893 41.1987 33.2507 40.18C33.7133 39.1613 34.9747 38.6853 36.0653 39.12C36.5813 39.32 37.112 39.48 37.6707 39.5867C38.1 39.6667 38.5587 39.7067 39.016 39.7067C39.432 39.7067 39.8613 39.6533 40.2773 39.5733C40.7213 39.4667 41.1507 39.3333 41.5667 39.1467Z" fill="#9FEF00"/>
<path d="M32.2867 53.9871C33.7594 53.9871 34.9533 52.7932 34.9533 51.3205C34.9533 49.8477 33.7594 48.6538 32.2867 48.6538C30.8139 48.6538 29.62 49.8477 29.62 51.3205C29.62 52.7932 30.8139 53.9871 32.2867 53.9871Z" fill="#9FEF00"/>
</svg>
