<svg width="56" height="56" viewBox="0 0 56 56" fill="none" xmlns="http://www.w3.org/2000/svg">
<g clip-path="url(#clip0_62_6924)" filter="url(#filter0_d_62_6924)">
<mask id="mask0_62_6924" style="mask-type:luminance" maskUnits="userSpaceOnUse" x="4" y="0" width="48" height="48">
<path d="M52 0H4V48H52V0Z" fill="white"/>
</mask>
<g mask="url(#mask0_62_6924)">
<path d="M44.7 13.56C44.093 12.633 44.351 11.392 45.275 10.79C46.199 10.188 47.443 10.448 48.05 11.37C50.59 15.27 51.94 19.82 51.94 24.47C51.94 30.84 49.41 36.95 44.91 41.44C40.41 45.94 34.3 48.47 27.94 48.47C21.58 48.47 15.47 45.94 10.97 41.44C6.47 36.95 3.94 30.84 3.94 24.47C3.94 18.11 6.47 12 10.97 7.49997C15.47 2.99997 21.58 0.469971 27.94 0.469971C31.36 0.469971 34.74 1.19997 37.86 2.61997C38.864 3.07797 39.31 4.26597 38.855 5.26997C38.4 6.27397 37.214 6.71797 36.21 6.25997C33.61 5.07997 30.79 4.46997 27.94 4.46997C22.64 4.46997 17.55 6.57997 13.8 10.33C10.05 14.08 7.94 19.17 7.94 24.47C7.94 29.78 10.05 34.87 13.8 38.62C17.55 42.37 22.64 44.47 27.94 44.47C33.24 44.47 38.33 42.37 42.08 38.62C45.83 34.87 47.94 29.78 47.94 24.47C47.94 20.6 46.81 16.81 44.7 13.56Z" fill="#9FEF00"/>
<path fill-rule="evenodd" clip-rule="evenodd" d="M19.356 18.1269C18.972 18.1329 18.634 18.3809 18.514 18.7449C18.394 19.1089 18.518 19.5099 18.822 19.7429L24.787 24.4649L17.822 30.1879C17.557 30.3829 17.42 30.7069 17.464 31.0329C17.508 31.3599 17.727 31.6359 18.034 31.7529C18.342 31.8709 18.689 31.8109 18.94 31.5979L26.797 25.1699C27.013 24.9999 27.139 24.7389 27.139 24.4639C27.139 24.1889 27.013 23.9289 26.797 23.7579L19.94 18.3299C19.775 18.1959 19.568 18.1239 19.356 18.1269ZM29.238 29.0119C28.741 29.0119 28.338 29.4149 28.338 29.9119C28.338 30.4099 28.741 30.8129 29.238 30.8129H37.524C38.021 30.8129 38.424 30.4099 38.424 29.9119C38.424 29.4149 38.021 29.0119 37.524 29.0119H29.238Z" fill="#9FEF00" stroke="#9FEF00" stroke-width="2" stroke-linecap="round" stroke-linejoin="round"/>
</g>
</g>
<defs>
<filter id="filter0_d_62_6924" x="0" y="0" width="56" height="56" filterUnits="userSpaceOnUse" color-interpolation-filters="sRGB">
<feFlood flood-opacity="0" result="BackgroundImageFix"/>
<feColorMatrix in="SourceAlpha" type="matrix" values="0 0 0 0 0 0 0 0 0 0 0 0 0 0 0 0 0 0 127 0" result="hardAlpha"/>
<feOffset dy="4"/>
<feGaussianBlur stdDeviation="2"/>
<feComposite in2="hardAlpha" operator="out"/>
<feColorMatrix type="matrix" values="0 0 0 0 0 0 0 0 0 0 0 0 0 0 0 0 0 0 0.25 0"/>
<feBlend mode="normal" in2="BackgroundImageFix" result="effect1_dropShadow_62_6924"/>
<feBlend mode="normal" in="SourceGraphic" in2="effect1_dropShadow_62_6924" result="shape"/>
</filter>
<clipPath id="clip0_62_6924">
<rect width="48" height="48" fill="white" transform="translate(4)"/>
</clipPath>
</defs>
</svg>
