<svg width="64" height="64" viewBox="0 0 64 64" fill="none" xmlns="http://www.w3.org/2000/svg">
<path fill-rule="evenodd" clip-rule="evenodd" d="M6.66665 16.7333C6.66665 18.2053 5.47198 19.3999 3.99998 19.3999C2.52798 19.3999 1.33331 18.2053 1.33331 16.7333V7.99992C1.33331 4.31992 4.31998 1.33325 7.99998 1.33325H56C59.68 1.33325 62.6666 4.31992 62.6666 7.99992V33.3333C62.6666 34.8053 61.472 35.9999 60 35.9999C58.528 35.9999 57.3333 34.8053 57.3333 33.3333V10.6666C57.3333 8.45859 55.5413 6.66659 53.3333 6.66659H10.6666C8.45865 6.66659 6.66665 8.45859 6.66665 10.6666V16.7333ZM57.3333 47.2666C57.3333 45.7946 58.528 44.5999 60 44.5999C61.472 44.5999 62.6666 45.7946 62.6666 47.2666V55.9999C62.6666 59.6799 59.68 62.6666 56 62.6666H7.99998C4.31998 62.6666 1.33331 59.6799 1.33331 55.9999V29.5733C1.33331 28.1013 2.52798 26.9066 3.99998 26.9066C5.47198 26.9066 6.66665 28.1013 6.66665 29.5733V53.3333C6.66665 55.5413 8.45865 57.3333 10.6666 57.3333H53.3333C55.5413 57.3333 57.3333 55.5413 57.3333 53.3333V47.2666ZM37.2333 18.9826C37.06 19.0053 36.9306 19.1519 36.9293 19.3253V20.0053C36.9293 20.1973 37.084 20.3519 37.276 20.3519C38.0453 20.3519 38.5333 20.3759 38.8573 20.4773C39.1786 20.5786 39.3773 20.7399 39.6626 21.1399C39.664 21.1426 39.6653 21.1426 39.6666 21.1439L44.964 28.9186L40.2 35.8839C39.0826 37.5013 37.4333 37.5119 36.908 37.5119C36.716 37.5119 36.5613 37.6679 36.5613 37.8586V38.5386C36.5613 38.6359 36.6013 38.7293 36.6733 38.7946C36.7453 38.8613 36.8413 38.8933 36.9386 38.8853C37.256 38.8586 37.716 38.8559 38.1546 38.8506C37.8933 40.4079 37.5813 41.5933 36.916 42.3586C36.192 43.1933 35.0146 43.6493 32.78 43.6493H28.8693C28.5946 43.6493 28.396 43.6413 28.2706 43.6199C28.1466 43.5973 28.116 43.5719 28.1066 43.5626C28.0973 43.5546 28.076 43.5279 28.0586 43.4159C28.0426 43.3039 28.0373 43.1226 28.0373 42.8826V35.3559H30.3453C31.632 35.3559 32.2106 35.5826 32.516 36.0013C32.8213 36.4186 32.9106 37.1853 32.9106 38.3613C32.9106 38.5533 33.0653 38.7079 33.256 38.7079H33.712C33.9026 38.7079 34.0573 38.5533 34.0573 38.3613V31.0333C34.0573 30.8413 33.9026 30.6866 33.712 30.6866H33.256C33.0653 30.6866 32.9106 30.8413 32.9106 31.0333C32.9106 32.1893 32.824 32.9453 32.52 33.3546C32.216 33.7626 31.6333 33.9826 30.3453 33.9826H28.0373V27.3466C28.0373 27.1119 28.0426 26.9399 28.0586 26.8319C28.076 26.7226 28.0946 26.7013 28.1026 26.6933C28.1106 26.6853 28.1413 26.6586 28.2666 26.6359C28.392 26.6146 28.5946 26.6013 28.8693 26.6013H32.72C34.8533 26.6013 35.9293 27.0146 36.5653 27.8066C37.2013 28.5973 37.4386 29.8959 37.636 31.7479C37.656 31.9239 37.8053 32.0559 37.9813 32.0546H38.4893C38.5866 32.0559 38.6813 32.0146 38.7466 31.9413C38.8133 31.8693 38.8453 31.7719 38.8346 31.6733L38.16 25.4453C38.1413 25.2679 37.992 25.1333 37.8133 25.1333H25.8626L25.4346 19.3466C25.4226 19.1639 25.2706 19.0213 25.088 19.0226H8.82398C8.64265 19.0213 8.49065 19.1613 8.47731 19.3426L8.00131 25.5706C7.99331 25.6679 8.02665 25.7626 8.09331 25.8333C8.15865 25.9039 8.25065 25.9439 8.34798 25.9439H8.85465C9.03465 25.9439 9.18531 25.8066 9.20131 25.6279C9.38265 23.3026 9.59865 21.9973 10.18 21.3346C10.4706 21.0039 10.8586 20.7946 11.4706 20.6546C12.0813 20.5159 12.9053 20.4599 13.9866 20.4599H15.4893C15.688 20.4906 15.66 20.4879 15.6893 20.5639C15.7173 20.6413 15.732 20.8639 15.732 21.1879V36.5199C15.732 36.7706 15.7226 36.9586 15.6933 37.0706C15.664 37.1826 15.6413 37.2199 15.5506 37.2786C15.3693 37.3946 14.7893 37.5039 13.6186 37.5039H12.8213C12.6306 37.5039 12.4746 37.6586 12.4746 37.8506V38.5306C12.4746 38.6239 12.5133 38.7133 12.58 38.7786C12.6466 38.8439 12.7373 38.8786 12.8306 38.8773C14.1813 38.8506 15.5853 38.8253 16.9626 38.8253C18.336 38.8253 19.744 38.8506 21.0946 38.8773C21.188 38.8786 21.2786 38.8439 21.3453 38.7786C21.412 38.7133 21.4493 38.6239 21.4493 38.5306V37.8506C21.4493 37.6586 21.2946 37.5039 21.1026 37.5039H20.3146C19.1613 37.5039 18.5933 37.3933 18.4173 37.2786C18.3293 37.2213 18.308 37.1879 18.2786 37.0746C18.2506 36.9626 18.24 36.7706 18.24 36.5199V21.1879C18.24 20.8773 18.2533 20.6639 18.284 20.5813C18.312 20.5026 18.3066 20.4973 18.4653 20.4599H19.9466C21.004 20.4599 21.812 20.5146 22.416 20.6506C23.0186 20.7866 23.4106 20.9933 23.7013 21.3173C24.248 21.9253 24.4786 23.1173 24.6546 25.1333H23.5506C23.3586 25.1333 23.204 25.2893 23.204 25.4799V26.2559C23.204 26.4466 23.3586 26.6013 23.5506 26.6013C24.548 26.6013 25.1213 26.6373 25.3093 26.7279C25.4026 26.7719 25.4226 26.7946 25.46 26.9053C25.4986 27.0159 25.5213 27.2186 25.5213 27.5199V42.7186C25.5213 43.0199 25.4986 43.2319 25.46 43.3426C25.4226 43.4533 25.4013 43.4746 25.3093 43.5199C25.1226 43.6093 24.5493 43.6413 23.5506 43.6413C23.3586 43.6413 23.204 43.7959 23.204 43.9879V44.6719C23.204 44.8626 23.3586 45.0186 23.5506 45.0186H38.2066C38.38 45.0173 38.5253 44.8906 38.5493 44.7199L39.3853 38.8333C40.1546 38.8333 41.4106 38.8359 42.0573 38.8853C42.1533 38.8919 42.248 38.8599 42.3186 38.7946C42.388 38.7306 42.4293 38.6386 42.4306 38.5426V37.8626C42.4306 37.6839 42.296 37.5346 42.1186 37.5173C41.7533 37.4813 41.5706 37.3599 41.46 37.2266C41.3493 37.0933 41.304 36.9253 41.304 36.7626C41.304 36.4879 41.38 36.3933 41.52 36.1959C41.5226 36.1946 41.524 36.1933 41.5253 36.1919L45.744 30.0319L50.356 36.8146C50.3573 36.8173 50.3586 36.8213 50.3613 36.8239C50.464 36.9679 50.5053 37.0506 50.516 37.0786C50.528 37.1079 50.5213 37.0679 50.5213 37.1053C50.5213 37.0639 50.484 37.4693 49.6067 37.5213C49.424 37.5319 49.2813 37.6839 49.2827 37.8679V38.5479C49.2827 38.6426 49.3226 38.7333 49.3933 38.7973C49.4626 38.8626 49.556 38.8959 49.6506 38.8893C50.5306 38.8373 51.9053 38.8373 52.8333 38.8373C53.564 38.8373 54.9813 38.8386 55.628 38.8893C55.7226 38.8973 55.8173 38.8639 55.888 38.7999C55.9586 38.7346 55.9986 38.6439 56 38.5479V37.8679C56 37.6759 55.8453 37.5213 55.6533 37.5213C54.76 37.5213 54.2666 37.4773 53.9813 37.3733C53.6986 37.2706 53.56 37.1146 53.2933 36.7373L53.288 36.7333L47.2333 27.8759L51.2613 22.0493C51.2626 22.0479 51.2653 22.0466 51.2653 22.0453C51.6853 21.4506 52.376 20.3813 54.5626 20.3519C54.752 20.3493 54.904 20.1946 54.904 20.0053V19.3253C54.904 19.2293 54.8626 19.1373 54.7906 19.0719C54.7186 19.0066 54.624 18.9746 54.528 18.9826C53.9133 19.0346 52.8413 19.0346 52.1666 19.0346C51.24 19.0346 50.0813 19.0346 49.408 18.9826C49.312 18.9759 49.2173 19.0093 49.148 19.0733C49.0773 19.1386 49.036 19.2293 49.0346 19.3253V20.0053C49.0346 20.1853 49.172 20.3359 49.352 20.3519C49.7333 20.3879 49.908 20.5066 50.0146 20.6373C50.12 20.7679 50.1613 20.9399 50.1613 21.1093C50.1613 21.3519 50.08 21.4866 49.888 21.7546C49.8866 21.7573 49.8853 21.7586 49.884 21.7599L46.4493 26.7359L42.5693 21.0533C42.4826 20.9186 42.4333 20.8279 42.4173 20.7893C42.4 20.7493 42.408 20.7746 42.408 20.7679C42.408 20.7933 42.4933 20.3746 43.3093 20.3519C43.4973 20.3466 43.6466 20.1933 43.6466 20.0053V19.3253C43.6466 19.2306 43.6066 19.1399 43.536 19.0746C43.4666 19.0106 43.3733 18.9773 43.2786 18.9826C42.3973 19.0359 41.0186 19.0346 40.0906 19.0346C39.3626 19.0346 37.9453 19.0333 37.3013 18.9826C37.2786 18.9813 37.2573 18.9813 37.2333 18.9826Z" fill="#9FEF00"/>
</svg>
