<svg width="64" height="64" viewBox="0 0 64 64" fill="none" xmlns="http://www.w3.org/2000/svg">
<path fill-rule="evenodd" clip-rule="evenodd" d="M25.3586 36.748C23.7266 37.0934 22.2106 37.908 21.012 39.1067C19.3986 40.7334 18.4786 42.9334 18.4786 45.2267C18.4786 47.5334 19.3986 49.7334 21.012 51.36C22.6386 52.9867 24.852 53.8934 27.1453 53.8934C29.4386 53.8934 31.652 52.9867 33.2786 51.36C34.892 49.7334 35.812 47.5334 35.812 45.2267C35.812 42.9334 34.892 40.7334 33.2786 39.1067C31.8613 37.6894 29.9986 36.808 28.0253 36.6054V16C28.0253 15.264 27.428 14.6667 26.692 14.6667C25.956 14.6667 25.3586 15.264 25.3586 16V36.748ZM27.1453 39.2267C25.5586 39.2267 24.0253 39.8667 22.9053 40.9867C21.772 42.12 21.1453 43.64 21.1453 45.2267C21.1453 46.8267 21.772 48.3467 22.9053 49.48C24.0253 50.6 25.5586 51.2267 27.1453 51.2267C28.732 51.2267 30.2653 50.6 31.3853 49.48C32.5186 48.3467 33.1453 46.8267 33.1453 45.2267C33.1453 43.64 32.5186 42.12 31.3853 40.9867C30.2653 39.8667 28.732 39.2267 27.1453 39.2267Z" fill="#A4B1CD"/>
<path fill-rule="evenodd" clip-rule="evenodd" d="M15.1667 28.8827V28.5947V9.52135C15.1667 7.17869 16.0921 4.91735 17.7547 3.25469C19.4161 1.60669 21.6641 0.666687 24.0214 0.666687H28.0534C30.3974 0.666687 32.6587 1.60669 34.3201 3.25469C35.9694 4.91735 36.9081 7.17869 36.9081 9.52135V28.0414C39.5694 29.6707 41.8081 31.912 43.4201 34.5747C45.1774 37.504 46.1041 40.8547 46.1041 44.26C46.0907 49.3414 44.0334 54.2187 40.3961 57.7614C36.7321 61.344 31.8134 63.3467 26.6921 63.3334C22.6587 63.36 18.7214 62.12 15.4254 59.804C12.1281 57.488 9.64939 54.192 8.30005 50.3907C7.93205 49.3227 8.49605 48.1547 9.56005 47.7827C10.6241 47.4094 11.7867 47.968 12.1561 49.028C13.2187 52.04 15.1801 54.628 17.7814 56.4667C20.3974 58.292 23.5041 59.2734 26.6921 59.2454C30.7374 59.26 34.6467 57.6654 37.5494 54.832C40.3961 52.0534 42.0041 48.2387 42.0174 44.26C42.0174 41.5907 41.2947 38.9747 39.9201 36.6867C38.5707 34.4387 36.6494 32.5854 34.3747 31.292L32.8214 30.2827V28.5947V9.52135C32.8214 8.25469 32.3174 7.04269 31.4187 6.15735C30.5334 5.25735 29.3201 4.75335 28.0534 4.75335H24.0214C22.7547 4.75335 21.5414 5.25735 20.6427 6.15735C19.7574 7.04269 19.2534 8.25469 19.2534 9.52135V28.5947V30.924L17.6867 32.0947C15.5747 33.58 13.8854 35.5827 12.7547 37.8987C12.2667 38.9134 11.0454 39.3414 10.0307 38.852C9.01472 38.364 8.58805 37.1427 9.07739 36.128C10.4761 33.2374 12.5654 30.7494 15.1667 28.8827ZM53.8121 20.6667C54.9161 20.6667 55.8121 21.5627 55.8121 22.6667C55.8121 23.7707 54.9161 24.6667 53.8121 24.6667H42.0121C40.9094 24.6667 40.0121 23.7707 40.0121 22.6667C40.0121 21.5627 40.9094 20.6667 42.0121 20.6667H53.8121ZM53.6921 6.92002C54.7961 6.92002 55.6921 7.81602 55.6921 8.92002C55.6921 10.024 54.7961 10.92 53.6921 10.92H41.8921C40.7894 10.92 39.8921 10.024 39.8921 8.92002C39.8921 7.81602 40.7894 6.92002 41.8921 6.92002H53.6921ZM48.4787 14C49.5827 14 50.4787 14.896 50.4787 16C50.4787 17.104 49.5827 18 48.4787 18H42.0121C40.9094 18 40.0121 17.104 40.0121 16C40.0121 14.896 40.9094 14 42.0121 14H48.4787Z" fill="#9FEF00"/>
</svg>
