<svg width="64" height="65" viewBox="0 0 64 65" fill="none" xmlns="http://www.w3.org/2000/svg">
<path d="M52.7533 58.4266L52.972 57.8732C53.2813 57.0919 54.1 54.1372 54.56 52.1519C54.8493 50.9026 55.2467 49.7239 56.1067 47.5586C57.2467 44.6879 58.1987 42.0826 58.192 41.8519C58.1907 41.7946 58.5147 40.4226 58.864 38.9719L57.9853 7.59592C57.9653 6.90792 57.6813 6.29592 57.2427 5.83458L57.128 6.22392C56.3307 8.91725 55.724 11.3279 55.6307 12.1693C55.576 12.6586 55.3373 13.6479 55.1013 14.3706C54.864 15.0919 54.6373 16.0479 54.5973 16.4946C54.5587 16.9413 54.336 18.0413 54.104 18.9386C53.8707 19.8359 53.6827 20.6839 53.6867 20.8226C53.6907 20.9626 53.808 21.2226 53.948 21.4026C54.1427 21.6493 54.1907 21.8293 54.1493 22.1413C54.1013 22.4919 54.14 22.5826 54.392 22.7466C55.2947 23.3333 55.328 23.5453 54.7213 24.8399C54.4827 25.3506 54.0973 26.2799 53.868 26.9066C53.6387 27.5319 52.8453 29.5653 52.1053 31.4239C50.8267 34.6386 50.7467 34.8906 50.4533 36.6119C50.2853 37.6079 50.1507 38.5119 50.1533 38.6212C50.16 38.8492 48.1893 44.2186 47.0573 47.0586C46.296 48.9679 46.2933 48.9786 46.3227 50.0226C46.3467 50.8719 46.284 51.3519 45.984 52.5533C45.624 54.0026 45.6173 54.0586 45.7667 55.0293C45.976 56.3866 45.9733 56.2879 45.7947 57.0666C45.708 57.4492 45.6107 57.9559 45.5773 58.1946L45.516 58.6293L52.7533 58.4266ZM41.84 55.1266C42.488 54.4213 40.0493 53.8452 40.0173 53.7719C39.9867 53.6972 40.056 53.2506 40.172 52.7799C40.2893 52.3079 40.3813 51.7639 40.376 51.5733C40.3707 51.3813 40.4587 50.6786 40.572 50.0093C40.684 49.3413 40.8013 48.1973 40.8333 47.4679C40.9 45.9906 41.272 44.3693 42.164 41.6706C42.4493 40.8066 42.9947 38.9306 43.3733 37.5012C43.78 35.9679 44.364 34.1332 44.7973 33.0252C45.2027 31.9919 45.5667 30.9919 45.6053 30.8012C45.6453 30.6106 46.0613 29.4066 46.5307 28.1252C47.1733 26.3732 47.4053 25.5813 47.4653 24.9293C47.5093 24.4519 47.6413 23.6973 47.76 23.2506C47.8773 22.8039 48.0573 21.7093 48.1547 20.8199C48.356 18.9973 48.4427 18.5999 48.752 18.0626C49.1267 17.4146 49.3853 16.2226 49.4267 14.9826C49.456 14.1239 49.5707 13.3919 49.836 12.3786C50.664 9.20925 50.7013 9.01592 50.676 8.03592C50.6507 7.09592 50.8293 6.09458 51.14 5.44125L51.292 5.11858L44.06 5.32125L44 5.68258C43.8653 6.47325 43.9413 6.73725 44.436 7.21458C45.1907 7.94125 45.184 8.04258 44.2093 11.4759C43.1027 15.3759 42.2227 18.8533 42.2347 19.2839C42.248 19.7546 41.8827 20.8693 41.5053 21.5133C40.716 22.8626 40.4307 23.6146 39.2533 27.4172C38.5627 29.6492 37.8787 31.8399 37.7307 32.2879C37.576 32.7532 37.42 33.6092 37.3667 34.2879C37.2827 35.3612 37.1827 35.7306 36.32 38.1212C35.7947 39.5759 35.332 40.9212 35.2947 41.1119C35.256 41.3039 34.9427 42.2479 34.5973 43.2079C33.8533 45.2799 33.5493 46.5439 33.576 47.4599C33.592 48.0599 33.632 48.1612 33.9493 48.4292C34.4027 48.8106 34.4307 49.3679 34.0733 50.8266C33.7227 52.2599 41.28 55.7386 41.84 55.1266ZM23.364 59.2506L23.668 58.2906C23.8347 57.7639 24.1493 60.6533 24.3667 59.8226C24.5853 58.9933 24.9533 53.8413 25.188 53.2653C25.792 51.7879 26.6213 49.2119 27.0627 47.4453C27.4773 45.7866 29.0667 40.1173 30.1053 36.5919C30.4733 35.3466 31.064 33.6719 31.4187 32.8693C31.8467 31.9039 32.228 30.7759 32.544 29.5292C32.808 28.4932 33.372 26.4546 33.8 24.9999C34.2293 23.5439 34.8453 21.3706 35.1707 20.1706C35.4973 18.9706 35.9467 17.4279 36.1693 16.7426C36.564 15.5293 37.252 12.7573 38.3747 7.87325L38.9267 5.46525L28.4133 5.75992L28.08 6.72125C27.8973 7.24925 27.5133 8.41325 27.228 9.31058C26.72 10.9133 25.12 14.9866 24.3227 16.7079C23.944 17.5239 23.8387 17.6439 22.7493 18.5053L21.5827 19.4293L20.7427 19.3973L19.9027 19.3639L19.0747 19.9546C18.1213 20.6346 18.1093 20.6546 17.5533 22.1679C17.324 22.7919 16.908 23.7346 16.6293 24.2626C16.352 24.7893 15.564 26.5972 14.88 28.2839C14.196 29.9706 13.264 32.1133 12.8067 33.0439C11.1413 36.4386 10.2987 38.3066 10.084 39.0786C9.96399 39.5133 9.69599 40.4853 9.48799 41.2399C9.27999 41.9933 8.89732 43.0999 8.63999 43.6986C7.93999 45.3266 6.63332 48.9813 5.85732 51.4079L6.01599 57.0733C6.05465 58.4213 7.07999 59.4893 8.38399 59.6346L11.1533 59.5359L11.28 58.6679C11.3493 58.1906 11.5373 57.1479 11.696 56.3506C11.8613 55.5266 11.956 54.7306 11.9187 54.5026C11.868 54.2012 11.9893 53.7213 12.3987 52.5879C12.9067 51.1786 13.52 48.8053 13.9707 46.5066C14.092 45.8906 14.4013 45.0106 14.816 44.1026C15.1747 43.3146 15.4667 42.6119 15.4653 42.5413C15.456 42.2346 16.4707 39.3839 16.8347 38.6946C17.0547 38.2759 17.3187 37.7132 17.4187 37.4452C17.52 37.1786 17.852 36.4932 18.1547 35.9226C18.4587 35.3506 18.9413 34.3079 19.2267 33.6066C19.5107 32.9066 20.024 31.8239 20.368 31.2012C20.712 30.5799 21.1453 29.7426 21.3293 29.3439C21.5347 28.8986 22.016 28.2239 22.5747 27.5999C23.6787 26.3666 24.0987 25.8013 24.42 25.1119C24.78 24.3426 25.0653 24.0599 25.492 24.0479C25.6947 24.0426 26.0053 24.1453 26.184 24.2786C26.4973 24.5106 26.5067 24.5453 26.452 25.2786C26.42 25.6973 26.3733 26.7132 26.348 27.5386C26.292 29.3466 26.2093 29.6012 24.9387 31.8999C23.7467 34.0546 23.6813 34.1999 23.3827 35.2386C23.2467 35.7133 22.9147 36.5359 22.648 37.0653C21.1987 39.9293 20.9453 40.7546 20.9907 42.4706C20.9987 42.7679 20.956 43.2212 20.8947 43.4759C20.6893 44.3146 18.0253 55.4506 16.7133 58.6733C16.4227 59.3879 16.1867 60.0466 16.1893 60.1386C16.192 60.2306 16.4893 60.5639 16.8467 60.8786C17.204 61.1933 17.4973 57.5173 17.5 57.5999C17.5013 57.6826 17.3347 58.1293 17.128 58.5919L16.752 59.4346L23.3613 59.2493L23.364 59.2506ZM5.40265 35.1786C5.44532 35.0253 6.09732 33.3306 6.94799 31.1706C11.0013 20.8786 11.7613 18.1999 11.6773 14.4826C11.6613 13.7826 11.604 13.4919 11.4253 13.2199C11.196 12.8706 11.1973 12.8599 11.436 11.5373C11.568 10.8053 11.6947 9.67992 11.7173 9.03592L11.76 7.86525L11.248 7.63192C9.75732 6.95592 9.62532 6.87192 9.61732 6.57592L9.60799 6.28658L7.23732 6.35325C5.77332 6.41058 4.63065 7.62392 4.67199 9.09192L5.40265 35.1786ZM15.7467 14.7559C16.0987 14.7453 17.308 14.1119 17.8773 13.6386C18.4093 13.1959 19.5853 11.5973 19.8533 10.9546C19.9987 10.6013 20.2747 9.86792 20.4667 9.32392C20.6573 8.77992 21.012 7.91458 21.2533 7.40125C21.4947 6.88658 21.7213 6.35058 21.76 6.20658L21.828 5.94392L15.1693 6.13058L14.8373 6.91858C14.6547 7.35192 14.452 7.93858 14.3893 8.22658C14.3253 8.51325 14.252 8.83058 14.2267 8.93192C14.1733 9.13725 14.3787 9.39458 15.2733 10.2413L15.8893 10.8226L15.52 12.5893C15.1093 14.5519 15.1333 14.7733 15.7467 14.7559Z" fill="#9FEF00"/>
<path fill-rule="evenodd" clip-rule="evenodd" d="M21.684 57.2266C22.384 57.2266 23.056 57.4946 23.5573 57.9799C24.0453 58.4519 24.3227 59.1039 24.3227 59.7799C24.3227 60.4573 24.0453 61.1079 23.5573 61.5799C23.056 62.0653 22.384 62.3333 21.684 62.3333H10.084C5.07067 62.3333 1 58.2626 1 53.2493V11.4173C1 6.40392 5.07067 2.33325 10.084 2.33325H53.916C58.9293 2.33325 63 6.40392 63 11.4173V53.2493C63 58.2626 58.9293 62.3333 53.916 62.3333H42.316C41.616 62.3333 40.944 62.0653 40.4427 61.5799C39.9547 61.1079 39.6773 60.4573 39.6773 59.7799C39.6773 59.1039 39.9547 58.4519 40.4427 57.9799C40.944 57.4946 41.616 57.2266 42.316 57.2266H51.2347C54.816 57.2266 57.724 54.3199 57.724 50.7386V13.9279C57.724 10.3466 54.816 7.43992 51.2347 7.43992H12.7653C9.184 7.43992 6.276 10.3466 6.276 13.9279V50.7386C6.276 54.3199 9.184 57.2266 12.7653 57.2266H21.684Z" fill="#9FEF00"/>
</svg>
