<svg width="512" height="512" viewBox="0 0 512 512" fill="none" xmlns="http://www.w3.org/2000/svg">
<path d="M438.989 501.35H73.0112C38.6048 501.35 10.752 473.498 10.752 439.091V73.0112C10.752 38.6048 38.6048 10.752 73.0112 10.752H439.091C473.498 10.752 501.35 38.6048 501.35 73.0112V439.091C501.35 473.395 473.395 501.35 438.989 501.35Z" fill="#141D2B"/>
<path d="M68.813 95.0273C178.074 95.0273 287.335 95.0273 396.595 95.0273C377.549 123.904 363.418 150.631 356.455 174.08C350.208 165.991 343.859 157.594 337.511 148.787C329.011 136.909 321.024 125.235 313.651 113.869L252.723 112.64L255.283 411.136H336.896C366.49 400.179 385.331 380.007 396.493 353.485C405.914 366.899 415.437 380.826 424.96 395.162C433.05 407.347 440.832 419.328 448.307 431.207H169.779C180.839 424.653 191.386 417.587 198.247 407.347L196.915 113.869H146.432C138.343 121.242 129.127 130.765 120.013 142.848C110.183 155.853 103.219 168.346 98.3042 178.791C96.6658 174.183 90.317 156.263 88.6786 151.655C83.0466 135.168 74.6498 111.411 68.813 95.0273Z" fill="#141D2B" stroke="#9FEF00" stroke-width="10.3733" stroke-miterlimit="10" stroke-linecap="round" stroke-linejoin="round"/>
<path d="M153.395 416.051C163.123 410.009 174.08 402.739 181.146 391.987L179.917 92.979C179.917 92.8766 179.814 92.8766 179.814 92.8766H129.946C109.875 112.128 94.9248 132.71 85.2992 153.907C77.5168 126.259 66.8672 99.4302 53.5552 73.9326H376.32C356.659 104.653 343.347 131.584 336.896 153.907L336.486 153.088C325.325 131.277 313.651 108.646 294.81 92.7742L234.701 91.443H234.598V91.5454L237.158 395.673C237.158 395.776 237.261 395.776 237.261 395.776H317.747C330.24 391.782 340.787 385.433 349.082 377.037C358.502 367.513 363.11 357.376 366.49 349.901C369.664 342.937 371.712 338.329 375.603 338.329C380.314 338.329 383.386 344.883 388.403 355.635C391.578 362.393 395.469 370.79 401.101 380.211C408.576 392.909 417.382 404.889 427.315 415.846H153.395V416.051Z" fill="#9FEF00"/>
<path d="M376.013 73.9328C356.454 104.448 343.347 131.174 336.794 153.498L336.486 152.986C325.222 131.174 313.651 108.544 294.81 92.672C294.81 92.672 294.707 92.5696 294.605 92.5696L234.598 91.3408C234.496 91.3408 234.496 91.3408 234.394 91.4432C234.394 91.4432 234.291 91.5456 234.291 91.648L236.851 395.776C236.851 395.878 236.954 395.981 237.056 395.981H317.542H317.645C330.138 391.987 340.685 385.638 348.979 377.242C358.4 367.718 363.008 357.581 366.387 350.106C369.562 343.245 371.61 338.637 375.398 338.534H375.501C380.006 338.534 383.078 344.986 388.096 355.84C391.27 362.598 395.162 370.995 400.794 380.518C408.269 393.216 416.973 405.094 426.803 415.949H153.805C163.43 410.01 174.182 402.637 181.248 392.09V391.987L180.019 92.9792C180.019 92.8768 179.917 92.7744 179.814 92.7744H129.946C129.843 92.7744 129.843 92.7744 129.741 92.8768C109.875 112.026 94.9248 132.403 85.2992 153.6C77.5168 126.054 66.9696 99.328 53.6576 73.9328H376.013ZM376.525 73.728H53.248C66.8672 99.6352 77.4144 126.464 85.1968 154.214C95.0272 132.301 110.182 111.923 129.946 92.8768H179.814L181.043 391.885C174.182 402.227 163.84 409.498 152.986 416.154H427.725C421.069 408.781 411.034 396.8 401.306 380.314C386.765 355.533 383.386 338.33 375.808 338.33H375.706C367.411 338.534 367.104 358.912 349.082 377.139C338.534 387.789 326.349 393.011 317.85 395.776H237.363L234.803 91.648L294.81 92.8768C313.958 108.954 325.427 131.686 336.998 154.214C343.757 130.458 357.683 103.117 376.525 73.728Z" fill="#9FEF00"/>
</svg>
