<svg width="48" height="49" viewBox="0 0 48 49" fill="none" xmlns="http://www.w3.org/2000/svg">
<path d="M42 24.4733C42 23.3693 42.896 22.4733 44 22.4733C45.104 22.4733 46 23.3693 46 24.4733V39.3333C46 43.1963 42.863 46.3333 39 46.3333H9C5.137 46.3333 2 43.1963 2 39.3333V9.33325C2 5.47025 5.137 2.33325 9 2.33325H39C42.863 2.33325 46 5.47025 46 9.33325V10.8733C46 11.9773 45.32 13.4563 44.481 14.1743L25.349 30.5723C24.51 31.2903 23.226 31.2113 22.481 30.3963L14.52 21.6833C13.775 20.8663 13.833 19.5983 14.65 18.8533C15.467 18.1083 16.735 18.1663 17.48 18.9833L23.496 25.5743C23.868 25.9823 24.51 26.0213 24.929 25.6623L41.241 11.6843C41.66 11.3253 42 10.5853 42 10.0333V9.33325C42 7.67725 40.656 6.33325 39 6.33325H11C8.24 6.33325 6 8.57325 6 11.3333V37.3333C6 40.0933 8.24 42.3333 11 42.3333H37C39.76 42.3333 42 40.0933 42 37.3333V24.4733Z" fill="#9FEF00"/>
</svg>
