<svg width="64" height="64" viewBox="0 0 64 64" fill="none" xmlns="http://www.w3.org/2000/svg">
<path fill-rule="evenodd" clip-rule="evenodd" d="M41.7403 31.3864C41.7403 31.2531 21.0377 18.7624 21.0377 18.7624C20.983 18.8024 20.907 18.8557 20.8697 18.8824C20.8697 18.8824 20.8563 43.7664 20.923 43.8451L41.7403 31.3864ZM6.23766 34.0891C6.23766 35.6264 4.98966 36.8744 3.45233 36.8744C1.91499 36.8744 0.666992 35.6264 0.666992 34.0891V13.1997C0.666992 10.9851 1.54433 8.85442 3.11766 7.29575C4.67766 5.72108 6.80833 4.84375 9.02299 4.84375H34.0897C35.627 4.84375 36.875 6.09175 36.875 7.62908C36.875 9.16642 35.627 10.4144 34.0897 10.4144H9.02299C8.28433 10.4144 7.57366 10.7064 7.05899 11.2358C6.52966 11.7518 6.23766 12.4611 6.23766 13.1997V34.0891ZM57.763 39.6584C57.763 38.1224 59.011 36.8744 60.5483 36.8744C62.0857 36.8744 63.3337 38.1224 63.3337 39.6584V50.7998C63.3337 53.0144 62.4563 55.1451 60.883 56.7038C59.323 58.2784 57.1923 59.1558 54.9777 59.1558H9.02299C6.80833 59.1558 4.67766 58.2784 3.11766 56.7038C1.54433 55.1451 0.666992 53.0144 0.666992 50.7998V48.0144C0.666992 46.4771 1.91499 45.2291 3.45233 45.2291C4.98966 45.2291 6.23766 46.4771 6.23766 48.0144V50.7998C6.23766 51.5384 6.52966 52.2478 7.05899 52.7638C7.57366 53.2931 8.28433 53.5851 9.02299 53.5851H54.9777C55.7163 53.5851 56.427 53.2931 56.9417 52.7638C57.471 52.2478 57.763 51.5384 57.763 50.7998V39.6584ZM46.623 10.4144C45.0857 10.4144 43.8377 9.16642 43.8377 7.62908C43.8377 6.09175 45.0857 4.84375 46.623 4.84375H54.9777C57.1923 4.84375 59.323 5.72108 60.883 7.29575C62.4563 8.85442 63.3337 10.9851 63.3337 13.1997V25.7331C63.3337 27.2704 62.0857 28.5184 60.5483 28.5184C59.011 28.5184 57.763 27.2704 57.763 25.7331V13.1997C57.763 12.4611 57.471 11.7518 56.9417 11.2358C56.427 10.7064 55.7163 10.4144 54.9777 10.4144H46.623Z" fill="#9FEF00"/>
</svg>
