<svg width="64" height="65" viewBox="0 0 64 65" fill="none" xmlns="http://www.w3.org/2000/svg">
<g clip-path="url(#clip0_62_3899)">
<path fill-rule="evenodd" clip-rule="evenodd" d="M27.1708 57.3599L17.1202 69.7333L15.8535 71.2933L18.9602 73.8133L20.2135 72.2666L35.8668 52.9999C36.7468 51.9199 37.8935 51.0933 39.2002 50.6133L46.1735 48.0133C46.1868 47.9999 46.2135 47.9999 46.2268 47.9866C47.2535 47.5733 48.1735 46.9333 48.9335 46.1199C49.7068 45.3333 50.3068 44.3733 50.6802 43.3333C50.6802 43.3066 50.6802 43.2933 50.6935 43.2799L56.1335 26.2399C56.2135 25.9866 56.3335 25.7599 56.4935 25.5466C56.6268 25.3333 56.7868 25.1333 56.9735 24.9466L60.6135 21.7999C60.6268 21.7866 60.6402 21.7733 60.6535 21.7599C61.4535 21.0266 62.1068 20.1333 62.5602 19.1333C63.0535 18.1599 63.3468 17.0799 63.4135 15.9866C63.4535 14.8533 63.3868 13.7333 63.1868 12.6266C63.0135 11.6399 62.7202 10.6666 62.3068 9.74659C61.9068 8.83992 61.3868 7.99992 60.7735 7.21325C60.1202 6.38659 59.3868 5.63992 58.5602 4.98659C57.6668 4.26659 56.6668 3.69325 55.5868 3.30659C54.4402 2.87992 53.2402 2.63992 52.0268 2.57325C50.9068 2.50659 49.7735 2.57325 48.6668 2.75992C47.2668 2.98659 45.8802 3.33325 44.5335 3.78659C42.5735 4.45325 40.8002 5.55992 39.3468 7.01326L19.3868 26.9599L18.0535 40.3466L-0.146497 60.3199L-1.49316 61.7999L1.46684 64.4933L2.8135 63.0133L16.2708 48.2399L27.1708 57.3599ZM31.9388 51.4919L32.7602 50.4799C34.0935 48.8399 35.8268 47.5999 37.8002 46.8666L44.7468 44.2799C45.2402 44.0666 45.6802 43.7599 46.0268 43.3599C46.4135 42.9866 46.7068 42.5333 46.8935 42.0266L52.3335 24.9999C52.3335 24.9866 52.3335 24.9733 52.3468 24.9599C52.5335 24.3866 52.8135 23.8399 53.1468 23.3466C53.4668 22.8399 53.8535 22.3866 54.3068 21.9733C54.3202 21.9733 54.3202 21.9599 54.3335 21.9466L57.9602 18.7999C58.3868 18.4133 58.7202 17.9333 58.9468 17.3999C59.2135 16.8933 59.3735 16.3333 59.4135 15.7733C59.4535 14.9466 59.3868 14.1333 59.2535 13.3199C59.1335 12.6533 58.9335 11.9999 58.6535 11.3866C58.3868 10.7733 58.0402 10.2133 57.6402 9.69325C57.1735 9.10659 56.6402 8.57325 56.0535 8.09325C55.5068 7.65325 54.8802 7.30659 54.2135 7.05325C53.4402 6.77325 52.6268 6.61326 51.8135 6.55992C50.9735 6.51992 50.1468 6.55992 49.3202 6.70659C48.1335 6.89326 46.9602 7.18659 45.8135 7.58659C44.4402 8.03992 43.2002 8.81325 42.1735 9.83992L23.2268 28.7866L21.8935 42.0666L21.3655 42.6453L31.9388 51.4919ZM19.1682 21.7813C18.0655 21.6866 17.2468 20.7186 17.3415 19.6199C17.4362 18.5226 18.4082 17.7079 19.5108 17.8039C20.6135 17.8986 21.4322 18.8666 21.3375 19.9653C21.2428 21.0626 20.2708 21.8773 19.1682 21.7813ZM22.9962 18.0906C21.8935 17.9959 21.0748 17.0266 21.1695 15.9293C21.2642 14.8319 22.2362 14.0173 23.3388 14.1119C24.4428 14.2079 25.2602 15.1759 25.1668 16.2733C25.0722 17.3706 24.0988 18.1853 22.9962 18.0906ZM26.8255 14.3986C25.7228 14.3039 24.9042 13.3359 24.9988 12.2373C25.0935 11.1399 26.0655 10.3266 27.1682 10.4213C28.2708 10.5159 29.0895 11.4839 28.9948 12.5826C28.9002 13.6799 27.9282 14.4946 26.8255 14.3986ZM30.6762 10.6866C29.5735 10.5919 28.7548 9.62392 28.8495 8.52525C28.9442 7.42792 29.9162 6.61459 31.0188 6.70926C32.1215 6.80392 32.9402 7.77192 32.8455 8.87059C32.7508 9.96792 31.7788 10.7826 30.6762 10.6866ZM34.5148 6.98525C33.4122 6.89059 32.5935 5.92259 32.6882 4.82392C32.7828 3.72659 33.7548 2.91192 34.8588 3.00792C35.9615 3.10259 36.7802 4.07059 36.6855 5.16925C36.5908 6.26659 35.6188 7.07992 34.5148 6.98525ZM27.8082 32.3253C26.7055 32.2306 25.8868 31.2626 25.9815 30.1639C26.0762 29.0666 27.0482 28.2533 28.1522 28.3479C29.2548 28.4426 30.0735 29.4106 29.9788 30.5093C29.8842 31.6066 28.9122 32.4213 27.8082 32.3253ZM31.6375 28.6346C30.5348 28.5399 29.7162 27.5706 29.8108 26.4733C29.9055 25.3759 30.8775 24.5613 31.9802 24.6559C33.0828 24.7519 33.9015 25.7199 33.8068 26.8173C33.7122 27.9159 32.7402 28.7293 31.6375 28.6346ZM35.4668 24.9426C34.3642 24.8479 33.5455 23.8799 33.6402 22.7826C33.7348 21.6839 34.7068 20.8706 35.8095 20.9653C36.9122 21.0599 37.7308 22.0279 37.6362 23.1266C37.5415 24.2239 36.5695 25.0386 35.4668 24.9426ZM39.3175 21.2306C38.2135 21.1359 37.3948 20.1679 37.4895 19.0706C37.5842 17.9719 38.5562 17.1586 39.6602 17.2533C40.7628 17.3479 41.5815 18.3173 41.4868 19.4146C41.3922 20.5119 40.4202 21.3266 39.3175 21.2306ZM43.1562 17.5293C42.0535 17.4346 41.2348 16.4666 41.3295 15.3679C41.4242 14.2706 42.3962 13.4559 43.4988 13.5519C44.6015 13.6466 45.4202 14.6146 45.3255 15.7133C45.2308 16.8106 44.2588 17.6253 43.1562 17.5293Z" fill="#9FEF00"/>
</g>
<defs>
<clipPath id="clip0_62_3899">
<rect width="64" height="64" fill="white" transform="translate(0 0.333252)"/>
</clipPath>
</defs>
</svg>
