<svg width="64" height="65" viewBox="0 0 64 65" fill="none" xmlns="http://www.w3.org/2000/svg">
<path fill-rule="evenodd" clip-rule="evenodd" d="M57.3335 47.5999C57.3335 46.1279 58.5282 44.9333 60.0002 44.9333C61.4722 44.9333 62.6668 46.1279 62.6668 47.5999V56.3333C62.6668 60.0133 59.6802 62.9999 56.0002 62.9999H8.00016C4.32016 62.9999 1.3335 60.0133 1.3335 56.3333V30.9999C1.3335 29.5279 2.52816 28.3333 4.00016 28.3333C5.47216 28.3333 6.66683 29.5279 6.66683 30.9999V53.6666C6.66683 55.8746 8.45883 57.6666 10.6668 57.6666H53.3335C55.5415 57.6666 57.3335 55.8746 57.3335 53.6666V47.5999ZM6.66683 17.0666C6.66683 18.5386 5.47216 19.7333 4.00016 19.7333C2.52816 19.7333 1.3335 18.5386 1.3335 17.0666V8.33325C1.3335 4.65325 4.32016 1.66659 8.00016 1.66659H56.0002C59.6802 1.66659 62.6668 4.65325 62.6668 8.33325V34.7599C62.6668 36.2319 61.4722 37.4266 60.0002 37.4266C58.5282 37.4266 57.3335 36.2319 57.3335 34.7599V10.9999C57.3335 8.79192 55.5415 6.99992 53.3335 6.99992H10.6668C8.45883 6.99992 6.66683 8.79192 6.66683 10.9999V17.0666ZM46.6668 13.6666H17.3322L16.0002 28.3333H18.5882C18.9442 25.7479 19.4015 23.4906 19.9615 21.8359C21.2842 18.0613 23.3255 16.3639 26.7855 16.3639C28.4642 16.3639 29.1762 16.9319 29.1762 18.2253V45.8733C29.1762 48.0453 28.6975 47.8906 24.5975 48.3039H24.0002V50.9999H40.0002V48.3039H39.4028C35.3322 48.3039 34.8748 48.0453 34.8748 45.8733V18.2253C34.8748 16.9319 35.5868 16.3639 37.2655 16.3639C40.3695 16.3639 42.4615 17.8546 43.7335 20.9573C44.4975 22.8706 45.0055 25.3853 45.4122 28.3333H48.0002L46.6668 13.6666Z" fill="#9FEF00"/>
</svg>
