<svg width="64" height="65" viewBox="0 0 64 65" fill="none" xmlns="http://www.w3.org/2000/svg">
<path fill-rule="evenodd" clip-rule="evenodd" d="M39.3334 23.3333C36.3894 23.3333 34.0001 24.6773 34.0001 26.3333V38.3333H40.0534L30.2401 47.9733L22.6934 38.3333H28.6667V16.9999C28.6667 15.5279 27.4721 14.3333 26.0001 14.3333C24.5281 14.3333 23.3334 15.5279 23.3334 16.9999V32.9999H15.9734C13.0294 32.9999 12.1934 34.8159 14.1067 37.0533L26.2934 51.3066C28.2067 53.5439 31.4921 53.7133 33.6254 51.6853L49.4148 36.6746C51.5481 34.6466 50.8907 32.9999 47.9467 32.9999H39.3334V28.6666H40.6667H50.0001C52.2081 28.6666 54.0001 30.4586 54.0001 32.6666V51.6666C54.0001 53.8746 52.2081 55.6666 50.0001 55.6666H14.0001C11.7921 55.6666 10.0001 53.8746 10.0001 51.6666V42.3333C10.0001 40.8613 8.80541 39.6666 7.33341 39.6666C5.86141 39.6666 4.66675 40.8613 4.66675 42.3333V54.3333C4.66675 58.0133 7.65341 60.9999 11.3334 60.9999H52.6667C56.3467 60.9999 59.3334 58.0133 59.3334 54.3333V29.9999C59.3334 26.3199 56.3467 23.3333 52.6667 23.3333H40.6667H39.3334ZM10.0001 26.3333C10.0001 27.8053 8.80541 28.9999 7.33341 28.9999C5.86141 28.9999 4.66675 27.8053 4.66675 26.3333V10.3333C4.66675 6.65325 7.65341 3.66659 11.3334 3.66659H56.6667C58.1387 3.66659 59.3334 4.86125 59.3334 6.33325C59.3334 7.80525 58.1387 8.99992 56.6667 8.99992H14.0001C11.7921 8.99992 10.0001 10.7919 10.0001 12.9999V26.3333ZM34.0001 16.9999C34.0001 15.5279 35.1947 14.3333 36.6667 14.3333C38.1387 14.3333 39.3334 15.5279 39.3334 16.9999C39.3334 18.4719 38.1387 19.6666 36.6667 19.6666C35.1947 19.6666 34.0001 18.4719 34.0001 16.9999ZM4.66675 34.3333C4.66675 32.8613 5.86141 31.6666 7.33341 31.6666C8.80541 31.6666 10.0001 32.8613 10.0001 34.3333C10.0001 35.8053 8.80541 36.9999 7.33341 36.9999C5.86141 36.9999 4.66675 35.8053 4.66675 34.3333Z" fill="#9FEF00"/>
</svg>
