<svg width="64" height="65" viewBox="0 0 64 65" fill="none" xmlns="http://www.w3.org/2000/svg">
<path fill-rule="evenodd" clip-rule="evenodd" d="M7.99984 29.9998V27.3332C8.01317 24.8798 8.6265 22.4665 9.77317 20.2932C11.0265 17.9865 12.7332 15.9598 14.7998 14.3465C17.0932 12.5332 19.6932 11.1332 22.4665 10.2132C25.5465 9.17318 28.7598 8.65318 31.9998 8.66651C35.2398 8.65318 38.4532 9.17318 41.5332 10.2132C44.3065 11.1332 46.9065 12.5332 49.1998 14.3465C51.2665 15.9598 52.9732 17.9865 54.2265 20.2932C55.3732 22.4665 55.9865 24.8798 55.9998 27.3332V29.9998H51.3865C50.3865 29.4398 49.3332 28.9865 48.2532 28.6265C46.9998 28.2265 45.6798 28.0132 44.3598 27.9998C43.0532 27.9998 41.7598 28.2265 40.5332 28.6532C39.8398 28.9065 39.1598 29.2132 38.5198 29.5865C37.6932 29.1998 36.8532 28.8798 35.9732 28.6132C34.6398 28.2132 33.2532 28.0132 31.8532 27.9998C30.4665 27.9998 29.0798 28.2132 27.7598 28.6265C26.9198 28.8932 26.0932 29.2265 25.3065 29.6132C24.4398 29.1865 23.5465 28.8132 22.6265 28.5065C21.3332 28.0665 19.9865 27.8398 18.6132 27.8132C17.2932 27.8132 15.9732 28.0665 14.7465 28.5732C13.8798 28.9332 13.0665 29.4132 12.3332 29.9998H7.99984ZM2.6665 29.9998V27.3332V27.3198C2.67984 23.9865 3.5065 20.7065 5.07984 17.7732C6.67984 14.8132 8.85317 12.2265 11.4932 10.1598C14.2798 7.95984 17.4132 6.26651 20.7865 5.14651C24.3998 3.93317 28.1865 3.31984 31.9998 3.33317C35.8132 3.31984 39.5998 3.93317 43.2132 5.14651C46.5865 6.26651 49.7198 7.95984 52.5065 10.1598C55.1465 12.2265 57.3198 14.8132 58.9198 17.7732C60.4932 20.7065 61.3198 23.9865 61.3332 27.3198V27.3332V29.9998C61.3332 31.4132 60.7732 32.7732 59.7732 33.7732C58.7732 34.7732 57.4132 35.3332 55.9998 35.3332H50.6665C50.1732 35.3332 49.6932 35.1998 49.2665 34.9332C48.4265 34.4265 47.5332 34.0132 46.5998 33.7065C45.8665 33.4665 45.1065 33.3465 44.3465 33.3332C43.6532 33.3332 42.9732 33.4532 42.3198 33.6798C40.9998 34.1598 39.8265 34.9865 39.7825 35.0385C39.3145 35.6065 38.4638 35.6958 37.8865 35.2398C37.5998 35.0132 36.0798 34.2132 34.4532 33.7198C33.5998 33.4665 32.7198 33.3465 31.8398 33.3332C30.9998 33.3465 30.1465 33.4665 29.3465 33.7198C27.8932 34.1732 26.5465 34.9332 26.4132 35.0505C25.8612 35.5385 24.9358 35.5732 24.3492 35.1292C24.0532 34.9065 22.5332 34.0932 20.9198 33.5598C20.1598 33.2932 19.3732 33.1598 18.5732 33.1465C17.9598 33.1465 17.3598 33.2665 16.7998 33.4932C16.2132 33.7465 15.6665 34.1198 15.1998 34.5732C14.7065 35.0532 14.0265 35.3332 13.3332 35.3332H7.99984C6.5865 35.3332 5.2265 34.7732 4.2265 33.7732C3.2265 32.7732 2.6665 31.4132 2.6665 29.9998ZM29.3332 37.9998C29.3332 36.5278 30.5278 35.3332 31.9998 35.3332C33.4718 35.3332 34.6665 36.5278 34.6665 37.9998V53.9998C34.6665 56.3332 33.8798 58.5998 32.4265 60.4265C31.0532 62.1065 28.9998 63.0798 26.8398 63.0532C24.6265 63.0398 22.5198 62.0665 21.0665 60.3998C20.3198 59.5198 19.7465 58.5065 19.3598 57.4132C18.9332 56.3465 18.6932 55.2132 18.6665 54.0665C18.6665 54.0398 18.6665 54.0265 18.6665 53.9998V51.3332C18.6665 49.8612 19.8612 48.6665 21.3332 48.6665C22.8052 48.6665 23.9998 49.8612 23.9998 51.3332V53.9598C24.0132 54.5065 24.1332 55.0398 24.3465 55.5332C24.5198 56.0398 24.7732 56.5198 25.1198 56.9332C25.5732 57.4398 26.2132 57.7198 26.8798 57.7198C27.4132 57.7332 27.9198 57.4932 28.2665 57.0798C28.9598 56.1998 29.3332 55.1198 29.3332 53.9998V37.9998Z" fill="#9FEF00"/>
</svg>
