<svg width="69" height="70" viewBox="0 0 69 70" fill="none" xmlns="http://www.w3.org/2000/svg">
<g filter="url(#filter0_d_55_3619)">
<path fill-rule="evenodd" clip-rule="evenodd" d="M27.9998 21.3337C27.9998 19.8617 29.0452 18.667 30.3332 18.667C31.6212 18.667 32.6665 19.8617 32.6665 21.3337V57.5923C32.6665 59.6577 30.9905 61.3337 28.9252 61.3337H19.6332C11.3732 61.3337 4.6665 54.627 4.6665 46.367V17.6337C4.6665 9.37366 11.3732 2.66699 19.6332 2.66699H30.3332C31.6212 2.66699 32.6665 3.86166 32.6665 5.33366C32.6665 6.80566 31.6212 8.00033 30.3332 8.00033H20.5585C14.3625 8.00033 9.33317 13.0297 9.33317 19.2257V44.775C9.33317 50.971 14.3625 56.0003 20.5585 56.0003H27.9998V21.3337ZM14.6665 20.0003C14.6665 17.7923 16.4585 16.0003 18.6665 16.0003C20.8745 16.0003 22.6665 17.7923 22.6665 20.0003C22.6665 22.2083 20.8745 24.0003 18.6665 24.0003C16.4585 24.0003 14.6665 22.2083 14.6665 20.0003ZM41.3332 42.667C41.3332 44.139 40.2878 45.3337 38.9998 45.3337C37.7118 45.3337 36.6665 44.139 36.6665 42.667V6.40833C36.6665 4.34299 38.3425 2.66699 40.4078 2.66699H49.6998C57.9598 2.66699 64.6665 9.37366 64.6665 17.6337V46.367C64.6665 54.627 57.9598 61.3337 49.6998 61.3337H38.9998C37.7118 61.3337 36.6665 60.139 36.6665 58.667C36.6665 57.195 37.7118 56.0003 38.9998 56.0003H48.7745C54.9705 56.0003 59.9998 50.971 59.9998 44.775V19.2257C59.9998 13.0297 54.9705 8.00033 48.7745 8.00033H41.3332V42.667ZM46.6665 44.0003C46.6665 41.7923 48.4585 40.0003 50.6665 40.0003C52.8745 40.0003 54.6665 41.7923 54.6665 44.0003C54.6665 46.2083 52.8745 48.0003 50.6665 48.0003C48.4585 48.0003 46.6665 46.2083 46.6665 44.0003Z" fill="#9FEF00"/>
</g>
<defs>
<filter id="filter0_d_55_3619" x="-2" y="0" width="72" height="72" filterUnits="userSpaceOnUse" color-interpolation-filters="sRGB">
<feFlood flood-opacity="0" result="BackgroundImageFix"/>
<feColorMatrix in="SourceAlpha" type="matrix" values="0 0 0 0 0 0 0 0 0 0 0 0 0 0 0 0 0 0 127 0" result="hardAlpha"/>
<feOffset dy="4"/>
<feGaussianBlur stdDeviation="2"/>
<feComposite in2="hardAlpha" operator="out"/>
<feColorMatrix type="matrix" values="0 0 0 0 0 0 0 0 0 0 0 0 0 0 0 0 0 0 0.25 0"/>
<feBlend mode="normal" in2="BackgroundImageFix" result="effect1_dropShadow_55_3619"/>
<feBlend mode="normal" in="SourceGraphic" in2="effect1_dropShadow_55_3619" result="shape"/>
</filter>
</defs>
</svg>
