<svg width="64" height="64" viewBox="0 0 64 64" fill="none" xmlns="http://www.w3.org/2000/svg">
<g clip-path="url(#clip0_6_65)">
<path fill-rule="evenodd" clip-rule="evenodd" d="M30.5159 38.5399H33.4839C34.6039 38.5399 35.5119 37.6319 35.5119 36.5119V14.8093C35.5119 13.6906 34.6039 12.7813 33.4839 12.7813H30.5159C29.3959 12.7813 28.4879 13.6906 28.4879 14.8093V36.5119C28.4879 37.6319 29.3959 38.5399 30.5159 38.5399ZM28.8119 49.8986C27.0519 48.1386 27.0519 45.2826 28.8119 43.5226C30.5719 41.7626 33.4279 41.7626 35.1879 43.5226C36.9479 45.2826 36.9479 48.1386 35.1879 49.8986C33.4279 51.6586 30.5719 51.6586 28.8119 49.8986ZM6.36389 33.9106C6.24656 32.3439 4.87589 31.1653 3.30522 31.2799C1.73589 31.3933 0.557224 32.7639 0.674557 34.3386C1.25989 42.2239 4.81056 49.6106 10.6146 55.0013C16.4172 60.3773 24.0466 63.3719 31.9612 63.3719C40.2746 63.3719 48.2599 60.0639 54.1492 54.1879C60.0252 48.2986 63.3332 40.3133 63.3332 31.9999C63.3332 23.6866 60.0252 15.7013 54.1492 9.81193C48.2599 3.93593 40.2746 0.62793 31.9612 0.62793C30.3866 0.62793 29.1092 1.90526 29.1092 3.47993C29.1092 5.0546 30.3866 6.33193 31.9612 6.33193C38.7626 6.33193 45.2946 9.04126 50.1146 13.8466C54.9199 18.6666 57.6292 25.1973 57.6292 31.9999C57.6292 38.8026 54.9199 45.3333 50.1146 50.1533C45.2946 54.9586 38.7626 57.6679 31.9612 57.6679C25.4866 57.6679 19.2412 55.2293 14.4932 50.8226C9.74389 46.4173 6.84922 40.3706 6.36389 33.9106ZM20.0252 9.26926C21.4186 8.53726 21.9559 6.81193 21.2239 5.4186C20.4919 4.0266 18.7666 3.48926 17.3732 4.22126C11.4412 7.34393 6.64922 12.2919 3.72656 18.3239C3.03322 19.7413 3.62122 21.4506 5.03856 22.1386C6.45456 22.8279 8.16789 22.2373 8.85989 20.8199C11.2559 15.8719 15.1626 11.8359 20.0252 9.26926Z" fill="#9FEF00"/>
</g>
<defs>
<clipPath id="clip0_6_65">
<rect width="64" height="64" fill="white"/>
</clipPath>
</defs>
</svg>
