<svg width="64" height="65" viewBox="0 0 64 65" fill="none" xmlns="http://www.w3.org/2000/svg">
<path fill-rule="evenodd" clip-rule="evenodd" d="M27.7265 51.1812V55.4545H50.5145C52.0865 55.4545 53.3638 56.7305 53.3638 58.3025C53.3638 59.8745 52.0865 61.1518 50.5145 61.1518H13.4852C11.9132 61.1518 10.6358 59.8745 10.6358 58.3025C10.6358 56.7305 11.9132 55.4545 13.4852 55.4545H22.0305V51.1812H7.78784C3.85717 51.1812 0.666504 47.9905 0.666504 44.0598V11.3025C0.666504 7.37317 3.85717 4.18117 7.78784 4.18117H56.2118C60.1425 4.18117 63.3332 7.37317 63.3332 11.3025V15.5758C63.3332 17.1478 62.0572 18.4238 60.4852 18.4238C58.9132 18.4238 57.6358 17.1478 57.6358 15.5758V11.3025C57.6358 10.5172 56.9985 9.8785 56.2118 9.8785H7.78784C7.00117 9.8785 6.36384 10.5172 6.36384 11.3025V44.0598C6.36384 44.8465 7.00117 45.4852 7.78784 45.4852H56.2118C56.9985 45.4852 57.6358 44.8465 57.6358 44.0598V28.3932C57.6358 26.8212 58.9132 25.5452 60.4852 25.5452C62.0572 25.5452 63.3332 26.8212 63.3332 28.3932V44.0598C63.3332 47.9905 60.1425 51.1812 56.2118 51.1812H41.9692V55.4545H36.2732V51.1812H27.7265ZM36.1438 20.9545C36.1438 19.3532 37.4438 18.0545 39.0452 18.0545C40.6465 18.0545 41.9452 19.3532 41.9452 20.9545C41.9452 22.5558 40.6465 23.8558 39.0452 23.8558C37.4438 23.8558 36.1438 22.5558 36.1438 20.9545ZM18.7385 31.2318L26.2385 24.9758C27.6438 23.8038 29.8332 23.9038 31.1265 25.1985L34.4172 28.4932C35.0638 29.1398 36.2332 29.2972 37.0278 28.8438L44.5412 24.5492C44.9385 24.3212 45.2612 23.7665 45.2612 23.3092V18.4678C45.2612 17.0958 44.1465 15.9812 42.7745 15.9812H21.2252C19.8532 15.9812 18.7385 17.0958 18.7385 18.4678V31.2318ZM45.2612 31.7292C45.2612 30.8145 46.0038 30.0718 46.9185 30.0718C47.8332 30.0718 48.5758 30.8145 48.5758 31.7292V39.1892C48.5758 41.4758 46.7198 43.3332 44.4318 43.3332H19.5678C17.2798 43.3332 15.4238 41.4758 15.4238 39.1892V16.8105C15.4238 14.5238 17.2798 12.6665 19.5678 12.6665H44.4318C46.7198 12.6665 48.5758 14.5238 48.5758 16.8105V24.4025C48.5758 25.3172 47.9318 26.4292 47.1372 26.8825L37.9198 32.1492C36.3318 33.0558 33.9905 32.7438 32.6958 31.4505L29.7585 28.5158C29.1105 27.8705 28.0145 27.8198 27.3118 28.4065L19.7998 34.6638L18.7385 35.5425V37.5318C18.7385 38.9038 19.8532 40.0185 21.2252 40.0185H42.7745C44.1465 40.0185 45.2612 38.9038 45.2612 37.5318V31.7292Z" fill="#9FEF00"/>
</svg>
