<svg width="64" height="64" viewBox="0 0 64 64" fill="none" xmlns="http://www.w3.org/2000/svg">
<path d="M8.00033 15.8003C8.00033 17.2723 6.80566 18.467 5.33366 18.467C3.86166 18.467 2.66699 17.2723 2.66699 15.8003V12.0003C2.66699 6.84966 6.84966 2.66699 12.0003 2.66699H52.0003C57.151 2.66699 61.3337 6.84966 61.3337 12.0003V33.8803C61.3337 37.5603 58.347 40.547 54.667 40.547H47.467L41.187 27.0537L34.9337 39.0537L29.4003 25.667L19.3337 47.9737L13.9737 30.147H10.667C9.19499 30.147 8.00033 31.3417 8.00033 32.8137V49.3337C8.00033 53.0137 10.987 56.0003 14.667 56.0003H49.3337C53.0137 56.0003 56.0003 53.0137 56.0003 49.3337V46.8937C56.0003 45.4217 57.195 44.227 58.667 44.227C60.139 44.227 61.3337 45.4217 61.3337 46.8937V52.0003C61.3337 57.151 57.151 61.3337 52.0003 61.3337H12.0003C6.84966 61.3337 2.66699 57.151 2.66699 52.0003V31.4803C2.66699 27.8003 5.65366 24.8137 9.33366 24.8137H18.027L20.667 34.267L29.267 13.6937L35.7337 26.307L41.4803 12.307L51.2003 35.2137H53.3337C54.8057 35.2137 56.0003 34.019 56.0003 32.547V14.667C56.0003 10.987 53.0137 8.00033 49.3337 8.00033H14.667C10.987 8.00033 8.00033 10.987 8.00033 14.667V15.8003Z" fill="#9FEF00"/>
</svg>
