<svg width="64" height="64" viewBox="0 0 64 64" fill="none" xmlns="http://www.w3.org/2000/svg">
<path fill-rule="evenodd" clip-rule="evenodd" d="M39.74 28V36L34.0267 32L39.74 28ZM39.74 16L27.9733 27.7653L19.74 22L15.74 24L23.74 32L15.74 40L19.74 42L27.9733 36.2347L39.74 48L47.74 44V20L39.74 16ZM25.08 57.76C26.5 58.1427 27.3427 59.6067 26.96 61.0267C26.5773 62.4467 25.1133 63.2893 23.6933 62.9067C16.8933 61.08 10.88 57.0533 6.6 51.4667C2.32 45.88 0 39.04 0 32C0 23.52 3.37333 15.3733 9.37333 9.37333C15.3733 3.37333 23.52 0 32 0C40.48 0 48.6267 3.37333 54.6267 9.37333C60.6267 15.3733 64 23.52 64 32C64 39.0133 61.6933 45.8267 57.4533 51.4C53.2 56.9733 47.24 61 40.48 62.8667C39.06 63.2573 37.5907 62.42 37.2 61C36.8093 59.58 37.6467 58.1107 39.0667 57.72C44.6933 56.1733 49.6667 52.8133 53.2133 48.1733C56.7467 43.52 58.6667 37.84 58.6667 32C58.6667 24.9333 55.8533 18.1467 50.8533 13.1467C45.8533 8.14667 39.0667 5.33333 32 5.33333C24.9333 5.33333 18.1467 8.14667 13.1467 13.1467C8.14667 18.1467 5.33333 24.9333 5.33333 32C5.33333 37.8667 7.26667 43.5733 10.84 48.2267C14.4 52.88 19.4133 56.24 25.08 57.76Z" fill="#9FEF00"/>
</svg>
