<svg width="64" height="65" viewBox="0 0 64 65" fill="none" xmlns="http://www.w3.org/2000/svg">
<path d="M17.2519 43.5332H39.6813C41.3293 43.5332 42.6666 44.7278 42.6666 46.1998C42.6666 47.6718 41.3293 48.8665 39.6813 48.8665H17.2519C15.6039 48.8665 14.2666 47.6718 14.2666 46.1998C14.2666 44.7278 15.6039 43.5332 17.2519 43.5332Z" fill="#9FEF00"/>
<path d="M21.2399 30.2932H34.3599C36.0013 30.2932 37.3333 31.4878 37.3333 32.9598C37.3333 34.4318 36.0013 35.6265 34.3599 35.6265H21.2399C19.5986 35.6265 18.2666 34.4318 18.2666 32.9598C18.2666 31.4878 19.5986 30.2932 21.2399 30.2932Z" fill="#9FEF00"/>
<path d="M22.5735 33.3465L22.2322 34.6438C22.0455 35.3558 21.3162 35.7798 20.6055 35.5905L20.5988 35.5892C18.4655 35.0212 17.0442 33.4065 17.4268 31.9865L23.9122 5.22118C24.4308 3.07451 26.6455 1.33318 28.8535 1.33318H35.1602C37.3682 1.33318 39.6095 3.06784 40.1628 5.20518L51.5455 49.1892C51.7308 49.9012 52.4775 50.4798 53.2135 50.4798H58.6668C60.8748 50.4798 62.6668 52.2718 62.6668 54.4798V59.9998C62.6668 62.2078 60.8748 63.9998 58.6668 63.9998H5.3335C3.1255 63.9998 1.3335 62.2078 1.3335 59.9998V54.4798C1.3335 52.2718 3.1255 50.4798 5.3335 50.4798H10.7735C11.5095 50.4798 12.2548 49.9012 12.4362 49.1878L13.4135 45.3465C13.7815 43.9185 15.8162 43.2038 17.9548 43.7518L19.2402 44.0798L18.5868 46.6532L16.5828 54.5212C16.4015 55.2345 15.6562 55.8132 14.9202 55.8132H8.00016C7.26416 55.8132 6.66683 56.4105 6.66683 57.1465V57.3332C6.66683 58.0692 7.26416 58.6665 8.00016 58.6665H56.0002C56.7362 58.6665 57.3335 58.0692 57.3335 57.3332V57.1465C57.3335 56.4105 56.7362 55.8132 56.0002 55.8132H49.0935C48.3575 55.8132 47.6108 55.2345 47.4255 54.5225L35.3615 7.95718C35.1762 7.24518 34.4295 6.66651 33.6935 6.66651H30.2935C29.5575 6.66651 28.8215 7.24784 28.6495 7.96384L22.5735 33.3465Z" fill="#9FEF00"/>
</svg>
