<svg width="65" height="64" viewBox="0 0 65 64" fill="none" xmlns="http://www.w3.org/2000/svg">
<path d="M41.4667 50.6667C43.24 50.6667 44.6667 49.24 44.6667 47.4667V23.2C44.6667 21.4267 43.24 20 41.4667 20H17.2C15.4267 20 14 21.4267 14 23.2V47.4667C14 49.24 15.4267 50.6667 17.2 50.6667H41.4667ZM38 44H20.6667V26.6667H38V44Z" fill="#A4B1CD"/>
<path fill-rule="evenodd" clip-rule="evenodd" d="M8.66634 24.48C8.66634 25.952 7.47167 27.1466 5.99967 27.1466C4.52767 27.1466 3.33301 25.952 3.33301 24.48V9.33329C3.33301 5.65329 6.31967 2.66663 9.99967 2.66663H25.1463C26.6183 2.66663 27.813 3.86129 27.813 5.33329C27.813 6.80529 26.6183 7.99996 25.1463 7.99996H12.6663C10.4583 7.99996 8.66634 9.79196 8.66634 12V24.48ZM40.1863 7.99996C38.7143 7.99996 37.5197 6.80529 37.5197 5.33329C37.5197 3.86129 38.7143 2.66663 40.1863 2.66663H55.333C59.013 2.66663 61.9997 5.65329 61.9997 9.33329V24.48C61.9997 25.952 60.805 27.1466 59.333 27.1466C57.861 27.1466 56.6663 25.952 56.6663 24.48V12C56.6663 9.79196 54.8743 7.99996 52.6663 7.99996H40.1863ZM56.6663 39.52C56.6663 38.048 57.861 36.8533 59.333 36.8533C60.805 36.8533 61.9997 38.048 61.9997 39.52V54.6666C61.9997 58.3466 59.013 61.3333 55.333 61.3333H40.6663C39.1943 61.3333 37.9997 60.1386 37.9997 58.6666C37.9997 57.1946 39.1943 56 40.6663 56H52.6663C54.8743 56 56.6663 54.208 56.6663 52V39.52ZM25.1463 56C26.6183 56 27.813 57.1946 27.813 58.6666C27.813 60.1386 26.6183 61.3333 25.1463 61.3333H9.99967C6.31967 61.3333 3.33301 58.3466 3.33301 54.6666V39.52C3.33301 38.048 4.52767 36.8533 5.99967 36.8533C7.47167 36.8533 8.66634 38.048 8.66634 39.52V52C8.66634 54.208 10.4583 56 12.6663 56H25.1463ZM48.133 44C49.9063 44 51.333 42.5733 51.333 40.8V16.5333C51.333 14.76 49.9063 13.3333 48.133 13.3333H23.8663C22.093 13.3333 20.6663 14.76 20.6663 16.5333V20H44.6663V37.3333H27.333V26.6666H20.6663V40.8C20.6663 42.5733 22.093 44 23.8663 44H48.133Z" fill="#9FEF00"/>
</svg>
