<svg width="72" height="72" viewBox="0 0 72 72" fill="none" xmlns="http://www.w3.org/2000/svg">
<g clip-path="url(#clip0_17_1138)" filter="url(#filter0_d_17_1138)">
<path fill-rule="evenodd" clip-rule="evenodd" d="M24.3654 5.09607H47.6347C51.6774 5.09607 55.5747 6.71073 58.4254 9.57473C61.2894 12.4254 62.9041 16.3227 62.9041 20.3654V43.6347C62.9041 47.6774 61.2894 51.5747 58.4254 54.4254C55.5747 57.2894 51.6774 58.9041 47.6347 58.9041H24.3654C20.3227 58.9041 16.4254 57.2894 13.5747 54.4254C10.7107 51.5747 9.09607 47.6774 9.09607 43.6347V20.3654C9.09607 16.3227 10.7107 12.4254 13.5747 9.57473C16.4254 6.71073 20.3227 5.09607 24.3654 5.09607ZM24.3654 0.733398H47.6347C52.8401 0.733398 57.8427 2.79873 61.5227 6.4774C65.2014 10.1574 67.2667 15.1601 67.2667 20.3654V43.6347C67.2667 48.8401 65.2014 53.8427 61.5227 57.5227C57.8427 61.2014 52.8401 63.2667 47.6347 63.2667H24.3654C19.1601 63.2667 14.1574 61.2014 10.4774 57.5227C6.79873 53.8427 4.7334 48.8401 4.7334 43.6347V20.3654C4.7334 15.1601 6.79873 10.1574 10.4774 6.4774C14.1574 2.79873 19.1601 0.733398 24.3654 0.733398ZM17.0521 16.6667L25.6881 45.3121C25.6974 45.3294 25.7041 45.3347 25.7134 45.3521C26.0174 46.4907 27.0467 47.3334 28.2814 47.3334C29.4521 47.3334 30.4361 46.5734 30.7947 45.5241C30.8027 45.5081 30.8214 45.4894 30.8281 45.4734L39.5107 16.6667H36.7267L28.2814 44.6801L19.8361 16.6667H17.0521ZM48.2814 16.6667C44.6001 16.6667 41.6147 19.6521 41.6147 23.3334V30.0001H44.2814V27.3334V26.0001V23.3334C44.2814 21.0921 46.0401 19.3334 48.2814 19.3334C50.5214 19.3334 52.2814 21.0921 52.2814 23.3334V26.0001V27.3334V30.0001H54.9481V23.3334C54.9481 19.6521 51.9627 16.6667 48.2814 16.6667ZM48.2814 34.0001C44.6001 34.0001 41.6147 36.9854 41.6147 40.6667C41.6147 44.3481 44.6001 47.3334 48.2814 47.3334H54.9481V44.6667H52.2814H50.9481H48.2814C46.0401 44.6667 44.2814 42.9081 44.2814 40.6667C44.2814 38.4254 46.0401 36.6667 48.2814 36.6667H50.9481H52.2814H54.9481V34.0001H48.2814Z" fill="#9FEF00"/>
</g>
<defs>
<filter id="filter0_d_17_1138" x="0" y="0" width="72" height="72" filterUnits="userSpaceOnUse" color-interpolation-filters="sRGB">
<feFlood flood-opacity="0" result="BackgroundImageFix"/>
<feColorMatrix in="SourceAlpha" type="matrix" values="0 0 0 0 0 0 0 0 0 0 0 0 0 0 0 0 0 0 127 0" result="hardAlpha"/>
<feOffset dy="4"/>
<feGaussianBlur stdDeviation="2"/>
<feComposite in2="hardAlpha" operator="out"/>
<feColorMatrix type="matrix" values="0 0 0 0 0 0 0 0 0 0 0 0 0 0 0 0 0 0 0.25 0"/>
<feBlend mode="normal" in2="BackgroundImageFix" result="effect1_dropShadow_17_1138"/>
<feBlend mode="normal" in="SourceGraphic" in2="effect1_dropShadow_17_1138" result="shape"/>
</filter>
<clipPath id="clip0_17_1138">
<rect width="64" height="64" fill="white" transform="translate(4)"/>
</clipPath>
</defs>
</svg>
