<svg width="64" height="64" viewBox="0 0 64 64" fill="none" xmlns="http://www.w3.org/2000/svg">
<g clip-path="url(#clip0_62_3859)">
<path d="M62.4667 20.764C51.0973 35.5547 38.5174 51.448 32.7374 60.1067C32.5654 60.1067 27.2787 60.08 30.0027 60.1067C26.968 57.1609 25.4507 55.688 25.4507 55.688C27.96 50.3827 41.9533 31.2893 56.68 13.0773C60.62 14.5973 59.78 16.1107 62.4667 20.764Z" fill="#A4B1CD"/>
<path d="M62.4613 6.23331C62.4893 5.13464 61.7 3.90131 60.2546 3.89464L47.2893 3.89331C50.3093 7.90131 56.144 14.2453 62.4666 20.9506L62.4613 6.23331Z" fill="#9FEF00"/>
<path d="M9.59878 7.13867H1.53345L20.1481 56.6613C20.4774 57.6187 21.6641 60.0427 23.1548 60.0867L32.1588 60.1067C25.8388 42.7013 19.5174 27.0053 13.1974 9.6C12.7388 8.60134 11.2828 7.13867 9.59878 7.13867Z" fill="#9FEF00"/>
</g>
<defs>
<clipPath id="clip0_62_3859">
<rect width="64" height="64" fill="white"/>
</clipPath>
</defs>
</svg>
