<svg width="64" height="64" viewBox="0 0 64 64" fill="none" xmlns="http://www.w3.org/2000/svg">
<g clip-path="url(#clip0_62_3856)">
<path d="M37.4934 12.688C37.756 12.2733 38.2267 11.9973 38.72 11.996C39.412 11.9933 40.0694 12.3827 40.4707 12.936C40.848 13.464 40.964 14.1333 40.9654 14.772C40.9587 15.6693 40.752 16.552 40.5054 17.4107C39.8894 19.4373 39.0534 21.3893 38.428 23.4147C37.74 25.712 37.4107 28.2733 38.3347 30.5547C38.8174 29.2053 39.296 27.8533 39.7774 26.5027C39.9147 26.1453 40.0947 25.74 40.4774 25.5933C41.0094 25.404 41.552 25.96 41.5374 26.4747C41.392 27.224 41.1094 27.9373 40.8867 28.6667C39.0854 34.0827 37.0667 39.4227 35.124 44.7893C37.708 42.428 40.3 40.0733 42.8867 37.716C43.632 37.0373 44.4387 36.2987 44.6667 35.2747C44.8947 34.2693 44.472 33.272 43.992 32.408C43.4374 31.3773 42.7307 30.3987 42.4707 29.2387C42.3387 28.6387 42.3787 27.9467 42.784 27.4547C43.076 27.0853 43.6067 26.8933 44.056 27.0747C44.4987 27.244 44.7667 27.6693 44.976 28.0707C45.6787 29.4813 46.1174 31.0227 46.268 32.5907C46.748 31.6227 47.2334 30.6573 47.7147 29.6907C48.004 29.12 48.2614 28.508 48.7334 28.0573C49.0174 27.7773 49.432 27.6 49.8334 27.692C50.336 27.8027 50.6894 28.26 50.824 28.736C50.9774 29.24 50.816 29.7667 50.6534 30.2453C50.168 31.588 49.4067 32.8013 48.672 34.016C47.6494 35.624 46.5614 37.1947 45.3747 38.688C46.0534 38.2347 46.768 37.7573 47.5987 37.6627C48.384 37.5573 49.252 38.0173 49.512 38.7853C49.6867 39.3067 49.4054 39.8973 48.932 40.1533C48.2387 40.54 47.4174 40.5347 46.6454 40.5693C43.848 40.6453 41.1214 42.024 39.3854 44.216C38.016 45.9653 37.316 48.1373 35.9254 49.872C35.048 50.9293 33.8094 52.256 32.4467 51.9627C30.632 51.5733 30.632 48.736 30.1787 47.3293C29.9454 46.62 29.508 45.9733 28.9 45.5307C28.3694 45.1387 27.7334 44.9133 27.0907 44.7907C25.616 44.5067 24.0947 44.6573 22.6227 44.3533C21.8867 44.2027 21.1614 43.908 20.5987 43.3987C20.0627 42.928 19.692 42.2987 19.436 41.6387C18.88 40.204 18.768 38.6467 18.2747 37.192C17.5614 35.1 16.1507 33.2507 14.312 32.0213C13.924 31.76 13.5027 31.504 13.252 31.096C13.048 30.7773 13.0654 30.324 13.3334 30.0467C13.784 29.556 14.5974 29.5147 15.1187 29.9213C16.1854 30.6773 16.3387 32.148 17.3334 32.9707C17.3347 31.612 17.328 30.256 17.3254 28.8987C17.3294 28.5067 17.2854 28.084 17.4814 27.728C17.66 27.3893 18.1534 27.2987 18.44 27.552C18.828 27.876 18.9467 28.4067 19.0014 28.8867C19.1947 30.7573 19.38 32.628 19.5747 34.5C20.548 33.624 20.996 32.204 20.6814 30.9293C20.5854 30.5227 20.4307 30.104 20.5187 29.6813C20.5894 29.328 20.9654 29.0787 21.32 29.1413C21.7174 29.196 22.0027 29.5373 22.1507 29.888C22.3894 30.468 22.3894 31.1147 22.3414 31.732C22.2 33.1373 21.6054 34.4347 21.196 35.772C20.796 36.952 20.5214 38.264 20.9214 39.4827C21.2787 40.6227 22.1827 41.524 23.244 42.0347C24.5547 42.6787 26.0307 42.8787 27.4747 42.9347C26.5974 41.3987 25.6427 39.7733 25.6587 37.9453C25.676 36.1053 26.8454 34.556 27.1614 32.78C27.7 29.8333 26.3707 26.6307 23.896 24.94C22.796 24.1853 21.476 23.8493 20.3467 23.148C19.3254 22.5227 18.408 21.4093 18.568 20.1427C19.344 19.8413 20.2107 20.0333 20.9107 20.4373C22.28 21.168 23.152 22.5533 24.5267 23.272C25.0107 23.536 25.564 23.6667 26.1147 23.632C26.4134 22.9187 26.1147 22.1173 25.6347 21.5613C24.7294 20.472 23.2027 20.2067 22.2574 19.1653C21.7827 18.6213 21.5187 17.8453 21.7174 17.1333C21.88 16.572 22.4614 16.1893 23.04 16.232C23.8974 16.2853 24.636 16.8227 25.2214 17.4133C27.1614 19.352 28.2774 21.988 28.7147 24.6667C29.232 27.828 28.8294 31.052 28.1934 34.164C28.0747 34.7973 27.852 35.448 28.016 36.0947C28.0867 36.3947 28.304 36.704 28.6347 36.7307C29.092 36.76 29.4694 36.4493 29.8014 36.1773C30.8414 35.328 31.668 34.184 32.0094 32.8747C32.2747 31.92 32.2827 30.92 32.264 29.9373C32.2694 29.4453 32.2334 28.9027 32.5267 28.4773C32.7374 28.148 33.1294 27.8893 33.532 27.9853C33.848 28.0453 34.072 28.32 34.1694 28.6133C34.324 29.096 34.3014 29.6187 34.2067 30.112C33.9094 31.4733 33.6414 32.8533 33.1027 34.1453C32.7227 35.0733 32.2094 35.956 31.5134 36.6827C30.7467 37.4947 29.8 38.1467 29.1827 39.0933C28.7614 39.74 28.4894 40.544 28.672 41.3173C28.8054 41.9333 29.2747 42.4373 29.84 42.6933C30.6654 43.0707 31.6667 43.0507 32.4694 42.6267C33.108 42.2827 33.5614 41.6867 33.9214 41.0733C34.5574 39.972 34.9427 38.748 35.2627 37.524C35.7547 35.5453 36.044 33.5173 36.1574 31.4827C36.288 29.308 35.8934 27.0613 34.7974 25.1613C34.2147 24.1453 33.3907 23.28 32.428 22.6173C31.5614 21.972 30.6094 21.4147 29.9054 20.5787C29.248 19.8053 28.7934 18.7613 29.032 17.7347C29.4827 17.452 30.0494 17.4027 30.548 17.5787C31.488 17.8987 32.224 18.6533 32.6987 19.508C33.3427 20.5133 33.88 21.712 35.016 22.2573C34.092 20.44 33.14 18.6387 32.204 16.828C31.9 16.216 31.6 15.548 31.68 14.848C31.7374 14.3147 32.2334 13.8773 32.768 13.88C33.2427 13.8813 33.688 14.148 33.9707 14.5213C34.2934 14.94 34.448 15.456 34.5934 15.9573C35.3387 18.5507 36.0827 21.1427 36.8307 23.7347C37.7707 21.9453 38.168 19.8707 37.9014 17.8613C37.784 16.796 37.4707 15.768 37.2227 14.728C37.0547 14.048 37.1054 13.2867 37.4934 12.688Z" fill="#9FEF00"/>
<path d="M25.08 58.0935C26.5 58.4762 27.3427 59.9402 26.96 61.3602C26.5773 62.7802 25.1133 63.6228 23.6933 63.2402C16.8933 61.4135 10.88 57.3868 6.6 51.8002C2.32 46.2135 0 39.3735 0 32.3335C0 23.8535 3.37333 15.7068 9.37333 9.70683C15.3733 3.70683 23.52 0.333496 32 0.333496C40.48 0.333496 48.6267 3.70683 54.6267 9.70683C60.6267 15.7068 64 23.8535 64 32.3335C64 39.3468 61.6933 46.1602 57.4533 51.7335C53.2 57.3068 47.24 61.3335 40.48 63.2002C39.06 63.5908 37.5907 62.7535 37.2 61.3335C36.8093 59.9135 37.6467 58.4442 39.0667 58.0535C44.6933 56.5068 49.6667 53.1468 53.2133 48.5068C56.7467 43.8535 58.6667 38.1735 58.6667 32.3335C58.6667 25.2668 55.8533 18.4802 50.8533 13.4802C45.8533 8.48016 39.0667 5.66683 32 5.66683C24.9333 5.66683 18.1467 8.48016 13.1467 13.4802C8.14667 18.4802 5.33333 25.2668 5.33333 32.3335C5.33333 38.2002 7.26667 43.9068 10.84 48.5602C14.4 53.2135 19.4133 56.5735 25.08 58.0935Z" fill="#A4B1CD"/>
</g>
<defs>
<clipPath id="clip0_62_3856">
<rect width="64" height="64" fill="white"/>
</clipPath>
</defs>
</svg>
