<svg width="56" height="57" viewBox="0 0 56 57" fill="none" xmlns="http://www.w3.org/2000/svg">
<path fill-rule="evenodd" clip-rule="evenodd" d="M49.1656 12.1919V13.6695L49.0553 13.6832L32.4097 15.764V9.27374L38.4594 10.138C38.9414 10.2063 39.3876 9.87034 39.456 9.38839C39.5243 8.90643 39.1883 8.4602 38.7063 8.39185L32.5331 7.50996L32.3704 7.48703C32.2774 6.95437 32.0229 6.45831 31.6336 6.07248C31.1397 5.57421 30.4651 5.29642 29.764 5.29642H16.0947C15.3936 5.29642 14.7189 5.57421 14.2251 6.07248C13.7268 6.56634 13.449 7.24098 13.449 7.94209V17.6429V18.5248H14.3309C13.6298 18.5248 12.9552 18.8026 12.4613 19.3008C11.963 19.7947 11.6852 20.4693 11.6852 21.1704V23.3752V24.2571H13.449V23.3752V21.1704C13.449 20.9367 13.5416 20.7119 13.7092 20.5487C13.8723 20.3811 14.0972 20.2885 14.3309 20.2885H38.5829C38.8166 20.2885 39.0415 20.3811 39.2046 20.5487C39.3722 20.7119 39.4648 20.9367 39.4648 21.1704V23.3752V24.2571H13.449H12.5671C12.5627 24.2571 12.5583 24.2571 12.5583 24.2571C12.0248 24.2615 11.5 24.3364 10.9841 24.4731C10.4506 24.6142 9.93469 24.8082 9.43642 25.0463C8.93816 25.28 8.46194 25.5622 8.01658 25.8885C7.58446 26.1972 7.19642 26.5632 6.8569 26.9689C6.85249 26.9733 6.85249 26.9777 6.84808 26.9777L3.06477 31.6385L2.61324 32.1941H2.34162C1.89627 32.1941 1.46855 32.3704 1.15548 32.6879C0.837999 33.001 0.661621 33.4287 0.661621 33.8741V36.2463C0.661621 36.6917 0.837999 37.1194 1.15548 37.4325C1.46855 37.75 1.89627 37.9263 2.34162 37.9263H3.15472L6.17343 45.3607C6.97595 47.3317 8.34729 49.0205 10.1155 50.2111C11.8837 51.4016 13.9649 52.0366 16.0947 52.0366H40.3467C42.4852 52.0366 44.5753 51.4149 46.3656 50.2419C48.1558 49.0734 49.5624 47.4067 50.4178 45.4489L53.7117 37.9255C54.1377 37.9122 54.5442 37.7376 54.8449 37.4325C55.1624 37.1194 55.3388 36.6917 55.3388 36.2463V33.8741C55.3388 33.4287 55.1624 33.001 54.8449 32.6879C54.5319 32.3704 54.1041 32.1941 53.6588 32.1941H53.3545L52.9577 31.6649L49.5183 27.0791C49.5183 27.0747 49.5139 27.0747 49.5139 27.0703C49.1876 26.6514 48.8084 26.2722 48.3895 25.9503C47.953 25.6108 47.4856 25.3197 46.9917 25.0728C46.5023 24.8259 45.9863 24.6274 45.4572 24.4819C44.9457 24.3408 44.4166 24.2615 43.883 24.2571C43.883 24.2571 43.8786 24.2571 43.8742 24.2571H41.2286V23.3752V21.1704C41.2286 20.4693 40.9508 19.7947 40.4525 19.3008C39.9586 18.8026 39.284 18.5248 38.5829 18.5248H32.4097V17.6429V17.5375L49.2405 15.4337C49.3446 15.8381 49.5554 16.2102 49.8578 16.5096C50.2988 16.955 50.8985 17.2019 51.5246 17.2019H52.0978C52.724 17.2019 53.3237 16.955 53.7646 16.5096C54.21 16.0687 54.4569 15.469 54.4569 14.8429V11.183C54.4569 10.5569 54.21 9.95721 53.7646 9.51626C53.3237 9.07091 52.724 8.82398 52.0978 8.82398H51.5246C50.8985 8.82398 50.2988 9.07091 49.8578 9.51626C49.599 9.77245 49.4072 10.0824 49.2921 10.4198L43.6052 9.28256C43.1281 9.18776 42.6638 9.49774 42.569 9.97484C42.4742 10.4519 42.7842 10.9163 43.2613 11.0111L49.1656 12.1919ZM50.9293 11.553V14.8429C50.9293 14.9972 50.9911 15.1515 51.1057 15.2618C51.216 15.3764 51.3703 15.4382 51.5246 15.4382H52.0978C52.2522 15.4382 52.4065 15.3764 52.5167 15.2618C52.6314 15.1515 52.6931 14.9972 52.6931 14.8429V11.183C52.6931 11.0287 52.6314 10.8744 52.5167 10.7641C52.4065 10.6495 52.2522 10.5878 52.0978 10.5878H51.5246C51.3703 10.5878 51.216 10.6495 51.1057 10.7641C51.0973 10.7721 51.089 10.7805 51.0815 10.7893L50.9293 11.553ZM30.6459 15.9814V7.94209C30.6459 7.70839 30.5533 7.4835 30.3857 7.32035C30.2226 7.1528 29.9977 7.0602 29.764 7.0602H16.0947C15.861 7.0602 15.6361 7.1528 15.473 7.32035C15.3054 7.4835 15.2128 7.70839 15.2128 7.94209V17.6429V18.5248H30.6459V17.6429V16.8152L30.5445 15.9937L30.6459 15.9814ZM51.1498 32.1941H4.88323L8.21501 28.0933C8.46194 27.8022 8.73973 27.5377 9.0528 27.3172C9.40997 27.0526 9.79359 26.8278 10.1949 26.6382C10.5917 26.4441 11.0106 26.2898 11.4427 26.1796C11.8087 26.0782 12.1879 26.0252 12.5715 26.0208H43.8698C44.2446 26.0252 44.6194 26.0782 44.9854 26.184C45.4043 26.2986 45.8144 26.453 46.2068 26.6514C46.5949 26.8454 46.9652 27.0791 47.3092 27.3481C47.6134 27.573 47.8824 27.8419 48.1117 28.1418L51.1498 32.1941ZM14.4813 37.9263C13.2515 38.16 12.1099 38.7575 11.209 39.6548C10.0317 40.8366 9.37028 42.4328 9.37028 44.0996C9.37028 45.7663 10.0317 47.3626 11.209 48.5443C11.5622 48.8962 11.9529 49.2022 12.3714 49.4579C11.9295 49.2591 11.504 49.0205 11.0988 48.7471C9.62603 47.755 8.47957 46.344 7.80934 44.6948L5.05784 37.9263H14.4813ZM27.2687 37.9263C26.0389 38.16 24.8973 38.7575 23.9964 39.6548C22.8191 40.8366 22.1577 42.4328 22.1577 44.0996C22.1577 45.7663 22.8191 47.3626 23.9964 48.5443C24.8973 49.4416 26.0389 50.0391 27.2687 50.2728H16.8262C18.056 50.0391 19.1976 49.4416 20.0985 48.5443C21.2758 47.3626 21.9372 45.7663 21.9372 44.0996C21.9372 42.4328 21.2758 40.8366 20.0985 39.6548C19.1976 38.7575 18.056 38.16 16.8262 37.9263H27.2687ZM40.0561 37.9263C38.8263 38.16 37.6847 38.7575 36.7838 39.6548C35.6065 40.8366 34.9451 42.4328 34.9451 44.0996C34.9451 45.7663 35.6065 47.3626 36.7838 48.5443C37.6847 49.4416 38.8263 50.0391 40.0561 50.2728H29.6136C30.8434 50.0391 31.985 49.4416 32.8859 48.5443C34.0632 47.3626 34.7246 45.7663 34.7246 44.0996C34.7246 42.4328 34.0632 40.8366 32.8859 39.6548C31.985 38.7575 30.8434 38.16 29.6136 37.9263H40.0561ZM51.7848 37.9263L48.804 44.7434C48.1069 46.3347 46.9697 47.7021 45.5331 48.6797C45.5802 48.6356 45.627 48.5902 45.6733 48.5443C46.8506 47.3626 47.512 45.7663 47.512 44.0996C47.512 42.4328 46.8506 40.8366 45.6733 39.6548C44.7724 38.7575 43.6308 38.16 42.401 37.9263H51.7848ZM2.43863 36.1626H53.575V33.9578H2.4254V36.1626H2.43863ZM13.7797 44.0996C13.7797 43.6013 13.9782 43.1251 14.3265 42.7723C14.6793 42.424 15.1555 42.2256 15.6537 42.2256C16.152 42.2256 16.6282 42.424 16.981 42.7723C17.3293 43.1251 17.5278 43.6013 17.5278 44.0996C17.5278 44.5978 17.3293 45.0741 16.981 45.4268C16.6282 45.7752 16.152 45.9736 15.6537 45.9736C15.1555 45.9736 14.6793 45.7752 14.3265 45.4268C13.9782 45.0741 13.7797 44.5978 13.7797 44.0996ZM26.5671 44.0996C26.5671 43.6013 26.7656 43.1251 27.1139 42.7723C27.4667 42.424 27.9429 42.2256 28.4412 42.2256C28.9394 42.2256 29.4156 42.424 29.7684 42.7723C30.1167 43.1251 30.3152 43.6013 30.3152 44.0996C30.3152 44.5978 30.1167 45.0741 29.7684 45.4268C29.4156 45.7752 28.9394 45.9736 28.4412 45.9736C27.9429 45.9736 27.4667 45.7752 27.1139 45.4268C26.7656 45.0741 26.5671 44.5978 26.5671 44.0996ZM42.0267 45.7972C42.3578 45.6416 42.7529 45.7827 42.9086 46.1125C43.0642 46.4423 42.9222 46.8365 42.5911 46.9922C42.1634 47.1906 41.7004 47.2964 41.2286 47.2964C40.3819 47.2964 39.5662 46.9613 38.9665 46.3616C38.3668 45.7619 38.0317 44.9462 38.0317 44.0996C38.0317 43.253 38.3668 42.4372 38.9665 41.8375C39.5662 41.2378 40.3819 40.9027 41.2286 40.9027C41.9782 40.9027 42.7057 41.1673 43.2789 41.6479C43.5589 41.8816 43.5964 42.2983 43.3627 42.5783C43.129 42.8583 42.7123 42.8958 42.4323 42.6621C42.0928 42.3799 41.6695 42.2256 41.2286 42.2256C40.7303 42.2256 40.2541 42.424 39.9013 42.7723C39.553 43.1251 39.3545 43.6013 39.3545 44.0996C39.3545 44.5978 39.553 45.0741 39.9057 45.4268C40.2541 45.7752 40.7303 45.9736 41.2286 45.9736C41.5063 45.9736 41.7753 45.9119 42.0267 45.7972ZM12.4569 44.0996C12.4569 43.253 12.792 42.4372 13.3917 41.8375C13.9914 41.2378 14.8071 40.9027 15.6537 40.9027C16.5004 40.9027 17.3161 41.2378 17.9158 41.8375C18.5155 42.4372 18.8506 43.253 18.8506 44.0996C18.8506 44.9462 18.5155 45.7619 17.9158 46.3616C17.3161 46.9613 16.5004 47.2964 15.6537 47.2964C14.8071 47.2964 13.9914 46.9613 13.3917 46.3616C12.792 45.7619 12.4569 44.9462 12.4569 44.0996ZM25.2443 44.0996C25.2443 43.253 25.5794 42.4372 26.1791 41.8375C26.7788 41.2378 27.5945 40.9027 28.4412 40.9027C29.2878 40.9027 30.1035 41.2378 30.7032 41.8375C31.3029 42.4372 31.638 43.253 31.638 44.0996C31.638 44.9462 31.3029 45.7619 30.7032 46.3616C30.1035 46.9613 29.2878 47.2964 28.4412 47.2964C27.5945 47.2964 26.7788 46.9613 26.1791 46.3616C25.5794 45.7619 25.2443 44.9462 25.2443 44.0996ZM36.7089 44.0996C36.7089 42.9002 37.1851 41.7493 38.0317 40.9027C38.8783 40.0561 40.0292 39.5799 41.2286 39.5799C42.4279 39.5799 43.5788 40.0561 44.4254 40.9027C45.272 41.7493 45.7482 42.9002 45.7482 44.0996C45.7482 45.2989 45.272 46.4498 44.4254 47.2964C43.5788 48.143 42.4279 48.6193 41.2286 48.6193C40.0292 48.6193 38.8783 48.143 38.0317 47.2964C37.1851 46.4498 36.7089 45.2989 36.7089 44.0996ZM11.1341 44.0996C11.1341 42.9002 11.6103 41.7493 12.4569 40.9027C13.3035 40.0561 14.4544 39.5799 15.6537 39.5799C16.8531 39.5799 18.004 40.0561 18.8506 40.9027C19.6972 41.7493 20.1734 42.9002 20.1734 44.0996C20.1734 45.2989 19.6972 46.4498 18.8506 47.2964C18.004 48.143 16.8531 48.6193 15.6537 48.6193C14.4544 48.6193 13.3035 48.143 12.4569 47.2964C11.6103 46.4498 11.1341 45.2989 11.1341 44.0996ZM23.9215 44.0996C23.9215 42.9002 24.3977 41.7493 25.2443 40.9027C26.0909 40.0561 27.2418 39.5799 28.4412 39.5799C29.6405 39.5799 30.7914 40.0561 31.638 40.9027C32.4846 41.7493 32.9608 42.9002 32.9608 44.0996C32.9608 45.2989 32.4846 46.4498 31.638 47.2964C30.7914 48.143 29.6405 48.6193 28.4412 48.6193C27.2418 48.6193 26.0909 48.143 25.2443 47.2964C24.3977 46.4498 23.9215 45.2989 23.9215 44.0996Z" fill="#9FEF00"/>
</svg>
