<svg width="64" height="65" viewBox="0 0 64 65" fill="none" xmlns="http://www.w3.org/2000/svg">
<path fill-rule="evenodd" clip-rule="evenodd" d="M17.4682 41.1478H35.9148H37.8722V45.0612H35.9148H8.5015L6.2575 50.2812H44.9962L47.9308 42.4398L41.3815 37.2065L46.5948 24.1852H28.0855H26.1282V20.2718H28.0855H55.4988L57.7428 15.0518H18.9135L14.8815 24.1198L22.7108 29.3398L17.4682 41.1478ZM50.8068 24.1852L50.7762 24.2638L46.1042 35.9545L52.6028 41.1612L47.7095 54.1945H0.333496L5.9175 41.1478H13.1868L13.2508 41.0038L17.8042 30.7745L9.97616 25.5558L16.3815 11.1385H63.6668L58.0828 24.1852H50.8068ZM30.6948 28.7518L28.0855 35.2758H35.9148L38.5242 28.7518H30.6948Z" fill="#9FEF00"/>
</svg>
