<svg width="64" height="64" viewBox="0 0 64 64" fill="none" xmlns="http://www.w3.org/2000/svg">
<path d="M50.1333 53.3734C49.4133 54.9867 48.08 56.2534 46.4267 56.8934C44.7867 57.5201 42.9467 57.4801 41.3333 56.7601C39.72 56.0401 38.4533 54.7067 37.8133 53.0667C37.1867 51.4134 37.2267 49.5734 37.9467 47.9601L48.6133 23.9601C49.3333 22.3467 50.6667 21.0801 52.3067 20.4401C53.96 19.8134 55.8 19.8534 57.4133 20.5734C59.0267 21.2934 60.2933 22.6267 60.9333 24.2801C61.56 25.9201 61.52 27.7601 60.8 29.3734L50.1333 53.3734Z" fill="#A4B1CD"/>
<path d="M31.4547 24.672C41.004 33.9067 32.4813 23.364 34.28 23.9733C38.64 25.4147 34.6867 22.296 36.656 24.5213C39.3453 28.0387 41.448 32.4293 43.3533 35.8253L43.332 35.86L48.2747 44.6453C50.056 46.5467 52.0494 45.9387 53.94 44.8387L50.1454 53.3747C47.916 58.3827 40.9333 58.7107 38.244 53.9347L26.3373 32.768L26.1187 32.4267C23.7387 28.6227 30.3973 31.604 27.2 28.7107C26.8427 28.3933 27.9493 28.0053 28.1707 27.4627C29.0667 25.2667 28.9413 28.5693 30.8293 28.1733C31.2227 28.12 30.3987 28.1813 30.8293 28.1733L31.4547 24.672Z" fill="#141D2B"/>
<path fill-rule="evenodd" clip-rule="evenodd" d="M26.1813 53.2733C25.8867 53.9613 25.48 54.5906 24.9693 55.1253C24.96 55.164 24.936 55.1906 24.8973 55.2013C24.62 55.5266 24.2987 55.8106 23.94 56.0466C23.8067 56.1693 23.656 56.2693 23.4973 56.36C23.26 56.5106 23.008 56.644 22.7467 56.76C22.6507 56.8026 22.5547 56.8426 22.456 56.8773C22.3867 56.9093 22.3147 56.9346 22.244 56.964C21.7427 57.128 21.228 57.2413 20.708 57.2986C20.544 57.312 20.38 57.3226 20.216 57.3106C19.8667 57.34 19.516 57.3226 19.1707 57.2613C18.9427 57.252 18.7173 57.212 18.4987 57.1466C18.1427 57.0813 17.796 56.9733 17.4653 56.8186C15.9653 56.2306 14.664 55.072 13.9093 53.3746L10.1147 44.8386C10.132 44.8493 10.1493 44.8586 10.1667 44.8693L3.28 29.3733C2.56 27.76 2.52 25.92 3.14666 24.28C3.78666 22.6266 5.05333 21.2933 6.66666 20.5733C8.28 19.8533 10.12 19.8133 11.76 20.44C13.4133 21.08 14.7467 22.3466 15.4667 23.96L20.7227 35.7866C22.6227 32.396 24.7187 28.0253 27.3987 24.5213C29.3667 22.296 32.0427 19.6613 36.404 18.2186C38.2013 17.6106 39.6853 17.396 40.9787 17.4173C41.4107 17.424 41.82 17.4573 42.2133 17.5106C44.1027 17.9053 45.744 18.3866 46.64 20.584C46.8613 21.1253 46.592 21.64 46.2347 21.956C43.0373 24.8493 40.3147 28.6226 37.9347 32.4266L37.716 32.768L26.1813 53.2733ZM41.3333 9.33329C41.3333 7.86129 42.528 6.66663 44 6.66663C45.472 6.66663 46.6667 7.86129 46.6667 9.33329C46.6667 10.8053 45.472 12 44 12C42.528 12 41.3333 10.8053 41.3333 9.33329ZM33.112 7.99996C32.2347 8.00129 31.304 8.24929 30.3653 8.74929C26.8613 10.6173 25.1333 13.8506 25.352 18.1373C25.4067 19.22 25.5773 20.3826 25.7307 20.72C25.884 21.0573 26.14 21.3333 26.2987 21.3333C26.4587 21.3333 27.1347 20.7466 27.8027 20.0293C28.7107 19.0533 29.4973 18.4853 30.9253 17.7746C34.74 15.8773 35.088 15.6613 36.004 14.632C37.732 12.6906 37.776 10.78 36.1307 9.21729C35.2787 8.40663 34.24 7.99863 33.112 7.99996ZM20.3053 17.3346C20.1187 17.3293 19.9307 17.344 19.744 17.3826C18.264 17.6893 17.1053 20.0133 17.372 22.14C17.536 23.46 18.6613 25.4786 19.6213 26.1786C20.0387 26.4826 20.58 26.7 20.8253 26.6626C21.2107 26.6026 21.2947 26.356 21.4293 24.88C21.516 23.9373 21.8373 22.524 22.1413 21.7373C22.8067 20.0213 22.8293 19.464 22.2693 18.4666C21.888 17.7893 21.116 17.36 20.3053 17.3346Z" fill="#9FEF00"/>
</svg>
