<svg width="71" height="69" viewBox="0 0 71 69" fill="none" xmlns="http://www.w3.org/2000/svg">
<g filter="url(#filter0_d_62_4995)">
<path d="M31.2667 15.6134L30.2534 17.3334L26.8 15.32L27.8134 13.5867C31.5067 7.25337 38.32 3.33337 45.6667 3.33337C51.1467 3.33337 56.4 5.50671 60.28 9.38671C64.1467 13.2667 66.3334 18.52 66.3334 24C66.3334 28.72 64.7201 33.2934 61.7467 36.9734L60.4934 38.52L57.3867 36.0134L58.64 34.4534C61.0267 31.4934 62.3334 27.8 62.3334 24C62.3334 19.5867 60.5734 15.3334 57.4534 12.2134C54.32 9.09337 50.08 7.33337 45.6667 7.33337C39.7467 7.33337 34.2534 10.4934 31.2667 15.6134Z" fill="#9FEF00"/>
<path fill-rule="evenodd" clip-rule="evenodd" d="M54.5693 30.0934C54.588 30.0974 54.6067 30.1014 54.6253 30.1067C55.532 30.3467 56.4253 30.6667 57.292 31.0534C58.052 31.4134 58.7853 31.8267 59.4653 32.32C60.212 32.8667 60.892 33.4934 61.492 34.2C62.0787 34.9067 62.5853 35.6667 62.9853 36.4934C63.412 37.3867 63.7453 38.32 63.9453 39.28C64.1853 40.3734 64.3187 41.4934 64.332 42.6267C64.3453 43.72 64.2787 44.8134 64.1187 45.8934C63.9853 46.8 63.7587 47.7067 63.4253 48.5734C63.1453 49.3334 62.7853 50.0534 62.3453 50.7467C61.932 51.4 61.4387 52.0134 60.8787 52.56C60.3053 53.12 59.6653 53.6134 58.972 54.0267C58.2253 54.4667 57.4387 54.84 56.6253 55.12C55.812 55.4 54.9587 55.6 54.1053 55.7334C53.092 55.8934 52.0653 55.9867 51.0387 56C51.0253 56 51.012 56 50.9987 56H41.6653H38.9987H26.9987H17.6653C17.652 56 17.6387 56 17.6253 56C16.5587 55.9867 15.4787 55.8934 14.4253 55.72C13.532 55.5734 12.6653 55.3467 11.812 55.04C11.052 54.76 10.3053 54.4 9.612 53.9734C8.94533 53.5734 8.332 53.0934 7.78533 52.56C7.19866 51.9734 6.67866 51.3334 6.23866 50.64C5.78533 49.9067 5.42533 49.12 5.14533 48.3067C4.852 47.4667 4.63866 46.6134 4.51866 45.7334C4.38533 44.7067 4.31866 43.6667 4.332 42.6267C4.34533 41.5067 4.47866 40.3867 4.71866 39.28C4.91866 38.32 5.252 37.3867 5.67866 36.5067C6.07866 35.68 6.58533 34.9067 7.172 34.2134C7.75866 33.5067 8.43866 32.88 9.18533 32.3334C9.87866 31.84 10.612 31.4 11.3987 31.0534C12.2653 30.6534 13.172 30.3334 14.1053 30.0934C14.112 30.092 14.1187 30.0894 14.1253 30.088C15.0627 25.5627 17.4613 21.4427 20.9587 18.3867C24.6653 15.1334 29.4253 13.3467 34.3453 13.3334C34.3453 13.3334 34.3453 13.3334 34.3587 13.3334C39.372 13.3467 44.1987 15.2 47.932 18.5467C51.328 21.5894 53.6573 25.644 54.5693 30.0934ZM48.8147 29.3494C48.608 29.34 48.4027 29.336 48.1987 29.3334C46.812 29.48 45.452 29.7467 44.1187 30.12C43.1853 30.3867 42.2787 30.7734 41.4387 31.2667C40.8653 31.5867 40.3453 31.9867 39.8653 32.4267C39.412 32.84 39.012 33.32 38.692 33.84C38.372 34.3467 38.132 34.88 37.9587 35.4534C37.7853 36.0267 37.692 36.6267 37.6653 37.2267C37.6133 38.6987 38.764 39.9387 40.232 39.9934C41.7 40.048 42.94 38.904 42.9987 37.44C42.9987 37.28 43.0253 37.12 43.0653 36.9734C43.1053 36.8667 43.1453 36.76 43.212 36.6667C43.2787 36.5467 43.372 36.44 43.4787 36.3467C43.6653 36.16 43.8787 36.0134 44.1187 35.88C44.572 35.6134 45.052 35.4 45.572 35.2534C46.5187 34.9867 47.492 34.7867 48.4653 34.6667C48.9453 34.6734 49.4213 34.696 49.8987 34.7307L49.9053 34.7734L50.0947 34.7454C50.4533 34.7747 50.8107 34.8107 51.172 34.8534C51.8653 34.9467 52.5587 35.08 53.252 35.2667C53.8787 35.4267 54.492 35.64 55.0787 35.92C55.5187 36.12 55.9453 36.36 56.332 36.64C56.732 36.9334 57.092 37.2667 57.412 37.64C57.7187 38.0134 57.9853 38.4134 58.1853 38.84C58.4387 39.3334 58.612 39.8667 58.732 40.4C58.892 41.16 58.9853 41.9334 58.9987 42.7067C59.012 43.5067 58.9587 44.32 58.8387 45.1067C58.7587 45.6534 58.6253 46.2 58.4253 46.72C58.2787 47.12 58.092 47.5067 57.852 47.88C57.652 48.1867 57.412 48.48 57.1587 48.7334C56.8787 49.0134 56.5587 49.2534 56.2253 49.4534C55.812 49.7067 55.3587 49.9067 54.892 50.0667C54.372 50.2534 53.8387 50.3867 53.292 50.4667C52.5187 50.5867 51.7453 50.6534 50.972 50.6667H41.6653H29.6653H26.9987H17.692C16.8787 50.6534 16.0787 50.5867 15.2787 50.4534C14.7187 50.36 14.172 50.2134 13.6387 50.0267C13.1987 49.8667 12.7853 49.6667 12.3853 49.4267C12.0653 49.2267 11.772 49 11.5053 48.7334C11.2253 48.4667 10.9853 48.16 10.7853 47.8267C10.532 47.4267 10.332 47 10.1853 46.56C9.99866 46.0534 9.87866 45.5334 9.812 45C9.70533 44.24 9.652 43.48 9.66533 42.7067C9.67866 41.9334 9.772 41.16 9.932 40.4134C10.052 39.8667 10.2253 39.3467 10.4653 38.84C10.6787 38.4134 10.9453 38.0134 11.252 37.6534C11.5587 37.28 11.9187 36.9334 12.3187 36.6534C12.7187 36.36 13.1453 36.1067 13.5987 35.9067C14.1987 35.64 14.8253 35.4134 15.4653 35.2534C16.1453 35.0667 16.8253 34.9334 17.532 34.8534C18.412 34.7467 19.3053 34.68 20.1987 34.6667C21.1587 34.7867 22.132 34.9867 23.0653 35.2534C23.572 35.3867 24.0653 35.6 24.532 35.8534C24.7587 36 24.9853 36.1467 25.1853 36.3334C25.2787 36.4267 25.372 36.5334 25.452 36.6534C25.5053 36.76 25.5587 36.8667 25.5853 36.9734C25.6387 37.12 25.6653 37.28 25.6653 37.44C25.724 38.904 26.964 40.048 28.432 39.9934C29.9 39.9387 31.0493 38.6987 30.9987 37.2267C30.972 36.6267 30.8787 36.0267 30.7053 35.44C30.532 34.8667 30.2787 34.32 29.9587 33.8134C29.6253 33.2934 29.2253 32.8134 28.772 32.4C28.2787 31.9467 27.7453 31.56 27.172 31.2267C26.332 30.7467 25.4387 30.3734 24.5053 30.12C23.1853 29.7467 21.8387 29.48 20.4653 29.3334C20.2733 29.336 20.0827 29.3387 19.8893 29.348C20.7467 26.6654 22.3307 24.2654 24.4653 22.4C27.1987 20 30.7187 18.68 34.3453 18.6667C34.3587 18.6667 34.3587 18.6667 34.3587 18.6667H34.3453C38.052 18.68 41.6253 20.0534 44.372 22.52C46.4387 24.38 47.9787 26.732 48.8147 29.3494Z" fill="#A4B1CD"/>
<path fill-rule="evenodd" clip-rule="evenodd" d="M21.0933 46.0494L19.1787 51.7947C18.5427 53.7027 19.6587 55.252 21.6707 55.252C23.6813 55.252 24.7973 53.7027 24.1613 51.7947L22.2467 46.0494C21.928 45.0947 21.412 45.0947 21.0933 46.0494ZM33.756 51.3827L31.84 57.128C31.204 59.036 32.32 60.5854 34.332 60.5854C36.3427 60.5854 37.4587 59.036 36.8227 57.128L34.908 51.3827C34.5893 50.428 34.0733 50.428 33.756 51.3827ZM46.3587 46.0494L44.4427 51.7947C43.8067 53.7027 44.924 55.252 46.9347 55.252C48.9453 55.252 50.0613 53.7027 49.4253 51.7947L47.5107 46.0494C47.192 45.0947 46.676 45.0947 46.3587 46.0494Z" fill="#9FEF00"/>
</g>
<defs>
<filter id="filter0_d_62_4995" x="-1" y="0" width="72" height="72" filterUnits="userSpaceOnUse" color-interpolation-filters="sRGB">
<feFlood flood-opacity="0" result="BackgroundImageFix"/>
<feColorMatrix in="SourceAlpha" type="matrix" values="0 0 0 0 0 0 0 0 0 0 0 0 0 0 0 0 0 0 127 0" result="hardAlpha"/>
<feOffset dy="4"/>
<feGaussianBlur stdDeviation="2"/>
<feComposite in2="hardAlpha" operator="out"/>
<feColorMatrix type="matrix" values="0 0 0 0 0 0 0 0 0 0 0 0 0 0 0 0 0 0 0.25 0"/>
<feBlend mode="normal" in2="BackgroundImageFix" result="effect1_dropShadow_62_4995"/>
<feBlend mode="normal" in="SourceGraphic" in2="effect1_dropShadow_62_4995" result="shape"/>
</filter>
</defs>
</svg>
