<svg width="72" height="72" viewBox="0 0 72 72" fill="none" xmlns="http://www.w3.org/2000/svg">
<g clip-path="url(#clip0_62_5003)" filter="url(#filter0_d_62_5003)">
<path d="M48.1067 51.2667L48.84 48.7067L53.96 50.1734L53.2266 52.7334L49.9466 64.2134L10.2 60.24L3.77332 6.32004L20.04 -0.253296L35.7333 6.56004L38.1733 7.61337L34.248 11.6667L31.732 10.6667L19.96 5.52004L9.55998 9.7467L15 55.36L46.0533 58.4534L48.1067 51.2667Z" fill="#9FEF00"/>
<path d="M33.2666 13.0134L30.92 14.2801L22.6666 13.0134L30.7333 8.32005L44.1466 1.09338L61.6533 1.32005L68.2933 22.2267L62.7466 29.3867L68.72 43.2134L56.5466 50.3067L54.24 51.6401L53.96 45.5227L54.6666 45.3334L61.9466 40.9867L56.5866 28.6134L62.3733 21.1734L57.7466 6.61338L45.4533 6.44005L33.2666 13.0134Z" fill="#141D2B"/>
<path fill-rule="evenodd" clip-rule="evenodd" d="M21.7586 41.9426H35.236V45.5226H21.7586V41.9426ZM39.3693 31.5053L41.256 29.1693C42.604 30.248 43.952 30.9666 45.6586 30.9666C47.0066 30.9666 47.816 30.428 47.816 29.5293C47.816 28.72 47.276 28.2706 44.8506 27.6426C41.8853 26.8333 39.9986 26.0253 39.9986 23.06V22.9706C39.9986 20.2746 42.1546 18.4773 45.12 18.4773C47.108 18.4693 49.04 19.1346 50.6013 20.364L48.8933 22.88C47.8093 22.032 46.4933 21.532 45.12 21.4426C43.952 21.4426 43.2333 21.9813 43.2333 22.7906C43.2333 23.7786 43.8613 24.1386 46.3773 24.7666C49.3426 25.576 51.0506 26.6533 51.0506 29.26C51.0506 32.224 48.804 33.932 45.6586 33.932C43.3506 33.8466 41.1373 32.9933 39.3693 31.5053ZM36.4946 18.7466L34.248 27.3733L31.732 18.7466H29.216L26.7 27.3733L24.4546 18.7466H20.9493L25.2626 33.6626H28.048L30.4746 25.036L32.9 33.6626H35.6853L39.9986 18.7466H36.4946ZM52.7973 21.8773C52.7973 22.8533 53.5893 23.6453 54.5653 23.6453C55.5413 23.6453 56.3333 22.8533 56.3333 21.8773V16.0866C56.3333 13.6466 54.3533 11.6666 51.9133 11.6666H20.0866C17.6466 11.6666 15.6666 13.6466 15.6666 16.0866V32.884C15.6666 33.86 16.4586 34.652 17.4346 34.652C18.4106 34.652 19.2026 33.86 19.2026 32.884V17.8546C19.2026 16.3906 20.3906 15.2026 21.8546 15.2026H50.1453C51.6093 15.2026 52.7973 16.3906 52.7973 17.8546V21.8773ZM19.2026 42.1226C19.2026 41.1466 18.4106 40.3546 17.4346 40.3546C16.4586 40.3546 15.6666 41.1466 15.6666 42.1226V47.9133C15.6666 50.3533 17.6466 52.3333 20.0866 52.3333H51.9133C54.3533 52.3333 56.3333 50.3533 56.3333 47.9133V30.3906C56.3333 29.4146 55.5413 28.6226 54.5653 28.6226C53.5893 28.6226 52.7973 29.4146 52.7973 30.3906V46.1453C52.7973 47.6093 51.6093 48.7973 50.1453 48.7973H21.8546C20.3906 48.7973 19.2026 47.6093 19.2026 46.1453V42.1226Z" fill="#A4B1CD"/>
</g>
<defs>
<filter id="filter0_d_62_5003" x="0" y="0" width="72" height="72" filterUnits="userSpaceOnUse" color-interpolation-filters="sRGB">
<feFlood flood-opacity="0" result="BackgroundImageFix"/>
<feColorMatrix in="SourceAlpha" type="matrix" values="0 0 0 0 0 0 0 0 0 0 0 0 0 0 0 0 0 0 127 0" result="hardAlpha"/>
<feOffset dy="4"/>
<feGaussianBlur stdDeviation="2"/>
<feComposite in2="hardAlpha" operator="out"/>
<feColorMatrix type="matrix" values="0 0 0 0 0 0 0 0 0 0 0 0 0 0 0 0 0 0 0.25 0"/>
<feBlend mode="normal" in2="BackgroundImageFix" result="effect1_dropShadow_62_5003"/>
<feBlend mode="normal" in="SourceGraphic" in2="effect1_dropShadow_62_5003" result="shape"/>
</filter>
<clipPath id="clip0_62_5003">
<rect width="64" height="64" fill="white" transform="translate(4)"/>
</clipPath>
</defs>
</svg>
