<svg width="64" height="72" viewBox="0 0 64 72" fill="none" xmlns="http://www.w3.org/2000/svg">
<g clip-path="url(#clip0_62_5007)" filter="url(#filter0_d_62_5007)">
<path d="M50.0001 16.6666H52.0001V20.6666H50.0001H12.6667H10.6667V16.6666H12.6667H50.0001Z" fill="#A4B1CD"/>
<path fill-rule="evenodd" clip-rule="evenodd" d="M29.3333 58.6667V42.656C24.2693 42.4867 19.456 40.4027 15.8533 36.8134C12.1067 33.0534 10 27.9734 10 22.6667V6.66671C10 5.25337 10.56 3.89337 11.56 2.89337C12.56 1.89337 13.92 1.33337 15.3333 1.33337H19.3333C20.8053 1.33337 22 2.52804 22 4.00004C22 5.47204 20.8053 6.66671 19.3333 6.66671H16.6667C15.9307 6.66671 15.3333 7.26404 15.3333 8.00004V22.6667C15.3333 26.56 16.88 30.2934 19.6267 33.04C22.3733 35.7867 26.1067 37.3334 30 37.3334H32.6667C36.56 37.3334 40.2933 35.7867 43.04 33.04C45.7867 30.2934 47.3333 26.56 47.3333 22.6667V22V8.00004C47.3333 7.26404 46.736 6.66671 46 6.66671H35.3333C33.8613 6.66671 32.6667 5.47204 32.6667 4.00004C32.6667 2.52804 33.8613 1.33337 35.3333 1.33337H47.3333C48.7467 1.33337 50.1067 1.89337 51.1067 2.89337C52.1067 3.89337 52.6667 5.25337 52.6667 6.66671V22V22.6667C52.6667 27.9734 50.56 33.0534 46.8133 36.8134C43.5293 40.0867 39.2373 42.108 34.6667 42.5667V58.6667H40.6667C42.1387 58.6667 43.3333 59.8614 43.3333 61.3334V64H20.6667V61.3334C20.6667 59.8614 21.8613 58.6667 23.3333 58.6667H29.3333ZM27.3333 1.33337C28.8053 1.33337 30 2.52804 30 4.00004C30 5.47204 28.8053 6.66671 27.3333 6.66671C25.8613 6.66671 24.6667 5.47204 24.6667 4.00004C24.6667 2.52804 25.8613 1.33337 27.3333 1.33337ZM40.8 24.6C41.2053 23.5694 42.3693 23.0614 43.4 23.4667C44.4307 23.872 44.9387 25.036 44.5333 26.0667C43.6133 28.3734 42.1733 30.4267 40.3067 32.0667C38.8533 33.3867 37.1333 34.3734 35.2533 34.9467C34.2013 35.2774 33.0813 34.6894 32.7533 33.6334C32.4253 32.5774 33.02 31.4574 34.08 31.1334C35.4 30.72 36.6267 30.0134 37.6533 29.08C39.04 27.8667 40.12 26.32 40.8 24.6Z" fill="#9FEF00"/>
</g>
<defs>
<filter id="filter0_d_62_5007" x="-4" y="0" width="72" height="72" filterUnits="userSpaceOnUse" color-interpolation-filters="sRGB">
<feFlood flood-opacity="0" result="BackgroundImageFix"/>
<feColorMatrix in="SourceAlpha" type="matrix" values="0 0 0 0 0 0 0 0 0 0 0 0 0 0 0 0 0 0 127 0" result="hardAlpha"/>
<feOffset dy="4"/>
<feGaussianBlur stdDeviation="2"/>
<feComposite in2="hardAlpha" operator="out"/>
<feColorMatrix type="matrix" values="0 0 0 0 0 0 0 0 0 0 0 0 0 0 0 0 0 0 0.25 0"/>
<feBlend mode="normal" in2="BackgroundImageFix" result="effect1_dropShadow_62_5007"/>
<feBlend mode="normal" in="SourceGraphic" in2="effect1_dropShadow_62_5007" result="shape"/>
</filter>
<clipPath id="clip0_62_5007">
<rect width="64" height="64" fill="white"/>
</clipPath>
</defs>
</svg>
