<svg width="342" height="345" viewBox="0 0 342 345" fill="none" xmlns="http://www.w3.org/2000/svg">
<g filter="url(#filter0_d_17_1163)">
<path d="M93.3333 106.667V197.02C93.3333 197.02 93.3333 234.667 139.733 234.667C186.133 234.667 186.133 197.02 186.133 197.02V129.255C186.133 129.255 186.133 111.79 170.667 111.79C155.2 111.79 155.2 129.255 155.2 129.255V197.02C155.2 197.02 155.2 234.667 201.6 234.667C248 234.667 248 197.02 248 197.02V106.667" stroke="#9FEF00" stroke-width="13.3333"/>
<path fill-rule="evenodd" clip-rule="evenodd" d="M35.3067 161.96C34.6867 170.19 27.4853 176.383 19.236 175.784C10.9867 175.184 4.792 167.983 5.412 159.712C8.484 118.279 27.14 79.4683 57.6347 51.147C88.1293 22.9003 128.213 7.16699 169.796 7.16699C213.477 7.16699 255.435 24.5483 286.379 55.4177C317.248 86.3617 334.631 128.319 334.631 172C334.631 215.682 317.248 257.639 286.379 288.583C255.435 319.452 213.477 336.834 169.796 336.834C161.527 336.834 154.812 330.12 154.812 321.85C154.812 313.579 161.527 306.864 169.796 306.864C205.536 306.864 239.851 292.628 265.176 267.379C290.425 242.055 304.661 207.739 304.661 172C304.661 136.262 290.425 101.946 265.176 76.6217C239.851 51.3723 205.536 37.1363 169.796 37.1363C135.781 37.1363 102.964 49.9483 78.0147 73.1003C53.064 96.2523 37.8547 128.019 35.3067 161.96ZM107.085 291.43C114.404 295.276 117.224 304.34 113.379 311.659C109.533 318.979 100.468 321.799 93.1493 317.954C61.98 301.544 36.8053 275.546 21.4467 243.852C17.8067 236.41 20.896 227.428 28.3387 223.811C35.7827 220.192 44.78 223.298 48.4187 230.742C61.0067 256.74 81.536 277.943 107.085 291.43Z" fill="#9FEF00"/>
</g>
<defs>
<filter id="filter0_d_17_1163" x="-4" y="0" width="349.333" height="349.333" filterUnits="userSpaceOnUse" color-interpolation-filters="sRGB">
<feFlood flood-opacity="0" result="BackgroundImageFix"/>
<feColorMatrix in="SourceAlpha" type="matrix" values="0 0 0 0 0 0 0 0 0 0 0 0 0 0 0 0 0 0 127 0" result="hardAlpha"/>
<feOffset dy="4"/>
<feGaussianBlur stdDeviation="2"/>
<feComposite in2="hardAlpha" operator="out"/>
<feColorMatrix type="matrix" values="0 0 0 0 0 0 0 0 0 0 0 0 0 0 0 0 0 0 0.25 0"/>
<feBlend mode="normal" in2="BackgroundImageFix" result="effect1_dropShadow_17_1163"/>
<feBlend mode="normal" in="SourceGraphic" in2="effect1_dropShadow_17_1163" result="shape"/>
</filter>
</defs>
</svg>
