<svg width="70" height="72" viewBox="0 0 70 72" fill="none" xmlns="http://www.w3.org/2000/svg">
<g filter="url(#filter0_d_62_5010)">
<path d="M55.3602 39.6932C56.8322 39.6932 58.0268 40.8878 58.0268 42.3598C58.0268 43.8318 56.8322 45.0265 55.3602 45.0265H42.8802C42.1602 45.0265 41.4802 44.7465 40.9735 44.2265C39.8668 43.0932 38.9202 41.7998 38.1602 40.3998C37.3468 38.9065 36.7068 37.3065 36.2535 35.6665C35.7335 33.8398 35.3735 31.9598 35.1602 30.0665C34.9068 27.9332 34.8002 25.7865 34.8002 23.6398C33.7468 24.6665 32.8268 25.8532 32.1068 27.1332C31.3335 28.5065 30.7602 29.9732 30.4002 31.4932C30.0002 33.2265 29.8135 35.0132 29.8135 36.7865C29.8268 38.5198 29.9735 40.2398 30.2402 41.9465C30.3602 42.7198 30.1468 43.5065 29.6402 44.0932C29.1335 44.6932 28.3868 45.0265 27.6002 45.0265H11.0002C7.32016 45.0265 4.3335 42.0398 4.3335 38.3598V8.6665C4.3335 4.9865 7.32016 1.99983 11.0002 1.99983H59.0002C62.6802 1.99983 65.6668 4.9865 65.6668 8.6665V56.6665C65.6668 60.3465 62.6802 63.3332 59.0002 63.3332H11.0002C7.32016 63.3332 4.3335 60.3465 4.3335 56.6665V55.5732C4.3335 53.3652 5.52816 51.5732 7.00016 51.5732C8.47216 51.5732 9.66683 53.3652 9.66683 55.5732C9.66683 56.9118 11.4588 57.9998 13.6668 57.9998H56.3335C58.5415 57.9998 60.3335 56.2078 60.3335 53.9998V11.3332C60.3335 9.12517 58.5415 7.33317 56.3335 7.33317H13.6668C11.4588 7.33317 9.66683 9.12517 9.66683 11.3332V37.0265C9.66683 38.4985 10.8615 39.6932 12.3335 39.6932H24.6002C24.5335 38.7332 24.4935 37.7732 24.4802 36.8132C24.4668 34.6132 24.7202 32.4265 25.2135 30.2798C25.6802 28.2665 26.4402 26.3198 27.4535 24.5198C28.4668 22.7332 29.7335 21.1065 31.2268 19.6798C33.9468 17.0932 37.2002 15.1598 39.5042 14.4212C40.2042 14.1958 40.6962 14.6052 40.6015 15.3358C40.3602 17.1998 40.1468 20.4132 40.1335 23.6265C40.1335 25.5732 40.2402 27.5332 40.4535 29.4665C40.6402 31.0798 40.9468 32.6665 41.3868 34.2265C41.7468 35.4932 42.2402 36.7198 42.8535 37.8798C43.2002 38.5198 43.6135 39.1332 44.0668 39.6932H55.3602Z" fill="#9FEF00"/>
</g>
<defs>
<filter id="filter0_d_62_5010" x="-1" y="0.666504" width="72" height="72" filterUnits="userSpaceOnUse" color-interpolation-filters="sRGB">
<feFlood flood-opacity="0" result="BackgroundImageFix"/>
<feColorMatrix in="SourceAlpha" type="matrix" values="0 0 0 0 0 0 0 0 0 0 0 0 0 0 0 0 0 0 127 0" result="hardAlpha"/>
<feOffset dy="4"/>
<feGaussianBlur stdDeviation="2"/>
<feComposite in2="hardAlpha" operator="out"/>
<feColorMatrix type="matrix" values="0 0 0 0 0 0 0 0 0 0 0 0 0 0 0 0 0 0 0.25 0"/>
<feBlend mode="normal" in2="BackgroundImageFix" result="effect1_dropShadow_62_5010"/>
<feBlend mode="normal" in="SourceGraphic" in2="effect1_dropShadow_62_5010" result="shape"/>
</filter>
</defs>
</svg>
