<svg width="64" height="68" viewBox="0 0 64 68" fill="none" xmlns="http://www.w3.org/2000/svg">
<g filter="url(#filter0_d_55_3576)">
<path fill-rule="evenodd" clip-rule="evenodd" d="M46.6667 9.33333H50.6667C52.8747 9.33333 54.6667 11.1253 54.6667 13.3333V17.3333C54.6667 18.8053 55.8613 20 57.3333 20C58.8053 20 60 18.8053 60 17.3333V10.6667C60 6.98667 57.0133 4 53.3333 4H50.6667H46.6667H10.6667C6.98667 4 4 6.98667 4 10.6667V36C4 37.472 5.19467 38.6667 6.66667 38.6667C8.13867 38.6667 9.33333 37.472 9.33333 36V13.3333C9.33333 11.1253 11.1253 9.33333 13.3333 9.33333H46.6667ZM20.0947 39.1493L32 24.6013L43.9053 39.1493V21.22C43.9053 20.5893 44.1547 19.9827 44.6067 19.5413C45.048 19.0893 45.6547 18.8387 46.2853 18.8387C46.916 18.8387 47.524 19.0893 47.964 19.5413C48.4173 19.9827 48.6667 20.5893 48.6667 21.22V41.4587C48.6667 41.6253 48.6547 41.792 48.6187 41.9467C48.512 42.4347 48.3333 42.8987 48.0827 43.316C47.44 44.4467 46.2507 45.1493 44.952 45.1613C44.1907 45.1493 43.44 44.9347 42.7853 44.5293C42.1187 44.1373 41.524 43.6613 40.988 43.1013C40.952 43.0533 40.9053 43.0053 40.8693 42.9707L32 32.1253L23.1307 42.9707C23.0947 43.0053 23.048 43.0533 23.012 43.1013C22.476 43.6613 21.8813 44.1373 21.2147 44.5293C20.56 44.9347 19.8093 45.1493 19.048 45.1613C17.7493 45.1493 16.56 44.4467 15.916 43.316C15.6667 42.8987 15.488 42.4347 15.3813 41.9467C15.3453 41.792 15.3333 41.6253 15.3333 41.4587V21.22C15.3333 20.5893 15.584 19.9827 16.036 19.5413C16.476 19.0893 17.084 18.8387 17.7147 18.8387C18.3453 18.8387 18.952 19.0893 19.3933 19.5413C19.8453 19.9827 20.0947 20.5893 20.0947 21.22V39.1493ZM17.3333 54.6667C18.8053 54.6667 20 55.8613 20 57.3333C20 58.8053 18.8053 60 17.3333 60H10.6667C6.98667 60 4 57.0133 4 53.3333V46.6667C4 45.1947 5.19467 44 6.66667 44C8.13867 44 9.33333 45.1947 9.33333 46.6667V50.6667C9.33333 52.8747 11.1253 54.6667 13.3333 54.6667H17.3333ZM54.6667 29.3333C54.6667 27.8613 55.8613 26.6667 57.3333 26.6667C58.8053 26.6667 60 27.8613 60 29.3333V53.3333C60 57.0133 57.0133 60 53.3333 60H29.3333C27.8613 60 26.6667 58.8053 26.6667 57.3333C26.6667 55.8613 27.8613 54.6667 29.3333 54.6667H50.6667C52.8747 54.6667 54.6667 52.8747 54.6667 50.6667V29.3333Z" fill="#9FEF00"/>
</g>
<defs>
<filter id="filter0_d_55_3576" x="-4" y="0" width="72" height="72" filterUnits="userSpaceOnUse" color-interpolation-filters="sRGB">
<feFlood flood-opacity="0" result="BackgroundImageFix"/>
<feColorMatrix in="SourceAlpha" type="matrix" values="0 0 0 0 0 0 0 0 0 0 0 0 0 0 0 0 0 0 127 0" result="hardAlpha"/>
<feOffset dy="4"/>
<feGaussianBlur stdDeviation="2"/>
<feComposite in2="hardAlpha" operator="out"/>
<feColorMatrix type="matrix" values="0 0 0 0 0 0 0 0 0 0 0 0 0 0 0 0 0 0 0.25 0"/>
<feBlend mode="normal" in2="BackgroundImageFix" result="effect1_dropShadow_55_3576"/>
<feBlend mode="normal" in="SourceGraphic" in2="effect1_dropShadow_55_3576" result="shape"/>
</filter>
</defs>
</svg>
