<svg width="64" height="68" viewBox="0 0 64 68" fill="none" xmlns="http://www.w3.org/2000/svg">
<g filter="url(#filter0_d_55_3574)">
<path fill-rule="evenodd" clip-rule="evenodd" d="M46.6667 9.33333H50.6667C52.8747 9.33333 54.6667 11.1253 54.6667 13.3333V17.3333C54.6667 18.8053 55.8613 20 57.3333 20C58.8053 20 60 18.8053 60 17.3333V10.6667C60 6.98667 57.0133 4 53.3333 4H50.6667H46.6667H10.6667C6.98667 4 4 6.98667 4 10.6667V36C4 37.472 5.19467 38.6667 6.66667 38.6667C8.13867 38.6667 9.33333 37.472 9.33333 36V13.3333C9.33333 11.1253 11.1253 9.33333 13.3333 9.33333H46.6667ZM21.3333 46.6667C21.3333 47.3733 21.0533 48.0533 20.56 48.5467C20.0533 49.0533 19.3733 49.3333 18.6667 49.3333C17.96 49.3333 17.28 49.0533 16.7867 48.5467C16.2933 48.0533 16 47.3733 16 46.6667V29.3333H37.32C37.6 29.32 37.8933 29.2933 38.1733 29.24C38.8933 29.1467 39.6 28.9333 40.2533 28.64C40.92 28.3467 41.5067 27.8933 41.9467 27.32C42.16 27.0133 42.3333 26.6667 42.44 26.3067C42.6 25.7733 42.68 25.2133 42.6667 24.6667C42.68 24.1067 42.6 23.5467 42.44 23.0133C42.3333 22.6533 42.16 22.3067 41.9467 22C41.5067 21.4267 40.92 20.9733 40.2533 20.68C39.6 20.3867 38.8933 20.1733 38.1733 20.08C37.8933 20.0267 37.6 20 37.32 20H18.6667C17.96 20 17.28 19.72 16.7867 19.2133C16.2933 18.72 16 18.04 16 17.3333C16 16.6267 16.2933 15.9467 16.7867 15.44C17.28 14.9467 17.96 14.6667 18.6667 14.6667H37.3333C37.3467 14.6667 37.3733 14.6667 37.3867 14.6667C37.92 14.6667 38.4667 14.72 39 14.8133C40.1867 14.9867 41.3333 15.32 42.4267 15.8133C43.9333 16.4667 45.24 17.52 46.24 18.84C46.8133 19.64 47.2533 20.52 47.5467 21.4667C47.8533 22.5067 48.0133 23.5733 48 24.6667C48.0133 25.7467 47.8533 26.8267 47.5467 27.8533C47.2533 28.8 46.8133 29.6933 46.24 30.48C45.24 31.8 43.9333 32.8533 42.4267 33.52C41.3333 34 40.1867 34.3333 39 34.52C38.4667 34.6 37.92 34.6533 37.3867 34.6667C37.3733 34.6667 37.3467 34.6667 37.3333 34.6667H21.3333V46.6667ZM17.3333 54.6667C18.8053 54.6667 20 55.8613 20 57.3333C20 58.8053 18.8053 60 17.3333 60H10.6667C6.98667 60 4 57.0133 4 53.3333V46.6667C4 45.1947 5.19467 44 6.66667 44C8.13867 44 9.33333 45.1947 9.33333 46.6667V50.6667C9.33333 52.8747 11.1253 54.6667 13.3333 54.6667H17.3333ZM54.6667 29.3333C54.6667 27.8613 55.8613 26.6667 57.3333 26.6667C58.8053 26.6667 60 27.8613 60 29.3333V53.3333C60 57.0133 57.0133 60 53.3333 60H29.3333C27.8613 60 26.6667 58.8053 26.6667 57.3333C26.6667 55.8613 27.8613 54.6667 29.3333 54.6667H50.6667C52.8747 54.6667 54.6667 52.8747 54.6667 50.6667V29.3333Z" fill="#9FEF00"/>
</g>
<defs>
<filter id="filter0_d_55_3574" x="-4" y="0" width="72" height="72" filterUnits="userSpaceOnUse" color-interpolation-filters="sRGB">
<feFlood flood-opacity="0" result="BackgroundImageFix"/>
<feColorMatrix in="SourceAlpha" type="matrix" values="0 0 0 0 0 0 0 0 0 0 0 0 0 0 0 0 0 0 127 0" result="hardAlpha"/>
<feOffset dy="4"/>
<feGaussianBlur stdDeviation="2"/>
<feComposite in2="hardAlpha" operator="out"/>
<feColorMatrix type="matrix" values="0 0 0 0 0 0 0 0 0 0 0 0 0 0 0 0 0 0 0.25 0"/>
<feBlend mode="normal" in2="BackgroundImageFix" result="effect1_dropShadow_55_3574"/>
<feBlend mode="normal" in="SourceGraphic" in2="effect1_dropShadow_55_3574" result="shape"/>
</filter>
</defs>
</svg>
