<svg width="512" height="512" viewBox="0 0 512 512" fill="none" xmlns="http://www.w3.org/2000/svg">
<path d="M143.571 502.229C70.0444 502.229 10.248 442.304 10.248 368.62V143.38C10.248 69.6958 70.0444 9.77136 143.571 9.77136H368.33C441.856 9.77136 501.653 69.6958 501.653 143.38V368.62C501.653 442.304 441.856 502.229 368.33 502.229H143.571Z" fill="#9FEF00"/>
<path d="M368.33 14.3579C402.755 14.3579 434.991 27.8185 459.367 52.1472C483.644 76.4759 497.076 108.881 497.076 143.38V368.62C497.076 403.119 483.644 435.424 459.367 459.853C435.091 484.181 402.755 497.642 368.33 497.642H143.571C109.146 497.642 76.9095 484.181 52.5333 459.853C28.2566 435.424 14.9243 403.119 14.9243 368.62V143.38C14.9243 108.881 28.3561 76.5756 52.6328 52.1472C76.9095 27.8185 109.245 14.3579 143.671 14.3579H368.33ZM368.33 5.0851H143.571C67.358 5.0851 5.57178 67.0037 5.57178 143.38V368.62C5.57178 444.996 67.358 506.915 143.571 506.915H368.33C444.543 506.915 506.329 444.996 506.329 368.62V143.38C506.329 67.0037 444.543 5.0851 368.33 5.0851Z" fill="#141D2B"/>
<path d="M365.444 459.753H149.342C95.6145 459.753 52.1353 416.081 52.1353 362.338V335.118H462.651V362.338C462.651 416.181 419.171 459.753 365.444 459.753Z" fill="#141D2B"/>
<path d="M95.2166 344.391H122.478V377.594H164.763V344.391H192.224V437.518H164.763V399.53H122.478L122.677 437.518H95.2166V344.391Z" fill="#9FEF00"/>
<path d="M321.866 344.391H359.176L371.116 367.523L382.259 344.391H419.868L387.532 390.955L419.868 437.518H382.259L370.917 413.788L359.773 437.518H321.866L349.724 390.955L321.866 344.391Z" fill="#9FEF00"/>
<path d="M294.505 204.7H349.028L366.439 234.912L382.757 204.7H437.678L390.517 265.522L437.678 326.344H382.757L366.041 295.434L349.824 326.344H294.505L335.198 265.522L294.505 204.7Z" fill="#141D2B"/>
<path d="M57.5081 158.735H109.245L125.065 241.891L150.536 158.735H201.477L226.948 241.891L248.14 158.735H294.505L257.492 326.344H206.85L176.006 225.14L145.959 326.344H95.2166L57.5081 158.735Z" fill="#141D2B"/>
<path d="M237.892 399.829L280.078 400.028C295.997 400.128 308.832 387.166 308.832 371.312C308.832 356.456 296.793 344.391 281.968 344.391H240.081C223.764 344.391 210.63 357.652 210.63 373.905V409.301C210.63 424.855 223.167 437.419 238.688 437.419H303.757V409.799L237.792 409.5L237.892 399.829ZM240.777 373.107H278.884C279.68 373.107 280.376 373.805 280.376 374.603C280.376 375.4 279.68 376.098 278.884 376.098H240.777C239.981 376.098 239.285 375.4 239.285 374.603C239.285 373.805 239.981 373.107 240.777 373.107Z" fill="#9FEF00"/>
</svg>
