<svg width="64" height="64" viewBox="0 0 64 64" fill="none" xmlns="http://www.w3.org/2000/svg">
<path fill-rule="evenodd" clip-rule="evenodd" d="M39.7343 14.6C40.4997 13.3493 42.1397 12.9573 43.3943 13.7267C44.649 14.496 45.041 16.1413 44.2677 17.4L33.645 34.66C32.4877 36.54 30.473 36.632 29.149 34.8667L16.4543 17.9333C16.013 17.3453 15.3623 17.388 15.001 18.0293L7.04101 32.184C6.68101 32.8253 6.67435 33.8707 7.02635 34.5173L13.681 46.72C14.381 48.0147 13.8997 49.6373 12.6077 50.34C11.317 51.0427 9.69435 50.568 8.98768 49.28L2.19701 36.832C1.13968 34.8933 1.15968 31.7573 2.24235 29.8333L13.053 10.62C14.1357 8.696 16.0903 8.56667 17.4157 10.3333L30.321 27.5333C30.7623 28.1227 31.4343 28.0907 31.8197 27.464L39.7343 14.6ZM35.3343 54.6667C36.8063 54.6667 38.001 55.8613 38.001 57.3333C38.001 58.8053 36.8063 60 35.3343 60H19.1877C16.9797 60 15.9303 58.368 16.8437 56.3587L23.5743 41.56C24.185 40.2213 25.769 39.6293 27.1077 40.24C28.4477 40.8507 29.0383 42.4347 28.4277 43.7733L24.033 53.452C23.7277 54.1227 24.0783 54.6667 24.8143 54.6667H35.3343ZM24.6677 9.33333C23.1957 9.33333 22.001 8.13867 22.001 6.66667C22.001 5.19467 23.1957 4 24.6677 4H44.9877C47.1957 4 49.789 5.604 50.7757 7.57867L61.9077 29.8613C62.893 31.836 62.7863 34.9853 61.6677 36.888L49.561 57.4853C48.4423 59.388 46.5063 59.4653 45.2397 57.6573L35.8143 44.2C34.9677 42.9933 35.261 41.3267 36.4677 40.48C37.6743 39.6333 39.341 39.9267 40.1877 41.1333L46.3703 49.9747C46.7917 50.5773 47.4383 50.552 47.8117 49.9173L56.965 34.376C57.3383 33.7413 57.3743 32.692 57.045 32.0347L46.2783 10.5253C45.949 9.868 45.0837 9.33333 44.3477 9.33333H24.6677Z" fill="#9FEF00"/>
</svg>
