<svg width="67" height="69" viewBox="0 0 67 69" fill="none" xmlns="http://www.w3.org/2000/svg">
<g filter="url(#filter0_d_62_5014)">
<path fill-rule="evenodd" clip-rule="evenodd" d="M40.78 44.9853C42.732 43.9413 44.6173 42.7947 46.4506 41.5467C47.176 41.0533 47.8826 40.54 48.58 40.0173C49.1613 39.5667 49.7346 39.1053 50.2893 38.6053C51.0186 37.98 51.7133 37.2973 52.3693 36.5933C52.88 36.0453 53.3533 35.4587 53.78 34.8413C54.704 33.5253 55.4626 32.0893 56.0053 30.58C56.8106 28.3347 57.4026 26.016 57.7773 23.6613C58.072 21.728 58.272 19.792 58.3693 17.8427C58.488 15.252 58.4946 12.6587 58.3973 10.0707C58.3546 9.39867 58.0746 8.76667 57.6013 8.27867C57.1746 7.80134 56.6106 7.48801 55.9813 7.38134C53.2786 6.98401 50.5506 6.75601 47.8266 6.68934C45.7346 6.63467 43.6373 6.73067 41.572 6.97867C39.516 7.23601 37.5 7.69334 35.5333 8.32267C33.9493 8.83334 32.4253 9.54401 30.9986 10.3987C29.408 11.3533 27.9533 12.5093 26.6426 13.8213C24.7266 15.7347 22.9933 17.8067 21.444 20.016C20.8746 20.8213 20.3253 21.6413 19.796 22.4733L20.0186 22.7107L40.78 44.9853ZM37.064 46.8653C35.008 47.864 32.9266 48.8133 30.824 49.7133L14.5146 32.216C15.5053 30.132 16.5613 28.084 17.6746 26.064L37.064 46.8653ZM20.2546 14.9453C19.5253 15.848 18.824 16.7733 18.156 17.7213C16.8146 19.6453 15.5653 21.6493 14.4173 23.7027C13.9133 24.6053 13.42 25.5133 12.94 26.428L9.37463 22.604L13.0173 14.692L20.2546 14.9453ZM47.996 45.3333C45.98 46.6667 43.8853 47.896 41.736 49.0027C40.016 49.8867 38.2826 50.7347 36.5346 51.5493L40.86 56.1893L47.7626 51.9693L47.996 45.3333ZM23.744 11.0587C23.7653 11.0373 23.7866 11.016 23.808 10.996C25.3426 9.45467 27.06 8.10934 28.9213 6.97734C30.6173 5.96134 32.4293 5.12934 34.3 4.51467C36.5133 3.80134 38.7773 3.29601 41.0786 3.00801C43.3533 2.72934 45.64 2.62134 47.94 2.68401C50.824 2.76667 53.72 3.01867 56.5826 3.43067C58.1026 3.67334 59.492 4.42001 60.528 5.55067C61.6466 6.73201 62.3093 8.26401 62.3946 9.88001C62.4973 12.592 62.4853 15.3173 62.3626 18.0213C62.26 20.1213 62.0546 22.208 61.7266 24.2813C61.324 26.88 60.6586 29.452 59.76 31.9293C59.1013 33.784 58.1893 35.544 57.048 37.1547C56.512 37.9093 55.94 38.6253 55.312 39.3013C54.5573 40.1147 53.756 40.8973 52.92 41.6227C52.652 41.856 52.384 42.084 52.112 42.308L51.7226 53.4067C51.696 54.1427 51.1453 55.0147 50.492 55.3533L40.972 60.2933C40.3186 60.632 39.3813 60.4693 38.88 59.932L33.4066 54.06L32.6773 53.2773C32.1493 53.504 31.62 53.728 31.0893 53.9493C30.324 54.2627 29.4253 54.08 28.852 53.4653L10.6706 33.9573C10.116 33.3627 9.97596 32.4907 10.3133 31.756C10.548 31.2493 10.7853 30.744 11.0253 30.2413L10.976 30.1893L5.50396 24.3173C5.00129 23.7787 4.84663 22.8 5.15729 22.1333L9.96663 11.8027C10.2773 11.136 11.1266 10.616 11.8626 10.6413L23.156 11.0387L23.744 11.0587ZM38.9346 17.584C40.0946 16.5027 41.644 15.9147 43.236 15.98C44.8293 16.0267 46.324 16.712 47.4146 17.8827C48.496 19.0427 49.084 20.592 49.0186 22.184C48.9626 23.7667 48.2773 25.28 47.116 26.3627C45.956 27.444 44.3973 28.0213 42.8146 27.9653C41.2226 27.9187 39.7186 27.224 38.636 26.064C37.5453 24.8933 36.968 23.3547 37.0333 21.7627C37.08 20.1693 37.7733 18.6653 38.9346 17.584ZM36.2053 14.6547C40.2426 10.892 46.5746 11.1147 50.3386 15.152C54.1013 19.1893 53.8786 25.5227 49.8413 29.2853C45.804 33.048 39.4706 32.8253 35.708 28.788C31.9453 24.7507 32.168 18.4187 36.2053 14.6547Z" fill="#9FEF00"/>
<path fill-rule="evenodd" clip-rule="evenodd" d="M7.74663 46.7467C6.96663 47.5267 5.69996 47.5267 4.91996 46.7467C4.13996 45.9667 4.13996 44.7 4.91996 43.92L10.2533 38.5867C11.0333 37.8067 12.3 37.8067 13.08 38.5867C13.86 39.3667 13.86 40.6334 13.08 41.4134L7.74663 46.7467ZM18.4133 57.4134C17.6333 58.1934 16.3666 58.1934 15.5866 57.4134C14.8066 56.6334 14.8066 55.3667 15.5866 54.5867L20.92 49.2534C21.7 48.4734 22.9666 48.4734 23.7466 49.2534C24.5266 50.0334 24.5266 51.3 23.7466 52.08L18.4133 57.4134ZM7.74663 57.4134C6.96663 58.1934 5.69996 58.1934 4.91996 57.4134C4.13996 56.6334 4.13996 55.3667 4.91996 54.5867L15.5866 43.92C16.3666 43.14 17.6333 43.14 18.4133 43.92C19.1933 44.7 19.1933 45.9667 18.4133 46.7467L7.74663 57.4134Z" fill="#A4B1CD"/>
</g>
<defs>
<filter id="filter0_d_62_5014" x="-3" y="0" width="72" height="72" filterUnits="userSpaceOnUse" color-interpolation-filters="sRGB">
<feFlood flood-opacity="0" result="BackgroundImageFix"/>
<feColorMatrix in="SourceAlpha" type="matrix" values="0 0 0 0 0 0 0 0 0 0 0 0 0 0 0 0 0 0 127 0" result="hardAlpha"/>
<feOffset dy="4"/>
<feGaussianBlur stdDeviation="2"/>
<feComposite in2="hardAlpha" operator="out"/>
<feColorMatrix type="matrix" values="0 0 0 0 0 0 0 0 0 0 0 0 0 0 0 0 0 0 0.25 0"/>
<feBlend mode="normal" in2="BackgroundImageFix" result="effect1_dropShadow_62_5014"/>
<feBlend mode="normal" in="SourceGraphic" in2="effect1_dropShadow_62_5014" result="shape"/>
</filter>
</defs>
</svg>
