<svg width="68" height="70" viewBox="0 0 68 70" fill="none" xmlns="http://www.w3.org/2000/svg">
<g filter="url(#filter0_d_54_3554)">
<path fill-rule="evenodd" clip-rule="evenodd" d="M59.8133 26.9147C59.8133 28.0693 60.752 29.008 61.9067 29.008C63.0627 29.008 64 28.0693 64 26.9147V6.18667C64 3.876 62.124 2 59.8133 2H8.18667C5.876 2 4 3.876 4 6.18667V19.4413C4 20.5973 4.93733 21.5347 6.09333 21.5347C7.248 21.5347 8.18667 20.5973 8.18667 19.4413V7.58133C8.18667 6.81067 8.81067 6.18667 9.58133 6.18667H58.4187C59.1893 6.18667 59.8133 6.81067 59.8133 7.58133V26.9147ZM8.18667 32C8.18667 30.8453 7.248 29.9067 6.09333 29.9067C4.93733 29.9067 4 30.8453 4 32V57.8133C4 60.124 5.876 62 8.18667 62H59.8133C62.124 62 64 60.124 64 57.8133V44.8067C64 43.6507 62.124 42.7133 59.8133 42.7133V44.8067V56.4187C59.8133 57.1893 59.1893 57.8133 58.4187 57.8133H9.58133C8.81067 57.8133 8.18667 57.1893 8.18667 56.4187V32ZM15.86 42.7133C14.7053 42.7133 13.768 43.6507 13.768 44.8067C13.768 45.9613 14.7053 46.8987 15.86 46.8987H57.7213H59.8133V42.7133H57.7213H15.86ZM50 52.6667C50 54.5067 51.4933 56 53.3333 56C55.1733 56 56.6667 54.5067 56.6667 52.6667C56.6667 50.8267 55.1733 49.3333 53.3333 49.3333C51.4933 49.3333 50 50.8267 50 52.6667ZM40.6667 52.6667C40.6667 54.5067 42.16 56 44 56C45.84 56 47.3333 54.5067 47.3333 52.6667C47.3333 50.8267 45.84 49.3333 44 49.3333C42.16 49.3333 40.6667 50.8267 40.6667 52.6667ZM31.3333 52.6667C31.3333 54.5067 32.8267 56 34.6667 56C36.5067 56 38 54.5067 38 52.6667C38 50.8267 36.5067 49.3333 34.6667 49.3333C32.8267 49.3333 31.3333 50.8267 31.3333 52.6667Z" fill="#9FEF00"/>
</g>
<defs>
<filter id="filter0_d_54_3554" x="-2" y="0" width="72" height="72" filterUnits="userSpaceOnUse" color-interpolation-filters="sRGB">
<feFlood flood-opacity="0" result="BackgroundImageFix"/>
<feColorMatrix in="SourceAlpha" type="matrix" values="0 0 0 0 0 0 0 0 0 0 0 0 0 0 0 0 0 0 127 0" result="hardAlpha"/>
<feOffset dy="4"/>
<feGaussianBlur stdDeviation="2"/>
<feComposite in2="hardAlpha" operator="out"/>
<feColorMatrix type="matrix" values="0 0 0 0 0 0 0 0 0 0 0 0 0 0 0 0 0 0 0.25 0"/>
<feBlend mode="normal" in2="BackgroundImageFix" result="effect1_dropShadow_54_3554"/>
<feBlend mode="normal" in="SourceGraphic" in2="effect1_dropShadow_54_3554" result="shape"/>
</filter>
</defs>
</svg>
