<svg width="68" height="70" viewBox="0 0 68 70" fill="none" xmlns="http://www.w3.org/2000/svg">
<g filter="url(#filter0_d_62_5017)">
<path fill-rule="evenodd" clip-rule="evenodd" d="M59.8133 29.0853C59.8133 27.9307 60.752 26.992 61.9067 26.992C63.0627 26.992 64 27.9307 64 29.0853V57.8133C64 60.124 62.124 62 59.8133 62H8.18667C5.876 62 4 60.124 4 57.8133V44.5587C4 43.4027 4.93733 42.4653 6.09333 42.4653C7.248 42.4653 8.18667 43.4027 8.18667 44.5587V56.4187C8.18667 57.1893 8.81067 57.8133 9.58133 57.8133H58.4187C59.1893 57.8133 59.8133 57.1893 59.8133 56.4187V29.0853ZM8.18667 32C8.18667 33.1547 7.248 34.0933 6.09333 34.0933C4.93733 34.0933 4 33.1547 4 32V6.18667C4 3.876 5.876 2 8.18667 2H59.8133C62.124 2 64 3.876 64 6.18667V16.5267C64 17.6827 62.124 18.62 59.8133 18.62V16.5267V7.58133C59.8133 6.81067 59.1893 6.18667 58.4187 6.18667H9.58133C8.81067 6.18667 8.18667 6.81067 8.18667 7.58133V32ZM15.86 18.62C14.7053 18.62 13.768 17.6827 13.768 16.5267C13.768 15.372 14.7053 14.4347 15.86 14.4347H57.7213H59.8133V18.62H57.7213H15.86Z" fill="#9FEF00"/>
<path d="M36.7081 35.0733C36.8054 35.1826 37.0654 35.4266 37.4854 35.804C43.3814 41.6506 46.2161 44.2586 45.9881 44.96C45.8241 45.476 45.3508 45.912 44.5708 46.2706C43.7908 46.6093 43.0881 46.7626 42.4628 46.7306C41.9681 46.7053 39.6161 44.908 35.4108 40.004C34.5628 38.976 34.0641 38.396 33.9161 38.2626C33.2988 38.9026 32.3774 40.2173 31.1521 42.2093C29.5734 45.3866 27.4974 48.3186 26.3081 51.6746C25.9454 52.8506 25.0201 53.4013 23.5361 53.3266C22.7534 53.2866 22.2734 53.0333 22.0948 52.5626C21.9161 52.0933 21.9894 51.364 22.3148 50.3746C22.9388 48.3946 25.9401 43.592 31.3188 35.964C31.2881 35.628 30.5174 34.4053 29.0068 32.2973C27.4961 30.1893 26.2961 28.5933 25.4081 27.7733C24.4468 26.8866 24.0454 26.2066 24.2068 25.7333C24.5694 24.5573 25.7161 24.0173 27.6441 24.1146C28.5814 24.1626 30.2534 26.1386 32.6588 29.7786C33.6854 31.276 34.3588 32.1893 34.6774 32.52C35.2321 32.024 36.0228 31.1106 37.0494 29.78C38.0774 28.428 38.7881 27.332 39.1828 26.4933C39.5721 25.7173 40.1868 25.0986 41.0268 24.6386C41.8668 24.1773 42.6641 23.9666 43.4201 24.004C44.5921 24.0626 45.0174 24.5773 44.6934 25.5453C44.3294 26.7213 42.2161 29.3066 38.3521 33.3013C37.3441 34.34 36.7961 34.9306 36.7081 35.0733Z" fill="#A4B1CD"/>
</g>
<defs>
<filter id="filter0_d_62_5017" x="-2" y="0" width="72" height="72" filterUnits="userSpaceOnUse" color-interpolation-filters="sRGB">
<feFlood flood-opacity="0" result="BackgroundImageFix"/>
<feColorMatrix in="SourceAlpha" type="matrix" values="0 0 0 0 0 0 0 0 0 0 0 0 0 0 0 0 0 0 127 0" result="hardAlpha"/>
<feOffset dy="4"/>
<feGaussianBlur stdDeviation="2"/>
<feComposite in2="hardAlpha" operator="out"/>
<feColorMatrix type="matrix" values="0 0 0 0 0 0 0 0 0 0 0 0 0 0 0 0 0 0 0.25 0"/>
<feBlend mode="normal" in2="BackgroundImageFix" result="effect1_dropShadow_62_5017"/>
<feBlend mode="normal" in="SourceGraphic" in2="effect1_dropShadow_62_5017" result="shape"/>
</filter>
</defs>
</svg>
