<svg width="72" height="70" viewBox="0 0 72 70" fill="none" xmlns="http://www.w3.org/2000/svg">
<g filter="url(#filter0_d_62_4937)">
<path fill-rule="evenodd" clip-rule="evenodd" d="M19.6815 17.6387C19.6815 16.1973 20.8508 15.0267 22.2922 15.0267C23.7335 15.0267 24.9028 16.1973 24.9028 17.6387C24.9028 19.0787 23.7335 20.2493 22.2922 20.2493C20.8508 20.2493 19.6815 19.0787 19.6815 17.6387ZM30.8908 15.0267H49.7082C51.1495 15.0267 52.3202 16.1973 52.3202 17.6387C52.3202 19.0787 51.1495 20.2493 49.7082 20.2493H30.8908C29.4495 20.2493 28.2788 19.0787 28.2788 17.6387C28.2788 16.1973 29.4495 15.0267 30.8908 15.0267ZM19.6815 25.472C19.6815 24.0307 20.8508 22.86 22.2922 22.86C23.7335 22.86 24.9028 24.0307 24.9028 25.472C24.9028 26.912 23.7335 28.0827 22.2922 28.0827C20.8508 28.0827 19.6815 26.912 19.6815 25.472ZM30.8908 22.86H49.7082C51.1495 22.86 52.3202 24.0307 52.3202 25.472C52.3202 26.912 51.1495 28.0827 49.7082 28.0827H30.8908C29.4495 28.0827 28.2788 26.912 28.2788 25.472C28.2788 24.0307 29.4495 22.86 30.8908 22.86ZM19.6815 33.3053C19.6815 31.864 20.8508 30.6933 22.2922 30.6933C23.7335 30.6933 24.9028 31.864 24.9028 33.3053C24.9028 34.7453 23.7335 35.916 22.2922 35.916C20.8508 35.916 19.6815 34.7453 19.6815 33.3053ZM30.8908 30.6933H49.7082C51.1495 30.6933 52.3202 31.864 52.3202 33.3053C52.3202 34.7453 51.1495 35.916 49.7082 35.916H30.8908C29.4495 35.916 28.2788 34.7453 28.2788 33.3053C28.2788 31.864 29.4495 30.6933 30.8908 30.6933ZM30.9215 49.3107V49.2973C30.9082 49.2973 30.9082 49.284 30.8962 49.284C30.9348 49.2973 30.9602 49.324 30.9868 49.3373C30.9602 49.324 30.9482 49.324 30.9215 49.3107ZM35.0988 54.024C35.1642 53.88 35.2295 53.736 35.2948 53.5933C35.8442 52.392 36.1575 51.0733 36.1962 49.7413C36.2615 48.384 35.8175 47.0387 34.9562 45.9813C34.6682 45.6293 34.3295 45.316 33.9642 45.0547C33.4548 44.7027 32.9055 44.4413 32.3188 44.2707C31.6402 44.076 30.9482 43.932 30.2428 43.88C29.3028 43.788 28.3362 43.736 27.3842 43.7493C25.4908 43.7627 23.5975 43.6573 21.7175 43.436C20.3988 43.292 19.1068 43.0053 17.8535 42.6C16.9522 42.3133 16.0908 41.8947 15.3068 41.3867C14.6028 40.916 13.9628 40.368 13.3882 39.7547C12.2268 38.4613 11.3522 36.9467 10.8428 35.2893C10.1895 33.3173 9.87616 31.2413 9.88949 29.1667C9.88949 27.104 10.1762 25.0533 10.7375 23.0827C11.2602 21.28 12.1215 19.584 13.2842 18.108C14.6282 16.424 16.2215 14.9613 18.0095 13.7613C20.1642 12.324 22.4748 11.1493 24.8895 10.2613C27.7495 9.19066 30.6868 8.39466 33.6895 7.85999C36.2348 7.51999 38.8068 7.33733 41.3788 7.32399C42.9202 7.32399 44.4735 7.40266 46.0002 7.58533C47.4762 7.75466 48.9255 8.04266 50.3482 8.44666C51.6935 8.82533 52.9988 9.34799 54.2255 10.0133C55.4002 10.64 56.4975 11.4373 57.4762 12.3507C58.9908 13.8907 60.1522 15.732 60.8842 17.7693C61.7068 20.0147 62.1242 22.3773 62.1108 24.7667C62.1242 28.0307 61.3935 31.2413 59.9695 34.1667C58.8215 36.5427 57.1628 38.632 55.1135 40.2893C53.0108 41.9733 50.5828 43.188 47.9722 43.8667C47.4108 43.9973 46.8628 44.1667 46.3268 44.376C45.7268 44.6107 45.1522 44.9373 44.6162 45.316C44.0682 45.7467 43.5335 46.204 43.0375 46.7C42.3588 47.3653 41.6788 48.0573 41.0268 48.7493C39.4468 50.3947 37.7628 51.9347 35.9735 53.3573C35.6868 53.58 35.4002 53.8013 35.0988 54.024ZM26.3788 59.5853C26.3388 59.3893 26.3255 59.2067 26.3255 59.0107L26.3788 59.5853V59.5467C26.3135 59.2453 26.3002 58.9453 26.3388 58.6453C26.3908 58.1627 26.5615 57.692 26.8228 57.2747C26.9522 57.0267 27.1095 56.7653 27.2788 56.5173C27.7362 55.812 28.2188 55.12 28.7415 54.4413C29.4588 53.528 30.0602 52.5227 30.5295 51.452C30.8042 50.8507 30.9602 50.1987 30.9735 49.5453C30.9868 49.4547 30.9602 49.376 30.9215 49.3107C30.8962 49.2973 30.8695 49.284 30.8562 49.284C30.4908 49.18 30.1255 49.1013 29.7602 49.076C28.9895 48.9973 28.2055 48.9587 27.4362 48.9707C25.3215 48.984 23.2055 48.88 21.1042 48.632C19.4455 48.436 17.8135 48.084 16.2348 47.5747C14.8895 47.1307 13.6095 46.5173 12.4215 45.7467C11.3642 45.0413 10.3988 44.2067 9.53616 43.2787C7.86549 41.4387 6.61216 39.2587 5.86816 36.8813C5.05882 34.388 4.65349 31.7773 4.66682 29.14C4.66682 26.6067 5.02016 24.0747 5.71216 21.6333C6.42949 19.1787 7.60416 16.8813 9.19749 14.8707C10.8682 12.756 12.8655 10.9147 15.1108 9.42666C17.6055 7.75466 20.2682 6.39733 23.0748 5.35333C26.2615 4.17866 29.5508 3.27733 32.8935 2.70266C35.7002 2.31066 38.5202 2.11466 41.3535 2.10266C43.1148 2.10266 44.8655 2.19333 46.6015 2.40266C48.3508 2.59866 50.0868 2.93733 51.7842 3.42133C53.4815 3.90399 55.1268 4.56933 56.6935 5.40533C58.2988 6.27999 59.7868 7.35066 61.1188 8.61733C63.1948 10.6933 64.8002 13.212 65.7922 15.98C66.8242 18.8 67.3468 21.7773 67.3335 24.78C67.3468 28.8133 66.4322 32.808 64.6695 36.4387C63.1815 39.5067 61.0402 42.208 58.3908 44.3627C55.7015 46.5173 52.5802 48.084 49.2388 48.932C48.8855 49.0107 48.5468 49.1147 48.2202 49.2453C48.0508 49.3107 47.8935 49.4027 47.7375 49.5067C47.3842 49.7813 47.0455 50.0813 46.7188 50.408C46.0655 51.0347 45.4268 51.6867 44.8002 52.352C43.0628 54.18 41.1962 55.8773 39.2255 57.4573C38.3108 58.176 37.3575 58.8413 36.3655 59.468C35.4522 60.0427 34.4855 60.552 33.4802 60.9827C32.8802 61.244 32.2535 61.452 31.6135 61.6213C31.0135 61.792 30.4122 61.8827 29.7855 61.896C29.3548 61.9093 28.9108 61.844 28.4802 61.7267C27.8015 61.5173 27.2135 61.1 26.7962 60.512C26.6002 60.2387 26.4562 59.912 26.3788 59.5853Z" fill="#9FEF00"/>
</g>
<defs>
<filter id="filter0_d_62_4937" x="0" y="0" width="72" height="72" filterUnits="userSpaceOnUse" color-interpolation-filters="sRGB">
<feFlood flood-opacity="0" result="BackgroundImageFix"/>
<feColorMatrix in="SourceAlpha" type="matrix" values="0 0 0 0 0 0 0 0 0 0 0 0 0 0 0 0 0 0 127 0" result="hardAlpha"/>
<feOffset dy="4"/>
<feGaussianBlur stdDeviation="2"/>
<feComposite in2="hardAlpha" operator="out"/>
<feColorMatrix type="matrix" values="0 0 0 0 0 0 0 0 0 0 0 0 0 0 0 0 0 0 0.25 0"/>
<feBlend mode="normal" in2="BackgroundImageFix" result="effect1_dropShadow_62_4937"/>
<feBlend mode="normal" in="SourceGraphic" in2="effect1_dropShadow_62_4937" result="shape"/>
</filter>
</defs>
</svg>
