<svg width="68" height="72" viewBox="0 0 68 72" fill="none" xmlns="http://www.w3.org/2000/svg">
<g filter="url(#filter0_d_55_3588)">
<path fill-rule="evenodd" clip-rule="evenodd" d="M41.4621 28.2457L39.4528 25.1883V13.4483V12.595C38.4034 12.3497 37.6221 11.4083 37.6221 10.2843C37.6221 8.97499 38.6848 7.91099 39.9954 7.91099H44.9901C45.0061 7.91099 45.0061 7.91099 45.0221 7.91099C45.6861 7.92699 46.3514 7.68965 46.8568 7.27899C47.1581 7.04165 47.3314 6.69232 47.3634 6.32965C47.3314 5.96565 47.1581 5.61765 46.8568 5.38032C46.3514 4.96832 45.6861 4.73099 45.0221 4.74699C45.0061 4.74699 45.0061 4.74699 44.9901 4.74699H22.3421C22.3261 4.74699 22.3261 4.74699 22.3101 4.74699C21.6461 4.73099 20.9808 4.96832 20.4754 5.38032C20.1741 5.61765 20.0008 5.96565 19.9688 6.32965C20.0008 6.69232 20.1741 7.04165 20.4754 7.27899C20.9808 7.68965 21.6461 7.92699 22.3101 7.91099C22.3261 7.91099 22.3261 7.91099 22.3421 7.91099H27.3368C28.6474 7.91099 29.7101 8.97499 29.7101 10.2843C29.7101 11.4083 28.9288 12.3497 27.8794 12.595V13.4483V25.1883L21.3914 35.0603C21.4648 35.0617 21.5368 35.0617 21.6101 35.0617C23.3341 35.0937 25.0754 34.8403 26.7368 34.3177C28.1914 33.859 29.5208 33.099 30.6754 32.103C32.6541 30.8523 34.7901 29.8563 37.0208 29.1443C38.4608 28.683 39.9514 28.3817 41.4621 28.2457ZM22.5914 49.839C22.5914 49.0003 22.9234 48.1937 23.5248 47.6083C24.1101 47.007 24.9168 46.675 25.7554 46.675C26.5941 46.675 27.4008 47.007 27.9861 47.6083C28.5874 48.1937 28.9194 49.0003 28.9194 49.839C28.9194 50.6777 28.5874 51.4843 27.9861 52.0697C27.4008 52.671 26.5941 53.003 25.7554 53.003C24.9168 53.003 24.1101 52.671 23.5248 52.0697C22.9234 51.4843 22.5914 50.6777 22.5914 49.839ZM39.2034 43.5096C39.2034 43.083 39.3781 42.687 39.6621 42.387C39.9634 42.1017 40.3581 41.9283 40.7861 41.9283C41.2128 41.9283 41.6088 42.1017 41.9088 42.387C42.1941 42.687 42.3688 43.083 42.3688 43.5096C42.3688 43.9376 42.1941 44.3337 41.9088 44.6337C41.6088 44.919 41.2128 45.0923 40.7861 45.0923C40.3581 45.0923 39.9634 44.919 39.6621 44.6337C39.3781 44.3337 39.2034 43.9376 39.2034 43.5096ZM39.9954 54.5857C39.9954 53.7123 40.7034 53.003 41.5768 53.003C42.4501 53.003 43.1594 53.7123 43.1594 54.5857C43.1594 55.459 42.4501 56.1683 41.5768 56.1683C40.7034 56.1683 39.9954 55.459 39.9954 54.5857ZM44.7408 51.4217C44.7408 50.5483 45.4501 49.839 46.3234 49.839C47.1968 49.839 47.9061 50.5483 47.9061 51.4217C47.9061 52.295 47.1968 53.003 46.3234 53.003C45.4501 53.003 44.7408 52.295 44.7408 51.4217ZM19.4261 49.839C19.4261 46.3457 22.2621 43.5096 25.7554 43.5096C29.2488 43.5096 32.0834 46.3457 32.0834 49.839C32.0834 53.3323 29.2488 56.1683 25.7554 56.1683C22.2621 56.1683 19.4261 53.3323 19.4261 49.839ZM36.0394 43.5096C36.0394 40.891 38.1661 38.7643 40.7861 38.7643C43.4061 38.7643 45.5328 40.891 45.5328 43.5096C45.5328 46.1297 43.4061 48.2563 40.7861 48.2563C38.1661 48.2563 36.0394 46.1297 36.0394 43.5096ZM44.5754 32.9843L57.5248 52.687C57.5248 52.687 57.5248 52.703 57.5408 52.703C57.8741 53.2563 58.1581 53.8577 58.3634 54.475C58.5061 54.9177 58.5861 55.3763 58.5861 55.835C58.5861 56.183 58.5221 56.547 58.3634 56.8643C58.2221 57.1643 58.0154 57.4177 57.7621 57.607C57.3674 57.9083 56.9248 58.1297 56.4501 58.2563C55.7381 58.4617 55.0101 58.5563 54.2661 58.5417C54.2501 58.5417 54.2501 58.5417 54.2341 58.5417H13.0981C13.0821 58.5417 13.0821 58.5417 13.0661 58.5417C12.3221 58.5563 11.5941 58.4617 10.8821 58.2563C10.4074 58.1297 9.96476 57.9083 9.57009 57.607C9.31676 57.4177 9.11009 57.1643 8.96876 56.8643C8.81009 56.547 8.74609 56.183 8.74609 55.835C8.74609 55.3763 8.82609 54.9177 8.96876 54.475C9.17409 53.8577 9.45809 53.2563 9.79143 52.703C9.80743 52.703 9.80743 52.687 9.80743 52.687L18.3821 39.639C19.4421 39.7497 20.5021 39.8083 21.5621 39.8083C23.7928 39.839 26.0248 39.507 28.1608 38.843C30.1061 38.2257 31.9101 37.2443 33.4768 35.947C35.0421 34.983 36.7034 34.223 38.4608 33.6697C39.9794 33.179 41.5768 32.9257 43.1754 32.9097C43.6421 32.9097 44.1101 32.935 44.5754 32.9843ZM44.1994 12.6577V13.4483V23.859L61.5754 50.219C62.1141 51.0883 62.5408 52.007 62.8728 52.987C63.1741 53.8897 63.3168 54.839 63.3314 55.7883C63.3474 56.8643 63.1101 57.9243 62.6514 58.9043C62.1928 59.8697 61.4968 60.7243 60.6421 61.3883C59.7728 62.0537 58.7754 62.5443 57.7154 62.8283C56.5768 63.1457 55.4048 63.303 54.2181 63.287H13.1141C11.9274 63.303 10.7554 63.1457 9.61676 62.8283C8.55676 62.5443 7.55943 62.0537 6.69009 61.3883C5.83543 60.7243 5.13943 59.8697 4.68076 58.9043C4.22209 57.9243 3.98476 56.8643 4.00076 55.7883C4.01543 54.839 4.15809 53.8897 4.45943 52.987C4.79143 52.007 5.21809 51.0883 5.75676 50.219L23.1328 23.859V13.4483V12.6577H22.3581C20.5861 12.6737 18.8768 12.0883 17.5008 10.9803C16.0928 9.84165 15.2541 8.13232 15.2221 6.32965C15.2541 4.52565 16.0928 2.81632 17.5008 1.67765C18.8768 0.569653 20.5861 -0.0156805 22.3581 0.000319476H44.9741C46.7461 -0.0156805 48.4554 0.569653 49.8314 1.67765C51.2394 2.81632 52.0781 4.52565 52.1101 6.32965C52.0781 8.13232 51.2394 9.84165 49.8314 10.9803C48.4554 12.0883 46.7461 12.6737 44.9741 12.6577H44.1994ZM34.4568 51.4217C34.4568 50.5483 35.1661 49.839 36.0394 49.839C36.9128 49.839 37.6221 50.5483 37.6221 51.4217C37.6221 52.295 36.9128 53.003 36.0394 53.003C35.1661 53.003 34.4568 52.295 34.4568 51.4217Z" fill="#9FEF00"/>
</g>
<defs>
<filter id="filter0_d_55_3588" x="-2" y="0" width="72" height="72" filterUnits="userSpaceOnUse" color-interpolation-filters="sRGB">
<feFlood flood-opacity="0" result="BackgroundImageFix"/>
<feColorMatrix in="SourceAlpha" type="matrix" values="0 0 0 0 0 0 0 0 0 0 0 0 0 0 0 0 0 0 127 0" result="hardAlpha"/>
<feOffset dy="4"/>
<feGaussianBlur stdDeviation="2"/>
<feComposite in2="hardAlpha" operator="out"/>
<feColorMatrix type="matrix" values="0 0 0 0 0 0 0 0 0 0 0 0 0 0 0 0 0 0 0.25 0"/>
<feBlend mode="normal" in2="BackgroundImageFix" result="effect1_dropShadow_55_3588"/>
<feBlend mode="normal" in="SourceGraphic" in2="effect1_dropShadow_55_3588" result="shape"/>
</filter>
</defs>
</svg>
