<svg width="72" height="71" viewBox="0 0 72 71" fill="none" xmlns="http://www.w3.org/2000/svg">
<g clip-path="url(#clip0_62_4939)" filter="url(#filter0_d_62_4939)">
<path fill-rule="evenodd" clip-rule="evenodd" d="M49.1811 53.9039C50.5131 53.1426 52.2198 53.6039 52.9891 54.9319C53.7584 56.2599 53.3011 57.9639 51.9678 58.7319C46.7851 61.7159 40.8744 63.1852 34.9091 62.9812C29.4998 62.7972 24.2211 61.2386 19.5691 58.4626C18.2518 57.6732 17.8238 55.9612 18.6131 54.6439C19.4038 53.3266 21.1144 52.8986 22.4331 53.6879C26.2664 55.9906 30.6211 57.2666 35.0984 57.4199C40.0358 57.5879 44.9064 56.3759 49.1811 53.9039ZM59.6638 19.2079C58.9731 17.8319 59.5291 16.1572 60.9051 15.4706C62.2811 14.7839 63.9518 15.3426 64.6358 16.7186C67.0198 21.4772 68.1624 26.7652 67.9811 32.0906C67.8424 36.1506 66.9411 40.1426 65.3104 43.8466C64.6944 45.2546 63.0504 45.8972 61.6424 45.2799C60.2344 44.6639 59.5918 43.0199 60.2091 41.6119C61.5664 38.5532 62.3051 35.2519 62.4184 31.9012C62.5691 27.5066 61.6184 23.1452 59.6638 19.2079ZM24.5478 7.1799C23.1651 7.8399 21.5011 7.25324 20.8331 5.87057C20.1664 4.4879 20.7464 2.82257 22.1291 2.1559C26.7851 -0.0800975 31.9171 -1.15743 37.0904 -0.981431C42.0678 -0.812098 46.9518 0.510569 51.3238 2.90124C52.6744 3.63857 53.1718 5.33324 52.4344 6.6839C51.6971 8.03324 50.0024 8.53057 48.6518 7.79324C45.0438 5.81857 41.0158 4.72124 36.9011 4.5799C32.6318 4.43457 28.3971 5.32124 24.5478 7.1799ZM10.9198 39.3879C11.4091 40.8412 10.6224 42.4186 9.16511 42.9066C7.70778 43.3946 6.12778 42.6039 5.63978 41.1439C4.44111 37.5252 3.88911 33.7199 4.01844 29.9092C4.19044 24.8759 5.54111 19.9386 7.98911 15.5252C8.72644 14.1826 10.4171 13.6972 11.7638 14.4426C13.1104 15.1879 13.5984 16.8826 12.8531 18.2252C10.8358 21.8732 9.72244 25.9412 9.57978 30.0986C9.47311 33.2559 9.92244 36.3892 10.9198 39.3879ZM59.9518 10.7812C59.8984 12.3172 58.6104 13.5199 57.0758 13.4679C55.5411 13.4159 54.3371 12.1266 54.3891 10.5919C54.4411 9.05724 55.7304 7.85324 57.2651 7.90657C58.7998 7.95857 60.0038 9.24657 59.9518 10.7812ZM16.4824 49.3506C16.4304 50.8852 15.1424 52.0892 13.6078 52.0372C12.0718 51.9839 10.8691 50.6959 10.9211 49.1612C10.9731 47.6266 12.2624 46.4226 13.7971 46.4746C15.3318 46.5266 16.5358 47.8159 16.4824 49.3506ZM61.0278 50.8692C61.0798 49.3346 59.8758 48.0466 58.3411 47.9932C56.8064 47.9412 55.5184 49.1452 55.4651 50.6799C55.4131 52.2146 56.6171 53.5039 58.1518 53.5559C59.6864 53.6079 60.9758 52.4039 61.0278 50.8692ZM18.4864 9.3679C18.5384 7.83324 17.3358 6.5439 15.8011 6.4919C14.2651 6.4399 12.9771 7.6439 12.9251 9.17857C12.8718 10.7132 14.0758 12.0012 15.6104 12.0546C17.1464 12.1066 18.4344 10.9026 18.4864 9.3679ZM43.9998 30.9999L37.3331 34.9999L30.6664 38.9999V30.9999V22.9999L37.3331 26.9999L43.9998 30.9999ZM21.9998 30.9999C21.9998 27.2932 23.4798 23.7199 26.1064 21.1066C28.7198 18.4799 32.2931 16.9999 35.9998 16.9999C39.7064 16.9999 43.2798 18.4799 45.8931 21.1066C48.5198 23.7199 49.9998 27.2932 49.9998 30.9999C49.9998 34.7066 48.5198 38.2799 45.8931 40.8932C43.2798 43.5199 39.7064 44.9999 35.9998 44.9999C32.2931 44.9999 28.7198 43.5199 26.1064 40.8932C23.4798 38.2799 21.9998 34.7066 21.9998 30.9999ZM17.9998 30.9999C17.9998 21.0652 26.0651 12.9999 35.9998 12.9999C45.9344 12.9999 53.9998 21.0652 53.9998 30.9999C53.9998 40.9346 45.9344 48.9999 35.9998 48.9999C26.0651 48.9999 17.9998 40.9346 17.9998 30.9999Z" fill="#9FEF00"/>
</g>
<defs>
<filter id="filter0_d_62_4939" x="0" y="0" width="72" height="72" filterUnits="userSpaceOnUse" color-interpolation-filters="sRGB">
<feFlood flood-opacity="0" result="BackgroundImageFix"/>
<feColorMatrix in="SourceAlpha" type="matrix" values="0 0 0 0 0 0 0 0 0 0 0 0 0 0 0 0 0 0 127 0" result="hardAlpha"/>
<feOffset dy="4"/>
<feGaussianBlur stdDeviation="2"/>
<feComposite in2="hardAlpha" operator="out"/>
<feColorMatrix type="matrix" values="0 0 0 0 0 0 0 0 0 0 0 0 0 0 0 0 0 0 0.25 0"/>
<feBlend mode="normal" in2="BackgroundImageFix" result="effect1_dropShadow_62_4939"/>
<feBlend mode="normal" in="SourceGraphic" in2="effect1_dropShadow_62_4939" result="shape"/>
</filter>
<clipPath id="clip0_62_4939">
<rect width="64" height="64" fill="white" transform="translate(4)"/>
</clipPath>
</defs>
</svg>
