<svg width="64" height="64" viewBox="0 0 64 64" fill="none" xmlns="http://www.w3.org/2000/svg">
<path fill-rule="evenodd" clip-rule="evenodd" d="M48.1147 11.5973L41.8387 36.7187C41.1253 39.5747 38.1573 41.8933 35.2133 41.8933H35.12V58.9733C35.12 60.4453 33.9253 61.64 32.4533 61.64C30.9813 61.64 29.7867 60.4453 29.7867 58.9733V41.8933H29.7467C26.8027 41.8933 23.7733 39.5907 22.9853 36.7547L15.9747 11.5267C15.1507 12.1707 14.3613 12.8667 13.6133 13.6133C8.74667 18.4933 6.00001 25.1067 6.00001 32C6.00001 37.2267 7.57334 42.32 10.52 46.64C13.4533 50.96 17.6267 54.2933 22.48 56.2C23.8493 56.7373 24.524 58.288 23.9867 59.66C23.4493 61.032 21.9027 61.704 20.5333 61.16C14.68 58.8533 9.65334 54.84 6.10667 49.64C2.56 44.44 0.666672 38.2933 0.666672 32C0.666672 23.6933 3.97334 15.72 9.84001 9.84C15.72 3.97333 23.6933 0.666664 32 0.666664C40.3067 0.666664 48.28 3.97333 54.16 9.84C60.0267 15.72 63.3333 23.6933 63.3333 32C63.3333 38.04 61.5867 43.96 58.2933 49.0267C55.0133 54.1067 50.3333 58.12 44.8133 60.6C43.4747 61.204 41.8973 60.6027 41.2933 59.26C40.6893 57.9173 41.2933 56.3373 42.64 55.7333C47.2133 53.68 51.0933 50.3467 53.8267 46.1333C56.5467 41.92 58 37.0133 58 32C58 25.1067 55.2533 18.4933 50.3867 13.6133C49.6653 12.8947 48.9067 12.2213 48.1147 11.5973ZM43.36 8.616L37.032 33.9733C36.676 35.4 35.192 36.56 33.72 36.56H31.1333C29.6613 36.56 28.1467 35.408 27.7533 33.9907L20.704 8.58533C24.1947 6.90133 28.052 6 32 6C35.972 6 39.852 6.912 43.36 8.616Z" fill="#9FEF00"/>
</svg>
