<svg width="72" height="72" viewBox="0 0 72 72" fill="none" xmlns="http://www.w3.org/2000/svg">
<g clip-path="url(#clip0_62_4944)" filter="url(#filter0_d_62_4944)">
<path d="M42.2667 13.2C56.1107 13.2 67.3334 24.4227 67.3334 38.2667C67.3334 52.1107 56.1107 63.3333 42.2667 63.3333H38.0894V62.9534V56.5733V19.956V13.5547V13.2H42.2667ZM44.356 19.6053V56.94C53.8667 55.8773 61.0614 47.8373 61.0667 38.2667C61.056 28.7 53.8627 20.668 44.356 19.6053Z" fill="#A4B1CD"/>
<path d="M29.7334 0.666687C15.8894 0.666687 4.66675 11.8894 4.66675 25.7334C4.66675 39.5774 15.8894 50.8 29.7334 50.8H33.9107V50.42V44.04V7.42269V1.02135V0.666687H29.7334ZM27.6441 7.07202V44.4067C18.1334 43.344 10.9387 35.304 10.9334 25.7334C10.9441 16.1667 18.1374 8.13469 27.6441 7.07202Z" fill="#9FEF00"/>
</g>
<defs>
<filter id="filter0_d_62_4944" x="0" y="0" width="72" height="72" filterUnits="userSpaceOnUse" color-interpolation-filters="sRGB">
<feFlood flood-opacity="0" result="BackgroundImageFix"/>
<feColorMatrix in="SourceAlpha" type="matrix" values="0 0 0 0 0 0 0 0 0 0 0 0 0 0 0 0 0 0 127 0" result="hardAlpha"/>
<feOffset dy="4"/>
<feGaussianBlur stdDeviation="2"/>
<feComposite in2="hardAlpha" operator="out"/>
<feColorMatrix type="matrix" values="0 0 0 0 0 0 0 0 0 0 0 0 0 0 0 0 0 0 0.25 0"/>
<feBlend mode="normal" in2="BackgroundImageFix" result="effect1_dropShadow_62_4944"/>
<feBlend mode="normal" in="SourceGraphic" in2="effect1_dropShadow_62_4944" result="shape"/>
</filter>
<clipPath id="clip0_62_4944">
<rect width="64" height="64" fill="white" transform="translate(4)"/>
</clipPath>
</defs>
</svg>
