<svg width="64" height="64" viewBox="0 0 64 64" fill="none" xmlns="http://www.w3.org/2000/svg">
<g clip-path="url(#clip0_2_2000)">
<path fill-rule="evenodd" clip-rule="evenodd" d="M47.924 41.1428V46.2934C47.924 48.8161 45.876 50.8654 43.352 50.8654H7.764C6.08133 50.8654 4.716 49.4988 4.716 47.8174C4.716 46.1348 6.08133 44.7694 7.764 44.7694H40.3053C41.1453 44.7694 41.828 44.0868 41.828 43.2454V20.7548C41.828 19.9134 41.1453 19.2308 40.3053 19.2308H7.61867C6.77867 19.2308 6.09467 19.9134 6.09467 20.7548V37.1054C6.09467 38.7868 4.72933 40.1521 3.048 40.1521C1.36533 40.1521 0 38.7868 0 37.1054V17.7068C0 15.1841 2.048 13.1348 4.572 13.1348H43.352C45.876 13.1348 47.924 15.1841 47.924 17.7068V22.8574L54.0653 16.7161C55.2 15.5814 57.4253 14.6588 59.0307 14.6588H61.0907C62.696 14.6588 64 15.9628 64 17.5681V46.4321C64 48.0374 62.696 49.3414 61.0907 49.3414H59.0307C57.4253 49.3414 55.2 48.4188 54.0653 47.2841L47.924 41.1428ZM47.924 32.5334V31.4668L48.808 30.5828L55.848 23.5428C56.9827 22.4081 57.9053 22.7894 57.9053 24.3948V39.6054C57.9053 41.2108 56.9827 41.5921 55.848 40.4574L48.808 33.4174L47.924 32.5334Z" fill="#9FEF00"/>
</g>
<defs>
<clipPath id="clip0_2_2000">
<rect width="64" height="64" fill="white"/>
</clipPath>
</defs>
</svg>
