<svg width="64" height="64" viewBox="0 0 64 64" fill="none" xmlns="http://www.w3.org/2000/svg">
<path fill-rule="evenodd" clip-rule="evenodd" d="M16.5948 16.6665C15.3361 17.5705 13.5828 17.2851 12.6828 16.0305C11.7841 14.7745 12.0748 13.0225 13.3334 12.1185L29.4201 2.66515C30.7508 1.88248 32.9188 1.87315 34.2561 2.64648L58.4428 16.6105C59.7814 17.3825 60.8668 19.2638 60.8668 20.8078V46.0931C60.8668 47.6371 59.7774 49.5131 58.4361 50.2785L38.6281 61.5811C37.2868 62.3465 35.9321 61.7425 35.6054 60.2331L35.3908 59.2385C35.0641 57.7291 35.8828 55.8731 37.2188 55.0971L55.2694 44.6091V21.2425L32.1681 7.90781L16.5948 16.6665ZM24.2788 53.4665C25.5988 54.2691 26.0254 55.9945 25.2308 57.3145C24.4348 58.6345 22.7174 59.0611 21.3961 58.2665L5.44009 49.3718C4.09209 48.6198 2.99609 46.7558 2.99609 45.2105V25.0291C2.99609 23.4851 4.24943 22.2091 5.79476 22.1825C7.33876 22.1545 8.59343 23.3865 8.59343 24.9318V44.8611L24.2788 53.4665ZM24.0001 24.6665C22.5281 24.6665 21.3334 23.4718 21.3334 21.9998C21.3334 20.5278 22.5281 19.3331 24.0001 19.3331H42.8801C44.3521 19.3331 44.8001 20.2665 43.8814 21.4158L29.5468 39.3331H40.0001C41.4721 39.3331 42.6668 40.5278 42.6668 41.9998C42.6668 43.4718 41.4721 44.6665 40.0001 44.6665H21.1201C19.6481 44.6665 19.2001 43.7331 20.1188 42.5838L34.4534 24.6665H24.0001Z" fill="#9FEF00"/>
</svg>
