<svg width="512" height="512" viewBox="0 0 512 512" fill="none" xmlns="http://www.w3.org/2000/svg">
<path d="M21.3914 173.729H189.935C196.204 173.729 201.377 178.821 201.377 185.211V225.248C201.377 227.944 200.382 230.64 198.691 232.636L101.186 347.457C100.092 348.755 100.987 350.752 102.679 350.752H190.035C196.303 350.752 201.477 355.844 201.477 362.234V398.078C201.477 404.368 196.403 409.56 190.035 409.56H21.3914C15.1232 409.56 9.94946 404.468 9.94946 398.078V354.846C9.94946 352.25 10.8449 349.654 12.5363 347.657L103.077 235.632C104.171 234.334 103.176 232.337 101.485 232.337H21.3914C15.1232 232.337 9.94946 227.245 9.94946 220.855V185.011C10.049 178.821 15.1232 173.729 21.3914 173.729Z" fill="#9FEF00"/>
<path d="M226.45 84.1685H289.928C298.584 84.1685 306.344 89.6599 309.13 97.9469L349.027 215.563C351.017 221.454 359.275 221.454 361.265 215.663L404.048 94.2527C406.137 88.2621 411.908 84.1685 418.276 84.1685H482.748C489.912 84.1685 495.782 90.0593 495.782 97.248V395.482C495.782 403.17 489.614 409.36 481.952 409.36H434.493C426.235 409.36 419.47 402.571 419.47 394.284V267.382C419.47 264.487 417.181 262.19 414.296 262.19H409.918C408.028 262.19 406.237 263.189 405.342 264.886L405.242 265.086C405.143 265.285 405.043 265.485 404.944 265.785C394.497 293.441 384.149 321.198 373.702 348.855C371.712 358.34 363.355 365.03 353.903 364.73C344.849 364.53 336.989 357.941 335.098 348.855L306.444 265.685C306.344 265.385 306.245 265.186 306.145 264.886C305.25 263.189 303.459 262.19 301.568 262.19H294.703C291.818 262.19 289.53 264.487 289.53 267.382L289.132 394.184C289.132 402.671 282.267 409.46 273.809 409.46H230.927C222.271 409.46 215.207 402.371 215.207 393.685V95.4508C215.207 89.2605 220.281 84.1685 226.45 84.1685Z" fill="#9FEF00"/>
</svg>
