<svg xmlns="http://www.w3.org/2000/svg" version="1" width="16" height="16"><g><path d="M6.953 5.539c-.874.447-1.797 1.656-2.796 1.873-1.218.264-3.83-.445-4.002.183-.202.736.608 1.561 1.125 2.235.49.639 1.566 1.235 1.955 1.94.122.221.094.726-.011.956-.179.394-.787.273-.804.705-.022.547 1.136.673 1.581.991.951.68 3.715-.031 5.44.193.783.101 1.71.706 2.408.338.549-.29.561-1.193.792-1.77.636-1.588 2.701-3.071 3.171-4.808.141-.522.241-.733.194-1.809-.018-.405-1.69.111-1.822-.317-.304-.989-.691-4.682-1.69-5.009-.604-.198-1.807 2.5-2.086 2.782-.837.843-2.396.975-3.453 1.516zM.206 7.665c.138-.525 1.394-.003 1.934.141.499.133 1.392.223 1.443.816.05.594-.343 2.97-.375 2.938-.341-.415-.473-.509-.595-.627-.243-.207-.95-.772-1.182-1.049-.127-.203-1.409-1.512-1.223-2.219zm12.343-6.319c-.461-.267-.726.84-.975 1.339-.231.462-.763 1.266-.27 1.736.49.467 2.662 1.803 2.753 1.699-.106-.616-.138-.664-.169-.829-.051-.276-.178-.97-.302-1.501-.046-.195-.404-2.078-1.037-2.444zm-9.163 11.04c-.029.304-.098.492-.323.631-.36.199.907.972 1.476 1.342.667.433 3.266.053 4.799.16.556.018 1.459.494 2.03.461.177-.01.495-.095.615-.225.387-.42.405-1.303.659-1.815.64-1.289 2.477-2.877 2.963-4.232.078-.873.177-2.196-.084-2.221-.306.005-.959.048-1.17-.008.112.488.275 1.302.031 1.949-.096.43-.415.941-.642 1.318-.366.606-1.055 1.263-1.375 1.894-.14.276-.156.397-.277.682-.025.06-.105.34-.142.503-.037.164-.039.403-.016.565l.044.292c-.003.181-.059.253-.185.399-.107.123-.234.142-.393.152-.095.006-.265-.044-.359-.062l-.534-.121c-.279-.052-.595-.203-.87-.275-.258-.067-.417-.207-.88-.223-.444-.015-1.144.017-3.434-.141-.572-.201-.781-.343-1.045-.496-.242-.14-.822-.626-.887-.532zm2.569-1.509c-.129-.042-.153-.014-.199.044-.063.114-.031.235-.004.431.17.245.357.531.635.551.386-.003.559-.149.655-.426.021-.179-.109-.397-.276-.473-.433-.112-.442.188-.539.427-.378-.185-.17-.457-.272-.553z"/><path d="M3.37 10.681c.203.01.507.289.744.35l1.083.033c.328.056.539.907 1.11.967.686.022.975-.533 1.341-.507.197.015.509-.074.711-.006.864.347 1.782 1.259 2.548 2.091.055.136.039.369.031.536-.5-.051-1.334-.383-1.848-.554-.927-.091-2.702-.008-3.784-.174-.421-.122-1.046-.482-1.384-.744-.361-.231-.511-.325-.53-.306.036-.313-.032-.595-.181-.791.055-.278.128-.679.159-.895zm10.043-4.832c.145.037.425.255.653.285.043.235.104.283.287.341.085.371.174.813.165 1.214-.019.835-.411 1.432-.735 1.983-.293.548-.868 1.107-1.197 1.613-.265.383-.503.962-.61 1.44-.037.169-.051.448-.052.597-.132-.064-.137-.085-.25-.236-.303-.642-.532-1.698-.575-2.076-.004-.513-.083-1.344-.011-1.771.484-.716.81-.897 1.528-1.624.081-.101.26-.128.383-.169-.117-.06-.178-.056-.303-.055.047-.104.526-.428.486-.479-.042-.054-.399.208-.634.41.168-.239.455-.537.6-.8l.266-.672zm-2.769-1.33c-.326.003-.442.012-.92.076-.852.417-2.035.616-2.841 1.065-.7.442-1.407 1.193-2.198 1.645-.399.31-.969 1.026-1.1 1.573-.022.492-.134 1.149-.18 1.57.197.215.456.323.751.391.4.075 1.19.037 1.411-.054.412-.222.545-.36.833-.436.286-.008.469.028.696.088.356.165.684.306 1.103.534.719.482 1.933 1.591 2.782 2.439.249-.023.431-.116.521-.208-.226-.648-.317-.932-.495-1.591-.081-.269-.186-.573-.175-.961.004-.635-.038-.845-.013-1.485.154-.428.161-.527.37-.808.75-.669.947-.881 1.389-1.413.253-.343.875-1.146.643-1.219-.758-.445-1.467-.938-1.677-1.105-.255-.079-.574-.105-.9-.102zm.226 2.602c.124-.024.243.03.367.096.084.048.175.147.159.255l-.528.031c-.124.037-.122.199-.159.336-.034.065-.167.128-.255.091-.071-.062.016-.347.059-.471.063-.134.171-.287.358-.338zm-5.372 1.599c.13-.038.317.001.471.074.114.067.381.37.36.499-.065.061-.165.033-.277-.024-.171-.127-.214-.217-.4-.263-.151.026-.188.157-.28.28-.078.002-.126-.009-.199-.082-.034-.172.185-.419.325-.484z"/><path d="M7.775 8.071c.461.033 1.243 1.056 1.818 1.093.2-.409-.412-1.631-.133-2.122l.407-.056c.178-.46.234-1.286.162-1.831-1.257-.228-4.064 1.114-4.541 2.214.178.905 1.461 1.001 2.154 1.174l.132-.472zm-3.719 3.735c.662.049 1.27.546 2.077.714.462.207 1.377-.165 2.396.173.372.099.878.25 1.04.561.004.068-.088.152-.156.158-.382-.091-.53-.271-.724-.308-1.074-.198-2.34.123-3.315-.003-.653-.218-1.043-.441-1.357-.992-.036-.084-.039-.255.039-.304zm9.575-4.61c-.224.36-.254.384-.389 1.157-.235.662-.682.902-1.357 1.896-.144.357-.264.883-.179 1.252.052.044.174.021.22-.03.128-.632.432-1.007.551-1.154.89-.767 1.596-1.177 1.623-2.265.018-.361.019-.427-.003-.677-.115-.231-.278-.215-.465-.18z"/></g><path d="M8 0c-4.416 0-8 3.584-8 8s3.584 8 8 8 8-3.584 8-8-3.584-8-8-8zm-.188 1c2.016-.051 4.044.766 5.469 2.406 2.307 2.656 2.308 6.533 0 9.188l-9.875-9.875c1.276-1.108 2.839-1.679 4.406-1.719zm-5.094 2.406l9.875 9.875c-2.916 2.532-7.343 2.229-9.875-.688-2.304-2.654-2.303-6.533 0-9.188z"/></svg>