<svg width="32" height="32" viewBox="0 0 32 32" fill="none" xmlns="http://www.w3.org/2000/svg">
<path d="M13.68 23.8844H6.09067C4.81956 23.8844 4.59379 23.3298 4.59379 21.9556C4.59379 16.6844 11.7049 16.9778 11.7049 13.4222C11.7049 12.2738 10.8427 11.536 9.5929 11.536C8.44445 11.536 7.68534 12.1316 7.68534 12.6844V13.3209H5.27112V11.8862C5.27112 9.95911 7.81334 9.07556 9.70134 9.07556C12.2453 9.07556 14.4196 10.6756 14.4196 13.3831C14.4196 18.3058 7.38312 18.592 7.38312 21.2391C7.38312 21.5058 7.54667 21.6089 7.93601 21.6089H12.2027C12.2636 21.6153 12.3251 21.6081 12.3828 21.5876C12.4405 21.5672 12.4929 21.5342 12.5362 21.4909C12.5795 21.4476 12.6126 21.3952 12.633 21.3375C12.6534 21.2798 12.6607 21.2182 12.6542 21.1573V20.2684H14.8178L17.264 6.47111L16.4676 2.48889L1.77778 4.816L0.53334 28.0178H13.4365L14.1796 23.8293C14.0155 23.8656 13.848 23.884 13.68 23.8844ZM7.81334 5.31378L10.7609 4.84622C10.9495 4.82424 11.1393 4.876 11.2906 4.99068C11.442 5.10536 11.5431 5.2741 11.573 5.46162C11.6028 5.64914 11.559 5.84093 11.4507 5.99692C11.3425 6.15291 11.1781 6.26103 10.992 6.29867L8.04445 6.76622C7.85185 6.79687 7.65495 6.74975 7.49709 6.63523C7.33923 6.5207 7.23332 6.34816 7.20267 6.15556C7.17203 5.96295 7.21915 5.76606 7.33367 5.60819C7.44819 5.45033 7.62073 5.34442 7.81334 5.31378Z" fill="#666666"/>
<path d="M31.5627 29.6267L30.1902 7.57333L17.264 6.47111L14.8178 20.2756L14.1867 23.8311L13.4436 28.0196L13.1591 29.6196L31.5627 29.6267ZM22.3058 8.21689L25.2836 8.39466C25.3838 8.39497 25.483 8.41577 25.575 8.45579C25.6669 8.4958 25.7497 8.55419 25.8183 8.62736C25.8869 8.70054 25.9398 8.78696 25.9738 8.88131C26.0078 8.97567 26.0221 9.07598 26.0159 9.17607C26.0097 9.27617 25.9831 9.37395 25.9378 9.4634C25.8925 9.55286 25.8293 9.6321 25.7522 9.69627C25.6752 9.76044 25.5858 9.80818 25.4896 9.83657C25.3934 9.86495 25.2925 9.87338 25.1929 9.86133L22.2169 9.68355C22.0305 9.661 21.8598 9.56809 21.7397 9.42382C21.6196 9.27956 21.5591 9.09484 21.5707 8.90747C21.5823 8.7201 21.665 8.54424 21.802 8.41587C21.939 8.28749 22.1198 8.21631 22.3076 8.21689H22.3058ZM17.1058 22.1796L23.1307 12.9938H26.2951V21.6089H28.5298V23.8844H26.2951V27.5556H23.6071V23.8844H17.1058V22.1796Z" fill="#75C044"/>
<path d="M21.1875 21.6089H23.6498V17.568C23.6498 16.8569 23.7529 15.9893 23.7529 15.9893H23.712C23.712 15.9893 23.3031 16.768 22.9333 17.3013L20.656 20.6649C20.2667 21.2196 19.9182 21.6284 19.9182 21.6284V21.6693C19.9182 21.6693 20.5102 21.6089 21.1875 21.6089Z" fill="#75C044"/>
</svg>
