<svg width="32" height="32" viewBox="0 0 32 32" fill="none" xmlns="http://www.w3.org/2000/svg">
<path d="M16 32C24.8366 32 32 24.8366 32 16C32 7.16345 24.8366 0 16 0C7.16344 0 0 7.16345 0 16C0 24.8366 7.16344 32 16 32Z" fill="#59A52C"/>
<path d="M24.0648 16.3086C24.2557 17.7679 23.8192 19.5409 22.6467 21.5321C19.6738 26.6872 12.1732 27.246 7.16797 24.5731L8.35423 19.3906H10.25C13.264 22.991 16.7552 20.5074 17.178 18.9404C17.478 17.8237 16.7963 16.7446 15.6233 16.3086H14.3543C13.6069 16.0552 12.7968 16.0552 12.0494 16.3086H13.3041C12.5518 16.5772 11.8612 16.9946 11.2738 17.536H9.5546L9.82722 16.3086H8.55824L10.9855 5.63062H25.0876L23.9557 10.6633H16.3323L15.9912 12.15C20.0824 12.15 22.4828 13.7184 22.8096 16.3096H24.0643L24.0648 16.3086Z" fill="white"/>
</svg>
