<svg width="32" height="32" viewBox="0 0 32 32" fill="none" xmlns="http://www.w3.org/2000/svg">
    <g clip-path="url(#clip0_644_100)">
        <path fill-rule="evenodd" clip-rule="evenodd"
            d="M-0.071167 -0.071167C10.5955 -0.071167 21.2622 -0.071167 31.9288 -0.071167C31.9288 10.5955 31.9288 21.2622 31.9288 31.9288C21.2622 31.9288 10.5955 31.9288 -0.071167 31.9288C-0.071167 21.2622 -0.071167 10.5955 -0.071167 -0.071167Z"
            fill="#0A59FF" />
        <path fill-rule="evenodd" clip-rule="evenodd"
            d="M13.2978 6.32886C14.9571 6.32886 16.6162 6.32886 18.2755 6.32886C20.6508 12.9294 23.0686 19.5191 25.5289 26.0977C24.1098 26.2398 22.6876 26.2872 21.2622 26.24C20.8459 24.8489 20.3718 23.474 19.84 22.1155C17.092 21.9733 14.3424 21.9259 11.5911 21.9733C11.16 23.385 10.686 24.7836 10.1689 26.1689C8.79488 26.24 7.42006 26.2636 6.04443 26.24C8.40592 19.5821 10.8237 12.9451 13.2978 6.32886Z"
            fill="#FDFDFF" />
        <path fill-rule="evenodd" clip-rule="evenodd"
            d="M15.7155 10.4534C16.7169 13.1252 17.6651 15.8274 18.56 18.56C16.6613 18.6074 14.7651 18.5599 12.8711 18.4178C13.8483 15.7705 14.7965 13.1156 15.7155 10.4534Z"
            fill="#155BFF" />
    </g>
    <defs>
        <clipPath id="clip0_644_100">
            <rect width="32" height="32" fill="white" />
        </clipPath>
    </defs>
</svg>