<svg width="32" height="32" viewBox="0 0 32 32" fill="none" xmlns="http://www.w3.org/2000/svg">
    <mask id="mask0_489_76" style="mask-type:luminance" maskUnits="userSpaceOnUse" x="0" y="0"
        width="32" height="32">
        <path d="M32 0H0V32H32V0Z" fill="white" />
    </mask>
    <g mask="url(#mask0_489_76)">
        <path fill-rule="evenodd" clip-rule="evenodd"
            d="M0.0300562 15.9756L0.00219727 15.9918V19.661C0.00219727 19.8884 0.0439856 20.2293 0.0857738 20.4241C0.155422 20.83 0.322575 21.2846 0.489728 21.6093C0.629023 21.869 0.68474 21.934 0.824036 22.1451C0.865822 22.21 0.921539 22.2587 0.963331 22.3236L1.6598 22.9893C1.68766 23.0218 1.71552 23.0218 1.75731 23.0542L2.06376 23.2653C2.46771 23.5088 2.89952 23.8498 3.30347 24.0933L4.44569 24.8726C4.48748 24.8889 4.51534 24.9051 4.5432 24.9376L6.04755 25.9442C6.34011 26.1227 6.63262 26.35 6.93907 26.5449L7.32909 26.8046C7.39872 26.8533 7.4684 26.9021 7.53803 26.9345L9.52994 28.282C9.62746 28.2333 9.69708 28.1684 9.7946 28.1035C9.85034 28.071 9.87818 28.0548 9.93391 28.0223L12.3715 26.3662C12.4134 26.3338 12.4552 26.3013 12.4969 26.2851L13.5973 25.5383C13.6809 25.4896 13.7784 25.3922 13.8759 25.3596C13.862 25.3109 13.8481 25.3109 13.7924 25.2785C13.458 25.0674 13.1516 24.8402 12.8173 24.6128L11.5218 23.7524C11.2572 23.5738 11.0065 23.3952 10.7557 23.2328L9.78066 22.5672C9.69708 22.5185 9.6414 22.486 9.55778 22.421L9.25138 22.21C9.20954 22.1775 9.16775 22.1613 9.13991 22.1451L6.64656 20.4565C6.46547 20.3267 6.27043 20.213 6.08939 20.0832L5.28146 19.5474C4.94715 19.3201 4.61285 19.0603 4.26461 18.8492C4.22282 18.8168 4.18103 18.8005 4.15317 18.7681L3.34527 18.2323C3.34527 18.2323 3.33134 18.2323 3.33134 18.2161L3.28955 18.1836C3.20597 18.1349 3.13632 18.1024 3.06668 18.0375C3.02489 18.005 2.99703 17.9888 2.95524 17.9726L1.74338 17.1445C1.72945 17.1445 1.72945 17.1445 1.72945 17.1445L0.0857738 16.0405C0.0857738 16.0405 0.0579153 16.0243 0.0579153 16.008C0.0300562 15.9918 0.0579153 16.008 0.0300562 15.9756Z"
            fill="#8EC6FF" />
        <path fill-rule="evenodd" clip-rule="evenodd"
            d="M31.9568 16.0242L31.9985 15.9917C31.9985 15.0338 31.9985 14.0598 31.9985 13.0856V13.0694V12.907C31.9985 12.4686 31.9846 12.0628 31.9289 11.7056C31.8313 11.2023 31.6781 10.699 31.4274 10.2606C31.4274 10.2444 31.4135 10.2282 31.3995 10.2119L31.1628 9.83851C31.1488 9.80606 31.121 9.77361 31.0931 9.7411C30.8145 9.40017 30.5638 9.1729 30.2295 8.92932L29.2266 8.26372C29.1848 8.23121 29.1708 8.21502 29.1291 8.19876L28.6276 7.85783C28.5579 7.80913 28.5022 7.76042 28.4326 7.72791L26.6357 6.5265C26.566 6.4778 26.5103 6.4291 26.4407 6.38038L25.1591 5.51991L22.4568 3.70154C22.3733 3.76648 22.2758 3.83142 22.1922 3.89637L21.649 4.25354C21.4679 4.38343 21.2728 4.49708 21.1057 4.62696C21.0499 4.65943 21.0221 4.67566 20.9664 4.70814L19.9496 5.40626C19.9217 5.42249 19.9078 5.42249 19.8799 5.43873L19.0302 6.00697C19.0302 6.0232 19.0302 6.0232 19.0302 6.0232C18.877 6.12062 18.1526 6.59146 18.1108 6.65636C18.1805 6.67262 18.2501 6.75377 18.3198 6.80247L19.4063 7.5331C19.476 7.5818 19.5456 7.6305 19.6152 7.67921L19.7267 7.74417L20.2699 8.11754C20.3117 8.1338 20.3396 8.15006 20.3814 8.1825L21.3007 8.79946C21.3007 8.79946 21.3007 8.81572 21.3146 8.81572L23.2926 10.147C23.3344 10.1795 23.3623 10.1957 23.404 10.2282C23.4458 10.2444 23.4737 10.2606 23.5155 10.2931L23.9473 10.5854C23.9891 10.6178 24.0169 10.6341 24.0587 10.6665C24.0866 10.6828 24.1284 10.7152 24.1701 10.7315L24.2677 10.7964C24.4766 10.9425 24.6995 11.1049 24.9224 11.251L25.2428 11.4621C25.2845 11.4783 25.3124 11.4946 25.3542 11.527L26.2178 12.1115C26.2596 12.144 26.2874 12.1602 26.3153 12.1927L26.97 12.631C27.151 12.7447 27.3461 12.8583 27.5132 12.9882L27.7779 13.1668C27.8057 13.183 27.8197 13.1993 27.8336 13.1993C27.945 13.2804 28.0565 13.3616 28.1679 13.4265C28.1958 13.4428 28.2375 13.4752 28.2654 13.5078C28.3072 13.5239 28.3351 13.5402 28.3768 13.5726L29.3519 14.2383C29.5609 14.3844 29.7976 14.5143 30.0066 14.6605L30.6474 15.0988C30.6892 15.1313 30.717 15.1475 30.7588 15.18L30.9677 15.3261C31.0792 15.4073 31.8871 15.9593 31.9568 15.9755V16.0242Z"
            fill="#8EC6FF" />
        <path fill-rule="evenodd" clip-rule="evenodd"
            d="M31.9979 15.9918L31.9561 16.0243L30.9253 16.6899C30.8836 16.7224 30.8836 16.7224 30.8418 16.7549L30.5353 16.9497C30.4796 16.9984 30.4379 17.0309 30.3682 17.0634L29.421 17.7128C29.3931 17.729 29.3652 17.7452 29.3374 17.7615L29.1006 17.9239C29.0727 17.94 29.0588 17.9563 29.0309 17.9726L27.039 19.3201C27.0112 19.3363 26.9973 19.3363 26.9694 19.3688C26.9276 19.385 26.9137 19.4013 26.8858 19.4175C26.8301 19.4662 26.7883 19.4824 26.7326 19.5311L24.0303 21.3333C24.0164 21.3495 24.0164 21.3495 24.0024 21.3658C24.0024 21.3658 24.0024 21.3658 23.9885 21.3658C23.5288 21.6904 23.0552 21.9827 22.5956 22.3074L21.8016 22.8431C21.7458 22.8919 21.704 22.9081 21.6483 22.9568L20.7569 23.5575C20.7569 23.5575 20.7429 23.5575 20.729 23.5575L19.8236 24.1745C19.8097 24.1907 19.7957 24.1907 19.7818 24.2069C19.7679 24.2069 19.7539 24.2232 19.74 24.2394L17.0377 26.0578C16.6755 26.2851 16.2855 26.5935 15.9372 26.8046C15.6447 26.9832 15.2826 27.2592 14.9901 27.4378C14.9204 27.4865 14.8786 27.519 14.8229 27.5514L13.4857 28.4606C13.2628 28.5905 13.0539 28.7528 12.8449 28.8828C12.8032 28.899 12.7892 28.9152 12.7614 28.9477C12.7056 28.9802 12.6499 29.0126 12.5942 29.0451L11.9674 29.4835C11.8977 29.5159 11.856 29.5484 11.8002 29.5809C11.7445 29.6296 11.6888 29.6458 11.647 29.7107L13.2489 30.7823C13.3185 30.8147 13.3603 30.8634 13.43 30.8959C13.7642 31.107 14.0707 31.3505 14.4189 31.5616C14.5722 31.6428 14.7393 31.7402 14.9065 31.8051C15.0876 31.8538 15.2826 31.935 15.4776 31.9675L15.8676 31.9999H15.8816H16.1183C16.2576 31.9999 16.4108 31.9837 16.5363 31.9512C16.773 31.9025 17.0237 31.8376 17.2466 31.7239L17.4973 31.5941C17.8177 31.4155 18.0963 31.2044 18.4028 31.0096L19.0157 30.5875C19.2525 30.4251 19.5032 30.279 19.74 30.1166C19.7679 30.0842 19.7957 30.0679 19.8236 30.0517L20.1022 29.8731C20.1301 29.8407 20.1579 29.8407 20.1857 29.8081L23.4035 27.6488C23.4592 27.6001 23.5149 27.5677 23.5845 27.5352L24.476 26.9345C24.5875 26.8533 24.7128 26.7722 24.8242 26.691C24.88 26.6585 24.9357 26.6098 25.0053 26.5773C25.1864 26.4637 25.3536 26.3338 25.5347 26.2201C25.9386 25.9766 26.3147 25.6844 26.7047 25.4408L28.1255 24.4667C28.1673 24.4504 28.1813 24.4343 28.2231 24.418L28.5713 24.1745C28.9474 23.8984 29.3513 23.6549 29.7274 23.3951C29.7692 23.3627 29.7971 23.3627 29.8249 23.3303C30.0617 23.1841 30.41 22.9893 30.6189 22.7783C30.6468 22.7457 30.6607 22.7457 30.6886 22.7133C30.7582 22.6483 30.7861 22.5996 30.8418 22.5509L31.19 22.145C31.204 22.1126 31.2318 22.0801 31.2457 22.0476C31.3711 21.8528 31.4965 21.658 31.58 21.4469C31.6775 21.2196 31.7751 20.9923 31.8307 20.7488C31.8586 20.6676 31.8725 20.5864 31.9004 20.489C31.9562 20.2617 31.984 19.937 31.9979 19.5961V18.6382C31.9979 17.7452 31.9979 16.8686 31.9979 15.9918Z"
            fill="#0C7FF2" />
        <path fill-rule="evenodd" clip-rule="evenodd"
            d="M0.00219727 15.9919L0.0300562 15.9757C0.113633 15.9432 0.392222 15.7484 0.503657 15.6672C0.559375 15.6347 0.601162 15.6022 0.656879 15.5698C0.712601 15.5211 0.754388 15.5048 0.824036 15.4561L2.56522 14.2872C2.62093 14.2385 2.66272 14.2222 2.71844 14.1735C3.06668 13.9624 3.47063 13.654 3.8328 13.4267L4.78 12.7935C4.82179 12.761 4.82179 12.761 4.86357 12.7286L5.72721 12.1441C5.78294 12.1116 5.83862 12.0792 5.89435 12.0467L7.39872 11.0239C7.42661 11.0076 7.44051 10.9914 7.48229 10.9752L8.49917 10.277C8.54096 10.2608 8.5549 10.2445 8.58274 10.2283C8.63848 10.1796 8.69415 10.1471 8.74989 10.1147C8.90314 10.001 9.05634 9.90362 9.22349 9.80621L10.8811 8.68595C10.9089 8.65351 10.9229 8.63725 10.9647 8.62099L13.0959 7.17606C13.1237 7.15981 13.1516 7.14355 13.1795 7.12736L13.4998 6.91629C13.5555 6.88384 13.5973 6.85133 13.6531 6.80262L13.7366 6.75392C13.7645 6.73773 13.7784 6.72147 13.8202 6.70522L15.3943 5.63369C15.7564 5.40639 16.1464 5.13039 16.5086 4.88686C16.5364 4.87062 16.5643 4.85439 16.5922 4.83816C16.8847 4.64333 17.1633 4.43227 17.4697 4.23745C17.9433 3.9452 18.5701 3.47438 19.0577 3.16591L19.6427 2.77626C19.6566 2.77626 19.6566 2.76002 19.6706 2.76002L19.6845 2.74378C19.7959 2.67884 20.2417 2.3379 20.3253 2.32166C20.3113 2.24049 20.2278 2.20802 20.172 2.17555L19.9074 1.99695C19.8795 1.98072 19.8656 1.96449 19.8238 1.94825C19.587 1.78589 19.3502 1.62354 19.1134 1.46119L18.9323 1.34754C18.8627 1.29884 18.8209 1.26636 18.7512 1.21766C18.6816 1.18518 18.6398 1.15272 18.5701 1.10401C18.5145 1.0553 18.4587 1.02283 18.403 0.990362L18.1244 0.81177C17.7762 0.584475 17.5115 0.357179 17.0936 0.194825C16.9265 0.129884 16.7175 0.081177 16.5364 0.0324709C16.4111 0.0162354 16.2857 0 16.1604 0H16.1325C15.8957 0 15.7007 0 15.4778 0.0324709C15.436 0.0324709 15.3943 0.0487062 15.3525 0.0649414C15.2828 0.081177 15.1853 0.0974125 15.1156 0.113648C14.9067 0.194825 14.6978 0.276002 14.5027 0.38965L14.0431 0.681888C14.0152 0.698125 13.9874 0.714355 13.9595 0.746829C13.8898 0.779302 13.8481 0.81177 13.7784 0.86048C13.7227 0.892947 13.667 0.941651 13.5973 0.974125L12.887 1.46119C12.8591 1.47742 12.8312 1.49366 12.8033 1.50989C12.5666 1.67225 12.3297 1.85084 12.093 1.99695L11.8144 2.17555C11.8005 2.19178 11.7865 2.19178 11.7726 2.20802L11.4661 2.41908C11.4243 2.43532 11.4104 2.45155 11.3686 2.46778L10.7418 2.88991C10.714 2.92237 10.7 2.93861 10.6582 2.95485L8.69415 4.26991C8.65237 4.30239 8.63848 4.31862 8.59669 4.33485L8.06736 4.69204C7.76091 4.88686 7.4684 5.11416 7.17584 5.29275C6.86939 5.48757 6.57688 5.69863 6.28438 5.89346L6.00577 6.07205C5.97793 6.10452 5.95009 6.12076 5.92219 6.13699L2.17519 8.6535C2.10554 8.70221 2.04983 8.73466 1.99411 8.76711C1.92446 8.81581 1.86875 8.84832 1.7991 8.89703C1.53444 9.07559 1.29763 9.28666 1.07477 9.51398C0.93547 9.6601 0.712601 9.96858 0.615092 10.1471C0.475799 10.3907 0.378292 10.618 0.266857 10.8778C0.252927 10.9265 0.238998 10.9589 0.225069 11.0076L0.0997034 11.4947C0.0857738 11.5434 0.0718443 11.5759 0.0718443 11.6246C0.0579153 11.657 0.0579153 11.7057 0.0439856 11.7707C0.0161267 11.9168 0.0161267 12.0792 0.00219727 12.2577V13.3617C0.00219727 14.2385 0.00219727 15.1152 0.00219727 15.9919Z"
            fill="#0C7FF2" />
        <path fill-rule="evenodd" clip-rule="evenodd"
            d="M16.0067 18.7519C15.5471 18.7519 15.1431 18.6057 14.7809 18.3622C14.7531 18.346 14.7252 18.3297 14.6974 18.2973L14.5999 18.2161C14.4188 18.0537 14.2377 17.8914 14.0984 17.6641C13.973 17.4368 13.8755 17.2906 13.792 17.0309C13.7641 16.9497 13.7362 16.8685 13.7223 16.7711C13.6109 16.3327 13.6248 16.2353 13.6248 15.7645C13.6248 15.6509 13.6527 15.5697 13.6666 15.4723C13.6666 15.4236 13.6805 15.4074 13.6805 15.3424C13.6944 15.2774 13.7083 15.2774 13.7223 15.2125C13.7501 15.0826 13.8198 14.8716 13.8755 14.7417C13.9173 14.6767 13.9452 14.6118 13.987 14.5306L14.4327 13.9137C14.572 13.7838 14.5859 13.7676 14.7531 13.6377L15.0456 13.4591C15.171 13.3942 15.3242 13.3455 15.4635 13.2968C15.5888 13.2643 15.8813 13.2318 16.0206 13.2318C16.1321 13.2318 16.1878 13.2481 16.2853 13.2481C16.3828 13.2643 16.4525 13.2805 16.536 13.2968C16.6057 13.3292 16.6753 13.3455 16.745 13.3779C16.8285 13.4104 16.8843 13.4266 16.954 13.4591C17.2604 13.6053 17.5529 13.8812 17.7758 14.1734C17.7897 14.206 17.8176 14.2221 17.8454 14.2547L18.1797 14.9041C18.1797 14.9041 18.1797 14.9041 18.1797 14.9203C18.2633 15.1476 18.3747 15.5859 18.3747 15.8133C18.3747 16.1055 18.3608 16.4464 18.2912 16.7062C18.2494 16.8685 18.1937 17.0634 18.1379 17.1932C18.0822 17.3069 17.9708 17.518 17.915 17.6154C17.7618 17.8264 17.8594 17.7128 17.6504 17.9725L17.33 18.2648C17.2882 18.2973 17.2882 18.3135 17.2465 18.346C16.8703 18.5895 16.4942 18.7519 16.0067 18.7519ZM11.605 14.6767C11.02 14.6767 10.421 14.6767 9.82204 14.6767C9.54348 14.6767 9.33449 14.7254 9.12556 14.9041C8.93058 15.0502 8.83305 15.2287 8.69375 15.4561L7.87191 16.6899C7.67693 16.9822 7.41226 17.3069 7.34258 17.6478C7.27296 17.9563 7.2869 18.2323 7.38437 18.5245C7.49583 18.8006 7.67693 19.0278 7.9137 19.174C8.15052 19.3201 8.31767 19.3201 8.58234 19.3201C8.63807 19.3201 8.65196 19.3039 8.69375 19.3039C9.09772 19.2065 9.36239 18.8006 9.59916 18.4434L10.2956 17.3718C10.3374 17.3231 10.3374 17.3231 10.421 17.3231C10.811 17.3231 11.215 17.3231 11.605 17.3231C11.6607 17.5991 11.7443 17.8589 11.8557 18.1187C11.9393 18.3622 12.0508 18.622 12.1761 18.833L12.4686 19.3039C12.4826 19.3363 12.4965 19.3526 12.5244 19.385C12.5244 19.385 12.5383 19.4013 12.5522 19.4175C12.6079 19.4987 12.4965 19.3526 12.5522 19.4337C12.6637 19.5636 12.7333 19.6773 12.8587 19.8072L13.0537 20.002C13.0955 20.0507 13.1233 20.0669 13.1651 20.1157C13.193 20.1481 13.2069 20.1481 13.2347 20.1805L13.3601 20.2942C13.4019 20.3267 13.4019 20.3105 13.4437 20.3429L13.8755 20.6514C14.1123 20.8138 14.363 20.9436 14.6277 21.0248L14.9063 21.106C14.9481 21.1222 14.9341 21.1222 14.9899 21.1384C15.0317 21.1384 15.0456 21.1547 15.0874 21.1547L15.3939 21.2197C15.7839 21.2845 16.2017 21.2684 16.5918 21.2197C16.6196 21.2197 16.6614 21.2034 16.6893 21.2034C16.7311 21.2034 16.7589 21.2034 16.7868 21.1871L17.4414 20.9923C17.7758 20.8625 18.1101 20.7001 18.4026 20.4728C18.4862 20.3916 18.5837 20.3267 18.6673 20.2455L18.9598 19.9857C19.113 19.8234 19.2662 19.6448 19.4055 19.4662L19.8931 18.6707C19.9209 18.622 19.9487 18.5733 19.9766 18.5083L20.2691 17.7452C20.2831 17.6803 20.297 17.6154 20.3249 17.5342C20.3388 17.4693 20.3667 17.4043 20.3667 17.3231C20.6592 17.3231 22.4421 17.3394 22.6371 17.3069C22.7346 17.2744 22.8182 17.2582 22.9018 17.2095C23.0829 17.0958 23.2082 16.966 23.3336 16.7711C23.3615 16.7549 23.3754 16.7224 23.3893 16.6899L23.9465 15.8781C24.0719 15.6671 24.2112 15.4723 24.3505 15.2613L24.6848 14.7417L24.8101 14.4657C24.9076 14.1897 24.9076 13.865 24.838 13.589C24.8241 13.5403 24.838 13.589 24.8241 13.5565C24.8241 13.5403 24.8241 13.5403 24.8241 13.5403L24.8101 13.524L24.7405 13.3292C24.6012 13.0532 24.3783 12.8422 24.1276 12.7285C24.0301 12.6961 23.9326 12.6798 23.8211 12.6636C23.5983 12.6473 23.4172 12.6798 23.2222 12.8097C22.9993 12.9396 22.8879 13.1019 22.7346 13.3292L22.5814 13.5727C22.5118 13.654 21.9128 14.5469 21.8571 14.6767H20.3667C20.3667 14.5144 20.2552 14.206 20.1995 14.0436C20.1716 13.9786 20.1577 13.8975 20.1298 13.8325L20.0463 13.654C19.9487 13.3942 19.8234 13.1669 19.6841 12.9396L19.3637 12.4687C19.2244 12.2577 19.0294 12.0953 18.8762 11.9167C18.8483 11.8843 18.8344 11.8843 18.8066 11.8518C18.7648 11.8193 18.7648 11.8193 18.7369 11.7869C18.709 11.7706 18.6951 11.7544 18.6673 11.7381C18.4026 11.5109 18.124 11.3323 17.8315 11.1699L17.3021 10.9264C16.94 10.7802 16.3689 10.7153 15.9789 10.7153C15.5192 10.7153 15.1431 10.7965 14.7113 10.9264C14.572 10.9751 14.3074 11.0725 14.182 11.1537L13.4019 11.6732C13.3602 11.7057 13.3044 11.7381 13.2626 11.7869L12.9004 12.144C12.9004 12.144 12.9004 12.144 12.8865 12.144L12.8169 12.2415C12.789 12.2739 12.7751 12.2739 12.7473 12.3064C12.4547 12.6473 12.1204 13.2156 11.9533 13.6377C11.8418 13.8975 11.7443 14.1734 11.6607 14.4495C11.6468 14.5306 11.619 14.6118 11.605 14.6767Z"
            fill="#FFCE00" />
    </g>
</svg>