<svg width="32" height="32" viewBox="0 0 33 33" fill="none" xmlns="http://www.w3.org/2000/svg">
    <path fill-rule="evenodd" clip-rule="evenodd"
        d="M15.25 0.5C16.3333 0.5 17.4167 0.5 18.5 0.5C20.1685 1.07329 21.4602 2.25847 22.375 4.05556C25.8735 13.4838 29.2485 22.9653 32.5 32.5C29.3333 32.5 26.1667 32.5 23 32.5C22.7169 30.3966 21.8836 28.6683 20.5 27.3148C18.1879 25.9736 15.8545 24.6896 13.5 23.463C11.8765 22.1311 11.2515 20.3039 11.625 17.9815C12.6121 13.7464 14.9038 12.1168 18.5 13.0926C21.6489 15.0753 22.4822 17.9889 21 21.8333C20.1886 21.3773 19.3969 20.8834 18.625 20.3519C19.0934 18.5983 18.7184 17.1662 17.5 16.0556C14.9027 15.774 13.9444 17.1074 14.625 20.0556C14.8333 20.3025 15.0417 20.5494 15.25 20.7963C17.9404 22.0451 20.5238 23.5266 23 25.2407C23.8881 26.3092 24.5548 27.5438 25 28.9444C25.9862 29.238 26.9863 29.3368 28 29.2407C25.7155 21.8602 23.2571 14.5516 20.625 7.31481C19.2093 4.05544 17.1677 3.31471 14.5 5.09259C13.7847 5.95007 13.1597 6.88836 12.625 7.90741C9.80795 14.7821 7.2663 21.7944 5 28.9444C5.98972 29.2881 6.98972 29.3375 8 29.0926C8.83845 26.9641 10.0051 25.137 11.5 23.6111C12.2996 24.3114 13.133 24.9534 14 25.537C12.0802 27.3762 10.8302 29.6972 10.25 32.5C7 32.5 3.75 32.5 0.5 32.5C0.5 32.4013 0.5 32.3024 0.5 32.2037C3.55328 22.9874 6.92828 13.901 10.625 4.94444C11.773 2.83886 13.3146 1.35738 15.25 0.5Z"
        fill="#16A1C4" />
</svg>