<svg width="32" height="32" viewBox="0 0 32 32" fill="none" xmlns="http://www.w3.org/2000/svg">
    <g clip-path="url(#clip0_498_65)">
        <path fill-rule="evenodd" clip-rule="evenodd"
            d="M-0.0799561 -0.0799561C10.5867 -0.0799561 21.2533 -0.0799561 31.92 -0.0799561C31.92 10.5867 31.92 21.2533 31.92 31.92C21.2533 31.92 10.5867 31.92 -0.0799561 31.92C-0.0799561 21.2533 -0.0799561 10.5867 -0.0799561 -0.0799561Z"
            fill="#FEFEFE" />
        <path fill-rule="evenodd" clip-rule="evenodd"
            d="M16.72 1.67995C16.6018 1.65899 16.4951 1.68566 16.4 1.75995C18.9452 5.02314 21.4517 8.30314 23.9201 11.6C18.2026 12.9461 12.496 14.3327 6.80005 15.76C6.80005 15.7066 6.80005 15.6533 6.80005 15.6C9.78672 10.8533 12.7734 6.10662 15.76 1.35995C15.7977 1.26447 15.8777 1.21114 16 1.19995C16.2666 1.33562 16.5066 1.49562 16.72 1.67995Z"
            fill="#EA9447" />
        <path fill-rule="evenodd" clip-rule="evenodd"
            d="M15.76 1.35999C12.7734 6.10666 9.78672 10.8533 6.80004 15.6C6.60008 15.5876 6.46675 15.4809 6.40004 15.28C5.64785 12.8892 4.8212 10.5425 3.92004 8.23999C7.78304 5.82019 11.7297 3.52685 15.76 1.35999Z"
            fill="#F1BC8E" />
        <path fill-rule="evenodd" clip-rule="evenodd"
            d="M16.72 1.68001C20.405 3.73504 24.0317 5.86838 27.6 8.08001C27.621 8.19824 27.5943 8.30491 27.52 8.40001C26.3418 9.44528 25.1952 10.512 24.08 11.6C24.0267 11.6 23.9733 11.6 23.92 11.6C21.4517 8.3032 18.9451 5.0232 16.4 1.76001C16.4951 1.68573 16.6018 1.65905 16.72 1.68001Z"
            fill="#E6812A" />
        <path fill-rule="evenodd" clip-rule="evenodd"
            d="M27.6 8.07996C27.6532 8.07996 27.7067 8.07996 27.76 8.07996C27.7867 12.5603 27.76 17.0403 27.68 21.52C26.5233 18.1942 25.3233 14.8875 24.08 11.6C25.1952 10.5119 26.3417 9.44522 27.52 8.39996C27.5942 8.30485 27.6209 8.19818 27.6 8.07996Z"
            fill="#E67E25" />
        <path fill-rule="evenodd" clip-rule="evenodd"
            d="M3.92004 8.23999C4.8212 10.5425 5.64785 12.8892 6.40004 15.28C6.46675 15.481 6.60008 15.5876 6.80004 15.6C6.80004 15.6533 6.80004 15.7067 6.80004 15.76C6.66593 15.8147 6.61259 15.9213 6.64004 16.08C5.76307 17.9661 4.85641 19.8328 3.92004 21.68C3.92004 17.2 3.92004 12.72 3.92004 8.23999Z"
            fill="#EB9E5B" />
        <path fill-rule="evenodd" clip-rule="evenodd"
            d="M23.9201 11.6C22.64 15.3868 21.36 19.1734 20.08 22.96C20.0268 22.96 19.9733 22.96 19.92 22.96C15.902 20.7638 11.8486 18.6038 7.76005 16.48C7.4005 16.2757 7.0805 16.0357 6.80005 15.76C12.496 14.3328 18.2026 12.9461 23.9201 11.6Z"
            fill="#E77F28" />
        <path fill-rule="evenodd" clip-rule="evenodd"
            d="M27.76 8.07996C27.8667 10.3727 27.92 12.6927 27.92 15.04C27.9198 17.4158 27.8132 19.7358 27.6 22C25.0912 22.3068 22.5844 22.6268 20.08 22.96C21.36 19.1734 22.64 15.3867 23.92 11.6C23.9732 11.6 24.0267 11.6 24.08 11.6C25.3233 14.8875 26.5233 18.1942 27.68 21.52C27.76 17.0403 27.7867 12.5603 27.76 8.07996Z"
            fill="#E98F42" />
        <path fill-rule="evenodd" clip-rule="evenodd"
            d="M6.64004 16.08C9.62867 20.0532 12.562 24.08 15.44 28.16C15.2935 28.2044 15.1868 28.2844 15.12 28.4C11.5511 26.3484 7.97776 24.2952 4.40004 22.24C4.14998 22.1185 3.98998 21.9318 3.92004 21.68C4.85641 19.8328 5.76307 17.966 6.64004 16.08Z"
            fill="#E7832F" />
        <path fill-rule="evenodd" clip-rule="evenodd"
            d="M6.80005 15.76C7.0805 16.0357 7.4005 16.2757 7.76005 16.48C11.8486 18.6038 15.902 20.7638 19.9201 22.96C18.6537 24.7994 17.4269 26.6659 16.2401 28.56C15.8597 28.7475 15.4864 28.6942 15.1201 28.4C15.1869 28.2845 15.2935 28.2045 15.4401 28.16C12.562 24.08 9.62868 20.0533 6.64005 16.08C6.6126 15.9214 6.66594 15.8147 6.80005 15.76Z"
            fill="#E78838" />
        <path fill-rule="evenodd" clip-rule="evenodd"
            d="M27.6 22C23.8555 24.2493 20.0688 26.436 16.24 28.56C17.4269 26.6659 18.6536 24.7994 19.92 22.96C19.9733 22.96 20.0267 22.96 20.08 22.96C22.5845 22.6269 25.0912 22.3069 27.6 22Z"
            fill="#EA9448" />
    </g>
    <defs>
        <clipPath id="clip0_498_65">
            <rect width="32" height="32" fill="white" />
        </clipPath>
    </defs>
</svg>