<svg width="32" height="32" viewBox="0 0 33 33" fill="none" xmlns="http://www.w3.org/2000/svg">
    <path fill-rule="evenodd" clip-rule="evenodd"
        d="M0.5 0.5C11.1667 0.5 21.8333 0.5 32.5 0.5C32.5 11.1667 32.5 21.8333 32.5 32.5C21.8333 32.5 11.1667 32.5 0.5 32.5C0.5 21.8333 0.5 11.1667 0.5 0.5Z"
        fill="#2554B5" />
    <path fill-rule="evenodd" clip-rule="evenodd"
        d="M13.1667 5.83341C15.1548 5.56971 16.9326 6.01415 18.5 7.16675C19.8484 6.05124 21.404 5.60679 23.1667 5.83341C23.0558 11.3934 23.1669 16.9489 23.5 22.5001C24.7168 23.8198 25.2724 25.3753 25.1667 27.1667C22.3599 27.6921 20.5822 26.581 19.8334 23.8334C15.0939 28.6916 11.205 28.0249 8.16671 21.8334C6.43306 15.2965 8.09971 9.96321 13.1667 5.83341Z"
        fill="#F3F5FB" />
    <path fill-rule="evenodd" clip-rule="evenodd"
        d="M13.1667 5.83341C15.1548 5.56971 16.9326 6.01415 18.5 7.16675C19.8484 6.05124 21.404 5.60679 23.1667 5.83341C23.0558 11.3934 23.1669 16.9489 23.5 22.5001C24.7168 23.8198 25.2724 25.3753 25.1667 27.1667C22.3599 27.6921 20.5822 26.581 19.8334 23.8334C15.0939 28.6916 11.205 28.0249 8.16671 21.8334C6.43306 15.2965 8.09971 9.96321 13.1667 5.83341Z"
        fill="#F3F5FB" />
    <path fill-rule="evenodd" clip-rule="evenodd"
        d="M15.1667 8.49999C16.4782 8.34039 17.7004 8.56259 18.8334 9.16665C19.2779 13.1667 19.2779 17.1667 18.8334 21.1667C17.3701 24.0814 15.3701 24.5259 12.8334 22.5C10.9453 17.3284 11.723 12.6617 15.1667 8.49999Z"
        fill="#2F59B8" />
</svg>