<svg width="32" height="32" viewBox="0 0 32 33" fill="none" xmlns="http://www.w3.org/2000/svg">
    <mask id="mask0_866_381" style="mask-type:luminance" maskUnits="userSpaceOnUse" x="0" y="0"
        width="32" height="33">
        <path d="M32 0.664062H0V32.6641H32V0.664062Z" fill="white" />
    </mask>
    <g mask="url(#mask0_866_381)">
        <path
            d="M21.6459 24.109L25.0568 30.4724H19.6959L17.1215 25.6697C16.9682 25.3849 16.8874 25.0614 16.8874 24.7321C16.8874 24.4028 16.9682 24.0793 17.1215 23.7944L20.1367 18.1682C20.2889 17.8838 20.5079 17.6476 20.7716 17.4828C21.0352 17.3181 21.3344 17.2308 21.6392 17.2297H26.8148L29.4944 22.2301H22.6493C22.4463 22.2329 22.2474 22.2926 22.0724 22.4034C21.8973 22.5142 21.752 22.6722 21.651 22.862C21.5498 23.0516 21.4963 23.2664 21.4957 23.485C21.4952 23.7037 21.5475 23.9188 21.6476 24.109H21.6459ZM14.9511 25.6697L12.3767 30.4724H7.01244L10.425 24.109C10.5251 23.9188 10.5774 23.7037 10.5768 23.485C10.5762 23.2664 10.5228 23.0516 10.4216 22.862C10.3205 22.6722 10.1753 22.5142 10.0002 22.4034C9.82515 22.2926 9.62628 22.2329 9.42323 22.2301H2.57814L5.25943 17.2297H10.435C10.7398 17.231 11.0389 17.3184 11.3026 17.483C11.5662 17.6477 11.7852 17.884 11.9376 18.1682L14.9527 23.7944C15.1061 24.0793 15.1868 24.4028 15.1868 24.7321C15.1868 25.0614 15.1061 25.3849 14.9527 25.6697H14.9511ZM11.6137 5.21869L15.0345 11.6018C15.1377 11.7908 15.285 11.9476 15.4617 12.0565C15.6385 12.1654 15.8385 12.2227 16.0422 12.2227C16.2457 12.2227 16.4458 12.1654 16.6226 12.0565C16.7992 11.9476 16.9466 11.7908 17.0497 11.6018L20.4606 5.23846L23.1418 10.2389L20.5657 15.0414C20.4134 15.3257 20.1944 15.5617 19.9307 15.7261C19.667 15.8905 19.3679 15.9774 19.0632 15.9782H13.0312C12.7264 15.9777 12.4271 15.8908 12.1634 15.7264C11.8997 15.562 11.6808 15.3257 11.5285 15.0414L8.9324 10.2191L11.6137 5.21869ZM30.9803 20.4752L22.5358 4.72602C21.88 3.48505 20.9292 2.45462 19.7809 1.74073C18.6328 1.02684 17.3286 0.655258 16.0029 0.664221C14.6769 0.6555 13.3727 1.02716 12.2243 1.74102C11.0759 2.45486 10.1246 3.48515 9.46832 4.72602L1.02548 20.4752C0.355545 21.7078 0.00244142 23.1105 0.00244141 24.5388C0.00244141 25.9672 0.355545 27.3697 1.02548 28.6024C1.68205 29.8434 2.63357 30.8738 3.78229 31.5877C4.93101 32.3014 6.23551 32.673 7.56172 32.6642H24.4457C25.7717 32.6729 27.0759 32.3013 28.2243 31.5874C29.3728 30.8736 30.324 29.8433 30.9803 28.6024C31.6494 27.3694 32.002 25.9669 32.002 24.5388C32.002 23.1106 31.6494 21.7082 30.9803 20.4752Z"
            fill="#E30C5A" />
    </g>
</svg>