<svg width="32" height="32" viewBox="0 0 32 32" fill="none" xmlns="http://www.w3.org/2000/svg">
    <path fill-rule="evenodd" clip-rule="evenodd"
        d="M0 0C10.6667 0 21.3334 0 32 0C32 10.6667 32 21.3334 32 32C21.3334 32 10.6667 32 0 32C0 21.3334 0 10.6667 0 0Z"
        fill="#040503" />
    <path
        d="M11.8359 12.8316L6.15405 6.40002H9.48511L25.4538 24.5069C25.6049 24.6851 25.7034 24.9004 25.7387 25.1294C25.7739 25.3583 25.7446 25.5924 25.6538 25.8063C25.5631 26.0201 25.4144 26.2057 25.2237 26.3428C25.0331 26.48 24.8078 26.5636 24.5721 26.5846C24.4054 26.5809 24.2412 26.5438 24.0895 26.4758C23.9379 26.4077 23.8021 26.3101 23.6904 26.1889L11.8359 12.8316Z"
        fill="#FAFAFA" />
    <path d="M26.0571 6.89233V10.5355L22.7261 6.89233H26.0571Z" fill="#05FF0F" />
    <path d="M9.27393 23.5298H5.94287V26.7897H9.27393V23.5298Z" fill="#FAFAFA" />
</svg>