<svg width="32" height="32" viewBox="0 0 33 33" fill="none" xmlns="http://www.w3.org/2000/svg">
    <path fill-rule="evenodd" clip-rule="evenodd"
        d="M8.18981 0.0925746C11.4777 -0.316016 14.2833 0.835729 16.6065 3.54781C20.2084 -0.413174 24.183 -0.989046 28.5301 1.82019C32.2455 5.13213 33.4379 9.43746 32.1072 14.7362C30.8281 18.376 28.5603 20.652 25.3037 21.5644C19.7427 21.8296 14.1783 21.8844 8.61065 21.7289C4.37425 20.7634 1.73235 17.8293 0.684948 12.9263C0.235194 6.24211 2.73682 1.96421 8.18981 0.0925746Z"
        fill="#43ACCD" />
    <path fill-rule="evenodd" clip-rule="evenodd"
        d="M8.7509 5.52225C12.6578 5.36045 14.5048 7.55426 14.2919 12.1036C13.4797 15.1171 11.7262 16.5156 9.03146 16.2993C6.10658 15.2778 4.86745 13.0018 5.3141 9.47109C5.89078 7.45076 7.03638 6.13449 8.7509 5.52225Z"
        fill="#FCFDFD" />
    <path fill-rule="evenodd" clip-rule="evenodd"
        d="M22.3579 5.52224C26.2648 5.36054 28.1118 7.55433 27.8989 12.1036C27.084 15.1183 25.3305 16.5168 22.6384 16.2993C19.7215 15.3005 18.4823 13.0244 18.9211 9.47108C19.4941 7.4551 20.6398 6.13882 22.3579 5.52224Z"
        fill="#FCFDFD" />
    <path fill-rule="evenodd" clip-rule="evenodd"
        d="M9.17179 8.64843C11.2803 8.57108 12.0519 9.72282 11.4864 12.1037C10.5142 13.509 9.43875 13.6187 8.25998 12.4327C7.42172 10.7821 7.72566 9.52064 9.17179 8.64843Z"
        fill="#0E0737" />
    <path fill-rule="evenodd" clip-rule="evenodd"
        d="M22.7787 8.64844C25.1162 8.67127 25.8408 9.93271 24.953 12.4327C23.6062 13.6869 22.484 13.4675 21.5864 11.7746C21.3052 10.3515 21.7028 9.30939 22.7787 8.64844Z"
        fill="#0E0737" />
    <path fill-rule="evenodd" clip-rule="evenodd"
        d="M13.801 24.1147C12.4917 24.1147 11.1824 24.1147 9.87318 24.1147C9.87318 24.334 9.87318 24.5535 9.87318 24.7728C9.73976 24.5394 9.69299 24.2653 9.7329 23.9502C11.1143 23.8964 12.4703 23.9512 13.801 24.1147Z"
        fill="#C5C4CD" />
    <path fill-rule="evenodd" clip-rule="evenodd"
        d="M19.412 24.1147C20.7427 23.9512 22.0986 23.8964 23.4801 23.9502C23.5225 24.3712 23.4756 24.7552 23.3398 25.1019C23.3398 24.7728 23.3398 24.4438 23.3398 24.1147C22.0306 24.1147 20.7213 24.1147 19.412 24.1147Z"
        fill="#C9C8D0" />
    <path fill-rule="evenodd" clip-rule="evenodd"
        d="M13.8009 24.1146C14.2808 27.1376 15.7305 28.0974 18.1496 26.994C18.8863 26.2254 19.3071 25.2657 19.4121 24.1146C20.7213 24.1146 22.0306 24.1146 23.3398 24.1146C23.3398 24.4437 23.3398 24.7728 23.3398 25.1018C22.624 29.4513 20.3796 31.7548 16.6065 32.0123C12.7045 31.7133 10.4601 29.3001 9.87317 24.7728C9.87317 24.5534 9.87317 24.3339 9.87317 24.1146C11.1824 24.1146 12.4917 24.1146 13.8009 24.1146Z"
        fill="#0E0537" />
</svg>