<svg width="32" height="32" viewBox="0 0 32 32" fill="none" xmlns="http://www.w3.org/2000/svg">
    <g clip-path="url(#clip0_874_125)">
        <path opacity="0.996" fill-rule="evenodd" clip-rule="evenodd"
            d="M13.6774 0.583496C13.6209 2.66871 13.6782 4.72426 13.8494 6.75016C13.8685 6.85306 13.9258 6.9364 14.0215 7.00016C16.5714 6.77286 18.9799 7.2173 21.2473 8.3335C21.6189 8.5555 21.963 8.8055 22.2796 9.0835C23.0414 9.94891 23.6721 10.8934 24.172 11.9168C24.6273 13.8314 24.7993 15.7758 24.6882 17.7502C24.6297 19.8717 23.9415 21.7605 22.6236 23.4168C20.5541 25.2707 18.0881 26.104 15.2258 25.9168C13.0395 26.12 11.0323 25.6478 9.20429 24.5002C8.73796 24.0622 8.33654 23.59 7.99999 23.0835C7.58048 22.1807 7.29373 21.2363 7.13977 20.2502C7.13977 16.9723 7.13977 13.6946 7.13977 10.4168C7.13977 7.13905 7.13977 3.86128 7.13977 0.583496C7.21767 0.423768 7.33237 0.284879 7.48386 0.166829C9.43367 0.0557183 11.3835 0.0557183 13.3333 0.166829C13.4848 0.284879 13.5995 0.423768 13.6774 0.583496Z"
            fill="#FEFEFE" />
        <path fill-rule="evenodd" clip-rule="evenodd"
            d="M13.6774 0.583496C13.8382 0.761436 13.8955 0.983658 13.8495 1.25016C18.1769 0.742438 22.0764 1.74243 25.5484 4.25016C25.5551 4.4307 25.6126 4.59736 25.7204 4.75016C21.8225 4.91678 17.9228 4.97233 14.0215 4.91683C13.8307 5.17386 13.7733 5.78498 13.8495 6.75016C13.6782 4.72426 13.6209 2.66871 13.6774 0.583496Z"
            fill="#75C9F1" />
        <path fill-rule="evenodd" clip-rule="evenodd"
            d="M25.5484 4.25C26.1218 4.77742 26.724 5.27742 27.3548 5.75C28.1442 6.56047 28.8036 7.44937 29.3333 8.41667C29.3481 8.58265 29.2907 8.72153 29.1613 8.83333C26.8377 8.8615 24.5437 8.94483 22.2796 9.08333C21.963 8.80533 21.6189 8.55533 21.2473 8.33333C18.98 7.21713 16.5714 6.7727 14.0215 7C13.9259 6.93623 13.8685 6.8529 13.8495 6.75C13.7733 5.78482 13.8307 5.1737 14.0215 4.91667C17.9228 4.97217 21.8225 4.91662 25.7204 4.75C25.6126 4.5972 25.5551 4.43053 25.5484 4.25Z"
            fill="#65C2EC" />
        <path fill-rule="evenodd" clip-rule="evenodd"
            d="M7.13974 0.583496C7.13974 3.86128 7.13974 7.13905 7.13974 10.4168C6.97171 9.95235 6.91437 9.45235 6.9677 8.91683C5.53402 8.91683 4.10031 8.91683 2.66663 8.91683C2.66663 8.69461 2.66663 8.47238 2.66663 8.25016C3.74071 6.51486 5.14573 5.07041 6.88168 3.91683C6.91122 2.77583 6.99724 1.66472 7.13974 0.583496Z"
            fill="#5FB9E2" />
        <path fill-rule="evenodd" clip-rule="evenodd"
            d="M29.3333 8.4165C29.9702 9.20589 30.4289 10.0948 30.7096 11.0832C30.685 11.3769 30.7425 11.6547 30.8817 11.9165C28.5691 12.1252 26.3325 12.1252 24.172 11.9165C23.6721 10.893 23.0413 9.94859 22.2795 9.08317C24.5436 8.94467 26.8376 8.86134 29.1613 8.83317C29.2906 8.72137 29.3481 8.58249 29.3333 8.4165Z"
            fill="#4DB3E0" />
        <path fill-rule="evenodd" clip-rule="evenodd"
            d="M2.66663 8.25C2.66663 8.47222 2.66663 8.69445 2.66663 8.91667C4.10031 8.91667 5.53402 8.91667 6.9677 8.91667C6.91437 9.45218 6.97171 9.95218 7.13975 10.4167C7.13975 13.6945 7.13975 16.9722 7.13975 20.25C6.96915 19.0587 6.91179 17.8365 6.9677 16.5833C6.9677 15.6945 6.9677 14.8056 6.9677 13.9167C4.86069 13.863 2.76751 13.9186 0.688133 14.0833C0.602893 13.7546 0.57422 13.4212 0.602112 13.0833C0.890771 11.2969 1.57894 9.68582 2.66663 8.25Z"
            fill="#46AEDC" />
        <path fill-rule="evenodd" clip-rule="evenodd"
            d="M17.9785 18.0833C18.0078 17.863 17.9505 17.6685 17.8065 17.5C16.4697 17.5191 15.1794 17.3803 13.9355 17.0833C13.8496 18.3598 13.8209 19.6376 13.8495 20.9166C13.6495 17.7785 13.6209 14.6118 13.7635 11.4166C15.0658 10.8252 16.2127 11.0475 17.2044 12.0833C17.6369 12.7542 17.9237 13.4764 18.0646 14.25C18.206 15.5574 18.1774 16.8351 17.9785 18.0833Z"
            fill="#35A4D4" />
        <path fill-rule="evenodd" clip-rule="evenodd"
            d="M0.6021 13.0835C0.574208 13.4214 0.602881 13.7547 0.688121 14.0835C2.7675 13.9187 4.86068 13.8632 6.96769 13.9168C6.96769 14.8057 6.96769 15.6946 6.96769 16.5835C6.80229 16.8777 6.74495 17.211 6.79565 17.5835C4.60788 17.5343 2.42868 17.5898 0.258014 17.7502C0.0337478 16.1553 0.148443 14.5998 0.6021 13.0835Z"
            fill="#34A1D1" />
        <path fill-rule="evenodd" clip-rule="evenodd"
            d="M30.7096 11.0835C31.0733 11.8657 31.3027 12.6991 31.3978 13.5835C31.3978 14.9168 31.3978 16.2502 31.3978 17.5835C29.276 17.5835 27.154 17.5835 25.0322 17.5835C25.0608 16.8592 25.032 16.1369 24.9462 15.4168C24.9163 16.2254 24.8302 17.0032 24.6881 17.7502C24.7993 15.7758 24.6272 13.8314 24.172 11.9168C26.3325 12.1255 28.5691 12.1255 30.8817 11.9168C30.7425 11.655 30.685 11.3772 30.7096 11.0835Z"
            fill="#34A2D3" />
        <path fill-rule="evenodd" clip-rule="evenodd"
            d="M17.9785 18.0835C18.091 19.3995 17.6896 20.5383 16.7742 21.5002C16.0497 21.7558 15.3042 21.8113 14.5376 21.6668C14.1504 21.5422 13.921 21.2922 13.8495 20.9168C13.8208 19.6378 13.8495 18.36 13.9355 17.0835C15.1793 17.3805 16.4697 17.5193 17.8065 17.5002C17.9505 17.6687 18.0078 17.8632 17.9785 18.0835Z"
            fill="#2797CB" />
        <path fill-rule="evenodd" clip-rule="evenodd"
            d="M6.96773 16.5835C6.91182 17.8367 6.96918 19.0588 7.13978 20.2502C7.29374 21.2363 7.58048 22.1807 7.99999 23.0835C5.99282 23.1947 3.98566 23.3057 1.97849 23.4168C0.958511 21.6728 0.385035 19.784 0.258057 17.7502C2.42872 17.5898 4.60792 17.5343 6.79569 17.5835C6.74499 17.211 6.80233 16.8777 6.96773 16.5835Z"
            fill="#2092C6" />
        <path fill-rule="evenodd" clip-rule="evenodd"
            d="M31.3979 13.5835C32.1659 17.098 31.6497 20.4313 29.8495 23.5835C27.4749 23.1953 25.0663 23.1398 22.6237 23.4168C23.9415 21.7605 24.6297 19.8717 24.6882 17.7502C24.8303 17.0032 24.9163 16.2254 24.9462 15.4168C25.0321 16.1369 25.0608 16.8592 25.0323 17.5835C27.1541 17.5835 29.276 17.5835 31.3979 17.5835C31.3979 16.2502 31.3979 14.9168 31.3979 13.5835Z"
            fill="#2492C6" />
        <path fill-rule="evenodd" clip-rule="evenodd"
            d="M8.00002 23.0835C8.33657 23.59 8.738 24.0622 9.20432 24.5002C11.0324 25.6478 13.0395 26.12 15.2258 25.9168C18.0881 26.104 20.5542 25.2707 22.6237 23.4168C25.0663 23.1398 27.4749 23.1953 29.8495 23.5835C29.147 25.1533 28.1148 26.4867 26.7527 27.5835C26.7752 27.4603 26.7465 27.3492 26.6667 27.2502C19.5371 27.3052 12.4546 27.4718 5.41938 27.7502C3.93953 26.5475 2.79257 25.1032 1.97852 23.4168C3.98569 23.3057 5.99285 23.1947 8.00002 23.0835Z"
            fill="#1487BE" />
        <path fill-rule="evenodd" clip-rule="evenodd"
            d="M26.7526 27.5833C25.9649 28.4102 25.0472 29.0768 24 29.5833C18.6666 29.3612 13.3333 29.3612 7.99996 29.5833C6.99388 29.1642 6.13367 28.553 5.41931 27.75C12.4545 27.4717 19.537 27.305 26.6666 27.25C26.7465 27.349 26.7752 27.4602 26.7526 27.5833Z"
            fill="#097FB9" />
        <path fill-rule="evenodd" clip-rule="evenodd"
            d="M24 29.5831C19.2186 32.1781 14.2866 32.4281 9.2043 30.3331C8.73313 30.1621 8.3317 29.9121 8 29.5831C13.3333 29.361 18.6667 29.361 24 29.5831Z"
            fill="#0F79B1" />
    </g>
    <defs>
        <clipPath id="clip0_874_125">
            <rect width="32" height="32" fill="white" />
        </clipPath>
    </defs>
</svg>