<svg width="32" height="32" viewBox="0 0 32 32" fill="none" xmlns="http://www.w3.org/2000/svg">
<path d="M3.34222 31.8571V0.213379H16.281C18.2734 0.213379 19.9493 0.400904 21.3088 0.775941C22.6917 1.15098 23.7934 1.69009 24.6138 2.39329C25.4342 3.07304 26.0202 3.91687 26.3718 4.92478C26.7234 5.93269 26.8992 7.06952 26.8992 8.33527C26.8992 9.88229 26.5241 11.1363 25.7741 12.0974C25.0474 13.0584 24.0161 13.7616 22.68 14.2069C24.6724 14.7226 26.1726 15.7071 27.1805 17.1603C28.2118 18.5902 28.7275 20.4302 28.7275 22.6804C28.7275 23.9462 28.5048 25.1416 28.0595 26.2667C27.6141 27.3684 26.9343 28.3411 26.0202 29.185C25.1295 30.0053 23.981 30.6617 22.5746 31.1539C21.1682 31.6227 19.5039 31.8571 17.5819 31.8571H3.34222ZM15.6481 5.13574H9.07324V12.6951H15.6481C17.4295 12.6951 18.7422 12.3552 19.586 11.6754C20.4533 10.9957 20.8869 10.105 20.8869 9.00331C20.8869 7.761 20.4767 6.81169 19.6563 6.15538C18.8359 5.47562 17.4998 5.13574 15.6481 5.13574ZM15.6481 17.2307H9.07324V26.6183H16.0348C18.3554 26.6183 20.0196 26.2667 21.0275 25.5635C22.0589 24.8369 22.5746 23.536 22.5746 21.6608C22.5746 20.3247 22.0472 19.2582 20.9924 18.4613C19.9376 17.6409 18.1562 17.2307 15.6481 17.2307Z" fill="#5415DA"/>
</svg>
