<svg width="32" height="32" viewBox="0 0 33 33" fill="none" xmlns="http://www.w3.org/2000/svg">
    <path opacity="0.902" fill-rule="evenodd" clip-rule="evenodd"
        d="M6.96465 0.5C7.39564 0.5 7.82658 0.5 8.25758 0.5C8.04586 3.02198 8.26139 5.52198 8.90404 8C11.6195 6.6165 14.4208 5.53315 17.3081 4.75C22.5072 6.9813 27.5712 9.39795 32.5 12C32.4889 13.9877 32.3811 15.9877 32.1768 18C29.9099 16.873 27.5395 15.873 25.0657 15C22.1743 13.7976 19.3729 12.4642 16.6616 11C15.1037 11.9358 13.3798 12.6025 11.4899 13C8.53989 8.8898 7.46242 9.3898 8.25758 14.5C8.25758 15 8.25758 15.5 8.25758 16C5.74594 16.7025 3.16008 17.2025 0.5 17.5C0.5 12.8334 0.5 8.16665 0.5 3.5C2.67797 2.4927 4.83286 1.4927 6.96465 0.5Z"
        fill="#2773AC" />
    <path opacity="0.467" fill-rule="evenodd" clip-rule="evenodd"
        d="M11.4899 13C10.7404 13.8752 9.66298 14.3752 8.25756 14.5C7.46241 9.38983 8.53987 8.88983 11.4899 13Z"
        fill="#153D5D" />
    <path opacity="0.784" fill-rule="evenodd" clip-rule="evenodd"
        d="M16.6616 15.5001C17.0926 15.5001 17.3081 15.6667 17.3081 16.0001C17.529 16.4192 17.9599 16.5859 18.601 16.5001C18.8219 16.9192 19.2529 17.0859 19.8939 17.0001C21.6001 17.9046 23.0008 19.0713 24.0959 20.5001C24.4921 21.4977 24.1689 22.331 23.1262 23.0001C21.4228 22.5133 20.1299 21.68 19.2474 20.5001C19.2474 20.0001 19.2474 19.5001 19.2474 19.0001C19.2474 18.6667 19.032 18.5001 18.601 18.5001C18.601 18.1667 18.3855 18.0001 17.9545 18.0001C17.7391 18.0001 17.5235 18.0001 17.3081 18.0001C17.3081 17.6667 17.0926 17.5001 16.6616 17.5001C16.4407 17.081 16.0097 16.9143 15.3687 17.0001C14.6517 17.0285 14.0053 17.1952 13.4293 17.5001C11.9472 17.6283 10.5466 17.4616 9.22725 17.0001C9.1209 14.7617 10.5216 14.0117 13.4293 14.7501C14.4511 15.1033 15.4208 15.52 16.3384 16.0001C16.5962 15.8859 16.7039 15.7192 16.6616 15.5001Z"
        fill="#82BB31" />
    <path opacity="0.626" fill-rule="evenodd" clip-rule="evenodd"
        d="M19.8939 17C19.673 16.5809 19.242 16.4142 18.601 16.5C18.3801 16.0809 17.9491 15.9142 17.3081 16C17.3081 15.6666 17.0926 15.5 16.6616 15.5C18.2106 14.2448 19.719 14.4115 21.1869 16C20.9571 16.5111 20.5261 16.8445 19.8939 17Z"
        fill="#2978B7" />
    <path opacity="0.671" fill-rule="evenodd" clip-rule="evenodd"
        d="M15.3687 17C15.5896 17.4191 16.0206 17.5858 16.6616 17.5C17.0926 17.5 17.3081 17.6666 17.3081 18C17.5236 18 17.7391 18 17.9546 18C18.3856 18 18.601 18.1666 18.601 18.5C19.032 18.5 19.2475 18.6666 19.2475 19C19.2475 19.5 19.2475 20 19.2475 20.5C18.6631 20.8545 18.4476 21.3545 18.601 22C17.3308 22.3145 16.0379 22.6479 14.7222 23C14.0758 22.8334 13.4293 22.6666 12.7828 22.5C12.3439 21.4561 12.1284 20.456 12.1364 19.5C12.867 18.9388 13.298 18.2721 13.4293 17.5C14.0053 17.1951 14.6518 17.0284 15.3687 17Z"
        fill="#E9AF1E" />
    <path fill-rule="evenodd" clip-rule="evenodd"
        d="M8.25758 16C8.46238 18.1008 8.24684 20.1008 7.61111 22C5.14402 21.2953 2.77365 20.462 0.5 19.5C0.5 18.8334 0.5 18.1666 0.5 17.5C3.16008 17.2025 5.74594 16.7025 8.25758 16Z"
        fill="#1E5784" />
    <path fill-rule="evenodd" clip-rule="evenodd"
        d="M25.0657 15C27.5395 15.873 29.9099 16.873 32.1768 18C32.1768 18.3334 32.1768 18.6666 32.1768 19C29.8792 19.8044 27.5089 20.4711 25.0657 21C25.0657 19 25.0657 17 25.0657 15Z"
        fill="#1D5580" />
    <path opacity="0.917" fill-rule="evenodd" clip-rule="evenodd"
        d="M32.1768 19C32.284 21.3393 32.1763 23.6726 31.8536 26C29.6631 27.1138 27.4004 28.1138 25.0657 29C25.0657 26.8333 25.0657 24.6667 25.0657 22.5C25.0657 22 25.0657 21.5 25.0657 21C27.5089 20.4711 29.8792 19.8044 32.1768 19Z"
        fill="#2979B5" />
    <path opacity="0.898" fill-rule="evenodd" clip-rule="evenodd"
        d="M0.5 19.5C2.77365 20.462 5.14402 21.2953 7.61111 22C9.23335 22.7107 10.7418 23.544 12.1364 24.5C11.6774 25.6963 11.2464 26.9463 10.8434 28.25C12.7317 28.06 14.4556 27.4767 16.0152 26.5C16.7294 25.9498 17.5914 25.6164 18.601 25.5C20.406 26.7802 22.3454 27.9468 24.4192 29C22.0171 30.473 19.3235 31.6398 16.3384 32.5C11.1879 30.1334 5.9085 27.9667 0.5 26C0.5 23.8333 0.5 21.6667 0.5 19.5Z"
        fill="#2876B0" />
    <path fill-rule="evenodd" clip-rule="evenodd"
        d="M25.0657 22.5C25.0657 24.6667 25.0657 26.8333 25.0657 29C24.8502 29 24.6347 29 24.4192 29C22.3454 27.9468 20.406 26.7802 18.601 25.5C19.9956 24.544 21.504 23.7107 23.1263 23C23.8432 22.9716 24.4897 22.8049 25.0657 22.5Z"
        fill="#1D547E" />
    <path opacity="0.5" fill-rule="evenodd" clip-rule="evenodd"
        d="M12.1364 24.5C13.9251 24.6851 15.2181 25.3518 16.0152 26.5C14.4556 27.4767 12.7317 28.06 10.8434 28.25C11.2464 26.9463 11.6774 25.6963 12.1364 24.5Z"
        fill="#164163" />
</svg>