<svg width="32" height="32" viewBox="0 0 33 33" fill="none" xmlns="http://www.w3.org/2000/svg">
    <path fill-rule="evenodd" clip-rule="evenodd"
        d="M0.5 0.5C11.1667 0.5 21.8333 0.5 32.5 0.5C32.5 11.1667 32.5 21.8333 32.5 32.5C21.8333 32.5 11.1667 32.5 0.5 32.5C0.5 21.8333 0.5 11.1667 0.5 0.5Z"
        fill="#FEFEFE" />
    <path fill-rule="evenodd" clip-rule="evenodd"
        d="M18.1356 3.91336C15.0355 4.80726 11.9066 5.6606 8.7489 6.47336C9.34945 5.32032 9.98945 4.18254 10.6689 3.06002C11.8946 1.74562 13.3405 1.43748 15.0067 2.13558C16.0304 2.76585 17.0735 3.35845 18.1356 3.91336Z"
        fill="#63D9FE" />
    <path fill-rule="evenodd" clip-rule="evenodd"
        d="M26.5267 8.74895C27.3031 11.9316 28.1089 15.1078 28.9444 18.2778C29.4052 19.5905 29.737 20.9417 29.94 22.3312C29.908 23.8776 29.1969 24.968 27.8067 25.6023C26.5574 25.9614 25.3247 26.3169 24.1089 26.6689C20.9008 27.4589 17.7244 28.3122 14.58 29.2289C13.239 29.5777 11.8879 29.8621 10.5267 30.0823C9.11121 30.086 8.06825 29.4697 7.39777 28.2334C7.01539 26.8449 6.61242 25.47 6.18888 24.1089C5.40652 21.1008 4.6006 18.1141 3.7711 15.1489C3.50681 13.8583 3.19866 12.5783 2.84666 11.3089C2.66728 9.58903 3.35469 8.33272 4.90888 7.54006C6.18821 7.16112 7.46821 6.80557 8.74888 6.47339C11.9066 5.66063 15.0355 4.8073 18.1355 3.91339C19.4416 3.54579 20.7689 3.26135 22.1178 3.06006C23.5172 3.10773 24.5839 3.72402 25.3178 4.90895C25.6597 6.22291 26.0626 7.50291 26.5267 8.74895Z"
        fill="#03698F" />
    <path fill-rule="evenodd" clip-rule="evenodd"
        d="M26.5267 8.7489C27.6131 9.38725 28.7035 10.0273 29.7978 10.6689C31.2054 11.8572 31.5609 13.3031 30.8645 15.0067C30.2439 16.1211 29.6039 17.2116 28.9445 18.2778C28.1089 15.1078 27.3031 11.9316 26.5267 8.7489Z"
        fill="#62D9FE" />
    <path fill-rule="evenodd" clip-rule="evenodd"
        d="M15.2911 9.88672C17.4734 9.72242 18.4925 10.718 18.3489 12.8734C17.6853 14.3545 16.5713 14.8523 15.0067 14.3667C13.6963 13.4751 13.3882 12.3136 14.0822 10.8823C14.4294 10.4622 14.8325 10.1304 15.2911 9.88672Z"
        fill="#FAFCFD" />
    <path fill-rule="evenodd" clip-rule="evenodd"
        d="M10.8822 10.5978C12.4258 10.6003 13.0658 11.3588 12.8022 12.8733C12.3362 13.671 11.6487 13.9318 10.74 13.6556C9.4012 12.5907 9.4486 11.5715 10.8822 10.5978Z"
        fill="#F8FAFB" />
    <path fill-rule="evenodd" clip-rule="evenodd"
        d="M20.2689 10.5978C21.8049 10.5934 22.4449 11.3519 22.1889 12.8734C21.7228 13.671 21.0355 13.9318 20.1267 13.6556C19.3289 13.1895 19.0683 12.5021 19.3444 11.5934C19.5854 11.1869 19.8936 10.8551 20.2689 10.5978Z"
        fill="#F9FBFC" />
    <path fill-rule="evenodd" clip-rule="evenodd"
        d="M9.74443 14.58C10.5504 14.58 11.3563 14.58 12.1622 14.58C12.1385 15.7661 12.1623 16.9512 12.2333 18.1355C12.4566 18.2939 12.6462 18.4835 12.8022 18.7044C12.8732 19.4139 12.8969 20.1251 12.8733 20.8377C12.1148 20.8377 11.3563 20.8377 10.5978 20.8377C10.6214 19.7463 10.5977 18.6559 10.5267 17.5666C10.3345 17.3506 10.1211 17.161 9.88666 16.9977C9.74509 16.1973 9.69767 15.3915 9.74443 14.58Z"
        fill="#FAFBFC" />
    <path fill-rule="evenodd" clip-rule="evenodd"
        d="M19.9844 14.58C20.7904 14.58 21.5963 14.58 22.4022 14.58C22.449 15.3915 22.4015 16.1973 22.26 16.9977C22.0255 17.161 21.8121 17.3506 21.62 17.5666C21.5489 18.6559 21.5253 19.7463 21.5489 20.8377C20.7429 20.8377 19.9371 20.8377 19.1311 20.8377C19.1075 20.1251 19.1313 19.4139 19.2022 18.7044C19.4393 18.4673 19.6763 18.2304 19.9133 17.9933C19.9844 16.8565 20.0081 15.7187 19.9844 14.58Z"
        fill="#F6F9FA" />
    <path fill-rule="evenodd" clip-rule="evenodd"
        d="M3.7711 15.1489C4.6006 18.1141 5.40652 21.1008 6.18888 24.1089C4.85212 23.4287 3.59582 22.6227 2.41999 21.6911C1.59572 20.538 1.4535 19.3054 1.99333 17.9934C2.55387 17.0122 3.14646 16.064 3.7711 15.1489Z"
        fill="#63D9FD" />
    <path fill-rule="evenodd" clip-rule="evenodd"
        d="M19.1311 17.7089C19.1311 16.9504 19.1311 16.1918 19.1311 15.4334C17.0926 15.4334 15.054 15.4334 13.0156 15.4334C13.0156 16.1918 13.0156 16.9504 13.0156 17.7089C12.8749 16.9302 12.8275 16.1243 12.8733 15.2911C15.0067 15.2911 17.14 15.2911 19.2733 15.2911C19.3191 16.1243 19.2718 16.9302 19.1311 17.7089Z"
        fill="#AAC9D5" />
    <path fill-rule="evenodd" clip-rule="evenodd"
        d="M19.1311 17.7089C18.7045 18.2304 18.2304 18.7045 17.7089 19.1311C17.5678 20.1477 17.5205 21.1906 17.5667 22.26C16.5711 22.26 15.5756 22.26 14.58 22.26C14.6262 21.2379 14.5788 20.2423 14.4378 19.2733C13.9637 18.7518 13.4896 18.2304 13.0156 17.7089C13.0156 16.9504 13.0156 16.1918 13.0156 15.4333C15.054 15.4333 17.0926 15.4333 19.1311 15.4333C19.1311 16.1918 19.1311 16.9504 19.1311 17.7089Z"
        fill="#FEFEFE" />
    <path fill-rule="evenodd" clip-rule="evenodd"
        d="M17.7089 19.1311C17.7089 20.2215 17.7089 21.3118 17.7089 22.4022C16.6185 22.4022 15.5282 22.4022 14.4378 22.4022C14.4378 21.3593 14.4378 20.3162 14.4378 19.2733C14.5787 20.2423 14.6261 21.2378 14.58 22.26C15.5756 22.26 16.5711 22.26 17.5667 22.26C17.5204 21.1906 17.5678 20.1477 17.7089 19.1311Z"
        fill="#B3CBD7" />
    <path fill-rule="evenodd" clip-rule="evenodd"
        d="M24.1089 26.6689C23.4163 28.0779 22.5629 29.3817 21.5489 30.5801C20.3613 31.2961 19.1288 31.391 17.8511 30.8645C16.8285 30.1636 15.7382 29.6185 14.58 29.2289C17.7244 28.3122 20.9008 27.4588 24.1089 26.6689Z"
        fill="#62D9FD" />
</svg>