<svg width="32" height="32" viewBox="0 0 33 33" fill="none" xmlns="http://www.w3.org/2000/svg">
    <path fill-rule="evenodd" clip-rule="evenodd"
        d="M2.63521 0.457425C3.81905 0.361009 4.88672 0.590546 5.83823 1.14603C9.37479 5.26 13.0762 9.27684 16.942 13.1966C18.9352 14.9181 18.9352 16.6396 16.942 18.3612C12.9938 22.5465 9.15015 26.7929 5.41116 31.1004C3.97834 32.7566 2.41271 32.8714 0.713397 31.4447C0.428542 30.9856 0.428542 30.5265 0.713397 30.0675C4.3106 25.9892 8.01201 21.9723 11.8172 18.0169C13.0326 16.8397 13.1753 15.5773 12.2443 14.2295C8.82771 10.557 5.41116 6.88442 1.99461 3.21185C1.61409 2.17976 1.82762 1.26163 2.63521 0.457425Z"
        fill="#F8B01D" />
    <path fill-rule="evenodd" clip-rule="evenodd"
        d="M28.2594 0.457427C30.5378 0.287007 31.6055 1.09038 31.4624 2.86755C28.5959 5.94 25.6774 8.98133 22.7075 11.9916C20.427 12.332 19.3593 11.586 19.5045 9.7536C22.2241 6.50765 25.1427 3.40893 28.2594 0.457427Z"
        fill="#4D4F61" />
    <path fill-rule="evenodd" clip-rule="evenodd"
        d="M20.5721 19.3942C22.1834 19.1609 23.3933 19.62 24.2022 20.7714C26.5182 23.4723 28.938 26.112 31.4624 28.6903C33.4034 31.1126 32.6206 32.3177 29.1135 32.3055C25.5756 28.7104 22.3013 24.9804 19.2909 21.1157C19.5437 20.4538 19.9708 19.8799 20.5721 19.3942Z"
        fill="#4E5062" />
</svg>