<svg width="32" height="32" viewBox="0 0 33 33" fill="none" xmlns="http://www.w3.org/2000/svg">
    <path
        d="M9.64219 32.3081L11.5384 27.0431C11.1835 26.9077 10.9546 26.8134 10.7256 26.7325C7.12312 25.6078 4.13084 23.3086 2.34984 20.2965C0.568847 17.2845 0.130994 13.7829 1.12435 10.4948C3.31709 3.00253 11.1117 -0.401634 18.6352 0.430961C27.4578 1.40617 32.9607 7.02907 32.5855 14.5539C32.3579 19.1653 30.2465 23.0721 25.6455 25.3452C20.6046 27.8393 15.2682 29.8852 9.64219 32.3081ZM16.6254 19.378C18.2357 19.3931 19.7869 18.8367 20.9374 17.8314C22.088 16.8261 22.7438 15.4541 22.7608 14.0173C22.7777 12.5805 22.1541 11.1967 21.0274 10.17C19.9007 9.14339 18.363 8.55828 16.7526 8.54324C15.9462 8.52245 15.143 8.64525 14.3902 8.90457C13.6376 9.16389 12.9502 9.55441 12.3686 10.0534C11.787 10.5525 11.3226 11.1498 11.0025 11.8107C10.6826 12.4716 10.5134 13.1828 10.505 13.9028C10.4964 14.6226 10.6489 15.3367 10.9533 16.0035C11.2576 16.6703 11.7079 17.2762 12.2777 17.786C12.8476 18.2958 13.5256 18.6991 14.2721 18.9725C15.0184 19.2458 15.8184 19.3836 16.6254 19.378Z"
        fill="#7733DE" />
</svg>