<svg width="32" height="32" viewBox="0 0 32 32" fill="none" xmlns="http://www.w3.org/2000/svg">
    <g clip-path="url(#clip0_637_110)">
        <path opacity="0.922" fill-rule="evenodd" clip-rule="evenodd"
            d="M31.84 6.23996C31.84 6.34661 31.84 6.4533 31.84 6.55996C29.9462 7.59884 28.1329 8.77218 26.4 10.08C29.1301 18.0512 26.8901 24.1845 19.68 28.48C13.2638 30.9692 7.66383 29.7425 2.88003 24.8C1.5128 22.9189 0.499467 20.8922 -0.159973 18.72C-0.159973 16.8 -0.159973 14.88 -0.159973 12.96C2.48032 4.70277 8.13366 1.12943 16.8 2.23996C20.2155 3.14817 22.9889 5.01484 25.12 7.83996C24.4939 8.47509 23.7473 8.95509 22.88 9.27996C23.0803 9.52009 23.2403 9.78677 23.36 10.08C25.942 8.27634 28.7687 6.99634 31.84 6.23996ZM15.2 25.12C15.6288 23.6757 16.2155 22.2891 16.96 20.96C18.8856 19.9972 19.8989 18.4506 20 16.32C19.5746 12.6961 17.6012 10.5095 14.08 9.75996C11.8377 10.2672 9.75769 11.1738 7.84003 12.48C9.32028 14.8534 10.7603 17.2534 12.16 19.68C13.6395 17.6665 15.2395 15.7465 16.96 13.92C17.2579 14.547 17.5246 15.187 17.76 15.84C15.4243 19.1241 13.5043 22.6441 12 26.4C9.02665 21.5753 6.25331 16.6153 3.68003 11.52C5.91203 9.97583 8.25868 8.58917 10.72 7.35996C16.0446 5.62185 19.938 7.27519 22.4 12.32C24.0934 18.8508 21.6934 23.1175 15.2 25.12Z"
            fill="#175FAE" />
        <path opacity="0.078" fill-rule="evenodd" clip-rule="evenodd"
            d="M4 2.71997C4.42666 2.93331 4.42666 2.93331 4 2.71997Z" fill="#175FAE" />
        <path opacity="0.078" fill-rule="evenodd" clip-rule="evenodd"
            d="M6.23999 2.71997C6.66665 2.93331 6.66665 2.93331 6.23999 2.71997Z" fill="#175FAE" />
        <path opacity="0.078" fill-rule="evenodd" clip-rule="evenodd"
            d="M2.08002 3.04004C2.50668 3.25338 2.50668 3.25338 2.08002 3.04004Z" fill="#175FAE" />
        <path opacity="0.078" fill-rule="evenodd" clip-rule="evenodd"
            d="M20.96 3.04004C21.3867 3.25338 21.3867 3.25338 20.96 3.04004Z" fill="#175FAE" />
        <path opacity="0.078" fill-rule="evenodd" clip-rule="evenodd"
            d="M22.56 3.04004C22.9867 3.25338 22.9867 3.25338 22.56 3.04004Z" fill="#175FAE" />
        <path opacity="0.078" fill-rule="evenodd" clip-rule="evenodd"
            d="M27.04 3.04004C27.4666 3.25338 27.4666 3.25338 27.04 3.04004Z" fill="#175FAE" />
        <path opacity="0.078" fill-rule="evenodd" clip-rule="evenodd"
            d="M28.32 3.04004C28.7467 3.25338 28.7467 3.25338 28.32 3.04004Z" fill="#175FAE" />
        <path opacity="0.078" fill-rule="evenodd" clip-rule="evenodd"
            d="M30.24 3.04004C30.6666 3.25338 30.6666 3.25338 30.24 3.04004Z" fill="#175FAE" />
        <path opacity="0.078" fill-rule="evenodd" clip-rule="evenodd"
            d="M2.40002 6.23999C2.82669 6.45333 2.82669 6.45333 2.40002 6.23999Z" fill="#175FAE" />
        <path opacity="0.078" fill-rule="evenodd" clip-rule="evenodd"
            d="M24.8 6.23999C25.2266 6.45333 25.2266 6.45333 24.8 6.23999Z" fill="#175FAE" />
        <path opacity="0.078" fill-rule="evenodd" clip-rule="evenodd"
            d="M26.08 6.23999C26.5067 6.45333 26.5067 6.45333 26.08 6.23999Z" fill="#175FAE" />
        <path opacity="0.078" fill-rule="evenodd" clip-rule="evenodd"
            d="M1.12 6.56006C1.54666 6.7734 1.54666 6.7734 1.12 6.56006Z" fill="#175FAE" />
        <path opacity="0.078" fill-rule="evenodd" clip-rule="evenodd"
            d="M30.24 11.04C30.6666 11.2534 30.6666 11.2534 30.24 11.04Z" fill="#175FAE" />
        <path opacity="0.078" fill-rule="evenodd" clip-rule="evenodd"
            d="M29.28 14.5601C29.7067 14.7734 29.7067 14.7734 29.28 14.5601Z" fill="#175FAE" />
        <path opacity="0.078" fill-rule="evenodd" clip-rule="evenodd"
            d="M30.88 15.2C31.3067 15.4133 31.3067 15.4133 30.88 15.2Z" fill="#175FAE" />
        <path opacity="0.078" fill-rule="evenodd" clip-rule="evenodd"
            d="M30.24 19.04C30.6666 19.2534 30.6666 19.2534 30.24 19.04Z" fill="#175FAE" />
        <path opacity="0.078" fill-rule="evenodd" clip-rule="evenodd"
            d="M29.6 21.92C30.0266 22.1334 30.0266 22.1334 29.6 21.92Z" fill="#175FAE" />
        <path opacity="0.078" fill-rule="evenodd" clip-rule="evenodd"
            d="M27.68 22.24C28.1066 22.4533 28.1066 22.4533 27.68 22.24Z" fill="#175FAE" />
        <path opacity="0.078" fill-rule="evenodd" clip-rule="evenodd"
            d="M30.24 22.88C30.6666 23.0933 30.6666 23.0933 30.24 22.88Z" fill="#175FAE" />
        <path opacity="0.078" fill-rule="evenodd" clip-rule="evenodd"
            d="M26.4 23.2C26.8267 23.4133 26.8267 23.4133 26.4 23.2Z" fill="#175FAE" />
        <path opacity="0.078" fill-rule="evenodd" clip-rule="evenodd"
            d="M29.92 27.04C30.3466 27.2534 30.3466 27.2534 29.92 27.04Z" fill="#175FAE" />
        <path opacity="0.078" fill-rule="evenodd" clip-rule="evenodd"
            d="M2.08002 27.36C2.50668 27.5733 2.50668 27.5733 2.08002 27.36Z" fill="#175FAE" />
        <path opacity="0.078" fill-rule="evenodd" clip-rule="evenodd"
            d="M1.44 29.92C1.86667 30.1334 1.86667 30.1334 1.44 29.92Z" fill="#175FAE" />
        <path opacity="0.078" fill-rule="evenodd" clip-rule="evenodd"
            d="M2.71997 29.92C3.14664 30.1334 3.14664 30.1334 2.71997 29.92Z" fill="#175FAE" />
        <path opacity="0.078" fill-rule="evenodd" clip-rule="evenodd"
            d="M4 29.92C4.42666 30.1334 4.42666 30.1334 4 29.92Z" fill="#175FAE" />
        <path opacity="0.078" fill-rule="evenodd" clip-rule="evenodd"
            d="M21.92 29.92C22.3466 30.1334 22.3466 30.1334 21.92 29.92Z" fill="#175FAE" />
        <path opacity="0.078" fill-rule="evenodd" clip-rule="evenodd"
            d="M23.84 29.92C24.2667 30.1334 24.2667 30.1334 23.84 29.92Z" fill="#175FAE" />
        <path opacity="0.078" fill-rule="evenodd" clip-rule="evenodd"
            d="M26.08 29.92C26.5067 30.1334 26.5067 30.1334 26.08 29.92Z" fill="#175FAE" />
        <path opacity="0.078" fill-rule="evenodd" clip-rule="evenodd"
            d="M27.04 29.92C27.4666 30.1334 27.4666 30.1334 27.04 29.92Z" fill="#175FAE" />
        <path opacity="0.078" fill-rule="evenodd" clip-rule="evenodd"
            d="M28 29.92C28.4267 30.1334 28.4267 30.1334 28 29.92Z" fill="#175FAE" />
        <path opacity="0.078" fill-rule="evenodd" clip-rule="evenodd"
            d="M29.28 29.92C29.7067 30.1334 29.7067 30.1334 29.28 29.92Z" fill="#175FAE" />
        <path opacity="0.078" fill-rule="evenodd" clip-rule="evenodd"
            d="M7.84003 30.24C8.26668 30.4533 8.26668 30.4533 7.84003 30.24Z" fill="#175FAE" />
        <path opacity="0.078" fill-rule="evenodd" clip-rule="evenodd"
            d="M19.04 30.24C19.4666 30.4533 19.4666 30.4533 19.04 30.24Z" fill="#175FAE" />
        <path opacity="0.078" fill-rule="evenodd" clip-rule="evenodd"
            d="M20.64 30.24C21.0667 30.4533 21.0667 30.4533 20.64 30.24Z" fill="#175FAE" />
        <path opacity="0.078" fill-rule="evenodd" clip-rule="evenodd"
            d="M22.88 30.24C23.3067 30.4533 23.3067 30.4533 22.88 30.24Z" fill="#175FAE" />
        <path opacity="0.078" fill-rule="evenodd" clip-rule="evenodd"
            d="M30.56 30.24C30.9867 30.4533 30.9867 30.4533 30.56 30.24Z" fill="#175FAE" />
        <path opacity="0.078" fill-rule="evenodd" clip-rule="evenodd"
            d="M0.47998 30.5601C0.906646 30.7734 0.906646 30.7734 0.47998 30.5601Z" fill="#175FAE" />
        <path opacity="0.078" fill-rule="evenodd" clip-rule="evenodd"
            d="M5.28003 30.5601C5.70669 30.7734 5.70669 30.7734 5.28003 30.5601Z" fill="#175FAE" />
        <path opacity="0.078" fill-rule="evenodd" clip-rule="evenodd"
            d="M6.23999 30.5601C6.66665 30.7734 6.66665 30.7734 6.23999 30.5601Z" fill="#175FAE" />
        <path opacity="0.078" fill-rule="evenodd" clip-rule="evenodd"
            d="M10.08 30.5601C10.5067 30.7734 10.5067 30.7734 10.08 30.5601Z" fill="#175FAE" />
        <path opacity="0.078" fill-rule="evenodd" clip-rule="evenodd"
            d="M18.08 30.5601C18.5067 30.7734 18.5067 30.7734 18.08 30.5601Z" fill="#175FAE" />
        <path opacity="0.078" fill-rule="evenodd" clip-rule="evenodd"
            d="M1.76001 30.88C2.18668 31.0933 2.18668 31.0933 1.76001 30.88Z" fill="#175FAE" />
        <path opacity="0.078" fill-rule="evenodd" clip-rule="evenodd"
            d="M11.04 30.88C11.4666 31.0933 11.4666 31.0933 11.04 30.88Z" fill="#175FAE" />
        <path opacity="0.078" fill-rule="evenodd" clip-rule="evenodd"
            d="M25.44 30.88C25.8667 31.0933 25.8667 31.0933 25.44 30.88Z" fill="#175FAE" />
        <path opacity="0.078" fill-rule="evenodd" clip-rule="evenodd"
            d="M2.71997 31.2C3.14664 31.4133 3.14664 31.4133 2.71997 31.2Z" fill="#175FAE" />
        <path opacity="0.078" fill-rule="evenodd" clip-rule="evenodd"
            d="M7.20001 31.2C7.62667 31.4133 7.62667 31.4133 7.20001 31.2Z" fill="#175FAE" />
        <path opacity="0.078" fill-rule="evenodd" clip-rule="evenodd"
            d="M13.6 31.2C14.0266 31.4133 14.0266 31.4133 13.6 31.2Z" fill="#175FAE" />
        <path opacity="0.078" fill-rule="evenodd" clip-rule="evenodd"
            d="M14.88 31.2C15.3067 31.4133 15.3067 31.4133 14.88 31.2Z" fill="#175FAE" />
        <path opacity="0.078" fill-rule="evenodd" clip-rule="evenodd"
            d="M26.72 31.2C27.1466 31.4133 27.1466 31.4133 26.72 31.2Z" fill="#175FAE" />
        <path opacity="0.078" fill-rule="evenodd" clip-rule="evenodd"
            d="M29.6 31.2C30.0266 31.4133 30.0266 31.4133 29.6 31.2Z" fill="#175FAE" />
        <path opacity="0.078" fill-rule="evenodd" clip-rule="evenodd"
            d="M4.63999 31.84C4.42664 31.4134 4.42664 31.4134 4.63999 31.84Z" fill="#175FAE" />
        <path opacity="0.078" fill-rule="evenodd" clip-rule="evenodd"
            d="M12.64 31.84C12.4266 31.4134 12.4266 31.4134 12.64 31.84Z" fill="#175FAE" />
        <path opacity="0.078" fill-rule="evenodd" clip-rule="evenodd"
            d="M16.8 31.84C16.5867 31.4134 16.5867 31.4134 16.8 31.84Z" fill="#175FAE" />
        <path opacity="0.078" fill-rule="evenodd" clip-rule="evenodd"
            d="M22.24 31.84C22.0267 31.4134 22.0267 31.4134 22.24 31.84Z" fill="#175FAE" />
    </g>
    <defs>
        <clipPath id="clip0_637_110">
            <rect width="32" height="32" fill="white" />
        </clipPath>
    </defs>
</svg>