<svg width="32" height="32" viewBox="0 0 32 32" fill="none" xmlns="http://www.w3.org/2000/svg">
<g clip-path="url(#clip0_4654_4)">
<path d="M0 16V32H16H32V16V-1.66893e-06H16H0V16ZM25.7833 8.88333C26.9 9.45 28.2667 10.8333 28.9167 12C29.3667 12.8333 29.4167 13.05 29.4167 14.5C29.4167 15.9667 29.3667 16.1667 28.8833 17.1167C27.1167 20.5 23.4833 21.7333 20.5 19.95C20.1833 19.7667 17.9167 17.6167 15.45 15.1833L11 10.7667L11.7833 9.96667L12.5667 9.16667L17 13.55C19.7833 16.3333 21.6667 18.05 22.0833 18.25C23.0833 18.7167 24.2667 18.6667 25.2 18.1167C27.8333 16.5833 28.0833 13.4833 25.75 11.5667C24.5 10.55 23.3667 10.2833 21.9333 10.6833C21.0333 10.9333 19.4333 12.5333 19.15 13.4667C19.0333 13.85 18.9 14.1667 18.85 14.1667C18.6167 14.1667 17.5 12.9 17.5 12.6333C17.5 11.8 18.7167 10.1667 19.9667 9.3C21.0833 8.53333 21.8833 8.33333 23.5 8.38333C24.65 8.43333 25.0833 8.53333 25.7833 8.88333ZM11.1667 11.9C11.8667 12.2667 13.1667 13.45 16.5833 16.85L21.0833 21.3333L20.3 22.1167L19.5 22.9167L15.1333 18.55C10.5 13.9333 9.95 13.5167 8.53333 13.5C6.08333 13.4833 4 16.4 4.9 18.5833C5.26667 19.4333 5.96667 20.3 6.76667 20.8333C8.45 22 10.2333 21.8 11.7667 20.25C12.4167 19.6167 12.7167 19.15 12.8667 18.6C12.9833 18.1833 13.1167 17.8333 13.1667 17.8333C13.2167 17.8333 13.5833 18.1667 13.9833 18.5667C14.7 19.3 14.7167 19.3167 14.5 19.8667C13.65 21.9833 11.6 23.5333 9.38333 23.7667C6.9 24.0333 4.11667 22.25 2.95 19.6667C2.46667 18.6 2.46667 16.55 2.96667 15.45C3.5 14.2667 4.4 13.1 5.33333 12.4167C6.55 11.5167 7.2 11.3333 8.83333 11.3833C9.98333 11.4333 10.4167 11.5333 11.1667 11.9Z" fill="black"/>
</g>
<defs>
<clipPath id="clip0_4654_4">
<rect width="32" height="32" fill="white"/>
</clipPath>
</defs>
</svg>
