<svg width="32" height="32" viewBox="0 0 33 33" fill="none" xmlns="http://www.w3.org/2000/svg">
    <path opacity="0.981" fill-rule="evenodd" clip-rule="evenodd"
        d="M1.29162 0.449764C11.3934 0.417058 21.495 0.449766 31.5962 0.547886C31.7703 0.711422 31.9446 0.874959 32.1187 1.03849C32.465 11.2269 32.5348 21.4315 32.3277 31.6525C32.0838 31.8815 31.8401 32.1103 31.5962 32.3393C21.4948 32.4702 11.3931 32.4702 1.29162 32.3393C1.10013 32.2659 0.925964 32.1678 0.769124 32.045C0.422707 21.7912 0.35304 11.5211 0.560127 1.23474C0.704276 0.871643 0.948107 0.609983 1.29162 0.449764ZM28.8793 9.86945C29.0878 16.3119 29.1576 22.788 29.0882 29.2976C20.6588 29.2976 12.2291 29.2976 3.79958 29.2976C3.76476 22.8867 3.79958 16.476 3.90408 10.0657C9.26217 15.4682 15.6366 16.8746 23.0273 14.2849C25.39 13.2747 27.3406 11.8029 28.8793 9.86945Z"
        fill="#53B754" />
</svg>