<svg width="32" height="32" viewBox="0 0 32 32" fill="none" xmlns="http://www.w3.org/2000/svg">
    <g clip-path="url(#clip0_602_45)">
        <path opacity="0.966" fill-rule="evenodd" clip-rule="evenodd"
            d="M12.9167 -0.083374C14.8611 -0.083374 16.8055 -0.083374 18.75 -0.083374C24.2663 1.01441 28.2663 4.09774 30.75 9.16663C31.3108 10.5501 31.6997 11.9668 31.9167 13.4166C31.9167 14.0277 31.9167 14.6388 31.9167 15.25C31.7362 15.2434 31.5695 15.1878 31.4167 15.0833C29.8233 13.4864 28.2122 11.9308 26.5833 10.4166C26.5263 10.2769 26.4153 10.2214 26.25 10.25C25.9258 9.64769 25.4813 9.14769 24.9167 8.74996C24.9288 8.49548 24.8177 8.32881 24.5833 8.24996C24.3055 8.13884 24.0278 8.02774 23.75 7.91663C23.339 7.72761 22.8945 7.69984 22.4167 7.83329C22.324 7.89706 22.2685 7.98039 22.25 8.08329C21.6388 8.36108 21.1945 8.80551 20.9167 9.41663C18.3887 11.6937 15.9164 14.0826 13.5 16.5833C12.5919 15.6468 11.6752 14.7579 10.75 13.9166C10.7622 13.6621 10.651 13.4955 10.4167 13.4166C9.69594 12.6363 8.80706 12.3863 7.74999 12.6666C7.16666 13.0557 6.66666 13.5279 6.24999 14.0833C5.91666 14.0833 5.74999 14.25 5.74999 14.5833C5.63887 14.5833 5.58332 14.6388 5.58332 14.75C5.48042 14.7684 5.39709 14.824 5.33332 14.9166C5.19874 15.5044 5.22652 16.06 5.41666 16.5833C5.54464 16.7105 5.62797 16.8771 5.66666 17.0833C7.91214 19.2176 10.1066 21.4121 12.25 23.6666C12.3491 23.744 12.4602 23.7718 12.5833 23.75C12.6389 23.8611 12.6944 23.9721 12.75 24.0833C14.9947 26.4156 17.3002 28.6935 19.6667 30.9166C19.7985 31.1241 19.8818 31.3463 19.9167 31.5833C19.3908 31.665 18.8908 31.776 18.4167 31.9166C16.75 31.9166 15.0833 31.9166 13.4167 31.9166C7.74959 30.9703 3.63849 27.9148 1.08332 22.75C0.486965 21.4626 0.0980767 20.1293 -0.0833435 18.75C-0.0833435 16.8055 -0.0833435 14.8611 -0.0833435 12.9166C1.12891 7.45468 4.24002 3.48246 9.24999 0.999959C10.4402 0.482348 11.6624 0.121236 12.9167 -0.083374Z"
            fill="#368DC3" />
        <path fill-rule="evenodd" clip-rule="evenodd"
            d="M23.75 7.91667C23.2383 7.89462 22.7383 7.95017 22.25 8.08334C22.2685 7.98044 22.324 7.8971 22.4167 7.83334C22.8945 7.69989 23.339 7.72765 23.75 7.91667Z"
            fill="#B8D1E7" />
        <path fill-rule="evenodd" clip-rule="evenodd"
            d="M23.75 7.91669C24.0278 8.0278 24.3055 8.1389 24.5833 8.25002C24.5712 8.5045 24.6823 8.67117 24.9167 8.75002C25.4813 9.14775 25.9258 9.64775 26.25 10.25C26.4058 10.6855 26.4337 11.1299 26.3333 11.5834C26.1685 11.995 25.9742 12.3839 25.75 12.75C25.5245 13.0305 25.2467 13.2527 24.9167 13.4167C24.6945 13.5278 24.5278 13.6945 24.4167 13.9167C24.4167 14.0278 24.3612 14.0834 24.25 14.0834C24.0278 14.1945 23.8612 14.3611 23.75 14.5834C23.75 14.6945 23.6945 14.75 23.5833 14.75C23.3612 14.8611 23.1945 15.0278 23.0833 15.25C23.0833 15.3611 23.0278 15.4167 22.9167 15.4167C22.6823 15.4955 22.5712 15.6622 22.5833 15.9167C22.5278 15.9167 22.4722 15.9167 22.4167 15.9167C22.1388 16.0834 21.9167 16.3056 21.75 16.5834C21.4722 16.75 21.25 16.9722 21.0833 17.25C21.0833 17.3055 21.0833 17.3612 21.0833 17.4167C20.766 17.4564 20.5437 17.623 20.4167 17.9167C20.1945 18.0279 20.0278 18.1945 19.9167 18.4167C19.9167 18.5279 19.8612 18.5834 19.75 18.5834C19.5278 18.6945 19.3612 18.8612 19.25 19.0834C19.25 19.1945 19.1945 19.25 19.0833 19.25C18.8612 19.3612 18.6945 19.5279 18.5833 19.75C18.5833 19.8612 18.5278 19.9167 18.4167 19.9167C18.1945 20.0279 18.0278 20.1945 17.9167 20.4167C17.623 20.5437 17.4563 20.766 17.4167 21.0834C17.2935 21.0615 17.1823 21.0894 17.0833 21.1667C16.3785 22.1665 15.5452 23.0277 14.5833 23.75C13.9167 23.9722 13.25 23.9722 12.5833 23.75C12.4602 23.7719 12.3491 23.744 12.25 23.6667C10.1066 21.4122 7.91214 19.2177 5.66666 17.0834C5.62798 16.8772 5.54464 16.7105 5.41666 16.5834C5.38711 15.961 5.44268 15.3499 5.58333 14.75C5.58333 14.6389 5.63888 14.5834 5.74999 14.5834C5.97221 14.4722 6.13888 14.3056 6.24999 14.0834C6.66666 13.5279 7.16666 13.0557 7.74999 12.6667C8.80706 12.3863 9.69594 12.6363 10.4167 13.4167C10.4045 13.6712 10.5156 13.8378 10.75 13.9167C11.6752 14.758 12.5919 15.6469 13.5 16.5834C15.9164 14.0827 18.3887 11.6938 20.9167 9.41669C21.4167 9.0278 21.8612 8.58335 22.25 8.08335C22.7383 7.95019 23.2383 7.89464 23.75 7.91669Z"
            fill="#FCFDFE" />
        <path fill-rule="evenodd" clip-rule="evenodd"
            d="M24.5833 8.25C24.8177 8.32885 24.9288 8.49552 24.9167 8.75C24.6823 8.67115 24.5712 8.50448 24.5833 8.25Z"
            fill="#ADCAE4" />
        <path fill-rule="evenodd" clip-rule="evenodd"
            d="M22.25 8.08337C21.8612 8.58337 21.4167 9.02782 20.9167 9.41671C21.1945 8.80559 21.6388 8.36116 22.25 8.08337Z"
            fill="#C9DBED" />
        <path fill-rule="evenodd" clip-rule="evenodd"
            d="M26.25 10.25C26.4153 10.2214 26.5263 10.2769 26.5833 10.4166C26.7825 11.3922 26.5047 12.17 25.75 12.75C25.9742 12.3838 26.1685 11.9949 26.3333 11.5833C26.4337 11.1299 26.4058 10.6854 26.25 10.25Z"
            fill="#93B7D0" />
        <path opacity="0.996" fill-rule="evenodd" clip-rule="evenodd"
            d="M26.5833 10.4166C28.2122 11.9308 29.8233 13.4864 31.4167 15.0833C31.5695 15.1878 31.7362 15.2434 31.9167 15.25C31.9167 16.3055 31.9167 17.3611 31.9167 18.4166C31.7122 19.8446 31.3232 21.2336 30.75 22.5833C29.3323 25.511 27.2768 27.872 24.5833 29.6666C23.13 30.5493 21.5745 31.1883 19.9167 31.5833C19.8818 31.3463 19.7985 31.1241 19.6667 30.9166C17.3002 28.6935 14.9947 26.4156 12.75 24.0833C13.3083 24.1108 13.8639 24.083 14.4167 24C14.5093 23.9361 14.5649 23.8528 14.5833 23.75C15.5452 23.0276 16.3785 22.1665 17.0833 21.1666C17.1823 21.0893 17.2935 21.0615 17.4167 21.0833C17.7103 20.9563 17.877 20.734 17.9167 20.4166C18.25 20.4166 18.4167 20.25 18.4167 19.9166C18.5278 19.9166 18.5833 19.8611 18.5833 19.75C18.9167 19.75 19.0833 19.5833 19.0833 19.25C19.1945 19.25 19.25 19.1945 19.25 19.0833C19.5833 19.0833 19.75 18.9166 19.75 18.5833C19.8612 18.5833 19.9167 18.5278 19.9167 18.4166C20.25 18.4166 20.4167 18.25 20.4167 17.9166C20.734 17.877 20.9563 17.7103 21.0833 17.4166C21.0833 17.3611 21.0833 17.3055 21.0833 17.25C21.4722 17.1945 21.6945 16.9721 21.75 16.5833C22.1388 16.5277 22.3612 16.3055 22.4167 15.9166C22.4722 15.9166 22.5278 15.9166 22.5833 15.9166C22.8177 15.8378 22.9288 15.6711 22.9167 15.4166C23.0278 15.4166 23.0833 15.3611 23.0833 15.25C23.4167 15.25 23.5833 15.0833 23.5833 14.75C23.6945 14.75 23.75 14.6944 23.75 14.5833C24.0833 14.5833 24.25 14.4166 24.25 14.0833C24.3612 14.0833 24.4167 14.0277 24.4167 13.9166C24.75 13.9166 24.9167 13.75 24.9167 13.4166C25.2467 13.2526 25.5245 13.0304 25.75 12.75C26.5047 12.17 26.7825 11.3922 26.5833 10.4166Z"
            fill="#3581A9" />
        <path fill-rule="evenodd" clip-rule="evenodd"
            d="M10.4167 13.4166C10.6511 13.4955 10.7622 13.6621 10.75 13.9166C10.5156 13.8378 10.4045 13.6711 10.4167 13.4166Z"
            fill="#AFCCE5" />
        <path fill-rule="evenodd" clip-rule="evenodd"
            d="M24.9167 13.4166C24.9167 13.75 24.75 13.9166 24.4167 13.9166C24.5278 13.6944 24.6945 13.5277 24.9167 13.4166Z"
            fill="#94B5CE" />
        <path fill-rule="evenodd" clip-rule="evenodd"
            d="M6.25 14.0834C6.13888 14.3056 5.97222 14.4723 5.75 14.5834C5.75 14.25 5.91667 14.0834 6.25 14.0834Z"
            fill="#AAC9E3" />
        <path fill-rule="evenodd" clip-rule="evenodd"
            d="M24.25 14.0834C24.25 14.4167 24.0833 14.5834 23.75 14.5834C23.8612 14.3612 24.0278 14.1945 24.25 14.0834Z"
            fill="#92B3CD" />
        <path fill-rule="evenodd" clip-rule="evenodd"
            d="M23.5833 14.75C23.5833 15.0833 23.4167 15.25 23.0833 15.25C23.1945 15.0278 23.3612 14.8611 23.5833 14.75Z"
            fill="#93B4CD" />
        <path fill-rule="evenodd" clip-rule="evenodd"
            d="M5.58333 14.75C5.44268 15.3499 5.38711 15.961 5.41666 16.5833C5.22653 16.06 5.19875 15.5045 5.33333 14.9167C5.3971 14.824 5.48043 14.7684 5.58333 14.75Z"
            fill="#ABCBE4" />
        <path fill-rule="evenodd" clip-rule="evenodd"
            d="M22.9167 15.4167C22.9288 15.6712 22.8177 15.8378 22.5833 15.9167C22.5712 15.6622 22.6823 15.4955 22.9167 15.4167Z"
            fill="#96B6CF" />
        <path fill-rule="evenodd" clip-rule="evenodd"
            d="M22.4167 15.9167C22.3612 16.3056 22.1388 16.5278 21.75 16.5834C21.9167 16.3056 22.1388 16.0834 22.4167 15.9167Z"
            fill="#92B4CD" />
        <path fill-rule="evenodd" clip-rule="evenodd"
            d="M21.75 16.5833C21.6945 16.9721 21.4722 17.1945 21.0833 17.25C21.25 16.9721 21.4722 16.75 21.75 16.5833Z"
            fill="#8EB1CB" />
        <path fill-rule="evenodd" clip-rule="evenodd"
            d="M21.0833 17.4167C20.9563 17.7104 20.734 17.877 20.4167 17.9167C20.5437 17.623 20.766 17.4564 21.0833 17.4167Z"
            fill="#8FB2CC" />
        <path fill-rule="evenodd" clip-rule="evenodd"
            d="M20.4167 17.9167C20.4167 18.25 20.25 18.4167 19.9167 18.4167C20.0278 18.1945 20.1945 18.0279 20.4167 17.9167Z"
            fill="#96B6CF" />
        <path fill-rule="evenodd" clip-rule="evenodd"
            d="M19.75 18.5833C19.75 18.9166 19.5833 19.0833 19.25 19.0833C19.3612 18.8611 19.5278 18.6945 19.75 18.5833Z"
            fill="#92B3CD" />
        <path fill-rule="evenodd" clip-rule="evenodd"
            d="M19.0833 19.25C19.0833 19.5833 18.9167 19.75 18.5833 19.75C18.6945 19.5278 18.8612 19.3612 19.0833 19.25Z"
            fill="#91B3CD" />
        <path fill-rule="evenodd" clip-rule="evenodd"
            d="M18.4167 19.9167C18.4167 20.25 18.25 20.4167 17.9167 20.4167C18.0278 20.1945 18.1945 20.0279 18.4167 19.9167Z"
            fill="#93B4CE" />
        <path fill-rule="evenodd" clip-rule="evenodd"
            d="M17.9167 20.4167C17.877 20.734 17.7103 20.9564 17.4167 21.0834C17.4563 20.766 17.623 20.5437 17.9167 20.4167Z"
            fill="#8CB0CB" />
        <path fill-rule="evenodd" clip-rule="evenodd"
            d="M12.5833 23.75C13.25 23.9722 13.9167 23.9722 14.5833 23.75C14.5649 23.8528 14.5093 23.9362 14.4167 24C13.8639 24.083 13.3083 24.1108 12.75 24.0833C12.6945 23.9722 12.6389 23.8612 12.5833 23.75Z"
            fill="#BFD3E1" />
    </g>
    <defs>
        <clipPath id="clip0_602_45">
            <rect width="32" height="32" fill="white" />
        </clipPath>
    </defs>
</svg>