<svg width="32" height="32" viewBox="0 0 32 33" fill="none" xmlns="http://www.w3.org/2000/svg">
    <path
        d="M31.9991 32.0239H15.3395C12.7667 32.0239 10.2911 31.4753 7.91435 30.378C5.34158 29.1906 3.3794 27.3012 2.02692 24.7106C0.67534 22.1199 0 19.2706 0 16.1609C0 13.0832 0.65106 10.2945 1.95408 7.79575C3.38749 5.08294 5.37395 3.10249 7.91435 1.85269C9.31449 1.1827 10.6589 0.710766 11.9448 0.435188C13.2307 0.161295 14.7055 0.0239258 16.3664 0.0239258H31.8049V5.74534H17.5193C16.2468 5.74534 15.1794 5.90294 14.3152 6.2156C13.4511 6.5291 12.5959 7.08953 11.7479 7.89604C10.8999 8.70255 10.3118 9.4863 9.98623 10.2481C9.6598 11.0083 9.49793 11.9564 9.49793 13.0924H32V18.8138H9.49614C9.49614 19.8589 9.64361 20.7732 9.93767 21.5578C10.2317 22.3416 10.7641 23.1481 11.5347 23.9774C12.3045 24.8075 13.1075 25.437 13.9421 25.8668C14.7775 26.2983 15.7675 26.5132 16.915 26.5132H31.9991V32.0239Z"
        fill="#6A3201" />
</svg>