<svg width="32" height="32" viewBox="0 0 32 32" fill="none" xmlns="http://www.w3.org/2000/svg">
    <g clip-path="url(#clip0_697_98)">
        <path fill-rule="evenodd" clip-rule="evenodd"
            d="M-0.0820312 0.0820713C-0.0820312 0.0273705 -0.0820312 -0.0273305 -0.0820312 -0.0820312C10.5846 -0.0820312 21.2513 -0.0820312 31.918 -0.0820312C31.918 1.23079 31.918 2.54361 31.918 3.85643C31.733 3.75441 31.5689 3.61766 31.4257 3.44617C29.5971 3.36798 28.6397 2.41072 28.5539 0.574379C28.4172 0.437627 28.2803 0.300874 28.1436 0.164123C18.7353 0.0820723 9.32667 0.0547218 -0.0820312 0.0820713Z"
            fill="#FDFEFD" />
        <path fill-rule="evenodd" clip-rule="evenodd"
            d="M-0.0820312 0.0820332C9.32667 0.0546837 18.7353 0.0820342 28.1436 0.164085C28.2803 0.300836 28.4172 0.437589 28.5539 0.574341C28.6397 2.41068 29.5971 3.36794 31.4257 3.44614C31.5689 3.61762 31.733 3.75437 31.918 3.85639C31.918 11.8974 31.918 19.9384 31.918 27.9795C31.7852 28.1385 31.6211 28.2752 31.4257 28.3897C29.5856 28.4793 28.6284 29.4365 28.5539 31.2615C28.4172 31.3982 28.2803 31.5351 28.1436 31.6718C18.7353 31.7538 9.32667 31.7812 -0.0820312 31.7538C-0.0820312 21.1966 -0.0820312 10.6393 -0.0820312 0.0820332Z"
            fill="#30B44B" />
        <path fill-rule="evenodd" clip-rule="evenodd"
            d="M8.28718 7.63072C11.3962 7.4354 13.9945 8.47473 16.0821 10.7487C16.3063 11.0556 16.4977 11.3838 16.6564 11.7333C12.9939 14.3852 9.27426 16.9562 5.49744 19.4461C5.05431 19.1615 4.72611 18.7785 4.51282 18.2974C4.59105 18.1369 4.70044 18.0002 4.84103 17.8871C8.0044 15.763 11.1224 13.5749 14.1949 11.323C12.4478 9.62893 10.3691 9.02723 7.95898 9.5179C5.06802 10.5935 3.4817 12.6721 3.2 15.7538C3.20511 19.1588 4.79144 21.4562 7.95898 22.6461C12.7157 23.1681 15.4508 21.0622 16.1641 16.3282C16.7004 16.1662 17.2475 16.1115 17.8051 16.1641C17.2613 21.8218 14.1434 24.5295 8.45129 24.2871C3.31432 22.8681 1.04423 19.504 1.64103 14.1948C2.64429 10.7572 4.85967 8.5692 8.28718 7.63072Z"
            fill="#F9FDFA" />
        <path fill-rule="evenodd" clip-rule="evenodd"
            d="M19.6102 7.95898C22.7287 7.93164 25.8466 7.959 28.9641 8.04103C29.7142 8.24447 30.0971 8.73678 30.1128 9.51795C30.0596 10.2249 29.8135 10.854 29.3743 11.4051C26.6941 14.6872 24.0136 17.9692 21.3333 21.2513C21.025 21.5839 20.8335 21.9668 20.759 22.4C23.9864 22.4 27.2136 22.4 30.441 22.4C30.441 22.947 30.441 23.4941 30.441 24.041C26.8851 24.0684 23.3295 24.041 19.7743 23.959C19.2469 23.6698 18.9187 23.2322 18.7897 22.6462C18.9893 21.782 19.3449 20.9889 19.8564 20.2667C22.5213 17.0695 25.1469 13.8421 27.7333 10.5846C27.9892 10.3029 28.1259 9.97472 28.1436 9.60001C25.2992 9.60001 22.4546 9.60001 19.6102 9.60001C19.6102 9.053 19.6102 8.50598 19.6102 7.95898Z"
            fill="#FCFEFC" />
        <path fill-rule="evenodd" clip-rule="evenodd"
            d="M31.918 27.9795C31.918 29.2923 31.918 30.6051 31.918 31.918C21.2513 31.918 10.5846 31.918 -0.0820312 31.918C-0.0820312 31.8633 -0.0820312 31.8085 -0.0820312 31.7539C9.32667 31.7813 18.7353 31.7539 28.1436 31.6718C28.2803 31.5351 28.4172 31.3982 28.5539 31.2615C28.6284 29.4366 29.5856 28.4793 31.4257 28.3897C31.6211 28.2752 31.7852 28.1385 31.918 27.9795Z"
            fill="#F3FAF4" />
    </g>
    <defs>
        <clipPath id="clip0_697_98">
            <rect width="32" height="32" fill="white" />
        </clipPath>
    </defs>
</svg>