<svg width="32" height="32" viewBox="0 0 32 32" fill="none" xmlns="http://www.w3.org/2000/svg">
<g clip-path="url(#clip0_3355_902)">
<path d="M9.84613 2.14157L9.10767 3.42157L9.7969 4.62773C10.1661 5.29234 10.6092 5.8585 10.7569 5.95696C10.9292 6.0308 11.9631 5.7108 13.0707 5.31696C15.5323 4.38157 16.5907 4.38157 18.9784 5.29234C19.9631 5.7108 20.9477 6.0308 21.0954 6.0308C21.243 6.0308 21.7107 5.44003 22.1292 4.7508L22.8677 3.4708L22.203 2.24003C21.8338 1.60003 21.4154 1.03388 21.2431 0.960034C20.4588 1.05094 19.6942 1.26702 18.9784 1.60003C16.5169 2.56003 15.4092 2.56003 13.0461 1.60003C12.0369 1.20619 11.0769 0.861572 10.9046 0.861572C10.7569 0.861572 10.2892 1.45234 9.87074 2.14157H9.84613Z" fill="black"/>
<path d="M3.69237 4.72614C2.1345 6.79515 0.966702 9.13074 0.246219 11.6184C-0.121182 14.0699 -0.0795924 16.5652 0.369296 19.0031C1.47699 23.68 5.26776 28.1108 9.72314 29.9569C13.8537 31.5727 18.449 31.5286 22.5478 29.8338C24.7744 28.8175 26.747 27.3183 28.3223 25.4449C29.8976 23.5716 31.0362 21.3711 31.6554 19.0031C32.0493 17.1815 32.1478 13.4646 31.7293 11.6184C31.3601 9.74768 29.5139 6.1046 28.2339 4.67691C27.6185 3.98768 27.077 3.49537 27.0278 3.56922C26.9539 3.64307 24.4924 9.79691 21.5385 17.2554C18.5847 24.7138 16.0985 30.8431 16.0001 30.8431C15.9016 30.8431 13.4155 24.6892 10.437 17.2061C7.48314 9.69845 4.97237 3.56922 4.87391 3.56922C4.80007 3.56922 4.25853 4.06153 3.69237 4.72614Z" fill="black"/>
<path d="M15.9999 10.3878C16.4893 10.3878 16.8861 9.99104 16.8861 9.50163C16.8861 9.01222 16.4893 8.61548 15.9999 8.61548C15.5105 8.61548 15.1138 9.01222 15.1138 9.50163C15.1138 9.99104 15.5105 10.3878 15.9999 10.3878Z" fill="black"/>
<path d="M15.9999 15.9508C16.4893 15.9508 16.8861 15.554 16.8861 15.0646C16.8861 14.5752 16.4893 14.1785 15.9999 14.1785C15.5105 14.1785 15.1138 14.5752 15.1138 15.0646C15.1138 15.554 15.5105 15.9508 15.9999 15.9508Z" fill="black"/>
<path d="M15.9999 21.7846C16.4893 21.7846 16.8861 21.3879 16.8861 20.8985C16.8861 20.4091 16.4893 20.0123 15.9999 20.0123C15.5105 20.0123 15.1138 20.4091 15.1138 20.8985C15.1138 21.3879 15.5105 21.7846 15.9999 21.7846Z" fill="black"/>
</g>
<defs>
<clipPath id="clip0_3355_902">
<rect width="32" height="30.2769" fill="white" transform="translate(0 0.861572)"/>
</clipPath>
</defs>
</svg>
