<svg width="32" height="32" viewBox="0 0 32 32" fill="none" xmlns="http://www.w3.org/2000/svg">
<path d="M28.3591 14.4159C28.0546 13.6443 27.5842 12.975 26.9637 12.4261C26.3467 11.8864 25.5637 11.4659 24.6319 11.1727C23.716 10.8841 22.6285 10.7386 21.3978 10.7386H19.2376V13.4671H21.3978C22.8114 13.4671 23.8671 13.7807 24.5432 14.3943C25.2171 15.0102 25.5444 15.85 25.5444 16.9659C25.5444 17.4989 25.4558 17.9943 25.2796 18.4352C25.1057 18.8693 24.8467 19.2454 24.5091 19.558C24.1683 19.8693 23.733 20.1193 23.2228 20.2977C22.7001 20.4795 22.0876 20.5693 21.3978 20.5693H19.2376V23.3091H21.3978C22.5705 23.3091 23.6273 23.1534 24.5387 22.8477C25.4614 22.5398 26.2467 22.1 26.8785 21.5409C27.5057 20.9807 27.9944 20.3023 28.3251 19.5227C28.6501 18.7489 28.816 17.8898 28.816 16.9659C28.816 16.0341 28.6614 15.1784 28.3591 14.4159Z" fill="#444448"/>
<path d="M17.5319 28.0943V10.7386H14.9898L10.5773 14.4352L11.5557 15.7795C11.6433 15.9148 11.7717 16.0307 11.9432 16.1239C12.2126 16.2693 12.5478 16.3068 12.891 16.1909C13.0217 16.1432 13.1535 16.0682 13.2739 15.9704L14.2955 15.183C14.2944 15.3375 14.2921 15.4943 14.2921 15.6511V28.0943H11.8092V30.5513H19.9273V28.0943H17.5319Z" fill="#55ABE3"/>
<path d="M14.4853 17.8V17.8045L14.5273 17.7966V17.7932C14.5137 17.7943 14.4978 17.7977 14.4853 17.8Z" fill="#444448"/>
<path d="M6.96482 22.8159C7.30234 22.9034 7.6603 22.9875 8.05346 23.0602C9.27391 23.2852 9.96369 23.3057 12.1489 23.3057V20.4977C12.1489 20.4977 1.7762 21.3523 4.54551 15.8136C4.54551 15.8136 2.89665 16.9091 2.90914 18.658C3.05573 21.0659 5.38757 22.3716 6.96482 22.8159Z" fill="#444448"/>
<path d="M15.7455 6.17841C7.98644 10.8273 4.33076 16.0409 5.90234 17.8125C6.50574 18.492 7.9421 18.7125 9.90914 18.4773C6.53984 17.8909 8.54781 14.6875 8.54781 14.6875L8.55235 14.6943C9.95688 11.9852 14.1194 8.17158 20.6307 4.6443C23.0341 3.34092 25.383 2.28636 27.5944 1.45454C24.4808 1.95113 20.2171 3.49998 15.7455 6.17841Z" fill="#55ABE3"/>
</svg>
