<svg width="32" height="32" viewBox="0 0 33 33" fill="none" xmlns="http://www.w3.org/2000/svg">
    <path fill-rule="evenodd" clip-rule="evenodd"
        d="M15.8262 0.5C15.7322 0.94384 15.5638 1.23058 15.3209 1.36022C15.569 1.60436 15.6813 2.0058 15.6577 2.56452C15.4264 2.5106 15.2019 2.56795 14.9841 2.73656C15.2908 3.58163 15.4031 4.55653 15.3209 5.66129C14.3485 5.06905 13.3941 4.38088 12.4578 3.59677C12.4703 2.93926 12.6387 2.53783 12.963 2.39247C13.9133 1.72615 14.8677 1.09533 15.8262 0.5Z"
        fill="#E6502F" />
    <path fill-rule="evenodd" clip-rule="evenodd"
        d="M15.8262 0.5C16.578 0.533581 17.3078 0.82032 18.0157 1.36022C18.7192 2.06873 19.4489 2.64221 20.2051 3.08065C20.4137 3.31806 20.4137 3.4901 20.2051 3.59677C19.1064 4.30088 18.0396 5.16109 17.0052 6.17742C16.4035 6.46889 15.8421 6.29685 15.321 5.66129C15.4032 4.55653 15.2909 3.58163 14.9841 2.73656C15.2019 2.56795 15.4265 2.5106 15.6578 2.56452C15.6814 2.0058 15.5691 1.60436 15.321 1.36022C15.5639 1.23058 15.7323 0.94384 15.8262 0.5Z"
        fill="#F05D26" />
    <path fill-rule="evenodd" clip-rule="evenodd"
        d="M10.9421 3.94086C10.9421 4.39963 10.9421 4.85843 10.9421 5.3172C12.0649 5.43188 12.0649 5.5466 10.9421 5.66129C10.9421 6.57886 10.9421 7.4964 10.9421 8.41398C10.7108 8.36006 10.4862 8.41742 10.2684 8.58602C10.8191 9.15734 11.3805 9.27206 11.9526 8.9301C12.1641 9.07355 12.2764 9.36028 12.2894 9.79032C11.4138 10.9484 10.5156 11.0631 9.5947 10.1344C9.7176 9.60279 9.94215 9.31603 10.2684 9.27419C9.89112 8.93802 9.49815 8.76598 9.08944 8.75806C9.0761 8.26585 9.13225 7.80708 9.25786 7.38172C9.14557 7.15231 9.03331 6.92295 8.92102 6.69355C9.11482 6.26998 9.3113 6.26998 9.51049 6.69355C9.62131 6.14025 9.5371 5.73881 9.25786 5.48924C9.3515 5.3576 9.40764 5.18555 9.42628 4.97311C9.915 4.53141 10.4203 4.18733 10.9421 3.94086Z"
        fill="#D0383C" />
    <path fill-rule="evenodd" clip-rule="evenodd"
        d="M10.942 3.94086C11.3911 4.05554 11.8402 4.17026 12.2893 4.28494C13.152 5.22254 14.0502 6.08276 14.9841 6.86559C15.1108 7.0964 15.1669 7.38313 15.1525 7.7258C14.2168 8.50891 13.2625 9.19708 12.2893 9.79032C12.2763 9.36028 12.164 9.07355 11.9525 8.9301C11.3804 9.27206 10.819 9.15734 10.2683 8.58602C10.4861 8.41742 10.7107 8.36006 10.942 8.41398C10.942 7.4964 10.942 6.57886 10.942 5.66129C12.0648 5.5466 12.0648 5.43188 10.942 5.3172C10.942 4.85843 10.942 4.39963 10.942 3.94086Z"
        fill="#DB4334" />
    <path fill-rule="evenodd" clip-rule="evenodd"
        d="M25.763 7.7258C24.8542 8.57573 23.956 9.49327 23.0683 10.4785C22.5152 10.8766 21.9537 10.9339 21.3841 10.6505C20.1174 9.63548 18.8824 8.4885 17.6788 7.20967C18.5075 6.3188 19.3496 5.45859 20.2051 4.62903C20.56 4.35362 20.925 4.12422 21.2999 3.94086C22.4417 4.73404 23.5926 5.47954 24.7525 6.17742C25.2033 6.45736 25.5402 6.97349 25.763 7.7258Z"
        fill="#F47A2F" />
    <path fill-rule="evenodd" clip-rule="evenodd"
        d="M9.42631 4.97314C9.40766 5.18558 9.35153 5.35763 9.25789 5.48927C9.53713 5.73884 9.62134 6.14028 9.51052 6.69357C9.31133 6.27 9.11485 6.27 8.92105 6.69357C9.03333 6.92298 9.1456 7.15234 9.25789 7.38175C9.13228 7.80711 9.07613 8.26588 9.08947 8.75809C9.49817 8.766 9.89114 8.93805 10.2684 9.27422C9.94218 9.31606 9.71762 9.60282 9.59473 10.1344C8.73602 9.42961 7.89392 8.62675 7.06843 7.72583C6.91926 7.44196 6.86312 7.09788 6.90001 6.69357C7.75454 6.18811 8.59664 5.61462 9.42631 4.97314Z"
        fill="#C73245" />
    <path fill-rule="evenodd" clip-rule="evenodd"
        d="M6.90001 6.69354C6.86313 7.09784 6.91926 7.44193 7.06843 7.7258C7.89393 8.62672 8.73603 9.42958 9.59473 10.1344C10.5156 11.0631 11.4138 10.9484 12.2894 9.79032C13.2626 9.19708 14.2169 8.50891 15.1526 7.7258C15.2087 8.06989 15.321 8.29929 15.4894 8.41397C15.1929 8.69361 14.9122 9.0377 14.6473 9.44623C13.6214 9.98077 12.667 10.7836 11.7842 11.8548C12.5476 13.0696 13.3897 13.9872 14.3105 14.6075C14.9073 15.0512 15.4687 15.6247 15.9947 16.328C16.0423 16.5995 16.1265 16.8289 16.2473 17.0161C16.591 16.6985 16.9559 16.5838 17.342 16.672C17.3789 17.0763 17.3228 17.4204 17.1736 17.7043C16.7003 17.9037 16.2511 18.1331 15.8263 18.3925C15.714 18.6219 15.6017 18.8512 15.4894 19.0806C15.0419 19.2302 14.6489 19.5743 14.3105 20.1129C13.0148 21.2768 11.7236 22.4237 10.4368 23.5538C10.2276 23.7407 10.0031 23.8554 9.76315 23.8978C8.09603 22.4236 6.52412 20.5885 5.04739 18.3925C5.06821 18.1837 5.12434 18.069 5.21581 18.0484C6.00771 18.8535 6.79366 19.6564 7.57369 20.457C8.15287 21.1085 8.71427 21.8541 9.25789 22.6935C9.57568 22.9618 9.85639 22.9044 10.1 22.5215C10.7894 22.2179 11.4069 21.6444 11.9526 20.8011C13.1604 19.7389 14.3394 18.592 15.4894 17.3602C14.1167 15.8519 12.7132 14.4756 11.2789 13.2312C11.0896 12.7809 10.837 12.5515 10.521 12.543C10.1945 12.6993 9.88576 12.9287 9.59473 13.2312C9.2505 13.5781 8.91366 13.9222 8.58421 14.2634C7.36532 14.8641 6.18638 15.667 5.04739 16.672C4.34726 17.142 3.67358 16.9699 3.02635 16.1559C2.3247 15.152 1.59488 14.2345 0.836896 13.4032C0.521425 13.0753 0.465284 12.6739 0.668476 12.1989C1.68158 13.3694 2.69211 14.5737 3.70003 15.8118C4.26646 16.1309 4.77172 15.9589 5.21581 15.2957C6.71066 14.3424 8.1703 13.1955 9.59473 11.8548C8.66396 10.6176 7.70957 9.47066 6.73159 8.41397C6.68368 7.75515 6.73983 7.1817 6.90001 6.69354Z"
        fill="#CFC7C5" />
    <path fill-rule="evenodd" clip-rule="evenodd"
        d="M29.8051 10.1344C29.3302 10.0476 28.8812 10.2196 28.4578 10.6506C28.6174 10.8167 28.7858 10.8741 28.963 10.8226C28.877 12.0371 28.9893 13.1267 29.2999 14.0914C28.7587 14.3332 28.2255 14.2758 27.6999 13.9194C27.3923 14.095 27.3642 14.3818 27.6157 14.7796C27.456 14.9457 27.2876 15.0031 27.1104 14.9516C25.8528 14.1809 24.6178 13.3207 23.4052 12.371C23.2642 12.023 23.2081 11.6216 23.2367 11.1667C24.2006 10.8119 25.0427 10.0091 25.763 8.7581C26.4839 8.40038 27.2136 8.34306 27.9525 8.58605C28.5799 9.11426 29.1975 9.63039 29.8051 10.1344Z"
        fill="#F69236" />
    <path fill-rule="evenodd" clip-rule="evenodd"
        d="M29.8051 10.1344C30.6283 10.6273 31.4423 11.2008 32.2472 11.8548C32.4206 11.9705 32.5048 12.1999 32.4998 12.543C31.4354 13.7453 30.3688 14.9496 29.2998 16.1559C28.4754 16.3377 27.7456 15.9363 27.1104 14.9516C27.2875 15.0031 27.4559 14.9457 27.6156 14.7796C27.3642 14.3817 27.3923 14.095 27.6998 13.9194C28.2255 14.2758 28.7587 14.3332 29.2998 14.0914C28.9892 13.1267 28.8769 12.0371 28.963 10.8226C28.7858 10.874 28.6174 10.8167 28.4577 10.6505C28.8811 10.2196 29.3301 10.0475 29.8051 10.1344Z"
        fill="#F7A239" />
    <path fill-rule="evenodd" clip-rule="evenodd"
        d="M6.73158 8.414C7.70956 9.47069 8.66395 10.6176 9.59472 11.8549C8.17029 13.1955 6.71065 14.3425 5.2158 15.2957C4.86814 15.2314 4.5313 15.0593 4.20529 14.7796C4.52257 14.7052 4.80328 14.4758 5.04738 14.0914C4.70098 13.9864 4.36414 13.9864 4.03687 14.0914C4.10344 12.9672 4.27186 11.9349 4.54212 10.9946C4.37108 10.8159 4.25881 10.5292 4.20529 10.1344C4.43092 9.62188 4.59934 9.04839 4.71054 8.414C4.98967 8.04394 5.29845 7.81457 5.63685 7.72583C5.98826 8.04174 6.35318 8.2711 6.73158 8.414Z"
        fill="#BC234A" />
    <path fill-rule="evenodd" clip-rule="evenodd"
        d="M14.6473 9.44623C14.4825 10.0124 14.2579 10.4712 13.9736 10.8226C14.0997 12.0808 14.212 13.3425 14.3105 14.6075C13.3897 13.9872 12.5476 13.0696 11.7842 11.8548C12.667 10.7836 13.6214 9.98077 14.6473 9.44623Z"
        fill="#E04B32" />
    <path fill-rule="evenodd" clip-rule="evenodd"
        d="M15.4894 8.414C15.5455 8.414 15.6017 8.414 15.6578 8.414C15.513 9.14133 15.2323 9.54278 14.8157 9.6183C15.4009 9.72177 15.9623 10.0085 16.4999 10.4785C16.6665 11.7197 16.7227 12.9814 16.6684 14.2635C16.4912 14.212 16.3228 14.2694 16.1631 14.4355C16.6134 14.6661 17.0064 15.0675 17.342 15.6398C16.9357 16.1734 16.4866 16.4028 15.9947 16.328C15.4687 15.6247 14.9073 15.0512 14.3105 14.6075C14.212 13.3425 14.0997 12.0808 13.9736 10.8226C14.2579 10.4712 14.4825 10.0124 14.6473 9.44626C14.9122 9.03773 15.1929 8.69364 15.4894 8.414Z"
        fill="#EB5329" />
    <path fill-rule="evenodd" clip-rule="evenodd"
        d="M20.8788 12.543C19.6918 13.5054 18.5128 14.5376 17.342 15.6398C17.0064 15.0675 16.6134 14.6661 16.163 14.4355C16.3227 14.2694 16.4911 14.212 16.6683 14.2634C16.7226 12.9814 16.6665 11.7197 16.4999 10.4785C15.9622 10.0085 15.4008 9.72175 14.8157 9.61828C15.2322 9.54275 15.5129 9.14131 15.6578 8.41398C16.0346 8.0573 16.4276 7.99994 16.8367 8.24194C18.2149 9.33317 19.5904 10.4228 20.963 11.5108C21.0422 11.8813 21.014 12.2254 20.8788 12.543Z"
        fill="#F16126" />
    <path fill-rule="evenodd" clip-rule="evenodd"
        d="M4.7105 8.414C4.59929 9.04839 4.43087 9.62188 4.20524 10.1344C4.25876 10.5292 4.37103 10.8159 4.54208 10.9946C4.27181 11.9349 4.10339 12.9672 4.03682 14.0914C4.36409 13.9864 4.70093 13.9864 5.04734 14.0914C4.80323 14.4758 4.52252 14.7052 4.20524 14.7796C4.53125 15.0593 4.86809 15.2314 5.21576 15.2957C4.77167 15.9589 4.26641 16.131 3.69998 15.8119C2.69205 14.5738 1.68153 13.3695 0.66842 12.1989C0.617232 11.9753 0.561091 11.746 0.5 11.5108C1.86935 10.2725 3.27285 9.24022 4.7105 8.414Z"
        fill="#A81757" />
    <path fill-rule="evenodd" clip-rule="evenodd"
        d="M11.2789 13.2312C11.1749 13.2693 11.0907 13.384 11.0262 13.5753C10.8864 15.6493 10.9145 17.7138 11.1104 19.7688C11.3169 20.3806 11.5976 20.7247 11.9525 20.8011C11.4068 21.6444 10.7893 22.2179 10.0999 22.5215C9.78685 22.535 9.5623 22.2483 9.42623 21.6613C9.53456 20.7164 9.59069 19.7415 9.59465 18.7366C9.57756 17.6356 9.46529 16.6034 9.25781 15.6398C9.34628 15.4016 9.45855 15.2295 9.59465 15.1237C9.38371 14.4948 9.38371 13.8639 9.59465 13.2312C9.88568 12.9288 10.1945 12.6993 10.521 12.543C10.8369 12.5515 11.0895 12.7809 11.2789 13.2312Z"
        fill="#D0373B" />
    <path fill-rule="evenodd" clip-rule="evenodd"
        d="M11.2789 13.2312C12.7132 14.4756 14.1167 15.852 15.4894 17.3602C14.3394 18.592 13.1604 19.739 11.9526 20.8011C11.5977 20.7247 11.317 20.3806 11.1105 19.7688C10.9145 17.7138 10.8865 15.6493 11.0263 13.5753C11.0907 13.384 11.175 13.2693 11.2789 13.2312Z"
        fill="#DB4334" />
    <path fill-rule="evenodd" clip-rule="evenodd"
        d="M23.2367 13.2312C24.8618 14.606 26.4899 15.9823 28.1209 17.3602C27.0152 18.9386 25.8925 20.487 24.7525 22.0054C24.148 22.9105 23.4743 23.312 22.7314 23.2097C22.7535 22.9081 22.6974 22.6787 22.563 22.5215C22.0227 22.1399 21.5175 21.6812 21.0472 21.1452C21.6086 21.1452 22.1701 21.1452 22.7314 21.1452C22.7314 20.8011 22.7314 20.457 22.7314 20.1129C22.4066 20.2055 22.126 20.0335 21.8893 19.5968C22.1034 18.718 22.2157 17.7431 22.2262 16.6721C22.2221 15.6671 22.1661 14.6922 22.0578 13.7473C22.4849 13.6833 22.8778 13.5112 23.2367 13.2312Z"
        fill="#F58631" />
    <path fill-rule="evenodd" clip-rule="evenodd"
        d="M8.58415 14.2634C8.12984 14.6687 7.73684 15.2995 7.40521 16.1559C7.62976 16.2706 7.85433 16.3853 8.07889 16.5C7.97358 17.4635 7.86129 18.4384 7.74205 19.4247C7.40196 19.6425 7.34582 19.9866 7.57363 20.457C6.79359 19.6564 6.00764 18.8535 5.21575 18.0484C5.09211 17.6328 5.03598 17.1739 5.04733 16.672C6.18632 15.667 7.36526 14.8641 8.58415 14.2634Z"
        fill="#BE2949" />
    <path fill-rule="evenodd" clip-rule="evenodd"
        d="M9.59473 13.2312C9.38379 13.8639 9.38379 14.4948 9.59473 15.1237C9.45863 15.2295 9.34636 15.4016 9.25789 15.6398C9.46537 16.6034 9.57764 17.6356 9.59473 18.7366C9.59077 19.7415 9.53464 20.7164 9.42631 21.6613C9.56238 22.2483 9.78693 22.535 10.1 22.5215C9.85639 22.9045 9.57568 22.9618 9.25789 22.6936C8.71427 21.8541 8.15287 21.1086 7.57369 20.457C7.34589 19.9866 7.40202 19.6425 7.74211 19.4247C7.86135 18.4385 7.97364 17.4636 8.07895 16.5C7.8544 16.3853 7.62983 16.2706 7.40527 16.1559C7.73691 15.2995 8.1299 14.6687 8.58421 14.2635C8.91366 13.9222 9.2505 13.5781 9.59473 13.2312Z"
        fill="#C92E41" />
    <path fill-rule="evenodd" clip-rule="evenodd"
        d="M23.2367 13.2312C22.8778 13.5112 22.4848 13.6833 22.0577 13.7473C22.166 14.6922 22.2221 15.6671 22.2261 16.6721C22.2157 17.7431 22.1034 18.718 21.8893 19.5968C22.1259 20.0335 22.4065 20.2056 22.7314 20.1129C22.7314 20.457 22.7314 20.8011 22.7314 21.1452C22.1701 21.1452 21.6085 21.1452 21.0472 21.1452C20.0256 20.008 18.959 19.033 17.8472 18.2204C17.7029 17.9833 17.5907 17.6966 17.5104 17.3602C18.7014 15.7998 19.9365 14.4235 21.2156 13.2312C21.5498 13.0056 21.8866 12.7762 22.2261 12.543C22.5793 12.707 22.9162 12.9364 23.2367 13.2312Z"
        fill="#F3702B" />
    <path fill-rule="evenodd" clip-rule="evenodd"
        d="M20.8788 12.543C20.9911 12.7724 21.1033 13.0018 21.2156 13.2312C19.9365 14.4235 18.7014 15.7998 17.5104 17.3602C17.5907 17.6966 17.7029 17.9833 17.8472 18.2204C18.959 19.033 20.0256 20.008 21.0472 21.1452C21.5174 21.6812 22.0227 22.1399 22.563 22.5215C22.6974 22.6787 22.7535 22.9081 22.7314 23.2097C22.741 23.5913 22.7971 23.9354 22.8998 24.242C22.8201 24.7258 22.6517 24.9552 22.3945 24.9301C22.594 24.5214 22.594 24.12 22.3945 23.7258C21.2545 22.6652 20.1317 21.5756 19.0262 20.457C18.3695 19.7973 17.6958 19.1665 17.0051 18.5645C16.6161 18.3937 16.2231 18.3363 15.8262 18.3925C16.251 18.1332 16.7002 17.9038 17.1735 17.7043C17.3228 17.4204 17.3788 17.0764 17.342 16.6721C16.9558 16.5838 16.5909 16.6985 16.2472 17.0161C16.1264 16.8289 16.0422 16.5995 15.9946 16.328C16.4865 16.4028 16.9356 16.1734 17.342 15.6398C18.5128 14.5377 19.6917 13.5054 20.8788 12.543Z"
        fill="#DECCC4" />
    <path fill-rule="evenodd" clip-rule="evenodd"
        d="M15.8262 18.3925C16.2232 18.3363 16.6162 18.3937 17.0052 18.5645C17.6959 19.1665 18.3695 19.7973 19.0262 20.457C19.0117 20.7997 19.068 21.0864 19.1946 21.3172C18.8943 21.3972 18.6136 21.2251 18.3525 20.8011C18.0819 20.8482 17.8572 21.0776 17.6788 21.4893C17.935 21.6199 18.2156 21.6773 18.5209 21.6613C18.4325 21.8996 18.3202 22.0716 18.1841 22.1774C18.1169 24.1596 17.9485 26.0521 17.6788 27.8549C18.1193 28.0654 18.3999 28.5815 18.5209 29.4033C17.3223 31.6415 16.1433 31.6415 14.9841 29.4033C15.107 28.8716 15.3316 28.5849 15.6578 28.543C15.439 27.0821 15.3267 25.5338 15.321 23.8979C15.3255 22.2646 15.3816 20.6589 15.4894 19.0807C15.6017 18.8513 15.7139 18.6219 15.8262 18.3925Z"
        fill="#F05C25" />
    <path fill-rule="evenodd" clip-rule="evenodd"
        d="M12.4578 3.5968C13.3942 4.3809 14.3486 5.06908 15.321 5.66132C15.8421 6.29688 16.4035 6.46892 17.0052 6.17745C18.0396 5.16112 19.1064 4.3009 20.2052 3.5968C20.2052 3.94089 20.2052 4.28497 20.2052 4.62906C19.3496 5.45862 18.5075 6.31883 17.6789 7.2097C18.8824 8.48854 20.1174 9.63551 21.3841 10.6506C21.9537 10.934 22.5152 10.8766 23.0683 10.4785C23.956 9.4933 24.8542 8.57576 25.763 7.72583C25.6989 8.21826 25.5304 8.50502 25.2578 8.58605C25.4174 8.75217 25.5858 8.80953 25.763 8.75809C25.0427 10.0091 24.2006 10.8119 23.2367 11.1667C23.2081 11.6216 23.2642 12.023 23.4051 12.371C24.6178 13.3207 25.8528 14.1809 27.1104 14.9516C27.7457 15.9363 28.4754 16.3377 29.2998 16.1559C30.3688 14.9496 31.4354 13.7453 32.4998 12.543C32.3149 12.8517 32.3149 13.1384 32.4998 13.4033C31.5787 14.5399 30.6805 15.7442 29.8051 17.0162C29.3214 17.4574 28.8443 17.4574 28.3735 17.0162C28.2019 17.625 28.1738 18.1985 28.2893 18.7366C27.4139 19.4945 26.6279 20.5268 25.9314 21.8334C25.1424 22.3507 24.4125 23.0962 23.742 24.0699C23.4668 24.2397 23.186 24.2971 22.8999 24.242C22.7971 23.9354 22.7411 23.5913 22.7315 23.2097C23.4744 23.312 24.148 22.9106 24.7525 22.0054C25.8925 20.487 27.0152 18.9386 28.1209 17.3602C26.4899 15.9823 24.8618 14.606 23.2367 13.2312C22.9162 12.9364 22.5794 12.707 22.2262 12.543C21.8867 12.7762 21.5498 13.0056 21.2157 13.2312C21.1033 13.0018 20.9912 12.7724 20.8788 12.543C21.0141 12.2254 21.0422 11.8813 20.9631 11.5108C19.5904 10.4228 18.2149 9.3332 16.8368 8.24196C16.4277 7.99997 16.0347 8.05733 15.6578 8.41401C15.6017 8.41401 15.5455 8.41401 15.4894 8.41401C15.321 8.29932 15.2087 8.06992 15.1526 7.72583C15.167 7.38316 15.1109 7.09643 14.9841 6.86562C14.0503 6.08279 13.1521 5.22257 12.2894 4.28497C12.3456 4.05557 12.4017 3.8262 12.4578 3.5968Z"
        fill="#E2D9D4" />
    <path fill-rule="evenodd" clip-rule="evenodd"
        d="M14.3104 20.1129C14.0476 20.6736 14.1038 21.075 14.4788 21.3172C14.2423 21.7539 13.9616 21.926 13.6367 21.8333C13.6268 23.8652 13.5707 25.815 13.4683 27.6828C12.4873 26.7382 11.5329 25.7059 10.6052 24.586C10.5025 24.2795 10.4464 23.9354 10.4368 23.5538C11.7235 22.4237 13.0148 21.2768 14.3104 20.1129Z"
        fill="#DA4436" />
    <path fill-rule="evenodd" clip-rule="evenodd"
        d="M15.4894 19.0806C15.3817 20.6589 15.3255 22.2646 15.321 23.8978C15.3267 25.5337 15.439 27.0821 15.6578 28.543C15.3316 28.5848 15.1071 28.8716 14.9842 29.4032C14.4389 28.9774 13.9336 28.4039 13.4684 27.6828C13.5707 25.815 13.6269 23.8652 13.6368 21.8333C13.9616 21.9259 14.2423 21.7539 14.4789 21.3172C14.1038 21.075 14.0477 20.6735 14.3105 20.1129C14.6489 19.5743 15.0419 19.2302 15.4894 19.0806Z"
        fill="#E54D2B" />
    <path fill-rule="evenodd" clip-rule="evenodd"
        d="M19.0262 20.457C20.1317 21.5756 21.2546 22.6651 22.3946 23.7258C22.594 24.1199 22.594 24.5213 22.3946 24.9301C21.1461 26.5605 19.8548 28.0516 18.5209 29.4032C18.3998 28.5815 18.1193 28.0654 17.6788 27.8548C17.9485 26.052 18.1169 24.1596 18.1841 22.1774C18.3202 22.0716 18.4325 21.8995 18.5209 21.6613C18.2156 21.6772 17.935 21.6199 17.6788 21.4892C17.8572 21.0776 18.0819 20.8482 18.3525 20.8011C18.6136 21.2251 18.8943 21.3971 19.1946 21.3172C19.068 21.0864 19.0117 20.7996 19.0262 20.457Z"
        fill="#F16929" />
    <path fill-rule="evenodd" clip-rule="evenodd"
        d="M10.6052 24.586C11.5329 25.7059 12.4873 26.7382 13.4684 27.6828C13.9336 28.4039 14.4388 28.9774 14.9841 29.4032C16.1433 31.6414 17.3223 31.6414 18.521 29.4032C19.8548 28.0516 21.1461 26.5605 22.3946 24.9301C22.4197 25.2921 22.3918 25.6361 22.3104 25.9623C20.5723 28.1078 18.86 30.287 17.1736 32.5C16.8929 32.5 16.6122 32.5 16.3315 32.5C15.0301 31.0629 13.7108 29.3424 12.3736 27.3387C11.5 27.0937 10.9105 26.1762 10.6052 24.586Z"
        fill="#D2CBC8" />
</svg>