<svg width="32" height="32" viewBox="0 0 32 32" fill="none" xmlns="http://www.w3.org/2000/svg">
<mask id="mask0_4096_97" style="mask-type:luminance" maskUnits="userSpaceOnUse" x="0" y="0" width="32" height="32">
<path d="M32 0H0V32H32V0Z" fill="white"/>
</mask>
<g mask="url(#mask0_4096_97)">
<g filter="url(#filter0_d_4096_97)">
<path d="M32 0H0V32H32V0Z" fill="white"/>
<path d="M28.2927 6.04878H23.2195V9.56098C23.2195 10.2439 22.6341 10.7317 22.0488 10.7317H13.4634C13.2683 10.7317 13.0732 10.9268 13.0732 11.122V13.8537C13.0732 14.0488 13.2683 14.2439 13.4634 14.2439H19.2195C19.9024 14.2439 20.3902 14.8293 20.3902 15.4146V17.7561C20.3902 18.439 19.8049 18.9268 19.2195 18.9268H13.4634C13.2683 18.9268 13.0732 19.122 13.0732 19.3171V24.8781C13.0732 25.561 12.4878 26.0488 11.9024 26.0488H8.29268V30.7317C8.29268 31.4146 8.87805 32 9.56098 32H28.2927C28.9756 32 29.561 31.4146 29.561 30.7317V7.21951C29.561 6.53659 28.9756 6.04878 28.2927 6.04878Z" fill="#0073E6"/>
<path d="M9.56098 6.04878H23.2195V1.26829C23.2195 0.585366 22.6341 0 21.9512 0H3.21951C2.53659 0 1.95122 0.585366 1.95122 1.26829V24.9756C1.95122 25.6585 2.53659 26.2439 3.21951 26.2439H8.29268V7.21951C8.29268 6.53659 8.87805 6.04878 9.56098 6.04878Z" fill="#0073E6"/>
</g>
</g>
<defs>
<filter id="filter0_d_4096_97" x="-4" y="0" width="40" height="40" filterUnits="userSpaceOnUse" color-interpolation-filters="sRGB">
<feFlood flood-opacity="0" result="BackgroundImageFix"/>
<feColorMatrix in="SourceAlpha" type="matrix" values="0 0 0 0 0 0 0 0 0 0 0 0 0 0 0 0 0 0 127 0" result="hardAlpha"/>
<feOffset dy="4"/>
<feGaussianBlur stdDeviation="2"/>
<feComposite in2="hardAlpha" operator="out"/>
<feColorMatrix type="matrix" values="0 0 0 0 0 0 0 0 0 0 0 0 0 0 0 0 0 0 0.25 0"/>
<feBlend mode="normal" in2="BackgroundImageFix" result="effect1_dropShadow_4096_97"/>
<feBlend mode="normal" in="SourceGraphic" in2="effect1_dropShadow_4096_97" result="shape"/>
</filter>
</defs>
</svg>
