
<svg xmlns="http://www.w3.org/2000/svg" width="32px" height="32px" viewBox="0 0 35 35"><g transform="translate(-18.636 -29.464)"><path d="M52.107,37.991,38.249,30a3.992,3.992,0,0,0-1.919-.533A3.606,3.606,0,0,0,34.412,30L20.555,37.991a3.829,3.829,0,0,0-1.919,3.3V57.338a3.9,3.9,0,0,0,1.919,3.3l.959.533,4.423,2.558V56.326l10.393-5.969,10.393,5.969v7.355l4.423-2.558.959-.586a3.829,3.829,0,0,0,1.919-3.3V41.243A3.857,3.857,0,0,0,52.107,37.991ZM46.617,47.9,38.2,43a3.99,3.99,0,0,0-1.918-.533A3.607,3.607,0,0,0,34.359,43l-8.474,4.9V43.268l8.688-5.01a3.425,3.425,0,0,1,3.358,0l8.688,5.01Z" fill="#50b95d"></path></g></svg>