<svg width="32" height="32" viewBox="0 0 32 32" fill="none" xmlns="http://www.w3.org/2000/svg">
<path d="M19.3998 3C12.3998 3 6.7998 9 6.7998 16.3C6.7998 23.6 12.4998 29.6 19.3998 29.6C26.2998 29.6 31.9998 23.6 31.9998 16.3C31.9998 9 26.3998 3 19.3998 3ZM19.3998 25.2C14.5998 24.9 10.9998 20.7 11.2998 15.9C11.5998 11.5 15.0998 8.1 19.3998 7.8C23.8998 7.8 27.4998 11.7 27.4998 16.5C27.6998 21.1 23.9998 25 19.3998 25.2Z" fill="#FC5F3A"/>
<path d="M4.39999 3.1001V29.7001H0V4.4001C1.3 3.5001 2.79999 3.1001 4.39999 3.1001Z" fill="#FC5F3A"/>
</svg>
