
<svg width="32px" height="32px" viewBox="0 0 64 64" fill="none" xmlns="http://www.w3.org/2000/svg">
<g clip-path="url(#clip0)">
<path d="M61.8196 27.7731C61.787 29.828 59.9937 31.5939 57.9396 31.5939C55.7877 31.5939 54.0596 29.828 54.0923 27.6446C54.1249 25.5898 55.9507 23.856 58.0374 23.9202C60.0915 23.9523 61.8522 25.7503 61.8196 27.7731Z" fill="#FDB905"/>
<path d="M9.1614 27.7731C9.1288 29.828 7.33553 31.5939 5.28142 31.5939C3.1295 31.5939 1.40144 29.828 1.43405 27.6446C1.46665 25.5898 3.29252 23.856 5.37924 23.9202C7.43334 23.9523 9.19401 25.7503 9.1614 27.7731Z" fill="#FDB905"/>
<path d="M36.745 28.1902C36.745 31.0156 34.3975 33.3916 31.5282 33.4237C28.659 33.4237 26.1484 30.9835 26.1484 28.1902C26.1484 25.3326 28.5938 22.9888 31.4956 22.9888C34.3975 23.0209 36.745 25.3326 36.745 28.1902Z" fill="#FDB905"/>
<path d="M52.6561 12.9392C52.493 10.6917 54.4167 7.80202 57.8403 7.67359C60.6769 7.57727 63.1875 10.0816 63.2201 12.9071C63.2201 15.7326 60.7421 18.1727 57.8729 18.1727C55.0362 18.1406 52.6561 15.7647 52.6561 12.9392Z" fill="#282D4B"/>
<path d="M10.5646 42.9919C10.532 45.9458 8.24963 48.2255 5.28259 48.2255C2.41336 48.2255 0.0332031 45.8495 0.0332031 43.0241C0.0332031 40.1665 2.47857 37.8548 5.41301 37.8548C8.41265 37.8227 10.7602 40.6802 10.5646 42.9919Z" fill="#282D4B"/>
<path d="M-0.000178145 12.9392C-0.163202 10.6917 1.76048 7.80202 5.18399 7.67359C8.02062 7.57727 10.5312 10.0816 10.5638 12.9071C10.5638 15.7326 8.08583 18.1727 5.2166 18.1727C2.37998 18.1406 0.0324267 15.7647 -0.000178145 12.9392Z" fill="#282D4B"/>
<path d="M50.1145 34.9969C50.0819 37.7902 47.5713 40.2304 44.7999 40.1661C41.8981 40.1019 39.4853 37.6618 39.5179 34.8363C39.5505 32.043 42.0611 29.5707 44.8651 29.6991C48.4516 29.8276 50.2123 32.7493 50.1145 34.9969Z" fill="#282D4B"/>
<path d="M39.5176 5.26562C39.5176 2.44016 41.9629 0 44.8322 0C47.6362 0 50.0816 2.40806 50.1142 5.2014C50.1468 7.99475 47.734 10.4349 44.93 10.467C42.0282 10.4991 39.5176 8.09107 39.5176 5.26562Z" fill="#282D4B"/>
<path d="M13.1727 35.3182C13.0423 32.6854 15.6181 30.181 18.3569 30.181C21.2913 30.1489 23.7367 32.589 23.7041 35.4145C23.7041 37.7904 21.8456 40.5838 18.3243 40.6159C15.4551 40.6159 13.1401 38.1757 13.1727 35.3182Z" fill="#282D4B"/>
<path d="M52.6574 42.6067C52.6574 39.717 54.9397 37.5337 57.8415 37.4053C60.1565 37.3089 63.1561 39.2675 63.1887 42.6067C63.2213 45.4321 60.7434 47.8723 57.8415 47.8402C54.5158 47.776 52.4617 44.8221 52.6574 42.6067Z" fill="#282D4B"/>
<path d="M50.1142 49.7343C50.1142 52.5276 47.7014 54.9678 44.8974 54.9999C42.0282 55.032 39.5502 52.5919 39.5176 49.7664C39.5176 47.0052 41.9303 44.5329 44.7344 44.5008C47.6036 44.4687 50.1142 46.9089 50.1142 49.7343Z" fill="#282D4B"/>
<path d="M23.7372 49.7343C23.7372 52.5276 21.3244 54.9678 18.5204 54.9999C15.6512 55.032 13.1732 52.5919 13.1406 49.7664C13.1406 47.0052 15.5534 44.5329 18.3574 44.5008C21.2266 44.4687 23.7372 46.9089 23.7372 49.7343Z" fill="#282D4B"/>
<path d="M50.1145 20.0994C50.0819 22.8928 47.7017 25.2687 44.8325 25.3008C41.9633 25.3329 39.4853 22.8607 39.5179 20.0352C39.5505 17.2419 41.9959 14.8338 44.7999 14.8338C47.6691 14.8017 50.1145 17.274 50.1145 20.0994Z" fill="#282D4B"/>
<path d="M13.1406 5.26562C13.1406 2.44016 15.586 0 18.4552 0C21.2592 0 23.7046 2.40806 23.7372 5.2014C23.7698 7.99475 21.357 10.4349 18.553 10.467C15.6512 10.4991 13.1406 8.09107 13.1406 5.26562Z" fill="#282D4B"/>
<path d="M23.7356 20.0994C23.703 22.8928 21.3228 25.2687 18.4536 25.3008C15.5844 25.3329 13.1064 22.8607 13.139 20.0352C13.1716 17.2419 15.617 14.8338 18.421 14.8338C21.2902 14.8017 23.7356 17.274 23.7356 20.0994Z" fill="#282D4B"/>
</g>
<defs>
<clipPath id="clip0">
<rect width="185" height="55" fill="white"/>
</clipPath>
</defs>
</svg>
