<svg width="32" height="32" viewBox="0 0 32 32" fill="none" xmlns="http://www.w3.org/2000/svg">
<path fill-rule="evenodd" clip-rule="evenodd" d="M15.9861 31.7217H15.8956L15.4087 31.4574C10.1356 28.7791 4.9113 26.0591 3.40869 19.5757V2.81043C3.63826 2.69217 3.86087 2.51826 4.10434 2.46956L15.1096 0.278259H16.8556C20.5009 1.00174 24.153 1.71826 27.7843 2.48348C28.0626 2.54609 28.4452 3.00522 28.4452 3.27652C28.487 8.23652 28.6539 13.2104 28.3896 18.1565C28.2852 20.1322 27.6243 22.3096 26.5461 23.9583C24.0417 27.7913 20.0278 29.8365 15.9861 31.7217ZM7.68695 16.3478C7.67304 16.3339 7.65913 16.32 7.68 16.3339H7.69391L9.30782 19.4643L8.12521 22.2817L8.05565 22.3513L8.17391 22.3374L15.4643 18.9357L7.68695 16.3478ZM17.8017 18.2748L10.1983 22.0174C13.0504 22.1356 14.9287 23.0261 15.1235 26.6226L17.7878 18.2748L17.8017 18.2887V18.2748ZM18.567 12.7722L22.3722 20.5357L23.4156 16.8417L26.6435 15.5756L18.553 12.7791L18.567 12.7722ZM8.47304 7.34608L12.0974 14.8939L14.887 6.86608L11.5896 8.70956L8.45913 7.36695L8.47304 7.34608ZM16.3061 11.4922L24.16 14.1356L22.3235 10.9704L23.6174 7.93739L16.2922 11.4991L16.3061 11.4922ZM19.9026 21.593L22.9287 22.8939L19.3461 15.6035L16.7235 23.4226L19.8956 21.6L19.9026 21.593ZM16.3826 4.59826L13.6974 12.0626L20.9809 8.57739L17.5443 7.58261L16.3756 4.59826H16.3826ZM6.07304 14.9356L12.5774 17.2661L9.5026 10.8452L6.07304 14.9356Z" fill="#027D40"/>
</svg>
