<svg width="32" height="32" viewBox="0 0 32 32" fill="none" xmlns="http://www.w3.org/2000/svg">
<path d="M3.84 16C3.84 9.28458 9.28457 3.84001 16 3.84001C18.704 3.84001 21.2 4.72001 23.2194 6.21373C23.4835 5.59302 23.8813 5.03824 24.3844 4.58901C24.8876 4.13977 25.4837 3.80714 26.1303 3.61487C23.2743 1.27267 19.6936 -0.00506514 16 1.50909e-05C7.16343 1.50909e-05 0 7.16344 0 16C0 24.8366 7.16343 32 16 32C24.8366 32 32 24.8366 32 16C32 14.1509 31.6857 12.3714 31.1063 10.7154C30.7056 11.2586 30.1894 11.7062 29.595 12.0259C29.0006 12.3457 28.3426 12.5296 27.6686 12.5646C27.9886 13.6526 28.16 14.8046 28.16 16C28.16 22.7154 22.7154 28.16 16 28.16C9.28457 28.16 3.84 22.7154 3.84 16Z" fill="#176BFF"/>
<path d="M31.6709 12.7589C31.5283 12.0659 31.3397 11.3832 31.1063 10.7154C30.7056 11.2586 30.1894 11.7062 29.595 12.0259C29.0006 12.3456 28.3426 12.5296 27.6686 12.5646C27.8982 13.3467 28.0483 14.15 28.1166 14.9623C28.833 14.8734 29.5216 14.6305 30.1352 14.2501C30.7488 13.8697 31.2727 13.361 31.6709 12.7589ZM16 23C17.8559 22.9979 19.6351 22.2597 20.9474 20.9474C22.2597 19.6351 22.9979 17.8559 23 16C22.9979 14.1441 22.2597 12.3649 20.9474 11.0526C19.6351 9.74029 17.8559 9.00211 16 9C14.1441 9.00211 12.3649 9.74029 11.0526 11.0526C9.7403 12.3649 9.00212 14.1441 9 16C9.00302 17.8556 9.74149 19.6343 11.0536 20.9464C12.3657 22.2585 14.1444 22.997 16 23ZM26.5006 10C26.9602 10 27.4153 9.90947 27.84 9.73358C28.2646 9.55768 28.6504 9.29988 28.9754 8.97487C29.3004 8.64987 29.5583 8.26403 29.7341 7.83939C29.91 7.41475 30.0006 6.95962 30.0006 6.5C30.0006 6.04037 29.91 5.58525 29.7341 5.16061C29.5583 4.73597 29.3004 4.35013 28.9754 4.02513C28.6504 3.70012 28.2646 3.44231 27.84 3.26642C27.4153 3.09053 26.9602 3 26.5006 3C25.5723 3 24.6821 3.36875 24.0257 4.02513C23.3693 4.6815 23.0006 5.57174 23.0006 6.5C23.0006 7.42826 23.3693 8.31849 24.0257 8.97487C24.6821 9.63125 25.5723 10 26.5006 10Z" fill="#176BFF"/>
</svg>
