<svg width="32" height="32" viewBox="0 0 32 32" fill="none" xmlns="http://www.w3.org/2000/svg">
<g clip-path="url(#clip0_3468_693)">
<path d="M2.04907 23.8368L15.7634 31.7551L29.4776 23.8368V8.00003L15.7634 0.081665L2.04907 8.00003V23.8368Z" fill="#469EA2"/>
<path d="M14.3594 1.97559L4.40018 7.72252C4.4165 7.90174 4.4165 8.08208 4.40018 8.2613L14.343 14.0082C15.1823 13.3877 16.3283 13.3877 17.1675 14.0082L27.1104 8.2613C27.0941 8.08208 27.0941 7.90174 27.1104 7.72252L17.1838 1.97559C16.3446 2.59609 15.1986 2.59609 14.3594 1.97559V1.97559ZM28.0736 9.84497L18.1145 15.6572C18.2252 16.6913 17.6587 17.6793 16.7104 18.1062L16.7267 29.5348C16.8877 29.6058 17.0409 29.6933 17.1838 29.796L27.1267 24.0491C27.016 23.015 27.5825 22.027 28.5308 21.6001V10.1062C28.3716 10.0316 28.2187 9.94421 28.0736 9.84497V9.84497ZM3.45324 9.91028C3.31031 10.0129 3.15711 10.1005 2.99609 10.1715V21.6654C3.95744 22.0778 4.52999 23.0764 4.40018 24.1144L14.343 29.8613C14.486 29.7586 14.6392 29.6711 14.8002 29.6001V18.1062C13.8388 17.6938 13.2663 16.6952 13.3961 15.6572L3.45324 9.91028Z" fill="#6ACAD1"/>
<path d="M15.7634 1.79589L28.0246 8.8816V23.0367L15.7634 30.1224L3.50213 23.0367V8.86528L15.7634 1.79589ZM15.7634 0.114258L2.04907 8.03262V23.8694L15.7634 31.7877L29.4776 23.8694V8.03262L15.7634 0.114258Z" fill="#469EA2"/>
<path d="M15.8613 18.6122H15.6654C14.985 18.614 14.3321 18.3445 13.851 17.8634C13.3699 17.3823 13.1004 16.7293 13.1021 16.049V15.853C13.1004 15.1727 13.3699 14.5197 13.851 14.0386C14.3321 13.5575 14.985 13.288 15.6654 13.2898H15.8613C16.5417 13.288 17.1947 13.5575 17.6757 14.0386C18.1568 14.5197 18.4263 15.1727 18.4246 15.853V16.049C18.4263 16.7293 18.1568 17.3823 17.6757 17.8634C17.1947 18.3445 16.5417 18.614 15.8613 18.6122V18.6122ZM15.8613 29.1428H15.6654C14.738 29.14 13.882 29.6399 13.4287 30.449L15.7634 31.7877L18.0981 30.449C17.6447 29.6399 16.7887 29.14 15.8613 29.1428V29.1428ZM29.494 21.2245H29.396C28.7157 21.2227 28.0627 21.4922 27.5816 21.9733C27.1005 22.4544 26.831 23.1074 26.8327 23.7877V23.9836C26.8304 24.4188 26.943 24.8468 27.1593 25.2245L29.494 23.8694V21.2245ZM27.1593 6.69385C26.945 7.07226 26.8324 7.49978 26.8327 7.93467V8.13058C26.831 8.81094 27.1005 9.46392 27.5816 9.94501C28.0627 10.4261 28.7157 10.6956 29.396 10.6939H29.494V8.03262L27.1593 6.69385ZM15.7634 0.114258L13.4287 1.45303C13.8798 2.26634 14.7354 2.77219 15.6654 2.77549H15.8613C16.7887 2.77827 17.6447 2.27838 18.0981 1.46936L15.7634 0.114258ZM4.38377 6.67752L2.04907 8.03262V10.6939H2.14703C2.82738 10.6956 3.48037 10.4261 3.96145 9.94501C4.44254 9.46392 4.71204 8.81094 4.71031 8.13058V7.93467C4.70477 7.49537 4.59272 7.06398 4.38377 6.67752ZM2.14703 21.2245H2.04907V23.8694L4.38377 25.2245C4.59809 24.8461 4.71059 24.4185 4.71031 23.9836V23.7877C4.71204 23.1074 4.44254 22.4544 3.96145 21.9733C3.48037 21.4922 2.82738 21.2227 2.14703 21.2245V21.2245Z" fill="#469EA2"/>
<path d="M15.7634 31.8695V16.0164L2.04907 8.09802V23.9511L15.7634 31.8695Z" fill="#083B54" fill-opacity="0.15"/>
<path d="M29.4941 23.8041V7.96741L15.7798 15.8858V31.7388L29.4941 23.8041Z" fill="#083B54" fill-opacity="0.05"/>
</g>
<defs>
<clipPath id="clip0_3468_693">
<rect width="27.5918" height="32" fill="white" transform="translate(2)"/>
</clipPath>
</defs>
</svg>
