<svg width="32" height="32" viewBox="0 0 33 33" fill="none" xmlns="http://www.w3.org/2000/svg">
    <path
        d="M0.721905 30.2655C0.225073 30.919 0.390677 31.8526 1.16352 32.3194C1.99158 32.7861 3.04046 32.5994 3.5925 31.9459L16.455 16.2156L29.2622 31.9459C29.8142 32.5994 30.9184 32.7861 31.6911 32.3194C32.464 31.8526 32.6848 30.9657 32.1328 30.2655L17.8902 12.7615L16.455 10.9878L15.0196 12.7615L0.721905 30.2655Z"
        fill="#97C73E" />
    <path
        d="M4.91698 14.7218C4.42014 15.3754 4.58575 16.3089 5.3586 16.7756C6.13146 17.2424 7.23553 17.0557 7.78756 16.4023L16.4546 5.80648L25.0663 16.3555C25.6183 17.1024 26.7776 17.2424 27.5504 16.7756C28.3233 16.3089 28.4889 15.3754 27.9369 14.7218L17.8898 2.35235L16.4546 0.578613L15.0192 2.35235L4.91698 14.7218Z"
        fill="#97C73E" />
</svg>