<svg width="32" height="32" viewBox="0 0 33 33" fill="none" xmlns="http://www.w3.org/2000/svg">
    <path
        d="M14.0831 30.7729C10.6177 30.4676 7.35978 28.9201 4.8904 26.4001L4.8489 26.3575C4.8074 26.3221 4.77281 26.2866 4.73823 26.244C2.31036 23.724 0.823193 20.4018 0.532678 16.8668C0.484259 16.2137 0.961533 15.6458 1.5979 15.5962C1.63248 15.5962 1.66707 15.5962 1.70165 15.5962C2.30344 15.5962 2.80838 16.0718 2.86372 16.6823C2.91905 17.3141 3.01588 17.9458 3.16114 18.5705H3.18189C3.70067 20.8349 4.81432 22.9077 6.3914 24.5688C6.41906 24.5901 6.44673 24.6184 6.46748 24.6468L6.61965 24.803C8.21749 26.3931 10.1958 27.5146 12.3539 28.0541V28.0754C12.9833 28.2387 13.6266 28.3452 14.2768 28.402C14.9132 28.4587 15.3904 29.0408 15.3351 29.6939C15.2798 30.3115 14.7818 30.7799 14.1799 30.7799C14.1454 30.7729 14.1177 30.7729 14.0831 30.7729ZM14.0762 26.0169C9.40722 25.4134 5.72736 21.6371 5.13942 16.8455C5.07716 16.2137 5.51985 15.6458 6.14238 15.5749C6.18389 15.5678 6.22538 15.5678 6.26689 15.5678C6.83408 15.5606 7.31136 15.9937 7.38053 16.5686C7.4497 17.1152 7.56037 17.6477 7.72638 18.173H7.74713C8.4665 20.4231 10.1058 22.2333 12.2363 23.142V23.1633C12.9072 23.4543 13.6197 23.646 14.346 23.7382C14.9616 23.8234 15.3904 24.4054 15.3074 25.0372C15.2314 25.6051 14.761 26.0311 14.2007 26.0382C14.1592 26.0239 14.1177 26.0239 14.0762 26.0169ZM13.9448 21.2821C11.9043 20.7497 10.3134 19.11 9.80152 17.0088C9.64931 16.4054 10.0021 15.7879 10.59 15.6317C10.6799 15.6104 10.7699 15.5962 10.8667 15.5962H10.8875C11.3993 15.5962 11.842 15.9511 11.9665 16.4622C12.2778 17.7329 13.2462 18.7266 14.4774 19.0532C15.0792 19.2023 15.4457 19.8269 15.2936 20.4444C15.1691 20.9556 14.7195 21.3176 14.2007 21.3176C14.1177 21.3105 14.0278 21.3034 13.9448 21.2821ZM24.4656 15.5606C23.8984 15.5678 23.4211 15.1348 23.3519 14.5598C23.2827 14.0132 23.1652 13.4808 22.9992 12.9556H22.9784C22.259 10.7053 20.6197 8.88805 18.4893 7.98653V7.96524C17.8184 7.6742 17.1058 7.48253 16.3796 7.39025C15.7639 7.29797 15.342 6.70879 15.4319 6.08412C15.5219 5.47365 16.0545 5.04774 16.6493 5.10453C21.3184 5.7079 24.9982 9.48432 25.5862 14.2759C25.6622 14.9005 25.2265 15.4684 24.6177 15.5465C24.5694 15.5536 24.5278 15.5536 24.4794 15.5536H24.4656V15.5606ZM27.8756 14.4746C27.8204 13.8428 27.7235 13.211 27.5782 12.5935H27.5575C27.0387 10.3291 25.9251 8.25628 24.3411 6.59522C24.3134 6.57392 24.2857 6.54552 24.265 6.51713L24.1128 6.36096C22.5149 4.77089 20.5367 3.64932 18.3716 3.10983V3.08853C17.7422 2.92526 17.0989 2.81879 16.4487 2.762C15.847 2.70521 15.3904 2.19412 15.3904 1.56945C15.3904 0.902182 15.9162 0.355591 16.5732 0.355591H16.6355C20.1009 0.660829 23.3589 2.20831 25.8282 4.7283C25.8351 4.74249 25.8628 4.76379 25.8697 4.77089C25.9113 4.80638 25.9458 4.84188 25.9804 4.88447C28.4083 7.40446 29.9023 10.7266 30.186 14.2616C30.2344 14.929 29.7433 15.511 29.0931 15.5606H29.0239C28.429 15.5606 27.9241 15.0851 27.8756 14.4746ZM19.845 15.5323C19.3331 15.5323 18.8904 15.1774 18.7659 14.6663C18.4547 13.3957 17.4863 12.4018 16.2551 12.0753C15.757 11.9546 15.4043 11.4932 15.4043 10.9679C15.4112 10.3291 15.9231 9.81086 16.5525 9.81796C16.6355 9.81796 16.7185 9.83215 16.7946 9.84636C18.8352 10.3788 20.4261 12.0185 20.9379 14.1197C21.0901 14.723 20.7373 15.3406 20.1562 15.4968C20.0664 15.5181 19.9764 15.5323 19.8796 15.5323H19.845Z"
        fill="#EA8B00" />
    <path
        d="M28.374 26.0662L32.0401 29.4239C32.6418 29.9776 32.6971 30.9217 32.1576 31.5392C32.1507 31.5464 32.1438 31.5535 32.1369 31.5605C31.6043 32.1781 30.6843 32.2349 30.0825 31.6883L30.0756 31.6813C28.8513 30.5596 27.6338 29.4523 26.4026 28.3236C26.3473 28.4514 26.3128 28.5436 26.2712 28.636C25.8423 29.722 25.4205 30.8152 24.9916 31.9013C24.9639 31.9723 24.9362 32.0362 24.9016 32.1071C24.8255 32.2846 24.6388 32.384 24.459 32.3485C24.3068 32.3059 24.1823 32.1994 24.1062 32.0575C23.7673 31.3547 23.4491 30.6377 23.124 29.9208C21.5884 26.5419 20.0528 23.163 18.5241 19.7769C18.4481 19.6066 18.4342 19.422 18.4758 19.2375C18.5657 18.9464 18.8147 18.8684 19.1398 18.9819L24.1546 20.6927L31.6596 23.2623C31.8602 23.3334 32.047 23.4114 32.0677 23.6528C32.0815 23.887 31.9432 24.1 31.7288 24.1781C30.6635 24.7672 29.6052 25.3635 28.547 25.9598L28.374 26.0662Z"
        fill="#1C2C3E" />
</svg>