<svg width="32" height="32" viewBox="0 0 32 32" fill="none" xmlns="http://www.w3.org/2000/svg">
<g clip-path="url(#clip0_3889_247)">
<path d="M16 32C24.8366 32 32 24.8366 32 16C32 7.16344 24.8366 0 16 0C7.16344 0 0 7.16344 0 16C0 24.8366 7.16344 32 16 32Z" fill="white"/>
<path d="M19.1799 19.1267C18.8939 19.1273 18.6146 19.2127 18.3771 19.3721C18.1396 19.5315 17.9547 19.7576 17.8458 20.022C17.7275 20.309 17.7046 20.6264 17.7806 20.9274C17.8565 21.2283 18.0272 21.4969 18.2676 21.6934C18.5079 21.8898 18.805 22.0038 19.115 22.0184C19.4251 22.0331 19.7316 21.9476 19.9894 21.7746C20.2471 21.6017 20.4424 21.3504 20.5463 21.0579C20.6503 20.7655 20.6574 20.4473 20.5667 20.1505C20.476 19.8536 20.2922 19.5938 20.0424 19.4095C19.7927 19.2251 19.4903 19.126 19.1799 19.1267Z" fill="#4D32E4"/>
<path d="M16 0C13.8989 -3.18459e-07 11.8183 0.413853 9.87707 1.21793C7.93586 2.02201 6.17204 3.20056 4.68631 4.68631C3.20057 6.17204 2.02201 7.93586 1.21793 9.87707C0.413854 11.8183 0 13.8989 0 16C0 18.1011 0.413854 20.1817 1.21793 22.1229C2.02201 24.0641 3.20057 25.828 4.68631 27.3137C6.17119 28.8033 7.93521 29.9856 9.87743 30.7928C11.8197 31.6 13.902 32.0164 16.0053 32.018C18.1086 32.0197 20.1916 31.6067 22.1351 30.8025C24.0786 29.9984 25.8445 28.819 27.3317 27.3317C28.819 25.8445 29.9984 24.0786 30.8026 22.1351C31.6067 20.1916 32.0197 18.1086 32.018 16.0053C32.0164 13.902 31.6 11.8197 30.7928 9.87743C29.9856 7.9352 28.8033 6.17119 27.3137 4.68631C25.828 3.20056 24.0641 2.022 22.1229 1.21793C20.1817 0.413847 18.1012 -4.41416e-06 16 0ZM28.7 22.2333C28.3512 21.6092 27.8051 21.1186 27.1472 20.8385C26.4894 20.5585 25.7571 20.5049 25.0655 20.6861C24.3739 20.8673 23.7621 21.273 23.3261 21.8397C22.8901 22.4063 22.6546 23.1017 22.6567 23.8167V28.49C20.7428 29.5168 18.6175 30.0871 16.4467 30.1566C14.1241 27.5587 12.9255 24.1464 13.1133 20.6667C13.2619 18.3648 14.0238 16.1447 15.32 14.2367C15.3399 14.2097 15.349 14.1761 15.3452 14.1428C15.3415 14.1094 15.3254 14.0786 15.3 14.0567C15.2733 14.04 15.2418 14.0326 15.2105 14.0356C15.1792 14.0387 15.1497 14.0519 15.1267 14.0733C13.1352 15.6992 11.8169 18.0055 11.4267 20.5467C11.3833 20.7733 11.3333 21.16 11.3067 21.3733C11.3067 21.4667 11.1733 21.49 11.1167 21.4733C9.48481 20.9314 8.09882 19.8268 7.2064 18.357C6.31399 16.8872 5.9733 15.148 6.24524 13.4501C6.42543 12.3248 6.86853 11.2578 7.53854 10.3358C8.20855 9.41385 9.08658 8.66293 10.1013 8.14404C11.116 7.62514 12.2388 7.35289 13.3785 7.34938C14.5182 7.3459 15.6427 7.61128 16.6605 8.12396C17.6784 8.63664 18.561 9.38218 19.2367 10.3C19.3058 10.3976 19.3972 10.4772 19.5033 10.5323C19.6094 10.5874 19.7271 10.6163 19.8467 10.6167H29.0767C29.8437 12.4706 30.2071 14.4666 30.1427 16.4719C30.0784 18.4772 29.5877 20.4458 28.7033 22.2467L28.7 22.2333Z" fill="#4D32E4"/>
</g>
<defs>
<clipPath id="clip0_3889_247">
<rect width="32" height="32" fill="white"/>
</clipPath>
</defs>
</svg>
