<svg width="32" height="32" viewBox="0 0 32 32" fill="none" xmlns="http://www.w3.org/2000/svg">
    <g clip-path="url(#clip0_643_45)">
        <path fill-rule="evenodd" clip-rule="evenodd"
            d="M-0.0799561 0.0799561C-0.0266228 0.0799561 0.0267107 0.0799561 0.0800439 0.0799561C0.0800439 10.64 0.0800439 21.2 0.0800439 31.76C10.64 31.76 21.2 31.76 31.76 31.76C31.76 31.8132 31.76 31.8667 31.76 31.92C21.1468 31.92 10.5334 31.92 -0.0799561 31.92C-0.0799561 21.3067 -0.0799561 10.6933 -0.0799561 0.0799561Z"
            fill="#56B3E7" />
        <path fill-rule="evenodd" clip-rule="evenodd"
            d="M-0.0799561 0.0800439C-0.0799561 0.0267107 -0.0799561 -0.0266228 -0.0799561 -0.0799561C10.5867 -0.0799561 21.2533 -0.0799561 31.92 -0.0799561C31.92 10.5867 31.92 21.2533 31.92 31.92C31.8668 31.92 31.8133 31.92 31.76 31.92C31.76 31.8668 31.76 31.8133 31.76 31.76C21.2 31.76 10.64 31.76 0.0800439 31.76C0.0800439 21.2 0.0800439 10.64 0.0800439 0.0800439C0.0267107 0.0800439 -0.0266228 0.0800439 -0.0799561 0.0800439Z"
            fill="#75C4F3" />
        <path fill-rule="evenodd" clip-rule="evenodd"
            d="M0.55999 0.23999C0.930502 0.345579 1.30384 0.452245 1.67999 0.55999C11.6344 0.347441 21.5811 0.347441 31.52 0.55999C31.6267 10.5867 31.6267 20.6133 31.52 30.64C31.3896 30.9797 31.2296 31.2997 31.04 31.6C30.92 31.4998 30.7865 31.4198 30.64 31.36C21.2153 31.227 11.8021 31.2537 2.39999 31.44C2.00221 31.3432 1.76221 31.1832 1.67999 30.96C1.54265 31.2001 1.24931 31.3601 0.79999 31.44C0.733011 31.2525 0.626344 31.0925 0.47999 30.96C0.347864 21.1965 0.374529 11.4365 0.55999 1.67999C0.500021 1.36649 0.393353 1.07316 0.23999 0.79999C0.475712 0.686461 0.582379 0.499793 0.55999 0.23999Z"
            fill="#3DA1D9" />
        <path fill-rule="evenodd" clip-rule="evenodd"
            d="M13.36 10.48C15.9226 10.4514 18.4826 10.5047 21.04 10.64C22.5317 10.8015 23.225 11.6548 23.12 13.2C23.405 13.6146 23.725 13.988 24.08 14.32C25.2253 15.7341 26.7186 16.3741 28.56 16.24C28.6676 16.3628 28.8008 16.4695 28.96 16.56C29.0399 17.5186 29.0666 18.4786 29.04 19.44C29.0199 19.9352 28.7532 20.2285 28.24 20.32C26.32 20.3733 24.4 20.4268 22.48 20.48C22.3911 20.5413 22.3378 20.6213 22.32 20.72C20.1709 21.2554 17.9842 21.4688 15.76 21.36C13.8694 21.4308 12.0028 21.2708 10.16 20.88C9.79466 20.804 9.47466 20.644 9.20005 20.4C7.2011 20.2671 5.17445 20.1871 3.12005 20.16C3.03298 20.0453 2.9263 19.9653 2.80005 19.92C2.80005 18.8 2.80005 17.68 2.80005 16.56C5.09147 16.3877 6.9848 15.4277 8.48005 13.68C8.64925 12.8718 8.86259 12.0718 9.12005 11.28C9.25338 11.1467 9.38672 11.0134 9.52005 10.88C10.7814 10.5888 12.0614 10.4555 13.36 10.48Z"
            fill="#F2F9FA" />
        <path fill-rule="evenodd" clip-rule="evenodd"
            d="M2.80005 19.92C2.9263 19.9653 3.03298 20.0453 3.12005 20.16C5.17445 20.1871 7.2011 20.2671 9.20005 20.4C7.06672 20.4 4.93338 20.4 2.80005 20.4C2.80005 20.24 2.80005 20.08 2.80005 19.92Z"
            fill="#A9C8D7" />
        <path fill-rule="evenodd" clip-rule="evenodd"
            d="M27.12 18.64C27.5467 18.64 27.9732 18.64 28.4 18.64C28.4 18.9067 28.4 19.1733 28.4 19.44C26.558 19.4925 24.7446 19.4392 22.96 19.28C24.72 19.28 26.48 19.28 28.24 19.28C28.24 19.12 28.24 18.96 28.24 18.8C27.8305 18.8483 27.4571 18.7949 27.12 18.64Z"
            fill="#555D61" />
        <path fill-rule="evenodd" clip-rule="evenodd"
            d="M27.44 17.04C27.667 17.1922 27.9336 17.2455 28.24 17.2C28.24 17.36 28.24 17.52 28.24 17.68C28.0267 17.68 27.8132 17.68 27.6 17.68C27.44 17.68 27.28 17.68 27.12 17.68C27.12 18 27.12 18.32 27.12 18.64C27.4571 18.7949 27.8305 18.8483 28.24 18.8C28.24 18.96 28.24 19.12 28.24 19.28C26.48 19.28 24.72 19.28 22.96 19.28C22.96 19.0667 22.96 18.8533 22.96 18.64C23.12 18.64 23.28 18.64 23.44 18.64C23.4769 17.2765 23.3969 15.9431 23.2 14.64C24.3433 15.9183 25.7566 16.7183 27.44 17.04Z"
            fill="#2D353E" />
        <path fill-rule="evenodd" clip-rule="evenodd"
            d="M27.4399 17.04C27.7599 17.04 28.0799 17.04 28.3999 17.04C28.3999 17.3068 28.3999 17.5733 28.3999 17.84C28.0935 17.8855 27.827 17.8322 27.5999 17.68C27.8132 17.68 28.0267 17.68 28.2399 17.68C28.2399 17.52 28.2399 17.36 28.2399 17.2C27.9335 17.2455 27.667 17.1922 27.4399 17.04Z"
            fill="#697075" />
        <path fill-rule="evenodd" clip-rule="evenodd"
            d="M25.52 17.2C25.928 17.3372 26.328 17.4972 26.72 17.68C26.7992 17.9956 26.8259 18.3156 26.8 18.64C26.3733 18.64 25.9467 18.64 25.52 18.64C25.52 18.16 25.52 17.68 25.52 17.2Z"
            fill="#EFF0F2" />
        <path fill-rule="evenodd" clip-rule="evenodd"
            d="M24.08 16.4C24.4088 16.6317 24.7555 16.845 25.12 17.04C25.1997 17.5707 25.2264 18.104 25.2 18.64C24.7733 18.64 24.3467 18.64 23.92 18.64C23.8689 17.8619 23.9222 17.1152 24.08 16.4Z"
            fill="#F2F4F6" />
        <path fill-rule="evenodd" clip-rule="evenodd"
            d="M24.08 16.4C23.9222 17.1152 23.869 17.8619 23.92 18.64C23.7098 17.8643 23.7098 17.0643 23.92 16.24C24.0171 16.2598 24.0704 16.3131 24.08 16.4Z"
            fill="#5C6268" />
        <path fill-rule="evenodd" clip-rule="evenodd"
            d="M21.84 11.92C22.0464 12.0092 22.1797 12.1692 22.24 12.4C22.3468 14.64 22.3468 16.88 22.24 19.12C22.0727 19.3744 21.886 19.6144 21.68 19.84C20.858 20.1465 20.0047 20.3065 19.12 20.32C16.9868 20.4267 14.8534 20.4267 12.72 20.32C11.8071 20.3125 10.9537 20.1257 10.16 19.76C9.95023 19.2989 9.76357 18.8189 9.60004 18.32C9.37965 16.3059 9.53965 14.3326 10.08 12.4C10.5737 12.5491 11.0804 12.6558 11.6 12.72C11.6534 12.72 11.7067 12.72 11.76 12.72C13.0608 13.7178 14.3941 14.6778 15.76 15.6C17.1898 14.7039 18.5764 13.7439 19.92 12.72C20.0069 12.7104 20.0602 12.6571 20.08 12.56C19.3408 12.4011 18.5943 12.3477 17.84 12.4C15.4676 12.267 13.0676 12.187 10.64 12.16C10.5867 12.1067 10.5334 12.0533 10.48 12C14.2593 11.4955 18.046 11.4688 21.84 11.92Z"
            fill="#44A3D9" />
        <path fill-rule="evenodd" clip-rule="evenodd"
            d="M20.72 19.12C20.7263 19.321 20.6463 19.481 20.48 19.6C17.6938 19.6024 14.8938 19.5757 12.08 19.52C11.9911 19.4587 11.9378 19.3787 11.92 19.28C14.8555 19.5138 17.7888 19.4605 20.72 19.12Z"
            fill="#57A4D0" />
        <path fill-rule="evenodd" clip-rule="evenodd"
            d="M8.55994 14.48C8.66433 14.6318 8.71765 14.8184 8.71994 15.04C8.75044 15.3556 8.64378 15.5956 8.39994 15.76C8.2406 16.7141 8.18725 17.6741 8.23994 18.64C8.39994 18.64 8.55994 18.64 8.71994 18.64C8.71994 18.9067 8.71994 19.1733 8.71994 19.44C6.95994 19.44 5.19994 19.44 3.43994 19.44C3.43994 19.2267 3.43994 19.0133 3.43994 18.8C3.81327 18.8 4.18661 18.8 4.55994 18.8C4.55994 18.48 4.55994 18.16 4.55994 17.84C4.18661 17.84 3.81327 17.84 3.43994 17.84C3.43994 17.5733 3.43994 17.3067 3.43994 17.04C5.57892 17.0371 7.28559 16.1838 8.55994 14.48Z"
            fill="#313942" />
        <path fill-rule="evenodd" clip-rule="evenodd"
            d="M6.64003 17.04C6.64003 17.5733 6.64003 18.1068 6.64003 18.64C7.01336 18.64 7.38671 18.64 7.76003 18.64C7.36837 18.7957 6.9417 18.849 6.48003 18.8C6.42963 18.1807 6.48298 17.594 6.64003 17.04Z"
            fill="#93999E" />
        <path fill-rule="evenodd" clip-rule="evenodd"
            d="M5.03998 17.6801C5.03998 18.0001 5.03998 18.3201 5.03998 18.6401C5.41331 18.6401 5.78666 18.6401 6.15998 18.6401C5.76832 18.7957 5.34165 18.849 4.87998 18.8001C4.83173 18.3906 4.88507 18.0172 5.03998 17.6801Z"
            fill="#939BA2" />
        <path fill-rule="evenodd" clip-rule="evenodd"
            d="M6.16004 18.6401C5.78671 18.6401 5.41337 18.6401 5.04004 18.6401C5.04004 18.3201 5.04004 18.0001 5.04004 17.6801C5.36236 17.4522 5.73569 17.3457 6.16004 17.3601C6.16004 17.7868 6.16004 18.2133 6.16004 18.6401Z"
            fill="#F5F6F6" />
        <path fill-rule="evenodd" clip-rule="evenodd"
            d="M7.76001 18.64C7.38669 18.64 7.01334 18.64 6.64001 18.64C6.64001 18.1067 6.64001 17.5733 6.64001 17.04C6.94955 16.8304 7.26955 16.6171 7.60001 16.4C7.75894 17.1392 7.81227 17.8858 7.76001 18.64Z"
            fill="#F8F9FA" />
        <path fill-rule="evenodd" clip-rule="evenodd"
            d="M20.7201 19.12C17.7889 19.4605 14.8556 19.5138 11.9201 19.28C11.5606 19.1664 11.1873 19.0864 10.8001 19.04C10.6078 18.8956 10.4745 18.709 10.4001 18.48C10.1212 16.6736 10.0946 14.8604 10.3201 13.04C12.123 14.2478 13.9097 15.4744 15.6801 16.72C15.9403 16.7 16.1804 16.62 16.4001 16.48C17.9778 15.3023 19.5778 14.1557 21.2001 13.04C21.6266 14.975 21.6001 16.8949 21.1201 18.8C21.0068 18.941 20.8733 19.0476 20.7201 19.12Z"
            fill="#F8FCFC" />
        <path fill-rule="evenodd" clip-rule="evenodd"
            d="M21.84 11.9199C18.0459 11.4687 14.2592 11.4954 10.48 11.9999C10.5333 12.0533 10.5867 12.1066 10.64 12.1599C13.0676 12.1869 15.4676 12.2669 17.84 12.3999C15.706 12.3733 13.5727 12.4 11.44 12.4799C11.5289 12.5412 11.5823 12.6212 11.6 12.7199C11.0803 12.6557 10.5737 12.5491 10.08 12.3999C9.53961 14.3325 9.37961 16.3059 9.59999 18.3199C9.76353 18.8188 9.95018 19.2988 10.16 19.7599C9.77057 19.5566 9.53057 19.2366 9.43999 18.7999C9.33332 16.7199 9.33332 14.6399 9.43999 12.5599C9.82237 11.8217 10.4357 11.475 11.28 11.5199C14.16 11.4133 17.04 11.4133 19.92 11.5199C20.6073 11.532 21.2473 11.6654 21.84 11.9199Z"
            fill="#54A4D1" />
        <path fill-rule="evenodd" clip-rule="evenodd"
            d="M29.04 19.44C29.0665 18.4785 29.0398 17.5185 28.96 16.56C28.8008 16.4694 28.6675 16.3627 28.56 16.24C27.6729 16.0094 26.7662 15.7694 25.84 15.52C25.5635 15.1069 25.1902 14.8669 24.72 14.8C24.72 14.64 24.72 14.48 24.72 14.32C24.5067 14.32 24.2933 14.32 24.08 14.32C23.7249 13.9879 23.4049 13.6146 23.12 13.2C23.2249 11.6548 22.5317 10.8015 21.04 10.64C19.6089 10.3912 18.1422 10.2845 16.64 10.32C15.5186 10.32 14.4253 10.3734 13.36 10.48C12.0613 10.4554 10.7813 10.5887 9.51998 10.88C9.38665 11.0133 9.25331 11.1467 9.11998 11.28C8.86252 12.0717 8.64918 12.8717 8.47998 13.68C6.98473 15.4276 5.0914 16.3877 2.79998 16.56C2.82742 16.2413 2.72076 15.9746 2.47998 15.76C3.52776 15.5051 3.52776 15.3451 2.47998 15.28C2.47998 11.0133 2.47998 6.74665 2.47998 2.47998C11.8667 2.47998 21.2533 2.47998 30.64 2.47998C30.64 6.74665 30.64 11.0133 30.64 15.28C30.1125 15.2526 30.059 15.3592 30.48 15.6C30.6286 15.7902 30.6819 16.0035 30.64 16.24C30.2667 16.24 29.8933 16.24 29.52 16.24C29.52 16.4533 29.52 16.6667 29.52 16.88C29.9451 16.8259 30.3184 16.9326 30.64 17.2C30.4075 17.5553 30.2209 17.9286 30.08 18.32C29.932 18.2325 29.7987 18.1259 29.68 18C29.8632 17.7774 29.8632 17.5641 29.68 17.36C29.1955 17.7881 29.1155 18.2681 29.44 18.8C29.823 18.9017 30.223 18.9017 30.64 18.8C30.6672 19.0115 30.6139 19.1982 30.48 19.36C30 19.2299 29.52 19.2565 29.04 19.44Z"
            fill="#3DA2D9" />
        <path fill-rule="evenodd" clip-rule="evenodd"
            d="M24.08 14.3199C24.2932 14.3199 24.5067 14.3199 24.72 14.3199C24.72 14.4799 24.72 14.6399 24.72 14.7999C25.1902 14.8668 25.5635 15.1068 25.84 15.5199C26.7662 15.7694 27.6729 16.0094 28.56 16.2399C26.7185 16.374 25.2252 15.734 24.08 14.3199Z"
            fill="#5BADD1" />
        <path fill-rule="evenodd" clip-rule="evenodd"
            d="M19.92 12.7201C18.5763 13.7439 17.1898 14.7039 15.76 15.6001C14.3941 14.6779 13.0608 13.7179 11.76 12.7201C14.48 12.5067 17.2 12.5067 19.92 12.7201Z"
            fill="#F9FCFC" />
        <path fill-rule="evenodd" clip-rule="evenodd"
            d="M17.8399 12.4C18.5942 12.3478 19.3407 12.4011 20.0799 12.56C20.0601 12.6571 20.0068 12.7104 19.9199 12.72C17.1999 12.5067 14.4799 12.5067 11.7599 12.72C11.7066 12.72 11.6533 12.72 11.5999 12.72C11.5822 12.6212 11.5289 12.5412 11.4399 12.48C13.5726 12.4 15.7059 12.3734 17.8399 12.4Z"
            fill="#C7F0FE" />
        <path fill-rule="evenodd" clip-rule="evenodd"
            d="M13.36 10.48C14.4253 10.3734 15.5186 10.3201 16.64 10.32C18.1422 10.2845 19.6089 10.3912 21.04 10.64C18.4825 10.5047 15.9225 10.4513 13.36 10.48Z"
            fill="#71AFD3" />
        <path fill-rule="evenodd" clip-rule="evenodd"
            d="M22.32 20.72C22.3023 20.8187 22.249 20.8987 22.16 20.96C22.4095 21.1168 22.6762 21.2501 22.96 21.36C22.7468 21.4133 22.5333 21.4667 22.32 21.52C18.9103 21.5109 15.497 21.4843 12.08 21.44C11.3642 21.3774 10.7242 21.1907 10.16 20.88C12.0027 21.2707 13.8694 21.4307 15.76 21.36C17.9842 21.4688 20.1709 21.2553 22.32 20.72Z"
            fill="#5BA8D5" />
    </g>
    <defs>
        <clipPath id="clip0_643_45">
            <rect width="32" height="32" fill="white" />
        </clipPath>
    </defs>
</svg>