<svg width="32" height="32" viewBox="0 0 32 32" fill="none" xmlns="http://www.w3.org/2000/svg">
    <path opacity="0.99" fill-rule="evenodd" clip-rule="evenodd"
        d="M28.1482 3.85184C26.9252 4.94137 25.74 6.08705 24.5926 7.28887C24.4949 7.39385 24.3763 7.43335 24.2371 7.40739C23.5356 6.92303 22.7849 6.52796 21.9852 6.22221C21.544 6.04482 21.0699 5.96582 20.563 5.98517C20.2469 6.00493 19.9309 6.02467 19.6149 6.04443C19.2959 6.06289 19.0194 6.16166 18.7852 6.34073C17.0616 6.9579 15.9555 8.14308 15.4667 9.89628C15.3936 9.9094 15.3343 9.9489 15.2889 10.0148C15.056 10.8264 15.0757 11.6165 15.3482 12.3852C15.4538 12.7737 15.5525 13.1687 15.6445 13.5704C15.8825 13.9845 16.1392 14.3795 16.4149 14.7555C16.5 14.9496 16.5196 15.147 16.4741 15.3481C15.345 16.4773 14.2191 17.6032 13.0963 18.7259C12.9027 18.7845 12.7051 18.8041 12.5037 18.7852C10.9294 17.1047 9.94174 15.1293 9.54078 12.8592C9.5605 11.9103 9.54075 10.9621 9.48152 10.0148C9.38482 9.85802 9.24655 9.77902 9.06671 9.77776C7.99363 8.7837 6.96646 7.75654 5.98523 6.69628C5.90621 6.38023 5.70869 6.18271 5.39263 6.10369C4.88847 5.57468 4.33538 5.10061 3.73337 4.68147C3.68061 4.34196 3.75963 4.04566 3.97041 3.79258C12.0496 3.69396 20.1088 3.71372 28.1482 3.85184Z"
        fill="#EFEFEF" />
    <path opacity="0.044" fill-rule="evenodd" clip-rule="evenodd"
        d="M3.73331 4.6814C4.33531 5.10054 4.8884 5.57461 5.39257 6.10362C5.55059 6.34066 5.74812 6.53819 5.98516 6.69621C6.9664 7.75647 7.99356 8.78363 9.06664 9.77769C9.14033 9.91122 9.23909 10.0297 9.36294 10.1332C9.38321 11.0629 9.44246 11.9716 9.54072 12.8592C9.94168 15.1293 10.9293 17.1046 12.5037 18.7851C12.8615 19.0644 13.217 19.3411 13.5703 19.6147C13.5905 19.7714 13.551 19.9097 13.4518 20.0295C12.756 20.23 12.2029 20.625 11.7926 21.2147C11.6362 21.2378 11.4782 21.218 11.3185 21.1555C11.2 20.9579 11.042 20.7999 10.8444 20.6814C8.33093 19.5289 6.61241 20.24 5.68887 22.8147C5.29637 24.007 5.07909 25.2317 5.03701 26.4888C4.73812 26.6668 4.73812 26.8248 5.03701 26.9629C5.32959 27.0597 5.64564 27.119 5.98516 27.1407C5.47732 27.3122 5.16127 27.648 5.03701 28.1481C4.58481 28.217 4.18975 28.1182 3.85183 27.8518C3.97914 27.7642 4.05816 27.6457 4.08887 27.4962C3.96252 26.6239 4.00204 25.7548 4.20738 24.8888C4.5063 23.7186 4.92111 22.5926 5.45183 21.511C7.07979 19.5672 8.99584 19.2116 11.2 20.4444C11.358 20.3653 11.4765 20.2468 11.5555 20.0888C10.6643 18.9807 9.8939 17.7955 9.24442 16.5332C8.67903 14.9667 8.38273 13.3469 8.35553 11.674C8.32214 11.1701 8.08511 10.8146 7.64442 10.6073C7.38426 10.0904 6.98919 9.71507 6.45924 9.4814C6.28825 9.01397 5.9722 8.67817 5.51109 8.47399C4.98338 7.96039 4.48956 7.4073 4.02961 6.81473C3.97999 6.67581 3.90098 6.5573 3.79257 6.45917C3.73339 5.8679 3.71365 5.2753 3.73331 4.6814Z"
        fill="#040404" />
    <path opacity="0.953" fill-rule="evenodd" clip-rule="evenodd"
        d="M28.1482 3.85181C28.2213 3.86493 28.2806 3.90443 28.3259 3.97033C28.3852 5.11532 28.4049 6.261 28.3852 7.40736C28.3121 7.39424 28.2528 7.35474 28.2074 7.28884C28.1523 7.45842 28.0535 7.5967 27.9111 7.70366C27.9506 7.74316 27.9902 7.78267 28.0297 7.82218C27.9146 7.96483 27.7961 8.02409 27.6741 7.99995C27.8055 8.17355 27.7463 8.29207 27.4963 8.35551C27.4569 8.31601 27.4173 8.27649 27.3778 8.23699C27.2416 8.54936 27.0243 8.7864 26.7259 8.9481C26.7507 9.01755 26.7903 9.07681 26.8445 9.12588C26.6564 9.22809 26.4588 9.30711 26.2519 9.36292C26.4099 9.58102 26.3901 9.64027 26.1926 9.5407C26.0628 9.68214 25.9641 9.84016 25.8963 10.0148C25.4529 9.08659 24.8998 8.21745 24.2371 7.40736C24.3763 7.43332 24.4948 7.39382 24.5926 7.28884C25.74 6.08702 26.9252 4.94134 28.1482 3.85181Z"
        fill="#CCCED1" />
    <path opacity="0.655" fill-rule="evenodd" clip-rule="evenodd"
        d="M5.39258 6.10376C5.70863 6.18278 5.90615 6.3803 5.98517 6.69635C5.74813 6.53833 5.5506 6.3408 5.39258 6.10376Z"
        fill="#929292" />
    <path fill-rule="evenodd" clip-rule="evenodd"
        d="M21.9852 6.22232C21.43 6.2177 20.8769 6.1782 20.3259 6.1038C19.8083 6.16417 19.2947 6.24319 18.7852 6.34083C19.0193 6.16176 19.2959 6.063 19.6148 6.04454C19.9309 6.02478 20.2468 6.00504 20.5629 5.98528C21.0698 5.96592 21.5439 6.04493 21.9852 6.22232Z"
        fill="#99A2B1" />
    <path fill-rule="evenodd" clip-rule="evenodd"
        d="M22.3407 9.06672C22.3013 9.06672 22.2617 9.06672 22.2222 9.06672C22.0358 8.86451 21.7988 8.72624 21.5111 8.65191C19.6647 8.19181 18.4401 8.84366 17.837 10.6075C17.4701 10.9969 17.3121 11.471 17.363 12.0297C17.3476 12.6947 17.5451 13.2873 17.9556 13.8075C17.6731 14.1679 17.3572 14.5038 17.0074 14.8149C16.8511 14.838 16.693 14.8182 16.5333 14.7556C16.4939 14.7556 16.4543 14.7556 16.4148 14.7556C16.1391 14.3796 15.8824 13.9845 15.6444 13.5704C15.5525 13.1688 15.4537 12.7737 15.3481 12.3852C15.3481 11.9506 15.3481 11.5161 15.3481 11.0815C16.282 7.96655 18.3758 6.56409 21.6296 6.87413C22.4032 7.03374 23.0946 7.36955 23.7037 7.88154C23.7828 8.00006 23.7828 8.11858 23.7037 8.23709C23.3566 8.53942 23.0208 8.85548 22.6963 9.18524C22.5876 9.11091 22.4691 9.07139 22.3407 9.06672Z"
        fill="#3C6595" />
    <path fill-rule="evenodd" clip-rule="evenodd"
        d="M21.9852 6.22228C22.7848 6.52803 23.5355 6.9231 24.237 7.40746C24.8998 8.21755 25.4529 9.08669 25.8963 10.0149C26.2113 12.5981 25.3026 14.5733 23.1704 15.9408C22.6028 16.3274 21.9707 16.525 21.2741 16.5334C20.5165 16.5631 19.7659 16.5237 19.0222 16.4149C17.986 16.1917 17.1564 15.6386 16.5333 14.7556C16.693 14.8182 16.8511 14.838 17.0074 14.8149C17.3571 14.5038 17.6731 14.1679 17.9555 13.8075C17.5451 13.2873 17.3475 12.6947 17.363 12.0297C17.3121 11.471 17.4701 10.9969 17.837 10.6075C17.5999 11.5147 17.7579 12.3444 18.3111 13.0964C19.2277 14.1623 20.3733 14.4586 21.7481 13.9852C23.7187 12.5452 23.9163 10.9057 22.3407 9.06672C22.4691 9.07139 22.5876 9.11091 22.6963 9.18524C23.0208 8.85548 23.3566 8.53942 23.7037 8.23709C23.7827 8.11857 23.7827 8.00006 23.7037 7.88154C23.0946 7.36955 22.4032 7.03374 21.6296 6.87413C18.3758 6.56409 16.2819 7.96655 15.3481 11.0815C15.3294 10.6783 15.369 10.2832 15.4667 9.89635C15.9554 8.14316 17.0616 6.95797 18.7852 6.3408C19.2947 6.24315 19.8083 6.16413 20.3259 6.10376C20.8769 6.17817 21.43 6.21767 21.9852 6.22228Z"
        fill="#4F678D" />
    <path fill-rule="evenodd" clip-rule="evenodd"
        d="M22.2223 9.06663C22.333 9.27268 22.333 9.47021 22.2223 9.65922C21.0269 10.8464 19.8417 12.0316 18.6667 13.2148C18.558 13.1405 18.4395 13.1009 18.3112 13.0963C17.7579 12.3443 17.5999 11.5146 17.8371 10.6074C18.4401 8.84357 19.6648 8.19172 21.5112 8.65182C21.7988 8.72615 22.0359 8.86442 22.2223 9.06663Z"
        fill="#ECEDEE" />
    <path fill-rule="evenodd" clip-rule="evenodd"
        d="M22.2223 9.06665C22.2617 9.06665 22.3013 9.06665 22.3408 9.06665C23.9164 10.9056 23.7188 12.5452 21.7482 13.9852C20.3734 14.4585 19.2278 14.1622 18.3112 13.0963C18.4395 13.1009 18.558 13.1405 18.6667 13.2148C19.8417 12.0316 21.0269 10.8465 22.2223 9.65924C22.333 9.47023 22.333 9.27269 22.2223 9.06665Z"
        fill="#C9CBCE" />
    <path fill-rule="evenodd" clip-rule="evenodd"
        d="M15.4666 9.89624C15.369 10.2831 15.3294 10.6782 15.3481 11.0814C15.3481 11.516 15.3481 11.9505 15.3481 12.3851C15.0756 11.6164 15.056 10.8263 15.2888 10.0148C15.3342 9.94886 15.3935 9.90936 15.4666 9.89624Z"
        fill="#A4B1C4" />
    <path opacity="0.173" fill-rule="evenodd" clip-rule="evenodd"
        d="M9.06665 9.77783C9.24649 9.77909 9.38477 9.85809 9.48147 10.0149C9.54069 10.9622 9.56045 11.9103 9.54072 12.8593C9.44247 11.9717 9.38321 11.0631 9.36295 10.1334C9.23909 10.0299 9.14033 9.91135 9.06665 9.77783Z"
        fill="#787878" />
    <path opacity="0.977" fill-rule="evenodd" clip-rule="evenodd"
        d="M28.3851 7.40734C28.3851 9.18511 28.3851 10.9629 28.3851 12.7407C28.1432 12.7826 27.926 12.7826 27.7333 12.7407C27.6248 12.8388 27.5459 12.9573 27.4962 13.0962C27.1572 13.0479 27.1374 13.1466 27.437 13.3925C27.3246 13.4498 27.2061 13.4694 27.0814 13.4518C27.114 14.0112 27.0152 14.0508 26.7851 13.5703C26.6088 13.8889 26.4903 14.2444 26.4296 14.637C26.2774 14.5099 26.2379 14.3519 26.3111 14.1629C26.2026 14.261 26.1237 14.3795 26.074 14.5184C26.0346 14.479 25.995 14.4394 25.9555 14.3999C26.0065 14.5928 26.0261 14.7705 26.0148 14.9333C25.8673 14.9873 25.7686 14.928 25.7185 14.7555C25.5479 14.9659 25.4294 15.2029 25.3629 15.4666C25.3234 15.3875 25.2839 15.3086 25.2444 15.2296C24.4234 16.0701 23.574 16.8997 22.6962 17.7184C22.8845 18.2218 22.7857 18.3403 22.4 18.074C22.1842 18.2048 22.0065 18.3826 21.8666 18.6073C21.6586 18.8153 21.4019 19.072 21.0962 19.3777C21.0422 19.5251 21.1015 19.6239 21.274 19.674C21.1218 19.7551 20.9835 19.7353 20.8592 19.6147C20.7522 19.7571 20.614 19.8559 20.4444 19.911C20.3582 20.0768 20.299 20.2546 20.2666 20.4444C19.995 20.3139 19.8172 20.4126 19.7333 20.7407C19.8123 20.7801 19.8913 20.8197 19.9703 20.8592C19.7838 20.901 19.5862 20.9801 19.3777 21.0962C19.3035 21.1851 19.2443 21.284 19.2 21.3925C19.1605 21.3531 19.1209 21.3135 19.0814 21.274C19.0448 21.424 18.9856 21.5624 18.9037 21.6888C19.7813 21.6728 20.6109 21.7715 21.3925 21.9851C20.642 21.9851 19.8913 21.9851 19.1407 21.9851C18.8246 21.9061 18.5086 21.8271 18.1925 21.7481C17.9349 21.5607 17.6584 21.3829 17.3629 21.2147C17.5102 20.9737 17.688 20.875 17.8962 20.9184C18.1461 20.3131 18.5609 19.8588 19.1407 19.5555C19.1012 19.516 19.0616 19.4764 19.0222 19.437C19.1345 19.3797 19.253 19.36 19.3777 19.3777C19.5856 18.9522 19.9016 18.6163 20.3259 18.3703C20.2864 18.3308 20.2468 18.2912 20.2074 18.2518C20.6356 17.8052 21.1491 17.3706 21.7481 16.9481C21.6485 16.7506 21.7078 16.7308 21.9259 16.8888C22.0829 16.5934 22.3396 16.455 22.6962 16.474C22.8968 16.3191 23.0548 16.1413 23.1703 15.9407C25.3026 14.5732 26.2113 12.598 25.8962 10.0147C25.964 9.84013 26.0628 9.68211 26.1925 9.54067C26.39 9.64025 26.4098 9.58099 26.2518 9.36289C26.4587 9.30708 26.6563 9.22807 26.8444 9.12586C26.7902 9.07679 26.7506 9.01753 26.7259 8.94808C27.0242 8.78637 27.2416 8.54933 27.3777 8.23697C27.4172 8.27647 27.4568 8.31598 27.4962 8.35549C27.7462 8.29204 27.8055 8.17352 27.674 7.99993C27.796 8.02406 27.9145 7.9648 28.0296 7.82215C27.9901 7.78265 27.9505 7.74314 27.9111 7.70363C28.0534 7.59667 28.1522 7.45839 28.2074 7.28882C28.2528 7.35471 28.312 7.39422 28.3851 7.40734Z"
        fill="#D2D6DA" />
    <path opacity="0.974" fill-rule="evenodd" clip-rule="evenodd"
        d="M28.3852 12.7407C28.3852 14.7161 28.3852 16.6913 28.3852 18.6666C27.2543 19.6959 26.0888 20.8021 24.8889 21.9852C24.8296 22.3605 24.6124 22.5778 24.237 22.637C24.0198 22.9333 23.7629 23.1901 23.4666 23.4074C23.4453 23.643 23.465 23.88 23.5259 24.1185C22.7785 23.4501 22.0674 22.7389 21.3926 21.9852C20.6109 21.7716 19.7813 21.6729 18.9037 21.6889C18.9856 21.5624 19.0448 21.4241 19.0815 21.2741C19.1209 21.3135 19.1605 21.3531 19.2 21.3926C19.2443 21.284 19.3036 21.1852 19.3778 21.0963C19.5862 20.9801 19.7838 20.9011 19.9704 20.8592C19.8913 20.8198 19.8124 20.7802 19.7333 20.7407C19.8172 20.4127 19.995 20.3139 20.2666 20.4444C20.299 20.2547 20.3583 20.0769 20.4444 19.9111C20.614 19.856 20.7522 19.7571 20.8592 19.6148C20.9836 19.7353 21.1219 19.7551 21.2741 19.6741C21.1015 19.6239 21.0422 19.5252 21.0963 19.3778C21.4019 19.0721 21.6586 18.8154 21.8666 18.6074C22.0065 18.3827 22.1843 18.2049 22.4 18.0741C22.7858 18.3404 22.8845 18.2218 22.6963 17.7185C23.574 16.8998 24.4234 16.0701 25.2444 15.2296C25.2839 15.3087 25.3235 15.3876 25.3629 15.4666C25.4294 15.2029 25.548 14.9659 25.7185 14.7555C25.7686 14.9281 25.8674 14.9874 26.0148 14.9333C26.0262 14.7706 26.0065 14.5928 25.9555 14.4C25.995 14.4394 26.0346 14.479 26.0741 14.5185C26.1237 14.3796 26.2026 14.2611 26.3111 14.1629C26.238 14.352 26.2774 14.51 26.4296 14.637C26.4903 14.2445 26.6088 13.8889 26.7852 13.5704C27.0152 14.0508 27.1141 14.0112 27.0815 13.4518C27.2061 13.4695 27.3247 13.4498 27.437 13.3926C27.1374 13.1466 27.1572 13.0479 27.4963 13.0963C27.5459 12.9574 27.6249 12.8389 27.7333 12.7407C27.926 12.7827 28.1433 12.7827 28.3852 12.7407Z"
        fill="#DADEE3" />
    <path fill-rule="evenodd" clip-rule="evenodd"
        d="M16.4148 14.7556C16.4542 14.7556 16.4938 14.7556 16.5333 14.7556C17.1563 15.6386 17.986 16.1917 19.0222 16.4149C19.0353 16.488 19.0748 16.5473 19.1407 16.5927C19.6318 16.6741 20.1257 16.7333 20.6222 16.7704C20.8942 16.7649 21.1115 16.6859 21.274 16.5334C21.9707 16.525 22.6027 16.3274 23.1703 15.9408C23.0548 16.1415 22.8968 16.3192 22.6963 16.4741C22.3396 16.4552 22.0829 16.5935 21.9259 16.8889C21.7078 16.731 21.6486 16.7508 21.7481 16.9482C21.1491 17.3707 20.6356 17.8053 20.2074 18.2519C20.2468 18.2914 20.2864 18.331 20.3259 18.3704C19.9016 18.6165 19.5856 18.9524 19.3777 19.3778C19.2531 19.3602 19.1345 19.3799 19.0222 19.4371C19.0616 19.4766 19.1012 19.5161 19.1407 19.5556C18.5609 19.8589 18.1461 20.3132 17.8963 20.9186C17.688 20.8751 17.5102 20.9738 17.3629 21.2149C17.6584 21.3831 17.9349 21.5608 18.1926 21.7482C17.7058 21.7929 17.2712 21.6744 16.8888 21.3927C16.1227 21.2073 15.4116 20.8912 14.7555 20.4445C14.3547 20.1675 13.9597 19.891 13.5703 19.6149C13.217 19.3412 12.8615 19.0646 12.5037 18.7852C12.705 18.8042 12.9026 18.7845 13.0963 18.726C14.219 17.6033 15.3449 16.4773 16.474 15.3482C16.5195 15.1471 16.4999 14.9496 16.4148 14.7556Z"
        fill="#CDD0D4" />
    <path fill-rule="evenodd" clip-rule="evenodd"
        d="M19.0222 16.4148C19.7659 16.5236 20.5165 16.5631 21.2741 16.5333C21.1116 16.6858 20.8942 16.7648 20.6222 16.7704C20.1257 16.7333 19.6319 16.674 19.1407 16.5926C19.0748 16.5472 19.0354 16.4879 19.0222 16.4148Z"
        fill="#8696AF" />
    <path opacity="0.962" fill-rule="evenodd" clip-rule="evenodd"
        d="M28.3852 18.6667C28.405 21.7485 28.3852 24.8299 28.326 27.9112C28.0319 28.1262 27.696 28.2051 27.3185 28.1482C27.1518 27.9339 27.0135 27.6969 26.9037 27.4371C25.7084 26.3798 24.5824 25.2737 23.526 24.1186C23.465 23.8801 23.4454 23.6431 23.4667 23.4075C23.763 23.1902 24.0198 22.9334 24.2371 22.6371C24.6124 22.5779 24.8297 22.3606 24.8889 21.9853C26.0888 20.8022 27.2543 19.696 28.3852 18.6667Z"
        fill="#E4E7EC" />
    <path opacity="0.232" fill-rule="evenodd" clip-rule="evenodd"
        d="M13.5703 19.6147C13.9597 19.8909 14.3547 20.1674 14.7555 20.4444C14.7555 20.5629 14.7555 20.6814 14.7555 20.7999C14.131 20.7569 13.5385 20.8558 12.9777 21.0962C12.6366 21.3781 12.3601 21.7139 12.1481 22.1036C12.0672 22.0606 11.9881 22.0211 11.9111 21.9851C11.7441 21.6921 11.5466 21.4156 11.3185 21.1555C11.4782 21.2181 11.6362 21.2379 11.7926 21.2147C12.2029 20.625 12.756 20.23 13.4518 20.0296C13.551 19.9097 13.5905 19.7714 13.5703 19.6147Z"
        fill="#282829" />
    <path opacity="0.996" fill-rule="evenodd" clip-rule="evenodd"
        d="M10.8444 20.6815C10.9555 21.1828 10.7579 21.4791 10.2518 21.5704C8.59254 23.2691 6.93328 24.968 5.27402 26.6667C5.11805 26.7293 5.03904 26.67 5.03699 26.4889C5.07906 25.2318 5.29634 24.0071 5.68884 22.8148C6.61238 20.2401 8.3309 19.529 10.8444 20.6815Z"
        fill="#EDEDED" />
    <path opacity="0.23" fill-rule="evenodd" clip-rule="evenodd"
        d="M14.7556 20.4443C15.4117 20.891 16.1228 21.2071 16.8889 21.3925C16.468 21.6046 15.9939 21.7232 15.4667 21.748C14.6954 21.378 14.0237 21.5558 13.4519 22.2814C13.3394 22.3545 13.2407 22.3348 13.1556 22.2221C13.1299 22.5762 13.0114 22.8923 12.8 23.1703C12.7606 23.6049 12.721 24.0394 12.6815 24.474C12.136 25.6181 11.3262 26.5466 10.2519 27.2592C9.86118 27.2373 9.62414 27.4151 9.54078 27.7925C9.46177 27.753 9.38276 27.7134 9.30375 27.674C9.13672 27.8338 8.9787 27.9918 8.82967 28.148C7.88153 28.148 6.93338 28.148 5.98523 28.148C6.06118 28.0317 6.14019 27.9131 6.22227 27.7925C6.5928 27.7351 6.90886 27.5771 7.17041 27.3184C6.99341 27.2424 6.87489 27.1239 6.81486 26.9629C7.45179 26.9601 8.08388 26.9009 8.71116 26.7851C9.21766 26.5445 9.75099 26.3667 10.3112 26.2517C12.0016 25.2701 12.5349 23.8478 11.9112 21.9851C11.9882 22.0211 12.0672 22.0606 12.1482 22.1036C12.3602 21.7139 12.6367 21.378 12.9778 21.0962C13.5385 20.8557 14.1311 20.7569 14.7556 20.7999C14.7556 20.6814 14.7556 20.5629 14.7556 20.4443Z"
        fill="#3C3F44" />
    <path fill-rule="evenodd" clip-rule="evenodd"
        d="M10.8444 20.6814C11.042 20.7999 11.2 20.9579 11.3185 21.1555C11.5466 21.4156 11.7441 21.6921 11.9111 21.9851C12.5349 23.8479 12.0015 25.2701 10.3111 26.2518C9.75094 26.3667 9.21761 26.5445 8.71111 26.7851C8.08384 26.9009 7.45174 26.9602 6.81481 26.9629C6.81836 26.8447 6.7591 26.7657 6.63704 26.7258C6.11195 26.8627 5.57862 26.9418 5.03704 26.9629C4.73814 26.8248 4.73814 26.6668 5.03704 26.4888C5.03909 26.6699 5.1181 26.7292 5.27407 26.6666C6.93333 24.9679 8.59259 23.269 10.2518 21.5703C10.758 21.479 10.9555 21.1827 10.8444 20.6814Z"
        fill="#C9CBCE" />
    <path opacity="0.172" fill-rule="evenodd" clip-rule="evenodd"
        d="M19.1407 21.9851C19.8913 21.9851 20.642 21.9851 21.3925 21.9851C22.0674 22.7389 22.7785 23.45 23.5259 24.1184C24.5824 25.2735 25.7083 26.3797 26.9037 27.437C27.0134 27.6968 27.1517 27.9338 27.3185 28.1481C26.7653 28.1481 26.2123 28.1481 25.6592 28.1481C25.6592 28.069 25.6592 27.9901 25.6592 27.911C25.2837 26.7256 24.6122 25.7775 23.6444 25.0666C23.4717 24.8144 23.3532 24.5378 23.2888 24.237C23.1309 24.237 22.9728 24.237 22.8148 24.237C22.7447 23.8679 22.5472 23.5716 22.2222 23.3481C21.8468 23.1308 21.4716 22.9135 21.0963 22.6962C19.9725 22.7181 18.8267 22.7181 17.6592 22.6962C16.9372 22.8598 16.2063 22.9783 15.4666 23.0518C14.2633 24.1944 13.1768 25.4192 12.2074 26.7258C11.6407 27.2745 11.0284 27.7485 10.3703 28.1481C10.2518 28.1481 10.1333 28.1481 10.0148 28.1481C10.9085 27.3541 11.7974 26.5245 12.6814 25.6592C12.9869 25.1097 13.1646 24.5171 13.2148 23.8814C13.3715 23.8613 13.5098 23.9007 13.6296 23.9999C14.1898 23.5189 14.6639 22.9657 15.0518 22.3407C15.3376 22.6494 15.6339 22.6494 15.9407 22.3407C16.2416 22.4136 16.5379 22.4926 16.8296 22.5777C17.9713 22.5698 19.1368 22.5698 20.3259 22.5777C20.6814 22.5184 21.037 22.4592 21.3925 22.3999C21.3384 22.3509 21.2988 22.2916 21.274 22.2221C20.5447 22.1431 19.8336 22.0642 19.1407 21.9851Z"
        fill="#4E5560" />
    <path opacity="0.132" fill-rule="evenodd" clip-rule="evenodd"
        d="M23.6444 25.0667C23.4325 25.1004 23.235 25.061 23.0518 24.9481C22.8148 24.5531 22.4987 24.237 22.1037 24C21.9987 23.9022 21.9592 23.7837 21.9852 23.6444C21.7089 23.6447 21.4719 23.5459 21.2741 23.3481C21.3135 23.3087 21.3531 23.2691 21.3926 23.2296C21.0221 23.1397 20.6467 23.0804 20.2667 23.0518C19.0897 23.1392 17.9637 23.2973 16.8889 23.5259C15.3214 25.0426 13.7806 26.5833 12.2667 28.1481C11.6346 28.1481 11.0025 28.1481 10.3704 28.1481C11.0284 27.7486 11.6407 27.2745 12.2074 26.7259C13.1769 25.4193 14.2633 24.1945 15.4667 23.0518C16.2063 22.9784 16.9372 22.8598 17.6593 22.6963C18.8268 22.7182 19.9725 22.7182 21.0963 22.6963C21.4716 22.9135 21.8469 23.1309 22.2222 23.3481C22.5472 23.5717 22.7448 23.868 22.8148 24.237C22.9728 24.237 23.1309 24.237 23.2889 24.237C23.3532 24.5378 23.4718 24.8145 23.6444 25.0667Z"
        fill="#515C6C" />
    <path opacity="0.077" fill-rule="evenodd" clip-rule="evenodd"
        d="M25.6592 27.9111C25.6592 27.9902 25.6592 28.0691 25.6592 28.1482C25.5013 28.1482 25.3431 28.1482 25.1852 28.1482C25.1805 28.0198 25.141 27.9013 25.0666 27.7926C24.8102 27.6843 24.5731 27.546 24.3555 27.3778C24.395 27.3383 24.4346 27.2987 24.474 27.2593C24.3382 27.1828 24.2197 27.0841 24.1185 26.963C23.7305 26.8952 23.3947 26.7372 23.1111 26.4889C22.5526 27.0275 22.0193 27.5806 21.5111 28.1482C20.2074 28.1482 18.9037 28.1482 17.6 28.1482C18.6327 26.9369 19.739 25.7715 20.9185 24.6519C21.1923 24.593 21.4688 24.5733 21.7481 24.5926C21.9233 24.558 22.1207 24.558 22.3407 24.5926C22.5999 24.8711 22.8962 25.1082 23.2296 25.3037C23.2868 25.4161 23.3065 25.5346 23.2889 25.6593C23.6444 25.6198 23.8024 25.7778 23.7629 26.1333C23.9022 26.1074 24.0207 26.1469 24.1185 26.2519C24.4761 26.9808 24.9896 27.5338 25.6592 27.9111Z"
        fill="#567397" />
    <path opacity="0.11" fill-rule="evenodd" clip-rule="evenodd"
        d="M23.6445 25.0666C24.6123 25.7774 25.2838 26.7256 25.6593 27.911C24.9897 27.5337 24.4761 26.9806 24.1186 26.2518C24.0208 26.1468 23.9023 26.1073 23.763 26.1332C23.8025 25.7777 23.6445 25.6197 23.2889 25.6592C23.3066 25.5345 23.2869 25.416 23.2297 25.3036C22.8963 25.1081 22.6 24.871 22.3408 24.5925C22.1208 24.5579 21.9234 24.5579 21.7482 24.5925C21.819 24.5646 21.8584 24.5054 21.8667 24.4147C21.6305 23.8758 21.2157 23.619 20.6223 23.6444C20.2261 23.7321 19.8705 23.89 19.5556 24.1184C19.3384 24.0986 19.121 24.079 18.9038 24.0592C17.5268 25.3763 16.2231 26.7392 14.9926 28.1481C14.084 28.1481 13.1754 28.1481 12.2667 28.1481C13.7807 26.5833 15.3214 25.0425 16.8889 23.5258C17.9638 23.2972 19.0897 23.1391 20.2667 23.0518C20.6468 23.0803 21.0222 23.1396 21.3926 23.2295C21.3532 23.269 21.3136 23.3086 21.2741 23.3481C21.4719 23.5459 21.709 23.6446 21.9852 23.6444C21.9593 23.7836 21.9988 23.9021 22.1038 23.9999C22.4988 24.2369 22.8149 24.553 23.0519 24.9481C23.235 25.0609 23.4326 25.1004 23.6445 25.0666Z"
        fill="#566479" />
    <path opacity="0.086" fill-rule="evenodd" clip-rule="evenodd"
        d="M21.7481 24.5927C21.4688 24.5734 21.1923 24.593 20.9185 24.6519C19.739 25.7716 18.6327 26.937 17.6 28.1482C16.7309 28.1482 15.8617 28.1482 14.9926 28.1482C16.223 26.7394 17.5267 25.3764 18.9037 24.0593C19.1209 24.0791 19.3383 24.0988 19.5555 24.1186C19.8704 23.8902 20.226 23.7322 20.6222 23.6445C21.2156 23.6192 21.6304 23.876 21.8666 24.4149C21.8583 24.5056 21.8189 24.5648 21.7481 24.5927Z"
        fill="#586D8A" />
    <path opacity="0.269" fill-rule="evenodd" clip-rule="evenodd"
        d="M6.81477 26.9629C6.87479 27.1239 6.99331 27.2425 7.17032 27.3184C6.90876 27.5771 6.59271 27.7351 6.22217 27.7925C6.1401 27.9131 6.06108 28.0317 5.98514 28.1481C5.66908 28.1481 5.35304 28.1481 5.03699 28.1481C5.16124 27.648 5.4773 27.3121 5.98514 27.1406C5.64562 27.119 5.32956 27.0597 5.03699 26.9629C5.57857 26.9418 6.1119 26.8627 6.63699 26.7258C6.75905 26.7657 6.81831 26.8447 6.81477 26.9629Z"
        fill="#1D1D1E" />
    <path opacity="0.037" fill-rule="evenodd" clip-rule="evenodd"
        d="M25.1852 28.148C23.9605 28.148 22.7358 28.148 21.5111 28.148C22.0193 27.5804 22.5526 27.0273 23.1111 26.4888C23.3947 26.7371 23.7305 26.8951 24.1185 26.9628C24.2197 27.084 24.3382 27.1827 24.4741 27.2591C24.4346 27.2986 24.395 27.3382 24.3556 27.3777C24.5732 27.5458 24.8102 27.6841 25.0667 27.7925C25.141 27.9012 25.1806 28.0197 25.1852 28.148Z"
        fill="#4E7AAC" />
    <path opacity="0.166" fill-rule="evenodd" clip-rule="evenodd"
        d="M16.8888 21.3926C17.2712 21.6743 17.7058 21.7928 18.1926 21.7481C18.5086 21.8272 18.8246 21.9061 19.1407 21.9852C19.8336 22.0642 20.5447 22.1432 21.274 22.2222C21.2988 22.2917 21.3384 22.3509 21.3926 22.4C21.037 22.4592 20.6814 22.5185 20.3259 22.5778C19.1368 22.5698 17.9713 22.5698 16.8296 22.5778C16.5379 22.4927 16.2416 22.4136 15.9407 22.3407C15.6339 22.6495 15.3376 22.6495 15.0518 22.3407C14.6639 22.9658 14.1898 23.5189 13.6296 24C13.5098 23.9008 13.3715 23.8613 13.2148 23.8815C13.1646 24.5172 12.9869 25.1098 12.6814 25.6592C11.7974 26.5245 10.9085 27.3542 10.0148 28.1481C9.61972 28.1481 9.22465 28.1481 8.82959 28.1481C8.97862 27.9919 9.13664 27.8339 9.30366 27.6741C9.38268 27.7135 9.46168 27.7531 9.5407 27.7926C9.62406 27.4152 9.86109 27.2374 10.2518 27.2592C11.3261 26.5467 12.1359 25.6182 12.6814 24.4741C12.7209 24.0395 12.7605 23.605 12.8 23.1704C13.0113 22.8924 13.1298 22.5763 13.1555 22.2222C13.2406 22.3349 13.3393 22.3546 13.4518 22.2815C14.0237 21.5559 14.6953 21.3781 15.4666 21.7481C15.9938 21.7232 16.4679 21.6047 16.8888 21.3926Z"
        fill="#474C55" />
</svg>