<svg width="32" height="32" viewBox="0 0 33 33" fill="none" xmlns="http://www.w3.org/2000/svg">
    <path fill-rule="evenodd" clip-rule="evenodd"
        d="M23.1558 0.5C23.2884 0.5 23.4207 0.5 23.5533 0.5C24.5296 3.85583 25.2252 7.29174 25.6402 10.8077C25.7728 13.3274 25.7728 15.8471 25.6402 18.3667C25.557 19.2582 25.3914 20.0981 25.1433 20.8864C25.1763 19.8909 25.1431 18.8983 25.044 17.9086C23.9433 14.0496 22.7837 10.2319 21.5658 6.45558C21.7914 5.94131 21.8907 5.40685 21.8639 4.85215C21.2525 6.39584 20.6231 7.92292 19.9757 9.43337C19.8203 7.77872 19.4228 6.13711 18.7832 4.50856C18.9432 4.25369 19.0758 3.98644 19.1807 3.70685C20.5058 2.6379 21.8307 1.56895 23.1558 0.5Z"
        fill="#B8E16A" />
    <path fill-rule="evenodd" clip-rule="evenodd"
        d="M19.1808 3.70703C19.0759 3.98662 18.9433 4.25387 18.7833 4.50874C19.4229 6.1373 19.8204 7.77891 19.9758 9.43355C18.5722 13.0508 17.1145 16.6394 15.6032 20.1994C15.4953 20.1857 15.4291 20.1093 15.4045 19.9703C15.537 19.6649 15.6694 19.3595 15.802 19.0541C14.8931 15.9494 13.9655 12.8571 13.0194 9.77714C13.1653 9.19058 13.4302 8.69428 13.8144 8.28824C15.3782 6.40951 17.167 4.88243 19.1808 3.70703Z"
        fill="#B5E162" />
    <path fill-rule="evenodd" clip-rule="evenodd"
        d="M21.5658 6.45557C22.7838 10.2319 23.9433 14.0496 25.044 17.9086C25.1432 18.8983 25.1764 19.8909 25.1434 20.8864C24.8911 22.8272 24.3613 24.6597 23.5533 26.3838C23.2739 26.4922 23.1413 26.7212 23.1558 27.071C22.7011 27.9772 22.1048 28.7406 21.367 29.3616C20.1057 25.2296 18.847 21.1064 17.5907 16.9924C18.814 13.411 20.1391 9.89871 21.5658 6.45557Z"
        fill="#B8E367" />
    <path fill-rule="evenodd" clip-rule="evenodd"
        d="M13.8144 8.28822C13.4302 8.69426 13.1653 9.19056 13.0194 9.77712C13.9655 12.8571 14.8931 15.9494 15.802 19.0541C15.6694 19.3595 15.537 19.6649 15.4045 19.9703C15.4291 20.1093 15.4953 20.1856 15.6032 20.1994C14.5119 23.1721 13.3193 26.0736 12.0257 28.9037C11.9595 28.9037 11.8931 28.9037 11.8269 28.9037C9.96417 27.9054 8.80484 26.2257 8.34869 23.8643C8.21613 22.3373 8.21613 20.8102 8.34869 19.2831C8.73328 18.5027 8.89885 17.6629 8.84558 16.7635C9.79106 13.5527 11.3149 10.7658 13.4169 8.40275C13.535 8.2964 13.6676 8.25822 13.8144 8.28822Z"
        fill="#AFDC5A" />
    <path opacity="0.047" fill-rule="evenodd" clip-rule="evenodd"
        d="M1.49165 15.1601C1.23764 15.2247 1.03889 15.3774 0.895386 15.6182C0.895386 15.3891 0.895386 15.1601 0.895386 14.931C1.15198 14.8767 1.35073 14.953 1.49165 15.1601Z"
        fill="#18200E" />
    <path fill-rule="evenodd" clip-rule="evenodd"
        d="M21.5658 6.45548C20.1392 9.89862 18.8141 13.4109 17.5908 16.9923C15.9566 21.1433 14.3666 25.3429 12.8207 29.5906C12.4768 29.4701 12.2117 29.2411 12.0256 28.9034C13.3193 26.0734 14.5119 23.1719 15.6032 20.1991C17.1145 16.6391 18.5722 13.0505 19.9758 9.43326C20.6232 7.92281 21.2526 6.39574 21.864 4.85205C21.8908 5.40674 21.7914 5.94121 21.5658 6.45548Z"
        fill="#96CC4A" />
    <path fill-rule="evenodd" clip-rule="evenodd"
        d="M1.49164 15.1597C3.83277 16.1842 6.05226 17.4822 8.14991 19.0537C8.32442 18.24 8.55617 17.4765 8.84555 16.7631C8.89882 17.6625 8.73326 18.5024 8.34867 19.2828C8.2161 20.8098 8.2161 22.3369 8.34867 23.864C8.80481 26.2254 9.96414 27.9051 11.8269 28.9033C10.1482 30.1393 8.42558 31.3226 6.65925 32.4537C6.32197 32.5417 5.99084 32.5037 5.66548 32.3392C4.66316 32.0476 3.83515 31.4369 3.18105 30.5067C1.36622 27.4879 0.47183 24.1283 0.497867 20.4281C0.591281 18.818 0.723652 17.2146 0.895376 15.6178C1.03888 15.377 1.23763 15.2243 1.49164 15.1597Z"
        fill="#7DBB42" />
    <path fill-rule="evenodd" clip-rule="evenodd"
        d="M17.5908 16.9922C18.8471 21.1063 20.1058 25.2294 21.3671 29.3615C19.0789 31.9492 16.4951 32.4455 13.6157 30.8504C13.3752 30.6124 13.1764 30.345 13.0194 30.0486C12.9532 29.8959 12.8869 29.7433 12.8207 29.5905C14.3666 25.3428 15.9566 21.1433 17.5908 16.9922Z"
        fill="#B1DC5D" />
    <path opacity="0.97" fill-rule="evenodd" clip-rule="evenodd"
        d="M32.4973 21.8027C32.4973 22.1845 32.4973 22.5662 32.4973 22.948C31.9619 22.7783 31.4318 22.8928 30.9073 23.2916C29.8473 24.2841 28.7872 25.2769 27.7272 26.2694C27.8936 26.501 27.9598 26.7683 27.926 27.0711C26.3359 27.3764 24.7459 27.3764 23.1559 27.0711C23.1413 26.7213 23.2739 26.4923 23.5534 26.3839C24.5493 26.4219 25.5431 26.3837 26.5347 26.2694C28.3038 24.9944 29.9602 23.5438 31.5035 21.9172C31.8611 21.6798 32.1924 21.6417 32.4973 21.8027Z"
        fill="#323231" />
</svg>