<svg width="32" height="32" viewBox="0 0 32 32" fill="none" xmlns="http://www.w3.org/2000/svg">
<path d="M5.81827 17.4546H2.90918V20.3637H5.81827V17.4546Z" fill="#0855F4"/>
<path d="M5.81827 0H2.90918V14.5455H5.81827V0Z" fill="#0855F4"/>
<path d="M5.81827 23.2729H2.90918V26.182H5.81827V23.2729Z" fill="#0855F4"/>
<path d="M5.81827 29.0908H2.90918V31.9999H5.81827V29.0908Z" fill="#0855F4"/>
<path d="M11.6364 0H8.72729V14.5455H11.6364V0Z" fill="#4495FA"/>
<path d="M11.6364 29.0908H8.72729V31.9999H11.6364V29.0908Z" fill="#4495FA"/>
<path d="M11.6364 17.4546H8.72729V20.3637H11.6364V17.4546Z" fill="#4495FA"/>
<path d="M11.6364 23.2729H8.72729V26.182H11.6364V23.2729Z" fill="#4495FA"/>
<path d="M17.4545 29.0908H14.5454V31.9999H17.4545V29.0908Z" fill="#25CDE8"/>
<path d="M17.4545 23.2729H14.5454V26.182H17.4545V23.2729Z" fill="#25CDE8"/>
<path d="M17.4545 17.4546H14.5454V20.3637H17.4545V17.4546Z" fill="#25CDE8"/>
<path d="M17.4545 0H14.5454V14.5455H17.4545V0Z" fill="#25CDE8"/>
<path d="M2.90909 14.5454H0V17.4545H2.90909V14.5454Z" fill="#25CDE8"/>
<path d="M8.72721 14.5454H5.81812V17.4545H8.72721V14.5454Z" fill="#25CDE8"/>
<path d="M32 14.5454H17.4546V17.4545H32V14.5454Z" fill="#25CDE8"/>
<path d="M14.5456 14.5454H11.6365V17.4545H14.5456V14.5454Z" fill="#25CDE8"/>
<path d="M5.81827 14.5454H2.90918V17.4545H5.81827V14.5454Z" fill="#003CD2"/>
<path d="M11.6364 14.5454H8.72729V17.4545H11.6364V14.5454Z" fill="#0078E3"/>
<path d="M17.4545 14.5454H14.5454V17.4545H17.4545V14.5454Z" fill="#00A4D2"/>
<path d="M32 20.3638H17.4546V23.2729H32V20.3638Z" fill="#4495FA"/>
<path d="M2.90909 20.3638H0V23.2729H2.90909V20.3638Z" fill="#4495FA"/>
<path d="M14.5456 20.3638H11.6365V23.2729H14.5456V20.3638Z" fill="#4495FA"/>
<path d="M8.72721 20.3638H5.81812V23.2729H8.72721V20.3638Z" fill="#4495FA"/>
<path d="M5.81827 20.3638H2.90918V23.2729H5.81827V20.3638Z" fill="#003CD2"/>
<path d="M11.6364 20.3638H8.72729V23.2729H11.6364V20.3638Z" fill="#0855F4"/>
<path d="M17.4545 20.3638H14.5454V23.2729H17.4545V20.3638Z" fill="#0078E3"/>
<path d="M14.5456 26.1816H11.6365V29.0907H14.5456V26.1816Z" fill="#0855F4"/>
<path d="M32 26.1816H17.4546V29.0907H32V26.1816Z" fill="#0855F4"/>
<path d="M8.72721 26.1816H5.81812V29.0907H8.72721V26.1816Z" fill="#0855F4"/>
<path d="M2.90909 26.1816H0V29.0907H2.90909V26.1816Z" fill="#0855F4"/>
<path d="M5.81827 26.1816H2.90918V29.0907H5.81827V26.1816Z" fill="#0000D1"/>
<path d="M11.6364 26.1816H8.72729V29.0907H11.6364V26.1816Z" fill="#003CD2"/>
<path d="M17.4545 26.1816H14.5454V29.0907H17.4545V26.1816Z" fill="#003CD2"/>
</svg>
