<svg width="32" height="32" viewBox="0 0 32 32" fill="none" xmlns="http://www.w3.org/2000/svg">
<g clip-path="url(#clip0_3468_308)">
<path fill-rule="evenodd" clip-rule="evenodd" d="M0.996187 26.3769C0.596648 26.5972 0.274658 26.4026 0.274658 25.9493V6.86188C0.274658 6.40756 0.596648 6.21299 0.996187 6.43324L18.1116 16.0036C18.5111 16.2239 18.5111 16.5873 18.1116 16.8076L0.996187 26.3769ZM27.9365 26.7839C27.8148 26.7839 27.6921 26.7463 27.5861 26.6693C27.319 26.4737 27.2601 26.0984 27.4535 25.8298C29.4443 23.0742 30.4957 19.815 30.4957 16.4056C30.4957 12.9952 29.4443 9.73596 27.4535 6.9804C27.2601 6.71176 27.319 6.33644 27.5861 6.14188C27.8531 5.94632 28.2261 6.00558 28.4205 6.27423C30.5595 9.23719 31.6904 12.7404 31.6904 16.4056C31.6904 20.0708 30.5595 23.574 28.4205 26.536C28.3027 26.6979 28.1211 26.7839 27.9365 26.7839ZM20.3481 22.5408C20.2009 22.5408 20.0536 22.4865 19.9378 22.3759C19.6982 22.1477 19.6884 21.7675 19.9152 21.5275C21.2238 20.1368 21.9443 18.3176 21.9443 16.4055C21.9443 14.4934 21.2238 12.6741 19.9152 11.2835C19.6884 11.0425 19.6982 10.6623 19.9378 10.4341C20.1773 10.206 20.5552 10.2168 20.782 10.4578C22.3016 12.0717 23.138 14.1842 23.138 16.4055C23.138 18.6267 22.3016 20.7383 20.782 22.3531C20.6642 22.4776 20.5062 22.5408 20.3481 22.5408ZM24.2421 24.7182C24.1125 24.7182 23.982 24.6757 23.872 24.5888C23.6138 24.3824 23.5697 24.0051 23.7738 23.7444C25.4338 21.6337 26.3105 19.0964 26.3105 16.4051C26.3105 13.7147 25.4338 11.1764 23.7738 9.06583C23.5697 8.80509 23.6138 8.4278 23.872 8.22237C24.1312 8.01595 24.5062 8.0604 24.7113 8.32015C26.5382 10.6451 27.5042 13.4411 27.5042 16.4051C27.5042 19.369 26.5382 22.1651 24.7113 24.49C24.5926 24.6402 24.4188 24.7182 24.2421 24.7182Z" fill="url(#paint0_linear_3468_308)"/>
</g>
<defs>
<linearGradient id="paint0_linear_3468_308" x1="15.9825" y1="6.02661" x2="15.9825" y2="26.7839" gradientUnits="userSpaceOnUse">
<stop stop-color="#FF5D01"/>
<stop offset="1" stop-color="#F2AD39"/>
</linearGradient>
<clipPath id="clip0_3468_308">
<rect width="32" height="20.9383" fill="white" transform="translate(0 6)"/>
</clipPath>
</defs>
</svg>
