<svg width="32" height="32" viewBox="0 0 32 32" fill="none" xmlns="http://www.w3.org/2000/svg">
    <path
        d="M18.8499 11.4916C19.7376 13.1845 20.1902 15.7074 20.1902 19.06V32.2717H17.3705V19.7571C17.3705 17.7322 17.1442 16.2385 16.6742 15.2094C16.2043 14.1804 15.5429 13.6824 14.6553 13.6824C13.698 13.6824 12.9496 14.28 12.3752 15.475C11.8008 16.67 11.5223 18.363 11.5223 20.587V32.2717H8.68524V19.7571C8.68524 17.7322 8.45896 16.2385 7.989 15.2094C7.5191 14.1804 6.8577 13.6824 5.97002 13.6824C5.01272 13.6824 4.24689 14.28 3.67251 15.4418C3.11554 16.6368 2.81965 18.3298 2.81965 20.587V32.2717H0V9.23433H2.69782V12.1554C3.15036 11.1265 3.70732 10.3298 4.38613 9.7986C5.06494 9.26752 5.81335 8.96874 6.64881 8.96874C7.55388 8.96874 8.35451 9.30071 9.05075 9.93145C9.74698 10.5621 10.3039 11.5248 10.7042 12.7862C11.209 11.5912 11.8356 10.6285 12.6188 9.96463C13.4021 9.30071 14.2723 8.93555 15.2122 8.93555C16.7613 8.96874 17.9623 9.83179 18.8499 11.4916Z"
        fill="#035268" />
    <path
        d="M30.7612 11.5249C31.5923 13.2178 32 15.7406 32 19.0602V32.2717H29.4597V19.7572C29.4597 17.7323 29.2398 16.2385 28.7853 15.2095C28.3304 14.1805 27.7032 13.6825 26.8722 13.6825C25.9312 13.6825 25.1941 14.28 24.6452 15.475C24.0964 16.67 23.8298 18.3962 23.8298 20.6203V32.2717H21.2895V0.271729H23.8298V11.9232C24.2535 10.9605 24.7708 10.2634 25.3824 9.73231C25.994 9.23441 26.6839 8.96883 27.4522 8.96883C28.8321 8.96883 29.9297 9.83186 30.7612 11.5249Z"
        fill="#4C8695" />
</svg>