<svg width="32" height="32" viewBox="0 0 32 33" fill="none" xmlns="http://www.w3.org/2000/svg">
    <path fill-rule="evenodd" clip-rule="evenodd"
        d="M20.2155 14.2772L16.7635 21.1623H15.0666L11.6328 14.2772V22.2074H8.78613V9.6084H12.6381L15.9248 16.5295L19.2285 9.6084H23.0635V22.2074H20.2155V14.2772Z"
        fill="#28132C" />
    <mask id="mask0_732_622" style="mask-type:luminance" maskUnits="userSpaceOnUse" x="0" y="0"
        width="32" height="33">
        <path d="M0 0.706543H32V32.7065H0V0.706543Z" fill="white" />
    </mask>
    <g mask="url(#mask0_732_622)">
        <path fill-rule="evenodd" clip-rule="evenodd"
            d="M7.6796 32.7068L13.477 31.2168C14.3 31.341 15.1406 31.4073 16 31.4073C18.2089 31.4073 20.3147 30.9781 22.2284 30.2018C24.1432 29.4243 25.8671 28.3008 27.3133 26.9109C28.7608 25.5222 29.9331 23.8683 30.7423 22.0324C31.5527 20.1953 32 18.1761 32 16.0569C32 13.9377 31.5527 11.9186 30.7423 10.0814C29.9331 8.24551 28.7608 6.59162 27.3133 5.20292C25.8671 3.81302 24.1432 2.69074 22.2284 1.91321C20.3147 1.13689 18.2089 0.706543 16 0.706543C13.7911 0.706543 11.6853 1.13689 9.77163 1.91321C7.85802 2.69074 6.13413 3.81302 4.68667 5.20292C3.2392 6.59162 2.06691 8.24551 1.25774 10.0814C0.447306 11.9186 0 13.9377 0 16.0569C0 18.1761 0.447306 20.1953 1.25774 22.0324C2.06691 23.8683 3.2392 25.5222 4.68667 26.9109C5.32496 27.5245 6.02105 28.0826 6.75985 28.5853L8.23873 26.1274C7.72106 25.7585 7.23229 25.3535 6.76991 24.9123C5.56997 23.761 4.62887 22.4218 3.97173 20.9306C3.29197 19.3888 2.94644 17.7494 2.94644 16.0569C2.94644 14.3657 3.29197 12.7262 3.97173 11.1844C4.62887 9.69207 5.56997 8.354 6.76991 7.20279C7.96984 6.05157 9.36705 5.14868 10.9201 4.51701C12.5271 3.86486 14.2372 3.53456 16 3.53456C17.7628 3.53456 19.4729 3.86486 21.0799 4.51701C22.6329 5.14868 24.0302 6.05157 25.2301 7.20279C26.43 8.354 27.3711 9.69207 28.0283 11.1844C28.708 12.7262 29.0536 14.3657 29.0536 16.0569C29.0536 17.7494 28.708 19.3888 28.0283 20.9306C27.3711 22.4218 26.43 23.761 25.2301 24.9123C24.0302 26.0623 22.6329 26.9664 21.0799 27.5968C19.4729 28.249 17.7628 28.5793 16 28.5793C14.2372 28.5793 12.5271 28.249 10.9201 27.5968C10.8761 27.5787 10.8346 27.5582 10.7919 27.5414L7.6796 32.7068Z"
            fill="#28132C" />
    </g>
</svg>