<svg width="33" height="33" viewBox="0 0 33 33" fill="none" xmlns="http://www.w3.org/2000/svg">
    <path
        d="M8.48992 0.473271C5.65161 0.820674 3.0834 2.72225 1.71918 5.48775C1.33463 6.26941 1.15609 6.74937 0.96382 7.52646C0.647944 8.78351 0.661678 8.32183 0.661678 16.3761C0.661678 24.4715 0.643366 24.0098 0.977554 25.3354C1.4445 27.1821 2.56151 29.038 3.912 30.2173C5.30826 31.4287 6.95631 32.1646 8.70508 32.352C9.31394 32.416 24.0091 32.416 24.6179 32.352C26.266 32.1738 27.8545 31.5064 29.1134 30.455C31.0545 28.8369 32.2402 26.6199 32.6018 23.9641C32.6476 23.5984 32.6613 22.0854 32.6613 16.3304C32.6613 8.33554 32.6796 8.78808 32.3454 7.46246C31.8785 5.61574 30.7615 3.75988 29.411 2.58054C28.0147 1.3692 26.3667 0.63326 24.6179 0.445845C23.8992 0.372708 9.13083 0.390992 8.48992 0.473271ZM13.8735 8.5321C14.7983 8.72865 15.723 9.14005 16.3182 9.61544L16.6295 9.85771L16.8629 9.66115C17.4443 9.17205 18.1173 8.83379 18.9505 8.60981C19.5135 8.46353 19.9027 8.42239 20.7816 8.42696C21.5187 8.42696 21.7567 8.44525 22.1367 8.52753C23.3819 8.79722 24.3707 9.30918 25.0482 10.0406C25.6296 10.6668 25.9409 11.2839 26.1744 12.285C26.2339 12.5364 26.2477 13.2312 26.2614 16.6869C26.2797 20.8603 26.2705 21.1117 26.1057 21.4591C25.8631 21.9757 25.1352 22.3276 24.2151 22.3733C23.7802 22.3962 23.7252 22.3916 23.6199 22.3048L23.5055 22.2134L23.4826 17.464L23.4597 12.7192L23.3498 12.4449C23.0889 11.7867 22.6265 11.357 21.9307 11.1193C21.0014 10.8039 20.1087 10.8725 19.248 11.3159C18.6987 11.6039 18.2821 12.1113 18.1173 12.7055C18.0807 12.8472 18.0578 14.0494 18.0395 17.0617L18.012 21.2214L17.8884 21.4546C17.7373 21.7425 17.5038 21.9528 17.1422 22.1219C16.5883 22.3779 15.6406 22.4739 15.4117 22.2956L15.2927 22.1996L15.279 17.528C15.2652 13.1398 15.2561 12.8426 15.1783 12.6049C14.9585 11.9513 14.6106 11.5353 14.0429 11.261C13.5485 11.0188 13.2006 10.9411 12.5872 10.9411C11.9783 10.9411 11.6349 11.0142 11.1405 11.2565C10.582 11.5307 10.1929 11.9376 9.97316 12.4907L9.86329 12.7649L9.8404 16.9475L9.81751 21.13L9.69849 21.3814C9.54284 21.7151 9.33683 21.9071 8.94771 22.0945C8.54943 22.2865 8.10079 22.3871 7.62927 22.3871C7.30881 22.3871 7.25846 22.3733 7.16232 22.2728L7.04787 22.1631V17.624C7.04787 14.8676 7.06618 12.9249 7.09365 12.6735C7.35917 10.3422 8.93397 8.83836 11.5113 8.46353C12.1065 8.37668 13.3105 8.41325 13.8735 8.5321Z"
        fill="#004DCA" />
</svg>