<svg width="32" height="32" viewBox="0 0 32 32" fill="none" xmlns="http://www.w3.org/2000/svg">
<g clip-path="url(#clip0_3889_227)">
<path d="M20.1149 20.5261H17.9206L17.7374 20.3429V15.2064C17.7374 14.2926 17.3783 13.5842 16.2762 13.5595C15.709 13.5446 15.0602 13.5595 14.3667 13.5867L14.2627 13.6932V15.7686V20.3404L14.0794 20.5236H11.8852L11.7019 20.3404V11.5658L11.8852 11.3826H16.8235C18.7429 11.3826 20.2982 12.9379 20.2982 14.8572V20.3429L20.1149 20.5261Z" fill="#014847"/>
<path d="M8.64827 25.3877H8.34612L6.83789 23.8794V23.5773L9.14359 21.2716H10.741L10.954 21.4846V23.082L8.64827 25.3877Z" fill="#05BDBA"/>
<path d="M6.83789 8.32895V8.0268L8.34612 6.51855H8.64827L10.954 8.82425V10.4217L10.741 10.6347H9.14359L6.83789 8.32895Z" fill="#05BDBA"/>
<path d="M8.9603 17.2373H0.183268L0 17.054V14.8548L0.183268 14.6715H8.9603L9.14357 14.8548V17.054L8.9603 17.2373Z" fill="#05BDBA"/>
<path d="M31.8193 17.2373H23.0422L22.8589 17.054V14.8548L23.0422 14.6715H31.8193L32.0025 14.8548V17.054L31.8193 17.2373Z" fill="#05BDBA"/>
<path d="M14.7358 8.64105V2.05827L14.9191 1.875H17.1183L17.3016 2.05827V8.64105L17.1183 8.8243H14.9191L14.7358 8.64105Z" fill="#05BDBA"/>
<path d="M14.7358 29.8505V23.2677L14.9191 23.0845H17.1183L17.3016 23.2677V29.8505L17.1183 30.0337H14.9191L14.7358 29.8505Z" fill="#05BDBA"/>
</g>
<defs>
<clipPath id="clip0_3889_227">
<rect width="32" height="28.25" fill="white" transform="translate(0 1.875)"/>
</clipPath>
</defs>
</svg>
