<svg width="32" height="32" viewBox="0 0 33 33" fill="none" xmlns="http://www.w3.org/2000/svg">
    <path opacity="0.752" fill-rule="evenodd" clip-rule="evenodd"
        d="M14.0258 0.5C14.2457 0.5 14.4656 0.5 14.6856 0.5C15.7493 1.96306 16.9039 2.07417 18.1495 0.833333C18.7859 1.56156 18.6209 2.11712 17.6546 2.5C18.6342 3.57257 19.7339 3.73924 20.9536 3C20.1806 2.39744 19.9607 1.67522 20.2938 0.833333C21.054 1.47703 21.6589 2.25481 22.1082 3.16667C22.8137 2.74363 23.5285 2.74363 24.2526 3.16667C23.8521 3.6897 23.3022 3.96748 22.6031 4C23.1421 5.3813 24.1318 5.9924 25.5722 5.83333C25.6321 5.1362 25.5221 4.46953 25.2423 3.83333C25.5144 3.53811 25.8443 3.427 26.232 3.5C26.3258 4.41793 26.5458 5.30683 26.8918 6.16667C30.4093 7.0407 30.4093 7.48513 26.8918 7.5C27.0302 8.91807 27.745 9.91807 29.0361 10.5C29.1989 9.9553 29.2539 9.39973 29.201 8.83333C29.5309 8.83333 29.8608 8.83333 30.1907 8.83333C30.2128 9.46693 30.1028 10.078 29.8608 10.6667C30.5585 11.4095 31.3282 12.0762 32.1701 12.6667C31.9968 12.8975 31.7769 13.0641 31.5103 13.1667C30.9058 12.9172 30.356 12.5838 29.8608 12.1667C29.5908 12.7028 29.3709 13.2583 29.201 13.8333C29.5859 14.3889 29.9708 14.9444 30.3557 15.5C30.692 15.1043 31.0769 14.7709 31.5103 14.5C31.6203 14.6667 31.7303 14.8333 31.8402 15C31.6203 15.5556 31.4004 16.1111 31.1804 16.6667C31.5768 17.4113 32.0166 18.1335 32.5 18.8333C32.39 19.1667 32.1701 19.3889 31.8402 19.5C31.2819 18.8805 30.787 18.2138 30.3557 17.5C29.9708 18.1111 29.5859 18.7222 29.201 19.3333C29.4481 19.9112 29.613 20.5223 29.6959 21.1667C30.0767 20.7522 30.5166 20.4189 31.0155 20.1667C31.2439 20.3418 31.4088 20.564 31.5103 20.8333C30.8966 21.3129 30.3468 21.8684 29.8608 22.5C30.0608 23.2365 30.2807 23.9587 30.5206 24.6667C30.3473 24.8975 30.1274 25.0641 29.8608 25.1667C29.4095 24.4543 29.0796 23.6766 28.8711 22.8333C28.4047 23.208 27.9098 23.5413 27.3866 23.8333C27.2725 24.4061 27.1075 24.9616 26.8918 25.5C27.3126 25.8815 27.7525 25.8815 28.2113 25.5C28.62 26.0024 28.51 26.3913 27.8814 26.6667C27.4548 26.83 27.0149 26.8856 26.5619 26.8333C26.71 27.6592 26.4901 28.3258 25.9021 28.8333C25.588 28.3182 25.4781 27.7627 25.5722 27.1667C23.9279 27.1077 23.1581 27.83 23.2629 29.3333C23.802 29.4978 24.3518 29.5534 24.9124 29.5C24.9124 29.8333 24.9124 30.1667 24.9124 30.5C23.925 30.2885 22.9353 30.2329 21.9433 30.3333C21.6846 31.3326 21.1348 31.6104 20.2938 31.1667C20.472 30.7506 20.692 30.3617 20.9536 30C19.7098 29.2405 18.6102 29.4071 17.6546 30.5C18.4487 30.9684 18.9986 31.635 19.3041 32.5C18.9742 32.5 18.6443 32.5 18.3144 32.5C17.7697 32.01 17.1648 31.5655 16.5 31.1667C15.9358 31.6483 15.331 31.9261 14.6856 32C14.5347 31.862 14.4247 31.6953 14.3557 31.5C15.6349 30.8664 15.6349 30.2553 14.3557 29.6667C13.5404 29.4312 12.7706 29.5423 12.0464 30C12.5266 30.5816 12.9665 31.1927 13.366 31.8333C13.201 31.9444 13.0361 32.0556 12.8711 32.1667C12.0854 31.7521 11.4806 31.141 11.0567 30.3333C10.4165 30.0857 9.8117 30.1413 9.24227 30.5C9.11882 30.1946 8.95387 29.9168 8.74742 29.6667C9.32355 29.5097 9.87336 29.2875 10.3969 29C9.82213 27.7094 8.83244 27.0982 7.42783 27.1667C7.48527 27.9537 7.59522 28.7315 7.75773 29.5C7.42783 29.5 7.09794 29.5 6.76804 29.5C6.57287 28.6243 6.46292 27.7354 6.43814 26.8333C5.38181 26.7432 4.39212 26.4654 3.46907 26C3.7208 25.6855 4.05068 25.5188 4.45876 25.5C4.99805 25.6821 5.54788 25.7932 6.10825 25.8333C6.14084 24.4244 5.53604 23.4244 4.29381 22.8333C3.90183 23.1878 3.73689 23.6322 3.79897 24.1667C3.46907 24.1667 3.13918 24.1667 2.80928 24.1667C2.97879 23.4961 3.03377 22.8295 2.97423 22.1667C2.22971 21.6515 1.51493 21.0959 0.829897 20.5C0.939862 20.1667 1.15979 19.9444 1.48969 19.8333C2.12372 20.237 2.72853 20.6814 3.30412 21.1667C4.119 19.7494 3.89907 18.5272 2.64433 17.5C2.34484 18.1462 1.84999 18.4795 1.15979 18.5C1.2199 17.7751 1.43984 17.1085 1.81959 16.5C1.5402 15.7097 1.10034 15.043 0.5 14.5C0.5 14.3889 0.5 14.2778 0.5 14.1667C0.804553 13.899 1.13445 13.8435 1.48969 14C1.91443 14.4698 2.29931 14.9698 2.64433 15.5C3.9001 14.5341 4.06506 13.423 3.13918 12.1667C2.53466 12.9857 1.98483 12.9857 1.48969 12.1667C2.1585 11.7131 2.70833 11.1576 3.13918 10.5C2.78204 9.70837 2.78204 8.93057 3.13918 8.16667C3.63011 8.71643 3.96001 9.3831 4.12887 10.1667C5.6167 9.63753 6.16654 8.63753 5.77835 7.16667C5.37053 7.41527 4.93068 7.5264 4.45876 7.5C4.45876 7.16667 4.45876 6.83333 4.45876 6.5C5.04017 6.54757 5.59001 6.43647 6.10825 6.16667C6.34076 5.44263 6.67066 4.77597 7.09794 4.16667C7.41197 4.68177 7.52192 5.23733 7.42783 5.83333C8.86823 5.9924 9.85792 5.3813 10.3969 4C9.63395 3.77934 8.86421 3.61267 8.08763 3.5C8.08763 3.16667 8.08763 2.83333 8.08763 2.5C9.0537 2.61721 9.9884 2.83944 10.8918 3.16667C11.2211 2.2552 11.8259 1.69965 12.7062 1.5C12.7733 2.13012 12.5534 2.63012 12.0464 3C13.0134 3.6367 14.003 3.6367 15.0155 3C15.3291 2.76083 15.384 2.48305 15.1804 2.16667C14.5961 1.89862 14.1012 1.50974 13.6959 1C13.8793 0.872475 13.9893 0.705808 14.0258 0.5ZM16.3351 3.16667C16.8283 3.13828 17.1582 3.3605 17.3247 3.83333C16.7749 4.27777 16.2251 4.27777 15.6753 3.83333C15.9203 3.60605 16.1402 3.38383 16.3351 3.16667ZM11.3866 4.16667C13.0189 4.20697 13.0189 4.5403 11.3866 5.16667C11.1667 5.1111 10.9467 5.05557 10.7268 5C11.0173 4.7639 11.2372 4.48613 11.3866 4.16667ZM20.6237 4.16667C21.3431 4.09457 21.893 4.37233 22.2732 5C21.4423 5.24697 20.8925 4.9692 20.6237 4.16667ZM15.3454 5.5C15.7539 5.60333 15.7539 5.77 15.3454 6C14.5666 6.70297 13.9068 6.6474 13.366 5.83333C14.0044 5.61683 14.6642 5.50573 15.3454 5.5ZM17.6546 5.5C18.3543 5.44177 19.0141 5.55287 19.634 5.83333C19.0932 6.6474 18.4334 6.70297 17.6546 6C17.2461 5.77 17.2461 5.60333 17.6546 5.5ZM16.3351 6.16667C17.2049 6.71793 17.0949 6.8846 16.0052 6.66667C16.1886 6.53913 16.2985 6.37247 16.3351 6.16667ZM7.09794 6.83333C7.55102 6.7811 7.9909 6.83667 8.41753 7C7.92268 7.5 7.42783 8 6.93299 8.5C6.93916 7.96417 6.99415 7.40863 7.09794 6.83333ZM11.0567 6.83333C11.3005 6.78967 11.5204 6.84523 11.7165 7C11.4339 7.2297 11.214 7.50747 11.0567 7.83333C10.5756 8.26067 10.1357 8.26067 9.73711 7.83333C10.1643 7.50387 10.6042 7.17053 11.0567 6.83333ZM21.9433 6.83333C22.4384 7.2505 22.9882 7.58383 23.5928 7.83333C22.7532 8.34107 22.0934 8.11887 21.6134 7.16667C21.6542 6.96443 21.7641 6.85333 21.9433 6.83333ZM24.5825 7.16667C25.7713 6.69313 26.2661 7.13757 26.067 8.5C25.6147 7.9862 25.1198 7.54177 24.5825 7.16667ZM12.3763 7.16667C13.6112 7.15307 13.6662 7.3753 12.5412 7.83333C12.3881 7.6352 12.3331 7.41297 12.3763 7.16667ZM19.634 7.5C20.079 7.06783 20.5188 7.1234 20.9536 7.66667C20.5184 7.73167 20.0785 7.6761 19.634 7.5ZM14.6856 8.16667C14.9055 8.16667 15.1254 8.16667 15.3454 8.16667C15.8582 8.63153 15.7482 8.85377 15.0155 8.83333C14.2828 8.85377 14.1728 8.63153 14.6856 8.16667ZM17.9845 8.16667C18.2045 8.16667 18.4244 8.16667 18.6443 8.16667C18.4964 8.82153 18.1665 8.93263 17.6546 8.5C17.6954 8.29777 17.8054 8.18667 17.9845 8.16667ZM9.40722 9.83333C9.41292 9.32397 9.63287 9.1573 10.067 9.33333C9.88748 9.5724 9.66754 9.73907 9.40722 9.83333ZM12.3763 9.16667C12.7385 9.46567 12.7385 9.74343 12.3763 10C11.9641 10.2467 11.6342 10.1912 11.3866 9.83333C11.7165 9.6111 12.0464 9.3889 12.3763 9.16667ZM20.9536 9.16667C21.0663 9.44607 21.2863 9.5572 21.6134 9.5C21.3296 10.3234 20.8897 10.3789 20.2938 9.66667C20.4733 9.4276 20.6933 9.26093 20.9536 9.16667ZM22.933 9.5C23.5914 9.10407 23.8664 9.3263 23.7577 10.1667C23.5241 9.87317 23.2492 9.65093 22.933 9.5ZM7.75773 9.5C8.04685 9.45637 8.2668 9.5675 8.41753 9.83333C8.21177 10.5847 7.77192 11.1402 7.09794 11.5C6.89779 11.4588 6.78783 11.3477 6.76804 11.1667C7.18091 10.6664 7.5108 10.1108 7.75773 9.5ZM25.2423 9.5C25.4892 10.1108 25.8191 10.6664 26.232 11.1667C25.8055 11.5483 25.4206 11.4372 25.0773 10.8333C24.9752 10.4114 24.8103 10.0225 24.5825 9.66667C24.7786 9.5119 24.9985 9.45633 25.2423 9.5ZM15.6753 10.1667C20.9032 10.5183 23.1575 13.2961 22.4381 18.5C20.7679 22.2597 17.9638 23.5375 14.0258 22.3333C10.0129 19.6345 9.35308 16.2456 12.0464 12.1667C13.1274 11.168 14.3371 10.5013 15.6753 10.1667ZM4.78866 10.8333C5.48791 11.2833 5.43295 11.8389 4.62371 12.5C4.50026 12.1946 4.33532 11.9168 4.12887 11.6667C4.41934 11.4306 4.63928 11.1528 4.78866 10.8333ZM27.5515 11.1667C27.978 10.7851 28.3629 10.8962 28.7062 11.5C28.8919 11.9083 28.7819 12.2416 28.3763 12.5C28.068 12.0472 27.7931 11.6028 27.5515 11.1667ZM9.73711 11.5C10.0262 11.4564 10.2462 11.5675 10.3969 11.8333C9.99625 12.753 9.66635 12.8641 9.40722 12.1667C9.51717 11.9444 9.62716 11.7222 9.73711 11.5ZM23.2629 11.5C23.5394 11.6139 23.6494 11.8361 23.5928 12.1667C23.573 12.3477 23.463 12.4588 23.2629 12.5C22.5517 11.9573 22.5517 11.6239 23.2629 11.5ZM7.42783 12.1667C7.82783 12.499 7.77284 12.8324 7.26289 13.1667C7.10797 12.8077 7.16296 12.4744 7.42783 12.1667ZM25.2423 12.1667C25.827 12.4381 25.992 12.8825 25.7371 13.5C25.476 13.085 25.3111 12.6406 25.2423 12.1667ZM5.44845 15.1667C5.62594 14.6276 5.73589 14.072 5.77835 13.5C6.27626 13.0468 6.49621 13.2135 6.43814 14C6.39038 14.4086 6.28042 14.7975 6.10825 15.1667C5.85868 15.5911 5.63874 15.5911 5.44845 15.1667ZM27.2216 13.5C27.2641 14.072 27.3741 14.6276 27.5515 15.1667C27.1999 15.564 26.925 15.4529 26.7268 14.8333C26.5069 14.2778 26.5069 13.7222 26.7268 13.1667C26.853 13.352 27.018 13.4631 27.2216 13.5ZM8.08763 15.1667C8.19758 14.9444 8.30757 14.7222 8.41753 14.5C9.02886 14.1286 9.19381 14.3508 8.91237 15.1667C8.80242 15.3889 8.69243 15.6111 8.58247 15.8333C8.49063 15.5281 8.32568 15.3058 8.08763 15.1667ZM24.9124 14.5C24.9124 14.7222 24.9124 14.9444 24.9124 15.1667C24.6743 15.3058 24.5094 15.5281 24.4175 15.8333C23.5933 14.9662 23.7583 14.5218 24.9124 14.5ZM3.79897 15.5C4.16928 16.0961 4.22424 16.7628 3.96392 17.5C3.37018 16.8783 3.31519 16.2116 3.79897 15.5ZM28.8711 15.5C29.3121 15.7716 29.642 16.1605 29.8608 16.6667C29.4645 16.9675 29.1895 17.3564 29.0361 17.8333C28.8723 17.0634 28.8173 16.2856 28.8711 15.5ZM6.43814 16.1667C7.04416 16.2132 7.15415 16.4354 6.76804 16.8333C6.50495 16.681 6.39496 16.4588 6.43814 16.1667ZM5.77835 19.5C5.73589 18.928 5.62594 18.3724 5.44845 17.8333C5.88553 17.3491 6.16044 17.4603 6.2732 18.1667C6.49314 18.7222 6.49314 19.2778 6.2732 19.8333C6.14698 19.648 5.98203 19.5369 5.77835 19.5ZM8.08763 18.5C8.08763 18.2778 8.08763 18.0556 8.08763 17.8333C8.91923 17.5093 9.19417 17.8427 8.91237 18.8333C8.69108 18.5825 8.41617 18.4714 8.08763 18.5ZM24.9124 17.8333C24.9124 18.0556 24.9124 18.2778 24.9124 18.5C23.8798 18.7926 23.7149 18.4593 24.4175 17.5C24.5437 17.6853 24.7087 17.7964 24.9124 17.8333ZM27.5515 17.8333C27.4416 18.5 27.3316 19.1667 27.2216 19.8333C26.3623 19.0799 26.4173 18.3021 27.3866 17.5C27.5182 17.5761 27.5731 17.6873 27.5515 17.8333ZM7.09794 19.8333C7.62073 20.0008 7.78567 20.3341 7.59278 20.8333C7.25015 20.5854 7.0852 20.2521 7.09794 19.8333ZM25.5722 19.8333C25.9722 20.1657 25.9172 20.499 25.4072 20.8333C25.2523 20.4744 25.3073 20.1411 25.5722 19.8333ZM4.45876 20.5C5.18724 20.9725 5.46214 21.6392 5.28351 22.5C4.98577 22.0995 4.60088 21.8217 4.12887 21.6667C4.40486 21.3296 4.51485 20.9407 4.45876 20.5ZM9.73711 21.5C9.51717 21.5 9.40722 21.3889 9.40722 21.1667C9.64349 20.3294 9.97339 20.3294 10.3969 21.1667C10.2462 21.4325 10.0262 21.5436 9.73711 21.5ZM23.5928 21.1667C23.5928 21.3889 23.4828 21.5 23.2629 21.5C22.5517 21.3761 22.5517 21.0427 23.2629 20.5C23.526 20.6523 23.636 20.8745 23.5928 21.1667ZM28.2113 20.5C28.5052 20.7538 28.7252 21.0871 28.8711 21.5C28.4555 21.7939 28.0707 22.1272 27.7165 22.5C27.7661 21.8315 27.931 21.1648 28.2113 20.5ZM7.75773 23.5C7.5108 22.8892 7.18091 22.3336 6.76804 21.8333C7.60562 21.6664 8.15546 22.1108 8.41753 23.1667C8.2668 23.4325 8.04685 23.5436 7.75773 23.5ZM26.232 21.8333C25.985 22.4442 25.6551 22.9997 25.2423 23.5C24.9985 23.5437 24.7786 23.4881 24.5825 23.3333C24.7318 22.4356 25.2266 21.8245 26.067 21.5C26.1986 21.5761 26.2535 21.6873 26.232 21.8333ZM12.0464 23.8333C12.0464 23.6111 11.9364 23.5 11.7165 23.5C11.3489 22.8823 11.5688 22.7156 12.3763 23C12.8324 23.487 12.7224 23.7647 12.0464 23.8333ZM21.6134 23.5C21.3935 23.6111 21.1735 23.7222 20.9536 23.8333C20.2513 23.6332 20.3063 23.2999 21.1186 22.8333C21.4583 22.9454 21.6233 23.1676 21.6134 23.5ZM9.07732 23.5C9.40626 23.0958 9.73616 23.1514 10.067 23.6667C9.71178 23.8232 9.38188 23.7676 9.07732 23.5ZM23.2629 23.1667C24.0794 23.2489 24.0794 23.4711 23.2629 23.8333C22.9452 23.6767 22.9452 23.4545 23.2629 23.1667ZM15.0155 24.8333C14.7955 24.8333 14.5756 24.8333 14.3557 24.8333C14.6395 24.01 15.0793 23.9544 15.6753 24.6667C15.4792 24.8214 15.2592 24.877 15.0155 24.8333ZM18.6443 24.8333C18.4244 24.8333 18.2045 24.8333 17.9845 24.8333C17.5277 24.5659 17.5827 24.3437 18.1495 24.1667C18.4892 24.2787 18.6542 24.5009 18.6443 24.8333ZM6.76804 25.1667C6.78783 24.9856 6.89779 24.8745 7.09794 24.8333C8.66102 25.6883 8.66102 26.1328 7.09794 26.1667C7.17622 25.7363 7.06627 25.403 6.76804 25.1667ZM9.40722 25.1667C10.2468 24.6589 10.9066 24.8811 11.3866 25.8333C11.3458 26.0356 11.2359 26.1467 11.0567 26.1667C10.4522 25.9172 9.90236 25.5838 9.40722 25.1667ZM23.5928 25.1667C23.0976 25.5838 22.5478 25.9172 21.9433 26.1667C21.5656 25.7358 21.6756 25.3469 22.2732 25C22.7897 24.745 23.2296 24.8006 23.5928 25.1667ZM25.5722 24.8333C26.3434 25.2161 26.2884 25.6606 25.4072 26.1667C25.2423 26.0556 25.0773 25.9444 24.9124 25.8333C25.1408 25.4941 25.3608 25.1607 25.5722 24.8333ZM16.0052 26.5C16.3683 26.1339 16.8082 26.0783 17.3247 26.3333C16.8702 26.7781 16.4303 26.8336 16.0052 26.5ZM15.3454 27.8333C14.7254 27.5529 14.0656 27.4418 13.366 27.5C13.4606 26.9598 13.7905 26.6264 14.3557 26.5C14.7516 26.8437 15.1915 27.1215 15.6753 27.3333C15.4918 27.4609 15.3819 27.6275 15.3454 27.8333ZM19.634 27.5C19.0842 27.5 18.5344 27.5 17.9845 27.5C17.7408 27.5437 17.5208 27.4881 17.3247 27.3333C17.8085 27.1215 18.2484 26.8437 18.6443 26.5C19.2095 26.6264 19.5394 26.9598 19.634 27.5ZM10.7268 28.1667C11.4414 27.7904 12.1012 27.957 12.7062 28.6667C11.9342 28.9161 11.2744 28.7495 10.7268 28.1667ZM21.2835 27.8333C22.089 27.7064 22.309 27.9286 21.9433 28.5C20.2195 29.0197 19.9996 28.7975 21.2835 27.8333ZM16.0052 28.8333C17.7522 29.2294 17.7522 29.5072 16.0052 29.6667C15.6429 29.4101 15.6429 29.1323 16.0052 28.8333Z"
        fill="#FAB400" />
    <path opacity="0.795" fill-rule="evenodd" clip-rule="evenodd"
        d="M15.3453 5.49995C16.1151 5.05552 16.8849 5.05552 17.6546 5.49995C17.2461 5.60328 17.2461 5.76995 17.6546 5.99995C18.4334 6.70292 19.0932 6.64735 19.634 5.83328C20.5729 5.85048 21.3427 6.18382 21.9433 6.83328C21.7641 6.85328 21.6541 6.96438 21.6134 7.16662C22.0934 8.11882 22.7532 8.34102 23.5927 7.83328C24.2525 8.27772 24.8024 8.83328 25.2422 9.49995C24.9985 9.45628 24.7785 9.51185 24.5824 9.66662C24.8102 10.0224 24.9752 10.4113 25.0773 10.8333C25.4206 11.4371 25.8055 11.5482 26.2319 11.1666C26.8747 11.7734 27.2046 12.5512 27.2216 13.5C27.0179 13.4631 26.853 13.352 26.7268 13.1666C26.5068 13.7222 26.5068 14.2777 26.7268 14.8333C26.925 15.4529 27.1999 15.564 27.5515 15.1666C27.9914 16.0555 27.9914 16.9444 27.5515 17.8333C27.5731 17.6872 27.5181 17.5761 27.3866 17.5C26.4173 18.302 26.3623 19.0798 27.2216 19.8333C27.1375 20.6558 26.8076 21.3224 26.2319 21.8333C26.2535 21.6872 26.1985 21.5761 26.067 21.5C25.2266 21.8244 24.7317 22.4355 24.5824 23.3333C24.7785 23.4881 24.9985 23.5436 25.2422 23.5C25.0148 24.3964 24.465 24.952 23.5927 25.1666C23.2296 24.8005 22.7897 24.745 22.2732 25C21.6756 25.3469 21.5656 25.7357 21.9433 26.1666C21.3377 26.8626 20.568 27.3071 19.634 27.5C19.5393 26.9597 19.2094 26.6264 18.6443 26.5C18.2483 26.8437 17.8084 27.1215 17.3247 27.3333C17.5208 27.4881 17.7407 27.5436 17.9845 27.5C17.1769 27.8243 16.2972 27.9354 15.3453 27.8333C15.3818 27.6275 15.4918 27.4608 15.6752 27.3333C15.1915 27.1215 14.7516 26.8437 14.3556 26.5C13.7905 26.6264 13.4606 26.9597 13.3659 27.5C12.432 27.3071 11.6622 26.8626 11.0567 26.1666C11.2358 26.1466 11.3458 26.0355 11.3866 25.8333C10.9065 24.8811 10.2467 24.6589 9.40718 25.1666C8.63743 24.8333 8.08759 24.2777 7.7577 23.5C8.04682 23.5436 8.26676 23.4325 8.41749 23.1666C8.15542 22.1108 7.60558 21.6663 6.76801 21.8333C6.12524 21.2265 5.79534 20.4487 5.77832 19.5C5.98199 19.5369 6.14694 19.648 6.27316 19.8333C6.4931 19.2777 6.4931 18.7222 6.27316 18.1666C6.1604 17.4602 5.8855 17.3491 5.44842 17.8333C5.00857 16.9444 5.00857 16.0555 5.44842 15.1666C5.6387 15.5911 5.85865 15.5911 6.10821 15.1666C6.28039 14.7975 6.39034 14.4086 6.43811 14C6.49617 13.2135 6.27623 13.0468 5.77832 13.5C5.8467 12.5864 6.1766 11.8087 6.76801 11.1666C6.7878 11.3477 6.89776 11.4588 7.0979 11.5C7.77188 11.1402 8.21173 10.5846 8.41749 9.83328C8.26676 9.56745 8.04682 9.45632 7.7577 9.49995C8.22312 8.69528 8.88291 8.13975 9.73708 7.83328C10.1357 8.26062 10.5755 8.26062 11.0567 7.83328C11.2139 7.50742 11.4338 7.22965 11.7165 6.99995C11.5204 6.84518 11.3004 6.78962 11.0567 6.83328C11.6572 6.18382 12.427 5.85048 13.3659 5.83328C13.9067 6.64735 14.5665 6.70292 15.3453 5.99995C15.7538 5.76995 15.7538 5.60328 15.3453 5.49995ZM16.335 6.16662C16.2985 6.37242 16.1885 6.53908 16.0051 6.66662C17.0949 6.88455 17.2049 6.71788 16.335 6.16662ZM12.3763 7.16662C12.333 7.41292 12.388 7.63515 12.5412 7.83328C13.6662 7.37525 13.6112 7.15302 12.3763 7.16662ZM19.634 7.49995C20.0785 7.67605 20.5183 7.73162 20.9536 7.66662C20.5188 7.12335 20.0789 7.06778 19.634 7.49995ZM14.6855 8.16662C14.9055 8.16662 15.1254 8.16662 15.3453 8.16662C15.8581 8.63148 15.7481 8.85372 15.0154 8.83328C14.2827 8.85372 14.1727 8.63148 14.6855 8.16662ZM17.9845 8.16662C18.2044 8.16662 18.4244 8.16662 18.6443 8.16662C18.4964 8.82148 18.1665 8.93258 17.6546 8.49995C17.6954 8.29772 17.8053 8.18662 17.9845 8.16662ZM9.40718 9.83328C9.6675 9.73902 9.88745 9.57235 10.067 9.33328C9.63283 9.15725 9.41289 9.32392 9.40718 9.83328ZM12.3763 9.16662C12.7385 9.46562 12.7385 9.74338 12.3763 9.99995C11.9641 10.2467 11.6342 10.1911 11.3866 9.83328C11.7165 9.61105 12.0464 9.38885 12.3763 9.16662ZM20.9536 9.16662C21.0663 9.44602 21.2862 9.55715 21.6134 9.49995C21.3296 10.3233 20.8897 10.3789 20.2938 9.66662C20.4733 9.42755 20.6933 9.26088 20.9536 9.16662ZM22.933 9.49995C23.2491 9.65088 23.524 9.87312 23.7577 10.1666C23.8663 9.32625 23.5914 9.10402 22.933 9.49995ZM15.6752 10.1666C14.337 10.5013 13.1274 11.168 12.0464 12.1666C9.35305 16.2456 10.0128 19.6345 14.0257 22.3333C17.9638 23.5375 20.7679 22.2597 22.4381 18.5C23.1575 13.2961 20.9032 10.5183 15.6752 10.1666ZM9.73708 11.5C10.0262 11.4563 10.2461 11.5675 10.3969 11.8333C9.99621 12.753 9.66632 12.8641 9.40718 12.1666C9.51714 11.9444 9.62712 11.7222 9.73708 11.5ZM23.2629 11.5C23.5394 11.6139 23.6494 11.8361 23.5927 12.1666C23.573 12.3477 23.463 12.4588 23.2629 12.5C22.5516 11.9572 22.5516 11.6239 23.2629 11.5ZM7.4278 12.1666C7.16293 12.4744 7.10793 12.8077 7.26285 13.1666C7.77281 12.8323 7.8278 12.499 7.4278 12.1666ZM25.2422 12.1666C25.311 12.6405 25.476 13.085 25.7371 13.5C25.992 12.8825 25.827 12.4381 25.2422 12.1666ZM8.08759 15.1666C8.19755 14.9444 8.30754 14.7222 8.41749 14.5C9.02882 14.1285 9.19377 14.3508 8.91234 15.1666C8.80238 15.3889 8.69239 15.6111 8.58244 15.8333C8.4906 15.528 8.32565 15.3058 8.08759 15.1666ZM24.9123 14.5C24.9123 14.7222 24.9123 14.9444 24.9123 15.1666C24.6743 15.3058 24.5093 15.528 24.4175 15.8333C23.5933 14.9662 23.7583 14.5217 24.9123 14.5ZM6.43811 16.1666C6.39493 16.4588 6.50491 16.681 6.76801 16.8333C7.15412 16.4353 7.04413 16.2131 6.43811 16.1666ZM8.08759 18.5C8.08759 18.2777 8.08759 18.0555 8.08759 17.8333C8.9192 17.5093 9.19413 17.8426 8.91234 18.8333C8.69104 18.5825 8.41614 18.4714 8.08759 18.5ZM24.9123 17.8333C24.9123 18.0555 24.9123 18.2777 24.9123 18.5C23.8798 18.7926 23.7148 18.4592 24.4175 17.5C24.5437 17.6853 24.7087 17.7964 24.9123 17.8333ZM7.0979 19.8333C7.08517 20.252 7.25012 20.5854 7.59275 20.8333C7.78564 20.3341 7.62069 20.0008 7.0979 19.8333ZM25.5721 19.8333C25.3073 20.141 25.2523 20.4744 25.4072 20.8333C25.9171 20.499 25.9721 20.1657 25.5721 19.8333ZM9.73708 21.5C9.51714 21.5 9.40718 21.3889 9.40718 21.1666C9.64345 20.3294 9.97335 20.3294 10.3969 21.1666C10.2461 21.4325 10.0262 21.5436 9.73708 21.5ZM23.5927 21.1666C23.5927 21.3889 23.4828 21.5 23.2629 21.5C22.5516 21.376 22.5516 21.0427 23.2629 20.5C23.5259 20.6523 23.6359 20.8745 23.5927 21.1666ZM12.0464 23.8333C12.0464 23.6111 11.9364 23.5 11.7165 23.5C11.3489 22.8823 11.5688 22.7156 12.3763 23C12.8323 23.4869 12.7224 23.7647 12.0464 23.8333ZM21.6134 23.5C21.3934 23.6111 21.1735 23.7222 20.9536 23.8333C20.2513 23.6332 20.3063 23.2999 21.1185 22.8333C21.4583 22.9453 21.6232 23.1676 21.6134 23.5ZM9.07728 23.5C9.38185 23.7676 9.71174 23.8232 10.067 23.6666C9.73612 23.1514 9.40623 23.0958 9.07728 23.5ZM23.2629 23.1666C22.9452 23.4545 22.9452 23.6767 23.2629 23.8333C24.0794 23.4711 24.0794 23.2489 23.2629 23.1666ZM15.0154 24.8333C14.7955 24.8333 14.5756 24.8333 14.3556 24.8333C14.6394 24.0099 15.0793 23.9544 15.6752 24.6666C15.4791 24.8214 15.2592 24.877 15.0154 24.8333ZM18.6443 24.8333C18.4244 24.8333 18.2044 24.8333 17.9845 24.8333C17.5277 24.5659 17.5827 24.3437 18.1494 24.1666C18.4892 24.2787 18.6542 24.5009 18.6443 24.8333ZM16.0051 26.5C16.4303 26.8336 16.8701 26.778 17.3247 26.3333C16.8082 26.0783 16.3683 26.1339 16.0051 26.5ZM19.634 27.5C19.0841 27.5 18.5343 27.5 17.9845 27.5C17.7407 27.5436 17.5208 27.4881 17.3247 27.3333C17.8084 27.1215 18.2483 26.8437 18.6443 26.5C19.2094 26.6264 19.5393 26.9597 19.634 27.5Z"
        fill="#9A5F17" />
    <path opacity="0.751" fill-rule="evenodd" clip-rule="evenodd"
        d="M17.9846 8.1667C17.8054 8.1867 17.6954 8.2978 17.6547 8.50003C18.1666 8.93267 18.4965 8.82157 18.6443 8.1667C19.521 8.31163 20.2908 8.64497 20.9536 9.1667C20.6933 9.26097 20.4734 9.42763 20.2938 9.6667C20.8898 10.379 21.3296 10.3234 21.6134 9.50003C22.4098 9.9703 22.9596 10.637 23.2629 11.5C22.5517 11.624 22.5517 11.9573 23.2629 12.5C23.4631 12.4588 23.573 12.3477 23.5928 12.1667C24.2816 12.7786 24.7215 13.5563 24.9124 14.5C23.7583 14.5218 23.5934 14.9662 24.4175 15.8334C24.5094 15.5281 24.6743 15.3059 24.9124 15.1667C25.3522 16.0556 25.3522 16.9445 24.9124 17.8334C24.7087 17.7965 24.5438 17.6854 24.4175 17.5C23.7149 18.4593 23.8798 18.7926 24.9124 18.5C24.6553 19.5149 24.2154 20.4038 23.5928 21.1667C23.636 20.8746 23.526 20.6523 23.2629 20.5C22.5517 21.0428 22.5517 21.3761 23.2629 21.5C22.9596 22.3631 22.4098 23.0298 21.6134 23.5C21.6233 23.1676 21.4583 22.9454 21.1186 22.8334C20.3063 23.2999 20.2513 23.6333 20.9536 23.8334C20.3182 24.4309 19.5485 24.7643 18.6443 24.8334C18.6542 24.501 18.4893 24.2787 18.1495 24.1667C17.5827 24.3437 17.5277 24.5659 17.9846 24.8334C16.9949 25.2778 16.0052 25.2778 15.0155 24.8334C15.2592 24.877 15.4792 24.8215 15.6753 24.6667C15.0794 23.9544 14.6395 24.01 14.3557 24.8334C13.4516 24.7643 12.6818 24.4309 12.0464 23.8334C12.7224 23.7648 12.8324 23.487 12.3763 23C11.5689 22.7157 11.3489 22.8823 11.7165 23.5C11.4728 23.5437 11.2528 23.4881 11.0567 23.3334C10.4925 22.7831 10.0526 22.172 9.73713 21.5C10.0263 21.5437 10.2462 21.4325 10.3969 21.1667C9.9734 20.3294 9.64351 20.3294 9.40723 21.1667C8.79989 20.3839 8.36004 19.495 8.08765 18.5C8.41619 18.4714 8.69109 18.5826 8.91239 18.8334C9.19419 17.8427 8.91925 17.5094 8.08765 17.8334C8.08765 16.9445 8.08765 16.0556 8.08765 15.1667C8.3257 15.3059 8.49065 15.5281 8.58249 15.8334C8.69245 15.6111 8.80243 15.3889 8.91239 15.1667C9.19382 14.3508 9.02888 14.1286 8.41754 14.5C8.04641 14.2174 8.04641 13.8841 8.41754 13.5C8.62963 12.9746 8.95953 12.5301 9.40723 12.1667C9.66637 12.8642 9.99627 12.7531 10.3969 11.8334C10.2462 11.5675 10.0263 11.4564 9.73713 11.5C9.69391 11.2537 9.74891 11.0315 9.90208 10.8334C10.3638 10.4174 10.8587 10.084 11.3866 9.83337C11.6342 10.1912 11.9641 10.2467 12.3763 10C12.7386 9.74347 12.7386 9.4657 12.3763 9.1667C13.0117 8.56913 13.7815 8.2358 14.6856 8.1667C14.1728 8.63157 14.2828 8.8538 15.0155 8.83337C15.7482 8.8538 15.8582 8.63157 15.3454 8.1667C16.2251 7.72227 17.1048 7.72227 17.9846 8.1667ZM14.6856 8.1667C14.9055 8.1667 15.1254 8.1667 15.3454 8.1667C15.8582 8.63157 15.7482 8.8538 15.0155 8.83337C14.2828 8.8538 14.1728 8.63157 14.6856 8.1667ZM17.9846 8.1667C18.2045 8.1667 18.4244 8.1667 18.6443 8.1667C18.4965 8.82157 18.1666 8.93267 17.6547 8.50003C17.6954 8.2978 17.8054 8.1867 17.9846 8.1667ZM15.6753 10.1667C14.3371 10.5014 13.1274 11.168 12.0464 12.1667C9.3531 16.2456 10.0129 19.6345 14.0258 22.3334C17.9638 23.5375 20.768 22.2597 22.4382 18.5C23.1575 13.2962 20.9032 10.5184 15.6753 10.1667ZM15.0155 24.8334C14.7955 24.8334 14.5756 24.8334 14.3557 24.8334C14.6395 24.01 15.0794 23.9544 15.6753 24.6667C15.4792 24.8215 15.2592 24.877 15.0155 24.8334ZM18.6443 24.8334C18.4244 24.8334 18.2045 24.8334 17.9846 24.8334C17.5277 24.5659 17.5827 24.3437 18.1495 24.1667C18.4893 24.2787 18.6542 24.501 18.6443 24.8334Z"
        fill="#633C20" />
</svg>