<svg width="32" height="32" viewBox="0 0 33 32" fill="none" xmlns="http://www.w3.org/2000/svg">
    <path
        d="M11.3723 11.6953C9.88851 11.6953 9.14661 12.1014 9.14661 13.5633C9.14661 15.0253 9.79578 15.3501 11.2796 15.4314H11.3723C12.8562 15.4314 13.5981 15.0253 13.5981 13.5633C13.5053 12.1014 12.8562 11.6953 11.3723 11.6953ZM16.9367 11.6953C15.4529 11.6953 14.711 12.1014 14.711 13.5633C14.711 15.0253 15.3601 15.3501 16.844 15.4314H16.9367C18.4205 15.4314 19.1624 15.0253 19.1624 13.5633C19.1624 12.1014 18.5133 11.6953 16.9367 11.6953ZM22.5011 11.6953C21.0172 11.6953 20.2753 12.1014 20.2753 13.5633C20.2753 15.0253 20.9245 15.3501 22.4083 15.4314H22.5011C23.9849 15.4314 24.7268 15.0253 24.7268 13.5633C24.7268 12.1014 24.0776 11.6953 22.5011 11.6953Z"
        fill="#E9453F" />
    <path
        d="M28.9 2.84264C26.3961 0.893401 22.6865 0 16.9367 0C15.8238 0 14.8037 0 13.6908 0.0812183C13.5981 0.0812183 13.5981 0.0812183 13.5053 0.0812183C9.61028 0.406091 6.92083 1.21827 4.88057 2.76142C2.09839 4.8731 0.800049 8.28426 0.800049 13.4822C0.800049 21.4416 4.04592 24.934 9.23932 26.2335C9.33206 26.2335 9.42479 26.3147 9.51753 26.3147V30.0508C9.51753 30.8629 10.074 31.5939 10.9086 31.8376C11.1868 31.9188 11.4651 32 11.6505 32C12.2997 32 12.8562 31.7563 13.3198 31.3503L17.5859 27.0457C26.767 26.8832 32.7951 24.3655 32.7951 13.4822C32.8878 8.36548 31.6822 4.95431 28.9 2.84264ZM16.8439 23.2284H16.7512C16.473 23.2284 16.102 23.2284 15.8238 23.2284C14.5255 23.2284 13.1344 23.1472 12.1142 22.9036C10.9086 22.7411 9.88849 22.4975 9.05384 22.0914C6.08618 20.7919 5.06605 18.1929 5.06605 13.4822C5.06605 6.82234 7.01358 4.38579 13.5053 3.89848C14.4327 3.81726 15.5456 3.81726 16.7512 3.81726C25.9324 3.81726 28.4363 5.92893 28.4363 13.5635C28.5291 21.198 26.0251 23.2284 16.8439 23.2284Z"
        fill="#E9453F" />
</svg>