<svg width="32" height="32" viewBox="0 0 32 32" fill="none" xmlns="http://www.w3.org/2000/svg">
    <path
        d="M25.224 13.8875L22.3665 11.0278C22.1899 10.851 21.9515 10.7522 21.7017 10.7522H14.9218C14.6103 10.7522 14.3577 11.005 14.3577 11.3167V14.0519C14.3302 13.993 14.2941 13.936 14.2457 13.8875L11.388 11.0278C11.2114 10.851 10.973 10.7522 10.7232 10.7522H6.8883C6.5768 10.7522 6.3242 11.005 6.3242 11.3167V17.2566C6.3242 17.5683 6.5768 17.8211 6.8883 17.8211H10.7232C10.972 17.8211 11.2114 17.7223 11.388 17.5455L14.2457 14.6858C14.2941 14.6374 14.3311 14.5803 14.3577 14.5214V17.2566C14.3577 17.5683 14.6103 17.8211 14.9218 17.8211H21.7017C21.9506 17.8211 22.1899 17.7223 22.3665 17.5455L25.224 14.6858C25.445 14.4653 25.445 14.108 25.224 13.8875Z"
        fill="#DB644D" />
    <path
        d="M25.365 7.29324C25.365 5.89332 24.231 4.75952 22.8331 4.75952H13.5982C12.3237 4.75952 11.2695 5.7023 11.0929 6.92829C10.9162 5.70135 9.86209 4.75952 8.58759 4.75952C7.18869 4.75952 6.05569 5.89428 6.05569 7.29324C6.05569 8.69315 7.18959 9.82696 8.58759 9.82696C9.86209 9.82696 10.9162 8.88418 11.0929 7.65819C11.2695 8.88513 12.3237 9.82696 13.5982 9.82696H22.8331C24.232 9.82696 25.365 8.6922 25.365 7.29324Z"
        fill="#4874E2" />
    <path
        d="M25.365 21.2813C25.365 19.9051 24.269 18.7856 22.9034 18.7476C22.8644 18.7466 22.8312 18.778 22.8312 18.817V20.7643C22.5928 19.6134 21.5738 18.7476 20.3525 18.7476C19.078 18.7476 18.0238 19.6904 17.8472 20.9164C17.6705 19.6894 16.6164 18.7476 15.3419 18.7476H8.58851C7.19061 18.7476 6.05661 19.8823 6.05661 21.2813C6.05661 22.6803 7.19061 23.815 8.58851 23.815H15.3419C16.6164 23.815 17.6705 22.8722 17.8472 21.6462C18.0238 22.8732 19.078 23.815 20.3525 23.815C21.5738 23.815 22.5928 22.9502 22.8312 21.7983V23.7456C22.8312 23.7846 22.8635 23.816 22.9034 23.815C24.269 23.777 25.365 22.6575 25.365 21.2813Z"
        fill="#ED9297" />
</svg>