<svg width="32" height="32" viewBox="0 0 33 33" fill="none" xmlns="http://www.w3.org/2000/svg">
    <path
        d="M16.5999 31.3129C25.0017 31.3129 31.8127 24.5036 31.8127 16.104C31.8127 7.7043 25.0017 0.89502 16.5999 0.89502C8.19817 0.89502 1.38721 7.7043 1.38721 16.104C1.38721 24.5036 8.19817 31.3129 16.5999 31.3129Z"
        fill="white" />
    <path
        d="M16.6 32.1001C7.77294 32.1001 0.599976 24.921 0.599976 16.1041C0.599976 7.28718 7.78089 0.100098 16.6 0.100098C25.427 0.100098 32.6 7.27923 32.6 16.0961C32.6 24.913 25.427 32.1001 16.6 32.1001ZM16.6 1.69016C8.64769 1.69016 2.18248 8.15376 2.18248 16.1041C2.18248 24.0544 8.64769 30.518 16.6 30.518C24.5523 30.518 31.0175 24.0544 31.0175 16.1041C31.0175 8.15376 24.5523 1.69016 16.6 1.69016Z"
        fill="#EE7D00" />
    <path
        d="M23.7173 9.36234C23.1209 8.75016 22.1586 8.75016 21.5622 9.36234C21.5463 9.37824 21.5304 9.39414 21.5225 9.41004L20.7431 10.213C19.598 9.36234 18.1905 8.85352 16.6716 8.85352C16.6398 8.85352 16.6079 8.85352 16.5761 8.85352C16.5443 8.85352 16.5125 8.85352 16.4807 8.85352C14.9618 8.85352 13.5543 9.35439 12.4091 10.213L11.6298 9.41004C11.6139 9.39414 11.606 9.37824 11.5901 9.36234C10.9936 8.75016 10.0314 8.75016 9.43499 9.36234C8.83857 9.97451 8.83857 10.9762 9.43499 11.5884C9.45089 11.6043 9.46679 11.6202 9.4827 11.6282L10.3813 12.5663C9.82465 13.5999 9.50655 14.7924 9.50655 16.0565V16.3427V23.8955H13.8008V23.2595L14.3415 22.3531L14.9062 23.2595L15.4628 22.3531L16.0115 23.2595L16.5602 22.3452L17.1169 23.2595L17.6736 22.3531L18.2382 23.2595L18.8028 22.3531L19.3594 23.2595V23.8876H23.6537V16.3348H23.6457C23.6457 16.2394 23.6537 16.144 23.6537 16.0485C23.6537 14.7765 23.3356 13.5919 22.7789 12.5584L23.6855 11.6202C23.7014 11.6043 23.7173 11.5884 23.7332 11.5805C24.3058 10.9762 24.3058 9.97451 23.7173 9.36234Z"
        fill="#EE7D00" />
    <path
        d="M14.4291 13.9178C14.445 13.8462 14.4529 13.7667 14.4529 13.6872C14.4529 13.0909 13.9837 12.606 13.4032 12.606C12.8227 12.606 12.3535 13.0909 12.3535 13.6872C12.3535 14.2835 12.8227 14.7684 13.4032 14.7684C13.6338 14.7684 13.8485 14.6889 14.0235 14.5538C14.3257 15.2534 14.27 16.0802 13.8088 16.7481C13.9758 16.6129 14.1348 16.4539 14.2621 16.2711C14.771 15.5555 14.8028 14.6412 14.4291 13.9178Z"
        fill="#231F20" />
    <path
        d="M13.4031 13.0432C13.0612 13.0432 12.7828 13.3294 12.7828 13.6872C12.7828 14.045 13.0612 14.3312 13.4031 14.3312C13.7451 14.3312 14.0234 14.045 14.0234 13.6872C14.0234 13.3374 13.7451 13.0432 13.4031 13.0432Z"
        fill="white" />
    <path
        d="M11.4071 10.1574C11.7013 10.7934 11.4389 11.5566 10.8266 11.8587L9.76099 9.55313C10.3733 9.25102 11.1129 9.52133 11.4071 10.1574Z"
        fill="#231F20" />
    <path
        d="M9.88821 11.6837C9.74507 11.3736 9.8723 10.9999 10.1745 10.8489L10.6993 11.9699C10.3892 12.1209 10.0314 11.9937 9.88821 11.6837Z"
        fill="#231F20" />
    <path
        d="M16.3615 10.8012L15.7094 11.3577C14.7631 10.5865 13.3953 10.5627 12.4092 11.3577C12.5603 11.1351 12.7432 10.9204 12.9579 10.7455C13.9758 9.9028 15.4072 9.95846 16.3615 10.8012Z"
        fill="#231F20" />
    <path
        d="M16.5761 9.62453L16.0671 10.0538C15.3276 9.45758 14.2699 9.43373 13.4985 10.0538C13.6099 9.87894 13.753 9.71994 13.928 9.57683C14.7152 8.92491 15.8286 8.97261 16.5761 9.62453Z"
        fill="#231F20" />
    <path d="M14.4131 13.2818L12.4807 12.9877L12.5443 12.5424L14.2859 12.3755L14.4131 13.2818Z"
        fill="#EE7D00" />
    <path
        d="M11.8524 11.9141L12.2023 12.5184C13.1248 12.2004 14.1665 12.5581 14.7073 13.4406C14.6516 13.2259 14.5721 13.0192 14.4528 12.8205C13.8962 11.8982 12.7987 11.5405 11.8524 11.9141Z"
        fill="#231F20" />
    <path d="M13.9836 20.5483C13.9836 20.5801 13.9757 20.5642 13.9836 20.5483Z" fill="#1D1C18" />
    <path d="M19.1527 20.5483C19.1527 20.5801 19.1607 20.5642 19.1607 20.5483H19.1527Z"
        fill="#1D1C18" />
    <path
        d="M19.7332 12.606C19.1527 12.606 18.6835 13.0909 18.6835 13.6872C18.6835 13.7667 18.6915 13.8462 18.7074 13.9178C18.3336 14.6412 18.3654 15.5555 18.8664 16.2711C19.0016 16.4619 19.1527 16.6209 19.3197 16.7481C18.8664 16.0882 18.8108 15.2534 19.105 14.5538C19.2799 14.6889 19.4947 14.7684 19.7253 14.7684C20.3058 14.7684 20.775 14.2835 20.775 13.6872C20.7829 13.0909 20.3137 12.606 19.7332 12.606Z"
        fill="#231F20" />
    <path
        d="M19.7332 13.0432C19.3912 13.0432 19.1129 13.3294 19.1129 13.6872C19.1129 14.045 19.3912 14.3312 19.7332 14.3312C20.0751 14.3312 20.3535 14.045 20.3535 13.6872C20.3535 13.3374 20.0751 13.0432 19.7332 13.0432Z"
        fill="white" />
    <path
        d="M19.7331 13.2976C19.9399 13.2976 20.1069 13.4725 20.1069 13.6792C20.1069 13.8939 19.9399 14.0608 19.7331 14.0608C19.5264 14.0608 19.3594 13.8859 19.3594 13.6792C19.3673 13.4646 19.5264 13.2976 19.7331 13.2976Z"
        fill="#231F20" />
    <path
        d="M21.7292 10.1574C21.4349 10.7934 21.6974 11.5566 22.3097 11.8587L23.3753 9.55313C22.763 9.25102 22.0234 9.52133 21.7292 10.1574Z"
        fill="#231F20" />
    <path
        d="M23.2561 11.6837C23.3992 11.3736 23.272 10.9999 22.9698 10.8489L22.4449 11.9699C22.7471 12.1209 23.1129 11.9937 23.2561 11.6837Z"
        fill="#231F20" />
    <path
        d="M16.7749 10.8012L17.427 11.3577C18.3733 10.5865 19.7411 10.5627 20.7272 11.3577C20.5761 11.1351 20.3932 10.9204 20.1785 10.7455C19.1606 9.9028 17.7292 9.95846 16.7749 10.8012Z"
        fill="#231F20" />
    <path
        d="M16.5681 9.62453L17.0771 10.0538C17.8166 9.45758 18.8743 9.43373 19.6456 10.0538C19.5343 9.87894 19.3912 9.71994 19.2162 9.57683C18.421 8.92491 17.3077 8.97261 16.5681 9.62453Z"
        fill="#231F20" />
    <path d="M18.7233 13.2818L20.6636 12.9877L20.5921 12.5424L18.8505 12.3755L18.7233 13.2818Z"
        fill="#EE7D00" />
    <path
        d="M21.2838 11.9141L20.9339 12.5184C20.0115 12.2004 18.9697 12.5581 18.429 13.4406C18.4846 13.2259 18.5641 13.0192 18.6834 12.8205C19.2401 11.8982 20.3375 11.5405 21.2838 11.9141Z"
        fill="#231F20" />
    <path
        d="M13.4032 13.2976C13.1964 13.2976 13.0294 13.4725 13.0294 13.6792C13.0294 13.8939 13.1964 14.0608 13.4032 14.0608C13.6099 14.0608 13.7769 13.8859 13.7769 13.6792C13.7769 13.4646 13.6099 13.2976 13.4032 13.2976Z"
        fill="#231F20" />
    <path
        d="M24.0195 16.0643V15.9609C24.0036 14.8081 23.5423 13.6633 23.0413 12.6377C23.0413 12.6377 23.9559 11.946 24.2024 11.5882C24.4489 11.2305 24.5364 10.8807 24.5364 10.4752C24.5364 9.95048 24.3376 9.45756 23.9797 9.08389C23.6219 8.71023 23.1447 8.51147 22.6358 8.51147C22.2382 8.51147 21.8644 8.63868 21.5463 8.86923L20.4728 9.59271C19.272 8.78178 18.1109 8.32861 16.6636 8.32861C16.6318 8.32861 16.6 8.32861 16.5602 8.32861C16.5284 8.32861 16.4966 8.32861 16.4648 8.32861C15.0175 8.32861 13.8565 8.78178 12.6557 9.59271L11.5821 8.86923C11.264 8.63868 10.8903 8.51147 10.4926 8.51147C9.98369 8.51147 9.50655 8.71818 9.1487 9.08389C8.79085 9.45756 8.59204 9.95048 8.59204 10.4752C8.59204 10.8807 8.67952 11.2305 8.92604 11.5882C9.17256 11.946 10.0871 12.6377 10.0871 12.6377C9.58608 13.6633 9.12484 14.8002 9.10894 15.9609V16.0643V16.3505L8.59204 23.9033H9.49065V19.3636C9.50656 19.4034 9.52246 19.4431 9.54632 19.4829C9.75307 19.9281 10.0155 20.3256 10.3256 20.6675C9.35546 18.505 10.0871 15.9689 11.9718 14.6968L11.3356 13.3691C10.5165 13.8779 9.89622 14.6173 9.51451 15.468C9.59403 14.4186 9.89622 13.4327 10.3654 12.5661L9.45884 11.628C9.45884 11.628 9.42703 11.5962 9.41113 11.5803C8.81471 10.9681 8.81471 9.96638 9.41113 9.3542C9.70536 9.04414 10.095 8.89309 10.4847 8.89309C10.8744 8.89309 11.264 9.04414 11.5582 9.3542C11.5742 9.3701 11.598 9.40191 11.598 9.40191L12.3773 10.2049C13.5225 9.3542 14.93 8.84538 16.4489 8.84538C16.4807 8.84538 16.5125 8.84538 16.5443 8.84538C16.5761 8.84538 16.6159 8.84538 16.6477 8.84538C18.1666 8.84538 19.5741 9.34625 20.7193 10.2049L21.4986 9.40191C21.5145 9.386 21.5304 9.3701 21.5384 9.3542C21.8326 9.04414 22.2223 8.89309 22.6119 8.89309C23.0016 8.89309 23.3912 9.04414 23.6855 9.3542C24.2819 9.96638 24.2819 10.9681 23.6855 11.5803C23.6696 11.5962 23.6537 11.6121 23.6457 11.628L22.7392 12.5661C23.2083 13.4407 23.5105 14.4265 23.5901 15.4759C23.2163 14.6253 22.596 13.8779 21.769 13.3771L21.1328 14.7048C23.0175 15.9768 23.7491 18.513 22.7789 20.6754C23.0891 20.3336 23.3515 19.9361 23.5582 19.4908C23.5741 19.4511 23.598 19.4113 23.6139 19.3636V23.9033H24.5125L23.9956 16.3505V16.0643H24.0195Z"
        fill="#231F20" />
    <path
        d="M20.8226 15.4204L20.7431 15.5953L20.0115 17.0185C20.0194 17.0264 20.0194 17.0264 20.0274 17.0344C20.3455 17.3444 20.5443 17.7817 20.5443 18.2667C20.5443 18.7516 20.3455 19.1968 20.0274 19.499L20.1228 19.2922L17.2679 19.2366C16.8862 18.8947 16.6158 18.4575 16.5761 17.9566C16.5363 18.4575 16.2659 18.8947 15.8763 19.2366L13.0294 19.2843L13.1248 19.491C12.8067 19.1809 12.6079 18.7437 12.6079 18.2508C12.6079 17.7658 12.8067 17.3285 13.1248 17.0185C13.1327 17.0105 13.1327 17.0026 13.1407 17.0026L12.4091 15.5794L12.3296 15.4045C10.93 16.4699 10.4131 18.4416 11.1844 20.1191C11.3514 20.4768 11.5661 20.7949 11.8127 21.0731C11.2321 19.7852 11.4071 18.3303 12.1546 17.249C12.2262 18.4495 12.759 19.8011 13.8087 20.5007L13.9916 20.5245C13.9916 20.5086 13.9916 20.5007 13.9995 20.5245H16.584H16.9976H19.1685C19.1685 20.5166 19.1685 20.5166 19.1685 20.5245C19.1765 20.5007 19.1765 20.5086 19.1765 20.5245L19.3594 20.5007C20.4091 19.7931 20.9419 18.4416 21.0135 17.249C21.753 18.3303 21.928 19.7852 21.3475 21.0731C21.594 20.7949 21.8087 20.4768 21.9757 20.1191C22.7471 18.4575 22.2222 16.4778 20.8226 15.4204Z"
        fill="#231F20" />
    <path
        d="M18.8902 16.5652C18.8664 16.5652 18.8505 16.5652 18.8266 16.5652H18.5801L18.437 15.15V15.0864C18.437 14.196 17.5622 12.9875 16.5443 12.9875H16.5364C15.5185 12.9875 14.6914 14.196 14.6914 15.0864V15.15L14.5483 16.5652H14.3097C14.2859 16.5652 14.27 16.5652 14.2461 16.5652C13.3395 16.5652 12.6 17.3284 12.6 18.2666C12.6 19.1411 13.2362 19.8566 14.0552 19.952C15.1845 19.952 16.4807 19.0934 16.5682 17.9644C16.6636 19.0934 17.9519 19.952 19.0811 19.952C19.9002 19.8566 20.5364 19.1331 20.5364 18.2666C20.5364 17.3284 19.8047 16.5652 18.8902 16.5652Z"
        fill="white" />
    <path
        d="M18.7948 22.3611L18.2302 23.2674L17.6656 22.3611L17.109 23.2674L16.5682 22.3611L16.0036 23.2674L15.4549 22.3611L14.8982 23.2674L14.3336 22.3611L13.7928 23.2674V23.9034H19.3515V23.2674L18.7948 22.3611Z"
        fill="#231F20" />
    <path
        d="M16.5682 19.9758L13.7928 20.5244V23.2673L14.3336 22.3609L14.8982 23.2673L15.4549 22.3609L16.0036 23.2673L16.5682 22.3609L17.109 23.2673L17.6656 22.3609L18.2302 23.2673L18.7948 22.3609L19.3515 23.2673V20.5244L16.5682 19.9758Z"
        fill="white" />
    <path
        d="M14.9459 16.7719C14.9459 16.9547 14.9777 17.1217 15.0254 17.2807C15.2004 17.8213 15.6378 18.2347 16.1865 18.3699C16.3058 18.4017 16.441 18.4176 16.5682 18.4176C16.7034 18.4176 16.8306 18.4017 16.9579 18.3699C17.5066 18.2347 17.9439 17.8134 18.1189 17.2807C18.1666 17.1217 18.1984 16.9468 18.1984 16.7639H14.9459V16.7719Z"
        fill="#EE7D00" />
    <path
        d="M15.1208 17.2808C15.089 17.2808 15.0254 17.2808 15.0254 17.2887C15.2003 17.8293 15.6377 18.2507 16.1864 18.3779C16.1785 17.7737 15.7013 17.2808 15.1208 17.2808Z"
        fill="#231F20" />
    <path
        d="M18.0235 17.2808C17.435 17.2808 16.9658 17.7737 16.9579 18.3779C17.5066 18.2507 17.944 17.8293 18.1189 17.2887C18.0871 17.2808 18.0553 17.2808 18.0235 17.2808Z"
        fill="#231F20" />
</svg>