<svg width="32" height="32" viewBox="0 0 32 32" fill="none" xmlns="http://www.w3.org/2000/svg">
    <path
        d="M9.33459 13.3374C7.95096 13.3363 6.58446 13.5997 5.33459 14.1087V15.2434C5.33476 18.1964 6.66794 21.0348 9.05476 23.1637C11.4416 25.2927 14.6968 26.5469 18.1383 26.6637C18.4895 25.8081 18.6683 24.9076 18.6672 24.0007V21.3392C18.6672 19.217 17.684 17.1817 15.9338 15.6811C14.1836 14.1805 11.8098 13.3374 9.33459 13.3374Z"
        fill="#B6BCF7" />
    <path
        d="M18.6672 0C16.9163 -1.43484e-08 15.1824 0.295732 13.5647 0.870309C11.947 1.44489 10.4771 2.28705 9.23902 3.34871C8.00094 4.41037 7.01889 5.67074 6.34895 7.05783C5.67904 8.44494 5.33436 9.93158 5.33459 11.4329V14.1086C6.75725 13.5304 8.32733 13.2702 9.89882 13.352C11.4703 13.4339 12.9921 13.8552 14.3226 14.5768C15.6532 15.2983 16.7493 16.2967 17.5089 17.479C18.2685 18.6614 18.6671 19.9892 18.6672 21.3391V24.0006C18.6676 24.9054 18.4886 25.8037 18.1383 26.6573C18.3226 26.6573 18.4903 26.6683 18.6672 26.6683C22.2035 26.6683 25.5946 25.464 28.0949 23.3202C30.5953 21.1765 32 18.2688 32 15.237V11.4329C32.0003 9.93158 31.6556 8.44494 30.9858 7.05783C30.3157 5.67074 29.3338 4.41037 28.0956 3.34871C26.8575 2.28705 25.3876 1.44489 23.7699 0.870309C22.1522 0.295732 20.4184 -1.43484e-08 18.6672 0Z"
        fill="#434EE1" />
    <path
        d="M5.33456 15.2433V14.1085C3.73858 14.7575 2.3901 15.7814 1.44582 17.0613C0.501528 18.3412 0.000174248 19.8246 0 21.3391V24.0006C0.00105397 25.8887 0.780783 27.7159 2.20133 29.159C3.62188 30.6019 5.59176 31.5677 7.76267 31.8857C9.9336 32.2037 12.1657 31.8533 14.0644 30.8965C15.9631 29.9397 17.4061 28.4381 18.1382 26.6573C14.698 26.5405 11.4439 25.287 9.05727 23.1595C6.67065 21.0319 5.33663 18.1951 5.33456 15.2433Z"
        fill="#0A1567" />
</svg>