<svg width="32" height="32" viewBox="0 0 32 32" fill="none" xmlns="http://www.w3.org/2000/svg">
<path d="M8.68776 19.0812C8.01422 19.1163 7.34165 19.1368 6.67669 19.2559C6.27445 19.3279 5.87547 19.4257 5.49077 19.5645C5.11048 19.7018 4.74677 19.8814 4.37717 20.0444C4.11809 20.1587 3.85512 20.2678 3.58133 20.3419C3.34062 20.4072 3.09947 20.4364 2.8507 20.4415C3.19765 20.4086 3.52174 20.3204 3.84091 20.18C4.19925 20.0224 4.53819 19.8232 4.88289 19.6387C5.24174 19.4466 5.60814 19.2784 5.99413 19.1478C6.37576 19.0188 6.76725 18.9194 7.16219 18.8406C7.24341 18.8244 7.32488 18.8108 7.40629 18.7966C7.00021 18.7803 6.59323 18.7844 6.18817 18.8084C5.54222 18.8467 4.90824 18.9574 4.29217 19.1555C3.10843 19.5361 1.89621 19.8909 0.640015 19.8376C0.986959 19.8328 1.33256 19.8076 1.67368 19.74C2.06453 19.6627 2.44712 19.5669 2.82913 19.4539C3.38017 19.2908 3.91009 19.0717 4.4484 18.8727C5.10856 18.6286 5.81717 18.5114 6.51624 18.4513C6.78139 18.4285 7.04763 18.4139 7.31406 18.4073C6.962 18.3395 6.60635 18.2902 6.25179 18.2576C5.45294 18.1841 4.63656 18.2021 3.85441 18.3926C3.5035 18.4781 3.1732 18.6061 2.84801 18.7617C3.12149 18.6035 3.40001 18.4648 3.69736 18.3564C4.06843 18.2211 4.4564 18.1338 4.84603 18.0728C5.64661 17.9475 6.47105 17.9584 7.27509 18.044C7.68321 18.0875 8.09083 18.1482 8.49057 18.2422C9.20264 18.4097 12.1098 19.0206 13.8615 18.9539C14.9217 18.9829 16.781 19.2425 16.781 19.2425L17.921 20.5057C17.921 20.5057 15.214 19.6945 14.541 19.6017C13.9752 19.5237 12.166 19.2276 11.6677 19.1766C10.6796 19.0753 8.98011 19.066 8.68776 19.0812Z" fill="#E99E18"/>
<path d="M17.3892 19.1458C16.6084 19.1502 16.1504 19.0416 15.531 19.0176C15.1232 19.0018 14.8327 18.9719 14.4928 18.9596C14.2828 18.952 14.0718 18.9557 13.8616 18.9539C14.0708 18.971 14.281 18.9827 14.4896 19.0057C14.8258 19.0427 15.1601 19.0949 15.4935 19.1516C15.9502 19.2293 16.313 19.3372 16.7038 19.4898C16.2097 19.3632 15.6961 19.2994 15.195 19.2432C14.5902 19.1753 13.9778 19.1951 13.3706 19.2018C13.6174 19.2265 13.8643 19.251 14.1111 19.2759C14.312 19.2962 14.5097 19.3294 14.7088 19.3623C14.8604 19.3873 15.0132 19.4078 15.163 19.4418C15.8191 19.5907 16.7585 19.9367 17.3925 20.2842C16.4815 19.9264 15.5197 19.6354 14.5413 19.6018C15.5973 19.7849 16.5673 20.3168 17.5093 20.8123C17.9208 21.0287 19.2693 21.496 21.0333 21.5658C22.7973 21.6356 24.283 21.0155 25.3982 19.8427C25.7493 19.5378 26.2982 19.1827 26.9217 18.969C27.2773 18.5314 27.2853 17.8898 27.2853 17.8898L26.9053 17.5897L25.6209 17.7406C25.6209 17.7406 22.7573 18.6578 20.9493 18.9378C19.1413 19.2178 17.3892 19.1458 17.3892 19.1458Z" fill="#D91B39"/>
<path d="M26.8138 17.343C25.8422 17.6616 25.1434 17.8571 24.2664 18.3834C25.137 18.0447 26.2931 17.762 27.1651 17.778C25.9971 18.0127 25.3731 18.3007 24.473 19.186C24.6437 19.0865 24.812 18.9809 24.9861 18.8877C25.2314 18.7639 25.475 18.6474 25.7291 18.5431C26.1204 18.3825 26.5364 18.346 26.9533 18.3385C26.9016 18.3586 26.8499 18.3787 26.7986 18.3998C26.4373 18.5486 26.0942 18.733 25.7704 18.9517C25.1867 19.3458 24.6945 19.8479 24.2238 20.3675C24.7525 19.9547 25.3315 19.5992 25.9518 19.3328C26.2895 19.1843 26.6364 19.0318 26.9971 18.9515C27.2864 18.887 27.8289 18.7866 28.1251 18.7741C29.0731 18.7341 30.3546 18.9803 30.7758 19.6859C30.8664 19.2555 30.6211 18.5755 30.6211 18.5675C30.6211 18.5595 29.7064 17.7515 29.7064 17.7515L28.1704 16.8635L27.5491 16.3888C27.5491 16.3887 27.6446 17.0705 26.8138 17.343Z" fill="#E77A22"/>
<path d="M29.1082 17.1625C29.7888 17.3798 31.0622 17.7268 31.2456 18.2592C31.3549 18.5765 31.311 19.1326 31.1202 19.3559C30.7974 18.654 29.2622 17.5659 29.1082 17.1625Z" fill="#D91B39"/>
<path d="M30.5822 17.862C30.1101 17.4714 28.366 16.9811 27.7749 16.4664C27.5736 16.291 27.402 15.8502 27.3104 15.5046C27.3428 15.6864 27.3852 15.8582 27.4503 16.0313C27.4855 16.13 27.5351 16.2253 27.5849 16.3174C27.3028 15.9892 27.1561 15.5553 27.0928 15.1341C27.1243 15.4965 27.2173 15.8675 27.4017 16.1853C27.2841 16.0421 27.1903 15.8786 27.1086 15.713C26.9785 15.4285 26.9366 15.1235 26.9216 14.8143C26.9218 15.1346 26.9517 15.4513 27.0758 15.7504C27.1802 16.0015 27.326 16.2472 27.5276 16.434C27.7704 16.7263 28.4926 17.0707 29.2874 17.6179C30.1728 18.2274 30.5756 19.0372 30.817 19.8132C31.4469 19.2418 31.156 18.3368 30.5822 17.862Z" fill="#E99E18"/>
<path d="M26.9283 14.6006C26.8981 14.6003 26.8731 14.6592 26.8724 14.732C26.8718 14.8049 26.8957 14.8642 26.9259 14.8645C26.9561 14.8648 26.9811 14.8059 26.9817 14.733C26.9824 14.6601 26.9584 14.6008 26.9283 14.6006Z" fill="#E99E18"/>
<path d="M27.1004 14.8859C27.0703 14.8856 27.0453 14.9445 27.0446 15.0174C27.044 15.0903 27.0679 15.1496 27.0981 15.1498C27.1283 15.1501 27.1533 15.0912 27.1539 15.0184C27.1546 14.9455 27.1306 14.8862 27.1004 14.8859Z" fill="#E99E18"/>
<path d="M27.3046 15.2778C27.2745 15.2799 27.2544 15.3407 27.2597 15.4134C27.265 15.486 27.2937 15.5432 27.3238 15.541C27.3539 15.5388 27.374 15.4781 27.3687 15.4054C27.3634 15.3327 27.3347 15.2756 27.3046 15.2778Z" fill="#E99E18"/>
<path d="M29.8762 18.1014C29.8762 18.1014 29.4119 17.722 28.7894 17.3772C29.2032 17.4129 29.9866 17.6101 29.8762 18.1014Z" fill="#E8E342" stroke="#D91B39" stroke-miterlimit="10"/>
<path d="M23.9934 18.8502C23.0119 18.3473 20.3278 16.1766 20.3278 16.1766L18.7557 14.8299L16.1498 13.5141C16.1498 13.5141 9.00163 10.9382 8.08771 10.7455C10.7872 11.9496 15.3159 13.746 17.0439 14.9068C15.628 14.58 11.4471 13.1761 9.28195 12.8431C11.0696 13.4524 15.0547 14.9682 16.6861 15.9781C15.2919 15.7911 14.0988 15.8621 14.0988 15.8621C15.9375 16.2074 17.6401 16.6587 18.5956 17.0936C17.9355 17.1597 15.9999 17.6089 15.6795 17.7815C17.0021 17.7631 18.9955 17.9311 20.7717 18.1854C20.7692 18.1868 20.7668 18.1883 20.7643 18.1896C20.5774 18.2913 20.3612 18.3361 20.1532 18.377C20.3986 18.4104 20.6419 18.4287 20.8878 18.3876C20.9856 18.3743 21.0869 18.347 21.1838 18.3075C21.0498 18.4188 20.8883 18.4812 20.7179 18.5192C20.9158 18.5459 21.1164 18.5384 21.3052 18.4663C21.428 18.4238 21.5481 18.3752 21.6676 18.3253C21.6467 18.3652 21.6242 18.4043 21.5975 18.441C21.5355 18.5262 21.4612 18.5913 21.3694 18.6449C21.5943 18.6335 21.8114 18.5272 21.9763 18.3778C22.7941 18.5235 23.5045 18.6851 23.9925 18.8502H23.9934Z" fill="#E99E18"/>
<path d="M8.64617 12.6777C10.0472 12.8983 11.7484 13.1642 13.1178 13.5031C14.9335 13.9524 16.408 14.4887 18.1965 15.0156C17.8318 14.7774 17.4552 14.5522 17.0682 14.3376C16.0325 13.7634 14.937 13.27 13.8113 12.8445C11.5553 11.9919 9.29205 11.159 7.00681 10.368C9.2797 10.9402 11.5372 11.5513 13.7889 12.1845C16.2204 12.8682 18.6081 13.8288 20.6074 15.2425C21.4535 15.8407 21.9939 17.2614 23.308 18.235C23.5418 18.4082 24.1467 18.4981 24.2063 18.5076C24.2074 18.5076 24.2085 18.5079 24.2095 18.5081C24.2101 18.5081 24.2119 18.5084 24.2124 18.5085L24.2123 18.5087C24.2664 18.5177 24.3185 18.5398 24.3613 18.5757C24.4783 18.674 24.4819 18.8366 24.369 18.9389C24.3181 18.9851 24.2128 19.0575 24.0586 18.9844C23.2723 18.6108 22.5356 18.3476 21.8614 18.1554C21.8021 18.1559 21.7383 18.1471 21.6814 18.1499C21.5901 18.154 21.4979 18.16 21.4083 18.1755C21.25 18.203 21.1105 18.2466 20.9656 18.3085C21.0399 18.1897 21.1281 18.0852 21.2272 17.99C20.4337 17.8022 19.7464 17.7076 19.196 17.6333C18.624 17.5561 17.9553 17.5474 17.3813 17.5592C16.7849 17.5714 16.2033 17.6659 15.6268 17.7932C16.6459 17.2647 17.8089 16.8621 19.0064 16.8118C18.1537 16.58 17.2932 16.3711 16.4237 16.1924C15.5066 16.0039 14.5772 15.8511 13.6327 15.8496C14.6174 15.6911 15.6178 15.7048 16.6148 15.7447C17.0074 15.7604 17.3996 15.7847 17.7914 15.8134C17.0799 15.5322 16.366 15.2553 15.6488 14.9851C13.358 14.1219 11.0475 13.2797 8.64591 12.6777H8.64617Z" fill="#D91B39"/>
</svg>
