<svg width="32" height="32" viewBox="0 0 32 32" fill="none" xmlns="http://www.w3.org/2000/svg">
    <g clip-path="url(#clip0_721_1448)">
        <mask id="mask0_721_1448" style="mask-type:luminance" maskUnits="userSpaceOnUse" x="0" y="0"
            width="32" height="32">
            <path d="M0 0H32V32H0V0Z" fill="white" />
        </mask>
        <g mask="url(#mask0_721_1448)">
            <path
                d="M25.7863 15.161C25.7974 15.134 25.807 15.1069 25.8181 15.0782C25.8054 15.1117 25.7926 15.1451 25.7799 15.177C25.7815 15.1722 25.7831 15.1674 25.7863 15.161Z"
                fill="#FF8080" />
            <path
                d="M15.3552 21.6725C15.2772 21.6678 15.2008 21.663 15.1244 21.655C15.2008 21.6614 15.2788 21.6678 15.3552 21.6725Z"
                fill="#FF8080" />
            <path
                d="M15.602 21.6852C15.5352 21.682 15.4683 21.6788 15.403 21.6757C15.4699 21.6788 15.5352 21.682 15.602 21.6852Z"
                fill="#FF8080" />
            <path
                d="M23.4746 18.6094C23.446 18.638 23.4173 18.6651 23.3887 18.6938C23.4173 18.6667 23.446 18.638 23.4746 18.6094Z"
                fill="#FF8080" />
            <path
                d="M24.2054 17.8054C24.761 17.124 25.2402 16.3646 25.6223 15.532C25.2736 16.2882 24.8374 17.003 24.3184 17.6621C24.2818 17.7099 24.2436 17.7577 24.2054 17.8054Z"
                fill="#FF8080" />
            <path
                d="M24.2022 17.807C24.1529 17.8691 24.1003 17.9296 24.0494 17.9917C24.1003 17.9312 24.1529 17.8691 24.2022 17.807Z"
                fill="#FF8080" />
            <path
                d="M23.2072 15.5878C22.4318 14.3125 21.5419 13.1503 20.5612 12.1028C18.1683 13.0644 15.5861 13.5977 12.9321 13.628C13.3381 16.1577 13.6263 18.8069 13.6263 21.2363C13.6263 21.2984 13.6247 21.3589 13.6231 21.4194C14.1102 21.5324 14.6054 21.612 15.1069 21.655C15.1116 21.655 15.118 21.655 15.1244 21.655C15.2008 21.663 15.2772 21.6678 15.3552 21.6725C15.3711 21.6741 15.3871 21.6741 15.403 21.6757C15.4682 21.6789 15.5351 21.6821 15.602 21.6853C15.6306 21.6853 15.6577 21.6869 15.6864 21.6869C15.7405 21.6885 15.7962 21.69 15.8503 21.6916C15.8917 21.6916 15.9331 21.6916 15.9745 21.6916C16.0143 21.6916 16.0557 21.6932 16.0971 21.6916C16.1512 21.6916 16.207 21.69 16.2611 21.6885C16.2897 21.6885 16.3168 21.6885 16.3455 21.6869C16.4123 21.6853 16.4792 21.6821 16.5461 21.6789C16.562 21.6773 16.5763 21.6773 16.5922 21.6757C16.6702 21.6709 16.7467 21.6662 16.8231 21.6598C16.8294 21.6598 16.8358 21.6598 16.8406 21.6598C17.35 21.6184 17.8531 21.5404 18.3482 21.429C18.3498 21.4274 18.3514 21.4274 18.353 21.4274C18.431 21.4098 18.509 21.3907 18.5871 21.37C18.595 21.3685 18.603 21.3669 18.6109 21.3637C18.6826 21.3462 18.7542 21.3271 18.8259 21.308C18.8418 21.3032 18.8561 21.2984 18.872 21.2952C18.9357 21.2761 19.001 21.257 19.0647 21.2379C19.087 21.2315 19.1108 21.2236 19.1331 21.2172C19.1904 21.1997 19.2478 21.1806 19.3035 21.1631C19.3353 21.1519 19.3672 21.1408 19.399 21.1312C19.4468 21.1137 19.4961 21.0978 19.5439 21.0803C19.5837 21.066 19.6251 21.0516 19.6649 21.0357C19.7047 21.0214 19.7461 21.0071 19.7859 20.9911C19.8336 20.9736 19.883 20.9529 19.9307 20.9338C19.9642 20.9211 19.996 20.9084 20.0294 20.8956C20.082 20.8733 20.1329 20.851 20.1839 20.8288C20.2141 20.816 20.2444 20.8033 20.2746 20.7905C20.3112 20.7746 20.3479 20.7571 20.3861 20.7412C21.198 20.3718 21.9654 19.9006 22.6659 19.3354C22.6659 19.3338 22.6675 19.3338 22.6675 19.3338C22.7295 19.2829 22.7916 19.2319 22.8537 19.181C22.8601 19.1746 22.8665 19.1683 22.8744 19.1619C22.9285 19.1157 22.9827 19.0696 23.0352 19.0218C23.0495 19.0091 23.0639 18.9979 23.0782 18.9852C23.1228 18.9438 23.1689 18.9024 23.2151 18.8594C23.2358 18.8403 23.2565 18.8196 23.2772 18.8005C23.3154 18.7655 23.352 18.7289 23.3886 18.6938C23.4173 18.6652 23.446 18.6381 23.4746 18.6095C23.5033 18.5808 23.5319 18.5521 23.559 18.5251C23.5956 18.4885 23.6306 18.4518 23.6657 18.4136C23.6864 18.3929 23.7071 18.3722 23.7262 18.3499C23.7691 18.3054 23.8105 18.2608 23.8519 18.2146C23.8647 18.2003 23.8774 18.1876 23.8885 18.1732C23.9363 18.1191 23.9841 18.0666 24.0318 18.0124C24.0366 18.0045 24.043 17.9981 24.0493 17.9917C24.1003 17.9296 24.1528 17.8692 24.2022 17.8071C24.2038 17.8071 24.2038 17.8055 24.2054 17.8055C24.2436 17.7577 24.2818 17.7099 24.3184 17.6622C23.9904 16.9585 23.6211 16.266 23.2072 15.5878Z"
                fill="#FC968B" />
            <path
                d="M13.6231 21.4209C14.1166 21.5339 14.6118 21.612 15.1069 21.6549C14.6054 21.612 14.1103 21.5323 13.6231 21.4193V21.4209Z"
                fill="#FF8080" />
            <path
                d="M26.5616 11.9929C26.517 12.5024 26.4374 13.0055 26.3212 13.499C26.439 12.9975 26.5186 12.4944 26.5616 11.9929Z"
                fill="#FF8080" />
            <path
                d="M20.1839 20.8287C20.133 20.851 20.082 20.8733 20.0295 20.8956C20.0804 20.8733 20.133 20.851 20.1839 20.8287Z"
                fill="#FF8080" />
            <path
                d="M7.76435 17.7593C7.19918 17.0588 6.72793 16.2899 6.35858 15.4763C6.73749 16.3121 7.21192 17.0747 7.76435 17.7593Z"
                fill="#0BAD7F" />
            <path
                d="M6.1978 15.1069C6.20098 15.1133 6.20257 15.1181 6.20416 15.1229C6.19143 15.091 6.17869 15.0592 6.16595 15.0273C6.1771 15.0544 6.18665 15.0815 6.1978 15.1069Z"
                fill="#0BAD7F" />
            <path
                d="M13.6231 21.421C13.6167 21.4194 13.6088 21.4162 13.6008 21.4146L13.5944 21.413C13.518 21.3955 13.44 21.3764 13.362 21.3557C13.354 21.3541 13.3461 21.3525 13.3381 21.3493C13.2665 21.3318 13.1948 21.3111 13.1248 21.292C13.1089 21.2872 13.0929 21.2825 13.077 21.2777C13.0133 21.2602 12.9497 21.2411 12.886 21.222C12.8621 21.214 12.8382 21.2061 12.8159 21.1997C12.7586 21.1806 12.7029 21.1631 12.6472 21.144C12.6153 21.1344 12.5835 21.1233 12.5516 21.1121C12.5039 21.0946 12.4561 21.0787 12.4068 21.0612C12.367 21.0468 12.3256 21.0309 12.2858 21.015C12.246 21.0007 12.2062 20.9863 12.1664 20.9704C12.117 20.9513 12.0693 20.9322 12.0199 20.9115C11.9928 20.9004 11.9658 20.8908 11.9371 20.8797C11.9323 20.8765 11.9276 20.8749 11.9228 20.8733C11.8703 20.851 11.8193 20.8287 11.7668 20.8049C11.7365 20.7921 11.7079 20.7794 11.6776 20.7666C11.6394 20.7491 11.6012 20.7316 11.563 20.7141C10.7335 20.332 9.97413 19.8528 9.29433 19.2972C9.29433 19.2972 9.29274 19.2972 9.29274 19.2956C9.23065 19.2462 9.16856 19.1937 9.10806 19.1428C9.10169 19.1364 9.09533 19.13 9.08737 19.1253C9.03324 19.0775 8.97911 19.0297 8.92657 18.9836C8.91224 18.9708 8.89951 18.9581 8.88518 18.9454C8.83901 18.904 8.79443 18.8626 8.74826 18.8196C8.72757 18.8005 8.70687 18.7798 8.68617 18.7591C8.64796 18.7241 8.61135 18.689 8.57632 18.6524C8.54607 18.6254 8.51742 18.5967 8.49035 18.568C8.4617 18.5394 8.43304 18.5107 8.40597 18.4821C8.36936 18.4455 8.33433 18.4088 8.29931 18.3706C8.27861 18.3499 8.25951 18.3292 8.2404 18.3085C8.19742 18.2624 8.15602 18.2162 8.11463 18.17C8.10189 18.1573 8.09075 18.143 8.07801 18.1302C8.03025 18.0761 7.98408 18.022 7.93632 17.9678C7.93155 17.9599 7.92518 17.9535 7.91881 17.9471C7.86786 17.8851 7.81692 17.8246 7.76597 17.7609L7.76438 17.7593C7.21194 17.0747 6.73752 16.3121 6.35861 15.4763C6.3411 15.4413 6.32518 15.4047 6.30926 15.368C6.29493 15.3378 6.28219 15.3075 6.26946 15.2773C6.24717 15.2248 6.22647 15.1738 6.20418 15.1229C6.20259 15.1181 6.19941 15.1133 6.19781 15.1069C6.18667 15.0815 6.17712 15.0544 6.16597 15.0273C6.14687 14.978 6.12617 14.927 6.10707 14.8761C6.09433 14.8427 6.0816 14.8076 6.06886 14.7742C6.05135 14.7249 6.03224 14.6771 6.01632 14.6277C6.00359 14.5943 5.99244 14.5593 5.97971 14.5259C5.96378 14.4765 5.94627 14.4256 5.93035 14.3762C5.91921 14.3444 5.90966 14.3125 5.9001 14.2791C5.88259 14.2265 5.86667 14.1724 5.84916 14.1183C5.8412 14.0912 5.83324 14.0642 5.82528 14.0355C5.80776 13.975 5.79184 13.9145 5.77433 13.854C5.76956 13.8349 5.76478 13.8142 5.75841 13.7951C5.7409 13.7235 5.72179 13.6518 5.70428 13.5786C5.70269 13.5706 5.7011 13.5627 5.69791 13.5547C5.60558 13.1647 5.53393 12.7682 5.48458 12.3686C5.48299 12.3575 5.48299 12.3463 5.4814 12.3352C5.46548 16.7722 5.40179 31.5002 5.40179 31.5002C5.40179 31.5002 13.5085 30.0053 13.6231 21.421Z"
                fill="#00A06E" />
            <path
                d="M7.00337 5.50537C7.00177 5.50537 7.00018 5.50537 6.99859 5.50537C6.99222 5.51811 6.98426 5.52925 6.9763 5.54199C6.92695 5.62477 6.8776 5.70915 6.82983 5.79512C6.88715 5.69801 6.94446 5.60089 7.00337 5.50537Z"
                fill="#0BAD7F" />
            <path
                d="M5.48775 12.3702C5.48616 12.3511 5.48298 12.3336 5.48138 12.316C5.48138 12.3224 5.48138 12.3288 5.48138 12.3351C5.48298 12.3463 5.48298 12.3574 5.48457 12.3686C5.48616 12.3686 5.48616 12.3686 5.48775 12.3702Z"
                fill="#0BAD7F" />
            <path
                d="M7.91883 17.9471C7.86788 17.885 7.81694 17.823 7.76599 17.7609C7.81694 17.8245 7.86788 17.885 7.91883 17.9471Z"
                fill="#0BAD7F" />
            <path
                d="M12.9321 13.628C12.5023 10.947 11.9387 8.3997 11.4436 6.39054C9.99959 5.93841 8.51104 5.64229 7.00337 5.50537C6.94447 5.60089 6.88716 5.69801 6.82984 5.79512C6.06885 7.15154 5.48457 8.9187 5.48457 11.1555C5.48457 11.3099 5.48298 11.7175 5.48138 12.3161C5.48298 12.3336 5.48616 12.3511 5.48775 12.3702C6.21691 12.6313 6.96835 12.8574 7.7389 13.0421C9.479 13.4592 11.2207 13.6471 12.9321 13.628Z"
                fill="#00A06E" />
            <path
                d="M8.07803 18.1302C8.03027 18.076 7.98251 18.0219 7.93634 17.9678C7.9841 18.0219 8.03027 18.076 8.07803 18.1302Z"
                fill="#0BAD7F" />
            <path
                d="M11.563 20.714C10.7542 20.3415 9.99003 19.8655 9.29431 19.2971C9.97411 19.8527 10.7335 20.3319 11.563 20.714Z"
                fill="#0BAD7F" />
            <path
                d="M6.35862 15.4763C6.34111 15.4397 6.32519 15.4047 6.30927 15.368C6.32519 15.4047 6.34111 15.4413 6.35862 15.4763Z"
                fill="#0BAD7F" />
            <path
                d="M9.08737 19.1252C9.03324 19.0775 8.9807 19.0313 8.92657 18.9835C8.97911 19.0297 9.03324 19.0775 9.08737 19.1252Z"
                fill="#0BAD7F" />
            <path
                d="M5.48456 12.3687C5.53391 12.7683 5.60555 13.1647 5.69789 13.5547C5.60555 13.1615 5.5355 12.7651 5.48774 12.3687C5.48615 12.3687 5.48615 12.3687 5.48456 12.3687Z"
                fill="#0BAD7F" />
            <path
                d="M13.6008 21.4146C13.6088 21.4161 13.6168 21.4193 13.6231 21.4209V21.4193C13.6168 21.4177 13.6088 21.4161 13.6008 21.4146Z"
                fill="#0BAD7F" />
            <path
                d="M13.6263 21.2363C13.6263 18.8069 13.3381 16.1577 12.9322 13.628C11.2207 13.6471 9.47904 13.4592 7.73894 13.0421C6.96839 12.8574 6.21695 12.6313 5.48779 12.3702C5.53555 12.7651 5.6056 13.1615 5.69794 13.5547C5.70113 13.5627 5.70272 13.5706 5.70431 13.5786C5.72182 13.6518 5.74093 13.7235 5.75844 13.7951C5.76481 13.8142 5.76958 13.8349 5.77436 13.854C5.79187 13.9145 5.80779 13.975 5.82531 14.0355C5.83327 14.0642 5.84123 14.0912 5.84919 14.1183C5.8667 14.1724 5.88262 14.2266 5.90013 14.2791C5.90968 14.3125 5.91924 14.3444 5.93038 14.3762C5.9463 14.4256 5.96381 14.4749 5.97973 14.5259C5.99247 14.5593 6.00361 14.5943 6.01635 14.6278C6.03227 14.6771 6.05137 14.7249 6.06889 14.7742C6.08162 14.8077 6.09436 14.8427 6.1071 14.8761C6.1262 14.9271 6.1469 14.978 6.166 15.0274C6.17874 15.0592 6.19147 15.091 6.20421 15.1229C6.2265 15.1738 6.2472 15.2248 6.26948 15.2773C6.28222 15.3076 6.29496 15.3378 6.30929 15.3681C6.32521 15.4047 6.34113 15.4413 6.35864 15.4763C6.72799 16.2898 7.19924 17.0588 7.76441 17.7593L7.766 17.7609C7.81695 17.823 7.86789 17.8851 7.91884 17.9472C7.92521 17.9535 7.93157 17.9599 7.93635 17.9679C7.98252 18.022 8.03028 18.0761 8.07804 18.1302C8.09078 18.143 8.10192 18.1573 8.11466 18.17C8.15605 18.2162 8.19744 18.2624 8.24043 18.3085C8.25953 18.3292 8.27864 18.3499 8.29934 18.3706C8.33436 18.4088 8.36938 18.4455 8.406 18.4821C8.43307 18.5107 8.46172 18.5394 8.48879 18.5681C8.51744 18.5967 8.5461 18.6254 8.57635 18.6524C8.61137 18.689 8.64799 18.7241 8.6862 18.7591C8.7069 18.7798 8.72759 18.8005 8.74829 18.8196C8.79446 18.8626 8.83904 18.904 8.88521 18.9454C8.89953 18.9581 8.91227 18.9708 8.9266 18.9836C8.98073 19.0313 9.03327 19.0775 9.0874 19.1253C9.09536 19.13 9.10172 19.1364 9.10809 19.1428C9.16859 19.1937 9.23068 19.2463 9.29277 19.2956C9.29277 19.2972 9.29436 19.2972 9.29436 19.2972C9.99008 19.8656 10.7543 20.3416 11.563 20.7141C11.6012 20.7316 11.6394 20.7491 11.6776 20.7667C11.7079 20.7794 11.7366 20.7921 11.7668 20.8049C11.8193 20.8287 11.8703 20.851 11.9228 20.8733C11.9547 20.8861 11.9881 20.8988 12.0199 20.9115C12.0693 20.9322 12.117 20.9513 12.1664 20.9704C12.2062 20.9864 12.246 21.0007 12.2858 21.015C12.3256 21.0309 12.367 21.0469 12.4068 21.0612C12.4546 21.0787 12.5039 21.0946 12.5517 21.1121C12.5835 21.1233 12.6154 21.1344 12.6472 21.144C12.7029 21.1631 12.7586 21.1806 12.816 21.1997C12.8382 21.2061 12.8621 21.214 12.886 21.222C12.9497 21.2411 13.0134 21.2602 13.077 21.2777C13.093 21.2825 13.1089 21.2873 13.1248 21.292C13.1949 21.3111 13.2665 21.3318 13.3381 21.3493C13.3461 21.3525 13.3541 21.3541 13.362 21.3557C13.44 21.3764 13.5164 21.3955 13.5945 21.413L13.6008 21.4146C13.6088 21.4162 13.6167 21.4178 13.6231 21.4194C13.6247 21.3589 13.6263 21.2984 13.6263 21.2363Z"
                fill="#0F615D" />
            <path
                d="M5.97971 14.5259C5.96379 14.4749 5.94628 14.4256 5.93036 14.3762C5.94628 14.4256 5.96379 14.4765 5.97971 14.5259Z"
                fill="#0BAD7F" />
            <path
                d="M12.5517 21.1121C12.5039 21.0946 12.4546 21.0787 12.4068 21.0612C12.4562 21.0787 12.5039 21.0946 12.5517 21.1121Z"
                fill="#0BAD7F" />
            <path
                d="M13.5944 21.413C13.5164 21.3955 13.44 21.3764 13.362 21.3557C13.44 21.3764 13.518 21.3955 13.5944 21.413Z"
                fill="#0BAD7F" />
            <path
                d="M11.9371 20.8797C11.9658 20.8908 11.9928 20.9004 12.0199 20.9115C11.9881 20.8988 11.9546 20.886 11.9228 20.8733C11.9276 20.8749 11.9323 20.8765 11.9371 20.8797Z"
                fill="#0BAD7F" />
            <path
                d="M25.8086 7.08464C25.8054 7.07986 25.8038 7.07509 25.8022 7.07031C25.8149 7.10215 25.8277 7.13559 25.8404 7.16743C25.8292 7.14036 25.8197 7.1133 25.8086 7.08464Z"
                fill="#FFAE33" />
            <path
                d="M26.2766 8.51268C26.275 8.50472 26.2734 8.49517 26.2702 8.48721C26.2527 8.41556 26.2336 8.34551 26.2145 8.27387C26.2097 8.25795 26.205 8.24362 26.2018 8.2277C26.1827 8.16402 26.1636 8.09875 26.1445 8.03507C26.1381 8.01119 26.1301 7.9889 26.1238 7.96502C26.1063 7.9093 26.0872 7.85198 26.0696 7.79626C26.0585 7.76442 26.0474 7.73258 26.0378 7.70074C26.0203 7.65138 26.0044 7.60362 25.9869 7.55586C25.9725 7.51606 25.9582 7.47467 25.9423 7.43328C25.928 7.39347 25.9136 7.35367 25.8977 7.31387C25.8802 7.26611 25.8595 7.21676 25.8404 7.16741C25.8277 7.13556 25.8149 7.10213 25.8022 7.07029C25.7799 7.01775 25.7576 6.96681 25.7353 6.91427C25.7226 6.88561 25.7098 6.85536 25.6971 6.82512C25.6796 6.78532 25.6621 6.74711 25.6446 6.70731C25.4854 6.36024 25.3102 6.02114 25.116 5.69158C25.1144 5.69158 25.1144 5.68999 25.1128 5.6884C25.073 5.61994 25.0316 5.55308 24.9887 5.48462C24.9855 5.47825 24.9823 5.47347 24.9791 5.4687C24.9393 5.40661 24.9011 5.34452 24.8597 5.28402C24.8517 5.27129 24.8438 5.25855 24.8358 5.24581C24.8008 5.19328 24.7658 5.14074 24.7291 5.0882C24.7148 5.0675 24.7005 5.04522 24.6846 5.02452C24.6559 4.98153 24.6257 4.94014 24.5954 4.89875C24.5715 4.86532 24.5477 4.83347 24.5238 4.80004C24.5031 4.77139 24.4824 4.74432 24.4601 4.71566C24.4251 4.6679 24.3885 4.62014 24.3518 4.57397C24.3423 4.56124 24.3327 4.55009 24.3248 4.53895C21.483 0.937753 16.5047 -0.48553 12.0151 1.28323C12.0072 1.28641 11.9992 1.288 11.9912 1.29119C11.9817 1.29596 11.9721 1.29915 11.9626 1.30392C11.961 1.30392 11.9594 1.30551 11.9594 1.30551C11.3703 1.54114 10.8147 1.82611 10.2957 2.15566C10.2957 2.15566 10.2973 2.16044 10.2989 2.1684C10.3483 2.33079 10.8466 3.97059 11.4436 6.39049C14.8617 7.45875 18.0203 9.39148 20.5612 12.1027C22.6468 11.2637 24.5906 10.0983 26.3116 8.65278C26.3005 8.60661 26.2893 8.55885 26.2766 8.51268Z"
                fill="#FFA300" />
            <path
                d="M26.3339 8.74513C26.3148 8.66712 26.2973 8.59071 26.2766 8.5127C26.2893 8.55886 26.3005 8.60663 26.3116 8.65279C26.318 8.68464 26.326 8.71488 26.3339 8.74513Z"
                fill="#FFAE33" />
            <path
                d="M25.7799 15.177C25.7576 15.2295 25.7353 15.2805 25.713 15.3314C25.7353 15.2805 25.7576 15.2279 25.7799 15.177Z"
                fill="#FFAE33" />
            <path
                d="M25.116 5.69153C25.3103 6.02108 25.4854 6.36019 25.6446 6.70725C25.4838 6.35541 25.3071 6.0179 25.116 5.69153Z"
                fill="#FFAE33" />
            <path
                d="M26.3355 8.75146C26.447 9.24659 26.525 9.74967 26.5664 10.2575C26.525 9.75604 26.4485 9.25296 26.3355 8.75146Z"
                fill="#FFAE33" />
            <path
                d="M26.2145 8.27393C26.2336 8.34557 26.2527 8.41562 26.2703 8.48726C26.2527 8.41721 26.2336 8.34557 26.2145 8.27393Z"
                fill="#FFAE33" />
            <path
                d="M20.5612 12.1028C21.5419 13.1503 22.4319 14.3125 23.2072 15.5878C23.6211 16.266 23.9905 16.9585 24.3184 17.6622C24.8374 17.0031 25.2737 16.2883 25.6223 15.532C25.6398 15.4954 25.6573 15.4588 25.6733 15.4222C25.6876 15.3919 25.6987 15.3617 25.7131 15.3314C25.7353 15.2805 25.7576 15.2295 25.7783 15.177C25.7927 15.1452 25.8054 15.1117 25.8181 15.0783C25.8388 15.0305 25.8579 14.9828 25.877 14.9334C25.893 14.8936 25.9073 14.8538 25.9216 14.814C25.9375 14.7726 25.9535 14.7328 25.9678 14.6914C25.9853 14.6437 26.0012 14.5959 26.0187 14.5482C26.0299 14.5163 26.041 14.4845 26.0506 14.4526C26.0697 14.3969 26.0872 14.3396 26.1063 14.2839C26.1127 14.26 26.1206 14.2377 26.127 14.2138C26.1477 14.1501 26.1668 14.0865 26.1843 14.0212C26.1891 14.0069 26.1939 13.9909 26.1986 13.975C26.2177 13.905 26.2384 13.8333 26.2559 13.7617C26.2591 13.7537 26.2607 13.7458 26.2623 13.7378C26.283 13.6598 26.3021 13.5818 26.3196 13.5038C26.3212 13.5022 26.3212 13.5006 26.3212 13.499C26.4374 13.0055 26.517 12.5024 26.5616 11.9929C26.5616 11.9866 26.5616 11.9818 26.5616 11.9754C26.568 11.899 26.5744 11.821 26.5791 11.7446C26.5807 11.7287 26.5807 11.7127 26.5823 11.6984C26.5855 11.6315 26.5887 11.5647 26.5919 11.4962C26.5919 11.4692 26.5935 11.4421 26.5935 11.4134C26.595 11.3593 26.5966 11.3036 26.5982 11.2494C26.5982 11.2081 26.5982 11.1667 26.5982 11.1269C26.5982 11.0855 26.5998 11.0441 26.5982 11.0027C26.5982 10.947 26.5966 10.8928 26.5951 10.8387C26.5951 10.81 26.595 10.783 26.5935 10.7543C26.5919 10.6875 26.5887 10.6206 26.5855 10.5537C26.5839 10.5378 26.5839 10.5219 26.5823 10.5076C26.5775 10.4295 26.5728 10.3531 26.5664 10.2767C26.5664 10.2703 26.5664 10.264 26.5664 10.2576C26.525 9.74975 26.447 9.24666 26.3355 8.75154L26.334 8.74517C26.326 8.71492 26.318 8.68467 26.3117 8.65283C24.5907 10.0984 22.6468 11.2638 20.5612 12.1028Z"
                fill="#FF4856" />
            <path
                d="M11.4436 6.39047C10.8466 3.97057 10.3483 2.33077 10.2989 2.16838C10.2973 2.16042 10.2957 2.15564 10.2957 2.15564L10.2941 2.15405C10.2464 2.19226 8.39164 3.20639 7.0002 5.5037C7.0002 5.5037 7.0002 5.5053 6.99861 5.5053C7.0002 5.5053 7.00179 5.5053 7.00338 5.5053C8.51105 5.64221 9.9996 5.93833 11.4436 6.39047Z"
                fill="#007C32" />
        </g>
    </g>
    <defs>
        <clipPath id="clip0_721_1448">
            <rect width="32" height="32" fill="white" />
        </clipPath>
    </defs>
</svg>