<svg width="32" height="32" viewBox="0 0 33 33" fill="none" xmlns="http://www.w3.org/2000/svg">
    <path fill-rule="evenodd" clip-rule="evenodd"
        d="M16.7638 0.821029C16.5075 3.0297 16.4215 5.28595 16.5057 7.58977C13.7932 9.52222 11.1266 11.5181 8.50608 13.5775C8.46314 11.2329 8.50613 8.88984 8.63511 6.54843C11.1959 4.62748 13.7334 2.67496 16.2477 0.690861C16.4894 0.510787 16.6615 0.554185 16.7638 0.821029Z"
        fill="#8CCAEB" />
    <path fill-rule="evenodd" clip-rule="evenodd"
        d="M16.7638 0.821045C19.2602 2.77396 21.7976 4.68308 24.3764 6.54844C24.5054 8.88985 24.5482 11.2329 24.5054 13.5775C24.4195 13.5775 24.3333 13.5775 24.2473 13.5775C21.8201 11.3902 19.2396 9.39428 16.5057 7.58979C16.4215 5.28597 16.5075 3.02971 16.7638 0.821045Z"
        fill="#557D95" />
    <path fill-rule="evenodd" clip-rule="evenodd"
        d="M16.5058 7.58972C19.2396 9.39422 21.8201 11.3901 24.2474 13.5775C24.2474 13.6642 24.2474 13.751 24.2474 13.8378C21.7393 15.8475 19.1588 17.7566 16.5058 19.5652C16.4198 19.5652 16.3337 19.5652 16.2477 19.5652C13.8095 17.5958 11.3149 15.6867 8.76415 13.8378C8.67814 13.8378 8.59211 13.8378 8.5061 13.8378C8.42009 13.8378 8.33406 13.8378 8.24805 13.8378C8.24805 13.6642 8.33406 13.5775 8.5061 13.5775C11.1267 11.5181 13.7932 9.52217 16.5058 7.58972Z"
        fill="#79B1D1" />
    <path fill-rule="evenodd" clip-rule="evenodd"
        d="M8.24804 13.8378C8.33405 13.8378 8.42009 13.8378 8.5061 13.8378C8.54904 16.0957 8.50604 18.3519 8.37707 20.6065C5.75163 22.5132 3.21411 24.5092 0.764488 26.5942C0.423393 24.2924 0.423393 21.9493 0.764488 19.5652C3.26379 17.6497 5.75832 15.7406 8.24804 13.8378Z"
        fill="#2A96BD" />
    <path fill-rule="evenodd" clip-rule="evenodd"
        d="M8.76414 13.8378C11.3149 15.6867 13.8094 17.5958 16.2477 19.5652C16.2906 21.8231 16.2476 24.0794 16.1187 26.3339C13.7102 24.4249 11.3017 22.5156 8.89317 20.6065C8.76419 18.3519 8.7212 16.0957 8.76414 13.8378Z"
        fill="#156C8D" />
    <path fill-rule="evenodd" clip-rule="evenodd"
        d="M24.7635 13.8378C27.2581 15.7469 29.7524 17.656 32.247 19.5652C32.2899 21.8231 32.247 24.0794 32.118 26.3339C29.6234 24.4249 27.1291 22.5156 24.6345 20.6065C24.4218 18.3043 24.4649 16.048 24.7635 13.8378Z"
        fill="#6B8696" />
    <path fill-rule="evenodd" clip-rule="evenodd"
        d="M24.2474 13.8378C24.2902 16.0957 24.2474 18.3519 24.1183 20.6065C21.9946 22.3935 19.8011 24.0856 17.538 25.6831C17.1145 25.977 16.8564 26.3675 16.7638 26.8546C16.5918 26.8546 16.4198 26.8546 16.2477 26.8546C16.4986 24.4465 16.5846 22.0168 16.5058 19.5652C19.1588 17.7566 21.7393 15.8475 24.2474 13.8378Z"
        fill="#B9E5F7" />
    <path fill-rule="evenodd" clip-rule="evenodd"
        d="M8.50607 13.8378C8.59208 13.8378 8.67812 13.8378 8.76413 13.8378C8.72119 16.0957 8.76418 18.3519 8.89315 20.6065C11.3016 22.5156 13.7102 24.4249 16.1187 26.3339C16.2476 24.0794 16.2906 21.8231 16.2477 19.5652C16.3337 19.5652 16.4197 19.5652 16.5057 19.5652C16.5846 22.0168 16.4985 24.4465 16.2477 26.8546C13.6501 28.7946 11.0265 30.7037 8.37705 32.582C5.72044 30.7247 3.18292 28.7287 0.764465 26.5942C3.21409 24.5092 5.75161 22.5132 8.37705 20.6065C8.50602 18.3519 8.54901 16.0957 8.50607 13.8378Z"
        fill="#1B7B9E" />
    <path fill-rule="evenodd" clip-rule="evenodd"
        d="M24.2473 13.5775C24.3333 13.5775 24.4195 13.5775 24.5054 13.5775C24.6775 13.5775 24.7635 13.6643 24.7635 13.8379C24.4649 16.0481 24.4218 18.3044 24.6344 20.6066C27.129 22.5156 29.6234 24.4249 32.118 26.334C32.247 24.0795 32.2898 21.8231 32.247 19.5652C32.5456 21.8625 32.5887 24.2055 32.376 26.5943C29.8154 28.5153 27.2777 30.4679 24.7635 32.4519C24.173 32.5607 23.6569 32.3871 23.2151 31.9312C21.1504 30.1109 18.9999 28.4188 16.7638 26.8547C16.8564 26.3676 17.1144 25.9771 17.538 25.6832C19.8011 24.0857 21.9945 22.3935 24.1183 20.6066C24.2473 18.352 24.2902 16.0958 24.2473 13.8379C24.2473 13.7511 24.2473 13.6643 24.2473 13.5775Z"
        fill="#9FC4DC" />
</svg>