
<svg width="32" height="32" viewBox="0 0 80 80" xmlns="http://www.w3.org/2000/svg"><path class="st1" d="M72.577 0H7.73C3.5 0 0 3.27 0 7.462v24C0 53.23 18 71.307 40.154 71.307 62.154 71.308 80 53.23 80 31.46v-24C80 3.232 76.654 0 72.577 0zm-9.73 29.77L43.768 47.73c-1 1.116-2.5 1.578-3.654 1.578-1.423 0-2.807-.423-3.923-1.577L17.423 29.769c-2-2.077-2.23-5.615 0-7.846 2.077-2 5.615-2.23 7.73 0l15 14.423 15.308-14.423c2-2.23 5.5-2 7.424 0 1.961 2.192 1.961 5.73-.039 7.846z" fill="#ef4154"/><path class="st2" d="M62.846 29.77L43.77 47.73c-1 1.116-2.5 1.578-3.654 1.578-1.423 0-2.807-.423-3.923-1.577L17.423 29.769c-2-2.077-2.23-5.615 0-7.846 2.077-2 5.615-2.23 7.73 0l15 14.423 15.308-14.423c2-2.23 5.5-2 7.424 0 1.961 2.192 1.961 5.73-.039 7.846z" fill="#fff"/></svg>