<svg width="32" height="32" viewBox="0 0 32 32" fill="none" xmlns="http://www.w3.org/2000/svg">
    <g clip-path="url(#clip0_784_137)">
        <mask id="mask0_784_137" style="mask-type:alpha" maskUnits="userSpaceOnUse" x="14" y="0"
            width="4" height="7">
            <path d="M14.4238 0.000244141H17.2609V6.65594H14.4238V0.000244141Z" fill="white" />
        </mask>
        <g mask="url(#mask0_784_137)">
            <path fill-rule="evenodd" clip-rule="evenodd"
                d="M15.5373 2.27V6.40869C15.5373 6.54514 15.6739 6.65581 15.8424 6.65581C16.0108 6.65581 16.1475 6.54514 16.1475 6.40869V2.27C16.7841 2.15665 17.2609 1.69867 17.2609 1.1491C17.2609 0.51465 16.6259 0 15.8424 0C15.0588 0 14.4238 0.51465 14.4238 1.1491C14.4238 1.69867 14.901 2.15665 15.5373 2.27Z"
                fill="#163D5D" />
        </g>
        <mask id="mask1_784_137" style="mask-type:alpha" maskUnits="userSpaceOnUse" x="6" y="25"
            width="20" height="8">
            <path d="M25.3745 32.0001H6.31421V25.6976H25.3745V32.0001Z" fill="white" />
        </mask>
        <g mask="url(#mask1_784_137)">
            <path fill-rule="evenodd" clip-rule="evenodd"
                d="M24.2849 25.6976H7.40416C6.80231 25.6976 6.31421 26.0928 6.31421 26.5803V31.1173C6.31421 31.6048 6.80231 32.0002 7.40416 32.0002H24.2849C24.8868 32.0002 25.3745 31.6048 25.3745 31.1173V26.5803C25.3745 26.0928 24.8868 25.6976 24.2849 25.6976Z"
                fill="#163D5D" />
        </g>
        <mask id="mask2_784_137" style="mask-type:alpha" maskUnits="userSpaceOnUse" x="0" y="16"
            width="32" height="13">
            <path d="M0 28.6399V16.0449H31.6847V28.6399H0Z" fill="white" />
        </mask>
        <g mask="url(#mask2_784_137)">
            <path fill-rule="evenodd" clip-rule="evenodd"
                d="M25.8172 21.0856C25.0539 21.0856 24.4351 20.5844 24.4351 19.966C24.4351 19.3476 25.0539 18.8464 25.8172 18.8464C26.5805 18.8464 27.1993 19.3476 27.1993 19.966C27.1993 20.5844 26.5805 21.0856 25.8172 21.0856ZM30.5951 16.0449H1.08962C0.488106 16.0449 0 16.44 0 16.9276V27.7572C0 28.2448 0.488106 28.6399 1.08962 28.6399H3.94397V26.2272C3.94397 24.8012 5.37115 23.6451 7.13158 23.6451H24.5535C26.3139 23.6451 27.7411 24.8012 27.7411 26.2272V28.6399H30.5951C31.197 28.6399 31.6848 28.2448 31.6848 27.7572V16.9276C31.6848 16.44 31.197 16.0449 30.5951 16.0449Z"
                fill="#163D5D" />
        </g>
        <path fill-rule="evenodd" clip-rule="evenodd"
            d="M11.5484 9.40155C12.5024 9.40155 13.276 10.0282 13.276 10.801C13.276 11.5738 12.5024 12.2002 11.5484 12.2002C10.5944 12.2002 9.82081 11.5738 9.82081 10.801C9.82081 10.0282 10.5944 9.40155 11.5484 9.40155ZM20.1403 9.40155C21.0947 9.40155 21.8679 10.0282 21.8679 10.801C21.8679 11.5738 21.0947 12.2002 20.1403 12.2002C19.1863 12.2002 18.4131 11.5738 18.4131 10.801C18.4131 10.0282 19.1863 9.40155 20.1403 9.40155ZM7.40383 13.9495H24.2849C24.8868 13.9495 25.3745 13.5544 25.3745 13.0669V8.53475C25.3745 8.04723 24.8868 7.6521 24.2849 7.6521H7.40383C6.80231 7.6521 6.31421 8.04723 6.31421 8.53475V13.0669C6.31421 13.5544 6.80231 13.9495 7.40383 13.9495Z"
            fill="#163D5D" />
    </g>
    <defs>
        <clipPath id="clip0_784_137">
            <rect width="32" height="32" fill="white" />
        </clipPath>
    </defs>
</svg>