<svg width="32" height="32" viewBox="0 0 32 32" fill="none" xmlns="http://www.w3.org/2000/svg">
<path d="M16 0C7.17241 0 0 7.15594 0 15.9894C0 24.8228 7.15119 32 16 32C18.4191 32 20.7109 31.4479 22.748 30.5136C22.5995 30.365 22.4509 30.2163 22.3236 30.0252L19.6711 26.5853C19.6499 26.5853 16.7427 22.7419 16.7639 22.7419L15.2573 20.7459C15.1088 20.5335 14.8753 20.1725 14.8753 20.1725C14.5358 19.6629 14.3024 19.1958 14.3024 18.58C14.3024 17.3059 15.321 16.2654 16.6154 16.2654C17.1459 16.2654 17.6127 16.4565 18.0159 16.7538C18.0159 16.7538 18.5252 17.2847 18.6313 17.4545L20.7321 20.215C21.0504 19.7054 21.305 19.1533 21.496 18.5375C21.7507 17.7518 21.878 16.9025 21.878 15.9681C21.878 15.0126 21.7294 14.0783 21.4536 13.2289C21.1777 12.4008 20.7745 11.6788 20.3077 11.0843C19.8196 10.4897 19.2042 10.0438 18.4828 9.70405C17.7613 9.3643 16.9549 9.19443 16.0424 9.19443C15.1088 9.19443 14.3024 9.3643 13.5809 9.70405C12.8594 10.0438 12.244 10.5109 11.7347 11.0843C11.2255 11.6788 10.8223 12.3796 10.5676 13.2289C10.2918 14.0783 10.1432 14.9914 10.1432 15.9681C10.1432 16.9449 10.2918 17.858 10.5676 18.6861C10.8435 19.5143 11.2467 20.2362 11.7347 20.852C12.2228 21.4678 12.8382 21.9137 13.5597 22.2535C13.8568 22.3809 14.1751 22.5083 14.4934 22.572L17.8037 26.9887C17.2095 27.0737 16.6154 27.1161 16 27.1161C14.366 27.1161 12.8594 26.8188 11.5013 26.2668C10.1432 25.6934 8.95491 24.9078 8.02122 23.9098C7.06631 22.933 6.30239 21.7226 5.77188 20.3636C5.24138 19.0259 4.96552 17.5395 4.96552 15.9469C4.96552 14.3543 5.24138 12.9104 5.77188 11.5302C6.30239 10.1924 7.06631 8.98208 8.04244 8.00531C8.99735 7.02853 10.1857 6.24287 11.5225 5.66954C12.8594 5.09622 14.3873 4.82017 16.0212 4.82017C17.6552 4.82017 19.1618 5.11745 20.5199 5.66954C21.8568 6.24287 23.0451 7.0073 24 8.00531C24.9549 8.98208 25.7188 10.1712 26.2706 11.5302C26.8011 12.868 27.0769 14.3543 27.0769 15.9469C27.0769 17.6669 26.7586 19.2595 26.1432 20.6821C25.5491 21.9987 24.7639 23.1878 23.7666 24.1221L26.2069 27.3709C26.3342 27.562 26.4615 27.7532 26.5252 27.9867C29.878 25.0564 32 20.7459 32 15.9257C31.9576 7.15594 24.8064 0 16 0Z" fill="url(#paint0_radial_4071_256)"/>
<defs>
<radialGradient id="paint0_radial_4071_256" cx="0" cy="0" r="1" gradientUnits="userSpaceOnUse" gradientTransform="translate(21.7672 1.98141) scale(30.8251 30.8456)">
<stop stop-color="#FFC425"/>
<stop offset="0.2351" stop-color="#F7932F"/>
<stop offset="0.4148" stop-color="#F37331"/>
<stop offset="0.5051" stop-color="#F26531"/>
<stop offset="1" stop-color="#F26531"/>
</radialGradient>
</defs>
</svg>
