<svg width="32" height="32" viewBox="0 0 32 32" fill="none" xmlns="http://www.w3.org/2000/svg">
    <path
        d="M32 15.5558V15.4376C32 11.2021 30.4878 7.61941 27.4628 4.69008C24.4197 1.64426 20.6451 0.0801815 16.1377 0H15.9226C11.561 0.0595944 7.81625 1.59388 4.68817 4.60177L4.66396 4.62669C4.51808 4.76755 4.37784 4.91383 4.2376 5.06064C4.18241 5.11807 4.12665 5.1755 4.07258 5.23347C3.96501 5.34941 3.85913 5.46751 3.75493 5.58724C1.25315 8.42014 0 11.7016 0 15.4382C0 16.1197 0.0518154 16.7877 0.141366 17.4471C0.440995 19.8547 1.29482 22.0824 2.72031 24.1222C4.19705 26.2329 6.12267 27.8896 8.49436 29.0956C10.8356 30.3005 13.3352 30.9116 15.9913 30.9251C16.4723 30.9251 17.0642 30.8677 17.7558 30.7572C18.2067 30.7049 18.6552 30.6349 19.1002 30.5475C19.6518 30.4428 20.1976 30.311 20.7352 30.1526C22.8709 31.3835 25.1221 32 27.4937 32C27.8655 32 28.2383 31.9865 28.6123 31.9577C29.3281 31.8851 29.9251 31.5774 30.4016 31.0319C30.8049 30.5578 31.0071 30.0421 31.0071 29.483C31.0071 29.367 30.998 29.2527 30.9845 29.1378C30.9096 28.4346 30.6263 27.8891 30.133 27.5012C29.7303 27.1864 29.2307 27.0282 28.6337 27.0282C28.5289 27.0282 28.4253 27.0358 28.3205 27.0499C27.9468 27.1362 27.5638 27.1797 27.1795 27.1794C26.9491 27.1794 26.7165 27.1588 26.4817 27.1284C26.7858 26.8754 27.0826 26.61 27.3727 26.3315C30.4365 23.3827 31.9808 19.7907 32 15.5558ZM24.4028 26.8012C24.4028 26.8012 22.1551 25.417 20.5302 24.5345C19.124 25.1889 17.5832 25.5318 16.0211 25.5378C10.2296 25.5654 5.51215 21.0726 5.48343 15.5016C5.45471 9.93113 10.1254 5.39329 15.9164 5.36566C21.7056 5.33749 26.4248 9.8309 26.4535 15.4013C26.4623 16.7889 26.1726 18.1631 25.6024 19.4377C25.0323 20.7122 24.1941 21.8595 23.1407 22.8073L24.4028 26.8012Z"
        fill="#179CDC" />
</svg>