<svg width="32" height="32" viewBox="0 0 21 19" fill="none" xmlns="http://www.w3.org/2000/svg">
    <path
        d="M16.6306 13.9423C17.5407 12.6043 18.0923 10.9986 18.0923 9.31273C18.0923 4.60287 13.9553 0.669067 9.04615 0.669067C4.13696 0.669067 0 4.60287 0 9.31273C0 14.0226 4.13696 17.9832 9.04615 17.9832C10.5355 17.9832 11.9696 17.6085 13.2107 16.9663C16.272 20.0705 20.2987 18.3578 20.2987 18.3578C17.7889 17.9029 16.934 15.4677 16.6306 13.9423ZM3.19925 9.28597C3.19925 6.10146 5.87449 3.42541 9.07374 3.42541C12.2454 3.42541 14.8931 6.10146 14.8931 9.28597C14.8931 12.4972 12.2454 15.1733 9.07374 15.1733C5.87449 15.2001 3.19925 12.4972 3.19925 9.28597Z"
        fill="#6170FF" />
</svg>