<svg width="32" height="32" viewBox="0 0 32 32" fill="none" xmlns="http://www.w3.org/2000/svg">
<path d="M30.3511 12.7084C30.7485 13.0976 31.065 13.5615 31.2826 14.0735C31.5002 14.5854 31.6145 15.1353 31.619 15.6915L31.6268 16.633C31.6355 17.7562 31.1983 18.837 30.4111 19.6383C29.6238 20.4395 28.5509 20.8957 27.4277 20.9068L18.014 20.9886C17.8892 20.9897 17.769 20.9412 17.6799 20.8537C17.5908 20.7662 17.5401 20.6469 17.539 20.5221C17.5379 20.3972 17.5864 20.277 17.6739 20.1879C17.7613 20.0989 17.8806 20.0482 18.0055 20.0471L27.4192 19.9653C28.293 19.9566 29.1278 19.6017 29.7402 18.9783C30.3527 18.3549 30.6928 17.514 30.686 16.6401L30.6775 15.6993C30.6685 14.8259 30.3136 13.9916 29.6905 13.3794C29.0675 12.7672 28.2272 12.4269 27.3537 12.4332L17.9401 12.5157C17.0671 12.5252 16.2336 12.8804 15.622 13.5034C15.0105 14.1264 14.6708 14.9664 14.6775 15.8394L14.6817 16.7823C14.6782 16.9041 14.6277 17.0197 14.5408 17.1049C14.4538 17.1902 14.3372 17.2384 14.2155 17.2396C14.0937 17.2407 13.9762 17.1945 13.8877 17.1109C13.7993 17.0272 13.7466 16.9125 13.7409 16.7909L13.7324 15.8494C13.7243 14.727 14.1612 13.6471 14.9476 12.8462C15.7339 12.0453 16.8056 11.5887 17.928 11.5763L27.3459 11.4924C27.9023 11.487 28.4542 11.5917 28.9699 11.8004C29.4856 12.0091 29.955 12.3177 30.3511 12.7084Z" fill="#0077B6"/>
<path d="M14.3703 11.1573C14.4367 11.2226 14.4822 11.3061 14.5011 11.3972C14.5201 11.4883 14.5116 11.583 14.4767 11.6693C14.4419 11.7556 14.3822 11.8296 14.3053 11.882C14.2284 11.9345 14.1377 11.9629 14.0446 11.9637L4.63092 12.0455C3.7573 12.0542 2.92277 12.4089 2.31035 13.032C1.69793 13.6551 1.35763 14.4956 1.36407 15.3693L1.37261 16.3108C1.38162 17.1842 1.73652 18.0184 2.35954 18.6307C2.98256 19.2429 3.82288 19.5832 4.69634 19.5769L14.1086 19.4951C14.9829 19.4872 15.8183 19.1329 16.4315 18.5097C17.0448 17.8866 17.3858 17.0457 17.3797 16.1714L17.3719 15.2299C17.3754 15.1082 17.4259 14.9925 17.5129 14.9073C17.5998 14.822 17.7164 14.7738 17.8382 14.7727C17.96 14.7716 18.0774 14.8177 18.1659 14.9014C18.2544 14.985 18.307 15.0997 18.3127 15.2213L18.3212 16.1629C18.3294 17.2858 17.892 18.3663 17.1048 19.1673C16.3177 19.9682 15.2451 20.4245 14.1221 20.4359L4.70772 20.5184C3.5845 20.5269 2.50377 20.0895 1.70267 19.3022C0.901571 18.5148 0.445543 17.4418 0.434652 16.3186L0.426831 15.3778C0.417919 14.2551 0.854597 13.1747 1.6411 12.3736C2.42761 11.5724 3.49974 11.1158 4.62239 11.104L14.0375 11.0222C14.0991 11.0217 14.1603 11.0333 14.2174 11.0565C14.2745 11.0797 14.3265 11.114 14.3703 11.1573Z" fill="#0077B6"/>
</svg>
