<svg width="32" height="32" viewBox="0 0 32 32" fill="none" xmlns="http://www.w3.org/2000/svg">
    <g clip-path="url(#clip0_607_62)">
        <path opacity="0.988" fill-rule="evenodd" clip-rule="evenodd"
            d="M14.1 -0.0999756C15.3667 -0.0999756 16.6333 -0.0999756 17.9 -0.0999756C23.9194 0.864056 28.2194 4.13072 30.8 9.70002C31.2336 10.9062 31.6002 12.1062 31.9 13.3C31.9 15.0334 31.9 16.7667 31.9 18.5C30.0982 25.9686 25.4316 30.4352 17.9 31.9C16.6333 31.9 15.3667 31.9 14.1 31.9C5.50385 30.104 0.770528 24.8372 -0.100006 16.1C-0.100006 15.9667 -0.100006 15.8334 -0.100006 15.7C0.343884 8.55326 3.87721 3.5866 10.5 0.800024C11.7106 0.430686 12.9106 0.130687 14.1 -0.0999756Z"
            fill="#FCEF5C" />
        <path fill-rule="evenodd" clip-rule="evenodd"
            d="M14.9 8.50002C17.6311 8.19798 18.8644 9.39798 18.6 12.1C17.8971 13.5807 16.7304 14.1473 15.1 13.8C13.5391 13.0439 12.9724 11.8105 13.4 10.1C13.8056 9.46158 14.3056 8.92824 14.9 8.50002Z"
            fill="#040301" />
        <path fill-rule="evenodd" clip-rule="evenodd"
            d="M14.9 17.9C17.6458 17.6128 18.8792 18.8128 18.6 21.5C17.878 23.0992 16.6447 23.6658 14.9 23.2C13.466 22.3682 12.966 21.1348 13.4 19.5C13.8056 18.8615 14.3056 18.3282 14.9 17.9Z"
            fill="#030301" />
    </g>
    <defs>
        <clipPath id="clip0_607_62">
            <rect width="32" height="32" fill="white" />
        </clipPath>
    </defs>
</svg>