
<svg width="32px" height="32px" viewBox="0 0 60 60" version="1.1" xmlns="http://www.w3.org/2000/svg" xmlns:xlink="http://www.w3.org/1999/xlink">
    <title>renderbetter-logo_logo solo</title>
    <g id="Page-1" stroke="none" stroke-width="1" fill="none" fill-rule="evenodd">
        <g id="renderbetter-logo_logo-solo" transform="translate(0.560000, 0.400000)" fill-rule="nonzero">
            <g id="Group">
                <path d="M33.5,58.89 L32.13,58.89 L32.13,35.53 L41.18,21.51 L45.5,21.51 C53.35,22.27 56.74,26.16 57.45,33.46 C57.45,33.46 58.25,40.76 53.13,47.96 C47.65,55.66 39.24,58.89 33.5,58.89 Z" id="Path" fill="#070030"></path>
                <path d="M23.91,34.99 L35.6,21.51 C35.6,21.51 43.93,21.5 45.51,21.5 C50.89,21.5 53.82,24.72 54.02,24.88 C53.95,24.96 42.1,38.63 42.1,38.63 L23.91,34.99 Z" id="Path" fill="#0579FE"></path>
                <rect id="Rectangle" fill="#FFFFFF" x="1.2" y="14.68" width="21.51" height="21.51"></rect>
                <rect id="Rectangle" fill="#FFFFFF" x="1.2" y="36.12" width="21.51" height="21.51"></rect>
                <g transform="translate(0.000000, 13.480000)">
                    <path d="M22.71,44.21 L22.71,22.7 L33.54,22.7 C39.43,22.7 44.22,27.49 44.22,33.38 L44.22,33.54 C44.22,39.43 39.43,44.22 33.54,44.22 L22.71,44.22 L22.71,44.21 Z" id="Path" fill="#FFFFFF"></path>
                    <path d="M33.54,21.51 L23.9,21.51 L23.9,0 L0,0 L0,21.51 L0,23.9 L0,45.41 L21.51,45.41 L23.9,45.41 L33.54,45.41 C40.1,45.41 45.41,40.1 45.41,33.54 L45.41,33.38 C45.41,26.82 40.1,21.51 33.54,21.51 Z M2.4,2.39 L21.52,2.39 L21.52,21.51 L2.4,21.51 L2.4,2.39 Z M21.52,43.02 L2.4,43.02 L2.4,23.9 L21.52,23.9 L21.52,43.02 Z M43.02,33.54 C43.02,38.77 38.77,43.02 33.54,43.02 L23.9,43.02 L23.9,23.9 L33.54,23.9 C38.77,23.9 43.02,28.15 43.02,33.38 L43.02,33.54 Z" id="Shape" fill="#070030"></path>
                </g>
                <polygon id="Path" fill="#0579FE" points="0.01 13.48 11.7 0 35.59 0 23.91 13.48"></polygon>
                <polygon id="Path" fill="#070030" points="23.91 34.99 23.91 13.48 35.59 0 35.59 21.51"></polygon>
            </g>
        </g>
    </g>
</svg>