<svg width="32" height="32" viewBox="0 0 32 32" fill="none" xmlns="http://www.w3.org/2000/svg">
<path d="M3.69232 3.07693C3.69232 2.05736 4.51891 1.23077 5.53848 1.23077H14.1539C15.1734 1.23077 16 2.05736 16 3.07693V11.0769H5.53848C4.51891 11.0769 3.69232 10.2503 3.69232 9.23077V3.07693Z" fill="#F26207"/>
<path d="M16 11.0769H26.4615C27.4811 11.0769 28.3077 11.9035 28.3077 12.9231V19.0769C28.3077 20.0965 27.4811 20.9231 26.4615 20.9231H16V11.0769Z" fill="#F26207"/>
<path d="M3.69232 22.7692C3.69232 21.7497 4.51891 20.9231 5.53848 20.9231H16V28.9231C16 29.9427 15.1734 30.7692 14.1539 30.7692H5.53848C4.51891 30.7692 3.69232 29.9427 3.69232 28.9231V22.7692Z" fill="#F26207"/>
</svg>
