<svg width="32" height="32" viewBox="0 0 33 33" fill="none" xmlns="http://www.w3.org/2000/svg">
    <path
        d="M11.5861 27.0969C12.2176 28.288 12.0913 30.0745 11.3336 31.0671C11.0179 31.4641 10.639 31.6626 10.197 31.6626C10.1339 31.6626 10.0707 31.6626 10.0076 31.6626C9.50242 31.5634 9.12356 31.2656 8.80785 30.6701L1.42013 16.5759L1.29384 16.3774V16.2782C0.725557 15.0871 0.851843 13.3998 1.60956 12.4072C2.24099 11.6132 3.12499 11.6132 3.75642 12.2087L3.81956 12.1095L4.13527 12.9035L11.5861 27.0969ZM25.2881 0.695197C24.5304 -0.297348 23.3939 -0.0988386 22.8256 1.09222L16.5113 13.102C16.4481 13.2013 16.4481 13.2013 16.4481 13.3005C15.8167 14.4916 15.943 16.2782 16.7007 17.2707C17.0164 17.6677 17.3953 17.8662 17.8373 17.8662C17.9004 17.8662 17.9636 17.8662 18.0267 17.8662C18.5319 17.767 18.9107 17.4692 19.2264 16.8737L25.6039 4.66538C26.1721 3.47433 26.0459 1.68774 25.2881 0.695197Z"
        fill="#448AFF" />
    <path
        d="M32.9284 3.27583C32.8653 2.48179 32.6127 1.78701 32.2339 1.38999C31.855 0.893721 31.3499 0.695212 30.9079 0.794467C30.4027 0.893722 29.9607 1.19148 29.645 1.88627L17.711 24.8141L11.523 12.9035C10.8916 11.7125 9.75499 11.514 8.99727 12.5065C8.61842 13.0028 8.42899 13.6976 8.36585 14.3923C8.3027 15.1864 8.49213 15.8812 8.7447 16.4767L16.385 31.0671C16.7007 31.6626 17.1427 31.9604 17.5847 32.0597C17.6479 32.0597 17.711 32.0597 17.7741 32.0597C18.153 32.0597 18.595 31.8611 18.9107 31.4641C19.037 31.3649 19.1001 31.1664 19.1633 31.0671L32.4864 5.55869L32.5496 5.45943C32.8022 4.76465 32.9916 4.06987 32.9284 3.27583Z"
        fill="#448AFF" />
</svg>