<svg width="32" height="32" viewBox="0 0 32 32" fill="none" xmlns="http://www.w3.org/2000/svg">
    <path
        d="M24.8523 20.2481L21.1956 20.2902C21.0035 20.2926 20.8506 20.3955 20.8475 20.5244C20.7955 22.6697 18.587 24.3147 15.5956 24.4366C15.4024 24.4442 15.2538 24.5485 15.2573 24.6743L15.3211 27.094C15.3225 27.1582 15.3645 27.2198 15.4351 27.2637C15.5044 27.3068 15.5905 27.3289 15.6838 27.3278C20.9018 27.1619 25.1739 24.0928 25.2177 20.4856C25.2184 20.4223 25.181 20.3623 25.1119 20.3169C25.0431 20.2723 24.9484 20.247 24.8523 20.2481Z"
        fill="#5C80E0" />
    <path
        d="M21.7459 28.0313C19.953 28.7131 17.9672 29.0612 15.9578 29.0612C14.9189 29.0612 13.8733 28.9683 12.8439 28.7804C9.82346 28.2289 7.30597 26.926 5.75517 25.112C3.71295 22.7229 3.71271 19.7551 5.75466 17.3664L15.6538 5.87357C15.7105 5.80782 15.8119 5.7687 15.9253 5.7687C16.0369 5.7687 16.1414 5.80901 16.1969 5.87392L26.0644 17.3663C29.2741 21.0992 27.3368 25.8837 21.7459 28.0313ZM16.2948 0.118387C16.2314 0.0441384 16.1171 0 15.9895 0C15.8613 0 15.7469 0.0444805 15.6831 0.118558L2.09449 15.9858C-0.017922 18.4765 -0.554145 21.369 0.58453 24.1298C1.72346 26.8907 4.4015 29.1897 8.12489 30.6033C10.5181 31.5117 13.2378 31.9948 15.9895 32C20.27 31.9971 24.2929 30.8789 27.3172 28.8516C30.3412 26.8242 32.0041 24.1303 32 21.2665C31.9972 19.4045 31.2651 17.5664 29.8824 15.9504L16.2948 0.118387Z"
        fill="#5C80E0" />
</svg>