<svg width="32" height="32" viewBox="0 0 32 32" fill="none" xmlns="http://www.w3.org/2000/svg">
<g clip-path="url(#clip0_4919_17)">
<path d="M1.28 0.185599C0.838396 0.319999 0.505596 0.601599 0.281596 1.024C0.166396 1.2416 0.159996 1.728 0.159996 16V30.752L0.300796 31.008C0.460796 31.3088 0.710396 31.552 1.024 31.7184C1.2416 31.8336 1.728 31.84 16 31.84H30.752L31.008 31.6992C31.3088 31.5392 31.552 31.2896 31.7184 30.976C31.8336 30.7584 31.84 30.272 31.84 16C31.84 1.728 31.8336 1.2416 31.7184 1.024C31.552 0.710399 31.3088 0.460799 31.008 0.300799L30.752 0.159999L16.096 0.147199C8.0384 0.140799 1.3696 0.159999 1.28 0.185599ZM18.9632 8.2624C19.1808 8.3584 19.328 8.6208 19.328 8.9024C19.328 9.0432 19.264 9.1648 19.1104 9.3184C18.8992 9.5296 18.8736 9.536 18.4128 9.536C17.9904 9.536 17.9072 9.5552 17.7344 9.7024C17.5232 9.8816 17.408 10.1888 17.408 10.5984V10.8608L18.1312 10.8928C18.912 10.9248 19.0848 10.9824 19.232 11.264C19.3472 11.488 19.3536 11.648 19.2512 11.8656C19.1168 12.1728 18.9056 12.2496 18.1632 12.2752L17.472 12.3008V14.6816C17.472 16.1024 17.4464 17.152 17.408 17.2928C17.3312 17.5616 17.0496 17.824 16.768 17.888C16.512 17.9456 16.1408 17.76 15.9552 17.4784C15.808 17.2608 15.808 17.248 15.808 14.7776V12.3008L15.5456 12.256C15.3984 12.2304 15.1936 12.1344 15.0912 12.0384C14.6688 11.6608 14.9376 10.9824 15.5328 10.8992L15.7888 10.8672L15.8272 10.2784C15.904 9.1136 16.3008 8.512 17.1904 8.2304C17.568 8.1088 18.688 8.128 18.9632 8.2624ZM20.9024 10.9504C21.0496 11.072 21.152 11.3024 22.112 13.6768C22.5984 14.8864 23.0208 15.872 23.04 15.872C23.0656 15.872 23.4624 14.848 23.936 13.5936C24.4032 12.3456 24.8512 11.2256 24.9216 11.1168C25.3248 10.5216 26.304 10.816 26.304 11.5328C26.304 11.7312 25.9648 12.608 24.9856 14.9696C24.2624 16.7168 23.5648 18.336 23.4432 18.5728C22.9568 19.5008 22.3936 19.904 21.5104 19.9552C20.992 19.9872 20.3264 19.8592 20.0448 19.6736C19.8208 19.5264 19.7056 19.2 19.776 18.9312C19.8784 18.5664 20.0512 18.4576 20.4736 18.4896C20.672 18.5024 21.024 18.5152 21.2544 18.5216C21.7408 18.528 21.856 18.464 22.1184 18.0096L22.2784 17.7408L21.0176 14.9376C20.3264 13.3888 19.7184 12.0128 19.6672 11.872C19.5008 11.4112 19.68 11.008 20.1216 10.8544C20.384 10.7648 20.7296 10.8032 20.9024 10.9504ZM11.68 12.1984C12.8128 12.416 14.0736 12.9472 14.3744 13.3504C14.6176 13.664 14.656 14.1504 14.4704 14.5088C14.1696 15.0976 13.4912 15.2384 12.7488 14.8608C12.5312 14.7456 12.0832 14.56 11.7568 14.4512C11.2192 14.2592 11.0976 14.2464 10.368 14.24C9.632 14.24 9.5424 14.2528 9.28 14.4C8.5888 14.7904 8.4928 15.584 9.088 16.0512C9.3888 16.2816 9.8176 16.4608 11.1232 16.9024C11.84 17.1456 12.6912 17.4784 13.0112 17.6448C14.5024 18.4128 15.0912 19.6096 14.7584 21.1968C14.6176 21.856 14.368 22.3168 13.8944 22.7904C12.448 24.2432 9.5808 24.3904 7.104 23.1296C5.9264 22.5344 5.6704 22.2592 5.7088 21.6256C5.7408 21.1904 5.9328 20.896 6.2976 20.7296C6.6752 20.5568 6.9696 20.576 7.3664 20.8C8.6144 21.4912 9.1968 21.7152 10.0928 21.8304C11.0144 21.9456 11.8272 21.7536 12.1536 21.3376C12.3392 21.1008 12.4416 20.7232 12.3904 20.4544C12.288 19.8976 11.776 19.6032 9.9456 19.0336C8.6016 18.6112 8.1856 18.4448 7.648 18.1056C7.1168 17.7728 6.752 17.3696 6.5088 16.8448C6.336 16.48 6.304 16.3264 6.2848 15.8016C6.24 14.7392 6.5024 13.984 7.1488 13.3056C8.1728 12.2304 9.7664 11.84 11.68 12.1984Z" fill="#D62028"/>
</g>
<defs>
<clipPath id="clip0_4919_17">
<rect width="32" height="32" fill="white"/>
</clipPath>
</defs>
</svg>
