<svg width="32" height="32" viewBox="0 0 32 32" fill="none" xmlns="http://www.w3.org/2000/svg">
<path fill-rule="evenodd" clip-rule="evenodd" d="M19.6737 30.9596C26.1578 26.6922 31.7393 19.0789 31.4655 15.001C31.2439 10.6971 20.1328 0.0235416 17.1709 0.542962C14.209 1.0624 12.1376 3.2911 12.5967 5.12832C12.7591 5.7779 13.8993 6.54227 15.3516 7.51594C18.007 9.29608 21.7059 11.7758 22.3802 15.5326C22.9351 18.6245 17.6157 23.3462 14.7944 25.8503C14.611 26.0131 14.4383 26.1664 14.2784 26.3094C11.6572 28.6521 17.3131 32.963 19.6737 30.9596ZM10.2732 8.77125C10.4026 7.64515 9.11066 6.45557 7.44231 6.34481C5.77313 6.23411 0.36119 13.3421 0.528515 15.9221C0.651514 18.3711 4.24257 22.5347 8.10644 24.644C9.54355 25.6787 12.3732 22.7289 10.7703 21.5113C10.6776 21.4409 10.5779 21.3657 10.4723 21.286C8.75261 19.9881 5.4775 17.5167 5.57628 15.6296C5.69569 13.3453 7.56899 11.6191 8.91393 10.3798C9.64976 9.70178 10.2274 9.16948 10.2732 8.77125Z" fill="#E74B90"/>
<path d="M31.4655 15.0008L30.9414 15.0277L30.9419 15.0359L31.4655 15.0008ZM19.6737 30.9594L19.3852 30.5212L19.3584 30.5388L19.3341 30.5596L19.6737 30.9594ZM17.171 0.542759L17.0802 0.0261351L17.171 0.542759ZM12.5968 5.12812L12.0876 5.25523L12.5968 5.12812ZM15.3517 7.51573L15.0594 7.95133L15.3517 7.51573ZM22.3802 15.5324L22.8968 15.4398L22.3802 15.5324ZM14.7944 25.8501L15.143 26.2423L14.7944 25.8501ZM14.2784 26.3091L14.6282 26.7003L14.2784 26.3091ZM7.44235 6.34461L7.47713 5.82124H7.47709L7.44235 6.34461ZM10.2732 8.77105L9.75184 8.71122L10.2732 8.77105ZM0.528552 15.9219L1.05277 15.8956L1.05227 15.888L0.528552 15.9219ZM8.10647 24.6438L8.41323 24.2182L8.38672 24.1992L8.35805 24.1834L8.10647 24.6438ZM10.7703 21.5111L10.4528 21.9287L10.7703 21.5111ZM10.4724 21.2858L10.7886 20.8672L10.4724 21.2858ZM5.57632 15.6294L6.10042 15.6567L5.57632 15.6294ZM8.91396 10.3796L9.26971 10.7652L8.91396 10.3796ZM30.9419 15.0359C31.0025 15.9374 30.739 17.089 30.1687 18.4063C29.6022 19.7153 28.7498 21.1481 27.6814 22.5979C25.5432 25.499 22.571 28.4246 19.3852 30.5212L19.9623 31.3975C23.2607 29.2268 26.3213 26.212 28.5265 23.2201C29.6296 21.7232 30.5265 20.2216 31.132 18.8229C31.7341 17.4323 32.0656 16.1032 31.9891 14.9656L30.9419 15.0359ZM17.2616 1.0594C17.4769 1.02165 17.8566 1.08045 18.4206 1.32081C18.9655 1.55317 19.6123 1.92429 20.3275 2.411C21.7557 3.38315 23.4047 4.78074 24.9766 6.33581C26.5483 7.89049 28.0283 9.58798 29.1251 11.1537C29.6734 11.9367 30.12 12.6782 30.4342 13.3458C30.7516 14.0197 30.9186 14.5863 30.9414 15.0277L31.9896 14.9739C31.9569 14.3391 31.7285 13.6308 31.3841 12.8992C31.0367 12.1613 30.5557 11.3669 29.9851 10.5521C28.8435 8.92237 27.3191 7.17698 25.7151 5.59021C24.1113 4.00384 22.4131 2.56145 20.9182 1.54391C20.1716 1.03578 19.4628 0.624631 18.8324 0.355882C18.2207 0.0951511 17.6054 -0.0659678 17.0802 0.0261351L17.2616 1.0594ZM13.106 5.00101C12.9366 4.32317 13.2186 3.48483 13.9768 2.70739C14.7254 1.9398 15.8816 1.30142 17.2616 1.0594L17.0802 0.0261351C15.4984 0.303544 14.1378 1.03923 13.2251 1.97515C12.322 2.90122 11.7979 4.09585 12.0876 5.25523L13.106 5.00101ZM15.6441 7.08012C14.9109 6.58864 14.2853 6.16863 13.8207 5.79274C13.5896 5.60572 13.4137 5.4416 13.2904 5.2975C13.164 5.14971 13.1188 5.05254 13.106 5.00101L12.0876 5.25523C12.1559 5.52848 12.3141 5.77047 12.4925 5.9791C12.6741 6.19145 12.9044 6.40106 13.1602 6.60805C13.6695 7.02016 14.3401 7.46915 15.0594 7.95133L15.6441 7.08012ZM22.8968 15.4398C22.5331 13.4132 21.3588 11.761 19.9761 10.408C18.5951 9.05678 16.966 7.96635 15.6441 7.08012L15.0594 7.95133C16.3927 8.84525 17.9408 9.88475 19.2418 11.1576C20.5407 12.4287 21.5532 13.8948 21.8636 15.6251L22.8968 15.4398ZM15.143 26.2423C16.5493 24.994 18.6117 23.1646 20.2517 21.2532C21.0718 20.2975 21.8025 19.3031 22.2939 18.3339C22.7813 17.3728 23.0647 16.375 22.8968 15.4398L21.8636 15.6251C21.9733 16.2358 21.7998 16.9877 21.3576 17.8596C20.9196 18.7237 20.2482 19.6459 19.455 20.5702C17.8689 22.4187 15.8608 24.2022 14.446 25.4579L15.143 26.2423ZM14.6282 26.7003C14.7874 26.5579 14.9595 26.4051 15.143 26.2423L14.446 25.4579C14.2628 25.6206 14.0892 25.7745 13.9284 25.9182L14.6282 26.7003ZM19.3341 30.5596C18.9055 30.9232 18.2913 31.033 17.566 30.8925C16.8422 30.7523 16.0732 30.3713 15.4386 29.8567C14.799 29.3381 14.348 28.727 14.1887 28.1632C14.0405 27.6389 14.1337 27.1422 14.6282 26.7003L13.9284 25.9182C13.1125 26.6476 12.9298 27.5682 13.1786 28.4485C13.4163 29.2894 14.0355 30.0699 14.7772 30.6714C15.524 31.277 16.4478 31.7445 17.3665 31.9224C18.2836 32.0999 19.2617 31.9973 20.0134 31.3591L19.3341 30.5596ZM7.40757 6.86797C8.13012 6.91594 8.75982 7.19772 9.18575 7.57131C9.61944 7.95169 9.79062 8.37369 9.75184 8.71122L10.7946 8.83087C10.8852 8.0423 10.4751 7.30646 9.8781 6.78283C9.27334 6.2524 8.42292 5.88403 7.47713 5.82124L7.40757 6.86797ZM1.05227 15.888C1.02021 15.3936 1.26691 14.5756 1.77367 13.5546C2.26679 12.5609 2.96211 11.4604 3.71898 10.4358C4.47637 9.41052 5.28314 8.47792 5.99281 7.81467C6.34861 7.48213 6.66765 7.22897 6.93395 7.06541C7.22 6.88972 7.36871 6.8654 7.4076 6.86797L7.47709 5.82124C7.09869 5.79613 6.71314 5.96973 6.3844 6.17165C6.03588 6.38569 5.65957 6.68985 5.2759 7.04843C4.5066 7.76743 3.65787 8.75232 2.87456 9.8127C2.0907 10.8738 1.36007 12.0271 0.833352 13.0884C0.320279 14.1222 -0.0467655 15.1601 0.00483606 15.9558L1.05227 15.888ZM8.35805 24.1834C6.48716 23.1621 4.67128 21.6357 3.31136 20.0668C2.63224 19.2834 2.07515 18.4987 1.68304 17.7722C1.28716 17.0388 1.07796 16.3984 1.05271 15.8956L0.00439804 15.9482C0.0406408 16.6698 0.326456 17.4684 0.759234 18.2702C1.19578 19.0791 1.80101 19.9264 2.51801 20.7537C3.95033 22.4061 5.86191 24.0162 7.85489 25.1042L8.35805 24.1834ZM10.4528 21.9287C10.6827 22.1034 10.7516 22.3171 10.713 22.5847C10.67 22.8827 10.4865 23.241 10.1888 23.5706C9.89361 23.8975 9.52784 24.1492 9.18568 24.2654C8.8457 24.3807 8.59148 24.3465 8.41323 24.2182L7.7997 25.0694C8.34 25.4584 8.97842 25.4435 9.52309 25.2588C10.0656 25.0747 10.5765 24.7069 10.968 24.2736C11.357 23.8428 11.6702 23.2999 11.7518 22.7347C11.8378 22.1391 11.6594 21.5275 11.0879 21.0935L10.4528 21.9287ZM10.1561 21.7044C10.2618 21.7842 10.3609 21.8589 10.4528 21.9287L11.0879 21.0935C10.9944 21.0225 10.894 20.9467 10.7886 20.8672L10.1561 21.7044ZM5.05223 15.6019C5.01955 16.2261 5.26542 16.8432 5.61142 17.4026C5.96145 17.9685 6.4466 18.5274 6.97218 19.0503C8.02302 20.0957 9.3005 21.0587 10.1561 21.7044L10.7886 20.8672C9.92451 20.2151 8.70456 19.2935 7.71263 18.3067C7.21681 17.8136 6.79423 17.3197 6.50422 16.8509C6.21018 16.3756 6.0837 15.9761 6.10042 15.6567L5.05223 15.6019ZM8.55822 9.99397C7.89048 10.6093 7.04994 11.3819 6.36503 12.2988C5.67765 13.219 5.11923 14.3199 5.05222 15.6019L6.10042 15.6567C6.15281 14.6546 6.59074 13.7501 7.20611 12.9264C7.82393 12.0993 8.59251 11.3892 9.26971 10.7652L8.55822 9.99397ZM9.75184 8.71122C9.75261 8.7045 9.74948 8.73703 9.69866 8.81916C9.64981 8.8981 9.57328 8.99684 9.4631 9.11861C9.24052 9.36464 8.93228 9.6493 8.55822 9.99397L9.26971 10.7652C9.63149 10.4319 9.98 10.1114 10.2416 9.8222C10.3736 9.67635 10.496 9.52498 10.5914 9.37094C10.6847 9.22005 10.771 9.03672 10.7946 8.83087L9.75184 8.71122Z" fill="#E74B90"/>
</svg>
