<svg width="32" height="32" viewBox="0 0 32 32" fill="none" xmlns="http://www.w3.org/2000/svg">
    <g clip-path="url(#clip0_846_148)">
        <path opacity="0.997" fill-rule="evenodd" clip-rule="evenodd"
            d="M13.9375 -0.0625C15.2709 -0.0625 16.6041 -0.0625 17.9375 -0.0625C24.1861 0.997506 28.5404 4.45584 31 10.3125C31.4142 11.5119 31.7268 12.7203 31.9375 13.9375C31.9375 15.2709 31.9375 16.6041 31.9375 17.9375C30.8775 24.1861 27.4191 28.5404 21.5625 31C20.3631 31.4142 19.1547 31.7268 17.9375 31.9375C16.6041 31.9375 15.2709 31.9375 13.9375 31.9375C7.68899 30.8776 3.33481 27.4194 0.875 21.5625C0.460698 20.3631 0.148198 19.1547 -0.0625 17.9375C-0.0625 16.6041 -0.0625 15.2709 -0.0625 13.9375C0.997347 7.68899 4.45568 3.33481 10.3125 0.875C11.5119 0.460698 12.7203 0.148198 13.9375 -0.0625Z"
            fill="#15181D" />
        <path fill-rule="evenodd" clip-rule="evenodd"
            d="M14.0622 7.93747C15.7717 7.73527 17.126 8.31861 18.1247 9.68747C18.4844 10.2236 18.6094 10.8069 18.4997 11.4375C18.1107 11.8403 17.6732 11.9028 17.1872 11.625C16.5591 9.74791 15.3509 9.20625 13.5622 9.99997C12.8539 10.6648 12.6246 11.4773 12.8747 12.4375C13.139 12.9935 13.5349 13.431 14.0622 13.75C17.1456 13.7916 20.2289 13.8333 23.3122 13.875C23.8009 14.1957 23.9259 14.6332 23.6872 15.1875C23.5622 15.2916 23.4372 15.3958 23.3122 15.5C20.2706 15.5833 17.2289 15.5833 14.1872 15.5C11.9656 14.786 10.9447 13.2651 11.1247 10.9375C11.3608 10.2569 11.6941 9.63187 12.1247 9.06247C12.6997 8.5467 13.3455 8.1717 14.0622 7.93747Z"
            fill="#F6F6F6" />
        <path fill-rule="evenodd" clip-rule="evenodd"
            d="M8.43724 16.3125C11.4375 16.2916 14.4375 16.3125 17.4372 16.375C20.1909 17.1524 21.17 18.9231 20.3747 21.6875C19.825 22.9108 18.8875 23.64 17.5622 23.875C15.4407 24.0748 14.0032 23.1789 13.2497 21.1875C13.1039 20.3334 13.4581 19.9791 14.3122 20.125C14.4911 20.1831 14.6369 20.2874 14.7497 20.4375C15.3571 22.2094 16.503 22.6885 18.1872 21.875C19.147 20.9674 19.2929 19.9465 18.6247 18.8125C18.3196 18.5039 17.9655 18.2748 17.5622 18.125C14.5206 18.0834 11.4789 18.0416 8.43724 18C7.77743 17.4379 7.77743 16.8754 8.43724 16.3125Z"
            fill="#F6F6F7" />
    </g>
    <defs>
        <clipPath id="clip0_846_148">
            <rect width="32" height="32" fill="white" />
        </clipPath>
    </defs>
</svg>