<svg width="32" height="32" viewBox="0 0 32 32" fill="none" xmlns="http://www.w3.org/2000/svg">
    <g clip-path="url(#clip0_782_96)">
        <path fill-rule="evenodd" clip-rule="evenodd"
            d="M-0.071167 -0.071167C10.5955 -0.071167 21.2622 -0.071167 31.9288 -0.071167C31.9288 4.62217 31.9288 9.3155 31.9288 14.0088C28.7752 15.5323 25.4566 16.5279 21.9733 16.9955C21.7557 17.0154 21.6135 17.1103 21.5466 17.2799C20.7406 16.7111 19.9348 16.7111 19.1288 17.2799C17.7466 17.363 16.3717 17.4579 15.0044 17.5644C14.5083 16.8975 13.8446 16.6842 13.0133 16.9244C12.8022 17.0185 12.6126 17.1372 12.4444 17.2799C8.03945 16.9807 3.86761 15.8429 -0.071167 13.8666C-0.071167 9.22068 -0.071167 4.57476 -0.071167 -0.071167Z"
            fill="#D22C17" />
        <path fill-rule="evenodd" clip-rule="evenodd"
            d="M10.4533 6.61339C15.3362 6.70821 20.2193 6.80302 25.1022 6.89783C24.9132 7.51238 24.7236 8.12868 24.5333 8.74672C20.078 8.88892 15.6216 8.93633 11.1644 8.88895C11.2143 9.27831 11.3092 9.65757 11.4488 10.0267C15.6682 10.1215 19.8873 10.2163 24.1066 10.3112C23.8296 10.9523 23.64 11.616 23.5377 12.3023C19.7451 12.3023 15.9526 12.3023 12.16 12.3023C12.1262 12.4859 12.1736 12.6281 12.3022 12.7289C12.3555 13.0415 12.4503 13.3259 12.5866 13.5823C16.0473 13.6771 19.5082 13.7719 22.9688 13.8667C22.8628 14.4449 22.7205 15.0137 22.5422 15.5734C18.6653 15.7143 14.7778 15.7617 10.88 15.7156C9.83662 12.2538 8.79366 8.79309 7.75107 5.33339C6.95067 5.19182 6.14474 5.14441 5.33329 5.19117C5.14367 4.43265 4.95403 3.67413 4.7644 2.91561C6.28219 2.89193 7.79921 2.91564 9.31552 2.98672C9.70821 4.20509 10.0875 5.41397 10.4533 6.61339Z"
            fill="#FEFDFD" />
        <path fill-rule="evenodd" clip-rule="evenodd"
            d="M10.4534 6.61335C15.3846 6.56596 20.3151 6.61336 25.2445 6.75557C25.2268 6.84186 25.1795 6.88926 25.1023 6.89779C20.2193 6.80297 15.3363 6.70817 10.4534 6.61335Z"
            fill="#E48980" />
        <path fill-rule="evenodd" clip-rule="evenodd"
            d="M23.5377 12.3022C19.7666 12.35 16.0214 12.4923 12.3022 12.7289C12.1736 12.6281 12.1262 12.4859 12.1599 12.3022C15.9526 12.3022 19.7451 12.3022 23.5377 12.3022Z"
            fill="#DF6B5F" />
        <path fill-rule="evenodd" clip-rule="evenodd"
            d="M12.5867 13.5822C16.0961 13.5348 19.6042 13.5822 23.1111 13.7244C23.0935 13.8107 23.0461 13.8581 22.9689 13.8667C19.5082 13.7718 16.0474 13.677 12.5867 13.5822Z"
            fill="#F3CCC7" />
        <path fill-rule="evenodd" clip-rule="evenodd"
            d="M-0.071167 13.8667C3.86761 15.843 8.03945 16.9808 12.4444 17.28C11.6809 18.5999 12.0364 19.5007 13.5111 19.9823C14.9484 19.7629 15.4461 18.9571 15.0044 17.5645C16.3717 17.458 17.7466 17.3631 19.1288 17.28C18.5215 18.6727 18.9482 19.5734 20.4088 19.9823C21.6075 19.7664 22.1053 19.0552 21.9022 17.8489C21.808 17.6379 21.6894 17.4483 21.5466 17.28C21.6135 17.1104 21.7557 17.0155 21.9733 16.9956C25.4566 16.528 28.7752 15.5324 31.9288 14.0089C31.9288 19.9823 31.9288 25.9556 31.9288 31.9289C21.2622 31.9289 10.5955 31.9289 -0.071167 31.9289C-0.071167 25.9082 -0.071167 19.8874 -0.071167 13.8667Z"
            fill="#CC2A16" />
        <path fill-rule="evenodd" clip-rule="evenodd"
            d="M22.5422 15.5734C20.6483 15.7629 18.7046 15.8577 16.7111 15.8578C14.7432 15.8578 12.7994 15.8104 10.88 15.7156C14.7779 15.7617 18.6654 15.7143 22.5422 15.5734Z"
            fill="#EA9B92" />
        <path fill-rule="evenodd" clip-rule="evenodd"
            d="M15.0044 17.5644C15.4461 18.957 14.9484 19.7629 13.5111 19.9822C12.0365 19.5006 11.6809 18.5998 12.4444 17.28C12.6126 17.1372 12.8022 17.0185 13.0133 16.9244C13.8446 16.6842 14.5083 16.8975 15.0044 17.5644Z"
            fill="#FDF8F7" />
        <path fill-rule="evenodd" clip-rule="evenodd"
            d="M21.5466 17.2799C21.6894 17.4482 21.808 17.6378 21.9022 17.8488C22.1053 19.0552 21.6075 19.7663 20.4088 19.9822C18.9482 19.5733 18.5216 18.6726 19.1288 17.2799C19.9348 16.711 20.7406 16.711 21.5466 17.2799Z"
            fill="#FEF9F9" />
        <path fill-rule="evenodd" clip-rule="evenodd"
            d="M11.5911 24.3911C12.2201 24.2383 12.5045 24.4753 12.4445 25.1023C12.5259 26.1132 12.0992 26.4925 11.1645 26.24C10.9006 25.5239 11.0428 24.9077 11.5911 24.3911Z"
            fill="#CE2F1A" />
        <path fill-rule="evenodd" clip-rule="evenodd"
            d="M15.8578 24.5334C16.1376 24.4994 16.3984 24.5467 16.64 24.6756C16.7722 25.2081 16.701 25.7058 16.4267 26.1689C15.5967 26.3814 15.2886 26.0732 15.5022 25.2445C15.6227 25.0037 15.7412 24.7666 15.8578 24.5334Z"
            fill="#CE301B" />
        <path fill-rule="evenodd" clip-rule="evenodd"
            d="M18.2756 25.5289C18.9271 25.7211 19.5909 25.887 20.2667 26.0267C20.4486 26.4182 20.3064 26.6316 19.84 26.6667C19.5086 26.4289 19.1531 26.2393 18.7734 26.0978C18.5691 26.1062 18.3795 26.1536 18.2045 26.24C18.2072 26.0115 18.2308 25.7744 18.2756 25.5289Z"
            fill="#CF321C" />
    </g>
    <defs>
        <clipPath id="clip0_782_96">
            <rect width="32" height="32" fill="white" />
        </clipPath>
    </defs>
</svg>