<svg width="32" height="32" viewBox="0 0 32 32" fill="none" xmlns="http://www.w3.org/2000/svg">
<path d="M8.04137 3.20996C9.02137 3.20996 9.98137 3.38996 10.8814 3.76996C12.6214 4.50996 14.0014 5.88996 14.7414 7.62996C15.1214 8.52996 15.3214 9.48996 15.3014 10.47C15.3014 11.45 15.1214 12.41 14.7414 13.31C14.0014 15.05 12.6214 16.43 10.8814 17.17C9.06137 17.93 7.04137 17.93 5.22137 17.17C3.48137 16.43 2.10137 15.05 1.36137 13.31C0.981371 12.41 0.78137 11.45 0.80137 10.47C0.80137 9.48996 0.981371 8.52996 1.36137 7.62996C2.10137 5.88996 3.48137 4.50996 5.22137 3.76996C6.12137 3.38996 7.08137 3.20996 8.04137 3.20996ZM8.04137 14.01C10.0014 14.01 11.6014 12.41 11.6014 10.45C11.6014 8.48996 10.0014 6.88996 8.04137 6.88996C6.08137 6.88996 4.48137 8.48996 4.48137 10.45C4.48137 11.89 5.34137 13.19 6.66137 13.73C7.10137 13.91 7.58137 14.01 8.04137 14.01Z" fill="#72AA18"/>
<path d="M31.2814 10.47C31.2814 11.45 31.1014 12.41 30.7214 13.31C29.9814 15.05 28.6014 16.43 26.8614 17.17C25.9614 17.55 25.0014 17.75 24.0214 17.73C22.7814 17.73 21.5614 17.43 20.4814 16.83V21.51H16.7614V10.47C16.7614 9.48995 16.9414 8.52995 17.3214 7.62995C18.0614 5.88995 19.4414 4.50995 21.1814 3.76995C23.0014 3.00995 25.0214 3.00995 26.8414 3.76995C28.5814 4.50995 29.9614 5.88995 30.7014 7.62995C31.0814 8.52995 31.2814 9.48995 31.2814 10.47ZM27.5614 10.47C27.5614 8.48995 25.9614 6.90995 23.9814 6.90995C22.0014 6.90995 20.4214 8.50995 20.4214 10.49C20.4214 12.47 22.0214 14.05 24.0014 14.05C25.4414 14.05 26.7414 13.19 27.3014 11.85C27.4614 11.41 27.5614 10.95 27.5614 10.47Z" fill="#72AA18"/>
<path d="M5.88136 21.2699C5.88136 21.2699 7.84137 25.0099 11.8214 25.9699C15.8214 26.9499 18.5014 25.9299 18.5014 25.9299L20.1814 27.6499C20.1814 27.6499 16.7814 29.9899 10.9014 28.2699C7.46136 27.3099 4.70136 24.7499 3.46136 21.4099L5.88136 21.2699Z" fill="#72AA18"/>
</svg>
