<svg width="32" height="32" viewBox="0 0 32 32" fill="none" xmlns="http://www.w3.org/2000/svg">
<path d="M0 16.067C0 24.636 6.66669 31.5983 15.2 32C15.4667 32 15.7333 32 16 32C24.8 32 32 24.9037 32 16.0669C32 7.23012 24.8 7.15256e-07 16 7.15256e-07C7.2 7.15256e-07 0 7.23018 0 16.067ZM22 8.70294C22 12.0502 19.3333 14.728 16 14.728C11.2 14.728 7.33331 18.6109 7.33331 23.431C7.33331 24.636 7.6 25.7072 8 26.7782C2.13331 22.3598 0.933312 13.9247 5.33331 8.03347C7.86662 4.68621 11.8666 2.67784 16 2.67784C19.3333 2.67784 22 5.35569 22 8.70294Z" fill="black"/>
</svg>
