<svg width="32" height="32" viewBox="0 0 32 32" fill="none" xmlns="http://www.w3.org/2000/svg">
<path d="M16.5275 6.67166L19.4643 2.26238C19.5881 2.0768 19.4544 1.82858 19.2313 1.82858H13.358C13.1341 1.82858 13.0009 2.0768 13.1245 2.26238L16.0609 6.67166C16.1716 6.83806 16.4165 6.83806 16.5275 6.67166Z" fill="#F87C56"/>
<path d="M26.9246 20.2521C19.6538 20.7806 12.2926 20.7684 4.83611 20.2458C4.35878 20.1814 4.2692 19.794 4.27612 19.449C5.13522 13.7164 10.0307 9.3212 15.9439 9.3212C21.9062 9.3212 27.0003 13.7677 27.6319 19.5911C27.6941 20.1568 27.0938 20.2368 26.9246 20.2521Z" fill="#F87C56"/>
<path d="M3.95742 23.0971C12.1871 23.7675 19.9162 23.7528 27.9868 23.0747C28.759 23.0099 28.9737 23.1193 29.2156 23.5882L31.6799 28.0856C32.0118 28.9532 31.6751 29.1949 30.767 29.3022C21.2072 30.4294 11.2742 30.409 0.937668 29.2548C-0.0305431 29.1478 0.160935 28.4796 0.289889 28.1957L2.76798 23.673C3.02859 23.1346 3.47347 23.0573 3.95742 23.0971Z" fill="#F87C56"/>
</svg>
