<svg width="32" height="32" viewBox="0 0 32 32" fill="none" xmlns="http://www.w3.org/2000/svg">
<rect width="32" height="32" fill="#403E6B"/>
<path d="M16.8299 13.8133C13.8219 13.0837 12.6816 12.7189 12.6816 11.0773C12.6816 9.43679 14.0949 8.79786 16.3285 8.79786C18.2891 8.79786 19.7931 9.4816 20.9792 10.3029L22.5291 7.2032C20.9792 6.1088 18.7445 5.33333 16.3285 5.33333C11.7248 5.33333 8.80639 7.52213 8.80639 11.3056C8.80639 14.4053 10.7669 16.0469 15.4165 17.0955C18.4715 17.8251 19.6565 18.4171 19.6565 20.0128C19.6565 21.6992 18.016 22.5205 15.6907 22.5205C13.4571 22.5205 11.5424 21.7909 10.1291 20.6507L8.53333 23.8421C10.3115 25.1189 12.9099 25.9392 15.6907 25.9392C20.5685 25.9392 23.6224 23.5232 23.6224 19.7845C23.5317 16.8213 21.4347 14.9067 16.8299 13.8133Z" fill="white"/>
</svg>
