<svg width="32" height="32" viewBox="0 0 32 32" fill="none" xmlns="http://www.w3.org/2000/svg">
    <g clip-path="url(#clip0_787_189)">
        <path fill-rule="evenodd" clip-rule="evenodd"
            d="M31.7867 0.213379C31.7867 6.32893 31.7867 12.4445 31.7867 18.56C31.6584 18.0627 31.5636 17.5413 31.5023 16.9956C31.5023 11.4963 31.5023 5.99709 31.5023 0.497823C21.1674 0.497823 10.8326 0.497823 0.497823 0.497823C0.47365 0.685851 0.521058 0.851776 0.640046 0.995601C0.5929 10.9659 0.450678 20.8978 0.213379 30.7912C0.213379 20.5985 0.213379 10.406 0.213379 0.213379C10.7378 0.213379 21.2623 0.213379 31.7867 0.213379Z"
            fill="#9ABD35" />
        <path fill-rule="evenodd" clip-rule="evenodd"
            d="M-0.071167 -0.071167C10.5481 -0.071167 21.1673 -0.071167 31.7866 -0.071167C31.7866 -0.0237596 31.7866 0.0236479 31.7866 0.0710552C21.2148 0.0710552 10.6429 0.0710552 0.0710552 0.0710552C0.118354 10.5721 0.0709469 21.0491 -0.071167 31.5022C-0.071167 20.9777 -0.071167 10.4533 -0.071167 -0.071167Z"
            fill="#ACC95C" />
        <path fill-rule="evenodd" clip-rule="evenodd"
            d="M31.7866 0.071167C31.7866 0.118574 31.7866 0.165982 31.7866 0.213389C21.2622 0.213389 10.7377 0.213389 0.213277 0.213389C0.213277 10.406 0.213277 20.5985 0.213277 30.7912C0.213277 30.9807 0.213277 31.1705 0.213277 31.3601C0.213277 31.5023 0.213277 31.6445 0.213277 31.7867C0.118463 31.7867 0.0236479 31.7867 -0.071167 31.7867C-0.071167 31.6919 -0.071167 31.5971 -0.071167 31.5023C0.0709469 21.0492 0.118354 10.5722 0.0710552 0.071167C10.6429 0.071167 21.2148 0.071167 31.7866 0.071167Z"
            fill="#A5C44A" />
        <path fill-rule="evenodd" clip-rule="evenodd"
            d="M13.5822 1.77774C8.87695 3.02252 6.17473 6.05659 5.47554 10.88C5.31105 12.04 5.28735 13.2251 5.40443 14.4355C5.44402 14.5658 5.51513 14.6605 5.61776 14.72C5.82081 15.2101 5.93934 15.7316 5.97332 16.2844C6.52686 17.4301 7.07204 18.5679 7.60887 19.6977C8.10921 19.9077 8.58328 20.1447 9.0311 20.4088C9.07743 20.7162 9.21965 20.9769 9.45776 21.1911C9.93183 21.5229 10.4059 21.8548 10.88 22.1866C11.7866 22.5137 12.6873 22.8219 13.5822 23.1111C13.6907 23.2203 13.8329 23.2914 14.0089 23.3244C14.6726 23.3718 15.3362 23.4193 16 23.4666C16.0805 23.6081 16.1753 23.7266 16.2844 23.8222C19.0302 27.9707 22.7279 29.0848 27.3778 27.1644C29.439 25.7638 30.8612 23.8912 31.6444 21.5466C31.5442 22.297 31.5442 23.0555 31.6444 23.8222C31.5261 26.263 31.455 28.7281 31.4311 31.2177C31.1781 31.357 30.9411 31.3096 30.72 31.0755C20.866 31.3592 10.9815 31.454 1.06665 31.36C1.06665 31.1704 1.06665 30.9807 1.06665 30.7911C40.6993 30.7437 40.6993 30.6962 1.06665 30.6488C1.06665 20.7882 1.06665 10.9274 1.06665 1.06663C5.14396 1.04293 9.221 1.06663 13.2978 1.13774C12.9957 1.36276 12.6876 1.38646 12.3733 1.20885C12.228 1.33031 12.1095 1.47253 12.0178 1.63552C12.5308 1.7762 13.0523 1.82362 13.5822 1.77774Z"
            fill="#97B93B" />
        <path fill-rule="evenodd" clip-rule="evenodd"
            d="M31.5023 16.9956C31.0783 16.3372 30.7227 15.6261 30.4356 14.8622C30.0887 14.6451 29.8043 14.3606 29.5823 14.0089C29.5136 13.8741 29.49 13.7319 29.5112 13.5822C28.705 13.1317 27.9466 12.6102 27.2356 12.0178C27.1351 11.7854 26.9692 11.5957 26.7378 11.4489C26.7478 10.9523 26.6293 10.5256 26.3823 10.1689C26.025 8.45772 25.3139 6.89328 24.2489 5.47558C24.1316 5.34961 23.9894 5.30221 23.8223 5.33336C23.5959 4.90975 23.3114 4.50678 22.9689 4.12447C22.5619 3.99213 22.2301 3.7551 21.9734 3.41336C21.8386 3.34469 21.6963 3.32099 21.5467 3.34225C21.5467 3.20003 21.5467 3.0578 21.5467 2.91558C20.6035 2.68768 19.7028 2.33213 18.8445 1.84891C18.2372 1.69597 17.621 1.62486 16.9956 1.63558C16.9956 1.58818 16.9956 1.54076 16.9956 1.49336C17.8558 1.46801 18.6853 1.32579 19.4845 1.06669C19.7662 1.08506 20.0032 1.17987 20.1956 1.35114C20.2667 1.28002 20.3378 1.20891 20.4089 1.1378C23.822 1.0667 27.2353 1.04299 30.6489 1.06669C30.6952 5.2922 30.6478 9.51146 30.5067 13.7245C30.6081 14.0482 30.6792 14.38 30.72 14.72C30.7444 10.135 30.8155 5.56022 30.9334 0.995581C20.9305 0.924469 10.9276 0.900767 0.92449 0.924469C0.948193 11.1172 0.92449 21.3097 0.853379 31.5022C0.805972 31.5496 0.758564 31.5971 0.711157 31.6445C0.59511 31.4563 0.429185 31.3616 0.213379 31.36C0.213379 31.1704 0.213379 30.9807 0.213379 30.7911C0.450678 20.8977 0.5929 10.9659 0.640046 0.995581C0.521058 0.851755 0.47365 0.68583 0.497823 0.497803C10.8326 0.497803 21.1674 0.497803 31.5023 0.497803C31.5023 5.99707 31.5023 11.4963 31.5023 16.9956Z"
            fill="#97B93C" />
        <path fill-rule="evenodd" clip-rule="evenodd"
            d="M16.9955 1.63557C17.6209 1.62485 18.2371 1.69596 18.8444 1.8489C19.7027 2.33212 20.6034 2.68767 21.5466 2.91557C21.5466 3.05779 21.5466 3.20001 21.5466 3.34224C21.6962 3.32097 21.8385 3.34468 21.9733 3.41335C22.23 3.75509 22.5618 3.99212 22.9688 4.12446C23.3113 4.50677 23.5958 4.90974 23.8222 5.33335C23.9893 5.3022 24.1315 5.3496 24.2488 5.47557C25.3138 6.89327 26.0249 8.45771 26.3822 10.1689C26.348 10.6068 26.3954 11.0334 26.5244 11.4489C26.4071 11.5749 26.2648 11.6223 26.0977 11.5911C25.7184 11.4963 25.3393 11.4015 24.96 11.3067C24.5155 11.1674 24.0415 11.12 23.5377 11.1645C23.5377 10.9748 23.5377 10.7852 23.5377 10.5956C23.4624 9.9097 23.3201 9.24601 23.1111 8.60446C22.9688 8.60446 22.8266 8.60446 22.6844 8.60446C22.1074 7.71776 21.4437 6.88813 20.6933 6.11557C20.4179 5.99994 20.1335 5.92883 19.84 5.90224C20.0637 5.45416 20.2059 4.98008 20.2666 4.48001C20.34 4.00855 20.1504 3.70039 19.6977 3.55557C19.3056 3.44435 18.9501 3.51546 18.6311 3.7689C18.352 4.27514 18.1387 4.79663 17.9911 5.33335C17.9911 5.14372 17.9911 4.95408 17.9911 4.76446C15.2406 4.37278 12.8228 5.06019 10.7377 6.82668C10.3611 7.2266 10.0767 7.67696 9.8844 8.17779C9.70034 8.29013 9.53441 8.43236 9.38662 8.60446C8.82273 9.41181 8.60939 10.3125 8.74662 11.3067C8.56007 11.6257 8.46527 12.005 8.46218 12.4445C8.54103 13.3752 8.73065 14.2759 9.03107 15.1467C9.09228 15.9325 9.42413 16.5489 10.0266 16.9956C10.5365 18.0115 11.3424 18.6751 12.4444 18.9867C12.4059 18.7193 12.5007 18.5297 12.7288 18.4178C12.663 18.9265 12.4497 19.3532 12.0888 19.6978C11.7809 20.8101 12.1839 21.3079 13.2977 21.1911C13.7501 20.8283 14.0346 20.3779 14.1511 19.84C14.2438 20.0142 14.4098 20.1091 14.6488 20.1245C14.8531 20.1161 15.0427 20.0687 15.2177 19.9822C15.2426 19.3395 15.3137 18.7231 15.4311 18.1333C15.3214 19.6834 15.4636 21.2005 15.8577 22.6845C15.8577 22.874 15.8577 23.0638 15.8577 23.2533C15.094 23.2687 14.3355 23.2213 13.5822 23.1111C12.6873 22.822 11.7865 22.5138 10.88 22.1867C10.4059 21.8549 9.9318 21.5229 9.45774 21.1911C9.21963 20.9769 9.0774 20.7162 9.03107 20.4089C8.58325 20.1448 8.10918 19.9077 7.60885 19.6978C7.07201 18.568 6.52683 17.4302 5.97329 16.2845C5.93931 15.7316 5.82079 15.2101 5.61773 14.72C5.49726 13.444 5.44984 12.164 5.47551 10.88C6.17471 6.05665 8.87693 3.02258 13.5822 1.77779C14.7151 1.65478 15.8529 1.60738 16.9955 1.63557Z"
            fill="#CBDB9C" />
        <path fill-rule="evenodd" clip-rule="evenodd"
            d="M17.9912 5.33335C17.9438 5.52298 17.8963 5.71262 17.8489 5.90224C17.5867 6.00235 17.5156 6.19198 17.6356 6.47113C17.8809 6.60823 18.1418 6.70305 18.4178 6.75557C18.6445 6.81524 18.8579 6.91006 19.0578 7.04002C19.3571 6.67552 19.6179 6.29625 19.8401 5.90224C20.1336 5.92884 20.418 5.99995 20.6934 6.11557C21.4438 6.88814 22.1075 7.71776 22.6845 8.60446C22.854 9.31816 23.1385 9.98187 23.5378 10.5956C23.5378 10.7852 23.5378 10.9748 23.5378 11.1645C22.76 11.1284 22.0014 11.2232 21.2623 11.4489C20.9932 10.5793 20.6139 9.77337 20.1245 9.03113C19.9823 8.60446 19.6978 8.32002 19.2712 8.1778C18.7253 7.84953 18.1564 7.54138 17.5645 7.25335C16.6163 7.15853 15.6683 7.15853 14.7201 7.25335C13.6262 7.57522 12.7255 8.1678 12.0178 9.03113C11.7672 9.13955 11.625 9.32917 11.5912 9.60002C11.5685 9.83511 11.4737 10.0247 11.3067 10.1689C11.0878 10.5015 10.993 10.8807 11.0223 11.3067C10.8195 11.6166 10.7247 11.9721 10.7378 12.3734C10.739 12.6161 10.7864 12.8294 10.8801 13.0134C10.8566 13.4426 10.8803 13.8693 10.9512 14.2934C11.0519 14.4187 11.1704 14.5134 11.3067 14.5778C11.6756 15.1743 12.0786 15.7432 12.5156 16.2845C12.8569 16.5568 13.2124 16.7938 13.5823 16.9956C13.7669 17.3382 13.6721 17.5751 13.2978 17.7067C12.9427 17.7961 12.7531 18.0332 12.7289 18.4178C12.5008 18.5297 12.406 18.7193 12.4445 18.9867C11.3425 18.6751 10.5366 18.0115 10.0267 16.9956C9.68531 16.4897 9.47197 15.9208 9.38672 15.2889C9.29132 15.182 9.17281 15.1345 9.03117 15.1467C8.73075 14.2759 8.54113 13.3752 8.46228 12.4445C8.46537 12.005 8.56017 11.6257 8.74672 11.3067C8.85321 10.8013 8.97172 10.2798 9.10228 9.74224C9.36322 9.22293 9.62395 8.70144 9.8845 8.1778C10.0768 7.67696 10.3612 7.2266 10.7378 6.82669C12.8229 5.0602 15.2407 4.37278 17.9912 4.76446C17.9912 4.95409 17.9912 5.14373 17.9912 5.33335Z"
            fill="#FAFCF8" />
        <path fill-rule="evenodd" clip-rule="evenodd"
            d="M19.2711 8.17781C19.5082 8.50966 19.7926 8.7941 20.1244 9.03114C20.6138 9.77339 20.9931 10.5793 21.2622 11.4489C21.1674 11.4489 21.12 11.4963 21.12 11.5911C20.5353 11.64 20.0139 11.8296 19.5556 12.16C19.3859 10.8048 18.6748 9.83298 17.4222 9.24448C15.5405 8.54685 14.0946 9.04463 13.0844 10.7378C12.3442 13.4285 13.316 15.1825 16 16C15.9108 16.1304 15.8633 16.2727 15.8578 16.4267C15.8852 16.8976 15.743 17.2769 15.4311 17.5645C14.756 17.5447 14.1397 17.3551 13.5822 16.9956C13.2124 16.7938 12.8568 16.5568 12.5156 16.2845C12.0785 15.7432 11.6755 15.1743 11.3067 14.5778C11.1489 14.0539 11.0067 13.5324 10.88 13.0134C10.8806 12.4396 10.9281 11.8707 11.0222 11.3067C11.2412 10.9741 11.336 10.5949 11.3067 10.1689C11.4736 10.0248 11.5684 9.83513 11.5911 9.60003C11.8418 9.49162 11.984 9.30199 12.0178 9.03114C12.7254 8.16781 13.6262 7.57523 14.72 7.25337C15.6682 7.15855 16.6163 7.15855 17.5644 7.25337C18.1564 7.54139 18.7253 7.84955 19.2711 8.17781Z"
            fill="#8DB228" />
        <path fill-rule="evenodd" clip-rule="evenodd"
            d="M19.5555 12.16C18.9755 12.6178 18.3591 13.0445 17.7066 13.44C17.3589 14.0948 16.9322 14.6874 16.4266 15.2178C16.3289 15.683 16.1393 16.086 15.8577 16.4267C15.8633 16.2726 15.9108 16.1304 16 16C13.316 15.1825 12.3441 13.4284 13.0844 10.7378C14.0946 9.04458 15.5404 8.54681 17.4222 9.24443C18.6747 9.83294 19.3859 10.8048 19.5555 12.16Z"
            fill="#0E953B" />
        <path fill-rule="evenodd" clip-rule="evenodd"
            d="M24.96 11.3066C25.3393 11.4015 25.7184 11.4963 26.0977 11.5911C26.1135 11.6789 26.1609 11.75 26.24 11.8044C26.5765 11.8669 26.9083 11.9381 27.2355 12.0178C27.9465 12.6101 28.705 13.1316 29.5111 13.5822C29.4899 13.7318 29.5135 13.874 29.5822 14.0089C29.8042 14.3606 30.0886 14.645 30.4355 14.8622C30.7227 15.6261 31.0782 16.3372 31.5022 16.9955C31.5635 17.5412 31.6583 18.0626 31.7866 18.56C31.8041 19.5597 31.7568 20.5552 31.6444 21.5466C30.8612 23.8912 29.439 25.7638 27.3777 27.1644C22.7279 29.0848 19.0301 27.9707 16.2844 23.8222C16.2513 23.3896 16.109 23.0104 15.8577 22.6844C15.4636 21.2005 15.3214 19.6834 15.4311 18.1333C15.4311 17.9437 15.4311 17.754 15.4311 17.5644C15.743 17.2768 15.8852 16.8975 15.8577 16.4266C16.1393 16.086 16.3289 15.683 16.4266 15.2178C16.9322 14.6874 17.3589 14.0948 17.7066 13.44C18.3591 13.0445 18.9755 12.6178 19.5555 12.16C20.0139 11.8296 20.5353 11.64 21.12 11.5911C22.3843 11.3473 23.6643 11.2525 24.96 11.3066Z"
            fill="#0E691F" />
        <path fill-rule="evenodd" clip-rule="evenodd"
            d="M22.1155 12.7289C22.3051 12.7289 22.4948 12.7289 22.6844 12.7289C22.2408 12.9237 21.7668 13.0659 21.2622 13.1555C21.306 13.5003 21.2585 13.8321 21.12 14.1511C20.3479 15.5398 19.2574 16.5828 17.8489 17.28C17.5963 16.702 17.6674 16.1805 18.0622 15.7155C18.0952 15.8915 18.1663 16.0337 18.2755 16.1422C18.4178 16.1422 18.56 16.1422 18.7022 16.1422C18.9481 15.8509 19.2326 15.5903 19.5555 15.36C19.6629 14.9134 19.6867 14.463 19.6267 14.0089C19.9852 13.9378 20.2459 13.7482 20.4089 13.44C20.9422 13.1506 21.5111 12.9136 22.1155 12.7289Z"
            fill="#E8F0D5" />
        <path fill-rule="evenodd" clip-rule="evenodd"
            d="M22.6845 12.7289C23.4429 12.7289 24.2016 12.7289 24.96 12.7289C25.1879 12.9527 25.4723 13.0475 25.8134 13.0133C26.2874 13.2504 26.7616 13.4874 27.2356 13.7244C27.2514 13.8122 27.2987 13.8834 27.3778 13.9378C26.5733 14.0088 25.7673 14.0325 24.96 14.0089C24.4836 13.9854 24.0096 14.0091 23.5378 14.08C23.4125 14.1807 23.3178 14.2993 23.2534 14.4355C23.1123 14.4111 23.0176 14.4586 22.9689 14.5778C22.8361 14.7297 22.7886 14.9192 22.8267 15.1467C23.022 15.1243 23.2117 15.1481 23.3956 15.2178C23.2653 15.2573 23.1706 15.3284 23.1111 15.4311C22.8042 15.7857 22.4251 16.0227 21.9734 16.1422C22.0207 16.4267 22.0682 16.7111 22.1156 16.9955C21.926 16.9955 21.7363 16.9955 21.5467 16.9955C21.5901 17.41 21.5901 17.7893 21.5467 18.1333C21.3467 18.2006 21.2519 18.3428 21.2622 18.56C21.2149 18.56 21.1674 18.56 21.12 18.56C20.4782 18.7776 19.8619 19.0147 19.2711 19.2711C19.2711 19.5082 19.2711 19.7451 19.2711 19.9822C18.415 19.9519 17.609 20.0941 16.8534 20.4089C16.8212 19.689 16.8687 18.9778 16.9956 18.2755C17.2327 18.086 17.4696 17.8962 17.7067 17.7067C17.8353 17.6058 17.8826 17.4636 17.8489 17.28C19.2575 16.5828 20.3479 15.5398 21.12 14.1511C21.2585 13.8321 21.3061 13.5003 21.2622 13.1555C21.7669 13.0659 22.2409 12.9237 22.6845 12.7289Z"
            fill="#F8FAF7" />
        <path fill-rule="evenodd" clip-rule="evenodd"
            d="M24.1066 14.4355C24.0892 14.6784 24.0418 14.9391 23.9644 15.2177C23.6683 15.0852 23.3365 15.0141 22.9689 15.0044C22.9689 14.8622 22.9689 14.72 22.9689 14.5777C23.0175 14.4585 23.1122 14.411 23.2533 14.4355C23.4888 14.3436 23.7259 14.2488 23.9644 14.1511C24.2803 14.1423 24.3277 14.2371 24.1066 14.4355Z"
            fill="#206C2A" />
        <path fill-rule="evenodd" clip-rule="evenodd"
            d="M22.3999 14.7199C22.3999 14.8622 22.3999 15.0044 22.3999 15.1466C22.2104 15.1466 22.0206 15.1466 21.8311 15.1466C21.8311 15.0044 21.8311 14.8622 21.8311 14.7199C22.0206 14.5304 22.2104 14.5304 22.3999 14.7199Z"
            fill="#0C621A" />
        <path fill-rule="evenodd" clip-rule="evenodd"
            d="M24.96 14.0089C24.96 14.0563 24.96 14.1037 24.96 14.1511C24.8177 14.1511 24.6755 14.1511 24.5333 14.1511C24.5333 14.2933 24.5333 14.4355 24.5333 14.5778C24.6755 14.5778 24.8177 14.5778 24.96 14.5778C24.9985 14.8451 24.9036 15.0347 24.6755 15.1467C24.5851 14.8203 24.3955 14.5833 24.1066 14.4355C24.3276 14.2371 24.2803 14.1424 23.9644 14.1511C23.7259 14.2488 23.4888 14.3437 23.2533 14.4355C23.3177 14.2993 23.4124 14.1807 23.5377 14.08C24.0095 14.0091 24.4835 13.9854 24.96 14.0089Z"
            fill="#458D50" />
        <path fill-rule="evenodd" clip-rule="evenodd"
            d="M21.8311 14.72C21.8311 14.8622 21.8311 15.0044 21.8311 15.1466C22.0207 15.1466 22.2104 15.1466 22.4 15.1466C22.4 15.0044 22.4 14.8622 22.4 14.72C22.5329 14.8719 22.5804 15.0614 22.5422 15.2889C22.2104 15.2889 21.8785 15.2889 21.5467 15.2889C21.5081 15.0215 21.603 14.8319 21.8311 14.72Z"
            fill="#649B6D" />
        <path fill-rule="evenodd" clip-rule="evenodd"
            d="M20.4088 13.4399C20.2458 13.7482 19.9852 13.9378 19.6266 14.0088C19.6866 14.4629 19.6629 14.9134 19.5555 15.3599C19.2325 15.5902 18.9481 15.8509 18.7022 16.1422C18.6998 15.6457 18.9131 15.2664 19.3422 15.0044C19.0892 14.0926 19.4447 13.5712 20.4088 13.4399Z"
            fill="#C7E0BA" />
        <path fill-rule="evenodd" clip-rule="evenodd"
            d="M24.1067 14.4355C24.3955 14.5833 24.5851 14.8203 24.6756 15.1467C24.4167 15.3212 24.1323 15.4634 23.8222 15.5733C23.5795 15.5409 23.3424 15.4934 23.1111 15.4311C23.1706 15.3284 23.2653 15.2573 23.3956 15.2178C23.2117 15.1481 23.022 15.1243 22.8267 15.1467C22.7886 14.9192 22.8361 14.7297 22.9689 14.5778C22.9689 14.72 22.9689 14.8622 22.9689 15.0044C23.3366 15.0141 23.6684 15.0852 23.9645 15.2178C24.0418 14.9392 24.0892 14.6785 24.1067 14.4355Z"
            fill="#B2D2B2" />
        <path fill-rule="evenodd" clip-rule="evenodd"
            d="M9.03113 15.1467C9.17277 15.1344 9.29128 15.1819 9.38668 15.2889C9.47193 15.9208 9.68526 16.4897 10.0267 16.9955C9.42419 16.5488 9.09234 15.9324 9.03113 15.1467Z"
            fill="#ECF2D5" />
        <path fill-rule="evenodd" clip-rule="evenodd"
            d="M24.3911 17.7067C24.1066 17.7067 23.8222 17.7067 23.5377 17.7067C23.5377 17.8489 23.5377 17.9911 23.5377 18.1333C23.1616 17.8856 22.7349 17.7907 22.2577 17.8489C22.2192 17.5815 22.3141 17.3919 22.5422 17.28C22.6324 17.0742 22.7983 16.9795 23.04 16.9956C23.3989 17.092 23.7071 17.2817 23.9644 17.5645C24.0118 17.5171 24.0593 17.4696 24.1066 17.4222C23.4888 16.8093 23.5362 16.667 24.2489 16.9956C24.3842 17.2153 24.4316 17.4524 24.3911 17.7067Z"
            fill="#B6D7B7" />
        <path fill-rule="evenodd" clip-rule="evenodd"
            d="M26.0977 16.9955C26.1135 17.0833 26.1609 17.1544 26.2399 17.2088C25.9114 17.2795 25.5796 17.3031 25.2444 17.2799C25.2444 17.1377 25.2444 16.9955 25.2444 16.8533C25.2778 16.7684 25.3489 16.721 25.4577 16.7111C25.6577 16.8411 25.871 16.9358 26.0977 16.9955Z"
            fill="#E9F1E1" />
        <path fill-rule="evenodd" clip-rule="evenodd"
            d="M18.2756 16.1422C18.1664 16.0337 18.0953 15.8915 18.0623 15.7156C17.6675 16.1805 17.5963 16.702 17.8489 17.28C17.8826 17.4636 17.8353 17.6059 17.7067 17.7067C17.5833 17.094 17.5597 16.4777 17.6356 15.8578C18.1119 15.2444 18.3252 15.3393 18.2756 16.1422Z"
            fill="#A8CCA0" />
        <path fill-rule="evenodd" clip-rule="evenodd"
            d="M22.5422 17.28C22.939 17.0408 23.2709 17.1119 23.5378 17.4934C23.1572 17.5986 22.7781 17.646 22.4 17.6356C22.507 17.5401 22.5545 17.4217 22.5422 17.28Z"
            fill="#FAFCF6" />
        <path fill-rule="evenodd" clip-rule="evenodd"
            d="M13.5822 16.9956C14.1396 17.3551 14.7559 17.5447 15.4311 17.5645C15.4311 17.7541 15.4311 17.9438 15.4311 18.1334C15.3137 18.7232 15.2426 19.3396 15.2177 19.9823C15.0427 20.0687 14.8531 20.1161 14.6488 20.1245C14.4098 20.1091 14.2438 20.0143 14.1511 19.84C14.2869 19.5206 14.3817 19.1888 14.4355 18.8445C14.6636 18.7326 14.7585 18.543 14.72 18.2756C14.5304 18.2756 14.3406 18.2756 14.1511 18.2756C13.8233 18.1586 13.5389 17.969 13.2977 17.7067C13.672 17.5752 13.7668 17.3382 13.5822 16.9956Z"
            fill="#EFF7EA" />
        <path fill-rule="evenodd" clip-rule="evenodd"
            d="M25.2444 16.8533C25.2444 16.9955 25.2444 17.1377 25.2444 17.2799C25.5796 17.3031 25.9115 17.2795 26.24 17.2088C26.1609 17.1544 26.1135 17.0832 26.0978 16.9955C26.3179 17.0411 26.4128 17.1834 26.3822 17.4222C25.9555 17.4222 25.5289 17.4222 25.1022 17.4222C25.0641 17.1947 25.1116 17.0052 25.2444 16.8533Z"
            fill="#89BB8C" />
        <path fill-rule="evenodd" clip-rule="evenodd"
            d="M26.9511 16.7111C27.0933 16.7111 27.2356 16.7111 27.3778 16.7111C27.4251 17.0904 27.4726 17.4695 27.52 17.8488C27.332 17.873 27.166 17.8257 27.0222 17.7066C26.9515 17.3781 26.9279 17.0463 26.9511 16.7111Z"
            fill="#ABD2A7" />
        <path fill-rule="evenodd" clip-rule="evenodd"
            d="M25.6711 18.4178C25.4251 18.1932 25.1642 17.9561 24.8889 17.7067C24.7905 17.7813 24.7194 17.8762 24.6756 17.9911C24.8879 18.0823 25.0301 18.2245 25.1022 18.4178C24.8651 18.4178 24.6282 18.4178 24.3911 18.4178C24.3911 18.1807 24.3911 17.9438 24.3911 17.7067C24.5611 17.6814 24.727 17.634 24.8889 17.5645C25.1561 17.7796 25.4643 17.8744 25.8133 17.8489C25.8515 18.0763 25.8039 18.2659 25.6711 18.4178Z"
            fill="#ADCDA7" />
        <path fill-rule="evenodd" clip-rule="evenodd"
            d="M24.3911 17.7067C24.3911 17.9437 24.3911 18.1807 24.3911 18.4178C24.0484 18.5816 23.764 18.4869 23.5377 18.1333C23.5377 17.9911 23.5377 17.8489 23.5377 17.7067C23.8222 17.7067 24.1066 17.7067 24.3911 17.7067Z"
            fill="#E8F0E3" />
        <path fill-rule="evenodd" clip-rule="evenodd"
            d="M25.6711 18.4178C25.4815 18.6074 25.2918 18.6074 25.1022 18.4178C25.0301 18.2245 24.8879 18.0823 24.6755 17.9911C24.7193 17.8762 24.7905 17.7813 24.8889 17.7067C25.1642 17.9561 25.425 18.1932 25.6711 18.4178Z"
            fill="#E4EED8" />
        <path fill-rule="evenodd" clip-rule="evenodd"
            d="M21.5467 18.1333C21.5571 18.3505 21.4622 18.4927 21.2622 18.56C21.2519 18.3428 21.3467 18.2006 21.5467 18.1333Z"
            fill="#7FAC81" />
        <path fill-rule="evenodd" clip-rule="evenodd"
            d="M14.1511 18.2755C14.3407 18.2755 14.5304 18.2755 14.72 18.2755C14.7586 18.5429 14.6637 18.7325 14.4356 18.8444C14.4317 18.6028 14.3369 18.413 14.1511 18.2755Z"
            fill="#57B57D" />
        <path fill-rule="evenodd" clip-rule="evenodd"
            d="M27.52 18.8445C27.6068 18.9712 27.6541 19.1134 27.6622 19.2711C27.52 19.2711 27.3778 19.2711 27.2356 19.2711C27.205 19.0324 27.2999 18.8901 27.52 18.8445Z"
            fill="#CEE6C3" />
        <path fill-rule="evenodd" clip-rule="evenodd"
            d="M27.52 18.8445C27.8326 18.8978 28.1171 18.9927 28.3734 19.1289C28.1459 19.0908 27.9564 19.1383 27.8045 19.2711C27.7571 19.2711 27.7096 19.2711 27.6622 19.2711C27.6541 19.1134 27.6068 18.9712 27.52 18.8445Z"
            fill="#7FAA7D" />
        <path fill-rule="evenodd" clip-rule="evenodd"
            d="M13.2978 17.7067C13.5389 17.9689 13.8234 18.1585 14.1511 18.2756C14.3369 18.4131 14.4318 18.6028 14.4356 18.8444C14.3818 19.1888 14.287 19.5206 14.1511 19.84C14.0347 20.3779 13.7502 20.8283 13.2978 21.1911C12.184 21.3079 11.781 20.8101 12.0889 19.6978C12.4498 19.3532 12.6631 18.9265 12.7289 18.4178C12.753 18.0332 12.9427 17.7961 13.2978 17.7067Z"
            fill="#199740" />
        <path fill-rule="evenodd" clip-rule="evenodd"
            d="M16.9955 18.2755C16.8687 18.9778 16.8212 19.6889 16.8533 20.4088C16.9007 20.7882 16.9482 21.1673 16.9955 21.5466C16.9078 21.5308 16.8367 21.4835 16.7822 21.4044C16.6873 20.4088 16.6873 19.4133 16.7822 18.4177C16.8367 18.3387 16.9078 18.2913 16.9955 18.2755Z"
            fill="#A5CBAC" />
        <path fill-rule="evenodd" clip-rule="evenodd"
            d="M21.1199 18.5601C20.5593 19.1948 20.4171 19.9059 20.6933 20.6934C20.7406 20.8356 20.8355 20.9305 20.9777 20.9778C21.0251 21.3096 21.2148 21.4994 21.5466 21.5467C21.5466 21.6889 21.5466 21.8312 21.5466 21.9734C21.173 22.0576 20.7937 22.1049 20.4088 22.1156C20.4088 22.3052 20.4088 22.4949 20.4088 22.6845C20.0295 22.6845 19.6504 22.6845 19.271 22.6845C19.3083 22.8947 19.261 23.0843 19.1288 23.2534C18.8334 23.0284 18.5016 22.8862 18.1333 22.8267C17.8534 22.3099 17.4742 21.8832 16.9955 21.5467C16.9481 21.1674 16.9006 20.7883 16.8533 20.4089C17.6089 20.0942 18.4149 19.952 19.271 19.9823C19.271 19.7452 19.271 19.5083 19.271 19.2712C19.8618 19.0147 20.4781 18.7777 21.1199 18.5601Z"
            fill="#F5F7EA" />
        <path fill-rule="evenodd" clip-rule="evenodd"
            d="M28.6578 19.2711C29.0098 19.4399 29.1521 19.7244 29.0845 20.1245C28.9434 19.8463 28.8012 19.5618 28.6578 19.2711Z"
            fill="#8EBE8B" />
        <path fill-rule="evenodd" clip-rule="evenodd"
            d="M29.9377 19.6978C30.0386 19.5692 30.1808 19.5218 30.3644 19.5556C30.4064 19.8734 30.3589 20.1579 30.2222 20.4089C30.2823 20.0845 30.1875 19.8474 29.9377 19.6978Z"
            fill="#5E9962" />
        <path fill-rule="evenodd" clip-rule="evenodd"
            d="M27.0934 20.4089C27.204 20.5022 27.2987 20.6207 27.3778 20.7645C27.3678 20.8733 27.3205 20.9444 27.2356 20.9778C26.9912 20.8748 26.7304 20.78 26.4534 20.6934C26.1964 20.195 25.983 19.6735 25.8134 19.1289C25.8607 19.0816 25.9082 19.0341 25.9556 18.9867C26.2286 19.3905 26.4657 19.8171 26.6667 20.2667C26.784 20.3927 26.9262 20.4401 27.0934 20.4089Z"
            fill="#98C394" />
        <path fill-rule="evenodd" clip-rule="evenodd"
            d="M21.12 18.5601C21.1674 18.5601 21.2149 18.5601 21.2623 18.5601C20.8315 19.192 20.6419 19.9031 20.6934 20.6934C20.4172 19.9059 20.5594 19.1948 21.12 18.5601Z"
            fill="#85B389" />
        <path fill-rule="evenodd" clip-rule="evenodd"
            d="M30.2223 20.6934C30.1972 21.1523 30.1024 21.579 29.9378 21.9734C29.8973 21.4999 29.9921 21.0732 30.2223 20.6934Z"
            fill="#6CA46C" />
        <path fill-rule="evenodd" clip-rule="evenodd"
            d="M20.9778 20.9778C21.1381 21.0662 21.2803 21.1847 21.4044 21.3333C22.0472 21.3582 22.6635 21.4293 23.2533 21.5467C22.6844 21.5467 22.1156 21.5467 21.5467 21.5467C21.2149 21.4993 21.0251 21.3096 20.9778 20.9778Z"
            fill="#64A76A" />
        <path fill-rule="evenodd" clip-rule="evenodd"
            d="M27.8044 19.2712C27.9563 19.1383 28.1459 19.0908 28.3733 19.1289C28.4219 19.2481 28.5167 19.2956 28.6577 19.2712C28.8011 19.5619 28.9433 19.8463 29.0844 20.1245C28.9786 20.6152 29.1683 20.8521 29.6533 20.8356C29.6391 20.4647 29.7339 20.1327 29.9377 19.8401C29.9377 19.7927 29.9377 19.7452 29.9377 19.6978C30.1875 19.8474 30.2823 20.0845 30.2222 20.4089C30.2222 20.5038 30.2222 20.5985 30.2222 20.6934C29.9921 21.0733 29.8972 21.4999 29.9377 21.9734C29.7482 22.3527 29.5584 22.7319 29.3689 23.1112C29.12 23.276 28.9777 23.5131 28.9422 23.8223C28.6454 23.9766 28.4558 24.2135 28.3733 24.5334C27.6942 25.1818 26.9357 25.7271 26.0977 26.1689C25.7308 26.3316 25.3515 26.4503 24.96 26.5245C23.7068 26.5901 22.4742 26.4952 21.2622 26.2401C20.8707 26.1658 20.4913 26.0472 20.1244 25.8845C19.7501 25.484 19.3234 25.1758 18.8444 24.9601C19.0484 24.5052 19.1195 24.0311 19.0577 23.5378C18.6756 23.3839 18.3674 23.1469 18.1333 22.8267C18.5017 22.8862 18.8335 23.0284 19.1289 23.2534C19.261 23.0843 19.3083 22.8947 19.2711 22.6845C19.6504 22.6845 20.0295 22.6845 20.4089 22.6845C20.4089 22.4949 20.4089 22.3052 20.4089 22.1156C20.7937 22.1049 21.173 22.0576 21.5466 21.9734C21.5466 21.8312 21.5466 21.6889 21.5466 21.5467C22.1155 21.5467 22.6844 21.5467 23.2533 21.5467C23.2533 21.5941 23.2533 21.6416 23.2533 21.6889C23.3482 22.2105 23.4429 22.7319 23.5377 23.2534C23.5771 23.7355 23.7194 24.1859 23.9644 24.6045C24.2962 24.6994 24.6282 24.6994 24.96 24.6045C25.1495 24.2929 25.3866 24.0322 25.6711 23.8223C26.1229 23.4427 26.3125 23.5849 26.24 24.2489C26.5917 24.3075 26.7813 24.1653 26.8089 23.8223C26.8686 23.5956 26.9633 23.3822 27.0933 23.1823C27.0459 23.1112 26.9984 23.0401 26.9511 22.9689C26.8063 23.0675 26.6641 23.1622 26.5244 23.2534C26.3442 22.8892 26.3442 22.5098 26.5244 22.1156C26.6636 21.8817 26.8532 21.6919 27.0933 21.5467C27.2254 21.3776 27.2728 21.188 27.2355 20.9778C27.3204 20.9444 27.3678 20.8733 27.3777 20.7645C27.2987 20.6207 27.2039 20.5022 27.0933 20.4089C27.4197 20.1497 27.7516 19.889 28.0889 19.6267C28.0691 19.4417 27.9744 19.3232 27.8044 19.2712Z"
            fill="#E8EFD7" />
        <path fill-rule="evenodd" clip-rule="evenodd"
            d="M29.9378 19.84C29.734 20.1327 29.6391 20.4646 29.6533 20.8355C29.1684 20.852 28.9786 20.6151 29.0844 20.1244C29.2349 20.2809 29.3535 20.4706 29.44 20.6933C29.4409 20.3002 29.6067 20.0158 29.9378 19.84Z"
            fill="#79AD7A" />
        <path fill-rule="evenodd" clip-rule="evenodd"
            d="M23.2533 21.6888C23.5933 22.1814 23.6882 22.7027 23.5377 23.2533C23.4429 22.7318 23.3482 22.2104 23.2533 21.6888Z"
            fill="#7DB280" />
        <path fill-rule="evenodd" clip-rule="evenodd"
            d="M15.8578 22.6844C16.1091 23.0104 16.2514 23.3896 16.2845 23.8222C16.1754 23.7267 16.0806 23.6082 16.0001 23.4667C15.3363 23.4193 14.6727 23.3718 14.0089 23.3244C13.8329 23.2915 13.6907 23.2203 13.5823 23.1111C14.3356 23.2213 15.0941 23.2687 15.8578 23.2533C15.8578 23.0638 15.8578 22.874 15.8578 22.6844Z"
            fill="#A7C66A" />
        <path fill-rule="evenodd" clip-rule="evenodd"
            d="M26.8089 23.8222C26.3744 23.9063 26.2796 23.7167 26.5245 23.2533C26.6642 23.1622 26.8064 23.0674 26.9512 22.9689C26.9985 23.04 27.046 23.1111 27.0934 23.1822C26.9634 23.3822 26.8687 23.5955 26.8089 23.8222Z"
            fill="#327534" />
        <path fill-rule="evenodd" clip-rule="evenodd"
            d="M26.5245 22.1156C26.3443 22.5098 26.3443 22.8891 26.5245 23.2534C26.2796 23.7167 26.3744 23.9063 26.8089 23.8223C26.7813 24.1653 26.5917 24.3075 26.24 24.2489C26.3126 23.5849 26.123 23.4427 25.6711 23.8223C25.7084 23.5287 25.8744 23.3391 26.1689 23.2534C26.1614 22.8018 26.2799 22.4225 26.5245 22.1156Z"
            fill="#ACCEA8" />
        <path fill-rule="evenodd" clip-rule="evenodd"
            d="M29.3689 23.1111C29.3558 23.445 29.2136 23.682 28.9423 23.8222C28.9778 23.513 29.12 23.2759 29.3689 23.1111Z"
            fill="#5B9860" />
        <path fill-rule="evenodd" clip-rule="evenodd"
            d="M16.9956 1.4933C16.2632 1.32964 15.5045 1.30594 14.72 1.42219C14.2995 1.46193 13.9203 1.58044 13.5823 1.77775C13.0523 1.82363 12.5309 1.77621 12.0178 1.63553C12.1095 1.47254 12.2281 1.33032 12.3734 1.20886C12.6876 1.38647 12.9958 1.36277 13.2978 1.13775C9.22107 1.06664 5.14402 1.04294 1.06671 1.06664C1.06671 10.9274 1.06671 20.7882 1.06671 30.6489C40.6994 30.6962 40.6994 30.7437 1.06671 30.7911C1.06671 30.9807 1.06671 31.1704 1.06671 31.36C10.9816 31.454 20.866 31.3593 30.72 31.0755C30.9412 31.3096 31.1781 31.357 31.4312 31.2178C31.4551 28.7282 31.5262 26.263 31.6445 23.8222C31.6909 26.4168 31.6434 29.0005 31.5023 31.5733C21.3332 31.5971 11.188 31.6682 1.06671 31.7866C0.782268 31.7866 0.497823 31.7866 0.213379 31.7866C0.213379 31.6444 0.213379 31.5022 0.213379 31.36C0.429185 31.3615 0.59511 31.4563 0.711157 31.6444C0.758564 31.5971 0.805972 31.5496 0.853379 31.5022C0.92449 21.3097 0.948193 11.1171 0.92449 0.924416C10.9276 0.900713 20.9305 0.924416 30.9334 0.995527C30.8155 5.56016 30.7444 10.135 30.72 14.72C30.6792 14.3799 30.6081 14.0481 30.5067 13.7244C30.6478 9.51141 30.6952 5.29215 30.6489 1.06664C27.2353 1.04294 23.822 1.06664 20.4089 1.13775C20.3378 1.20886 20.2667 1.27997 20.1956 1.35108C20.0032 1.17982 19.7662 1.08501 19.4845 1.06664C18.6853 1.32574 17.8558 1.46796 16.9956 1.4933Z"
            fill="#98BB37" />
        <path fill-rule="evenodd" clip-rule="evenodd"
            d="M21.2622 26.24C22.4742 26.4951 23.7069 26.59 24.96 26.5244C23.9424 26.6887 22.8995 26.7125 21.8311 26.5955C21.6084 26.5091 21.4187 26.3905 21.2622 26.24Z"
            fill="#9FC598" />
        <path fill-rule="evenodd" clip-rule="evenodd"
            d="M28.9422 23.8223C28.8597 24.1421 28.6701 24.3791 28.3733 24.5334C28.4558 24.2135 28.6454 23.9766 28.9422 23.8223Z"
            fill="#6DA76F" />
        <path fill-rule="evenodd" clip-rule="evenodd"
            d="M22.3999 14.72C22.2104 14.5304 22.0206 14.5304 21.8311 14.72C21.8481 14.5655 21.943 14.4707 22.1155 14.4355C22.288 14.4707 22.3829 14.5655 22.3999 14.72Z"
            fill="#77AD85" />
        <path fill-rule="evenodd" clip-rule="evenodd"
            d="M10.8799 13.0133C11.0066 13.5323 11.1488 14.0538 11.3066 14.5778C11.1703 14.5133 11.0518 14.4186 10.9511 14.2933C10.8802 13.8693 10.8565 13.4426 10.8799 13.0133Z"
            fill="#E1ECC5" />
        <path fill-rule="evenodd" clip-rule="evenodd"
            d="M27.2355 13.7245C27.4557 13.7702 27.5505 13.9124 27.52 14.1512C26.6666 14.1512 25.8133 14.1512 24.96 14.1512C24.96 14.1038 24.96 14.0563 24.96 14.0089C25.7672 14.0326 26.5732 14.0088 27.3777 13.9378C27.2987 13.8834 27.2513 13.8123 27.2355 13.7245Z"
            fill="#7AAA7B" />
        <path fill-rule="evenodd" clip-rule="evenodd"
            d="M15.4312 13.5823C15.9503 13.7569 16.4717 13.7569 16.9956 13.5823C16.9798 13.6701 16.9325 13.7412 16.8534 13.7956C16.4267 13.8904 16 13.8904 15.5734 13.7956C15.4943 13.7412 15.4469 13.6701 15.4312 13.5823Z"
            fill="#6EBE8D" />
        <path fill-rule="evenodd" clip-rule="evenodd"
            d="M14.8623 11.7333C14.8388 12.1626 14.8626 12.5892 14.9334 13.0133C15.144 13.1514 15.2626 13.341 15.2889 13.5822C15.1049 13.4698 14.9389 13.3276 14.7912 13.1555C14.6762 12.6539 14.7 12.1798 14.8623 11.7333Z"
            fill="#72BF90" />
        <path fill-rule="evenodd" clip-rule="evenodd"
            d="M17.4223 11.8756C17.5835 12.2264 17.6073 12.6056 17.4934 13.0134C17.4389 13.0925 17.3678 13.1399 17.28 13.1556C17.3937 12.7389 17.441 12.3122 17.4223 11.8756Z"
            fill="#83CA9E" />
        <path fill-rule="evenodd" clip-rule="evenodd"
            d="M24.96 12.7289C25.301 12.6946 25.5855 12.7895 25.8133 13.0133C25.4722 13.0475 25.1878 12.9527 24.96 12.7289Z"
            fill="#70A778" />
        <path fill-rule="evenodd" clip-rule="evenodd"
            d="M24.96 12.7289C24.2016 12.7289 23.443 12.7289 22.6845 12.7289C22.4949 12.7289 22.3052 12.7289 22.1156 12.7289C22.175 12.6262 22.2698 12.5551 22.4 12.5155C23.2895 12.3887 24.1428 12.4598 24.96 12.7289Z"
            fill="#67A06E" />
        <path fill-rule="evenodd" clip-rule="evenodd"
            d="M11.0222 11.3066C10.928 11.8707 10.8806 12.4396 10.88 13.0133C10.7864 12.8294 10.739 12.616 10.7378 12.3733C10.7247 11.9721 10.8195 11.6165 11.0222 11.3066Z"
            fill="#DAE7AF" />
        <path fill-rule="evenodd" clip-rule="evenodd"
            d="M5.47556 10.88C5.44989 12.164 5.4973 13.444 5.61778 14.72C5.51515 14.6606 5.44404 14.5658 5.40445 14.4356C5.28737 13.2252 5.31106 12.04 5.47556 10.88Z"
            fill="#B9D17B" />
        <path fill-rule="evenodd" clip-rule="evenodd"
            d="M23.5378 11.1645C24.0415 11.12 24.5156 11.1674 24.96 11.3067C23.6644 11.2525 22.3844 11.3473 21.12 11.5911C21.12 11.4963 21.1674 11.4489 21.2622 11.4489C22.0013 11.2232 22.76 11.1284 23.5378 11.1645Z"
            fill="#5F9663" />
        <path fill-rule="evenodd" clip-rule="evenodd"
            d="M16.5689 11.1644C17.0713 11.1456 17.3557 11.3826 17.4223 11.8755C17.441 12.3122 17.3937 12.7388 17.28 13.1555C17.1519 13.2679 17.057 13.4102 16.9956 13.5822C16.4717 13.7568 15.9503 13.7568 15.4312 13.5822C15.3838 13.5822 15.3363 13.5822 15.2889 13.5822C15.2626 13.341 15.144 13.1514 14.9334 13.0133C14.8625 12.5892 14.8388 12.1626 14.8623 11.7333C14.9129 11.493 15.0551 11.3507 15.2889 11.3066C15.7056 11.193 16.1323 11.1456 16.5689 11.1644Z"
            fill="#F6FBF8" />
        <path fill-rule="evenodd" clip-rule="evenodd"
            d="M16.5689 11.1644C16.1323 11.1456 15.7057 11.193 15.2889 11.3066C15.3047 11.2188 15.3521 11.1477 15.4312 11.0933C15.8389 10.9794 16.2182 11.0031 16.5689 11.1644Z"
            fill="#AEE4C0" />
        <path fill-rule="evenodd" clip-rule="evenodd"
            d="M26.3822 10.1689C26.6293 10.5256 26.7477 10.9523 26.7378 11.4489C26.9692 11.5958 27.135 11.7854 27.2356 12.0178C26.9083 11.9381 26.5765 11.867 26.24 11.8045C26.1609 11.7501 26.1136 11.679 26.0978 11.5912C26.2649 11.6223 26.4071 11.5749 26.5244 11.4489C26.3954 11.0335 26.3481 10.6068 26.3822 10.1689Z"
            fill="#99BB55" />
        <path fill-rule="evenodd" clip-rule="evenodd"
            d="M11.3066 10.1689C11.3359 10.5949 11.2411 10.9742 11.0222 11.3067C10.9928 10.8808 11.0877 10.5015 11.3066 10.1689Z"
            fill="#B4CA76" />
        <path fill-rule="evenodd" clip-rule="evenodd"
            d="M22.6844 8.60449C22.8267 8.60449 22.9689 8.60449 23.1111 8.60449C23.3202 9.24604 23.4624 9.90974 23.5378 10.5956C23.1384 9.9819 22.854 9.31819 22.6844 8.60449Z"
            fill="#E2EBC9" />
        <path fill-rule="evenodd" clip-rule="evenodd"
            d="M12.0177 9.03113C11.9839 9.30198 11.8417 9.4916 11.5911 9.60002C11.6249 9.32917 11.7671 9.13954 12.0177 9.03113Z"
            fill="#C4D592" />
        <path fill-rule="evenodd" clip-rule="evenodd"
            d="M9.88449 8.17773C9.62394 8.70138 9.3632 9.22287 9.10227 9.74218C8.97171 10.2797 8.85319 10.8012 8.74671 11.3066C8.60948 10.3125 8.82281 9.41175 9.38671 8.6044C9.53449 8.4323 9.70042 8.29008 9.88449 8.17773Z"
            fill="#EBF1D7" />
        <path fill-rule="evenodd" clip-rule="evenodd"
            d="M19.2711 8.17773C19.6978 8.31996 19.9822 8.6044 20.1245 9.03107C19.7926 8.79403 19.5082 8.50958 19.2711 8.17773Z"
            fill="#D8E5AE" />
        <path fill-rule="evenodd" clip-rule="evenodd"
            d="M17.8488 5.90222C17.8488 6.09185 17.8488 6.28149 17.8488 6.47111C18.1162 6.43258 18.3058 6.5274 18.4177 6.75556C18.1417 6.70303 17.8808 6.60821 17.6355 6.47111C17.5155 6.19196 17.5866 6.00233 17.8488 5.90222Z"
            fill="#74C493" />
        <path fill-rule="evenodd" clip-rule="evenodd"
            d="M19.84 5.90219C19.6178 6.2962 19.357 6.67546 19.0578 7.03996C18.8578 6.91 18.6445 6.81518 18.4178 6.75552C18.3058 6.52737 18.1163 6.43255 17.8489 6.47108C17.8489 6.28145 17.8489 6.09181 17.8489 5.90219C17.8962 5.71256 17.9437 5.52292 17.9911 5.3333C18.1387 4.79658 18.3521 4.27509 18.6311 3.76885C18.9501 3.51541 19.3057 3.4443 19.6978 3.55552C20.1505 3.70034 20.34 4.0085 20.2667 4.47996C20.2059 4.98003 20.0637 5.45412 19.84 5.90219Z"
            fill="#17963F" />
        <path fill-rule="evenodd" clip-rule="evenodd"
            d="M16.9956 1.49339C16.9956 1.54079 16.9956 1.58821 16.9956 1.63561C15.853 1.60742 14.7152 1.65482 13.5823 1.77783C13.9203 1.58053 14.2995 1.46201 14.7201 1.42228C15.5046 1.30602 16.2632 1.32973 16.9956 1.49339Z"
            fill="#B3CB6C" />
        <path fill-rule="evenodd" clip-rule="evenodd"
            d="M31.6444 21.5466C31.7864 24.9355 31.8337 28.3488 31.7867 31.7866C21.5467 31.7866 11.3067 31.7866 1.06665 31.7866C11.188 31.6682 21.3332 31.597 31.5022 31.5733C31.6433 29.0005 31.6908 26.4167 31.6444 23.8222C31.5442 23.0555 31.5442 22.297 31.6444 21.5466Z"
            fill="#A1C63B" />
        <path fill-rule="evenodd" clip-rule="evenodd"
            d="M31.7866 -0.071167C31.834 -0.071167 31.8815 -0.071167 31.9288 -0.071167C31.9288 10.5955 31.9288 21.2622 31.9288 31.9288C21.2622 31.9288 10.5955 31.9288 -0.071167 31.9288C-0.071167 31.8815 -0.071167 31.834 -0.071167 31.7866C0.0236479 31.7866 0.118463 31.7866 0.213277 31.7866C0.497722 31.7866 0.782166 31.7866 1.06661 31.7866C11.3066 31.7866 21.5466 31.7866 31.7866 31.7866C31.8337 28.3488 31.7863 24.9355 31.6444 21.5466C31.7567 20.5552 31.8041 19.5596 31.7866 18.5599C31.7866 12.4444 31.7866 6.32883 31.7866 0.213277C31.7866 0.165871 31.7866 0.118463 31.7866 0.0710552C31.7866 0.0236479 31.7866 -0.0237596 31.7866 -0.071167Z"
            fill="#ADC765" />
    </g>
    <defs>
        <clipPath id="clip0_787_189">
            <rect width="32" height="32" fill="white" />
        </clipPath>
    </defs>
</svg>