<svg width="32" height="32" viewBox="0 0 33 32" fill="none" xmlns="http://www.w3.org/2000/svg">
    <path
        d="M21.3628 0.00146484V31.9979H32.8721C32.8738 27.8004 32.5774 23.6432 31.9999 19.7635C31.4224 15.8838 30.5751 12.3577 29.5063 9.38647C28.4376 6.41528 27.1683 4.05722 25.771 2.44693C24.3738 0.836637 22.8758 0.00566438 21.3628 0.00146484ZM26.4888 21.5795C26.2782 21.5802 26.0722 21.4076 25.897 21.0836C25.7217 20.7595 25.585 20.2986 25.5042 19.759C25.4233 19.2195 25.402 18.6255 25.4428 18.0523C25.4837 17.4791 25.5849 16.9523 25.7337 16.5387C25.8824 16.125 26.0721 15.843 26.2786 15.7283C26.4851 15.6136 26.6992 15.6714 26.8939 15.8944C27.0886 16.1173 27.2551 16.4954 27.3723 16.9809C27.4895 17.4663 27.5523 18.0373 27.5525 18.6216C27.5529 19.4042 27.4413 20.1553 27.2422 20.7098C27.0432 21.2644 26.7729 21.5772 26.4908 21.5795H26.4888Z"
        fill="black" />
    <path
        d="M9.85736 31.9945H21.3653V-0.00195312C19.8523 0.00224617 18.3545 0.833237 16.9573 2.44357C15.5601 4.0539 14.2909 6.41203 13.2223 9.38327C12.1536 12.3545 11.3065 15.8807 10.7291 19.7603C10.1517 23.64 9.85551 27.7972 9.85736 31.9945ZM0.874573 9.86717V31.9945H8.83217C8.83335 29.0916 8.62838 26.2165 8.22895 23.5334C7.82953 20.8503 7.24346 18.4118 6.50426 16.3572C5.76507 14.3025 4.88721 12.672 3.92082 11.5587C2.95444 10.4455 1.91846 9.87128 0.87207 9.86895L0.874573 9.86717Z"
        fill="url(#paint0_linear_799_90)" />
    <defs>
        <linearGradient id="paint0_linear_799_90" x1="0.87207" y1="15.9963" x2="21.3653"
            y2="15.9963" gradientUnits="userSpaceOnUse">
            <stop stop-color="#50DCDE" />
            <stop offset="0.269" stop-color="#5BB5DE" />
            <stop offset="1" stop-color="#7850DE" />
        </linearGradient>
    </defs>
</svg>