<svg width="32" height="32" viewBox="0 0 32 32" fill="none" xmlns="http://www.w3.org/2000/svg">
    <path opacity="0.945" fill-rule="evenodd" clip-rule="evenodd"
        d="M-0.5 -0.5C4.5858 -0.5 9.67158 -0.5 14.7574 -0.5C17.3772 1.26403 18.975 5.69847 19.5506 12.8034C20.1087 5.86527 21.6614 1.43082 24.2089 -0.5C25.019 -0.5 25.8291 -0.5 26.6392 -0.5C29.5936 1.78593 31.2139 7.05934 31.5 15.3202C31.1493 25.063 29.1466 30.4563 25.4916 31.5C22.2539 30.7867 20.2737 26.2324 19.5506 17.8371C19.0172 24.7709 17.4644 29.1454 14.8924 30.9607C12.7776 31.1404 10.6622 31.2004 8.54641 31.1404C8.54641 22.5112 8.54641 13.882 8.54641 5.25281C7.42124 5.25281 6.29606 5.25281 5.17089 5.25281C5.17089 14.0019 5.17089 22.7509 5.17089 31.5C4.45078 31.5 3.73066 31.5 3.01055 31.5C3.01055 22.7509 3.01055 14.0019 3.01055 5.25281C1.84036 5.25281 0.670183 5.25281 -0.5 5.25281C-0.5 3.33522 -0.5 1.4176 -0.5 -0.5ZM10.7068 5.25281C12.0127 5.19294 13.3179 5.25288 14.6224 5.43258C16.4073 7.01094 17.3525 10.3068 17.4578 15.3202C17.319 20.4358 16.3289 23.7317 14.4873 25.2079C13.228 25.3876 11.9678 25.4475 10.7068 25.3876C10.7068 18.676 10.7068 11.9644 10.7068 5.25281ZM25.424 9.56742C25.1176 7.43744 24.5325 6.47862 23.6688 6.69101C24.785 4.98351 25.9552 4.80373 27.1793 6.15169C27.2243 6.27152 27.2694 6.3914 27.3143 6.51124C26.4363 6.53781 25.8062 7.55652 25.424 9.56742ZM22.1835 10.6461C22.2215 12.7743 22.5815 14.3324 23.2637 15.3202C22.5292 16.2315 22.1691 17.7895 22.1835 19.9944C21.464 16.8847 21.464 13.7686 22.1835 10.6461ZM28.7996 19.9944C28.7457 17.9057 28.3857 16.3476 27.7194 15.3202C28.3856 14.313 28.7683 12.7549 28.8671 10.6461C29.5091 13.8404 29.4866 16.9565 28.7996 19.9944ZM25.424 12.4438C25.6491 13.7622 26.0091 14.721 26.5042 15.3202C26.0053 15.9295 25.6453 16.8883 25.424 18.1966C25.2512 16.8979 24.9361 15.9391 24.4789 15.3202C24.9866 14.8076 25.3016 13.8488 25.424 12.4438ZM25.424 21.073C25.8002 23.134 26.4302 24.0928 27.3143 23.9494C26.7879 25.0348 26.1803 25.5142 25.4916 25.3876C24.763 25.4879 24.1104 25.0085 23.5338 23.9494C24.4642 24.2717 25.0943 23.3129 25.424 21.073Z"
        fill="#7D4EBF" />
    <path opacity="0.94" fill-rule="evenodd" clip-rule="evenodd"
        d="M23.6688 6.691C24.5325 6.47861 25.1175 7.43742 25.424 9.5674C25.424 10.5262 25.424 11.485 25.424 12.4438C25.3016 13.8487 24.9866 14.8076 24.4789 15.3202C24.0738 15.3202 23.6688 15.3202 23.2637 15.3202C22.5814 14.3323 22.2215 12.7743 22.1835 10.6461C22.3635 8.48875 22.8586 7.17038 23.6688 6.691Z"
        fill="#E4DBF1" />
    <path opacity="0.938" fill-rule="evenodd" clip-rule="evenodd"
        d="M23.2637 15.3202C23.6688 15.3202 24.0738 15.3202 24.4789 15.3202C24.9361 15.9391 25.2512 16.8979 25.424 18.1966C25.424 19.1554 25.424 20.1142 25.424 21.073C25.0943 23.3129 24.4642 24.2717 23.5337 23.9494C22.8038 23.3236 22.3538 22.0052 22.1835 19.9943C22.1691 17.7895 22.5292 16.2315 23.2637 15.3202Z"
        fill="#CAB7E4" />
    <path opacity="0.941" fill-rule="evenodd" clip-rule="evenodd"
        d="M26.5042 15.3202C26.9093 15.3202 27.3144 15.3202 27.7194 15.3202C28.3858 16.3476 28.7457 17.9056 28.7996 19.9943C28.5748 22.0297 28.0797 23.348 27.3144 23.9494C26.4302 24.0928 25.8002 23.134 25.4241 21.073C25.4241 20.1142 25.4241 19.1554 25.4241 18.1966C25.6454 16.8883 26.0053 15.9295 26.5042 15.3202Z"
        fill="#A484D3" />
</svg>