<svg width="32" height="32" viewBox="0 0 32 32" fill="none" xmlns="http://www.w3.org/2000/svg">
<mask id="mask0_4851_26" style="mask-type:luminance" maskUnits="userSpaceOnUse" x="2" y="12" width="28" height="8">
<path d="M29.6 12.5333H2.39999V19.2H29.6V12.5333Z" fill="white"/>
</mask>
<g mask="url(#mask0_4851_26)">
<path d="M28.9571 16.5748L27.72 14.7112L27.7192 14.7101C27.5173 14.3985 27.4147 14.0889 27.4147 13.7898C27.4147 13.5694 27.4696 13.3699 27.5688 13.2278C27.6795 13.069 27.8392 12.9885 28.0429 12.9885C28.2 12.9885 28.3376 13.0326 28.4509 13.1192C28.5573 13.2005 28.6459 13.3205 28.7141 13.476L28.728 13.5076C28.7349 13.5236 28.7485 13.5359 28.7653 13.5413C28.7821 13.5467 28.8005 13.5447 28.816 13.536L28.8459 13.5188L29.1037 13.3701L29.1043 13.3698L29.1315 13.3541C29.1456 13.3458 29.156 13.3322 29.16 13.3165C29.164 13.3008 29.1613 13.2841 29.1528 13.2702L29.1371 13.2448L29.1365 13.244C28.9139 12.8827 28.5256 12.6839 28.0429 12.6839C27.6923 12.6839 27.3757 12.8001 27.1512 13.011C26.9261 13.2226 26.8021 13.5209 26.8021 13.8513C26.8021 14.2701 26.8987 14.5807 27.1461 14.9593C27.1467 14.96 27.1469 14.9606 27.1475 14.9613L28.3827 16.8306L28.3837 16.8327C28.6429 17.219 28.7691 17.5632 28.7691 17.8849C28.7691 18.1589 28.7096 18.388 28.5973 18.5472C28.4752 18.7206 28.2915 18.8087 28.0517 18.8087C27.812 18.8087 27.6157 18.7197 27.4816 18.5443C27.3581 18.3826 27.2901 18.1485 27.2901 17.8848V17.6795C27.2901 17.646 27.2624 17.6188 27.2283 17.6188H26.7128C26.6787 17.6188 26.6511 17.646 26.6511 17.6795V17.9285C26.6511 18.6041 27.2533 19.1133 28.052 19.1133C28.4488 19.1133 28.7875 18.9894 29.0312 18.7549C29.272 18.5226 29.3995 18.2036 29.3995 17.8322C29.3995 17.4343 29.2547 17.023 28.9573 16.575L28.9571 16.5748Z" fill="black"/>
<path fill-rule="evenodd" clip-rule="evenodd" d="M13.9553 18.909L13.9888 18.9558C14.0022 18.9744 14.0038 18.9987 13.9932 19.0188C13.9825 19.039 13.9614 19.0516 13.9383 19.0516H13.2185C13.1979 19.0516 13.1787 19.0416 13.1672 19.0247C13.1558 19.0079 13.1536 18.9865 13.1614 18.9678L13.1789 18.9257C13.2341 18.7939 13.2324 18.7074 13.2095 18.5947C13.2093 18.5939 13.2092 18.5931 13.209 18.5923L13.209 18.592L12.9826 17.3806H11.5266L11.389 18.1367V18.1371L11.3845 18.1618C11.3793 18.1908 11.3536 18.2119 11.3237 18.2119H11.1366C11.1182 18.2119 11.101 18.204 11.0892 18.1903C11.0774 18.1764 11.0725 18.1582 11.0757 18.1406L11.0822 18.105L11.9365 13.3454L11.9368 13.3441C11.9589 13.2181 11.9656 13.1396 11.96 13.0734C11.9546 13.0105 11.9373 12.9531 11.8995 12.8751V12.8747L11.8787 12.8317C11.8696 12.8129 11.871 12.7908 11.8824 12.7732C11.8937 12.7555 11.9134 12.7449 11.9346 12.7449H12.3928C12.5859 12.7449 12.7581 12.8922 12.7948 13.0882C12.7951 13.089 12.7953 13.0898 12.7954 13.0906L13.8276 18.5585L13.8277 18.5592L13.828 18.5607L13.8305 18.5758C13.8468 18.6732 13.8653 18.7837 13.9547 18.9081L13.9553 18.909ZM12.2429 13.464L11.5868 17.0759H12.9221L12.2429 13.464Z" fill="black"/>
<path d="M2.46174 12.745H5.01543C5.04954 12.745 5.07719 12.7722 5.07719 12.8057V12.9891C5.07719 13.0226 5.04954 13.0498 5.01543 13.0498H4.04501V18.5847C4.04501 18.6512 4.04711 18.6991 4.05751 18.7473C4.06831 18.7975 4.08893 18.8508 4.12431 18.9203L4.14661 18.9643C4.15615 18.9831 4.15503 19.0054 4.14381 19.0234C4.13258 19.0412 4.11266 19.0521 4.09133 19.0521H3.38613C3.36466 19.0521 3.34474 19.0412 3.33351 19.0232C3.32229 19.0053 3.3213 18.9829 3.33085 18.964L3.35317 18.92C3.38853 18.8506 3.40901 18.7974 3.41981 18.7473C3.43021 18.699 3.43231 18.6511 3.43231 18.5846V13.0497H2.46174C2.42764 13.0497 2.39999 13.0225 2.39999 12.989V12.8057C2.39999 12.7722 2.42764 12.745 2.46174 12.745Z" fill="black"/>
<path d="M20.2934 12.8769C20.3289 12.9467 20.3495 13 20.3602 13.0498C20.3706 13.098 20.3727 13.146 20.3727 13.2123V17.7312C20.3727 17.7647 20.4003 17.7919 20.4344 17.7919H22.4007C22.4348 17.7919 22.4624 17.7647 22.4624 17.7312V17.5481C22.4624 17.5146 22.4348 17.4874 22.4007 17.4874H20.9853V14.9484H22.4007C22.4348 14.9484 22.4624 14.9212 22.4624 14.8877V14.7046C22.4624 14.671 22.4348 14.6438 22.4007 14.6438H20.9853V13.0498H22.4007C22.4348 13.0498 22.4624 13.0226 22.4624 12.9891V12.8059C22.4624 12.7723 22.4348 12.7451 22.4007 12.7451H20.3264C20.3049 12.7451 20.2851 12.7561 20.2738 12.774C20.2625 12.7919 20.2614 12.8143 20.2711 12.833L20.2934 12.8769Z" fill="black"/>
<path fill-rule="evenodd" clip-rule="evenodd" d="M22.6874 18.6039L22.7586 18.7091L22.7757 18.7349C22.7847 18.7484 22.788 18.7649 22.7847 18.7808C22.7813 18.7967 22.7718 18.8106 22.7579 18.8194L22.7316 18.8361L22.7311 18.8364L22.7306 18.8367C22.3971 19.0492 21.9881 19.1569 21.5153 19.1569C21.0046 19.1569 20.6012 19.0686 20.2453 18.8791C19.9015 18.696 19.5915 18.4112 19.2694 17.9829V17.9826C19.1038 17.7634 18.9679 17.5645 18.8481 17.389L18.8139 17.3389C18.6897 17.1572 18.5777 16.9965 18.4661 16.869C18.3508 16.7374 18.2418 16.6491 18.1238 16.5914C17.9998 16.5307 17.862 16.5006 17.6924 16.4974V18.9912C17.6924 19.0248 17.6648 19.0519 17.6307 19.0519H17.1418C17.1077 19.0519 17.08 19.0248 17.08 18.9912V13.2124C17.08 13.1459 17.0779 13.098 17.0675 13.0498C17.0569 13 17.0362 12.9468 17.0007 12.8769L16.9784 12.8329C16.9687 12.8141 16.9698 12.7918 16.9811 12.7739C16.9924 12.7559 17.0122 12.745 17.0337 12.745H17.858C18.391 12.745 18.8348 12.9199 19.1413 13.2506C19.4452 13.5787 19.6059 14.0526 19.6059 14.6211C19.6059 15.4717 19.1997 16.121 18.5283 16.3756C18.991 16.6067 19.3452 17.0536 19.8008 17.6722L19.8021 17.6738C20.3279 18.3905 20.8085 18.8346 21.5779 18.8346C21.9961 18.8346 22.2893 18.7582 22.5583 18.5789H22.5586L22.584 18.562C22.5976 18.5529 22.6142 18.5496 22.6304 18.5526C22.6466 18.5556 22.6609 18.565 22.67 18.5784L22.6871 18.6035L22.6874 18.6039ZM17.7511 13.0498H17.6924V16.1924H17.751C18.1502 16.1924 18.4557 16.0523 18.6592 15.7761C18.8572 15.5076 18.9575 15.1432 18.9575 14.6211C18.9575 14.099 18.8706 13.7205 18.6913 13.4642C18.4967 13.1853 18.1891 13.0498 17.7511 13.0498Z" fill="black"/>
<path d="M25.5704 12.745H26.0596C26.0937 12.745 26.1213 12.7722 26.1213 12.8057V17.797C26.1213 18.1838 25.9954 18.512 25.7571 18.7463C25.5129 18.9863 25.1637 19.1131 24.7471 19.1131C24.2645 19.1131 23.8761 18.9142 23.6534 18.553L23.6371 18.5267C23.6285 18.5127 23.6258 18.496 23.6299 18.4803C23.634 18.4646 23.6442 18.4511 23.6585 18.4428L23.6856 18.427L23.6862 18.4268L23.9739 18.2609C23.9892 18.2521 24.0076 18.2501 24.0244 18.2555C24.0412 18.2609 24.0549 18.2732 24.0619 18.2892L24.0752 18.3197L24.0754 18.3203L24.0756 18.3208C24.1441 18.4766 24.2328 18.5966 24.3389 18.6777C24.4524 18.7644 24.5898 18.8084 24.747 18.8084C25.023 18.8084 25.2195 18.7033 25.3476 18.4872C25.4529 18.3096 25.5086 18.0557 25.5086 17.7533V12.8057C25.5086 12.7722 25.5362 12.745 25.5704 12.745Z" fill="black"/>
<path d="M12.0405 18.776L11.9694 18.6798L11.9521 18.6562C11.9326 18.6299 11.8954 18.6234 11.8678 18.6415L11.8438 18.6572L11.8432 18.6576C11.7498 18.7189 11.6529 18.7473 11.5386 18.7473H9.5845V15.7359H11.0712C11.1053 15.7359 11.133 15.7088 11.133 15.6752V15.492C11.133 15.4585 11.1053 15.4313 11.0712 15.4313H9.5845V13.0498H11.0712C11.1053 13.0498 11.133 13.0226 11.133 12.9891V12.8057C11.133 12.7722 11.1053 12.745 11.0712 12.745H8.92576C8.90429 12.745 8.8845 12.7559 8.87314 12.7739C8.86178 12.7918 8.8608 12.8141 8.87048 12.8329L8.89266 12.8765V12.8769C8.92829 12.9468 8.94893 13 8.9596 13.0497C8.96997 13.098 8.97194 13.146 8.97194 13.2124V18.9912C8.97194 19.0248 8.9996 19.0519 9.03368 19.0519H11.5742C11.7521 19.0519 11.8865 19.0068 12.0231 18.9013L12.0464 18.8831C12.0725 18.8629 12.0777 18.8259 12.0581 18.7996L12.0405 18.776Z" fill="black"/>
<path d="M22.8596 18.742C22.8596 18.5519 23.0169 18.3972 23.2103 18.3972C23.4038 18.3972 23.5611 18.5517 23.5611 18.742C23.5611 18.9323 23.4037 19.087 23.2103 19.087C23.0169 19.087 22.8596 18.9321 22.8596 18.742Z" fill="black"/>
<path d="M8.2158 18.92C8.18044 18.8506 8.15993 18.7972 8.149 18.7473C8.1386 18.699 8.13665 18.651 8.13665 18.5846V12.8057C8.13665 12.7722 8.109 12.745 8.07489 12.745H7.58596C7.55188 12.745 7.52422 12.7722 7.52422 12.8057V16.1924H6.03665V12.8057C6.03665 12.7722 6.009 12.745 5.97492 12.745H5.48598C5.45188 12.745 5.42422 12.7722 5.42422 12.8057V18.9912C5.42422 19.0248 5.45188 19.0519 5.48598 19.0519H5.97492C6.009 19.0519 6.03665 19.0248 6.03665 18.9912V16.4972H7.52422V18.9912C7.52422 19.0248 7.55188 19.0519 7.58596 19.0519H8.18294C8.20444 19.0519 8.22422 19.041 8.23558 19.0231C8.24681 19.0052 8.24793 18.9828 8.23825 18.9639L8.2158 18.92Z" fill="black"/>
<path d="M14.029 12.745H16.5826C16.6167 12.745 16.6444 12.7722 16.6444 12.8057V12.9891C16.6444 13.0226 16.6167 13.0498 16.5826 13.0498H15.6121V18.5846C15.6121 18.651 15.6142 18.699 15.6246 18.7471C15.6354 18.7972 15.656 18.8505 15.6914 18.9199L15.6916 18.9204L15.7137 18.964C15.7232 18.9828 15.7221 19.0052 15.7109 19.0231C15.6996 19.0409 15.6797 19.0518 15.6584 19.0518H14.9532C14.9317 19.0518 14.9118 19.0409 14.9006 19.0229C14.8894 19.0052 14.8884 18.9828 14.8979 18.9639L14.9202 18.9199C14.9556 18.8505 14.9762 18.7974 14.9869 18.7473C14.9973 18.699 14.9994 18.6511 14.9994 18.5846V13.0497H14.029C13.9948 13.0497 13.9672 13.0225 13.9672 12.989V12.8057C13.9672 12.7722 13.9948 12.745 14.029 12.745Z" fill="black"/>
</g>
</svg>
