<svg width="32" height="32" viewBox="0 0 32 33" fill="none" xmlns="http://www.w3.org/2000/svg">
    <path
        d="M26.0923 0.18528C25.8462 0.000785717 25.5179 0.000785717 25.3538 0.18528L24.041 1.66124C23.959 1.75349 23.8769 1.93798 23.8769 2.12247C23.8769 2.30697 23.959 2.49146 24.1231 2.58371C27.241 5.35113 29.0462 9.59451 29.0462 14.0224C29.0462 22.0479 23.2205 28.6897 16 28.6897C8.86154 28.6897 2.95385 22.1402 2.95385 14.0224C2.95385 9.59451 4.75897 5.35113 7.87692 2.58371C7.95897 2.49146 8.04103 2.30697 8.12308 2.12247C8.12308 1.93798 8.04103 1.75349 7.95897 1.66124L6.5641 0.18528C6.4 0.000785717 6.07179 -0.0914617 5.82564 0.18528C2.13333 3.59843 0 8.67204 0 14.0224C0 23.8929 7.13846 32.0106 16 32.0106C24.7795 32.0106 32 23.9851 32 14.0224C31.9179 8.67204 29.7846 3.59843 26.0923 0.18528Z"
        fill="#3C43BF" />
    <path
        d="M16 25.1843C18.5436 25.1843 20.9231 24.0773 22.8103 22.1401C22.8923 22.0479 22.9744 21.8634 22.9744 21.6789C22.9744 21.4944 22.8923 21.3099 22.8103 21.2177L21.4974 19.7417C21.2513 19.465 20.9231 19.465 20.759 19.7417C19.4462 21.1254 17.7231 21.8634 16 21.8634C12.1436 21.8634 8.94359 18.358 8.94359 13.9301C8.94359 9.59449 12.0615 5.99685 16 5.99685C17.7231 5.99685 19.4462 6.73483 20.759 8.11854C21.0051 8.30303 21.3333 8.30303 21.4974 8.11854L22.8103 6.64258C22.8923 6.64258 22.9744 6.55033 22.9744 6.36584C22.9744 6.18134 22.8923 5.99685 22.8103 5.9046C20.9231 3.87516 18.4615 2.76819 16 2.76819C10.5026 2.76819 5.98975 7.84179 5.98975 14.0224C5.98975 20.2029 10.5026 25.1843 16 25.1843Z"
        fill="#3C43BF" />
</svg>