<svg width="32" height="32" viewBox="0 0 32 32" fill="none" xmlns="http://www.w3.org/2000/svg">
<g clip-path="url(#clip0_5786_9)">
<path d="M32 0H0V32H32V0Z" fill="url(#paint0_linear_5786_9)"/>
<path d="M24.716 14.0552L22.5354 14.8834C22.4438 14.9168 22.3549 14.8278 22.3938 14.7361L24.8244 8.8357C24.8605 8.74675 24.7743 8.65505 24.6855 8.68841L20.066 10.306C19.9771 10.3365 19.9048 10.406 19.8687 10.4949L16.7381 18.3965C16.6992 18.4965 16.7965 18.5966 16.8965 18.5604L18.852 17.8434C18.9604 17.8045 19.0604 17.9212 19.0021 18.0241L16.1298 22.9017C16.0687 23.0073 15.9131 23.0073 15.852 22.9017L12.9797 18.0213C12.9214 17.9212 13.0186 17.8017 13.1298 17.8406L15.0853 18.5577C15.1853 18.5938 15.2826 18.4937 15.2437 18.3937L12.1103 10.4949C12.0742 10.406 12.0047 10.3393 11.9131 10.306L7.29912 8.68841C7.20744 8.65783 7.1241 8.74675 7.16021 8.8357L9.58804 14.7361C9.62415 14.8251 9.53527 14.9168 9.44635 14.8834L7.27965 14.0552C7.16854 14.0135 7.06854 14.133 7.12967 14.2359L13.5797 24.9195C13.6437 25.0251 13.7575 25.089 13.8825 25.089H18.1104C18.2326 25.089 18.3493 25.0251 18.4132 24.9195L24.8743 14.2359C24.9271 14.133 24.8271 14.0135 24.716 14.0552Z" fill="white"/>
</g>
<defs>
<linearGradient id="paint0_linear_5786_9" x1="12.9148" y1="-1.15665e-06" x2="33.9724" y2="5.28803" gradientUnits="userSpaceOnUse">
<stop stop-color="#7735E8"/>
<stop offset="1" stop-color="#C62CF1"/>
</linearGradient>
<clipPath id="clip0_5786_9">
<rect width="32" height="32" fill="white"/>
</clipPath>
</defs>
</svg>
