<svg width="32" height="32" viewBox="0 0 33 32" fill="none" xmlns="http://www.w3.org/2000/svg">
    <path fill-rule="evenodd" clip-rule="evenodd"
        d="M15.4384 24.0683C11.633 24.0683 8.54957 20.9275 8.54957 17.0561C8.54957 13.1847 11.6345 10.0454 15.4384 10.0454C18.3062 10.0454 20.7656 11.8313 21.8026 14.368H26.3895C26.3008 13.9996 26.2029 13.6327 26.0821 13.2784L28.7189 10.8322L27.4235 8.47499L23.9011 9.48187C23.5905 9.12457 23.2595 8.78628 22.9099 8.46875L23.9913 5.05317L21.7154 3.66539L19.0235 6.17869C18.5723 6.02414 18.1073 5.89926 17.6317 5.80403L16.8042 2.30884L14.1521 2.25732L13.239 5.8056C12.7465 5.90496 12.261 6.03795 11.786 6.20366L9.2929 3.55612L6.96501 4.85335L7.93318 8.50153C7.59997 8.80571 7.28436 9.12939 6.98795 9.47095L3.46554 8.47343L2.0783 10.776L4.74725 13.4251C4.59889 13.8731 4.47959 14.3352 4.38782 14.8066L0.94647 15.7714L0.869995 18.4704L4.41688 19.4554C4.52089 19.955 4.65854 20.442 4.82372 20.915L2.10583 23.3237L3.35695 25.7043L7.02619 24.6928C7.31226 25.017 7.61502 25.3255 7.93318 25.6169L7.08278 29.3587L9.34184 30.6513L12.0139 27.9913C12.4176 28.1224 12.8352 28.2317 13.2589 28.316L14.0986 32H16.7522L17.6256 28.316C18.1104 28.2192 18.5861 28.0896 19.0465 27.9319L21.5043 30.6216L23.8062 29.2807L22.8335 25.7199C23.2036 25.3921 23.5508 25.0409 23.8735 24.6678L27.295 25.7168L28.6363 23.3877L26.492 21.2382H20.9721C19.7164 22.9569 17.7051 24.0715 15.4399 24.0715L15.4384 24.0683Z"
        fill="#8ABD56" />
    <path fill-rule="evenodd" clip-rule="evenodd"
        d="M23.3306 5.05781C20.8589 5.05781 18.8553 7.09654 18.8553 9.61296C18.8553 12.1294 20.8589 14.1681 23.3306 14.1681C25.8022 14.1681 27.8059 12.1294 27.8059 9.61296C27.8059 7.09654 25.8022 5.05781 23.3306 5.05781ZM30.5008 11.1256C30.4366 11.4456 30.3509 11.7594 30.2469 12.0638L31.9049 13.7216L31.0331 15.2359L28.8123 14.5552C28.6015 14.7977 28.3751 15.0256 28.1347 15.2374L28.7679 17.5509L27.2721 18.422L25.6722 16.6736C25.374 16.7766 25.0666 16.8609 24.7515 16.9234L24.1825 19.318H22.4588L21.9127 16.9234C21.6359 16.8687 21.3667 16.7985 21.1036 16.7126L19.3677 18.4423L17.8994 17.6024L18.453 15.1703C18.2458 14.982 18.0492 14.7818 17.8642 14.5709L15.4797 15.2296L14.666 13.6811L16.431 12.1169C16.324 11.8094 16.2353 11.4925 16.168 11.1678L13.863 10.5293L13.912 8.77623L16.1481 8.15025C16.2077 7.84429 16.2857 7.54456 16.3821 7.25265L14.6492 5.53237L15.5501 4.03688L17.8382 4.68472C18.0294 4.46305 18.2359 4.25231 18.453 4.05561L17.8229 1.68438L19.3355 0.842968L20.9538 2.56325C21.263 2.45608 21.5787 2.36952 21.899 2.30411L22.4924 0L24.2162 0.0343431L24.7515 2.30411C25.0604 2.36655 25.3617 2.44773 25.6554 2.5492L27.4051 0.916338L28.8826 1.81863L28.1791 4.03688C28.407 4.24294 28.6226 4.46305 28.8245 4.69564L31.1126 4.04156L31.9538 5.57139L30.2408 7.16055C30.3586 7.51022 30.4534 7.86926 30.5238 8.24079L32.87 8.8418L32.8516 10.5964L30.4962 11.1272L30.5008 11.1256Z"
        fill="#C3C7CC" />
</svg>