<svg width="32" height="32" viewBox="0 0 32 32" fill="none" xmlns="http://www.w3.org/2000/svg">
<path d="M1.5439 29.3983C1.7839 29.3983 25.6239 29.3983 25.9039 29.3983C26.2239 29.3983 26.5439 29.1583 26.6239 28.8783C26.6639 28.7583 31.3839 4.59832 31.4239 4.27832C31.4639 3.99832 31.3439 3.59832 30.9039 3.43832C29.6639 3.07832 19.6639 0.598315 10.0639 8.67832C-0.136104 17.3183 0.823896 28.5183 0.823896 28.7183C0.823896 28.9583 1.0239 29.3983 1.5439 29.3983Z" fill="#A8360B"/>
<path d="M2.18408 27.9982H25.3441C25.9841 24.6382 29.2641 8.03824 29.9041 4.63824C29.1041 4.47824 27.6241 4.19824 25.7041 4.19824C22.0241 4.19824 16.4641 5.15824 11.0241 9.75824C2.86408 16.6382 2.18408 25.2782 2.18408 27.9982Z" fill="url(#paint0_linear_5930_27)"/>
<path d="M18.8641 16.7182C18.6641 16.3982 18.3441 16.1982 17.9441 16.1982C17.6241 16.1982 17.3441 16.3182 17.1841 16.5182L13.9441 20.3182L11.2241 15.1582C11.0641 14.7982 10.7041 14.5582 10.2641 14.5582C9.66408 14.5582 9.18408 15.0382 9.18408 15.6382C9.18408 15.8382 9.22408 15.9982 9.30408 16.1582L12.7841 22.8782C12.9841 23.1982 13.3041 23.4382 13.7041 23.4382C14.0241 23.4382 14.3441 23.2782 14.5441 23.0382L17.7441 19.2782L21.3441 25.8382C21.5041 26.1982 21.8641 26.4382 22.3041 26.4382C22.7841 26.4382 23.2241 26.1182 23.3441 25.6382L27.3441 6.75823C27.3441 6.67823 27.3841 6.59823 27.3841 6.51823C27.3841 5.91823 26.9041 5.43823 26.3041 5.43823C25.7841 5.43823 25.3441 5.79823 25.2641 6.31823L21.9041 22.2782L18.8641 16.7182Z" fill="white"/>
<defs>
<linearGradient id="paint0_linear_5930_27" x1="13.044" y1="30.3066" x2="18.9929" y2="2.319" gradientUnits="userSpaceOnUse">
<stop offset="0.2606" stop-color="#C45918"/>
<stop offset="0.5697" stop-color="#E65C09"/>
<stop offset="0.8667" stop-color="#BE5719"/>
</linearGradient>
</defs>
</svg>
