<svg width="32" height="32" viewBox="0 0 33 33" fill="none" xmlns="http://www.w3.org/2000/svg">
    <path fill-rule="evenodd" clip-rule="evenodd"
        d="M15.5044 0.5C16.0852 0.5 16.6659 0.5 17.2467 0.5C22.1533 0.848302 26.1414 2.93423 29.2111 6.75778C30.793 8.84165 31.8063 11.1765 32.2511 13.7622C32.2534 13.8663 32.2771 13.9612 32.3222 14.0467C32.3788 14.4114 32.4144 14.7788 32.4289 15.1489C32.423 15.3862 32.4289 15.6233 32.4467 15.86C32.4541 15.9154 32.4719 15.9628 32.5 16.0022C32.5 16.3815 32.5 16.7607 32.5 17.14C32.4738 17.6233 32.4264 18.1092 32.3578 18.5978C32.3215 18.7571 32.2978 18.923 32.2867 19.0956C32.0906 20.1879 31.8062 21.2545 31.4333 22.2956C31.3833 22.3124 31.3596 22.3479 31.3622 22.4022C29.5927 26.6784 26.5646 29.6888 22.2778 31.4333C21.6872 31.6559 21.0887 31.8455 20.4822 32.0022C20.3852 31.9905 20.3022 32.0142 20.2333 32.0733C19.874 32.131 19.5184 32.2021 19.1667 32.2867C18.8697 32.3075 18.5735 32.3371 18.2778 32.3756C18.2452 32.3854 18.2215 32.4032 18.2067 32.4289C17.8449 32.4409 17.4894 32.4647 17.14 32.5C16.6778 32.5 16.2156 32.5 15.7533 32.5C15.51 32.4709 15.2611 32.4472 15.0067 32.4289C14.8495 32.3766 14.6836 32.3529 14.5089 32.3578C14.3921 32.3326 14.2735 32.3208 14.1533 32.3222C13.697 32.2655 13.2466 32.1826 12.8022 32.0733C12.7306 32.0227 12.6476 31.999 12.5533 32.0022C7.92667 30.7356 4.48368 27.986 2.22444 23.7533C1.90287 23.0751 1.6125 22.3878 1.35333 21.6911C1.35655 21.5968 1.33285 21.5139 1.28222 21.4422C1.03674 20.6499 0.847107 19.844 0.713333 19.0244C0.700857 18.8757 0.677153 18.7335 0.642222 18.5978C0.600133 18.2145 0.552726 17.8352 0.5 17.46C0.5 17.0452 0.5 16.6304 0.5 16.2156C0.558964 15.8677 0.582668 15.5122 0.571111 15.1489C0.571111 15.0778 0.571111 15.0067 0.571111 14.9356C0.625541 14.7667 0.649245 14.5889 0.642222 14.4022C0.670991 14.3385 0.688769 14.2674 0.695556 14.1889C0.71882 14.2314 0.736598 14.2314 0.748889 14.1889C0.717806 14.109 0.705954 14.026 0.713333 13.94C0.752126 13.6648 0.799533 13.3922 0.855556 13.1222C0.910293 13.0391 0.933998 12.9443 0.926667 12.8378C1.46242 10.593 2.42835 8.55451 3.82444 6.72222C6.41307 3.44324 9.77307 1.44027 13.9044 0.713333C14.0662 0.708908 14.2202 0.685205 14.3667 0.642222C14.7508 0.599171 15.1301 0.551763 15.5044 0.5Z"
        fill="#103426" />
    <path fill-rule="evenodd" clip-rule="evenodd"
        d="M14.3666 0.642086C14.2202 0.685068 14.0662 0.708772 13.9044 0.713197C14.049 0.657951 14.2031 0.634248 14.3666 0.642086Z"
        fill="#778C85" />
    <path fill-rule="evenodd" clip-rule="evenodd"
        d="M10.4556 8.00209C13.934 7.96063 17.4185 7.95473 20.9089 7.98431C20.9529 7.99256 20.9884 8.01034 21.0156 8.03764C20.9682 8.03764 20.9207 8.03764 20.8733 8.03764C17.4067 8.00212 13.9341 7.99025 10.4556 8.00209Z"
        fill="#017C6A" />
    <path fill-rule="evenodd" clip-rule="evenodd"
        d="M10.4556 8.00199C13.9342 7.99015 17.4068 8.00203 20.8734 8.03755C17.3297 8.03161 13.786 8.03755 10.2423 8.05533C10.1278 8.1034 10.0093 8.13305 9.88672 8.14422C10.0565 8.03257 10.2461 7.98518 10.4556 8.00199Z"
        fill="#17BEA8" />
    <path fill-rule="evenodd" clip-rule="evenodd"
        d="M20.8733 8.03787C20.9207 8.03787 20.9681 8.03787 21.0155 8.03787C21.4135 8.15147 21.6861 8.40036 21.8333 8.78454C21.8632 9.03218 21.875 9.28107 21.8688 9.53121C21.7669 9.83471 21.5891 10.0895 21.3355 10.2956C20.6642 10.8267 20.0005 11.3659 19.3444 11.9134C19.3164 11.9235 19.2926 11.9413 19.2733 11.9668C20.7903 11.9845 22.3073 11.9905 23.8244 11.9845C24.5119 12.103 24.8912 12.506 24.9622 13.1934C24.9388 13.4301 24.8736 13.6553 24.7666 13.869C24.6185 14.0645 24.4466 14.2364 24.2511 14.3845C22.3244 15.9501 20.4044 17.5205 18.4911 19.0957C18.4103 19.1291 18.3392 19.1765 18.2777 19.2379C18.2584 19.24 18.2466 19.2518 18.2422 19.2734C19.6524 19.309 21.0627 19.3208 22.4733 19.309C22.7459 19.3624 23.0185 19.4335 23.2911 19.5223C23.8401 19.8045 24.2845 20.2074 24.6244 20.7312C24.9103 21.2862 25.0229 21.8788 24.9622 22.509C24.91 22.9264 24.7796 23.3175 24.5711 23.6823C24.1463 24.3444 23.5537 24.7711 22.7933 24.9623C19.084 24.9972 15.3744 25.009 11.6644 24.9979C11.3023 24.9147 11.0238 24.7132 10.8288 24.3934C10.6338 23.9221 10.6693 23.4718 10.9355 23.0423C11.7347 22.3737 12.5347 21.71 13.3355 21.0512C13.3926 21.0332 13.4045 21.0095 13.3711 20.9801C11.8837 20.9505 10.3904 20.9327 8.89107 20.9268C8.7801 20.9009 8.68531 20.8476 8.60663 20.7668C8.56304 20.7974 8.51561 20.7974 8.46441 20.7668C8.01694 20.4287 7.8451 19.9783 7.94885 19.4157C8.00417 19.2457 8.08713 19.0916 8.19774 18.9534C9.74643 17.6548 11.3049 16.3689 12.8733 15.0956C13.271 14.9023 13.6384 14.9497 13.9755 15.2379C14.2769 15.6696 14.2532 16.0844 13.9044 16.4823C12.7799 17.3934 11.6658 18.3119 10.5622 19.2379C10.531 19.2332 10.5073 19.2451 10.4911 19.2734C12.1799 19.3208 13.8629 19.3208 15.54 19.2734C17.7458 17.4834 19.9502 15.6938 22.1533 13.9045C22.2205 13.8653 22.2797 13.8179 22.3311 13.7623C22.3504 13.7602 22.3622 13.7483 22.3666 13.7268C22.2869 13.6921 22.2039 13.6803 22.1177 13.6912C22.0327 13.666 21.9438 13.6422 21.8511 13.6201C21.7547 13.6708 21.6658 13.6589 21.5844 13.5845C17.7695 13.6259 13.9532 13.6319 10.1355 13.6023C10.0581 13.5596 9.97512 13.5418 9.88663 13.549C8.7459 13.1409 8.09406 12.335 7.93107 11.1312C7.93111 10.8462 7.94295 10.5617 7.96663 10.2779C8.15745 9.44061 8.61968 8.79471 9.35329 8.34009C9.52446 8.25441 9.70224 8.18923 9.88663 8.14454C10.0092 8.13337 10.1277 8.10372 10.2422 8.05565C13.7859 8.03787 17.3296 8.03193 20.8733 8.03787Z"
        fill="#01D0B8" />
    <path fill-rule="evenodd" clip-rule="evenodd"
        d="M21.8334 8.78467C21.9563 9.02922 21.9681 9.27811 21.8689 9.53133C21.8751 9.2812 21.8633 9.03231 21.8334 8.78467Z"
        fill="#10A48E" />
    <path fill-rule="evenodd" clip-rule="evenodd"
        d="M10.7045 9.70894C13.5903 9.67342 16.4822 9.66154 19.38 9.67338C19.3922 9.74389 19.3685 9.79132 19.3089 9.8156C19.3089 9.80376 19.3089 9.79189 19.3089 9.78005C19.3282 9.77791 19.3401 9.76607 19.3445 9.74449C16.4646 9.70894 13.5846 9.6971 10.7045 9.70894Z"
        fill="#12C1AC" />
    <path fill-rule="evenodd" clip-rule="evenodd"
        d="M10.5623 9.74458C10.6002 9.71138 10.6476 9.6995 10.7045 9.70903C13.5846 9.69719 16.4646 9.70903 19.3445 9.74458C19.3401 9.76617 19.3282 9.77801 19.3089 9.78014C16.3993 9.74462 13.4838 9.73274 10.5623 9.74458Z"
        fill="#028572" />
    <path fill-rule="evenodd" clip-rule="evenodd"
        d="M10.5622 9.74467C13.4837 9.73283 16.3993 9.7447 19.3089 9.78022C19.3089 9.79206 19.3089 9.80394 19.3089 9.81578C19.2047 9.87235 19.1098 9.94346 19.0244 10.0291C19.0495 9.92689 19.1087 9.84984 19.2022 9.798C16.3104 9.77429 13.4185 9.77429 10.5267 9.798C10.433 9.81304 10.356 9.85454 10.2956 9.92245C10.2717 9.89571 10.2421 9.88383 10.2067 9.88689C10.3144 9.81923 10.4329 9.7718 10.5622 9.74467Z"
        fill="#003E2F" />
    <path fill-rule="evenodd" clip-rule="evenodd"
        d="M19.0245 10.0287C18.2832 10.6301 17.5366 11.2227 16.7845 11.8065C16.7248 11.8204 16.6655 11.8382 16.6067 11.8598C16.647 11.8959 16.6352 11.9196 16.5712 11.9309C14.5327 11.9546 12.4941 11.9546 10.4556 11.9309C10.2617 11.8366 10.0839 11.724 9.92228 11.5931C9.77806 11.447 9.68917 11.2692 9.65561 11.0598C9.62613 10.8808 9.63207 10.7031 9.67339 10.5265C9.72274 10.3892 9.78791 10.2589 9.86894 10.1353C9.97785 10.0438 10.0904 9.96081 10.2067 9.88646C10.2421 9.8834 10.2718 9.89528 10.2956 9.92202C10.3561 9.85411 10.4331 9.81261 10.5267 9.79757C13.4186 9.77386 16.3104 9.77386 19.2023 9.79757C19.1088 9.84941 19.0496 9.92646 19.0245 10.0287Z"
        fill="#0F3426" />
    <path fill-rule="evenodd" clip-rule="evenodd"
        d="M7.96668 10.2778C7.943 10.5617 7.93116 10.8461 7.93112 11.1312C7.88173 10.8448 7.89357 10.5603 7.96668 10.2778Z"
        fill="#067F6A" />
    <path fill-rule="evenodd" clip-rule="evenodd"
        d="M9.92224 11.5933C10.0839 11.7241 10.2617 11.8367 10.4556 11.931C12.4941 11.9548 14.5326 11.9548 16.5711 11.931C16.6352 11.9198 16.647 11.8961 16.6067 11.8599C16.6655 11.8383 16.7248 11.8205 16.7845 11.8066C16.7326 11.8764 16.6733 11.9416 16.6067 12.0022C14.58 12.0259 12.5534 12.0259 10.5267 12.0022C10.2603 11.9526 10.0588 11.8163 9.92224 11.5933Z"
        fill="#014936" />
    <path fill-rule="evenodd" clip-rule="evenodd"
        d="M19.3444 11.9136C20.8378 11.9373 22.3311 11.961 23.8244 11.9847C22.3073 11.9906 20.7903 11.9847 19.2733 11.9669C19.2927 11.9414 19.3164 11.9236 19.3444 11.9136Z"
        fill="#004F3D" />
    <path fill-rule="evenodd" clip-rule="evenodd"
        d="M0.926702 12.8379C0.934033 12.9444 0.910329 13.0392 0.855591 13.1223C0.857907 13.0182 0.88161 12.9234 0.926702 12.8379Z"
        fill="#60736C" />
    <path fill-rule="evenodd" clip-rule="evenodd"
        d="M9.88672 13.5489C9.97522 13.5417 10.0582 13.5595 10.1356 13.6022C13.9533 13.6318 17.7696 13.6259 21.5845 13.5845C21.6659 13.6589 21.7548 13.6707 21.8512 13.62C21.9439 13.6422 22.0327 13.6659 22.1178 13.6911C18.1705 13.7026 14.2239 13.6908 10.2778 13.6556C10.1344 13.655 10.004 13.6194 9.88672 13.5489Z"
        fill="#1DCCB6" />
    <path fill-rule="evenodd" clip-rule="evenodd"
        d="M10.2778 13.6558C14.2239 13.691 18.1705 13.7028 22.1178 13.6913C22.204 13.6804 22.287 13.6922 22.3667 13.7269C22.3623 13.7485 22.3505 13.7603 22.3312 13.7624C18.3287 13.7386 14.3228 13.715 10.3134 13.6913C10.2897 13.6913 10.2778 13.6795 10.2778 13.6558Z"
        fill="#007460" />
    <path fill-rule="evenodd" clip-rule="evenodd"
        d="M10.3134 13.6909C14.3228 13.7146 18.3287 13.7382 22.3312 13.762C22.2798 13.8176 22.2206 13.865 22.1534 13.9043C22.1075 13.8697 22.1075 13.8341 22.1534 13.7976C18.1949 13.768 14.2364 13.7502 10.2778 13.7443C10.2976 13.7306 10.3094 13.7129 10.3134 13.6909Z"
        fill="#003827" />
    <path fill-rule="evenodd" clip-rule="evenodd"
        d="M32.2511 13.7622C32.3059 13.8453 32.3295 13.9402 32.3222 14.0467C32.2771 13.9611 32.2534 13.8663 32.2511 13.7622Z"
        fill="#7E9188" />
    <path fill-rule="evenodd" clip-rule="evenodd"
        d="M0.713342 13.9399C0.705963 14.026 0.717814 14.1089 0.748898 14.1888C0.736607 14.2314 0.718829 14.2314 0.695564 14.1888C0.688778 14.2673 0.671 14.3384 0.642231 14.4022C0.640022 14.2395 0.663725 14.0854 0.713342 13.9399Z"
        fill="#496259" />
    <path fill-rule="evenodd" clip-rule="evenodd"
        d="M0.64227 14.4023C0.649293 14.589 0.625589 14.7668 0.571159 14.9357C0.569181 14.7497 0.592884 14.5719 0.64227 14.4023Z"
        fill="#60756D" />
    <path fill-rule="evenodd" clip-rule="evenodd"
        d="M0.571111 15.1489C0.582668 15.5122 0.558964 15.8678 0.5 16.2156C0.5 16.0615 0.5 15.9074 0.5 15.7534C0.523704 15.5519 0.547407 15.3504 0.571111 15.1489Z"
        fill="#344F43" />
    <path fill-rule="evenodd" clip-rule="evenodd"
        d="M32.4288 15.1489C32.4526 15.2674 32.4762 15.386 32.5 15.5045C32.5 15.6704 32.5 15.8363 32.5 16.0023C32.4719 15.9628 32.4541 15.9154 32.4466 15.86C32.4288 15.6233 32.4229 15.3863 32.4288 15.1489Z"
        fill="#405A51" />
    <path fill-rule="evenodd" clip-rule="evenodd"
        d="M0.642212 18.5977C0.677142 18.7333 0.700846 18.8756 0.713323 19.0243C0.651103 18.8934 0.627399 18.7511 0.642212 18.5977Z"
        fill="#8DA09A" />
    <path fill-rule="evenodd" clip-rule="evenodd"
        d="M32.3577 18.5977C32.3711 18.7738 32.3475 18.9397 32.2866 19.0954C32.2977 18.9229 32.3214 18.7569 32.3577 18.5977Z"
        fill="#A5B4AD" />
    <path fill-rule="evenodd" clip-rule="evenodd"
        d="M18.4912 19.0957C18.4972 19.1427 18.4854 19.1842 18.4556 19.2201C19.8304 19.232 21.2052 19.2439 22.5801 19.2557C22.7605 19.3315 22.9501 19.3789 23.1489 19.3979C23.2056 19.4317 23.253 19.4731 23.2912 19.5224C23.0186 19.4335 22.746 19.3624 22.4734 19.309C21.0749 19.2853 19.6763 19.2616 18.2778 19.2379C18.3393 19.1766 18.4104 19.1292 18.4912 19.0957Z"
        fill="#003C2B" />
    <path fill-rule="evenodd" clip-rule="evenodd"
        d="M10.5622 19.2378C12.2154 19.2733 13.8747 19.2852 15.54 19.2734C13.8629 19.3207 12.1799 19.3207 10.4911 19.2734C10.5073 19.245 10.5311 19.2331 10.5622 19.2378Z"
        fill="#007662" />
    <path fill-rule="evenodd" clip-rule="evenodd"
        d="M18.2777 19.2378C19.6762 19.2615 21.0748 19.2852 22.4733 19.3089C21.0627 19.3207 19.6524 19.3089 18.2422 19.2733C18.2466 19.2518 18.2584 19.2399 18.2777 19.2378Z"
        fill="#007460" />
    <path fill-rule="evenodd" clip-rule="evenodd"
        d="M8.46448 20.7666C8.51568 20.7973 8.56311 20.7973 8.6067 20.7666C8.68538 20.8475 8.78018 20.9008 8.89114 20.9266C10.3905 20.9325 11.8838 20.9503 13.3711 20.9799C11.9252 20.9799 10.4793 20.9799 9.03337 20.9799C8.81673 20.971 8.62711 20.8999 8.46448 20.7666Z"
        fill="#16C1A9" />
    <path fill-rule="evenodd" clip-rule="evenodd"
        d="M9.03333 20.98C10.4793 20.98 11.9252 20.98 13.3711 20.98C13.4045 21.0094 13.3926 21.0331 13.3355 21.0511C11.9015 21.0274 10.4674 21.0037 9.03333 20.98Z"
        fill="#036652" />
    <path fill-rule="evenodd" clip-rule="evenodd"
        d="M22.58 23.2201C22.477 23.2067 22.3822 23.2245 22.2956 23.2734C19.3444 23.303 16.3933 23.2971 13.4423 23.2556C13.5382 23.2071 13.6093 23.136 13.6556 23.0423C14.4563 22.3544 15.2741 21.6848 16.1089 21.0334C18.183 21.0097 20.2571 21.0097 22.3311 21.0334C23.1055 21.2421 23.4077 21.7458 23.2378 22.5445C23.1308 22.8827 22.9115 23.1078 22.58 23.2201Z"
        fill="#0F3426" />
    <path fill-rule="evenodd" clip-rule="evenodd"
        d="M1.28227 21.4424C1.33289 21.514 1.3566 21.597 1.35338 21.6913C1.30276 21.6196 1.27905 21.5367 1.28227 21.4424Z"
        fill="#9EADA7" />
    <path fill-rule="evenodd" clip-rule="evenodd"
        d="M31.4334 22.2954C31.436 22.3497 31.4122 22.3853 31.3623 22.4021C31.3597 22.3478 31.3834 22.3122 31.4334 22.2954Z"
        fill="#82918A" />
    <path fill-rule="evenodd" clip-rule="evenodd"
        d="M13.6556 23.042C13.6093 23.1356 13.5382 23.2068 13.4423 23.2553C16.3933 23.2968 19.3444 23.3027 22.2956 23.2731C22.3823 23.2242 22.477 23.2064 22.58 23.2198C22.5067 23.2651 22.4237 23.2948 22.3312 23.3087C19.3208 23.3324 16.3104 23.3324 13.3 23.3087C13.4143 23.2105 13.5328 23.1216 13.6556 23.042Z"
        fill="#00402F" />
    <path fill-rule="evenodd" clip-rule="evenodd"
        d="M24.9623 22.5088C24.976 22.9067 24.8871 23.2741 24.6956 23.611C24.656 23.6396 24.6146 23.6633 24.5712 23.6821C24.7797 23.3173 24.91 22.9262 24.9623 22.5088Z"
        fill="#074534" />
    <path fill-rule="evenodd" clip-rule="evenodd"
        d="M22.7933 24.9624C22.7175 24.9913 22.6346 25.0091 22.5444 25.0157C18.9118 25.0454 15.2852 25.0394 11.6644 24.998C15.3744 25.0091 19.0841 24.9972 22.7933 24.9624Z"
        fill="#09A38D" />
</svg>