<svg width="512" height="512" viewBox="0 0 512 512" fill="none" xmlns="http://www.w3.org/2000/svg">
<path d="M133.3 502.7L76.6 432.1L76.8 33.3L63.1 9.29999H383.5V299.1C386.2 299.9 389.2 301.1 392.2 302.6C408.4 310.9 414.9 325.3 417.7 331.5L417.8 331.8C422.5 342.1 428.4 354.9 422.8 367.5C417.3 379.8 402.5 387.4 384.2 387.5L384 418L452.8 502.7H133.3Z" fill="#A4B1CD"/>
<path d="M80.2 19.3H373.5V307.2C377 307.6 382.1 308.7 387.6 311.5C400.3 318 405.8 329.4 408.6 335.6C413 345.2 417.5 354.8 413.7 363.4C409 374 392.9 379.7 374.3 376.6L373.8 421.4L431.6 492.6H138L86.5 428.5L86.7 30.6L80.2 19.3Z" fill="#9FEF00"/>
<path d="M97.6 30.7H361.6V315.4C364.6 315 369.9 314.8 375.8 317C380.1 318.6 382.9 320.7 386.1 323.3C389.6 326.1 396 331.4 400.7 340.7C403.8 346.8 406.5 352.1 404.2 357C402 361.6 396.5 363.4 393.8 364.3C389.7 365.6 386.8 365.3 380.5 365C376.4 364.8 370.3 364.7 362.8 364.8C362.7 384.9 362.6 405 362.4 425.1L406.1 480.3H144.2L97.6 424.3V30.7Z" fill="#141D2B"/>
<path d="M240 480.6L194.1 439.9C183.6 430.6 170.2 425.5 156.1 425.5H137.6C134.4 425.5 132.7 429.3 135 431.7L180.5 480.7H240V480.6Z" fill="#9FEF00"/>
<path d="M243.6 278.8L184.1 406.3C180.1 414.8 171.5 420.3 162 420.3H129.4C126.3 420.3 124.2 417 125.6 414.1L203.5 253.3C204.5 251.3 204.6 249.1 203.8 247L185.5 195.8C184.5 193.2 181.2 192.5 179.3 194.6L152.3 224.6C149 228.2 144.2 230.2 139.2 229.8C124.7 228.5 110.3 227.2 95.7 225.9C95 213.3 94.2 200.7 93.5 188.1C105.3 188.1 117.1 188.1 128.8 188.1C130.9 188.1 132.8 187.3 134.2 185.8C138.5 176.5 146.2 162.6 159.5 149.3C166.2 142.6 176.4 132.3 192.7 125.9C205.6 120.8 216.6 120.9 238.7 121.1C276.5 121.4 294.6 129.4 301 132.7C303.5 134 308.3 136.4 313.8 140.8C315.8 142.4 323.4 148.7 330.2 159.8C331.4 161.7 332 163.2 333 164.8C351.9 192.7 355.6 210.3 341.5 216.4C329.9 224.8 319 210.6 308.2 192.4L294 165.2C293.3 163.8 291.8 163 290.3 163L260.8 163.8C258.8 163.9 257.7 165.9 258.5 167.6C270.1 191.2 280 213.3 284.6 231.4L294.2 313.4C294.5 315.8 296.5 317.6 298.9 317.7L369 320.1C373.8 320.3 377 321.7 378.9 322.7C381.1 323.9 383 325.6 386.8 329.3C389.7 332 391.3 333.5 393.2 335.8C395.3 338.4 397.3 340.9 398.8 344.7C400.1 348.1 401.4 351.6 399.9 355.1C398.5 358 395.7 359.5 395.3 359.7C394 360.3 392.7 360.7 391.1 360.7L284.9 361.2C269.1 361.3 255.6 349.7 253.1 334.1C250.1 315.7 246.9 297.3 243.6 278.8Z" fill="#9FEF00"/>
<path d="M176 121.2C195.8 121.2 211.8 105.2 211.8 85.4C211.8 65.6 195.8 49.6 176 49.6C156.2 49.6 140.2 65.6 140.2 85.4C140.2 105.2 156.2 121.2 176 121.2Z" fill="#9FEF00"/>
</svg>
