<svg width="512" height="512" viewBox="0 0 512 512" fill="none" xmlns="http://www.w3.org/2000/svg">
<path d="M336.691 493.978C328.909 493.978 321.331 492.646 313.958 490.086L51.6096 398.541C32.4608 391.885 19.6608 373.76 19.6608 353.587V158.413C19.6608 138.138 32.4608 120.115 51.6096 113.459L313.958 21.9136C321.229 19.3536 328.909 18.0224 336.691 18.0224C346.624 18.0224 356.25 20.0704 365.363 24.2688L468.378 71.2704C473.293 73.5232 480.256 77.7216 485.683 85.504C488.858 90.0096 491.213 95.3344 492.442 100.864V411.238C491.213 416.768 488.858 421.99 485.683 426.598C480.256 434.381 473.293 438.579 468.378 440.832L365.363 487.834C356.25 491.93 346.624 493.978 336.691 493.978Z" fill="#141D2B"/>
<path d="M336.691 30.6176C344.781 30.6176 352.666 32.3584 360.038 35.7376L463.053 82.7392C463.053 82.7392 463.053 82.7392 463.155 82.7392C466.637 84.2752 471.45 87.2448 475.341 92.7744C477.389 95.6416 478.822 98.9184 479.744 102.298V256V409.702C478.822 413.082 477.286 416.358 475.341 419.226C471.552 424.653 466.637 427.622 463.155 429.261C463.155 429.261 463.155 429.261 463.053 429.261L360.038 476.262C352.666 479.642 344.781 481.382 336.691 481.382C330.342 481.382 324.096 480.358 318.157 478.208L55.7056 386.56C41.6768 381.645 32.256 368.435 32.256 353.485V256V158.413C32.256 143.565 41.6768 130.253 55.7056 125.338L318.157 33.792C324.096 31.744 330.342 30.6176 336.691 30.6176ZM336.691 5.3248C327.578 5.3248 318.566 6.8608 309.76 9.9328L47.4112 101.478C23.2448 109.875 6.9632 132.71 6.9632 158.413V256V353.587C6.9632 379.187 23.1424 402.022 47.4112 410.522L309.76 502.067C318.464 505.139 327.578 506.675 336.691 506.675C348.262 506.675 359.834 504.218 370.586 499.302C404.89 483.635 439.296 467.968 473.6 452.301C478.31 450.15 488.243 444.928 496.026 433.869C501.862 425.574 504.115 417.382 505.037 412.57C505.037 360.448 505.037 308.224 505.037 256.102C505.037 203.981 505.037 151.757 505.037 99.6352C504.115 94.8224 501.862 86.6304 496.026 78.336C488.243 67.2768 478.413 62.0544 473.6 59.904C439.194 44.032 404.89 28.3648 370.586 12.6976C359.834 7.8848 348.262 5.3248 336.691 5.3248Z" fill="#B38D43"/>
<path d="M352.87 93.3888C343.552 87.552 331.469 88.3712 323.072 95.5392L166.195 229.581C180.941 245.965 195.789 262.451 213.402 275.763L349.901 175.002L357.274 96.256L352.87 93.3888Z" fill="#B38D43"/>
<path d="M151.347 242.176L86.016 297.882C79.0528 303.821 78.6432 314.368 84.992 320.922L103.731 339.866C109.261 345.395 117.965 346.112 124.211 341.504L197.12 287.642C180.429 274.022 165.888 258.15 151.347 242.176Z" fill="#B38D43"/>
<path d="M85.0944 190.874L103.834 171.93C109.363 166.4 118.067 165.683 124.314 170.291L349.798 336.896L357.171 415.642L352.87 418.304C343.552 424.141 331.469 423.322 323.072 416.154L86.1184 213.811C79.1552 207.872 78.6432 197.325 85.0944 190.874Z" fill="#B38D43"/>
<path d="M436.326 143.155V367.616C436.326 376.525 431.002 384.614 422.81 388.198L342.221 422.81L345.498 411.648L342.221 100.25L337.818 89.7024L422.093 122.368C430.694 125.645 436.326 133.939 436.326 143.155Z" fill="#B38D43"/>
</svg>
