<svg width="512" height="512" viewBox="0 0 512 512" fill="none" xmlns="http://www.w3.org/2000/svg">
<g filter="url(#filter0_d_2_12)">
<path d="M45.3945 130.401L248.003 7.21834C252.874 4.26055 258.964 4.26055 263.836 7.21834L465.661 130.401C470.185 133.185 472.968 138.057 472.968 143.363L473.838 376.42C473.838 381.9 470.881 387.033 466.096 389.73L263.401 504.474C258.703 507.084 253.048 507.084 248.351 504.474L45.7424 389.121C40.9578 386.424 38 381.378 38 375.898V143.45C38.087 138.057 40.8708 133.185 45.3945 130.401Z" fill="#9FEF00"/>
<path d="M80.3659 245.668V346.581C80.3659 352.757 83.6717 358.499 88.9783 361.631L217.903 437.054C223.123 440.099 229.734 436.358 229.734 430.269V273.767C229.734 270.896 228.255 268.286 225.732 266.807L96.0248 191.036C89.0653 186.947 80.2789 191.993 80.2789 200.083V245.668H80.3659Z" fill="#141D2B"/>
<path d="M431.559 246.277V347.19C431.559 353.366 428.254 359.108 422.947 362.24L294.022 437.663C288.803 440.708 282.191 436.967 282.191 430.878V274.376C282.191 271.505 283.67 268.895 286.193 267.416L415.901 191.558C422.86 187.469 431.646 192.515 431.646 200.605V246.277H431.559Z" fill="#141D2B"/>
<path d="M113.684 137.535L252.091 58.5446C254.527 57.1527 257.485 57.1527 259.921 58.5446L398.328 137.535C400.851 139.014 400.938 142.407 398.415 143.885L260.182 227.399C257.746 228.878 254.527 228.878 252.091 227.399L113.597 143.885C111.075 142.32 111.162 138.927 113.684 137.535Z" fill="#141D2B"/>
</g>
<defs>
<filter id="filter0_d_2_12" x="-4" y="0" width="520" height="520" filterUnits="userSpaceOnUse" color-interpolation-filters="sRGB">
<feFlood flood-opacity="0" result="BackgroundImageFix"/>
<feColorMatrix in="SourceAlpha" type="matrix" values="0 0 0 0 0 0 0 0 0 0 0 0 0 0 0 0 0 0 127 0" result="hardAlpha"/>
<feOffset dy="4"/>
<feGaussianBlur stdDeviation="2"/>
<feComposite in2="hardAlpha" operator="out"/>
<feColorMatrix type="matrix" values="0 0 0 0 0 0 0 0 0 0 0 0 0 0 0 0 0 0 0.25 0"/>
<feBlend mode="normal" in2="BackgroundImageFix" result="effect1_dropShadow_2_12"/>
<feBlend mode="normal" in="SourceGraphic" in2="effect1_dropShadow_2_12" result="shape"/>
</filter>
</defs>
</svg>
