<svg width="32" height="32" viewBox="0 0 32 32" fill="none" xmlns="http://www.w3.org/2000/svg">
<path d="M12.9887 22.7959L5.8952 21.2474C5.57453 21.174 5.28689 20.9972 5.07663 20.7442C4.86638 20.4912 4.74519 20.1761 4.73175 19.8474V12.2066C4.74551 11.8777 4.86676 11.5624 5.07691 11.309C5.28707 11.0556 5.57452 10.8782 5.8952 10.8038L12.9887 9.26355L13.7506 6.25452H5.48263C4.09284 6.25376 2.7592 6.80288 1.77287 7.78199C0.786542 8.76111 0.227645 10.0907 0.218201 11.4804L0.218201 20.5433C0.224022 21.9354 0.781322 23.2685 1.76804 24.2506C2.75476 25.2327 4.09047 25.7837 5.48263 25.783H13.7506L12.9887 22.7959ZM19.026 22.7959L26.1223 21.2474C26.4424 21.1735 26.7295 20.9965 26.9392 20.7435C27.1489 20.4906 27.2697 20.1757 27.283 19.8474V12.2066C27.2694 11.878 27.1485 11.563 26.9389 11.3097C26.7293 11.0564 26.4424 10.8787 26.1223 10.8038L19.026 9.26355L18.2669 6.25452H26.5321C27.9219 6.25376 29.2555 6.80288 30.2418 7.78199C31.2282 8.76111 31.7871 10.0907 31.7965 11.4804V20.5433C31.7907 21.9354 31.2334 23.2685 30.2467 24.2506C29.26 25.2327 27.9242 25.7837 26.5321 25.783H18.2806L19.026 22.7959Z" fill="#F26601"/>
<path d="M12.9887 15.6556H19.026V16.4093H12.9887V15.6556Z" fill="#F26601"/>
</svg>
