<svg width="32" height="32" viewBox="0 0 32 32" fill="none" xmlns="http://www.w3.org/2000/svg">
<g clip-path="url(#clip0_3355_207)">
<g clip-path="url(#clip1_3355_207)">
<path d="M32 0H0V32H32V0Z" fill="url(#paint0_linear_3355_207)"/>
<path fill-rule="evenodd" clip-rule="evenodd" d="M25.3333 24.3907L23.1386 22.196L22.1946 23.1387L24.3906 25.3334H22.6666V26.6667H25.9999C26.3679 26.6667 26.6666 26.368 26.6666 26V22.6667H25.3333V24.3907ZM8.86125 22.196L6.66659 24.3907V22.6667H5.33325V26C5.33325 26.368 5.63192 26.6667 5.99992 26.6667H9.33325V25.3334H7.60925L9.80525 23.1387L8.86125 22.196ZM25.9999 5.33337H22.6666V6.66671H24.3906L22.1946 8.86271L23.1386 9.80537L25.3333 7.60937V9.33337H26.6666V6.00004C26.6666 5.63204 26.3679 5.33337 25.9999 5.33337ZM6.66659 7.60937L8.86125 9.80537L9.80525 8.86271L7.60925 6.66671H9.33325V5.33337H5.99992C5.63192 5.33337 5.33325 5.63204 5.33325 6.00004V9.33337H6.66659V7.60937ZM19.9999 16.156C19.9999 16.1174 19.9679 16.0827 19.9493 16.064C19.8973 16.016 19.8293 15.9854 19.8053 15.9987L15.3159 16C14.9479 16 14.6493 15.7014 14.6493 15.3334V15.324L13.9346 15.3307C13.9319 15.3414 13.9306 15.3507 13.9293 15.36C13.9293 15.7267 13.6333 16 13.2639 16H12.3333C12.1373 15.9854 12.0026 16.0414 11.9719 16.072L11.9973 21.3334H19.9999V16.156ZM20.8586 15.0894C21.1653 15.376 21.3333 15.7534 21.3333 16.156V22C21.3333 22.368 21.0346 22.6667 20.6666 22.6667H11.3333C10.9653 22.6667 10.6666 22.368 10.6666 22V16C10.6666 15.656 10.8066 15.3347 11.0626 15.0974C11.4453 14.74 11.9893 14.6414 12.3786 14.668H12.7399C12.8653 14.3347 13.1026 14 13.5413 14H15.0973C15.5159 14.076 15.7373 14.372 15.8533 14.6667H19.7599C20.1279 14.632 20.5466 14.7987 20.8586 15.0894ZM21.5079 14.6294C21.2133 14.568 20.9959 14.316 20.9786 14.016C20.9159 12.9467 20.3546 12.5667 19.8906 12.5667C19.5879 12.5667 19.3026 12.7187 19.1039 12.9827C18.9573 13.1787 18.7133 13.2787 18.4719 13.2427C18.2279 13.2054 18.0253 13.0387 17.9426 12.808C17.7226 12.192 17.4066 11.676 17.0026 11.2774C16.5119 10.788 15.1573 9.74004 13.2586 10.5374C12.1879 10.988 11.3146 12.3347 11.3146 13.54C11.3146 13.6787 11.3266 13.8174 11.3426 13.9507C11.3839 14.284 11.1693 14.5974 10.8413 14.6787C10.0893 14.8654 9.19459 15.38 9.19459 16.7747C9.19459 16.776 9.19992 16.9454 9.19992 16.9454C9.22792 17.4347 9.44259 17.9094 9.80525 18.272L8.86125 19.2147C8.26792 18.62 7.91592 17.8374 7.86792 17.0107L7.86125 16.7747C7.86125 15.2587 8.64259 14.0894 9.98125 13.5574V13.54C9.98125 11.788 11.1693 9.96937 12.7453 9.30804C14.5813 8.53871 16.5239 8.92271 17.9413 10.3307C18.2826 10.668 18.5759 11.0614 18.8173 11.5054C19.9946 10.872 21.8693 11.348 22.2506 13.444C23.9346 13.9467 24.8546 15.1227 24.8546 16.7934C24.8546 18.2934 24.1639 19.3907 22.9119 19.8854L22.4213 18.644C23.1719 18.3494 23.5213 17.76 23.5213 16.7934C23.5213 16.3627 23.5213 15.0534 21.5079 14.6294Z" fill="white"/>
</g>
</g>
<defs>
<linearGradient id="paint0_linear_3355_207" x1="0" y1="32" x2="32" y2="0" gradientUnits="userSpaceOnUse">
<stop stop-color="#1B660F"/>
<stop offset="1" stop-color="#6CAE3E"/>
</linearGradient>
<clipPath id="clip0_3355_207">
<rect width="32" height="32" fill="white"/>
</clipPath>
<clipPath id="clip1_3355_207">
<rect width="32" height="32" fill="white"/>
</clipPath>
</defs>
</svg>
