<svg width="32" height="32" viewBox="0 0 32 32" fill="none" xmlns="http://www.w3.org/2000/svg">
    <path
        d="M1.2742 8.70994L7.59186 2.6811C7.99864 2.29295 8.48462 1.9845 9.02121 1.77391C9.5578 1.56332 10.1342 1.45483 10.7164 1.45483C11.2986 1.45483 11.875 1.56332 12.4116 1.77391C12.9482 1.9845 13.4342 2.29295 13.841 2.6811L13.9095 2.74738C14.7264 3.52693 15.1837 4.57325 15.1837 5.66278C15.1837 6.75231 14.7264 7.79864 13.9095 8.57818L7.59186 14.607C7.18507 14.9952 6.69909 15.3036 6.1625 15.5142C5.62591 15.7248 5.04955 15.8333 4.46731 15.8333C3.88506 15.8333 3.3087 15.7248 2.77211 15.5142C2.23552 15.3036 1.74954 14.9952 1.34276 14.607L1.2742 14.5407C0.457304 13.7612 0 12.7149 0 11.6253C0 10.5358 0.457304 9.48949 1.2742 8.70994Z"
        fill="#12D2AC" />
    <path
        d="M15.3607 1.32067L22.2788 7.74225C23.2036 8.60077 23.7213 9.75311 23.7213 10.953C23.7213 12.153 23.2036 13.3053 22.2788 14.1638C21.8284 14.5819 21.2904 14.914 20.6964 15.1408C20.1024 15.3677 19.4643 15.4845 18.8197 15.4845C18.1751 15.4845 17.5371 15.3677 16.943 15.1408C16.349 14.914 15.811 14.5819 15.3607 14.1638L8.44252 7.74225C7.51772 6.88372 7 5.73138 7 4.53146C7 3.33153 7.51772 2.17919 8.44252 1.32067C8.89286 0.902634 9.43086 0.570444 10.0249 0.343641C10.6189 0.116837 11.257 0 11.9016 0C12.5462 0 13.1842 0.116837 13.7783 0.343641C14.3723 0.570444 14.9103 0.902634 15.3607 1.32067Z"
        fill="#307AF2" />
    <path
        d="M31.6446 32.0004C31.7389 32.0004 31.8294 31.9696 31.8961 31.9148C31.9627 31.86 32.0002 31.7856 32.0002 31.7081C32.0002 31.6306 31.9627 31.5562 31.8961 31.5014C31.8294 31.4466 31.7389 31.4158 31.6446 31.4158C31.5503 31.4158 31.4599 31.4466 31.3932 31.5014C31.3265 31.5562 31.2891 31.6306 31.2891 31.7081C31.2891 31.7856 31.3265 31.86 31.3932 31.9148C31.4599 31.9696 31.5503 32.0004 31.6446 32.0004Z"
        fill="black" />
</svg>