<svg width="32" height="32" viewBox="0 0 32 32" fill="none" xmlns="http://www.w3.org/2000/svg">
<path d="M2.44977 18.594C2.38282 18.594 2.34677 18.5459 2.30729 18.5064C1.77857 17.9795 1.25328 17.449 0.72113 16.9237C0.6147 16.819 0.611266 16.7521 0.72113 16.6507C0.771726 16.6059 0.819861 16.5583 0.865326 16.5083L15.8909 1.48097C16.1416 1.22863 16.09 1.19601 16.3784 1.48612L31.4229 16.5392C31.471 16.5873 31.5174 16.6371 31.5671 16.6834C31.653 16.7589 31.6513 16.8207 31.5671 16.9048C31.0212 17.4456 30.4753 17.988 29.938 18.5391C29.8127 18.6661 29.7526 18.5837 29.6685 18.503C26.8929 15.7923 23.3667 13.9783 19.5473 13.2965C18.4148 13.0883 17.2656 12.9837 16.1141 12.9841C11.0916 12.9946 6.26906 14.9526 2.66091 18.4463C2.5974 18.5013 2.54418 18.5786 2.44977 18.594ZM22.33 11.2554C22.3107 11.1539 22.2573 11.0619 22.1789 10.9945C20.2254 9.04902 18.2736 7.09834 16.3235 5.14253C16.1519 4.97087 16.0677 5.00177 15.9167 5.15283C13.9631 7.11665 12.0062 9.07763 10.0458 11.0357C9.99776 11.0838 9.90508 11.1181 9.95654 11.2503C13.9974 10.0744 18.29 10.0762 22.33 11.2554Z" fill="#0053AC"/>
<path d="M16.2412 15.6346C20.6168 15.7341 24.505 17.2533 27.7546 20.3586C27.9125 20.508 27.9039 20.5784 27.7546 20.7209C27.2499 21.2084 26.752 21.7028 26.268 22.2092C26.1203 22.362 26.0482 22.3551 25.8972 22.2092C24.4655 20.829 22.7577 19.7679 20.8863 19.0957C19.0148 18.4234 17.0221 18.1553 15.0395 18.309C11.8918 18.5506 8.91726 19.8453 6.59544 21.9843C6.46155 22.1045 6.33624 22.3139 6.19548 22.3276C6.02381 22.3431 5.90708 22.1045 5.77147 21.9723C5.34231 21.5535 4.9286 21.114 4.4943 20.7054C4.34838 20.5647 4.3707 20.4874 4.5046 20.3621C6.31838 18.5965 8.51297 17.2705 10.9196 16.4859C12.8748 15.8525 14.3546 15.6843 16.2412 15.6346Z" fill="#0053AC"/>
<path d="M24.1668 24.2623C24.1668 24.3378 24.0981 24.3739 24.0534 24.4185C23.5385 24.9335 23.0235 25.4365 22.5222 25.9634C22.3849 26.1042 22.3059 26.0922 22.1789 25.9634C21.481 25.3001 20.6775 24.7577 19.8014 24.3584C18.2365 23.6358 16.4936 23.3898 14.7899 23.6511C13.0862 23.9124 11.4972 24.6694 10.2209 25.8278C9.91018 26.1111 9.91018 26.1094 9.60803 25.8072L8.2639 24.4631C8.06134 24.2588 8.06307 24.2571 8.27939 24.0546C9.83715 22.5543 11.8018 21.5454 13.9288 21.1535C17.762 20.4668 21.1283 21.447 24.0053 24.0838C24.0551 24.1284 24.1032 24.1782 24.1495 24.2262C24.1582 24.2383 24.1582 24.2502 24.1668 24.2623Z" fill="#0053AC"/>
<path d="M16.1312 31.2386C15.6141 31.2376 15.1088 31.0834 14.6791 30.7955C14.2495 30.5076 13.9148 30.0989 13.7172 29.621C13.5196 29.143 13.4679 28.6173 13.5689 28.1101C13.6697 27.6028 13.9186 27.1368 14.2841 26.7709C14.6496 26.405 15.1152 26.1554 15.6223 26.0539C16.1294 25.9524 16.6553 26.0032 17.1335 26.2002C17.6116 26.3972 18.0208 26.7314 18.3092 27.1607C18.5977 27.5899 18.7525 28.095 18.7542 28.6122C18.7577 28.9577 18.6922 29.3005 18.5616 29.6205C18.4311 29.9405 18.2381 30.2313 17.9938 30.4758C17.7496 30.7203 17.4591 30.9137 17.1393 31.0447C16.8195 31.1757 16.4768 31.2416 16.1312 31.2386Z" fill="#0053AC"/>
</svg>
