<svg width="32" height="32" viewBox="0 0 32 32" fill="none" xmlns="http://www.w3.org/2000/svg">
<path d="M27.6533 15.1467H4.61333C4.02667 15.1467 3.54667 14.6667 3.54667 14.08V12.4533C3.54667 10.6133 5.04 9.12 6.88 9.12H25.36C27.2 9.12 28.6933 10.6133 28.6933 12.4533V14.08C28.72 14.6667 28.24 15.1467 27.6533 15.1467Z" fill="url(#paint0_linear_4640_23)"/>
<path d="M22.8 7.36001H9.46667C8.88 7.36001 8.37333 6.88001 8.37333 6.26668C8.37333 3.54668 10.5867 1.33334 13.3067 1.33334H18.96C21.68 1.33334 23.8933 3.54668 23.8933 6.26668C23.8933 6.88001 23.4133 7.36001 22.8 7.36001Z" fill="url(#paint1_linear_4640_23)"/>
<path d="M28.72 16.9067H3.54667C1.89333 16.9067 0.533334 18.2667 0.533334 19.92C0.533334 21.5733 1.89333 22.9333 3.54667 22.9333H12.48C12.8 21.2267 14.2933 19.92 16.1067 19.92C17.92 19.92 19.44 21.2267 19.76 22.9333H28.6933C30.3467 22.9333 31.7067 21.5733 31.7067 19.92C31.7067 18.2667 30.3733 16.9067 28.72 16.9067Z" fill="url(#paint2_linear_4640_23)"/>
<path d="M27.6267 24.6933H19.8133V30.72H25.68C27.3333 30.72 28.6933 29.36 28.6933 27.7067V25.7867C28.72 25.2 28.24 24.6933 27.6267 24.6933Z" fill="url(#paint3_linear_4640_23)"/>
<path d="M4.61333 24.6933C4.02667 24.6933 3.52 25.1733 3.52 25.7867V27.7067C3.52 29.36 4.88 30.72 6.53333 30.72H12.4V24.6933C12.4267 24.6933 4.61333 24.6933 4.61333 24.6933Z" fill="url(#paint4_linear_4640_23)"/>
<defs>
<linearGradient id="paint0_linear_4640_23" x1="12.5818" y1="9.61219" x2="14.1524" y2="16.7899" gradientUnits="userSpaceOnUse">
<stop stop-color="#D95DA7"/>
<stop offset="1" stop-color="#64E3DC" stop-opacity="0.99"/>
</linearGradient>
<linearGradient id="paint1_linear_4640_23" x1="13.9494" y1="1.82554" x2="16.3184" y2="8.50695" gradientUnits="userSpaceOnUse">
<stop stop-color="#D95DA7"/>
<stop offset="1" stop-color="#64E3DC" stop-opacity="0.99"/>
</linearGradient>
<linearGradient id="paint2_linear_4640_23" x1="11.7333" y1="17.3989" x2="13.0209" y2="24.693" gradientUnits="userSpaceOnUse">
<stop stop-color="#D95DA7"/>
<stop offset="1" stop-color="#64E3DC" stop-opacity="0.99"/>
</linearGradient>
<linearGradient id="paint3_linear_4640_23" x1="23.0041" y1="25.1855" x2="26.3717" y2="30.6203" gradientUnits="userSpaceOnUse">
<stop stop-color="#D95DA7"/>
<stop offset="1" stop-color="#64E3DC" stop-opacity="0.99"/>
</linearGradient>
<linearGradient id="paint4_linear_4640_23" x1="6.71044" y1="25.1855" x2="10.0781" y2="30.62" gradientUnits="userSpaceOnUse">
<stop stop-color="#D95DA7"/>
<stop offset="1" stop-color="#64E3DC" stop-opacity="0.99"/>
</linearGradient>
</defs>
</svg>
