<svg width="32" height="32" viewBox="0 0 32 32" fill="none" xmlns="http://www.w3.org/2000/svg">
<path opacity="0.5" d="M11.8144 16.1973C11.6736 16.1973 11.5392 16.1973 11.4048 16.1973C9.28642 16.1973 7.96802 16.3893 7.96802 16.4085C7.96802 16.4277 8.10882 16.4277 8.38402 16.4277C8.46082 16.4277 8.55042 16.4277 8.64642 16.4277C8.74242 16.4277 8.85122 16.4277 8.96642 16.4277C9.55522 16.4277 10.3808 16.4405 11.3984 16.4853C13.5104 16.5685 16.4288 16.8245 19.6416 17.1573C22.656 17.4709 25.408 17.6437 27.488 17.6437C27.6288 17.6437 27.7632 17.6437 27.8976 17.6437C30.016 17.6437 31.3344 17.4517 31.3344 17.4325C31.3344 17.4133 31.1936 17.4133 30.9184 17.4133C30.8416 17.4133 30.752 17.4133 30.656 17.4133C30.56 17.4133 30.4512 17.4133 30.336 17.4133C29.7472 17.4133 28.9152 17.4005 27.904 17.3557C25.792 17.2725 22.8736 17.0165 19.6608 16.6837C16.6464 16.3701 13.888 16.1973 11.8144 16.1973Z" fill="#0091B3"/>
<path d="M5.19678 16.8379C5.19678 16.8891 6.50878 16.8123 8.62078 16.9083C10.7328 16.9851 13.6512 17.2347 16.864 17.5611C20.0832 17.8875 23.0016 18.0539 25.12 18.0283C27.2384 18.0219 28.5568 17.8235 28.5568 17.8043C28.5568 17.7531 27.2448 17.8299 25.1328 17.7339C23.0208 17.6571 20.1024 17.4075 16.8896 17.0811C13.6704 16.7547 10.752 16.5883 8.63358 16.6139C6.51518 16.6267 5.19678 16.8187 5.19678 16.8379Z" fill="#0091B3"/>
<path d="M3.1488 17.3106C3.1488 17.3618 4.4608 17.285 6.5728 17.381C8.6848 17.4578 11.6032 17.7074 14.816 18.0338C18.0352 18.3602 20.9536 18.5266 23.072 18.501C25.1904 18.4946 26.5088 18.2962 26.5088 18.277C26.5088 18.2258 25.1968 18.3026 23.0848 18.2066C20.9728 18.1298 18.0544 17.8802 14.8416 17.5538C11.6224 17.2274 8.704 17.061 6.5856 17.0866C4.4672 17.093 3.1488 17.2914 3.1488 17.3106Z" fill="#0071CE"/>
<path d="M4.48001 17.5098C4.33921 17.5098 4.20481 17.5098 4.07041 17.5098C1.95841 17.5226 0.640015 17.7146 0.640015 17.7338C0.640015 17.753 0.780815 17.753 1.04961 17.753C1.12641 17.753 1.21601 17.753 1.31201 17.753C1.40801 17.753 1.51681 17.753 1.63201 17.753C2.22081 17.753 3.04641 17.7594 4.06401 17.8042C6.17601 17.881 9.09442 18.1306 12.3072 18.457C15.3216 18.7642 18.0736 18.9306 20.1536 18.9306C20.2944 18.9306 20.4288 18.9306 20.5632 18.9306C22.6816 18.9242 24 18.7258 24 18.7066C24 18.6874 23.8592 18.6874 23.584 18.6874C23.5072 18.6874 23.4176 18.6874 23.3216 18.6874C23.2256 18.6874 23.1168 18.6874 23.0016 18.6874C22.4128 18.6874 21.5872 18.681 20.5696 18.6362C18.4576 18.5594 15.5392 18.3098 12.3264 17.9834C9.31202 17.6762 6.56001 17.5098 4.48001 17.5098Z" fill="#002F87"/>
<path d="M11.3216 13.4071H10.7392V15.1287H10.4448V13.4071H9.85598V13.1575H11.3216V13.4071ZM7.80158 13.7015L8.14078 14.4887H7.46238L7.80158 13.7015ZM7.17438 15.1351L7.35998 14.7319H8.24958L8.43518 15.1351H8.76158L7.85918 13.1383H7.75678L6.84798 15.1351H7.17438ZM0.95358 14.2199H1.42718C1.58718 14.2327 1.75358 14.3287 1.75358 14.5463C1.75358 14.8727 1.39518 14.9239 0.95358 14.8791V14.2199ZM0.95358 13.4007C1.24158 13.3623 1.61278 13.3751 1.61278 13.7015C1.61278 13.8487 1.51038 13.9703 1.38238 13.9895H0.95358V13.4007ZM0.65918 15.1287C1.68318 15.2375 2.06078 15.0135 2.06078 14.5655C2.06078 14.2775 1.86878 14.1111 1.68958 14.0727C1.79838 14.0215 1.90718 13.8743 1.90718 13.6695C1.90718 13.0935 1.20958 13.0871 0.65918 13.1703V15.1287ZM4.56318 14.9111C4.17278 14.9111 3.84638 14.6103 3.84638 14.1495C3.84638 13.6951 4.17278 13.3815 4.56318 13.3815C4.94718 13.3815 5.28638 13.6951 5.28638 14.1495C5.28638 14.6039 4.94718 14.9111 4.56318 14.9111ZM4.56318 13.1191C3.96158 13.1191 3.52638 13.5735 3.52638 14.1495C3.52638 14.7191 3.96158 15.1735 4.56318 15.1735C5.16478 15.1735 5.59998 14.7191 5.59998 14.1495C5.59998 13.5735 5.16478 13.1191 4.56318 13.1191ZM13.9712 13.2727C13.856 13.2087 13.6064 13.1191 13.4016 13.1191C12.9728 13.1191 12.7616 13.3943 12.7616 13.6567C12.7616 13.9447 12.96 14.1047 13.28 14.2455C13.5488 14.3607 13.7536 14.4439 13.7536 14.6423C13.7536 14.8087 13.568 14.9175 13.3504 14.9175C13.1456 14.9175 12.96 14.8215 12.8512 14.7383L12.736 14.9687C12.8576 15.0711 13.088 15.1799 13.3696 15.1799C13.7344 15.1799 14.0416 14.9879 14.0544 14.6423C14.0608 14.3863 13.9072 14.1815 13.4784 14.0151C13.248 13.9255 13.0624 13.8295 13.0624 13.6631C13.0624 13.5095 13.2032 13.3943 13.4336 13.3943C13.5808 13.3943 13.7664 13.4647 13.8816 13.5287L13.9712 13.2727ZM18.208 14.3735H18.5792V14.7511C18.4768 14.8471 18.2528 14.9111 18.0672 14.9111C17.6256 14.9111 17.312 14.5847 17.312 14.1367C17.312 13.7143 17.632 13.3815 18.0352 13.3815C18.304 13.3815 18.4832 13.5095 18.5984 13.6183C18.656 13.5479 18.72 13.4775 18.784 13.4071C18.6368 13.2663 18.4128 13.1191 18.0288 13.1191C17.4784 13.1191 16.992 13.5415 16.992 14.1431C16.992 14.7127 17.4336 15.1735 18.0608 15.1735C18.3424 15.1735 18.6176 15.1223 18.8736 14.8727V14.1239H18.208V14.3735ZM20.8128 13.4135C21.28 13.3431 21.504 13.5095 21.504 13.7591C21.504 14.0279 21.2736 14.2071 20.8128 14.1559V13.4135ZM21.4208 14.3287C21.6384 14.2391 21.8048 14.0279 21.8048 13.7655C21.8048 13.2983 21.4016 13.0231 20.5184 13.1767V15.1351H20.8128V14.4183C20.928 14.4311 21.0304 14.4247 21.1264 14.4183L21.6 15.1415H21.9648L21.4208 14.3287ZM24.32 14.9111C23.9296 14.9111 23.6032 14.6103 23.6032 14.1495C23.6032 13.6951 23.9296 13.3815 24.32 13.3815C24.704 13.3815 25.0432 13.6951 25.0432 14.1495C25.0368 14.6039 24.704 14.9111 24.32 14.9111ZM24.32 13.1191C23.7184 13.1191 23.2832 13.5735 23.2832 14.1495C23.2832 14.7191 23.7184 15.1735 24.32 15.1735C24.9216 15.1735 25.3568 14.7191 25.3568 14.1495C25.3568 13.5735 24.9152 13.1191 24.32 13.1191ZM26.8736 14.4119C26.8736 14.8023 27.136 15.1735 27.6416 15.1735C28.1536 15.1735 28.4096 14.8023 28.4096 14.4119V13.1575H28.1152V14.4055C28.1152 14.6871 27.9104 14.9175 27.6416 14.9175C27.3728 14.9175 27.168 14.6871 27.168 14.4055V13.1575H26.8672V14.4119H26.8736ZM30.3488 13.4135C30.848 13.3495 31.04 13.5351 31.04 13.7975C31.04 14.0791 30.8288 14.2519 30.3488 14.2199V13.4135ZM30.3488 14.4823C30.9888 14.5207 31.3408 14.2519 31.3408 13.8039C31.3408 13.3303 30.944 13.0167 30.0544 13.1767V15.1351H30.3488V14.4823Z" fill="#2D2A26"/>
</svg>
