<svg width="32" height="32" viewBox="0 0 32 32" fill="none" xmlns="http://www.w3.org/2000/svg">
<path d="M30.4925 17.6825C30.4925 21.5408 33.4858 31.6011 15.1157 31.6011C6.6556 31.6011 1.32922 28.0581 1.32922 19.598C1.32922 11.1379 5.96785 2.14584 15.1157 0.59872C28.8842 -0.50363 30.4925 2.5351 30.4925 17.6825Z" fill="#75A2E6"/>
<path d="M11.2335 26.754L14.9743 5.46484H21.3002C22.1822 5.46484 23.0084 5.54084 23.7789 5.69291C24.5493 5.84503 25.2235 6.10349 25.8013 6.46848C26.3792 6.82331 26.8303 7.31494 27.1547 7.94349C27.4892 8.56189 27.6565 9.3374 27.6565 10.2701C27.6565 11.6083 27.2916 12.7792 26.5616 13.7828C25.8317 14.7864 24.8636 15.5265 23.6572 16.0029L23.3683 15.1514C24.818 15.3541 25.9179 15.8458 26.6681 16.6264C27.4284 17.407 27.8086 18.4309 27.8086 19.6981C27.8086 20.8335 27.5855 21.8423 27.1395 22.7242C26.7036 23.596 26.1004 24.3311 25.3299 24.9292C24.5594 25.5273 23.6775 25.9835 22.684 26.2978C21.6905 26.6019 20.6413 26.754 19.5362 26.754H11.2335ZM15.9171 14.0109H20.6007C21.4522 14.0109 22.172 13.7372 22.76 13.1898C23.348 12.6322 23.642 11.8516 23.642 10.8479C23.642 10.3512 23.5609 9.95075 23.3987 9.64663C23.2365 9.34251 22.9983 9.12454 22.684 8.99272C22.3799 8.85081 21.9997 8.77986 21.5435 8.77986H18.2893L15.7042 23.4389H19.3842C20.1546 23.4389 20.8491 23.3021 21.4675 23.0284C22.0859 22.7546 22.5775 22.3492 22.9425 21.8119C23.3074 21.2644 23.49 20.5903 23.49 19.7893C23.49 18.9378 23.2365 18.2738 22.7296 17.7973C22.2328 17.3208 21.4827 17.0826 20.4791 17.0826H15.3696L15.9171 14.0109Z" fill="white"/>
<path d="M11.2335 26.7541L10.9486 26.7041L10.889 27.0434H11.2335V26.7541ZM14.9743 5.46501V5.17578H14.7314L14.6894 5.41492L14.9743 5.46501ZM25.8013 6.46864L25.6469 6.7132L25.6484 6.71418L25.65 6.7151L25.8013 6.46864ZM27.1547 7.94366L26.8977 8.07634L26.899 8.0788L26.9003 8.08126L27.1547 7.94366ZM23.6572 16.0031L23.3833 16.096L23.4809 16.3837L23.7634 16.2722L23.6572 16.0031ZM23.3683 15.1515L23.4084 14.8651L22.9436 14.8001L23.0944 15.2445L23.3683 15.1515ZM26.6681 16.6265L26.4596 16.827L26.4602 16.8277L26.4609 16.8284L26.6681 16.6265ZM27.1395 22.7244L26.8814 22.5939L26.8811 22.5944L26.8808 22.595L27.1395 22.7244ZM22.684 26.2979L22.7687 26.5745L22.77 26.5741L22.7713 26.5737L22.684 26.2979ZM15.9171 14.011V13.7218H15.6749L15.6324 13.9603L15.9171 14.011ZM22.7601 13.1899L22.9571 13.4016L22.9581 13.4007L22.9591 13.3998L22.7601 13.1899ZM22.684 8.99289L22.5617 9.25498L22.5669 9.25744L22.5721 9.25966L22.684 8.99289ZM18.2893 8.78003V8.4908H18.0466L18.0045 8.72981L18.2893 8.78003ZM15.7042 23.4391L15.4194 23.3889L15.3595 23.7283H15.7042V23.4391ZM22.9425 21.812L23.1818 21.9745L23.1825 21.9735L23.1831 21.9725L22.9425 21.812ZM22.7296 17.7975L22.5294 18.0062L22.5305 18.0072L22.5315 18.0082L22.7296 17.7975ZM15.3697 17.0828L15.0849 17.032L15.0243 17.372H15.3697V17.0828ZM11.5184 26.8041L15.2592 5.51504L14.6894 5.41492L10.9486 26.7041L11.5184 26.8041ZM14.9743 5.75424H21.3002V5.17578H14.9743V5.75424ZM21.3002 5.75424C22.1657 5.75424 22.9729 5.82883 23.7229 5.97689L23.8349 5.40932C23.0439 5.2532 22.1987 5.17578 21.3002 5.17578V5.75424ZM23.7229 5.97689C24.4635 6.12304 25.1033 6.36987 25.6469 6.7132L25.9557 6.22409C25.3437 5.8375 24.6351 5.56729 23.8349 5.40932L23.7229 5.97689ZM25.65 6.7151C26.1809 7.04114 26.5964 7.49252 26.8977 8.07634L27.4117 7.81098C27.0642 7.13775 26.5775 6.60581 25.9527 6.22218L25.65 6.7151ZM26.9003 8.08126C27.2057 8.64587 27.3673 9.37055 27.3673 10.2702H27.9458C27.9458 9.30464 27.7727 8.47824 27.4091 7.80606L26.9003 8.08126ZM27.3673 10.2702C27.3673 11.5524 27.0188 12.6626 26.3277 13.6128L26.7956 13.9531C27.5643 12.8961 27.9458 11.6645 27.9458 10.2702H27.3673ZM26.3277 13.6128C25.6316 14.57 24.7087 15.2768 23.5509 15.7341L23.7634 16.2722C25.0185 15.7765 26.0319 15.0032 26.7956 13.9531L26.3277 13.6128ZM23.9311 15.9102L23.6422 15.0586L23.0944 15.2445L23.3833 16.096L23.9311 15.9102ZM23.3282 15.438C24.7362 15.6349 25.7678 16.1072 26.4596 16.827L26.8767 16.4262C26.068 15.5847 24.8998 15.0737 23.4084 14.8651L23.3282 15.438ZM26.4609 16.8284C27.1601 17.5462 27.5194 18.4933 27.5194 19.6983H28.0978C28.0978 18.3689 27.6968 17.2681 26.8753 16.4248L26.4609 16.8284ZM27.5194 19.6983C27.5194 20.7952 27.3041 21.758 26.8814 22.5939L27.3976 22.8549C27.867 21.9269 28.0978 20.8723 28.0978 19.6983H27.5194ZM26.8808 22.595C26.4642 23.4282 25.8889 24.1293 25.1525 24.7009L25.5073 25.1578C26.3119 24.5331 26.9429 23.7643 27.3982 22.8538L26.8808 22.595ZM25.1525 24.7009C24.4109 25.2766 23.5599 25.7175 22.5968 26.0222L22.7713 26.5737C23.7951 26.2498 24.708 25.7783 25.5073 25.1578L25.1525 24.7009ZM22.5993 26.0214C21.6349 26.3166 20.6144 26.4649 19.5362 26.4649V27.0434C20.6681 27.0434 21.746 26.8875 22.7687 26.5745L22.5993 26.0214ZM19.5362 26.4649H11.2335V27.0434H19.5362V26.4649ZM15.9171 14.3003H20.6007V13.7218H15.9171V14.3003ZM20.6007 14.3003C21.5206 14.3003 22.3122 14.0021 22.9571 13.4016L22.5629 12.9782C22.0319 13.4726 21.3839 13.7218 20.6007 13.7218V14.3003ZM22.9591 13.3998C23.6178 12.7751 23.9313 11.9109 23.9313 10.8481H23.3528C23.3528 11.7926 23.0782 12.4896 22.561 12.98L22.9591 13.3998ZM23.9313 10.8481C23.9313 10.3235 23.8461 9.8711 23.6539 9.51067L23.1435 9.78292C23.2757 10.0307 23.3528 10.3793 23.3528 10.8481H23.9313ZM23.6539 9.51067C23.4608 9.14852 23.1723 8.88403 22.7959 8.72618L22.5721 9.25966C22.8242 9.36538 23.0122 9.53677 23.1435 9.78292L23.6539 9.51067ZM22.8063 8.7308C22.4527 8.56581 22.0276 8.4908 21.5435 8.4908V9.06926C21.9718 9.06926 22.307 9.13615 22.5617 9.25498L22.8063 8.7308ZM21.5435 8.4908H18.2893V9.06926H21.5435V8.4908ZM18.0045 8.72981L15.4194 23.3889L15.989 23.4893L18.5741 8.83024L18.0045 8.72981ZM15.7042 23.7283H19.3842V23.1499H15.7042V23.7283ZM19.3842 23.7283C20.1893 23.7283 20.9245 23.5851 21.5845 23.293L21.3504 22.764C20.7737 23.0193 20.1199 23.1499 19.3842 23.1499V23.7283ZM21.5845 23.293C22.2503 22.9984 22.7851 22.5584 23.1818 21.9745L22.7033 21.6495C22.37 22.1402 21.9215 22.5113 21.3504 22.764L21.5845 23.293ZM23.1831 21.9725C23.5861 21.368 23.7792 20.635 23.7792 19.7895H23.2007C23.2007 20.5458 23.0289 21.1611 22.7018 21.6515L23.1831 21.9725ZM23.7792 19.7895C23.7792 18.8774 23.5054 18.1298 22.9277 17.5867L22.5315 18.0082C22.9676 18.4181 23.2007 18.9986 23.2007 19.7895H23.7792ZM22.9298 17.5888C22.3589 17.0411 21.5234 16.7936 20.4791 16.7936V17.372C21.442 17.372 22.1068 17.6009 22.5294 18.0062L22.9298 17.5888ZM20.4791 16.7936H15.3697V17.372H20.4791V16.7936ZM15.6544 17.1335L16.2018 14.0618L15.6324 13.9603L15.0849 17.032L15.6544 17.1335Z" fill="white"/>
<path d="M9.34583 5.18164H21.3244L14.3119 8.25955L9.34583 5.18164Z" fill="white"/>
</svg>
