<svg width="32" height="32" viewBox="0 0 32 32" fill="none" xmlns="http://www.w3.org/2000/svg">
<mask id="mask0_4868_10" style="mask-type:luminance" maskUnits="userSpaceOnUse" x="1" y="2" width="30" height="29">
<path d="M30.6286 2.28572H1.37143V30.1714H30.6286V2.28572Z" fill="white"/>
</mask>
<g mask="url(#mask0_4868_10)">
<path d="M15.7911 29.5941L1.47748 2.54263H18.3323V4.58058H4.87131L17.6027 28.64L15.7911 29.5941Z" fill="black"/>
<path d="M23.2101 30.1321H3.78926V15.3189H10.315V17.3573H5.83863V28.0946H23.2101V30.1321ZM19.136 3.85692L15.0149 12.7223L16.8754 13.5776L20.9966 4.71223L19.136 3.85692Z" fill="black"/>
<path d="M22.8247 30.1321V28.0942C25.776 28.0942 28.1778 25.7051 28.1778 22.7703C28.1778 19.8354 25.776 17.4459 22.8247 17.4459H17.6763V15.408H22.8165C26.8987 15.408 30.219 18.7099 30.219 22.7703C30.219 26.8302 26.907 30.1321 22.8247 30.1321Z" fill="black"/>
<path d="M18.3566 17.2754C17.7993 17.2754 17.2256 17.2096 16.6597 17.0875L17.1109 15.0981C18.0699 15.3102 19.029 15.2777 19.8898 15.0085C20.9147 14.6825 21.8656 13.9973 22.5623 13.0926C23.2919 12.1385 23.6855 11.0459 23.6855 9.91269C23.6855 6.97783 21.2832 4.5888 18.3323 4.5888V2.55086C22.4146 2.55086 25.7349 5.8528 25.7349 9.91269C25.7349 13.019 23.5378 15.979 20.5211 16.949C19.8199 17.165 19.0903 17.2753 18.3566 17.2754Z" fill="black"/>
<path d="M11.2046 2.71681L9.39062 3.66584L23.0514 29.4898L24.8654 28.5404L11.2046 2.71681Z" fill="black"/>
</g>
</svg>
