<?xml version="1.0" encoding="UTF-8"?>
<svg xmlns="http://www.w3.org/2000/svg" xmlns:xlink="http://www.w3.org/1999/xlink" width="32px" height="32px" viewBox="0 0 32 32" version="1.1">
<g id="surface1">
<path style=" stroke:none;fill-rule:nonzero;fill:rgb(20%,40%,80%);fill-opacity:1;" d="M 32 16 C 32 24.835938 24.835938 32 16 32 C 7.164062 32 0 24.835938 0 16 C 0 7.164062 7.164062 0 16 0 C 24.835938 0 32 7.164062 32 16 Z M 32 16 "/>
<path style=" stroke:none;fill-rule:nonzero;fill:rgb(100%,100%,100%);fill-opacity:1;" d="M 18.203125 14.179688 L 14.820312 14.179688 C 14.761719 14.179688 14.707031 14.15625 14.667969 14.117188 C 14.625 14.078125 14.601562 14.023438 14.601562 13.96875 C 14.601562 13.914062 14.625 13.859375 14.667969 13.820312 C 14.707031 13.78125 14.761719 13.757812 14.820312 13.757812 L 16.679688 13.757812 C 17.5 13.757812 18.285156 13.441406 18.863281 12.878906 C 19.441406 12.320312 19.765625 11.558594 19.765625 10.765625 C 19.765625 9.96875 19.441406 9.210938 18.863281 8.648438 C 18.285156 8.085938 17.5 7.769531 16.679688 7.769531 L 13.207031 7.769531 L 13.207031 10.59375 C 12.546875 10.890625 11.984375 11.367188 11.589844 11.964844 C 11.195312 12.5625 10.988281 13.257812 10.988281 13.96875 C 10.984375 14.296875 11.03125 14.628906 11.121094 14.945312 C 10.167969 15.523438 9.433594 16.386719 9.03125 17.40625 C 8.625 18.425781 8.578125 19.542969 8.886719 20.589844 C 9.195312 21.640625 9.851562 22.5625 10.75 23.21875 C 11.648438 23.875 12.742188 24.230469 13.867188 24.230469 L 18.203125 24.230469 C 19.574219 24.230469 20.894531 23.699219 21.863281 22.757812 C 22.835938 21.816406 23.382812 20.535156 23.382812 19.203125 C 23.382812 17.871094 22.835938 16.59375 21.863281 15.652344 C 20.894531 14.707031 19.574219 14.179688 18.203125 14.179688 Z M 18.203125 23.0625 L 13.867188 23.0625 C 12.910156 23.0625 11.988281 22.730469 11.265625 22.125 C 10.542969 21.519531 10.070312 20.679688 9.933594 19.765625 C 9.792969 18.847656 10 17.914062 10.511719 17.132812 C 11.027344 16.351562 11.8125 15.777344 12.726562 15.511719 C 12.433594 15.136719 12.25 14.683594 12.203125 14.210938 C 12.160156 13.738281 12.25 13.261719 12.464844 12.839844 C 12.683594 12.414062 13.019531 12.054688 13.4375 11.804688 C 13.851562 11.554688 14.332031 11.421875 14.820312 11.421875 L 16.679688 11.421875 C 16.859375 11.421875 17.03125 11.351562 17.15625 11.230469 C 17.285156 11.109375 17.355469 10.941406 17.355469 10.769531 C 17.355469 10.59375 17.285156 10.429688 17.15625 10.304688 C 17.03125 10.183594 16.859375 10.113281 16.679688 10.113281 L 14.414062 10.113281 L 14.414062 8.941406 L 16.679688 8.941406 C 16.929688 8.9375 17.179688 8.980469 17.414062 9.070312 C 17.644531 9.15625 17.859375 9.292969 18.035156 9.460938 C 18.214844 9.632812 18.359375 9.832031 18.453125 10.058594 C 18.550781 10.28125 18.601562 10.523438 18.601562 10.765625 C 18.601562 11.007812 18.550781 11.246094 18.453125 11.472656 C 18.359375 11.695312 18.214844 11.898438 18.035156 12.066406 C 17.859375 12.238281 17.644531 12.371094 17.414062 12.460938 C 17.179688 12.550781 16.929688 12.59375 16.679688 12.589844 L 14.820312 12.589844 C 14.632812 12.582031 14.441406 12.617188 14.265625 12.683594 C 14.089844 12.75 13.929688 12.851562 13.792969 12.980469 C 13.65625 13.109375 13.546875 13.261719 13.472656 13.433594 C 13.402344 13.601562 13.363281 13.785156 13.363281 13.96875 C 13.363281 14.152344 13.402344 14.335938 13.472656 14.503906 C 13.546875 14.675781 13.65625 14.828125 13.792969 14.957031 C 13.929688 15.085938 14.089844 15.1875 14.265625 15.253906 C 14.441406 15.320312 14.632812 15.351562 14.820312 15.347656 L 18.203125 15.347656 C 19.246094 15.363281 20.242188 15.777344 20.972656 16.496094 C 21.707031 17.21875 22.117188 18.191406 22.117188 19.203125 C 22.117188 20.214844 21.707031 21.1875 20.972656 21.910156 C 20.242188 22.632812 19.246094 23.042969 18.203125 23.058594 Z M 18.203125 16.523438 L 13.867188 16.523438 C 13.5 16.515625 13.132812 16.578125 12.792969 16.710938 C 12.449219 16.84375 12.140625 17.039062 11.875 17.289062 C 11.613281 17.539062 11.40625 17.839844 11.265625 18.167969 C 11.121094 18.496094 11.046875 18.851562 11.046875 19.207031 C 11.046875 19.5625 11.121094 19.917969 11.265625 20.246094 C 11.40625 20.574219 11.613281 20.871094 11.875 21.121094 C 12.140625 21.371094 12.449219 21.570312 12.792969 21.703125 C 13.132812 21.832031 13.5 21.898438 13.867188 21.890625 L 18.203125 21.890625 C 18.570312 21.898438 18.933594 21.832031 19.277344 21.703125 C 19.617188 21.570312 19.929688 21.371094 20.191406 21.121094 C 20.453125 20.871094 20.660156 20.574219 20.804688 20.246094 C 20.945312 19.917969 21.019531 19.5625 21.019531 19.207031 C 21.019531 18.851562 20.945312 18.496094 20.804688 18.167969 C 20.660156 17.839844 20.453125 17.539062 20.191406 17.289062 C 19.929688 17.039062 19.617188 16.84375 19.277344 16.710938 C 18.933594 16.578125 18.570312 16.515625 18.203125 16.523438 Z M 18.203125 20.722656 L 13.867188 20.722656 C 13.453125 20.722656 13.054688 20.5625 12.761719 20.277344 C 12.46875 19.996094 12.304688 19.609375 12.304688 19.207031 C 12.304688 18.804688 12.46875 18.417969 12.761719 18.136719 C 13.054688 17.851562 13.453125 17.691406 13.867188 17.691406 L 18.203125 17.691406 C 18.617188 17.691406 19.015625 17.851562 19.308594 18.136719 C 19.601562 18.417969 19.765625 18.804688 19.765625 19.207031 C 19.765625 19.609375 19.601562 19.996094 19.308594 20.277344 C 19.015625 20.5625 18.617188 20.722656 18.203125 20.722656 Z M 18.203125 20.722656 "/>
</g>
</svg>
