<svg width="32" height="32" viewBox="0 0 32 32" fill="none" xmlns="http://www.w3.org/2000/svg">
<path d="M23.826 22.6348V13.6329C23.8249 13.6327 23.8277 13.6322 23.8277 13.6322C23.8277 12.2047 24.6001 11.9984 25.0092 11.9698C25.856 11.9107 27.1138 12.0665 28.8801 12.4713C29.5938 12.6349 30.3358 12.3529 30.76 11.7569C31.1841 11.161 31.2065 10.3686 30.817 9.74953C30.6984 9.561 30.5728 9.38551 30.4412 9.22222C30.6646 9.0125 30.8358 8.7453 30.9302 8.44C31.1476 7.73818 30.9179 6.9748 30.3488 6.50907C29.9914 6.21652 29.6184 5.98738 29.2406 5.81051L29.2413 5.79394C29.2722 4.98443 28.7597 4.25332 27.9873 4.00523C26.7983 3.62334 25.6778 3.66485 24.7305 3.89081C24.2023 2.59992 23.3612 1.75213 22.5628 1.37842C21.9821 1.10658 21.3007 1.16197 20.7717 1.52402C20.3695 1.79926 20.101 2.22049 20.015 2.68734C19.1881 2.30416 18.3859 2.18195 17.748 2.24446C17.1248 2.30554 16.5775 2.684 16.3011 3.24501C16.0247 3.80604 16.0585 4.46986 16.3904 5C16.6245 5.37392 16.9535 6.04411 17.1244 6.72794C17.3105 7.47252 16.7463 7.90971 16.1442 7.90971L16.1439 7.91019H15.4212C15.4064 7.90986 15.3913 7.90971 15.3758 7.90971L15.3758 7.91019H4.84333C2.65549 7.91019 0.90567 9.67723 0.90567 11.8537L0.905728 28.2678C0.905728 29.0716 1.27773 29.8649 2.00047 30.3581L2.01488 30.3679L2.02948 30.3775C3.15518 31.1143 4.7281 30.8643 5.52031 29.6732L7.55554 26.6545C7.5662 26.6387 7.57474 26.6301 7.59943 26.6184C7.63207 26.6031 7.70724 26.5783 7.83491 26.5783H19.8738C22.0455 26.5783 23.826 24.8273 23.826 22.6348Z" fill="url(#paint0_linear_4667_111)"/>
<path fill-rule="evenodd" clip-rule="evenodd" d="M3.02142 28.8666C2.82474 28.7323 2.71514 28.5156 2.71514 28.2678L2.71509 11.8537C2.71509 10.6665 3.66323 9.71677 4.8433 9.71677H19.8737C21.0641 9.71677 22.0165 10.6768 22.0165 11.8537V22.6348C22.0165 23.822 21.0538 24.7717 19.8737 24.7717H7.83488C7.12062 24.7717 6.45812 25.0469 6.05441 25.6457L4.01517 28.6704C3.79778 29.0008 3.35268 29.0833 3.02142 28.8666Z" fill="#FF8833"/>
<path d="M23.5715 10.458C24.7421 9.94267 26.6658 10.1103 29.2847 10.7105C28.5327 9.51535 27.3382 9.06551 25.9245 8.91366C26.8192 8.28009 28.4837 7.96848 29.2015 7.90617C27.557 6.56021 25.3014 7.17911 24.4461 7.63176C25.1757 6.88619 26.4999 5.94793 27.433 5.72498C25.6479 5.15167 24.0329 5.9639 23.4486 6.44166C23.3379 4.26726 22.2998 3.25063 21.7945 3.01411C21.8449 3.73772 21.8447 5.44456 21.4408 6.4832C20.2507 4.3715 18.6008 3.97612 17.9246 4.04239C18.427 4.84489 19.1884 6.52236 19.0175 7.91019H19.8738C21.5712 7.91019 23.0083 8.97177 23.5715 10.458Z" fill="#5CD65C"/>
<path d="M17.8555 12.6792H6.87606C6.37588 12.6792 5.9704 13.0847 5.9704 13.5849C5.9704 14.0851 6.37588 14.4906 6.87606 14.4906H17.8555C18.3557 14.4906 18.7612 14.0851 18.7612 13.5849C18.7612 13.0847 18.3557 12.6792 17.8555 12.6792Z" fill="#B34A01"/>
<path d="M16.1522 16.3019H8.57937C8.07918 16.3019 7.67371 16.7074 7.67371 17.2075C7.67371 17.7077 8.07918 18.1132 8.57937 18.1132H16.1522C16.6524 18.1132 17.0579 17.7077 17.0579 17.2075C17.0579 16.7074 16.6524 16.3019 16.1522 16.3019Z" fill="#B34A01"/>
<path d="M14.0262 19.9245H10.7054C10.2052 19.9245 9.79974 20.33 9.79974 20.8302C9.79974 21.3304 10.2052 21.7359 10.7054 21.7359H14.0262C14.5263 21.7359 14.9318 21.3304 14.9318 20.8302C14.9318 20.33 14.5263 19.9245 14.0262 19.9245Z" fill="#B34A01"/>
<defs>
<linearGradient id="paint0_linear_4667_111" x1="23.3962" y1="6.49057" x2="18.717" y2="13.5849" gradientUnits="userSpaceOnUse">
<stop stop-color="#2D862D"/>
<stop offset="1" stop-color="#B34A00"/>
</linearGradient>
</defs>
</svg>
