<svg width="32" height="32" viewBox="0 0 32 32" fill="none" xmlns="http://www.w3.org/2000/svg">
<g clip-path="url(#clip0_4347_197)">
<path d="M29.3333 0H2.66667C1.19391 0 0 1.19391 0 2.66667V29.3333C0 30.8061 1.19391 32 2.66667 32H29.3333C30.8061 32 32 30.8061 32 29.3333V2.66667C32 1.19391 30.8061 0 29.3333 0Z" fill="#0D61AB"/>
<path d="M29.2267 23.86C29.2267 24.4933 28.9867 25.0333 28.5067 25.4867C28.0267 25.94 27.4933 26.1667 26.9133 26.1667C26.18 26.1667 25.56 25.84 25.06 25.18L20.5133 19.5333L16.08 25.18C15.8533 25.48 15.58 25.72 15.2667 25.88C14.9533 26.0467 14.6133 26.1267 14.26 26.1267C13.7267 26.1267 13.2267 25.9267 12.7467 25.52C12.2667 25.1133 12.0267 24.6467 12.0267 24.12C12.0267 23.5933 12.2133 23.1333 12.5933 22.68L17.86 16.24L12.4067 9.45999C12.08 9.05333 11.9133 8.59999 11.9133 8.09333C11.9133 7.45999 12.1467 6.92666 12.6133 6.48666C13.08 6.04666 13.62 5.82666 14.22 5.82666C14.9533 5.82666 15.5733 6.13999 16.0733 6.77333L20.7333 12.5667L25.0533 6.84666C25.5333 6.16666 26.14 5.82666 26.8733 5.82666C27.48 5.82666 27.9933 6.03333 28.4067 6.45333C28.8267 6.86666 29.0333 7.33999 29.0333 7.87333C29.0333 8.40666 28.8533 8.91999 28.5 9.34666L23.2733 15.7133L28.7267 22.4933C29.0533 22.9 29.22 23.3533 29.22 23.86H29.2267Z" fill="white"/>
<path d="M6.94 25.1866C6.71333 25.4866 6.44 25.7266 6.12667 25.8866C5.81333 26.0533 5.47333 26.1333 5.12 26.1333C4.58667 26.1333 4.08667 25.9333 3.60667 25.5266C3.12667 25.12 2.88667 24.6533 2.88667 24.1266C2.88667 23.6 3.07333 23.14 3.45333 22.6866L8.72 16.2466L3.26667 9.46665C2.94 9.05998 2.77333 8.60665 2.77333 8.09998C2.77333 7.46665 3.00667 6.93331 3.47333 6.49331C3.94 6.05331 4.48 5.83331 5.08 5.83331C5.81333 5.83331 6.43333 6.14665 6.93333 6.77998L14.1333 15.72L6.93333 25.1866H6.94Z" fill="white"/>
</g>
<defs>
<clipPath id="clip0_4347_197">
<rect width="32" height="32" fill="white"/>
</clipPath>
</defs>
</svg>
