<svg width="32" height="32" viewBox="0 0 32 32" fill="none" xmlns="http://www.w3.org/2000/svg">
<path fill-rule="evenodd" clip-rule="evenodd" d="M27.9117 16.9844L24.7769 10.0531C24.6974 9.87778 24.6554 9.68829 24.6533 9.49634C24.6513 9.30439 24.6893 9.11407 24.765 8.93718C24.8407 8.76027 24.9525 8.60056 25.0935 8.46791C25.2345 8.33527 25.4017 8.23253 25.5846 8.16605L27.9109 7.32104L27.9117 16.9844ZM23.7023 22.0826L24.7292 19.922L21.3323 15.4711L6.66939 23.5929H23.4942C23.406 23.0803 23.4788 22.5534 23.7031 22.0826H23.7023ZM30.697 6.35408C30.6754 6.33008 30.6466 6.31345 30.6148 6.30657C30.583 6.29968 30.5498 6.30291 30.5199 6.31577L28.667 7.03963V10.8754L30.7256 6.53074C30.7398 6.50195 30.7446 6.46958 30.7395 6.43799C30.7344 6.40639 30.7196 6.37711 30.697 6.35408ZM24.2281 11.1646L21.9106 14.9324L27.4058 20.4153L24.2281 11.1646ZM4.32328 25.2524L7.26192 24.2792L1.45455 24.1229L1.54906 24.2729C1.8305 24.7208 2.25789 25.0616 2.76144 25.2396C3.26501 25.4177 3.81501 25.4225 4.32169 25.2532L4.32328 25.2524ZM24.3996 23.965C24.5201 24.2087 24.6947 24.4227 24.9106 24.591C25.1264 24.7593 25.3779 24.8777 25.6466 24.9374L29.0339 25.6972L25.2216 20.6357L24.3838 22.3984C24.2669 22.6434 24.2075 22.9111 24.2099 23.1816C24.2122 23.4522 24.2762 23.7189 24.3972 23.9618" fill="#394074"/>
</svg>
