<svg width="32" height="32" viewBox="0 0 32 32" fill="none" xmlns="http://www.w3.org/2000/svg">
<path fill-rule="evenodd" clip-rule="evenodd" d="M14.7851 32V26.2701C20.8501 26.2701 25.5581 20.2555 23.229 13.872C22.8013 12.6993 22.1223 11.6343 21.2397 10.7515C20.3571 9.86881 19.2921 9.18973 18.1195 8.76186C11.736 6.44996 5.72137 11.1408 5.72137 17.2058H0.00805664C0.00805664 7.53948 9.35706 2.18948e-05 19.4931 3.16598C23.9164 4.55739 27.4513 8.07505 28.8255 12.499C31.992 22.651 24.4692 32 14.7851 32Z" fill="#0080FF"/>
<path fill-rule="evenodd" clip-rule="evenodd" d="M9.10564 26.2867H14.8018V20.5906H9.10624L9.10564 26.2867ZM4.71613 30.6762H9.10505V26.2873H4.71613V30.6762ZM1.04663 26.2873H4.71613V22.6172H1.04663V26.2873Z" fill="#0080FF"/>
</svg>
