<svg width="32" height="32" viewBox="0 0 32 32" fill="none" xmlns="http://www.w3.org/2000/svg">
<mask id="mask0_4678_38" style="mask-type:luminance" maskUnits="userSpaceOnUse" x="2" y="5" width="28" height="22">
<path d="M29.9429 5.25714H2.05714V26.7429H29.9429V5.25714Z" fill="white"/>
</mask>
<g mask="url(#mask0_4678_38)">
<path d="M29.4857 19.325C29.4857 11.877 23.448 5.83925 16 5.83925C8.55204 5.83925 2.51428 11.877 2.51428 19.325C2.51428 26.773 8.84011 26.1479 16.2881 26.1479C23.736 26.1479 29.4857 26.773 29.4857 19.325Z" fill="#2ECE53"/>
<g filter="url(#filter0_i_4678_38)">
<path d="M29.4857 19.325C29.4857 11.877 23.448 5.83925 16 5.83925C8.55204 5.83925 2.51428 11.877 2.51428 19.325C2.51428 26.773 8.84011 26.1479 16.2881 26.1479C23.736 26.1479 29.4857 26.773 29.4857 19.325Z" fill="#3DDD62"/>
</g>
<path d="M29.4857 19.325C29.4857 11.877 23.448 5.83925 16 5.83925C8.55204 5.83925 2.51428 11.877 2.51428 19.325C2.51428 26.773 8.84011 26.1479 16.2881 26.1479C23.736 26.1479 29.4857 26.773 29.4857 19.325Z" stroke="#0E1320"/>
<path d="M11.4286 16C12.3122 16 13.0286 15.2837 13.0286 14.4C13.0286 13.5163 12.3122 12.8 11.4286 12.8C10.5449 12.8 9.82857 13.5163 9.82857 14.4C9.82857 15.2837 10.5449 16 11.4286 16Z" fill="black"/>
<path d="M21.4857 16C22.3694 16 23.0857 15.2837 23.0857 14.4C23.0857 13.5163 22.3694 12.8 21.4857 12.8C20.6021 12.8 19.8857 13.5163 19.8857 14.4C19.8857 15.2837 20.6021 16 21.4857 16Z" fill="black"/>
<path d="M5.71428 14.8571C5.96676 14.8571 6.17143 14.6525 6.17143 14.4C6.17143 14.1475 5.96676 13.9429 5.71428 13.9429C5.4618 13.9429 5.25714 14.1475 5.25714 14.4C5.25714 14.6525 5.4618 14.8571 5.71428 14.8571Z" fill="white"/>
<path fill-rule="evenodd" clip-rule="evenodd" d="M11.595 9.19746C11.7058 9.14064 11.7279 9.01927 11.6413 8.92311L11.3383 8.58658C11.253 8.49188 11.0912 8.46187 10.9813 8.51842C10.9813 8.51842 10.1012 8.95149 9.35396 9.47817C8.60674 10.0048 8.60992 10.0208 8.31895 10.2827C7.50987 11.0112 6.21924 12.8221 6.21924 12.8221C6.14679 12.9223 6.15586 13.0787 6.24244 13.1749L6.54546 13.5114C6.63072 13.6061 6.75485 13.5981 6.82498 13.4919C6.82498 13.4919 7.35979 12.6507 7.99821 11.9104C8.63666 11.1701 8.40192 11.4406 8.8602 10.9502C9.53545 10.2275 11.595 9.19746 11.595 9.19746Z" fill="white"/>
<path fill-rule="evenodd" clip-rule="evenodd" d="M16.1143 23.6126C18.3234 23.6126 20.1143 21.8217 20.1143 19.6126C20.1143 17.4034 18.4431 18.6198 16.234 18.6198C14.0249 18.6198 12.1143 17.4034 12.1143 19.6126C12.1143 21.8217 13.9051 23.6126 16.1143 23.6126Z" fill="black"/>
</g>
<defs>
<filter id="filter0_i_4678_38" x="2.51428" y="1.83925" width="30.9714" height="24.3216" filterUnits="userSpaceOnUse" color-interpolation-filters="sRGB">
<feFlood flood-opacity="0" result="BackgroundImageFix"/>
<feBlend mode="normal" in="SourceGraphic" in2="BackgroundImageFix" result="shape"/>
<feColorMatrix in="SourceAlpha" type="matrix" values="0 0 0 0 0 0 0 0 0 0 0 0 0 0 0 0 0 0 127 0" result="hardAlpha"/>
<feOffset dx="7" dy="-10"/>
<feGaussianBlur stdDeviation="2"/>
<feComposite in2="hardAlpha" operator="arithmetic" k2="-1" k3="1"/>
<feColorMatrix type="matrix" values="0 0 0 0 0 0 0 0 0 0 0 0 0 0 0 0 0 0 0.1 0"/>
<feBlend mode="normal" in2="shape" result="effect1_innerShadow_4678_38"/>
</filter>
</defs>
</svg>
