<svg width="32" height="32" viewBox="0 0 32 32" fill="none" xmlns="http://www.w3.org/2000/svg">
<path fill-rule="evenodd" clip-rule="evenodd" d="M19.177 18.8191C21.0379 17.2143 21.979 15.6737 21.979 14.2187C22.0067 13.8312 21.9551 13.4423 21.8274 13.0755C21.6997 12.7087 21.4986 12.3718 21.2364 12.0854C20.9741 11.799 20.6562 11.5691 20.3021 11.4098C19.9481 11.2505 19.5652 11.1651 19.177 11.1588C18.6011 11.1167 18.0238 11.2197 17.4979 11.4584C17.2047 11.5925 16.9397 11.7813 16.7172 12.0147L16.0007 12.7422L15.2948 12.0147C15.069 11.7879 14.8047 11.6031 14.5141 11.4691C13.9877 11.2314 13.4116 11.1249 12.835 11.1588C12.445 11.1605 12.0595 11.2428 11.7027 11.4004C11.3459 11.558 11.0254 11.7876 10.7614 12.0749C10.4973 12.3621 10.2954 12.7007 10.1683 13.0696C10.0411 13.4385 9.99141 13.8297 10.0223 14.2187C10.0223 15.6737 10.9635 17.2143 12.8243 18.8191C13.8164 19.6423 14.8917 20.3594 16.0328 20.9589C17.1516 20.3556 18.2052 19.6386 19.177 18.8191Z" fill="#F70059"/>
<path d="M32 1.54062V30.4808C31.9954 30.8823 31.8342 31.2662 31.5508 31.5507C31.411 31.6925 31.2446 31.8052 31.061 31.8823C30.8774 31.9594 30.6804 31.9994 30.4813 32H1.53069C1.12693 32 0.739549 31.8403 0.453046 31.5557C0.166543 31.2711 0.00417039 30.8847 0.00134688 30.4808V1.59412C-0.00731135 1.38787 0.0258431 1.182 0.098814 0.988908C0.171785 0.795815 0.283063 0.619493 0.425948 0.470557C0.568833 0.321621 0.740369 0.203152 0.930228 0.122283C1.12009 0.0414145 1.32434 -0.000181198 1.53069 5.93312e-07H16.0435C16.45 0.00282526 16.839 0.166386 17.1255 0.455004C17.412 0.743621 17.5728 1.13387 17.5728 1.54062V6.0234C17.5693 6.4252 17.408 6.8095 17.1236 7.09328C16.9862 7.24414 16.8196 7.36555 16.634 7.45014C16.4483 7.53473 16.2474 7.58075 16.0435 7.58542C15.6378 7.58542 15.2488 7.42424 14.962 7.13732C14.6752 6.8504 14.5141 6.46126 14.5141 6.0555V3.07055H3.07074V28.9829H28.9413V3.07055H24.7276C24.5285 3.06998 24.3315 3.02998 24.1479 2.95286C23.9644 2.87574 23.7979 2.76301 23.6581 2.6212C23.4468 2.40649 23.3031 2.13451 23.2447 1.83893C23.1863 1.54334 23.2159 1.23713 23.3297 0.958172C23.4435 0.679217 23.6366 0.439771 23.8851 0.269467C24.1335 0.0991627 24.4264 0.0054757 24.7276 5.93312e-07H30.4707C30.8772 0.00282526 31.2662 0.166386 31.5527 0.455004C31.8392 0.743621 32 1.13387 32 1.54062Z" fill="#056BBF"/>
</svg>
