<svg width="32" height="32" viewBox="0 0 32 32" fill="none" xmlns="http://www.w3.org/2000/svg">
<path fill-rule="evenodd" clip-rule="evenodd" d="M1.6 5.27185L3.51693 7.21303C4.12646 7.83031 4.83459 8.54391 5.6 9.31303V12.4862C4.99168 11.8766 4.39946 11.2824 3.84 10.72V26.1557L6.72 23.3656V0.320007H8.96V10.32H22.72V0.320007H24.96V10.5562C26.2156 9.31274 27.3875 8.14855 28.328 7.20804L30.24 5.2961V31.824L22.72 24.3039V17.4145L24.96 15.1745V23.3761L28 26.4161V10.6963C23.9587 14.7094 19.8985 18.7035 15.8353 22.6945C13.5413 20.414 11.2491 18.1316 8.96 15.8462V24.3144L1.6 31.4445V5.27185ZM22.72 12.4861H8.96L15.8447 19.545L22.72 12.4861Z" fill="black"/>
</svg>
