<svg width="32" height="32" viewBox="0 0 32 32" fill="none" xmlns="http://www.w3.org/2000/svg">
<path d="M23.1151 13.5764C23.61 16.383 22.0542 18.3484 19.153 18.86C16.9365 19.2508 15.0729 18.5879 14.1963 17.0358C14.0908 16.8491 14.0703 16.6262 14.1394 16.4231C14.2086 16.2201 14.3611 16.0555 14.5587 15.9722L15.8562 15.4256C16.1649 15.2956 16.5216 15.3854 16.7324 15.6457C17.1199 16.1245 17.7497 16.392 18.578 16.246C19.7606 16.0374 20.4029 15.16 20.1888 13.946L19.4047 9.4992L14.8628 10.3001C14.4538 10.3722 14.0638 10.0991 13.9917 9.69012L13.8052 8.63268C13.7331 8.22368 14.0062 7.83368 14.4152 7.76156L21.1178 6.57972C21.5268 6.5076 21.9168 6.78068 21.9889 7.18968L23.1151 13.5764ZM28.7983 4.63408C28.2606 1.58461 25.3526 -0.451592 22.3031 0.0861175L10.2341 2.2142C8.76968 2.47242 7.4678 3.30182 6.61488 4.51988L2.00227 11.1074C1.14935 12.3255 0.815263 13.8325 1.07349 15.2969L3.20157 27.3659C3.73927 30.4154 6.64728 32.4516 9.69676 31.9139L21.7658 29.7858C23.2302 29.5276 24.5321 28.6982 25.385 27.4801L29.9976 20.8926C30.8505 19.6746 31.1846 18.1675 30.9264 16.7031L28.7983 4.63408ZM28.7316 17.171C29.0542 19.0007 27.8325 20.7455 26.0028 21.0681L13.8553 23.2101C12.0256 23.5327 10.2808 22.311 9.9582 20.4813L7.81624 8.3338C7.49364 6.50412 8.71536 4.75932 10.545 4.43668L22.6926 2.29475C24.5222 1.97213 26.267 3.19384 26.5897 5.02356L28.7316 17.171Z" fill="#6968F4"/>
</svg>
