<svg width="32" height="32" viewBox="0 0 32 32" fill="none" xmlns="http://www.w3.org/2000/svg">
<path fill-rule="evenodd" clip-rule="evenodd" d="M12.7242 19.3978L20.7362 23.1021C21.7293 23.5614 22.4302 24.3322 22.8087 25.2165C23.7662 27.4558 22.4576 29.7459 20.4034 30.5696C18.3488 31.3928 16.1591 30.863 15.1635 28.5344L11.6767 20.3589C11.4065 19.7252 12.0852 19.1025 12.7242 19.3978Z" fill="#FFC233"/>
<path fill-rule="evenodd" clip-rule="evenodd" d="M13.2042 17.0002L21.4748 13.8738C24.2235 12.8348 27.226 14.8007 27.1855 17.6573C27.1849 17.6946 27.1842 17.7318 27.1833 17.7695C27.1238 20.5511 24.2048 22.4208 21.5165 21.4367L13.2121 18.3972C12.5496 18.1549 12.5447 17.2495 13.2042 17.0002Z" fill="#FFC233"/>
<path fill-rule="evenodd" clip-rule="evenodd" d="M12.7414 15.917L20.8716 12.4624C23.5733 11.3143 24.2589 7.86855 22.143 5.8776C22.1153 5.85138 22.0875 5.82547 22.0595 5.79957C19.9849 3.87401 16.5556 4.55199 15.3746 7.08822L11.7262 14.9241C11.4351 15.5489 12.093 16.1924 12.7414 15.917Z" fill="#FFC233"/>
<path fill-rule="evenodd" clip-rule="evenodd" d="M10.649 14.5523L13.6049 6.44732C13.9714 5.44236 13.9035 4.41751 13.5246 3.53324C12.5652 1.29493 9.96695 0.57241 7.91302 1.39728C5.85942 2.22248 4.69899 4.09654 5.69658 6.42426L9.20627 14.5908C9.47843 15.2237 10.4134 15.1987 10.649 14.5523Z" fill="#FFC233"/>
</svg>
