<svg width="32" height="32" viewBox="0 0 32 32" fill="none" xmlns="http://www.w3.org/2000/svg">
<g clip-path="url(#clip0_3325_812)">
<path d="M13.1522 0.746094L12.9888 0.844937C12.7288 1.00217 12.484 1.17798 12.2555 1.37007L12.7268 1.03853H16.7273L17.4546 6.54545L13.8182 10.1818L10.1819 12.7094V15.6239C10.1819 17.6596 11.2458 19.5472 12.9872 20.6013L16.8154 22.9185L8.72732 27.6365H7.16739L4.25995 25.8767C2.51849 24.8225 1.45459 22.9349 1.45459 20.8993V11.0986C1.45459 9.06233 2.51916 7.17418 4.26151 6.12029L12.9888 0.841359C13.0429 0.808646 13.0974 0.776894 13.1522 0.746094Z" fill="url(#paint0_radial_3325_812)"/>
<path d="M13.1522 0.746094L12.9888 0.844937C12.7288 1.00217 12.484 1.17798 12.2555 1.37007L12.7268 1.03853H16.7273L17.4546 6.54545L13.8182 10.1818L10.1819 12.7094V15.6239C10.1819 17.6596 11.2458 19.5472 12.9872 20.6013L16.8154 22.9185L8.72732 27.6365H7.16739L4.25995 25.8767C2.51849 24.8225 1.45459 22.9349 1.45459 20.8993V11.0986C1.45459 9.06233 2.51916 7.17418 4.26151 6.12029L12.9888 0.841359C13.0429 0.808646 13.0974 0.776894 13.1522 0.746094Z" fill="url(#paint1_linear_3325_812)"/>
<path d="M21.8182 12.3635V15.6219C21.8182 17.6576 20.7542 19.5452 19.0128 20.5993L10.2855 25.8819C8.50019 26.9626 6.27889 27.0016 4.46216 25.9989L12.9871 31.1592C14.8392 32.2803 17.1606 32.2803 19.0128 31.1592L27.7401 25.8765C29.4815 24.8224 30.5454 22.9347 30.5454 20.8991V18.5453L29.8181 17.4544L21.8182 12.3635Z" fill="url(#paint2_radial_3325_812)"/>
<path d="M21.8182 12.3635V15.6219C21.8182 17.6576 20.7542 19.5452 19.0128 20.5993L10.2855 25.8819C8.50019 26.9626 6.27889 27.0016 4.46216 25.9989L12.9871 31.1592C14.8392 32.2803 17.1606 32.2803 19.0128 31.1592L27.7401 25.8765C29.4815 24.8224 30.5454 22.9347 30.5454 20.8991V18.5453L29.8181 17.4544L21.8182 12.3635Z" fill="url(#paint3_linear_3325_812)"/>
<path d="M27.7386 6.12026L19.0113 0.841339C17.2174 -0.243803 14.9834 -0.277417 13.1622 0.740488L12.9888 0.845361C11.2465 1.89927 10.1819 3.78737 10.1819 5.82368V12.7211L12.9888 11.0232C14.8401 9.90339 17.16 9.90339 19.0113 11.0232L27.7386 16.3021C29.4265 17.3231 30.4783 19.1269 30.5424 21.0899C30.5445 21.0264 30.5455 20.963 30.5455 20.8992V11.0986C30.5455 9.0623 29.4809 7.17415 27.7386 6.12026Z" fill="url(#paint4_radial_3325_812)"/>
<path d="M27.7386 6.12026L19.0113 0.841339C17.2174 -0.243803 14.9834 -0.277417 13.1622 0.740488L12.9888 0.845361C11.2465 1.89927 10.1819 3.78737 10.1819 5.82368V12.7211L12.9888 11.0232C14.8401 9.90339 17.16 9.90339 19.0113 11.0232L27.7386 16.3021C29.4265 17.3231 30.4783 19.1269 30.5424 21.0899C30.5445 21.0264 30.5455 20.963 30.5455 20.8992V11.0986C30.5455 9.0623 29.4809 7.17415 27.7386 6.12026Z" fill="url(#paint5_linear_3325_812)"/>
</g>
<defs>
<radialGradient id="paint0_radial_3325_812" cx="0" cy="0" r="1" gradientUnits="userSpaceOnUse" gradientTransform="translate(11.2136 6.2824) rotate(110.528) scale(24.266 42.3248)">
<stop offset="0.06441" stop-color="#AE7FE2"/>
<stop offset="1" stop-color="#0078D4"/>
</radialGradient>
<linearGradient id="paint1_linear_3325_812" x1="11.2814" y1="26.0862" x2="7.81917" y2="20.098" gradientUnits="userSpaceOnUse">
<stop stop-color="#114A8B"/>
<stop offset="1" stop-color="#0078D4" stop-opacity="0"/>
</linearGradient>
<radialGradient id="paint2_radial_3325_812" cx="0" cy="0" r="1" gradientUnits="userSpaceOnUse" gradientTransform="translate(6.13081 24.9825) rotate(-8.36717) scale(22.582 14.9169)">
<stop offset="0.133928" stop-color="#D59DFF"/>
<stop offset="1" stop-color="#5E438F"/>
</radialGradient>
<linearGradient id="paint3_linear_3325_812" x1="27.8957" y1="17.0012" x2="24.1856" y2="22.3211" gradientUnits="userSpaceOnUse">
<stop stop-color="#493474"/>
<stop offset="1" stop-color="#8C66BA" stop-opacity="0"/>
</linearGradient>
<radialGradient id="paint4_radial_3325_812" cx="0" cy="0" r="1" gradientUnits="userSpaceOnUse" gradientTransform="translate(28.4038 17.8211) rotate(-165.772) scale(18.1257 30.5129)">
<stop offset="0.0584996" stop-color="#50E6FF"/>
<stop offset="1" stop-color="#436DCD"/>
</radialGradient>
<linearGradient id="paint5_linear_3325_812" x1="10.8916" y1="0.768444" x2="16.3541" y2="0.768444" gradientUnits="userSpaceOnUse">
<stop stop-color="#2D3F80"/>
<stop offset="1" stop-color="#436DCD" stop-opacity="0"/>
</linearGradient>
<clipPath id="clip0_3325_812">
<rect width="29.0909" height="32" fill="white" transform="translate(1.45459)"/>
</clipPath>
</defs>
</svg>
