<svg width="32" height="32" viewBox="0 0 32 32" fill="none" xmlns="http://www.w3.org/2000/svg">
<path fill-rule="evenodd" clip-rule="evenodd" d="M15.3189 15.7763C17.3843 13.8085 16.7541 11.3746 14.8834 8.42529C13.0128 5.47603 9.24722 4.42678 8.54475 5.0961C7.84222 5.7654 7.68651 10.5507 9.55717 13.5C11.4278 16.4492 13.2534 17.7442 15.3189 15.7763Z" fill="url(#paint0_linear_5816_106)"/>
<path fill-rule="evenodd" clip-rule="evenodd" d="M17.1047 16.0487C18.6328 18.4578 20.6756 17.5769 23.2041 15.1678C25.7327 12.7587 26.7811 8.14388 26.2614 7.32455C25.7417 6.50515 21.7923 6.54623 19.2637 8.95533C16.7352 11.3644 15.5767 13.6396 17.1047 16.0487Z" fill="url(#paint1_linear_5816_106)"/>
<path fill-rule="evenodd" clip-rule="evenodd" d="M16.2692 14.7234C18.8065 15.0349 19.8042 12.6909 20.2695 8.90198C20.7347 5.11302 18.8169 1.10836 17.9539 1.0024C17.091 0.896446 14.1918 4.30965 13.7266 8.09859C13.2614 11.8875 13.732 14.4118 16.2692 14.7234Z" fill="url(#paint2_linear_5816_106)"/>
<path fill-rule="evenodd" clip-rule="evenodd" d="M15.6302 31.479C20.9499 31.479 25.264 29.9337 25.264 22.9257C25.264 15.9177 20.9499 10.167 15.6302 10.167C10.3107 10.167 6 15.9177 6 22.9257C6 29.9337 10.3107 31.479 15.6302 31.479Z" fill="url(#paint3_linear_5816_106)"/>
<path d="M20.496 21.495C21.2559 21.495 21.872 21.2085 21.872 20.855C21.872 20.5016 21.2559 20.215 20.496 20.215C19.736 20.215 19.12 20.5016 19.12 20.855C19.12 21.2085 19.736 21.495 20.496 21.495Z" fill="#EAADCC"/>
<path d="M10.306 21.1062C11.0603 21.1989 11.7067 20.9895 11.7498 20.6387C11.7928 20.2879 11.2163 19.9284 10.462 19.8358C9.70773 19.7431 9.06133 19.9525 9.01826 20.3033C8.97519 20.6541 9.55176 21.0136 10.306 21.1062Z" fill="#EAADCC"/>
<path d="M16.5118 20.6284C16.0977 20.965 15.6193 21.1022 15.0768 21.0402C14.5342 20.9782 14.1321 20.7531 13.8704 20.3646" stroke="black" stroke-linecap="round" stroke-linejoin="round"/>
<path fill-rule="evenodd" clip-rule="evenodd" d="M11.1829 17.2978C11.5626 17.2846 11.9118 17.4264 12.1694 17.6666C12.427 17.9068 12.5929 18.2451 12.6062 18.6249C12.6194 19.0047 12.4775 19.3539 12.2373 19.6114C11.9971 19.8689 11.6587 20.0348 11.2789 20.0481C10.8992 20.0614 10.55 19.9195 10.2925 19.6793C10.035 19.4391 9.86908 19.1007 9.85583 18.7209C9.84258 18.3412 9.98447 17.992 10.2246 17.7345C10.4648 17.4769 10.8032 17.3111 11.1829 17.2978Z" fill="black"/>
<path fill-rule="evenodd" clip-rule="evenodd" d="M11.2551 18.4479C11.2465 18.2007 11.0389 18.0072 10.7918 18.0159C10.5445 18.0245 10.351 18.232 10.3597 18.4792C10.3683 18.7265 10.5758 18.9199 10.8231 18.9113C11.0702 18.9026 11.2638 18.6952 11.2551 18.4479Z" fill="white"/>
<path fill-rule="evenodd" clip-rule="evenodd" d="M19.5203 17.647C19.9 17.6338 20.2492 17.7757 20.5067 18.0158C20.7642 18.256 20.9302 18.5944 20.9434 18.9742C20.9567 19.3539 20.8148 19.7031 20.5746 19.9606C20.3345 20.2182 19.996 20.3841 19.6163 20.3974C19.2365 20.4106 18.8874 20.2687 18.6298 20.0286C18.3723 19.7884 18.2063 19.4499 18.1931 19.0702C18.1798 18.6904 18.3217 18.3413 18.5619 18.0838C18.802 17.8262 19.1405 17.6603 19.5203 17.647Z" fill="black"/>
<path d="M12.4143 18.6316C12.4371 19.2852 11.9258 19.8334 11.2723 19.8562C10.6188 19.879 10.0705 19.3678 10.0477 18.7142C10.0249 18.0607 10.5361 17.5125 11.1896 17.4897C11.8431 17.4668 12.3914 17.978 12.4143 18.6316ZM12.798 18.6182C12.7678 17.7527 12.0417 17.0756 11.1762 17.1059C10.3107 17.1361 9.63373 17.8621 9.66394 18.7276C9.69415 19.5931 10.4202 20.2702 11.2856 20.24C12.1512 20.2098 12.8282 19.4837 12.798 18.6182Z" fill="white" stroke="white" stroke-width="0.5"/>
<path d="M20.7515 18.9808C20.7743 19.6344 20.2631 20.1826 19.6096 20.2054C18.9561 20.2283 18.4078 19.717 18.3849 19.0635C18.3622 18.41 18.8734 17.8617 19.5269 17.8389C20.1805 17.8161 20.7287 18.3273 20.7515 18.9808ZM21.1353 18.9674C21.1051 18.1019 20.379 17.4249 19.5135 17.4552C18.648 17.4854 17.971 18.2114 18.0012 19.0769C18.0314 19.9424 18.7575 20.6194 19.623 20.5892C20.4885 20.559 21.1655 19.8329 21.1353 18.9674Z" fill="white" stroke="white" stroke-width="0.5"/>
<path fill-rule="evenodd" clip-rule="evenodd" d="M19.5923 18.7972C19.5837 18.5499 19.3763 18.3565 19.129 18.3651C18.8817 18.3737 18.6883 18.5812 18.6969 18.8285C18.7055 19.0757 18.913 19.2692 19.1603 19.2605C19.4075 19.252 19.601 19.0445 19.5923 18.7972Z" fill="white"/>
<path d="M8.33606 23.575L13.0721 28.503" stroke="#ECB732" stroke-linecap="round"/>
<path d="M12.432 24.151L9.42395 27.351" stroke="#ECB732" stroke-linecap="round"/>
<path d="M22.8641 23.575L18.1281 28.503" stroke="#ECB732" stroke-linecap="round"/>
<path d="M18.7679 24.151L21.7759 27.351" stroke="#ECB732" stroke-linecap="round"/>
<path d="M17.552 12.695L14.416 15.831" stroke="#FFC73B" stroke-linecap="round"/>
<path d="M16.912 15.831L13.776 12.695" stroke="#FFC73B" stroke-linecap="round"/>
<defs>
<linearGradient id="paint0_linear_5816_106" x1="1039.92" y1="-800.7" x2="1895.27" y2="1592.46" gradientUnits="userSpaceOnUse">
<stop stop-color="#52CE63"/>
<stop offset="1" stop-color="#51A256"/>
</linearGradient>
<linearGradient id="paint1_linear_5816_106" x1="833.514" y1="1040.55" x2="-1559.86" y2="1895.48" gradientUnits="userSpaceOnUse">
<stop stop-color="#52CE63"/>
<stop offset="1" stop-color="#51A256"/>
</linearGradient>
<linearGradient id="paint2_linear_5816_106" x1="1058.24" y1="128.733" x2="585.62" y2="3977.86" gradientUnits="userSpaceOnUse">
<stop stop-color="#8AE99C"/>
<stop offset="1" stop-color="#52CE63"/>
</linearGradient>
<linearGradient id="paint3_linear_5816_106" x1="3163.27" y1="1786.39" x2="2652.7" y2="10170.3" gradientUnits="userSpaceOnUse">
<stop stop-color="#FFE56C"/>
<stop offset="1" stop-color="#FFC63A"/>
</linearGradient>
</defs>
</svg>
