<svg width="32" height="32" viewBox="0 0 32 32" fill="none" xmlns="http://www.w3.org/2000/svg">
<path d="M28.9067 15.5135C28.9067 15.5306 28.8997 15.5173 28.8997 15.5173C28.8997 15.5173 28.888 16.0175 28.8709 16.2639C28.8343 16.7856 28.7663 17.3046 28.6672 17.8181C28.6517 17.9029 28.6352 17.9877 28.6139 18.0709C28.5925 18.1541 28.5781 18.2389 28.5573 18.3221C28.5339 18.4241 28.5084 18.5253 28.4811 18.6255C28.4555 18.7274 28.4277 18.8277 28.3979 18.9274C28.3942 18.9455 28.3892 18.9633 28.3829 18.9807C28.2944 19.2826 28.1941 19.5834 28.0821 19.8799C28.0416 19.9903 27.9973 20.1007 27.9531 20.2111C27.8645 20.4298 27.768 20.6469 27.6661 20.8645C27.6128 20.9797 27.5541 21.0949 27.496 21.2085C27.3963 21.4053 27.2923 21.5989 27.1819 21.7887L27.0475 22.0266C27.0444 22.0326 27.0408 22.0383 27.0368 22.0437C26.9867 22.1242 26.9333 22.209 26.88 22.2933C26.8176 22.3898 26.7547 22.4853 26.6901 22.5802C26.2411 23.2433 25.7311 23.863 25.1669 24.4314C25.1211 24.4773 25.0768 24.521 25.0309 24.5653L24.9552 24.6399C24.8992 24.6906 24.8432 24.7434 24.7872 24.7962C24.7579 24.8213 24.7312 24.8495 24.7019 24.8741C24.6629 24.9082 24.624 24.9434 24.5835 24.9775C24.4014 25.1386 24.2146 25.2947 24.0229 25.4458C23.9312 25.5173 23.8395 25.5882 23.7445 25.6591C23.6715 25.7125 23.5968 25.7658 23.5221 25.8191C23.4811 25.8463 23.4421 25.8725 23.4032 25.9007C23.3317 25.9514 23.2587 26.001 23.1856 26.0501C23.1787 26.0551 23.1714 26.0595 23.1637 26.0634C23.1548 26.0706 23.1451 26.0768 23.1349 26.0821C23.048 26.1397 22.96 26.1978 22.8715 26.2517C22.7829 26.3055 22.6917 26.3637 22.6 26.4165C22.5829 26.4282 22.5643 26.4383 22.5467 26.4485C22.4549 26.5018 22.36 26.5551 22.2645 26.6085C22.1968 26.649 22.1269 26.6847 22.0592 26.7205C22.0304 26.7354 22.0059 26.7493 21.9776 26.7626C21.9612 26.7726 21.9443 26.7817 21.9269 26.7898C21.8789 26.8154 21.8299 26.8405 21.7808 26.8645C21.7317 26.8885 21.6875 26.9103 21.6395 26.9338C21.5915 26.9573 21.5445 26.9797 21.4971 26.9999C21.4912 27.0031 21.4855 27.0067 21.48 27.0106C21.4139 27.0394 21.3493 27.0698 21.2832 27.0986C21.2171 27.1274 21.1589 27.1519 21.0981 27.1786C21.0149 27.2138 20.9317 27.2511 20.8501 27.2853C20.7968 27.3071 20.7435 27.329 20.6869 27.3498C20.6801 27.3537 20.6727 27.3566 20.6651 27.3583C20.5547 27.4005 20.4443 27.4431 20.3339 27.4821C20.2763 27.5007 20.2219 27.521 20.1659 27.5397L19.9957 27.593C19.8837 27.6303 19.7701 27.6661 19.6544 27.6997C19.4848 27.753 19.3115 27.7983 19.1381 27.8405C18.8053 27.9253 18.4709 27.9951 18.1312 28.0511C18.0533 28.0645 17.9749 28.0783 17.8939 28.0885C17.8881 28.0888 17.8823 28.0899 17.8768 28.0917C17.7936 28.1034 17.7104 28.1135 17.6235 28.1258C17.5589 28.1343 17.4944 28.1407 17.4299 28.1493L17.2843 28.1647C17.0379 28.1903 16.7915 28.2069 16.5419 28.2181C16.4773 28.2181 16.4112 28.2229 16.3435 28.2245C16.1429 28.2314 15.9408 28.2314 15.7387 28.2245C15.6608 28.2245 15.5824 28.2213 15.5045 28.2181C15.416 28.2181 15.3259 28.2111 15.2379 28.2058C15.136 28.201 15.0341 28.1941 14.9317 28.1839C14.8656 28.1791 14.7979 28.1738 14.7317 28.1669C14.6299 28.1567 14.5264 28.1466 14.424 28.1333C14.0203 28.0858 13.6208 28.0197 13.2304 27.9343L13.1168 27.9093C12.7772 27.8293 12.4395 27.7354 12.1035 27.6277C12.0032 27.5967 11.9067 27.5631 11.8096 27.529C11.7467 27.5071 11.6821 27.4847 11.6197 27.4613C11.5227 27.4271 11.4277 27.3914 11.3323 27.3546C11.2491 27.3226 11.1643 27.2901 11.0827 27.2543C11.0117 27.2255 10.9403 27.1951 10.8693 27.1647C10.6827 27.083 10.4994 26.9982 10.3195 26.9103C10.2597 26.8794 10.2005 26.849 10.1408 26.8202C9.92 26.7068 9.70329 26.588 9.49066 26.4639L9.3648 26.3893L9.1968 26.2874C9.12373 26.2399 9.05226 26.1957 8.98346 26.1498C8.97973 26.145 8.9728 26.1434 8.9696 26.1397C8.90026 26.0975 8.83573 26.0517 8.76906 26.0074C8.48373 25.8138 8.20906 25.6122 7.9424 25.3967C7.80106 25.2847 7.6656 25.1711 7.5312 25.0522C7.43946 24.9743 7.35146 24.8922 7.26453 24.8165C7.2224 24.7754 7.17813 24.7349 7.13546 24.6943C7.0928 24.6538 7.04906 24.6111 7.0064 24.5701C6.9216 24.489 6.8384 24.4042 6.7552 24.3194C6.74848 24.3153 6.7431 24.3094 6.73973 24.3023C6.6992 24.2613 6.65866 24.2207 6.6192 24.1765C6.5584 24.1119 6.49706 24.0458 6.43786 23.9781C6.392 23.929 6.34613 23.8799 6.30186 23.8287L6.16106 23.6661C6.15689 23.6605 6.15226 23.6553 6.1472 23.6506L6.04693 23.5301C6.01333 23.4895 5.9792 23.449 5.9488 23.4079C5.9184 23.3669 5.87893 23.3215 5.84533 23.2789C5.8324 23.2648 5.82096 23.2494 5.8112 23.233L5.75786 23.1621C5.7104 23.0991 5.6624 23.0383 5.61706 22.9738C5.55253 22.8853 5.49013 22.7989 5.4288 22.7109L5.39306 22.6575C5.33386 22.5711 5.27253 22.4826 5.21653 22.3946C5.16053 22.3066 5.1008 22.2197 5.0464 22.1317C5.0416 22.1231 5.03466 22.113 5.02773 22.1013C5.0208 22.0895 5.01973 22.0874 5.0144 22.0805C4.96853 22.0058 4.92426 21.9295 4.8784 21.8533C4.85493 21.8127 4.82933 21.7717 4.80533 21.7295C4.75946 21.6495 4.71573 21.5695 4.67146 21.4885C4.61813 21.3866 4.55946 21.2831 4.50666 21.1813C4.39466 20.9626 4.29333 20.7434 4.19253 20.5215C4.17066 20.4741 4.14826 20.4245 4.128 20.377C4.11253 20.3434 4.0992 20.3061 4.08373 20.2703C4.05333 20.1989 4.02453 20.1279 3.99573 20.057C3.98186 20.025 3.97013 19.9909 3.95626 19.9589C3.9344 19.8991 3.9104 19.8399 3.88853 19.7807C3.66328 19.1621 3.485 18.5275 3.3552 17.8821C3.33653 17.7887 3.31946 17.697 3.30186 17.6037C3.26613 17.4186 3.23946 17.2335 3.21546 17.0453C3.20853 17.0047 3.20373 16.9642 3.2 16.9231C3.19626 16.8821 3.18826 16.8298 3.18133 16.7823C3.1744 16.7349 3.1712 16.6874 3.168 16.6399C3.16106 16.5839 3.15626 16.5263 3.15093 16.4703C3.144 16.4058 3.1392 16.3413 3.13546 16.2767V16.2666C3.13066 16.2069 3.12693 16.1477 3.12373 16.0863C3.12053 16.025 3.1184 15.9679 3.1168 15.9066C3.11594 15.8993 3.11594 15.892 3.1168 15.8847C3.1168 15.8591 3.1136 15.8314 3.1136 15.8047C3.1136 15.7674 3.10986 15.7285 3.10986 15.6895C3.10986 15.6421 3.10986 15.593 3.10986 15.545C3.10986 15.5333 3.10986 15.5231 3.10986 15.513V15.3434C3.10986 15.2618 3.10986 15.1786 3.10986 15.0991V15.0853C3.10986 14.9903 3.1152 14.8954 3.1184 14.8021C3.11831 14.7748 3.1201 14.7475 3.12373 14.7205V14.6954C3.12452 14.6835 3.12452 14.6716 3.12373 14.6597C3.12853 14.6154 3.13066 14.5695 3.13226 14.5253C3.13226 14.4965 3.13546 14.4677 3.13706 14.4405C3.13866 14.4133 3.1408 14.3829 3.1424 14.3541C3.16106 14.1285 3.18293 13.9045 3.21386 13.6789C3.22737 13.5722 3.24266 13.4655 3.25973 13.3589C3.27626 13.2469 3.29493 13.1365 3.31573 13.0261C3.50134 12.028 3.80387 11.0552 4.21706 10.1279L4.2208 10.1333L4.24426 10.1669L4.3072 10.2655L4.37333 10.3909C7.81226 15.5733 10.8859 17.0101 13.28 17.161C14.0789 17.2062 14.8801 17.1285 15.6555 16.9306C16.6251 16.6943 17.5589 16.3146 18.5013 15.9125C18.5109 15.9098 18.5201 15.9059 18.5285 15.9007C19.1264 15.6458 19.7259 15.3845 20.3392 15.1471C20.4512 15.1029 20.5648 15.0607 20.6768 15.0181C20.8075 14.9706 20.9381 14.9231 21.0693 14.8789C21.1456 14.8517 21.2219 14.8255 21.2981 14.801C21.3205 14.7941 21.3461 14.7855 21.3696 14.777C21.6501 14.6874 21.9333 14.6058 22.2203 14.5365C22.3269 14.5093 22.4379 14.4831 22.5483 14.4602C22.584 14.4517 22.6197 14.4447 22.6549 14.4378C22.704 14.4293 22.7547 14.4175 22.8043 14.409C23.6727 14.2423 24.5616 14.2098 25.44 14.3125C25.7763 14.3523 26.1099 14.4123 26.4389 14.4922C26.6971 14.5551 26.9472 14.6262 27.1893 14.7055C27.2693 14.7327 27.3493 14.7615 27.4288 14.7887C27.5851 14.8463 27.7413 14.9055 27.8923 14.9717C27.9456 14.9925 27.9941 15.0143 28.0437 15.0362L28.2661 15.1381C28.4837 15.2421 28.7029 15.3967 28.9067 15.5135Z" fill="url(#paint0_linear_4147_34)"/>
<path d="M28.9066 15.5137C28.9034 15.7579 28.8949 16.0043 28.8762 16.2502C28.8762 16.2689 28.8762 16.2875 28.8725 16.3062C28.8677 16.3825 28.8608 16.4603 28.8522 16.5371C28.852 16.5525 28.8509 16.5678 28.849 16.583C28.8405 16.6811 28.8304 16.7777 28.8181 16.8763C28.8014 17.0157 28.7827 17.1549 28.7621 17.2939C28.7349 17.4683 28.7045 17.6449 28.6672 17.8198C28.6602 17.8705 28.6485 17.9233 28.6384 17.9739C28.6376 17.9832 28.6358 17.9923 28.633 18.0011C28.6282 18.0251 28.6229 18.0486 28.6165 18.0726C28.5994 18.1558 28.5808 18.2406 28.56 18.3238C28.5365 18.4258 28.5111 18.527 28.4837 18.6273C28.4581 18.7291 28.4304 18.8294 28.4005 18.9291C28.3968 18.9472 28.3918 18.9651 28.3856 18.9825C28.297 19.2843 28.1968 19.5851 28.0848 19.8817C28.0442 19.9921 28 20.1025 27.9557 20.2129C27.8672 20.4315 27.7706 20.6486 27.6688 20.8662C27.6154 20.9814 27.5568 21.0966 27.4986 21.2102C27.3989 21.407 27.2949 21.6006 27.1845 21.7905L27.0474 22.0267C27.0444 22.0327 27.0408 22.0384 27.0368 22.0438C26.9866 22.1243 26.9333 22.2091 26.88 22.2934C26.8176 22.3899 26.7546 22.4854 26.6901 22.5803C24.8595 25.2858 22.0692 27.1947 18.8842 27.9206L18.8538 27.9291C18.8266 27.9339 18.8005 27.9393 18.7722 27.9462C18.7045 27.9611 18.6378 27.9766 18.5701 27.9899C18.4597 28.0123 18.3509 28.0326 18.2421 28.0529L17.9418 28.1062C17.9248 28.1062 17.9077 28.111 17.8885 28.1126L17.6 28.1537C17.5898 28.1538 17.5796 28.1549 17.5696 28.1569C17.5658 28.1569 17.5626 28.1569 17.5626 28.1569C17.5322 28.1569 17.5029 28.1638 17.4741 28.167C17.4282 28.1723 17.3824 28.1755 17.3386 28.1809L17.1824 28.1958C17.1141 28.2027 17.0464 28.2081 16.9765 28.2145C16.9675 28.2135 16.9583 28.2135 16.9493 28.2145C16.8426 28.2225 16.7306 28.2294 16.6202 28.2363C16.552 28.2395 16.4842 28.2433 16.4144 28.2449L16.2058 28.2497C16.1376 28.2497 16.0682 28.2497 16.0005 28.2497H15.9898C15.7765 28.2497 15.5632 28.2427 15.3498 28.231C14.635 28.1918 13.9248 28.0924 13.2266 27.9339L13.113 27.9088C12.7735 27.8288 12.4357 27.735 12.0997 27.6273C11.9994 27.5963 11.9029 27.5627 11.8058 27.5286C11.7429 27.5067 11.6784 27.4843 11.616 27.4609C11.5189 27.4267 11.424 27.391 11.3285 27.3542C11.2453 27.3222 11.1605 27.2897 11.0789 27.2539C11.008 27.2251 10.9365 27.1947 10.8656 27.1643C10.6789 27.0825 10.4956 26.9977 10.3157 26.9099C10.256 26.879 10.1968 26.8486 10.137 26.8198C9.91624 26.7064 9.69953 26.5876 9.48691 26.4635L9.36104 26.3889L9.19304 26.287C9.11997 26.2395 9.04851 26.1953 8.97971 26.1494C8.97597 26.1446 8.96904 26.143 8.96584 26.1393C8.89651 26.0971 8.83197 26.0513 8.76531 26.007C8.47997 25.8134 8.20531 25.6118 7.93864 25.3963C7.79731 25.2843 7.66184 25.1707 7.52744 25.0518C7.43571 24.9739 7.34771 24.8918 7.26077 24.8161C7.21864 24.775 7.17437 24.7345 7.13171 24.6939C7.08904 24.6534 7.04531 24.6107 7.00264 24.5697C6.91784 24.4886 6.83464 24.4038 6.75144 24.319C6.74472 24.3149 6.73934 24.309 6.73597 24.3019C6.69544 24.2609 6.65491 24.2203 6.61544 24.1761C6.55464 24.1115 6.49331 24.0454 6.43411 23.9777C6.38824 23.9286 6.34237 23.8795 6.29811 23.8283L6.15731 23.6657C6.15314 23.6601 6.1485 23.6549 6.14344 23.6502L6.04317 23.5297C6.00957 23.4891 5.97544 23.4486 5.94504 23.4075C5.91464 23.3665 5.87517 23.3211 5.84157 23.2785C5.82864 23.2644 5.81721 23.249 5.80744 23.2326L5.75411 23.1617C5.70664 23.0987 5.65864 23.0379 5.61331 22.9734C5.54877 22.8849 5.48637 22.7985 5.42504 22.7105L5.38931 22.6571C5.33011 22.5707 5.26877 22.4822 5.21277 22.3942C5.15677 22.3062 5.09704 22.2193 5.04264 22.1313C5.03784 22.1227 5.03091 22.1126 5.02397 22.1009C5.01704 22.0891 5.01597 22.087 5.01064 22.0801C4.96477 22.0054 4.92051 21.9291 4.87464 21.8529C4.85117 21.8123 4.82557 21.7713 4.80157 21.7291C4.75571 21.6491 4.71197 21.5691 4.66771 21.4881C4.61437 21.3862 4.55571 21.2827 4.50291 21.1809C4.39091 20.9622 4.28957 20.743 4.18877 20.5211C4.16691 20.4737 4.14451 20.4241 4.12424 20.3766C4.10877 20.343 4.09544 20.3057 4.07997 20.2699C4.04957 20.1985 4.02077 20.1275 3.99197 20.0566C3.97811 20.0246 3.96637 19.9905 3.95251 19.9585C3.93064 19.8987 3.90664 19.8395 3.88477 19.7803C3.65952 19.1617 3.48124 18.527 3.35144 17.8817C3.33277 17.7883 3.31571 17.6966 3.29811 17.6033C3.26611 17.4182 3.23571 17.2299 3.21171 17.0449C3.20477 17.0043 3.19997 16.9638 3.19624 16.9227C3.19251 16.8816 3.18451 16.8294 3.17757 16.7819C3.17064 16.7345 3.16744 16.687 3.16424 16.6395C3.15731 16.5835 3.15251 16.5259 3.14717 16.4699C3.14024 16.4054 3.13544 16.3409 3.13171 16.2763V16.2667C3.12317 16.1478 3.11677 16.0273 3.11304 15.9067C3.10931 15.7862 3.10451 15.6657 3.10291 15.5451C3.10291 15.5334 3.10291 15.5233 3.10291 15.5131V15.3435C3.10291 15.2619 3.10291 15.1787 3.10291 15.0992V15.0854C3.10291 14.9905 3.10824 14.8955 3.11144 14.8022L3.11677 14.6955C3.11756 14.6836 3.11756 14.6717 3.11677 14.6598C3.11997 14.5867 3.12371 14.5137 3.13011 14.4406C3.13011 14.4118 3.13384 14.383 3.13544 14.3542C3.15411 14.1286 3.17597 13.9046 3.20691 13.679C3.22042 13.5723 3.23571 13.4657 3.25277 13.359C3.26931 13.247 3.28797 13.1366 3.30877 13.0262C3.49438 12.0281 3.79691 11.0554 4.21011 10.1281L4.23091 10.0822C4.46664 10.0619 4.70611 10.0502 4.94717 10.0486H5.18397C5.23731 10.0486 5.29064 10.0486 5.34824 10.0518C5.51464 10.055 5.68104 10.0651 5.84744 10.079C5.93064 10.0875 6.01384 10.0961 6.10077 10.1025C6.35357 10.1313 6.60993 10.1709 6.86984 10.2214C8.07354 10.455 9.21246 10.9463 10.2085 11.6614C10.2512 11.6902 10.2933 11.7211 10.3344 11.7499C10.3632 11.7718 10.392 11.7921 10.4224 11.8139C10.5109 11.8822 10.6005 11.9499 10.689 12.0193C10.9216 12.2027 11.144 12.3963 11.3616 12.5947C11.3802 12.6102 11.3989 12.6289 11.4176 12.6438C11.4768 12.6971 11.5344 12.7542 11.5925 12.8102C11.6928 12.9051 11.7925 13.0038 11.8896 13.1003C11.976 13.1867 12.0613 13.2715 12.1445 13.3601C12.601 13.8299 13.0373 14.3201 13.4741 14.8001C13.4804 14.8077 13.4872 14.815 13.4944 14.8219C14.1818 15.5787 14.873 16.3153 15.656 16.9329C16.2784 17.4358 16.9743 17.8404 17.7194 18.1323C19.9594 18.9926 23.3504 18.967 28.6384 15.6907L28.8624 15.5446L28.9013 15.5195L28.9066 15.5137Z" fill="url(#paint1_linear_4147_34)"/>
<path d="M20.7243 7.10455C21.656 7.10455 22.4112 6.35 22.4112 5.41922C22.4112 4.48844 21.656 3.73389 20.7243 3.73389C19.7926 3.73389 19.0374 4.48844 19.0374 5.41922C19.0374 6.35 19.7926 7.10455 20.7243 7.10455Z" fill="url(#paint2_linear_4147_34)"/>
<path d="M22.2325 6.16161C22.126 6.38071 21.9733 6.57413 21.7849 6.72856C21.5964 6.88299 21.3768 6.99477 21.1411 7.0562C20.9053 7.11763 20.6591 7.12726 20.4193 7.08441C20.1794 7.04157 19.9517 6.94728 19.7518 6.80803C19.552 6.66877 19.3846 6.48786 19.2613 6.27775C19.138 6.06764 19.0617 5.8333 19.0377 5.59088C19.0136 5.34846 19.0423 5.1037 19.1219 4.87344C19.2015 4.64319 19.33 4.43291 19.4986 4.25708C19.3562 4.54484 19.3006 4.86785 19.3386 5.18668C19.3748 5.50523 19.501 5.80688 19.7024 6.05627C19.9039 6.30566 20.1722 6.49247 20.476 6.59479C20.7799 6.69711 21.1066 6.7107 21.4178 6.63398C21.7291 6.55726 22.0121 6.3934 22.2336 6.16161H22.2325Z" fill="url(#paint3_linear_4147_34)"/>
<path d="M16.6726 12.1434C17.2646 12.1434 17.7446 11.6637 17.7446 11.072C17.7446 10.4802 17.2646 10.0005 16.6726 10.0005C16.0805 10.0005 15.6006 10.4802 15.6006 11.072C15.6006 11.6637 16.0805 12.1434 16.6726 12.1434Z" fill="url(#paint4_linear_4147_34)"/>
<path d="M17.6362 11.5412C17.5686 11.6806 17.4715 11.8036 17.3517 11.9019C17.232 12.0001 17.0923 12.0712 16.9424 12.1103C16.7925 12.1494 16.6359 12.1556 16.4834 12.1284C16.3309 12.1011 16.1861 12.0412 16.059 11.9526C15.9319 11.8641 15.8255 11.749 15.7472 11.6154C15.6688 11.4817 15.6203 11.3327 15.6051 11.1786C15.5898 11.0244 15.6082 10.8688 15.6588 10.7224C15.7095 10.576 15.7913 10.4423 15.8986 10.3306C15.8076 10.5133 15.7718 10.7187 15.7957 10.9215C15.8186 11.1241 15.8988 11.3159 16.0269 11.4745C16.155 11.6331 16.3256 11.7518 16.5188 11.8169C16.712 11.8819 16.9197 11.8906 17.1176 11.8417C17.3155 11.7929 17.4954 11.6887 17.6362 11.5412Z" fill="url(#paint5_linear_4147_34)"/>
<path d="M28.8762 16.2502C28.8762 16.2689 28.8762 16.2876 28.8725 16.3062C28.8677 16.3825 28.8608 16.4604 28.8522 16.5372C28.8519 16.5525 28.8509 16.5678 28.849 16.583C28.8405 16.6812 28.8304 16.7777 28.8181 16.8764C28.8014 17.0157 28.7827 17.1549 28.7621 17.294C28.7285 17.5212 28.6874 17.7484 28.6384 17.974C28.6376 17.9832 28.6358 17.9923 28.633 18.0012L28.6282 18.0284C28.6058 18.1302 28.584 18.2305 28.56 18.3286C28.5595 18.3385 28.5574 18.3483 28.5536 18.3574C28.5349 18.4444 28.5125 18.5292 28.4906 18.614C28.465 18.7089 28.4373 18.8022 28.4144 18.8972C28.3498 19.1196 28.28 19.342 28.2037 19.5622C28.1376 19.7574 28.0645 19.9494 27.9861 20.1425C27.9728 20.1814 27.9573 20.2188 27.9402 20.2582C27.8538 20.4652 27.7637 20.6721 27.6672 20.8774C27.609 20.9996 27.5498 21.1201 27.4885 21.2406C27.4352 21.3473 27.3781 21.454 27.3205 21.5606C27.2629 21.6673 27.1968 21.7793 27.1338 21.8881C27.1339 21.8901 27.1334 21.8921 27.1325 21.8939C27.1316 21.8956 27.1302 21.8971 27.1285 21.8982C27.0864 21.9729 27.0405 22.046 26.9946 22.1206C26.9589 22.1798 26.9232 22.2374 26.888 22.295C26.8794 22.311 26.8698 22.3263 26.8592 22.3409C26.8117 22.4156 26.7642 22.4886 26.7146 22.5601C26.6554 22.6465 26.5978 22.7345 26.5365 22.8193C24.7033 25.4083 21.9793 27.2299 18.8864 27.935C18.8762 27.9388 18.8661 27.9388 18.856 27.942C18.8288 27.9473 18.8 27.9537 18.7744 27.9606L18.5706 28.0033C18.464 28.0252 18.353 28.047 18.2426 28.0657L17.944 28.119C17.9253 28.1222 17.9082 28.1238 17.8906 28.126C17.7957 28.1393 17.6986 28.1548 17.6021 28.1665C17.5919 28.1684 17.5816 28.1694 17.5712 28.1697C17.568 28.1697 17.5664 28.1697 17.5648 28.1697L17.4762 28.1804C17.432 28.1852 17.3845 28.1905 17.3402 28.1937C17.296 28.1969 17.2368 28.2054 17.1861 28.2092C17.1162 28.2156 17.0485 28.2225 16.9802 28.2278L16.9514 28.231C16.8448 28.2396 16.7344 28.2465 16.624 28.2513C16.5541 28.255 16.4864 28.2582 16.4165 28.2598C16.3466 28.2614 16.2773 28.263 16.208 28.2652C16.1386 28.2673 16.0704 28.2684 16.0021 28.2684H15.992C15.7786 28.2684 15.5653 28.2614 15.352 28.2481C14.6522 28.2092 13.817 28.0684 13.1157 27.9105C12.7957 27.8406 12.7557 27.8289 13.1157 27.9105C12.7761 27.8305 12.4384 27.7366 12.1024 27.6289C12.0021 27.598 11.9056 27.5644 11.8085 27.5302C11.7456 27.5084 11.681 27.486 11.6186 27.4625C11.5216 27.4284 11.4266 27.3926 11.3312 27.3558C11.248 27.3238 11.1632 27.2913 11.0816 27.2556C11.0106 27.2268 10.9392 27.1964 10.8682 27.166C10.6816 27.0842 10.4983 26.9994 10.3184 26.9116C10.2586 26.8806 10.1994 26.8502 10.1397 26.8214C9.91891 26.708 9.70219 26.5892 9.48957 26.4652L9.36371 26.3905L9.1957 26.2886C9.12264 26.2412 9.05117 26.1969 8.98237 26.151C8.97864 26.1462 8.97171 26.1446 8.96851 26.1409C8.89917 26.0988 8.83464 26.0529 8.76797 26.0086C8.48264 25.815 8.20797 25.6134 7.9413 25.398C7.79997 25.286 7.66451 25.1724 7.53011 25.0534C7.43837 24.9756 7.35037 24.8934 7.26344 24.8177C7.22131 24.7766 7.17704 24.7361 7.13437 24.6956C7.09171 24.655 7.04797 24.6124 7.00531 24.5713C6.92051 24.4902 6.83731 24.4054 6.75411 24.3206C6.74739 24.3166 6.74201 24.3106 6.73864 24.3036C6.69811 24.2625 6.65757 24.222 6.6181 24.1777C6.5573 24.1132 6.49597 24.047 6.43677 23.9793C6.39091 23.9302 6.34504 23.8812 6.30077 23.83L6.15997 23.6673C6.1558 23.6617 6.15116 23.6566 6.14611 23.6518L6.04584 23.5313C6.01224 23.4908 5.9781 23.4502 5.9477 23.4092C5.9173 23.3681 5.87784 23.3228 5.84424 23.2801C5.83131 23.266 5.81987 23.2506 5.81011 23.2342L5.75677 23.1633C5.70931 23.1004 5.66131 23.0396 5.61597 22.975C5.55144 22.8865 5.48904 22.8001 5.4277 22.7121L5.39197 22.6588C5.33277 22.5724 5.27144 22.4838 5.21544 22.3958C5.15944 22.3078 5.09971 22.2209 5.04531 22.1329C5.04051 22.1244 5.03357 22.1142 5.02664 22.1025C5.01971 22.0908 5.01864 22.0886 5.01331 22.0817C4.96744 22.007 4.92317 21.9308 4.87731 21.8545C4.85384 21.814 4.82824 21.7729 4.80424 21.7308C4.75837 21.6508 4.71464 21.5708 4.67037 21.4897C4.61704 21.3878 4.55837 21.2844 4.50557 21.1825C4.39357 20.9638 4.29224 20.7446 4.19144 20.5228C4.16957 20.4753 4.14717 20.4257 4.12691 20.3782C4.11144 20.3446 4.09811 20.3073 4.08264 20.2716C4.05224 20.2001 4.02344 20.1292 3.99464 20.0582C3.98077 20.0262 3.96904 19.9921 3.95517 19.9601C3.93331 19.9004 3.90931 19.8412 3.88744 19.782C3.71885 19.3199 3.5764 18.8488 3.46077 18.3708C3.47144 18.4145 3.47944 18.4588 3.49011 18.5025C3.41011 18.1921 3.34237 17.8764 3.28797 17.559C3.26771 17.4316 3.24531 17.3046 3.22877 17.1756C3.22184 17.1313 3.21491 17.0876 3.21011 17.0449C3.19784 16.9601 3.18931 16.8769 3.17917 16.7921V16.7836C3.16744 16.6801 3.15571 16.5766 3.14877 16.4716C3.14184 16.407 3.13704 16.3425 3.13331 16.278V16.2668C3.12851 16.207 3.12477 16.1478 3.12157 16.0865C3.12157 16.0732 3.12157 16.0577 3.11837 16.0428C3.11837 15.9894 3.11304 15.9361 3.11304 15.8828C3.11304 15.8572 3.10984 15.8294 3.10984 15.8028C3.10984 15.7654 3.10611 15.7265 3.10611 15.6876C3.10611 15.6486 3.10291 15.6214 3.10291 15.5873V15.3414C3.10291 15.2598 3.10291 15.1766 3.10291 15.0972V15.0833C3.10664 15.0257 3.10824 14.9665 3.10984 14.9089C3.11144 14.8513 3.11464 14.7814 3.11677 14.7185V14.6934C3.11756 14.6815 3.11756 14.6696 3.11677 14.6577C3.12157 14.6134 3.12371 14.5676 3.12531 14.5233C3.12531 14.4966 3.13011 14.47 3.13171 14.4422C3.14237 14.289 3.15553 14.1379 3.17117 13.9889C3.18291 13.8822 3.19464 13.7718 3.21011 13.6652C3.23731 13.4518 3.27304 13.2358 3.31197 13.0204C3.32904 12.927 3.34771 12.8337 3.36797 12.7388C3.37005 12.7254 3.3729 12.7123 3.37651 12.6993C3.56421 11.8192 3.8436 10.9612 4.21011 10.1393C4.21072 10.1368 4.21201 10.1346 4.21384 10.1329C4.21864 10.1206 4.22557 10.1089 4.23091 10.0956C4.25597 10.0918 4.27997 10.0902 4.30717 10.0886C4.30344 10.1478 4.30024 10.2054 4.30024 10.2652V10.2769C4.28851 10.5297 4.28691 10.7825 4.29171 11.039C4.43784 18.1601 10.3338 23.814 17.4592 23.6678C19.8616 23.6185 22.2027 22.8996 24.2188 21.592C26.2349 20.2845 27.846 18.4402 28.8709 16.2668C28.8742 16.2618 28.876 16.2561 28.8762 16.2502Z" fill="url(#paint6_linear_4147_34)"/>
<defs>
<linearGradient id="paint0_linear_4147_34" x1="3.09333" y1="19.177" x2="28.9067" y2="19.177" gradientUnits="userSpaceOnUse">
<stop stop-color="#4562FF"/>
<stop offset="1" stop-color="#5AFFFF"/>
</linearGradient>
<linearGradient id="paint1_linear_4147_34" x1="3.09331" y1="19.1499" x2="28.9066" y2="19.1499" gradientUnits="userSpaceOnUse">
<stop stop-color="#5AFFFF"/>
<stop offset="1" stop-color="#4562FF"/>
</linearGradient>
<linearGradient id="paint2_linear_4147_34" x1="20.4225" y1="3.93181" x2="21.2869" y2="8.19444" gradientUnits="userSpaceOnUse">
<stop stop-color="#5AFFFF"/>
<stop offset="1" stop-color="#4562FF" stop-opacity="0.8"/>
</linearGradient>
<linearGradient id="paint3_linear_4147_34" x1="19.9873" y1="6.29971" x2="19.5389" y2="6.83856" gradientUnits="userSpaceOnUse">
<stop stop-color="white" stop-opacity="0"/>
<stop offset="1" stop-color="white" stop-opacity="0.6"/>
</linearGradient>
<linearGradient id="paint4_linear_4147_34" x1="16.4897" y1="10.1988" x2="17.0597" y2="12.9293" gradientUnits="userSpaceOnUse">
<stop stop-color="#5AFFFF"/>
<stop offset="1" stop-color="#4562FF" stop-opacity="0.8"/>
</linearGradient>
<linearGradient id="paint5_linear_4147_34" x1="16.226" y1="11.7133" x2="16.0567" y2="11.9566" gradientUnits="userSpaceOnUse">
<stop stop-color="white" stop-opacity="0"/>
<stop offset="1" stop-color="white" stop-opacity="0.6"/>
</linearGradient>
<linearGradient id="paint6_linear_4147_34" x1="11.4106" y1="21.8369" x2="8.64157" y2="25.59" gradientUnits="userSpaceOnUse">
<stop stop-color="white" stop-opacity="0"/>
<stop offset="1" stop-color="white" stop-opacity="0.5"/>
</linearGradient>
</defs>
</svg>
