<svg width="32" height="32" viewBox="0 0 32 32" fill="none" xmlns="http://www.w3.org/2000/svg">
<path d="M16 32C24.8366 32 32 24.8366 32 16C32 7.16344 24.8366 0 16 0C7.16344 0 0 7.16344 0 16C0 24.8366 7.16344 32 16 32Z" fill="#00A92E"/>
<mask id="mask0_5880_24" style="mask-type:luminance" maskUnits="userSpaceOnUse" x="5" y="6" width="23" height="19">
<path d="M5.81818 6.7879H27.0545V24.2424H5.81818V6.7879Z" fill="white"/>
</mask>
<g mask="url(#mask0_5880_24)">
<path d="M25.7939 21.7212C24.8242 21.7212 23.8545 21.3334 23.1758 20.6546C22.497 19.9758 22.1091 19.0061 22.1091 18.0364V14.2546H24.5333C24.7273 14.2546 24.8242 14.2546 25.0182 14.1576C25.2121 14.0606 25.3091 13.9637 25.4061 13.8667C25.503 13.7697 25.6 13.5758 25.697 13.4788C25.7939 13.2849 25.7939 13.1879 25.7939 12.994C25.7939 12.7031 25.697 12.3152 25.4061 12.1212C25.2121 11.9273 24.8242 11.7334 24.5333 11.7334H22.1091V8.04851C22.1091 7.85457 22.1091 7.7576 22.0121 7.56366C21.9151 7.36972 21.8182 7.27275 21.7212 7.17578C21.6242 7.07881 21.4303 6.98184 21.3333 6.88487C21.1394 6.7879 20.9454 6.7879 20.7515 6.7879C20.4606 6.7879 20.0727 6.88487 19.8788 7.17578C19.6848 7.36972 19.4909 7.7576 19.4909 8.04851V18.1334C19.4909 19.7818 20.1697 21.3334 21.3333 22.497C22.497 23.6606 24.0485 24.3394 25.697 24.3394C25.9879 24.3394 26.3758 24.2424 26.5697 23.9515C26.7636 23.7576 26.9576 23.3697 26.9576 23.0788C26.9576 22.7879 26.8606 22.4 26.5697 22.2061C26.3758 21.9152 26.0848 21.7212 25.7939 21.7212ZM12.0242 6.7879C10.3758 6.7879 8.82424 7.46669 7.6606 8.63033C6.49696 9.79396 5.81818 11.3455 5.81818 12.994V22.9818C5.81818 23.2728 5.91515 23.6606 6.20606 23.8546C6.39999 24.1455 6.78787 24.2424 7.07878 24.2424C7.36969 24.2424 7.75757 24.1455 7.95151 23.8546C8.14545 23.6606 8.33939 23.2728 8.33939 22.9818V17.9394C9.40606 18.7152 10.7636 19.2 12.1212 19.2C13.7697 19.2 15.3212 18.5212 16.4848 17.3576C17.6485 16.194 18.3273 14.6424 18.3273 12.994C18.3273 11.3455 17.6485 9.79396 16.4848 8.63033C15.3212 7.46669 13.6727 6.7879 12.0242 6.7879ZM12.0242 16.7758C11.0545 16.7758 10.0848 16.3879 9.40605 15.7091C8.72727 15.0303 8.33939 14.0606 8.33939 13.0909C8.33939 12.1212 8.72727 11.1515 9.40605 10.4728C10.0848 9.79396 11.0545 9.40608 12.0242 9.40608C12.9939 9.40608 13.9636 9.79396 14.6424 10.4728C15.3212 11.1515 15.7091 12.1212 15.7091 13.0909C15.7091 14.0606 15.3212 15.0303 14.6424 15.7091C13.9636 16.3879 13.0909 16.7758 12.0242 16.7758Z" fill="white"/>
</g>
</svg>
