<svg xmlns="http://www.w3.org/2000/svg" width="32" height="32" fill="none"><path fill="#46E3B7" d="M21.202 0h-.374v4.211h4.229V0h-3.854ZM10.012 0a9.91 9.91 0 0 0-3.893.786 9.962 9.962 0 0 0-3.18 2.152A9.962 9.962 0 0 0 .785 6.119 9.91 9.91 0 0 0 0 10.012v15.045h4.229V9.956a5.997 5.997 0 0 1 1.778-3.987 6.038 6.038 0 0 1 4.023-1.74h8.085V0h-8.103ZM28.145 13.885h-.374v4.23H32v-4.23h-3.855ZM28.145 6.943h-.374v4.229H32V6.943h-3.855ZM31.626 0H27.77v4.211H32V0h-.374ZM28.145 20.828h-.374v4.229H32v-4.229h-3.855ZM28.145 27.77h-.374V32H32v-4.229h-3.855ZM21.202 27.77h-.374V32h4.229v-4.229h-3.854ZM14.26 27.77h-.375V32h4.23v-4.229H14.26ZM7.317 27.77h-.374V32h4.229v-4.229H7.317ZM.374 27.77H0V32h4.211v-4.229H.374Z"/></svg>
