<svg width="32" height="32" viewBox="0 0 32 32" fill="none" xmlns="http://www.w3.org/2000/svg">
<path d="M16.0001 1.5625C8.04092 1.5625 1.56299 8.04349 1.56299 15.9996C1.56299 23.9558 8.04397 30.4368 16.0001 30.4368C23.9563 30.4368 30.4373 23.9558 30.4373 15.9996C30.4373 8.04349 23.9563 1.5625 16.0001 1.5625ZM15.9788 2.84526C16.2256 2.85165 16.4602 2.95454 16.6325 3.13198C16.8048 3.30943 16.9012 3.54738 16.9011 3.79511C16.9011 4.04702 16.8011 4.28863 16.6229 4.46675C16.4448 4.64489 16.2032 4.74496 15.9513 4.74496C15.6993 4.74496 15.4577 4.64489 15.2796 4.46675C15.1015 4.28863 15.0014 4.04702 15.0014 3.79511C15.0013 3.66803 15.0268 3.54223 15.0762 3.42515C15.1257 3.30808 15.1982 3.20213 15.2892 3.11356C15.3804 3.02498 15.4884 2.9556 15.6068 2.90952C15.7253 2.86343 15.8517 2.84158 15.9788 2.84526ZM18.1533 4.409C19.8209 4.72132 21.4003 5.39289 22.7821 6.37704C24.164 7.36121 25.315 8.63437 26.1553 10.1082L25.0344 12.637C24.842 13.0737 25.0405 13.5868 25.4742 13.7823L27.6304 14.7383C27.6974 15.4123 27.7055 16.0909 27.6549 16.7663H26.4546C26.3355 16.7663 26.2867 16.8456 26.2867 16.9617V17.5114C26.2867 18.8065 25.5567 19.0905 24.9153 19.1607C24.3044 19.231 23.6295 18.9042 23.544 18.5315C23.1836 16.5067 22.585 16.076 21.6381 15.3277C22.814 14.5825 24.0357 13.48 24.0357 12.0078C24.0357 10.4166 22.9454 9.41482 22.2032 8.92309C21.1587 8.2359 20.0041 8.09846 19.6927 8.09846H7.29264C9.00727 6.183 11.3055 4.88625 13.8317 4.409L15.2946 5.9422C15.6244 6.28733 16.1712 6.30259 16.5163 5.96969L18.1533 4.409ZM4.65382 11.4397C4.90094 11.4469 5.13554 11.5501 5.30777 11.7275C5.48 11.9048 5.57629 12.1423 5.57619 12.3896C5.57619 12.6415 5.47612 12.8831 5.29798 13.0612C5.11985 13.2393 4.87825 13.3394 4.62634 13.3394C4.37442 13.3394 4.13282 13.2393 3.95469 13.0612C3.77655 12.8831 3.67648 12.6415 3.67648 12.3896C3.67643 12.2626 3.70188 12.1367 3.75133 12.0196C3.80077 11.9026 3.87321 11.7966 3.96434 11.708C4.05547 11.6195 4.16345 11.55 4.28188 11.504C4.40032 11.4579 4.52679 11.436 4.65382 11.4397ZM27.3007 11.4825C27.5477 11.4897 27.7823 11.5929 27.9546 11.7702C28.1268 11.9476 28.2231 12.1852 28.223 12.4324C28.223 12.6843 28.1229 12.9259 27.9448 13.104C27.7666 13.2822 27.525 13.3822 27.2732 13.3822C27.0212 13.3822 26.7796 13.2822 26.6015 13.104C26.4234 12.9259 26.3233 12.6843 26.3233 12.4324C26.3232 12.3053 26.3487 12.1794 26.3981 12.0624C26.4476 11.9453 26.52 11.8394 26.6111 11.7508C26.7023 11.6622 26.8103 11.5929 26.9287 11.5467C27.0471 11.5006 27.1736 11.4788 27.3007 11.4825ZM6.44358 11.6352H8.09895V19.0996H4.75766C4.34501 17.6506 4.2164 16.1353 4.37895 14.6374L6.42525 13.7273C6.862 13.5318 7.06052 13.0218 6.86505 12.5851L6.44358 11.6352ZM13.3521 11.7146H17.2951C17.4997 11.7146 18.7336 11.9497 18.7336 12.8752C18.7336 13.6418 17.7869 13.9167 17.008 13.9167H13.3491L13.3521 11.7146ZM13.3521 17.0777H16.3728C16.6476 17.0777 17.8479 17.1572 18.2297 18.6904C18.3488 19.1607 18.6145 20.694 18.7948 21.1856C18.9749 21.7354 19.7049 22.8349 20.4837 22.8349H25.4132C25.0828 23.2773 24.7215 23.6957 24.3319 24.0871L22.3254 23.6565C21.858 23.5557 21.3969 23.855 21.2961 24.3223L20.8196 26.5457C19.2876 27.2398 17.6236 27.595 15.9417 27.5871C14.2597 27.5792 12.5992 27.2083 11.0737 26.5L10.5973 24.2765C10.4964 23.8092 10.0383 23.5098 9.57109 23.6107L7.60722 24.0322C7.24279 23.6562 6.90404 23.2562 6.59323 22.8349H16.1437C16.2505 22.8349 16.3239 22.8166 16.3239 22.7158V19.3378C16.3239 19.2402 16.2505 19.2188 16.1437 19.2188H13.3491L13.3521 17.0777ZM8.94496 24.8141C9.19208 24.8211 9.42665 24.9244 9.59889 25.1018C9.77114 25.2792 9.86743 25.5166 9.86734 25.7638C9.86734 26.0158 9.76726 26.2574 9.58911 26.4356C9.41096 26.6136 9.16938 26.7137 8.91747 26.7137C8.66555 26.7137 8.42396 26.6136 8.24582 26.4356C8.06769 26.2574 7.96762 26.0158 7.96762 25.7638C7.96756 25.6368 7.99301 25.511 8.04245 25.394C8.0919 25.2768 8.16433 25.1709 8.25547 25.0823C8.3466 24.9938 8.45458 24.9244 8.57302 24.8783C8.69145 24.8322 8.81793 24.8104 8.94496 24.8141ZM23.0095 24.8568C23.2566 24.864 23.4913 24.9671 23.6634 25.1445C23.8356 25.3219 23.9319 25.5594 23.9318 25.8067C23.9318 26.0585 23.8318 26.3001 23.6536 26.4783C23.4756 26.6564 23.234 26.7565 22.982 26.7565C22.7301 26.7565 22.4885 26.6564 22.3103 26.4783C22.1322 26.3001 22.0321 26.0585 22.0321 25.8067C22.0321 25.6796 22.0575 25.5537 22.107 25.4367C22.1564 25.3196 22.2289 25.2137 22.32 25.125C22.4111 25.0365 22.5191 24.9671 22.6376 24.921C22.756 24.875 22.8825 24.8531 23.0095 24.8568Z" fill="black"/>
<path fill-rule="evenodd" clip-rule="evenodd" d="M29.6308 16C29.6308 19.6151 28.1947 23.0821 25.6385 25.6385C23.0821 28.1947 19.6151 29.6308 16 29.6308C12.3849 29.6308 8.91782 28.1947 6.36154 25.6385C3.80527 23.0821 2.36916 19.6151 2.36916 16C2.36916 12.3849 3.80527 8.91782 6.36154 6.36154C8.91782 3.80527 12.3849 2.36916 16 2.36916C19.6151 2.36916 23.0821 3.80527 25.6385 6.36154C28.1947 8.91782 29.6308 12.3849 29.6308 16ZM29.3743 14.6837L31.5 16L29.3743 17.3163L31.2007 19.0237L28.8612 19.9002L30.3211 21.9313L27.8502 22.3344L28.8886 24.6128L26.3873 24.5242L26.9615 26.9615L24.5242 26.3873L24.6128 28.8886L22.3344 27.8502L21.9313 30.3211L19.9002 28.8612L19.0237 31.2007L17.3163 29.3743L16 31.5L14.6837 29.3743L12.9763 31.2007L12.0998 28.8612L10.0687 30.3211L9.66563 27.8502L7.38719 28.8886L7.47577 26.3873L5.03853 26.9615L5.61271 24.5242L3.11133 24.6128L4.14976 22.3344L1.67892 21.9313L3.13882 19.9002L0.799315 19.0237L2.62572 17.3163L0.5 16L2.62572 14.6837L0.799315 12.9763L3.13882 12.0998L1.67892 10.0687L4.14976 9.66563L3.11133 7.38719L5.61271 7.47577L5.03853 5.03853L7.47577 5.6127L7.38719 3.11133L9.66563 4.14976L10.0687 1.67892L12.0998 3.13882L12.9763 0.799315L14.6837 2.62572L16 0.5L17.3163 2.62572L19.0237 0.799315L19.9002 3.13882L21.9313 1.67892L22.3344 4.14976L24.6128 3.11133L24.5242 5.6127L26.9615 5.03853L26.3873 7.47577L28.8886 7.38719L27.8502 9.66563L30.3211 10.0687L28.8612 12.0998L31.2007 12.9763L29.3743 14.6837Z" fill="black" stroke="black" stroke-linecap="round" stroke-linejoin="round"/>
</svg>
