<svg width="32" height="32" viewBox="0 0 32 32" fill="none" xmlns="http://www.w3.org/2000/svg">
<path fill-rule="evenodd" clip-rule="evenodd" d="M0 32H32V0H0V32Z" fill="#CD2B14"/>
<path d="M3.79123 26.3658H7.36524V12.2465H3.79123V26.3658ZM5.56441 10.3447C5.2551 10.3447 4.9597 10.2826 4.67778 10.1574C4.39568 10.0328 4.15003 9.85989 3.94118 9.63886C3.73189 9.41829 3.56812 9.16342 3.44997 8.87506C3.33163 8.58708 3.27273 8.27009 3.27273 7.92418C3.27273 7.57845 3.33163 7.26155 3.44997 6.97329C3.56812 6.68531 3.73189 6.43089 3.94118 6.20986C4.15003 5.98902 4.39568 5.81634 4.67778 5.69109C4.9597 5.5663 5.2551 5.504 5.56441 5.504C6.20108 5.504 6.7467 5.73944 7.20173 6.20986C7.65596 6.68066 7.88357 7.25216 7.88357 7.92418C7.88357 8.59703 7.65596 9.16825 7.20173 9.63886C6.7467 10.1097 6.20108 10.3447 5.56441 10.3447Z" fill="white"/>
<path d="M19.1374 19.8027L21.7181 17.9496L23.7311 21.1652C24.1955 20.6025 24.5609 19.9435 24.8278 19.1895C25.0944 18.4359 25.2278 17.6047 25.2278 16.696C25.2278 15.6971 25.0685 14.7841 24.7503 13.9572C24.4319 13.1306 23.9929 12.4269 23.4342 11.845C22.875 11.2639 22.2214 10.8096 21.4727 10.4825C20.7245 10.1554 19.9202 9.99191 19.0599 9.99191C18.1995 9.99191 17.3954 10.1554 16.6469 10.4825C15.8987 10.8096 15.2446 11.2639 14.6857 11.845C14.1265 12.4269 13.6877 13.1306 13.3695 13.9572C13.0509 14.7841 12.8921 15.6971 12.8921 16.696C12.8921 17.6954 13.0509 18.6084 13.3695 19.4348C13.6877 20.2617 14.1265 20.9657 14.6857 21.547C15.2446 22.1286 15.8987 22.5824 16.6469 22.9095C17.3954 23.2366 18.1995 23.4001 19.0599 23.4001C19.4382 23.4001 19.7994 23.3638 20.144 23.291C20.4879 23.2187 20.8232 23.1185 21.1502 22.9912L19.1374 19.8027ZM23.0599 26.0162C22.4576 26.2889 21.8212 26.502 21.1502 26.6566C20.4794 26.8107 19.7825 26.8883 19.0599 26.8883C17.6833 26.8883 16.4059 26.6246 15.2277 26.098C14.049 25.5713 13.0296 24.849 12.1696 23.9313C11.3088 23.014 10.634 21.9331 10.1437 20.6884C9.65347 19.4442 9.4081 18.1132 9.4081 16.696C9.4081 15.2788 9.65347 13.9483 10.1437 12.7036C10.634 11.4594 11.3088 10.378 12.1696 9.4604C13.0296 8.54331 14.049 7.82118 15.2277 7.29376C16.4059 6.76737 17.6833 6.50366 19.0599 6.50366C20.4363 6.50366 21.7135 6.76737 22.8924 7.29376C24.0706 7.82118 25.0901 8.54331 25.9505 9.4604C26.8105 10.378 27.4859 11.4594 27.9762 12.7036C28.4666 13.9483 28.7118 15.2788 28.7118 16.696C28.7118 18.2041 28.4449 19.6029 27.9115 20.8928C27.3782 22.1827 26.6298 23.291 25.6665 24.2175L27.0859 26.4521L24.5052 28.2782L23.0599 26.0162Z" fill="white"/>
<path fill-rule="evenodd" clip-rule="evenodd" d="M20.2808 20.9921L19.0873 19.1014L20.6176 18.0025L21.8113 19.9093L22.9589 21.7193L23.8005 23.0444L22.2703 24.1272L21.4133 22.7859L20.2808 20.9921Z" stroke="#CD2B14" stroke-width="5"/>
<path fill-rule="evenodd" clip-rule="evenodd" d="M21.1001 23.0441L19.0873 19.8556L21.668 18.0025L23.681 21.2181L25.6164 24.2704L27.0356 26.505L24.4551 28.3311L23.0098 26.0691L21.1001 23.0441Z" fill="white"/>
</svg>
