<svg width="32" height="32" viewBox="0 0 32 32" fill="none" xmlns="http://www.w3.org/2000/svg">
<g clip-path="url(#clip0_4346_70)">
<path d="M27.7301 19.2688C27.7464 19.1541 27.8528 19.064 27.9673 19.0558L31.771 18.4905C31.8937 18.4741 31.9918 18.3594 31.9918 18.2365V13.7634C31.9918 13.6323 31.9018 13.5258 31.771 13.5095C30.5112 13.321 29.2515 13.1244 27.9918 12.9442C27.8037 12.9196 27.7464 12.8131 27.7055 12.6656C27.4601 11.7645 27.1002 10.896 26.6421 10.085C26.544 9.90475 26.5603 9.79005 26.6748 9.63439C27.4192 8.63491 28.1472 7.63542 28.8916 6.63593C29.0307 6.4475 29.0389 6.341 28.8589 6.16076C27.8364 5.16128 26.8303 4.1454 25.8323 3.12953C25.7014 2.99845 25.4969 2.98207 25.3497 3.09676C24.3599 3.85047 23.3456 4.5878 22.3476 5.33332C22.1922 5.44801 22.0859 5.44801 21.8896 5.32513C21.1452 4.82538 20.3108 4.4813 19.4274 4.30106C19.182 4.25191 19.092 4.17817 19.0675 3.96517C19.002 3.44085 18.9121 2.92472 18.8303 2.40859C18.7157 1.67945 18.6012 0.950319 18.4785 0.221184C18.4622 0.0982965 18.3476 0.00817871 18.2249 0.00817871H13.7832C13.6605 0.00817871 13.546 0.0982965 13.5297 0.229377C13.3415 1.43368 13.1534 2.64617 12.9816 3.85047C12.9407 4.1536 12.8262 4.28468 12.4581 4.35022C11.6483 4.50587 10.8793 4.82538 10.2004 5.30055C9.96319 5.4644 9.82413 5.44801 9.62781 5.30055C8.63804 4.55503 7.6319 3.8259 6.64213 3.08038C6.45399 2.9411 6.35583 2.95749 6.20041 3.11315C5.18609 4.13721 4.1636 5.16128 3.13292 6.17715C2.9775 6.33281 2.97751 6.42293 3.1002 6.59497C3.85276 7.59446 4.58896 8.61033 5.33333 9.61801C5.43149 9.75728 5.50511 9.86379 5.39877 10.044C4.91616 10.8797 4.54806 11.7726 4.29448 12.7066C4.26176 12.8295 4.21268 12.9114 4.06544 12.936C2.78119 13.1244 1.50511 13.3128 0.220859 13.5013C0.0981595 13.5177 0 13.6242 0 13.7552C0.00817996 14.1894 0 14.6318 0 15.066C0 16.1229 0.00817996 17.1797 0.0163599 18.2365C0.0163599 18.3676 0.106339 18.4741 0.237219 18.4905C1.52147 18.6789 2.79755 18.8674 4.0818 19.0558C4.2454 19.0804 4.27812 19.1869 4.31084 19.318C4.55624 20.2109 4.90798 21.063 5.35787 21.8658C5.48057 22.0788 5.45603 22.2181 5.31697 22.4065C4.58078 23.3815 3.86912 24.3727 3.13292 25.3477C2.96115 25.5689 2.99387 25.6836 3.182 25.8638C4.19632 26.8469 5.20245 27.8464 6.19223 28.8541C6.38037 29.0507 6.49489 29.0261 6.69121 28.8786C7.66462 28.1413 8.6544 27.4286 9.62781 26.6912C9.85685 26.5192 9.96319 26.5765 10.3476 26.8059C10.9611 27.1746 11.6319 27.4122 12.3354 27.6252C12.8098 27.7726 12.9407 27.8054 12.9898 28.1413C13.1616 29.3538 13.3579 30.5581 13.5378 31.7624C13.5542 31.8853 13.6687 31.9836 13.7914 31.9836H18.2331C18.3558 31.9836 18.4622 31.8935 18.4867 31.7706C18.593 31.107 18.9202 29.0671 19.0675 28.0266C19.092 27.8382 19.1493 27.7563 19.3374 27.7071C20.2454 27.4531 21.1207 27.0927 21.9387 26.6257C22.1022 26.5274 22.2086 26.552 22.3558 26.6585C23.3538 27.4122 24.3681 28.1495 25.3742 28.9032C25.546 29.0261 25.6442 29.0671 25.816 28.8868C26.8303 27.8546 27.8446 26.8305 28.8834 25.8146C29.047 25.6508 29.0552 25.5525 28.9162 25.364C28.1636 24.3646 27.4274 23.3487 26.683 22.341C26.6012 22.2345 26.5112 22.1444 26.6094 21.9723C27.1002 21.1367 27.4765 20.2191 27.7301 19.2688ZM16 21.3579C13.047 21.3743 10.6667 18.9329 10.6667 15.9754C10.6667 13.0589 13.0961 10.6339 16.0082 10.6339C18.9611 10.6421 21.3497 13.0507 21.3415 16.0082C21.407 18.6298 19.2802 21.3415 16 21.3579Z" fill="#91C33F"/>
</g>
<defs>
<clipPath id="clip0_4346_70">
<rect width="32" height="32" fill="white"/>
</clipPath>
</defs>
</svg>
