<svg width="32" height="32" viewBox="0 0 32 32" fill="none" xmlns="http://www.w3.org/2000/svg">
<path fill-rule="evenodd" clip-rule="evenodd" d="M13.776 11.0442C14.9688 11.7591 16.256 12.3031 17.6 12.6602L19.36 13.2522C19.9055 13.4275 20.4399 13.6359 20.96 13.8762L21.52 14.1002L26.56 9.30023H26.912L13.104 28.8842L6.39999 22.8362L9.85599 19.3482L13.056 22.2762L17.856 17.6522C17.168 17.3962 16.368 17.1402 15.408 16.8682C13.5312 16.3987 11.7538 15.5967 10.16 14.5002C9.35846 13.8828 8.71953 13.0793 8.29854 12.1592C7.87756 11.2392 7.68721 10.2304 7.74399 9.22023C7.69807 8.17126 7.89511 7.12586 8.31974 6.16557C8.74437 5.20529 9.38512 4.3561 10.192 3.68423C11.8641 2.2916 13.9845 1.55258 16.16 1.60423C17.8429 1.5543 19.5094 1.94786 20.9922 2.74543C22.475 3.543 23.722 4.71651 24.608 6.14823L21.04 9.78023C20.6493 8.81333 19.9726 7.98879 19.1005 7.41693C18.2284 6.84507 17.2025 6.55315 16.16 6.58023C14.064 6.51623 12.8 7.57223 12.8 9.07623C12.7943 9.45827 12.8799 9.83615 13.0496 10.1784C13.2194 10.5207 13.4684 10.8176 13.776 11.0442ZM26.016 20.5322C26.0561 21.6108 25.8425 22.6838 25.3923 23.6647C24.9421 24.6457 24.2679 25.5073 23.424 26.1802C21.5889 27.5805 19.3317 28.314 17.024 28.2602L25.024 17.0602C25.6579 18.1086 26.0004 19.3072 26.016 20.5322Z" fill="#2EABE2"/>
</svg>
