<svg width="32" height="32" viewBox="0 0 32 32" fill="none" xmlns="http://www.w3.org/2000/svg">
<path fill-rule="evenodd" clip-rule="evenodd" d="M16 32C24.8366 32 32 24.8366 32 16C32 7.16343 24.8366 0 16 0C7.16343 0 0 7.16343 0 16C0 24.8366 7.16343 32 16 32ZM20.9202 20.688C21.8453 20.1032 22.4 19.1247 22.4 18.0775C22.4 16.6224 21.3376 15.357 19.8308 15.0174L15.3161 13.8968C14.8905 13.8009 14.7885 13.2761 15.1506 13.0452L18.6679 10.8017C20.3051 9.75739 20.7308 7.66455 19.6187 6.12718C19.4797 5.93499 19.2011 5.88503 18.9964 6.01559L11.0507 11.3753C10.1433 11.9541 9.6 12.9173 9.6 13.9473C9.6 15.3851 10.6496 16.6352 12.1385 16.9708L16.7267 18.108C17.1533 18.2042 17.2544 18.7307 16.8905 18.9607L13.3473 21.2006C11.7055 22.2385 11.2706 24.3297 12.3759 25.8714C12.5141 26.0641 12.7925 26.1152 12.9977 25.9854L20.9202 20.688Z" fill="#5733FF"/>
</svg>
