<svg width="32" height="32" viewBox="0 0 32 32" fill="none" xmlns="http://www.w3.org/2000/svg">
<path d="M32 10.0377C32.0015 8.67983 31.7255 7.33584 31.1886 6.08719C30.6517 4.83855 29.8652 3.71126 28.8767 2.77372C27.8882 1.83617 26.7184 1.10789 25.4381 0.633055C24.1578 0.158218 22.7938 -0.0532844 21.4288 0.011375C19.5068 0.011375 17.5848 0.488817 15.6628 1.92114C14.5417 1.18599 13.2842 0.680619 11.9641 0.434664C10.6439 0.188709 9.28758 0.20712 7.97466 0.488817C4.1306 0.966259 0.767054 3.83091 0.286547 7.65045V8.12789C-0.220107 10.1951 -0.0518238 12.3688 0.767054 14.3346L6.05263 27.2256C6.59981 28.5754 7.52362 29.7418 8.71537 30.5877C9.90711 31.4335 11.3172 31.9235 12.7797 32H30.5585L27.1949 23.406L31.039 14.3346L32 10.0377ZM3.16959 10.0377V8.60533C3.50362 7.09044 4.3574 5.7381 5.58467 4.77996C6.81194 3.82183 8.33632 3.31754 9.89668 3.35347L13.2602 4.30835L11.8187 6.21812L6.53314 19.5865L3.65009 12.9023L3.16959 10.0377ZM28.1559 12.9023L23.8314 23.406L25.7534 28.6579H12.7797L11.3382 28.1805C10.3534 27.7572 9.56208 26.9853 9.11807 26.0147C8.67406 25.0441 8.60905 23.9442 8.93567 22.9286L15.1823 7.65045C15.4969 6.77968 15.9901 5.9833 16.6306 5.31172C17.2711 4.64014 18.0449 4.10799 18.9031 3.74896C19.7612 3.38993 20.6851 3.21183 21.6161 3.22593C22.5472 3.24004 23.4651 3.44605 24.3119 3.83091C27.1949 4.7858 28.6364 7.65045 28.6364 10.0377L28.1559 12.9023Z" fill="#32A8FF"/>
</svg>
