<svg width="32" height="32" viewBox="0 0 32 32" fill="none" xmlns="http://www.w3.org/2000/svg">
<path d="M16 1.3125C24.0941 1.3125 30.7451 7.875 30.7451 16C30.7451 24.125 24.0941 30.6875 16 30.6875C7.90588 30.6875 1.2549 24.125 1.2549 16C1.2549 7.875 7.84314 1.3125 16 1.3125ZM16 0C7.15294 0 0 7.1875 0 16C0 24.8125 7.15294 32 16 32C24.7843 32 32 24.875 32 16C32 7.125 24.7843 0 16 0ZM15.6863 18.9375C15.498 19.625 15.1843 20.1875 14.8078 20.75C14.4314 21.3125 13.8667 21.6875 13.302 21.9375C12.6745 22.25 11.9843 22.375 11.1059 22.375C10.2275 22.375 9.47451 22.1875 8.84706 21.875C8.21961 21.5625 7.71765 21.125 7.34118 20.625C6.96471 20.125 6.65098 19.5 6.46275 18.8125C6.27451 18.125 6.21176 17.375 6.21176 16.625V10.8125H8.78431V16.625C8.78431 17.0625 8.84706 17.5 8.9098 17.875C8.97255 18.25 9.09804 18.625 9.28627 18.9375C9.47451 19.25 9.72549 19.5 9.97647 19.6875C10.2902 19.875 10.6039 19.9375 11.0431 19.9375C11.4824 19.9375 11.8588 19.8125 12.1725 19.625C12.4863 19.4375 12.7373 19.1875 12.9255 18.875C13.1137 18.5625 13.2392 18.1875 13.302 17.8125C13.3647 17.4375 13.4275 17 13.4275 16.5625V10.75H16V16.5625C15.9373 17.5 15.8745 18.25 15.6863 18.9375ZM18.0706 20H25.7882V22.375H18.0706V20ZM18.0706 15.4375H25.7882V17.8125H18.0706V15.4375ZM18.0706 10.9375H25.7882V13.3125H18.0706V10.9375Z" fill="#6101A8"/>
</svg>
