<svg width="32" height="32" viewBox="0 0 32 32" fill="none" xmlns="http://www.w3.org/2000/svg">
<g clip-path="url(#clip0_4659_132)">
<path d="M11.9652 0.626118C8.27826 1.60003 4.38261 4.59134 2.29565 8.13916C0.765215 10.7826 0.417389 12.2435 0.417389 16.0696C0.417389 20.0348 0.69565 21.2174 2.50435 24.0696C3.75652 26.1566 5.84348 28.2435 7.93043 29.4957C10.7826 31.3044 11.9652 31.5826 16 31.5826C20.0348 31.5826 21.2174 31.3044 24.0696 29.4957C26.1565 28.2435 28.2435 26.1566 29.4957 24.0696C31.3043 21.2174 31.5826 20.0348 31.5826 16C31.5826 11.9652 31.3043 10.7826 29.4957 7.93047C25.9478 2.08699 18.4348 -0.973882 11.9652 0.626118ZM9.73913 14.5392C9.73913 20.4522 10.5043 21.2174 16 21.2174C21.4957 21.2174 22.2609 20.4522 22.2609 14.5392C22.2609 10.2957 22.4 9.73916 23.5826 9.73916C24.6957 9.73916 25.0435 10.4348 25.3913 13.4957C26.3652 21.2174 23.7217 24.3479 16 24.3479C8.27826 24.3479 5.63478 21.2174 6.60869 13.4957C6.95652 10.4348 7.30435 9.73916 8.41739 9.73916C9.6 9.73916 9.73913 10.2957 9.73913 14.5392Z" fill="#3544C0"/>
</g>
<defs>
<clipPath id="clip0_4659_132">
<rect width="32" height="32" fill="white"/>
</clipPath>
</defs>
</svg>
