<svg width="32" height="32" viewBox="0 0 32 32" fill="none" xmlns="http://www.w3.org/2000/svg">
<path fill-rule="evenodd" clip-rule="evenodd" d="M16 32C24.8367 32 32 24.8365 32 16C32 7.1633 24.8367 0 16 0C7.16344 0 0 7.1633 0 16C0 24.8365 7.16344 32 16 32Z" fill="#FF5036"/>
<path fill-rule="evenodd" clip-rule="evenodd" d="M16 14.9156C16 14.9156 15.7939 14.5751 15.3439 13.9907C14.8939 13.4062 14.2 12.5779 13.2242 11.6022C12.1414 10.5193 10.7229 9.97714 9.30395 9.97559C7.88486 9.97389 6.46528 10.5127 5.38045 11.5922C4.32233 12.6451 3.78834 14.0278 3.77073 15.4229C3.75284 16.818 4.25143 18.2251 5.25822 19.327C8.14305 22.4842 12.0715 24.0625 16 24.0625C19.9287 24.0625 23.8571 22.4842 26.7419 19.327C27.7488 18.2251 28.2473 16.818 28.2294 15.4229C28.2119 14.0278 27.6777 12.6451 26.6198 11.5922C25.5346 10.5128 24.1153 9.97389 22.6962 9.97559C21.2771 9.97714 19.8586 10.5193 18.776 11.6022C17.8001 12.5779 17.1061 13.4062 16.6561 13.9907C16.2061 14.5751 16 14.9156 16 14.9156Z" fill="white"/>
<path fill-rule="evenodd" clip-rule="evenodd" d="M7.02679 15.5289C7.02679 16.7375 8.0065 17.7173 9.21511 17.7173C10.4237 17.7173 11.4035 16.7375 11.4035 15.5289C11.4035 14.3203 10.4237 13.3406 9.21511 13.3406C8.0065 13.3406 7.02679 14.3203 7.02679 15.5289Z" fill="black"/>
<path fill-rule="evenodd" clip-rule="evenodd" d="M16 14.9158C14.3079 16.6079 14.3079 19.3512 16 21.0431C17.6922 19.3512 17.6922 16.6079 16 14.9158Z" fill="black"/>
<path fill-rule="evenodd" clip-rule="evenodd" d="M24.9817 15.5289C24.9817 16.7375 24.0019 17.7173 22.7934 17.7173C21.5848 17.7173 20.605 16.7375 20.605 15.5289C20.605 14.3203 21.5848 13.3406 22.7934 13.3406C24.0019 13.3406 24.9817 14.3203 24.9817 15.5289Z" fill="black"/>
</svg>
