<svg width="32" height="32" viewBox="0 0 32 32" fill="none" xmlns="http://www.w3.org/2000/svg">
<path d="M2.5024 3.41333C2.18026 3.41333 1.92 3.6736 1.92 3.99573V17.0112C1.92 24.1557 6.5664 28.7808 16.0917 28.7808C25.6171 28.7808 30.2635 24.2261 30.2635 17.1157V3.99573C30.2635 3.6736 30.0032 3.41333 29.6811 3.41333H17.632C17.2032 3.41333 16.9216 3.86346 17.1093 4.2496L24.8149 21.1456C25.0475 21.6235 24.5696 22.1376 24.0747 21.9392L16.3093 18.976C16.1707 18.9205 16.0149 18.9205 15.8763 18.976L8.13013 21.9243C7.6352 22.1227 7.15733 21.6085 7.38986 21.1307L15.0571 4.2496C15.2448 3.86346 14.9632 3.41333 14.5344 3.41333H2.5024Z" fill="#6042EC"/>
</svg>
