<svg width="32" height="32" viewBox="0 0 32 32" fill="none" xmlns="http://www.w3.org/2000/svg">
<circle cx="16" cy="16" r="16" fill="#2E2C60"/>
<path d="M5.8784 9.6H3.2L8.16419 22.2416L10.4238 16.091L12.7445 22.2416L17.6999 9.6H15.0216L12.7445 15.4541L10.4587 9.6L8.16419 15.4541L5.8784 9.6Z" fill="white"/>
<path d="M5.8784 9.6H3.2L8.16419 22.2416L10.4238 16.091L12.7445 22.2416L17.6999 9.6H15.0216L12.7445 15.4541L10.4587 9.6L8.16419 15.4541L5.8784 9.6Z" fill="white"/>
<path d="M22.6336 9.61745L22.6249 9.6C20.8888 9.6 19.4143 10.2107 18.2016 11.4496C17.0029 12.6097 16.3367 14.2135 16.3608 15.8816C16.3608 17.6265 16.9715 19.1009 18.2016 20.3136C19.3573 21.5137 20.9591 22.1803 22.6249 22.1544C24.3436 22.1544 25.8267 21.535 27.0569 20.3136C28.4255 18.9536 29.0889 17.0376 28.8542 15.1225H22.5115V17.4868H26.0361C25.522 18.5981 24.4957 19.3868 23.2895 19.5974C22.0833 19.808 20.8504 19.4138 19.9902 18.5425C19.2725 17.845 18.8747 16.8822 18.8909 15.8816C18.8909 14.8521 19.2573 13.9622 19.9902 13.2206C20.6867 12.5007 21.6494 12.0999 22.6511 12.1126C23.6631 12.1126 24.5443 12.4878 25.3033 13.2206L27.0744 11.4496C25.8905 10.2818 24.2965 9.62416 22.6336 9.61745Z" fill="white"/>
</svg>
