<svg width="32" height="32" viewBox="0 0 32 32" fill="none" xmlns="http://www.w3.org/2000/svg">
<path fill-rule="evenodd" clip-rule="evenodd" d="M10.0267 12.2316C8.10666 10.3828 7.04 10.0272 6.4 9.67165C6.18666 9.52943 5.90222 9.52943 5.90222 9.38721C5.90222 9.24498 6.11555 9.24498 6.61333 9.24498H11.1644C13.1556 9.24498 14.3644 10.4539 14.3644 10.4539L17.3511 13.3694L19.84 10.6672C21.3333 9.17387 22.7556 9.24498 23.8933 9.24498H26.8089C29.2267 9.24498 30.8622 11.0228 30.8622 13.1561V17.8494C30.8622 19.2716 30.4356 20.125 29.44 20.8361C29.1556 21.0494 28.7289 21.2628 28.5156 21.2628C28.16 21.2628 27.6622 21.0494 27.3778 20.9072C27.2356 20.765 27.0222 20.6939 27.0222 20.6228C27.0222 20.4805 27.1644 20.4805 27.52 20.4094C28.2311 20.125 29.3689 19.2005 29.3689 17.9205V13.1561C29.3689 11.805 28.2311 10.8094 26.7378 10.8094H23.7511C22.3289 10.8094 21.6178 11.0939 21.12 11.6628L18.4889 14.5072C18.4889 14.5072 21.5467 17.3516 22.8978 18.7028C24.8889 20.6228 25.8844 20.9783 26.5244 21.3339C26.8089 21.4761 27.0222 21.4761 27.0222 21.6183C27.0222 21.7605 26.88 21.6894 26.3822 21.6894H21.8311C19.7689 21.6894 18.6311 20.4805 18.6311 20.4805L15.6444 17.6361L13.1556 20.3383C11.6622 21.8316 10.3111 21.6894 9.10222 21.6894H6.18666C3.76889 21.6894 2.13333 19.9828 2.13333 17.8494V13.1561C2.13333 11.7339 2.56 10.8805 3.55555 10.0983C3.84 9.95609 4.26666 9.67165 4.48 9.74276C4.83555 9.74276 5.33333 9.95609 5.61778 10.0983C5.76 10.2405 5.97333 10.3117 5.97333 10.3828C5.97333 10.4539 5.83111 10.525 5.47555 10.5961C4.76444 10.8805 3.62666 11.805 3.62666 13.085V17.7783C3.62666 19.1294 4.76444 20.125 6.25778 20.125H9.31555C10.6667 20.125 11.3778 19.8405 11.9467 19.3428L14.5067 16.4983C14.5067 16.4983 11.4489 13.5828 10.0267 12.2316Z" fill="#EB8D30"/>
</svg>
